<?xml version="1.0" encoding="UTF-8" standalone="no"?>
<svg
   viewBox="0 0 22 22"
   version="1.1"
   id="svg1"
   sodipodi:docname="configure.svg"
   width="22"
   height="22"
   inkscape:version="1.3.2 (091e20ef0f, 2023-11-25)"
   xmlns:inkscape="http://www.inkscape.org/namespaces/inkscape"
   xmlns:sodipodi="http://sodipodi.sourceforge.net/DTD/sodipodi-0.dtd"
   xmlns="http://www.w3.org/2000/svg"
   xmlns:svg="http://www.w3.org/2000/svg">
  <sodipodi:namedview
     id="namedview1"
     pagecolor="#ffffff"
     bordercolor="#999999"
     borderopacity="1"
     inkscape:showpageshadow="2"
     inkscape:pageopacity="0"
     inkscape:pagecheckerboard="0"
     inkscape:deskcolor="#d1d1d1"
     inkscape:zoom="17.318182"
     inkscape:cx="10.624672"
     inkscape:cy="15.879265"
     inkscape:window-width="1920"
     inkscape:window-height="994"
     inkscape:window-x="0"
     inkscape:window-y="0"
     inkscape:window-maximized="1"
     inkscape:current-layer="svg1" />
  <defs
     id="defs3051">
    <style
       type="text/css"
       id="current-color-scheme">.ColorScheme-Text { color: #fcfcfc; } </style>
  </defs>
  <g
     id="22-22-configure">
    <rect
       id="rect5384"
       fill="none"
       height="22"
       width="22"
       y="0"
       x="0" />
    <path
       id="path1458-6"
       d="m 11.000009,7.999979 c -1.647965,0 -2.9999887,1.352023 -2.9999887,2.999991 0,1.647945 1.3520237,2.99997 2.9999887,2.99997 1.647971,0 2.999992,-1.352025 2.999992,-2.99997 0,-1.647968 -1.352021,-2.999991 -2.999992,-2.999991 z m 0,1.499992 h -2e-6 v 0 0 z"
       style="color:#333333;fill:#d3dae3;fill-opacity:1;stroke-width:0.750016"
       sodipodi:nodetypes="sssssccccc" />
    <path
       d="m 16.660683,13.294828 a 1.2621781,1.2621751 0 0 0 0.252441,1.392217 l 0.04585,0.04593 a 1.5299119,1.5299083 0 0 1 0,2.164814 1.5299119,1.5299083 0 0 1 -2.164826,0 l -0.04596,-0.04587 a 1.2621781,1.2621751 0 0 0 -1.392211,-0.252444 1.2621781,1.2621751 0 0 0 -0.76495,1.155085 v 0.130042 a 1.5299119,1.5299083 0 0 1 -1.529936,1.529913 1.5299119,1.5299083 0 0 1 -1.529903,-1.529901 v -0.06885 A 1.2621781,1.2621751 0 0 0 8.7050392,16.66066 1.2621781,1.2621751 0 0 0 7.3128193,16.913101 l -0.0459,0.04591 a 1.5299119,1.5299083 0 0 1 -2.1648256,0 1.5299119,1.5299083 0 0 1 0,-2.164822 l 0.0459,-0.0459 A 1.2621781,1.2621751 0 0 0 5.4004287,13.356051 1.2621781,1.2621751 0 0 0 4.2453445,12.591096 H 4.1153962 A 1.5299119,1.5299083 0 0 1 2.5854843,11.061182 1.5299119,1.5299083 0 0 1 4.1153962,9.531264 h 0.068849 A 1.2621781,1.2621751 0 0 0 5.339328,8.7051136 1.2621781,1.2621751 0 0 0 5.0868916,7.312896 l -0.0459,-0.0459 a 1.5299119,1.5299083 0 0 1 0,-2.1648205 1.5299119,1.5299083 0 0 1 2.1648245,0 l 0.0459,0.0459 A 1.2621781,1.2621751 0 0 0 8.6439376,5.400513 h 0.06119 A 1.2621781,1.2621751 0 0 0 9.470079,4.2454351 V 4.1153913 a 1.5299119,1.5299083 0 0 1 1.529908,-1.529907 1.5299119,1.5299083 0 0 1 1.529913,1.529907 v 0.068839 a 1.2621781,1.2621751 0 0 0 0.764959,1.155071 1.2621781,1.2621751 0 0 0 1.392221,-0.2524342 l 0.04583,-0.04592 a 1.5299119,1.5299083 0 0 1 2.164828,0 1.5299119,1.5299083 0 0 1 0,2.1648328 l -0.04591,0.045819 a 1.2621781,1.2621751 0 0 0 -0.25242,1.3922129 v 0.06119 A 1.2621781,1.2621751 0 0 0 17.75449,9.46996 h 0.130035 a 1.5299119,1.5299083 0 0 1 1.529921,1.529891 1.5299119,1.5299083 0 0 1 -1.529921,1.529919 h -0.06878 a 1.2621781,1.2621751 0 0 0 -1.155082,0.764963 z"
       id="path1-1"
       style="fill:none;fill-opacity:1;stroke:#d3dae3;stroke-width:1.17097;stroke-opacity:1" />
  </g>
</svg>
