<?xml version="1.0" encoding="UTF-8" standalone="no"?>
<svg
   viewBox="0 0 22 22"
   version="1.1"
   id="svg1"
   sodipodi:docname="dialog-cancel.svg"
   width="22"
   height="22"
   inkscape:version="1.3.2 (091e20ef0f, 2023-11-25)"
   xmlns:inkscape="http://www.inkscape.org/namespaces/inkscape"
   xmlns:sodipodi="http://sodipodi.sourceforge.net/DTD/sodipodi-0.dtd"
   xmlns:xlink="http://www.w3.org/1999/xlink"
   xmlns="http://www.w3.org/2000/svg"
   xmlns:svg="http://www.w3.org/2000/svg">
  <sodipodi:namedview
     id="namedview1"
     pagecolor="#ffffff"
     bordercolor="#999999"
     borderopacity="1"
     inkscape:showpageshadow="2"
     inkscape:pageopacity="0"
     inkscape:pagecheckerboard="0"
     inkscape:deskcolor="#d1d1d1"
     inkscape:zoom="8.6590909"
     inkscape:cx="10.509186"
     inkscape:cy="4.2729659"
     inkscape:window-width="1920"
     inkscape:window-height="994"
     inkscape:window-x="0"
     inkscape:window-y="0"
     inkscape:window-maximized="1"
     inkscape:current-layer="svg1" />
  <defs
     id="defs3051">
    <style
       type="text/css"
       id="current-color-scheme">.ColorScheme-Text { color: #fcfcfc; } </style>
    <linearGradient
       id="linearGradient3"
       inkscape:collect="always">
      <stop
         style="stop-color:#bc5fd3;stop-opacity:1"
         offset="0"
         id="stop7" />
      <stop
         style="stop-color:#00ccff;stop-opacity:1"
         offset="1"
         id="stop8" />
    </linearGradient>
    <linearGradient
       inkscape:collect="always"
       xlink:href="#linearGradient3"
       id="linearGradient69"
       x1="1"
       y1="11"
       x2="21.029325"
       y2="11"
       gradientUnits="userSpaceOnUse"
       gradientTransform="rotate(-42.602555,11.014443,11.000564)" />
    <linearGradient
       inkscape:collect="always"
       xlink:href="#linearGradient3"
       id="linearGradient2"
       x1="3.8307972"
       y1="4.1190438"
       x2="30.22673"
       y2="28.344297"
       gradientUnits="userSpaceOnUse"
       gradientTransform="translate(0.20000004)" />
  </defs>
  <path
     d="m 4.2470617,3.6377928 c 0,0 0.1756913,-0.1478493 0.5047075,-0.4250714 C 4.8364588,3.1462504 4.9225143,3.0614053 5.0308886,2.9859236 5.140143,2.9113988 5.2594236,2.8298273 5.3885423,2.7417489 5.5189337,2.6558286 5.6533469,2.5540234 5.8074811,2.4629654 5.9641474,2.3758146 6.130565,2.283215 6.3063381,2.1855073 7.0151648,1.8112247 7.9258687,1.4153782 9.0390413,1.2022572 10.146668,0.98615662 11.450162,0.91388661 12.849382,1.1696038 c 1.390818,0.2637704 2.874042,0.851924 4.222317,1.8564893 0.172726,0.119792 0.323016,0.2682807 0.487711,0.4038916 l 0.243575,0.209936 0.122434,0.1059523 0.128393,0.1338526 c 0.280585,0.3009697 0.566348,0.5592482 0.848953,0.9525298 0.137493,0.1838127 0.294651,0.3678089 0.41752,0.5597836 0.120552,0.1934298 0.241642,0.3877548 0.36363,0.5830098 0.130471,0.1923674 0.220769,0.4058812 0.327172,0.6144125 l 0.154024,0.3168807 c 0.05438,0.1049431 0.10001,0.2137124 0.138103,0.3255385 0.365793,0.8765038 0.575883,1.8304923 0.687082,2.8118255 0.01551,0.246103 0.02838,0.493922 0.03826,0.743086 0.01902,0.249533 -0.01391,0.498371 -0.01984,0.749426 l -0.01964,0.377149 c -0.0087,0.12576 -0.03279,0.249745 -0.04884,0.375188 -0.03774,0.250091 -0.07119,0.502569 -0.124076,0.751481 -0.213113,0.998133 -0.591065,1.968321 -1.093508,2.878021 -0.511214,0.908605 -1.19208,1.712545 -1.937329,2.440758 l -0.181803,0.153035 -0.133111,0.108962 -0.266302,0.21819 -0.133169,0.10888 c -0.04259,0.03537 -0.08823,0.07217 -0.149726,0.112668 l -0.343473,0.233226 -0.34533,0.23007 -0.173117,0.113583 -0.172503,0.09286 c -0.229556,0.123887 -0.462796,0.239724 -0.693973,0.357801 -0.949372,0.423333 -1.946835,0.72293 -2.959994,0.851099 -0.252312,0.03282 -0.507322,0.04246 -0.759292,0.06266 -0.126356,0.0055 -0.252291,0.01909 -0.378326,0.01728 l -0.377894,-0.01193 c -0.251011,-0.01512 -0.501731,-0.0031 -0.7489849,-0.04312 C 9.7217007,20.930886 9.4756254,20.897895 9.230453,20.865115 8.2613509,20.670969 7.3270953,20.383661 6.4837291,19.944937 5.6449371,19.506227 4.8695843,18.986343 4.2241895,18.361344 3.8815512,18.07211 3.6034827,17.724534 3.3129773,17.404223 L 3.1860482,17.257781 3.0978823,17.134727 2.922402,16.889576 C 2.806607,16.720597 2.6873946,16.578661 2.5768517,16.390442 2.4678359,16.204342 2.3595381,16.019332 2.2519399,15.835785 2.2007295,15.743743 2.1421806,15.654579 2.0987324,15.561729 L 1.9725325,15.283551 C 1.8897915,15.099637 1.8075769,14.917349 1.7261968,14.736396 1.6580567,14.549952 1.5983575,14.362411 1.5355727,14.178757 1.3947702,13.81704 1.3237856,13.440312 1.2352766,13.080059 1.1853085,12.901128 1.1671992,12.716807 1.1416039,12.53691 1.1159885,12.357373 1.090473,12.179861 1.0654398,12.004016 0.92815146,10.587795 1.1098775,9.2945742 1.4185349,8.2089176 1.7241532,7.1172795 2.1954524,6.243244 2.6274968,5.567992 2.7396866,5.4011427 2.8459533,5.2431368 2.9458616,5.0942661 3.0495871,4.9483926 3.1620584,4.8231148 3.2584968,4.7002727 3.3568677,4.579145 3.4482039,4.4671765 3.5315297,4.3644631 3.615577,4.2621457 3.7073332,4.1831169 3.7810557,4.105103 4.0849778,3.8004031 4.2469622,3.6376506 4.2469622,3.6376506 Z m 0,0 c 0,0 -0.1597647,0.1647895 -0.4593275,0.4736564 C 3.7154903,4.191065 3.6251674,4.2712757 3.5421661,4.3739623 3.4602276,4.4778047 3.3707359,4.590631 3.2740897,4.7128762 3.1795485,4.8366364 3.068813,4.963035 2.9677398,5.1098795 2.8729346,5.2612441 2.7723699,5.4220082 2.6658712,5.5919925 2.2624007,6.2795996 1.8264734,7.1657269 1.6094571,8.2570519 c -0.230664,1.0806756 -0.283318,2.3514871 2.73e-5,3.6629041 0.1576092,0.650884 0.3627549,1.31639 0.6850063,1.952205 0.081065,0.158395 0.1584929,0.319439 0.2432037,0.477654 0.096719,0.151736 0.194281,0.304448 0.2923524,0.458453 l 0.1462766,0.230547 c 0.049676,0.07622 0.1097312,0.141525 0.163928,0.212543 0.1096992,0.139097 0.2200736,0.279341 0.3312248,0.420608 0.1080083,0.140302 0.267098,0.28527 0.3994044,0.429583 l 0.2090623,0.217435 0.1051624,0.109183 c 0.023751,0.02659 -0.017774,-0.02046 -0.00791,-0.01215 l 0.013968,0.01105 0.027594,0.02232 0.054908,0.04508 c 0.2936427,0.239427 0.56775,0.502434 0.8959609,0.703759 0.6155946,0.453528 1.3301137,0.77392 2.0527859,1.048165 0.1846141,0.0586 0.3701225,0.117445 0.5563571,0.176678 0.1857582,0.05719 0.3817705,0.08388 0.5706953,0.131146 l 0.2855811,0.06449 0.2920694,0.03639 c 0.1951801,0.02044 0.3881045,0.05524 0.5842302,0.06601 0.7851708,0.05794 1.5751958,-0.01294 2.3510058,-0.146658 l 0.575422,-0.138805 c 0.194272,-0.03671 0.374431,-0.125444 0.563418,-0.18013 l 0.281313,-0.09145 c 0.09281,-0.03325 0.180901,-0.07914 0.271601,-0.117677 0.179009,-0.08311 0.364055,-0.153154 0.539008,-0.244115 0.171944,-0.09767 0.341941,-0.197839 0.516244,-0.290648 l 0.130028,-0.07027 0.111813,-0.07824 0.225304,-0.153886 0.227575,-0.150648 c 0.03629,-0.01979 0.07922,-0.05598 0.124265,-0.09488 l 0.13228,-0.110236 0.26336,-0.221774 0.132278,-0.110236 0.06603,-0.05501 0.03353,-0.02703 0.01713,-0.01304 c -0.01636,0.01469 0.06051,-0.05184 -0.03271,0.02937 0.576582,-0.545973 1.083695,-1.15717 1.509514,-1.823527 0.105486,-0.16688 0.190555,-0.345644 0.288332,-0.517087 0.04601,-0.0872 0.09892,-0.171344 0.139799,-0.260997 l 0.11501,-0.272451 c 0.07332,-0.182745 0.174697,-0.356008 0.228059,-0.546324 l 0.186434,-0.562172 c 0.202305,-0.761929 0.334087,-1.544379 0.345468,-2.332048 0.0055,-0.1965356 -0.01307,-0.3916943 -0.01729,-0.5880891 L 18.82353,9.2587764 18.782967,8.9686146 C 18.752405,8.7760628 18.742381,8.5783319 18.700562,8.3880526 18.657099,8.1975368 18.61381,8.0075541 18.570656,7.8184979 18.538144,7.6245835 18.45415,7.4491955 18.400836,7.2624655 18.338005,7.0795636 18.291106,6.8886895 18.204593,6.7166746 18.126947,6.5393202 18.049361,6.3629564 17.972156,6.1873055 17.893662,6.0124861 17.795103,5.8648951 17.708629,5.7009315 17.558609,5.3845864 17.282508,5.0411845 17.053696,4.7136713 l -0.04381,-0.062267 -0.0217,-0.031277 -0.01079,-0.015866 c -0.0078,-0.011036 0.03265,0.037426 0.0098,0.010673 L 16.894378,4.5088157 16.709576,4.2964876 C 16.583,4.1588497 16.470083,4.0062088 16.334208,3.8806333 15.282726,2.8293967 14.009272,2.0887562 12.728385,1.6954091 11.444862,1.303791 10.173514,1.2509242 9.0774817,1.3913709 7.9718179,1.5167652 7.0523228,1.8778361 6.3335823,2.2222338 6.1553012,2.3141549 5.9867515,2.4009985 5.8281092,2.4829454 5.6731927,2.5716253 5.5381837,2.6712477 5.4070413,2.7552094 5.277134,2.8412823 5.1569064,2.9210619 5.0469082,2.9940155 4.9370992,3.067556 4.8496354,3.1512509 4.7646544,3.2170253 4.4313522,3.4897657 4.2538006,3.6352093 4.2538006,3.6352093 Z"
     id="path2-8-9-7"
     style="fill:url(#linearGradient69);fill-opacity:1;stroke-width:0.25863" />
  <path
     style="fill:none"
     d="M 0,0 V 22 H 22 V 0 Z"
     id="path19" />
  <path
     d="M 10.521008,9.1170267 5.4407919,4.0367991 C 4.5361576,3.1630641 3.2099002,4.4893226 4.0836361,5.3939568 l 5.0802193,5.0802152 v 0 l 1.3571526,1.357172 v 0 l 5.08024,5.080215 C 15.760622,16.853462 16.958,15.554 16.958,15.554 l -5.079822,-5.079828 v 0 l -1.35717,-1.3571453"
     id="path1-3"
     sodipodi:nodetypes="cccccccccccc"
     style="fill:url(#linearGradient2);stroke-width:1.56452" />
</svg>
