<?xml version="1.0" encoding="UTF-8" standalone="no"?>
<svg
   width="22"
   height="22"
   version="1.1"
   id="svg2"
   sodipodi:docname="notification-disabled.svg"
   inkscape:version="1.3.2 (091e20ef0f, 2023-11-25)"
   xmlns:inkscape="http://www.inkscape.org/namespaces/inkscape"
   xmlns:sodipodi="http://sodipodi.sourceforge.net/DTD/sodipodi-0.dtd"
   xmlns="http://www.w3.org/2000/svg"
   xmlns:svg="http://www.w3.org/2000/svg">
  <defs
     id="defs2" />
  <sodipodi:namedview
     id="namedview2"
     pagecolor="#ffffff"
     bordercolor="#999999"
     borderopacity="1"
     inkscape:showpageshadow="2"
     inkscape:pageopacity="0"
     inkscape:pagecheckerboard="0"
     inkscape:deskcolor="#d1d1d1"
     showgrid="true"
     inkscape:zoom="12.245804"
     inkscape:cx="16.087143"
     inkscape:cy="7.0228137"
     inkscape:window-width="1920"
     inkscape:window-height="994"
     inkscape:window-x="0"
     inkscape:window-y="0"
     inkscape:window-maximized="1"
     inkscape:current-layer="svg2">
    <inkscape:grid
       id="grid2"
       units="px"
       originx="0"
       originy="0"
       spacingx="1"
       spacingy="1"
       empcolor="#0099e5"
       empopacity="0.30196078"
       color="#0099e5"
       opacity="0.14902"
       empspacing="5"
       dotted="false"
       gridanglex="30"
       gridanglez="30"
       visible="true" />
  </sodipodi:namedview>
  <style
     type="text/css"
     id="current-color-scheme">.ColorScheme-Text{color:#232629;}.ColorScheme-ButtonFocus{color:#3daee9;}.ColorScheme-NegativeText { color: #da4453; } </style>
  <g
     id="g1">
    <path
       style="opacity:0.00100002;stroke-width:1"
       d="M 0,0 H 22 V 22 H 0 Z"
       id="path2-6" />
    <path
       d="M 18.936067,17.893397 3.9628341,3.4146474 c -0.085535,-0.082706 -0.2240135,-0.082706 -0.309331,0 L 3.0641517,3.9845368 c -0.085536,0.082713 -0.085536,0.2166106 0,0.2991106 L 5.7706905,6.9012279 C 5.2288148,7.7879998 4.9216696,8.8272866 4.9216696,9.9380735 v 2.4798675 l -1.347581,1.337765 c -0.1194416,0.118463 -0.1861651,0.27733 -0.1861651,0.44275 V 16.0875 C 3.3879235,16.427015 3.672533,17 4.0234299,17 H 8.263 c 0.046717,1 1.2358463,2 2.640523,2 1.404677,0 2.52171,-1 2.640477,-2 l 2.662,0.002 1.830948,1.76061 c 0.08553,0.08271 0.224014,0.08271 0.309332,0 l 0.589345,-0.569882 c 0.08576,-0.08271 0.08576,-0.216618 4.42e-4,-0.299331 z M 10.903523,17.921 C 10.15251,17.921 9.5380088,17.634191 9.5345092,17 l 2.7382538,0.002 c -0.0033,0.634191 -0.618009,0.919 -1.36924,0.919 z M 4.659154,15.472978 V 14.440036 L 6.1928998,12.917382 V 9.9378603 c 0,-0.7723237 0.1835437,-1.496213 0.5130007,-2.1325149 L 15.235,16 H 4.659154 Z"
       id="path1-6"
       style="fill:#d3dae3;fill-opacity:1;stroke-width:0.215121"
       sodipodi:nodetypes="ccccccsccssscsccccccsccscccscccc" />
    <path
       d="m 9.9175631,5.6586106 c 0,-0.2286694 0,-0.3919781 0,-0.4361913 0,-0.5296912 0.4381809,-0.9931693 0.9859599,-0.9931693 0.547786,0 0.985968,0.4634781 0.985968,0.9931693 0,0.044206 0,0.2075219 0,0.4361913 2.191129,0.4480368 3.724874,2.2890587 3.724874,4.5294634 0,0.331058 0,1.522654 0,2.979521 l 1.273858,1.264787 1.530907,1.480346 v -1.464272 c 0,-0.16542 -0.06673,-0.324287 -0.186171,-0.44275 L 16.885378,12.667728 V 10.18786 c 0,-2.472882 -1.512742,-4.5975732 -3.780221,-5.4566319 C 12.877644,3.7414412 11.976994,3 10.903523,3 9.8302709,3 8.9296283,3.7414412 8.7018974,4.7314412 8.2713681,4.8945368 7.8684065,5.10375 7.4976007,5.3516693 L 8.41466,6.2384412 c 0.451091,-0.2695 0.95665,-0.4681394 1.5029031,-0.5798306 z"
       id="path2-9"
       style="fill:#d3dae3;fill-opacity:1;stroke-width:0.215121" />
  </g>
</svg>
