<?xml version="1.0" encoding="UTF-8" standalone="no"?>
<svg
   viewBox="0 0 21.999998 22"
   version="1.1"
   id="svg2"
   sodipodi:docname="system-suspend.svg"
   width="21.999998"
   height="22"
   inkscape:version="1.3.2 (091e20ef0f, 2023-11-25)"
   xmlns:inkscape="http://www.inkscape.org/namespaces/inkscape"
   xmlns:sodipodi="http://sodipodi.sourceforge.net/DTD/sodipodi-0.dtd"
   xmlns:xlink="http://www.w3.org/1999/xlink"
   xmlns="http://www.w3.org/2000/svg"
   xmlns:svg="http://www.w3.org/2000/svg">
  <defs
     id="defs2">
    <linearGradient
       inkscape:collect="always"
       xlink:href="#linearGradient3"
       id="linearGradient73"
       x1="2.919116"
       y1="9.1735849"
       x2="19.999998"
       y2="9"
       gradientUnits="userSpaceOnUse"
       gradientTransform="matrix(1.0014235,0,0,1,-0.00142352,0)" />
    <linearGradient
       id="linearGradient3"
       inkscape:collect="always">
      <stop
         style="stop-color:#bc5fd3;stop-opacity:1"
         offset="0"
         id="stop7" />
      <stop
         style="stop-color:#00ccff;stop-opacity:1"
         offset="1"
         id="stop8" />
    </linearGradient>
  </defs>
  <sodipodi:namedview
     id="namedview2"
     pagecolor="#ffffff"
     bordercolor="#999999"
     borderopacity="1"
     inkscape:showpageshadow="2"
     inkscape:pageopacity="0"
     inkscape:pagecheckerboard="0"
     inkscape:deskcolor="#d1d1d1"
     inkscape:zoom="12.245804"
     inkscape:cx="11.024184"
     inkscape:cy="-9.0643294"
     inkscape:window-width="1920"
     inkscape:window-height="994"
     inkscape:window-x="0"
     inkscape:window-y="0"
     inkscape:window-maximized="1"
     inkscape:current-layer="svg2" />
  <style
     type="text/css"
     id="current-color-scheme">.ColorScheme-Text { color: #fcfcfc; } </style>
  <g
     id="22-22-system-suspend">
    <path
       d="m 1.0008282,10.99706 c 0,0 0.010315,-0.229067 0.028721,-0.658278 0.00721,-0.107176 0.00361,-0.22778 0.021931,-0.358457 0.019077,-0.1306733 0.039817,-0.2734853 0.062319,-0.4279183 0.025036,-0.153921 0.041078,-0.321526 0.078341,-0.496362 0.041859,-0.174059 0.086363,-0.358968 0.1334527,-0.554206 0.2043075,-0.773976 0.5293926,-1.710911 1.1260286,-2.673155 0.5906827,-0.960177 1.4198124,-1.967096 2.5551432,-2.822681 1.1355983,-0.843965 2.5724758,-1.536593 4.2245342,-1.848561 0.2050895,-0.04596 0.4161255,-0.05605 0.6274079,-0.08551 l 0.3193912,-0.03723 0.160861,-0.01831 0.185433,-0.0033 c 0.411468,-0.0023 0.794996,-0.03824 1.275768,0.01985 0.228359,0.02328 0.470165,0.03203 0.694649,0.07155 0.223964,0.04212 0.44896,0.0844 0.675255,0.126802 0.229909,0.03412 0.448184,0.112081 0.673698,0.174832 l 0.337502,0.100948 c 0.114051,0.03095 0.224997,0.07101 0.333095,0.118538 0.892753,0.323587 1.73715,0.814007 2.534719,1.395587 0.191645,0.154955 0.38276,0.313 0.572839,0.47415 0.196555,0.154692 0.357419,0.347088 0.538194,0.521153 l 0.264307,0.269356 c 0.0866,0.09143 0.161638,0.19291 0.2431,0.289495 0.158533,0.19679 0.321718,0.392026 0.469134,0.599147 0.590429,0.831307 1.048693,1.764883 1.378177,2.749076 C 20.837578,8.9134527 20.968448,9.957305 21,10.99728 l -0.01046,0.237074 -0.0093,0.171478 -0.01967,0.343216 -0.01026,0.171481 c -0.0023,0.0553 -0.0058,0.113626 -0.01832,0.1862 l -0.06075,0.410102 -0.06438,0.409323 -0.03363,0.204022 -0.04836,0.189557 c -0.06419,0.252306 -0.136806,0.502038 -0.206374,0.751765 -0.331038,0.98394 -0.785694,1.919581 -1.377148,2.75089 -0.146637,0.207633 -0.312153,0.401577 -0.467848,0.600431 -0.0815,0.09656 -0.156717,0.198341 -0.243354,0.289756 l -0.264568,0.269616 c -0.181031,0.174321 -0.341895,0.366718 -0.538703,0.521412 -0.191371,0.158823 -0.382237,0.317386 -0.57232,0.475439 -0.798872,0.581068 -1.642741,1.073543 -2.536532,1.396878 -0.890683,0.319973 -1.798178,0.538455 -2.695061,0.590362 -0.444828,0.05629 -0.888872,0.02581 -1.321283,0.0227 l -0.193707,-0.005 -0.150253,-0.01832 -0.2992226,-0.03665 C 9.6557081,20.899782 9.4705369,20.891542 9.2571826,20.845572 9.046397,20.799852 8.8369162,20.754352 8.6289906,20.709471 8.5265891,20.684971 8.4213154,20.667651 8.3235614,20.636931 L 8.033398,20.541611 C 7.8420169,20.478041 7.6521891,20.415332 7.4639124,20.352832 7.2805588,20.276932 7.1021142,20.194008 6.9244426,20.116017 6.5628867,19.975011 6.2375442,19.772544 5.9124611,19.594092 5.7469478,19.509882 5.5990165,19.398598 5.4492756,19.295813 5.2997991,19.193299 5.1518599,19.092052 5.0054828,18.991595 3.8701529,18.135231 3.0412747,17.127543 2.4511058,16.166842 1.8544836,15.204344 1.5301746,14.26715 1.3256018,13.493174 1.2788053,13.297935 1.2342419,13.113024 1.1924125,12.938965 1.1551996,12.76413 1.1390667,12.596781 1.1140412,12.442866 1.0915792,12.28869 1.0708197,12.145878 1.0517225,12.015201 1.0333764,11.884269 1.037262,11.763407 1.0297914,11.656492 1.0111749,11.226391 1.0011106,10.997321 1.0011106,10.997321 Z m 0,0 c 0,0 0.013199,0.22881 0.037754,0.657767 0.00841,0.106915 0.00681,0.227519 0.026848,0.357937 0.020949,0.130415 0.043481,0.272454 0.067996,0.426113 0.027069,0.153143 0.045224,0.31997 0.084791,0.493517 0.047338,0.171998 0.097539,0.354578 0.150517,0.547748 0.2330101,0.761324 0.5901598,1.6807 1.2465319,2.577862 0.6393117,0.900004 1.5390517,1.797684 2.6961045,2.475852 0.5857737,0.324103 1.2144764,0.623161 1.9005917,0.816071 0.1714577,0.04754 0.3424077,0.09946 0.5161978,0.144107 0.1771558,0.03153 0.3555974,0.06298 0.535337,0.09502 l 0.268701,0.04828 c 0.089788,0.01497 0.1784446,0.01497 0.2674201,0.02329 0.176632,0.01346 0.354564,0.0271 0.5337868,0.04077 0.1763756,0.01552 0.3907704,-0.0029 0.5865427,-0.0026 l 0.3015553,-0.0059 0.151552,-0.0029 c 0.03569,5.14e-4 -0.02711,-7.7e-4 -0.01427,-0.0022 l 0.0176,-0.0022 0.03522,-0.0046 0.07034,-0.0087 c 0.374994,-0.05397 0.754129,-0.07773 1.12447,-0.182842 0.750502,-0.145911 1.469991,-0.454521 2.161018,-0.800319 0.1681,-0.09607 0.336974,-0.192655 0.506634,-0.289499 0.167839,-0.09788 0.320166,-0.223903 0.48284,-0.330823 l 0.240771,-0.166311 0.224487,-0.190072 c 0.147148,-0.129641 0.303355,-0.247921 0.444045,-0.384794 0.574135,-0.537937 1.056712,-1.166521 1.483438,-1.827126 L 17.43697,14.98375 c 0.104472,-0.167606 0.161114,-0.360001 0.248787,-0.535875 l 0.123103,-0.268574 c 0.03828,-0.09062 0.06419,-0.186461 0.09725,-0.279175 0.05998,-0.187747 0.133703,-0.371104 0.185166,-0.561176 0.04442,-0.192398 0.08588,-0.385052 0.135519,-0.575901 l 0.03623,-0.143072 0.01813,-0.135066 0.03933,-0.269612 0.04326,-0.269101 c 0.009,-0.04004 0.01238,-0.09607 0.01426,-0.15546 l 0.0072,-0.171744 0.01508,-0.34347 0.0072,-0.171738 0.0036,-0.08576 0.0023,-0.04284 0.0019,-0.02146 c -2.55e-4,0.02194 0.0022,-0.07959 -5.15e-4,0.04387 -0.01166,-0.792832 -0.118193,-1.5786883 -0.320426,-2.3420793 -0.05149,-0.190331 -0.125435,-0.373687 -0.185436,-0.561438 -0.03308,-0.09267 -0.05927,-0.188524 -0.09755,-0.27917 L 17.68869,7.5460707 c -0.08479,-0.17742 -0.143791,-0.369041 -0.247763,-0.536904 l -0.287632,-0.516907 c -0.424326,-0.663591 -0.91104,-1.289333 -1.48311,-1.830111 -0.140938,-0.136873 -0.297147,-0.25515 -0.444564,-0.384793 l -0.224733,-0.19007 -0.241039,-0.166317 c -0.162408,-0.107688 -0.314741,-0.233974 -0.483095,-0.331849 -0.169653,-0.09679 -0.338789,-0.193431 -0.507156,-0.2895 -0.16474,-0.107173 -0.350676,-0.163992 -0.524213,-0.251018 -0.177158,-0.07749 -0.349396,-0.171996 -0.534566,-0.224681 -0.183101,-0.06271 -0.365427,-0.124993 -0.546981,-0.186974 -0.181807,-0.0604 -0.357148,-0.0878 -0.536372,-0.135065 -0.334405,-0.103575 -0.774049,-0.132742 -1.169994,-0.185941 l -0.07553,-0.0087 -0.03775,-0.0046 -0.01885,-0.0022 c -0.0135,-0.0017 0.04971,0.0013 0.01448,0 l -0.140949,-0.0029 -0.2813763,-0.0069 c -0.1869818,0 -0.3757761,-0.02018 -0.5601672,-0.0046 -1.4855067,0.06224 -2.8926519,0.497647 -4.049188,1.173234 -1.1570678,0.678683 -2.0565393,1.577395 -2.695074,2.477918 C 1.9569588,6.8346117 1.6003189,7.7545017 1.3672997,8.5155707 1.3143047,8.7087417 1.264133,8.8913247 1.217052,9.0633187 1.177436,9.2371257 1.15933,9.4036957 1.132532,9.5568367 1.107977,9.7104977 1.085185,9.8527897 1.064536,9.98295 1.044317,10.113369 1.0467,10.234231 1.037658,10.341145 1.0132188,10.770359 1,10.99917 1,10.99917 Z"
       id="path2-2-2"
       style="fill:url(#linearGradient73);stroke-width:0.258431" />
    <path
       d="m 6.632099,7.4480847 c 0.39265,0.730226 0.995305,1.332474 1.72554,1.725125 C 7.627404,9.5662297 7.024749,10.1681 6.632099,10.898319 6.239491,10.167724 5.637598,9.5658477 4.907017,9.1732097 5.637598,8.7805587 6.239491,8.1783107 6.632099,7.4480847 m 0,-1.987887 c 0,2.050927 -1.662435,3.713387 -3.712983,3.713387 2.050548,0 3.712983,1.6624653 3.712983,3.7133943 0,-2.050929 1.663255,-3.7133943 3.713035,-3.7133943 -2.04978,-2.56e-4 -3.713035,-1.662844 -3.713035,-3.713387 z"
       id="path6-7-9-7"
       style="fill:#00aad4;fill-opacity:1;stroke-width:0.379731" />
    <path
       d="m 8.389208,16.300773 c 0.07127,0.172254 0.239016,0.284559 0.425483,0.284559 h 2.58168 c 0.254787,0 0.461101,-0.20631 0.461101,-0.4609 0,-0.25459 -0.206507,-0.460709 -0.461101,-0.460709 H 9.927828 l 1.609852,-1.610248 c 0.13216,-0.131964 0.171478,-0.330301 0.100221,-0.502557 -0.07127,-0.172254 -0.239402,-0.284369 -0.425872,-0.284369 h -2.39755 c -0.254394,0 -0.460711,0.206515 -0.460711,0.460907 0,0.254395 0.206509,0.460903 0.460711,0.460903 h 1.284215 L 8.488652,15.79841 c -0.131968,0.13197 -0.171284,0.33011 -0.09949,0.502363 z"
       id="path4-09"
       style="fill:#8d5fd3;fill-opacity:1;stroke-width:0.194637" />
    <path
       d="m 15.009928,8.4460277 h -1.458861 l 1.681992,-1.681735 c 0.174831,-0.175095 0.227001,-0.438249 0.132475,-0.666803 -0.09449,-0.228554 -0.317644,-0.377299 -0.565045,-0.377299 h -2.726356 c -0.338053,0 -0.611801,0.274 -0.611801,0.611531 0,0.337541 0.274008,0.611541 0.611801,0.611541 h 1.249411 l -1.681979,1.682242 c -0.175103,0.174585 -0.227261,0.43774 -0.132748,0.666295 0.0945,0.228546 0.317655,0.37782 0.565057,0.37782 h 2.935792 c 0.338057,0 0.6118,-0.274003 0.6118,-0.611799 0,-0.337792 -0.27349,-0.611793 -0.611538,-0.611793 z"
       id="path6-1-3"
       style="fill:#aa87de;fill-opacity:1;stroke-width:0.258248" />
    <path
       style="fill:none;stroke-width:1.02353"
       d="M 0,0 V 22 H 21.999999 V 0 Z"
       id="path69" />
  </g>
</svg>
