<?xml version="1.0" encoding="UTF-8" standalone="no"?>
<svg
   viewBox="0 0 22 22"
   version="1.1"
   id="svg1"
   sodipodi:docname="system-lock-screen.svg"
   width="22"
   height="22"
   inkscape:version="1.3.2 (091e20ef0f, 2023-11-25)"
   xmlns:inkscape="http://www.inkscape.org/namespaces/inkscape"
   xmlns:sodipodi="http://sodipodi.sourceforge.net/DTD/sodipodi-0.dtd"
   xmlns:xlink="http://www.w3.org/1999/xlink"
   xmlns="http://www.w3.org/2000/svg"
   xmlns:svg="http://www.w3.org/2000/svg">
  <sodipodi:namedview
     id="namedview1"
     pagecolor="#ffffff"
     bordercolor="#999999"
     borderopacity="1"
     inkscape:showpageshadow="2"
     inkscape:pageopacity="0"
     inkscape:pagecheckerboard="0"
     inkscape:deskcolor="#d1d1d1"
     inkscape:zoom="12.245804"
     inkscape:cx="10.697542"
     inkscape:cy="11.350827"
     inkscape:window-width="1920"
     inkscape:window-height="994"
     inkscape:window-x="0"
     inkscape:window-y="0"
     inkscape:window-maximized="1"
     inkscape:current-layer="svg1" />
  <defs
     id="defs3051">
    <style
       type="text/css"
       id="current-color-scheme">.ColorScheme-Text { color: #fcfcfc; } </style>
    <linearGradient
       inkscape:collect="always"
       xlink:href="#linearGradient3"
       id="linearGradient71"
       x1="7.7921214"
       y1="9.9998684"
       x2="14.046208"
       y2="9.9998684"
       gradientUnits="userSpaceOnUse" />
    <linearGradient
       id="linearGradient3"
       inkscape:collect="always">
      <stop
         style="stop-color:#bc5fd3;stop-opacity:1"
         offset="0"
         id="stop7" />
      <stop
         style="stop-color:#00ccff;stop-opacity:1"
         offset="1"
         id="stop8" />
    </linearGradient>
    <linearGradient
       inkscape:collect="always"
       xlink:href="#linearGradient3"
       id="linearGradient69"
       x1="1"
       y1="11"
       x2="21.029325"
       y2="11"
       gradientUnits="userSpaceOnUse" />
  </defs>
  <g
     id="g1487">
    <path
       d="M 8.895784,9.080149 V 7.623778 c 0,-1.02428 0.905645,-1.854619 2.023377,-1.854619 1.117489,0 2.023382,0.831136 2.023382,1.854619 v 1.456371 h 0.410468 c 0.382851,0 0.693197,0.330015 0.693197,0.735194 v 3.680045 c 0,0.406025 -0.31014,0.73519 -0.693197,0.73519 H 8.485319 c -0.3828496,0 -0.6931976,-0.330016 -0.6931976,-0.73519 V 9.815343 c 0,-0.406039 0.310144,-0.735194 0.6931976,-0.735194 z M 8.527896,9.815925 v 3.67888 h 4.782541 V 9.815925 Z M 12.206767,9.080149 V 7.623778 c 0,-0.602458 -0.563209,-1.118846 -1.287606,-1.118846 -0.724889,0 -1.287597,0.515819 -1.287597,1.118846 v 1.456371 z m -1.655492,2.128021 c 0,-0.203143 0.163289,-0.367821 0.367886,-0.367821 0.203182,0 0.367894,0.163242 0.367894,0.367821 v 1.103805 c 0,0.203128 -0.163296,0.367815 -0.367894,0.367815 -0.203175,0 -0.367886,-0.163246 -0.367886,-0.367815 z"
       id="path6-18"
       style="fill:url(#linearGradient71);fill-opacity:1;fill-rule:nonzero;stroke-width:0.183939" />
    <path
       d="m 11.017122,1.000172 c 0,0 0.229401,0.0101 0.659233,0.02876 0.107332,0.0084 0.228107,0.0042 0.358972,0.022 0.130865,0.0191 0.27388,0.0398 0.428541,0.06237 0.154137,0.02502 0.321987,0.04107 0.497078,0.07838 0.17431,0.0419 0.359486,0.08639 0.555006,0.133453 0.775099,0.204314 1.71339,0.529408 2.677023,1.126053 0.961568,0.590698 1.969947,1.419849 2.826769,2.555218 0.845187,1.13561 1.538813,2.572538 1.851234,4.224624 0.04605,0.205095 0.05616,0.416125 0.08559,0.627427 l 0.03718,0.319405 0.0184,0.160865 0.0039,0.185435 c 0.0028,0.411464 0.03831,0.79501 -0.01989,1.275789 -0.02322,0.228369 -0.03209,0.470184 -0.0716,0.694661 -0.0422,0.22398 -0.08461,0.448983 -0.126988,0.675279 -0.03418,0.229912 -0.112244,0.448196 -0.175081,0.673714 l -0.101127,0.337506 c -0.03101,0.114055 -0.07105,0.225004 -0.118707,0.333101 -0.324065,0.892774 -0.815188,1.737185 -1.397611,2.534784 -0.155175,0.191645 -0.313452,0.382768 -0.474837,0.572862 -0.154912,0.196546 -0.347591,0.357418 -0.521899,0.538195 l -0.269749,0.264315 c -0.09153,0.08668 -0.193191,0.161633 -0.289918,0.243103 -0.197068,0.158537 -0.392594,0.321735 -0.600012,0.469152 -0.83251,0.590435 -1.767437,1.048719 -2.753053,1.378211 C 13.104246,20.837583 12.058889,20.968452 11.017402,21 l -0.23741,-0.01042 -0.171736,-0.0099 -0.343711,-0.01966 -0.171723,-0.01 C 10.037532,20.94722 9.979023,20.94342 9.906348,20.9316 L 9.495656,20.87077 9.085734,20.80636 8.881422,20.77278 8.691594,20.72436 c -0.252829,-0.0642 -0.50292,-0.136818 -0.7530096,-0.206391 -0.985359,-0.331037 -1.922358,-0.785705 -2.75487,-1.377181 -0.207935,-0.146633 -0.402165,-0.312156 -0.601304,-0.46785 -0.09675,-0.08146 -0.198624,-0.156727 -0.290173,-0.24337 L 4.0221554,18.16499 c -0.174524,-0.181044 -0.367209,-0.341909 -0.522118,-0.538731 -0.159062,-0.191382 -0.317858,-0.382236 -0.476132,-0.572324 -0.581905,-0.798898 -1.075098,-1.642782 -1.398896,-2.536594 -0.32044,-0.890706 -0.539238,-1.798218 -0.591224,-2.695133 -0.05642,-0.44483 -0.02582,-0.888896 -0.02283,-1.321312 l 0.0057,-0.193711 0.0184,-0.150256 0.03678,-0.299232 c 0.02915,-0.202762 0.03748,-0.387933 0.08352,-0.601302 0.04573,-0.210776 0.09125,-0.420263 0.136295,-0.6282 0.02461,-0.102414 0.04187,-0.207677 0.07274,-0.305431 l 0.09541,-0.290184 c 0.06359,-0.191381 0.126467,-0.381209 0.189054,-0.569489 0.07605,-0.18336 0.159056,-0.361814 0.237159,-0.539495 0.141209,-0.361558 0.34397,-0.686905 0.52268,-1.011988 0.08434,-0.165529 0.195779,-0.31346 0.298713,-0.463202 0.102676,-0.149491 0.204054,-0.297423 0.304659,-0.443802 0.857599,-1.135365 1.866754,-1.96425 2.828837,-2.554433 C 6.8047974,1.853528 7.7433474,1.529206 8.518445,1.32463 8.713966,1.27776 8.899141,1.23339 9.073452,1.19144 9.248544,1.15428 9.416132,1.1382 9.57027,1.11306 9.72467,1.09049 9.867692,1.0699 9.998553,1.0507 10.129677,1.03228 10.250711,1.03622 10.357784,1.0287 10.787745,1.010148 11.017145,1 11.017145,1 Z m 0,0 c 0,0 -0.229145,0.01315 -0.658718,0.03772 -0.107069,0.0097 -0.227848,0.0076 -0.358452,0.027 -0.130604,0.02097 -0.272849,0.04344 -0.426736,0.068 -0.153363,0.0271 -0.320432,0.04518 -0.494229,0.08485 -0.172243,0.04724 -0.355088,0.0975 -0.548542,0.15053 -0.7624286,0.233012 -1.6831276,0.590178 -2.5815936,1.246566 -0.901303,0.639311 -1.800283,1.539071 -2.479432,2.696161 -0.324578,0.585781 -0.624064,1.214503 -0.817254,1.90064 -0.04755,0.171463 -0.09957,0.342414 -0.144314,0.516212 -0.03152,0.177158 -0.06308,0.355605 -0.09514,0.535348 l -0.04839,0.268714 c -0.01503,0.08973 -0.01503,0.17845 -0.02321,0.26741 -0.01341,0.176641 -0.0271,0.354584 -0.04091,0.533805 -0.01547,0.176383 0.0035,0.390779 0.0032,0.586562 l 0.0067,0.301563 0.0035,0.151551 c -5.17e-4,0.03565 7.66e-4,-0.02709 0.0024,-0.0143 l 0.0028,0.01759 0.0052,0.03511 0.0099,0.07035 c 0.05407,0.375004 0.0778,0.75414 0.183106,1.124498 0.146122,0.750528 0.45518,1.470022 0.801476,2.161068 0.09622,0.168102 0.192935,0.336987 0.289921,0.50665 0.09802,0.167835 0.224226,0.320169 0.331296,0.482841 l 0.166556,0.240778 0.190346,0.224494 c 0.12983,0.147164 0.248281,0.303369 0.385351,0.444057 0.538717,0.574139 1.168207,1.056742 1.829771,1.483467 l 0.517508,0.287338 c 0.167848,0.104482 0.36052,0.161121 0.536645,0.248796 l 0.268972,0.123106 c 0.09082,0.03835 0.186727,0.0642 0.279573,0.09723 0.1880196,0.06 0.3716406,0.133701 0.5619896,0.185175 0.192675,0.0445 0.38561,0.08584 0.576732,0.135514 l 0.143279,0.03629 0.135261,0.0181 0.270005,0.03924 0.269486,0.04316 c 0.04011,0.01 0.09621,0.01242 0.155691,0.01428 l 0.171987,0.0084 0.343971,0.01503 0.171985,0.0084 0.08584,0.0042 0.04297,0.0028 0.02144,0.002 c -0.02198,-2.64e-4 0.07963,0.0028 -0.04396,-5.23e-4 0.793977,-0.01158 1.580971,-0.118192 2.345465,-0.320435 0.190607,-0.05143 0.374231,-0.125429 0.562252,-0.185436 0.09289,-0.03304 0.188797,-0.05916 0.279573,-0.09748 l 0.26908,-0.122691 c 0.177672,-0.08488 0.369573,-0.143792 0.537678,-0.247756 l 0.517767,-0.287597 c 0.664666,-0.423889 1.291314,-0.91062 1.832871,-1.482693 0.137074,-0.140951 0.255524,-0.297158 0.385353,-0.44458 l 0.190347,-0.224743 0.166556,-0.241036 c 0.107844,-0.162419 0.234312,-0.314747 0.332332,-0.483113 0.09697,-0.169653 0.193707,-0.338796 0.289917,-0.507165 0.107331,-0.164742 0.164228,-0.350695 0.251384,-0.52423 0.07756,-0.177159 0.172244,-0.349401 0.225003,-0.534577 0.0629,-0.183104 0.125174,-0.365438 0.187245,-0.54699 0.06056,-0.181812 0.08792,-0.357164 0.135258,-0.536387 0.103712,-0.334401 0.132935,-0.774063 0.18621,-1.17002 l 0.0099,-0.07549 0.0052,-0.03771 0.0028,-0.01898 c 0.0017,-0.01343 -0.0013,0.04965 0,0.0145 l 0.0035,-0.140951 0.0077,-0.281382 c 0,-0.186991 0.02021,-0.375779 0.0052,-0.560186 C 19.68732,7.875277 19.251319,6.468104 18.57476,5.31153 17.895091,4.154445 16.99508,3.254945 16.093257,2.616409 15.194534,1.960274 14.273312,1.603632 13.511145,1.37061 13.317696,1.31759 13.134847,1.26742 12.962605,1.220352 c -0.174057,-0.03959 -0.340868,-0.05765 -0.494232,-0.08462 -0.153884,-0.02458 -0.296383,-0.04724 -0.426732,-0.068 -0.130607,-0.0202 -0.25164,-0.0178 -0.358715,-0.02691 -0.429953,-0.02486 -0.659095,-0.03799 -0.659095,-0.03799 z"
       id="path2-8-9-7"
       style="fill:url(#linearGradient69);fill-opacity:1;stroke-width:0.25863" />
    <path
       style="fill:none"
       d="M 0,0 V 22 H 22 V 0 Z"
       id="path19" />
  </g>
</svg>
