<?xml version="1.0" encoding="UTF-8" standalone="no"?>
<svg
   version="1.1"
   viewBox="0 0 22 22"
   id="svg1"
   sodipodi:docname="system-save-session.svg"
   inkscape:version="1.3.2 (091e20ef0f, 2023-11-25)"
   width="22"
   height="22"
   xmlns:inkscape="http://www.inkscape.org/namespaces/inkscape"
   xmlns:sodipodi="http://sodipodi.sourceforge.net/DTD/sodipodi-0.dtd"
   xmlns:xlink="http://www.w3.org/1999/xlink"
   xmlns="http://www.w3.org/2000/svg"
   xmlns:svg="http://www.w3.org/2000/svg">
  <sodipodi:namedview
     id="namedview1"
     pagecolor="#ffffff"
     bordercolor="#000000"
     borderopacity="0.25"
     inkscape:showpageshadow="2"
     inkscape:pageopacity="0.0"
     inkscape:pagecheckerboard="0"
     inkscape:deskcolor="#d1d1d1"
     inkscape:zoom="12.326157"
     inkscape:cx="10.546678"
     inkscape:cy="10.952319"
     inkscape:window-width="1920"
     inkscape:window-height="994"
     inkscape:window-x="0"
     inkscape:window-y="0"
     inkscape:window-maximized="1"
     inkscape:current-layer="svg1" />
  <defs
     id="defs1">
    <style
       type="text/css"
       id="style1">.ColorScheme-Text {
        color:#d8dee9;
      }</style>
    <linearGradient
       inkscape:collect="always"
       xlink:href="#linearGradient3"
       id="linearGradient62"
       x1="3"
       y1="21"
       x2="19"
       y2="21"
       gradientUnits="userSpaceOnUse" />
    <linearGradient
       id="linearGradient3"
       inkscape:collect="always">
      <stop
         style="stop-color:#bc5fd3;stop-opacity:1"
         offset="0"
         id="stop7" />
      <stop
         style="stop-color:#00ccff;stop-opacity:1"
         offset="1"
         id="stop8" />
    </linearGradient>
  </defs>
  <g
     id="22-22-system-save-session"
     transform="translate(0,-10)"
     class="ColorScheme-Text"
     fill="currentColor"
     style="color:#232629">
    <path
       id="path39"
       d="M 0,10 V 32 H 22 V 10 Z"
       fill="none" />
    <path
       id="path4611"
       d="m 5,13 c -1.108,0 -1.99969,0.892 -2,2 v 12 c 0,1.108 0.892,1.999691 2,2 h 12 c 1.108,0 1.99969,-0.892 2,-2 v -9 -0.07422 c -1.3e-4,-0.662041 -0.26282,-1.297005 -0.73047,-1.765625 L 15.84766,13.734374 C 15.37872,13.264339 14.7421,13.000125 14.07812,13 Z m 0,1 h 2 v 3 c 0,1.108 0.892,1.999691 2,2 h 2 2 c 1.108,-3.09e-4 2,-0.892 2,-2 v -2.681641 c 0.0492,0.03831 0.0961,0.07845 0.14062,0.123047 l 2.42188,2.425782 C 17.84338,17.148649 17.99992,17.52815 18,17.925781 V 18 27 c 0,0.554 -0.446,1 -1,1 h -1 v -5 c 0,-1.108 -0.892,-1.999691 -2,-2 H 8 c -1.108,3.09e-4 -2,0.892 -2,2 v 5 H 5 C 4.446,28 4,27.554 4,27 V 15 c 0,-0.554 0.446,-1 1,-1 z m 3,0 h 4 v 3 c 0,0.554 -0.446,1 -1,1 H 9 C 8.446,18 8,17.554 8,17 Z m 0,8 h 6 c 0.554,0 1,0.446 1,1 v 5 H 7 v -5 c 0,-0.554 0.446,-1 1,-1 z"
       style="fill:url(#linearGradient62)"
       sodipodi:nodetypes="scscsccscccsscscccscccscsscsccscssssccsssscsssccss" />
  </g>
</svg>
