<?xml version="1.0" encoding="UTF-8" standalone="no"?>
<svg
   viewBox="0 0 22 22"
   version="1.1"
   id="svg1"
   sodipodi:docname="system-shutdown.svg"
   width="22"
   height="22"
   inkscape:version="1.3.2 (091e20ef0f, 2023-11-25)"
   xmlns:inkscape="http://www.inkscape.org/namespaces/inkscape"
   xmlns:sodipodi="http://sodipodi.sourceforge.net/DTD/sodipodi-0.dtd"
   xmlns:xlink="http://www.w3.org/1999/xlink"
   xmlns="http://www.w3.org/2000/svg"
   xmlns:svg="http://www.w3.org/2000/svg">
  <sodipodi:namedview
     id="namedview1"
     pagecolor="#ffffff"
     bordercolor="#999999"
     borderopacity="1"
     inkscape:showpageshadow="2"
     inkscape:pageopacity="0"
     inkscape:pagecheckerboard="0"
     inkscape:deskcolor="#d1d1d1"
     inkscape:zoom="12.245804"
     inkscape:cx="11.105845"
     inkscape:cy="11.350827"
     inkscape:window-width="1920"
     inkscape:window-height="994"
     inkscape:window-x="0"
     inkscape:window-y="0"
     inkscape:window-maximized="1"
     inkscape:current-layer="svg1" />
  <defs
     id="defs3051">
    <style
       type="text/css"
       id="current-color-scheme">.ColorScheme-Text { color: #fcfcfc; } </style>
    <linearGradient
       inkscape:collect="always"
       xlink:href="#linearGradient3"
       id="linearGradient55"
       x1="11.934034"
       y1="11.286838"
       x2="21.029259"
       y2="11.000054"
       gradientUnits="userSpaceOnUse" />
    <linearGradient
       id="linearGradient3"
       inkscape:collect="always">
      <stop
         style="stop-color:#bc5fd3;stop-opacity:1"
         offset="0"
         id="stop7" />
      <stop
         style="stop-color:#00ccff;stop-opacity:1"
         offset="1"
         id="stop8" />
    </linearGradient>
    <linearGradient
       inkscape:collect="always"
       xlink:href="#linearGradient3"
       id="linearGradient57"
       x1="9.6144323"
       y1="6.1435089"
       x2="12.419751"
       y2="6.1435089"
       gradientUnits="userSpaceOnUse" />
  </defs>
  <g
     id="22-22-system-shutdown">
    <path
       style="fill:none"
       d="M 0,0 V 22 H 22 V 0 Z"
       id="path49" />
    <path
       d="m 11.016988,1.0001825 c 0,0 0.229408,0.010089 0.659245,0.028704 0.107331,0.0075 0.228105,0.00362 0.358973,0.021978 0.130863,0.019137 0.273886,0.039831 0.428547,0.062326 0.154143,0.025088 0.32199,0.04112 0.497084,0.078364 0.174314,0.041895 0.359489,0.086379 0.555013,0.1334518 0.775105,0.2043161 1.71341,0.5294109 2.677052,1.1260649 0.96158,0.5907055 1.969971,1.4198655 2.826804,2.555241 0.845191,1.1356343 1.538837,2.5725682 1.851258,4.2246858 0.046,0.205089 0.0562,0.416131 0.08562,0.62743 l 0.0372,0.319404 0.01839,0.160866 0.0039,0.185439 c 0.0025,0.411481 0.03833,0.795024 -0.0199,1.275813 -0.02327,0.228364 -0.0321,0.470182 -0.07161,0.69467 -0.0422,0.223973 -0.08457,0.448981 -0.126983,0.675275 -0.0342,0.229924 -0.11225,0.4482 -0.175092,0.673726 l -0.101124,0.337511 c -0.03106,0.114052 -0.07112,0.225008 -0.118715,0.333109 -0.324059,0.89278 -0.815193,1.737204 -1.397617,2.53481 -0.155179,0.191643 -0.313461,0.382765 -0.474844,0.57286 -0.154923,0.196556 -0.347591,0.357431 -0.521912,0.538206 l -0.269755,0.264316 c -0.09155,0.08666 -0.19319,0.161643 -0.289912,0.243111 -0.197086,0.158536 -0.392599,0.321733 -0.600017,0.469145 -0.832524,0.590452 -1.767468,1.048738 -2.753091,1.378236 -0.99132,0.32276 -2.036693,0.453632 -3.07819,0.485183 l -0.237418,-0.01035 -0.171729,-0.0099 -0.343721,-0.01966 -0.171721,-0.0099 c -0.05537,-0.0025 -0.113799,-0.006 -0.186478,-0.01836 l -0.410703,-0.06079 -0.4099193,-0.06441 -0.2043134,-0.03362 -0.189839,-0.04837 c -0.252673,-0.06418 -0.502769,-0.136813 -0.752867,-0.206382 -0.985363,-0.331042 -1.922379,-0.785711 -2.754898,-1.377191 -0.207941,-0.146644 -0.402168,-0.312161 -0.6013,-0.467854 -0.09674,-0.08148 -0.198639,-0.15673 -0.29019,-0.243375 l -0.270003,-0.264574 c -0.174582,-0.181039 -0.367257,-0.341907 -0.52217,-0.538719 -0.159061,-0.191387 -0.317851,-0.382252 -0.476138,-0.572345 -0.58191,-0.798897 -1.075109,-1.642804 -1.398918,-2.536624 -0.320438,-0.89071 -0.539238,-1.798234 -0.591223,-2.695153 -0.05639,-0.444844 -0.0258,-0.888903 -0.0228,-1.321329 l 0.0053,-0.193716 0.01839,-0.150259 0.03672,-0.299232 c 0.02921,-0.202764 0.03753,-0.387944 0.08355,-0.601311 0.04575,-0.2107854 0.09128,-0.4202684 0.13629,-0.6282034 0.02455,-0.10242 0.0419,-0.207679 0.07272,-0.305439 l 0.09543,-0.290184 c 0.06362,-0.1913811 0.126467,-0.3812136 0.189053,-0.5695003 0.076,-0.1833646 0.159053,-0.3618167 0.237161,-0.5394958 0.141214,-0.3615659 0.343976,-0.6869162 0.52269,-1.0120111 0.08429,-0.1655218 0.195777,-0.3134568 0.298714,-0.4632021 0.10267,-0.1494873 0.204055,-0.2974219 0.304662,-0.4438054 0.857612,-1.1353751 1.866769,-1.964277 2.828866,-2.554465 C 6.8044143,1.8537238 7.7429733,1.5294045 8.5180863,1.3248302 8.7136083,1.2780152 8.8987843,1.2335352 9.0731007,1.191637 9.248191,1.154398 9.415783,1.138358 9.569921,1.113272 9.724321,1.090772 9.867343,1.070084 9.998211,1.050944 10.129337,1.032582 10.250373,1.036459 10.357443,1.028965 10.787801,1.010083 11.0172,1 11.0172,1 Z m 0,0 c 0,0 -0.229144,0.013187 -0.658721,0.037759 -0.107076,0.00905 -0.227853,0.00676 -0.35846,0.0269 C 9.869201,1.0857885 9.726953,1.1082905 9.57307,1.1328655 9.419706,1.1600195 9.252634,1.1781265 9.0788337,1.2176935 8.9065863,1.2650195 8.7237403,1.3151955 8.5302873,1.3682147 7.7678513,1.6012382 6.8471393,1.9584031 5.9486653,2.6148 c -0.901321,0.6393276 -1.800309,1.539093 -2.479468,2.6961931 -0.324576,0.5857919 -0.62407,1.214513 -0.817261,1.900654 -0.04761,0.1714675 -0.09957,0.342423 -0.144313,0.5162206 -0.03155,0.1771625 -0.06306,0.3556119 -0.09518,0.5353599 l -0.04839,0.268714 c -0.01501,0.08974 -0.01501,0.178449 -0.02327,0.267426 -0.01344,0.176637 -0.02712,0.3545744 -0.04086,0.5338064 -0.01552,0.176385 0.0032,0.390787 0.0025,0.586563 l 0.0063,0.301559 0.0033,0.151556 c -5.15e-4,0.03568 7.7e-4,-0.02712 0.002,-0.01427 l 0.0025,0.01758 0.0048,0.03515 0.0093,0.07038 c 0.0541,0.375012 0.0778,0.754161 0.183107,1.124518 0.14612,0.75054 0.455181,1.470036 0.80149,2.161086 0.09621,0.168112 0.192929,0.336995 0.289921,0.506657 0.09802,0.167847 0.224229,0.320183 0.331297,0.482856 l 0.166553,0.240784 0.190356,0.224488 c 0.129829,0.147158 0.248282,0.303369 0.385351,0.444066 0.538722,0.574146 1.168227,1.056746 1.829794,1.483484 l 0.517515,0.287335 c 0.167846,0.104487 0.360531,0.161123 0.536653,0.2488 l 0.268965,0.123108 c 0.09079,0.0383 0.186732,0.06418 0.279586,0.09724 0.188022,0.06 0.371646,0.133706 0.561999,0.185171 0.192676,0.04452 0.3856054,0.08585 0.5767377,0.135523 l 0.143273,0.03624 0.135263,0.01813 0.270014,0.03927 0.269484,0.04318 c 0.0401,0.0097 0.09622,0.01243 0.1557,0.01427 l 0.171983,0.0076 0.343978,0.015 0.171981,0.0076 0.08585,0.0039 0.04296,0.0029 0.02146,0.0017 c -0.022,-2.58e-4 0.07966,0.0029 -0.044,-5.16e-4 0.793988,-0.01164 1.580986,-0.118194 2.345493,-0.320441 0.190607,-0.05147 0.374236,-0.125437 0.562258,-0.185439 0.09285,-0.03308 0.1888,-0.0592 0.279577,-0.0975 l 0.26923,-0.122591 c 0.177677,-0.08482 0.369576,-0.143796 0.537684,-0.247762 l 0.517774,-0.287596 c 0.664675,-0.42389 1.291327,-0.910627 1.832896,-1.48271 0.137073,-0.140953 0.255521,-0.297164 0.385352,-0.444582 l 0.190351,-0.224749 0.166554,-0.241041 c 0.107854,-0.162417 0.234324,-0.314749 0.332338,-0.483115 0.09698,-0.16966 0.193715,-0.338802 0.289922,-0.507168 0.107331,-0.164745 0.16423,-0.350698 0.251392,-0.52424 0.07758,-0.177158 0.172243,-0.349405 0.224999,-0.534583 0.06287,-0.183107 0.125177,-0.365441 0.187252,-0.546997 0.06056,-0.181815 0.08792,-0.357166 0.135262,-0.536394 0.103709,-0.334405 0.13293,-0.774073 0.186208,-1.170032 l 0.0093,-0.07552 0.0048,-0.03772 0.0025,-0.01887 c 0.002,-0.01343 -7.68e-4,0.04965 0,0.0145 l 0.0032,-0.140952 0.0073,-0.281388 c 0,-0.186988 0.0202,-0.375786 0.0048,-0.560188 C 19.682006,7.8734458 19.245963,6.4662535 18.569395,5.3096718 17.889721,4.1525716 16.989692,3.2530645 16.087857,2.6145127 15.18913,1.9583746 14.267891,1.601727 13.505718,1.3687032 13.312266,1.3156802 13.129419,1.265511 12.957175,1.218441 12.783114,1.178873 12.616296,1.160764 12.462929,1.133868 12.309053,1.109298 12.166545,1.086542 12.0362,1.065844 11.905593,1.045674 11.784554,1.047997 11.677479,1.038949 11.247641,1.014379 11.018495,1.00119 11.018495,1.00119 Z"
       id="path2-675-7"
       style="fill:url(#linearGradient55);fill-opacity:1;stroke-width:0.258631" />
    <path
       d="m 11.01702,1.00018 c -0.773301,0 -1.402588,0.6289517 -1.402588,1.4024419 0,0.037768 0.0039,0.07362 0.0093,0.1187301 v 8.28857 c 0,0.263438 0.213147,0.476916 0.476762,0.476916 h 1.83354 c 0.263437,0 0.476617,-0.213478 0.476617,-0.476916 V 2.52086 c 0.0053,-0.038846 0.0091,-0.077768 0.0091,-0.1183997 C 12.419764,1.6291317 11.790474,1.00018 11.017168,1.00018 Z m 0.44879,1.3932803 c -1.63e-4,0 -1.63e-4,4.155e-4 -0.0025,0.00232 -0.0039,0.017305 -0.0039,0.034463 -0.0063,0.052153 -0.0039,0.01462 -0.0039,0.029694 -0.0039,0.04462 V 10.332867 H 10.572847 V 2.4923444 c 0,-0.015847 -0.0025,-0.031305 -0.0039,-0.04662 -0.0039,-0.014463 -0.0039,-0.029848 -0.0063,-0.054153 0.0063,-0.2426225 0.204991,-0.4379526 0.448775,-0.4379526 0.244783,0 0.444268,0.1971686 0.449096,0.4407831 1.79e-4,-2.538e-4 1.79e-4,-4.153e-4 1.79e-4,-4.153e-4 z"
       id="path8-35-5"
       style="fill:url(#linearGradient57);fill-opacity:1;stroke-width:0.16652" />
  </g>
</svg>
