<?xml version="1.0" encoding="UTF-8" standalone="no"?>
<svg
   viewBox="0 0 22 22"
   version="1.1"
   id="svg1"
   sodipodi:docname="system-log-out.svg"
   width="22"
   height="22"
   inkscape:version="1.3.2 (091e20ef0f, 2023-11-25)"
   xmlns:inkscape="http://www.inkscape.org/namespaces/inkscape"
   xmlns:sodipodi="http://sodipodi.sourceforge.net/DTD/sodipodi-0.dtd"
   xmlns:xlink="http://www.w3.org/1999/xlink"
   xmlns="http://www.w3.org/2000/svg"
   xmlns:svg="http://www.w3.org/2000/svg">
  <sodipodi:namedview
     id="namedview1"
     pagecolor="#ffffff"
     bordercolor="#999999"
     borderopacity="1"
     inkscape:showpageshadow="2"
     inkscape:pageopacity="0"
     inkscape:pagecheckerboard="0"
     inkscape:deskcolor="#d1d1d1"
     inkscape:zoom="12.245804"
     inkscape:cx="11.514148"
     inkscape:cy="11.514148"
     inkscape:window-width="1920"
     inkscape:window-height="994"
     inkscape:window-x="0"
     inkscape:window-y="0"
     inkscape:window-maximized="1"
     inkscape:current-layer="svg1" />
  <defs
     id="defs3051">
    <style
       type="text/css"
       id="current-color-scheme">.ColorScheme-Text { color: #fcfcfc; } </style>
    <linearGradient
       inkscape:collect="always"
       xlink:href="#linearGradient3"
       id="linearGradient31"
       x1="1"
       y1="11.000001"
       x2="20.920219"
       y2="12.019463"
       gradientUnits="userSpaceOnUse"
       gradientTransform="matrix(1.0014398,0,0,1,-0.00143982,0)" />
    <linearGradient
       id="linearGradient3"
       inkscape:collect="always">
      <stop
         style="stop-color:#bc5fd3;stop-opacity:1"
         offset="0"
         id="stop7" />
      <stop
         style="stop-color:#00ccff;stop-opacity:1"
         offset="1"
         id="stop8" />
    </linearGradient>
    <linearGradient
       inkscape:collect="always"
       xlink:href="#linearGradient3"
       id="linearGradient29"
       x1="7.8101039"
       y1="11.040995"
       x2="12.765123"
       y2="10.050347"
       gradientUnits="userSpaceOnUse" />
  </defs>
  <g
     id="22-22-system-log-out">
    <path
       d="m 20.999623,11.00273 c 0,0 -0.01011,0.229066 -0.02879,0.658282 -0.0082,0.107169 -0.0041,0.227772 -0.02193,0.358451 -0.01912,0.130671 -0.03978,0.273483 -0.06238,0.427916 -0.02505,0.153926 -0.04107,0.32153 -0.0784,0.496359 -0.04186,0.174061 -0.0864,0.358975 -0.13345,0.554204 -0.204309,0.773973 -0.529397,1.71091 -1.126039,2.673152 -0.590699,0.960172 -1.419835,1.967089 -2.555182,2.822672 -1.135605,0.843961 -2.572508,1.536588 -4.224597,1.848555 -0.205085,0.04597 -0.416115,0.05604 -0.62741,0.08548 l -0.319397,0.03718 -0.160867,0.01834 -0.185422,0.0036 c -0.411471,0.0023 -0.795007,0.03823 -1.275795,-0.01989 C 9.9716015,20.943781 9.7298002,20.935001 9.5053185,20.895491 9.2813405,20.853391 9.056339,20.811041 8.8300406,20.76869 8.6001301,20.73459 8.3818562,20.656609 8.156332,20.593854 L 7.8188328,20.492874 C 7.7047828,20.461884 7.5938293,20.421854 7.4857288,20.374338 6.5929563,20.05075 5.7485602,19.560333 4.9509755,18.978753 4.759329,18.823804 4.5682152,18.665754 4.3781249,18.504607 4.1815713,18.349914 4.02071,18.157519 3.8399351,17.983458 L 3.5756221,17.714106 C 3.4889675,17.622696 3.4139797,17.521194 3.3325126,17.424609 3.1739887,17.227824 3.01079,17.032585 2.8633781,16.825469 2.2729391,15.994163 1.8146683,15.060586 1.4851875,14.076399 1.1624065,13.086526 1.0315453,12.042689 1,11.002704 l 0.010355,-0.237066 0.010015,-0.171483 0.019618,-0.34321 0.010014,-0.171476 c 0.0027,-0.0552 0.00651,-0.113631 0.018387,-0.186199 l 0.060837,-0.4101041 0.064432,-0.409325 0.033578,-0.204014 0.04841,-0.189558 c 0.064192,-0.252312 0.1368147,-0.502037 0.2063807,-0.751765 0.33104,-0.983936 0.7856927,-1.919579 1.377167,-2.750878 0.1466298,-0.207642 0.3121519,-0.401583 0.4678417,-0.600441 0.081437,-0.0966 0.1567203,-0.198331 0.2433658,-0.289746 l 0.2645725,-0.269615 c 0.1810353,-0.17432 0.3418986,-0.366719 0.5387005,-0.521409 0.1913841,-0.15883 0.3822526,-0.317386 0.5723319,-0.475443 0.7988885,-0.581067 1.6427658,-1.073538 2.5365709,-1.396868 0.8906886,-0.319981 1.7981933,-0.538453 2.695097,-0.590369 0.444832,-0.05635 0.888887,-0.02577 1.321301,-0.02278 l 0.193706,0.0055 0.150263,0.01835 0.299221,0.03672 c 0.202757,0.02913 0.387937,0.03741 0.601294,0.08339 0.210781,0.04567 0.420258,0.09114 0.628198,0.136098 0.102406,0.02456 0.207666,0.04179 0.305431,0.0726 l 0.290165,0.09526 c 0.19139,0.06349 0.381218,0.126282 0.569497,0.18878 0.183357,0.0759 0.361806,0.158824 0.539477,0.236816 0.361559,0.141005 0.686906,0.343471 1.011994,0.521921 0.16551,0.08422 0.313445,0.195497 0.46319,0.298284 0.149485,0.102521 0.297411,0.203757 0.443784,0.304215 1.135363,0.856359 1.964243,1.864048 2.554415,2.824741 0.596645,0.962493 0.920955,1.899686 1.125528,2.673662 0.04689,0.195235 0.09126,0.380144 0.133191,0.554204 0.03713,0.174835 0.05326,0.342181 0.0784,0.4961 0.02252,0.1541751 0.04318,0.2969861 0.06237,0.4276601 0.01835,0.130933 0.01451,0.251794 0.02193,0.358711 C 20.989956,10.773696 21,11.002765 21,11.002765 Z m 0,0 c 0,0 -0.01314,-0.228811 -0.03771,-0.657765 -0.0095,-0.106912 -0.0075,-0.227514 -0.02693,-0.357927 -0.021,-0.130419 -0.04342,-0.272464 -0.068,-0.4261191 -0.02709,-0.153144 -0.04525,-0.319971 -0.08487,-0.493516 -0.04725,-0.171993 -0.09749,-0.354571 -0.150522,-0.547747 -0.23302,-0.761322 -0.590177,-1.680693 -1.246556,-2.577852 -0.639319,-0.900002 -1.539059,-1.797682 -2.696141,-2.475847 -0.585777,-0.3241 -1.214482,-0.623156 -1.900603,-0.816063 -0.171474,-0.0475 -0.34242,-0.09943 -0.516217,-0.14411 -0.177148,-0.0315 -0.355599,-0.06299 -0.535346,-0.09503 l -0.268702,-0.04833 c -0.08974,-0.01498 -0.178449,-0.01498 -0.267418,-0.0232 -0.176637,-0.01341 -0.354574,-0.02708 -0.533799,-0.04087 -0.176377,-0.01545 -0.39078,0.0034 -0.586551,0.0031 l -0.301559,0.0066 -0.151544,0.0034 c -0.03564,-5.19e-4 0.02712,7.67e-4 0.01429,0.0023 l -0.01754,0.0027 -0.03514,0.0051 -0.07039,0.0097 c -0.375008,0.05397 -0.754145,0.07771 -1.124495,0.182843 -0.75051,0.145909 -1.4700015,0.454518 -2.161041,0.800314 -0.1681037,0.09608 -0.3369805,0.192659 -0.5066324,0.2895 -0.1678493,0.09788 -0.3201743,0.223902 -0.4828532,0.330819 l -0.2407712,0.166312 -0.2244888,0.190072 c -0.1471565,0.129642 -0.3033681,0.24792 -0.4440533,0.384794 -0.5741436,0.537935 -1.0567304,1.166515 -1.4834539,1.82712 l -0.2873271,0.516758 c -0.1044873,0.167604 -0.1611207,0.360001 -0.2487967,0.535869 l -0.1231051,0.268579 c -0.038335,0.09069 -0.064192,0.186459 -0.09723,0.279166 -0.059986,0.187752 -0.1337012,0.371107 -0.1851692,0.561182 -0.044464,0.192398 -0.085833,0.385049 -0.1355159,0.575899 l -0.036252,0.143067 -0.018126,0.135065 -0.039237,0.2696151 -0.043182,0.269095 c -0.010014,0.04004 -0.012428,0.09607 -0.01429,0.155467 l -0.00821,0.171735 -0.015012,0.343472 -0.00821,0.171738 -0.00411,0.08572 -0.0027,0.0429 -0.002,0.02141 c 2.653e-4,-0.02194 -0.0027,0.07951 5.177e-4,-0.04387 0.011607,0.792825 0.118193,1.578681 0.3204368,2.34207 0.051423,0.190331 0.1254273,0.373687 0.1854296,0.561437 0.033098,0.09275 0.059185,0.188518 0.09748,0.279167 l 0.1225842,0.268839 c 0.084882,0.177413 0.1437988,0.369037 0.2477643,0.5369 l 0.2875825,0.517016 c 0.4238854,0.663703 0.9106102,1.289444 1.4826847,1.83022 0.1409507,0.136871 0.2971562,0.255151 0.4445681,0.384793 l 0.2247412,0.190071 0.2410375,0.166313 c 0.1624175,0.107691 0.3147435,0.233975 0.4831106,0.331851 0.1696509,0.09684 0.3387941,0.19343 0.5071512,0.2895 0.1647438,0.107173 0.3506961,0.163988 0.5242306,0.251018 0.1771538,0.07748 0.3493934,0.171995 0.5345687,0.224677 0.1831102,0.06275 0.3654333,0.124994 0.5469854,0.186974 0.1818177,0.06043 0.3571617,0.0878 0.5363867,0.135065 0.334397,0.103558 0.774054,0.132741 1.170005,0.18594 l 0.07546,0.0093 0.03772,0.0047 0.01892,0.0023 c 0.01345,0.0012 -0.04966,-9.91e-4 -0.01451,0 l 0.14095,0.003 0.281376,0.007 c 0.186989,0 0.375783,0.02014 0.560177,0.0047 1.485527,-0.06224 2.892688,-0.497648 4.049245,-1.173231 1.157075,-0.678682 2.056561,-1.577396 2.695105,-2.477913 0.656116,-0.897418 1.012763,-1.817306 1.245774,-2.578367 0.05303,-0.19317 0.103194,-0.375756 0.150261,-0.547752 0.03957,-0.1738 0.05768,-0.340371 0.08457,-0.493511 0.0246,-0.153662 0.04724,-0.295959 0.068,-0.426112 0.02023,-0.130418 0.01783,-0.251279 0.02692,-0.358193 0.02461,-0.429212 0.03772,-0.658023 0.03772,-0.658023 z"
       id="path2-7-2"
       style="fill:url(#linearGradient31);stroke-width:1.00072" />
    <path
       d="m 7.810116,12.362691 c 0,0.18266 0.147983,0.330326 0.330326,0.330326 h 4.294337 v 1.981672 c 0,0.293005 0.355766,0.441653 0.563884,0.233545 l 3.633999,-3.633676 c 0.0617,-0.06172 0.09648,-0.145667 0.09648,-0.233541 0,-0.08785 -0.03475,-0.171452 -0.09682,-0.233546 L 12.998323,7.1737979 c -0.206794,-0.207116 -0.563556,-0.06173 -0.563556,0.233547 v 1.982337 H 8.14043 c -0.182674,0 -0.330326,0.148315 -0.330326,0.3303251 z m 4.955007,-2.312344 c 0.182664,0 0.330324,-0.147656 0.330324,-0.33034 V 8.2047689 l 2.83658,2.8362481 -2.83658,2.836244 v -1.51457 c 0,-0.182684 -0.14766,-0.330349 -0.330324,-0.330349 h -4.29434 v -1.981995 z"
       id="path4-0-6"
       style="fill:url(#linearGradient29)" />
    <path
       style="fill:none"
       d="M 0,0 V 22 H 22 V 0 Z"
       id="path29" />
  </g>
</svg>
