<?xml version="1.0" encoding="UTF-8" standalone="no"?>
<svg
   viewBox="0 0 22 22"
   version="1.1"
   id="svg1"
   sodipodi:docname="system-reboot.svg"
   inkscape:version="1.3.2 (091e20ef0f, 2023-11-25)"
   width="22"
   height="22"
   xmlns:inkscape="http://www.inkscape.org/namespaces/inkscape"
   xmlns:sodipodi="http://sodipodi.sourceforge.net/DTD/sodipodi-0.dtd"
   xmlns:xlink="http://www.w3.org/1999/xlink"
   xmlns="http://www.w3.org/2000/svg"
   xmlns:svg="http://www.w3.org/2000/svg">
  <sodipodi:namedview
     id="namedview1"
     pagecolor="#ffffff"
     bordercolor="#000000"
     borderopacity="0.25"
     inkscape:showpageshadow="2"
     inkscape:pageopacity="0.0"
     inkscape:pagecheckerboard="0"
     inkscape:deskcolor="#d1d1d1"
     inkscape:zoom="12.326157"
     inkscape:cx="12.006986"
     inkscape:cy="0.97353944"
     inkscape:window-width="1920"
     inkscape:window-height="994"
     inkscape:window-x="0"
     inkscape:window-y="0"
     inkscape:window-maximized="1"
     inkscape:current-layer="svg1" />
  <defs
     id="defs1">
    <style
       type="text/css"
       id="style1">.ColorScheme-Text {
        color:#d8dee9;
      }
      .ColorScheme-Highlight {
        color:#88c0d0;
      }</style>
    <linearGradient
       inkscape:collect="always"
       xlink:href="#linearGradient3"
       id="linearGradient36"
       x1="0.99999988"
       y1="11.000005"
       x2="21.02935"
       y2="11.000005"
       gradientUnits="userSpaceOnUse"
       gradientTransform="translate(0.14317173)" />
    <linearGradient
       id="linearGradient3"
       inkscape:collect="always">
      <stop
         style="stop-color:#bc5fd3;stop-opacity:1"
         offset="0"
         id="stop7" />
      <stop
         style="stop-color:#00ccff;stop-opacity:1"
         offset="1"
         id="stop8" />
    </linearGradient>
    <linearGradient
       inkscape:collect="always"
       xlink:href="#linearGradient3"
       id="linearGradient16"
       x1="139.99995"
       y1="209.99937"
       x2="159.99998"
       y2="209.99937"
       gradientUnits="userSpaceOnUse"
       gradientTransform="matrix(0.62499906,0,0,0.62494906,-82.591838,-119.03888)" />
  </defs>
  <g
     id="22-22-system-reboot"
     transform="translate(-0.14317173)">
    <path
       d="m 11.155585,21.00001 c 0,0 -0.2294,-0.0101 -0.65924,-0.0288 -0.107329,-0.008 -0.228111,-0.004 -0.358975,-0.022 -0.130869,-0.0192 -0.2738913,-0.0398 -0.4285453,-0.0623 -0.154146,-0.025 -0.32199,-0.0411 -0.497083,-0.0784 -0.174316,-0.0419 -0.359495,-0.0864 -0.555015,-0.13345 -0.775109,-0.20431 -1.713411,-0.52941 -2.677062,-1.12607 -0.961575,-0.5907 -1.969962,-1.41987 -2.826801,-2.555238 -0.845197,-1.135638 -1.53883,-2.57257 -1.851254,-4.224688 -0.0461,-0.205083 -0.0562,-0.416133 -0.08562,-0.627428 l -0.0372,-0.319405 -0.0184,-0.160864 -0.004,-0.185445 c -0.0026,-0.411471 -0.03833,-0.795015 0.0199,-1.275802 0.02326,-0.22837 0.0321,-0.470193 0.0716,-0.694676 0.0422,-0.223972 0.08459,-0.448979 0.126984,-0.675275 0.0342,-0.229923 0.112249,-0.448204 0.175093,-0.67373 l 0.10114,-0.337505 c 0.03101,-0.114054 0.07113,-0.225007 0.118707,-0.333111 0.324059,-0.892776 0.815194,-1.7372 1.397627,-2.534812 0.155174,-0.191634 0.313463,-0.382765 0.474846,-0.572858 0.154911,-0.196555 0.34759,-0.357427 0.521903,-0.538207 l 0.269798,-0.264309 c 0.09155,-0.08667 0.193191,-0.161646 0.289921,-0.243114 0.19707,-0.158536 0.392592,-0.321733 0.600013,-0.469147 0.832519,-0.59045 1.767462,-1.048739 2.753089,-1.37823 C 9.0683337,1.162418 10.113708,1.031552 11.155195,1 l 0.237423,0.01034 0.171734,0.0098 0.343714,0.01966 0.171728,0.0098 c 0.05526,0.0023 0.1138,0.0059 0.186472,0.01836 l 0.410706,0.06077 0.409922,0.0644 0.204314,0.03363 0.189826,0.04836 c 0.25269,0.06414 0.502776,0.136814 0.752872,0.206385 0.985376,0.331043 1.922378,0.785711 2.754904,1.377196 0.207937,0.146643 0.402159,0.312164 0.60131,0.46786 0.09675,0.08147 0.19863,0.156727 0.290181,0.243364 l 0.270007,0.264579 c 0.174569,0.181042 0.367253,0.341906 0.522169,0.538724 0.159056,0.19138 0.317856,0.382251 0.476129,0.572339 0.581918,0.798905 1.075123,1.642807 1.39892,2.536621 0.320441,0.890716 0.539241,1.798245 0.591228,2.695166 0.0564,0.444835 0.0258,0.888898 0.02281,1.321332 l -0.0054,0.193707 -0.0184,0.150261 -0.03674,0.299232 c -0.02919,0.202759 -0.03744,0.38794 -0.08354,0.601312 -0.04574,0.210785 -0.09127,0.420269 -0.1363,0.628204 -0.02455,0.102419 -0.0419,0.207683 -0.07274,0.305439 l -0.09542,0.290184 c -0.0636,0.191385 -0.126467,0.381215 -0.189052,0.569494 -0.076,0.183368 -0.159063,0.361825 -0.237161,0.539503 -0.141215,0.361562 -0.343975,0.686917 -0.522692,1.012006 -0.08432,0.165526 -0.195775,0.31346 -0.298714,0.463203 -0.102676,0.149488 -0.204055,0.297422 -0.30466,0.443806 -0.857612,1.135383 -1.866779,1.964283 -2.828869,2.554473 -0.963912,0.59665 -1.902471,0.92097 -2.677577,1.12554 -0.195522,0.0468 -0.380699,0.0913 -0.555016,0.13319 -0.17509,0.0372 -0.34268,0.0532 -0.496821,0.0784 -0.154406,0.0225 -0.297421,0.0432 -0.428289,0.0623 -0.131125,0.0184 -0.252162,0.0145 -0.359238,0.022 -0.430353,0.0189 -0.659759,0.0289 -0.659759,0.0289 z m 0,0 c 0,0 0.229143,-0.0132 0.658726,-0.0377 0.10707,-0.009 0.227854,-0.007 0.35846,-0.027 0.130609,-0.021 0.272854,-0.0435 0.426731,-0.068 0.15337,-0.0271 0.320442,-0.0452 0.494242,-0.0848 0.172248,-0.0473 0.355094,-0.0975 0.548544,-0.15053 0.762439,-0.23302 1.683152,-0.59019 2.581623,-1.24658 0.901322,-0.63933 1.800314,-1.5391 2.479467,-2.696201 0.324584,-0.585792 0.624066,-1.214513 0.817265,-1.900655 0.0476,-0.17147 0.09957,-0.342419 0.144318,-0.516218 0.03154,-0.177161 0.06304,-0.355612 0.09515,-0.53536 l 0.0484,-0.26871 c 0.01503,-0.08975 0.01503,-0.178459 0.02326,-0.267428 0.01345,-0.176641 0.02712,-0.354574 0.04085,-0.533807 0.01553,-0.176384 -0.0033,-0.390788 -0.0026,-0.586564 l -0.0064,-0.301564 -0.0034,-0.151554 c 5.23e-4,-0.03567 -7.69e-4,0.0271 -0.002,0.01427 l -0.0026,-0.01758 -0.005,-0.03515 -0.0095,-0.07037 c -0.0541,-0.375014 -0.0778,-0.754159 -0.183108,-1.124516 C 19.511882,9.643453 19.20283,8.923956 18.856524,8.232899 18.760314,8.064793 18.663586,7.895908 18.566601,7.726246 18.468591,7.558399 18.342371,7.406069 18.235299,7.243389 L 18.068739,7.002526 17.878396,6.77804 C 17.748567,6.630882 17.630111,6.474672 17.493034,6.333971 16.954314,5.759819 16.324815,5.27722 15.663247,4.850485 L 15.145735,4.563147 C 14.977879,4.458666 14.785203,4.402028 14.609081,4.314346 L 14.340122,4.191239 c -0.09079,-0.03829 -0.18673,-0.06418 -0.279578,-0.09722 -0.188021,-0.06 -0.371645,-0.133711 -0.561999,-0.185177 -0.192673,-0.0445 -0.385613,-0.08585 -0.576735,-0.135521 l -0.143283,-0.03626 -0.135261,-0.01813 -0.270008,-0.03928 -0.269492,-0.04315 c -0.0401,-0.0099 -0.09622,-0.01244 -0.15569,-0.01427 l -0.171986,-0.0078 -0.343976,-0.015 -0.171991,-0.0078 -0.08584,-0.004 -0.04295,-0.003 -0.02145,-0.0017 c 0.022,2.56e-4 -0.07965,-0.003 0.044,5.15e-4 -0.793989,0.01162 -1.5809943,0.118192 -2.3454953,0.320441 -0.190616,0.05145 -0.374235,0.125435 -0.56226,0.185437 -0.09285,0.03307 -0.1888,0.05919 -0.279574,0.09749 l -0.269232,0.12259 c -0.177677,0.08484 -0.369583,0.143797 -0.537689,0.247764 l -0.517769,0.287594 c -0.664677,0.423892 -1.291337,0.910629 -1.832894,1.482712 -0.137078,0.140951 -0.255533,0.297163 -0.38536,0.444583 l -0.190347,0.224749 -0.166558,0.241037 c -0.10785,0.162421 -0.234319,0.314751 -0.33234,0.483118 -0.09699,0.16966 -0.193709,0.338802 -0.289927,0.507169 -0.107327,0.164745 -0.164218,0.350697 -0.251382,0.524239 -0.07759,0.177159 -0.172242,0.349404 -0.225006,0.534585 -0.06287,0.183108 -0.125176,0.36544 -0.187245,0.546997 -0.06057,0.181813 -0.08792,0.357164 -0.135261,0.536393 -0.103707,0.334407 -0.132937,0.774073 -0.186217,1.170032 l -0.0095,0.07551 -0.0049,0.03772 -0.0026,0.01891 c -0.002,0.01343 7.69e-4,-0.04963 0,-0.01449 l -0.0034,0.14095 -0.0074,0.281388 c 0,0.186987 -0.0202,0.375785 -0.0049,0.560186 0.06232,1.485558 0.498377,2.892752 1.174943,4.049335 0.679675,1.157105 1.579707,2.056615 2.481531,2.695165 0.898735,0.65614 1.819967,1.01278 2.582147,1.24581 0.193454,0.053 0.3763,0.10319 0.548548,0.15026 0.17406,0.0396 0.340875,0.0576 0.494234,0.0846 0.153885,0.0246 0.2963923,0.0473 0.4267363,0.068 0.130608,0.0202 0.251649,0.0178 0.358716,0.0269 0.429845,0.0246 0.658985,0.0377 0.658985,0.0377 z"
       id="path2-3-3"
       style="fill:url(#linearGradient36);fill-opacity:1" />
    <path
       style="fill:none"
       d="M 0.14317173,0 V 22 H 22.143172 V 0 Z"
       id="path9" />
    <path
       d="m 15.533014,9.7006264 1.874985,2.4998086 H 16.15802 c 0,2.761138 -2.238584,4.999586 -4.999968,4.999586 -1.2030729,0 -2.3069025,-0.424871 -3.1140513,-1.174679 l 0.7467176,-0.959984 c 0.6248491,0.561342 1.4583227,0.88474 2.3673277,0.88474 2.071041,0 3.749988,-1.678807 3.749988,-3.749663 h -1.250029 c 0,0 1.875003,-2.4998086 1.875003,-2.4998086 z m -8.6756115,4.8996006 -6.3e-6,-1.3e-5 -0.074375,0.09916 -1.8750221,-2.499734 h 1.2499793 c 0,-2.761256 2.2385842,-4.9995861 5.0000176,-4.9995861 1.203048,0 2.306865,0.4248467 3.114033,1.1746605 L 13.525311,9.3346999 C 12.900437,8.7733457 12.066982,8.4499721 11.157996,8.4499721 c -2.0192532,0 -3.6657507,1.5957069 -3.7500381,3.7496629 h 1.2500294 l -0.9848986,1.313087 6.3e-6,6e-6 -0.8156925,1.087505 z"
       id="path1-2"
       style="fill:url(#linearGradient16);fill-rule:evenodd;stroke:none;stroke-width:0.624974" />
  </g>
</svg>
