<?xml version="1.0" encoding="UTF-8" standalone="no"?>
<svg
   viewBox="0 0 24 24"
   version="1.1"
   id="svg1"
   sodipodi:docname="compass.svg"
   inkscape:version="1.3.2 (091e20ef0f, 2023-11-25)"
   width="100%"
   height="100%"
   xmlns:inkscape="http://www.inkscape.org/namespaces/inkscape"
   xmlns:sodipodi="http://sodipodi.sourceforge.net/DTD/sodipodi-0.dtd"
   xmlns:xlink="http://www.w3.org/1999/xlink"
   xmlns="http://www.w3.org/2000/svg"
   xmlns:svg="http://www.w3.org/2000/svg">
  <sodipodi:namedview
     id="namedview1"
     pagecolor="#ffffff"
     bordercolor="#000000"
     borderopacity="0.25"
     inkscape:showpageshadow="2"
     inkscape:pageopacity="0.0"
     inkscape:pagecheckerboard="0"
     inkscape:deskcolor="#d1d1d1"
     inkscape:zoom="11.298977"
     inkscape:cx="17.966228"
     inkscape:cy="30.356731"
     inkscape:window-width="1920"
     inkscape:window-height="994"
     inkscape:window-x="0"
     inkscape:window-y="0"
     inkscape:window-maximized="1"
     inkscape:current-layer="svg1" />
  <defs
     id="defs1">
    <style
       type="text/css"
       id="style1">.ColorScheme-Text {
        color:#d8dee9;
      }</style>
    <linearGradient
       id="linearGradient5"
       inkscape:collect="always">
      <stop
         style="stop-color:#6d55aa;stop-opacity:1;"
         offset="0"
         id="stop3" />
      <stop
         style="stop-color:#2a7fff;stop-opacity:1;"
         offset="1"
         id="stop4" />
    </linearGradient>
    <linearGradient
       inkscape:collect="always"
       xlink:href="#linearGradient10"
       id="linearGradient14"
       gradientUnits="userSpaceOnUse"
       x1="0"
       y1="11"
       x2="22"
       y2="11"
       gradientTransform="translate(0.99999891,1)" />
    <linearGradient
       id="linearGradient10"
       inkscape:collect="always">
      <stop
         style="stop-color:#bc5fd3;stop-opacity:1;"
         offset="0"
         id="stop9" />
      <stop
         style="stop-color:#00ccff;stop-opacity:1;"
         offset="1"
         id="stop10" />
    </linearGradient>
    <linearGradient
       id="linearGradient15"
       inkscape:collect="always"
       gradientTransform="matrix(1.0017299,0,0,0.99827309,0.99999891,1)"
       x1="7.0528664"
       y1="7.946626"
       x2="12.917449"
       y2="7.946626"
       gradientUnits="userSpaceOnUse">
      <stop
         style="stop-color:#bc5fd3;stop-opacity:1;"
         offset="0"
         id="stop13" />
      <stop
         style="stop-color:#00ccff;stop-opacity:1;"
         offset="1"
         id="stop14" />
    </linearGradient>
    <linearGradient
       id="linearGradient17"
       inkscape:collect="always"
       gradientTransform="matrix(0.99998923,0,0,1.0000108,0.99999891,1)"
       x1="10.107104"
       y1="8.8826565"
       x2="16.052425"
       y2="8.8826565"
       gradientUnits="userSpaceOnUse">
      <stop
         style="stop-color:#bc5fd3;stop-opacity:1;"
         offset="0"
         id="stop15" />
      <stop
         style="stop-color:#00ccff;stop-opacity:1;"
         offset="1"
         id="stop16" />
    </linearGradient>
    <linearGradient
       inkscape:collect="always"
       xlink:href="#linearGradient5"
       id="linearGradient1"
       gradientUnits="userSpaceOnUse"
       x1="0"
       y1="11"
       x2="22"
       y2="11"
       gradientTransform="translate(7,34)" />
    <linearGradient
       inkscape:collect="always"
       xlink:href="#linearGradient5"
       id="linearGradient2"
       gradientUnits="userSpaceOnUse"
       x1="0"
       y1="11"
       x2="22"
       y2="11"
       gradientTransform="translate(0.99999891,1)" />
    <linearGradient
       inkscape:collect="always"
       xlink:href="#linearGradient5"
       id="linearGradient3"
       gradientUnits="userSpaceOnUse"
       x1="0"
       y1="11"
       x2="22"
       y2="11"
       gradientTransform="translate(0.99999891,1)" />
    <linearGradient
       inkscape:collect="always"
       xlink:href="#linearGradient10"
       id="linearGradient4"
       gradientUnits="userSpaceOnUse"
       x1="0"
       y1="11"
       x2="22"
       y2="11"
       gradientTransform="translate(0.99999891,1)" />
    <linearGradient
       inkscape:collect="always"
       xlink:href="#linearGradient5"
       id="linearGradient6"
       gradientUnits="userSpaceOnUse"
       x1="0"
       y1="11"
       x2="22"
       y2="11"
       gradientTransform="translate(0.99999891,1)" />
    <linearGradient
       inkscape:collect="always"
       xlink:href="#linearGradient10"
       id="linearGradient7"
       gradientUnits="userSpaceOnUse"
       x1="0"
       y1="11"
       x2="22"
       y2="11"
       gradientTransform="translate(0.99999891,1)" />
    <linearGradient
       inkscape:collect="always"
       xlink:href="#linearGradient5"
       id="linearGradient8"
       gradientUnits="userSpaceOnUse"
       x1="0"
       y1="11"
       x2="22"
       y2="11"
       gradientTransform="translate(0.99999891,1)" />
    <linearGradient
       inkscape:collect="always"
       xlink:href="#linearGradient5"
       id="linearGradient11"
       gradientUnits="userSpaceOnUse"
       x1="0"
       y1="11"
       x2="22"
       y2="11"
       gradientTransform="translate(0.99999891,1)" />
  </defs>
  <path
     style="clip-rule:evenodd;fill:url(#linearGradient1);fill-opacity:0;fill-rule:evenodd;stroke-width:0.688964;stroke-linejoin:round;stroke-miterlimit:1.41421"
     d="M 7,34 V 56 H 29 V 34 Z"
     id="rect817-5"
     inkscape:connector-curvature="0" />
  <path
     d="m 11.833169,10.333313 c -0.353366,0.162135 -0.434348,0.593263 -0.162145,0.865467 0.21725,0.217252 0.534777,0.217252 0.752029,0 0.272203,-0.272204 0.191212,-0.703332 -0.162126,-0.865467 -0.168398,-0.07444 -0.259193,-0.07444 -0.427758,0 z"
     id="path20-3-6"
     style="fill:url(#linearGradient2);fill-opacity:1;stroke-width:0.00169069" />
  <path
     d="m 11.946612,15.779255 c -0.233329,0.07455 -0.353366,0.233331 -0.353366,0.457002 0,0.278795 0.126478,0.389033 0.606135,0.518723 0.145894,0.03895 0.288425,0.09724 0.317669,0.129666 0.07135,0.081 0.03894,0.181585 -0.08102,0.243132 -0.246324,0.126454 -0.58346,-0.01303 -0.58346,-0.239921 0,-0.05835 -0.01945,-0.0682 -0.162146,-0.0682 h -0.162117 v 0.113457 c 0,0.149117 0.06474,0.272364 0.207445,0.39867 0.12967,0.113441 0.278802,0.152331 0.544584,0.145898 0.362995,-0.0091 0.628938,-0.255964 0.599689,-0.557593 -0.026,-0.259344 -0.184796,-0.389035 -0.596481,-0.495886 -0.317689,-0.08099 -0.366381,-0.10702 -0.366381,-0.204232 0,-0.103802 0.08438,-0.145919 0.288434,-0.145919 0.181583,0 0.295024,0.07455 0.295024,0.191225 0,0.09076 0.04865,0.110239 0.194438,0.08424 0.119879,-0.01945 0.129685,-0.02926 0.129685,-0.126478 0,-0.13288 -0.113445,-0.30466 -0.252766,-0.385646 -0.119706,-0.07122 -0.482863,-0.103634 -0.625392,-0.0582 z"
     id="path22-6-0"
     style="fill:url(#linearGradient3);fill-opacity:1;stroke-width:0.00169069" />
  <path
     d="m 12.016802,2.000108 c 0,0 0.229399,0.01 0.65923,0.02877 0.107348,0.0081 0.228116,0.0041 0.358974,0.02198 0.130859,0.01914 0.273876,0.03977 0.428544,0.06242 0.154129,0.02501 0.32199,0.04105 0.49707,0.07841 0.174323,0.04186 0.359502,0.08641 0.555009,0.13345 0.775108,0.204316 1.71339,0.529407 2.677024,1.126047 0.961569,0.590704 1.969948,1.419853 2.826771,2.555219 0.845186,1.1356167 1.538812,2.5725297 1.85123,4.22463 0.04604,0.205088 0.05615,0.41613 0.08562,0.627417 l 0.03725,0.319401 0.01837,0.160874 0.0036,0.185431 c 0.0027,0.41147 0.03832,0.795014 -0.0199,1.275799 -0.02328,0.228369 -0.03208,0.47018 -0.07164,0.694661 -0.04219,0.223972 -0.08452,0.448976 -0.12698,0.675259 -0.03417,0.229927 -0.112243,0.448196 -0.175089,0.673727 l -0.101188,0.33751 c -0.03107,0.114049 -0.07115,0.225004 -0.118708,0.333098 -0.324055,0.892771 -0.815186,1.737184 -1.397601,2.534782 -0.15518,0.191635 -0.313455,0.382761 -0.47484,0.572849 -0.154916,0.196557 -0.34759,0.357422 -0.521903,0.538198 l -0.269727,0.264316 c -0.09157,0.08659 -0.193192,0.161639 -0.289917,0.243104 -0.197072,0.158537 -0.39259,0.32173 -0.600011,0.469148 -0.832506,0.590436 -1.767438,1.048728 -2.753056,1.378211 C 14.103876,21.837586 13.058518,21.968446 12.017032,22 l -0.237421,-0.0105 -0.171724,-0.0099 -0.343707,-0.01966 -0.171734,-0.0091 c -0.05537,-0.0024 -0.113792,-0.0056 -0.186462,-0.01835 l -0.410618,-0.06098 -0.409918,-0.0644 -0.2043172,-0.03363 -0.18983,-0.04836 c -0.252563,-0.06464 -0.502661,-0.137289 -0.752743,-0.206859 -0.98537,-0.331038 -1.922365,-0.785693 -2.754879,-1.37718 -0.207936,-0.146636 -0.40216,-0.312147 -0.6013,-0.467852 -0.09677,-0.0814 -0.198626,-0.156713 -0.290176,-0.243362 L 5.0222018,19.16529 c -0.174577,-0.181035 -0.367256,-0.341894 -0.522166,-0.538707 -0.159057,-0.191384 -0.317853,-0.382241 -0.476131,-0.572345 -0.5819,-0.798877 -1.0751,-1.642784 -1.398898,-2.536587 -0.320443,-0.890692 -0.539236,-1.798217 -0.591221,-2.695118 -0.05643,-0.444843 -0.02581,-0.888896 -0.02283,-1.321319 l 0.0055,-0.193699 0.0184,-0.15027 0.03678,-0.299233 c 0.02915,-0.202755 0.03745,-0.387933 0.08346,-0.601294 0.04571,-0.210784 0.09125,-0.4202663 0.136292,-0.6282023 0.02459,-0.102434 0.04187,-0.207678 0.07273,-0.305435 l 0.0954,-0.290179 c 0.06357,-0.191381 0.126462,-0.381209 0.18905,-0.569489 0.07604,-0.183367 0.159052,-0.361819 0.237158,-0.539491 0.141207,-0.36156 0.343968,-0.686909 0.52268,-1.011998 0.08434,-0.165525 0.195781,-0.313455 0.298712,-0.463196 0.102678,-0.149485 0.204052,-0.2974137 0.304658,-0.4437987 0.857597,-1.135363 1.866755,-1.964256 2.828839,-2.554437 0.963895,-0.596651 1.902441,-0.920959 2.677541,-1.125533 0.195518,-0.04684 0.380694,-0.09127 0.5550092,-0.133193 0.175087,-0.03718 0.342675,-0.05322 0.496817,-0.07841 0.154401,-0.02256 0.297421,-0.04315 0.42828,-0.0624 0.13113,-0.0184 0.252158,-0.01449 0.359225,-0.02198 C 11.787635,2.010056 12.017037,2 12.017037,2 Z m 0,0 c 0,0 -0.229145,0.01313 -0.658726,0.03769 -0.107061,0.0098 -0.227845,0.0073 -0.358448,0.02695 -0.130603,0.02098 -0.272842,0.04344 -0.426735,0.06802 -0.153353,0.0271 -0.320432,0.04521 -0.494227,0.08484 -0.172242,0.04728 -0.3550902,0.09747 -0.5485422,0.150522 -0.762426,0.233021 -1.683124,0.590189 -2.581594,1.246577 -0.901304,0.639315 -1.800283,1.539067 -2.479431,2.6961577 -0.324573,0.585783 -0.624061,1.214495 -0.817255,1.900633 -0.04753,0.171463 -0.09953,0.342416 -0.144312,0.516211 -0.0315,0.177158 -0.06307,0.355611 -0.09512,0.535351 l -0.04841,0.268714 c -0.01498,0.08968 -0.01498,0.178458 -0.02321,0.267414 -0.01341,0.1766513 -0.02711,0.3545763 -0.04087,0.5338023 -0.01549,0.176385 0.0037,0.390784 0.0034,0.586567 l 0.0064,0.301559 0.0037,0.151545 c -5.2e-4,0.03568 7.74e-4,-0.02723 0.0024,-0.01426 l 0.0029,0.01761 0.0052,0.03516 0.0099,0.07035 c 0.05406,0.375004 0.0778,0.754151 0.183107,1.124508 0.146123,0.750527 0.45518,1.470017 0.801477,2.161059 0.09623,0.168118 0.192936,0.33699 0.28992,0.506649 0.09802,0.167858 0.224227,0.320177 0.331295,0.482861 l 0.166559,0.240781 0.190345,0.224476 c 0.129829,0.147164 0.24828,0.303371 0.385353,0.444059 0.538711,0.574142 1.168204,1.056737 1.829768,1.483474 l 0.517509,0.287324 c 0.167845,0.104465 0.360523,0.161121 0.536645,0.248796 l 0.268967,0.123113 c 0.09083,0.03831 0.186728,0.06417 0.279575,0.09727 0.188019,0.06 0.371643,0.133711 0.561992,0.18518 0.192676,0.04448 0.3856072,0.08584 0.5767332,0.135517 l 0.143278,0.03625 0.135262,0.01812 0.270002,0.03932 0.269479,0.04316 c 0.0401,0.01035 0.09622,0.01241 0.155702,0.01426 l 0.171991,0.0074 0.343968,0.01498 0.171986,0.0074 0.08584,0.004 0.04286,0.003 0.0215,0.0016 c -0.02198,-2.53e-4 0.07964,0.003 -0.04396,-5.18e-4 0.793978,-0.01163 1.580973,-0.118191 2.345461,-0.320431 0.190606,-0.05147 0.374228,-0.125433 0.562244,-0.185432 0.0929,-0.0331 0.188799,-0.05924 0.279577,-0.0975 l 0.269153,-0.122539 c 0.17767,-0.08482 0.369576,-0.143794 0.537677,-0.247762 l 0.517767,-0.287335 c 0.664674,-0.423882 1.291319,-0.910614 1.832885,-1.482691 0.137062,-0.140951 0.255508,-0.297161 0.385337,-0.444576 l 0.190351,-0.224747 0.166558,-0.241037 c 0.107845,-0.162412 0.234303,-0.314741 0.332339,-0.483108 0.09689,-0.169662 0.193698,-0.338798 0.289907,-0.507164 0.107348,-0.164741 0.164226,-0.350697 0.251383,-0.52423 0.0776,-0.177157 0.172242,-0.349399 0.225002,-0.53458 0.06294,-0.183107 0.125178,-0.365433 0.187244,-0.546988 0.06047,-0.181815 0.08792,-0.357162 0.135269,-0.536389 0.103704,-0.334401 0.132925,-0.774061 0.186209,-1.170015 l 0.01045,-0.07555 0.0046,-0.03772 0.0027,-0.01891 c 0.0016,-0.01346 -0.0012,0.04965 0,0.01449 l 0.0033,-0.140949 0.0069,-0.281386 c 0,-0.186983 0.0202,-0.37578 0.0046,-0.560179 C 20.687418,8.8752477 20.25142,7.4680727 19.574855,6.3115047 18.895177,5.154349 17.995164,4.254853 17.093344,3.616308 16.194617,2.960178 15.273398,2.603534 14.511226,2.370516 c -0.193442,-0.053 -0.376288,-0.103169 -0.548545,-0.150264 -0.174052,-0.03952 -0.340863,-0.05761 -0.494232,-0.08457 -0.153871,-0.02459 -0.296383,-0.04729 -0.426715,-0.06802 -0.130605,-0.02022 -0.251656,-0.01779 -0.358719,-0.02694 -0.429833,-0.0246 -0.65898,-0.0377 -0.65898,-0.0377 z"
     id="path2-3-5-7"
     style="fill:url(#linearGradient4);fill-opacity:1;stroke-width:0.258629" />
  <path
     d="m 11.486227,4.167956 c -0.01291,0.01 -0.02265,0.389022 -0.02265,0.842813 V 5.83094 h 0.162131 0.162143 l 0.0065,-0.528358 0.01045,-0.525134 0.353361,0.525134 0.353356,0.528358 h 0.158928 0.155549 V 4.988116 4.145298 h -0.162249 -0.162145 v 0.54136 0.544579 L 12.13863,4.686658 11.778853,4.145298 h -0.136164 c -0.07455,0 -0.145894,0.0099 -0.155702,0.02271 z"
     id="path6-5-6"
     style="fill:url(#linearGradient6);fill-opacity:1;stroke-width:0.00169069" />
  <path
     d="m 7.0389808,5.827556 c -0.01,0.0194 -0.01,0.055 0.0037,0.07461 0.07768,0.132887 3.7894062,5.818589 3.8184862,5.851041 0.02926,0.03251 0.09075,-0.0092 0.275588,-0.197813 l 0.239905,-0.242955 -0.0682,-0.162149 c -0.233322,-0.538136 0.152335,-1.134457 0.732581,-1.137666 0.10702,0 0.236706,0.02578 0.333925,0.07129 l 0.162123,0.06822 0.243129,-0.239917 C 12.9682,9.7274178 13.010289,9.6658818 12.977836,9.6366298 12.925936,9.5847398 7.1656788,5.8343861 7.1073388,5.8115671 c -0.02578,-0.01 -0.05501,-0.0037 -0.068,0.01612 z"
     id="path8-3"
     style="fill:url(#linearGradient7);fill-opacity:1;stroke-width:0.00169069" />
  <path
     d="m 11.534927,6.8714007 c -0.392261,0.04872 -0.969294,0.226888 -1.293403,0.395459 l -0.08424,0.04547 0.155541,0.107022 0.15555,0.10701 0.197812,-0.07461 c 0.424701,-0.162134 0.768258,-0.2301 1.205812,-0.249541 0.521931,-0.02272 0.85246,0.02272 1.309629,0.171776 0.5997,0.201027 1.063302,0.492668 1.494416,0.943248 0.664445,0.696907 1.004798,1.549542 1.001582,2.5186483 -0.0033,0.447366 -0.06152,0.777908 -0.213867,1.222061 l -0.119885,0.343542 0.107062,0.158762 0.11023,0.155547 0.09075,-0.201022 c 0.4959,-1.102172 0.499108,-2.291762 0.0105,-3.3678993 -0.369943,-0.807142 -1.131608,-1.56898 -1.941968,-1.938401 -0.671216,-0.304673 -1.47514,-0.431136 -2.185072,-0.337129 z"
     id="path10-5"
     style="fill:url(#linearGradient14);fill-opacity:1;stroke-width:0.00169069" />
  <path
     d="m 8.4067668,9.2118577 c -0.145915,0.340337 -0.268995,0.7877023 -0.314482,1.1572973 -0.110232,0.917382 0.116668,1.867054 0.638586,2.654764 0.596491,0.894708 1.5461602,1.517075 2.6353212,1.724514 0.272202,0.0519 1.089158,0.0519 1.361365,0 0.278794,-0.0519 0.781272,-0.210653 1.021017,-0.32089 l 0.19122,-0.09075 -0.155554,-0.110246 -0.158761,-0.106989 -0.343538,0.119873 c -0.444155,0.152336 -0.774691,0.210647 -1.222063,0.214036 -1.776423,0.0034 -3.2674572,-1.238278 -3.5947902,-2.998476 -0.04211,-0.223699 -0.05188,-0.398688 -0.03895,-0.761844 0.01633,-0.499274 0.0746,-0.787711 0.239913,-1.2090283 0.094,-0.236704 0.08757,-0.26257 -0.06822,-0.460388 l -0.07129,-0.09083 z"
     id="path12-6"
     style="fill:url(#linearGradient15);fill-opacity:1;stroke-width:0.00169069" />
  <path
     d="m 12.957998,10.090179 -0.239919,0.243134 0.0682,0.162135 c 0.142704,0.330707 0.05509,0.716358 -0.217083,0.949827 -0.233481,0.197663 -0.602903,0.243143 -0.888136,0.107052 l -0.126456,-0.05833 -0.239914,0.239899 c -0.188014,0.184792 -0.230103,0.24634 -0.197824,0.275583 0.09726,0.09076 5.841263,3.815276 5.886735,3.818658 0.02902,0 0.04865,-0.01944 0.04865,-0.04865 -0.0033,-0.04549 -3.727853,-5.792721 -3.818476,-5.88672 -0.02945,-0.03272 -0.09092,0.0101 -0.275759,0.197472 z"
     id="path14-2"
     style="fill:url(#linearGradient17);fill-opacity:1;stroke-width:0.00169069" />
  <path
     d="m 17.492828,10.758012 v 0.842818 h 0.632162 0.632158 V 11.438686 11.276559 H 18.287132 17.817117 V 11.08213 10.887684 h 0.421316 0.421326 v -0.162126 -0.162142 h -0.421326 -0.421316 v -0.178371 -0.178202 h 0.45377 0.453785 V 10.060932 9.915027 h -0.615914 -0.61593 z"
     id="path16-9-2"
     style="fill:url(#linearGradient8);fill-opacity:1;stroke-width:0.00169069" />
  <path
     d="m 5.3371048,9.967097 c 0,0.03895 0.421328,1.607873 0.440935,1.636948 0.0099,0.01629 0.08097,0.02926 0.158765,0.02926 h 0.14269 l 0.04871,-0.171782 c 0.02578,-0.09077 0.09719,-0.346931 0.155536,-0.564028 0.05838,-0.220457 0.113452,-0.398664 0.12326,-0.398664 0.01632,0 0.107011,0.320903 0.298246,1.030828 0.02919,0.103812 0.03563,0.107021 0.178197,0.09726 l 0.152333,-0.01052 0.20424,-0.745608 c 0.282009,-1.0405373 0.272202,-0.923701 0.07767,-0.923701 -0.188005,0 -0.145901,-0.07771 -0.324109,0.625552 -0.05188,0.210712 -0.100462,0.389086 -0.10702,0.398724 -0.0099,0.0066 -0.07768,-0.220475 -0.155539,-0.505698 l -0.139313,-0.521939 -0.181591,0.01 -0.178362,0.01 -0.149123,0.534938 c -0.0844,0.29178 -0.158755,0.509044 -0.165355,0.486381 -0.0099,-0.02579 -0.06822,-0.272378 -0.129673,-0.541362 L 5.6773568,9.947821 h -0.168563 c -0.094,0 -0.171774,0.0099 -0.171774,0.01939 z"
     id="path18-1-6"
     style="fill:url(#linearGradient11);fill-opacity:1;stroke-width:0.00169069" />
</svg>
