<?xml version="1.0" encoding="UTF-8" standalone="no"?>
<svg
   width="22"
   height="22"
   version="1.1"
   id="svg3"
   sodipodi:docname="notification-active.svg"
   inkscape:version="1.3.2 (091e20ef0f, 2023-11-25)"
   xmlns:inkscape="http://www.inkscape.org/namespaces/inkscape"
   xmlns:sodipodi="http://sodipodi.sourceforge.net/DTD/sodipodi-0.dtd"
   xmlns="http://www.w3.org/2000/svg"
   xmlns:svg="http://www.w3.org/2000/svg">
  <defs
     id="defs3" />
  <sodipodi:namedview
     id="namedview3"
     pagecolor="#ffffff"
     bordercolor="#999999"
     borderopacity="1"
     inkscape:showpageshadow="2"
     inkscape:pageopacity="0"
     inkscape:pagecheckerboard="0"
     inkscape:deskcolor="#d1d1d1"
     showgrid="true"
     inkscape:zoom="24.491608"
     inkscape:cx="12.820718"
     inkscape:cy="12.208263"
     inkscape:window-width="1920"
     inkscape:window-height="994"
     inkscape:window-x="0"
     inkscape:window-y="0"
     inkscape:window-maximized="1"
     inkscape:current-layer="svg3">
    <inkscape:grid
       id="grid5"
       units="px"
       originx="0"
       originy="0"
       spacingx="1"
       spacingy="1"
       empcolor="#0099e5"
       empopacity="0.30196078"
       color="#0099e5"
       opacity="0.14902"
       empspacing="5"
       dotted="false"
       gridanglex="30"
       gridanglez="30"
       visible="true" />
  </sodipodi:namedview>
  <style
     type="text/css"
     id="current-color-scheme">.ColorScheme-Text{color:#232629;}.ColorScheme-ButtonFocus{color:#3daee9;}.ColorScheme-NegativeText { color: #da4453; } </style>
  <g
     id="notification-active"
     transform="translate(1,-30)">
    <path
       d="M 1,1 H 23 V 23 H 1 Z"
       fill="none"
       id="path1" />
    <path
       d="M 6.3457031,3.345703 A 7.9999995,7.9999995 0 0 0 4,9 H 5 A 7,7 0 0 1 7.0527344,4.052734 Z m 11.3085939,0 -0.707031,0.707031 A 7,7 0 0 1 19,9 h 1 A 7.9999995,7.9999995 0 0 0 17.654297,3.345703 Z M 16.238281,4.761719 15.529297,5.470703 A 5,5 0 0 1 17,9 h 1 A 6,6 0 0 0 16.238281,4.761719 Z M 7.765625,4.765625 A 6,6 0 0 0 6,9 H 7 A 5,5 0 0 1 8.4667969,5.466797 Z"
       class="ColorScheme-Text"
       fill="currentColor"
       fill-rule="evenodd"
       id="path2" />
    <path
       d="M 10.269531,17 A 2,2 0 0 0 10,18 a 2,2 0 0 0 2,2 2,2 0 0 0 2,-2 2,2 0 0 0 -0.271484,-1 z M 12,4 A 1,1 0 0 0 11,5 1,1 0 0 0 11.0098,5.128906 3.9999999,3.9999999 0 0 0 8,9 c 0,3 -1,4 -3,6 v 1 H 19 V 15 C 17,13 16,12 16,9 A 3.9999999,3.9999999 0 0 0 12.990234,5.128906 1,1 0 0 0 13,5 1,1 0 0 0 12,4 Z m 0,2 a 3,3 0 0 1 3,3 c 0,3 0.585938,4 2.585938,6 H 6.414062 c 2,-2 2.5859375,-3 2.5859375,-6 A 3,3 0 0 1 12,6 Z"
       class="ColorScheme-Text"
       fill="currentColor"
       fill-rule="evenodd"
       id="path3" />
  </g>
  <path
     style="fill:none;stroke-width:0.909005"
     inkscape:connector-curvature="0"
     d="M 0,0 H 20 V 20 H 0 Z"
     id="path14" />
  <path
     d="m 14.884567,3.3399323 -0.23372,0.5629148 c -0.04212,0.1018027 0.009,0.2155086 0.107622,0.2615891 1.554783,0.7089822 2.733286,2.3655292 2.816229,4.055836 0.0055,0.1098287 0.09405,0.1972071 0.205364,0.1966941 l 0.616046,-0.00372 c 0.115158,-6.299e-4 0.209578,-0.095249 0.204652,-0.209056 -0.08982,-2.0906888 -1.515692,-4.1097674 -3.443527,-4.9747987 -0.104748,-0.047132 -0.228956,0.00553 -0.272666,0.1102251 z"
     id="path1-1"
     style="fill:#00aad4;stroke-width:0.17479"
     sodipodi:nodetypes="cccccccccc" />
  <path
     d="m 15.921169,1.6265747 -0.22686,0.5553828 c -0.04139,0.1007403 0.0082,0.2136876 0.105685,0.2581686 2.252963,1.0075071 3.822991,3.3071876 3.910042,5.7817839 0.0044,0.108879 0.09045,0.1957241 0.199,0.1950281 l 0.598343,-0.00382 C 20.619174,8.4124885 20.710685,8.3195991 20.707082,8.2072875 20.614342,5.336277 18.803302,2.6779078 16.186216,1.516598 16.08397,1.471378 15.963637,1.522128 15.921169,1.6254962 Z"
     id="path2-2"
     style="fill:#00aad4;stroke-width:0.17132"
     sodipodi:nodetypes="cccccccccc" />
  <path
     d="m 16.820135,12.374764 v -2.40471 c 0,-2.397952 -1.47609,-4.458259 -3.688562,-5.291282 C 12.909339,3.71896 12.030542,3 10.983322,3 9.9361012,3 9.0573112,3.71896 8.8350702,4.678985 6.6226331,5.511988 5.1465293,7.572295 5.1465293,9.97024 v 2.404723 l -1.3148644,1.29745 C 3.7150924,13.787274 3.65,13.941322 3.65,14.101743 v 1.831789 c 0,0.329237 0.2777018,1.066464 0.6200974,1.066464 h 4.0369038 c 0.0034,1.316714 1.305686,1.999999 2.6763208,1.999999 1.370634,0 2.673426,-0.683285 2.676678,-1.999999 h 4.036553 c 0.342629,0 0.620111,-0.737433 0.620111,-1.066464 v -1.831789 c 0,-0.160421 -0.06483,-0.314469 -0.181665,-0.42933 z m -5.837136,5.533234 c -0.732807,0 -1.3320448,-0.293026 -1.3354828,-0.908002 h 2.6718588 c -0.0034,0.614976 -0.60355,0.908002 -1.336376,0.908002 z M 17.076235,16 H 4.8904081 V 14.335789 L 6.3869512,12.85928 V 9.970054 c 0,-2.172514 1.496516,-3.957552 3.6343238,-4.392204 V 5.154873 c 0,-0.513638 0.427577,-0.963064 0.962047,-0.963064 0.534476,0 0.962073,0.449426 0.962073,0.963064 V 5.57785 c 2.137988,0.434459 3.634524,2.21969 3.634524,4.392204 v 2.889226 l 1.496536,1.476509 V 16 Z"
     id="path1-9"
     style="fill:#d3dae3;fill-opacity:1;stroke-width:0.209252"
     sodipodi:nodetypes="cscscsccssscscsssccsccsccccscssscscccc" />
</svg>
