<?xml version="1.0" encoding="UTF-8" standalone="no"?>
<svg
   viewBox="0 0 22 22"
   width="22"
   height="22"
   version="1.1"
   id="svg1"
   sodipodi:docname="system-switch-user.svg"
   inkscape:version="1.3.2 (091e20ef0f, 2023-11-25)"
   xmlns:inkscape="http://www.inkscape.org/namespaces/inkscape"
   xmlns:sodipodi="http://sodipodi.sourceforge.net/DTD/sodipodi-0.dtd"
   xmlns:xlink="http://www.w3.org/1999/xlink"
   xmlns="http://www.w3.org/2000/svg"
   xmlns:svg="http://www.w3.org/2000/svg">
  <sodipodi:namedview
     id="namedview1"
     pagecolor="#ffffff"
     bordercolor="#999999"
     borderopacity="1"
     inkscape:showpageshadow="2"
     inkscape:pageopacity="0"
     inkscape:pagecheckerboard="0"
     inkscape:deskcolor="#d1d1d1"
     inkscape:zoom="7.9375"
     inkscape:cx="10.582677"
     inkscape:cy="11.464567"
     inkscape:window-width="1920"
     inkscape:window-height="994"
     inkscape:window-x="0"
     inkscape:window-y="0"
     inkscape:window-maximized="1"
     inkscape:current-layer="svg1" />
  <defs
     id="defs3051">
    <style
       type="text/css"
       id="current-color-scheme">.ColorScheme-Text { color: #fcfcfc; } </style>
    <linearGradient
       inkscape:collect="always"
       xlink:href="#linearGradient3"
       id="linearGradient49"
       x1="0.99999994"
       y1="11"
       x2="21.029537"
       y2="11"
       gradientUnits="userSpaceOnUse" />
    <linearGradient
       id="linearGradient3"
       inkscape:collect="always">
      <stop
         style="stop-color:#bc5fd3;stop-opacity:1"
         offset="0"
         id="stop7" />
      <stop
         style="stop-color:#00ccff;stop-opacity:1"
         offset="1"
         id="stop8" />
    </linearGradient>
    <linearGradient
       inkscape:collect="always"
       xlink:href="#linearGradient3"
       id="linearGradient53"
       x1="9.9623594"
       y1="12.401863"
       x2="17.323324"
       y2="12.401863"
       gradientUnits="userSpaceOnUse" />
    <linearGradient
       inkscape:collect="always"
       xlink:href="#linearGradient3"
       id="linearGradient51"
       x1="4.6308465"
       y1="8.324954"
       x2="11.99189"
       y2="8.324954"
       gradientUnits="userSpaceOnUse" />
  </defs>
  <g
     id="22-22-system-switch-user">
    <path
       style="fill:none"
       d="M 0,0 V 22 H 22 V 0 Z"
       id="path79" />
    <path
       d="m 11.016898,1 c 0,0 0.2294,0.01011 0.659242,0.02876 0.107333,0.0081 0.228104,0.0039 0.358974,0.02198 0.130858,0.01909 0.273885,0.03978 0.428547,0.06237 0.154136,0.02501 0.32199,0.04104 0.49708,0.07838 0.174317,0.04187 0.359491,0.0864 0.555016,0.133451 0.775108,0.204316 1.713404,0.529411 2.677057,1.126059 0.961577,0.590712 1.969963,1.419871 2.826798,2.555245 0.845196,1.135636 1.538841,2.572566 1.851258,4.224686 0.046,0.205086 0.0562,0.416131 0.08559,0.627428 l 0.03717,0.319403 0.01842,0.160869 0.0042,0.185435 c 0.0028,0.411475 0.03834,0.795023 -0.0199,1.27581 -0.02325,0.228369 -0.0321,0.470186 -0.07158,0.694673 -0.0422,0.223972 -0.0846,0.448978 -0.126985,0.675278 -0.0342,0.22992 -0.112247,0.448201 -0.175086,0.673724 l -0.101129,0.337506 c -0.031,0.114055 -0.0711,0.225006 -0.118701,0.333113 -0.324066,0.892782 -0.815198,1.737202 -1.397629,2.534809 -0.155176,0.191643 -0.313454,0.382769 -0.474837,0.57286 -0.154953,0.19655 -0.347629,0.357416 -0.521943,0.538197 l -0.269782,0.264304 c -0.09154,0.08664 -0.193201,0.161643 -0.289924,0.24311 -0.197076,0.158539 -0.392599,0.321733 -0.600022,0.469151 -0.832734,0.590425 -1.767666,1.048712 -2.753308,1.378204 C 13.104238,20.837583 12.058858,20.968448 11.017358,21 l -0.23742,-0.01035 -0.171727,-0.0098 -0.343711,-0.01966 -0.171739,-0.0098 c -0.05534,-0.0023 -0.11379,-0.0059 -0.18646,-0.01836 L 9.495577,20.8712 9.085659,20.8068 8.8813353,20.77318 8.6915053,20.72482 c -0.252671,-0.06414 -0.502777,-0.136818 -0.752865,-0.206388 -0.985363,-0.331044 -1.922379,-0.785712 -2.754902,-1.377193 -0.207938,-0.146642 -0.402168,-0.312163 -0.601307,-0.467857 -0.09673,-0.08147 -0.198629,-0.156728 -0.290178,-0.243369 L 4.0222293,18.16543 c -0.174579,-0.181035 -0.36726,-0.341901 -0.522169,-0.538717 -0.159062,-0.191385 -0.317862,-0.382252 -0.476142,-0.572342 -0.581907,-0.798902 -1.075105,-1.642804 -1.398914,-2.53662 -0.320442,-0.890714 -0.539241,-1.79824 -0.591226,-2.695161 -0.05642,-0.444841 -0.0258,-0.888899 -0.02283,-1.321328 l 0.0055,-0.193715 0.01842,-0.150257 0.03675,-0.299234 c 0.02917,-0.202761 0.03748,-0.387936 0.08352,-0.601314 0.04572,-0.210779 0.09125,-0.420263 0.136289,-0.628206 0.02457,-0.102408 0.0419,-0.207672 0.07275,-0.305431 l 0.09542,-0.29018 c 0.06358,-0.19139 0.126472,-0.381217 0.189055,-0.569504 0.076,-0.183361 0.159063,-0.361824 0.237162,-0.539492 0.141213,-0.361569 0.343976,-0.686924 0.522691,-1.012007 0.08434,-0.165531 0.195774,-0.31346 0.298712,-0.463203 0.102679,-0.149496 0.204056,-0.297423 0.304661,-0.443805 0.857612,-1.135378 1.866779,-1.964285 2.828868,-2.55447 0.963913,-0.596655 1.902471,-0.92097 2.677574,-1.125543 0.195523,-0.04688 0.380701,-0.09125 0.5550137,-0.133193 0.175093,-0.03719 0.342685,-0.05321 0.496821,-0.07838 0.15441,-0.02253 0.297432,-0.04315 0.428293,-0.06237 0.131121,-0.0184 0.252162,-0.01452 0.359235,-0.02198 0.430059,-0.01888 0.659459,-0.02896 0.659459,-0.02896 z m 0,0 c 0,0 -0.229149,0.01312 -0.658727,0.03771 C 10.251101,1.04721 10.13032,1.04491 9.99971,1.06469 9.869106,1.08563 9.726862,1.10812 9.572973,1.13272 9.419608,1.15984 9.252539,1.17792 9.07874,1.21759 8.9065023,1.26487 8.7236423,1.31509 8.5301833,1.368114 c -0.762424,0.233026 -1.683139,0.590192 -2.581619,1.24659 -0.901309,0.639317 -1.800301,1.539088 -2.479452,2.696193 -0.324583,0.585791 -0.624071,1.214505 -0.817261,1.900647 -0.04758,0.171469 -0.09958,0.342422 -0.14432,0.51622 -0.03152,0.177164 -0.06303,0.355617 -0.09515,0.535363 l -0.04842,0.268715 c -0.015,0.08973 -0.015,0.178453 -0.02325,0.267422 -0.01345,0.176642 -0.0271,0.354578 -0.04093,0.533807 -0.01549,0.176385 0.0035,0.390787 0.0028,0.586567 l 0.0065,0.301555 0.0035,0.151555 c -5.13e-4,0.03566 7.68e-4,-0.02709 0.002,-0.01427 l 0.0028,0.01756 0.0051,0.03513 0.0098,0.07037 c 0.0541,0.375011 0.0778,0.754158 0.183105,1.124518 0.146124,0.750534 0.455184,1.470036 0.801492,2.16109 0.09621,0.168108 0.192938,0.336991 0.289921,0.506651 0.09802,0.167849 0.224228,0.320181 0.331297,0.482858 l 0.166561,0.240783 0.190349,0.224488 c 0.129826,0.147159 0.248281,0.303371 0.385359,0.444064 0.538713,0.574153 1.168219,1.056752 1.829784,1.483488 l 0.517516,0.287335 c 0.167852,0.104485 0.360531,0.161125 0.536651,0.2488 l 0.268975,0.123107 c 0.09082,0.03828 0.186728,0.06414 0.279576,0.09724 0.188023,0.06 0.371647,0.133711 0.561999,0.185178 0.192676,0.04449 0.385614,0.08587 0.5767377,0.135521 l 0.143274,0.03621 0.13527,0.01811 0.270006,0.0393 0.269492,0.04319 c 0.0401,0.0096 0.09622,0.01242 0.155691,0.01423 l 0.171985,0.0075 0.343977,0.015 0.171991,0.0075 0.08584,0.0038 0.04296,0.0026 0.02143,0.0013 c -0.022,-2.59e-4 0.07965,0.0026 -0.044,-5.17e-4 0.793989,-0.01164 1.580994,-0.118194 2.345493,-0.32044 0.190605,-0.05147 0.374235,-0.125435 0.562257,-0.185436 0.09287,-0.03311 0.188799,-0.05923 0.279577,-0.0975 l 0.268992,-0.122583 c 0.177672,-0.08483 0.369582,-0.143797 0.53769,-0.247766 l 0.51763,-0.287509 c 0.664677,-0.423891 1.291328,-0.910627 1.832896,-1.482712 0.137076,-0.140951 0.255528,-0.297163 0.38536,-0.444581 l 0.190343,-0.224747 0.166552,-0.241041 c 0.107855,-0.162418 0.234328,-0.31475 0.332339,-0.483116 0.09698,-0.16966 0.193715,-0.338803 0.289922,-0.507169 0.107328,-0.164746 0.164231,-0.3507 0.251392,-0.524239 0.07756,-0.17716 0.172245,-0.349405 0.224999,-0.534584 0.06292,-0.183109 0.125178,-0.365441 0.187255,-0.547002 0.06057,-0.181815 0.08792,-0.357163 0.135261,-0.536393 0.103706,-0.334405 0.132929,-0.774069 0.186205,-1.170032 l 0.0098,-0.07553 0.0051,-0.0377 0.0028,-0.01894 c 0.002,-0.0134 -7.71e-4,0.04963 0,0.01452 l 0.0035,-0.140954 0.0075,-0.281387 c 0,-0.186992 0.0202,-0.375788 0.005,-0.560189 C 19.685063,7.872292 19.249012,6.465101 18.572442,5.30852 17.892644,4.151335 16.992626,3.251831 16.090789,2.613272 15.192063,1.957137 14.270828,1.600486 13.508653,1.367465 13.315196,1.314475 13.13235,1.264272 12.9601,1.217207 12.786047,1.177687 12.619231,1.159567 12.465865,1.132607 12.311979,1.108007 12.169479,1.085327 12.039127,1.064577 11.908528,1.044357 11.78748,1.046777 11.68041,1.037637 11.246039,1.013187 11.016898,1 11.016898,1 Z"
       id="path2-8-6"
       style="fill:url(#linearGradient49);fill-opacity:1;stroke-width:0.258634" />
    <path
       d="m 9.96238,13.492684 c 0,0.150761 0.122149,0.27263 0.272645,0.27263 h 3.544222 v 1.635518 c 0,0.241845 0.29365,0.364506 0.465364,0.192776 l 2.999243,-2.998975 c 0.051,-0.051 0.07947,-0.120238 0.07947,-0.192753 0,-0.07255 -0.02865,-0.1415 -0.07979,-0.192746 L 14.244282,9.210176 C 14.073655,9.039242 13.77922,9.159176 13.77922,9.402919 v 1.636072 h -3.544228 c -0.150773,0 -0.272633,0.122415 -0.272633,0.272633 z m 4.089485,-1.908422 c 0.150764,0 0.272627,-0.121873 0.272627,-0.272638 v -1.250557 l 2.341092,2.340813 -2.341092,2.340823 v -1.250019 c 0,-0.150769 -0.121863,-0.272637 -0.272627,-0.272637 h -3.544228 v -1.635785 z"
       id="path4-0-7-0"
       style="fill:url(#linearGradient53);fill-opacity:1;stroke-width:0.272648" />
    <path
       d="m 11.99189,7.234125 c 0,-0.15077 -0.122117,-0.272637 -0.272599,-0.272637 H 8.1750663 V 5.325971 c 0,-0.241825 -0.293607,-0.364507 -0.465407,-0.192741 l -2.999243,2.998952 c -0.05075,0.05098 -0.07957,0.120229 -0.07957,0.192741 0,0.07256 0.02895,0.141501 0.07986,0.192753 l 2.999242,2.998962 c 0.170671,0.170943 0.465106,0.051 0.465106,-0.192756 V 9.687815 h 3.5442217 c 0.150736,0 0.272599,-0.122408 0.272599,-0.272624 z M 7.9024143,9.142549 c -0.150746,0 -0.272646,0.121873 -0.272646,0.272642 v 1.250563 L 5.2887143,8.324923 7.6297683,5.984106 v 1.250019 c 0,0.150767 0.1219,0.272629 0.272646,0.272629 H 11.44662 v 1.635795 z"
       id="path4-0-5-6"
       style="fill:url(#linearGradient51);fill-opacity:1;stroke-width:0.27265" />
  </g>
</svg>
