<?xml version="1.0" encoding="UTF-8" standalone="no"?>
<svg
   width="24"
   height="24"
   version="1.1"
   id="svg6"
   sodipodi:docname="system-user-list.svg"
   inkscape:version="1.3.2 (091e20ef0f, 2023-11-25)"
   viewBox="0 0 24 24"
   xmlns:inkscape="http://www.inkscape.org/namespaces/inkscape"
   xmlns:sodipodi="http://sodipodi.sourceforge.net/DTD/sodipodi-0.dtd"
   xmlns:xlink="http://www.w3.org/1999/xlink"
   xmlns="http://www.w3.org/2000/svg"
   xmlns:svg="http://www.w3.org/2000/svg">
  <sodipodi:namedview
     id="namedview1"
     pagecolor="#ffffff"
     bordercolor="#999999"
     borderopacity="1"
     inkscape:showpageshadow="2"
     inkscape:pageopacity="0"
     inkscape:pagecheckerboard="0"
     inkscape:deskcolor="#d1d1d1"
     inkscape:zoom="11.22532"
     inkscape:cx="7.8394201"
     inkscape:cy="4.9887219"
     inkscape:window-width="1920"
     inkscape:window-height="994"
     inkscape:window-x="0"
     inkscape:window-y="0"
     inkscape:window-maximized="1"
     inkscape:current-layer="svg6" />
  <defs
     id="defs10">
    <linearGradient
       inkscape:collect="always"
       xlink:href="#linearGradient3"
       id="linearGradient91"
       x1="32.909122"
       y1="10.909092"
       x2="43.091042"
       y2="10.909092"
       gradientUnits="userSpaceOnUse" />
    <linearGradient
       id="linearGradient3"
       inkscape:collect="always">
      <stop
         style="stop-color:#bc5fd3;stop-opacity:1"
         offset="0"
         id="stop7" />
      <stop
         style="stop-color:#00ccff;stop-opacity:1"
         offset="1"
         id="stop8" />
    </linearGradient>
    <linearGradient
       inkscape:collect="always"
       xlink:href="#linearGradient3"
       id="linearGradient97"
       x1="42.116531"
       y1="18.890625"
       x2="48.181641"
       y2="18.890625"
       gradientUnits="userSpaceOnUse" />
    <linearGradient
       inkscape:collect="always"
       xlink:href="#linearGradient3"
       id="linearGradient93"
       x1="29.272732"
       y1="12.36364"
       x2="33.243069"
       y2="12.36364"
       gradientUnits="userSpaceOnUse" />
    <linearGradient
       inkscape:collect="always"
       xlink:href="#linearGradient3"
       id="linearGradient89"
       x1="42.763641"
       y1="12.36364"
       x2="46.733986"
       y2="12.36364"
       gradientUnits="userSpaceOnUse" />
    <linearGradient
       inkscape:collect="always"
       xlink:href="#linearGradient3"
       id="linearGradient99"
       x1="30.716749"
       y1="21.818359"
       x2="45.283157"
       y2="21.818359"
       gradientUnits="userSpaceOnUse" />
    <linearGradient
       inkscape:collect="always"
       xlink:href="#linearGradient3"
       id="linearGradient95"
       x1="27.818182"
       y1="18.889736"
       x2="33.883293"
       y2="18.889736"
       gradientUnits="userSpaceOnUse" />
  </defs>
  <namedview
     id="namedview8"
     pagecolor="#ffffff"
     bordercolor="#000000"
     borderopacity="0.25"
     inkscape:showpageshadow="2"
     inkscape:pageopacity="0.0"
     inkscape:pagecheckerboard="0"
     inkscape:deskcolor="#d1d1d1"
     showgrid="false"
     inkscape:zoom="35.136364"
     inkscape:cx="9.4773609"
     inkscape:cy="10.98577"
     inkscape:window-width="1920"
     inkscape:window-height="1011"
     inkscape:window-x="0"
     inkscape:window-y="0"
     inkscape:window-maximized="1"
     inkscape:current-layer="svg6" />
  <style
     type="text/css"
     id="current-color-scheme">.ColorScheme-Text { color: #fcfcfc; } </style>
  <g
     id="22-22-system-user-list-0"
     transform="matrix(0.75,0,0,0.75,-16.5,0)"
     stroke-width="1.45455"
     class="ColorScheme-Text"
     fill="currentColor"
     style="color:#232629">
    <path
       d="m 38.000075,5.8181822 c -2.81168,0 -5.090953,2.2792686 -5.090953,5.0909048 0,2.811643 2.279273,5.090914 5.090953,5.090914 2.393556,0 4.401294,-1.651796 4.945498,-3.877663 0.09498,-0.388814 0.145469,-0.795143 0.145469,-1.213251 0,-2.8116362 -2.279316,-5.0909048 -5.090967,-5.0909048 z"
       id="path28142"
       style="fill:url(#linearGradient91)" />
    <path
       d="m 38,17.443359 c -2.109147,0 -3.950266,0.713458 -5.248047,2.003907 -1.297781,1.290448 -2.028916,3.13593 -2.033203,5.279296 l -0.002,0.738282 a 0.72734548,0.72734548 0 0 0 0.726562,0.728515 h 13.113282 a 0.72734548,0.72734548 0 0 0 0.726562,-0.728515 l -0.002,-0.738282 C 45.276932,22.57201 44.546408,20.72541 43.248047,19.4375 41.949686,18.14959 40.108788,17.443359 38,17.443359 Z m 0,1.453125 c 1.788988,0 3.222072,0.579751 4.224609,1.574219 1.002538,0.994468 1.599842,2.426658 1.603516,4.259766 v 0.0098 h -11.65625 v -0.0098 c 0.0036,-1.819602 0.601694,-3.25385 1.605469,-4.251953 C 34.781119,19.480412 36.213937,18.896484 38,18.896484 Z"
       id="path28140" />
    <path
       d="m 44.527344,15.962891 c -0.835551,0 -1.559043,0.312737 -2.121094,0.736328 -0.321247,0.241964 -0.385123,0.698722 -0.142578,1.019531 0.241839,0.320003 0.697104,0.383792 1.017578,0.142578 0.371592,-0.280051 0.75929,-0.443359 1.246094,-0.443359 1.317129,0 2.199218,0.800882 2.199218,2.171875 v 0.773437 h -0.691406 c -0.401869,3.93e-4 -0.727248,0.326647 -0.726562,0.728516 3.93e-4,0.401106 0.325456,0.726169 0.726562,0.726562 h 1.419922 c 0.40109,-4.33e-4 0.72613,-0.325472 0.726563,-0.726562 v -1.501953 c 0,-2.083136 -1.652652,-3.626953 -3.654297,-3.626953 z"
       id="path28138"
       style="fill:url(#linearGradient97)"
       sodipodi:nodetypes="scccssccccccss" />
    <path
       d="m 31.454591,10.181819 c 0.374531,0 0.720436,0.103636 1.028407,0.269887 -1.89e-4,0.0019 0.09527,0.05843 0.09498,0.06047 -0.114764,1.452661 0.249455,2.376872 0.665091,3.098603 -0.396058,0.563505 -1.048422,0.934682 -1.78848,0.934682 -1.025804,0 -1.886095,-0.707989 -2.119317,-1.661932 -0.04073,-0.166636 -0.06254,-0.340697 -0.06254,-0.519887 1.4e-5,-1.204987 0.976844,-2.181818 2.181818,-2.181818 z"
       id="path28134"
       style="fill:url(#linearGradient93)" />
    <path
       d="m 44.552119,10.181819 c -0.374531,0 -0.720437,0.103636 -1.028408,0.269887 1.89e-4,0.0019 -0.09527,0.05843 -0.09498,0.06047 0.114764,1.452661 -0.249454,2.376872 -0.665091,3.098603 0.396059,0.563505 1.048422,0.934682 1.788481,0.934682 1.025803,0 1.886094,-0.707989 2.119316,-1.661932 0.04073,-0.166636 0.06255,-0.340697 0.06255,-0.519887 -1.4e-5,-1.204987 -0.976843,-2.181818 -2.181818,-2.181818 z"
       id="path340-1-2-6"
       style="fill:url(#linearGradient89);fill-opacity:1" />
    <path
       id="path84-3-7-3"
       d="M 22,0 V 32 H 54 V 0 Z"
       fill="none" />
    <g
       id="path28458">
      <path
         d="m 38,17.443359 c -2.109147,0 -3.950266,0.713458 -5.248047,2.003907 -1.297781,1.290448 -2.028916,3.13593 -2.033203,5.279296 l -0.002,0.738282 a 0.72734548,0.72734548 0 0 0 0.726562,0.728515 h 13.113282 a 0.72734548,0.72734548 0 0 0 0.726562,-0.728515 l -0.002,-0.738282 C 45.276932,22.57201 44.546408,20.72541 43.248047,19.4375 41.949686,18.14959 40.108788,17.443359 38,17.443359 Z m 0,1.453125 c 1.788988,0 3.222072,0.579751 4.224609,1.574219 1.002538,0.994468 1.599842,2.426658 1.603516,4.259766 v 0.0098 h -11.65625 v -0.0098 c 0.0036,-1.819602 0.601694,-3.25385 1.605469,-4.251953 C 34.781119,19.480412 36.213937,18.896484 38,18.896484 Z"
         id="path28645"
         style="fill:url(#linearGradient99)" />
    </g>
    <path
       d="m 31.472479,15.962003 c 0.835551,0 1.559043,0.312737 2.121094,0.736328 a 0.72727501,0.72727501 0 0 1 0.142578,1.019531 0.72727501,0.72727501 0 0 1 -1.017578,0.142578 c -0.371592,-0.280051 -0.75929,-0.443359 -1.246094,-0.443359 -1.317129,0 -2.199218,0.800882 -2.199218,2.171875 v 0.773437 h 0.691406 a 0.72727501,0.72727501 0 0 1 0.726562,0.728516 0.72727501,0.72727501 0 0 1 -0.726562,0.726562 h -1.419922 a 0.72734774,0.72734774 0 0 1 -0.726563,-0.726562 v -1.501953 c 0,-2.083136 1.652652,-3.626953 3.654297,-3.626953 z"
       id="path29086"
       style="fill:url(#linearGradient95)" />
  </g>
</svg>
