<?xml version="1.0" encoding="UTF-8" standalone="no"?>
<svg
   viewBox="0 0 22 22"
   version="1.1"
   id="svg1"
   sodipodi:docname="window-pin.svg"
   width="22"
   height="22"
   inkscape:version="1.3.2 (091e20ef0f, 2023-11-25)"
   xmlns:inkscape="http://www.inkscape.org/namespaces/inkscape"
   xmlns:sodipodi="http://sodipodi.sourceforge.net/DTD/sodipodi-0.dtd"
   xmlns="http://www.w3.org/2000/svg"
   xmlns:svg="http://www.w3.org/2000/svg">
  <defs
     id="defs1" />
  <sodipodi:namedview
     id="namedview1"
     pagecolor="#ffffff"
     bordercolor="#999999"
     borderopacity="1"
     inkscape:showpageshadow="2"
     inkscape:pageopacity="0"
     inkscape:pagecheckerboard="0"
     inkscape:deskcolor="#d1d1d1"
     inkscape:zoom="12.245804"
     inkscape:cx="11.269166"
     inkscape:cy="17.557035"
     inkscape:window-width="1920"
     inkscape:window-height="994"
     inkscape:window-x="0"
     inkscape:window-y="0"
     inkscape:window-maximized="1"
     inkscape:current-layer="svg1" />
  <style
     type="text/css"
     id="current-color-scheme">.ColorScheme-Text { color: #fcfcfc; } </style>
  <g
     id="window-pin"
     transform="translate(22,-2.0000019)">
    <path
       d="m -12.680946,16.485103 c -0.342556,-0.341295 -0.806426,-0.532915 -1.289961,-0.532915 -0.483627,0 -0.947525,0.19162 -1.290053,0.532915 l -3.573519,3.573484 c -0.105022,0.10238 -0.164579,0.242684 -0.165513,0.389326 -8e-4,0.146647 0.0571,0.287654 0.160817,0.391342 0.103742,0.103697 0.244806,0.16156 0.391543,0.160738 0.146724,-8.92e-4 0.287099,-0.0605 0.38953,-0.16543 l 3.575324,-3.573479 c 0.136386,-0.135841 0.321176,-0.21216 0.5137,-0.21216 0.192523,0 0.377319,0.07637 0.513578,0.21216 l 2.41672,2.417123 c 0.311067,0.313828 0.753801,0.459665 1.190568,0.392157 0.436533,-0.06631 0.813372,-0.340726 1.010503,-0.735591 0.295673,-0.58551 0.497969,-1.21355 0.599467,-1.86155 0.09857,-0.641538 0.09857,-1.294221 0,-1.93574 -0.07641,-0.49266 -0.210866,-0.974624 -0.400808,-1.4357 l 2.404865,-2.396933 c 0.776234,0.15511 1.579987,0.09688 2.325693,-0.168246 0.442642,-0.158977 0.773079,-0.533392 0.875505,-0.992246 0.102433,-0.458729 -0.03718,-0.9379897 -0.370252,-1.2700297 l -3.873347,-3.871347 c -0.332094,-0.332729 -0.811597,-0.472465 -1.270683,-0.369972 -0.459091,0.102378 -0.833702,0.432554 -0.992639,0.87493 -0.265362,0.745446 -0.323521,1.54875 -0.168448,2.324492 l -2.389715,2.4120787 c -0.457557,-0.188442 -0.93577,-0.322303 -1.424689,-0.398946 -0.641747,-0.09853 -1.294894,-0.09853 -1.93661,0 -0.648337,0.10142 -1.276789,0.303639 -1.862632,0.599274 -0.396241,0.195606 -0.671219,0.572948 -0.735967,1.00986 -0.06966,0.435225 0.07306,0.877508 0.384024,1.190078 l 4.218445,4.216308 v 0 l 0.774554,-0.775981 v 0 l -4.218381,-4.219682 c -0.06191,-0.0618 -0.0907,-0.149457 -0.07728,-0.235875 0.01326,-0.08641 0.06705,-0.161439 0.144723,-0.201714 0.980756,-0.494527 2.092748,-0.667235 3.177465,-0.493475 1.084718,0.173767 2.086975,0.685088 2.864053,1.461161 0.777074,0.77619 1.289357,1.77748 1.464045,2.861518 0.174569,1.084048 0.0023,2.195581 -0.491501,3.176132 -0.04026,0.07765 -0.115359,0.131381 -0.20182,0.144649 -0.08646,0.01331 -0.174205,-0.01545 -0.235996,-0.07719 z"
       id="path64"
       sodipodi:nodetypes="cscccscccsccccccccccccccccccccccccccccccccccc"
       style="fill:#d3dae3;fill-opacity:1;stroke-width:0.0300656" />
    <path
       id="rect838-1"
       d="M -22,2.0000019 H 0 V 24.000002 h -22 z"
       fill="none" />
  </g>
</svg>
