<svg width="24" version="1.0" xmlns="http://www.w3.org/2000/svg" height="24" xmlns:xlink="http://www.w3.org/1999/xlink">
<defs>
<linearGradient id="ButtonColor-6" y1="21" x1="10.31979" y2="1" x2="10.31979" gradientUnits="userSpaceOnUse">
<stop offset="0" style="stop-color:#c8c8c8"/>
<stop offset="1" style="stop-color:#e6e6e6"/>
</linearGradient>
<linearGradient gradientTransform="matrix(0.2570698,0,0,0.2570698,-0.33949467,-0.7525833)" xlink:href="#ButtonColor-6" id="linearGradient3022" y1="90" x1="48" y2="5.9877172" gradientUnits="userSpaceOnUse" x2="48"/>
</defs>
<rect width="21.593863" x="1.2029241" y="0.78983551" rx="1.5424188" height="21.593863" style="opacity:.75;fill:url(#linearGradient3022)"/>
<path style="fill:#333" d="m 21,11.6 a 9,9 0 0,1 -9,9 9,9 0 0,1 -9,-9 9,9 0 0,1 9,-9 9,9 0 0,1 9,9 Z "/>
<path style="fill:#f9f9f9" d="m 5,9.2846 h 5.26926 l 1.7307,-4.8462 1.7307,4.8462 h 5.26925 l -4.3882,3.1438 1.9652,4.9331 -4.5769,-2.6923 -4.0385,2.6923 1.5211,-4.8597 z"/>
</svg>
