<?xml version="1.0" encoding="UTF-8" standalone="no"?>
<svg
   id="svg"
   version="1.1"
   viewBox="0 0 22 22"
   sodipodi:docname="device-notifier-symbolic.svg"
   inkscape:version="1.3.2 (091e20ef0f, 2023-11-25)"
   width="22"
   height="22"
   xmlns:inkscape="http://www.inkscape.org/namespaces/inkscape"
   xmlns:sodipodi="http://sodipodi.sourceforge.net/DTD/sodipodi-0.dtd"
   xmlns="http://www.w3.org/2000/svg"
   xmlns:svg="http://www.w3.org/2000/svg"
   xmlns:rdf="http://www.w3.org/1999/02/22-rdf-syntax-ns#"
   xmlns:cc="http://creativecommons.org/ns#"
   xmlns:dc="http://purl.org/dc/elements/1.1/">
  <sodipodi:namedview
     id="namedview27"
     pagecolor="#201933"
     bordercolor="#000000"
     borderopacity="1"
     inkscape:pageshadow="2"
     inkscape:pageopacity="0.0"
     inkscape:pagecheckerboard="true"
     showgrid="true"
     inkscape:zoom="9.208459"
     inkscape:cx="-9.5564307"
     inkscape:cy="15.094817"
     inkscape:window-width="1920"
     inkscape:window-height="994"
     inkscape:window-x="0"
     inkscape:window-y="0"
     inkscape:window-maximized="1"
     inkscape:current-layer="svg"
     inkscape:showpageshadow="2"
     inkscape:deskcolor="#201933">
    <inkscape:grid
       type="xygrid"
       id="grid951"
       originx="-32.00001"
       originy="25.999988"
       spacingy="1"
       spacingx="1"
       units="px"
       visible="true" />
  </sodipodi:namedview>
  <metadata
     id="metadata47">
    <rdf:RDF>
      <cc:Work
         rdf:about="">
        <dc:format>image/svg+xml</dc:format>
        <dc:type
           rdf:resource="http://purl.org/dc/dcmitype/StillImage" />
      </cc:Work>
    </rdf:RDF>
  </metadata>
  <defs
     id="defs3">
    <style
       id="current-color-scheme"
       type="text/css">.ColorScheme-Text { color:#333333; } .ColorScheme-Highlight { color:#5294e2; } .ColorScheme-ButtonBackground { color:#dedede; }</style>
  </defs>
  <g
     id="22-22-device-notifier"
     transform="translate(-9.9999997e-6,-1.2617e-5)">
    <rect
       x="9.9999997e-06"
       y="1.2617e-05"
       width="22"
       height="22"
       fill="none"
       opacity="0.2"
       id="rect27" />
    <path
       d="M 8.5000001,3.0000002 H 13.5 c 0.2761,0 0.5,0.22386 0.5,0.5 v 3.5 c 1.1046,0 2,0.89543 2,2 V 17 c 0,1.1046 -0.8954,2 -2,2 H 7.9999999 c -1.10457,0 -2,-0.8954 -2,-2 V 9.0000002 c 0,-1.10457 0.89543,-2 2,-2 v -3.5 c 0,-0.27614 0.2238602,-0.5 0.5000002,-0.5 z m 4.4999999,4 v -3 H 9.0000001 v 3 z m -5.0000001,1 c -0.55228,0 -1,0.44772 -1,1 V 17 c 0,0.5523 0.44772,1 1,1 H 14 c 0.5523,0 1,-0.4477 1,-1 V 9.0000002 c 0,-0.55228 -0.4477,-1 -1,-1 z"
       id="path844"
       style="fill:#d3dae3;fill-opacity:1" />
  </g>
</svg>
