<?xml version="1.0" encoding="UTF-8" standalone="no"?>
<svg
   width="32"
   height="32"
   version="1"
   id="svg12"
   sodipodi:docname="klipper-symbolic.svg"
   inkscape:version="1.3.2 (091e20ef0f, 2023-11-25)"
   xmlns:inkscape="http://www.inkscape.org/namespaces/inkscape"
   xmlns:sodipodi="http://sodipodi.sourceforge.net/DTD/sodipodi-0.dtd"
   xmlns="http://www.w3.org/2000/svg"
   xmlns:svg="http://www.w3.org/2000/svg"
   xmlns:rdf="http://www.w3.org/1999/02/22-rdf-syntax-ns#"
   xmlns:cc="http://creativecommons.org/ns#"
   xmlns:dc="http://purl.org/dc/elements/1.1/">
  <style
     id="current-color-scheme"
     type="text/css">.ColorScheme-Text { color:#d6dbf1; }
</style>
  <metadata
     id="metadata18">
    <rdf:RDF>
      <cc:Work
         rdf:about="">
        <dc:format>image/svg+xml</dc:format>
        <dc:type
           rdf:resource="http://purl.org/dc/dcmitype/StillImage" />
      </cc:Work>
    </rdf:RDF>
  </metadata>
  <defs
     id="defs16" />
  <sodipodi:namedview
     pagecolor="#201933"
     bordercolor="#000000"
     borderopacity="1"
     objecttolerance="10"
     gridtolerance="10"
     guidetolerance="10"
     inkscape:pageopacity="0"
     inkscape:pageshadow="2"
     inkscape:window-width="1920"
     inkscape:window-height="994"
     id="namedview14"
     showgrid="true"
     inkscape:zoom="11.313709"
     inkscape:cx="26.604891"
     inkscape:cy="15.379572"
     inkscape:window-x="0"
     inkscape:window-y="0"
     inkscape:window-maximized="1"
     inkscape:current-layer="svg12"
     inkscape:document-rotation="0"
     inkscape:pagecheckerboard="true"
     inkscape:lockguides="false"
     showguides="false"
     inkscape:showpageshadow="2"
     inkscape:deskcolor="#201933">
    <sodipodi:guide
       position="2.209709,-0.44066"
       orientation="1,0"
       id="guide8806"
       inkscape:locked="false" />
    <inkscape:grid
       id="grid1"
       units="px"
       originx="0"
       originy="0"
       spacingx="1"
       spacingy="1"
       empcolor="#0099e5"
       empopacity="0.30196078"
       color="#0099e5"
       opacity="0.14901961"
       empspacing="5"
       dotted="false"
       gridanglex="30"
       gridanglez="30"
       visible="true" />
  </sodipodi:namedview>
  <g
     id="klipper">
    <rect
       style="opacity:0.00100002;fill:#d3dae3;fill-opacity:0.01"
       width="32"
       height="32"
       x="0"
       y="0"
       id="rect7" />
    <path
       d="M 23,7.0000001 H 20.6224 V 7 c 0,-0.565 -0.390537,-1 -0.864,-1 H 18 C 18,5 17.477748,4 16.0144,4 14.506858,4 14,5 14,6 L 12.2128,6.01 C 11.692416,6.01291 11.3488,6.43464 11.3488,7 v 1e-7 H 8.9999999 C 7.7327999,7.0000001 7,7.648512 7,8.902688 V 26 c 0,1.254176 0.7327999,2 1.9999999,2 H 23 c 1.2672,0 2,-0.745824 2,-2 V 8.902688 C 24.9712,7.648512 24.2672,7.0000001 23,7.0000001 Z M 24,26 c 0,1 -1,1 -1,1 H 8.9999999 c 0,0 -1,0 -1,-1 V 9.0000001 c 0,0 0,-1.0000001 1,-1.0000001 H 11.3488 V 8 H 13 19 20.6512 V 8 H 23 c 1,0 1,1.0000001 1,1.0000001 z"
       id="path1"
       style="fill:#d3dae3;fill-opacity:1;stroke-width:0.286516"
       sodipodi:nodetypes="scsscscsscsssssscsscccccccccsccss" />
    <path
       d="m 21.431,12 h -6.89 C 14,12 14,11.782609 14,11.5 14,11.217391 14,11 14.541,11 h 6.918 C 22,11 22,11.217391 22,11.5 22,11.782609 22,12 21.431,12 Z"
       id="path2-8"
       style="fill:#d3dae3;fill-opacity:1;stroke-width:0.246165"
       sodipodi:nodetypes="sssssss" />
    <path
       d="M 17.387,14 H 14.613 C 14,14 14,13.782609 14,13.5 14,13.217391 14,13 14.613,13 h 2.774 C 18,13 18,13.217391 18,13.5 18,13.782609 18,14 17.387,14 Z"
       id="path3"
       style="fill:#d3dae3;fill-opacity:1;stroke-width:0.259631"
       sodipodi:nodetypes="sssssss" />
    <rect
       x="10"
       y="11"
       width="2"
       height="2"
       id="rect5"
       style="fill:#d3dae3;fill-opacity:1;stroke-width:0.240963" />
    <path
       d="m 21.431,17 h -6.89 C 14,17 14,16.782609 14,16.5 14,16.217391 14,16 14.541,16 h 6.918 C 22,16 22,16.217391 22,16.5 22,16.760869 22,17 21.431,17 Z"
       id="path6"
       style="fill:#d3dae3;fill-opacity:1;stroke-width:0.246164"
       sodipodi:nodetypes="sssssss" />
    <path
       d="M 17.387,19 H 14.613 C 14,19 14,18.782608 14,18.499999 14,18.217391 14,18 14.613,18 h 2.774 C 18,18 18,18.217391 18,18.499999 18,18.782608 18,19 17.387,19 Z"
       id="path8"
       style="fill:#d3dae3;fill-opacity:1;stroke-width:0.259631"
       sodipodi:nodetypes="sssssss" />
    <rect
       x="10"
       y="16"
       width="2"
       height="2"
       id="rect10"
       style="fill:#d3dae3;fill-opacity:1;stroke-width:0.240964" />
    <path
       d="m 21.431,22 h -6.89 C 14,22 14,21.782609 14,21.5 c 0,-0.282608 0,-0.499999 0.541,-0.499999 h 6.918 C 22,21.000001 22,21.217392 22,21.5 22,21.76087 22,22 21.431,22 Z"
       id="path11"
       style="fill:#d3dae3;fill-opacity:1;stroke-width:0.246164"
       sodipodi:nodetypes="sssssss" />
    <path
       d="M 17.387,24 H 14.613 C 14,24 14,23.782609 14,23.5 14,23.217391 14,23 14.613,23 h 2.774 C 18,23 18,23.217391 18,23.5 18,23.782609 18,24 17.387,24 Z"
       id="path13"
       style="fill:#d3dae3;fill-opacity:1;stroke-width:0.259631"
       sodipodi:nodetypes="sssssss" />
    <rect
       x="10"
       y="21"
       width="2"
       height="2"
       id="rect15"
       style="fill:#d3dae3;fill-opacity:1;stroke-width:0.240963" />
  </g>
</svg>
