<?xml version="1.0" encoding="UTF-8" standalone="no"?>
<!-- Created with Inkscape (http://www.inkscape.org/) -->

<svg
   width="64"
   version="1.1"
   height="64"
   id="svg1"
   sodipodi:docname="start-here-kde.svg"
   inkscape:version="1.3.2 (091e20ef0f, 2023-11-25)"
   xmlns:inkscape="http://www.inkscape.org/namespaces/inkscape"
   xmlns:sodipodi="http://sodipodi.sourceforge.net/DTD/sodipodi-0.dtd"
   xmlns:xlink="http://www.w3.org/1999/xlink"
   xmlns="http://www.w3.org/2000/svg"
   xmlns:svg="http://www.w3.org/2000/svg">
  <sodipodi:namedview
     id="namedview1"
     pagecolor="#ffffff"
     bordercolor="#999999"
     borderopacity="1"
     inkscape:showpageshadow="2"
     inkscape:pageopacity="0"
     inkscape:pagecheckerboard="0"
     inkscape:deskcolor="#d1d1d1"
     inkscape:zoom="4.2094951"
     inkscape:cx="41.81024"
     inkscape:cy="37.534193"
     inkscape:window-width="1920"
     inkscape:window-height="994"
     inkscape:window-x="0"
     inkscape:window-y="0"
     inkscape:window-maximized="1"
     inkscape:current-layer="layer1" />
  <defs
     id="defs5455">
    <linearGradient
       inkscape:collect="always"
       xlink:href="#linearGradient1-8"
       id="linearGradient2-2"
       x1="17"
       y1="5"
       x2="0"
       y2="5"
       gradientUnits="userSpaceOnUse"
       gradientTransform="matrix(2.0000012,0,0,1.9999393,384.57137,483.79946)" />
    <linearGradient
       id="linearGradient1-8"
       inkscape:collect="always">
      <stop
         style="stop-color:#7137c8;stop-opacity:1"
         offset="0"
         id="stop1-9" />
      <stop
         style="stop-color:#00ccff;stop-opacity:1"
         offset="1"
         id="stop2-7" />
    </linearGradient>
  </defs>
  <metadata
     id="metadata5458" />
  <g
     inkscape:label="Capa 1"
     inkscape:groupmode="layer"
     id="layer1"
     transform="matrix(1 0 0 1 -384.57143 -483.798)">
    <flowRoot
       line-height="125%"
       style="font-size:32.500004;font-family:sans-serif"
       id="flowRoot4170"><flowRegion
         id="flowRegion4172"><rect
           width="87.75001"
           x="452.32144"
           y="489.79807"
           height="48.750004"
           id="rect4174" /></flowRegion><flowPara
         id="flowPara4176">Plasm</flowPara></flowRoot>
    <path
       d="m 409.02682,504.60964 z m -0.23124,32.85396 c 0.32215,-0.59791 2.77222,-5.0886 3.26018,-5.97534 1.36118,-2.47381 2.47285,-4.54123 2.47285,-4.59873 0,-0.0348 -0.3895,-0.78239 -0.86546,-1.66049 -0.47594,-0.87808 -0.92635,-1.70927 -1.00091,-1.84725 -1.05214,-1.94673 -2.13012,-3.88827 -2.14834,-3.86884 -0.0142,0.0142 -0.43205,0.77678 -0.93216,1.69604 -0.5001,0.91929 -1.41124,2.59277 -2.02473,3.71897 -0.6136,1.12613 -1.21377,2.23546 -1.33382,2.4653 -0.12026,0.2298 -0.55854,1.0383 -0.97426,1.79684 l -0.75586,1.3788 -3.98871,0.0215 c -3.73339,0.0199 -3.98512,0.0119 -3.93542,-0.12111 0.0544,-0.14523 1.15059,-2.17224 3.08835,-5.70882 1.93941,-3.53966 6.84775,-12.53854 7.84825,-14.38869 0.53859,-0.9962 1.00404,-1.79555 1.03426,-1.77631 0.0309,0.0198 0.1271,0.17617 0.21566,0.34872 0.12766,0.2487 1.74399,3.21309 2.81425,5.16099 0.10097,0.1837 0.34584,0.63509 0.54419,1.00279 0.1984,0.36773 0.79154,1.45831 1.3181,2.42358 0.52646,0.96522 1.04903,1.9243 1.16113,2.13106 0.1122,0.20681 0.91267,1.67347 1.77887,3.25931 0.86616,1.58578 1.74932,3.20283 1.96262,3.59358 0.21315,0.39064 0.7991,1.46243 1.30189,2.38178 0.50292,0.9193 1.14068,2.08506 1.41728,2.59069 1.01859,1.86225 1.66367,3.04703 2.52513,4.63813 l 0.88233,1.62962 4.03108,0.0215 c 2.21724,0.0119 4.03111,0.005 4.03111,-0.0162 0,-0.0198 -0.8781,-1.64721 -1.95148,-3.6153 -1.07327,-1.96788 -2.21744,-4.06688 -2.54266,-4.66451 -0.32515,-0.59755 -1.08294,-1.98901 -1.68407,-3.09223 -0.601,-1.103 -1.19357,-2.19362 -1.31664,-2.42345 -0.12297,-0.22987 -0.30676,-0.56827 -0.40828,-0.75215 -0.10139,-0.18382 -0.94064,-1.7258 -1.86485,-3.42642 -0.92433,-1.70068 -1.90934,-3.50584 -2.1888,-4.01142 -0.2795,-0.50558 -1.09011,-1.99117 -1.80126,-3.30112 -0.7112,-1.31004 -1.38503,-2.55099 -1.49738,-2.75782 -0.11243,-0.20683 -0.72344,-1.33503 -1.35791,-2.50718 -0.63454,-1.17203 -1.31003,-2.41319 -1.50125,-2.75781 -0.19118,-0.34474 -0.94091,-1.71746 -1.6662,-3.05033 -0.72504,-1.33303 -1.80031,-3.30742 -2.38942,-4.38748 -0.5891,-1.08018 -1.20902,-2.22719 -1.37774,-2.54897 -0.47285,-0.90219 -0.41308,-0.9085 -0.95445,0.10096 -0.26607,0.49614 -0.79507,1.46612 -1.17547,2.15549 -0.38047,0.68939 -0.78213,1.42283 -0.89255,1.62965 -0.25253,0.47278 -2.39218,4.40415 -4.07087,7.47964 -0.70241,1.28701 -1.6037,2.94172 -2.00277,3.67717 -0.65942,1.21525 -1.65723,3.04923 -3.75071,6.89467 -1.07187,1.96857 -2.87096,5.27465 -3.9568,7.27063 -0.5125,0.94229 -1.16813,2.14572 -1.45695,2.67429 -0.28868,0.52855 -0.86056,1.58157 -1.27083,2.33996 -1.43349,2.65009 -3.02496,5.57043 -3.91669,7.18712 -0.49441,0.89633 -0.92337,1.69557 -0.95333,1.7762 -0.0517,0.13936 0.53974,0.14539 12.00471,0.12535 l 12.05921,-0.021 z m 39.77585,0.2716 c -7.5e-4,-0.0345 -0.17656,-0.38241 -0.39069,-0.77309 -1.42029,-2.59262 -1.97195,-3.60171 -3.03795,-5.55741 -1.32279,-2.42686 -1.45389,-2.66812 -1.83981,-3.38468 -0.21044,-0.39067 -0.61821,-1.14279 -0.90636,-1.67135 -0.28814,-0.52869 -0.88061,-1.61921 -1.31643,-2.42363 -0.43597,-0.80439 -1.02085,-1.87619 -1.29967,-2.38179 -0.50512,-0.91595 -0.75656,-1.37957 -1.17841,-2.17285 -0.1222,-0.22981 -0.53199,-0.98196 -0.91055,-1.67148 -0.37859,-0.68942 -1.28112,-2.34412 -2.0056,-3.67707 -0.72439,-1.3329 -1.47251,-2.70562 -1.66235,-3.05032 -0.18975,-0.34478 -1.20419,-2.20632 -2.25426,-4.13683 -7.33097,-13.47765 -7.16912,-13.18966 -7.29367,-12.98026 -0.0633,0.10658 -0.23556,0.41951 -0.38262,0.69531 -0.147,0.27587 -1.01472,1.87408 -1.92817,3.55178 -3.31107,6.08112 -3.58329,6.58937 -3.58329,6.68688 0,0.0906 0.74502,1.47313 3.09709,5.74436 0.48723,0.8848 0.8969,1.60869 0.91037,1.60869 0.0142,0 0.25375,-0.423 0.53406,-0.94016 0.28031,-0.51706 0.68612,-1.25392 0.902,-1.63749 0.21592,-0.3835 0.39252,-0.72679 0.39252,-0.76277 0,-0.0362 0.0468,-0.10555 0.10444,-0.15477 0.0811,-0.0701 0.21176,0.11136 0.58217,0.80453 0.26271,0.49164 1.18653,2.1914 2.05296,3.77714 2.29363,4.19829 3.66118,6.70605 4.53449,8.31537 0.42414,0.78144 0.90819,1.66521 1.07567,1.96397 0.26082,0.46505 1.33669,2.43682 2.00642,3.67714 0.11152,0.20686 0.22926,0.41364 0.26143,0.45956 0.032,0.0463 0.19641,0.34688 0.36516,0.66862 0.16861,0.32174 1.09798,2.03285 2.06523,3.80247 0.96723,1.76963 2.05987,3.77215 2.42811,4.45017 l 0.66942,1.23276 h 4.00492 c 2.20258,0 4.00415,-0.0281 4.0033,-0.0624 z"
       id="path1"
       sodipodi:nodetypes="cccccccccssssccsssscsssssssssssssssccssssssssssssssssssssssssssscscsssssssssssssssssssssssssssssscsc"
       style="fill:url(#linearGradient2-2);fill-opacity:1;stroke-width:1.99997" />
  </g>
</svg>
