<svg xmlns="http://www.w3.org/2000/svg" xmlns:xlink="http://www.w3.org/1999/xlink" width="64px" height="64px" viewBox="0 0 64 64" version="1.1">
<defs>
<linearGradient id="linear0" gradientUnits="userSpaceOnUse" x1="0" y1="0" x2="0" y2="1" gradientTransform="matrix(8.010416,0,0,8,47.989583,12)">
<stop offset="0" style="stop-color:#00aad4;stop-opacity:1;"/>
<stop offset="1" style="stop-color:#006b86;stop-opacity:1;"/>
</linearGradient>
<linearGradient id="linear1" gradientUnits="userSpaceOnUse" x1="0" y1="0" x2="0" y2="1" gradientTransform="matrix(48,0,0,36,8,24)">
<stop offset="0" style="stop-color:#00aad4;stop-opacity:1;"/>
<stop offset="1" style="stop-color:#006b86;stop-opacity:1;"/>
</linearGradient>
<linearGradient id="linear2" gradientUnits="userSpaceOnUse" x1="0" y1="0" x2="0" y2="1" gradientTransform="matrix(12,0,0,21.604167,32,35.197917)">
<stop offset="0" style="stop-color:#00aad4;stop-opacity:1;"/>
<stop offset="1" style="stop-color:#006b86;stop-opacity:1;"/>
</linearGradient>
</defs>
<g id="surface1">
<path style=" stroke:none;fill-rule:nonzero;fill:url(#linear0);" d="M 56 20 L 56 12 L 47.988281 12 Z M 56 20 "/>
<path style=" stroke:none;fill-rule:nonzero;fill:url(#linear1);" d="M 8 28 L 8 60 L 44 60 L 44 56 L 12 56 L 12 25.332031 Z M 52.011719 24 L 52 60 L 56 60 L 56 28 Z M 52.011719 24 "/>
<path style=" stroke:none;fill-rule:nonzero;fill:url(#linear2);" d="M 32 35.941406 C 32.800781 35.75 33.613281 35.589844 34.425781 35.457031 C 35.4375 35.285156 36.597656 35.199219 37.917969 35.199219 C 39.09375 35.199219 40.078125 35.371094 40.855469 35.714844 C 41.636719 36.035156 42.253906 36.503906 42.714844 37.113281 C 43.191406 37.703125 43.527344 38.421875 43.714844 39.253906 C 43.90625 40.09375 44 41.015625 44 42.027344 L 44 56.800781 L 32 56.800781 Z M 32 35.941406 "/>
<path style=" stroke:none;fill-rule:evenodd;fill:#00aad4;fill-opacity:1;" d="M 32 1.171875 L 0.582031 32.582031 L 3.417969 35.417969 L 32 6.828125 L 60.582031 35.417969 L 63.417969 32.582031 Z M 32 1.171875 "/>
</g>
</svg>
