<svg xmlns="http://www.w3.org/2000/svg" xmlns:xlink="http://www.w3.org/1999/xlink" width="64px" height="64px" viewBox="0 0 64 64" version="1.1">
<defs>
<linearGradient id="linear0" gradientUnits="userSpaceOnUse" x1="0" y1="0" x2="0" y2="1" gradientTransform="matrix(64,0,0,64,0,0)">
<stop offset="0" style="stop-color:#00aad4;stop-opacity:1;"/>
<stop offset="1" style="stop-color:#006b86;stop-opacity:1;"/>
</linearGradient>
</defs>
<g id="surface1">
<path style=" stroke:none;fill-rule:nonzero;fill:url(#linear0);" d="M 15.972656 0 C 10.941406 0.0625 7.261719 -0.113281 4.25 1.546875 C 2.6875 2.433594 1.496094 3.84375 0.886719 5.53125 C 0.234375 7.285156 0 9.371094 0 12 L 0 40 C 0 42.628906 0.234375 44.714844 0.890625 46.46875 C 1.546875 48.222656 2.746094 49.628906 4.25 50.457031 C 7.261719 52.125 10.941406 51.9375 15.972656 52 L 28 52 L 28 56 L 36 56 L 36 52 L 48.027344 52 C 53.058594 51.9375 56.738281 52.121094 59.75 50.457031 C 61.253906 49.628906 62.453125 48.21875 63.113281 46.46875 C 63.765625 44.714844 64 42.628906 64 40 L 64 20 C 64 17.371094 63.765625 15.285156 63.109375 13.53125 C 63.027344 13.3125 62.917969 13.113281 62.8125 12.917969 L 62.703125 12.6875 C 62.058594 11.363281 61.03125 10.269531 59.75 9.542969 C 56.738281 7.875 53.058594 8.0625 48.027344 8 L 35.871094 8 L 27.78125 0 Z M 16.027344 4 L 26.144531 4 L 33.203125 10.984375 L 28.128906 16 L 15.972656 16 C 10.941406 16.0625 7.261719 15.878906 4.25 17.542969 C 4.160156 17.589844 4.089844 17.660156 4 17.714844 L 4 12 C 4 9.628906 4.25 7.972656 4.640625 6.9375 C 5.03125 5.894531 5.453125 5.453125 6.1875 5.046875 C 7.652344 4.234375 10.96875 4.0625 16.027344 4 Z M 37.859375 12 L 47.96875 12 C 53.027344 12.0625 56.339844 12.238281 57.808594 13.046875 C 58.542969 13.449219 58.957031 13.894531 59.355469 14.9375 C 59.746094 15.972656 60 17.628906 60 20 L 60 40 C 60 42.371094 59.75 44.027344 59.359375 45.0625 C 58.96875 46.105469 58.546875 46.546875 57.8125 46.953125 C 56.347656 47.761719 53.042969 47.9375 48 48 L 16 48 C 10.957031 47.9375 7.652344 47.761719 6.1875 46.953125 C 5.453125 46.550781 5.027344 46.105469 4.640625 45.0625 C 4.25 44.027344 4 42.371094 4 40 L 4 28 C 4 25.628906 4.253906 23.972656 4.644531 22.9375 C 5.042969 21.894531 5.457031 21.453125 6.199219 21.046875 C 7.660156 20.234375 10.972656 20.0625 16.03125 20 L 29.769531 20 Z M 4 60 L 4 64 L 60 64 L 60 60 Z M 4 60 "/>
</g>
</svg>
