<svg xmlns="http://www.w3.org/2000/svg" xmlns:xlink="http://www.w3.org/1999/xlink" width="64px" height="64px" viewBox="0 0 64 64" version="1.1">
<defs>
<linearGradient id="linear0" gradientUnits="userSpaceOnUse" x1="0" y1="0" x2="0" y2="1" gradientTransform="matrix(64,0,0,52,0,6)">
<stop offset="0" style="stop-color:#00aad4;stop-opacity:1;"/>
<stop offset="1" style="stop-color:#006b86;stop-opacity:1;"/>
</linearGradient>
</defs>
<g id="surface1">
<path style=" stroke:none;fill-rule:nonzero;fill:url(#linear0);" d="M 0 38.222656 L 12.03125 45.171875 C 12.011719 45.449219 12 45.722656 12 46 C 12 52.628906 17.371094 58 24 58 C 30.628906 58 36 52.628906 36 46 C 35.988281 45.453125 35.949219 44.90625 35.871094 44.371094 L 50.421875 33.972656 C 57.980469 33.75 63.988281 27.5625 64 20 C 64 12.265625 57.734375 6 50 6 C 42.265625 6 35.996094 12.265625 36 20.058594 L 26.714844 34.328125 C 25.824219 34.113281 24.910156 34.003906 24 34 C 22.1875 34.003906 20.402344 34.421875 18.769531 35.214844 L 0 24.375 M 50 10 C 55.527344 10 60 14.472656 60 20 C 60 25.527344 55.527344 30 50 30 C 44.472656 30 40 25.527344 40 20 C 40 14.472656 44.472656 10 50 10 Z M 50 14 C 46.6875 14 44 16.6875 44 20 C 44 23.3125 46.6875 26 50 26 C 53.3125 26 56 23.3125 56 20 C 56 16.6875 53.3125 14 50 14 Z M 24 38 C 28.421875 38 32 41.578125 32 46 C 32 50.421875 28.421875 54 24 54 C 20.183594 53.996094 16.90625 51.296875 16.160156 47.558594 L 18.984375 49.1875 C 21.863281 50.847656 25.515625 49.871094 27.183594 46.988281 C 28.839844 44.113281 27.863281 40.457031 24.984375 38.796875 L 23.628906 38.015625 C 23.753906 38.011719 23.875 38.003906 24 38 Z M 24 38 "/>
</g>
</svg>
