<svg xmlns="http://www.w3.org/2000/svg" xmlns:xlink="http://www.w3.org/1999/xlink" width="64px" height="64px" viewBox="0 0 64 64" version="1.1">
<defs>
<linearGradient id="linear0" gradientUnits="userSpaceOnUse" x1="0" y1="0" x2="0" y2="1" gradientTransform="matrix(45,0,0,60,9.5,2)">
<stop offset="0" style="stop-color:#00aad4;stop-opacity:1;"/>
<stop offset="1" style="stop-color:#006b86;stop-opacity:1;"/>
</linearGradient>
</defs>
<g id="surface1">
<path style=" stroke:none;fill-rule:nonzero;fill:url(#linear0);" d="M 49.785156 2 C 38.359375 2 36.21875 19.808594 42.644531 19.808594 C 49.074219 19.808594 61.214844 2 49.785156 2 Z M 32.1875 4.738281 C 32.011719 4.738281 31.816406 4.753906 31.613281 4.78125 C 25.128906 5.613281 27.410156 16.855469 30.859375 17.066406 C 34.191406 17.269531 37.84375 4.761719 32.183594 4.738281 Z M 20.957031 8.886719 C 20.5625 8.863281 20.125 8.9375 19.636719 9.144531 C 14.433594 11.339844 18.847656 20.386719 21.761719 19.78125 C 24.40625 19.230469 24.785156 9.144531 20.957031 8.886719 Z M 12.464844 16.285156 C 12.011719 16.269531 11.527344 16.4375 11 16.832031 C 6.839844 20.019531 12.40625 27.730469 14.855469 26.53125 C 17 25.484375 15.628906 16.40625 12.464844 16.285156 Z M 37.074219 23.640625 C 28.042969 23.484375 16.136719 28.183594 14.105469 37.621094 C 11.90625 47.832031 23.160156 62 34.894531 62 C 40.671875 62 47.339844 56.589844 48.578125 49.730469 C 49.53125 44.503906 37.378906 46.597656 37.8125 50.058594 C 38.339844 54.203125 34.886719 56.25 31.503906 53.578125 C 20.734375 45.074219 49.339844 40.824219 47.449219 29.199219 C 46.859375 25.578125 42.480469 23.738281 37.066406 23.640625 Z M 37.074219 23.640625 "/>
</g>
</svg>
