<svg xmlns="http://www.w3.org/2000/svg" xmlns:xlink="http://www.w3.org/1999/xlink" width="64px" height="64px" viewBox="0 0 64 64" version="1.1">
<defs>
<linearGradient id="linear0" gradientUnits="userSpaceOnUse" x1="0" y1="0" x2="0" y2="1" gradientTransform="matrix(64,0,0,53.333333,0,5.333333)">
<stop offset="0" style="stop-color:#00aad4;stop-opacity:1;"/>
<stop offset="1" style="stop-color:#006b86;stop-opacity:1;"/>
</linearGradient>
</defs>
<g id="surface1">
<path style=" stroke:none;fill-rule:nonzero;fill:url(#linear0);" d="M 12 5.332031 L 12 9.4375 L 15.972656 9.4375 C 10.941406 9.496094 7.261719 9.3125 4.25 11.015625 C 2.746094 11.871094 1.558594 13.308594 0.902344 15.109375 C 0.238281 16.90625 0 19.042969 0 21.746094 L 0 46.359375 C 0 49.058594 0.238281 51.191406 0.902344 52.988281 C 1.558594 54.792969 2.746094 56.234375 4.25 57.089844 C 7.261719 58.792969 10.941406 58.609375 15.972656 58.667969 L 48.027344 58.667969 C 53.058594 58.609375 56.738281 58.792969 59.75 57.089844 C 61.253906 56.234375 62.441406 54.792969 63.105469 52.988281 C 63.761719 51.191406 64 49.058594 64 46.359375 L 64 21.746094 C 64 19.042969 63.761719 16.90625 63.097656 15.109375 C 62.441406 13.308594 61.253906 11.871094 59.75 11.015625 C 56.738281 9.3125 53.058594 9.496094 48.027344 9.4375 L 20 9.4375 L 20 5.332031 Z M 16 13.542969 L 48 13.542969 C 53.035156 13.597656 56.347656 13.785156 57.8125 14.613281 C 58.546875 15.027344 58.96875 15.484375 59.359375 16.550781 C 59.75 17.613281 60 19.3125 60 21.746094 L 60 46.359375 C 60 48.785156 59.75 50.484375 59.359375 51.550781 C 58.96875 52.613281 58.546875 53.078125 57.8125 53.488281 C 56.347656 54.316406 53.035156 54.503906 48 54.5625 L 16 54.5625 C 10.964844 54.503906 7.644531 54.316406 6.183594 53.488281 C 5.449219 53.078125 5.03125 52.613281 4.640625 51.550781 C 4.25 50.484375 4 48.785156 4 46.359375 L 4 21.746094 C 4 19.3125 4.25 17.613281 4.640625 16.550781 C 5.03125 15.484375 5.449219 15.027344 6.183594 14.613281 C 7.644531 13.785156 10.964844 13.597656 16 13.542969 Z M 32 17.640625 C 23.160156 17.640625 16 24.988281 16 34.050781 C 16 43.113281 23.160156 50.457031 32 50.457031 C 40.839844 50.457031 48 43.113281 48 34.050781 C 48 24.988281 40.839844 17.640625 32 17.640625 Z M 54 17.640625 C 52.894531 17.640625 52 18.5625 52 19.691406 C 52 20.824219 52.894531 21.746094 54 21.746094 C 55.105469 21.746094 56 20.824219 56 19.691406 C 56 18.5625 55.105469 17.640625 54 17.640625 Z M 32 21.746094 C 38.628906 21.746094 44 27.25 44 34.050781 C 44 40.847656 38.628906 46.359375 32 46.359375 C 25.371094 46.359375 20 40.847656 20 34.050781 C 20 27.25 25.371094 21.746094 32 21.746094 Z M 31.660156 25.863281 C 27.386719 26.046875 24.003906 29.65625 24 34.050781 C 24 38.582031 27.578125 42.253906 32 42.253906 C 36.421875 42.253906 40 38.582031 40 34.050781 C 39.988281 29.683594 36.652344 26.089844 32.402344 25.871094 C 34.4375 26.078125 36 27.84375 36 29.949219 C 36 32.214844 34.207031 34.050781 32 34.050781 C 29.792969 34.050781 28 32.214844 28 29.949219 C 28 27.816406 29.59375 26.042969 31.660156 25.863281 Z M 31.660156 25.863281 "/>
</g>
</svg>
