<svg xmlns="http://www.w3.org/2000/svg" xmlns:xlink="http://www.w3.org/1999/xlink" width="64px" height="64px" viewBox="0 0 64 64" version="1.1">
<defs>
<linearGradient id="linear0" gradientUnits="userSpaceOnUse" x1="0" y1="0" x2="0" y2="1" gradientTransform="matrix(60,0,0,60,2,2)">
<stop offset="0" style="stop-color:#00aad4;stop-opacity:1;"/>
<stop offset="1" style="stop-color:#006b86;stop-opacity:1;"/>
</linearGradient>
</defs>
<g id="surface1">
<path style=" stroke:none;fill-rule:nonzero;fill:url(#linear0);" d="M 35.261719 45.183594 C 30.457031 47.410156 25.996094 47.386719 22.996094 47.171875 C 19.421875 46.910156 16.542969 45.9375 15.277344 45.078125 C 14.496094 44.546875 13.4375 44.75 12.90625 45.53125 C 12.378906 46.3125 12.582031 47.371094 13.363281 47.902344 C 15.402344 49.277344 18.988281 50.300781 22.75 50.574219 C 23.386719 50.621094 24.082031 50.644531 24.839844 50.644531 C 28.109375 50.644531 32.253906 50.332031 36.699219 48.265625 C 37.546875 47.871094 37.921875 46.859375 37.527344 46.003906 C 37.128906 45.152344 36.113281 44.78125 35.261719 45.183594 Z M 54.203125 42.652344 C 54.363281 27.84375 55.886719 -0.128906 27.542969 2.128906 C -0.4375 4.386719 6.980469 33.941406 6.5625 43.84375 C 6.199219 49.082031 4.457031 55.484375 2 62 L 9.5625 62 C 10.34375 59.238281 10.910156 56.511719 11.160156 53.90625 C 11.613281 54.222656 12.105469 54.53125 12.628906 54.824219 C 13.472656 55.324219 14.199219 55.988281 14.972656 56.691406 C 16.769531 58.332031 18.816406 60.199219 22.800781 60.421875 C 23.074219 60.4375 23.34375 60.449219 23.609375 60.449219 C 27.644531 60.449219 30.40625 58.683594 32.625 57.265625 C 33.683594 56.582031 34.605469 55.996094 35.46875 55.714844 C 37.921875 54.941406 40.066406 53.703125 41.671875 52.125 C 41.921875 51.878906 42.15625 51.625 42.371094 51.363281 C 43.265625 54.640625 44.488281 58.324219 45.847656 62 L 62 62 C 58.113281 56.011719 54.121094 50.140625 54.203125 42.652344 Z M 9.269531 34.597656 C 9.269531 34.597656 9.269531 34.59375 9.269531 34.59375 C 8.988281 29.765625 11.308594 25.699219 14.4375 25.515625 C 17.5625 25.339844 20.328125 29.105469 20.609375 33.9375 C 20.621094 34.199219 20.628906 34.457031 20.628906 34.714844 C 19.636719 34.957031 18.738281 35.324219 17.9375 35.75 C 17.9375 35.714844 17.933594 35.675781 17.933594 35.640625 L 17.933594 35.636719 C 17.660156 32.894531 16.199219 30.824219 14.65625 31.011719 C 13.121094 31.199219 12.089844 33.578125 12.355469 36.316406 C 12.472656 37.515625 12.816406 38.582031 13.296875 39.390625 C 13.175781 39.484375 12.839844 39.734375 12.453125 40.015625 C 12.160156 40.230469 11.800781 40.488281 11.378906 40.800781 C 10.214844 39.269531 9.417969 37.078125 9.269531 34.597656 Z M 40.980469 46.542969 C 40.871094 49.09375 37.527344 51.496094 34.4375 52.457031 L 34.421875 52.46875 C 33.140625 52.886719 31.996094 53.613281 30.785156 54.386719 C 28.75 55.691406 26.644531 57.042969 23.609375 57.042969 C 23.40625 57.042969 23.199219 57.03125 23 57.019531 C 20.214844 56.859375 18.917969 55.671875 17.265625 54.171875 C 16.394531 53.378906 15.496094 52.558594 14.339844 51.878906 L 14.3125 51.863281 C 11.8125 50.453125 10.253906 48.699219 10.15625 47.160156 C 10.109375 46.40625 10.449219 45.746094 11.160156 45.207031 C 12.722656 44.035156 13.769531 43.269531 14.464844 42.765625 C 15.234375 42.203125 15.464844 42.035156 15.636719 41.871094 C 15.761719 41.753906 15.890625 41.628906 16.035156 41.488281 C 17.464844 40.09375 19.863281 37.765625 23.542969 37.765625 C 25.792969 37.765625 28.285156 38.628906 30.9375 40.339844 C 32.183594 41.144531 33.269531 41.527344 34.644531 42 C 35.59375 42.328125 36.667969 42.699219 38.105469 43.3125 L 38.128906 43.324219 C 39.46875 43.871094 41.050781 44.875 40.980469 46.542969 Z M 40.238281 40.542969 C 39.984375 40.410156 39.714844 40.285156 39.433594 40.171875 C 38.136719 39.621094 37.097656 39.246094 36.238281 38.941406 C 36.714844 38.011719 37.011719 36.855469 37.035156 35.589844 C 37.105469 32.519531 35.558594 30.027344 33.578125 30.027344 C 31.605469 30.015625 29.953125 32.5 29.886719 35.574219 C 29.886719 35.671875 29.886719 35.769531 29.886719 35.871094 C 28.667969 35.3125 27.472656 34.90625 26.300781 34.65625 C 26.296875 34.542969 26.285156 34.421875 26.285156 34.308594 L 26.285156 34.300781 C 26.171875 28.714844 29.605469 24.089844 33.949219 23.96875 C 38.292969 23.855469 41.90625 28.285156 42.019531 33.878906 C 42.074219 36.410156 41.394531 38.734375 40.238281 40.542969 Z M 40.238281 40.542969 "/>
</g>
</svg>
