<svg xmlns="http://www.w3.org/2000/svg" xmlns:xlink="http://www.w3.org/1999/xlink" width="64px" height="64px" viewBox="0 0 64 64" version="1.1">
<defs>
<linearGradient id="linear0" gradientUnits="userSpaceOnUse" x1="0" y1="0" x2="0" y2="1" gradientTransform="matrix(43.578125,0,0,64,10,0)">
<stop offset="0" style="stop-color:#00aad4;stop-opacity:1;"/>
<stop offset="1" style="stop-color:#006b86;stop-opacity:1;"/>
</linearGradient>
</defs>
<g id="surface1">
<path style=" stroke:none;fill-rule:nonzero;fill:url(#linear0);" d="M 27.699219 0 C 25.714844 0 25.652344 0.0117188 25.472656 0.28125 C 25.324219 0.503906 22.480469 6.488281 20.375 10.996094 C 20.152344 11.46875 19.453125 12.953125 18.824219 14.285156 C 17.433594 17.214844 14.738281 22.910156 14.097656 24.285156 C 13.84375 24.828125 13.128906 26.339844 12.515625 27.636719 C 11.3125 30.160156 10.769531 31.621094 10.421875 33.261719 C 10.234375 34.152344 10.230469 34.3125 10.378906 34.453125 C 10.535156 34.597656 13.171875 35.125 14.878906 35.355469 C 16.203125 35.53125 15.464844 35.652344 12.996094 35.652344 C 10.792969 35.652344 10.359375 35.675781 10.191406 35.84375 C 10.035156 36.003906 10 36.375 10 37.933594 C 10 39.234375 10.046875 39.871094 10.152344 39.972656 C 10.253906 40.078125 10.996094 40.121094 12.6875 40.121094 C 14 40.121094 15.109375 40.167969 15.140625 40.222656 C 15.203125 40.316406 13.652344 40.640625 11.394531 41.003906 C 10.902344 41.082031 10.425781 41.234375 10.347656 41.332031 C 10.03125 41.707031 10.90625 44.855469 11.9375 47.050781 C 12.917969 49.152344 14.300781 51.183594 15.890625 52.839844 C 16.339844 53.3125 16.707031 53.734375 16.707031 53.777344 C 16.707031 53.824219 16.511719 54.046875 16.269531 54.28125 C 15.625 54.910156 15.683594 55.207031 16.597656 55.949219 C 20.21875 58.875 24.53125 60.640625 29.3125 61.15625 C 29.589844 61.1875 30.761719 61.191406 31.921875 61.167969 C 35.128906 61.105469 37.558594 60.605469 40.488281 59.394531 C 42.847656 58.421875 46.53125 56.035156 46.621094 55.421875 C 46.644531 55.25 46.488281 54.941406 46.199219 54.589844 L 45.738281 54.03125 L 46.753906 53.003906 C 49.441406 50.28125 51.339844 46.894531 52.269531 43.152344 C 52.613281 41.761719 52.636719 41.589844 52.464844 41.417969 C 52.34375 41.296875 51.375 41.066406 49.859375 40.796875 C 48.535156 40.5625 47.40625 40.371094 47.347656 40.371094 C 47.296875 40.371094 47.285156 40.3125 47.328125 40.238281 C 47.378906 40.15625 48.339844 40.121094 50.003906 40.125 C 51.433594 40.136719 52.65625 40.105469 52.722656 40.0625 C 52.917969 39.941406 52.894531 35.988281 52.703125 35.796875 C 52.597656 35.691406 51.761719 35.652344 49.722656 35.652344 C 46.996094 35.652344 46.097656 35.519531 47.621094 35.347656 C 48.027344 35.308594 49.066406 35.128906 49.949219 34.964844 C 50.824219 34.792969 51.660156 34.65625 51.808594 34.65625 C 51.957031 34.65625 52.207031 34.550781 52.359375 34.425781 L 52.636719 34.203125 L 52.238281 32.660156 C 52.015625 31.8125 51.8125 31 51.777344 30.859375 C 51.722656 30.636719 51.832031 30.5625 52.597656 30.300781 C 53.238281 30.082031 53.5 29.933594 53.542969 29.75 C 53.578125 29.613281 53.589844 28.019531 53.566406 26.207031 C 53.535156 22.988281 53.527344 22.894531 53.191406 21.90625 C 53.003906 21.347656 52.78125 20.871094 52.699219 20.84375 C 52.613281 20.816406 51.816406 20.828125 50.925781 20.863281 L 49.3125 20.933594 L 48.941406 22.074219 C 48.734375 22.703125 48.515625 23.203125 48.449219 23.183594 C 48.386719 23.167969 47.808594 22.035156 47.167969 20.671875 C 39.9375 5.332031 37.558594 0.3125 37.425781 0.15625 C 37.332031 0.0429688 36.738281 0 35.265625 0 C 33.386719 0 33.230469 0.015625 33.109375 0.238281 C 33.027344 0.394531 32.980469 2.207031 32.980469 5.269531 L 32.980469 10.0625 L 30 10.0625 L 30 5.269531 C 30 2.207031 29.953125 0.394531 29.871094 0.238281 C 29.75 0.015625 29.589844 0 27.699219 0 Z M 26.183594 0.996094 L 29.003906 0.996094 L 29.003906 10.066406 L 28.691406 10.1875 C 28.417969 10.292969 28.378906 10.378906 28.363281 11.019531 C 28.347656 11.417969 28.332031 11.824219 28.324219 11.925781 C 28.3125 12.027344 28.261719 13.128906 28.207031 14.378906 C 28.113281 16.5625 28.097656 16.644531 27.84375 16.699219 C 24.515625 17.363281 21.855469 18.433594 19.375 20.097656 C 18.761719 20.511719 17.746094 21.300781 17.109375 21.855469 C 16.480469 22.410156 15.964844 22.828125 15.964844 22.785156 C 15.964844 22.738281 16.359375 21.859375 16.847656 20.824219 C 17.339844 19.792969 17.972656 18.4375 18.261719 17.824219 C 18.550781 17.207031 20.253906 13.605469 22.042969 9.8125 C 23.832031 6.019531 25.5 2.484375 25.738281 1.957031 Z M 33.972656 0.996094 L 35.371094 0.996094 L 36.765625 1 L 38.597656 4.875 C 40.285156 8.457031 41.230469 10.464844 45.566406 19.65625 C 46.433594 21.484375 47.140625 23.011719 47.140625 23.042969 C 47.140625 23.203125 46.894531 23.011719 46.207031 22.328125 C 43.449219 19.5625 39.5625 17.609375 35.011719 16.699219 C 34.6875 16.636719 34.636719 16.238281 34.53125 13.230469 C 34.449219 10.871094 34.386719 10.375 34.152344 10.175781 C 34.003906 10.058594 33.972656 9.265625 33.972656 5.511719 Z M 26.28125 5.730469 C 25.628906 5.671875 24.949219 5.96875 24.582031 6.527344 C 24.089844 7.277344 24.457031 8.558594 25.28125 8.972656 C 25.808594 9.238281 26.265625 9.25 26.832031 9.015625 C 28.03125 8.511719 28.078125 6.511719 26.90625 5.90625 C 26.707031 5.808594 26.496094 5.746094 26.28125 5.730469 Z M 36.839844 5.730469 C 36.1875 5.671875 35.503906 5.96875 35.140625 6.527344 C 34.644531 7.277344 35.015625 8.558594 35.839844 8.972656 C 36.363281 9.238281 36.824219 9.25 37.390625 9.015625 C 38.589844 8.511719 38.636719 6.511719 37.464844 5.90625 C 37.265625 5.808594 37.058594 5.746094 36.839844 5.730469 Z M 26.109375 6.707031 C 26.71875 6.707031 27 7.652344 26.496094 8.003906 C 26.339844 8.109375 26.15625 8.199219 26.082031 8.199219 C 26.015625 8.199219 25.828125 8.109375 25.675781 8.003906 C 25.152344 7.636719 25.457031 6.707031 26.109375 6.707031 Z M 36.667969 6.707031 C 37.277344 6.707031 37.558594 7.652344 37.050781 8.003906 C 36.6875 8.261719 36.417969 8.25 36.167969 7.96875 C 35.746094 7.503906 36.058594 6.707031 36.667969 6.707031 Z M 29.394531 11.058594 L 31.375 11.058594 C 32.847656 11.058594 33.375 11.09375 33.410156 11.207031 C 33.441406 11.296875 33.550781 13.40625 33.65625 15.902344 C 33.765625 18.390625 33.875 20.796875 33.90625 21.238281 C 33.9375 21.683594 34 22.941406 34.042969 24.035156 C 34.082031 25.128906 34.140625 26.191406 34.160156 26.394531 C 34.183594 26.597656 34.214844 27.410156 34.230469 28.199219 L 34.25 29.625 L 32.605469 29.699219 L 32.605469 28.890625 C 32.605469 28.046875 32.425781 27.769531 31.984375 27.921875 C 31.683594 28.027344 31.613281 28.21875 31.613281 28.972656 C 31.613281 29.652344 31.597656 29.6875 31.300781 29.6875 C 31.003906 29.6875 30.988281 29.65625 30.988281 28.886719 C 30.988281 28.046875 30.8125 27.769531 30.371094 27.921875 C 30.066406 28.027344 30 28.21875 30 28.972656 L 30 29.6875 L 28.488281 29.6875 L 28.5625 28.167969 C 28.597656 27.328125 28.6875 25.417969 28.753906 23.910156 C 28.988281 18.738281 29.011719 18.316406 29.066406 17.453125 C 29.097656 16.972656 29.15625 15.628906 29.191406 14.46875 C 29.230469 13.308594 29.292969 12.066406 29.328125 11.707031 Z M 38.203125 11.175781 C 37.519531 11.175781 36.5 11.738281 36.113281 12.328125 C 35.636719 13.046875 35.578125 14.175781 35.972656 14.96875 C 36.285156 15.589844 36.71875 15.964844 37.4375 16.234375 C 38.425781 16.597656 39.8125 16.144531 40.394531 15.261719 C 40.871094 14.546875 40.949219 13.3125 40.574219 12.574219 C 40.144531 11.738281 39.191406 11.175781 38.203125 11.175781 Z M 24.332031 11.203125 C 24.121094 11.207031 23.90625 11.238281 23.707031 11.300781 C 22.550781 11.675781 21.902344 12.574219 21.902344 13.808594 C 21.902344 14.984375 22.484375 15.796875 23.636719 16.230469 C 24.265625 16.464844 25.183594 16.355469 25.839844 15.964844 C 26.933594 15.324219 27.328125 13.707031 26.6875 12.472656 C 26.285156 11.703125 25.269531 11.1875 24.332031 11.203125 Z M 38.261719 12.171875 C 38.800781 12.171875 39.6875 12.765625 39.6875 13.125 C 39.6875 13.253906 39.359375 13.292969 38.261719 13.292969 C 37.472656 13.292969 36.828125 13.25 36.828125 13.191406 C 36.828125 12.785156 37.6875 12.171875 38.261719 12.171875 Z M 24.558594 12.191406 C 25.035156 12.21875 25.496094 12.484375 25.78125 12.953125 C 26.269531 13.753906 25.964844 14.796875 25.121094 15.191406 C 24.546875 15.464844 24.1875 15.457031 23.703125 15.160156 C 23.15625 14.828125 22.90625 14.402344 22.894531 13.796875 C 22.886719 13.203125 23.152344 12.75 23.703125 12.417969 C 23.972656 12.25 24.269531 12.175781 24.558594 12.191406 Z M 38.292969 14.25 C 39.410156 14.269531 39.738281 14.3125 39.707031 14.433594 C 39.644531 14.675781 39.292969 15.035156 38.917969 15.230469 C 38.453125 15.46875 37.957031 15.441406 37.488281 15.160156 C 37.125 14.9375 36.828125 14.5625 36.828125 14.324219 C 36.828125 14.265625 37.484375 14.234375 38.292969 14.25 Z M 34.6875 17.730469 L 35.417969 17.824219 C 36.402344 17.941406 38.832031 18.75 40.222656 19.421875 C 42.09375 20.316406 42.105469 19.96875 40.125 22.714844 C 39.183594 24.027344 38.378906 25.113281 38.332031 25.140625 C 38.292969 25.160156 37.8125 24.964844 37.265625 24.699219 C 36.71875 24.433594 35.984375 24.128906 35.636719 24.027344 L 35 23.839844 L 34.917969 21.703125 C 34.875 20.527344 34.800781 19.152344 34.761719 18.644531 Z M 27.746094 17.761719 L 28.046875 17.761719 L 27.964844 20.09375 C 27.917969 21.375 27.847656 22.703125 27.8125 23.050781 L 27.738281 23.683594 L 26.847656 23.96875 C 23.300781 25.09375 20.253906 27.703125 18.578125 31.050781 C 18.125 31.953125 17.558594 33.546875 17.390625 34.375 C 17.292969 34.859375 17.417969 34.859375 15.03125 34.410156 C 14.003906 34.21875 12.761719 33.996094 12.265625 33.910156 C 11.75 33.828125 11.363281 33.703125 11.363281 33.621094 C 11.363281 33.535156 11.5 33 11.660156 32.417969 C 13.25 26.722656 17.296875 21.941406 22.699219 19.378906 C 24.339844 18.597656 26.953125 17.761719 27.746094 17.761719 Z M 42.730469 20.925781 C 43.0625 20.9375 44.6875 22.246094 46.019531 23.59375 C 47.21875 24.808594 48.375 26.253906 48.246094 26.386719 C 48.214844 26.417969 46.859375 26.921875 45.234375 27.503906 C 43.605469 28.089844 42.238281 28.5625 42.191406 28.550781 C 42.144531 28.542969 41.605469 28.015625 40.988281 27.390625 C 40.375 26.765625 39.703125 26.136719 39.5 25.996094 L 39.125 25.734375 L 39.390625 25.441406 C 39.53125 25.28125 40.308594 24.230469 41.113281 23.105469 C 41.917969 21.980469 42.621094 21.003906 42.675781 20.941406 C 42.6875 20.933594 42.703125 20.925781 42.730469 20.925781 Z M 51.402344 21.734375 C 52.035156 21.71875 52.1875 21.917969 52.296875 22.515625 L 52.386719 22.980469 L 51.066406 22.980469 C 50.34375 22.980469 49.75 22.941406 49.75 22.902344 C 49.75 22.859375 49.8125 22.613281 49.886719 22.355469 C 50.015625 21.925781 50.066406 21.886719 50.589844 21.8125 C 50.925781 21.765625 51.191406 21.738281 51.402344 21.734375 Z M 52.605469 23.957031 L 52.605469 26.015625 C 52.605469 27.144531 52.5625 28.074219 52.511719 28.066406 C 52.390625 28.0625 51.703125 27.5625 51.578125 27.390625 C 51.53125 27.324219 51.5 26.535156 51.515625 25.652344 L 51.546875 24.035156 L 52.078125 23.996094 Z M 49.996094 23.972656 L 50.496094 23.972656 L 50.496094 25.339844 C 50.496094 26.089844 50.480469 26.703125 50.464844 26.699219 C 50.441406 26.691406 50.207031 26.519531 49.933594 26.316406 C 49.449219 25.953125 49.4375 25.925781 49.464844 25.234375 C 49.472656 24.847656 49.488281 24.40625 49.496094 24.25 C 49.5 24.011719 49.566406 23.972656 49.996094 23.972656 Z M 27.613281 24.8125 C 27.660156 24.8125 27.6875 24.824219 27.699219 24.839844 C 27.734375 24.902344 27.746094 25.160156 27.714844 25.421875 C 27.683594 25.6875 27.621094 26.890625 27.574219 28.105469 C 27.503906 29.785156 27.519531 30.355469 27.640625 30.496094 C 27.753906 30.636719 28.066406 30.683594 28.902344 30.683594 L 30.015625 30.683594 L 29.972656 31.015625 C 29.941406 31.292969 29.84375 31.378906 29.433594 31.5 C 28.765625 31.691406 27.761719 32.207031 27.296875 32.597656 C 27.089844 32.777344 26.902344 32.910156 26.875 32.90625 C 26.847656 32.902344 25.640625 31.910156 24.1875 30.703125 L 21.542969 28.503906 L 22.324219 27.777344 C 23.246094 26.917969 24.167969 26.269531 25.277344 25.714844 C 26.277344 25.207031 27.316406 24.8125 27.613281 24.8125 Z M 35.296875 24.988281 C 35.339844 24.996094 35.378906 25.011719 35.433594 25.019531 C 36.15625 25.199219 38.058594 26.230469 39.09375 27.015625 C 40.078125 27.761719 41.167969 28.871094 41.035156 29 C 41.003906 29.03125 39.671875 29.527344 38.066406 30.105469 C 36.464844 30.683594 34.859375 31.269531 34.496094 31.417969 C 34.136719 31.558594 33.828125 31.667969 33.8125 31.660156 C 33.796875 31.65625 33.519531 31.566406 33.199219 31.46875 C 32.703125 31.316406 32.605469 31.238281 32.605469 30.984375 C 32.605469 30.683594 32.613281 30.683594 33.832031 30.683594 C 34.699219 30.683594 35.097656 30.628906 35.199219 30.515625 C 35.296875 30.394531 35.300781 29.71875 35.214844 28.125 C 35.058594 25.183594 35.03125 24.9375 35.296875 24.988281 Z M 49.253906 27.078125 L 49.6875 27.359375 C 49.921875 27.511719 50.097656 27.6875 50.078125 27.753906 C 50.058594 27.816406 49.347656 28.128906 48.5 28.449219 C 46.375 29.238281 42.390625 30.71875 39.191406 31.894531 C 35.761719 33.167969 36.097656 33.09375 35.59375 32.660156 C 35.359375 32.464844 35.191406 32.277344 35.230469 32.238281 C 35.261719 32.207031 38.078125 31.171875 41.488281 29.9375 C 44.90625 28.699219 48.046875 27.550781 48.472656 27.386719 Z M 51.140625 28.519531 C 51.285156 28.519531 51.472656 28.613281 51.792969 28.839844 C 52.105469 29.058594 52.316406 29.277344 52.265625 29.328125 C 52.214844 29.375 50.6875 29.949219 48.878906 30.597656 C 47.066406 31.25 43.828125 32.425781 41.671875 33.207031 C 39.519531 33.988281 37.671875 34.667969 37.558594 34.714844 C 37.410156 34.769531 37.277344 34.667969 37.078125 34.34375 C 36.925781 34.097656 36.824219 33.878906 36.847656 33.855469 C 36.871094 33.832031 37.761719 33.496094 38.816406 33.105469 C 39.875 32.714844 42 31.925781 43.535156 31.359375 C 45.074219 30.785156 47.339844 29.953125 48.5625 29.5 C 49.792969 29.046875 50.890625 28.621094 51.011719 28.558594 C 51.050781 28.535156 51.09375 28.527344 51.140625 28.519531 Z M 20.878906 29.3125 C 20.96875 29.3125 26.082031 33.574219 26.082031 33.652344 C 26.082031 33.691406 25.863281 34.15625 25.589844 34.6875 L 25.09375 35.644531 L 23.417969 35.636719 C 22.230469 35.625 21.25 35.535156 20.066406 35.324219 C 19.144531 35.15625 18.371094 34.996094 18.339844 34.964844 C 18.230469 34.847656 18.824219 32.890625 19.25 31.96875 C 19.640625 31.121094 20.75 29.3125 20.878906 29.3125 Z M 31.300781 30.683594 C 31.53125 30.683594 31.613281 30.746094 31.613281 30.925781 C 31.613281 31.109375 31.53125 31.175781 31.300781 31.175781 C 31.074219 31.175781 30.988281 31.109375 30.988281 30.925781 C 30.988281 30.746094 31.074219 30.683594 31.300781 30.683594 Z M 50.683594 31.097656 C 50.902344 31.183594 51.519531 33.5625 51.355469 33.667969 C 51.277344 33.71875 50.78125 33.824219 50.261719 33.90625 C 49.738281 33.988281 48.613281 34.1875 47.761719 34.347656 C 45.371094 34.800781 45.042969 34.832031 44.96875 34.636719 C 44.847656 34.292969 44.652344 33.253906 44.699219 33.207031 C 44.824219 33.078125 50.574219 31.058594 50.683594 31.097656 Z M 31.300781 32.171875 C 31.605469 32.171875 31.613281 32.199219 31.613281 33.03125 C 31.613281 33.644531 31.667969 33.949219 31.808594 34.089844 C 32.035156 34.316406 32.058594 34.316406 32.363281 34.15625 C 32.566406 34.046875 32.605469 33.890625 32.605469 33.152344 C 32.605469 32.300781 32.613281 32.28125 32.886719 32.363281 C 33.636719 32.589844 34.753906 33.246094 35.316406 33.800781 C 38.1875 36.609375 37.40625 41.21875 33.765625 42.949219 C 32.890625 43.359375 32.675781 43.410156 31.613281 43.441406 C 30.621094 43.480469 30.300781 43.4375 29.613281 43.1875 C 27.753906 42.515625 26.453125 41.097656 25.941406 39.1875 C 25.277344 36.699219 26.652344 33.847656 29.066406 32.714844 C 29.964844 32.292969 30 32.308594 30 33.15625 C 30 33.660156 30.058594 33.953125 30.191406 34.089844 C 30.421875 34.316406 30.441406 34.316406 30.75 34.15625 C 30.957031 34.046875 30.988281 33.890625 30.988281 33.097656 C 30.988281 32.191406 31 32.171875 31.300781 32.171875 Z M 43.660156 33.558594 L 43.859375 34.238281 C 43.96875 34.613281 44.03125 34.949219 43.996094 34.984375 C 43.964844 35.015625 43.160156 35.175781 42.214844 35.34375 C 40.566406 35.628906 38.316406 35.75 38.324219 35.558594 C 38.324219 35.503906 39.089844 35.191406 40.03125 34.863281 C 40.96875 34.535156 42.171875 34.105469 42.699219 33.910156 Z M 31.457031 35.292969 C 31.363281 35.292969 31.261719 35.296875 31.160156 35.300781 C 29.839844 35.410156 28.878906 36.484375 28.878906 37.855469 C 28.878906 38.859375 29.53125 39.894531 30.371094 40.230469 C 30.832031 40.410156 32.058594 40.394531 32.53125 40.199219 C 33.433594 39.816406 33.972656 38.933594 33.972656 37.824219 C 33.972656 36.324219 32.9375 35.300781 31.457031 35.292969 Z M 31.425781 36.332031 C 32.078125 36.332031 32.160156 36.363281 32.550781 36.796875 C 32.910156 37.183594 32.980469 37.355469 32.980469 37.832031 C 32.980469 38.550781 32.65625 39.03125 31.984375 39.296875 C 31.371094 39.542969 31.410156 39.546875 30.808594 39.265625 C 30.203125 38.988281 29.875 38.457031 29.875 37.769531 C 29.875 37.363281 29.957031 37.167969 30.296875 36.796875 C 30.691406 36.363281 30.777344 36.332031 31.425781 36.332031 Z M 10.996094 36.640625 L 14.222656 36.640625 L 14.222656 37.386719 L 10.996094 37.386719 Z M 15.21875 36.640625 L 20.03125 36.644531 L 24.84375 36.644531 L 24.84375 39.125 L 15.21875 39.125 Z M 38.011719 36.640625 L 47.636719 36.640625 L 47.636719 39.125 L 38.011719 39.125 Z M 48.628906 36.640625 L 51.859375 36.640625 L 51.859375 37.386719 L 48.628906 37.386719 Z M 10.996094 38.378906 L 14.222656 38.378906 L 14.222656 39.125 L 10.996094 39.125 Z M 48.628906 38.378906 L 51.859375 38.378906 L 51.859375 39.125 L 48.628906 39.125 Z M 37.6875 40.121094 L 39.152344 40.125 C 40.449219 40.128906 43.515625 40.558594 43.71875 40.761719 C 43.75 40.792969 43.703125 41.0625 43.609375 41.371094 C 43.136719 42.941406 41.875 45.050781 40.628906 46.363281 C 40.253906 46.753906 39.933594 47.078125 39.910156 47.078125 C 39.890625 47.078125 39.015625 46.0625 37.96875 44.828125 C 36.394531 42.964844 36.097656 42.558594 36.25 42.4375 C 36.535156 42.207031 37.191406 41.230469 37.449219 40.652344 Z M 23.316406 40.128906 C 24.199219 40.109375 24.980469 40.136719 25.09375 40.214844 C 25.160156 40.265625 25.355469 40.578125 25.519531 40.910156 C 25.6875 41.238281 26 41.738281 26.21875 42.015625 L 26.621094 42.515625 L 24.621094 44.796875 C 23.515625 46.050781 22.550781 47.078125 22.46875 47.078125 C 22.230469 47.078125 20.925781 45.59375 20.214844 44.488281 C 19.53125 43.441406 18.753906 41.8125 18.621094 41.136719 C 18.535156 40.71875 18.378906 40.777344 20.910156 40.3125 C 21.441406 40.214844 22.433594 40.152344 23.316406 40.128906 Z M 44.96875 40.917969 C 44.984375 40.910156 45 40.917969 45.019531 40.921875 C 45.125 40.949219 45.886719 41.09375 46.703125 41.238281 C 49.707031 41.78125 51.402344 42.105469 51.453125 42.15625 C 51.566406 42.269531 50.828125 44.671875 50.3125 45.875 C 49.300781 48.230469 48.105469 50.0625 46.292969 52.035156 C 45.71875 52.65625 45.191406 53.160156 45.109375 53.15625 C 45.03125 53.152344 43.972656 51.96875 42.761719 50.527344 L 40.558594 47.902344 L 41.339844 47.089844 C 42.785156 45.578125 44.003906 43.519531 44.605469 41.578125 C 44.75 41.113281 44.847656 40.925781 44.96875 40.910156 Z M 17.339844 40.996094 C 17.464844 40.988281 17.605469 41.230469 17.753906 41.703125 C 18.339844 43.582031 19.511719 45.558594 20.980469 47.128906 L 21.785156 47.996094 L 21.078125 48.808594 C 20.691406 49.253906 19.894531 50.15625 19.316406 50.808594 C 18.734375 51.464844 18.078125 52.203125 17.859375 52.453125 C 17.640625 52.707031 17.4375 52.917969 17.410156 52.917969 C 17.386719 52.917969 17.0625 52.59375 16.6875 52.203125 C 14.988281 50.410156 13.503906 48.199219 12.597656 46.09375 C 12.109375 44.957031 11.363281 42.628906 11.363281 42.234375 C 11.363281 42.066406 11.546875 41.988281 12.203125 41.875 C 12.667969 41.796875 13.964844 41.566406 15.09375 41.363281 C 16.21875 41.160156 17.230469 40.996094 17.339844 40.996094 Z M 27.480469 43.246094 C 27.550781 43.253906 27.65625 43.316406 27.746094 43.394531 C 28.027344 43.652344 29.035156 44.09375 29.8125 44.300781 C 31.265625 44.6875 33.375 44.402344 34.691406 43.640625 C 34.984375 43.472656 35.277344 43.347656 35.332031 43.375 C 35.433594 43.410156 36.386719 44.53125 43 52.390625 C 45.308594 55.128906 45.421875 55.292969 45.199219 55.46875 C 44.359375 56.136719 42.1875 57.480469 41.128906 57.996094 C 38.910156 59.074219 36.308594 59.84375 33.972656 60.097656 C 32.714844 60.234375 30.183594 60.238281 28.875 60.109375 C 27.652344 59.980469 25.453125 59.46875 24.078125 58.996094 C 21.917969 58.238281 19.011719 56.625 17.515625 55.355469 L 17.027344 54.933594 L 18.078125 53.761719 C 18.65625 53.121094 20.078125 51.511719 21.238281 50.1875 C 25.917969 44.855469 27.3125 43.285156 27.417969 43.246094 C 27.433594 43.238281 27.453125 43.238281 27.480469 43.246094 Z M 27.058594 46.953125 C 26.019531 46.953125 25.339844 47.484375 25.105469 48.480469 C 24.933594 49.199219 25.5625 50.332031 26.269531 50.59375 C 26.75 50.765625 27.613281 50.671875 28.011719 50.402344 C 29.535156 49.359375 28.871094 46.953125 27.058594 46.953125 Z M 35.511719 46.953125 C 33.609375 46.953125 32.878906 49.34375 34.457031 50.394531 C 35.25 50.925781 36.328125 50.722656 37 49.925781 C 37.265625 49.613281 37.328125 49.417969 37.328125 48.863281 C 37.328125 47.640625 36.671875 46.953125 35.511719 46.953125 Z M 31.332031 47.707031 C 30.796875 47.714844 30.25 47.949219 29.847656 48.421875 C 29.390625 48.96875 29.296875 49.65625 29.59375 50.328125 C 29.875 50.957031 30.074219 51.144531 30.707031 51.371094 C 32.300781 51.9375 33.703125 50.355469 33.003906 48.78125 C 32.691406 48.074219 32.019531 47.703125 31.332031 47.707031 Z M 27.015625 47.875 C 27.113281 47.878906 27.21875 47.921875 27.371094 48 C 27.964844 48.308594 28.074219 48.96875 27.597656 49.417969 C 27.125 49.859375 26.5 49.753906 26.203125 49.171875 C 26.042969 48.863281 26.035156 48.753906 26.171875 48.472656 C 26.265625 48.285156 26.488281 48.0625 26.671875 47.972656 C 26.8125 47.90625 26.910156 47.875 27.015625 47.875 Z M 35.464844 47.875 C 35.566406 47.875 35.667969 47.90625 35.808594 47.972656 C 36.269531 48.191406 36.46875 48.628906 36.308594 49.082031 C 36.238281 49.28125 36.078125 49.496094 35.953125 49.5625 C 35.183594 49.980469 34.355469 49.21875 34.671875 48.386719 C 34.714844 48.277344 34.910156 48.105469 35.109375 48 C 35.261719 47.921875 35.363281 47.878906 35.464844 47.875 Z M 31.347656 48.722656 C 31.859375 48.753906 32.347656 49.21875 32.1875 49.859375 C 32.140625 50.035156 31.941406 50.261719 31.738281 50.363281 C 31.269531 50.609375 31.214844 50.605469 30.828125 50.300781 C 30.402344 49.964844 30.316406 49.644531 30.550781 49.199219 C 30.734375 48.84375 31.046875 48.707031 31.347656 48.722656 Z M 36.527344 51.09375 C 36.316406 51.097656 36.105469 51.144531 35.886719 51.234375 C 35.214844 51.515625 34.894531 51.855469 34.722656 52.46875 C 34.457031 53.410156 34.941406 54.40625 35.839844 54.761719 C 36.578125 55.058594 37.433594 54.824219 37.980469 54.171875 C 39.050781 52.894531 37.980469 51.046875 36.527344 51.09375 Z M 26.082031 51.113281 C 25.933594 51.121094 25.78125 51.140625 25.628906 51.183594 C 23.921875 51.640625 23.730469 54.011719 25.339844 54.730469 C 26.527344 55.253906 28.011719 54.324219 28.011719 53.050781 C 28.011719 51.933594 27.121094 51.089844 26.082031 51.113281 Z M 36.5 52.046875 C 36.605469 52.046875 36.859375 52.1875 37.066406 52.363281 C 37.535156 52.761719 37.5625 53.1875 37.144531 53.605469 C 36.980469 53.769531 36.699219 53.90625 36.519531 53.90625 C 36.128906 53.90625 35.589844 53.402344 35.589844 53.035156 C 35.589844 52.734375 36.222656 52.046875 36.5 52.046875 Z M 31.332031 52.050781 C 30.386719 52.078125 29.453125 52.785156 29.453125 53.875 C 29.457031 54.605469 29.761719 55.207031 30.28125 55.527344 C 30.847656 55.875 31.824219 55.855469 32.371094 55.488281 C 33.25 54.902344 33.472656 53.65625 32.855469 52.792969 C 32.480469 52.261719 31.902344 52.03125 31.332031 52.050781 Z M 26.15625 52.0625 C 26.324219 52.066406 26.488281 52.167969 26.6875 52.347656 C 27.105469 52.734375 27.109375 53.203125 26.714844 53.605469 C 26.230469 54.089844 25.640625 53.96875 25.292969 53.3125 C 25.097656 52.953125 25.207031 52.621094 25.613281 52.296875 C 25.824219 52.128906 25.988281 52.050781 26.15625 52.0625 Z M 31.296875 53.0625 C 31.917969 53.058594 32.425781 53.75 32.113281 54.332031 C 31.59375 55.308594 30.03125 54.589844 30.503906 53.59375 C 30.605469 53.394531 30.839844 53.175781 31.03125 53.109375 C 31.121094 53.078125 31.214844 53.0625 31.296875 53.0625 Z M 15.894531 56.777344 L 15.125 57.652344 C 18.378906 61.558594 24.652344 63.996094 31.464844 64 C 38.167969 63.996094 44.347656 61.640625 47.65625 57.839844 L 46.949219 57.027344 C 43.671875 60.652344 37.828125 62.863281 31.527344 62.871094 C 25.074219 62.859375 19.121094 60.535156 15.894531 56.777344 Z M 15.894531 56.777344 "/>
</g>
</svg>
