<svg xmlns="http://www.w3.org/2000/svg" xmlns:xlink="http://www.w3.org/1999/xlink" width="64px" height="64px" viewBox="0 0 64 64" version="1.1">
<defs>
<linearGradient id="linear0" gradientUnits="userSpaceOnUse" x1="0" y1="0" x2="0" y2="1" gradientTransform="matrix(51.197917,0,0,64,6.401041,0)">
<stop offset="0" style="stop-color:#00aad4;stop-opacity:1;"/>
<stop offset="1" style="stop-color:#006b86;stop-opacity:1;"/>
</linearGradient>
</defs>
<g id="surface1">
<path style=" stroke:none;fill-rule:nonzero;fill:url(#linear0);" d="M 39.3125 0 C 31.613281 9.105469 24.890625 21.089844 24.15625 35.15625 L 24.078125 36.628906 L 35.199219 36.628906 C 34.597656 39.09375 34.261719 41.605469 34.152344 44.125 C 26.058594 44.605469 18.527344 43.71875 11.28125 39.996094 L 10 42.488281 C 17.730469 46.46875 25.785156 47.410156 34.128906 46.9375 C 34.296875 52.910156 35.78125 58.808594 38.417969 64 L 40.921875 62.734375 C 38.464844 57.902344 36.96875 52.363281 36.71875 46.796875 C 43.308594 46.566406 48.375 44.980469 52.410156 42.578125 L 50.980469 40.167969 C 47.363281 42.316406 42.84375 43.769531 36.699219 43.996094 C 36.785156 41.15625 37.214844 38.339844 38.03125 35.628906 L 38.574219 33.828125 L 27.339844 33.828125 C 28.433594 21.234375 34.316406 10.253906 41.457031 1.8125 Z M 15.921875 16.042969 L 15.921875 23.207031 L 18.722656 23.207031 L 18.722656 16.042969 Z M 41.921875 16.042969 L 41.921875 23.207031 L 44.722656 23.207031 L 44.722656 16.042969 Z M 41.921875 16.042969 "/>
</g>
</svg>
