<svg xmlns="http://www.w3.org/2000/svg" xmlns:xlink="http://www.w3.org/1999/xlink" width="64px" height="64px" viewBox="0 0 64 64" version="1.1">
<defs>
<linearGradient id="linear0" gradientUnits="userSpaceOnUse" x1="0" y1="0" x2="0" y2="1" gradientTransform="matrix(13.177082,0,0,13.177082,16.942708,0)">
<stop offset="0" style="stop-color:#00aad4;stop-opacity:1;"/>
<stop offset="1" style="stop-color:#006b86;stop-opacity:1;"/>
</linearGradient>
<linearGradient id="linear1" gradientUnits="userSpaceOnUse" x1="0" y1="0" x2="0" y2="1" gradientTransform="matrix(13.177082,0,0,13.177082,16.942708,16.942708)">
<stop offset="0" style="stop-color:#00aad4;stop-opacity:1;"/>
<stop offset="1" style="stop-color:#006b86;stop-opacity:1;"/>
</linearGradient>
<linearGradient id="linear2" gradientUnits="userSpaceOnUse" x1="0" y1="0" x2="0" y2="1" gradientTransform="matrix(13.177082,0,0,13.177085,16.942708,33.880208)">
<stop offset="0" style="stop-color:#00aad4;stop-opacity:1;"/>
<stop offset="1" style="stop-color:#006b86;stop-opacity:1;"/>
</linearGradient>
<linearGradient id="linear3" gradientUnits="userSpaceOnUse" x1="0" y1="0" x2="0" y2="1" gradientTransform="matrix(13.177082,0,0,13.177085,16.942708,50.822917)">
<stop offset="0" style="stop-color:#00aad4;stop-opacity:1;"/>
<stop offset="1" style="stop-color:#006b86;stop-opacity:1;"/>
</linearGradient>
<linearGradient id="linear4" gradientUnits="userSpaceOnUse" x1="0" y1="0" x2="0" y2="1" gradientTransform="matrix(13.177085,0,0,13.177082,33.880208,16.942708)">
<stop offset="0" style="stop-color:#00aad4;stop-opacity:1;"/>
<stop offset="1" style="stop-color:#006b86;stop-opacity:1;"/>
</linearGradient>
<linearGradient id="linear5" gradientUnits="userSpaceOnUse" x1="0" y1="0" x2="0" y2="1" gradientTransform="matrix(13.177085,0,0,13.177085,33.880208,33.880208)">
<stop offset="0" style="stop-color:#00aad4;stop-opacity:1;"/>
<stop offset="1" style="stop-color:#006b86;stop-opacity:1;"/>
</linearGradient>
<linearGradient id="linear6" gradientUnits="userSpaceOnUse" x1="0" y1="0" x2="0" y2="1" gradientTransform="matrix(13.177085,0,0,13.177085,33.880208,50.822917)">
<stop offset="0" style="stop-color:#00aad4;stop-opacity:1;"/>
<stop offset="1" style="stop-color:#006b86;stop-opacity:1;"/>
</linearGradient>
</defs>
<g id="surface1">
<path style=" stroke:none;fill-rule:nonzero;fill:url(#linear0);" d="M 18.449219 0 L 28.609375 0 C 29.441406 0 30.121094 0.675781 30.121094 1.503906 L 30.121094 11.671875 C 30.121094 12.5 29.441406 13.175781 28.609375 13.175781 L 18.449219 13.175781 C 17.613281 13.175781 16.941406 12.5 16.941406 11.671875 L 16.941406 1.503906 C 16.941406 0.675781 17.613281 0 18.449219 0 Z M 18.449219 0 "/>
<path style=" stroke:none;fill-rule:nonzero;fill:url(#linear1);" d="M 18.449219 16.941406 L 28.609375 16.941406 C 29.441406 16.941406 30.121094 17.613281 30.121094 18.449219 L 30.121094 28.609375 C 30.121094 29.441406 29.441406 30.121094 28.609375 30.121094 L 18.449219 30.121094 C 17.613281 30.121094 16.941406 29.441406 16.941406 28.609375 L 16.941406 18.449219 C 16.941406 17.613281 17.613281 16.941406 18.449219 16.941406 Z M 18.449219 16.941406 "/>
<path style=" stroke:none;fill-rule:nonzero;fill:url(#linear2);" d="M 18.449219 33.878906 L 28.609375 33.878906 C 29.441406 33.878906 30.121094 34.558594 30.121094 35.390625 L 30.121094 45.550781 C 30.121094 46.386719 29.441406 47.058594 28.609375 47.058594 L 18.449219 47.058594 C 17.613281 47.058594 16.941406 46.386719 16.941406 45.550781 L 16.941406 35.390625 C 16.941406 34.558594 17.613281 33.878906 18.449219 33.878906 Z M 18.449219 33.878906 "/>
<path style=" stroke:none;fill-rule:nonzero;fill:url(#linear3);" d="M 18.449219 50.824219 L 28.609375 50.824219 C 29.441406 50.824219 30.121094 51.5 30.121094 52.328125 L 30.121094 62.496094 C 30.121094 63.324219 29.441406 64 28.609375 64 L 18.449219 64 C 17.613281 64 16.941406 63.324219 16.941406 62.496094 L 16.941406 52.328125 C 16.941406 51.5 17.613281 50.824219 18.449219 50.824219 Z M 18.449219 50.824219 "/>
<path style=" stroke:none;fill-rule:nonzero;fill:url(#linear4);" d="M 35.390625 16.941406 L 45.550781 16.941406 C 46.386719 16.941406 47.058594 17.613281 47.058594 18.449219 L 47.058594 28.609375 C 47.058594 29.441406 46.386719 30.121094 45.550781 30.121094 L 35.390625 30.121094 C 34.558594 30.121094 33.878906 29.441406 33.878906 28.609375 L 33.878906 18.449219 C 33.878906 17.613281 34.558594 16.941406 35.390625 16.941406 Z M 35.390625 16.941406 "/>
<path style=" stroke:none;fill-rule:nonzero;fill:url(#linear5);" d="M 35.390625 33.878906 L 45.550781 33.878906 C 46.386719 33.878906 47.058594 34.558594 47.058594 35.390625 L 47.058594 45.550781 C 47.058594 46.386719 46.386719 47.058594 45.550781 47.058594 L 35.390625 47.058594 C 34.558594 47.058594 33.878906 46.386719 33.878906 45.550781 L 33.878906 35.390625 C 33.878906 34.558594 34.558594 33.878906 35.390625 33.878906 Z M 35.390625 33.878906 "/>
<path style=" stroke:none;fill-rule:nonzero;fill:url(#linear6);" d="M 35.390625 50.824219 L 45.550781 50.824219 C 46.386719 50.824219 47.058594 51.5 47.058594 52.328125 L 47.058594 62.496094 C 47.058594 63.324219 46.386719 64 45.550781 64 L 35.390625 64 C 34.558594 64 33.878906 63.324219 33.878906 62.496094 L 33.878906 52.328125 C 33.878906 51.5 34.558594 50.824219 35.390625 50.824219 Z M 35.390625 50.824219 "/>
</g>
</svg>
