<svg xmlns="http://www.w3.org/2000/svg" xmlns:xlink="http://www.w3.org/1999/xlink" width="64px" height="64px" viewBox="0 0 64 64" version="1.1">
<defs>
<linearGradient id="linear0" gradientUnits="userSpaceOnUse" x1="0" y1="0" x2="0" y2="1" gradientTransform="matrix(51.197917,0,0,64,6.401041,0)">
<stop offset="0" style="stop-color:#00aad4;stop-opacity:1;"/>
<stop offset="1" style="stop-color:#006b86;stop-opacity:1;"/>
</linearGradient>
</defs>
<g id="surface1">
<path style=" stroke:none;fill-rule:nonzero;fill:url(#linear0);"  d="M 20.464844 25.792969 C 20.644531 25.496094 20.839844 25.199219 21.03125 24.902344 C 21.136719 24.738281 21.238281 24.578125 21.347656 24.421875 C 20.949219 24.449219 20.546875 24.480469 20.144531 24.515625 C 20.25 24.941406 20.355469 25.371094 20.464844 25.792969 Z M 17.515625 30.839844 C 17.261719 31.316406 17.011719 31.800781 16.761719 32.285156 C 15.625 34.503906 14.625 36.796875 13.769531 39.128906 C 13.019531 41.136719 12.4375 43.199219 11.996094 45.292969 C 11.609375 47.050781 11.410156 48.84375 11.394531 50.640625 C 11.394531 50.652344 11.394531 50.667969 11.394531 50.683594 L 11.394531 50.953125 C 11.386719 52.515625 11.699219 54.066406 12.324219 55.503906 C 12.875 56.800781 13.800781 57.910156 14.953125 58.71875 C 15.410156 59.078125 15.921875 59.347656 16.480469 59.515625 C 17.113281 59.71875 17.785156 59.816406 18.46875 59.800781 C 19.71875 59.785156 20.957031 59.503906 22.109375 59.003906 C 23.621094 58.339844 25.027344 57.453125 26.296875 56.386719 C 26.71875 56.015625 26.988281 55.488281 27.035156 54.9375 C 27.078125 54.363281 26.90625 53.8125 26.535156 53.371094 C 26.167969 52.941406 25.640625 52.671875 25.082031 52.628906 C 24.515625 52.589844 23.957031 52.769531 23.519531 53.144531 C 22.578125 53.941406 21.527344 54.59375 20.390625 55.09375 C 19.765625 55.375 19.078125 55.519531 18.386719 55.546875 C 18.171875 55.546875 17.941406 55.503906 17.746094 55.449219 C 17.671875 55.421875 17.613281 55.375 17.574219 55.324219 C 16.972656 54.964844 16.503906 54.4375 16.234375 53.8125 C 15.847656 52.917969 15.652344 51.949219 15.667969 50.96875 C 15.667969 50.953125 15.667969 50.953125 15.667969 50.9375 L 15.667969 50.667969 C 15.683594 49.160156 15.847656 47.652344 16.160156 46.1875 C 16.5625 44.292969 17.105469 42.425781 17.769531 40.609375 C 18.3125 39.125 18.917969 37.675781 19.578125 36.25 C 19.824219 36.792969 20.066406 37.328125 20.316406 37.859375 C 21.839844 41.078125 23.621094 44.175781 25.640625 47.140625 C 27.390625 49.730469 29.355469 52.160156 31.53125 54.410156 C 32.484375 55.375 33.496094 56.300781 34.546875 57.171875 C 35.484375 57.9375 36.484375 58.636719 37.535156 59.261719 C 38.457031 59.832031 39.457031 60.285156 40.480469 60.640625 C 41.449219 60.984375 42.441406 61.15625 43.46875 61.167969 C 44.59375 61.183594 45.703125 60.910156 46.699219 60.386719 C 47.355469 59.917969 47.90625 59.300781 48.316406 58.609375 C 48.703125 57.96875 49.003906 57.285156 49.203125 56.574219 C 49.644531 54.980469 49.859375 53.328125 49.8125 51.675781 C 49.800781 50.015625 49.671875 48.363281 49.417969 46.714844 C 49.144531 44.808594 48.761719 42.910156 48.292969 41.046875 C 47.183594 36.683594 45.730469 32.425781 43.9375 28.300781 C 43.707031 27.777344 43.296875 27.375 42.769531 27.160156 C 42.246094 26.964844 41.644531 26.964844 41.136719 27.191406 C 40.609375 27.417969 40.207031 27.84375 39.996094 28.371094 C 39.796875 28.894531 39.796875 29.480469 40.027344 29.996094 C 41.71875 33.90625 43.113281 37.964844 44.152344 42.089844 C 44.59375 43.824219 44.933594 45.574219 45.203125 47.339844 C 45.417969 48.800781 45.53125 50.269531 45.546875 51.75 C 45.574219 52.984375 45.433594 54.222656 45.105469 55.40625 C 44.988281 55.761719 44.847656 56.105469 44.660156 56.417969 C 44.59375 56.542969 44.503906 56.644531 44.40625 56.746094 C 44.125 56.859375 43.824219 56.902344 43.527344 56.902344 C 42.96875 56.902344 42.417969 56.800781 41.875 56.613281 C 41.136719 56.34375 40.410156 56.015625 39.722656 55.605469 C 38.859375 55.078125 38.03125 54.511719 37.25 53.855469 C 36.3125 53.097656 35.425781 52.292969 34.589844 51.4375 C 32.597656 49.375 30.777344 47.125 29.167969 44.75 C 27.277344 41.972656 25.609375 39.058594 24.171875 36.027344 C 23.4375 34.464844 22.769531 32.871094 22.183594 31.246094 C 22.9375 29.878906 23.753906 28.546875 24.613281 27.234375 C 25.285156 26.191406 25.988281 25.171875 26.730469 24.183594 C 27.074219 24.171875 27.417969 24.171875 27.761719 24.171875 L 27.875 24.171875 C 29.3125 24.171875 30.761719 24.203125 32.199219 24.285156 C 35.96875 24.472656 39.722656 24.886719 43.453125 25.542969 C 46.527344 26.050781 49.542969 26.824219 52.488281 27.875 C 53.625 28.269531 54.75 28.769531 55.832031 29.324219 C 56.671875 29.765625 57.453125 30.277344 58.191406 30.890625 C 58.675781 31.277344 59.105469 31.761719 59.417969 32.296875 C 59.621094 32.609375 59.71875 32.96875 59.730469 33.339844 L 59.71875 33.453125 C 59.6875 33.824219 59.589844 34.175781 59.40625 34.503906 C 59.136719 35.015625 58.792969 35.472656 58.378906 35.871094 C 57.824219 36.410156 57.230469 36.894531 56.558594 37.292969 C 55.761719 37.792969 54.90625 38.203125 54.027344 38.546875 C 53.5 38.746094 53.074219 39.140625 52.84375 39.65625 C 52.613281 40.183594 52.589844 40.765625 52.800781 41.292969 C 53 41.816406 53.402344 42.246094 53.910156 42.484375 C 54.4375 42.714844 55.019531 42.730469 55.546875 42.53125 C 56.671875 42.105469 57.765625 41.5625 58.792969 40.9375 C 59.71875 40.363281 60.582031 39.683594 61.371094 38.925781 C 62.09375 38.21875 62.703125 37.40625 63.175781 36.511719 C 63.644531 35.640625 63.917969 34.6875 63.984375 33.691406 C 63.984375 33.667969 63.984375 33.636719 63.984375 33.609375 L 64 33.40625 C 64 33.378906 64 33.347656 64 33.324219 C 63.972656 32.183594 63.671875 31.089844 63.089844 30.109375 C 62.503906 29.140625 61.765625 28.285156 60.886719 27.574219 C 59.933594 26.792969 58.890625 26.109375 57.796875 25.542969 C 56.542969 24.886719 55.25 24.316406 53.925781 23.847656 C 50.753906 22.722656 47.480469 21.886719 44.167969 21.328125 C 40.28125 20.644531 36.355469 20.21875 32.425781 20.019531 C 31.628906 19.984375 30.828125 19.953125 30.03125 19.925781 C 30.144531 19.78125 30.269531 19.636719 30.390625 19.496094 C 32.199219 17.359375 34.175781 15.378906 36.296875 13.546875 C 37.933594 12.09375 39.738281 10.84375 41.675781 9.785156 C 42.386719 9.40625 43.140625 9.09375 43.921875 8.847656 C 44.480469 8.667969 45.078125 8.550781 45.660156 8.519531 L 45.933594 8.511719 C 45.941406 8.511719 45.972656 8.511719 45.984375 8.511719 C 46.425781 8.496094 46.871094 8.609375 47.253906 8.824219 C 47.59375 9.046875 47.878906 9.375 48.0625 9.746094 C 48.308594 10.246094 48.433594 10.796875 48.421875 11.371094 C 48.421875 11.964844 48.332031 12.5625 48.160156 13.128906 C 47.9375 13.886719 47.625 14.613281 47.238281 15.296875 C 46.96875 15.78125 46.894531 16.363281 47.042969 16.917969 C 47.199219 17.457031 47.550781 17.925781 48.050781 18.199219 C 48.53125 18.484375 49.113281 18.550781 49.671875 18.394531 C 50.214844 18.253906 50.683594 17.886719 50.953125 17.402344 C 51.503906 16.433594 51.933594 15.410156 52.246094 14.34375 C 52.53125 13.390625 52.671875 12.40625 52.6875 11.410156 C 52.703125 10.1875 52.433594 8.964844 51.890625 7.855469 C 51.363281 6.769531 50.542969 5.847656 49.515625 5.207031 C 48.40625 4.527344 47.125 4.199219 45.828125 4.238281 L 45.546875 4.253906 C 45.515625 4.253906 45.503906 4.253906 45.472656 4.253906 C 44.503906 4.296875 43.542969 4.480469 42.597656 4.78125 C 41.589844 5.109375 40.59375 5.535156 39.65625 6.03125 C 37.449219 7.230469 35.371094 8.667969 33.480469 10.328125 C 31.21875 12.292969 29.097656 14.425781 27.144531 16.71875 C 26.246094 17.769531 25.375 18.847656 24.546875 19.957031 C 22.78125 20.019531 21.019531 20.140625 19.269531 20.308594 C 19.140625 19.609375 19.03125 18.910156 18.9375 18.214844 C 18.699219 16.488281 18.550781 14.769531 18.511719 13.03125 L 18.511719 12.578125 C 18.496094 11.839844 18.550781 11.097656 18.640625 10.359375 C 18.707031 9.800781 18.839844 9.234375 19.027344 8.691406 C 19.136719 8.355469 19.308594 8.011719 19.519531 7.714844 C 19.652344 7.558594 19.808594 7.410156 19.988281 7.3125 C 20.234375 7.199219 20.503906 7.128906 20.777344 7.097656 L 20.917969 7.097656 C 21.203125 7.113281 21.484375 7.171875 21.753906 7.285156 C 22.238281 7.484375 22.683594 7.722656 23.109375 8.011719 C 24.230469 8.808594 25.269531 9.703125 26.207031 10.699219 C 26.59375 11.113281 27.136719 11.339844 27.6875 11.371094 C 28.261719 11.378906 28.8125 11.167969 29.222656 10.785156 C 29.640625 10.402344 29.863281 9.859375 29.894531 9.292969 C 29.90625 8.722656 29.691406 8.183594 29.3125 7.769531 C 28.171875 6.558594 26.90625 5.464844 25.542969 4.511719 C 24.871094 4.042969 24.144531 3.65625 23.390625 3.34375 C 22.625 3.015625 21.796875 2.84375 20.941406 2.832031 C 20.917969 2.832031 20.875 2.832031 20.828125 2.832031 L 20.574219 2.84375 C 20.5625 2.84375 20.546875 2.84375 20.515625 2.84375 C 19.660156 2.902344 18.824219 3.128906 18.058594 3.515625 C 17.285156 3.910156 16.621094 4.46875 16.105469 5.167969 C 15.609375 5.816406 15.222656 6.558594 14.96875 7.34375 C 14.699219 8.152344 14.515625 8.988281 14.402344 9.832031 C 14.285156 10.753906 14.230469 11.683594 14.246094 12.605469 L 14.246094 13.089844 C 14.246094 13.105469 14.246094 13.105469 14.246094 13.121094 C 14.285156 15.027344 14.441406 16.917969 14.714844 18.808594 C 14.800781 19.488281 14.90625 20.167969 15.027344 20.84375 C 13 21.175781 11.003906 21.640625 9.035156 22.238281 C 7.878906 22.59375 6.746094 23.050781 5.660156 23.5625 C 4.683594 24.03125 3.769531 24.597656 2.917969 25.269531 C 2.121094 25.910156 1.4375 26.675781 0.910156 27.546875 C 0.386719 28.425781 0.0742188 29.421875 0.015625 30.449219 C 0.015625 30.464844 0.015625 30.488281 0.015625 30.519531 L 0 30.660156 C 0 30.703125 0 30.75 0.015625 30.792969 C 0.0429688 31.859375 0.355469 32.894531 0.910156 33.792969 C 1.453125 34.6875 2.105469 35.5 2.875 36.199219 C 4.511719 37.71875 6.417969 38.902344 8.511719 39.683594 C 9.035156 39.878906 9.621094 39.871094 10.128906 39.625 C 10.65625 39.402344 11.058594 38.972656 11.253906 38.441406 C 11.453125 37.917969 11.4375 37.324219 11.199219 36.808594 C 10.96875 36.296875 10.542969 35.894531 10.015625 35.6875 C 8.4375 35.097656 7 34.203125 5.761719 33.050781 C 5.292969 32.625 4.878906 32.128906 4.550781 31.574219 C 4.394531 31.316406 4.296875 31.015625 4.28125 30.703125 L 4.28125 30.675781 C 4.296875 30.347656 4.394531 30.019531 4.566406 29.75 C 4.824219 29.3125 5.167969 28.941406 5.5625 28.625 C 6.160156 28.144531 6.816406 27.746094 7.5 27.417969 C 8.394531 26.988281 9.332031 26.621094 10.285156 26.324219 C 12.121094 25.769531 13.988281 25.332031 15.878906 25.019531 C 15.878906 25.042969 15.886719 25.0625 15.894531 25.082031 C 16.339844 27.027344 16.878906 28.949219 17.515625 30.839844 Z M 17.515625 30.839844 "/>
<path style=" stroke:none;fill-rule:nonzero;fill:url(#linear0);" d="M 36.292969 31.996094 C 36.292969 33.519531 35.480469 34.933594 34.15625 35.691406 C 32.832031 36.453125 31.207031 36.453125 29.886719 35.691406 C 28.566406 34.925781 27.75 33.519531 27.753906 31.996094 C 27.753906 29.636719 29.667969 27.722656 32.027344 27.722656 C 34.378906 27.722656 36.292969 29.636719 36.292969 31.996094 Z M 36.292969 31.996094 "/>
</g>
</svg>
