<svg xmlns="http://www.w3.org/2000/svg" xmlns:xlink="http://www.w3.org/1999/xlink" width="64px" height="64px" viewBox="0 0 64 64" version="1.1">
<defs>
<linearGradient id="linear0" gradientUnits="userSpaceOnUse" x1="0" y1="0" x2="0" y2="1" gradientTransform="matrix(60,0,0,45,2,9.5)">
<stop offset="0" style="stop-color:#00aad4;stop-opacity:1;"/>
<stop offset="1" style="stop-color:#006b86;stop-opacity:1;"/>
</linearGradient>
</defs>
<g id="surface1">
<path style=" stroke:none;fill-rule:nonzero;fill:url(#linear0);" d="M 28.59375 9.5 C 18.011719 9.5 17.777344 16.566406 14.714844 21.324219 C 18.464844 19.558594 22.644531 18.046875 27.15625 16.886719 C 31.253906 15.824219 35.390625 15.125 39.40625 14.808594 C 36.859375 12.734375 35.082031 9.5 28.59375 9.5 Z M 43.128906 19.625 C 38.457031 19.714844 33.394531 20.433594 28.40625 21.722656 C 11.957031 25.96875 0.234375 35.214844 2.21875 42.363281 C 3.363281 46.449219 8.886719 50.144531 17.113281 50.636719 C 17.109375 50.609375 17.097656 50.578125 17.09375 50.550781 C 17.09375 50.546875 17.09375 50.542969 17.09375 50.542969 C 17.089844 50.46875 17.0625 50.40625 17.050781 50.332031 C 16.574219 45.96875 19.066406 42.582031 21.9375 40.199219 C 24.800781 37.808594 28.484375 36.082031 32.652344 35.15625 C 34.671875 34.703125 36.714844 34.472656 38.714844 34.5 L 38.71875 34.5 C 41.722656 34.535156 44.5 35.09375 46.941406 36.484375 C 48.957031 37.625 50.800781 39.609375 51.582031 42.0625 C 59.09375 37.472656 62.972656 31.296875 61.792969 26.980469 C 60.472656 22.246094 53.316406 19.421875 43.128906 19.625 Z M 38.65625 39.5 C 37.078125 39.480469 35.40625 39.660156 33.734375 40.035156 C 26.847656 41.574219 21.597656 45.9375 22.027344 49.785156 C 22.449219 53.628906 28.378906 55.5 35.269531 53.964844 C 42.160156 52.421875 47.402344 48.0625 46.972656 44.214844 C 46.667969 41.421875 43.390625 39.5625 38.65625 39.5 Z M 38.65625 39.5 "/>
</g>
</svg>
