<svg xmlns="http://www.w3.org/2000/svg" xmlns:xlink="http://www.w3.org/1999/xlink" width="64px" height="64px" viewBox="0 0 64 64" version="1.1">
<defs>
<linearGradient id="linear0" gradientUnits="userSpaceOnUse" x1="0" y1="0" x2="0" y2="1" gradientTransform="matrix(50.666667,0,0,64,6.666667,0)">
<stop offset="0" style="stop-color:#6a00ff;stop-opacity:1;"/>
<stop offset="0.5" style="stop-color:#dddddd;stop-opacity:1;"/>
<stop offset="1" style="stop-color:#ff0000;stop-opacity:1;"/>
</linearGradient>
</defs>
<g id="surface1">
<path style=" stroke:none;fill-rule:nonzero;fill:url(#linear0);" d="M 54.988281 0 C 54.214844 -0.00390625 53.1875 0.113281 51.816406 0.308594 L 27.121094 3.824219 C 21.628906 4.949219 21.628906 5.296875 21.628906 9.753906 L 21.628906 51.566406 C 21.21875 51.296875 20.824219 51.019531 20.40625 50.75 C 18.65625 49.628906 16.796875 48.828125 14.300781 48.828125 C 11.167969 48.828125 9.300781 49.980469 8.171875 51.496094 C 7.042969 53.011719 6.667969 54.921875 6.667969 56.40625 C 6.667969 58.183594 7.300781 60.089844 8.675781 61.535156 C 10.046875 62.984375 12.160156 64 15.199219 64 C 18.628906 64 21.042969 63.078125 22.40625 61.285156 C 23.472656 59.871094 24.074219 57.980469 24.28125 55.644531 L 24.28125 55.640625 C 24.3125 55.355469 24.332031 55.066406 24.355469 54.765625 C 24.378906 54.308594 24.375 53.441406 24.375 53.441406 L 24.375 20.46875 C 24.375 16.511719 24.371094 16.269531 29.871094 15.371094 L 49.078125 12.753906 C 54.5 12.078125 54.582031 12.546875 54.582031 15.394531 L 54.582031 46.285156 C 54.183594 46.015625 53.78125 45.746094 53.363281 45.472656 C 51.613281 44.355469 49.753906 43.550781 47.253906 43.550781 C 44.128906 43.550781 42.261719 44.703125 41.128906 46.21875 C 40 47.734375 39.625 49.644531 39.625 51.125 C 39.625 52.90625 40.261719 54.808594 41.628906 56.253906 C 43.011719 57.707031 45.121094 58.722656 48.15625 58.722656 C 51.582031 58.722656 53.996094 57.800781 55.359375 56.003906 C 56.4375 54.59375 57.027344 52.699219 57.238281 50.371094 L 57.238281 50.363281 C 57.265625 50.078125 57.292969 49.792969 57.3125 49.488281 C 57.339844 49.03125 57.332031 48.167969 57.332031 48.167969 L 57.332031 4.644531 C 57.332031 1.175781 57.308594 0.0273438 54.988281 0 Z M 54.988281 0 "/>
</g>
</svg>
