<svg xmlns="http://www.w3.org/2000/svg" xmlns:xlink="http://www.w3.org/1999/xlink" width="64px" height="64px" viewBox="0 0 64 64" version="1.1">
<defs>
<linearGradient id="linear0" gradientUnits="userSpaceOnUse" x1="0" y1="0" x2="0" y2="1" gradientTransform="matrix(64,0,0,52,0,6)">
<stop offset="0" style="stop-color:#00aad4;stop-opacity:1;"/>
<stop offset="1" style="stop-color:#006b86;stop-opacity:1;"/>
</linearGradient>
</defs>
<g id="surface1">
<path style=" stroke:none;fill-rule:nonzero;fill:url(#linear0);" d="M 12 6 L 12 10 L 15.972656 10 C 10.941406 10.058594 7.261719 9.875 4.25 11.542969 C 2.746094 12.371094 1.558594 13.777344 0.902344 15.53125 C 0.238281 17.285156 0 19.371094 0 22 L 0 46 C 0 48.628906 0.238281 50.714844 0.902344 52.46875 C 1.558594 54.222656 2.746094 55.628906 4.25 56.457031 C 7.261719 58.121094 10.941406 57.941406 15.972656 58 L 48.027344 58 C 53.058594 57.941406 56.738281 58.125 59.75 56.457031 C 61.253906 55.628906 62.441406 54.222656 63.105469 52.46875 C 63.761719 50.714844 64 48.628906 64 46 L 64 22 C 64 19.371094 63.761719 17.285156 63.097656 15.53125 C 62.441406 13.777344 61.253906 12.371094 59.75 11.542969 C 56.738281 9.878906 53.058594 10.058594 48.027344 10 L 20 10 L 20 6 Z M 16 14 L 48 14 C 53.035156 14.058594 56.347656 14.238281 57.8125 15.046875 C 58.546875 15.453125 58.96875 15.894531 59.359375 16.9375 C 59.75 17.980469 60 19.628906 60 22 L 60 46 C 60 48.371094 59.75 50.019531 59.359375 51.0625 C 58.96875 52.105469 58.546875 52.546875 57.8125 52.953125 C 56.347656 53.761719 53.035156 53.941406 48 54 L 16 54 C 10.964844 53.941406 7.644531 53.761719 6.175781 52.953125 C 5.449219 52.546875 5.03125 52.105469 4.640625 51.0625 C 4.25 50.019531 4 48.371094 4 46 L 4 22 C 4 19.628906 4.25 17.980469 4.640625 16.9375 C 5.03125 15.894531 5.449219 15.453125 6.175781 15.046875 C 7.644531 14.238281 10.964844 14.058594 16 14 Z M 32 18 C 23.160156 18 16 25.160156 16 34 C 16 42.839844 23.160156 50 32 50 C 40.839844 50 48 42.839844 48 34 C 48 25.160156 40.839844 18 32 18 Z M 54 18 C 52.894531 18 52 18.894531 52 20 C 52 21.105469 52.894531 22 54 22 C 55.105469 22 56 21.105469 56 20 C 56 18.894531 55.105469 18 54 18 Z M 32 22 C 38.625 22 44 27.375 44 34 C 44 40.625 38.625 46 32 46 C 25.375 46 20 40.625 20 34 C 20 27.375 25.375 22 32 22 Z M 31.660156 26.015625 C 27.386719 26.199219 24.003906 29.714844 24 34 C 24 38.417969 27.582031 42 32 42 C 36.417969 42 40 38.417969 40 34 C 39.996094 29.738281 36.652344 26.234375 32.402344 26.027344 C 34.441406 26.230469 36 27.949219 36 30 C 36 32.207031 34.207031 34 32 34 C 29.792969 34 28 32.207031 28 30 C 28 27.921875 29.59375 26.191406 31.667969 26.015625 Z M 31.660156 26.015625 "/>
</g>
</svg>
