<svg xmlns="http://www.w3.org/2000/svg" xmlns:xlink="http://www.w3.org/1999/xlink" width="64px" height="64px" viewBox="0 0 64 64" version="1.1">
<defs>
<linearGradient id="linear0" gradientUnits="userSpaceOnUse" x1="0" y1="0" x2="0" y2="1" gradientTransform="matrix(51.197917,0,0,64,6.401041,0)">
<stop offset="0" style="stop-color:#00aad4;stop-opacity:1;"/>
<stop offset="1" style="stop-color:#006b86;stop-opacity:1;"/>
</linearGradient>
</defs>
<g id="surface1">
<path style=" stroke:none;fill-rule:nonzero;fill:url(#linear0);" d="M 31.9375 8.339844 C 45.199219 8.339844 55.9375 19.113281 55.9375 32.394531 C 55.9375 45.683594 45.199219 56.457031 31.9375 56.457031 C 18.683594 56.457031 7.9375 45.683594 7.9375 32.394531 C 7.9375 19.113281 18.683594 8.339844 31.9375 8.339844 Z M 26.699219 4.816406 C 23.734375 5.386719 20.890625 6.421875 18.285156 7.878906 L 15.6875 4.777344 L 7.660156 11.613281 L 10.214844 14.660156 C 9.28125 15.808594 8.425781 17.042969 7.675781 18.347656 C 6.90625 19.683594 6.265625 21.046875 5.738281 22.4375 L 1.761719 21.734375 L 0 32.140625 L 3.9375 32.839844 C 3.996094 35.839844 4.535156 38.816406 5.519531 41.640625 L 1.96875 43.699219 L 7.285156 52.800781 L 10.796875 50.777344 C 12.707031 52.980469 14.988281 54.921875 17.625 56.496094 L 16.214844 60.390625 L 26.128906 63.9375 L 27.519531 60.109375 C 30.488281 60.589844 33.488281 60.578125 36.410156 60.109375 L 37.824219 64 L 47.699219 60.328125 L 46.3125 56.515625 C 48.84375 55.011719 51.160156 53.089844 53.144531 50.785156 L 56.699219 52.839844 L 61.90625 43.660156 L 58.40625 41.640625 C 59.40625 38.765625 59.90625 35.796875 59.9375 32.84375 L 64 32.128906 L 62.105469 21.75 L 58.105469 22.453125 C 57.050781 19.683594 55.5625 17.0625 53.660156 14.71875 L 56.3125 11.5625 L 48.199219 4.828125 L 45.609375 7.921875 C 42.988281 6.449219 40.160156 5.410156 37.230469 4.84375 L 37.230469 0 L 26.699219 1.578125 Z M 31.9375 16.359375 C 40.777344 16.359375 47.9375 23.542969 47.9375 32.394531 C 47.9375 41.253906 40.777344 48.4375 31.9375 48.4375 C 23.105469 48.4375 15.9375 41.253906 15.9375 32.394531 C 15.9375 23.542969 23.105469 16.359375 31.9375 16.359375 Z M 30.53125 12.40625 C 23.902344 12.855469 17.925781 16.589844 14.605469 22.355469 C 9.105469 31.957031 12.386719 44.214844 21.949219 49.761719 C 31.511719 55.292969 43.734375 52.015625 49.265625 42.4375 C 54.765625 32.839844 51.484375 20.589844 41.921875 15.042969 C 38.472656 13.042969 34.511719 12.121094 30.53125 12.40625 Z M 30.53125 12.40625 "/>
</g>
</svg>
