<svg xmlns="http://www.w3.org/2000/svg" xmlns:xlink="http://www.w3.org/1999/xlink" width="64px" height="64px" viewBox="0 0 64 64" version="1.1">
<defs>
<linearGradient id="linear0" gradientUnits="userSpaceOnUse" x1="0" y1="0" x2="0" y2="1" gradientTransform="matrix(45,0,0,60,9.5,2)">
<stop offset="0" style="stop-color:#00aad4;stop-opacity:1;"/>
<stop offset="1" style="stop-color:#006b86;stop-opacity:1;"/>
</linearGradient>
</defs>
<g id="surface1">
<path style=" stroke:none;fill-rule:nonzero;fill:url(#linear0);" d="M 32 2 C 23.691406 2 17 8.6875 17 17 L 17 32 L 9.5 32 C 9.5 42 9.5 52 9.5 62 C 24.5 62 39.5 62 54.5 62 L 54.5 32 C 52 32 49.5 32 47 32 L 47 17 C 47 8.6875 40.308594 2 32 2 Z M 32 5.75 C 38.234375 5.75 43.25 11.605469 43.25 18.875 L 43.25 32 L 20.75 32 L 20.75 18.875 C 20.75 11.605469 25.765625 5.75 32 5.75 Z M 32 5.75 "/>
</g>
</svg>
