<svg xmlns="http://www.w3.org/2000/svg" xmlns:xlink="http://www.w3.org/1999/xlink" width="64px" height="64px" viewBox="0 0 64 64" version="1.1">
<defs>
<linearGradient id="linear0" gradientUnits="userSpaceOnUse" x1="0" y1="0" x2="0" y2="1" gradientTransform="matrix(60,0,0,57.21875,2,2.781249)">
<stop offset="0" style="stop-color:#00aad4;stop-opacity:1;"/>
<stop offset="1" style="stop-color:#006b86;stop-opacity:1;"/>
</linearGradient>
</defs>
<g id="surface1">
<path style=" stroke:none;fill-rule:nonzero;fill:url(#linear0);" d="M 57 59.96875 C 56.4375 59.890625 55.964844 59.636719 55.578125 59.21875 C 54.730469 58.308594 53.332031 55.636719 52.1875 52.71875 C 51.542969 51.082031 50.3125 47.484375 50.3125 47.238281 C 50.3125 47.160156 51.125 46.625 52.113281 46.046875 L 53.921875 44.996094 L 54.203125 45.261719 C 55.328125 46.316406 58.550781 51.136719 60.4375 54.574219 C 61.1875 55.941406 61.265625 56.140625 61.261719 56.707031 C 61.261719 57.457031 61.019531 57.988281 60.347656 58.734375 C 59.546875 59.628906 58.160156 60.140625 57 59.96875 Z M 3.347656 59.066406 C 3.378906 58.980469 3.933594 56.5 4.574219 53.5625 C 5.207031 50.625 5.746094 48.207031 5.761719 48.1875 C 5.816406 48.109375 11.589844 52.15625 11.582031 52.269531 C 11.582031 52.332031 9.917969 53.765625 7.878906 55.453125 C 3.292969 59.261719 3.277344 59.277344 3.347656 59.066406 Z M 9.457031 48.707031 C 7.847656 47.597656 6.546875 46.644531 6.5625 46.589844 C 6.597656 46.449219 20.40625 23.078125 20.519531 22.957031 C 20.589844 22.894531 26.621094 26.6875 26.902344 26.96875 C 26.964844 27.03125 12.605469 50.675781 12.496094 50.703125 C 12.433594 50.71875 11.066406 49.824219 9.457031 48.707031 Z M 47.355469 42.535156 C 46.25 40.675781 45.363281 39.144531 45.386719 39.128906 C 45.582031 38.996094 49.753906 36.59375 49.800781 36.59375 C 49.871094 36.59375 53.375 43.574219 53.324219 43.609375 C 52.871094 43.925781 49.527344 45.921875 49.457031 45.917969 C 49.402344 45.910156 48.453125 44.390625 47.355469 42.535156 Z M 2.042969 42.183594 C 2.003906 41.859375 1.988281 39.246094 2.003906 36.371094 L 2.042969 31.152344 L 7.828125 31.183594 C 11.011719 31.199219 13.628906 31.230469 13.644531 31.238281 C 13.660156 31.261719 12.128906 33.859375 10.238281 37.019531 L 6.808594 42.769531 L 2.109375 42.769531 Z M 19.40625 42.609375 C 19.40625 42.574219 20.980469 39.972656 22.894531 36.816406 L 26.390625 31.082031 L 38.792969 31.082031 L 42.109375 36.605469 C 43.933594 39.640625 45.488281 42.246094 45.566406 42.394531 L 45.707031 42.660156 L 32.558594 42.660156 C 25.324219 42.660156 19.40625 42.628906 19.40625 42.597656 Z M 53.238281 40.160156 C 52.574219 38.785156 51.3125 36.207031 50.449219 34.425781 L 48.871094 31.199219 L 53.15625 31.199219 C 55.515625 31.199219 58.472656 31.167969 59.722656 31.121094 L 62 31.046875 L 62 42.65625 L 54.453125 42.65625 L 53.238281 40.15625 Z M 43.660156 36.453125 C 41.121094 32.449219 38.53125 27.746094 35.417969 21.472656 C 32.953125 16.503906 30.578125 11.363281 29.59375 8.871094 C 28.175781 5.265625 27.839844 3.019531 28.675781 2.808594 C 30.027344 2.46875 32.667969 5.53125 36.421875 11.796875 C 39.363281 16.699219 44.074219 25.269531 47.667969 32.265625 C 48.332031 33.5625 49 34.832031 49.144531 35.09375 L 49.40625 35.558594 L 47.171875 36.863281 C 45.9375 37.578125 44.890625 38.167969 44.839844 38.167969 C 44.785156 38.167969 44.261719 37.394531 43.660156 36.453125 Z M 24.207031 24.046875 L 21.082031 21.988281 L 21.378906 21.519531 C 21.542969 21.265625 22.359375 19.957031 23.199219 18.625 C 24.03125 17.285156 24.730469 16.175781 24.746094 16.15625 C 24.765625 16.140625 26.171875 17.042969 27.875 18.160156 L 30.96875 20.199219 L 30.511719 20.953125 C 30.253906 21.363281 29.488281 22.609375 28.8125 23.722656 C 28.136719 24.839844 27.519531 25.828125 27.453125 25.925781 C 27.34375 26.078125 26.902344 25.816406 24.207031 24.046875 Z M 28.191406 17.363281 C 26.574219 16.308594 25.25 15.390625 25.25 15.328125 C 25.25 14.886719 26.589844 13.644531 27.246094 13.480469 C 28.328125 13.207031 30.109375 13.902344 31.097656 14.984375 C 31.863281 15.824219 32.03125 16.234375 31.964844 17.09375 C 31.90625 17.738281 31.378906 19.285156 31.214844 19.285156 C 31.167969 19.285156 29.808594 18.417969 28.191406 17.363281 Z M 28.191406 17.363281 "/>
</g>
</svg>
