<svg xmlns="http://www.w3.org/2000/svg" xmlns:xlink="http://www.w3.org/1999/xlink" width="64px" height="64px" viewBox="0 0 64 64" version="1.1">
<defs>
<linearGradient id="linear0" gradientUnits="userSpaceOnUse" x1="0" y1="0" x2="0" y2="1" gradientTransform="matrix(57.5,0,0,64,3.25,0)">
<stop offset="0" style="stop-color:#00aad4;stop-opacity:1;"/>
<stop offset="1" style="stop-color:#006b86;stop-opacity:1;"/>
</linearGradient>
</defs>
<g id="surface1">
<path style=" stroke:none;fill-rule:nonzero;fill:url(#linear0);" d="M 6.734375 55.21875 C 8.421875 51.75 10.660156 46.246094 12.011719 42.59375 C 12.578125 41.03125 14.25 39.527344 15.71875 39.234375 L 21.90625 36.613281 C 20.871094 35.488281 21.683594 33.78125 24.339844 31.464844 L 23.296875 29.359375 C 21.777344 29.097656 20.855469 28.542969 20.527344 27.699219 C 20.199219 26.847656 20.457031 25.703125 21.316406 24.265625 C 20.957031 23.859375 20.855469 23.386719 21.003906 22.855469 L 19.082031 14.777344 L 19.050781 13.613281 L 19.144531 12.011719 L 18.925781 11.128906 L 19.558594 10.59375 L 19.902344 10.0625 L 20.28125 9.652344 L 19.839844 8.578125 L 19.621094 7.859375 L 19.652344 6.730469 L 20.214844 5.3125 C 21.234375 3.9375 22.125 2.996094 22.886719 2.484375 C 24.035156 1.71875 24.03125 1.855469 24.683594 1.574219 C 25.328125 1.292969 27.378906 0.683594 28.890625 0.375 C 29.902344 0.175781 30.535156 0.0742188 30.808594 0.0625 L 31.6875 0 L 32.316406 0.15625 L 34.359375 0.691406 L 36.3125 1.636719 L 37.691406 3.113281 L 38.480469 4.714844 L 38.824219 6.597656 L 39.078125 7.542969 L 39.734375 7.859375 L 40.339844 8.988281 L 40.777344 9.144531 L 40.714844 10.40625 L 41.277344 12.105469 L 41.683594 13.015625 L 42.472656 14.488281 L 42.472656 15.089844 L 42.972656 16.128906 L 42.910156 17.128906 L 42.535156 18.515625 L 43.636719 18.988281 L 43.386719 19.425781 C 44.515625 20.5625 44.964844 21.597656 44.734375 22.542969 C 44.269531 24.4375 42.347656 25.902344 42.125 26.625 C 41.796875 27.699219 41.128906 27.917969 40.113281 27.285156 L 40.777344 30.300781 L 42.09375 31.4375 L 46.871094 32.722656 L 49.449219 33.011719 L 50.925781 33.285156 L 53.660156 33.574219 C 53.980469 33.386719 54.230469 33.324219 54.417969 33.386719 C 54.605469 33.4375 54.847656 33.515625 55.140625 33.605469 L 57.152344 34.765625 C 58.589844 36.277344 59.53125 37.542969 59.980469 38.566406 C 60.65625 40.109375 60.542969 42.800781 60.609375 45.109375 C 60.683594 47.417969 61.0625 50.71875 60.136719 53.59375 C 59.519531 55.515625 59.097656 56.488281 58.878906 56.519531 L 56.238281 63.332031 C 54.515625 63.402344 52.644531 63.59375 50.949219 63.652344 C 37.339844 64.089844 24.183594 64.171875 12.160156 63.566406 C 9.003906 63.40625 6.464844 63.222656 3.25 62.703125 L 3.902344 61.203125 L 5.660156 58.027344 L 6.734375 55.214844 "/>
</g>
</svg>
