<?xml version="1.0" encoding="UTF-8" standalone="no"?>
<svg
   width="22"
   height="22"
   version="1.1"
   id="svg12"
   sodipodi:docname="kget-symbolic.svg"
   inkscape:version="1.3.2 (091e20ef0f, 2023-11-25)"
   xmlns:inkscape="http://www.inkscape.org/namespaces/inkscape"
   xmlns:sodipodi="http://sodipodi.sourceforge.net/DTD/sodipodi-0.dtd"
   xmlns:xlink="http://www.w3.org/1999/xlink"
   xmlns="http://www.w3.org/2000/svg"
   xmlns:svg="http://www.w3.org/2000/svg"
   xmlns:rdf="http://www.w3.org/1999/02/22-rdf-syntax-ns#"
   xmlns:cc="http://creativecommons.org/ns#"
   xmlns:dc="http://purl.org/dc/elements/1.1/">
  <style
     id="current-color-scheme"
     type="text/css">.ColorScheme-Text { color:#d6dbf1; }
</style>
  <g
     id="22-22-kget"
     style="fill:#d3dae3;fill-opacity:1">
    <rect
       style="opacity:0.00100002;fill:#d3dae3;fill-opacity:1"
       width="22"
       height="22"
       x="0"
       y="2.7026367e-08"
       id="rect2" />
    <path
       d="M 13.333213,3.0021992 H 8.666693 C 8.349862,3.0021992 8,3.3216231 8,3.7031992 V 10.002199 H 6.670626 c -0.154286,0 -0.295353,-0.033352 -0.361246,0.106472 -0.0664,0.139823 -0.04607,0.305431 0.0516,0.425382 l 4.3291,5.318444 c 0.07589,0.09364 0.18946,0.147702 0.309813,0.147702 0.12036,0 0.233934,-0.05405 0.30982,-0.147702 l 4.329281,-5.318444 c 0.09768,-0.119778 0.11804,-0.285559 0.0516,-0.425382 -0.06607,-0.1398277 -0.20696,-0.106472 -0.361247,-0.106472 H 14 V 3.7016969 C 14,3.3716514 13.698539,3.0021992 13.333093,3.0021992 Z m 0.653787,7.9999998 -2.987,3.662 -2.987,-3.683 0.354,0.021 C 8.7785368,11.026612 9,10.583657 9,10.280544 V 4.0021992 h 4 v 6.2783448 c 0,0.369072 0.207631,0.721655 0.533,0.721655 z"
       id="path49-3"
       style="fill:#d3dae3;fill-opacity:1;stroke-width:0.0457735"
       sodipodi:nodetypes="csscscccscccscccccccssccssc"
       class="ColorScheme-Text" />
    <path
       d="m 2.999953,18.502199 c 0,0.276333 0.178933,0.5 0.4,0.5 h 15.200001 c 0.221066,0 0.4,-0.223667 0.4,-0.5 0,-0.276333 -0.178934,-0.5 -0.4,-0.5 H 3.399953 c -0.221067,0 -0.4,0.223667 -0.4,0.5 z"
       id="path55-6"
       style="fill:#d3dae3;fill-opacity:1;stroke-width:0.0511101"
       class="ColorScheme-Text" />
  </g>
  <metadata
     id="metadata18">
    <rdf:RDF>
      <cc:Work
         rdf:about="">
        <dc:format>image/svg+xml</dc:format>
        <dc:type
           rdf:resource="http://purl.org/dc/dcmitype/StillImage" />
      </cc:Work>
    </rdf:RDF>
  </metadata>
  <defs
     id="defs16">
    <linearGradient
       id="c"
       y1="13"
       y2="33"
       x2="0"
       gradientUnits="userSpaceOnUse"
       gradientTransform="matrix(1,0,0,-1,384.57,547.8)">
      <stop
         stop-color="#197cf1"
         id="stop12" />
      <stop
         offset="1"
         stop-color="#20bcfa"
         id="stop14" />
    </linearGradient>
    <linearGradient
       xlink:href="#c"
       id="d"
       y1="14"
       y2="33"
       x2="0"
       gradientUnits="userSpaceOnUse"
       gradientTransform="matrix(1,0,0,-1,-8,37)" />
    <linearGradient
       id="linearGradient917"
       y1="13"
       y2="33"
       x2="0"
       gradientUnits="userSpaceOnUse"
       gradientTransform="matrix(1,0,0,-1,384.57,547.8)">
      <stop
         stop-color="#197cf1"
         id="stop913" />
      <stop
         offset="1"
         stop-color="#20bcfa"
         id="stop915" />
    </linearGradient>
  </defs>
  <sodipodi:namedview
     pagecolor="#201933"
     bordercolor="#000000"
     borderopacity="1"
     objecttolerance="10"
     gridtolerance="10"
     guidetolerance="10"
     inkscape:pageopacity="0"
     inkscape:pageshadow="2"
     inkscape:window-width="1920"
     inkscape:window-height="994"
     id="namedview14"
     showgrid="true"
     inkscape:zoom="9.8125"
     inkscape:cx="1.4267516"
     inkscape:cy="16.611465"
     inkscape:window-x="0"
     inkscape:window-y="0"
     inkscape:window-maximized="1"
     inkscape:current-layer="svg12"
     inkscape:document-rotation="0"
     inkscape:pagecheckerboard="true"
     inkscape:lockguides="false"
     inkscape:showpageshadow="2"
     inkscape:deskcolor="#201933">
    <inkscape:grid
       type="xygrid"
       id="grid849"
       originx="-32"
       originy="-9.9978008"
       spacingy="1"
       spacingx="1"
       units="px"
       visible="true" />
  </sodipodi:namedview>
</svg>
