<?xml version="1.0" encoding="UTF-8" standalone="no"?>
<svg
   width="22"
   height="22"
   version="1.1"
   id="svg12"
   sodipodi:docname="compass.svg"
   inkscape:version="1.3.2 (091e20ef0f, 2023-11-25)"
   xmlns:inkscape="http://www.inkscape.org/namespaces/inkscape"
   xmlns:sodipodi="http://sodipodi.sourceforge.net/DTD/sodipodi-0.dtd"
   xmlns:xlink="http://www.w3.org/1999/xlink"
   xmlns="http://www.w3.org/2000/svg"
   xmlns:svg="http://www.w3.org/2000/svg"
   xmlns:rdf="http://www.w3.org/1999/02/22-rdf-syntax-ns#"
   xmlns:cc="http://creativecommons.org/ns#"
   xmlns:dc="http://purl.org/dc/elements/1.1/">
  <g
     id="22-22-compass"
     style="fill:url(#linearGradient9)">
    <path
       style="clip-rule:evenodd;fill:url(#linearGradient1);fill-opacity:0;fill-rule:evenodd;stroke-width:0.688964;stroke-linejoin:round;stroke-miterlimit:1.41421"
       d="M 0,0 V 22 H 22 V 0 Z"
       id="rect817-5"
       inkscape:connector-curvature="0" />
    <path
       d="m 10.83317,9.333313 c -0.353366,0.162135 -0.434348,0.593263 -0.162145,0.865467 0.21725,0.217252 0.534777,0.217252 0.752029,0 0.272203,-0.272204 0.191212,-0.703332 -0.162126,-0.865467 -0.168398,-0.07444 -0.259193,-0.07444 -0.427758,0 z"
       id="path20-3"
       style="fill:url(#linearGradient4);fill-opacity:1;stroke-width:0.00169069" />
    <path
       d="m 10.946613,14.779255 c -0.233329,0.07455 -0.353366,0.233331 -0.353366,0.457002 0,0.278795 0.126478,0.389033 0.606135,0.518723 0.145894,0.03895 0.288425,0.09724 0.317669,0.129666 0.07135,0.081 0.03894,0.181585 -0.08102,0.243132 -0.246324,0.126454 -0.58346,-0.01303 -0.58346,-0.239921 0,-0.05835 -0.01945,-0.0682 -0.162146,-0.0682 h -0.162117 v 0.113457 c 0,0.149117 0.06474,0.272364 0.207445,0.39867 0.12967,0.113441 0.278802,0.152331 0.544584,0.145898 0.362995,-0.0091 0.628938,-0.255964 0.599689,-0.557593 -0.026,-0.259344 -0.184796,-0.389035 -0.596481,-0.495886 -0.317689,-0.08099 -0.366381,-0.10702 -0.366381,-0.204232 0,-0.103802 0.08438,-0.145919 0.288434,-0.145919 0.181583,0 0.295024,0.07455 0.295024,0.191225 0,0.09076 0.04865,0.110239 0.194438,0.08424 0.119879,-0.01945 0.129685,-0.02926 0.129685,-0.126478 0,-0.13288 -0.113445,-0.30466 -0.252766,-0.385646 -0.119706,-0.07122 -0.482863,-0.103634 -0.625392,-0.0582 z"
       id="path22-6"
       style="fill:url(#linearGradient7);fill-opacity:1;stroke-width:0.00169069" />
    <path
       d="m 11.016803,1.0001081 c 0,0 0.229399,0.01 0.65923,0.02877 0.107348,0.0081 0.228116,0.0041 0.358974,0.02198 0.130859,0.019139 0.273876,0.03977 0.428544,0.06242 0.154129,0.02501 0.32199,0.04105 0.49707,0.07841 0.174323,0.041861 0.359502,0.08641 0.555009,0.1334502 0.775108,0.2043153 1.71339,0.5294062 2.677024,1.1260464 0.961569,0.5907044 1.969948,1.4198531 2.826771,2.5552195 0.845186,1.1356165 1.538812,2.5725294 1.85123,4.2246298 0.04604,0.205088 0.05615,0.41613 0.08562,0.627417 l 0.03725,0.319401 0.01837,0.160874 0.0036,0.185431 c 0.0027,0.41147 0.03832,0.795014 -0.0199,1.275799 -0.02328,0.228369 -0.03208,0.47018 -0.07164,0.694661 -0.04219,0.223972 -0.08452,0.448976 -0.12698,0.675259 -0.03417,0.229927 -0.112243,0.448196 -0.175089,0.673727 l -0.101188,0.33751 c -0.03107,0.114049 -0.07115,0.225004 -0.118708,0.333098 -0.324055,0.892771 -0.815186,1.737184 -1.397601,2.534782 -0.15518,0.191635 -0.313455,0.382761 -0.47484,0.572849 -0.154916,0.196557 -0.34759,0.357422 -0.521903,0.538198 l -0.269727,0.264316 c -0.09157,0.08659 -0.193192,0.161639 -0.289917,0.243104 -0.197072,0.158537 -0.39259,0.32173 -0.600011,0.469148 -0.832506,0.590436 -1.767438,1.048728 -2.753056,1.378211 C 13.103877,20.837586 12.058519,20.968446 11.017033,21 l -0.237421,-0.0105 -0.171724,-0.0099 -0.343707,-0.01966 -0.171734,-0.0091 c -0.05537,-0.0024 -0.113792,-0.0056 -0.186462,-0.01835 L 9.495367,20.87151 9.0854488,20.80711 8.8811324,20.77348 8.6913015,20.72512 C 8.4387389,20.660481 8.1886414,20.587831 7.9385588,20.518261 6.9531888,20.187223 6.0161936,19.732568 5.1836799,19.141081 4.9757435,18.994445 4.78152,18.828934 4.5823796,18.673229 4.4856133,18.591829 4.383754,18.516516 4.292204,18.429867 L 4.0222034,18.16529 C 3.8476262,17.984255 3.6549467,17.823396 3.5000373,17.626583 3.3409799,17.435199 3.1821836,17.244342 3.0239064,17.054238 2.4420061,16.255361 1.9488061,15.411454 1.6250084,14.517651 1.3045657,13.626959 1.0857719,12.719434 1.0337871,11.822533 0.97735465,11.37769 1.0079769,10.933637 1.0109548,10.501214 l 0.00549,-0.193699 0.0184,-0.15027 0.03678,-0.299233 c 0.029147,-0.202755 0.037454,-0.387933 0.083464,-0.601294 0.045709,-0.210784 0.091249,-0.4202663 0.1362929,-0.6282016 0.02459,-0.102434 0.041865,-0.2076785 0.072725,-0.3054357 L 1.4595059,8.0329021 C 1.523076,7.8415207 1.5859673,7.6516932 1.6485553,7.4634128 1.7245995,7.2800456 1.8076078,7.101594 1.8857137,6.9239217 2.0269201,6.562362 2.2296816,6.2370131 2.4083938,5.9119236 2.4927381,5.7463992 2.6041742,5.598469 2.7071057,5.4487277 2.8097838,5.2992433 2.911157,5.1513138 3.0117632,5.0049288 3.8693601,3.8695663 4.8785182,3.0406733 5.8406023,2.450492 6.8044974,1.8538408 7.7430434,1.529533 8.5181431,1.3249587 8.7136605,1.2781245 8.8988369,1.2336924 9.0731518,1.1917665 c 0.1750872,-0.03718 0.3426752,-0.05322 0.4968172,-0.07841 0.154401,-0.022559 0.297421,-0.043147 0.42828,-0.0624 0.13113,-0.0184 0.252158,-0.014494 0.359225,-0.02198 C 10.787622,1.010056 11.017024,1 11.017024,1 Z m 0,0 c 0,0 -0.229145,0.013129 -0.658726,0.03769 -0.107061,0.0098 -0.227845,0.00729 -0.358448,0.026949 -0.130603,0.02098 -0.272842,0.04344 -0.426735,0.06802 C 9.419541,1.1598631 9.252462,1.1779741 9.0786668,1.2176081 8.906425,1.2648859 8.7235775,1.3150758 8.5301252,1.3681305 7.7676994,1.6011511 6.8470005,1.9583191 5.9485314,2.6147066 5.0472267,3.2540219 4.1482478,4.1537736 3.4691002,5.3108654 3.1445266,5.8966477 2.8450389,6.5253599 2.6518456,7.2114983 2.6043132,7.3829607 2.5523131,7.553914 2.507533,7.7277086 2.476033,7.904867 2.444465,8.0833202 2.412411,8.2630596 L 2.363999,8.5317741 C 2.349019,8.6214561 2.349019,8.7102324 2.340789,8.7991879 2.327379,8.9758391 2.313681,9.153764 2.299918,9.33299 c -0.01549,0.176385 0.0037,0.390784 0.00339,0.586567 l 0.0064,0.301559 0.0037,0.151545 c -5.2e-4,0.03568 7.747e-4,-0.02723 0.0024,-0.01426 l 0.00291,0.01761 0.00519,0.03516 0.0099,0.07035 c 0.054061,0.375004 0.0778,0.754151 0.1831071,1.124508 0.146123,0.750527 0.45518,1.470017 0.8014773,2.161059 0.09623,0.168118 0.1929351,0.33699 0.2899195,0.506649 0.09802,0.167858 0.2242269,0.320177 0.3312955,0.482861 l 0.1665583,0.240781 0.1903455,0.224476 c 0.129829,0.147164 0.2482795,0.303371 0.3853527,0.444059 0.538711,0.574142 1.1682036,1.056737 1.8297683,1.483474 l 0.5175087,0.287324 c 0.1678455,0.104465 0.3605228,0.161121 0.5366453,0.248796 l 0.2689672,0.123113 c 0.09083,0.03831 0.1867277,0.06417 0.279575,0.09727 0.1880184,0.06 0.371643,0.133711 0.5619921,0.18518 0.1926757,0.04448 0.3856065,0.08584 0.5767325,0.135517 l 0.143278,0.03625 0.135262,0.01812 0.270002,0.03932 0.269479,0.04316 c 0.0401,0.01035 0.09622,0.01241 0.155702,0.01426 l 0.171991,0.0074 0.343968,0.01498 0.171986,0.0074 0.08584,0.004 0.04286,0.003 0.0215,0.0016 c -0.02198,-2.53e-4 0.07964,0.003 -0.04396,-5.18e-4 0.793978,-0.01163 1.580973,-0.118191 2.345461,-0.320431 0.190606,-0.05147 0.374228,-0.125433 0.562244,-0.185432 0.0929,-0.0331 0.188799,-0.05924 0.279577,-0.0975 l 0.269153,-0.122539 c 0.17767,-0.08482 0.369576,-0.143794 0.537677,-0.247762 l 0.517767,-0.287335 c 0.664674,-0.423882 1.291319,-0.910614 1.832885,-1.482691 0.137062,-0.140951 0.255508,-0.297161 0.385337,-0.444576 l 0.190351,-0.224747 0.166558,-0.241037 c 0.107845,-0.162412 0.234303,-0.314741 0.332339,-0.483108 0.09689,-0.169662 0.193698,-0.338798 0.289907,-0.507164 0.107348,-0.164741 0.164226,-0.350697 0.251383,-0.52423 0.0776,-0.177157 0.172242,-0.349399 0.225002,-0.53458 0.06294,-0.183107 0.125178,-0.365433 0.187244,-0.546988 0.06047,-0.181815 0.08792,-0.357162 0.135269,-0.536389 0.103704,-0.334401 0.132925,-0.774061 0.186209,-1.170015 l 0.01045,-0.07555 0.0046,-0.03772 0.0027,-0.01891 c 0.0016,-0.01346 -0.0012,0.04965 0,0.01449 l 0.0033,-0.140949 0.0069,-0.281386 c 0,-0.186983 0.0202,-0.37578 0.0046,-0.560179 C 19.687408,7.8752479 19.251406,6.4680726 18.574841,5.3115054 17.895163,4.1543489 16.99515,3.2548527 16.09333,2.6163076 15.194603,1.9601781 14.273384,1.6035342 13.511212,1.3705158 c -0.193442,-0.053 -0.376288,-0.1031683 -0.548545,-0.1502635 -0.174052,-0.039523 -0.340863,-0.057612 -0.494232,-0.084568 -0.153871,-0.02459 -0.296383,-0.047286 -0.426715,-0.06802 -0.130605,-0.02022 -0.251656,-0.01779 -0.358719,-0.026944 -0.429833,-0.0246 -0.65898,-0.0377 -0.65898,-0.0377 z"
       id="path2-3-5-7"
       style="fill:url(#linearGradient14);fill-opacity:1;stroke-width:0.258629" />
    <path
       d="m 10.486228,3.1679556 c -0.01291,0.01 -0.02265,0.3890219 -0.02265,0.842813 v 0.8201716 h 0.162131 0.162143 l 0.0065,-0.5283581 0.01045,-0.525134 0.353361,0.525134 0.353356,0.5283581 h 0.158928 0.155549 V 3.9881164 3.1452976 H 11.663747 11.501602 V 3.6866578 4.2312369 L 11.138631,3.6866578 10.778854,3.1452976 H 10.64269 c -0.07455,0 -0.145894,0.0099 -0.155702,0.022711 z"
       id="path6-5"
       style="fill:url(#linearGradient8);fill-opacity:1;stroke-width:0.00169069" />
    <path
       d="m 6.0389817,4.8275562 c -0.01,0.0194 -0.01,0.055 0.0037,0.07461 0.077682,0.132887 3.7894063,5.8185888 3.8184863,5.8510408 0.02926,0.03251 0.09075,-0.0092 0.275588,-0.197813 l 0.239905,-0.242955 -0.0682,-0.162149 c -0.233322,-0.538136 0.152335,-1.134457 0.732581,-1.137666 0.10702,0 0.236706,0.02578 0.333925,0.07129 l 0.162123,0.06822 0.243129,-0.2399169 c 0.187982,-0.1847986 0.230071,-0.2463347 0.197618,-0.2755868 -0.0519,-0.051889 -5.812157,-3.802244 -5.8704972,-3.825063 -0.02578,-0.01 -0.05501,-0.0037 -0.068,0.016118 z"
       id="path8-3"
       style="fill:url(#linearGradient18);fill-opacity:1;stroke-width:0.00169069" />
    <path
       d="M 10.534928,5.8714015 C 10.142667,5.9201165 9.565634,6.0982891 9.241525,6.2668603 l -0.08424,0.045472 0.155541,0.1070214 0.15555,0.1070101 0.197812,-0.07461 c 0.424701,-0.1621338 0.768258,-0.2301 1.205812,-0.249541 0.521931,-0.022719 0.85246,0.022719 1.309629,0.171776 0.5997,0.2010268 1.063302,0.4926684 1.494416,0.9432484 0.664445,0.6969068 1.004798,1.5495413 1.001582,2.5186478 -0.0033,0.447366 -0.06152,0.777908 -0.213867,1.222061 l -0.119885,0.343542 0.107062,0.158762 0.11023,0.155547 0.09075,-0.201022 c 0.4959,-1.102172 0.499108,-2.291762 0.0105,-3.367899 C 14.292474,7.3397345 13.530809,6.577896 12.720449,6.2084751 12.049233,5.9038016 11.245309,5.7773393 10.535377,5.8713456 Z"
       id="path10-5"
       style="fill:url(#linearGradient16);fill-opacity:1;stroke-width:0.00169069" />
    <path
       d="M 7.4067678,8.2118585 C 7.2608532,8.5521951 7.137773,8.9995602 7.0922861,9.369155 c -0.1102325,0.917382 0.116668,1.867054 0.6385861,2.654764 0.5964905,0.894708 1.5461598,1.517075 2.6353208,1.724514 0.272202,0.0519 1.089158,0.0519 1.361365,0 0.278794,-0.0519 0.781272,-0.210653 1.021017,-0.32089 l 0.19122,-0.09075 -0.155554,-0.110246 -0.158761,-0.106989 -0.343538,0.119873 c -0.444155,0.152336 -0.774691,0.210647 -1.222063,0.214036 -1.776423,0.0034 -3.2674575,-1.238278 -3.5947901,-2.998476 -0.042112,-0.223699 -0.051884,-0.398688 -0.038948,-0.761844 0.016328,-0.499274 0.0746,-0.7877109 0.2399135,-1.2090284 0.094,-0.2367039 0.087568,-0.2625694 -0.068221,-0.4603877 l -0.07129,-0.090828 z"
       id="path12-6"
       style="fill:url(#linearGradient15);fill-opacity:1;stroke-width:0.00169069" />
    <path
       d="m 11.957999,9.090179 -0.239919,0.243134 0.0682,0.162135 c 0.142704,0.330707 0.05509,0.716358 -0.217083,0.949827 -0.233481,0.197663 -0.602903,0.243143 -0.888136,0.107052 l -0.126456,-0.05833 -0.239914,0.239899 c -0.188014,0.184792 -0.230103,0.24634 -0.197824,0.275583 0.09726,0.09076 5.841263,3.815276 5.886735,3.818658 0.02902,0 0.04865,-0.01944 0.04865,-0.04865 -0.0033,-0.04549 -3.727853,-5.7927214 -3.818476,-5.8867204 -0.02945,-0.032717 -0.09092,0.010101 -0.275759,0.1974724 z"
       id="path14-2"
       style="fill:url(#linearGradient17);fill-opacity:1;stroke-width:0.00169069" />
    <path
       d="m 16.492829,9.758012 v 0.842818 h 0.632162 0.632158 V 10.438686 10.276559 H 17.287133 16.817118 V 10.08213 9.887684 h 0.421316 0.421326 V 9.725558 9.563416 H 17.238434 16.817118 V 9.385045 9.206843 h 0.45377 0.453785 V 9.060932 8.9150272 h -0.615914 -0.61593 z"
       id="path16-9"
       style="fill:url(#linearGradient20);fill-opacity:1;stroke-width:0.00169069" />
    <path
       d="m 4.3371062,8.9670971 c 0,0.038949 0.4213276,1.6078729 0.4409348,1.6369479 0.0099,0.01629 0.08097,0.02926 0.1587645,0.02926 h 0.1426901 l 0.048711,-0.171782 c 0.02578,-0.09077 0.09719,-0.346931 0.1555362,-0.564028 0.05838,-0.220457 0.1134521,-0.398664 0.1232603,-0.398664 0.016319,0 0.1070113,0.320903 0.298246,1.030828 0.02919,0.103812 0.03563,0.107021 0.1781971,0.09726 L 6.0357789,10.6164 6.2400194,9.870792 C 6.5220284,8.8302552 6.5122213,8.9470912 6.3176924,8.9470912 6.1296875,8.9470912 6.1717911,8.8693862 5.993583,9.572643 5.941701,9.783355 5.8931207,9.961729 5.8865626,9.971367 5.8766626,9.977967 5.8088796,9.750892 5.7310243,9.465669 L 5.591711,8.9437303 l -0.1815912,0.01 -0.1783614,0.01 L 5.0826351,9.498668 C 4.9982361,9.790448 4.9238799,10.007712 4.9172799,9.985049 4.9073799,9.959259 4.8490589,9.712671 4.7876068,9.443687 L 4.6773618,8.9478221 H 4.5087994 c -0.094,0 -0.1717742,0.0099 -0.1717742,0.01939 z"
       id="path18-1"
       style="fill:url(#linearGradient21);fill-opacity:1;stroke-width:0.00169069" />
  </g>
  <metadata
     id="metadata18">
    <rdf:RDF>
      <cc:Work
         rdf:about="">
        <dc:format>image/svg+xml</dc:format>
        <dc:type
           rdf:resource="http://purl.org/dc/dcmitype/StillImage" />
      </cc:Work>
    </rdf:RDF>
  </metadata>
  <defs
     id="defs16">
    <linearGradient
       id="linearGradient10"
       inkscape:collect="always">
      <stop
         style="stop-color:#bc5fd3;stop-opacity:1;"
         offset="0"
         id="stop9" />
      <stop
         style="stop-color:#00ccff;stop-opacity:1;"
         offset="1"
         id="stop10" />
    </linearGradient>
    <linearGradient
       id="linearGradient5"
       inkscape:collect="always">
      <stop
         style="stop-color:#6d55aa;stop-opacity:1;"
         offset="0"
         id="stop3" />
      <stop
         style="stop-color:#2a7fff;stop-opacity:1;"
         offset="1"
         id="stop4" />
    </linearGradient>
    <linearGradient
       inkscape:collect="always"
       xlink:href="#linearGradient5"
       id="linearGradient9"
       gradientUnits="userSpaceOnUse"
       x1="0"
       y1="11"
       x2="22"
       y2="11" />
    <linearGradient
       inkscape:collect="always"
       xlink:href="#linearGradient10"
       id="linearGradient14"
       gradientUnits="userSpaceOnUse"
       x1="0"
       y1="11"
       x2="22"
       y2="11" />
    <linearGradient
       inkscape:collect="always"
       xlink:href="#linearGradient10"
       id="linearGradient15"
       gradientUnits="userSpaceOnUse"
       x1="0"
       y1="11"
       x2="22"
       y2="11" />
    <linearGradient
       inkscape:collect="always"
       xlink:href="#linearGradient10"
       id="linearGradient16"
       gradientUnits="userSpaceOnUse"
       x1="0"
       y1="11"
       x2="22"
       y2="11" />
    <linearGradient
       inkscape:collect="always"
       xlink:href="#linearGradient10"
       id="linearGradient17"
       gradientUnits="userSpaceOnUse"
       x1="0"
       y1="11"
       x2="22"
       y2="11" />
    <linearGradient
       inkscape:collect="always"
       xlink:href="#linearGradient10"
       id="linearGradient18"
       gradientUnits="userSpaceOnUse"
       x1="0"
       y1="11"
       x2="22"
       y2="11" />
    <linearGradient
       inkscape:collect="always"
       xlink:href="#linearGradient5"
       id="linearGradient1"
       gradientUnits="userSpaceOnUse"
       x1="0"
       y1="11"
       x2="22"
       y2="11" />
    <linearGradient
       inkscape:collect="always"
       xlink:href="#linearGradient5"
       id="linearGradient4"
       gradientUnits="userSpaceOnUse"
       x1="0"
       y1="11"
       x2="22"
       y2="11" />
    <linearGradient
       inkscape:collect="always"
       xlink:href="#linearGradient5"
       id="linearGradient7"
       gradientUnits="userSpaceOnUse"
       x1="0"
       y1="11"
       x2="22"
       y2="11" />
    <linearGradient
       inkscape:collect="always"
       xlink:href="#linearGradient5"
       id="linearGradient8"
       gradientUnits="userSpaceOnUse"
       x1="0"
       y1="11"
       x2="22"
       y2="11" />
    <linearGradient
       inkscape:collect="always"
       xlink:href="#linearGradient5"
       id="linearGradient20"
       gradientUnits="userSpaceOnUse"
       x1="0"
       y1="11"
       x2="22"
       y2="11" />
    <linearGradient
       inkscape:collect="always"
       xlink:href="#linearGradient5"
       id="linearGradient21"
       gradientUnits="userSpaceOnUse"
       x1="0"
       y1="11"
       x2="22"
       y2="11" />
  </defs>
  <sodipodi:namedview
     pagecolor="#201933"
     bordercolor="#000000"
     borderopacity="1"
     objecttolerance="10"
     gridtolerance="10"
     guidetolerance="10"
     inkscape:pageopacity="0"
     inkscape:pageshadow="2"
     inkscape:window-width="1920"
     inkscape:window-height="994"
     id="namedview14"
     showgrid="true"
     inkscape:zoom="8.0000001"
     inkscape:cx="-8.3749999"
     inkscape:cy="5.3749999"
     inkscape:window-x="0"
     inkscape:window-y="0"
     inkscape:window-maximized="1"
     inkscape:current-layer="svg12"
     inkscape:document-rotation="0"
     inkscape:lockguides="true"
     inkscape:pagecheckerboard="true"
     inkscape:showpageshadow="true"
     inkscape:deskcolor="#201933">
    <inkscape:grid
       type="xygrid"
       id="grid880"
       originx="0"
       originy="3e-07"
       spacingy="1"
       spacingx="1"
       units="px"
       visible="true" />
  </sodipodi:namedview>
</svg>
