<?xml version="1.0" encoding="UTF-8" standalone="no"?>
<svg
   viewBox="0 0 32 32"
   version="1.1"
   id="svg1"
   sodipodi:docname="system-shutdown.svg"
   width="32"
   height="32"
   inkscape:version="1.3.2 (091e20ef0f, 2023-11-25)"
   xmlns:inkscape="http://www.inkscape.org/namespaces/inkscape"
   xmlns:sodipodi="http://sodipodi.sourceforge.net/DTD/sodipodi-0.dtd"
   xmlns:xlink="http://www.w3.org/1999/xlink"
   xmlns="http://www.w3.org/2000/svg"
   xmlns:svg="http://www.w3.org/2000/svg">
  <sodipodi:namedview
     id="namedview1"
     pagecolor="#ffffff"
     bordercolor="#999999"
     borderopacity="1"
     inkscape:showpageshadow="2"
     inkscape:pageopacity="0"
     inkscape:pagecheckerboard="0"
     inkscape:deskcolor="#d1d1d1"
     inkscape:zoom="8.4189901"
     inkscape:cx="7.9581991"
     inkscape:cy="39.909775"
     inkscape:window-width="1920"
     inkscape:window-height="994"
     inkscape:window-x="0"
     inkscape:window-y="0"
     inkscape:window-maximized="1"
     inkscape:current-layer="svg1" />
  <defs
     id="defs3051">
    <style
       type="text/css"
       id="current-color-scheme">.ColorScheme-Text { color: #fcfcfc; } </style>
    <linearGradient
       inkscape:collect="always"
       xlink:href="#linearGradient3"
       id="linearGradient2"
       x1="-138.98537"
       y1="15.351603"
       x2="-112.9616"
       y2="16"
       gradientUnits="userSpaceOnUse" />
    <linearGradient
       id="linearGradient3"
       inkscape:collect="always">
      <stop
         style="stop-color:#bc5fd3;stop-opacity:1"
         offset="0"
         id="stop7" />
      <stop
         style="stop-color:#00ccff;stop-opacity:1"
         offset="1"
         id="stop8" />
    </linearGradient>
    <linearGradient
       inkscape:collect="always"
       xlink:href="#linearGradient3"
       id="linearGradient4"
       x1="-127.80077"
       y1="9.6863499"
       x2="-124.15397"
       y2="9.6863499"
       gradientUnits="userSpaceOnUse" />
  </defs>
  <g
     id="system-shutdown"
     transform="translate(142)">
    <path
       style="color:#000000;overflow:visible;opacity:0;fill:none;fill-opacity:1;stroke-width:1.06667"
       id="path945"
       overflow="visible"
       d="m -126,0 c -8.82859,0 -16,7.17141 -16,16 0,8.828587 7.17141,16 16,16 8.82859,0 16,-7.171413 16,-16 0,-8.82859 -7.17141,-16 -16,-16 z"
       inkscape:connector-curvature="0" />
    <path
       d="m -125.97744,3.0000032 c 0,0 0.29823,0.013113 0.85702,0.03732 0.13953,0.00975 0.29654,0.00471 0.46667,0.028578 0.17012,0.02488 0.35605,0.051778 0.55711,0.081028 0.20039,0.032613 0.41859,0.053459 0.64621,0.1018738 0.22661,0.054467 0.46734,0.1122965 0.72152,0.173488 1.00764,0.2656115 2.22744,0.6882363 3.48018,1.463889 1.25006,0.7679197 2.56097,1.8458315 3.67486,3.3218243 1.09875,1.4763291 2.00049,3.3443507 2.40664,5.4921047 0.0598,0.266621 0.073,0.540974 0.11129,0.815663 l 0.0484,0.415228 0.0239,0.209127 0.005,0.241068 c 0.003,0.534921 0.0498,1.033531 -0.0259,1.658558 -0.0303,0.29688 -0.0417,0.611243 -0.0931,0.903079 -0.0548,0.291164 -0.10994,0.583673 -0.16508,0.877863 -0.0444,0.298897 -0.14592,0.582664 -0.22762,0.875845 l -0.13146,0.438764 c -0.0404,0.148271 -0.0925,0.292508 -0.15433,0.433047 -0.42128,1.160621 -1.05975,2.25837 -1.81691,3.295263 -0.20173,0.249137 -0.4075,0.497602 -0.6173,0.744721 -0.20139,0.255525 -0.45187,0.464652 -0.67848,0.699668 l -0.35068,0.343614 c -0.11902,0.112632 -0.25115,0.210135 -0.3769,0.316044 -0.2562,0.206101 -0.51038,0.418254 -0.78002,0.609897 -1.08228,0.767584 -2.29771,1.36336 -3.57903,1.791701 -1.28872,0.419599 -2.64771,0.589725 -4.00166,0.630743 l -0.30864,-0.01345 -0.22325,-0.01278 -0.44684,-0.02555 -0.22324,-0.01278 c -0.072,-0.003 -0.14794,-0.0077 -0.24242,-0.02387 l -0.53391,-0.07901 -0.5329,-0.08372 -0.26561,-0.04371 -0.24679,-0.06287 c -0.32848,-0.08338 -0.6536,-0.177859 -0.97873,-0.268301 -1.28098,-0.430358 -2.4991,-1.021427 -3.58138,-1.790356 -0.27032,-0.190635 -0.52282,-0.405814 -0.7817,-0.608216 -0.12575,-0.105909 -0.25822,-0.203748 -0.37724,-0.316381 l -0.35101,-0.34395 c -0.22695,-0.235352 -0.47743,-0.444479 -0.67882,-0.70034 -0.20678,-0.2488 -0.41321,-0.496929 -0.61898,-0.744048 -0.75649,-1.038574 -1.39765,-2.135651 -1.8186,-3.297617 -0.41657,-1.157931 -0.70101,-2.337717 -0.76859,-3.503718 -0.0733,-0.578293 -0.0336,-1.155578 -0.0296,-1.717732 l 0.007,-0.251827 0.0239,-0.195342 0.0477,-0.389003 c 0.038,-0.263594 0.0488,-0.504326 0.1086,-0.781705 0.0595,-0.274017 0.11868,-0.546352 0.17718,-0.816671 0.0319,-0.133142 0.0545,-0.269982 0.0945,-0.397072 l 0.12407,-0.377236 c 0.0827,-0.2488 0.16441,-0.495584 0.24577,-0.74035 0.0988,-0.238378 0.20677,-0.470367 0.30831,-0.701349 0.18358,-0.470031 0.44717,-0.8929918 0.6795,-1.3156166 0.1096,-0.2151789 0.25451,-0.407495 0.38833,-0.6021647 0.13347,-0.1943335 0.26527,-0.3866496 0.39606,-0.5769484 1.1149,-1.4759928 2.42681,-2.5535685 3.67754,-3.3208157 1.25308,-0.7756528 2.47321,-1.1972689 3.48086,-1.4632166 0.25418,-0.060855 0.49491,-0.1186846 0.72152,-0.1731518 0.22762,-0.048415 0.44549,-0.069261 0.64587,-0.1018737 0.20072,-0.029251 0.38665,-0.056148 0.55678,-0.081028 0.17046,-0.023871 0.32781,-0.018828 0.467,-0.028578 0.55947,-0.024544 0.85769,-0.037656 0.85769,-0.037656 z m 0,0 c 0,0 -0.29789,0.017147 -0.85634,0.049088 -0.1392,0.011768 -0.29621,0.00874 -0.466,0.034967 -0.16979,0.027233 -0.35471,0.056484 -0.55476,0.088425 -0.19937,0.035303 -0.41657,0.058838 -0.64251,0.1102792 -0.22392,0.061528 -0.46162,0.1267538 -0.71311,0.1956783 -0.99117,0.3029316 -2.1881,0.7672473 -3.35612,1.6205662 -1.17172,0.8311285 -2.34041,2.0008276 -3.22332,3.5050626 -0.42195,0.7615316 -0.81129,1.5788755 -1.06244,2.4708595 -0.0619,0.222912 -0.12944,0.445151 -0.18761,0.671089 -0.041,0.230309 -0.082,0.462298 -0.12373,0.695969 l -0.0629,0.34933 c -0.0195,0.116667 -0.0195,0.23199 -0.0303,0.347648 -0.0175,0.229636 -0.0353,0.460954 -0.0531,0.693952 -0.0202,0.2293 0.004,0.508024 0.003,0.76254 l 0.008,0.39203 0.004,0.197023 c -6.7e-4,0.0464 0.001,-0.0353 0.002,-0.01849 l 0.003,0.02286 0.006,0.04573 0.0121,0.09145 c 0.0703,0.487515 0.1012,0.980409 0.23804,1.461872 0.18996,0.975702 0.59174,1.911057 1.04194,2.809429 0.12507,0.218541 0.25081,0.438091 0.3769,0.65865 0.12742,0.218204 0.2915,0.416236 0.43069,0.627717 l 0.21652,0.313018 0.24746,0.291836 c 0.16878,0.191308 0.32277,0.394383 0.50096,0.577285 0.70034,0.746402 1.5187,1.373783 2.37874,1.928541 l 0.67277,0.373537 c 0.2182,0.135832 0.46869,0.209463 0.69765,0.323441 l 0.34966,0.160039 c 0.11802,0.04976 0.24275,0.08338 0.36346,0.126418 0.24443,0.078 0.48314,0.173824 0.7306,0.240731 0.25048,0.05783 0.50129,0.111624 0.74976,0.176178 l 0.18626,0.04707 0.17584,0.02353 0.35102,0.0511 0.35033,0.05615 c 0.0521,0.01244 0.12508,0.01614 0.20241,0.01849 l 0.22358,0.0098 0.44717,0.0195 0.22358,0.0098 0.11163,0.005 0.0558,0.0034 0.0279,0.0017 c -0.0286,-3.36e-4 0.10355,0.0034 -0.0572,-6.72e-4 1.03219,-0.01513 2.05529,-0.153651 3.04915,-0.416573 0.24779,-0.06691 0.48651,-0.163065 0.73094,-0.241068 0.1207,-0.04304 0.24544,-0.07699 0.36345,-0.126754 l 0.35,-0.159366 c 0.23098,-0.11028 0.48045,-0.186937 0.69899,-0.322096 l 0.67311,-0.373874 c 0.86408,-0.551059 1.67873,-1.18382 2.38277,-1.927532 0.1782,-0.183238 0.33218,-0.386313 0.50096,-0.577957 l 0.24746,-0.292173 0.21652,-0.313354 c 0.14021,-0.211144 0.30462,-0.409176 0.43204,-0.628053 0.12608,-0.220559 0.25183,-0.440445 0.3769,-0.659322 0.13953,-0.21417 0.2135,-0.45591 0.32681,-0.681512 0.10086,-0.230309 0.22392,-0.454229 0.2925,-0.694961 0.0817,-0.238041 0.16273,-0.475074 0.24343,-0.711099 0.0787,-0.23636 0.11431,-0.464315 0.17584,-0.697314 0.13482,-0.434728 0.17281,-1.006297 0.24207,-1.521046 l 0.0121,-0.09817 0.006,-0.04909 0.003,-0.02454 c 0.002,-0.01748 -10e-4,0.06455 0,0.01883 l 0.004,-0.183239 0.009,-0.365804 c 0,-0.243085 0.0262,-0.488523 0.006,-0.728246 -0.081,-1.931231 -0.64789,-3.760588 -1.52743,-5.2641504 -0.88358,-1.5042351 -2.05362,-2.6735979 -3.22601,-3.5037178 -1.16835,-0.8529826 -2.36596,-1.3166259 -3.35679,-1.6195575 -0.25149,-0.068925 -0.48919,-0.1341506 -0.71311,-0.1953421 -0.22628,-0.051441 -0.44314,-0.074976 -0.64252,-0.109943 -0.20004,-0.031941 -0.3853,-0.061528 -0.55475,-0.088425 -0.16979,-0.026225 -0.32714,-0.023199 -0.46634,-0.034967 -0.55879,-0.031941 -0.85668,-0.049088 -0.85668,-0.049088 z"
       id="path2-675"
       style="fill:url(#linearGradient2);fill-opacity:1;stroke-width:0.336217" />
    <path
       d="m -125.9774,3 c -1.00529,0 -1.82337,0.81764 -1.82337,1.82318 0,0.0491 0.005,0.0957 0.012,0.15435 v 10.77518 c 0,0.34246 0.27709,0.61999 0.61979,0.61999 h 2.38361 c 0.34247,0 0.6196,-0.27753 0.6196,-0.61999 V 4.97689 c 0.007,-0.0505 0.0118,-0.1011 0.0118,-0.15392 0,-1.00533 -0.81808,-1.82297 -1.82338,-1.82297 z m 0.58343,1.81127 c -2.1e-4,0 -2.1e-4,5.4e-4 -0.003,0.003 -0.005,0.0225 -0.005,0.0448 -0.008,0.0678 -0.005,0.019 -0.005,0.0386 -0.005,0.058 v 10.19244 h -1.14429 V 4.93982 c 0,-0.0206 -0.003,-0.0407 -0.005,-0.0606 -0.005,-0.0188 -0.005,-0.0388 -0.008,-0.0704 0.008,-0.31541 0.26649,-0.56934 0.58341,-0.56934 0.31822,0 0.57755,0.25632 0.58383,0.57302 2.3e-4,-3.3e-4 2.3e-4,-5.4e-4 2.3e-4,-5.4e-4 z"
       id="path8-35"
       style="fill:url(#linearGradient4);fill-opacity:1;stroke-width:0.216478" />
  </g>
</svg>
