<?xml version="1.0" encoding="UTF-8" standalone="no"?>
<svg
   viewBox="0 0 32 32"
   version="1.1"
   id="svg1"
   sodipodi:docname="system-reboot.svg"
   inkscape:version="1.3.2 (091e20ef0f, 2023-11-25)"
   width="32"
   height="32"
   xmlns:inkscape="http://www.inkscape.org/namespaces/inkscape"
   xmlns:sodipodi="http://sodipodi.sourceforge.net/DTD/sodipodi-0.dtd"
   xmlns:xlink="http://www.w3.org/1999/xlink"
   xmlns="http://www.w3.org/2000/svg"
   xmlns:svg="http://www.w3.org/2000/svg">
  <sodipodi:namedview
     id="namedview1"
     pagecolor="#ffffff"
     bordercolor="#000000"
     borderopacity="0.25"
     inkscape:showpageshadow="2"
     inkscape:pageopacity="0.0"
     inkscape:pagecheckerboard="0"
     inkscape:deskcolor="#d1d1d1"
     inkscape:zoom="12.326157"
     inkscape:cx="13.954065"
     inkscape:cy="31.315519"
     inkscape:window-width="1920"
     inkscape:window-height="994"
     inkscape:window-x="0"
     inkscape:window-y="0"
     inkscape:window-maximized="1"
     inkscape:current-layer="svg1"
     showgrid="true">
    <inkscape:grid
       id="grid1"
       units="px"
       originx="7.377552"
       originy="39.135309"
       spacingx="1"
       spacingy="1"
       empcolor="#0099e5"
       empopacity="0.30196078"
       color="#0099e5"
       opacity="0.14902"
       empspacing="5"
       dotted="false"
       gridanglex="30"
       gridanglez="30"
       visible="true" />
  </sodipodi:namedview>
  <defs
     id="defs1">
    <style
       type="text/css"
       id="style1">.ColorScheme-Text {
        color:#d8dee9;
      }
      .ColorScheme-Highlight {
        color:#88c0d0;
      }</style>
    <linearGradient
       inkscape:collect="always"
       xlink:href="#linearGradient3"
       id="linearGradient13"
       x1="2.9996879"
       y1="16"
       x2="29.037756"
       y2="16"
       gradientUnits="userSpaceOnUse"
       gradientTransform="rotate(180,16.018721,16.000002)" />
    <linearGradient
       id="linearGradient3"
       inkscape:collect="always">
      <stop
         style="stop-color:#bc5fd3;stop-opacity:1"
         offset="0"
         id="stop7" />
      <stop
         style="stop-color:#00ccff;stop-opacity:1"
         offset="1"
         id="stop8" />
    </linearGradient>
    <linearGradient
       inkscape:collect="always"
       xlink:href="#linearGradient3"
       id="linearGradient15"
       x1="7.1400747"
       y1="14.800005"
       x2="24.897369"
       y2="14.800005"
       gradientUnits="userSpaceOnUse" />
  </defs>
  <g
     id="system-reboot">
    <path
       d="m 16.021922,3.0000031 c 0,0 0.29822,0.01311 0.85701,0.03732 0.13953,0.0098 0.29655,0.0047 0.46667,0.02858 0.17013,0.02488 0.35606,0.05178 0.55711,0.08103 0.20039,0.03261 0.41859,0.05346 0.64621,0.101874 0.22661,0.05447 0.46734,0.112296 0.72152,0.173488 1.00765,0.265611 2.22744,0.688236 3.48019,1.463889 1.25005,0.767919 2.56096,1.845831 3.67485,3.321824 1.09876,1.476329 2.00049,3.3443519 2.40664,5.4921059 0.0599,0.26662 0.073,0.540974 0.11129,0.815663 l 0.0484,0.415228 0.0239,0.209127 0.005,0.241068 c 0.003,0.534921 0.0498,1.033531 -0.0259,1.658558 -0.0303,0.29688 -0.0417,0.611243 -0.0931,0.903079 -0.0548,0.291164 -0.10994,0.583673 -0.16508,0.877863 -0.0444,0.298897 -0.14592,0.582664 -0.22762,0.875845 l -0.13146,0.438764 c -0.0403,0.148271 -0.0925,0.292508 -0.15432,0.433047 -0.42128,1.160621 -1.05976,2.25837 -1.81692,3.295263 -0.20173,0.249137 -0.4075,0.497601 -0.6173,0.744721 -0.20139,0.255525 -0.45187,0.464652 -0.67848,0.699667 l -0.35068,0.343614 c -0.11902,0.112633 -0.25115,0.210136 -0.3769,0.316044 -0.25619,0.206101 -0.51037,0.418254 -0.78002,0.609898 -1.08228,0.767583 -2.29771,1.36336 -3.57903,1.7917 -1.28872,0.419599 -2.64771,0.589725 -4.00165,0.630744 l -0.30865,-0.01345 -0.22325,-0.01278 -0.44683,-0.02555 -0.22325,-0.01278 c -0.0719,-0.003 -0.14794,-0.0077 -0.24241,-0.02387 l -0.53392,-0.07901 -0.5329,-0.08372 -0.26561,-0.04371 -0.24678,-0.06287 c -0.32849,-0.08338 -0.65361,-0.177859 -0.97873,-0.268302 -1.28099,-0.430357 -2.4990999,-1.021427 -3.5813899,-1.790355 -0.27031,-0.190635 -0.52281,-0.405814 -0.7817,-0.608217 -0.12575,-0.105908 -0.25822,-0.203747 -0.37724,-0.31638 l -0.35101,-0.34395 c -0.22694,-0.235352 -0.47743,-0.444479 -0.67882,-0.70034 -0.20677,-0.248801 -0.41321,-0.496929 -0.61897,-0.744049 -0.75649,-1.038574 -1.39766,-2.13565 -1.8186,-3.297616 -0.41658,-1.157931 -0.70102,-2.337717 -0.7686,-3.503718 -0.0733,-0.578293 -0.0336,-1.155578 -0.0296,-1.717733 l 0.007,-0.251826 0.0239,-0.195342 0.0477,-0.389003 c 0.038,-0.263594 0.0487,-0.504326 0.1086,-0.781705 0.0595,-0.274017 0.11869,-0.546353 0.17719,-0.816671 0.0319,-0.133142 0.0545,-0.269982 0.0945,-0.397072 l 0.12407,-0.377236 c 0.0827,-0.248801 0.16441,-0.495584 0.24577,-0.74035 0.0988,-0.238378 0.20678,-0.470368 0.30831,-0.701349 0.18358,-0.470031 0.44717,-0.8929929 0.6795,-1.3156179 0.10961,-0.215179 0.25451,-0.407495 0.38833,-0.602165 0.13348,-0.194333 0.26527,-0.386649 0.39606,-0.576948 1.1149,-1.475993 2.42682,-2.553568 3.67754,-3.320816 1.2530899,-0.775652 2.4732199,-1.197269 3.4808599,-1.463216 0.25418,-0.06086 0.49491,-0.118685 0.72152,-0.173152 0.22762,-0.04842 0.44549,-0.06926 0.64587,-0.101874 0.20073,-0.02925 0.38665,-0.05615 0.55678,-0.08103 0.17046,-0.02387 0.32781,-0.01883 0.46701,-0.02858 0.55946,-0.02454 0.85769,-0.03766 0.85769,-0.03766 z m 0,0 c 0,0 -0.29789,0.01715 -0.85635,0.04909 -0.13919,0.01177 -0.29621,0.0087 -0.466,0.03497 -0.16979,0.02723 -0.35471,0.05649 -0.55475,0.08843 -0.19938,0.0353 -0.41658,0.05884 -0.64252,0.11028 -0.22392,0.06153 -0.46162,0.126753 -0.71311,0.195678 -0.99117,0.302931 -2.1881,0.767247 -3.3561199,1.620566 -1.17172,0.831129 -2.34041,2.000828 -3.22331,3.505063 -0.42196,0.761531 -0.81129,1.5788759 -1.06245,2.4708599 -0.0619,0.222912 -0.12944,0.445151 -0.18761,0.671089 -0.041,0.230309 -0.082,0.462298 -0.12373,0.695969 l -0.0629,0.34933 c -0.0195,0.116667 -0.0195,0.231989 -0.0303,0.347648 -0.0175,0.229636 -0.0353,0.460954 -0.0531,0.693952 -0.0202,0.2293 0.004,0.508024 0.003,0.76254 l 0.008,0.392029 0.004,0.197024 c -6.8e-4,0.0464 0.001,-0.0353 0.002,-0.01849 l 0.003,0.02286 0.006,0.04573 0.0121,0.09145 c 0.0703,0.487515 0.1012,0.980409 0.23804,1.461872 0.18997,0.975702 0.59174,1.911057 1.04194,2.809429 0.12507,0.218541 0.25082,0.438091 0.3769,0.658649 0.12742,0.218205 0.2915,0.416237 0.43069,0.627718 l 0.21653,0.313018 0.24745,0.291836 c 0.16878,0.191308 0.32277,0.394383 0.50097,0.577284 0.70034,0.746402 1.51869,1.373783 2.3787299,1.928541 l 0.67277,0.373537 c 0.21821,0.135832 0.46869,0.209464 0.69765,0.323441 l 0.34967,0.16004 c 0.11801,0.04976 0.24275,0.08338 0.36345,0.126417 0.24443,0.078 0.48314,0.173824 0.7306,0.240732 0.25048,0.05783 0.5013,0.111624 0.74976,0.176177 l 0.18627,0.04707 0.17584,0.02354 0.35101,0.0511 0.35034,0.05615 c 0.0521,0.01244 0.12507,0.01614 0.2024,0.01849 l 0.22358,0.0098 0.44717,0.0195 0.22359,0.0098 0.11162,0.005 0.0558,0.0034 0.0279,0.0017 c -0.0286,-3.36e-4 0.10355,0.0034 -0.0572,-6.72e-4 1.03219,-0.01513 2.0553,-0.153651 3.04915,-0.416573 0.2478,-0.06691 0.48651,-0.163065 0.73094,-0.241068 0.1207,-0.04304 0.24544,-0.07699 0.36345,-0.126753 l 0.35,-0.159367 c 0.23098,-0.110279 0.48046,-0.186937 0.699,-0.322096 l 0.6731,-0.373874 c 0.86408,-0.551178 1.67874,-1.183939 2.38277,-1.927651 0.1782,-0.183237 0.33219,-0.386312 0.50097,-0.577956 l 0.24745,-0.292173 0.21653,-0.313354 c 0.1402,-0.211144 0.30461,-0.409176 0.43204,-0.628054 0.12608,-0.220558 0.25182,-0.440444 0.3769,-0.659321 0.13953,-0.21417 0.21349,-0.45591 0.3268,-0.681512 0.10086,-0.230309 0.22392,-0.454229 0.29251,-0.694961 0.0817,-0.238041 0.16273,-0.475074 0.24342,-0.711099 0.0787,-0.23636 0.11431,-0.464315 0.17584,-0.697314 0.13482,-0.434729 0.17282,-1.006297 0.24208,-1.521046 l 0.0121,-0.09817 0.006,-0.04909 0.003,-0.02454 c 0.002,-0.01748 -0.001,0.06455 0,0.01883 l 0.004,-0.183238 0.009,-0.365804 c 0,-0.243085 0.0262,-0.488523 0.006,-0.728246 -0.081,-1.931231 -0.64789,-3.760588 -1.52743,-5.2641509 -0.88358,-1.504235 -2.05362,-2.673598 -3.226,-3.503718 -1.16836,-0.852983 -2.36596,-1.316626 -3.3568,-1.619558 -0.25149,-0.06892 -0.48919,-0.13415 -0.71311,-0.195342 -0.22628,-0.05144 -0.44314,-0.07498 -0.64251,-0.109943 -0.20005,-0.03194 -0.38531,-0.06153 -0.55476,-0.08843 -0.16979,-0.02622 -0.32714,-0.0232 -0.46633,-0.03497 -0.5588,-0.03194 -0.85668,-0.04909 -0.85668,-0.04909 z"
       style="fill:url(#linearGradient13);fill-opacity:1"
       id="path1" />
    <path
       style="color:#000000;overflow:visible;opacity:0;fill:none;fill-opacity:1;stroke-width:1.06667"
       id="path940"
       overflow="visible"
       d="M 16,0 C 7.17141,0 0,7.171413 0,16 0,24.828587 7.17141,32 16,32 24.82752,32 32,24.828587 32,16 32,7.17248 24.82859,0 16,0 Z"
       inkscape:connector-curvature="0" />
    <path
       d="M 12.596853,8.6922491 C 10.86992,9.6597301 9.7410571,11.2651 9.2774821,13.042575 l -1.647061,-0.0405 a 0.47739917,0.47739917 0 0 0 -0.355955,0.809271 l 3.0739259,3.208012 a 0.47739917,0.47739917 0 0 0 0.675242,0.01498 l 3.203672,-3.071502 a 0.47739917,0.47739917 0 0 0 -0.319279,-0.824252 l -1.644631,-0.03616 c 0.350261,-0.779113 0.928585,-1.460648 1.733308,-1.911479 1.697229,-0.95084 3.769149,-0.579383 5.038651,0.773618 a 0.47739917,0.47739917 0 0 0 0.580849,0.09066 l 1.696169,-0.950246 a 0.47739917,0.47739917 0 0 0 0.139921,-0.716739 C 19.345584,7.7895291 15.609947,7.0042149 12.596853,8.6922431 Z m 0.466617,0.832904 c 2.433604,-1.363379 5.376397,-0.841828 7.24003,1.0507149 l -0.858927,0.481196 c -1.577891,-1.4432719 -3.952234,-1.7983239 -5.914486,-0.699009 -1.231755,0.690067 -2.067957,1.818693 -2.417365,3.08125 a 0.47739917,0.47739917 0 0 0 0.44939,0.608874 l 1.169822,0.02287 -2.023461,1.942942 -1.9453719,-2.027795 0.849126,0.02015 a 0.47739917,0.47739917 0 0 0 0.4781989,-0.387591 c 0.333549,-1.674477 1.36554,-3.193028 2.973035,-4.0935979 z m 8.012443,2.9889999 a 0.47739917,0.47739917 0 0 0 -0.06211,0.05186 l -3.203675,3.071497 a 0.47739917,0.47739917 0 0 0 0.319278,0.824251 l 1.644631,0.03615 c -0.350261,0.779123 -0.928584,1.460656 -1.733307,1.911486 -1.697227,0.95084 -3.76915,0.57938 -5.038652,-0.773616 a 0.47739917,0.47739917 0 0 0 -0.580845,-0.09066 l -1.69617,0.950249 a 0.47739917,0.47739917 0 0 0 -0.139927,0.716739 c 1.745952,2.153695 4.606893,3.062202 7.254316,2.347909 a 0.47739917,0.47739917 0 1 0 -0.248148,-0.9211 c -2.098611,0.566222 -4.344112,-0.06231 -5.866049,-1.609575 l 0.867604,-0.486058 c 1.577893,1.44328 3.952233,1.798325 5.914484,0.699011 1.231751,-0.690065 2.067955,-1.81869 2.417364,-3.081247 a 0.47739917,0.47739917 0 0 0 -0.44937,-0.608881 l -1.169832,-0.02287 2.023467,-1.942947 1.945372,2.027805 -0.849129,-0.02016 a 0.47739917,0.47739917 0 0 0 -0.478202,0.387593 c -0.333545,1.67448 -1.365534,3.19303 -2.97303,4.093601 a 0.47739917,0.47739917 0 1 0 0.466617,0.8329 c 1.726932,-0.967482 2.855796,-2.572851 3.319372,-4.35032 l 1.647056,0.04049 a 0.47739917,0.47739917 0 0 0 0.355954,-0.809267 l -3.073926,-3.20801 a 0.47739917,0.47739917 0 0 0 -0.613124,-0.06688 z"
       id="path1-93"
       style="fill:url(#linearGradient15)" />
  </g>
</svg>
