<?xml version="1.0" encoding="UTF-8" standalone="no"?>
<svg
   viewBox="0 0 32 32"
   version="1.1"
   id="svg2"
   sodipodi:docname="system-suspend-hibernate.svg"
   width="32"
   height="32"
   inkscape:version="1.3.2 (091e20ef0f, 2023-11-25)"
   xmlns:inkscape="http://www.inkscape.org/namespaces/inkscape"
   xmlns:sodipodi="http://sodipodi.sourceforge.net/DTD/sodipodi-0.dtd"
   xmlns:xlink="http://www.w3.org/1999/xlink"
   xmlns="http://www.w3.org/2000/svg"
   xmlns:svg="http://www.w3.org/2000/svg">
  <defs
     id="defs2">
    <linearGradient
       inkscape:collect="always"
       xlink:href="#linearGradient3"
       id="linearGradient41"
       x1="-215.16254"
       y1="12.632849"
       x2="-213.3885"
       y2="12.632849"
       gradientUnits="userSpaceOnUse" />
    <linearGradient
       id="linearGradient3"
       inkscape:collect="always">
      <stop
         style="stop-color:#bc5fd3;stop-opacity:1"
         offset="0"
         id="stop7" />
      <stop
         style="stop-color:#00ccff;stop-opacity:1"
         offset="1"
         id="stop8" />
    </linearGradient>
    <linearGradient
       inkscape:collect="always"
       xlink:href="#linearGradient3"
       id="linearGradient43"
       x1="-215.16254"
       y1="13.984198"
       x2="-213.3885"
       y2="13.984198"
       gradientUnits="userSpaceOnUse" />
    <linearGradient
       inkscape:collect="always"
       xlink:href="#linearGradient3"
       id="linearGradient37"
       x1="-784.59998"
       y1="582.5"
       x2="-776.90002"
       y2="582.5"
       gradientUnits="userSpaceOnUse" />
    <linearGradient
       inkscape:collect="always"
       xlink:href="#linearGradient3"
       id="linearGradient33"
       x1="-232.99966"
       y1="16"
       x2="-206.96159"
       y2="16"
       gradientUnits="userSpaceOnUse" />
    <linearGradient
       inkscape:collect="always"
       xlink:href="#linearGradient3"
       id="linearGradient35"
       x1="-220.39989"
       y1="14.237976"
       x2="-214.99332"
       y2="14.237976"
       gradientUnits="userSpaceOnUse" />
    <linearGradient
       inkscape:collect="always"
       xlink:href="#linearGradient3"
       id="linearGradient39"
       x1="-215.16254"
       y1="11.366058"
       x2="-213.3885"
       y2="11.366058"
       gradientUnits="userSpaceOnUse" />
  </defs>
  <sodipodi:namedview
     id="namedview2"
     pagecolor="#ffffff"
     bordercolor="#999999"
     borderopacity="1"
     inkscape:showpageshadow="2"
     inkscape:pageopacity="0"
     inkscape:pagecheckerboard="0"
     inkscape:deskcolor="#d1d1d1"
     inkscape:zoom="8.4189901"
     inkscape:cx="16.272736"
     inkscape:cy="34.921053"
     inkscape:window-width="1920"
     inkscape:window-height="994"
     inkscape:window-x="0"
     inkscape:window-y="0"
     inkscape:window-maximized="1"
     inkscape:current-layer="svg2" />
  <style
     type="text/css"
     id="current-color-scheme">.ColorScheme-Text { color: #fcfcfc; } </style>
  <g
     id="system-suspend-hibernate"
     transform="translate(236)">
    <rect
       x="-215.16254"
       y="12.379416"
       width="1.7740316"
       height="0.50686574"
       id="rect12"
       style="fill:url(#linearGradient41);fill-opacity:1;stroke-width:0.844833" />
    <rect
       x="-215.16254"
       y="13.730765"
       width="1.7740316"
       height="0.50686574"
       id="rect14"
       style="fill:url(#linearGradient43);fill-opacity:1;stroke-width:0.844833" />
    <polygon
       points="-778.9,584 -776.9,586 -776.9,584.3 -778,583.1 -776.9,583.1 -776.9,581.9 -778,581.9 -776.9,580.7 -776.9,579 -778.9,581 -778.9,577.4 -780.1,577.4 -780.1,581 -782.7,578.4 -783.6,579.3 -781,581.9 -784.6,581.9 -784.6,583.1 -781,583.1 -783.6,585.7 -782.7,586.5 -780.1,584 -780.1,587.6 -778.9,587.6 "
       id="polygon16"
       transform="matrix(0.84477605,0,0,0.84477605,435.99117,-480.04082)"
       style="fill:url(#linearGradient37);fill-opacity:1" />
    <path
       id="path938"
       overflow="visible"
       d="m -220,0 c -8.82763,0 -16,7.17237 -16,16 0,8.82763 7.17237,16 16,16 8.82763,0 16,-7.17237 16,-16 0,-8.82763 -7.17237,-16 -16,-16 z"
       inkscape:connector-curvature="0"
       style="color:#000000;overflow:visible;opacity:0;fill:none;fill-opacity:1;stroke-width:1.06667" />
    <path
       d="m -219.97744,3 c 0,0 0.29823,0.013113 0.85702,0.03732 0.13953,0.00975 0.29654,0.00471 0.46667,0.028578 0.17012,0.02488 0.35605,0.051778 0.55711,0.081028 0.20039,0.032613 0.41859,0.053459 0.64621,0.1018738 0.22661,0.054467 0.46734,0.1122965 0.72152,0.173488 1.00764,0.2656115 2.22744,0.6882363 3.48018,1.463889 1.25006,0.7679197 2.56097,1.8458315 3.67486,3.3218244 1.09875,1.476329 2.00049,3.3443508 2.40664,5.4921048 0.0598,0.26662 0.073,0.540974 0.11129,0.815663 l 0.0484,0.415228 0.0239,0.209127 0.005,0.241068 c 0.003,0.534921 0.0498,1.033531 -0.0259,1.658558 -0.0303,0.29688 -0.0417,0.611243 -0.0931,0.903079 -0.0548,0.291164 -0.10994,0.583673 -0.16508,0.877863 -0.0444,0.298897 -0.14592,0.582664 -0.22762,0.875845 l -0.13146,0.438763 c -0.0403,0.148272 -0.0925,0.292509 -0.15433,0.433048 -0.42128,1.160621 -1.05975,2.25837 -1.81691,3.295263 -0.20173,0.249137 -0.4075,0.497601 -0.6173,0.744721 -0.20139,0.255525 -0.45187,0.464652 -0.67848,0.699668 l -0.35068,0.343613 c -0.11902,0.112633 -0.25115,0.210136 -0.3769,0.316044 -0.2562,0.206101 -0.51038,0.418254 -0.78002,0.609898 -1.08228,0.767584 -2.29771,1.36336 -3.57903,1.791701 -1.28872,0.419599 -2.64771,0.589724 -4.00166,0.630743 l -0.30864,-0.01345 -0.22325,-0.01278 -0.44684,-0.02555 -0.22324,-0.01278 c -0.072,-0.003 -0.14794,-0.0077 -0.24242,-0.02387 l -0.53391,-0.07901 -0.5329,-0.08372 -0.26561,-0.04371 -0.24679,-0.06287 c -0.32848,-0.08338 -0.6536,-0.177859 -0.97873,-0.268301 -1.28098,-0.430358 -2.4991,-1.021428 -3.58138,-1.790356 -0.27032,-0.190635 -0.52282,-0.405814 -0.7817,-0.608217 -0.12575,-0.105908 -0.25822,-0.203747 -0.37724,-0.31638 l -0.35101,-0.34395 c -0.22695,-0.235352 -0.47743,-0.444479 -0.67882,-0.70034 -0.20678,-0.248801 -0.41321,-0.496929 -0.61898,-0.744048 -0.75649,-1.038575 -1.39765,-2.135651 -1.8186,-3.297617 -0.41657,-1.157931 -0.70101,-2.337717 -0.76859,-3.503718 -0.0733,-0.578293 -0.0336,-1.155578 -0.0296,-1.717733 l 0.007,-0.251826 0.0239,-0.195342 0.0477,-0.389003 c 0.038,-0.263595 0.0488,-0.504326 0.1086,-0.781705 0.0595,-0.274017 0.11868,-0.546353 0.17718,-0.816671 0.0319,-0.133142 0.0545,-0.269982 0.0945,-0.397073 l 0.12407,-0.377235 c 0.0827,-0.248801 0.16441,-0.495584 0.24577,-0.74035 0.0988,-0.238378 0.20677,-0.470368 0.30831,-0.701349 0.18358,-0.470031 0.44717,-0.892992 0.6795,-1.3156168 0.1096,-0.2151789 0.25451,-0.407495 0.38833,-0.6021647 0.13347,-0.1943334 0.26527,-0.3866496 0.39606,-0.5769484 1.1149,-1.4759928 2.42681,-2.5535685 3.67754,-3.3208157 1.25308,-0.7756527 2.47321,-1.1972689 3.48086,-1.4632166 0.25418,-0.060855 0.49491,-0.1186846 0.72152,-0.1731518 0.22762,-0.048415 0.44549,-0.069261 0.64587,-0.1018737 0.20072,-0.029251 0.38665,-0.056148 0.55678,-0.081028 0.17046,-0.023872 0.32781,-0.018828 0.467,-0.028579 C -220.27566,3.0131125 -219.97744,3 -219.97744,3 Z m 0,0 c 0,0 -0.29789,0.017147 -0.85634,0.049088 -0.1392,0.011768 -0.29621,0.00874 -0.466,0.034967 -0.16979,0.027233 -0.35471,0.056484 -0.55476,0.088425 -0.19937,0.035303 -0.41657,0.058838 -0.64251,0.1102792 -0.22392,0.061528 -0.46162,0.1267539 -0.71311,0.1956784 -0.99117,0.3029315 -2.1881,0.7672472 -3.35612,1.6205661 -1.17172,0.8311285 -2.34041,2.0008276 -3.22332,3.5050626 -0.42195,0.7615316 -0.81129,1.5788757 -1.06244,2.4708597 -0.0619,0.222912 -0.12944,0.445151 -0.18761,0.671089 -0.041,0.230309 -0.082,0.462298 -0.12373,0.695969 l -0.0629,0.34933 c -0.0195,0.116667 -0.0195,0.231989 -0.0303,0.347648 -0.0175,0.229636 -0.0353,0.460954 -0.0531,0.693952 -0.0202,0.2293 0.004,0.508024 0.003,0.76254 l 0.008,0.392029 0.004,0.197024 c -6.7e-4,0.0464 0.001,-0.0353 0.002,-0.01849 l 0.003,0.02286 0.006,0.04573 0.0121,0.09145 c 0.0703,0.487515 0.1012,0.980409 0.23804,1.461872 0.18996,0.975701 0.59174,1.911057 1.04194,2.809429 0.12507,0.218541 0.25081,0.438091 0.3769,0.658649 0.12742,0.218205 0.2915,0.416237 0.43069,0.627718 l 0.21652,0.313018 0.24746,0.291836 c 0.16878,0.191308 0.32277,0.394383 0.50096,0.577285 0.70034,0.746402 1.5187,1.373783 2.37874,1.928541 l 0.67277,0.373537 c 0.2182,0.135831 0.46869,0.209463 0.69765,0.323441 l 0.34966,0.160039 c 0.11802,0.04976 0.24275,0.08338 0.36346,0.126417 0.24443,0.078 0.48314,0.173825 0.7306,0.240732 0.25048,0.05783 0.50129,0.111624 0.74976,0.176178 l 0.18626,0.04707 0.17584,0.02354 0.35102,0.0511 0.35033,0.05615 c 0.0521,0.01244 0.12508,0.01614 0.20241,0.01849 l 0.22358,0.0098 0.44717,0.0195 0.22358,0.0098 0.11163,0.005 0.0558,0.0034 0.0279,0.0017 c -0.0286,-3.36e-4 0.10355,0.0034 -0.0572,-6.72e-4 1.03219,-0.01513 2.05529,-0.153652 3.04915,-0.416573 0.24779,-0.06691 0.48651,-0.163066 0.73094,-0.241068 0.1207,-0.04304 0.24544,-0.07699 0.36345,-0.126754 l 0.35,-0.159367 c 0.23098,-0.110279 0.48045,-0.186936 0.69899,-0.322096 l 0.67311,-0.373873 c 0.86408,-0.55106 1.67873,-1.18382 2.38277,-1.927532 0.1782,-0.183238 0.33218,-0.386314 0.50096,-0.577957 l 0.24746,-0.292173 0.21652,-0.313354 c 0.14021,-0.211144 0.30462,-0.409176 0.43204,-0.628054 0.12608,-0.220558 0.25183,-0.440444 0.3769,-0.659321 0.13953,-0.21417 0.2135,-0.455911 0.32681,-0.681512 0.10086,-0.230309 0.22392,-0.454229 0.2925,-0.694961 0.0817,-0.238041 0.16273,-0.475074 0.24343,-0.711099 0.0787,-0.23636 0.11431,-0.464316 0.17584,-0.697314 0.13482,-0.434729 0.17281,-1.006298 0.24207,-1.521046 l 0.0121,-0.09818 0.006,-0.04909 0.003,-0.02454 c 0.002,-0.01748 -0.001,0.06455 0,0.01883 l 0.004,-0.183238 0.009,-0.365804 c 0,-0.243085 0.0262,-0.488523 0.006,-0.728246 -0.081,-1.931231 -0.64789,-3.760588 -1.52743,-5.2641506 -0.88358,-1.5042351 -2.05362,-2.6735979 -3.22601,-3.5037178 -1.16835,-0.8529826 -2.36596,-1.3166259 -3.35679,-1.6195575 -0.25149,-0.068925 -0.48919,-0.1341506 -0.71311,-0.1953421 -0.22628,-0.051441 -0.44314,-0.074976 -0.64252,-0.109943 -0.20004,-0.031941 -0.3853,-0.061528 -0.55475,-0.088425 -0.16979,-0.026225 -0.32714,-0.023199 -0.46634,-0.034967 C -219.67955,3.0171471 -219.97744,3 -219.97744,3 Z"
       id="path2-62"
       style="fill:url(#linearGradient33);fill-opacity:1;stroke-width:0.336217" />
    <path
       d="m -216.09148,16.096516 v -6.9272 c 0,-0.8447602 -0.76039,-1.6050802 -1.60516,-1.6050802 -0.84474,0 -1.60506,0.67586 -1.60506,1.6050802 v 6.9272 c -0.67587,0.50688 -1.09819,1.26715 -1.09819,2.11193 0,1.43611 1.1827,2.70327 2.70325,2.70327 1.43615,0 2.70333,-1.18273 2.70333,-2.70327 0,-0.84478 -0.4224,-1.60505 -1.09817,-2.11193 z m -1.60516,4.05489 c -1.09821,0 -1.94293,-0.84477 -1.94293,-1.94295 0,-0.76033 0.42238,-1.4361 1.09819,-1.77407 v -7.26507 c 0,-0.50687 0.42239,-0.8447602 0.84474,-0.8447602 0.50688,0 0.84477,0.4224002 0.84477,0.8447602 v 7.26507 c 0.67585,0.33797 1.09823,1.01374 1.09823,1.77407 0.0845,1.09818 -0.84473,1.94295 -1.943,1.94295 z"
       id="path6-6"
       style="fill:url(#linearGradient35);fill-opacity:1;stroke-width:0.844833" />
    <rect
       x="-215.16254"
       y="11.112625"
       width="1.7740316"
       height="0.50686574"
       id="rect10"
       style="fill:url(#linearGradient39);fill-opacity:1;stroke-width:0.844833" />
  </g>
</svg>
