<?xml version="1.0" encoding="UTF-8" standalone="no"?>
<svg
   viewBox="0 0 22 22"
   width="22"
   height="22"
   version="1.1"
   id="svg3"
   sodipodi:docname="disk-quota-critical.svg"
   inkscape:version="1.3.2 (091e20ef0f, 2023-11-25)"
   xmlns:inkscape="http://www.inkscape.org/namespaces/inkscape"
   xmlns:sodipodi="http://sodipodi.sourceforge.net/DTD/sodipodi-0.dtd"
   xmlns="http://www.w3.org/2000/svg"
   xmlns:svg="http://www.w3.org/2000/svg">
  <sodipodi:namedview
     id="namedview3"
     pagecolor="#ffffff"
     bordercolor="#999999"
     borderopacity="1"
     inkscape:showpageshadow="2"
     inkscape:pageopacity="0"
     inkscape:pagecheckerboard="0"
     inkscape:deskcolor="#d1d1d1"
     inkscape:zoom="15.875"
     inkscape:cx="10.834646"
     inkscape:cy="11.023622"
     inkscape:window-width="1920"
     inkscape:window-height="994"
     inkscape:window-x="0"
     inkscape:window-y="0"
     inkscape:window-maximized="1"
     inkscape:current-layer="svg3" />
  <defs
     id="defs1">
    <style
       type="text/css"
       id="current-color-scheme">.ColorScheme-Text{color:#232629;}.ColorScheme-NegativeText { color: #da4453; } </style>
  </defs>
  <g
     id="22-22-disk-quota-critical"
     transform="translate(32)">
    <rect
       style="opacity:0.00100002"
       width="22"
       height="22"
       x="-32"
       y="0"
       id="rect27" />
    <path
       d="m -13.010746,16.085679 0.007,-8.67e-4 -1.52729,-11.644946 -0.002,-0.01284 A 1.6979464,1.6979464 0 0 0 -15.107626,3.405125 1.698,1.698 0 0 0 -16.207826,3 h -9.13785 a 1.6979107,1.6979107 0 0 0 -1.100184,0.405125 1.6979821,1.6979821 0 0 0 -0.57436,1.019696 l -1.92332,11.347572 c -0.0135,0.06475 -0.0246,0.130357 -0.0333,0.196714 l -0.0168,0.09914 0.005,9.33e-4 A 2.7074464,2.7074464 0 0 0 -29,16.321429 C -29,17.800768 -27.80077,19 -26.32143,19 h 10.642854 c 1.47934,0 2.67858,-1.199232 2.67858,-2.678571 0,-0.07946 -0.003,-0.158054 -0.0105,-0.23575 z M -26.14,4.572518 l 6.1e-4,-0.0037 c 0.063,-0.391679 0.396656,-0.675946 0.793374,-0.675946 h 9.13786 c 0.39476,0 0.7271,0.281517 0.79243,0.670214 l 1.25248,9.54975 c -0.43102,-0.296356 -0.95302,-0.469946 -1.51563,-0.469946 H -26.32173 c -0.5238,0 -1.01241,0.1505 -1.42518,0.410411 z m 10.461124,13.534625 H -26.32173 c -0.98464,0 -1.78572,-0.801072 -1.78572,-1.785714 0,-0.07554 0.005,-0.149982 0.0139,-0.223072 l 0.0255,-0.15025 c 0.17213,-0.806036 0.8897,-1.412393 1.74634,-1.412393 h 10.642864 c 0.98464,0 1.78571,0.801072 1.78571,1.785715 0,0.984642 -0.80107,1.785714 -1.78571,1.785714 z"
       id="path1-6-7"
       style="overflow:hidden;fill:#d3dae3;fill-opacity:1;stroke-width:0.0178571" />
    <path
       d="m -16.000296,16.333333 m -1,0 a 1,1 0 1 0 2,0 1,1 0 1 0 -2,0 z"
       id="path2-1-6"
       style="overflow:hidden;fill:#da4453;fill-opacity:1;stroke-width:0.04" />
    <path
       id="path9-8-0-56"
       d="m -20.896786,6.205481 a 3.3332552,2.6666041 0 0 0 -3.26899,2.666602 3.3332552,2.6666041 0 0 0 3.33326,2.666608 3.3332552,2.6666041 0 0 0 3.33325,-2.666608 h -1.11109 a 2.2221705,1.7777365 0 0 1 -2.22216,1.777743 2.2221705,1.7777365 0 0 1 -2.22218,-1.777743 2.2221705,1.7777365 0 0 1 2.20831,-1.777733 2.2221705,1.7777365 0 0 1 0.0139,0 V 6.205481 a 3.3332552,2.6666041 0 0 0 -0.0643,0 z"
       style="color:#363636;fill:#da4453;fill-opacity:1;stroke-width:0.888867" />
    <ellipse
       id="ellipse13-6-9"
       ry="0.88886839"
       rx="1.1110853"
       cy="8.8720951"
       cx="-20.825699"
       style="color:#363636;fill:#da4453;fill-opacity:1;stroke-width:0.888867" />
  </g>
</svg>
