<svg width="48" version="1.1" xmlns="http://www.w3.org/2000/svg" height="48">
<path style="fill:#203040;fill-rule:evenodd" d="M 3,3 H 45 V 45 H 3 Z"/>
<g style="fill:#fff">
<path d="m 18.5219,9.514 h 4 v 11 h -4 z "/>
<path d="m 13.5198,19.7195 v 1.4815 h -1.05934 v -1.4407 c -0.98198,-0.0049 -1.89621,-0.2143 -2.74274,-0.628 v -1.89121 c 0.280553,0.213911 0.698976,0.411901 1.25526,0.59395 0.55629,0.182071 1.05211,0.28678 1.48748,0.31407 v -2.48514 c -1.13194,-0.39601 -1.9059,-0.82384 -2.32191,-1.28356 -0.411169,-0.46427 -0.616754,-1.02866 -0.616754,-1.69317 0,-0.7146 0.268473,-1.32225 0.805423,-1.82292 0.536927,-0.50522 1.24802,-0.7988 2.13324,-0.880731 v -1.26989 h 1.05934 v 1.24257 c 1.02067,0.045501 1.78255,0.20025 2.28563,0.46427 v 1.84339 c -0.67721,-0.38689 -1.43908,-0.62356 -2.28563,-0.71004 v 2.58754 c 1.05938,0.3596 1.81884,0.77152 2.27836,1.23577 0.45956,0.45972 0.68933,1.01728 0.68933,1.67271 0,0.75557 -0.25637,1.36548 -0.76914,1.82969 -0.51276,0.459699 -1.24559,0.7397 -2.19855,0.8399 z  m -1.0593,-5.9741 v -2.16426 c -0.67239,0.11373 -1.0086,0.44373 -1.0086,0.98997 0,0.46883 0.33621,0.86026 1.0086,1.17429 z  m 1.0593,2.3077 v 2.06871 c 0.69174,-0.100139 1.03763,-0.425579 1.03763,-0.976329 0,-0.44604 -0.34589,-0.81017 -1.03763,-1.09238 z "/>
</g>
<path style="fill:#bdc3c7" d="m 39.5948,28.0347 c -0.525115,-1.96399 -0.292322,-2.34325 -2.20974,-1.79542 l -1.5468,.4419 c -0.607679,-0.883899 -1.49158,-1.6573 -2.43072,-2.20974 l .2486,-1.5192 c 0.341612,-2.08763 -0.518085,-1.6192 -2.29261,-1.85066 -1.97654,-0.264439 -2.46241,-0.85348 -2.76218,1.13249 l -.221,1.464 c -0.165731,0.05524 -0.386706,0.110488 -0.552433,0.165731 -0.662922,0.16573 -1.2706,0.497193 -1.82304,0.828653 l -1.1877,-.9115 c -1.60402,-1.23099 -1.65487,-0.346038 -2.76218,0.994385 -1.32476,1.5666 -1.95061,1.61332 -0.331462,2.87267 l 1.243,.9667 c -0.220974,0.607679 -0.33146,1.2706 -0.33146,1.98877 l -1.5468,.4419 c -1.98731,0.567801 -1.39981,0.938089 -0.883898,2.67931 0.52511,1.96399 0.292323,2.34325 2.20974,1.79542 l 1.5468,-.4419 c 0.607679,0.883898 1.49158,1.65731 2.43072,2.20974 l -.2486,1.5192 c -0.341613,2.08763 0.518083,1.6192 2.29261,1.85066 1.97654,0.264441 2.46241,0.853482 2.76218,-1.13249 l .221,-1.464 c 0.16573,-0.05524 0.386705,-0.110486 0.552433,-0.16573 0.662925,-0.165732 1.27061,-0.497193 1.82304,-0.828653 l 1.1877,.9115 c 1.43404,1.42539 1.65487,0.346039 2.76218,-0.994385 1.32476,-1.5666 1.95061,-1.61332 0.331461,-2.87266 l -1.243,-.9667 c 0.220974,-0.607679 0.331462,-1.2706 0.331462,-1.98877 l 1.5468,-.4419 c 1.98731,-0.567802 1.39982,-0.938089 0.883899,-2.67931 z  m -9.0047,5.4967 c -1.54682,0.441948 -3.20412,-0.441948 -3.70132,-1.98877 -0.497193,-1.54682 0.441949,-3.20412 1.98877,-3.70132 1.54682,-0.441948 3.20412,0.441948 3.70132,1.98877 0.441947,1.54682 -0.441949,3.20412 -1.98877,3.70132 z "/>
</svg>
