<?xml version="1.0" encoding="UTF-8" standalone="no"?>
<svg
   viewBox="0 0 16 16"
   version="1.1"
   id="svg1"
   sodipodi:docname="compass.svg"
   width="16"
   height="16"
   inkscape:version="1.3.2 (091e20ef0f, 2023-11-25)"
   xmlns:inkscape="http://www.inkscape.org/namespaces/inkscape"
   xmlns:sodipodi="http://sodipodi.sourceforge.net/DTD/sodipodi-0.dtd"
   xmlns:xlink="http://www.w3.org/1999/xlink"
   xmlns="http://www.w3.org/2000/svg"
   xmlns:svg="http://www.w3.org/2000/svg">
  <sodipodi:namedview
     id="namedview1"
     pagecolor="#ffffff"
     bordercolor="#999999"
     borderopacity="1"
     inkscape:showpageshadow="2"
     inkscape:pageopacity="0"
     inkscape:pagecheckerboard="0"
     inkscape:deskcolor="#d1d1d1"
     inkscape:zoom="16.83798"
     inkscape:cx="11.046456"
     inkscape:cy="1.6629073"
     inkscape:window-width="1920"
     inkscape:window-height="994"
     inkscape:window-x="0"
     inkscape:window-y="0"
     inkscape:window-maximized="1"
     inkscape:current-layer="svg1" />
  <defs
     id="defs3051">
    <style
       type="text/css"
       id="current-color-scheme">.ColorScheme-Text { color: #fcfcfc; } </style>
    <linearGradient
       id="linearGradient5"
       inkscape:collect="always">
      <stop
         style="stop-color:#6d55aa;stop-opacity:1;"
         offset="0"
         id="stop3" />
      <stop
         style="stop-color:#2a7fff;stop-opacity:1;"
         offset="1"
         id="stop4" />
    </linearGradient>
    <linearGradient
       inkscape:collect="always"
       xlink:href="#linearGradient10"
       id="linearGradient14"
       gradientUnits="userSpaceOnUse"
       x1="0"
       y1="11"
       x2="22"
       y2="11"
       gradientTransform="matrix(0.7,0,0,0.7,0.30000006,0.3)" />
    <linearGradient
       id="linearGradient10"
       inkscape:collect="always">
      <stop
         style="stop-color:#bc5fd3;stop-opacity:1;"
         offset="0"
         id="stop9" />
      <stop
         style="stop-color:#00ccff;stop-opacity:1;"
         offset="1"
         id="stop10" />
    </linearGradient>
    <linearGradient
       id="linearGradient15"
       inkscape:collect="always"
       gradientTransform="matrix(0.7012109,0,0,0.69879111,0.30000006,0.3)"
       x1="7.0528665"
       y1="7.9466262"
       x2="12.917449"
       y2="7.9466262"
       gradientUnits="userSpaceOnUse">
      <stop
         style="stop-color:#bc5fd3;stop-opacity:1;"
         offset="0"
         id="stop13" />
      <stop
         style="stop-color:#00ccff;stop-opacity:1;"
         offset="1"
         id="stop14" />
    </linearGradient>
    <linearGradient
       id="linearGradient17"
       inkscape:collect="always"
       gradientTransform="matrix(0.69999241,0,0,0.70000752,0.30000006,0.3)"
       x1="10.107104"
       y1="8.8826561"
       x2="16.052425"
       y2="8.8826561"
       gradientUnits="userSpaceOnUse">
      <stop
         style="stop-color:#bc5fd3;stop-opacity:1;"
         offset="0"
         id="stop15" />
      <stop
         style="stop-color:#00ccff;stop-opacity:1;"
         offset="1"
         id="stop16" />
    </linearGradient>
    <linearGradient
       inkscape:collect="always"
       xlink:href="#linearGradient5"
       id="linearGradient1"
       gradientUnits="userSpaceOnUse"
       x1="0"
       y1="11"
       x2="22"
       y2="11" />
    <linearGradient
       inkscape:collect="always"
       xlink:href="#linearGradient5"
       id="linearGradient2"
       gradientUnits="userSpaceOnUse"
       x1="0"
       y1="11"
       x2="22"
       y2="11"
       gradientTransform="matrix(0.7,0,0,0.7,0.30000006,0.3)" />
    <linearGradient
       inkscape:collect="always"
       xlink:href="#linearGradient5"
       id="linearGradient3"
       gradientUnits="userSpaceOnUse"
       x1="0"
       y1="11"
       x2="22"
       y2="11"
       gradientTransform="matrix(0.7,0,0,0.7,0.30000006,0.3)" />
    <linearGradient
       inkscape:collect="always"
       xlink:href="#linearGradient10"
       id="linearGradient4"
       gradientUnits="userSpaceOnUse"
       x1="0"
       y1="11"
       x2="22"
       y2="11"
       gradientTransform="matrix(0.7,0,0,0.7,0.30000006,0.3)" />
    <linearGradient
       inkscape:collect="always"
       xlink:href="#linearGradient5"
       id="linearGradient6"
       gradientUnits="userSpaceOnUse"
       x1="0"
       y1="11"
       x2="22"
       y2="11"
       gradientTransform="matrix(0.7,0,0,0.7,0.30000006,0.3)" />
    <linearGradient
       inkscape:collect="always"
       xlink:href="#linearGradient10"
       id="linearGradient7"
       gradientUnits="userSpaceOnUse"
       x1="0"
       y1="11"
       x2="22"
       y2="11"
       gradientTransform="matrix(0.7,0,0,0.7,0.30000006,0.3)" />
    <linearGradient
       inkscape:collect="always"
       xlink:href="#linearGradient5"
       id="linearGradient8"
       gradientUnits="userSpaceOnUse"
       x1="0"
       y1="11"
       x2="22"
       y2="11"
       gradientTransform="matrix(0.7,0,0,0.7,0.30000006,0.3)" />
    <linearGradient
       inkscape:collect="always"
       xlink:href="#linearGradient5"
       id="linearGradient11"
       gradientUnits="userSpaceOnUse"
       x1="0"
       y1="11"
       x2="22"
       y2="11"
       gradientTransform="matrix(0.7,0,0,0.7,0.30000006,0.3)" />
  </defs>
  <path
     style="clip-rule:evenodd;fill:url(#linearGradient1);fill-opacity:0;fill-rule:evenodd;stroke-width:0.688964;stroke-linejoin:round;stroke-miterlimit:1.41421"
     d="M 0,0 V 22 H 22 V 0 Z"
     id="rect817-5"
     inkscape:connector-curvature="0" />
  <path
     d="m 7.8832178,6.8333184 c -0.247354,0.1134962 -0.3040411,0.415284 -0.1134988,0.6058272 0.1520745,0.1520774 0.374343,0.1520774 0.5264195,0 C 8.486682,7.2486024 8.4299889,6.9468146 8.182648,6.8333184 c -0.1178772,-0.052117 -0.1814343,-0.052117 -0.2994302,0 z"
     id="path20-3"
     style="fill:url(#linearGradient2);fill-opacity:1;stroke-width:0.00118355" />
  <path
     d="m 7.9626296,10.645481 c -0.1633281,0.05224 -0.2473547,0.163325 -0.2473547,0.319902 0,0.195155 0.088533,0.272327 0.4242908,0.363097 0.1021307,0.02726 0.2019005,0.06798 0.2223715,0.09076 0.049921,0.05662 0.027263,0.127113 -0.056685,0.17018 -0.1724295,0.08855 -0.4084238,-0.0091 -0.4084238,-0.167935 0,-0.0409 -0.013612,-0.0478 -0.1134993,-0.0478 H 7.6698314 v 0.0794 c 0,0.104379 0.04533,0.190655 0.1452119,0.279063 0.090774,0.07938 0.1951609,0.106638 0.3812062,0.102136 0.2540975,-0.0069 0.4402636,-0.179175 0.4197909,-0.390313 -0.0182,-0.181545 -0.1293582,-0.272325 -0.4175436,-0.347127 -0.2223775,-0.05668 -0.2564642,-0.07489 -0.2564642,-0.142962 0,-0.07261 0.059096,-0.102138 0.2019062,-0.102138 0.1271066,0 0.2065195,0.05222 0.2065195,0.133859 0,0.06362 0.034085,0.07721 0.1361067,0.05904 0.083907,-0.01359 0.090771,-0.02041 0.090771,-0.08854 0,-0.09305 -0.079399,-0.213277 -0.1769316,-0.269963 -0.08379,-0.04976 -0.3380051,-0.07247 -0.4377744,-0.0408 z"
     id="path22-6"
     style="fill:url(#linearGradient3);fill-opacity:1;stroke-width:0.00118355" />
  <path
     d="m 8.0117629,1.0000767 c 0,0 0.1605791,0.007 0.4614641,0.02013 0.075118,0.0057 0.1596772,0.0029 0.2512795,0.01538 0.091603,0.013393 0.191718,0.02783 0.2999764,0.0437 0.1079011,0.01751 0.2253923,0.028741 0.3479567,0.05489 0.1220191,0.029307 0.2516393,0.06049 0.3885096,0.093415 0.5425628,0.1430213 1.1993708,0.3705853 1.8739108,0.7882335 0.673103,0.4134935 1.378962,0.9938962 1.978745,1.7886535 0.591626,0.794931 1.077171,1.8007703 1.295856,2.9572406 0.03224,0.1435613 0.03935,0.2912912 0.05988,0.4391923 l 0.02599,0.2235813 0.01295,0.1126095 0.0036,0.1298019 c 0.0027,0.2880339 0.02692,0.5565104 -0.0139,0.8930581 -0.01623,0.1598594 -0.02248,0.3291282 -0.05006,0.4862718 -0.02959,0.1567752 -0.05923,0.3142791 -0.08888,0.4726855 -0.02397,0.1609424 -0.07862,0.3137357 -0.122563,0.4716015 l -0.07077,0.2362488 c -0.02171,0.07984 -0.04974,0.1575 -0.08312,0.233179 -0.22684,0.624931 -0.570631,1.216024 -0.97832,1.774342 -0.108627,0.134155 -0.219421,0.26793 -0.33239,0.401004 -0.108441,0.137582 -0.243313,0.250193 -0.365331,0.37674 l -0.188812,0.185007 c -0.06402,0.06066 -0.135233,0.113151 -0.202939,0.170182 -0.137953,0.110971 -0.274813,0.225204 -0.420007,0.328402 -0.582757,0.413309 -1.237208,0.734102 -1.927141,0.964751 C 9.4728302,14.886306 8.7410731,14.977917 8.0120345,15 L 7.8458389,14.9931 7.7256316,14.9861 7.4850374,14.97243 7.3648247,14.96553 c -0.038751,-0.0023 -0.079654,-0.004 -0.1305236,-0.01285 L 6.9468009,14.910213 6.6598571,14.865119 6.5168355,14.841603 6.3839551,14.807729 C 6.2071169,14.762347 6.0320494,14.711491 5.8569908,14.662787 5.1672329,14.431063 4.511335,14.112788 3.9285759,13.698767 3.7830214,13.596117 3.647064,13.480248 3.5076656,13.371269 3.4399287,13.314289 3.3686274,13.26155 3.3045438,13.200913 L 3.1155433,13.01571 C 2.9933389,12.888981 2.8584633,12.776376 2.7500254,12.638603 2.6386859,12.504639 2.5275295,12.371036 2.416735,12.237976 2.0094048,11.678744 1.6641648,11.08802 1.4375069,10.462357 1.2131966,9.8388649 1.0600393,9.203611 1.0236517,8.5757705 0.98414836,8.264387 1.0055832,7.9535486 1.0076682,7.6508503 l 0.00385,-0.1355923 0.01288,-0.1051858 0.025742,-0.2094648 C 1.0705391,7.058679 1.0763556,6.929055 1.1085635,6.779702 1.140558,6.6321534 1.1724383,6.4855151 1.2039701,6.3399604 1.2211801,6.2682566 1.2332777,6.1945859 1.2548765,6.1261567 L 1.3216495,5.9230321 C 1.3661526,5.7890647 1.4101779,5.6561846 1.4539882,5.5243882 1.5072195,5.3960322 1.5653264,5.2711154 1.6199991,5.1467457 1.7188441,4.893654 1.8607776,4.6659085 1.9858752,4.4383476 2.0449161,4.3224792 2.1229215,4.218929 2.1949746,4.1141103 2.2668496,4.0094713 2.3378092,3.9059192 2.4082351,3.803451 3.0085521,3.0086969 3.7149622,2.4284707 4.3884223,2.0153434 5.0631475,1.5976888 5.7201313,1.3706724 6.262701,1.2274707 6.3995625,1.1946881 6.5291852,1.1635833 6.6512052,1.1342367 6.773767,1.1082115 6.8910796,1.0969819 6.9989789,1.0793477 c 0.10808,-0.015791 0.208194,-0.030201 0.299796,-0.04368 0.09179,-0.01288 0.1765107,-0.010145 0.2514582,-0.015384 C 7.8513375,1.0070384 8.0119192,1 8.0119192,1 Z m 0,0 c 0,0 -0.1604021,0.00917 -0.4611071,0.026377 -0.074948,0.0068 -0.159494,0.00503 -0.2509149,0.018858 -0.091423,0.01468 -0.1909893,0.030415 -0.2987155,0.04762 C 6.893679,1.1119039 6.776724,1.1245813 6.6550674,1.1523271 6.5344982,1.185421 6.4065036,1.220553 6.2710884,1.2576912 5.7373894,1.420805 5.0929005,1.6708231 4.4639709,2.1302952 3.8330593,2.5778159 3.2037744,3.207641 2.7283702,4.017606 2.5011692,4.4276543 2.2915269,4.8677519 2.1562926,5.3480483 2.1230178,5.4680727 2.0866178,5.5877394 2.0552724,5.709397 2.0332224,5.8334076 2.0111262,5.9583242 1.9886868,6.0841416 l -0.033892,0.1880999 c -0.01048,0.062787 -0.01048,0.1249203 -0.01625,0.187191 -0.00938,0.1236546 -0.018975,0.2482031 -0.028617,0.3736605 -0.010844,0.1234693 0.0025,0.2735484 0.00233,0.410596 l 0.00456,0.2110908 0.0025,0.1060853 c -3.64e-4,0.024971 5.422e-4,-0.019042 0.00176,-0.00999 l 0.0021,0.012316 0.00353,0.024582 0.0069,0.049247 c 0.037847,0.2625015 0.05446,0.5279079 0.1281756,0.7871535 0.1022858,0.5253678 0.318626,1.0290125 0.5610341,1.5127512 0.06737,0.1176682 0.1350539,0.2358912 0.2029436,0.3546502 0.06862,0.117488 0.1569586,0.224121 0.2319063,0.337991 l 0.1165853,0.16855 0.1332418,0.157143 c 0.090882,0.103004 0.1737957,0.212351 0.2697471,0.310841 0.3770971,0.401899 0.8177426,0.739715 1.2808375,1.038423 l 0.3622583,0.201144 c 0.1174917,0.0732 0.2523657,0.112779 0.3756516,0.174157 l 0.1882772,0.08613 c 0.06359,0.02691 0.1307102,0.04497 0.1957032,0.06803 0.1316129,0.042 0.2601498,0.09358 0.3933946,0.129623 0.1348725,0.0312 0.2699244,0.06004 0.403712,0.09485 l 0.1002951,0.02545 0.094684,0.01272 0.1890015,0.02746 0.1886355,0.03016 c 0.028069,0.0069 0.067361,0.0085 0.108991,0.01006 l 0.1203936,0.006 0.2407767,0.01051 0.1203905,0.006 0.060082,0.0036 0.030024,0.003 0.015041,0.0016 c -0.015379,-1.78e-4 0.055718,0.003 -0.030764,-3.65e-4 0.5557831,-0.0076 1.1066776,-0.08276 1.6418291,-0.224303 0.1334245,-0.03598 0.2619576,-0.08778 0.393562,-0.129798 0.06508,-0.02313 0.13216,-0.04142 0.195713,-0.06818 l 0.188401,-0.08581 c 0.124365,-0.05941 0.258697,-0.100655 0.376367,-0.173433 l 0.362449,-0.201135 c 0.465261,-0.29672 0.903911,-0.637431 1.283009,-1.037885 0.09594,-0.09867 0.178868,-0.208012 0.269742,-0.311202 l 0.133247,-0.157324 0.116584,-0.168725 c 0.07546,-0.113689 0.16401,-0.220319 0.232636,-0.338174 0.06789,-0.118763 0.135598,-0.237158 0.202945,-0.3550123 0.0751,-0.1153217 0.11496,-0.2454905 0.175965,-0.3669653 0.05424,-0.1240086 0.120575,-0.2445793 0.157502,-0.3742041 0.04404,-0.1281764 0.0876,-0.2558038 0.131075,-0.3828921 0.0424,-0.1272704 0.06152,-0.2500143 0.09466,-0.3754712 0.07252,-0.2340809 0.09305,-0.5418431 0.130347,-0.8190098 l 0.0069,-0.052868 0.0038,-0.026395 0.0027,-0.013242 c 0.0016,-0.0094 -0.0012,0.034754 0,0.010154 l 0.0033,-0.098663 0.0055,-0.1969705 c 0,-0.1308879 0.0142,-0.263046 0.0038,-0.3921252 C 14.081188,5.8126745 13.775986,4.82765 13.302397,4.018054 12.826605,3.208045 12.196603,2.5783961 11.565324,2.1314162 10.936223,1.6721241 10.291364,1.4224736 9.7578516,1.2593604 9.6224314,1.2222604 9.4944397,1.1871441 9.3738718,1.1541757 9.2520337,1.126511 9.1352638,1.1138469 9.0279115,1.0949801 8.9201884,1.0777664 8.8204369,1.0618769 8.7291991,1.0473656 8.6377754,1.0332109 8.5530479,1.0349117 8.478101,1.0285049 8.1772151,1.0112849 8.0168169,1.0021149 8.0168169,1.0021149 Z"
     id="path2-3-5-7"
     style="fill:url(#linearGradient4);fill-opacity:1;stroke-width:0.181049" />
  <path
     d="m 7.6403609,2.5175684 c -0.00907,0.007 -0.015878,0.2723151 -0.015878,0.5899706 v 0.5741192 h 0.1134952 0.1135013 l 0.00467,-0.3698501 0.00736,-0.3675934 0.2473536,0.3675934 0.2473485,0.3698501 H 8.469422 8.5783047 V 3.0916804 2.5017076 H 8.464661 8.3511634 V 2.8806598 3.2618649 L 8.0970441,2.8806598 7.8451982,2.5017076 H 7.749886 c -0.05219,0 -0.1021286,0.0069 -0.1089935,0.01589 z"
     id="path6-5"
     style="fill:url(#linearGradient6);fill-opacity:1;stroke-width:0.00118355" />
  <path
     d="m 4.5272877,3.6792884 c -0.007,0.01358 -0.007,0.0385 0.0025,0.05223 0.054382,0.09302 2.6525859,4.0730082 2.6729419,4.0957286 0.020486,0.022773 0.063519,-0.00664 0.1929106,-0.1384704 L 7.5636577,7.5187082 7.5159138,7.405203 C 7.3525885,7.0285074 7.6225482,6.6110824 8.0287218,6.6088376 c 0.07492,0 0.1656908,0.01804 0.2337431,0.049901 l 0.113496,0.047755 0.170186,-0.167942 C 8.677738,6.4091933 8.7072064,6.3661192 8.6844892,6.345641 8.6481642,6.3093192 4.6159729,3.6840717 4.5751349,3.6680987 c -0.01804,-0.007 -0.03851,-0.0025 -0.0476,0.011273 z"
     id="path8-3"
     style="fill:url(#linearGradient7);fill-opacity:1;stroke-width:0.00118355" />
  <path
     d="M 7.6744483,4.4099815 C 7.3998685,4.4440811 6.9959434,4.568803 6.7690682,4.6868023 l -0.058975,0.031836 0.1088786,0.07492 0.1088848,0.07491 0.1384689,-0.05223 C 7.3636229,4.7027345 7.6041143,4.6551577 7.9104,4.6415487 c 0.3653498,-0.015894 0.5967246,0.015902 0.9167451,0.1202443 0.4197791,0.1407174 0.7443017,0.3448667 1.046091,0.6602727 0.4651139,0.487836 0.7033609,1.0846793 0.7011109,1.7630544 -0.0033,0.3131566 -0.04303,0.5445346 -0.149723,0.8554438 l -0.08389,0.2404825 0.07491,0.1111301 0.0772,0.1088815 0.06361,-0.140718 c 0.347043,-0.771517 0.34929,-1.6042316 0.0072,-2.3575276 C 10.30474,5.4378139 9.7715686,4.9045264 9.2043179,4.6459323 8.7344684,4.4326616 8.1717129,4.3441373 7.6747626,4.4099422 Z"
     id="path10-5"
     style="fill:url(#linearGradient14);fill-opacity:1;stroke-width:0.00118355" />
  <path
     d="M 5.4847384,6.0483005 C 5.3825966,6.2865363 5.2964404,6.5996922 5.2646008,6.8584083 5.1874332,7.5005743 5.34627,8.165347 5.7116096,8.7167381 6.1291547,9.3430444 6.7939214,9.778694 7.5563344,9.9239126 c 0.1905417,0.036301 0.7624097,0.036301 0.9529505,0 C 8.7044447,9.8876102 9.0561866,9.7764404 9.2239975,9.6992785 L 9.3578553,9.6356954 9.2489765,9.5584883 9.137844,9.4835838 8.897357,9.5674803 C 8.5864496,9.674197 8.3550772,9.715026 8.0419174,9.7173985 6.7984186,9.719787 5.7546955,8.8506048 5.5255629,7.6184684 5.4960827,7.4618948 5.4892443,7.3394003 5.4982985,7.0851918 c 0.01143,-0.349492 0.05222,-0.5513975 0.1679389,-0.846319 0.0658,-0.1656939 0.061298,-0.1837994 -0.047756,-0.3222724 l -0.049898,-0.063586 z"
     id="path12-6"
     style="fill:url(#linearGradient15);fill-opacity:1;stroke-width:0.00118355" />
  <path
     d="m 8.670599,6.663125 -0.1679379,0.1701934 0.047767,0.1134962 c 0.099888,0.2314937 0.038524,0.50145 -0.151962,0.6648796 -0.1634483,0.1383602 -0.42204,0.1701992 -0.6217036,0.074934 L 7.6882306,7.645783 7.5202938,7.8137156 C 7.3886824,7.943069 7.3592182,7.9861528 7.3818139,8.006622 c 0.068082,0.06354 4.0888801,2.670688 4.1207181,2.67305 0.02036,0 0.03411,-0.01358 0.03411,-0.03411 -0.0032,-0.0318 -2.6094908,-4.0549122 -2.6729296,-4.1207114 -0.020602,-0.022896 -0.063646,0.0071 -0.1930284,0.1382306 z"
     id="path14-2"
     style="fill:url(#linearGradient17);fill-opacity:1;stroke-width:0.00118355" />
  <path
     d="m 11.844989,7.1306074 v 0.5899742 h 0.442502 0.442512 V 7.607083 7.49359 H 12.400987 12.071972 V 7.357491 7.2213796 h 0.294942 0.29491 V 7.10789 6.9943904 h -0.29491 -0.294942 V 6.8695317 6.744791 h 0.317658 0.317649 V 6.6426514 6.5405198 h -0.431156 -0.431134 z"
     id="path16-9"
     style="fill:url(#linearGradient8);fill-opacity:1;stroke-width:0.00118355" />
  <path
     d="m 3.3359749,6.5769671 c 0,0.027262 0.2949283,1.1255113 0.3086541,1.1458671 0.0069,0.01141 0.05667,0.020472 0.1111356,0.020472 h 0.099882 L 3.8897446,7.623055 c 0.01804,-0.063559 0.06803,-0.2428511 0.1088748,-0.3948193 0.04086,-0.1543196 0.07942,-0.2790643 0.086283,-0.2790643 0.011416,0 0.07491,0.2246315 0.2087725,0.7215815 0.02043,0.07267 0.02495,0.074919 0.1247378,0.068069 L 4.525045,7.7314219 4.6680135,7.2094962 C 4.8654196,6.481132 4.8585539,6.5629171 4.7223856,6.5629171 c -0.1316027,0 -0.1021312,-0.054393 -0.2268752,0.4378862 -0.036326,0.1475249 -0.070328,0.2723861 -0.074918,0.2791326 -0.0069,0.00463 -0.054384,-0.154332 -0.1088769,-0.3539885 l -0.097519,-0.3653565 -0.1271134,0.007 -0.1248534,0.007 -0.1043863,0.3744538 C 3.7987644,7.1533146 3.7467159,7.3053974 3.7420959,7.289535 3.7351644,7.2714808 3.6943412,7.098869 3.6513254,6.9105816 L 3.5741539,6.5634761 H 3.4561595 c -0.0658,0 -0.120241,0.0069 -0.120241,0.01357 z"
     id="path18-1"
     style="fill:url(#linearGradient11);fill-opacity:1;stroke-width:0.00118355" />
</svg>
