<svg xmlns="http://www.w3.org/2000/svg" xmlns:xlink="http://www.w3.org/1999/xlink" width="16" height="16" viewBox="0 0 16 16" version="1.1">
<g id="surface1">
<path style=" stroke:none;fill-rule:nonzero;fill:rgb(96.862745%,0%,100%);fill-opacity:1;" d="M 6 8 C 6 8.738281 5.402344 9.332031 4.667969 9.332031 C 3.929688 9.332031 3.332031 8.738281 3.332031 8 C 3.332031 7.261719 3.929688 6.667969 4.667969 6.667969 C 5.402344 6.667969 6 7.261719 6 8 Z M 6 8 "/>
<path style=" stroke:none;fill-rule:nonzero;fill:rgb(96.862745%,0%,100%);fill-opacity:1;" d="M 9.332031 8 C 9.332031 8.738281 8.738281 9.332031 8 9.332031 C 7.261719 9.332031 6.667969 8.738281 6.667969 8 C 6.667969 7.261719 7.261719 6.667969 8 6.667969 C 8.738281 6.667969 9.332031 7.261719 9.332031 8 Z M 9.332031 8 "/>
<path style=" stroke:none;fill-rule:nonzero;fill:rgb(96.862745%,0%,100%);fill-opacity:1;" d="M 12.667969 8 C 12.667969 8.738281 12.070312 9.332031 11.332031 9.332031 C 10.597656 9.332031 10 8.738281 10 8 C 10 7.261719 10.597656 6.667969 11.332031 6.667969 C 12.070312 6.667969 12.667969 7.261719 12.667969 8 Z M 12.667969 8 "/>
</g>
</svg>
