<svg xmlns="http://www.w3.org/2000/svg" xmlns:xlink="http://www.w3.org/1999/xlink" width="16" height="16" viewBox="0 0 16 16" version="1.1">
<g id="surface1">
<path style=" stroke:none;fill-rule:nonzero;fill:rgb(100%,30.980393%,30.980393%);fill-opacity:1;" d="M 4.667969 3.332031 C 3.925781 3.332031 3.332031 3.925781 3.332031 4.667969 L 3.332031 11.332031 C 3.332031 12.074219 3.925781 12.667969 4.667969 12.667969 L 11.332031 12.667969 C 12.074219 12.667969 12.667969 12.074219 12.667969 11.332031 L 12.667969 4.667969 C 12.667969 3.925781 12.074219 3.332031 11.332031 3.332031 Z M 8 5.332031 C 9.472656 5.332031 10.667969 6.527344 10.667969 8 L 10.667969 8.332031 C 10.667969 8.886719 10.21875 9.332031 9.667969 9.332031 C 9.375 9.332031 9.09375 9.199219 8.898438 8.972656 C 8.667969 9.191406 8.347656 9.332031 8 9.332031 C 7.265625 9.332031 6.667969 8.734375 6.667969 8 C 6.667969 7.265625 7.265625 6.667969 8 6.667969 C 8.734375 6.667969 9.332031 7.265625 9.332031 8 L 9.332031 8.332031 C 9.332031 8.519531 9.480469 8.667969 9.667969 8.667969 C 9.851562 8.667969 10 8.519531 10 8.332031 L 10 8 C 10 6.894531 9.105469 6 8 6 C 6.894531 6 6 6.894531 6 8 C 6 9.105469 6.894531 10 8 10 L 9.667969 10 C 9.667969 10 10 10 10 10.332031 C 9.980469 10.667969 9.667969 10.667969 9.667969 10.667969 L 8 10.667969 C 6.527344 10.667969 5.332031 9.472656 5.332031 8 C 5.332031 6.527344 6.527344 5.332031 8 5.332031 Z M 8 7.332031 C 7.632812 7.332031 7.332031 7.632812 7.332031 8 C 7.332031 8.367188 7.632812 8.667969 8 8.667969 C 8.367188 8.667969 8.667969 8.367188 8.667969 8 C 8.667969 7.632812 8.367188 7.332031 8 7.332031 Z M 8 7.332031 "/>
</g>
</svg>
