<svg xmlns="http://www.w3.org/2000/svg" xmlns:xlink="http://www.w3.org/1999/xlink" width="16" height="16" viewBox="0 0 16 16" version="1.1">
<g id="surface1">
<path style=" stroke:none;fill-rule:nonzero;fill:rgb(100%,74.901962%,0%);fill-opacity:1;" d="M 10 4 C 9.152344 4 8.398438 4.535156 8.117188 5.332031 L 3.332031 5.332031 L 3.332031 6.667969 L 8.117188 6.667969 C 8.398438 7.464844 9.152344 8 10 8 C 10.847656 8 11.601562 7.464844 11.882812 6.667969 L 12.667969 6.667969 L 12.667969 5.332031 L 11.882812 5.332031 C 11.601562 4.535156 10.847656 4 10 4 Z M 6.667969 8 C 5.820312 8 5.066406 8.535156 4.785156 9.332031 L 3.332031 9.332031 L 3.332031 10.667969 L 4.78125 10.667969 C 5.066406 11.464844 5.820312 12 6.667969 12 C 7.511719 12 8.265625 11.464844 8.550781 10.667969 L 12.667969 10.667969 L 12.667969 9.332031 L 8.550781 9.332031 C 8.269531 8.535156 7.515625 8 6.667969 8 Z M 6.667969 8 "/>
</g>
</svg>
