<svg xmlns="http://www.w3.org/2000/svg" xmlns:xlink="http://www.w3.org/1999/xlink" width="16" height="16" viewBox="0 0 16 16" version="1.1">
<g id="surface1">
<path style=" stroke:none;fill-rule:nonzero;fill:rgb(96.862745%,0%,100%);fill-opacity:1;" d="M 5.332031 3.332031 L 5.332031 4.78125 C 4.535156 5.066406 4 5.820312 4 6.667969 C 4 7.511719 4.535156 8.265625 5.332031 8.550781 L 5.332031 12.667969 L 6.667969 12.667969 L 6.667969 8.550781 C 7.464844 8.269531 8 7.515625 8 6.667969 C 8 5.820312 7.464844 5.066406 6.667969 4.785156 L 6.667969 3.332031 Z M 9.332031 3.332031 L 9.332031 8.117188 C 8.535156 8.398438 8 9.152344 8 10 C 8 10.847656 8.535156 11.601562 9.332031 11.882812 L 9.332031 12.667969 L 10.667969 12.667969 L 10.667969 11.882812 C 11.464844 11.601562 12 10.847656 12 10 C 12 9.152344 11.464844 8.398438 10.667969 8.117188 L 10.667969 3.332031 Z M 9.332031 3.332031 "/>
</g>
</svg>
