<svg xmlns="http://www.w3.org/2000/svg" xmlns:xlink="http://www.w3.org/1999/xlink" width="16" height="16" viewBox="0 0 16 16" version="1.1">
<g id="surface1">
<path style=" stroke:none;fill-rule:nonzero;fill:rgb(100%,74.901962%,0%);fill-opacity:1;" d="M 0.640625 -0.00390625 C 0.523438 0.0078125 0.417969 0.078125 0.367188 0.183594 C 0.3125 0.292969 0.324219 0.417969 0.390625 0.519531 C 1.269531 1.835938 1.628906 4.195312 1.871094 6.664062 L 0.664062 6.664062 L 0.664062 7.992188 L 0 7.992188 L 0 8.660156 L 0.664062 8.660156 L 0.664062 9.996094 L 2.167969 9.996094 C 2.308594 11.535156 2.480469 12.953125 2.839844 14.03125 C 3.035156 14.617188 3.28125 15.109375 3.636719 15.464844 C 3.996094 15.824219 4.480469 16.023438 5.023438 15.988281 C 6.390625 15.898438 7.324219 15.0625 7.914062 13.941406 C 8.503906 12.824219 8.804688 11.410156 9.035156 10.003906 C 9.035156 10.003906 9.035156 9.996094 9.035156 9.996094 L 9.996094 9.996094 L 9.996094 8.660156 L 11.996094 8.660156 L 11.996094 9.996094 L 13.625 9.996094 C 13.777344 11.003906 13.925781 12.011719 14.121094 12.921875 C 14.398438 14.207031 14.738281 15.304688 15.445312 15.910156 C 15.542969 15.996094 15.679688 16.015625 15.796875 15.964844 C 15.917969 15.914062 15.996094 15.796875 15.996094 15.667969 L 16 15.667969 C 16 15.566406 15.957031 15.46875 15.878906 15.402344 C 15.417969 15.007812 15.042969 14.023438 14.777344 12.785156 C 14.59375 11.933594 14.449219 10.96875 14.300781 9.996094 L 15.328125 9.996094 L 15.328125 8.660156 L 15.996094 8.660156 L 15.996094 7.992188 L 15.328125 7.992188 L 15.328125 6.664062 L 13.6875 6.664062 C 13.527344 6.03125 13.328125 5.453125 13.070312 4.96875 C 12.816406 4.488281 12.5 4.089844 12.078125 3.84375 C 11.660156 3.601562 11.140625 3.535156 10.582031 3.671875 C 10.144531 3.78125 9.8125 4.101562 9.574219 4.507812 C 9.335938 4.910156 9.171875 5.410156 9.035156 5.976562 C 8.980469 6.191406 8.9375 6.429688 8.890625 6.664062 L 6.664062 6.664062 L 6.664062 7.992188 L 3.996094 7.992188 L 3.996094 6.664062 L 2.554688 6.664062 C 2.328125 4.160156 1.980469 1.699219 0.945312 0.148438 C 0.878906 0.046875 0.761719 -0.0117188 0.640625 -0.00390625 Z M 11.039062 4.269531 C 11.316406 4.246094 11.539062 4.304688 11.742188 4.421875 C 12.015625 4.578125 12.261719 4.867188 12.480469 5.277344 C 12.675781 5.652344 12.84375 6.132812 12.988281 6.664062 L 11.996094 6.664062 L 11.996094 7.992188 L 9.996094 7.992188 L 9.996094 6.664062 L 9.570312 6.664062 C 9.605469 6.484375 9.640625 6.296875 9.679688 6.132812 C 9.808594 5.597656 9.964844 5.152344 10.144531 4.84375 C 10.328125 4.535156 10.515625 4.378906 10.742188 4.320312 C 10.851562 4.292969 10.949219 4.277344 11.039062 4.269531 Z M 3.996094 8.660156 L 6.664062 8.660156 L 6.664062 9.996094 L 8.359375 9.996094 C 8.132812 11.34375 7.835938 12.660156 7.324219 13.632812 C 6.796875 14.625 6.105469 15.246094 4.976562 15.324219 C 4.605469 15.347656 4.351562 15.242188 4.109375 14.996094 C 3.863281 14.75 3.644531 14.347656 3.46875 13.820312 C 3.152344 12.859375 2.976562 11.496094 2.835938 9.996094 L 3.996094 9.996094 Z M 3.996094 8.660156 "/>
</g>
</svg>
