<svg xmlns="http://www.w3.org/2000/svg" xmlns:xlink="http://www.w3.org/1999/xlink" width="16" height="16" viewBox="0 0 16 16" version="1.1">
<g id="surface1">
<path style=" stroke:none;fill-rule:nonzero;fill:rgb(96.862745%,0%,100%);fill-opacity:1;" d="M 0.328125 0 C 0.199219 0.00390625 0.0820312 0.0820312 0.03125 0.199219 C -0.0195312 0.316406 0 0.457031 0.0859375 0.554688 C 0.691406 1.257812 1.785156 1.597656 3.070312 1.875 C 3.984375 2.070312 4.992188 2.21875 5.996094 2.371094 L 5.996094 4.003906 L 7.335938 4.003906 L 7.335938 6.003906 L 5.996094 6.003906 L 5.996094 6.960938 C 5.996094 6.960938 5.992188 6.960938 5.988281 6.960938 C 4.582031 7.191406 3.171875 7.496094 2.050781 8.085938 C 0.933594 8.675781 0.0976562 9.605469 0.0078125 10.976562 C -0.03125 11.519531 0.171875 12.003906 0.527344 12.359375 C 0.886719 12.714844 1.378906 12.964844 1.964844 13.15625 C 3.042969 13.515625 4.460938 13.691406 5.996094 13.832031 L 5.996094 15.332031 L 7.335938 15.332031 L 7.335938 15.996094 L 8 15.996094 L 8 15.332031 L 9.328125 15.332031 L 9.328125 14.128906 C 11.796875 14.371094 14.160156 14.726562 15.476562 15.605469 C 15.628906 15.707031 15.835938 15.667969 15.9375 15.515625 C 16.039062 15.359375 16 15.152344 15.847656 15.050781 C 14.296875 14.019531 11.835938 13.667969 9.328125 13.441406 L 9.328125 12 L 8 12 L 8 9.332031 L 9.328125 9.332031 L 9.328125 7.105469 C 9.566406 7.0625 9.800781 7.015625 10.019531 6.964844 C 10.585938 6.828125 11.085938 6.660156 11.488281 6.421875 C 11.890625 6.183594 12.210938 5.851562 12.320312 5.414062 C 12.460938 4.855469 12.394531 4.339844 12.148438 3.917969 C 11.90625 3.496094 11.507812 3.179688 11.027344 2.925781 C 10.542969 2.671875 9.964844 2.472656 9.328125 2.308594 L 9.328125 0.667969 L 8 0.667969 L 8 0.00390625 L 7.335938 0.00390625 L 7.335938 0.667969 L 5.996094 0.667969 L 5.996094 1.695312 C 5.023438 1.550781 4.058594 1.402344 3.210938 1.222656 C 1.96875 0.957031 0.988281 0.578125 0.59375 0.117188 C 0.527344 0.0390625 0.429688 -0.00390625 0.328125 0 Z M 9.328125 3.007812 C 9.863281 3.15625 10.339844 3.320312 10.714844 3.519531 C 11.125 3.734375 11.414062 3.980469 11.574219 4.253906 C 11.730469 4.527344 11.78125 4.828125 11.675781 5.253906 C 11.617188 5.480469 11.457031 5.667969 11.148438 5.851562 C 10.839844 6.035156 10.394531 6.1875 9.863281 6.316406 C 9.699219 6.359375 9.511719 6.390625 9.328125 6.429688 L 9.328125 6.003906 L 8 6.003906 L 8 4.003906 L 9.328125 4.003906 Z M 5.996094 7.640625 L 5.996094 9.335938 L 7.335938 9.335938 L 7.335938 12 L 5.996094 12 L 5.996094 13.160156 C 4.5 13.023438 3.132812 12.847656 2.171875 12.527344 C 1.644531 12.351562 1.242188 12.132812 1 11.890625 C 0.753906 11.644531 0.648438 11.390625 0.671875 11.019531 C 0.746094 9.890625 1.367188 9.199219 2.363281 8.675781 C 3.332031 8.164062 4.648438 7.863281 5.996094 7.640625 Z M 5.996094 7.640625 "/>
</g>
</svg>
