<svg xmlns="http://www.w3.org/2000/svg" xmlns:xlink="http://www.w3.org/1999/xlink" width="16" height="16" viewBox="0 0 16 16" version="1.1">
<g id="surface1">
<path style=" stroke:none;fill-rule:nonzero;fill:rgb(96.862745%,0%,100%);fill-opacity:1;" d="M 6 3.332031 C 5.628906 3.332031 5.332031 3.628906 5.332031 4 L 5.332031 6 L 4 6 C 3.628906 6 3.332031 6.296875 3.332031 6.667969 L 3.332031 12 C 3.332031 12.371094 3.628906 12.667969 4 12.667969 L 12 12.667969 C 12.371094 12.667969 12.667969 12.371094 12.667969 12 L 12.667969 6.667969 C 12.667969 6.296875 12.371094 6 12 6 L 10.667969 6 L 10.667969 4 C 10.667969 3.628906 10.371094 3.332031 10 3.332031 Z M 6.667969 4.667969 L 9.332031 4.667969 L 9.332031 6 L 6.667969 6 Z M 6.667969 4.667969 "/>
</g>
</svg>
