<svg xmlns="http://www.w3.org/2000/svg" xmlns:xlink="http://www.w3.org/1999/xlink" width="16" height="16" viewBox="0 0 16 16" version="1.1">
<g id="surface1">
<path style=" stroke:none;fill-rule:nonzero;fill:rgb(67.058825%,40.000001%,100%);fill-opacity:1;" d="M 4.667969 3.332031 C 3.929688 3.332031 3.332031 3.929688 3.332031 4.667969 L 3.332031 6.664062 L 4.667969 6.667969 L 4.667969 4.667969 L 11.332031 4.667969 L 11.332031 11.332031 L 4.667969 11.332031 L 4.667969 9.332031 L 3.332031 9.328125 L 3.332031 11.332031 C 3.332031 12.070312 3.929688 12.667969 4.667969 12.667969 L 11.332031 12.667969 C 12.070312 12.667969 12.667969 12.070312 12.667969 11.332031 L 12.667969 4.667969 C 12.667969 3.929688 12.070312 3.332031 11.332031 3.332031 Z M 7.472656 5.332031 L 6.550781 6.257812 L 7.640625 7.347656 L 2.664062 7.332031 L 2.664062 8.667969 L 7.640625 8.679688 L 6.550781 9.769531 L 7.472656 10.695312 L 10.140625 8 Z M 7.472656 5.332031 "/>
</g>
</svg>
