<svg xmlns="http://www.w3.org/2000/svg" xmlns:xlink="http://www.w3.org/1999/xlink" width="16" height="16" viewBox="0 0 16 16" version="1.1">
<g id="surface1">
<path style=" stroke:none;fill-rule:nonzero;fill:rgb(67.058825%,40.000001%,100%);fill-opacity:1;" d="M 3.332031 3.332031 L 3.332031 4.785156 C 7.683594 4.785156 11.210938 8.3125 11.210938 12.664062 L 12.664062 12.664062 C 12.664062 7.511719 8.488281 3.332031 3.332031 3.332031 Z M 3.332031 6.238281 L 3.332031 7.695312 C 6.078125 7.695312 8.304688 9.921875 8.304688 12.664062 L 9.757812 12.664062 C 9.757812 9.117188 6.882812 6.238281 3.332031 6.238281 Z M 4.726562 9.878906 C 3.957031 9.878906 3.332031 10.503906 3.332031 11.273438 C 3.332031 12.042969 3.957031 12.667969 4.726562 12.667969 C 5.496094 12.667969 6.121094 12.042969 6.121094 11.273438 C 6.121094 10.503906 5.496094 9.878906 4.726562 9.878906 Z M 4.726562 9.878906 "/>
</g>
</svg>
