<svg xmlns="http://www.w3.org/2000/svg" xmlns:xlink="http://www.w3.org/1999/xlink" width="16" height="16" viewBox="0 0 16 16" version="1.1">
<g id="surface1">
<path style=" stroke:none;fill-rule:nonzero;fill:rgb(100%,74.901962%,0%);fill-opacity:1;" d="M 4 3.332031 C 3.332031 3.332031 3.332031 4 3.332031 4 L 3.332031 12 C 3.332031 12.667969 4 12.667969 4 12.667969 L 8.507812 12.667969 C 8.242188 12.265625 8.074219 11.808594 8.023438 11.332031 L 4.667969 11.332031 L 4.667969 6.667969 L 11.332031 6.667969 L 11.332031 8.019531 C 11.808594 8.074219 12.265625 8.242188 12.667969 8.507812 L 12.667969 4 C 12.667969 3.332031 12 3.332031 12 3.332031 Z M 11 8.667969 C 9.710938 8.667969 8.667969 9.710938 8.667969 11 C 8.667969 12.289062 9.710938 13.332031 11 13.332031 C 12.289062 13.332031 13.332031 12.289062 13.332031 11 C 13.332031 9.710938 12.289062 8.667969 11 8.667969 Z M 10.667969 9.332031 L 11.332031 9.332031 L 11.332031 10.667969 L 12.667969 10.667969 L 12.667969 11.332031 L 10.667969 11.332031 Z M 10.667969 9.332031 "/>
</g>
</svg>
