<svg xmlns="http://www.w3.org/2000/svg" xmlns:xlink="http://www.w3.org/1999/xlink" width="16" height="16" viewBox="0 0 16 16" version="1.1">
<g id="surface1">
<path style=" stroke:none;fill-rule:nonzero;fill:rgb(0%,100%,66.666669%);fill-opacity:1;" d="M 4 3.332031 C 3.332031 3.332031 3.332031 4 3.332031 4 L 3.332031 12 C 3.332031 12.667969 4 12.667969 4 12.667969 L 8.667969 12.667969 L 8.667969 11.332031 L 4.667969 11.332031 L 4.667969 6.667969 L 11.332031 6.667969 L 11.332031 8.667969 L 12.667969 8.667969 L 12.667969 4 C 12.667969 3.332031 12 3.332031 12 3.332031 Z M 10.667969 9.332031 L 10.667969 10.667969 L 9.332031 10.667969 L 9.332031 12 L 10.667969 12 L 10.667969 13.332031 L 12 13.332031 L 12 12 L 13.332031 12 L 13.332031 10.667969 L 12 10.667969 L 12 9.332031 Z M 10.667969 9.332031 "/>
</g>
</svg>
