<svg xmlns="http://www.w3.org/2000/svg" xmlns:xlink="http://www.w3.org/1999/xlink" width="16" height="16" viewBox="0 0 16 16" version="1.1">
<g id="surface1">
<path style=" stroke:none;fill-rule:nonzero;fill:rgb(96.862745%,0%,100%);fill-opacity:1;" d="M 4.605469 3.355469 C 4.273438 3.386719 4.046875 3.675781 3.980469 3.980469 C 3.789062 4.574219 3.585938 5.175781 3.398438 5.773438 L 3.335938 6.023438 L 3.335938 11.355469 C 3.335938 11.726562 3.632812 12.023438 4.003906 12.023438 L 12.003906 12.023438 C 12.371094 12.023438 12.667969 11.726562 12.667969 11.355469 L 12.667969 6.023438 L 12.585938 5.710938 C 12.359375 5.050781 12.15625 4.367188 11.917969 3.710938 C 11.777344 3.417969 11.453125 3.328125 11.148438 3.355469 Z M 5.152344 4.691406 L 10.839844 4.691406 C 10.914062 4.90625 10.988281 5.136719 11.0625 5.355469 L 4.933594 5.355469 C 5.007812 5.132812 5.078125 4.914062 5.152344 4.691406 Z M 7.335938 6.691406 L 8.667969 6.691406 L 8.667969 8.691406 L 9.835938 8.691406 L 8.003906 10.691406 L 6.167969 8.691406 L 7.335938 8.691406 Z M 7.335938 6.691406 "/>
</g>
</svg>
