<svg xmlns="http://www.w3.org/2000/svg" xmlns:xlink="http://www.w3.org/1999/xlink" width="16" height="16" viewBox="0 0 16 16" version="1.1">
<g id="surface1">
<path style=" stroke:none;fill-rule:nonzero;fill:rgb(96.862745%,0%,100%);fill-opacity:1;" d="M 8 3.335938 C 5.421875 3.335938 3.332031 5.425781 3.332031 8.003906 C 3.332031 10.578125 5.421875 12.667969 8 12.667969 C 10.578125 12.667969 12.667969 10.578125 12.667969 8.003906 C 12.667969 5.425781 10.578125 3.335938 8 3.335938 Z M 8 4.667969 C 8.113281 4.667969 8.222656 4.679688 8.332031 4.691406 C 8.339844 4.691406 8.351562 4.691406 8.359375 4.691406 C 8.429688 4.699219 8.496094 4.707031 8.5625 4.722656 C 8.640625 4.734375 8.714844 4.753906 8.792969 4.773438 C 8.960938 4.816406 9.132812 4.871094 9.292969 4.941406 C 9.378906 4.976562 9.457031 5.019531 9.542969 5.066406 C 9.542969 5.070312 9.542969 5.078125 9.542969 5.085938 C 9.5625 5.09375 9.570312 5.128906 9.605469 5.148438 C 9.617188 5.15625 9.613281 5.164062 9.625 5.171875 C 9.644531 5.179688 9.671875 5.191406 9.667969 5.210938 C 9.660156 5.238281 9.621094 5.230469 9.605469 5.253906 C 9.605469 5.292969 9.574219 5.289062 9.5625 5.316406 C 9.570312 5.332031 9.601562 5.335938 9.605469 5.355469 C 9.601562 5.378906 9.554688 5.375 9.5625 5.398438 C 9.597656 5.425781 9.632812 5.40625 9.667969 5.398438 C 9.742188 5.390625 9.808594 5.394531 9.855469 5.355469 C 9.847656 5.320312 9.921875 5.328125 9.917969 5.292969 C 9.9375 5.308594 9.960938 5.320312 9.980469 5.335938 C 9.972656 5.34375 9.964844 5.351562 9.957031 5.355469 C 9.945312 5.363281 9.929688 5.371094 9.917969 5.378906 C 9.898438 5.390625 9.875 5.40625 9.855469 5.417969 C 9.839844 5.429688 9.808594 5.480469 9.792969 5.480469 C 9.773438 5.480469 9.742188 5.457031 9.730469 5.460938 C 9.710938 5.46875 9.710938 5.496094 9.6875 5.503906 C 9.644531 5.519531 9.558594 5.476562 9.542969 5.542969 C 9.558594 5.582031 9.632812 5.566406 9.667969 5.585938 C 9.6875 5.597656 9.722656 5.648438 9.730469 5.667969 C 9.734375 5.6875 9.738281 5.773438 9.730469 5.792969 C 9.707031 5.847656 9.644531 5.835938 9.582031 5.835938 L 9.542969 5.835938 C 9.4375 5.828125 9.339844 5.78125 9.292969 5.855469 C 9.296875 5.914062 9.304688 5.953125 9.292969 6.003906 C 9.28125 6.039062 9.226562 6.074219 9.230469 6.105469 C 9.230469 6.121094 9.265625 6.148438 9.269531 6.167969 C 9.273438 6.179688 9.265625 6.199219 9.269531 6.210938 C 9.289062 6.242188 9.324219 6.203125 9.355469 6.210938 C 9.382812 6.21875 9.417969 6.261719 9.417969 6.292969 C 9.417969 6.316406 9.410156 6.355469 9.394531 6.375 C 9.367188 6.421875 9.3125 6.414062 9.269531 6.4375 C 9.234375 6.457031 9.230469 6.507812 9.207031 6.542969 C 9.1875 6.582031 9.15625 6.59375 9.167969 6.648438 C 9.136719 6.707031 9.105469 6.746094 9.042969 6.773438 C 9.023438 6.78125 8.996094 6.78125 8.980469 6.792969 C 8.964844 6.804688 8.957031 6.835938 8.9375 6.855469 C 8.914062 6.882812 8.886719 6.898438 8.875 6.917969 C 8.867188 6.933594 8.863281 6.960938 8.855469 6.980469 C 8.839844 7.007812 8.808594 7.015625 8.792969 7.042969 C 8.78125 7.058594 8.78125 7.089844 8.769531 7.105469 C 8.75 7.144531 8.726562 7.175781 8.730469 7.210938 C 8.734375 7.242188 8.769531 7.242188 8.769531 7.273438 C 8.773438 7.289062 8.75 7.296875 8.75 7.316406 C 8.75 7.339844 8.769531 7.359375 8.769531 7.378906 C 8.777344 7.425781 8.738281 7.449219 8.730469 7.480469 C 8.722656 7.496094 8.734375 7.507812 8.730469 7.523438 C 8.722656 7.546875 8.6875 7.574219 8.6875 7.605469 C 8.6875 7.625 8.726562 7.636719 8.730469 7.667969 C 8.730469 7.6875 8.703125 7.710938 8.707031 7.730469 C 8.714844 7.765625 8.785156 7.804688 8.8125 7.835938 C 8.851562 7.871094 8.898438 7.898438 8.917969 7.9375 C 8.929688 7.972656 8.933594 8.039062 8.957031 8.0625 C 8.976562 8.082031 9.015625 8.085938 9.042969 8.105469 C 9.066406 8.125 9.078125 8.128906 9.105469 8.148438 C 9.144531 8.179688 9.207031 8.257812 9.269531 8.25 C 9.304688 8.246094 9.335938 8.214844 9.375 8.210938 C 9.414062 8.203125 9.460938 8.1875 9.5 8.1875 C 9.53125 8.195312 9.570312 8.210938 9.605469 8.210938 C 9.636719 8.203125 9.671875 8.203125 9.707031 8.1875 C 9.773438 8.160156 9.882812 8.113281 9.980469 8.125 C 10.050781 8.136719 10.054688 8.21875 10.105469 8.25 C 10.164062 8.257812 10.203125 8.238281 10.25 8.25 C 10.285156 8.261719 10.328125 8.308594 10.332031 8.335938 C 10.335938 8.363281 10.296875 8.398438 10.292969 8.417969 C 10.28125 8.457031 10.296875 8.496094 10.292969 8.523438 C 10.285156 8.542969 10.269531 8.566406 10.269531 8.585938 C 10.269531 8.601562 10.292969 8.644531 10.3125 8.667969 C 10.335938 8.695312 10.371094 8.722656 10.394531 8.75 C 10.445312 8.808594 10.464844 8.863281 10.5 8.9375 C 10.507812 8.957031 10.492188 8.976562 10.5 9 C 10.484375 9.113281 10.449219 9.191406 10.375 9.3125 C 10.339844 9.355469 10.289062 9.390625 10.292969 9.4375 C 10.289062 9.558594 10.359375 9.636719 10.355469 9.75 C 10.34375 9.90625 10.367188 9.917969 10.355469 10 C 10.40625 10.027344 10.371094 10.113281 10.355469 10.167969 C 10.332031 10.234375 10.304688 10.25 10.292969 10.292969 C 10.328125 10.308594 10.378906 10.304688 10.417969 10.292969 C 10.414062 10.296875 10.414062 10.296875 10.410156 10.300781 C 10.390625 10.320312 10.371094 10.335938 10.355469 10.355469 C 10.210938 10.5 10.046875 10.632812 9.878906 10.75 C 9.863281 10.761719 9.851562 10.773438 9.835938 10.78125 C 9.703125 10.871094 9.5625 10.945312 9.421875 11.015625 C 9.351562 11.046875 9.285156 11.078125 9.214844 11.105469 C 9.210938 11.109375 9.210938 11.109375 9.207031 11.109375 C 9.097656 11.152344 8.984375 11.1875 8.867188 11.222656 C 8.664062 11.277344 8.457031 11.3125 8.25 11.328125 C 8.167969 11.332031 8.085938 11.335938 8 11.335938 C 7.878906 11.335938 7.757812 11.328125 7.636719 11.3125 C 7.507812 11.300781 7.378906 11.277344 7.25 11.246094 C 7.09375 11.207031 6.941406 11.144531 6.792969 11.085938 C 6.785156 11.074219 6.769531 11.058594 6.769531 11.042969 C 6.804688 11.03125 6.871094 11.09375 6.894531 11.042969 C 6.910156 11.019531 6.878906 10.960938 6.894531 10.9375 C 6.90625 10.921875 6.976562 10.921875 7 10.917969 C 7.035156 10.910156 7.085938 10.90625 7.105469 10.898438 C 7.125 10.882812 7.148438 10.835938 7.144531 10.792969 C 7.144531 10.773438 7.121094 10.769531 7.105469 10.75 C 7.089844 10.738281 7.113281 10.726562 7.105469 10.710938 C 7.089844 10.6875 7.046875 10.679688 7.042969 10.648438 C 7.089844 10.636719 7.160156 10.6875 7.230469 10.667969 C 7.261719 10.660156 7.316406 10.59375 7.332031 10.5625 C 7.339844 10.554688 7.328125 10.535156 7.332031 10.523438 C 7.339844 10.511719 7.351562 10.488281 7.355469 10.480469 C 7.359375 10.464844 7.351562 10.472656 7.355469 10.460938 C 7.367188 10.425781 7.398438 10.402344 7.417969 10.378906 C 7.433594 10.359375 7.464844 10.332031 7.480469 10.3125 C 7.496094 10.292969 7.488281 10.292969 7.5 10.273438 C 7.511719 10.210938 7.464844 10.160156 7.480469 10.105469 C 7.496094 10.046875 7.585938 10.007812 7.644531 9.980469 C 7.664062 9.972656 7.691406 9.96875 7.707031 9.960938 C 7.75 9.945312 7.796875 9.933594 7.832031 9.917969 C 7.894531 9.898438 7.90625 9.851562 7.9375 9.796875 C 7.953125 9.769531 7.976562 9.730469 7.980469 9.710938 C 7.980469 9.695312 7.976562 9.691406 7.980469 9.667969 C 7.984375 9.648438 7.972656 9.628906 7.980469 9.605469 C 7.988281 9.578125 8 9.515625 8 9.480469 C 8 9.457031 7.980469 9.441406 7.980469 9.417969 C 7.972656 9.332031 8.007812 9.34375 8.042969 9.292969 C 8.058594 9.269531 8.070312 9.226562 8.082031 9.210938 C 8.136719 9.132812 8.234375 9.101562 8.230469 8.980469 C 8.226562 8.941406 8.195312 8.847656 8.167969 8.835938 C 8.148438 8.828125 8.128906 8.824219 8.105469 8.816406 C 8.027344 8.785156 7.957031 8.695312 7.875 8.691406 L 7.832031 8.691406 C 7.800781 8.691406 7.765625 8.675781 7.730469 8.667969 C 7.707031 8.664062 7.660156 8.675781 7.644531 8.667969 C 7.625 8.660156 7.621094 8.617188 7.605469 8.605469 C 7.589844 8.597656 7.5625 8.59375 7.542969 8.585938 C 7.507812 8.574219 7.496094 8.546875 7.457031 8.542969 C 7.445312 8.542969 7.429688 8.550781 7.417969 8.542969 C 7.394531 8.539062 7.375 8.535156 7.355469 8.523438 C 7.332031 8.507812 7.300781 8.503906 7.292969 8.480469 C 7.3125 8.410156 7.242188 8.398438 7.230469 8.355469 C 7.222656 8.335938 7.234375 8.289062 7.230469 8.273438 C 7.21875 8.25 7.195312 8.230469 7.167969 8.210938 C 7.117188 8.171875 7.089844 8.15625 7.019531 8.148438 C 6.988281 8.140625 6.953125 8.15625 6.917969 8.148438 C 6.878906 8.140625 6.820312 8.121094 6.792969 8.085938 C 6.761719 8.054688 6.753906 8.019531 6.730469 8.003906 C 6.707031 7.988281 6.683594 7.976562 6.667969 7.960938 C 6.660156 7.953125 6.652344 7.957031 6.644531 7.941406 C 6.632812 7.914062 6.609375 7.90625 6.625 7.878906 C 6.597656 7.863281 6.613281 7.902344 6.582031 7.898438 C 6.558594 7.863281 6.539062 7.824219 6.480469 7.835938 C 6.453125 7.84375 6.425781 7.898438 6.394531 7.898438 C 6.371094 7.898438 6.347656 7.839844 6.3125 7.835938 C 6.285156 7.828125 6.246094 7.859375 6.230469 7.855469 C 6.199219 7.851562 6.191406 7.832031 6.167969 7.816406 C 6.148438 7.800781 6.113281 7.773438 6.105469 7.773438 C 6.070312 7.773438 6.046875 7.839844 6 7.816406 C 5.976562 7.785156 6.046875 7.777344 6.019531 7.753906 C 6 7.734375 5.996094 7.765625 5.980469 7.773438 C 5.960938 7.785156 5.9375 7.785156 5.917969 7.792969 C 5.871094 7.8125 5.828125 7.816406 5.792969 7.835938 C 5.757812 7.851562 5.75 7.863281 5.730469 7.898438 C 5.714844 7.925781 5.691406 7.980469 5.667969 7.980469 C 5.636719 7.980469 5.628906 7.949219 5.605469 7.941406 C 5.527344 7.90625 5.480469 7.960938 5.417969 7.960938 C 5.359375 7.960938 5.269531 7.871094 5.269531 7.816406 C 5.273438 7.78125 5.289062 7.730469 5.292969 7.691406 C 5.296875 7.65625 5.332031 7.617188 5.332031 7.585938 C 5.335938 7.542969 5.253906 7.527344 5.230469 7.523438 C 5.167969 7.511719 5.09375 7.550781 5.019531 7.523438 C 5.007812 7.5 5.035156 7.484375 5.042969 7.460938 C 5.046875 7.449219 5.035156 7.433594 5.042969 7.417969 C 5.050781 7.398438 5.09375 7.378906 5.105469 7.355469 C 5.113281 7.339844 5.097656 7.316406 5.105469 7.292969 C 5.113281 7.269531 5.144531 7.25 5.144531 7.230469 C 5.148438 7.210938 5.121094 7.183594 5.105469 7.167969 C 5.050781 7.175781 5.011719 7.175781 4.980469 7.191406 C 4.90625 7.222656 4.925781 7.316406 4.855469 7.335938 C 4.828125 7.34375 4.800781 7.351562 4.769531 7.359375 C 4.757812 7.363281 4.742188 7.359375 4.730469 7.359375 C 4.734375 7.34375 4.734375 7.332031 4.738281 7.320312 C 4.742188 7.3125 4.75 7.304688 4.75 7.296875 C 4.796875 7.078125 4.871094 6.871094 4.957031 6.671875 L 4.980469 6.671875 C 5.003906 6.675781 5.019531 6.710938 5.042969 6.710938 C 5.101562 6.71875 5.117188 6.65625 5.167969 6.628906 C 5.21875 6.636719 5.246094 6.621094 5.292969 6.628906 C 5.324219 6.636719 5.371094 6.667969 5.394531 6.667969 C 5.417969 6.667969 5.417969 6.644531 5.4375 6.648438 C 5.457031 6.65625 5.496094 6.6875 5.5 6.710938 C 5.503906 6.742188 5.46875 6.78125 5.480469 6.816406 C 5.511719 6.847656 5.582031 6.859375 5.625 6.878906 C 5.65625 6.851562 5.628906 6.808594 5.625 6.773438 C 5.625 6.757812 5.625 6.726562 5.625 6.710938 C 5.621094 6.6875 5.605469 6.667969 5.605469 6.648438 C 5.605469 6.554688 5.6875 6.519531 5.75 6.480469 C 5.777344 6.464844 5.808594 6.429688 5.832031 6.417969 C 5.867188 6.402344 5.886719 6.414062 5.917969 6.398438 C 5.96875 6.371094 6.003906 6.328125 6.042969 6.292969 C 6.058594 6.25 6.039062 6.191406 6.042969 6.148438 C 6.058594 6.136719 6.085938 6.148438 6.105469 6.148438 C 6.136719 6.140625 6.148438 6.101562 6.167969 6.085938 C 6.175781 6.074219 6.195312 6.074219 6.207031 6.066406 C 6.238281 6.042969 6.246094 6.011719 6.269531 6.003906 C 6.28125 5.996094 6.296875 5.988281 6.3125 5.980469 C 6.332031 5.976562 6.363281 5.972656 6.394531 5.960938 C 6.417969 5.953125 6.472656 5.949219 6.480469 5.941406 C 6.488281 5.929688 6.476562 5.894531 6.480469 5.878906 C 6.496094 5.800781 6.597656 5.800781 6.667969 5.773438 C 6.714844 5.757812 6.761719 5.703125 6.8125 5.710938 C 6.800781 5.746094 6.761719 5.75 6.769531 5.792969 C 6.78125 5.855469 6.855469 5.78125 6.875 5.773438 C 6.914062 5.753906 6.988281 5.730469 7.042969 5.710938 C 7.089844 5.691406 7.167969 5.679688 7.125 5.628906 C 7.089844 5.621094 7.074219 5.65625 7.042969 5.667969 C 7.019531 5.675781 7.019531 5.648438 7 5.648438 C 6.980469 5.648438 6.976562 5.671875 6.957031 5.667969 C 6.941406 5.660156 6.917969 5.628906 6.917969 5.605469 C 6.910156 5.550781 6.957031 5.542969 6.980469 5.5 C 6.964844 5.449219 6.898438 5.480469 6.855469 5.460938 C 6.859375 5.429688 6.882812 5.40625 6.917969 5.398438 C 6.945312 5.390625 7.023438 5.402344 7.042969 5.417969 C 7.050781 5.429688 7.027344 5.445312 7.042969 5.460938 C 7.058594 5.476562 7.082031 5.46875 7.105469 5.460938 C 7.113281 5.421875 7.054688 5.445312 7.0625 5.417969 C 7.109375 5.390625 7.195312 5.40625 7.25 5.398438 C 7.28125 5.390625 7.324219 5.371094 7.355469 5.355469 C 7.378906 5.339844 7.386719 5.3125 7.417969 5.335938 C 7.425781 5.363281 7.410156 5.382812 7.394531 5.398438 C 7.34375 5.445312 7.289062 5.492188 7.25 5.542969 C 7.273438 5.566406 7.3125 5.558594 7.355469 5.566406 C 7.371094 5.570312 7.398438 5.558594 7.417969 5.566406 C 7.4375 5.570312 7.464844 5.558594 7.480469 5.566406 C 7.507812 5.570312 7.511719 5.628906 7.542969 5.628906 C 7.585938 5.628906 7.566406 5.574219 7.542969 5.542969 C 7.550781 5.511719 7.574219 5.484375 7.5625 5.460938 C 7.542969 5.417969 7.460938 5.472656 7.457031 5.417969 C 7.457031 5.386719 7.488281 5.382812 7.5 5.355469 C 7.496094 5.292969 7.546875 5.289062 7.542969 5.230469 C 7.539062 5.207031 7.515625 5.210938 7.5 5.191406 C 7.492188 5.179688 7.488281 5.136719 7.480469 5.128906 C 7.445312 5.097656 7.378906 5.121094 7.375 5.066406 C 7.375 5.03125 7.378906 4.996094 7.375 4.960938 C 7.371094 4.925781 7.339844 4.820312 7.3125 4.816406 C 7.273438 4.808594 7.253906 4.878906 7.207031 4.898438 C 7.183594 4.910156 7.128906 4.921875 7.105469 4.917969 C 7.089844 4.914062 7.066406 4.910156 7.0625 4.878906 C 7.058594 4.847656 7.09375 4.835938 7.105469 4.816406 C 7.105469 4.808594 7.101562 4.800781 7.105469 4.792969 C 7.121094 4.789062 7.136719 4.785156 7.152344 4.78125 C 7.226562 4.761719 7.296875 4.746094 7.371094 4.730469 C 7.378906 4.734375 7.386719 4.734375 7.394531 4.730469 C 7.484375 4.714844 7.574219 4.699219 7.667969 4.691406 C 7.777344 4.679688 7.886719 4.667969 8 4.667969 Z M 6.644531 4.980469 C 6.625 5.101562 6.511719 5.152344 6.375 5.148438 C 6.34375 5.179688 6.371094 5.234375 6.355469 5.273438 C 6.339844 5.308594 6.285156 5.339844 6.25 5.335938 C 6.226562 5.335938 6.1875 5.296875 6.1875 5.273438 C 6.1875 5.246094 6.234375 5.242188 6.207031 5.210938 C 6.210938 5.203125 6.222656 5.195312 6.230469 5.191406 C 6.242188 5.179688 6.257812 5.179688 6.269531 5.167969 C 6.390625 5.09375 6.515625 5.039062 6.644531 4.980469 Z M 9.4375 5.105469 C 9.425781 5.113281 9.425781 5.121094 9.417969 5.128906 C 9.390625 5.144531 9.375 5.164062 9.355469 5.167969 C 9.328125 5.179688 9.296875 5.1875 9.292969 5.210938 C 9.289062 5.230469 9.3125 5.234375 9.3125 5.253906 C 9.300781 5.277344 9.296875 5.285156 9.292969 5.316406 C 9.324219 5.371094 9.394531 5.304688 9.4375 5.292969 C 9.457031 5.289062 9.46875 5.289062 9.480469 5.273438 C 9.492188 5.253906 9.492188 5.234375 9.5 5.210938 C 9.507812 5.179688 9.546875 5.171875 9.542969 5.148438 C 9.539062 5.121094 9.480469 5.101562 9.4375 5.105469 Z M 5.792969 5.523438 C 5.824219 5.550781 5.867188 5.605469 5.8125 5.628906 C 5.804688 5.632812 5.722656 5.652344 5.707031 5.648438 C 5.703125 5.648438 5.691406 5.632812 5.6875 5.628906 C 5.722656 5.59375 5.753906 5.554688 5.792969 5.523438 Z M 5.917969 5.648438 C 5.933594 5.648438 5.941406 5.6875 5.957031 5.691406 C 5.976562 5.691406 5.988281 5.667969 6 5.667969 C 6.027344 5.675781 6.046875 5.730469 6.019531 5.753906 C 6 5.757812 5.996094 5.730469 5.980469 5.730469 C 5.933594 5.738281 5.910156 5.839844 5.875 5.835938 C 5.84375 5.828125 5.820312 5.753906 5.855469 5.730469 C 5.855469 5.710938 5.851562 5.710938 5.855469 5.691406 C 5.863281 5.679688 5.890625 5.644531 5.917969 5.648438 Z M 5.75 5.667969 C 5.757812 5.667969 5.765625 5.664062 5.769531 5.667969 C 5.765625 5.703125 5.757812 5.714844 5.730469 5.730469 C 5.683594 5.761719 5.640625 5.796875 5.625 5.855469 C 5.621094 5.875 5.5625 5.921875 5.542969 5.917969 C 5.488281 5.90625 5.570312 5.808594 5.582031 5.792969 C 5.597656 5.777344 5.609375 5.773438 5.625 5.753906 C 5.640625 5.734375 5.652344 5.699219 5.667969 5.691406 C 5.683594 5.679688 5.722656 5.667969 5.75 5.667969 Z M 10.269531 5.773438 C 10.324219 5.765625 10.351562 5.824219 10.375 5.855469 C 10.394531 5.882812 10.445312 5.921875 10.480469 5.941406 C 10.496094 5.949219 10.523438 5.972656 10.542969 5.980469 C 10.585938 6 10.664062 6.0625 10.667969 6.105469 C 10.667969 6.128906 10.640625 6.148438 10.644531 6.167969 C 10.679688 6.175781 10.707031 6.117188 10.707031 6.085938 C 10.769531 6.171875 10.824219 6.265625 10.875 6.355469 C 10.898438 6.398438 10.933594 6.4375 10.957031 6.480469 C 10.929688 6.492188 10.921875 6.496094 10.917969 6.523438 C 10.910156 6.5625 10.929688 6.621094 10.875 6.628906 C 10.839844 6.632812 10.796875 6.597656 10.75 6.585938 C 10.730469 6.578125 10.703125 6.59375 10.6875 6.585938 C 10.652344 6.574219 10.65625 6.523438 10.625 6.503906 C 10.605469 6.488281 10.550781 6.464844 10.519531 6.460938 C 10.503906 6.460938 10.496094 6.46875 10.480469 6.460938 C 10.457031 6.453125 10.414062 6.46875 10.394531 6.460938 C 10.378906 6.449219 10.339844 6.414062 10.332031 6.398438 C 10.324219 6.375 10.394531 6.355469 10.394531 6.335938 C 10.398438 6.320312 10.378906 6.296875 10.375 6.273438 C 10.371094 6.257812 10.378906 6.242188 10.375 6.230469 C 10.371094 6.214844 10.339844 6.210938 10.3125 6.210938 L 10.25 6.210938 C 10.21875 6.210938 10.160156 6.207031 10.125 6.210938 L 10.0625 6.210938 C 10.003906 6.21875 9.960938 6.203125 9.917969 6.210938 C 9.882812 6.210938 9.820312 6.238281 9.792969 6.253906 C 9.777344 6.261719 9.769531 6.261719 9.75 6.273438 C 9.742188 6.28125 9.722656 6.289062 9.707031 6.292969 C 9.691406 6.304688 9.664062 6.332031 9.644531 6.335938 C 9.621094 6.34375 9.589844 6.328125 9.542969 6.335938 C 9.507812 6.335938 9.460938 6.3125 9.457031 6.273438 C 9.457031 6.210938 9.566406 6.242188 9.625 6.230469 C 9.644531 6.226562 9.660156 6.207031 9.6875 6.191406 C 9.699219 6.183594 9.695312 6.175781 9.707031 6.167969 C 9.726562 6.15625 9.765625 6.121094 9.769531 6.105469 C 9.773438 6.09375 9.769531 6.074219 9.769531 6.066406 C 9.773438 6.050781 9.792969 6.042969 9.8125 6.023438 C 9.839844 5.996094 9.859375 5.957031 9.894531 5.941406 C 9.917969 5.929688 9.949219 5.917969 9.957031 5.898438 C 9.960938 5.878906 9.957031 5.878906 9.957031 5.859375 C 9.972656 5.84375 9.988281 5.839844 10 5.835938 C 10.035156 5.828125 10.0625 5.835938 10.105469 5.835938 C 10.121094 5.835938 10.148438 5.847656 10.167969 5.835938 C 10.183594 5.828125 10.191406 5.804688 10.207031 5.796875 C 10.226562 5.785156 10.25 5.777344 10.269531 5.773438 Z M 10.644531 6.167969 L 10.5625 6.167969 C 10.53125 6.167969 10.496094 6.152344 10.480469 6.167969 C 10.503906 6.210938 10.550781 6.222656 10.605469 6.230469 C 10.625 6.21875 10.636719 6.195312 10.644531 6.167969 Z M 6.082031 5.792969 L 6.144531 5.792969 C 6.164062 5.792969 6.179688 5.789062 6.1875 5.792969 C 6.175781 5.839844 6.078125 5.832031 6.042969 5.816406 C 6.042969 5.796875 6.0625 5.796875 6.082031 5.792969 Z M 5.9375 5.878906 C 5.910156 5.898438 5.878906 5.925781 5.832031 5.941406 C 5.808594 5.949219 5.777344 5.949219 5.769531 5.917969 C 5.765625 5.886719 5.8125 5.902344 5.832031 5.898438 C 5.863281 5.890625 5.902344 5.878906 5.9375 5.878906 Z M 10.269531 5.878906 C 10.25 5.886719 10.238281 5.933594 10.269531 5.941406 C 10.285156 5.929688 10.296875 5.90625 10.292969 5.878906 C 10.28125 5.867188 10.277344 5.871094 10.269531 5.878906 Z M 10.230469 5.980469 C 10.230469 6.019531 10.238281 6.054688 10.230469 6.085938 C 10.25 6.128906 10.300781 6.09375 10.3125 6.066406 C 10.324219 5.996094 10.304688 5.972656 10.269531 5.980469 C 10.261719 5.988281 10.242188 5.972656 10.230469 5.980469 Z M 4.707031 7.542969 C 4.746094 7.578125 4.765625 7.625 4.8125 7.648438 C 4.828125 7.65625 4.855469 7.664062 4.875 7.667969 C 4.890625 7.675781 4.898438 7.664062 4.917969 7.667969 C 4.953125 7.679688 4.992188 7.699219 5.019531 7.710938 C 5.0625 7.730469 5.109375 7.792969 5.144531 7.816406 C 5.148438 7.835938 5.140625 7.863281 5.144531 7.878906 C 5.164062 7.902344 5.179688 7.925781 5.207031 7.941406 C 5.242188 7.957031 5.257812 7.988281 5.292969 8.003906 C 5.304688 8.007812 5.316406 7.996094 5.332031 8.003906 C 5.378906 8.015625 5.398438 8.078125 5.4375 8.066406 C 5.460938 8.058594 5.453125 8.027344 5.457031 8.003906 C 5.476562 7.984375 5.496094 7.960938 5.519531 7.960938 C 5.5625 7.960938 5.566406 8.023438 5.582031 8.066406 C 5.59375 8.085938 5.617188 8.105469 5.625 8.128906 C 5.636719 8.167969 5.632812 8.289062 5.625 8.316406 C 5.613281 8.34375 5.566406 8.34375 5.542969 8.378906 C 5.53125 8.394531 5.53125 8.429688 5.519531 8.441406 C 5.503906 8.460938 5.492188 8.464844 5.480469 8.480469 C 5.472656 8.492188 5.464844 8.507812 5.457031 8.523438 C 5.4375 8.566406 5.398438 8.597656 5.417969 8.648438 C 5.421875 8.667969 5.457031 8.6875 5.457031 8.710938 C 5.457031 8.742188 5.402344 8.761719 5.394531 8.792969 C 5.390625 8.816406 5.410156 8.847656 5.417969 8.878906 C 5.421875 8.902344 5.464844 8.925781 5.480469 8.941406 C 5.503906 8.964844 5.519531 9.011719 5.542969 9.042969 C 5.582031 9.109375 5.605469 9.1875 5.644531 9.253906 C 5.667969 9.285156 5.714844 9.300781 5.730469 9.335938 C 5.738281 9.351562 5.722656 9.382812 5.730469 9.398438 C 5.753906 9.453125 5.863281 9.519531 5.917969 9.542969 C 5.941406 9.558594 5.976562 9.550781 6 9.566406 C 6.035156 9.585938 6.105469 9.636719 6.125 9.667969 C 6.140625 9.699219 6.136719 9.769531 6.144531 9.816406 C 6.15625 9.875 6.144531 9.917969 6.144531 9.980469 C 6.148438 10.015625 6.167969 10.03125 6.167969 10.066406 C 6.167969 10.078125 6.167969 10.117188 6.167969 10.128906 C 6.164062 10.171875 6.171875 10.210938 6.167969 10.253906 C 6.164062 10.273438 6.164062 10.296875 6.167969 10.316406 C 6.167969 10.335938 6.1875 10.339844 6.1875 10.355469 C 6.1875 10.375 6.164062 10.402344 6.167969 10.417969 C 6.171875 10.460938 6.199219 10.484375 6.207031 10.523438 C 6.214844 10.554688 6.234375 10.632812 6.230469 10.667969 C 6.226562 10.6875 6.210938 10.710938 6.207031 10.730469 C 6.207031 10.75 6.210938 10.757812 6.207031 10.773438 C 6.207031 10.785156 6.210938 10.796875 6.207031 10.808594 C 6.183594 10.792969 6.15625 10.78125 6.132812 10.765625 C 5.960938 10.644531 5.792969 10.503906 5.644531 10.355469 C 5.625 10.335938 5.601562 10.316406 5.582031 10.296875 C 5.464844 10.167969 5.347656 10.023438 5.25 9.878906 C 5.242188 9.863281 5.238281 9.847656 5.230469 9.835938 C 5.113281 9.664062 5.019531 9.488281 4.9375 9.292969 C 4.929688 9.28125 4.921875 9.265625 4.917969 9.253906 C 4.847656 9.078125 4.789062 8.898438 4.75 8.710938 C 4.742188 8.675781 4.734375 8.640625 4.730469 8.605469 C 4.710938 8.519531 4.695312 8.425781 4.6875 8.335938 C 4.675781 8.222656 4.667969 8.117188 4.667969 8.003906 C 4.667969 7.84375 4.6875 7.695312 4.707031 7.542969 Z M 6 7.898438 C 6.03125 7.882812 6.027344 7.9375 6 7.941406 C 5.976562 7.945312 5.976562 7.910156 6 7.898438 Z M 6 7.898438 "/>
</g>
</svg>
