<svg xmlns="http://www.w3.org/2000/svg" xmlns:xlink="http://www.w3.org/1999/xlink" width="16" height="16" viewBox="0 0 16 16" version="1.1">
<g id="surface1">
<path style=" stroke:none;fill-rule:nonzero;fill:rgb(67.058825%,40.000001%,100%);fill-opacity:1;" d="M 12.667969 9.332031 L 12.667969 12 L 11.332031 12 L 11.332031 9.332031 Z M 4.667969 9.332031 L 4.667969 12 L 4 12 C 3.632812 12 3.332031 11.699219 3.332031 11.332031 L 3.332031 9.332031 Z M 8 0.667969 C 4.6875 0.667969 2 3.351562 2 6.667969 L 2 11.332031 C 2 12.441406 2.894531 13.332031 4 13.332031 L 6 13.332031 L 6 8 L 3.332031 8 L 3.332031 6.667969 C 3.332031 4.085938 5.421875 2 8 2 C 10.578125 2 12.667969 4.085938 12.667969 6.667969 L 12.667969 8 L 10 8 L 10 13.332031 L 12.667969 13.332031 L 12.667969 14 L 8 14 L 8 15.332031 L 12 15.332031 C 13.105469 15.332031 14 14.441406 14 13.332031 L 14 6.667969 C 14 3.351562 11.3125 0.667969 8 0.667969 Z M 8 0.667969 "/>
</g>
</svg>
