<svg xmlns="http://www.w3.org/2000/svg" xmlns:xlink="http://www.w3.org/1999/xlink" width="16" height="16" viewBox="0 0 16 16" version="1.1">
<g id="surface1">
<path style=" stroke:none;fill-rule:nonzero;fill:rgb(100%,74.901962%,0%);fill-opacity:1;" d="M 12.667969 8 C 12.667969 5.851562 11.863281 4.011719 10.703125 3.167969 L 9.933594 3.859375 C 10.933594 4.566406 11.628906 6.160156 11.628906 8 C 11.628906 9.839844 10.933594 11.433594 9.933594 12.140625 L 10.703125 12.832031 C 11.863281 11.988281 12.667969 10.148438 12.667969 8 Z M 12.667969 8 "/>
<path style=" stroke:none;fill-rule:nonzero;fill:rgb(100%,74.901962%,0%);fill-opacity:1;" d="M 10.625 8 C 10.625 6.546875 10.074219 5.277344 9.238281 4.476562 L 8.527344 5.113281 C 9.171875 5.796875 9.585938 6.832031 9.585938 8 C 9.585938 9.167969 9.171875 10.203125 8.527344 10.886719 L 9.238281 11.523438 C 10.074219 10.722656 10.625 9.453125 10.625 8 Z M 10.625 8 "/>
<path style=" stroke:none;fill-rule:nonzero;fill:rgb(100%,74.901962%,0%);fill-opacity:1;" d="M 8.660156 8 C 8.660156 7.117188 8.367188 6.304688 7.890625 5.671875 L 7.160156 6.324219 C 7.777344 7.355469 7.777344 8.644531 7.160156 9.675781 L 7.890625 10.328125 C 8.394531 9.65625 8.664062 8.839844 8.660156 8 Z M 2.667969 6.667969 L 2.667969 9.332031 L 3.769531 9.332031 L 6 11.578125 L 6 4.421875 L 3.769531 6.667969 Z M 2.667969 6.667969 "/>
</g>
</svg>
