<svg xmlns="http://www.w3.org/2000/svg" xmlns:xlink="http://www.w3.org/1999/xlink" width="16" height="16" viewBox="0 0 16 16" version="1.1">
<g id="surface1">
<path style=" stroke:none;fill-rule:nonzero;fill:rgb(0%,80.000001%,100%);fill-opacity:1;" d="M 12.667969 10.332031 L 12.667969 12.332031 C 12.667969 12.699219 12.367188 13 12 13 L 11.332031 13 L 11.332031 10.332031 Z M 4.667969 10.332031 L 4.667969 13 L 4 13 C 3.632812 13 3.332031 12.699219 3.332031 12.332031 L 3.332031 10.332031 Z M 8 1.667969 C 4.6875 1.667969 2 4.351562 2 7.667969 L 2 12.332031 C 2 13.441406 2.894531 14.332031 4 14.332031 L 6 14.332031 L 6 9 L 3.332031 9 L 3.332031 7.667969 C 3.332031 5.085938 5.421875 3 8 3 C 10.578125 3 12.667969 5.085938 12.667969 7.667969 L 12.667969 9 L 10 9 L 10 14.332031 L 12 14.332031 C 13.105469 14.332031 14 13.441406 14 12.332031 L 14 7.667969 C 14 4.351562 11.3125 1.667969 8 1.667969 Z M 8 1.667969 "/>
</g>
</svg>
