<svg xmlns="http://www.w3.org/2000/svg" xmlns:xlink="http://www.w3.org/1999/xlink" width="16" height="16" viewBox="0 0 16 16" version="1.1">
<g id="surface1">
<path style=" stroke:none;fill-rule:nonzero;fill:rgb(100%,30.980393%,30.980393%);fill-opacity:1;" d="M 2 2 L 2 14 L 3.332031 14 L 3.332031 12 L 4 12 L 4 12.667969 L 6.667969 12.667969 L 6.667969 12 L 7.332031 12 L 7.332031 12.667969 L 12 12.667969 L 12 12 L 12.667969 12 C 13.40625 12 14 11.40625 14 10.667969 L 14 4.667969 C 14 3.929688 13.40625 3.332031 12.667969 3.332031 L 3.332031 3.332031 L 3.332031 2 Z M 3.332031 4.667969 L 12.667969 4.667969 L 12.667969 10.667969 L 3.332031 10.667969 Z M 4 5.332031 L 4 8 L 6.667969 8 L 6.667969 5.332031 Z M 7.332031 5.332031 L 7.332031 6.667969 L 12 6.667969 L 12 5.332031 Z M 7.332031 7.332031 L 7.332031 10 L 12 10 L 12 7.332031 Z M 4 8.667969 L 4 10 L 6.667969 10 L 6.667969 8.667969 Z M 4 8.667969 "/>
</g>
</svg>
