<svg xmlns="http://www.w3.org/2000/svg" xmlns:xlink="http://www.w3.org/1999/xlink" width="16" height="16" viewBox="0 0 16 16" version="1.1">
<g id="surface1">
<path style=" stroke:none;fill-rule:nonzero;fill:rgb(100%,74.901962%,0%);fill-opacity:1;" d="M 12 1.332031 L 6.667969 1.332031 L 2.667969 5.332031 L 2.667969 13.332031 C 2.667969 14.066406 3.265625 14.667969 4 14.667969 L 12 14.667969 C 12.734375 14.667969 13.332031 14.066406 13.332031 13.332031 L 13.332031 2.667969 C 13.332031 1.933594 12.734375 1.332031 12 1.332031 Z M 12 2.667969 L 12 13.332031 L 4 13.332031 L 4 5.886719 L 7.21875 2.667969 Z M 4.667969 11.332031 L 6 11.332031 L 6 12.667969 L 4.667969 12.667969 Z M 10 11.332031 L 11.332031 11.332031 L 11.332031 12.667969 L 10 12.667969 Z M 4.667969 7.332031 L 6 7.332031 L 6 10 L 4.667969 10 Z M 7.332031 10 L 8.667969 10 L 8.667969 12.667969 L 7.332031 12.667969 Z M 7.332031 7.332031 L 8.667969 7.332031 L 8.667969 8.667969 L 7.332031 8.667969 Z M 10 7.332031 L 11.332031 7.332031 L 11.332031 10 L 10 10 Z M 10 7.332031 "/>
</g>
</svg>
