<svg xmlns="http://www.w3.org/2000/svg" xmlns:xlink="http://www.w3.org/1999/xlink" width="16" height="16" viewBox="0 0 16 16" version="1.1">
<g id="surface1">
<path style=" stroke:none;fill-rule:nonzero;fill:rgb(100%,30.980393%,30.980393%);fill-opacity:1;" d="M 8 2.667969 C 7.632812 2.667969 7.332031 2.964844 7.332031 3.332031 C 7.332031 3.703125 7.632812 4 8 4 C 8.367188 4 8.667969 3.703125 8.667969 3.332031 C 8.667969 2.964844 8.367188 2.667969 8 2.667969 Z M 8 4 L 4.265625 4 C 3.75 4 3.332031 4.597656 3.332031 5.089844 L 3.332031 9.535156 C 3.332031 10.027344 3.75 10.667969 4.265625 10.667969 L 7.066406 10.667969 L 7.066406 11.332031 L 5.199219 11.332031 L 5.199219 12.667969 L 10.800781 12.667969 L 10.800781 11.332031 L 8.933594 11.332031 L 8.933594 10.667969 L 11.734375 10.667969 C 12.25 10.667969 12.667969 10.027344 12.667969 9.535156 L 12.667969 5.089844 C 12.667969 4.597656 12.25 4 11.734375 4 Z M 5 5.332031 L 11 5.332031 C 11.554688 5.332031 12 5.628906 12 6 C 12 6.371094 11.554688 6.667969 11 6.667969 L 5 6.667969 C 4.445312 6.667969 4 6.371094 4 6 C 4 5.628906 4.445312 5.332031 5 5.332031 Z M 5 5.332031 "/>
</g>
</svg>
