<svg xmlns="http://www.w3.org/2000/svg" xmlns:xlink="http://www.w3.org/1999/xlink" width="16" height="16" viewBox="0 0 16 16" version="1.1">
<g id="surface1">
<path style=" stroke:none;fill-rule:nonzero;fill:rgb(67.058825%,40.000001%,100%);fill-opacity:1;" d="M 6 10.667969 L 8 13.332031 L 10 10.667969 Z M 6 10.667969 "/>
<path style=" stroke:none;fill-rule:nonzero;fill:rgb(67.058825%,40.000001%,100%);fill-opacity:1;" d="M 4 4 L 5.332031 4 C 5.703125 4 6 4.296875 6 4.667969 L 6 6 C 6 6.367188 5.703125 6.667969 5.332031 6.667969 L 4 6.667969 C 3.632812 6.667969 3.332031 6.367188 3.332031 6 L 3.332031 4.667969 C 3.332031 4.296875 3.632812 4 4 4 Z M 4 4 "/>
<path style=" stroke:none;fill-rule:nonzero;fill:rgb(67.058825%,40.000001%,100%);fill-opacity:1;" d="M 7.332031 4 L 8.667969 4 C 9.035156 4 9.332031 4.296875 9.332031 4.667969 L 9.332031 6 C 9.332031 6.367188 9.035156 6.667969 8.667969 6.667969 L 7.332031 6.667969 C 6.964844 6.667969 6.667969 6.367188 6.667969 6 L 6.667969 4.667969 C 6.667969 4.296875 6.964844 4 7.332031 4 Z M 7.332031 4 "/>
<path style=" stroke:none;fill-rule:nonzero;fill:rgb(67.058825%,40.000001%,100%);fill-opacity:1;" d="M 10.667969 4 L 12 4 C 12.367188 4 12.667969 4.296875 12.667969 4.667969 L 12.667969 6 C 12.667969 6.367188 12.367188 6.667969 12 6.667969 L 10.667969 6.667969 C 10.296875 6.667969 10 6.367188 10 6 L 10 4.667969 C 10 4.296875 10.296875 4 10.667969 4 Z M 10.667969 4 "/>
<path style=" stroke:none;fill-rule:nonzero;fill:rgb(67.058825%,40.000001%,100%);fill-opacity:1;" d="M 10 7.332031 L 11.332031 7.332031 C 11.703125 7.332031 12 7.632812 12 8 L 12 9.332031 C 12 9.703125 11.703125 10 11.332031 10 L 10 10 C 9.632812 10 9.332031 9.703125 9.332031 9.332031 L 9.332031 8 C 9.332031 7.632812 9.632812 7.332031 10 7.332031 Z M 10 7.332031 "/>
<path style=" stroke:none;fill-rule:nonzero;fill:rgb(67.058825%,40.000001%,100%);fill-opacity:1;" d="M 4.667969 7.332031 L 8 7.332031 C 8.367188 7.332031 8.667969 7.632812 8.667969 8 L 8.667969 9.332031 C 8.667969 9.703125 8.367188 10 8 10 L 4.667969 10 C 4.296875 10 4 9.703125 4 9.332031 L 4 8 C 4 7.632812 4.296875 7.332031 4.667969 7.332031 Z M 4.667969 7.332031 "/>
</g>
</svg>
