<svg xmlns="http://www.w3.org/2000/svg" xmlns:xlink="http://www.w3.org/1999/xlink" width="16" height="16" viewBox="0 0 16 16" version="1.1">
<g id="surface1">
<path style=" stroke:none;fill-rule:nonzero;fill:rgb(67.058825%,40.000001%,100%);fill-opacity:1;" d="M 2.667969 3.328125 L 2.667969 9.996094 L 2.675781 9.996094 L 2.667969 10.003906 L 5.328125 12.664062 L 7.335938 12.664062 L 7.335938 12 L 6 12 L 6 9.332031 L 3.332031 9.332031 L 3.332031 4 L 12.664062 4 L 12.664062 7.332031 L 13.335938 7.332031 C 13.335938 7.347656 13.335938 5.996094 13.335938 4 L 13.335938 3.332031 L 13.332031 3.332031 L 13.332031 3.328125 Z M 12 7.332031 L 11.335938 8 L 8 11.332031 L 8 12.667969 L 9.335938 12.667969 L 10 12 L 12.667969 9.332031 L 13.335938 8.667969 Z M 11.8125 8.457031 L 12.1875 8.855469 L 8.875 12.1875 L 8.480469 11.792969 Z M 11.8125 8.457031 "/>
</g>
</svg>
