<svg xmlns="http://www.w3.org/2000/svg" xmlns:xlink="http://www.w3.org/1999/xlink" width="16" height="16" viewBox="0 0 16 16" version="1.1">
<g id="surface1">
<path style=" stroke:none;fill-rule:nonzero;fill:rgb(0%,80.000001%,100%);fill-opacity:1;" d="M 8.667969 2.667969 C 5.710938 2.667969 3.332031 5.046875 3.332031 8 L 3.332031 11.339844 L 2.4375 10.367188 L 2 10.832031 L 3.542969 12.519531 L 3.667969 12.667969 L 3.792969 12.519531 L 5.335938 10.832031 L 4.898438 10.367188 L 4 11.339844 L 4 8 C 4 5.414062 6.082031 3.332031 8.667969 3.332031 C 11.253906 3.332031 13.332031 5.414062 13.332031 8 C 13.332031 10.585938 11.253906 12.667969 8.667969 12.667969 C 7.941406 12.667969 7.277344 12.472656 6.667969 12.179688 L 6.667969 12.929688 C 7.285156 13.179688 7.957031 13.332031 8.667969 13.332031 C 11.621094 13.332031 14 10.953125 14 8 C 14 5.046875 11.621094 2.667969 8.667969 2.667969 Z M 8 4 L 8 8.667969 L 12 8.667969 L 12 8 L 8.667969 8 L 8.667969 4 Z M 8 4 "/>
</g>
</svg>
