<svg xmlns="http://www.w3.org/2000/svg" xmlns:xlink="http://www.w3.org/1999/xlink" width="16" height="16" viewBox="0 0 16 16" version="1.1">
<g id="surface1">
<path style=" stroke:none;fill-rule:nonzero;fill:rgb(100%,30.980393%,30.980393%);fill-opacity:1;" d="M 10 3.332031 L 9.617188 4.410156 L 8.585938 3.917969 L 9.074219 4.949219 L 8 5.332031 L 9.074219 5.714844 L 8.585938 6.746094 L 9.617188 6.257812 L 10 7.332031 L 10.382812 6.257812 L 11.414062 6.746094 L 10.925781 5.714844 L 12 5.332031 L 10.925781 4.949219 L 11.414062 3.917969 L 10.382812 4.410156 Z M 6.667969 4 C 6.527344 4.441406 6.34375 4.875 6.140625 5.300781 C 5.113281 7.398438 3.507812 8.835938 3.351562 10.160156 C 3.347656 10.179688 3.335938 10.203125 3.332031 10.222656 L 3.347656 10.226562 C 3.34375 10.273438 3.332031 10.316406 3.332031 10.363281 C 3.332031 12.003906 4.824219 13.332031 6.667969 13.332031 C 8.507812 13.332031 10 12.003906 10 10.363281 C 10 10.316406 9.992188 10.273438 9.988281 10.226562 L 10 10.222656 C 9.996094 10.203125 9.984375 10.179688 9.980469 10.160156 C 9.828125 8.835938 8.21875 7.398438 7.191406 5.296875 C 6.992188 4.875 6.804688 4.441406 6.667969 4 Z M 6.667969 4 "/>
</g>
</svg>
