<svg xmlns="http://www.w3.org/2000/svg" xmlns:xlink="http://www.w3.org/1999/xlink" width="16" height="16" viewBox="0 0 16 16" version="1.1">
<g id="surface1">
<path style=" stroke:none;fill-rule:nonzero;fill:rgb(100%,74.901962%,0%);fill-opacity:1;" d="M 5.332031 2.667969 L 5.332031 6.738281 C 5.332031 6.738281 5.332031 6.738281 5.328125 6.738281 C 4.957031 6.816406 4.605469 6.953125 4.28125 7.148438 C 4.273438 7.15625 4.261719 7.15625 4.253906 7.164062 C 4.105469 7.253906 3.964844 7.359375 3.832031 7.472656 C 3.816406 7.488281 3.800781 7.5 3.789062 7.511719 C 3.65625 7.628906 3.535156 7.753906 3.421875 7.890625 C 3.417969 7.894531 3.417969 7.898438 3.414062 7.902344 C 3.304688 8.039062 3.203125 8.183594 3.117188 8.335938 C 3.109375 8.34375 3.101562 8.355469 3.097656 8.363281 C 3.011719 8.515625 2.941406 8.671875 2.882812 8.832031 C 2.875 8.855469 2.863281 8.878906 2.855469 8.898438 C 2.800781 9.058594 2.757812 9.222656 2.726562 9.386719 C 2.71875 9.417969 2.71875 9.445312 2.710938 9.472656 C 2.683594 9.648438 2.667969 9.824219 2.667969 10 C 2.667969 10.097656 2.671875 10.191406 2.679688 10.289062 C 2.6875 10.347656 2.695312 10.402344 2.703125 10.460938 C 2.707031 10.511719 2.714844 10.5625 2.726562 10.613281 C 2.730469 10.648438 2.742188 10.683594 2.75 10.71875 C 2.789062 10.90625 2.847656 11.085938 2.917969 11.261719 C 2.929688 11.292969 2.945312 11.320312 2.957031 11.347656 C 3.03125 11.519531 3.121094 11.683594 3.222656 11.839844 C 3.238281 11.859375 3.253906 11.882812 3.269531 11.902344 C 3.378906 12.0625 3.5 12.210938 3.636719 12.347656 C 3.644531 12.355469 3.65625 12.367188 3.664062 12.375 C 3.808594 12.515625 3.960938 12.644531 4.128906 12.757812 C 4.136719 12.765625 4.152344 12.769531 4.160156 12.777344 C 4.328125 12.890625 4.507812 12.984375 4.691406 13.066406 L 4.703125 13.070312 C 4.707031 13.074219 4.710938 13.074219 4.71875 13.074219 C 4.910156 13.15625 5.105469 13.21875 5.308594 13.261719 C 5.320312 13.261719 5.328125 13.265625 5.335938 13.265625 C 5.445312 13.289062 5.554688 13.304688 5.667969 13.316406 C 5.777344 13.328125 5.886719 13.332031 6 13.332031 C 6.191406 13.332031 6.386719 13.316406 6.574219 13.28125 C 6.585938 13.28125 6.59375 13.277344 6.601562 13.277344 C 6.761719 13.246094 6.921875 13.203125 7.074219 13.152344 C 7.105469 13.140625 7.136719 13.132812 7.164062 13.121094 C 7.3125 13.066406 7.460938 12.996094 7.597656 12.921875 C 7.628906 12.902344 7.660156 12.886719 7.691406 12.867188 C 7.832031 12.785156 7.964844 12.695312 8.089844 12.59375 C 8.109375 12.578125 8.125 12.5625 8.144531 12.546875 C 8.261719 12.449219 8.375 12.339844 8.476562 12.226562 C 8.492188 12.207031 8.507812 12.191406 8.523438 12.175781 C 8.628906 12.050781 8.722656 11.921875 8.808594 11.785156 C 8.828125 11.753906 8.847656 11.722656 8.867188 11.691406 C 8.953125 11.546875 9.027344 11.398438 9.089844 11.246094 C 9.097656 11.226562 9.101562 11.210938 9.109375 11.191406 C 9.175781 11.019531 9.226562 10.84375 9.265625 10.667969 L 13.332031 10.667969 L 13.332031 9.332031 L 9.261719 9.332031 C 9.261719 9.332031 9.261719 9.328125 9.261719 9.328125 C 9.230469 9.171875 9.1875 9.015625 9.132812 8.863281 L 9.128906 8.855469 C 9.128906 8.855469 9.128906 8.855469 9.128906 8.851562 C 9.074219 8.707031 9.007812 8.5625 8.933594 8.425781 C 8.925781 8.414062 8.921875 8.402344 8.914062 8.390625 C 8.847656 8.269531 8.773438 8.152344 8.691406 8.039062 C 8.679688 8.023438 8.667969 8.007812 8.652344 7.988281 C 8.5625 7.867188 8.460938 7.753906 8.355469 7.644531 C 8.25 7.542969 8.140625 7.445312 8.023438 7.355469 C 8.003906 7.339844 7.984375 7.324219 7.964844 7.3125 C 7.722656 7.132812 7.457031 6.992188 7.179688 6.886719 C 7.152344 6.875 7.128906 6.867188 7.105469 6.859375 C 6.960938 6.808594 6.816406 6.765625 6.667969 6.734375 L 6.667969 2.667969 Z M 5.332031 2.667969 "/>
</g>
</svg>
