<svg xmlns="http://www.w3.org/2000/svg" xmlns:xlink="http://www.w3.org/1999/xlink" width="16" height="16" viewBox="0 0 16 16" version="1.1">
<g id="surface1">
<path style=" stroke:none;fill-rule:nonzero;fill:rgb(100%,30.980393%,30.980393%);fill-opacity:1;" d="M 10 2.667969 C 9.808594 2.667969 9.613281 2.683594 9.425781 2.71875 C 9.414062 2.71875 9.40625 2.722656 9.398438 2.722656 C 9.238281 2.753906 9.078125 2.796875 8.925781 2.847656 C 8.894531 2.859375 8.863281 2.867188 8.835938 2.878906 C 8.6875 2.933594 8.539062 3.003906 8.402344 3.078125 C 8.371094 3.097656 8.339844 3.113281 8.308594 3.132812 C 8.167969 3.214844 8.035156 3.304688 7.910156 3.40625 C 7.890625 3.421875 7.875 3.4375 7.855469 3.453125 C 7.738281 3.550781 7.625 3.660156 7.523438 3.773438 C 7.507812 3.792969 7.492188 3.808594 7.476562 3.824219 C 7.371094 3.949219 7.277344 4.078125 7.191406 4.214844 C 7.171875 4.246094 7.152344 4.277344 7.132812 4.308594 C 7.046875 4.453125 6.972656 4.601562 6.910156 4.753906 C 6.902344 4.773438 6.898438 4.789062 6.890625 4.808594 C 6.824219 4.980469 6.773438 5.15625 6.734375 5.332031 L 2.667969 5.332031 L 2.667969 6.667969 L 6.738281 6.667969 C 6.738281 6.667969 6.738281 6.671875 6.738281 6.671875 C 6.769531 6.828125 6.8125 6.984375 6.867188 7.136719 L 6.871094 7.144531 C 6.871094 7.144531 6.871094 7.144531 6.871094 7.148438 C 6.925781 7.292969 6.992188 7.4375 7.066406 7.574219 C 7.074219 7.585938 7.078125 7.597656 7.085938 7.609375 C 7.152344 7.730469 7.226562 7.847656 7.308594 7.960938 C 7.320312 7.976562 7.332031 7.992188 7.347656 8.011719 C 7.4375 8.132812 7.539062 8.246094 7.644531 8.355469 C 7.75 8.457031 7.859375 8.554688 7.976562 8.644531 C 7.996094 8.660156 8.015625 8.675781 8.035156 8.6875 C 8.277344 8.867188 8.542969 9.007812 8.820312 9.113281 C 8.847656 9.125 8.871094 9.132812 8.894531 9.140625 C 9.039062 9.191406 9.183594 9.234375 9.332031 9.265625 L 9.332031 13.332031 L 10.667969 13.332031 L 10.667969 9.261719 C 10.667969 9.261719 10.667969 9.261719 10.671875 9.261719 C 11.042969 9.183594 11.394531 9.046875 11.71875 8.851562 C 11.726562 8.84375 11.738281 8.84375 11.746094 8.835938 C 11.894531 8.746094 12.035156 8.640625 12.167969 8.527344 C 12.183594 8.511719 12.199219 8.5 12.210938 8.488281 C 12.34375 8.371094 12.464844 8.246094 12.578125 8.109375 C 12.582031 8.105469 12.582031 8.101562 12.585938 8.097656 C 12.695312 7.960938 12.796875 7.816406 12.882812 7.664062 C 12.890625 7.65625 12.898438 7.644531 12.902344 7.636719 C 12.988281 7.484375 13.058594 7.328125 13.117188 7.167969 C 13.125 7.144531 13.136719 7.121094 13.144531 7.101562 C 13.199219 6.941406 13.242188 6.777344 13.273438 6.613281 C 13.28125 6.582031 13.28125 6.554688 13.289062 6.527344 C 13.316406 6.351562 13.332031 6.175781 13.332031 6 C 13.332031 5.902344 13.328125 5.808594 13.320312 5.710938 C 13.3125 5.652344 13.304688 5.597656 13.296875 5.539062 C 13.292969 5.488281 13.285156 5.4375 13.273438 5.386719 C 13.269531 5.351562 13.257812 5.316406 13.25 5.28125 C 13.210938 5.09375 13.152344 4.914062 13.082031 4.738281 C 13.070312 4.707031 13.054688 4.679688 13.042969 4.652344 C 12.96875 4.480469 12.878906 4.316406 12.777344 4.160156 C 12.761719 4.140625 12.746094 4.117188 12.730469 4.097656 C 12.621094 3.9375 12.5 3.789062 12.363281 3.652344 C 12.355469 3.644531 12.34375 3.632812 12.335938 3.625 C 12.191406 3.484375 12.039062 3.355469 11.871094 3.242188 C 11.863281 3.234375 11.847656 3.230469 11.839844 3.222656 C 11.671875 3.109375 11.492188 3.015625 11.308594 2.933594 L 11.296875 2.929688 C 11.292969 2.925781 11.289062 2.925781 11.28125 2.925781 C 11.089844 2.84375 10.894531 2.78125 10.691406 2.738281 C 10.679688 2.738281 10.671875 2.734375 10.664062 2.734375 C 10.554688 2.710938 10.445312 2.695312 10.332031 2.683594 C 10.222656 2.671875 10.113281 2.667969 10 2.667969 Z M 10 2.667969 "/>
</g>
</svg>
