<svg xmlns="http://www.w3.org/2000/svg" xmlns:xlink="http://www.w3.org/1999/xlink" width="16" height="16" viewBox="0 0 16 16" version="1.1">
<g id="surface1">
<path style=" stroke:none;fill-rule:nonzero;fill:rgb(67.058825%,40.000001%,100%);fill-opacity:1;" d="M 4 3.332031 C 4 3.332031 3.332031 3.332031 3.332031 4 L 3.332031 7.328125 L 4.667969 7.332031 L 4.667969 6.667969 L 5.199219 6.667969 L 6.335938 5.527344 L 6.808594 5.058594 L 8.417969 6.667969 L 11.332031 6.667969 L 11.332031 11.332031 L 7.773438 11.332031 L 6.808594 12.304688 L 5.84375 11.332031 L 4.671875 11.332031 L 4.671875 10.007812 L 3.339844 10.003906 L 3.339844 12 C 3.339844 12 3.339844 12.667969 4.007812 12.667969 L 12.007812 12.667969 C 12.671875 12.667969 12.671875 12 12.671875 12 L 12.671875 4 C 12.671875 4 12.671875 3.332031 12.007812 3.332031 Z M 6.808594 6 L 5.882812 6.925781 L 6.972656 8.015625 L 2.671875 8 L 2.671875 9.332031 L 6.980469 9.347656 L 5.890625 10.4375 L 6.8125 11.359375 L 9.480469 8.667969 Z M 6.808594 6 "/>
</g>
</svg>
