<svg xmlns="http://www.w3.org/2000/svg" xmlns:xlink="http://www.w3.org/1999/xlink" width="16" height="16" viewBox="0 0 16 16" version="1.1">
<g id="surface1">
<path style=" stroke:none;fill-rule:nonzero;fill:rgb(0%,80.000001%,100%);fill-opacity:1;" d="M 9.332031 3.335938 C 8.960938 3.335938 8.664062 3.632812 8.664062 4.003906 L 8.664062 5.335938 C 8.664062 5.707031 8.960938 6.003906 9.332031 6.003906 L 9.644531 6.003906 C 9.042969 7.707031 7.703125 9.046875 6 9.648438 L 6 9.335938 C 6 8.964844 5.703125 8.667969 5.332031 8.667969 L 4 8.667969 C 3.628906 8.667969 3.332031 8.964844 3.332031 9.335938 L 3.332031 11.335938 C 3.332031 11.707031 3.613281 12.003906 3.976562 12.003906 L 4 12.003906 C 8.410156 12.003906 11.988281 8.433594 12 4.023438 L 12 3.980469 C 12 3.621094 11.707031 3.335938 11.351562 3.335938 Z M 9.332031 3.335938 "/>
</g>
</svg>
