<svg xmlns="http://www.w3.org/2000/svg" xmlns:xlink="http://www.w3.org/1999/xlink" width="16" height="16" viewBox="0 0 16 16" version="1.1">
<g id="surface1">
<path style=" stroke:none;fill-rule:nonzero;fill:rgb(32.156864%,58.039218%,88.627452%);fill-opacity:1;" d="M 12 3.996094 C 7.589844 3.996094 4.011719 7.566406 4 11.976562 L 4 12.019531 C 4 12.378906 4.292969 12.664062 4.648438 12.664062 L 6.667969 12.664062 C 7.039062 12.664062 7.335938 12.367188 7.335938 11.996094 L 7.335938 10.664062 C 7.335938 10.292969 7.039062 9.996094 6.667969 9.996094 L 6.355469 9.996094 C 6.957031 8.292969 8.296875 6.953125 10 6.351562 L 10 6.664062 C 10 7.035156 10.296875 7.332031 10.667969 7.332031 L 12 7.332031 C 12.371094 7.332031 12.667969 7.035156 12.667969 6.664062 L 12.667969 4.664062 C 12.667969 4.292969 12.386719 3.996094 12.023438 3.996094 Z M 12 3.996094 "/>
</g>
</svg>
