<svg xmlns="http://www.w3.org/2000/svg" xmlns:xlink="http://www.w3.org/1999/xlink" width="16" height="16" viewBox="0 0 16 16" version="1.1">
<g id="surface1">
<path style=" stroke:none;fill-rule:nonzero;fill:rgb(96.862745%,0%,100%);fill-opacity:1;" d="M 13.332031 6 L 13.332031 13.332031 L 2.667969 13.332031 L 2.667969 5.332031 L 5.367188 5.332031 L 6.585938 4 L 10 4 L 10 2.667969 L 6 2.667969 L 4.78125 4 L 2.667969 4 C 1.933594 4 1.332031 4.601562 1.332031 5.332031 L 1.332031 13.332031 C 1.332031 14.066406 1.933594 14.667969 2.667969 14.667969 L 13.332031 14.667969 C 14.066406 14.667969 14.667969 14.066406 14.667969 13.332031 L 14.667969 6 Z M 13.78125 5.328125 L 14.667969 5.328125 C 14.660156 3.121094 12.875 1.332031 10.667969 1.332031 L 10.667969 2.21875 C 12.386719 2.21875 13.773438 3.605469 13.78125 5.328125 Z M 12 5.328125 L 12.886719 5.328125 C 12.878906 4.101562 11.894531 3.113281 10.667969 3.113281 L 10.667969 4 C 11.40625 4 11.992188 4.59375 12 5.328125 Z M 4.667969 9.332031 C 4.667969 11.171875 6.160156 12.667969 8 12.667969 C 9.839844 12.667969 11.332031 11.171875 11.332031 9.332031 C 11.332031 7.492188 9.839844 6 8 6 C 6.160156 6 4.667969 7.492188 4.667969 9.332031 Z M 10 9.332031 C 10 10.433594 9.101562 11.332031 8 11.332031 C 6.898438 11.332031 6 10.433594 6 9.332031 C 6 8.234375 6.898438 7.332031 8 7.332031 C 9.101562 7.332031 10 8.226562 10 9.332031 Z M 10 9.332031 "/>
</g>
</svg>
