<svg xmlns="http://www.w3.org/2000/svg" xmlns:xlink="http://www.w3.org/1999/xlink" width="16" height="16" viewBox="0 0 16 16" version="1.1">
<defs>
<filter id="alpha" filterUnits="objectBoundingBox" x="0%" y="0%" width="100%" height="100%">
  <feColorMatrix type="matrix" in="SourceGraphic" values="0 0 0 0 1 0 0 0 0 1 0 0 0 0 1 0 0 0 1 0"/>
</filter>
<mask id="mask0">
  <g filter="url(#alpha)">
<rect x="0" y="0" width="16" height="16" style="fill:rgb(0%,0%,0%);fill-opacity:0.3;stroke:none;"/>
  </g>
</mask>
<clipPath id="clip1">
  <rect x="0" y="0" width="16" height="16"/>
</clipPath>
<g id="surface5" clip-path="url(#clip1)">
<path style=" stroke:none;fill-rule:nonzero;fill:rgb(0%,100%,66.666669%);fill-opacity:1;" d="M 8 3.332031 C 5.789062 3.332031 4 5.125 4 7.332031 C 4 8.726562 4.714844 9.949219 5.792969 10.667969 L 5.332031 10.667969 C 4 10.667969 4 12 4 12 L 4 12.667969 L 12 12.667969 L 12 12 C 12 12 12 10.667969 10.667969 10.667969 L 10.207031 10.667969 C 11.285156 9.949219 12 8.726562 12 7.332031 C 12 5.125 10.210938 3.332031 8 3.332031 Z M 8 6.003906 C 8.738281 6.003906 9.332031 6.597656 9.332031 7.335938 C 9.332031 8.074219 8.738281 8.667969 8 8.667969 C 7.261719 8.667969 6.667969 8.074219 6.667969 7.335938 C 6.667969 6.597656 7.261719 6.003906 8 6.003906 Z M 8 6.003906 "/>
</g>
</defs>
<g id="surface1">
<use xlink:href="#surface5" mask="url(#mask0)"/>
</g>
</svg>
