<svg xmlns="http://www.w3.org/2000/svg" xmlns:xlink="http://www.w3.org/1999/xlink" width="16" height="16" viewBox="0 0 16 16" version="1.1">
<g id="surface1">
<path style=" stroke:none;fill-rule:nonzero;fill:rgb(0%,80.000001%,100%);fill-opacity:1;" d="M 2.667969 2.667969 L 2.667969 13.332031 L 8.667969 13.332031 L 8.667969 12.667969 L 3.332031 12.667969 L 3.332031 5.332031 L 12.667969 5.332031 L 12.667969 8.667969 L 13.332031 8.667969 L 13.332031 2.667969 L 12 2.667969 L 12 4.667969 L 10.667969 4.667969 L 10.667969 2.667969 L 5.332031 2.667969 L 5.332031 4.667969 L 4 4.667969 L 4 2.667969 Z M 9.332031 9.332031 L 9.332031 13.332031 L 13.332031 13.332031 L 13.332031 9.332031 L 12.667969 9.332031 L 12.667969 10 L 12 10 L 12 9.332031 L 10.667969 9.332031 L 10.667969 10 L 10 10 L 10 9.332031 Z M 10 10.667969 L 12.667969 10.667969 L 12.667969 12.667969 L 10 12.667969 Z M 10 10.667969 "/>
<path style=" stroke:none;fill-rule:nonzero;fill:rgb(23.921569%,68.235296%,91.37255%);fill-opacity:1;" d="M 4.667969 6.667969 L 4.667969 10.667969 L 8.667969 10.667969 L 8.667969 6.667969 L 8 6.667969 L 8 7.332031 L 7.332031 7.332031 L 7.332031 6.667969 L 6 6.667969 L 6 7.332031 L 5.332031 7.332031 L 5.332031 6.667969 Z M 5.332031 8 L 8 8 L 8 10 L 5.332031 10 Z M 5.332031 8 "/>
</g>
</svg>
