<svg xmlns="http://www.w3.org/2000/svg" xmlns:xlink="http://www.w3.org/1999/xlink" width="16" height="16" viewBox="0 0 16 16" version="1.1">
<g id="surface1">
<path style=" stroke:none;fill-rule:nonzero;fill:rgb(100%,30.980393%,30.980393%);fill-opacity:1;" d="M 7.332031 2.667969 L 7.332031 4.058594 C 5.65625 4.34375 4.34375 5.65625 4.058594 7.332031 L 2.667969 7.332031 L 2.667969 8.667969 L 4.058594 8.667969 C 4.386719 10.589844 6.050781 12 8 12 C 9.953125 12 11.617188 10.589844 11.941406 8.667969 L 13.332031 8.667969 L 13.332031 7.332031 L 11.941406 7.332031 C 11.65625 5.65625 10.34375 4.34375 8.667969 4.058594 L 8.667969 2.667969 Z M 8 4.667969 C 9.839844 4.667969 11.332031 6.160156 11.332031 8 C 11.332031 9.839844 9.839844 11.332031 8 11.332031 C 6.160156 11.332031 4.667969 9.839844 4.667969 8 C 4.667969 6.160156 6.160156 4.667969 8 4.667969 Z M 8 4.667969 "/>
</g>
</svg>
