<svg xmlns="http://www.w3.org/2000/svg" xmlns:xlink="http://www.w3.org/1999/xlink" width="16" height="16" viewBox="0 0 16 16" version="1.1">
<g id="surface1">
<path style=" stroke:none;fill-rule:nonzero;fill:rgb(99.215686%,73.725492%,29.411766%);fill-opacity:1;" d="M 12.667969 9.332031 C 12.667969 11.175781 11.175781 12.667969 9.332031 12.667969 C 7.492188 12.667969 6 11.175781 6 9.332031 C 6 7.492188 7.492188 6 9.332031 6 C 11.175781 6 12.667969 7.492188 12.667969 9.332031 Z M 12.667969 9.332031 "/>
<path style=" stroke:none;fill-rule:nonzero;fill:rgb(32.156864%,58.039218%,88.627452%);fill-opacity:1;" d="M 10 9.332031 C 10 11.175781 8.507812 12.667969 6.667969 12.667969 C 4.824219 12.667969 3.332031 11.175781 3.332031 9.332031 C 3.332031 7.492188 4.824219 6 6.667969 6 C 8.507812 6 10 7.492188 10 9.332031 Z M 10 9.332031 "/>
<path style=" stroke:none;fill-rule:nonzero;fill:rgb(30.980393%,93.725491%,25.882354%);fill-opacity:1;" d="M 11.332031 6.667969 C 11.332031 8.507812 9.839844 10 8 10 C 6.160156 10 4.667969 8.507812 4.667969 6.667969 C 4.667969 4.824219 6.160156 3.332031 8 3.332031 C 9.839844 3.332031 11.332031 4.824219 11.332031 6.667969 Z M 11.332031 6.667969 "/>
</g>
</svg>
