<svg xmlns="http://www.w3.org/2000/svg" xmlns:xlink="http://www.w3.org/1999/xlink" width="16" height="16" viewBox="0 0 16 16" version="1.1">
<g id="surface1">
<path style=" stroke:none;fill-rule:nonzero;fill:rgb(0%,80.000001%,100%);fill-opacity:1;" d="M 8.667969 5.332031 L 8.667969 13.332031 L 9.332031 13.332031 L 9.332031 12.425781 C 9.839844 13 10.566406 13.332031 11.332031 13.332031 C 12.804688 13.332031 14 12.140625 14 10.667969 C 14 9.195312 12.804688 8 11.332031 8 C 10.566406 8 9.839844 8.332031 9.332031 8.90625 L 9.332031 5.332031 Z M 4.667969 8 C 3.195312 8 2 9.195312 2 10.667969 C 2 12.140625 3.195312 13.332031 4.667969 13.332031 C 5.433594 13.332031 6.160156 13 6.667969 12.425781 L 6.667969 13.332031 L 7.332031 13.332031 L 7.332031 8 L 6.667969 8 L 6.667969 8.90625 C 6.160156 8.332031 5.433594 8 4.667969 8 Z M 4.667969 8.667969 C 5.769531 8.667969 6.667969 9.5625 6.667969 10.667969 C 6.667969 11.769531 5.769531 12.667969 4.667969 12.667969 C 3.5625 12.667969 2.667969 11.769531 2.667969 10.667969 C 2.667969 9.5625 3.5625 8.667969 4.667969 8.667969 Z M 11.332031 8.667969 C 12.4375 8.667969 13.332031 9.5625 13.332031 10.667969 C 13.332031 11.769531 12.4375 12.667969 11.332031 12.667969 C 10.230469 12.667969 9.332031 11.769531 9.332031 10.667969 C 9.332031 9.5625 10.230469 8.667969 11.332031 8.667969 Z M 11.332031 8.667969 "/>
<path style=" stroke:none;fill-rule:nonzero;fill:rgb(23.921569%,68.235296%,91.37255%);fill-opacity:1;" d="M 9.332031 2.667969 L 11.332031 5.332031 L 13.332031 2.667969 Z M 9.332031 2.667969 "/>
</g>
</svg>
