<svg xmlns="http://www.w3.org/2000/svg" xmlns:xlink="http://www.w3.org/1999/xlink" width="16" height="16" viewBox="0 0 16 16" version="1.1">
<g id="surface1">
<path style=" stroke:none;fill-rule:nonzero;fill:rgb(0%,80.000001%,100%);fill-opacity:1;" d="M 4.667969 3.335938 C 3.929688 3.335938 3.332031 3.933594 3.332031 4.667969 C 3.332031 5.40625 3.929688 6.003906 4.667969 6.003906 C 4.902344 6.003906 5.128906 5.941406 5.332031 5.824219 L 5.332031 7.335938 L 3.332031 7.335938 L 3.332031 12.003906 L 5.332031 12.003906 L 5.332031 12.667969 L 12.667969 12.667969 L 12.667969 10.003906 L 5.332031 10.003906 L 5.332031 10.667969 L 4.667969 10.667969 L 4.667969 8.667969 L 5.332031 8.667969 L 5.332031 9.335938 L 12.667969 9.335938 L 12.667969 5.335938 L 5.820312 5.335938 C 5.9375 5.132812 6 4.902344 6 4.667969 C 6 3.933594 5.402344 3.335938 4.667969 3.335938 Z M 4.667969 4.003906 C 5.035156 4.003906 5.332031 4.300781 5.332031 4.667969 C 5.332031 5.039062 5.035156 5.335938 4.667969 5.335938 C 4.296875 5.335938 4 5.039062 4 4.667969 C 4 4.300781 4.296875 4.003906 4.667969 4.003906 Z M 4.667969 4.003906 "/>
</g>
</svg>
