<svg xmlns="http://www.w3.org/2000/svg" xmlns:xlink="http://www.w3.org/1999/xlink" width="16" height="16" viewBox="0 0 16 16" version="1.1">
<g id="surface1">
<path style=" stroke:none;fill-rule:nonzero;fill:rgb(96.862745%,0%,100%);fill-opacity:1;" d="M 4.667969 3.339844 C 3.929688 3.339844 3.332031 3.933594 3.332031 4.671875 L 3.332031 11.339844 C 3.332031 12.078125 3.929688 12.671875 4.667969 12.671875 L 11.332031 12.671875 C 12.070312 12.671875 12.667969 12.078125 12.667969 11.339844 L 12.667969 4.671875 C 12.667969 3.933594 12.070312 3.339844 11.332031 3.339844 Z M 7.121094 4.667969 L 7.332031 4.667969 L 7.332031 5.171875 L 7.097656 5.171875 C 6.78125 5.171875 6.578125 5.222656 6.484375 5.328125 C 6.386719 5.429688 6.339844 5.644531 6.339844 5.980469 L 6.339844 6.855469 C 6.339844 7.222656 6.289062 7.492188 6.1875 7.65625 C 6.085938 7.824219 5.910156 7.9375 5.660156 7.996094 C 5.910156 8.058594 6.085938 8.175781 6.1875 8.34375 C 6.289062 8.507812 6.339844 8.777344 6.339844 9.144531 L 6.339844 10.019531 C 6.339844 10.355469 6.386719 10.570312 6.484375 10.671875 C 6.578125 10.773438 6.78125 10.824219 7.097656 10.824219 L 7.332031 10.824219 L 7.332031 11.332031 L 7.121094 11.332031 C 6.5625 11.332031 6.1875 11.246094 6 11.074219 C 5.8125 10.898438 5.71875 10.550781 5.71875 10.03125 L 5.71875 9.1875 C 5.71875 8.832031 5.65625 8.589844 5.535156 8.453125 C 5.414062 8.316406 5.195312 8.246094 4.875 8.246094 L 4.667969 8.246094 L 4.667969 7.742188 L 4.875 7.742188 C 5.195312 7.742188 5.414062 7.675781 5.535156 7.542969 C 5.65625 7.40625 5.71875 7.160156 5.71875 6.8125 L 5.71875 5.964844 C 5.71875 5.445312 5.8125 5.097656 6 4.925781 C 6.1875 4.753906 6.5625 4.667969 7.121094 4.667969 Z M 8.667969 4.667969 L 8.878906 4.667969 C 9.4375 4.667969 9.8125 4.753906 10 4.925781 C 10.1875 5.097656 10.28125 5.445312 10.28125 5.964844 L 10.28125 6.8125 C 10.28125 7.160156 10.34375 7.40625 10.464844 7.542969 C 10.585938 7.675781 10.804688 7.742188 11.125 7.742188 L 11.332031 7.742188 L 11.332031 8.246094 L 11.125 8.246094 C 10.804688 8.246094 10.585938 8.316406 10.464844 8.453125 C 10.34375 8.589844 10.28125 8.832031 10.28125 9.1875 L 10.28125 10.03125 C 10.28125 10.550781 10.1875 10.898438 10 11.074219 C 9.8125 11.246094 9.4375 11.332031 8.878906 11.332031 L 8.667969 11.332031 L 8.667969 10.824219 L 8.902344 10.824219 C 9.21875 10.824219 9.421875 10.773438 9.515625 10.671875 C 9.613281 10.570312 9.660156 10.355469 9.660156 10.019531 L 9.660156 9.144531 C 9.660156 8.777344 9.710938 8.507812 9.8125 8.34375 C 9.914062 8.175781 10.089844 8.058594 10.339844 7.996094 C 10.089844 7.9375 9.914062 7.824219 9.8125 7.65625 C 9.710938 7.492188 9.660156 7.222656 9.660156 6.855469 L 9.660156 5.980469 C 9.660156 5.644531 9.613281 5.429688 9.515625 5.328125 C 9.421875 5.222656 9.21875 5.171875 8.902344 5.171875 L 8.667969 5.171875 Z M 8.667969 4.667969 "/>
</g>
</svg>
