<svg xmlns="http://www.w3.org/2000/svg" xmlns:xlink="http://www.w3.org/1999/xlink" width="16" height="16" viewBox="0 0 16 16" version="1.1">
<g id="surface1">
<path style=" stroke:none;fill-rule:nonzero;fill:rgb(100%,100%,100%);fill-opacity:1;" d="M 8 3.332031 C 7.863281 3.777344 7.675781 4.207031 7.472656 4.632812 C 6.445312 6.730469 4.839844 8.167969 4.683594 9.496094 C 4.679688 9.515625 4.671875 9.535156 4.667969 9.554688 L 4.679688 9.558594 C 4.675781 9.605469 4.667969 9.652344 4.667969 9.695312 C 4.667969 11.335938 6.160156 12.667969 8 12.667969 C 9.839844 12.667969 11.332031 11.335938 11.332031 9.695312 C 11.332031 9.652344 11.324219 9.605469 11.320312 9.558594 L 11.332031 9.554688 C 11.328125 9.535156 11.320312 9.515625 11.316406 9.496094 C 11.160156 8.167969 9.554688 6.730469 8.527344 4.632812 C 8.324219 4.207031 8.136719 3.777344 8 3.332031 Z M 8 3.332031 "/>
</g>
</svg>
