<svg xmlns="http://www.w3.org/2000/svg" xmlns:xlink="http://www.w3.org/1999/xlink" width="16" height="16" viewBox="0 0 16 16" version="1.1">
<g id="surface1">
<path style=" stroke:none;fill-rule:nonzero;fill:rgb(100%,74.901962%,0%);fill-opacity:1;" d="M 8 3.332031 L 8 9.328125 L 9.996094 7.332031 L 10 7.339844 L 10.003906 7.332031 L 12 9.328125 L 11.527344 9.800781 L 10 8.269531 L 8.238281 10.035156 L 8 10.269531 L 8 12.667969 L 12.667969 12.667969 L 12.667969 3.332031 Z M 6.863281 8.667969 L 4 11.527344 L 4.472656 12 L 6.867188 9.605469 L 7.292969 10.035156 L 7.765625 10.503906 L 8 10.269531 L 8 9.328125 L 7.765625 9.5625 L 6.871094 8.667969 L 6.867188 8.671875 Z M 5.667969 4.667969 C 6.21875 4.667969 6.667969 5.113281 6.667969 5.667969 C 6.667969 6.21875 6.21875 6.667969 5.667969 6.667969 C 5.113281 6.667969 4.667969 6.21875 4.667969 5.667969 C 4.667969 5.113281 5.113281 4.667969 5.667969 4.667969 Z M 5.667969 4 C 4.742188 4 4 4.742188 4 5.667969 C 4 6.589844 4.742188 7.332031 5.667969 7.332031 C 6.589844 7.332031 7.332031 6.589844 7.332031 5.667969 C 7.332031 4.742188 6.589844 4 5.667969 4 Z M 3.332031 3.332031 L 12.667969 3.332031 L 12.667969 12.667969 L 3.332031 12.667969 Z M 2.667969 2.667969 L 2.667969 13.332031 L 13.332031 13.332031 L 13.332031 2.667969 Z M 2.667969 2.667969 "/>
</g>
</svg>
