<svg xmlns="http://www.w3.org/2000/svg" xmlns:xlink="http://www.w3.org/1999/xlink" width="16" height="16" viewBox="0 0 16 16" version="1.1">
<g id="surface1">
<path style=" stroke:none;fill-rule:nonzero;fill:rgb(96.862745%,0%,100%);fill-opacity:1;" d="M 14 1.332031 L 2 1.332031 C 1.265625 1.332031 0.667969 1.933594 0.667969 2.667969 L 0.667969 10.667969 C 0.667969 11.398438 1.265625 12 2 12 L 6.667969 12 L 6.667969 13.332031 L 5.332031 13.332031 L 5.332031 14.667969 L 10.667969 14.667969 L 10.667969 13.332031 L 9.332031 13.332031 L 9.332031 12 L 14 12 C 14.734375 12 15.332031 11.398438 15.332031 10.667969 L 15.332031 2.667969 C 15.332031 1.933594 14.734375 1.332031 14 1.332031 Z M 14 10.667969 L 2 10.667969 L 2 2.667969 L 14 2.667969 Z M 14 10.667969 "/>
</g>
</svg>
