<svg xmlns="http://www.w3.org/2000/svg" xmlns:xlink="http://www.w3.org/1999/xlink" width="16" height="16" viewBox="0 0 16 16" version="1.1">
<g id="surface1">
<path style=" stroke:none;fill-rule:nonzero;fill:rgb(0%,80.000001%,100%);fill-opacity:1;" d="M 6.832031 3.332031 L 6.730469 4.5625 C 6.339844 4.707031 5.976562 4.917969 5.660156 5.183594 L 4.542969 4.65625 L 3.375 6.675781 L 4.390625 7.382812 C 4.351562 7.585938 4.335938 7.792969 4.332031 8 C 4.332031 8.207031 4.351562 8.414062 4.386719 8.621094 L 3.375 9.324219 L 4.542969 11.34375 L 5.65625 10.820312 C 5.976562 11.082031 6.339844 11.292969 6.730469 11.433594 L 6.832031 12.667969 L 9.164062 12.667969 L 9.265625 11.4375 C 9.65625 11.292969 10.019531 11.085938 10.339844 10.820312 L 11.457031 11.34375 L 12.621094 9.324219 L 11.609375 8.621094 C 11.644531 8.414062 11.664062 8.207031 11.664062 8 C 11.664062 7.792969 11.644531 7.585938 11.609375 7.378906 L 12.621094 6.679688 L 11.457031 4.65625 L 10.339844 5.183594 C 10.019531 4.917969 9.65625 4.710938 9.265625 4.566406 L 9.167969 3.332031 Z M 8 6.667969 C 8.738281 6.667969 9.332031 7.261719 9.332031 8 C 9.332031 8.738281 8.738281 9.332031 8 9.332031 C 7.261719 9.332031 6.667969 8.738281 6.667969 8 C 6.667969 7.261719 7.261719 6.667969 8 6.667969 Z M 8 6.667969 "/>
</g>
</svg>
