<svg xmlns="http://www.w3.org/2000/svg" xmlns:xlink="http://www.w3.org/1999/xlink" width="16" height="16" viewBox="0 0 16 16" version="1.1">
<g id="surface1">
<path style=" stroke:none;fill-rule:nonzero;fill:rgb(100%,74.901962%,0%);fill-opacity:1;" d="M 10.011719 2.667969 C 9.78125 2.753906 9.550781 2.871094 9.359375 3.023438 C 8.441406 3.765625 8.429688 4.992188 9.335938 5.757812 C 9.523438 5.917969 9.75 6.035156 9.980469 6.128906 C 9.996094 6.136719 9.996094 7.5 9.996094 7.5 C 10.992188 8 11.5625 8.667969 11.996094 9.332031 L 11.996094 6.167969 C 12.226562 6.078125 12.441406 5.953125 12.632812 5.796875 C 13.550781 5.054688 13.5625 3.832031 12.660156 3.066406 C 12.46875 2.90625 12.242188 2.789062 12.015625 2.691406 L 12 4.179688 C 11.996094 4.488281 11.699219 4.667969 11.328125 4.667969 L 10.664062 4.667969 C 10.292969 4.660156 9.996094 4.460938 9.996094 4.15625 Z M 7.996094 8 C 5.332031 8 4 10 4 12 L 2.832031 12 C 2.667969 12 2.667969 12.105469 2.667969 12.167969 L 2.667969 13.167969 C 2.667969 13.332031 2.757812 13.332031 2.832031 13.332031 L 13.164062 13.332031 C 13.292969 13.335938 13.328125 13.246094 13.328125 13.167969 L 13.328125 12.167969 C 13.34375 12.070312 13.328125 12 13.164062 12 L 11.996094 12 C 11.996094 10 10.664062 8 7.996094 8 Z M 7.996094 10 C 9.5625 10 9.996094 11.175781 9.996094 12 L 6 12 C 6 11.203125 6.464844 10 7.996094 10 Z M 7.996094 10 "/>
</g>
</svg>
