<svg xmlns="http://www.w3.org/2000/svg" xmlns:xlink="http://www.w3.org/1999/xlink" width="16" height="16" viewBox="0 0 16 16" version="1.1">
<g id="surface1">
<path style=" stroke:none;fill-rule:nonzero;fill:rgb(0%,80.000001%,100%);fill-opacity:1;" d="M 9.332031 3.332031 C 8.667969 3.332031 8.667969 4 8.667969 4 L 7.332031 4 L 7.332031 11.332031 L 6.667969 11.332031 C 6.667969 10.667969 6 10.667969 6 10.667969 L 3.332031 10.667969 C 2.667969 10.667969 2.667969 11.332031 2.667969 11.332031 L 2.667969 12 C 2.667969 12.667969 3.332031 12.667969 3.332031 12.667969 L 6 12.667969 C 6.667969 12.667969 6.667969 12 6.667969 12 L 8 12 L 8 4.667969 L 8.667969 4.667969 C 8.667969 5.332031 9.332031 5.332031 9.332031 5.332031 L 12 5.332031 C 12.667969 5.332031 12.667969 4.667969 12.667969 4.667969 L 12.667969 4 C 12.667969 3.332031 12 3.332031 12 3.332031 Z M 9.332031 3.332031 "/>
</g>
</svg>
