<svg xmlns="http://www.w3.org/2000/svg" xmlns:xlink="http://www.w3.org/1999/xlink" width="16" height="16" viewBox="0 0 16 16" version="1.1">
<g id="surface1">
<path style=" stroke:none;fill-rule:nonzero;fill:rgb(67.058825%,40.000001%,100%);fill-opacity:1;" d="M 4.667969 3.339844 C 3.929688 3.339844 3.332031 3.933594 3.332031 4.671875 L 3.332031 11.339844 C 3.332031 12.078125 3.929688 12.671875 4.667969 12.671875 L 11.332031 12.671875 C 12.070312 12.671875 12.667969 12.078125 12.667969 11.339844 L 12.667969 4.671875 C 12.667969 3.933594 12.070312 3.339844 11.332031 3.339844 Z M 8 5.339844 C 8.738281 5.339844 9.332031 5.9375 9.332031 6.671875 C 9.332031 7.410156 8.738281 8.007812 8 8.007812 C 7.261719 8.007812 6.667969 7.410156 6.667969 6.671875 C 6.667969 5.9375 7.261719 5.339844 8 5.339844 Z M 8 8.671875 C 10.667969 8.671875 10.667969 10.453125 10.667969 10.453125 L 10.667969 10.671875 L 5.332031 10.671875 L 5.332031 10.453125 C 5.332031 10.453125 5.332031 8.675781 8 8.671875 Z M 8 8.671875 "/>
</g>
</svg>
