<svg xmlns="http://www.w3.org/2000/svg" xmlns:xlink="http://www.w3.org/1999/xlink" width="16" height="16" viewBox="0 0 16 16" version="1.1">
<g id="surface1">
<path style=" stroke:none;fill-rule:nonzero;fill:rgb(0%,100%,66.666669%);fill-opacity:1;" d="M 7.332031 3.332031 L 7.332031 4.058594 C 5.65625 4.34375 4.34375 5.65625 4.058594 7.332031 L 3.332031 7.332031 L 3.332031 8.667969 L 4.058594 8.667969 C 4.34375 10.34375 5.65625 11.65625 7.332031 11.941406 L 7.332031 12.667969 L 8.667969 12.667969 L 8.667969 11.941406 C 10.34375 11.65625 11.65625 10.34375 11.941406 8.667969 L 12.667969 8.667969 L 12.667969 7.332031 L 11.941406 7.332031 C 11.65625 5.65625 10.34375 4.34375 8.667969 4.058594 L 8.667969 3.332031 Z M 7.332031 5.421875 L 7.332031 7.332031 L 5.421875 7.332031 C 5.664062 6.394531 6.394531 5.664062 7.332031 5.421875 Z M 8.667969 5.421875 C 9.605469 5.664062 10.335938 6.394531 10.578125 7.332031 L 8.667969 7.332031 Z M 5.421875 8.667969 L 7.332031 8.667969 L 7.332031 10.578125 C 6.394531 10.335938 5.664062 9.605469 5.421875 8.667969 Z M 8.667969 8.667969 L 10.578125 8.667969 C 10.335938 9.605469 9.605469 10.335938 8.667969 10.578125 Z M 8.667969 8.667969 "/>
</g>
</svg>
