<svg xmlns="http://www.w3.org/2000/svg" xmlns:xlink="http://www.w3.org/1999/xlink" width="16" height="16" viewBox="0 0 16 16" version="1.1">
<g id="surface1">
<path style=" stroke:none;fill-rule:nonzero;fill:rgb(100%,74.901962%,0%);fill-opacity:1;" d="M 11 3.332031 C 10.207031 3.332031 9.527344 3.890625 9.367188 4.667969 L 5.667969 4.667969 C 4.746094 4.667969 4 5.746094 4 6.667969 C 4 7.585938 4.746094 8.667969 5.667969 8.667969 L 10.332031 8.667969 C 10.886719 8.667969 11.332031 9.449219 11.332031 10 C 11.332031 10.550781 10.886719 11.332031 10.332031 11.332031 L 6.628906 11.332031 C 6.472656 10.558594 5.789062 10 5 10 C 4.078125 10 3.332031 10.746094 3.332031 11.667969 C 3.332031 12.585938 4.078125 13.332031 5 13.332031 C 5.792969 13.332031 6.472656 12.777344 6.632812 12 L 10.332031 12 C 11.253906 12 12 10.921875 12 10 C 12 9.078125 11.253906 8 10.332031 8 L 5.667969 8 C 5.113281 8 4.667969 7.21875 4.667969 6.667969 C 4.667969 6.113281 5.113281 5.332031 5.667969 5.332031 L 9.371094 5.332031 C 9.527344 6.109375 10.210938 6.664062 11 6.667969 C 11.921875 6.667969 12.667969 5.921875 12.667969 5 C 12.667969 4.078125 11.921875 3.332031 11 3.332031 Z M 11 3.332031 "/>
</g>
</svg>
