<svg xmlns="http://www.w3.org/2000/svg" xmlns:xlink="http://www.w3.org/1999/xlink" width="16" height="16" viewBox="0 0 16 16" version="1.1">
<g id="surface1">
<path style=" stroke:none;fill-rule:nonzero;fill:rgb(100%,30.980393%,30.980393%);fill-opacity:1;" d="M 5.667969 4.667969 C 4.007812 4.667969 2.667969 6.011719 2.667969 7.667969 C 2.667969 8.480469 2.992188 9.214844 3.515625 9.753906 L 4.929688 8.339844 C 4.769531 8.160156 4.667969 7.925781 4.667969 7.667969 C 4.667969 7.121094 5.113281 6.667969 5.667969 6.667969 C 5.925781 6.667969 6.160156 6.769531 6.339844 6.933594 L 7.75 5.519531 C 7.203125 4.988281 6.460938 4.671875 5.667969 4.667969 Z M 12.0625 6.667969 L 10.054688 8.667969 L 10.667969 8.667969 L 10.667969 10 L 12.667969 10 L 12.667969 8.667969 L 13.332031 8.667969 L 13.332031 6.667969 Z M 12.0625 6.667969 "/>
<path style=" stroke:none;fill-rule:nonzero;fill:rgb(100%,30.980393%,30.980393%);fill-opacity:1;" d="M 4 10.214844 L 4 12 L 5.78125 12 L 10.28125 7.5 L 8.5 5.714844 Z M 11.859375 5.925781 C 12.046875 5.738281 12.046875 5.441406 11.859375 5.253906 L 10.746094 4.140625 C 10.554688 3.953125 10.261719 3.953125 10.074219 4.140625 L 9.140625 5.074219 L 10.921875 6.859375 Z M 11.859375 5.925781 "/>
</g>
</svg>
