<svg xmlns="http://www.w3.org/2000/svg" xmlns:xlink="http://www.w3.org/1999/xlink" width="16" height="16" viewBox="0 0 16 16" version="1.1">
<g id="surface1">
<path style=" stroke:none;fill-rule:nonzero;fill:rgb(67.058825%,40.000001%,100%);fill-opacity:1;" d="M 4.671875 3.332031 C 3.171875 3.332031 3.339844 4.667969 3.339844 4.667969 L 3.339844 12.667969 L 12.667969 12.667969 L 12.667969 6 L 11.335938 6 L 11.335938 11.332031 L 4.671875 11.332031 L 4.671875 6 L 10 6 L 10 3.332031 Z M 10.667969 3.332031 L 10.667969 6 L 12.667969 4.667969 Z M 6.957031 6.667969 C 6.246094 6.667969 5.945312 6.902344 5.945312 7.503906 C 5.945312 7.503906 5.929688 7.894531 5.925781 8 C 5.894531 8.246094 5.808594 8.453125 5.539062 8.453125 L 5.335938 8.453125 L 5.335938 8.882812 L 5.539062 8.882812 C 5.933594 8.882812 5.945312 9.3125 5.945312 9.683594 C 5.941406 9.796875 5.957031 9.929688 5.957031 10 C 6.015625 10.476562 6.316406 10.667969 6.957031 10.667969 L 6.957031 10.273438 C 6.65625 10.273438 6.550781 10.191406 6.507812 10 C 6.488281 9.921875 6.484375 9.65625 6.476562 9.53125 C 6.476562 9.253906 6.394531 8.839844 5.992188 8.667969 C 6.308594 8.535156 6.421875 8.25 6.457031 8 C 6.472656 7.929688 6.472656 7.851562 6.476562 7.796875 C 6.476562 7.21875 6.480469 7.0625 6.957031 7.0625 Z M 9.050781 6.667969 L 9.050781 7.0625 C 9.523438 7.0625 9.53125 7.21875 9.53125 7.796875 C 9.535156 7.851562 9.53125 7.929688 9.546875 8 C 9.582031 8.25 9.695312 8.535156 10.011719 8.667969 C 9.613281 8.839844 9.53125 9.253906 9.53125 9.53125 C 9.519531 9.65625 9.519531 9.921875 9.496094 10 C 9.453125 10.191406 9.351562 10.273438 9.050781 10.273438 L 9.050781 10.667969 C 9.6875 10.667969 9.992188 10.476562 10.046875 10 C 10.050781 9.929688 10.0625 9.796875 10.058594 9.683594 C 10.058594 9.3125 10.074219 8.882812 10.464844 8.882812 L 10.667969 8.882812 L 10.667969 8.453125 L 10.464844 8.453125 C 10.195312 8.453125 10.109375 8.246094 10.078125 8 C 10.074219 7.894531 10.058594 7.503906 10.058594 7.503906 C 10.058594 6.902344 9.761719 6.667969 9.050781 6.667969 Z M 9.050781 6.667969 "/>
</g>
</svg>
