<svg xmlns="http://www.w3.org/2000/svg" xmlns:xlink="http://www.w3.org/1999/xlink" width="16" height="16" viewBox="0 0 16 16" version="1.1">
<g id="surface1">
<path style=" stroke:none;fill-rule:nonzero;fill:rgb(0%,100%,66.666669%);fill-opacity:1;" d="M 8 2.667969 C 5.046875 2.667969 2.667969 5.046875 2.667969 8 C 2.667969 10.953125 5.046875 13.332031 8 13.332031 C 9.265625 13.332031 10.421875 12.894531 11.332031 12.164062 L 11.332031 11.332031 L 11.269531 11.332031 C 10.429688 12.160156 9.277344 12.667969 8 12.667969 C 5.414062 12.667969 3.332031 10.585938 3.332031 8 C 3.332031 5.414062 5.414062 3.332031 8 3.332031 C 10.585938 3.332031 12.667969 5.414062 12.667969 8 C 12.667969 8.464844 12.597656 8.910156 12.472656 9.332031 L 13.160156 9.332031 C 13.269531 8.90625 13.332031 8.460938 13.332031 8 C 13.332031 5.046875 10.953125 2.667969 8 2.667969 M 7.332031 4 L 7.332031 8.667969 L 11.332031 8.667969 L 11.332031 8 L 8 8 L 8 4 L 7.332031 4 "/>
<path style=" stroke:none;fill-rule:nonzero;fill:rgb(23.921569%,68.235296%,91.37255%);fill-opacity:1;" d="M 9.769531 10 L 9.769531 10.667969 L 11.667969 10.667969 C 12.21875 10.667969 12.667969 11.113281 12.667969 11.667969 C 12.667969 12.21875 12.21875 12.667969 11.667969 12.667969 L 11.667969 13.332031 C 12.585938 13.332031 13.332031 12.585938 13.332031 11.667969 C 13.332031 10.746094 12.585938 10 11.667969 10 L 9.769531 10 "/>
</g>
</svg>
