<svg xmlns="http://www.w3.org/2000/svg" xmlns:xlink="http://www.w3.org/1999/xlink" width="16" height="16" viewBox="0 0 16 16" version="1.1">
<g id="surface1">
<path style=" stroke:none;fill-rule:nonzero;fill:rgb(100%,74.901962%,0%);fill-opacity:1;" d="M 4.644531 4 C 4.644531 4 3.332031 4 3.332031 5.332031 L 3.332031 9.332031 C 3.332031 10.070312 3.929688 10.667969 4.667969 10.667969 L 8 10.667969 L 9.332031 12.667969 L 10.667969 10.667969 L 11.332031 10.667969 C 11.332031 10.667969 12.667969 10.667969 12.667969 9.332031 L 12.667969 5.332031 C 12.667969 4 11.332031 4 11.332031 4 Z M 7.058594 5.449219 L 8 6.390625 L 8.941406 5.449219 L 9.886719 6.390625 L 8.941406 7.332031 L 9.886719 8.277344 L 8.941406 9.21875 L 8 8.277344 L 7.058594 9.21875 L 6.113281 8.277344 L 7.058594 7.332031 L 6.113281 6.390625 Z M 7.058594 5.449219 "/>
</g>
</svg>
