<svg xmlns="http://www.w3.org/2000/svg" xmlns:xlink="http://www.w3.org/1999/xlink" width="16" height="16" viewBox="0 0 16 16" version="1.1">
<g id="surface1">
<path style=" stroke:none;fill-rule:nonzero;fill:rgb(100%,30.980393%,30.980393%);fill-opacity:1;" d="M 5.332031 3.332031 C 4.597656 3.332031 4 3.929688 4 4.667969 C 4 5.050781 4.164062 5.414062 4.453125 5.667969 C 4.164062 5.917969 4 6.285156 4 6.667969 C 4 7.402344 4.597656 8 5.332031 8 C 6.070312 8 6.667969 7.402344 6.667969 6.667969 C 6.667969 6.285156 6.5 5.917969 6.214844 5.667969 C 6.5 5.414062 6.667969 5.050781 6.667969 4.667969 C 6.667969 3.929688 6.070312 3.332031 5.332031 3.332031 Z M 8 3.332031 L 8 4 C 9.796875 4.003906 11.433594 5.042969 12.207031 6.667969 L 9.800781 6.667969 L 9.800781 7.332031 L 13.132812 7.332031 L 13.132812 4 L 12.464844 4 L 12.464844 5.769531 C 11.484375 4.253906 9.804688 3.335938 8 3.332031 Z M 5.332031 4 C 5.703125 4 6 4.296875 6 4.667969 C 6 5.035156 5.703125 5.332031 5.332031 5.332031 C 4.964844 5.332031 4.667969 5.035156 4.667969 4.667969 C 4.667969 4.296875 4.964844 4 5.332031 4 Z M 5.332031 6 C 5.703125 6 6 6.296875 6 6.667969 C 6 7.035156 5.703125 7.332031 5.332031 7.332031 C 4.964844 7.332031 4.667969 7.035156 4.667969 6.667969 C 4.667969 6.296875 4.964844 6 5.332031 6 Z M 8.667969 8 L 8.667969 8.667969 L 9.332031 8.667969 L 9.332031 12.667969 L 10 12.667969 L 10 8 Z M 12 8 C 11.261719 8 10.667969 8.597656 10.667969 9.332031 L 10.667969 11.332031 C 10.667969 12.070312 11.261719 12.667969 12 12.667969 C 12.738281 12.667969 13.332031 12.070312 13.332031 11.332031 C 13.332031 10.597656 12.738281 10 12 10 C 11.765625 10 11.535156 10.0625 11.332031 10.179688 L 11.332031 9.332031 C 11.332031 8.964844 11.632812 8.667969 12 8.667969 C 12.367188 8.667969 12.667969 8.964844 12.667969 9.332031 L 13.332031 9.332031 C 13.332031 8.597656 12.738281 8 12 8 Z M 3.332031 8.667969 L 3.332031 12 L 4 12 L 4 10.230469 C 4.980469 11.746094 6.660156 12.664062 8.464844 12.667969 L 8.464844 12 C 6.667969 11.996094 5.03125 10.957031 4.261719 9.332031 L 6.667969 9.332031 L 6.667969 8.667969 Z M 12 10.667969 C 12.367188 10.667969 12.667969 10.964844 12.667969 11.332031 C 12.667969 11.703125 12.367188 12 12 12 C 11.632812 12 11.332031 11.703125 11.332031 11.332031 C 11.332031 10.964844 11.632812 10.667969 12 10.667969 Z M 12 10.667969 "/>
</g>
</svg>
