<svg xmlns="http://www.w3.org/2000/svg" xmlns:xlink="http://www.w3.org/1999/xlink" width="16" height="16" viewBox="0 0 16 16" version="1.1">
<g id="surface1">
<path style=" stroke:none;fill-rule:nonzero;fill:rgb(0%,80.000001%,100%);fill-opacity:1;" d="M 3.332031 3.152344 L 3.332031 3.820312 L 4 3.820312 L 4 7.820312 L 4.667969 7.820312 L 4.667969 3.152344 Z M 6.667969 3.152344 C 5.929688 3.152344 5.332031 3.75 5.332031 4.488281 L 5.332031 6.488281 C 5.332031 7.222656 5.929688 7.820312 6.667969 7.820312 C 7.402344 7.820312 8 7.222656 8 6.488281 C 8 5.75 7.402344 5.152344 6.667969 5.152344 C 6.433594 5.152344 6.203125 5.214844 6 5.332031 L 6 4.488281 C 6 4.117188 6.296875 3.820312 6.667969 3.820312 C 7.035156 3.820312 7.332031 4.117188 7.332031 4.488281 L 8 4.488281 C 8 3.75 7.402344 3.152344 6.667969 3.152344 Z M 8 3.332031 L 8 4 C 9.796875 4.003906 11.433594 5.042969 12.207031 6.667969 L 9.800781 6.667969 L 9.800781 7.332031 L 13.132812 7.332031 L 13.132812 4 L 12.464844 4 L 12.464844 5.769531 C 11.484375 4.253906 9.804688 3.335938 8 3.332031 Z M 6.667969 5.820312 C 7.035156 5.820312 7.332031 6.117188 7.332031 6.488281 C 7.332031 6.855469 7.035156 7.152344 6.667969 7.152344 C 6.296875 7.152344 6 6.855469 6 6.488281 C 6 6.117188 6.296875 5.820312 6.667969 5.820312 Z M 12 8 C 11.261719 8 10.667969 8.597656 10.667969 9.332031 C 10.667969 9.714844 10.832031 10.082031 11.121094 10.332031 C 10.832031 10.585938 10.667969 10.949219 10.667969 11.332031 C 10.667969 12.070312 11.261719 12.667969 12 12.667969 C 12.738281 12.667969 13.332031 12.070312 13.332031 11.332031 C 13.332031 10.949219 13.167969 10.585938 12.878906 10.332031 C 13.167969 10.082031 13.332031 9.714844 13.332031 9.332031 C 13.332031 8.597656 12.738281 8 12 8 Z M 3.332031 8.667969 L 3.332031 12 L 4 12 L 4 10.230469 C 4.980469 11.746094 6.660156 12.664062 8.464844 12.667969 L 8.464844 12 C 6.667969 11.996094 5.03125 10.957031 4.261719 9.332031 L 6.667969 9.332031 L 6.667969 8.667969 Z M 12 8.667969 C 12.367188 8.667969 12.667969 8.964844 12.667969 9.332031 C 12.667969 9.703125 12.367188 10 12 10 C 11.632812 10 11.332031 9.703125 11.332031 9.332031 C 11.332031 8.964844 11.632812 8.667969 12 8.667969 Z M 12 10.667969 C 12.367188 10.667969 12.667969 10.964844 12.667969 11.332031 C 12.667969 11.703125 12.367188 12 12 12 C 11.632812 12 11.332031 11.703125 11.332031 11.332031 C 11.332031 10.964844 11.632812 10.667969 12 10.667969 Z M 12 10.667969 "/>
</g>
</svg>
