<svg xmlns="http://www.w3.org/2000/svg" xmlns:xlink="http://www.w3.org/1999/xlink" width="16" height="16" viewBox="0 0 16 16" version="1.1">
<g id="surface1">
<path style=" stroke:none;fill-rule:nonzero;fill:rgb(0%,100%,66.666669%);fill-opacity:1;" d="M 3.332031 3.332031 L 3.332031 7.332031 L 7.332031 7.332031 L 7.332031 3.332031 Z M 8.667969 3.332031 L 8.667969 7.332031 L 12.667969 7.332031 L 12.667969 3.332031 Z M 3.332031 8.667969 L 3.332031 12.667969 L 7.332031 12.667969 L 7.332031 8.667969 Z M 10.667969 8.667969 C 9.332031 8.667969 9.332031 9.332031 9.332031 9.332031 L 9.332031 10.667969 L 8.667969 10.667969 L 8.667969 12.667969 L 12.667969 12.667969 L 12.667969 10.667969 L 12 10.667969 L 12 9.332031 C 12 9.332031 12 8.667969 10.667969 8.667969 Z M 10.667969 9.332031 C 10.914062 9.332031 11.332031 9.484375 11.332031 9.667969 L 11.332031 10.667969 L 10 10.667969 L 10 9.667969 C 10 9.484375 10.417969 9.332031 10.667969 9.332031 Z M 10.667969 9.332031 "/>
</g>
</svg>
