<svg xmlns="http://www.w3.org/2000/svg" xmlns:xlink="http://www.w3.org/1999/xlink" width="16" height="16" viewBox="0 0 16 16" version="1.1">
<g id="surface1">
<path style=" stroke:none;fill-rule:nonzero;fill:rgb(100%,30.980393%,30.980393%);fill-opacity:1;" d="M 12.664062 3.335938 C 12.542969 3.191406 8.238281 6.832031 7.019531 8.339844 C 6.84375 8.558594 6.800781 8.71875 6.566406 9.132812 C 6.71875 9.25 7.003906 9.523438 7.207031 9.992188 C 7.605469 9.734375 7.792969 9.695312 8.003906 9.492188 C 9.390625 8.179688 12.78125 3.472656 12.664062 3.335938 Z M 5.941406 9.476562 C 5.421875 9.496094 4.921875 9.9375 4.574219 10.875 C 4.179688 11.945312 3.472656 12.375 3.332031 12.347656 C 4.074219 12.648438 6.328125 13.417969 6.886719 10.484375 C 6.648438 9.78125 6.167969 9.496094 6.167969 9.496094 C 6.089844 9.480469 6.015625 9.476562 5.941406 9.476562 Z M 5.941406 9.476562 "/>
</g>
</svg>
