<svg xmlns="http://www.w3.org/2000/svg" xmlns:xlink="http://www.w3.org/1999/xlink" width="16" height="16" viewBox="0 0 16 16" version="1.1">
<g id="surface1">
<path style=" stroke:none;fill-rule:nonzero;fill:rgb(67.058825%,40.000001%,100%);fill-opacity:1;" d="M 8 2.667969 L 6.332031 5.332031 L 7.332031 5.332031 L 7.332031 8.667969 L 5.332031 8.667969 L 5.332031 7.820312 C 5.746094 7.582031 6 7.140625 6 6.667969 C 6 5.929688 5.402344 5.332031 4.667969 5.332031 C 3.929688 5.332031 3.332031 5.929688 3.332031 6.667969 C 3.332031 7.144531 3.585938 7.582031 4 7.820312 L 4 8.667969 C 4 10 5.332031 10 5.332031 10 L 7.332031 10 L 7.332031 10.847656 C 6.921875 11.085938 6.667969 11.523438 6.667969 12 C 6.667969 12.738281 7.261719 13.332031 8 13.332031 C 8.738281 13.332031 9.332031 12.738281 9.332031 12 C 9.332031 11.523438 9.078125 11.085938 8.667969 10.847656 L 8.667969 10 L 10.667969 10 C 10.667969 10 12 10 12 8.667969 L 12 8 C 12 8 12.75 7.875 12.667969 7.332031 L 12.667969 6 C 12.75 5.25 12 5.332031 12 5.332031 L 10.667969 5.332031 C 9.957031 5.332031 10 6 10 6 L 10 7.332031 C 10 8 10.667969 8 10.667969 8 L 10.667969 8.667969 L 8.667969 8.667969 L 8.667969 5.332031 L 9.667969 5.332031 Z M 8 2.667969 "/>
</g>
</svg>
