<svg xmlns="http://www.w3.org/2000/svg" xmlns:xlink="http://www.w3.org/1999/xlink" width="16" height="16" viewBox="0 0 16 16" version="1.1">
<g id="surface1">
<path style=" stroke:none;fill-rule:nonzero;fill:rgb(0%,80.000001%,100%);fill-opacity:1;" d="M 8 8.667969 C 7.332031 8.667969 7.332031 9.332031 7.332031 9.332031 L 4.332031 9.332031 C 4.332031 9.332031 4 9.332031 4 9.667969 C 4 10 4.332031 10 4.332031 10 L 7.332031 10 C 7.332031 10 7.332031 10.667969 8 10.667969 C 8.667969 10.667969 8.667969 10 8.667969 10 L 11.667969 10 C 11.667969 10 12 10 12 9.667969 C 12 9.332031 11.667969 9.332031 11.667969 9.332031 L 8.667969 9.332031 C 8.667969 9.332031 8.667969 8.667969 8 8.667969 Z M 8 4 C 8 4 8.667969 4 8.667969 4.667969 L 8.667969 5.332031 L 7.332031 5.332031 L 7.332031 4.667969 C 7.332031 4 8 4 8 4 Z M 2.667969 2.667969 L 2.667969 13.332031 L 13.332031 13.332031 L 13.332031 2.667969 Z M 3.332031 3.332031 L 12.667969 3.332031 L 12.667969 12.667969 L 3.332031 12.667969 Z M 3.332031 3.332031 "/>
<path style=" stroke:none;fill-rule:nonzero;fill:rgb(0%,80.000001%,100%);fill-opacity:1;" d="M 8 4.667969 C 7.261719 4.667969 6.667969 5.261719 6.667969 6 C 6.667969 6.738281 7.261719 7.332031 8 7.332031 C 8.738281 7.332031 9.332031 6.738281 9.332031 6 C 9.332031 5.261719 8.738281 4.667969 8 4.667969 Z M 8 5.332031 C 8.367188 5.332031 8.667969 5.632812 8.667969 6 C 8.667969 6.367188 8.367188 6.667969 8 6.667969 C 7.632812 6.667969 7.332031 6.367188 7.332031 6 C 7.332031 5.632812 7.632812 5.332031 8 5.332031 Z M 6.667969 6 L 6 6.667969 L 5.332031 8.667969 L 5.332031 11.332031 L 6 12 L 6 10 L 6.667969 7.332031 L 7.058594 6.941406 C 6.808594 6.691406 6.667969 6.355469 6.667969 6 Z M 9.332031 6 C 9.332031 6.355469 9.191406 6.691406 8.941406 6.941406 L 9.332031 7.332031 L 10 10 L 10 12 L 10.667969 11.332031 L 10.667969 8.667969 L 10 6.667969 Z M 9.332031 6 "/>
</g>
</svg>
