<svg xmlns="http://www.w3.org/2000/svg" xmlns:xlink="http://www.w3.org/1999/xlink" width="16" height="16" viewBox="0 0 16 16" version="1.1">
<g id="surface1">
<path style=" stroke:none;fill-rule:nonzero;fill:rgb(100%,74.901962%,0%);fill-opacity:1;" d="M 8 3.335938 C 5.421875 3.335938 3.332031 5.425781 3.332031 8.003906 C 3.332031 10.578125 5.421875 12.667969 8 12.667969 C 10.578125 12.667969 12.667969 10.578125 12.667969 8.003906 C 12.667969 5.425781 10.578125 3.335938 8 3.335938 Z M 7.332031 4.667969 L 8.667969 4.667969 L 8.667969 8.667969 L 7.332031 8.667969 Z M 8 9.332031 C 8.367188 9.332031 8.667969 9.632812 8.667969 10 C 8.667969 10.367188 8.367188 10.667969 8 10.667969 C 7.632812 10.667969 7.332031 10.367188 7.332031 10 C 7.332031 9.632812 7.632812 9.332031 8 9.332031 Z M 8 9.332031 "/>
</g>
</svg>
