<svg xmlns="http://www.w3.org/2000/svg" xmlns:xlink="http://www.w3.org/1999/xlink" width="16" height="16" viewBox="0 0 16 16" version="1.1">
<g id="surface1">
<path style=" stroke:none;fill-rule:nonzero;fill:rgb(0%,80.000001%,100%);fill-opacity:1;" d="M 3.332031 4 L 3.332031 12 L 4.667969 12 L 4.667969 4 Z M 6 4.667969 L 6 6 L 9.996094 6 C 10.28125 6 10.664062 6.410156 10.664062 6.667969 L 10.664062 7.332031 L 7.332031 7.332031 C 6.71875 7.332031 6.175781 7.589844 5.832031 7.980469 C 5.492188 8.367188 5.328125 8.851562 5.332031 9.332031 C 5.335938 9.8125 5.511719 10.300781 5.855469 10.6875 C 6.195312 11.074219 6.726562 11.332031 7.332031 11.332031 L 11.996094 11.332031 L 11.996094 10.769531 C 12.007812 10.707031 11.996094 10.667969 11.996094 10.667969 L 11.996094 6.667969 C 11.996094 5.578125 11.117188 4.667969 9.996094 4.667969 Z M 7.332031 8.667969 L 10.664062 8.667969 L 10.664062 10 L 7.332031 10 C 7.066406 10 6.957031 9.925781 6.855469 9.8125 C 6.753906 9.699219 6.667969 9.519531 6.667969 9.332031 C 6.664062 9.148438 6.738281 8.964844 6.832031 8.855469 C 6.929688 8.742188 7.050781 8.667969 7.332031 8.667969 Z M 7.332031 8.667969 "/>
</g>
</svg>
