<svg xmlns="http://www.w3.org/2000/svg" xmlns:xlink="http://www.w3.org/1999/xlink" width="16" height="16" viewBox="0 0 16 16" version="1.1">
<g id="surface1">
<path style=" stroke:none;fill-rule:nonzero;fill:rgb(0%,80.000001%,100%);fill-opacity:1;" d="M 7.660156 2.664062 L 7.667969 2.667969 C 7.113281 2.667969 6.667969 3.113281 6.667969 3.667969 C 6.667969 3.796875 6.691406 3.925781 6.742188 4.046875 L 4.148438 6.125 C 4 6.042969 3.835938 6 3.667969 6 C 3.113281 6 2.667969 6.449219 2.667969 7 C 2.667969 7.421875 2.933594 7.800781 3.332031 7.941406 L 3.332031 11.390625 C 2.933594 11.53125 2.667969 11.910156 2.667969 12.332031 C 2.667969 12.886719 3.113281 13.332031 3.667969 13.332031 C 4.089844 13.332031 4.46875 13.066406 4.609375 12.667969 L 7.390625 12.667969 C 7.53125 13.066406 7.910156 13.332031 8.332031 13.332031 C 8.886719 13.332031 9.332031 12.886719 9.332031 12.332031 C 9.332031 12.167969 9.289062 12 9.210938 11.855469 L 11.289062 9.257812 C 11.40625 9.308594 11.535156 9.332031 11.667969 9.332031 C 12.21875 9.332031 12.667969 8.886719 12.667969 8.332031 C 12.667969 7.78125 12.21875 7.332031 11.667969 7.332031 C 11.53125 7.332031 11.402344 7.359375 11.277344 7.414062 L 8.546875 4.136719 C 8.625 3.992188 8.664062 3.828125 8.660156 3.664062 C 8.660156 3.113281 8.214844 2.664062 7.660156 2.664062 Z M 7.1875 4.542969 C 7.335938 4.625 7.5 4.667969 7.667969 4.667969 C 7.800781 4.667969 7.933594 4.640625 8.054688 4.585938 L 10.785156 7.863281 C 10.707031 8.007812 10.664062 8.171875 10.664062 8.335938 C 10.664062 8.503906 10.707031 8.667969 10.789062 8.816406 L 8.710938 11.414062 C 8.589844 11.363281 8.460938 11.339844 8.332031 11.339844 C 7.910156 11.339844 7.53125 11.605469 7.390625 12.003906 L 4.605469 12.003906 C 4.507812 11.722656 4.28125 11.5 4 11.398438 L 4 7.949219 C 4.398438 7.808594 4.667969 7.429688 4.667969 7.007812 C 4.667969 6.875 4.640625 6.746094 4.589844 6.628906 L 7.1875 4.550781 Z M 7.1875 4.542969 "/>
</g>
</svg>
