<svg xmlns="http://www.w3.org/2000/svg" xmlns:xlink="http://www.w3.org/1999/xlink" width="16" height="16" viewBox="0 0 16 16" version="1.1">
<g id="surface1">
<path style=" stroke:none;fill-rule:nonzero;fill:rgb(100%,74.901962%,0%);fill-opacity:1;" d="M 4.667969 3.335938 L 4.667969 4.335938 L 3.335938 4.335938 L 3.335938 5.667969 L 4.667969 5.667969 L 4.667969 6.667969 L 7.335938 6.667969 L 7.335938 5.667969 L 8.667969 5.667969 L 8.667969 6.667969 L 11.335938 6.667969 L 11.335938 5.667969 L 12.667969 5.667969 L 12.667969 4.335938 L 11.335938 4.335938 L 11.335938 3.335938 L 8.667969 3.335938 L 8.667969 4.335938 L 7.335938 4.335938 L 7.335938 3.335938 Z M 4.667969 9.335938 L 4.667969 10.335938 L 3.335938 10.335938 L 3.335938 11.667969 L 4.667969 11.667969 L 4.667969 12.667969 L 7.335938 12.667969 L 7.335938 11.667969 L 8.667969 11.667969 L 8.667969 12.667969 L 11.335938 12.667969 L 11.335938 11.667969 L 12.667969 11.667969 L 12.667969 10.335938 L 11.335938 10.335938 L 11.335938 9.335938 L 8.667969 9.335938 L 8.667969 10.335938 L 7.335938 10.335938 L 7.335938 9.335938 Z M 4.667969 9.335938 "/>
</g>
</svg>
