<svg xmlns="http://www.w3.org/2000/svg" xmlns:xlink="http://www.w3.org/1999/xlink" width="16" height="16" viewBox="0 0 16 16" version="1.1">
<g id="surface1">
<path style=" stroke:none;fill-rule:nonzero;fill:rgb(0%,80.000001%,100%);fill-opacity:1;" d="M 0.328125 0 C 0.199219 0.00390625 0.0820312 0.0820312 0.03125 0.199219 C -0.0195312 0.316406 0 0.457031 0.0859375 0.554688 C 0.691406 1.257812 1.789062 1.597656 3.074219 1.875 C 3.984375 2.070312 4.992188 2.21875 6 2.371094 L 6 4.003906 L 7.335938 4.003906 L 7.335938 6.003906 L 6 6.003906 L 6 6.960938 C 5.996094 6.960938 5.992188 6.964844 5.992188 6.964844 C 4.585938 7.195312 3.171875 7.496094 2.054688 8.085938 C 0.933594 8.675781 0.0976562 9.609375 0.0078125 10.976562 C -0.0273438 11.519531 0.171875 12.003906 0.53125 12.359375 C 0.886719 12.71875 1.378906 12.964844 1.964844 13.160156 C 3.042969 13.515625 4.460938 13.691406 6 13.832031 L 6 15.332031 L 7.335938 15.332031 L 7.335938 15.996094 L 8.003906 15.996094 L 8.003906 15.332031 L 9.332031 15.332031 L 9.332031 14.136719 C 11.800781 14.375 14.160156 14.730469 15.476562 15.609375 C 15.632812 15.710938 15.835938 15.667969 15.941406 15.515625 C 16.042969 15.363281 16 15.15625 15.847656 15.054688 C 15.121094 14.570312 14.183594 14.242188 13.148438 14 L 15.996094 14 L 15.996094 13.332031 L 9.332031 13.332031 L 9.332031 12 L 8.003906 12 L 8.003906 9.335938 L 9.332031 9.335938 L 9.332031 8 L 15.996094 8 L 15.996094 7.335938 L 9.332031 7.335938 L 9.332031 7.109375 C 9.566406 7.0625 9.804688 7.015625 10.019531 6.964844 C 10.585938 6.828125 11.085938 6.664062 11.488281 6.425781 C 11.894531 6.1875 12.214844 5.855469 12.324219 5.414062 C 12.464844 4.855469 12.394531 4.339844 12.152344 3.917969 C 11.90625 3.5 11.507812 3.183594 11.027344 2.929688 C 10.847656 2.832031 10.640625 2.75 10.433594 2.667969 L 15.996094 2.667969 L 15.996094 2.003906 L 9.332031 2.003906 L 9.332031 0.671875 L 8.003906 0.671875 L 8.003906 0.00390625 L 7.335938 0.00390625 L 7.335938 0.671875 L 6 0.671875 L 6 1.699219 C 5.027344 1.550781 4.0625 1.40625 3.210938 1.222656 C 1.972656 0.957031 0.988281 0.582031 0.59375 0.121094 C 0.527344 0.0429688 0.429688 -0.00390625 0.328125 0 Z M 14.328125 2.667969 L 13.308594 4.003906 L 13.996094 4.003906 L 13.996094 6.003906 L 13.328125 6.003906 L 14.328125 7.335938 L 15.328125 6.003906 L 14.664062 6.003906 L 14.664062 4.003906 L 15.308594 4.003906 Z M 14.328125 8 L 13.308594 9.335938 L 13.996094 9.335938 L 13.996094 12 L 13.328125 12 L 14.328125 13.332031 L 15.328125 12 L 14.664062 12 L 14.664062 9.335938 L 15.308594 9.335938 Z M 9.332031 3.007812 C 9.863281 3.15625 10.34375 3.320312 10.71875 3.519531 C 11.128906 3.734375 11.417969 3.980469 11.574219 4.253906 C 11.730469 4.527344 11.78125 4.828125 11.675781 5.253906 C 11.617188 5.480469 11.460938 5.667969 11.152344 5.851562 C 10.84375 6.035156 10.398438 6.1875 9.863281 6.316406 C 9.699219 6.359375 9.511719 6.390625 9.332031 6.429688 L 9.332031 6.003906 L 8.003906 6.003906 L 8.003906 4.003906 L 9.332031 4.003906 Z M 6 7.640625 L 6 9.335938 L 7.335938 9.335938 L 7.335938 12 L 6 12 L 6 13.160156 C 4.5 13.023438 3.136719 12.847656 2.175781 12.527344 C 1.648438 12.351562 1.246094 12.132812 1 11.890625 C 0.753906 11.644531 0.648438 11.390625 0.671875 11.019531 C 0.75 9.890625 1.371094 9.199219 2.363281 8.675781 C 3.335938 8.164062 4.652344 7.863281 6 7.640625 Z M 6 7.640625 "/>
</g>
</svg>
