<svg xmlns="http://www.w3.org/2000/svg" xmlns:xlink="http://www.w3.org/1999/xlink" width="16" height="16" viewBox="0 0 16 16" version="1.1">
<g id="surface1">
<path style=" stroke:none;fill-rule:nonzero;fill:rgb(0%,100%,66.666669%);fill-opacity:1;" d="M 4.332031 3.332031 L 4.332031 4.667969 L 3.332031 4.667969 L 3.332031 7.332031 L 4.332031 7.332031 L 4.332031 8.667969 L 3.332031 8.667969 L 3.332031 11.332031 L 4.332031 11.332031 L 4.332031 12.667969 L 5.667969 12.667969 L 5.667969 11.332031 L 6.667969 11.332031 L 6.667969 8.667969 L 5.667969 8.667969 L 5.667969 7.332031 L 6.667969 7.332031 L 6.667969 4.667969 L 5.667969 4.667969 L 5.667969 3.332031 Z M 10.332031 3.332031 L 10.332031 4.667969 L 9.332031 4.667969 L 9.332031 7.332031 L 10.332031 7.332031 L 10.332031 8.667969 L 9.332031 8.667969 L 9.332031 11.332031 L 10.332031 11.332031 L 10.332031 12.667969 L 11.667969 12.667969 L 11.667969 11.332031 L 12.667969 11.332031 L 12.667969 8.667969 L 11.667969 8.667969 L 11.667969 7.332031 L 12.667969 7.332031 L 12.667969 4.667969 L 11.667969 4.667969 L 11.667969 3.332031 Z M 10.332031 3.332031 "/>
</g>
</svg>
