<svg xmlns="http://www.w3.org/2000/svg" xmlns:xlink="http://www.w3.org/1999/xlink" width="16" height="16" viewBox="0 0 16 16" version="1.1">
<g id="surface1">
<path style=" stroke:none;fill-rule:nonzero;fill:rgb(0%,100%,66.666669%);fill-opacity:1;" d="M 4.667969 3.339844 C 4.667969 3.339844 4 3.339844 4 4.007812 L 4 12.007812 C 4 12.671875 4.667969 12.671875 4.667969 12.671875 L 11.332031 12.671875 C 12 12.671875 12 12.007812 12 12.007812 L 12 9.171875 L 10.667969 10.007812 L 10.667969 11.339844 L 5.332031 11.339844 L 5.332031 4.675781 L 10.667969 4.675781 L 10.667969 6.007812 L 12 6.839844 L 12 4.007812 C 12 3.339844 11.332031 3.339844 11.332031 3.339844 Z M 9.332031 6.003906 L 9.332031 7.339844 L 6.667969 7.339844 L 6.667969 8.671875 L 9.332031 8.671875 L 9.332031 10.003906 L 12.332031 8.003906 Z M 9.332031 6.003906 "/>
</g>
</svg>
