<svg xmlns="http://www.w3.org/2000/svg" xmlns:xlink="http://www.w3.org/1999/xlink" width="16" height="16" viewBox="0 0 16 16" version="1.1">
<g id="surface1">
<path style=" stroke:none;fill-rule:nonzero;fill:rgb(100%,74.901962%,0%);fill-opacity:1;" d="M 9.394531 3.332031 L 10.730469 4.667969 L 7.332031 4.667969 L 7.332031 5.332031 L 10.730469 5.332031 L 9.394531 6.667969 L 10.332031 6.667969 L 11.875 5.144531 L 12 5 L 11.875 4.855469 L 10.332031 3.332031 Z M 5.667969 4.667969 L 4.125 6.1875 L 4 6.332031 L 4.125 6.480469 L 5.667969 8 L 6.605469 8 L 5.269531 6.667969 L 8.667969 6.667969 L 8.667969 6 L 5.269531 6 L 6.605469 4.667969 Z M 4 7.992188 L 4 12 C 4 12.667969 4.667969 12.667969 4.667969 12.667969 L 11.332031 12.667969 C 11.332031 12.667969 12 12.667969 12 12 L 12 8.007812 L 10.667969 8.007812 L 10.667969 11.332031 L 5.332031 11.332031 L 5.332031 7.992188 Z M 4 7.992188 "/>
</g>
</svg>
