<svg xmlns="http://www.w3.org/2000/svg" xmlns:xlink="http://www.w3.org/1999/xlink" width="16" height="16" viewBox="0 0 16 16" version="1.1">
<g id="surface1">
<path style=" stroke:none;fill-rule:nonzero;fill:rgb(0%,80.000001%,100%);fill-opacity:1;" d="M 4.667969 3.332031 C 4.667969 3.332031 4 3.332031 4 4 L 4 12 C 4 12.667969 4.667969 12.667969 4.667969 12.667969 L 7.332031 12.667969 L 7.332031 11.332031 L 5.332031 11.332031 L 5.332031 4.667969 L 10.667969 4.667969 L 10.667969 7.992188 L 12 7.992188 L 12 4 C 12 3.332031 11.332031 3.332031 11.332031 3.332031 Z M 10 8.660156 C 8.667969 8.660156 8.667969 9.328125 8.667969 9.328125 L 8.667969 10.660156 L 8 10.660156 L 8 12.660156 L 12 12.660156 L 12 10.660156 L 11.332031 10.660156 L 11.332031 9.328125 C 11.332031 9.328125 11.332031 8.660156 10 8.660156 Z M 10 9.328125 C 10.25 9.328125 10.667969 9.476562 10.667969 9.660156 L 10.667969 10.660156 L 9.332031 10.660156 L 9.332031 9.660156 C 9.332031 9.476562 9.75 9.328125 10 9.328125 Z M 10 9.328125 "/>
</g>
</svg>
