<svg xmlns="http://www.w3.org/2000/svg" xmlns:xlink="http://www.w3.org/1999/xlink" width="16" height="16" viewBox="0 0 16 16" version="1.1">
<g id="surface1">
<path style=" stroke:none;fill-rule:nonzero;fill:rgb(0%,100%,66.666669%);fill-opacity:1;" d="M 10.667969 2.667969 C 9.5625 2.667969 8.667969 3.5625 8.667969 4.667969 C 8.667969 4.820312 8.695312 4.960938 8.730469 5.105469 L 6.582031 6.4375 C 6.242188 6.164062 5.804688 6 5.332031 6 C 4.230469 6 3.332031 6.894531 3.332031 8 C 3.332031 9.105469 4.230469 10 5.332031 10 C 5.804688 10 6.242188 9.835938 6.582031 9.5625 L 8.730469 10.894531 C 8.695312 11.039062 8.667969 11.179688 8.667969 11.332031 C 8.667969 12.4375 9.5625 13.332031 10.667969 13.332031 C 11.769531 13.332031 12.667969 12.4375 12.667969 11.332031 C 12.667969 10.230469 11.769531 9.332031 10.667969 9.332031 C 10.195312 9.332031 9.757812 9.496094 9.417969 9.769531 L 7.269531 8.4375 C 7.304688 8.292969 7.332031 8.152344 7.332031 8 C 7.332031 7.847656 7.304688 7.707031 7.269531 7.5625 L 9.417969 6.230469 C 9.757812 6.503906 10.195312 6.667969 10.667969 6.667969 C 11.769531 6.667969 12.667969 5.769531 12.667969 4.667969 C 12.667969 3.5625 11.769531 2.667969 10.667969 2.667969 Z M 10.667969 2.667969 "/>
</g>
</svg>
