<svg xmlns="http://www.w3.org/2000/svg" xmlns:xlink="http://www.w3.org/1999/xlink" width="16" height="16" viewBox="0 0 16 16" version="1.1">
<g id="surface1">
<path style=" stroke:none;fill-rule:nonzero;fill:rgb(0%,80.000001%,100%);fill-opacity:1;" d="M 5.332031 3.332031 L 5.332031 4.667969 L 10.667969 4.667969 L 10.667969 3.332031 Z M 4 5.332031 C 3.667969 5.332031 3.332031 5.667969 3.332031 6 L 3.332031 8.667969 C 3.332031 9 3.667969 9.332031 4 9.332031 L 4.667969 9.332031 L 4.667969 8 L 8.082031 8 C 8.527344 7.578125 9.117188 7.3125 9.769531 7.3125 C 10.957031 7.3125 11.964844 8.164062 12.1875 9.292969 C 12.449219 9.199219 12.667969 8.9375 12.667969 8.667969 L 12.667969 6 C 12.667969 5.667969 12.332031 5.332031 12 5.332031 Z M 9.773438 7.960938 C 8.777344 7.960938 7.960938 8.773438 7.960938 9.773438 C 7.960938 10.769531 8.777344 11.585938 9.773438 11.585938 C 10.097656 11.585938 10.40625 11.484375 10.667969 11.335938 C 10.695312 11.390625 10.730469 11.4375 10.773438 11.480469 L 12.003906 12.6875 C 12.199219 12.882812 12.515625 12.882812 12.710938 12.6875 C 12.90625 12.492188 12.90625 12.175781 12.710938 11.980469 L 11.480469 10.773438 C 11.441406 10.730469 11.390625 10.695312 11.335938 10.667969 C 11.488281 10.402344 11.585938 10.097656 11.585938 9.773438 C 11.585938 8.773438 10.769531 7.960938 9.773438 7.960938 Z M 9.773438 8.625 C 10.410156 8.625 10.917969 9.136719 10.917969 9.773438 C 10.917969 10.410156 10.410156 10.917969 9.773438 10.917969 C 9.136719 10.917969 8.628906 10.410156 8.628906 9.773438 C 8.628906 9.136719 9.136719 8.625 9.773438 8.625 Z M 5.332031 8.667969 L 5.332031 12 L 8.730469 12 C 7.894531 11.605469 7.3125 10.75 7.3125 9.769531 C 7.3125 9.375 7.414062 9 7.582031 8.667969 Z M 5.332031 8.667969 "/>
</g>
</svg>
