<svg xmlns="http://www.w3.org/2000/svg" xmlns:xlink="http://www.w3.org/1999/xlink" width="16" height="16" viewBox="0 0 16 16" version="1.1">
<g id="surface1">
<path style=" stroke:none;fill-rule:nonzero;fill:rgb(100%,30.980393%,30.980393%);fill-opacity:1;" d="M 4.558594 3.335938 C 4.371094 3.367188 3.996094 3.492188 3.996094 3.960938 L 3.996094 12.042969 C 3.996094 12.667969 4.664062 12.667969 4.664062 12.667969 L 11.324219 12.667969 C 11.992188 12.667969 11.992188 12.042969 11.992188 12.042969 C 12.003906 12.015625 11.996094 7.410156 11.992188 5.824219 L 9.328125 3.335938 L 4.664062 3.335938 C 4.664062 3.335938 4.621094 3.328125 4.558594 3.335938 Z M 7.996094 5.332031 L 8.507812 6.769531 L 9.882812 6.113281 L 9.230469 7.488281 L 10.664062 8 L 9.230469 8.511719 L 9.882812 9.886719 L 8.507812 9.230469 L 7.996094 10.667969 L 7.488281 9.230469 L 6.113281 9.886719 L 6.765625 8.511719 L 5.332031 8 L 6.765625 7.488281 L 6.113281 6.113281 L 7.488281 6.769531 Z M 7.996094 5.332031 "/>
</g>
</svg>
