<svg xmlns="http://www.w3.org/2000/svg" xmlns:xlink="http://www.w3.org/1999/xlink" width="16" height="16" viewBox="0 0 16 16" version="1.1">
<g id="surface1">
<path style=" stroke:none;fill-rule:nonzero;fill:rgb(96.862745%,0%,100%);fill-opacity:1;" d="M 4.5625 3.339844 C 4.375 3.367188 4 3.496094 4 3.960938 L 4 12.046875 C 4 12.667969 4.667969 12.667969 4.667969 12.667969 L 11.328125 12.667969 C 11.992188 12.667969 11.992188 12.046875 11.992188 12.046875 C 12.007812 12.015625 11.996094 7.410156 11.992188 5.828125 L 9.328125 3.339844 L 4.667969 3.339844 C 4.667969 3.339844 4.625 3.328125 4.5625 3.339844 Z M 7.332031 6.003906 L 8.667969 6.003906 L 8.667969 7.335938 L 10 7.335938 L 10 8.667969 L 8.667969 8.667969 L 8.667969 10.003906 L 7.332031 10.003906 L 7.332031 8.667969 L 6 8.667969 L 6 7.335938 L 7.332031 7.335938 Z M 7.332031 6.003906 "/>
</g>
</svg>
