<svg xmlns="http://www.w3.org/2000/svg" xmlns:xlink="http://www.w3.org/1999/xlink" width="16" height="16" viewBox="0 0 16 16" version="1.1">
<g id="surface1">
<path style=" stroke:none;fill-rule:nonzero;fill:rgb(100%,74.901962%,0%);fill-opacity:1;" d="M 4.667969 3.339844 C 4.667969 3.339844 4 3.339844 4 4.007812 L 4 12.007812 C 4 12.671875 4.667969 12.671875 4.667969 12.671875 L 11.332031 12.671875 C 11.332031 12.671875 12 12.671875 12 12.007812 L 12 9.335938 L 10.667969 9.339844 L 10.667969 11.339844 L 5.332031 11.339844 L 5.332031 4.675781 L 10.667969 4.675781 L 10.667969 6.671875 L 12 6.671875 L 12 4.007812 C 12 3.339844 11.332031 3.339844 11.332031 3.339844 Z M 10 6.003906 L 7 8.003906 L 10 10.003906 L 10 8.671875 L 12.667969 8.671875 L 12.667969 7.339844 L 10 7.339844 Z M 10 6.003906 "/>
</g>
</svg>
