<svg xmlns="http://www.w3.org/2000/svg" xmlns:xlink="http://www.w3.org/1999/xlink" width="16" height="16" viewBox="0 0 16 16" version="1.1">
<g id="surface1">
<path style=" stroke:none;fill-rule:nonzero;fill:rgb(67.058825%,40.000001%,100%);fill-opacity:1;" d="M 7.777344 3.332031 C 7.777344 3.332031 7.332031 3.332031 7.332031 3.808594 L 7.332031 6.214844 L 8.488281 7.449219 C 8.601562 7.574219 8.667969 7.734375 8.667969 7.90625 L 8.667969 10 L 10.023438 10 C 10.066406 9.785156 10.171875 9.585938 10.324219 9.433594 L 10.425781 9.332031 L 10.324219 9.234375 C 10.324219 9.234375 10.324219 9.230469 10.324219 9.230469 C 10.121094 9.03125 10 8.742188 10 8.445312 L 10 8 C 10 7.632812 10.296875 7.332031 10.667969 7.332031 L 11.109375 7.332031 C 11.410156 7.332031 11.695312 7.457031 11.898438 7.65625 C 11.898438 7.65625 11.898438 7.660156 11.898438 7.660156 L 12 7.761719 L 12.101562 7.660156 C 12.101562 7.660156 12.101562 7.65625 12.101562 7.65625 C 12.253906 7.507812 12.449219 7.398438 12.667969 7.355469 L 12.667969 5.238281 L 10.890625 3.332031 Z M 3.109375 6 C 3.109375 6 2.667969 6 2.667969 6.476562 L 2.667969 12.191406 C 2.667969 12.667969 3.109375 12.667969 3.109375 12.667969 L 7.554688 12.667969 C 8 12.667969 8 12.191406 8 12.191406 L 8 7.90625 L 6.222656 6 Z M 10.667969 8 L 10.667969 8.445312 C 10.667969 8.570312 10.714844 8.679688 10.796875 8.761719 L 11.375 9.332031 L 10.796875 9.90625 C 10.714844 9.984375 10.667969 10.097656 10.667969 10.222656 L 10.667969 10.667969 L 11.109375 10.667969 C 11.234375 10.667969 11.347656 10.617188 11.425781 10.539062 L 12 9.960938 L 12.574219 10.539062 C 12.652344 10.617188 12.765625 10.667969 12.890625 10.667969 L 13.332031 10.667969 L 13.332031 10.222656 C 13.332031 10.097656 13.285156 9.984375 13.203125 9.90625 L 12.625 9.332031 L 13.203125 8.761719 C 13.285156 8.679688 13.332031 8.570312 13.332031 8.445312 L 13.332031 8 L 12.890625 8 C 12.765625 8 12.652344 8.050781 12.574219 8.128906 L 12 8.707031 L 11.425781 8.128906 C 11.347656 8.050781 11.234375 8 11.109375 8 Z M 10.667969 8 "/>
</g>
</svg>
