<svg xmlns="http://www.w3.org/2000/svg" xmlns:xlink="http://www.w3.org/1999/xlink" width="16" height="16" viewBox="0 0 16 16" version="1.1">
<g id="surface1">
<path style=" stroke:none;fill-rule:nonzero;fill:rgb(100%,74.901962%,0%);fill-opacity:1;" d="M 6.660156 3.347656 L 6.667969 7.347656 L 5.105469 7.347656 L 7.332031 10.585938 L 7.332031 9.261719 C 7.332031 8.589844 7.933594 8.035156 8.582031 8.035156 L 10.4375 8.035156 L 10.914062 7.347656 L 9.332031 7.347656 L 9.324219 3.347656 Z M 8.582031 8.699219 C 8.253906 8.699219 8 8.9375 8 9.261719 L 8 12.742188 C 8 13.066406 8.253906 13.304688 8.582031 13.304688 L 12.75 13.304688 C 13.078125 13.304688 13.332031 13.066406 13.332031 12.742188 L 13.332031 9.261719 C 13.332031 8.9375 13.078125 8.699219 12.75 8.699219 Z M 9.332031 9.332031 L 12 9.332031 L 12 12.667969 L 11.332031 12.667969 L 11.332031 11.332031 L 10 11.332031 L 10 12.667969 L 9.332031 12.667969 Z M 10 10 L 10 10.667969 L 11.332031 10.667969 L 11.332031 10 Z M 3.332031 12.019531 L 3.332031 13.332031 L 7.503906 13.332031 C 7.402344 13.15625 7.335938 12.957031 7.335938 12.742188 L 7.335938 12.019531 Z M 3.332031 12.019531 "/>
</g>
</svg>
