<svg xmlns="http://www.w3.org/2000/svg" xmlns:xlink="http://www.w3.org/1999/xlink" width="16" height="16" viewBox="0 0 16 16" version="1.1">
<g id="surface1">
<path style=" stroke:none;fill-rule:nonzero;fill:rgb(100%,74.901962%,0%);fill-opacity:1;" d="M 4.667969 3.335938 C 4.667969 3.335938 4 3.335938 4 4.003906 L 4 5.835938 L 5.332031 6.605469 L 5.332031 4.667969 L 10.667969 4.667969 L 10.667969 10.652344 L 2.667969 5.996094 L 2.667969 10.660156 L 10.667969 10.660156 L 10.667969 11.335938 L 4 11.335938 L 4 12.003906 C 4 12.667969 4.667969 12.667969 4.667969 12.667969 L 11.332031 12.667969 C 11.332031 12.667969 12 12.667969 12 12.003906 L 12 4.003906 C 12 3.335938 11.332031 3.335938 11.332031 3.335938 Z M 4 8.03125 L 6.078125 9.347656 L 4 9.347656 Z M 4 8.03125 "/>
</g>
</svg>
