<svg xmlns="http://www.w3.org/2000/svg" xmlns:xlink="http://www.w3.org/1999/xlink" width="16" height="16" viewBox="0 0 16 16" version="1.1">
<g id="surface1">
<path style=" stroke:none;fill-rule:nonzero;fill:rgb(0%,80.000001%,100%);fill-opacity:1;" d="M 4 3.992188 L 4 5.328125 L 5.332031 5.328125 L 5.332031 3.992188 Z M 7.332031 3.992188 L 7.332031 5.328125 L 8.667969 5.328125 L 8.667969 3.992188 Z M 10.667969 3.992188 L 10.667969 5.328125 L 12 5.328125 L 12 3.992188 Z M 5.332031 5.992188 L 5.332031 7.328125 L 6.667969 7.328125 L 6.667969 5.992188 Z M 9.332031 5.992188 L 9.332031 7.328125 L 10.667969 7.328125 L 10.667969 5.992188 Z M 4 7.992188 L 4 12 C 4 12.667969 4.667969 12.667969 4.667969 12.667969 L 11.332031 12.667969 C 11.332031 12.667969 12 12.667969 12 12 L 12 8.007812 L 10.667969 8.007812 L 10.667969 11.332031 L 5.332031 11.332031 L 5.332031 7.992188 Z M 9.332031 7.992188 L 7.332031 9.992188 L 6.667969 9.328125 L 6 9.992188 L 6.667969 10.660156 L 7.332031 11.328125 L 10 8.660156 Z M 9.332031 7.992188 "/>
</g>
</svg>
