<svg xmlns="http://www.w3.org/2000/svg" xmlns:xlink="http://www.w3.org/1999/xlink" width="16" height="16" viewBox="0 0 16 16" version="1.1">
<g id="surface1">
<path style=" stroke:none;fill-rule:nonzero;fill:rgb(100%,30.980393%,30.980393%);fill-opacity:1;" d="M 4 4 L 4 5.332031 L 5.332031 5.332031 L 5.332031 4 Z M 7.332031 4 L 7.332031 5.332031 L 8.667969 5.332031 L 8.667969 4 Z M 10.667969 4 L 10.667969 5.332031 L 12 5.332031 L 12 4 Z M 5.332031 6 L 5.332031 7.332031 L 6.667969 7.332031 L 6.667969 6 Z M 9.332031 6 L 9.332031 7.332031 L 10.667969 7.332031 L 10.667969 6 Z M 4 8 L 4 12.007812 C 4 12.671875 4.667969 12.671875 4.667969 12.671875 L 11.332031 12.671875 C 11.332031 12.671875 12 12.671875 12 12.007812 L 12 8.011719 L 10.667969 8.011719 L 10.667969 11.335938 L 5.332031 11.335938 L 5.332031 8 Z M 4 8 "/>
</g>
</svg>
