<svg xmlns="http://www.w3.org/2000/svg" xmlns:xlink="http://www.w3.org/1999/xlink" width="16" height="16" viewBox="0 0 16 16" version="1.1">
<g id="surface1">
<path style=" stroke:none;fill-rule:nonzero;fill:rgb(100%,74.901962%,0%);fill-opacity:1;" d="M 8 3.332031 C 5.421875 3.332031 3.332031 5.421875 3.332031 8 C 3.332031 10.578125 5.421875 12.667969 8 12.667969 C 10.578125 12.667969 12.667969 10.578125 12.667969 8 C 12.667969 5.421875 10.578125 3.332031 8 3.332031 Z M 8 4 C 10.210938 4 12 5.789062 12 8 C 12 10.210938 10.210938 12 8 12 C 5.789062 12 4 10.210938 4 8 C 4 5.789062 5.789062 4 8 4 Z M 8 4 "/>
<path style=" stroke:none;fill-rule:nonzero;fill:rgb(100%,74.901962%,0%);fill-opacity:1;" d="M 10 5.527344 L 10 6 L 10.472656 6 L 9.332031 7.136719 L 9.332031 6.667969 L 8.863281 6.667969 Z M 6.667969 6.667969 L 9.332031 6.667969 L 9.332031 9.332031 L 6.667969 9.332031 Z M 10 3.332031 L 12.667969 3.332031 L 12.667969 6 L 10 6 Z M 10 3.332031 "/>
</g>
</svg>
