<svg xmlns="http://www.w3.org/2000/svg" xmlns:xlink="http://www.w3.org/1999/xlink" width="16" height="16" viewBox="0 0 16 16" version="1.1">
<g id="surface1">
<path style=" stroke:none;fill-rule:nonzero;fill:rgb(96.862745%,0%,100%);fill-opacity:1;" d="M 2.667969 7.824219 C 2.671875 7.550781 2.898438 7.332031 3.171875 7.332031 C 4.496094 7.332031 5.394531 7.84375 5.917969 8.546875 C 6.441406 9.253906 6.628906 10.089844 6.816406 10.789062 C 7 11.484375 7.199219 12.003906 7.449219 12.191406 C 7.574219 12.285156 7.71875 12.34375 8.011719 12.332031 C 8.300781 12.320312 8.726562 12.214844 9.292969 11.96875 C 9.941406 11.6875 10.289062 12.625 9.691406 12.886719 C 9.054688 13.164062 8.527344 13.308594 8.058594 13.332031 C 7.585938 13.351562 7.164062 13.230469 6.847656 12.992188 C 6.214844 12.515625 6.039062 11.757812 5.847656 11.042969 C 5.660156 10.332031 5.472656 9.625 5.117188 9.144531 C 4.757812 8.660156 4.261719 8.332031 3.171875 8.332031 C 2.890625 8.335938 2.660156 8.109375 2.667969 7.824219 Z M 3.832031 3.332031 C 3.386719 3.332031 3.164062 3.871094 3.484375 4.191406 L 11.808594 12.515625 C 12.273438 12.980469 12.976562 12.269531 12.515625 11.808594 L 4.191406 3.484375 C 4.082031 3.375 3.96875 3.332031 3.832031 3.332031 Z M 7.824219 2.667969 C 7.550781 2.671875 7.328125 2.898438 7.332031 3.171875 C 7.332031 4.496094 7.84375 5.394531 8.546875 5.917969 C 9.253906 6.441406 10.089844 6.628906 10.789062 6.816406 C 11.484375 7 12.003906 7.199219 12.191406 7.449219 C 12.285156 7.574219 12.34375 7.71875 12.332031 8.011719 C 12.320312 8.300781 12.214844 8.726562 11.96875 9.292969 C 11.6875 9.941406 12.625 10.289062 12.886719 9.691406 C 13.164062 9.054688 13.308594 8.527344 13.332031 8.058594 C 13.351562 7.585938 13.230469 7.164062 12.992188 6.847656 C 12.515625 6.214844 11.757812 6.039062 11.042969 5.847656 C 10.332031 5.660156 9.625 5.472656 9.144531 5.117188 C 8.660156 4.757812 8.332031 4.261719 8.332031 3.171875 C 8.335938 2.890625 8.105469 2.664062 7.824219 2.667969 Z M 7.824219 2.667969 "/>
</g>
</svg>
