<svg xmlns="http://www.w3.org/2000/svg" xmlns:xlink="http://www.w3.org/1999/xlink" width="16" height="16" viewBox="0 0 16 16" version="1.1">
<g id="surface1">
<path style=" stroke:none;fill-rule:nonzero;fill:rgb(0%,80.000001%,100%);fill-opacity:1;" d="M 11 3.332031 C 10.207031 3.332031 9.527344 3.890625 9.367188 4.667969 L 4 4.667969 L 4 5.332031 C 5.238281 5.972656 6.109375 6.988281 6.238281 7.535156 C 6.378906 8.128906 6.222656 8.808594 5.804688 9.542969 C 5.558594 9.40625 5.28125 9.332031 5 9.332031 C 4.078125 9.332031 3.332031 10.078125 3.332031 11 C 3.332031 11.921875 4.078125 12.667969 5 12.667969 C 5.792969 12.667969 6.472656 12.109375 6.632812 11.332031 L 8.667969 11.332031 L 8.667969 12.667969 L 12 12.667969 L 12 9.332031 L 8.667969 9.332031 L 8.667969 10.667969 L 6.628906 10.667969 C 6.582031 10.425781 6.480469 10.199219 6.335938 10.003906 C 6.902344 9.105469 7.140625 8.253906 6.949219 7.425781 C 6.753906 6.574219 6.160156 5.910156 5.3125 5.332031 L 9.371094 5.332031 C 9.527344 6.109375 10.210938 6.664062 11 6.667969 C 11.921875 6.667969 12.667969 5.921875 12.667969 5 C 12.667969 4.078125 11.921875 3.332031 11 3.332031 Z M 11 3.332031 "/>
</g>
</svg>
