<svg xmlns="http://www.w3.org/2000/svg" xmlns:xlink="http://www.w3.org/1999/xlink" width="16" height="16" viewBox="0 0 16 16" version="1.1">
<g id="surface1">
<path style=" stroke:none;fill-rule:nonzero;fill:rgb(0%,80.000001%,100%);fill-opacity:1;" d="M 3.667969 9.332031 L 12.332031 9.332031 C 12.519531 9.332031 12.667969 9.480469 12.667969 9.667969 C 12.667969 9.851562 12.519531 10 12.332031 10 L 3.667969 10 C 3.480469 10 3.332031 9.851562 3.332031 9.667969 C 3.332031 9.480469 3.480469 9.332031 3.667969 9.332031 Z M 8 8.667969 C 8.371094 8.667969 8.667969 8.964844 8.667969 9.332031 L 8.667969 10 C 8.667969 10.371094 8.371094 10.667969 8 10.667969 C 7.628906 10.667969 7.332031 10.371094 7.332031 10 L 7.332031 9.332031 C 7.332031 8.964844 7.628906 8.667969 8 8.667969 Z M 8 2.667969 C 8.371094 2.667969 8.667969 2.964844 8.667969 3.332031 C 8.667969 3.703125 8.371094 4 8 4 C 7.628906 4 7.332031 3.703125 7.332031 3.332031 C 7.332031 2.964844 7.628906 2.667969 8 2.667969 Z M 8 2.667969 "/>
<path style=" stroke:none;fill-rule:nonzero;fill:rgb(0%,80.000001%,100%);fill-opacity:1;" d="M 8 3.332031 C 6.894531 3.332031 6 4.230469 6 5.332031 C 6 6.4375 6.894531 7.332031 8 7.332031 C 9.105469 7.332031 10 6.4375 10 5.332031 C 10 4.230469 9.105469 3.332031 8 3.332031 Z M 8 4.667969 C 8.367188 4.667969 8.667969 4.964844 8.667969 5.332031 C 8.667969 5.703125 8.367188 6 8 6 C 7.632812 6 7.332031 5.703125 7.332031 5.332031 C 7.332031 4.964844 7.632812 4.667969 8 4.667969 Z M 6.160156 6.113281 L 5.332031 6.667969 L 4.667969 10 L 4.667969 12.667969 L 5.332031 13.332031 L 5.332031 12 L 6 10.667969 L 6.183594 7.332031 L 6.734375 6.882812 C 6.484375 6.675781 6.289062 6.414062 6.160156 6.113281 Z M 9.839844 6.117188 C 9.714844 6.414062 9.515625 6.675781 9.265625 6.882812 L 9.816406 7.332031 L 10 10.667969 L 10.667969 12 L 10.667969 13.332031 L 11.332031 12.667969 L 11.332031 10 L 10.667969 6.667969 Z M 9.839844 6.117188 "/>
</g>
</svg>
