<svg xmlns="http://www.w3.org/2000/svg" xmlns:xlink="http://www.w3.org/1999/xlink" width="16" height="16" viewBox="0 0 16 16" version="1.1">
<g id="surface1">
<path style=" stroke:none;fill-rule:nonzero;fill:rgb(0%,80.000001%,100%);fill-opacity:1;" d="M 6.667969 3.332031 C 6.296875 3.332031 6 3.632812 6 4 L 6 6 L 4 6 C 3.632812 6 3.332031 6.296875 3.332031 6.667969 L 3.332031 9.332031 C 3.332031 9.703125 3.632812 10 4 10 L 6 10 L 6 12 C 6 12.367188 6.296875 12.667969 6.667969 12.667969 L 9.332031 12.667969 C 9.703125 12.667969 10 12.367188 10 12 L 10 10 L 12 10 C 12.367188 10 12.667969 9.703125 12.667969 9.332031 L 12.667969 6.667969 C 12.667969 6.296875 12.367188 6 12 6 L 10 6 L 10 4 C 10 3.632812 9.703125 3.332031 9.332031 3.332031 Z M 7.332031 4.667969 L 8.667969 4.667969 L 8.667969 7.332031 L 11.332031 7.332031 L 11.332031 8.667969 L 8.667969 8.667969 L 8.667969 11.332031 L 7.332031 11.332031 L 7.332031 8.667969 L 4.667969 8.667969 L 4.667969 7.332031 L 7.332031 7.332031 Z M 7.332031 4.667969 "/>
</g>
</svg>
