<svg xmlns="http://www.w3.org/2000/svg" xmlns:xlink="http://www.w3.org/1999/xlink" width="16" height="16" viewBox="0 0 16 16" version="1.1">
<g id="surface1">
<path style=" stroke:none;fill-rule:nonzero;fill:rgb(100%,74.901962%,0%);fill-opacity:1;" d="M 8 3.332031 C 5.421875 3.332031 3.332031 5.421875 3.332031 8 C 3.332031 10.578125 5.421875 12.667969 8 12.667969 C 10.578125 12.667969 12.667969 10.578125 12.667969 8 C 12.667969 5.421875 10.578125 3.332031 8 3.332031 Z M 8 6 C 9.105469 6 10 6.894531 10 8 C 10 9.105469 9.105469 10 8 10 C 6.894531 10 6 9.105469 6 8 C 6 6.894531 6.894531 6 8 6 Z M 8 7.332031 C 7.632812 7.332031 7.332031 7.632812 7.332031 8 C 7.332031 8.367188 7.632812 8.667969 8 8.667969 C 8.367188 8.667969 8.667969 8.367188 8.667969 8 C 8.667969 7.632812 8.367188 7.332031 8 7.332031 Z M 8 7.332031 "/>
</g>
</svg>
