<svg xmlns="http://www.w3.org/2000/svg" xmlns:xlink="http://www.w3.org/1999/xlink" width="16" height="16" viewBox="0 0 16 16" version="1.1">
<g id="surface1">
<path style=" stroke:none;fill-rule:nonzero;fill:rgb(100%,74.901962%,0%);fill-opacity:1;" d="M 12.382812 3.335938 C 11.679688 3.25 9.847656 4.507812 8.039062 6.3125 C 7.234375 7.117188 6.507812 7.960938 5.972656 8.710938 C 6.601562 8.914062 7.089844 9.402344 7.289062 10.027344 C 8.042969 9.492188 8.882812 8.769531 9.6875 7.960938 C 11.738281 5.914062 13.03125 3.882812 12.578125 3.425781 C 12.53125 3.378906 12.464844 3.347656 12.382812 3.335938 Z M 11.332031 8.667969 C 11.074219 9.519531 10.425781 10.246094 10.144531 10.832031 C 10.046875 11.007812 10 11.207031 10 11.417969 C 10 12.109375 10.59375 12.667969 11.332031 12.667969 C 12.070312 12.667969 12.667969 12.109375 12.667969 11.417969 C 12.667969 11.207031 12.597656 11.007812 12.5 10.832031 C 12.21875 10.246094 11.59375 9.519531 11.332031 8.667969 Z M 5.667969 9.554688 C 3.332031 10.179688 5.082031 11.65625 3.332031 12.667969 C 5.667969 12.667969 6.832031 11.5 6.832031 10.71875 C 6.832031 10.332031 6.871094 9.617188 5.667969 9.554688 Z M 5.667969 9.554688 "/>
</g>
</svg>
