<svg xmlns="http://www.w3.org/2000/svg" xmlns:xlink="http://www.w3.org/1999/xlink" width="16" height="16" viewBox="0 0 16 16" version="1.1">
<g id="surface1">
<path style=" stroke:none;fill-rule:nonzero;fill:rgb(0%,100%,66.666669%);fill-opacity:1;" d="M 7.734375 2.667969 C 7.664062 2.667969 7.59375 2.683594 7.527344 2.714844 L 2.929688 5.011719 C 2.769531 5.089844 2.667969 5.242188 2.667969 5.4375 L 2.667969 10.539062 C 2.667969 10.71875 2.765625 10.878906 2.925781 10.960938 L 7.523438 13.28125 C 7.589844 13.316406 7.664062 13.332031 7.734375 13.332031 C 7.851562 13.332031 7.96875 13.273438 7.96875 13.273438 L 12.546875 10.960938 C 12.707031 10.878906 12.804688 10.71875 12.804688 10.539062 L 12.804688 5.433594 C 12.804688 5.253906 12.703125 5.089844 12.542969 5.011719 L 7.945312 2.714844 C 7.878906 2.683594 7.808594 2.667969 7.734375 2.667969 Z M 7.734375 3.664062 L 11.277344 5.433594 L 7.734375 7.199219 L 4.195312 5.433594 Z M 3.609375 6.195312 L 7.265625 8.019531 L 7.265625 12.097656 L 3.609375 10.25 Z M 11.863281 6.195312 L 11.863281 10.25 L 8.207031 12.097656 L 8.207031 8.019531 Z M 11.863281 6.195312 "/>
</g>
</svg>
