<svg xmlns="http://www.w3.org/2000/svg" xmlns:xlink="http://www.w3.org/1999/xlink" width="16" height="16" viewBox="0 0 16 16" version="1.1">
<g id="surface1">
<path style=" stroke:none;fill-rule:nonzero;fill:rgb(96.862745%,0%,100%);fill-opacity:1;" d="M 4.554688 2.667969 C 2.242188 4.820312 1.984375 8.578125 4.175781 10.933594 C 6.164062 13.066406 9.613281 13.300781 11.769531 11.25 C 13.703125 9.40625 13.910156 6.226562 12.019531 4.25 C 10.34375 2.496094 7.464844 2.3125 5.6875 4.058594 C 4.132812 5.589844 3.980469 8.199219 5.566406 9.796875 C 6.933594 11.167969 9.246094 11.292969 10.644531 9.84375 C 11.816406 8.628906 11.914062 6.585938 10.621094 5.375 C 9.5625 4.386719 7.808594 4.320312 6.796875 5.480469 C 6.007812 6.390625 5.972656 7.882812 7 8.695312 C 7.378906 8.996094 7.839844 9.132812 8.308594 9.097656 C 8.78125 9.066406 9.285156 8.824219 9.582031 8.355469 C 9.777344 8.046875 9.847656 7.699219 9.789062 7.332031 C 9.726562 6.960938 9.445312 6.523438 8.992188 6.378906 C 8.605469 6.253906 8.386719 6.273438 8.140625 6.410156 C 7.960938 6.511719 7.804688 6.6875 7.769531 6.96875 C 7.738281 7.191406 7.792969 7.417969 7.828125 7.640625 C 7.460938 7.351562 7.476562 6.738281 7.800781 6.363281 C 8.277344 5.816406 9.175781 5.851562 9.710938 6.355469 C 10.421875 7.019531 10.363281 8.210938 9.6875 8.914062 C 8.839844 9.789062 7.371094 9.710938 6.511719 8.847656 C 5.476562 7.808594 5.578125 6.042969 6.621094 5.019531 C 7.839844 3.816406 9.882812 3.945312 11.058594 5.175781 C 12.414062 6.59375 12.261719 8.933594 10.851562 10.273438 C 9.257812 11.792969 6.644531 11.617188 5.148438 10.015625 C 3.480469 8.222656 3.679688 5.308594 5.460938 3.648438 Z M 4.554688 2.667969 "/>
</g>
</svg>
