<svg xmlns="http://www.w3.org/2000/svg" xmlns:xlink="http://www.w3.org/1999/xlink" width="16" height="16" viewBox="0 0 16 16" version="1.1">
<g id="surface1">
<path style=" stroke:none;fill-rule:nonzero;fill:rgb(100%,30.980393%,30.980393%);fill-opacity:1;" d="M 4.816406 5.480469 L 7.332031 8 L 4.816406 10.519531 C 4.816406 10.519531 4.480469 10.851562 4.816406 11.183594 C 5.148438 11.519531 5.480469 11.183594 5.480469 11.183594 L 8 8.667969 L 10.519531 11.183594 C 10.519531 11.183594 10.851562 11.519531 11.183594 11.183594 C 11.519531 10.851562 11.183594 10.519531 11.183594 10.519531 L 8.667969 8 L 11.183594 5.480469 C 11.183594 5.480469 11.519531 5.148438 11.183594 4.816406 C 10.851562 4.480469 10.519531 4.816406 10.519531 4.816406 L 8 7.332031 L 5.480469 4.816406 C 5.480469 4.816406 5.148438 4.480469 4.816406 4.816406 C 4.480469 5.148438 4.816406 5.480469 4.816406 5.480469 Z M 4.816406 5.480469 "/>
</g>
</svg>
