<svg xmlns="http://www.w3.org/2000/svg" xmlns:xlink="http://www.w3.org/1999/xlink" width="16" height="16" viewBox="0 0 16 16" version="1.1">
<g id="surface1">
<path style=" stroke:none;fill-rule:nonzero;fill:rgb(0%,100%,66.666669%);fill-opacity:1;" d="M 12.382812 3.335938 C 11.679688 3.25 9.847656 4.503906 8.039062 6.3125 C 7.234375 7.117188 6.535156 7.914062 6 8.667969 C 6.628906 8.867188 7.132812 9.371094 7.332031 10 C 8.085938 9.464844 8.882812 8.769531 9.6875 7.960938 C 11.738281 5.910156 13.03125 3.878906 12.574219 3.425781 C 12.527344 3.378906 12.464844 3.347656 12.382812 3.335938 Z M 5.667969 9.554688 C 3.332031 10.179688 5.082031 11.65625 3.332031 12.667969 C 5.667969 12.667969 6.832031 11.5 6.832031 10.71875 C 6.832031 10.332031 6.871094 9.617188 5.667969 9.554688 Z M 5.667969 9.554688 "/>
</g>
</svg>
