<svg xmlns="http://www.w3.org/2000/svg" xmlns:xlink="http://www.w3.org/1999/xlink" width="16" height="16" viewBox="0 0 16 16" version="1.1">
<g id="surface1">
<path style=" stroke:none;fill-rule:nonzero;fill:rgb(96.862745%,0%,100%);fill-opacity:1;" d="M 4 1.332031 C 3.261719 1.332031 2.667969 1.929688 2.667969 2.667969 L 2.667969 13.332031 C 2.667969 14.070312 3.261719 14.667969 4 14.667969 L 12 14.667969 C 12.738281 14.667969 13.332031 14.070312 13.332031 13.332031 L 13.332031 2.667969 C 13.332031 1.929688 12.738281 1.332031 12 1.332031 Z M 4 2.667969 L 12 2.667969 L 12 13.332031 L 4 13.332031 Z M 4 2.667969 "/>
<path style=" stroke:none;fill-rule:nonzero;fill:rgb(96.862745%,0%,100%);fill-opacity:1;" d="M 8 6.667969 C 9.472656 6.667969 10.667969 7.859375 10.667969 9.332031 C 10.667969 10.804688 9.472656 12 8 12 L 5.332031 12 L 5.332031 9.332031 C 5.332031 7.859375 6.527344 6.667969 8 6.667969 Z M 8 8 C 7.261719 8 6.667969 8.597656 6.667969 9.332031 C 6.667969 10.070312 7.261719 10.667969 8 10.667969 C 8.738281 10.667969 9.332031 10.070312 9.332031 9.332031 C 9.332031 8.597656 8.738281 8 8 8 Z M 8 8 "/>
</g>
</svg>
