<svg xmlns="http://www.w3.org/2000/svg" xmlns:xlink="http://www.w3.org/1999/xlink" width="16" height="16" viewBox="0 0 16 16" version="1.1">
<g id="surface1">
<path style=" stroke:none;fill-rule:nonzero;fill:rgb(100%,30.980393%,30.980393%);fill-opacity:1;" d="M 8 6.667969 C 11.554688 6.667969 11.554688 12 8 12 L 5.332031 12 L 5.332031 9.332031 C 5.332031 7.859375 6.527344 6.667969 8 6.667969 Z M 8 7.332031 C 7.953125 7.332031 7.90625 7.335938 7.859375 7.339844 C 7.179688 7.410156 6.664062 7.984375 6.664062 8.667969 L 6.667969 9.332031 L 6 9.332031 L 6 11.332031 L 8 11.332031 C 9.089844 11.332031 9.980469 10.457031 10 9.367188 L 10 9.332031 L 9.332031 9.332031 L 9.332031 8.667969 C 9.332031 7.96875 8.789062 7.386719 8.09375 7.335938 C 8.0625 7.335938 8.03125 7.332031 8 7.332031 Z M 8 8 C 8.367188 8 8.664062 8.296875 8.664062 8.667969 L 8.664062 9.332031 L 7.332031 9.332031 L 7.332031 8.667969 C 7.332031 8.296875 7.628906 8 8 8 Z M 8 8 "/>
<path style=" stroke:none;fill-rule:nonzero;fill:rgb(100%,30.980393%,30.980393%);fill-opacity:1;" d="M 4 1.332031 C 3.261719 1.332031 2.667969 1.929688 2.667969 2.667969 L 2.667969 13.332031 C 2.667969 14.070312 3.261719 14.667969 4 14.667969 L 12 14.667969 C 12.738281 14.667969 13.332031 14.070312 13.332031 13.332031 L 13.332031 2.667969 C 13.332031 1.929688 12.738281 1.332031 12 1.332031 Z M 4 2.667969 L 12 2.667969 L 12 13.332031 L 4 13.332031 Z M 4 2.667969 "/>
</g>
</svg>
