<svg xmlns="http://www.w3.org/2000/svg" xmlns:xlink="http://www.w3.org/1999/xlink" width="16" height="16" viewBox="0 0 16 16" version="1.1">
<g id="surface1">
<path style=" stroke:none;fill-rule:nonzero;fill:rgb(0%,80.000001%,100%);fill-opacity:1;" d="M 4 3.332031 C 4 3.332031 3.332031 3.347656 3.332031 4 L 3.332031 4.667969 L 4.667969 4.667969 L 4.667969 3.332031 Z M 6 3.332031 L 6 4.667969 L 7.332031 4.667969 L 7.332031 3.332031 Z M 8.667969 3.332031 L 8.667969 4.667969 L 10 4.667969 L 10 3.332031 Z M 11.332031 3.332031 L 11.332031 4.667969 L 12.667969 4.667969 L 12.667969 4 C 12.667969 3.347656 12 3.332031 12 3.332031 Z M 3.332031 6 L 3.332031 7.332031 L 4.667969 7.332031 L 4.667969 6 Z M 11.332031 6 L 11.332031 7.332031 L 12.667969 7.332031 L 12.667969 6 Z M 3.332031 8.667969 L 3.332031 10 L 4.667969 10 L 4.667969 8.667969 Z M 11.332031 8.667969 L 11.332031 10 L 12.667969 10 L 12.667969 8.667969 Z M 3.332031 11.332031 L 3.332031 12 C 3.332031 12.652344 4 12.667969 4 12.667969 L 4.667969 12.667969 L 4.667969 11.332031 Z M 6 11.332031 L 6 12.667969 L 7.332031 12.667969 L 7.332031 11.332031 Z M 8.667969 11.332031 L 8.667969 12.667969 L 10 12.667969 L 10 11.332031 Z M 11.332031 11.332031 L 11.332031 12.667969 L 12 12.667969 C 12 12.667969 12.667969 12.652344 12.667969 12 L 12.667969 11.332031 Z M 11.332031 11.332031 "/>
</g>
</svg>
