<svg xmlns="http://www.w3.org/2000/svg" xmlns:xlink="http://www.w3.org/1999/xlink" width="16" height="16" viewBox="0 0 16 16" version="1.1">
<g id="surface1">
<path style=" stroke:none;fill-rule:nonzero;fill:rgb(0%,80.000001%,100%);fill-opacity:1;" d="M 5 3.332031 C 4.078125 3.332031 3.332031 4.078125 3.332031 5 C 3.332031 5.792969 3.890625 6.472656 4.667969 6.632812 L 4.667969 9.332031 L 3.332031 9.332031 L 3.332031 12.667969 L 6.667969 12.667969 L 6.667969 9.332031 L 5.332031 9.332031 L 5.332031 6.628906 C 5.988281 6.496094 6.5 5.988281 6.632812 5.332031 L 9.332031 5.332031 L 9.332031 6.667969 L 12.667969 6.667969 L 12.667969 3.332031 L 9.332031 3.332031 L 9.332031 4.667969 L 6.628906 4.667969 C 6.472656 3.890625 5.789062 3.335938 5 3.332031 Z M 8 7.332031 L 8 11.417969 L 8.847656 11 L 9.867188 12 L 9.761719 10.601562 L 10.667969 10.25 Z M 8 7.332031 "/>
</g>
</svg>
