<svg xmlns="http://www.w3.org/2000/svg" xmlns:xlink="http://www.w3.org/1999/xlink" width="16" height="16" viewBox="0 0 16 16" version="1.1">
<g id="surface1">
<path style=" stroke:none;fill-rule:nonzero;fill:rgb(67.058825%,40.000001%,100%);fill-opacity:1;" d="M 6.867188 2.667969 L 4.535156 5 L 6.867188 7.332031 L 7.339844 6.863281 L 5.808594 5.332031 L 8.332031 5.332031 C 10.363281 5.332031 12 6.96875 12 9 C 12 11.03125 10.363281 12.667969 8.332031 12.667969 L 7.332031 12.667969 L 7.332031 13.332031 L 8.332031 13.332031 C 10.734375 13.332031 12.667969 11.402344 12.667969 9 C 12.667969 6.597656 10.734375 4.667969 8.332031 4.667969 L 5.808594 4.667969 L 7.339844 3.136719 L 6.867188 2.667969 "/>
<path style=" stroke:none;fill-rule:evenodd;fill:rgb(67.058825%,40.000001%,100%);fill-opacity:1;" d="M 3.332031 2.667969 L 4 2.667969 L 4 7.332031 L 3.332031 7.332031 Z M 3.332031 2.667969 "/>
</g>
</svg>
