<svg xmlns="http://www.w3.org/2000/svg" xmlns:xlink="http://www.w3.org/1999/xlink" width="16" height="16" viewBox="0 0 16 16" version="1.1">
<g id="surface1">
<path style=" stroke:none;fill-rule:nonzero;fill:rgb(96.862745%,0%,100%);fill-opacity:1;" d="M 6 4.675781 C 4.152344 4.675781 2.667969 6.160156 2.667969 8.007812 C 2.667969 9.855469 4.152344 11.339844 6 11.339844 L 7.332031 11.339844 L 7.332031 10.007812 L 6 10.007812 C 4.890625 10.007812 4 9.117188 4 8.007812 C 4 6.898438 4.890625 6.007812 6 6.007812 L 7.332031 6.007812 L 7.332031 4.675781 Z M 8.667969 4.675781 L 8.667969 6.007812 L 10 6.007812 C 11.109375 6.007812 12 6.898438 12 8.007812 C 12 9.117188 11.109375 10.007812 10 10.007812 L 8.667969 10.007812 L 8.667969 11.339844 L 10 11.339844 C 11.847656 11.339844 13.332031 9.855469 13.332031 8.007812 C 13.332031 6.160156 11.847656 4.675781 10 4.675781 Z M 6 7.339844 L 6 8.675781 L 10 8.675781 L 10 7.339844 Z M 6 7.339844 "/>
</g>
</svg>
