<svg xmlns="http://www.w3.org/2000/svg" xmlns:xlink="http://www.w3.org/1999/xlink" width="16" height="16" viewBox="0 0 16 16" version="1.1">
<g id="surface1">
<path style=" stroke:none;fill-rule:nonzero;fill:rgb(0%,80.000001%,100%);fill-opacity:1;" d="M 4 3.332031 L 4 4 L 5.519531 4 L 6.667969 5.144531 L 7.332031 5.8125 L 7.519531 6 L 5.8125 6 L 4 4.1875 L 4 5.144531 L 4.855469 6 L 4 6 L 4 6.667969 L 8.667969 6.667969 L 8.667969 6 L 8.480469 6 L 7.332031 4.855469 L 6.667969 4.1875 L 6.480469 4 L 8.1875 4 L 8.667969 4.480469 L 8.667969 3.332031 Z M 10.667969 3.332031 L 9.332031 6 L 12 6 Z M 3.332031 7.332031 L 3.332031 12.667969 L 12.667969 12.667969 L 12.667969 7.332031 L 11.332031 7.332031 L 11.332031 8.667969 L 10 8.667969 L 10 7.332031 L 8.667969 7.332031 L 8.667969 8.667969 L 7.332031 8.667969 L 7.332031 7.332031 L 6 7.332031 L 6 8.667969 L 4.667969 8.667969 L 4.667969 7.332031 Z M 4.667969 10 L 6 10 L 6 11.332031 L 4.667969 11.332031 Z M 7.332031 10 L 8.667969 10 L 8.667969 11.332031 L 7.332031 11.332031 Z M 10 10 L 11.332031 10 L 11.332031 11.332031 L 10 11.332031 Z M 10 10 "/>
</g>
</svg>
