<svg xmlns="http://www.w3.org/2000/svg" xmlns:xlink="http://www.w3.org/1999/xlink" width="16" height="16" viewBox="0 0 16 16" version="1.1">
<g id="surface1">
<path style=" stroke:none;fill-rule:nonzero;fill:rgb(100%,30.980393%,30.980393%);fill-opacity:1;" d="M 4 4 L 4 9.332031 L 6.667969 9.332031 L 6.667969 12 L 12 12 L 12 6.667969 L 9.332031 6.667969 L 9.332031 4 Z M 9.332031 7.332031 C 9.824219 7.332031 10.222656 7.789062 10.222656 8.347656 L 10.222656 9.332031 L 10.445312 9.332031 C 10.566406 9.332031 10.667969 9.445312 10.667969 9.582031 L 10.667969 11.082031 C 10.667969 11.222656 10.566406 11.332031 10.445312 11.332031 L 8.222656 11.332031 C 8.097656 11.332031 8 11.222656 8 11.082031 L 8 9.582031 C 8 9.445312 8.097656 9.332031 8.222656 9.332031 L 9.777344 9.332031 L 9.777344 8.332031 C 9.777344 8.054688 9.578125 7.832031 9.332031 7.832031 C 9.085938 7.832031 8.890625 8.054688 8.890625 8.332031 L 8.890625 8.582031 L 8.445312 8.582031 L 8.445312 8.332031 C 8.453125 7.78125 8.84375 7.332031 9.332031 7.332031 Z M 9.332031 7.332031 "/>
</g>
</svg>
