<svg xmlns="http://www.w3.org/2000/svg" xmlns:xlink="http://www.w3.org/1999/xlink" width="16" height="16" viewBox="0 0 16 16" version="1.1">
<g id="surface1">
<path style=" stroke:none;fill-rule:nonzero;fill:rgb(100%,74.901962%,0%);fill-opacity:1;" d="M 10 4 L 13.332031 8 L 10 12 L 2.667969 12 L 2.667969 4 Z M 8.667969 6 L 8 6 C 7.8125 6 7.648438 6.074219 7.527344 6.191406 L 6.667969 7.058594 L 5.808594 6.191406 C 5.6875 6.074219 5.519531 6 5.332031 6 L 4.667969 6 L 4.667969 6.667969 C 4.667969 6.851562 4.738281 7.019531 4.859375 7.140625 L 5.726562 8 L 4.859375 8.859375 C 4.738281 8.980469 4.667969 9.148438 4.667969 9.332031 L 4.667969 10 L 5.332031 10 C 5.519531 10 5.6875 9.925781 5.808594 9.808594 L 6.667969 8.941406 L 7.527344 9.808594 C 7.648438 9.925781 7.8125 10 8 10 L 8.667969 10 L 8.667969 9.332031 C 8.667969 9.148438 8.59375 8.980469 8.472656 8.859375 L 7.605469 8 L 8.472656 7.140625 C 8.59375 7.019531 8.667969 6.851562 8.667969 6.667969 Z M 8.667969 6 "/>
</g>
</svg>
