<svg xmlns="http://www.w3.org/2000/svg" xmlns:xlink="http://www.w3.org/1999/xlink" width="16" height="16" viewBox="0 0 16 16" version="1.1">
<g id="surface1">
<path style=" stroke:none;fill-rule:nonzero;fill:rgb(0%,80.000001%,100%);fill-opacity:1;" d="M 6 4 L 2.667969 8 L 6 12 L 13.332031 12 L 13.332031 4 Z M 7.332031 6 L 8 6 C 8.1875 6 8.351562 6.074219 8.472656 6.191406 L 9.332031 7.058594 L 10.191406 6.191406 C 10.3125 6.074219 10.480469 6 10.667969 6 L 11.332031 6 L 11.332031 6.667969 C 11.332031 6.851562 11.261719 7.019531 11.140625 7.140625 L 10.273438 8 L 11.140625 8.859375 C 11.261719 8.980469 11.332031 9.148438 11.332031 9.332031 L 11.332031 10 L 10.667969 10 C 10.480469 10 10.3125 9.925781 10.191406 9.808594 L 9.332031 8.941406 L 8.472656 9.808594 C 8.351562 9.925781 8.1875 10 8 10 L 7.332031 10 L 7.332031 9.332031 C 7.332031 9.148438 7.40625 8.980469 7.527344 8.859375 L 8.394531 8 L 7.527344 7.140625 C 7.40625 7.019531 7.332031 6.851562 7.332031 6.667969 Z M 7.332031 6 "/>
</g>
</svg>
