<svg xmlns="http://www.w3.org/2000/svg" xmlns:xlink="http://www.w3.org/1999/xlink" width="16" height="16" viewBox="0 0 16 16" version="1.1">
<g id="surface1">
<path style=" stroke:none;fill-rule:nonzero;fill:rgb(100%,30.980393%,30.980393%);fill-opacity:1;" d="M 7 3.332031 C 4.976562 3.332031 3.332031 4.976562 3.332031 7 C 3.332031 9.023438 4.976562 10.667969 7 10.667969 C 7.742188 10.667969 8.464844 10.441406 9.078125 10.019531 L 11.519531 12.460938 C 11.644531 12.59375 11.820312 12.667969 12 12.667969 C 12.367188 12.667969 12.667969 12.367188 12.667969 12 C 12.667969 11.820312 12.59375 11.648438 12.464844 11.523438 L 10.019531 9.074219 C 10.4375 8.464844 10.664062 7.742188 10.667969 7 C 10.667969 4.976562 9.023438 3.332031 7 3.332031 Z M 7 4.667969 C 8.289062 4.667969 9.332031 5.710938 9.332031 7 C 9.332031 8.289062 8.289062 9.332031 7 9.332031 C 5.710938 9.332031 4.667969 8.289062 4.667969 7 C 4.667969 5.710938 5.710938 4.667969 7 4.667969 Z M 7 4.667969 "/>
</g>
</svg>
