<svg xmlns="http://www.w3.org/2000/svg" xmlns:xlink="http://www.w3.org/1999/xlink" width="16" height="16" viewBox="0 0 16 16" version="1.1">
<g id="surface1">
<path style=" stroke:none;fill-rule:nonzero;fill:rgb(96.862745%,0%,100%);fill-opacity:1;" d="M 4 4 L 4 9.332031 L 6.667969 9.332031 L 6.667969 12 L 12 12 L 12 6.667969 L 9.332031 6.667969 L 9.332031 4 Z M 9.332031 7.332031 C 9.824219 7.332031 10.222656 7.851562 10.222656 8.492188 L 10.222656 9.046875 L 10.445312 9.046875 C 10.566406 9.046875 10.667969 9.175781 10.667969 9.332031 L 10.667969 11.046875 C 10.667969 11.207031 10.566406 11.332031 10.445312 11.332031 L 8.222656 11.332031 C 8.097656 11.332031 8 11.207031 8 11.046875 L 8 9.332031 C 8 9.175781 8.097656 9.046875 8.222656 9.046875 L 8.445312 9.046875 L 8.445312 8.492188 C 8.445312 7.851562 8.839844 7.332031 9.332031 7.332031 Z M 9.332031 7.90625 C 9.085938 7.90625 8.890625 8.160156 8.890625 8.476562 L 8.890625 9.046875 L 9.777344 9.046875 L 9.777344 8.476562 C 9.777344 8.160156 9.578125 7.90625 9.332031 7.90625 Z M 9.332031 7.90625 "/>
</g>
</svg>
