<svg xmlns="http://www.w3.org/2000/svg" xmlns:xlink="http://www.w3.org/1999/xlink" width="16" height="16" viewBox="0 0 16 16" version="1.1">
<g id="surface1">
<path style=" stroke:none;fill-rule:nonzero;fill:rgb(0%,80.000001%,100%);fill-opacity:1;" d="M 7.996094 4 C 6.75 4 5.734375 5.023438 5.695312 6.300781 C 5.664062 6.308594 5.636719 6.320312 5.605469 6.335938 C 5.320312 6.488281 5.246094 6.960938 5.441406 7.398438 C 5.601562 7.75 5.882812 7.964844 6.136719 7.960938 C 6.328125 9.128906 7.089844 10 7.996094 10 L 8.003906 10 C 8.910156 10 9.671875 9.128906 9.863281 7.960938 C 10.117188 7.964844 10.398438 7.75 10.558594 7.398438 C 10.753906 6.960938 10.679688 6.488281 10.394531 6.335938 C 10.363281 6.320312 10.335938 6.308594 10.304688 6.300781 C 10.265625 5.023438 9.25 4 8.003906 4 Z M 10.667969 9.332031 L 10.667969 10.667969 L 9.332031 10.667969 L 9.332031 12 L 10.667969 12 L 10.667969 13.332031 L 12 13.332031 L 12 12 L 13.332031 12 L 13.332031 10.667969 L 12 10.667969 L 12 9.332031 Z M 6.335938 10.007812 C 4.691406 10.179688 3.492188 10.601562 3.347656 11.097656 C 3.34375 11.105469 3.347656 11.109375 3.347656 11.113281 C 3.34375 11.132812 3.34375 11.148438 3.339844 11.167969 C 3.339844 11.175781 3.332031 11.179688 3.332031 11.1875 C 3.332031 11.191406 3.332031 11.191406 3.332031 11.195312 L 3.332031 12.429688 C 3.332031 12.558594 3.4375 12.667969 3.566406 12.667969 L 8.667969 12.667969 L 8.667969 10.710938 C 8.453125 10.777344 8.214844 10.816406 7.964844 10.816406 C 7.183594 10.816406 6.53125 10.472656 6.335938 10.007812 Z M 6.335938 10.007812 "/>
</g>
</svg>
