<svg xmlns="http://www.w3.org/2000/svg" xmlns:xlink="http://www.w3.org/1999/xlink" width="16" height="16" viewBox="0 0 16 16" version="1.1">
<g id="surface1">
<path style=" stroke:none;fill-rule:nonzero;fill:rgb(0%,100%,66.666669%);fill-opacity:1;" d="M 5.667969 4 C 4.746094 4 4 4.746094 4 5.667969 C 4 6.585938 4.746094 7.332031 5.667969 7.332031 C 5.964844 7.332031 6.238281 7.238281 6.480469 7.105469 L 7.792969 8.332031 L 6.480469 9.558594 C 6.238281 9.425781 5.964844 9.332031 5.667969 9.332031 C 4.746094 9.332031 4 10.078125 4 11 C 4 11.921875 4.746094 12.667969 5.667969 12.667969 C 6.585938 12.667969 7.332031 11.921875 7.332031 11 C 7.332031 10.847656 7.308594 10.707031 7.273438 10.558594 L 8.6875 9.1875 L 11.667969 12 L 12.667969 12 L 12.667969 11.332031 L 7.273438 6.105469 C 7.308594 5.964844 7.332031 5.820312 7.332031 5.667969 C 7.332031 4.746094 6.585938 4 5.667969 4 Z M 5.667969 5 C 6.035156 5 6.332031 5.300781 6.332031 5.667969 C 6.332031 6.035156 6.035156 6.332031 5.667969 6.332031 C 5.300781 6.332031 5 6.035156 5 5.667969 C 5 5.300781 5.300781 5 5.667969 5 Z M 11.667969 4.667969 L 9.039062 7.148438 L 9.921875 8 L 12.667969 5.332031 L 12.667969 4.667969 Z M 5.667969 10.332031 C 6.035156 10.332031 6.332031 10.632812 6.332031 11 C 6.332031 11.367188 6.035156 11.667969 5.667969 11.667969 C 5.300781 11.667969 5 11.367188 5 11 C 5 10.632812 5.300781 10.332031 5.667969 10.332031 Z M 5.667969 10.332031 "/>
</g>
</svg>
