<svg xmlns="http://www.w3.org/2000/svg" xmlns:xlink="http://www.w3.org/1999/xlink" width="16" height="16" viewBox="0 0 16 16" version="1.1">
<g id="surface1">
<path style=" stroke:none;fill-rule:nonzero;fill:rgb(96.862745%,0%,100%);fill-opacity:1;" d="M 8.75 2.628906 L 8.75 2.707031 L 9.195312 3.445312 C 9.867188 3.570312 10.492188 3.804688 11.023438 4.125 L 11.566406 3.695312 C 10.792969 3.132812 9.8125 2.761719 8.75 2.628906 Z M 7.945312 2.667969 C 7.398438 2.671875 6.855469 2.738281 6.332031 2.867188 L 6.890625 3.429688 C 7.253906 3.363281 7.628906 3.332031 8.003906 3.332031 C 8.121094 3.332031 8.238281 3.335938 8.355469 3.34375 Z M 5.617188 3.09375 C 5.164062 3.261719 4.746094 3.480469 4.375 3.738281 L 5.023438 4.101562 C 5.359375 3.902344 5.734375 3.738281 6.132812 3.613281 Z M 12.109375 4.113281 L 11.582031 4.53125 C 11.785156 4.703125 11.964844 4.890625 12.113281 5.089844 L 12.78125 4.894531 C 12.597656 4.617188 12.371094 4.351562 12.109375 4.113281 Z M 3.816406 4.1875 C 3.539062 4.453125 3.308594 4.746094 3.128906 5.058594 L 3.75 5.300781 C 3.921875 5.023438 4.148438 4.761719 4.421875 4.527344 Z M 13.101562 5.496094 L 12.457031 5.683594 C 12.5625 5.917969 12.628906 6.164062 12.65625 6.410156 L 13.328125 6.5 C 13.308594 6.160156 13.234375 5.820312 13.101562 5.496094 Z M 2.84375 5.660156 C 2.738281 5.972656 2.679688 6.292969 2.671875 6.613281 L 3.34375 6.582031 C 3.351562 6.355469 3.390625 6.128906 3.464844 5.90625 Z M 12.628906 7.078125 C 12.570312 7.417969 12.4375 7.746094 12.238281 8.058594 L 12.898438 8.242188 C 13.09375 7.898438 13.226562 7.539062 13.289062 7.167969 Z M 3.410156 7.246094 L 2.738281 7.277344 C 2.808594 7.613281 2.933594 7.945312 3.113281 8.257812 L 3.722656 7.980469 C 3.578125 7.746094 3.472656 7.5 3.410156 7.246094 Z M 4.136719 8.519531 L 4.136719 8.523438 L 3.507812 8.808594 C 3.828125 9.183594 4.226562 9.511719 4.691406 9.789062 C 5.113281 11.371094 3.464844 12.789062 4.003906 13.328125 C 4.761719 13.402344 5.210938 12.285156 5.390625 11.203125 C 5.460938 11.109375 5.707031 10.757812 5.902344 10.339844 C 6.566406 10.550781 7.277344 10.664062 7.996094 10.664062 L 7.285156 9.953125 C 6.875 9.90625 6.472656 9.820312 6.09375 9.695312 C 6.101562 9.402344 5.917969 9.214844 5.339844 9.332031 C 5.335938 9.332031 5.339844 9.332031 5.335938 9.328125 C 5.285156 9.328125 5.230469 9.316406 5.179688 9.308594 C 4.773438 9.089844 4.421875 8.824219 4.136719 8.519531 Z M 11.777344 8.621094 C 11.46875 8.921875 11.089844 9.1875 10.660156 9.398438 L 11.3125 9.796875 C 11.777344 9.523438 12.175781 9.195312 12.496094 8.820312 Z M 9.886719 9.710938 C 9.375 9.871094 8.824219 9.96875 8.265625 9.992188 L 8.882812 10.605469 C 9.488281 10.53125 10.074219 10.375 10.609375 10.152344 Z M 9.886719 9.710938 "/>
</g>
</svg>
