<svg xmlns="http://www.w3.org/2000/svg" xmlns:xlink="http://www.w3.org/1999/xlink" width="16" height="16" viewBox="0 0 16 16" version="1.1">
<g id="surface1">
<path style=" stroke:none;fill-rule:nonzero;fill:rgb(0%,100%,66.666669%);fill-opacity:1;" d="M 8 3.332031 C 5.421875 3.332031 3.332031 5.421875 3.332031 8 C 3.332031 10.578125 5.421875 12.667969 8 12.667969 C 10.578125 12.667969 12.667969 10.578125 12.667969 8 C 12.667969 5.421875 10.578125 3.332031 8 3.332031 Z M 6 6 L 6.667969 6 C 6.851562 6 7.027344 6.066406 7.148438 6.1875 L 8 7.039062 L 8.851562 6.1875 C 8.972656 6.066406 9.148438 6 9.332031 6 L 10 6 L 10 6.667969 C 10 6.851562 9.933594 7.023438 9.8125 7.144531 L 8.960938 8 L 9.8125 8.855469 C 9.933594 8.976562 10 9.148438 10 9.332031 L 10 10 L 9.332031 10 C 9.148438 10 8.972656 9.933594 8.851562 9.8125 L 8 8.957031 L 7.148438 9.8125 C 7.027344 9.933594 6.851562 10 6.667969 10 L 6 10 L 6 9.332031 C 6 9.148438 6.066406 8.976562 6.1875 8.855469 L 7.039062 8 L 6.1875 7.144531 C 6.066406 7.023438 6 6.851562 6 6.667969 Z M 6 6 "/>
</g>
</svg>
