<svg xmlns="http://www.w3.org/2000/svg" xmlns:xlink="http://www.w3.org/1999/xlink" width="16" height="16" viewBox="0 0 16 16" version="1.1">
<g id="surface1">
<path style=" stroke:none;fill-rule:nonzero;fill:rgb(0%,80.000001%,100%);fill-opacity:1;" d="M 7 3.332031 C 4.976562 3.332031 3.332031 4.976562 3.332031 7 C 3.335938 7.808594 3.605469 8.59375 4.097656 9.234375 L 5.050781 8.28125 C 4.800781 7.902344 4.667969 7.457031 4.667969 7 C 4.667969 5.710938 5.710938 4.667969 7 4.667969 C 7.457031 4.667969 7.902344 4.800781 8.28125 5.050781 L 9.234375 4.097656 C 8.59375 3.601562 7.808594 3.335938 7 3.332031 Z M 10.453125 8.214844 L 8.210938 10.457031 C 8.515625 10.351562 8.808594 10.203125 9.078125 10.019531 L 11.519531 12.460938 C 11.644531 12.59375 11.820312 12.667969 12 12.667969 C 12.367188 12.667969 12.667969 12.367188 12.667969 12 C 12.667969 11.820312 12.59375 11.648438 12.464844 11.523438 L 10.019531 9.074219 C 10.199219 8.808594 10.347656 8.519531 10.453125 8.214844 Z M 10.453125 8.214844 "/>
<path style=" stroke:none;fill-rule:nonzero;fill:rgb(0%,80.000001%,100%);fill-opacity:1;" d="M 4 10.214844 L 4 12 L 5.78125 12 L 10.28125 7.5 L 8.5 5.714844 Z M 11.859375 5.925781 C 12.046875 5.738281 12.046875 5.441406 11.859375 5.253906 L 10.746094 4.140625 C 10.554688 3.953125 10.261719 3.953125 10.074219 4.140625 L 9.140625 5.074219 L 10.921875 6.859375 Z M 11.859375 5.925781 "/>
</g>
</svg>
