<svg xmlns="http://www.w3.org/2000/svg" xmlns:xlink="http://www.w3.org/1999/xlink" width="16" height="16" viewBox="0 0 16 16" version="1.1">
<g id="surface1">
<path style=" stroke:none;fill-rule:nonzero;fill:rgb(0%,80.000001%,100%);fill-opacity:1;" d="M 4.667969 3.332031 C 3.929688 3.332031 3.332031 3.929688 3.332031 4.667969 L 3.332031 11.332031 C 3.332031 12.070312 3.929688 12.667969 4.667969 12.667969 L 11.332031 12.667969 C 12.070312 12.667969 12.667969 12.070312 12.667969 11.332031 L 12.667969 4.667969 C 12.667969 3.929688 12.070312 3.332031 11.332031 3.332031 Z M 4.667969 4.667969 L 11.332031 4.667969 L 11.332031 11.332031 L 4.667969 11.332031 Z M 6.332031 5.332031 C 5.78125 5.332031 5.332031 5.78125 5.332031 6.332031 L 5.332031 9.667969 C 5.332031 10.21875 5.78125 10.667969 6.332031 10.667969 L 9.667969 10.667969 C 10.21875 10.667969 10.667969 10.21875 10.667969 9.667969 L 10.667969 6.332031 C 10.667969 5.78125 10.21875 5.332031 9.667969 5.332031 Z M 6.667969 6.667969 L 9.332031 6.667969 L 9.332031 9.332031 L 6.667969 9.332031 Z M 6.667969 6.667969 "/>
</g>
</svg>
