<svg xmlns="http://www.w3.org/2000/svg" xmlns:xlink="http://www.w3.org/1999/xlink" width="16" height="16" viewBox="0 0 16 16" version="1.1">
<g id="surface1">
<path style=" stroke:none;fill-rule:nonzero;fill:rgb(96.862745%,0%,100%);fill-opacity:1;" d="M 6.667969 2.667969 C 6 2.667969 6 3.332031 6 3.332031 L 4 3.332031 C 4 3.332031 3.332031 3.332031 3.332031 4 L 3.332031 4.667969 L 12.667969 4.667969 L 12.667969 4 C 12.667969 3.332031 12 3.332031 12 3.332031 L 10 3.332031 C 10 3.332031 10 2.667969 9.332031 2.667969 Z M 4 5.332031 L 4 12.667969 C 4 13.011719 4.320312 13.332031 4.667969 13.332031 L 11.332031 13.332031 C 11.679688 13.332031 12 13.011719 12 12.667969 L 12 5.332031 Z M 4 5.332031 "/>
</g>
</svg>
