<svg xmlns="http://www.w3.org/2000/svg" xmlns:xlink="http://www.w3.org/1999/xlink" width="16" height="16" viewBox="0 0 16 16" version="1.1">
<g id="surface1">
<path style=" stroke:none;fill-rule:nonzero;fill:rgb(0%,100%,66.666669%);fill-opacity:1;" d="M 3.332031 3.335938 L 3.332031 12.667969 L 12.667969 12.667969 L 12.667969 3.335938 Z M 4.667969 4.667969 L 11.332031 4.667969 L 11.332031 7.335938 L 9.148438 7.335938 C 9.035156 7.140625 8.875 6.976562 8.683594 6.863281 C 8.671875 6.855469 8.660156 6.851562 8.652344 6.84375 C 8.570312 6.800781 8.488281 6.761719 8.398438 6.734375 C 8.371094 6.726562 8.347656 6.71875 8.320312 6.714844 C 8.21875 6.6875 8.113281 6.667969 8 6.667969 C 7.886719 6.667969 7.78125 6.6875 7.679688 6.714844 C 7.652344 6.71875 7.628906 6.726562 7.601562 6.734375 C 7.511719 6.765625 7.429688 6.800781 7.347656 6.84375 C 7.339844 6.851562 7.328125 6.855469 7.316406 6.863281 C 7.125 6.976562 6.964844 7.140625 6.851562 7.335938 L 4.667969 7.335938 Z M 4.667969 8.667969 L 6.851562 8.667969 C 6.964844 8.863281 7.125 9.027344 7.316406 9.144531 C 7.328125 9.148438 7.339844 9.15625 7.347656 9.160156 C 7.429688 9.207031 7.511719 9.242188 7.601562 9.269531 C 7.628906 9.277344 7.652344 9.285156 7.679688 9.292969 C 7.78125 9.316406 7.886719 9.335938 8 9.335938 C 8.113281 9.335938 8.21875 9.316406 8.320312 9.292969 C 8.347656 9.285156 8.371094 9.277344 8.398438 9.269531 C 8.488281 9.242188 8.570312 9.207031 8.652344 9.160156 C 8.660156 9.15625 8.671875 9.148438 8.683594 9.144531 C 8.875 9.027344 9.035156 8.863281 9.148438 8.667969 L 11.332031 8.667969 L 11.332031 11.335938 L 4.667969 11.335938 Z M 4.667969 8.667969 "/>
</g>
</svg>
