<svg xmlns="http://www.w3.org/2000/svg" xmlns:xlink="http://www.w3.org/1999/xlink" width="16" height="16" viewBox="0 0 16 16" version="1.1">
<g id="surface1">
<path style=" stroke:none;fill-rule:nonzero;fill:rgb(67.058825%,40.000001%,100%);fill-opacity:1;" d="M 3.332031 3.332031 L 3.332031 12.667969 L 12.667969 12.667969 L 12.667969 3.332031 Z M 4.667969 4.667969 L 7.332031 4.667969 L 7.332031 6.851562 C 7.132812 6.96875 6.96875 7.132812 6.851562 7.332031 L 4.667969 7.332031 Z M 8.667969 4.667969 L 11.332031 4.667969 L 11.332031 7.332031 L 9.148438 7.332031 C 9.03125 7.132812 8.867188 6.96875 8.667969 6.851562 Z M 4.667969 8.667969 L 6.851562 8.667969 C 6.96875 8.867188 7.132812 9.03125 7.332031 9.148438 L 7.332031 11.332031 L 4.667969 11.332031 Z M 9.148438 8.667969 L 11.332031 8.667969 L 11.332031 11.332031 L 8.667969 11.332031 L 8.667969 9.148438 C 8.867188 9.03125 9.03125 8.867188 9.148438 8.667969 Z M 9.148438 8.667969 "/>
</g>
</svg>
