<svg xmlns="http://www.w3.org/2000/svg" xmlns:xlink="http://www.w3.org/1999/xlink" width="16" height="16" viewBox="0 0 16 16" version="1.1">
<g id="surface1">
<path style=" stroke:none;fill-rule:nonzero;fill:rgb(0%,80.000001%,100%);fill-opacity:1;" d="M 3.332031 3.332031 L 3.332031 12.667969 L 12.667969 12.667969 L 12.667969 3.332031 Z M 4.667969 4.667969 L 7.332031 4.667969 L 7.332031 6.851562 C 7.136719 6.964844 6.976562 7.125 6.859375 7.316406 C 6.851562 7.328125 6.847656 7.339844 6.84375 7.347656 C 6.796875 7.429688 6.761719 7.511719 6.734375 7.601562 C 6.726562 7.628906 6.71875 7.652344 6.710938 7.679688 C 6.683594 7.78125 6.667969 7.886719 6.667969 8 C 6.667969 8.113281 6.683594 8.21875 6.710938 8.320312 C 6.71875 8.347656 6.726562 8.371094 6.734375 8.398438 C 6.761719 8.488281 6.796875 8.570312 6.84375 8.652344 C 6.847656 8.660156 6.851562 8.671875 6.859375 8.683594 C 6.976562 8.875 7.136719 9.035156 7.332031 9.148438 L 7.332031 11.332031 L 4.667969 11.332031 Z M 8.667969 4.667969 L 11.332031 4.667969 L 11.332031 11.332031 L 8.667969 11.332031 L 8.667969 9.148438 C 8.863281 9.035156 9.023438 8.875 9.140625 8.683594 C 9.148438 8.671875 9.152344 8.660156 9.15625 8.652344 C 9.203125 8.570312 9.238281 8.488281 9.265625 8.398438 C 9.273438 8.371094 9.28125 8.347656 9.289062 8.320312 C 9.316406 8.21875 9.332031 8.113281 9.332031 8 C 9.332031 7.886719 9.316406 7.78125 9.289062 7.679688 C 9.28125 7.652344 9.273438 7.628906 9.265625 7.601562 C 9.238281 7.511719 9.203125 7.429688 9.15625 7.347656 C 9.152344 7.339844 9.148438 7.328125 9.140625 7.316406 C 9.023438 7.125 8.863281 6.964844 8.667969 6.851562 Z M 8.667969 4.667969 "/>
</g>
</svg>
