<svg xmlns="http://www.w3.org/2000/svg" xmlns:xlink="http://www.w3.org/1999/xlink" width="16" height="16" viewBox="0 0 16 16" version="1.1">
<g id="surface1">
<path style=" stroke:none;fill-rule:nonzero;fill:rgb(100%,30.980393%,30.980393%);fill-opacity:1;" d="M 2.667969 2.667969 L 2.667969 7.332031 L 8 7.332031 L 8 2.667969 Z M 8.667969 3.386719 L 8.667969 6 L 9.332031 6 L 9.332031 4.238281 C 10.929688 4.800781 11.996094 6.308594 12 8 L 12.667969 8 C 12.664062 5.683594 10.960938 3.714844 8.667969 3.386719 Z M 3.332031 8 C 3.335938 10.316406 5.039062 12.285156 7.332031 12.613281 L 7.332031 10 L 6.667969 10 L 6.667969 11.761719 C 5.070312 11.199219 4.003906 9.691406 4 8 Z M 9.332031 8.667969 L 8 10 L 8 10.941406 L 9 9.941406 L 9 12.667969 L 9.667969 12.667969 L 9.667969 9.941406 L 10.667969 10.941406 L 10.667969 10 L 9.472656 8.804688 Z M 11.667969 9.332031 L 11.667969 12.058594 L 10.667969 11.058594 L 10.667969 12 L 12 13.332031 L 13.332031 12 L 13.332031 11.058594 L 12.332031 12.058594 L 12.332031 9.332031 Z M 11.667969 9.332031 "/>
</g>
</svg>
