<svg xmlns="http://www.w3.org/2000/svg" xmlns:xlink="http://www.w3.org/1999/xlink" width="16" height="16" viewBox="0 0 16 16" version="1.1">
<g id="surface1">
<path style=" stroke:none;fill-rule:nonzero;fill:rgb(96.862745%,0%,100%);fill-opacity:1;" d="M 2.667969 2.667969 L 2.667969 7.332031 L 8 7.332031 L 8 2.667969 Z M 8.667969 3.386719 L 8.667969 6 L 9.332031 6 L 9.332031 4.238281 C 10.929688 4.800781 11.996094 6.308594 12 8 L 12.667969 8 C 12.664062 5.683594 10.960938 3.714844 8.667969 3.386719 Z M 3.332031 8 C 3.335938 10.316406 5.039062 12.285156 7.332031 12.613281 L 7.332031 10 L 6.667969 10 L 6.667969 11.761719 C 5.070312 11.199219 4.003906 9.691406 4 8 Z M 11 8.667969 C 9.710938 8.667969 8.667969 9.710938 8.667969 11 C 8.667969 11.503906 8.832031 11.992188 9.132812 12.394531 L 9.609375 11.917969 C 9.429688 11.648438 9.332031 11.332031 9.332031 11.003906 C 9.332031 10.085938 10.078125 9.339844 10.996094 9.339844 C 11.324219 9.339844 11.644531 9.433594 11.914062 9.617188 L 12.394531 9.136719 C 11.988281 8.835938 11.5 8.671875 10.992188 8.671875 Z M 12.871094 9.597656 L 12.867188 9.605469 L 12.390625 10.082031 C 12.570312 10.351562 12.667969 10.667969 12.667969 10.996094 C 12.667969 11.914062 11.921875 12.660156 11.003906 12.660156 C 10.675781 12.660156 10.355469 12.566406 10.085938 12.382812 L 9.605469 12.863281 C 10.007812 13.164062 10.5 13.328125 11.003906 13.328125 C 12.292969 13.328125 13.335938 12.285156 13.335938 10.996094 C 13.335938 10.492188 13.171875 10 12.871094 9.597656 Z M 12.871094 9.597656 "/>
</g>
</svg>
