<svg xmlns="http://www.w3.org/2000/svg" xmlns:xlink="http://www.w3.org/1999/xlink" width="16" height="16" viewBox="0 0 16 16" version="1.1">
<g id="surface1">
<path style=" stroke:none;fill-rule:nonzero;fill:rgb(67.058825%,40.000001%,100%);fill-opacity:1;" d="M 8 3.332031 C 6.914062 3.332031 5.914062 3.589844 5.1875 4.109375 C 4.457031 4.625 4 5.414062 4 6.457031 C 4.003906 7.640625 4.703125 9.164062 5.546875 10.40625 C 5.96875 11.03125 6.429688 11.582031 6.859375 11.984375 C 7.285156 12.386719 7.683594 12.644531 7.996094 12.667969 L 8.003906 12.667969 C 8.316406 12.644531 8.714844 12.386719 9.140625 11.984375 C 9.570312 11.582031 10.03125 11.03125 10.453125 10.40625 C 11.296875 9.164062 11.996094 7.640625 12 6.457031 C 12 5.414062 11.542969 4.625 10.8125 4.109375 C 10.085938 3.589844 9.085938 3.332031 8 3.332031 Z M 8.011719 4.667969 L 8.828125 6.421875 L 10.667969 6.710938 L 9.328125 8.070312 L 9.628906 10 L 7.984375 9.082031 L 6.332031 9.988281 L 6.660156 8.0625 L 5.332031 6.691406 L 7.179688 6.417969 Z M 8.011719 4.667969 "/>
</g>
</svg>
