<svg xmlns="http://www.w3.org/2000/svg" xmlns:xlink="http://www.w3.org/1999/xlink" width="16" height="16" viewBox="0 0 16 16" version="1.1">
<g id="surface1">
<path style=" stroke:none;fill-rule:nonzero;fill:rgb(100%,30.980393%,30.980393%);fill-opacity:1;" d="M 4 2.667969 C 3.261719 2.667969 2.667969 3.261719 2.667969 4 L 2.667969 12 C 2.667969 12.738281 3.261719 13.332031 4 13.332031 L 12 13.332031 C 12.738281 13.332031 13.332031 12.738281 13.332031 12 L 13.332031 4 C 13.332031 3.261719 12.738281 2.667969 12 2.667969 Z M 6.667969 4 L 11.332031 4 C 11.179688 6.023438 10.644531 7.78125 9.707031 9.222656 C 10.390625 10.085938 11.289062 10.828125 12.398438 11.460938 L 12.019531 12.183594 C 10.933594 11.601562 10.011719 10.855469 9.253906 9.945312 C 8.519531 10.855469 7.582031 11.601562 6.445312 12.183594 L 5.988281 11.5 C 7.152344 10.917969 8.0625 10.171875 8.722656 9.261719 C 7.886719 8.023438 7.304688 6.4375 6.976562 4.667969 L 6.667969 4.667969 Z M 4.234375 4.25 C 4.796875 4.558594 5.3125 4.929688 5.773438 5.367188 L 5.273438 6.019531 C 4.757812 5.535156 4.234375 5.125 3.695312 4.789062 Z M 7.734375 4.667969 C 8.039062 6.183594 8.53125 7.542969 9.214844 8.578125 C 9.894531 7.367188 10.328125 6.007812 10.503906 4.667969 Z M 3.851562 6.433594 C 4.363281 6.71875 4.835938 7.035156 5.273438 7.394531 L 4.734375 8.050781 C 4.296875 7.613281 3.824219 7.253906 3.3125 6.972656 Z M 4.734375 8.65625 L 5.386719 9.121094 C 5.082031 10.324219 4.632812 11.492188 4.042969 12.617188 L 3.273438 12.078125 C 3.886719 11.003906 4.375 9.863281 4.734375 8.65625 Z M 4.734375 8.65625 "/>
</g>
</svg>
