<svg xmlns="http://www.w3.org/2000/svg" xmlns:xlink="http://www.w3.org/1999/xlink" width="16" height="16" viewBox="0 0 16 16" version="1.1">
<g id="surface1">
<path style=" stroke:none;fill-rule:nonzero;fill:rgb(0%,100%,66.666669%);fill-opacity:1;" d="M 8 2.667969 C 5.054688 2.667969 2.667969 5.054688 2.667969 8 C 2.667969 10.945312 5.054688 13.332031 8 13.332031 C 10.945312 13.332031 13.332031 10.945312 13.332031 8 C 13.332031 5.054688 10.945312 2.667969 8 2.667969 Z M 7.332031 4 L 9.332031 5.332031 L 7.332031 6.667969 L 7.332031 6.117188 C 6.535156 6.398438 6 7.152344 6 8 C 6 8.683594 6.351562 9.324219 6.933594 9.6875 L 6.296875 10.113281 C 6.101562 10.242188 6.003906 10.453125 6 10.660156 C 5.164062 10.03125 4.667969 9.046875 4.667969 8 C 4.667969 6.417969 5.78125 5.050781 7.332031 4.734375 Z M 10 5.339844 C 10.835938 5.96875 11.332031 6.953125 11.332031 8 C 11.332031 9.585938 10.21875 10.949219 8.667969 11.265625 L 8.667969 12 L 6.667969 10.667969 L 8.667969 9.332031 L 8.667969 9.882812 C 9.464844 9.601562 10 8.847656 10 8 C 10 7.316406 9.648438 6.675781 9.066406 6.3125 L 9.703125 5.886719 C 9.898438 5.757812 9.996094 5.550781 10 5.339844 Z M 10 5.339844 "/>
</g>
</svg>
