<svg xmlns="http://www.w3.org/2000/svg" xmlns:xlink="http://www.w3.org/1999/xlink" width="16" height="16" viewBox="0 0 16 16" version="1.1">
<g id="surface1">
<path style=" stroke:none;fill-rule:nonzero;fill:rgb(96.862745%,0%,100%);fill-opacity:1;" d="M 4 2.667969 C 3.261719 2.667969 2.667969 3.261719 2.667969 4 L 2.667969 12 C 2.667969 12.738281 3.261719 13.332031 4 13.332031 L 12 13.332031 C 12.738281 13.332031 13.332031 12.738281 13.332031 12 L 13.332031 4 C 13.332031 3.261719 12.738281 2.667969 12 2.667969 Z M 7.332031 3 L 8 3 L 8 3.332031 L 10 3.332031 L 10 3 L 10.667969 3 L 10.667969 3.332031 L 12 3.332031 L 12 4 L 10.667969 4 L 10.667969 5.332031 L 9.332031 5.332031 L 9.332031 6 L 11.332031 6 L 11.332031 8 L 9.332031 8 L 9.332031 8.667969 L 11.332031 8.667969 L 11.332031 9.332031 L 9.332031 9.332031 L 9.332031 10 L 12 10 L 12 10.667969 L 9.558594 10.667969 C 9.730469 10.929688 9.984375 11.1875 10.300781 11.410156 C 10.882812 11.820312 11.632812 12.074219 11.992188 12.066406 L 12.007812 12.734375 C 11.378906 12.746094 10.597656 12.433594 9.917969 11.957031 C 9.5625 11.707031 9.234375 11.40625 9 11.058594 C 8.765625 11.40625 8.4375 11.707031 8.082031 11.957031 C 7.402344 12.433594 6.621094 12.746094 5.992188 12.734375 L 6.007812 12.066406 C 6.367188 12.074219 7.113281 11.820312 7.699219 11.410156 C 8.015625 11.1875 8.269531 10.929688 8.441406 10.667969 L 6 10.667969 L 6 10 L 8.667969 10 L 8.667969 9.332031 L 6.667969 9.332031 L 6.667969 8.667969 L 8.667969 8.667969 L 8.667969 8 L 6.667969 8 L 6.667969 6 L 8.667969 6 L 8.667969 5.332031 L 7.332031 5.332031 L 7.332031 4 L 6 4 L 6 3.332031 L 7.332031 3.332031 Z M 4.234375 4.25 C 4.796875 4.558594 5.3125 4.929688 5.773438 5.367188 L 5.273438 6.019531 C 4.757812 5.535156 4.234375 5.125 3.695312 4.789062 Z M 8 4 L 8 4.667969 L 10 4.667969 L 10 4 Z M 3.851562 6.433594 C 4.363281 6.71875 4.835938 7.039062 5.273438 7.394531 L 4.734375 8.050781 C 4.296875 7.613281 3.824219 7.253906 3.3125 6.972656 Z M 7.332031 6.667969 L 7.332031 7.332031 L 8.667969 7.332031 L 8.667969 6.667969 Z M 9.332031 6.667969 L 9.332031 7.332031 L 10.667969 7.332031 L 10.667969 6.667969 Z M 4.734375 8.65625 L 5.386719 9.121094 C 5.082031 10.324219 4.632812 11.492188 4.042969 12.617188 L 3.273438 12.078125 C 3.886719 11.003906 4.375 9.863281 4.734375 8.65625 Z M 4.734375 8.65625 "/>
</g>
</svg>
