<svg xmlns="http://www.w3.org/2000/svg" xmlns:xlink="http://www.w3.org/1999/xlink" width="16" height="16" viewBox="0 0 16 16" version="1.1">
<defs>
<filter id="alpha" filterUnits="objectBoundingBox" x="0%" y="0%" width="100%" height="100%">
  <feColorMatrix type="matrix" in="SourceGraphic" values="0 0 0 0 1 0 0 0 0 1 0 0 0 0 1 0 0 0 1 0"/>
</filter>
<mask id="mask0">
  <g filter="url(#alpha)">
<rect x="0" y="0" width="16" height="16" style="fill:rgb(0%,0%,0%);fill-opacity:0.3;stroke:none;"/>
  </g>
</mask>
<clipPath id="clip1">
  <rect x="0" y="0" width="16" height="16"/>
</clipPath>
<g id="surface5" clip-path="url(#clip1)">
<path style=" stroke:none;fill-rule:nonzero;fill:rgb(0%,80.000001%,100%);fill-opacity:1;" d="M 4 2.667969 C 3.261719 2.667969 2.667969 3.261719 2.667969 4 L 2.667969 12 C 2.667969 12.738281 3.261719 13.332031 4 13.332031 L 12 13.332031 C 12.738281 13.332031 13.332031 12.738281 13.332031 12 L 13.332031 4 C 13.332031 3.261719 12.738281 2.667969 12 2.667969 Z M 10.410156 4 C 10.53125 4 10.652344 4.046875 10.746094 4.140625 L 11.859375 5.253906 C 12.046875 5.445312 12.046875 5.742188 11.859375 5.929688 L 10.921875 6.859375 L 9.140625 5.078125 L 10.070312 4.140625 C 10.164062 4.046875 10.289062 4 10.410156 4 Z M 8.5 5.71875 L 10.28125 7.5 L 5.78125 12 L 4 12 L 4 10.21875 Z M 8.5 5.71875 "/>
</g>
</defs>
<g id="surface1">
<use xlink:href="#surface5" mask="url(#mask0)"/>
</g>
</svg>
