<svg xmlns="http://www.w3.org/2000/svg" xmlns:xlink="http://www.w3.org/1999/xlink" width="16" height="16" viewBox="0 0 16 16" version="1.1">
<g id="surface1">
<path style=" stroke:none;fill-rule:nonzero;fill:rgb(0%,80.000001%,100%);fill-opacity:1;" d="M 4 2.667969 C 3.261719 2.667969 2.667969 3.261719 2.667969 4 L 2.667969 12 C 2.667969 12.738281 3.261719 13.332031 4 13.332031 L 12 13.332031 C 12.738281 13.332031 13.332031 12.738281 13.332031 12 L 13.332031 4 C 13.332031 3.261719 12.738281 2.667969 12 2.667969 Z M 6.667969 5.332031 L 7.332031 5.332031 L 7.332031 8.195312 L 8.863281 6.667969 L 9.332031 6.667969 L 9.332031 5.332031 L 10 5.332031 L 10 8.195312 L 11.527344 6.667969 L 12.472656 6.667969 L 10.472656 8.667969 L 12.472656 10.667969 L 11.527344 10.667969 L 10 9.136719 L 10 10.667969 L 8.863281 10.667969 L 7.332031 9.136719 L 7.332031 10.667969 L 6.667969 10.667969 L 6.667969 9.332031 C 6.667969 9.722656 6.5625 10.074219 6.320312 10.320312 C 6.074219 10.5625 5.722656 10.667969 5.332031 10.667969 C 4.945312 10.667969 4.59375 10.5625 4.347656 10.320312 C 4.101562 10.074219 4 9.722656 4 9.332031 L 4.667969 9.332031 C 4.667969 9.613281 4.730469 9.757812 4.820312 9.847656 C 4.90625 9.9375 5.054688 10 5.332031 10 C 5.613281 10 5.757812 9.9375 5.847656 9.847656 C 5.9375 9.757812 6 9.613281 6 9.332031 C 6 9.054688 5.9375 8.90625 5.847656 8.820312 C 5.757812 8.730469 5.613281 8.667969 5.332031 8.667969 C 4.945312 8.667969 4.59375 8.5625 4.347656 8.320312 C 4.101562 8.074219 4 7.722656 4 7.332031 C 4 6.945312 4.101562 6.59375 4.347656 6.347656 C 4.59375 6.101562 4.945312 6 5.332031 6 C 5.722656 6 6.074219 6.101562 6.320312 6.347656 C 6.5625 6.59375 6.667969 6.945312 6.667969 7.332031 Z M 6.667969 7.332031 L 6 7.332031 C 6 7.054688 5.9375 6.90625 5.847656 6.820312 C 5.757812 6.730469 5.613281 6.667969 5.332031 6.667969 C 5.054688 6.667969 4.90625 6.730469 4.820312 6.820312 C 4.730469 6.90625 4.667969 7.054688 4.667969 7.332031 C 4.667969 7.613281 4.730469 7.757812 4.820312 7.847656 C 4.90625 7.9375 5.054688 8 5.332031 8 C 5.722656 8 6.074219 8.101562 6.320312 8.347656 C 6.5625 8.59375 6.667969 8.945312 6.667969 9.332031 Z M 9.332031 7.136719 L 7.804688 8.667969 L 9.332031 10.195312 Z M 9.332031 7.136719 "/>
</g>
</svg>
