<svg xmlns="http://www.w3.org/2000/svg" xmlns:xlink="http://www.w3.org/1999/xlink" width="16" height="16" viewBox="0 0 16 16" version="1.1">
<g id="surface1">
<path style=" stroke:none;fill-rule:nonzero;fill:rgb(100%,74.901962%,0%);fill-opacity:1;" d="M 4 2.667969 C 3.261719 2.667969 2.667969 3.261719 2.667969 4 L 2.667969 12 C 2.667969 12.738281 3.261719 13.332031 4 13.332031 L 12 13.332031 C 12.738281 13.332031 13.332031 12.738281 13.332031 12 L 13.332031 4 C 13.332031 3.261719 12.738281 2.667969 12 2.667969 Z M 7.332031 4 L 8 4 L 8 5.332031 L 11.332031 5.332031 L 11.332031 10 L 10.667969 10 L 10.667969 9.332031 L 8 9.332031 L 8 12 L 7.332031 12 L 7.332031 9.332031 L 5.332031 9.332031 L 5.332031 10 L 4.667969 10 L 4.667969 5.332031 L 7.332031 5.332031 Z M 5.332031 6 L 5.332031 8.667969 L 7.332031 8.667969 L 7.332031 6 Z M 8 6 L 8 8.667969 L 10.667969 8.667969 L 10.667969 6 Z M 8 6 "/>
</g>
</svg>
