<svg xmlns="http://www.w3.org/2000/svg" xmlns:xlink="http://www.w3.org/1999/xlink" width="16" height="16" viewBox="0 0 16 16" version="1.1">
<g id="surface1">
<path style=" stroke:none;fill-rule:nonzero;fill:rgb(100%,74.901962%,0%);fill-opacity:1;" d="M 8 4 C 6.660156 4 5.453125 4.800781 4.929688 6.03125 C 3.628906 6.230469 2.667969 7.351562 2.667969 8.667969 C 2.667969 10.089844 3.785156 11.257812 5.207031 11.328125 L 5.207031 11.332031 L 11.683594 11.332031 C 12.59375 11.332031 13.332031 10.59375 13.332031 9.683594 C 13.332031 9.109375 13.035156 8.578125 12.546875 8.277344 C 12.625 8.082031 12.664062 7.875 12.667969 7.667969 C 12.664062 6.765625 11.953125 6.03125 11.050781 6.003906 C 10.523438 4.789062 9.324219 4 8 4 Z M 9.332031 5.332031 L 10.667969 7.332031 L 10 7.332031 L 10 9.332031 L 8.667969 9.332031 L 8.667969 7.332031 L 8 7.332031 Z M 6 6 L 7.332031 6 L 7.332031 8 L 8 8 L 6.667969 10 L 5.332031 8 L 6 8 Z M 6 6 "/>
</g>
</svg>
