<svg xmlns="http://www.w3.org/2000/svg" xmlns:xlink="http://www.w3.org/1999/xlink" width="16" height="16" viewBox="0 0 16 16" version="1.1">
<defs>
<filter id="alpha" filterUnits="objectBoundingBox" x="0%" y="0%" width="100%" height="100%">
  <feColorMatrix type="matrix" in="SourceGraphic" values="0 0 0 0 1 0 0 0 0 1 0 0 0 0 1 0 0 0 1 0"/>
</filter>
<mask id="mask0">
  <g filter="url(#alpha)">
<rect x="0" y="0" width="16" height="16" style="fill:rgb(0%,0%,0%);fill-opacity:0.3;stroke:none;"/>
  </g>
</mask>
<clipPath id="clip1">
  <rect x="0" y="0" width="16" height="16"/>
</clipPath>
<g id="surface5" clip-path="url(#clip1)">
<path style=" stroke:none;fill-rule:nonzero;fill:rgb(100%,74.901962%,0%);fill-opacity:1;" d="M 4.667969 4.667969 C 3.5625 4.667969 2.667969 5.5625 2.667969 6.667969 C 2.667969 7.769531 3.5625 8.667969 4.667969 8.667969 C 5.769531 8.667969 6.667969 7.769531 6.667969 6.667969 C 6.667969 5.5625 5.769531 4.667969 4.667969 4.667969 Z M 10.667969 4.667969 C 9.5625 4.667969 8.667969 5.5625 8.667969 6.667969 C 8.667969 7.769531 9.5625 8.667969 10.667969 8.667969 C 10.824219 8.664062 10.980469 8.644531 11.132812 8.609375 C 10.773438 9.429688 9.957031 10 9 10 L 8.667969 10 L 8.667969 11.332031 L 9.066406 11.332031 C 11.0625 11.332031 12.667969 9.699219 12.667969 7.667969 L 12.667969 6.667969 C 12.667969 5.5625 11.769531 4.667969 10.667969 4.667969 Z M 4.667969 6 C 5.035156 6 5.332031 6.296875 5.332031 6.667969 C 5.332031 7.035156 5.035156 7.332031 4.667969 7.332031 C 4.296875 7.332031 4 7.035156 4 6.667969 C 4 6.296875 4.296875 6 4.667969 6 Z M 10.667969 6 C 11.035156 6 11.332031 6.296875 11.332031 6.667969 C 11.332031 7.035156 11.035156 7.332031 10.667969 7.332031 C 10.296875 7.332031 10 7.035156 10 6.667969 C 10 6.296875 10.296875 6 10.667969 6 Z M 10.667969 6 "/>
</g>
</defs>
<g id="surface1">
<use xlink:href="#surface5" mask="url(#mask0)"/>
</g>
</svg>
