<svg xmlns="http://www.w3.org/2000/svg" xmlns:xlink="http://www.w3.org/1999/xlink" width="16" height="16" viewBox="0 0 16 16" version="1.1">
<g id="surface1">
<path style=" stroke:none;fill-rule:nonzero;fill:rgb(96.862745%,0%,100%);fill-opacity:1;" d="M 4 2.667969 C 3.261719 2.667969 2.667969 3.261719 2.667969 4 L 2.667969 12 C 2.667969 12.738281 3.261719 13.332031 4 13.332031 L 12 13.332031 C 12.738281 13.332031 13.332031 12.738281 13.332031 12 L 13.332031 4 C 13.332031 3.261719 12.738281 2.667969 12 2.667969 Z M 7.933594 4.335938 C 8.796875 4.320312 9.664062 4.605469 10.363281 5.195312 L 9.503906 6.214844 C 8.605469 5.457031 7.300781 5.480469 6.429688 6.269531 C 5.5625 7.0625 5.410156 8.359375 6.078125 9.324219 C 6.746094 10.292969 8.011719 10.613281 9.058594 10.078125 C 9.648438 9.777344 10.046875 9.261719 10.222656 8.671875 L 8 8.671875 L 8 7.335938 L 11.597656 7.332031 C 11.886719 8.902344 11.125 10.519531 9.667969 11.265625 C 8.035156 12.097656 6.023438 11.59375 4.984375 10.085938 C 3.941406 8.578125 4.175781 6.515625 5.535156 5.285156 C 6.210938 4.667969 7.070312 4.351562 7.933594 4.335938 Z M 7.933594 4.335938 "/>
</g>
</svg>
