<svg xmlns="http://www.w3.org/2000/svg" xmlns:xlink="http://www.w3.org/1999/xlink" width="16" height="16" viewBox="0 0 16 16" version="1.1">
<g id="surface1">
<path style=" stroke:none;fill-rule:nonzero;fill:rgb(96.862745%,0%,100%);fill-opacity:1;" d="M 5.261719 4 C 4.964844 4 4.703125 4.195312 4.621094 4.480469 L 2.695312 11.148438 C 2.636719 11.351562 2.675781 11.566406 2.804688 11.734375 C 2.929688 11.902344 3.125 12 3.335938 12 L 4.113281 12 C 4.414062 12 4.675781 11.800781 4.753906 11.511719 L 5.175781 10 L 6.164062 10 L 6.582031 11.511719 C 6.664062 11.800781 6.925781 12 7.226562 12 L 8.003906 12 C 8.121094 12 8.234375 11.96875 8.335938 11.910156 C 8.4375 11.96875 8.550781 12 8.667969 12 L 9.335938 12 C 9.496094 12 9.652344 11.941406 9.777344 11.835938 C 10.0625 11.9375 10.359375 12 10.667969 12 C 12.132812 12 13.335938 10.796875 13.335938 9.332031 C 13.335938 7.867188 12.132812 6.667969 10.667969 6.667969 C 10.4375 6.667969 10.222656 6.734375 10.003906 6.789062 L 10.003906 4.667969 C 10.003906 4.296875 9.703125 4 9.335938 4 L 8.667969 4 C 8.300781 4 8.003906 4.296875 8.003906 4.667969 L 8.003906 8.726562 L 6.882812 4.496094 C 6.808594 4.203125 6.542969 4 6.238281 4 Z M 5.703125 6 L 6.335938 8.667969 L 5.003906 8.667969 Z M 10.667969 8 C 11.40625 8 12.003906 8.597656 12.003906 9.332031 C 12.003906 10.070312 11.40625 10.667969 10.667969 10.667969 C 9.933594 10.667969 9.335938 10.070312 9.335938 9.332031 C 9.335938 8.597656 9.933594 8 10.667969 8 Z M 10.667969 8 "/>
</g>
</svg>
