<svg xmlns="http://www.w3.org/2000/svg" xmlns:xlink="http://www.w3.org/1999/xlink" width="16" height="16" viewBox="0 0 16 16" version="1.1">
<g id="surface1">
<path style=" stroke:none;fill-rule:nonzero;fill:rgb(100%,30.980393%,30.980393%);fill-opacity:1;" d="M 7.519531 3.367188 C 6.773438 3.367188 6.085938 3.5625 5.550781 3.976562 C 5.011719 4.394531 4.703125 5.027344 4.703125 5.691406 C 4.703125 6.304688 4.984375 6.882812 5.386719 7.425781 C 5.226562 7.539062 5.070312 7.65625 4.914062 7.800781 C 4.730469 7.972656 4.566406 8.164062 4.433594 8.371094 C 4.433594 8.371094 4.433594 8.371094 4.433594 8.375 C 4.296875 8.589844 4.195312 8.824219 4.117188 9.085938 C 4.117188 9.085938 4.117188 9.089844 4.117188 9.089844 C 4.039062 9.363281 4.003906 9.648438 4.003906 9.941406 C 4.003906 10.308594 4.101562 10.671875 4.285156 11 C 4.285156 11.003906 4.285156 11.003906 4.289062 11.007812 C 4.46875 11.324219 4.710938 11.605469 5.007812 11.835938 C 5.308594 12.074219 5.660156 12.253906 6.046875 12.386719 C 6.050781 12.386719 6.054688 12.386719 6.054688 12.386719 C 6.457031 12.519531 6.875 12.582031 7.304688 12.582031 C 8.082031 12.582031 8.820312 12.316406 9.523438 11.925781 L 10.023438 12.453125 C 10.265625 12.714844 10.683594 12.742188 10.964844 12.519531 L 11.613281 12.007812 C 11.757812 11.894531 11.847656 11.726562 11.859375 11.550781 C 11.871094 11.371094 11.808594 11.195312 11.679688 11.0625 L 11.164062 10.527344 C 11.433594 10.207031 11.707031 9.90625 11.945312 9.511719 C 12.125 9.210938 12.027344 8.832031 11.726562 8.640625 L 11.085938 8.242188 C 10.929688 8.144531 10.734375 8.113281 10.550781 8.15625 C 10.367188 8.199219 10.210938 8.3125 10.117188 8.46875 C 9.992188 8.683594 9.84375 8.835938 9.707031 9.019531 L 8.609375 7.882812 C 8.753906 7.800781 8.878906 7.722656 8.992188 7.636719 C 9.078125 7.570312 9.175781 7.492188 9.289062 7.402344 C 9.289062 7.402344 9.289062 7.398438 9.289062 7.398438 C 9.433594 7.28125 9.5625 7.152344 9.667969 7 C 9.667969 7 9.671875 6.996094 9.675781 6.992188 C 9.742188 6.886719 9.808594 6.777344 9.875 6.660156 C 9.972656 6.492188 10.042969 6.308594 10.082031 6.121094 C 10.109375 5.988281 10.117188 5.851562 10.121094 5.71875 C 10.128906 5.675781 10.132812 5.636719 10.132812 5.597656 C 10.132812 4.945312 9.867188 4.316406 9.355469 3.917969 C 8.859375 3.535156 8.214844 3.367188 7.519531 3.367188 Z M 8.8125 4.429688 L 8.816406 4.4375 C 8.8125 4.433594 8.8125 4.4375 8.8125 4.433594 C 8.8125 4.433594 8.8125 4.433594 8.8125 4.429688 Z M 7.53125 5.304688 C 7.777344 5.304688 7.847656 5.355469 7.871094 5.375 C 7.871094 5.378906 7.875 5.378906 7.875 5.378906 C 7.898438 5.402344 7.933594 5.429688 7.933594 5.625 C 7.933594 5.703125 7.921875 5.765625 7.894531 5.832031 C 7.894531 5.832031 7.890625 5.835938 7.890625 5.839844 C 7.855469 5.921875 7.820312 5.976562 7.789062 6.015625 C 7.785156 6.019531 7.78125 6.023438 7.78125 6.027344 C 7.75 6.0625 7.679688 6.132812 7.558594 6.214844 C 7.457031 6.285156 7.378906 6.335938 7.292969 6.386719 C 7.097656 6.109375 6.890625 5.828125 6.890625 5.632812 C 6.890625 5.519531 6.882812 5.527344 6.996094 5.449219 C 7.128906 5.355469 7.28125 5.304688 7.53125 5.304688 Z M 6.757812 8.996094 L 8.011719 10.328125 C 7.792969 10.402344 7.554688 10.574219 7.339844 10.574219 C 6.96875 10.574219 6.726562 10.488281 6.519531 10.328125 C 6.308594 10.160156 6.265625 10.054688 6.265625 9.855469 C 6.265625 9.570312 6.328125 9.394531 6.449219 9.246094 C 6.449219 9.246094 6.449219 9.242188 6.449219 9.242188 C 6.515625 9.160156 6.660156 9.078125 6.757812 8.996094 Z M 6.757812 8.996094 "/>
</g>
</svg>
