<svg xmlns="http://www.w3.org/2000/svg" xmlns:xlink="http://www.w3.org/1999/xlink" width="16" height="16" viewBox="0 0 16 16" version="1.1">
<g id="surface1">
<path style=" stroke:none;fill-rule:nonzero;fill:rgb(94.901961%,47.450981%,20.784314%);fill-opacity:1;" d="M 5.332031 4.667969 L 6.667969 4.667969 L 6.667969 11.332031 L 5.332031 11.332031 Z M 5.332031 4.667969 "/>
<path style=" stroke:none;fill-rule:nonzero;fill:rgb(1.568628%,53.725493%,41.568628%);fill-opacity:1;" d="M 8 4.667969 L 9.332031 4.667969 L 9.332031 11.332031 L 8 11.332031 Z M 8 4.667969 "/>
<path style=" stroke:none;fill-rule:nonzero;fill:rgb(22.745098%,32.549021%,60.784316%);fill-opacity:1;" d="M 10.667969 4.667969 L 12 4.667969 L 12 11.332031 L 10.667969 11.332031 Z M 10.667969 4.667969 "/>
<path style=" stroke:none;fill-rule:nonzero;fill:rgb(99.215686%,82.352942%,52.156866%);fill-opacity:1;" d="M 4 4.667969 L 5.332031 4.667969 L 5.332031 11.332031 L 4 11.332031 Z M 4 4.667969 "/>
<path style=" stroke:none;fill-rule:nonzero;fill:rgb(11.372549%,60.000002%,95.294118%);fill-opacity:1;" d="M 9.332031 4.667969 L 10.667969 4.667969 L 10.667969 11.332031 L 9.332031 11.332031 Z M 9.332031 4.667969 "/>
<path style=" stroke:none;fill-rule:nonzero;fill:rgb(49.803922%,80.000001%,45.490196%);fill-opacity:1;" d="M 6.667969 4.667969 L 8 4.667969 L 8 11.332031 L 6.667969 11.332031 Z M 6.667969 4.667969 "/>
</g>
</svg>
