<svg xmlns="http://www.w3.org/2000/svg" xmlns:xlink="http://www.w3.org/1999/xlink" width="16" height="16" viewBox="0 0 16 16" version="1.1">
<g id="surface1">
<path style=" stroke:none;fill-rule:nonzero;fill:rgb(0%,80.000001%,100%);fill-opacity:1;" d="M 8 2.667969 C 5.054688 2.667969 2.667969 5.054688 2.667969 8 C 2.667969 10.945312 5.054688 13.332031 8 13.332031 C 10.945312 13.332031 13.332031 10.945312 13.332031 8 C 13.332031 5.054688 10.945312 2.667969 8 2.667969 Z M 8 3.332031 C 9.105469 3.332031 10.175781 3.726562 11.019531 4.445312 C 11.027344 4.457031 11.03125 4.464844 11.042969 4.480469 L 8 7.519531 L 4.957031 4.480469 C 4.964844 4.46875 4.964844 4.464844 4.972656 4.457031 C 5.816406 3.734375 6.890625 3.335938 8 3.332031 Z M 4.480469 4.957031 L 7.519531 8 L 4.480469 11.042969 C 4.410156 10.960938 4.367188 10.917969 4.304688 10.84375 C 3.675781 10.027344 3.335938 9.027344 3.332031 8 C 3.332031 6.894531 3.726562 5.824219 4.445312 4.980469 C 4.457031 4.972656 4.464844 4.96875 4.480469 4.957031 Z M 11.519531 4.957031 C 11.527344 4.960938 11.53125 4.960938 11.535156 4.964844 C 12.265625 5.808594 12.664062 6.886719 12.667969 8 C 12.667969 9.109375 12.269531 10.183594 11.546875 11.03125 C 11.539062 11.035156 11.53125 11.035156 11.519531 11.042969 L 8.480469 8 Z M 8 8.480469 L 11.042969 11.519531 C 11.039062 11.527344 11.035156 11.53125 11.035156 11.539062 C 10.191406 12.265625 9.113281 12.664062 8 12.667969 C 6.882812 12.664062 5.804688 12.265625 4.960938 11.539062 C 4.960938 11.53125 4.960938 11.527344 4.957031 11.519531 Z M 8 8.480469 "/>
</g>
</svg>
