<svg xmlns="http://www.w3.org/2000/svg" xmlns:xlink="http://www.w3.org/1999/xlink" width="16" height="16" viewBox="0 0 16 16" version="1.1">
<g id="surface1">
<path style=" stroke:none;fill-rule:nonzero;fill:rgb(0%,100%,66.666669%);fill-opacity:1;" d="M 7.332031 3.398438 L 7.332031 4.730469 C 6.03125 5 4.996094 6.035156 4.730469 7.335938 L 3.332031 7.335938 L 3.332031 8.667969 L 4.730469 8.667969 C 4.996094 9.972656 6.03125 11.007812 7.332031 11.273438 L 7.332031 12.667969 L 8.667969 12.667969 L 8.667969 11.273438 C 9.96875 11.007812 11.003906 9.972656 11.269531 8.667969 L 12.667969 8.667969 L 12.667969 7.335938 L 11.269531 7.335938 C 11.003906 6.035156 9.96875 5 8.667969 4.730469 L 8.667969 3.398438 Z M 8 6.667969 C 8.738281 6.667969 9.332031 7.265625 9.332031 8.003906 C 9.332031 8.738281 8.738281 9.335938 8 9.335938 C 7.261719 9.335938 6.667969 8.738281 6.667969 8.003906 C 6.667969 7.265625 7.261719 6.667969 8 6.667969 Z M 8 6.667969 "/>
</g>
</svg>
