<svg xmlns="http://www.w3.org/2000/svg" xmlns:xlink="http://www.w3.org/1999/xlink" width="16" height="16" viewBox="0 0 16 16" version="1.1">
<g id="surface1">
<path style=" stroke:none;fill-rule:nonzero;fill:rgb(0%,100%,66.666669%);fill-opacity:1;" d="M 14 10 L 11.820312 10 C 11.253906 10 10.710938 9.757812 10.332031 9.332031 L 2 9.332031 L 2 6.667969 L 8 6.667969 L 8 6 L 9.332031 6 L 9.332031 6.667969 L 10.332031 6.667969 C 10.710938 6.242188 11.253906 6 11.820312 6 L 14 6 Z M 13.332031 9.332031 L 13.332031 6.667969 L 11.820312 6.667969 C 11.34375 6.667969 10.90625 6.921875 10.667969 7.332031 L 10.667969 8.667969 C 10.90625 9.078125 11.34375 9.332031 11.820312 9.332031 Z M 10 8.667969 L 10 7.332031 L 2.667969 7.332031 L 2.667969 8.667969 Z M 10 8.667969 "/>
</g>
</svg>
