<svg xmlns="http://www.w3.org/2000/svg" xmlns:xlink="http://www.w3.org/1999/xlink" width="16" height="16" viewBox="0 0 16 16" version="1.1">
<g id="surface1">
<path style=" stroke:none;fill-rule:nonzero;fill:rgb(0%,80.000001%,100%);fill-opacity:1;" d="M 8 6 L 8 6.660156 L 8.675781 7.332031 L 10 7.332031 L 10 8.660156 L 11.246094 9.902344 C 11.429688 9.960938 11.621094 10 11.820312 10 L 14 10 L 14 6 L 11.820312 6 C 11.253906 6 10.710938 6.242188 10.332031 6.667969 L 9.332031 6.667969 L 9.332031 6 Z M 2 6.667969 L 2 9.332031 L 7.988281 9.332031 L 7.320312 8.667969 L 2.667969 8.667969 L 2.667969 7.332031 L 5.988281 7.332031 L 5.320312 6.667969 Z M 11.820312 6.667969 L 13.332031 6.667969 L 13.332031 9.332031 L 11.820312 9.332031 C 11.34375 9.332031 10.90625 9.078125 10.667969 8.667969 L 10.667969 7.332031 C 10.90625 6.921875 11.34375 6.667969 11.820312 6.667969 Z M 11.820312 6.667969 "/>
<path style=" stroke:none;fill-rule:nonzero;fill:rgb(85.490197%,26.666668%,32.549021%);fill-opacity:1;" d="M 2.667969 3.136719 L 3.136719 2.667969 L 13.332031 12.863281 L 12.863281 13.332031 Z M 2.667969 3.136719 "/>
</g>
</svg>
