<svg xmlns="http://www.w3.org/2000/svg" xmlns:xlink="http://www.w3.org/1999/xlink" width="16" height="16" viewBox="0 0 16 16" version="1.1">
<g id="surface1">
<path style=" stroke:none;fill-rule:nonzero;fill:rgb(100%,74.901962%,0%);fill-opacity:1;" d="M 10.332031 6 C 9.414062 6 8.667969 6.746094 8.667969 7.667969 C 8.667969 8.585938 9.414062 9.332031 10.332031 9.332031 C 11.253906 9.332031 12 8.585938 12 7.667969 C 12 6.746094 11.253906 6 10.332031 6 Z M 10.332031 6.667969 C 10.886719 6.667969 11.332031 7.113281 11.332031 7.667969 C 11.332031 8.21875 10.886719 8.667969 10.332031 8.667969 C 9.78125 8.667969 9.332031 8.21875 9.332031 7.667969 C 9.332031 7.113281 9.78125 6.667969 10.332031 6.667969 Z M 5.667969 7.332031 C 4.746094 7.332031 4 8.078125 4 9 C 4 9.921875 4.746094 10.667969 5.667969 10.667969 C 6.585938 10.667969 7.332031 9.921875 7.332031 9 C 7.332031 8.078125 6.585938 7.332031 5.667969 7.332031 Z M 5.667969 8 C 6.21875 8 6.667969 8.449219 6.667969 9 C 6.667969 9.550781 6.21875 10 5.667969 10 C 5.113281 10 4.667969 9.550781 4.667969 9 C 4.667969 8.449219 5.113281 8 5.667969 8 Z M 5.667969 8 "/>
<path style=" stroke:none;fill-rule:nonzero;fill:rgb(100%,74.901962%,0%);fill-opacity:1;" d="M 6.667969 8 C 7.332031 8 8 7 9.332031 7 L 9.332031 8.332031 C 8.667969 8.332031 8 9.332031 6.667969 9.332031 Z M 11.332031 7 C 12.667969 7 13.332031 7.332031 13.332031 7.332031 L 13.332031 8.667969 C 13.332031 8.667969 12 8.332031 11.332031 8.332031 Z M 2.667969 8.667969 C 3.332031 8.667969 4.667969 8.332031 4.667969 8.332031 L 4.667969 9.667969 C 4.667969 9.667969 3.332031 10 2.667969 10 Z M 2.667969 8.667969 "/>
</g>
</svg>
