<svg xmlns="http://www.w3.org/2000/svg" xmlns:xlink="http://www.w3.org/1999/xlink" width="16" height="16" viewBox="0 0 16 16" version="1.1">
<g id="surface1">
<path style=" stroke:none;fill-rule:nonzero;fill:rgb(96.862745%,0%,100%);fill-opacity:1;" d="M 8 2.667969 C 7.261719 2.667969 6.4375 4.230469 6.4375 4.230469 C 6.4375 4.230469 4.75 3.707031 4.230469 4.230469 C 3.707031 4.75 4.230469 6.4375 4.230469 6.4375 C 4.230469 6.4375 2.667969 7.261719 2.667969 8 C 2.667969 8.738281 4.230469 9.5625 4.230469 9.5625 C 4.230469 9.5625 3.707031 11.25 4.230469 11.769531 C 4.75 12.292969 6.4375 11.769531 6.4375 11.769531 C 6.4375 11.769531 7.261719 13.332031 8 13.332031 C 8.738281 13.332031 9.5625 11.769531 9.5625 11.769531 C 9.5625 11.769531 11.25 12.292969 11.769531 11.769531 C 12.292969 11.25 11.769531 9.5625 11.769531 9.5625 C 11.769531 9.5625 13.332031 8.738281 13.332031 8 C 13.332031 7.261719 11.769531 6.4375 11.769531 6.4375 C 11.769531 6.4375 12.292969 4.75 11.769531 4.230469 C 11.25 3.707031 9.5625 4.230469 9.5625 4.230469 C 9.5625 4.230469 8.738281 2.667969 8 2.667969 Z M 8 5.332031 C 9.472656 5.332031 10.667969 6.527344 10.667969 8 C 10.667969 9.472656 9.472656 10.667969 8 10.667969 C 6.527344 10.667969 5.332031 9.472656 5.332031 8 C 5.332031 6.527344 6.527344 5.332031 8 5.332031 Z M 8 5.332031 "/>
<path style=" stroke:none;fill-rule:nonzero;fill:rgb(96.862745%,0%,100%);fill-opacity:0.501961;" d="M 7.019531 10.863281 C 6.246094 10.578125 5.632812 10 5.261719 9.210938 C 5.058594 8.773438 5.039062 8.675781 5.039062 7.980469 C 5.039062 7.28125 5.054688 7.1875 5.265625 6.742188 C 5.648438 5.925781 6.304688 5.332031 7.128906 5.0625 C 7.414062 4.96875 7.675781 4.945312 8.167969 4.96875 C 8.738281 4.992188 8.894531 5.027344 9.304688 5.234375 C 11.582031 6.367188 11.578125 9.59375 9.300781 10.726562 C 8.867188 10.941406 8.753906 10.964844 8.105469 10.984375 C 7.546875 10.996094 7.308594 10.972656 7.019531 10.863281 Z M 7.019531 10.863281 "/>
</g>
</svg>
