<svg xmlns="http://www.w3.org/2000/svg" xmlns:xlink="http://www.w3.org/1999/xlink" width="16" height="16" viewBox="0 0 16 16" version="1.1">
<g id="surface1">
<path style=" stroke:none;fill-rule:nonzero;fill:rgb(100%,30.980393%,30.980393%);fill-opacity:1;" d="M 2.667969 4.007812 L 2.667969 12.007812 L 9.332031 12.007812 L 9.332031 5.339844 C 9.332031 4.007812 8 4.007812 8 4.007812 Z M 9.332031 4.007812 C 9.332031 4.007812 10 4.007812 10 5.339844 L 10 12.007812 L 10.667969 12.007812 L 10.667969 5.339844 C 10.667969 4.007812 9.332031 4.007812 9.332031 4.007812 Z M 10.667969 4.007812 C 10.667969 4.007812 11.332031 4.007812 11.332031 5.339844 L 11.332031 12.007812 L 12 12.007812 L 12 5.339844 C 12 4.007812 10.667969 4.007812 10.667969 4.007812 Z M 4.667969 6.007812 L 7.667969 8.007812 L 4.667969 10.007812 Z M 4.667969 6.007812 "/>
</g>
</svg>
