<svg xmlns="http://www.w3.org/2000/svg" xmlns:xlink="http://www.w3.org/1999/xlink" width="16" height="16" viewBox="0 0 16 16" version="1.1">
<g id="surface1">
<path style=" stroke:none;fill-rule:nonzero;fill:rgb(0%,100%,66.666669%);fill-opacity:1;" d="M 8 2 L 8 9.035156 C 7.605469 8.808594 7.152344 8.667969 6.667969 8.667969 C 5.191406 8.667969 4 9.859375 4 11.332031 C 4 12.808594 5.191406 14 6.667969 14 C 8.140625 14 9.332031 12.808594 9.332031 11.332031 L 9.332031 4.667969 L 12 4.667969 L 12 2 Z M 6.667969 12.667969 C 5.933594 12.667969 5.332031 12.066406 5.332031 11.332031 C 5.332031 10.601562 5.933594 10 6.667969 10 C 7.398438 10 8 10.601562 8 11.332031 C 8 12.066406 7.398438 12.667969 6.667969 12.667969 Z M 6.667969 12.667969 "/>
</g>
</svg>
