<svg xmlns="http://www.w3.org/2000/svg" xmlns:xlink="http://www.w3.org/1999/xlink" width="16" height="16" viewBox="0 0 16 16" version="1.1">
<g id="surface1">
<path style=" stroke:none;fill-rule:nonzero;fill:rgb(0%,80.000001%,100%);fill-opacity:1;" d="M 11.113281 8.753906 C 12.027344 9.375 12.667969 10.214844 12.667969 11.332031 L 12.667969 13.332031 L 15.332031 13.332031 L 15.332031 11.332031 C 15.332031 9.878906 12.953125 9.019531 11.113281 8.753906 Z M 11.113281 8.753906 "/>
<path style=" stroke:none;fill-rule:nonzero;fill:rgb(0%,80.000001%,100%);fill-opacity:1;" d="M 10 8 C 11.472656 8 12.667969 6.808594 12.667969 5.332031 C 12.667969 3.859375 11.472656 2.667969 10 2.667969 C 9.6875 2.667969 9.394531 2.734375 9.113281 2.828125 C 9.667969 3.511719 10 4.386719 10 5.332031 C 10 6.28125 9.667969 7.152344 9.113281 7.839844 C 9.394531 7.933594 9.6875 8 10 8 Z M 10 8 "/>
<path style=" stroke:none;fill-rule:nonzero;fill:rgb(0%,80.000001%,100%);fill-opacity:1;" d="M 6 8 C 7.472656 8 8.667969 6.808594 8.667969 5.332031 C 8.667969 3.859375 7.472656 2.667969 6 2.667969 C 4.527344 2.667969 3.332031 3.859375 3.332031 5.332031 C 3.332031 6.808594 4.527344 8 6 8 Z M 6 4 C 6.734375 4 7.332031 4.601562 7.332031 5.332031 C 7.332031 6.066406 6.734375 6.667969 6 6.667969 C 5.265625 6.667969 4.667969 6.066406 4.667969 5.332031 C 4.667969 4.601562 5.265625 4 6 4 Z M 6 4 "/>
<path style=" stroke:none;fill-rule:nonzero;fill:rgb(0%,80.000001%,100%);fill-opacity:1;" d="M 6 8.667969 C 4.21875 8.667969 0.667969 9.558594 0.667969 11.332031 L 0.667969 13.332031 L 11.332031 13.332031 L 11.332031 11.332031 C 11.332031 9.558594 7.78125 8.667969 6 8.667969 Z M 10 12 L 2 12 L 2 11.339844 C 2.132812 10.859375 4.199219 10 6 10 C 7.800781 10 9.867188 10.859375 10 11.332031 Z M 10 12 "/>
</g>
</svg>
