<svg xmlns="http://www.w3.org/2000/svg" xmlns:xlink="http://www.w3.org/1999/xlink" width="16" height="16" viewBox="0 0 16 16" version="1.1">
<g id="surface1">
<path style=" stroke:none;fill-rule:nonzero;fill:rgb(96.862745%,0%,100%);fill-opacity:1;" d="M 2.667969 2.667969 L 2.667969 13.332031 L 7.332031 13.332031 L 7.332031 12.667969 L 3.332031 12.667969 L 3.332031 7.332031 L 5.332031 7.332031 L 5.332031 7.328125 L 5.339844 7.332031 L 6.671875 6 L 12.667969 6 L 12.667969 7.332031 L 13.332031 7.332031 L 13.332031 4 L 8.671875 4 L 7.339844 2.667969 L 7.332031 2.671875 L 7.332031 2.667969 Z M 3.332031 3.332031 L 7.058594 3.332031 L 7.726562 4.003906 L 5.046875 6.667969 L 3.332031 6.667969 Z M 9.332031 8 L 9.332031 8.667969 L 8 8.667969 L 8 13.332031 L 13.332031 13.332031 L 13.332031 8.667969 L 12 8.667969 L 12 8 Z M 8.667969 9.332031 L 12.667969 9.332031 L 12.667969 12.667969 L 8.667969 12.667969 Z M 9.332031 10 L 9.332031 10.667969 L 12 10.667969 L 12 10 Z M 9.332031 11.332031 L 9.332031 12 L 10.667969 12 L 10.667969 11.332031 Z M 9.332031 11.332031 "/>
</g>
</svg>
