<svg xmlns="http://www.w3.org/2000/svg" xmlns:xlink="http://www.w3.org/1999/xlink" width="16" height="16" viewBox="0 0 16 16" version="1.1">
<g id="surface1">
<path style=" stroke:none;fill-rule:nonzero;fill:rgb(0%,80.000001%,100%);fill-opacity:1;" d="M 8.667969 2 C 5.351562 2 2.667969 4.6875 2.667969 8 L 0.667969 8 L 3.332031 10.660156 L 6 8 L 4 8 C 4 5.421875 6.085938 3.332031 8.667969 3.332031 C 11.246094 3.332031 13.332031 5.421875 13.332031 8 C 13.332031 10.578125 11.246094 12.667969 8.667969 12.667969 C 7.378906 12.667969 6.214844 12.140625 5.375 11.292969 L 4.425781 12.238281 C 5.511719 13.328125 7.007812 14 8.667969 14 C 11.980469 14 14.667969 11.3125 14.667969 8 C 14.667969 4.6875 11.980469 2 8.667969 2 Z M 8 5.332031 L 8 8.667969 L 10.832031 10.347656 L 11.347656 9.492188 L 9 8.101562 L 9 5.332031 Z M 8 5.332031 "/>
</g>
</svg>
