<svg xmlns="http://www.w3.org/2000/svg" xmlns:xlink="http://www.w3.org/1999/xlink" width="16" height="16" viewBox="0 0 16 16" version="1.1">
<g id="surface1">
<path style=" stroke:none;fill-rule:nonzero;fill:rgb(100%,74.901962%,0%);fill-opacity:1;" d="M 2.667969 4.3125 L 3.839844 6.667969 L 13.332031 6.667969 L 13.332031 12 L 2.667969 12 Z M 14.667969 2.667969 L 12 2.667969 L 13.332031 5.332031 L 11.332031 5.332031 L 10 2.667969 L 8.667969 2.667969 L 10 5.332031 L 8 5.332031 L 6.667969 2.667969 L 5.332031 2.667969 L 6.667969 5.332031 L 4.667969 5.332031 L 3.332031 2.667969 L 2.667969 2.667969 C 1.933594 2.667969 1.339844 3.265625 1.339844 4 L 1.332031 12 C 1.332031 12.734375 1.933594 13.332031 2.667969 13.332031 L 13.332031 13.332031 C 14.066406 13.332031 14.667969 12.734375 14.667969 12 Z M 14.667969 2.667969 "/>
</g>
</svg>
