<svg xmlns="http://www.w3.org/2000/svg" xmlns:xlink="http://www.w3.org/1999/xlink" width="16" height="16" viewBox="0 0 16 16" version="1.1">
<g id="surface1">
<path style=" stroke:none;fill-rule:nonzero;fill:rgb(100%,74.901962%,0%);fill-opacity:1;" d="M 8 6.667969 C 7.265625 6.667969 6.667969 7.265625 6.667969 8 C 6.667969 8.734375 7.265625 9.332031 8 9.332031 C 8.734375 9.332031 9.332031 8.734375 9.332031 8 C 9.332031 7.265625 8.734375 6.667969 8 6.667969 Z M 12 8 C 12 5.792969 10.207031 4 8 4 C 5.792969 4 4 5.792969 4 8 C 4 9.480469 4.808594 10.765625 6 11.460938 L 6.667969 10.300781 C 5.875 9.832031 5.332031 8.988281 5.332031 8 C 5.332031 6.527344 6.527344 5.332031 8 5.332031 C 9.472656 5.332031 10.667969 6.527344 10.667969 8 C 10.667969 8.988281 10.125 9.832031 9.332031 10.300781 L 10 11.460938 C 11.191406 10.765625 12 9.480469 12 8 Z M 8 1.332031 C 4.320312 1.332031 1.332031 4.320312 1.332031 8 C 1.332031 10.464844 2.671875 12.613281 4.660156 13.765625 L 5.328125 12.613281 C 3.738281 11.6875 2.667969 9.972656 2.667969 8 C 2.667969 5.054688 5.054688 2.667969 8 2.667969 C 10.945312 2.667969 13.332031 5.054688 13.332031 8 C 13.332031 9.972656 12.261719 11.6875 10.667969 12.613281 L 11.332031 13.765625 C 13.328125 12.613281 14.667969 10.464844 14.667969 8 C 14.667969 4.320312 11.679688 1.332031 8 1.332031 Z M 8 1.332031 "/>
</g>
</svg>
