<svg xmlns="http://www.w3.org/2000/svg" xmlns:xlink="http://www.w3.org/1999/xlink" width="16" height="16" viewBox="0 0 16 16" version="1.1">
<g id="surface1">
<path style=" stroke:none;fill-rule:nonzero;fill:rgb(0%,80.000001%,100%);fill-opacity:1;" d="M 8.003906 1.332031 C 7.75 1.332031 7.519531 1.476562 7.40625 1.703125 L 5.609375 5.335938 L 1.597656 5.914062 C 1.347656 5.953125 1.136719 6.128906 1.058594 6.367188 C 0.980469 6.609375 1.046875 6.875 1.226562 7.050781 L 4.125 9.882812 L 3.4375 13.878906 C 3.390625 14.128906 3.496094 14.382812 3.699219 14.53125 C 3.90625 14.679688 4.179688 14.699219 4.402344 14.582031 L 7.992188 12.699219 L 11.578125 14.589844 C 11.800781 14.707031 12.074219 14.6875 12.277344 14.539062 C 12.484375 14.390625 12.585938 14.136719 12.546875 13.886719 L 11.863281 9.894531 L 14.769531 7.066406 C 14.953125 6.890625 15.019531 6.625 14.941406 6.382812 C 14.863281 6.144531 14.652344 5.964844 14.402344 5.929688 L 10.390625 5.34375 L 8.601562 1.707031 C 8.492188 1.476562 8.257812 1.332031 8.003906 1.332031 Z M 8.003906 3.507812 L 9.351562 6.246094 C 9.445312 6.441406 9.632812 6.578125 9.851562 6.613281 L 12.871094 7.054688 L 10.683594 9.179688 C 10.527344 9.335938 10.453125 9.554688 10.492188 9.773438 L 11.003906 12.78125 L 8.304688 11.355469 C 8.109375 11.253906 7.878906 11.253906 7.683594 11.355469 L 4.980469 12.773438 L 5.5 9.765625 C 5.539062 9.550781 5.464844 9.328125 5.308594 9.175781 L 3.125 7.042969 L 6.148438 6.605469 C 6.363281 6.574219 6.550781 6.4375 6.648438 6.242188 Z M 8.003906 3.507812 "/>
</g>
</svg>
