<svg xmlns="http://www.w3.org/2000/svg" xmlns:xlink="http://www.w3.org/1999/xlink" width="16" height="16" viewBox="0 0 16 16" version="1.1">
<g id="surface1">
<path style=" stroke:none;fill-rule:nonzero;fill:rgb(0%,80.000001%,100%);fill-opacity:1;" d="M 10.632812 7.332031 C 9.542969 7.351562 8.667969 8.242188 8.667969 9.332031 C 8.667969 10.4375 9.5625 11.332031 10.667969 11.332031 C 11.769531 11.332031 12.667969 10.4375 12.667969 9.332031 C 12.667969 8.230469 11.769531 7.332031 10.667969 7.332031 C 10.65625 7.332031 10.644531 7.332031 10.632812 7.332031 Z M 10.332031 8 C 10.519531 8 10.667969 8.148438 10.667969 8.332031 L 10.667969 9.332031 L 11.667969 9.332031 C 11.851562 9.332031 12 9.480469 12 9.667969 C 12 9.851562 11.851562 10 11.667969 10 L 10.332031 10 C 10.148438 10 10 9.851562 10 9.667969 L 10 8.332031 C 10 8.148438 10.148438 8 10.332031 8 Z M 10.332031 8 "/>
<path style=" stroke:none;fill-rule:nonzero;fill:rgb(0%,80.000001%,100%);fill-opacity:1;" d="M 13.332031 4 L 8 4 L 6.667969 2.667969 L 2.667969 2.667969 C 1.933594 2.667969 1.339844 3.265625 1.339844 4 L 1.332031 12 C 1.332031 12.734375 1.933594 13.332031 2.667969 13.332031 L 13.332031 13.332031 C 14.066406 13.332031 14.667969 12.734375 14.667969 12 L 14.667969 5.332031 C 14.667969 4.601562 14.066406 4 13.332031 4 Z M 13.332031 12 L 2.667969 12 L 2.667969 5.332031 L 13.332031 5.332031 Z M 13.332031 12 "/>
</g>
</svg>
