<svg xmlns="http://www.w3.org/2000/svg" xmlns:xlink="http://www.w3.org/1999/xlink" width="16" height="16" viewBox="0 0 16 16" version="1.1">
<g id="surface1">
<path style=" stroke:none;fill-rule:nonzero;fill:rgb(100%,30.980393%,30.980393%);fill-opacity:1;" d="M 14.386719 10.726562 L 13.660156 5.621094 C 13.472656 4.308594 12.347656 3.332031 11.019531 3.332031 L 4.980469 3.332031 C 3.652344 3.332031 2.527344 4.308594 2.339844 5.621094 L 1.613281 10.726562 C 1.464844 11.753906 2.261719 12.667969 3.292969 12.667969 C 3.746094 12.667969 4.171875 12.488281 4.492188 12.167969 L 6 10.667969 L 10 10.667969 L 11.5 12.167969 C 11.820312 12.488281 12.253906 12.667969 12.699219 12.667969 C 13.738281 12.667969 14.535156 11.753906 14.386719 10.726562 Z M 12.988281 11.207031 C 12.933594 11.265625 12.847656 11.332031 12.707031 11.332031 C 12.605469 11.332031 12.511719 11.292969 12.445312 11.226562 L 10.554688 9.332031 L 5.445312 9.332031 L 3.554688 11.226562 C 3.488281 11.292969 3.394531 11.332031 3.292969 11.332031 C 3.152344 11.332031 3.066406 11.265625 3.011719 11.207031 C 2.960938 11.148438 2.90625 11.054688 2.925781 10.914062 L 3.652344 5.808594 C 3.753906 5.160156 4.320312 4.667969 4.980469 4.667969 L 11.019531 4.667969 C 11.679688 4.667969 12.246094 5.160156 12.339844 5.8125 L 13.066406 10.921875 C 13.085938 11.054688 13.035156 11.148438 12.988281 11.207031 Z M 12.988281 11.207031 "/>
<path style=" stroke:none;fill-rule:nonzero;fill:rgb(100%,30.980393%,30.980393%);fill-opacity:1;" d="M 6 5.332031 L 5.332031 5.332031 L 5.332031 6.667969 L 4 6.667969 L 4 7.332031 L 5.332031 7.332031 L 5.332031 8.667969 L 6 8.667969 L 6 7.332031 L 7.332031 7.332031 L 7.332031 6.667969 L 6 6.667969 Z M 6 5.332031 "/>
<path style=" stroke:none;fill-rule:nonzero;fill:rgb(100%,30.980393%,30.980393%);fill-opacity:1;" d="M 11.332031 8.667969 C 11.703125 8.667969 12 8.367188 12 8 C 12 7.632812 11.703125 7.332031 11.332031 7.332031 C 10.964844 7.332031 10.667969 7.632812 10.667969 8 C 10.667969 8.367188 10.964844 8.667969 11.332031 8.667969 Z M 11.332031 8.667969 "/>
<path style=" stroke:none;fill-rule:nonzero;fill:rgb(100%,30.980393%,30.980393%);fill-opacity:1;" d="M 10 6.667969 C 10.367188 6.667969 10.667969 6.367188 10.667969 6 C 10.667969 5.632812 10.367188 5.332031 10 5.332031 C 9.632812 5.332031 9.332031 5.632812 9.332031 6 C 9.332031 6.367188 9.632812 6.667969 10 6.667969 Z M 10 6.667969 "/>
</g>
</svg>
