<svg xmlns="http://www.w3.org/2000/svg" xmlns:xlink="http://www.w3.org/1999/xlink" width="16" height="16" viewBox="0 0 16 16" version="1.1">
<g id="surface1">
<path style=" stroke:none;fill-rule:nonzero;fill:rgb(0%,100%,66.666669%);fill-opacity:1;" d="M 3.832031 3.332031 C 3.554688 3.332031 3.332031 3.554688 3.332031 3.832031 L 3.332031 9.5 C 3.332031 9.777344 3.554688 10 3.832031 10 L 9.5 10 C 9.777344 10 10 9.777344 10 9.5 L 10 5.167969 C 10 4.890625 9.777344 4.667969 9.5 4.667969 L 7.332031 4.667969 L 6 3.332031 Z M 3.832031 3.332031 "/>
<path style=" stroke:none;fill-rule:nonzero;fill:rgb(0%,100%,66.666669%);fill-opacity:1;" d="M 10.667969 7.332031 L 10.667969 10.167969 C 10.667969 10.441406 10.441406 10.667969 10.167969 10.667969 L 6 10.667969 L 6 12.167969 C 6 12.441406 6.222656 12.667969 6.5 12.667969 L 12.167969 12.667969 C 12.441406 12.667969 12.667969 12.441406 12.667969 12.167969 L 12.667969 7.832031 C 12.667969 7.554688 12.441406 7.332031 12.167969 7.332031 Z M 10.667969 7.332031 "/>
</g>
</svg>
