<svg xmlns="http://www.w3.org/2000/svg" xmlns:xlink="http://www.w3.org/1999/xlink" width="16" height="16" viewBox="0 0 16 16" version="1.1">
<g id="surface1">
<path style=" stroke:none;fill-rule:nonzero;fill:rgb(100%,30.980393%,30.980393%);fill-opacity:1;" d="M 5.941406 2.667969 L 2.667969 12 L 3.773438 12 L 4.855469 9.042969 L 8.476562 9.042969 L 8.910156 10.226562 C 9.082031 9.847656 9.339844 9.515625 9.660156 9.257812 L 7.394531 2.667969 Z M 6.675781 3.957031 L 8.128906 8.1875 L 5.203125 8.1875 Z M 6.675781 3.957031 "/>
<path style=" stroke:none;fill-rule:nonzero;fill:rgb(85.490197%,26.666668%,32.549021%);fill-opacity:1;" d="M 13.332031 11.332031 C 13.332031 10.226562 12.441406 9.332031 11.332031 9.332031 C 10.226562 9.332031 9.332031 10.226562 9.332031 11.332031 C 9.332031 12.441406 10.226562 13.332031 11.332031 13.332031 C 12.441406 13.332031 13.332031 12.441406 13.332031 11.332031 Z M 12.667969 11.332031 C 12.667969 11.582031 12.597656 11.808594 12.480469 12.007812 L 10.660156 10.1875 C 10.855469 10.070312 11.085938 10 11.332031 10 C 12.070312 10 12.667969 10.59375 12.667969 11.332031 Z M 12.007812 12.480469 C 11.808594 12.597656 11.582031 12.667969 11.332031 12.667969 C 10.59375 12.667969 10 12.070312 10 11.332031 C 10 11.085938 10.070312 10.855469 10.1875 10.660156 Z M 12.007812 12.480469 "/>
</g>
</svg>
