<svg xmlns="http://www.w3.org/2000/svg" xmlns:xlink="http://www.w3.org/1999/xlink" width="16" height="16" viewBox="0 0 16 16" version="1.1">
<g id="surface1">
<path style=" stroke:none;fill-rule:nonzero;fill:rgb(100%,30.980393%,30.980393%);fill-opacity:1;" d="M 5.667969 4 L 4 6 L 7.332031 6 Z M 8.667969 6 L 8.667969 12 L 9.332031 12 L 9.332031 11.488281 C 9.699219 11.816406 10.175781 12 10.667969 12 C 11.769531 12 12.667969 11.105469 12.667969 10 C 12.667969 8.894531 11.769531 8 10.667969 8 C 10.175781 8 9.699219 8.183594 9.332031 8.511719 L 9.332031 6 Z M 5.257812 6.667969 L 3.332031 12 L 4.109375 12 L 4.773438 10.476562 L 6.625 10.476562 L 7.222656 12 L 8 12 L 6.238281 6.667969 Z M 5.746094 7.492188 L 6.476562 9.714844 L 4.941406 9.714844 Z M 10.667969 8.667969 C 11.402344 8.667969 12 9.261719 12 10 C 12 10.738281 11.402344 11.332031 10.667969 11.332031 C 9.929688 11.332031 9.332031 10.738281 9.332031 10 C 9.332031 9.261719 9.929688 8.667969 10.667969 8.667969 Z M 10.667969 8.667969 "/>
</g>
</svg>
