<svg xmlns="http://www.w3.org/2000/svg" xmlns:xlink="http://www.w3.org/1999/xlink" width="16" height="16" viewBox="0 0 16 16" version="1.1">
<g id="surface1">
<path style=" stroke:none;fill-rule:nonzero;fill:rgb(67.058825%,40.000001%,100%);fill-opacity:1;" d="M 5.332031 4 L 5.332031 5.332031 L 9.332031 5.332031 C 9.617188 5.332031 10 5.742188 10 6 L 10 6.667969 L 6.667969 6.667969 C 6.054688 6.667969 5.507812 6.921875 5.167969 7.3125 C 4.824219 7.703125 4.664062 8.1875 4.667969 8.667969 C 4.671875 9.148438 4.847656 9.636719 5.1875 10.019531 C 5.527344 10.40625 6.0625 10.667969 6.667969 10.667969 L 11.332031 10.667969 L 11.332031 10.105469 C 11.34375 10.042969 11.332031 10 11.332031 10 L 11.332031 6 C 11.332031 4.910156 10.453125 4 9.332031 4 Z M 6.667969 8 L 10 8 L 10 9.332031 L 6.667969 9.332031 C 6.402344 9.332031 6.289062 9.261719 6.1875 9.144531 C 6.085938 9.03125 6 8.851562 6 8.667969 C 6 8.480469 6.070312 8.296875 6.167969 8.1875 C 6.261719 8.078125 6.386719 8 6.667969 8 Z M 4 11.332031 L 4 12.667969 L 12 12.667969 L 12 11.332031 Z M 4 11.332031 "/>
</g>
</svg>
