<svg xmlns="http://www.w3.org/2000/svg" xmlns:xlink="http://www.w3.org/1999/xlink" width="16" height="16" viewBox="0 0 16 16" version="1.1">
<g id="surface1">
<path style=" stroke:none;fill-rule:nonzero;fill:rgb(0%,100%,66.666669%);fill-opacity:1;" d="M 10.144531 4 L 8.476562 6 L 11.808594 6 Z M 5.21875 6.667969 L 3.332031 12 L 4.09375 12 L 4.746094 10.476562 L 6.558594 10.476562 L 7.144531 12 L 7.90625 12 L 6.175781 6.667969 Z M 8.476562 6.667969 L 8.476562 12 L 11.144531 12 C 11.984375 12 12.667969 11.316406 12.667969 10.476562 C 12.664062 9.828125 12.253906 9.253906 11.644531 9.039062 C 11.8125 8.789062 11.90625 8.492188 11.90625 8.191406 C 11.90625 7.347656 11.222656 6.667969 10.382812 6.667969 Z M 9.238281 7.429688 L 10.382812 7.429688 C 10.800781 7.429688 11.144531 7.769531 11.144531 8.191406 C 11.144531 8.609375 10.800781 8.953125 10.382812 8.953125 L 9.238281 8.953125 Z M 5.699219 7.492188 L 6.414062 9.714844 L 4.910156 9.714844 Z M 9.238281 9.714844 L 11.144531 9.714844 C 11.5625 9.714844 11.90625 10.054688 11.90625 10.476562 C 11.90625 10.898438 11.5625 11.238281 11.144531 11.238281 L 9.238281 11.238281 Z M 9.238281 9.714844 "/>
</g>
</svg>
