<svg xmlns="http://www.w3.org/2000/svg" xmlns:xlink="http://www.w3.org/1999/xlink" width="16" height="16" viewBox="0 0 16 16" version="1.1">
<g id="surface1">
<path style=" stroke:none;fill-rule:nonzero;fill:rgb(0%,80.000001%,100%);fill-opacity:1;" d="M 10 2.667969 L 10 6.667969 L 12 6.667969 C 12.738281 6.667969 13.332031 6.070312 13.332031 5.332031 C 13.332031 4.792969 13.011719 4.332031 12.550781 4.121094 C 12.621094 3.984375 12.667969 3.832031 12.667969 3.667969 C 12.667969 3.113281 12.21875 2.667969 11.667969 2.667969 Z M 7.332031 3.332031 L 4 12.667969 L 5.667969 12.667969 L 6.375 10.667969 L 9.625 10.667969 L 10.332031 12.667969 L 12.1875 12.667969 L 8.667969 3.332031 Z M 10.667969 3.332031 L 11.667969 3.332031 C 11.851562 3.332031 12 3.480469 12 3.667969 C 12 3.851562 11.851562 4 11.667969 4 L 10.667969 4 Z M 10.667969 4.667969 L 12 4.667969 C 12.371094 4.667969 12.667969 4.964844 12.667969 5.332031 C 12.667969 5.703125 12.371094 6 12 6 L 10.667969 6 Z M 8 6 L 9.167969 9.332031 L 6.832031 9.332031 Z M 8 6 "/>
</g>
</svg>
