<svg xmlns="http://www.w3.org/2000/svg" xmlns:xlink="http://www.w3.org/1999/xlink" width="16" height="16" viewBox="0 0 16 16" version="1.1">
<g id="surface1">
<path style=" stroke:none;fill-rule:nonzero;fill:rgb(100%,74.901962%,0%);fill-opacity:1;" d="M 8.765625 3.332031 C 8.464844 3.332031 8.199219 3.535156 8.121094 3.828125 L 6.859375 8.542969 L 6.351562 7.667969 C 6.234375 7.460938 6.015625 7.332031 5.777344 7.332031 L 4 7.332031 C 3.632812 7.332031 3.335938 7.632812 3.335938 8 L 3.335938 8.667969 C 3.335938 9.035156 3.632812 9.332031 4 9.332031 L 5.003906 9.332031 L 6.738281 12.332031 C 6.871094 12.566406 7.136719 12.695312 7.402344 12.660156 C 7.667969 12.625 7.890625 12.433594 7.960938 12.171875 L 9.792969 5.332031 L 12 5.332031 C 12.371094 5.332031 12.667969 5.035156 12.667969 4.667969 L 12.667969 4 C 12.667969 3.632812 12.371094 3.332031 12 3.332031 Z M 8.765625 3.332031 "/>
</g>
</svg>
