<svg xmlns="http://www.w3.org/2000/svg" xmlns:xlink="http://www.w3.org/1999/xlink" width="16" height="16" viewBox="0 0 16 16" version="1.1">
<g id="surface1">
<path style=" stroke:none;fill-rule:nonzero;fill:rgb(67.058825%,40.000001%,100%);fill-opacity:1;" d="M 10.363281 4.667969 L 8.667969 9.332031 L 9.332031 9.332031 L 9.820312 8 L 11.515625 8 L 12 9.332031 L 12.667969 9.332031 L 10.96875 4.667969 Z M 10.667969 5.667969 L 11.273438 7.332031 L 10.0625 7.332031 Z M 8.667969 4.667969 L 8.667969 5.332031 L 6 5.332031 L 6 4.667969 Z M 4.667969 4.667969 L 4.667969 7.332031 L 2.667969 6 Z M 8 6.667969 L 8 7.332031 L 6 7.332031 L 6 6.667969 Z M 7.332031 8.667969 L 7.332031 9.332031 L 6 9.332031 L 6 8.667969 Z M 4.667969 8.667969 L 4.667969 11.332031 L 2.667969 10 Z M 12.667969 10.667969 L 12.667969 11.332031 L 6 11.332031 L 6 10.667969 Z M 12.667969 10.667969 "/>
</g>
</svg>
