<svg xmlns="http://www.w3.org/2000/svg" xmlns:xlink="http://www.w3.org/1999/xlink" width="16" height="16" viewBox="0 0 16 16" version="1.1">
<g id="surface1">
<path style=" stroke:none;fill-rule:nonzero;fill:rgb(0%,80.000001%,100%);fill-opacity:1;" d="M 6.667969 2.667969 L 6.667969 4 L 10.667969 4 C 10.953125 4 11.332031 4.410156 11.332031 4.667969 L 11.332031 5.332031 L 8 5.332031 C 7.386719 5.332031 6.84375 5.589844 6.5 5.980469 C 6.15625 6.367188 5.996094 6.851562 6 7.332031 C 6.003906 7.8125 6.179688 8.300781 6.519531 8.6875 C 6.863281 9.074219 7.394531 9.332031 8 9.332031 L 12.667969 9.332031 L 12.667969 4.667969 C 12.667969 3.578125 11.785156 2.667969 10.667969 2.667969 Z M 8 6.667969 L 11.332031 6.667969 L 11.332031 8 L 8 8 C 7.734375 8 7.621094 7.925781 7.519531 7.8125 C 7.417969 7.699219 7.335938 7.519531 7.332031 7.332031 C 7.332031 7.148438 7.402344 6.964844 7.5 6.855469 C 7.597656 6.742188 7.71875 6.667969 8 6.667969 Z M 5.332031 8.664062 L 2.667969 10.664062 L 5.332031 12.664062 L 5.332031 11.324219 L 12.625 11.324219 L 12.625 9.992188 L 5.332031 9.992188 Z M 5.332031 8.664062 "/>
</g>
</svg>
