<svg xmlns="http://www.w3.org/2000/svg" xmlns:xlink="http://www.w3.org/1999/xlink" width="16" height="16" viewBox="0 0 16 16" version="1.1">
<g id="surface1">
<path style=" stroke:none;fill-rule:nonzero;fill:rgb(96.862745%,0%,100%);fill-opacity:1;" d="M 5.332031 4.667969 L 5.332031 6 L 8.667969 6 C 8.953125 6 9.332031 6.410156 9.332031 6.667969 L 9.332031 7.332031 L 6 7.332031 C 5.386719 7.332031 4.84375 7.589844 4.5 7.980469 C 4.15625 8.367188 3.996094 8.851562 4 9.332031 C 4.003906 9.8125 4.179688 10.300781 4.519531 10.6875 C 4.863281 11.074219 5.394531 11.332031 6 11.332031 L 12 11.332031 L 12 6.667969 C 12 5.578125 11.121094 4.667969 10 4.667969 Z M 7.332031 8.667969 L 9.332031 8.667969 L 9.332031 10 L 7.332031 10 C 7.066406 10 6.957031 9.925781 6.855469 9.8125 C 6.753906 9.699219 6.667969 9.519531 6.667969 9.332031 C 6.664062 9.148438 6.738281 8.964844 6.832031 8.855469 C 6.929688 8.742188 7.050781 8.667969 7.332031 8.667969 Z M 7.332031 8.667969 "/>
</g>
</svg>
