<svg xmlns="http://www.w3.org/2000/svg" xmlns:xlink="http://www.w3.org/1999/xlink" width="16" height="16" viewBox="0 0 16 16" version="1.1">
<g id="surface1">
<path style=" stroke:none;fill-rule:nonzero;fill:rgb(96.862745%,0%,100%);fill-opacity:1;" d="M 5.667969 4.667969 L 5.667969 6 L 9.667969 6 C 9.953125 6 10.0625 6.179688 9.980469 6.480469 L 9.75 7.332031 L 6.25 7.332031 C 5.023438 7.332031 4.167969 8.234375 3.917969 9.167969 C 3.792969 9.632812 3.808594 10.152344 4.082031 10.605469 C 4.359375 11.054688 4.914062 11.332031 5.519531 11.332031 L 9.519531 11.332031 C 10 11.332031 10.167969 10.855469 10.167969 10.855469 L 11.269531 6.855469 C 11.5625 5.808594 10.785156 4.667969 9.667969 4.667969 Z M 6.25 8.667969 L 9.375 8.667969 L 9 10 L 5.519531 10 C 5.253906 10 5.238281 9.945312 5.207031 9.894531 C 5.179688 9.847656 5.15625 9.699219 5.207031 9.5 C 5.316406 9.097656 5.6875 8.667969 6.25 8.667969 Z M 6.25 8.667969 "/>
</g>
</svg>
