<svg xmlns="http://www.w3.org/2000/svg" xmlns:xlink="http://www.w3.org/1999/xlink" width="16" height="16" viewBox="0 0 16 16" version="1.1">
<g id="surface1">
<path style=" stroke:none;fill-rule:nonzero;fill:rgb(96.862745%,0%,100%);fill-opacity:1;" d="M 6.667969 3.332031 L 3.332031 12.667969 L 5 12.667969 L 5.707031 10.667969 L 8.089844 10.667969 C 8.117188 10.617188 8.152344 10.570312 8.195312 10.527344 L 8.667969 10.058594 C 8.925781 9.796875 9.347656 9.796875 9.609375 10.058594 L 10 10.449219 L 10 9.195312 C 10 9.082031 10.03125 8.96875 10.085938 8.867188 L 8 3.332031 Z M 7.332031 6 L 8.5 9.332031 L 6.167969 9.332031 Z M 10.667969 9.195312 L 10.667969 12.058594 L 9.136719 10.527344 L 8.667969 11 L 11 13.332031 L 13.332031 11 L 12.863281 10.527344 L 11.332031 12.058594 L 11.332031 9.195312 Z M 10.667969 9.195312 "/>
</g>
</svg>
