<svg xmlns="http://www.w3.org/2000/svg" xmlns:xlink="http://www.w3.org/1999/xlink" width="16" height="16" viewBox="0 0 16 16" version="1.1">
<g id="surface1">
<path style=" stroke:none;fill-rule:nonzero;fill:rgb(67.058825%,40.000001%,100%);fill-opacity:1;" d="M 4 2.667969 L 4 4 L 8 4 C 8.285156 4 8.667969 4.410156 8.667969 4.667969 L 8.667969 5.332031 L 5.332031 5.332031 C 4.71875 5.332031 4.175781 5.589844 3.832031 5.980469 C 3.492188 6.367188 3.328125 6.851562 3.332031 7.332031 C 3.335938 7.8125 3.511719 8.300781 3.855469 8.6875 C 4.195312 9.074219 4.726562 9.332031 5.332031 9.332031 L 10 9.332031 L 10 4.667969 C 10 3.578125 9.121094 2.667969 8 2.667969 Z M 5.332031 6.667969 L 8.667969 6.667969 L 8.667969 8 L 5.332031 8 C 5.066406 8 4.957031 7.925781 4.855469 7.8125 C 4.753906 7.699219 4.667969 7.519531 4.667969 7.332031 C 4.664062 7.148438 4.738281 6.964844 4.832031 6.855469 C 4.929688 6.742188 5.050781 6.667969 5.332031 6.667969 Z M 10.667969 8.664062 C 10.667969 8.664062 10.667969 9.40625 10.667969 10 L 3.292969 10 L 3.292969 11.332031 L 10.667969 11.332031 C 10.667969 11.925781 10.667969 12.664062 10.667969 12.664062 L 13.332031 10.664062 Z M 10.667969 8.664062 "/>
</g>
</svg>
