<svg xmlns="http://www.w3.org/2000/svg" xmlns:xlink="http://www.w3.org/1999/xlink" width="16" height="16" viewBox="0 0 16 16" version="1.1">
<g id="surface1">
<path style=" stroke:none;fill-rule:nonzero;fill:rgb(0%,80.000001%,100%);fill-opacity:1;" d="M 3.332031 3.320312 L 3.332031 6.652344 L 6.667969 6.652344 L 6.667969 5.320312 L 9.332031 5.320312 L 9.332031 6.652344 L 12.667969 6.652344 L 12.667969 3.320312 L 9.332031 3.320312 L 9.332031 4.652344 L 6.667969 4.652344 L 6.667969 3.320312 Z M 6.667969 7.320312 L 8 9.320312 L 9.332031 7.320312 Z M 3.332031 9.320312 L 3.332031 12.652344 L 6.667969 12.652344 L 6.667969 11.320312 L 7.332031 11.320312 L 7.332031 10.652344 L 6.667969 10.652344 L 6.667969 9.320312 Z M 9.332031 9.320312 L 9.332031 10.652344 L 8.667969 10.652344 L 8.667969 11.320312 L 9.332031 11.320312 L 9.332031 12.652344 L 12.667969 12.652344 L 12.667969 9.320312 Z M 9.332031 9.320312 "/>
</g>
</svg>
