<svg xmlns="http://www.w3.org/2000/svg" xmlns:xlink="http://www.w3.org/1999/xlink" width="16" height="16" viewBox="0 0 16 16" version="1.1">
<g id="surface1">
<path style=" stroke:none;fill-rule:nonzero;fill:rgb(0%,80.000001%,100%);fill-opacity:1;" d="M 4.667969 2.667969 L 4.667969 7.332031 C 4.667969 9.179688 6.152344 10.667969 8 10.667969 C 9.847656 10.667969 11.332031 9.179688 11.332031 7.332031 L 11.332031 2.667969 L 10 2.667969 L 10 8 C 10 8.738281 9.40625 9.332031 8.667969 9.332031 C 7.929688 9.332031 7.332031 8.738281 7.332031 8 L 7.332031 2.667969 Z M 4.667969 2.667969 "/>
<path style=" stroke:none;fill-rule:evenodd;fill:rgb(0%,80.000001%,100%);fill-opacity:1;" d="M 5.230469 11.332031 C 4.660156 11.328125 4.292969 11.8125 3.945312 12.195312 C 3.761719 12.359375 3.597656 12.628906 3.332031 12.667969 L 3.332031 13.332031 C 3.933594 13.316406 4.296875 12.78125 4.671875 12.382812 C 4.828125 12.230469 4.988281 12.011719 5.226562 12 C 5.542969 12.101562 5.730469 12.40625 5.953125 12.632812 C 6.28125 13.003906 6.710938 13.429688 7.253906 13.3125 C 7.929688 13.140625 8.222656 12.441406 8.761719 12.0625 C 8.945312 11.914062 9.15625 12.074219 9.289062 12.207031 C 9.714844 12.605469 10.03125 13.171875 10.632812 13.316406 C 11.175781 13.421875 11.589844 12.996094 11.917969 12.628906 C 12.132812 12.402344 12.320312 12.117188 12.625 12.003906 C 12.664062 12.003906 12.667969 12.003906 12.667969 11.695312 L 12.667969 11.332031 C 12.058594 11.351562 11.695312 11.894531 11.316406 12.296875 C 11.160156 12.445312 11.007812 12.660156 10.773438 12.664062 C 10.457031 12.566406 10.269531 12.261719 10.046875 12.035156 C 9.71875 11.660156 9.289062 11.238281 8.746094 11.351562 C 8.070312 11.527344 7.773438 12.226562 7.238281 12.605469 C 7.054688 12.753906 6.84375 12.589844 6.710938 12.457031 C 6.285156 12.0625 5.96875 11.492188 5.367188 11.347656 L 5.273438 11.335938 Z M 5.230469 11.332031 "/>
</g>
</svg>
