<svg xmlns="http://www.w3.org/2000/svg" xmlns:xlink="http://www.w3.org/1999/xlink" width="16" height="16" viewBox="0 0 16 16" version="1.1">
<g id="surface1">
<path style=" stroke:none;fill-rule:nonzero;fill:rgb(100%,74.901962%,0%);fill-opacity:1;" d="M 3.332031 4 L 3.332031 10 L 4 10 L 4 4 Z M 5.332031 4 L 5.332031 10 L 6 10 L 6 4 Z M 8.667969 9.332031 L 8.667969 10 L 9.332031 10 L 9.332031 9.332031 Z M 10.667969 9.332031 L 10.667969 10 L 11.332031 10 L 11.332031 9.332031 Z M 8.667969 10.667969 L 10 12.667969 L 11.332031 10.667969 Z M 3.332031 10.667969 L 4.667969 12.667969 L 6 10.667969 Z M 9.699219 4 L 8 8.667969 L 8.667969 8.667969 L 9.152344 7.332031 L 10.847656 7.332031 L 11.332031 8.667969 L 12 8.667969 L 10.300781 4 Z M 10 5 L 10.605469 6.667969 L 9.394531 6.667969 Z M 10 5 "/>
</g>
</svg>
