<svg xmlns="http://www.w3.org/2000/svg" xmlns:xlink="http://www.w3.org/1999/xlink" width="16" height="16" viewBox="0 0 16 16" version="1.1">
<g id="surface1">
<path style=" stroke:none;fill-rule:nonzero;fill:rgb(0%,80.000001%,100%);fill-opacity:1;" d="M 5.125 4.667969 L 3.332031 9.332031 L 3.894531 9.332031 L 4.457031 7.855469 L 6.3125 7.855469 L 6.855469 9.332031 L 7.417969 9.332031 L 5.6875 4.667969 Z M 7.332031 4.667969 L 7.332031 5.332031 L 10 5.332031 L 10 4.667969 Z M 11.332031 4.667969 L 11.332031 7.332031 L 12.667969 6 Z M 5.394531 5.230469 C 5.441406 5.390625 5.683594 6.109375 6.125 7.394531 L 4.625 7.394531 Z M 8 6.667969 L 8 7.332031 L 10 7.332031 L 10 6.667969 Z M 8.667969 8.667969 L 8.667969 9.332031 L 10 9.332031 L 10 8.667969 Z M 11.332031 8.667969 L 11.332031 11.332031 L 12.667969 10 Z M 3.332031 10.667969 L 3.332031 11.332031 L 10 11.332031 L 10 10.667969 Z M 3.332031 10.667969 "/>
</g>
</svg>
