<svg xmlns="http://www.w3.org/2000/svg" xmlns:xlink="http://www.w3.org/1999/xlink" width="16" height="16" viewBox="0 0 16 16" version="1.1">
<g id="surface1">
<path style=" stroke:none;fill-rule:nonzero;fill:rgb(100%,74.901962%,0%);fill-opacity:1;" d="M 6.667969 6 C 5.929688 6 5.332031 6.597656 5.332031 7.332031 L 5.332031 9.019531 L 5.335938 9.019531 C 5.347656 9.566406 5.789062 10 6.332031 10 C 6.886719 10 7.332031 9.550781 7.332031 9 C 7.332031 8.449219 6.886719 8 6.332031 8 C 6.328125 8 6.320312 8 6.3125 8 L 6 8 L 6 7.332031 C 6 6.964844 6.296875 6.667969 6.667969 6.667969 Z M 9.332031 6 C 8.597656 6 8 6.597656 8 7.332031 L 8 9.019531 C 8.011719 9.566406 8.457031 10 9 10 C 9.550781 10 10 9.550781 10 9 C 10 8.449219 9.550781 8 9 8 C 8.992188 8 8.984375 8 8.980469 8 L 8.667969 8 L 8.667969 7.332031 C 8.667969 6.964844 8.964844 6.667969 9.332031 6.667969 Z M 9.332031 6 "/>
</g>
</svg>
