<svg xmlns="http://www.w3.org/2000/svg" xmlns:xlink="http://www.w3.org/1999/xlink" width="16" height="16" viewBox="0 0 16 16" version="1.1">
<g id="surface1">
<path style=" stroke:none;fill-rule:nonzero;fill:rgb(96.862745%,0%,100%);fill-opacity:1;" d="M 5.332031 4.667969 L 5.332031 6 L 9.332031 6 C 9.617188 6 10 6.410156 10 6.667969 L 11.332031 6.667969 C 11.332031 5.578125 10.453125 4.667969 9.332031 4.667969 Z M 3.332031 7.332031 L 3.332031 8.667969 L 12.667969 8.667969 L 12.667969 7.332031 Z M 4.667969 9.332031 C 4.671875 9.8125 4.847656 10.300781 5.1875 10.6875 C 5.527344 11.074219 6.0625 11.332031 6.667969 11.332031 L 11.332031 11.332031 L 11.332031 10.769531 C 11.34375 10.707031 11.332031 10.667969 11.332031 10.667969 L 11.332031 9.332031 L 10 9.332031 L 10 10 L 6.667969 10 C 6.402344 10 6.289062 9.925781 6.1875 9.8125 C 6.085938 9.699219 6 9.519531 6 9.332031 Z M 4.667969 9.332031 "/>
</g>
</svg>
