<svg xmlns="http://www.w3.org/2000/svg" xmlns:xlink="http://www.w3.org/1999/xlink" width="16" height="16" viewBox="0 0 16 16" version="1.1">
<g id="surface1">
<path style=" stroke:none;fill-rule:nonzero;fill:rgb(0%,80.000001%,100%);fill-opacity:1;" d="M 9.332031 4 L 11 6 L 12.667969 4 Z M 8.667969 4.667969 L 8.667969 12 L 9.332031 12 L 9.332031 11.488281 C 9.699219 11.816406 10.175781 12 10.667969 12 C 11.769531 12 12.667969 11.105469 12.667969 10 C 12.667969 8.894531 11.769531 8 10.667969 8 C 10.175781 8 9.699219 8.183594 9.332031 8.511719 L 9.332031 4.667969 Z M 5.332031 8 C 4.230469 8 3.332031 8.894531 3.332031 10 C 3.332031 11.105469 4.230469 12 5.332031 12 C 5.824219 12 6.300781 11.816406 6.667969 11.488281 L 6.667969 12 L 7.332031 12 L 7.332031 8 L 6.667969 8 L 6.667969 8.511719 C 6.300781 8.183594 5.824219 8 5.332031 8 Z M 5.332031 8.667969 C 6.070312 8.667969 6.667969 9.261719 6.667969 10 C 6.667969 10.738281 6.070312 11.332031 5.332031 11.332031 C 4.597656 11.332031 4 10.738281 4 10 C 4 9.261719 4.597656 8.667969 5.332031 8.667969 Z M 10.667969 8.667969 C 11.402344 8.667969 12 9.261719 12 10 C 12 10.738281 11.402344 11.332031 10.667969 11.332031 C 9.929688 11.332031 9.332031 10.738281 9.332031 10 C 9.332031 9.261719 9.929688 8.667969 10.667969 8.667969 Z M 10.667969 8.667969 "/>
</g>
</svg>
