<svg xmlns="http://www.w3.org/2000/svg" xmlns:xlink="http://www.w3.org/1999/xlink" width="16" height="16" viewBox="0 0 16 16" version="1.1">
<g id="surface1">
<path style=" stroke:none;fill-rule:nonzero;fill:rgb(100%,74.901962%,0%);fill-opacity:1;" d="M 5.667969 2.667969 C 4.378906 2.667969 3.332031 3.859375 3.332031 5.332031 L 3.332031 7.332031 C 3.332031 8.804688 4.378906 10 5.667969 10 C 6.957031 10 8 8.804688 8 7.332031 L 8 5.332031 C 8 3.859375 6.957031 2.667969 5.667969 2.667969 Z M 11 2.667969 C 9.710938 2.667969 8.667969 3.859375 8.667969 5.332031 L 8.667969 7.332031 C 8.667969 8.804688 9.710938 10 11 10 C 12.289062 10 13.332031 8.804688 13.332031 7.332031 L 13.332031 5.332031 C 13.332031 3.859375 12.289062 2.667969 11 2.667969 Z M 5.667969 4 C 6.21875 4 6.667969 4.695312 6.667969 5.554688 L 6.667969 7.109375 C 6.667969 7.96875 6.21875 8.667969 5.667969 8.667969 C 5.113281 8.667969 4.667969 7.96875 4.667969 7.109375 L 4.667969 5.554688 C 4.667969 4.695312 5.113281 4 5.667969 4 Z M 11 4 C 11.550781 4 12 4.695312 12 5.554688 L 12 7.109375 C 12 7.96875 11.550781 8.667969 11 8.667969 C 10.449219 8.667969 10 7.96875 10 7.109375 L 10 5.554688 C 10 4.695312 10.449219 4 11 4 Z M 2.667969 9.332031 L 2.667969 10 L 3.332031 10 L 3.332031 9.332031 Z M 10.472656 10.503906 L 10 10.976562 L 10.941406 11.917969 L 10 12.863281 L 10.472656 13.332031 L 11.414062 12.390625 L 12.355469 13.332031 L 12.828125 12.863281 L 11.886719 11.917969 L 12.828125 10.976562 L 12.355469 10.503906 L 11.414062 11.449219 Z M 10.472656 10.503906 "/>
</g>
</svg>
