<svg xmlns="http://www.w3.org/2000/svg" xmlns:xlink="http://www.w3.org/1999/xlink" width="16" height="16" viewBox="0 0 16 16" version="1.1">
<g id="surface1">
<path style=" stroke:none;fill-rule:nonzero;fill:rgb(0%,100%,66.666669%);fill-opacity:1;" d="M 4.226562 3.292969 L 3.289062 4.230469 L 6.417969 7.359375 C 5.910156 7.417969 5.460938 7.644531 5.164062 7.980469 C 4.820312 8.367188 4.660156 8.851562 4.664062 9.332031 C 4.667969 9.8125 4.84375 10.300781 5.183594 10.6875 C 5.527344 11.074219 6.058594 11.332031 6.664062 11.332031 L 10.394531 11.332031 L 11.769531 12.707031 L 12.707031 11.769531 Z M 6.933594 4.667969 L 8.269531 6 L 9.332031 6 C 9.617188 6 9.996094 6.410156 9.996094 6.667969 L 9.996094 7.332031 L 9.601562 7.332031 L 11.332031 9.0625 L 11.332031 6.667969 C 11.332031 5.578125 10.449219 4.667969 9.332031 4.667969 Z M 6.664062 8.667969 L 7.726562 8.667969 L 9.058594 10 L 6.664062 10 C 6.398438 10 6.285156 9.925781 6.183594 9.8125 C 6.082031 9.699219 6 9.519531 5.996094 9.332031 C 5.996094 9.148438 6.066406 8.964844 6.164062 8.855469 C 6.261719 8.742188 6.382812 8.667969 6.664062 8.667969 Z M 6.664062 8.667969 "/>
</g>
</svg>
