<svg xmlns="http://www.w3.org/2000/svg" xmlns:xlink="http://www.w3.org/1999/xlink" width="16" height="16" viewBox="0 0 16 16" version="1.1">
<g id="surface1">
<path style=" stroke:none;fill-rule:nonzero;fill:rgb(100%,74.901962%,0%);fill-opacity:1;" d="M 6.667969 2.691406 L 6.667969 3.449219 C 6.015625 3.542969 5.460938 3.710938 5.023438 3.980469 C 4.351562 4.390625 4.015625 5.019531 4.015625 5.867188 C 4.011719 7.332031 5.050781 7.8125 6.667969 8.257812 L 6.667969 11.585938 C 5.886719 11.519531 5.171875 11.371094 4.414062 11.046875 L 4 11.953125 C 4.375 12.152344 4.886719 12.328125 5.527344 12.476562 C 5.890625 12.558594 6.265625 12.609375 6.667969 12.644531 L 6.667969 13.359375 L 7.332031 13.359375 L 7.332031 12.679688 C 7.445312 12.679688 7.542969 12.691406 7.664062 12.691406 C 7.773438 12.691406 7.886719 12.683594 8 12.679688 L 8 13.359375 L 8.667969 13.359375 L 8.667969 12.613281 C 9.996094 12.421875 11.320312 11.8125 11.304688 10.15625 C 11.257812 8.933594 10.503906 8.484375 8.667969 7.835938 L 8.667969 4.535156 C 9.269531 4.617188 10 4.785156 10.816406 5.191406 L 11.332031 4.160156 C 10.964844 3.964844 10.113281 3.652344 9.570312 3.535156 C 9.28125 3.472656 8.976562 3.429688 8.667969 3.402344 L 8.667969 2.691406 L 8 2.691406 L 8 3.367188 C 7.9375 3.367188 7.882812 3.359375 7.820312 3.359375 C 7.648438 3.359375 7.492188 3.371094 7.332031 3.382812 L 7.332031 2.691406 Z M 7.625 4.457031 C 7.726562 4.457031 7.867188 4.464844 8 4.46875 L 8 7.605469 C 7.894531 7.570312 7.832031 7.542969 7.71875 7.507812 C 7.597656 7.476562 7.460938 7.433594 7.332031 7.398438 L 7.332031 4.46875 C 7.429688 4.464844 7.527344 4.460938 7.625 4.460938 Z M 6.667969 4.53125 L 6.667969 7.199219 C 5.847656 6.910156 5.09375 6.46875 5.117188 5.738281 C 5.078125 5.042969 5.785156 4.675781 6.667969 4.53125 Z M 7.332031 8.433594 C 7.457031 8.464844 7.554688 8.496094 7.679688 8.527344 C 7.789062 8.558594 7.894531 8.59375 8 8.625 L 8 11.621094 C 7.898438 11.621094 7.792969 11.632812 7.699219 11.632812 C 7.570312 11.628906 7.457031 11.621094 7.332031 11.617188 Z M 8.667969 8.832031 C 9.519531 9.132812 10.214844 9.523438 10.199219 10.210938 C 10.171875 11.140625 9.441406 11.464844 8.667969 11.574219 Z M 8.667969 8.832031 "/>
</g>
</svg>
