<svg xmlns="http://www.w3.org/2000/svg" xmlns:xlink="http://www.w3.org/1999/xlink" width="16" height="16" viewBox="0 0 16 16" version="1.1">
<g id="surface1">
<path style=" stroke:none;fill-rule:nonzero;fill:rgb(0%,100%,66.666669%);fill-opacity:1;" d="M 5.667969 2.667969 C 4.121094 2.667969 3.765625 4.371094 3.6875 6.667969 L 2.667969 6.667969 L 2.667969 9.332031 L 5.332031 9.332031 L 5.332031 6.667969 L 4.367188 6.667969 C 4.4375 4.753906 4.714844 3.332031 5.667969 3.332031 C 6.796875 3.332031 7.410156 4.742188 7.597656 6.667969 L 6.667969 6.667969 L 6.667969 9.332031 L 7.765625 9.332031 C 8.050781 11.65625 8.875 13.332031 10.332031 13.332031 C 12 13.332031 12.125 11.640625 12.285156 9.332031 L 13.332031 9.332031 L 13.332031 6.667969 L 10.667969 6.667969 L 10.667969 9.332031 L 11.617188 9.332031 C 11.480469 11.265625 11.378906 12.667969 10.332031 12.667969 C 9.214844 12.664062 8.660156 11.28125 8.429688 9.332031 L 9.332031 9.332031 L 9.332031 6.667969 L 8.257812 6.667969 C 8.015625 4.371094 7.140625 2.667969 5.667969 2.667969 Z M 5.667969 2.667969 "/>
</g>
</svg>
