<svg xmlns="http://www.w3.org/2000/svg" xmlns:xlink="http://www.w3.org/1999/xlink" width="16" height="16" viewBox="0 0 16 16" version="1.1">
<g id="surface1">
<path style=" stroke:none;fill-rule:nonzero;fill:rgb(0%,100%,66.666669%);fill-opacity:1;" d="M 2.667969 0.667969 C 1.558594 0.667969 0.667969 1.558594 0.667969 2.667969 L 0.667969 13.332031 C 0.667969 14.441406 1.558594 15.332031 2.667969 15.332031 L 13.332031 15.332031 C 14.441406 15.332031 15.332031 14.441406 15.332031 13.332031 L 15.332031 2.667969 C 15.332031 1.558594 14.441406 0.667969 13.332031 0.667969 Z M 2.667969 1.332031 L 13.332031 1.332031 C 14.070312 1.332031 14.667969 1.929688 14.667969 2.667969 L 14.667969 13.332031 C 14.667969 14.070312 14.070312 14.667969 13.332031 14.667969 L 2.667969 14.667969 C 1.929688 14.667969 1.332031 14.070312 1.332031 13.332031 L 1.332031 2.667969 C 1.332031 1.929688 1.929688 1.332031 2.667969 1.332031 Z M 2.667969 1.332031 "/>
<path style=" stroke:none;fill-rule:nonzero;fill:rgb(0%,100%,66.666669%);fill-opacity:1;" d="M 11.332031 2.667969 C 10.851562 2.667969 10.363281 2.808594 9.980469 3.113281 C 9.597656 3.421875 9.332031 3.90625 9.332031 4.5 L 9.332031 7.167969 C 9.332031 7.351562 9.484375 7.5 9.667969 7.5 C 9.851562 7.5 10 7.351562 10 7.167969 L 10 5.667969 L 12.667969 5.667969 L 12.667969 7.167969 C 12.667969 7.351562 12.816406 7.5 13 7.5 C 13.183594 7.5 13.332031 7.351562 13.332031 7.167969 L 13.332031 4.5 C 13.332031 3.90625 13.070312 3.421875 12.6875 3.113281 C 12.304688 2.808594 11.816406 2.667969 11.332031 2.667969 Z M 11.332031 3.332031 C 11.683594 3.332031 12.027344 3.441406 12.269531 3.636719 C 12.511719 3.828125 12.667969 4.09375 12.667969 4.5 L 12.667969 5 L 10 5 L 10 4.5 C 10 4.09375 10.152344 3.828125 10.394531 3.636719 C 10.636719 3.441406 10.984375 3.332031 11.332031 3.332031 Z M 11.332031 3.332031 "/>
<path style=" stroke:none;fill-rule:nonzero;fill:rgb(0%,100%,66.666669%);fill-opacity:1;" d="M 11.667969 13.332031 L 13.332031 11.332031 L 12 11.332031 L 12 8 L 11.332031 8 L 11.332031 11.332031 L 10 11.332031 Z M 11.667969 13.332031 "/>
<path style=" stroke:none;fill-rule:nonzero;fill:rgb(0%,100%,66.666669%);fill-opacity:1;" d="M 7.667969 13.332031 L 9.332031 11.332031 L 8 11.332031 L 8 2.667969 L 7.332031 2.667969 L 7.332031 11.332031 L 6 11.332031 Z M 7.667969 13.332031 "/>
<path style=" stroke:none;fill-rule:nonzero;fill:rgb(0%,100%,66.666669%);fill-opacity:1;" d="M 3.667969 13.332031 L 5.332031 11.332031 L 4 11.332031 L 4 2.667969 L 3.332031 2.667969 L 3.332031 11.332031 L 2 11.332031 Z M 3.667969 13.332031 "/>
</g>
</svg>
