<svg xmlns="http://www.w3.org/2000/svg" xmlns:xlink="http://www.w3.org/1999/xlink" width="16" height="16" viewBox="0 0 16 16" version="1.1">
<g id="surface1">
<path style=" stroke:none;fill-rule:nonzero;fill:rgb(0%,80.000001%,100%);fill-opacity:1;" d="M 3.332031 3.332031 L 3.332031 12.667969 L 12.667969 12.667969 L 12.667969 3.332031 Z M 4.667969 4.667969 L 11.332031 4.667969 L 11.332031 11.332031 L 4.667969 11.332031 Z M 5.347656 5.332031 C 5.339844 5.332031 5.332031 5.339844 5.332031 5.347656 L 5.332031 5.984375 C 5.332031 5.992188 5.339844 6 5.347656 6 L 10.652344 6 C 10.660156 6 10.667969 5.992188 10.667969 5.984375 L 10.667969 5.347656 C 10.667969 5.339844 10.660156 5.332031 10.652344 5.332031 Z M 5.347656 7.332031 C 5.339844 7.332031 5.332031 7.339844 5.332031 7.347656 L 5.332031 7.984375 C 5.332031 7.992188 5.339844 8 5.347656 8 L 10.652344 8 C 10.660156 8 10.667969 7.992188 10.667969 7.984375 L 10.667969 7.347656 C 10.667969 7.339844 10.660156 7.332031 10.652344 7.332031 Z M 5.347656 9.199219 C 5.339844 9.199219 5.332031 9.207031 5.332031 9.214844 L 5.332031 9.851562 C 5.332031 9.859375 5.339844 9.867188 5.347656 9.867188 L 10.652344 9.867188 C 10.660156 9.867188 10.667969 9.859375 10.667969 9.851562 L 10.667969 9.214844 C 10.667969 9.207031 10.660156 9.199219 10.652344 9.199219 Z M 5.347656 9.199219 "/>
</g>
</svg>
