<svg xmlns="http://www.w3.org/2000/svg" xmlns:xlink="http://www.w3.org/1999/xlink" width="16" height="16" viewBox="0 0 16 16" version="1.1">
<g id="surface1">
<path style=" stroke:none;fill-rule:nonzero;fill:rgb(67.058825%,40.000001%,100%);fill-opacity:1;" d="M 2.667969 3.332031 L 2.667969 12.667969 L 7.332031 12.667969 L 7.332031 12 L 3.332031 12 L 3.332031 4 L 10 4 L 10 6.667969 L 12.667969 6.667969 L 12.667969 8 L 13.332031 8 L 13.332031 6 L 10.667969 3.332031 Z M 10.667969 8 C 9.195312 8 8 9.195312 8 10.667969 C 8 12.140625 9.195312 13.332031 10.667969 13.332031 C 12.140625 13.332031 13.332031 12.140625 13.332031 10.667969 C 13.332031 9.195312 12.140625 8 10.667969 8 Z M 10.667969 8.445312 C 10.742188 8.445312 10.816406 8.449219 10.890625 8.457031 L 10.945312 8.457031 C 10.96875 8.460938 10.992188 8.46875 11.015625 8.472656 C 11.078125 8.480469 11.132812 8.5 11.195312 8.515625 C 11.308594 8.542969 11.421875 8.578125 11.527344 8.625 C 11.585938 8.648438 11.636719 8.679688 11.695312 8.707031 C 11.695312 8.710938 11.695312 8.714844 11.695312 8.722656 C 11.707031 8.726562 11.714844 8.753906 11.734375 8.765625 C 11.742188 8.769531 11.742188 8.773438 11.75 8.777344 C 11.761719 8.785156 11.78125 8.792969 11.777344 8.804688 C 11.773438 8.824219 11.75 8.820312 11.734375 8.832031 C 11.738281 8.859375 11.714844 8.859375 11.707031 8.875 C 11.710938 8.886719 11.734375 8.890625 11.734375 8.902344 C 11.734375 8.917969 11.703125 8.914062 11.707031 8.929688 C 11.730469 8.949219 11.753906 8.933594 11.777344 8.929688 C 11.828125 8.921875 11.871094 8.925781 11.902344 8.902344 C 11.898438 8.878906 11.945312 8.882812 11.945312 8.859375 C 11.957031 8.871094 11.972656 8.878906 11.984375 8.886719 C 11.980469 8.890625 11.976562 8.898438 11.972656 8.902344 C 11.964844 8.90625 11.953125 8.910156 11.945312 8.914062 C 11.929688 8.921875 11.917969 8.933594 11.902344 8.941406 C 11.890625 8.949219 11.871094 8.984375 11.859375 8.984375 C 11.847656 8.984375 11.828125 8.96875 11.820312 8.972656 C 11.804688 8.976562 11.808594 8.992188 11.792969 9 C 11.761719 9.007812 11.703125 8.984375 11.695312 9.027344 C 11.707031 9.050781 11.753906 9.039062 11.777344 9.054688 C 11.792969 9.0625 11.816406 9.09375 11.820312 9.109375 C 11.824219 9.121094 11.824219 9.179688 11.820312 9.191406 C 11.804688 9.226562 11.761719 9.21875 11.722656 9.21875 L 11.695312 9.21875 C 11.625 9.214844 11.558594 9.183594 11.527344 9.234375 C 11.53125 9.273438 11.535156 9.296875 11.527344 9.332031 C 11.519531 9.355469 11.484375 9.378906 11.484375 9.402344 C 11.484375 9.410156 11.511719 9.425781 11.515625 9.441406 C 11.515625 9.449219 11.511719 9.460938 11.515625 9.46875 C 11.527344 9.492188 11.546875 9.464844 11.570312 9.46875 C 11.589844 9.472656 11.609375 9.503906 11.609375 9.523438 C 11.609375 9.539062 11.609375 9.566406 11.597656 9.582031 C 11.578125 9.609375 11.542969 9.605469 11.515625 9.621094 C 11.492188 9.636719 11.488281 9.667969 11.472656 9.691406 C 11.457031 9.71875 11.4375 9.726562 11.445312 9.761719 C 11.425781 9.800781 11.402344 9.824219 11.359375 9.84375 C 11.347656 9.851562 11.328125 9.851562 11.320312 9.859375 C 11.308594 9.863281 11.304688 9.886719 11.292969 9.902344 C 11.277344 9.917969 11.257812 9.929688 11.25 9.941406 C 11.242188 9.953125 11.242188 9.96875 11.234375 9.984375 C 11.226562 10.003906 11.207031 10.007812 11.195312 10.027344 C 11.1875 10.035156 11.1875 10.054688 11.179688 10.066406 C 11.167969 10.09375 11.148438 10.113281 11.152344 10.136719 C 11.15625 10.15625 11.179688 10.160156 11.179688 10.179688 C 11.183594 10.1875 11.167969 10.195312 11.167969 10.207031 C 11.167969 10.222656 11.179688 10.234375 11.179688 10.25 C 11.183594 10.28125 11.160156 10.296875 11.152344 10.316406 C 11.148438 10.328125 11.15625 10.335938 11.152344 10.34375 C 11.148438 10.363281 11.125 10.382812 11.125 10.402344 C 11.125 10.414062 11.152344 10.421875 11.152344 10.441406 C 11.152344 10.457031 11.136719 10.472656 11.140625 10.484375 C 11.144531 10.507812 11.191406 10.535156 11.207031 10.554688 C 11.234375 10.578125 11.265625 10.597656 11.277344 10.625 C 11.285156 10.644531 11.289062 10.691406 11.304688 10.707031 C 11.320312 10.71875 11.34375 10.722656 11.359375 10.734375 C 11.375 10.746094 11.386719 10.75 11.402344 10.761719 C 11.429688 10.78125 11.472656 10.832031 11.515625 10.832031 C 11.535156 10.828125 11.558594 10.808594 11.582031 10.804688 C 11.609375 10.800781 11.640625 10.785156 11.667969 10.789062 C 11.6875 10.792969 11.714844 10.804688 11.734375 10.804688 C 11.757812 10.800781 11.78125 10.796875 11.804688 10.789062 C 11.851562 10.769531 11.921875 10.738281 11.984375 10.746094 C 12.035156 10.753906 12.035156 10.808594 12.070312 10.832031 C 12.109375 10.835938 12.136719 10.824219 12.167969 10.832031 C 12.191406 10.835938 12.21875 10.867188 12.222656 10.886719 C 12.226562 10.90625 12.195312 10.929688 12.195312 10.941406 C 12.1875 10.96875 12.199219 10.996094 12.195312 11.011719 C 12.191406 11.023438 12.179688 11.039062 12.179688 11.054688 C 12.179688 11.066406 12.195312 11.09375 12.207031 11.109375 C 12.222656 11.128906 12.246094 11.144531 12.265625 11.164062 C 12.296875 11.203125 12.3125 11.238281 12.332031 11.289062 C 12.339844 11.300781 12.328125 11.316406 12.332031 11.332031 C 12.324219 11.40625 12.300781 11.457031 12.25 11.539062 C 12.226562 11.566406 12.195312 11.589844 12.195312 11.625 C 12.191406 11.703125 12.238281 11.753906 12.234375 11.832031 C 12.226562 11.9375 12.242188 11.941406 12.234375 12 C 12.269531 12.015625 12.246094 12.074219 12.234375 12.109375 C 12.21875 12.152344 12.203125 12.164062 12.195312 12.191406 C 12.21875 12.203125 12.25 12.199219 12.277344 12.191406 C 12.265625 12.207031 12.25 12.21875 12.234375 12.234375 C 12.136719 12.335938 12.019531 12.433594 11.902344 12.511719 C 11.671875 12.667969 11.417969 12.785156 11.140625 12.84375 C 10.988281 12.878906 10.828125 12.886719 10.667969 12.886719 C 10.582031 12.886719 10.5 12.882812 10.417969 12.875 C 10.351562 12.867188 10.285156 12.859375 10.222656 12.847656 C 10.097656 12.820312 9.976562 12.765625 9.859375 12.722656 C 9.855469 12.714844 9.847656 12.703125 9.847656 12.691406 C 9.871094 12.683594 9.914062 12.726562 9.929688 12.691406 C 9.9375 12.675781 9.917969 12.640625 9.929688 12.625 C 9.9375 12.613281 9.984375 12.613281 10 12.609375 C 10.023438 12.605469 10.058594 12.601562 10.070312 12.597656 C 10.085938 12.585938 10.101562 12.554688 10.097656 12.527344 C 10.097656 12.515625 10.082031 12.511719 10.070312 12.5 C 10.0625 12.488281 10.074219 12.480469 10.070312 12.472656 C 10.058594 12.457031 10.03125 12.453125 10.027344 12.429688 C 10.0625 12.421875 10.109375 12.457031 10.152344 12.445312 C 10.175781 12.4375 10.210938 12.394531 10.222656 12.375 C 10.226562 12.367188 10.21875 12.355469 10.222656 12.347656 C 10.226562 12.339844 10.234375 12.324219 10.238281 12.320312 C 10.238281 12.308594 10.234375 12.3125 10.238281 12.304688 C 10.246094 12.285156 10.265625 12.265625 10.277344 12.25 C 10.289062 12.238281 10.308594 12.222656 10.320312 12.207031 C 10.328125 12.195312 10.328125 12.195312 10.332031 12.179688 C 10.339844 12.140625 10.308594 12.105469 10.320312 12.070312 C 10.328125 12.027344 10.390625 12.003906 10.429688 11.984375 C 10.445312 11.980469 10.460938 11.976562 10.472656 11.972656 C 10.5 11.964844 10.53125 11.953125 10.554688 11.945312 C 10.597656 11.929688 10.605469 11.898438 10.625 11.863281 C 10.636719 11.84375 10.652344 11.820312 10.652344 11.804688 C 10.652344 11.792969 10.648438 11.792969 10.652344 11.777344 C 10.65625 11.765625 10.648438 11.753906 10.652344 11.738281 C 10.65625 11.71875 10.667969 11.675781 10.667969 11.652344 C 10.667969 11.636719 10.652344 11.628906 10.652344 11.613281 C 10.648438 11.554688 10.671875 11.558594 10.695312 11.527344 C 10.703125 11.511719 10.714844 11.484375 10.722656 11.472656 C 10.757812 11.417969 10.824219 11.402344 10.820312 11.320312 C 10.816406 11.292969 10.796875 11.230469 10.777344 11.222656 C 10.765625 11.21875 10.753906 11.214844 10.734375 11.207031 C 10.683594 11.1875 10.636719 11.128906 10.582031 11.125 L 10.554688 11.125 C 10.535156 11.125 10.507812 11.113281 10.484375 11.113281 C 10.46875 11.109375 10.441406 11.117188 10.429688 11.113281 C 10.417969 11.105469 10.414062 11.078125 10.402344 11.070312 C 10.394531 11.0625 10.375 11.0625 10.359375 11.054688 C 10.339844 11.046875 10.332031 11.03125 10.304688 11.027344 C 10.296875 11.027344 10.285156 11.03125 10.277344 11.027344 C 10.261719 11.023438 10.25 11.023438 10.238281 11.015625 C 10.222656 11.003906 10.203125 11 10.195312 10.988281 C 10.210938 10.9375 10.164062 10.933594 10.152344 10.902344 C 10.148438 10.890625 10.15625 10.859375 10.152344 10.847656 C 10.148438 10.832031 10.128906 10.820312 10.113281 10.804688 C 10.078125 10.78125 10.058594 10.769531 10.015625 10.765625 C 9.992188 10.761719 9.96875 10.769531 9.945312 10.765625 C 9.917969 10.761719 9.882812 10.746094 9.863281 10.722656 C 9.84375 10.699219 9.835938 10.679688 9.820312 10.667969 C 9.804688 10.65625 9.789062 10.648438 9.777344 10.640625 C 9.773438 10.636719 9.769531 10.636719 9.765625 10.625 C 9.757812 10.609375 9.738281 10.605469 9.75 10.585938 C 9.730469 10.574219 9.742188 10.601562 9.722656 10.597656 C 9.707031 10.574219 9.691406 10.550781 9.652344 10.554688 C 9.636719 10.558594 9.617188 10.597656 9.597656 10.597656 C 9.582031 10.597656 9.5625 10.558594 9.542969 10.554688 C 9.523438 10.550781 9.5 10.574219 9.488281 10.570312 C 9.46875 10.566406 9.460938 10.554688 9.445312 10.542969 C 9.433594 10.535156 9.410156 10.515625 9.402344 10.515625 C 9.382812 10.515625 9.363281 10.558594 9.332031 10.542969 C 9.316406 10.523438 9.367188 10.519531 9.347656 10.5 C 9.335938 10.488281 9.332031 10.507812 9.320312 10.515625 C 9.308594 10.523438 9.292969 10.523438 9.277344 10.527344 C 9.246094 10.539062 9.21875 10.542969 9.195312 10.554688 C 9.171875 10.566406 9.167969 10.574219 9.152344 10.597656 C 9.144531 10.617188 9.128906 10.652344 9.113281 10.652344 C 9.09375 10.652344 9.085938 10.632812 9.070312 10.625 C 9.019531 10.605469 8.988281 10.636719 8.945312 10.640625 C 8.90625 10.640625 8.847656 10.578125 8.847656 10.542969 C 8.847656 10.519531 8.859375 10.488281 8.863281 10.457031 C 8.863281 10.4375 8.890625 10.410156 8.890625 10.390625 C 8.890625 10.363281 8.839844 10.351562 8.820312 10.347656 C 8.777344 10.339844 8.730469 10.367188 8.679688 10.347656 C 8.671875 10.332031 8.691406 10.320312 8.695312 10.304688 C 8.699219 10.296875 8.691406 10.289062 8.695312 10.277344 C 8.699219 10.265625 8.730469 10.253906 8.738281 10.238281 C 8.742188 10.226562 8.730469 10.210938 8.738281 10.195312 C 8.742188 10.179688 8.761719 10.164062 8.765625 10.152344 C 8.765625 10.136719 8.75 10.121094 8.738281 10.109375 C 8.699219 10.113281 8.675781 10.117188 8.652344 10.125 C 8.605469 10.148438 8.617188 10.207031 8.570312 10.222656 C 8.554688 10.226562 8.53125 10.234375 8.515625 10.234375 C 8.507812 10.238281 8.496094 10.234375 8.488281 10.234375 C 8.488281 10.230469 8.484375 10.226562 8.488281 10.222656 C 8.488281 10.210938 8.496094 10.207031 8.5 10.195312 C 8.53125 10.050781 8.582031 9.910156 8.640625 9.777344 L 8.652344 9.777344 C 8.671875 9.78125 8.679688 9.804688 8.695312 9.804688 C 8.734375 9.808594 8.746094 9.769531 8.777344 9.75 C 8.8125 9.753906 8.832031 9.746094 8.863281 9.75 C 8.882812 9.753906 8.914062 9.777344 8.929688 9.777344 C 8.945312 9.777344 8.945312 9.761719 8.957031 9.765625 C 8.972656 9.769531 8.996094 9.789062 9 9.804688 C 9.003906 9.824219 8.980469 9.851562 8.988281 9.875 C 9.007812 9.894531 9.054688 9.902344 9.082031 9.917969 C 9.101562 9.898438 9.085938 9.871094 9.082031 9.847656 C 9.082031 9.835938 9.085938 9.816406 9.082031 9.804688 C 9.082031 9.789062 9.070312 9.777344 9.070312 9.765625 C 9.070312 9.699219 9.125 9.675781 9.167969 9.652344 C 9.183594 9.640625 9.207031 9.617188 9.222656 9.609375 C 9.246094 9.597656 9.261719 9.605469 9.277344 9.597656 C 9.3125 9.578125 9.335938 9.550781 9.363281 9.527344 C 9.375 9.5 9.359375 9.460938 9.363281 9.429688 C 9.375 9.421875 9.390625 9.429688 9.402344 9.429688 C 9.425781 9.425781 9.433594 9.402344 9.445312 9.390625 C 9.453125 9.382812 9.464844 9.382812 9.472656 9.375 C 9.492188 9.359375 9.496094 9.339844 9.515625 9.332031 C 9.519531 9.328125 9.53125 9.320312 9.542969 9.320312 C 9.554688 9.316406 9.578125 9.3125 9.597656 9.304688 C 9.613281 9.300781 9.648438 9.296875 9.652344 9.292969 C 9.660156 9.285156 9.652344 9.261719 9.652344 9.25 C 9.664062 9.199219 9.734375 9.199219 9.777344 9.179688 C 9.808594 9.167969 9.839844 9.132812 9.875 9.140625 C 9.867188 9.164062 9.84375 9.164062 9.847656 9.195312 C 9.855469 9.234375 9.902344 9.1875 9.917969 9.179688 C 9.945312 9.167969 9.992188 9.152344 10.027344 9.140625 C 10.058594 9.128906 10.113281 9.121094 10.082031 9.082031 C 10.058594 9.078125 10.050781 9.101562 10.027344 9.109375 C 10.015625 9.113281 10.011719 9.097656 10 9.097656 C 9.988281 9.097656 9.984375 9.113281 9.972656 9.109375 C 9.960938 9.105469 9.945312 9.082031 9.945312 9.070312 C 9.941406 9.03125 9.972656 9.027344 9.988281 9 C 9.976562 8.964844 9.933594 8.984375 9.902344 8.972656 C 9.90625 8.953125 9.921875 8.933594 9.945312 8.929688 C 9.964844 8.925781 10.015625 8.933594 10.027344 8.945312 C 10.035156 8.949219 10.019531 8.960938 10.027344 8.972656 C 10.039062 8.980469 10.054688 8.976562 10.070312 8.972656 C 10.074219 8.945312 10.039062 8.960938 10.042969 8.945312 C 10.070312 8.925781 10.128906 8.933594 10.167969 8.929688 C 10.1875 8.925781 10.21875 8.914062 10.238281 8.902344 C 10.253906 8.890625 10.261719 8.871094 10.277344 8.890625 C 10.285156 8.90625 10.273438 8.921875 10.265625 8.929688 C 10.230469 8.960938 10.191406 8.992188 10.167969 9.027344 C 10.183594 9.042969 10.210938 9.039062 10.238281 9.042969 C 10.246094 9.046875 10.269531 9.042969 10.277344 9.042969 C 10.292969 9.046875 10.308594 9.039062 10.320312 9.042969 C 10.335938 9.046875 10.34375 9.082031 10.359375 9.082031 C 10.390625 9.082031 10.378906 9.046875 10.359375 9.027344 C 10.367188 9.007812 10.382812 8.988281 10.375 8.972656 C 10.359375 8.945312 10.308594 8.980469 10.304688 8.945312 C 10.304688 8.921875 10.324219 8.921875 10.332031 8.902344 C 10.328125 8.859375 10.363281 8.859375 10.359375 8.820312 C 10.359375 8.804688 10.34375 8.808594 10.332031 8.792969 C 10.328125 8.785156 10.324219 8.757812 10.320312 8.75 C 10.296875 8.730469 10.253906 8.746094 10.25 8.707031 C 10.25 8.6875 10.253906 8.664062 10.25 8.640625 C 10.246094 8.617188 10.226562 8.546875 10.207031 8.542969 C 10.183594 8.535156 10.167969 8.582031 10.140625 8.597656 C 10.125 8.605469 10.085938 8.613281 10.070312 8.609375 C 10.058594 8.605469 10.042969 8.605469 10.042969 8.582031 C 10.039062 8.566406 10.0625 8.554688 10.070312 8.542969 C 10.070312 8.539062 10.066406 8.535156 10.070312 8.527344 C 10.101562 8.519531 10.132812 8.507812 10.167969 8.5 C 10.183594 8.496094 10.203125 8.492188 10.222656 8.488281 C 10.234375 8.484375 10.25 8.492188 10.265625 8.488281 C 10.324219 8.476562 10.382812 8.464844 10.445312 8.460938 C 10.519531 8.453125 10.589844 8.445312 10.667969 8.445312 Z M 9.765625 8.652344 C 9.75 8.734375 9.671875 8.765625 9.582031 8.765625 C 9.5625 8.785156 9.582031 8.820312 9.570312 8.847656 C 9.558594 8.871094 9.523438 8.890625 9.5 8.890625 C 9.484375 8.890625 9.457031 8.863281 9.457031 8.847656 C 9.457031 8.828125 9.488281 8.828125 9.472656 8.804688 C 9.472656 8.800781 9.480469 8.796875 9.484375 8.792969 C 9.496094 8.785156 9.503906 8.78125 9.515625 8.777344 C 9.59375 8.726562 9.675781 8.691406 9.765625 8.652344 Z M 11.625 8.734375 C 11.617188 8.738281 11.617188 8.746094 11.609375 8.75 C 11.59375 8.761719 11.582031 8.773438 11.570312 8.777344 C 11.550781 8.785156 11.53125 8.789062 11.527344 8.804688 C 11.523438 8.820312 11.542969 8.820312 11.542969 8.832031 C 11.535156 8.847656 11.53125 8.855469 11.527344 8.875 C 11.550781 8.910156 11.597656 8.867188 11.625 8.859375 C 11.636719 8.855469 11.644531 8.855469 11.652344 8.847656 C 11.660156 8.835938 11.660156 8.820312 11.667969 8.804688 C 11.671875 8.785156 11.695312 8.78125 11.695312 8.761719 C 11.691406 8.746094 11.652344 8.734375 11.625 8.734375 Z M 9.195312 9.015625 C 9.214844 9.03125 9.246094 9.066406 9.207031 9.082031 C 9.203125 9.085938 9.148438 9.097656 9.140625 9.097656 C 9.136719 9.097656 9.128906 9.085938 9.125 9.082031 C 9.148438 9.0625 9.171875 9.035156 9.195312 9.015625 Z M 9.277344 9.097656 C 9.289062 9.097656 9.292969 9.125 9.304688 9.125 C 9.316406 9.125 9.328125 9.109375 9.332031 9.109375 C 9.351562 9.117188 9.367188 9.152344 9.347656 9.167969 C 9.332031 9.171875 9.328125 9.152344 9.320312 9.152344 C 9.289062 9.15625 9.273438 9.222656 9.25 9.222656 C 9.230469 9.21875 9.214844 9.167969 9.234375 9.152344 C 9.234375 9.140625 9.234375 9.140625 9.234375 9.125 C 9.242188 9.117188 9.257812 9.097656 9.277344 9.097656 Z M 9.167969 9.109375 C 9.171875 9.109375 9.179688 9.105469 9.179688 9.109375 C 9.179688 9.132812 9.171875 9.140625 9.152344 9.152344 C 9.121094 9.171875 9.09375 9.195312 9.082031 9.234375 C 9.082031 9.246094 9.042969 9.28125 9.027344 9.277344 C 8.992188 9.269531 9.046875 9.203125 9.054688 9.195312 C 9.066406 9.183594 9.074219 9.179688 9.082031 9.167969 C 9.09375 9.152344 9.101562 9.132812 9.109375 9.125 C 9.121094 9.117188 9.148438 9.109375 9.167969 9.113281 Z M 12.179688 9.179688 C 12.214844 9.175781 12.234375 9.214844 12.25 9.234375 C 12.261719 9.253906 12.296875 9.28125 12.320312 9.292969 C 12.332031 9.296875 12.347656 9.3125 12.359375 9.320312 C 12.390625 9.332031 12.441406 9.375 12.445312 9.402344 C 12.445312 9.417969 12.429688 9.429688 12.429688 9.445312 C 12.453125 9.449219 12.472656 9.410156 12.472656 9.390625 C 12.511719 9.445312 12.546875 9.507812 12.582031 9.570312 C 12.601562 9.597656 12.625 9.621094 12.640625 9.652344 C 12.621094 9.65625 12.613281 9.660156 12.609375 9.679688 C 12.605469 9.703125 12.621094 9.746094 12.582031 9.75 C 12.558594 9.753906 12.53125 9.730469 12.5 9.722656 C 12.488281 9.71875 12.46875 9.726562 12.457031 9.722656 C 12.433594 9.714844 12.4375 9.679688 12.417969 9.667969 C 12.40625 9.660156 12.367188 9.640625 12.347656 9.640625 C 12.335938 9.640625 12.332031 9.644531 12.320312 9.640625 C 12.304688 9.636719 12.277344 9.644531 12.265625 9.640625 C 12.253906 9.632812 12.226562 9.609375 12.222656 9.597656 C 12.21875 9.582031 12.261719 9.570312 12.265625 9.554688 C 12.265625 9.546875 12.253906 9.53125 12.25 9.511719 C 12.25 9.503906 12.253906 9.492188 12.25 9.484375 C 12.246094 9.472656 12.226562 9.472656 12.207031 9.472656 L 12.042969 9.472656 C 12.003906 9.476562 11.972656 9.46875 11.945312 9.472656 C 11.921875 9.472656 11.882812 9.492188 11.859375 9.5 C 11.851562 9.503906 11.847656 9.507812 11.832031 9.511719 C 11.828125 9.515625 11.8125 9.523438 11.804688 9.527344 C 11.792969 9.53125 11.777344 9.550781 11.765625 9.554688 C 11.746094 9.558594 11.726562 9.550781 11.695312 9.554688 C 11.671875 9.554688 11.640625 9.539062 11.640625 9.511719 C 11.640625 9.472656 11.710938 9.492188 11.75 9.484375 C 11.765625 9.480469 11.773438 9.46875 11.792969 9.457031 C 11.800781 9.453125 11.796875 9.449219 11.804688 9.445312 C 11.820312 9.433594 11.84375 9.414062 11.847656 9.402344 C 11.847656 9.390625 11.847656 9.382812 11.847656 9.375 C 11.847656 9.367188 11.863281 9.359375 11.875 9.347656 C 11.894531 9.328125 11.90625 9.304688 11.929688 9.292969 C 11.945312 9.285156 11.964844 9.277344 11.972656 9.265625 C 11.972656 9.25 11.972656 9.25 11.972656 9.238281 C 11.984375 9.226562 11.992188 9.222656 12 9.222656 C 12.023438 9.21875 12.042969 9.222656 12.070312 9.222656 C 12.082031 9.222656 12.097656 9.226562 12.109375 9.222656 C 12.121094 9.214844 12.128906 9.199219 12.140625 9.195312 C 12.152344 9.1875 12.167969 9.183594 12.179688 9.179688 Z M 12.429688 9.445312 L 12.375 9.445312 C 12.355469 9.445312 12.332031 9.433594 12.320312 9.445312 C 12.335938 9.46875 12.367188 9.480469 12.402344 9.484375 C 12.414062 9.476562 12.425781 9.460938 12.429688 9.445312 Z M 9.390625 9.195312 L 9.429688 9.195312 C 9.441406 9.195312 9.453125 9.191406 9.457031 9.195312 C 9.453125 9.222656 9.382812 9.21875 9.359375 9.207031 C 9.363281 9.195312 9.375 9.195312 9.390625 9.195312 Z M 9.292969 9.25 C 9.273438 9.265625 9.253906 9.28125 9.222656 9.292969 C 9.207031 9.296875 9.183594 9.296875 9.179688 9.277344 C 9.175781 9.253906 9.207031 9.265625 9.222656 9.265625 C 9.242188 9.261719 9.269531 9.25 9.292969 9.25 Z M 12.179688 9.25 C 12.167969 9.253906 12.160156 9.289062 12.179688 9.292969 C 12.191406 9.285156 12.195312 9.269531 12.195312 9.25 C 12.1875 9.242188 12.183594 9.246094 12.179688 9.25 Z M 12.152344 9.320312 C 12.152344 9.34375 12.15625 9.367188 12.152344 9.390625 C 12.167969 9.417969 12.203125 9.394531 12.207031 9.375 C 12.214844 9.328125 12.203125 9.3125 12.179688 9.320312 C 12.175781 9.324219 12.160156 9.3125 12.152344 9.320312 Z M 8.472656 10.359375 C 8.496094 10.382812 8.511719 10.417969 8.542969 10.429688 C 8.554688 10.4375 8.570312 10.441406 8.582031 10.445312 C 8.59375 10.449219 8.597656 10.441406 8.609375 10.445312 C 8.632812 10.453125 8.664062 10.464844 8.679688 10.472656 C 8.710938 10.484375 8.738281 10.527344 8.765625 10.542969 C 8.765625 10.554688 8.761719 10.574219 8.765625 10.582031 C 8.777344 10.597656 8.789062 10.613281 8.804688 10.625 C 8.828125 10.636719 8.839844 10.65625 8.859375 10.667969 C 8.867188 10.671875 8.878906 10.664062 8.890625 10.667969 C 8.917969 10.675781 8.933594 10.714844 8.957031 10.707031 C 8.976562 10.703125 8.96875 10.683594 8.972656 10.667969 C 8.984375 10.65625 8.996094 10.640625 9.015625 10.640625 C 9.042969 10.640625 9.046875 10.679688 9.054688 10.707031 C 9.0625 10.722656 9.078125 10.734375 9.082031 10.75 C 9.089844 10.777344 9.089844 10.859375 9.082031 10.875 C 9.078125 10.894531 9.042969 10.894531 9.027344 10.917969 C 9.019531 10.925781 9.019531 10.949219 9.015625 10.957031 C 9.003906 10.972656 8.992188 10.976562 8.984375 10.988281 C 8.980469 10.992188 8.976562 11.003906 8.972656 11.015625 C 8.960938 11.042969 8.933594 11.0625 8.945312 11.097656 C 8.949219 11.113281 8.972656 11.121094 8.972656 11.140625 C 8.972656 11.160156 8.933594 11.175781 8.929688 11.195312 C 8.929688 11.210938 8.9375 11.230469 8.945312 11.25 C 8.949219 11.265625 8.976562 11.28125 8.984375 11.292969 C 9 11.308594 9.011719 11.339844 9.027344 11.363281 C 9.054688 11.40625 9.070312 11.457031 9.097656 11.5 C 9.113281 11.523438 9.140625 11.53125 9.152344 11.554688 C 9.15625 11.566406 9.148438 11.585938 9.152344 11.597656 C 9.167969 11.632812 9.242188 11.675781 9.277344 11.695312 C 9.292969 11.703125 9.316406 11.699219 9.332031 11.707031 C 9.355469 11.722656 9.40625 11.757812 9.417969 11.777344 C 9.425781 11.796875 9.425781 11.84375 9.429688 11.875 C 9.4375 11.914062 9.429688 11.945312 9.429688 11.988281 C 9.433594 12.011719 9.445312 12.019531 9.445312 12.042969 C 9.445312 12.050781 9.445312 12.074219 9.445312 12.082031 C 9.445312 12.109375 9.445312 12.136719 9.445312 12.167969 C 9.441406 12.183594 9.441406 12.195312 9.445312 12.207031 C 9.445312 12.222656 9.457031 12.226562 9.457031 12.238281 C 9.460938 12.25 9.441406 12.269531 9.445312 12.277344 C 9.445312 12.308594 9.46875 12.320312 9.472656 12.347656 C 9.476562 12.367188 9.488281 12.421875 9.484375 12.445312 C 9.484375 12.457031 9.472656 12.472656 9.472656 12.488281 C 9.472656 12.5 9.472656 12.503906 9.472656 12.515625 C 9.472656 12.523438 9.476562 12.535156 9.472656 12.542969 C 9.457031 12.53125 9.445312 12.523438 9.429688 12.515625 C 9.3125 12.433594 9.199219 12.335938 9.097656 12.238281 C 9.085938 12.222656 9.070312 12.207031 9.054688 12.195312 C 8.976562 12.109375 8.898438 12.011719 8.832031 11.917969 C 8.828125 11.90625 8.824219 11.898438 8.820312 11.890625 C 8.742188 11.773438 8.679688 11.65625 8.625 11.527344 C 8.621094 11.519531 8.613281 11.507812 8.609375 11.5 C 8.5625 11.386719 8.527344 11.261719 8.5 11.140625 C 8.496094 11.117188 8.488281 11.09375 8.484375 11.070312 C 8.476562 11.011719 8.464844 10.949219 8.457031 10.890625 C 8.449219 10.8125 8.445312 10.742188 8.445312 10.667969 C 8.445312 10.5625 8.457031 10.460938 8.472656 10.359375 Z M 8.472656 10.359375 "/>
</g>
</svg>
