<svg xmlns="http://www.w3.org/2000/svg" xmlns:xlink="http://www.w3.org/1999/xlink" width="16" height="16" viewBox="0 0 16 16" version="1.1">
<g id="surface1">
<path style=" stroke:none;fill-rule:nonzero;fill:rgb(96.862745%,0%,100%);fill-opacity:1;" d="M 7.332031 2.667969 C 6.230469 2.667969 5.332031 3.5625 5.332031 4.667969 L 5.332031 6 L 4 6 L 4 6.667969 L 5.332031 6.667969 L 5.332031 13.332031 L 6 13.332031 L 6 6.667969 L 7.332031 6.667969 L 7.332031 6 L 6 6 L 6 4.667969 C 6 3.929688 6.597656 3.332031 7.332031 3.332031 L 8 3.332031 L 8 2.667969 Z M 9.828125 9.332031 L 9.332031 9.820312 L 10.863281 11.332031 L 9.332031 12.84375 L 9.828125 13.332031 L 11.355469 11.820312 L 12.839844 13.289062 L 13.332031 12.800781 L 11.851562 11.332031 L 13.332031 9.867188 L 12.839844 9.378906 L 11.355469 10.84375 Z M 9.828125 9.332031 "/>
</g>
</svg>
