<svg xmlns="http://www.w3.org/2000/svg" xmlns:xlink="http://www.w3.org/1999/xlink" width="16" height="16" viewBox="0 0 16 16" version="1.1">
<g id="surface1">
<path style=" stroke:none;fill-rule:nonzero;fill:rgb(100%,30.980393%,30.980393%);fill-opacity:1;" d="M 8.664062 2.667969 C 6.722656 4.613281 4.777344 6.550781 2.835938 8.492188 L 2.835938 8.496094 L 2.671875 8.660156 L 2.667969 8.660156 L 2.667969 11.332031 L 5.339844 11.332031 C 7.273438 9.398438 9.339844 7.332031 11.332031 5.335938 L 8.667969 2.667969 Z M 8.273438 4 L 10 5.726562 L 7.15625 8.570312 L 5.429688 6.84375 Z M 11.667969 6 C 11.34375 7.136719 10.546875 8.109375 10.199219 8.890625 C 10.074219 9.125 10 9.386719 10 9.667969 C 10 10.589844 10.742188 11.332031 11.667969 11.332031 C 12.589844 11.332031 13.332031 10.589844 13.332031 9.667969 C 13.332031 9.386719 13.257812 9.125 13.136719 8.890625 C 12.785156 8.109375 11.992188 7.136719 11.667969 6 Z M 4.957031 7.316406 L 6.683594 9.042969 L 6.210938 9.511719 L 4.484375 7.785156 C 4.644531 7.628906 4.800781 7.472656 4.957031 7.316406 Z M 4.015625 8.257812 L 5.742188 9.984375 L 5.273438 10.457031 L 5.269531 10.457031 L 3.542969 8.730469 Z M 2.667969 12.667969 L 2.667969 13.332031 L 13.332031 13.332031 L 13.332031 12.667969 Z M 2.667969 12.667969 "/>
</g>
</svg>
