<svg xmlns="http://www.w3.org/2000/svg" xmlns:xlink="http://www.w3.org/1999/xlink" width="16" height="16" viewBox="0 0 16 16" version="1.1">
<g id="surface1">
<path style=" stroke:none;fill-rule:nonzero;fill:rgb(100%,74.901962%,0%);fill-opacity:1;" d="M 4 2.667969 L 3.332031 3.332031 L 3.332031 4.203125 L 6.667969 8.910156 L 6.667969 11.359375 L 8.667969 12.84375 L 8.667969 12.011719 L 7.332031 11.023438 L 7.332031 8.667969 L 7.308594 8.667969 L 4 3.992188 L 4 3.332031 L 12 3.332031 L 12 3.992188 L 8.691406 8.667969 L 9.507812 8.667969 L 12.667969 4.203125 L 12.667969 3.332031 L 12 2.667969 Z M 4.667969 4 L 6 6 L 6 4.667969 L 7.332031 4 Z M 4.667969 4 "/>
<path style=" stroke:none;fill-rule:nonzero;fill:rgb(85.490197%,26.666668%,32.549021%);fill-opacity:1;" d="M 9.992188 9.332031 L 9.332031 9.992188 L 10.671875 11.332031 L 9.332031 12.671875 L 9.992188 13.332031 L 11.332031 11.992188 L 12.671875 13.332031 L 13.332031 12.671875 L 11.992188 11.332031 L 13.332031 9.992188 L 12.671875 9.332031 L 11.332031 10.671875 Z M 9.992188 9.332031 "/>
</g>
</svg>
