<svg xmlns="http://www.w3.org/2000/svg" xmlns:xlink="http://www.w3.org/1999/xlink" width="16" height="16" viewBox="0 0 16 16" version="1.1">
<g id="surface1">
<path style=" stroke:none;fill-rule:nonzero;fill:rgb(100%,74.901962%,0%);fill-opacity:1;" d="M 4.667969 2.667969 C 3.5625 2.667969 2.667969 3.5625 2.667969 4.667969 C 2.667969 5.769531 3.5625 6.667969 4.667969 6.667969 C 5.535156 6.667969 6.265625 6.105469 6.542969 5.332031 L 8.144531 5.332031 C 5.257812 6.972656 3.332031 9.941406 3.332031 13.332031 L 4.667969 13.332031 C 4.667969 9.085938 8.199219 5.609375 12.667969 5.332031 L 13.332031 5.332031 L 13.332031 4 L 6.542969 4 C 6.265625 3.226562 5.535156 2.667969 4.667969 2.667969 Z M 4.667969 4 C 5.035156 4 5.332031 4.296875 5.332031 4.667969 C 5.332031 5.035156 5.035156 5.332031 4.667969 5.332031 C 4.296875 5.332031 4 5.035156 4 4.667969 C 4 4.296875 4.296875 4 4.667969 4 Z M 4.667969 4 "/>
<path style=" stroke:none;fill-rule:nonzero;fill:rgb(70.19608%,70.19608%,70.19608%);fill-opacity:1;" d="M 12.332031 5.332031 C 12.132812 5.34375 12.066406 5.351562 12.019531 5.355469 C 7.929688 5.519531 4.667969 8.871094 4.667969 13 C 4.667969 13.113281 4.683594 13.222656 4.6875 13.332031 L 13.332031 13.332031 L 13.332031 5.332031 Z M 12.332031 5.332031 "/>
</g>
</svg>
