<svg xmlns="http://www.w3.org/2000/svg" xmlns:xlink="http://www.w3.org/1999/xlink" width="16" height="16" viewBox="0 0 16 16" version="1.1">
<g id="surface1">
<path style=" stroke:none;fill-rule:nonzero;fill:rgb(67.058825%,40.000001%,100%);fill-opacity:1;" d="M 2.667969 2.667969 L 2.667969 13.332031 L 13.332031 13.332031 L 13.332031 2.667969 Z M 3.332031 3.332031 L 6 3.332031 L 6 4.667969 L 3.332031 4.667969 Z M 6.667969 3.332031 L 9.332031 3.332031 L 9.332031 4.667969 L 6.667969 4.667969 Z M 10 3.332031 L 12.667969 3.332031 L 12.667969 4.667969 L 10 4.667969 Z M 3.332031 5.332031 L 6 5.332031 L 6 6 L 6.667969 6 L 6.667969 5.332031 L 9.332031 5.332031 L 9.332031 6 L 10 6 L 10 5.332031 L 12.667969 5.332031 L 12.667969 10.667969 L 10 10.667969 L 10 10 L 9.332031 10 L 9.332031 10.667969 L 6.667969 10.667969 L 6.667969 10 L 6 10 L 6 10.667969 L 3.332031 10.667969 Z M 3.332031 11.332031 L 6 11.332031 L 6 12.667969 L 3.332031 12.667969 Z M 6.667969 11.332031 L 9.332031 11.332031 L 9.332031 12.667969 L 6.667969 12.667969 Z M 10 11.332031 L 12.667969 11.332031 L 12.667969 12.667969 L 10 12.667969 Z M 10 11.332031 "/>
<path style=" stroke:none;fill-rule:nonzero;fill:rgb(85.490197%,26.666668%,32.549021%);fill-opacity:1;" d="M 3.332031 6 L 3.332031 6.667969 L 3.527344 6.667969 L 6.195312 9.332031 L 3.332031 9.332031 L 3.332031 10 L 12.667969 10 L 12.667969 9.332031 L 12.472656 9.332031 L 9.804688 6.667969 L 12.667969 6.667969 L 12.667969 6 Z M 4.472656 6.667969 L 6.195312 6.667969 L 8.863281 9.332031 L 7.136719 9.332031 Z M 7.136719 6.667969 L 8.863281 6.667969 L 11.527344 9.332031 L 9.804688 9.332031 Z M 7.136719 6.667969 "/>
</g>
</svg>
