<svg xmlns="http://www.w3.org/2000/svg" xmlns:xlink="http://www.w3.org/1999/xlink" width="16" height="16" viewBox="0 0 16 16" version="1.1">
<g id="surface1">
<path style=" stroke:none;fill-rule:nonzero;fill:rgb(70.19608%,70.19608%,70.19608%);fill-opacity:1;" d="M 11.667969 2.667969 C 10.378906 2.667969 9.332031 3.859375 9.332031 5.332031 L 9.332031 7.332031 C 9.332031 8.804688 10.378906 10 11.667969 10 C 12.957031 10 14 8.804688 14 7.332031 L 14 5.332031 C 14 3.859375 12.957031 2.667969 11.667969 2.667969 Z M 11.667969 3.332031 C 12.585938 3.332031 13.332031 4.230469 13.332031 5.332031 L 13.332031 7.332031 C 13.332031 8.4375 12.585938 9.332031 11.667969 9.332031 C 10.746094 9.332031 10 8.4375 10 7.332031 L 10 5.332031 C 10 4.230469 10.746094 3.332031 11.667969 3.332031 Z M 11.667969 3.332031 "/>
<path style=" stroke:none;fill-rule:nonzero;fill:rgb(85.490197%,26.666668%,32.549021%);fill-opacity:1;" d="M 10.722656 10.667969 L 10.253906 11.136719 L 11.195312 12.082031 L 10.253906 13.023438 L 10.722656 13.496094 L 11.667969 12.550781 L 12.609375 13.496094 L 13.082031 13.023438 L 12.136719 12.082031 L 13.082031 11.136719 L 12.609375 10.667969 L 11.667969 11.609375 Z M 10.722656 10.667969 "/>
<path style=" stroke:none;fill-rule:nonzero;fill:rgb(0%,80.000001%,100%);fill-opacity:1;" d="M 6.332031 2.667969 C 5.042969 2.667969 4 3.859375 4 5.332031 L 4 7.332031 C 4 8.804688 5.042969 10 6.332031 10 C 7.621094 10 8.667969 8.804688 8.667969 7.332031 L 8.667969 5.332031 C 8.667969 3.859375 7.621094 2.667969 6.332031 2.667969 Z M 6.332031 3.332031 C 7.253906 3.332031 8 4.230469 8 5.332031 L 8 7.332031 C 8 8.4375 7.253906 9.332031 6.332031 9.332031 C 5.414062 9.332031 4.667969 8.4375 4.667969 7.332031 L 4.667969 5.332031 C 4.667969 4.230469 5.414062 3.332031 6.332031 3.332031 Z M 2.667969 9.332031 L 2.667969 10 L 3.332031 10 L 3.332031 9.332031 Z M 2.667969 9.332031 "/>
</g>
</svg>
