<svg xmlns="http://www.w3.org/2000/svg" xmlns:xlink="http://www.w3.org/1999/xlink" width="16" height="16" viewBox="0 0 16 16" version="1.1">
<g id="surface1">
<path style=" stroke:none;fill-rule:nonzero;fill:rgb(70.19608%,70.19608%,70.19608%);fill-opacity:1;" d="M 12.644531 5.355469 C 12.65625 5.402344 12.667969 5.449219 12.667969 5.5 L 12.667969 10.5 C 12.667969 10.960938 12.296875 11.332031 11.832031 11.332031 L 3.5 11.332031 C 3.449219 11.332031 3.402344 11.320312 3.355469 11.3125 C 3.421875 11.703125 3.753906 12 4.167969 12 L 12.5 12 C 12.960938 12 13.332031 11.628906 13.332031 11.167969 L 13.332031 6.167969 C 13.332031 5.753906 13.035156 5.421875 12.644531 5.355469 Z M 12.644531 5.355469 "/>
<path style=" stroke:none;fill-rule:nonzero;fill:rgb(0%,80.000001%,100%);fill-opacity:1;" d="M 3.5 4.667969 C 3.039062 4.667969 2.667969 5.039062 2.667969 5.5 L 2.667969 10.5 C 2.667969 10.960938 3.039062 11.332031 3.5 11.332031 L 11.832031 11.332031 C 12.296875 11.332031 12.667969 10.960938 12.667969 10.5 L 12.667969 5.5 C 12.667969 5.039062 12.296875 4.667969 11.832031 4.667969 Z M 10 6 L 10.667969 6 L 10.667969 8.667969 L 6.667969 8.667969 L 6.667969 10 L 4.667969 8.332031 L 6.667969 6.667969 L 6.667969 8 L 10 8 Z M 10 6 "/>
</g>
</svg>
