<svg xmlns="http://www.w3.org/2000/svg" xmlns:xlink="http://www.w3.org/1999/xlink" width="16" height="16" viewBox="0 0 16 16" version="1.1">
<g id="surface1">
<path style=" stroke:none;fill-rule:nonzero;fill:rgb(100%,74.901962%,0%);fill-opacity:1;" d="M 5 3.332031 C 3.710938 3.332031 2.667969 4.527344 2.667969 6 L 2.667969 10 C 2.667969 11.472656 3.710938 12.667969 5 12.667969 C 6.289062 12.667969 7.332031 11.472656 7.332031 10 L 7.332031 6 C 7.332031 4.527344 6.289062 3.332031 5 3.332031 Z M 11 3.332031 C 9.710938 3.332031 8.667969 4.527344 8.667969 6 L 8.667969 10 C 8.667969 11.472656 9.710938 12.667969 11 12.667969 C 12.289062 12.667969 13.332031 11.472656 13.332031 10 L 13.332031 6 C 13.332031 4.527344 12.289062 3.332031 11 3.332031 Z M 5 4 C 5.921875 4 6.667969 4.894531 6.667969 6 L 6.667969 10 C 6.667969 11.105469 5.921875 12 5 12 C 4.078125 12 3.332031 11.105469 3.332031 10 L 3.332031 6 C 3.332031 4.894531 4.078125 4 5 4 Z M 11 4 C 11.921875 4 12.667969 4.894531 12.667969 6 L 12.667969 10 C 12.667969 11.105469 11.921875 12 11 12 C 10.078125 12 9.332031 11.105469 9.332031 10 L 9.332031 6 C 9.332031 4.894531 10.078125 4 11 4 Z M 7.332031 12 L 7.332031 13.332031 L 8.667969 13.332031 L 8.667969 12 Z M 7.332031 12 "/>
</g>
</svg>
