<svg xmlns="http://www.w3.org/2000/svg" xmlns:xlink="http://www.w3.org/1999/xlink" width="16" height="16" viewBox="0 0 16 16" version="1.1">
<g id="surface1">
<path style=" stroke:none;fill-rule:nonzero;fill:rgb(100%,30.980393%,30.980393%);fill-opacity:1;" d="M 11.652344 2.40625 L 3.652344 13.074219 L 4.035156 13.359375 L 4.269531 13.542969 L 4.273438 13.539062 L 4.347656 13.59375 L 12.347656 2.925781 L 12.035156 2.691406 L 11.730469 2.457031 L 11.726562 2.460938 Z M 5 3.332031 C 3.710938 3.332031 2.667969 4.378906 2.667969 5.667969 C 2.667969 6.957031 3.710938 8 5 8 C 6.289062 8 7.332031 6.957031 7.332031 5.667969 C 7.332031 4.378906 6.289062 3.332031 5 3.332031 Z M 5 4 C 5.921875 4 6.667969 4.746094 6.667969 5.667969 C 6.667969 6.585938 5.921875 7.332031 5 7.332031 C 4.078125 7.332031 3.332031 6.585938 3.332031 5.667969 C 3.332031 4.746094 4.078125 4 5 4 Z M 11 8.667969 C 9.710938 8.667969 8.667969 9.710938 8.667969 11 C 8.667969 12.289062 9.710938 13.332031 11 13.332031 C 12.289062 13.332031 13.332031 12.289062 13.332031 11 C 13.332031 9.710938 12.289062 8.667969 11 8.667969 Z M 11 9.332031 C 11.921875 9.332031 12.667969 10.078125 12.667969 11 C 12.667969 11.921875 11.921875 12.667969 11 12.667969 C 10.078125 12.667969 9.332031 11.921875 9.332031 11 C 9.332031 10.078125 10.078125 9.332031 11 9.332031 Z M 11 9.332031 "/>
</g>
</svg>
