<svg xmlns="http://www.w3.org/2000/svg" xmlns:xlink="http://www.w3.org/1999/xlink" width="16" height="16" viewBox="0 0 16 16" version="1.1">
<g id="surface1">
<path style=" stroke:none;fill-rule:nonzero;fill:rgb(96.862745%,0%,100%);fill-opacity:1;" d="M 6.667969 4 L 3.136719 7.527344 L 2.667969 8 L 3.136719 8.472656 L 6.667969 12 L 13.332031 12 L 13.332031 4 Z M 8.667969 5.332031 L 9.332031 5.332031 L 9.332031 6 L 8.667969 6 C 8.296875 6 8 6.296875 8 6.667969 L 8 7.332031 C 8 7.589844 7.90625 7.824219 7.75 8 C 7.90625 8.175781 8 8.410156 8 8.667969 L 8 9.332031 C 8 9.703125 8.296875 10 8.667969 10 L 9.332031 10 L 9.332031 10.667969 L 8.667969 10.667969 C 7.929688 10.667969 7.332031 10.070312 7.332031 9.332031 L 7.332031 8.667969 C 7.332031 8.484375 7.183594 8.332031 7 8.332031 L 6.667969 8.332031 L 6.667969 7.667969 L 7 7.667969 C 7.183594 7.667969 7.332031 7.515625 7.332031 7.332031 L 7.332031 6.667969 C 7.332031 5.929688 7.929688 5.332031 8.667969 5.332031 Z M 10 5.332031 L 10.667969 5.332031 C 11.402344 5.332031 12 5.929688 12 6.667969 L 12 7.332031 C 12 7.515625 12.148438 7.667969 12.332031 7.667969 L 12.667969 7.667969 L 12.667969 8.332031 L 12.332031 8.332031 C 12.148438 8.332031 12 8.484375 12 8.667969 L 12 9.332031 C 12 10.070312 11.402344 10.667969 10.667969 10.667969 L 10 10.667969 L 10 10 L 10.667969 10 C 11.035156 10 11.332031 9.703125 11.332031 9.332031 L 11.332031 8.667969 C 11.332031 8.410156 11.425781 8.175781 11.582031 8 C 11.425781 7.824219 11.332031 7.589844 11.332031 7.332031 L 11.332031 6.667969 C 11.332031 6.296875 11.035156 6 10.667969 6 L 10 6 Z M 10 5.332031 "/>
</g>
</svg>
