<svg xmlns="http://www.w3.org/2000/svg" xmlns:xlink="http://www.w3.org/1999/xlink" width="16" height="16" viewBox="0 0 16 16" version="1.1">
<g id="surface1">
<path style=" stroke:none;fill-rule:nonzero;fill:rgb(0%,80.000001%,100%);fill-opacity:1;" d="M 4 3.335938 L 4 4.003906 L 3.332031 4.003906 L 3.332031 5.335938 L 4 5.335938 L 4 7.335938 L 3.332031 7.335938 L 3.332031 8.667969 L 4 8.667969 L 4 10.667969 L 3.332031 10.667969 L 3.332031 12.003906 L 4 12.003906 L 4 12.667969 L 5.332031 12.667969 L 5.332031 12.003906 L 7.332031 12.003906 L 7.332031 12.667969 L 8.667969 12.667969 L 8.667969 12.003906 L 10.667969 12.003906 L 10.667969 12.667969 L 12 12.667969 L 12 12.003906 L 12.667969 12.003906 L 12.667969 10.667969 L 12 10.667969 L 12 8.667969 L 12.667969 8.667969 L 12.667969 7.335938 L 12 7.335938 L 12 5.335938 L 12.667969 5.335938 L 12.667969 4.003906 L 12 4.003906 L 12 3.335938 L 10.667969 3.335938 L 10.667969 4.003906 L 8.667969 4.003906 L 8.667969 3.335938 L 7.332031 3.335938 L 7.332031 4.003906 L 5.332031 4.003906 L 5.332031 3.335938 Z M 5.332031 5.335938 L 7.332031 5.335938 L 7.332031 7.335938 L 5.332031 7.335938 Z M 8.667969 5.335938 L 10.667969 5.335938 L 10.667969 7.335938 L 8.667969 7.335938 Z M 5.332031 8.667969 L 7.332031 8.667969 L 7.332031 10.667969 L 5.332031 10.667969 Z M 8.667969 8.667969 L 10.667969 8.667969 L 10.667969 10.667969 L 8.667969 10.667969 Z M 8.667969 8.667969 "/>
</g>
</svg>
