<svg xmlns="http://www.w3.org/2000/svg" xmlns:xlink="http://www.w3.org/1999/xlink" width="16" height="16" viewBox="0 0 16 16" version="1.1">
<g id="surface1">
<path style=" stroke:none;fill-rule:nonzero;fill:rgb(100%,30.980393%,30.980393%);fill-opacity:1;" d="M 7.332031 2.667969 L 7 3 L 7.332031 3.332031 L 5.667969 5 L 4 3.332031 C 4 3.332031 3.667969 3 3.332031 3.332031 C 3 3.667969 3.332031 4 3.332031 4 L 5 5.667969 L 3.332031 7.332031 L 3 7 L 2.667969 7.332031 L 2.667969 8.667969 L 3 9 L 3.332031 8.667969 L 5 10.332031 L 3.332031 12 C 3.332031 12 3 12.332031 3.332031 12.667969 C 3.667969 13 4 12.667969 4 12.667969 L 5.667969 11 L 7.332031 12.667969 L 7 13 L 7.332031 13.332031 L 8.667969 13.332031 L 9 13 L 8.667969 12.667969 L 10.332031 11 L 12 12.667969 C 12 12.667969 12.332031 13 12.667969 12.667969 C 13 12.332031 12.667969 12 12.667969 12 L 11 10.332031 L 12.667969 8.667969 L 13 9 L 13.332031 8.667969 L 13.332031 7.332031 L 13 7 L 12.667969 7.332031 L 11 5.667969 L 12.667969 4 C 12.667969 4 13 3.667969 12.667969 3.332031 C 12.332031 3 12 3.332031 12 3.332031 L 10.332031 5 L 8.667969 3.332031 L 9 3 L 8.667969 2.667969 Z M 8 4 L 9.667969 5.667969 L 8 7.332031 L 6.332031 5.667969 Z M 10.332031 6.332031 L 12 8 L 10.332031 9.667969 L 8.667969 8 Z M 5.667969 6.332031 L 7.332031 8 L 5.667969 9.667969 L 4 8 Z M 8 8.667969 L 9.667969 10.332031 L 8 12 L 6.332031 10.332031 Z M 8 8.667969 "/>
</g>
</svg>
