<svg xmlns="http://www.w3.org/2000/svg" xmlns:xlink="http://www.w3.org/1999/xlink" width="16" height="16" viewBox="0 0 16 16" version="1.1">
<g id="surface1">
<path style=" stroke:none;fill-rule:nonzero;fill:rgb(67.058825%,40.000001%,100%);fill-opacity:1;" d="M 4 4 C 4 4 3.332031 4 3.332031 4.667969 L 3.332031 12 C 3.332031 12 3.332031 12.667969 4 12.667969 L 9.332031 12.667969 L 9.332031 9.332031 L 12.667969 9.332031 L 12.667969 6 C 12.667969 5.332031 12 5.332031 12 5.332031 L 8.667969 5.332031 L 7.332031 4 Z M 4 4 "/>
<path style=" stroke:none;fill-rule:nonzero;fill:rgb(67.058825%,40.000001%,100%);fill-opacity:1;" d="M 10 10 L 10 10.667969 C 10 10.851562 10.066406 11.027344 10.1875 11.148438 L 10.707031 11.667969 L 10.1875 12.1875 C 10.066406 12.308594 10 12.480469 10 12.667969 L 10 13.332031 L 10.667969 13.332031 C 10.851562 13.332031 11.027344 13.265625 11.148438 13.148438 L 11.667969 12.625 L 12.1875 13.148438 C 12.308594 13.265625 12.480469 13.332031 12.667969 13.332031 L 13.332031 13.332031 L 13.332031 12.667969 C 13.332031 12.480469 13.265625 12.308594 13.148438 12.1875 L 12.625 11.667969 L 13.148438 11.148438 C 13.265625 11.027344 13.332031 10.851562 13.332031 10.667969 L 13.332031 10 L 12.667969 10 C 12.480469 10 12.308594 10.066406 12.1875 10.1875 L 11.667969 10.707031 L 11.148438 10.1875 C 11.027344 10.066406 10.851562 10 10.667969 10 Z M 10 10 "/>
</g>
</svg>
