<svg xmlns="http://www.w3.org/2000/svg" xmlns:xlink="http://www.w3.org/1999/xlink" width="16" height="16" viewBox="0 0 16 16" version="1.1">
<g id="surface1">
<path style=" stroke:none;fill-rule:nonzero;fill:rgb(100%,74.901962%,0%);fill-opacity:1;" d="M 7.332031 3.332031 L 4 12.667969 L 5.667969 12.667969 L 6.375 10.667969 L 9.625 10.667969 L 10.332031 12.667969 L 12.1875 12.667969 L 8.667969 3.332031 Z M 12 3.332031 C 11.632812 3.332031 11.332031 3.632812 11.332031 4 C 11.332031 4.367188 11.632812 4.667969 12 4.667969 C 12.367188 4.667969 12.667969 4.367188 12.667969 4 C 12.667969 3.632812 12.367188 3.332031 12 3.332031 Z M 12 5.332031 C 11.632812 5.332031 11.332031 5.632812 11.332031 6 C 11.332031 6.367188 11.632812 6.667969 12 6.667969 C 12.367188 6.667969 12.667969 6.367188 12.667969 6 C 12.667969 5.632812 12.367188 5.332031 12 5.332031 Z M 8 6 L 9.167969 9.332031 L 6.832031 9.332031 Z M 12 7.332031 C 11.632812 7.332031 11.332031 7.632812 11.332031 8 C 11.332031 8.367188 11.632812 8.667969 12 8.667969 C 12.367188 8.667969 12.667969 8.367188 12.667969 8 C 12.667969 7.632812 12.367188 7.332031 12 7.332031 Z M 12 7.332031 "/>
</g>
</svg>
