<svg xmlns="http://www.w3.org/2000/svg" xmlns:xlink="http://www.w3.org/1999/xlink" width="16" height="16" viewBox="0 0 16 16" version="1.1">
<g id="surface1">
<path style=" stroke:none;fill-rule:nonzero;fill:rgb(0%,100%,66.666669%);fill-opacity:1;" d="M 6.667969 2.667969 L 6.667969 4 C 4.457031 4 2.667969 5.789062 2.667969 8 C 2.667969 9.746094 3.789062 11.230469 5.351562 11.773438 L 5.351562 10.304688 C 4.546875 9.847656 4 8.992188 4 8 C 4 6.527344 5.195312 5.332031 6.667969 5.332031 L 6.667969 6.667969 L 9.332031 4.667969 Z M 10 4.230469 L 10 5.703125 C 10.792969 6.164062 11.332031 7.015625 11.332031 8 C 11.332031 9.472656 10.140625 10.667969 8.667969 10.667969 L 8.667969 9.332031 L 6 11.332031 L 8.667969 13.332031 L 8.667969 12 C 10.875 12 12.667969 10.210938 12.667969 8 C 12.667969 6.257812 11.550781 4.78125 10 4.230469 Z M 10 4.230469 "/>
</g>
</svg>
