<svg xmlns="http://www.w3.org/2000/svg" xmlns:xlink="http://www.w3.org/1999/xlink" width="16" height="16" viewBox="0 0 16 16" version="1.1">
<g id="surface1">
<path style=" stroke:none;fill-rule:nonzero;fill:rgb(100%,30.980393%,30.980393%);fill-opacity:1;" d="M 8 2.746094 L 5.964844 4.78125 L 6.4375 5.253906 L 8 3.691406 L 9.5625 5.253906 L 10.035156 4.78125 Z M 4.78125 5.964844 L 2.746094 8 L 4.78125 10.035156 L 5.253906 9.5625 L 3.691406 8 L 5.253906 6.4375 Z M 11.21875 5.964844 L 10.746094 6.4375 L 12.308594 8 L 10.746094 9.5625 L 11.21875 10.035156 L 13.253906 8 Z M 8 6.113281 L 6.113281 8 L 8 9.886719 L 9.886719 8 Z M 8 7.058594 L 8.941406 8 L 8 8.941406 L 7.058594 8 Z M 6.4375 10.746094 L 5.964844 11.21875 L 8 13.253906 L 10.035156 11.21875 L 9.5625 10.746094 L 8 12.308594 Z M 6.4375 10.746094 "/>
</g>
</svg>
