<svg xmlns="http://www.w3.org/2000/svg" xmlns:xlink="http://www.w3.org/1999/xlink" width="16" height="16" viewBox="0 0 16 16" version="1.1">
<g id="surface1">
<path style=" stroke:none;fill-rule:nonzero;fill:rgb(100%,74.901962%,0%);fill-opacity:1;" d="M 8 3.332031 C 6.527344 3.332031 5.332031 4.527344 5.332031 6 L 6.667969 6 C 6.667969 5.265625 7.265625 4.667969 8 4.667969 C 8.734375 4.667969 9.332031 5.265625 9.332031 6 C 9.332031 6.367188 9.1875 6.699219 8.941406 6.941406 L 8.113281 7.78125 C 7.632812 8.265625 7.332031 8.933594 7.332031 9.667969 L 7.332031 10 L 8.667969 10 C 8.667969 9 8.964844 8.601562 9.445312 8.113281 L 10.046875 7.5 C 10.425781 7.121094 10.667969 6.585938 10.667969 6 C 10.667969 4.527344 9.472656 3.332031 8 3.332031 Z M 7.332031 11.332031 L 7.332031 12.667969 L 8.667969 12.667969 L 8.667969 11.332031 Z M 7.332031 11.332031 "/>
</g>
</svg>
