<svg xmlns="http://www.w3.org/2000/svg" xmlns:xlink="http://www.w3.org/1999/xlink" width="16" height="16" viewBox="0 0 16 16" version="1.1">
<g id="surface1">
<path style=" stroke:none;fill-rule:nonzero;fill:rgb(96.862745%,0%,100%);fill-opacity:1;" d="M 8 3.335938 C 5.421875 3.335938 3.332031 5.425781 3.332031 8.003906 C 3.332031 10.578125 5.421875 12.667969 8 12.667969 C 10.578125 12.667969 12.667969 10.578125 12.667969 8.003906 C 12.667969 5.425781 10.578125 3.335938 8 3.335938 Z M 8 5.167969 C 8.460938 5.167969 8.832031 5.542969 8.832031 6.003906 C 8.832031 6.460938 8.460938 6.835938 8 6.835938 C 7.539062 6.835938 7.167969 6.460938 7.167969 6.003906 C 7.167969 5.542969 7.539062 5.167969 8 5.167969 Z M 7.332031 7.335938 L 8.667969 7.335938 L 8.667969 10.667969 L 7.332031 10.667969 Z M 7.332031 7.335938 "/>
</g>
</svg>
