<svg xmlns="http://www.w3.org/2000/svg" xmlns:xlink="http://www.w3.org/1999/xlink" width="16" height="16" viewBox="0 0 16 16" version="1.1">
<g id="surface1">
<path style=" stroke:none;fill-rule:nonzero;fill:rgb(100%,30.980393%,30.980393%);fill-opacity:1;" d="M 3.429688 4 C 3.007812 4 2.667969 4.355469 2.667969 4.800781 L 2.667969 11.199219 C 2.667969 11.644531 3.007812 12 3.429688 12 L 12.570312 12 C 12.992188 12 13.332031 11.644531 13.332031 11.199219 L 13.332031 4.800781 C 13.332031 4.355469 12.992188 4 12.570312 4 Z M 6 5.332031 C 7.472656 5.332031 8.667969 6.527344 8.667969 8 C 8.667969 9.472656 7.472656 10.667969 6 10.667969 C 4.527344 10.667969 3.332031 9.472656 3.332031 8 C 3.332031 6.527344 4.527344 5.332031 6 5.332031 Z M 9.332031 5.332031 L 12.667969 5.332031 L 12.667969 6 L 9.332031 6 Z M 6 6.667969 C 5.261719 6.667969 4.667969 7.261719 4.667969 8 C 4.667969 8.738281 5.261719 9.332031 6 9.332031 C 6.738281 9.332031 7.332031 8.738281 7.332031 8 C 7.332031 7.261719 6.738281 6.667969 6 6.667969 Z M 9.332031 6.667969 L 12.667969 6.667969 L 12.667969 7.332031 L 9.332031 7.332031 Z M 9.332031 8 L 12.667969 8 L 12.667969 8.667969 L 9.332031 8.667969 Z M 10 9.332031 C 10.367188 9.332031 10.667969 9.632812 10.667969 10 C 10.667969 10.367188 10.367188 10.667969 10 10.667969 C 9.632812 10.667969 9.332031 10.367188 9.332031 10 C 9.332031 9.632812 9.632812 9.332031 10 9.332031 Z M 12 9.332031 C 12.367188 9.332031 12.667969 9.632812 12.667969 10 C 12.667969 10.367188 12.367188 10.667969 12 10.667969 C 11.632812 10.667969 11.332031 10.367188 11.332031 10 C 11.332031 9.632812 11.632812 9.332031 12 9.332031 Z M 12 9.332031 "/>
</g>
</svg>
