<svg xmlns="http://www.w3.org/2000/svg" xmlns:xlink="http://www.w3.org/1999/xlink" width="16" height="16" viewBox="0 0 16 16" version="1.1">
<g id="surface1">
<path style=" stroke:none;fill-rule:nonzero;fill:rgb(67.058825%,40.000001%,100%);fill-opacity:1;" d="M 8 2.667969 C 6.527344 2.667969 5.332031 3.859375 5.332031 5.332031 C 5.332031 6.804688 6.527344 8 8 8 C 9.472656 8 10.667969 6.804688 10.667969 5.332031 C 10.667969 3.859375 9.472656 2.667969 8 2.667969 Z M 8 8.65625 C 5.316406 8.660156 3.003906 10.667969 2.667969 13.332031 L 9.140625 13.332031 C 8.453125 12.78125 8 11.945312 8 11 C 8 10.066406 8.445312 9.226562 9.121094 8.675781 C 8.628906 8.667969 8.125 8.660156 8 8.65625 Z M 8 8.65625 "/>
<path style=" stroke:none;fill-rule:nonzero;fill:rgb(32.156864%,58.039218%,88.627452%);fill-opacity:1;" d="M 11 8.667969 C 9.710938 8.667969 8.667969 9.710938 8.667969 11 C 8.667969 12.289062 9.710938 13.332031 11 13.332031 C 12.289062 13.332031 13.332031 12.289062 13.332031 11 C 13.332031 9.710938 12.289062 8.667969 11 8.667969 Z M 10.058594 9.585938 L 11 10.527344 L 11.941406 9.585938 L 12.414062 10.058594 L 11.472656 11 L 12.414062 11.941406 L 11.941406 12.414062 L 11 11.472656 L 10.058594 12.414062 L 9.585938 11.941406 L 10.527344 11 L 9.585938 10.058594 Z M 10.058594 9.585938 "/>
</g>
</svg>
