<svg xmlns="http://www.w3.org/2000/svg" xmlns:xlink="http://www.w3.org/1999/xlink" width="16" height="16" viewBox="0 0 16 16" version="1.1">
<g id="surface1">
<path style=" stroke:none;fill-rule:nonzero;fill:rgb(0%,80.000001%,100%);fill-opacity:1;" d="M 8 2.667969 L 7.257812 4.757812 C 6.886719 4.839844 6.546875 4.988281 6.234375 5.183594 L 4.230469 4.230469 L 5.183594 6.234375 C 4.988281 6.546875 4.839844 6.886719 4.757812 7.257812 L 2.667969 8 L 4.757812 8.742188 C 4.839844 9.113281 4.988281 9.453125 5.183594 9.765625 L 4.230469 11.769531 L 6.234375 10.816406 C 6.546875 11.011719 6.886719 11.160156 7.257812 11.242188 L 8 13.332031 L 8.742188 11.242188 C 9.113281 11.160156 9.453125 11.011719 9.765625 10.816406 L 11.769531 11.769531 L 10.816406 9.765625 C 11.011719 9.453125 11.160156 9.113281 11.242188 8.742188 L 13.332031 8 L 11.242188 7.257812 C 11.160156 6.886719 11.011719 6.546875 10.816406 6.234375 L 11.769531 4.230469 L 9.765625 5.183594 C 9.453125 4.988281 9.113281 4.839844 8.742188 4.757812 Z M 6.667969 6.667969 C 7.035156 6.667969 7.332031 6.964844 7.332031 7.332031 C 7.332031 7.703125 7.035156 8 6.667969 8 C 6.296875 8 6 7.703125 6 7.332031 C 6 6.964844 6.296875 6.667969 6.667969 6.667969 Z M 9.332031 6.667969 C 9.703125 6.667969 10 6.964844 10 7.332031 C 10 7.703125 9.703125 8 9.332031 8 C 8.964844 8 8.667969 7.703125 8.667969 7.332031 C 8.667969 6.964844 8.964844 6.667969 9.332031 6.667969 Z M 9.664062 8.996094 C 9.808594 8.996094 9.9375 9.085938 9.984375 9.21875 C 10.03125 9.355469 9.988281 9.507812 9.875 9.59375 C 9.875 9.59375 9.011719 10.332031 8 10.332031 C 6.996094 10.335938 6.128906 9.617188 6.128906 9.617188 C 6.03125 9.546875 5.976562 9.425781 5.992188 9.304688 C 6.007812 9.183594 6.089844 9.082031 6.203125 9.035156 C 6.316406 8.992188 6.445312 9.011719 6.539062 9.089844 C 6.539062 9.089844 7.339844 9.667969 8 9.667969 C 8.65625 9.664062 9.460938 9.074219 9.460938 9.074219 C 9.515625 9.023438 9.589844 9 9.664062 8.996094 Z M 9.664062 8.996094 "/>
</g>
</svg>
