<svg xmlns="http://www.w3.org/2000/svg" xmlns:xlink="http://www.w3.org/1999/xlink" width="16" height="16" viewBox="0 0 16 16" version="1.1">
<g id="surface1">
<path style=" stroke:none;fill-rule:nonzero;fill:rgb(0%,100%,66.666669%);fill-opacity:1;" d="M 8.519531 3.332031 C 8.191406 3.332031 7.835938 3.375 7.449219 3.457031 C 7.074219 3.539062 6.710938 3.722656 6.367188 4.007812 C 6.109375 4.238281 5.917969 4.5 5.792969 4.792969 C 5.664062 5.078125 5.597656 5.363281 5.597656 5.648438 C 5.597656 5.886719 5.640625 6.121094 5.730469 6.359375 C 5.816406 6.589844 5.945312 6.792969 6.113281 6.972656 C 6.285156 7.152344 6.492188 7.300781 6.742188 7.414062 C 6.988281 7.519531 7.273438 7.574219 7.59375 7.574219 L 7.785156 7.574219 C 7.851562 7.5625 7.914062 7.554688 7.980469 7.546875 C 7.945312 7.621094 7.917969 7.695312 7.894531 7.769531 C 7.871094 7.832031 7.859375 7.917969 7.859375 8.023438 C 7.859375 8.214844 7.894531 8.371094 7.96875 8.5 C 8.046875 8.625 8.132812 8.742188 8.21875 8.855469 C 8.082031 8.867188 7.921875 8.878906 7.738281 8.894531 C 7.554688 8.910156 7.359375 8.941406 7.148438 8.980469 C 6.941406 9.019531 6.726562 9.074219 6.511719 9.140625 C 6.304688 9.210938 6.109375 9.308594 5.921875 9.421875 C 5.570312 9.632812 5.332031 9.878906 5.199219 10.15625 C 5.066406 10.441406 4.996094 10.695312 4.996094 10.914062 C 4.996094 11.144531 5.050781 11.359375 5.152344 11.5625 C 5.257812 11.777344 5.417969 11.964844 5.632812 12.125 C 5.847656 12.292969 6.121094 12.421875 6.441406 12.519531 C 6.769531 12.617188 7.148438 12.667969 7.582031 12.667969 C 8.09375 12.667969 8.546875 12.597656 8.941406 12.457031 C 9.34375 12.328125 9.675781 12.152344 9.941406 11.929688 C 10.203125 11.71875 10.402344 11.472656 10.539062 11.195312 C 10.675781 10.921875 10.746094 10.636719 10.746094 10.351562 C 10.746094 10.140625 10.714844 9.953125 10.660156 9.789062 C 10.605469 9.625 10.527344 9.480469 10.429688 9.347656 C 10.34375 9.21875 10.234375 9.09375 10.105469 8.980469 C 9.988281 8.867188 9.863281 8.75 9.734375 8.636719 L 9.300781 8.292969 C 9.238281 8.238281 9.167969 8.171875 9.097656 8.097656 C 9.023438 8.019531 8.988281 7.90625 8.988281 7.769531 C 8.988281 7.628906 9.023438 7.515625 9.097656 7.425781 C 9.167969 7.335938 9.246094 7.25 9.324219 7.167969 C 9.453125 7.070312 9.578125 6.96875 9.699219 6.863281 C 9.820312 6.75 9.925781 6.625 10.023438 6.496094 C 10.117188 6.355469 10.195312 6.203125 10.25 6.03125 C 10.308594 5.859375 10.335938 5.660156 10.335938 5.429688 C 10.335938 5.203125 10.304688 4.996094 10.238281 4.816406 C 10.175781 4.636719 10.097656 4.484375 10.011719 4.351562 C 9.921875 4.214844 9.832031 4.097656 9.734375 4.007812 C 9.636719 3.910156 9.554688 3.835938 9.480469 3.777344 L 9.480469 3.773438 L 10.226562 3.773438 L 10.996094 3.332031 Z M 7.761719 3.738281 L 7.765625 3.738281 C 8.011719 3.738281 8.226562 3.816406 8.414062 3.96875 C 8.605469 4.117188 8.765625 4.304688 8.894531 4.535156 C 9.019531 4.761719 9.117188 5.007812 9.179688 5.269531 C 9.246094 5.527344 9.277344 5.769531 9.277344 5.988281 C 9.277344 6.105469 9.261719 6.246094 9.230469 6.417969 C 9.195312 6.589844 9.113281 6.746094 8.976562 6.882812 C 8.878906 6.984375 8.753906 7.0625 8.605469 7.128906 C 8.460938 7.195312 8.3125 7.226562 8.160156 7.226562 C 7.902344 7.226562 7.679688 7.152344 7.488281 7.007812 C 7.304688 6.851562 7.148438 6.664062 7.019531 6.445312 C 6.898438 6.222656 6.804688 5.988281 6.742188 5.734375 C 6.683594 5.480469 6.65625 5.25 6.65625 5.046875 C 6.65625 4.882812 6.671875 4.726562 6.707031 4.570312 C 6.746094 4.414062 6.816406 4.273438 6.921875 4.140625 C 7.015625 4.019531 7.140625 3.921875 7.292969 3.847656 C 7.445312 3.773438 7.601562 3.738281 7.761719 3.738281 Z M 8.1875 9.199219 L 8.496094 9.199219 C 8.539062 9.199219 8.582031 9.203125 8.628906 9.210938 C 8.851562 9.375 9.050781 9.519531 9.21875 9.652344 C 9.386719 9.78125 9.523438 9.910156 9.628906 10.03125 C 9.730469 10.152344 9.808594 10.277344 9.855469 10.398438 C 9.914062 10.527344 9.941406 10.671875 9.941406 10.828125 C 9.941406 11.210938 9.789062 11.523438 9.484375 11.769531 C 9.1875 12.023438 8.75 12.148438 8.171875 12.148438 C 7.523438 12.148438 7.007812 12.011719 6.621094 11.734375 C 6.246094 11.457031 6.058594 11.097656 6.058594 10.65625 C 6.058594 10.433594 6.097656 10.253906 6.175781 10.105469 C 6.265625 9.957031 6.367188 9.835938 6.476562 9.738281 C 6.589844 9.640625 6.703125 9.5625 6.816406 9.503906 C 6.9375 9.453125 7.027344 9.417969 7.089844 9.394531 C 7.21875 9.355469 7.351562 9.316406 7.488281 9.285156 C 7.625 9.257812 7.75 9.238281 7.871094 9.222656 C 7.992188 9.214844 8.097656 9.207031 8.1875 9.199219 Z M 8.1875 9.199219 "/>
</g>
</svg>
