<svg xmlns="http://www.w3.org/2000/svg" xmlns:xlink="http://www.w3.org/1999/xlink" width="16" height="16" viewBox="0 0 16 16" version="1.1">
<g id="surface1">
<path style=" stroke:none;fill-rule:nonzero;fill:rgb(0%,80.000001%,100%);fill-opacity:1;" d="M 7.332031 2.667969 C 5.117188 2.667969 3.332031 4.464844 3.332031 6.667969 L 3.332031 9.332031 L 2.667969 12 L 5.332031 10.667969 L 7.332031 10.667969 C 7.878906 10.667969 8.398438 10.535156 8.871094 10.332031 C 8.785156 10.132812 8.734375 9.933594 8.703125 9.734375 C 8.285156 9.867188 7.824219 10 7.332031 10 L 4 10 L 4 6.667969 C 4 4.800781 5.488281 3.332031 7.332031 3.332031 C 9.179688 3.332031 10.667969 4.800781 10.667969 6.667969 C 10.667969 6.667969 10.660156 6.734375 10.660156 6.734375 C 10.875 6.734375 11.101562 6.667969 11.332031 6.667969 C 11.332031 4.464844 9.550781 2.667969 7.332031 2.667969 Z M 11.332031 7.332031 C 10.226562 7.332031 9.332031 8.199219 9.332031 9.332031 C 9.332031 10 9.648438 10.535156 10.128906 10.933594 L 11.332031 13.332031 L 12.539062 10.933594 C 13.019531 10.535156 13.332031 9.933594 13.332031 9.332031 C 13.332031 8.199219 12.441406 7.332031 11.332031 7.332031 Z M 11.332031 7.332031 "/>
</g>
</svg>
