<svg xmlns="http://www.w3.org/2000/svg" xmlns:xlink="http://www.w3.org/1999/xlink" width="16" height="16" viewBox="0 0 16 16" version="1.1">
<g id="surface1">
<path style=" stroke:none;fill-rule:nonzero;fill:rgb(67.058825%,40.000001%,100%);fill-opacity:1;" d="M 8 3.332031 C 6.316406 3.332031 4.953125 4.695312 4.953125 6.375 C 4.953125 6.667969 4.996094 6.957031 5.074219 7.226562 C 4.691406 7.53125 3.199219 8.867188 3.8125 10.59375 C 3.8125 10.59375 4.332031 10.550781 4.757812 9.765625 C 4.886719 10.265625 5.128906 10.722656 5.457031 11.105469 C 4.976562 11.246094 4.648438 11.519531 4.648438 11.835938 C 4.648438 12.292969 5.34375 12.667969 6.203125 12.667969 C 6.785156 12.667969 7.289062 12.496094 7.554688 12.242188 C 7.699219 12.261719 7.847656 12.273438 8 12.273438 C 8.152344 12.273438 8.300781 12.261719 8.445312 12.242188 C 8.710938 12.496094 9.21875 12.667969 9.800781 12.667969 C 10.65625 12.667969 11.351562 12.292969 11.351562 11.835938 C 11.351562 11.519531 11.027344 11.246094 10.542969 11.105469 C 10.871094 10.722656 11.113281 10.265625 11.242188 9.765625 C 11.667969 10.550781 12.1875 10.59375 12.1875 10.59375 C 12.800781 8.863281 11.3125 7.53125 10.925781 7.226562 C 11.007812 6.957031 11.050781 6.667969 11.050781 6.375 C 11.050781 4.695312 9.6875 3.332031 8 3.332031 Z M 8 3.332031 "/>
</g>
</svg>
