<svg xmlns="http://www.w3.org/2000/svg" xmlns:xlink="http://www.w3.org/1999/xlink" width="16" height="16" viewBox="0 0 16 16" version="1.1">
<g id="surface1">
<path style=" stroke:none;fill-rule:nonzero;fill:rgb(67.058825%,40.000001%,100%);fill-opacity:1;" d="M 6.183594 4.179688 C 5.628906 4.136719 5.09375 4.308594 4.699219 4.699219 C 3.988281 5.410156 4.015625 6.597656 4.707031 7.496094 C 4.683594 7.660156 4.667969 7.828125 4.667969 8 C 4.667969 9.839844 6.160156 11.332031 8 11.332031 C 8.171875 11.332031 8.339844 11.316406 8.503906 11.292969 C 9.402344 11.984375 10.589844 12.011719 11.300781 11.300781 C 12.011719 10.589844 11.984375 9.402344 11.292969 8.503906 C 11.316406 8.339844 11.332031 8.171875 11.332031 8 C 11.332031 6.160156 9.839844 4.667969 8 4.667969 C 7.828125 4.667969 7.660156 4.683594 7.496094 4.707031 C 7.09375 4.398438 6.632812 4.214844 6.183594 4.179688 Z M 7.9375 6 C 8.949219 6 9.472656 6.519531 9.472656 6.828125 C 9.472656 7.132812 9.320312 7.179688 9.070312 7.179688 C 8.589844 7.179688 8.785156 6.613281 7.882812 6.613281 C 7.582031 6.613281 7.210938 6.746094 7.210938 7.085938 C 7.210938 7.359375 7.539062 7.460938 8.125 7.601562 C 9.003906 7.832031 9.667969 8.0625 9.667969 8.851562 C 9.667969 9.617188 9.027344 10 8.015625 10 C 7.003906 10 6.355469 9.410156 6.355469 9.105469 C 6.355469 8.796875 6.476562 8.722656 6.722656 8.722656 C 7.207031 8.722656 7.144531 9.363281 8.046875 9.363281 C 8.347656 9.363281 8.789062 9.230469 8.789062 8.890625 C 8.789062 8.617188 8.765625 8.523438 8.125 8.351562 C 7.441406 8.261719 6.332031 8.046875 6.332031 7.210938 C 6.332031 6.445312 6.925781 6 7.9375 6 Z M 7.9375 6 "/>
</g>
</svg>
