<svg xmlns="http://www.w3.org/2000/svg" xmlns:xlink="http://www.w3.org/1999/xlink" width="16" height="16" viewBox="0 0 16 16" version="1.1">
<g id="surface1">
<path style=" stroke:none;fill-rule:nonzero;fill:rgb(0%,80.000001%,100%);fill-opacity:1;" d="M 10.050781 3.332031 C 8.84375 3.332031 7.863281 4.386719 7.863281 5.6875 C 7.863281 5.875 7.882812 6.054688 7.921875 6.226562 C 6.101562 6.128906 4.488281 5.191406 3.410156 3.765625 C 3.21875 4.113281 3.113281 4.515625 3.113281 4.949219 C 3.113281 5.765625 3.5 6.488281 4.085938 6.910156 C 3.726562 6.898438 3.390625 6.792969 3.09375 6.617188 C 3.09375 6.625 3.09375 6.632812 3.09375 6.644531 C 3.09375 7.785156 3.847656 8.738281 4.851562 8.957031 C 4.667969 9.007812 4.472656 9.039062 4.273438 9.039062 C 4.132812 9.039062 3.996094 9.023438 3.863281 8.996094 C 4.140625 9.933594 4.949219 10.613281 5.90625 10.632812 C 5.15625 11.261719 4.214844 11.640625 3.1875 11.640625 C 3.011719 11.640625 2.835938 11.628906 2.667969 11.609375 C 3.636719 12.277344 4.785156 12.667969 6.019531 12.667969 C 10.046875 12.667969 12.246094 9.074219 12.246094 5.960938 C 12.246094 5.859375 12.246094 5.757812 12.242188 5.65625 C 12.667969 5.324219 13.039062 4.910156 13.332031 4.4375 C 12.941406 4.625 12.519531 4.75 12.078125 4.808594 C 12.527344 4.515625 12.875 4.054688 13.039062 3.503906 C 12.617188 3.773438 12.148438 3.972656 11.648438 4.078125 C 11.25 3.617188 10.679688 3.332031 10.050781 3.332031 Z M 10.050781 3.332031 "/>
</g>
</svg>
