<svg xmlns="http://www.w3.org/2000/svg" xmlns:xlink="http://www.w3.org/1999/xlink" width="16" height="16" viewBox="0 0 16 16" version="1.1">
<defs>
<filter id="alpha" filterUnits="objectBoundingBox" x="0%" y="0%" width="100%" height="100%">
  <feColorMatrix type="matrix" in="SourceGraphic" values="0 0 0 0 1 0 0 0 0 1 0 0 0 0 1 0 0 0 1 0"/>
</filter>
<mask id="mask0">
  <g filter="url(#alpha)">
<rect x="0" y="0" width="16" height="16" style="fill:rgb(0%,0%,0%);fill-opacity:0.3;stroke:none;"/>
  </g>
</mask>
<clipPath id="clip1">
  <rect x="0" y="0" width="16" height="16"/>
</clipPath>
<g id="surface5" clip-path="url(#clip1)">
<path style=" stroke:none;fill-rule:nonzero;fill:rgb(100%,74.901962%,0%);fill-opacity:1;" d="M 12 4.265625 C 11.972656 4.933594 11.847656 5.625 11.414062 6.246094 C 10.859375 7.042969 9.832031 7.675781 8.050781 8.03125 C 6.359375 8.371094 5.472656 9.027344 4.929688 9.804688 C 4.828125 9.949219 4.746094 10.105469 4.667969 10.257812 L 4.667969 11.332031 L 12 11.332031 Z M 12 4.265625 "/>
</g>
</defs>
<g id="surface1">
<path style=" stroke:none;fill-rule:nonzero;fill:rgb(100%,74.901962%,0%);fill-opacity:1;" d="M 3.332031 3.332031 L 3.332031 12.667969 L 3.59375 12.667969 C 3.644531 12.679688 3.695312 12.679688 3.746094 12.667969 L 12.667969 12.667969 L 12.667969 11.332031 L 4.667969 11.332031 L 4.667969 10.257812 C 4.746094 10.105469 4.828125 9.949219 4.929688 9.804688 C 5.472656 9.027344 6.359375 8.371094 8.050781 8.03125 C 9.832031 7.675781 10.859375 7.042969 11.414062 6.246094 C 11.96875 5.449219 12.019531 4.539062 12.007812 3.714844 C 12.007812 3.625 11.972656 3.539062 11.90625 3.476562 C 11.84375 3.414062 11.757812 3.378906 11.667969 3.382812 C 11.484375 3.386719 11.335938 3.542969 11.34375 3.726562 C 11.355469 4.511719 11.296875 5.246094 10.867188 5.867188 C 10.4375 6.484375 9.605469 7.039062 7.917969 7.378906 C 6.351562 7.695312 5.328125 8.308594 4.667969 9.058594 L 4.667969 3.332031 Z M 3.332031 3.332031 "/>
<use xlink:href="#surface5" mask="url(#mask0)"/>
</g>
</svg>
