<svg xmlns="http://www.w3.org/2000/svg" xmlns:xlink="http://www.w3.org/1999/xlink" width="16" height="16" viewBox="0 0 16 16" version="1.1">
<g id="surface1">
<path style=" stroke:none;fill-rule:nonzero;fill:rgb(0%,80.000001%,100%);fill-opacity:1;" d="M 11.351562 3.355469 C 11.289062 3.355469 11.25 3.375 11.25 3.375 L 3.375 4.75 C 2.71875 4.867188 2.832031 5.519531 2.832031 5.519531 L 3.144531 7.332031 L 5.207031 7.332031 L 5.957031 6.042969 L 7.582031 7.332031 L 9.125 7.332031 L 9.730469 6.519531 L 10.894531 7.332031 L 12.625 7.332031 L 12.019531 3.917969 C 11.933594 3.425781 11.542969 3.351562 11.355469 3.355469 Z M 3.332031 8 L 3.332031 8.667969 L 4 8.667969 L 4 8 Z M 4.667969 8 L 4.667969 8.667969 L 5.332031 8.667969 L 5.332031 8 Z M 6 8 L 6 8.667969 L 6.667969 8.667969 L 6.667969 8 Z M 7.332031 8 L 7.332031 8.667969 L 8 8.667969 L 8 8 Z M 8.667969 8 L 8.667969 8.667969 L 9.332031 8.667969 L 9.332031 8 Z M 10 8 L 10 8.667969 L 10.667969 8.667969 L 10.667969 8 Z M 11.332031 8 L 11.332031 8.667969 L 12 8.667969 L 12 8 Z M 12.667969 8 L 12.667969 8.667969 L 13.332031 8.667969 L 13.332031 8 Z M 3.5 9.332031 L 3.980469 12.105469 C 4.09375 12.761719 4.75 12.644531 4.75 12.644531 L 12.625 11.25 C 12.625 11.25 13.28125 11.136719 13.164062 10.480469 L 12.957031 9.332031 L 11.625 9.332031 L 11.75 10.042969 L 5.1875 11.207031 L 4.855469 9.332031 Z M 3.5 9.332031 "/>
</g>
</svg>
