<svg xmlns="http://www.w3.org/2000/svg" xmlns:xlink="http://www.w3.org/1999/xlink" width="16" height="16" viewBox="0 0 16 16" version="1.1">
<g id="surface1">
<path style=" stroke:none;fill-rule:nonzero;fill:rgb(96.862745%,0%,100%);fill-opacity:1;" d="M 4 3.332031 C 3.3125 3.375 3.332031 4 3.332031 4 L 3.332031 12 C 3.332031 12 3.3125 12.625 4 12.667969 L 12 12.667969 C 12.667969 12.667969 12.667969 12 12.667969 12 L 12.667969 4 C 12.667969 4 12.667969 3.332031 12 3.332031 L 10 3.332031 L 10 4.667969 L 11.332031 4.667969 L 11.332031 9.332031 L 9.335938 9.332031 C 9.335938 10.070312 8.742188 10.667969 8.003906 10.667969 C 7.265625 10.667969 6.667969 10.070312 6.667969 9.332031 L 4.667969 9.332031 L 4.667969 4.667969 L 6.003906 4.667969 L 6.003906 3.332031 Z M 6.667969 3.332031 L 6.667969 6 L 5.332031 6 L 8 9.332031 L 10.667969 6 L 9.332031 6 L 9.332031 3.332031 Z M 6.667969 3.332031 "/>
</g>
</svg>
