<svg xmlns="http://www.w3.org/2000/svg" xmlns:xlink="http://www.w3.org/1999/xlink" width="16" height="16" viewBox="0 0 16 16" version="1.1">
<g id="surface1">
<path style=" stroke:none;fill-rule:nonzero;fill:rgb(100%,30.980393%,30.980393%);fill-opacity:1;" d="M 6.667969 12.667969 L 9.332031 12.667969 L 9.332031 15.332031 L 6.667969 15.332031 Z M 6.667969 12.667969 "/>
<path style=" stroke:none;fill-rule:nonzero;fill:rgb(100%,30.980393%,30.980393%);fill-opacity:1;" d="M 6.667969 8.667969 L 9.332031 8.667969 L 9.332031 11.332031 L 6.667969 11.332031 Z M 6.667969 8.667969 "/>
<path style=" stroke:none;fill-rule:nonzero;fill:rgb(100%,30.980393%,30.980393%);fill-opacity:1;" d="M 6.667969 4.667969 L 9.332031 4.667969 L 9.332031 7.332031 L 6.667969 7.332031 Z M 6.667969 4.667969 "/>
<path style=" stroke:none;fill-rule:nonzero;fill:rgb(100%,30.980393%,30.980393%);fill-opacity:1;" d="M 6.667969 0.667969 L 9.332031 0.667969 L 9.332031 3.332031 L 6.667969 3.332031 Z M 6.667969 0.667969 "/>
<path style=" stroke:none;fill-rule:nonzero;fill:rgb(100%,30.980393%,30.980393%);fill-opacity:1;" d="M 10.667969 8.667969 L 13.332031 8.667969 L 13.332031 11.332031 L 10.667969 11.332031 Z M 10.667969 8.667969 "/>
<path style=" stroke:none;fill-rule:nonzero;fill:rgb(100%,30.980393%,30.980393%);fill-opacity:1;" d="M 10.667969 4.667969 L 13.332031 4.667969 L 13.332031 7.332031 L 10.667969 7.332031 Z M 10.667969 4.667969 "/>
<path style=" stroke:none;fill-rule:nonzero;fill:rgb(100%,30.980393%,30.980393%);fill-opacity:1;" d="M 10.667969 0.667969 L 13.332031 0.667969 L 13.332031 3.332031 L 10.667969 3.332031 Z M 10.667969 0.667969 "/>
<path style=" stroke:none;fill-rule:nonzero;fill:rgb(100%,30.980393%,30.980393%);fill-opacity:1;" d="M 2.667969 8.667969 L 5.332031 8.667969 L 5.332031 11.332031 L 2.667969 11.332031 Z M 2.667969 8.667969 "/>
<path style=" stroke:none;fill-rule:nonzero;fill:rgb(100%,30.980393%,30.980393%);fill-opacity:1;" d="M 2.667969 4.667969 L 5.332031 4.667969 L 5.332031 7.332031 L 2.667969 7.332031 Z M 2.667969 4.667969 "/>
<path style=" stroke:none;fill-rule:nonzero;fill:rgb(100%,30.980393%,30.980393%);fill-opacity:1;" d="M 2.667969 0.667969 L 5.332031 0.667969 L 5.332031 3.332031 L 2.667969 3.332031 Z M 2.667969 0.667969 "/>
</g>
</svg>
