<svg xmlns="http://www.w3.org/2000/svg" xmlns:xlink="http://www.w3.org/1999/xlink" width="16" height="16" viewBox="0 0 16 16" version="1.1">
<g id="surface1">
<path style=" stroke:none;fill-rule:nonzero;fill:rgb(67.058825%,40.000001%,100%);fill-opacity:1;" d="M 2.667969 2.667969 C 1.933594 2.667969 1.339844 3.265625 1.339844 4 L 1.332031 10.667969 C 1.332031 11.398438 1.933594 12 2.667969 12 L 4.667969 14 L 4.667969 12 L 13.332031 12 C 14.066406 12 14.667969 11.398438 14.667969 10.667969 L 14.667969 4 C 14.667969 3.265625 14.066406 2.667969 13.332031 2.667969 Z M 2.667969 4 L 13.332031 4 L 13.332031 10.667969 L 2.667969 10.667969 Z M 3.332031 4.667969 L 3.332031 6 L 4.667969 6 L 4.667969 4.667969 Z M 5.332031 4.667969 L 5.332031 6 L 6.667969 6 L 6.667969 4.667969 Z M 7.332031 4.667969 L 7.332031 6 L 8.667969 6 L 8.667969 4.667969 Z M 9.332031 4.667969 L 9.332031 6 L 10.667969 6 L 10.667969 4.667969 Z M 11.332031 4.667969 L 11.332031 6 L 12.667969 6 L 12.667969 4.667969 Z M 3.332031 6.667969 L 3.332031 8 L 4.667969 8 L 4.667969 6.667969 Z M 5.332031 6.667969 L 5.332031 8 L 6.667969 8 L 6.667969 6.667969 Z M 7.332031 6.667969 L 7.332031 8 L 8.667969 8 L 8.667969 6.667969 Z M 9.332031 6.667969 L 9.332031 8 L 10.667969 8 L 10.667969 6.667969 Z M 11.332031 6.667969 L 11.332031 8 L 12.667969 8 L 12.667969 6.667969 Z M 5.332031 8.667969 L 5.332031 10 L 10.667969 10 L 10.667969 8.667969 Z M 5.332031 8.667969 "/>
</g>
</svg>
