<svg xmlns="http://www.w3.org/2000/svg" xmlns:xlink="http://www.w3.org/1999/xlink" width="16" height="16" viewBox="0 0 16 16" version="1.1">
<g id="surface1">
<path style=" stroke:none;fill-rule:nonzero;fill:rgb(100%,30.980393%,30.980393%);fill-opacity:1;" d="M 4 2 C 2.890625 2 2 2.890625 2 4 L 2 12 C 2 13.109375 2.890625 14 4 14 L 12 14 C 13.109375 14 14 13.109375 14 12 L 14 4 C 14 2.890625 13.109375 2 12 2 Z M 4 3.332031 L 12 3.332031 C 12.371094 3.332031 12.667969 3.628906 12.667969 4 L 12.667969 12 C 12.667969 12.371094 12.371094 12.667969 12 12.667969 L 4 12.667969 C 3.628906 12.667969 3.332031 12.371094 3.332031 12 L 3.332031 4 C 3.332031 3.628906 3.628906 3.332031 4 3.332031 Z M 4 10.667969 L 4 12 L 7.332031 12 L 7.332031 10.667969 Z M 8.667969 10.667969 L 8.667969 12 L 12 12 L 12 10.667969 Z M 8.667969 10.667969 "/>
</g>
</svg>
