<svg xmlns="http://www.w3.org/2000/svg" xmlns:xlink="http://www.w3.org/1999/xlink" width="16" height="16" viewBox="0 0 16 16" version="1.1">
<g id="surface1">
<path style=" stroke:none;fill-rule:nonzero;fill:rgb(96.862745%,0%,100%);fill-opacity:1;" d="M 2.667969 2.667969 C 1.925781 2.667969 1.332031 3.261719 1.332031 4 L 1.332031 12 C 1.332031 12.738281 1.925781 13.332031 2.667969 13.332031 L 13.332031 13.332031 C 14.070312 13.332031 14.667969 12.738281 14.667969 12 L 14.667969 4 C 14.667969 3.261719 14.070312 2.667969 13.332031 2.667969 Z M 2.667969 4 L 13.332031 4 L 13.332031 12 L 2.667969 12 Z M 2.667969 4 "/>
<path style=" stroke:none;fill-rule:nonzero;fill:rgb(96.862745%,0%,100%);fill-opacity:1;" d="M 7.398438 7.933594 L 13.527344 1.804688 C 13.789062 1.542969 14.210938 1.542969 14.472656 1.804688 C 14.730469 2.066406 14.730469 2.488281 14.472656 2.746094 L 8.34375 8.875 C 8.082031 9.136719 7.660156 9.136719 7.398438 8.875 C 7.140625 8.617188 7.140625 8.191406 7.398438 7.933594 Z M 7.398438 7.933594 "/>
</g>
</svg>
