<svg xmlns="http://www.w3.org/2000/svg" xmlns:xlink="http://www.w3.org/1999/xlink" width="16" height="16" viewBox="0 0 16 16" version="1.1">
<g id="surface1">
<path style=" stroke:none;fill-rule:nonzero;fill:rgb(67.058825%,40.000001%,100%);fill-opacity:1;" d="M 8 3.988281 C 7.390625 3.988281 6.792969 4.183594 6.429688 4.632812 C 6.066406 5.082031 5.964844 5.636719 5.917969 6.273438 C 5.894531 6.589844 5.890625 6.9375 5.890625 7.320312 L 5.332031 7.320312 C 4.964844 7.320312 4.667969 7.617188 4.667969 7.988281 C 4.667969 8.355469 4.964844 8.652344 5.332031 8.652344 L 5.925781 8.652344 C 5.957031 9.585938 6 10.683594 6 11.988281 C 5.996094 12.226562 6.121094 12.449219 6.332031 12.570312 C 6.539062 12.695312 6.796875 12.695312 7.003906 12.570312 C 7.210938 12.449219 7.335938 12.226562 7.332031 11.988281 C 7.332031 10.679688 7.296875 9.574219 7.265625 8.652344 L 8 8.652344 C 8.371094 8.652344 8.667969 8.355469 8.667969 7.988281 C 8.667969 7.617188 8.371094 7.320312 8 7.320312 L 7.230469 7.320312 C 7.226562 6.953125 7.230469 6.636719 7.25 6.371094 C 7.285156 5.84375 7.394531 5.5625 7.46875 5.46875 C 7.542969 5.378906 7.613281 5.320312 8 5.320312 C 8.242188 5.324219 8.464844 5.195312 8.585938 4.988281 C 8.707031 4.78125 8.707031 4.523438 8.585938 4.316406 C 8.464844 4.109375 8.242188 3.984375 8 3.988281 Z M 8.472656 9.824219 L 8 10.296875 L 8.941406 11.238281 L 8 12.183594 L 8.472656 12.652344 L 9.414062 11.710938 L 10.355469 12.652344 L 10.828125 12.183594 L 9.886719 11.238281 L 10.828125 10.296875 L 10.355469 9.824219 L 9.414062 10.769531 Z M 8.472656 9.824219 "/>
</g>
</svg>
