<svg xmlns="http://www.w3.org/2000/svg" xmlns:xlink="http://www.w3.org/1999/xlink" width="16" height="16" viewBox="0 0 16 16" version="1.1">
<g id="surface1">
<path style=" stroke:none;fill-rule:nonzero;fill:rgb(96.862745%,0%,100%);fill-opacity:1;" d="M 5.535156 4 L 3.628906 9.332031 L 4.582031 9.332031 L 4.984375 8.191406 L 6.84375 8.191406 L 7.246094 9.332031 L 8.308594 9.332031 L 6.296875 4 Z M 5.914062 5.523438 L 6.582031 7.429688 L 5.246094 7.429688 Z M 9.332031 6 L 9.332031 6.667969 L 11 6.667969 C 11.144531 6.667969 11.332031 6.871094 11.332031 7 L 11.332031 7.332031 L 9.667969 7.332031 C 9.359375 7.332031 9.089844 7.460938 8.917969 7.65625 C 8.746094 7.851562 8.664062 8.09375 8.667969 8.332031 C 8.667969 8.574219 8.757812 8.816406 8.925781 9.011719 C 9.101562 9.203125 9.367188 9.332031 9.667969 9.332031 L 12 9.332031 L 12 9.050781 C 12.003906 9.019531 12 9 12 9 L 12 7 C 12 6.457031 11.558594 6 11 6 Z M 9.667969 8 L 11.332031 8 L 11.332031 8.667969 L 9.667969 8.667969 C 9.535156 8.667969 9.476562 8.628906 9.425781 8.574219 C 9.375 8.515625 9.335938 8.425781 9.332031 8.332031 C 9.332031 8.238281 9.367188 8.148438 9.417969 8.09375 C 9.46875 8.039062 9.53125 8 9.667969 8 Z M 6 10.664062 L 8 13.332031 L 10 10.664062 Z M 6 10.664062 "/>
</g>
</svg>
