<svg xmlns="http://www.w3.org/2000/svg" xmlns:xlink="http://www.w3.org/1999/xlink" width="16" height="16" viewBox="0 0 16 16" version="1.1">
<g id="surface1">
<path style=" stroke:none;fill-rule:nonzero;fill:rgb(0%,100%,66.666669%);fill-opacity:1;" d="M 4.5625 3.335938 C 4.375 3.367188 4 3.492188 4 3.960938 L 4 7 L 11.992188 7 C 11.992188 6.535156 11.996094 6.125 11.992188 5.824219 L 9.328125 3.335938 L 4.667969 3.335938 C 4.667969 3.335938 4.625 3.328125 4.5625 3.335938 Z M 3.332031 7.332031 L 3.332031 8 L 4 8 L 4 7.332031 Z M 4.667969 7.332031 L 4.667969 8 L 5.332031 8 L 5.332031 7.332031 Z M 6 7.332031 L 6 8 L 6.667969 8 L 6.667969 7.332031 Z M 7.332031 7.332031 L 7.332031 8 L 8 8 L 8 7.332031 Z M 8.667969 7.332031 L 8.667969 8 L 9.332031 8 L 9.332031 7.332031 Z M 10 7.332031 L 10 8 L 10.667969 8 L 10.667969 7.332031 Z M 11.332031 7.332031 L 11.332031 8 L 12 8 L 12 7.332031 Z M 12.667969 7.332031 L 12.667969 8 L 13.332031 8 L 13.332031 7.332031 Z M 4 9 L 4 12.042969 C 4 12.667969 4.667969 12.667969 4.667969 12.667969 L 11.328125 12.667969 C 11.992188 12.667969 11.992188 12.042969 11.992188 12.042969 C 12 12.03125 11.996094 10.316406 11.992188 9 Z M 4 9 "/>
</g>
</svg>
