<svg xmlns="http://www.w3.org/2000/svg" xmlns:xlink="http://www.w3.org/1999/xlink" width="16" height="16" viewBox="0 0 16 16" version="1.1">
<g id="surface1">
<path style=" stroke:none;fill-rule:nonzero;fill:rgb(0%,80.000001%,100%);fill-opacity:1;" d="M 6 4 C 5.613281 4 5.269531 4.207031 5.09375 4.507812 C 4.917969 4.808594 4.867188 5.171875 4.855469 5.574219 C 4.832031 6.382812 5.003906 7.386719 5.171875 8.386719 C 5.335938 9.386719 5.5 10.382812 5.480469 11.074219 C 5.46875 11.421875 5.410156 11.683594 5.328125 11.820312 C 5.25 11.957031 5.195312 12 5 12 C 4.921875 12 4.867188 11.976562 4.785156 11.902344 C 4.707031 11.828125 4.613281 11.695312 4.53125 11.515625 C 4.367188 11.160156 4.242188 10.640625 4.164062 10.117188 C 4 9.066406 4 8 4 8 L 3.332031 8 C 3.332031 8 3.332031 9.101562 3.503906 10.21875 C 3.589844 10.773438 3.714844 11.339844 3.925781 11.796875 C 4.03125 12.023438 4.160156 12.230469 4.332031 12.390625 C 4.507812 12.554688 4.742188 12.667969 5 12.667969 C 5.386719 12.667969 5.730469 12.457031 5.90625 12.15625 C 6.082031 11.855469 6.132812 11.496094 6.144531 11.09375 C 6.167969 10.285156 5.996094 9.277344 5.828125 8.277344 C 5.664062 7.277344 5.5 6.285156 5.519531 5.59375 C 5.53125 5.246094 5.589844 4.980469 5.671875 4.84375 C 5.75 4.707031 5.804688 4.667969 6 4.667969 C 6.226562 4.667969 6.351562 4.722656 6.449219 4.8125 C 6.550781 4.898438 6.632812 5.042969 6.6875 5.253906 C 6.800781 5.671875 6.792969 6.320312 6.75 6.980469 C 6.707031 7.640625 6.640625 8.3125 6.699219 8.867188 C 6.726562 9.148438 6.785156 9.40625 6.9375 9.625 C 7.089844 9.847656 7.371094 10 7.667969 10 C 8.195312 10 8.585938 9.664062 8.75 9.273438 C 8.914062 8.882812 8.9375 8.4375 8.957031 8.015625 C 8.980469 7.59375 8.996094 7.191406 9.066406 6.945312 C 9.101562 6.824219 9.144531 6.75 9.179688 6.714844 C 9.210938 6.683594 9.234375 6.667969 9.332031 6.667969 C 9.582031 6.667969 9.734375 6.746094 9.867188 6.882812 C 10.003906 7.015625 10.109375 7.21875 10.183594 7.4375 C 10.328125 7.875 10.332031 8.332031 10.332031 8.332031 C 10.332031 8.515625 10.484375 8.667969 10.667969 8.667969 L 12.667969 8.667969 L 12.667969 8 L 10.945312 8 C 10.933594 7.804688 10.949219 7.621094 10.816406 7.226562 C 10.722656 6.945312 10.578125 6.648438 10.339844 6.410156 C 10.101562 6.171875 9.75 6 9.332031 6 C 9.097656 6 8.871094 6.085938 8.714844 6.238281 C 8.5625 6.386719 8.476562 6.574219 8.425781 6.761719 C 8.316406 7.144531 8.3125 7.570312 8.292969 7.984375 C 8.269531 8.394531 8.234375 8.785156 8.136719 9.019531 C 8.039062 9.25 7.972656 9.332031 7.667969 9.332031 C 7.546875 9.332031 7.535156 9.320312 7.488281 9.25 C 7.4375 9.179688 7.386719 9.019531 7.363281 8.796875 C 7.316406 8.355469 7.375 7.695312 7.417969 7.019531 C 7.457031 6.347656 7.488281 5.660156 7.332031 5.078125 C 7.253906 4.789062 7.121094 4.515625 6.894531 4.3125 C 6.667969 4.109375 6.355469 4 6 4 Z M 6 4 "/>
</g>
</svg>
