<svg xmlns="http://www.w3.org/2000/svg" xmlns:xlink="http://www.w3.org/1999/xlink" width="16" height="16" viewBox="0 0 16 16" version="1.1">
<g id="surface1">
<path style=" stroke:none;fill-rule:nonzero;fill:rgb(100%,30.980393%,30.980393%);fill-opacity:1;" d="M 3.667969 2.667969 C 3.113281 2.667969 2.667969 3.113281 2.667969 3.667969 C 2.667969 4.089844 2.933594 4.46875 3.332031 4.609375 L 3.332031 11.390625 C 2.933594 11.53125 2.667969 11.910156 2.667969 12.332031 C 2.667969 12.886719 3.113281 13.332031 3.667969 13.332031 C 4.21875 13.332031 4.667969 12.886719 4.667969 12.332031 C 4.667969 11.910156 4.398438 11.53125 4 11.390625 L 4 8.488281 C 4.203125 8.605469 4.433594 8.667969 4.667969 8.667969 L 11.332031 8.667969 C 11.703125 8.667969 12 8.964844 12 9.332031 L 12 11.390625 C 11.601562 11.53125 11.332031 11.910156 11.332031 12.332031 C 11.332031 12.886719 11.78125 13.332031 12.332031 13.332031 C 12.886719 13.332031 13.332031 12.886719 13.332031 12.332031 C 13.332031 11.910156 13.066406 11.53125 12.667969 11.390625 L 12.667969 9.332031 C 12.667969 8.597656 12.070312 8 11.332031 8 L 4.667969 8 C 4.296875 8 4 7.703125 4 7.332031 L 4 4.609375 C 4.398438 4.46875 4.667969 4.089844 4.667969 3.667969 C 4.667969 3.113281 4.21875 2.667969 3.667969 2.667969 Z M 3.667969 3.332031 C 3.851562 3.332031 4 3.484375 4 3.667969 C 4 3.851562 3.851562 4 3.667969 4 C 3.484375 4 3.332031 3.851562 3.332031 3.667969 C 3.332031 3.484375 3.484375 3.332031 3.667969 3.332031 Z M 3.667969 12 C 3.851562 12 4 12.148438 4 12.332031 C 4 12.515625 3.851562 12.667969 3.667969 12.667969 C 3.484375 12.667969 3.332031 12.515625 3.332031 12.332031 C 3.332031 12.148438 3.484375 12 3.667969 12 Z M 12.332031 12 C 12.515625 12 12.667969 12.148438 12.667969 12.332031 C 12.667969 12.515625 12.515625 12.667969 12.332031 12.667969 C 12.148438 12.667969 12 12.515625 12 12.332031 C 12 12.148438 12.148438 12 12.332031 12 Z M 12.332031 12 "/>
</g>
</svg>
