<svg xmlns="http://www.w3.org/2000/svg" xmlns:xlink="http://www.w3.org/1999/xlink" width="16" height="16" viewBox="0 0 16 16" version="1.1">
<g id="surface1">
<path style=" stroke:none;fill-rule:nonzero;fill:rgb(0%,80.000001%,100%);fill-opacity:1;" d="M 4 4.003906 C 3.332031 4.003906 3.332031 4.667969 3.332031 4.667969 L 3.332031 7.335938 L 4.667969 7.335938 L 4.667969 5.335938 L 6.660156 5.335938 L 7.992188 8 C 7.992188 8 9.328125 5.308594 9.328125 5.332031 L 6.667969 5.332031 L 6.667969 4.003906 Z M 7.992188 8 L 6.660156 10.667969 L 9.328125 10.667969 Z M 9.332031 4.003906 L 9.332031 5.335938 L 11.332031 5.335938 L 11.332031 7.335938 L 12.667969 7.335938 L 12.667969 4.667969 C 12.667969 4.003906 12 4.003906 12 4.003906 Z M 3.332031 8.667969 L 3.332031 11.335938 C 3.332031 12.003906 4 12.003906 4 12.003906 L 6.667969 12.003906 L 6.667969 10.667969 L 4.667969 10.667969 L 4.667969 8.667969 Z M 11.332031 8.667969 L 11.332031 10.667969 L 9.332031 10.667969 L 9.332031 12.003906 L 12 12.003906 C 12 12.003906 12.667969 12.003906 12.667969 11.335938 L 12.667969 8.667969 Z M 11.332031 8.667969 "/>
</g>
</svg>
