<svg xmlns="http://www.w3.org/2000/svg" xmlns:xlink="http://www.w3.org/1999/xlink" width="16" height="16" viewBox="0 0 16 16" version="1.1">
<g id="surface1">
<path style=" stroke:none;fill-rule:nonzero;fill:rgb(0%,80.000001%,100%);fill-opacity:1;" d="M 11.453125 2.667969 C 11.394531 2.667969 11.355469 2.6875 11.355469 2.6875 L 3.851562 4.070312 C 3.226562 4.1875 3.335938 4.84375 3.335938 4.84375 L 3.636719 6.667969 L 5.601562 6.667969 L 6.316406 5.367188 L 7.863281 6.667969 L 9.332031 6.667969 L 9.90625 5.851562 L 11.019531 6.667969 L 12.664062 6.667969 L 12.089844 3.234375 C 12.007812 2.738281 11.636719 2.667969 11.457031 2.667969 Z M 3.332031 7.332031 L 3.332031 8 L 4 8 L 4 7.332031 Z M 4.667969 7.332031 L 4.667969 8 L 5.332031 8 L 5.332031 7.332031 Z M 6 7.332031 L 6 8 L 6.667969 8 L 6.667969 7.332031 Z M 7.332031 7.332031 L 7.332031 8 L 8 8 L 8 7.332031 Z M 8.667969 7.332031 L 8.667969 8 L 9.332031 8 L 9.332031 7.332031 Z M 10 7.332031 L 10 8 L 10.667969 8 L 10.667969 7.332031 Z M 11.332031 7.332031 L 11.332031 8 L 12 8 L 12 7.332031 Z M 12.667969 7.332031 L 12.667969 8 L 13.332031 8 L 13.332031 7.332031 Z M 3.335938 8.667969 L 3.335938 10.605469 L 5.210938 10.605469 L 7.941406 13.332031 L 7.941406 8.667969 Z M 9.273438 8.667969 L 9.273438 10.667969 C 9.988281 10.28125 10.464844 9.535156 10.464844 8.667969 Z M 11.941406 8.667969 C 11.941406 10.378906 10.820312 11.839844 9.273438 12.332031 L 9.273438 13.332031 C 11.375 12.8125 12.941406 10.933594 12.941406 8.667969 Z M 11.941406 8.667969 "/>
</g>
</svg>
