<svg xmlns="http://www.w3.org/2000/svg" xmlns:xlink="http://www.w3.org/1999/xlink" width="16" height="16" viewBox="0 0 16 16" version="1.1">
<g id="surface1">
<path style=" stroke:none;fill-rule:nonzero;fill:rgb(100%,74.901962%,0%);fill-opacity:1;" d="M 4 4.003906 C 3.332031 4.003906 3.332031 4.667969 3.332031 4.667969 L 3.332031 7.335938 L 4.667969 7.335938 L 4.667969 5.335938 L 6.667969 5.335938 L 6.667969 4.003906 Z M 9.332031 4.003906 L 9.332031 5.335938 L 11.332031 5.335938 L 11.332031 7.335938 L 12.667969 7.335938 L 12.667969 4.667969 C 12.667969 4.003906 12 4.003906 12 4.003906 Z M 7.328125 6 L 7.328125 6.667969 L 8.660156 6.667969 L 8.660156 6 Z M 7.328125 7.332031 L 7.328125 10 L 8.660156 10 L 8.660156 7.332031 Z M 3.332031 8.667969 L 3.332031 11.335938 C 3.332031 12.003906 4 12.003906 4 12.003906 L 6.667969 12.003906 L 6.667969 10.667969 L 4.667969 10.667969 L 4.667969 8.667969 Z M 11.332031 8.667969 L 11.332031 10.667969 L 9.332031 10.667969 L 9.332031 12.003906 L 12 12.003906 C 12 12.003906 12.667969 12.003906 12.667969 11.335938 L 12.667969 8.667969 Z M 11.332031 8.667969 "/>
</g>
</svg>
