<svg xmlns="http://www.w3.org/2000/svg" xmlns:xlink="http://www.w3.org/1999/xlink" width="16" height="16" viewBox="0 0 16 16" version="1.1">
<g id="surface1">
<path style=" stroke:none;fill-rule:nonzero;fill:rgb(100%,30.980393%,30.980393%);fill-opacity:1;" d="M 4 2.667969 C 3.261719 2.667969 2.667969 3.261719 2.667969 4 L 2.667969 12 C 2.667969 12.738281 3.261719 13.332031 4 13.332031 L 12 13.332031 C 12.738281 13.332031 13.332031 12.738281 13.332031 12 L 13.332031 4 C 13.332031 3.261719 12.738281 2.667969 12 2.667969 Z M 5.144531 4 L 10.855469 4 C 11.488281 4 12 4.511719 12 5.144531 L 12 10.855469 C 12 11.488281 11.488281 12 10.855469 12 L 5.144531 12 C 4.511719 12 4 11.488281 4 10.855469 L 4 5.144531 C 4 4.511719 4.511719 4 5.144531 4 Z M 7.160156 4.667969 L 7.085938 5.542969 C 6.804688 5.648438 6.542969 5.796875 6.3125 5.988281 L 5.507812 5.613281 L 4.667969 7.054688 L 5.398438 7.558594 C 5.371094 7.703125 5.359375 7.851562 5.359375 8 C 5.359375 8.148438 5.371094 8.296875 5.398438 8.445312 L 4.667969 8.945312 L 5.507812 10.386719 L 6.3125 10.011719 C 6.542969 10.203125 6.804688 10.351562 7.085938 10.453125 L 7.160156 11.332031 L 8.839844 11.332031 L 8.914062 10.457031 C 9.195312 10.351562 9.457031 10.203125 9.6875 10.011719 L 10.492188 10.386719 L 11.335938 8.945312 L 10.601562 8.441406 C 10.628906 8.296875 10.640625 8.148438 10.644531 8 C 10.644531 7.851562 10.628906 7.703125 10.605469 7.554688 L 11.335938 7.054688 L 10.492188 5.613281 L 9.691406 5.988281 C 9.457031 5.796875 9.195312 5.648438 8.914062 5.546875 L 8.839844 4.667969 Z M 8 7.046875 C 8.53125 7.046875 8.960938 7.472656 8.960938 8 C 8.960938 8.527344 8.53125 8.953125 8 8.953125 C 7.472656 8.953125 7.039062 8.527344 7.039062 8 C 7.039062 7.472656 7.472656 7.046875 8 7.046875 Z M 8 7.046875 "/>
</g>
</svg>
