<svg xmlns="http://www.w3.org/2000/svg" xmlns:xlink="http://www.w3.org/1999/xlink" width="16" height="16" viewBox="0 0 16 16" version="1.1">
<g id="surface1">
<path style=" stroke:none;fill-rule:nonzero;fill:rgb(96.862745%,0%,100%);fill-opacity:1;" d="M 3.332031 3.34375 L 3.332031 12.675781 L 12.667969 12.675781 L 12.667969 3.34375 Z M 5.621094 7.234375 L 7.171875 7.234375 C 7.210938 7.234375 7.230469 7.25 7.238281 7.28125 L 8.601562 11.339844 C 8.609375 11.359375 8.609375 11.382812 8.597656 11.402344 C 8.582031 11.421875 8.5625 11.433594 8.535156 11.433594 L 7.269531 11.433594 C 7.257812 11.433594 7.242188 11.429688 7.226562 11.421875 C 7.214844 11.40625 7.207031 11.394531 7.203125 11.378906 L 6.910156 10.445312 L 5.851562 10.445312 C 5.8125 10.601562 5.773438 10.757812 5.726562 10.917969 C 5.6875 11.070312 5.648438 11.222656 5.609375 11.378906 C 5.601562 11.414062 5.578125 11.433594 5.535156 11.433594 L 4.339844 11.433594 C 4.3125 11.433594 4.289062 11.421875 4.277344 11.402344 C 4.265625 11.382812 4.265625 11.359375 4.273438 11.339844 L 5.554688 7.28125 C 5.5625 7.25 5.585938 7.234375 5.621094 7.234375 Z M 6.351562 8.316406 C 6.347656 8.335938 6.339844 8.363281 6.332031 8.390625 C 6.328125 8.417969 6.324219 8.445312 6.320312 8.464844 C 6.300781 8.535156 6.285156 8.605469 6.269531 8.671875 C 6.25 8.734375 6.234375 8.792969 6.214844 8.851562 L 6.21875 8.851562 C 6.191406 8.96875 6.164062 9.074219 6.136719 9.160156 C 6.113281 9.25 6.082031 9.351562 6.050781 9.472656 L 6.703125 9.472656 C 6.671875 9.367188 6.640625 9.265625 6.609375 9.160156 C 6.582031 9.054688 6.550781 8.949219 6.519531 8.851562 C 6.496094 8.785156 6.472656 8.714844 6.441406 8.640625 C 6.417969 8.566406 6.394531 8.492188 6.375 8.421875 L 6.382812 8.429688 C 6.375 8.398438 6.367188 8.382812 6.363281 8.378906 C 6.363281 8.371094 6.363281 8.367188 6.367188 8.367188 L 6.363281 8.359375 C 6.363281 8.351562 6.359375 8.335938 6.351562 8.316406 Z M 9.785156 10.5 C 10.042969 10.5 10.253906 10.707031 10.253906 10.964844 C 10.253906 11.089844 10.203125 11.210938 10.117188 11.296875 C 10.03125 11.382812 9.910156 11.433594 9.785156 11.433594 C 9.527344 11.433594 9.320312 11.222656 9.320312 10.964844 C 9.320312 10.707031 9.527344 10.5 9.785156 10.5 Z M 11.265625 10.5 C 11.523438 10.5 11.734375 10.707031 11.734375 10.964844 C 11.734375 11.222656 11.523438 11.433594 11.265625 11.433594 C 11.144531 11.433594 11.023438 11.382812 10.9375 11.296875 C 10.847656 11.210938 10.800781 11.089844 10.800781 10.964844 C 10.800781 10.707031 11.007812 10.5 11.265625 10.5 Z M 11.265625 10.5 "/>
</g>
</svg>
