<svg xmlns="http://www.w3.org/2000/svg" xmlns:xlink="http://www.w3.org/1999/xlink" width="16" height="16" viewBox="0 0 16 16" version="1.1">
<g id="surface1">
<path style=" stroke:none;fill-rule:nonzero;fill:rgb(100%,74.901962%,0%);fill-opacity:1;" d="M 7.332031 2.667969 L 7.332031 3.332031 L 8.667969 3.332031 L 8.667969 4.664062 C 8.777344 4.648438 8.886719 4.628906 9 4.628906 C 10.65625 4.628906 12 5.972656 12 7.628906 C 12 8.683594 11.453125 9.609375 10.628906 10.144531 C 10.589844 10.433594 10.535156 10.722656 10.4375 11 C 11.746094 10.4375 12.667969 9.136719 12.667969 7.628906 C 12.667969 6.75 12.34375 5.949219 11.824219 5.316406 L 12.335938 4.808594 L 12.859375 5.332031 L 13.332031 4.863281 L 11.800781 3.335938 L 11.332031 3.804688 L 11.863281 4.339844 L 11.355469 4.84375 C 10.796875 4.367188 10.101562 4.050781 9.332031 3.980469 L 9.332031 3.332031 L 10.667969 3.332031 L 10.667969 2.667969 Z M 4.667969 4.6875 L 4.667969 5.355469 L 6 5.355469 L 6 6 C 4.136719 6.167969 2.667969 7.746094 2.667969 9.648438 C 2.667969 11.667969 4.316406 13.316406 6.332031 13.316406 C 8.351562 13.316406 10 11.667969 10 9.648438 C 10 8.769531 9.675781 7.972656 9.15625 7.339844 L 9.667969 6.832031 L 10.195312 7.355469 L 10.664062 6.882812 L 9.136719 5.355469 L 8.664062 5.828125 L 9.195312 6.359375 L 8.6875 6.863281 C 8.128906 6.390625 7.433594 6.070312 6.667969 6 L 6.667969 5.355469 L 8 5.355469 L 8 4.6875 Z M 6.332031 6.648438 C 7.988281 6.648438 9.332031 7.992188 9.332031 9.648438 C 9.332031 11.304688 7.988281 12.648438 6.332031 12.648438 C 4.675781 12.648438 3.332031 11.304688 3.332031 9.648438 C 3.332031 7.992188 4.675781 6.648438 6.332031 6.648438 Z M 6.332031 6.648438 "/>
</g>
</svg>
