<svg xmlns="http://www.w3.org/2000/svg" xmlns:xlink="http://www.w3.org/1999/xlink" width="16" height="16" viewBox="0 0 16 16" version="1.1">
<g id="surface1">
<path style=" stroke:none;fill-rule:nonzero;fill:rgb(0%,80.000001%,100%);fill-opacity:1;" d="M 5.332031 2.667969 L 5.332031 3.332031 L 7.332031 3.332031 L 7.332031 4.683594 C 5.101562 4.855469 3.332031 6.726562 3.332031 9 C 3.332031 11.273438 5.101562 13.144531 7.332031 13.316406 L 7.332031 12.648438 C 5.464844 12.480469 4 10.914062 4 9 C 4 6.976562 5.640625 5.332031 7.667969 5.332031 C 9.578125 5.332031 11.148438 6.796875 11.316406 8.667969 L 11.984375 8.667969 C 11.910156 7.722656 11.535156 6.867188 10.949219 6.1875 L 11.667969 5.46875 L 12.199219 6 L 12.671875 5.527344 L 11.136719 4 L 10.667969 4.472656 L 11.195312 5 L 10.480469 5.714844 C 9.800781 5.132812 8.941406 4.757812 8 4.683594 L 8 3.332031 L 10 3.332031 L 10 2.667969 Z M 9.332031 8.667969 L 9.332031 10.667969 L 7.332031 10.667969 L 7.332031 11.332031 L 9.332031 11.332031 L 9.332031 13.332031 L 10 13.332031 L 10 11.332031 L 12 11.332031 L 12 10.667969 L 10 10.667969 L 10 8.667969 Z M 9.332031 8.667969 "/>
</g>
</svg>
