<svg xmlns="http://www.w3.org/2000/svg" xmlns:xlink="http://www.w3.org/1999/xlink" width="16" height="16" viewBox="0 0 16 16" version="1.1">
<g id="surface1">
<path style=" stroke:none;fill-rule:nonzero;fill:rgb(96.862745%,0%,100%);fill-opacity:1;" d="M 4 4 L 4 4.667969 L 5.332031 4.667969 L 5.332031 5.367188 C 3.839844 5.535156 2.667969 6.796875 2.667969 8.332031 C 2.667969 9.980469 4.019531 11.332031 5.667969 11.332031 C 7.316406 11.332031 8.667969 9.980469 8.667969 8.332031 C 8.667969 7.628906 8.410156 6.984375 7.996094 6.476562 L 8.5 5.972656 L 8.765625 6.234375 L 9.234375 5.761719 L 8.234375 4.765625 L 7.765625 5.234375 L 8.027344 5.5 L 7.527344 6 C 7.097656 5.660156 6.574219 5.433594 6 5.367188 L 6 4.667969 L 7.332031 4.667969 L 7.332031 4 Z M 10.667969 4.667969 L 10.667969 11.332031 L 13.332031 8 Z M 5.667969 6 C 6.957031 6 8 7.042969 8 8.332031 C 8 9.621094 6.957031 10.667969 5.667969 10.667969 C 4.378906 10.667969 3.332031 9.621094 3.332031 8.332031 C 3.332031 7.042969 4.378906 6 5.667969 6 Z M 5.667969 6 "/>
</g>
</svg>
