<svg xmlns="http://www.w3.org/2000/svg" xmlns:xlink="http://www.w3.org/1999/xlink" width="16" height="16" viewBox="0 0 16 16" version="1.1">
<g id="surface1">
<path style=" stroke:none;fill-rule:nonzero;fill:rgb(100%,30.980393%,30.980393%);fill-opacity:1;" d="M 8 4 L 8 4.667969 L 9.332031 4.667969 L 9.332031 5.367188 C 7.839844 5.535156 6.667969 6.796875 6.667969 8.332031 C 6.667969 9.980469 8.019531 11.332031 9.667969 11.332031 C 11.316406 11.332031 12.667969 9.980469 12.667969 8.332031 C 12.667969 7.628906 12.410156 6.984375 11.996094 6.476562 L 12.5 5.972656 L 12.765625 6.234375 L 13.234375 5.761719 L 12.234375 4.765625 L 11.765625 5.234375 L 12.027344 5.5 L 11.527344 6 C 11.097656 5.660156 10.574219 5.433594 10 5.367188 L 10 4.667969 L 11.332031 4.667969 L 11.332031 4 Z M 5.332031 4.667969 L 2.667969 8 L 5.332031 11.332031 Z M 9.667969 6 C 10.957031 6 12 7.042969 12 8.332031 C 12 9.621094 10.957031 10.667969 9.667969 10.667969 C 8.378906 10.667969 7.332031 9.621094 7.332031 8.332031 C 7.332031 7.042969 8.378906 6 9.667969 6 Z M 9.667969 6 "/>
</g>
</svg>
