<svg xmlns="http://www.w3.org/2000/svg" xmlns:xlink="http://www.w3.org/1999/xlink" width="16" height="16" viewBox="0 0 16 16" version="1.1">
<defs>
<filter id="alpha" filterUnits="objectBoundingBox" x="0%" y="0%" width="100%" height="100%">
  <feColorMatrix type="matrix" in="SourceGraphic" values="0 0 0 0 1 0 0 0 0 1 0 0 0 0 1 0 0 0 1 0"/>
</filter>
<mask id="mask0">
  <g filter="url(#alpha)">
<rect x="0" y="0" width="16" height="16" style="fill:rgb(0%,0%,0%);fill-opacity:0.3;stroke:none;"/>
  </g>
</mask>
<clipPath id="clip1">
  <rect x="0" y="0" width="16" height="16"/>
</clipPath>
<g id="surface5" clip-path="url(#clip1)">
<path style=" stroke:none;fill-rule:nonzero;fill:rgb(96.862745%,0%,100%);fill-opacity:1;" d="M 4.9375 4 C 4.9375 4 4 4 4 4.933594 L 4 7.734375 C 4 8.152344 4.28125 8.5 4.667969 8.621094 L 4.667969 6.933594 C 4.667969 6 5.605469 6 5.605469 6 L 10.382812 6 C 10.382812 6 10.511719 6.015625 10.667969 6.058594 L 10.667969 4.933594 C 10.667969 4 9.714844 4 9.714844 4 Z M 4.9375 4 "/>
</g>
</defs>
<g id="surface1">
<path style=" stroke:none;fill-rule:nonzero;fill:rgb(96.862745%,0%,100%);fill-opacity:1;" d="M 6.269531 6.667969 C 6.269531 6.667969 5.332031 6.667969 5.332031 7.601562 L 5.332031 10.398438 C 5.332031 10.917969 5.757812 11.332031 6.285156 11.332031 L 8.667969 11.332031 L 9.667969 12.667969 L 10.667969 11.332031 L 11.046875 11.332031 C 11.046875 11.332031 12 11.332031 12 10.398438 L 12 7.601562 C 12 6.667969 11.046875 6.667969 11.046875 6.667969 Z M 8.667969 7.332031 L 9.332031 7.332031 L 9.332031 8.667969 L 10.667969 8.667969 L 10.667969 9.332031 L 9.332031 9.332031 L 9.332031 10.667969 L 8.667969 10.667969 L 8.667969 9.332031 L 7.332031 9.332031 L 7.332031 8.667969 L 8.667969 8.667969 Z M 8.667969 7.332031 "/>
<use xlink:href="#surface5" mask="url(#mask0)"/>
</g>
</svg>
