<svg xmlns="http://www.w3.org/2000/svg" xmlns:xlink="http://www.w3.org/1999/xlink" width="16" height="16" viewBox="0 0 16 16" version="1.1">
<g id="surface1">
<path style=" stroke:none;fill-rule:nonzero;fill:rgb(100%,74.901962%,0%);fill-opacity:1;" d="M 4.285156 4 C 4.285156 4 3.332031 4 3.332031 4.933594 L 3.332031 7.734375 C 3.332031 8.667969 4.285156 8.667969 4.285156 8.667969 L 4.667969 8.667969 L 5.667969 10 L 6.667969 8.667969 L 9.046875 8.667969 C 9.574219 8.667969 10 8.25 10 7.734375 L 10 4.933594 C 10 4 9.0625 4 9.0625 4 Z M 10.667969 9.332031 L 10.667969 10.667969 L 9.332031 10.667969 L 9.332031 11.332031 L 10.667969 11.332031 L 10.667969 12.667969 L 11.332031 12.667969 L 11.332031 11.332031 L 12.667969 11.332031 L 12.667969 10.667969 L 11.332031 10.667969 L 11.332031 9.332031 Z M 10.667969 9.332031 "/>
</g>
</svg>
