<svg xmlns="http://www.w3.org/2000/svg" xmlns:xlink="http://www.w3.org/1999/xlink" width="16" height="16" viewBox="0 0 16 16" version="1.1">
<g id="surface1">
<path style=" stroke:none;fill-rule:nonzero;fill:rgb(100%,30.980393%,30.980393%);fill-opacity:1;" d="M 7.980469 2.667969 C 6.8125 2.667969 5.707031 2.949219 4.667969 3.507812 L 5.183594 4.699219 C 5.707031 4.445312 6.171875 4.261719 6.589844 4.152344 C 7.011719 4.039062 7.441406 3.984375 7.878906 3.984375 C 8.539062 3.984375 9.042969 4.132812 9.394531 4.425781 C 9.742188 4.71875 9.917969 5.140625 9.917969 5.691406 C 9.917969 5.988281 9.882812 6.246094 9.804688 6.46875 C 9.726562 6.691406 9.597656 6.914062 9.410156 7.136719 C 9.222656 7.359375 8.832031 7.722656 8.234375 8.234375 C 7.5 8.90625 6.734375 10.09375 6.667969 11.332031 L 8 11.332031 L 7.996094 11.3125 C 7.996094 10.808594 8.082031 10.402344 8.257812 10.09375 C 8.441406 9.785156 8.800781 9.390625 9.34375 8.917969 C 10.007812 8.359375 10.449219 7.9375 10.667969 7.652344 C 10.894531 7.367188 11.058594 7.070312 11.167969 6.753906 C 11.277344 6.4375 11.332031 6.070312 11.332031 5.660156 C 11.332031 4.714844 11.035156 3.980469 10.4375 3.457031 C 9.839844 2.929688 9.019531 2.667969 7.980469 2.667969 Z M 6.667969 12 L 6.667969 13.332031 L 8 13.332031 L 8 12 Z M 6.667969 12 "/>
<path style=" stroke:none;fill-rule:nonzero;fill:rgb(23.921569%,68.235296%,91.37255%);fill-opacity:1;" d="M 13.539062 9.332031 L 10.542969 12.394531 L 9.792969 11.628906 L 9.332031 12.101562 L 10.539062 13.332031 L 10.542969 13.328125 L 10.546875 13.332031 L 14 9.804688 Z M 13.539062 9.332031 "/>
</g>
</svg>
