<svg xmlns="http://www.w3.org/2000/svg" xmlns:xlink="http://www.w3.org/1999/xlink" width="16" height="16" viewBox="0 0 16 16" version="1.1">
<g id="surface1">
<path style=" stroke:none;fill-rule:nonzero;fill:rgb(0%,80.000001%,100%);fill-opacity:1;" d="M 4 4 C 3.632812 4 3.332031 4.296875 3.332031 4.667969 L 3.332031 5.332031 C 3.332031 5.703125 3.632812 6 4 6 L 6 6 L 6 10 L 4 10 C 3.632812 10 3.332031 10.296875 3.332031 10.667969 L 3.332031 11.332031 C 3.332031 11.703125 3.632812 12 4 12 L 7.332031 12 C 7.703125 12 8 11.703125 8 11.332031 L 8 9.332031 L 9.332031 9.332031 L 9.332031 10.667969 L 12.667969 8 L 9.332031 5.332031 L 9.332031 6.667969 L 8 6.667969 L 8 4.667969 C 8 4.296875 7.703125 4 7.332031 4 Z M 4 4 "/>
</g>
</svg>
