<svg xmlns="http://www.w3.org/2000/svg" xmlns:xlink="http://www.w3.org/1999/xlink" width="16" height="16" viewBox="0 0 16 16" version="1.1">
<defs>
<filter id="alpha" filterUnits="objectBoundingBox" x="0%" y="0%" width="100%" height="100%">
  <feColorMatrix type="matrix" in="SourceGraphic" values="0 0 0 0 1 0 0 0 0 1 0 0 0 0 1 0 0 0 1 0"/>
</filter>
<mask id="mask0">
  <g filter="url(#alpha)">
<rect x="0" y="0" width="16" height="16" style="fill:rgb(0%,0%,0%);fill-opacity:0.3;stroke:none;"/>
  </g>
</mask>
<clipPath id="clip1">
  <rect x="0" y="0" width="16" height="16"/>
</clipPath>
<g id="surface5" clip-path="url(#clip1)">
<path style=" stroke:none;fill-rule:nonzero;fill:rgb(67.058825%,40.000001%,100%);fill-opacity:1;" d="M 4 3.335938 C 4 3.335938 3.332031 3.335938 3.332031 4.003906 L 3.332031 11.335938 C 3.332031 11.335938 3.332031 12.003906 4 12.003906 L 12 12.003906 C 12 12.003906 12.667969 12.003906 12.667969 11.335938 L 12.667969 5.335938 C 12.667969 4.667969 12 4.667969 12 4.667969 L 8.667969 4.667969 L 7.332031 3.335938 Z M 10.332031 7.332031 L 11.445312 8.191406 L 10.332031 9.046875 L 10.332031 8.476562 C 9.71875 8.476562 9.222656 8.988281 9.222656 9.617188 C 9.222656 10.25 9.71875 10.761719 10.332031 10.761719 C 10.945312 10.761719 11.445312 10.25 11.445312 9.617188 C 11.445312 9.542969 11.472656 9.46875 11.527344 9.417969 C 11.578125 9.363281 11.648438 9.332031 11.722656 9.332031 C 11.875 9.332031 12 9.460938 12 9.617188 C 12 9.628906 12 9.636719 12 9.648438 C 11.984375 10.582031 11.246094 11.332031 10.332031 11.332031 C 9.414062 11.332031 8.667969 10.566406 8.667969 9.617188 C 8.667969 8.671875 9.414062 7.90625 10.332031 7.90625 Z M 10.332031 7.332031 "/>
</g>
</defs>
<g id="surface1">
<use xlink:href="#surface5" mask="url(#mask0)"/>
</g>
</svg>
