<svg xmlns="http://www.w3.org/2000/svg" xmlns:xlink="http://www.w3.org/1999/xlink" width="16" height="16" viewBox="0 0 16 16" version="1.1">
<g id="surface1">
<path style=" stroke:none;fill-rule:nonzero;fill:rgb(0%,80.000001%,100%);fill-opacity:1;" d="M 7 2.667969 C 6.816406 2.667969 6.667969 2.816406 6.667969 3 C 6.667969 3.183594 6.816406 3.332031 7 3.332031 C 7.183594 3.332031 7.332031 3.183594 7.332031 3 C 7.332031 2.816406 7.183594 2.667969 7 2.667969 Z M 9 2.667969 C 8.816406 2.667969 8.667969 2.816406 8.667969 3 C 8.667969 3.183594 8.816406 3.332031 9 3.332031 C 9.183594 3.332031 9.332031 3.183594 9.332031 3 C 9.332031 2.816406 9.183594 2.667969 9 2.667969 Z M 5.667969 3.332031 C 5.484375 3.332031 5.332031 3.484375 5.332031 3.667969 C 5.332031 3.851562 5.484375 4 5.667969 4 C 5.851562 4 6 3.851562 6 3.667969 C 6 3.484375 5.851562 3.332031 5.667969 3.332031 Z M 10.332031 3.332031 C 10.148438 3.332031 10 3.484375 10 3.667969 C 10 3.851562 10.148438 4 10.332031 4 C 10.515625 4 10.667969 3.851562 10.667969 3.667969 C 10.667969 3.484375 10.515625 3.332031 10.332031 3.332031 Z M 4.332031 4 C 4.148438 4 4 4.148438 4 4.332031 C 4 4.515625 4.148438 4.667969 4.332031 4.667969 C 4.515625 4.667969 4.667969 4.515625 4.667969 4.332031 C 4.667969 4.148438 4.515625 4 4.332031 4 Z M 11.667969 4 C 11.484375 4 11.332031 4.148438 11.332031 4.332031 C 11.332031 4.515625 11.484375 4.667969 11.667969 4.667969 C 11.851562 4.667969 12 4.515625 12 4.332031 C 12 4.148438 11.851562 4 11.667969 4 Z M 3.667969 5.332031 C 3.484375 5.332031 3.332031 5.484375 3.332031 5.667969 C 3.332031 5.851562 3.484375 6 3.667969 6 C 3.851562 6 4 5.851562 4 5.667969 C 4 5.484375 3.851562 5.332031 3.667969 5.332031 Z M 12.332031 5.332031 C 12.148438 5.332031 12 5.484375 12 5.667969 C 12 5.851562 12.148438 6 12.332031 6 C 12.515625 6 12.667969 5.851562 12.667969 5.667969 C 12.667969 5.484375 12.515625 5.332031 12.332031 5.332031 Z M 3 6.667969 C 2.816406 6.667969 2.667969 6.816406 2.667969 7 C 2.667969 7.183594 2.816406 7.332031 3 7.332031 C 3.183594 7.332031 3.332031 7.183594 3.332031 7 C 3.332031 6.816406 3.183594 6.667969 3 6.667969 Z M 13 6.667969 C 12.816406 6.667969 12.667969 6.816406 12.667969 7 C 12.667969 7.183594 12.816406 7.332031 13 7.332031 C 13.183594 7.332031 13.332031 7.183594 13.332031 7 C 13.332031 6.816406 13.183594 6.667969 13 6.667969 Z M 3 8.667969 C 2.816406 8.667969 2.667969 8.816406 2.667969 9 C 2.667969 9.183594 2.816406 9.332031 3 9.332031 C 3.183594 9.332031 3.332031 9.183594 3.332031 9 C 3.332031 8.816406 3.183594 8.667969 3 8.667969 Z M 13 8.667969 C 12.816406 8.667969 12.667969 8.816406 12.667969 9 C 12.667969 9.183594 12.816406 9.332031 13 9.332031 C 13.183594 9.332031 13.332031 9.183594 13.332031 9 C 13.332031 8.816406 13.183594 8.667969 13 8.667969 Z M 3.667969 10 C 3.484375 10 3.332031 10.148438 3.332031 10.332031 C 3.332031 10.515625 3.484375 10.667969 3.667969 10.667969 C 3.851562 10.667969 4 10.515625 4 10.332031 C 4 10.148438 3.851562 10 3.667969 10 Z M 12.332031 10 C 12.148438 10 12 10.148438 12 10.332031 C 12 10.515625 12.148438 10.667969 12.332031 10.667969 C 12.515625 10.667969 12.667969 10.515625 12.667969 10.332031 C 12.667969 10.148438 12.515625 10 12.332031 10 Z M 4.332031 11.332031 C 4.148438 11.332031 4 11.484375 4 11.667969 C 4 11.851562 4.148438 12 4.332031 12 C 4.515625 12 4.667969 11.851562 4.667969 11.667969 C 4.667969 11.484375 4.515625 11.332031 4.332031 11.332031 Z M 11.667969 11.332031 C 11.484375 11.332031 11.332031 11.484375 11.332031 11.667969 C 11.332031 11.851562 11.484375 12 11.667969 12 C 11.851562 12 12 11.851562 12 11.667969 C 12 11.484375 11.851562 11.332031 11.667969 11.332031 Z M 5.667969 12 C 5.484375 12 5.332031 12.148438 5.332031 12.332031 C 5.332031 12.515625 5.484375 12.667969 5.667969 12.667969 C 5.851562 12.667969 6 12.515625 6 12.332031 C 6 12.148438 5.851562 12 5.667969 12 Z M 10.332031 12 C 10.148438 12 10 12.148438 10 12.332031 C 10 12.515625 10.148438 12.667969 10.332031 12.667969 C 10.515625 12.667969 10.667969 12.515625 10.667969 12.332031 C 10.667969 12.148438 10.515625 12 10.332031 12 Z M 7 12.667969 C 6.816406 12.667969 6.667969 12.816406 6.667969 13 C 6.667969 13.183594 6.816406 13.332031 7 13.332031 C 7.183594 13.332031 7.332031 13.183594 7.332031 13 C 7.332031 12.816406 7.183594 12.667969 7 12.667969 Z M 9 12.667969 C 8.816406 12.667969 8.667969 12.816406 8.667969 13 C 8.667969 13.183594 8.816406 13.332031 9 13.332031 C 9.183594 13.332031 9.332031 13.183594 9.332031 13 C 9.332031 12.816406 9.183594 12.667969 9 12.667969 Z M 9 12.667969 "/>
</g>
</svg>
