<svg xmlns="http://www.w3.org/2000/svg" xmlns:xlink="http://www.w3.org/1999/xlink" width="16" height="16" viewBox="0 0 16 16" version="1.1">
<g id="surface1">
<path style=" stroke:none;fill-rule:nonzero;fill:rgb(0%,100%,66.666669%);fill-opacity:1;" d="M 8 2.632812 L 8 2.667969 C 5.054688 2.667969 2.667969 5.054688 2.667969 8 C 2.667969 9.070312 2.988281 10.113281 3.589844 11 C 3.542969 11.050781 3.503906 11.105469 3.46875 11.167969 C 3.214844 11.636719 3.375 12.226562 3.832031 12.5 C 4.210938 12.714844 4.683594 12.660156 5.003906 12.367188 C 5.886719 12.972656 6.929688 13.296875 8 13.300781 C 10.945312 13.300781 13.332031 10.910156 13.332031 7.964844 C 13.332031 5.019531 10.945312 2.632812 8 2.632812 Z M 8 3.332031 C 10.578125 3.332031 12.667969 5.421875 12.667969 8 C 12.667969 10.578125 10.578125 12.667969 8 12.667969 C 7.042969 12.664062 6.105469 12.371094 5.320312 11.820312 C 5.375 11.417969 5.183594 11.023438 4.832031 10.820312 C 4.636719 10.703125 4.410156 10.65625 4.183594 10.6875 C 3.636719 9.90625 3.335938 8.976562 3.332031 8.019531 C 3.332031 5.441406 5.421875 3.351562 8 3.351562 Z M 8 4.667969 C 6.160156 4.667969 4.667969 6.160156 4.667969 8 C 4.667969 9.839844 6.160156 11.332031 8 11.332031 C 8.742188 11.332031 9.464844 11.082031 10.046875 10.625 C 10.492188 10.757812 10.96875 10.566406 11.199219 10.167969 C 11.394531 9.828125 11.375 9.40625 11.148438 9.085938 C 11.269531 8.738281 11.332031 8.371094 11.332031 8 C 11.332031 6.160156 9.839844 4.667969 8 4.667969 Z M 8 5.332031 C 9.472656 5.332031 10.667969 6.527344 10.667969 8 C 10.664062 8.234375 10.632812 8.46875 10.570312 8.695312 C 10.140625 8.589844 9.691406 8.78125 9.46875 9.167969 C 9.28125 9.492188 9.289062 9.890625 9.492188 10.207031 C 9.050781 10.507812 8.53125 10.671875 8 10.671875 C 6.527344 10.671875 5.332031 9.480469 5.332031 8.007812 C 5.332031 6.535156 6.527344 5.339844 8 5.339844 Z M 8 6.667969 C 7.261719 6.667969 6.667969 7.261719 6.667969 8 C 6.667969 8.738281 7.261719 9.332031 8 9.332031 C 8.738281 9.332031 9.332031 8.738281 9.332031 8 C 9.332031 7.261719 8.738281 6.667969 8 6.667969 Z M 8 6.667969 "/>
</g>
</svg>
