<svg xmlns="http://www.w3.org/2000/svg" xmlns:xlink="http://www.w3.org/1999/xlink" width="16" height="16" viewBox="0 0 16 16" version="1.1">
<g id="surface1">
<path style=" stroke:none;fill-rule:nonzero;fill:rgb(100%,30.980393%,30.980393%);fill-opacity:1;" d="M 4.777344 2.011719 C 4.605469 1.945312 4.421875 2.207031 4.363281 2.597656 C 4.308594 2.949219 4.363281 4.808594 4.433594 5.050781 C 4.46875 5.167969 4.410156 5.222656 4.109375 5.363281 C 3.667969 5.570312 3.03125 6.171875 2.820312 6.585938 C 2.726562 6.765625 2.667969 7.027344 2.667969 7.226562 C 2.667969 7.519531 2.703125 7.597656 2.941406 7.835938 C 3.226562 8.125 3.53125 8.242188 4.1875 8.316406 C 4.40625 8.34375 4.628906 8.398438 4.683594 8.4375 C 4.871094 8.585938 5.058594 9.066406 5.128906 9.589844 C 5.175781 9.917969 5.304688 10.328125 5.46875 10.675781 C 5.726562 11.230469 5.730469 11.234375 5.679688 11.941406 C 5.65625 12.332031 5.597656 12.886719 5.550781 13.175781 C 5.480469 13.648438 5.484375 13.71875 5.601562 13.847656 C 5.800781 14.066406 6.320312 14.046875 6.472656 13.8125 C 6.585938 13.636719 6.734375 13.128906 6.828125 12.597656 L 6.875 12.324219 L 7.214844 12.5 C 7.40625 12.597656 7.609375 12.773438 7.679688 12.898438 L 7.800781 13.121094 L 7.605469 13.121094 C 7.308594 13.121094 7.085938 13.308594 7.085938 13.554688 C 7.085938 13.988281 7.332031 14 7.332031 14 L 11.332031 14 C 12 14 12.039062 13.859375 12.097656 13.234375 C 12.113281 13.058594 12.167969 13.007812 12.429688 12.917969 C 13.066406 12.707031 13.484375 12.050781 13.28125 11.566406 C 13.175781 11.308594 12.835938 11.128906 12.5625 11.183594 C 12.398438 11.214844 12.386719 11.1875 12.316406 10.703125 C 12.167969 9.667969 11.75 8.957031 11.003906 8.457031 C 10.449219 8.089844 9.824219 7.917969 8.75 7.84375 C 7.730469 7.769531 7.390625 7.652344 7.058594 7.257812 C 6.957031 7.136719 6.855469 6.914062 6.832031 6.765625 C 6.734375 6.148438 6.628906 5.914062 6.320312 5.613281 L 6.003906 5.308594 L 6.144531 4.902344 C 6.5625 3.683594 6.628906 2.046875 6.261719 2.046875 C 6.054688 2.046875 5.726562 2.550781 5.496094 3.226562 L 5.375 3.585938 L 5.28125 3.160156 C 5.15625 2.59375 4.925781 2.066406 4.777344 2.011719 Z M 4.332031 6 C 4.515625 6 4.667969 6.148438 4.667969 6.332031 C 4.667969 6.515625 4.515625 6.667969 4.332031 6.667969 C 4.148438 6.667969 4 6.515625 4 6.332031 C 4 6.148438 4.148438 6 4.332031 6 Z M 4.332031 6 "/>
</g>
</svg>
