<svg xmlns="http://www.w3.org/2000/svg" xmlns:xlink="http://www.w3.org/1999/xlink" width="16" height="16" viewBox="0 0 16 16" version="1.1">
<g id="surface1">
<path style=" stroke:none;fill-rule:nonzero;fill:rgb(100%,30.980393%,30.980393%);fill-opacity:1;" d="M 5.351562 2.667969 L 4.882812 3.871094 C 4.121094 3.644531 3.378906 3.335938 2.667969 2.949219 L 2.667969 3.875 C 3.289062 4.183594 3.929688 4.445312 4.582031 4.648438 L 3.585938 7.210938 C 3.273438 7.066406 2.96875 6.90625 2.667969 6.734375 L 2.667969 7.671875 C 2.871094 7.777344 3.078125 7.886719 3.289062 7.980469 L 2.667969 9.578125 L 2.667969 11.859375 L 2.703125 11.765625 C 4.242188 12.515625 5.898438 12.925781 7.574219 13.007812 L 7.574219 13.332031 L 8.398438 13.332031 L 8.398438 13.023438 C 10.085938 12.996094 11.765625 12.632812 13.332031 11.925781 L 13.332031 9.457031 L 12.875 8.269531 C 13.03125 8.210938 13.179688 8.132812 13.332031 8.070312 L 13.332031 7.171875 C 13.082031 7.289062 12.832031 7.402344 12.574219 7.5 L 11.507812 4.761719 C 12.128906 4.59375 12.738281 4.378906 13.332031 4.117188 L 13.332031 3.203125 C 12.648438 3.535156 11.9375 3.800781 11.210938 3.988281 L 10.695312 2.667969 L 9.804688 2.667969 L 10.390625 4.171875 C 9.726562 4.292969 9.054688 4.355469 8.382812 4.363281 L 8.378906 2.667969 L 7.546875 2.667969 L 7.554688 4.34375 C 6.929688 4.308594 6.304688 4.222656 5.691406 4.085938 L 6.246094 2.667969 Z M 5.390625 4.863281 C 6.101562 5.03125 6.828125 5.128906 7.554688 5.171875 L 7.5625 8.226562 C 6.472656 8.148438 5.390625 7.914062 4.351562 7.527344 Z M 10.695312 4.953125 L 11.789062 7.765625 C 10.683594 8.097656 9.535156 8.265625 8.390625 8.261719 L 8.386719 5.191406 C 9.160156 5.183594 9.933594 5.105469 10.695312 4.953125 Z M 4.054688 8.296875 C 5.1875 8.71875 6.371094 8.972656 7.566406 9.054688 L 7.574219 12.183594 C 6 12.101562 4.445312 11.699219 3.007812 10.984375 Z M 12.089844 8.535156 L 13.097656 11.121094 C 11.609375 11.8125 10.007812 12.171875 8.398438 12.199219 L 8.390625 9.085938 C 9.640625 9.089844 10.886719 8.902344 12.089844 8.535156 Z M 12.089844 8.535156 "/>
</g>
</svg>
