<svg xmlns="http://www.w3.org/2000/svg" xmlns:xlink="http://www.w3.org/1999/xlink" width="16" height="16" viewBox="0 0 16 16" version="1.1">
<g id="surface1">
<path style=" stroke:none;fill-rule:nonzero;fill:rgb(0%,100%,66.666669%);fill-opacity:1;" d="M 8 2.601562 L 8 2.667969 C 7.792969 2.667969 7.589844 2.679688 7.386719 2.707031 C 7.351562 2.710938 7.316406 2.714844 7.277344 2.71875 C 5.015625 3.023438 3.34375 4.6875 3.332031 6.652344 L 3.332031 11.984375 C 3.332031 12.722656 5.421875 13.316406 8 13.316406 C 10.578125 13.316406 12.667969 12.722656 12.667969 11.984375 L 12.667969 6.652344 C 12.664062 5.035156 11.53125 3.582031 9.789062 2.960938 C 9.777344 2.957031 9.765625 2.953125 9.753906 2.949219 C 9.667969 2.921875 9.582031 2.894531 9.492188 2.871094 C 9.429688 2.851562 9.367188 2.832031 9.304688 2.816406 C 9.222656 2.796875 9.136719 2.777344 9.050781 2.761719 C 8.984375 2.746094 8.917969 2.734375 8.851562 2.722656 C 8.769531 2.710938 8.6875 2.699219 8.601562 2.691406 C 8.53125 2.683594 8.457031 2.675781 8.382812 2.667969 C 8.257812 2.640625 8.128906 2.621094 8 2.601562 Z M 9.410156 3.550781 C 10.972656 4.042969 12.007812 5.292969 12 6.683594 C 12 7.421875 10.210938 8.015625 8 8.015625 C 5.789062 8.015625 4 7.421875 4 6.683594 C 4 5.324219 4.992188 4.105469 6.5 3.59375 C 5.820312 4.585938 5.460938 5.878906 5.359375 7.015625 C 6.089844 7.230469 7.027344 7.351562 8 7.351562 C 8.199219 5.6875 8.796875 4.519531 9.410156 3.566406 Z M 4 7.683594 C 4.839844 8.289062 6.359375 8.65625 8 8.660156 C 9.640625 8.65625 11.160156 8.289062 12 7.683594 L 12 11.992188 C 12 12.359375 10.210938 12.660156 8 12.660156 C 5.789062 12.660156 4 12.359375 4 11.992188 Z M 4 7.683594 "/>
</g>
</svg>
