<svg xmlns="http://www.w3.org/2000/svg" xmlns:xlink="http://www.w3.org/1999/xlink" width="16" height="16" viewBox="0 0 16 16" version="1.1">
<g id="surface1">
<path style=" stroke:none;fill-rule:nonzero;fill:rgb(0%,80.000001%,100%);fill-opacity:1;" d="M 10 2.574219 L 10 2.667969 L 6.492188 7.453125 C 6.59375 7.480469 6.691406 7.515625 6.789062 7.554688 C 6.441406 7.414062 6.066406 7.332031 5.667969 7.332031 C 4.871094 7.332031 4.109375 7.652344 3.546875 8.214844 C 3.386719 8.371094 3.25 8.546875 3.128906 8.738281 L 4.523438 10.132812 L 3.59375 11.402344 C 3.816406 11.832031 4.167969 12.183594 4.597656 12.40625 L 5.867188 11.476562 L 7.261719 12.871094 C 7.453125 12.753906 7.628906 12.613281 7.785156 12.453125 C 8.347656 11.890625 8.664062 11.128906 8.667969 10.332031 C 8.667969 9.945312 8.585938 9.578125 8.453125 9.238281 C 8.488281 9.328125 8.523438 9.417969 8.550781 9.507812 L 13.332031 5.90625 Z M 4.609375 2.722656 L 2.722656 4.609375 L 5.171875 7.058594 L 7.058594 5.171875 Z M 10.828125 8.941406 L 8.941406 10.828125 L 11.390625 13.277344 L 13.277344 11.390625 Z M 3.164062 11.941406 L 2.667969 12.675781 L 3.332031 13.34375 L 4.011719 12.84375 C 3.675781 12.621094 3.386719 12.332031 3.164062 11.996094 Z M 3.164062 11.941406 "/>
</g>
</svg>
