<svg xmlns="http://www.w3.org/2000/svg" xmlns:xlink="http://www.w3.org/1999/xlink" width="16" height="16" viewBox="0 0 16 16" version="1.1">
<g id="surface1">
<path style=" stroke:none;fill-rule:nonzero;fill:rgb(96.862745%,0%,100%);fill-opacity:1;" d="M 5.015625 2.667969 L 6.953125 3.519531 C 6.628906 4.140625 6.222656 4.703125 5.75 5.210938 L 3.210938 2.679688 L 2.675781 2.679688 L 2.675781 3.3125 L 5.15625 5.78125 C 4.675781 6.199219 4.148438 6.558594 3.574219 6.84375 L 3.046875 5.65625 L 2.6875 4.816406 L 2.675781 6.832031 L 2.828125 7.171875 C 2.773438 7.191406 2.722656 7.21875 2.667969 7.238281 L 2.667969 8.109375 C 2.835938 8.058594 2.996094 7.984375 3.160156 7.921875 L 4.449219 10.832031 C 3.875 11.054688 3.28125 11.242188 2.667969 11.375 L 2.667969 12.222656 C 3.398438 12.074219 4.105469 11.855469 4.785156 11.585938 L 5.542969 13.292969 L 6.429688 13.292969 L 5.53125 11.261719 C 6.652344 10.726562 7.679688 10.03125 8.589844 9.199219 L 10.871094 11.472656 C 10.125 12.167969 9.316406 12.792969 8.445312 13.332031 L 9.925781 13.332031 C 10.464844 12.941406 10.96875 12.507812 11.457031 12.054688 L 12.699219 13.292969 L 13.292969 13.300781 L 13.296875 12.730469 L 12.039062 11.476562 C 12.496094 11.007812 12.933594 10.515625 13.332031 9.992188 L 13.332031 8.558594 C 12.785156 9.398438 12.152344 10.179688 11.457031 10.898438 L 9.179688 8.625 C 10.066406 7.699219 10.8125 6.636719 11.382812 5.46875 L 13.289062 6.308594 L 13.292969 5.414062 L 11.714844 4.730469 C 11.984375 4.070312 12.207031 3.386719 12.363281 2.679688 L 11.515625 2.679688 C 11.375 3.273438 11.1875 3.847656 10.960938 4.402344 L 8.027344 3.128906 C 8.085938 2.980469 8.15625 2.832031 8.207031 2.679688 L 7.332031 2.679688 C 7.3125 2.722656 7.292969 2.761719 7.273438 2.804688 L 6.953125 2.667969 Z M 7.703125 3.851562 L 10.632812 5.140625 C 10.105469 6.210938 9.414062 7.1875 8.59375 8.042969 L 6.332031 5.789062 C 6.875 5.210938 7.339844 4.5625 7.703125 3.851562 Z M 5.738281 6.363281 L 8.003906 8.617188 C 7.167969 9.378906 6.226562 10.015625 5.195312 10.507812 L 3.90625 7.597656 C 4.574219 7.265625 5.1875 6.851562 5.738281 6.363281 Z M 5.738281 6.363281 "/>
</g>
</svg>
