<svg xmlns="http://www.w3.org/2000/svg" xmlns:xlink="http://www.w3.org/1999/xlink" width="16" height="16" viewBox="0 0 16 16" version="1.1">
<g id="surface1">
<path style=" stroke:none;fill-rule:nonzero;fill:rgb(100%,74.901962%,0%);fill-opacity:1;" d="M 6.667969 4 C 4.089844 4 2.667969 5.785156 2.667969 7.988281 C 2.667969 10.191406 4.089844 11.832031 6.667969 11.832031 C 4.519531 11.832031 3.445312 9.824219 3.445312 7.988281 C 3.445312 6.152344 4.519531 4.664062 6.667969 4.664062 C 7.636719 4.664062 8.515625 4.980469 9.195312 5.484375 C 8.8125 5.367188 8.410156 5.308594 8 5.304688 C 6.160156 5.304688 4.667969 6.476562 4.667969 7.917969 L 4.667969 7.921875 C 4.667969 7.992188 4.671875 8.066406 4.679688 8.136719 C 4.808594 10.289062 6.839844 12 9.332031 12 C 11.910156 12 13.332031 10.171875 13.332031 7.917969 C 13.332031 5.664062 11.910156 4 9.332031 4 C 11.480469 4 12.554688 6.039062 12.554688 7.917969 C 12.554688 9.796875 11.480469 11.320312 9.332031 11.320312 C 8.21875 11.320312 7.214844 10.90625 6.507812 10.25 C 6.96875 10.429688 7.480469 10.527344 8 10.527344 C 9.804688 10.527344 11.277344 9.402344 11.328125 7.988281 L 11.332031 7.988281 C 11.332031 7.976562 11.332031 7.964844 11.332031 7.949219 C 11.332031 7.9375 11.332031 7.929688 11.332031 7.917969 C 11.332031 7.828125 11.324219 7.738281 11.3125 7.648438 C 11.109375 5.605469 9.109375 4 6.667969 4 Z M 6.667969 4 "/>
</g>
</svg>
