<svg xmlns="http://www.w3.org/2000/svg" xmlns:xlink="http://www.w3.org/1999/xlink" width="16" height="16" viewBox="0 0 16 16" version="1.1">
<g id="surface1">
<path style=" stroke:none;fill-rule:nonzero;fill:rgb(0%,80.000001%,100%);fill-opacity:1;" d="M 11.679688 4.003906 C 11.132812 4.003906 10.664062 4.484375 10.664062 5.019531 C 10.664062 5.550781 11.132812 6.003906 11.679688 6.003906 C 12.226562 6.003906 12.664062 5.550781 12.664062 5.019531 C 12.664062 4.484375 12.226562 4.003906 11.679688 4.003906 Z M 7.011719 4.667969 C 6.46875 4.667969 5.996094 5.152344 5.996094 5.683594 C 5.996094 6.21875 6.46875 6.667969 7.011719 6.667969 C 7.558594 6.667969 8 6.21875 7.996094 5.683594 C 8 5.152344 7.558594 4.667969 7.011719 4.667969 Z M 3.679688 7.335938 C 3.132812 7.335938 2.664062 7.816406 2.664062 8.351562 C 2.664062 8.886719 3.132812 9.335938 3.679688 9.335938 C 4.113281 9.335938 4.472656 9.050781 4.605469 8.667969 L 13.332031 8.667969 L 13.332031 8.003906 L 4.597656 8.003906 C 4.457031 7.625 4.101562 7.335938 3.679688 7.335938 Z M 12.347656 9.335938 C 11.800781 9.335938 11.328125 9.816406 11.332031 10.351562 C 11.328125 10.886719 11.800781 11.335938 12.347656 11.335938 C 12.890625 11.335938 13.332031 10.886719 13.332031 10.351562 C 13.332031 9.816406 12.890625 9.335938 12.347656 9.335938 Z M 8.679688 10.003906 C 8.132812 10.003906 7.664062 10.484375 7.664062 11.019531 C 7.664062 11.550781 8.132812 12.003906 8.679688 12.003906 C 9.226562 12.003906 9.664062 11.550781 9.664062 11.019531 C 9.664062 10.484375 9.226562 10.003906 8.679688 10.003906 Z M 8.679688 10.003906 "/>
</g>
</svg>
