<svg xmlns="http://www.w3.org/2000/svg" xmlns:xlink="http://www.w3.org/1999/xlink" width="16" height="16" viewBox="0 0 16 16" version="1.1">
<g id="surface1">
<path style=" stroke:none;fill-rule:nonzero;fill:rgb(23.921569%,68.235296%,91.37255%);fill-opacity:1;" d="M 13.460938 13.21875 L 9.546875 13.21875 L 9.546875 12.613281 L 11.097656 11.046875 C 11.5625 10.574219 11.871094 10.234375 12.023438 10.03125 C 12.175781 9.832031 12.285156 9.636719 12.359375 9.445312 C 12.433594 9.257812 12.472656 9.054688 12.472656 8.835938 C 12.472656 8.519531 12.378906 8.277344 12.195312 8.101562 C 12.007812 7.925781 11.753906 7.839844 11.429688 7.839844 C 11.1875 7.839844 10.953125 7.878906 10.738281 7.960938 C 10.519531 8.039062 10.277344 8.1875 10.003906 8.402344 L 9.613281 7.910156 C 10.167969 7.445312 10.773438 7.214844 11.429688 7.214844 C 11.980469 7.214844 12.414062 7.355469 12.738281 7.640625 C 13.058594 7.921875 13.222656 8.304688 13.222656 8.789062 C 13.222656 9.050781 13.175781 9.300781 13.082031 9.542969 C 12.984375 9.785156 12.84375 10.027344 12.65625 10.28125 C 12.464844 10.527344 12.148438 10.871094 11.703125 11.304688 L 10.46875 12.523438 L 10.46875 12.554688 L 13.460938 12.554688 Z M 13.460938 13.21875 "/>
<path style=" stroke:none;fill-rule:nonzero;fill:rgb(67.058825%,40.000001%,100%);fill-opacity:1;" d="M 2.667969 2.667969 L 2.667969 4 L 3.332031 4 L 3.332031 3.332031 L 4 3.332031 L 4 2.667969 Z M 6 2.667969 L 6 3.332031 L 7.332031 3.332031 L 7.332031 2.667969 Z M 8.667969 2.667969 L 8.667969 3.332031 L 10 3.332031 L 10 2.667969 Z M 12 2.667969 L 12 3.332031 L 12.667969 3.332031 L 12.667969 4 L 13.332031 4 L 13.332031 2.667969 Z M 6.667969 5.332031 L 6.667969 6 L 8.195312 6 L 6 8.195312 L 6.472656 8.667969 L 8.667969 6.472656 L 8.667969 8 L 9.332031 8 L 9.332031 5.332031 Z M 2.667969 6 L 2.667969 7.332031 L 3.332031 7.332031 L 3.332031 6 Z M 2.667969 9.332031 L 2.667969 13.332031 L 6.667969 13.332031 L 6.667969 9.332031 Z M 3.332031 10 L 6 10 L 6 12.667969 L 3.332031 12.667969 Z M 3.332031 10 "/>
</g>
</svg>
