<svg xmlns="http://www.w3.org/2000/svg" xmlns:xlink="http://www.w3.org/1999/xlink" width="16" height="16" viewBox="0 0 16 16" version="1.1">
<g id="surface1">
<path style=" stroke:none;fill-rule:nonzero;fill:rgb(23.921569%,68.235296%,91.37255%);fill-opacity:1;" d="M 7.476562 4.554688 L 5.355469 10.214844 L 5.980469 10.449219 L 7.855469 5.445312 L 12.203125 7.308594 L 12.464844 6.695312 Z M 7.476562 4.554688 "/>
<path style=" stroke:none;fill-rule:nonzero;fill:rgb(0%,80.000001%,100%);fill-opacity:1;" d="M 3.332031 2.667969 L 3.332031 12 L 2.667969 12 L 2.667969 12.667969 L 3.332031 12.667969 L 3.332031 13.332031 L 4 13.332031 L 4 12.667969 L 13.332031 12.667969 L 13.332031 12 L 4 12 L 4 2.667969 Z M 7.332031 4 L 7.332031 4.667969 L 8 4.667969 L 8 4 Z M 8 4.667969 L 8 5.332031 L 8.667969 5.332031 L 8.667969 4.667969 Z M 8 5.332031 L 7.332031 5.332031 L 7.332031 6 L 8 6 Z M 7.332031 5.332031 L 7.332031 4.667969 L 6.667969 4.667969 L 6.667969 5.332031 Z M 12 6 L 12 6.667969 L 12.667969 6.667969 L 12.667969 6 Z M 12.667969 6.667969 L 12.667969 7.332031 L 13.332031 7.332031 L 13.332031 6.667969 Z M 12.667969 7.332031 L 12 7.332031 L 12 8 L 12.667969 8 Z M 12 7.332031 L 12 6.667969 L 11.332031 6.667969 L 11.332031 7.332031 Z M 5.332031 9.332031 L 5.332031 10 L 6 10 L 6 9.332031 Z M 6 10 L 6 10.667969 L 6.667969 10.667969 L 6.667969 10 Z M 6 10.667969 L 5.332031 10.667969 L 5.332031 11.332031 L 6 11.332031 Z M 5.332031 10.667969 L 5.332031 10 L 4.667969 10 L 4.667969 10.667969 Z M 5.332031 10.667969 "/>
</g>
</svg>
