<svg xmlns="http://www.w3.org/2000/svg" xmlns:xlink="http://www.w3.org/1999/xlink" width="16" height="16" viewBox="0 0 16 16" version="1.1">
<g id="surface1">
<path style=" stroke:none;fill-rule:nonzero;fill:rgb(0%,80.000001%,100%);fill-opacity:1;" d="M 3.332031 2.667969 L 3.332031 12 L 2.667969 12 L 2.667969 12.667969 L 3.332031 12.667969 L 3.332031 13.332031 L 4 13.332031 L 4 12.667969 L 13.332031 12.667969 L 13.332031 12 L 6 12 L 6 10 L 8.667969 10 L 8.667969 6.667969 L 10.667969 6.667969 L 10.667969 4 L 13.332031 4 L 13.332031 3.332031 L 10 3.332031 L 10 6 L 8 6 L 8 9.332031 L 5.332031 9.332031 L 5.332031 12 L 4 12 L 4 2.667969 Z M 3.332031 2.667969 "/>
<path style=" stroke:none;fill-rule:nonzero;fill:rgb(23.921569%,68.235296%,91.37255%);fill-opacity:1;" d="M 13.332031 3.332031 C 12.210938 3.34375 11.253906 3.953125 10.421875 4.796875 C 9.585938 5.644531 8.847656 6.738281 8.140625 7.820312 C 7.429688 8.902344 6.746094 9.972656 6.054688 10.75 C 5.363281 11.527344 4.691406 11.984375 4 11.984375 L 4 12.652344 C 4.976562 12.652344 5.804688 12.03125 6.550781 11.191406 C 7.296875 10.351562 7.988281 9.265625 8.695312 8.1875 C 9.402344 7.109375 10.125 6.046875 10.894531 5.265625 C 11.664062 4.488281 12.457031 4.007812 13.335938 4 Z M 13.332031 3.332031 "/>
</g>
</svg>
