<svg xmlns="http://www.w3.org/2000/svg" xmlns:xlink="http://www.w3.org/1999/xlink" width="16" height="16" viewBox="0 0 16 16" version="1.1">
<g id="surface1">
<path style=" stroke:none;fill-rule:nonzero;fill:rgb(67.058825%,40.000001%,100%);fill-opacity:1;" d="M 2.667969 2.667969 L 2.667969 5.332031 L 3.332031 5.332031 L 3.332031 3.332031 L 5.332031 3.332031 L 5.332031 2.667969 Z M 7.332031 2.667969 L 7.332031 4.667969 L 4.667969 4.667969 L 4.667969 9.332031 L 2.667969 9.332031 L 2.667969 10 L 7.332031 10 L 7.332031 13.332031 L 8 13.332031 L 8 10 L 13.332031 10 L 13.332031 9.332031 L 11.332031 9.332031 L 11.332031 4.667969 L 8 4.667969 L 8 2.667969 Z M 10.667969 2.667969 L 10.667969 3.332031 L 12.667969 3.332031 L 12.667969 5.332031 L 13.332031 5.332031 L 13.332031 2.667969 Z M 5.332031 5.332031 L 7.332031 5.332031 L 7.332031 9.332031 L 5.332031 9.332031 Z M 8 5.332031 L 10.667969 5.332031 L 10.667969 9.332031 L 8 9.332031 Z M 2.667969 10.667969 L 2.667969 13.332031 L 5.332031 13.332031 L 5.332031 12.667969 L 3.332031 12.667969 L 3.332031 10.667969 Z M 12.667969 10.667969 L 12.667969 12.667969 L 10.667969 12.667969 L 10.667969 13.332031 L 13.332031 13.332031 L 13.332031 10.667969 Z M 12.667969 10.667969 "/>
<path style=" stroke:none;fill-rule:nonzero;fill:rgb(23.921569%,68.235296%,91.37255%);fill-opacity:1;" d="M 8 4 C 7.398438 4 6.910156 4.402344 6.511719 4.910156 C 6.117188 5.417969 5.789062 6.0625 5.519531 6.703125 C 4.980469 7.984375 4.675781 9.253906 4.675781 9.253906 L 5.324219 9.410156 C 5.324219 9.410156 5.621094 8.179688 6.136719 6.960938 C 6.390625 6.351562 6.703125 5.75 7.039062 5.320312 C 7.371094 4.890625 7.703125 4.671875 7.996094 4.667969 C 8.277344 4.679688 8.519531 4.792969 8.765625 5.03125 C 9.015625 5.273438 9.261719 5.636719 9.484375 6.089844 C 9.914062 6.957031 10.273438 8.136719 10.632812 9.332031 L 11.332031 9.332031 C 11.328125 9.320312 11.324219 9.3125 11.320312 9.300781 C 10.945312 8.050781 10.570312 6.785156 10.082031 5.792969 C 9.835938 5.300781 9.5625 4.871094 9.226562 4.550781 C 8.890625 4.226562 8.476562 4.011719 8.007812 4 Z M 8 4 "/>
</g>
</svg>
