<svg xmlns="http://www.w3.org/2000/svg" xmlns:xlink="http://www.w3.org/1999/xlink" width="16" height="16" viewBox="0 0 16 16" version="1.1">
<g id="surface1">
<path style=" stroke:none;fill-rule:nonzero;fill:rgb(100%,30.980393%,30.980393%);fill-opacity:1;" d="M 11.8125 2.667969 L 10.664062 4.660156 L 10.664062 6 L 8.664062 6 L 7.996094 6.667969 L 7.996094 3.332031 L 7.328125 3.332031 L 7.328125 7.328125 L 7.324219 7.332031 L 7.328125 7.332031 L 6.660156 8 L 2.664062 8 L 2.664062 8.667969 L 5.992188 8.667969 L 4.664062 9.996094 L 4.664062 12.667969 L 2.664062 12.667969 L 2.664062 13.332031 L 5.328125 13.332031 L 5.328125 10.273438 L 5.601562 10 L 5.605469 10 L 6.9375 8.667969 L 7.328125 8.667969 L 7.328125 13.332031 L 7.996094 13.332031 L 7.996094 8.667969 L 12.664062 8.667969 L 12.664062 8 L 7.996094 8 L 7.996094 7.609375 L 8.9375 6.667969 L 11.328125 6.667969 L 11.328125 4.839844 L 12.199219 3.332031 L 13.328125 3.332031 L 13.328125 2.667969 Z M 11.8125 2.667969 "/>
</g>
</svg>
