<svg xmlns="http://www.w3.org/2000/svg" xmlns:xlink="http://www.w3.org/1999/xlink" width="16" height="16" viewBox="0 0 16 16" version="1.1">
<g id="surface1">
<path style=" stroke:none;fill-rule:nonzero;fill:rgb(100%,30.980393%,30.980393%);fill-opacity:1;" d="M 8 3.335938 C 7.378906 3.335938 6.847656 3.667969 6.371094 4.097656 C 5.894531 4.53125 5.453125 5.082031 4.996094 5.621094 C 4.433594 6.398438 2.996094 7.445312 2.667969 7.621094 L 2.667969 8.335938 C 3.515625 8.335938 3.578125 8.863281 4.265625 9.570312 C 4.292969 9.648438 4.316406 9.730469 4.351562 9.796875 C 4.402344 9.902344 4.441406 10.019531 4.632812 10.101562 L 4.710938 10.132812 L 4.765625 10.128906 C 4.839844 10.214844 4.917969 10.292969 4.996094 10.382812 C 5.449219 10.921875 5.894531 11.472656 6.371094 11.90625 C 6.847656 12.339844 7.378906 12.667969 8 12.667969 C 8.621094 12.667969 9.152344 12.339844 9.628906 11.90625 C 10.105469 11.472656 10.546875 10.921875 11.003906 10.382812 C 11.914062 9.308594 12.179688 8.335938 13.332031 8.335938 L 13.332031 7.667969 C 12.8125 7.667969 13 7.460938 12.550781 7.144531 C 12.484375 7.085938 12.417969 7.027344 12.355469 6.964844 C 12.160156 6.777344 11.984375 6.589844 11.828125 6.441406 C 11.75 6.367188 11.679688 6.300781 11.597656 6.246094 C 11.574219 6.230469 11.546875 6.214844 11.519531 6.199219 C 11.347656 6.011719 11.175781 5.824219 11.003906 5.621094 C 10.546875 5.082031 10.105469 4.53125 9.628906 4.097656 C 9.152344 3.667969 8.621094 3.335938 8 3.335938 Z M 8 4.003906 C 8.378906 4.003906 8.761719 4.214844 9.183594 4.59375 C 9.601562 4.972656 10.035156 5.507812 10.496094 6.050781 C 10.578125 6.148438 10.667969 6.242188 10.75 6.335938 C 10.710938 6.371094 10.671875 6.40625 10.640625 6.445312 C 10.484375 6.621094 10.363281 6.839844 10.253906 7.089844 C 10.03125 7.59375 9.855469 8.230469 9.695312 8.867188 C 9.535156 9.5 9.398438 10.136719 9.269531 10.597656 C 9.242188 10.699219 9.21875 10.75 9.191406 10.832031 C 9.128906 10.667969 9.066406 10.503906 8.996094 10.253906 C 8.804688 9.578125 8.59375 8.65625 8.390625 7.734375 C 8.1875 6.816406 7.988281 5.894531 7.808594 5.195312 C 7.71875 4.84375 7.636719 4.550781 7.550781 4.332031 C 7.523438 4.257812 7.492188 4.199219 7.464844 4.140625 C 7.644531 4.054688 7.824219 4.003906 8 4.003906 Z M 6.957031 4.664062 C 7.019531 4.839844 7.085938 5.0625 7.160156 5.359375 C 7.335938 6.039062 7.535156 6.957031 7.738281 7.878906 C 7.945312 8.804688 8.15625 9.730469 8.355469 10.4375 C 8.457031 10.792969 8.554688 11.089844 8.65625 11.316406 C 8.707031 11.433594 8.757812 11.53125 8.828125 11.621094 C 8.839844 11.636719 8.859375 11.648438 8.875 11.664062 C 8.570312 11.882812 8.285156 12.003906 8 12.003906 C 7.621094 12.003906 7.238281 11.792969 6.816406 11.410156 C 6.398438 11.03125 5.964844 10.5 5.503906 9.953125 C 5.460938 9.90625 5.414062 9.855469 5.371094 9.804688 C 5.402344 9.773438 5.429688 9.746094 5.453125 9.710938 C 5.613281 9.503906 5.730469 9.253906 5.835938 8.964844 C 6.046875 8.394531 6.203125 7.679688 6.347656 6.976562 C 6.492188 6.277344 6.628906 5.585938 6.777344 5.097656 C 6.839844 4.902344 6.898438 4.773438 6.957031 4.664062 Z M 5.996094 5.472656 C 5.894531 5.902344 5.792969 6.363281 5.695312 6.84375 C 5.550781 7.539062 5.394531 8.234375 5.210938 8.734375 C 5.121094 8.984375 5.019531 9.183594 4.925781 9.304688 C 4.898438 9.273438 4.875 9.242188 4.847656 9.210938 C 4.785156 9.003906 4.71875 8.738281 4.648438 8.460938 C 4.570312 8.167969 4.492188 7.871094 4.386719 7.625 C 4.347656 7.535156 4.300781 7.453125 4.246094 7.371094 C 4.707031 6.976562 5.117188 6.507812 5.503906 6.050781 C 5.671875 5.851562 5.835938 5.660156 5.996094 5.472656 Z M 11.195312 6.839844 C 11.488281 7.148438 11.800781 7.433594 12.136719 7.675781 C 12.277344 7.808594 12.425781 7.933594 12.589844 8.046875 C 11.773438 8.484375 11.101562 9.238281 10.496094 9.953125 C 10.3125 10.171875 10.136719 10.378906 9.960938 10.582031 C 10.082031 10.121094 10.203125 9.582031 10.34375 9.027344 C 10.5 8.40625 10.675781 7.789062 10.863281 7.359375 C 10.957031 7.144531 11.058594 6.976562 11.136719 6.882812 C 11.175781 6.839844 11.179688 6.847656 11.195312 6.839844 Z M 3.722656 7.796875 C 3.738281 7.824219 3.753906 7.839844 3.773438 7.890625 C 3.824219 8.003906 3.875 8.195312 3.921875 8.367188 C 3.730469 8.226562 3.53125 8.105469 3.320312 8.003906 C 3.417969 7.953125 3.515625 7.90625 3.605469 7.851562 C 3.644531 7.832031 3.683594 7.816406 3.722656 7.796875 Z M 3.722656 7.796875 "/>
</g>
</svg>
