<svg xmlns="http://www.w3.org/2000/svg" xmlns:xlink="http://www.w3.org/1999/xlink" width="16" height="16" viewBox="0 0 16 16" version="1.1">
<g id="surface1">
<path style=" stroke:none;fill-rule:nonzero;fill:rgb(0%,100%,66.666669%);fill-opacity:1;" d="M 4.667969 2.667969 L 2 5.332031 L 2 13.332031 L 4 13.332031 L 4 12.667969 L 2.667969 12.667969 L 2.667969 6 L 5.332031 6 L 5.332031 3.332031 L 13.332031 3.332031 L 13.332031 5.332031 L 14 5.332031 L 14 2.667969 Z M 10 5.332031 L 7.332031 8 L 6 8 L 6 8.667969 L 7.609375 8.667969 L 10 6.273438 L 11.417969 7.691406 L 11.421875 7.6875 L 11.421875 7.691406 L 13.308594 5.804688 C 13.3125 5.808594 12.835938 5.332031 12.835938 5.332031 L 11.421875 6.75 L 10.003906 5.332031 L 10 5.335938 Z M 5.332031 6.667969 L 5.332031 13.332031 L 10 13.332031 L 10 12.667969 L 6 12.667969 L 6 10 L 7.640625 10 L 9.996094 12.355469 L 10 12.355469 L 10 11.414062 L 7.917969 9.332031 L 6 9.332031 L 6 6.667969 Z M 12 10 L 12 11.332031 L 10.667969 11.332031 L 10.667969 12 L 12 12 L 12 13.332031 L 12.667969 13.332031 L 12.667969 12 L 14 12 L 14 11.332031 L 12.667969 11.332031 L 12.667969 10 Z M 12 10 "/>
</g>
</svg>
