<svg xmlns="http://www.w3.org/2000/svg" xmlns:xlink="http://www.w3.org/1999/xlink" width="16" height="16" viewBox="0 0 16 16" version="1.1">
<g id="surface1">
<path style=" stroke:none;fill-rule:nonzero;fill:rgb(100%,30.980393%,30.980393%);fill-opacity:1;" d="M 3.332031 2.667969 L 3.332031 4 L 2.667969 4 L 2.667969 6 L 3.332031 6 L 3.332031 10 L 2.667969 10 L 2.667969 12 L 3.332031 12 L 3.332031 13.332031 L 4.667969 13.332031 L 4.667969 12.667969 L 4 12.667969 L 4 3.332031 L 12.667969 3.332031 L 12.667969 4.667969 L 13.332031 4.667969 L 13.332031 2.667969 Z M 9.332031 5.332031 C 7.125 5.332031 5.332031 5.929688 5.332031 6.667969 L 5.332031 12 C 5.332031 12.738281 7.125 13.332031 9.332031 13.332031 C 9.558594 13.332031 9.78125 13.328125 10 13.3125 L 10 12.652344 C 9.78125 12.660156 9.558594 12.667969 9.332031 12.667969 C 7.492188 12.667969 6 12.367188 6 12 L 6 10.066406 C 6.738281 10.441406 7.992188 10.667969 9.332031 10.667969 C 9.558594 10.664062 9.78125 10.660156 10 10.644531 L 10 9.984375 C 9.78125 9.996094 9.558594 10 9.332031 10 C 7.492188 10 6 9.703125 6 9.332031 L 6 7.402344 C 6.738281 7.773438 7.992188 8 9.332031 8 C 10.675781 8 11.925781 7.773438 12.667969 7.402344 L 12.667969 9.332031 L 13.332031 9.332031 L 13.332031 6.667969 C 13.332031 5.929688 11.542969 5.332031 9.332031 5.332031 Z M 9.332031 6 C 11.175781 6 12.667969 6.296875 12.667969 6.667969 C 12.667969 7.035156 11.175781 7.332031 9.332031 7.332031 C 7.492188 7.332031 6 7.035156 6 6.667969 C 6 6.296875 7.492188 6 9.332031 6 Z M 12 10 L 12 11.332031 L 10.667969 11.332031 L 10.667969 12 L 12 12 L 12 13.332031 L 12.667969 13.332031 L 12.667969 12 L 14 12 L 14 11.332031 L 12.667969 11.332031 L 12.667969 10 Z M 12 10 "/>
</g>
</svg>
