<svg xmlns="http://www.w3.org/2000/svg" xmlns:xlink="http://www.w3.org/1999/xlink" width="16" height="16" viewBox="0 0 16 16" version="1.1">
<g id="surface1">
<path style=" stroke:none;fill-rule:nonzero;fill:rgb(67.058825%,40.000001%,100%);fill-opacity:1;" d="M 2 2.667969 L 2 13.332031 L 2.667969 13.332031 L 2.667969 8.667969 L 8 8.667969 L 8 12.667969 L 14 12.667969 L 14 8 L 8.667969 8 L 8.667969 3.332031 L 2.667969 3.332031 L 2.667969 2.667969 Z M 2.667969 4 L 8 4 L 8 8 L 2.667969 8 Z M 8.667969 8.667969 L 13.332031 8.667969 L 13.332031 12 L 8.667969 12 Z M 8.667969 8.667969 "/>
<path style=" stroke:none;fill-rule:nonzero;fill:rgb(23.921569%,68.235296%,91.37255%);fill-opacity:1;" d="M 5.332031 2.667969 C 4.730469 2.667969 4.242188 3.070312 3.847656 3.578125 C 3.449219 4.085938 3.125 4.730469 2.855469 5.371094 C 2.316406 6.652344 2.007812 7.921875 2.007812 7.921875 L 2.65625 8.078125 C 2.65625 8.078125 2.957031 6.847656 3.46875 5.628906 C 3.726562 5.019531 4.035156 4.414062 4.371094 3.984375 C 4.703125 3.558594 5.039062 3.335938 5.328125 3.335938 C 5.609375 3.34375 5.851562 3.460938 6.101562 3.699219 C 6.351562 3.9375 6.59375 4.304688 6.816406 4.757812 C 7.265625 5.664062 7.640625 6.90625 8.015625 8.15625 C 8.390625 9.40625 8.765625 10.664062 9.253906 11.632812 C 9.5 12.121094 9.773438 12.539062 10.113281 12.84375 C 10.453125 13.152344 10.871094 13.34375 11.339844 13.332031 C 11.921875 13.328125 12.367188 12.910156 12.691406 12.398438 C 13.019531 11.882812 13.261719 11.238281 13.453125 10.59375 C 13.835938 9.3125 13.996094 8.042969 13.996094 8.042969 L 13.335938 7.957031 C 13.335938 7.957031 13.175781 9.1875 12.816406 10.40625 C 12.632812 11.011719 12.398438 11.617188 12.128906 12.039062 C 11.859375 12.464844 11.59375 12.667969 11.332031 12.667969 L 11.324219 12.667969 C 11.042969 12.675781 10.808594 12.574219 10.5625 12.351562 C 10.316406 12.125 10.074219 11.773438 9.851562 11.332031 C 9.402344 10.449219 9.027344 9.214844 8.652344 7.964844 C 8.277344 6.714844 7.90625 5.449219 7.414062 4.460938 C 7.171875 3.964844 6.898438 3.539062 6.5625 3.214844 C 6.226562 2.894531 5.808594 2.679688 5.34375 2.667969 Z M 5.332031 2.667969 "/>
</g>
</svg>
