<svg xmlns="http://www.w3.org/2000/svg" xmlns:xlink="http://www.w3.org/1999/xlink" width="16" height="16" viewBox="0 0 16 16" version="1.1">
<g id="surface1">
<path style=" stroke:none;fill-rule:nonzero;fill:rgb(0%,80.000001%,100%);fill-opacity:1;" d="M 2.667969 2.667969 L 2.667969 4 L 3.332031 4 L 3.332031 3.332031 L 4 3.332031 L 4 2.667969 Z M 6 2.667969 L 6 3.332031 L 7.332031 3.332031 L 7.332031 2.667969 Z M 8.667969 2.667969 L 8.667969 3.332031 L 10 3.332031 L 10 2.667969 Z M 12 2.667969 L 12 3.332031 L 12.667969 3.332031 L 12.667969 4 L 13.332031 4 L 13.332031 2.667969 Z M 6.667969 5.332031 L 6.667969 6 L 8.195312 6 L 6 8.195312 L 6.472656 8.667969 L 8.667969 6.472656 L 8.667969 8 L 9.332031 8 L 9.332031 5.332031 Z M 2.667969 6 L 2.667969 7.332031 L 3.332031 7.332031 L 3.332031 6 Z M 2.667969 9.332031 L 2.667969 13.332031 L 6.667969 13.332031 L 6.667969 9.332031 Z M 3.332031 10 L 6 10 L 6 12.667969 L 3.332031 12.667969 Z M 3.332031 10 "/>
<path style=" stroke:none;fill-rule:nonzero;fill:rgb(23.921569%,68.235296%,91.37255%);fill-opacity:1;" d="M 13.332031 13.332031 L 12.667969 13.332031 L 12.667969 8 C 12.328125 8.292969 11.613281 8.949219 11.269531 9.230469 L 10.890625 8.796875 L 12.667969 7.332031 L 13.332031 7.332031 Z M 13.332031 13.332031 "/>
</g>
</svg>
