<svg xmlns="http://www.w3.org/2000/svg" xmlns:xlink="http://www.w3.org/1999/xlink" width="16" height="16" viewBox="0 0 16 16" version="1.1">
<g id="surface1">
<path style=" stroke:none;fill-rule:nonzero;fill:rgb(100%,74.901962%,0%);fill-opacity:1;" d="M 11.851562 4.648438 L 11.832031 4.6875 C 11.78125 4.679688 11.734375 4.671875 11.679688 4.671875 C 11.136719 4.671875 10.664062 5.152344 10.664062 5.6875 C 10.664062 5.925781 10.761719 6.144531 10.917969 6.316406 L 8.835938 10.019531 C 8.785156 10.011719 8.734375 10.003906 8.679688 10.003906 C 8.671875 10.003906 8.664062 10.007812 8.65625 10.007812 L 7.625 7.117188 C 7.851562 6.933594 8 6.660156 8 6.351562 C 8 5.820312 7.558594 5.335938 7.015625 5.335938 C 6.46875 5.335938 5.996094 5.820312 6 6.351562 C 6 6.390625 6.003906 6.429688 6.011719 6.464844 L 4.355469 7.292969 C 4.179688 7.117188 3.945312 7.003906 3.679688 7.003906 C 3.136719 7.003906 2.664062 7.484375 2.664062 8.019531 C 2.664062 8.554688 3.136719 9.003906 3.679688 9.003906 C 4.226562 9.003906 4.667969 8.554688 4.664062 8.019531 C 4.664062 7.96875 4.65625 7.921875 4.652344 7.875 L 6.304688 7.046875 C 6.488281 7.222656 6.738281 7.332031 7.003906 7.335938 L 8.046875 10.246094 C 7.816406 10.4375 7.664062 10.71875 7.664062 11.019531 C 7.664062 11.554688 8.136719 12.003906 8.679688 12.003906 C 9.226562 12.003906 9.667969 11.554688 9.664062 11.019531 C 9.664062 10.773438 9.570312 10.539062 9.414062 10.359375 L 11.476562 6.691406 L 11.871094 9.472656 C 11.554688 9.648438 11.332031 9.988281 11.332031 10.351562 C 11.332031 10.886719 11.800781 11.335938 12.347656 11.335938 C 12.894531 11.335938 13.332031 10.886719 13.332031 10.351562 C 13.332031 9.878906 12.988281 9.453125 12.53125 9.359375 L 12.132812 6.554688 C 12.449219 6.390625 12.667969 6.058594 12.664062 5.6875 C 12.667969 5.210938 12.320312 4.78125 11.859375 4.691406 Z M 11.851562 4.648438 "/>
</g>
</svg>
