<svg xmlns="http://www.w3.org/2000/svg" xmlns:xlink="http://www.w3.org/1999/xlink" width="16" height="16" viewBox="0 0 16 16" version="1.1">
<g id="surface1">
<path style=" stroke:none;fill-rule:nonzero;fill:rgb(0%,80.000001%,100%);fill-opacity:1;" d="M 4.667969 3.332031 C 3.929688 3.332031 3.332031 3.929688 3.332031 4.667969 L 3.332031 11.332031 C 3.332031 12.070312 3.929688 12.667969 4.667969 12.667969 L 11.332031 12.667969 C 12.070312 12.667969 12.667969 12.070312 12.667969 11.332031 L 12.667969 8.667969 L 11.332031 8.664062 L 11.332031 11.332031 L 4.667969 11.332031 L 4.667969 4.667969 L 7.332031 4.667969 L 7.332031 3.332031 Z M 8 3.332031 L 8 4.667969 L 10.390625 4.667969 L 7.394531 7.664062 L 6.921875 8.132812 L 6.925781 8.136719 C 6.761719 8.261719 6.660156 8.457031 6.660156 8.667969 C 6.660156 9.035156 6.957031 9.332031 7.328125 9.332031 C 7.535156 9.332031 7.730469 9.238281 7.855469 9.074219 L 7.859375 9.078125 L 11.328125 5.609375 L 11.328125 8 L 12.660156 8.003906 L 12.660156 3.332031 Z M 8 3.332031 "/>
</g>
</svg>
