<svg xmlns="http://www.w3.org/2000/svg" xmlns:xlink="http://www.w3.org/1999/xlink" width="16" height="16" viewBox="0 0 16 16" version="1.1">
<g id="surface1">
<path style=" stroke:none;fill-rule:nonzero;fill:rgb(32.156864%,58.039218%,88.627452%);fill-opacity:1;" d="M 4.667969 3.332031 C 3.929688 3.332031 3.332031 3.929688 3.332031 4.667969 L 3.332031 11.332031 C 3.332031 12.070312 3.929688 12.667969 4.667969 12.667969 L 11.332031 12.667969 C 12.070312 12.667969 12.667969 12.070312 12.667969 11.332031 L 12.667969 4.667969 C 12.667969 3.929688 12.070312 3.332031 11.332031 3.332031 Z M 8 5.332031 C 8.738281 5.332031 9.332031 5.929688 9.332031 6.667969 C 9.332031 7.402344 8.738281 8 8 8 C 7.261719 8 6.667969 7.402344 6.667969 6.667969 C 6.667969 5.929688 7.261719 5.332031 8 5.332031 Z M 8 8.667969 C 10.667969 8.664062 10.667969 10.445312 10.667969 10.445312 L 10.667969 10.667969 L 5.332031 10.667969 L 5.332031 10.445312 C 5.332031 10.445312 5.332031 8.667969 8 8.667969 Z M 8 8.667969 "/>
</g>
</svg>
