<svg xmlns="http://www.w3.org/2000/svg" xmlns:xlink="http://www.w3.org/1999/xlink" width="16" height="16" viewBox="0 0 16 16" version="1.1">
<g id="surface1">
<path style=" stroke:none;fill-rule:nonzero;fill:rgb(96.862745%,0%,100%);fill-opacity:1;" d="M 5.332031 4 L 5.332031 5.332031 L 10 5.332031 C 11.121094 5.332031 12 6.214844 12 7.332031 C 12 8.453125 11.121094 9.332031 10 9.332031 L 9.332031 9.332031 L 9.332031 8 L 6 10 L 9.332031 12 L 9.332031 10.667969 L 10 10.667969 C 11.832031 10.734375 13.332031 9.167969 13.332031 7.332031 C 13.332031 5.5 11.835938 4 10 4 Z M 4 8.667969 C 3.261719 8.667969 2.667969 9.261719 2.667969 10 C 2.667969 10.738281 3.261719 11.332031 4 11.332031 C 4.738281 11.332031 5.332031 10.738281 5.332031 10 C 5.332031 9.261719 4.738281 8.667969 4 8.667969 Z M 4 8.667969 "/>
</g>
</svg>
