<svg xmlns="http://www.w3.org/2000/svg" xmlns:xlink="http://www.w3.org/1999/xlink" width="16" height="16" viewBox="0 0 16 16" version="1.1">
<g id="surface1">
<path style=" stroke:none;fill-rule:nonzero;fill:rgb(100%,74.901962%,0%);fill-opacity:1;" d="M 4 4 C 3.261719 4 2.667969 4.59375 2.667969 5.332031 L 2.667969 10.667969 C 2.667969 11.40625 3.261719 12 4 12 L 8.667969 12 L 8.667969 10.667969 C 8.667969 10.488281 8.738281 10.320312 8.863281 10.195312 L 10.863281 8.195312 L 11.527344 7.527344 C 11.652344 7.40625 11.816406 7.335938 11.992188 7.332031 C 12.171875 7.332031 12.34375 7.402344 12.472656 7.527344 L 13.332031 8.390625 L 13.332031 5.332031 C 13.332031 4.59375 12.738281 4 12 4 Z M 4 5.332031 L 8 7.332031 L 12 5.332031 L 12 6.667969 L 8 8.667969 L 4 6.667969 Z M 12 8 L 9.332031 10.667969 L 9.332031 12 L 10.667969 12 L 11.0625 11.605469 L 11.332031 11.332031 L 12 10.667969 L 12.667969 10 L 13.332031 9.332031 Z M 12 8 "/>
</g>
</svg>
