<svg xmlns="http://www.w3.org/2000/svg" xmlns:xlink="http://www.w3.org/1999/xlink" width="16" height="16" viewBox="0 0 16 16" version="1.1">
<g id="surface1">
<path style=" stroke:none;fill-rule:nonzero;fill:rgb(0%,80.000001%,100%);fill-opacity:1;" d="M 6.148438 3.332031 L 5.9375 3.519531 L 3.523438 5.9375 L 3.335938 6.144531 L 3.335938 9.855469 L 3.523438 10.0625 L 5.9375 12.480469 L 6.148438 12.667969 L 9.855469 12.667969 L 10.0625 12.480469 L 12.480469 10.0625 L 12.667969 9.855469 L 12.667969 6.144531 L 12.480469 5.9375 L 10.0625 3.519531 L 9.855469 3.332031 Z M 7.335938 5.332031 L 8.667969 5.332031 L 8.667969 7.332031 L 8.5 8.667969 L 7.523438 8.667969 L 7.335938 7.332031 Z M 8 9.167969 C 8.460938 9.167969 8.835938 9.539062 8.835938 10 C 8.835938 10.460938 8.460938 10.832031 8 10.832031 C 7.542969 10.832031 7.167969 10.460938 7.167969 10 C 7.167969 9.539062 7.542969 9.167969 8 9.167969 Z M 8 9.167969 "/>
</g>
</svg>
