<svg xmlns="http://www.w3.org/2000/svg" xmlns:xlink="http://www.w3.org/1999/xlink" width="16" height="16" viewBox="0 0 16 16" version="1.1">
<g id="surface1">
<path style=" stroke:none;fill-rule:nonzero;fill:rgb(100%,74.901962%,0%);fill-opacity:1;" d="M 4.003906 4.003906 C 3.265625 4.003906 2.671875 4.597656 2.671875 5.335938 L 2.671875 10.667969 C 2.671875 11.40625 3.265625 12.003906 4.003906 12.003906 L 9.292969 12.003906 C 9.289062 11.988281 9.289062 11.976562 9.289062 11.960938 L 9.289062 9.960938 C 9.289062 9.59375 9.589844 9.292969 9.957031 9.292969 L 9.957031 8.960938 C 9.957031 8.046875 10.710938 7.292969 11.625 7.292969 C 12.535156 7.292969 13.289062 8.046875 13.289062 8.960938 L 13.289062 9.292969 C 13.304688 9.292969 13.320312 9.292969 13.335938 9.296875 L 13.335938 5.335938 C 13.335938 4.597656 12.742188 4.003906 12.003906 4.003906 Z M 4.003906 5.335938 L 8.003906 7.335938 L 12.003906 5.335938 L 12.003906 6.667969 L 8.003906 8.667969 L 4.003906 6.667969 Z M 11.625 7.960938 C 11.070312 7.960938 10.625 8.410156 10.625 8.960938 L 10.625 9.960938 L 9.957031 9.960938 L 9.957031 11.960938 L 13.289062 11.960938 L 13.289062 9.960938 L 12.625 9.960938 L 12.625 8.960938 C 12.625 8.410156 12.175781 7.960938 11.625 7.960938 Z M 11.625 8.628906 C 11.808594 8.628906 11.957031 8.777344 11.957031 8.960938 L 11.957031 9.960938 L 11.289062 9.960938 L 11.289062 8.960938 C 11.289062 8.777344 11.441406 8.628906 11.625 8.628906 Z M 11.625 8.628906 "/>
</g>
</svg>
