<svg xmlns="http://www.w3.org/2000/svg" xmlns:xlink="http://www.w3.org/1999/xlink" width="16" height="16" viewBox="0 0 16 16" version="1.1">
<g id="surface1">
<path style=" stroke:none;fill-rule:nonzero;fill:rgb(0%,80.000001%,100%);fill-opacity:1;" d="M 5.667969 4.667969 C 4.378906 4.667969 3.332031 6.160156 3.332031 8 C 3.332031 9.839844 4.378906 11.332031 5.667969 11.332031 C 6.957031 11.332031 8 9.839844 8 8 C 8 6.160156 6.957031 4.667969 5.667969 4.667969 Z M 8 8 C 8 9.839844 9.042969 11.332031 10.332031 11.332031 C 11.621094 11.332031 12.667969 9.839844 12.667969 8 C 12.667969 6.160156 11.621094 4.667969 10.332031 4.667969 C 9.042969 4.667969 8 6.160156 8 8 Z M 6 8 C 6.738281 8 7.332031 8.597656 7.332031 9.332031 C 7.332031 10.070312 6.738281 10.667969 6 10.667969 C 5.261719 10.667969 4.667969 10.070312 4.667969 9.332031 C 4.667969 8.597656 5.261719 8 6 8 Z M 10.667969 8 C 11.402344 8 12 8.597656 12 9.332031 C 12 10.070312 11.402344 10.667969 10.667969 10.667969 C 9.929688 10.667969 9.332031 10.070312 9.332031 9.332031 C 9.332031 8.597656 9.929688 8 10.667969 8 Z M 10.667969 8 "/>
</g>
</svg>
