<svg xmlns="http://www.w3.org/2000/svg" xmlns:xlink="http://www.w3.org/1999/xlink" width="16" height="16" viewBox="0 0 16 16" version="1.1">
<g id="surface1">
<path style=" stroke:none;fill-rule:nonzero;fill:rgb(0%,100%,66.666669%);fill-opacity:1;" d="M 9.859375 3.332031 C 9.230469 3.332031 8.644531 3.621094 8.25 4.125 L 4.460938 8.976562 C 4.113281 9.417969 3.957031 9.976562 4.015625 10.546875 C 4.070312 11.113281 4.339844 11.625 4.769531 11.984375 L 5.015625 12.191406 C 5.382812 12.5 5.839844 12.667969 6.3125 12.667969 C 6.386719 12.667969 6.457031 12.664062 6.53125 12.65625 C 7.078125 12.59375 7.566406 12.320312 7.914062 11.882812 C 7.914062 11.882812 7.914062 11.882812 10.46875 8.613281 C 10.921875 8.03125 10.835938 7.171875 10.273438 6.703125 L 10.144531 6.59375 C 9.914062 6.398438 9.621094 6.292969 9.320312 6.292969 C 8.921875 6.292969 8.550781 6.472656 8.300781 6.792969 L 5.75 10.058594 C 5.582031 10.273438 5.613281 10.585938 5.820312 10.761719 C 5.90625 10.832031 6.011719 10.871094 6.121094 10.871094 C 6.269531 10.871094 6.40625 10.804688 6.496094 10.6875 L 9.046875 7.421875 C 9.113281 7.335938 9.214844 7.285156 9.320312 7.285156 C 9.402344 7.285156 9.476562 7.316406 9.539062 7.367188 L 9.667969 7.476562 C 9.742188 7.535156 9.785156 7.625 9.796875 7.71875 C 9.808594 7.816406 9.78125 7.910156 9.722656 7.984375 L 7.171875 11.246094 C 6.960938 11.515625 6.648438 11.671875 6.3125 11.671875 C 6.0625 11.671875 5.816406 11.582031 5.621094 11.417969 L 5.375 11.210938 C 5.144531 11.019531 5 10.746094 4.96875 10.441406 C 4.9375 10.136719 5.023438 9.839844 5.210938 9.601562 L 9 4.753906 C 9.210938 4.484375 9.523438 4.328125 9.859375 4.328125 C 10.109375 4.328125 10.355469 4.417969 10.550781 4.582031 L 10.796875 4.789062 C 11.273438 5.1875 11.34375 5.90625 10.960938 6.398438 C 10.882812 6.5 10.84375 6.628906 10.859375 6.761719 C 10.871094 6.894531 10.933594 7.015625 11.035156 7.097656 C 11.121094 7.167969 11.226562 7.207031 11.335938 7.207031 C 11.480469 7.207031 11.617188 7.140625 11.710938 7.023438 C 12.054688 6.582031 12.214844 6.023438 12.15625 5.453125 C 12.101562 4.886719 11.832031 4.375 11.402344 4.015625 L 11.15625 3.808594 C 10.792969 3.5 10.332031 3.332031 9.859375 3.332031 Z M 9.859375 3.332031 "/>
</g>
</svg>
