<svg xmlns="http://www.w3.org/2000/svg" xmlns:xlink="http://www.w3.org/1999/xlink" width="16" height="16" viewBox="0 0 16 16" version="1.1">
<g id="surface1">
<path style=" stroke:none;fill-rule:nonzero;fill:rgb(100%,74.901962%,0%);fill-opacity:1;" d="M 4 4.003906 C 3.261719 4.003906 2.667969 4.597656 2.667969 5.335938 L 2.667969 10.667969 C 2.667969 11.40625 3.261719 12.003906 4 12.003906 L 12 12.003906 C 12.738281 12.003906 13.332031 11.40625 13.332031 10.667969 L 13.332031 5.335938 C 13.332031 4.597656 12.738281 4.003906 12 4.003906 Z M 11.015625 5.273438 C 11.269531 5.296875 11.457031 5.480469 11.457031 5.480469 C 11.457031 5.480469 11.9375 5.964844 11.457031 6.421875 L 7.214844 10.667969 L 4.855469 8.308594 C 4.605469 8.070312 4.605469 7.605469 4.855469 7.363281 C 5.105469 7.125 5.546875 7.125 5.796875 7.363281 L 7.210938 8.78125 L 10.511719 5.480469 C 10.6875 5.304688 10.863281 5.257812 11.015625 5.273438 Z M 11.015625 5.273438 "/>
</g>
</svg>
