<svg xmlns="http://www.w3.org/2000/svg" xmlns:xlink="http://www.w3.org/1999/xlink" width="16" height="16" viewBox="0 0 16 16" version="1.1">
<g id="surface1">
<path style=" stroke:none;fill-rule:nonzero;fill:rgb(100%,30.980393%,30.980393%);fill-opacity:1;" d="M 2.667969 2.667969 L 2.667969 13.332031 L 13.332031 13.332031 L 13.332031 2.667969 Z M 3.332031 3.332031 L 6 3.332031 L 6 6 L 3.332031 6 Z M 6.667969 3.332031 L 9.332031 3.332031 L 9.332031 6 L 6.667969 6 Z M 10 3.332031 L 12.667969 3.332031 L 12.667969 6 L 10 6 Z M 3.332031 6.667969 L 6 6.667969 L 6 9.332031 L 3.332031 9.332031 Z M 6.667969 6.667969 L 9.332031 6.667969 L 9.332031 9.332031 L 6.667969 9.332031 Z M 10 6.667969 L 12.667969 6.667969 L 12.667969 9.332031 L 10 9.332031 Z M 3.332031 10 L 6 10 L 6 12.667969 L 3.332031 12.667969 Z M 6.667969 10 L 9.332031 10 L 9.332031 12.667969 L 6.667969 12.667969 Z M 10 10 L 12.667969 10 L 12.667969 12.667969 L 10 12.667969 Z M 10 10 "/>
</g>
</svg>
