<svg xmlns="http://www.w3.org/2000/svg" xmlns:xlink="http://www.w3.org/1999/xlink" width="16" height="16" viewBox="0 0 16 16" version="1.1">
<g id="surface1">
<path style=" stroke:none;fill-rule:nonzero;fill:rgb(67.058825%,40.000001%,100%);fill-opacity:1;" d="M 2.667969 2.667969 L 2.667969 13.332031 L 13.332031 13.332031 L 13.332031 2.667969 Z M 3.332031 3.332031 L 6 3.332031 L 6 6.472656 C 4.375 6.140625 3.335938 5.4375 3.332031 4.667969 Z M 6.667969 3.332031 L 9.332031 3.332031 L 9.332031 6.582031 C 8.902344 6.636719 8.453125 6.667969 8 6.667969 C 7.546875 6.667969 7.097656 6.636719 6.667969 6.582031 Z M 10 3.332031 L 12.667969 3.332031 L 12.667969 4.667969 C 12.664062 5.4375 11.625 6.140625 10 6.472656 Z M 3.332031 5.953125 C 3.925781 6.488281 4.867188 6.90625 6 7.136719 L 6 8.863281 C 4.867188 9.09375 3.925781 9.511719 3.332031 10.046875 Z M 12.667969 5.957031 L 12.667969 10.042969 C 12.074219 9.507812 11.132812 9.09375 10 8.863281 L 10 7.136719 C 11.132812 6.90625 12.074219 6.492188 12.667969 5.957031 Z M 6.667969 7.246094 C 7.101562 7.300781 7.550781 7.332031 8 7.332031 C 8.449219 7.332031 8.898438 7.304688 9.332031 7.246094 L 9.332031 8.753906 C 8.898438 8.695312 8.449219 8.667969 8 8.667969 C 7.550781 8.667969 7.101562 8.699219 6.667969 8.753906 Z M 8 9.332031 C 8.453125 9.332031 8.902344 9.363281 9.332031 9.417969 L 9.332031 12.667969 L 6.667969 12.667969 L 6.667969 9.417969 C 7.097656 9.363281 7.546875 9.332031 8 9.332031 Z M 6 9.527344 L 6 12.667969 L 3.332031 12.667969 L 3.332031 11.332031 C 3.335938 10.5625 4.375 9.859375 6 9.527344 Z M 10 9.527344 C 11.625 9.859375 12.664062 10.5625 12.667969 11.332031 L 12.667969 12.667969 L 10 12.667969 Z M 10 9.527344 "/>
</g>
</svg>
