<svg xmlns="http://www.w3.org/2000/svg" xmlns:xlink="http://www.w3.org/1999/xlink" width="16" height="16" viewBox="0 0 16 16" version="1.1">
<g id="surface1">
<path style=" stroke:none;fill-rule:nonzero;fill:rgb(0%,100%,66.666669%);fill-opacity:1;" d="M 8 3.335938 C 6.160156 3.335938 4.667969 4.828125 4.667969 6.667969 C 4.667969 6.785156 4.675781 6.890625 4.6875 7.003906 C 4.695312 7.113281 4.710938 7.226562 4.730469 7.335938 C 5.109375 9.679688 6.667969 11.335938 8 12.671875 C 9.332031 11.335938 10.890625 9.679688 11.269531 7.335938 C 11.289062 7.226562 11.304688 7.113281 11.3125 7.003906 C 11.324219 6.890625 11.332031 6.785156 11.332031 6.667969 C 11.332031 4.828125 9.839844 3.335938 8 3.335938 Z M 8 5.335938 C 8.738281 5.335938 9.332031 5.933594 9.332031 6.667969 C 9.332031 7.40625 8.738281 8.003906 8 8.003906 C 7.261719 8.003906 6.667969 7.40625 6.667969 6.667969 C 6.667969 5.933594 7.261719 5.335938 8 5.335938 Z M 8 5.335938 "/>
</g>
</svg>
