<svg xmlns="http://www.w3.org/2000/svg" xmlns:xlink="http://www.w3.org/1999/xlink" width="16" height="16" viewBox="0 0 16 16" version="1.1">
<g id="surface1">
<path style=" stroke:none;fill-rule:nonzero;fill:rgb(67.058825%,40.000001%,100%);fill-opacity:1;" d="M 10 3.332031 L 10 4.667969 L 8.921875 4.667969 L 6.253906 10 L 3.332031 10 L 3.332031 11.332031 L 7.078125 11.332031 L 9.746094 6 L 10 6 L 10 7.332031 L 12.667969 5.332031 Z M 3.332031 4.667969 L 3.332031 6 L 6.253906 6 L 6.882812 7.253906 L 7.628906 5.765625 L 7.078125 4.667969 Z M 4 6.667969 L 4 9.332031 L 4.667969 9.332031 L 4.667969 8.667969 L 5.332031 8.667969 L 5.332031 9.332031 L 6 9.332031 L 6 6.667969 Z M 4.667969 7.332031 L 5.332031 7.332031 L 5.332031 8 L 4.667969 8 Z M 10 8.667969 L 10 10 L 9.746094 10 L 9.117188 8.746094 L 8.371094 10.234375 L 8.921875 11.332031 L 10 11.332031 L 10 12.667969 L 12.667969 10.667969 Z M 10 8.667969 "/>
</g>
</svg>
