<svg xmlns="http://www.w3.org/2000/svg" xmlns:xlink="http://www.w3.org/1999/xlink" width="16" height="16" viewBox="0 0 16 16" version="1.1">
<g id="surface1">
<path style=" stroke:none;fill-rule:nonzero;fill:rgb(0%,100%,66.666669%);fill-opacity:1;" d="M 6 4 L 6 5.332031 L 4.621094 5.332031 C 3.90625 5.332031 3.332031 5.960938 3.332031 6.738281 L 3.332031 10.597656 C 3.332031 11.375 3.90625 12 4.621094 12 L 11.378906 12 C 12.09375 12 12.667969 11.375 12.667969 10.597656 L 12.667969 6.738281 C 12.667969 5.960938 12.09375 5.332031 11.378906 5.332031 L 10 5.332031 L 10 6.667969 L 11.332031 6.667969 C 11.332031 6.671875 11.332031 6.683594 11.332031 6.738281 L 11.332031 10.597656 C 11.332031 10.648438 11.332031 10.660156 11.332031 10.667969 L 4.667969 10.667969 C 4.671875 10.660156 4.667969 10.648438 4.667969 10.597656 L 4.667969 6.738281 C 4.667969 6.683594 4.671875 6.671875 4.667969 6.667969 L 6 6.667969 L 6 8 L 8.667969 6 Z M 8.667969 7.332031 L 8.667969 10 L 9.332031 10 L 9.332031 9.332031 L 10 9.332031 L 10 10 L 10.667969 10 L 10.667969 7.332031 Z M 9.332031 8 L 10 8 L 10 8.667969 L 9.332031 8.667969 Z M 9.332031 8 "/>
</g>
</svg>
