<svg xmlns="http://www.w3.org/2000/svg" xmlns:xlink="http://www.w3.org/1999/xlink" width="16" height="16" viewBox="0 0 16 16" version="1.1">
<g id="surface1">
<path style=" stroke:none;fill-rule:nonzero;fill:rgb(67.058825%,40.000001%,100%);fill-opacity:1;" d="M 8 1 C 4.316406 1 1.332031 3.984375 1.332031 7.667969 L 2.667969 7.667969 C 2.667969 4.722656 5.054688 2.332031 8 2.332031 C 10.945312 2.332031 13.332031 4.722656 13.332031 7.667969 L 14.667969 7.667969 C 14.667969 3.984375 11.683594 1 8 1 Z M 8 5 C 6.527344 5 5.332031 6.195312 5.332031 7.667969 L 6.667969 7.667969 C 6.667969 6.929688 7.261719 6.332031 8 6.332031 C 8.738281 6.332031 9.332031 6.929688 9.332031 7.667969 L 10.667969 7.667969 C 10.667969 6.195312 9.472656 5 8 5 Z M 1.332031 8.332031 L 1.332031 14.332031 L 5.332031 14.332031 L 7.332031 12.332031 L 7.332031 8.332031 Z M 10.667969 8.332031 L 10.667969 11.113281 C 10.453125 11.039062 10.226562 11 10 11 C 8.894531 11 8 11.894531 8 13 C 8 14.105469 8.894531 15 10 15 C 11.105469 15 12 14.105469 12 13 L 12 10.332031 L 14.667969 10.332031 L 14.667969 8.332031 Z M 2.667969 9.667969 L 6 9.667969 L 6 11.78125 L 4.78125 13 L 2.667969 13 Z M 10 12.332031 C 10.367188 12.332031 10.667969 12.632812 10.667969 13 C 10.667969 13.367188 10.367188 13.667969 10 13.667969 C 9.632812 13.667969 9.332031 13.367188 9.332031 13 C 9.332031 12.632812 9.632812 12.332031 10 12.332031 Z M 10 12.332031 "/>
</g>
</svg>
