<svg xmlns="http://www.w3.org/2000/svg" xmlns:xlink="http://www.w3.org/1999/xlink" width="16" height="16" viewBox="0 0 16 16" version="1.1">
<g id="surface1">
<path style=" stroke:none;fill-rule:nonzero;fill:rgb(0%,80.000001%,100%);fill-opacity:1;" d="M 8 1.332031 C 4.316406 1.332031 1.332031 4.316406 1.332031 8 C 1.332031 11.683594 4.316406 14.667969 8 14.667969 L 8 13.332031 C 5.054688 13.332031 2.667969 10.945312 2.667969 8 C 2.667969 5.054688 5.054688 2.667969 8 2.667969 C 10.945312 2.667969 13.332031 5.054688 13.332031 8 L 14.667969 8 C 14.667969 4.316406 11.683594 1.332031 8 1.332031 Z M 8 5.332031 C 6.527344 5.332031 5.332031 6.527344 5.332031 8 C 5.332031 9.472656 6.527344 10.667969 8 10.667969 L 8 9.332031 C 7.261719 9.332031 6.667969 8.738281 6.667969 8 C 6.667969 7.261719 7.261719 6.667969 8 6.667969 C 8.738281 6.667969 9.332031 7.261719 9.332031 8 L 10.667969 8 C 10.667969 6.527344 9.472656 5.332031 8 5.332031 Z M 8.667969 8.667969 L 8.667969 14.667969 L 12.667969 14.667969 L 14.667969 12.667969 L 14.667969 8.667969 Z M 10 10 L 13.332031 10 L 13.332031 12.113281 L 12.113281 13.332031 L 10 13.332031 Z M 10 10 "/>
</g>
</svg>
