<svg xmlns="http://www.w3.org/2000/svg" xmlns:xlink="http://www.w3.org/1999/xlink" width="16" height="16" viewBox="0 0 16 16" version="1.1">
<defs>
<filter id="alpha" filterUnits="objectBoundingBox" x="0%" y="0%" width="100%" height="100%">
  <feColorMatrix type="matrix" in="SourceGraphic" values="0 0 0 0 1 0 0 0 0 1 0 0 0 0 1 0 0 0 1 0"/>
</filter>
<mask id="mask0">
  <g filter="url(#alpha)">
<rect x="0" y="0" width="16" height="16" style="fill:rgb(0%,0%,0%);fill-opacity:0.3;stroke:none;"/>
  </g>
</mask>
<clipPath id="clip1">
  <rect x="0" y="0" width="16" height="16"/>
</clipPath>
<g id="surface5" clip-path="url(#clip1)">
<path style=" stroke:none;fill-rule:nonzero;fill:rgb(100%,74.901962%,0%);fill-opacity:1;" d="M 6 4 L 6 5.332031 L 4.667969 5.332031 C 3.332031 5.332031 3.332031 6.667969 3.332031 6.667969 L 3.332031 10.667969 C 3.332031 10.667969 3.332031 12 4.667969 12 L 11.332031 12 C 12.667969 12 12.667969 10.667969 12.667969 10.667969 L 12.667969 9.332031 L 11.332031 9.332031 L 11.332031 10.667969 L 4.667969 10.667969 L 4.667969 6.667969 L 6 6.667969 L 6 8 L 8.667969 6 Z M 6 4 "/>
</g>
</defs>
<g id="surface1">
<path style=" stroke:none;fill-rule:nonzero;fill:rgb(25.882354%,52.156866%,95.686275%);fill-opacity:1;" d="M 9.332031 4 L 9.332031 4.941406 L 10.390625 6 L 9.332031 7.058594 L 9.332031 8 L 10.277344 8 L 11.332031 6.941406 L 12.390625 8 L 13.332031 8 L 13.332031 7.058594 L 12.277344 6 L 13.332031 4.941406 L 13.332031 4 L 12.390625 4 L 11.332031 5.058594 L 10.277344 4 Z M 9.332031 4 "/>
<use xlink:href="#surface5" mask="url(#mask0)"/>
</g>
</svg>
