<svg xmlns="http://www.w3.org/2000/svg" xmlns:xlink="http://www.w3.org/1999/xlink" width="16" height="16" viewBox="0 0 16 16" version="1.1">
<g id="surface1">
<path style=" stroke:none;fill-rule:nonzero;fill:rgb(0%,100%,66.666669%);fill-opacity:1;" d="M 11.332031 4 C 10.964844 4 10.667969 4.296875 10.667969 4.667969 C 10.667969 5.035156 10.964844 5.332031 11.332031 5.332031 C 11.703125 5.332031 12 5.035156 12 4.667969 C 12 4.296875 11.703125 4 11.332031 4 Z M 7.332031 4.667969 C 6.230469 4.667969 5.332031 5.5625 5.332031 6.667969 C 5.332031 7.769531 6.230469 8.667969 7.332031 8.667969 C 8.4375 8.667969 9.332031 7.769531 9.332031 6.667969 C 9.332031 5.5625 8.4375 4.667969 7.332031 4.667969 Z M 11.332031 6 C 10.964844 6 10.667969 6.296875 10.667969 6.667969 C 10.667969 7.035156 10.964844 7.332031 11.332031 7.332031 C 11.703125 7.332031 12 7.035156 12 6.667969 C 12 6.296875 11.703125 6 11.332031 6 Z M 11.332031 8 C 10.964844 8 10.667969 8.296875 10.667969 8.667969 C 10.667969 9.035156 10.964844 9.332031 11.332031 9.332031 C 11.703125 9.332031 12 9.035156 12 8.667969 C 12 8.296875 11.703125 8 11.332031 8 Z M 7.332031 9.332031 C 3.332031 9.335938 3.332031 12 3.332031 12 L 3.332031 12.667969 L 11.332031 12.667969 L 11.332031 12 C 11.332031 12 11.332031 9.332031 7.332031 9.332031 Z M 7.332031 9.332031 "/>
</g>
</svg>
