<svg xmlns="http://www.w3.org/2000/svg" xmlns:xlink="http://www.w3.org/1999/xlink" width="16" height="16" viewBox="0 0 16 16" version="1.1">
<defs>
<filter id="alpha" filterUnits="objectBoundingBox" x="0%" y="0%" width="100%" height="100%">
  <feColorMatrix type="matrix" in="SourceGraphic" values="0 0 0 0 1 0 0 0 0 1 0 0 0 0 1 0 0 0 1 0"/>
</filter>
<mask id="mask0">
  <g filter="url(#alpha)">
<rect x="0" y="0" width="16" height="16" style="fill:rgb(0%,0%,0%);fill-opacity:0.3;stroke:none;"/>
  </g>
</mask>
<clipPath id="clip1">
  <rect x="0" y="0" width="16" height="16"/>
</clipPath>
<g id="surface5" clip-path="url(#clip1)">
<path style=" stroke:none;fill-rule:nonzero;fill:rgb(96.862745%,0%,100%);fill-opacity:1;" d="M 5.867188 3.179688 C 5.304688 3.214844 4.660156 3.390625 3.886719 3.777344 L 3.664062 3.886719 L 3.777344 4.113281 C 4.261719 5.082031 4.371094 5.777344 4.3125 6.351562 C 4.257812 6.921875 4.027344 7.386719 3.777344 7.886719 C 3.527344 8.386719 3.257812 8.921875 3.1875 9.601562 C 3.121094 10.277344 3.261719 11.082031 3.777344 12.113281 L 3.886719 12.335938 L 4.113281 12.222656 C 5.082031 11.738281 5.777344 11.628906 6.351562 11.6875 C 6.921875 11.742188 7.386719 11.972656 7.886719 12.222656 C 8.386719 12.472656 8.921875 12.742188 9.601562 12.8125 C 10.277344 12.878906 11.082031 12.738281 12.113281 12.222656 L 12.335938 12.113281 L 12.222656 11.886719 C 11.738281 10.917969 11.628906 10.222656 11.6875 9.648438 C 11.742188 9.078125 11.972656 8.613281 12.222656 8.113281 C 12.472656 7.613281 12.742188 7.078125 12.8125 6.398438 C 12.878906 5.722656 12.738281 4.917969 12.222656 3.886719 L 12.113281 3.664062 L 11.886719 3.777344 C 10.917969 4.261719 10.222656 4.371094 9.648438 4.3125 C 9.078125 4.257812 8.613281 4.027344 8.113281 3.777344 C 7.613281 3.527344 7.078125 3.257812 6.398438 3.1875 C 6.230469 3.171875 6.050781 3.167969 5.867188 3.179688 Z M 5.867188 3.179688 "/>
</g>
</defs>
<g id="surface1">
<use xlink:href="#surface5" mask="url(#mask0)"/>
<path style=" stroke:none;fill-rule:nonzero;fill:rgb(96.862745%,0%,100%);fill-opacity:1;" d="M 2.667969 2.667969 L 2.667969 4.667969 L 4.667969 4.667969 L 4.667969 2.667969 Z M 11.332031 2.667969 L 11.332031 4.667969 L 13.332031 4.667969 L 13.332031 2.667969 Z M 2.667969 11.332031 L 2.667969 13.332031 L 4.667969 13.332031 L 4.667969 11.332031 Z M 11.332031 11.332031 L 11.332031 13.332031 L 13.332031 13.332031 L 13.332031 11.332031 Z M 11.332031 11.332031 "/>
</g>
</svg>
