<svg xmlns="http://www.w3.org/2000/svg" xmlns:xlink="http://www.w3.org/1999/xlink" width="16" height="16" viewBox="0 0 16 16" version="1.1">
<g id="surface1">
<path style=" stroke:none;fill-rule:nonzero;fill:rgb(96.862745%,0%,100%);fill-opacity:1;" d="M 8.675781 2.671875 L 8.675781 4.003906 L 2.675781 4.003906 L 2.675781 4.671875 L 8.675781 4.671875 L 8.675781 5.855469 C 8.597656 5.816406 8.515625 5.78125 8.433594 5.753906 L 8.425781 5.753906 C 7.722656 5.542969 6.980469 5.9375 6.769531 6.640625 C 6.765625 6.652344 6.761719 6.664062 6.761719 6.671875 L 2.675781 6.671875 L 2.675781 7.339844 L 6.75 7.339844 C 6.859375 7.796875 7.203125 8.164062 7.65625 8.300781 C 7.722656 8.324219 7.792969 8.335938 7.863281 8.347656 C 7.347656 8.417969 6.917969 8.78125 6.769531 9.277344 C 6.761719 9.300781 6.757812 9.320312 6.753906 9.339844 L 2.675781 9.339844 L 2.675781 10.003906 L 6.757812 10.003906 C 6.875 10.453125 7.214844 10.804688 7.65625 10.9375 C 7.722656 10.957031 7.792969 10.972656 7.859375 10.980469 C 7.34375 11.054688 6.917969 11.417969 6.769531 11.914062 C 6.757812 11.945312 6.75 11.976562 6.746094 12.003906 L 2.675781 12.003906 L 2.675781 12.671875 L 6.765625 12.671875 C 6.890625 13.105469 7.226562 13.445312 7.65625 13.574219 C 8.359375 13.789062 9.101562 13.390625 9.316406 12.6875 C 9.320312 12.683594 9.320312 12.675781 9.320312 12.671875 L 13.34375 12.671875 L 13.34375 12.003906 L 9.34375 12.003906 L 9.34375 10.003906 L 13.34375 10.003906 L 13.34375 9.339844 L 9.34375 9.339844 L 9.34375 7.339844 L 13.34375 7.339844 L 13.34375 6.671875 L 9.34375 6.671875 L 9.34375 4.671875 L 13.34375 4.671875 L 13.34375 4.003906 L 9.34375 4.003906 L 9.34375 2.671875 Z M 8.046875 6.375 C 8.105469 6.375 8.160156 6.382812 8.21875 6.398438 L 8.234375 6.402344 C 8.578125 6.507812 8.769531 6.871094 8.667969 7.214844 C 8.566406 7.558594 8.207031 7.753906 7.859375 7.65625 C 7.515625 7.554688 7.316406 7.195312 7.414062 6.847656 C 7.496094 6.566406 7.753906 6.371094 8.046875 6.375 Z M 8.675781 8.199219 L 8.675781 8.492188 C 8.597656 8.449219 8.515625 8.414062 8.433594 8.390625 L 8.425781 8.386719 C 8.359375 8.367188 8.292969 8.355469 8.226562 8.34375 C 8.382812 8.324219 8.535156 8.273438 8.675781 8.199219 Z M 8.046875 9.011719 C 8.105469 9.011719 8.160156 9.019531 8.21875 9.035156 L 8.234375 9.039062 C 8.578125 9.144531 8.769531 9.507812 8.667969 9.851562 C 8.566406 10.195312 8.203125 10.390625 7.859375 10.289062 C 7.515625 10.191406 7.316406 9.832031 7.414062 9.484375 C 7.496094 9.203125 7.753906 9.007812 8.046875 9.011719 Z M 8.675781 10.835938 L 8.675781 11.128906 C 8.597656 11.085938 8.515625 11.050781 8.433594 11.027344 L 8.425781 11.023438 C 8.359375 11.003906 8.292969 10.992188 8.226562 10.980469 C 8.382812 10.960938 8.535156 10.910156 8.675781 10.835938 Z M 8.046875 11.648438 C 8.105469 11.648438 8.160156 11.65625 8.21875 11.671875 L 8.234375 11.675781 C 8.578125 11.78125 8.773438 12.144531 8.667969 12.488281 C 8.566406 12.832031 8.207031 13.027344 7.859375 12.925781 C 7.515625 12.828125 7.316406 12.464844 7.414062 12.121094 C 7.496094 11.839844 7.753906 11.644531 8.046875 11.648438 Z M 8.046875 11.648438 "/>
</g>
</svg>
