<svg xmlns="http://www.w3.org/2000/svg" xmlns:xlink="http://www.w3.org/1999/xlink" width="16" height="16" viewBox="0 0 16 16" version="1.1">
<g id="surface1">
<path style=" stroke:none;fill-rule:nonzero;fill:rgb(96.862745%,0%,100%);fill-opacity:1;" d="M 2.667969 2.667969 L 2.667969 3.332031 L 7.332031 3.332031 L 7.332031 2.667969 Z M 8.667969 2.667969 L 8.667969 3.332031 L 13.332031 3.332031 L 13.332031 2.667969 Z M 2.667969 4.667969 L 2.667969 5.332031 L 7.332031 5.332031 L 7.332031 4.667969 Z M 8.667969 4.667969 L 8.667969 5.332031 L 13.332031 5.332031 L 13.332031 4.667969 Z M 2.667969 6.667969 L 2.667969 7.332031 L 7.332031 7.332031 L 7.332031 6.667969 Z M 8.667969 6.667969 L 8.667969 7.332031 L 13.332031 7.332031 L 13.332031 6.667969 Z M 2.667969 9.332031 L 2.667969 10 L 7.332031 10 L 7.332031 9.332031 Z M 2.667969 12 L 2.667969 12.667969 L 7.332031 12.667969 L 7.332031 12 Z M 2.667969 12 "/>
<path style=" stroke:none;fill-rule:nonzero;fill:rgb(23.921569%,68.235296%,91.37255%);fill-opacity:1;" d="M 9 8.667969 L 7.667969 9.667969 L 9 10.667969 L 9 10 L 9.667969 10 C 10.21875 10 10.667969 10.449219 10.667969 11 C 10.667969 11.921875 11.414062 12.667969 12.332031 12.667969 L 13.6875 12.667969 L 13.6875 12 L 12.332031 12 C 11.78125 12 11.332031 11.550781 11.332031 11 C 11.332031 10.078125 10.585938 9.332031 9.667969 9.332031 L 9 9.332031 Z M 13.019531 8.667969 L 13.019531 9.332031 L 12.355469 9.332031 C 12.023438 9.332031 11.71875 9.433594 11.460938 9.597656 C 11.644531 9.734375 11.789062 9.914062 11.882812 10.121094 C 11.882812 10.121094 11.882812 10.121094 11.886719 10.121094 C 12.027344 10.046875 12.183594 10 12.355469 10 L 13.019531 10 L 13.019531 10.667969 L 14.355469 9.667969 Z M 10.125 11.894531 C 9.992188 11.960938 9.847656 12 9.6875 12 L 8.332031 12 L 8.332031 12.667969 L 9.6875 12.667969 C 10.007812 12.667969 10.308594 12.574219 10.558594 12.417969 C 10.371094 12.285156 10.222656 12.105469 10.125 11.894531 Z M 10.125 11.894531 "/>
</g>
</svg>
