<svg xmlns="http://www.w3.org/2000/svg" xmlns:xlink="http://www.w3.org/1999/xlink" width="16" height="16" viewBox="0 0 16 16" version="1.1">
<g id="surface1">
<path style=" stroke:none;fill-rule:nonzero;fill:rgb(67.058825%,40.000001%,100%);fill-opacity:1;" d="M 2.667969 2.667969 L 2.667969 3.332031 L 7.332031 3.332031 L 7.332031 2.667969 Z M 8.667969 2.667969 L 8.667969 3.332031 L 13.332031 3.332031 L 13.332031 2.667969 Z M 2.667969 4.667969 L 2.667969 5.332031 L 7.332031 5.332031 L 7.332031 4.667969 Z M 8.667969 4.667969 L 8.667969 5.332031 L 13.332031 5.332031 L 13.332031 4.667969 Z M 2.667969 6.667969 L 2.667969 7.332031 L 7.332031 7.332031 L 7.332031 6.667969 Z M 8.667969 6.667969 L 8.667969 7.332031 L 13.332031 7.332031 L 13.332031 6.667969 Z M 9.332031 8.667969 L 8 9.667969 L 9.332031 10.667969 L 9.332031 10 L 12.667969 10 C 13.035156 10 13.332031 10.296875 13.332031 10.667969 L 14 10.667969 C 14 9.929688 13.40625 9.332031 12.667969 9.332031 L 9.332031 9.332031 Z M 2.667969 9.332031 L 2.667969 10 L 7.332031 10 L 7.332031 9.332031 Z M 2.667969 12 L 2.667969 12.667969 L 7.332031 12.667969 L 7.332031 12 Z M 2.667969 12 "/>
<path style=" stroke:none;fill-rule:nonzero;fill:rgb(23.921569%,68.235296%,91.37255%);fill-opacity:1;" d="M 8 11.332031 C 8 12.070312 8.59375 12.667969 9.332031 12.667969 L 12.667969 12.667969 L 12.667969 13.332031 L 14 12.332031 L 12.667969 11.332031 L 12.667969 12 L 9.332031 12 C 8.964844 12 8.667969 11.703125 8.667969 11.332031 Z M 8 11.332031 "/>
</g>
</svg>
