<svg xmlns="http://www.w3.org/2000/svg" xmlns:xlink="http://www.w3.org/1999/xlink" width="16" height="16" viewBox="0 0 16 16" version="1.1">
<g id="surface1">
<path style=" stroke:none;fill-rule:nonzero;fill:rgb(100%,74.901962%,0%);fill-opacity:1;" d="M 2.667969 2.667969 L 2.667969 3.332031 L 7.332031 3.332031 L 7.332031 2.667969 Z M 8.667969 2.667969 L 8.667969 3.332031 L 13.332031 3.332031 L 13.332031 2.667969 Z M 2.667969 4.667969 L 2.667969 5.332031 L 7.332031 5.332031 L 7.332031 4.667969 Z M 8.667969 4.667969 L 8.667969 5.332031 L 13.332031 5.332031 L 13.332031 4.667969 Z M 2.667969 6.667969 L 2.667969 7.332031 L 7.332031 7.332031 L 7.332031 6.667969 Z M 8.667969 6.667969 L 8.667969 7.332031 L 13.332031 7.332031 L 13.332031 6.667969 Z M 2.667969 9.332031 L 2.667969 10 L 7.332031 10 L 7.332031 9.332031 Z M 12.667969 9.332031 C 12.371094 9.332031 12.078125 9.414062 11.820312 9.566406 C 11.960938 9.738281 12.078125 9.929688 12.160156 10.136719 C 12.316406 10.046875 12.488281 10 12.667969 10 L 14.007812 10 L 14.007812 9.332031 Z M 9.332031 11.332031 L 8 12.332031 L 9.332031 13.332031 L 9.332031 12.667969 L 10 12.667969 C 10.296875 12.667969 10.589844 12.585938 10.84375 12.433594 C 10.707031 12.261719 10.589844 12.070312 10.503906 11.863281 C 10.351562 11.953125 10.175781 12 10 12 L 9.332031 12 Z M 2.667969 12 L 2.667969 12.667969 L 7.332031 12.667969 L 7.332031 12 Z M 2.667969 12 "/>
<path style=" stroke:none;fill-rule:nonzero;fill:rgb(23.921569%,68.235296%,91.37255%);fill-opacity:1;" d="M 9.332031 8.667969 L 8 9.667969 L 9.332031 10.667969 L 9.332031 10 L 10 10 C 10.550781 10 11 10.449219 11 11 C 11 11.921875 11.746094 12.667969 12.667969 12.667969 L 14.019531 12.667969 L 14.019531 12 L 12.667969 12 C 12.113281 12 11.667969 11.550781 11.667969 11 C 11.667969 10.078125 10.921875 9.332031 10 9.332031 L 9.332031 9.332031 Z M 9.332031 8.667969 "/>
</g>
</svg>
