<svg xmlns="http://www.w3.org/2000/svg" xmlns:xlink="http://www.w3.org/1999/xlink" width="16" height="16" viewBox="0 0 16 16" version="1.1">
<g id="surface1">
<path style=" stroke:none;fill-rule:nonzero;fill:rgb(100%,30.980393%,30.980393%);fill-opacity:1;" d="M 2.667969 2.667969 L 2.667969 3.332031 L 6.667969 3.332031 L 6.667969 2.667969 Z M 11.332031 2.667969 L 11.332031 4.667969 L 12 4.667969 L 12 11.394531 C 11.71875 11.496094 11.496094 11.71875 11.394531 12 L 4.667969 12 L 4.667969 11.332031 L 2.667969 11.332031 L 2.667969 13.332031 L 4.667969 13.332031 L 4.667969 12.667969 L 11.394531 12.667969 C 11.53125 13.054688 11.898438 13.332031 12.332031 13.332031 C 12.886719 13.332031 13.332031 12.886719 13.332031 12.332031 C 13.332031 11.898438 13.054688 11.53125 12.667969 11.394531 L 12.667969 4.667969 L 13.332031 4.667969 L 13.332031 2.667969 Z M 7.332031 3.332031 L 6.097656 5.96875 L 3.332031 6.390625 L 5.332031 8.4375 L 4.863281 11.332031 L 7.332031 9.96875 L 9.804688 11.332031 L 9.332031 8.4375 L 11.332031 6.390625 L 8.570312 5.96875 Z M 12 3.332031 L 12.667969 3.332031 L 12.667969 4 L 12 4 Z M 2.667969 4 L 2.667969 4.667969 L 6 4.667969 L 6 4 Z M 2.667969 5.332031 L 2.667969 6 L 4.832031 6 L 4.832031 5.332031 Z M 2.667969 8 L 2.667969 8.667969 L 4 8.667969 L 4 8 Z M 2.667969 9.332031 L 2.667969 10 L 4.667969 10 L 4.667969 9.332031 Z M 3.332031 12 L 4 12 L 4 12.667969 L 3.332031 12.667969 Z M 12.332031 12 C 12.519531 12 12.667969 12.148438 12.667969 12.332031 C 12.667969 12.519531 12.519531 12.667969 12.332031 12.667969 C 12.148438 12.667969 12 12.519531 12 12.332031 C 12 12.148438 12.148438 12 12.332031 12 Z M 12.332031 12 "/>
</g>
</svg>
