<svg xmlns="http://www.w3.org/2000/svg" xmlns:xlink="http://www.w3.org/1999/xlink" width="16" height="16" viewBox="0 0 16 16" version="1.1">
<g id="surface1">
<path style=" stroke:none;fill-rule:nonzero;fill:rgb(32.156864%,58.039218%,88.627452%);fill-opacity:1;" d="M 8 3.332031 C 5.421875 3.332031 3.332031 5.421875 3.332031 7.996094 C 3.332031 10.574219 5.421875 12.664062 8 12.664062 C 10.578125 12.664062 12.667969 10.574219 12.667969 7.996094 C 12.667969 5.421875 10.578125 3.332031 8 3.332031 Z M 7.667969 4.621094 C 7.710938 4.617188 7.765625 4.625 7.8125 4.621094 C 7.816406 4.644531 7.78125 4.71875 7.730469 4.832031 C 7.40625 5.539062 7.386719 6.367188 7.6875 6.808594 C 7.742188 6.890625 7.792969 6.964844 7.792969 6.976562 C 7.792969 6.988281 7.734375 6.996094 7.667969 6.996094 C 7.511719 6.996094 7.363281 6.902344 7.0625 6.664062 C 6.929688 6.558594 6.753906 6.46875 6.6875 6.457031 C 6.582031 6.433594 6.554688 6.445312 6.417969 6.582031 C 6.289062 6.707031 6.25 6.777344 6.25 6.894531 C 6.25 7.335938 6.773438 7.6875 7.75 7.894531 C 9.074219 8.175781 9.402344 8.425781 9.4375 9.121094 C 9.484375 9.996094 9.019531 10.652344 8 11.164062 C 7.878906 11.226562 7.800781 11.25 7.75 11.269531 C 7.726562 11.265625 7.710938 11.269531 7.6875 11.269531 C 7.679688 11.242188 7.667969 11.179688 7.667969 11.058594 C 7.667969 10.597656 7.484375 10.117188 7.207031 9.851562 C 7.132812 9.78125 6.925781 9.628906 6.75 9.519531 C 6.574219 9.410156 6.394531 9.28125 6.355469 9.226562 C 6.289062 9.136719 6.28125 9.082031 6.332031 8.914062 C 6.425781 8.609375 6.535156 8.441406 6.75 8.246094 C 6.863281 8.148438 6.976562 8.0625 7 8.058594 C 7.023438 8.058594 6.855469 8.007812 6.605469 7.957031 C 6.351562 7.902344 5.984375 7.796875 5.792969 7.726562 C 5.441406 7.601562 4.972656 7.335938 4.792969 7.144531 C 4.785156 7.136719 4.777344 7.128906 4.769531 7.121094 C 5.027344 6.097656 5.75 5.257812 6.707031 4.851562 C 6.910156 4.765625 7.117188 4.707031 7.332031 4.664062 C 7.441406 4.640625 7.554688 4.632812 7.667969 4.621094 Z M 10.792969 6.183594 C 10.871094 6.234375 11.164062 6.871094 11.25 7.183594 C 11.359375 7.585938 11.351562 8.285156 11.25 8.683594 C 11.210938 8.835938 11.164062 8.980469 11.144531 8.996094 C 11.128906 9.015625 11.070312 8.914062 11 8.789062 C 10.929688 8.664062 10.707031 8.402344 10.519531 8.207031 C 9.984375 7.640625 9.902344 7.34375 10.125 6.894531 C 10.238281 6.664062 10.730469 6.148438 10.792969 6.183594 Z M 10.792969 6.183594 "/>
</g>
</svg>
