<svg xmlns="http://www.w3.org/2000/svg" xmlns:xlink="http://www.w3.org/1999/xlink" width="16" height="16" viewBox="0 0 16 16" version="1.1">
<g id="surface1">
<path style=" stroke:none;fill-rule:nonzero;fill:rgb(0%,80.000001%,100%);fill-opacity:1;" d="M 5.332031 2 C 4.59375 2 4 2.59375 4 3.332031 L 4 4 L 2.667969 4 C 1.929688 4 1.332031 4.59375 1.332031 5.332031 L 1.332031 12.667969 C 1.332031 13.40625 1.929688 14 2.667969 14 L 13.332031 14 C 14.070312 14 14.667969 13.40625 14.667969 12.667969 L 14.667969 5.332031 C 14.667969 4.59375 14.070312 4 13.332031 4 L 12 4 L 12 3.332031 C 12 2.59375 11.40625 2 10.667969 2 Z M 5.332031 3.332031 L 10.667969 3.332031 L 10.667969 5.332031 L 13.332031 5.332031 L 13.332031 12.667969 L 12 12.667969 L 12 10.667969 L 10.667969 10.667969 L 10.667969 12.667969 L 10 12.667969 L 10 10.667969 L 8.667969 10.667969 L 8.667969 12.667969 L 7.332031 12.667969 L 7.332031 10.667969 L 6 10.667969 L 6 12.667969 L 5.332031 12.667969 L 5.332031 10.667969 L 4 10.667969 L 4 12.667969 L 2.667969 12.667969 L 2.667969 5.332031 L 5.332031 5.332031 Z M 5.332031 3.332031 "/>
</g>
</svg>
