<svg xmlns="http://www.w3.org/2000/svg" xmlns:xlink="http://www.w3.org/1999/xlink" width="16" height="16" viewBox="0 0 16 16" version="1.1">
<g id="surface1">
<path style=" stroke:none;fill-rule:nonzero;fill:rgb(67.058825%,40.000001%,100%);fill-opacity:1;" d="M 5.332031 14 C 4.59375 14 4 13.40625 4 12.667969 L 4 12 L 2 12 C 1.261719 12 0.667969 11.40625 0.667969 10.667969 L 0.667969 3.332031 C 0.667969 2.59375 1.261719 2 2 2 L 14 2 C 14.738281 2 15.332031 2.59375 15.332031 3.332031 L 15.332031 10.667969 C 15.332031 11.40625 14.738281 12 14 12 L 12 12 L 12 12.667969 C 12 13.40625 11.40625 14 10.667969 14 Z M 5.332031 12.667969 L 10.667969 12.667969 L 10.667969 10.667969 L 14 10.667969 L 14 3.332031 L 12 3.332031 L 12 5.332031 L 10.667969 5.332031 L 10.667969 3.332031 L 10 3.332031 L 10 5.332031 L 8.667969 5.332031 L 8.667969 3.332031 L 7.332031 3.332031 L 7.332031 5.332031 L 6 5.332031 L 6 3.332031 L 5.332031 3.332031 L 5.332031 5.332031 L 4 5.332031 L 4 3.332031 L 2 3.332031 L 2 10.667969 L 5.332031 10.667969 Z M 5.332031 12.667969 "/>
</g>
</svg>
