<svg xmlns="http://www.w3.org/2000/svg" xmlns:xlink="http://www.w3.org/1999/xlink" width="16" height="16" viewBox="0 0 16 16" version="1.1">
<g id="surface1">
<path style=" stroke:none;fill-rule:nonzero;fill:rgb(0%,80.000001%,100%);fill-opacity:1;" d="M 8 5.734375 C 8.738281 5.734375 9.332031 6.332031 9.332031 7.066406 C 9.332031 7.617188 8.992188 8.085938 8.515625 8.289062 L 8.890625 10.175781 L 7.109375 10.175781 L 7.484375 8.289062 C 7.007812 8.085938 6.667969 7.617188 6.667969 7.066406 C 6.667969 6.332031 7.261719 5.734375 8 5.734375 Z M 8 5.734375 "/>
<path style=" stroke:none;fill-rule:nonzero;fill:rgb(0%,80.000001%,100%);fill-opacity:1;" d="M 8 0.667969 L 2 3.332031 L 2 7.332031 C 2 11.035156 4.558594 14.492188 8 15.332031 C 11.441406 14.492188 14 11.035156 14 7.332031 L 14 3.332031 Z M 12.667969 7.332031 C 12.667969 10.347656 10.679688 13.125 8 13.953125 C 5.320312 13.125 3.332031 10.347656 3.332031 7.332031 L 3.332031 4.199219 L 8 2.125 L 12.667969 4.199219 Z M 12.667969 7.332031 "/>
</g>
</svg>
