<svg xmlns="http://www.w3.org/2000/svg" xmlns:xlink="http://www.w3.org/1999/xlink" width="16" height="16" viewBox="0 0 16 16" version="1.1">
<g id="surface1">
<path style=" stroke:none;fill-rule:nonzero;fill:rgb(100%,74.901962%,0%);fill-opacity:1;" d="M 7.667969 3.332031 C 4.90625 3.332031 2.667969 5.570312 2.667969 8.332031 C 2.667969 11.09375 4.90625 13.332031 7.667969 13.332031 C 10.429688 13.332031 12.667969 11.09375 12.667969 8.332031 C 12.667969 5.570312 10.429688 3.332031 7.667969 3.332031 Z M 4.667969 5.332031 L 7.332031 5.332031 L 7.332031 8.667969 L 5.332031 8.667969 L 5.332031 10.667969 L 7.332031 10.667969 L 7.332031 11.332031 L 4.667969 11.332031 L 4.667969 8 L 6.667969 8 L 6.667969 6 L 4.667969 6 Z M 8 5.332031 L 8.667969 5.332031 L 8.667969 8 L 10 8 L 10 5.332031 L 10.667969 5.332031 L 10.667969 11.332031 L 10 11.332031 L 10 8.667969 L 8 8.667969 Z M 8 5.332031 "/>
</g>
</svg>
