<svg xmlns="http://www.w3.org/2000/svg" xmlns:xlink="http://www.w3.org/1999/xlink" width="16" height="16" viewBox="0 0 16 16" version="1.1">
<g id="surface1">
<path style=" stroke:none;fill-rule:nonzero;fill:rgb(100%,30.980393%,30.980393%);fill-opacity:1;" d="M 2.667969 3.332031 L 2.667969 12.667969 C 4.984375 12.664062 7.296875 12.667969 9.613281 12.667969 L 9.527344 12.582031 C 9.269531 12.320312 9.269531 11.898438 9.527344 11.640625 L 9.835938 11.332031 L 3.332031 11.332031 L 3.332031 10.667969 L 9.835938 10.667969 L 9.527344 10.359375 C 9.269531 10.101562 9.269531 9.679688 9.527344 9.417969 L 9.613281 9.332031 L 8.667969 9.332031 L 8.667969 8.667969 L 12.667969 8.667969 L 12.667969 8.675781 C 12.878906 8.640625 13.097656 8.710938 13.25 8.863281 L 13.332031 8.945312 L 13.332031 3.335938 C 9.777344 3.335938 6.222656 3.332031 2.667969 3.332031 Z M 6.667969 4.667969 L 6.667969 9.332031 L 3.332031 9.332031 L 3.332031 4.667969 Z M 8.667969 4.667969 L 12.667969 4.667969 L 12.667969 5.332031 L 8.667969 5.332031 Z M 8.667969 6.667969 L 12.667969 6.667969 L 12.667969 7.332031 L 8.667969 7.332031 Z M 10.554688 9.332031 L 10 9.890625 L 11.109375 11 L 10 12.109375 L 10.554688 12.667969 L 11.667969 11.554688 L 12.777344 12.667969 L 13.332031 12.109375 L 12.222656 11 L 13.332031 9.890625 L 12.777344 9.332031 L 11.667969 10.445312 Z M 10.554688 9.332031 "/>
</g>
</svg>
