<svg xmlns="http://www.w3.org/2000/svg" xmlns:xlink="http://www.w3.org/1999/xlink" width="16" height="16" viewBox="0 0 16 16" version="1.1">
<g id="surface1">
<path style=" stroke:none;fill-rule:nonzero;fill:rgb(96.862745%,0%,100%);fill-opacity:1;" d="M 6 3.332031 L 3.332031 6 L 3.332031 10 L 6 12.667969 L 10 12.667969 L 12.667969 10 L 12.667969 6 L 10 3.332031 Z M 6 5.332031 C 6.175781 5.332031 6.347656 5.402344 6.472656 5.527344 L 8 7.058594 L 9.527344 5.527344 C 9.652344 5.402344 9.824219 5.332031 10 5.332031 C 10.269531 5.332031 10.511719 5.496094 10.617188 5.746094 C 10.71875 5.992188 10.660156 6.28125 10.472656 6.472656 L 8.941406 8 L 10.472656 9.527344 C 10.644531 9.695312 10.714844 9.945312 10.652344 10.175781 C 10.59375 10.410156 10.410156 10.59375 10.175781 10.652344 C 9.945312 10.714844 9.695312 10.644531 9.527344 10.472656 L 8 8.941406 L 6.472656 10.472656 C 6.304688 10.644531 6.054688 10.714844 5.824219 10.652344 C 5.589844 10.59375 5.40625 10.410156 5.347656 10.175781 C 5.285156 9.945312 5.355469 9.695312 5.527344 9.527344 L 7.058594 8 L 5.527344 6.472656 C 5.339844 6.28125 5.28125 5.992188 5.382812 5.746094 C 5.488281 5.496094 5.730469 5.332031 6 5.332031 Z M 6 5.332031 "/>
</g>
</svg>
