<svg xmlns="http://www.w3.org/2000/svg" xmlns:xlink="http://www.w3.org/1999/xlink" width="16" height="16" viewBox="0 0 16 16" version="1.1">
<g id="surface1">
<path style=" stroke:none;fill-rule:nonzero;fill:rgb(100%,30.980393%,30.980393%);fill-opacity:1;" d="M 12.925781 4.230469 C 12.828125 4.230469 12.738281 4.277344 12.675781 4.351562 C 12.613281 4.425781 12.589844 4.523438 12.605469 4.621094 C 12.753906 5.683594 12.511719 7.21875 11.769531 8.445312 C 11.34375 9.144531 10.765625 9.742188 10 10.128906 L 10 8.667969 L 6 8.667969 L 6 10.183594 C 5.1875 9.800781 4.585938 9.179688 4.152344 8.449219 C 3.425781 7.222656 3.203125 5.6875 3.367188 4.625 C 3.382812 4.527344 3.351562 4.425781 3.285156 4.347656 C 3.214844 4.273438 3.117188 4.234375 3.015625 4.238281 C 2.859375 4.25 2.730469 4.371094 2.707031 4.527344 C 2.519531 5.765625 2.761719 7.410156 3.578125 8.785156 C 4.035156 9.558594 4.710938 10.214844 5.566406 10.667969 L 4.609375 10.667969 C 4.46875 10.269531 4.089844 10 3.667969 10 C 3.113281 10 2.667969 10.449219 2.667969 11 C 2.667969 11.550781 3.113281 12 3.667969 12 C 4.089844 12 4.46875 11.730469 4.609375 11.332031 L 6 11.332031 L 6 12.667969 L 10 12.667969 L 10 11.332031 L 11.390625 11.332031 C 11.53125 11.730469 11.910156 12 12.332031 12 C 12.886719 12 13.332031 11.550781 13.332031 11 C 13.332031 10.449219 12.886719 10 12.332031 10 C 11.910156 10 11.53125 10.269531 11.390625 10.667969 L 10.328125 10.667969 C 11.1875 10.214844 11.871094 9.558594 12.335938 8.789062 C 13.171875 7.414062 13.433594 5.769531 13.265625 4.53125 C 13.25 4.355469 13.101562 4.226562 12.925781 4.230469 Z M 12.925781 4.230469 "/>
</g>
</svg>
