<svg xmlns="http://www.w3.org/2000/svg" xmlns:xlink="http://www.w3.org/1999/xlink" width="16" height="16" viewBox="0 0 16 16" version="1.1">
<g id="surface1">
<path style=" stroke:none;fill-rule:nonzero;fill:rgb(100%,30.980393%,30.980393%);fill-opacity:1;" d="M 4.667969 2.667969 L 2.667969 4.667969 L 2.667969 13.332031 L 11.3125 13.332031 L 13.332031 11.3125 L 13.332031 2.667969 Z M 5.332031 3.332031 L 12.207031 3.332031 L 10.917969 4.625 L 10.875 4.667969 L 5.332031 4.667969 Z M 4.667969 3.582031 L 4.667969 4.667969 L 3.582031 4.667969 Z M 12.667969 3.792969 L 12.667969 10.667969 L 11.332031 10.667969 L 11.332031 5.125 L 11.375 5.082031 Z M 3.332031 5.332031 L 4.667969 5.332031 L 4.667969 10.855469 L 4.4375 11.105469 L 3.332031 12.207031 Z M 5.332031 5.332031 L 10.667969 5.332031 L 10.667969 10.667969 L 5.332031 10.667969 Z M 5.144531 11.332031 L 10.667969 11.332031 L 10.667969 12.667969 L 3.792969 12.667969 L 4.894531 11.5625 Z M 11.332031 11.332031 L 12.394531 11.332031 L 11.332031 12.394531 Z M 11.332031 11.332031 "/>
</g>
</svg>
