<svg xmlns="http://www.w3.org/2000/svg" xmlns:xlink="http://www.w3.org/1999/xlink" width="16" height="16" viewBox="0 0 16 16" version="1.1">
<g id="surface1">
<path style=" stroke:none;fill-rule:nonzero;fill:rgb(0%,80.000001%,100%);fill-opacity:1;" d="M 3.347656 2.667969 L 3.347656 4 L 3.007812 4 C 2.558594 3.992188 2.558594 4.671875 3.007812 4.667969 L 3.347656 4.667969 L 3.347656 6 L 6.011719 6 L 6.011719 4.667969 L 9.347656 4.667969 L 9.347656 6 L 12.011719 6 L 12.011719 4.664062 L 12.34375 4.664062 C 12.789062 4.664062 12.789062 4 12.34375 4 L 12.011719 4 L 12.011719 2.667969 L 9.347656 2.667969 L 9.347656 4 L 6.011719 4 L 6.011719 2.667969 Z M 7.332031 6.019531 L 7.332031 7.351562 L 6 7.351562 L 7.667969 9.351562 L 9.332031 7.351562 L 8 7.351562 L 8 6.019531 Z M 3.347656 10 L 3.347656 11.332031 L 3.007812 11.332031 C 2.558594 11.328125 2.558594 12.007812 3.007812 12 L 3.347656 12 L 3.347656 13.332031 L 6.011719 13.332031 L 6.011719 10 Z M 9.347656 10 L 9.347656 13.332031 L 12.011719 13.332031 L 12.011719 12 L 12.34375 12 C 12.789062 12 12.789062 11.332031 12.34375 11.332031 L 12.011719 11.332031 L 12.011719 10 Z M 9.347656 10 "/>
</g>
</svg>
