<svg xmlns="http://www.w3.org/2000/svg" xmlns:xlink="http://www.w3.org/1999/xlink" width="16" height="16" viewBox="0 0 16 16" version="1.1">
<g id="surface1">
<path style=" stroke:none;fill-rule:nonzero;fill:rgb(0%,100%,66.666669%);fill-opacity:1;" d="M 3.332031 2.667969 L 3.332031 4 L 3.003906 4 C 2.820312 4 2.667969 4.148438 2.667969 4.332031 C 2.667969 4.519531 2.820312 4.667969 3.003906 4.667969 L 3.332031 4.667969 L 3.332031 6 L 6 6 L 6 2.667969 Z M 9.332031 2.667969 L 9.332031 6 L 12 6 L 12 4.667969 L 12.339844 4.667969 C 12.457031 4.667969 12.570312 4.605469 12.632812 4.5 C 12.691406 4.398438 12.691406 4.269531 12.632812 4.164062 C 12.570312 4.0625 12.457031 4 12.339844 4 L 12 4 L 12 2.667969 Z M 7.332031 6.019531 L 7.332031 7.351562 L 6 7.351562 L 7.667969 9.351562 L 9.332031 7.351562 L 8 7.351562 L 8 6.019531 Z M 6 10 L 6 11.351562 L 3.015625 11.351562 C 2.894531 11.351562 2.78125 11.414062 2.722656 11.515625 C 2.660156 11.621094 2.660156 11.75 2.722656 11.851562 C 2.78125 11.957031 2.894531 12.019531 3.015625 12.019531 L 6 12.019531 L 6 13.332031 L 9.332031 13.332031 L 9.332031 12.019531 L 12.332031 12.019531 C 12.453125 12.019531 12.5625 11.957031 12.625 11.851562 C 12.683594 11.75 12.683594 11.621094 12.625 11.515625 C 12.5625 11.414062 12.453125 11.351562 12.332031 11.351562 L 9.332031 11.351562 L 9.332031 10 Z M 6 10 "/>
</g>
</svg>
