<svg xmlns="http://www.w3.org/2000/svg" xmlns:xlink="http://www.w3.org/1999/xlink" width="16" height="16" viewBox="0 0 16 16" version="1.1">
<g id="surface1">
<path style=" stroke:none;fill-rule:nonzero;fill:rgb(0%,100%,66.666669%);fill-opacity:1;" d="M 12.945312 4 C 12.851562 4.003906 12.757812 4.046875 12.695312 4.121094 C 12.636719 4.195312 12.609375 4.296875 12.625 4.390625 C 12.769531 5.457031 12.53125 6.972656 11.789062 8.175781 C 11.40625 8.796875 10.898438 9.335938 10.242188 9.714844 C 9.96875 8.695312 9.050781 7.984375 8 7.984375 C 6.9375 7.984375 6.011719 8.710938 5.75 9.746094 C 5.070312 9.367188 4.550781 8.816406 4.167969 8.179688 C 3.441406 6.976562 3.222656 5.464844 3.382812 4.398438 C 3.402344 4.296875 3.371094 4.191406 3.304688 4.117188 C 3.234375 4.042969 3.136719 4 3.035156 4.007812 C 2.878906 4.019531 2.75 4.140625 2.726562 4.296875 C 2.539062 5.539062 2.78125 7.167969 3.597656 8.527344 C 4.074219 9.316406 4.773438 10.003906 5.679688 10.449219 C 5.742188 11.691406 6.761719 12.664062 8 12.667969 C 9.246094 12.664062 10.273438 11.671875 10.320312 10.414062 C 11.199219 9.972656 11.878906 9.300781 12.355469 8.527344 C 13.191406 7.171875 13.453125 5.542969 13.285156 4.300781 C 13.269531 4.128906 13.121094 3.996094 12.945312 4 Z M 12.945312 4 "/>
</g>
</svg>
