<svg xmlns="http://www.w3.org/2000/svg" xmlns:xlink="http://www.w3.org/1999/xlink" width="16" height="16" viewBox="0 0 16 16" version="1.1">
<g id="surface1">
<path style=" stroke:none;fill-rule:nonzero;fill:rgb(100%,74.901962%,0%);fill-opacity:1;" d="M 12.996094 3.332031 C 12.824219 3.335938 12.683594 3.46875 12.671875 3.636719 C 12.410156 6.394531 11.179688 8.171875 9.269531 9.605469 L 7.71875 8.054688 C 7.636719 7.640625 7.535156 7.214844 7.386719 6.773438 C 7.082031 5.894531 6.625 5.039062 5.914062 4.394531 C 5.203125 3.75 4.238281 3.335938 3 3.335938 C 2.878906 3.335938 2.769531 3.398438 2.707031 3.5 C 2.648438 3.605469 2.648438 3.734375 2.707031 3.835938 C 2.769531 3.941406 2.878906 4.003906 3 4.003906 C 4.09375 4.003906 4.871094 4.347656 5.46875 4.890625 C 6.066406 5.429688 6.476562 6.179688 6.753906 6.988281 C 6.933594 7.507812 7.039062 8.035156 7.121094 8.546875 L 5.332031 10.335938 L 7.667969 12.667969 L 10 10.335938 L 9.765625 10.101562 C 11.746094 8.570312 13.0625 6.597656 13.335938 3.699219 C 13.347656 3.605469 13.316406 3.507812 13.25 3.4375 C 13.1875 3.367188 13.09375 3.328125 12.996094 3.332031 Z M 12.996094 3.332031 "/>
</g>
</svg>
