<svg xmlns="http://www.w3.org/2000/svg" xmlns:xlink="http://www.w3.org/1999/xlink" width="16" height="16" viewBox="0 0 16 16" version="1.1">
<g id="surface1">
<path style=" stroke:none;fill-rule:evenodd;fill:rgb(0%,80.000001%,100%);fill-opacity:1;" d="M 7.511719 12 C 7.394531 12.203125 7.332031 12.433594 7.332031 12.667969 C 7.332031 13.402344 7.929688 14 8.667969 14 C 9.402344 14 10 13.402344 10 12.667969 C 10 12.433594 9.9375 12.203125 9.820312 12 Z M 8.667969 3.332031 C 8.296875 3.332031 8 3.632812 8 4 C 8 4.027344 8.003906 4.058594 8.007812 4.085938 C 6.828125 4.386719 6 5.449219 6 6.667969 C 6 8.667969 5.332031 9.332031 4 10.667969 L 4 11.332031 L 13.332031 11.332031 L 13.332031 10.667969 C 12 9.332031 11.332031 8.667969 11.332031 6.667969 C 11.332031 5.449219 10.507812 4.386719 9.328125 4.085938 C 9.332031 4.058594 9.332031 4.027344 9.332031 4 C 9.332031 3.632812 9.035156 3.332031 8.667969 3.332031 Z M 8.667969 4.667969 C 9.769531 4.667969 10.667969 5.5625 10.667969 6.667969 C 10.667969 8.667969 11.058594 9.332031 12.390625 10.667969 L 4.941406 10.667969 C 6.277344 9.332031 6.667969 8.667969 6.667969 6.667969 C 6.667969 5.5625 7.5625 4.667969 8.667969 4.667969 Z M 8.667969 4.667969 "/>
</g>
</svg>
