<svg xmlns="http://www.w3.org/2000/svg" xmlns:xlink="http://www.w3.org/1999/xlink" width="16" height="16" viewBox="0 0 16 16" version="1.1">
<g id="surface1">
<path style=" stroke:none;fill-rule:nonzero;fill:rgb(67.058825%,40.000001%,100%);fill-opacity:1;" d="M 4 2.667969 C 2.667969 2.667969 2.667969 4 2.667969 4 L 2.667969 12 C 2.667969 13.332031 4 13.332031 4 13.332031 L 12 13.332031 C 13.332031 13.332031 13.332031 12 13.332031 12 L 13.332031 4 C 13.332031 2.667969 12 2.667969 12 2.667969 Z M 5 4 L 11 4 C 11 4 12 4 12 5 L 12 11 C 12 11 12 12 11 12 L 5 12 C 5 12 4 12 4 11 L 4 5 C 4 5 4 4 5 4 Z M 5 4 "/>
</g>
</svg>
