<svg xmlns="http://www.w3.org/2000/svg" xmlns:xlink="http://www.w3.org/1999/xlink" width="16" height="16" viewBox="0 0 16 16" version="1.1">
<g id="surface1">
<path style=" stroke:none;fill-rule:nonzero;fill:rgb(0%,80.000001%,100%);fill-opacity:1;" d="M 10.691406 3.472656 C 10.628906 3.472656 10.585938 3.480469 10.585938 3.480469 L 4.023438 4.644531 C 3.367188 4.761719 3.484375 5.417969 3.484375 5.417969 L 3.816406 7.332031 L 11.941406 7.332031 L 11.359375 4.019531 C 11.269531 3.527344 10.882812 3.46875 10.691406 3.472656 Z M 3.332031 8 L 3.332031 8.667969 L 4 8.667969 L 4 8 Z M 4.667969 8 L 4.667969 8.667969 L 5.332031 8.667969 L 5.332031 8 Z M 6 8 L 6 8.667969 L 6.667969 8.667969 L 6.667969 8 Z M 7.332031 8 L 7.332031 8.667969 L 8 8.667969 L 8 8 Z M 8.667969 8 L 8.667969 8.667969 L 9.332031 8.667969 L 9.332031 8 Z M 10 8 L 10 8.667969 L 10.667969 8.667969 L 10.667969 8 Z M 11.332031 8 L 11.332031 8.667969 L 12 8.667969 L 12 8 Z M 12.667969 8 L 12.667969 8.667969 L 13.332031 8.667969 L 13.332031 8 Z M 4.167969 9.332031 L 4.644531 11.980469 C 4.761719 12.636719 5.417969 12.519531 5.417969 12.519531 L 11.980469 11.355469 C 11.980469 11.355469 12.636719 11.238281 12.519531 10.582031 L 12.292969 9.332031 Z M 4.167969 9.332031 "/>
</g>
</svg>
