<svg xmlns="http://www.w3.org/2000/svg" xmlns:xlink="http://www.w3.org/1999/xlink" width="16" height="16" viewBox="0 0 16 16" version="1.1">
<g id="surface1">
<path style=" stroke:none;fill-rule:nonzero;fill:rgb(100%,74.901962%,0%);fill-opacity:1;" d="M 6.757812 9.84375 L 7.910156 10.511719 L 6.578125 12.820312 L 5.421875 12.15625 Z M 6.757812 9.84375 "/>
<path style=" stroke:none;fill-rule:nonzero;fill:rgb(100%,74.901962%,0%);fill-opacity:1;" d="M 9.421875 9.84375 L 10.578125 10.511719 L 9.242188 12.820312 L 8.089844 12.15625 Z M 9.421875 9.84375 "/>
<path style=" stroke:none;fill-rule:nonzero;fill:rgb(100%,74.901962%,0%);fill-opacity:1;" d="M 10.15625 6.757812 L 10.820312 7.910156 L 8.511719 9.242188 L 7.84375 8.089844 Z M 10.15625 6.757812 "/>
<path style=" stroke:none;fill-rule:nonzero;fill:rgb(100%,74.901962%,0%);fill-opacity:1;" d="M 7.488281 6.757812 L 8.15625 7.910156 L 5.84375 9.242188 L 5.179688 8.089844 Z M 7.488281 6.757812 "/>
<path style=" stroke:none;fill-rule:nonzero;fill:rgb(100%,74.901962%,0%);fill-opacity:1;" d="M 7.136719 3.253906 L 8.082031 4.195312 L 6.195312 6.082031 L 5.253906 5.136719 Z M 7.136719 3.253906 "/>
<path style=" stroke:none;fill-rule:nonzero;fill:rgb(100%,74.901962%,0%);fill-opacity:1;" d="M 9.804688 3.253906 L 10.746094 4.195312 L 8.863281 6.082031 L 7.917969 5.136719 Z M 9.804688 3.253906 "/>
<path style=" stroke:none;fill-rule:nonzero;fill:rgb(100%,74.901962%,0%);fill-opacity:1;" d="M 11.332031 3.332031 L 12.667969 3.332031 L 12.667969 6 L 11.332031 6 Z M 3.332031 3.332031 L 4.667969 3.332031 L 4.667969 6 L 3.332031 6 Z M 3.332031 6.667969 L 4.667969 6.667969 L 4.667969 9.332031 L 3.332031 9.332031 Z M 11.332031 6.667969 L 12.667969 6.667969 L 12.667969 9.332031 L 11.332031 9.332031 Z M 11.332031 10 L 12.667969 10 L 12.667969 12.667969 L 11.332031 12.667969 Z M 3.332031 10 L 4.667969 10 L 4.667969 12.667969 L 3.332031 12.667969 Z M 3.332031 10 "/>
</g>
</svg>
