<svg xmlns="http://www.w3.org/2000/svg" xmlns:xlink="http://www.w3.org/1999/xlink" width="16" height="16" viewBox="0 0 16 16" version="1.1">
<g id="surface1">
<path style=" stroke:none;fill-rule:nonzero;fill:rgb(100%,30.980393%,30.980393%);fill-opacity:1;" d="M 4.667969 3.332031 C 3.929688 3.332031 3.332031 3.929688 3.332031 4.667969 L 3.332031 6 L 4.667969 6 L 4.667969 4.667969 L 6 4.667969 L 6 3.332031 Z M 10 3.332031 L 10 4.667969 L 11.332031 4.667969 L 11.332031 6 L 12.667969 6 L 12.667969 4.667969 C 12.667969 3.929688 12.070312 3.332031 11.332031 3.332031 Z M 6.667969 5.332031 C 5.929688 5.332031 5.332031 5.929688 5.332031 6.667969 C 5.332031 7.402344 5.929688 8 6.667969 8 C 7.402344 8 8 7.402344 8 6.667969 C 8 5.929688 7.402344 5.332031 6.667969 5.332031 Z M 8.667969 5.332031 L 8.667969 8 L 10.667969 8 L 10.667969 5.332031 Z M 6 8.667969 L 6 10.667969 L 7.332031 10.667969 L 7.332031 8.667969 Z M 9.667969 8.667969 L 8.667969 10.667969 L 10.667969 10.667969 Z M 3.332031 10 L 3.332031 11.332031 C 3.332031 12.070312 3.929688 12.667969 4.667969 12.667969 L 6 12.667969 L 6 11.332031 L 4.667969 11.332031 L 4.667969 10 Z M 11.332031 10 L 11.332031 11.332031 L 10 11.332031 L 10 12.667969 L 11.332031 12.667969 C 12.070312 12.667969 12.667969 12.070312 12.667969 11.332031 L 12.667969 10 Z M 11.332031 10 "/>
</g>
</svg>
