<svg xmlns="http://www.w3.org/2000/svg" xmlns:xlink="http://www.w3.org/1999/xlink" width="16" height="16" viewBox="0 0 16 16" version="1.1">
<g id="surface1">
<path style=" stroke:none;fill-rule:nonzero;fill:rgb(100%,74.901962%,0%);fill-opacity:1;" d="M 7.988281 2.667969 L 7.988281 4 C 5.777344 4 3.988281 5.792969 3.988281 8 C 3.988281 10.210938 5.777344 12 7.988281 12 C 10.171875 12 11.945312 10.246094 11.984375 8.066406 C 11.984375 8.046875 11.988281 8.023438 11.988281 8 C 11.988281 7.632812 11.6875 7.335938 11.320312 7.335938 C 10.953125 7.335938 10.652344 7.632812 10.652344 8 C 10.652344 9.472656 9.460938 10.667969 7.988281 10.667969 C 6.515625 10.667969 5.320312 9.472656 5.320312 8 C 5.320312 6.527344 6.515625 5.335938 7.988281 5.335938 L 7.988281 6.667969 L 10.652344 4.667969 Z M 7.988281 2.667969 "/>
</g>
</svg>
