<svg xmlns="http://www.w3.org/2000/svg" xmlns:xlink="http://www.w3.org/1999/xlink" width="16" height="16" viewBox="0 0 16 16" version="1.1">
<g id="surface1">
<path style=" stroke:none;fill-rule:nonzero;fill:rgb(0%,80.000001%,100%);fill-opacity:1;" d="M 8 3.332031 C 6.523438 3.332031 5.332031 4.546875 5.332031 6.042969 L 5.332031 7.332031 L 4.667969 7.332031 C 4.296875 7.332031 4 7.628906 4 8 L 4 12 C 4 12.371094 4.296875 12.667969 4.667969 12.667969 L 11.332031 12.667969 C 11.703125 12.667969 12 12.371094 12 12 L 12 8 C 12 7.628906 11.703125 7.332031 11.332031 7.332031 L 10.667969 7.332031 L 10.667969 6.042969 C 10.667969 4.546875 9.476562 3.332031 8 3.332031 Z M 8 4.667969 C 8.738281 4.667969 9.332031 5.261719 9.332031 6 L 9.332031 7.332031 L 6.667969 7.332031 L 6.667969 6 C 6.667969 5.261719 7.261719 4.667969 8 4.667969 Z M 8 4.667969 "/>
</g>
</svg>
