<svg xmlns="http://www.w3.org/2000/svg" xmlns:xlink="http://www.w3.org/1999/xlink" width="16" height="16" viewBox="0 0 16 16" version="1.1">
<defs>
<filter id="alpha" filterUnits="objectBoundingBox" x="0%" y="0%" width="100%" height="100%">
  <feColorMatrix type="matrix" in="SourceGraphic" values="0 0 0 0 1 0 0 0 0 1 0 0 0 0 1 0 0 0 1 0"/>
</filter>
<mask id="mask0">
  <g filter="url(#alpha)">
<rect x="0" y="0" width="16" height="16" style="fill:rgb(0%,0%,0%);fill-opacity:0.3;stroke:none;"/>
  </g>
</mask>
<clipPath id="clip1">
  <rect x="0" y="0" width="16" height="16"/>
</clipPath>
<g id="surface5" clip-path="url(#clip1)">
<path style=" stroke:none;fill-rule:nonzero;fill:rgb(100%,74.901962%,0%);fill-opacity:1;" d="M 8.667969 7 C 8.667969 7.921875 7.921875 8.667969 7 8.667969 C 6.078125 8.667969 5.332031 7.921875 5.332031 7 C 5.332031 6.078125 6.078125 5.332031 7 5.332031 C 7.921875 5.332031 8.667969 6.078125 8.667969 7 Z M 8.667969 7 "/>
</g>
</defs>
<g id="surface1">
<use xlink:href="#surface5" mask="url(#mask0)"/>
<path style=" stroke:none;fill-rule:nonzero;fill:rgb(100%,74.901962%,0%);fill-opacity:1;" d="M 10.667969 9 C 10.667969 9.921875 9.921875 10.667969 9 10.667969 C 8.078125 10.667969 7.332031 9.921875 7.332031 9 C 7.332031 8.078125 8.078125 7.332031 9 7.332031 C 9.921875 7.332031 10.667969 8.078125 10.667969 9 Z M 12.667969 6.667969 C 11.929688 6.667969 11.332031 7.261719 11.332031 8 C 11.332031 8.738281 11.929688 9.332031 12.667969 9.332031 Z M 12.667969 11.332031 C 11.929688 11.332031 11.332031 11.929688 11.332031 12.667969 L 12.667969 12.667969 Z M 8 11.332031 C 7.261719 11.332031 6.667969 11.929688 6.667969 12.667969 L 9.332031 12.667969 C 9.332031 11.929688 8.738281 11.332031 8 11.332031 Z M 3.332031 11.332031 L 3.332031 12.667969 L 4.667969 12.667969 C 4.667969 11.929688 4.070312 11.332031 3.332031 11.332031 Z M 3.332031 6.667969 L 3.332031 9.332031 C 4.070312 9.332031 4.667969 8.738281 4.667969 8 C 4.667969 7.261719 4.070312 6.667969 3.332031 6.667969 Z M 3.332031 3.332031 L 3.332031 4.667969 C 4.070312 4.667969 4.667969 4.070312 4.667969 3.332031 Z M 6.667969 3.332031 C 6.667969 4.070312 7.261719 4.667969 8 4.667969 C 8.738281 4.667969 9.332031 4.070312 9.332031 3.332031 Z M 11.332031 3.332031 C 11.332031 4.070312 11.929688 4.667969 12.667969 4.667969 L 12.667969 3.332031 Z M 11.332031 3.332031 "/>
</g>
</svg>
