<svg xmlns="http://www.w3.org/2000/svg" xmlns:xlink="http://www.w3.org/1999/xlink" width="16" height="16" viewBox="0 0 16 16" version="1.1">
<defs>
<filter id="alpha" filterUnits="objectBoundingBox" x="0%" y="0%" width="100%" height="100%">
  <feColorMatrix type="matrix" in="SourceGraphic" values="0 0 0 0 1 0 0 0 0 1 0 0 0 0 1 0 0 0 1 0"/>
</filter>
<mask id="mask0">
  <g filter="url(#alpha)">
<rect x="0" y="0" width="16" height="16" style="fill:rgb(0%,0%,0%);fill-opacity:0.5;stroke:none;"/>
  </g>
</mask>
<clipPath id="clip1">
  <rect x="0" y="0" width="16" height="16"/>
</clipPath>
<g id="surface5" clip-path="url(#clip1)">
<path style=" stroke:none;fill-rule:nonzero;fill:rgb(0%,80.000001%,100%);fill-opacity:1;" d="M 8.667969 6 L 7.335938 7.332031 L 8 7.332031 L 8 8 L 6.671875 8 L 6.003906 8.667969 L 4 8.667969 L 4 11.332031 L 7.332031 11.332031 L 8.664062 11.328125 L 12 11.332031 L 12 7.332031 L 10.664062 7.332031 L 10.664062 8 L 9.332031 8 L 9.332031 7.332031 L 10 7.332031 Z M 8.667969 6 "/>
</g>
</defs>
<g id="surface1">
<path style=" stroke:none;fill-rule:nonzero;fill:rgb(0%,80.000001%,100%);fill-opacity:1;" d="M 4 4 L 4 12 L 12 12 L 12 11.332031 L 4.667969 11.332031 L 4.667969 10.667969 L 6.671875 10.667969 L 6.671875 10.660156 L 6.675781 10.667969 L 8.007812 9.332031 L 9.070312 9.332031 L 10.402344 10.667969 L 12.003906 10.667969 L 12.003906 10 L 10.679688 10 L 9.347656 8.667969 L 7.734375 8.667969 L 6.398438 10 L 4.667969 10 L 4.667969 8.664062 L 6 8.664062 L 6 8.660156 L 6.003906 8.664062 L 6.667969 8 L 8 8 L 8 7.332031 L 7.332031 7.332031 L 7.332031 6.667969 L 6.667969 6.667969 L 6.667969 7.996094 L 6.199219 7.527344 L 5.730469 7.996094 L 4.667969 7.996094 L 4.667969 4 Z M 6.667969 4 L 6.667969 5.332031 L 7.332031 5.332031 L 7.332031 4.667969 L 8 4.667969 L 8 4 Z M 9.332031 4 L 9.332031 4.667969 L 10 4.667969 L 10 5.332031 L 10.667969 5.332031 L 10.667969 4 Z M 8.667969 5.058594 L 7.53125 6.195312 L 8.003906 6.667969 L 8.667969 6.003906 L 9.332031 6.667969 L 9.800781 6.195312 Z M 10 6.667969 L 10 7.332031 L 9.332031 7.332031 L 9.332031 8 L 10.667969 8 L 10.667969 6.667969 Z M 12 6.667969 L 11.332031 7.332031 L 12 7.332031 Z M 12 6.667969 "/>
<use xlink:href="#surface5" mask="url(#mask0)"/>
</g>
</svg>
