<svg xmlns="http://www.w3.org/2000/svg" xmlns:xlink="http://www.w3.org/1999/xlink" width="16" height="16" viewBox="0 0 16 16" version="1.1">
<g id="surface1">
<path style=" stroke:none;fill-rule:nonzero;fill:rgb(67.058825%,40.000001%,100%);fill-opacity:1;" d="M 7.667969 4 C 7.480469 4 7.332031 4.148438 7.332031 4.332031 C 7.332031 4.519531 7.480469 4.667969 7.667969 4.667969 C 7.851562 4.667969 8 4.519531 8 4.332031 C 8 4.148438 7.851562 4 7.667969 4 Z M 4.332031 4.667969 C 4.148438 4.667969 4 4.816406 4 5 C 4 5.183594 4.148438 5.332031 4.332031 5.332031 C 4.519531 5.332031 4.667969 5.183594 4.667969 5 C 4.667969 4.816406 4.519531 4.667969 4.332031 4.667969 Z M 7.332031 4.667969 C 6.066406 4.667969 4.941406 5.253906 4.210938 6.167969 L 6.296875 7.835938 C 6.539062 7.53125 6.910156 7.332031 7.332031 7.332031 Z M 7.332031 5.667969 C 7.332031 5.851562 7.480469 6 7.667969 6 C 7.851562 6 8 5.851562 8 5.667969 C 8 5.480469 7.851562 5.332031 7.667969 5.332031 C 7.480469 5.332031 7.332031 5.480469 7.332031 5.667969 Z M 7.332031 7 C 7.332031 7.183594 7.480469 7.332031 7.667969 7.332031 C 7.851562 7.332031 8 7.183594 8 7 C 8 6.816406 7.851562 6.667969 7.667969 6.667969 C 7.480469 6.667969 7.332031 6.816406 7.332031 7 Z M 9.804688 4.710938 L 8.039062 7.539062 C 8.386719 7.753906 8.621094 8.125 8.65625 8.554688 L 11.980469 8.277344 C 11.855469 6.769531 11.019531 5.46875 9.804688 4.710938 Z M 5 8 C 4.816406 8 4.667969 8.148438 4.667969 8.332031 C 4.667969 8.519531 4.816406 8.667969 5 8.667969 C 5.183594 8.667969 5.332031 8.519531 5.332031 8.332031 C 5.332031 8.148438 5.183594 8 5 8 Z M 6.332031 8 C 6.148438 8 6 8.148438 6 8.332031 C 6 8.519531 6.148438 8.667969 6.332031 8.667969 C 6.519531 8.667969 6.667969 8.519531 6.667969 8.332031 C 6.667969 8.148438 6.519531 8 6.332031 8 Z M 7.667969 8 C 7.480469 8 7.332031 8.148438 7.332031 8.332031 C 7.332031 8.519531 7.480469 8.667969 7.667969 8.667969 C 7.851562 8.667969 8 8.519531 8 8.332031 C 8 8.148438 7.851562 8 7.667969 8 Z M 7.667969 9.332031 C 7.480469 9.332031 7.332031 9.480469 7.332031 9.667969 C 7.332031 9.851562 7.480469 10 7.667969 10 C 7.851562 10 8 9.851562 8 9.667969 C 8 9.480469 7.851562 9.332031 7.667969 9.332031 Z M 9 9.332031 C 8.816406 9.332031 8.667969 9.480469 8.667969 9.667969 C 8.667969 9.851562 8.816406 10 9 10 C 9.183594 10 9.332031 9.851562 9.332031 9.667969 C 9.332031 9.480469 9.183594 9.332031 9 9.332031 Z M 6.390625 9.609375 L 4.972656 11.027344 C 5.578125 11.628906 6.410156 12 7.332031 12 L 7.332031 10 C 6.964844 10 6.628906 9.851562 6.390625 9.609375 Z M 7.332031 11 C 7.332031 11.183594 7.480469 11.332031 7.667969 11.332031 C 7.851562 11.332031 8 11.183594 8 11 C 8 10.816406 7.851562 10.667969 7.667969 10.667969 C 7.480469 10.667969 7.332031 10.816406 7.332031 11 Z M 10.332031 10.667969 C 10.148438 10.667969 10 10.816406 10 11 C 10 11.183594 10.148438 11.332031 10.332031 11.332031 C 10.519531 11.332031 10.667969 11.183594 10.667969 11 C 10.667969 10.816406 10.519531 10.667969 10.332031 10.667969 Z M 10.332031 10.667969 "/>
</g>
</svg>
