<svg xmlns="http://www.w3.org/2000/svg" xmlns:xlink="http://www.w3.org/1999/xlink" width="16" height="16" viewBox="0 0 16 16" version="1.1">
<g id="surface1">
<path style=" stroke:none;fill-rule:nonzero;fill:rgb(0%,100%,66.666669%);fill-opacity:1;" d="M 4 4 L 4 12 L 12 12 L 12 11.332031 L 4.667969 11.332031 L 4.667969 4 Z M 5.332031 4 L 5.332031 4.667969 L 6 4.667969 L 6 4 Z M 6.667969 4 L 6.667969 4.667969 L 7.332031 4.667969 L 7.332031 4 Z M 10.667969 4.667969 L 10.667969 5.332031 L 11.332031 5.332031 L 11.332031 4.667969 Z M 11.332031 5.332031 L 11.332031 6 L 12 6 L 12 5.332031 Z M 11.332031 6 L 10.667969 6 L 10.667969 6.667969 L 11.332031 6.667969 Z M 10.667969 6 L 10.667969 5.332031 L 10 5.332031 L 10 6 Z M 5.332031 5.332031 L 5.332031 6 L 6 6 L 6 5.332031 Z M 6.667969 5.332031 L 6.667969 6 L 7.332031 6 L 7.332031 5.332031 Z M 8.667969 7.332031 L 8.667969 8 L 9.332031 8 L 9.332031 7.332031 Z M 10 7.332031 L 10 8 L 10.667969 8 L 10.667969 7.332031 Z M 6 8.667969 L 6 9.332031 L 6.667969 9.332031 L 6.667969 8.667969 Z M 6.667969 9.332031 L 6.667969 10 L 7.332031 10 L 7.332031 9.332031 Z M 6.667969 10 L 6 10 L 6 10.667969 L 6.667969 10.667969 Z M 6 10 L 6 9.332031 L 5.332031 9.332031 L 5.332031 10 Z M 8.667969 8.667969 L 8.667969 9.332031 L 9.332031 9.332031 L 9.332031 8.667969 Z M 10 8.667969 L 10 9.332031 L 10.667969 9.332031 L 10.667969 8.667969 Z M 10 8.667969 "/>
</g>
</svg>
