<svg xmlns="http://www.w3.org/2000/svg" xmlns:xlink="http://www.w3.org/1999/xlink" width="16" height="16" viewBox="0 0 16 16" version="1.1">
<g id="surface1">
<path style=" stroke:none;fill-rule:nonzero;fill:rgb(0%,80.000001%,100%);fill-opacity:1;" d="M 8 4 C 5.785156 4 4 5.785156 4 8 C 4 10.214844 5.785156 12 8 12 C 10.214844 12 12 10.214844 12 8 C 12 7.414062 11.871094 6.855469 11.644531 6.355469 L 11.125 6.875 C 11.25 7.226562 11.332031 7.601562 11.332031 8 C 11.332031 9.847656 9.847656 11.332031 8 11.332031 C 6.152344 11.332031 4.667969 9.847656 4.667969 8 C 4.667969 6.152344 6.152344 4.667969 8 4.667969 C 9.09375 4.667969 10.054688 5.195312 10.660156 6.007812 L 11.140625 5.523438 C 10.410156 4.597656 9.277344 4 8 4 Z M 8 5.332031 C 7.261719 5.332031 6.59375 5.632812 6.113281 6.113281 L 6.585938 6.585938 C 6.945312 6.222656 7.445312 6 8 6 C 9.109375 6 10 6.890625 10 8 C 10 9.109375 9.109375 10 8 10 C 6.890625 10 6 9.109375 6 8 C 6 7.796875 6.039062 7.609375 6.09375 7.425781 L 5.570312 6.90625 C 5.421875 7.238281 5.332031 7.609375 5.332031 8 C 5.332031 9.476562 6.523438 10.667969 8 10.667969 C 9.476562 10.667969 10.667969 9.476562 10.667969 8 C 10.667969 6.523438 9.476562 5.332031 8 5.332031 Z M 8 6.667969 C 7.261719 6.667969 6.667969 7.261719 6.667969 8 C 6.667969 8.738281 7.261719 9.332031 8 9.332031 C 8.609375 9.332031 9.136719 8.921875 9.289062 8.332031 L 8.574219 8.332031 C 8.457031 8.539062 8.238281 8.664062 8 8.667969 C 7.632812 8.667969 7.332031 8.367188 7.332031 8 C 7.332031 7.632812 7.632812 7.332031 8 7.332031 C 8.238281 7.332031 8.457031 7.460938 8.578125 7.667969 L 9.289062 7.667969 C 9.136719 7.078125 8.605469 6.667969 8 6.667969 Z M 8 6.667969 "/>
</g>
</svg>
