<svg xmlns="http://www.w3.org/2000/svg" xmlns:xlink="http://www.w3.org/1999/xlink" width="16" height="16" viewBox="0 0 16 16" version="1.1">
<g id="surface1">
<path style=" stroke:none;fill-rule:nonzero;fill:rgb(100%,74.901962%,0%);fill-opacity:1;" d="M 8.667969 3.332031 C 8.296875 3.332031 8 3.628906 8 4 L 8 7.332031 C 8 7.703125 8.296875 8 8.667969 8 L 12 8 C 12.371094 8 12.667969 7.703125 12.667969 7.332031 L 12.667969 4 C 12.667969 3.628906 12.371094 3.332031 12 3.332031 Z M 5.667969 4 C 4.746094 4 4 4.746094 4 5.667969 C 4 6.585938 4.746094 7.332031 5.667969 7.332031 C 6.457031 7.332031 7.140625 6.777344 7.300781 6 L 5.332031 6 L 6.421875 4.183594 C 6.1875 4.0625 5.929688 4 5.667969 4 Z M 9.332031 4.667969 L 11.332031 4.667969 L 11.332031 6.667969 L 9.332031 6.667969 Z M 4 8 C 3.628906 8 3.332031 8.296875 3.332031 8.667969 L 3.332031 12 C 3.332031 12.371094 3.628906 12.667969 4 12.667969 L 7.332031 12.667969 C 7.703125 12.667969 8 12.371094 8 12 L 8 8.667969 C 8 8.296875 7.703125 8 7.332031 8 Z M 11.332031 8.667969 L 11.332031 12 L 12 12 L 12 8.667969 Z M 4.667969 9.332031 L 6.667969 9.332031 L 6.667969 11.332031 L 4.667969 11.332031 Z M 10 10 L 10 12 L 10.667969 12 L 10.667969 10 Z M 8.667969 10.667969 L 8.667969 12 L 9.332031 12 L 9.332031 10.667969 Z M 8.667969 10.667969 "/>
</g>
</svg>
