<svg xmlns="http://www.w3.org/2000/svg" xmlns:xlink="http://www.w3.org/1999/xlink" width="16" height="16" viewBox="0 0 16 16" version="1.1">
<g id="surface1">
<path style=" stroke:none;fill-rule:nonzero;fill:rgb(96.862745%,0%,100%);fill-opacity:1;" d="M 4 4 L 4 5.996094 L 3.332031 5.996094 L 3.332031 6 L 4 6 L 4 12 L 12 12 L 12 11.332031 L 4.667969 11.332031 L 4.667969 10.667969 L 6.667969 10.667969 L 6.667969 10.660156 L 6.671875 10.667969 L 8.003906 9.332031 L 9.066406 9.332031 L 10.398438 10.667969 L 12 10.667969 L 12 10 L 10.675781 10 L 9.34375 8.667969 L 7.730469 8.667969 L 6.394531 10 L 4.667969 10 L 4.667969 8.667969 L 5.917969 8.667969 L 7.25 7.332031 L 6.308594 7.332031 L 5.640625 8 L 4.667969 8 L 4.667969 6 L 5.332031 6 L 5.332031 5.996094 L 4.667969 5.996094 L 4.667969 4 Z M 5.332031 4 L 5.332031 4.667969 L 6 4.667969 L 6 6.667969 L 6.667969 6.667969 L 6.667969 4 Z M 8.332031 4 C 7.78125 4 7.332031 4.445312 7.332031 5 L 7.332031 5.667969 C 7.332031 6.21875 7.78125 6.667969 8.332031 6.667969 C 8.886719 6.667969 9.332031 6.21875 9.332031 5.667969 L 9.332031 5 C 9.332031 4.445312 8.886719 4 8.332031 4 Z M 11 4 C 10.445312 4 10 4.445312 10 5 L 10 5.667969 C 10 6.21875 10.445312 6.667969 11 6.667969 C 11.554688 6.667969 12 6.21875 12 5.667969 L 12 5 C 12 4.445312 11.554688 4 11 4 Z M 8.332031 4.667969 C 8.519531 4.667969 8.667969 4.816406 8.667969 5 L 8.667969 5.667969 C 8.667969 5.851562 8.519531 6 8.332031 6 C 8.148438 6 8 5.851562 8 5.667969 L 8 5 C 8 4.816406 8.148438 4.667969 8.332031 4.667969 Z M 11 4.667969 C 11.183594 4.667969 11.332031 4.816406 11.332031 5 L 11.332031 5.667969 C 11.332031 5.851562 11.183594 6 11 6 C 10.816406 6 10.667969 5.851562 10.667969 5.667969 L 10.667969 5 C 10.667969 4.816406 10.816406 4.667969 11 4.667969 Z M 11 4.667969 "/>
</g>
</svg>
