<svg xmlns="http://www.w3.org/2000/svg" xmlns:xlink="http://www.w3.org/1999/xlink" width="16" height="16" viewBox="0 0 16 16" version="1.1">
<g id="surface1">
<path style=" stroke:none;fill-rule:nonzero;fill:rgb(100%,30.980393%,30.980393%);fill-opacity:1;" d="M 4 4 L 4 5.996094 L 3.339844 5.996094 L 3.339844 6.003906 L 4 6.003906 L 4 12 L 12 12 L 12 11.332031 L 4.667969 11.332031 L 4.667969 6.003906 L 7.644531 6.003906 L 5.644531 8.003906 L 4.671875 8.003906 L 4.671875 8.671875 L 5.921875 8.671875 L 8.671875 5.921875 L 10.085938 7.335938 L 10.09375 7.335938 L 11.976562 5.453125 C 11.980469 5.457031 11.507812 4.980469 11.507812 4.980469 L 10.089844 6.398438 L 8.671875 4.980469 L 8.667969 4.980469 L 7.652344 5.996094 L 4.667969 5.996094 L 4.667969 4 Z M 7.734375 8.667969 L 6.398438 10 L 4.671875 10 L 4.671875 10.667969 L 6.671875 10.667969 L 6.671875 10.660156 L 6.675781 10.667969 L 8.007812 9.332031 L 9.070312 9.332031 L 10.402344 10.667969 L 12.003906 10.667969 L 12.003906 10 L 10.679688 10 L 9.347656 8.667969 Z M 7.734375 8.667969 "/>
</g>
</svg>
