<svg xmlns="http://www.w3.org/2000/svg" xmlns:xlink="http://www.w3.org/1999/xlink" width="16" height="16" viewBox="0 0 16 16" version="1.1">
<g id="surface1">
<path style=" stroke:none;fill-rule:nonzero;fill:rgb(100%,74.901962%,0%);fill-opacity:1;" d="M 11 8 C 9.710938 8 8.667969 9.042969 8.667969 10.332031 C 8.667969 11.621094 9.710938 12.667969 11 12.667969 C 12.289062 12.667969 13.332031 11.621094 13.332031 10.332031 C 13.332031 9.042969 12.289062 8 11 8 Z M 11 8.667969 L 11.5 9.332031 L 12 10 L 11.332031 10 L 11.332031 10.667969 L 12 10.667969 L 11.5 11.332031 L 11 12 L 10.5 11.332031 L 10 10.667969 L 10.667969 10.667969 L 10.667969 10 L 10 10 L 10.5 9.332031 Z M 11 8.667969 "/>
<path style=" stroke:none;fill-rule:nonzero;fill:rgb(100%,74.901962%,0%);fill-opacity:1;" d="M 4.265625 4.667969 C 3.75 4.667969 3.332031 5.089844 3.332031 5.617188 L 3.332031 10.382812 C 3.332031 10.910156 3.75 11.332031 4.265625 11.332031 L 8.179688 11.332031 C 8.0625 11.011719 8.003906 10.675781 8 10.332031 C 8 8.675781 9.34375 7.332031 11 7.332031 C 11.59375 7.332031 12.171875 7.507812 12.667969 7.839844 L 12.667969 5.617188 C 12.667969 5.089844 12.25 4.667969 11.734375 4.667969 Z M 4.265625 4.667969 "/>
</g>
</svg>
