<svg xmlns="http://www.w3.org/2000/svg" xmlns:xlink="http://www.w3.org/1999/xlink" width="16" height="16" viewBox="0 0 16 16" version="1.1">
<g id="surface1">
<path style=" stroke:none;fill-rule:nonzero;fill:rgb(0%,100%,66.666669%);fill-opacity:1;" d="M 4.265625 4.667969 C 3.75 4.667969 3.332031 5.089844 3.332031 5.617188 L 3.332031 10.382812 C 3.332031 10.910156 3.75 11.332031 4.265625 11.332031 L 7.617188 11.332031 C 7.429688 10.914062 7.335938 10.460938 7.332031 10 C 7.332031 8.160156 8.824219 6.667969 10.667969 6.667969 C 11.386719 6.667969 12.089844 6.902344 12.667969 7.335938 L 12.667969 5.617188 C 12.667969 5.089844 12.25 4.667969 11.734375 4.667969 Z M 10.667969 7.332031 C 9.195312 7.332031 8 8.527344 8 10 C 8 11.472656 9.195312 12.667969 10.667969 12.667969 C 12.140625 12.667969 13.332031 11.472656 13.332031 10 C 13.332031 8.527344 12.140625 7.332031 10.667969 7.332031 Z M 10.667969 8 C 11.363281 8 12.011719 8.363281 12.371094 8.960938 L 12.667969 8.667969 L 12.667969 10 L 11.332031 10 L 11.878906 9.457031 C 11.664062 8.976562 11.191406 8.667969 10.667969 8.667969 C 9.929688 8.667969 9.332031 9.261719 9.332031 10 C 9.332031 10.738281 9.929688 11.332031 10.667969 11.332031 L 10.667969 12 C 9.5625 12 8.667969 11.105469 8.667969 10 C 8.667969 8.894531 9.5625 8 10.667969 8 Z M 10.667969 8 "/>
</g>
</svg>
