<svg xmlns="http://www.w3.org/2000/svg" xmlns:xlink="http://www.w3.org/1999/xlink" width="16" height="16" viewBox="0 0 16 16" version="1.1">
<defs>
<filter id="alpha" filterUnits="objectBoundingBox" x="0%" y="0%" width="100%" height="100%">
  <feColorMatrix type="matrix" in="SourceGraphic" values="0 0 0 0 1 0 0 0 0 1 0 0 0 0 1 0 0 0 1 0"/>
</filter>
<mask id="mask0">
  <g filter="url(#alpha)">
<rect x="0" y="0" width="16" height="16" style="fill:rgb(0%,0%,0%);fill-opacity:0.35;stroke:none;"/>
  </g>
</mask>
<clipPath id="clip1">
  <rect x="0" y="0" width="16" height="16"/>
</clipPath>
<g id="surface5" clip-path="url(#clip1)">
<path style=" stroke:none;fill-rule:nonzero;fill:rgb(0%,80.000001%,100%);fill-opacity:1;" d="M 9.332031 4.667969 L 9.332031 11.332031 L 11.734375 11.332031 C 12.25 11.332031 12.667969 10.910156 12.667969 10.382812 L 12.667969 5.617188 C 12.667969 5.089844 12.25 4.667969 11.734375 4.667969 Z M 9.332031 4.667969 "/>
</g>
</defs>
<g id="surface1">
<use xlink:href="#surface5" mask="url(#mask0)"/>
<path style=" stroke:none;fill-rule:nonzero;fill:rgb(0%,80.000001%,100%);fill-opacity:1;" d="M 4.265625 4.667969 C 3.75 4.667969 3.332031 5.089844 3.332031 5.617188 L 3.332031 10.382812 C 3.332031 10.910156 3.75 11.332031 4.265625 11.332031 L 6.667969 11.332031 L 6.667969 4.667969 Z M 4.265625 4.667969 "/>
<path style=" stroke:none;fill-rule:nonzero;fill:rgb(0%,80.000001%,100%);fill-opacity:1;" d="M 7.332031 3.332031 L 7.332031 12.667969 L 8.667969 12.667969 L 8.667969 3.332031 Z M 7.332031 3.332031 "/>
</g>
</svg>
