<svg xmlns="http://www.w3.org/2000/svg" xmlns:xlink="http://www.w3.org/1999/xlink" width="16" height="16" viewBox="0 0 16 16" version="1.1">
<g id="surface1">
<path style=" stroke:none;fill-rule:nonzero;fill:rgb(100%,30.980393%,30.980393%);fill-opacity:1;" d="M 4 7.332031 L 9.332031 7.332031 C 9.703125 7.332031 10 7.632812 10 8 L 10 11.332031 C 10 11.703125 9.703125 12 9.332031 12 L 4 12 C 3.632812 12 3.332031 11.703125 3.332031 11.332031 L 3.332031 8 C 3.332031 7.632812 3.632812 7.332031 4 7.332031 Z M 4 7.332031 "/>
<path style=" stroke:none;fill-rule:nonzero;fill:rgb(100%,30.980393%,30.980393%);fill-opacity:1;" d="M 6.667969 4 C 6.296875 4 6 4.296875 6 4.667969 L 6 6.667969 L 9.332031 6.667969 C 10.058594 6.667969 10.667969 7.273438 10.667969 8 L 10.667969 8.667969 L 12 8.667969 C 12.371094 8.667969 12.667969 8.371094 12.667969 8 L 12.667969 4.667969 C 12.667969 4.296875 12.371094 4 12 4 Z M 6.667969 4 "/>
</g>
</svg>
