<svg xmlns="http://www.w3.org/2000/svg" xmlns:xlink="http://www.w3.org/1999/xlink" width="16" height="16" viewBox="0 0 16 16" version="1.1">
<g id="surface1">
<path style=" stroke:none;fill-rule:nonzero;fill:rgb(0%,80.000001%,100%);fill-opacity:1;" d="M 4 3.328125 L 4 3.332031 C 3.3125 3.375 3.332031 4 3.332031 4 L 3.332031 12 C 3.332031 12 3.3125 12.625 4 12.667969 L 12 12.667969 C 12.667969 12.667969 12.667969 12 12.667969 12 L 12.667969 4 C 12.667969 4 12.667969 3.332031 12 3.332031 L 8.3125 3.332031 L 8.519531 3.582031 L 9.394531 4.667969 L 11.332031 4.667969 L 11.332031 9.332031 L 9.332031 9.332031 C 9.332031 10.070312 8.738281 10.667969 8 10.667969 C 7.261719 10.667969 6.667969 10.070312 6.667969 9.332031 L 4.667969 9.332031 L 4.667969 4.667969 L 6.605469 4.667969 L 7.480469 3.582031 L 7.6875 3.328125 Z M 8 4 L 5.332031 7.332031 L 6.667969 7.332031 L 6.667969 8.667969 L 9.332031 8.667969 L 9.332031 7.332031 L 10.667969 7.332031 Z M 8 4 "/>
</g>
</svg>
