<svg xmlns="http://www.w3.org/2000/svg" xmlns:xlink="http://www.w3.org/1999/xlink" width="16" height="16" viewBox="0 0 16 16" version="1.1">
<g id="surface1">
<path style=" stroke:none;fill-rule:nonzero;fill:rgb(96.862745%,0%,100%);fill-opacity:1;" d="M 6.667969 3.332031 C 5.929688 3.332031 5.332031 3.929688 5.332031 4.667969 C 5.332031 5.402344 5.929688 6 6.667969 6 C 7.402344 6 8 5.402344 8 4.667969 C 8 3.929688 7.402344 3.332031 6.667969 3.332031 Z M 6.667969 6.667969 C 5.929688 6.667969 5.332031 7.261719 5.332031 8 C 5.332031 8.738281 5.929688 9.332031 6.667969 9.332031 C 7.402344 9.332031 8 8.738281 8 8 C 8 7.261719 7.402344 6.667969 6.667969 6.667969 Z M 10 6.667969 C 9.261719 6.667969 8.667969 7.261719 8.667969 8 C 8.667969 8.738281 9.261719 9.332031 10 9.332031 C 10.738281 9.332031 11.332031 8.738281 11.332031 8 C 11.332031 7.261719 10.738281 6.667969 10 6.667969 Z M 6.667969 10 C 5.929688 10 5.332031 10.597656 5.332031 11.332031 C 5.332031 12.070312 5.929688 12.667969 6.667969 12.667969 C 7.402344 12.667969 8 12.070312 8 11.332031 C 8 10.597656 7.402344 10 6.667969 10 Z M 6.667969 10 "/>
</g>
</svg>
