<svg xmlns="http://www.w3.org/2000/svg" xmlns:xlink="http://www.w3.org/1999/xlink" width="16" height="16" viewBox="0 0 16 16" version="1.1">
<g id="surface1">
<path style=" stroke:none;fill-rule:nonzero;fill:rgb(96.862745%,0%,100%);fill-opacity:1;" d="M 5.324219 4.539062 C 5.003906 4.539062 4.714844 4.734375 4.59375 5.03125 C 4.472656 5.328125 4.542969 5.667969 4.773438 5.894531 L 6.882812 8 L 4.773438 10.109375 C 4.464844 10.417969 4.464844 10.917969 4.773438 11.226562 C 5.082031 11.535156 5.582031 11.535156 5.890625 11.226562 L 8 9.117188 L 10.109375 11.226562 C 10.308594 11.429688 10.601562 11.507812 10.875 11.4375 C 11.148438 11.363281 11.363281 11.148438 11.4375 10.875 C 11.507812 10.601562 11.429688 10.308594 11.226562 10.109375 L 9.117188 8 L 11.226562 5.894531 C 11.460938 5.667969 11.53125 5.320312 11.402344 5.019531 C 11.277344 4.71875 10.976562 4.527344 10.652344 4.539062 C 10.449219 4.542969 10.253906 4.628906 10.109375 4.777344 L 8 6.886719 L 5.890625 4.777344 C 5.742188 4.625 5.539062 4.539062 5.324219 4.539062 Z M 5.324219 4.539062 "/>
</g>
</svg>
