<svg xmlns="http://www.w3.org/2000/svg" xmlns:xlink="http://www.w3.org/1999/xlink" width="16" height="16" viewBox="0 0 16 16" version="1.1">
<g id="surface1">
<path style=" stroke:none;fill-rule:nonzero;fill:rgb(96.862745%,0%,100%);fill-opacity:1;" d="M 8.1875 2 C 6.84375 2 5.984375 2.367188 5.167969 2.910156 C 4.671875 3.234375 4.300781 3.632812 4.054688 4.105469 C 3.796875 4.566406 3.667969 5.390625 3.667969 6.019531 L 6.988281 6.019531 L 6.972656 5.5 C 6.988281 4.449219 7.5625 4.324219 7.898438 4.324219 C 8.199219 4.324219 8.457031 4.40625 8.671875 4.574219 C 8.894531 4.742188 9.011719 4.960938 9.011719 5.234375 C 9.011719 5.621094 8.695312 5.808594 8.300781 6.144531 C 7.664062 6.683594 7.121094 7.101562 6.992188 7.226562 C 6.519531 7.675781 5.910156 8.074219 6.09375 9.507812 L 9.457031 9.507812 C 9.457031 8.921875 9.457031 8.570312 9.960938 8.246094 L 11.496094 7.007812 C 12.054688 6.535156 12.332031 5.894531 12.332031 5.078125 C 12.332031 4.101562 11.875 3.328125 10.960938 2.753906 C 10.15625 2.25 9.230469 2 8.1875 2 Z M 6.140625 10.730469 L 6.140625 14 L 9.433594 14 L 9.433594 10.730469 Z M 6.140625 10.730469 "/>
</g>
</svg>
