<svg xmlns="http://www.w3.org/2000/svg" xmlns:xlink="http://www.w3.org/1999/xlink" width="16" height="16" viewBox="0 0 16 16" version="1.1">
<g id="surface1">
<path style=" stroke:none;fill-rule:nonzero;fill:rgb(67.058825%,40.000001%,100%);fill-opacity:1;" d="M 4.332031 3.332031 C 3.78125 3.332031 3.332031 3.78125 3.332031 4.332031 L 3.332031 11.667969 C 3.332031 12.21875 3.78125 12.667969 4.332031 12.667969 L 11.667969 12.667969 C 12.21875 12.667969 12.667969 12.21875 12.667969 11.667969 L 12.667969 4.332031 C 12.667969 3.78125 12.21875 3.332031 11.667969 3.332031 Z M 10.332031 4.667969 C 10.886719 4.667969 11.332031 5.113281 11.332031 5.667969 C 11.332031 6.21875 10.886719 6.667969 10.332031 6.667969 C 9.78125 6.667969 9.332031 6.21875 9.332031 5.667969 C 9.332031 5.113281 9.78125 4.667969 10.332031 4.667969 Z M 5.667969 9.332031 C 6.21875 9.332031 6.667969 9.78125 6.667969 10.332031 C 6.667969 10.886719 6.21875 11.332031 5.667969 11.332031 C 5.113281 11.332031 4.667969 10.886719 4.667969 10.332031 C 4.667969 9.78125 5.113281 9.332031 5.667969 9.332031 Z M 5.667969 9.332031 "/>
</g>
</svg>
