<svg xmlns="http://www.w3.org/2000/svg" xmlns:xlink="http://www.w3.org/1999/xlink" width="16" height="16" viewBox="0 0 16 16" version="1.1">
<g id="surface1">
<path style=" stroke:none;fill-rule:nonzero;fill:rgb(0%,80.000001%,100%);fill-opacity:1;" d="M 7.320312 2.667969 C 7.167969 2.667969 7.023438 2.722656 6.90625 2.820312 L 2.90625 6.15625 C 2.527344 6.472656 2.609375 7.082031 3.070312 7.28125 L 5.574219 8.355469 L 4.679688 12.527344 C 4.546875 13.152344 5.265625 13.5625 5.742188 13.191406 L 9.695312 10.117188 L 12.402344 11.28125 C 13.230469 11.636719 13.726562 10.394531 12.929688 10.054688 L 10.898438 9.183594 L 11.742188 8.527344 C 12.496094 7.988281 11.632812 6.875 10.925781 7.472656 L 9.5 8.582031 L 7.109375 7.558594 L 7.984375 3.472656 C 8.074219 3.050781 7.75 2.667969 7.320312 2.667969 Z M 6.277344 5.082031 L 5.859375 7.023438 L 4.597656 6.480469 Z M 6.824219 8.890625 L 8.296875 9.519531 L 6.367188 11.015625 Z M 6.824219 8.890625 "/>
</g>
</svg>
