<svg xmlns="http://www.w3.org/2000/svg" xmlns:xlink="http://www.w3.org/1999/xlink" width="16" height="16" viewBox="0 0 16 16" version="1.1">
<defs>
<filter id="alpha" filterUnits="objectBoundingBox" x="0%" y="0%" width="100%" height="100%">
  <feColorMatrix type="matrix" in="SourceGraphic" values="0 0 0 0 1 0 0 0 0 1 0 0 0 0 1 0 0 0 1 0"/>
</filter>
<mask id="mask0">
  <g filter="url(#alpha)">
<rect x="0" y="0" width="16" height="16" style="fill:rgb(0%,0%,0%);fill-opacity:0.3;stroke:none;"/>
  </g>
</mask>
<clipPath id="clip1">
  <rect x="0" y="0" width="16" height="16"/>
</clipPath>
<g id="surface5" clip-path="url(#clip1)">
<path style=" stroke:none;fill-rule:nonzero;fill:rgb(100%,30.980393%,30.980393%);fill-opacity:1;" d="M 2.667969 8 L 2.667969 9.332031 C 4.882812 9.332031 6.667969 11.117188 6.667969 13.332031 L 8 13.332031 C 8 10.378906 5.621094 8 2.667969 8 Z M 2.667969 5.332031 L 2.667969 6.667969 C 6.359375 6.667969 9.332031 9.640625 9.332031 13.332031 L 10.667969 13.332031 C 10.667969 8.902344 7.097656 5.332031 2.667969 5.332031 Z M 2.667969 5.332031 "/>
</g>
</defs>
<g id="surface1">
<path style=" stroke:none;fill-rule:nonzero;fill:rgb(100%,30.980393%,30.980393%);fill-opacity:1;" d="M 2.667969 2.667969 L 2.667969 4 C 7.835938 4 12 8.164062 12 13.332031 L 13.332031 13.332031 C 13.332031 7.425781 8.574219 2.667969 2.667969 2.667969 Z M 2.667969 2.667969 "/>
<use xlink:href="#surface5" mask="url(#mask0)"/>
<path style=" stroke:none;fill-rule:nonzero;fill:rgb(100%,30.980393%,30.980393%);fill-opacity:1;" d="M 8.667969 4 L 12 4 L 12 7.332031 L 8.667969 7.332031 Z M 8.667969 4 "/>
</g>
</svg>
