<svg xmlns="http://www.w3.org/2000/svg" xmlns:xlink="http://www.w3.org/1999/xlink" width="16" height="16" viewBox="0 0 16 16" version="1.1">
<defs>
<filter id="alpha" filterUnits="objectBoundingBox" x="0%" y="0%" width="100%" height="100%">
  <feColorMatrix type="matrix" in="SourceGraphic" values="0 0 0 0 1 0 0 0 0 1 0 0 0 0 1 0 0 0 1 0"/>
</filter>
<mask id="mask0">
  <g filter="url(#alpha)">
<rect x="0" y="0" width="16" height="16" style="fill:rgb(0%,0%,0%);fill-opacity:0.3;stroke:none;"/>
  </g>
</mask>
<clipPath id="clip1">
  <rect x="0" y="0" width="16" height="16"/>
</clipPath>
<g id="surface5" clip-path="url(#clip1)">
<path style=" stroke:none;fill-rule:nonzero;fill:rgb(96.862745%,0%,100%);fill-opacity:1;" d="M 6.332031 2.667969 C 4.308594 2.667969 2.667969 4.308594 2.667969 6.332031 C 2.667969 8.359375 4.308594 10 6.332031 10 C 8.359375 10 10 8.359375 10 6.332031 C 10 4.308594 8.359375 2.667969 6.332031 2.667969 Z M 6.332031 4 C 7.621094 4 8.667969 5.042969 8.667969 6.332031 C 8.667969 7.621094 7.621094 8.667969 6.332031 8.667969 C 5.042969 8.667969 4 7.621094 4 6.332031 C 4 5.042969 5.042969 4 6.332031 4 Z M 6.332031 4 "/>
</g>
</defs>
<g id="surface1">
<path style=" stroke:none;fill-rule:nonzero;fill:rgb(96.862745%,0%,100%);fill-opacity:1;" d="M 6 6 L 6 8 L 6.667969 8 L 6.667969 6.667969 L 8 6.667969 L 8 6 Z M 10.667969 6 L 10.667969 6.667969 L 12 6.667969 L 12 12 L 6.667969 12 L 6.667969 10.667969 L 6 10.667969 L 6 12.667969 L 12.667969 12.667969 L 12.667969 6 Z M 10.667969 6 "/>
<use xlink:href="#surface5" mask="url(#mask0)"/>
</g>
</svg>
