<svg xmlns="http://www.w3.org/2000/svg" xmlns:xlink="http://www.w3.org/1999/xlink" width="16" height="16" viewBox="0 0 16 16" version="1.1">
<g id="surface1">
<path style=" stroke:none;fill-rule:nonzero;fill:rgb(96.862745%,0%,100%);fill-opacity:1;" d="M 8 10 L 10 7.332031 L 6 7.332031 Z M 10 4 C 9.109375 4 8.367188 4.402344 7.703125 4.738281 C 7.035156 5.070312 6.445312 5.332031 6 5.332031 C 5.445312 5.332031 5.050781 5.195312 4.796875 5.070312 C 4.542969 4.945312 4.472656 4.863281 4.472656 4.863281 C 3.84375 4.203125 2.929688 5.207031 3.527344 5.804688 C 3.527344 5.804688 3.789062 6.054688 4.203125 6.261719 C 4.613281 6.46875 5.222656 6.667969 6 6.667969 C 6.890625 6.667969 7.632812 6.261719 8.296875 5.929688 C 8.964844 5.597656 9.554688 5.332031 10 5.332031 C 10.554688 5.332031 10.949219 5.46875 11.203125 5.597656 C 11.457031 5.722656 11.527344 5.804688 11.527344 5.804688 C 12.109375 6.414062 13.085938 5.476562 12.472656 4.863281 C 12.472656 4.863281 12.210938 4.609375 11.796875 4.402344 C 11.386719 4.195312 10.777344 4 10 4 Z M 4 10.667969 L 12 10.667969 C 12.667969 10.667969 12.667969 11.332031 12.667969 11.332031 C 12.667969 11.332031 12.667969 12 12 12 L 4 12 C 3.332031 12 3.332031 11.332031 3.332031 11.332031 C 3.332031 11.332031 3.332031 10.667969 4 10.667969 Z M 4 10.667969 "/>
</g>
</svg>
