<svg xmlns="http://www.w3.org/2000/svg" xmlns:xlink="http://www.w3.org/1999/xlink" width="16" height="16" viewBox="0 0 16 16" version="1.1">
<g id="surface1">
<path style=" stroke:none;fill-rule:nonzero;fill:rgb(100%,30.980393%,30.980393%);fill-opacity:1;" d="M 2.667969 10.667969 C 5.332031 10.667969 4.667969 8.667969 8 8.667969 C 11.332031 8.667969 10.667969 10.667969 13.332031 10.667969 L 13.332031 12 C 10 12 11.332031 10 8 10 C 4.667969 10 6 12 2.667969 12 Z M 2.667969 10.667969 "/>
<path style=" stroke:none;fill-rule:nonzero;fill:rgb(100%,30.980393%,30.980393%);fill-opacity:1;" d="M 13.332031 5.332031 C 10.667969 5.332031 11.332031 7.332031 8 7.332031 C 4.667969 7.332031 5.332031 5.332031 2.667969 5.332031 L 2.667969 4 C 6 4 4.667969 6 8 6 C 11.332031 6 10 4 13.332031 4 Z M 13.332031 5.332031 "/>
</g>
</svg>
