<svg xmlns="http://www.w3.org/2000/svg" xmlns:xlink="http://www.w3.org/1999/xlink" width="16" height="16" viewBox="0 0 16 16" version="1.1">
<g id="surface1">
<path style=" stroke:none;fill-rule:nonzero;fill:rgb(100%,74.901962%,0%);fill-opacity:1;" d="M 10.667969 6 C 10.667969 6 10 6 10 6.667969 C 10 7.332031 10.667969 7.332031 10.667969 7.332031 C 11.402344 7.332031 12 7.929688 12 8.667969 C 12 9.402344 11.402344 10 10.667969 10 C 9.929688 10 9.332031 9.402344 9.332031 8.667969 L 8 8.667969 C 8 10.140625 9.195312 11.332031 10.667969 11.332031 C 12.140625 11.332031 13.332031 10.140625 13.332031 8.667969 C 13.332031 7.195312 12.140625 6 10.667969 6 Z M 6 4.667969 C 4.160156 4.667969 2.667969 6.160156 2.667969 8 C 2.667969 9.839844 4.160156 11.332031 6 11.332031 C 6 11.332031 6.667969 11.332031 6.667969 10.667969 C 6.667969 10 6 10 6 10 C 4.894531 10 4 9.105469 4 8 C 4 6.894531 4.894531 6 6 6 C 7.105469 6 8 6.894531 8 8 L 8 8.667969 L 9.332031 8.667969 L 9.332031 8 C 9.332031 6.160156 7.839844 4.667969 6 4.667969 Z M 6 4.667969 "/>
</g>
</svg>
