<svg xmlns="http://www.w3.org/2000/svg" xmlns:xlink="http://www.w3.org/1999/xlink" width="16" height="16" viewBox="0 0 16 16" version="1.1">
<g id="surface1">
<path style=" stroke:none;fill-rule:nonzero;fill:rgb(0%,80.000001%,100%);fill-opacity:1;" d="M 12.335938 3.296875 C 11.878906 3.296875 11.5 3.605469 11.378906 4.019531 C 7.828125 4.753906 4.6875 7.125 4.058594 11.34375 C 3.648438 11.46875 3.347656 11.847656 3.347656 12.296875 C 3.347656 12.851562 3.792969 13.296875 4.347656 13.296875 C 4.898438 13.296875 5.34375 12.851562 5.34375 12.296875 C 5.34375 11.878906 5.089844 11.523438 4.726562 11.375 C 4.976562 9.789062 5.59375 8.5 6.460938 7.480469 C 7.394531 8.433594 7.984375 9.433594 8.132812 10.238281 C 8.28125 11.0625 8.070312 11.761719 7.476562 12.359375 L 7.945312 12.832031 C 8.679688 12.097656 8.96875 11.128906 8.785156 10.121094 C 8.605469 9.128906 7.914062 8.015625 6.910156 6.996094 C 7.027344 6.886719 7.144531 6.78125 7.265625 6.675781 C 8.246094 7.617188 9.238281 8.203125 10.195312 8.375 C 11.203125 8.558594 12.167969 8.269531 12.902344 7.535156 L 12.433594 7.0625 C 11.835938 7.660156 11.136719 7.871094 10.3125 7.71875 C 9.554688 7.582031 8.683594 7.09375 7.792969 6.257812 C 8.847656 5.492188 10.09375 4.980469 11.417969 4.695312 C 11.570312 5.050781 11.921875 5.296875 12.335938 5.296875 C 12.886719 5.296875 13.332031 4.851562 13.332031 4.296875 C 13.332031 3.746094 12.886719 3.296875 12.335938 3.296875 Z M 12.335938 3.296875 "/>
</g>
</svg>
