<svg xmlns="http://www.w3.org/2000/svg" xmlns:xlink="http://www.w3.org/1999/xlink" width="16" height="16" viewBox="0 0 16 16" version="1.1">
<g id="surface1">
<path style=" stroke:none;fill-rule:nonzero;fill:rgb(67.058825%,40.000001%,100%);fill-opacity:1;" d="M 10 4.667969 C 7 4.667969 4.667969 7 4.667969 10 L 4.667969 12 C 4.667969 12 4.667969 12.667969 5.332031 12.667969 C 6 12.667969 6 12 6 12 L 6 10 C 6 8 8 6 10 6 L 12 6 C 12 6 12.667969 6 12.667969 5.332031 C 12.667969 4.667969 12 4.667969 12 4.667969 Z M 3.332031 3.332031 L 3.332031 12.667969 L 4 12.667969 L 4 4 L 12.667969 4 L 12.667969 3.332031 Z M 3.332031 3.332031 "/>
</g>
</svg>
