<svg xmlns="http://www.w3.org/2000/svg" xmlns:xlink="http://www.w3.org/1999/xlink" width="16" height="16" viewBox="0 0 16 16" version="1.1">
<g id="surface1">
<path style=" stroke:none;fill-rule:nonzero;fill:rgb(0%,100%,66.666669%);fill-opacity:1;" d="M 12 3.667969 L 12 4.667969 C 12 8 8.667969 8 8.667969 8 L 6.667969 8 C 6.667969 8 2.667969 8 2.667969 12 L 2.667969 13 C 2.667969 13 2.667969 13.332031 3 13.332031 C 3.332031 13.332031 3.332031 13 3.332031 13 L 3.332031 12 C 3.332031 8.667969 6.667969 8.667969 6.667969 8.667969 L 8.667969 8.667969 C 8.667969 8.667969 12.667969 8.667969 12.667969 4.667969 L 12.667969 3.667969 C 12.667969 3.667969 12.667969 3.332031 12.332031 3.332031 C 12 3.332031 12 3.667969 12 3.667969 Z M 12 3.667969 "/>
<path style=" stroke:none;fill-rule:nonzero;fill:rgb(0%,100%,66.666669%);fill-opacity:1;" d="M 10.667969 10 L 8 11.667969 L 10.667969 13.332031 L 10.667969 12 L 12.667969 12 L 12.667969 11.332031 L 10.667969 11.332031 Z M 4.667969 3.332031 L 4.667969 4.667969 L 2.667969 4.667969 L 2.667969 5.332031 L 4.667969 5.332031 L 4.667969 6.667969 L 7.332031 5 Z M 6 6.667969 L 9.332031 6.667969 L 9.332031 10 L 6 10 Z M 6 6.667969 "/>
</g>
</svg>
