<svg xmlns="http://www.w3.org/2000/svg" xmlns:xlink="http://www.w3.org/1999/xlink" width="16" height="16" viewBox="0 0 16 16" version="1.1">
<g id="surface1">
<path style=" stroke:none;fill-rule:nonzero;fill:rgb(0%,100%,66.666669%);fill-opacity:1;" d="M 10.667969 2.667969 C 10.667969 2.667969 10 2.667969 10 3.332031 L 10 8.667969 L 8 8.667969 L 8 5.332031 C 8 4.667969 7.332031 4.667969 7.332031 4.667969 L 3.332031 4.667969 C 2.667969 4.667969 2.667969 5.332031 2.667969 5.332031 L 2.667969 9.332031 C 2.667969 10 3.332031 10 3.332031 10 L 6.667969 10 L 6.667969 12.667969 C 6.667969 13.332031 7.332031 13.332031 7.332031 13.332031 L 10.667969 13.332031 C 11.332031 13.332031 11.332031 12.667969 11.332031 12.667969 L 11.332031 10 L 12.667969 10 C 13.332031 10 13.332031 9.332031 13.332031 9.332031 C 13.332031 9.332031 13.332031 8.667969 12.667969 8.667969 L 11.332031 8.667969 L 11.332031 3.332031 C 11.332031 2.667969 10.667969 2.667969 10.667969 2.667969 Z M 4 6 L 6.667969 6 L 6.667969 8.667969 L 4 8.667969 Z M 8 10 L 10 10 L 10 12 L 8 12 Z M 8 10 "/>
</g>
</svg>
