<svg xmlns="http://www.w3.org/2000/svg" xmlns:xlink="http://www.w3.org/1999/xlink" width="16" height="16" viewBox="0 0 16 16" version="1.1">
<g id="surface1">
<path style=" stroke:none;fill-rule:nonzero;fill:rgb(96.862745%,0%,100%);fill-opacity:1;" d="M 10.105469 2.667969 L 8.917969 3.332031 L 2.917969 6.667969 L 2.667969 6.8125 L 2.667969 13.332031 L 9.867188 13.332031 L 10 13.105469 L 13.332031 7.375 L 14 6.230469 L 14 2.667969 Z M 10.292969 3.332031 L 12.875 3.332031 L 9.542969 6.667969 L 4.292969 6.667969 Z M 13.332031 3.792969 L 13.332031 6.019531 L 10 11.75 L 10 7.125 Z M 3.332031 7.332031 L 9.332031 7.332031 L 9.332031 12.667969 L 3.332031 12.667969 Z M 3.332031 7.332031 "/>
<path style=" stroke:none;fill-rule:nonzero;fill:rgb(96.862745%,0%,100%);fill-opacity:0.501961;" d="M 10.667969 2.667969 L 3.332031 6.667969 L 10 6.667969 L 10 12 L 14 6 L 14 2.667969 Z M 3.332031 7.332031 L 3.332031 12.667969 L 9.332031 12.667969 L 9.332031 7.332031 Z M 3.332031 7.332031 "/>
</g>
</svg>
