<svg xmlns="http://www.w3.org/2000/svg" xmlns:xlink="http://www.w3.org/1999/xlink" width="16" height="16" viewBox="0 0 16 16" version="1.1">
<g id="surface1">
<path style=" stroke:none;fill-rule:nonzero;fill:rgb(0%,80.000001%,100%);fill-opacity:1;" d="M 3.332031 3.332031 L 3.332031 4.667969 L 12.667969 4.667969 L 12.667969 3.332031 Z M 8.667969 6 L 8.667969 12.667969 L 10 12.667969 L 10 10.667969 L 11.332031 10.667969 L 11.332031 12.667969 L 12.667969 12.667969 L 12.667969 6 Z M 3.332031 6.003906 L 3.332031 7.335938 L 7.332031 7.335938 L 7.332031 6.003906 Z M 10 7.332031 L 11.332031 7.332031 L 11.332031 9.332031 L 10 9.332031 Z M 3.332031 8.667969 L 3.332031 10.003906 L 7.332031 10.003906 L 7.332031 8.667969 Z M 3.332031 11.332031 L 3.332031 12.667969 L 7.332031 12.667969 L 7.332031 11.332031 Z M 3.332031 11.332031 "/>
</g>
</svg>
