<svg xmlns="http://www.w3.org/2000/svg" xmlns:xlink="http://www.w3.org/1999/xlink" width="16" height="16" viewBox="0 0 16 16" version="1.1">
<g id="surface1">
<path style=" stroke:none;fill-rule:nonzero;fill:rgb(0%,100%,66.666669%);fill-opacity:1;" d="M 7 3.332031 C 6.464844 3.332031 6 3.765625 6 4.300781 L 6 5.332031 L 3.976562 5.332031 C 3.621094 5.332031 3.332031 5.550781 3.332031 5.90625 L 3.332031 8 L 4.300781 8 C 4.835938 8 5.332031 8.464844 5.332031 9 C 5.332031 9.535156 4.835938 10 4.300781 10 L 3.332031 10 L 3.332031 12.023438 C 3.332031 12.378906 3.621094 12.667969 3.976562 12.667969 L 6 12.667969 L 6 12.023438 C 6 11.488281 6.011719 10.695312 7 10.667969 C 7.988281 10.640625 8 11.527344 8 12.023438 L 8 12.667969 L 10.09375 12.667969 C 10.449219 12.667969 10.667969 12.378906 10.667969 12.023438 L 10.667969 10 L 11.703125 10 C 12.238281 10 12.667969 9.535156 12.667969 9 C 12.667969 8.464844 12.230469 8.082031 11.703125 8 L 10.667969 8 L 10.667969 5.90625 C 10.667969 5.550781 10.449219 5.332031 10.09375 5.332031 L 8 5.332031 L 8 4.300781 C 8 3.765625 7.535156 3.332031 7 3.332031 Z M 7 3.332031 "/>
</g>
</svg>
