<svg xmlns="http://www.w3.org/2000/svg" xmlns:xlink="http://www.w3.org/1999/xlink" width="16" height="16" viewBox="0 0 16 16" version="1.1">
<g id="surface1">
<path style=" stroke:none;fill-rule:nonzero;fill:rgb(100%,30.980393%,30.980393%);fill-opacity:1;" d="M 5.332031 8 L 3.332031 10 L 5.332031 12 Z M 10.667969 8 L 10.667969 12 L 12.667969 10 Z M 4.683594 3.996094 L 4.683594 6.664062 L 4.015625 6.664062 L 4.015625 5.328125 L 3.347656 5.328125 L 3.347656 6.664062 L 2.683594 6.664062 L 2.683594 7.328125 L 13.347656 7.328125 L 13.347656 6.664062 L 13.332031 6.664062 L 13.332031 5.332031 L 12.667969 5.332031 L 12.667969 6.664062 L 12.015625 6.664062 L 12.015625 3.996094 L 11.347656 3.996094 L 11.347656 6.664062 L 10.683594 6.664062 L 10.683594 5.328125 L 10.015625 5.328125 L 10.015625 6.664062 L 9.347656 6.664062 L 9.347656 5.328125 L 8.683594 5.328125 L 8.683594 6.664062 L 8.015625 6.664062 L 8.015625 5.328125 L 7.347656 5.328125 L 7.347656 6.664062 L 6.683594 6.664062 L 6.683594 5.328125 L 6.015625 5.328125 L 6.015625 6.664062 L 5.347656 6.664062 L 5.347656 3.996094 Z M 7.667969 8.332031 L 7.667969 9.667969 L 6.332031 9.667969 L 6.332031 10.332031 L 7.667969 10.332031 L 7.667969 11.667969 L 8.332031 11.667969 L 8.332031 10.332031 L 9.667969 10.332031 L 9.667969 9.667969 L 8.332031 9.667969 L 8.332031 8.332031 Z M 2.667969 8 L 3.332031 8 L 3.332031 12 L 2.667969 12 Z M 12.667969 8 L 13.332031 8 L 13.332031 12 L 12.667969 12 Z M 12.667969 8 "/>
</g>
</svg>
