<svg xmlns="http://www.w3.org/2000/svg" xmlns:xlink="http://www.w3.org/1999/xlink" width="16" height="16" viewBox="0 0 16 16" version="1.1">
<g id="surface1">
<path style=" stroke:none;fill-rule:nonzero;fill:rgb(67.058825%,40.000001%,100%);fill-opacity:1;" d="M 8 2.667969 C 5.054688 2.667969 2.667969 5.054688 2.667969 8 C 2.667969 9.070312 2.992188 10.117188 3.597656 11 L 4.078125 10.519531 C 3.59375 9.765625 3.335938 8.894531 3.332031 8 C 3.332031 5.421875 5.421875 3.332031 8 3.332031 C 8.894531 3.335938 9.765625 3.597656 10.515625 4.082031 L 10.996094 3.601562 C 10.113281 2.996094 9.070312 2.671875 8 2.667969 Z M 12.863281 2.667969 L 2.667969 12.863281 L 3.136719 13.332031 L 13.332031 3.136719 Z M 12.40625 4.996094 L 11.925781 5.476562 C 11.925781 5.476562 11.925781 5.480469 11.925781 5.480469 C 12.410156 6.230469 12.667969 7.105469 12.667969 8 C 12.667969 10.578125 10.578125 12.667969 8 12.667969 C 7.105469 12.664062 6.234375 12.40625 5.480469 11.921875 L 5 12.402344 C 5.886719 13.007812 6.929688 13.332031 8 13.332031 C 10.945312 13.332031 13.332031 10.945312 13.332031 8 C 13.332031 6.929688 13.011719 5.882812 12.40625 4.996094 Z M 8 6 L 8 6.597656 L 8.339844 6.253906 Z M 9.945312 7.460938 L 8 9.40625 L 8 10 L 10.667969 8 Z M 9.945312 7.460938 "/>
<path style=" stroke:none;fill-rule:nonzero;fill:rgb(82.352942%,30.19608%,34.117648%);fill-opacity:1;" d="M 7.332031 6 C 6.230469 6 5.332031 6.894531 5.332031 8 C 5.332031 8.351562 5.425781 8.691406 5.601562 8.996094 L 7.332031 7.261719 Z M 7.332031 6 "/>
</g>
</svg>
