<svg xmlns="http://www.w3.org/2000/svg" xmlns:xlink="http://www.w3.org/1999/xlink" width="16" height="16" viewBox="0 0 16 16" version="1.1">
<g id="surface1">
<path style=" stroke:none;fill-rule:nonzero;fill:rgb(96.862745%,0%,100%);fill-opacity:1;" d="M 4 2 L 4 5.332031 L 3.332031 5.332031 C 2.226562 5.332031 1.332031 6.226562 1.332031 7.332031 L 1.332031 11.332031 L 4 11.332031 L 4 14 L 12 14 L 12 11.332031 L 14.667969 11.332031 L 14.667969 7.332031 C 14.667969 6.226562 13.773438 5.332031 12.667969 5.332031 L 12 5.332031 L 12 2 Z M 5.332031 3.332031 L 10.667969 3.332031 L 10.667969 5.332031 L 5.332031 5.332031 Z M 3.332031 6.667969 L 12.667969 6.667969 C 13.035156 6.667969 13.332031 6.964844 13.332031 7.332031 L 13.332031 10 L 12 10 L 12 8.667969 L 4 8.667969 L 4 10 L 2.667969 10 L 2.667969 7.332031 C 2.667969 6.964844 2.964844 6.667969 3.332031 6.667969 Z M 11.964844 7 C 11.613281 7.019531 11.332031 7.308594 11.332031 7.667969 C 11.332031 8.035156 11.632812 8.332031 12 8.332031 C 12.367188 8.332031 12.667969 8.035156 12.667969 7.667969 C 12.667969 7.296875 12.367188 7 12 7 C 11.988281 7 11.976562 7 11.964844 7 Z M 5.332031 10 L 10.667969 10 L 10.667969 12.667969 L 5.332031 12.667969 Z M 5.332031 10 "/>
</g>
</svg>
