<svg xmlns="http://www.w3.org/2000/svg" xmlns:xlink="http://www.w3.org/1999/xlink" width="16" height="16" viewBox="0 0 16 16" version="1.1">
<g id="surface1">
<path style=" stroke:none;fill-rule:nonzero;fill:rgb(100%,30.980393%,30.980393%);fill-opacity:1;" d="M 6.144531 3.332031 L 5.9375 3.519531 L 3.519531 5.9375 L 3.332031 6.144531 L 3.332031 9.855469 L 3.519531 10.0625 L 5.9375 12.480469 L 6.144531 12.667969 L 9.851562 12.667969 L 10.0625 12.480469 L 12.476562 10.0625 L 12.664062 9.855469 L 12.664062 6.144531 L 12.476562 5.9375 L 10.0625 3.519531 L 9.851562 3.332031 Z M 6.664062 4.667969 L 9.332031 4.667969 L 11.332031 6.667969 L 11.332031 9.332031 L 9.332031 11.332031 L 6.664062 11.332031 L 4.664062 9.332031 L 4.664062 6.667969 Z M 6.957031 5.332031 L 5.332031 6.957031 L 5.332031 9.042969 L 6.957031 10.667969 L 9.039062 10.667969 L 10.664062 9.042969 L 10.664062 6.957031 L 9.039062 5.332031 Z M 6.957031 5.332031 "/>
</g>
</svg>
