<svg xmlns="http://www.w3.org/2000/svg" xmlns:xlink="http://www.w3.org/1999/xlink" width="16" height="16" viewBox="0 0 16 16" version="1.1">
<g id="surface1">
<path style=" stroke:none;fill-rule:nonzero;fill:rgb(100%,74.901962%,0%);fill-opacity:1;" d="M 4 3.332031 C 3.332031 3.332031 3.332031 4 3.332031 4 L 3.332031 12 C 3.332031 12.667969 4 12.667969 4 12.667969 L 8.667969 12.667969 L 8.667969 11.332031 L 4.667969 11.332031 L 4.667969 6.667969 L 11.332031 6.667969 L 11.332031 8.667969 L 12.667969 8.667969 L 12.667969 4 C 12.667969 3.332031 12 3.332031 12 3.332031 Z M 10.277344 9.5625 L 9.332031 10.503906 L 10.277344 11.449219 L 9.332031 12.390625 L 10.277344 13.332031 L 11.21875 12.390625 L 12.160156 13.332031 L 13.105469 12.390625 L 12.160156 11.449219 L 13.105469 10.503906 L 12.160156 9.5625 L 11.21875 10.503906 Z M 10.277344 9.5625 "/>
</g>
</svg>
