<svg xmlns="http://www.w3.org/2000/svg" xmlns:xlink="http://www.w3.org/1999/xlink" width="16" height="16" viewBox="0 0 16 16" version="1.1">
<g id="surface1">
<path style=" stroke:none;fill-rule:nonzero;fill:rgb(96.862745%,0%,100%);fill-opacity:1;" d="M 4 3.332031 C 3.332031 3.332031 3.332031 4 3.332031 4 L 3.332031 12 C 3.332031 12.667969 4 12.667969 4 12.667969 L 8.667969 12.667969 L 8.667969 11.332031 L 4.667969 11.332031 L 4.667969 6.667969 L 11.332031 6.667969 L 11.332031 8.667969 L 12.667969 8.667969 L 12.667969 4 C 12.667969 3.332031 12 3.332031 12 3.332031 Z M 10.667969 8.667969 L 10.285156 9.742188 L 9.253906 9.253906 L 9.742188 10.285156 L 8.667969 10.667969 L 9.746094 11.050781 L 9.253906 12.082031 L 10.285156 11.589844 L 10.667969 12.667969 L 11.046875 11.589844 L 12.078125 12.082031 L 11.59375 11.050781 L 12.667969 10.667969 L 11.59375 10.285156 L 12.078125 9.253906 L 11.046875 9.742188 Z M 10.667969 8.667969 "/>
</g>
</svg>
