<svg xmlns="http://www.w3.org/2000/svg" xmlns:xlink="http://www.w3.org/1999/xlink" width="16" height="16" viewBox="0 0 16 16" version="1.1">
<g id="surface1">
<path style=" stroke:none;fill-rule:nonzero;fill:rgb(0%,80.000001%,100%);fill-opacity:1;" d="M 2.667969 3.332031 L 2.667969 5.332031 L 3.332031 5.332031 L 3.332031 10.667969 L 2.667969 10.667969 L 2.667969 12.667969 L 9.332031 12.667969 L 9.332031 12 L 8.667969 12 L 8.667969 5.332031 L 12.667969 5.332031 L 12.667969 8.667969 L 13.332031 8.667969 L 13.332031 5.332031 L 14 5.332031 L 14 3.332031 Z M 3.332031 4 L 4 4 L 4 4.667969 L 3.332031 4.667969 Z M 4.667969 4 L 5.332031 4 L 5.332031 4.667969 L 4.667969 4.667969 Z M 6 4 L 6.667969 4 L 6.667969 4.667969 L 6 4.667969 Z M 7.332031 4 L 8 4 L 8 4.667969 L 7.332031 4.667969 Z M 8.667969 4 L 9.332031 4 L 9.332031 4.667969 L 8.667969 4.667969 Z M 10 4 L 10.667969 4 L 10.667969 4.667969 L 10 4.667969 Z M 11.332031 4 L 12 4 L 12 4.667969 L 11.332031 4.667969 Z M 12.667969 4 L 13.332031 4 L 13.332031 4.667969 L 12.667969 4.667969 Z M 4 5.332031 L 8 5.332031 L 8 10.667969 L 4 10.667969 Z M 3.332031 11.332031 L 4 11.332031 L 4 12 L 3.332031 12 Z M 4.667969 11.332031 L 5.332031 11.332031 L 5.332031 12 L 4.667969 12 Z M 6 11.332031 L 6.667969 11.332031 L 6.667969 12 L 6 12 Z M 7.332031 11.332031 L 8 11.332031 L 8 12 L 7.332031 12 Z M 7.332031 11.332031 "/>
<path style=" stroke:none;fill-rule:nonzero;fill:rgb(99.215686%,73.725492%,29.411766%);fill-opacity:1;" d="M 11.332031 8.667969 L 10.949219 9.742188 L 9.917969 9.253906 L 10.410156 10.285156 L 9.332031 10.667969 L 10.40625 11.050781 L 9.917969 12.082031 L 10.949219 11.589844 L 11.332031 12.667969 L 11.71875 11.59375 L 12.746094 12.082031 L 12.257812 11.050781 L 13.332031 10.667969 L 12.257812 10.28125 L 12.746094 9.253906 L 11.714844 9.742188 Z M 11.332031 8.667969 "/>
</g>
</svg>
