<svg xmlns="http://www.w3.org/2000/svg" xmlns:xlink="http://www.w3.org/1999/xlink" width="16" height="16" viewBox="0 0 16 16" version="1.1">
<g id="surface1">
<path style=" stroke:none;fill-rule:nonzero;fill:rgb(100%,30.980393%,30.980393%);fill-opacity:1;" d="M 4.667969 3.335938 C 4.667969 3.335938 4 3.335938 4 4.003906 L 4 10.003906 C 4 10.003906 4 10.667969 4.667969 10.667969 L 5.332031 10.667969 L 5.332031 4.667969 L 10.667969 4.667969 L 10.667969 4.003906 C 10.667969 3.335938 10 3.335938 10 3.335938 Z M 6.667969 5.335938 C 6.667969 5.335938 6 5.335938 6 6.003906 L 6 12.667969 C 6 13.335938 6.667969 13.335938 6.667969 13.335938 L 12 13.335938 C 12 13.335938 12.667969 13.335938 12.667969 12.667969 L 12.667969 6.003906 C 12.667969 5.335938 12 5.335938 12 5.335938 Z M 7.332031 6.667969 L 11.332031 6.667969 L 11.332031 12.003906 L 7.332031 12.003906 Z M 7.332031 6.667969 "/>
</g>
</svg>
