<svg xmlns="http://www.w3.org/2000/svg" xmlns:xlink="http://www.w3.org/1999/xlink" width="16" height="16" viewBox="0 0 16 16" version="1.1">
<g id="surface1">
<path style=" stroke:none;fill-rule:nonzero;fill:rgb(96.862745%,0%,100%);fill-opacity:1;" d="M 6 2.667969 C 4.152344 2.667969 2.667969 4.152344 2.667969 6 C 2.667969 7.847656 4.152344 9.332031 6 9.332031 L 7.332031 9.332031 L 7.332031 8 L 6 8 C 4.890625 8 4 7.109375 4 6 C 4 4.890625 4.890625 4 6 4 L 7.332031 4 L 7.332031 2.667969 Z M 8.667969 2.667969 L 8.667969 4 L 10 4 C 11.109375 4 12 4.890625 12 6 C 12 7.109375 11.109375 8 10 8 L 8.667969 8 L 8.667969 9.332031 L 10 9.332031 C 11.847656 9.332031 13.332031 7.847656 13.332031 6 C 13.332031 4.152344 11.847656 2.667969 10 2.667969 Z M 6 5.332031 L 6 6.667969 L 10 6.667969 L 10 5.332031 Z M 10.941406 10.035156 L 10 10.976562 L 10.707031 11.683594 L 10 12.390625 L 10.941406 13.332031 L 11.648438 12.625 L 12.355469 13.332031 L 13.300781 12.390625 L 12.59375 11.683594 L 13.300781 10.976562 L 12.355469 10.035156 L 11.648438 10.742188 Z M 10.941406 10.035156 "/>
</g>
</svg>
