<svg xmlns="http://www.w3.org/2000/svg" xmlns:xlink="http://www.w3.org/1999/xlink" width="16" height="16" viewBox="0 0 16 16" version="1.1">
<g id="surface1">
<path style=" stroke:none;fill-rule:nonzero;fill:rgb(100%,30.980393%,30.980393%);fill-opacity:1;" d="M 4 2.667969 L 3.332031 3.332031 L 3.332031 4.203125 L 6.667969 8.910156 L 6.667969 11.359375 L 9.328125 13.332031 L 9.332031 13.332031 L 9.332031 8.910156 L 12.667969 4.203125 L 12.667969 3.332031 L 12 2.667969 Z M 4 3.332031 L 12 3.332031 L 12 3.992188 L 8.691406 8.667969 L 8.667969 8.667969 L 8.667969 12.011719 L 7.332031 11.023438 L 7.332031 8.667969 L 7.308594 8.667969 L 4 3.992188 Z M 4.667969 4 L 6 6 L 6 4.667969 L 7.332031 4 Z M 4.667969 4 "/>
<path style=" stroke:none;fill-rule:nonzero;fill:rgb(85.490197%,26.666668%,32.549021%);fill-opacity:1;" d="M 10.660156 9.332031 L 10 9.992188 L 11.339844 11.332031 L 10 12.671875 L 10.660156 13.332031 L 12 11.992188 L 13.339844 13.332031 L 14 12.671875 L 12.660156 11.332031 L 14 9.992188 L 13.339844 9.332031 L 12 10.671875 Z M 10.660156 9.332031 "/>
</g>
</svg>
