<svg xmlns="http://www.w3.org/2000/svg" xmlns:xlink="http://www.w3.org/1999/xlink" width="16" height="16" viewBox="0 0 16 16" version="1.1">
<g id="surface1">
<path style=" stroke:none;fill-rule:nonzero;fill:rgb(100%,30.980393%,30.980393%);fill-opacity:1;" d="M 6.667969 4 C 5.5625 4 4.667969 4.894531 4.667969 6 C 4.667969 7.105469 5.5625 8 6.667969 8 C 7.769531 8 8.667969 7.105469 8.667969 6 C 8.667969 4.894531 7.769531 4 6.667969 4 Z M 10 5.300781 C 9.742188 5.300781 9.496094 5.359375 9.277344 5.460938 C 9.3125 5.632812 9.332031 5.816406 9.332031 6 C 9.332031 6.734375 9.03125 7.402344 8.542969 7.886719 C 8.851562 8.355469 9.386719 8.667969 10 8.667969 C 10.957031 8.667969 11.730469 7.914062 11.730469 6.984375 C 11.730469 6.054688 10.957031 5.300781 10 5.300781 Z M 6.667969 9.332031 C 2.667969 9.335938 2.667969 12.003906 2.667969 12.003906 L 2.667969 12.667969 C 3.253906 12.671875 11.679688 12.667969 9.332031 12.667969 C 8.964844 12.667969 8.667969 12.367188 8.667969 12 L 8.667969 10.667969 C 8.667969 10.296875 8.964844 10 9.332031 10 L 9.4375 10 C 8.84375 9.617188 7.96875 9.332031 6.667969 9.332031 Z M 10.667969 9.332031 L 10.667969 10.667969 L 9.332031 10.667969 L 9.332031 12 L 10.667969 12 L 10.667969 13.332031 L 12 13.332031 L 12 12 L 13.332031 12 L 13.332031 10.667969 L 12 10.667969 L 12 9.332031 Z M 10.667969 9.332031 "/>
</g>
</svg>
