<svg xmlns="http://www.w3.org/2000/svg" xmlns:xlink="http://www.w3.org/1999/xlink" width="16" height="16" viewBox="0 0 16 16" version="1.1">
<g id="surface1">
<path style=" stroke:none;fill-rule:nonzero;fill:rgb(0%,100%,66.666669%);fill-opacity:1;" d="M 4.667969 3.332031 C 3.929688 3.332031 3.332031 3.929688 3.332031 4.667969 L 3.332031 11.332031 C 3.332031 12.070312 3.929688 12.667969 4.667969 12.667969 L 11.332031 12.667969 C 12.070312 12.667969 12.667969 12.070312 12.667969 11.332031 L 12.667969 4.667969 C 12.667969 3.929688 12.070312 3.332031 11.332031 3.332031 Z M 4.667969 4.667969 L 11.332031 4.667969 L 11.332031 11.332031 L 4.667969 11.332031 Z M 6 5.332031 C 5.632812 5.332031 5.332031 5.632812 5.332031 6 C 5.332031 6.367188 5.632812 6.667969 6 6.667969 C 6.367188 6.667969 6.667969 6.367188 6.667969 6 C 6.667969 5.632812 6.367188 5.332031 6 5.332031 Z M 10 5.332031 C 9.632812 5.332031 9.332031 5.632812 9.332031 6 C 9.332031 6.367188 9.632812 6.667969 10 6.667969 C 10.367188 6.667969 10.667969 6.367188 10.667969 6 C 10.667969 5.632812 10.367188 5.332031 10 5.332031 Z M 8 7.332031 C 7.632812 7.332031 7.332031 7.632812 7.332031 8 C 7.332031 8.367188 7.632812 8.667969 8 8.667969 C 8.367188 8.667969 8.667969 8.367188 8.667969 8 C 8.667969 7.632812 8.367188 7.332031 8 7.332031 Z M 6 9.332031 C 5.632812 9.332031 5.332031 9.632812 5.332031 10 C 5.332031 10.367188 5.632812 10.667969 6 10.667969 C 6.367188 10.667969 6.667969 10.367188 6.667969 10 C 6.667969 9.632812 6.367188 9.332031 6 9.332031 Z M 10 9.332031 C 9.632812 9.332031 9.332031 9.632812 9.332031 10 C 9.332031 10.367188 9.632812 10.667969 10 10.667969 C 10.367188 10.667969 10.667969 10.367188 10.667969 10 C 10.667969 9.632812 10.367188 9.332031 10 9.332031 Z M 10 9.332031 "/>
</g>
</svg>
