<svg xmlns="http://www.w3.org/2000/svg" xmlns:xlink="http://www.w3.org/1999/xlink" width="16" height="16" viewBox="0 0 16 16" version="1.1">
<g id="surface1">
<path style=" stroke:none;fill-rule:nonzero;fill:rgb(100%,74.901962%,0%);fill-opacity:1;" d="M 2.003906 2 L 2.003906 4 C 7.527344 4 12.003906 8.476562 12.003906 14 L 14.003906 14 L 14.003906 13.9375 C 14.003906 13.546875 13.976562 13.164062 13.941406 12.78125 C 13.9375 12.761719 13.941406 12.738281 13.941406 12.71875 C 13.902344 12.339844 13.828125 11.964844 13.753906 11.59375 C 13.75 11.574219 13.757812 11.550781 13.753906 11.53125 C 13.515625 10.375 13.109375 9.289062 12.566406 8.28125 C 12.5625 8.273438 12.570312 8.257812 12.566406 8.25 C 11.085938 5.527344 8.582031 3.449219 5.5625 2.53125 C 5.207031 2.417969 4.839844 2.324219 4.46875 2.25 C 4.449219 2.246094 4.425781 2.253906 4.40625 2.25 C 4.035156 2.171875 3.664062 2.101562 3.28125 2.0625 C 3.261719 2.058594 3.238281 2.0625 3.21875 2.0625 C 2.835938 2.023438 2.453125 2 2.0625 1.996094 L 2 1.996094 M 2 6 L 2 8 C 5.3125 8 8 10.683594 8 14 L 10 14 C 10 9.582031 6.417969 6 2 6 M 4 10 C 2.894531 10 2 10.894531 2 12 C 2 13.105469 2.894531 14 4 14 C 5.105469 14 6 13.105469 6 12 C 6 10.894531 5.105469 10 4 10 "/>
</g>
</svg>
