<svg xmlns="http://www.w3.org/2000/svg" xmlns:xlink="http://www.w3.org/1999/xlink" width="16" height="16" viewBox="0 0 16 16" version="1.1">
<g id="surface1">
<path style=" stroke:none;fill-rule:nonzero;fill:rgb(100%,30.980393%,30.980393%);fill-opacity:1;" d="M 7.332031 3.332031 L 7.332031 4.058594 C 6.738281 4.160156 6.175781 4.394531 5.6875 4.742188 L 5.171875 4.230469 L 4.230469 5.171875 L 4.742188 5.683594 C 4.394531 6.175781 4.160156 6.738281 4.058594 7.332031 L 3.332031 7.332031 L 3.332031 8.667969 L 4.058594 8.667969 C 4.160156 9.261719 4.394531 9.824219 4.742188 10.3125 L 4.230469 10.828125 L 5.171875 11.769531 L 5.683594 11.257812 C 6.175781 11.605469 6.738281 11.839844 7.332031 11.941406 L 7.332031 12.667969 L 8.667969 12.667969 L 8.667969 11.941406 C 9.261719 11.839844 9.824219 11.605469 10.3125 11.257812 L 10.828125 11.769531 L 11.769531 10.828125 L 11.257812 10.316406 C 11.605469 9.824219 11.839844 9.261719 11.941406 8.667969 L 12.667969 8.667969 L 12.667969 7.332031 L 11.941406 7.332031 C 11.839844 6.738281 11.605469 6.175781 11.257812 5.6875 L 11.769531 5.171875 L 10.828125 4.230469 L 10.316406 4.742188 C 9.824219 4.394531 9.261719 4.160156 8.667969 4.058594 L 8.667969 3.332031 Z M 7.058594 6.113281 L 8 7.058594 L 8.941406 6.113281 L 9.886719 7.058594 L 8.941406 8 L 9.886719 8.941406 L 8.941406 9.886719 L 8 8.941406 L 7.058594 9.886719 L 6.113281 8.941406 L 7.058594 8 L 6.113281 7.058594 Z M 7.058594 6.113281 "/>
</g>
</svg>
