<svg xmlns="http://www.w3.org/2000/svg" xmlns:xlink="http://www.w3.org/1999/xlink" width="16" height="16" viewBox="0 0 16 16" version="1.1">
<g id="surface1">
<path style=" stroke:none;fill-rule:nonzero;fill:rgb(0%,80.000001%,100%);fill-opacity:1;" d="M 9.332031 2.195312 L 6.472656 5.058594 L 6.941406 5.527344 L 9.332031 3.136719 L 12.863281 6.667969 L 10.472656 9.058594 L 10.941406 9.527344 L 13.804688 6.667969 Z M 5.058594 6.472656 L 2.195312 9.332031 L 2.429688 9.570312 L 6.667969 13.804688 L 9.527344 10.941406 L 9.058594 10.472656 L 6.667969 12.863281 L 3.136719 9.332031 L 5.527344 6.941406 Z M 7.914062 2.671875 C 6.878906 2.6875 5.867188 3.007812 5.007812 3.59375 L 5.492188 4.074219 C 6.003906 3.746094 6.574219 3.519531 7.175781 3.410156 Z M 3.597656 5.011719 C 3.011719 5.867188 2.6875 6.878906 2.667969 7.917969 L 3.414062 7.171875 C 3.523438 6.574219 3.746094 6.003906 4.074219 5.488281 Z M 13.332031 8.082031 L 12.585938 8.828125 C 12.476562 9.425781 12.253906 9.996094 11.925781 10.511719 L 12.402344 10.988281 C 12.988281 10.132812 13.3125 9.121094 13.332031 8.082031 Z M 10.507812 11.921875 C 9.996094 12.253906 9.425781 12.480469 8.824219 12.589844 L 8.085938 13.328125 C 9.121094 13.3125 10.132812 12.992188 10.992188 12.40625 Z M 10.507812 11.921875 "/>
<path style=" stroke:none;fill-rule:nonzero;fill:rgb(85.490197%,26.666668%,32.549021%);fill-opacity:1;" d="M 3.136719 2.667969 L 2.667969 3.136719 L 12.863281 13.332031 L 13.332031 12.863281 Z M 3.136719 2.667969 "/>
</g>
</svg>
