<svg xmlns="http://www.w3.org/2000/svg" xmlns:xlink="http://www.w3.org/1999/xlink" width="16" height="16" viewBox="0 0 16 16" version="1.1">
<g id="surface1">
<path style=" stroke:none;fill-rule:nonzero;fill:rgb(67.058825%,40.000001%,100%);fill-opacity:1;" d="M 6 10 L 6 13.332031 L 8 12 L 10 13.332031 L 10 10 "/>
<path style=" stroke:none;fill-rule:nonzero;fill:rgb(67.058825%,40.000001%,100%);fill-opacity:1;" d="M 10 7.332031 C 10 8.4375 9.105469 9.332031 8 9.332031 C 6.894531 9.332031 6 8.4375 6 7.332031 C 6 6.230469 6.894531 5.332031 8 5.332031 C 9.105469 5.332031 10 6.230469 10 7.332031 M 8 3.332031 C 5.789062 3.332031 4 5.125 4 7.332031 C 4 9.542969 5.789062 11.332031 8 11.332031 C 10.210938 11.332031 12 9.542969 12 7.332031 C 12 5.125 10.210938 3.332031 8 3.332031 Z M 8 4.667969 C 9.472656 4.667969 10.667969 5.859375 10.667969 7.332031 C 10.667969 8.804688 9.472656 10 8 10 C 6.527344 10 5.332031 8.804688 5.332031 7.332031 C 5.332031 5.859375 6.527344 4.667969 8 4.667969 Z M 8 4.667969 "/>
</g>
</svg>
