<svg xmlns="http://www.w3.org/2000/svg" xmlns:xlink="http://www.w3.org/1999/xlink" width="16" height="16" viewBox="0 0 16 16" version="1.1">
<g id="surface1">
<path style=" stroke:none;fill-rule:nonzero;fill:rgb(0%,100%,66.666669%);fill-opacity:1;" d="M 5.332031 10 L 5.332031 13.332031 L 7.332031 12 L 7.332031 10 Z M 5.332031 10 "/>
<path style=" stroke:none;fill-rule:nonzero;fill:rgb(0%,100%,66.666669%);fill-opacity:1;" d="M 7.332031 3.332031 C 5.125 3.332031 3.332031 5.125 3.332031 7.332031 C 3.332031 9.542969 5.125 11.332031 7.332031 11.332031 L 7.332031 10 C 5.859375 10 4.667969 8.804688 4.667969 7.332031 C 4.667969 5.859375 5.859375 4.667969 7.332031 4.667969 C 8.804688 4.667969 10 5.859375 10 7.332031 C 10 8.097656 9.671875 8.828125 9.097656 9.332031 L 10.796875 9.332031 C 11.148438 8.726562 11.332031 8.035156 11.332031 7.332031 C 11.332031 5.125 9.542969 3.332031 7.332031 3.332031 Z M 7.300781 5.332031 C 6.207031 5.351562 5.332031 6.242188 5.332031 7.332031 C 5.332031 8.4375 6.230469 9.332031 7.332031 9.332031 C 8.4375 9.332031 9.332031 8.4375 9.332031 7.332031 C 9.332031 6.230469 8.4375 5.332031 7.332031 5.332031 C 7.320312 5.332031 7.3125 5.332031 7.300781 5.332031 Z M 7.300781 5.332031 "/>
<path style=" stroke:none;fill-rule:nonzero;fill:rgb(0%,100%,66.666669%);fill-opacity:1;" d="M 12 9.332031 L 10 11.332031 L 8.667969 10 L 8 10.667969 L 10 12.667969 L 12.667969 10 Z M 12 9.332031 "/>
</g>
</svg>
