<svg xmlns="http://www.w3.org/2000/svg" xmlns:xlink="http://www.w3.org/1999/xlink" width="16" height="16" viewBox="0 0 16 16" version="1.1">
<defs>
<filter id="alpha" filterUnits="objectBoundingBox" x="0%" y="0%" width="100%" height="100%">
  <feColorMatrix type="matrix" in="SourceGraphic" values="0 0 0 0 1 0 0 0 0 1 0 0 0 0 1 0 0 0 1 0"/>
</filter>
<mask id="mask0">
  <g filter="url(#alpha)">
<rect x="0" y="0" width="16" height="16" style="fill:rgb(0%,0%,0%);fill-opacity:0.3;stroke:none;"/>
  </g>
</mask>
<clipPath id="clip1">
  <rect x="0" y="0" width="16" height="16"/>
</clipPath>
<g id="surface5" clip-path="url(#clip1)">
<path style=" stroke:none;fill-rule:nonzero;fill:rgb(0%,80.000001%,100%);fill-opacity:1;" d="M 6 10 L 6 13.332031 L 8 12 L 9.332031 12.667969 L 9.332031 10 "/>
<path style=" stroke:none;fill-rule:nonzero;fill:rgb(0%,80.000001%,100%);fill-opacity:1;" d="M 8 3.332031 C 5.789062 3.332031 4 5.125 4 7.332031 C 4 9.542969 5.789062 11.332031 8 11.332031 C 8.453125 11.332031 8.90625 11.253906 9.332031 11.105469 L 9.332031 9.644531 C 8.929688 9.878906 8.46875 10 8 10 C 6.527344 10 5.332031 8.804688 5.332031 7.332031 C 5.332031 5.859375 6.527344 4.667969 8 4.667969 C 9.472656 4.667969 10.667969 5.859375 10.667969 7.332031 C 10.667969 8.097656 10.335938 8.828125 9.761719 9.332031 L 11.464844 9.332031 C 11.816406 8.726562 12 8.035156 12 7.332031 C 12 5.125 10.210938 3.332031 8 3.332031 Z M 8 5.332031 C 6.894531 5.332031 6 6.230469 6 7.332031 C 6 8.4375 6.894531 9.332031 8 9.332031 C 9.105469 9.332031 10 8.4375 10 7.332031 C 10 6.230469 9.105469 5.332031 8 5.332031 Z M 8 5.332031 "/>
</g>
</defs>
<g id="surface1">
<path style=" stroke:none;fill-rule:nonzero;fill:rgb(0%,80.000001%,100%);fill-opacity:1;" d="M 10 10 L 10 10.667969 C 10 10.851562 10.066406 11.027344 10.1875 11.148438 L 10.707031 11.667969 L 10.1875 12.1875 C 10.066406 12.308594 10 12.480469 10 12.667969 L 10 13.332031 L 10.667969 13.332031 C 10.851562 13.332031 11.027344 13.265625 11.148438 13.148438 L 11.667969 12.625 L 12.1875 13.148438 C 12.308594 13.265625 12.480469 13.332031 12.667969 13.332031 L 13.332031 13.332031 L 13.332031 12.667969 C 13.332031 12.480469 13.265625 12.308594 13.148438 12.1875 L 12.625 11.667969 L 13.148438 11.148438 C 13.265625 11.027344 13.332031 10.851562 13.332031 10.667969 L 13.332031 10 L 12.667969 10 C 12.480469 10 12.308594 10.066406 12.1875 10.1875 L 11.667969 10.707031 L 11.148438 10.1875 C 11.027344 10.066406 10.851562 10 10.667969 10 Z M 10 10 "/>
<use xlink:href="#surface5" mask="url(#mask0)"/>
</g>
</svg>
