<svg xmlns="http://www.w3.org/2000/svg" xmlns:xlink="http://www.w3.org/1999/xlink" width="16" height="16" viewBox="0 0 16 16" version="1.1">
<g id="surface1">
<path style=" stroke:none;fill-rule:nonzero;fill:rgb(96.862745%,0%,100%);fill-opacity:1;" d="M 8.667969 3.335938 L 9.480469 4.605469 L 6.542969 6.441406 C 6.199219 6.167969 5.773438 6.003906 5.332031 6.003906 C 4.285156 6.003906 3.332031 6.957031 3.332031 8.003906 C 3.332031 9.050781 4.285156 10.003906 5.332031 10.003906 C 5.773438 10.003906 6.199219 9.816406 6.542969 9.542969 L 9.480469 11.398438 L 8.667969 12.667969 L 12.667969 12.667969 L 11 9 L 10.1875 10.292969 L 7.269531 8.4375 C 7.308594 8.296875 7.332031 8.152344 7.332031 8 C 7.332031 7.851562 7.308594 7.707031 7.269531 7.5625 L 10.1875 5.710938 L 11 7.003906 L 12.667969 3.335938 Z M 8.667969 3.335938 "/>
</g>
</svg>
