<svg xmlns="http://www.w3.org/2000/svg" xmlns:xlink="http://www.w3.org/1999/xlink" width="16" height="16" viewBox="0 0 16 16" version="1.1">
<g id="surface1">
<path style=" stroke:none;fill-rule:nonzero;fill:rgb(100%,74.901962%,0%);fill-opacity:1;" d="M 5.671875 4 C 5.117188 4 4.667969 4.449219 4.667969 5 C 4.667969 5.410156 4.921875 5.78125 5.308594 5.929688 L 5.308594 8.667969 L 4 8.667969 L 4 12 L 7.34375 12 L 7.34375 8.667969 L 6.496094 8.667969 C 6.785156 7.839844 7.386719 7.050781 8.160156 6.398438 C 9.242188 5.480469 10.625 4.835938 11.710938 4.683594 C 11.890625 4.65625 12.015625 4.496094 11.996094 4.316406 C 11.976562 4.136719 11.820312 4.003906 11.640625 4.019531 C 11.632812 4.019531 11.625 4.023438 11.617188 4.023438 C 10.359375 4.203125 8.902344 4.890625 7.726562 5.890625 C 6.980469 6.523438 6.34375 7.289062 5.976562 8.140625 L 5.976562 5.949219 C 6.394531 5.816406 6.675781 5.433594 6.675781 5 C 6.675781 4.449219 6.226562 4 5.671875 4 Z M 5.671875 4 "/>
</g>
</svg>
