<svg xmlns="http://www.w3.org/2000/svg" xmlns:xlink="http://www.w3.org/1999/xlink" width="16" height="16" viewBox="0 0 16 16" version="1.1">
<g id="surface1">
<path style=" stroke:none;fill-rule:nonzero;fill:rgb(0%,80.000001%,100%);fill-opacity:1;" d="M 4.667969 4.019531 L 4.667969 4.6875 L 5.332031 4.6875 L 5.332031 4.019531 Z M 4.667969 5.351562 L 4.667969 6.019531 L 5.332031 6.019531 L 5.332031 5.351562 Z M 4.667969 6.6875 L 4.667969 7.351562 L 5.332031 7.351562 L 5.332031 6.6875 Z M 4.667969 8.019531 L 4.667969 8.6875 L 5.332031 8.6875 L 5.332031 8.019531 Z M 4.667969 9.351562 L 4.667969 10.019531 L 5.332031 10.019531 L 5.332031 9.351562 Z M 3.332031 10.6875 L 3.332031 11.351562 L 4 11.351562 L 4 10.6875 Z M 4.667969 10.6875 L 4.667969 11.351562 L 5.332031 11.351562 L 5.332031 10.6875 Z M 6 10.6875 L 6 11.351562 L 6.667969 11.351562 L 6.667969 10.6875 Z M 7.332031 10.6875 L 7.332031 11.351562 L 8 11.351562 L 8 10.6875 Z M 8.667969 10.6875 L 8.667969 11.351562 L 9.332031 11.351562 L 9.332031 10.6875 Z M 10 10.6875 L 10 11.351562 L 10.667969 11.351562 L 10.667969 10.6875 Z M 11.332031 10.6875 L 11.332031 11.351562 L 12 11.351562 L 12 10.6875 Z M 4.667969 12.019531 L 4.667969 12.6875 L 5.332031 12.6875 L 5.332031 12.019531 Z M 4.667969 12.019531 "/>
</g>
</svg>
