<svg xmlns="http://www.w3.org/2000/svg" xmlns:xlink="http://www.w3.org/1999/xlink" width="16" height="16" viewBox="0 0 16 16" version="1.1">
<g id="surface1">
<path style=" stroke:none;fill-rule:nonzero;fill:rgb(96.862745%,0%,100%);fill-opacity:1;" d="M 3.332031 2.667969 L 3.332031 12 L 2.667969 12 L 2.667969 12.667969 L 3.332031 12.667969 L 3.332031 13.332031 L 4 13.332031 L 4 12.667969 L 13.332031 12.667969 L 13.332031 12 L 4 12 L 4 2.667969 Z M 10.699219 3.488281 C 9.882812 3.488281 9.21875 4.148438 9.21875 4.964844 C 9.21875 5.78125 9.882812 6.445312 10.699219 6.445312 C 11.515625 6.445312 12.179688 5.78125 12.179688 4.964844 C 12.179688 4.148438 11.515625 3.488281 10.699219 3.488281 Z M 5.996094 5.84375 C 5.699219 5.84375 5.457031 6.082031 5.457031 6.378906 C 5.457031 6.675781 5.699219 6.917969 5.996094 6.917969 C 6.292969 6.917969 6.53125 6.675781 6.53125 6.378906 C 6.53125 6.082031 6.292969 5.84375 5.996094 5.84375 Z M 8.601562 8.113281 C 8.0625 8.113281 7.621094 8.550781 7.621094 9.09375 C 7.621094 9.636719 8.0625 10.074219 8.601562 10.074219 C 9.144531 10.074219 9.582031 9.636719 9.582031 9.09375 C 9.582031 8.550781 9.144531 8.113281 8.601562 8.113281 Z M 8.601562 8.113281 "/>
</g>
</svg>
