<svg xmlns="http://www.w3.org/2000/svg" xmlns:xlink="http://www.w3.org/1999/xlink" width="16" height="16" viewBox="0 0 16 16" version="1.1">
<g id="surface1">
<path style=" stroke:none;fill-rule:nonzero;fill:rgb(96.862745%,0%,100%);fill-opacity:1;" d="M 8 2.667969 C 5.054688 2.667969 2.667969 5.054688 2.667969 8 C 2.667969 10.945312 5.054688 13.332031 8 13.332031 C 10.945312 13.332031 13.332031 10.945312 13.332031 8 C 13.332031 5.054688 10.945312 2.667969 8 2.667969 Z M 8 3.332031 C 10.578125 3.332031 12.667969 5.421875 12.667969 8 C 12.667969 10.578125 10.578125 12.667969 8 12.667969 C 5.421875 12.667969 3.332031 10.578125 3.332031 8 C 3.332031 5.421875 5.421875 3.332031 8 3.332031 Z M 6 5.359375 C 5.839844 5.359375 5.808594 5.363281 5.71875 5.410156 C 5.585938 5.472656 5.46875 5.589844 5.40625 5.722656 C 5.359375 5.8125 5.355469 5.84375 5.355469 5.996094 C 5.355469 6.140625 5.359375 6.179688 5.402344 6.265625 C 5.488281 6.449219 5.640625 6.582031 5.828125 6.636719 C 5.875 6.648438 5.964844 6.65625 6.039062 6.652344 C 6.28125 6.636719 6.480469 6.503906 6.585938 6.285156 C 6.640625 6.175781 6.644531 6.152344 6.644531 5.996094 C 6.644531 5.84375 6.640625 5.8125 6.59375 5.722656 C 6.53125 5.589844 6.414062 5.472656 6.28125 5.410156 C 6.191406 5.363281 6.160156 5.359375 6 5.359375 Z M 10 5.359375 C 9.839844 5.359375 9.808594 5.363281 9.71875 5.410156 C 9.585938 5.472656 9.46875 5.589844 9.40625 5.722656 C 9.359375 5.8125 9.355469 5.84375 9.355469 5.996094 C 9.355469 6.140625 9.359375 6.179688 9.402344 6.265625 C 9.488281 6.449219 9.640625 6.582031 9.828125 6.636719 C 9.875 6.648438 9.964844 6.65625 10.039062 6.652344 C 10.28125 6.636719 10.480469 6.503906 10.585938 6.285156 C 10.640625 6.175781 10.644531 6.152344 10.644531 5.996094 C 10.644531 5.84375 10.640625 5.8125 10.59375 5.722656 C 10.53125 5.589844 10.414062 5.472656 10.28125 5.410156 C 10.191406 5.363281 10.160156 5.359375 10 5.359375 Z M 5.453125 9.347656 L 5.464844 9.398438 C 5.46875 9.425781 5.5 9.507812 5.527344 9.585938 C 5.855469 10.488281 6.65625 11.148438 7.597656 11.292969 C 8.285156 11.398438 9.023438 11.214844 9.570312 10.804688 C 9.804688 10.628906 10.0625 10.34375 10.226562 10.089844 C 10.335938 9.921875 10.496094 9.5625 10.535156 9.398438 L 10.546875 9.347656 Z M 5.453125 9.347656 "/>
</g>
</svg>
