<svg xmlns="http://www.w3.org/2000/svg" xmlns:xlink="http://www.w3.org/1999/xlink" width="16" height="16" viewBox="0 0 16 16" version="1.1">
<g id="surface1">
<path style=" stroke:none;fill-rule:nonzero;fill:rgb(96.862745%,0%,100%);fill-opacity:1;" d="M 12.660156 2.996094 C 12.574219 3 12.492188 3.035156 12.429688 3.097656 L 8.527344 7 L 7 7 L 7 7.9375 L 3.242188 9.011719 C 3.121094 9.039062 3.027344 9.132812 2.996094 9.25 C 2.964844 9.367188 3 9.496094 3.089844 9.578125 C 3.179688 9.664062 3.308594 9.691406 3.425781 9.652344 L 6.855469 8.671875 L 3.097656 12.429688 C 3.011719 12.511719 2.976562 12.636719 3.007812 12.753906 C 3.035156 12.871094 3.128906 12.960938 3.246094 12.992188 C 3.359375 13.023438 3.484375 12.988281 3.570312 12.902344 L 7.46875 9 L 9 9 L 9 8.058594 L 12.757812 6.984375 C 12.921875 6.941406 13.023438 6.785156 13 6.617188 C 12.976562 6.449219 12.832031 6.328125 12.664062 6.332031 C 12.632812 6.332031 12.605469 6.335938 12.574219 6.34375 L 9.144531 7.324219 L 12.902344 3.566406 C 13 3.472656 13.03125 3.324219 12.976562 3.199219 C 12.921875 3.074219 12.796875 2.992188 12.660156 2.996094 Z M 12.660156 2.996094 "/>
</g>
</svg>
