<svg xmlns="http://www.w3.org/2000/svg" xmlns:xlink="http://www.w3.org/1999/xlink" width="16" height="16" viewBox="0 0 16 16" version="1.1">
<g id="surface1">
<path style=" stroke:none;fill-rule:nonzero;fill:rgb(100%,74.901962%,0%);fill-opacity:1;" d="M 3.347656 3.667969 C 3.335938 3.667969 3.324219 3.667969 3.3125 3.667969 C 3.140625 3.675781 3 3.816406 2.996094 3.988281 C 2.988281 4.164062 3.117188 4.3125 3.289062 4.332031 C 3.289062 4.332031 5.746094 4.675781 7.488281 5.78125 C 8.359375 6.335938 9.027344 7.054688 9.195312 7.996094 C 9.34375 8.84375 9.089844 9.9375 8.082031 11.335938 L 7.335938 11.335938 L 7.335938 13.335938 L 9.335938 13.335938 L 9.335938 12.222656 C 10.90625 11.960938 11.847656 11.257812 12.359375 10.527344 C 13 9.605469 13 8.667969 13 8.667969 C 13.003906 8.546875 12.941406 8.4375 12.835938 8.375 C 12.730469 8.316406 12.605469 8.316406 12.5 8.375 C 12.394531 8.4375 12.332031 8.546875 12.335938 8.667969 C 12.335938 8.667969 12.335938 9.394531 11.8125 10.144531 C 11.417969 10.703125 10.625 11.210938 9.335938 11.449219 L 9.335938 11.335938 L 8.785156 11.335938 C 9.640625 10.019531 10.019531 8.847656 9.851562 7.882812 C 9.640625 6.695312 8.808594 5.832031 7.847656 5.21875 C 5.921875 3.996094 3.378906 3.671875 3.378906 3.671875 C 3.367188 3.667969 3.355469 3.667969 3.347656 3.667969 Z M 3.347656 3.667969 "/>
</g>
</svg>
