<svg xmlns="http://www.w3.org/2000/svg" xmlns:xlink="http://www.w3.org/1999/xlink" width="16" height="16" viewBox="0 0 16 16" version="1.1">
<g id="surface1">
<path style=" stroke:none;fill-rule:nonzero;fill:rgb(0%,80.000001%,100%);fill-opacity:1;" d="M 3.335938 3.664062 L 3.347656 3.667969 C 3.167969 3.660156 3.011719 3.792969 3 3.972656 C 2.984375 4.152344 3.113281 4.308594 3.292969 4.332031 C 3.292969 4.332031 5.75 4.675781 7.492188 5.78125 C 8.363281 6.335938 9.03125 7.054688 9.195312 7.996094 C 9.359375 8.9375 9.039062 10.171875 7.742188 11.792969 C 7.664062 11.890625 7.648438 12.027344 7.703125 12.140625 C 7.753906 12.257812 7.871094 12.332031 7.996094 12.332031 C 10.410156 12.332031 11.710938 11.445312 12.351562 10.523438 C 12.992188 9.605469 12.992188 8.664062 12.992188 8.664062 C 12.992188 8.542969 12.929688 8.433594 12.828125 8.371094 C 12.722656 8.3125 12.59375 8.3125 12.492188 8.371094 C 12.386719 8.433594 12.324219 8.542969 12.324219 8.664062 C 12.324219 8.664062 12.324219 9.390625 11.800781 10.140625 C 11.34375 10.792969 10.347656 11.378906 8.640625 11.542969 C 9.597656 10.136719 10.019531 8.894531 9.839844 7.875 C 9.632812 6.691406 8.800781 5.828125 7.839844 5.214844 C 5.914062 3.992188 3.371094 3.667969 3.371094 3.667969 C 3.359375 3.664062 3.347656 3.664062 3.335938 3.664062 Z M 3.335938 3.664062 "/>
</g>
</svg>
