<svg xmlns="http://www.w3.org/2000/svg" xmlns:xlink="http://www.w3.org/1999/xlink" width="16" height="16" viewBox="0 0 16 16" version="1.1">
<g id="surface1">
<path style=" stroke:none;fill-rule:nonzero;fill:rgb(67.058825%,40.000001%,100%);fill-opacity:1;" d="M 3.347656 3.667969 C 3.335938 3.667969 3.324219 3.667969 3.3125 3.667969 C 3.140625 3.675781 3 3.816406 2.996094 3.988281 C 2.988281 4.164062 3.117188 4.3125 3.289062 4.332031 C 3.289062 4.332031 5.066406 4.582031 6.667969 5.339844 L 6.667969 6.667969 L 8.539062 6.667969 C 8.871094 7.054688 9.105469 7.492188 9.195312 7.996094 C 9.359375 8.9375 9.039062 10.171875 7.742188 11.792969 C 7.660156 11.894531 7.644531 12.03125 7.699219 12.144531 C 7.757812 12.261719 7.875 12.335938 8 12.335938 C 10.414062 12.335938 11.714844 11.445312 12.359375 10.527344 C 13 9.605469 13 8.667969 13 8.667969 C 13.003906 8.546875 12.941406 8.4375 12.835938 8.375 C 12.730469 8.316406 12.605469 8.316406 12.5 8.375 C 12.394531 8.4375 12.332031 8.546875 12.335938 8.667969 C 12.335938 8.667969 12.335938 9.394531 11.8125 10.144531 C 11.355469 10.796875 10.355469 11.382812 8.652344 11.546875 C 9.605469 10.140625 10.03125 8.898438 9.851562 7.882812 C 9.703125 7.054688 9.253906 6.386719 8.667969 5.851562 L 8.667969 4.667969 L 6.800781 4.667969 C 5.113281 3.898438 3.378906 3.671875 3.378906 3.671875 C 3.367188 3.667969 3.355469 3.667969 3.347656 3.667969 Z M 3.347656 3.667969 "/>
</g>
</svg>
