<svg xmlns="http://www.w3.org/2000/svg" xmlns:xlink="http://www.w3.org/1999/xlink" width="16" height="16" viewBox="0 0 16 16" version="1.1">
<g id="surface1">
<path style=" stroke:none;fill-rule:nonzero;fill:rgb(23.921569%,68.235296%,91.37255%);fill-opacity:1;" d="M 10.695312 4.96875 L 10.226562 5.441406 C 11.789062 7.003906 12.667969 9.121094 12.667969 11.332031 L 13.332031 11.332031 C 13.332031 8.945312 12.382812 6.65625 10.695312 4.96875 Z M 10.695312 4.96875 "/>
<path style=" stroke:none;fill-rule:nonzero;fill:rgb(96.862745%,0%,100%);fill-opacity:1;" d="M 1.332031 11.332031 L 1.332031 12 L 2 12 L 2 11.332031 Z M 5.332031 11.332031 L 5.332031 12 L 6 12 L 6 11.332031 Z M 6.667969 11.332031 L 6.667969 12 L 8 12 L 8 11.332031 Z M 8.667969 11.332031 L 8.667969 12 L 10 12 L 10 11.332031 Z M 10.667969 11.332031 L 10.667969 12 L 12 12 L 12 11.332031 Z M 12.667969 11.332031 L 12.667969 12 L 14 12 L 14 11.332031 Z M 12.667969 11.332031 "/>
<path style=" stroke:none;fill-rule:nonzero;fill:rgb(96.862745%,0%,100%);fill-opacity:1;" d="M 12 2.863281 L 4.863281 10 L 5.332031 10.472656 L 12.472656 3.332031 Z M 12 2.863281 "/>
<path style=" stroke:none;fill-rule:nonzero;fill:rgb(23.921569%,68.235296%,91.37255%);fill-opacity:1;" d="M 2 10 L 2 13.332031 L 5.332031 13.332031 L 5.332031 10 Z M 2.667969 10.667969 L 4.667969 10.667969 L 4.667969 12.667969 L 2.667969 12.667969 Z M 2.667969 10.667969 "/>
</g>
</svg>
