<svg xmlns="http://www.w3.org/2000/svg" xmlns:xlink="http://www.w3.org/1999/xlink" width="16" height="16" viewBox="0 0 16 16" version="1.1">
<g id="surface1">
<path style=" stroke:none;fill-rule:nonzero;fill:rgb(0%,80.000001%,100%);fill-opacity:1;" d="M 12 3.667969 L 12 5 L 12.667969 5 L 12.667969 3.667969 Z M 12 5.667969 L 12 7 L 12.667969 7 L 12.667969 5.667969 Z M 11.332031 7.332031 L 11.332031 9.332031 L 13.332031 9.332031 L 13.332031 7.332031 Z M 12 9.667969 L 12 11 L 12.667969 11 L 12.667969 9.667969 Z M 12 11.667969 L 12 12 L 11.667969 12 L 11.667969 12.667969 L 12.667969 12.667969 L 12.667969 11.667969 Z M 3.667969 12 L 3.667969 12.667969 L 5 12.667969 L 5 12 Z M 5.667969 12 L 5.667969 12.667969 L 7 12.667969 L 7 12 Z M 7.667969 12 L 7.667969 12.667969 L 9 12.667969 L 9 12 Z M 9.667969 12 L 9.667969 12.667969 L 11 12.667969 L 11 12 Z M 9.667969 12 "/>
</g>
</svg>
