<svg xmlns="http://www.w3.org/2000/svg" xmlns:xlink="http://www.w3.org/1999/xlink" width="16" height="16" viewBox="0 0 16 16" version="1.1">
<g id="surface1">
<path style=" stroke:none;fill-rule:nonzero;fill:rgb(100%,30.980393%,30.980393%);fill-opacity:1;" d="M 11.074219 2.804688 C 10.980469 2.808594 10.894531 2.851562 10.832031 2.925781 C 10.773438 2.996094 10.746094 3.09375 10.761719 3.1875 L 10.949219 4.578125 L 10.257812 5.269531 L 10.058594 3.78125 C 10.035156 3.609375 9.882812 3.480469 9.710938 3.488281 C 9.617188 3.492188 9.527344 3.539062 9.46875 3.609375 C 9.410156 3.683594 9.382812 3.777344 9.398438 3.871094 L 9.667969 5.859375 L 8.527344 7 L 7 7 L 7 7.9375 L 6.179688 8.171875 L 6.007812 6.890625 C 5.984375 6.71875 5.832031 6.589844 5.660156 6.597656 C 5.566406 6.601562 5.476562 6.644531 5.417969 6.71875 C 5.359375 6.792969 5.332031 6.886719 5.34375 6.980469 L 5.53125 8.355469 L 4.40625 8.679688 L 4.246094 7.5 C 4.226562 7.328125 4.074219 7.199219 3.898438 7.207031 C 3.804688 7.210938 3.71875 7.257812 3.65625 7.328125 C 3.597656 7.402344 3.570312 7.496094 3.585938 7.589844 L 3.757812 8.863281 L 3.242188 9.011719 C 3.121094 9.039062 3.027344 9.132812 2.996094 9.25 C 2.964844 9.367188 3 9.496094 3.089844 9.578125 C 3.179688 9.664062 3.308594 9.691406 3.425781 9.652344 L 3.847656 9.53125 L 4.105469 11.421875 L 3.097656 12.429688 C 3.011719 12.511719 2.976562 12.636719 3.007812 12.753906 C 3.035156 12.871094 3.128906 12.960938 3.246094 12.992188 C 3.359375 13.023438 3.484375 12.988281 3.570312 12.902344 L 4.21875 12.25 L 4.285156 12.726562 C 4.292969 12.847656 4.371094 12.957031 4.484375 13.003906 C 4.597656 13.050781 4.726562 13.035156 4.824219 12.957031 C 4.917969 12.882812 4.964844 12.757812 4.945312 12.636719 L 4.8125 11.660156 L 5.839844 10.628906 L 6.042969 12.117188 C 6.054688 12.238281 6.132812 12.34375 6.246094 12.390625 C 6.355469 12.4375 6.488281 12.421875 6.582031 12.34375 C 6.679688 12.269531 6.722656 12.144531 6.703125 12.027344 L 6.433594 10.035156 L 7.46875 9 L 9 9 L 9 8.058594 L 9.929688 7.792969 L 10.09375 9.007812 C 10.117188 9.1875 10.285156 9.316406 10.46875 9.292969 C 10.652344 9.269531 10.777344 9.101562 10.753906 8.917969 L 10.578125 7.609375 L 11.332031 7.394531 L 11.460938 8.324219 C 11.472656 8.445312 11.546875 8.550781 11.660156 8.597656 C 11.773438 8.644531 11.902344 8.628906 12 8.550781 C 12.09375 8.476562 12.140625 8.351562 12.121094 8.234375 L 11.980469 7.207031 L 12.757812 6.984375 C 12.921875 6.941406 13.023438 6.785156 13 6.617188 C 12.976562 6.449219 12.832031 6.328125 12.664062 6.332031 C 12.632812 6.332031 12.605469 6.335938 12.574219 6.34375 L 11.890625 6.539062 L 11.65625 4.8125 L 12.902344 3.566406 C 13 3.472656 13.03125 3.324219 12.976562 3.199219 C 12.921875 3.074219 12.796875 2.992188 12.660156 2.996094 C 12.574219 3 12.492188 3.035156 12.429688 3.097656 L 11.542969 3.984375 L 11.421875 3.097656 C 11.402344 2.921875 11.25 2.792969 11.074219 2.804688 Z M 11.0625 5.40625 L 11.242188 6.726562 L 10.488281 6.941406 L 10.371094 6.097656 Z M 9.78125 6.691406 L 9.839844 7.128906 L 9.144531 7.324219 Z M 6.855469 8.671875 L 6.320312 9.207031 L 6.269531 8.839844 Z M 5.621094 9.023438 L 5.726562 9.800781 L 4.699219 10.828125 L 4.496094 9.34375 Z M 5.621094 9.023438 "/>
</g>
</svg>
