<svg xmlns="http://www.w3.org/2000/svg" xmlns:xlink="http://www.w3.org/1999/xlink" width="16" height="16" viewBox="0 0 16 16" version="1.1">
<g id="surface1">
<path style=" stroke:none;fill-rule:nonzero;fill:rgb(100%,30.980393%,30.980393%);fill-opacity:1;" d="M 5 3.332031 C 4.078125 3.332031 3.332031 4.078125 3.332031 5 C 3.332031 5.921875 4.078125 6.667969 5 6.667969 C 5.789062 6.664062 6.472656 6.109375 6.628906 5.332031 L 7.332031 5.332031 L 7.332031 11.332031 L 8.699219 11.332031 C 8.859375 12.109375 9.542969 12.667969 10.332031 12.667969 C 11.253906 12.667969 12 11.921875 12 11 C 12 10.078125 11.253906 9.332031 10.332031 9.332031 C 9.542969 9.335938 8.859375 9.890625 8.703125 10.667969 L 8 10.667969 L 8 4.667969 L 6.632812 4.667969 C 6.472656 3.890625 5.792969 3.332031 5 3.332031 Z M 5 3.332031 "/>
</g>
</svg>
