<svg xmlns="http://www.w3.org/2000/svg" xmlns:xlink="http://www.w3.org/1999/xlink" width="16" height="16" viewBox="0 0 16 16" version="1.1">
<g id="surface1">
<path style=" stroke:none;fill-rule:nonzero;fill:rgb(0%,100%,66.666669%);fill-opacity:1;" d="M 8.726562 1.332031 L 8.96875 1.585938 L 10.050781 2.667969 L 3.332031 2.667969 L 3.332031 3.332031 L 11.667969 3.332031 L 11.328125 3 L 9.660156 1.332031 Z M 3.332031 4 L 3.332031 13.332031 L 4 13.332031 L 4 8.667969 L 8 8.667969 L 8 8 L 4 8 L 4 4.667969 L 9.332031 4.667969 L 9.332031 4 Z M 3.332031 4 "/>
<path style=" stroke:none;fill-rule:nonzero;fill:rgb(23.921569%,68.235296%,91.37255%);fill-opacity:1;" d="M 8 9.332031 L 8.035156 9.4375 L 9.332031 13.332031 L 10.035156 13.332031 L 11.019531 10.386719 L 12 13.332031 L 12.703125 13.332031 L 14 9.4375 L 14.035156 9.332031 L 13.332031 9.332031 L 12.351562 12.277344 L 11.371094 9.332031 L 10.667969 9.332031 L 9.683594 12.277344 L 8.703125 9.332031 Z M 8 9.332031 "/>
</g>
</svg>
