<svg xmlns="http://www.w3.org/2000/svg" xmlns:xlink="http://www.w3.org/1999/xlink" width="16" height="16" viewBox="0 0 16 16" version="1.1">
<g id="surface1">
<path style=" stroke:none;fill-rule:nonzero;fill:rgb(0%,80.000001%,100%);fill-opacity:1;" d="M 4 3.332031 L 4 4 L 9.261719 4 L 5.332031 5.332031 L 4 5.332031 L 4 6 L 9.761719 6 L 5.261719 8 L 4 8 L 4 8.667969 L 9.761719 8.667969 L 5.261719 10.667969 L 4 10.667969 L 4 11.332031 L 9.261719 11.332031 L 5.332031 12.667969 L 4 12.667969 L 4 13.332031 L 12.667969 13.332031 L 12.667969 12.667969 L 7.40625 12.667969 L 11.332031 11.332031 L 12.667969 11.332031 L 12.667969 10.667969 L 6.902344 10.667969 L 11.402344 8.667969 L 12.667969 8.667969 L 12.667969 8 L 6.902344 8 L 11.402344 6 L 12.667969 6 L 12.667969 5.332031 L 7.40625 5.332031 L 11.332031 4 L 12.667969 4 L 12.667969 3.332031 Z M 4 3.332031 "/>
</g>
</svg>
