<svg xmlns="http://www.w3.org/2000/svg" xmlns:xlink="http://www.w3.org/1999/xlink" width="16" height="16" viewBox="0 0 16 16" version="1.1">
<g id="surface1">
<path style=" stroke:none;fill-rule:nonzero;fill:rgb(67.058825%,40.000001%,100%);fill-opacity:1;" d="M 8 2.667969 C 7.261719 2.667969 6.558594 2.820312 5.917969 3.089844 L 6.4375 3.609375 C 6.925781 3.433594 7.449219 3.332031 8 3.332031 C 10.585938 3.332031 12.667969 5.414062 12.667969 8 C 12.667969 8.550781 12.566406 9.074219 12.390625 9.5625 L 12.910156 10.082031 C 13.179688 9.441406 13.332031 8.738281 13.332031 8 C 13.332031 5.046875 10.953125 2.667969 8 2.667969 Z M 2.667969 4 L 2.667969 4.667969 L 6 4.667969 L 6 4 Z M 3.089844 5.917969 C 2.820312 6.558594 2.667969 7.261719 2.667969 8 C 2.667969 10.953125 5.046875 13.332031 8 13.332031 C 8.738281 13.332031 9.441406 13.179688 10.082031 12.910156 L 9.5625 12.390625 C 9.074219 12.566406 8.550781 12.667969 8 12.667969 C 5.414062 12.667969 3.332031 10.585938 3.332031 8 C 3.332031 7.449219 3.433594 6.925781 3.609375 6.4375 Z M 11.332031 10 L 11.332031 11.332031 L 10 11.332031 L 10 12 L 11.332031 12 L 11.332031 13.332031 L 12 13.332031 L 12 12 L 13.332031 12 L 13.332031 11.332031 L 12 11.332031 L 12 10 Z M 11.332031 10 "/>
</g>
</svg>
