<svg xmlns="http://www.w3.org/2000/svg" xmlns:xlink="http://www.w3.org/1999/xlink" width="16" height="16" viewBox="0 0 16 16" version="1.1">
<g id="surface1">
<path style=" stroke:none;fill-rule:nonzero;fill:rgb(100%,30.980393%,30.980393%);fill-opacity:1;" d="M 7.972656 2.652344 C 6.195312 2.667969 4.425781 3.136719 2.667969 4 C 4.738281 7.335938 4.03125 9.484375 2.667969 12 C 6.40625 13.988281 9.976562 13.5625 13.332031 12 C 11.660156 9.414062 11.519531 7.199219 13.332031 4 C 11.535156 3.066406 9.75 2.636719 7.972656 2.652344 Z M 7.808594 3.328125 C 8.394531 3.3125 8.992188 3.359375 9.597656 3.46875 C 9.40625 4.246094 9.253906 5.019531 9.15625 5.792969 C 8.863281 5.765625 8.570312 5.742188 8.269531 5.738281 C 7.796875 5.726562 7.308594 5.75 6.816406 5.792969 C 6.71875 5.03125 6.570312 4.265625 6.378906 3.496094 C 6.851562 3.410156 7.328125 3.34375 7.808594 3.328125 Z M 10.25 3.613281 C 10.960938 3.789062 11.6875 4.035156 12.433594 4.371094 C 12.105469 5 11.859375 5.628906 11.695312 6.257812 C 11.085938 6.097656 10.460938 5.960938 9.816406 5.871094 C 9.914062 5.125 10.058594 4.371094 10.25 3.613281 Z M 5.726562 3.628906 C 5.910156 4.378906 6.054688 5.121094 6.152344 5.859375 C 5.558594 5.941406 4.945312 6.078125 4.3125 6.25 C 4.140625 5.65625 3.890625 5.03125 3.550781 4.375 C 4.273438 4.070312 4.996094 3.8125 5.726562 3.628906 Z M 8.007812 6.402344 C 8.375 6.402344 8.734375 6.417969 9.085938 6.449219 C 8.988281 7.511719 8.980469 8.566406 9.070312 9.617188 C 8.375 9.679688 7.652344 9.679688 6.898438 9.613281 C 6.988281 8.566406 6.980469 7.511719 6.882812 6.453125 C 7.265625 6.417969 7.640625 6.402344 8.007812 6.402344 Z M 6.222656 6.519531 C 6.316406 7.535156 6.324219 8.546875 6.238281 9.546875 C 5.667969 9.46875 5.078125 9.335938 4.46875 9.167969 C 4.507812 8.984375 4.546875 8.800781 4.570312 8.609375 C 4.628906 8.074219 4.59375 7.503906 4.472656 6.898438 C 5.074219 6.734375 5.660156 6.601562 6.222656 6.519531 Z M 9.746094 6.53125 C 10.367188 6.621094 10.96875 6.753906 11.5625 6.914062 C 11.433594 7.671875 11.417969 8.421875 11.535156 9.160156 C 10.945312 9.316406 10.347656 9.449219 9.730469 9.535156 C 9.648438 8.539062 9.65625 7.539062 9.746094 6.53125 Z M 4.308594 9.8125 C 4.945312 9.988281 5.566406 10.128906 6.164062 10.210938 C 6.074219 10.921875 5.929688 11.628906 5.738281 12.335938 C 4.996094 12.167969 4.277344 11.929688 3.570312 11.632812 C 3.851562 11.058594 4.113281 10.457031 4.308594 9.8125 Z M 11.660156 9.816406 C 11.816406 10.429688 12.058594 11.03125 12.394531 11.621094 C 11.636719 11.9375 10.917969 12.164062 10.226562 12.320312 C 10.039062 11.613281 9.894531 10.90625 9.804688 10.195312 C 10.441406 10.105469 11.058594 9.972656 11.660156 9.816406 Z M 6.828125 10.273438 C 7.628906 10.34375 8.402344 10.339844 9.144531 10.273438 C 9.234375 11 9.382812 11.722656 9.570312 12.441406 C 8.4375 12.628906 7.386719 12.621094 6.390625 12.464844 C 6.585938 11.738281 6.734375 11.007812 6.828125 10.273438 Z M 6.828125 10.273438 "/>
</g>
</svg>
