<svg xmlns="http://www.w3.org/2000/svg" xmlns:xlink="http://www.w3.org/1999/xlink" width="16" height="16" viewBox="0 0 16 16" version="1.1">
<g id="surface1">
<path style=" stroke:none;fill-rule:nonzero;fill:rgb(0%,80.000001%,100%);fill-opacity:1;" d="M 8 2.667969 C 7.550781 2.667969 7.101562 2.730469 6.667969 2.84375 L 6.667969 3.539062 C 6.363281 3.632812 6.070312 3.753906 5.789062 3.902344 L 5.296875 3.410156 C 4.519531 3.867188 3.867188 4.519531 3.410156 5.296875 L 3.902344 5.789062 C 3.753906 6.070312 3.628906 6.363281 3.539062 6.667969 L 2.839844 6.667969 C 2.726562 7.101562 2.667969 7.550781 2.667969 8 C 2.667969 8.449219 2.730469 8.898438 2.84375 9.332031 L 3.539062 9.332031 C 3.632812 9.636719 3.753906 9.929688 3.902344 10.210938 L 3.410156 10.703125 C 3.867188 11.480469 4.519531 12.132812 5.296875 12.589844 L 5.789062 12.097656 C 6.070312 12.246094 6.363281 12.371094 6.667969 12.460938 L 6.667969 13.160156 C 6.886719 13.21875 7.109375 13.261719 7.332031 13.289062 L 7.332031 11.941406 C 6.738281 11.839844 6.175781 11.605469 5.683594 11.257812 L 5.644531 11.300781 L 5.210938 11.734375 L 5.207031 11.734375 C 4.847656 11.46875 4.53125 11.148438 4.265625 10.792969 L 4.265625 10.789062 L 4.742188 10.3125 C 4.394531 9.824219 4.160156 9.261719 4.058594 8.667969 L 3.382812 8.667969 C 3.351562 8.445312 3.335938 8.222656 3.332031 8 C 3.332031 7.777344 3.351562 7.554688 3.382812 7.332031 L 4.058594 7.332031 C 4.160156 6.738281 4.394531 6.175781 4.742188 5.683594 L 4.699219 5.644531 L 4.265625 5.210938 L 4.265625 5.207031 C 4.53125 4.847656 4.851562 4.53125 5.207031 4.265625 L 5.210938 4.265625 L 5.6875 4.742188 C 6.175781 4.394531 6.738281 4.160156 7.332031 4.058594 L 7.332031 3.382812 C 7.554688 3.351562 7.777344 3.335938 8 3.332031 C 8.222656 3.335938 8.445312 3.351562 8.667969 3.382812 L 8.667969 4.058594 C 9.261719 4.160156 9.824219 4.394531 10.3125 4.742188 L 10.789062 4.265625 L 10.792969 4.265625 C 11.148438 4.53125 11.46875 4.847656 11.734375 5.207031 L 11.734375 5.210938 L 11.300781 5.644531 L 11.257812 5.683594 C 11.605469 6.175781 11.839844 6.738281 11.941406 7.332031 L 12.617188 7.332031 C 12.648438 7.554688 12.667969 7.777344 12.667969 8 L 13.332031 8 C 13.332031 7.550781 13.273438 7.101562 13.160156 6.667969 L 12.460938 6.667969 C 12.371094 6.363281 12.246094 6.070312 12.097656 5.789062 L 12.589844 5.296875 C 12.132812 4.519531 11.480469 3.867188 10.703125 3.410156 L 10.210938 3.902344 C 9.929688 3.753906 9.636719 3.632812 9.332031 3.539062 L 9.332031 2.84375 C 8.898438 2.730469 8.449219 2.667969 8 2.667969 Z M 8 7.332031 C 7.632812 7.332031 7.332031 7.632812 7.332031 8 C 7.332031 8.367188 7.632812 8.667969 8 8.667969 C 8.367188 8.667969 8.667969 8.367188 8.667969 8 C 8.667969 7.632812 8.367188 7.332031 8 7.332031 Z M 12.671875 8.667969 L 12.671875 9.332031 L 12.007812 9.332031 C 11.085938 9.332031 10.339844 10.078125 10.339844 11 C 10.339844 11.550781 9.890625 12 9.339844 12 L 7.984375 12 L 7.984375 12.667969 L 9.339844 12.667969 C 10.261719 12.667969 11.007812 11.921875 11.007812 11 C 11.007812 10.449219 11.453125 10 12.007812 10 L 12.671875 10 L 12.671875 10.667969 L 14.007812 9.667969 Z M 8 9.332031 L 8 10 L 9.339844 10 C 9.515625 10 9.691406 10.046875 9.84375 10.136719 C 9.929688 9.929688 10.046875 9.738281 10.183594 9.566406 C 9.929688 9.414062 9.636719 9.332031 9.339844 9.332031 Z M 12.671875 11.332031 L 12.671875 12 L 12.007812 12 C 11.828125 12 11.65625 11.953125 11.5 11.863281 C 11.417969 12.070312 11.300781 12.261719 11.160156 12.433594 C 11.417969 12.585938 11.710938 12.667969 12.007812 12.667969 L 12.671875 12.667969 L 12.671875 13.332031 L 14.007812 12.332031 Z M 12.671875 11.332031 "/>
</g>
</svg>
