<svg xmlns="http://www.w3.org/2000/svg" xmlns:xlink="http://www.w3.org/1999/xlink" width="16" height="16" viewBox="0 0 16 16" version="1.1">
<g id="surface1">
<path style=" stroke:none;fill-rule:evenodd;fill:rgb(98.823529%,98.823529%,98.823529%);fill-opacity:1;" d="M 2.667969 2.667969 L 13.332031 2.667969 L 13.332031 9.332031 L 12.667969 9.332031 L 12.667969 3.332031 L 3.332031 3.332031 L 3.332031 12.667969 L 9.332031 12.667969 L 9.332031 13.332031 L 2.667969 13.332031 Z M 2.667969 2.667969 "/>
<path style=" stroke:none;fill-rule:nonzero;fill:rgb(98.823529%,98.823529%,98.823529%);fill-opacity:1;" d="M 6.667969 6.667969 C 6.667969 7.035156 6.367188 7.332031 6 7.332031 C 5.632812 7.332031 5.332031 7.035156 5.332031 6.667969 C 5.332031 6.296875 5.632812 6 6 6 C 6.367188 6 6.667969 6.296875 6.667969 6.667969 Z M 6.667969 6.667969 "/>
<path style=" stroke:none;fill-rule:nonzero;fill:rgb(98.823529%,98.823529%,98.823529%);fill-opacity:1;" d="M 10.667969 6.667969 C 10.667969 7.035156 10.367188 7.332031 10 7.332031 C 9.632812 7.332031 9.332031 7.035156 9.332031 6.667969 C 9.332031 6.296875 9.632812 6 10 6 C 10.367188 6 10.667969 6.296875 10.667969 6.667969 Z M 10.667969 6.667969 "/>
<path style=" stroke:none;fill-rule:evenodd;fill:rgb(98.823529%,98.823529%,98.823529%);fill-opacity:1;" d="M 10.285156 8.839844 C 9.25 10.5625 6.75 10.5625 5.714844 8.839844 L 6.285156 8.496094 C 7.0625 9.789062 8.9375 9.789062 9.714844 8.496094 Z M 10.285156 8.839844 "/>
<path style=" stroke:none;fill-rule:evenodd;fill:rgb(98.823529%,98.823529%,98.823529%);fill-opacity:1;" d="M 13.332031 8.332031 L 13.332031 9.804688 L 9.804688 13.332031 L 8.332031 13.332031 L 8.332031 12.667969 L 9.332031 12.667969 L 9.332031 9.332031 L 12.667969 9.332031 L 12.667969 8.332031 Z M 12.195312 10 L 10 10 L 10 12.195312 Z M 12.195312 10 "/>
</g>
</svg>
