<svg xmlns="http://www.w3.org/2000/svg" xmlns:xlink="http://www.w3.org/1999/xlink" width="16" height="16" viewBox="0 0 16 16" version="1.1">
<g id="surface1">
<path style=" stroke:none;fill-rule:nonzero;fill:rgb(0%,80.000001%,100%);fill-opacity:1;" d="M 8 2.667969 C 5.054688 2.667969 2.667969 5.054688 2.667969 8 C 2.667969 10.945312 5.054688 13.332031 8 13.332031 C 10.945312 13.332031 13.332031 10.945312 13.332031 8 C 13.332031 5.054688 10.945312 2.667969 8 2.667969 Z M 6.667969 4.667969 L 10.667969 4.667969 L 10.667969 10 C 10.667969 10.738281 10.070312 11.332031 9.332031 11.332031 C 8.597656 11.332031 8 10.738281 8 10 C 8 9.261719 8.597656 8.667969 9.332031 8.667969 C 9.566406 8.667969 9.796875 8.730469 10 8.847656 L 10 6 L 7.332031 6 L 7.332031 10 C 7.332031 10.738281 6.738281 11.332031 6 11.332031 C 5.261719 11.332031 4.667969 10.738281 4.667969 10 C 4.667969 9.261719 5.261719 8.667969 6 8.667969 C 6.234375 8.667969 6.464844 8.730469 6.667969 8.847656 Z M 6.667969 4.667969 "/>
</g>
</svg>
