<svg xmlns="http://www.w3.org/2000/svg" xmlns:xlink="http://www.w3.org/1999/xlink" width="16" height="16" viewBox="0 0 16 16" version="1.1">
<g id="surface1">
<path style=" stroke:none;fill-rule:nonzero;fill:rgb(0%,80.000001%,100%);fill-opacity:1;" d="M 5.332031 4 C 4.59375 4 4 4.59375 4 5.332031 L 4 12 L 6.667969 12 L 6.667969 6.667969 L 12 6.667969 L 12 4 Z M 5.332031 4.667969 L 11.332031 4.667969 L 11.332031 6 L 6 6 L 6 11.332031 L 4.667969 11.332031 L 4.667969 5.332031 C 4.667969 4.964844 4.964844 4.667969 5.332031 4.667969 Z M 8 8 L 8 12 L 10.667969 12 L 10.667969 10.667969 L 12 10.667969 L 12 8 Z M 8.667969 8.667969 L 11.332031 8.667969 L 11.332031 10 L 10 10 L 10 11.332031 L 8.667969 11.332031 Z M 8.667969 8.667969 "/>
</g>
</svg>
