<svg xmlns="http://www.w3.org/2000/svg" xmlns:xlink="http://www.w3.org/1999/xlink" width="16" height="16" viewBox="0 0 16 16" version="1.1">
<g id="surface1">
<path style=" stroke:none;fill-rule:nonzero;fill:rgb(96.862745%,0%,100%);fill-opacity:1;" d="M 5 3.332031 C 4.078125 3.332031 3.332031 4.078125 3.332031 5 C 3.332031 5.792969 3.890625 6.472656 4.667969 6.632812 L 4.667969 9.300781 C 3.890625 9.460938 3.335938 10.140625 3.332031 10.933594 C 3.332031 11.855469 4.078125 12.601562 5 12.601562 C 5.921875 12.601562 6.667969 11.855469 6.667969 10.933594 C 6.667969 10.140625 6.109375 9.460938 5.332031 9.300781 L 5.332031 6.628906 C 5.59375 6.578125 5.835938 6.464844 6.042969 6.300781 L 6.851562 6.90625 C 6.730469 7.140625 6.667969 7.402344 6.667969 7.667969 C 6.667969 8.585938 7.414062 9.332031 8.332031 9.332031 C 8.710938 9.332031 9.054688 9.203125 9.332031 8.992188 L 9.332031 10.667969 L 8 10.667969 L 10.1875 12.542969 L 10.332031 12.667969 L 10.480469 12.542969 L 12.667969 10.667969 L 11.332031 10.667969 L 11.332031 8.667969 L 9.660156 8.667969 C 9.871094 8.386719 10 8.042969 10 7.667969 C 10 6.746094 9.253906 6 8.332031 6 C 7.9375 6 7.558594 6.140625 7.257812 6.398438 L 6.460938 5.800781 C 6.597656 5.554688 6.667969 5.28125 6.667969 5 C 6.667969 4.078125 5.921875 3.332031 5 3.332031 Z M 5 3.332031 "/>
</g>
</svg>
