<svg xmlns="http://www.w3.org/2000/svg" xmlns:xlink="http://www.w3.org/1999/xlink" width="16" height="16" viewBox="0 0 16 16" version="1.1">
<g id="surface1">
<path style=" stroke:none;fill-rule:nonzero;fill:rgb(100%,30.980393%,30.980393%);fill-opacity:1;" d="M 3.332031 3.332031 L 3.332031 6.667969 C 3.332031 6.488281 3.402344 6.320312 3.527344 6.195312 L 5.527344 4.195312 C 5.667969 4.054688 5.867188 3.984375 6.066406 4.003906 C 6.128906 4.007812 6.195312 4.027344 6.253906 4.050781 C 6.503906 4.152344 6.667969 4.398438 6.667969 4.667969 L 6.667969 5.332031 L 7.332031 5.332031 L 7.332031 3.332031 Z M 3.332031 6.667969 L 3.332031 12.667969 L 7.332031 12.667969 L 7.332031 10.667969 C 6.964844 10.667969 6.667969 10.367188 6.667969 10 L 6.667969 8.667969 C 6.667969 8.9375 6.503906 9.179688 6.253906 9.28125 C 6.007812 9.386719 5.71875 9.328125 5.527344 9.136719 L 3.527344 7.136719 C 3.402344 7.011719 3.332031 6.84375 3.332031 6.667969 Z M 6.667969 8.667969 C 6.667969 8.296875 6.964844 8 7.332031 8 L 6.667969 8 Z M 8.667969 3.332031 L 8.667969 5.332031 C 9.035156 5.332031 9.332031 5.632812 9.332031 6 L 9.332031 7.332031 C 9.332031 7.0625 9.496094 6.820312 9.746094 6.71875 C 9.992188 6.613281 10.28125 6.671875 10.472656 6.863281 L 12.472656 8.863281 C 12.597656 8.988281 12.667969 9.15625 12.667969 9.332031 L 12.667969 3.332031 Z M 12.667969 9.332031 C 12.667969 9.511719 12.597656 9.679688 12.472656 9.804688 L 10.472656 11.804688 C 10.28125 11.996094 9.992188 12.050781 9.746094 11.949219 C 9.496094 11.847656 9.332031 11.601562 9.332031 11.332031 L 9.332031 10.667969 L 8.667969 10.667969 L 8.667969 12.667969 L 12.667969 12.667969 Z M 9.332031 7.332031 C 9.332031 7.703125 9.035156 8 8.667969 8 L 9.332031 8 Z M 6 4.667969 L 4 6.667969 L 4.667969 7.332031 L 6 8.667969 L 6 7.332031 L 8.667969 7.332031 L 8.667969 6 L 6 6 Z M 10 7.332031 L 10 8.667969 L 7.332031 8.667969 L 7.332031 10 L 10 10 L 10 11.332031 L 12 9.332031 L 11.332031 8.667969 Z M 10 7.332031 "/>
</g>
</svg>
