<svg xmlns="http://www.w3.org/2000/svg" xmlns:xlink="http://www.w3.org/1999/xlink" width="16" height="16" viewBox="0 0 16 16" version="1.1">
<g id="surface1">
<path style=" stroke:none;fill-rule:nonzero;fill:rgb(0%,80.000001%,100%);fill-opacity:1;" d="M 7.332031 2.667969 L 7.332031 7.332031 L 8.667969 7.332031 L 8.667969 2.667969 Z M 6.667969 2.84375 C 4.363281 3.433594 2.667969 5.507812 2.667969 8 C 2.667969 10.953125 5.046875 13.332031 8 13.332031 C 10.953125 13.332031 13.332031 10.953125 13.332031 8 C 13.332031 5.507812 11.636719 3.433594 9.332031 2.84375 L 9.332031 3.535156 C 11.261719 4.105469 12.667969 5.878906 12.667969 8 C 12.667969 10.585938 10.585938 12.667969 8 12.667969 C 5.414062 12.667969 3.332031 10.585938 3.332031 8 C 3.332031 5.878906 4.738281 4.105469 6.667969 3.535156 Z M 6.667969 2.84375 "/>
</g>
</svg>
