<svg xmlns="http://www.w3.org/2000/svg" xmlns:xlink="http://www.w3.org/1999/xlink" width="16" height="16" viewBox="0 0 16 16" version="1.1">
<g id="surface1">
<path style=" stroke:none;fill-rule:nonzero;fill:rgb(96.862745%,0%,100%);fill-opacity:1;" d="M 5.191406 3.136719 L 4.613281 3.472656 L 5.710938 5.371094 L 4.214844 4.96875 L 4.039062 5.613281 L 6.183594 6.1875 L 7.230469 8 L 5.136719 8 L 3.570312 6.429688 L 3.097656 6.902344 L 4.195312 8 L 2 8 L 2 8.667969 L 4.195312 8.667969 L 3.097656 9.765625 L 3.570312 10.234375 L 5.136719 8.667969 L 7.226562 8.667969 L 6.183594 10.476562 L 4.039062 11.050781 L 4.210938 11.695312 L 5.710938 11.292969 L 4.613281 13.191406 L 5.191406 13.527344 L 6.289062 11.625 L 6.691406 13.125 L 7.332031 12.953125 L 6.757812 10.808594 L 7.996094 8.667969 L 8 8.667969 L 9.238281 10.8125 L 8.664062 12.957031 L 9.308594 13.128906 L 9.710938 11.628906 L 10.808594 13.53125 L 11.386719 13.195312 L 10.289062 11.296875 L 11.785156 11.695312 L 11.960938 11.054688 L 9.816406 10.480469 L 8.769531 8.667969 L 10.863281 8.667969 L 12.429688 10.234375 L 12.902344 9.765625 L 11.804688 8.667969 L 14 8.667969 L 14 8 L 11.804688 8 L 12.902344 6.902344 L 12.867188 6.863281 L 12 6.863281 L 10.863281 8 L 8 8 L 7.996094 7.996094 L 6.761719 5.855469 L 7.335938 3.710938 L 6.691406 3.539062 L 6.289062 5.039062 Z M 11.332031 2.667969 L 11.332031 3.332031 L 12.863281 3.332031 L 11.332031 4.863281 L 11.332031 5.332031 L 14 5.332031 L 14 4.667969 L 12.472656 4.667969 L 13.804688 3.332031 L 14 3.136719 L 14 2.667969 Z M 11.332031 2.667969 "/>
<path style=" stroke:none;fill-rule:nonzero;fill:rgb(96.862745%,0%,100%);fill-opacity:1;" d="M 8 4 L 8 4.667969 L 9.527344 4.667969 L 8 6.195312 L 8 6.667969 L 10.667969 6.667969 L 10.667969 6 L 9.136719 6 L 10.472656 4.667969 L 10.667969 4.472656 L 10.667969 4 Z M 8 4 "/>
</g>
</svg>
