<svg xmlns="http://www.w3.org/2000/svg" xmlns:xlink="http://www.w3.org/1999/xlink" width="16" height="16" viewBox="0 0 16 16" version="1.1">
<g id="surface1">
<path style=" stroke:none;fill-rule:nonzero;fill:rgb(100%,30.980393%,30.980393%);fill-opacity:1;" d="M 8.253906 2.257812 C 6.929688 2.257812 6.109375 3.101562 5.988281 4.125 L 5.988281 4.804688 L 4.554688 3.789062 L 3.988281 4.230469 L 5.6875 5.558594 L 6.253906 6 L 6.820312 5.558594 L 8.515625 4.230469 L 7.953125 3.789062 L 6.65625 4.804688 L 6.65625 4.125 C 6.65625 3.433594 7.367188 2.925781 8.253906 2.925781 C 9.144531 2.925781 10 3.433594 9.988281 4.125 L 9.988281 4.667969 L 10.65625 4.667969 L 10.65625 4.125 C 10.65625 3.09375 9.582031 2.257812 8.253906 2.257812 Z M 9.988281 5.332031 C 9.253906 5.332031 8.65625 5.929688 8.65625 6.667969 C 8.65625 7.402344 9.253906 8 9.988281 8 C 10.726562 8 11.324219 7.402344 11.324219 6.667969 C 11.324219 5.929688 10.726562 5.332031 9.988281 5.332031 Z M 5.988281 6.667969 C 5.253906 6.667969 4.65625 7.261719 4.65625 8 C 4.65625 8.738281 5.253906 9.332031 5.988281 9.332031 C 6.726562 9.332031 7.324219 8.738281 7.324219 8 C 7.324219 7.261719 6.726562 6.667969 5.988281 6.667969 Z M 10 8.667969 C 8.988281 8.667969 8.15625 9.441406 8.015625 10.449219 C 8.402344 10.890625 8.65625 11.332031 8.65625 12 L 11.609375 12 C 11.871094 11.640625 12.015625 11.199219 12.015625 10.75 C 12.015625 9.597656 11.113281 8.667969 10 8.667969 Z M 9.96875 9.332031 C 10.703125 9.332031 11.296875 9.894531 11.296875 10.582031 C 11.296875 10.855469 11.203125 11.117188 11.03125 11.332031 L 9.152344 11.332031 C 9.09375 10.972656 8.914062 10.652344 8.65625 10.402344 C 8.75 9.796875 9.296875 9.332031 9.96875 9.332031 Z M 5.988281 10 C 4.886719 10 3.988281 10.933594 3.988281 12.082031 C 3.992188 12.535156 4.132812 12.972656 4.394531 13.332031 L 7.589844 13.332031 C 7.847656 12.972656 7.988281 12.535156 7.988281 12.082031 C 7.988281 10.933594 7.09375 10 5.988281 10 Z M 5.988281 10.667969 C 6.726562 10.667969 7.324219 11.339844 7.324219 12.167969 C 7.324219 12.335938 7.296875 12.507812 7.246094 12.667969 L 4.734375 12.667969 C 4.683594 12.507812 4.65625 12.335938 4.65625 12.167969 C 4.65625 11.339844 5.253906 10.667969 5.988281 10.667969 Z M 5.988281 10.667969 "/>
</g>
</svg>
