<svg xmlns="http://www.w3.org/2000/svg" xmlns:xlink="http://www.w3.org/1999/xlink" width="16" height="16" viewBox="0 0 16 16" version="1.1">
<g id="surface1">
<path style=" stroke:none;fill-rule:nonzero;fill:rgb(100%,74.901962%,0%);fill-opacity:1;" d="M 5.363281 3.367188 C 3.699219 4.3125 2.667969 6.082031 2.667969 8 C 2.667969 10.945312 5.050781 13.332031 7.996094 13.332031 C 9.910156 13.332031 11.675781 12.300781 12.621094 10.636719 C 12.625 10.636719 12.625 10.636719 12.628906 10.632812 L 12.136719 10.140625 C 12.132812 10.144531 12.132812 10.144531 12.132812 10.144531 C 11.472656 10.488281 10.738281 10.667969 9.996094 10.667969 C 7.417969 10.664062 5.332031 8.578125 5.332031 6 C 5.332031 5.253906 5.511719 4.519531 5.855469 3.859375 Z M 4.867188 4.546875 C 4.734375 5.019531 4.664062 5.507812 4.664062 6 C 4.664062 8.945312 7.050781 11.332031 9.996094 11.332031 C 10.488281 11.332031 10.980469 11.261719 11.453125 11.125 C 10.570312 12.105469 9.316406 12.664062 7.996094 12.667969 C 5.421875 12.664062 3.332031 10.578125 3.332031 8 C 3.335938 6.683594 3.894531 5.429688 4.867188 4.546875 Z M 4.867188 4.546875 "/>
<path style=" stroke:none;fill-rule:nonzero;fill:rgb(100%,74.901962%,0%);fill-opacity:1;" d="M 7.332031 4.667969 L 7.332031 5.332031 L 8.863281 5.332031 L 7.332031 6.863281 L 7.332031 7.332031 L 10 7.332031 L 10 6.667969 L 8.472656 6.667969 L 9.804688 5.332031 L 10 5.136719 L 10 4.667969 Z M 10.667969 2.667969 L 10.667969 3.332031 L 12.195312 3.332031 L 10.863281 4.667969 L 10.667969 4.863281 L 10.667969 5.332031 L 13.332031 5.332031 L 13.332031 4.667969 L 11.804688 4.667969 L 13.136719 3.332031 L 13.332031 3.136719 L 13.332031 2.667969 Z M 10.667969 2.667969 "/>
</g>
</svg>
