<svg xmlns="http://www.w3.org/2000/svg" xmlns:xlink="http://www.w3.org/1999/xlink" width="16" height="16" viewBox="0 0 16 16" version="1.1">
<g id="surface1">
<path style=" stroke:none;fill-rule:nonzero;fill:rgb(67.058825%,40.000001%,100%);fill-opacity:1;" d="M 8 2.667969 C 5.046875 2.667969 2.667969 5.046875 2.667969 8 C 2.667969 10.953125 5.046875 13.332031 8 13.332031 C 10.953125 13.332031 13.332031 10.953125 13.332031 8 C 13.332031 5.046875 10.953125 2.667969 8 2.667969 Z M 8 3.332031 C 10.585938 3.332031 12.667969 5.414062 12.667969 8 C 12.667969 10.585938 10.585938 12.667969 8 12.667969 C 5.414062 12.667969 3.332031 10.585938 3.332031 8 C 3.332031 5.414062 5.414062 3.332031 8 3.332031 Z M 8 4.667969 C 7.261719 4.667969 6.667969 5.261719 6.667969 6 L 6.667969 7.332031 L 5.332031 7.332031 L 5.332031 10.667969 L 10.667969 10.667969 L 10.667969 7.332031 L 9.332031 7.332031 L 9.332031 6 C 9.332031 5.261719 8.738281 4.667969 8 4.667969 Z M 8 5.332031 C 8.367188 5.332031 8.667969 5.632812 8.667969 6 L 8.667969 7.332031 L 7.332031 7.332031 L 7.332031 6 C 7.332031 5.632812 7.632812 5.332031 8 5.332031 Z M 6 8 L 10 8 L 10 10 L 6 10 Z M 6 8 "/>
</g>
</svg>
