<svg xmlns="http://www.w3.org/2000/svg" xmlns:xlink="http://www.w3.org/1999/xlink" width="16" height="16" viewBox="0 0 16 16" version="1.1">
<g id="surface1">
<path style=" stroke:none;fill-rule:nonzero;fill:rgb(0%,80.000001%,100%);fill-opacity:1;" d="M 5.332031 4.003906 C 5.332031 4.003906 4 4.003906 4 5.335938 L 4 10.003906 C 4 10.667969 3.332031 10.667969 3.332031 10.667969 L 2.667969 10.667969 L 2.667969 12.003906 L 13.332031 12.003906 L 13.332031 10.667969 L 12.667969 10.667969 C 12.667969 10.667969 12 10.667969 12 10.003906 L 12 5.335938 C 12 5.335938 12 4.003906 10.667969 4.003906 Z M 7.058594 6.117188 L 8 7.058594 L 8.941406 6.117188 L 9.886719 7.058594 L 8.941406 8.003906 L 9.886719 8.945312 L 8.941406 9.886719 L 8 8.945312 L 7.058594 9.886719 L 6.113281 8.945312 L 7.058594 8.003906 L 6.113281 7.058594 Z M 7.058594 6.117188 "/>
</g>
</svg>
