<svg xmlns="http://www.w3.org/2000/svg" xmlns:xlink="http://www.w3.org/1999/xlink" width="16" height="16" viewBox="0 0 16 16" version="1.1">
<g id="surface1">
<path style=" stroke:none;fill-rule:nonzero;fill:rgb(100%,74.901962%,0%);fill-opacity:1;" d="M 2 2.667969 C 1.265625 2.667969 0.667969 3.265625 0.667969 4 L 0.667969 12 C 0.667969 12.734375 1.265625 13.332031 2 13.332031 L 14 13.332031 C 14.734375 13.332031 15.328125 12.734375 15.328125 12 L 15.332031 4 C 15.332031 3.265625 14.734375 2.667969 14 2.667969 Z M 2.667969 4 L 13.332031 4 C 13.703125 4 14 4.296875 14 4.667969 L 14 11.332031 C 14 11.703125 13.703125 12 13.332031 12 L 2.667969 12 C 2.296875 12 2 11.703125 2 11.332031 L 2 4.667969 C 2 4.296875 2.296875 4 2.667969 4 Z M 2.667969 4 "/>
<path style=" stroke:none;fill-rule:nonzero;fill:rgb(100%,74.901962%,0%);fill-opacity:1;" d="M 3.332031 5 C 3.332031 5.183594 3.183594 5.332031 3 5.332031 C 2.816406 5.332031 2.667969 5.183594 2.667969 5 C 2.667969 4.816406 2.816406 4.667969 3 4.667969 C 3.183594 4.667969 3.332031 4.816406 3.332031 5 Z M 3.332031 5 "/>
</g>
</svg>
