<svg xmlns="http://www.w3.org/2000/svg" xmlns:xlink="http://www.w3.org/1999/xlink" width="16" height="16" viewBox="0 0 16 16" version="1.1">
<g id="surface1">
<path style=" stroke:none;fill-rule:nonzero;fill:rgb(0%,80.000001%,100%);fill-opacity:1;" d="M 5.332031 3.332031 C 5.332031 3.332031 4 3.332031 4 4.667969 L 4 8 L 8.667969 12.667969 L 13.332031 8 L 8.667969 3.332031 Z M 8 4.667969 C 9.476562 4.667969 10.667969 5.855469 10.667969 7.332031 C 10.667969 8.8125 9.476562 10 8 10 C 6.523438 10 5.332031 8.8125 5.332031 7.332031 C 5.332031 5.855469 6.523438 4.667969 8 4.667969 Z M 8 5.332031 C 6.890625 5.332031 6 6.226562 6 7.332031 C 6 8.441406 6.890625 9.332031 8 9.332031 C 9.109375 9.332031 10 8.441406 10 7.332031 C 10 6.226562 9.109375 5.332031 8 5.332031 Z M 7.332031 6 L 8 6 L 8 7.332031 L 8.667969 7.332031 L 8.667969 8 L 7.332031 8 Z M 7.332031 6 "/>
</g>
</svg>
