<svg xmlns="http://www.w3.org/2000/svg" xmlns:xlink="http://www.w3.org/1999/xlink" width="16" height="16" viewBox="0 0 16 16" version="1.1">
<g id="surface1">
<path style=" stroke:none;fill-rule:nonzero;fill:rgb(67.058825%,40.000001%,100%);fill-opacity:1;" d="M 5.332031 3.332031 C 5.332031 3.332031 4 3.332031 4 4.667969 L 4 8 L 8.667969 12.667969 L 13.332031 8 L 8.667969 3.332031 Z M 6 4.667969 C 6.367188 4.667969 6.667969 4.964844 6.667969 5.332031 C 6.667969 5.703125 6.367188 6 6 6 C 5.632812 6 5.332031 5.703125 5.332031 5.332031 C 5.332031 4.964844 5.632812 4.667969 6 4.667969 Z M 12.652344 10.003906 C 12.625 10.007812 12.597656 10.023438 12.566406 10.054688 L 12.144531 10.476562 L 12.855469 11.191406 L 13.28125 10.765625 C 13.398438 10.648438 13.28125 10.527344 13.28125 10.527344 L 12.804688 10.054688 C 12.804688 10.054688 12.738281 9.984375 12.652344 10.003906 Z M 11.90625 10.714844 L 10 12.617188 L 10 13.332031 L 10.714844 13.332031 L 12.617188 11.429688 Z M 11.90625 10.714844 "/>
</g>
</svg>
