<svg xmlns="http://www.w3.org/2000/svg" xmlns:xlink="http://www.w3.org/1999/xlink" width="16" height="16" viewBox="0 0 16 16" version="1.1">
<g id="surface1">
<path style=" stroke:none;fill-rule:nonzero;fill:rgb(0%,100%,66.666669%);fill-opacity:1;" d="M 8 2.667969 C 7.261719 2.667969 6.667969 3.261719 6.667969 4 L 4 4 C 3.628906 4 3.332031 4.296875 3.332031 4.667969 L 3.332031 12 C 3.332031 12.371094 3.628906 12.667969 4 12.667969 L 10 12.667969 L 10 10.667969 L 5.332031 10.667969 L 5.332031 10 L 10 10 L 10 8.667969 L 5.332031 8.667969 L 5.332031 8 L 10 8 L 10 6.667969 L 5.332031 6.667969 L 5.332031 6 L 10.667969 6 L 10.667969 6.667969 L 12.667969 6.667969 L 12.667969 4.667969 C 12.667969 4.296875 12.371094 4 12 4 L 9.332031 4 C 9.332031 3.261719 8.738281 2.667969 8 2.667969 Z M 8 3.332031 C 8.367188 3.332031 8.667969 3.632812 8.667969 4 C 8.667969 4.367188 8.367188 4.667969 8 4.667969 C 7.632812 4.667969 7.332031 4.367188 7.332031 4 C 7.332031 3.632812 7.632812 3.332031 8 3.332031 Z M 8 3.332031 "/>
<path style=" stroke:none;fill-rule:nonzero;fill:rgb(32.156864%,58.039218%,88.627452%);fill-opacity:1;" d="M 10.667969 7.332031 L 10.667969 10 L 10.832031 11.332031 L 11.832031 11.332031 L 12 10 L 12 7.332031 Z M 10.667969 12 L 10.667969 13.332031 L 12 13.332031 L 12 12 Z M 10.667969 12 "/>
</g>
</svg>
