<svg xmlns="http://www.w3.org/2000/svg" xmlns:xlink="http://www.w3.org/1999/xlink" width="16" height="16" viewBox="0 0 16 16" version="1.1">
<g id="surface1">
<path style=" stroke:none;fill-rule:nonzero;fill:rgb(0%,80.000001%,100%);fill-opacity:1;" d="M 7.332031 8.667969 C 4.746094 8.667969 2.667969 10.746094 2.667969 13.332031 L 3.332031 13.332031 C 3.332031 11.117188 5.117188 9.332031 7.332031 9.332031 L 8.667969 9.332031 C 10.882812 9.332031 12.667969 11.117188 12.667969 13.332031 L 13.332031 13.332031 C 13.332031 10.746094 11.253906 8.667969 8.667969 8.667969 Z M 8.667969 2.667969 L 8.667969 8 L 9.332031 8 L 9.332031 7.664062 C 9.621094 7.882812 9.972656 8 10.332031 8 C 11.253906 8 12 7.253906 12 6.332031 C 12 5.414062 11.253906 4.667969 10.332031 4.667969 C 9.972656 4.667969 9.621094 4.785156 9.332031 5.003906 L 9.332031 2.667969 Z M 10.332031 5.332031 C 10.886719 5.332031 11.332031 5.78125 11.332031 6.332031 C 11.332031 6.886719 10.886719 7.332031 10.332031 7.332031 C 9.78125 7.332031 9.332031 6.886719 9.332031 6.332031 C 9.332031 5.78125 9.78125 5.332031 10.332031 5.332031 Z M 5.667969 4.667969 C 4.746094 4.667969 4 5.414062 4 6.332031 C 4 7.253906 4.746094 8 5.667969 8 C 6.027344 8 6.378906 7.882812 6.667969 7.664062 L 6.667969 8 L 7.332031 8 L 7.332031 4.667969 L 6.667969 4.667969 L 6.667969 5 C 6.378906 4.785156 6.027344 4.667969 5.667969 4.667969 Z M 5.667969 5.332031 C 6.21875 5.332031 6.667969 5.78125 6.667969 6.332031 C 6.667969 6.886719 6.21875 7.332031 5.667969 7.332031 C 5.113281 7.332031 4.667969 6.886719 4.667969 6.332031 C 4.667969 5.78125 5.113281 5.332031 5.667969 5.332031 Z M 5.667969 5.332031 "/>
</g>
</svg>
