<svg xmlns="http://www.w3.org/2000/svg" xmlns:xlink="http://www.w3.org/1999/xlink" width="16" height="16" viewBox="0 0 16 16" version="1.1">
<g id="surface1">
<path style=" stroke:none;fill-rule:nonzero;fill:rgb(100%,74.901962%,0%);fill-opacity:1;" d="M 6.667969 3.332031 L 3.332031 12.667969 L 5 12.667969 L 5.707031 10.667969 L 8.015625 10.667969 C 8.136719 9.617188 8.953125 8.777344 9.996094 8.625 L 8 3.332031 Z M 7.332031 6 L 8.5 9.332031 L 6.167969 9.332031 Z M 10.332031 8.667969 L 10.332031 9.238281 C 9.414062 9.238281 8.667969 10.003906 8.667969 10.953125 C 8.667969 11.898438 9.414062 12.667969 10.332031 12.667969 C 11.246094 12.667969 11.984375 11.914062 12 10.980469 C 12 10.972656 12 10.960938 12 10.953125 C 12 10.792969 11.875 10.667969 11.722656 10.667969 C 11.648438 10.667969 11.578125 10.695312 11.527344 10.75 C 11.472656 10.804688 11.445312 10.875 11.445312 10.953125 C 11.445312 11.582031 10.945312 12.09375 10.332031 12.09375 C 9.71875 12.09375 9.222656 11.582031 9.222656 10.953125 C 9.222656 10.320312 9.71875 9.808594 10.332031 9.808594 L 10.332031 10.382812 L 11.445312 9.523438 Z M 10.332031 8.667969 "/>
</g>
</svg>
