<svg xmlns="http://www.w3.org/2000/svg" xmlns:xlink="http://www.w3.org/1999/xlink" width="16" height="16" viewBox="0 0 16 16" version="1.1">
<defs>
<filter id="alpha" filterUnits="objectBoundingBox" x="0%" y="0%" width="100%" height="100%">
  <feColorMatrix type="matrix" in="SourceGraphic" values="0 0 0 0 1 0 0 0 0 1 0 0 0 0 1 0 0 0 1 0"/>
</filter>
<mask id="mask0">
  <g filter="url(#alpha)">
<rect x="0" y="0" width="16" height="16" style="fill:rgb(0%,0%,0%);fill-opacity:0.3;stroke:none;"/>
  </g>
</mask>
<clipPath id="clip1">
  <rect x="0" y="0" width="16" height="16"/>
</clipPath>
<g id="surface5" clip-path="url(#clip1)">
<path style=" stroke:none;fill-rule:nonzero;fill:rgb(100%,74.901962%,0%);fill-opacity:1;" d="M 4.667969 4.667969 L 2.667969 10 L 3.332031 10 L 3.847656 8.667969 L 6.152344 8.667969 L 6.667969 10 L 7.332031 10 L 5.332031 4.667969 Z M 5 5.667969 L 5.898438 8 L 4.101562 8 Z M 5 5.667969 "/>
</g>
</defs>
<g id="surface1">
<use xlink:href="#surface5" mask="url(#mask0)"/>
<path style=" stroke:none;fill-rule:nonzero;fill:rgb(100%,74.901962%,0%);fill-opacity:1;" d="M 9.332031 9.332031 L 9.332031 10.277344 L 10.390625 11.332031 L 9.332031 12.390625 L 9.332031 13.332031 L 10.277344 13.332031 L 11.332031 12.277344 L 12.390625 13.332031 L 13.332031 13.332031 L 13.332031 12.390625 L 12.277344 11.332031 L 13.332031 10.277344 L 13.332031 9.332031 L 12.390625 9.332031 L 11.332031 10.390625 L 10.277344 9.332031 Z M 8 3.332031 L 8 10.667969 L 2.667969 10.667969 L 2.667969 11.332031 L 8.667969 11.332031 L 8.667969 3.332031 Z M 8 3.332031 "/>
</g>
</svg>
