<svg xmlns="http://www.w3.org/2000/svg" xmlns:xlink="http://www.w3.org/1999/xlink" width="16" height="16" viewBox="0 0 16 16" version="1.1">
<g id="surface1">
<path style=" stroke:none;fill-rule:nonzero;fill:rgb(0%,100%,66.666669%);fill-opacity:1;" d="M 8.332031 11.667969 C 8.332031 11.851562 8.183594 12 8 12 C 7.816406 12 7.667969 11.851562 7.667969 11.667969 C 7.667969 11.484375 7.816406 11.332031 8 11.332031 C 8.183594 11.332031 8.332031 11.484375 8.332031 11.667969 Z M 6.667969 10.667969 L 4 11.667969 L 6.667969 12.667969 Z M 9.332031 10.667969 L 9.332031 12.667969 L 12 11.667969 Z M 10.667969 3.332031 L 10.667969 10 L 11.332031 10 L 11.332031 6.667969 L 12.332031 6.667969 C 12.667969 6.667969 12.667969 7 12.667969 7 L 12.667969 10 L 13.332031 10 L 13.332031 6.667969 C 13.332031 6.667969 13.332031 6 12.667969 6 L 11.332031 6 L 11.332031 3.332031 Z M 8.667969 3.332031 L 8.667969 4.667969 L 8 4.667969 L 8 5.332031 L 8.667969 5.332031 L 8.667969 9.332031 C 8.667969 10 9.332031 10 9.332031 10 L 10 10 L 10 9.332031 L 9.332031 9.332031 L 9.332031 5.332031 L 10 5.332031 L 10 4.667969 L 9.332031 4.667969 L 9.332031 3.332031 Z M 4 6 L 4 10 L 4.667969 10 L 4.667969 6.667969 L 5.667969 6.667969 C 6 6.667969 6 7 6 7 L 6 10 L 6.667969 10 L 6.667969 6.667969 C 6.667969 6.667969 6.667969 6 6 6 Z M 2.667969 4.667969 L 3.332031 4.667969 L 3.332031 5.332031 L 2.667969 5.332031 Z M 2.667969 6 L 3.332031 6 L 3.332031 10 L 2.667969 10 Z M 2.667969 6 "/>
</g>
</svg>
