<svg xmlns="http://www.w3.org/2000/svg" xmlns:xlink="http://www.w3.org/1999/xlink" width="16" height="16" viewBox="0 0 16 16" version="1.1">
<g id="surface1">
<path style=" stroke:none;fill-rule:nonzero;fill:rgb(96.862745%,0%,100%);fill-opacity:1;" d="M 4 4 L 4 10.667969 L 2.667969 10.667969 L 4.667969 13.332031 L 6.667969 10.667969 L 5.332031 10.667969 L 5.332031 4 Z M 8 13.332031 L 8.667969 13.332031 L 8.667969 12 L 10.667969 12 L 10.667969 13.332031 L 11.332031 13.332031 L 11.332031 10.667969 C 11.332031 9.332031 9.667969 9.332031 9.667969 9.332031 C 9.667969 9.332031 8 9.332031 8 10.667969 Z M 8.667969 11.332031 L 8.667969 11 C 8.667969 10 9.667969 10 9.667969 10 C 9.667969 10 10.667969 10 10.667969 11 L 10.667969 11.332031 Z M 8.332031 4.667969 C 8.332031 4.667969 8 4.667969 8 5 C 8 5.332031 8.332031 5.332031 8.332031 5.332031 L 10.332031 5.332031 L 9.332031 6.167969 L 9.332031 6.667969 L 7 6.667969 C 7 6.667969 6.667969 6.667969 6.667969 7 C 6.667969 7.332031 7 7.332031 7 7.332031 L 9.332031 7.332031 L 9.332031 8 L 8.332031 8 C 8.332031 8 8 8 8 8.332031 C 8 8.667969 8.332031 8.667969 8.332031 8.667969 L 9.332031 8.667969 C 9.332031 8.667969 10 8.667969 10 8 L 10 7.332031 L 12.332031 7.332031 C 12.332031 7.332031 12.667969 7.332031 12.667969 7 C 12.667969 6.667969 12.332031 6.667969 12.332031 6.667969 L 10 6.667969 L 10 6.5 C 10 6.5 11.332031 5.667969 11.332031 5.332031 C 11.332031 4.667969 10.667969 4.667969 10.667969 4.667969 Z M 9 2.667969 C 8.667969 2.667969 8.667969 3 8.667969 3 L 8.667969 3.332031 L 7 3.332031 C 6.667969 3.332031 6.667969 3.667969 6.667969 3.667969 L 6.667969 4.332031 C 6.667969 4.332031 6.667969 4.667969 7 4.667969 C 7.332031 4.667969 7.332031 4.332031 7.332031 4.332031 L 7.332031 4 L 12 4 L 12 4.332031 C 12 4.332031 12 4.667969 12.332031 4.667969 C 12.667969 4.667969 12.667969 4.332031 12.667969 4.332031 L 12.667969 3.667969 C 12.667969 3.667969 12.667969 3.332031 12.332031 3.332031 L 9.332031 3.332031 L 9.332031 3 C 9.332031 3 9.332031 2.667969 9 2.667969 Z M 9 2.667969 "/>
</g>
</svg>
