<svg xmlns="http://www.w3.org/2000/svg" xmlns:xlink="http://www.w3.org/1999/xlink" width="16" height="16" viewBox="0 0 16 16" version="1.1">
<g id="surface1">
<path style=" stroke:none;fill-rule:nonzero;fill:rgb(67.058825%,40.000001%,100%);fill-opacity:1;" d="M 3.332031 3.332031 L 3.332031 6.667969 L 5 6.667969 C 5.550781 6.667969 6 6.21875 6 5.667969 C 6 5.3125 5.820312 4.988281 5.542969 4.8125 C 5.617188 4.671875 5.667969 4.507812 5.667969 4.332031 C 5.667969 3.78125 5.21875 3.332031 4.667969 3.332031 Z M 10 3.332031 L 10 6.667969 L 11.667969 6.667969 C 12.21875 6.667969 12.667969 6.21875 12.667969 5.667969 L 12.667969 4.332031 C 12.667969 3.78125 12.21875 3.332031 11.667969 3.332031 Z M 4 4 L 4.667969 4 C 4.851562 4 5 4.148438 5 4.332031 C 5 4.515625 4.851562 4.667969 4.667969 4.667969 L 4 4.667969 Z M 10.667969 4 L 11.667969 4 C 11.851562 4 12 4.148438 12 4.332031 L 12 5.667969 C 12 5.851562 11.851562 6 11.667969 6 L 10.667969 6 Z M 6.667969 4.667969 L 6.667969 5.332031 L 8.667969 5.332031 L 8.667969 4.667969 Z M 4 5.332031 L 5 5.332031 C 5.183594 5.332031 5.332031 5.484375 5.332031 5.667969 C 5.332031 5.851562 5.183594 6 5 6 L 4 6 Z M 3.332031 8 L 3.332031 9.332031 L 6 9.332031 L 6 8 Z M 7.332031 8 L 7.332031 9.332031 L 8.667969 9.332031 L 8.667969 8 Z M 10 8 L 10 9.332031 L 12.667969 9.332031 L 12.667969 8 Z M 6.667969 10.667969 L 4 11.667969 L 6.667969 12.667969 Z M 9.332031 10.667969 L 9.332031 12.667969 L 12 11.667969 Z M 8 11.332031 C 7.816406 11.332031 7.667969 11.484375 7.667969 11.667969 C 7.667969 11.851562 7.816406 12 8 12 C 8.183594 12 8.332031 11.851562 8.332031 11.667969 C 8.332031 11.484375 8.183594 11.332031 8 11.332031 Z M 8 11.332031 "/>
</g>
</svg>
