<svg xmlns="http://www.w3.org/2000/svg" xmlns:xlink="http://www.w3.org/1999/xlink" width="16" height="16" viewBox="0 0 16 16" version="1.1">
<g id="surface1">
<path style=" stroke:none;fill-rule:nonzero;fill:rgb(67.058825%,40.000001%,100%);fill-opacity:1;" d="M 8 4 L 8 11.332031 L 2.667969 11.332031 L 2.667969 12 L 13.332031 12 L 13.332031 11.332031 L 8.667969 11.332031 L 8.667969 4 Z M 10.667969 5.332031 L 8.667969 10.667969 L 9.332031 10.667969 L 9.847656 9.332031 L 12.152344 9.332031 L 12.667969 10.667969 L 13.332031 10.667969 L 11.332031 5.332031 Z M 11 6.332031 L 11.898438 8.667969 L 10.101562 8.667969 Z M 4.667969 5.332031 L 2.667969 10.667969 L 3.332031 10.667969 L 3.847656 9.332031 L 6.152344 9.332031 L 6.667969 10.667969 L 7.332031 10.667969 L 5.332031 5.332031 Z M 5 6.332031 L 5.898438 8.667969 L 4.101562 8.667969 Z M 5 6.332031 "/>
</g>
</svg>
