<svg xmlns="http://www.w3.org/2000/svg" xmlns:xlink="http://www.w3.org/1999/xlink" width="16" height="16" viewBox="0 0 16 16" version="1.1">
<g id="surface1">
<path style=" stroke:none;fill-rule:nonzero;fill:rgb(96.862745%,0%,100%);fill-opacity:1;" d="M 11.367188 5.339844 L 8.054688 9.972656 L 8.699219 10.144531 L 9.539062 8.988281 L 11.769531 9.585938 L 11.917969 11.007812 L 12.5625 11.179688 L 12.011719 5.511719 Z M 11.429688 6.390625 L 11.695312 8.875 L 9.960938 8.410156 Z M 11.429688 6.390625 "/>
<path style=" stroke:none;fill-rule:nonzero;fill:rgb(96.862745%,0%,100%);fill-opacity:1;" d="M 7.332031 3.332031 L 7.332031 10.667969 L 2.667969 10.667969 L 2.667969 11.332031 L 7.667969 11.332031 L 12.667969 12.667969 L 12.667969 12 L 8 10.667969 L 8 3.332031 Z M 4.667969 4.667969 L 2.667969 10 L 3.332031 10 L 3.847656 8.667969 L 6.152344 8.667969 L 6.667969 10 L 7.332031 10 L 5.332031 4.667969 Z M 5 5.667969 L 5.898438 8 L 4.101562 8 Z M 5 5.667969 "/>
</g>
</svg>
