<svg xmlns="http://www.w3.org/2000/svg" xmlns:xlink="http://www.w3.org/1999/xlink" width="16" height="16" viewBox="0 0 16 16" version="1.1">
<g id="surface1">
<path style=" stroke:none;fill-rule:nonzero;fill:rgb(0%,80.000001%,100%);fill-opacity:1;" d="M 10 7.332031 L 10 8 L 10.667969 8 L 10.667969 7.332031 Z M 11.332031 7.332031 L 11.332031 8 L 12 8 L 12 7.332031 Z M 12.667969 7.332031 L 12.667969 8 L 13.332031 8 L 13.332031 7.332031 Z M 12.667969 8.667969 L 12.667969 9.332031 L 13.332031 9.332031 L 13.332031 8.667969 Z M 7.332031 10 L 7.332031 10.667969 L 8 10.667969 L 8 10 Z M 12.667969 10 L 12.667969 10.667969 L 13.332031 10.667969 L 13.332031 10 Z M 7.332031 11.332031 L 7.332031 12 L 8 12 L 8 11.332031 Z M 12.667969 11.332031 L 12.667969 12 L 13.332031 12 L 13.332031 11.332031 Z M 7.332031 12.667969 L 7.332031 13.332031 L 8 13.332031 L 8 12.667969 Z M 8.667969 12.667969 L 8.667969 13.332031 L 9.332031 13.332031 L 9.332031 12.667969 Z M 10 12.667969 L 10 13.332031 L 10.667969 13.332031 L 10.667969 12.667969 Z M 11.332031 12.667969 L 11.332031 13.332031 L 12 13.332031 L 12 12.667969 Z M 12.667969 12.667969 L 12.667969 13.332031 L 13.332031 13.332031 L 13.332031 12.667969 Z M 8.667969 8.667969 L 8.667969 10 L 9.332031 9.332031 L 10 9.332031 L 10 11.332031 L 9.332031 12 L 11.332031 12 L 10.667969 11.332031 L 10.667969 9.332031 L 11.332031 9.332031 L 12 10 L 12 8.667969 Z M 2.667969 2.667969 L 2.667969 8.667969 L 8.667969 8.667969 L 8.667969 2.667969 Z M 3.332031 3.332031 L 8 3.332031 L 8 8 L 3.332031 8 Z M 4 4 L 4 5.332031 L 4.667969 4.667969 L 5.332031 4.667969 L 5.332031 6.667969 L 4.667969 7.332031 L 6.667969 7.332031 L 6 6.667969 L 6 4.667969 L 6.667969 4.667969 L 7.332031 5.332031 L 7.332031 4 Z M 4 4 "/>
</g>
</svg>
