<svg xmlns="http://www.w3.org/2000/svg" xmlns:xlink="http://www.w3.org/1999/xlink" width="16" height="16" viewBox="0 0 16 16" version="1.1">
<g id="surface1">
<path style=" stroke:none;fill-rule:nonzero;fill:rgb(67.058825%,40.000001%,100%);fill-opacity:1;" d="M 2.667969 8.667969 L 2.667969 9.332031 L 7.332031 9.332031 L 7.332031 13.332031 L 13.332031 13.332031 L 13.332031 12.667969 L 8 12.667969 L 8 8.667969 Z M 10.667969 6 L 8.667969 11.332031 L 9.332031 11.332031 L 9.847656 10 L 12.152344 10 L 12.667969 11.332031 L 13.332031 11.332031 L 11.332031 6 Z M 11 7 L 11.898438 9.332031 L 10.101562 9.332031 Z M 4.667969 2.667969 L 2.667969 8 L 3.332031 8 L 3.847656 6.667969 L 6.152344 6.667969 L 6.667969 8 L 7.332031 8 L 5.332031 2.667969 Z M 5 3.667969 L 5.898438 6 L 4.101562 6 Z M 5 3.667969 "/>
</g>
</svg>
