<svg xmlns="http://www.w3.org/2000/svg" xmlns:xlink="http://www.w3.org/1999/xlink" width="16" height="16" viewBox="0 0 16 16" version="1.1">
<g id="surface1">
<path style=" stroke:none;fill-rule:nonzero;fill:rgb(100%,74.901962%,0%);fill-opacity:1;" d="M 4.683594 3.996094 L 4.683594 6.664062 L 4.015625 6.664062 L 4.015625 5.328125 L 3.347656 5.328125 L 3.347656 6.664062 L 2.683594 6.664062 L 2.683594 7.328125 L 7.257812 7.328125 L 8.015625 6.570312 L 8.015625 5.328125 L 7.347656 5.328125 L 7.347656 6.664062 L 6.683594 6.664062 L 6.683594 5.328125 L 6.015625 5.328125 L 6.015625 6.664062 L 5.347656 6.664062 L 5.347656 3.996094 Z M 8.683594 5.328125 L 8.683594 5.902344 L 9.257812 5.328125 Z M 12.667969 5.332031 L 12.667969 6.664062 L 12.015625 6.664062 L 12.015625 5.398438 L 11.347656 6.066406 L 11.347656 6.664062 L 10.75 6.664062 L 10.085938 7.328125 L 13.347656 7.328125 L 13.347656 6.664062 L 13.332031 6.664062 L 13.332031 5.332031 Z M 5.332031 8 L 3.332031 10 L 3.960938 10.625 L 5.332031 9.253906 Z M 10.667969 8 L 10.667969 12 L 12.667969 10 Z M 10.667969 8 "/>
<path style=" stroke:none;fill-rule:nonzero;fill:rgb(100%,74.901962%,0%);fill-opacity:1;" d="M 12.847656 2.667969 L 2.652344 12.863281 L 3.125 13.332031 L 13.320312 3.136719 Z M 12.847656 2.667969 "/>
<path style=" stroke:none;fill-rule:nonzero;fill:rgb(100%,74.901962%,0%);fill-opacity:1;" d="M 12.667969 8 L 13.332031 8 L 13.332031 12 L 12.667969 12 Z M 2.667969 8 L 2.667969 11.90625 L 3.332031 11.238281 L 3.332031 8 Z M 2.667969 8 "/>
</g>
</svg>
