<svg xmlns="http://www.w3.org/2000/svg" xmlns:xlink="http://www.w3.org/1999/xlink" width="16" height="16" viewBox="0 0 16 16" version="1.1">
<g id="surface1">
<path style=" stroke:none;fill-rule:nonzero;fill:rgb(96.862745%,0%,100%);fill-opacity:1;" d="M 2.667969 8 L 5.332031 8 L 5.332031 10.667969 L 2.667969 10.667969 Z M 2.667969 8 "/>
<path style=" stroke:none;fill-rule:nonzero;fill:rgb(96.862745%,0%,100%);fill-opacity:1;" d="M 12 8 L 12 6.667969 L 9.332031 9.332031 L 12 12 L 12 10.667969 L 13.332031 10.667969 L 13.332031 8 Z M 4.667969 7.332031 L 5.332031 7.332031 L 5.332031 8 L 4.667969 8 Z M 4.667969 7.332031 "/>
<path style=" stroke:none;fill-rule:nonzero;fill:rgb(82.352942%,30.19608%,34.117648%);fill-opacity:1;" d="M 6.472656 7.667969 L 6 8.136719 L 7.195312 9.332031 L 6 10.527344 L 6.472656 11 L 7.667969 9.804688 L 8.863281 11 L 9.332031 10.527344 L 8.136719 9.332031 L 9.332031 8.136719 L 8.863281 7.667969 L 7.667969 8.863281 Z M 6.472656 7.667969 "/>
</g>
</svg>
