<svg xmlns="http://www.w3.org/2000/svg" xmlns:xlink="http://www.w3.org/1999/xlink" width="16" height="16" viewBox="0 0 16 16" version="1.1">
<g id="surface1">
<path style=" stroke:none;fill-rule:nonzero;fill:rgb(96.862745%,0%,100%);fill-opacity:1;" d="M 6.332031 0.453125 C 6.148438 0.453125 5.957031 0.511719 5.8125 0.648438 L 2.601562 3.746094 L 1.050781 3.996094 C 0.90625 4.019531 0.78125 4.097656 0.695312 4.214844 C 0.613281 4.328125 0.578125 4.476562 0.601562 4.621094 L 0.769531 5.671875 C 0.816406 5.96875 1.097656 6.183594 1.390625 6.136719 L 2.605469 5.929688 L 5.648438 9.085938 C 5.917969 9.371094 6.382812 9.382812 6.664062 9.109375 L 10.445312 5.464844 C 10.730469 5.195312 10.742188 4.730469 10.46875 4.449219 L 6.832031 0.671875 C 6.695312 0.53125 6.515625 0.457031 6.332031 0.453125 Z M 0.835938 7.511719 C 0.542969 7.511719 0.324219 7.726562 0.195312 7.972656 C 0.0664062 8.21875 0 8.527344 0 8.863281 C 0 9.203125 0.0664062 9.511719 0.195312 9.753906 C 0.324219 10 0.542969 10.210938 0.835938 10.210938 C 1.125 10.210938 1.335938 10 1.464844 9.753906 C 1.59375 9.511719 1.664062 9.203125 1.664062 8.863281 C 1.664062 8.527344 1.59375 8.21875 1.464844 7.972656 C 1.335938 7.726562 1.125 7.511719 0.835938 7.511719 Z M 0.835938 7.511719 "/>
</g>
</svg>
