<svg xmlns="http://www.w3.org/2000/svg" xmlns:xlink="http://www.w3.org/1999/xlink" width="16" height="16" viewBox="0 0 16 16" version="1.1">
<defs>
<filter id="alpha" filterUnits="objectBoundingBox" x="0%" y="0%" width="100%" height="100%">
  <feColorMatrix type="matrix" in="SourceGraphic" values="0 0 0 0 1 0 0 0 0 1 0 0 0 0 1 0 0 0 1 0"/>
</filter>
<mask id="mask0">
  <g filter="url(#alpha)">
<rect x="0" y="0" width="16" height="16" style="fill:rgb(0%,0%,0%);fill-opacity:0.75;stroke:none;"/>
  </g>
</mask>
<clipPath id="clip1">
  <rect x="0" y="0" width="16" height="16"/>
</clipPath>
<g id="surface5" clip-path="url(#clip1)">
<path style=" stroke:none;fill-rule:nonzero;fill:rgb(100%,74.901962%,0%);fill-opacity:1;" d="M 2.414062 3.859375 L 0.0390625 5.511719 L 0.0234375 5.503906 L 0 7.957031 L 3.4375 10.050781 L 5.820312 8.449219 L 5.84375 5.996094 L 5.757812 6.054688 L 5.851562 5.988281 Z M 2.414062 3.859375 "/>
</g>
<mask id="mask1">
  <g filter="url(#alpha)">
<rect x="0" y="0" width="16" height="16" style="fill:rgb(0%,0%,0%);fill-opacity:0.5;stroke:none;"/>
  </g>
</mask>
<clipPath id="clip2">
  <rect x="0" y="0" width="16" height="16"/>
</clipPath>
<g id="surface8" clip-path="url(#clip2)">
<path style=" stroke:none;fill-rule:nonzero;fill:rgb(100%,74.901962%,0%);fill-opacity:1;" d="M 7.203125 1.117188 L 3.578125 3.675781 L 4.148438 4.042969 L 7.78125 1.476562 Z M 8.195312 1.769531 L 5.03125 4.046875 L 5.601562 4.410156 L 8.777344 2.125 Z M 9.175781 2.398438 L 6.515625 4.3125 L 7.085938 4.679688 L 9.753906 2.757812 Z M 9.175781 2.398438 "/>
</g>
</defs>
<g id="surface1">
<use xlink:href="#surface5" mask="url(#mask0)"/>
<path style=" stroke:none;fill-rule:nonzero;fill:rgb(100%,74.901962%,0%);fill-opacity:1;" d="M 7.214844 0.613281 L 2.40625 3.867188 L 5.84375 5.996094 L 5.820312 8.449219 L 10.648438 5.15625 L 10.667969 2.730469 Z M 7.203125 1.117188 L 7.785156 1.476562 L 4.152344 4.042969 L 3.582031 3.675781 Z M 8.195312 1.769531 L 8.777344 2.125 L 5.601562 4.410156 L 5.03125 4.046875 Z M 9.175781 2.398438 L 9.753906 2.757812 L 7.085938 4.679688 L 6.519531 4.3125 Z M 9.175781 2.398438 "/>
<use xlink:href="#surface8" mask="url(#mask1)"/>
</g>
</svg>
