<svg xmlns="http://www.w3.org/2000/svg" xmlns:xlink="http://www.w3.org/1999/xlink" width="16" height="16" viewBox="0 0 16 16" version="1.1">
<defs>
<filter id="alpha" filterUnits="objectBoundingBox" x="0%" y="0%" width="100%" height="100%">
  <feColorMatrix type="matrix" in="SourceGraphic" values="0 0 0 0 1 0 0 0 0 1 0 0 0 0 1 0 0 0 1 0"/>
</filter>
<mask id="mask0">
  <g filter="url(#alpha)">
<rect x="0" y="0" width="16" height="16" style="fill:rgb(0%,0%,0%);fill-opacity:0.35;stroke:none;"/>
  </g>
</mask>
<clipPath id="clip1">
  <rect x="0" y="0" width="16" height="16"/>
</clipPath>
<g id="surface5" clip-path="url(#clip1)">
<path style=" stroke:none;fill-rule:nonzero;fill:rgb(0%,80.000001%,100%);fill-opacity:1;" d="M 1.164062 2.152344 C 0.808594 2.152344 0.523438 2.519531 0.523438 2.976562 L 0.523438 9.484375 C 0.523438 9.945312 0.808594 10.3125 1.164062 10.3125 L 7.890625 10.3125 C 8.25 10.3125 8.535156 9.945312 8.535156 9.484375 L 8.535156 5.453125 L 6.976562 6.515625 L 5.160156 7.734375 L 2.542969 6.140625 L 2.5625 4.269531 L 2.570312 4.277344 L 4.382812 3.019531 L 5.667969 2.152344 Z M 6.992188 4.644531 L 6.929688 4.691406 L 6.992188 4.648438 Z M 6.992188 4.644531 "/>
</g>
<mask id="mask1">
  <g filter="url(#alpha)">
<rect x="0" y="0" width="16" height="16" style="fill:rgb(0%,0%,0%);fill-opacity:0.75;stroke:none;"/>
  </g>
</mask>
<clipPath id="clip2">
  <rect x="0" y="0" width="16" height="16"/>
</clipPath>
<g id="surface8" clip-path="url(#clip2)">
<path style=" stroke:none;fill-rule:nonzero;fill:rgb(0%,80.000001%,100%);fill-opacity:1;" d="M 4.382812 3.019531 L 2.570312 4.277344 L 2.5625 4.269531 L 2.542969 6.140625 L 5.160156 7.734375 L 6.976562 6.515625 L 6.992188 4.648438 L 6.929688 4.691406 L 7 4.640625 Z M 4.382812 3.019531 "/>
</g>
<mask id="mask2">
  <g filter="url(#alpha)">
<rect x="0" y="0" width="16" height="16" style="fill:rgb(0%,0%,0%);fill-opacity:0.5;stroke:none;"/>
  </g>
</mask>
<clipPath id="clip3">
  <rect x="0" y="0" width="16" height="16"/>
</clipPath>
<g id="surface11" clip-path="url(#clip3)">
<path style=" stroke:none;fill-rule:nonzero;fill:rgb(0%,80.000001%,100%);fill-opacity:1;" d="M 8.03125 0.933594 L 5.269531 2.878906 L 5.703125 3.160156 L 8.46875 1.203125 Z M 8.785156 1.425781 L 6.375 3.160156 L 6.808594 3.441406 L 9.226562 1.699219 Z M 9.53125 1.90625 L 7.507812 3.363281 L 7.941406 3.644531 L 9.972656 2.179688 Z M 9.53125 1.90625 "/>
</g>
</defs>
<g id="surface1">
<use xlink:href="#surface5" mask="url(#mask0)"/>
<path style=" stroke:none;fill-rule:nonzero;fill:rgb(0%,80.000001%,100%);fill-opacity:1;" d="M 2.628906 1.785156 C 2.425781 1.785156 2.265625 1.960938 2.265625 2.183594 C 2.265625 2.402344 2.425781 2.582031 2.628906 2.582031 L 4.164062 2.585938 C 4.296875 2.59375 4.421875 2.519531 4.492188 2.394531 C 4.558594 2.265625 4.558594 2.109375 4.488281 1.984375 C 4.421875 1.859375 4.296875 1.785156 4.164062 1.792969 Z M 0.40625 1.789062 C 0.300781 1.789062 0.195312 1.828125 0.121094 1.902344 C 0.0429688 1.976562 0 2.082031 0 2.1875 L 0 3.453125 C 0 3.675781 0.179688 3.851562 0.398438 3.851562 C 0.617188 3.851562 0.796875 3.675781 0.796875 3.453125 L 0.796875 2.59375 L 1.097656 2.597656 C 1.246094 2.605469 1.382812 2.535156 1.460938 2.410156 C 1.539062 2.289062 1.542969 2.132812 1.472656 2.003906 C 1.398438 1.878906 1.261719 1.800781 1.117188 1.804688 Z M 5.933594 1.789062 C 5.714844 1.789062 5.535156 1.964844 5.53125 2.183594 C 5.53125 2.203125 5.535156 2.222656 5.539062 2.238281 L 6.195312 1.792969 Z M 0.410156 4.390625 C 0.300781 4.390625 0.199219 4.429688 0.128906 4.5 C 0.0546875 4.566406 0.0117188 4.660156 0.0117188 4.753906 L 0.0117188 6.273438 C 0.0117188 6.472656 0.191406 6.632812 0.414062 6.632812 C 0.632812 6.632812 0.8125 6.472656 0.8125 6.273438 L 0.8125 4.753906 C 0.8125 4.65625 0.769531 4.5625 0.695312 4.496094 C 0.621094 4.425781 0.515625 4.390625 0.410156 4.390625 Z M 8.59375 5.410156 L 8.0625 5.777344 L 8.0625 7.335938 C 8.0625 7.539062 8.238281 7.707031 8.460938 7.707031 C 8.679688 7.707031 8.859375 7.539062 8.859375 7.335938 L 8.859375 5.761719 C 8.859375 5.664062 8.820312 5.566406 8.742188 5.496094 C 8.699219 5.457031 8.648438 5.429688 8.59375 5.410156 Z M 0.410156 7.484375 C 0.300781 7.484375 0.199219 7.523438 0.128906 7.59375 C 0.0546875 7.664062 0.0117188 7.761719 0.0117188 7.859375 L 0.0117188 9.429688 C 0.0117188 9.636719 0.191406 9.800781 0.414062 9.800781 C 0.632812 9.800781 0.8125 9.636719 0.8125 9.429688 L 0.8125 7.859375 C 0.8125 7.757812 0.769531 7.664062 0.695312 7.589844 C 0.621094 7.519531 0.515625 7.480469 0.410156 7.484375 Z M 8.480469 8.585938 C 8.375 8.585938 8.273438 8.628906 8.199219 8.707031 C 8.125 8.78125 8.082031 8.882812 8.085938 8.988281 L 8.085938 9.867188 L 7.773438 9.867188 C 7.554688 9.867188 7.375 10.046875 7.375 10.265625 C 7.375 10.488281 7.554688 10.667969 7.773438 10.667969 L 8.484375 10.667969 C 8.589844 10.667969 8.691406 10.625 8.765625 10.550781 C 8.84375 10.476562 8.882812 10.375 8.882812 10.265625 L 8.882812 8.988281 C 8.886719 8.882812 8.84375 8.777344 8.765625 8.703125 C 8.691406 8.625 8.585938 8.585938 8.480469 8.585938 Z M 1.582031 9.855469 C 1.382812 9.855469 1.21875 10.03125 1.21875 10.253906 C 1.21875 10.472656 1.382812 10.652344 1.582031 10.652344 L 3.117188 10.65625 C 3.25 10.664062 3.375 10.589844 3.445312 10.464844 C 3.511719 10.339844 3.515625 10.179688 3.445312 10.054688 C 3.375 9.929688 3.25 9.855469 3.117188 9.863281 Z M 4.71875 9.855469 C 4.515625 9.855469 4.355469 10.03125 4.355469 10.253906 C 4.355469 10.472656 4.515625 10.652344 4.71875 10.652344 L 6.253906 10.65625 C 6.386719 10.664062 6.511719 10.589844 6.582031 10.464844 C 6.648438 10.339844 6.648438 10.179688 6.582031 10.054688 C 6.511719 9.929688 6.386719 9.855469 6.253906 9.863281 Z M 4.71875 9.855469 "/>
<use xlink:href="#surface8" mask="url(#mask1)"/>
<path style=" stroke:none;fill-rule:nonzero;fill:rgb(0%,80.000001%,100%);fill-opacity:1;" d="M 8.039062 0.546875 L 4.375 3.027344 L 6.992188 4.648438 L 6.976562 6.515625 L 10.652344 4.007812 L 10.667969 2.160156 Z M 8.03125 0.933594 L 8.46875 1.203125 L 5.703125 3.160156 L 5.269531 2.878906 Z M 8.785156 1.425781 L 9.226562 1.699219 L 6.808594 3.441406 L 6.375 3.160156 Z M 9.53125 1.90625 L 9.972656 2.179688 L 7.941406 3.644531 L 7.507812 3.363281 Z M 9.53125 1.90625 "/>
<use xlink:href="#surface11" mask="url(#mask2)"/>
</g>
</svg>
