<svg xmlns="http://www.w3.org/2000/svg" xmlns:xlink="http://www.w3.org/1999/xlink" width="16" height="16" viewBox="0 0 16 16" version="1.1">
<defs>
<filter id="alpha" filterUnits="objectBoundingBox" x="0%" y="0%" width="100%" height="100%">
  <feColorMatrix type="matrix" in="SourceGraphic" values="0 0 0 0 1 0 0 0 0 1 0 0 0 0 1 0 0 0 1 0"/>
</filter>
<mask id="mask0">
  <g filter="url(#alpha)">
<rect x="0" y="0" width="16" height="16" style="fill:rgb(0%,0%,0%);fill-opacity:0.75;stroke:none;"/>
  </g>
</mask>
<clipPath id="clip1">
  <rect x="0" y="0" width="16" height="16"/>
</clipPath>
<g id="surface5" clip-path="url(#clip1)">
<path style=" stroke:none;fill-rule:nonzero;fill:rgb(100%,30.980393%,30.980393%);fill-opacity:1;" d="M 4.714844 0.171875 C 4.414062 0.378906 4.25 0.703125 4.355469 0.886719 L 4.8125 1.683594 C 4.539062 1.957031 4.308594 2.246094 4.164062 2.539062 C 4.046875 2.769531 3.96875 3 3.949219 3.210938 C 3.933594 3.421875 3.964844 3.613281 4.058594 3.777344 C 4.425781 4.4375 6.28125 7.75 6.648438 8.410156 C 7.019531 9.070312 8.191406 8.996094 9.269531 8.25 C 10.347656 7.503906 10.925781 6.363281 10.554688 5.703125 C 10.1875 5.042969 8.332031 1.730469 7.964844 1.070312 C 7.871094 0.90625 7.734375 0.789062 7.554688 0.714844 C 7.378906 0.640625 7.15625 0.613281 6.917969 0.628906 C 6.683594 0.640625 6.421875 0.691406 6.152344 0.792969 C 6.070312 0.824219 5.984375 0.890625 5.898438 0.929688 C 5.757812 0.679688 5.535156 0.277344 5.449219 0.125 C 5.347656 -0.0585938 5.015625 -0.0390625 4.714844 0.171875 Z M 4.714844 0.171875 "/>
</g>
<mask id="mask1">
  <g filter="url(#alpha)">
<rect x="0" y="0" width="16" height="16" style="fill:rgb(0%,0%,0%);fill-opacity:0.35;stroke:none;"/>
  </g>
</mask>
<clipPath id="clip2">
  <rect x="0" y="0" width="16" height="16"/>
</clipPath>
<g id="surface8" clip-path="url(#clip2)">
<path style=" stroke:none;fill-rule:nonzero;fill:rgb(100%,30.980393%,30.980393%);fill-opacity:1;" d="M 4.636719 1.410156 L 0.0078125 8.046875 C -0.195312 11.515625 4.554688 10.722656 4.570312 10.199219 Z M 4.636719 1.410156 "/>
</g>
</defs>
<g id="surface1">
<path style=" stroke:none;fill-rule:nonzero;fill:rgb(100%,30.980393%,30.980393%);fill-opacity:1;" d="M 3.683594 7.144531 C 3.496094 7.144531 3.367188 7.242188 3.390625 7.355469 C 3.410156 7.472656 3.582031 7.570312 3.769531 7.570312 C 3.957031 7.570312 4.09375 7.472656 4.074219 7.355469 C 4.0625 7.300781 4.015625 7.246094 3.945312 7.207031 C 3.875 7.164062 3.785156 7.144531 3.691406 7.144531 C 3.6875 7.144531 3.6875 7.144531 3.683594 7.144531 Z M 0.960938 7.148438 C 0.746094 7.15625 0.597656 7.277344 0.621094 7.421875 C 0.632812 7.492188 0.691406 7.5625 0.777344 7.613281 C 0.867188 7.667969 0.976562 7.695312 1.089844 7.695312 C 1.199219 7.695312 1.300781 7.667969 1.371094 7.613281 C 1.441406 7.5625 1.472656 7.492188 1.460938 7.421875 C 1.433594 7.269531 1.222656 7.148438 0.992188 7.148438 C 0.980469 7.148438 0.972656 7.148438 0.960938 7.148438 Z M 2.324219 7.148438 C 2.125 7.15625 1.980469 7.257812 1.980469 7.390625 C 1.980469 7.398438 1.984375 7.410156 1.984375 7.421875 C 2.007812 7.558594 2.1875 7.675781 2.402344 7.691406 C 2.417969 7.695312 2.433594 7.695312 2.449219 7.695312 C 2.5625 7.695312 2.664062 7.667969 2.734375 7.613281 C 2.804688 7.5625 2.835938 7.492188 2.820312 7.421875 C 2.792969 7.269531 2.585938 7.148438 2.355469 7.148438 C 2.34375 7.148438 2.335938 7.148438 2.324219 7.148438 Z M 3.148438 7.660156 C 3.058594 7.660156 2.980469 7.699219 2.949219 7.761719 C 2.867188 7.804688 2.828125 7.875 2.84375 7.945312 C 2.851562 7.984375 2.871094 8.019531 2.90625 8.054688 C 2.800781 8.066406 2.726562 8.121094 2.722656 8.1875 C 2.722656 8.195312 2.722656 8.207031 2.722656 8.214844 C 2.738281 8.304688 2.863281 8.375 3 8.375 C 3.136719 8.375 3.234375 8.304688 3.21875 8.214844 C 3.214844 8.203125 3.210938 8.191406 3.203125 8.179688 C 3.226562 8.179688 3.246094 8.179688 3.265625 8.179688 C 3.472656 8.179688 3.625 8.074219 3.601562 7.945312 C 3.585938 7.855469 3.492188 7.773438 3.359375 7.734375 C 3.304688 7.6875 3.226562 7.660156 3.148438 7.660156 Z M 1.160156 7.75 C 1.007812 7.75 0.894531 7.839844 0.898438 7.957031 C 0.898438 7.96875 0.898438 7.976562 0.898438 7.988281 C 0.90625 8.027344 0.925781 8.0625 0.953125 8.097656 C 0.917969 8.128906 0.902344 8.171875 0.910156 8.214844 C 0.917969 8.257812 0.945312 8.300781 0.996094 8.332031 C 1.007812 8.339844 1.015625 8.34375 1.027344 8.347656 C 1.082031 8.378906 1.148438 8.394531 1.214844 8.394531 C 1.230469 8.394531 1.242188 8.390625 1.253906 8.390625 C 1.269531 8.390625 1.28125 8.386719 1.292969 8.386719 C 1.304688 8.382812 1.316406 8.378906 1.328125 8.375 C 1.335938 8.371094 1.347656 8.367188 1.359375 8.363281 C 1.378906 8.355469 1.398438 8.34375 1.410156 8.332031 C 1.433594 8.3125 1.449219 8.289062 1.457031 8.265625 C 1.457031 8.257812 1.460938 8.246094 1.460938 8.238281 C 1.460938 8.230469 1.457031 8.222656 1.457031 8.214844 C 1.453125 8.195312 1.449219 8.179688 1.4375 8.160156 C 1.4375 8.160156 1.4375 8.160156 1.441406 8.160156 C 1.445312 8.167969 1.449219 8.175781 1.457031 8.183594 C 1.460938 8.195312 1.46875 8.203125 1.476562 8.214844 C 1.527344 8.273438 1.605469 8.320312 1.699219 8.347656 C 1.640625 8.355469 1.589844 8.378906 1.550781 8.414062 C 1.542969 8.421875 1.535156 8.429688 1.53125 8.4375 C 1.511719 8.460938 1.496094 8.488281 1.492188 8.519531 C 1.492188 8.523438 1.492188 8.527344 1.492188 8.53125 C 1.488281 8.527344 1.480469 8.527344 1.476562 8.523438 C 1.398438 8.496094 1.3125 8.480469 1.226562 8.480469 C 1.164062 8.480469 1.105469 8.488281 1.050781 8.503906 C 1.046875 8.496094 1.042969 8.492188 1.039062 8.484375 C 0.980469 8.414062 0.878906 8.367188 0.777344 8.367188 C 0.628906 8.367188 0.523438 8.464844 0.542969 8.582031 C 0.546875 8.601562 0.554688 8.621094 0.566406 8.640625 C 0.566406 8.644531 0.566406 8.652344 0.566406 8.660156 C 0.582031 8.746094 0.695312 8.816406 0.824219 8.820312 C 0.84375 8.871094 0.878906 8.921875 0.933594 8.960938 C 0.902344 8.988281 0.886719 9.027344 0.894531 9.066406 C 0.902344 9.109375 0.929688 9.148438 0.976562 9.175781 C 0.988281 9.179688 0.996094 9.183594 1.003906 9.1875 C 1.023438 9.195312 1.042969 9.203125 1.066406 9.203125 C 1.070312 9.207031 1.078125 9.207031 1.082031 9.207031 C 1.105469 9.277344 1.167969 9.34375 1.246094 9.386719 C 1.238281 9.410156 1.238281 9.433594 1.242188 9.457031 C 1.242188 9.457031 1.242188 9.460938 1.242188 9.460938 C 1.246094 9.480469 1.253906 9.496094 1.261719 9.511719 C 1.269531 9.523438 1.273438 9.53125 1.28125 9.539062 C 1.328125 9.59375 1.410156 9.628906 1.488281 9.628906 C 1.492188 9.628906 1.496094 9.628906 1.496094 9.628906 C 1.515625 9.628906 1.535156 9.625 1.550781 9.621094 C 1.570312 9.648438 1.59375 9.675781 1.628906 9.695312 C 1.625 9.710938 1.625 9.722656 1.625 9.738281 C 1.617188 9.75 1.613281 9.765625 1.609375 9.777344 C 1.558594 9.761719 1.503906 9.753906 1.453125 9.753906 C 1.429688 9.753906 1.40625 9.757812 1.382812 9.761719 C 1.371094 9.746094 1.359375 9.734375 1.34375 9.722656 C 1.328125 9.683594 1.304688 9.648438 1.269531 9.617188 C 1.277344 9.597656 1.277344 9.574219 1.277344 9.554688 C 1.273438 9.550781 1.273438 9.542969 1.273438 9.539062 C 1.257812 9.492188 1.222656 9.449219 1.167969 9.417969 C 1.105469 9.269531 0.894531 9.160156 0.664062 9.160156 C 0.539062 9.160156 0.425781 9.191406 0.351562 9.25 C 0.273438 9.304688 0.238281 9.382812 0.25 9.464844 C 0.277344 9.613281 0.460938 9.738281 0.6875 9.765625 C 0.714844 9.910156 0.882812 10.03125 1.066406 10.03125 C 1.074219 10.03125 1.085938 10.03125 1.09375 10.03125 C 1.101562 10.027344 1.113281 10.027344 1.125 10.027344 C 1.136719 10.0625 1.160156 10.101562 1.199219 10.132812 C 1.199219 10.148438 1.199219 10.164062 1.203125 10.175781 C 1.234375 10.359375 1.445312 10.503906 1.671875 10.503906 C 1.6875 10.503906 1.703125 10.503906 1.71875 10.503906 C 1.921875 10.484375 2.058594 10.34375 2.027344 10.175781 C 2.019531 10.132812 2 10.09375 1.972656 10.054688 C 1.980469 10.054688 1.988281 10.054688 1.996094 10.054688 C 2.015625 10.148438 2.113281 10.226562 2.234375 10.242188 C 2.21875 10.277344 2.214844 10.316406 2.222656 10.359375 C 2.234375 10.4375 2.289062 10.511719 2.367188 10.566406 C 2.445312 10.621094 2.546875 10.652344 2.644531 10.652344 C 2.648438 10.652344 2.652344 10.652344 2.65625 10.652344 C 2.671875 10.652344 2.6875 10.652344 2.703125 10.648438 C 2.820312 10.632812 2.914062 10.574219 2.953125 10.484375 C 3.230469 10.480469 3.429688 10.332031 3.394531 10.148438 C 3.382812 10.066406 3.324219 9.988281 3.230469 9.925781 C 3.273438 9.882812 3.292969 9.824219 3.28125 9.765625 C 3.277344 9.75 3.273438 9.734375 3.269531 9.71875 C 3.285156 9.722656 3.304688 9.722656 3.320312 9.722656 C 3.445312 9.722656 3.53125 9.660156 3.519531 9.585938 C 3.503906 9.507812 3.394531 9.445312 3.269531 9.445312 C 3.167969 9.445312 3.085938 9.488281 3.070312 9.550781 C 3.058594 9.546875 3.042969 9.542969 3.027344 9.539062 C 3.011719 9.492188 2.96875 9.449219 2.910156 9.417969 C 2.875 9.355469 2.800781 9.316406 2.71875 9.316406 C 2.710938 9.316406 2.703125 9.316406 2.691406 9.316406 C 2.695312 9.3125 2.699219 9.304688 2.703125 9.300781 C 2.722656 9.261719 2.730469 9.21875 2.722656 9.171875 C 2.714844 9.144531 2.707031 9.117188 2.6875 9.089844 C 2.691406 9.089844 2.691406 9.089844 2.695312 9.089844 C 2.859375 9.089844 3.003906 9.03125 3.070312 8.9375 C 3.09375 8.945312 3.117188 8.949219 3.144531 8.949219 C 3.117188 8.96875 3.097656 8.988281 3.082031 9.011719 C 3.078125 9.019531 3.070312 9.027344 3.066406 9.035156 C 3.058594 9.054688 3.054688 9.074219 3.054688 9.09375 C 3.054688 9.101562 3.058594 9.113281 3.058594 9.121094 C 3.070312 9.1875 3.128906 9.253906 3.21875 9.296875 C 3.230469 9.304688 3.242188 9.308594 3.257812 9.316406 C 3.324219 9.34375 3.402344 9.359375 3.480469 9.359375 C 3.582031 9.359375 3.675781 9.332031 3.738281 9.289062 C 3.800781 9.246094 3.828125 9.183594 3.816406 9.121094 C 3.804688 9.042969 3.726562 8.96875 3.613281 8.925781 C 3.617188 8.90625 3.621094 8.890625 3.617188 8.871094 C 3.597656 8.769531 3.472656 8.683594 3.335938 8.683594 C 3.308594 8.683594 3.28125 8.6875 3.253906 8.695312 C 3.214844 8.683594 3.171875 8.671875 3.128906 8.671875 C 3.117188 8.671875 3.105469 8.671875 3.09375 8.675781 C 3.085938 8.675781 3.074219 8.675781 3.066406 8.679688 C 3.078125 8.648438 3.082031 8.613281 3.074219 8.582031 C 3.050781 8.449219 2.898438 8.34375 2.730469 8.34375 C 2.667969 8.34375 2.605469 8.359375 2.558594 8.390625 C 2.546875 8.398438 2.539062 8.40625 2.53125 8.414062 C 2.507812 8.433594 2.488281 8.460938 2.480469 8.488281 C 2.347656 8.511719 2.242188 8.570312 2.195312 8.65625 C 2.191406 8.664062 2.1875 8.675781 2.183594 8.6875 C 2.171875 8.71875 2.171875 8.75 2.175781 8.785156 C 2.175781 8.789062 2.175781 8.792969 2.179688 8.796875 C 2.1875 8.835938 2.210938 8.875 2.242188 8.910156 C 2.242188 8.910156 2.238281 8.910156 2.238281 8.910156 C 2.226562 8.910156 2.210938 8.90625 2.199219 8.90625 C 2.1875 8.90625 2.179688 8.910156 2.171875 8.910156 C 2.160156 8.910156 2.144531 8.910156 2.132812 8.914062 C 2.011719 8.929688 1.929688 9 1.925781 9.082031 C 1.925781 9.089844 1.925781 9.097656 1.925781 9.109375 C 1.929688 9.117188 1.929688 9.125 1.933594 9.132812 C 1.925781 9.132812 1.914062 9.136719 1.902344 9.136719 C 1.910156 9.113281 1.914062 9.089844 1.910156 9.066406 C 1.910156 9.0625 1.90625 9.054688 1.90625 9.050781 C 1.886719 8.980469 1.808594 8.925781 1.722656 8.914062 C 1.734375 8.890625 1.742188 8.863281 1.746094 8.839844 C 1.789062 8.839844 1.832031 8.832031 1.867188 8.816406 C 1.875 8.816406 1.886719 8.816406 1.894531 8.8125 C 1.925781 8.828125 1.960938 8.835938 1.992188 8.835938 C 2.046875 8.835938 2.09375 8.820312 2.125 8.789062 C 2.15625 8.757812 2.171875 8.71875 2.164062 8.679688 C 2.15625 8.640625 2.132812 8.601562 2.09375 8.570312 C 2.078125 8.511719 2.039062 8.457031 1.976562 8.414062 C 1.96875 8.40625 1.957031 8.398438 1.945312 8.394531 C 1.933594 8.386719 1.921875 8.378906 1.910156 8.375 C 1.929688 8.375 1.949219 8.371094 1.96875 8.371094 C 1.96875 8.371094 1.972656 8.371094 1.972656 8.371094 C 1.976562 8.371094 1.984375 8.375 1.992188 8.378906 C 2.003906 8.382812 2.015625 8.382812 2.03125 8.386719 C 2.042969 8.386719 2.054688 8.390625 2.070312 8.390625 C 2.082031 8.394531 2.09375 8.394531 2.109375 8.394531 C 2.121094 8.394531 2.136719 8.390625 2.148438 8.390625 C 2.160156 8.390625 2.171875 8.386719 2.183594 8.386719 C 2.195312 8.382812 2.207031 8.378906 2.21875 8.375 C 2.230469 8.371094 2.242188 8.367188 2.253906 8.363281 C 2.273438 8.355469 2.289062 8.34375 2.304688 8.332031 C 2.328125 8.3125 2.34375 8.289062 2.347656 8.265625 C 2.351562 8.257812 2.351562 8.246094 2.351562 8.238281 C 2.351562 8.230469 2.351562 8.222656 2.351562 8.214844 C 2.351562 8.214844 2.351562 8.210938 2.351562 8.210938 C 2.347656 8.210938 2.347656 8.207031 2.347656 8.203125 C 2.445312 8.164062 2.496094 8.082031 2.480469 7.988281 C 2.457031 7.855469 2.304688 7.75 2.140625 7.75 C 2.125 7.75 2.113281 7.75 2.101562 7.753906 C 2.089844 7.753906 2.074219 7.757812 2.0625 7.757812 C 2.050781 7.761719 2.039062 7.765625 2.027344 7.769531 C 2.015625 7.773438 2.003906 7.777344 1.996094 7.78125 C 1.972656 7.792969 1.953125 7.804688 1.9375 7.820312 C 1.933594 7.828125 1.925781 7.832031 1.917969 7.839844 C 1.878906 7.832031 1.835938 7.828125 1.792969 7.828125 C 1.71875 7.828125 1.644531 7.839844 1.585938 7.867188 C 1.574219 7.871094 1.5625 7.878906 1.550781 7.882812 C 1.523438 7.898438 1.5 7.914062 1.484375 7.929688 C 1.429688 7.824219 1.296875 7.75 1.160156 7.75 Z M 0.4375 7.855469 C 0.226562 7.855469 0.078125 7.964844 0.101562 8.101562 C 0.113281 8.167969 0.164062 8.230469 0.242188 8.277344 C 0.320312 8.324219 0.421875 8.347656 0.523438 8.347656 C 0.621094 8.347656 0.714844 8.324219 0.777344 8.277344 C 0.839844 8.230469 0.867188 8.167969 0.855469 8.101562 C 0.832031 7.964844 0.644531 7.855469 0.4375 7.855469 Z M 3.898438 8.320312 C 3.714844 8.324219 3.585938 8.417969 3.605469 8.53125 C 3.609375 8.5625 3.625 8.589844 3.648438 8.617188 C 3.65625 8.628906 3.664062 8.636719 3.675781 8.644531 C 3.746094 8.707031 3.867188 8.746094 3.984375 8.746094 C 4.078125 8.746094 4.160156 8.722656 4.21875 8.683594 C 4.273438 8.644531 4.300781 8.589844 4.289062 8.53125 C 4.265625 8.414062 4.097656 8.320312 3.90625 8.320312 C 3.90625 8.320312 3.902344 8.320312 3.898438 8.320312 Z M 4.113281 9.496094 C 4.054688 9.496094 4 9.507812 3.953125 9.527344 C 3.941406 9.53125 3.929688 9.539062 3.917969 9.542969 C 3.855469 9.578125 3.820312 9.628906 3.820312 9.683594 C 3.820312 9.691406 3.820312 9.699219 3.820312 9.710938 C 3.84375 9.828125 4.015625 9.921875 4.203125 9.921875 C 4.390625 9.921875 4.523438 9.828125 4.503906 9.710938 C 4.492188 9.652344 4.449219 9.597656 4.375 9.558594 C 4.304688 9.519531 4.214844 9.496094 4.125 9.496094 C 4.121094 9.496094 4.117188 9.496094 4.113281 9.496094 Z M 2.542969 9.652344 C 2.578125 9.683594 2.625 9.707031 2.679688 9.71875 C 2.675781 9.734375 2.675781 9.75 2.679688 9.765625 C 2.683594 9.785156 2.6875 9.800781 2.699219 9.820312 C 2.691406 9.820312 2.6875 9.820312 2.683594 9.820312 C 2.679688 9.816406 2.675781 9.808594 2.675781 9.800781 C 2.644531 9.746094 2.578125 9.703125 2.503906 9.691406 C 2.519531 9.679688 2.53125 9.664062 2.542969 9.652344 Z M 3.523438 9.707031 C 3.460938 9.707031 3.402344 9.726562 3.359375 9.761719 C 3.320312 9.796875 3.304688 9.84375 3.3125 9.890625 C 3.3125 9.898438 3.316406 9.90625 3.316406 9.910156 C 3.347656 10.003906 3.46875 10.078125 3.59375 10.078125 C 3.726562 10.078125 3.820312 9.992188 3.804688 9.890625 C 3.785156 9.789062 3.660156 9.707031 3.523438 9.707031 Z M 3.523438 9.707031 "/>
<use xlink:href="#surface5" mask="url(#mask0)"/>
<path style=" stroke:none;fill-rule:nonzero;fill:rgb(100%,30.980393%,30.980393%);fill-opacity:1;" d="M 7.96875 1.074219 C 8.335938 1.734375 7.761719 2.875 6.683594 3.621094 C 5.605469 4.367188 4.433594 4.441406 4.0625 3.78125 C 3.695312 3.121094 4.269531 1.980469 5.347656 1.230469 C 6.425781 0.484375 7.597656 0.414062 7.96875 1.074219 Z M 7.96875 1.074219 "/>
<path style=" stroke:none;fill-rule:nonzero;fill:rgb(100%,30.980393%,30.980393%);fill-opacity:1;" d="M 5.433594 6.210938 C 5.78125 6.882812 5.5625 6.433594 5.914062 7.105469 C 6.261719 7.777344 7.441406 7.746094 8.542969 7.03125 C 9.644531 6.320312 10.257812 5.234375 9.910156 4.5625 C 9.5625 3.898438 9.800781 4.367188 9.433594 3.660156 C 9.75 4.335938 9.140625 5.425781 8.058594 6.128906 C 6.957031 6.84375 5.78125 6.882812 5.433594 6.210938 Z M 5.433594 6.210938 "/>
<path style=" stroke:none;fill-rule:nonzero;fill:rgb(100%,30.980393%,30.980393%);fill-opacity:1;" d="M 6 1.101562 C 5.894531 0.914062 5.558594 0.3125 5.453125 0.128906 C 5.351562 -0.0585938 5.023438 -0.0390625 4.722656 0.171875 C 4.417969 0.382812 4.257812 0.699219 4.363281 0.886719 C 4.464844 1.070312 4.800781 1.671875 4.90625 1.859375 C 5.007812 2.042969 5.335938 2.023438 5.640625 1.8125 C 5.941406 1.605469 6.101562 1.285156 6 1.101562 Z M 6 1.101562 "/>
<use xlink:href="#surface8" mask="url(#mask1)"/>
</g>
</svg>
