<svg xmlns="http://www.w3.org/2000/svg" xmlns:xlink="http://www.w3.org/1999/xlink" width="16" height="16" viewBox="0 0 16 16" version="1.1">
<g id="surface1">
<path style=" stroke:none;fill-rule:nonzero;fill:rgb(0%,100%,66.666669%);fill-opacity:1;" d="M 4.484375 1.070312 C 4.417969 1.0625 4.347656 1.070312 4.273438 1.085938 C 3.722656 1.1875 3.214844 1.351562 2.703125 1.613281 C 2.515625 1.699219 2.398438 1.890625 2.472656 2.078125 C 2.550781 2.269531 2.777344 2.363281 2.980469 2.292969 C 3.503906 2.070312 4.039062 1.890625 4.546875 1.761719 C 4.6875 1.722656 4.789062 1.617188 4.816406 1.484375 C 4.839844 1.355469 4.785156 1.21875 4.671875 1.136719 C 4.617188 1.09375 4.554688 1.074219 4.484375 1.070312 Z M 6.304688 1.070312 C 6.238281 1.074219 6.175781 1.09375 6.117188 1.136719 C 6.003906 1.21875 5.949219 1.355469 5.976562 1.484375 C 6 1.617188 6.105469 1.722656 6.242188 1.761719 C 6.75 1.890625 7.285156 2.070312 7.808594 2.292969 C 8.011719 2.363281 8.238281 2.269531 8.316406 2.078125 C 8.394531 1.890625 8.273438 1.699219 8.085938 1.613281 C 7.578125 1.351562 7.066406 1.1875 6.519531 1.085938 C 6.445312 1.070312 6.371094 1.0625 6.304688 1.070312 Z M 9.699219 2.527344 C 9.652344 2.523438 9.597656 2.53125 9.546875 2.546875 C 9.34375 2.617188 9.238281 2.824219 9.3125 3.011719 C 9.558594 3.488281 9.75 3.980469 9.890625 4.445312 C 9.9375 4.574219 10.054688 4.667969 10.195312 4.691406 C 10.339844 4.714844 10.484375 4.664062 10.578125 4.5625 C 10.667969 4.457031 10.664062 4.328125 10.632812 4.195312 C 10.519531 3.691406 10.339844 3.222656 10.058594 2.757812 C 9.984375 2.628906 9.851562 2.535156 9.699219 2.527344 Z M 1.050781 2.863281 C 0.90625 2.875 0.808594 2.96875 0.726562 3.085938 C 0.417969 3.515625 0.183594 3.960938 0.0234375 4.472656 C -0.0429688 4.660156 0.0234375 4.871094 0.222656 4.953125 C 0.421875 5.035156 0.65625 4.957031 0.746094 4.777344 C 0.941406 4.277344 1.183594 3.808594 1.445312 3.386719 C 1.511719 3.269531 1.5 3.125 1.417969 3.015625 C 1.335938 2.90625 1.195312 2.847656 1.050781 2.863281 Z M 10.289062 5.679688 C 10.136719 5.675781 9.988281 5.753906 9.917969 5.890625 C 9.722656 6.386719 9.480469 6.859375 9.222656 7.28125 C 9.152344 7.398438 9.164062 7.539062 9.246094 7.648438 C 9.328125 7.757812 9.472656 7.820312 9.617188 7.804688 C 9.761719 7.789062 9.859375 7.699219 9.941406 7.582031 C 10.25 7.152344 10.480469 6.707031 10.640625 6.191406 C 10.707031 6.007812 10.644531 5.796875 10.445312 5.714844 C 10.394531 5.691406 10.339844 5.683594 10.289062 5.679688 Z M 0.46875 5.976562 C 0.328125 5.953125 0.179688 6 0.0898438 6.105469 C 0 6.210938 0 6.335938 0.0351562 6.472656 C 0.144531 6.976562 0.324219 7.441406 0.609375 7.910156 C 0.703125 8.082031 0.914062 8.191406 1.117188 8.121094 C 1.324219 8.050781 1.429688 7.84375 1.355469 7.65625 C 1.109375 7.175781 0.914062 6.6875 0.773438 6.21875 C 0.730469 6.09375 0.613281 6 0.46875 5.976562 Z M 2.703125 8.351562 C 2.550781 8.355469 2.40625 8.445312 2.351562 8.585938 C 2.273438 8.777344 2.390625 8.964844 2.582031 9.054688 C 3.089844 9.316406 3.597656 9.476562 4.148438 9.582031 C 4.296875 9.609375 4.4375 9.613281 4.550781 9.53125 C 4.664062 9.445312 4.71875 9.3125 4.691406 9.179688 C 4.664062 9.050781 4.5625 8.945312 4.425781 8.902344 C 3.914062 8.773438 3.378906 8.597656 2.859375 8.371094 C 2.808594 8.355469 2.753906 8.347656 2.703125 8.351562 Z M 7.839844 8.351562 C 7.789062 8.347656 7.734375 8.355469 7.683594 8.371094 C 7.164062 8.597656 6.628906 8.773438 6.117188 8.902344 C 5.980469 8.945312 5.878906 9.050781 5.851562 9.179688 C 5.824219 9.3125 5.878906 9.445312 5.992188 9.53125 C 6.105469 9.613281 6.246094 9.609375 6.394531 9.582031 C 6.941406 9.476562 7.453125 9.316406 7.960938 9.054688 C 8.152344 8.964844 8.269531 8.777344 8.191406 8.585938 C 8.136719 8.445312 7.992188 8.355469 7.839844 8.351562 Z M 7.839844 8.351562 "/>
</g>
</svg>
