<svg xmlns="http://www.w3.org/2000/svg" xmlns:xlink="http://www.w3.org/1999/xlink" width="16" height="16" viewBox="0 0 16 16" version="1.1">
<g id="surface1">
<path style=" stroke:none;fill-rule:nonzero;fill:rgb(67.058825%,40.000001%,100%);fill-opacity:1;" d="M 3.410156 1.351562 C 2.757812 1.363281 2.207031 1.648438 1.789062 2.035156 C 1.371094 2.417969 1.066406 2.898438 0.84375 3.367188 C 0.671875 3.730469 0.578125 4.050781 0.488281 4.355469 L 0.273438 4.355469 C 0.125 4.355469 0 4.484375 0 4.632812 L 0 5.789062 C 0 5.9375 0.125 6.0625 0.273438 6.0625 L 1.433594 6.0625 C 1.582031 6.0625 1.710938 5.9375 1.710938 5.789062 L 1.710938 4.632812 C 1.710938 4.484375 1.582031 4.355469 1.433594 4.355469 L 1.429688 4.355469 C 1.5 4.148438 1.546875 3.96875 1.648438 3.75 C 1.839844 3.351562 2.089844 2.964844 2.390625 2.6875 C 2.6875 2.414062 3.015625 2.246094 3.433594 2.238281 C 3.707031 2.242188 3.871094 2.316406 4.039062 2.457031 C 4.207031 2.59375 4.355469 2.816406 4.488281 3.109375 C 4.753906 3.699219 4.925781 4.5625 5.09375 5.449219 C 5.261719 6.335938 5.4375 7.246094 5.804688 7.988281 C 6.175781 8.730469 6.84375 9.332031 7.789062 9.316406 C 7.789062 9.316406 7.792969 9.316406 7.792969 9.316406 C 8.421875 9.300781 8.933594 9.007812 9.285156 8.617188 C 9.632812 8.222656 9.855469 7.734375 10 7.273438 C 10.164062 6.75 10.230469 6.289062 10.265625 5.945312 L 10.390625 5.945312 C 10.539062 5.945312 10.667969 5.816406 10.667969 5.667969 L 10.667969 4.511719 C 10.667969 4.363281 10.539062 4.238281 10.390625 4.238281 L 9.234375 4.238281 C 9.085938 4.238281 8.960938 4.363281 8.960938 4.511719 L 8.960938 5.667969 C 8.960938 5.816406 9.085938 5.945312 9.234375 5.945312 L 9.378906 5.945312 C 9.339844 6.242188 9.269531 6.628906 9.148438 7.011719 C 9.027344 7.398438 8.847656 7.769531 8.621094 8.023438 C 8.394531 8.273438 8.148438 8.417969 7.773438 8.425781 C 7.164062 8.4375 6.882812 8.167969 6.601562 7.59375 C 6.316406 7.023438 6.140625 6.164062 5.972656 5.28125 C 5.804688 4.402344 5.644531 3.492188 5.304688 2.746094 C 5.136719 2.371094 4.917969 2.023438 4.605469 1.765625 C 4.292969 1.507812 3.882812 1.355469 3.429688 1.351562 C 3.421875 1.351562 3.417969 1.351562 3.410156 1.351562 Z M 3.410156 1.351562 "/>
</g>
</svg>
