<svg xmlns="http://www.w3.org/2000/svg" xmlns:xlink="http://www.w3.org/1999/xlink" width="16" height="16" viewBox="0 0 16 16" version="1.1">
<g id="surface1">
<path style=" stroke:none;fill-rule:nonzero;fill:rgb(100%,74.901962%,0%);fill-opacity:1;" d="M 8 4 L 8 10.015625 L 10 10.015625 C 10.628906 10.015625 11.179688 9.765625 11.535156 9.375 C 11.886719 8.984375 12.042969 8.484375 12.039062 8 C 12.03125 7.511719 11.863281 7.023438 11.511719 6.636719 C 11.160156 6.253906 10.613281 6 10 6 L 9.332031 6 L 9.332031 4 Z M 4.003906 4.667969 L 4 6 L 5.945312 6.007812 L 5.949219 6.007812 C 5.910156 6.007812 6.003906 6.113281 6.003906 6.0625 L 6.003906 6.679688 L 5.335938 6.679688 C 4.191406 6.679688 3.316406 7.429688 3.296875 8.335938 C 3.289062 8.789062 3.503906 9.242188 3.871094 9.550781 C 4.242188 9.855469 4.75 10.015625 5.335938 10.015625 L 7.335938 10.015625 L 7.335938 6.0625 C 7.335938 5.28125 6.746094 4.675781 5.949219 4.675781 Z M 9.332031 7.332031 L 10 7.332031 C 10.28125 7.332031 10.417969 7.417969 10.527344 7.535156 C 10.632812 7.652344 10.703125 7.832031 10.703125 8.015625 C 10.707031 8.199219 10.644531 8.371094 10.542969 8.480469 C 10.441406 8.59375 10.308594 8.683594 10 8.683594 L 9.332031 8.683594 Z M 5.335938 8.011719 L 6.003906 8.011719 L 6.003906 8.683594 L 5.335938 8.683594 C 4.988281 8.683594 4.804688 8.589844 4.722656 8.523438 C 4.636719 8.453125 4.628906 8.40625 4.632812 8.359375 C 4.632812 8.261719 4.6875 8.011719 5.335938 8.011719 Z M 4.667969 10.195312 L 3.097656 11.765625 C 3.011719 11.847656 2.976562 11.972656 3.007812 12.089844 C 3.039062 12.207031 3.128906 12.296875 3.246094 12.328125 C 3.363281 12.359375 3.488281 12.324219 3.570312 12.234375 L 4.667969 11.136719 L 6 12.472656 L 7.335938 11.136719 L 8.667969 12.472656 L 10 11.136719 L 11.335938 12.472656 L 12.902344 10.902344 C 12.992188 10.820312 13.027344 10.695312 12.996094 10.578125 C 12.964844 10.460938 12.875 10.371094 12.757812 10.339844 C 12.640625 10.308594 12.515625 10.34375 12.433594 10.429688 L 11.335938 11.527344 L 10 10.195312 L 8.667969 11.527344 L 7.335938 10.195312 L 6 11.527344 Z M 4.667969 10.195312 "/>
</g>
</svg>
