<svg xmlns="http://www.w3.org/2000/svg" xmlns:xlink="http://www.w3.org/1999/xlink" width="16" height="16" viewBox="0 0 16 16" version="1.1">
<g id="surface1">
<path style=" stroke:none;fill-rule:nonzero;fill:rgb(100%,74.901962%,0%);fill-opacity:1;" d="M 10 2.667969 L 10 3.703125 C 9.757812 3.71875 9.519531 3.730469 9.257812 3.753906 C 8.402344 3.835938 7.480469 3.972656 6.667969 4.242188 L 6.667969 4 L 4 4 L 4 6.667969 L 4.085938 6.667969 C 3.703125 7.570312 3.472656 8.621094 3.308594 9.59375 C 3.285156 9.734375 3.273438 9.863281 3.253906 10 L 2.667969 10 L 2.667969 12.667969 L 3.332031 12.667969 L 3.667969 12.675781 L 3.667969 12.667969 L 5.332031 12.667969 L 5.332031 10 L 3.925781 10 C 3.941406 9.898438 3.949219 9.804688 3.96875 9.703125 C 4.140625 8.65625 4.433594 7.53125 4.835938 6.667969 L 6.667969 6.667969 L 6.667969 4.964844 C 7.441406 4.683594 8.417969 4.503906 9.320312 4.417969 C 9.558594 4.394531 9.777344 4.382812 10 4.371094 L 10 5.332031 L 12.667969 5.332031 L 12.667969 2.667969 Z M 7.332031 6.667969 L 10.535156 12.667969 L 12.667969 10.417969 Z M 7.332031 6.667969 "/>
</g>
</svg>
