<svg xmlns="http://www.w3.org/2000/svg" xmlns:xlink="http://www.w3.org/1999/xlink" width="16" height="16" viewBox="0 0 16 16" version="1.1">
<g id="surface1">
<path style=" stroke:none;fill-rule:nonzero;fill:rgb(100%,30.980393%,30.980393%);fill-opacity:1;" d="M 6.007812 3.332031 C 5.339844 3.332031 5.34375 3.957031 5.34375 3.957031 C 5.339844 3.957031 5.34375 4.394531 5.34375 4.453125 C 5.964844 4.15625 6.644531 4 7.335938 4 C 9.914062 4 12.003906 6.089844 12.003906 8.667969 C 12 10.304688 11.140625 11.820312 9.738281 12.664062 L 12.667969 12.664062 C 12.667969 12.664062 12.710938 12.671875 12.773438 12.664062 C 12.960938 12.632812 13.335938 12.507812 13.335938 12.039062 L 13.335938 3.957031 C 13.335938 3.335938 12.667969 3.332031 12.667969 3.332031 Z M 7.332031 4.667969 C 5.136719 4.667969 3.332031 6.472656 3.332031 8.667969 C 3.332031 10.863281 5.136719 12.667969 7.332031 12.667969 C 9.527344 12.667969 11.332031 10.863281 11.332031 8.667969 C 11.332031 6.472656 9.527344 4.667969 7.332031 4.667969 Z M 7.332031 7.523438 C 7.960938 7.523438 8.476562 8.039062 8.476562 8.667969 C 8.476562 9.292969 7.960938 9.808594 7.332031 9.808594 C 6.707031 9.808594 6.191406 9.292969 6.191406 8.667969 C 6.191406 8.039062 6.707031 7.523438 7.332031 7.523438 Z M 7.332031 7.523438 "/>
</g>
</svg>
