<svg xmlns="http://www.w3.org/2000/svg" xmlns:xlink="http://www.w3.org/1999/xlink" width="16" height="16" viewBox="0 0 16 16" version="1.1">
<g id="surface1">
<path style=" stroke:none;fill-rule:nonzero;fill:rgb(67.058825%,40.000001%,100%);fill-opacity:1;" d="M 0.390625 1.066406 C 0.285156 1.0625 0.1875 1.101562 0.113281 1.175781 C 0.0390625 1.25 0 1.347656 0 1.449219 L 0 2.667969 C 0 2.878906 0.171875 3.050781 0.382812 3.050781 C 0.589844 3.050781 0.761719 2.878906 0.761719 2.667969 L 0.761719 1.839844 L 1.050781 1.84375 C 1.191406 1.851562 1.324219 1.785156 1.398438 1.664062 C 1.472656 1.546875 1.472656 1.394531 1.40625 1.273438 C 1.335938 1.152344 1.207031 1.078125 1.066406 1.078125 Z M 2.351562 1.066406 C 2.140625 1.0625 1.96875 1.234375 1.964844 1.445312 C 1.964844 1.660156 2.132812 1.832031 2.34375 1.835938 L 3.957031 1.855469 C 4.09375 1.863281 4.226562 1.792969 4.300781 1.675781 C 4.375 1.554688 4.375 1.402344 4.304688 1.28125 C 4.234375 1.160156 4.105469 1.085938 3.964844 1.09375 Z M 5.113281 1.066406 C 4.902344 1.0625 4.730469 1.234375 4.726562 1.445312 C 4.726562 1.660156 4.894531 1.832031 5.105469 1.835938 L 6.71875 1.855469 C 6.859375 1.863281 6.992188 1.792969 7.0625 1.675781 C 7.136719 1.554688 7.136719 1.402344 7.066406 1.28125 C 6.996094 1.160156 6.867188 1.085938 6.726562 1.09375 Z M 7.851562 1.066406 C 7.640625 1.0625 7.46875 1.234375 7.464844 1.445312 C 7.460938 1.660156 7.632812 1.832031 7.84375 1.835938 L 9.457031 1.855469 C 9.59375 1.863281 9.726562 1.792969 9.800781 1.675781 C 9.875 1.554688 9.875 1.402344 9.804688 1.28125 C 9.734375 1.160156 9.605469 1.085938 9.464844 1.09375 Z M 10.28125 1.9375 C 10.179688 1.9375 10.082031 1.980469 10.011719 2.050781 C 9.941406 2.125 9.902344 2.222656 9.90625 2.324219 L 9.90625 3.949219 C 9.90625 4.160156 10.074219 4.332031 10.285156 4.332031 C 10.496094 4.332031 10.667969 4.160156 10.667969 3.949219 L 10.667969 2.324219 C 10.667969 2.222656 10.628906 2.121094 10.554688 2.046875 C 10.484375 1.976562 10.382812 1.933594 10.28125 1.9375 Z M 0.390625 3.519531 C 0.289062 3.519531 0.191406 3.5625 0.121094 3.632812 C 0.0507812 3.707031 0.0117188 3.804688 0.0117188 3.90625 L 0.0117188 5.53125 C 0.0117188 5.742188 0.183594 5.914062 0.394531 5.914062 C 0.605469 5.914062 0.773438 5.742188 0.773438 5.53125 L 0.773438 3.90625 C 0.777344 3.804688 0.738281 3.703125 0.664062 3.632812 C 0.589844 3.558594 0.492188 3.515625 0.390625 3.519531 Z M 10.265625 4.800781 C 10.164062 4.804688 10.070312 4.84375 10 4.917969 C 9.925781 4.988281 9.890625 5.089844 9.890625 5.191406 L 9.890625 6.816406 C 9.890625 7.027344 10.0625 7.199219 10.273438 7.199219 C 10.480469 7.199219 10.652344 7.027344 10.652344 6.816406 L 10.652344 5.191406 C 10.652344 5.085938 10.613281 4.988281 10.542969 4.914062 C 10.46875 4.839844 10.371094 4.800781 10.265625 4.800781 Z M 0.390625 6.371094 C 0.289062 6.371094 0.191406 6.414062 0.121094 6.488281 C 0.0507812 6.558594 0.0117188 6.65625 0.0117188 6.757812 L 0.0117188 8.382812 C 0.0117188 8.597656 0.183594 8.769531 0.394531 8.769531 C 0.605469 8.769531 0.773438 8.597656 0.773438 8.382812 L 0.773438 6.757812 C 0.777344 6.65625 0.738281 6.554688 0.664062 6.484375 C 0.589844 6.410156 0.492188 6.371094 0.390625 6.371094 Z M 10.28125 7.601562 C 10.179688 7.601562 10.082031 7.640625 10.011719 7.714844 C 9.941406 7.789062 9.902344 7.886719 9.90625 7.988281 L 9.90625 8.832031 L 9.609375 8.832031 C 9.398438 8.832031 9.226562 9.003906 9.226562 9.214844 C 9.226562 9.429688 9.398438 9.601562 9.609375 9.601562 L 10.285156 9.601562 C 10.386719 9.601562 10.484375 9.558594 10.554688 9.488281 C 10.628906 9.417969 10.667969 9.316406 10.667969 9.214844 L 10.667969 7.988281 C 10.667969 7.886719 10.628906 7.785156 10.554688 7.710938 C 10.484375 7.640625 10.382812 7.597656 10.28125 7.601562 Z M 1.199219 8.808594 C 0.988281 8.808594 0.816406 8.976562 0.816406 9.191406 C 0.8125 9.402344 0.980469 9.574219 1.191406 9.578125 L 2.804688 9.597656 C 2.945312 9.609375 3.078125 9.539062 3.152344 9.417969 C 3.226562 9.296875 3.226562 9.148438 3.15625 9.027344 C 3.085938 8.902344 2.953125 8.832031 2.8125 8.835938 Z M 4.117188 8.808594 C 3.90625 8.808594 3.734375 8.976562 3.734375 9.191406 C 3.730469 9.402344 3.898438 9.574219 4.109375 9.578125 L 5.722656 9.597656 C 5.863281 9.609375 5.996094 9.539062 6.070312 9.417969 C 6.140625 9.296875 6.144531 9.148438 6.074219 9.027344 C 6.003906 8.902344 5.871094 8.832031 5.730469 8.835938 Z M 6.929688 8.808594 C 6.71875 8.808594 6.546875 8.976562 6.542969 9.191406 C 6.542969 9.402344 6.710938 9.574219 6.921875 9.578125 L 8.535156 9.597656 C 8.675781 9.609375 8.808594 9.539062 8.878906 9.417969 C 8.953125 9.296875 8.957031 9.148438 8.886719 9.027344 C 8.816406 8.902344 8.683594 8.832031 8.542969 8.835938 Z M 6.929688 8.808594 "/>
</g>
</svg>
