<svg xmlns="http://www.w3.org/2000/svg" xmlns:xlink="http://www.w3.org/1999/xlink" width="16" height="16" viewBox="0 0 16 16" version="1.1">
<g id="surface1">
<path style=" stroke:none;fill-rule:nonzero;fill:rgb(0%,80.000001%,100%);fill-opacity:1;" d="M 3.179688 1.332031 C 1.4375 1.332031 0 2.65625 0 4.316406 L 0 6.347656 C 0 8.011719 1.4375 9.332031 3.179688 9.332031 L 7.488281 9.332031 C 9.230469 9.332031 10.667969 8.011719 10.667969 6.347656 L 10.667969 4.316406 C 10.667969 2.65625 9.230469 1.332031 7.488281 1.332031 Z M 3.179688 2 L 7.488281 2 C 8.898438 2 10 3.039062 10 4.316406 L 10 6.347656 C 10 7.625 8.898438 8.667969 7.488281 8.667969 L 3.179688 8.667969 C 1.769531 8.667969 0.667969 7.625 0.667969 6.347656 L 0.667969 4.316406 C 0.667969 3.039062 1.769531 2 3.179688 2 Z M 3.179688 2 "/>
</g>
</svg>
