<svg xmlns="http://www.w3.org/2000/svg" xmlns:xlink="http://www.w3.org/1999/xlink" width="16" height="16" viewBox="0 0 16 16" version="1.1">
<g id="surface1">
<path style=" stroke:none;fill-rule:nonzero;fill:rgb(96.862745%,0%,100%);fill-opacity:1;" d="M 9.03125 3.332031 C 6.304688 4.5 4.671875 7.234375 4.671875 9.167969 C 4.671875 11.078125 6.101562 12.625 7.878906 12.664062 C 6.992188 12.644531 6.273438 11.871094 6.273438 10.917969 C 6.273438 9.949219 7.09375 8.582031 8.457031 8 C 8.457031 10.042969 9.921875 10.335938 9.546875 11.5 C 9.335938 12.160156 8.820312 12.660156 7.925781 12.664062 C 7.929688 12.664062 7.9375 12.667969 7.941406 12.667969 C 9.75 12.667969 10.789062 11.660156 11.214844 10.332031 C 11.960938 8.007812 9.03125 7.417969 9.03125 3.332031 Z M 9.03125 3.332031 "/>
</g>
</svg>
