<svg xmlns="http://www.w3.org/2000/svg" xmlns:xlink="http://www.w3.org/1999/xlink" width="16" height="16" viewBox="0 0 16 16" version="1.1">
<g id="surface1">
<path style=" stroke:none;fill-rule:nonzero;fill:rgb(0%,80.000001%,100%);fill-opacity:1;" d="M 8.476562 3.527344 C 7.402344 3.527344 6.425781 3.960938 5.703125 4.65625 C 6.21875 4.445312 6.773438 4.335938 7.332031 4.335938 C 9.726562 4.335938 11.667969 6.277344 11.667969 8.667969 C 11.664062 9.226562 11.554688 9.78125 11.34375 10.296875 C 12.042969 9.578125 12.476562 8.597656 12.476562 7.527344 C 12.476562 5.332031 10.671875 3.527344 8.476562 3.527344 Z M 7.332031 4.667969 C 5.136719 4.667969 3.332031 6.472656 3.332031 8.667969 C 3.332031 10.863281 5.136719 12.667969 7.332031 12.667969 C 9.527344 12.667969 11.332031 10.863281 11.332031 8.667969 C 11.332031 6.472656 9.527344 4.667969 7.332031 4.667969 Z M 7.332031 7.523438 C 7.960938 7.523438 8.476562 8.039062 8.476562 8.667969 C 8.476562 9.292969 7.960938 9.808594 7.332031 9.808594 C 6.707031 9.808594 6.191406 9.292969 6.191406 8.667969 C 6.191406 8.039062 6.707031 7.523438 7.332031 7.523438 Z M 7.332031 7.523438 "/>
</g>
</svg>
