<svg xmlns="http://www.w3.org/2000/svg" xmlns:xlink="http://www.w3.org/1999/xlink" width="16" height="16" viewBox="0 0 16 16" version="1.1">
<g id="surface1">
<path style=" stroke:none;fill-rule:nonzero;fill:rgb(67.058825%,40.000001%,100%);fill-opacity:1;" d="M 12 3.328125 L 6 3.332031 L 6 8.792969 C 5.785156 8.710938 5.574219 8.664062 5.332031 8.664062 C 4.230469 8.664062 3.332031 9.5625 3.332031 10.664062 C 3.332031 11.769531 4.230469 12.664062 5.332031 12.664062 C 6.4375 12.664062 7.332031 11.769531 7.332031 10.664062 L 7.332031 6 L 11.332031 6 L 11.332031 8.789062 C 11.121094 8.710938 10.90625 8.664062 10.667969 8.664062 C 9.5625 8.664062 8.667969 9.558594 8.667969 10.664062 C 8.667969 11.765625 9.5625 12.664062 10.667969 12.664062 C 11.769531 12.664062 12.667969 11.765625 12.667969 10.664062 L 12.667969 3.328125 Z M 12 3.328125 "/>
</g>
</svg>
