<svg xmlns="http://www.w3.org/2000/svg" xmlns:xlink="http://www.w3.org/1999/xlink" width="16" height="16" viewBox="0 0 16 16" version="1.1">
<g id="surface1">
<path style=" stroke:none;fill-rule:nonzero;fill:rgb(0%,80.000001%,100%);fill-opacity:1;" d="M 4.367188 0.792969 C 4.21875 0.792969 4.089844 0.921875 4.089844 1.070312 L 4.089844 2.265625 C 4.089844 2.300781 4.113281 2.328125 4.128906 2.359375 L 0.851562 8.121094 L 0.277344 8.121094 C 0.128906 8.121094 0 8.25 0 8.402344 L 0 9.59375 C 0 9.746094 0.128906 9.871094 0.277344 9.871094 L 1.472656 9.871094 C 1.621094 9.871094 1.75 9.746094 1.75 9.59375 L 1.75 8.402344 C 1.75 8.386719 1.734375 8.375 1.734375 8.363281 L 4.5625 3.394531 L 4.5625 8.121094 L 4.527344 8.121094 C 4.378906 8.121094 4.25 8.25 4.25 8.402344 L 4.25 9.59375 C 4.25 9.746094 4.378906 9.871094 4.527344 9.871094 L 5.722656 9.871094 C 5.871094 9.871094 6 9.746094 6 9.59375 L 6 9.449219 L 10.378906 7.792969 C 10.496094 7.75 10.589844 7.660156 10.632812 7.542969 C 10.679688 7.429688 10.675781 7.300781 10.625 7.1875 L 8.878906 3.554688 C 8.886719 3.527344 8.914062 3.507812 8.914062 3.476562 L 8.914062 2.28125 C 8.914062 2.132812 8.785156 2.003906 8.632812 2.003906 L 7.441406 2.003906 C 7.289062 2.003906 7.160156 2.132812 7.160156 2.28125 L 7.160156 3.476562 C 7.160156 3.628906 7.289062 3.753906 7.441406 3.753906 L 7.988281 3.753906 L 9.613281 7.140625 L 6 8.507812 L 6 8.402344 C 6 8.25 5.871094 8.121094 5.722656 8.121094 L 5.449219 8.121094 L 5.449219 2.542969 L 5.5625 2.542969 C 5.710938 2.542969 5.839844 2.417969 5.839844 2.265625 L 5.839844 1.070312 C 5.839844 0.921875 5.710938 0.792969 5.5625 0.792969 Z M 4.367188 0.792969 "/>
</g>
</svg>
