<svg xmlns="http://www.w3.org/2000/svg" xmlns:xlink="http://www.w3.org/1999/xlink" width="16" height="16" viewBox="0 0 16 16" version="1.1">
<g id="surface1">
<path style=" stroke:none;fill-rule:nonzero;fill:rgb(100%,74.901962%,0%);fill-opacity:1;" d="M 8 2.667969 C 5.054688 2.667969 2.667969 5.054688 2.667969 8 C 2.667969 10.945312 5.054688 13.332031 8 13.332031 C 10.945312 13.332031 13.332031 10.945312 13.332031 8 C 13.332031 5.054688 10.945312 2.667969 8 2.667969 Z M 7.332031 4.667969 L 7.332031 9.332031 C 7.332031 10 6.667969 10 6.667969 10 C 6.667969 10 6 10 6 9.332031 L 6 6.667969 L 4.667969 6.667969 Z M 9.332031 6 C 9.332031 6 10 6 10 6.667969 L 10 9.332031 L 11.332031 9.332031 L 8.667969 11.332031 L 8.667969 6.667969 C 8.667969 6 9.332031 6 9.332031 6 Z M 9.332031 6 "/>
</g>
</svg>
