<svg xmlns="http://www.w3.org/2000/svg" xmlns:xlink="http://www.w3.org/1999/xlink" width="16" height="16" viewBox="0 0 16 16" version="1.1">
<defs>
<filter id="alpha" filterUnits="objectBoundingBox" x="0%" y="0%" width="100%" height="100%">
  <feColorMatrix type="matrix" in="SourceGraphic" values="0 0 0 0 1 0 0 0 0 1 0 0 0 0 1 0 0 0 1 0"/>
</filter>
<mask id="mask0">
  <g filter="url(#alpha)">
<rect x="0" y="0" width="16" height="16" style="fill:rgb(0%,0%,0%);fill-opacity:0.3;stroke:none;"/>
  </g>
</mask>
<clipPath id="clip1">
  <rect x="0" y="0" width="16" height="16"/>
</clipPath>
<g id="surface5" clip-path="url(#clip1)">
<path style=" stroke:none;fill-rule:nonzero;fill:rgb(96.862745%,0%,100%);fill-opacity:1;" d="M 11.902344 1.164062 C 11.84375 1.148438 11.757812 1.171875 11.667969 1.242188 L 4.332031 6.667969 C 4.148438 6.800781 4 7.0625 4 7.246094 L 4 14.671875 C 4 14.855469 4.148438 14.894531 4.332031 14.761719 L 11.667969 9.332031 C 11.851562 9.199219 12 8.9375 12 8.753906 L 12 1.328125 C 12 1.238281 11.964844 1.179688 11.902344 1.164062 Z M 11.902344 1.164062 "/>
</g>
</defs>
<g id="surface1">
<path style=" stroke:none;fill-rule:nonzero;fill:rgb(96.862745%,0%,100%);fill-opacity:1;" d="M 12.511719 0 C 12.460938 0.00390625 12.398438 0.0351562 12.332031 0.0820312 L 3.664062 6.492188 C 3.480469 6.628906 3.332031 6.886719 3.332031 7.070312 L 3.332031 15.832031 C 3.332031 15.917969 3.367188 15.980469 3.429688 15.996094 C 3.492188 16.011719 3.578125 15.984375 3.664062 15.917969 L 12.332031 9.507812 C 12.515625 9.371094 12.664062 9.113281 12.664062 8.929688 L 12.664062 0.167969 C 12.664062 0.0664062 12.621094 0.00390625 12.539062 0 C 12.53125 0 12.523438 0 12.511719 0 Z M 3.332031 14 L 2 14 L 2 12 L 1.332031 12 L 1.332031 14 L 0 14 L 1.667969 16 Z M 14.332031 0 L 12.667969 2 L 14 2 L 14 4 L 14.667969 4 L 14.667969 2 L 16 2 Z M 12.003906 0.992188 L 12.003906 9.085938 L 3.996094 15.007812 L 3.996094 6.914062 Z M 12.003906 0.992188 "/>
<use xlink:href="#surface5" mask="url(#mask0)"/>
</g>
</svg>
