<svg xmlns="http://www.w3.org/2000/svg" xmlns:xlink="http://www.w3.org/1999/xlink" width="16" height="16" viewBox="0 0 16 16" version="1.1">
<g id="surface1">
<path style=" stroke:none;fill-rule:nonzero;fill:rgb(0%,80.000001%,100%);fill-opacity:1;" d="M 4.339844 4 C 4.15625 4 4.003906 4.148438 4.003906 4.332031 C 4.003906 4.515625 4.15625 4.667969 4.339844 4.667969 L 8.003906 4.667969 C 9.105469 4.667969 9.929688 4.976562 10.480469 5.492188 C 11.035156 6.007812 11.332031 6.742188 11.332031 7.667969 C 11.332031 7.851562 11.484375 8 11.667969 8 C 11.851562 8 12 7.851562 12 7.667969 C 12 6.59375 11.632812 5.65625 10.9375 5.007812 C 10.238281 4.355469 9.230469 4 8.003906 4 Z M 4.339844 6 C 4.15625 6 4.003906 6.148438 4.003906 6.332031 C 4.003906 6.515625 4.15625 6.667969 4.339844 6.667969 L 7.003906 6.667969 C 7.789062 6.667969 8.277344 6.824219 8.5625 7.097656 C 8.851562 7.375 9 7.816406 9 8.535156 C 9 8.71875 9.152344 8.867188 9.335938 8.867188 C 9.519531 8.867188 9.667969 8.71875 9.667969 8.535156 C 9.667969 7.71875 9.484375 7.058594 9.023438 6.617188 C 8.5625 6.175781 7.878906 6 7.003906 6 Z M 10.003906 8.675781 L 10.003906 10.003906 L 8.671875 10.003906 L 8.671875 10.667969 L 10.003906 10.667969 L 10.003906 12 L 12.007812 10.335938 Z M 5.332031 9.996094 L 5.332031 10.679688 L 6 10.679688 L 6 9.996094 Z M 6.679688 9.996094 L 6.679688 10.679688 L 7.992188 10.679688 L 7.992188 9.996094 Z M 6.679688 9.996094 "/>
</g>
</svg>
