<svg xmlns="http://www.w3.org/2000/svg" xmlns:xlink="http://www.w3.org/1999/xlink" width="16" height="16" viewBox="0 0 16 16" version="1.1">
<g id="surface1">
<path style=" stroke:none;fill-rule:nonzero;fill:rgb(100%,74.901962%,0%);fill-opacity:1;" d="M 10.300781 12.984375 C 9.378906 13.378906 8.472656 13.441406 7.710938 13.160156 C 7.328125 13.019531 3.945312 11.59375 3.691406 11.410156 C 3.480469 11.257812 3.382812 11.101562 3.355469 10.863281 C 3.285156 10.296875 3.789062 9.886719 4.351562 10.050781 C 4.898438 10.253906 6.054688 10.503906 6.054688 10.503906 L 4.691406 8.054688 C 3.433594 5.800781 3.324219 5.589844 3.332031 5.441406 C 3.351562 5.089844 3.617188 4.828125 3.964844 4.8125 C 4.304688 4.796875 4.355469 4.859375 5.292969 6.527344 C 6.085938 7.925781 6.148438 8.03125 6.261719 8.054688 C 6.414062 8.089844 6.460938 8.058594 6.492188 7.910156 C 6.515625 7.800781 6.40625 7.59375 5.449219 5.890625 C 4.421875 4.066406 4.378906 3.988281 4.382812 3.800781 C 4.398438 3.265625 5.015625 3.007812 5.4375 3.359375 C 5.511719 3.421875 5.921875 4.109375 6.609375 5.328125 C 7.625 7.132812 7.667969 7.203125 7.773438 7.199219 C 7.902344 7.195312 7.988281 7.097656 7.984375 6.957031 C 7.980469 6.894531 7.59375 6.167969 7.023438 5.15625 C 6.296875 3.863281 6.070312 3.429688 6.070312 3.328125 C 6.066406 3.113281 6.203125 2.890625 6.40625 2.765625 C 6.691406 2.636719 7 2.621094 7.117188 2.800781 L 8.191406 4.707031 C 8.886719 5.9375 9.300781 6.636719 9.359375 6.671875 C 9.460938 6.738281 9.632812 6.660156 9.664062 6.535156 C 9.679688 6.476562 9.492188 6.105469 8.953125 5.148438 C 8.136719 3.703125 8.058594 3.558594 8.21875 3.253906 C 8.585938 2.824219 9.0625 2.800781 9.292969 3.125 L 10.90625 6.015625 C 11.382812 7.121094 12.371094 8.144531 12.601562 9.328125 C 12.804688 10.367188 12.539062 11.242188 11.796875 11.984375 C 11.480469 12.304688 10.742188 12.796875 10.300781 12.984375 Z M 10.300781 12.984375 "/>
</g>
</svg>
