<svg xmlns="http://www.w3.org/2000/svg" xmlns:xlink="http://www.w3.org/1999/xlink" width="16" height="16" viewBox="0 0 16 16" version="1.1">
<defs>
<filter id="alpha" filterUnits="objectBoundingBox" x="0%" y="0%" width="100%" height="100%">
  <feColorMatrix type="matrix" in="SourceGraphic" values="0 0 0 0 1 0 0 0 0 1 0 0 0 0 1 0 0 0 1 0"/>
</filter>
<mask id="mask0">
  <g filter="url(#alpha)">
<rect x="0" y="0" width="16" height="16" style="fill:rgb(0%,0%,0%);fill-opacity:0.3;stroke:none;"/>
  </g>
</mask>
<clipPath id="clip1">
  <rect x="0" y="0" width="16" height="16"/>
</clipPath>
<g id="surface5" clip-path="url(#clip1)">
<path style=" stroke:none;fill-rule:nonzero;fill:rgb(100%,74.901962%,0%);fill-opacity:1;" d="M 2.660156 0.660156 L 2.660156 15.339844 L 13.339844 15.339844 L 13.339844 0.660156 Z M 2.660156 0.660156 "/>
</g>
</defs>
<g id="surface1">
<path style=" stroke:none;fill-rule:nonzero;fill:rgb(100%,74.901962%,0%);fill-opacity:1;" d="M 2.332031 0 C 2.148438 0 2 0.148438 2 0.332031 L 2 15.667969 C 2 15.851562 2.148438 16 2.332031 16 L 13.667969 16 C 13.851562 16 14 15.851562 14 15.667969 L 14 0.332031 C 14 0.148438 13.851562 0 13.667969 0 Z M 2.667969 0.667969 L 10.363281 0.667969 L 8.71875 2.636719 L 10.054688 2.636719 L 10.054688 4.671875 L 2.667969 4.671875 Z M 10.414062 0.667969 L 13.332031 0.667969 L 13.332031 4.671875 L 10.722656 4.671875 L 10.722656 2.636719 L 12.054688 2.636719 Z M 10.722656 5.339844 L 13.332031 5.339844 L 13.332031 10.660156 L 10.722656 10.660156 Z M 2.667969 5.339844 L 10.054688 5.339844 L 10.054688 10.660156 L 2.667969 10.660156 Z M 10.722656 11.328125 L 13.332031 11.328125 L 13.332031 15.332031 L 10.414062 15.332031 L 12.054688 13.363281 L 10.722656 13.363281 Z M 2.667969 11.328125 L 10.054688 11.328125 L 10.054688 13.363281 L 8.722656 13.363281 L 10.363281 15.332031 L 2.667969 15.332031 Z M 2.667969 11.328125 "/>
<use xlink:href="#surface5" mask="url(#mask0)"/>
</g>
</svg>
