<svg xmlns="http://www.w3.org/2000/svg" xmlns:xlink="http://www.w3.org/1999/xlink" width="16" height="16" viewBox="0 0 16 16" version="1.1">
<defs>
<filter id="alpha" filterUnits="objectBoundingBox" x="0%" y="0%" width="100%" height="100%">
  <feColorMatrix type="matrix" in="SourceGraphic" values="0 0 0 0 1 0 0 0 0 1 0 0 0 0 1 0 0 0 1 0"/>
</filter>
<mask id="mask0">
  <g filter="url(#alpha)">
<rect x="0" y="0" width="16" height="16" style="fill:rgb(0%,0%,0%);fill-opacity:0.3;stroke:none;"/>
  </g>
</mask>
<clipPath id="clip1">
  <rect x="0" y="0" width="16" height="16"/>
</clipPath>
<g id="surface5" clip-path="url(#clip1)">
<path style=" stroke:none;fill-rule:nonzero;fill:rgb(67.058825%,40.000001%,100%);fill-opacity:1;" d="M 9.332031 0.667969 L 9.332031 5.984375 L 13.996094 5.984375 L 13.996094 0.667969 Z M 9.332031 9.984375 L 9.332031 15.300781 L 13.996094 15.300781 L 13.996094 9.984375 Z M 9.332031 9.984375 "/>
</g>
</defs>
<g id="surface1">
<path style=" stroke:none;fill-rule:nonzero;fill:rgb(67.058825%,40.000001%,100%);fill-opacity:1;" d="M 9 0 C 8.816406 0 8.667969 0.148438 8.667969 0.332031 L 8.667969 6.316406 C 8.667969 6.5 8.816406 6.652344 9 6.652344 L 14.328125 6.652344 C 14.511719 6.652344 14.660156 6.5 14.660156 6.316406 L 14.660156 0.332031 C 14.660156 0.148438 14.511719 0 14.328125 0 Z M 9.667969 0.65625 L 13.664062 0.65625 C 13.847656 0.65625 13.996094 0.808594 13.996094 0.992188 L 13.996094 5.65625 C 13.996094 5.839844 13.847656 5.988281 13.664062 5.988281 L 9.667969 5.988281 C 9.484375 5.988281 9.335938 5.839844 9.335938 5.65625 L 9.335938 0.992188 C 9.335938 0.808594 9.484375 0.65625 9.667969 0.65625 Z M 6.332031 2.652344 L 4.667969 4.652344 L 6 4.652344 L 6 12.652344 L 6.667969 12.652344 L 6.667969 4.652344 L 8 4.652344 Z M 9 9.316406 C 8.816406 9.316406 8.667969 9.46875 8.667969 9.652344 L 8.667969 15.632812 C 8.667969 15.816406 8.816406 15.96875 9 15.96875 L 14.328125 15.96875 C 14.511719 15.96875 14.660156 15.816406 14.660156 15.632812 L 14.660156 9.652344 C 14.660156 9.46875 14.511719 9.316406 14.328125 9.316406 Z M 9.667969 9.976562 L 13.664062 9.976562 C 13.847656 9.976562 13.996094 10.125 13.996094 10.308594 L 13.996094 14.972656 C 13.996094 15.15625 13.847656 15.308594 13.664062 15.308594 L 9.667969 15.308594 C 9.484375 15.308594 9.335938 15.15625 9.335938 14.972656 L 9.335938 10.308594 C 9.335938 10.125 9.484375 9.976562 9.667969 9.976562 Z M 9.667969 9.976562 "/>
<use xlink:href="#surface5" mask="url(#mask0)"/>
</g>
</svg>
