<svg xmlns="http://www.w3.org/2000/svg" xmlns:xlink="http://www.w3.org/1999/xlink" width="16" height="16" viewBox="0 0 16 16" version="1.1">
<defs>
<filter id="alpha" filterUnits="objectBoundingBox" x="0%" y="0%" width="100%" height="100%">
  <feColorMatrix type="matrix" in="SourceGraphic" values="0 0 0 0 1 0 0 0 0 1 0 0 0 0 1 0 0 0 1 0"/>
</filter>
<mask id="mask0">
  <g filter="url(#alpha)">
<rect x="0" y="0" width="16" height="16" style="fill:rgb(0%,0%,0%);fill-opacity:0.3;stroke:none;"/>
  </g>
</mask>
<clipPath id="clip1">
  <rect x="0" y="0" width="16" height="16"/>
</clipPath>
<g id="surface5" clip-path="url(#clip1)">
<path style=" stroke:none;fill-rule:nonzero;fill:rgb(0%,80.000001%,100%);fill-opacity:1;" d="M 0.667969 2.667969 L 0.667969 13.332031 L 15.332031 13.332031 L 15.332031 2.667969 Z M 0.667969 2.667969 "/>
</g>
</defs>
<g id="surface1">
<path style=" stroke:none;fill-rule:nonzero;fill:rgb(0%,80.000001%,100%);fill-opacity:1;" d="M 0.339844 2.003906 C 0.15625 2.003906 0.00390625 2.15625 0.00390625 2.339844 L 0.00390625 13.660156 C 0.00390625 13.84375 0.15625 13.996094 0.339844 13.996094 L 15.660156 13.996094 C 15.84375 13.996094 15.996094 13.84375 15.996094 13.660156 L 15.996094 2.339844 C 15.996094 2.15625 15.84375 2.003906 15.660156 2.003906 Z M 0.671875 2.671875 L 4.675781 2.671875 L 4.675781 10.054688 L 2.640625 10.054688 L 2.640625 8.71875 L 0.671875 10.359375 Z M 5.339844 2.671875 L 10.65625 2.671875 L 10.65625 10.054688 L 5.339844 10.054688 Z M 11.324219 2.671875 L 15.328125 2.671875 L 15.328125 10.359375 L 13.359375 8.71875 L 13.359375 10.054688 L 11.324219 10.054688 Z M 0.671875 10.414062 L 2.640625 12.054688 L 2.640625 10.71875 L 4.675781 10.71875 L 4.675781 13.328125 L 0.671875 13.328125 Z M 15.328125 10.414062 L 15.328125 13.328125 L 11.324219 13.328125 L 11.324219 10.71875 L 13.359375 10.71875 L 13.359375 12.054688 Z M 5.339844 10.71875 L 10.65625 10.71875 L 10.65625 13.328125 L 5.339844 13.328125 Z M 5.339844 10.71875 "/>
<use xlink:href="#surface5" mask="url(#mask0)"/>
</g>
</svg>
