<svg xmlns="http://www.w3.org/2000/svg" xmlns:xlink="http://www.w3.org/1999/xlink" width="16" height="16" viewBox="0 0 16 16" version="1.1">
<defs>
<filter id="alpha" filterUnits="objectBoundingBox" x="0%" y="0%" width="100%" height="100%">
  <feColorMatrix type="matrix" in="SourceGraphic" values="0 0 0 0 1 0 0 0 0 1 0 0 0 0 1 0 0 0 1 0"/>
</filter>
<mask id="mask0">
  <g filter="url(#alpha)">
<rect x="0" y="0" width="16" height="16" style="fill:rgb(0%,0%,0%);fill-opacity:0.3;stroke:none;"/>
  </g>
</mask>
<clipPath id="clip1">
  <rect x="0" y="0" width="16" height="16"/>
</clipPath>
<g id="surface5" clip-path="url(#clip1)">
<path style=" stroke:none;fill-rule:nonzero;fill:rgb(0%,80.000001%,100%);fill-opacity:1;" d="M 0.699219 2.003906 L 0.699219 6.667969 L 6.015625 6.667969 L 6.015625 2.003906 Z M 10.015625 2.003906 L 10.015625 6.667969 L 15.332031 6.667969 L 15.332031 2.003906 Z M 10.015625 2.003906 "/>
</g>
</defs>
<g id="surface1">
<path style=" stroke:none;fill-rule:nonzero;fill:rgb(0%,80.000001%,100%);fill-opacity:1;" d="M 0.367188 1.339844 C 0.183594 1.339844 0.03125 1.488281 0.03125 1.671875 L 0.03125 7 C 0.03125 7.183594 0.183594 7.332031 0.367188 7.332031 L 6.347656 7.332031 C 6.53125 7.332031 6.683594 7.183594 6.683594 7 L 6.683594 1.671875 C 6.683594 1.488281 6.53125 1.339844 6.347656 1.339844 Z M 9.683594 1.339844 C 9.5 1.339844 9.347656 1.488281 9.347656 1.671875 L 9.347656 7 C 9.347656 7.183594 9.5 7.332031 9.683594 7.332031 L 15.667969 7.332031 C 15.851562 7.332031 16 7.183594 16 7 L 16 1.671875 C 16 1.488281 15.851562 1.339844 15.667969 1.339844 Z M 1.027344 2.003906 L 5.691406 2.003906 C 5.875 2.003906 6.023438 2.152344 6.023438 2.335938 L 6.023438 6.332031 C 6.023438 6.515625 5.875 6.664062 5.691406 6.664062 L 1.027344 6.664062 C 0.84375 6.664062 0.691406 6.515625 0.691406 6.332031 L 0.691406 2.335938 C 0.691406 2.152344 0.84375 2.003906 1.027344 2.003906 Z M 10.34375 2.003906 L 15.007812 2.003906 C 15.191406 2.003906 15.34375 2.152344 15.34375 2.335938 L 15.34375 6.332031 C 15.34375 6.515625 15.191406 6.664062 15.007812 6.664062 L 10.34375 6.664062 C 10.160156 6.664062 10.011719 6.515625 10.011719 6.332031 L 10.011719 2.335938 C 10.011719 2.152344 10.160156 2.003906 10.34375 2.003906 Z M 11.347656 8 L 11.347656 9.332031 L 3.347656 9.332031 L 3.347656 10 L 11.347656 10 L 11.347656 11.332031 L 13.347656 9.667969 Z M 11.347656 8 "/>
<use xlink:href="#surface5" mask="url(#mask0)"/>
</g>
</svg>
