<svg xmlns="http://www.w3.org/2000/svg" xmlns:xlink="http://www.w3.org/1999/xlink" width="16" height="16" viewBox="0 0 16 16" version="1.1">
<defs>
<filter id="alpha" filterUnits="objectBoundingBox" x="0%" y="0%" width="100%" height="100%">
  <feColorMatrix type="matrix" in="SourceGraphic" values="0 0 0 0 1 0 0 0 0 1 0 0 0 0 1 0 0 0 1 0"/>
</filter>
<mask id="mask0">
  <g filter="url(#alpha)">
<rect x="0" y="0" width="16" height="16" style="fill:rgb(0%,0%,0%);fill-opacity:0.3;stroke:none;"/>
  </g>
</mask>
<clipPath id="clip1">
  <rect x="0" y="0" width="16" height="16"/>
</clipPath>
<g id="surface5" clip-path="url(#clip1)">
<path style=" stroke:none;fill-rule:nonzero;fill:rgb(96.862745%,0%,100%);fill-opacity:1;" d="M 4 4 L 4 8.667969 L 9.332031 8.667969 L 9.332031 8 L 12 8 L 12 4 Z M 4 4 "/>
</g>
</defs>
<g id="surface1">
<path style=" stroke:none;fill-rule:nonzero;fill:rgb(96.862745%,0%,100%);fill-opacity:1;" d="M 4 4 L 4 4.667969 L 11.332031 4.667969 L 11.332031 8 L 12 8 L 12 4 Z M 4 6 L 4 6.667969 L 8.667969 6.667969 L 8.667969 8.667969 L 9.332031 8.667969 L 9.332031 6 Z M 10.003906 8.675781 L 10.003906 10.003906 L 8.671875 10.003906 L 8.671875 10.667969 L 10.003906 10.667969 L 10.003906 12 L 12.007812 10.335938 Z M 5.332031 9.996094 L 5.332031 10.679688 L 6 10.679688 L 6 9.996094 Z M 6.679688 9.996094 L 6.679688 10.679688 L 7.992188 10.679688 L 7.992188 9.996094 Z M 6.679688 9.996094 "/>
<use xlink:href="#surface5" mask="url(#mask0)"/>
</g>
</svg>
