<svg xmlns="http://www.w3.org/2000/svg" xmlns:xlink="http://www.w3.org/1999/xlink" width="16" height="16" viewBox="0 0 16 16" version="1.1">
<g id="surface1">
<path style=" stroke:none;fill-rule:nonzero;fill:rgb(0%,80.000001%,100%);fill-opacity:1;" d="M 9.757812 3.332031 C 9.449219 3.339844 9.164062 3.523438 9.023438 3.8125 C 7.738281 3.734375 6.503906 4.503906 6.050781 5.78125 C 5.644531 6.933594 4.824219 8.425781 4.398438 8.503906 C 4.3125 8.550781 4.242188 8.628906 4.203125 8.730469 C 4.125 8.953125 4.238281 9.195312 4.460938 9.273438 L 10.660156 11.496094 C 10.882812 11.574219 11.125 11.460938 11.203125 11.238281 C 11.242188 11.136719 11.234375 11.03125 11.199219 10.9375 C 10.917969 10.609375 11.230469 8.933594 11.648438 7.785156 C 12.105469 6.511719 11.640625 5.132812 10.597656 4.375 C 10.699219 3.957031 10.476562 3.527344 10.066406 3.378906 C 9.964844 3.34375 9.859375 3.328125 9.757812 3.332031 Z M 7.164062 11.144531 C 6.964844 11.695312 7.339844 12.339844 8.003906 12.574219 C 8.667969 12.8125 9.363281 12.554688 9.5625 12.003906 Z M 7.164062 11.144531 "/>
</g>
</svg>
