<svg xmlns="http://www.w3.org/2000/svg" xmlns:xlink="http://www.w3.org/1999/xlink" width="16" height="16" viewBox="0 0 16 16" version="1.1">
<g id="surface1">
<path style=" stroke:none;fill-rule:nonzero;fill:rgb(100%,30.980393%,30.980393%);fill-opacity:1;" d="M 8 3.332031 C 5.421875 3.332031 3.332031 5.421875 3.332031 8 C 3.332031 8.222656 3.347656 8.445312 3.378906 8.667969 L 5.332031 8.667969 L 5.332031 8 C 5.332031 7.746094 5.476562 7.515625 5.703125 7.402344 C 5.925781 7.289062 6.199219 7.316406 6.398438 7.464844 L 6.707031 7.695312 C 6.847656 7.09375 7.382812 6.667969 8 6.667969 C 8.738281 6.667969 9.332031 7.261719 9.332031 8 C 9.332031 8.480469 9.074219 8.921875 8.65625 9.160156 L 9.066406 9.464844 C 9.421875 9.734375 9.421875 10.265625 9.066406 10.535156 L 6.542969 12.425781 C 7.011719 12.582031 7.503906 12.664062 8 12.667969 C 10.578125 12.667969 12.667969 10.578125 12.667969 8 C 12.667969 5.421875 10.578125 3.332031 8 3.332031 Z M 6 8 L 6 9.332031 L 2.667969 9.332031 L 2.667969 10.667969 L 6 10.667969 L 6 12 L 8.667969 10 Z M 6 8 "/>
</g>
</svg>
