<svg xmlns="http://www.w3.org/2000/svg" xmlns:xlink="http://www.w3.org/1999/xlink" width="16" height="16" viewBox="0 0 16 16" version="1.1">
<g id="surface1">
<path style=" stroke:none;fill-rule:nonzero;fill:rgb(96.862745%,0%,100%);fill-opacity:1;" d="M 8 2.667969 L 4 9.332031 L 8 9.332031 L 8 13.332031 L 12 6.667969 L 8 6.667969 Z M 4 10 L 4 10.667969 C 4 10.851562 4.066406 11.027344 4.1875 11.148438 L 4.707031 11.667969 L 4.1875 12.1875 C 4.066406 12.304688 4 12.480469 4 12.667969 L 4 13.332031 L 4.667969 13.332031 C 4.851562 13.332031 5.027344 13.265625 5.148438 13.148438 L 5.667969 12.625 L 6.1875 13.148438 C 6.304688 13.265625 6.480469 13.332031 6.667969 13.332031 L 7.332031 13.332031 L 7.332031 12.667969 C 7.332031 12.480469 7.265625 12.304688 7.148438 12.1875 L 6.625 11.667969 L 7.148438 11.148438 C 7.265625 11.027344 7.332031 10.851562 7.332031 10.667969 L 7.332031 10 L 6.667969 10 C 6.480469 10 6.304688 10.066406 6.1875 10.1875 L 5.667969 10.707031 L 5.148438 10.1875 C 5.027344 10.066406 4.851562 10 4.667969 10 Z M 4 10 "/>
</g>
</svg>
