<svg xmlns="http://www.w3.org/2000/svg" xmlns:xlink="http://www.w3.org/1999/xlink" width="16" height="16" viewBox="0 0 16 16" version="1.1">
<g id="surface1">
<path style=" stroke:none;fill-rule:nonzero;fill:rgb(0%,80.000001%,100%);fill-opacity:1;" d="M 8 3.332031 C 5.421875 3.332031 3.332031 5.421875 3.332031 8 C 3.332031 8.210938 3.347656 8.421875 3.378906 8.632812 L 4.933594 7.464844 C 5.136719 7.316406 5.40625 7.289062 5.632812 7.402344 C 5.855469 7.515625 6 7.746094 6 8 L 6 8.667969 L 6.84375 8.667969 C 6.726562 8.464844 6.667969 8.234375 6.667969 8 C 6.667969 7.261719 7.261719 6.667969 8 6.667969 C 8.738281 6.667969 9.332031 7.261719 9.332031 8 C 9.328125 8.289062 9.234375 8.566406 9.058594 8.792969 C 9.230469 8.917969 9.332031 9.121094 9.332031 9.332031 L 9.332031 10.667969 C 9.332031 11.035156 9.035156 11.332031 8.667969 11.332031 L 6 11.332031 L 6 12 C 6 12.066406 5.988281 12.132812 5.96875 12.195312 C 6.601562 12.503906 7.296875 12.664062 8 12.667969 C 10.578125 12.667969 12.667969 10.578125 12.667969 8 C 12.667969 5.421875 10.578125 3.332031 8 3.332031 Z M 5.332031 8 L 2.667969 10 L 5.332031 12 L 5.332031 10.667969 L 8.667969 10.667969 L 8.667969 9.332031 L 5.332031 9.332031 Z M 5.332031 8 "/>
</g>
</svg>
