<svg xmlns="http://www.w3.org/2000/svg" xmlns:xlink="http://www.w3.org/1999/xlink" width="16" height="16" viewBox="0 0 16 16" version="1.1">
<g id="surface1">
<path style=" stroke:none;fill-rule:nonzero;fill:rgb(67.058825%,40.000001%,100%);fill-opacity:1;" d="M 8 1.332031 L 1.398438 7.933594 L 2.34375 8.875 L 2.667969 8.554688 L 2.667969 13.332031 C 2.667969 14.070312 3.261719 14.667969 4 14.667969 L 12 14.667969 C 12.738281 14.667969 13.332031 14.070312 13.332031 13.332031 L 13.332031 8.554688 L 13.65625 8.875 L 14.601562 7.933594 Z M 8 3.21875 L 12 7.21875 L 12 13.332031 L 9.332031 13.332031 L 9.332031 10.667969 C 9.332031 9.929688 8.738281 9.332031 8 9.332031 C 7.261719 9.332031 6.667969 9.929688 6.667969 10.667969 L 6.667969 13.332031 L 4 13.332031 L 4 7.21875 Z M 8 3.21875 "/>
</g>
</svg>
