<svg xmlns="http://www.w3.org/2000/svg" xmlns:xlink="http://www.w3.org/1999/xlink" width="16" height="16" viewBox="0 0 16 16" version="1.1">
<g id="surface1">
<path style=" stroke:none;fill-rule:nonzero;fill:rgb(96.862745%,0%,100%);fill-opacity:1;" d="M 2.667969 7.332031 L 2.667969 13.332031 L 7.332031 13.332031 L 7.332031 7.332031 L 6.667969 7.332031 L 6.667969 10 L 3.332031 10 L 3.332031 7.332031 Z M 3.332031 11.332031 L 6.667969 11.332031 L 6.667969 12 L 3.332031 12 Z M 3.332031 11.332031 "/>
<path style=" stroke:none;fill-rule:nonzero;fill:rgb(23.921569%,68.235296%,91.37255%);fill-opacity:1;" d="M 3.332031 8 L 6.667969 8 L 6.667969 9.332031 L 3.332031 9.332031 Z M 3.332031 8 "/>
<path style=" stroke:none;fill-rule:nonzero;fill:rgb(96.862745%,0%,100%);fill-opacity:1;" d="M 9 8.527344 L 8.527344 9 L 8.765625 9.234375 L 11 11.472656 L 13.234375 9.234375 L 13.472656 9 L 13 8.527344 L 12.765625 8.765625 L 11 10.527344 L 9.234375 8.765625 Z M 9 8.527344 "/>
<path style=" stroke:none;fill-rule:nonzero;fill:rgb(96.862745%,0%,100%);fill-opacity:1;" d="M 5.96875 2.667969 C 5.242188 2.683594 4.667969 3.277344 4.667969 4 L 4.667969 7.332031 L 5.332031 7.332031 L 5.332031 4 C 5.332031 3.632812 5.632812 3.332031 6 3.332031 L 10 3.332031 C 10.367188 3.332031 10.667969 3.632812 10.667969 4 L 10.667969 10.667969 L 11.332031 10.667969 L 11.332031 4 C 11.332031 3.277344 10.757812 2.683594 10.03125 2.667969 C 10.023438 2.667969 10.011719 2.667969 10 2.667969 L 6 2.667969 C 5.988281 2.667969 5.976562 2.667969 5.96875 2.667969 Z M 5.96875 2.667969 "/>
</g>
</svg>
