<svg xmlns="http://www.w3.org/2000/svg" xmlns:xlink="http://www.w3.org/1999/xlink" width="16" height="16" viewBox="0 0 16 16" version="1.1">
<g id="surface1">
<path style=" stroke:none;fill-rule:nonzero;fill:rgb(100%,30.980393%,30.980393%);fill-opacity:1;" d="M 8 2.667969 C 5.054688 2.667969 2.667969 3.5625 2.667969 4.667969 L 2.667969 11.332031 C 2.667969 12.4375 5.054688 13.332031 8 13.332031 C 9.261719 13.332031 10.484375 13.164062 11.449219 12.859375 L 10.960938 12.363281 C 10.949219 12.367188 10.941406 12.367188 10.929688 12.371094 C 10.628906 12.496094 10.347656 12.667969 10 12.667969 C 9.804688 12.667969 9.613281 12.640625 9.429688 12.601562 C 8.96875 12.644531 8.484375 12.667969 8 12.667969 C 5.421875 12.667969 3.332031 12.070312 3.332031 11.332031 L 3.332031 8.96875 C 4.160156 9.527344 5.644531 9.902344 7.335938 9.980469 C 7.335938 9.753906 7.375 9.535156 7.433594 9.324219 C 5.09375 9.242188 3.335938 8.671875 3.332031 8 L 3.332031 5.632812 C 4.273438 6.269531 6.058594 6.667969 8 6.667969 C 9.941406 6.664062 11.730469 6.269531 12.667969 5.628906 L 12.667969 11.257812 L 13.191406 11.777344 C 13.285156 11.632812 13.332031 11.484375 13.332031 11.332031 L 13.332031 4.667969 C 13.332031 3.5625 10.945312 2.667969 8 2.667969 Z M 8 3.332031 C 10.578125 3.332031 12.667969 3.929688 12.667969 4.667969 C 12.667969 5.402344 10.578125 6 8 6 C 5.421875 6 3.332031 5.402344 3.332031 4.667969 C 3.332031 3.929688 5.421875 3.332031 8 3.332031 Z M 10 8 C 8.890625 8 8 8.890625 8 10 C 8 11.109375 8.890625 12 10 12 C 10.433594 12 10.839844 11.855469 11.167969 11.625 L 12.855469 13.332031 L 13.332031 12.855469 L 11.625 11.167969 C 11.855469 10.839844 12 10.433594 12 10 C 12 8.890625 11.109375 8 10 8 Z M 10 8.667969 C 10.734375 8.667969 11.332031 9.261719 11.332031 10 C 11.332031 10.738281 10.734375 11.332031 10 11.332031 C 9.265625 11.332031 8.667969 10.738281 8.667969 10 C 8.667969 9.261719 9.261719 8.667969 10 8.667969 Z M 10 8.667969 "/>
</g>
</svg>
