<svg xmlns="http://www.w3.org/2000/svg" xmlns:xlink="http://www.w3.org/1999/xlink" width="16" height="16" viewBox="0 0 16 16" version="1.1">
<g id="surface1">
<path style=" stroke:none;fill-rule:nonzero;fill:rgb(0%,100%,66.666669%);fill-opacity:1;" d="M 7.332031 3.332031 L 8 3.332031 L 8 6.667969 L 7.332031 6.667969 Z M 7.332031 3.332031 "/>
<path style=" stroke:none;fill-rule:nonzero;fill:rgb(0%,100%,66.666669%);fill-opacity:1;" d="M 7.332031 10 L 8 10 L 8 13.332031 L 7.332031 13.332031 Z M 7.332031 10 "/>
<path style=" stroke:none;fill-rule:nonzero;fill:rgb(0%,100%,66.666669%);fill-opacity:1;" d="M 7.667969 6 C 6.378906 6 5.332031 7.042969 5.332031 8.332031 C 5.332031 9.621094 6.378906 10.667969 7.667969 10.667969 C 8.957031 10.667969 10 9.621094 10 8.332031 C 10 7.042969 8.957031 6 7.667969 6 Z M 7.667969 6.667969 C 8.585938 6.667969 9.332031 7.414062 9.332031 8.332031 C 9.332031 9.253906 8.585938 10 7.667969 10 C 6.746094 10 6 9.253906 6 8.332031 C 6 7.414062 6.746094 6.667969 7.667969 6.667969 Z M 7.667969 6.667969 "/>
</g>
</svg>
