<svg xmlns="http://www.w3.org/2000/svg" xmlns:xlink="http://www.w3.org/1999/xlink" width="16" height="16" viewBox="0 0 16 16" version="1.1">
<g id="surface1">
<path style=" stroke:none;fill-rule:nonzero;fill:rgb(85.490197%,26.666668%,32.549021%);fill-opacity:1;" d="M 10.554688 10 L 10 10.554688 L 11.109375 11.667969 L 10 12.777344 L 10.554688 13.332031 L 11.667969 12.222656 L 12.777344 13.332031 L 13.332031 12.777344 L 12.222656 11.667969 L 13.332031 10.554688 L 12.777344 10 L 11.667969 11.109375 Z M 10.554688 10 "/>
<path style=" stroke:none;fill-rule:nonzero;fill:rgb(0%,100%,66.666669%);fill-opacity:1;" d="M 8 2.667969 C 5.054688 2.667969 2.667969 3.5625 2.667969 4.667969 L 2.667969 11.332031 C 2.667969 12.4375 5.054688 13.332031 8 13.332031 C 8.449219 13.332031 8.898438 13.308594 9.332031 13.265625 L 9.332031 12.609375 C 8.902344 12.648438 8.453125 12.667969 8 12.667969 C 5.421875 12.667969 3.332031 12.070312 3.332031 11.332031 L 3.332031 8.96875 C 4.273438 9.605469 6.058594 10 8 10 C 9.941406 10 11.730469 9.601562 12.667969 8.964844 L 12.667969 9.332031 L 13.332031 9.332031 L 13.332031 4.667969 C 13.332031 3.5625 10.945312 2.667969 8 2.667969 Z M 8 3.332031 C 10.578125 3.332031 12.667969 3.929688 12.667969 4.667969 C 12.667969 5.402344 10.578125 6 8 6 C 5.421875 6 3.332031 5.402344 3.332031 4.667969 C 3.332031 3.929688 5.421875 3.332031 8 3.332031 Z M 12.667969 5.628906 L 12.667969 8 C 12.667969 8.738281 10.578125 9.332031 8 9.332031 C 5.421875 9.332031 3.332031 8.738281 3.332031 8 L 3.332031 5.632812 C 4.273438 6.269531 6.058594 6.667969 8 6.667969 C 9.941406 6.664062 11.730469 6.269531 12.667969 5.628906 Z M 12.667969 5.628906 "/>
</g>
</svg>
