<svg xmlns="http://www.w3.org/2000/svg" xmlns:xlink="http://www.w3.org/1999/xlink" width="16" height="16" viewBox="0 0 16 16" version="1.1">
<g id="surface1">
<path style=" stroke:none;fill-rule:nonzero;fill:rgb(0%,80.000001%,100%);fill-opacity:1;" d="M 8 2.667969 C 5.054688 2.667969 2.667969 3.5625 2.667969 4.667969 L 2.667969 11.332031 C 2.667969 12.4375 5.054688 13.332031 8 13.332031 C 8.824219 13.332031 9.636719 13.261719 10.375 13.121094 L 9.8125 12.558594 C 9.238281 12.628906 8.625 12.664062 8 12.667969 C 5.421875 12.667969 3.332031 12.070312 3.332031 11.332031 L 3.332031 8.96875 C 4.273438 9.605469 6.058594 10 8 10 C 8.550781 10 9.101562 9.96875 9.625 9.902344 L 9.800781 9.722656 L 9.941406 9.867188 C 10.191406 9.828125 10.433594 9.785156 10.667969 9.734375 L 10.667969 9.09375 C 9.886719 9.25 8.953125 9.332031 8 9.332031 C 5.421875 9.332031 3.332031 8.738281 3.332031 8 L 3.332031 5.632812 C 4.273438 6.269531 6.058594 6.667969 8 6.667969 C 9.941406 6.664062 11.730469 6.269531 12.667969 5.628906 L 12.667969 8 C 12.664062 8.234375 12.449219 8.464844 12.035156 8.667969 L 12.667969 8.667969 L 12.667969 10.601562 L 13.332031 9.933594 L 13.332031 4.667969 C 13.332031 3.5625 10.945312 2.667969 8 2.667969 Z M 8 3.332031 C 10.578125 3.332031 12.667969 3.929688 12.667969 4.667969 C 12.667969 5.402344 10.578125 6 8 6 C 5.421875 6 3.332031 5.402344 3.332031 4.667969 C 3.332031 3.929688 5.421875 3.332031 8 3.332031 Z M 11.332031 9.332031 L 11.332031 12.199219 L 9.800781 10.667969 L 9.332031 11.132812 L 11.535156 13.332031 L 11.667969 13.472656 L 11.800781 13.332031 L 14 11.132812 L 13.535156 10.667969 L 12 12.199219 L 12 9.332031 Z M 11.332031 9.332031 "/>
</g>
</svg>
