<svg xmlns="http://www.w3.org/2000/svg" xmlns:xlink="http://www.w3.org/1999/xlink" width="16" height="16" viewBox="0 0 16 16" version="1.1">
<g id="surface1">
<path style=" stroke:none;fill-rule:nonzero;fill:rgb(100%,74.901962%,0%);fill-opacity:1;" d="M 8 2.667969 C 5.054688 2.667969 2.667969 3.5625 2.667969 4.667969 L 2.667969 11.332031 C 2.667969 12.4375 5.054688 13.332031 8 13.332031 C 8.648438 13.332031 9.289062 13.289062 9.890625 13.203125 L 9.332031 12.609375 C 8.902344 12.648438 8.453125 12.667969 8 12.667969 C 5.421875 12.667969 3.332031 12.070312 3.332031 11.332031 L 3.332031 8.96875 C 4.273438 9.601562 6.058594 10 8 10 C 8.777344 10 9.542969 9.933594 10.246094 9.808594 L 11.050781 9.007812 C 10.203125 9.214844 9.121094 9.332031 8 9.332031 C 5.421875 9.332031 3.332031 8.738281 3.332031 8 L 3.332031 5.632812 C 4.273438 6.269531 6.058594 6.667969 8 6.667969 C 9.941406 6.664062 11.730469 6.269531 12.667969 5.628906 L 12.667969 8 C 12.664062 8.246094 12.425781 8.488281 11.972656 8.695312 L 12.398438 9.121094 C 12.496094 9.070312 12.582031 9.019531 12.667969 8.964844 L 12.667969 9.390625 L 13.332031 10.058594 L 13.332031 4.667969 C 13.332031 3.5625 10.945312 2.667969 8 2.667969 Z M 8 3.332031 C 10.578125 3.332031 12.667969 3.929688 12.667969 4.667969 C 12.667969 5.402344 10.578125 6 8 6 C 5.421875 6 3.332031 5.402344 3.332031 4.667969 C 3.332031 3.929688 5.421875 3.332031 8 3.332031 Z M 11.667969 9.332031 L 9.332031 11.667969 L 9.804688 12.136719 L 11.332031 10.609375 L 11.332031 13.472656 L 12 13.472656 L 12 10.609375 L 13.527344 12.136719 L 14 11.667969 L 11.804688 9.472656 Z M 11.667969 9.332031 "/>
</g>
</svg>
