<svg xmlns="http://www.w3.org/2000/svg" xmlns:xlink="http://www.w3.org/1999/xlink" width="16" height="16" viewBox="0 0 16 16" version="1.1">
<g id="surface1">
<path style=" stroke:none;fill-rule:nonzero;fill:rgb(96.862745%,0%,100%);fill-opacity:1;" d="M 4.332031 3.332031 C 3.414062 3.332031 2.667969 4.078125 2.667969 5 C 2.667969 5.921875 3.414062 6.667969 4.332031 6.667969 C 5.253906 6.667969 6 5.921875 6 5 C 6 4.078125 5.253906 3.332031 4.332031 3.332031 Z M 4.332031 4 C 4.886719 4 5.332031 4.449219 5.332031 5 C 5.332031 5.550781 4.886719 6 4.332031 6 C 3.78125 6 3.332031 5.550781 3.332031 5 C 3.332031 4.449219 3.78125 4 4.332031 4 Z M 4.332031 4 "/>
<path style=" stroke:none;fill-rule:nonzero;fill:rgb(96.862745%,0%,100%);fill-opacity:1;" d="M 4 6 L 4 10 C 4 10.722656 4.578125 11.316406 5.300781 11.332031 C 5.3125 11.332031 5.324219 11.332031 5.332031 11.332031 L 8 11.332031 L 8 10.667969 L 5.332031 10.667969 C 4.964844 10.667969 4.667969 10.367188 4.667969 10 L 4.667969 6 Z M 4 6 "/>
<path style=" stroke:none;fill-rule:nonzero;fill:rgb(96.862745%,0%,100%);fill-opacity:1;" d="M 6.332031 8.527344 L 5.863281 9 L 7.863281 11 L 5.863281 13 L 6.332031 13.472656 L 8.804688 11 Z M 6.332031 8.527344 "/>
<path style=" stroke:none;fill-rule:nonzero;fill:rgb(96.862745%,0%,100%);fill-opacity:1;" d="M 11 12.667969 C 11.921875 12.667969 12.667969 11.921875 12.667969 11 C 12.667969 10.078125 11.921875 9.332031 11 9.332031 C 10.078125 9.332031 9.332031 10.078125 9.332031 11 C 9.332031 11.921875 10.078125 12.667969 11 12.667969 Z M 11 12 C 10.449219 12 10 11.550781 10 11 C 10 10.449219 10.449219 10 11 10 C 11.550781 10 12 10.449219 12 11 C 12 11.550781 11.550781 12 11 12 Z M 11 12 "/>
<path style=" stroke:none;fill-rule:nonzero;fill:rgb(96.862745%,0%,100%);fill-opacity:1;" d="M 11.332031 10 L 11.332031 6 C 11.332031 5.277344 10.757812 4.683594 10.03125 4.667969 C 10.023438 4.667969 10.011719 4.667969 10 4.667969 L 7.332031 4.667969 L 7.332031 5.332031 L 10 5.332031 C 10.367188 5.332031 10.667969 5.632812 10.667969 6 L 10.667969 10 Z M 11.332031 10 "/>
<path style=" stroke:none;fill-rule:nonzero;fill:rgb(96.862745%,0%,100%);fill-opacity:1;" d="M 9 2.527344 L 8.765625 2.765625 L 6.527344 5 L 8.765625 7.234375 L 9 7.472656 L 9.472656 7 L 9.234375 6.765625 L 7.472656 5 L 9.234375 3.234375 L 9.472656 3 Z M 9 2.527344 "/>
</g>
</svg>
