<svg xmlns="http://www.w3.org/2000/svg" xmlns:xlink="http://www.w3.org/1999/xlink" width="16" height="16" viewBox="0 0 16 16" version="1.1">
<g id="surface1">
<path style=" stroke:none;fill-rule:nonzero;fill:rgb(0%,80.000001%,100%);fill-opacity:1;" d="M 9.351562 3.332031 C 9.253906 3.335938 9.152344 3.34375 9.046875 3.359375 C 8.667969 3.410156 8.210938 3.59375 7.703125 3.867188 C 6.675781 3.296875 5.875 3.261719 5.203125 3.4375 C 4.492188 3.621094 3.914062 3.921875 3.011719 3.894531 L 2.667969 3.882812 L 2.667969 13.332031 L 12.667969 13.332031 L 12.667969 3.894531 L 12.320312 3.90625 C 11.3125 3.945312 10.808594 3.644531 10.15625 3.449219 C 9.910156 3.375 9.648438 3.328125 9.351562 3.332031 Z M 6.144531 3.996094 C 6.476562 4.023438 6.855469 4.140625 7.332031 4.40625 L 7.332031 10.222656 C 6.597656 9.792969 5.859375 9.761719 5.210938 9.925781 C 4.777344 10.03125 4.378906 10.160156 4 10.257812 L 4 4.441406 C 4.535156 4.34375 4.984375 4.1875 5.371094 4.089844 C 5.523438 4.046875 5.671875 4.015625 5.824219 4 C 5.929688 3.988281 6.035156 3.988281 6.144531 3.996094 Z M 9.558594 4 C 9.695312 4.019531 9.828125 4.050781 9.964844 4.09375 C 10.324219 4.199219 10.761719 4.367188 11.332031 4.46875 L 11.332031 10.257812 C 10.953125 10.15625 10.558594 10.027344 10.125 9.921875 C 9.472656 9.757812 8.730469 9.796875 8 10.246094 L 8 4.445312 C 8.46875 4.1875 8.832031 4.046875 9.121094 4.003906 C 9.28125 3.980469 9.421875 3.984375 9.558594 4 Z M 9.558594 4 "/>
</g>
</svg>
