<svg xmlns="http://www.w3.org/2000/svg" xmlns:xlink="http://www.w3.org/1999/xlink" width="16" height="16" viewBox="0 0 16 16" version="1.1">
<g id="surface1">
<path style=" stroke:none;fill-rule:nonzero;fill:rgb(100%,30.980393%,30.980393%);fill-opacity:1;" d="M 9.332031 4 L 9.332031 4.667969 L 3.332031 4.667969 L 3.332031 6 L 9.332031 6 L 9.332031 6.667969 L 10.667969 6.667969 L 10.667969 4 Z M 11.332031 4.667969 L 11.332031 6 L 12.667969 6 L 12.667969 4.667969 Z M 5.332031 6.667969 L 5.332031 7.332031 L 3.332031 7.332031 L 3.332031 8.667969 L 5.332031 8.667969 L 5.332031 9.332031 L 6.667969 9.332031 L 6.667969 6.667969 Z M 7.332031 7.332031 L 7.332031 8.667969 L 12.667969 8.667969 L 12.667969 7.332031 Z M 8 9.332031 L 8 10 L 3.332031 10 L 3.332031 11.332031 L 8 11.332031 L 8 12 L 9.332031 12 L 9.332031 9.332031 Z M 10 10 L 10 11.332031 L 12.667969 11.332031 L 12.667969 10 Z M 10 10 "/>
</g>
</svg>
