<svg xmlns="http://www.w3.org/2000/svg" xmlns:xlink="http://www.w3.org/1999/xlink" width="16" height="16" viewBox="0 0 16 16" version="1.1">
<g id="surface1">
<path style=" stroke:none;fill-rule:nonzero;fill:rgb(0%,100%,66.666669%);fill-opacity:1;" d="M 4 3.332031 L 2.667969 7.332031 L 2.667969 12 L 3.332031 12 L 3.332031 13.332031 L 4.667969 13.332031 L 4.667969 12 L 11.332031 12 L 11.332031 13.332031 L 12.667969 13.332031 L 12.667969 12 L 13.332031 12 L 13.332031 7.332031 L 12 3.332031 Z M 4.960938 4.667969 L 11.039062 4.667969 L 11.707031 6.667969 L 4.296875 6.667969 Z M 5 8.667969 C 5.550781 8.667969 6 9.113281 6 9.667969 C 6 10.21875 5.550781 10.667969 5 10.667969 C 4.449219 10.667969 4 10.21875 4 9.667969 C 4 9.113281 4.449219 8.667969 5 8.667969 Z M 11 8.667969 C 11.550781 8.667969 12 9.113281 12 9.667969 C 12 10.21875 11.550781 10.667969 11 10.667969 C 10.449219 10.667969 10 10.21875 10 9.667969 C 10 9.113281 10.449219 8.667969 11 8.667969 Z M 11 8.667969 "/>
</g>
</svg>
