<svg xmlns="http://www.w3.org/2000/svg" xmlns:xlink="http://www.w3.org/1999/xlink" width="16" height="16" viewBox="0 0 16 16" version="1.1">
<g id="surface1">
<path style=" stroke:none;fill-rule:nonzero;fill:rgb(100%,30.980393%,30.980393%);fill-opacity:1;" d="M 2.667969 3.332031 L 2.667969 12.664062 C 4.667969 12.664062 6.667969 12.664062 8.667969 12.664062 L 8.667969 8.664062 L 12.667969 8.664062 L 12.667969 8.667969 L 13.332031 8.667969 L 13.332031 3.335938 C 9.777344 3.335938 6.222656 3.332031 2.667969 3.332031 Z M 8.667969 4.667969 L 12.667969 4.667969 L 12.667969 5.332031 L 8.667969 5.332031 Z M 5 5.332031 C 5.554688 5.332031 6 5.777344 6 6.332031 L 6 7.332031 L 6.667969 7.332031 L 6.667969 9.332031 L 3.332031 9.332031 L 3.332031 7.332031 L 4 7.332031 L 4 6.332031 C 4 5.777344 4.445312 5.332031 5 5.332031 Z M 5 6 C 4.816406 6 4.667969 6.148438 4.667969 6.332031 L 4.667969 7.332031 L 5.332031 7.332031 L 5.332031 6.332031 C 5.332031 6.148438 5.183594 6 5 6 Z M 8.667969 6.664062 L 12.667969 6.664062 L 12.667969 7.332031 L 8.667969 7.332031 Z M 11.332031 9.332031 L 11.332031 10 L 9.332031 10 L 9.332031 12 L 11.332031 12 L 11.332031 12.667969 L 13.332031 11 Z M 11.332031 9.332031 "/>
</g>
</svg>
