<svg xmlns="http://www.w3.org/2000/svg" xmlns:xlink="http://www.w3.org/1999/xlink" width="16" height="16" viewBox="0 0 16 16" version="1.1">
<g id="surface1">
<path style=" stroke:none;fill-rule:nonzero;fill:rgb(0%,100%,66.666669%);fill-opacity:1;" d="M 2.667969 3.332031 L 2.667969 12.667969 C 6.222656 12.664062 9.777344 12.671875 13.332031 12.667969 L 13.332031 3.335938 C 9.777344 3.335938 6.222656 3.332031 2.667969 3.332031 Z M 6.667969 4.667969 L 6.667969 9.332031 L 3.332031 9.332031 L 3.332031 4.667969 Z M 8.667969 4.667969 L 12.667969 4.667969 L 12.667969 5.332031 L 8.667969 5.332031 Z M 8.667969 6.667969 L 12.667969 6.667969 L 12.667969 7.332031 L 8.667969 7.332031 Z M 8.667969 8.667969 L 12.667969 8.667969 L 12.667969 9.332031 L 8.667969 9.332031 Z M 3.332031 10.667969 L 12.667969 10.667969 L 12.667969 11.332031 L 3.332031 11.332031 Z M 3.332031 10.667969 "/>
</g>
</svg>
