<svg xmlns="http://www.w3.org/2000/svg" xmlns:xlink="http://www.w3.org/1999/xlink" width="16" height="16" viewBox="0 0 16 16" version="1.1">
<g id="surface1">
<path style=" stroke:none;fill-rule:nonzero;fill:rgb(0%,80.000001%,100%);fill-opacity:1;" d="M 4.667969 2.667969 C 4.296875 2.667969 4 2.964844 4 3.332031 L 4 7.332031 L 11.332031 7.332031 C 12.058594 7.332031 12.667969 7.941406 12.667969 8.667969 L 12.667969 12.667969 C 12.667969 12.910156 12.59375 13.136719 12.476562 13.332031 L 12.667969 13.332031 C 13.035156 13.332031 13.332031 13.035156 13.332031 12.667969 L 13.332031 3.332031 C 13.332031 2.964844 13.035156 2.667969 12.667969 2.667969 Z M 5.332031 4 L 10 4 L 10 4.667969 L 5.332031 4.667969 Z M 10.667969 4 L 12 4 L 12 4.667969 L 10.667969 4.667969 Z M 5.332031 5.332031 L 8 5.332031 L 8 6 L 5.332031 6 Z M 3.332031 8 C 2.964844 8 2.667969 8.296875 2.667969 8.667969 L 2.667969 12.667969 C 2.667969 13.035156 2.964844 13.332031 3.332031 13.332031 L 11.332031 13.332031 C 11.703125 13.332031 12 13.035156 12 12.667969 L 12 8.667969 C 12 8.296875 11.703125 8 11.332031 8 Z M 5.3125 9.027344 C 5.390625 9.027344 5.46875 9.042969 5.542969 9.070312 C 5.847656 9.191406 6.015625 9.492188 6.058594 9.832031 C 6.082031 9.996094 6.058594 10.136719 6.035156 10.25 C 6.027344 10.296875 6.023438 10.300781 6.015625 10.335938 C 6.019531 10.335938 6.027344 10.335938 6.027344 10.339844 C 6.023438 10.339844 6.128906 10.195312 6.230469 10.050781 C 6.28125 9.976562 6.335938 9.902344 6.417969 9.828125 C 6.496094 9.757812 6.621094 9.667969 6.796875 9.675781 C 6.945312 9.679688 7.015625 9.742188 7.070312 9.785156 C 7.121094 9.828125 7.160156 9.871094 7.199219 9.914062 C 7.277344 9.996094 7.347656 10.085938 7.414062 10.15625 C 7.472656 10.214844 7.488281 10.25 7.554688 10.230469 C 7.617188 10.175781 7.640625 10.148438 7.660156 10.113281 C 7.71875 10.042969 7.769531 9.941406 7.847656 9.882812 C 7.933594 9.832031 8.109375 9.832031 8.191406 9.875 C 8.269531 9.921875 8.292969 9.957031 8.3125 9.980469 C 8.347656 10.03125 8.363281 10.058594 8.382812 10.097656 C 8.429688 10.179688 8.496094 10.296875 8.617188 10.484375 C 8.71875 10.640625 8.675781 10.847656 8.519531 10.945312 C 8.363281 11.046875 8.15625 11.003906 8.058594 10.847656 C 8.019531 10.792969 8.015625 10.777344 7.984375 10.730469 C 7.957031 10.757812 7.953125 10.777344 7.917969 10.804688 C 7.746094 10.941406 7.484375 10.960938 7.3125 10.894531 C 7.140625 10.828125 7.03125 10.71875 6.933594 10.621094 C 6.867188 10.550781 6.820312 10.492188 6.773438 10.4375 C 6.695312 10.546875 6.597656 10.925781 6.003906 11 C 5.410156 11.074219 5.335938 10.65625 5.335938 10.363281 C 5.347656 10.289062 5.355469 10.199219 5.378906 10.125 C 5.394531 10.042969 5.402344 9.9375 5.398438 9.917969 C 5.375 9.742188 5.308594 9.695312 5.300781 9.691406 C 5.289062 9.6875 5.253906 9.664062 5.128906 9.792969 C 5.042969 9.882812 4.960938 10.027344 4.867188 10.195312 C 4.796875 10.363281 4.683594 10.542969 4.664062 10.738281 C 4.621094 10.917969 4.398438 11.039062 4.21875 11 C 4.039062 10.960938 3.972656 10.773438 4.011719 10.59375 L 4.070312 10.328125 L 4.085938 10.296875 C 4.140625 10.179688 4.195312 10.027344 4.285156 9.863281 C 4.375 9.707031 4.476562 9.511719 4.648438 9.332031 C 4.832031 9.140625 5.074219 9.023438 5.3125 9.027344 Z M 4.003906 11.332031 L 8.671875 11.332031 L 8.671875 12 L 4.003906 12 Z M 9.335938 11.332031 L 10.671875 11.332031 L 10.671875 12 L 9.335938 12 Z M 9.335938 11.332031 "/>
</g>
</svg>
