<svg xmlns="http://www.w3.org/2000/svg" xmlns:xlink="http://www.w3.org/1999/xlink" width="16" height="16" viewBox="0 0 16 16" version="1.1">
<defs>
<filter id="alpha" filterUnits="objectBoundingBox" x="0%" y="0%" width="100%" height="100%">
  <feColorMatrix type="matrix" in="SourceGraphic" values="0 0 0 0 1 0 0 0 0 1 0 0 0 0 1 0 0 0 1 0"/>
</filter>
<mask id="mask0">
  <g filter="url(#alpha)">
<rect x="0" y="0" width="16" height="16" style="fill:rgb(0%,0%,0%);fill-opacity:0.3;stroke:none;"/>
  </g>
</mask>
<clipPath id="clip1">
  <rect x="0" y="0" width="16" height="16"/>
</clipPath>
<g id="surface5" clip-path="url(#clip1)">
<path style=" stroke:none;fill-rule:nonzero;fill:rgb(100%,30.980393%,30.980393%);fill-opacity:1;" d="M 2.667969 4.667969 L 2.667969 11.332031 L 13.332031 11.332031 L 13.332031 4.667969 Z M 4.667969 5.332031 L 11.332031 5.332031 L 11.332031 6 L 12 6 L 12 6.667969 L 12.667969 6.667969 L 12.667969 9.332031 L 12 9.332031 L 12 10 L 11.332031 10 L 11.332031 10.667969 L 4.667969 10.667969 L 4.667969 10 L 4 10 L 4 9.332031 L 3.332031 9.332031 L 3.332031 6.667969 L 4 6.667969 L 4 6 L 4.667969 6 Z M 5.332031 6 L 5.332031 6.667969 L 4.667969 6.667969 L 4.667969 7.332031 L 4 7.332031 L 4 8.667969 L 4.667969 8.667969 L 4.667969 9.332031 L 5.332031 9.332031 L 5.332031 10 L 10.667969 10 L 10.667969 9.332031 L 11.332031 9.332031 L 11.332031 8.667969 L 12 8.667969 L 12 7.332031 L 11.332031 7.332031 L 11.332031 6.667969 L 10.667969 6.667969 L 10.667969 6 Z M 8 6.667969 C 8.738281 6.667969 9.332031 7.261719 9.332031 8 C 9.332031 8.738281 8.738281 9.332031 8 9.332031 C 7.261719 9.332031 6.667969 8.738281 6.667969 8 C 6.667969 7.261719 7.261719 6.667969 8 6.667969 Z M 7.984375 7.332031 C 7.621094 7.34375 7.332031 7.636719 7.332031 8 C 7.332031 8.367188 7.632812 8.667969 8 8.667969 C 8.367188 8.667969 8.667969 8.367188 8.667969 8 C 8.667969 7.632812 8.367188 7.332031 8 7.332031 C 7.996094 7.332031 7.988281 7.332031 7.984375 7.332031 Z M 7.984375 7.332031 "/>
</g>
</defs>
<g id="surface1">
<use xlink:href="#surface5" mask="url(#mask0)"/>
</g>
</svg>
