<svg xmlns="http://www.w3.org/2000/svg" xmlns:xlink="http://www.w3.org/1999/xlink" width="16" height="16" viewBox="0 0 16 16" version="1.1">
<g id="surface1">
<path style=" stroke:none;fill-rule:nonzero;fill:rgb(100%,74.901962%,0%);fill-opacity:1;" d="M 4.445312 4.667969 L 2.667969 6.570312 L 2.667969 10.855469 C 2.667969 10.855469 2.667969 11.332031 3.109375 11.332031 L 7.554688 11.332031 C 7.554688 11.332031 8 11.332031 8 10.855469 C 8 11.332031 8.445312 11.332031 8.445312 11.332031 L 12.890625 11.332031 C 13.332031 11.332031 13.332031 10.855469 13.332031 10.855469 L 13.332031 6.570312 L 11.554688 4.667969 L 8.445312 4.667969 C 8.445312 4.667969 8 4.667969 8 5.144531 C 8 4.667969 7.554688 4.667969 7.554688 4.667969 Z M 4.941406 6 L 6.667969 6 L 6.667969 10 L 4 10 L 4 7.132812 Z M 9.332031 6 L 11.058594 6 L 12 7.132812 L 12 10 L 9.332031 10 Z M 9.332031 6 "/>
</g>
</svg>
