<svg xmlns="http://www.w3.org/2000/svg" xmlns:xlink="http://www.w3.org/1999/xlink" width="16" height="16" viewBox="0 0 16 16" version="1.1">
<g id="surface1">
<path style=" stroke:none;fill-rule:nonzero;fill:rgb(96.862745%,0%,100%);fill-opacity:1;" d="M 7.109375 2.667969 L 5.332031 4.570312 L 5.332031 8.855469 C 5.332031 8.855469 5.332031 9.332031 5.777344 9.332031 L 10.222656 9.332031 C 10.222656 9.332031 10.667969 9.332031 10.667969 8.855469 L 10.667969 3.144531 C 10.667969 2.667969 10.222656 2.667969 10.222656 2.667969 Z M 7.609375 4 L 9.332031 4 L 9.332031 8 L 6.667969 8 L 6.667969 5.132812 Z M 4.445312 6.667969 L 2.667969 8.570312 L 2.667969 12.855469 C 2.667969 12.855469 2.667969 13.332031 3.109375 13.332031 L 7.554688 13.332031 C 7.554688 13.332031 8 13.332031 8 12.855469 C 8 12.855469 8 13.332031 8.445312 13.332031 L 12.890625 13.332031 C 12.890625 13.332031 13.332031 13.332031 13.332031 12.855469 L 13.332031 7.144531 C 13.332031 6.667969 12.890625 6.667969 12.890625 6.667969 L 11.332031 6.667969 L 11.332031 8 L 12 8 L 12 12 L 9.332031 12 L 9.332031 10 L 6.667969 10 L 6.667969 12 L 4 12 L 4 9.132812 L 4.667969 8.332031 L 4.667969 6.667969 Z M 4.445312 6.667969 "/>
</g>
</svg>
