<svg xmlns="http://www.w3.org/2000/svg" xmlns:xlink="http://www.w3.org/1999/xlink" width="16" height="16" viewBox="0 0 16 16" version="1.1">
<g id="surface1">
<path style=" stroke:none;fill-rule:nonzero;fill:rgb(67.058825%,40.000001%,100%);fill-opacity:1;" d="M 4.667969 3.332031 C 3.167969 3.332031 3.332031 4.667969 3.332031 4.667969 L 3.332031 12.667969 L 8.667969 12.667969 L 8.667969 11.332031 L 4.667969 11.332031 L 4.667969 4.667969 L 11.332031 4.667969 L 11.332031 4.777344 L 7.3125 9.375 L 5.8125 7.875 C 5.5625 7.625 5.105469 7.625 4.855469 7.875 C 4.730469 8 4.667969 8.175781 4.667969 8.355469 C 4.667969 8.53125 4.730469 8.707031 4.855469 8.832031 L 6.855469 10.832031 L 7.375 11.332031 L 7.835938 10.792969 L 11.332031 6.792969 L 11.332031 8.667969 L 12.667969 8.667969 L 12.667969 4.667969 C 12.667969 3.332031 11.332031 3.332031 11.332031 3.332031 Z M 9.90625 9.332031 C 9.265625 9.332031 9.335938 9.90625 9.335938 9.90625 L 9.335938 13.332031 L 13.332031 13.332031 L 13.332031 9.90625 C 13.332031 9.332031 12.761719 9.332031 12.761719 9.332031 Z M 9.90625 9.332031 "/>
</g>
</svg>
