<svg xmlns="http://www.w3.org/2000/svg" xmlns:xlink="http://www.w3.org/1999/xlink" width="16" height="16" viewBox="0 0 16 16" version="1.1">
<g id="surface1">
<path style=" stroke:none;fill-rule:nonzero;fill:rgb(67.058825%,40.000001%,100%);fill-opacity:1;" d="M 7.332031 3.332031 L 2.667969 8 L 4 8 L 4 12.667969 L 10.667969 12.667969 L 10.667969 8 L 12 8 Z M 7.332031 6.667969 C 8.070312 6.667969 8.667969 7.261719 8.667969 8 C 8.667969 8.738281 8.070312 9.332031 7.332031 9.332031 C 9.332031 9.332031 9.332031 10.933594 9.332031 10.933594 L 9.332031 11.332031 L 5.332031 11.332031 L 5.332031 10.933594 C 5.332031 10.933594 5.332031 9.335938 7.332031 9.332031 C 6.597656 9.332031 6 8.738281 6 8 C 6 7.261719 6.597656 6.667969 7.332031 6.667969 Z M 12 10 L 12 11.332031 L 11.332031 11.332031 L 12.332031 13.332031 L 13.332031 11.332031 L 12.667969 11.332031 L 12.667969 10 Z M 12 10 "/>
</g>
</svg>
