<svg xmlns="http://www.w3.org/2000/svg" xmlns:xlink="http://www.w3.org/1999/xlink" width="16" height="16" viewBox="0 0 16 16" version="1.1">
<g id="surface1">
<path style=" stroke:none;fill-rule:nonzero;fill:rgb(0%,80.000001%,100%);fill-opacity:1;" d="M 7.332031 3.332031 L 2.667969 8 L 4 8 L 4 12.667969 L 9.585938 12.667969 C 9.429688 12.347656 9.332031 11.996094 9.332031 11.617188 C 9.332031 10.6875 9.882812 9.894531 10.667969 9.511719 L 10.667969 8 L 12 8 Z M 7.332031 6.667969 C 8.070312 6.667969 8.667969 7.261719 8.667969 8 C 8.667969 8.738281 8.070312 9.332031 7.332031 9.332031 C 9.332031 9.332031 9.332031 10.933594 9.332031 10.933594 L 9.332031 11.332031 L 5.332031 11.332031 L 5.332031 10.933594 C 5.332031 10.933594 5.332031 9.335938 7.332031 9.332031 C 6.597656 9.332031 6 8.738281 6 8 C 6 7.261719 6.597656 6.667969 7.332031 6.667969 Z M 11.667969 9.332031 L 11.667969 9.90625 C 10.746094 9.90625 10 10.671875 10 11.617188 C 10 12.566406 10.746094 13.332031 11.667969 13.332031 C 12.578125 13.332031 13.316406 12.582031 13.332031 11.648438 C 13.332031 11.636719 13.332031 11.628906 13.332031 11.617188 C 13.332031 11.460938 13.210938 11.332031 13.054688 11.332031 C 12.980469 11.332031 12.910156 11.363281 12.859375 11.417969 C 12.808594 11.46875 12.777344 11.542969 12.777344 11.617188 C 12.777344 12.25 12.28125 12.761719 11.667969 12.761719 C 11.054688 12.761719 10.554688 12.25 10.554688 11.617188 C 10.554688 10.988281 11.054688 10.476562 11.667969 10.476562 L 11.667969 11.046875 L 12.777344 10.191406 Z M 11.667969 9.332031 "/>
</g>
</svg>
