<svg xmlns="http://www.w3.org/2000/svg" xmlns:xlink="http://www.w3.org/1999/xlink" width="16" height="16" viewBox="0 0 16 16" version="1.1">
<g id="surface1">
<path style=" stroke:none;fill-rule:nonzero;fill:rgb(0%,100%,66.666669%);fill-opacity:1;" d="M 5.332031 5 C 5.332031 5.550781 4.886719 6 4.332031 6 C 3.78125 6 3.332031 5.550781 3.332031 5 C 3.332031 4.449219 3.78125 4 4.332031 4 C 4.886719 4 5.332031 4.449219 5.332031 5 Z M 5.332031 5 "/>
<path style=" stroke:none;fill-rule:nonzero;fill:rgb(0%,100%,66.666669%);fill-opacity:1;" d="M 5.332031 7.667969 C 5.332031 8.21875 4.886719 8.667969 4.332031 8.667969 C 3.78125 8.667969 3.332031 8.21875 3.332031 7.667969 C 3.332031 7.113281 3.78125 6.667969 4.332031 6.667969 C 4.886719 6.667969 5.332031 7.113281 5.332031 7.667969 Z M 5.332031 7.667969 "/>
<path style=" stroke:none;fill-rule:nonzero;fill:rgb(0%,100%,66.666669%);fill-opacity:1;" d="M 5.332031 10.332031 C 5.332031 10.886719 4.886719 11.332031 4.332031 11.332031 C 3.78125 11.332031 3.332031 10.886719 3.332031 10.332031 C 3.332031 9.78125 3.78125 9.332031 4.332031 9.332031 C 4.886719 9.332031 5.332031 9.78125 5.332031 10.332031 Z M 5.332031 10.332031 "/>
<path style=" stroke:none;fill-rule:nonzero;fill:rgb(0%,100%,66.666669%);fill-opacity:1;" d="M 8 11.332031 L 8 8.667969 L 6 8.667969 L 9.332031 4 L 12.667969 8.667969 L 10.667969 8.667969 L 10.667969 11.332031 Z M 8 11.332031 "/>
</g>
</svg>
