<svg xmlns="http://www.w3.org/2000/svg" xmlns:xlink="http://www.w3.org/1999/xlink" width="16" height="16" viewBox="0 0 16 16" version="1.1">
<g id="surface1">
<path style=" stroke:none;fill-rule:nonzero;fill:rgb(96.862745%,0%,100%);fill-opacity:1;" d="M 4.332031 3.332031 C 4.148438 3.332031 4 3.480469 4 3.667969 L 4 4.332031 C 4 4.519531 4.148438 4.667969 4.332031 4.667969 L 7 4.667969 C 7.183594 4.667969 7.332031 4.519531 7.332031 4.332031 L 7.332031 3.667969 C 7.332031 3.480469 7.183594 3.332031 7 3.332031 Z M 4.332031 5.332031 C 4.148438 5.332031 4 5.480469 4 5.667969 L 4 6.332031 C 4 6.519531 4.148438 6.667969 4.332031 6.667969 L 7 6.667969 C 7.183594 6.667969 7.332031 6.519531 7.332031 6.332031 L 7.332031 5.667969 C 7.332031 5.480469 7.183594 5.332031 7 5.332031 Z M 4.332031 7.332031 C 4.148438 7.332031 4 7.480469 4 7.667969 L 4 8.332031 C 4 8.519531 4.148438 8.667969 4.332031 8.667969 L 7 8.667969 C 7.183594 8.667969 7.332031 8.519531 7.332031 8.332031 L 7.332031 7.667969 C 7.332031 7.480469 7.183594 7.332031 7 7.332031 Z M 9 7.332031 C 8.816406 7.332031 8.667969 7.480469 8.667969 7.667969 L 8.667969 8.332031 C 8.667969 8.519531 8.816406 8.667969 9 8.667969 L 11.667969 8.667969 C 11.851562 8.667969 12 8.519531 12 8.332031 L 12 7.667969 C 12 7.480469 11.851562 7.332031 11.667969 7.332031 Z M 4.332031 9.332031 C 4.148438 9.332031 4 9.480469 4 9.667969 L 4 10.332031 C 4 10.519531 4.148438 10.667969 4.332031 10.667969 L 7 10.667969 C 7.183594 10.667969 7.332031 10.519531 7.332031 10.332031 L 7.332031 9.667969 C 7.332031 9.480469 7.183594 9.332031 7 9.332031 Z M 9 9.332031 C 8.816406 9.332031 8.667969 9.480469 8.667969 9.667969 L 8.667969 10.332031 C 8.667969 10.519531 8.816406 10.667969 9 10.667969 L 11.667969 10.667969 C 11.851562 10.667969 12 10.519531 12 10.332031 L 12 9.667969 C 12 9.480469 11.851562 9.332031 11.667969 9.332031 Z M 4.332031 11.332031 C 4.148438 11.332031 4 11.480469 4 11.667969 L 4 12.332031 C 4 12.519531 4.148438 12.667969 4.332031 12.667969 L 7 12.667969 C 7.183594 12.667969 7.332031 12.519531 7.332031 12.332031 L 7.332031 11.667969 C 7.332031 11.480469 7.183594 11.332031 7 11.332031 Z M 9 11.332031 C 8.816406 11.332031 8.667969 11.480469 8.667969 11.667969 L 8.667969 12.332031 C 8.667969 12.519531 8.816406 12.667969 9 12.667969 L 11.667969 12.667969 C 11.851562 12.667969 12 12.519531 12 12.332031 L 12 11.667969 C 12 11.480469 11.851562 11.332031 11.667969 11.332031 Z M 9 11.332031 "/>
</g>
</svg>
