<svg xmlns="http://www.w3.org/2000/svg" xmlns:xlink="http://www.w3.org/1999/xlink" width="16" height="16" viewBox="0 0 16 16" version="1.1">
<g id="surface1">
<path style=" stroke:none;fill-rule:nonzero;fill:rgb(96.862745%,0%,100%);fill-opacity:1;" d="M 4 2.667969 C 2.667969 2.667969 2.667969 4 2.667969 4 L 2.667969 10 C 2.667969 10 2.667969 11.335938 4 11.335938 L 12 11.335938 C 12 11.335938 13.332031 11.335938 13.332031 10 L 13.332031 4 C 13.332031 4 13.332031 2.667969 12 2.667969 Z M 6 4 L 8 5.285156 L 10 6.566406 L 8.050781 7.949219 L 6.097656 9.332031 L 6.050781 6.667969 Z M 5.320312 12 C 5.320312 12 4.667969 12.003906 4.667969 12.667969 L 4.667969 13.332031 L 11.332031 13.332031 L 11.332031 12.667969 C 11.332031 12.003906 10.667969 12 10.667969 12 Z M 5.320312 12 "/>
</g>
</svg>
