<svg xmlns="http://www.w3.org/2000/svg" xmlns:xlink="http://www.w3.org/1999/xlink" width="16" height="16" viewBox="0 0 16 16" version="1.1">
<g id="surface1">
<path style=" stroke:none;fill-rule:nonzero;fill:rgb(0%,100%,66.666669%);fill-opacity:1;" d="M 4 3.332031 C 4 3.332031 3.949219 3.335938 3.878906 3.347656 C 3.742188 3.367188 3.640625 3.417969 3.5625 3.484375 C 3.550781 3.496094 3.535156 3.507812 3.519531 3.519531 C 3.507812 3.535156 3.496094 3.550781 3.484375 3.5625 C 3.417969 3.640625 3.367188 3.742188 3.347656 3.878906 C 3.335938 3.949219 3.335938 4 3.335938 4 L 3.335938 12 C 3.335938 12.667969 4.003906 12.667969 4.003906 12.667969 L 12.003906 12.667969 C 12.003906 12.667969 12.667969 12.667969 12.667969 12 L 12.667969 4 C 12.667969 4 12.667969 3.949219 12.652344 3.878906 C 12.632812 3.742188 12.585938 3.640625 12.519531 3.5625 C 12.507812 3.550781 12.496094 3.535156 12.480469 3.519531 C 12.46875 3.507812 12.453125 3.496094 12.4375 3.484375 C 12.363281 3.417969 12.261719 3.367188 12.125 3.347656 C 12.058594 3.335938 12.003906 3.332031 12.003906 3.332031 Z M 5.332031 6 L 7.332031 6 L 7.332031 10 L 5.332031 10 Z M 8 6.667969 L 10.667969 6.667969 L 10.667969 7.332031 L 8 7.332031 Z M 8 8.667969 L 10.667969 8.667969 L 10.667969 9.332031 L 8 9.332031 Z M 8 8.667969 "/>
</g>
</svg>
