<svg xmlns="http://www.w3.org/2000/svg" xmlns:xlink="http://www.w3.org/1999/xlink" width="16" height="16" viewBox="0 0 16 16" version="1.1">
<g id="surface1">
<path style=" stroke:none;fill-rule:nonzero;fill:rgb(0%,100%,66.666669%);fill-opacity:1;" d="M 7.667969 4 C 6.746094 4 6 4.746094 6 5.667969 C 6 5.777344 6.011719 5.890625 6.035156 6 L 9.300781 6 C 9.320312 5.890625 9.332031 5.777344 9.332031 5.667969 C 9.332031 4.746094 8.585938 4 7.667969 4 Z M 11.332031 5.332031 C 10.597656 5.332031 10 5.929688 10 6.667969 L 7.332031 6.667969 C 6.117188 6.667969 5.058594 7.488281 4.753906 8.667969 L 4.0625 8.667969 C 3.507812 8.660156 3.363281 8.425781 3.335938 8.277344 C 3.324219 8.199219 3.34375 8.136719 3.386719 8.089844 C 3.425781 8.039062 3.492188 7.996094 3.640625 7.996094 C 3.757812 7.996094 3.871094 7.929688 3.929688 7.828125 C 3.988281 7.722656 3.988281 7.59375 3.925781 7.492188 C 3.867188 7.386719 3.753906 7.324219 3.632812 7.328125 C 3.328125 7.332031 3.050781 7.453125 2.878906 7.65625 C 2.707031 7.855469 2.636719 8.125 2.679688 8.382812 C 2.761719 8.894531 3.28125 9.324219 4.058594 9.332031 C 4.058594 9.332031 4.058594 9.332031 4.0625 9.332031 L 4.667969 9.332031 C 4.667969 10.546875 5.488281 11.609375 6.667969 11.914062 L 6.667969 12.667969 L 8 12.667969 L 8 12 L 9.332031 12 L 9.332031 12.667969 L 10.667969 12.667969 L 10.667969 11.910156 C 11.359375 11.734375 11.949219 11.285156 12.304688 10.667969 L 13.332031 10.667969 L 13.332031 8.667969 L 12.578125 8.667969 C 12.398438 7.976562 11.949219 7.386719 11.332031 7.027344 Z M 11 8 C 11.183594 8 11.332031 8.148438 11.332031 8.332031 C 11.332031 8.515625 11.183594 8.667969 11 8.667969 C 10.816406 8.667969 10.667969 8.515625 10.667969 8.332031 C 10.667969 8.148438 10.816406 8 11 8 Z M 11 8 "/>
</g>
</svg>
