<svg xmlns="http://www.w3.org/2000/svg" xmlns:xlink="http://www.w3.org/1999/xlink" width="16" height="16" viewBox="0 0 16 16" version="1.1">
<g id="surface1">
<path style=" stroke:none;fill-rule:nonzero;fill:rgb(0%,80.000001%,100%);fill-opacity:1;" d="M 3.332031 3.335938 L 3.332031 12.003906 L 4.667969 12.003906 L 4.667969 3.335938 Z M 5.332031 3.335938 L 5.332031 7.335938 L 6 7.335938 L 6 3.335938 Z M 6.667969 3.335938 L 6.667969 12.003906 L 7.332031 12.003906 L 7.332031 3.335938 Z M 8 3.335938 L 8 8.667969 L 8.667969 8.667969 L 8.667969 3.335938 Z M 9.332031 3.335938 L 9.332031 7.335938 L 10 7.335938 L 10 3.335938 Z M 10.667969 3.335938 L 10.667969 7.335938 L 12.667969 7.335938 L 12.667969 3.335938 Z M 10 8.003906 C 9.632812 8.003906 9.332031 8.300781 9.332031 8.667969 L 9.332031 9.335938 L 8.667969 9.335938 C 8.296875 9.335938 8 9.632812 8 10.003906 L 8 10.667969 C 8 11.039062 8.296875 11.335938 8.667969 11.335938 L 9.332031 11.335938 L 9.332031 12.003906 C 9.332031 12.371094 9.632812 12.667969 10 12.667969 L 10.667969 12.667969 C 11.035156 12.667969 11.332031 12.371094 11.332031 12.003906 L 11.332031 11.335938 L 12 11.335938 C 12.367188 11.335938 12.667969 11.039062 12.667969 10.667969 L 12.667969 10.003906 C 12.667969 9.632812 12.367188 9.335938 12 9.335938 L 11.332031 9.335938 L 11.332031 8.667969 C 11.332031 8.300781 11.035156 8.003906 10.667969 8.003906 Z M 10 8.003906 "/>
</g>
</svg>
