<svg xmlns="http://www.w3.org/2000/svg" xmlns:xlink="http://www.w3.org/1999/xlink" width="16" height="16" viewBox="0 0 16 16" version="1.1">
<g id="surface1">
<path style=" stroke:none;fill-rule:nonzero;fill:rgb(0%,80.000001%,100%);fill-opacity:1;" d="M 9.238281 3.65625 L 8.09375 4.34375 L 10 7.519531 L 10 8 L 8.667969 8 L 8.667969 8.667969 L 10 8.667969 L 10 9.332031 L 8.667969 9.332031 L 8.667969 10 L 10 10 L 10 12.667969 L 11.332031 12.667969 L 11.332031 10 L 12.667969 10 L 12.667969 9.332031 L 11.332031 9.332031 L 11.332031 8.667969 L 12.667969 8.667969 L 12.667969 8 L 11.332031 8 L 11.332031 7.519531 L 13.238281 4.34375 L 12.09375 3.65625 L 10.667969 6.039062 Z M 6.332031 4 C 4.945312 4.003906 3.738281 5.382812 3.417969 7.332031 L 2.667969 7.332031 L 2.667969 8 L 3.34375 8 C 3.335938 8.109375 3.332031 8.222656 3.332031 8.332031 C 3.335938 8.445312 3.339844 8.554688 3.34375 8.667969 L 2.667969 8.667969 L 2.667969 9.332031 L 3.417969 9.332031 C 3.738281 11.285156 4.945312 12.664062 6.332031 12.667969 C 7.355469 12.667969 8.308594 11.914062 8.859375 10.667969 L 7.378906 10.667969 C 7.082031 11.097656 6.714844 11.332031 6.332031 11.332031 C 5.628906 11.328125 5 10.53125 4.765625 9.332031 L 6.667969 9.332031 L 6.667969 8.667969 L 4.679688 8.667969 C 4.671875 8.554688 4.667969 8.441406 4.667969 8.332031 C 4.667969 8.21875 4.671875 8.109375 4.675781 8 L 8 8 L 8 7.332031 L 4.761719 7.332031 C 4.996094 6.132812 5.628906 5.332031 6.332031 5.332031 C 6.714844 5.332031 7.085938 5.566406 7.382812 6 L 8.859375 6 C 8.308594 4.753906 7.355469 4 6.332031 4 Z M 6.332031 4 "/>
</g>
</svg>
