<svg xmlns="http://www.w3.org/2000/svg" xmlns:xlink="http://www.w3.org/1999/xlink" width="16" height="16" viewBox="0 0 16 16" version="1.1">
<g id="surface1">
<path style=" stroke:none;fill-rule:nonzero;fill:rgb(0%,80.000001%,100%);fill-opacity:1;" d="M 4.667969 2.667969 C 4.296875 2.667969 4 2.964844 4 3.332031 L 4 7.332031 L 7.332031 7.332031 C 8.058594 7.332031 8.667969 7.941406 8.667969 8.667969 L 8.667969 12.667969 C 8.667969 12.910156 8.59375 13.136719 8.476562 13.332031 L 12.667969 13.332031 C 13.035156 13.332031 13.332031 13.035156 13.332031 12.667969 L 13.332031 3.332031 C 13.332031 2.964844 13.035156 2.667969 12.667969 2.667969 Z M 5.332031 4 L 10 4 L 10 4.667969 L 5.332031 4.667969 Z M 10.667969 4 L 12 4 L 12 4.667969 L 10.667969 4.667969 Z M 5.332031 5.332031 L 8 5.332031 L 8 6 L 5.332031 6 Z M 8.667969 6.667969 L 11.332031 6.667969 L 11.332031 7.332031 L 8.667969 7.332031 Z M 3.332031 8 C 2.964844 8 2.667969 8.296875 2.667969 8.667969 L 2.667969 12.667969 C 2.667969 13.035156 2.964844 13.332031 3.332031 13.332031 L 7.332031 13.332031 C 7.703125 13.332031 8 13.035156 8 12.667969 L 8 8.667969 C 8 8.296875 7.703125 8 7.332031 8 Z M 9.332031 8 L 10.667969 8 L 10.667969 8.667969 L 9.332031 8.667969 Z M 11.332031 8 L 12.667969 8 L 12.667969 8.667969 L 11.332031 8.667969 Z M 4 9.332031 L 6.667969 9.332031 L 6.667969 12 L 4 12 Z M 10 9.332031 L 12 9.332031 L 12 10 L 10 10 Z M 9.332031 10.667969 L 10 10.667969 L 10 11.332031 L 9.332031 11.332031 Z M 10.667969 10.667969 L 12.667969 10.667969 L 12.667969 11.332031 L 10.667969 11.332031 Z M 9.332031 12 L 11.332031 12 L 11.332031 12.667969 L 9.332031 12.667969 Z M 9.332031 12 "/>
</g>
</svg>
