<svg xmlns="http://www.w3.org/2000/svg" xmlns:xlink="http://www.w3.org/1999/xlink" width="16" height="16" viewBox="0 0 16 16" version="1.1">
<g id="surface1">
<path style=" stroke:none;fill-rule:nonzero;fill:rgb(100%,30.980393%,30.980393%);fill-opacity:1;" d="M 3.582031 3.332031 C 3.445312 3.332031 3.332031 3.445312 3.332031 3.582031 L 3.332031 5.082031 C 3.332031 5.222656 3.445312 5.332031 3.582031 5.332031 L 5.082031 5.332031 C 5.222656 5.332031 5.332031 5.222656 5.332031 5.082031 L 5.332031 3.582031 C 5.332031 3.445312 5.222656 3.332031 5.082031 3.332031 Z M 6 4 L 6 5.332031 L 12.667969 5.332031 L 12.667969 4 Z M 3.582031 6 C 3.445312 6 3.332031 6.113281 3.332031 6.25 L 3.332031 7.75 C 3.332031 7.886719 3.445312 8 3.582031 8 L 5.082031 8 C 5.222656 8 5.332031 7.886719 5.332031 7.75 L 5.332031 6.25 C 5.332031 6.113281 5.222656 6 5.082031 6 Z M 6 6.667969 L 6 8 L 12.667969 8 L 12.667969 6.667969 Z M 3.582031 8.667969 C 3.445312 8.667969 3.332031 8.777344 3.332031 8.917969 L 3.332031 10.417969 C 3.332031 10.554688 3.445312 10.667969 3.582031 10.667969 L 5.082031 10.667969 C 5.222656 10.667969 5.332031 10.554688 5.332031 10.417969 L 5.332031 8.917969 C 5.332031 8.777344 5.222656 8.667969 5.082031 8.667969 Z M 6 9.332031 L 6 10.667969 L 9.332031 10.667969 L 9.332031 9.332031 Z M 10.667969 10 C 10.296875 10 10 10.296875 10 10.667969 C 10 11.035156 10.296875 11.332031 10.667969 11.332031 C 11.035156 11.332031 11.332031 11.035156 11.332031 10.667969 C 11.332031 10.296875 11.035156 10 10.667969 10 Z M 12 10.035156 L 12 10.726562 C 12.398438 10.867188 12.667969 11.242188 12.667969 11.667969 C 12.667969 12.089844 12.398438 12.46875 12 12.609375 L 12 13.300781 C 12.777344 13.140625 13.332031 12.457031 13.332031 11.667969 C 13.332031 10.875 12.773438 10.195312 12 10.035156 Z M 3.582031 11.332031 C 3.445312 11.332031 3.332031 11.445312 3.332031 11.582031 L 3.332031 13.082031 C 3.332031 13.222656 3.445312 13.332031 3.582031 13.332031 L 5.082031 13.332031 C 5.222656 13.332031 5.332031 13.222656 5.332031 13.082031 L 5.332031 11.582031 C 5.332031 11.445312 5.222656 11.332031 5.082031 11.332031 Z M 6 12 L 6 13.332031 L 9.332031 13.332031 L 9.332031 12 Z M 10.667969 12 C 10.296875 12 10 12.296875 10 12.667969 C 10 13.035156 10.296875 13.332031 10.667969 13.332031 C 11.035156 13.332031 11.332031 13.035156 11.332031 12.667969 C 11.332031 12.296875 11.035156 12 10.667969 12 Z M 10.667969 12 "/>
</g>
</svg>
