<svg xmlns="http://www.w3.org/2000/svg" xmlns:xlink="http://www.w3.org/1999/xlink" width="16" height="16" viewBox="0 0 16 16" version="1.1">
<g id="surface1">
<path style=" stroke:none;fill-rule:nonzero;fill:rgb(0%,100%,66.666669%);fill-opacity:1;" d="M 3.332031 4 C 2.964844 4 2.667969 4.296875 2.667969 4.667969 L 2.667969 5.332031 L 13.332031 5.332031 L 13.332031 4.667969 C 13.332031 4.296875 13.035156 4 12.667969 4 Z M 2.667969 6.667969 L 2.667969 10.667969 C 2.667969 11.035156 2.964844 11.332031 3.332031 11.332031 L 12.667969 11.332031 C 13.035156 11.332031 13.332031 11.035156 13.332031 10.667969 L 13.332031 6.667969 Z M 3.332031 10 L 6 10 L 6 10.667969 L 3.332031 10.667969 Z M 6.667969 10 L 8 10 L 8 10.667969 L 6.667969 10.667969 Z M 6.667969 10 "/>
</g>
</svg>
