<svg xmlns="http://www.w3.org/2000/svg" xmlns:xlink="http://www.w3.org/1999/xlink" width="16" height="16" viewBox="0 0 16 16" version="1.1">
<g id="surface1">
<path style=" stroke:none;fill-rule:nonzero;fill:rgb(0%,80.000001%,100%);fill-opacity:1;" d="M 4.667969 2.667969 C 4.296875 2.667969 4 2.964844 4 3.332031 L 4 7.332031 L 11.332031 7.332031 C 12.058594 7.332031 12.667969 7.941406 12.667969 8.667969 L 12.667969 9.332031 L 13.332031 9.332031 L 13.332031 3.332031 C 13.332031 2.964844 13.035156 2.667969 12.667969 2.667969 Z M 5.332031 4 L 10 4 L 10 4.667969 L 5.332031 4.667969 Z M 10.667969 4 L 12 4 L 12 4.667969 L 10.667969 4.667969 Z M 5.332031 5.332031 L 8 5.332031 L 8 6 L 5.332031 6 Z M 3.332031 8 C 2.964844 8 2.667969 8.296875 2.667969 8.667969 L 2.667969 12.667969 C 2.667969 13.035156 2.964844 13.332031 3.332031 13.332031 L 9.332031 13.332031 L 9.332031 9.332031 L 12 9.332031 L 12 8.667969 C 12 8.296875 11.703125 8 11.332031 8 Z M 11.332031 10.667969 L 10 11.667969 L 11.332031 12.667969 L 11.332031 12 L 13.332031 12 L 13.332031 11.332031 L 11.332031 11.332031 Z M 3.332031 12 L 4 12 L 4 12.667969 L 3.332031 12.667969 Z M 4.667969 12 L 5.332031 12 L 5.332031 12.667969 L 4.667969 12.667969 Z M 6 12 L 6.667969 12 L 6.667969 12.667969 L 6 12.667969 Z M 7.332031 12 L 8 12 L 8 12.667969 L 7.332031 12.667969 Z M 7.332031 12 "/>
</g>
</svg>
