<svg xmlns="http://www.w3.org/2000/svg" xmlns:xlink="http://www.w3.org/1999/xlink" width="16" height="16" viewBox="0 0 16 16" version="1.1">
<g id="surface1">
<path style=" stroke:none;fill-rule:nonzero;fill:rgb(0%,80.000001%,100%);fill-opacity:1;" d="M 5.332031 4.003906 L 5.332031 6.003906 L 3.332031 6.003906 L 3.332031 7.335938 L 6 7.335938 C 6.667969 7.335938 6.667969 6.667969 6.667969 6.667969 L 6.667969 4.003906 Z M 9.332031 4.003906 L 9.332031 6.667969 C 9.332031 6.667969 9.332031 7.335938 10 7.335938 L 12.667969 7.335938 L 12.667969 6.003906 L 10.667969 6.003906 L 10.667969 4.003906 Z M 3.332031 8.667969 L 3.332031 10.003906 L 5.332031 10.003906 L 5.332031 12.003906 L 6.667969 12.003906 L 6.667969 9.335938 C 6.667969 9.335938 6.667969 8.667969 6 8.667969 Z M 10 8.667969 C 10 8.667969 9.332031 8.667969 9.332031 9.335938 L 9.332031 12.003906 L 10.667969 12.003906 L 10.667969 10.003906 L 12.667969 10.003906 L 12.667969 8.667969 Z M 10 8.667969 "/>
</g>
</svg>
