<svg xmlns="http://www.w3.org/2000/svg" xmlns:xlink="http://www.w3.org/1999/xlink" width="16" height="16" viewBox="0 0 16 16" version="1.1">
<g id="surface1">
<path style=" stroke:none;fill-rule:nonzero;fill:rgb(96.862745%,0%,100%);fill-opacity:1;" d="M 8 3.332031 L 2.667969 6 L 4 6 L 4 7.332031 L 4.667969 7.332031 L 4.667969 11.332031 L 4 11.332031 L 4 12.667969 L 9.332031 12.667969 L 9.332031 11.332031 L 8.667969 11.332031 L 8.667969 7.332031 L 10 7.332031 L 10 9.332031 L 11.332031 9.332031 L 11.332031 7.332031 L 12 7.332031 L 12 6 L 13.332031 6 Z M 6 7.332031 L 7.332031 7.332031 L 7.332031 11.332031 L 6 11.332031 Z M 10 10 L 10 10.472656 L 11.195312 11.667969 L 10 12.863281 L 10 13.332031 L 10.472656 13.332031 L 11.667969 12.136719 L 12.863281 13.332031 L 13.332031 13.332031 L 13.332031 12.863281 L 12.136719 11.667969 L 13.332031 10.472656 L 13.332031 10 L 12.863281 10 L 11.667969 11.195312 L 10.472656 10 Z M 10 10 "/>
</g>
</svg>
