<svg xmlns="http://www.w3.org/2000/svg" xmlns:xlink="http://www.w3.org/1999/xlink" width="16" height="16" viewBox="0 0 16 16" version="1.1">
<defs>
<filter id="alpha" filterUnits="objectBoundingBox" x="0%" y="0%" width="100%" height="100%">
  <feColorMatrix type="matrix" in="SourceGraphic" values="0 0 0 0 1 0 0 0 0 1 0 0 0 0 1 0 0 0 1 0"/>
</filter>
<mask id="mask0">
  <g filter="url(#alpha)">
<rect x="0" y="0" width="16" height="16" style="fill:rgb(0%,0%,0%);fill-opacity:0.3;stroke:none;"/>
  </g>
</mask>
<clipPath id="clip1">
  <rect x="0" y="0" width="16" height="16"/>
</clipPath>
<g id="surface5" clip-path="url(#clip1)">
<path style=" stroke:none;fill-rule:nonzero;fill:rgb(0%,100%,66.666669%);fill-opacity:1;" d="M 2.667969 3.332031 L 2.667969 6 L 3.332031 6 L 3.332031 5.332031 L 4 5.332031 L 4 4.667969 L 4.667969 4.667969 L 4.667969 4 L 11.332031 4 L 11.332031 4.667969 L 12 4.667969 L 12 5.332031 L 12.667969 5.332031 L 12.667969 6 L 13.332031 6 L 13.332031 3.332031 Z M 5.332031 4.667969 L 5.332031 5.332031 L 4.667969 5.332031 L 4.667969 6 L 6.851562 6 C 7.082031 5.601562 7.507812 5.332031 8 5.332031 C 8.492188 5.332031 8.917969 5.601562 9.148438 6 L 11.332031 6 L 11.332031 5.332031 L 10.667969 5.332031 L 10.667969 4.667969 Z M 2.667969 6.667969 L 2.667969 9.332031 L 3.332031 9.332031 L 3.332031 8.667969 L 4 8.667969 L 4 8 L 4.667969 8 L 4.667969 7.332031 L 11.332031 7.332031 L 11.332031 8 L 12 8 L 12 8.667969 L 12.667969 8.667969 L 12.667969 9.332031 L 13.332031 9.332031 L 13.332031 6.667969 Z M 5.332031 8 L 5.332031 8.667969 L 4.667969 8.667969 L 4.667969 9.332031 L 6.851562 9.332031 C 7.082031 8.9375 7.507812 8.667969 8 8.667969 C 8.492188 8.667969 8.917969 8.9375 9.148438 9.332031 L 11.332031 9.332031 L 11.332031 8.667969 L 10.667969 8.667969 L 10.667969 8 Z M 2.667969 10 L 2.667969 12.667969 L 3.332031 12.667969 L 3.332031 12 L 4 12 L 4 11.332031 L 4.667969 11.332031 L 4.667969 10.667969 L 11.332031 10.667969 L 11.332031 11.332031 L 12 11.332031 L 12 12 L 12.667969 12 L 12.667969 12.667969 L 13.332031 12.667969 L 13.332031 10 Z M 5.332031 11.332031 L 5.332031 12 L 4.667969 12 L 4.667969 12.667969 L 6.851562 12.667969 C 7.082031 12.269531 7.507812 12 8 12 C 8.492188 12 8.917969 12.269531 9.148438 12.667969 L 11.332031 12.667969 L 11.332031 12 L 10.667969 12 L 10.667969 11.332031 Z M 5.332031 11.332031 "/>
</g>
</defs>
<g id="surface1">
<use xlink:href="#surface5" mask="url(#mask0)"/>
</g>
</svg>
