<svg xmlns="http://www.w3.org/2000/svg" xmlns:xlink="http://www.w3.org/1999/xlink" width="16" height="16" viewBox="0 0 16 16" version="1.1">
<g id="surface1">
<path style=" stroke:none;fill-rule:nonzero;fill:rgb(96.862745%,0%,100%);fill-opacity:1;" d="M 7.667969 4.667969 C 7.117188 4.667969 6.667969 5.121094 6.667969 5.667969 C 6.667969 6.21875 7.117188 6.667969 7.667969 6.667969 C 8.214844 6.667969 8.667969 6.21875 8.667969 5.667969 C 8.667969 5.121094 8.214844 4.667969 7.667969 4.667969 Z M 7.667969 7.335938 C 7.117188 7.335938 6.667969 7.789062 6.667969 8.335938 C 6.667969 8.882812 7.117188 9.335938 7.667969 9.335938 C 8.214844 9.335938 8.667969 8.882812 8.667969 8.335938 C 8.667969 7.789062 8.214844 7.335938 7.667969 7.335938 Z M 7.667969 10.003906 C 7.117188 10.003906 6.667969 10.453125 6.667969 11.003906 C 6.667969 11.550781 7.117188 12.003906 7.667969 12.003906 C 8.214844 12.003906 8.667969 11.550781 8.667969 11.003906 C 8.667969 10.453125 8.214844 10.003906 7.667969 10.003906 Z M 7.667969 10.003906 "/>
</g>
</svg>
