<svg xmlns="http://www.w3.org/2000/svg" xmlns:xlink="http://www.w3.org/1999/xlink" width="16" height="16" viewBox="0 0 16 16" version="1.1">
<g id="surface1">
<path style=" stroke:none;fill-rule:nonzero;fill:rgb(67.058825%,40.000001%,100%);fill-opacity:1;" d="M 6 2.667969 C 5.628906 2.667969 5.332031 2.964844 5.332031 3.332031 L 5.332031 5.332031 L 3.332031 5.332031 C 2.964844 5.332031 2.667969 5.628906 2.667969 6 L 2.667969 12 C 2.667969 12.371094 2.964844 12.667969 3.332031 12.667969 L 12.667969 12.667969 C 13.035156 12.667969 13.332031 12.371094 13.332031 12 L 13.332031 6 C 13.332031 5.628906 13.035156 5.332031 12.667969 5.332031 L 10.667969 5.332031 L 10.667969 3.332031 C 10.667969 2.964844 10.371094 2.667969 10 2.667969 Z M 6.667969 4 L 9.332031 4 L 9.332031 5.332031 L 6.667969 5.332031 Z M 6.667969 4 "/>
</g>
</svg>
