<svg xmlns="http://www.w3.org/2000/svg" xmlns:xlink="http://www.w3.org/1999/xlink" width="16" height="16" viewBox="0 0 16 16" version="1.1">
<g id="surface1">
<path style=" stroke:none;fill-rule:nonzero;fill:rgb(0%,80.000001%,100%);fill-opacity:1;" d="M 4.003906 3.332031 C 2.503906 3.332031 2.671875 4.667969 2.671875 4.667969 L 2.671875 12.667969 L 8.003906 12.667969 L 8.003906 11.332031 L 4.003906 11.332031 L 4.003906 6.667969 L 6.671875 6.667969 L 6.671875 5.332031 L 4.003906 5.332031 L 4.003906 4.667969 L 10.671875 4.667969 L 10.671875 7.332031 L 6.671875 7.332031 L 6.671875 8.667969 L 12.003906 8.667969 L 12.003906 4.667969 C 12.003906 3.332031 10.671875 3.332031 10.671875 3.332031 Z M 5.339844 9.332031 L 5.339844 10.667969 L 8.003906 10.667969 L 8.003906 9.332031 Z M 10.277344 9.5625 L 9.332031 10.503906 L 10.277344 11.449219 L 9.332031 12.390625 L 10.277344 13.332031 L 11.21875 12.390625 L 12.160156 13.332031 L 13.105469 12.390625 L 12.160156 11.449219 L 13.105469 10.503906 L 12.160156 9.5625 L 11.21875 10.503906 Z M 10.277344 9.5625 "/>
</g>
</svg>
