<svg xmlns="http://www.w3.org/2000/svg" xmlns:xlink="http://www.w3.org/1999/xlink" width="16" height="16" viewBox="0 0 16 16" version="1.1">
<g id="surface1">
<path style=" stroke:none;fill-rule:nonzero;fill:rgb(100%,74.901962%,0%);fill-opacity:1;" d="M 4.667969 3.332031 C 3.167969 3.332031 3.332031 4.667969 3.332031 4.667969 L 3.332031 8.667969 L 4.667969 8.667969 L 4.667969 6.667969 L 7.332031 6.667969 L 7.332031 5.332031 L 4.667969 5.332031 L 4.667969 4.667969 L 11.332031 4.667969 L 11.332031 7.332031 L 7.332031 7.332031 L 7.332031 8.667969 L 12.667969 8.667969 L 12.667969 4.667969 C 12.667969 3.332031 11.332031 3.332031 11.332031 3.332031 Z M 3.90625 9.332031 C 3.265625 9.332031 3.335938 9.90625 3.335938 9.90625 L 3.335938 13.332031 L 7.332031 13.332031 L 7.332031 9.90625 C 7.332031 9.332031 6.761719 9.332031 6.761719 9.332031 Z M 10.667969 9.332031 L 10.667969 10.667969 L 9.332031 10.667969 L 9.332031 12 L 10.667969 12 L 10.667969 13.332031 L 12 13.332031 L 12 12 L 13.332031 12 L 13.332031 10.667969 L 12 10.667969 L 12 9.332031 Z M 10.667969 9.332031 "/>
</g>
</svg>
