<svg xmlns="http://www.w3.org/2000/svg" xmlns:xlink="http://www.w3.org/1999/xlink" width="16" height="16" viewBox="0 0 16 16" version="1.1">
<g id="surface1">
<path style=" stroke:none;fill-rule:nonzero;fill:rgb(0%,100%,66.666669%);fill-opacity:1;" d="M 13.332031 2.667969 L 13.332031 6.667969 L 9.332031 6.667969 L 9.332031 2.667969 Z M 8 2.667969 L 8 3.332031 L 7.332031 3.332031 L 7.332031 2.667969 Z M 8 3.332031 L 8.667969 3.332031 L 8.667969 4.667969 L 8 4.667969 L 8 5.332031 L 7.332031 5.332031 L 7.332031 4 L 8 4 Z M 8 5.332031 L 8.667969 5.332031 L 8.667969 6.667969 L 8 6.667969 Z M 8 6.667969 L 8 7.332031 L 7.332031 7.332031 L 7.332031 6.667969 Z M 7.332031 7.332031 L 7.332031 8.667969 L 6 8.667969 L 6 8 L 6.667969 8 L 6.667969 7.332031 Z M 6 8 L 4.667969 8 L 4.667969 7.332031 L 6 7.332031 Z M 4.667969 8 L 4.667969 8.667969 L 2.667969 8.667969 L 2.667969 7.332031 L 4 7.332031 L 4 8 Z M 7.332031 8.667969 L 8.667969 8.667969 L 8.667969 10 L 8 10 L 8 9.332031 L 7.332031 9.332031 Z M 8.667969 10 L 9.332031 10 L 9.332031 10.667969 L 8.667969 10.667969 Z M 8.667969 10.667969 L 8.667969 12 L 8 12 L 8 11.332031 L 7.332031 11.332031 L 7.332031 10.667969 Z M 8 12 L 8 13.332031 L 7.332031 13.332031 L 7.332031 12 Z M 8.667969 12 L 10 12 L 10 13.332031 L 8.667969 13.332031 Z M 10 12 L 10 11.332031 L 10.667969 11.332031 L 10.667969 12 Z M 10.667969 12 L 11.332031 12 L 11.332031 13.332031 L 10.667969 13.332031 Z M 10.667969 11.332031 L 10.667969 10.667969 L 12 10.667969 L 12 11.332031 Z M 12 11.332031 L 12.667969 11.332031 L 12.667969 12 L 13.332031 12 L 13.332031 12.667969 L 12.667969 12.667969 L 12.667969 13.332031 L 12 13.332031 Z M 10 11.332031 L 9.332031 11.332031 L 9.332031 10.667969 L 10 10.667969 Z M 9.332031 10 L 9.332031 9.332031 L 10 9.332031 L 10 10 Z M 10 9.332031 L 10 8.667969 L 11.332031 8.667969 L 11.332031 10 L 10.667969 10 L 10.667969 9.332031 Z M 10 8.667969 L 8.667969 8.667969 L 8.667969 8 L 9.332031 8 L 9.332031 7.332031 L 10 7.332031 Z M 8.667969 8 L 8 8 L 8 7.332031 L 8.667969 7.332031 Z M 6.667969 2.667969 L 6.667969 6.667969 L 2.667969 6.667969 L 2.667969 2.667969 Z M 12.667969 3.332031 L 10 3.332031 L 10 6 L 12.667969 6 Z M 6 3.332031 L 3.332031 3.332031 L 3.332031 6 L 6 6 Z M 12 4 L 12 5.332031 L 10.667969 5.332031 L 10.667969 4 Z M 5.332031 4 L 5.332031 5.332031 L 4 5.332031 L 4 4 Z M 12.667969 7.332031 L 12.667969 8 L 13.332031 8 L 13.332031 8.667969 L 12 8.667969 L 12 8 L 10.667969 8 L 10.667969 7.332031 Z M 13.332031 9.332031 L 13.332031 10.667969 L 12.667969 10.667969 L 12.667969 10 L 12 10 L 12 9.332031 Z M 6.667969 9.332031 L 6.667969 13.332031 L 2.667969 13.332031 L 2.667969 9.332031 Z M 6 10 L 3.332031 10 L 3.332031 12.667969 L 6 12.667969 Z M 5.332031 10.667969 L 5.332031 12 L 4 12 L 4 10.667969 Z M 5.332031 10.667969 "/>
</g>
</svg>
