<svg xmlns="http://www.w3.org/2000/svg" xmlns:xlink="http://www.w3.org/1999/xlink" width="16" height="16" viewBox="0 0 16 16" version="1.1">
<g id="surface1">
<path style=" stroke:none;fill-rule:nonzero;fill:rgb(100%,30.980393%,30.980393%);fill-opacity:1;" d="M 5 7.332031 C 4.453125 7.332031 4 7.785156 4 8.332031 C 4 8.882812 4.453125 9.332031 5 9.332031 C 5.546875 9.332031 6 8.882812 6 8.332031 C 6 7.785156 5.546875 7.332031 5 7.332031 Z M 7.667969 7.332031 C 7.117188 7.332031 6.667969 7.785156 6.667969 8.332031 C 6.667969 8.882812 7.117188 9.332031 7.667969 9.332031 C 8.214844 9.332031 8.667969 8.882812 8.667969 8.332031 C 8.667969 7.785156 8.214844 7.332031 7.667969 7.332031 Z M 10.332031 7.332031 C 9.785156 7.332031 9.332031 7.785156 9.332031 8.332031 C 9.332031 8.882812 9.785156 9.332031 10.332031 9.332031 C 10.882812 9.332031 11.332031 8.882812 11.332031 8.332031 C 11.332031 7.785156 10.882812 7.332031 10.332031 7.332031 Z M 10.332031 7.332031 "/>
</g>
</svg>
