<svg xmlns="http://www.w3.org/2000/svg" xmlns:xlink="http://www.w3.org/1999/xlink" width="16" height="16" viewBox="0 0 16 16" version="1.1">
<g id="surface1">
<path style=" stroke:none;fill-rule:nonzero;fill:rgb(0%,80.000001%,100%);fill-opacity:1;" d="M 5.398438 2.667969 C 4.875 2.679688 4.472656 2.769531 4.183594 2.902344 L 4.347656 3.503906 C 4.484375 3.457031 5.015625 3.285156 5.324219 3.285156 L 5.367188 3.285156 C 5.796875 3.304688 5.828125 3.460938 5.828125 3.832031 L 5.828125 3.976562 L 5.601562 4.015625 C 4.558594 4.167969 4 4.292969 4 5.09375 C 4 5.652344 4.40625 6 4.996094 6 C 5.402344 6 5.667969 5.828125 5.941406 5.597656 L 6.027344 5.9375 L 6.671875 5.9375 L 6.671875 3.691406 C 6.671875 3.007812 6.199219 2.667969 5.46875 2.667969 Z M 5.828125 4.453125 L 5.828125 5.199219 C 5.601562 5.351562 5.433594 5.460938 5.140625 5.460938 C 4.878906 5.460938 4.753906 5.296875 4.753906 5.066406 C 4.753906 4.628906 5.136719 4.554688 5.601562 4.488281 Z M 9.667969 6.527344 L 7.332031 8.863281 L 7.804688 9.332031 L 9.332031 7.804688 L 9.332031 13.332031 L 10 13.332031 L 10 7.804688 L 11.527344 9.332031 L 12 8.863281 L 9.804688 6.667969 Z M 4.074219 6.800781 L 4.074219 7.34375 L 5.457031 7.34375 L 4 9.511719 L 4 10 L 6.550781 10 L 6.550781 9.433594 L 5.054688 9.433594 L 6.503906 7.238281 L 6.503906 6.800781 Z M 4.074219 6.800781 "/>
</g>
</svg>
