<svg xmlns="http://www.w3.org/2000/svg" xmlns:xlink="http://www.w3.org/1999/xlink" width="16" height="16" viewBox="0 0 16 16" version="1.1">
<g id="surface1">
<path style=" stroke:none;fill-rule:nonzero;fill:rgb(100%,74.901962%,0%);fill-opacity:1;" d="M 6.667969 4 L 6.667969 12 L 7.332031 12 L 7.332031 4 Z M 4 4.667969 L 4 5.332031 L 5.332031 5.332031 L 5.332031 4.667969 Z M 8.667969 4.667969 L 8.667969 6 L 10 6 L 10 4.667969 Z M 11.332031 4.667969 L 11.332031 6 L 12.667969 6 L 12.667969 4.667969 Z M 4 6.667969 L 4 7.332031 L 5.332031 7.332031 L 5.332031 6.667969 Z M 8.667969 7.332031 L 8.667969 8.667969 L 10 8.667969 L 10 7.332031 Z M 11.332031 7.332031 L 11.332031 8.667969 L 12.667969 8.667969 L 12.667969 7.332031 Z M 4 8.667969 L 4 9.332031 L 5.332031 9.332031 L 5.332031 8.667969 Z M 8.667969 10 L 8.667969 11.332031 L 10 11.332031 L 10 10 Z M 11.332031 10 L 11.332031 11.332031 L 12.667969 11.332031 L 12.667969 10 Z M 4 10.667969 L 4 11.332031 L 5.332031 11.332031 L 5.332031 10.667969 Z M 4 10.667969 "/>
</g>
</svg>
