<svg xmlns="http://www.w3.org/2000/svg" xmlns:xlink="http://www.w3.org/1999/xlink" width="16" height="16" viewBox="0 0 16 16" version="1.1">
<g id="surface1">
<path style=" stroke:none;fill-rule:nonzero;fill:rgb(96.862745%,0%,100%);fill-opacity:1;" d="M 2.667969 2.667969 L 2.667969 13.332031 L 13.332031 13.332031 L 13.332031 2.667969 Z M 3.332031 5.332031 L 8 5.332031 L 8 6 L 8.667969 6 L 8.667969 5.332031 L 12.667969 5.332031 L 12.667969 12.667969 L 8.667969 12.667969 L 8.667969 12 L 8 12 L 8 12.667969 L 3.332031 12.667969 Z M 6.992188 6 L 6.996094 6 Z M 6.996094 6 L 5.871094 8.246094 L 3.996094 8.246094 L 5.496094 9.742188 L 5.121094 11.992188 L 6.996094 10.867188 L 7.332031 11.070312 L 7.332031 6.671875 Z M 8 6.667969 L 8 7.332031 L 8.667969 7.332031 L 8.667969 6.667969 Z M 8 8 L 8 8.667969 L 8.667969 8.667969 L 8.667969 8 Z M 8 9.332031 L 8 10 L 8.667969 10 L 8.667969 9.332031 Z M 8 10.667969 L 8 11.332031 L 8.667969 11.332031 L 8.667969 10.667969 Z M 8 10.667969 "/>
</g>
</svg>
