<svg xmlns="http://www.w3.org/2000/svg" xmlns:xlink="http://www.w3.org/1999/xlink" width="16" height="16" viewBox="0 0 16 16" version="1.1">
<defs>
<filter id="alpha" filterUnits="objectBoundingBox" x="0%" y="0%" width="100%" height="100%">
  <feColorMatrix type="matrix" in="SourceGraphic" values="0 0 0 0 1 0 0 0 0 1 0 0 0 0 1 0 0 0 1 0"/>
</filter>
<mask id="mask0">
  <g filter="url(#alpha)">
<rect x="0" y="0" width="16" height="16" style="fill:rgb(0%,0%,0%);fill-opacity:0.3;stroke:none;"/>
  </g>
</mask>
<clipPath id="clip1">
  <rect x="0" y="0" width="16" height="16"/>
</clipPath>
<g id="surface5" clip-path="url(#clip1)">
<path style=" stroke:none;fill-rule:nonzero;fill:rgb(100%,74.901962%,0%);fill-opacity:1;" d="M 4 4.691406 C 3.628906 4.691406 3.332031 4.988281 3.332031 5.355469 L 3.332031 10.691406 C 3.332031 11.058594 3.628906 11.355469 4 11.355469 L 12 11.355469 C 12.371094 11.355469 12.667969 11.058594 12.667969 10.691406 L 12.667969 5.355469 C 12.667969 4.988281 12.371094 4.691406 12 4.691406 Z M 4.667969 8.023438 L 6 8.023438 L 6 8.691406 L 4.667969 8.691406 Z M 6.667969 8.023438 L 9.332031 8.023438 L 9.332031 8.691406 L 6.667969 8.691406 Z M 10 8.023438 L 11.332031 8.023438 L 11.332031 8.691406 L 10 8.691406 Z M 4.667969 9.355469 L 5.332031 9.355469 L 5.332031 10.023438 L 4.667969 10.023438 Z M 6 9.355469 L 8.667969 9.355469 L 8.667969 10.023438 L 6 10.023438 Z M 9.332031 9.355469 L 11.332031 9.355469 L 11.332031 10.023438 L 9.332031 10.023438 Z M 9.332031 9.355469 "/>
</g>
</defs>
<g id="surface1">
<use xlink:href="#surface5" mask="url(#mask0)"/>
</g>
</svg>
