<svg xmlns="http://www.w3.org/2000/svg" xmlns:xlink="http://www.w3.org/1999/xlink" width="16" height="16" viewBox="0 0 16 16" version="1.1">
<g id="surface1">
<path style=" stroke:none;fill-rule:nonzero;fill:rgb(100%,74.901962%,0%);fill-opacity:1;" d="M 3.332031 4 L 3.332031 12.667969 L 12 12.667969 L 12 10.578125 L 11.972656 10.550781 L 10.085938 8.667969 L 10.082031 8.667969 L 8.664062 10.082031 L 6.582031 8 L 4.667969 8 L 4.667969 4 Z M 8.667969 4 L 6 6.667969 L 4.667969 6.667969 L 4.667969 7.335938 L 6.273438 7.335938 L 8.667969 4.941406 L 10.082031 6.355469 L 10.089844 6.355469 L 11.976562 4.472656 C 11.976562 4.476562 11.503906 4 11.503906 4 L 10.085938 5.417969 Z M 4.667969 8.667969 L 6.308594 8.667969 L 8.664062 11.023438 L 8.667969 11.023438 L 10.085938 9.605469 L 11.5 11.023438 L 11.824219 11.332031 L 4.667969 11.332031 Z M 4.667969 8.667969 "/>
</g>
</svg>
