<svg xmlns="http://www.w3.org/2000/svg" xmlns:xlink="http://www.w3.org/1999/xlink" width="16" height="16" viewBox="0 0 16 16" version="1.1">
<g id="surface1">
<path style=" stroke:none;fill-rule:nonzero;fill:rgb(0%,80.000001%,100%);fill-opacity:1;" d="M 2.667969 3.332031 L 2.667969 12.667969 C 6.222656 12.664062 9.777344 12.671875 13.332031 12.667969 L 13.332031 3.335938 C 9.777344 3.335938 6.222656 3.332031 2.667969 3.332031 Z M 6 6 C 6.738281 6 7.332031 6.597656 7.332031 7.332031 C 7.332031 8.070312 6.738281 8.667969 6 8.667969 C 5.261719 8.667969 4.667969 8.070312 4.667969 7.332031 C 4.667969 6.597656 5.261719 6 6 6 Z M 6 9.332031 C 8.667969 9.332031 8.667969 10.933594 8.667969 10.933594 L 8.667969 11.332031 L 3.332031 11.332031 L 3.332031 10.933594 C 3.332031 10.933594 3.332031 9.335938 6 9.332031 Z M 6 9.332031 "/>
</g>
</svg>
