<svg xmlns="http://www.w3.org/2000/svg" xmlns:xlink="http://www.w3.org/1999/xlink" width="16" height="16" viewBox="0 0 16 16" version="1.1">
<g id="surface1">
<path style=" stroke:none;fill-rule:nonzero;fill:rgb(100%,30.980393%,30.980393%);fill-opacity:1;" d="M 8 3.332031 L 3.332031 8 L 4.667969 8 L 4.667969 12.667969 L 11.332031 12.667969 L 11.332031 8 L 12.667969 8 Z M 8 6.667969 C 8.738281 6.667969 9.332031 7.261719 9.332031 8 C 9.332031 8.738281 8.738281 9.332031 8 9.332031 C 10 9.332031 10 10.933594 10 10.933594 L 10 11.332031 L 6 11.332031 L 6 10.933594 C 6 10.933594 6 9.335938 8 9.332031 C 7.261719 9.332031 6.667969 8.738281 6.667969 8 C 6.667969 7.261719 7.261719 6.667969 8 6.667969 Z M 8 6.667969 "/>
</g>
</svg>
