<svg xmlns="http://www.w3.org/2000/svg" xmlns:xlink="http://www.w3.org/1999/xlink" width="16" height="16" viewBox="0 0 16 16" version="1.1">
<g id="surface1">
<path style=" stroke:none;fill-rule:nonzero;fill:rgb(100%,30.980393%,30.980393%);fill-opacity:1;" d="M 3.5 4.667969 C 3.40625 4.667969 3.332031 4.742188 3.332031 4.835938 L 3.332031 5.835938 C 3.332031 5.929688 3.40625 6.003906 3.5 6.003906 L 4.5 6.003906 C 4.59375 6.003906 4.667969 5.929688 4.667969 5.835938 L 4.667969 4.835938 C 4.667969 4.742188 4.59375 4.667969 4.5 4.667969 Z M 6.167969 4.667969 C 6.074219 4.667969 6 4.742188 6 4.835938 L 6 5.835938 C 6 5.929688 6.074219 6.003906 6.167969 6.003906 L 7.167969 6.003906 C 7.257812 6.003906 7.332031 5.929688 7.332031 5.835938 L 7.332031 4.835938 C 7.332031 4.742188 7.257812 4.667969 7.167969 4.667969 Z M 8.832031 4.667969 C 8.742188 4.667969 8.667969 4.742188 8.667969 4.835938 L 8.667969 5.835938 C 8.667969 5.929688 8.742188 6.003906 8.832031 6.003906 L 9.832031 6.003906 C 9.925781 6.003906 10 5.929688 10 5.835938 L 10 4.835938 C 10 4.742188 9.925781 4.667969 9.832031 4.667969 Z M 11.5 4.667969 C 11.40625 4.667969 11.332031 4.742188 11.332031 4.835938 L 11.332031 5.835938 C 11.332031 5.929688 11.40625 6.003906 11.5 6.003906 L 12.5 6.003906 C 12.59375 6.003906 12.667969 5.929688 12.667969 5.835938 L 12.667969 4.835938 C 12.667969 4.742188 12.59375 4.667969 12.5 4.667969 Z M 3.5 7.335938 C 3.40625 7.335938 3.332031 7.410156 3.332031 7.503906 L 3.332031 8.503906 C 3.332031 8.59375 3.40625 8.667969 3.5 8.667969 L 4.5 8.667969 C 4.59375 8.667969 4.667969 8.59375 4.667969 8.503906 L 4.667969 7.503906 C 4.667969 7.410156 4.59375 7.335938 4.5 7.335938 Z M 6.167969 7.335938 C 6.074219 7.335938 6 7.410156 6 7.503906 L 6 8.503906 C 6 8.59375 6.074219 8.667969 6.167969 8.667969 L 7.167969 8.667969 C 7.257812 8.667969 7.332031 8.59375 7.332031 8.503906 L 7.332031 7.503906 C 7.332031 7.410156 7.257812 7.335938 7.167969 7.335938 Z M 8.832031 7.335938 C 8.742188 7.335938 8.667969 7.410156 8.667969 7.503906 L 8.667969 8.503906 C 8.667969 8.59375 8.742188 8.667969 8.832031 8.667969 L 9.832031 8.667969 C 9.925781 8.667969 10 8.59375 10 8.503906 L 10 7.503906 C 10 7.410156 9.925781 7.335938 9.832031 7.335938 Z M 11.5 7.335938 C 11.40625 7.335938 11.332031 7.410156 11.332031 7.503906 L 11.332031 8.503906 C 11.332031 8.59375 11.40625 8.667969 11.5 8.667969 L 12.5 8.667969 C 12.59375 8.667969 12.667969 8.59375 12.667969 8.503906 L 12.667969 7.503906 C 12.667969 7.410156 12.59375 7.335938 12.5 7.335938 Z M 3.5 10.003906 C 3.40625 10.003906 3.332031 10.078125 3.332031 10.167969 L 3.332031 11.167969 C 3.332031 11.261719 3.40625 11.335938 3.5 11.335938 L 4.5 11.335938 C 4.59375 11.335938 4.667969 11.261719 4.667969 11.167969 L 4.667969 10.167969 C 4.667969 10.078125 4.59375 10.003906 4.5 10.003906 Z M 6.167969 10.003906 C 6.074219 10.003906 6 10.078125 6 10.167969 L 6 11.167969 C 6 11.261719 6.074219 11.335938 6.167969 11.335938 L 7.167969 11.335938 C 7.257812 11.335938 7.332031 11.261719 7.332031 11.167969 L 7.332031 10.167969 C 7.332031 10.078125 7.257812 10.003906 7.167969 10.003906 Z M 8.832031 10.003906 C 8.742188 10.003906 8.667969 10.078125 8.667969 10.167969 L 8.667969 11.167969 C 8.667969 11.261719 8.742188 11.335938 8.832031 11.335938 L 9.832031 11.335938 C 9.925781 11.335938 10 11.261719 10 11.167969 L 10 10.167969 C 10 10.078125 9.925781 10.003906 9.832031 10.003906 Z M 11.5 10.003906 C 11.40625 10.003906 11.332031 10.078125 11.332031 10.167969 L 11.332031 11.167969 C 11.332031 11.261719 11.40625 11.335938 11.5 11.335938 L 12.5 11.335938 C 12.59375 11.335938 12.667969 11.261719 12.667969 11.167969 L 12.667969 10.167969 C 12.667969 10.078125 12.59375 10.003906 12.5 10.003906 Z M 11.5 10.003906 "/>
</g>
</svg>
