<svg xmlns="http://www.w3.org/2000/svg" xmlns:xlink="http://www.w3.org/1999/xlink" width="16" height="16" viewBox="0 0 16 16" version="1.1">
<g id="surface1">
<path style=" stroke:none;fill-rule:nonzero;fill:rgb(100%,30.980393%,30.980393%);fill-opacity:1;" d="M 12.222656 2.667969 C 12.222656 2.667969 12.667969 2.667969 12.667969 3.144531 L 12.667969 8.855469 C 12.667969 9.332031 12.222656 9.332031 12.222656 9.332031 L 11.332031 9.332031 L 11.332031 4 L 7.867188 4 L 9.109375 2.667969 Z M 10.222656 4.667969 C 10.222656 4.667969 10.667969 4.667969 10.667969 5.144531 L 10.667969 10.855469 C 10.667969 11.332031 10.222656 11.332031 10.222656 11.332031 L 9.332031 11.332031 L 9.332031 6 L 5.867188 6 L 7.109375 4.667969 Z M 8.222656 6.667969 C 8.222656 6.667969 8.667969 6.667969 8.667969 7.144531 L 8.667969 12.855469 C 8.667969 13.332031 8.222656 13.332031 8.222656 13.332031 L 3.777344 13.332031 C 3.332031 13.332031 3.332031 12.855469 3.332031 12.855469 L 3.332031 8.570312 L 5.109375 6.667969 Z M 7.332031 8 L 5.609375 8 L 4.667969 9.132812 L 4.667969 12 L 7.332031 12 Z M 7.332031 8 "/>
</g>
</svg>
