<svg xmlns="http://www.w3.org/2000/svg" xmlns:xlink="http://www.w3.org/1999/xlink" width="16" height="16" viewBox="0 0 16 16" version="1.1">
<g id="surface1">
<path style=" stroke:none;fill-rule:nonzero;fill:rgb(100%,30.980393%,30.980393%);fill-opacity:1;" d="M 5.667969 2.667969 C 4.753906 2.667969 4 3.421875 4 4.332031 L 4 6.035156 C 3.246094 6.191406 2.667969 6.867188 2.667969 7.667969 L 2.667969 11.667969 C 2.667969 12.578125 3.421875 13.332031 4.332031 13.332031 L 8.332031 13.332031 C 8.558594 13.332031 8.773438 13.285156 8.972656 13.203125 C 8.613281 12.871094 8.339844 12.460938 8.179688 12 L 4.332031 12 C 4.136719 12 4 11.863281 4 11.667969 L 4 7.667969 C 4 7.46875 4.136719 7.332031 4.332031 7.332031 L 8.332031 7.332031 C 8.53125 7.332031 8.667969 7.46875 8.667969 7.667969 L 8.667969 9.125 C 9.015625 8.691406 9.476562 8.363281 10 8.179688 L 10 7.667969 C 10 6.753906 9.246094 6 8.332031 6 L 11.667969 6 C 10.746094 6 10 5.253906 10 4.332031 L 10 4.667969 L 7.667969 4.667969 C 6.867188 4.667969 6.191406 5.246094 6.035156 6 L 5.332031 6 L 5.332031 4.332031 C 5.332031 4.136719 5.46875 4 5.667969 4 L 9.667969 4 C 9.863281 4 10 4.136719 10 4.332031 C 10 3.8125 10.246094 3.320312 10.664062 3.007812 C 10.386719 2.792969 10.039062 2.667969 9.667969 2.667969 Z M 11.667969 6 C 11.863281 6 12 6.136719 12 6.332031 L 12 8.171875 C 12.523438 8.355469 12.984375 8.683594 13.332031 9.113281 L 13.332031 6.332031 C 13.332031 5.960938 13.207031 5.613281 12.992188 5.335938 C 12.679688 5.753906 12.1875 6 11.667969 6 Z M 11.667969 3.332031 C 11.113281 3.332031 10.667969 3.78125 10.667969 4.332031 C 10.667969 4.886719 11.113281 5.332031 11.667969 5.332031 C 12.21875 5.332031 12.667969 4.886719 12.667969 4.332031 C 12.667969 3.78125 12.21875 3.332031 11.667969 3.332031 Z M 11 8.667969 C 9.710938 8.667969 8.667969 9.710938 8.667969 11 C 8.667969 12.289062 9.710938 13.332031 11 13.332031 C 12.289062 13.332031 13.332031 12.289062 13.332031 11 C 13.332031 9.710938 12.289062 8.667969 11 8.667969 Z M 11 9.332031 C 11.921875 9.332031 12.667969 10.078125 12.667969 11 C 12.667969 11.921875 11.921875 12.667969 11 12.667969 C 10.886719 12.664062 10.777344 12.652344 10.667969 12.628906 L 10.667969 11.941406 C 10.773438 11.980469 10.886719 12 11 12 C 11.550781 12 12 11.550781 12 11 C 12 10.449219 11.550781 10 11 10 C 10.566406 10 10.195312 10.277344 10.058594 10.667969 L 10.667969 10.667969 L 9.332031 12 L 9.332031 10.667969 L 9.367188 10.667969 C 9.523438 9.90625 10.195312 9.332031 11 9.332031 Z M 11 9.332031 "/>
</g>
</svg>
