<svg xmlns="http://www.w3.org/2000/svg" xmlns:xlink="http://www.w3.org/1999/xlink" width="16" height="16" viewBox="0 0 16 16" version="1.1">
<g id="surface1">
<path style=" stroke:none;fill-rule:nonzero;fill:rgb(0%,80.000001%,100%);fill-opacity:1;" d="M 5.667969 2.667969 C 4.753906 2.667969 4 3.421875 4 4.332031 L 4 6.035156 C 3.246094 6.191406 2.667969 6.867188 2.667969 7.667969 L 2.667969 11.667969 C 2.667969 12.578125 3.421875 13.332031 4.332031 13.332031 L 8.332031 13.332031 C 9.132812 13.332031 9.808594 12.753906 9.964844 12 L 11.667969 12 C 12.578125 12 13.332031 11.246094 13.332031 10.332031 L 13.332031 6.332031 C 13.332031 5.421875 12.578125 4.667969 11.667969 4.667969 L 11.332031 4.667969 L 11.332031 4.332031 C 11.332031 3.421875 10.578125 2.667969 9.667969 2.667969 Z M 5.667969 4 L 9.667969 4 C 9.863281 4 10 4.136719 10 4.332031 L 10 4.667969 L 7.667969 4.667969 C 6.867188 4.667969 6.191406 5.246094 6.035156 6 L 5.332031 6 L 5.332031 4.332031 C 5.332031 4.136719 5.46875 4 5.667969 4 Z M 8.332031 6 L 11.667969 6 C 11.863281 6 12 6.136719 12 6.332031 L 12 10.332031 C 12 10.53125 11.863281 10.667969 11.667969 10.667969 L 10 10.667969 L 10 7.667969 C 10 6.753906 9.246094 6 8.332031 6 Z M 4.332031 7.332031 L 8.332031 7.332031 C 8.53125 7.332031 8.667969 7.46875 8.667969 7.667969 L 8.667969 11.667969 C 8.667969 11.863281 8.53125 12 8.332031 12 L 4.332031 12 C 4.136719 12 4 11.863281 4 11.667969 L 4 7.667969 C 4 7.46875 4.136719 7.332031 4.332031 7.332031 Z M 4.332031 7.332031 "/>
</g>
</svg>
