<svg xmlns="http://www.w3.org/2000/svg" xmlns:xlink="http://www.w3.org/1999/xlink" width="16" height="16" viewBox="0 0 16 16" version="1.1">
<g id="surface1">
<path style=" stroke:none;fill-rule:evenodd;fill:rgb(0%,100%,66.666669%);fill-opacity:1;" d="M 3.9375 6.363281 C 4.328125 7.191406 4.398438 7.601562 4.789062 8.429688 C 5.199219 7.609375 5.304688 7.351562 5.714844 6.53125 C 6.164062 5.800781 7.449219 5.859375 8.058594 6.566406 C 8.660156 5.761719 9.875 5.894531 10.652344 6.554688 C 11.203125 5.753906 12.289062 5.878906 12.65625 6.785156 C 12.691406 7.789062 12.625 8.472656 12.65625 9.476562 C 12.65625 10.164062 11.332031 10.125 11.332031 9.476562 C 11.34375 8.691406 11.324219 8.265625 11.332031 7.476562 C 11.332031 6.675781 10.667969 6.65625 10.667969 7.476562 L 10.667969 9.476562 C 10.667969 10.164062 9.332031 10.132812 9.332031 9.476562 L 9.332031 7.476562 C 9.332031 6.679688 8.667969 6.660156 8.667969 7.476562 L 8.667969 9.476562 C 8.667969 10.183594 7.332031 10.164062 7.332031 9.476562 L 7.332031 7.273438 C 7.285156 6.828125 6.9375 6.820312 6.757812 7.125 C 6.300781 8.128906 5.972656 8.535156 5.515625 9.539062 C 5.238281 10.117188 4.394531 10.183594 4.046875 9.53125 C 3.5625 8.453125 3.238281 7.886719 2.75 6.808594 C 2.320312 5.898438 3.664062 5.765625 3.9375 6.363281 Z M 3.9375 6.363281 "/>
</g>
</svg>
