<svg xmlns="http://www.w3.org/2000/svg" xmlns:xlink="http://www.w3.org/1999/xlink" width="16" height="16" viewBox="0 0 16 16" version="1.1">
<g id="surface1">
<path style=" stroke:none;fill-rule:nonzero;fill:rgb(95.686275%,26.274511%,21.176471%);fill-opacity:1;" d="M 12.332031 11.332031 C 11.78125 11.332031 11.332031 11.78125 11.332031 12.332031 L 11.332031 15 C 11.332031 15.554688 11.78125 16 12.332031 16 L 15 16 C 15.554688 16 16 15.554688 16 15 L 16 12.332031 C 16 11.78125 15.554688 11.332031 15 11.332031 Z M 12.722656 12.253906 L 13.667969 13.195312 L 14.609375 12.253906 L 15.082031 12.722656 L 14.136719 13.667969 L 15.082031 14.609375 L 14.609375 15.082031 L 13.667969 14.136719 L 12.722656 15.082031 L 12.253906 14.609375 L 13.195312 13.667969 L 12.253906 12.722656 Z M 12.722656 12.253906 "/>
</g>
</svg>
