<svg xmlns="http://www.w3.org/2000/svg" xmlns:xlink="http://www.w3.org/1999/xlink" width="16" height="16" viewBox="0 0 16 16" version="1.1">
<g id="surface1">
<path style=" stroke:none;fill-rule:nonzero;fill:rgb(100%,74.901962%,0%);fill-opacity:1;" d="M 6.800781 3.332031 L 5.519531 3.742188 C 2.808594 4.617188 2.722656 4.648438 2.6875 4.75 C 2.660156 4.828125 2.769531 4.957031 3.234375 5.40625 C 3.550781 5.710938 3.8125 5.984375 3.8125 6.011719 C 3.8125 6.042969 3.554688 6.304688 3.238281 6.601562 C 2.925781 6.894531 2.667969 7.164062 2.667969 7.199219 C 2.667969 7.238281 2.703125 7.296875 2.746094 7.332031 C 2.792969 7.367188 3.707031 7.679688 4.777344 8.027344 C 5.851562 8.375 6.75 8.660156 6.773438 8.660156 C 6.800781 8.664062 7.085938 8.414062 7.410156 8.105469 L 8 7.542969 L 8.597656 8.109375 C 8.925781 8.421875 9.222656 8.667969 9.257812 8.652344 C 9.292969 8.640625 10.183594 8.355469 11.238281 8.019531 C 13.058594 7.441406 13.332031 7.332031 13.332031 7.207031 C 13.332031 7.179688 13.074219 6.910156 12.761719 6.605469 C 12.445312 6.304688 12.1875 6.039062 12.1875 6.011719 C 12.1875 5.984375 12.449219 5.710938 12.765625 5.40625 C 13.230469 4.957031 13.339844 4.828125 13.3125 4.75 C 13.285156 4.675781 12.992188 4.5625 11.824219 4.175781 C 11.023438 3.914062 10.105469 3.617188 9.78125 3.515625 L 9.195312 3.335938 L 8.597656 3.902344 L 8 4.476562 L 7.402344 3.902344 Z M 8.007812 4.660156 L 9.496094 5.15625 C 10.3125 5.429688 10.988281 5.65625 11 5.667969 C 11.011719 5.675781 10.355469 5.902344 9.542969 6.167969 C 8.734375 6.433594 8.050781 6.65625 8.023438 6.660156 C 7.964844 6.679688 4.972656 5.691406 5 5.664062 C 5.011719 5.65625 5.695312 5.425781 6.515625 5.152344 Z M 8 8.464844 L 7.867188 8.589844 C 7.699219 8.75 7.542969 8.890625 7.417969 9 C 7.355469 9.054688 7.304688 9.101562 7.253906 9.140625 C 7.226562 9.164062 7.203125 9.179688 7.167969 9.203125 C 7.148438 9.21875 7.128906 9.230469 7.085938 9.253906 C 7.0625 9.265625 7.035156 9.277344 6.988281 9.292969 C 6.960938 9.304688 6.933594 9.3125 6.890625 9.316406 C 6.847656 9.324219 6.722656 9.324219 6.71875 9.324219 C 6.71875 9.324219 6.621094 9.3125 6.609375 9.308594 C 6.597656 9.304688 6.589844 9.300781 6.582031 9.300781 C 6.566406 9.296875 6.550781 9.292969 6.535156 9.285156 C 6.5 9.277344 6.457031 9.265625 6.40625 9.246094 C 6.296875 9.214844 6.148438 9.167969 5.96875 9.109375 C 5.605469 8.996094 5.113281 8.835938 4.574219 8.660156 C 4.355469 8.589844 4.203125 8.539062 4.003906 8.472656 C 4.007812 9.703125 4.027344 11.359375 4.054688 11.398438 C 4.078125 11.441406 4.960938 11.757812 6.011719 12.101562 L 6.015625 12.101562 C 7.066406 12.449219 8 12.667969 8 12.667969 L 8 12.65625 C 9.386719 12.226562 11.9375 11.410156 11.9375 11.410156 C 11.984375 11.351562 12 10.953125 12 9.820312 C 12 9.480469 12 8.957031 11.996094 8.476562 C 11.8125 8.535156 11.671875 8.582031 11.441406 8.65625 C 10.914062 8.824219 10.429688 8.980469 10.070312 9.09375 C 9.890625 9.152344 9.742188 9.199219 9.636719 9.230469 C 9.53125 9.265625 9.40625 9.308594 9.480469 9.28125 C 9.480469 9.285156 9.367188 9.3125 9.324219 9.316406 C 9.277344 9.324219 9.242188 9.320312 9.207031 9.320312 C 9.144531 9.316406 9.101562 9.304688 9.066406 9.296875 C 8.996094 9.277344 8.960938 9.257812 8.933594 9.242188 C 8.871094 9.214844 8.839844 9.191406 8.808594 9.167969 C 8.742188 9.121094 8.683594 9.078125 8.613281 9.019531 C 8.476562 8.90625 8.3125 8.761719 8.136719 8.59375 Z M 8 8.464844 "/>
</g>
</svg>
