<svg xmlns="http://www.w3.org/2000/svg" xmlns:xlink="http://www.w3.org/1999/xlink" width="16" height="16" viewBox="0 0 16 16" version="1.1">
<g id="surface1">
<path style=" stroke:none;fill-rule:nonzero;fill:rgb(0%,80.000001%,100%);fill-opacity:1;" d="M 2 4 L 2 11.332031 C 2 11.703125 2.296875 12 2.667969 12 L 14 12 L 14 4.667969 C 14 4.296875 13.703125 4 13.332031 4 Z M 2.667969 4.667969 L 13.332031 4.667969 L 13.332031 6.667969 L 8.667969 6.667969 C 7.929688 6.667969 7.332031 7.261719 7.332031 8 C 7.332031 8.738281 7.929688 9.332031 8.667969 9.332031 L 13.332031 9.332031 L 13.332031 11.332031 L 2.667969 11.332031 Z M 9.332031 7.332031 C 9.703125 7.332031 10 7.632812 10 8 C 10 8.367188 9.703125 8.667969 9.332031 8.667969 C 8.964844 8.667969 8.667969 8.367188 8.667969 8 C 8.667969 7.632812 8.964844 7.332031 9.332031 7.332031 Z M 9.332031 7.332031 "/>
</g>
</svg>
