<svg xmlns="http://www.w3.org/2000/svg" xmlns:xlink="http://www.w3.org/1999/xlink" width="16" height="16" viewBox="0 0 16 16" version="1.1">
<g id="surface1">
<path style=" stroke:none;fill-rule:nonzero;fill:rgb(96.862745%,0%,100%);fill-opacity:1;" d="M 9.332031 2.667969 L 9.804688 3.136719 L 5.722656 7.222656 L 4.941406 8 L 5.722656 8.777344 L 9.804688 12.863281 L 9.332031 13.332031 L 4 8 L 9.332031 2.667969 "/>
<path style=" stroke:none;fill-rule:nonzero;fill:rgb(99.215686%,73.725492%,29.411766%);fill-opacity:1;" d="M 11.84375 8.675781 C 11.195312 8.75 10.695312 9.285156 10.664062 9.941406 C 10.664062 9.960938 10.664062 9.980469 10.664062 10 L 11.332031 10 C 11.332031 9.660156 11.585938 9.375 11.921875 9.335938 L 11.996094 9.335938 L 11.996094 8.675781 Z M 12 8.675781 L 12 9.34375 C 12.335938 9.34375 12.621094 9.597656 12.660156 9.933594 L 12.660156 10.007812 L 12.664062 10.007812 C 12.664062 10.347656 12.414062 10.632812 12.078125 10.671875 L 12 10.671875 L 12 10.667969 C 11.957031 10.664062 11.910156 10.664062 11.867188 10.667969 C 11.679688 10.679688 11.5 10.726562 11.332031 10.8125 L 11.332031 10.675781 L 11.332031 12.007812 L 12 12.007812 L 12 11.332031 L 12.152344 11.332031 C 12.804688 11.257812 13.300781 10.722656 13.332031 10.070312 C 13.332031 10.050781 13.332031 10.027344 13.332031 10.007812 L 13.324219 10.007812 L 13.324219 9.855469 C 13.246094 9.207031 12.710938 8.707031 12.058594 8.675781 C 12.039062 8.675781 12.019531 8.675781 12 8.675781 Z M 11.332031 12.667969 L 11.332031 13.332031 L 12 13.332031 L 12 12.667969 Z M 11.332031 12.667969 "/>
</g>
</svg>
