<svg xmlns="http://www.w3.org/2000/svg" xmlns:xlink="http://www.w3.org/1999/xlink" width="16" height="16" viewBox="0 0 16 16" version="1.1">
<g id="surface1">
<path style=" stroke:none;fill-rule:nonzero;fill:rgb(0%,80.000001%,100%);fill-opacity:1;" d="M 4 3.332031 C 4 3.332031 3.949219 3.335938 3.878906 3.347656 C 3.742188 3.367188 3.640625 3.417969 3.5625 3.484375 C 3.550781 3.496094 3.535156 3.507812 3.519531 3.519531 C 3.507812 3.535156 3.496094 3.550781 3.484375 3.5625 C 3.417969 3.640625 3.367188 3.742188 3.347656 3.878906 C 3.335938 3.949219 3.332031 4 3.332031 4 L 3.332031 12 C 3.332031 12.667969 4 12.667969 4 12.667969 L 12 12.667969 C 12 12.667969 12.667969 12.667969 12.667969 12 L 12.667969 4 C 12.667969 4 12.664062 3.949219 12.652344 3.878906 C 12.628906 3.742188 12.582031 3.640625 12.515625 3.5625 C 12.503906 3.550781 12.492188 3.535156 12.480469 3.519531 C 12.464844 3.507812 12.449219 3.496094 12.4375 3.484375 C 12.359375 3.417969 12.257812 3.367188 12.121094 3.347656 C 12.050781 3.335938 12 3.332031 12 3.332031 Z M 4.667969 6.667969 L 11.332031 6.667969 L 11.332031 11.332031 L 4.667969 11.332031 Z M 8 7.332031 L 8 8.667969 L 6 8.667969 L 6 9.332031 L 8 9.332031 L 8 10.667969 L 10 9 Z M 8 7.332031 "/>
</g>
</svg>
