<svg xmlns="http://www.w3.org/2000/svg" xmlns:xlink="http://www.w3.org/1999/xlink" width="16" height="16" viewBox="0 0 16 16" version="1.1">
<g id="surface1">
<path style=" stroke:none;fill-rule:nonzero;fill:rgb(96.862745%,0%,100%);fill-opacity:1;" d="M 4 3.332031 C 4 3.332031 3.949219 3.335938 3.878906 3.347656 C 3.742188 3.367188 3.640625 3.417969 3.5625 3.484375 C 3.550781 3.496094 3.535156 3.507812 3.519531 3.519531 C 3.507812 3.535156 3.496094 3.550781 3.484375 3.5625 C 3.417969 3.640625 3.367188 3.742188 3.347656 3.878906 C 3.335938 3.949219 3.332031 4 3.332031 4 L 3.332031 12 C 3.332031 12.667969 4 12.667969 4 12.667969 L 8 12.667969 L 8 11.332031 L 4.667969 11.332031 L 4.667969 6.667969 L 11.332031 6.667969 L 11.332031 8 L 12.667969 8 L 12.667969 4 C 12.667969 4 12.664062 3.949219 12.652344 3.878906 C 12.628906 3.742188 12.582031 3.640625 12.515625 3.5625 C 12.503906 3.550781 12.492188 3.535156 12.480469 3.519531 C 12.464844 3.507812 12.449219 3.496094 12.4375 3.484375 C 12.359375 3.417969 12.257812 3.367188 12.121094 3.347656 C 12.050781 3.335938 12 3.332031 12 3.332031 Z M 9 8.667969 C 9 8.667969 8.976562 8.667969 8.941406 8.675781 C 8.871094 8.683594 8.820312 8.710938 8.78125 8.742188 C 8.773438 8.746094 8.765625 8.753906 8.761719 8.761719 C 8.753906 8.765625 8.746094 8.773438 8.742188 8.78125 C 8.710938 8.820312 8.683594 8.871094 8.675781 8.941406 C 8.667969 8.976562 8.667969 9 8.667969 9 L 8.667969 13 C 8.667969 13.332031 9 13.332031 9 13.332031 L 13 13.332031 C 13 13.332031 13.332031 13.332031 13.332031 13 L 13.332031 9 C 13.332031 9 13.332031 8.976562 13.324219 8.941406 C 13.316406 8.871094 13.292969 8.820312 13.257812 8.78125 C 13.253906 8.773438 13.246094 8.765625 13.238281 8.761719 C 13.234375 8.753906 13.226562 8.746094 13.21875 8.742188 C 13.179688 8.710938 13.128906 8.683594 13.058594 8.675781 C 13.023438 8.667969 13 8.667969 13 8.667969 Z M 9.332031 10.667969 L 12.667969 10.667969 L 12.667969 12.667969 L 9.332031 12.667969 Z M 9.332031 10.667969 "/>
</g>
</svg>
