<svg xmlns="http://www.w3.org/2000/svg" xmlns:xlink="http://www.w3.org/1999/xlink" width="16" height="16" viewBox="0 0 16 16" version="1.1">
<g id="surface1">
<path style=" stroke:none;fill-rule:nonzero;fill:rgb(0%,100%,66.666669%);fill-opacity:1;" d="M 5.347656 2.667969 C 5.109375 2.664062 4.886719 2.789062 4.765625 2.996094 C 4.644531 3.203125 4.644531 3.460938 4.765625 3.667969 C 4.886719 3.878906 5.109375 4.003906 5.347656 4 L 6 4 L 6 6 C 6 6.886719 4.871094 7.332031 4 7.332031 L 4 8.667969 L 7.332031 8.667969 L 7.332031 12.667969 L 7.984375 13.332031 L 8.667969 12.667969 L 8.667969 8.667969 L 12 8.667969 L 12 7.332031 C 11.128906 7.332031 9.960938 6.882812 10 6 L 10 4 L 10.652344 4 C 10.890625 4.003906 11.113281 3.878906 11.234375 3.667969 C 11.355469 3.460938 11.355469 3.203125 11.234375 2.996094 C 11.113281 2.789062 10.890625 2.664062 10.652344 2.667969 Z M 5.347656 2.667969 "/>
</g>
</svg>
