<svg xmlns="http://www.w3.org/2000/svg" xmlns:xlink="http://www.w3.org/1999/xlink" width="16" height="16" viewBox="0 0 16 16" version="1.1">
<defs>
<filter id="alpha" filterUnits="objectBoundingBox" x="0%" y="0%" width="100%" height="100%">
  <feColorMatrix type="matrix" in="SourceGraphic" values="0 0 0 0 1 0 0 0 0 1 0 0 0 0 1 0 0 0 1 0"/>
</filter>
<mask id="mask0">
  <g filter="url(#alpha)">
<rect x="0" y="0" width="16" height="16" style="fill:rgb(0%,0%,0%);fill-opacity:0.35;stroke:none;"/>
  </g>
</mask>
<clipPath id="clip1">
  <rect x="0" y="0" width="16" height="16"/>
</clipPath>
<g id="surface5" clip-path="url(#clip1)">
<path style=" stroke:none;fill-rule:nonzero;fill:rgb(0%,80.000001%,100%);fill-opacity:1;" d="M 5.347656 2.667969 C 5.152344 2.667969 4.96875 2.753906 4.84375 2.902344 L 10.609375 8.667969 L 12 8.667969 L 12 7.332031 C 11.128906 7.332031 9.960938 6.882812 10 6 L 10 4 L 10.652344 4 C 11.550781 4.011719 11.550781 2.652344 10.652344 2.667969 Z M 5.144531 7.089844 C 4.789062 7.25 4.371094 7.332031 4 7.332031 L 4 8.667969 L 6.722656 8.667969 Z M 7.332031 9.277344 L 7.332031 12.667969 L 7.984375 13.332031 L 8.667969 12.667969 L 8.667969 10.609375 Z M 7.332031 9.277344 "/>
</g>
</defs>
<g id="surface1">
<use xlink:href="#surface5" mask="url(#mask0)"/>
<path style=" stroke:none;fill-rule:nonzero;fill:rgb(0%,80.000001%,100%);fill-opacity:1;" d="M 2.667969 2.667969 L 2.667969 3.667969 L 12.332031 13.332031 L 13.332031 13.332031 L 13.332031 12.332031 L 3.667969 2.667969 Z M 2.667969 2.667969 "/>
</g>
</svg>
