<svg xmlns="http://www.w3.org/2000/svg" xmlns:xlink="http://www.w3.org/1999/xlink" width="16" height="16" viewBox="0 0 16 16" version="1.1">
<g id="surface1">
<path style=" stroke:none;fill-rule:nonzero;fill:rgb(0%,80.000001%,100%);fill-opacity:1;" d="M 10 4 L 8 6 L 9.332031 6 L 9.332031 8 L 10.667969 8 L 10.667969 6 L 12 6 Z M 4.792969 4.003906 C 4.351562 4.003906 4 4.367188 4 4.816406 L 4 7.335938 L 5.332031 7.335938 L 5.332031 5.335938 L 7.332031 5.335938 L 7.332031 4.003906 Z M 4 8 L 4 12 L 8 12 L 8 8 Z M 10.667969 8.667969 L 10.667969 10.667969 L 8.667969 10.667969 L 8.667969 12.003906 L 11.207031 12.003906 C 11.648438 12.003906 12 11.636719 12 11.191406 L 12 8.667969 Z M 10.667969 8.667969 "/>
</g>
</svg>
