<svg xmlns="http://www.w3.org/2000/svg" xmlns:xlink="http://www.w3.org/1999/xlink" width="16" height="16" viewBox="0 0 16 16" version="1.1">
<g id="surface1">
<path style=" stroke:none;fill-rule:nonzero;fill:rgb(100%,30.980393%,30.980393%);fill-opacity:1;" d="M 4.808594 4 C 4.363281 4 3.996094 4.351562 3.996094 4.792969 L 3.996094 7.332031 L 5.332031 7.332031 L 5.332031 5.332031 L 7.332031 5.332031 L 7.332031 4 Z M 10 4 L 10 5.332031 L 8 5.332031 L 8 6.667969 L 10 6.667969 L 10 8 L 12 6 Z M 4 8 L 4 12 L 8 12 L 8 8 Z M 10.664062 8.667969 L 10.664062 10.667969 L 8.664062 10.667969 L 8.664062 12 L 11.183594 12 C 11.632812 12 11.996094 11.648438 11.996094 11.207031 L 11.996094 8.667969 Z M 10.664062 8.667969 "/>
</g>
</svg>
