<svg xmlns="http://www.w3.org/2000/svg" xmlns:xlink="http://www.w3.org/1999/xlink" width="16" height="16" viewBox="0 0 16 16" version="1.1">
<g id="surface1">
<path style=" stroke:none;fill-rule:nonzero;fill:rgb(96.862745%,0%,100%);fill-opacity:1;" d="M 4.667969 4 C 4.296875 4 4 4.296875 4 4.667969 L 4 11.332031 C 4 11.703125 4.296875 12 4.667969 12 L 11.332031 12 C 11.703125 12 12 11.703125 12 11.332031 L 12 4.667969 C 12 4.296875 11.703125 4 11.332031 4 Z M 7.332031 6 L 8.667969 6 L 8.667969 7.332031 L 10 7.332031 L 10 8.667969 L 8.667969 8.667969 L 8.667969 10 L 7.332031 10 L 7.332031 8.667969 L 6 8.667969 L 6 7.332031 L 7.332031 7.332031 Z M 7.332031 6 "/>
</g>
</svg>
