<svg xmlns="http://www.w3.org/2000/svg" xmlns:xlink="http://www.w3.org/1999/xlink" width="16" height="16" viewBox="0 0 16 16" version="1.1">
<g id="surface1">
<path style=" stroke:none;fill-rule:nonzero;fill:rgb(0%,80.000001%,100%);fill-opacity:1;" d="M 4.816406 4 C 4.367188 4 4.003906 4.351562 4.003906 4.792969 L 4.003906 7.332031 L 5.335938 7.332031 L 5.335938 5.332031 L 7.335938 5.332031 L 7.335938 4 Z M 8 4 L 8 8 L 12 8 L 12 4 Z M 6 8 L 4 10 L 6 12 L 6 10.667969 L 8 10.667969 L 8 9.332031 L 6 9.332031 Z M 10.667969 8.667969 L 10.667969 10.667969 L 8.667969 10.667969 L 8.667969 12 L 11.191406 12 C 11.636719 12 12.003906 11.648438 12.003906 11.207031 L 12.003906 8.667969 Z M 10.667969 8.667969 "/>
</g>
</svg>
