<svg xmlns="http://www.w3.org/2000/svg" xmlns:xlink="http://www.w3.org/1999/xlink" width="16" height="16" viewBox="0 0 16 16" version="1.1">
<g id="surface1">
<path style=" stroke:none;fill-rule:nonzero;fill:rgb(0%,80.000001%,100%);fill-opacity:1;" d="M 4.8125 4 C 4.367188 4 4 4.351562 4 4.792969 L 4 7.332031 L 5.332031 7.332031 L 5.332031 5.332031 L 7.332031 5.332031 L 7.332031 4 Z M 8.667969 4 L 8.667969 5.332031 L 10.667969 5.332031 L 10.667969 7.332031 L 12 7.332031 L 12 4.792969 C 12 4.351562 11.632812 4 11.1875 4 Z M 8 6 L 8 7.332031 L 6 7.332031 L 6 8.667969 L 8 8.667969 L 8 10 L 10 8 Z M 4 8.667969 L 4 11.207031 C 4 11.648438 4.367188 12 4.8125 12 L 7.332031 12 L 7.332031 10.667969 L 5.332031 10.667969 L 5.332031 8.667969 Z M 10.667969 8.667969 L 10.667969 10.667969 L 8.667969 10.667969 L 8.667969 12 L 11.1875 12 C 11.632812 12 12 11.648438 12 11.207031 L 12 8.667969 Z M 10.667969 8.667969 "/>
</g>
</svg>
