<svg xmlns="http://www.w3.org/2000/svg" xmlns:xlink="http://www.w3.org/1999/xlink" width="16" height="16" viewBox="0 0 16 16" version="1.1">
<g id="surface1">
<path style=" stroke:none;fill-rule:nonzero;fill:rgb(0%,100%,66.666669%);fill-opacity:1;" d="M 8.667969 4 L 8.667969 5.332031 L 10.667969 5.332031 L 10.667969 7.332031 L 12 7.332031 L 12 4.8125 C 12 4.363281 11.648438 4 11.207031 4 Z M 4 4 L 4 8 L 8 8 L 8 4 Z M 9.332031 8 L 9.332031 10 L 8 10 L 10 12 L 12 10 L 10.667969 10 L 10.667969 8 Z M 4 8.664062 L 4 11.1875 C 4 11.632812 4.351562 12 4.792969 12 L 7.332031 12 L 7.332031 10.664062 L 5.332031 10.664062 L 5.332031 8.664062 Z M 4 8.664062 "/>
</g>
</svg>
