<svg xmlns="http://www.w3.org/2000/svg" xmlns:xlink="http://www.w3.org/1999/xlink" width="16" height="16" viewBox="0 0 16 16" version="1.1">
<g id="surface1">
<path style=" stroke:none;fill-rule:nonzero;fill:rgb(0%,100%,66.666669%);fill-opacity:1;" d="M 4.792969 4 C 4.351562 4 4 4.367188 4 4.8125 L 4 7.332031 L 5.335938 7.332031 L 5.335938 5.332031 L 7.335938 5.332031 L 7.335938 4 Z M 8.667969 4 L 8.667969 5.332031 L 10.667969 5.332031 L 10.667969 7.332031 L 12 7.332031 L 12 4.8125 C 12 4.367188 11.652344 4 11.210938 4 Z M 6 6 L 6 10 L 7.335938 10 L 7.335938 6 Z M 8 6.667969 L 8 9.332031 L 9.335938 8 Z M 9.335938 8 L 9.335938 9.332031 L 10 9.332031 L 10 6.667969 L 9.335938 6.667969 Z M 4 8.667969 L 4 11.1875 C 4 11.632812 4.351562 12 4.792969 12 L 7.335938 12 L 7.335938 10.667969 L 5.335938 10.667969 L 5.335938 8.667969 Z M 10.667969 8.667969 L 10.667969 10.667969 L 8.667969 10.667969 L 8.667969 12 L 11.210938 12 C 11.652344 12 12 11.632812 12 11.1875 L 12 8.667969 Z M 10.667969 8.667969 "/>
</g>
</svg>
