<svg xmlns="http://www.w3.org/2000/svg" xmlns:xlink="http://www.w3.org/1999/xlink" width="64px" height="64px" viewBox="0 0 64 64" version="1.1">
<defs>
<filter id="alpha" filterUnits="objectBoundingBox" x="0%" y="0%" width="100%" height="100%">
  <feColorMatrix type="matrix" in="SourceGraphic" values="0 0 0 0 1 0 0 0 0 1 0 0 0 0 1 0 0 0 1 0"/>
</filter>
<mask id="mask0">
  <g filter="url(#alpha)">
<rect x="0" y="0" width="64" height="64" style="fill:rgb(0%,0%,0%);fill-opacity:0.15;stroke:none;"/>
  </g>
</mask>
<linearGradient id="linear0" gradientUnits="userSpaceOnUse" x1="49.570999" y1="52.714001" x2="51.714001" y2="54.856998" gradientTransform="matrix(2.3333,0,0,2.3333,-68.667,-72.000999)">
<stop offset="0" style="stop-color:rgb(0%,0%,0%);stop-opacity:1;"/>
<stop offset="1" style="stop-color:rgb(0%,0%,0%);stop-opacity:0;"/>
</linearGradient>
<clipPath id="clip1">
  <rect x="0" y="0" width="64" height="64"/>
</clipPath>
<g id="surface5" clip-path="url(#clip1)">
<path style=" stroke:none;fill-rule:evenodd;fill:url(#linear0);" d="M 56 46 L 42 60 L 51 60 C 53.769531 60 56 57.769531 56 55 Z M 56 46 "/>
</g>
<mask id="mask1">
  <g filter="url(#alpha)">
<rect x="0" y="0" width="64" height="64" style="fill:rgb(0%,0%,0%);fill-opacity:0.75;stroke:none;"/>
  </g>
</mask>
<clipPath id="clip2">
  <rect x="0" y="0" width="64" height="64"/>
</clipPath>
<g id="surface8" clip-path="url(#clip2)">
<path style=" stroke:none;fill-rule:nonzero;fill:rgb(100%,100%,100%);fill-opacity:1;" d="M 32 17.300781 L 18.636719 27.324219 C 18.609375 27.34375 18.582031 27.367188 18.554688 27.386719 L 18.539062 27.398438 L 18.539062 27.402344 C 18.214844 27.65625 18 28.050781 18 28.5 L 18 40.699219 C 18 42.699219 19.578125 42.699219 20 42.699219 L 44 42.699219 C 44 42.699219 46 42.699219 46 40.699219 L 46 28.5 C 46 28.042969 45.777344 27.640625 45.441406 27.382812 L 45.445312 27.375 Z M 32 23.699219 C 34.761719 23.699219 37 25.9375 37 28.699219 L 37 30.199219 C 37 31.03125 36.332031 31.699219 35.5 31.699219 C 34.886719 31.699219 34.363281 31.332031 34.132812 30.808594 C 33.566406 31.378906 32.800781 31.699219 32 31.699219 C 30.34375 31.699219 29 30.355469 29 28.699219 C 29 27.042969 30.34375 25.699219 32 25.699219 C 33.65625 25.699219 35 27.042969 35 28.699219 L 35 30.199219 C 35 30.476562 35.222656 30.699219 35.5 30.699219 C 35.777344 30.699219 36 30.476562 36 30.199219 L 36 28.699219 C 36 26.492188 34.210938 24.699219 32 24.699219 C 29.789062 24.699219 28 26.492188 28 28.699219 C 28 30.910156 29.789062 32.699219 32 32.699219 L 35.5 32.699219 C 35.777344 32.699219 36 32.921875 36 33.199219 C 36 33.476562 35.777344 33.699219 35.5 33.699219 L 32 33.699219 C 29.238281 33.699219 27 31.460938 27 28.699219 C 27 25.9375 29.238281 23.699219 32 23.699219 Z M 32 26.699219 C 30.894531 26.699219 30 27.59375 30 28.699219 C 30 29.804688 30.894531 30.699219 32 30.699219 C 33.105469 30.699219 34 29.804688 34 28.699219 C 34 27.59375 33.105469 26.699219 32 26.699219 Z M 32 26.699219 "/>
</g>
</defs>
<g id="surface1">
<path style=" stroke:none;fill-rule:nonzero;fill:rgb(34.117648%,42.745098%,67.058825%);fill-opacity:1;" d="M 13 4 L 51 4 C 53.761719 4 56 6.238281 56 9 L 56 55 C 56 57.761719 53.761719 60 51 60 L 13 60 C 10.238281 60 8 57.761719 8 55 L 8 9 C 8 6.238281 10.238281 4 13 4 Z M 13 4 "/>
<use xlink:href="#surface5" mask="url(#mask0)"/>
<use xlink:href="#surface8" mask="url(#mask1)"/>
<path style=" stroke:none;fill-rule:nonzero;fill:rgb(100%,100%,100%);fill-opacity:1;" d="M 22.5 20.699219 C 21.667969 20.699219 21 21.367188 21 22.199219 L 21 37.199219 C 21 38.03125 21.667969 38.699219 22.5 38.699219 L 41.5 38.699219 C 42.332031 38.699219 43 38.03125 43 37.199219 L 43 22.199219 C 43 21.367188 42.332031 20.699219 41.5 20.699219 Z M 32 23.699219 C 34.761719 23.699219 37 25.9375 37 28.699219 L 37 30.199219 C 37 31.03125 36.332031 31.699219 35.5 31.699219 C 34.886719 31.699219 34.363281 31.332031 34.132812 30.808594 C 33.566406 31.378906 32.800781 31.699219 32 31.699219 C 30.34375 31.699219 29 30.355469 29 28.699219 C 29 27.042969 30.34375 25.699219 32 25.699219 C 33.65625 25.699219 35 27.042969 35 28.699219 L 35 30.199219 C 35 30.476562 35.222656 30.699219 35.5 30.699219 C 35.777344 30.699219 36 30.476562 36 30.199219 L 36 28.699219 C 36 26.488281 34.210938 24.699219 32 24.699219 C 29.789062 24.699219 28 26.488281 28 28.699219 C 28 30.90625 29.789062 32.699219 32 32.699219 L 35.5 32.699219 C 35.777344 32.699219 36 32.921875 36 33.199219 C 36 33.476562 35.777344 33.699219 35.5 33.699219 L 32 33.699219 C 29.238281 33.699219 27 31.460938 27 28.699219 C 27 25.9375 29.238281 23.699219 32 23.699219 Z M 32 26.699219 C 30.894531 26.699219 30 27.59375 30 28.699219 C 30 29.804688 30.894531 30.699219 32 30.699219 C 33.105469 30.699219 34 29.804688 34 28.699219 C 34 27.59375 33.105469 26.699219 32 26.699219 Z M 32 26.699219 "/>
<path style=" stroke:none;fill-rule:nonzero;fill:rgb(90.980393%,92.156863%,94.117647%);fill-opacity:1;" d="M 18 28.5 L 44.601562 46.699219 L 20 46.699219 C 19 46.699219 18 46.199219 18 44.699219 Z M 18 28.5 "/>
<path style=" stroke:none;fill-rule:nonzero;fill:rgb(94.901961%,94.901961%,98.039216%);fill-opacity:1;" d="M 44 46.699219 C 46 46.699219 46 44.699219 46 44.699219 L 46 28.5 L 19.398438 46.699219 Z M 44 46.699219 "/>
</g>
</svg>
