<svg xmlns="http://www.w3.org/2000/svg" xmlns:xlink="http://www.w3.org/1999/xlink" width="64px" height="64px" viewBox="0 0 64 64" version="1.1">
<defs>
<linearGradient id="linear0" gradientUnits="userSpaceOnUse" x1="0" y1="0" x2="0" y2="1" gradientTransform="matrix(64,0,0,56.020833,0,3.989583)">
<stop offset="0" style="stop-color:#c5eeed;stop-opacity:1;"/>
<stop offset="1" style="stop-color:#0c7672;stop-opacity:1;"/>
</linearGradient>
</defs>
<g id="surface1">
<path style=" stroke:none;fill-rule:nonzero;fill:url(#linear0);" d="M 29.003906 4.003906 C 25.152344 4.003906 22.003906 7.152344 22.003906 11.003906 C 22.003906 11.1875 22.046875 11.359375 22.058594 11.535156 C 16.863281 14.066406 12.328125 17.828125 9.097656 22.371094 C 8.433594 22.15625 7.734375 22.003906 7 22.003906 C 3.144531 22.003906 0 25.15625 0 29.011719 C 0 31.839844 1.703125 34.277344 4.128906 35.375 C 3.589844 41.824219 5.886719 47.519531 10.144531 51.589844 C 10.050781 52.046875 10 52.519531 10 53.011719 C 10 56.863281 13.144531 60.011719 17 60.011719 C 19.125 60.011719 21.019531 59.035156 22.296875 57.53125 C 23.765625 57.796875 25.28125 57.984375 26.871094 58.003906 C 31.816406 58.074219 36.71875 56.910156 41.183594 54.859375 C 42.28125 55.582031 43.59375 56.011719 45 56.011719 C 48.855469 56.011719 52 52.863281 52 49.011719 C 52 48.449219 51.910156 47.910156 51.792969 47.390625 C 55.636719 43.433594 58.441406 38.628906 59.519531 33.371094 C 59.65625 32.703125 59.746094 32.046875 59.816406 31.394531 C 62.269531 30.300781 64 27.847656 64 25 C 64 21.144531 60.855469 18 57 18 C 56.953125 18 56.910156 18.015625 56.871094 18.015625 C 53.027344 12.03125 45.921875 8.125 37.136719 7.996094 C 36.535156 7.988281 35.941406 8.046875 35.34375 8.078125 C 34.230469 5.675781 31.8125 3.988281 29 3.988281 Z M 29.003906 5.988281 C 31.785156 5.988281 34.019531 8.222656 34.019531 11.003906 C 34.019531 13.792969 31.785156 16.027344 29.003906 16.027344 C 26.21875 16.027344 23.984375 13.792969 23.984375 11.003906 C 23.984375 8.222656 26.21875 5.988281 29.003906 5.988281 Z M 36.046875 13.296875 C 42.949219 13.394531 48.425781 16.277344 51.566406 20.65625 C 50.605469 21.855469 50.003906 23.355469 50.003906 25.003906 C 50.003906 27.933594 51.816406 30.4375 54.378906 31.484375 C 54.328125 32.089844 54.25 32.691406 54.125 33.308594 C 53.378906 36.949219 51.550781 40.355469 49 43.269531 C 47.863281 42.480469 46.488281 42.003906 45.003906 42.003906 C 41.152344 42.003906 38.003906 45.152344 38.003906 49.003906 C 38.003906 49.605469 38.109375 50.175781 38.25 50.734375 C 35.019531 52.015625 31.535156 52.761719 27.957031 52.714844 C 26.542969 52.691406 25.214844 52.511719 23.921875 52.261719 C 23.542969 48.761719 20.597656 46.003906 17 46.003906 C 15.785156 46.003906 14.65625 46.34375 13.65625 46.890625 C 10.863281 43.871094 9.390625 39.890625 9.59375 35.488281 C 12.167969 34.457031 14 31.9375 14 29.003906 C 14 27.691406 13.613281 26.472656 12.980469 25.421875 C 15.59375 21.441406 19.503906 18.125 24.078125 15.96875 C 25.34375 17.222656 27.082031 18.003906 29 18.003906 C 32.042969 18.003906 34.613281 16.03125 35.578125 13.308594 C 35.734375 13.308594 35.890625 13.292969 36.046875 13.296875 Z M 57.003906 19.988281 C 59.785156 19.988281 62.019531 22.222656 62.019531 25.003906 C 62.019531 27.792969 59.785156 30.027344 57.003906 30.027344 C 54.222656 30.027344 51.988281 27.792969 51.988281 25.003906 C 51.988281 22.222656 54.21875 19.988281 57.003906 19.988281 Z M 7 23.988281 C 9.785156 23.988281 12.019531 26.222656 12.019531 29.011719 C 12.019531 31.792969 9.785156 34.027344 7 34.027344 C 4.21875 34.027344 1.984375 31.792969 1.984375 29.011719 C 1.984375 26.222656 4.21875 23.988281 7 23.988281 Z M 45.003906 43.996094 C 47.785156 43.996094 50.019531 46.222656 50.019531 49.011719 C 50.019531 51.792969 47.785156 54.027344 45.003906 54.027344 C 42.21875 54.027344 39.988281 51.792969 39.988281 49.011719 C 39.988281 46.222656 42.21875 43.996094 45.003906 43.996094 Z M 17 47.996094 C 19.785156 47.996094 22.019531 50.222656 22.019531 53.011719 C 22.019531 55.792969 19.785156 58.027344 17 58.027344 C 14.21875 58.027344 11.984375 55.792969 11.984375 53.011719 C 11.984375 50.230469 14.21875 47.996094 17 47.996094 Z M 17 47.996094 "/>
</g>
</svg>
