<svg xmlns="http://www.w3.org/2000/svg" xmlns:xlink="http://www.w3.org/1999/xlink" width="64px" height="64px" viewBox="0 0 64 64" version="1.1">
<defs>
<filter id="alpha" filterUnits="objectBoundingBox" x="0%" y="0%" width="100%" height="100%">
  <feColorMatrix type="matrix" in="SourceGraphic" values="0 0 0 0 1 0 0 0 0 1 0 0 0 0 1 0 0 0 1 0"/>
</filter>
<mask id="mask0">
  <g filter="url(#alpha)">
<rect x="0" y="0" width="64" height="64" style="fill:rgb(0%,0%,0%);fill-opacity:0.5;stroke:none;"/>
  </g>
</mask>
<clipPath id="clip1">
  <rect x="0" y="0" width="64" height="64"/>
</clipPath>
<g id="surface5" clip-path="url(#clip1)">
<path style=" stroke:none;fill-rule:nonzero;fill:rgb(100%,100%,100%);fill-opacity:1;" d="M 14 18 L 14 20 L 50 20 L 50 18 Z M 14 22 L 14 24 L 50 24 L 50 22 Z M 14 26 L 14 28 L 50 28 L 50 26 Z M 14 30 L 14 32 L 50 32 L 50 30 Z M 14 34 L 14 36 L 50 36 L 50 34 Z M 14 38 L 14 40 L 50 40 L 50 38 Z M 14 42 L 14 44 L 50 44 L 50 42 Z M 14 46 L 14 48 L 50 48 L 50 46 Z M 14 46 "/>
</g>
</defs>
<g id="surface1">
<path style=" stroke:none;fill-rule:nonzero;fill:rgb(22.745098%,61.56863%,29.019609%);fill-opacity:1;" d="M 7.5 4.5 L 56.5 4.5 C 58.15625 4.5 59.5 5.84375 59.5 7.5 L 59.5 56.5 C 59.5 58.15625 58.15625 59.5 56.5 59.5 L 7.5 59.5 C 5.84375 59.5 4.5 58.15625 4.5 56.5 L 4.5 7.5 C 4.5 5.84375 5.84375 4.5 7.5 4.5 Z M 7.5 4.5 "/>
<use xlink:href="#surface5" mask="url(#mask0)"/>
<path style=" stroke:none;fill-rule:nonzero;fill:rgb(30.19608%,30.19608%,30.19608%);fill-opacity:1;" d="M 18 13.5 L 46 13.5 C 46.277344 13.5 46.5 13.722656 46.5 14 L 46.5 51 C 46.5 51.277344 46.277344 51.5 46 51.5 L 18 51.5 C 17.867188 51.5 17.738281 51.449219 17.644531 51.355469 C 17.550781 51.261719 17.5 51.132812 17.5 51 L 17.5 14 C 17.5 13.722656 17.722656 13.5 18 13.5 Z M 18 13.5 "/>
</g>
</svg>
