<svg xmlns="http://www.w3.org/2000/svg" xmlns:xlink="http://www.w3.org/1999/xlink" width="64px" height="64px" viewBox="0 0 64 64" version="1.1">
<defs>
<filter id="alpha" filterUnits="objectBoundingBox" x="0%" y="0%" width="100%" height="100%">
  <feColorMatrix type="matrix" in="SourceGraphic" values="0 0 0 0 1 0 0 0 0 1 0 0 0 0 1 0 0 0 1 0"/>
</filter>
<mask id="mask0">
  <g filter="url(#alpha)">
<rect x="0" y="0" width="64" height="64" style="fill:rgb(0%,0%,0%);fill-opacity:0.15;stroke:none;"/>
  </g>
</mask>
<linearGradient id="linear0" gradientUnits="userSpaceOnUse" x1="49.570999" y1="52.714001" x2="51.714001" y2="54.856998" gradientTransform="matrix(2.3333,0,0,2.3333,-68.667,-72.000999)">
<stop offset="0" style="stop-color:rgb(0%,0%,0%);stop-opacity:1;"/>
<stop offset="1" style="stop-color:rgb(0%,0%,0%);stop-opacity:0;"/>
</linearGradient>
<clipPath id="clip1">
  <rect x="0" y="0" width="64" height="64"/>
</clipPath>
<g id="surface5" clip-path="url(#clip1)">
<path style=" stroke:none;fill-rule:evenodd;fill:url(#linear0);" d="M 56 46 L 42 60 L 51 60 C 53.769531 60 56 57.769531 56 55 Z M 56 46 "/>
</g>
</defs>
<g id="surface1">
<path style=" stroke:none;fill-rule:nonzero;fill:rgb(12.156863%,67.450982%,96.078432%);fill-opacity:1;" d="M 13 4 L 51 4 C 53.761719 4 56 6.238281 56 9 L 56 55 C 56 57.761719 53.761719 60 51 60 L 13 60 C 10.238281 60 8 57.761719 8 55 L 8 9 C 8 6.238281 10.238281 4 13 4 Z M 13 4 "/>
<use xlink:href="#surface5" mask="url(#mask0)"/>
<path style=" stroke:none;fill-rule:nonzero;fill:rgb(100%,100%,100%);fill-opacity:1;" d="M 32 22 C 25.90625 22 21 26.90625 21 33 C 21 39.09375 25.90625 44 32 44 C 38.09375 44 43 39.09375 43 33 C 43 26.90625 38.09375 22 32 22 M 32 23 C 33.660156 23 35.222656 23.40625 36.597656 24.117188 C 36.601562 24.160156 36.601562 24.1875 36.597656 24.230469 C 36.65625 24.257812 36.6875 24.367188 36.785156 24.421875 C 36.824219 24.441406 36.847656 24.449219 36.882812 24.46875 C 36.9375 24.5 36.988281 24.550781 36.976562 24.609375 C 36.960938 24.691406 36.84375 24.6875 36.785156 24.746094 C 36.796875 24.863281 36.722656 24.859375 36.691406 24.9375 C 36.710938 24.984375 36.777344 24.96875 36.785156 25.03125 C 36.777344 25.09375 36.667969 25.101562 36.691406 25.167969 C 36.800781 25.253906 36.917969 25.183594 37.019531 25.167969 C 37.246094 25.140625 37.445312 25.183594 37.582031 25.074219 C 37.5625 24.96875 37.734375 24.9375 37.722656 24.839844 C 37.714844 24.769531 37.589844 24.753906 37.535156 24.703125 C 37.523438 24.691406 37.507812 24.664062 37.492188 24.640625 C 37.660156 24.75 37.816406 24.867188 37.972656 24.984375 C 37.933594 25.015625 37.902344 25.058594 37.863281 25.074219 C 37.820312 25.09375 37.761719 25.097656 37.722656 25.121094 C 37.664062 25.160156 37.644531 25.21875 37.582031 25.261719 C 37.535156 25.292969 37.394531 25.402344 37.347656 25.402344 C 37.289062 25.402344 37.199219 25.34375 37.160156 25.355469 C 37.097656 25.375 37.132812 25.472656 37.066406 25.496094 C 36.933594 25.542969 36.6875 25.390625 36.644531 25.589844 C 36.699219 25.703125 36.871094 25.667969 36.972656 25.730469 C 37.03125 25.769531 37.144531 25.945312 37.160156 26.011719 C 37.175781 26.066406 37.183594 26.28125 37.160156 26.339844 C 37.097656 26.5 36.921875 26.484375 36.738281 26.480469 C 36.6875 26.480469 36.640625 26.484375 36.597656 26.480469 C 36.285156 26.460938 35.988281 26.351562 35.847656 26.574219 C 35.859375 26.746094 35.886719 26.847656 35.847656 26.996094 C 35.820312 27.105469 35.699219 27.183594 35.707031 27.277344 C 35.710938 27.324219 35.789062 27.398438 35.800781 27.464844 C 35.808594 27.503906 35.785156 27.574219 35.800781 27.605469 C 35.851562 27.703125 35.988281 27.589844 36.082031 27.605469 C 36.171875 27.621094 36.269531 27.742188 36.269531 27.839844 C 36.269531 27.910156 36.21875 28.054688 36.175781 28.121094 C 36.085938 28.253906 35.925781 28.238281 35.800781 28.308594 C 35.695312 28.371094 35.675781 28.488281 35.613281 28.59375 C 35.546875 28.703125 35.492188 28.761719 35.519531 28.921875 C 35.429688 29.097656 35.328125 29.210938 35.140625 29.296875 C 35.085938 29.320312 35.003906 29.355469 34.953125 29.390625 C 34.914062 29.417969 34.867188 29.46875 34.8125 29.53125 C 34.742188 29.609375 34.660156 29.660156 34.625 29.71875 C 34.597656 29.765625 34.605469 29.84375 34.578125 29.90625 C 34.53125 29.992188 34.445312 30.058594 34.390625 30.140625 C 34.363281 30.179688 34.324219 30.230469 34.296875 30.28125 C 34.230469 30.398438 34.140625 30.507812 34.152344 30.609375 C 34.164062 30.707031 34.289062 30.710938 34.296875 30.796875 C 34.300781 30.847656 34.246094 30.886719 34.246094 30.9375 C 34.25 31.011719 34.289062 31.066406 34.296875 31.125 C 34.308594 31.273438 34.230469 31.304688 34.199219 31.40625 C 34.1875 31.453125 34.214844 31.511719 34.199219 31.546875 C 34.175781 31.621094 34.0625 31.691406 34.058594 31.78125 C 34.058594 31.84375 34.148438 31.882812 34.152344 31.96875 C 34.15625 32.027344 34.097656 32.101562 34.109375 32.15625 C 34.132812 32.265625 34.351562 32.402344 34.4375 32.484375 C 34.550781 32.597656 34.667969 32.691406 34.71875 32.8125 C 34.761719 32.914062 34.78125 33.066406 34.859375 33.140625 C 34.917969 33.195312 35.019531 33.222656 35.09375 33.28125 C 35.164062 33.335938 35.25 33.363281 35.324219 33.421875 C 35.445312 33.515625 35.601562 33.714844 35.792969 33.703125 C 35.894531 33.695312 36.007812 33.628906 36.121094 33.609375 C 36.238281 33.589844 36.378906 33.550781 36.496094 33.5625 C 36.589844 33.574219 36.683594 33.613281 36.78125 33.609375 C 36.878906 33.601562 36.992188 33.5625 37.109375 33.515625 C 37.304688 33.429688 37.613281 33.285156 37.902344 33.324219 C 38.121094 33.359375 38.125 33.601562 38.28125 33.699219 C 38.457031 33.71875 38.605469 33.667969 38.746094 33.699219 C 38.851562 33.726562 38.972656 33.898438 38.980469 33.984375 C 38.992188 34.070312 38.898438 34.160156 38.886719 34.214844 C 38.859375 34.332031 38.859375 34.46875 38.839844 34.542969 C 38.824219 34.601562 38.792969 34.675781 38.796875 34.730469 C 38.796875 34.785156 38.882812 34.898438 38.9375 34.964844 C 39.003906 35.050781 39.089844 35.109375 39.167969 35.199219 C 39.3125 35.367188 39.394531 35.585938 39.496094 35.808594 C 39.523438 35.863281 39.472656 35.878906 39.496094 35.949219 C 39.453125 36.285156 39.339844 36.515625 39.121094 36.886719 C 39.015625 37.007812 38.886719 37.160156 38.886719 37.308594 C 38.878906 37.671875 39.089844 37.851562 39.074219 38.199219 C 39.039062 38.667969 39.066406 38.746094 39.03125 38.996094 C 39.1875 39.074219 39.121094 39.296875 39.074219 39.464844 C 39.007812 39.660156 38.925781 39.707031 38.886719 39.839844 C 39.011719 39.894531 39.148438 39.878906 39.285156 39.847656 C 37.464844 41.789062 34.878906 43.003906 31.992188 43.003906 C 30.765625 43.003906 29.59375 42.773438 28.511719 42.371094 C 28.46875 42.355469 28.425781 42.347656 28.386719 42.324219 C 28.324219 42.289062 28.285156 42.214844 28.292969 42.136719 C 28.398438 42.09375 28.59375 42.238281 28.671875 42.089844 C 28.707031 42.019531 28.621094 41.878906 28.671875 41.808594 C 28.707031 41.761719 28.925781 41.726562 28.996094 41.714844 C 29.105469 41.699219 29.21875 41.707031 29.277344 41.667969 C 29.34375 41.628906 29.433594 41.511719 29.421875 41.386719 C 29.414062 41.328125 29.371094 41.300781 29.324219 41.246094 C 29.289062 41.203125 29.304688 41.148438 29.277344 41.109375 C 29.230469 41.039062 29.15625 41.023438 29.136719 40.921875 C 29.28125 40.890625 29.492188 41.070312 29.699219 41.015625 C 29.800781 40.984375 29.9375 40.777344 29.980469 40.6875 C 29.996094 40.65625 29.964844 40.578125 29.980469 40.546875 C 30 40.507812 30.070312 40.472656 30.078125 40.449219 C 30.09375 40.398438 30.066406 40.390625 30.078125 40.355469 C 30.113281 40.253906 30.207031 40.195312 30.265625 40.121094 C 30.3125 40.066406 30.363281 39.992188 30.40625 39.933594 C 30.453125 39.871094 30.46875 39.847656 30.5 39.792969 C 30.53125 39.613281 30.410156 39.488281 30.453125 39.328125 C 30.503906 39.148438 30.75 39.03125 30.921875 38.949219 C 30.984375 38.921875 31.0625 38.875 31.109375 38.855469 C 31.230469 38.8125 31.375 38.800781 31.484375 38.761719 C 31.675781 38.695312 31.722656 38.511719 31.8125 38.339844 C 31.859375 38.261719 31.902344 38.164062 31.910156 38.105469 C 31.917969 38.054688 31.898438 38.027344 31.910156 37.96875 C 31.921875 37.90625 31.9375 37.84375 31.953125 37.777344 C 31.976562 37.691406 32.003906 37.546875 32.003906 37.453125 C 32.003906 37.371094 31.957031 37.335938 31.953125 37.261719 C 31.941406 37.003906 32.046875 36.984375 32.144531 36.839844 C 32.191406 36.769531 32.203125 36.660156 32.238281 36.609375 C 32.398438 36.367188 32.679688 36.269531 32.660156 35.902344 C 32.652344 35.785156 32.609375 35.519531 32.519531 35.480469 C 32.46875 35.460938 32.359375 35.464844 32.285156 35.4375 C 32.050781 35.347656 31.875 35.078125 31.628906 35.058594 C 31.578125 35.058594 31.546875 35.0625 31.488281 35.058594 C 31.394531 35.058594 31.269531 34.976562 31.164062 34.964844 C 31.09375 34.957031 30.96875 34.984375 30.929688 34.964844 C 30.867188 34.9375 30.886719 34.8125 30.835938 34.777344 C 30.796875 34.75 30.707031 34.753906 30.644531 34.730469 C 30.546875 34.691406 30.480469 34.644531 30.363281 34.636719 C 30.328125 34.636719 30.265625 34.644531 30.222656 34.636719 C 30.160156 34.628906 30.09375 34.578125 30.035156 34.542969 C 29.964844 34.5 29.925781 34.464844 29.894531 34.402344 C 29.960938 34.1875 29.75 34.152344 29.707031 34.027344 C 29.6875 33.96875 29.726562 33.890625 29.707031 33.839844 C 29.679688 33.765625 29.601562 33.714844 29.519531 33.652344 C 29.375 33.539062 29.257812 33.441406 29.050781 33.417969 C 28.957031 33.40625 28.832031 33.425781 28.722656 33.417969 C 28.605469 33.410156 28.480469 33.328125 28.394531 33.230469 C 28.308594 33.132812 28.28125 33.039062 28.207031 32.996094 C 28.136719 32.949219 28.019531 32.945312 27.972656 32.902344 C 27.949219 32.882812 27.945312 32.851562 27.925781 32.808594 C 27.890625 32.734375 27.835938 32.707031 27.878906 32.617188 C 27.800781 32.578125 27.828125 32.679688 27.742188 32.664062 C 27.664062 32.554688 27.589844 32.488281 27.414062 32.523438 C 27.332031 32.539062 27.273438 32.664062 27.179688 32.664062 C 27.101562 32.667969 27.046875 32.539062 26.945312 32.523438 C 26.867188 32.515625 26.765625 32.582031 26.710938 32.570312 C 26.625 32.554688 26.601562 32.480469 26.523438 32.429688 C 26.464844 32.390625 26.367188 32.289062 26.335938 32.289062 C 26.234375 32.292969 26.144531 32.503906 26.007812 32.429688 C 25.9375 32.34375 26.132812 32.320312 26.050781 32.242188 C 25.992188 32.183594 25.960938 32.257812 25.914062 32.289062 C 25.855469 32.328125 25.785156 32.359375 25.726562 32.382812 C 25.585938 32.433594 25.503906 32.421875 25.398438 32.476562 C 25.296875 32.527344 25.265625 32.609375 25.207031 32.710938 C 25.160156 32.796875 25.089844 32.9375 25.019531 32.941406 C 24.9375 32.949219 24.863281 32.835938 24.785156 32.804688 C 24.554688 32.703125 24.414062 32.847656 24.226562 32.847656 C 24.050781 32.851562 23.796875 32.59375 23.804688 32.425781 C 23.808594 32.324219 23.886719 32.179688 23.898438 32.050781 C 23.90625 31.953125 23.988281 31.859375 23.992188 31.769531 C 23.992188 31.648438 23.789062 31.550781 23.707031 31.535156 C 23.519531 31.503906 23.269531 31.621094 23.054688 31.535156 C 23.015625 31.46875 23.125 31.414062 23.148438 31.347656 C 23.160156 31.308594 23.132812 31.296875 23.148438 31.253906 C 23.171875 31.191406 23.257812 31.132812 23.285156 31.066406 C 23.308594 31.015625 23.3125 30.941406 23.335938 30.878906 C 23.359375 30.804688 23.421875 30.742188 23.429688 30.691406 C 23.4375 30.621094 23.386719 30.546875 23.335938 30.5 C 23.167969 30.511719 23.054688 30.503906 22.957031 30.546875 C 22.742188 30.644531 22.800781 30.949219 22.582031 31.015625 C 22.507812 31.039062 22.386719 31.046875 22.300781 31.0625 C 22.265625 31.070312 22.222656 31.074219 22.183594 31.085938 C 22.320312 30.359375 22.539062 29.660156 22.824219 29 C 22.871094 29 22.921875 28.996094 22.957031 29 C 23.03125 29.015625 23.078125 29.089844 23.144531 29.09375 C 23.328125 29.109375 23.367188 28.941406 23.519531 28.859375 C 23.675781 28.882812 23.753906 28.84375 23.898438 28.859375 C 23.992188 28.871094 24.101562 28.996094 24.179688 29.003906 C 24.242188 29.003906 24.257812 28.945312 24.320312 28.953125 C 24.378906 28.964844 24.496094 29.070312 24.507812 29.144531 C 24.515625 29.234375 24.433594 29.324219 24.460938 29.425781 C 24.554688 29.523438 24.746094 29.558594 24.882812 29.613281 C 24.96875 29.542969 24.894531 29.390625 24.882812 29.285156 C 24.878906 29.238281 24.886719 29.1875 24.882812 29.144531 C 24.871094 29.074219 24.835938 29.019531 24.835938 28.957031 C 24.835938 28.671875 25.066406 28.554688 25.257812 28.441406 C 25.339844 28.394531 25.421875 28.289062 25.492188 28.253906 C 25.59375 28.203125 25.644531 28.207031 25.726562 28.160156 C 25.878906 28.074219 26.03125 27.972656 26.148438 27.875 C 26.203125 27.746094 26.144531 27.582031 26.148438 27.453125 C 26.203125 27.421875 26.230469 27.460938 26.289062 27.453125 C 26.378906 27.433594 26.425781 27.316406 26.476562 27.265625 C 26.507812 27.234375 26.578125 27.203125 26.617188 27.171875 C 26.707031 27.101562 26.722656 27.015625 26.804688 26.984375 C 26.832031 26.972656 26.902344 26.949219 26.945312 26.9375 C 27.003906 26.921875 27.082031 26.878906 27.179688 26.84375 C 27.242188 26.820312 27.390625 26.820312 27.414062 26.796875 C 27.441406 26.769531 27.40625 26.65625 27.414062 26.609375 C 27.460938 26.382812 27.820312 26.359375 28.023438 26.28125 C 28.160156 26.230469 28.289062 26.113281 28.445312 26.140625 C 28.414062 26.25 28.277344 26.246094 28.304688 26.375 C 28.335938 26.558594 28.566406 26.308594 28.632812 26.28125 C 28.753906 26.230469 28.988281 26.199219 29.148438 26.140625 C 29.285156 26.089844 29.511719 26.023438 29.382812 25.859375 C 29.269531 25.851562 29.242188 25.960938 29.148438 26 C 29.082031 26.007812 29.0625 25.957031 29.007812 25.953125 C 28.953125 25.953125 28.921875 26.007812 28.867188 26 C 28.8125 25.988281 28.734375 25.875 28.726562 25.8125 C 28.703125 25.644531 28.890625 25.605469 28.960938 25.484375 C 28.914062 25.332031 28.714844 25.449219 28.585938 25.390625 C 28.597656 25.300781 28.667969 25.21875 28.773438 25.199219 C 28.859375 25.1875 29.050781 25.203125 29.101562 25.246094 C 29.132812 25.273438 29.101562 25.34375 29.144531 25.386719 C 29.199219 25.433594 29.265625 25.398438 29.335938 25.386719 C 29.359375 25.273438 29.175781 25.320312 29.195312 25.246094 C 29.328125 25.15625 29.589844 25.222656 29.757812 25.199219 C 29.851562 25.1875 29.953125 25.105469 30.039062 25.058594 C 30.117188 25.015625 30.1875 24.9375 30.273438 25.015625 C 30.296875 25.097656 30.222656 25.160156 30.179688 25.203125 C 30.023438 25.339844 29.875 25.46875 29.757812 25.625 C 29.828125 25.695312 29.960938 25.65625 30.085938 25.671875 C 30.132812 25.675781 30.171875 25.710938 30.222656 25.71875 C 30.28125 25.726562 30.363281 25.707031 30.410156 25.71875 C 30.496094 25.738281 30.515625 25.859375 30.601562 25.859375 C 30.734375 25.859375 30.722656 25.714844 30.644531 25.625 C 30.667969 25.53125 30.726562 25.457031 30.691406 25.390625 C 30.628906 25.265625 30.375 25.40625 30.363281 25.25 C 30.355469 25.148438 30.46875 25.136719 30.503906 25.0625 C 30.488281 24.867188 30.664062 24.859375 30.644531 24.6875 C 30.632812 24.613281 30.554688 24.613281 30.503906 24.546875 C 30.480469 24.507812 30.488281 24.429688 30.457031 24.402344 C 30.355469 24.316406 30.140625 24.339844 30.128906 24.171875 C 30.125 24.070312 30.144531 23.996094 30.128906 23.890625 C 30.117188 23.785156 30.03125 23.488281 29.941406 23.46875 C 29.828125 23.441406 29.746094 23.640625 29.613281 23.699219 C 29.542969 23.734375 29.40625 23.761719 29.332031 23.746094 C 29.285156 23.738281 29.199219 23.699219 29.191406 23.605469 C 29.183594 23.5 29.265625 23.484375 29.285156 23.371094 C 30.148438 23.132812 31.054688 22.992188 31.992188 22.992188 M 27.964844 23.84375 C 27.933594 24.253906 27.566406 24.464844 27.136719 24.453125 C 27.042969 24.542969 27.089844 24.707031 27.039062 24.828125 C 27 24.933594 26.863281 25.027344 26.761719 25.019531 C 26.6875 25.011719 26.570312 24.898438 26.570312 24.828125 C 26.570312 24.742188 26.691406 24.695312 26.617188 24.597656 C 26.621094 24.578125 26.648438 24.558594 26.667969 24.535156 C 27.082031 24.273438 27.511719 24.039062 27.964844 23.84375 M 36.3125 24.320312 C 36.273438 24.324219 36.253906 24.34375 36.222656 24.363281 C 36.144531 24.410156 36.136719 24.484375 36.078125 24.503906 C 35.996094 24.535156 35.902344 24.523438 35.890625 24.597656 C 35.882812 24.660156 35.941406 24.683594 35.9375 24.738281 C 35.910156 24.8125 35.859375 24.835938 35.84375 24.925781 C 35.945312 25.09375 36.1875 24.917969 36.3125 24.882812 C 36.367188 24.863281 36.421875 24.878906 36.453125 24.835938 C 36.488281 24.78125 36.472656 24.679688 36.496094 24.601562 C 36.527344 24.519531 36.601562 24.535156 36.59375 24.460938 C 36.585938 24.386719 36.433594 24.308594 36.3125 24.320312 M 25.363281 25.511719 C 25.460938 25.5625 25.625 25.789062 25.4375 25.867188 C 25.417969 25.878906 25.15625 25.921875 25.109375 25.914062 C 25.070312 25.90625 25.039062 25.871094 25.007812 25.835938 C 25.121094 25.726562 25.242188 25.617188 25.363281 25.511719 M 25.71875 25.960938 C 25.765625 25.960938 25.800781 26.050781 25.859375 26.054688 C 25.910156 26.058594 25.96875 25.996094 26 26.007812 C 26.082031 26.027344 26.125 26.179688 26.042969 26.242188 C 25.976562 26.25 25.953125 26.1875 25.90625 26.195312 C 25.769531 26.21875 25.722656 26.484375 25.621094 26.476562 C 25.527344 26.46875 25.480469 26.265625 25.578125 26.195312 C 25.578125 26.136719 25.527344 26.113281 25.53125 26.054688 C 25.558594 26.015625 25.636719 25.953125 25.71875 25.960938 Z M 25.25 26.007812 C 25.277344 26.007812 25.285156 25.996094 25.296875 26.007812 C 25.28125 26.113281 25.238281 26.144531 25.15625 26.195312 C 25.015625 26.28125 24.917969 26.386719 24.871094 26.570312 C 24.859375 26.625 24.710938 26.773438 24.640625 26.757812 C 24.484375 26.726562 24.699219 26.429688 24.734375 26.382812 C 24.773438 26.335938 24.828125 26.300781 24.875 26.242188 C 24.921875 26.1875 24.925781 26.085938 24.96875 26.054688 C 25.015625 26.019531 25.167969 26.003906 25.25 26.007812 Z M 39.398438 26.273438 C 39.464844 26.34375 39.527344 26.414062 39.589844 26.484375 C 39.527344 26.410156 39.421875 26.382812 39.398438 26.273438 M 38.789062 26.296875 C 38.945312 26.285156 39.046875 26.480469 39.117188 26.574219 C 39.175781 26.652344 39.347656 26.757812 39.445312 26.808594 C 39.5 26.839844 39.570312 26.875 39.632812 26.902344 C 39.761719 26.960938 40.003906 27.152344 40.007812 27.277344 C 40.011719 27.34375 39.953125 27.40625 39.964844 27.46875 C 40.0625 27.484375 40.148438 27.332031 40.152344 27.234375 C 40.152344 27.210938 40.144531 27.195312 40.132812 27.179688 C 40.414062 27.578125 40.671875 27.992188 40.894531 28.429688 C 40.808594 28.453125 40.730469 28.496094 40.71875 28.582031 C 40.695312 28.695312 40.789062 28.84375 40.621094 28.863281 C 40.515625 28.878906 40.390625 28.753906 40.246094 28.722656 C 40.1875 28.710938 40.105469 28.738281 40.058594 28.722656 C 39.949219 28.683594 39.964844 28.558594 39.871094 28.492188 C 39.816406 28.453125 39.671875 28.40625 39.585938 28.398438 C 39.53125 28.390625 39.503906 28.40625 39.449219 28.398438 C 39.378906 28.390625 39.269531 28.382812 39.214844 28.351562 C 39.160156 28.316406 39.039062 28.253906 39.027344 28.210938 C 39.003906 28.136719 39.160156 28.039062 39.164062 27.976562 C 39.167969 27.929688 39.128906 27.90625 39.121094 27.835938 C 39.113281 27.792969 39.128906 27.722656 39.121094 27.695312 C 39.105469 27.644531 39.011719 27.601562 38.929688 27.601562 C 38.859375 27.601562 38.804688 27.648438 38.742188 27.648438 C 38.65625 27.648438 38.476562 27.589844 38.367188 27.601562 C 38.300781 27.605469 38.242188 27.644531 38.179688 27.648438 C 38.003906 27.660156 37.894531 27.636719 37.757812 27.648438 C 37.660156 27.652344 37.472656 27.699219 37.382812 27.742188 C 37.335938 27.765625 37.300781 27.804688 37.242188 27.835938 C 37.214844 27.851562 37.183594 27.863281 37.148438 27.882812 C 37.089844 27.90625 37.011719 27.964844 36.960938 27.976562 C 36.882812 27.996094 36.773438 27.972656 36.632812 27.976562 C 36.527344 27.984375 36.351562 27.957031 36.351562 27.835938 C 36.347656 27.648438 36.691406 27.726562 36.867188 27.695312 C 36.933594 27.679688 36.972656 27.601562 37.054688 27.554688 C 37.09375 27.535156 37.113281 27.53125 37.148438 27.507812 C 37.207031 27.46875 37.324219 27.367188 37.335938 27.320312 C 37.34375 27.277344 37.285156 27.210938 37.289062 27.179688 C 37.300781 27.136719 37.375 27.09375 37.429688 27.039062 C 37.515625 26.957031 37.558594 26.859375 37.664062 26.808594 C 37.734375 26.769531 37.867188 26.769531 37.898438 26.714844 C 37.90625 26.648438 37.894531 26.628906 37.898438 26.570312 C 37.941406 26.53125 37.957031 26.484375 37.992188 26.476562 C 38.101562 26.453125 38.195312 26.527344 38.320312 26.523438 C 38.375 26.519531 38.449219 26.515625 38.507812 26.476562 C 38.554688 26.445312 38.601562 26.40625 38.648438 26.382812 C 38.699219 26.355469 38.726562 26.292969 38.789062 26.289062 M 26.277344 26.386719 C 26.324219 26.382812 26.367188 26.386719 26.417969 26.386719 C 26.46875 26.386719 26.539062 26.367188 26.558594 26.386719 C 26.527344 26.519531 26.238281 26.480469 26.136719 26.429688 C 26.140625 26.382812 26.214844 26.390625 26.277344 26.386719 M 39.589844 26.480469 C 39.648438 26.550781 39.707031 26.613281 39.761719 26.679688 C 39.753906 26.675781 39.738281 26.671875 39.730469 26.667969 C 39.675781 26.621094 39.648438 26.550781 39.589844 26.480469 M 25.808594 26.621094 C 25.84375 26.621094 25.867188 26.605469 25.902344 26.621094 C 25.8125 26.699219 25.6875 26.757812 25.527344 26.808594 C 25.449219 26.832031 25.351562 26.84375 25.339844 26.761719 C 25.324219 26.65625 25.410156 26.675781 25.480469 26.667969 C 25.566406 26.65625 25.703125 26.625 25.804688 26.621094 Z M 38.839844 26.621094 C 38.773438 26.644531 38.738281 26.792969 38.839844 26.808594 C 38.882812 26.78125 38.898438 26.707031 38.886719 26.621094 C 38.859375 26.59375 38.859375 26.613281 38.839844 26.621094 M 38.792969 26.902344 C 38.761719 26.914062 38.734375 26.910156 38.699219 26.949219 C 38.699219 27.058594 38.722656 27.132812 38.699219 27.230469 C 38.761719 27.355469 38.898438 27.269531 38.929688 27.183594 C 38.96875 26.976562 38.886719 26.878906 38.792969 26.902344 M 39.679688 27.464844 C 39.59375 27.460938 39.5 27.46875 39.449219 27.511719 C 39.523438 27.628906 39.65625 27.667969 39.824219 27.699219 C 39.882812 27.652344 39.890625 27.542969 39.917969 27.464844 C 39.847656 27.464844 39.773438 27.46875 39.683594 27.464844 Z M 22.109375 31.585938 C 22.222656 31.6875 22.300781 31.855469 22.433594 31.925781 C 22.484375 31.949219 22.558594 31.957031 22.621094 31.972656 C 22.675781 31.980469 22.714844 32 22.765625 32.015625 C 22.871094 32.050781 23.007812 32.074219 23.09375 32.113281 C 23.21875 32.167969 23.308594 32.375 23.421875 32.4375 C 23.425781 32.503906 23.398438 32.578125 23.421875 32.628906 C 23.472656 32.695312 23.570312 32.71875 23.652344 32.765625 C 23.757812 32.820312 23.789062 32.957031 23.886719 33 C 23.921875 33.015625 23.976562 32.984375 24.027344 33 C 24.160156 33.039062 24.195312 33.222656 24.308594 33.1875 C 24.382812 33.164062 24.390625 33.070312 24.402344 33 C 24.453125 32.945312 24.515625 32.859375 24.59375 32.859375 C 24.714844 32.855469 24.734375 33.019531 24.78125 33.140625 C 24.804688 33.210938 24.855469 33.257812 24.875 33.328125 C 24.902344 33.453125 24.898438 33.820312 24.875 33.894531 C 24.84375 33.984375 24.714844 34.023438 24.640625 34.125 C 24.605469 34.171875 24.574219 34.234375 24.546875 34.265625 C 24.496094 34.324219 24.441406 34.351562 24.40625 34.40625 C 24.386719 34.4375 24.378906 34.503906 24.359375 34.546875 C 24.300781 34.675781 24.214844 34.769531 24.265625 34.921875 C 24.285156 34.984375 24.359375 35.035156 24.359375 35.109375 C 24.359375 35.199219 24.1875 35.25 24.171875 35.34375 C 24.160156 35.414062 24.242188 35.53125 24.265625 35.625 C 24.28125 35.695312 24.410156 35.769531 24.453125 35.8125 C 24.523438 35.890625 24.578125 35.996094 24.644531 36.097656 C 24.769531 36.289062 24.84375 36.515625 24.96875 36.707031 C 25.035156 36.804688 25.160156 36.882812 25.203125 36.988281 C 25.226562 37.039062 25.183594 37.128906 25.203125 37.175781 C 25.273438 37.335938 25.605469 37.515625 25.765625 37.597656 C 25.84375 37.636719 25.929688 37.652344 26 37.691406 C 26.105469 37.753906 26.320312 37.878906 26.375 37.972656 C 26.421875 38.058594 26.445312 38.261719 26.46875 38.394531 C 26.5 38.570312 26.460938 38.722656 26.46875 38.910156 C 26.476562 39.015625 26.515625 39.089844 26.515625 39.191406 C 26.515625 39.230469 26.519531 39.296875 26.515625 39.335938 C 26.515625 39.457031 26.527344 39.582031 26.515625 39.710938 C 26.511719 39.777344 26.511719 39.839844 26.515625 39.898438 C 26.523438 39.960938 26.558594 39.984375 26.5625 40.035156 C 26.566406 40.09375 26.511719 40.179688 26.515625 40.226562 C 26.53125 40.351562 26.632812 40.4375 26.65625 40.550781 C 26.675781 40.644531 26.714844 40.863281 26.703125 40.972656 C 26.695312 41.03125 26.664062 41.097656 26.65625 41.164062 C 26.652344 41.214844 26.664062 41.257812 26.65625 41.300781 C 26.652344 41.347656 26.640625 41.382812 26.628906 41.421875 C 23.847656 39.652344 22 36.546875 22 32.992188 C 22 32.511719 22.046875 32.046875 22.109375 31.585938 M 26 32.679688 C 26.097656 32.636719 26.078125 32.808594 26 32.820312 C 25.925781 32.832031 25.929688 32.714844 26 32.679688 "/>
</g>
</svg>
