<svg xmlns="http://www.w3.org/2000/svg" xmlns:xlink="http://www.w3.org/1999/xlink" width="64px" height="64px" viewBox="0 0 64 64" version="1.1">
<defs>
<filter id="alpha" filterUnits="objectBoundingBox" x="0%" y="0%" width="100%" height="100%">
  <feColorMatrix type="matrix" in="SourceGraphic" values="0 0 0 0 1 0 0 0 0 1 0 0 0 0 1 0 0 0 1 0"/>
</filter>
<mask id="mask0">
  <g filter="url(#alpha)">
<rect x="0" y="0" width="64" height="64" style="fill:rgb(0%,0%,0%);fill-opacity:0.15;stroke:none;"/>
  </g>
</mask>
<linearGradient id="linear0" gradientUnits="userSpaceOnUse" x1="49.570999" y1="52.714001" x2="51.714001" y2="54.856998" gradientTransform="matrix(2.3333,0,0,2.3333,-68.667,-72.000999)">
<stop offset="0" style="stop-color:rgb(0%,0%,0%);stop-opacity:1;"/>
<stop offset="1" style="stop-color:rgb(0%,0%,0%);stop-opacity:0;"/>
</linearGradient>
<clipPath id="clip1">
  <rect x="0" y="0" width="64" height="64"/>
</clipPath>
<g id="surface5" clip-path="url(#clip1)">
<path style=" stroke:none;fill-rule:evenodd;fill:url(#linear0);" d="M 56 46 L 42 60 L 51 60 C 53.769531 60 56 57.769531 56 55 Z M 56 46 "/>
</g>
<mask id="mask1">
  <g filter="url(#alpha)">
<rect x="0" y="0" width="64" height="64" style="fill:rgb(0%,0%,0%);fill-opacity:0.2;stroke:none;"/>
  </g>
</mask>
<clipPath id="clip2">
  <rect x="0" y="0" width="64" height="64"/>
</clipPath>
<g id="surface8" clip-path="url(#clip2)">
<path style="fill:none;stroke-width:0.656;stroke-linecap:round;stroke-linejoin:miter;stroke:rgb(100%,100%,100%);stroke-opacity:1;stroke-miterlimit:4;" d="M 293.000753 295.499074 C 293.000753 296.879779 291.655938 298.000079 289.999054 298.000079 C 288.34217 298.000079 286.9996 296.879779 286.9996 295.499074 C 286.9996 294.120244 288.34217 292.999944 289.999054 292.999944 C 291.655938 292.999944 293.000753 294.120244 293.000753 295.499074 Z M 293.000753 295.499074 " transform="matrix(1.7399,0,0,2.0851,-462.346695,-571.141195)"/>
</g>
<clipPath id="clip3">
  <path d="M 36 44 L 40 44 L 40 48 L 36 48 Z M 36 44 "/>
</clipPath>
<clipPath id="clip4">
  <path d="M 48.183594 44.992188 C 48.183594 48.285156 45.511719 50.949219 42.21875 50.949219 C 38.921875 50.949219 36.253906 48.285156 36.253906 44.992188 C 36.253906 41.703125 38.921875 39.035156 42.21875 39.035156 C 45.511719 39.035156 48.183594 41.703125 48.183594 44.992188 Z M 48.183594 44.992188 "/>
</clipPath>
</defs>
<g id="surface1">
<path style=" stroke:none;fill-rule:nonzero;fill:rgb(21.568628%,65.490198%,89.803922%);fill-opacity:1;" d="M 13 4 L 51 4 C 53.761719 4 56 6.238281 56 9 L 56 55 C 56 57.761719 53.761719 60 51 60 L 13 60 C 10.238281 60 8 57.761719 8 55 L 8 9 C 8 6.238281 10.238281 4 13 4 Z M 13 4 "/>
<use xlink:href="#surface5" mask="url(#mask0)"/>
<path style=" stroke:none;fill-rule:nonzero;fill:rgb(100%,100%,100%);fill-opacity:1;" d="M 35.546875 22.582031 L 21.027344 24.421875 L 22.066406 26.707031 L 32.578125 25.15625 L 36.378906 29.066406 L 42.503906 27.992188 Z M 32.699219 29.492188 L 22.699219 31.191406 L 23.675781 33.746094 L 29.113281 32.71875 L 30.507812 35.128906 L 36.269531 33.890625 Z M 29.425781 37.570312 L 24.480469 38.652344 L 25.429688 41.417969 L 30.769531 40.070312 Z M 29.425781 37.570312 "/>
<use xlink:href="#surface8" mask="url(#mask1)"/>
<path style="fill:none;stroke-width:0.656;stroke-linecap:round;stroke-linejoin:miter;stroke:rgb(100%,100%,100%);stroke-opacity:1;stroke-miterlimit:4;" d="M 286.9996 295.510315 C 286.992864 294.129611 288.330944 293.005564 289.987828 292.999944 C 291.644712 292.994323 292.994017 294.109003 293.000753 295.489707 C 293.007488 296.866665 291.676144 297.990712 290.02375 298.000079 " transform="matrix(1.7399,0,0,2.0851,-462.346695,-571.141195)"/>
<g clip-path="url(#clip3)" clip-rule="nonzero">
<g clip-path="url(#clip4)" clip-rule="nonzero">
<path style=" stroke:none;fill-rule:nonzero;fill:rgb(100%,100%,100%);fill-opacity:1;" d="M 36.996094 47.972656 L 34.71875 44.226562 L 39.234375 44.226562 Z M 36.996094 47.972656 "/>
</g>
</g>
</g>
</svg>
