<svg xmlns="http://www.w3.org/2000/svg" xmlns:xlink="http://www.w3.org/1999/xlink" width="64px" height="64px" viewBox="0 0 64 64" version="1.1">
<defs>
<linearGradient id="linear0" gradientUnits="userSpaceOnUse" x1="0" y1="0" x2="0" y2="1" gradientTransform="matrix(64,0,0,57.145833,0,3.427083)">
<stop offset="0" style="stop-color:#58d2f0;stop-opacity:1;"/>
<stop offset="1" style="stop-color:#1b788f;stop-opacity:1;"/>
</linearGradient>
<linearGradient id="linear1" gradientUnits="userSpaceOnUse" x1="0" y1="0" x2="0" y2="1" gradientTransform="matrix(9.786459,0,0,9.703126,22.854167,14.296875)">
<stop offset="0" style="stop-color:#58d2f0;stop-opacity:1;"/>
<stop offset="1" style="stop-color:#1b788f;stop-opacity:1;"/>
</linearGradient>
</defs>
<g id="surface1">
<path style=" stroke:none;fill-rule:nonzero;fill:url(#linear0);" d="M 64 3.425781 C 57.140625 10.285156 52.574219 17.140625 41.375 20.375 C 39.988281 11.921875 32.636719 5.714844 24 5.714844 C 14.28125 5.714844 6.402344 13.53125 6.402344 23.175781 C 6.410156 23.90625 6.464844 24.636719 6.5625 25.359375 C 2.589844 27.609375 0 31.65625 0 38.347656 C 0 49.550781 10.917969 60.574219 23.363281 60.574219 C 47.972656 60.574219 64 35.175781 64 3.425781 Z M 24 13.589844 C 29.300781 13.589844 33.597656 17.847656 33.597656 23.109375 C 33.597656 28.371094 29.300781 32.636719 24 32.636719 C 18.699219 32.636719 14.402344 28.375 14.402344 23.109375 C 14.402344 17.847656 18.699219 13.589844 24 13.589844 Z M 47.363281 36.933594 C 47.363281 38.699219 36.265625 52.636719 25.597656 52.636719 C 15.816406 52.636719 10.238281 46.074219 10.238281 39.25 C 20.90625 49.628906 38.402344 42.785156 47.363281 36.933594 Z M 47.363281 36.933594 "/>
<path style=" stroke:none;fill-rule:nonzero;fill:url(#linear1);" d="M 32.640625 19.144531 C 32.640625 21.828125 30.449219 24 27.75 24 C 25.046875 24 22.855469 21.828125 22.855469 19.144531 C 22.855469 16.46875 25.046875 14.296875 27.75 14.296875 C 30.449219 14.296875 32.640625 16.46875 32.640625 19.144531 Z M 32.640625 19.144531 "/>
</g>
</svg>
