<svg xmlns="http://www.w3.org/2000/svg" xmlns:xlink="http://www.w3.org/1999/xlink" width="64px" height="64px" viewBox="0 0 64 64" version="1.1">
<defs>
<linearGradient id="linear0" gradientUnits="userSpaceOnUse" x1="0" y1="0" x2="0" y2="1" gradientTransform="matrix(64,0,0,42.75,0,10.625)">
<stop offset="0" style="stop-color:#58d2f0;stop-opacity:1;"/>
<stop offset="1" style="stop-color:#1b788f;stop-opacity:1;"/>
</linearGradient>
</defs>
<g id="surface1">
<path style=" stroke:none;fill-rule:evenodd;fill:url(#linear0);" d="M 0 24.410156 C 3.566406 18.980469 6.261719 16.160156 11.675781 11.328125 C 26.734375 10.347656 35.703125 10.4375 52.324219 11.328125 C 59.277344 16.796875 61.730469 19.644531 64 24.410156 C 52.671875 37.859375 45.484375 43.738281 32.234375 53.375 C 17.3125 42.671875 10.296875 36.324219 0 24.410156 Z M 56.582031 30.015625 C 55.125 25.171875 47.296875 20.644531 34.628906 20.644531 C 33.753906 20.644531 32.875 20.65625 32.003906 20.671875 C 27.109375 20.75 22.425781 20.824219 20 18.394531 C 17.140625 15.535156 24.011719 14.003906 25.691406 13.902344 C 25.984375 13.878906 26.269531 13.863281 26.558594 13.84375 C 35.472656 13.285156 41.03125 12.9375 48.144531 16.265625 C 53.828125 18.972656 56.640625 21.402344 60.058594 26.074219 Z M 51.652344 13.957031 C 50.496094 12.527344 43.691406 13.269531 43.691406 13.269531 C 43.691406 13.269531 46.597656 13.8125 50.980469 15.59375 C 51.589844 15.839844 52.683594 15.238281 51.652344 13.957031 Z M 60.859375 24.964844 L 61.417969 24.121094 C 58.964844 20.496094 57.4375 18.886719 54.671875 16.144531 C 55.535156 18.699219 57.042969 20.453125 58.894531 22.613281 C 59.515625 23.339844 60.171875 24.105469 60.859375 24.964844 Z M 12.730469 13.519531 C 8.175781 17.488281 5.875 19.71875 3.003906 24.121094 C 3.136719 24.332031 3.261719 24.546875 3.386719 24.75 C 5.082031 27.609375 6.144531 29.390625 6.480469 28.90625 C 6.363281 21.734375 8.683594 18.59375 14.277344 13.519531 Z M 42.457031 40.996094 C 43.503906 39.769531 42.847656 38.988281 42.042969 38.394531 C 39.296875 36.363281 36.199219 36.613281 32.621094 36.730469 C 30.488281 36.796875 27.847656 36.878906 24.058594 36.582031 C 19.46875 36.230469 12.144531 34.046875 12.144531 34.046875 C 19.667969 42.394531 28.21875 44.964844 37.386719 43.042969 C 41.121094 42.253906 42.128906 41.378906 42.457031 40.996094 Z M 25.578125 45.609375 C 30.574219 46.0625 33.390625 46.089844 38.46875 45.609375 L 32.21875 50.921875 C 31.550781 50.390625 30.957031 49.925781 30.40625 49.488281 L 30.402344 49.484375 C 28.828125 48.246094 27.546875 47.238281 25.578125 45.609375 Z M 25.578125 45.609375 "/>
</g>
</svg>
