<svg xmlns="http://www.w3.org/2000/svg" xmlns:xlink="http://www.w3.org/1999/xlink" width="64px" height="64px" viewBox="0 0 64 64" version="1.1">
<defs>
<linearGradient id="linear0" gradientUnits="userSpaceOnUse" x1="0" y1="0" x2="0" y2="1" gradientTransform="matrix(64,0,0,66.5625,0,-1.281251)">
<stop offset="0" style="stop-color:#d9f7d8;stop-opacity:1;"/>
<stop offset="1" style="stop-color:#1d5911;stop-opacity:1;"/>
</linearGradient>
</defs>
<g id="surface1">
<path style=" stroke:none;fill-rule:nonzero;fill:url(#linear0);" d="M 32 -1.28125 C 25.410156 -1.285156 20.105469 -0.0507812 15.785156 1.921875 C 14.902344 2.3125 14.042969 2.734375 13.214844 3.203125 C 12.988281 3.332031 12.785156 3.480469 12.574219 3.613281 C 12.027344 3.949219 11.472656 4.277344 10.957031 4.644531 C 10.53125 4.949219 10.152344 5.285156 9.75 5.613281 C 6.941406 7.894531 4.886719 10.667969 3.359375 13.683594 C 3.28125 13.832031 3.175781 13.972656 3.105469 14.128906 C 3.03125 14.285156 2.980469 14.441406 2.910156 14.605469 C 1.972656 16.636719 1.199219 18.738281 0.746094 20.921875 C 0.65625 21.332031 0.640625 21.753906 0.574219 22.167969 C 0.363281 23.292969 0.207031 24.40625 0.109375 25.5 C 0.0976562 25.597656 0.0898438 25.699219 0.078125 25.796875 C -0.03125 27.113281 0 28.3125 0.015625 29.546875 C 0.0273438 30.003906 0.0117188 30.457031 0.0351562 30.917969 C 0.09375 32.234375 0.191406 33.410156 0.359375 34.5625 C 0.453125 35.363281 0.582031 36.152344 0.714844 36.941406 C 0.738281 37.046875 0.746094 37.199219 0.769531 37.300781 L 0.769531 37.3125 L 0.871094 37.753906 C 1.011719 38.535156 1.113281 39.328125 1.285156 40.09375 L 1.792969 42.332031 L 1.828125 42.324219 L 6.660156 65.28125 L 12.042969 64.332031 C 15.066406 63.796875 17.230469 63.324219 18.230469 62.527344 C 18.734375 62.121094 19.019531 61.6875 19.171875 60.910156 C 19.316406 60.136719 19.28125 59.011719 18.953125 57.464844 L 15.328125 40.316406 C 15.003906 38.777344 14.582031 37.714844 14.121094 37.03125 C 13.65625 36.355469 13.191406 36.03125 12.542969 35.824219 C 11.25 35.410156 9.0625 35.714844 6.015625 36.253906 L 5.277344 36.386719 C 4.4375 31.488281 4.277344 26.425781 5.230469 21.855469 C 6.359375 16.433594 8.910156 11.746094 13.621094 8.378906 C 18.253906 5.066406 25.144531 3.394531 32 3.410156 C 38.855469 3.394531 45.746094 5.066406 50.386719 8.378906 C 55.09375 11.746094 57.640625 16.433594 58.769531 21.855469 C 59.722656 26.425781 59.5625 31.488281 58.730469 36.386719 L 57.984375 36.253906 C 54.9375 35.714844 52.75 35.410156 51.457031 35.824219 C 50.808594 36.03125 50.34375 36.355469 49.878906 37.03125 C 49.417969 37.714844 49 38.777344 48.671875 40.316406 L 45.046875 57.464844 C 44.71875 59.011719 44.683594 60.136719 44.828125 60.910156 C 44.980469 61.6875 45.265625 62.121094 45.769531 62.527344 C 46.769531 63.324219 48.933594 63.796875 51.957031 64.332031 L 57.339844 65.28125 L 62.171875 42.324219 L 62.214844 42.332031 L 62.714844 40.09375 C 62.886719 39.328125 62.988281 38.535156 63.136719 37.753906 L 63.230469 37.3125 L 63.230469 37.300781 C 63.253906 37.199219 63.265625 37.046875 63.285156 36.941406 C 63.417969 36.152344 63.546875 35.363281 63.644531 34.5625 C 63.808594 33.410156 63.90625 32.234375 63.964844 30.917969 C 63.988281 30.457031 63.972656 30.003906 63.984375 29.546875 C 64 28.3125 64.03125 27.113281 63.921875 25.796875 C 63.910156 25.699219 63.902344 25.597656 63.894531 25.5 C 63.792969 24.40625 63.636719 23.292969 63.425781 22.167969 C 63.359375 21.753906 63.34375 21.332031 63.261719 20.921875 C 62.800781 18.738281 62.027344 16.636719 61.09375 14.605469 C 61.019531 14.441406 60.96875 14.285156 60.894531 14.128906 C 60.824219 13.972656 60.71875 13.832031 60.644531 13.683594 C 59.113281 10.667969 57.058594 7.894531 54.25 5.613281 C 53.847656 5.285156 53.46875 4.949219 53.042969 4.644531 C 52.527344 4.277344 51.972656 3.949219 51.425781 3.613281 C 51.214844 3.480469 51.011719 3.332031 50.785156 3.203125 C 49.957031 2.734375 49.097656 2.3125 48.214844 1.921875 C 43.902344 -0.0507812 38.589844 -1.285156 32 -1.28125 Z M 32 -1.28125 "/>
</g>
</svg>
