<svg xmlns="http://www.w3.org/2000/svg" xmlns:xlink="http://www.w3.org/1999/xlink" width="64px" height="64px" viewBox="0 0 64 64" version="1.1">
<defs>
<linearGradient id="linear0" gradientUnits="userSpaceOnUse" x1="0" y1="0" x2="0" y2="1" gradientTransform="matrix(48,0,0,64,8,0)">
<stop offset="0" style="stop-color:#cff3fe;stop-opacity:1;"/>
<stop offset="1" style="stop-color:#054cff;stop-opacity:1;"/>
</linearGradient>
</defs>
<g id="surface1">
<path style=" stroke:none;fill-rule:evenodd;fill:url(#linear0);" d="M 32 0 C 18.746094 0 8 10.746094 8 24 C 8 37.253906 24 64 32 64 C 40 64 56 37.253906 56 24 C 56 10.746094 45.253906 0 32 0 Z M 32 10.667969 C 39.363281 10.667969 45.332031 16.636719 45.332031 24 C 45.332031 31.363281 39.363281 37.332031 32 37.332031 C 24.636719 37.332031 18.667969 31.363281 18.667969 24 C 18.667969 16.636719 24.636719 10.667969 32 10.667969 Z M 32 10.667969 "/>
</g>
</svg>
