<svg xmlns="http://www.w3.org/2000/svg" xmlns:xlink="http://www.w3.org/1999/xlink" width="64px" height="64px" viewBox="0 0 64 64" version="1.1">
<defs>
<linearGradient id="linear0" gradientUnits="userSpaceOnUse" x1="0" y1="0" x2="0" y2="1" gradientTransform="matrix(64,0,0,61.427083,0,1.286459)">
<stop offset="0" style="stop-color:#e3cfff;stop-opacity:1;"/>
<stop offset="1" style="stop-color:#7d05ff;stop-opacity:1;"/>
</linearGradient>
</defs>
<g id="surface1">
<path style=" stroke:none;fill-rule:nonzero;fill:url(#linear0);" d="M 47.765625 2.296875 C 46.660156 1.765625 45.605469 1.4375 44.605469 1.332031 C 43.59375 1.230469 42.667969 1.296875 41.828125 1.535156 C 40.988281 1.777344 40.253906 2.171875 39.613281 2.71875 C 38.972656 3.269531 38.464844 3.9375 38.082031 4.730469 C 37.839844 5.230469 37.667969 5.691406 37.550781 6.125 C 37.433594 6.566406 37.355469 6.957031 37.3125 7.296875 C 37.269531 7.644531 37.253906 7.941406 37.269531 8.171875 C 37.277344 8.410156 37.277344 8.621094 37.292969 8.714844 L 37.394531 9.761719 C 37.449219 10.25 37.394531 10.625 37.246094 10.890625 C 37.097656 11.167969 36.824219 11.324219 36.410156 11.363281 C 36.316406 11.375 36.21875 11.375 36.105469 11.371094 C 35.996094 11.363281 35.890625 11.347656 35.800781 11.332031 L 19.285156 3.378906 L 13.90625 14.558594 C 13.886719 14.644531 13.875 14.746094 13.871094 14.859375 C 13.859375 14.96875 13.863281 15.078125 13.875 15.167969 C 13.910156 15.578125 14.074219 15.855469 14.347656 16 C 14.609375 16.152344 14.988281 16.203125 15.472656 16.15625 L 16.527344 16.046875 C 16.621094 16.03125 16.828125 16.035156 17.0625 16.027344 C 17.296875 16.011719 17.589844 16.027344 17.941406 16.074219 C 18.28125 16.109375 18.671875 16.1875 19.113281 16.300781 C 19.542969 16.417969 20.011719 16.597656 20.511719 16.832031 C 21.296875 17.21875 21.96875 17.722656 22.515625 18.363281 C 23.066406 19.003906 23.464844 19.75 23.703125 20.582031 C 23.9375 21.421875 24.011719 22.347656 23.90625 23.359375 C 23.796875 24.359375 23.472656 25.410156 22.941406 26.519531 C 22.40625 27.625 21.800781 28.550781 21.121094 29.28125 C 20.425781 30.003906 19.699219 30.535156 18.917969 30.878906 C 18.136719 31.230469 17.324219 31.386719 16.472656 31.355469 C 15.636719 31.324219 14.792969 31.105469 13.941406 30.699219 C 13.453125 30.464844 13.019531 30.214844 12.628906 29.949219 C 12.238281 29.683594 11.917969 29.433594 11.644531 29.191406 C 11.375 28.949219 11.15625 28.734375 10.984375 28.546875 C 10.828125 28.34375 10.765625 28.214844 10.71875 28.113281 L 10.144531 27.222656 C 9.878906 26.808594 9.605469 26.546875 9.316406 26.4375 C 9.035156 26.3125 8.722656 26.359375 8.375 26.582031 C 8.296875 26.636719 8.214844 26.699219 8.128906 26.777344 C 8.046875 26.847656 7.980469 26.917969 7.921875 26.988281 L 0 43.433594 L 16.515625 51.378906 C 16.605469 51.394531 16.703125 51.410156 16.816406 51.417969 C 16.933594 51.421875 17.03125 51.421875 17.128906 51.410156 C 17.535156 51.371094 17.8125 51.214844 17.957031 50.941406 C 18.113281 50.671875 18.167969 50.296875 18.113281 49.8125 L 18.003906 48.761719 C 17.988281 48.667969 17.996094 48.457031 17.980469 48.21875 C 17.972656 47.988281 17.984375 47.691406 18.03125 47.34375 C 18.066406 47.003906 18.144531 46.613281 18.265625 46.171875 C 18.378906 45.738281 18.558594 45.277344 18.796875 44.777344 C 19.175781 43.988281 19.6875 43.316406 20.328125 42.765625 C 20.96875 42.21875 21.707031 41.824219 22.546875 41.589844 C 23.378906 41.34375 24.300781 41.277344 25.324219 41.378906 C 26.316406 41.488281 27.371094 41.8125 28.480469 42.34375 C 29.589844 42.875 30.511719 43.484375 31.246094 44.167969 C 31.964844 44.855469 32.496094 45.59375 32.84375 46.375 C 33.183594 47.152344 33.34375 47.96875 33.316406 48.808594 C 33.285156 49.652344 33.066406 50.5 32.65625 51.34375 C 32.421875 51.832031 32.171875 52.269531 31.90625 52.65625 C 31.644531 53.042969 31.390625 53.371094 31.152344 53.640625 C 30.910156 53.910156 30.699219 54.128906 30.503906 54.296875 C 30.300781 54.457031 30.171875 54.515625 30.066406 54.574219 L 29.175781 55.140625 C 28.769531 55.40625 28.503906 55.683594 28.390625 55.964844 C 28.269531 56.246094 28.324219 56.5625 28.542969 56.910156 C 28.59375 56.988281 28.65625 57.074219 28.730469 57.15625 C 28.808594 57.238281 28.878906 57.308594 28.949219 57.371094 L 40.046875 62.714844 L 47.96875 46.269531 C 48.027344 46.203125 48.09375 46.128906 48.175781 46.058594 C 48.265625 45.984375 48.34375 45.921875 48.421875 45.871094 C 48.769531 45.652344 49.082031 45.597656 49.363281 45.71875 C 49.652344 45.832031 49.925781 46.09375 50.191406 46.503906 L 50.765625 47.394531 C 50.8125 47.496094 50.875 47.628906 51.035156 47.828125 C 51.203125 48.019531 51.421875 48.238281 51.691406 48.472656 C 51.964844 48.71875 52.285156 48.96875 52.675781 49.234375 C 53.066406 49.5 53.503906 49.75 53.988281 49.984375 C 54.839844 50.390625 55.683594 50.613281 56.527344 50.640625 C 57.371094 50.671875 58.183594 50.511719 58.964844 50.171875 C 59.746094 49.824219 60.472656 49.285156 61.167969 48.574219 C 61.847656 47.832031 62.453125 46.910156 62.988281 45.800781 C 63.519531 44.699219 63.84375 43.644531 63.953125 42.652344 C 64.058594 41.628906 63.988281 40.703125 63.75 39.871094 C 63.511719 39.03125 63.113281 38.292969 62.5625 37.652344 C 62.015625 37.011719 61.34375 36.5 60.558594 36.125 C 60.058594 35.878906 59.59375 35.707031 59.160156 35.59375 C 58.71875 35.472656 58.328125 35.394531 57.988281 35.355469 C 57.636719 35.3125 57.34375 35.296875 57.109375 35.308594 C 56.875 35.324219 56.667969 35.316406 56.578125 35.332031 L 55.519531 35.4375 C 55.035156 35.488281 54.65625 35.4375 54.394531 35.285156 C 54.125 35.140625 53.964844 34.863281 53.921875 34.453125 C 53.910156 34.359375 53.910156 34.261719 53.917969 34.144531 C 53.921875 34.03125 53.933594 33.933594 53.953125 33.84375 L 59.332031 22.667969 L 48.230469 17.316406 C 48.167969 17.261719 48.09375 17.191406 48.019531 17.109375 C 47.941406 17.027344 47.878906 16.941406 47.832031 16.859375 C 47.609375 16.515625 47.550781 16.199219 47.683594 15.917969 C 47.792969 15.636719 48.050781 15.359375 48.464844 15.09375 L 49.355469 14.519531 C 49.457031 14.46875 49.589844 14.410156 49.792969 14.25 C 49.980469 14.082031 50.199219 13.863281 50.4375 13.59375 C 50.671875 13.324219 50.925781 12.996094 51.191406 12.609375 C 51.453125 12.21875 51.703125 11.785156 51.941406 11.292969 C 52.347656 10.449219 52.566406 9.605469 52.597656 8.761719 C 52.625 7.917969 52.46875 7.105469 52.125 6.324219 C 51.78125 5.542969 51.25 4.808594 50.53125 4.121094 C 49.792969 3.4375 48.871094 2.828125 47.765625 2.296875 Z M 47.765625 2.296875 "/>
</g>
</svg>
