<svg xmlns="http://www.w3.org/2000/svg" xmlns:xlink="http://www.w3.org/1999/xlink" width="64px" height="64px" viewBox="0 0 64 64" version="1.1">
<defs>
<linearGradient id="linear0" gradientUnits="userSpaceOnUse" x1="0" y1="0" x2="0" y2="1" gradientTransform="matrix(44,0,0,64,10,0)">
<stop offset="0" style="stop-color:#f8c3c3;stop-opacity:1;"/>
<stop offset="1" style="stop-color:#c60606;stop-opacity:1;"/>
</linearGradient>
</defs>
<g id="surface1">
<path style=" stroke:none;fill-rule:nonzero;fill:url(#linear0);" d="M 20.652344 0 C 17.292969 0.0429688 14.84375 -0.078125 12.832031 1.03125 C 11.832031 1.582031 11.03125 2.515625 10.59375 3.6875 C 10.15625 4.859375 10 6.246094 10 8 L 10 56 C 10 57.753906 10.15625 59.140625 10.59375 60.3125 C 11.03125 61.484375 11.832031 62.421875 12.832031 62.972656 C 14.84375 64.082031 17.292969 63.964844 20.652344 64 L 43.355469 64 C 46.707031 63.957031 49.15625 64.082031 51.167969 62.972656 C 52.167969 62.421875 52.96875 61.484375 53.40625 60.3125 C 53.84375 59.140625 54 57.753906 54 56 L 54 8 C 54 6.246094 53.84375 4.859375 53.40625 3.6875 C 52.96875 2.515625 52.167969 1.582031 51.167969 1.03125 C 49.15625 -0.078125 46.707031 0.0351562 43.347656 0 Z M 30 5.207031 L 46.957031 22.167969 L 35.203125 32.042969 L 46.957031 41.917969 L 30 58.871094 L 30 36.417969 L 20.292969 44.574219 L 17.707031 41.503906 L 28.984375 32.042969 L 17.707031 22.574219 L 20.292969 19.503906 L 30 27.667969 Z M 34 14.871094 L 34 27.828125 L 41.042969 21.90625 Z M 34 36.25 L 34 49.207031 L 41.042969 42.171875 Z M 34 36.25 "/>
</g>
</svg>
