<svg xmlns="http://www.w3.org/2000/svg" xmlns:xlink="http://www.w3.org/1999/xlink" width="64px" height="64px" viewBox="0 0 64 64" version="1.1">
<defs>
<linearGradient id="linear0" gradientUnits="userSpaceOnUse" x1="0" y1="0" x2="0" y2="1" gradientTransform="matrix(64,0,0,64,0,0)">
<stop offset="0" style="stop-color:#f8f1d0;stop-opacity:1;"/>
<stop offset="1" style="stop-color:#e18d0f;stop-opacity:1;"/>
</linearGradient>
</defs>
<g id="surface1">
<path style=" stroke:none;fill-rule:evenodd;fill:url(#linear0);" d="M 54.808594 54.808594 C 48.675781 60.9375 41.074219 64 32 64 C 22.925781 64 15.324219 60.9375 9.191406 54.808594 C 3.0625 48.675781 0 41.074219 0 32 C 0 22.925781 3.0625 15.324219 9.191406 9.191406 C 15.324219 3.0625 22.925781 0 32 0 C 41.074219 0 48.675781 3.0625 54.808594 9.191406 C 60.9375 15.324219 64 22.925781 64 32 C 64 41.074219 60.9375 48.675781 54.808594 54.808594 Z M 13.347656 50.875 C 18.296875 55.910156 24.515625 58.433594 32 58.433594 C 39.484375 58.433594 45.6875 55.910156 50.609375 50.875 C 55.527344 45.832031 57.988281 39.542969 57.988281 32 C 57.988281 24.457031 55.527344 18.167969 50.609375 13.125 C 45.6875 8.089844 39.484375 5.566406 32 5.566406 C 24.515625 5.566406 18.296875 8.089844 13.347656 13.125 C 8.394531 18.167969 5.921875 24.457031 5.921875 32 C 5.921875 39.542969 8.394531 45.832031 13.347656 50.875 Z M 32.441406 51.003906 C 27.253906 51.003906 23.324219 49.222656 20.640625 45.65625 C 17.957031 42.09375 16.621094 37.453125 16.621094 31.734375 C 16.621094 26.253906 18.003906 21.671875 20.777344 17.988281 C 23.542969 14.308594 27.550781 12.464844 32.796875 12.464844 C 35.980469 12.464844 38.6875 13.277344 40.925781 14.894531 C 43.167969 16.515625 44.785156 18.652344 45.792969 21.300781 L 40.128906 23.871094 C 38.484375 20.332031 35.890625 18.5625 32.355469 18.5625 C 26.109375 18.5625 22.984375 22.953125 22.984375 31.734375 C 22.984375 40.574219 26.167969 44.996094 32.53125 44.996094 C 36.480469 44.996094 39.128906 43.050781 40.484375 39.160156 L 45.96875 41.191406 C 44.964844 44.261719 43.285156 46.660156 40.925781 48.394531 C 38.574219 50.136719 35.738281 51.003906 32.441406 51.003906 Z M 32.441406 51.003906 "/>
</g>
</svg>
