<svg xmlns="http://www.w3.org/2000/svg" xmlns:xlink="http://www.w3.org/1999/xlink" width="64px" height="64px" viewBox="0 0 64 64" version="1.1">
<defs>
<linearGradient id="linear0" gradientUnits="userSpaceOnUse" x1="0" y1="0" x2="0" y2="1" gradientTransform="matrix(64,0,0,61.03125,0,1.484375)">
<stop offset="0" style="stop-color:#fcd7fb;stop-opacity:1;"/>
<stop offset="1" style="stop-color:#ce13b8;stop-opacity:1;"/>
</linearGradient>
</defs>
<g id="surface1">
<path style=" stroke:none;fill-rule:nonzero;fill:url(#linear0);" d="M 58.667969 62.480469 C 58.066406 62.390625 57.558594 62.125 57.152344 61.683594 C 56.246094 60.714844 54.753906 57.859375 53.53125 54.75 C 52.84375 53.003906 51.53125 49.167969 51.53125 48.902344 C 51.53125 48.824219 52.402344 48.25 53.457031 47.628906 L 55.386719 46.511719 L 55.6875 46.792969 C 56.878906 47.917969 60.324219 53.0625 62.332031 56.722656 C 63.136719 58.1875 63.214844 58.394531 63.214844 59 C 63.207031 59.808594 62.953125 60.363281 62.238281 61.160156 C 61.378906 62.113281 59.902344 62.660156 58.667969 62.480469 Z M 1.4375 61.519531 C 1.480469 61.421875 2.0625 58.78125 2.746094 55.652344 C 3.421875 52.515625 3.996094 49.9375 4.011719 49.910156 C 4.074219 49.832031 10.222656 54.152344 10.222656 54.269531 C 10.222656 54.339844 8.441406 55.863281 6.269531 57.667969 C 1.378906 61.722656 1.359375 61.738281 1.4375 61.519531 Z M 7.957031 50.472656 C 6.238281 49.285156 4.855469 48.265625 4.871094 48.207031 C 4.910156 48.0625 19.636719 23.128906 19.753906 23.003906 C 19.824219 22.933594 26.261719 26.980469 26.5625 27.28125 C 26.625 27.347656 11.3125 52.574219 11.191406 52.597656 C 11.125 52.613281 9.671875 51.65625 7.957031 50.472656 Z M 48.375 43.886719 C 47.203125 41.902344 46.253906 40.269531 46.277344 40.253906 C 46.488281 40.109375 50.941406 37.546875 50.988281 37.546875 C 51.0625 37.546875 54.800781 44.996094 54.746094 45.03125 C 54.265625 45.371094 50.699219 47.496094 50.621094 47.496094 C 50.5625 47.488281 49.550781 45.863281 48.375 43.886719 Z M 0.046875 43.511719 C 0.00390625 43.167969 -0.0117188 40.375 0.0117188 37.3125 L 0.046875 31.746094 L 6.21875 31.78125 C 9.613281 31.796875 12.40625 31.832031 12.421875 31.847656 C 12.441406 31.863281 10.808594 34.640625 8.792969 38.011719 L 5.128906 44.140625 L 0.121094 44.140625 Z M 18.566406 43.964844 C 18.566406 43.933594 20.238281 41.15625 22.292969 37.792969 L 26.015625 31.671875 L 39.246094 31.671875 L 42.78125 37.5625 C 44.722656 40.800781 46.386719 43.578125 46.46875 43.734375 L 46.625 44.019531 L 32.59375 44.019531 C 24.878906 44.019531 18.566406 43.996094 18.566406 43.964844 Z M 54.65625 41.355469 C 53.941406 39.886719 52.605469 37.136719 51.675781 35.238281 L 49.988281 31.792969 L 54.566406 31.792969 C 57.082031 31.792969 60.234375 31.761719 61.574219 31.714844 L 64 31.636719 L 64 44.019531 L 55.949219 44.019531 Z M 44.4375 37.394531 C 41.730469 33.128906 38.964844 28.109375 35.644531 21.421875 C 33.015625 16.121094 30.480469 10.636719 29.4375 7.980469 C 27.921875 4.128906 27.558594 1.738281 28.457031 1.511719 C 29.894531 1.152344 32.707031 4.417969 36.71875 11.097656 C 39.859375 16.328125 44.878906 25.472656 48.714844 32.933594 C 49.421875 34.316406 50.128906 35.671875 50.285156 35.949219 L 50.566406 36.449219 L 48.183594 37.832031 C 46.871094 38.597656 45.75 39.222656 45.691406 39.222656 C 45.640625 39.222656 45.074219 38.402344 44.4375 37.394531 Z M 23.6875 24.167969 L 20.355469 21.96875 L 20.671875 21.46875 C 20.84375 21.199219 21.71875 19.808594 22.609375 18.378906 C 23.503906 16.957031 24.246094 15.769531 24.265625 15.75 C 24.28125 15.734375 25.78125 16.691406 27.597656 17.886719 L 30.902344 20.0625 L 30.40625 20.863281 C 30.140625 21.300781 29.324219 22.636719 28.605469 23.824219 C 27.875 25.011719 27.222656 26.0625 27.152344 26.171875 C 27.035156 26.332031 26.5625 26.058594 23.6875 24.167969 Z M 27.9375 17.035156 C 26.214844 15.910156 24.796875 14.933594 24.796875 14.871094 C 24.796875 14.390625 26.222656 13.074219 26.925781 12.894531 C 28.089844 12.605469 29.984375 13.34375 31.042969 14.5 C 31.859375 15.394531 32.035156 15.832031 31.957031 16.75 C 31.902344 17.4375 31.339844 19.089844 31.160156 19.089844 C 31.113281 19.089844 29.660156 18.167969 27.9375 17.035156 Z M 27.9375 17.035156 "/>
</g>
</svg>
