<svg xmlns="http://www.w3.org/2000/svg" xmlns:xlink="http://www.w3.org/1999/xlink" width="64px" height="64px" viewBox="0 0 64 64" version="1.1">
<defs>
<linearGradient id="linear0" gradientUnits="userSpaceOnUse" x1="0" y1="0" x2="0" y2="1" gradientTransform="matrix(64,0,0,58.614583,0,2.692708)">
<stop offset="0" style="stop-color:#f8f1d0;stop-opacity:1;"/>
<stop offset="1" style="stop-color:#e18d0f;stop-opacity:1;"/>
</linearGradient>
</defs>
<g id="surface1">
<path style=" stroke:none;fill-rule:nonzero;fill:url(#linear0);" d="M 19.144531 2.691406 C 13.636719 2.691406 9.183594 4.699219 5.796875 8.707031 C 1.933594 13.277344 0 19.46875 0 27.300781 C 0 33.128906 1.121094 38.199219 3.375 42.484375 C 6.800781 48.875 12.074219 52.058594 19.144531 52.058594 C 20.671875 58.886719 24.890625 62.472656 34.808594 60.96875 L 34.808594 56.019531 C 30.1875 56.441406 29.1875 53.90625 28.828125 49.417969 L 28.828125 49.125 C 30.21875 48.238281 31.480469 47.136719 32.605469 45.785156 C 36.292969 41.355469 38.144531 35.183594 38.144531 27.300781 C 38.144531 21.425781 36.964844 16.371094 34.625 12.078125 C 31.152344 5.832031 26 2.691406 19.144531 2.691406 Z M 56.296875 4.671875 L 49.328125 4.855469 L 47.019531 15.785156 L 42.066406 15.785156 L 42.066406 23.964844 L 46.613281 23.964844 L 46.613281 39.625 C 46.613281 43.910156 47.230469 46.921875 48.410156 48.644531 C 49.90625 50.933594 53.078125 52.058594 57.949219 52.058594 C 59.574219 52.058594 61.582031 51.839844 64 51.324219 L 64 43.546875 C 62.332031 43.640625 61.09375 43.691406 60.261719 43.691406 C 58.894531 43.691406 57.933594 43.464844 57.359375 43 C 56.660156 42.4375 56.296875 40.988281 56.296875 38.707031 L 56.296875 23.964844 L 63.484375 23.964844 L 63.484375 15.785156 L 56.296875 15.785156 Z M 19.144531 11.859375 C 24.527344 11.859375 27.214844 17.027344 27.214844 27.375 C 27.214844 37.722656 24.527344 42.925781 19.144531 42.925781 C 13.675781 42.925781 10.933594 37.699219 10.933594 27.300781 C 10.933594 26.878906 10.933594 26.472656 10.933594 26.050781 C 11.1875 16.589844 13.9375 11.859375 19.144531 11.859375 Z M 19.144531 11.859375 "/>
</g>
</svg>
