<svg xmlns="http://www.w3.org/2000/svg" xmlns:xlink="http://www.w3.org/1999/xlink" width="64px" height="64px" viewBox="0 0 64 64" version="1.1">
<defs>
<linearGradient id="linear0" gradientUnits="userSpaceOnUse" x1="0" y1="0" x2="0" y2="1" gradientTransform="matrix(60,0,0,57.96875,2,2.833333)">
<stop offset="0" style="stop-color:#fcd7fb;stop-opacity:1;"/>
<stop offset="1" style="stop-color:#ce13b8;stop-opacity:1;"/>
</linearGradient>
</defs>
<g id="surface1">
<path style=" stroke:none;fill-rule:nonzero;fill:url(#linear0);" d="M 33.035156 2.832031 C 22.699219 4.660156 12.34375 6.433594 2.003906 8.234375 C 2 23.957031 2 39.683594 2.003906 55.40625 C 12.292969 57.214844 22.589844 58.933594 32.871094 60.800781 L 37.042969 60.800781 L 37.042969 54.058594 C 41.765625 54.046875 46.484375 54.078125 51.207031 54.066406 C 52.578125 54.027344 54.453125 54.097656 55.027344 52.519531 C 55.5 49.472656 55.140625 46.355469 55.238281 43.28125 C 57.34375 43.21875 59.542969 43.550781 61.582031 42.886719 C 61.996094 41.714844 61.972656 40.441406 62 39.21875 C 61.957031 30.011719 61.972656 20.796875 61.996094 11.589844 C 61.949219 10.574219 61.996094 9.511719 61.636719 8.546875 C 60.386719 7.125 58.25 7.683594 56.589844 7.53125 C 52.371094 7.707031 48.113281 7.261719 43.921875 7.753906 C 40.890625 8.738281 41.972656 12.558594 41.785156 14.964844 L 37.042969 14.964844 L 37.042969 2.832031 Z M 50.636719 9.546875 C 53.738281 9.53125 56.855469 9.640625 59.957031 9.574219 L 59.957031 40.578125 L 55.238281 40.578125 C 55.222656 32.472656 55.261719 24.378906 55.222656 16.28125 C 52.058594 13.769531 47.808594 12.730469 45.046875 9.777344 C 46.90625 9.609375 48.769531 9.558594 50.636719 9.546875 Z M 37.042969 16.988281 L 52.542969 16.988281 L 52.542969 52.035156 L 37.042969 52.035156 C 37.035156 50.6875 37.035156 49.339844 37.042969 47.996094 L 48.5 47.996094 C 48.496094 47.09375 48.496094 46.191406 48.5 45.296875 L 37.042969 45.296875 C 37.035156 44.171875 37.035156 43.050781 37.042969 41.925781 L 48.5 41.925781 C 48.496094 41.03125 48.496094 40.125 48.5 39.230469 L 37.042969 39.230469 C 37.035156 38.105469 37.035156 36.984375 37.042969 35.859375 L 48.5 35.859375 C 48.496094 34.964844 48.496094 34.0625 48.5 33.160156 L 37.042969 33.160156 C 37.035156 32.035156 37.035156 30.917969 37.042969 29.792969 L 48.5 29.792969 L 48.5 20.359375 L 37.042969 20.359375 C 37.035156 19.230469 37.035156 18.113281 37.042969 16.988281 Z M 18.605469 20.324219 C 20.558594 20.28125 22.4375 20.566406 23.957031 21.949219 C 26.847656 25.484375 26.074219 31.941406 21.765625 34.050781 C 20.238281 34.832031 18.484375 34.734375 16.828125 34.667969 C 16.816406 37.308594 16.8125 39.953125 16.816406 42.597656 C 15.457031 42.464844 14.097656 42.328125 12.738281 42.183594 C 12.808594 35.011719 12.75 27.84375 12.777344 20.671875 C 14.613281 20.730469 16.644531 20.359375 18.605469 20.324219 Z M 18.40625 24.230469 C 17.871094 24.214844 17.324219 24.265625 16.816406 24.292969 C 16.808594 26.550781 16.785156 28.808594 16.921875 31.0625 C 18.269531 30.90625 19.996094 31.042969 20.777344 29.65625 C 21.40625 28.300781 21.457031 26.582031 20.714844 25.265625 C 20.160156 24.457031 19.296875 24.25 18.40625 24.230469 Z M 18.40625 24.230469 "/>
</g>
</svg>
