<svg xmlns="http://www.w3.org/2000/svg" xmlns:xlink="http://www.w3.org/1999/xlink" width="64px" height="64px" viewBox="0 0 64 64" version="1.1">
<defs>
<linearGradient id="linear0" gradientUnits="userSpaceOnUse" x1="0" y1="0" x2="0" y2="1" gradientTransform="matrix(64,0,0,62.5625,0,0.718749)">
<stop offset="0" style="stop-color:#c5eeed;stop-opacity:1;"/>
<stop offset="1" style="stop-color:#0c7672;stop-opacity:1;"/>
</linearGradient>
</defs>
<g id="surface1">
<path style=" stroke:none;fill-rule:nonzero;fill:url(#linear0);" d="M 20.734375 37.234375 C 22.683594 33.410156 24.894531 29.109375 26.671875 24.792969 L 27.371094 23.089844 C 25.058594 14.277344 23.667969 7.207031 24.90625 2.636719 C 25.238281 1.441406 26.621094 0.71875 28.097656 0.71875 L 28.996094 0.734375 L 29.160156 0.734375 C 31.183594 0.703125 32.136719 3.269531 32.246094 4.269531 C 32.421875 5.9375 31.652344 8.753906 31.652344 8.753906 C 31.652344 7.613281 31.699219 5.777344 30.980469 4.191406 C 30.140625 2.355469 29.34375 1.261719 28.628906 1.082031 C 28.265625 1.328125 27.917969 1.828125 27.796875 2.785156 C 27.546875 4.136719 27.46875 5.839844 27.46875 6.714844 C 27.46875 9.8125 28.082031 13.90625 29.28125 18.121094 C 29.503906 17.46875 29.703125 16.839844 29.863281 16.253906 C 30.109375 15.328125 31.671875 9.1875 31.671875 9.1875 C 31.671875 9.1875 31.28125 17.359375 30.730469 19.832031 C 30.609375 20.355469 30.480469 20.875 30.34375 21.402344 C 32.324219 26.925781 35.511719 31.859375 39.308594 35.40625 C 40.808594 36.808594 42.703125 37.9375 44.496094 38.964844 C 48.40625 38.40625 52.003906 38.140625 55.011719 38.175781 C 59 38.230469 61.925781 38.816406 63.109375 39.984375 C 63.6875 40.550781 63.925781 41.238281 64 42.003906 C 64.015625 42.308594 63.871094 43.003906 63.828125 43.183594 C 63.871094 42.96875 63.871094 41.921875 60.671875 40.902344 C 58.152344 40.09375 53.433594 40.121094 47.769531 40.722656 C 54.316406 43.925781 60.699219 45.515625 62.71875 44.5625 C 63.214844 44.324219 63.8125 43.5 63.8125 43.5 C 63.8125 43.5 63.457031 45.121094 63.199219 45.527344 C 62.875 45.964844 62.234375 46.4375 61.625 46.597656 C 58.433594 47.453125 50.125 45.480469 42.878906 41.34375 C 34.785156 42.53125 25.894531 44.734375 18.769531 47.074219 C 11.769531 59.34375 6.503906 64.980469 2.222656 62.832031 L 0.652344 62.042969 C 0.0117188 61.675781 -0.0898438 60.785156 0.0625 60.0625 C 0.558594 57.621094 3.625 53.9375 9.777344 50.265625 C 10.4375 49.863281 13.386719 48.300781 13.386719 48.300781 C 13.386719 48.300781 11.203125 50.417969 10.691406 50.832031 C 5.78125 54.859375 2.15625 59.921875 2.246094 61.878906 L 2.265625 62.050781 C 6.4375 61.457031 12.691406 52.96875 20.734375 37.234375 M 23.28125 38.535156 C 21.941406 41.066406 20.625 43.410156 19.417969 45.566406 C 26.121094 42.753906 33.339844 40.957031 40.207031 39.683594 C 39.285156 39.046875 38.386719 38.371094 37.546875 37.65625 C 33.761719 34.453125 30.875 30.457031 28.785156 26.25 C 27.457031 29.824219 25.886719 33.621094 23.28125 38.535156 "/>
</g>
</svg>
