<svg xmlns="http://www.w3.org/2000/svg" xmlns:xlink="http://www.w3.org/1999/xlink" width="64px" height="64px" viewBox="0 0 64 64" version="1.1">
<defs>
<linearGradient id="linear0" gradientUnits="userSpaceOnUse" x1="0" y1="0" x2="0" y2="1" gradientTransform="matrix(35.052083,0,0,64,14.473958,0)">
<stop offset="0" style="stop-color:#f8f1d0;stop-opacity:1;"/>
<stop offset="1" style="stop-color:#e18d0f;stop-opacity:1;"/>
</linearGradient>
</defs>
<g id="surface1">
<path style=" stroke:none;fill-rule:nonzero;fill:url(#linear0);" d="M 36.535156 64 L 28.046875 64 L 28.046875 57.46875 C 24.753906 56.746094 21.949219 55.292969 19.628906 53.113281 C 17.308594 50.9375 15.589844 48.203125 14.472656 44.917969 L 22.53125 41.941406 C 23.546875 44.3125 24.949219 46.199219 26.738281 47.597656 C 28.53125 49.003906 30.5625 49.703125 32.832031 49.703125 C 35.203125 49.703125 37.09375 49.089844 38.496094 47.855469 C 39.894531 46.621094 40.597656 44.890625 40.597656 42.667969 C 40.597656 41.503906 40.355469 40.480469 39.875 39.582031 C 39.390625 38.6875 38.578125 37.875 37.441406 37.152344 C 36.308594 36.425781 35.292969 35.871094 34.394531 35.484375 C 33.5 35.09375 32.183594 34.5625 30.4375 33.886719 C 28.652344 33.207031 27.296875 32.667969 26.375 32.253906 C 25.457031 31.84375 24.234375 31.1875 22.714844 30.296875 C 21.1875 29.402344 20.050781 28.496094 19.300781 27.574219 C 18.550781 26.65625 17.875 25.441406 17.269531 23.949219 C 16.667969 22.449219 16.363281 20.777344 16.363281 18.9375 C 16.363281 15.699219 17.390625 12.878906 19.449219 10.484375 C 21.503906 8.089844 24.371094 6.53125 28.046875 5.808594 L 28.046875 0 L 36.535156 0 L 36.535156 5.875 C 39.390625 6.558594 41.722656 7.800781 43.535156 9.613281 C 45.347656 11.425781 46.644531 13.667969 47.421875 16.328125 L 39.582031 18.9375 C 38.183594 15.457031 35.519531 13.714844 31.597656 13.714844 C 29.621094 13.714844 28.066406 14.171875 26.957031 15.09375 C 25.84375 16.011719 25.285156 17.292969 25.285156 18.9375 C 25.285156 19.667969 25.457031 20.34375 25.796875 20.96875 C 26.136719 21.597656 26.53125 22.121094 26.996094 22.53125 C 27.453125 22.941406 28.15625 23.390625 29.097656 23.875 C 30.042969 24.355469 30.828125 24.71875 31.457031 24.964844 C 32.082031 25.203125 33.050781 25.566406 34.359375 26.050781 C 35.953125 26.675781 37.140625 27.160156 37.910156 27.5 C 38.6875 27.839844 39.800781 28.371094 41.25 29.097656 C 42.703125 29.824219 43.816406 30.5625 44.589844 31.3125 C 45.363281 32.0625 46.1875 32.980469 47.058594 34.066406 C 47.925781 35.15625 48.558594 36.417969 48.941406 37.84375 C 49.328125 39.269531 49.527344 40.855469 49.527344 42.59375 C 49.527344 46.707031 48.3125 50.066406 45.894531 52.683594 C 43.480469 55.292969 40.355469 56.9375 36.535156 57.613281 Z M 36.535156 64 "/>
</g>
</svg>
