<svg xmlns="http://www.w3.org/2000/svg" xmlns:xlink="http://www.w3.org/1999/xlink" width="64px" height="64px" viewBox="0 0 64 64" version="1.1">
<defs>
<linearGradient id="linear0" gradientUnits="userSpaceOnUse" x1="0" y1="0" x2="0" y2="1" gradientTransform="matrix(64,0,0,64.010417,0,-0.00520833)">
<stop offset="0" style="stop-color:#d9f7d8;stop-opacity:1;"/>
<stop offset="1" style="stop-color:#1d5911;stop-opacity:1;"/>
</linearGradient>
</defs>
<g id="surface1">
<path style=" stroke:none;fill-rule:nonzero;fill:url(#linear0);" d="M 31.996094 -0.00390625 C 14.375 -0.00390625 0 14.328125 0 32 C 0 49.671875 14.375 64.003906 31.996094 64.003906 C 49.636719 64.003906 64 49.671875 64 32 C 64 14.328125 49.625 -0.00390625 31.996094 -0.00390625 Z M 31.996094 4.035156 C 47.535156 4.035156 60.042969 16.5625 60.042969 32 C 60.042969 47.441406 47.53125 59.96875 31.996094 59.96875 C 16.46875 59.96875 3.953125 47.441406 3.953125 32 C 3.953125 16.5625 16.464844 4.035156 31.996094 4.035156 Z M 32.910156 8.027344 C 30.652344 8.027344 28.390625 8.886719 26.660156 10.613281 L 10.597656 26.65625 C 7.140625 30.109375 7.140625 35.671875 10.597656 39.128906 C 14.0625 42.589844 19.636719 42.589844 23.09375 39.128906 L 39.15625 23.09375 C 42.621094 19.636719 42.621094 14.074219 39.15625 10.613281 C 37.433594 8.886719 35.171875 8.027344 32.917969 8.027344 Z M 32.910156 9.285156 C 34.847656 9.285156 36.785156 10.027344 38.265625 11.503906 C 41.234375 14.464844 41.234375 19.253906 38.265625 22.214844 C 35.296875 25.171875 30.5 25.171875 27.550781 22.214844 C 24.59375 19.265625 24.59375 14.46875 27.550781 11.503906 C 29.03125 10.027344 30.96875 9.285156 32.910156 9.285156 Z M 47.1875 22.277344 C 44.933594 22.277344 42.671875 23.140625 40.941406 24.871094 L 24.878906 40.90625 C 21.417969 44.363281 21.417969 49.925781 24.878906 53.386719 C 28.34375 56.84375 33.917969 56.84375 37.378906 53.386719 L 53.441406 37.34375 C 56.90625 33.890625 56.90625 28.316406 53.441406 24.859375 C 51.714844 23.136719 49.453125 22.269531 47.199219 22.269531 Z M 47.1875 23.550781 C 49.125 23.550781 51.066406 24.292969 52.550781 25.765625 C 55.503906 28.738281 55.503906 33.511719 52.550781 36.46875 C 49.589844 39.417969 44.796875 39.417969 41.832031 36.46875 C 38.878906 33.496094 38.878906 28.722656 41.832031 25.765625 C 43.3125 24.292969 45.25 23.550781 47.1875 23.550781 Z M 16.84375 25.339844 C 18.78125 25.339844 20.71875 26.078125 22.203125 27.558594 C 25.15625 30.503906 25.15625 35.296875 22.203125 38.261719 C 19.222656 41.21875 14.4375 41.21875 11.496094 38.261719 C 8.53125 35.300781 8.53125 30.515625 11.496094 27.558594 C 12.96875 26.078125 14.90625 25.339844 16.84375 25.339844 Z M 31.125 39.589844 C 33.0625 39.589844 34.996094 40.328125 36.464844 41.808594 C 39.433594 44.765625 39.433594 49.550781 36.464844 52.511719 C 33.511719 55.484375 28.71875 55.484375 25.769531 52.511719 C 22.808594 49.5625 22.808594 44.777344 25.769531 41.808594 C 27.25 40.332031 29.1875 39.589844 31.125 39.589844 Z M 31.125 39.589844 "/>
</g>
</svg>
