<svg xmlns="http://www.w3.org/2000/svg" xmlns:xlink="http://www.w3.org/1999/xlink" width="64px" height="64px" viewBox="0 0 64 64" version="1.1">
<defs>
<linearGradient id="linear0" gradientUnits="userSpaceOnUse" x1="0" y1="0" x2="0" y2="1" gradientTransform="matrix(60,0,0,46.770833,2,9.229167)">
<stop offset="0" style="stop-color:#58d2f0;stop-opacity:1;"/>
<stop offset="1" style="stop-color:#1b788f;stop-opacity:1;"/>
</linearGradient>
</defs>
<g id="surface1">
<path style=" stroke:none;fill-rule:nonzero;fill:url(#linear0);" d="M 14.878906 9.230469 C 11.308594 9.261719 6.8125 9.511719 2 10.332031 L 2 56 L 12.84375 56 L 12.84375 39.480469 C 12.84375 39.480469 34.214844 41.457031 34.621094 25.839844 C 34.621094 25.839844 37.4375 9.046875 14.878906 9.230469 Z M 15.980469 17.363281 C 22.5625 17.390625 24.28125 19.722656 24.453125 24.058594 C 24.453125 33.144531 12.84375 30.921875 12.84375 30.921875 L 12.84375 17.53125 C 13.996094 17.441406 15.042969 17.359375 15.980469 17.363281 Z M 49.191406 21.34375 C 46.5625 21.464844 43.964844 22.078125 41.652344 23.378906 C 37.375 25.902344 36.839844 32.0625 39.199219 36.089844 C 42.140625 40.4375 47.8125 41.0625 51.824219 44.050781 C 53.855469 45.40625 52.808594 48.832031 50.464844 49.050781 C 46.144531 49.761719 41.808594 48.199219 37.925781 46.425781 L 37.925781 52.609375 C 37.386719 54.441406 39.636719 54.488281 40.890625 54.984375 C 45.550781 56.113281 50.605469 56.285156 55.207031 54.8125 C 59.28125 53.613281 62.207031 49.558594 61.988281 45.324219 C 61.988281 44.191406 61.769531 43.09375 61.394531 42.019531 C 59.792969 37.574219 54.8125 36.125 50.972656 34.222656 C 48.535156 33.597656 44.941406 30.546875 48.175781 28.464844 C 51.8125 27.324219 55.574219 29.019531 58.855469 30.496094 L 61.222656 24.816406 C 62.019531 23.035156 58.171875 23.0625 56.988281 22.277344 C 54.496094 21.574219 51.828125 21.222656 49.191406 21.34375 Z M 49.191406 21.34375 "/>
</g>
</svg>
