<svg xmlns="http://www.w3.org/2000/svg" xmlns:xlink="http://www.w3.org/1999/xlink" width="64px" height="64px" viewBox="0 0 64 64" version="1.1">
<defs>
<linearGradient id="linear0" gradientUnits="userSpaceOnUse" x1="0" y1="0" x2="0" y2="1" gradientTransform="matrix(64,0,0,48,0,8)">
<stop offset="0" style="stop-color:#e3cfff;stop-opacity:1;"/>
<stop offset="1" style="stop-color:#7d05ff;stop-opacity:1;"/>
</linearGradient>
</defs>
<g id="surface1">
<path style=" stroke:none;fill-rule:nonzero;fill:url(#linear0);" d="M 55.109375 35.59375 C 52.875 35.605469 50.9375 36.140625 49.3125 36.9375 C 48.714844 35.753906 48.121094 34.703125 48.015625 33.933594 C 47.894531 33.03125 47.753906 32.484375 47.894531 31.40625 C 48.035156 30.332031 48.667969 28.800781 48.65625 28.683594 C 48.644531 28.566406 48.515625 28.019531 47.230469 28.003906 C 45.941406 27.996094 44.832031 28.25 44.703125 28.589844 C 44.578125 28.933594 44.332031 29.703125 44.167969 30.496094 C 43.941406 31.667969 41.59375 35.839844 40.25 38.027344 C 39.816406 37.171875 39.441406 36.421875 39.363281 35.828125 C 39.246094 34.925781 39.105469 34.378906 39.246094 33.300781 C 39.386719 32.230469 40.015625 30.691406 40.003906 30.578125 C 39.996094 30.464844 39.863281 29.910156 38.578125 29.902344 C 37.292969 29.890625 36.183594 30.144531 36.050781 30.484375 C 35.925781 30.824219 35.785156 31.621094 35.515625 32.390625 C 35.25 33.160156 32.125 40.128906 31.308594 41.925781 C 30.886719 42.855469 30.527344 43.589844 30.265625 44.09375 C 30.265625 44.09375 30.253906 44.125 30.21875 44.1875 C 30 44.621094 29.871094 44.855469 29.871094 44.855469 C 29.871094 44.855469 29.871094 44.855469 29.871094 44.863281 C 29.691406 45.175781 29.511719 45.46875 29.417969 45.46875 C 29.34375 45.46875 29.214844 44.628906 29.4375 43.484375 C 29.90625 41.0625 31.015625 37.300781 31.003906 37.171875 C 31.003906 37.097656 31.214844 36.449219 30.28125 36.109375 C 29.371094 35.769531 29.042969 36.328125 28.957031 36.328125 C 28.875 36.328125 28.816406 36.527344 28.816406 36.527344 C 28.816406 36.527344 29.832031 32.296875 26.878906 32.296875 C 25.03125 32.296875 22.484375 34.316406 21.21875 36.140625 C 20.425781 36.574219 18.730469 37.5 16.917969 38.488281 C 16.230469 38.878906 15.515625 39.265625 14.847656 39.625 C 14.800781 39.578125 14.753906 39.519531 14.707031 39.472656 C 11.128906 35.652344 4.515625 32.953125 4.796875 27.816406 C 4.902344 25.949219 5.542969 21.042969 17.503906 15.078125 C 27.34375 10.222656 35.175781 11.574219 36.53125 14.550781 C 38.472656 18.808594 32.339844 26.707031 22.167969 27.855469 C 18.285156 28.285156 16.25 26.792969 15.738281 26.230469 C 15.199219 25.644531 15.121094 25.609375 14.921875 25.730469 C 14.59375 25.902344 14.800781 26.425781 14.921875 26.734375 C 15.222656 27.527344 16.472656 28.933594 18.589844 29.621094 C 20.457031 30.230469 25.003906 30.566406 30.515625 28.4375 C 36.671875 26.050781 41.488281 19.425781 40.078125 13.875 C 38.660156 8.238281 29.308594 6.378906 20.457031 9.527344 C 15.199219 11.394531 9.496094 14.339844 5.390625 18.175781 C 0.515625 22.734375 -0.253906 26.699219 0.0625 28.359375 C 1.199219 34.25 9.316406 38.082031 12.566406 40.921875 C 12.40625 41.015625 12.253906 41.097656 12.125 41.167969 C 10.5 41.972656 4.308594 45.214844 2.761719 48.640625 C 1.011719 52.519531 3.042969 55.300781 4.386719 55.675781 C 8.5625 56.832031 12.847656 54.753906 15.152344 51.316406 C 17.457031 47.878906 17.175781 43.410156 16.109375 41.371094 C 16.097656 41.34375 16.089844 41.324219 16.0625 41.296875 C 16.484375 41.050781 16.917969 40.796875 17.339844 40.550781 C 18.167969 40.058594 18.988281 39.605469 19.6875 39.230469 C 19.292969 40.316406 19 41.613281 18.859375 43.484375 C 18.683594 45.683594 19.582031 48.53125 20.765625 49.65625 C 21.292969 50.144531 21.910156 50.15625 22.308594 50.15625 C 23.6875 50.15625 24.308594 49.011719 24.996094 47.65625 C 25.839844 45.996094 26.597656 44.066406 26.597656 44.066406 C 26.597656 44.066406 25.652344 49.28125 28.222656 49.28125 C 29.15625 49.28125 30.105469 48.066406 30.527344 47.449219 C 30.527344 47.457031 30.527344 47.457031 30.527344 47.457031 C 30.527344 47.457031 30.546875 47.421875 30.59375 47.339844 C 30.6875 47.1875 30.746094 47.09375 30.746094 47.09375 C 30.746094 47.09375 30.746094 47.082031 30.746094 47.074219 C 31.121094 46.417969 31.964844 44.933594 33.214844 42.46875 C 34.828125 39.285156 36.378906 35.3125 36.378906 35.3125 C 36.378906 35.3125 36.519531 36.28125 37 37.894531 C 37.28125 38.84375 37.863281 39.878906 38.332031 40.890625 C 37.957031 41.417969 37.722656 41.707031 37.722656 41.707031 C 37.722656 41.707031 37.722656 41.707031 37.738281 41.71875 C 37.433594 42.113281 37.105469 42.546875 36.746094 42.96875 C 35.46875 44.488281 33.949219 46.230469 33.738281 46.734375 C 33.496094 47.328125 33.550781 47.761719 34.019531 48.113281 C 34.359375 48.371094 34.96875 48.40625 35.589844 48.371094 C 36.734375 48.285156 37.542969 48.003906 37.9375 47.832031 C 38.558594 47.609375 39.28125 47.269531 39.957031 46.765625 C 41.207031 45.84375 41.96875 44.519531 41.902344 42.78125 C 41.863281 41.824219 41.546875 40.863281 41.160156 39.964844 C 41.28125 39.800781 41.386719 39.636719 41.5 39.472656 C 43.480469 36.582031 45.011719 33.417969 45.011719 33.417969 C 45.011719 33.417969 45.152344 34.390625 45.628906 36 C 45.863281 36.816406 46.34375 37.707031 46.761719 38.574219 C 44.90625 40.082031 43.761719 41.832031 43.347656 42.980469 C 42.613281 45.109375 43.1875 46.066406 44.269531 46.285156 C 44.765625 46.394531 45.464844 46.160156 45.980469 45.9375 C 46.636719 45.730469 47.40625 45.363281 48.140625 44.828125 C 49.390625 43.90625 50.597656 42.621094 50.527344 40.875 C 50.488281 40.082031 50.28125 39.296875 49.988281 38.535156 C 51.566406 37.886719 53.597656 37.519531 56.199219 37.824219 C 61.761719 38.480469 62.859375 41.953125 62.652344 43.410156 C 62.4375 44.875 61.269531 45.667969 60.886719 45.917969 C 60.5 46.160156 60.371094 46.238281 60.40625 46.417969 C 60.453125 46.671875 60.640625 46.660156 60.964844 46.613281 C 61.421875 46.535156 63.890625 45.4375 63.996094 42.746094 C 64.167969 39.308594 60.894531 35.558594 55.109375 35.59375 Z M 12.183594 50.066406 C 10.339844 52.078125 7.765625 52.832031 6.65625 52.191406 C 5.464844 51.503906 5.933594 48.535156 8.199219 46.40625 C 9.578125 45.109375 11.355469 43.90625 12.535156 43.167969 C 12.800781 43.003906 13.203125 42.769531 13.683594 42.480469 C 13.761719 42.433594 13.808594 42.40625 13.808594 42.40625 C 13.902344 42.347656 13.996094 42.292969 14.089844 42.234375 C 14.921875 45.269531 14.125 47.949219 12.183594 50.066406 Z M 25.625 40.921875 C 24.984375 42.488281 23.640625 46.5 22.824219 46.277344 C 22.121094 46.089844 21.6875 43.050781 22.683594 40.046875 C 23.183594 38.542969 24.25 36.738281 24.871094 36.035156 C 25.875 34.917969 26.984375 34.542969 27.25 34.996094 C 27.589844 35.59375 26.027344 39.941406 25.625 40.921875 Z M 36.71875 46.230469 C 36.453125 46.371094 36.191406 46.464844 36.078125 46.394531 C 35.996094 46.347656 36.191406 46.160156 36.191406 46.160156 C 36.191406 46.160156 37.582031 44.667969 38.136719 43.984375 C 38.453125 43.589844 38.824219 43.121094 39.222656 42.59375 C 39.222656 42.640625 39.222656 42.703125 39.222656 42.75 C 39.222656 44.535156 37.496094 45.738281 36.71875 46.230469 Z M 45.277344 44.28125 C 45.078125 44.140625 45.113281 43.671875 45.78125 42.207031 C 46.035156 41.636719 46.644531 40.675781 47.6875 39.753906 C 47.800781 40.128906 47.886719 40.488281 47.875 40.828125 C 47.859375 43.089844 46.25 43.925781 45.277344 44.28125 Z M 45.277344 44.28125 "/>
</g>
</svg>
