<svg xmlns="http://www.w3.org/2000/svg" xmlns:xlink="http://www.w3.org/1999/xlink" width="64px" height="64px" viewBox="0 0 64 64" version="1.1">
<defs>
<linearGradient id="linear0" gradientUnits="userSpaceOnUse" x1="0" y1="0" x2="0" y2="1" gradientTransform="matrix(60,0,0,56,2,4)">
<stop offset="0" style="stop-color:#d9f7d8;stop-opacity:1;"/>
<stop offset="1" style="stop-color:#1d5911;stop-opacity:1;"/>
</linearGradient>
</defs>
<g id="surface1">
<path style=" stroke:none;fill-rule:nonzero;fill:url(#linear0);" d="M 20.75 49.230469 C 26.4375 43.308594 31.640625 37.144531 32.300781 35.542969 C 32.96875 33.9375 35.582031 30.769531 38.121094 28.503906 C 44.761719 22.574219 48.636719 23.042969 51.96875 30.171875 C 52.816406 31.988281 53.984375 33.472656 54.5625 33.472656 C 55.890625 33.472656 62 27.527344 62 26.234375 C 62 24.5625 58.863281 21.683594 57.046875 21.683594 C 55.125 21.683594 53.292969 18.933594 53.292969 16.050781 C 53.292969 13.875 47.292969 7.808594 42.9375 5.582031 C 40.859375 4.519531 37.285156 4 32.105469 4 C 24.269531 4 21 5.296875 26.011719 6.417969 C 27.515625 6.75 30.355469 8.363281 32.3125 10.003906 C 37.355469 14.222656 37.152344 17.394531 31.402344 24.230469 C 28.9375 27.152344 26.324219 29.542969 25.589844 29.542969 C 23.957031 29.542969 2 49.957031 2 51.472656 C 2 52.613281 8.738281 60 9.785156 60 C 10.125 60 15.058594 55.152344 20.75 49.230469 Z M 20.75 49.230469 "/>
</g>
</svg>
