<svg xmlns="http://www.w3.org/2000/svg" xmlns:xlink="http://www.w3.org/1999/xlink" width="64px" height="64px" viewBox="0 0 64 64" version="1.1">
<defs>
<linearGradient id="linear0" gradientUnits="userSpaceOnUse" x1="0" y1="0" x2="0" y2="1" gradientTransform="matrix(64,0,0,50.28125,0,6.859374)">
<stop offset="0" style="stop-color:#e3cfff;stop-opacity:1;"/>
<stop offset="1" style="stop-color:#7d05ff;stop-opacity:1;"/>
</linearGradient>
</defs>
<g id="surface1">
<path style=" stroke:none;fill-rule:evenodd;fill:url(#linear0);" d="M 13.714844 52.574219 L 13.714844 57.140625 L 64 57.140625 L 64 52.574219 Z M 13.714844 6.859375 L 13.714844 11.425781 L 64 11.425781 L 64 6.859375 Z M 13.714844 25.140625 L 13.714844 29.714844 L 64 29.714844 L 64 25.140625 Z M 13.714844 34.285156 L 13.714844 38.859375 L 64 38.859375 L 64 34.285156 Z M 13.714844 43.425781 L 13.714844 48 L 64 48 L 64 43.425781 Z M 13.714844 16 L 13.714844 20.574219 L 64 20.574219 L 64 16 Z M 0 6.859375 L 9.140625 6.859375 L 9.140625 11.425781 L 0 11.425781 Z M 0 16 L 9.140625 16 L 9.140625 20.574219 L 0 20.574219 Z M 0 25.140625 L 9.140625 25.140625 L 9.140625 29.714844 L 0 29.714844 Z M 0 34.285156 L 9.140625 34.285156 L 9.140625 38.859375 L 0 38.859375 Z M 0 43.425781 L 9.140625 43.425781 L 9.140625 48 L 0 48 Z M 0 52.574219 L 9.140625 52.574219 L 9.140625 57.140625 L 0 57.140625 Z M 0 52.574219 "/>
</g>
</svg>
