<svg xmlns="http://www.w3.org/2000/svg" xmlns:xlink="http://www.w3.org/1999/xlink" width="64px" height="64px" viewBox="0 0 64 64" version="1.1">
<defs>
<linearGradient id="linear0" gradientUnits="userSpaceOnUse" x1="0" y1="0" x2="0" y2="1" gradientTransform="matrix(34.90625,0,0,64,0,0)">
<stop offset="0" style="stop-color:#d9f7d8;stop-opacity:1;"/>
<stop offset="1" style="stop-color:#1d5911;stop-opacity:1;"/>
</linearGradient>
<linearGradient id="linear1" gradientUnits="userSpaceOnUse" x1="0" y1="0" x2="0" y2="1" gradientTransform="matrix(25.442708,0,0,64,38.557292,0)">
<stop offset="0" style="stop-color:#d9f7d8;stop-opacity:1;"/>
<stop offset="1" style="stop-color:#1d5911;stop-opacity:1;"/>
</linearGradient>
</defs>
<g id="surface1">
<path style=" stroke:none;fill-rule:nonzero;fill:url(#linear0);" d="M 0 0 L 0 64 L 10.296875 64 C 10.332031 55.660156 10.21875 47.316406 10.371094 38.980469 C 10.625 35.0625 10.824219 30.074219 14.296875 27.925781 C 16.203125 26.746094 18.761719 26.457031 20.863281 27.191406 C 23.949219 28.269531 24.464844 32.546875 24.59375 35.625 C 24.644531 45.082031 24.605469 54.542969 24.621094 64 L 34.875 64 C 34.855469 53.371094 34.953125 42.628906 34.875 32 C 34.769531 26.660156 32.734375 20.808594 27.984375 18.371094 C 23.925781 16.292969 19.121094 16.910156 15 18.589844 C 13.058594 19.386719 10.371094 23.246094 10.371094 23.246094 C 10.347656 15.496094 10.324219 7.75 10.296875 0 Z M 0 0 "/>
<path style=" stroke:none;fill-rule:evenodd;fill:url(#linear1);" d="M 47.496094 27.34375 L 47.5 17.917969 L 38.578125 17.910156 L 38.582031 9.480469 L 47.503906 9.484375 L 47.511719 0 L 55.136719 0.00390625 L 55.128906 9.488281 L 64 9.496094 L 63.996094 17.925781 L 55.125 17.921875 L 55.121094 27.347656 Z M 47.472656 63.996094 L 47.480469 54.574219 L 38.558594 54.5625 L 38.5625 46.128906 L 47.484375 46.136719 L 47.488281 36.652344 L 55.113281 36.65625 L 55.109375 46.140625 L 63.980469 46.144531 L 63.972656 54.582031 L 55.105469 54.574219 L 55.097656 64 Z M 47.472656 63.996094 "/>
</g>
</svg>
