<svg xmlns="http://www.w3.org/2000/svg" xmlns:xlink="http://www.w3.org/1999/xlink" width="64px" height="64px" viewBox="0 0 64 64" version="1.1">
<defs>
<linearGradient id="linear0" gradientUnits="userSpaceOnUse" x1="0" y1="0" x2="0" y2="1" gradientTransform="matrix(64,0,0,57.604167,0,3.197917)">
<stop offset="0" style="stop-color:#58d2f0;stop-opacity:1;"/>
<stop offset="1" style="stop-color:#1b788f;stop-opacity:1;"/>
</linearGradient>
</defs>
<g id="surface1">
<path style=" stroke:none;fill-rule:evenodd;fill:url(#linear0);" d="M 12.21875 3.199219 C 12.21875 3.199219 15.894531 15.050781 13.652344 22.65625 C 11.40625 30.253906 0 38.8125 0 38.8125 C 0 38.8125 14.910156 39.625 20.574219 43.238281 C 26.230469 46.859375 31.988281 60.800781 31.988281 60.800781 C 31.988281 60.800781 39.628906 45.4375 42.828125 43.238281 C 46.027344 41.042969 64 38.792969 64 38.792969 C 64 38.792969 50.859375 26.425781 49.738281 22.972656 C 48.625 19.527344 51.785156 3.207031 51.785156 3.207031 C 51.785156 3.207031 39.957031 11.199219 31.65625 11.199219 C 23.347656 11.199219 12.21875 3.199219 12.21875 3.199219 Z M 41.058594 18.125 C 40.875 20.332031 40.425781 21.90625 41.625 25.597656 C 42.953125 29.707031 44.3125 30.503906 45.921875 32.40625 C 46.113281 32.640625 46.359375 32.871094 46.5625 33.105469 C 46.203125 33.1875 45.816406 33.238281 45.46875 33.324219 C 43.003906 33.921875 41.3125 33.933594 37.996094 36.207031 C 34.683594 38.484375 34.058594 40.121094 32.6875 42.175781 C 32.511719 42.4375 32.359375 42.738281 32.183594 43.011719 C 30.480469 40.515625 28.371094 38.09375 25.167969 36.050781 C 22.699219 34.46875 20.246094 33.597656 17.828125 32.921875 C 19.433594 30.675781 20.917969 28.183594 21.832031 25.074219 C 22.546875 22.65625 22.644531 20.402344 22.730469 18.175781 C 25.421875 19.0625 28.359375 19.734375 31.65625 19.734375 C 35.109375 19.734375 38.230469 19.066406 41.058594 18.125 Z M 41.058594 18.125 "/>
</g>
</svg>
