<svg xmlns="http://www.w3.org/2000/svg" xmlns:xlink="http://www.w3.org/1999/xlink" width="64px" height="64px" viewBox="0 0 64 64" version="1.1">
<defs>
<linearGradient id="linear0" gradientUnits="userSpaceOnUse" x1="0" y1="0" x2="0" y2="1" gradientTransform="matrix(64,0,0,55.46875,0,4.265625)">
<stop offset="0" style="stop-color:#e3cfff;stop-opacity:1;"/>
<stop offset="1" style="stop-color:#7d05ff;stop-opacity:1;"/>
</linearGradient>
</defs>
<g id="surface1">
<path style=" stroke:none;fill-rule:nonzero;fill:url(#linear0);" d="M 23.449219 55.917969 C 23.238281 53.453125 25.609375 51.128906 28.917969 51 C 29.496094 51 30.113281 51.082031 30.765625 51.234375 C 31.542969 51.40625 32.621094 51.433594 33.265625 51.488281 C 33.496094 51.339844 33.484375 51.199219 33.183594 50.441406 C 32.300781 48.214844 30.472656 45.722656 28.15625 45.035156 C 27.667969 44.890625 26.921875 44.800781 26.207031 44.785156 C 21.40625 44.910156 17.90625 49.515625 15.714844 52.957031 C 15.015625 54.046875 14.199219 55.28125 13.890625 55.691406 C 12.355469 57.796875 10.550781 58.988281 8.738281 59.519531 C 8.0625 59.71875 6.417969 59.800781 5.734375 59.667969 C 2.113281 58.972656 -0.308594 55.515625 0.03125 51.8125 C 0.0625 51.5 0.109375 51.246094 0.128906 51.25 C 0.160156 51.25 0.300781 51.417969 0.457031 51.613281 C 1.078125 52.441406 2.433594 52.949219 3.496094 53.199219 C 4.285156 53.390625 5.0625 53.421875 5.800781 53.285156 C 7.800781 52.9375 9.089844 52.09375 11.183594 49.25 C 14.347656 44.957031 16.609375 41.019531 21.058594 31.316406 C 23.988281 24.921875 25.59375 21.714844 27.355469 18.75 C 29.613281 14.933594 32.003906 11.855469 34.246094 9.875 C 37.667969 6.855469 41.71875 5.019531 46.386719 4.394531 C 47.785156 4.207031 50.214844 4.230469 51.542969 4.433594 C 56.300781 5.175781 59.96875 7.566406 62.21875 11.40625 C 62.949219 12.644531 63.574219 14.40625 63.859375 16.019531 C 64.042969 17.046875 64.046875 19.34375 63.859375 20.375 C 63.714844 21.230469 63.328125 22.613281 63.066406 23.253906 L 62.886719 23.699219 L 62.878906 22.90625 C 62.84375 19.566406 60.675781 15.933594 57.425781 15.019531 C 56.792969 14.84375 56.59375 14.824219 55.582031 14.824219 C 54.597656 14.828125 54.363281 14.855469 53.730469 15.027344 C 50.089844 16.015625 46.589844 20.734375 45.394531 25.515625 C 44.515625 29.027344 44.65625 32.894531 45.800781 37.046875 C 46.886719 40.949219 52.0625 46.238281 53.121094 47.027344 C 56.875 49.8125 59.410156 50.761719 62.285156 52.753906 C 63.28125 53.441406 63.558594 53.785156 63.644531 54.449219 C 63.753906 55.265625 63.261719 56.027344 62.011719 56.964844 C 61.660156 57.222656 61.011719 57.734375 60.558594 58.097656 C 59.050781 59.300781 58.871094 59.628906 57.859375 59.628906 C 57.285156 59.636719 57.152344 59.609375 56.785156 59.425781 C 55.625 58.847656 55.144531 58.042969 55.707031 56.878906 C 56.230469 55.800781 57.417969 55.308594 58.535156 55.699219 C 58.785156 55.785156 59.066406 55.96875 59.347656 56.234375 C 59.800781 56.65625 59.597656 56.160156 59.734375 55.917969 C 59.871094 55.644531 59.902344 54.703125 59.78125 54.09375 C 59.371094 51.925781 57.46875 51.042969 55.332031 51.160156 C 54.089844 51.234375 52.902344 51.800781 51.917969 52.800781 C 49.824219 55.84375 46.933594 59.660156 43.734375 59.613281 C 43.183594 59.675781 42.644531 59.628906 42.214844 59.457031 C 41.890625 59.339844 41.566406 59.109375 41.285156 58.816406 C 40.488281 58.027344 40.578125 57.175781 40.65625 56.152344 C 40.738281 54.988281 41.457031 54.113281 42.144531 53.46875 C 43.140625 52.644531 44.152344 52.3125 45.25 52.199219 C 46.628906 52.0625 47.90625 51.957031 49.160156 52.285156 C 49.855469 52.511719 50.082031 52.515625 50.160156 52.300781 C 50.28125 51.988281 49.628906 49.417969 49.082031 48.65625 C 48.1875 47.402344 47.296875 46.886719 45.8125 46.453125 C 45.128906 46.25 43.515625 46.175781 42.703125 46.308594 C 38.171875 47.160156 36.65625 50.542969 34.855469 53.71875 C 32.78125 57.355469 30.875 58.746094 28.921875 59.421875 C 28.640625 59.519531 28.25 59.59375 27.855469 59.628906 C 25.234375 59.875 23.640625 58.21875 23.449219 55.917969 Z M 23.449219 55.917969 "/>
</g>
</svg>
