<svg xmlns="http://www.w3.org/2000/svg" xmlns:xlink="http://www.w3.org/1999/xlink" width="64px" height="64px" viewBox="0 0 64 64" version="1.1">
<defs>
<linearGradient id="linear0" gradientUnits="userSpaceOnUse" x1="0" y1="0" x2="0" y2="1" gradientTransform="matrix(64,0,0,64,0,0)">
<stop offset="0" style="stop-color:#f8c3c3;stop-opacity:1;"/>
<stop offset="1" style="stop-color:#c60606;stop-opacity:1;"/>
</linearGradient>
</defs>
<g id="surface1">
<path style=" stroke:none;fill-rule:nonzero;fill:url(#linear0);" d="M 32 0 C 30.925781 0 29.847656 0.0585938 28.78125 0.167969 C 27.765625 0.269531 26.761719 0.421875 25.777344 0.621094 C 25.730469 0.625 25.6875 0.628906 25.644531 0.636719 C 24.71875 0.828125 23.808594 1.074219 22.910156 1.339844 C 22.785156 1.371094 22.65625 1.40625 22.53125 1.4375 C 21.519531 1.75 20.527344 2.109375 19.5625 2.519531 C 18.609375 2.921875 17.671875 3.375 16.761719 3.871094 C 14.953125 4.855469 13.25 6.003906 11.660156 7.316406 C 10.871094 7.972656 10.113281 8.660156 9.386719 9.386719 C 8.699219 10.078125 8.035156 10.800781 7.410156 11.558594 C 7.375 11.597656 7.339844 11.644531 7.300781 11.6875 C 6.796875 12.3125 6.3125 12.957031 5.855469 13.621094 C 5.691406 13.847656 5.527344 14.074219 5.371094 14.308594 C 5.019531 14.839844 4.6875 15.378906 4.375 15.933594 C 4.152344 16.3125 3.925781 16.6875 3.71875 17.074219 C 3.464844 17.574219 3.21875 18.074219 2.988281 18.582031 C 2.769531 19.042969 2.5625 19.503906 2.371094 19.972656 C 2.175781 20.457031 2 20.949219 1.832031 21.4375 C 1.652344 21.953125 1.46875 22.46875 1.3125 23 C 1.183594 23.464844 1.0625 23.933594 0.949219 24.402344 C 0.8125 24.957031 0.675781 25.515625 0.566406 26.082031 C 0.472656 26.621094 0.390625 27.15625 0.324219 27.699219 C 0.253906 28.203125 0.1875 28.703125 0.144531 29.214844 C 0.0585938 30.140625 0.00390625 31.066406 0 32 C 0 33.074219 0.0585938 34.152344 0.167969 35.21875 C 0.71875 40.6875 2.65625 45.75 5.621094 50.0625 C 5.644531 50.105469 5.671875 50.140625 5.699219 50.183594 C 5.925781 50.511719 6.167969 50.832031 6.40625 51.15625 C 6.40625 51.144531 6.410156 51.136719 6.410156 51.125 C 12.253906 58.921875 21.535156 64 32 64 C 38.011719 64 43.621094 62.300781 48.433594 59.40625 L 48.4375 59.410156 C 48.5 59.371094 48.566406 59.324219 48.628906 59.28125 C 49.394531 58.8125 50.136719 58.324219 50.855469 57.792969 C 51.019531 57.671875 51.1875 57.550781 51.347656 57.425781 C 51.984375 56.941406 52.59375 56.4375 53.1875 55.910156 C 53.425781 55.699219 53.667969 55.480469 53.902344 55.253906 C 54.394531 54.792969 54.875 54.308594 55.339844 53.8125 C 55.613281 53.519531 55.886719 53.222656 56.152344 52.917969 C 56.589844 52.417969 57 51.894531 57.40625 51.371094 C 57.628906 51.082031 57.84375 50.792969 58.058594 50.5 C 58.480469 49.902344 58.878906 49.285156 59.261719 48.660156 C 59.421875 48.40625 59.578125 48.152344 59.730469 47.894531 C 60.113281 47.234375 60.457031 46.550781 60.792969 45.863281 C 60.925781 45.597656 61.050781 45.332031 61.175781 45.066406 C 61.472656 44.40625 61.738281 43.722656 61.996094 43.035156 C 62.121094 42.714844 62.234375 42.386719 62.347656 42.058594 C 62.574219 41.394531 62.761719 40.71875 62.9375 40.035156 C 63.03125 39.699219 63.121094 39.347656 63.199219 39.003906 C 63.34375 38.363281 63.457031 37.707031 63.5625 37.050781 C 63.636719 36.621094 63.703125 36.183594 63.753906 35.75 C 63.824219 35.1875 63.859375 34.613281 63.894531 34.042969 C 63.953125 33.363281 63.984375 32.683594 64 32 C 64 30.921875 63.941406 29.859375 63.839844 28.808594 L 63.832031 28.78125 C 63.730469 27.765625 63.578125 26.761719 63.378906 25.777344 C 63.371094 25.734375 63.371094 25.6875 63.363281 25.644531 C 63.171875 24.714844 62.925781 23.808594 62.660156 22.910156 C 62.625 22.792969 62.605469 22.667969 62.566406 22.542969 L 62.558594 22.5 C 62.246094 21.5 61.886719 20.519531 61.480469 19.5625 C 61.078125 18.609375 60.625 17.671875 60.128906 16.761719 C 59.144531 14.953125 57.988281 13.25 56.683594 11.660156 C 56.027344 10.871094 55.339844 10.113281 54.613281 9.386719 C 53.921875 8.699219 53.199219 8.035156 52.441406 7.410156 C 52.40625 7.378906 52.371094 7.347656 52.339844 7.316406 C 52.328125 7.3125 52.316406 7.308594 52.3125 7.300781 C 51.6875 6.796875 51.042969 6.3125 50.378906 5.855469 C 50.152344 5.691406 49.925781 5.527344 49.691406 5.371094 C 49.160156 5.019531 48.621094 4.6875 48.066406 4.375 C 47.6875 4.152344 47.3125 3.925781 46.925781 3.71875 C 46.425781 3.464844 45.925781 3.21875 45.417969 2.988281 C 44.957031 2.769531 44.496094 2.5625 44.027344 2.371094 C 43.542969 2.175781 43.050781 2 42.5625 1.832031 C 42.046875 1.652344 41.53125 1.46875 41 1.3125 C 40.535156 1.183594 40.066406 1.0625 39.597656 0.949219 C 39.042969 0.8125 38.484375 0.675781 37.917969 0.566406 C 37.378906 0.472656 36.84375 0.390625 36.300781 0.324219 C 35.796875 0.253906 35.296875 0.1875 34.785156 0.144531 C 33.859375 0.0585938 32.933594 0.00390625 32 0 Z M 27.136719 4.621094 L 31.457031 14.769531 L 38.859375 8.488281 L 38.859375 26.035156 L 56 40 L 50.730469 43.503906 L 36.089844 43.355469 L 44.285156 54.472656 C 40.640625 56.464844 36.457031 57.597656 32 57.597656 C 21.332031 57.597656 12.230469 51.128906 8.375 41.886719 C 10.390625 34.089844 13.40625 26.5625 17.722656 22.363281 C 19.566406 15.582031 23.160156 9.972656 27.136719 4.621094 Z M 32.230469 28.800781 L 32.230469 31.527344 L 38.402344 32 C 37.605469 30.082031 35.878906 29.199219 32.230469 28.800781 Z M 32.230469 28.800781 "/>
</g>
</svg>
