<svg xmlns="http://www.w3.org/2000/svg" xmlns:xlink="http://www.w3.org/1999/xlink" width="64px" height="64px" viewBox="0 0 64 64" version="1.1">
<defs>
<linearGradient id="linear0" gradientUnits="userSpaceOnUse" x1="0" y1="0" x2="0" y2="1" gradientTransform="matrix(56.010417,0,0,55.989583,3.994792,4.328125)">
<stop offset="0" style="stop-color:#c5eeed;stop-opacity:1;"/>
<stop offset="1" style="stop-color:#0c7672;stop-opacity:1;"/>
</linearGradient>
<linearGradient id="linear1" gradientUnits="userSpaceOnUse" x1="0" y1="0" x2="0" y2="1" gradientTransform="matrix(64,0,0,63.848958,0.0625,0)">
<stop offset="0" style="stop-color:#c5eeed;stop-opacity:1;"/>
<stop offset="1" style="stop-color:#0c7672;stop-opacity:1;"/>
</linearGradient>
<linearGradient id="linear2" gradientUnits="userSpaceOnUse" x1="0" y1="0" x2="0" y2="1" gradientTransform="matrix(39.994792,0,0,40,12,12.322918)">
<stop offset="0" style="stop-color:#c5eeed;stop-opacity:1;"/>
<stop offset="1" style="stop-color:#0c7672;stop-opacity:1;"/>
</linearGradient>
</defs>
<g id="surface1">
<path style=" stroke:none;fill-rule:nonzero;fill:url(#linear0);" d="M 32.730469 4.339844 C 22.464844 4.050781 12.871094 9.410156 7.734375 18.300781 C 0.0195312 31.675781 4.628906 48.824219 18.015625 56.558594 C 31.402344 64.285156 48.550781 59.722656 56.265625 46.355469 C 63.980469 32.980469 59.371094 15.816406 45.984375 8.082031 C 41.949219 5.746094 37.390625 4.457031 32.730469 4.339844 Z M 32 8.316406 C 45.253906 8.316406 56 19.066406 56 32.316406 C 56 45.574219 45.253906 56.316406 32 56.316406 C 18.746094 56.316406 8 45.574219 8 32.316406 C 8 19.066406 18.746094 8.316406 32 8.316406 Z M 32 8.316406 "/>
<path style=" stroke:none;fill-rule:nonzero;fill:url(#linear1);" d="M 37.285156 0 L 26.761719 1.578125 L 26.761719 6.988281 C 30.234375 6.277344 33.816406 6.28125 37.285156 7.011719 Z M 15.75 4.765625 L 7.722656 11.582031 L 11.675781 16.296875 C 13.875 13.511719 16.621094 11.207031 19.746094 9.53125 Z M 48.261719 4.816406 L 44.285156 9.546875 C 44.515625 9.667969 44.746094 9.785156 44.96875 9.90625 C 47.8125 11.5625 50.316406 13.738281 52.347656 16.324219 L 56.371094 11.53125 Z M 1.816406 21.683594 L 0.0625 32.0625 L 6.121094 33.128906 C 6.011719 29.589844 6.628906 26.058594 7.9375 22.765625 Z M 62.160156 21.699219 L 56.074219 22.765625 C 57.390625 26.0625 58.027344 29.589844 57.925781 33.128906 L 64.0625 32.050781 Z M 7.433594 40.472656 L 2.027344 43.59375 L 7.347656 52.683594 L 12.703125 49.589844 C 10.34375 46.941406 8.546875 43.839844 7.433594 40.472656 Z M 56.636719 40.484375 C 56.09375 42.171875 55.375 43.800781 54.5 45.34375 C 53.613281 46.875 52.578125 48.308594 51.40625 49.625 L 56.753906 52.714844 L 61.964844 43.5625 Z M 18.40625 54.371094 L 16.269531 60.25 L 26.191406 63.785156 L 28.292969 58.003906 C 25.046875 57.527344 21.921875 56.441406 19.078125 54.800781 C 18.855469 54.660156 18.628906 54.519531 18.40625 54.371094 Z M 45.660156 54.433594 C 42.644531 56.296875 39.277344 57.515625 35.765625 58.027344 L 37.886719 63.847656 L 47.753906 60.183594 Z M 45.660156 54.433594 "/>
<path style=" stroke:none;fill-rule:nonzero;fill:url(#linear2);" d="M 30.59375 12.375 C 23.957031 12.828125 17.988281 16.546875 14.660156 22.300781 C 9.167969 31.886719 12.449219 44.105469 22.011719 49.640625 C 31.566406 55.160156 43.796875 51.890625 49.328125 42.339844 C 54.828125 32.761719 51.542969 20.535156 41.984375 15.011719 C 38.535156 13.011719 34.566406 12.09375 30.59375 12.375 Z M 32 16.316406 C 40.839844 16.316406 48 23.484375 48 32.316406 C 48 41.15625 40.839844 48.316406 32 48.316406 C 23.160156 48.316406 16 41.15625 16 32.316406 C 16 23.484375 23.160156 16.316406 32 16.316406 Z M 32 16.316406 "/>
</g>
</svg>
