<svg xmlns="http://www.w3.org/2000/svg" xmlns:xlink="http://www.w3.org/1999/xlink" width="64px" height="64px" viewBox="0 0 64 64" version="1.1">
<defs>
<linearGradient id="linear0" gradientUnits="userSpaceOnUse" x1="0" y1="0" x2="0" y2="1" gradientTransform="matrix(59.369792,0,0,60,2,2)">
<stop offset="0" style="stop-color:#e3cfff;stop-opacity:1;"/>
<stop offset="1" style="stop-color:#7d05ff;stop-opacity:1;"/>
</linearGradient>
</defs>
<g id="surface1">
<path style=" stroke:none;fill-rule:evenodd;fill:url(#linear0);" d="M 20.730469 2 C 19.578125 2 18.34375 2.410156 17.199219 3.078125 C 16.464844 3.511719 15.765625 4.058594 15.203125 4.71875 C 12.519531 2.753906 9.660156 2.136719 7.371094 2.03125 C 4.761719 1.90625 2.894531 2.457031 2.894531 2.457031 L 2 2.71875 L 2.28125 3.605469 C 2.28125 3.605469 3.21875 6.582031 5.066406 9.441406 C 5.988281 10.875 7.144531 12.300781 8.59375 13.324219 C 9.980469 14.296875 11.683594 14.886719 13.550781 14.644531 C 13.703125 16.050781 13.921875 17.453125 14.175781 18.785156 C 14.753906 21.796875 15.496094 24.347656 15.902344 25.675781 C 15.402344 26.949219 14.863281 28.363281 14.34375 29.878906 C 12.5625 35.03125 10.875 41.046875 11.65625 45.171875 C 12.339844 48.75 13.734375 51.6875 16.125 53.847656 C 15.707031 55.660156 15.699219 57.234375 16.191406 58.546875 C 16.714844 59.933594 17.824219 60.953125 19.277344 61.480469 C 22.121094 62.515625 26.28125 61.957031 31.6875 60.191406 C 37.089844 61.957031 41.25 62.515625 44.09375 61.480469 C 45.546875 60.953125 46.660156 59.933594 47.175781 58.546875 C 47.671875 57.234375 47.660156 55.660156 47.246094 53.847656 C 49.636719 51.6875 51.03125 48.746094 51.707031 45.171875 C 52.488281 41.046875 50.808594 35.03125 49.03125 29.878906 C 48.503906 28.363281 47.96875 26.949219 47.46875 25.675781 C 47.878906 24.347656 48.613281 21.796875 49.191406 18.785156 C 49.449219 17.453125 49.667969 16.050781 49.816406 14.644531 C 51.6875 14.886719 53.390625 14.296875 54.777344 13.324219 C 56.222656 12.300781 57.378906 10.875 58.300781 9.441406 C 60.15625 6.582031 61.089844 3.605469 61.089844 3.605469 L 61.371094 2.71875 L 60.480469 2.457031 C 60.480469 2.457031 58.609375 1.90625 56 2.03125 C 53.714844 2.136719 50.847656 2.753906 48.167969 4.71875 C 47.605469 4.058594 46.910156 3.511719 46.171875 3.078125 C 45.03125 2.410156 43.792969 2 42.640625 2 C 40.660156 2 39.183594 2.421875 37.609375 2.808594 C 36.035156 3.191406 34.339844 3.558594 31.683594 3.558594 C 29.03125 3.558594 27.332031 3.191406 25.761719 2.808594 C 24.1875 2.421875 22.707031 2 20.730469 2 Z M 56.046875 3.8125 C 57.3125 3.796875 58.308594 3.980469 58.847656 4.105469 C 58.574219 4.878906 58.128906 6.347656 56.769531 8.457031 C 55.925781 9.765625 54.878906 11.011719 53.71875 11.828125 C 52.582031 12.628906 51.378906 13.035156 49.96875 12.828125 C 50.089844 10.453125 49.890625 8.15625 49.109375 6.285156 C 51.628906 4.355469 54.144531 3.84375 56.046875 3.8125 Z M 7.324219 3.8125 C 9.222656 3.84375 11.738281 4.355469 14.261719 6.285156 C 13.480469 8.15625 13.28125 10.453125 13.402344 12.828125 C 11.988281 13.035156 10.785156 12.628906 9.652344 11.828125 C 8.488281 11.011719 7.441406 9.765625 6.597656 8.457031 C 5.238281 6.347656 4.796875 4.878906 4.519531 4.105469 C 5.0625 3.980469 6.058594 3.792969 7.324219 3.8125 Z M 20.730469 3.828125 C 22.453125 3.828125 23.714844 4.1875 25.324219 4.578125 C 26.933594 4.972656 28.859375 5.386719 31.683594 5.386719 C 34.511719 5.386719 36.4375 4.972656 38.046875 4.578125 C 39.65625 4.1875 40.917969 3.828125 42.640625 3.828125 C 43.324219 3.828125 44.347656 4.125 45.25 4.65625 C 46.15625 5.183594 46.933594 5.933594 47.296875 6.691406 C 48.546875 9.300781 48.203125 14.25 47.394531 18.441406 C 47.074219 20.128906 46.699219 21.675781 46.355469 22.949219 C 45.734375 21.484375 45.296875 20.519531 45.296875 20.519531 C 45.140625 20.175781 44.792969 19.964844 44.417969 19.984375 C 44.109375 20 43.832031 20.167969 43.675781 20.433594 C 43.519531 20.691406 43.511719 21.015625 43.640625 21.292969 C 43.640625 21.292969 44.472656 23.097656 45.535156 25.761719 C 45.5 25.878906 45.433594 26.09375 45.433594 26.09375 L 45.707031 26.183594 C 46.21875 27.472656 46.765625 28.921875 47.300781 30.472656 C 49.046875 35.527344 50.535156 41.558594 49.917969 44.828125 C 48.972656 49.785156 46.910156 52.925781 42.308594 54.75 C 41.84375 54.933594 40.902344 55 39.808594 54.886719 C 38.714844 54.78125 37.46875 54.519531 36.308594 54.230469 C 34.300781 53.722656 33.042969 53.253906 32.597656 53.09375 L 32.597656 41.46875 C 33.171875 41.246094 35.011719 40.328125 37.246094 37.917969 C 37.378906 38.347656 37.816406 38.613281 38.261719 38.542969 C 38.839844 38.453125 39.167969 38.078125 39.40625 37.734375 C 39.640625 37.386719 39.8125 37 39.972656 36.5625 C 40.296875 35.6875 40.546875 34.628906 40.753906 33.582031 C 41.160156 31.515625 41.371094 29.542969 41.375 29.496094 C 41.375 29.496094 41.375 29.488281 41.375 29.488281 C 41.375 29.488281 41.386719 29.449219 41.386719 29.449219 C 41.449219 28.949219 41.09375 28.496094 40.597656 28.425781 C 40.105469 28.363281 39.644531 28.707031 39.574219 29.203125 C 38.332031 36.9375 32.972656 39.503906 31.6875 40.019531 C 30.402344 39.503906 25.042969 36.9375 23.796875 29.203125 C 23.71875 28.71875 23.265625 28.378906 22.78125 28.449219 C 22.292969 28.511719 21.941406 28.949219 21.988281 29.441406 C 21.988281 29.441406 21.996094 29.484375 21.996094 29.5 C 21.996094 29.503906 22 29.503906 22 29.511719 C 22.003906 29.566406 22.191406 31.480469 22.578125 33.503906 C 22.777344 34.53125 23.015625 35.574219 23.328125 36.433594 C 23.488281 36.863281 23.65625 37.246094 23.890625 37.589844 C 24.125 37.925781 24.457031 38.300781 25.03125 38.390625 C 25.457031 38.457031 25.875 38.21875 26.03125 37.8125 C 28.292969 40.300781 30.191406 41.25 30.777344 41.480469 L 30.777344 53.105469 C 30.328125 53.265625 29.066406 53.734375 27.066406 54.238281 C 25.90625 54.53125 24.660156 54.78125 23.566406 54.894531 C 22.472656 55 21.527344 54.941406 21.066406 54.761719 C 16.457031 52.9375 14.394531 49.796875 13.457031 44.839844 C 12.832031 41.5625 14.324219 35.53125 16.066406 30.484375 C 16.605469 28.925781 17.15625 27.484375 17.660156 26.191406 L 17.941406 26.105469 C 17.941406 26.105469 17.875 25.890625 17.832031 25.765625 C 18.894531 23.109375 19.730469 21.300781 19.730469 21.300781 C 19.863281 21.019531 19.847656 20.691406 19.6875 20.425781 C 19.527344 20.160156 19.238281 19.996094 18.925781 19.988281 C 18.558594 19.984375 18.222656 20.199219 18.078125 20.53125 C 18.078125 20.53125 17.636719 21.496094 17.015625 22.957031 C 16.675781 21.6875 16.296875 20.140625 15.972656 18.453125 C 15.167969 14.261719 14.828125 9.3125 16.074219 6.703125 C 16.4375 5.941406 17.21875 5.191406 18.121094 4.660156 C 19.027344 4.136719 20.050781 3.839844 20.730469 3.839844 Z M 24.328125 10.816406 C 24.105469 10.808594 23.875 10.808594 23.640625 10.824219 C 22.714844 10.863281 21.71875 11.066406 20.734375 11.527344 C 20.410156 11.675781 20.203125 12 20.203125 12.355469 C 20.207031 13.011719 20.292969 14.25 20.769531 15.5 C 21.253906 16.75 22.261719 18.089844 23.972656 18.347656 C 24.949219 18.5 25.847656 18.15625 26.5 17.636719 C 27.152344 17.113281 27.621094 16.441406 27.984375 15.78125 C 28.707031 14.464844 29.019531 13.128906 29.019531 13.128906 L 29.011719 13.160156 C 28.988281 13.238281 28.957031 13.324219 28.910156 13.394531 L 29.011719 13.160156 C 29.066406 12.9375 29.042969 12.714844 28.996094 12.589844 C 28.933594 12.417969 28.863281 12.339844 28.8125 12.277344 C 28.707031 12.15625 28.628906 12.097656 28.546875 12.035156 C 28.386719 11.917969 28.203125 11.8125 27.980469 11.703125 C 27.53125 11.480469 26.917969 11.25 26.183594 11.074219 C 25.625 10.9375 25 10.84375 24.328125 10.816406 Z M 39.042969 10.816406 C 38.371094 10.847656 37.746094 10.9375 37.1875 11.074219 C 36.453125 11.246094 35.839844 11.480469 35.390625 11.703125 C 35.167969 11.808594 34.984375 11.917969 34.824219 12.035156 C 34.738281 12.09375 34.660156 12.15625 34.558594 12.277344 C 34.503906 12.339844 34.4375 12.410156 34.375 12.589844 C 34.328125 12.707031 34.300781 12.9375 34.359375 13.160156 L 34.457031 13.394531 C 34.410156 13.324219 34.378906 13.238281 34.359375 13.160156 L 34.347656 13.128906 C 34.347656 13.128906 34.660156 14.464844 35.386719 15.78125 C 35.75 16.4375 36.21875 17.113281 36.871094 17.636719 C 37.519531 18.152344 38.421875 18.496094 39.394531 18.347656 C 41.109375 18.089844 42.113281 16.746094 42.597656 15.496094 C 43.082031 14.25 43.160156 13.003906 43.167969 12.355469 C 43.167969 11.996094 42.957031 11.671875 42.636719 11.527344 C 41.652344 11.066406 40.65625 10.863281 39.730469 10.816406 C 39.496094 10.808594 39.265625 10.808594 39.042969 10.816406 Z M 24.515625 12.722656 C 24.957031 12.71875 25.378906 12.753906 25.761719 12.847656 C 26.292969 12.96875 26.703125 13.140625 27.015625 13.285156 C 26.90625 13.667969 26.808594 14.125 26.378906 14.902344 C 26.09375 15.425781 25.730469 15.910156 25.363281 16.203125 C 25 16.496094 24.6875 16.609375 24.25 16.546875 C 23.316406 16.40625 22.828125 15.761719 22.472656 14.84375 C 22.234375 14.214844 22.21875 13.671875 22.171875 13.128906 C 22.964844 12.886719 23.769531 12.738281 24.515625 12.730469 Z M 38.855469 12.722656 C 39.597656 12.738281 40.40625 12.878906 41.199219 13.125 C 41.152344 13.667969 41.136719 14.207031 40.894531 14.84375 C 40.542969 15.753906 40.050781 16.402344 39.121094 16.542969 C 38.683594 16.605469 38.371094 16.5 38.003906 16.203125 C 37.640625 15.910156 37.277344 15.425781 36.988281 14.902344 C 36.5625 14.125 36.464844 13.667969 36.355469 13.285156 C 36.667969 13.136719 37.078125 12.972656 37.609375 12.84375 C 37.988281 12.753906 38.410156 12.722656 38.855469 12.722656 Z M 31.6875 54.738281 C 32.09375 54.890625 33.714844 55.464844 35.859375 56.003906 C 37.074219 56.308594 38.390625 56.582031 39.621094 56.707031 C 40.855469 56.828125 41.996094 56.84375 42.972656 56.453125 C 43.949219 56.066406 44.832031 55.613281 45.628906 55.09375 C 45.800781 56.277344 45.730469 57.214844 45.46875 57.90625 C 45.128906 58.808594 44.53125 59.386719 43.472656 59.765625 C 41.355469 60.535156 37.363281 60.1875 31.972656 58.390625 L 31.683594 58.296875 L 31.394531 58.390625 C 26.003906 60.1875 22.015625 60.535156 19.894531 59.765625 C 18.839844 59.378906 18.238281 58.808594 17.902344 57.90625 C 17.640625 57.214844 17.566406 56.277344 17.738281 55.09375 C 18.542969 55.613281 19.421875 56.066406 20.394531 56.453125 C 21.375 56.839844 22.519531 56.832031 23.75 56.707031 C 24.984375 56.589844 26.296875 56.308594 27.511719 56.003906 C 29.65625 55.464844 31.277344 54.890625 31.6875 54.738281 Z M 31.6875 54.738281 "/>
</g>
</svg>
