<svg xmlns="http://www.w3.org/2000/svg" xmlns:xlink="http://www.w3.org/1999/xlink" width="64px" height="64px" viewBox="0 0 64 64" version="1.1">
<defs>
<linearGradient id="linear0" gradientUnits="userSpaceOnUse" x1="0" y1="0" x2="0" y2="1" gradientTransform="matrix(47.203125,0,0,64,8,0)">
<stop offset="0" style="stop-color:#f8c3c3;stop-opacity:1;"/>
<stop offset="1" style="stop-color:#c60606;stop-opacity:1;"/>
</linearGradient>
</defs>
<g id="surface1">
<path style=" stroke:none;fill-rule:evenodd;fill:url(#linear0);" d="M 38.003906 0 C 40.6875 10.566406 28.546875 13.753906 24.160156 20.339844 C 21.175781 24.824219 25.628906 29.640625 31.691406 35.109375 C 29.328125 29.765625 21.308594 25.089844 31.699219 16.878906 C 44.65625 6.652344 38.003906 0 38.003906 0 Z M 46.019531 13.074219 C 46.019531 13.074219 24.113281 18.542969 34.578125 30.597656 C 37.667969 34.15625 33.765625 37.355469 33.765625 37.355469 C 33.765625 37.355469 41.605469 33.308594 38.003906 28.238281 C 34.640625 23.515625 32.0625 21.167969 46.019531 13.074219 Z M 49.902344 34.609375 C 49.128906 34.613281 48.3125 34.746094 47.472656 35.042969 C 46.800781 35.28125 46.453125 35.832031 46.453125 35.832031 C 46.453125 35.832031 46.875 35.660156 47.824219 35.464844 C 51.699219 34.65625 57.25 40.652344 45.246094 46.890625 C 45.1875 47.035156 45.003906 47.203125 45.003906 47.203125 C 59.285156 43.453125 56.171875 34.597656 49.902344 34.609375 Z M 24.171875 35.21875 C 23.234375 35.199219 19.167969 35.261719 14.308594 37.609375 C 7.734375 40.785156 30.550781 42.234375 42.371094 39.125 C 43.59375 38.285156 45.292969 37.558594 45.292969 37.558594 C 45.292969 37.558594 40.457031 38.421875 35.644531 38.828125 C 29.753906 39.324219 23.433594 39.417969 20.261719 38.996094 C 12.746094 37.988281 24.375 35.230469 24.375 35.230469 C 24.375 35.230469 24.308594 35.21875 24.171875 35.21875 Z M 21.667969 42.488281 C 10.832031 46.082031 27.703125 50.167969 42.847656 45.734375 C 41.238281 45.167969 40.21875 44.128906 40.21875 44.128906 C 32.8125 45.558594 28.535156 45.511719 23.113281 44.953125 C 18.925781 44.515625 21.667969 42.488281 21.667969 42.488281 Z M 23.203125 49.496094 C 13.359375 52.246094 29.1875 57.921875 41.71875 52.550781 C 39.667969 51.753906 38.191406 50.839844 38.191406 50.839844 C 32.605469 51.890625 30.015625 51.972656 24.941406 51.394531 C 20.753906 50.917969 23.203125 49.496094 23.203125 49.496094 Z M 16.363281 54.140625 C 11.949219 54.277344 3.308594 58.25 11.207031 59.53125 C 36.753906 63.671875 57.769531 57.667969 51.144531 54.675781 C 51.144531 54.675781 52.957031 56.167969 49.15625 57.324219 C 41.921875 59.511719 19.050781 60.171875 12.703125 57.410156 C 10.421875 56.417969 14.703125 55.035156 16.046875 54.75 C 17.453125 54.441406 18.253906 54.5 18.253906 54.5 C 17.859375 54.21875 17.183594 54.113281 16.363281 54.140625 Z M 55.203125 57.9375 C 55.203125 57.9375 54.394531 60.003906 45.675781 61.644531 C 35.839844 63.496094 23.703125 63.28125 16.511719 62.09375 C 16.511719 62.09375 17.984375 63.3125 25.558594 63.796875 C 37.082031 64.535156 54.78125 63.390625 55.203125 57.9375 Z M 55.203125 57.9375 "/>
</g>
</svg>
