<svg xmlns="http://www.w3.org/2000/svg" xmlns:xlink="http://www.w3.org/1999/xlink" width="64px" height="64px" viewBox="0 0 64 64" version="1.1">
<defs>
<linearGradient id="linear0" gradientUnits="userSpaceOnUse" x1="0" y1="0" x2="0" y2="1" gradientTransform="matrix(48,0,0,64,8,0)">
<stop offset="0" style="stop-color:#58d2f0;stop-opacity:1;"/>
<stop offset="1" style="stop-color:#1b788f;stop-opacity:1;"/>
</linearGradient>
</defs>
<g id="surface1">
<path style=" stroke:none;fill-rule:evenodd;fill:url(#linear0);" d="M 44.660156 0.140625 C 42.953125 -0.0507812 41.582031 -0.0585938 40.324219 0.191406 C 39.066406 0.4375 37.902344 1.035156 37.207031 1.792969 C 36.515625 2.546875 36.296875 3.285156 36.191406 3.644531 C 33.75 8.4375 30.863281 13.199219 28.222656 17.269531 C 24.96875 22.097656 21.167969 27.71875 19.183594 32.253906 C 17.972656 35.027344 16.671875 38.359375 15.394531 41.839844 C 12.734375 49.128906 10.332031 56.410156 8 63.738281 C 11.796875 64 11.796875 63.980469 14.730469 64 C 16.886719 60.035156 20.464844 56.269531 23.457031 53.519531 C 28.640625 48.792969 36.113281 43.957031 43.25 42.875 L 45.65625 42.519531 C 45.785156 35.050781 46.46875 26.96875 50.160156 20.417969 C 51.675781 17.699219 53.785156 15.535156 55.738281 13.0625 C 56.246094 12.65625 55.847656 12.175781 55.902344 11.734375 C 54.441406 4.484375 49.496094 0.886719 44.800781 0.15625 C 44.75 0.167969 44.703125 0.144531 44.660156 0.140625 Z M 44.660156 0.140625 "/>
</g>
</svg>
