<svg xmlns="http://www.w3.org/2000/svg" xmlns:xlink="http://www.w3.org/1999/xlink" width="64px" height="64px" viewBox="0 0 64 64" version="1.1">
<defs>
<linearGradient id="linear0" gradientUnits="userSpaceOnUse" x1="0" y1="0" x2="0" y2="1" gradientTransform="matrix(60.036458,0,0,60,2,2)">
<stop offset="0" style="stop-color:#cff3fe;stop-opacity:1;"/>
<stop offset="1" style="stop-color:#054cff;stop-opacity:1;"/>
</linearGradient>
</defs>
<g id="surface1">
<path style=" stroke:none;fill-rule:nonzero;fill:url(#linear0);" d="M 33.359375 2 C 22.90625 3.859375 12.453125 6.328125 2.003906 8.15625 C 2.003906 24.050781 1.996094 39.953125 2.003906 55.859375 C 12.394531 57.675781 22.796875 60.105469 33.171875 62 L 36.285156 62 L 36.285156 2 Z M 45.675781 10.300781 C 43.25 10.332031 40.824219 10.527344 38.425781 10.859375 L 38.425781 19.730469 C 45.152344 20.746094 52.15625 20.535156 58.636719 18.355469 C 60.011719 17.75 61.746094 17 62.03125 15.339844 C 61.644531 13.300781 59.359375 12.535156 57.652344 11.902344 C 53.777344 10.71875 49.730469 10.265625 45.675781 10.300781 Z M 62.019531 18.785156 C 59.480469 20.828125 56.203125 21.503906 53.058594 21.972656 C 48.207031 22.609375 43.28125 22.613281 38.425781 22 L 38.425781 31.261719 C 44.484375 32.035156 50.707031 32.003906 56.671875 30.59375 C 58.5 30.074219 60.53125 29.53125 61.808594 28.011719 C 62.265625 24.964844 61.863281 21.859375 62.019531 18.785156 Z M 20.871094 20.871094 C 23.265625 28.871094 25.535156 36.917969 27.902344 44.921875 C 26.25 44.816406 24.597656 44.691406 22.964844 44.542969 C 22.53125 42.753906 22.066406 40.96875 21.59375 39.191406 C 19.402344 39.183594 17.207031 39.113281 15.019531 39.003906 C 14.597656 40.699219 14.171875 42.386719 13.734375 44.074219 C 12.339844 43.964844 10.941406 43.863281 9.550781 43.769531 C 11.636719 36.25 13.808594 28.753906 15.878906 21.234375 C 17.542969 21.113281 19.203125 21 20.871094 20.871094 Z M 18.1875 25.152344 C 17.707031 28.542969 16.636719 31.808594 15.917969 35.152344 C 17.484375 35.167969 19.058594 35.167969 20.636719 35.183594 C 19.824219 31.839844 18.828125 28.535156 18.1875 25.152344 Z M 62.019531 30.214844 C 59.496094 32.25 56.234375 32.925781 53.097656 33.394531 C 48.234375 34.035156 43.292969 34.050781 38.425781 33.421875 L 38.425781 42.6875 C 44.5 43.457031 50.746094 43.421875 56.722656 42.003906 C 58.542969 41.480469 60.574219 40.9375 61.824219 39.410156 C 62.246094 36.371094 61.878906 33.277344 62.019531 30.207031 Z M 62.019531 41.640625 C 59.480469 43.675781 56.214844 44.363281 53.074219 44.824219 C 48.214844 45.464844 43.285156 45.480469 38.425781 44.855469 C 38.425781 47.933594 38.453125 51 38.402344 54.078125 C 43.5 54.816406 48.707031 54.800781 53.800781 54.019531 C 56.578125 53.457031 59.785156 53.046875 61.808594 50.847656 C 62.261719 47.808594 61.875 44.699219 62.019531 41.636719 Z M 62.019531 41.640625 "/>
</g>
</svg>
