<svg xmlns="http://www.w3.org/2000/svg" xmlns:xlink="http://www.w3.org/1999/xlink" width="64px" height="64px" viewBox="0 0 64 64" version="1.1">
<defs>
<linearGradient id="linear0" gradientUnits="userSpaceOnUse" x1="0" y1="0" x2="0" y2="1" gradientTransform="matrix(64,0,0,53.020833,0,5.489584)">
<stop offset="0" style="stop-color:#d9f7d8;stop-opacity:1;"/>
<stop offset="1" style="stop-color:#1d5911;stop-opacity:1;"/>
</linearGradient>
</defs>
<g id="surface1">
<path style=" stroke:none;fill-rule:evenodd;fill:url(#linear0);" d="M 13.472656 57.628906 L 6.003906 57.628906 L 8.058594 44.230469 L 0 44.230469 L 1.097656 36.980469 L 9.152344 36.980469 L 10.839844 25.777344 L 2.78125 25.777344 L 3.878906 18.527344 L 12.011719 18.527344 L 13.839844 6.371094 L 21.234375 6.371094 L 19.40625 18.527344 L 28.925781 18.527344 L 30.828125 6.371094 L 38.222656 6.371094 L 36.324219 18.527344 L 44.375 18.527344 L 43.347656 25.777344 L 35.222656 25.777344 L 33.535156 36.980469 L 41.59375 36.980469 L 40.496094 44.230469 L 32.4375 44.230469 L 30.390625 57.628906 L 22.996094 57.628906 L 25.042969 44.230469 L 15.527344 44.230469 Z M 18.308594 25.777344 L 16.625 36.980469 L 26.140625 36.980469 L 27.828125 25.777344 Z M 60.191406 43.496094 L 55.796875 43.496094 L 53.675781 21.894531 L 53.675781 5.488281 L 62.246094 5.488281 L 62.246094 21.894531 Z M 57.996094 58.511719 C 56.285156 58.511719 54.871094 57.949219 53.75 56.824219 C 52.625 55.703125 52.0625 54.332031 52.0625 52.722656 C 52.0625 51.113281 52.625 49.734375 53.75 48.582031 C 54.871094 47.4375 56.285156 46.863281 57.996094 46.863281 C 59.65625 46.863281 61.074219 47.4375 62.246094 48.582031 C 63.417969 49.734375 64 51.113281 64 52.722656 C 64 54.285156 63.417969 55.640625 62.246094 56.785156 C 61.074219 57.933594 59.65625 58.511719 57.996094 58.511719 Z M 57.996094 58.511719 "/>
</g>
</svg>
