<svg xmlns="http://www.w3.org/2000/svg" xmlns:xlink="http://www.w3.org/1999/xlink" width="64px" height="64px" viewBox="0 0 64 64" version="1.1">
<defs>
<linearGradient id="linear0" gradientUnits="userSpaceOnUse" x1="0" y1="0" x2="0" y2="1" gradientTransform="matrix(64,0,0,63.09375,0,0.453125)">
<stop offset="0" style="stop-color:#c5eeed;stop-opacity:1;"/>
<stop offset="1" style="stop-color:#0c7672;stop-opacity:1;"/>
</linearGradient>
</defs>
<g id="surface1">
<path style=" stroke:none;fill-rule:evenodd;fill:url(#linear0);" d="M 29.375 59.878906 L 29.390625 43.652344 L 15.105469 43.652344 L 17.589844 39.3125 L 22.160156 39.3125 L 15.535156 27.765625 L 1.050781 27.765625 L 4.214844 29.597656 L 0 36.972656 L 11.324219 56.75 L 12.410156 58.636719 L 13.175781 59.894531 Z M 55.425781 23.265625 L 42.390625 30.863281 L 49.515625 43.316406 L 44.550781 43.316406 L 42.265625 39.34375 L 35.640625 50.886719 L 42.890625 63.546875 L 42.890625 59.871094 L 51.324219 59.871094 L 62.660156 40.078125 L 63.734375 38.214844 L 64 37.730469 Z M 11.8125 15.1875 L 24.847656 22.78125 L 31.996094 10.308594 L 34.472656 14.644531 L 31.996094 18.738281 L 45.402344 18.738281 L 52.671875 5.996094 L 49.53125 7.828125 L 45.296875 0.453125 L 19.949219 0.453125 Z M 11.8125 15.1875 "/>
</g>
</svg>
