<svg xmlns="http://www.w3.org/2000/svg" xmlns:xlink="http://www.w3.org/1999/xlink" width="64px" height="64px" viewBox="0 0 64 64" version="1.1">
<defs>
<linearGradient id="linear0" gradientUnits="userSpaceOnUse" x1="0" y1="0" x2="0" y2="1" gradientTransform="matrix(64,0,0,40.46875,0,11.765625)">
<stop offset="0" style="stop-color:#fcd7fb;stop-opacity:1;"/>
<stop offset="1" style="stop-color:#ce13b8;stop-opacity:1;"/>
</linearGradient>
</defs>
<g id="surface1">
<path style=" stroke:none;fill-rule:evenodd;fill:url(#linear0);" d="M 14.699219 52.234375 C 12.652344 52.234375 10.777344 51.855469 9.082031 51.089844 C 7.386719 50.324219 5.988281 49.300781 4.890625 48.015625 C 3.792969 46.730469 2.871094 45.207031 2.125 43.457031 C 1.378906 41.707031 0.839844 39.878906 0.503906 37.980469 C 0.167969 36.078125 0 34.089844 0 32 C 0 28.421875 0.484375 25.152344 1.453125 22.191406 C 2.421875 19.230469 4.042969 16.75 6.316406 14.753906 C 8.589844 12.761719 11.386719 11.765625 14.699219 11.765625 C 19.65625 11.765625 23.214844 14.078125 25.375 18.699219 L 21.128906 20.988281 C 20.308594 19.457031 19.417969 18.285156 18.449219 17.46875 C 17.480469 16.644531 16.230469 16.238281 14.699219 16.238281 C 12.984375 16.238281 11.480469 16.714844 10.171875 17.660156 C 8.871094 18.613281 7.855469 19.871094 7.125 21.4375 C 6.402344 23 5.859375 24.667969 5.503906 26.4375 C 5.152344 28.207031 4.972656 30.0625 4.972656 32 C 4.972656 34.796875 5.300781 37.339844 5.953125 39.628906 C 6.605469 41.921875 7.6875 43.847656 9.191406 45.417969 C 10.703125 46.980469 12.542969 47.761719 14.699219 47.761719 C 17.683594 47.761719 19.953125 46.105469 21.519531 42.785156 L 25.824219 44.40625 C 24.855469 46.71875 23.449219 48.597656 21.605469 50.050781 C 19.761719 51.503906 17.457031 52.234375 14.699219 52.234375 Z M 40.859375 51.5625 L 36.386719 51.5625 L 38.0625 40.550781 L 31.46875 40.550781 L 32.199219 36.359375 L 38.675781 36.359375 L 40.128906 26.910156 L 33.816406 26.910156 L 34.488281 22.777344 L 40.75 22.777344 L 42.3125 12.4375 L 46.785156 12.4375 L 45.21875 22.777344 L 52.875 22.777344 L 54.5 12.4375 L 58.910156 12.4375 L 57.292969 22.777344 L 64 22.777344 L 63.328125 26.910156 L 56.675781 26.910156 L 55.222656 36.359375 L 61.597656 36.359375 L 60.980469 40.550781 L 54.609375 40.550781 L 52.933594 51.5625 L 48.515625 51.5625 L 50.191406 40.550781 L 42.535156 40.550781 Z M 44.605469 26.910156 L 43.152344 36.359375 L 50.808594 36.359375 L 52.261719 26.910156 Z M 44.605469 26.910156 "/>
</g>
</svg>
