<svg xmlns="http://www.w3.org/2000/svg" xmlns:xlink="http://www.w3.org/1999/xlink" width="64px" height="64px" viewBox="0 0 64 64" version="1.1">
<defs>
<linearGradient id="linear0" gradientUnits="userSpaceOnUse" x1="0" y1="0" x2="0" y2="1" gradientTransform="matrix(64,0,0,51.682292,0,6.317708)">
<stop offset="0" style="stop-color:#fcd7fb;stop-opacity:1;"/>
<stop offset="1" style="stop-color:#ce13b8;stop-opacity:1;"/>
</linearGradient>
</defs>
<g id="surface1">
<path style=" stroke:none;fill-rule:evenodd;fill:url(#linear0);" d="M 47.035156 6.316406 L 47.578125 7.042969 L 44.941406 17.1875 L 43.941406 17.355469 L 37.558594 7.207031 L 38.015625 6.316406 Z M 25.984375 6.316406 L 26.425781 7.230469 L 18.917969 17.941406 L 17.917969 17.683594 L 16.40625 6.972656 L 16.964844 6.316406 Z M 52.722656 6.519531 L 64 21.175781 L 63.566406 22.105469 L 47.78125 22.105469 L 47.25 21.359375 L 51.761719 6.703125 Z M 32.433594 6.519531 L 43.707031 21.175781 L 43.277344 22.105469 L 20.722656 22.105469 L 20.292969 21.175781 L 31.566406 6.519531 Z M 11.277344 6.519531 L 12.238281 6.703125 L 16.75 21.359375 L 16.21875 22.105469 L 0.433594 22.105469 L 0 21.175781 Z M 63.566406 24.359375 L 63.980469 25.308594 L 34.667969 58 L 33.734375 57.394531 L 47.265625 24.699219 L 47.78125 24.359375 Z M 43.277344 24.359375 L 43.792969 25.140625 L 32.519531 53.324219 L 31.480469 53.324219 L 20.207031 25.140625 L 20.722656 24.359375 Z M 16.21875 24.359375 L 16.734375 24.699219 L 30.265625 57.394531 L 29.332031 58 L 0.0195312 25.308594 L 0.433594 24.359375 Z M 16.21875 24.359375 "/>
</g>
</svg>
