<svg xmlns="http://www.w3.org/2000/svg" xmlns:xlink="http://www.w3.org/1999/xlink" width="64px" height="64px" viewBox="0 0 64 64" version="1.1">
<defs>
<linearGradient id="linear0" gradientUnits="userSpaceOnUse" x1="0" y1="0" x2="0" y2="1" gradientTransform="matrix(64,0,0,59.583333,0,2.208333)">
<stop offset="0" style="stop-color:#c5eeed;stop-opacity:1;"/>
<stop offset="1" style="stop-color:#0c7672;stop-opacity:1;"/>
</linearGradient>
</defs>
<g id="surface1">
<path style=" stroke:none;fill-rule:evenodd;fill:url(#linear0);" d="M 64 38.765625 L 62.613281 51.683594 L 29.441406 51.683594 L 29.441406 50.65625 L 46.207031 32.113281 L 29.917969 11.328125 L 29.917969 10.3125 L 61.324219 10.3125 L 61.324219 21.300781 L 59.238281 21.300781 C 58.8125 19.359375 57.980469 17.527344 56.753906 15.808594 C 55.53125 14.082031 54.269531 13.121094 52.957031 12.910156 C 52.371094 12.8125 51.535156 12.734375 50.453125 12.691406 C 49.363281 12.640625 48.480469 12.613281 47.785156 12.613281 L 38.71875 12.613281 L 51.785156 29.292969 L 51.785156 29.761719 L 36.515625 46.546875 L 55.683594 46.546875 C 56.566406 46.546875 57.347656 46.285156 58.035156 45.761719 C 58.71875 45.238281 59.3125 44.566406 59.800781 43.75 C 60.253906 43.015625 60.652344 42.1875 61.003906 41.292969 C 61.328125 40.453125 61.640625 39.609375 61.9375 38.765625 Z M 24.730469 5.125 L 24.730469 8.558594 L 20.785156 8.558594 C 19.34375 8.558594 17.984375 8.691406 16.707031 8.953125 C 15.433594 9.222656 14.1875 9.707031 12.972656 10.417969 C 11.855469 11.089844 10.941406 12 10.234375 13.167969 C 9.53125 14.339844 9.167969 15.75 9.167969 17.410156 C 9.167969 19.816406 10.042969 21.65625 11.769531 22.90625 C 13.503906 24.167969 15.796875 24.796875 18.660156 24.796875 L 23.058594 24.796875 L 23.058594 27.984375 L 17.105469 27.984375 C 13.800781 27.984375 11.285156 28.675781 9.550781 30.066406 C 7.816406 31.457031 6.957031 33.640625 6.957031 36.621094 C 6.957031 39.058594 7.667969 40.941406 9.082031 42.292969 C 10.496094 43.640625 12.480469 44.316406 15.011719 44.316406 L 19.019531 44.316406 C 21.53125 44.316406 23.433594 45 24.730469 46.378906 C 26.027344 47.761719 26.675781 49.597656 26.675781 51.910156 C 26.675781 54.40625 25.609375 56.675781 23.472656 58.71875 C 21.332031 60.777344 18.785156 61.792969 15.828125 61.792969 C 13.703125 61.792969 12.1875 61.53125 11.308594 61.027344 C 10.410156 60.503906 9.96875 59.75 9.96875 58.75 C 9.96875 57.941406 10.21875 57.296875 10.703125 56.8125 C 11.203125 56.324219 11.9375 56.074219 12.910156 56.074219 C 13.484375 56.074219 13.988281 56.1875 14.449219 56.417969 C 14.875 56.621094 15.277344 56.875 15.640625 57.175781 C 15.972656 57.410156 16.355469 57.734375 16.8125 58.121094 C 17.269531 58.503906 17.703125 58.792969 18.109375 59 C 18.597656 58.957031 19.125 58.84375 19.707031 58.652344 C 20.277344 58.453125 20.828125 58.128906 21.355469 57.660156 C 21.90625 57.191406 22.34375 56.65625 22.660156 56.03125 C 22.996094 55.421875 23.152344 54.578125 23.152344 53.519531 C 23.152344 52.046875 22.683594 50.949219 21.738281 50.246094 C 20.796875 49.535156 19.449219 49.171875 17.683594 49.171875 L 12.941406 49.171875 C 9.457031 49.171875 6.597656 48.113281 4.375 45.988281 C 2.144531 43.859375 1.027344 41.222656 1.027344 38.082031 C 1.027344 36.378906 1.371094 34.824219 2.042969 33.410156 C 2.730469 32.011719 3.640625 30.777344 4.800781 29.71875 C 5.890625 28.730469 7.144531 27.941406 8.546875 27.347656 C 9.957031 26.761719 11.316406 26.386719 12.613281 26.21875 L 12.613281 26.042969 C 9.53125 25.535156 7.1875 24.515625 5.589844 23.003906 C 3.984375 21.480469 3.183594 19.660156 3.183594 17.535156 C 3.183594 16.328125 3.421875 15.238281 3.902344 14.265625 C 4.375 13.28125 5.042969 12.394531 5.890625 11.628906 C 6.683594 10.921875 7.613281 10.3125 8.691406 9.800781 C 9.78125 9.296875 10.910156 8.871094 12.0625 8.527344 L 12.0625 8.015625 C 11.253906 8.035156 10.199219 8.066406 8.902344 8.128906 C 7.605469 8.191406 6.496094 8.222656 5.558594 8.222656 C 3.652344 8.222656 2.25 7.953125 1.347656 7.417969 C 0.449219 6.886719 0 6.121094 0 5.125 C 0 4.332031 0.207031 3.652344 0.621094 3.078125 C 1.035156 2.496094 1.738281 2.207031 2.730469 2.207031 C 3.660156 2.207031 4.457031 2.390625 5.113281 2.753906 C 5.753906 3.109375 6.375 3.5 6.957031 3.9375 C 7.519531 4.359375 8.082031 4.777344 8.660156 5.175781 C 9.152344 5.503906 9.886719 5.671875 10.878906 5.671875 C 13.058594 5.671875 15.421875 5.609375 17.972656 5.484375 C 20.515625 5.371094 22.765625 5.246094 24.730469 5.125 Z M 24.730469 5.125 "/>
</g>
</svg>
