<svg xmlns="http://www.w3.org/2000/svg" xmlns:xlink="http://www.w3.org/1999/xlink" width="64px" height="64px" viewBox="0 0 64 64" version="1.1">
<defs>
<linearGradient id="linear0" gradientUnits="userSpaceOnUse" x1="0" y1="0" x2="0" y2="1" gradientTransform="matrix(64,0,0,64,0,0)">
<stop offset="0" style="stop-color:#c5eeed;stop-opacity:1;"/>
<stop offset="1" style="stop-color:#0c7672;stop-opacity:1;"/>
</linearGradient>
</defs>
<g id="surface1">
<path style=" stroke:none;fill-rule:nonzero;fill:url(#linear0);" d="M 30.902344 0 C 23.5625 0 17.65625 2.949219 17.65625 6.621094 L 17.65625 15.441406 L 30.902344 15.441406 L 30.902344 17.65625 L 6.621094 17.65625 C 2.949219 17.65625 0 23.5625 0 30.902344 L 0 33.097656 C 0 40.4375 2.949219 46.34375 6.621094 46.34375 L 15.441406 46.34375 L 15.441406 39.722656 C 15.441406 39.722656 15.449219 30.902344 24.277344 30.902344 L 41.933594 30.902344 C 41.933594 30.902344 46.34375 30.894531 46.34375 26.484375 L 46.34375 6.621094 C 46.34375 2.949219 40.4375 0 33.097656 0 Z M 24.277344 4.410156 C 25.496094 4.410156 26.484375 5.394531 26.484375 6.621094 C 26.484375 7.839844 25.496094 8.828125 24.277344 8.828125 C 23.050781 8.828125 22.066406 7.839844 22.066406 6.621094 C 22.066406 5.394531 23.050781 4.410156 24.277344 4.410156 Z M 48.558594 17.65625 L 48.558594 26.484375 C 48.558594 33.105469 41.933594 33.097656 41.933594 33.097656 L 24.277344 33.097656 C 17.652344 33.097656 17.65625 39.722656 17.65625 39.722656 L 17.65625 57.378906 C 17.65625 61.050781 23.5625 64 30.902344 64 L 33.097656 64 C 40.4375 64 46.34375 61.050781 46.34375 57.378906 L 46.34375 48.558594 L 33.097656 48.558594 L 33.097656 46.34375 L 57.378906 46.34375 C 61.050781 46.34375 64 40.4375 64 33.097656 L 64 30.902344 C 64 23.5625 61.050781 17.65625 57.378906 17.65625 Z M 39.722656 52.96875 C 40.949219 52.96875 41.933594 53.953125 41.933594 55.171875 C 41.933594 56.390625 40.949219 57.378906 39.722656 57.378906 C 38.503906 57.378906 37.515625 56.390625 37.515625 55.171875 C 37.515625 53.953125 38.503906 52.96875 39.722656 52.96875 Z M 39.722656 52.96875 "/>
</g>
</svg>
