<svg xmlns="http://www.w3.org/2000/svg" xmlns:xlink="http://www.w3.org/1999/xlink" width="64px" height="64px" viewBox="0 0 64 64" version="1.1">
<defs>
<linearGradient id="linear0" gradientUnits="userSpaceOnUse" x1="0" y1="0" x2="0" y2="1" gradientTransform="matrix(35.557292,0,0,62.21875,2,0.979167)">
<stop offset="0" style="stop-color:#fcd7fb;stop-opacity:1;"/>
<stop offset="1" style="stop-color:#ce13b8;stop-opacity:1;"/>
</linearGradient>
<linearGradient id="linear1" gradientUnits="userSpaceOnUse" x1="0" y1="0" x2="0" y2="1" gradientTransform="matrix(22.223958,0,0,46.661458,39.776042,9.869792)">
<stop offset="0" style="stop-color:#fcd7fb;stop-opacity:1;"/>
<stop offset="1" style="stop-color:#ce13b8;stop-opacity:1;"/>
</linearGradient>
</defs>
<g id="surface1">
<path style=" stroke:none;fill-rule:nonzero;fill:url(#linear0);" d="M 34.515625 0.980469 C 23.683594 2.90625 12.839844 5.46875 2.003906 7.363281 C 2.003906 23.847656 1.996094 40.339844 2.003906 56.828125 C 12.78125 58.71875 23.566406 61.234375 34.328125 63.199219 L 37.558594 63.199219 L 37.558594 0.980469 Z M 27.285156 20.375 C 25.394531 24.238281 23.503906 28.109375 21.582031 31.957031 C 23.527344 35.917969 25.511719 39.847656 27.464844 43.800781 C 25.761719 43.699219 24.0625 43.597656 22.359375 43.480469 C 21.15625 40.53125 19.691406 37.683594 18.832031 34.605469 C 17.871094 37.472656 16.5 40.175781 15.394531 42.996094 C 13.847656 42.980469 12.300781 42.902344 10.75 42.84375 C 12.566406 39.285156 14.324219 35.703125 16.191406 32.167969 C 14.605469 28.527344 12.859375 24.957031 11.21875 21.339844 C 12.777344 21.25 14.328125 21.15625 15.886719 21.074219 C 16.9375 23.839844 18.089844 26.5625 18.957031 29.394531 C 19.890625 26.394531 21.28125 23.566406 22.480469 20.660156 C 24.074219 20.558594 25.683594 20.453125 27.285156 20.371094 Z M 27.285156 20.375 "/>
<path style=" stroke:none;fill-rule:nonzero;fill:url(#linear1);" d="M 39.777344 9.871094 L 39.777344 14.3125 L 46.441406 14.3125 L 46.441406 18.753906 L 39.777344 18.753906 L 39.777344 20.980469 L 46.441406 20.980469 L 46.441406 25.433594 L 39.777344 25.433594 L 39.777344 27.644531 L 46.441406 27.644531 L 46.441406 32.089844 L 39.777344 32.089844 L 39.777344 34.3125 L 46.441406 34.3125 L 46.441406 38.753906 L 39.777344 38.753906 L 39.777344 40.980469 L 46.441406 40.980469 L 46.441406 45.421875 L 39.777344 45.421875 L 39.777344 47.644531 L 46.441406 47.644531 L 46.441406 52.089844 L 39.777344 52.089844 L 39.777344 56.53125 L 62 56.53125 L 62 9.871094 Z M 48.667969 14.3125 L 57.558594 14.3125 L 57.558594 18.753906 L 48.667969 18.753906 Z M 48.667969 20.980469 L 57.558594 20.980469 L 57.558594 25.433594 L 48.667969 25.433594 Z M 48.667969 27.644531 L 57.558594 27.644531 L 57.558594 32.089844 L 48.667969 32.089844 Z M 48.667969 34.3125 L 57.558594 34.3125 L 57.558594 38.753906 L 48.667969 38.753906 Z M 48.667969 40.980469 L 57.558594 40.980469 L 57.558594 45.421875 L 48.667969 45.421875 Z M 48.667969 47.644531 L 57.558594 47.644531 L 57.558594 52.089844 L 48.667969 52.089844 Z M 48.667969 47.644531 "/>
</g>
</svg>
