<svg xmlns="http://www.w3.org/2000/svg" xmlns:xlink="http://www.w3.org/1999/xlink" width="64px" height="64px" viewBox="0 0 64 64" version="1.1">
<defs>
<linearGradient id="linear0" gradientUnits="userSpaceOnUse" x1="0" y1="0" x2="0" y2="1" gradientTransform="matrix(9.494792,0,0,3.088541,11.255208,30.015625)">
<stop offset="0" style="stop-color:#c5eeed;stop-opacity:1;"/>
<stop offset="1" style="stop-color:#0c7672;stop-opacity:1;"/>
</linearGradient>
<linearGradient id="linear1" gradientUnits="userSpaceOnUse" x1="0" y1="0" x2="0" y2="1" gradientTransform="matrix(8.781251,0,0,8.786459,43.229167,27.166667)">
<stop offset="0" style="stop-color:#c5eeed;stop-opacity:1;"/>
<stop offset="1" style="stop-color:#0c7672;stop-opacity:1;"/>
</linearGradient>
<linearGradient id="linear2" gradientUnits="userSpaceOnUse" x1="0" y1="0" x2="0" y2="1" gradientTransform="matrix(64,0,0,30.197917,0,16.901042)">
<stop offset="0" style="stop-color:#c5eeed;stop-opacity:1;"/>
<stop offset="1" style="stop-color:#0c7672;stop-opacity:1;"/>
</linearGradient>
</defs>
<g id="surface1">
<path style=" stroke:none;fill-rule:nonzero;fill:url(#linear0);" d="M 11.253906 33.105469 L 11.253906 30.015625 L 20.75 30.015625 L 20.75 33.105469 Z M 11.253906 33.105469 "/>
<path style=" stroke:none;fill-rule:nonzero;fill:url(#linear1);" d="M 46.121094 35.953125 L 46.121094 33.046875 L 43.230469 33.046875 L 43.230469 30.050781 L 46.121094 30.050781 L 46.121094 27.167969 L 49.125 27.167969 L 49.125 30.050781 L 52.011719 30.050781 L 52.011719 33.046875 L 49.125 33.046875 L 49.125 35.953125 Z M 46.121094 35.953125 "/>
<path style=" stroke:none;fill-rule:evenodd;fill:url(#linear2);" d="M 5.328125 31.988281 C 5.328125 33.285156 5.59375 34.566406 6.113281 35.75 C 6.628906 36.917969 7.371094 37.972656 8.292969 38.855469 C 9.234375 39.761719 10.34375 40.480469 11.550781 40.96875 C 12.855469 41.496094 14.246094 41.765625 15.652344 41.75 C 15.90625 41.765625 16.167969 41.777344 16.425781 41.777344 C 17.171875 41.777344 17.910156 41.707031 18.636719 41.5625 C 19.277344 41.433594 19.902344 41.234375 20.5 40.972656 C 21.082031 40.71875 21.636719 40.40625 22.160156 40.046875 C 22.703125 39.667969 23.222656 39.246094 23.699219 38.785156 C 24.21875 38.285156 24.707031 37.753906 25.167969 37.203125 C 25.660156 36.597656 26.128906 35.972656 26.578125 35.332031 C 27.050781 34.652344 27.511719 33.957031 27.957031 33.253906 C 28.261719 32.769531 28.566406 32.277344 28.871094 31.792969 C 28.800781 31.675781 28.734375 31.574219 28.660156 31.457031 C 28.191406 30.714844 27.699219 29.980469 27.191406 29.253906 C 26.714844 28.574219 26.203125 27.90625 25.667969 27.261719 C 25.160156 26.65625 24.621094 26.089844 24.046875 25.546875 C 23.503906 25.042969 22.921875 24.578125 22.308594 24.167969 C 21.703125 23.761719 21.0625 23.417969 20.390625 23.136719 C 19.683594 22.839844 18.949219 22.613281 18.199219 22.46875 C 17.339844 22.300781 16.457031 22.222656 15.582031 22.230469 C 14.203125 22.222656 12.832031 22.488281 11.550781 23.011719 C 10.34375 23.5 9.234375 24.21875 8.292969 25.125 C 7.371094 26.003906 6.628906 27.0625 6.113281 28.222656 C 5.59375 29.410156 5.328125 30.691406 5.328125 31.988281 Z M 32 26.84375 C 32.152344 26.625 32.296875 26.410156 32.449219 26.191406 C 33.015625 25.390625 33.613281 24.605469 34.25 23.847656 C 34.890625 23.078125 35.582031 22.347656 36.3125 21.660156 C 37.066406 20.957031 37.875 20.316406 38.730469 19.746094 C 39.621094 19.144531 40.5625 18.636719 41.550781 18.222656 C 42.59375 17.785156 43.683594 17.457031 44.792969 17.238281 C 45.988281 17.011719 47.203125 16.894531 48.425781 16.902344 C 50.488281 16.894531 52.535156 17.296875 54.449219 18.074219 C 56.285156 18.816406 57.964844 19.90625 59.394531 21.28125 C 60.824219 22.644531 61.964844 24.277344 62.753906 26.078125 C 63.578125 27.941406 64 29.953125 64 31.988281 C 64 34.027344 63.578125 36.035156 62.753906 37.894531 C 61.964844 39.703125 60.824219 41.332031 59.394531 42.699219 C 57.964844 44.074219 56.285156 45.160156 54.449219 45.90625 C 52.558594 46.671875 50.53125 47.066406 48.488281 47.078125 C 48.1875 47.09375 47.886719 47.097656 47.582031 47.097656 C 46.484375 47.105469 45.386719 46.996094 44.3125 46.78125 C 43.300781 46.574219 42.316406 46.265625 41.375 45.855469 C 40.472656 45.457031 39.613281 44.984375 38.808594 44.421875 C 38.03125 43.886719 37.296875 43.28125 36.613281 42.625 C 35.9375 41.980469 35.308594 41.296875 34.71875 40.578125 C 34.136719 39.871094 33.578125 39.136719 33.050781 38.378906 C 32.691406 37.859375 32.34375 37.339844 32 36.8125 M 58.675781 31.988281 C 58.675781 33.285156 58.40625 34.566406 57.886719 35.75 C 57.371094 36.917969 56.628906 37.972656 55.707031 38.855469 C 54.765625 39.761719 53.660156 40.480469 52.449219 40.96875 C 51.144531 41.496094 49.753906 41.765625 48.355469 41.75 C 48.09375 41.765625 47.832031 41.777344 47.574219 41.777344 C 46.832031 41.777344 46.09375 41.707031 45.363281 41.5625 C 44.722656 41.433594 44.097656 41.234375 43.5 40.972656 C 42.921875 40.71875 42.363281 40.40625 41.84375 40.046875 C 41.296875 39.667969 40.78125 39.246094 40.300781 38.785156 C 39.78125 38.285156 39.292969 37.753906 38.839844 37.203125 C 38.339844 36.597656 37.871094 35.972656 37.425781 35.332031 C 36.953125 34.652344 36.488281 33.957031 36.046875 33.253906 C 35.738281 32.769531 35.433594 32.277344 35.128906 31.792969 C 35.203125 31.675781 35.269531 31.574219 35.339844 31.457031 C 35.808594 30.714844 36.300781 29.980469 36.808594 29.253906 C 37.285156 28.574219 37.796875 27.90625 38.332031 27.261719 C 38.839844 26.65625 39.378906 26.089844 39.953125 25.546875 C 40.496094 25.042969 41.078125 24.578125 41.691406 24.167969 C 42.296875 23.761719 42.941406 23.417969 43.609375 23.136719 C 44.316406 22.839844 45.050781 22.613281 45.800781 22.46875 C 46.667969 22.300781 47.542969 22.222656 48.417969 22.230469 C 49.796875 22.222656 51.167969 22.488281 52.449219 23.011719 C 53.660156 23.5 54.765625 24.21875 55.707031 25.125 C 56.628906 26.003906 57.371094 27.0625 57.886719 28.222656 C 58.40625 29.410156 58.675781 30.691406 58.675781 31.988281 M 32 26.84375 C 31.855469 26.625 31.703125 26.410156 31.550781 26.191406 C 30.984375 25.390625 30.386719 24.605469 29.753906 23.847656 C 29.109375 23.078125 28.421875 22.347656 27.6875 21.660156 C 26.9375 20.957031 26.125 20.316406 25.269531 19.746094 C 24.378906 19.144531 23.4375 18.636719 22.453125 18.222656 C 21.40625 17.785156 20.316406 17.457031 19.207031 17.238281 C 18.015625 17.011719 16.796875 16.894531 15.578125 16.902344 C 13.511719 16.894531 11.46875 17.296875 9.550781 18.074219 C 7.714844 18.816406 6.035156 19.90625 4.605469 21.28125 C 3.175781 22.644531 2.035156 24.277344 1.246094 26.078125 C 0.421875 27.941406 0 29.953125 0 31.988281 C 0 34.027344 0.421875 36.035156 1.246094 37.894531 C 2.035156 39.703125 3.175781 41.332031 4.605469 42.699219 C 6.035156 44.074219 7.714844 45.160156 9.550781 45.90625 C 11.449219 46.671875 13.46875 47.066406 15.511719 47.078125 C 15.8125 47.09375 16.113281 47.097656 16.417969 47.097656 C 17.515625 47.105469 18.613281 46.996094 19.691406 46.78125 C 20.699219 46.574219 21.683594 46.265625 22.628906 45.855469 C 23.527344 45.457031 24.386719 44.984375 25.191406 44.421875 C 25.96875 43.886719 26.707031 43.28125 27.390625 42.625 C 28.0625 41.980469 28.691406 41.296875 29.28125 40.578125 C 29.863281 39.871094 30.421875 39.136719 30.949219 38.378906 C 31.308594 37.859375 31.65625 37.339844 32 36.8125 "/>
</g>
</svg>
