<svg xmlns="http://www.w3.org/2000/svg" xmlns:xlink="http://www.w3.org/1999/xlink" width="64px" height="64px" viewBox="0 0 64 64" version="1.1">
<defs>
<linearGradient id="linear0" gradientUnits="userSpaceOnUse" x1="0" y1="0" x2="0" y2="1" gradientTransform="matrix(63.958333,0,0,64,0.0208333,0)">
<stop offset="0" style="stop-color:#58d2f0;stop-opacity:1;"/>
<stop offset="1" style="stop-color:#1b788f;stop-opacity:1;"/>
</linearGradient>
</defs>
<g id="surface1">
<path style=" stroke:none;fill-rule:nonzero;fill:url(#linear0);" d="M 32.527344 0 L 32.453125 1.972656 L 34.292969 2.035156 L 36.597656 2.308594 L 36.828125 0.347656 L 34.519531 0.0664062 L 34.449219 0.0664062 Z M 28.125 0.246094 L 26.464844 0.46875 L 26.417969 0.480469 L 26.375 0.484375 L 23.875 1.042969 L 24.300781 2.96875 L 26.722656 2.433594 L 26.746094 2.433594 L 28.390625 2.199219 Z M 41.125 1.316406 L 40.5625 3.207031 L 41.808594 3.578125 L 44.234375 4.535156 L 44.246094 4.535156 L 44.3125 4.566406 L 44.390625 4.605469 L 45.269531 2.847656 L 45.113281 2.769531 L 45.078125 2.746094 L 45.035156 2.730469 L 42.53125 1.746094 L 42.496094 1.730469 L 42.453125 1.714844 Z M 19.707031 2.472656 L 18.730469 2.871094 L 18.691406 2.886719 L 18.65625 2.90625 L 16.300781 4.105469 L 16.261719 4.125 L 16.230469 4.152344 L 15.761719 4.4375 L 16.8125 6.121094 L 17.203125 5.863281 L 17.25 5.839844 L 17.269531 5.824219 L 19.558594 4.667969 L 20.453125 4.308594 Z M 55.746094 2.660156 C 52.628906 2.660156 50.105469 5.183594 50.105469 8.300781 C 50.105469 11.417969 52.628906 13.949219 55.746094 13.949219 C 58.859375 13.949219 61.386719 11.417969 61.386719 8.300781 C 61.386719 5.183594 58.859375 2.660156 55.746094 2.660156 Z M 12.199219 6.890625 L 11.75 7.21875 L 11.71875 7.246094 L 11.6875 7.277344 L 9.667969 9.09375 L 9.628906 9.121094 L 9.605469 9.152344 L 8.941406 9.859375 L 10.386719 11.207031 L 10.984375 10.5625 L 11.046875 10.5 L 12.9375 8.800781 L 12.941406 8.796875 L 13.386719 8.464844 Z M 32.046875 7.175781 C 18.332031 7.175781 7.21875 18.292969 7.21875 32 C 7.21875 45.707031 18.332031 56.824219 32.046875 56.828125 C 45.753906 56.824219 56.871094 45.707031 56.871094 32 C 56.871094 18.292969 45.753906 7.175781 32.046875 7.175781 Z M 6.15625 13.175781 L 5.886719 13.527344 L 5.855469 13.5625 L 5.832031 13.597656 L 4.296875 16 L 4.277344 16.03125 L 4.261719 16.078125 L 3.816406 16.925781 L 5.566406 17.828125 L 5.996094 17.003906 L 6.011719 16.980469 L 7.441406 14.734375 L 7.46875 14.703125 L 7.5 14.65625 L 7.714844 14.386719 Z M 42.207031 16.203125 C 45.324219 16.203125 47.847656 18.730469 47.84375 21.847656 C 47.84375 24.964844 45.316406 27.484375 42.207031 27.488281 C 39.089844 27.488281 36.5625 24.964844 36.558594 21.847656 C 36.558594 18.730469 39.089844 16.199219 42.207031 16.203125 Z M 60.597656 17.503906 L 58.800781 18.324219 L 59.949219 20.871094 L 59.957031 20.886719 L 60.394531 22.152344 L 62.265625 21.5 L 61.792969 20.152344 L 61.777344 20.105469 L 61.753906 20.066406 Z M 2.03125 20.871094 L 1.878906 21.230469 L 1.859375 21.277344 L 1.847656 21.316406 L 1.042969 23.964844 L 1.027344 24.003906 L 1.019531 24.046875 L 0.796875 25.109375 L 2.730469 25.511719 L 2.949219 24.484375 L 2.953125 24.453125 L 3.707031 21.980469 L 3.734375 21.925781 L 3.738281 21.894531 L 3.859375 21.609375 Z M 63.441406 25.75 L 61.5 26.058594 L 61.902344 28.621094 L 62.011719 30.175781 L 63.980469 30.046875 L 63.875 28.488281 L 63.871094 28.441406 L 63.859375 28.40625 Z M 0.140625 29.386719 L 0.113281 29.546875 L 0.109375 29.59375 L 0.109375 29.640625 L 0.0195312 32.371094 L 0.0195312 32.464844 L 0.0976562 33.796875 L 2.074219 33.683594 L 2 32.378906 L 2 32.347656 L 2.082031 29.738281 L 2.097656 29.613281 Z M 62 34.246094 L 61.722656 36.691406 L 61.386719 38.347656 L 63.324219 38.75 L 63.660156 37.09375 L 63.675781 37 L 63.964844 34.46875 Z M 2.550781 37.722656 L 0.628906 38.175781 L 1.238281 40.753906 L 1.253906 40.800781 L 1.265625 40.839844 L 1.777344 42.355469 L 3.652344 41.730469 L 3.144531 40.246094 L 3.140625 40.214844 Z M 60.28125 42.253906 L 59.355469 44.535156 L 59.347656 44.550781 L 58.578125 46.042969 L 60.332031 46.941406 L 61.136719 45.375 L 61.160156 45.339844 L 61.175781 45.292969 L 62.109375 42.996094 Z M 5.199219 45.480469 L 3.472656 46.425781 L 4.691406 48.640625 L 4.714844 48.675781 L 4.734375 48.71875 L 5.703125 50.144531 L 7.339844 49.03125 L 6.417969 47.691406 L 6.394531 47.644531 L 6.371094 47.613281 Z M 56.453125 49.503906 L 55.089844 51.285156 L 55.082031 51.292969 L 53.800781 52.691406 L 55.25 54.03125 L 56.546875 52.621094 L 56.578125 52.589844 L 56.605469 52.558594 L 58.019531 50.699219 Z M 9.84375 52.230469 L 8.4375 53.609375 L 10.261719 55.457031 L 10.292969 55.488281 L 10.324219 55.515625 L 11.589844 56.589844 L 12.859375 55.074219 L 11.667969 54.074219 L 11.652344 54.046875 Z M 50.808594 55.441406 L 49.105469 56.738281 L 49.074219 56.765625 L 49.027344 56.796875 L 47.394531 57.808594 L 48.4375 59.480469 L 50.144531 58.417969 L 50.183594 58.390625 L 50.222656 58.371094 L 52.003906 57.019531 Z M 16.140625 57.472656 L 15.152344 59.1875 L 17.285156 60.410156 L 17.328125 60.4375 L 17.363281 60.453125 L 18.984375 61.199219 L 19.8125 59.410156 L 18.277344 58.699219 Z M 43.78125 59.640625 L 41.875 60.394531 L 41.847656 60.40625 L 39.855469 60.988281 L 40.40625 62.890625 L 42.433594 62.296875 L 42.515625 62.265625 L 44.503906 61.480469 Z M 23.621094 60.824219 L 23.128906 62.734375 L 25.378906 63.3125 L 25.421875 63.328125 L 25.464844 63.339844 L 27.355469 63.644531 L 27.683594 61.703125 L 25.792969 61.386719 Z M 35.863281 61.777344 L 33.984375 61.984375 L 33.957031 61.984375 L 31.722656 62.027344 L 31.761719 64 L 34.015625 63.964844 L 34.058594 63.964844 L 34.105469 63.953125 L 36.082031 63.746094 Z M 35.863281 61.777344 "/>
</g>
</svg>
