<svg xmlns="http://www.w3.org/2000/svg" xmlns:xlink="http://www.w3.org/1999/xlink" width="64px" height="64px" viewBox="0 0 64 64" version="1.1">
<defs>
<linearGradient id="linear0" gradientUnits="userSpaceOnUse" x1="0" y1="0" x2="0" y2="1" gradientTransform="matrix(40.661458,0,0,48.713542,0,7.656251)">
<stop offset="0" style="stop-color:#58d2f0;stop-opacity:1;"/>
<stop offset="1" style="stop-color:#1b788f;stop-opacity:1;"/>
</linearGradient>
<linearGradient id="linear1" gradientUnits="userSpaceOnUse" x1="0" y1="0" x2="0" y2="1" gradientTransform="matrix(40.661458,0,0,48.713542,23.338542,7.656251)">
<stop offset="0" style="stop-color:#58d2f0;stop-opacity:1;"/>
<stop offset="1" style="stop-color:#1b788f;stop-opacity:1;"/>
</linearGradient>
<linearGradient id="linear2" gradientUnits="userSpaceOnUse" x1="0" y1="0" x2="0" y2="1" gradientTransform="matrix(40.661458,0,0,48.723958,0.00520833,7.630208)">
<stop offset="0" style="stop-color:#58d2f0;stop-opacity:1;"/>
<stop offset="1" style="stop-color:#1b788f;stop-opacity:1;"/>
</linearGradient>
</defs>
<g id="surface1">
<path style=" stroke:none;fill-rule:evenodd;fill:url(#linear0);" d="M 7.53125 56.371094 C 4.332031 48.628906 0.09375 41.8125 0 29.171875 C -0.0976562 16.109375 11.105469 7.65625 19.957031 7.65625 C 30.683594 7.65625 40.109375 16.707031 40.609375 24.203125 C 41.058594 30.972656 38.652344 40.8125 26.21875 40.738281 C 20.285156 40.703125 14.121094 35.542969 14.089844 27.859375 C 14.050781 19.574219 24.4375 18.765625 27.050781 20.875 C 28.074219 21.691406 28.042969 23.316406 27.140625 23.027344 C 21.546875 21.203125 18.09375 24.792969 18.355469 28.359375 C 18.699219 33.203125 21.574219 36.082031 26.722656 36.328125 C 34.152344 36.683594 36.234375 29.457031 36.042969 26.527344 C 35.8125 22.957031 32.703125 15.625 23.03125 14.285156 C 18.46875 13.65625 14.683594 15.019531 11.917969 17.703125 C 9.15625 20.378906 7.597656 23.152344 7.375 27.699219 C 7.140625 32.402344 8.167969 35.160156 10.980469 41.328125 C 11.984375 43.53125 14.785156 47.980469 16.964844 52.433594 Z M 7.53125 56.371094 "/>
<path style=" stroke:none;fill-rule:evenodd;fill:url(#linear1);" d="M 56.46875 7.65625 C 59.667969 15.394531 63.90625 22.21875 64 34.859375 C 64.097656 47.917969 52.894531 56.371094 44.042969 56.371094 C 33.316406 56.375 23.890625 47.324219 23.390625 39.824219 C 22.941406 33.058594 25.347656 23.214844 37.78125 23.285156 C 43.714844 23.324219 49.878906 28.484375 49.910156 36.167969 C 49.949219 44.453125 39.5625 45.265625 36.949219 43.152344 C 35.925781 42.332031 35.957031 40.714844 36.859375 41.003906 C 42.453125 42.824219 45.90625 39.234375 45.644531 35.667969 C 45.300781 30.824219 42.425781 27.941406 37.277344 27.699219 C 29.847656 27.34375 27.765625 34.574219 27.957031 37.503906 C 28.1875 41.066406 31.296875 48.402344 40.96875 49.738281 C 45.53125 50.375 49.316406 49.003906 52.082031 46.328125 C 54.84375 43.644531 56.402344 40.875 56.625 36.328125 C 56.859375 31.625 55.832031 28.871094 53.019531 22.699219 C 52.015625 20.496094 49.214844 16.050781 47.035156 11.597656 Z M 56.46875 7.65625 "/>
<path style=" stroke:none;fill-rule:evenodd;fill:url(#linear2);" d="M 19.941406 7.628906 C 11.089844 7.628906 -0.09375 16.089844 0.00390625 29.144531 C 0.0976562 41.785156 4.355469 48.613281 7.550781 56.355469 L 16.957031 52.410156 C 16.121094 50.691406 15.199219 49.042969 14.3125 47.453125 L 12.230469 47.453125 L 12.230469 43.683594 C 11.714844 42.753906 11.269531 41.933594 10.988281 41.3125 C 8.175781 35.144531 7.144531 32.386719 7.386719 27.683594 C 7.609375 23.136719 9.183594 20.390625 11.949219 17.714844 C 14.707031 15.03125 18.480469 13.640625 23.042969 14.277344 C 27.613281 14.90625 30.703125 16.894531 32.734375 19.175781 L 34.644531 19.175781 L 34.644531 21.996094 C 35.519531 23.675781 35.980469 25.296875 36.058594 26.5 C 36.140625 27.800781 35.730469 29.949219 34.644531 31.90625 L 34.644531 38.609375 C 39.785156 35.359375 40.9375 29 40.621094 24.1875 C 40.121094 16.691406 30.667969 7.625 19.941406 7.628906 Z M 19.941406 7.628906 "/>
</g>
</svg>
