<svg xmlns="http://www.w3.org/2000/svg" xmlns:xlink="http://www.w3.org/1999/xlink" width="64px" height="64px" viewBox="0 0 64 64" version="1.1">
<defs>
<linearGradient id="linear0" gradientUnits="userSpaceOnUse" x1="0" y1="0" x2="0" y2="1" gradientTransform="matrix(64,0,0,64,0,0)">
<stop offset="0" style="stop-color:#f8f1d0;stop-opacity:1;"/>
<stop offset="1" style="stop-color:#e18d0f;stop-opacity:1;"/>
</linearGradient>
</defs>
<g id="surface1">
<path style=" stroke:none;fill-rule:nonzero;fill:url(#linear0);" d="M 45.425781 18.578125 C 46.984375 20.136719 46.984375 22.65625 45.425781 24.214844 L 24.207031 45.425781 C 22.65625 46.984375 20.128906 46.984375 18.578125 45.425781 C 17.019531 43.871094 17.019531 41.347656 18.578125 39.792969 L 39.792969 18.578125 C 41.347656 17.019531 43.871094 17.019531 45.425781 18.578125 Z M 21.058594 54.277344 C 17.933594 57.394531 12.855469 57.394531 9.730469 54.277344 C 6.605469 51.152344 6.605469 46.074219 9.730469 42.949219 L 24.765625 27.925781 C 19.71875 26.699219 14.171875 28.058594 10.234375 32 L 4.511719 37.722656 C -1.503906 43.734375 -1.503906 53.480469 4.511719 59.496094 C 10.519531 65.503906 20.265625 65.503906 26.277344 59.496094 L 32.003906 53.765625 C 35.941406 49.828125 37.296875 44.285156 36.078125 39.238281 L 21.058594 54.269531 Z M 37.730469 4.503906 L 32 10.234375 C 28.0625 14.171875 26.699219 19.707031 27.921875 24.753906 L 42.949219 9.730469 C 46.066406 6.605469 51.152344 6.605469 54.277344 9.730469 C 57.394531 12.847656 57.394531 17.933594 54.277344 21.050781 L 39.246094 36.082031 C 44.292969 37.300781 49.828125 35.941406 53.765625 32 L 59.496094 26.277344 C 65.5 20.265625 65.5 10.519531 59.496094 4.503906 C 53.480469 -1.503906 43.734375 -1.503906 37.722656 4.503906 Z M 37.730469 4.503906 "/>
</g>
</svg>
