<svg xmlns="http://www.w3.org/2000/svg" xmlns:xlink="http://www.w3.org/1999/xlink" width="64px" height="64px" viewBox="0 0 64 64" version="1.1">
<defs>
<linearGradient id="linear0" gradientUnits="userSpaceOnUse" x1="0" y1="0" x2="0" y2="1" gradientTransform="matrix(58.8125,0,0,64,2.593751,0)">
<stop offset="0" style="stop-color:#fcd7fb;stop-opacity:1;"/>
<stop offset="1" style="stop-color:#ce13b8;stop-opacity:1;"/>
</linearGradient>
</defs>
<g id="surface1">
<path style=" stroke:none;fill-rule:nonzero;fill:url(#linear0);" d="M 49.542969 0.00390625 C 47.199219 0.0664062 44.871094 0.828125 42.972656 2.214844 C 40.777344 3.816406 39.21875 6.128906 37.503906 8.246094 C 36.644531 9.300781 35.734375 10.328125 34.683594 11.191406 C 33.628906 12.058594 32.453125 12.9375 31.113281 13.113281 C 28.410156 13.46875 25.605469 12.09375 23.160156 11.238281 C 20.621094 10.265625 18.113281 9.046875 15.410156 8.761719 C 11.683594 8.371094 7.800781 9.921875 5.359375 12.785156 C 2.921875 15.644531 2.003906 20.609375 2.972656 24.246094 C 3.941406 27.886719 6.78125 30.964844 10.316406 32.21875 C 13.855469 33.472656 17.988281 32.871094 21.027344 30.65625 C 23.222656 29.050781 24.78125 26.738281 26.496094 24.625 C 28.332031 22.339844 30.253906 20.09375 32.886719 19.0625 C 34.140625 18.566406 35.59375 18.714844 36.933594 18.933594 C 38.269531 19.152344 39.574219 19.582031 40.839844 20.074219 C 43.378906 21.042969 45.886719 22.265625 48.589844 22.546875 C 52.316406 22.941406 56.199219 21.390625 58.640625 18.527344 C 61.078125 15.660156 61.996094 12.261719 61.027344 8.625 C 60.058594 4.984375 57.21875 1.90625 53.683594 0.644531 C 52.355469 0.175781 50.941406 -0.0351562 49.542969 0.00390625 Z M 50.949219 25.953125 C 49.230469 25.996094 47.519531 26.558594 46.125 27.578125 C 44.511719 28.761719 43.359375 30.457031 42.09375 32.019531 C 41.46875 32.800781 40.796875 33.558594 40.027344 34.191406 C 39.25 34.832031 38.371094 35.347656 37.402344 35.609375 C 36.4375 35.871094 35.417969 35.863281 34.425781 35.699219 C 33.441406 35.542969 32.484375 35.222656 31.550781 34.863281 C 29.683594 34.144531 27.847656 33.25 25.859375 33.042969 C 23.113281 32.75 20.261719 33.890625 18.46875 36 C 16.683594 38.113281 16 41.128906 16.714844 43.808594 C 17.425781 46.488281 19.511719 48.761719 22.113281 49.6875 C 24.714844 50.613281 27.75 50.167969 29.984375 48.535156 C 31.597656 47.355469 32.75 45.644531 34.011719 44.089844 C 34.640625 43.308594 35.3125 42.550781 36.082031 41.917969 C 36.859375 41.28125 37.738281 40.761719 38.707031 40.5 C 39.671875 40.238281 40.691406 40.25 41.683594 40.40625 C 42.660156 40.574219 43.625 40.886719 44.558594 41.246094 C 46.421875 41.957031 48.261719 42.859375 50.25 43.074219 C 52.988281 43.363281 55.847656 42.21875 57.640625 40.109375 C 59.433594 38 60.109375 34.984375 59.394531 32.300781 C 58.683594 29.621094 56.59375 27.347656 53.996094 26.421875 C 53.019531 26.078125 51.984375 25.921875 50.949219 25.953125 Z M 32.46875 51.90625 C 32.078125 51.925781 31.683594 51.988281 31.296875 52.09375 C 29.765625 52.503906 28.410156 53.542969 27.621094 54.917969 C 26.824219 56.292969 26.605469 57.984375 27.011719 59.515625 C 27.421875 61.046875 28.457031 62.402344 29.839844 63.191406 C 31.207031 63.988281 32.902344 64.207031 34.433594 63.800781 C 35.964844 63.386719 37.316406 62.355469 38.113281 60.972656 C 38.90625 59.605469 39.128906 57.910156 38.714844 56.378906 C 38.300781 54.847656 37.265625 53.488281 35.894531 52.699219 C 34.863281 52.105469 33.65625 51.828125 32.46875 51.90625 Z M 32.46875 51.90625 "/>
</g>
</svg>
