<svg xmlns="http://www.w3.org/2000/svg" xmlns:xlink="http://www.w3.org/1999/xlink" width="64px" height="64px" viewBox="0 0 64 64" version="1.1">
<defs>
<linearGradient id="linear0" gradientUnits="userSpaceOnUse" x1="0" y1="0" x2="0" y2="1" gradientTransform="matrix(60.338542,0,0,64,1.833333,0)">
<stop offset="0" style="stop-color:#f8c3c3;stop-opacity:1;"/>
<stop offset="1" style="stop-color:#c60606;stop-opacity:1;"/>
</linearGradient>
</defs>
<g id="surface1">
<path style=" stroke:none;fill-rule:nonzero;fill:url(#linear0);" d="M 12.515625 60.441406 C 12.515625 60.441406 16.332031 62.238281 21.410156 62.871094 C 23.46875 63.125 31.292969 64.019531 37.292969 64 C 37.292969 64 44.597656 64.003906 48.628906 63.4375 C 52.855469 62.832031 55.246094 62.074219 56.574219 60.542969 C 56.609375 60.183594 57.214844 58.996094 55.574219 57.847656 C 51.378906 54.921875 45.957031 54.121094 35.425781 51.621094 C 23.78125 48.691406 20.125 45.890625 18.386719 43.859375 C 16.734375 41.828125 18.871094 37.605469 28.253906 35.53125 C 33.003906 34.375 49.71875 33.777344 49.71875 33.777344 C 44.640625 29.746094 36.09375 22.917969 34.144531 21.378906 C 32.4375 20.035156 29.683594 17.96875 29.390625 16.125 C 28.988281 14.328125 31.816406 13.464844 33.316406 13.363281 C 38.140625 13.03125 44.730469 14.308594 50.582031 15.46875 C 53.527344 16.058594 54.046875 15.96875 54.046875 15.96875 C 58.234375 16.167969 62.332031 13.261719 62.167969 8.636719 C 62.128906 3.949219 56.609375 0.183594 51.417969 0.0195312 C 46.167969 0 33.71875 0 33.71875 0 C 47.761719 2.894531 50.816406 4.355469 51.546875 6.046875 C 51.984375 7.042969 50.828125 8.035156 46.957031 7.84375 C 42.746094 7.628906 34.113281 6.609375 34.113281 6.609375 C 25.894531 5.347656 20.878906 4.152344 18.386719 7.410156 C 16.753906 9.542969 18.621094 12.136719 19.355469 13.667969 C 22.613281 19.355469 27.542969 23.261719 31.121094 26.011719 C 32.464844 27.046875 36.574219 29.339844 36.574219 29.339844 C 23.796875 25.84375 12.90625 27.808594 6.449219 31.199219 C -0.96875 35.59375 0.300781 43.003906 12.074219 49.933594 C 19.027344 54.027344 23.203125 55.988281 34.589844 57.390625 C 41.238281 58.453125 42.589844 58.886719 42.542969 59.4375 C 42.46875 60.21875 34.308594 60.515625 32.160156 60.660156 C 26.703125 61.042969 12.582031 60.449219 12.515625 60.449219 Z M 12.515625 60.441406 "/>
</g>
</svg>
