<svg xmlns="http://www.w3.org/2000/svg" xmlns:xlink="http://www.w3.org/1999/xlink" width="64px" height="64px" viewBox="0 0 64 64" version="1.1">
<defs>
<linearGradient id="linear0" gradientUnits="userSpaceOnUse" x1="0" y1="0" x2="0" y2="1" gradientTransform="matrix(55.994792,0,0,60,4.005208,4)">
<stop offset="0" style="stop-color:#58d2f0;stop-opacity:1;"/>
<stop offset="1" style="stop-color:#1b788f;stop-opacity:1;"/>
</linearGradient>
</defs>
<g id="surface1">
<path style=" stroke:none;fill-rule:nonzero;fill:url(#linear0);" d="M 32 4 C 29.886719 4 27.875 4.390625 26.027344 5.183594 C 24.183594 5.933594 22.550781 7.03125 21.199219 8.457031 L 21.1875 8.472656 L 21.183594 8.484375 C 19.859375 9.921875 18.839844 11.644531 18.113281 13.605469 C 17.375 15.65625 17.011719 17.824219 17.035156 20.003906 C 17.035156 22.324219 17.386719 24.488281 18.113281 26.453125 C 18.839844 28.378906 19.859375 30.082031 21.183594 31.515625 L 21.1875 31.527344 L 21.199219 31.53125 C 22.546875 32.957031 24.167969 34.078125 26 34.859375 L 26.015625 34.871094 L 26.03125 34.875 C 27.878906 35.628906 29.886719 36 32 36 C 34.113281 36 36.113281 35.628906 37.957031 34.875 L 37.957031 34.871094 C 39.765625 34.105469 41.386719 32.96875 42.71875 31.53125 C 44.078125 30.097656 45.121094 28.386719 45.84375 26.453125 C 46.578125 24.488281 46.933594 22.328125 46.933594 20 L 46.972656 20 C 46.972656 17.707031 46.625 15.5625 45.890625 13.609375 C 45.214844 11.703125 44.152344 9.953125 42.765625 8.472656 C 41.4375 7.035156 39.800781 5.910156 37.984375 5.183594 C 36.089844 4.386719 34.050781 3.984375 32 4 Z M 32 8 C 33.625 8 35.082031 8.292969 36.40625 8.859375 L 36.449219 8.875 L 36.488281 8.886719 C 37.808594 9.421875 38.917969 10.1875 39.839844 11.1875 L 39.839844 11.230469 C 40.800781 12.238281 41.5625 13.484375 42.113281 14.988281 L 42.113281 15.011719 C 42.628906 16.410156 42.886719 18.019531 42.910156 19.816406 L 42.910156 20 C 42.910156 21.925781 42.621094 23.597656 42.078125 25.046875 L 42.078125 25.058594 C 41.578125 26.4375 40.808594 27.707031 39.800781 28.78125 L 39.761719 28.796875 L 39.761719 28.8125 C 38.828125 29.824219 37.703125 30.613281 36.371094 31.1875 C 34.980469 31.738281 33.496094 32.015625 32 32 C 30.359375 32 28.894531 31.714844 27.5625 31.171875 L 27.546875 31.171875 C 26.25 30.613281 25.144531 29.824219 24.199219 28.84375 L 23.996094 28.5625 L 23.957031 28.542969 C 23.058594 27.515625 22.347656 26.332031 21.871094 25.058594 C 21.292969 23.433594 21.011719 21.71875 21.042969 20 C 21.042969 18.113281 21.316406 16.457031 21.871094 15 L 21.875 14.988281 L 21.875 14.972656 C 22.425781 13.472656 23.171875 12.238281 24.09375 11.234375 L 24.140625 11.191406 C 25.097656 10.191406 26.21875 9.421875 27.542969 8.878906 L 27.5625 8.863281 L 27.59375 8.855469 C 28.921875 8.296875 30.375 8 32 8 Z M 60 64 L 56 64 C 56 60.542969 55.722656 58.800781 55.0625 56.667969 C 54.402344 54.535156 53.421875 53.050781 51.800781 51.828125 C 48.566406 49.386719 43.363281 48.09375 32.113281 48.09375 C 20.871094 48.09375 15.457031 49.386719 12.214844 51.828125 C 10.59375 53.046875 9.613281 54.53125 8.953125 56.667969 C 8.285156 58.800781 8.011719 60.542969 8.003906 64 L 4.003906 63.988281 C 4.011719 60.339844 4.277344 58.234375 5.128906 55.480469 C 5.988281 52.730469 7.511719 50.371094 9.808594 48.636719 C 14.40625 45.167969 20.59375 44.097656 32.113281 44.097656 C 43.640625 44.097656 49.621094 45.167969 54.214844 48.640625 C 56.511719 50.371094 58.027344 52.734375 58.878906 55.488281 C 59.734375 58.238281 60 60.339844 60 64 Z M 60 64 "/>
</g>
</svg>
