<svg xmlns="http://www.w3.org/2000/svg" xmlns:xlink="http://www.w3.org/1999/xlink" width="64px" height="64px" viewBox="0 0 64 64" version="1.1">
<defs>
<linearGradient id="linear0" gradientUnits="userSpaceOnUse" x1="0" y1="0" x2="0" y2="1" gradientTransform="matrix(64,0,0,43.385417,0,10.307292)">
<stop offset="0" style="stop-color:#cff3fe;stop-opacity:1;"/>
<stop offset="1" style="stop-color:#054cff;stop-opacity:1;"/>
</linearGradient>
</defs>
<g id="surface1">
<path style=" stroke:none;fill-rule:evenodd;fill:url(#linear0);" d="M 56.667969 10.308594 L 42.777344 27.949219 L 36.261719 20.046875 L 21.734375 38.832031 L 15.25 31.410156 L 0 50.441406 L 1.964844 51.449219 L 15.332031 34.765625 L 21.859375 42.222656 L 36.328125 23.511719 L 42.828125 31.386719 L 56.816406 13.609375 L 62.125 19.359375 L 64 18.25 Z M 4.015625 11.894531 L 12.375 11.894531 L 12.375 16.910156 L 4.015625 16.910156 Z M 4.015625 18.582031 L 12.375 18.582031 L 12.375 23.597656 L 4.015625 23.597656 Z M 14.046875 11.894531 L 25.75 11.894531 L 25.75 16.910156 L 14.046875 16.910156 Z M 14.046875 18.582031 L 25.75 18.582031 L 25.75 23.597656 L 14.046875 23.597656 Z M 54.171875 26.941406 L 60.859375 26.941406 L 60.859375 53.691406 L 54.171875 53.691406 Z M 40.796875 36.972656 L 47.484375 36.972656 L 47.484375 53.691406 L 40.796875 53.691406 Z M 27.421875 45.332031 L 34.109375 45.332031 L 34.109375 53.691406 L 27.421875 53.691406 Z M 27.421875 45.332031 "/>
</g>
</svg>
