<svg xmlns="http://www.w3.org/2000/svg" xmlns:xlink="http://www.w3.org/1999/xlink" width="64px" height="64px" viewBox="0 0 64 64" version="1.1">
<defs>
<linearGradient id="linear0" gradientUnits="userSpaceOnUse" x1="0" y1="0" x2="0" y2="1" gradientTransform="matrix(42.875,0,0,64,10.5625,0)">
<stop offset="0" style="stop-color:#cff3fe;stop-opacity:1;"/>
<stop offset="1" style="stop-color:#054cff;stop-opacity:1;"/>
</linearGradient>
</defs>
<g id="surface1">
<path style=" stroke:none;fill-rule:nonzero;fill:url(#linear0);" d="M 25.921875 35.566406 L 25.921875 59.171875 C 28.605469 59.535156 31.222656 60.265625 33.78125 61.359375 L 33.78125 64 L 10.5625 64 L 10.5625 61.347656 C 11.59375 60.859375 12.660156 60.433594 13.761719 60.066406 C 14.859375 59.703125 15.984375 59.394531 17.140625 59.15625 L 17.140625 4.9375 C 15.800781 4.628906 14.582031 4.28125 13.484375 3.886719 C 12.390625 3.488281 11.410156 3.078125 10.5625 2.652344 L 10.5625 0 L 53.4375 0 C 53.378906 2.375 53.269531 4.816406 53.121094 7.3125 C 52.96875 9.8125 52.738281 12.3125 52.433594 14.8125 L 50.058594 14.8125 L 46.308594 4.753906 L 25.921875 4.753906 L 25.921875 30.8125 L 41.738281 30.8125 L 45.484375 24.078125 L 47.589844 24.078125 C 47.707031 25.480469 47.800781 26.953125 47.863281 28.496094 C 47.921875 30.042969 47.953125 31.621094 47.953125 33.234375 C 47.953125 34.90625 47.921875 36.53125 47.863281 38.109375 C 47.800781 39.683594 47.707031 41.171875 47.589844 42.574219 L 45.484375 42.574219 L 41.738281 35.566406 Z M 25.921875 35.566406 "/>
</g>
</svg>
