<svg xmlns="http://www.w3.org/2000/svg" xmlns:xlink="http://www.w3.org/1999/xlink" width="64px" height="64px" viewBox="0 0 64 64" version="1.1">
<defs>
<filter id="alpha" filterUnits="objectBoundingBox" x="0%" y="0%" width="100%" height="100%">
  <feColorMatrix type="matrix" in="SourceGraphic" values="0 0 0 0 1 0 0 0 0 1 0 0 0 0 1 0 0 0 1 0"/>
</filter>
<mask id="mask0">
  <g filter="url(#alpha)">
<rect x="0" y="0" width="64" height="64" style="fill:rgb(0%,0%,0%);fill-opacity:0.15;stroke:none;"/>
  </g>
</mask>
<linearGradient id="linear0" gradientUnits="userSpaceOnUse" x1="49.570999" y1="52.714001" x2="51.714001" y2="54.856998" gradientTransform="matrix(2.3333,0,0,2.3333,-68.667,-72.000999)">
<stop offset="0" style="stop-color:rgb(0%,0%,0%);stop-opacity:1;"/>
<stop offset="1" style="stop-color:rgb(0%,0%,0%);stop-opacity:0;"/>
</linearGradient>
<clipPath id="clip1">
  <rect x="0" y="0" width="64" height="64"/>
</clipPath>
<g id="surface5" clip-path="url(#clip1)">
<path style=" stroke:none;fill-rule:evenodd;fill:url(#linear0);" d="M 56 46 L 42 60 L 51 60 C 53.769531 60 56 57.769531 56 55 Z M 56 46 "/>
</g>
</defs>
<g id="surface1">
<path style=" stroke:none;fill-rule:nonzero;fill:rgb(97.647059%,71.764708%,16.862746%);fill-opacity:1;" d="M 13 4 L 51 4 C 53.761719 4 56 6.238281 56 9 L 56 55 C 56 57.761719 53.761719 60 51 60 L 13 60 C 10.238281 60 8 57.761719 8 55 L 8 9 C 8 6.238281 10.238281 4 13 4 Z M 13 4 "/>
<use xlink:href="#surface5" mask="url(#mask0)"/>
<path style=" stroke:none;fill-rule:nonzero;fill:rgb(100%,100%,100%);fill-opacity:1;" d="M 29.152344 21 C 26.351562 21 24.078125 23.273438 24.078125 26.078125 C 24.078125 28.878906 26.351562 31.152344 29.152344 31.152344 C 31.957031 31.152344 34.230469 28.878906 34.230469 26.078125 C 34.230469 23.273438 31.957031 21 29.152344 21 Z M 37.609375 24.292969 L 37.617188 24.296875 C 36.957031 24.296875 36.339844 24.449219 35.78125 24.703125 C 35.875 25.144531 35.921875 25.605469 35.921875 26.074219 C 35.921875 27.9375 35.15625 29.632812 33.921875 30.863281 C 34.699219 32.046875 36.050781 32.84375 37.609375 32.84375 C 40.035156 32.84375 42 30.929688 42 28.570312 C 42 26.207031 40.035156 24.292969 37.609375 24.292969 Z M 29.152344 34.53125 C 19 34.539062 19 41.308594 19 41.308594 L 19 43 L 39.308594 43 L 39.308594 41.308594 C 39.308594 41.308594 39.308594 34.523438 29.152344 34.539062 Z M 37.617188 34.535156 L 37.617188 34.539062 C 37.285156 34.539062 36.988281 34.558594 36.679688 34.574219 C 37.859375 35.25 38.761719 36.058594 39.394531 36.90625 C 40.984375 39.039062 41 41.304688 41 41.304688 L 46.078125 41.304688 L 46.078125 39.613281 C 46.078125 39.613281 46.078125 34.535156 37.617188 34.535156 Z M 37.617188 34.535156 "/>
</g>
</svg>
