<svg xmlns="http://www.w3.org/2000/svg" xmlns:xlink="http://www.w3.org/1999/xlink" width="64px" height="64px" viewBox="0 0 64 64" version="1.1">
<defs>
<linearGradient id="linear0" gradientUnits="userSpaceOnUse" x1="0" y1="0" x2="0" y2="1" gradientTransform="matrix(24.59375,0,0,29.927083,19.552085,16.072915)">
<stop offset="0" style="stop-color:#f8c3c3;stop-opacity:1;"/>
<stop offset="1" style="stop-color:#c60606;stop-opacity:1;"/>
</linearGradient>
<linearGradient id="linear1" gradientUnits="userSpaceOnUse" x1="0" y1="0" x2="0" y2="1" gradientTransform="matrix(56,0,0,56,4,4)">
<stop offset="0" style="stop-color:#f8c3c3;stop-opacity:1;"/>
<stop offset="1" style="stop-color:#c60606;stop-opacity:1;"/>
</linearGradient>
</defs>
<g id="surface1">
<path style=" stroke:none;fill-rule:evenodd;fill:url(#linear0);" d="M 43.171875 16.078125 C 42.941406 16.0625 42.671875 16.082031 42.355469 16.109375 L 27.933594 18.359375 C 26.308594 18.527344 26.128906 19.285156 26.144531 20.230469 L 26.144531 39.269531 C 25.316406 38.730469 24.433594 38.339844 23.253906 38.339844 C 21.734375 38.339844 20.828125 38.921875 20.28125 39.6875 C 19.734375 40.453125 19.550781 41.417969 19.550781 42.167969 C 19.550781 43.0625 19.859375 44.019531 20.527344 44.753906 C 21.191406 45.484375 22.21875 46 23.691406 46 C 25.355469 46 26.519531 45.535156 27.183594 44.628906 C 27.703125 43.917969 27.996094 42.957031 28.097656 41.78125 C 28.113281 41.640625 28.121094 41.488281 28.128906 41.339844 C 28.140625 41.21875 28.140625 41.136719 28.140625 40.996094 L 28.144531 40.996094 L 28.144531 25.589844 C 28.191406 24.347656 29.3125 24.167969 29.3125 24.167969 L 41.019531 22.339844 C 42.144531 21.996094 42.144531 23.386719 42.144531 23.386719 L 42.144531 37.269531 C 41.316406 36.730469 40.433594 36.339844 39.253906 36.339844 C 37.738281 36.339844 36.832031 36.921875 36.28125 37.6875 C 35.734375 38.453125 35.550781 39.417969 35.550781 40.167969 C 35.550781 41.0625 35.863281 42.019531 36.53125 42.753906 C 37.199219 43.484375 38.21875 44 39.691406 44 C 41.355469 44 42.527344 43.535156 43.1875 42.628906 C 43.707031 41.917969 43.996094 40.957031 44.097656 39.78125 C 44.113281 39.640625 44.125 39.488281 44.128906 39.339844 C 44.140625 39.21875 44.140625 39.136719 44.140625 38.996094 L 44.144531 38.996094 L 44.144531 17.859375 C 44.171875 16.488281 43.863281 16.125 43.175781 16.078125 Z M 43.171875 16.078125 "/>
<path style=" stroke:none;fill-rule:nonzero;fill:url(#linear1);" d="M 19.980469 4 C 14.941406 4.058594 11.261719 3.878906 8.25 5.542969 C 6.746094 6.375 5.550781 7.777344 4.894531 9.53125 C 4.234375 11.285156 4 13.371094 4 16 L 4 48 C 4 50.628906 4.234375 52.714844 4.894531 54.46875 C 5.550781 56.222656 6.746094 57.625 8.25 58.457031 C 11.261719 60.121094 14.941406 59.941406 19.980469 60 L 44.019531 60 C 49.058594 59.941406 52.738281 60.121094 55.75 58.457031 C 57.253906 57.625 58.449219 56.222656 59.105469 54.46875 C 59.765625 52.714844 60 50.628906 60 48 L 60 16 C 60 13.371094 59.765625 11.285156 59.105469 9.53125 C 58.449219 7.777344 57.253906 6.375 55.75 5.542969 C 52.738281 3.878906 49.058594 4.058594 44.019531 4 Z M 20.019531 8 L 44 8 C 49.035156 8.058594 52.347656 8.234375 53.8125 9.042969 C 54.546875 9.449219 54.96875 9.894531 55.359375 10.9375 C 55.75 11.972656 56 13.628906 56 16 L 56 48 C 56 50.371094 55.75 52.019531 55.359375 53.0625 C 54.96875 54.097656 54.546875 54.546875 53.8125 54.953125 C 52.347656 55.761719 49.035156 55.941406 44 56 L 20 56 C 14.964844 55.941406 11.652344 55.761719 10.1875 54.953125 C 9.453125 54.546875 9.03125 54.097656 8.640625 53.0625 C 8.25 52.019531 8 50.371094 8 48 L 8 16 C 8 13.628906 8.25 11.972656 8.640625 10.9375 C 9.03125 9.894531 9.453125 9.449219 10.1875 9.042969 C 11.652344 8.234375 14.96875 8.058594 20.019531 8 Z M 20.019531 8 "/>
</g>
</svg>
