<svg xmlns="http://www.w3.org/2000/svg" xmlns:xlink="http://www.w3.org/1999/xlink" width="64px" height="64px" viewBox="0 0 64 64" version="1.1">
<defs>
<linearGradient id="linear0" gradientUnits="userSpaceOnUse" x1="0" y1="0" x2="0" y2="1" gradientTransform="matrix(44,0,0,64,12,0)">
<stop offset="0" style="stop-color:#f8f1d0;stop-opacity:1;"/>
<stop offset="1" style="stop-color:#e18d0f;stop-opacity:1;"/>
</linearGradient>
</defs>
<g id="surface1">
<path style=" stroke:none;fill-rule:nonzero;fill:url(#linear0);" d="M 22.644531 0 C 19.292969 0.0429688 16.84375 -0.078125 14.832031 1.03125 C 13.832031 1.582031 13.03125 2.515625 12.59375 3.6875 C 12.15625 4.859375 12 6.246094 12 8 L 12 56 C 12 57.753906 12.15625 59.140625 12.59375 60.3125 C 13.03125 61.484375 13.832031 62.421875 14.832031 62.972656 C 16.84375 64.082031 19.292969 63.964844 22.644531 64 L 45.355469 64 C 48.707031 63.957031 51.15625 64.082031 53.167969 62.972656 C 54.167969 62.421875 54.96875 61.484375 55.40625 60.3125 C 55.84375 59.140625 56 57.753906 56 56 L 56 8 C 56 6.246094 55.84375 4.859375 55.40625 3.6875 C 54.96875 2.515625 54.167969 1.582031 53.160156 1.03125 C 51.15625 -0.078125 48.707031 0.0351562 45.347656 0 Z M 32 5.207031 L 48.957031 22.167969 L 37.203125 32.042969 L 48.957031 41.917969 L 32 58.871094 L 32 36.417969 L 22.285156 44.574219 L 19.707031 41.503906 L 30.984375 32.042969 L 19.707031 22.574219 L 22.285156 19.503906 L 32 27.667969 Z M 36 14.871094 L 36 27.828125 L 43.035156 21.90625 Z M 36 36.25 L 36 49.207031 L 43.035156 42.171875 Z M 36 36.25 "/>
</g>
</svg>
