<svg xmlns="http://www.w3.org/2000/svg" xmlns:xlink="http://www.w3.org/1999/xlink" width="64px" height="64px" viewBox="0 0 64 64" version="1.1">
<defs>
<linearGradient id="linear0" gradientUnits="userSpaceOnUse" x1="0" y1="0" x2="0" y2="1" gradientTransform="matrix(64,0,0,56,0,4)">
<stop offset="0" style="stop-color:#fcd7fb;stop-opacity:1;"/>
<stop offset="1" style="stop-color:#ce13b8;stop-opacity:1;"/>
</linearGradient>
</defs>
<g id="surface1">
<path style=" stroke:none;fill-rule:nonzero;fill:url(#linear0);" d="M 15.980469 4 C 10.941406 4.058594 7.261719 3.878906 4.25 5.542969 C 2.746094 6.371094 1.558594 7.777344 0.902344 9.53125 C 0.238281 11.285156 0 13.371094 0 16 L 0 48 C 0 50.628906 0.238281 52.714844 0.902344 54.46875 C 1.558594 56.222656 2.746094 57.628906 4.25 58.464844 C 7.261719 60.125 10.941406 59.941406 15.980469 60 L 48.027344 60 C 53.058594 59.941406 56.738281 60.125 59.75 58.464844 C 61.253906 57.628906 62.441406 56.222656 63.105469 54.46875 C 63.761719 52.714844 64 50.628906 64 48 L 64 16 C 64 13.371094 63.761719 11.285156 63.105469 9.53125 C 62.441406 7.777344 61.253906 6.371094 59.75 5.542969 C 56.738281 3.878906 53.058594 4.058594 48.027344 4 Z M 16 8 L 48 8 C 53.035156 8.058594 56.347656 8.238281 57.8125 9.046875 C 58.546875 9.453125 58.96875 9.894531 59.359375 10.9375 C 59.75 11.980469 60 13.628906 60 16 L 60 40 L 4 40 L 4 16 C 4 13.628906 4.25 11.980469 4.640625 10.9375 C 5.03125 9.894531 5.449219 9.453125 6.183594 9.046875 C 7.644531 8.238281 10.964844 8.058594 16 8 Z M 4 44 L 60 44 L 60 48 C 60 50.371094 59.75 52.019531 59.359375 53.0625 C 58.96875 54.105469 58.546875 54.546875 57.8125 54.953125 C 56.347656 55.761719 53.035156 55.941406 48 56 L 16 56 C 10.964844 55.941406 7.644531 55.761719 6.183594 54.953125 C 5.449219 54.546875 5.03125 54.105469 4.640625 53.0625 C 4.25 52.019531 4 50.371094 4 48 Z M 8 48 L 8 52 L 56 52 L 56 48 Z M 8 48 "/>
</g>
</svg>
