<svg xmlns="http://www.w3.org/2000/svg" xmlns:xlink="http://www.w3.org/1999/xlink" width="64px" height="64px" viewBox="0 0 64 64" version="1.1">
<defs>
<linearGradient id="linear0" gradientUnits="userSpaceOnUse" x1="0" y1="0" x2="0" y2="1" gradientTransform="matrix(43.510417,0,0,60,8,4)">
<stop offset="0" style="stop-color:#f8c3c3;stop-opacity:1;"/>
<stop offset="1" style="stop-color:#c60606;stop-opacity:1;"/>
</linearGradient>
</defs>
<g id="surface1">
<path style=" stroke:none;fill-rule:nonzero;fill:url(#linear0);" d="M 29.761719 4 C 24.578125 4 19.402344 4.910156 14.542969 6.6875 L 13.855469 6.9375 L 9.496094 28.730469 C 8.75 32.4375 8.011719 36.261719 8 40.199219 C 7.988281 44.136719 8.714844 48.136719 10.453125 51.75 C 12.191406 55.371094 14.917969 58.511719 18.324219 60.683594 C 21.722656 62.847656 25.730469 64 29.761719 64 C 33.785156 64 37.796875 62.847656 41.199219 60.683594 C 44.597656 58.511719 47.316406 55.371094 49.058594 51.75 C 50.792969 48.136719 51.519531 44.136719 51.511719 40.199219 C 51.496094 36.261719 50.765625 32.4375 50.027344 28.730469 L 45.65625 6.9375 L 44.96875 6.6875 C 40.105469 4.910156 34.9375 4 29.761719 4 Z M 28 8.089844 L 28 20 L 32 20 L 32 8.109375 C 35.480469 8.355469 38.910156 9.121094 42.234375 10.203125 L 46.105469 29.515625 C 46.839844 33.203125 47.496094 36.753906 47.511719 40.203125 C 47.519531 43.640625 46.878906 47.046875 45.453125 50.015625 C 44.027344 52.980469 41.78125 55.558594 39.042969 57.308594 C 36.296875 59.050781 33.019531 60 29.761719 60 C 26.496094 60 23.207031 59.050781 20.46875 57.308594 C 17.730469 55.558594 15.480469 52.980469 14.058594 50.015625 C 12.628906 47.046875 11.988281 43.640625 12 40.203125 C 12.011719 36.753906 12.675781 33.207031 13.417969 29.515625 L 17.28125 10.203125 C 20.753906 9.074219 24.359375 8.292969 28 8.089844 Z M 28 8.089844 "/>
</g>
</svg>
