<svg xmlns="http://www.w3.org/2000/svg" xmlns:xlink="http://www.w3.org/1999/xlink" width="64px" height="64px" viewBox="0 0 64 64" version="1.1">
<defs>
<linearGradient id="linear0" gradientUnits="userSpaceOnUse" x1="0" y1="0" x2="0" y2="1" gradientTransform="matrix(16,0,0,15.979167,4,44.03125)">
<stop offset="0" style="stop-color:#e3cfff;stop-opacity:1;"/>
<stop offset="1" style="stop-color:#7d05ff;stop-opacity:1;"/>
</linearGradient>
<linearGradient id="linear1" gradientUnits="userSpaceOnUse" x1="0" y1="0" x2="0" y2="1" gradientTransform="matrix(16,0,0,15.979167,4,24.03125)">
<stop offset="0" style="stop-color:#e3cfff;stop-opacity:1;"/>
<stop offset="1" style="stop-color:#7d05ff;stop-opacity:1;"/>
</linearGradient>
<linearGradient id="linear2" gradientUnits="userSpaceOnUse" x1="0" y1="0" x2="0" y2="1" gradientTransform="matrix(16,0,0,15.979167,4,4.031251)">
<stop offset="0" style="stop-color:#e3cfff;stop-opacity:1;"/>
<stop offset="1" style="stop-color:#7d05ff;stop-opacity:1;"/>
</linearGradient>
<linearGradient id="linear3" gradientUnits="userSpaceOnUse" x1="0" y1="0" x2="0" y2="1" gradientTransform="matrix(16,0,0,15.979167,24,44.03125)">
<stop offset="0" style="stop-color:#e3cfff;stop-opacity:1;"/>
<stop offset="1" style="stop-color:#7d05ff;stop-opacity:1;"/>
</linearGradient>
<linearGradient id="linear4" gradientUnits="userSpaceOnUse" x1="0" y1="0" x2="0" y2="1" gradientTransform="matrix(16,0,0,15.979167,24,24.03125)">
<stop offset="0" style="stop-color:#e3cfff;stop-opacity:1;"/>
<stop offset="1" style="stop-color:#7d05ff;stop-opacity:1;"/>
</linearGradient>
<linearGradient id="linear5" gradientUnits="userSpaceOnUse" x1="0" y1="0" x2="0" y2="1" gradientTransform="matrix(16,0,0,15.979167,24,4.031251)">
<stop offset="0" style="stop-color:#e3cfff;stop-opacity:1;"/>
<stop offset="1" style="stop-color:#7d05ff;stop-opacity:1;"/>
</linearGradient>
<linearGradient id="linear6" gradientUnits="userSpaceOnUse" x1="0" y1="0" x2="0" y2="1" gradientTransform="matrix(16,0,0,15.979167,44,44.03125)">
<stop offset="0" style="stop-color:#e3cfff;stop-opacity:1;"/>
<stop offset="1" style="stop-color:#7d05ff;stop-opacity:1;"/>
</linearGradient>
<linearGradient id="linear7" gradientUnits="userSpaceOnUse" x1="0" y1="0" x2="0" y2="1" gradientTransform="matrix(16,0,0,15.979167,44,24.03125)">
<stop offset="0" style="stop-color:#e3cfff;stop-opacity:1;"/>
<stop offset="1" style="stop-color:#7d05ff;stop-opacity:1;"/>
</linearGradient>
<linearGradient id="linear8" gradientUnits="userSpaceOnUse" x1="0" y1="0" x2="0" y2="1" gradientTransform="matrix(16,0,0,15.979167,44,4.031251)">
<stop offset="0" style="stop-color:#e3cfff;stop-opacity:1;"/>
<stop offset="1" style="stop-color:#7d05ff;stop-opacity:1;"/>
</linearGradient>
</defs>
<g id="surface1">
<path style=" stroke:none;fill-rule:nonzero;fill:url(#linear0);" d="M 8.984375 44.042969 C 7.910156 44.046875 7.09375 43.925781 5.953125 44.375 C 5.378906 44.597656 4.722656 45.121094 4.390625 45.761719 C 4.058594 46.394531 4 47.003906 4 47.574219 L 4 56.46875 C 4 57.035156 4.058594 57.644531 4.390625 58.28125 C 4.722656 58.917969 5.378906 59.4375 5.953125 59.667969 C 7.09375 60.113281 7.910156 59.996094 8.984375 60 L 15.015625 60 C 16.089844 59.996094 16.90625 60.113281 18.046875 59.667969 C 18.621094 59.4375 19.277344 58.917969 19.609375 58.28125 C 19.941406 57.644531 20 57.035156 20 56.46875 L 20 47.574219 C 20 47.003906 19.941406 46.394531 19.609375 45.761719 C 19.277344 45.121094 18.621094 44.597656 18.046875 44.375 C 16.90625 43.921875 16.089844 44.046875 15.015625 44.042969 Z M 9 48.042969 L 15 48.042969 C 15.675781 48.046875 15.761719 48.050781 16 48.074219 L 16 55.96875 C 15.753906 55.984375 15.675781 55.996094 15 56 L 9 56 C 8.324219 55.996094 8.246094 55.988281 8 55.96875 L 8 48.074219 C 8.246094 48.058594 8.324219 48.046875 9 48.042969 Z M 9 48.042969 "/>
<path style=" stroke:none;fill-rule:nonzero;fill:url(#linear1);" d="M 8.984375 24.042969 C 7.910156 24.046875 7.09375 23.925781 5.953125 24.375 C 5.378906 24.597656 4.722656 25.121094 4.390625 25.761719 C 4.058594 26.394531 4 27.003906 4 27.574219 L 4 36.46875 C 4 37.035156 4.058594 37.644531 4.390625 38.28125 C 4.722656 38.917969 5.378906 39.4375 5.953125 39.667969 C 7.09375 40.113281 7.910156 39.996094 8.984375 40 L 15.015625 40 C 16.089844 39.996094 16.90625 40.113281 18.046875 39.667969 C 18.621094 39.4375 19.277344 38.917969 19.609375 38.28125 C 19.941406 37.644531 20 37.035156 20 36.46875 L 20 27.574219 C 20 27.003906 19.941406 26.394531 19.609375 25.761719 C 19.277344 25.121094 18.621094 24.597656 18.046875 24.375 C 16.90625 23.921875 16.089844 24.046875 15.015625 24.042969 Z M 9 28.042969 L 15 28.042969 C 15.675781 28.046875 15.761719 28.050781 16 28.074219 L 16 35.96875 C 15.753906 35.984375 15.675781 35.996094 15 36 L 9 36 C 8.324219 35.996094 8.246094 35.988281 8 35.96875 L 8 28.074219 C 8.246094 28.058594 8.324219 28.046875 9 28.042969 Z M 9 28.042969 "/>
<path style=" stroke:none;fill-rule:nonzero;fill:url(#linear2);" d="M 8.984375 4.042969 C 7.910156 4.046875 7.09375 3.925781 5.953125 4.375 C 5.378906 4.597656 4.722656 5.121094 4.390625 5.761719 C 4.058594 6.394531 4 7.003906 4 7.574219 L 4 16.46875 C 4 17.035156 4.058594 17.644531 4.390625 18.28125 C 4.722656 18.917969 5.378906 19.4375 5.953125 19.667969 C 7.09375 20.113281 7.910156 19.996094 8.984375 20 L 15.015625 20 C 16.089844 19.996094 16.90625 20.113281 18.046875 19.667969 C 18.621094 19.4375 19.277344 18.917969 19.609375 18.28125 C 19.941406 17.644531 20 17.035156 20 16.46875 L 20 7.574219 C 20 7.003906 19.941406 6.394531 19.609375 5.761719 C 19.277344 5.121094 18.621094 4.597656 18.046875 4.375 C 16.90625 3.921875 16.089844 4.046875 15.015625 4.042969 Z M 9 8.042969 L 15 8.042969 C 15.675781 8.046875 15.761719 8.050781 16 8.074219 L 16 15.96875 C 15.753906 15.984375 15.675781 15.996094 15 16 L 9 16 C 8.324219 15.996094 8.246094 15.988281 8 15.96875 L 8 8.074219 C 8.246094 8.058594 8.324219 8.046875 9 8.042969 Z M 9 8.042969 "/>
<path style=" stroke:none;fill-rule:nonzero;fill:url(#linear3);" d="M 28.984375 44.042969 C 27.910156 44.046875 27.09375 43.925781 25.953125 44.375 C 25.378906 44.597656 24.722656 45.121094 24.390625 45.761719 C 24.058594 46.394531 24 47.003906 24 47.574219 L 24 56.46875 C 24 57.035156 24.058594 57.644531 24.390625 58.28125 C 24.722656 58.917969 25.378906 59.4375 25.953125 59.667969 C 27.09375 60.113281 27.910156 59.996094 28.984375 60 L 35.015625 60 C 36.089844 59.996094 36.90625 60.113281 38.046875 59.667969 C 38.621094 59.4375 39.277344 58.917969 39.609375 58.28125 C 39.941406 57.644531 40 57.035156 40 56.46875 L 40 47.574219 C 40 47.003906 39.941406 46.394531 39.609375 45.761719 C 39.277344 45.121094 38.621094 44.597656 38.046875 44.375 C 36.90625 43.921875 36.089844 44.046875 35.015625 44.042969 Z M 29 48.042969 L 35 48.042969 C 35.675781 48.046875 35.761719 48.050781 36 48.074219 L 36 55.96875 C 35.753906 55.984375 35.675781 55.996094 35 56 L 29 56 C 28.324219 55.996094 28.246094 55.988281 28 55.96875 L 28 48.074219 C 28.246094 48.058594 28.324219 48.046875 29 48.042969 Z M 29 48.042969 "/>
<path style=" stroke:none;fill-rule:nonzero;fill:url(#linear4);" d="M 28.984375 24.042969 C 27.910156 24.046875 27.09375 23.925781 25.953125 24.375 C 25.378906 24.597656 24.722656 25.121094 24.390625 25.761719 C 24.058594 26.394531 24 27.003906 24 27.574219 L 24 36.46875 C 24 37.035156 24.058594 37.644531 24.390625 38.28125 C 24.722656 38.917969 25.378906 39.4375 25.953125 39.667969 C 27.09375 40.113281 27.910156 39.996094 28.984375 40 L 35.015625 40 C 36.089844 39.996094 36.90625 40.113281 38.046875 39.667969 C 38.621094 39.4375 39.277344 38.917969 39.609375 38.28125 C 39.941406 37.644531 40 37.035156 40 36.46875 L 40 27.574219 C 40 27.003906 39.941406 26.394531 39.609375 25.761719 C 39.277344 25.121094 38.621094 24.597656 38.046875 24.375 C 36.90625 23.921875 36.089844 24.046875 35.015625 24.042969 Z M 29 28.042969 L 35 28.042969 C 35.675781 28.046875 35.761719 28.050781 36 28.074219 L 36 35.96875 C 35.753906 35.984375 35.675781 35.996094 35 36 L 29 36 C 28.324219 35.996094 28.246094 35.988281 28 35.96875 L 28 28.074219 C 28.246094 28.058594 28.324219 28.046875 29 28.042969 Z M 29 28.042969 "/>
<path style=" stroke:none;fill-rule:nonzero;fill:url(#linear5);" d="M 28.984375 4.042969 C 27.910156 4.046875 27.09375 3.925781 25.953125 4.375 C 25.378906 4.597656 24.722656 5.121094 24.390625 5.761719 C 24.058594 6.394531 24 7.003906 24 7.574219 L 24 16.46875 C 24 17.035156 24.058594 17.644531 24.390625 18.28125 C 24.722656 18.917969 25.378906 19.4375 25.953125 19.667969 C 27.09375 20.113281 27.910156 19.996094 28.984375 20 L 35.015625 20 C 36.089844 19.996094 36.90625 20.113281 38.046875 19.667969 C 38.621094 19.4375 39.277344 18.917969 39.609375 18.28125 C 39.941406 17.644531 40 17.035156 40 16.46875 L 40 7.574219 C 40 7.003906 39.941406 6.394531 39.609375 5.761719 C 39.277344 5.121094 38.621094 4.597656 38.046875 4.375 C 36.90625 3.921875 36.089844 4.046875 35.015625 4.042969 Z M 29 8.042969 L 35 8.042969 C 35.675781 8.046875 35.761719 8.050781 36 8.074219 L 36 15.96875 C 35.753906 15.984375 35.675781 15.996094 35 16 L 29 16 C 28.324219 15.996094 28.246094 15.988281 28 15.96875 L 28 8.074219 C 28.246094 8.058594 28.324219 8.046875 29 8.042969 Z M 29 8.042969 "/>
<path style=" stroke:none;fill-rule:nonzero;fill:url(#linear6);" d="M 48.984375 44.042969 C 47.910156 44.046875 47.09375 43.925781 45.953125 44.375 C 45.378906 44.597656 44.722656 45.121094 44.390625 45.761719 C 44.058594 46.394531 44 47.003906 44 47.574219 L 44 56.46875 C 44 57.035156 44.058594 57.644531 44.390625 58.28125 C 44.722656 58.917969 45.378906 59.4375 45.953125 59.667969 C 47.09375 60.113281 47.910156 59.996094 48.984375 60 L 55.015625 60 C 56.089844 59.996094 56.90625 60.113281 58.046875 59.667969 C 58.621094 59.4375 59.277344 58.917969 59.609375 58.28125 C 59.941406 57.644531 60 57.035156 60 56.46875 L 60 47.574219 C 60 47.003906 59.941406 46.394531 59.609375 45.761719 C 59.277344 45.121094 58.621094 44.597656 58.046875 44.375 C 56.90625 43.921875 56.089844 44.046875 55.015625 44.042969 Z M 49 48.042969 L 55 48.042969 C 55.675781 48.046875 55.761719 48.050781 56 48.074219 L 56 55.96875 C 55.753906 55.984375 55.675781 55.996094 55 56 L 49 56 C 48.324219 55.996094 48.246094 55.988281 48 55.96875 L 48 48.074219 C 48.246094 48.058594 48.324219 48.046875 49 48.042969 Z M 49 48.042969 "/>
<path style=" stroke:none;fill-rule:nonzero;fill:url(#linear7);" d="M 48.984375 24.042969 C 47.910156 24.046875 47.09375 23.925781 45.953125 24.375 C 45.378906 24.597656 44.722656 25.121094 44.390625 25.761719 C 44.058594 26.394531 44 27.003906 44 27.574219 L 44 36.46875 C 44 37.035156 44.058594 37.644531 44.390625 38.28125 C 44.722656 38.917969 45.378906 39.4375 45.953125 39.667969 C 47.09375 40.113281 47.910156 39.996094 48.984375 40 L 55.015625 40 C 56.089844 39.996094 56.90625 40.113281 58.046875 39.667969 C 58.621094 39.4375 59.277344 38.917969 59.609375 38.28125 C 59.941406 37.644531 60 37.035156 60 36.46875 L 60 27.574219 C 60 27.003906 59.941406 26.394531 59.609375 25.761719 C 59.277344 25.121094 58.621094 24.597656 58.046875 24.375 C 56.90625 23.921875 56.089844 24.046875 55.015625 24.042969 Z M 49 28.042969 L 55 28.042969 C 55.675781 28.046875 55.761719 28.050781 56 28.074219 L 56 35.96875 C 55.753906 35.984375 55.675781 35.996094 55 36 L 49 36 C 48.324219 35.996094 48.246094 35.988281 48 35.96875 L 48 28.074219 C 48.246094 28.058594 48.324219 28.046875 49 28.042969 Z M 49 28.042969 "/>
<path style=" stroke:none;fill-rule:nonzero;fill:url(#linear8);" d="M 48.984375 4.042969 C 47.910156 4.046875 47.09375 3.925781 45.953125 4.375 C 45.378906 4.597656 44.722656 5.121094 44.390625 5.761719 C 44.058594 6.394531 44 7.003906 44 7.574219 L 44 16.46875 C 44 17.035156 44.058594 17.644531 44.390625 18.28125 C 44.722656 18.917969 45.378906 19.4375 45.953125 19.667969 C 47.09375 20.113281 47.910156 19.996094 48.984375 20 L 55.015625 20 C 56.089844 19.996094 56.90625 20.113281 58.046875 19.667969 C 58.621094 19.4375 59.277344 18.917969 59.609375 18.28125 C 59.941406 17.644531 60 17.035156 60 16.46875 L 60 7.574219 C 60 7.003906 59.941406 6.394531 59.609375 5.761719 C 59.277344 5.121094 58.621094 4.597656 58.046875 4.375 C 56.90625 3.921875 56.089844 4.046875 55.015625 4.042969 Z M 49 8.042969 L 55 8.042969 C 55.675781 8.046875 55.761719 8.050781 56 8.074219 L 56 15.96875 C 55.753906 15.984375 55.675781 15.996094 55 16 L 49 16 C 48.324219 15.996094 48.246094 15.988281 48 15.96875 L 48 8.074219 C 48.246094 8.058594 48.324219 8.046875 49 8.042969 Z M 49 8.042969 "/>
</g>
</svg>
