<svg xmlns="http://www.w3.org/2000/svg" xmlns:xlink="http://www.w3.org/1999/xlink" width="64px" height="64px" viewBox="0 0 64 64" version="1.1">
<defs>
<linearGradient id="linear0" gradientUnits="userSpaceOnUse" x1="0" y1="0" x2="0" y2="1" gradientTransform="matrix(64,0,0,44,0,12)">
<stop offset="0" style="stop-color:#d9f7d8;stop-opacity:1;"/>
<stop offset="1" style="stop-color:#1d5911;stop-opacity:1;"/>
</linearGradient>
<linearGradient id="linear1" gradientUnits="userSpaceOnUse" x1="0" y1="0" x2="0" y2="1" gradientTransform="matrix(48,0,0,20,8,24)">
<stop offset="0" style="stop-color:#d9f7d8;stop-opacity:1;"/>
<stop offset="1" style="stop-color:#1d5911;stop-opacity:1;"/>
</linearGradient>
</defs>
<g id="surface1">
<path style=" stroke:none;fill-rule:nonzero;fill:url(#linear0);" d="M 15.980469 12 C 10.941406 12.058594 7.261719 11.878906 4.25 13.542969 C 2.746094 14.371094 1.558594 15.777344 0.902344 17.53125 C 0.238281 19.285156 0 21.371094 0 24 L 0 44 C 0 46.628906 0.238281 48.714844 0.902344 50.46875 C 1.558594 52.222656 2.746094 53.628906 4.25 54.464844 C 7.261719 56.125 10.941406 55.941406 15.980469 56 L 48.027344 56 C 53.058594 55.941406 56.738281 56.125 59.75 54.464844 C 61.253906 53.628906 62.441406 52.222656 63.105469 50.46875 C 63.761719 48.714844 64 46.628906 64 44 L 64 24 C 64 21.371094 63.761719 19.285156 63.105469 17.53125 C 62.441406 15.777344 61.253906 14.371094 59.75 13.542969 C 56.738281 11.878906 53.058594 12.058594 48.027344 12 Z M 16 16 L 48 16 C 53.035156 16.058594 56.347656 16.238281 57.8125 17.046875 C 58.546875 17.453125 58.96875 17.894531 59.359375 18.9375 C 59.75 19.980469 60 21.628906 60 24 L 60 44 C 60 46.371094 59.75 48.019531 59.359375 49.0625 C 58.96875 50.105469 58.546875 50.546875 57.8125 50.953125 C 56.347656 51.761719 53.035156 51.941406 48 52 L 16 52 C 10.964844 51.941406 7.644531 51.761719 6.183594 50.953125 C 5.449219 50.546875 5.03125 50.105469 4.640625 49.0625 C 4.25 48.019531 4 46.371094 4 44 L 4 24 C 4 21.628906 4.25 19.980469 4.640625 18.9375 C 5.03125 17.894531 5.449219 17.453125 6.183594 17.046875 C 7.644531 16.238281 10.964844 16.058594 16 16 Z M 16 16 "/>
<path style=" stroke:none;fill-rule:nonzero;fill:url(#linear1);" d="M 18 24 C 23.5 24 28 28.5 28 34 C 28 36.261719 27.152344 38.324219 25.875 40 L 38.125 40 C 36.847656 38.324219 36 36.261719 36 34 C 36 28.5 40.5 24 46 24 C 51.5 24 56 28.5 56 34 C 56 39.5 51.5 44 46 44 L 18 44 C 12.5 44 8 39.5 8 34 C 8 28.5 12.5 24 18 24 Z M 18 28 C 14.660156 28 12 30.660156 12 34 C 12 37.339844 14.660156 40 18 40 C 21.339844 40 24 37.339844 24 34 C 24 30.660156 21.339844 28 18 28 Z M 46 28 C 42.660156 28 40 30.660156 40 34 C 40 37.339844 42.660156 40 46 40 C 49.339844 40 52 37.339844 52 34 C 52 30.660156 49.339844 28 46 28 Z M 46 28 "/>
</g>
</svg>
