<svg xmlns="http://www.w3.org/2000/svg" xmlns:xlink="http://www.w3.org/1999/xlink" width="64px" height="64px" viewBox="0 0 64 64" version="1.1">
<g id="surface1">
<path style=" stroke:none;fill-rule:nonzero;fill:rgb(36.078432%,62.7451%,83.92157%);fill-opacity:1;" d="M 58 32 C 58 46.359375 46.359375 57.996094 32 57.996094 C 17.640625 57.996094 6.003906 46.359375 6.003906 32 C 6.003906 17.640625 17.640625 6 32 6 C 46.359375 6 58 17.640625 58 32 Z M 58 32 "/>
<path style=" stroke:none;fill-rule:nonzero;fill:rgb(100%,100%,100%);fill-opacity:1;" d="M 32 16 C 23.164062 15.996094 16 23.160156 16 32 C 15.996094 40.835938 23.164062 48.003906 32 48 C 40.839844 48 48.003906 40.835938 48 32 C 48 23.164062 40.839844 16 32 16 Z M 33.425781 17.707031 C 34.984375 17.851562 36.488281 18.203125 37.859375 18.804688 C 37.742188 18.941406 37.652344 19.101562 37.597656 19.273438 C 37.179688 20.535156 36.550781 19.929688 37.289062 21.511719 C 38.027344 23.09375 38.644531 23.5 38.855469 22.765625 C 39.066406 22.027344 38.324219 20.988281 39.167969 21.410156 C 40.011719 21.832031 40.632812 21.292969 40 22.242188 C 39.367188 23.191406 39.382812 23.710938 38.644531 23.496094 C 37.90625 23.285156 37.921875 24.746094 37.183594 24.957031 C 36.445312 25.167969 36.191406 24.640625 36.191406 25.164062 C 36.191406 25.695312 36.613281 25.203125 36.507812 26.054688 C 36.472656 26.308594 36.480469 26.355469 36.449219 26.46875 C 35.757812 26.273438 35.453125 26.167969 34.9375 26.363281 C 34.414062 26.574219 33.789062 27.925781 33.789062 27.925781 C 34.449219 28.589844 34.757812 29.0625 34.992188 29.289062 C 34.84375 29.355469 34.667969 29.390625 34.523438 29.492188 C 33.46875 30.234375 32.648438 30.371094 32.332031 31.417969 C 32.015625 32.476562 32.121094 31.511719 32.121094 32.78125 C 32.121094 34.042969 31.800781 33.1875 32.4375 34.34375 C 33.066406 35.503906 34.617188 36.0625 35.359375 36.695312 C 36.09375 37.328125 36.855469 35.320312 38.332031 37.21875 C 39.808594 39.113281 39.902344 38.351562 39.375 39.410156 C 38.847656 40.460938 38.332031 40.808594 38.125 41.230469 C 37.914062 41.65625 38.53125 43.105469 39.269531 43.425781 L 39.324219 43.425781 C 39.285156 43.515625 39.257812 43.59375 39.21875 43.683594 C 38.261719 44.117188 37.09375 44.714844 36.875 44.78125 C 36.347656 44.933594 34.507812 45.242188 33.167969 45.613281 C 33 45.660156 32.867188 45.660156 32.800781 45.667969 C 32.964844 45.488281 34.289062 44.800781 34.941406 44.417969 C 35.835938 43.890625 34.886719 43.945312 34.886719 43.945312 C 34.886719 43.945312 33.464844 43.789062 30.558594 43.789062 C 29.101562 43.789062 28.476562 43.855469 28.15625 43.945312 C 28.042969 43.972656 27.9375 44.027344 27.84375 44.105469 C 27.769531 44.171875 27.710938 44.242188 27.578125 44.3125 C 27.0625 44.613281 27.890625 44.925781 27.21875 45.148438 C 26.714844 45.3125 26.65625 45.148438 26.226562 44.832031 C 26.53125 44.53125 26.957031 44.160156 27.476562 43.53125 C 28.425781 42.378906 28.726562 42.589844 29.042969 41.546875 C 29.359375 40.503906 26.386719 40.816406 26.386719 40.1875 C 26.386719 39.5625 25.871094 39.144531 24.921875 38.730469 C 23.972656 38.3125 24.621094 38.101562 23.566406 37.789062 C 22.511719 37.480469 21.324219 39.355469 21.007812 38.730469 C 20.691406 38.101562 22 38.101562 22 37.371094 C 22 36.664062 20.496094 37.910156 20.226562 37.007812 C 20.21875 36.972656 20.179688 36.972656 20.175781 36.953125 C 20.148438 36.820312 20.164062 36.746094 20.175781 36.640625 C 20.238281 35.890625 21.109375 35.597656 21.480469 34.863281 C 21.898438 34.03125 21.683594 35.496094 22.207031 36.222656 C 22.738281 36.957031 22.527344 35.285156 22.207031 34.347656 C 21.894531 33.402344 22.410156 33.402344 23.144531 32.15625 C 23.882812 30.902344 23.878906 30.171875 23.878906 29.230469 C 23.878906 28.292969 24.390625 28.1875 25.445312 27.25 C 25.929688 26.820312 26.304688 26.445312 26.59375 26.101562 C 26.660156 26.066406 26.730469 26.066406 26.800781 26.050781 C 27.917969 25.597656 28.386719 24.929688 29.355469 22.917969 C 30.324219 20.90625 28.976562 22.785156 28.679688 22.707031 C 28.382812 22.632812 27.949219 22.101562 26.902344 21.511719 C 26.726562 21.40625 26.535156 21.335938 26.332031 21.300781 L 28.261719 18.121094 C 28.878906 17.953125 29.546875 17.839844 30.1875 17.753906 C 30.429688 19.101562 30.296875 20.359375 30.296875 20.359375 C 30.296875 20.359375 29.929688 20.796875 29.929688 21.09375 C 29.929688 21.394531 31.925781 18.636719 32.226562 18.484375 C 32.527344 18.335938 33.28125 19.273438 33.425781 17.859375 C 33.433594 17.777344 33.417969 17.777344 33.425781 17.707031 Z M 36.074219 23.335938 C 36.007812 23.355469 35.945312 23.371094 35.878906 23.394531 C 35.878906 23.761719 35.734375 24.03125 35.667969 24.179688 C 35.628906 24.109375 35.515625 24.019531 35.515625 24.019531 C 35.355469 24.308594 35.015625 24.566406 35.359375 24.488281 C 35.699219 24.414062 35.964844 24.621094 35.726562 24.332031 C 35.679688 24.277344 35.699219 24.296875 35.667969 24.277344 C 35.714844 24.3125 35.800781 24.332031 35.984375 24.332031 L 36.449219 24.332031 C 36.195312 24.523438 35.921875 24.601562 36.300781 24.699219 C 36.796875 24.828125 37.027344 24.859375 37.027344 24.753906 C 36.992188 24.589844 36.9375 24.433594 36.871094 24.28125 C 36.96875 24.242188 37.058594 24.191406 36.972656 24.023438 C 36.816406 23.707031 36.566406 23.390625 36.246094 23.34375 C 36.1875 23.332031 36.128906 23.328125 36.074219 23.335938 Z M 44.226562 24.222656 C 44.488281 24.632812 44.738281 25.046875 44.957031 25.476562 C 44.8125 26.320312 44.445312 26.886719 45.058594 26.886719 C 45.234375 26.886719 45.390625 26.851562 45.527344 26.835938 C 45.550781 26.886719 45.566406 26.941406 45.582031 26.988281 C 44.527344 26.988281 44.019531 27.304688 43.496094 27.199219 C 42.964844 27.089844 41.503906 26.996094 42.453125 26.050781 C 43.007812 25.496094 43.699219 24.613281 44.230469 24.222656 Z M 37.652344 26.152344 L 37.652344 26.160156 C 37.75 26.191406 37.832031 26.289062 37.917969 26.46875 C 38.230469 27.207031 38.753906 27.820312 38.332031 27.925781 C 37.910156 28.035156 37.707031 28.140625 37.707031 28.140625 C 37.707031 28.140625 39.164062 29.085938 39.269531 28.035156 C 39.375 26.980469 38.855469 26.363281 38.855469 26.363281 C 38.855469 26.363281 39.578125 27.09375 39.792969 27.511719 C 40.003906 27.933594 39.996094 27.511719 40.519531 28.035156 C 41.050781 28.5625 40.933594 25.941406 41.671875 26.679688 C 42.40625 27.417969 42.871094 27.398438 42.660156 27.925781 C 42.449219 28.457031 44.015625 27.292969 44.015625 28.347656 C 44.015625 29.363281 44.667969 29.777344 43.394531 30.273438 C 42.910156 30.246094 42.523438 30.160156 42.449219 30.019531 C 42.242188 29.59375 41.042969 29.914062 41.042969 29.914062 C 37.890625 29.125 36.523438 28.875 35.617188 29.027344 C 35.632812 28.992188 35.648438 28.992188 35.667969 28.972656 C 36.128906 28.144531 37 26.988281 36.710938 26.574219 C 37.117188 26.34375 37.429688 26.085938 37.65625 26.160156 Z M 46.523438 31.425781 C 46.53125 31.640625 46.523438 31.84375 46.523438 32.054688 C 46.523438 32.648438 46.484375 33.25 46.421875 33.824219 C 45.472656 32.980469 44.125 32.992188 44.125 32.992188 C 44.125 32.992188 44.941406 32.058594 46.105469 31.636719 C 46.25 31.582031 46.390625 31.515625 46.519531 31.425781 Z M 46.523438 31.425781 "/>
</g>
</svg>
