<svg xmlns="http://www.w3.org/2000/svg" xmlns:xlink="http://www.w3.org/1999/xlink" width="64px" height="64px" viewBox="0 0 64 64" version="1.1">
<defs>
<linearGradient id="linear0" gradientUnits="userSpaceOnUse" x1="0" y1="0" x2="0" y2="1" gradientTransform="matrix(51.197917,0,0,64,6.401041,0)">
<stop offset="0" style="stop-color:#cff3fe;stop-opacity:1;"/>
<stop offset="1" style="stop-color:#054cff;stop-opacity:1;"/>
</linearGradient>
</defs>
<g id="surface1">
<path style=" stroke:none;fill-rule:nonzero;fill:url(#linear0);" d="M 12.800781 0 C 9.269531 0 6.402344 2.871094 6.402344 6.402344 L 6.402344 57.597656 C 6.402344 61.128906 9.269531 64 12.800781 64 L 51.199219 64 C 54.730469 64 57.597656 61.128906 57.597656 57.597656 L 57.597656 35.199219 L 54.402344 35.199219 C 52.472656 35.199219 51.199219 33.925781 51.199219 32 C 51.199219 30.074219 52.472656 28.800781 54.402344 28.800781 L 57.597656 28.800781 L 57.597656 6.402344 C 57.597656 2.871094 54.730469 0 51.199219 0 Z M 14.402344 6.402344 L 43.199219 6.402344 C 44.160156 6.402344 44.800781 7.042969 44.800781 8 L 44.800781 56 C 44.800781 56.957031 44.160156 57.597656 43.199219 57.597656 L 14.402344 57.597656 C 13.4375 57.597656 12.800781 56.957031 12.800781 56 L 12.800781 8 C 12.800781 7.042969 13.4375 6.402344 14.402344 6.402344 Z M 19.199219 12.800781 L 19.199219 22.402344 L 38.402344 22.402344 L 38.402344 12.800781 Z M 19.199219 25.597656 L 19.199219 38.402344 L 38.402344 38.402344 L 38.402344 25.597656 Z M 19.199219 41.597656 L 19.199219 51.199219 L 38.402344 51.199219 L 38.402344 41.597656 Z M 19.199219 41.597656 "/>
</g>
</svg>
