<svg xmlns="http://www.w3.org/2000/svg" xmlns:xlink="http://www.w3.org/1999/xlink" width="64px" height="64px" viewBox="0 0 64 64" version="1.1">
<defs>
<linearGradient id="linear0" gradientUnits="userSpaceOnUse" x1="0" y1="0" x2="0" y2="1" gradientTransform="matrix(64,0,0,45.614583,0,9.192708)">
<stop offset="0" style="stop-color:#58d2f0;stop-opacity:1;"/>
<stop offset="1" style="stop-color:#1b788f;stop-opacity:1;"/>
</linearGradient>
</defs>
<g id="surface1">
<path style=" stroke:none;fill-rule:evenodd;fill:url(#linear0);" d="M 32 34.425781 C 26.816406 34.425781 21.921875 36.714844 18.578125 40.699219 C 17.542969 41.933594 17.699219 43.777344 18.9375 44.8125 C 19.484375 45.269531 20.152344 45.5 20.816406 45.5 C 21.644531 45.5 22.472656 45.144531 23.058594 44.457031 C 25.285156 41.796875 28.546875 40.269531 32 40.269531 C 35.453125 40.269531 38.714844 41.796875 40.941406 44.457031 C 41.527344 45.144531 42.355469 45.5 43.183594 45.5 C 43.847656 45.5 44.515625 45.277344 45.0625 44.8125 C 46.300781 43.777344 46.457031 41.933594 45.421875 40.699219 C 42.078125 36.714844 37.183594 34.425781 32 34.425781 Z M 32 21.574219 C 23.371094 21.574219 15.214844 25.378906 9.628906 32.027344 C 8.59375 33.253906 8.75 35.097656 9.988281 36.140625 C 10.535156 36.59375 11.203125 36.824219 11.871094 36.824219 C 12.703125 36.824219 13.53125 36.46875 14.109375 35.78125 C 18.578125 30.464844 25.09375 27.417969 32 27.417969 C 38.902344 27.417969 45.421875 30.464844 49.890625 35.78125 C 50.472656 36.472656 51.300781 36.824219 52.128906 36.824219 C 52.796875 36.824219 53.464844 36.597656 54.011719 36.140625 C 55.25 35.097656 55.40625 33.253906 54.371094 32.027344 C 48.785156 25.378906 40.628906 21.574219 32 21.574219 Z M 63.316406 23.828125 C 55.5 14.527344 44.082031 9.191406 32 9.191406 C 19.917969 9.191406 8.503906 14.527344 0.683594 23.828125 C -0.355469 25.0625 -0.191406 26.90625 1.042969 27.941406 C 1.59375 28.40625 2.253906 28.628906 2.921875 28.628906 C 3.75 28.628906 4.578125 28.277344 5.160156 27.589844 C 11.859375 19.613281 21.644531 15.042969 32 15.042969 C 42.355469 15.042969 52.136719 19.613281 58.839844 27.582031 C 59.421875 28.269531 60.25 28.628906 61.078125 28.628906 C 61.746094 28.628906 62.410156 28.40625 62.957031 27.9375 C 64.191406 26.90625 64.355469 25.0625 63.316406 23.828125 Z M 27.1875 49.988281 C 27.1875 52.644531 29.34375 54.808594 32 54.808594 C 34.65625 54.808594 36.8125 52.644531 36.8125 49.988281 C 36 43.160156 27.339844 44.90625 27.1875 49.988281 Z M 27.1875 49.988281 "/>
</g>
</svg>
