<svg xmlns="http://www.w3.org/2000/svg" xmlns:xlink="http://www.w3.org/1999/xlink" width="64px" height="64px" viewBox="0 0 64 64" version="1.1">
<defs>
<filter id="alpha" filterUnits="objectBoundingBox" x="0%" y="0%" width="100%" height="100%">
  <feColorMatrix type="matrix" in="SourceGraphic" values="0 0 0 0 1 0 0 0 0 1 0 0 0 0 1 0 0 0 1 0"/>
</filter>
<mask id="mask0">
  <g filter="url(#alpha)">
<rect x="0" y="0" width="64" height="64" style="fill:rgb(0%,0%,0%);fill-opacity:0.1;stroke:none;"/>
  </g>
</mask>
<clipPath id="clip1">
  <rect x="0" y="0" width="64" height="64"/>
</clipPath>
<g id="surface5" clip-path="url(#clip1)">
<path style=" stroke:none;fill-rule:nonzero;fill:rgb(0%,0%,0%);fill-opacity:1;" d="M 32 6 C 28.566406 6.007812 25.167969 6.695312 22 8.023438 L 22 14 L 13.28125 14 C 12.667969 14.636719 12.085938 15.304688 11.542969 16 L 13 16 L 13 22 L 8.007812 22 C 7.738281 22.65625 7.492188 23.324219 7.277344 24 L 22 24 L 22 31 L 6.050781 31 C 6.027344 31.332031 6.011719 31.667969 6 32 C 6.003906 32.332031 6.015625 32.667969 6.035156 33 L 13 33 L 13 40 L 7.296875 40 C 7.511719 40.675781 7.753906 41.34375 8.023438 42 L 22 42 L 22 48 L 11.519531 48 C 12.558594 49.328125 13.722656 50.550781 15 51.652344 L 15 50 L 31 50 L 31 56 L 22.019531 56 C 25.183594 57.316406 28.574219 57.996094 32 58 C 35.414062 57.992188 38.789062 57.3125 41.941406 56 L 33 56 L 33 50 L 49 50 L 49 51.628906 C 50.265625 50.535156 51.425781 49.320312 52.457031 48 L 42 48 L 42 42 L 55.992188 42 C 56.261719 41.34375 56.507812 40.675781 56.722656 40 L 51 40 L 51 33 L 57.949219 33 C 57.972656 32.667969 57.988281 32.332031 58 32 C 57.996094 31.667969 57.984375 31.332031 57.964844 31 L 42 31 L 42 24 L 56.703125 24 C 56.488281 23.324219 56.246094 22.65625 55.976562 22 L 51 22 L 51 16 L 52.480469 16 C 51.941406 15.304688 51.363281 14.636719 50.753906 14 L 42 14 L 42 8.007812 C 38.832031 6.683594 35.433594 6.003906 32 6 Z M 24 8 L 40 8 L 40 14 L 24 14 Z M 15 16 L 31 16 L 31 22 L 15 22 Z M 33 16 L 49 16 L 49 22 L 33 22 Z M 24 24 L 40 24 L 40 31 L 24 31 Z M 15 33 L 31 33 L 31 40 L 15 40 Z M 33 33 L 49 33 L 49 40 L 33 40 Z M 24 42 L 40 42 L 40 48 L 24 48 Z M 24 42 "/>
</g>
</defs>
<g id="surface1">
<path style=" stroke:none;fill-rule:nonzero;fill:rgb(72.941178%,23.529412%,21.568628%);fill-opacity:1;" d="M 58 32 C 58 46.359375 46.359375 58 32 58 C 17.640625 58 6 46.359375 6 32 C 6 17.640625 17.640625 6 32 6 C 46.359375 6 58 17.640625 58 32 Z M 58 32 "/>
<use xlink:href="#surface5" mask="url(#mask0)"/>
<path style=" stroke:none;fill-rule:nonzero;fill:rgb(100%,82.745099%,24.705882%);fill-opacity:1;" d="M 29.617188 16.945312 C 29.492188 22.167969 27.84375 26.742188 24.667969 30.671875 C 24.542969 29.125 24.0625 27.578125 23.226562 26.03125 C 23.144531 27.203125 22.671875 28.757812 21.816406 30.703125 C 20.960938 32.644531 20.429688 34.050781 20.21875 34.929688 C 19.761719 37.140625 20.019531 39.085938 21.003906 40.753906 C 21.984375 42.425781 23.914062 44.074219 26.796875 45.703125 C 31.15625 47.402344 32.839844 47.484375 36.449219 45.703125 C 38.496094 44.535156 40.125 43.25 41.335938 41.851562 C 42.546875 40.449219 43.316406 39.09375 43.652344 37.777344 C 43.984375 36.464844 44.078125 35.105469 43.933594 33.707031 C 43.785156 32.304688 43.453125 31.042969 42.933594 29.914062 C 42.421875 28.804688 41.824219 27.738281 41.144531 26.71875 C 40.476562 25.71875 39.875 24.925781 39.332031 24.339844 C 38.789062 23.753906 38.347656 23.339844 38.015625 23.085938 C 38.308594 23.882812 38.410156 24.738281 38.328125 25.65625 C 38.242188 26.574219 38.035156 27.410156 37.703125 28.164062 C 37.578125 26.910156 37.210938 25.65625 36.601562 24.402344 C 35.996094 23.148438 35.351562 22.113281 34.660156 21.300781 C 33.9375 20.449219 33.140625 19.664062 32.28125 18.953125 C 31.382812 18.199219 30.765625 17.710938 30.433594 17.480469 C 30.164062 17.296875 29.894531 17.117188 29.617188 16.945312 Z M 29.617188 16.945312 "/>
<path style=" stroke:none;fill-rule:nonzero;fill:rgb(100%,95.294118%,79.607844%);fill-opacity:1;" d="M 36.449219 45.703125 C 37.824219 42.949219 38.097656 39.972656 37.261719 36.777344 C 36.425781 33.582031 34.777344 31.128906 32.3125 29.414062 C 32.523438 30.335938 32.40625 31.847656 31.96875 33.957031 C 31.527344 36.066406 30.828125 37.664062 29.867188 38.75 C 30.035156 37.414062 30.078125 36.328125 29.992188 35.492188 C 29.910156 34.65625 29.785156 34.03125 29.617188 33.613281 L 29.304688 33.050781 C 29.054688 34.554688 28.40625 36.054688 27.363281 37.558594 C 26.820312 38.355469 26.414062 39.085938 26.140625 39.753906 C 25.871094 40.421875 25.765625 41.277344 25.828125 42.320312 C 25.890625 43.367188 26.214844 44.492188 26.796875 45.703125 C 26.796875 45.703125 28.449219 47.054688 30.289062 47.054688 C 34.753906 47.054688 34.957031 46.558594 36.449219 45.703125 Z M 36.449219 45.703125 "/>
</g>
</svg>
