<svg xmlns="http://www.w3.org/2000/svg" xmlns:xlink="http://www.w3.org/1999/xlink" width="64px" height="64px" viewBox="0 0 64 64" version="1.1">
<defs>
<linearGradient id="linear0" gradientUnits="userSpaceOnUse" x1="0" y1="0" x2="0" y2="1" gradientTransform="matrix(51.197917,0,0,64,6.401041,0)">
<stop offset="0" style="stop-color:#f8c3c3;stop-opacity:1;"/>
<stop offset="1" style="stop-color:#c60606;stop-opacity:1;"/>
</linearGradient>
</defs>
<g id="surface1">
<path style=" stroke:none;fill-rule:evenodd;fill:url(#linear0);" d="M 14.933594 53.332031 C 14.933594 51.566406 16.371094 50.128906 18.128906 50.128906 C 19.902344 50.128906 21.332031 51.566406 21.332031 53.332031 C 21.332031 55.097656 19.902344 56.53125 18.128906 56.53125 C 16.371094 56.53125 14.933594 55.097656 14.933594 53.332031 Z M 27.734375 55.46875 C 27.734375 53.113281 29.644531 51.199219 32 51.199219 C 34.355469 51.199219 36.265625 53.113281 36.265625 55.46875 C 36.265625 57.816406 34.355469 59.734375 32 59.734375 C 29.644531 59.734375 27.734375 57.816406 27.734375 55.46875 Z M 41.597656 53.332031 C 41.597656 51.566406 43.03125 50.128906 44.800781 50.128906 C 46.566406 50.128906 48 51.566406 48 53.332031 C 48 55.097656 46.566406 56.53125 44.800781 56.53125 C 43.03125 56.53125 41.597656 55.097656 41.597656 53.332031 Z M 6.402344 25.363281 L 6.402344 5.386719 C 6.402344 2.410156 8.8125 0 11.785156 0 L 52.214844 0 C 55.1875 0 57.597656 2.410156 57.597656 5.386719 L 57.597656 51.4375 C 57.597656 58.371094 51.972656 64 45.035156 64 L 18.964844 64 C 12.027344 64 6.402344 58.371094 6.402344 51.4375 Z M 14.402344 6.402344 L 49.597656 6.402344 C 50.484375 6.402344 51.199219 7.113281 51.199219 8 L 51.199219 45.332031 C 51.199219 46.214844 50.484375 46.933594 49.597656 46.933594 L 14.402344 46.933594 C 13.515625 46.933594 12.800781 46.214844 12.800781 45.332031 L 12.800781 8 C 12.800781 7.113281 13.515625 6.402344 14.402344 6.402344 Z M 14.402344 6.402344 "/>
</g>
</svg>
