<svg xmlns="http://www.w3.org/2000/svg" xmlns:xlink="http://www.w3.org/1999/xlink" width="64px" height="64px" viewBox="0 0 64 64" version="1.1">
<defs>
<linearGradient id="linear0" gradientUnits="userSpaceOnUse" x1="0" y1="0" x2="0" y2="1" gradientTransform="matrix(63.895833,0,0,64,0.0520833,0)">
<stop offset="0" style="stop-color:#e3cfff;stop-opacity:1;"/>
<stop offset="1" style="stop-color:#7d05ff;stop-opacity:1;"/>
</linearGradient>
</defs>
<g id="surface1">
<path style=" stroke:none;fill-rule:nonzero;fill:url(#linear0);" d="M 47.300781 0 C 46.59375 0.0273438 46.046875 0.613281 46.0625 1.316406 C 46.078125 2.011719 46.644531 2.5625 47.339844 2.558594 L 47.375 2.558594 C 47.542969 2.535156 52.027344 2.535156 56.640625 7.265625 C 61.28125 12.027344 61.390625 16.566406 61.390625 16.613281 C 61.390625 17.316406 61.964844 17.886719 62.667969 17.886719 C 63.375 17.886719 63.949219 17.316406 63.949219 16.613281 C 63.949219 16.386719 63.886719 11.0625 58.472656 5.511719 C 53.03125 -0.0664062 47.546875 -0.0117188 47.300781 0 Z M 47.339844 7.667969 C 46.640625 7.667969 46.074219 8.25 46.0625 8.941406 C 46.050781 9.644531 46.640625 10.207031 47.339844 10.222656 C 47.421875 10.222656 49.421875 10.308594 51.527344 12.421875 C 53.640625 14.527344 53.730469 16.542969 53.730469 16.613281 C 53.730469 17.316406 54.300781 17.886719 55.003906 17.886719 C 55.707031 17.886719 56.28125 17.316406 56.28125 16.613281 C 56.28125 16.484375 56.261719 13.472656 53.371094 10.578125 C 50.472656 7.6875 47.464844 7.667969 47.339844 7.667969 Z M 36.761719 7.707031 C 35.328125 7.699219 33.941406 8.222656 32.886719 9.183594 L 1.582031 40.605469 C -0.449219 42.640625 -0.464844 45.972656 1.582031 48.1875 L 15.921875 62.484375 C 16.90625 63.464844 18.238281 64.011719 19.628906 64 C 21.058594 63.996094 22.421875 63.457031 23.464844 62.484375 L 54.800781 31.097656 C 56.753906 28.816406 56.753906 25.511719 54.765625 23.515625 L 40.433594 9.183594 C 39.457031 8.207031 38.128906 7.714844 36.761719 7.707031 Z M 35.839844 19.160156 C 40.78125 19.160156 44.785156 23.167969 44.785156 28.109375 C 44.785156 33.046875 40.78125 37.050781 35.839844 37.050781 C 30.902344 37.050781 26.894531 33.046875 26.894531 28.109375 C 26.894531 23.167969 30.902344 19.160156 35.839844 19.160156 Z M 35.839844 25.550781 C 34.425781 25.550781 33.285156 26.699219 33.285156 28.109375 C 33.285156 29.519531 34.425781 30.660156 35.839844 30.660156 C 37.25 30.660156 38.394531 29.519531 38.394531 28.109375 C 38.394531 26.699219 37.25 25.550781 35.839844 25.550781 Z M 19.234375 34.496094 C 20.644531 34.496094 21.785156 35.640625 21.785156 37.050781 C 21.785156 38.464844 20.644531 39.609375 19.234375 39.609375 C 17.816406 39.609375 16.675781 38.464844 16.675781 37.050781 C 16.675781 35.640625 17.816406 34.496094 19.234375 34.496094 Z M 12.84375 40.886719 C 14.253906 40.886719 15.402344 42.027344 15.402344 43.4375 C 15.402344 44.855469 14.253906 45.996094 12.84375 45.996094 C 11.433594 45.996094 10.285156 44.855469 10.285156 43.4375 C 10.285156 42.027344 11.433594 40.886719 12.84375 40.886719 Z M 26.894531 42.160156 C 28.308594 42.160156 29.453125 43.308594 29.453125 44.714844 C 29.453125 46.128906 28.308594 47.269531 26.894531 47.269531 C 25.484375 47.269531 24.339844 46.128906 24.339844 44.714844 C 24.339844 43.308594 25.484375 42.160156 26.894531 42.160156 Z M 20.511719 48.546875 C 21.921875 48.546875 23.0625 49.691406 23.0625 51.105469 C 23.0625 52.515625 21.921875 53.660156 20.511719 53.660156 C 19.09375 53.660156 17.953125 52.515625 17.953125 51.105469 C 17.953125 49.691406 19.09375 48.546875 20.511719 48.546875 Z M 20.511719 48.546875 "/>
</g>
</svg>
