<?xml version="1.0" encoding="UTF-8" standalone="no"?>
<svg
   viewBox="0 0 22 22"
   width="22"
   height="22"
   version="1.1"
   id="svg2"
   sodipodi:docname="disk-quota-low.svg"
   inkscape:version="1.3.2 (091e20ef0f, 2023-11-25)"
   xmlns:inkscape="http://www.inkscape.org/namespaces/inkscape"
   xmlns:sodipodi="http://sodipodi.sourceforge.net/DTD/sodipodi-0.dtd"
   xmlns="http://www.w3.org/2000/svg"
   xmlns:svg="http://www.w3.org/2000/svg">
  <sodipodi:namedview
     id="namedview2"
     pagecolor="#ffffff"
     bordercolor="#999999"
     borderopacity="1"
     inkscape:showpageshadow="2"
     inkscape:pageopacity="0"
     inkscape:pagecheckerboard="0"
     inkscape:deskcolor="#d1d1d1"
     inkscape:zoom="8"
     inkscape:cx="10.75"
     inkscape:cy="11.5"
     inkscape:window-width="1920"
     inkscape:window-height="994"
     inkscape:window-x="0"
     inkscape:window-y="0"
     inkscape:window-maximized="1"
     inkscape:current-layer="svg2" />
  <defs
     id="defs1">
    <style
       type="text/css"
       id="current-color-scheme">.ColorScheme-Text{color:#232629;}.ColorScheme-NeutralText { color: #f67400; } </style>
  </defs>
  <g
     id="22-22-disk-quota-low"
     transform="translate(96)">
    <rect
       style="opacity:0.00100002"
       width="22"
       height="22"
       x="-96"
       y="0"
       id="rect11" />
    <path
       d="m -77.010443,16.085681 0.0067,-8.67e-4 -1.527287,-11.6449457 -0.002,-0.01284 a 1.6979464,1.6979464 0 0 0 -0.574593,-1.021901 1.698,1.698 0 0 0 -1.1002,-0.405125 h -9.137854 a 1.6979107,1.6979107 0 0 0 -1.100179,0.405125 1.6979821,1.6979821 0 0 0 -0.57436,1.019696 l -1.92332,11.3475717 c -0.0135,0.06475 -0.0246,0.130357 -0.0333,0.196714 l -0.0168,0.09914 0.005,9.33e-4 a 2.7074464,2.7074464 0 0 0 -0.01136,0.252249 c 0,1.479339 1.19923,2.678571 2.67857,2.678571 h 10.642856 c 1.47934,0 2.678574,-1.199232 2.678574,-2.678571 0,-0.07946 -0.0033,-0.158054 -0.01047,-0.23575 z m -13.129253,-11.5131607 6.1e-4,-0.0037 c 0.063,-0.391679 0.396656,-0.675946 0.793376,-0.675946 h 9.137854 c 0.394766,0 0.727106,0.281517 0.792433,0.670214 l 1.25248,9.5497497 c -0.43102,-0.296356 -0.95302,-0.469946 -1.515627,-0.469946 h -10.642856 c -0.5238,0 -1.01241,0.1505 -1.42518,0.410411 z M -79.67857,18.107145 h -10.642856 c -0.98464,0 -1.78572,-0.801072 -1.78572,-1.785714 0,-0.07554 0.005,-0.149982 0.0139,-0.223072 l 0.0255,-0.15025 c 0.17213,-0.806036 0.8897,-1.412393 1.74634,-1.412393 h 10.642863 c 0.98464,0 1.785713,0.801072 1.785713,1.785715 0,0.984642 -0.801073,1.785714 -1.785713,1.785714 z"
       id="path1-6-3"
       style="overflow:hidden;fill:#d3dae3;fill-opacity:1;stroke-width:0.0178571" />
    <path
       d="m -79.999996,16.333335 m -1,0 a 1,1 0 1 0 2,0 1,1 0 1 0 -2,0 z"
       id="path2-1-2"
       style="overflow:hidden;fill:#00aad4;fill-opacity:1;stroke-width:0.04" />
    <path
       id="path9-8-0-0"
       d="m -84.896483,6.2054833 a 3.3332552,2.6666041 0 0 0 -3.268993,2.666602 3.3332552,2.6666041 0 0 0 3.33326,2.6666077 3.3332552,2.6666041 0 0 0 3.333253,-2.6666077 h -1.111087 a 2.2221705,1.7777365 0 0 1 -2.222166,1.7777427 2.2221705,1.7777365 0 0 1 -2.222174,-1.7777427 2.2221705,1.7777365 0 0 1 2.208307,-1.777733 2.2221705,1.7777365 0 0 1 0.01387,0 v -0.888869 a 3.3332552,2.6666041 0 0 0 -0.06427,0 z"
       style="color:#363636;fill:#00aad4;fill-opacity:1;stroke-width:0.888867" />
    <ellipse
       id="ellipse13-6-6"
       ry="0.88886839"
       rx="1.1110853"
       cy="8.8720989"
       cx="-84.825394"
       style="color:#363636;fill:#d3dae3;fill-opacity:1;stroke-width:0.888867" />
  </g>
</svg>
