<?xml version="1.0" encoding="UTF-8" standalone="no"?>
<!-- Generator: Gravit.io -->

<svg
   style="isolation:isolate"
   viewBox="0 0 48 48"
   width="48pt"
   height="48pt"
   version="1.1"
   id="svg3"
   sodipodi:docname="folder-videos.svg"
   inkscape:version="1.3.2 (091e20ef0f, 2023-11-25)"
   xmlns:inkscape="http://www.inkscape.org/namespaces/inkscape"
   xmlns:sodipodi="http://sodipodi.sourceforge.net/DTD/sodipodi-0.dtd"
   xmlns:xlink="http://www.w3.org/1999/xlink"
   xmlns="http://www.w3.org/2000/svg"
   xmlns:svg="http://www.w3.org/2000/svg">
  <defs
     id="defs3">
    <linearGradient
       id="linearGradient2"
       inkscape:collect="always">
      <stop
         style="stop-color:#94e2d5;stop-opacity:1;"
         offset="0"
         id="stop3" />
      <stop
         style="stop-color:#89b4fa;stop-opacity:1;"
         offset="1"
         id="stop4" />
    </linearGradient>
    <linearGradient
       inkscape:collect="always"
       xlink:href="#linearGradient2"
       id="linearGradient4"
       x1="1.512"
       y1="14.561551"
       x2="46.229"
       y2="46.208"
       gradientUnits="userSpaceOnUse" />
  </defs>
  <sodipodi:namedview
     id="namedview3"
     pagecolor="#ffffff"
     bordercolor="#666666"
     borderopacity="1.0"
     inkscape:showpageshadow="2"
     inkscape:pageopacity="0.0"
     inkscape:pagecheckerboard="0"
     inkscape:deskcolor="#d1d1d1"
     inkscape:document-units="pt"
     showguides="true"
     inkscape:current-layer="svg3">
    <sodipodi:guide
       position="1.229,19.5"
       orientation="1,0"
       id="guide3"
       inkscape:locked="false" />
    <sodipodi:guide
       position="19.394929,1.792"
       orientation="0,-1"
       id="guide4"
       inkscape:locked="false" />
    <inkscape:page
       x="0"
       y="0"
       width="48"
       height="48"
       id="page2"
       margin="0"
       bleed="0" />
  </sodipodi:namedview>
  <path
     id="path4"
     d="m 13.618648,11.217278 -7.3901363,0.01025 c -1.3399986,0 -2.5599618,0.528884 -3.4599609,1.379883 C 2.0425515,13.248414 1.229,14.566986 1.229,16.166985 V 41.267082 C 1.229,43.99708 3.4685145,46.208 6.2285117,46.208 H 41.229488 c 2.759998,0 4.999512,-2.21092 4.999512,-4.940918 V 21.066887 c 0,-2.729997 -2.239514,-4.939453 -4.999512,-4.939453 l -15.228515,0.0088 C 22.578568,16.008222 19.95015,14.271918 17.248531,12.36718 16.349532,11.735181 14.728647,11.217278 13.618648,11.217278 Z"
     style="isolation:isolate;fill:url(#linearGradient4);fill-opacity:1" />
  <path
     d="m 6.229,11.227551 c -1.34,0 -2.56,0.529 -3.46,1.38 -0.6998917,2.126911 0.202267,3.266682 2.23,3.54 h 21.3 c -3.57,-0.0342 -6.27,-1.82 -9.05,-3.78 -0.899,-0.632 -2.52,-1.15 -3.63,-1.15 z m -4.13,2.17 c -0.00833,0.0121 -0.0167,0.024 -0.0249,0.0362 0.00815,-0.0122 0.0167,-0.0241 0.0249,-0.0362 z m -0.202,0.324 c -0.0434,0.0748 -0.085,0.15 -0.124,0.227 0.0396,-0.0785 0.0822,-0.153 0.124,-0.227 z m -0.193,0.371 c -0.0543,0.115 -0.104,0.232 -0.149,0.352 0.0458,-0.121 0.0965,-0.238 0.149,-0.352 z m -0.192,0.469 c -0.0446,0.127 -0.0831,0.258 -0.117,0.389 0.0348,-0.133 0.0731,-0.263 0.117,-0.389 z m -0.148,0.504 c -0.03,0.129 -0.0522,0.261 -0.0718,0.394 0.02,-0.133 0.0418,-0.266 0.0718,-0.394 z m -0.0981,0.563 c -0.02,0.179 -0.0322,0.361 -0.0322,0.546 -3.73e-4,-0.186 0.012,-0.368 0.0322,-0.546 z"
     fill="#37a29c"
     id="path2-0"
     sodipodi:nodetypes="ccccccccccccccccccccccccc"
     style="isolation:isolate;fill:#000000;fill-opacity:0.2" />
  <path
     d="m 30.671,40.724 c 0.192,0 0.377,0.067 0.514,0.188 0.134,0.118 0.21,0.281 0.21,0.45 0,0.169 -0.076,0.332 -0.21,0.45 C 31.048,41.933 30.863,42 30.671,42 H 27.377 C 26.065,42 25,40.935 25,39.623 V 29.388 c 0,-1.312 1.065,-2.377 2.377,-2.377 h 12.246 c 1.312,0 2.377,1.065 2.377,2.377 V 39.623 C 42,40.935 40.935,42 39.623,42 h -3.294 c -0.192,0 -0.377,-0.067 -0.514,-0.188 -0.134,-0.118 -0.21,-0.281 -0.21,-0.45 0,-0.169 0.076,-0.332 0.21,-0.45 0.137,-0.121 0.322,-0.188 0.514,-0.188 h 2.526 c 0.937,0 1.698,-0.761 1.698,-1.698 v -9.041 c 0,-0.938 -0.761,-1.699 -1.698,-1.699 h -10.71 c -0.937,0 -1.698,0.761 -1.698,1.699 v 9.041 c 0,0.937 0.761,1.698 1.698,1.698 z m 3.491,-5.363 -0.692,0.366 c -0.891,0.472 -1.615,0.036 -1.615,-0.973 v -0.497 c 0,-1.009 0.724,-1.445 1.615,-0.973 l 0.692,0.366 c 0.892,0.472 0.892,1.239 0,1.711 z m 2.476,0.342 -4.63,2.451 c -0.892,0.472 -1.616,0.036 -1.616,-0.972 v -5.353 c 0,-1.009 0.724,-1.444 1.616,-0.972 l 4.63,2.451 c 1.248,0.661 1.248,1.734 0,2.395 z"
     fill-rule="evenodd"
     fill="#ffffff"
     id="path3" />
</svg>
