<?xml version="1.0" encoding="UTF-8" standalone="no"?>
<!-- Generator: Gravit.io -->

<svg
   style="isolation:isolate"
   viewBox="0 0 48 48"
   width="48pt"
   height="48pt"
   version="1.1"
   id="svg3"
   sodipodi:docname="folder-documents.svg"
   inkscape:version="1.3.2 (091e20ef0f, 2023-11-25)"
   xmlns:inkscape="http://www.inkscape.org/namespaces/inkscape"
   xmlns:sodipodi="http://sodipodi.sourceforge.net/DTD/sodipodi-0.dtd"
   xmlns:xlink="http://www.w3.org/1999/xlink"
   xmlns="http://www.w3.org/2000/svg"
   xmlns:svg="http://www.w3.org/2000/svg">
  <defs
     id="defs3">
    <linearGradient
       id="linearGradient10"
       inkscape:collect="always">
      <stop
         style="stop-color:#fab387;stop-opacity:0.99607843;"
         offset="0"
         id="stop11" />
      <stop
         style="stop-color:#cba6f7;stop-opacity:0.99607843;"
         offset="1"
         id="stop12" />
    </linearGradient>
    <linearGradient
       inkscape:collect="always"
       xlink:href="#linearGradient10"
       id="linearGradient12"
       x1="1.2659"
       y1="15.628551"
       x2="46.229"
       y2="46.208"
       gradientUnits="userSpaceOnUse" />
  </defs>
  <sodipodi:namedview
     id="namedview3"
     pagecolor="#ffffff"
     bordercolor="#666666"
     borderopacity="1.0"
     inkscape:showpageshadow="2"
     inkscape:pageopacity="0.0"
     inkscape:pagecheckerboard="0"
     inkscape:deskcolor="#d1d1d1"
     inkscape:document-units="pt"
     showguides="true"
     inkscape:current-layer="svg3">
    <sodipodi:guide
       position="1.229,19.5"
       orientation="1,0"
       id="guide3"
       inkscape:locked="false" />
    <sodipodi:guide
       position="14.267281,1.792"
       orientation="0,-1"
       id="guide4"
       inkscape:locked="false" />
    <inkscape:page
       x="0"
       y="0"
       width="48"
       height="48"
       id="page2"
       margin="0"
       bleed="0" />
  </sodipodi:namedview>
  <path
     id="path4"
     d="m 13.618648,11.217278 -7.3901363,0.01025 c -1.3399986,0 -2.5599618,0.528884 -3.4599609,1.379883 C 2.0425515,13.248414 1.229,14.566986 1.229,16.166985 V 41.267082 C 1.229,43.99708 3.4685145,46.208 6.2285117,46.208 H 41.229488 c 2.759998,0 4.999512,-2.21092 4.999512,-4.940918 V 21.066887 c 0,-2.729997 -2.239514,-4.939453 -4.999512,-4.939453 l -15.228515,0.0088 C 22.578568,16.008222 19.95015,14.271918 17.248531,12.36718 16.349532,11.735181 14.728647,11.217278 13.618648,11.217278 Z"
     style="isolation:isolate;fill:url(#linearGradient12);fill-opacity:1" />
  <path
     d="m 6.229,11.227551 c -1.34,0 -2.56,0.529 -3.46,1.38 -0.6998917,2.126911 0.202267,3.266682 2.23,3.54 h 21.3 c -3.57,-0.0342 -6.27,-1.82 -9.05,-3.78 -0.899,-0.632 -2.52,-1.15 -3.63,-1.15 z m -4.13,2.17 c -0.00833,0.0121 -0.0167,0.024 -0.0249,0.0362 0.00815,-0.0122 0.0167,-0.0241 0.0249,-0.0362 z m -0.202,0.324 c -0.0434,0.0748 -0.085,0.15 -0.124,0.227 0.0396,-0.0785 0.0822,-0.153 0.124,-0.227 z m -0.193,0.371 c -0.0543,0.115 -0.104,0.232 -0.149,0.352 0.0458,-0.121 0.0965,-0.238 0.149,-0.352 z m -0.192,0.469 c -0.0446,0.127 -0.0831,0.258 -0.117,0.389 0.0348,-0.133 0.0731,-0.263 0.117,-0.389 z m -0.148,0.504 c -0.03,0.129 -0.0522,0.261 -0.0718,0.394 0.02,-0.133 0.0418,-0.266 0.0718,-0.394 z m -0.0981,0.563 c -0.02,0.179 -0.0322,0.361 -0.0322,0.546 -3.73e-4,-0.186 0.012,-0.368 0.0322,-0.546 z"
     fill="#37a29c"
     id="path2-1"
     sodipodi:nodetypes="ccccccccccccccccccccccccc"
     style="isolation:isolate;fill:#000000;fill-opacity:0.2" />
  <path
     d="m 32.794,26.478 v 0 c 0.408,0 0.739,-0.331 0.739,-0.739 v 0 C 33.533,25.331 33.202,25 32.794,25 v 0 H 26.848 C 25.828,25 25,25.828 25,26.848 V 40.152 C 25,41.172 25.828,42 26.848,42 H 40.152 C 41.172,42 42,41.172 42,40.152 v -7.358 c 0,-0.408 -0.331,-0.739 -0.739,-0.739 h -4.838 c -0.204,0 -0.369,-0.166 -0.369,-0.37 v -3.3 c 0,-0.204 0.129,-0.266 0.288,-0.139 l 3.718,2.974 v 0 c 0.318,0.255 0.783,0.203 1.038,-0.115 v 0 c 0.255,-0.318 0.204,-0.783 -0.114,-1.038 v 0 l -5.543,-4.434 c -0.478,-0.382 -0.866,-0.195 -0.866,0.417 v 6.375 c 0,0.611 0.497,1.108 1.109,1.108 h 4.099 c 0.408,0 0.739,0.331 0.739,0.739 v 5.141 c 0,0.612 -0.497,1.109 -1.109,1.109 H 27.587 c -0.612,0 -1.109,-0.497 -1.109,-1.109 V 27.587 c 0,-0.612 0.497,-1.109 1.109,-1.109 z M 28.442,37 h 9.91 C 38.71,37 39,37.29 39,37.648 v 0.204 C 39,38.21 38.71,38.5 38.352,38.5 h -9.91 c -0.357,0 -0.648,-0.29 -0.648,-0.648 V 37.648 C 27.794,37.29 28.085,37 28.442,37 Z m -0.025,-3 h 4.83 c 0.344,0 0.623,0.279 0.623,0.623 v 0.254 c 0,0.344 -0.279,0.623 -0.623,0.623 h -4.83 c -0.344,0 -0.623,-0.279 -0.623,-0.623 V 34.623 C 27.794,34.279 28.073,34 28.417,34 Z m 0,-3.068 h 4.83 c 0.344,0 0.623,0.279 0.623,0.622 v 0.255 c 0,0.344 -0.279,0.623 -0.623,0.623 h -4.83 c -0.344,0 -0.623,-0.279 -0.623,-0.623 v -0.255 c 0,-0.343 0.279,-0.622 0.623,-0.622 z"
     fill-rule="evenodd"
     fill="#ffffff"
     id="path3" />
</svg>
