<svg xmlns="http://www.w3.org/2000/svg" xmlns:xlink="http://www.w3.org/1999/xlink" width="16" height="16" viewBox="0 0 16 16" version="1.1">
<defs>
<linearGradient id="linear0" gradientUnits="userSpaceOnUse" x1="0" y1="0" x2="0" y2="1" gradientTransform="matrix(2.002604,0,0,2,11.997396,3)">
<stop offset="0" style="stop-color:rgb(0%,66.666669%,83.137256%);stop-opacity:1;"/>
<stop offset="1" style="stop-color:rgb(0%,41.960785%,52.549022%);stop-opacity:1;"/>
</linearGradient>
<linearGradient id="linear1" gradientUnits="userSpaceOnUse" x1="0" y1="0" x2="0" y2="1" gradientTransform="matrix(12,0,0,9,2,6)">
<stop offset="0" style="stop-color:rgb(0%,66.666669%,83.137256%);stop-opacity:1;"/>
<stop offset="1" style="stop-color:rgb(0%,41.960785%,52.549022%);stop-opacity:1;"/>
</linearGradient>
<linearGradient id="linear2" gradientUnits="userSpaceOnUse" x1="0" y1="0" x2="0" y2="1" gradientTransform="matrix(3,0,0,5.401042,8,8.799479)">
<stop offset="0" style="stop-color:rgb(0%,66.666669%,83.137256%);stop-opacity:1;"/>
<stop offset="1" style="stop-color:rgb(0%,41.960785%,52.549022%);stop-opacity:1;"/>
</linearGradient>
</defs>
<g id="surface1">
<path style=" stroke:none;fill-rule:nonzero;fill:url(#linear0);" d="M 14 5 L 14 3 L 11.996094 3 Z M 14 5 "/>
<path style=" stroke:none;fill-rule:nonzero;fill:url(#linear1);" d="M 2 7 L 2 15 L 11 15 L 11 14 L 3 14 L 3 6.332031 Z M 13.003906 6 L 13 15 L 14 15 L 14 7 Z M 13.003906 6 "/>
<path style=" stroke:none;fill-rule:nonzero;fill:url(#linear2);" d="M 8 8.984375 C 8.199219 8.9375 8.402344 8.898438 8.605469 8.863281 C 8.859375 8.820312 9.148438 8.800781 9.480469 8.800781 C 9.773438 8.800781 10.019531 8.84375 10.214844 8.929688 C 10.410156 9.007812 10.5625 9.125 10.679688 9.277344 C 10.796875 9.425781 10.882812 9.605469 10.929688 9.8125 C 10.976562 10.023438 11 10.253906 11 10.507812 L 11 14.199219 L 8 14.199219 Z M 8 8.984375 "/>
<path style=" stroke:none;fill-rule:evenodd;fill:rgb(0%,66.666669%,83.137256%);fill-opacity:1;" d="M 8 0.292969 L 0.144531 8.144531 L 0.855469 8.855469 L 8 1.707031 L 15.144531 8.855469 L 15.855469 8.144531 Z M 8 0.292969 "/>
</g>
</svg>
