<svg xmlns="http://www.w3.org/2000/svg" xmlns:xlink="http://www.w3.org/1999/xlink" width="16" height="16" viewBox="0 0 16 16" version="1.1">
<g id="surface1">
<path style=" stroke:none;fill-rule:nonzero;fill:rgb(0%,80.000001%,100%);fill-opacity:1;" d="M 8 2.667969 C 5.054688 2.667969 2.667969 5.054688 2.667969 8 C 2.667969 10.945312 5.054688 13.332031 8 13.332031 C 10.945312 13.332031 13.332031 10.945312 13.332031 8 C 13.332031 5.054688 10.945312 2.667969 8 2.667969 Z M 7.113281 4.667969 L 8.886719 4.667969 C 9.132812 4.667969 9.332031 4.832031 9.332031 5.035156 L 9.332031 8.222656 L 9.328125 8.230469 C 9.328125 8.230469 8.667969 8.597656 8.667969 8.847656 C 8.667969 9.09375 9.328125 9.460938 9.328125 9.460938 L 9.332031 9.46875 L 9.332031 10.964844 C 9.332031 11.167969 9.132812 11.332031 8.886719 11.332031 L 7.113281 11.332031 C 6.867188 11.332031 6.667969 11.167969 6.667969 10.964844 L 6.667969 7.71875 C 6.667969 7.71875 7.332031 7.367188 7.332031 7.128906 C 7.332031 6.890625 6.667969 6.539062 6.667969 6.539062 L 6.667969 5.035156 C 6.667969 4.832031 6.867188 4.667969 7.113281 4.667969 Z M 7.113281 4.667969 "/>
</g>
</svg>
