<svg xmlns="http://www.w3.org/2000/svg" xmlns:xlink="http://www.w3.org/1999/xlink" width="16" height="16" viewBox="0 0 16 16" version="1.1">
<defs>
<filter id="alpha" filterUnits="objectBoundingBox" x="0%" y="0%" width="100%" height="100%">
  <feColorMatrix type="matrix" in="SourceGraphic" values="0 0 0 0 1 0 0 0 0 1 0 0 0 0 1 0 0 0 1 0"/>
</filter>
<mask id="mask0">
  <g filter="url(#alpha)">
<rect x="0" y="0" width="16" height="16" style="fill:rgb(0%,0%,0%);fill-opacity:0.3;stroke:none;"/>
  </g>
</mask>
<clipPath id="clip1">
  <rect x="0" y="0" width="16" height="16"/>
</clipPath>
<g id="surface5" clip-path="url(#clip1)">
<path style=" stroke:none;fill-rule:nonzero;fill:rgb(100%,30.980393%,30.980393%);fill-opacity:1;" d="M 8 2.667969 C 6.117188 2.667969 4.375 3.664062 3.414062 5.285156 C 3.402344 5.300781 3.394531 5.320312 3.382812 5.335938 L 4.539062 6.003906 C 5.253906 4.765625 6.570312 4 8 4 Z M 12.621094 5.332031 L 11.460938 6.003906 C 11.8125 6.609375 12 7.300781 12 8 C 12 8.703125 11.8125 9.390625 11.460938 9.996094 L 12.617188 10.664062 C 12.625 10.644531 12.636719 10.628906 12.644531 10.613281 C 13.570312 8.972656 13.5625 6.964844 12.621094 5.332031 Z M 4.539062 9.996094 L 3.382812 10.664062 C 3.394531 10.679688 3.402344 10.699219 3.414062 10.714844 C 4.375 12.335938 6.117188 13.332031 8 13.332031 L 8 12 C 6.570312 11.996094 5.253906 11.234375 4.539062 9.996094 Z M 4.539062 9.996094 "/>
</g>
</defs>
<g id="surface1">
<path style=" stroke:none;fill-rule:nonzero;fill:rgb(100%,30.980393%,30.980393%);fill-opacity:1;" d="M 8 2.667969 L 8 4 C 9.429688 4.003906 10.746094 4.765625 11.460938 6.003906 L 12.617188 5.335938 C 12.605469 5.320312 12.597656 5.300781 12.585938 5.285156 C 11.628906 3.664062 9.882812 2.667969 8 2.667969 Z M 3.382812 5.335938 C 3.375 5.355469 3.363281 5.371094 3.355469 5.386719 C 2.429688 7.027344 2.4375 9.035156 3.378906 10.667969 L 4.539062 9.996094 C 4.1875 9.390625 4 8.699219 4 8 C 4 7.296875 4.1875 6.609375 4.539062 6.003906 Z M 6.667969 5.75 L 6.667969 10.25 L 9.917969 8 Z M 11.460938 9.996094 C 10.746094 11.234375 9.429688 12 8 12 L 8 13.332031 C 9.882812 13.332031 11.628906 12.335938 12.585938 10.714844 C 12.597656 10.699219 12.605469 10.679688 12.617188 10.664062 Z M 11.460938 9.996094 "/>
<use xlink:href="#surface5" mask="url(#mask0)"/>
</g>
</svg>
