<svg xmlns="http://www.w3.org/2000/svg" xmlns:xlink="http://www.w3.org/1999/xlink" width="16" height="16" viewBox="0 0 16 16" version="1.1">
<g id="surface1">
<path style=" stroke:none;fill-rule:nonzero;fill:rgb(0%,100%,66.666669%);fill-opacity:1;" d="M 6 2.667969 C 4.53125 3.515625 3.621094 4.953125 3.394531 6.507812 C 3.554688 6.433594 3.71875 6.363281 3.890625 6.308594 C 4.625 6.074219 5.445312 6.003906 6.300781 6 C 7.488281 5.996094 8.757812 6.148438 9.945312 6.378906 C 9.019531 4.378906 7.683594 2.660156 6 2.667969 Z M 8.828125 3.410156 C 9.523438 4.15625 10.089844 5.097656 10.550781 6.097656 L 10.765625 6.554688 C 11.40625 6.703125 12.023438 6.859375 12.558594 7.027344 C 12.164062 5.179688 10.691406 3.75 8.828125 3.410156 Z M 6.304688 6.667969 C 4.664062 6.671875 3.261719 6.957031 2.667969 8 C 2.667969 10.945312 5.054688 13.332031 8 13.332031 C 10.945312 13.332031 13.332031 10.945312 13.332031 8 C 11.773438 7.390625 8.773438 6.65625 6.304688 6.667969 Z M 6.304688 6.667969 "/>
</g>
</svg>
