<svg xmlns="http://www.w3.org/2000/svg" xmlns:xlink="http://www.w3.org/1999/xlink" width="16" height="16" viewBox="0 0 16 16" version="1.1">
<g id="surface1">
<path style=" stroke:none;fill-rule:nonzero;fill:rgb(25.882354%,52.156866%,95.686275%);fill-opacity:1;" d="M 5.667969 2.667969 C 4.378906 2.667969 3.332031 3.710938 3.332031 5 C 3.332031 5.285156 3.386719 5.570312 3.488281 5.835938 C 4.324219 4.511719 5.722656 3.578125 7.34375 3.378906 C 6.902344 2.921875 6.300781 2.667969 5.667969 2.667969 Z M 10.332031 2.667969 C 9.703125 2.667969 9.097656 2.925781 8.660156 3.378906 C 10.28125 3.578125 11.675781 4.511719 12.507812 5.835938 C 12.613281 5.570312 12.664062 5.285156 12.667969 5 C 12.667969 3.710938 11.621094 2.667969 10.332031 2.667969 Z M 8 4 C 5.421875 4 3.332031 6.089844 3.332031 8.667969 C 3.332031 9.765625 3.722656 10.832031 4.429688 11.671875 C 4.527344 11.789062 4.628906 11.898438 4.738281 12.003906 C 4.539062 11.980469 4.339844 12.050781 4.195312 12.195312 C 3.933594 12.457031 3.933594 12.878906 4.195312 13.136719 C 4.457031 13.398438 4.878906 13.398438 5.136719 13.136719 C 5.3125 12.960938 5.375 12.703125 5.300781 12.46875 C 5.429688 12.558594 5.558594 12.640625 5.695312 12.71875 C 5.824219 12.789062 5.957031 12.859375 6.09375 12.917969 C 6.105469 12.925781 6.117188 12.929688 6.128906 12.9375 C 6.246094 12.988281 6.367188 13.035156 6.488281 13.074219 C 6.527344 13.089844 6.5625 13.101562 6.601562 13.113281 C 6.707031 13.148438 6.816406 13.175781 6.925781 13.203125 C 6.96875 13.214844 7.011719 13.222656 7.054688 13.230469 C 7.164062 13.253906 7.269531 13.273438 7.378906 13.285156 C 7.429688 13.292969 7.480469 13.300781 7.527344 13.304688 C 7.644531 13.316406 7.761719 13.324219 7.875 13.328125 C 7.917969 13.332031 7.957031 13.332031 8 13.332031 C 8.15625 13.332031 8.3125 13.324219 8.464844 13.308594 C 9.265625 13.230469 10.027344 12.945312 10.683594 12.480469 C 10.6875 12.480469 10.691406 12.476562 10.695312 12.472656 C 10.625 12.707031 10.6875 12.964844 10.863281 13.136719 C 11.121094 13.398438 11.542969 13.398438 11.804688 13.136719 C 12.066406 12.878906 12.066406 12.457031 11.804688 12.195312 C 11.660156 12.050781 11.457031 11.980469 11.253906 12.003906 C 11.359375 11.902344 11.457031 11.796875 11.550781 11.6875 C 11.558594 11.679688 11.566406 11.671875 11.570312 11.664062 C 11.574219 11.660156 11.578125 11.65625 11.578125 11.652344 C 11.667969 11.550781 11.75 11.441406 11.824219 11.328125 C 11.839844 11.3125 11.851562 11.292969 11.863281 11.277344 C 11.933594 11.171875 12 11.0625 12.0625 10.953125 C 12.078125 10.925781 12.09375 10.898438 12.109375 10.871094 C 12.167969 10.761719 12.21875 10.652344 12.265625 10.542969 C 12.28125 10.511719 12.296875 10.476562 12.308594 10.445312 C 12.351562 10.34375 12.386719 10.242188 12.421875 10.136719 C 12.4375 10.089844 12.453125 10.042969 12.46875 9.992188 C 12.5 9.894531 12.523438 9.796875 12.546875 9.699219 C 12.558594 9.644531 12.570312 9.59375 12.582031 9.542969 C 12.597656 9.441406 12.613281 9.34375 12.625 9.242188 C 12.632812 9.1875 12.640625 9.128906 12.644531 9.074219 C 12.660156 8.9375 12.664062 8.800781 12.667969 8.667969 C 12.667969 6.089844 10.578125 4 8 4 Z M 8 5.332031 C 9.839844 5.332031 11.332031 6.824219 11.332031 8.667969 C 11.332031 10.507812 9.839844 12 8 12 C 6.160156 12 4.667969 10.507812 4.667969 8.667969 C 4.667969 8.554688 4.671875 8.445312 4.683594 8.332031 C 4.855469 6.628906 6.289062 5.332031 8 5.332031 Z M 9.285156 7.332031 C 9.230469 7.335938 9.179688 7.351562 9.132812 7.378906 L 7.5 8.324219 C 7.339844 8.414062 7.285156 8.617188 7.378906 8.777344 L 8.554688 10.820312 C 8.621094 10.9375 8.757812 11.007812 8.894531 10.988281 C 9.03125 10.96875 9.140625 10.867188 9.171875 10.734375 C 9.191406 10.648438 9.179688 10.558594 9.132812 10.484375 L 8.121094 8.734375 L 9.464844 7.957031 C 9.601562 7.882812 9.667969 7.722656 9.625 7.574219 C 9.582031 7.421875 9.441406 7.324219 9.285156 7.332031 Z M 9.285156 7.332031 "/>
</g>
</svg>
