<svg xmlns="http://www.w3.org/2000/svg" xmlns:xlink="http://www.w3.org/1999/xlink" width="16" height="16" viewBox="0 0 16 16" version="1.1">
<defs>
<filter id="alpha" filterUnits="objectBoundingBox" x="0%" y="0%" width="100%" height="100%">
  <feColorMatrix type="matrix" in="SourceGraphic" values="0 0 0 0 1 0 0 0 0 1 0 0 0 0 1 0 0 0 1 0"/>
</filter>
<mask id="mask0">
  <g filter="url(#alpha)">
<rect x="0" y="0" width="16" height="16" style="fill:rgb(0%,0%,0%);fill-opacity:0.3;stroke:none;"/>
  </g>
</mask>
<clipPath id="clip1">
  <rect x="0" y="0" width="16" height="16"/>
</clipPath>
<g id="surface5" clip-path="url(#clip1)">
<path style=" stroke:none;fill-rule:nonzero;fill:rgb(0%,80.000001%,100%);fill-opacity:1;" d="M 12.566406 5.449219 L 3.574219 10.789062 C 3.667969 10.917969 3.789062 11.027344 3.925781 11.109375 L 7.40625 13.171875 C 7.773438 13.386719 8.226562 13.386719 8.59375 13.171875 L 12.074219 11.109375 C 12.441406 10.894531 12.667969 10.492188 12.667969 10.058594 L 12.667969 5.941406 C 12.667969 5.769531 12.632812 5.605469 12.566406 5.449219 Z M 12.566406 5.449219 "/>
</g>
</defs>
<g id="surface1">
<path style=" stroke:none;fill-rule:nonzero;fill:rgb(0%,80.000001%,100%);fill-opacity:1;" d="M 8.027344 2.667969 C 7.8125 2.660156 7.59375 2.71875 7.40625 2.828125 L 3.925781 4.890625 C 3.558594 5.105469 3.332031 5.507812 3.332031 5.941406 L 3.332031 10.058594 C 3.332031 10.328125 3.429688 10.578125 3.582031 10.785156 L 12.558594 5.453125 C 12.457031 5.222656 12.296875 5.019531 12.074219 4.890625 L 8.59375 2.828125 C 8.421875 2.726562 8.226562 2.671875 8.027344 2.667969 Z M 12.621094 5.605469 C 12.621094 5.617188 12.625 5.628906 12.628906 5.640625 C 12.625 5.628906 12.621094 5.617188 12.621094 5.605469 Z M 3.667969 10.902344 C 3.675781 10.910156 3.683594 10.917969 3.695312 10.925781 C 3.683594 10.917969 3.675781 10.910156 3.667969 10.902344 Z M 3.667969 10.902344 "/>
<use xlink:href="#surface5" mask="url(#mask0)"/>
</g>
</svg>
