<svg xmlns="http://www.w3.org/2000/svg" xmlns:xlink="http://www.w3.org/1999/xlink" width="16" height="16" viewBox="0 0 16 16" version="1.1">
<g id="surface1">
<path style=" stroke:none;fill-rule:nonzero;fill:rgb(100%,30.980393%,30.980393%);fill-opacity:1;" d="M 8 2.667969 C 5.054688 2.667969 2.667969 5.054688 2.667969 8 C 2.667969 10.945312 5.054688 13.332031 8 13.332031 C 10.945312 13.332031 13.332031 10.945312 13.332031 8 C 13.332031 5.054688 10.945312 2.667969 8 2.667969 Z M 7.921875 5.335938 L 7.925781 5.335938 C 9.167969 5.382812 9.90625 6.222656 9.988281 7.449219 C 10.078125 8.832031 9.671875 9.195312 9.84375 9.472656 C 10.210938 10.054688 9.695312 10.203125 9.351562 10.488281 C 9.136719 10.664062 8.726562 10.585938 8.523438 10.332031 C 7.902344 9.976562 8.140625 10.664062 6.863281 10.667969 C 6.195312 10.640625 5.585938 10.160156 5.414062 9.511719 C 5.148438 8.519531 5.535156 7.785156 6.617188 7.441406 C 6.925781 7.339844 7.546875 7.398438 7.820312 7.199219 C 8.074219 7.011719 7.984375 6.742188 7.667969 6.707031 C 7.214844 6.65625 6.507812 6.863281 6.089844 6.777344 C 5.753906 6.710938 5.652344 6.070312 5.871094 5.796875 C 6.230469 5.34375 7.148438 5.363281 7.667969 5.339844 C 7.757812 5.335938 7.839844 5.332031 7.921875 5.335938 Z M 7.757812 8.300781 C 7.46875 8.300781 7.230469 8.515625 7.230469 8.785156 C 7.230469 9.050781 7.46875 9.273438 7.757812 9.273438 C 8.046875 9.273438 8.273438 9.050781 8.273438 8.785156 C 8.273438 8.515625 8.046875 8.300781 7.757812 8.300781 Z M 7.757812 8.300781 "/>
</g>
</svg>
