<svg xmlns="http://www.w3.org/2000/svg" xmlns:xlink="http://www.w3.org/1999/xlink" width="16" height="16" viewBox="0 0 16 16" version="1.1">
<defs>
<filter id="alpha" filterUnits="objectBoundingBox" x="0%" y="0%" width="100%" height="100%">
  <feColorMatrix type="matrix" in="SourceGraphic" values="0 0 0 0 1 0 0 0 0 1 0 0 0 0 1 0 0 0 1 0"/>
</filter>
<mask id="mask0">
  <g filter="url(#alpha)">
<rect x="0" y="0" width="16" height="16" style="fill:rgb(0%,0%,0%);fill-opacity:0.3;stroke:none;"/>
  </g>
</mask>
<clipPath id="clip1">
  <rect x="0" y="0" width="16" height="16"/>
</clipPath>
<g id="surface5" clip-path="url(#clip1)">
<path style=" stroke:none;fill-rule:nonzero;fill:rgb(0%,100%,66.666669%);fill-opacity:1;" d="M 4.667969 7.332031 C 4.296875 7.332031 4 7.632812 4 8 C 4 8.023438 4 8.050781 4.003906 8.074219 C 4.046875 9.699219 5.464844 11.023438 7.332031 11.285156 L 7.332031 12 L 5.332031 12 C 4.964844 12 4.667969 12.296875 4.667969 12.667969 C 4.667969 13.035156 4.964844 13.332031 5.332031 13.332031 L 10.667969 13.332031 C 11.035156 13.332031 11.332031 13.035156 11.332031 12.667969 C 11.332031 12.296875 11.035156 12 10.667969 12 L 8.667969 12 L 8.667969 11.285156 C 10.535156 11.023438 11.957031 9.691406 11.996094 8.066406 C 12 8.042969 12 8.023438 12 8 C 12 7.632812 11.703125 7.332031 11.332031 7.332031 C 10.964844 7.332031 10.667969 7.632812 10.667969 8 L 10.65625 8 C 10.601562 9.378906 9.714844 10 8 10 C 6.285156 10 5.398438 9.378906 5.34375 8 L 5.332031 8 C 5.332031 7.632812 5.035156 7.332031 4.667969 7.332031 Z M 4.667969 7.332031 "/>
</g>
<mask id="mask1">
  <g filter="url(#alpha)">
<rect x="0" y="0" width="16" height="16" style="fill:rgb(0%,0%,0%);fill-opacity:0.3;stroke:none;"/>
  </g>
</mask>
<clipPath id="clip2">
  <rect x="0" y="0" width="16" height="16"/>
</clipPath>
<g id="surface8" clip-path="url(#clip2)">
<path style=" stroke:none;fill-rule:nonzero;fill:rgb(0%,100%,66.666669%);fill-opacity:1;" d="M 10.667969 6.554688 L 10.667969 5.445312 C 10.667969 3.910156 9.472656 2.667969 8 2.667969 C 6.527344 2.667969 5.332031 3.910156 5.332031 5.445312 L 5.332031 6.554688 C 5.332031 8.089844 6.527344 9.332031 8 9.332031 C 9.472656 9.332031 10.667969 8.089844 10.667969 6.554688 Z M 10.667969 6.554688 "/>
</g>
</defs>
<g id="surface1">
<use xlink:href="#surface5" mask="url(#mask0)"/>
<use xlink:href="#surface8" mask="url(#mask1)"/>
</g>
</svg>
