<svg xmlns="http://www.w3.org/2000/svg" xmlns:xlink="http://www.w3.org/1999/xlink" width="16" height="16" viewBox="0 0 16 16" version="1.1">
<defs>
<filter id="alpha" filterUnits="objectBoundingBox" x="0%" y="0%" width="100%" height="100%">
  <feColorMatrix type="matrix" in="SourceGraphic" values="0 0 0 0 1 0 0 0 0 1 0 0 0 0 1 0 0 0 1 0"/>
</filter>
<mask id="mask0">
  <g filter="url(#alpha)">
<rect x="0" y="0" width="16" height="16" style="fill:rgb(0%,0%,0%);fill-opacity:0.3;stroke:none;"/>
  </g>
</mask>
<clipPath id="clip1">
  <rect x="0" y="0" width="16" height="16"/>
</clipPath>
<g id="surface5" clip-path="url(#clip1)">
<path style=" stroke:none;fill-rule:nonzero;fill:rgb(0%,80.000001%,100%);fill-opacity:1;" d="M 8 3.332031 L 5.332031 6 L 3.332031 6 L 3.332031 10 L 5.332031 10 L 8 12.667969 Z M 9.332031 3.332031 L 9.332031 4.332031 C 10.878906 4.828125 12 6.285156 12 8 C 12 9.714844 10.878906 11.171875 9.332031 11.667969 L 9.332031 12.667969 C 11.433594 12.148438 13 10.265625 13 8 C 13 5.734375 11.433594 3.851562 9.332031 3.332031 Z M 9.332031 6 L 9.332031 10 C 10.039062 9.613281 10.527344 8.867188 10.527344 8 C 10.527344 7.132812 10.046875 6.386719 9.332031 6 Z M 9.332031 6 "/>
</g>
</defs>
<g id="surface1">
<use xlink:href="#surface5" mask="url(#mask0)"/>
</g>
</svg>
