<svg xmlns="http://www.w3.org/2000/svg" xmlns:xlink="http://www.w3.org/1999/xlink" width="16" height="16" viewBox="0 0 16 16" version="1.1">
<g id="surface1">
<path style=" stroke:none;fill-rule:nonzero;fill:rgb(0%,100%,66.666669%);fill-opacity:1;" d="M 2.667969 11.46875 L 2.667969 11.832031 C 2.667969 12.640625 3.359375 13.332031 4.167969 13.332031 L 11.832031 13.332031 C 12.640625 13.332031 13.332031 12.640625 13.332031 11.832031 L 13.332031 11.46875 C 12.976562 11.792969 12.515625 12 12 12 L 4 12 C 3.484375 12 3.019531 11.792969 2.667969 11.46875 Z M 4.667969 2.667969 C 3.988281 2.667969 3.414062 3.175781 3.339844 3.851562 L 2.675781 9.851562 C 2.632812 10.230469 2.753906 10.605469 3.007812 10.890625 C 3.257812 11.171875 3.621094 11.332031 4 11.332031 L 12 11.332031 C 12.378906 11.332031 12.742188 11.171875 12.992188 10.890625 C 13.246094 10.605469 13.367188 10.230469 13.324219 9.851562 L 12.660156 3.851562 C 12.582031 3.175781 12.011719 2.667969 11.332031 2.667969 Z M 7.992188 4 C 8.140625 3.992188 8.277344 4.089844 8.320312 4.230469 L 8.902344 6.042969 L 10.800781 6.042969 C 10.945312 6.042969 11.074219 6.132812 11.121094 6.273438 C 11.164062 6.410156 11.113281 6.5625 10.996094 6.644531 L 9.453125 7.757812 L 10.042969 9.5625 C 10.085938 9.699219 10.035156 9.851562 9.917969 9.933594 C 9.800781 10.019531 9.644531 10.019531 9.527344 9.933594 L 7.996094 8.8125 L 6.457031 9.929688 C 6.339844 10.015625 6.179688 10.015625 6.0625 9.929688 C 5.945312 9.84375 5.898438 9.691406 5.945312 9.554688 L 6.539062 7.75 L 5.003906 6.632812 C 4.886719 6.546875 4.835938 6.398438 4.882812 6.261719 C 4.925781 6.121094 5.054688 6.03125 5.199219 6.03125 L 7.101562 6.039062 L 7.6875 4.230469 C 7.730469 4.097656 7.851562 4.003906 7.992188 4 Z M 7.992188 4 "/>
</g>
</svg>
