<svg xmlns="http://www.w3.org/2000/svg" xmlns:xlink="http://www.w3.org/1999/xlink" width="16" height="16" viewBox="0 0 16 16" version="1.1">
<defs>
<filter id="alpha" filterUnits="objectBoundingBox" x="0%" y="0%" width="100%" height="100%">
  <feColorMatrix type="matrix" in="SourceGraphic" values="0 0 0 0 1 0 0 0 0 1 0 0 0 0 1 0 0 0 1 0"/>
</filter>
<mask id="mask0">
  <g filter="url(#alpha)">
<rect x="0" y="0" width="16" height="16" style="fill:rgb(0%,0%,0%);fill-opacity:0.3;stroke:none;"/>
  </g>
</mask>
<clipPath id="clip1">
  <rect x="0" y="0" width="16" height="16"/>
</clipPath>
<g id="surface5" clip-path="url(#clip1)">
<path style=" stroke:none;fill-rule:nonzero;fill:rgb(100%,74.901962%,0%);fill-opacity:1;" d="M 6.667969 3.332031 L 6.667969 4 L 4.667969 4 L 4.667969 12 C 4.667969 12.367188 4.964844 12.667969 5.332031 12.667969 L 10.667969 12.667969 C 11.035156 12.667969 11.332031 12.367188 11.332031 12 L 11.332031 4 L 9.332031 4 L 9.332031 3.332031 Z M 8 5.332031 C 9.097656 5.332031 10 6.238281 10 7.332031 C 10 8.171875 9.40625 8.761719 8.667969 9.054688 L 8.667969 11.332031 L 6.667969 11.332031 L 6.667969 8 L 6 8 L 6 7.332031 C 6 6.238281 6.902344 5.332031 8 5.332031 Z M 8 5.332031 "/>
</g>
</defs>
<g id="surface1">
<use xlink:href="#surface5" mask="url(#mask0)"/>
<path style=" stroke:none;fill-rule:nonzero;fill:rgb(100%,74.901962%,0%);fill-opacity:1;" d="M 8 6 C 7.261719 6 6.667969 6.597656 6.667969 7.332031 L 7.332031 7.332031 C 7.332031 6.964844 7.632812 6.667969 8 6.667969 C 8.367188 6.667969 8.667969 6.964844 8.667969 7.332031 C 8.667969 7.703125 8.367188 8 8 8 L 7.332031 8 L 7.332031 9.332031 L 8 9.332031 L 8 8.667969 C 8.738281 8.667969 9.332031 8.070312 9.332031 7.332031 C 9.332031 6.597656 8.738281 6 8 6 Z M 7.332031 10 L 7.332031 10.667969 L 8 10.667969 L 8 10 Z M 7.332031 10 "/>
</g>
</svg>
