<svg xmlns="http://www.w3.org/2000/svg" xmlns:xlink="http://www.w3.org/1999/xlink" width="16" height="16" viewBox="0 0 16 16" version="1.1">
<defs>
<filter id="alpha" filterUnits="objectBoundingBox" x="0%" y="0%" width="100%" height="100%">
  <feColorMatrix type="matrix" in="SourceGraphic" values="0 0 0 0 1 0 0 0 0 1 0 0 0 0 1 0 0 0 1 0"/>
</filter>
<mask id="mask0">
  <g filter="url(#alpha)">
<rect x="0" y="0" width="16" height="16" style="fill:rgb(0%,0%,0%);fill-opacity:0.3;stroke:none;"/>
  </g>
</mask>
<clipPath id="clip1">
  <rect x="0" y="0" width="16" height="16"/>
</clipPath>
<g id="surface5" clip-path="url(#clip1)">
<path style=" stroke:none;fill-rule:nonzero;fill:rgb(100%,32.156864%,32.156864%);fill-opacity:1;" d="M 6.667969 3.332031 L 6.667969 4 L 4.667969 4 L 4.667969 12 C 4.667969 12.371094 4.964844 12.667969 5.332031 12.667969 L 10.667969 12.667969 C 11.035156 12.667969 11.332031 12.371094 11.332031 12 L 11.332031 4 L 9.332031 4 L 9.332031 3.332031 Z M 6.667969 3.332031 "/>
</g>
</defs>
<g id="surface1">
<use xlink:href="#surface5" mask="url(#mask0)"/>
<path style=" stroke:none;fill-rule:nonzero;fill:rgb(100%,32.156864%,32.156864%);fill-opacity:1;" d="M 4.667969 10.667969 L 4.667969 12 C 4.667969 12.371094 4.964844 12.667969 5.332031 12.667969 L 10.667969 12.667969 C 11.035156 12.667969 11.332031 12.371094 11.332031 12 L 11.332031 10.667969 Z M 4.667969 10.667969 "/>
</g>
</svg>
