<svg xmlns="http://www.w3.org/2000/svg" xmlns:xlink="http://www.w3.org/1999/xlink" width="16" height="16" viewBox="0 0 16 16" version="1.1">
<g id="surface1">
<path style=" stroke:none;fill-rule:nonzero;fill:rgb(100%,30.980393%,30.980393%);fill-opacity:1;" d="M 8 2.667969 C 3.773438 2.667969 3.664062 2.667969 3.554688 2.734375 C 3.320312 2.871094 3.332031 2.699219 3.332031 5.875 C 3.332031 9.097656 3.328125 9.035156 3.585938 9.660156 C 3.878906 10.378906 4.351562 10.984375 5.125 11.644531 C 5.777344 12.199219 6.550781 12.699219 7.410156 13.125 C 7.703125 13.269531 7.851562 13.335938 8 13.332031 C 8.148438 13.335938 8.296875 13.269531 8.589844 13.125 C 9.449219 12.699219 10.222656 12.199219 10.875 11.644531 C 11.648438 10.984375 12.121094 10.378906 12.414062 9.660156 C 12.671875 9.035156 12.667969 9.097656 12.667969 5.875 C 12.667969 2.699219 12.679688 2.871094 12.445312 2.734375 C 12.335938 2.667969 12.226562 2.667969 8 2.667969 Z M 8 4 C 9.871094 4 10.722656 4.003906 11.320312 4.007812 C 11.324219 4.417969 11.332031 4.742188 11.332031 5.875 C 11.332031 7.488281 11.328125 8.289062 11.304688 8.652344 C 11.28125 9.015625 11.3125 8.828125 11.179688 9.15625 C 10.976562 9.652344 10.683594 10.058594 10.011719 10.628906 C 9.453125 11.101562 8.773438 11.546875 8 11.929688 Z M 8 4 "/>
</g>
</svg>
