<svg xmlns="http://www.w3.org/2000/svg" xmlns:xlink="http://www.w3.org/1999/xlink" width="16" height="16" viewBox="0 0 16 16" version="1.1">
<g id="surface1">
<path style=" stroke:none;fill-rule:nonzero;fill:rgb(100%,74.901962%,0%);fill-opacity:1;" d="M 8.332031 2.679688 C 6.300781 2.679688 4.667969 4.464844 4.667969 6.679688 L 4.667969 9.347656 C 4.667969 11.5625 6.300781 13.347656 8.332031 13.347656 C 8.445312 13.347656 8.558594 13.339844 8.667969 13.328125 L 8.667969 11.785156 L 8.644531 11.804688 C 8.628906 11.84375 8.59375 11.878906 8.5625 11.910156 C 8.503906 11.96875 8.425781 12.011719 8.332031 12.011719 L 8 12.011719 L 8 8.722656 L 6.5625 9.910156 C 6.503906 9.96875 6.425781 10.011719 6.332031 10.011719 L 6 10.011719 L 6 9.679688 C 6 9.578125 6.050781 9.492188 6.125 9.429688 L 7.832031 8.011719 L 6.207031 6.660156 C 6.175781 6.644531 6.152344 6.617188 6.125 6.597656 C 6.050781 6.542969 6 6.457031 6 6.351562 L 6 6.015625 L 6.332031 6.015625 C 6.414062 6.015625 6.484375 6.050781 6.542969 6.101562 C 6.546875 6.105469 6.554688 6.113281 6.5625 6.121094 L 8 7.308594 L 8 4.015625 L 8.332031 4.015625 C 8.472656 4.015625 8.59375 4.105469 8.644531 4.226562 L 10.5625 6.121094 L 10.832031 6.371094 L 10.542969 6.601562 L 8.832031 8.015625 L 9.773438 8.796875 C 10.136719 8.328125 10.695312 8.015625 11.332031 8.015625 C 11.566406 8.015625 11.789062 8.0625 12 8.140625 L 12 6.683594 C 12 4.46875 10.363281 2.683594 8.332031 2.683594 Z M 8.667969 5.136719 L 8.667969 7.304688 L 9.855469 6.324219 L 8.667969 5.140625 Z M 11.332031 8.679688 C 10.59375 8.679688 10 9.285156 10 10.03125 L 10 10.679688 L 9.332031 10.679688 L 9.332031 13.34375 L 13.332031 13.34375 L 13.332031 10.679688 L 12.667969 10.679688 L 12.667969 10.03125 C 12.667969 9.285156 12.070312 8.679688 11.332031 8.679688 Z M 8.667969 8.722656 L 8.667969 10.011719 L 9.34375 10.011719 C 9.34375 9.789062 9.390625 9.578125 9.460938 9.375 Z M 11.332031 9.34375 C 11.703125 9.34375 12 9.640625 12 10.011719 L 12 10.679688 L 10.667969 10.679688 L 10.667969 10.011719 C 10.667969 9.640625 10.964844 9.34375 11.332031 9.34375 Z M 11.332031 9.34375 "/>
</g>
</svg>
