<svg xmlns="http://www.w3.org/2000/svg" xmlns:xlink="http://www.w3.org/1999/xlink" width="16" height="16" viewBox="0 0 16 16" version="1.1">
<g id="surface1">
<path style=" stroke:none;fill-rule:nonzero;fill:rgb(0%,80.000001%,100%);fill-opacity:1;" d="M 8.332031 2.679688 C 6.300781 2.679688 4.667969 4.464844 4.667969 6.679688 L 4.667969 9.347656 C 4.667969 11.5625 6.300781 13.347656 8.332031 13.347656 C 10.363281 13.347656 12 11.5625 12 9.347656 L 12 6.679688 C 12 4.464844 10.363281 2.679688 8.332031 2.679688 Z M 8 4.011719 L 8.332031 4.011719 C 8.472656 4.011719 8.59375 4.101562 8.644531 4.222656 L 10.5625 6.117188 L 10.832031 6.367188 L 10.542969 6.597656 L 8.832031 8.011719 L 10.542969 9.429688 L 10.832031 9.660156 L 10.5625 9.910156 L 8.644531 11.804688 C 8.628906 11.84375 8.59375 11.878906 8.5625 11.910156 C 8.503906 11.96875 8.425781 12.011719 8.332031 12.011719 L 8 12.011719 L 8 8.722656 L 6.5625 9.910156 C 6.503906 9.96875 6.425781 10.011719 6.332031 10.011719 L 6 10.011719 L 6 9.679688 C 6 9.578125 6.050781 9.492188 6.125 9.429688 L 7.832031 8.011719 L 6.207031 6.660156 C 6.175781 6.644531 6.152344 6.617188 6.125 6.597656 C 6.050781 6.535156 6 6.449219 6 6.347656 L 6 6.011719 L 6.332031 6.011719 C 6.414062 6.011719 6.484375 6.046875 6.542969 6.097656 C 6.550781 6.101562 6.554688 6.109375 6.5625 6.117188 L 8 7.304688 Z M 8.667969 5.136719 L 8.667969 7.304688 L 9.855469 6.324219 Z M 8.667969 8.722656 L 8.667969 10.886719 L 9.855469 9.699219 Z M 8.667969 8.722656 "/>
</g>
</svg>
