<svg xmlns="http://www.w3.org/2000/svg" xmlns:xlink="http://www.w3.org/1999/xlink" width="16" height="16" viewBox="0 0 16 16" version="1.1">
<g id="surface1">
<path style=" stroke:none;fill-rule:nonzero;fill:rgb(96.862745%,0%,100%);fill-opacity:1;" d="M 8 2.667969 C 7.777344 2.667969 7.554688 2.683594 7.332031 2.714844 L 7.332031 9.335938 C 7.332031 9.703125 7.035156 10 6.667969 10 C 6.296875 10 6 9.703125 6 9.335938 L 6 3.058594 C 3.988281 3.875 2.667969 5.828125 2.667969 8 C 2.667969 10.945312 5.054688 13.332031 8 13.332031 C 10.945312 13.332031 13.332031 10.945312 13.332031 8 C 13.332031 5.054688 10.945312 2.667969 8 2.667969 Z M 8.1875 6 C 8.191406 6 8.195312 6 8.203125 6 C 8.234375 6 8.269531 6.007812 8.296875 6.023438 L 11.898438 7.839844 C 11.960938 7.875 12 7.933594 12 8 C 12 8.066406 11.960938 8.125 11.898438 8.160156 L 8.296875 9.976562 C 8.234375 10.011719 8.15625 10.011719 8.09375 9.976562 C 8.03125 9.941406 7.992188 9.878906 7.996094 9.8125 L 7.996094 6.175781 C 7.996094 6.078125 8.078125 6 8.183594 5.996094 Z M 8.1875 6 "/>
</g>
</svg>
