<svg xmlns="http://www.w3.org/2000/svg" xmlns:xlink="http://www.w3.org/1999/xlink" width="16" height="16" viewBox="0 0 16 16" version="1.1">
<g id="surface1">
<path style=" stroke:none;fill-rule:nonzero;fill:rgb(100%,30.980393%,30.980393%);fill-opacity:1;" d="M 4.5625 2.667969 C 4.464844 2.738281 3.605469 4.089844 3.246094 4.683594 C 2.828125 5.375 2.710938 5.464844 2.675781 5.730469 C 2.628906 6.097656 2.75 6.160156 4.003906 7.457031 C 4.425781 7.894531 4.777344 8.277344 4.789062 8.308594 C 4.835938 8.445312 4.796875 8.652344 4.660156 9.011719 C 4.472656 9.511719 4.457031 9.648438 4.546875 9.949219 C 4.644531 10.273438 4.8125 10.535156 5.066406 10.765625 C 5.300781 10.976562 5.390625 11.1875 5.527344 11.191406 C 5.578125 11.191406 5.859375 10.90625 6.148438 10.75 L 6.148438 10.746094 C 6.785156 10.40625 6.878906 10.335938 7.363281 9.847656 C 7.769531 9.433594 7.847656 9.308594 7.789062 9.152344 C 7.769531 9.101562 7.460938 8.777344 7.105469 8.433594 C 6.269531 7.625 6.304688 7.953125 6.625 7.078125 C 6.8125 6.558594 6.863281 6.394531 6.863281 6.25 C 6.859375 6.03125 6.789062 5.871094 6.648438 5.757812 C 6.589844 5.710938 6.082031 5.476562 5.519531 5.238281 C 4.957031 4.996094 4.503906 4.785156 4.507812 4.765625 C 4.515625 4.722656 5.136719 4.648438 5.585938 4.632812 L 5.925781 4.625 L 6.550781 4.875 C 7.097656 5.09375 7.183594 5.136719 7.222656 5.226562 C 7.25 5.28125 7.269531 5.355469 7.269531 5.390625 C 7.269531 5.429688 7.167969 6.144531 7.042969 6.742188 C 6.828125 7.789062 6.820312 7.617188 6.878906 7.679688 C 6.96875 7.78125 7.839844 8.015625 8.113281 7.992188 C 8.421875 7.964844 9.058594 7.746094 9.121094 7.675781 C 9.175781 7.617188 9.164062 7.765625 8.953125 6.742188 C 8.832031 6.144531 8.730469 5.425781 8.730469 5.390625 C 8.726562 5.355469 8.75 5.28125 8.773438 5.226562 C 8.816406 5.136719 8.898438 5.09375 9.382812 4.898438 C 10.164062 4.585938 10.152344 4.589844 10.863281 4.660156 C 11.195312 4.691406 11.480469 4.738281 11.496094 4.753906 C 11.515625 4.773438 11.492188 4.800781 11.449219 4.820312 C 11.402344 4.839844 10.945312 5.035156 10.429688 5.257812 C 9.914062 5.476562 9.433594 5.699219 9.367188 5.746094 C 9.210938 5.863281 9.136719 6.027344 9.136719 6.253906 C 9.136719 6.394531 9.1875 6.554688 9.371094 7.058594 C 9.5 7.410156 9.601562 7.730469 9.601562 7.769531 C 9.601562 7.933594 9.496094 7.855469 8.90625 8.421875 C 8.566406 8.746094 8.265625 9.058594 8.238281 9.117188 C 8.207031 9.175781 8.195312 9.265625 8.203125 9.316406 C 8.21875 9.402344 8.621094 9.851562 9.035156 10.238281 C 9.207031 10.398438 10.261719 11.152344 10.429688 11.183594 C 10.570312 11.207031 10.71875 10.96875 10.96875 10.734375 C 11.207031 10.507812 11.355469 10.277344 11.453125 9.964844 C 11.542969 9.671875 11.523438 9.476562 11.339844 9.003906 C 11.199219 8.640625 11.164062 8.441406 11.210938 8.308594 C 11.222656 8.277344 11.597656 7.871094 12.046875 7.40625 C 13.023438 6.390625 13.253906 6.210938 13.308594 6.03125 C 13.367188 5.828125 13.324219 5.5625 13.191406 5.296875 C 12.871094 4.660156 11.546875 2.667969 11.433594 2.667969 C 10.855469 2.773438 10.371094 3.226562 9.757812 3.332031 C 9.300781 2.867188 8.644531 2.773438 8 2.667969 C 7.199219 2.804688 6.867188 2.824219 6.234375 3.332031 C 5.632812 3.234375 5.1875 2.746094 4.5625 2.667969 Z M 8.003906 10.386719 C 7.855469 10.386719 7.710938 10.445312 7.453125 10.566406 C 6.992188 10.78125 5.953125 11.367188 5.863281 11.464844 C 5.773438 11.5625 5.820312 11.65625 6.046875 11.832031 C 6.515625 12.195312 7.414062 12.890625 7.414062 12.890625 C 8.023438 13.484375 7.976562 13.484375 8.601562 12.871094 C 8.601562 12.871094 9.257812 12.378906 9.839844 11.902344 C 10.167969 11.636719 10.21875 11.570312 10.164062 11.472656 C 10.121094 11.398438 9.0625 10.804688 8.558594 10.570312 C 8.292969 10.449219 8.148438 10.386719 8.003906 10.386719 Z M 8.003906 10.386719 "/>
</g>
</svg>
