<svg xmlns="http://www.w3.org/2000/svg" xmlns:xlink="http://www.w3.org/1999/xlink" width="16" height="16" viewBox="0 0 16 16" version="1.1">
<g id="surface1">
<path style=" stroke:none;fill-rule:nonzero;fill:rgb(0%,100%,66.666669%);fill-opacity:1;" d="M 12.617188 5.335938 C 11.144531 2.785156 7.882812 1.910156 5.332031 3.382812 C 2.785156 4.855469 1.910156 8.117188 3.382812 10.667969 C 4.855469 13.214844 8.117188 14.089844 10.667969 12.617188 C 13.214844 11.144531 14.089844 7.882812 12.617188 5.335938 Z M 11.175781 6.167969 C 11.941406 7.496094 11.878906 9.121094 11.023438 10.320312 L 11.699219 10.867188 L 9.363281 11.445312 L 9.324219 8.917969 L 10.039062 9.492188 C 10.589844 8.695312 10.613281 7.65625 10.109375 6.78125 C 9.585938 5.875 8.570312 5.363281 7.570312 5.507812 L 7.375 4.25 C 8.867188 4.035156 10.386719 4.804688 11.175781 6.167969 Z M 6.617188 4.566406 L 6.695312 7.070312 L 5.976562 6.496094 C 5.429688 7.285156 5.386719 8.351562 5.890625 9.21875 C 6.414062 10.128906 7.40625 10.632812 8.410156 10.503906 L 8.609375 11.761719 C 7.101562 11.957031 5.613281 11.199219 4.824219 9.832031 C 4.0625 8.511719 4.136719 6.855469 4.996094 5.671875 L 4.335938 5.113281 Z M 6.617188 4.566406 "/>
</g>
</svg>
