<svg xmlns="http://www.w3.org/2000/svg" xmlns:xlink="http://www.w3.org/1999/xlink" width="16" height="16" viewBox="0 0 16 16" version="1.1">
<g id="surface1">
<path style=" stroke:none;fill-rule:nonzero;fill:rgb(0%,100%,66.666669%);fill-opacity:1;" d="M 11.769531 11.773438 C 13.855469 9.6875 13.855469 6.3125 11.769531 4.230469 C 9.6875 2.144531 6.3125 2.144531 4.226562 4.230469 C 2.144531 6.3125 2.144531 9.6875 4.226562 11.773438 C 6.3125 13.855469 9.6875 13.855469 11.769531 11.773438 Z M 10.59375 10.59375 C 9.507812 11.679688 7.917969 12.039062 6.542969 11.519531 L 6.1875 12.316406 L 5.023438 10.210938 L 7.453125 9.519531 L 7.085938 10.359375 C 7.996094 10.683594 9.007812 10.4375 9.722656 9.722656 C 10.464844 8.984375 10.691406 7.867188 10.296875 6.941406 L 11.460938 6.425781 C 12.054688 7.8125 11.703125 9.480469 10.59375 10.59375 Z M 10.960938 5.777344 L 8.558594 6.496094 L 8.925781 5.65625 C 8.023438 5.332031 6.984375 5.566406 6.277344 6.277344 C 5.535156 7.019531 5.300781 8.109375 5.6875 9.046875 L 4.523438 9.5625 C 3.945312 8.15625 4.292969 6.523438 5.40625 5.40625 C 6.488281 4.328125 8.105469 3.972656 9.472656 4.496094 L 9.839844 3.714844 Z M 10.960938 5.777344 "/>
</g>
</svg>
