<svg xmlns="http://www.w3.org/2000/svg" xmlns:xlink="http://www.w3.org/1999/xlink" width="16" height="16" viewBox="0 0 16 16" version="1.1">
<g id="surface1">
<path style=" stroke:none;fill-rule:nonzero;fill:rgb(0%,80.000001%,100%);fill-opacity:1;" d="M 10.667969 3.382812 C 8.117188 1.910156 4.855469 2.785156 3.382812 5.332031 C 1.910156 7.882812 2.785156 11.144531 5.332031 12.617188 C 7.882812 14.089844 11.144531 13.214844 12.617188 10.667969 C 14.089844 8.117188 13.214844 4.855469 10.667969 3.382812 Z M 9.832031 4.824219 C 11.164062 5.59375 11.921875 7.03125 11.777344 8.496094 L 12.636719 8.632812 L 10.902344 10.300781 L 9.605469 8.132812 L 10.511719 8.273438 C 10.589844 7.308594 10.09375 6.394531 9.21875 5.890625 C 8.3125 5.367188 7.175781 5.433594 6.382812 6.054688 L 5.582031 5.066406 C 6.769531 4.132812 8.472656 4.039062 9.832031 4.824219 Z M 5.085938 5.714844 L 6.402344 7.847656 L 5.496094 7.710938 C 5.417969 8.667969 5.914062 9.609375 6.78125 10.109375 C 7.691406 10.636719 8.804688 10.578125 9.609375 9.964844 L 10.40625 10.953125 C 9.199219 11.875 7.53125 11.964844 6.167969 11.175781 C 4.84375 10.410156 4.082031 8.941406 4.234375 7.484375 L 3.382812 7.332031 Z M 5.085938 5.714844 "/>
</g>
</svg>
