<svg xmlns="http://www.w3.org/2000/svg" xmlns:xlink="http://www.w3.org/1999/xlink" width="16" height="16" viewBox="0 0 16 16" version="1.1">
<g id="surface1">
<path style=" stroke:none;fill-rule:nonzero;fill:rgb(96.862745%,0%,100%);fill-opacity:1;" d="M 9.378906 13.148438 C 12.222656 12.386719 13.910156 9.464844 13.148438 6.621094 C 12.386719 3.773438 9.464844 2.085938 6.621094 2.847656 C 3.773438 3.613281 2.085938 6.535156 2.847656 9.378906 C 3.613281 12.222656 6.535156 13.914062 9.378906 13.148438 Z M 8.949219 11.539062 C 7.464844 11.9375 5.910156 11.457031 4.976562 10.320312 L 4.273438 10.832031 L 4.320312 8.425781 L 6.769531 9.039062 L 6.03125 9.582031 C 6.65625 10.320312 7.65625 10.613281 8.628906 10.355469 C 9.644531 10.082031 10.398438 9.230469 10.519531 8.230469 L 11.785156 8.363281 C 11.605469 9.863281 10.464844 11.132812 8.949219 11.539062 Z M 11.675781 7.554688 L 9.234375 6.980469 L 9.972656 6.4375 C 9.355469 5.703125 8.335938 5.386719 7.367188 5.644531 C 6.355469 5.917969 5.609375 6.746094 5.472656 7.75 L 4.207031 7.613281 C 4.410156 6.109375 5.527344 4.867188 7.050781 4.457031 C 8.527344 4.0625 10.105469 4.5625 11.027344 5.699219 L 11.738281 5.207031 Z M 11.675781 7.554688 "/>
</g>
</svg>
