<svg xmlns="http://www.w3.org/2000/svg" xmlns:xlink="http://www.w3.org/1999/xlink" width="16" height="16" viewBox="0 0 16 16" version="1.1">
<g id="surface1">
<path style=" stroke:none;fill-rule:nonzero;fill:rgb(96.862745%,0%,100%);fill-opacity:1;" d="M 13.332031 8 C 13.332031 5.054688 10.945312 2.667969 8 2.667969 C 5.054688 2.667969 2.667969 5.054688 2.667969 8 C 2.667969 10.945312 5.054688 13.332031 8 13.332031 C 10.945312 13.332031 13.332031 10.945312 13.332031 8 Z M 11.667969 8 C 11.667969 9.535156 10.796875 10.910156 9.457031 11.519531 L 9.769531 12.332031 L 7.457031 11.667969 L 8.6875 9.457031 L 9.019531 10.3125 C 9.894531 9.898438 10.4375 9.011719 10.4375 8 C 10.4375 6.953125 9.8125 6.003906 8.875 5.625 L 9.332031 4.4375 C 10.734375 5 11.664062 6.429688 11.664062 8 Z M 8.519531 4.332031 L 7.332031 6.542969 L 7 5.6875 C 6.128906 6.097656 5.5625 6.996094 5.5625 8 C 5.5625 9.050781 6.167969 9.984375 7.105469 10.375 L 6.644531 11.5625 C 5.242188 10.976562 4.332031 9.578125 4.332031 8 C 4.332031 6.472656 5.226562 5.074219 6.5625 4.480469 L 6.269531 3.667969 Z M 8.519531 4.332031 "/>
</g>
</svg>
