<svg xmlns="http://www.w3.org/2000/svg" xmlns:xlink="http://www.w3.org/1999/xlink" width="16" height="16" viewBox="0 0 16 16" version="1.1">
<defs>
<filter id="alpha" filterUnits="objectBoundingBox" x="0%" y="0%" width="100%" height="100%">
  <feColorMatrix type="matrix" in="SourceGraphic" values="0 0 0 0 1 0 0 0 0 1 0 0 0 0 1 0 0 0 1 0"/>
</filter>
<mask id="mask0">
  <g filter="url(#alpha)">
<rect x="0" y="0" width="16" height="16" style="fill:rgb(0%,0%,0%);fill-opacity:0.3;stroke:none;"/>
  </g>
</mask>
<clipPath id="clip1">
  <rect x="0" y="0" width="16" height="16"/>
</clipPath>
<g id="surface5" clip-path="url(#clip1)">
<path style=" stroke:none;fill-rule:nonzero;fill:rgb(100%,30.980393%,30.980393%);fill-opacity:1;" d="M 8 2.667969 C 5.054688 2.667969 2.667969 5.054688 2.667969 8 C 2.667969 10.945312 5.054688 13.332031 8 13.332031 C 10.945312 13.332031 13.332031 10.945312 13.332031 8 C 13.332031 5.054688 10.945312 2.667969 8 2.667969 Z M 8 4.332031 C 9.535156 4.332031 10.910156 5.203125 11.519531 6.542969 L 12.332031 6.230469 L 11.667969 8.542969 L 9.457031 7.3125 L 10.3125 6.980469 C 9.898438 6.105469 9.011719 5.5625 8 5.5625 C 6.953125 5.5625 6.003906 6.1875 5.625 7.125 L 4.4375 6.667969 C 5 5.265625 6.429688 4.332031 8 4.332031 Z M 4.332031 7.480469 L 6.542969 8.667969 L 5.6875 9 C 6.097656 9.871094 6.996094 10.4375 8 10.4375 C 9.050781 10.4375 9.984375 9.832031 10.375 8.894531 L 11.5625 9.355469 C 10.976562 10.757812 9.578125 11.667969 8 11.667969 C 6.472656 11.667969 5.074219 10.773438 4.480469 9.4375 L 3.667969 9.730469 Z M 4.332031 7.480469 "/>
</g>
</defs>
<g id="surface1">
<use xlink:href="#surface5" mask="url(#mask0)"/>
</g>
</svg>
