<svg xmlns="http://www.w3.org/2000/svg" xmlns:xlink="http://www.w3.org/1999/xlink" width="16" height="16" viewBox="0 0 16 16" version="1.1">
<defs>
<filter id="alpha" filterUnits="objectBoundingBox" x="0%" y="0%" width="100%" height="100%">
  <feColorMatrix type="matrix" in="SourceGraphic" values="0 0 0 0 1 0 0 0 0 1 0 0 0 0 1 0 0 0 1 0"/>
</filter>
<mask id="mask0">
  <g filter="url(#alpha)">
<rect x="0" y="0" width="16" height="16" style="fill:rgb(0%,0%,0%);fill-opacity:0.3;stroke:none;"/>
  </g>
</mask>
<clipPath id="clip1">
  <rect x="0" y="0" width="16" height="16"/>
</clipPath>
<g id="surface5" clip-path="url(#clip1)">
<path style=" stroke:none;fill-rule:nonzero;fill:rgb(67.058825%,40.000001%,100%);fill-opacity:1;" d="M 2.097656 7.351562 C 2.097656 7.351562 3.363281 5.46875 5.890625 5.273438 L 5.890625 4.59375 C 3.089844 4.820312 0.667969 7.207031 0.667969 7.207031 C 0.667969 7.207031 2.039062 11.207031 5.890625 11.574219 L 5.890625 10.847656 C 3.0625 10.488281 2.097656 7.351562 2.097656 7.351562 Z M 5.890625 9.402344 L 5.890625 10.070312 C 3.753906 9.683594 3.160156 7.449219 3.160156 7.449219 C 3.160156 7.449219 4.1875 6.304688 5.890625 6.117188 L 5.890625 6.847656 C 5.890625 6.847656 5.886719 6.847656 5.886719 6.847656 C 4.992188 6.738281 4.296875 7.578125 4.296875 7.578125 C 4.296875 7.578125 4.6875 8.996094 5.890625 9.402344 M 5.890625 3.332031 L 5.890625 4.59375 C 5.972656 4.585938 6.054688 4.582031 6.136719 4.578125 C 9.320312 4.46875 11.394531 7.207031 11.394531 7.207031 C 11.394531 7.207031 9.011719 10.125 6.53125 10.125 C 6.304688 10.125 6.089844 10.105469 5.890625 10.066406 L 5.890625 10.847656 C 6.0625 10.867188 6.238281 10.882812 6.425781 10.882812 C 8.734375 10.882812 10.402344 9.691406 12.019531 8.289062 C 12.289062 8.503906 13.386719 9.03125 13.609375 9.261719 C 12.074219 10.558594 8.492188 11.601562 6.460938 11.601562 C 6.261719 11.601562 6.074219 11.589844 5.890625 11.570312 L 5.890625 12.667969 L 14.667969 12.667969 L 14.667969 3.332031 Z M 5.890625 6.117188 L 5.890625 5.273438 C 5.972656 5.269531 6.054688 5.265625 6.136719 5.261719 C 8.425781 5.1875 9.925781 7.242188 9.925781 7.242188 C 9.925781 7.242188 8.304688 9.511719 6.566406 9.511719 C 6.316406 9.511719 6.09375 9.472656 5.890625 9.402344 L 5.890625 6.847656 C 6.78125 6.957031 6.960938 7.351562 7.496094 8.25 L 8.6875 7.238281 C 8.6875 7.238281 7.816406 6.089844 6.351562 6.089844 C 6.191406 6.089844 6.039062 6.101562 5.890625 6.117188 "/>
</g>
</defs>
<g id="surface1">
<use xlink:href="#surface5" mask="url(#mask0)"/>
</g>
</svg>
