<svg xmlns="http://www.w3.org/2000/svg" xmlns:xlink="http://www.w3.org/1999/xlink" width="16" height="16" viewBox="0 0 16 16" version="1.1">
<g id="surface1">
<path style=" stroke:none;fill-rule:nonzero;fill:rgb(0%,80.000001%,100%);fill-opacity:1;" d="M 8 2.667969 C 7.398438 2.675781 6.476562 2.816406 6.238281 3.078125 C 5.984375 3.355469 5.929688 3.742188 6 4.175781 C 6.136719 4.996094 7.269531 6.003906 7.941406 6.910156 C 7.9375 6.917969 7.933594 6.921875 7.929688 6.929688 C 7.589844 7.351562 6.882812 7.738281 6.554688 8.0625 C 6.605469 7.824219 6.644531 7.296875 6.652344 7.132812 C 6.660156 6.988281 6.65625 6.878906 6.613281 6.789062 C 6.589844 6.746094 6.550781 6.699219 6.496094 6.683594 C 6.441406 6.667969 6.386719 6.679688 6.339844 6.699219 C 6.207031 7.039062 5.992188 7.488281 5.8125 7.914062 C 5.652344 8.183594 5.535156 8.664062 5.460938 8.835938 C 5.425781 8.925781 5.394531 9.003906 5.378906 9.070312 C 5.359375 9.132812 5.351562 9.1875 5.355469 9.242188 C 5.449219 9.367188 5.597656 9.347656 5.71875 9.355469 C 5.773438 9.355469 5.828125 9.34375 5.890625 9.308594 C 6.03125 9.222656 6.207031 9.085938 6.394531 8.925781 C 6.261719 9.367188 6.238281 9.507812 6.027344 10.003906 C 6.023438 10.011719 6.019531 10.019531 6.015625 10.023438 C 4.890625 9.871094 3.714844 9.96875 2.921875 10.242188 C 2.503906 10.386719 2.183594 10.707031 2.058594 11.058594 C 1.933594 11.410156 2.007812 11.859375 2.324219 12.417969 C 2.636719 12.972656 2.984375 13.226562 3.355469 13.308594 C 3.722656 13.386719 4.09375 13.28125 4.433594 13.007812 C 5.085938 12.480469 5.675781 11.257812 6.132812 10.226562 C 6.140625 10.230469 6.148438 10.230469 6.15625 10.230469 C 6.695312 10.308594 7.210938 11.035156 7.660156 11.152344 C 7.425781 11.226562 7.148438 11.304688 7 11.378906 C 6.871094 11.445312 6.777344 11.503906 6.71875 11.585938 C 6.691406 11.628906 6.671875 11.683594 6.683594 11.738281 C 6.695312 11.792969 6.734375 11.835938 6.777344 11.867188 C 6.867188 11.925781 6.992188 11.960938 7.179688 11.988281 C 7.367188 12.015625 7.679688 12.03125 7.996094 12.035156 C 8 12.035156 8 12.035156 8 12.035156 C 8 12.035156 8 12.035156 8.003906 12.035156 C 8.320312 12.03125 8.632812 12.015625 8.820312 11.988281 C 9.007812 11.960938 9.132812 11.925781 9.222656 11.867188 C 9.265625 11.835938 9.304688 11.792969 9.316406 11.738281 C 9.328125 11.683594 9.308594 11.628906 9.28125 11.585938 C 9.222656 11.503906 9.128906 11.445312 9 11.378906 C 8.851562 11.304688 8.574219 11.226562 8.339844 11.152344 C 8.789062 11.035156 9.304688 10.308594 9.84375 10.230469 C 9.851562 10.230469 9.859375 10.230469 9.867188 10.226562 C 10.324219 11.257812 10.914062 12.480469 11.566406 13.007812 C 11.90625 13.28125 12.277344 13.386719 12.644531 13.308594 C 13.015625 13.226562 13.363281 12.972656 13.675781 12.417969 C 13.992188 11.859375 14.066406 11.410156 13.941406 11.058594 C 13.816406 10.707031 13.496094 10.386719 13.078125 10.242188 C 12.285156 9.96875 11.109375 9.871094 9.984375 10.023438 C 9.980469 10.019531 9.976562 10.011719 9.972656 10.003906 C 9.761719 9.507812 9.738281 9.367188 9.605469 8.925781 C 9.792969 9.085938 9.96875 9.222656 10.109375 9.308594 C 10.171875 9.34375 10.226562 9.355469 10.28125 9.355469 C 10.402344 9.347656 10.550781 9.367188 10.644531 9.242188 C 10.648438 9.1875 10.640625 9.132812 10.621094 9.070312 C 10.605469 9.003906 10.574219 8.925781 10.539062 8.835938 C 10.464844 8.664062 10.347656 8.183594 10.1875 7.914062 C 10.007812 7.488281 9.792969 7.039062 9.660156 6.699219 C 9.613281 6.679688 9.558594 6.667969 9.503906 6.683594 C 9.449219 6.699219 9.410156 6.746094 9.386719 6.789062 C 9.34375 6.878906 9.339844 6.988281 9.347656 7.132812 C 9.355469 7.296875 9.394531 7.824219 9.445312 8.0625 C 9.117188 7.738281 8.410156 7.351562 8.070312 6.929688 C 8.066406 6.921875 8.0625 6.917969 8.058594 6.910156 C 8.730469 6.003906 9.863281 4.996094 10 4.175781 C 10.070312 3.742188 10.015625 3.355469 9.761719 3.078125 C 9.523438 2.816406 8.601562 2.675781 8 2.667969 Z M 8 2.667969 "/>
</g>
</svg>
