<svg xmlns="http://www.w3.org/2000/svg" xmlns:xlink="http://www.w3.org/1999/xlink" width="16" height="16" viewBox="0 0 16 16" version="1.1">
<g id="surface1">
<path style=" stroke:none;fill-rule:nonzero;fill:rgb(0%,80.000001%,100%);fill-opacity:1;" d="M 5.332031 6.667969 C 3.859375 6.667969 2.667969 7.859375 2.667969 9.332031 C 2.667969 10.804688 3.859375 12 5.332031 12 C 5.496094 12 5.65625 11.984375 5.816406 11.953125 C 6.308594 12.988281 7.304688 13.332031 9.332031 13.332031 C 13.332031 13.332031 13.332031 12 13.332031 6.667969 Z M 5.332031 8 L 5.339844 8 C 5.347656 9.0625 5.375 9.957031 5.46875 10.65625 C 5.421875 10.664062 5.378906 10.664062 5.332031 10.667969 C 4.597656 10.667969 4 10.070312 4 9.332031 C 4 8.597656 4.597656 8 5.332031 8 Z M 5.332031 8 "/>
</g>
</svg>
