<svg xmlns="http://www.w3.org/2000/svg" xmlns:xlink="http://www.w3.org/1999/xlink" width="16" height="16" viewBox="0 0 16 16" version="1.1">
<defs>
<filter id="alpha" filterUnits="objectBoundingBox" x="0%" y="0%" width="100%" height="100%">
  <feColorMatrix type="matrix" in="SourceGraphic" values="0 0 0 0 1 0 0 0 0 1 0 0 0 0 1 0 0 0 1 0"/>
</filter>
<mask id="mask0">
  <g filter="url(#alpha)">
<rect x="0" y="0" width="16" height="16" style="fill:rgb(0%,0%,0%);fill-opacity:0.3;stroke:none;"/>
  </g>
</mask>
<clipPath id="clip1">
  <rect x="0" y="0" width="16" height="16"/>
</clipPath>
<g id="surface5" clip-path="url(#clip1)">
<path style=" stroke:none;fill-rule:nonzero;fill:rgb(100%,74.901962%,0%);fill-opacity:1;" d="M 4 2.667969 C 3.628906 2.667969 3.332031 2.964844 3.332031 3.332031 L 3.332031 12.667969 C 3.332031 13.035156 3.628906 13.332031 4 13.332031 L 4.667969 13.332031 L 4.667969 2.667969 Z M 4 2.667969 "/>
</g>
</defs>
<g id="surface1">
<path style=" stroke:none;fill-rule:nonzero;fill:rgb(100%,74.901962%,0%);fill-opacity:1;" d="M 4.667969 2.667969 L 4.667969 13.332031 L 12 13.332031 C 12.371094 13.332031 12.667969 13.035156 12.667969 12.667969 L 12.667969 3.332031 C 12.667969 2.964844 12.371094 2.667969 12 2.667969 Z M 4.667969 2.667969 "/>
<path style=" stroke:none;fill-rule:nonzero;fill:rgb(25.882354%,52.156866%,95.686275%);fill-opacity:1;" d="M 9.332031 2.667969 L 9.332031 7.332031 L 10.667969 7.332031 L 10.667969 2.667969 Z M 9.332031 2.667969 "/>
<use xlink:href="#surface5" mask="url(#mask0)"/>
</g>
</svg>
