<svg xmlns="http://www.w3.org/2000/svg" xmlns:xlink="http://www.w3.org/1999/xlink" width="16" height="16" viewBox="0 0 16 16" version="1.1">
<g id="surface1">
<path style=" stroke:none;fill-rule:nonzero;fill:rgb(0%,80.000001%,100%);fill-opacity:1;" d="M 8 2.667969 C 6.007812 2.667969 4.277344 3.75 3.363281 5.363281 C 4.140625 4.921875 5.039062 4.667969 6 4.667969 C 6.351562 4.667969 6.691406 4.703125 7.023438 4.765625 C 7.023438 4.761719 7.023438 4.757812 7.027344 4.757812 C 7.097656 4.566406 7.183594 4.386719 7.273438 4.207031 C 7.285156 4.191406 7.292969 4.175781 7.300781 4.15625 C 7.386719 4 7.480469 3.84375 7.578125 3.695312 C 7.597656 3.667969 7.617188 3.636719 7.636719 3.605469 C 7.738281 3.460938 7.847656 3.324219 7.960938 3.191406 C 7.980469 3.167969 7.996094 3.144531 8.015625 3.125 C 8.152344 2.972656 8.296875 2.824219 8.449219 2.6875 C 8.300781 2.675781 8.152344 2.667969 8 2.667969 Z M 10.152344 3.117188 C 9.957031 3.21875 9.777344 3.339844 9.605469 3.46875 C 9.5625 3.5 9.523438 3.535156 9.480469 3.570312 C 9.339844 3.6875 9.203125 3.808594 9.078125 3.945312 C 9.058594 3.964844 9.035156 3.988281 9.015625 4.007812 C 8.710938 4.355469 8.464844 4.75 8.289062 5.1875 C 9.519531 5.769531 10.480469 6.816406 10.96875 8.09375 C 11.199219 8.039062 11.433594 8.003906 11.667969 8.003906 C 12.238281 8.003906 12.804688 8.167969 13.300781 8.488281 C 13.316406 8.324219 13.332031 8.164062 13.332031 8 C 13.332031 5.8125 12.027344 3.941406 10.152344 3.117188 Z M 6 6 C 4.613281 6 3.394531 6.699219 2.679688 7.761719 C 2.675781 7.84375 2.667969 7.921875 2.667969 8 C 2.667969 10.953125 5.046875 13.332031 8 13.332031 C 8.078125 13.332031 8.15625 13.324219 8.234375 13.320312 L 8.238281 13.320312 C 8.5625 13.101562 8.851562 12.835938 9.101562 12.53125 C 8.789062 12.011719 8.652344 11.417969 8.6875 10.832031 C 8.621094 10.777344 8.546875 10.730469 8.484375 10.675781 C 8.480469 10.675781 8.480469 10.671875 8.476562 10.671875 C 8.300781 10.515625 8.140625 10.351562 7.988281 10.175781 C 7.964844 10.152344 7.945312 10.128906 7.925781 10.105469 C 7.785156 9.941406 7.65625 9.769531 7.535156 9.585938 C 7.527344 9.574219 7.519531 9.558594 7.507812 9.546875 C 7.386719 9.359375 7.28125 9.160156 7.183594 8.957031 C 7.167969 8.917969 7.148438 8.878906 7.132812 8.839844 C 7.042969 8.640625 6.964844 8.441406 6.902344 8.234375 C 6.898438 8.21875 6.890625 8.207031 6.886719 8.191406 C 6.824219 7.976562 6.777344 7.753906 6.742188 7.527344 C 6.730469 7.476562 6.722656 7.421875 6.71875 7.371094 C 6.6875 7.140625 6.667969 6.90625 6.667969 6.667969 C 6.667969 6.464844 6.679688 6.261719 6.699219 6.066406 C 6.472656 6.023438 6.238281 6 6 6 Z M 8.007812 6.542969 C 8.007812 6.582031 8 6.625 8 6.667969 C 8 6.832031 8.011719 6.996094 8.03125 7.15625 C 8.039062 7.203125 8.046875 7.253906 8.054688 7.300781 C 8.074219 7.417969 8.097656 7.535156 8.125 7.648438 C 8.136719 7.695312 8.148438 7.742188 8.160156 7.789062 C 8.207031 7.9375 8.253906 8.085938 8.316406 8.230469 C 8.378906 8.382812 8.457031 8.527344 8.539062 8.667969 C 8.546875 8.6875 8.558594 8.707031 8.570312 8.726562 C 8.648438 8.851562 8.734375 8.976562 8.824219 9.09375 C 8.832031 9.105469 8.839844 9.117188 8.847656 9.128906 C 8.933594 9.238281 9.023438 9.335938 9.117188 9.433594 C 9.238281 9.238281 9.375 9.046875 9.546875 8.878906 C 9.617188 8.808594 9.699219 8.753906 9.773438 8.691406 C 9.457031 7.78125 8.832031 7.019531 8.007812 6.542969 Z M 11.632812 8.667969 C 11.027344 8.675781 10.445312 8.921875 10.015625 9.351562 C 9.105469 10.261719 9.105469 11.738281 10.015625 12.648438 C 10.929688 13.5625 12.40625 13.5625 13.316406 12.648438 C 14.226562 11.738281 14.226562 10.261719 13.316406 9.351562 C 12.871094 8.902344 12.261719 8.65625 11.632812 8.667969 Z M 11.695312 9.332031 C 12.125 9.339844 12.539062 9.515625 12.84375 9.820312 C 13.402344 10.382812 13.492188 11.257812 13.054688 11.917969 L 10.746094 9.609375 C 11.027344 9.425781 11.359375 9.328125 11.695312 9.332031 Z M 10.277344 10.082031 L 12.585938 12.390625 C 11.925781 12.828125 11.046875 12.738281 10.488281 12.179688 C 9.929688 11.617188 9.84375 10.742188 10.277344 10.082031 Z M 10.277344 10.082031 "/>
</g>
</svg>
