<svg xmlns="http://www.w3.org/2000/svg" xmlns:xlink="http://www.w3.org/1999/xlink" width="16" height="16" viewBox="0 0 16 16" version="1.1">
<g id="surface1">
<path style=" stroke:none;fill-rule:nonzero;fill:rgb(100%,30.980393%,30.980393%);fill-opacity:1;" d="M 11.792969 3.445312 L 11.511719 3.210938 C 11.09375 2.859375 10.566406 2.667969 10.027344 2.667969 C 9.308594 2.667969 8.640625 2.996094 8.191406 3.574219 L 3.859375 9.113281 C 3.460938 9.621094 3.28125 10.257812 3.347656 10.910156 C 3.414062 11.558594 3.71875 12.140625 4.210938 12.554688 L 4.492188 12.789062 C 4.910156 13.140625 5.4375 13.332031 5.972656 13.332031 C 6.058594 13.332031 6.140625 13.328125 6.222656 13.320312 C 6.847656 13.25 7.410156 12.9375 7.800781 12.4375 C 7.804688 12.4375 7.804688 12.4375 10.722656 8.699219 C 11.242188 8.035156 11.144531 7.054688 10.5 6.515625 L 10.355469 6.394531 C 10.089844 6.171875 9.753906 6.046875 9.414062 6.046875 C 8.957031 6.046875 8.53125 6.257812 8.246094 6.625 L 5.328125 10.355469 C 5.140625 10.597656 5.175781 10.957031 5.410156 11.15625 C 5.507812 11.238281 5.632812 11.28125 5.757812 11.28125 C 5.921875 11.28125 6.078125 11.207031 6.183594 11.070312 L 9.101562 7.339844 C 9.175781 7.242188 9.289062 7.1875 9.410156 7.1875 C 9.503906 7.1875 9.589844 7.21875 9.664062 7.277344 L 9.808594 7.402344 C 9.894531 7.472656 9.945312 7.570312 9.957031 7.679688 C 9.96875 7.789062 9.9375 7.898438 9.871094 7.984375 L 6.957031 11.710938 C 6.714844 12.019531 6.359375 12.195312 5.976562 12.195312 C 5.6875 12.195312 5.40625 12.09375 5.183594 11.90625 L 4.902344 11.667969 C 4.640625 11.449219 4.476562 11.140625 4.441406 10.792969 C 4.40625 10.445312 4.503906 10.105469 4.714844 9.832031 L 9.046875 4.289062 C 9.285156 3.980469 9.644531 3.804688 10.027344 3.804688 C 10.316406 3.804688 10.597656 3.910156 10.820312 4.097656 L 11.101562 4.332031 C 11.644531 4.785156 11.726562 5.609375 11.289062 6.171875 C 11.195312 6.289062 11.152344 6.4375 11.167969 6.589844 C 11.183594 6.738281 11.257812 6.875 11.371094 6.972656 C 11.46875 7.050781 11.589844 7.097656 11.714844 7.097656 C 11.882812 7.097656 12.039062 7.019531 12.144531 6.886719 C 12.539062 6.378906 12.722656 5.742188 12.652344 5.089844 C 12.585938 4.441406 12.28125 3.855469 11.792969 3.445312 Z M 11.792969 3.445312 "/>
</g>
</svg>
