<svg xmlns="http://www.w3.org/2000/svg" xmlns:xlink="http://www.w3.org/1999/xlink" width="16" height="16" viewBox="0 0 16 16" version="1.1">
<g id="surface1">
<path style=" stroke:none;fill-rule:nonzero;fill:rgb(0%,100%,66.666669%);fill-opacity:1;" d="M 7.644531 4 C 6.121094 4 4.765625 4.996094 4.277344 6.472656 C 3.292969 6.957031 2.667969 7.972656 2.667969 9.089844 C 2.667969 10.699219 3.941406 12 5.511719 12 C 6.207031 12 6.882812 11.734375 7.402344 11.257812 C 7.480469 11.265625 7.5625 11.269531 7.644531 11.273438 C 8.164062 11.269531 8.675781 11.152344 9.148438 10.925781 C 9.558594 11.152344 10.019531 11.273438 10.488281 11.273438 C 12.058594 11.273438 13.332031 9.96875 13.332031 8.363281 C 13.332031 6.757812 12.058594 5.453125 10.488281 5.453125 L 10.484375 5.453125 C 9.8125 4.539062 8.761719 4 7.644531 4 Z M 7.644531 4 "/>
</g>
</svg>
