<svg xmlns="http://www.w3.org/2000/svg" xmlns:xlink="http://www.w3.org/1999/xlink" width="16" height="16" viewBox="0 0 16 16" version="1.1">
<g id="surface1">
<path style=" stroke:none;fill-rule:nonzero;fill:rgb(100%,74.901962%,0%);fill-opacity:1;" d="M 5.867188 3.332031 C 4.09375 3.332031 2.667969 4.761719 2.667969 6.535156 L 2.667969 10.800781 C 2.667969 11.496094 2.886719 12.140625 3.265625 12.667969 L 6.039062 12.667969 C 4.925781 11.820312 4.597656 11.410156 4.597656 11.410156 C 4.597656 11.410156 4.851562 11.28125 5.230469 11.105469 C 5.609375 10.929688 6.054688 10.9375 6.441406 10.648438 C 6.441406 10.648438 7.480469 11.847656 8.515625 12.667969 L 10.25 12.667969 C 9.925781 12.453125 9.605469 12.230469 9.292969 11.996094 C 7.519531 10.644531 6.558594 8.3125 6.558594 8.3125 C 6.558594 8.3125 8.078125 6.480469 11.226562 5.710938 C 11.832031 5.5625 12.515625 5.476562 13.140625 5.445312 C 13.140625 5.449219 13.144531 5.449219 13.144531 5.449219 C 13.167969 5.523438 13.191406 5.59375 13.210938 5.667969 C 13.214844 5.679688 13.21875 5.6875 13.21875 5.699219 C 13.25 5.808594 13.273438 5.921875 13.289062 6.035156 C 13.292969 6.042969 13.292969 6.050781 13.292969 6.058594 C 13.3125 6.179688 13.324219 6.300781 13.328125 6.425781 C 13.328125 6.425781 13.328125 6.429688 13.328125 6.429688 C 13.328125 6.433594 13.328125 6.433594 13.328125 6.4375 C 12.753906 6.574219 11.910156 6.789062 11.21875 7.070312 C 9.941406 7.589844 8.6875 8.851562 8.6875 8.851562 C 8.6875 8.851562 8.6875 9.382812 9.898438 10.914062 C 10.539062 11.730469 11.25 12.300781 11.792969 12.667969 L 12.734375 12.667969 C 13.109375 12.140625 13.332031 11.496094 13.332031 10.800781 L 13.332031 8.363281 C 12.742188 8.71875 12.175781 9.175781 11.761719 9.71875 C 11.792969 10.335938 12.117188 11.945312 12.117188 11.945312 C 10.816406 10.632812 10.441406 9.425781 10.441406 9.425781 C 10.441406 9.425781 11.226562 8.160156 13.136719 7.289062 C 13.1875 7.265625 13.269531 7.246094 13.332031 7.222656 L 13.332031 6.535156 C 13.332031 4.761719 11.90625 3.332031 10.132812 3.332031 Z M 5.867188 3.332031 "/>
</g>
</svg>
