<svg xmlns="http://www.w3.org/2000/svg" xmlns:xlink="http://www.w3.org/1999/xlink" width="16" height="16" viewBox="0 0 16 16" version="1.1">
<g id="surface1">
<path style=" stroke:none;fill-rule:nonzero;fill:rgb(0%,80.000001%,100%);fill-opacity:1;" d="M 5 3.332031 C 3.710938 3.332031 2.667969 4.378906 2.667969 5.667969 C 2.667969 6.957031 3.710938 8 5 8 C 5.339844 8 5.675781 7.925781 5.984375 7.78125 L 7 9 L 3.332031 13.332031 L 8 10 L 12.667969 13.332031 L 9 9 L 10.015625 7.777344 C 10.324219 7.921875 10.660156 8 11 8 C 12.289062 8 13.332031 6.957031 13.332031 5.667969 C 13.332031 5.660156 13.332031 5.65625 13.332031 5.648438 C 13.332031 5.636719 13.332031 5.625 13.332031 5.609375 C 13.328125 5.503906 13.316406 5.402344 13.300781 5.296875 C 13.289062 5.21875 13.269531 5.140625 13.25 5.0625 C 13.238281 5.015625 13.226562 4.96875 13.210938 4.925781 C 13.167969 4.792969 13.113281 4.671875 13.046875 4.546875 C 12.945312 4.355469 12.824219 4.171875 12.664062 4.007812 C 12.308594 3.648438 11.859375 3.4375 11.398438 3.367188 C 11.390625 3.367188 11.386719 3.367188 11.378906 3.363281 C 11.277344 3.347656 11.175781 3.339844 11.070312 3.335938 C 11.0625 3.335938 11.054688 3.332031 11.046875 3.332031 C 11.042969 3.332031 11.039062 3.335938 11.035156 3.335938 C 11.023438 3.335938 11.011719 3.332031 11 3.332031 C 9.710938 3.332031 8.667969 4.378906 8.667969 5.667969 C 8.667969 6.035156 8.753906 6.394531 8.921875 6.722656 L 8 8 L 7.078125 6.726562 C 7.246094 6.398438 7.332031 6.035156 7.332031 5.667969 C 7.332031 4.378906 6.289062 3.332031 5 3.332031 Z M 5 4.667969 C 5.550781 4.667969 6 5.113281 6 5.667969 C 6 6.21875 5.550781 6.667969 5 6.667969 C 4.449219 6.667969 4 6.21875 4 5.667969 C 4 5.113281 4.449219 4.667969 5 4.667969 Z M 11 4.667969 C 11.550781 4.667969 12 5.113281 12 5.667969 C 12 6.21875 11.550781 6.667969 11 6.667969 C 10.449219 6.667969 10 6.21875 10 5.667969 C 10 5.113281 10.449219 4.667969 11 4.667969 Z M 11 4.667969 "/>
</g>
</svg>
