<svg xmlns="http://www.w3.org/2000/svg" xmlns:xlink="http://www.w3.org/1999/xlink" width="16" height="16" viewBox="0 0 16 16" version="1.1">
<g id="surface1">
<path style=" stroke:none;fill-rule:nonzero;fill:rgb(96.862745%,0%,100%);fill-opacity:1;" d="M 13.757812 2.015625 L 13.34375 2.519531 C 13.464844 2.628906 13.570312 2.753906 13.660156 2.886719 L 14 2.234375 Z M 4 5 L 1.332031 7.332031 L 4.25 6.917969 L 5.332031 13.332031 L 7.59375 11.800781 L 14 13.667969 L 12 8.667969 L 10.667969 7.734375 L 7.164062 10.726562 L 5 5.332031 Z M 10.804688 5.601562 L 10.011719 6.5625 L 11.332031 7.332031 L 12.03125 6 C 12.019531 6 12.011719 6 12 6 C 11.570312 6 11.148438 5.859375 10.804688 5.601562 Z M 8.667969 6.6875 L 6.667969 7.332031 L 7.332031 9.332031 L 10 7.332031 Z M 8.667969 6.6875 "/>
<path style=" stroke:none;fill-rule:nonzero;fill:rgb(25.882354%,52.156866%,95.686275%);fill-opacity:1;" d="M 13.332031 4 C 13.332031 4.738281 12.738281 5.332031 12 5.332031 C 11.261719 5.332031 10.667969 4.738281 10.667969 4 C 10.667969 3.261719 11.261719 2.667969 12 2.667969 C 12.738281 2.667969 13.332031 3.261719 13.332031 4 Z M 13.332031 4 "/>
</g>
</svg>
