<svg xmlns="http://www.w3.org/2000/svg" xmlns:xlink="http://www.w3.org/1999/xlink" width="16" height="16" viewBox="0 0 16 16" version="1.1">
<defs>
<filter id="alpha" filterUnits="objectBoundingBox" x="0%" y="0%" width="100%" height="100%">
  <feColorMatrix type="matrix" in="SourceGraphic" values="0 0 0 0 1 0 0 0 0 1 0 0 0 0 1 0 0 0 1 0"/>
</filter>
<mask id="mask0">
  <g filter="url(#alpha)">
<rect x="0" y="0" width="16" height="16" style="fill:rgb(0%,0%,0%);fill-opacity:0.3;stroke:none;"/>
  </g>
</mask>
<clipPath id="clip1">
  <rect x="0" y="0" width="16" height="16"/>
</clipPath>
<g id="surface5" clip-path="url(#clip1)">
<path style=" stroke:none;fill-rule:nonzero;fill:rgb(67.058825%,40.000001%,100%);fill-opacity:1;" d="M 13.757812 2.015625 L 10.011719 6.5625 L 11.332031 7.332031 L 14 2.234375 Z M 4 5 L 1.332031 7.332031 L 4.25 6.917969 L 5.332031 13.332031 L 7.59375 11.800781 L 8 11.917969 L 8 10.015625 L 7.164062 10.726562 L 5 5.332031 Z M 8.667969 6.6875 L 6.667969 7.332031 L 7.332031 9.332031 L 8 8.832031 L 8 8.667969 L 8.222656 8.667969 L 10 7.332031 Z M 10.667969 7.734375 L 9.574219 8.667969 L 12 8.667969 Z M 10.667969 7.734375 "/>
</g>
</defs>
<g id="surface1">
<use xlink:href="#surface5" mask="url(#mask0)"/>
<path style=" stroke:none;fill-rule:evenodd;fill:rgb(67.058825%,40.000001%,100%);fill-opacity:1;" d="M 8.667969 9.332031 L 8.667969 13.332031 L 10.667969 13.332031 L 10.667969 9.332031 Z M 11.332031 9.332031 L 11.332031 13.332031 L 13.332031 13.332031 L 13.332031 9.332031 Z M 11.332031 9.332031 "/>
</g>
</svg>
