<svg xmlns="http://www.w3.org/2000/svg" xmlns:xlink="http://www.w3.org/1999/xlink" width="16" height="16" viewBox="0 0 16 16" version="1.1">
<g id="surface1">
<path style=" stroke:none;fill-rule:nonzero;fill:rgb(100%,30.980393%,30.980393%);fill-opacity:1;" d="M 3.332031 2.667969 L 3.332031 4 L 2.667969 4 L 2.667969 12 L 3.332031 12 L 3.332031 13.332031 L 4.667969 13.332031 L 4.667969 12 L 6 12 L 6 13.332031 L 7.332031 13.332031 L 7.332031 12 L 8.667969 12 L 8.667969 13.332031 L 10 13.332031 L 10 12 L 11.332031 12 L 11.332031 13.332031 L 12.667969 13.332031 L 12.667969 12 L 13.332031 12 L 13.332031 4 L 12.667969 4 L 12.667969 2.667969 L 11.332031 2.667969 L 11.332031 4 L 10 4 L 10 2.667969 L 8.667969 2.667969 L 8.667969 4 L 7.332031 4 L 7.332031 2.667969 L 6 2.667969 L 6 4 L 4.667969 4 L 4.667969 2.667969 Z M 4 5.332031 L 7.332031 5.332031 L 7.332031 6.667969 L 6.667969 6.667969 L 6.667969 6 L 4.667969 6 L 4.667969 8 L 5.332031 8 L 5.332031 10 L 6.667969 10 L 6.667969 9.332031 L 7.332031 9.332031 L 7.332031 10.667969 L 4 10.667969 Z M 8.667969 5.332031 L 12 5.332031 L 12 6.667969 L 11.332031 6.667969 L 11.332031 6 L 9.332031 6 L 9.332031 8 L 10 8 L 10 10 L 11.332031 10 L 11.332031 9.332031 L 12 9.332031 L 12 10.667969 L 8.667969 10.667969 Z M 8.667969 5.332031 "/>
</g>
</svg>
