<svg xmlns="http://www.w3.org/2000/svg" xmlns:xlink="http://www.w3.org/1999/xlink" width="16" height="16" viewBox="0 0 16 16" version="1.1">
<defs>
<filter id="alpha" filterUnits="objectBoundingBox" x="0%" y="0%" width="100%" height="100%">
  <feColorMatrix type="matrix" in="SourceGraphic" values="0 0 0 0 1 0 0 0 0 1 0 0 0 0 1 0 0 0 1 0"/>
</filter>
<mask id="mask0">
  <g filter="url(#alpha)">
<rect x="0" y="0" width="16" height="16" style="fill:rgb(0%,0%,0%);fill-opacity:0.3;stroke:none;"/>
  </g>
</mask>
<clipPath id="clip1">
  <rect x="0" y="0" width="16" height="16"/>
</clipPath>
<g id="surface5" clip-path="url(#clip1)">
<path style=" stroke:none;fill-rule:nonzero;fill:rgb(67.058825%,40.000001%,100%);fill-opacity:1;" d="M 8 2.667969 C 5.054688 2.667969 2.667969 5.054688 2.667969 8 C 2.667969 9.738281 3.503906 11.277344 4.789062 12.25 C 4.8125 12.238281 4.835938 12.226562 4.859375 12.214844 C 5.242188 11.988281 5.609375 11.722656 5.960938 11.4375 C 4.789062 10.742188 4 9.464844 4 8 C 4 5.789062 5.789062 4 8 4 C 8.484375 4 8.945312 4.089844 9.375 4.246094 C 9.375 3.882812 9.359375 3.523438 9.296875 3.164062 C 9.332031 3.042969 9.347656 2.976562 9.375 2.855469 C 9.375 2.851562 9.375 2.851562 9.375 2.851562 C 8.933594 2.734375 8.476562 2.667969 8 2.667969 Z M 9.453125 2.871094 C 9.558594 3.351562 9.59375 3.839844 9.59375 4.332031 C 11.007812 4.949219 12 6.359375 12 8 C 12 10.210938 10.210938 12 8 12 C 7.355469 12 6.746094 11.84375 6.207031 11.570312 C 6.203125 11.578125 6.195312 11.582031 6.191406 11.585938 C 5.804688 11.902344 5.386719 12.160156 4.945312 12.367188 C 5.8125 12.972656 6.863281 13.332031 8 13.332031 C 10.945312 13.332031 13.332031 10.945312 13.332031 8 C 13.332031 5.558594 11.691406 3.503906 9.453125 2.871094 Z M 9.453125 2.871094 "/>
</g>
</defs>
<g id="surface1">
<use xlink:href="#surface5" mask="url(#mask0)"/>
<path style=" stroke:none;fill-rule:nonzero;fill:rgb(67.058825%,40.000001%,100%);fill-opacity:1;" d="M 9.410156 2.667969 C 9.398438 2.742188 9.390625 2.777344 9.375 2.855469 C 9.347656 2.976562 9.332031 3.042969 9.296875 3.164062 C 9.402344 3.757812 9.402344 4.371094 9.347656 4.96875 C 9.332031 5.105469 9.3125 5.238281 9.289062 5.375 C 9.277344 5.40625 9.539062 5.398438 9.539062 5.398438 C 9.558594 5.257812 9.574219 5.117188 9.578125 4.980469 C 9.613281 4.207031 9.609375 3.425781 9.410156 2.667969 Z M 9.277344 5.40625 C 9.023438 5.632812 8.765625 5.871094 8.574219 6.144531 C 8.117188 6.800781 7.824219 7.632812 7.230469 8.199219 C 6.988281 8.429688 6.707031 8.628906 6.417969 8.804688 C 6.570312 8.828125 6.738281 8.84375 6.890625 8.8125 C 6.585938 9.007812 6.242188 9.191406 5.992188 9.449219 C 5.867188 9.574219 5.738281 9.707031 5.617188 9.835938 C 5.714844 9.777344 5.828125 9.710938 5.945312 9.707031 C 6.140625 9.707031 6.511719 9.492188 6.511719 9.492188 C 6.511719 9.492188 5.8125 9.941406 5.523438 10.222656 C 5.359375 10.378906 5.175781 10.53125 5.035156 10.714844 C 4.910156 10.878906 4.90625 10.875 4.90625 10.875 C 5.144531 10.785156 5.382812 10.695312 5.632812 10.644531 C 5.53125 10.679688 5.484375 10.695312 5.382812 10.730469 C 5.164062 10.816406 4.910156 10.882812 4.722656 10.992188 C 4.386719 11.191406 4.050781 11.695312 3.816406 12.03125 C 3.691406 12.207031 3.484375 12.359375 3.382812 12.539062 C 3.324219 12.644531 3.328125 12.753906 3.34375 12.78125 C 3.445312 12.96875 3.960938 13.132812 4.246094 13.199219 C 4.585938 13.28125 4.945312 13.320312 5.296875 13.332031 C 5.503906 13.289062 5.71875 13.203125 5.875 13.058594 C 6.082031 12.859375 6.382812 12.667969 6.503906 12.410156 C 6.570312 12.261719 6.675781 12.179688 6.679688 12.175781 C 6.523438 12.433594 6.351562 12.6875 6.164062 12.925781 C 6.074219 13.039062 5.953125 13.183594 5.953125 13.183594 C 6.160156 13.109375 6.378906 12.984375 6.582031 12.953125 C 6.710938 12.929688 6.847656 12.871094 6.945312 12.78125 C 7.050781 12.6875 7.207031 12.648438 7.296875 12.550781 C 7.550781 12.277344 7.722656 11.863281 7.964844 11.578125 C 7.996094 11.542969 8.070312 11.449219 8.125 11.371094 C 8.171875 11.308594 8.207031 11.257812 8.207031 11.257812 C 8.078125 11.546875 7.949219 11.84375 7.804688 12.128906 C 7.804688 12.132812 7.804688 12.132812 7.804688 12.136719 C 7.761719 12.214844 7.695312 12.292969 7.628906 12.363281 C 7.621094 12.371094 7.613281 12.378906 7.601562 12.390625 C 7.589844 12.402344 7.597656 12.402344 7.617188 12.394531 C 7.875 12.257812 8.105469 12.046875 8.351562 11.882812 C 8.359375 11.878906 8.367188 11.875 8.371094 11.871094 C 8.558594 11.765625 8.722656 11.574219 8.859375 11.421875 C 8.988281 11.28125 9.054688 11.195312 9.085938 10.988281 C 9.089844 10.984375 9.089844 10.976562 9.089844 10.972656 C 9.132812 10.675781 9.175781 10.382812 9.238281 10.089844 C 9.253906 10.03125 9.261719 9.976562 9.269531 9.9375 C 9.269531 9.933594 9.269531 9.925781 9.273438 9.921875 C 9.273438 9.910156 9.277344 9.902344 9.277344 9.890625 C 9.277344 9.886719 9.277344 9.882812 9.28125 9.878906 C 9.28125 9.867188 9.28125 9.863281 9.285156 9.855469 C 9.285156 9.851562 9.285156 9.835938 9.289062 9.832031 C 9.289062 9.820312 9.308594 9.769531 9.308594 9.769531 L 9.308594 9.800781 C 9.296875 10.316406 9.214844 10.871094 9.292969 11.378906 C 9.351562 11.753906 9.386719 11.675781 9.386719 11.675781 C 9.417969 11.234375 9.375 10.695312 9.519531 10.292969 C 9.617188 10.023438 9.777344 9.726562 9.828125 9.433594 C 9.878906 9.132812 9.878906 8.8125 9.871094 8.503906 C 9.859375 8.105469 9.835938 7.703125 9.777344 7.304688 C 9.832031 7.496094 9.910156 7.691406 9.917969 7.886719 C 9.929688 8.070312 9.933594 8.261719 9.941406 8.449219 C 9.984375 8.21875 10.015625 7.96875 9.992188 7.734375 C 9.964844 7.519531 10.007812 7.296875 9.984375 7.085938 C 9.953125 6.808594 9.945312 6.507812 9.847656 6.242188 C 9.757812 5.984375 9.640625 5.726562 9.570312 5.464844 C 9.566406 5.441406 9.550781 5.421875 9.53125 5.40625 C 9.429688 6.117188 9.1875 6.839844 8.964844 7.5 C 8.683594 8.339844 8.230469 9.046875 7.804688 9.804688 C 7.414062 10.503906 6.796875 11.089844 6.191406 11.585938 C 5.660156 12.019531 5.074219 12.347656 4.441406 12.585938 C 4.246094 12.660156 4.027344 12.683594 3.820312 12.691406 C 3.667969 12.695312 3.558594 12.6875 3.550781 12.6875 C 4.003906 12.589844 4.460938 12.449219 4.859375 12.214844 C 5.972656 11.554688 7.015625 10.65625 7.667969 9.507812 C 8.082031 8.78125 8.472656 8.0625 8.746094 7.265625 C 8.949219 6.664062 9.160156 6.039062 9.277344 5.40625 Z M 9.277344 5.40625 "/>
</g>
</svg>
