<svg xmlns="http://www.w3.org/2000/svg" xmlns:xlink="http://www.w3.org/1999/xlink" width="16" height="16" viewBox="0 0 16 16" version="1.1">
<g id="surface1">
<path style=" stroke:none;fill-rule:nonzero;fill:rgb(0%,80.000001%,100%);fill-opacity:1;" d="M 9.667969 2.667969 C 7.640625 2.667969 6 4.308594 6 6.332031 C 6 8.359375 7.640625 10 9.667969 10 C 11.691406 10 13.332031 8.359375 13.332031 6.332031 C 13.332031 4.308594 11.691406 2.667969 9.667969 2.667969 Z M 9.882812 4.316406 C 10.316406 4.328125 10.769531 4.535156 11.117188 4.882812 C 11.769531 5.53125 11.875 6.480469 11.355469 7.003906 C 10.832031 7.523438 9.882812 7.417969 9.234375 6.765625 C 8.582031 6.117188 8.476562 5.167969 8.996094 4.644531 C 9.21875 4.421875 9.53125 4.304688 9.882812 4.316406 Z M 5.511719 7.546875 L 2.863281 10.195312 C 2.738281 10.320312 2.667969 10.488281 2.667969 10.667969 L 2.667969 12.667969 C 2.667969 13.035156 2.964844 13.332031 3.332031 13.332031 L 5.332031 13.332031 C 5.703125 13.332031 6 13.035156 6 12.667969 L 6 11.332031 L 7.332031 11.332031 C 7.703125 11.332031 8 11.035156 8 10.667969 L 8 10.332031 C 7.484375 10.113281 7.019531 9.800781 6.628906 9.414062 L 4.355469 11.6875 C 4.15625 11.875 3.847656 11.871094 3.65625 11.679688 C 3.464844 11.488281 3.460938 11.175781 3.644531 10.980469 L 6 8.628906 C 5.789062 8.292969 5.625 7.933594 5.511719 7.546875 Z M 5.511719 7.546875 "/>
</g>
</svg>
