<svg xmlns="http://www.w3.org/2000/svg" xmlns:xlink="http://www.w3.org/1999/xlink" width="16" height="16" viewBox="0 0 16 16" version="1.1">
<g id="surface1">
<path style=" stroke:none;fill-rule:nonzero;fill:rgb(0%,80.000001%,100%);fill-opacity:1;" d="M 8 2.667969 C 6.535156 2.667969 5.355469 3.859375 5.332031 5.332031 L 5.332031 6 L 6.667969 6 L 6.667969 5.332031 C 6.667969 4.59375 7.261719 4 8 4 C 8.738281 4 9.332031 4.59375 9.332031 5.332031 L 9.332031 8 L 4.667969 8 C 4.296875 8 4 8.296875 4 8.667969 L 4 12.667969 C 4 13.035156 4.296875 13.332031 4.667969 13.332031 L 11.332031 13.332031 C 11.703125 13.332031 12 13.035156 12 12.667969 L 12 8.667969 C 12 8.296875 11.703125 8 11.332031 8 L 10.667969 8 L 10.667969 5.375 C 10.667969 3.882812 9.476562 2.667969 8 2.667969 Z M 8 2.667969 "/>
</g>
</svg>
