<svg xmlns="http://www.w3.org/2000/svg" xmlns:xlink="http://www.w3.org/1999/xlink" width="16" height="16" viewBox="0 0 16 16" version="1.1">
<g id="surface1">
<path style=" stroke:none;fill-rule:nonzero;fill:rgb(100%,74.901962%,0%);fill-opacity:1;" d="M 7.796875 2.671875 C 4.859375 2.816406 2.492188 5.386719 2.675781 8.394531 C 2.828125 10.835938 4.59375 12.8125 7.011719 13.25 C 8.035156 13.433594 9.058594 13.316406 10.070312 12.90625 C 11.054688 12.503906 11.476562 12.507812 12.570312 12.921875 C 12.863281 13.035156 13.113281 13.113281 13.128906 13.097656 C 13.144531 13.082031 13.054688 12.863281 12.929688 12.617188 C 12.539062 11.851562 12.441406 11.226562 12.605469 10.625 C 12.648438 10.46875 12.789062 10.070312 12.921875 9.746094 C 13.242188 8.953125 13.335938 8.523438 13.332031 7.832031 C 13.332031 6.386719 12.761719 5.097656 11.6875 4.082031 C 10.796875 3.246094 9.644531 2.753906 8.390625 2.675781 C 8.191406 2.664062 7.992188 2.664062 7.796875 2.671875 Z M 7.882812 4 C 8.421875 3.996094 8.898438 4.050781 9.230469 4.15625 C 9.925781 4.375 10.234375 4.84375 9.890625 5.15625 C 9.589844 5.429688 9.304688 5.367188 8.703125 4.890625 C 8.5 4.730469 8.203125 4.539062 8.046875 4.464844 C 7.371094 4.15625 6.546875 4.433594 6.546875 4.925781 C 6.546875 4.996094 6.625 5.144531 6.722656 5.253906 C 6.90625 5.460938 7.097656 5.53125 8.605469 6.398438 C 9.675781 7.011719 10.226562 7.492188 10.5 8.042969 C 10.835938 8.761719 10.65625 9.808594 10.003906 10.4375 C 9.65625 10.777344 9.210938 11.058594 8.769531 11.191406 C 8.574219 11.25 8.222656 11.3125 7.996094 11.328125 C 6.890625 11.398438 5.957031 10.925781 5.53125 10.082031 C 5.269531 9.5625 5.265625 8.964844 5.53125 8.339844 C 5.851562 7.707031 6.597656 7.179688 7.5 6.957031 C 7.726562 6.898438 7.925781 6.828125 7.933594 6.796875 C 7.945312 6.761719 7.605469 6.480469 7.175781 6.167969 C 6.3125 5.539062 6.128906 5.359375 6.121094 4.984375 C 6.109375 4.554688 6.449219 4.242188 7.113281 4.078125 C 7.3125 4.027344 7.558594 4.003906 7.882812 4 Z M 8.289062 7.132812 C 8.246094 7.132812 8.199219 7.140625 8.132812 7.148438 C 7.675781 7.210938 7.175781 7.445312 6.886719 7.726562 C 6.511719 8.09375 6.394531 8.417969 6.398438 9.109375 C 6.40625 9.917969 7.078125 10.808594 8.03125 10.800781 C 8.953125 10.78125 9.496094 10.164062 9.589844 9.378906 C 9.660156 8.683594 9.363281 8.003906 8.753906 7.441406 C 8.488281 7.195312 8.417969 7.132812 8.289062 7.132812 Z M 8.289062 7.132812 "/>
</g>
</svg>
