<svg xmlns="http://www.w3.org/2000/svg" xmlns:xlink="http://www.w3.org/1999/xlink" width="16" height="16" viewBox="0 0 16 16" version="1.1">
<g id="surface1">
<path style=" stroke:none;fill-rule:nonzero;fill:rgb(100%,74.901962%,0%);fill-opacity:1;" d="M 8 2.667969 C 5.054688 2.667969 2.667969 5.054688 2.667969 8 C 2.667969 10.945312 5.054688 13.332031 8 13.332031 C 10.945312 13.332031 13.332031 10.945312 13.332031 8 C 13.332031 5.054688 10.945312 2.667969 8 2.667969 Z M 7.917969 4 L 8.082031 4 C 8.40625 4 8.667969 4.261719 8.667969 4.582031 L 8.667969 7.332031 L 11.417969 7.332031 C 11.738281 7.332031 12 7.59375 12 7.917969 L 12 8.082031 C 12 8.40625 11.738281 8.667969 11.417969 8.667969 L 7.917969 8.667969 C 7.59375 8.667969 7.332031 8.40625 7.332031 8.082031 L 7.332031 4.582031 C 7.332031 4.261719 7.59375 4 7.917969 4 Z M 7.917969 4 "/>
</g>
</svg>
