<svg xmlns="http://www.w3.org/2000/svg" xmlns:xlink="http://www.w3.org/1999/xlink" width="16" height="16" viewBox="0 0 16 16" version="1.1">
<g id="surface1">
<path style=" stroke:none;fill-rule:nonzero;fill:rgb(100%,30.980393%,30.980393%);fill-opacity:1;" d="M 8 2.667969 C 5.054688 2.667969 2.667969 5.054688 2.667969 8 C 2.667969 10.945312 5.054688 13.332031 8 13.332031 C 10.945312 13.332031 13.332031 10.945312 13.332031 8 C 13.332031 5.054688 10.945312 2.667969 8 2.667969 Z M 5.332031 7.332031 L 10.667969 7.332031 C 11.035156 7.332031 11.332031 7.628906 11.332031 8 C 11.332031 8.371094 11.035156 8.667969 10.667969 8.667969 L 5.332031 8.667969 C 4.964844 8.667969 4.667969 8.371094 4.667969 8 C 4.667969 7.628906 4.964844 7.332031 5.332031 7.332031 Z M 5.332031 7.332031 "/>
</g>
</svg>
