<svg xmlns="http://www.w3.org/2000/svg" xmlns:xlink="http://www.w3.org/1999/xlink" width="16" height="16" viewBox="0 0 16 16" version="1.1">
<g id="surface1">
<path style=" stroke:none;fill-rule:nonzero;fill:rgb(0%,80.000001%,100%);fill-opacity:1;" d="M 3.757812 2.816406 L 2.816406 3.757812 L 4.265625 5.207031 C 3.683594 5.988281 3.332031 6.949219 3.332031 8 L 3.332031 11.109375 C 3.332031 11.109375 3.335938 12.667969 4.890625 12.667969 L 6.667969 12.667969 L 6.667969 8.667969 L 4.667969 8.667969 L 4.667969 8 C 4.667969 7.359375 4.902344 6.742188 5.269531 6.214844 L 9.332031 10.277344 L 9.332031 12.667969 L 11.109375 12.667969 C 11.902344 12.578125 12.21875 12.167969 12.574219 11.632812 Z M 8 3.332031 C 7.300781 3.332031 6.640625 3.496094 6.046875 3.769531 L 7.101562 4.824219 C 7.390625 4.726562 7.691406 4.667969 8 4.667969 C 9.726562 4.667969 11.332031 6.273438 11.332031 8 L 11.332031 8.667969 L 10.941406 8.667969 L 12.667969 10.390625 L 12.667969 8 C 12.667969 5.417969 10.582031 3.332031 8 3.332031 Z M 8 3.332031 "/>
</g>
</svg>
