<svg xmlns="http://www.w3.org/2000/svg" xmlns:xlink="http://www.w3.org/1999/xlink" width="16" height="16" viewBox="0 0 16 16" version="1.1">
<g id="surface1">
<path style=" stroke:none;fill-rule:nonzero;fill:rgb(0%,100%,66.666669%);fill-opacity:1;" d="M 5.339844 2.667969 L 2.007812 4.667969 L 4.671875 6.65625 L 2 8.660156 L 5.339844 10.667969 L 8.007812 8.667969 L 4.671875 6.667969 L 8.007812 4.667969 L 11.339844 6.675781 L 8.007812 8.667969 L 9.191406 9.554688 C 9.800781 8.589844 10.863281 8.003906 12.007812 8.003906 C 12.722656 8.003906 13.417969 8.238281 13.992188 8.664062 L 14.011719 8.652344 L 11.339844 6.671875 L 14.007812 4.671875 L 10.675781 2.671875 L 8.007812 4.664062 L 5.339844 2.671875 Z M 12.007812 8.667969 C 10.535156 8.667969 9.339844 9.859375 9.339844 11.332031 C 9.339844 12.804688 10.535156 14 12.007812 14 C 13.480469 14 14.671875 12.804688 14.671875 11.332031 C 14.671875 9.859375 13.480469 8.667969 12.007812 8.667969 Z M 12.007812 8.996094 C 12.128906 8.996094 12.25 9.007812 12.367188 9.027344 C 12.234375 9.003906 12.101562 8.992188 11.96875 8.996094 C 11.980469 8.992188 11.992188 8.992188 12.007812 8.988281 Z M 11.960938 8.996094 C 11.855469 9 11.746094 9.007812 11.640625 9.027344 C 11.746094 9.007812 11.855469 9 11.960938 8.996094 Z M 11.625 9.027344 C 11.515625 9.046875 11.40625 9.074219 11.296875 9.109375 C 11.402344 9.074219 11.511719 9.046875 11.625 9.027344 Z M 12.472656 9.046875 C 12.5625 9.0625 12.652344 9.089844 12.738281 9.117188 C 12.652344 9.089844 12.5625 9.0625 12.472656 9.046875 Z M 11.292969 9.109375 C 11.191406 9.144531 11.089844 9.183594 10.992188 9.234375 C 11.089844 9.183594 11.1875 9.144531 11.292969 9.109375 Z M 12.839844 9.152344 C 12.925781 9.1875 13.007812 9.222656 13.085938 9.265625 C 13.007812 9.222656 12.925781 9.1875 12.839844 9.152344 Z M 10.960938 9.246094 C 10.863281 9.296875 10.765625 9.355469 10.667969 9.421875 C 10.535156 9.515625 10.417969 9.621094 10.308594 9.730469 C 10.207031 9.839844 10.117188 9.957031 10.039062 10.078125 C 10.121094 9.953125 10.210938 9.839844 10.308594 9.730469 C 10.496094 9.535156 10.71875 9.371094 10.960938 9.246094 Z M 13.191406 9.324219 C 13.289062 9.382812 13.382812 9.445312 13.472656 9.515625 C 13.382812 9.445312 13.289062 9.382812 13.191406 9.324219 Z M 8.007812 9.324219 L 5.339844 11.324219 L 4.671875 10.925781 L 4.671875 11.324219 L 8.007812 13.324219 L 8.992188 12.734375 C 8.78125 12.292969 8.671875 11.808594 8.671875 11.320312 C 8.671875 10.875 8.761719 10.433594 8.9375 10.019531 L 8.003906 9.320312 Z M 13.472656 9.507812 C 13.578125 9.59375 13.671875 9.6875 13.761719 9.789062 C 13.980469 10.042969 14.144531 10.335938 14.238281 10.652344 C 14.265625 10.75 14.292969 10.847656 14.308594 10.945312 C 14.324219 11.046875 14.335938 11.148438 14.335938 11.253906 C 14.332031 11.152344 14.324219 11.046875 14.308594 10.945312 C 14.292969 10.847656 14.265625 10.75 14.238281 10.65625 C 14.207031 10.558594 14.171875 10.46875 14.132812 10.378906 L 12.011719 12.800781 L 11.78125 13.070312 L 11.519531 12.820312 L 10.519531 11.820312 C 10.394531 11.695312 10.394531 11.464844 10.519531 11.339844 C 10.644531 11.214844 10.875 11.214844 11 11.339844 L 11.75 12.089844 L 13.761719 9.789062 C 13.671875 9.6875 13.574219 9.59375 13.472656 9.507812 Z M 10.019531 10.105469 C 9.945312 10.222656 9.886719 10.34375 9.835938 10.472656 C 9.886719 10.34375 9.945312 10.222656 10.019531 10.105469 Z M 9.824219 10.503906 C 9.777344 10.628906 9.738281 10.761719 9.714844 10.894531 C 9.738281 10.761719 9.777344 10.628906 9.824219 10.503906 Z M 9.707031 10.9375 C 9.683594 11.074219 9.671875 11.210938 9.675781 11.347656 C 9.671875 11.339844 9.671875 11.328125 9.671875 11.320312 C 9.671875 11.191406 9.683594 11.0625 9.707031 10.9375 Z M 14.339844 11.277344 C 14.339844 11.292969 14.339844 11.304688 14.339844 11.320312 C 14.339844 11.402344 14.335938 11.488281 14.324219 11.574219 C 14.335938 11.476562 14.339844 11.375 14.339844 11.277344 Z M 9.675781 11.394531 C 9.679688 11.519531 9.695312 11.640625 9.71875 11.765625 C 9.695312 11.644531 9.679688 11.519531 9.675781 11.394531 Z M 9.738281 11.855469 C 9.765625 11.972656 9.800781 12.089844 9.851562 12.207031 C 9.804688 12.089844 9.765625 11.972656 9.738281 11.855469 Z M 9.886719 12.289062 C 9.941406 12.40625 10.003906 12.523438 10.078125 12.632812 C 10.003906 12.523438 9.941406 12.410156 9.886719 12.289062 Z M 14.105469 12.332031 C 14.101562 12.339844 14.097656 12.34375 14.097656 12.347656 C 14.082031 12.382812 14.066406 12.414062 14.046875 12.449219 C 14.046875 12.453125 14.042969 12.457031 14.039062 12.460938 C 14.0625 12.417969 14.082031 12.375 14.105469 12.332031 Z M 13.976562 12.566406 C 13.96875 12.574219 13.964844 12.582031 13.960938 12.589844 C 13.941406 12.621094 13.917969 12.652344 13.894531 12.6875 C 13.921875 12.648438 13.949219 12.605469 13.976562 12.566406 Z M 10.128906 12.699219 C 10.199219 12.796875 10.28125 12.890625 10.367188 12.972656 C 10.277344 12.886719 10.199219 12.796875 10.128906 12.699219 Z M 13.804688 12.804688 C 13.800781 12.808594 13.800781 12.8125 13.796875 12.816406 C 13.761719 12.855469 13.722656 12.898438 13.683594 12.9375 C 13.726562 12.894531 13.765625 12.851562 13.804688 12.804688 Z M 10.445312 13.050781 C 10.53125 13.128906 10.617188 13.195312 10.710938 13.257812 C 10.617188 13.195312 10.527344 13.125 10.445312 13.050781 Z M 13.300781 13.257812 C 13.203125 13.324219 13.097656 13.382812 12.992188 13.433594 C 12.988281 13.433594 12.980469 13.4375 12.976562 13.4375 C 13.089844 13.386719 13.195312 13.328125 13.300781 13.257812 Z M 10.832031 13.332031 C 10.914062 13.382812 11.003906 13.425781 11.089844 13.460938 C 11 13.425781 10.914062 13.382812 10.832031 13.332031 Z M 12.886719 13.480469 C 12.882812 13.480469 12.878906 13.480469 12.878906 13.484375 C 12.777344 13.523438 12.675781 13.554688 12.574219 13.582031 C 12.679688 13.554688 12.785156 13.519531 12.886719 13.480469 Z M 11.269531 13.53125 C 11.359375 13.558594 11.449219 13.589844 11.542969 13.605469 C 11.449219 13.585938 11.359375 13.5625 11.269531 13.53125 Z M 12.410156 13.613281 C 12.316406 13.632812 12.21875 13.644531 12.125 13.648438 C 12.121094 13.648438 12.117188 13.648438 12.113281 13.648438 C 12.214844 13.644531 12.3125 13.632812 12.410156 13.613281 Z M 11.683594 13.628906 C 11.773438 13.640625 11.867188 13.648438 11.960938 13.648438 C 11.957031 13.648438 11.953125 13.648438 11.949219 13.648438 C 11.863281 13.648438 11.777344 13.640625 11.691406 13.628906 C 11.6875 13.628906 11.683594 13.628906 11.683594 13.628906 Z M 11.683594 13.628906 "/>
</g>
</svg>
