<svg xmlns="http://www.w3.org/2000/svg" xmlns:xlink="http://www.w3.org/1999/xlink" width="16" height="16" viewBox="0 0 16 16" version="1.1">
<g id="surface1">
<path style=" stroke:none;fill-rule:nonzero;fill:rgb(0%,80.000001%,100%);fill-opacity:1;" d="M 5.339844 2.667969 L 2.007812 4.667969 L 4.671875 6.65625 L 2 8.660156 L 5.339844 10.667969 L 8.007812 8.667969 L 4.671875 6.667969 L 8.007812 4.667969 L 11.339844 6.675781 L 8.007812 8.667969 L 9.191406 9.554688 C 9.800781 8.589844 10.863281 8 12.007812 8 C 12.722656 8.003906 13.417969 8.234375 13.992188 8.664062 L 14.011719 8.652344 L 11.339844 6.667969 L 14.007812 4.667969 L 10.671875 2.667969 L 8.007812 4.65625 Z M 12.007812 8.667969 C 10.535156 8.667969 9.339844 9.859375 9.339844 11.332031 C 9.339844 12.804688 10.535156 14 12.007812 14 C 13.480469 14 14.671875 12.804688 14.671875 11.332031 C 14.671875 9.859375 13.480469 8.667969 12.007812 8.667969 Z M 8.007812 9.332031 L 5.339844 11.332031 L 4.671875 10.933594 L 4.671875 11.332031 L 8.007812 13.332031 L 8.992188 12.742188 C 8.78125 12.300781 8.675781 11.820312 8.671875 11.332031 C 8.671875 10.886719 8.761719 10.441406 8.9375 10.03125 L 8.003906 9.332031 Z M 12.007812 9.332031 L 12.007812 10 C 11.269531 10 10.671875 10.597656 10.671875 11.332031 L 10.007812 11.332031 C 10.007812 10.230469 10.902344 9.332031 12.007812 9.332031 Z M 13.339844 11.332031 L 14.007812 11.332031 C 14.007812 12.4375 13.109375 13.332031 12.007812 13.332031 L 12.007812 12.667969 C 12.742188 12.667969 13.339844 12.070312 13.339844 11.332031 Z M 13.339844 11.332031 "/>
</g>
</svg>
