<svg xmlns="http://www.w3.org/2000/svg" xmlns:xlink="http://www.w3.org/1999/xlink" width="16" height="16" viewBox="0 0 16 16" version="1.1">
<g id="surface1">
<path style=" stroke:none;fill-rule:nonzero;fill:rgb(67.058825%,40.000001%,100%);fill-opacity:1;" d="M 7.148438 2.667969 C 6.792969 2.667969 6.507812 2.953125 6.507812 3.304688 C 6.507812 3.660156 6.792969 3.945312 7.148438 3.945312 C 8.796875 3.945312 10.132812 5.285156 10.132812 6.933594 C 10.132812 7.285156 10.421875 7.574219 10.773438 7.574219 C 11.125 7.574219 11.414062 7.285156 11.414062 6.933594 C 11.414062 4.578125 9.503906 2.667969 7.148438 2.667969 Z M 6.933594 4.585938 C 4.578125 4.585938 2.667969 6.496094 2.667969 8.851562 C 2.667969 9.207031 2.953125 9.492188 3.304688 9.492188 C 3.660156 9.492188 3.945312 9.207031 3.945312 8.851562 C 3.945312 7.203125 5.285156 5.867188 6.933594 5.867188 C 7.285156 5.867188 7.574219 5.578125 7.574219 5.226562 C 7.574219 4.875 7.285156 4.585938 6.933594 4.585938 Z M 12.695312 6.507812 C 12.339844 6.507812 12.054688 6.792969 12.054688 7.148438 C 12.054688 8.796875 10.714844 10.132812 9.066406 10.132812 C 8.714844 10.132812 8.425781 10.421875 8.425781 10.773438 C 8.425781 11.125 8.714844 11.414062 9.066406 11.414062 C 11.421875 11.414062 13.332031 9.503906 13.332031 7.148438 C 13.332031 6.792969 13.046875 6.507812 12.695312 6.507812 Z M 5.226562 8.425781 C 4.875 8.425781 4.585938 8.714844 4.585938 9.066406 C 4.585938 11.421875 6.496094 13.332031 8.851562 13.332031 C 9.207031 13.332031 9.492188 13.046875 9.492188 12.695312 C 9.492188 12.339844 9.207031 12.054688 8.851562 12.054688 C 7.203125 12.054688 5.867188 10.714844 5.867188 9.066406 C 5.867188 8.714844 5.578125 8.425781 5.226562 8.425781 Z M 5.226562 8.425781 "/>
</g>
</svg>
