<svg xmlns="http://www.w3.org/2000/svg" xmlns:xlink="http://www.w3.org/1999/xlink" width="16" height="16" viewBox="0 0 16 16" version="1.1">
<g id="surface1">
<path style=" stroke:none;fill-rule:nonzero;fill:rgb(0%,80.000001%,100%);fill-opacity:1;" d="M 8 2.667969 C 5.046875 2.667969 2.667969 5.046875 2.667969 8 C 2.667969 10.953125 5.046875 13.332031 8 13.332031 C 10.953125 13.332031 13.332031 10.953125 13.332031 8 C 13.332031 5.046875 10.953125 2.667969 8 2.667969 Z M 6.667969 6 C 7.035156 6 7.332031 6.59375 7.332031 7.332031 L 7.332031 8.667969 C 7.332031 9.40625 7.035156 10 6.667969 10 C 6.296875 10 6 9.40625 6 8.667969 L 6 7.332031 C 6 6.59375 6.296875 6 6.667969 6 Z M 9.332031 6 C 9.703125 6 10 6.59375 10 7.332031 L 10 8.667969 C 10 9.40625 9.703125 10 9.332031 10 C 8.964844 10 8.667969 9.40625 8.667969 8.667969 L 8.667969 7.332031 C 8.667969 6.59375 8.964844 6 9.332031 6 Z M 9.332031 6 "/>
</g>
</svg>
