<svg xmlns="http://www.w3.org/2000/svg" xmlns:xlink="http://www.w3.org/1999/xlink" width="16" height="16" viewBox="0 0 16 16" version="1.1">
<g id="surface1">
<path style=" stroke:none;fill-rule:nonzero;fill:rgb(0%,80.000001%,100%);fill-opacity:1;" d="M 4 2.667969 C 3.261719 2.667969 2.667969 3.261719 2.667969 4 L 2.667969 12 C 2.667969 12.738281 3.261719 13.332031 4 13.332031 L 12 13.332031 C 12.738281 13.332031 13.332031 12.738281 13.332031 12 L 13.332031 4 C 13.332031 3.261719 12.738281 2.667969 12 2.667969 Z M 4 4 L 8 4 L 8 4.667969 L 6.667969 4.667969 L 6.667969 6.667969 L 8 6.667969 L 7.734375 6.464844 C 7.734375 6.464844 8.667969 5.167969 8.667969 4 L 9.332031 4 C 9.332031 4.472656 9.222656 4.925781 9.078125 5.332031 L 10 5.332031 L 10 4 L 10.667969 4 L 10.667969 5.332031 L 12 5.332031 L 12 6 L 10.667969 6 L 10.667969 7.332031 L 12 7.332031 L 12 8 L 8.667969 8 L 8.667969 7.332031 L 10 7.332031 L 10 6 L 8.796875 6 C 8.53125 6.527344 8.265625 6.867188 8.265625 6.867188 L 8 6.667969 L 8 12 L 4 12 L 4 6.667969 L 4.667969 6.667969 L 4.667969 4.667969 L 4 4.667969 Z M 5.332031 4.667969 L 5.332031 6.667969 L 6 6.667969 L 6 4.667969 Z M 5.332031 7.332031 L 5.332031 9.332031 L 4.667969 9.332031 L 4.667969 10 L 6.667969 10 L 6.667969 10.667969 L 4.667969 10.667969 L 4.667969 11.332031 L 7.332031 11.332031 L 7.332031 7.332031 L 6.667969 7.332031 L 6.667969 9.332031 L 6 9.332031 L 6 7.332031 Z M 8.667969 8.667969 L 12 8.667969 L 12 12 L 8.667969 12 Z M 9.332031 9.332031 L 9.332031 11.332031 L 11.332031 11.332031 L 11.332031 9.332031 Z M 9.332031 9.332031 "/>
</g>
</svg>
