<svg xmlns="http://www.w3.org/2000/svg" xmlns:xlink="http://www.w3.org/1999/xlink" width="16" height="16" viewBox="0 0 16 16" version="1.1">
<g id="surface1">
<path style=" stroke:none;fill-rule:nonzero;fill:rgb(0%,80.000001%,100%);fill-opacity:1;" d="M 4 2.667969 C 3.261719 2.667969 2.667969 3.261719 2.667969 4 L 2.667969 12 C 2.667969 12.738281 3.261719 13.332031 4 13.332031 L 12 13.332031 C 12.738281 13.332031 13.332031 12.738281 13.332031 12 L 13.332031 4 C 13.332031 3.261719 12.738281 2.667969 12 2.667969 Z M 7.121094 3.742188 L 7.546875 4.257812 L 6.253906 5.332031 L 11.332031 5.332031 L 11.332031 12 L 4.667969 12 L 4.667969 5.332031 L 5.210938 5.332031 Z M 5.332031 6 L 5.332031 7.332031 L 9.332031 7.332031 L 9.332031 8 L 5.332031 8 L 5.332031 9.332031 L 9.332031 9.332031 L 9.332031 10 L 5.332031 10 L 5.332031 11.332031 L 10.667969 11.332031 L 10.667969 6 Z M 5.332031 6 "/>
</g>
</svg>
