<svg xmlns="http://www.w3.org/2000/svg" xmlns:xlink="http://www.w3.org/1999/xlink" width="16" height="16" viewBox="0 0 16 16" version="1.1">
<g id="surface1">
<path style=" stroke:none;fill-rule:nonzero;fill:rgb(0%,80.000001%,100%);fill-opacity:1;" d="M 4 2.667969 C 3.261719 2.667969 2.667969 3.261719 2.667969 4 L 2.667969 12 C 2.667969 12.738281 3.261719 13.332031 4 13.332031 L 12 13.332031 C 12.738281 13.332031 13.332031 12.738281 13.332031 12 L 13.332031 4 C 13.332031 3.261719 12.738281 2.667969 12 2.667969 Z M 4 4 L 7.699219 4 L 7.664062 4.367188 C 7.664062 4.367188 7.445312 6.714844 6.847656 8.453125 C 7.238281 9.03125 7.609375 9.632812 8.074219 10.460938 L 7.496094 10.785156 C 7.136719 10.152344 6.839844 9.660156 6.546875 9.207031 C 5.617188 11.289062 4.304688 12.195312 4.304688 12.195312 L 3.933594 11.640625 C 3.933594 11.640625 5.246094 10.765625 6.109375 8.539062 C 5.597656 7.800781 5.019531 7.054688 4.074219 5.875 L 4.59375 5.460938 C 5.382812 6.441406 5.910156 7.121094 6.371094 7.761719 C 6.738281 6.492188 6.90625 5.09375 6.953125 4.667969 L 4 4.667969 Z M 8 4 L 12 4 L 12 4.332031 C 12 5.765625 11.445312 7.648438 10.863281 8.941406 C 10.789062 9.105469 10.699219 9.246094 10.617188 9.398438 C 11.035156 10.125 11.589844 10.8125 12.511719 11.554688 L 12.09375 12.074219 C 11.242188 11.382812 10.664062 10.714844 10.226562 10.035156 C 9.296875 11.355469 8.15625 12.054688 8.15625 12.054688 L 7.8125 11.484375 C 7.8125 11.484375 9 10.753906 9.859375 9.394531 C 9.632812 8.960938 9.445312 8.519531 9.265625 8.058594 C 8.761719 6.761719 8.460938 5.058594 8.394531 4.667969 L 8 4.667969 Z M 9.070312 4.667969 C 9.164062 5.179688 9.449219 6.6875 9.890625 7.820312 C 10.003906 8.121094 10.125 8.398438 10.25 8.671875 C 10.753906 7.554688 11.210938 5.898438 11.28125 4.667969 Z M 9.070312 4.667969 "/>
</g>
</svg>
