<svg xmlns="http://www.w3.org/2000/svg" xmlns:xlink="http://www.w3.org/1999/xlink" width="16" height="16" viewBox="0 0 16 16" version="1.1">
<g id="surface1">
<path style=" stroke:none;fill-rule:nonzero;fill:rgb(67.058825%,40.000001%,100%);fill-opacity:1;" d="M 4 2.667969 C 3.261719 2.667969 2.667969 3.261719 2.667969 4 L 2.667969 12 C 2.667969 12.738281 3.261719 13.332031 4 13.332031 L 12 13.332031 C 12.738281 13.332031 13.332031 12.738281 13.332031 12 L 13.332031 4 C 13.332031 3.261719 12.738281 2.667969 12 2.667969 Z M 7.332031 4 L 8 4 L 8 8.65625 C 9.207031 8.601562 9.8125 8.25 10.175781 7.660156 C 10.566406 7.015625 10.667969 5.984375 10.667969 4.667969 L 11.332031 4.667969 C 11.332031 6.015625 11.265625 7.148438 10.742188 8.007812 C 10.257812 8.800781 9.367188 9.253906 8 9.320312 L 8 11.332031 L 11.332031 11.332031 L 11.332031 12 L 4 12 L 4 11.332031 L 7.332031 11.332031 L 7.332031 9.320312 C 5.964844 9.253906 5.074219 8.800781 4.589844 8.007812 C 4.066406 7.148438 4 6.015625 4 4.667969 L 4.667969 4.667969 C 4.667969 5.984375 4.765625 7.015625 5.160156 7.660156 C 5.519531 8.25 6.125 8.601562 7.332031 8.65625 Z M 7.332031 4 "/>
</g>
</svg>
