<svg xmlns="http://www.w3.org/2000/svg" xmlns:xlink="http://www.w3.org/1999/xlink" width="16" height="16" viewBox="0 0 16 16" version="1.1">
<g id="surface1">
<path style=" stroke:none;fill-rule:nonzero;fill:rgb(96.862745%,0%,100%);fill-opacity:1;" d="M 4 2.667969 C 3.261719 2.667969 2.667969 3.261719 2.667969 4 L 2.667969 12 C 2.667969 12.738281 3.261719 13.332031 4 13.332031 L 12 13.332031 C 12.738281 13.332031 13.332031 12.738281 13.332031 12 L 13.332031 4 C 13.332031 3.261719 12.738281 2.667969 12 2.667969 Z M 6.890625 4 L 7.742188 4 C 7.691406 4.371094 7.605469 4.75 7.480469 5.316406 C 9.152344 5.25 10.40625 5.160156 11.332031 5.050781 L 11.332031 5.902344 C 10.554688 5.992188 9.269531 5.949219 7.296875 6.035156 C 7.097656 6.828125 6.839844 8.179688 6.519531 8.898438 L 6.59375 8.933594 C 7.507812 8.316406 8.148438 8.007812 8.792969 8.007812 C 9.605469 8.007812 10.238281 8.207031 10.679688 8.601562 C 11.125 8.996094 11.332031 9.5 11.332031 10.117188 C 11.332031 10.835938 11.0625 11.113281 10.496094 11.480469 C 9.953125 11.828125 9.136719 12 8.050781 12 C 7.371094 12 6.746094 12.003906 6 11.964844 L 6 11 C 6.628906 11.125 7.226562 11.148438 7.976562 11.148438 C 8.765625 11.148438 9.359375 11.050781 9.753906 10.851562 C 10.175781 10.628906 10.382812 10.5625 10.382812 10.117188 C 10.382812 9.722656 10.246094 9.414062 9.976562 9.191406 C 9.703125 8.945312 9.308594 8.824219 8.792969 8.824219 C 7.78125 8.824219 6.964844 9.253906 6.074219 10.117188 L 5.40625 9.601562 C 5.800781 8.957031 6.148438 7.316406 6.445312 6.007812 L 4.667969 6.007812 L 4.667969 5.320312 C 5.304688 5.316406 5.953125 5.308594 6.628906 5.289062 Z M 6.890625 4 "/>
</g>
</svg>
