<svg xmlns="http://www.w3.org/2000/svg" xmlns:xlink="http://www.w3.org/1999/xlink" width="16" height="16" viewBox="0 0 16 16" version="1.1">
<g id="surface1">
<path style=" stroke:none;fill-rule:nonzero;fill:rgb(0%,80.000001%,100%);fill-opacity:1;" d="M 4 2.667969 C 3.261719 2.667969 2.667969 3.261719 2.667969 4 L 2.667969 12 C 2.667969 12.738281 3.261719 13.332031 4 13.332031 L 12 13.332031 C 12.738281 13.332031 13.332031 12.738281 13.332031 12 L 13.332031 4 C 13.332031 3.261719 12.738281 2.667969 12 2.667969 Z M 9.867188 4.039062 L 10.449219 4.503906 C 10.425781 4.539062 10.410156 4.570312 10.394531 4.597656 C 10.386719 4.625 10.382812 4.667969 10.382812 4.726562 C 10.382812 4.804688 10.410156 4.890625 10.457031 4.988281 C 10.800781 5.25 11.003906 5.5625 11.222656 5.898438 C 11.28125 6.023438 11.34375 6.144531 11.355469 6.277344 C 11.378906 6.578125 11.257812 6.832031 11.058594 7.039062 C 10.863281 7.242188 10.3125 7.34375 9.8125 7.34375 C 9.679688 7.34375 9.480469 7.324219 9.332031 7.289062 L 9.332031 9.757812 C 9.460938 9.722656 9.640625 9.679688 9.761719 9.621094 C 9.886719 9.566406 10.015625 9.503906 10.152344 9.433594 L 10.425781 10.140625 C 10.257812 10.21875 10.085938 10.289062 9.910156 10.351562 C 9.738281 10.40625 9.507812 10.457031 9.332031 10.5 L 9.332031 12.667969 L 8.667969 12.667969 L 8.667969 10.625 C 8.460938 10.65625 7.449219 10.699219 7.265625 10.699219 C 6.609375 10.699219 6.039062 10.605469 5.554688 10.414062 C 5.066406 10.21875 4.6875 9.929688 4.410156 9.546875 C 4.144531 9.167969 4 8.625 4 8.054688 C 4.019531 7.65625 4.164062 7.355469 4.363281 7.101562 C 4.761719 6.59375 5.242188 6.347656 5.785156 6.144531 C 6.019531 6.078125 6.289062 6.0625 6.601562 6.042969 C 6.917969 6.011719 7.296875 6 7.742188 6 L 8.667969 6 C 8.644531 5.667969 8.523438 5.132812 8.332031 4.976562 C 8.148438 4.824219 7.914062 4.746094 7.625 4.746094 C 7.351562 4.746094 7.140625 4.800781 7 4.90625 C 6.859375 5.003906 6.789062 5.140625 6.789062 5.316406 C 6.789062 5.316406 6.800781 5.453125 6.800781 5.476562 L 6.050781 5.570312 C 6.035156 5.507812 6.027344 5.242188 6.027344 5.242188 C 6.027344 4.855469 6.167969 4.558594 6.441406 4.355469 C 6.714844 4.148438 7.09375 4.046875 7.570312 4.046875 C 8.304688 4.046875 8.8125 4.34375 9.09375 4.9375 C 9.285156 4.613281 9.542969 4.3125 9.867188 4.039062 Z M 9.800781 5.117188 C 9.625 5.328125 9.457031 5.535156 9.40625 5.738281 C 9.359375 5.945312 9.332031 5.898438 9.332031 6.140625 L 9.332031 6.605469 C 9.445312 6.625 9.625 6.644531 9.769531 6.644531 C 10.003906 6.644531 10.367188 6.609375 10.457031 6.53125 C 10.546875 6.40625 10.570312 6.304688 10.5625 6.210938 C 10.53125 6.027344 10.453125 5.878906 10.359375 5.738281 C 10.214844 5.476562 9.984375 5.296875 9.800781 5.117188 Z M 7.816406 6.667969 C 7.324219 6.667969 6.925781 6.679688 6.632812 6.707031 C 6.34375 6.738281 6.105469 6.78125 5.921875 6.847656 C 5.746094 6.902344 5.589844 6.976562 5.449219 7.0625 C 5.054688 7.375 4.882812 7.652344 4.847656 7.953125 C 4.832031 8.15625 4.789062 8.328125 4.820312 8.480469 C 4.953125 9.15625 5.339844 9.386719 5.851562 9.695312 C 6.222656 9.867188 6.722656 9.949219 7.351562 9.949219 C 7.539062 9.949219 8.492188 9.917969 8.667969 9.898438 L 8.667969 6.667969 Z M 7.816406 6.667969 "/>
</g>
</svg>
