<svg xmlns="http://www.w3.org/2000/svg" xmlns:xlink="http://www.w3.org/1999/xlink" width="16" height="16" viewBox="0 0 16 16" version="1.1">
<defs>
<filter id="alpha" filterUnits="objectBoundingBox" x="0%" y="0%" width="100%" height="100%">
  <feColorMatrix type="matrix" in="SourceGraphic" values="0 0 0 0 1 0 0 0 0 1 0 0 0 0 1 0 0 0 1 0"/>
</filter>
<mask id="mask0">
  <g filter="url(#alpha)">
<rect x="0" y="0" width="16" height="16" style="fill:rgb(0%,0%,0%);fill-opacity:0.3;stroke:none;"/>
  </g>
</mask>
<clipPath id="clip1">
  <rect x="0" y="0" width="16" height="16"/>
</clipPath>
<g id="surface5" clip-path="url(#clip1)">
<path style=" stroke:none;fill-rule:nonzero;fill:rgb(100%,74.901962%,0%);fill-opacity:1;" d="M 8 2.667969 C 5.054688 2.667969 2.667969 5.054688 2.667969 8 C 2.667969 10.945312 5.054688 13.332031 8 13.332031 C 10.945312 13.332031 13.332031 10.945312 13.332031 8 L 12 8 C 12 10.210938 10.210938 12 8 12 C 5.789062 12 4 10.210938 4 8 C 4 5.789062 5.789062 4 8 4 Z M 8 4.667969 C 6.160156 4.667969 4.667969 6.160156 4.667969 8 C 4.667969 9.839844 6.160156 11.332031 8 11.332031 C 9.839844 11.332031 11.332031 9.839844 11.332031 8 L 10 8 C 10 9.105469 9.105469 10 8 10 C 6.894531 10 6 9.105469 6 8 C 6 6.894531 6.894531 6 8 6 Z M 8 4.667969 "/>
</g>
</defs>
<g id="surface1">
<use xlink:href="#surface5" mask="url(#mask0)"/>
<path style=" stroke:none;fill-rule:nonzero;fill:rgb(100%,74.901962%,0%);fill-opacity:1;" d="M 8 2.667969 L 8 4 C 10.210938 4 12 5.789062 12 8 L 13.332031 8 C 13.332031 5.054688 10.945312 2.667969 8 2.667969 Z M 8 4.667969 L 8 6 C 9.105469 6 10 6.894531 10 8 L 11.332031 8 C 11.332031 6.160156 9.839844 4.667969 8 4.667969 Z M 8 4.667969 "/>
<path style=" stroke:none;fill-rule:nonzero;fill:rgb(25.882354%,52.156866%,95.686275%);fill-opacity:1;" d="M 9.332031 8 C 9.332031 8.738281 8.738281 9.332031 8 9.332031 C 7.261719 9.332031 6.667969 8.738281 6.667969 8 C 6.667969 7.261719 7.261719 6.667969 8 6.667969 C 8.738281 6.667969 9.332031 7.261719 9.332031 8 Z M 9.332031 8 "/>
</g>
</svg>
