<svg xmlns="http://www.w3.org/2000/svg" xmlns:xlink="http://www.w3.org/1999/xlink" width="16" height="16" viewBox="0 0 16 16" version="1.1">
<g id="surface1">
<path style=" stroke:none;fill-rule:nonzero;fill:rgb(100%,30.980393%,30.980393%);fill-opacity:1;" d="M 7.949219 2.675781 L 3.4375 4 C 3.375 4.019531 3.332031 4.316406 3.332031 4.378906 C 3.332031 5.960938 3.757812 7.789062 4.503906 9.394531 C 5.105469 10.699219 6.1875 12.4375 7.929688 13.316406 C 7.953125 13.328125 7.976562 13.332031 8 13.332031 C 8.023438 13.332031 8.046875 13.328125 8.070312 13.316406 C 9.8125 12.4375 10.894531 10.699219 11.496094 9.394531 C 12.242188 7.789062 12.667969 5.960938 12.667969 4.378906 C 12.667969 4.316406 12.625 4.019531 12.5625 4 L 8.050781 2.675781 C 8.019531 2.664062 7.980469 2.664062 7.949219 2.675781 Z M 7.96875 4.671875 C 7.988281 4.664062 8.007812 4.664062 8.027344 4.671875 L 10.609375 5.550781 C 10.644531 5.5625 10.667969 5.59375 10.667969 5.628906 C 10.667969 6.519531 10.421875 7.546875 10 8.453125 C 9.652344 9.183594 9.035156 10.160156 8.039062 10.65625 C 8.027344 10.664062 8.015625 10.667969 8 10.667969 C 7.984375 10.667969 7.972656 10.664062 7.960938 10.65625 C 6.964844 10.164062 6.347656 9.183594 6 8.453125 C 5.578125 7.546875 5.332031 6.519531 5.332031 5.628906 C 5.332031 5.59375 5.355469 5.5625 5.390625 5.550781 Z M 7.96875 4.671875 "/>
<path style=" stroke:none;fill-rule:nonzero;fill:rgb(25.882354%,52.156866%,95.686275%);fill-opacity:1;" d="M 7.332031 5.332031 L 7.332031 8 L 8.667969 8 L 8.667969 5.332031 Z M 7.332031 8.667969 L 7.332031 10 L 8.667969 10 L 8.667969 8.667969 Z M 7.332031 8.667969 "/>
</g>
</svg>
