<svg xmlns="http://www.w3.org/2000/svg" xmlns:xlink="http://www.w3.org/1999/xlink" width="16" height="16" viewBox="0 0 16 16" version="1.1">
<g id="surface1">
<path style=" stroke:none;fill-rule:nonzero;fill:rgb(100%,74.901962%,0%);fill-opacity:1;" d="M 8.027344 2.667969 C 7.808594 2.660156 7.597656 2.71875 7.40625 2.828125 L 3.925781 4.890625 C 3.558594 5.105469 3.332031 5.507812 3.332031 5.941406 L 3.332031 10.058594 C 3.332031 10.492188 3.558594 10.894531 3.925781 11.109375 L 7.40625 13.171875 C 7.773438 13.386719 8.226562 13.386719 8.59375 13.171875 L 12.074219 11.109375 C 12.441406 10.894531 12.667969 10.492188 12.667969 10.058594 L 12.667969 5.941406 C 12.667969 5.507812 12.441406 5.105469 12.074219 4.890625 L 8.59375 2.828125 C 8.421875 2.726562 8.226562 2.671875 8.027344 2.667969 Z M 6.027344 6 C 6.109375 6 6.195312 6 6.253906 6.003906 C 6.839844 6.054688 7.4375 6.304688 7.902344 6.699219 C 7.964844 6.753906 7.984375 6.765625 8 6.765625 C 8.015625 6.765625 8.035156 6.753906 8.097656 6.699219 C 8.5625 6.304688 9.160156 6.054688 9.75 6.003906 C 9.863281 5.996094 10.089844 6 10.1875 6.015625 C 10.921875 6.121094 11.332031 6.617188 11.332031 7.402344 C 11.332031 7.601562 11.3125 7.738281 11.261719 7.910156 C 11.125 8.339844 10.824219 8.71875 10.363281 9.035156 C 10.210938 9.140625 10.007812 9.253906 9.839844 9.328125 C 9.828125 9.332031 9.828125 9.335938 9.816406 9.339844 C 9.816406 9.363281 9.816406 9.382812 9.816406 9.40625 C 9.816406 10.042969 9.527344 10.605469 9.078125 10.957031 C 9.0625 10.96875 9.046875 10.984375 9.027344 10.996094 C 9.019531 11.003906 9.007812 11.011719 8.996094 11.019531 C 8.78125 11.171875 8.527344 11.277344 8.25 11.320312 C 8.25 11.320312 8.246094 11.316406 8.242188 11.3125 C 8.164062 11.324219 8.082031 11.332031 8 11.332031 C 7.949219 11.332031 7.902344 11.328125 7.851562 11.324219 C 7.851562 11.328125 7.851562 11.328125 7.851562 11.332031 C 7.851562 11.332031 7.847656 11.324219 7.847656 11.324219 C 6.914062 11.242188 6.183594 10.417969 6.183594 9.40625 C 6.183594 9.382812 6.183594 9.363281 6.183594 9.339844 C 6.171875 9.332031 6.175781 9.332031 6.160156 9.328125 C 5.9375 9.230469 5.699219 9.085938 5.5 8.933594 C 5.023438 8.570312 4.75 8.132812 4.679688 7.632812 C 4.664062 7.523438 4.664062 7.289062 4.679688 7.171875 C 4.738281 6.734375 4.914062 6.421875 5.222656 6.222656 C 5.386719 6.117188 5.582031 6.046875 5.8125 6.015625 C 5.863281 6.007812 5.941406 6.003906 6.027344 6 Z M 6.445312 7.34375 C 6.398438 7.34375 6.355469 7.351562 6.320312 7.359375 C 6.144531 7.40625 6.023438 7.503906 6.023438 7.59375 C 6.023438 7.628906 6.035156 7.652344 6.070312 7.683594 C 6.109375 7.722656 6.171875 7.75 6.3125 7.792969 C 6.382812 7.816406 6.476562 7.847656 6.515625 7.863281 C 6.699219 7.941406 6.863281 8.050781 7.003906 8.191406 C 7.058594 8.242188 7.0625 8.246094 7.085938 8.246094 C 7.105469 8.246094 7.117188 8.242188 7.128906 8.230469 C 7.148438 8.210938 7.148438 8.183594 7.136719 8.085938 C 7.09375 7.792969 6.980469 7.59375 6.78125 7.464844 C 6.714844 7.417969 6.601562 7.363281 6.554688 7.351562 C 6.53125 7.34375 6.488281 7.339844 6.445312 7.34375 Z M 9.597656 7.34375 C 9.539062 7.339844 9.484375 7.339844 9.445312 7.351562 C 9.398438 7.363281 9.289062 7.417969 9.21875 7.464844 C 9.023438 7.59375 8.90625 7.792969 8.863281 8.085938 C 8.851562 8.183594 8.851562 8.210938 8.871094 8.230469 C 8.882812 8.242188 8.894531 8.246094 8.914062 8.246094 C 8.9375 8.246094 8.941406 8.242188 8.996094 8.191406 C 9.070312 8.113281 9.15625 8.046875 9.242188 7.992188 C 9.382812 7.902344 9.484375 7.855469 9.6875 7.792969 C 9.863281 7.738281 9.933594 7.699219 9.964844 7.640625 C 9.980469 7.617188 9.980469 7.566406 9.964844 7.539062 C 9.9375 7.488281 9.855469 7.425781 9.769531 7.390625 C 9.714844 7.367188 9.65625 7.351562 9.597656 7.34375 Z M 7.582031 9.128906 C 7.550781 9.128906 7.539062 9.140625 7.511719 9.195312 C 7.460938 9.304688 7.402344 9.488281 7.386719 9.605469 C 7.359375 9.773438 7.386719 9.976562 7.441406 10.015625 C 7.480469 10.046875 7.519531 10.023438 7.578125 9.933594 C 7.714844 9.738281 7.742188 9.484375 7.65625 9.214844 C 7.632812 9.144531 7.621094 9.128906 7.582031 9.128906 Z M 8.417969 9.128906 C 8.402344 9.128906 8.390625 9.132812 8.378906 9.140625 C 8.371094 9.148438 8.359375 9.171875 8.34375 9.214844 C 8.257812 9.484375 8.285156 9.738281 8.421875 9.933594 C 8.441406 9.964844 8.46875 9.996094 8.480469 10.007812 C 8.523438 10.042969 8.566406 10.027344 8.589844 9.96875 C 8.636719 9.847656 8.636719 9.660156 8.589844 9.480469 C 8.554688 9.347656 8.480469 9.15625 8.453125 9.136719 C 8.445312 9.132812 8.429688 9.128906 8.417969 9.128906 Z M 8.417969 9.128906 "/>
</g>
</svg>
