<svg xmlns="http://www.w3.org/2000/svg" xmlns:xlink="http://www.w3.org/1999/xlink" width="16" height="16" viewBox="0 0 16 16" version="1.1">
<g id="surface1">
<path style=" stroke:none;fill-rule:nonzero;fill:rgb(96.862745%,0%,100%);fill-opacity:1;" d="M 8.132812 2.667969 C 8.085938 2.667969 8.035156 2.667969 7.988281 2.671875 C 5.269531 2.679688 2.949219 4.765625 2.691406 7.496094 C 2.421875 10.304688 4.421875 12.859375 7.214844 13.277344 C 9.945312 13.683594 12.539062 11.90625 13.179688 9.242188 L 11.304688 6.984375 C 11.035156 6.660156 10.925781 6.667969 10.53125 6.667969 L 8.667969 6.667969 C 6.863281 6.640625 6.863281 9.359375 8.667969 9.332031 L 10.308594 9.332031 C 9.78125 10.261719 8.730469 10.804688 7.605469 10.636719 C 6.191406 10.425781 5.210938 9.171875 5.34375 7.746094 C 5.480469 6.324219 6.679688 5.277344 8.113281 5.335938 C 8.167969 5.339844 8.226562 5.339844 8.285156 5.332031 L 10 5.332031 C 10.742188 5.34375 11.351562 4.742188 11.351562 4 C 11.351562 3.257812 10.742188 2.65625 10 2.667969 Z M 8.132812 2.667969 "/>
</g>
</svg>
