<svg xmlns="http://www.w3.org/2000/svg" xmlns:xlink="http://www.w3.org/1999/xlink" width="16" height="16" viewBox="0 0 16 16" version="1.1">
<g id="surface1">
<path style=" stroke:none;fill-rule:nonzero;fill:rgb(0%,80.000001%,100%);fill-opacity:1;" d="M 4 3.332031 L 4 9.332031 L 5.332031 9.332031 L 5.332031 3.332031 Z M 6 4.667969 L 6 12.667969 L 7.332031 12.667969 L 7.332031 4.667969 Z M 8 4.667969 L 8 12.667969 L 9.332031 12.667969 L 9.332031 4.667969 Z M 10 4.667969 L 10 9.332031 L 11.332031 9.332031 L 11.332031 4.667969 Z M 10 4.667969 "/>
<path style=" stroke:none;fill-rule:nonzero;fill:rgb(25.882354%,52.156866%,95.686275%);fill-opacity:1;" d="M 13.332031 12 C 13.332031 12.738281 12.738281 13.332031 12 13.332031 C 11.261719 13.332031 10.667969 12.738281 10.667969 12 C 10.667969 11.261719 11.261719 10.667969 12 10.667969 C 12.738281 10.667969 13.332031 11.261719 13.332031 12 Z M 13.332031 12 "/>
</g>
</svg>
