<svg xmlns="http://www.w3.org/2000/svg" xmlns:xlink="http://www.w3.org/1999/xlink" width="16" height="16" viewBox="0 0 16 16" version="1.1">
<defs>
<filter id="alpha" filterUnits="objectBoundingBox" x="0%" y="0%" width="100%" height="100%">
  <feColorMatrix type="matrix" in="SourceGraphic" values="0 0 0 0 1 0 0 0 0 1 0 0 0 0 1 0 0 0 1 0"/>
</filter>
<mask id="mask0">
  <g filter="url(#alpha)">
<rect x="0" y="0" width="16" height="16" style="fill:rgb(0%,0%,0%);fill-opacity:0.3;stroke:none;"/>
  </g>
</mask>
<clipPath id="clip1">
  <rect x="0" y="0" width="16" height="16"/>
</clipPath>
<g id="surface5" clip-path="url(#clip1)">
<path style=" stroke:none;fill-rule:nonzero;fill:rgb(100%,74.901962%,0%);fill-opacity:1;" d="M 4.695312 4 L 8.003906 6.363281 L 11.3125 4 Z M 4.667969 7.253906 L 4.667969 12 L 11 12 C 10.785156 11.710938 10.667969 11.359375 10.667969 11 C 10.667969 10.476562 10.914062 9.980469 11.332031 9.667969 L 11.332031 7.261719 L 8.78125 9.085938 C 8.320312 9.414062 7.691406 9.414062 7.230469 9.085938 Z M 4.667969 7.253906 "/>
</g>
</defs>
<g id="surface1">
<use xlink:href="#surface5" mask="url(#mask0)"/>
<path style=" stroke:none;fill-rule:nonzero;fill:rgb(100%,74.901962%,0%);fill-opacity:1;" d="M 3.359375 4 C 3.171875 3.992188 2.992188 4.0625 2.859375 4.195312 C 2.730469 4.328125 2.660156 4.507812 2.667969 4.695312 C 2.667969 4.695312 2.667969 4.710938 2.667969 4.710938 L 2.667969 11.335938 C 2.667969 11.703125 2.960938 12.003906 3.328125 12 L 4 12 L 4 5.960938 L 7.617188 8.542969 C 7.847656 8.707031 8.160156 8.707031 8.390625 8.542969 L 12 5.964844 L 12 9.371094 C 12.109375 9.347656 12.222656 9.335938 12.332031 9.332031 C 12.695312 9.335938 13.046875 9.453125 13.332031 9.667969 L 13.332031 4.660156 C 13.332031 4.65625 13.332031 4.65625 13.332031 4.652344 C 13.328125 4.574219 13.3125 4.496094 13.285156 4.421875 C 13.277344 4.410156 13.273438 4.398438 13.269531 4.386719 C 13.238281 4.324219 13.199219 4.265625 13.148438 4.214844 C 13.136719 4.203125 13.128906 4.191406 13.117188 4.179688 C 13.066406 4.136719 13.011719 4.097656 12.953125 4.070312 C 12.933594 4.0625 12.910156 4.050781 12.886719 4.042969 C 12.828125 4.023438 12.765625 4.011719 12.703125 4.007812 C 12.691406 4.003906 12.679688 4 12.667969 4 L 12.664062 4.007812 C 12.523438 4.007812 12.390625 4.050781 12.277344 4.128906 L 8.003906 7.183594 L 3.730469 4.128906 C 3.621094 4.050781 3.492188 4.003906 3.359375 4 Z M 3.359375 4 "/>
<path style=" stroke:none;fill-rule:nonzero;fill:rgb(25.882354%,52.156866%,95.686275%);fill-opacity:1;" d="M 13.332031 11 C 13.332031 11.550781 12.886719 12 12.332031 12 C 11.78125 12 11.332031 11.550781 11.332031 11 C 11.332031 10.449219 11.78125 10 12.332031 10 C 12.886719 10 13.332031 10.449219 13.332031 11 Z M 13.332031 11 "/>
</g>
</svg>
