<svg xmlns="http://www.w3.org/2000/svg" xmlns:xlink="http://www.w3.org/1999/xlink" width="16" height="16" viewBox="0 0 16 16" version="1.1">
<g id="surface1">
<path style=" stroke:none;fill-rule:nonzero;fill:rgb(96.862745%,0%,100%);fill-opacity:1;" d="M 9.496094 2.671875 C 8.75 2.730469 8.042969 3.144531 7.640625 3.84375 C 7.003906 4.960938 7.390625 6.386719 8.507812 7.023438 C 9.628906 7.664062 11.050781 7.277344 11.691406 6.15625 C 12.332031 5.039062 11.941406 3.613281 10.824219 2.976562 L 10.824219 2.972656 C 10.40625 2.734375 9.941406 2.640625 9.496094 2.671875 Z M 4.878906 4.003906 C 4.34375 4.042969 3.839844 4.339844 3.554688 4.839844 C 3.097656 5.636719 3.375 6.65625 4.171875 7.113281 C 4.972656 7.570312 5.988281 7.292969 6.445312 6.492188 C 6.902344 5.695312 6.625 4.675781 5.828125 4.21875 C 5.527344 4.046875 5.199219 3.980469 4.878906 4.003906 Z M 11.542969 7.339844 C 11.011719 7.378906 10.503906 7.671875 10.21875 8.171875 C 9.761719 8.972656 10.042969 9.988281 10.839844 10.445312 C 11.640625 10.902344 12.65625 10.625 13.113281 9.828125 C 13.570312 9.027344 13.292969 8.011719 12.492188 7.554688 C 12.195312 7.382812 11.863281 7.3125 11.542969 7.339844 Z M 3.902344 8.003906 C 3.472656 8.035156 3.070312 8.273438 2.84375 8.671875 C 2.476562 9.3125 2.699219 10.125 3.339844 10.492188 C 3.976562 10.855469 4.792969 10.632812 5.15625 9.996094 C 5.523438 9.355469 5.300781 8.539062 4.660156 8.175781 C 4.421875 8.039062 4.15625 7.984375 3.902344 8.003906 Z M 9.421875 10.667969 C 8.902344 10.636719 8.390625 10.910156 8.140625 11.402344 C 7.8125 12.058594 8.078125 12.859375 8.734375 13.191406 C 9.394531 13.519531 10.195312 13.253906 10.523438 12.597656 C 10.855469 11.9375 10.589844 11.136719 9.929688 10.808594 C 9.765625 10.726562 9.59375 10.679688 9.421875 10.667969 Z M 5.59375 11.335938 C 5.273438 11.359375 4.96875 11.539062 4.796875 11.835938 C 4.523438 12.316406 4.691406 12.925781 5.171875 13.203125 C 5.648438 13.476562 6.261719 13.308594 6.535156 12.828125 C 6.808594 12.351562 6.640625 11.738281 6.164062 11.464844 C 5.984375 11.363281 5.785156 11.320312 5.59375 11.335938 Z M 5.59375 11.335938 "/>
</g>
</svg>
