<svg xmlns="http://www.w3.org/2000/svg" xmlns:xlink="http://www.w3.org/1999/xlink" width="16" height="16" viewBox="0 0 16 16" version="1.1">
<defs>
<filter id="alpha" filterUnits="objectBoundingBox" x="0%" y="0%" width="100%" height="100%">
  <feColorMatrix type="matrix" in="SourceGraphic" values="0 0 0 0 1 0 0 0 0 1 0 0 0 0 1 0 0 0 1 0"/>
</filter>
<mask id="mask0">
  <g filter="url(#alpha)">
<rect x="0" y="0" width="16" height="16" style="fill:rgb(0%,0%,0%);fill-opacity:0.3;stroke:none;"/>
  </g>
</mask>
<clipPath id="clip1">
  <rect x="0" y="0" width="16" height="16"/>
</clipPath>
<g id="surface5" clip-path="url(#clip1)">
<path style=" stroke:none;fill-rule:nonzero;fill:rgb(100%,30.980393%,30.980393%);fill-opacity:1;" d="M 6.667969 3 L 6.667969 6.667969 L 8 6.667969 L 8 3 C 8 3 7.945312 2.667969 7.332031 2.667969 C 6.722656 2.667969 6.667969 3 6.667969 3 Z M 6.667969 3 "/>
</g>
</defs>
<g id="surface1">
<path style=" stroke:none;fill-rule:nonzero;fill:rgb(100%,30.980393%,30.980393%);fill-opacity:1;" d="M 3.199219 3.332031 C 2.90625 3.332031 2.667969 3.539062 2.667969 3.800781 L 2.667969 12.867188 C 2.667969 13.125 2.90625 13.332031 3.199219 13.332031 L 11.332031 13.332031 L 11.332031 12 L 8.667969 12 L 8.667969 11.332031 L 11.332031 11.332031 L 11.332031 10.667969 L 10.667969 10.667969 L 10.667969 10 L 11.332031 10 L 11.332031 7.332031 L 13.332031 7.332031 L 13.332031 3.800781 C 13.332031 3.539062 13.09375 3.332031 12.800781 3.332031 L 8.667969 3.332031 L 8.667969 6 L 10 6 L 10 6.667969 L 8.667969 6.667969 L 8.667969 7.332031 L 10 7.332031 L 10 8 L 8.667969 8 L 8.667969 7.332031 L 6.667969 7.332031 L 6.667969 8 L 4 8 L 4 7.332031 L 6 7.332031 L 6 5.332031 L 4 5.332031 L 4 4.667969 L 6 4.667969 L 6 3.332031 Z M 9.332031 4.667969 L 12 4.667969 L 12 5.332031 L 9.332031 5.332031 Z M 4 6 L 5.332031 6 L 5.332031 6.667969 L 4 6.667969 Z M 10.667969 6 L 12 6 L 12 6.667969 L 10.667969 6.667969 Z M 4 8.667969 L 6 8.667969 L 6 9.332031 L 4 9.332031 Z M 8.667969 8.667969 L 10.667969 8.667969 L 10.667969 9.332031 L 8.667969 9.332031 Z M 4 10 L 6 10 L 6 10.667969 L 4 10.667969 Z M 6.667969 10 L 7.332031 10 L 7.332031 10.667969 L 6.667969 10.667969 Z M 8.667969 10 L 9.332031 10 L 9.332031 10.667969 L 8.667969 10.667969 Z M 4 11.332031 L 4.667969 11.332031 L 4.667969 12 L 4 12 Z M 5.332031 11.332031 L 7.332031 11.332031 L 7.332031 12 L 5.332031 12 Z M 5.332031 11.332031 "/>
<use xlink:href="#surface5" mask="url(#mask0)"/>
<path style=" stroke:none;fill-rule:nonzero;fill:rgb(25.882354%,52.156866%,95.686275%);fill-opacity:1;" d="M 12 8 L 12 12 L 13.332031 12 L 13.332031 8 Z M 12 12.667969 L 12 14 L 13.332031 14 L 13.332031 12.667969 Z M 12 12.667969 "/>
</g>
</svg>
