<svg xmlns="http://www.w3.org/2000/svg" xmlns:xlink="http://www.w3.org/1999/xlink" width="16" height="16" viewBox="0 0 16 16" version="1.1">
<defs>
<filter id="alpha" filterUnits="objectBoundingBox" x="0%" y="0%" width="100%" height="100%">
  <feColorMatrix type="matrix" in="SourceGraphic" values="0 0 0 0 1 0 0 0 0 1 0 0 0 0 1 0 0 0 1 0"/>
</filter>
<mask id="mask0">
  <g filter="url(#alpha)">
<rect x="0" y="0" width="16" height="16" style="fill:rgb(0%,0%,0%);fill-opacity:0.3;stroke:none;"/>
  </g>
</mask>
<clipPath id="clip1">
  <rect x="0" y="0" width="16" height="16"/>
</clipPath>
<g id="surface5" clip-path="url(#clip1)">
<path style=" stroke:none;fill-rule:nonzero;fill:rgb(96.862745%,0%,100%);fill-opacity:1;" d="M 8 3.148438 L 6.539062 4.667969 L 4.667969 4.667969 L 4.667969 6.539062 L 3.148438 8 L 4.667969 9.480469 L 4.667969 11.332031 L 6.539062 11.332031 L 8 12.851562 L 9.480469 11.332031 L 11.332031 11.332031 L 11.332031 9.480469 L 12.851562 8 L 11.332031 6.667969 L 11.332031 4.667969 L 9.480469 4.667969 Z M 8 5.332031 C 9.472656 5.332031 10.667969 6.527344 10.667969 8 C 10.667969 9.472656 9.472656 10.667969 8 10.667969 C 6.527344 10.667969 5.332031 9.472656 5.332031 8 C 5.332031 6.527344 6.527344 5.332031 8 5.332031 Z M 8 6 C 6.894531 6 6 6.894531 6 8 C 6 9.105469 6.894531 10 8 10 Z M 8 6 "/>
</g>
</defs>
<g id="surface1">
<use xlink:href="#surface5" mask="url(#mask0)"/>
</g>
</svg>
