<svg xmlns="http://www.w3.org/2000/svg" xmlns:xlink="http://www.w3.org/1999/xlink" width="16" height="16" viewBox="0 0 16 16" version="1.1">
<defs>
<filter id="alpha" filterUnits="objectBoundingBox" x="0%" y="0%" width="100%" height="100%">
  <feColorMatrix type="matrix" in="SourceGraphic" values="0 0 0 0 1 0 0 0 0 1 0 0 0 0 1 0 0 0 1 0"/>
</filter>
<mask id="mask0">
  <g filter="url(#alpha)">
<rect x="0" y="0" width="16" height="16" style="fill:rgb(0%,0%,0%);fill-opacity:0.3;stroke:none;"/>
  </g>
</mask>
<clipPath id="clip1">
  <rect x="0" y="0" width="16" height="16"/>
</clipPath>
<g id="surface5" clip-path="url(#clip1)">
<path style=" stroke:none;fill-rule:evenodd;fill:rgb(100%,74.901962%,0%);fill-opacity:1;" d="M 12.667969 8.667969 C 12.667969 8.296875 12.371094 8 12 8 L 3.332031 8 C 2.964844 8 2.667969 8.296875 2.667969 8.667969 L 2.667969 12 C 2.667969 12.371094 2.964844 12.667969 3.332031 12.667969 L 12 12.667969 C 12.371094 12.667969 12.667969 12.371094 12.667969 12 Z M 10.667969 8.667969 L 10.667969 9.332031 L 10 9.332031 L 10 8.667969 Z M 10.667969 10 L 10.667969 10.667969 L 10 10.667969 L 10 10 Z M 10 11.332031 L 10 12 L 5.332031 12 L 5.332031 11.332031 Z M 9.332031 8.667969 L 9.332031 9.332031 L 8.667969 9.332031 L 8.667969 8.667969 Z M 9.332031 10 L 9.332031 10.667969 L 8.667969 10.667969 L 8.667969 10 Z M 8 8.667969 L 8 9.332031 L 7.332031 9.332031 L 7.332031 8.667969 Z M 8 10 L 8 10.667969 L 7.332031 10.667969 L 7.332031 10 Z M 6.667969 8.667969 L 6.667969 9.332031 L 6 9.332031 L 6 8.667969 Z M 6.667969 10 L 6.667969 10.667969 L 6 10.667969 L 6 10 Z M 5.332031 8.667969 L 5.332031 9.332031 L 4.667969 9.332031 L 4.667969 8.667969 Z M 5.332031 10 L 5.332031 10.667969 L 4.667969 10.667969 L 4.667969 10 Z M 5.332031 10 "/>
</g>
</defs>
<g id="surface1">
<use xlink:href="#surface5" mask="url(#mask0)"/>
<path style=" stroke:none;fill-rule:nonzero;fill:rgb(25.882354%,52.156866%,95.686275%);fill-opacity:1;" d="M 7.332031 3.332031 L 7.332031 6 L 8.667969 6 L 8.667969 3.332031 Z M 7.332031 6.667969 L 7.332031 7.332031 L 8.667969 7.332031 L 8.667969 6.667969 Z M 7.332031 6.667969 "/>
</g>
</svg>
