<svg xmlns="http://www.w3.org/2000/svg" xmlns:xlink="http://www.w3.org/1999/xlink" width="16" height="16" viewBox="0 0 16 16" version="1.1">
<g id="surface1">
<path style=" stroke:none;fill-rule:nonzero;fill:rgb(100%,30.980393%,30.980393%);fill-opacity:1;" d="M 2.679688 3.324219 C 1.78125 3.308594 1.769531 4.664062 2.671875 4.65625 L 2.671875 11.992188 C 2.65625 12.890625 4.003906 12.890625 4.003906 12 L 4 12 L 4 3.972656 C 3.988281 3.613281 3.699219 3.324219 3.335938 3.324219 Z M 4.667969 3.992188 L 4.667969 11.324219 L 5.335938 11.324219 L 5.335938 12.171875 C 5.335938 12.65625 5.820312 12.65625 5.820312 12.65625 L 6.671875 12.65625 L 6.671875 11.324219 L 8.003906 11.324219 L 8.003906 12.65625 L 9.335938 12.65625 L 9.335938 11.324219 L 10.671875 11.324219 L 10.671875 12.65625 L 11.519531 12.65625 C 11.519531 12.65625 12.003906 12.65625 12.003906 12.171875 L 12.003906 11.324219 L 12.203125 11.324219 C 12.460938 11.324219 12.671875 11.121094 12.671875 10.867188 L 12.671875 4.449219 C 12.671875 4.195312 12.460938 3.992188 12.203125 3.992188 Z M 8 5.332031 L 9.332031 5.332031 L 9.332031 6.667969 L 8 6.667969 Z M 8 7.332031 L 9.332031 7.332031 L 9.332031 10 L 8 10 Z M 8 7.332031 "/>
</g>
</svg>
