<svg xmlns="http://www.w3.org/2000/svg" xmlns:xlink="http://www.w3.org/1999/xlink" width="16" height="16" viewBox="0 0 16 16" version="1.1">
<g id="surface1">
<path style=" stroke:none;fill-rule:nonzero;fill:rgb(0%,100%,66.666669%);fill-opacity:1;" d="M 11.332031 10 L 11.332031 14 L 12.667969 14 L 12.667969 10 Z M 13.332031 10 L 13.332031 14 L 14.667969 14 L 14.667969 10 Z M 3.886719 2.667969 C 3.746094 2.667969 3.625 2.71875 3.535156 2.8125 C 3.402344 2.9375 3.332031 3.144531 3.332031 3.410156 L 3.332031 12.585938 C 3.332031 12.851562 3.410156 13.058594 3.535156 13.183594 C 3.722656 13.371094 4.019531 13.390625 4.355469 13.191406 L 6.746094 11.796875 L 11.921875 8.78125 C 11.949219 8.652344 11.96875 8.519531 11.980469 8.390625 C 11.96875 8.519531 11.949219 8.652344 11.921875 8.78125 L 12.242188 8.59375 C 12.808594 8.269531 12.808594 7.734375 12.242188 7.402344 L 11.921875 7.214844 C 11.558594 5.382812 9.941406 4 8 4 C 7.5625 4 7.144531 4.070312 6.75 4.199219 L 4.355469 2.804688 C 4.1875 2.707031 4.027344 2.664062 3.886719 2.667969 Z M 6.328125 4.371094 C 6.285156 4.390625 6.242188 4.414062 6.203125 4.433594 C 6.242188 4.414062 6.285156 4.390625 6.328125 4.371094 Z M 5.921875 4.589844 C 5.875 4.621094 5.828125 4.648438 5.78125 4.679688 C 5.828125 4.648438 5.875 4.621094 5.921875 4.589844 Z M 8 4.667969 C 9.847656 4.667969 11.332031 6.152344 11.332031 8 C 11.332031 8.125 11.3125 8.25 11.296875 8.375 L 6.699219 11.050781 C 6.613281 11.015625 6.523438 10.984375 6.441406 10.941406 L 6.429688 10.933594 L 6.414062 10.925781 C 6.398438 10.917969 6.402344 10.921875 6.390625 10.917969 C 6.382812 10.914062 6.363281 10.898438 6.289062 10.851562 L 6.285156 10.851562 C 6.238281 10.824219 6.1875 10.792969 6.140625 10.757812 L 6.132812 10.753906 C 6.074219 10.714844 6.023438 10.675781 5.972656 10.640625 L 5.972656 10.636719 C 5.921875 10.597656 5.871094 10.554688 5.820312 10.511719 C 5.75 10.453125 5.707031 10.414062 5.679688 10.390625 L 5.679688 10.386719 L 5.664062 10.371094 C 5.582031 10.292969 5.507812 10.210938 5.4375 10.125 C 5.414062 10.097656 5.378906 10.050781 5.332031 9.988281 L 5.332031 9.984375 C 5.289062 9.929688 5.246094 9.871094 5.207031 9.8125 L 5.207031 9.808594 C 5.171875 9.753906 5.140625 9.703125 5.109375 9.652344 L 5.105469 9.648438 C 5.074219 9.585938 5.042969 9.527344 5.011719 9.464844 L 5.011719 9.460938 L 5.007812 9.457031 C 4.972656 9.382812 4.945312 9.328125 4.933594 9.300781 C 4.886719 9.1875 4.84375 9.074219 4.808594 8.957031 L 4.808594 8.953125 C 4.804688 8.933594 4.792969 8.886719 4.773438 8.816406 C 4.75 8.726562 4.734375 8.640625 4.71875 8.550781 C 4.707031 8.488281 4.699219 8.441406 4.695312 8.40625 L 4.695312 8.398438 C 4.679688 8.265625 4.667969 8.132812 4.667969 8 C 4.667969 7.921875 4.671875 7.84375 4.679688 7.765625 L 4.679688 7.757812 C 4.683594 7.6875 4.691406 7.617188 4.703125 7.542969 C 4.707031 7.511719 4.710938 7.480469 4.714844 7.449219 L 4.714844 7.445312 C 4.730469 7.359375 4.75 7.277344 4.769531 7.195312 C 4.773438 7.179688 4.777344 7.164062 4.78125 7.148438 L 4.78125 7.144531 L 4.785156 7.140625 C 4.808594 7.046875 4.835938 6.957031 4.867188 6.867188 C 4.867188 6.863281 4.871094 6.863281 4.871094 6.863281 C 4.871094 6.855469 4.875 6.847656 4.878906 6.839844 L 4.878906 6.835938 C 4.914062 6.742188 4.953125 6.652344 4.996094 6.5625 L 5 6.558594 C 5.003906 6.550781 5.007812 6.542969 5.011719 6.535156 L 5.011719 6.53125 C 5.054688 6.445312 5.101562 6.359375 5.152344 6.277344 C 5.160156 6.261719 5.167969 6.25 5.179688 6.234375 C 5.234375 6.144531 5.292969 6.058594 5.355469 5.976562 C 5.421875 5.886719 5.492188 5.804688 5.566406 5.730469 L 5.566406 5.726562 L 5.574219 5.71875 C 6.183594 5.070312 7.039062 4.667969 8 4.667969 Z M 5.539062 4.855469 C 5.496094 4.890625 5.457031 4.921875 5.417969 4.953125 C 5.457031 4.921875 5.496094 4.890625 5.539062 4.855469 Z M 11.980469 7.59375 C 11.992188 7.726562 12 7.863281 12 8 C 12 7.863281 11.992188 7.726562 11.980469 7.59375 Z M 4 8 C 4.003906 8.085938 4.007812 8.167969 4.015625 8.253906 C 4.007812 8.167969 4.003906 8.085938 4 8 Z M 4.171875 9.144531 C 4.191406 9.210938 4.214844 9.273438 4.238281 9.339844 C 4.214844 9.273438 4.191406 9.210938 4.171875 9.144531 Z M 6.128906 11.527344 C 6.226562 11.578125 6.328125 11.628906 6.429688 11.671875 C 6.328125 11.628906 6.226562 11.578125 6.128906 11.527344 Z M 10 8 C 10 9.105469 9.105469 10 8 10 C 6.894531 10 6 9.105469 6 8 C 6 6.894531 6.894531 6 8 6 C 9.105469 6 10 6.894531 10 8 Z M 10 8 "/>
</g>
</svg>
