<svg xmlns="http://www.w3.org/2000/svg" xmlns:xlink="http://www.w3.org/1999/xlink" width="16" height="16" viewBox="0 0 16 16" version="1.1">
<g id="surface1">
<path style=" stroke:none;fill-rule:nonzero;fill:rgb(0%,80.000001%,100%);fill-opacity:1;" d="M 4 2.667969 C 3.261719 2.667969 2.667969 3.261719 2.667969 4 L 2.667969 12 C 2.667969 12.738281 3.261719 13.332031 4 13.332031 L 12 13.332031 C 12.738281 13.332031 13.332031 12.738281 13.332031 12 L 13.332031 4 C 13.332031 3.261719 12.738281 2.667969 12 2.667969 Z M 6.667969 4 L 6.667969 4.667969 L 8.667969 4.667969 L 8.667969 6 L 6.667969 6 L 6.667969 6.667969 L 7.332031 6.667969 C 7.832031 6.667969 8.292969 6.878906 8.582031 7.203125 C 8.871094 7.527344 9 7.933594 9 8.332031 C 9 8.730469 8.871094 9.140625 8.582031 9.464844 C 8.292969 9.789062 7.832031 10 7.332031 10 L 6.667969 10 L 6.667969 10.667969 L 6 10.667969 L 6 10 L 4 10 L 4 8.667969 L 6 8.667969 L 6 8 L 5.332031 8 C 4.832031 8 4.375 7.789062 4.085938 7.464844 C 3.796875 7.140625 3.667969 6.730469 3.667969 6.332031 C 3.667969 5.933594 3.796875 5.527344 4.085938 5.203125 C 4.375 4.878906 4.832031 4.667969 5.332031 4.667969 L 6 4.667969 L 6 4 Z M 5.332031 6 C 5.167969 6 5.125 6.039062 5.082031 6.089844 C 5.039062 6.140625 5 6.230469 5 6.332031 C 5 6.433594 5.039062 6.527344 5.082031 6.578125 C 5.125 6.628906 5.167969 6.667969 5.332031 6.667969 L 6 6.667969 L 6 6 Z M 6.667969 8.667969 L 7.332031 8.667969 C 7.5 8.667969 7.539062 8.628906 7.585938 8.578125 C 7.628906 8.527344 7.667969 8.433594 7.667969 8.332031 C 7.667969 8.230469 7.628906 8.140625 7.585938 8.089844 C 7.539062 8.039062 7.5 8 7.332031 8 L 6.667969 8 Z M 8.667969 10.667969 L 12 10.667969 L 12 12 L 8.667969 12 Z M 8.667969 10.667969 "/>
</g>
</svg>
