<svg xmlns="http://www.w3.org/2000/svg" xmlns:xlink="http://www.w3.org/1999/xlink" width="16" height="16" viewBox="0 0 16 16" version="1.1">
<g id="surface1">
<path style=" stroke:none;fill-rule:nonzero;fill:rgb(67.058825%,40.000001%,100%);fill-opacity:1;" d="M 7.667969 2.667969 C 7.664062 2.679688 7.648438 2.675781 7.636719 2.675781 C 7.476562 2.691406 7.320312 2.707031 7.164062 2.734375 C 6.015625 2.945312 5.074219 3.488281 4.347656 4.363281 C 3.746094 5.082031 3.417969 5.90625 3.347656 6.824219 C 3.3125 7.269531 3.34375 7.914062 3.445312 8.347656 C 3.523438 8.671875 3.636719 8.984375 3.785156 9.285156 C 3.800781 9.3125 3.8125 9.335938 3.824219 9.363281 C 4.074219 9.832031 4.394531 10.253906 4.796875 10.617188 C 5.007812 10.808594 5.234375 10.980469 5.476562 11.128906 C 6.125 11.523438 6.824219 11.914062 7.574219 11.992188 L 7.738281 12.007812 C 7.792969 12.007812 8 12.023438 8 12.074219 C 8 12.53125 8 12.820312 8 13.277344 C 8 13.292969 8 13.3125 8 13.332031 C 8 13.332031 8.183594 13.25 8.339844 13.175781 C 9.117188 12.796875 9.832031 12.332031 10.480469 11.769531 C 10.625 11.640625 10.765625 11.507812 10.898438 11.367188 C 10.957031 11.308594 11.011719 11.246094 11.070312 11.1875 C 11.160156 11.097656 11.234375 10.996094 11.320312 10.898438 C 11.414062 10.789062 11.503906 10.671875 11.589844 10.550781 C 11.777344 10.289062 11.945312 10.015625 12.089844 9.730469 C 12.160156 9.582031 12.226562 9.4375 12.289062 9.285156 C 12.289062 9.28125 12.292969 9.28125 12.292969 9.277344 C 12.457031 8.867188 12.5625 8.4375 12.621094 8 C 12.640625 7.847656 12.652344 7.695312 12.660156 7.542969 C 12.679688 7.210938 12.65625 6.683594 12.59375 6.359375 C 12.429688 5.492188 12.035156 4.734375 11.414062 4.089844 C 11.148438 3.816406 10.855469 3.582031 10.53125 3.378906 C 9.925781 3.003906 9.265625 2.773438 8.546875 2.695312 C 8.460938 2.683594 8.371094 2.6875 8.285156 2.667969 Z M 7.113281 5.992188 C 7.253906 5.992188 7.367188 6.128906 7.324219 6.261719 C 7.335938 6.285156 7.332031 6.3125 7.332031 6.339844 C 7.332031 6.910156 7.332031 7.480469 7.332031 8.050781 C 7.332031 8.5625 7.003906 9.039062 6.515625 9.234375 C 6.503906 9.238281 6.492188 9.246094 6.480469 9.25 C 6.472656 9.253906 6.46875 9.253906 6.460938 9.257812 C 6.457031 9.257812 6.453125 9.261719 6.449219 9.261719 C 6.347656 9.289062 6.246094 9.3125 6.140625 9.328125 C 6.0625 9.339844 6.039062 9.296875 6.035156 9.21875 C 6.035156 9.164062 6.035156 9.109375 6.035156 9.054688 L 6.039062 8.761719 C 6.039062 8.738281 6.035156 8.71875 6.035156 8.695312 C 6.035156 8.621094 6.113281 8.589844 6.207031 8.570312 C 6.332031 8.542969 6.363281 8.503906 6.457031 8.417969 C 6.574219 8.3125 6.640625 8.140625 6.667969 7.996094 C 6.339844 7.996094 5.996094 7.996094 5.667969 7.996094 C 5.632812 7.996094 5.597656 7.992188 5.5625 7.992188 C 5.425781 7.992188 5.335938 7.726562 5.335938 7.59375 C 5.335938 7.078125 5.335938 6.785156 5.335938 6.265625 C 5.335938 6.261719 5.335938 6.257812 5.335938 6.25 C 5.324219 6.15625 5.351562 6.074219 5.441406 6.023438 C 5.476562 6 5.515625 5.992188 5.554688 5.992188 C 6.074219 5.992188 6.59375 5.992188 7.113281 5.992188 Z M 9.78125 5.992188 C 9.921875 5.992188 10.035156 6.128906 9.992188 6.261719 C 10 6.285156 10 6.3125 10 6.339844 C 10 6.910156 10 7.480469 10 8.050781 C 10 8.5625 9.667969 9.039062 9.183594 9.234375 C 9.171875 9.238281 9.160156 9.246094 9.148438 9.25 C 9.140625 9.253906 9.136719 9.253906 9.128906 9.257812 C 9.125 9.257812 9.121094 9.261719 9.117188 9.261719 C 9.015625 9.289062 8.914062 9.3125 8.808594 9.328125 C 8.726562 9.339844 8.703125 9.296875 8.703125 9.21875 C 8.703125 9.164062 8.703125 9.109375 8.703125 9.054688 L 8.703125 8.761719 C 8.703125 8.738281 8.703125 8.71875 8.703125 8.695312 C 8.703125 8.621094 8.777344 8.589844 8.875 8.570312 C 8.996094 8.542969 9.027344 8.503906 9.125 8.417969 C 9.238281 8.3125 9.304688 8.140625 9.332031 7.996094 C 9.003906 7.996094 8.664062 7.996094 8.335938 7.996094 C 8.300781 7.996094 8.261719 7.992188 8.226562 7.992188 C 8.09375 7.992188 8 7.726562 8 7.59375 C 8 7.078125 8 6.785156 8 6.265625 C 8 6.261719 8.003906 6.257812 8 6.25 C 7.992188 6.15625 8.019531 6.074219 8.109375 6.023438 C 8.144531 6 8.179688 5.992188 8.21875 5.992188 C 8.738281 5.992188 9.261719 5.992188 9.78125 5.992188 Z M 9.78125 5.992188 "/>
</g>
</svg>
