<svg xmlns="http://www.w3.org/2000/svg" xmlns:xlink="http://www.w3.org/1999/xlink" width="16" height="16" viewBox="0 0 16 16" version="1.1">
<g id="surface1">
<path style=" stroke:none;fill-rule:nonzero;fill:rgb(100%,74.901962%,0%);fill-opacity:1;" d="M 8 2.667969 C 5.046875 2.667969 2.667969 5.046875 2.667969 8 C 2.667969 10.953125 5.046875 13.332031 8 13.332031 C 10.953125 13.332031 13.332031 10.953125 13.332031 8 C 13.332031 5.046875 10.953125 2.667969 8 2.667969 Z M 9.472656 5.332031 C 9.609375 5.332031 9.851562 5.410156 9.933594 5.476562 L 10 5.535156 L 9.9375 5.722656 C 9.789062 6.152344 9.386719 8.078125 9.230469 9.09375 C 9.1875 9.359375 9.128906 9.710938 9.097656 9.867188 C 9.03125 10.210938 9.03125 10.339844 9.089844 10.496094 C 9.183594 10.746094 9.179688 10.773438 9.027344 10.84375 C 8.953125 10.878906 8.777344 10.925781 8.644531 10.949219 C 8.183594 11.027344 8.042969 10.925781 8.042969 10.511719 C 8.042969 10.230469 8.070312 10.082031 8.246094 9.347656 C 8.324219 9.023438 8.386719 8.734375 8.386719 8.703125 C 8.386719 8.648438 8.371094 8.644531 8.1875 8.664062 C 8.078125 8.675781 7.746094 8.6875 7.445312 8.6875 C 7.148438 8.691406 6.894531 8.703125 6.882812 8.710938 C 6.875 8.722656 6.8125 8.957031 6.753906 9.230469 C 6.691406 9.503906 6.582031 9.957031 6.507812 10.230469 C 6.433594 10.507812 6.367188 10.816406 6.359375 10.917969 C 6.351562 11.039062 6.332031 11.117188 6.300781 11.144531 C 6.234375 11.207031 5.890625 11.308594 5.671875 11.328125 C 5.410156 11.355469 5.316406 11.242188 5.335938 11.046875 C 5.355469 10.871094 5.457031 10.496094 5.714844 9.671875 C 6.152344 8.277344 6.425781 6.6875 6.308594 6.226562 C 6.28125 6.113281 6.277344 6.054688 6.296875 6.027344 C 6.363281 5.945312 6.628906 5.855469 6.847656 5.84375 C 7.296875 5.832031 7.277344 6 7.261719 6.363281 C 7.25 6.6875 7.160156 7.300781 7.082031 7.710938 C 7.058594 7.839844 7.042969 7.960938 7.054688 7.984375 C 7.066406 8.019531 7.1875 8.027344 7.761719 8.027344 C 8.144531 8.027344 8.472656 8.015625 8.492188 8.003906 C 8.550781 7.964844 8.582031 7.835938 8.832031 6.710938 C 8.964844 6.113281 9.09375 5.582031 9.121094 5.53125 C 9.183594 5.421875 9.339844 5.332031 9.472656 5.332031 Z M 9.472656 5.332031 "/>
</g>
</svg>
