<svg xmlns="http://www.w3.org/2000/svg" xmlns:xlink="http://www.w3.org/1999/xlink" width="16" height="16" viewBox="0 0 16 16" version="1.1">
<g id="surface1">
<path style=" stroke:none;fill-rule:nonzero;fill:rgb(96.862745%,0%,100%);fill-opacity:1;" d="M 5.003906 3.332031 C 4.765625 3.332031 4.542969 3.460938 4.421875 3.664062 L 2.089844 7.664062 C 1.96875 7.871094 1.96875 8.128906 2.089844 8.335938 L 4.421875 12.332031 C 4.542969 12.539062 4.765625 12.667969 5.003906 12.667969 L 9.664062 12.667969 C 9.902344 12.667969 10.125 12.539062 10.246094 12.332031 L 12.574219 8.335938 C 12.695312 8.128906 12.695312 7.871094 12.574219 7.664062 L 10.246094 3.664062 C 10.125 3.460938 9.902344 3.332031 9.664062 3.332031 Z M 9.082031 4.667969 C 9.253906 4.667969 9.414062 4.75 9.507812 4.886719 L 7.335938 7.058594 L 5.164062 4.886719 C 5.25 4.753906 5.402344 4.671875 5.566406 4.667969 Z M 4.445312 6.054688 L 6.390625 8 L 4.445312 9.945312 L 3.402344 8.238281 C 3.3125 8.089844 3.3125 7.90625 3.402344 7.761719 Z M 10.222656 6.054688 L 11.265625 7.761719 C 11.359375 7.90625 11.359375 8.089844 11.265625 8.238281 L 10.222656 9.945312 L 8.277344 8 Z M 7.335938 8.941406 L 9.503906 11.113281 C 9.414062 11.25 9.253906 11.332031 9.082031 11.332031 L 5.585938 11.332031 C 5.414062 11.332031 5.257812 11.25 5.164062 11.113281 Z M 7.335938 8.941406 "/>
<path style=" stroke:none;fill-rule:nonzero;fill:rgb(25.882354%,52.156866%,95.686275%);fill-opacity:1;" d="M 11.691406 3.332031 C 11.40625 3.332031 11.242188 3.644531 11.386719 3.867188 L 12.652344 5.820312 C 12.808594 6.058594 13.195312 6.058594 13.347656 5.820312 L 13.984375 4.84375 L 14.613281 3.867188 C 14.765625 3.628906 14.574219 3.335938 14.265625 3.332031 Z M 11.691406 3.332031 "/>
</g>
</svg>
