<svg xmlns="http://www.w3.org/2000/svg" xmlns:xlink="http://www.w3.org/1999/xlink" width="16" height="16" viewBox="0 0 16 16" version="1.1">
<g id="surface1">
<path style=" stroke:none;fill-rule:nonzero;fill:rgb(0%,100%,66.666669%);fill-opacity:1;" d="M 8 2.628906 C 5.089844 2.628906 2.667969 4.847656 2.667969 7.628906 C 2.667969 10.410156 5.089844 12.628906 8 12.628906 C 8.410156 12.628906 8.808594 12.550781 9.207031 12.464844 C 10.027344 13.003906 10.984375 13.488281 12.117188 13.285156 C 12.359375 13.242188 12.554688 13.070312 12.632812 12.835938 C 12.707031 12.605469 12.652344 12.351562 12.484375 12.171875 C 12.097656 11.761719 11.890625 11.507812 11.878906 10.960938 C 12.765625 10.046875 13.332031 8.886719 13.332031 7.632812 C 13.332031 4.851562 10.910156 2.632812 8 2.632812 Z M 8 3.964844 C 10.242188 3.964844 12 5.625 12 7.628906 C 12 8.628906 11.554688 9.589844 10.75 10.285156 C 10.613281 10.40625 10.53125 10.574219 10.523438 10.753906 C 10.5 11.175781 10.632812 11.492188 10.753906 11.8125 C 10.417969 11.675781 10.082031 11.484375 9.71875 11.230469 C 9.554688 11.117188 9.347656 11.082031 9.15625 11.136719 C 8.78125 11.242188 8.394531 11.296875 8 11.296875 C 5.757812 11.296875 4 9.636719 4 7.628906 C 4 5.625 5.757812 3.964844 8 3.964844 Z M 10.011719 8.523438 C 9.898438 8.523438 9.789062 8.5625 9.699219 8.628906 C 9.097656 9.085938 8.539062 9.289062 8 9.289062 C 7.457031 9.289062 6.90625 9.089844 6.304688 8.632812 C 6.082031 8.464844 5.769531 8.507812 5.601562 8.726562 C 5.433594 8.945312 5.476562 9.261719 5.695312 9.425781 C 6.429688 9.984375 7.207031 10.289062 8 10.289062 C 8.792969 10.285156 9.570312 9.980469 10.300781 9.429688 C 10.476562 9.300781 10.546875 9.078125 10.480469 8.871094 C 10.414062 8.667969 10.226562 8.527344 10.011719 8.523438 Z M 10.011719 8.523438 "/>
<path style=" stroke:none;fill-rule:nonzero;fill:rgb(25.882354%,52.156866%,95.686275%);fill-opacity:1;" d="M 9.332031 6.667969 C 9.332031 7.40625 8.738281 8 8 8 C 7.261719 8 6.667969 7.40625 6.667969 6.667969 C 6.667969 5.933594 7.261719 5.335938 8 5.335938 C 8.738281 5.335938 9.332031 5.933594 9.332031 6.667969 Z M 9.332031 6.667969 "/>
</g>
</svg>
