<svg xmlns="http://www.w3.org/2000/svg" xmlns:xlink="http://www.w3.org/1999/xlink" width="16" height="16" viewBox="0 0 16 16" version="1.1">
<g id="surface1">
<path style=" stroke:none;fill-rule:nonzero;fill:rgb(100%,74.901962%,0%);fill-opacity:1;" d="M 8 2.667969 C 7.894531 2.667969 7.789062 2.675781 7.683594 2.683594 C 7.371094 3.578125 7.050781 4.492188 6.742188 5.367188 C 7.179688 5.382812 7.855469 5.449219 8.160156 5.84375 C 8.300781 6.03125 8.289062 6.320312 8.207031 6.546875 C 7.808594 7.65625 7.402344 8.765625 7.011719 9.875 C 6.664062 9.878906 6.316406 9.871094 5.96875 9.875 C 5.921875 9.875 5.875 9.882812 5.828125 9.863281 C 6.269531 8.648438 6.703125 7.417969 7.140625 6.195312 C 6.933594 6.195312 6.726562 6.199219 6.519531 6.195312 C 6.488281 6.261719 6.460938 6.335938 6.4375 6.40625 C 6.035156 7.535156 5.628906 8.65625 5.230469 9.78125 C 5.210938 9.808594 5.21875 9.875 5.171875 9.875 C 4.839844 9.875 4.507812 9.871094 4.175781 9.875 C 4.117188 9.875 4.058594 9.882812 4 9.863281 C 4.792969 7.671875 5.589844 5.1875 6.382812 2.917969 C 4.222656 3.597656 2.667969 5.609375 2.667969 8 C 2.667969 10.453125 4.308594 12.503906 6.554688 13.128906 C 7.421875 10.710938 8.425781 7.984375 9.273438 5.609375 C 9.28125 5.59375 9.289062 5.546875 9.296875 5.53125 L 9.296875 5.527344 C 9.851562 5.535156 10.425781 5.539062 10.984375 5.539062 C 11.164062 5.542969 11.34375 5.519531 11.523438 5.574219 C 11.726562 5.632812 11.914062 5.789062 11.976562 6 C 12.023438 6.160156 11.988281 6.332031 11.929688 6.488281 C 11.574219 7.527344 11.210938 8.550781 10.84375 9.582031 C 10.75 9.851562 10.332031 10.019531 10.058594 10.027344 C 9.621094 10.035156 9.191406 10.03125 8.753906 10.039062 C 8.394531 11.046875 7.863281 12.261719 7.472656 13.308594 C 7.644531 13.324219 7.820312 13.332031 8 13.332031 C 10.953125 13.332031 13.332031 10.957031 13.332031 8 C 13.332031 5.046875 10.953125 2.667969 8 2.667969 Z M 6.554688 13.128906 C 6.703125 13.171875 6.851562 13.210938 7.003906 13.238281 C 6.851562 13.207031 6.703125 13.171875 6.554688 13.128906 Z M 6.382812 2.917969 C 6.589844 2.851562 6.800781 2.800781 7.019531 2.761719 C 6.800781 2.800781 6.589844 2.851562 6.382812 2.917969 Z M 7.019531 2.761719 C 7.234375 2.722656 7.457031 2.695312 7.679688 2.683594 C 7.457031 2.695312 7.234375 2.71875 7.019531 2.761719 Z M 10.34375 6.183594 C 10.324219 6.183594 10.308594 6.179688 10.292969 6.1875 L 10.292969 6.183594 C 10.28125 6.1875 10.265625 6.199219 10.257812 6.207031 C 9.875 7.273438 9.5 8.332031 9.121094 9.394531 C 9.328125 9.398438 9.542969 9.410156 9.753906 9.394531 C 10.121094 8.324219 10.503906 7.253906 10.878906 6.1875 C 10.71875 6.183594 10.558594 6.1875 10.398438 6.1875 C 10.378906 6.1875 10.359375 6.183594 10.34375 6.183594 Z M 7.046875 13.246094 C 7.1875 13.269531 7.324219 13.292969 7.46875 13.308594 C 7.324219 13.292969 7.1875 13.269531 7.046875 13.246094 Z M 7.046875 13.246094 "/>
</g>
</svg>
