<svg xmlns="http://www.w3.org/2000/svg" xmlns:xlink="http://www.w3.org/1999/xlink" width="16" height="16" viewBox="0 0 16 16" version="1.1">
<g id="surface1">
<path style=" stroke:none;fill-rule:nonzero;fill:rgb(96.862745%,0%,100%);fill-opacity:1;" d="M 8 2.667969 C 5.046875 2.667969 2.667969 5.046875 2.667969 8 C 2.667969 10.953125 5.046875 13.332031 8 13.332031 C 10.953125 13.332031 13.332031 10.953125 13.332031 8 C 13.332031 5.046875 10.953125 2.667969 8 2.667969 Z M 7 5.332031 L 9 5.332031 C 9.554688 5.332031 10 5.785156 10 6.347656 L 10 6.859375 C 10 7.421875 9.554688 8 9 8 L 8.667969 8 L 8.667969 10.160156 C 8.667969 10.441406 8.527344 10.667969 8.25 10.667969 L 7.75 10.667969 C 7.472656 10.667969 7.34375 10.441406 7.332031 10.160156 L 7.332031 8 L 7 8 C 6.445312 8 6 7.421875 6 6.859375 L 6 6.347656 C 6 5.785156 6.445312 5.332031 7 5.332031 Z M 7 5.332031 "/>
</g>
</svg>
