<svg xmlns="http://www.w3.org/2000/svg" xmlns:xlink="http://www.w3.org/1999/xlink" width="16" height="16" viewBox="0 0 16 16" version="1.1">
<g id="surface1">
<path style="fill:none;stroke-width:2;stroke-linecap:round;stroke-linejoin:miter;stroke:rgb(100%,30.980393%,30.980393%);stroke-opacity:1;stroke-miterlimit:4;" d="M 5 6.998047 L 9.001953 6.998047 M 6.998047 15.001953 L 6.998047 6.998047 " transform="matrix(0.666667,0,0,0.666667,0.666667,0.666667)"/>
<path style="fill:none;stroke-width:2;stroke-linecap:round;stroke-linejoin:miter;stroke:rgb(100%,30.980393%,30.980393%);stroke-opacity:1;stroke-miterlimit:4;" d="M 17.005859 15.001953 L 15.001953 12.001953 M 13.003906 11 L 15.001953 11 C 15.429688 11 15.734375 11 16.003906 11 C 17.005859 11 17.005859 11 17.005859 9.998047 C 17.005859 9.746094 17.005859 9.400391 17.005859 9.001953 L 17.005859 8 C 17.005859 6.998047 17.005859 6.998047 16.003906 6.998047 C 15.78125 6.998047 15.458984 7.009766 15.130859 7.009766 C 14.005859 6.998047 13.003906 6.998047 13.003906 6.998047 M 13.003906 15.001953 L 13.003906 6.998047 " transform="matrix(0.666667,0,0,0.666667,0.666667,0.666667)"/>
</g>
</svg>
