<svg xmlns="http://www.w3.org/2000/svg" xmlns:xlink="http://www.w3.org/1999/xlink" width="16" height="16" viewBox="0 0 16 16" version="1.1">
<g id="surface1">
<path style="fill:none;stroke-width:2;stroke-linecap:round;stroke-linejoin:bevel;stroke:rgb(100%,30.980393%,30.980393%);stroke-opacity:1;stroke-miterlimit:4;" d="M 8 14 C 8 14.996094 8 14.996094 6.998047 14.996094 C 6.599609 14.996094 5.257812 14.996094 5 14.996094 C 4.537109 14.996094 3.998047 14.996094 3.998047 14 L 3.998047 8 C 3.998047 6.998047 3.998047 6.998047 5 6.998047 C 5.433594 6.998047 5.808594 6.998047 6.001953 6.998047 C 6.423828 6.998047 6.453125 6.998047 6.998047 6.998047 C 8 6.998047 8 6.998047 8 8 " transform="matrix(0.666667,0,0,0.666667,0.666667,0.666667)"/>
<path style="fill:none;stroke-width:2;stroke-linecap:round;stroke-linejoin:round;stroke:rgb(100%,30.980393%,30.980393%);stroke-opacity:1;stroke-miterlimit:4;" d="M 18.001953 15.001953 L 18.001953 6.998047 M 12.001953 6.998047 L 15.001953 11 L 18.001953 6.998047 M 12.001953 15.001953 L 12.001953 6.998047 " transform="matrix(0.666667,0,0,0.666667,0.666667,0.666667)"/>
</g>
</svg>
