<svg xmlns="http://www.w3.org/2000/svg" xmlns:xlink="http://www.w3.org/1999/xlink" width="16" height="16" viewBox="0 0 16 16" version="1.1">
<g id="surface1">
<path style="fill:none;stroke-width:2;stroke-linecap:round;stroke-linejoin:bevel;stroke:rgb(0%,100%,66.666669%);stroke-opacity:1;stroke-miterlimit:4;" d="M 9.001953 7.003906 L 9.001953 13.003906 C 9.001953 14.005859 9.001953 15.007812 8 15.007812 C 7.607422 15.007812 7.390625 15.013672 6.998047 15.001953 C 6.617188 15.007812 6.998047 15.007812 6.001953 15.007812 C 5 15.007812 5 14.005859 5 13.003906 L 5 7.003906 " transform="matrix(0.666667,0,0,0.666667,0.666667,0.666667)"/>
<path style="fill:none;stroke-width:2;stroke-linecap:round;stroke-linejoin:miter;stroke:rgb(0%,100%,66.666669%);stroke-opacity:1;stroke-miterlimit:4;" d="M 17.005859 15.001953 L 15.001953 12.001953 M 13.003906 11 L 15.001953 11 C 15.429688 11 15.734375 11 16.003906 11 C 17.005859 11 17.005859 11 17.005859 9.998047 C 17.005859 9.746094 17.005859 9.400391 17.005859 9.001953 L 17.005859 8 C 17.005859 6.998047 17.005859 6.998047 16.003906 6.998047 C 15.78125 6.998047 15.458984 7.009766 15.130859 7.009766 C 14.005859 6.998047 13.003906 6.998047 13.003906 6.998047 M 13.003906 15.001953 L 13.003906 6.998047 " transform="matrix(0.666667,0,0,0.666667,0.666667,0.666667)"/>
</g>
</svg>
