<svg xmlns="http://www.w3.org/2000/svg" xmlns:xlink="http://www.w3.org/1999/xlink" width="16" height="16" viewBox="0 0 16 16" version="1.1">
<g id="surface1">
<path style="fill:none;stroke-width:2;stroke-linecap:round;stroke-linejoin:round;stroke:rgb(0%,80.000001%,100%);stroke-opacity:1;stroke-miterlimit:4;" d="M 9.998047 15.001953 L 9.998047 6.998047 M 3.998047 6.998047 L 6.998047 11 L 9.998047 6.998047 M 3.998047 15.001953 L 3.998047 6.998047 " transform="matrix(0.666667,0,0,0.666667,0.666667,0.666667)"/>
<path style="fill:none;stroke-width:2;stroke-linecap:round;stroke-linejoin:miter;stroke:rgb(0%,80.000001%,100%);stroke-opacity:1;stroke-miterlimit:4;" d="M 18.001953 15.001953 L 16.003906 12.001953 M 14.005859 11 L 16.003906 11 C 16.425781 11 16.730469 11 17.005859 11 C 18.001953 11 18.001953 11 18.001953 9.998047 C 18.001953 9.746094 18.001953 9.400391 18.001953 9.001953 L 18.001953 8 C 18.001953 6.998047 18.001953 6.998047 17.005859 6.998047 C 16.777344 6.998047 16.460938 7.009766 16.126953 7.009766 C 15.001953 6.998047 14.005859 6.998047 14.005859 6.998047 M 14.005859 15.001953 L 14.005859 6.998047 " transform="matrix(0.666667,0,0,0.666667,0.666667,0.666667)"/>
</g>
</svg>
