<svg xmlns="http://www.w3.org/2000/svg" xmlns:xlink="http://www.w3.org/1999/xlink" width="16" height="16" viewBox="0 0 16 16" version="1.1">
<g id="surface1">
<path style=" stroke:none;fill-rule:nonzero;fill:rgb(100%,30.980393%,30.980393%);fill-opacity:1;" d="M 4 2.667969 C 3.261719 2.667969 2.667969 3.261719 2.667969 4 L 2.667969 10 C 2.667969 10.738281 3.261719 11.332031 4 11.332031 L 6.667969 11.332031 L 5.140625 12.667969 C 4.449219 13.269531 4.507812 13.332031 5.140625 13.332031 L 10.191406 13.332031 C 10.824219 13.332031 10.824219 13.332031 10.191406 12.667969 L 8.667969 11.332031 L 11.332031 11.332031 C 12.070312 11.332031 12.667969 10.738281 12.667969 10 L 12.667969 4 C 12.667969 3.261719 12.070312 2.667969 11.332031 2.667969 Z M 4 4 L 11.332031 4 L 11.332031 10 L 4 10 Z M 6 4.667969 L 6 5.332031 L 8.667969 5.332031 L 8.667969 6.667969 L 6 6.667969 L 6 9.332031 L 9.332031 9.332031 L 9.332031 8.667969 L 6.667969 8.667969 L 6.667969 7.332031 L 9.332031 7.332031 L 9.332031 4.667969 Z M 6 4.667969 "/>
</g>
</svg>
