<svg xmlns="http://www.w3.org/2000/svg" xmlns:xlink="http://www.w3.org/1999/xlink" width="16" height="16" viewBox="0 0 16 16" version="1.1">
<g id="surface1">
<path style=" stroke:none;fill-rule:nonzero;fill:rgb(0%,100%,66.666669%);fill-opacity:1;" d="M 4.148438 10.371094 C 3.328125 10.371094 2.667969 11.035156 2.667969 11.851562 C 2.667969 12.671875 3.328125 13.332031 4.148438 13.332031 C 4.964844 13.332031 5.628906 12.671875 5.628906 11.851562 C 5.628906 11.035156 4.964844 10.371094 4.148438 10.371094 Z M 4.148438 10.371094 "/>
<path style=" stroke:none;fill-rule:nonzero;fill:rgb(0%,100%,66.666669%);fill-opacity:1;" d="M 2.667969 2.667969 L 2.667969 4.433594 C 7.460938 4.53125 11.328125 8.457031 11.328125 13.273438 C 11.328125 13.292969 11.328125 13.3125 11.328125 13.332031 L 13.097656 13.332031 C 13.097656 13.3125 13.097656 13.292969 13.097656 13.273438 C 13.097656 7.484375 8.433594 2.761719 2.667969 2.667969 Z M 2.667969 2.667969 "/>
<path style=" stroke:none;fill-rule:nonzero;fill:rgb(0%,100%,66.666669%);fill-opacity:1;" d="M 2.667969 6.210938 L 2.667969 7.976562 C 5.507812 8.074219 7.785156 10.410156 7.785156 13.273438 C 7.785156 13.292969 7.785156 13.3125 7.785156 13.332031 L 9.554688 13.332031 C 9.554688 13.3125 9.554688 13.292969 9.554688 13.273438 C 9.554688 9.433594 6.480469 6.304688 2.667969 6.210938 Z M 2.667969 6.210938 "/>
</g>
</svg>
