<svg xmlns="http://www.w3.org/2000/svg" xmlns:xlink="http://www.w3.org/1999/xlink" width="16" height="16" viewBox="0 0 16 16" version="1.1">
<g id="surface1">
<path style="fill:none;stroke-width:2;stroke-linecap:round;stroke-linejoin:bevel;stroke:rgb(67.058825%,40.000001%,100%);stroke-opacity:1;stroke-miterlimit:4;" d="M 3.96875 10.988281 C 3.96875 10.988281 5.966797 11.011719 6.96875 11.011719 C 7.373047 11.011719 7.707031 11.011719 7.970703 11.011719 C 8.966797 11.011719 8.966797 11.011719 8.966797 12.013672 C 8.966797 12.265625 8.966797 12.587891 8.966797 12.986328 C 8.966797 13.390625 8.966797 13.748047 8.966797 14.011719 C 8.966797 15.013672 8.966797 15.013672 7.970703 15.013672 C 7.712891 15.013672 7.361328 15.013672 6.96875 15.013672 C 5.966797 15.013672 3.96875 14.990234 3.96875 14.990234 M 3.96875 6.986328 L 3.96875 14.990234 M 3.96875 11.011719 L 5.966797 11.011719 C 7.970703 11.011719 7.970703 11.011719 7.970703 9.013672 L 7.970703 8.011719 C 7.970703 7.009766 7.970703 7.009766 6.96875 7.009766 C 6.710938 7.009766 6.371094 7.009766 5.966797 7.009766 L 3.96875 7.009766 M 3.96875 15.013672 L 3.96875 7.009766 " transform="matrix(0.666667,0,0,0.666667,0.666667,0.666667)"/>
<path style="fill:none;stroke-width:2;stroke-linecap:round;stroke-linejoin:bevel;stroke:rgb(67.058825%,40.000001%,100%);stroke-opacity:1;stroke-miterlimit:4;" d="M 15.951172 12.001953 L 17.955078 12.001953 M 16.953125 12.001953 L 16.953125 14 C 16.953125 15.001953 16.953125 15.001953 15.951172 15.001953 C 15.546875 15.001953 14.251953 15.001953 13.953125 15.001953 C 12.951172 15.001953 12.951172 15.001953 12.951172 14 L 12.951172 8 C 12.951172 6.998047 12.951172 6.998047 13.953125 6.998047 C 14.205078 6.998047 15.570312 6.998047 15.951172 6.998047 C 16.953125 6.998047 16.953125 6.998047 16.953125 8 " transform="matrix(0.666667,0,0,0.666667,0.666667,0.666667)"/>
</g>
</svg>
