<svg xmlns="http://www.w3.org/2000/svg" xmlns:xlink="http://www.w3.org/1999/xlink" width="16" height="16" viewBox="0 0 16 16" version="1.1">
<g id="surface1">
<path style=" stroke:none;fill-rule:nonzero;fill:rgb(100%,30.980393%,30.980393%);fill-opacity:1;" d="M 4.898438 2.667969 C 4.804688 2.667969 4.726562 2.746094 4.730469 2.839844 L 4.730469 3.886719 C 4.296875 3.957031 3.957031 4.296875 3.886719 4.730469 L 2.839844 4.730469 C 2.777344 4.730469 2.722656 4.761719 2.691406 4.816406 C 2.660156 4.867188 2.660156 4.933594 2.691406 4.988281 C 2.722656 5.042969 2.777344 5.074219 2.839844 5.074219 L 3.867188 5.074219 L 3.867188 6.796875 L 2.839844 6.796875 C 2.777344 6.792969 2.722656 6.828125 2.691406 6.878906 C 2.660156 6.933594 2.660156 7 2.691406 7.054688 C 2.722656 7.109375 2.777344 7.140625 2.839844 7.140625 L 3.867188 7.140625 L 3.867188 8.859375 L 2.839844 8.859375 C 2.777344 8.859375 2.722656 8.890625 2.691406 8.945312 C 2.660156 9 2.660156 9.066406 2.691406 9.121094 C 2.722656 9.171875 2.777344 9.207031 2.839844 9.203125 L 3.867188 9.203125 L 3.867188 10.925781 L 2.839844 10.925781 C 2.777344 10.925781 2.722656 10.957031 2.691406 11.011719 C 2.660156 11.066406 2.660156 11.132812 2.691406 11.183594 C 2.722656 11.238281 2.777344 11.273438 2.839844 11.269531 L 3.886719 11.269531 C 3.957031 11.703125 4.296875 12.042969 4.730469 12.113281 L 4.730469 13.160156 C 4.726562 13.222656 4.761719 13.277344 4.816406 13.308594 C 4.867188 13.339844 4.933594 13.339844 4.988281 13.308594 C 5.042969 13.277344 5.074219 13.222656 5.074219 13.160156 L 5.074219 12.132812 L 6.796875 12.132812 L 6.796875 13.160156 C 6.792969 13.222656 6.828125 13.277344 6.878906 13.308594 C 6.933594 13.339844 7 13.339844 7.054688 13.308594 C 7.109375 13.277344 7.140625 13.222656 7.140625 13.160156 L 7.140625 12.132812 L 8.859375 12.132812 L 8.859375 13.160156 C 8.859375 13.222656 8.890625 13.277344 8.945312 13.308594 C 9 13.339844 9.066406 13.339844 9.121094 13.308594 C 9.171875 13.277344 9.207031 13.222656 9.203125 13.160156 L 9.203125 12.132812 L 10.925781 12.132812 L 10.925781 13.160156 C 10.925781 13.222656 10.957031 13.277344 11.011719 13.308594 C 11.066406 13.339844 11.132812 13.339844 11.183594 13.308594 C 11.238281 13.277344 11.269531 13.222656 11.269531 13.160156 L 11.269531 12.113281 C 11.703125 12.042969 12.042969 11.703125 12.113281 11.269531 L 13.160156 11.269531 C 13.207031 11.269531 13.25 11.253906 13.28125 11.21875 C 13.316406 11.1875 13.335938 11.140625 13.332031 11.097656 C 13.332031 11 13.253906 10.925781 13.160156 10.925781 L 12.132812 10.925781 L 12.132812 9.203125 L 13.160156 9.203125 C 13.207031 9.207031 13.25 9.1875 13.28125 9.15625 C 13.316406 9.121094 13.335938 9.078125 13.332031 9.03125 C 13.332031 8.933594 13.253906 8.859375 13.160156 8.859375 L 12.132812 8.859375 L 12.132812 7.140625 L 13.160156 7.140625 C 13.207031 7.140625 13.25 7.121094 13.28125 7.089844 C 13.316406 7.054688 13.335938 7.011719 13.332031 6.964844 C 13.332031 6.871094 13.253906 6.792969 13.160156 6.796875 L 12.132812 6.796875 L 12.132812 5.074219 L 13.160156 5.074219 C 13.207031 5.074219 13.25 5.058594 13.285156 5.023438 C 13.316406 4.992188 13.335938 4.945312 13.335938 4.898438 C 13.332031 4.804688 13.253906 4.726562 13.160156 4.730469 L 12.113281 4.730469 C 12.042969 4.296875 11.703125 3.957031 11.273438 3.886719 L 11.273438 2.839844 C 11.273438 2.792969 11.253906 2.75 11.222656 2.714844 C 11.1875 2.683594 11.144531 2.664062 11.097656 2.667969 C 11 2.667969 10.925781 2.746094 10.925781 2.839844 L 10.925781 3.867188 L 9.207031 3.867188 L 9.207031 2.839844 C 9.207031 2.792969 9.1875 2.75 9.15625 2.71875 C 9.121094 2.683594 9.078125 2.664062 9.03125 2.667969 C 8.9375 2.667969 8.859375 2.746094 8.863281 2.839844 L 8.863281 3.867188 L 7.140625 3.867188 L 7.140625 2.839844 C 7.140625 2.792969 7.121094 2.75 7.089844 2.71875 C 7.058594 2.683594 7.011719 2.664062 6.964844 2.667969 C 6.917969 2.667969 6.875 2.6875 6.84375 2.71875 C 6.8125 2.75 6.792969 2.796875 6.796875 2.839844 L 6.796875 3.867188 L 5.074219 3.867188 L 5.074219 2.839844 C 5.074219 2.792969 5.058594 2.75 5.023438 2.71875 C 4.992188 2.683594 4.945312 2.664062 4.898438 2.667969 Z M 4.898438 2.667969 "/>
</g>
</svg>
