<svg xmlns="http://www.w3.org/2000/svg" xmlns:xlink="http://www.w3.org/1999/xlink" width="16" height="16" viewBox="0 0 16 16" version="1.1">
<g id="surface1">
<path style="fill:none;stroke-width:2;stroke-linecap:round;stroke-linejoin:bevel;stroke:rgb(67.058825%,40.000001%,100%);stroke-opacity:1;stroke-miterlimit:4;" d="M 8.023438 12.001953 L 10.021484 12.001953 M 9.025391 12.001953 L 9.025391 14 C 9.025391 15.001953 9.025391 15.001953 8.023438 15.001953 C 7.619141 15.001953 6.324219 15.001953 6.025391 15.001953 C 5.023438 15.001953 5.023438 15.001953 5.023438 14 L 5.023438 8 C 5.023438 6.998047 5.023438 6.998047 6.025391 6.998047 C 6.277344 6.998047 7.642578 6.998047 8.023438 6.998047 C 9.025391 6.998047 9.025391 6.998047 9.025391 8 " transform="matrix(0.666667,0,0,0.666667,0.666667,0.666667)"/>
<path style="fill:none;stroke-width:2;stroke-linecap:round;stroke-linejoin:bevel;stroke:rgb(67.058825%,40.000001%,100%);stroke-opacity:1;stroke-miterlimit:4;" d="M 18.001953 7.003906 L 18.001953 13.003906 C 18.001953 14.005859 18.001953 15.007812 17 15.007812 C 16.607422 15.007812 16.390625 15.013672 15.998047 15.001953 C 15.617188 15.007812 15.998047 15.007812 15.001953 15.007812 C 14 15.007812 14 14.005859 14 13.003906 L 14 7.003906 " transform="matrix(0.666667,0,0,0.666667,0.666667,0.666667)"/>
</g>
</svg>
