<svg xmlns="http://www.w3.org/2000/svg" xmlns:xlink="http://www.w3.org/1999/xlink" width="16" height="16" viewBox="0 0 16 16" version="1.1">
<g id="surface1">
<path style="fill:none;stroke-width:2;stroke-linecap:round;stroke-linejoin:bevel;stroke:rgb(100%,30.980393%,30.980393%);stroke-opacity:1;stroke-miterlimit:4;" d="M 11 7.003906 L 11 13.003906 C 11 14.005859 11 15.007812 9.998047 15.007812 C 9.605469 15.007812 9.388672 15.013672 9.001953 15.001953 C 8.615234 15.007812 9.001953 15.007812 8 15.007812 C 6.998047 15.007812 6.998047 14.005859 6.998047 13.003906 L 6.998047 7.003906 M 6.998047 7.003906 L 6.998047 13.003906 C 6.998047 14.005859 6.998047 15.007812 6.001953 15.007812 C 5.603516 15.007812 5.386719 15.013672 5 15.001953 C 4.613281 15.007812 5 15.007812 3.998047 15.007812 C 3.001953 15.007812 3.001953 14.005859 3.001953 13.003906 L 3.001953 7.003906 " transform="matrix(0.666667,0,0,0.666667,0.666667,0.666667)"/>
<path style="fill:none;stroke-width:2;stroke-linecap:round;stroke-linejoin:bevel;stroke:rgb(100%,30.980393%,30.980393%);stroke-opacity:1;stroke-miterlimit:4;" d="M 17 6.998047 C 19.402344 6.998047 19.003906 9.001953 19.003906 11 C 19.003906 12.998047 19.361328 15.060547 17 15.001953 C 14.65625 15.001953 15.001953 12.998047 15.001953 11 C 15.001953 9.001953 14.568359 6.998047 17 6.998047 " transform="matrix(0.666667,0,0,0.666667,0.666667,0.666667)"/>
</g>
</svg>
