<svg xmlns="http://www.w3.org/2000/svg" xmlns:xlink="http://www.w3.org/1999/xlink" width="16" height="16" viewBox="0 0 16 16" version="1.1">
<g id="surface1">
<path style=" stroke:none;fill-rule:nonzero;fill:rgb(100%,32.156864%,32.156864%);fill-opacity:1;" d="M 4.902344 2.664062 C 4.808594 2.664062 4.730469 2.742188 4.734375 2.835938 L 4.734375 3.882812 C 4.300781 3.957031 3.964844 4.292969 3.890625 4.726562 L 2.84375 4.726562 C 2.75 4.726562 2.671875 4.800781 2.671875 4.898438 C 2.671875 4.992188 2.75 5.070312 2.84375 5.070312 L 3.871094 5.070312 L 3.871094 6.792969 L 2.84375 6.792969 C 2.78125 6.789062 2.71875 6.820312 2.6875 6.875 C 2.65625 6.929688 2.65625 6.996094 2.6875 7.050781 C 2.71875 7.105469 2.78125 7.140625 2.84375 7.136719 L 3.871094 7.136719 L 3.871094 8.855469 L 2.84375 8.855469 C 2.78125 8.851562 2.71875 8.886719 2.6875 8.941406 C 2.65625 8.996094 2.65625 9.0625 2.6875 9.117188 C 2.71875 9.171875 2.78125 9.203125 2.84375 9.199219 L 3.871094 9.199219 L 3.871094 10.921875 L 2.84375 10.921875 C 2.75 10.921875 2.671875 11 2.671875 11.09375 C 2.671875 11.191406 2.75 11.265625 2.84375 11.265625 L 3.890625 11.265625 C 3.964844 11.699219 4.300781 12.035156 4.734375 12.109375 L 4.734375 13.15625 C 4.734375 13.25 4.808594 13.328125 4.90625 13.328125 C 5 13.328125 5.078125 13.25 5.078125 13.15625 L 5.078125 12.128906 L 6.800781 12.128906 L 6.800781 13.15625 C 6.796875 13.21875 6.828125 13.28125 6.882812 13.3125 C 6.9375 13.34375 7.003906 13.34375 7.058594 13.3125 C 7.113281 13.28125 7.148438 13.21875 7.144531 13.15625 L 7.144531 12.128906 L 8.863281 12.128906 L 8.863281 13.15625 C 8.859375 13.21875 8.894531 13.28125 8.949219 13.3125 C 9.003906 13.34375 9.070312 13.34375 9.125 13.3125 C 9.179688 13.28125 9.210938 13.21875 9.207031 13.15625 L 9.207031 12.128906 L 10.929688 12.128906 L 10.929688 13.15625 C 10.929688 13.25 11.007812 13.328125 11.101562 13.328125 C 11.195312 13.328125 11.273438 13.25 11.273438 13.15625 L 11.273438 12.109375 C 11.707031 12.035156 12.042969 11.699219 12.117188 11.265625 L 13.164062 11.265625 C 13.210938 11.269531 13.253906 11.25 13.285156 11.214844 C 13.320312 11.183594 13.335938 11.140625 13.335938 11.09375 C 13.335938 11.046875 13.316406 11.003906 13.285156 10.972656 C 13.253906 10.9375 13.207031 10.921875 13.164062 10.921875 L 12.136719 10.921875 L 12.136719 9.199219 L 13.164062 9.199219 C 13.210938 9.203125 13.253906 9.183594 13.285156 9.148438 C 13.320312 9.117188 13.335938 9.074219 13.335938 9.027344 C 13.335938 8.929688 13.257812 8.855469 13.164062 8.855469 L 12.136719 8.855469 L 12.136719 7.136719 L 13.164062 7.136719 C 13.210938 7.136719 13.253906 7.117188 13.285156 7.085938 C 13.320312 7.050781 13.335938 7.007812 13.335938 6.960938 C 13.335938 6.867188 13.257812 6.789062 13.164062 6.792969 L 12.136719 6.792969 L 12.136719 5.070312 L 13.164062 5.070312 C 13.210938 5.070312 13.253906 5.050781 13.285156 5.019531 C 13.320312 4.984375 13.335938 4.941406 13.335938 4.894531 C 13.335938 4.800781 13.257812 4.722656 13.160156 4.726562 L 12.117188 4.726562 C 12.042969 4.292969 11.707031 3.957031 11.273438 3.882812 L 11.273438 2.835938 C 11.273438 2.789062 11.253906 2.746094 11.222656 2.710938 C 11.191406 2.679688 11.144531 2.660156 11.097656 2.664062 C 11.003906 2.664062 10.925781 2.742188 10.929688 2.835938 L 10.929688 3.863281 L 9.207031 3.863281 L 9.207031 2.835938 C 9.207031 2.789062 9.1875 2.746094 9.15625 2.714844 C 9.125 2.679688 9.078125 2.664062 9.03125 2.664062 C 8.9375 2.664062 8.863281 2.742188 8.863281 2.835938 L 8.863281 3.863281 L 7.140625 3.863281 L 7.140625 2.835938 C 7.144531 2.789062 7.125 2.746094 7.089844 2.714844 C 7.058594 2.679688 7.015625 2.664062 6.96875 2.664062 C 6.871094 2.664062 6.796875 2.742188 6.796875 2.835938 L 6.796875 3.863281 L 5.078125 3.863281 L 5.078125 2.835938 C 5.078125 2.789062 5.058594 2.746094 5.027344 2.710938 C 4.992188 2.679688 4.949219 2.660156 4.902344 2.664062 Z M 5.003906 4.664062 L 11.003906 4.664062 C 11.1875 4.664062 11.335938 4.8125 11.335938 4.996094 C 11.335938 5.179688 11.1875 5.328125 11.003906 5.328125 L 5.003906 5.328125 C 4.820312 5.328125 4.671875 5.179688 4.671875 4.996094 C 4.671875 4.8125 4.820312 4.664062 5.003906 4.664062 Z M 5.003906 6.664062 L 11.003906 6.664062 C 11.1875 6.664062 11.335938 6.8125 11.335938 6.996094 C 11.335938 7.179688 11.1875 7.328125 11.003906 7.328125 L 5.003906 7.328125 C 4.820312 7.328125 4.671875 7.179688 4.671875 6.996094 C 4.671875 6.8125 4.820312 6.664062 5.003906 6.664062 Z M 5.003906 8.664062 L 11.003906 8.664062 C 11.1875 8.664062 11.335938 8.8125 11.335938 8.996094 C 11.335938 9.179688 11.1875 9.328125 11.003906 9.328125 L 5.003906 9.328125 C 4.820312 9.328125 4.671875 9.179688 4.671875 8.996094 C 4.671875 8.8125 4.820312 8.664062 5.003906 8.664062 Z M 5.003906 10.664062 L 11.003906 10.664062 C 11.1875 10.664062 11.335938 10.8125 11.335938 10.996094 C 11.335938 11.179688 11.1875 11.328125 11.003906 11.328125 L 5.003906 11.328125 C 4.820312 11.328125 4.671875 11.179688 4.671875 10.996094 C 4.671875 10.8125 4.820312 10.664062 5.003906 10.664062 Z M 5.003906 10.664062 "/>
</g>
</svg>
