<svg xmlns="http://www.w3.org/2000/svg" xmlns:xlink="http://www.w3.org/1999/xlink" width="16" height="16" viewBox="0 0 16 16" version="1.1">
<g id="surface1">
<path style="fill:none;stroke-width:2;stroke-linecap:round;stroke-linejoin:bevel;stroke:rgb(0%,100%,66.666669%);stroke-opacity:1;stroke-miterlimit:4;" d="M 4.970703 10.988281 C 4.970703 10.988281 6.96875 11.011719 7.970703 11.011719 C 8.375 11.011719 8.708984 11.011719 8.966797 11.011719 C 9.96875 11.011719 9.96875 11.011719 9.96875 12.013672 C 9.96875 12.265625 9.96875 12.587891 9.96875 12.986328 C 9.96875 13.390625 9.96875 13.748047 9.96875 14.011719 C 9.96875 15.013672 9.96875 15.013672 8.966797 15.013672 C 8.714844 15.013672 8.363281 15.013672 7.970703 15.013672 C 6.96875 15.013672 4.970703 14.990234 4.970703 14.990234 M 4.970703 6.986328 L 4.970703 14.990234 M 4.970703 11.011719 L 6.96875 11.011719 C 8.966797 11.011719 8.966797 11.011719 8.966797 9.013672 L 8.966797 8.011719 C 8.966797 7.009766 8.966797 7.009766 7.970703 7.009766 C 7.712891 7.009766 7.373047 7.009766 6.96875 7.009766 L 4.970703 7.009766 M 4.970703 15.013672 L 4.970703 7.009766 " transform="matrix(0.666667,0,0,0.666667,0.666667,0.666667)"/>
<path style="fill:none;stroke-width:2;stroke-linecap:round;stroke-linejoin:round;stroke:rgb(0%,100%,66.666669%);stroke-opacity:1;stroke-miterlimit:4;" d="M 14 14 C 14 15.001953 14 15.001953 15.001953 15.001953 C 15.359375 15.001953 15.423828 15.001953 15.998047 15.001953 C 16.455078 15.001953 15.998047 15.001953 17 15.001953 C 17 15.001953 18.001953 15.001953 18.001953 14 L 18.001953 12.998047 C 18.001953 8.785156 14 13.208984 14.011719 9.007812 C 14.011719 8.585938 14 8.263672 14 8 C 14 6.998047 15.001953 6.998047 15.001953 6.998047 C 15.253906 6.998047 15.628906 6.998047 15.998047 6.998047 C 16.349609 6.998047 16.742188 6.998047 17 6.998047 C 18.001953 6.998047 18.001953 6.998047 18.001953 8 " transform="matrix(0.666667,0,0,0.666667,0.666667,0.666667)"/>
</g>
</svg>
