<svg xmlns="http://www.w3.org/2000/svg" xmlns:xlink="http://www.w3.org/1999/xlink" width="16" height="16" viewBox="0 0 16 16" version="1.1">
<g id="surface1">
<path style="fill:none;stroke-width:2;stroke-linecap:round;stroke-linejoin:round;stroke:rgb(100%,74.901962%,0%);stroke-opacity:1;stroke-miterlimit:4;" d="M 5 14 C 5 15.001953 5 15.001953 6.001953 15.001953 C 6.359375 15.001953 6.423828 15.001953 6.998047 15.001953 C 7.455078 15.001953 6.998047 15.001953 8 15.001953 C 8 15.001953 9.001953 15.001953 9.001953 14 L 9.001953 12.998047 C 9.001953 8.785156 5 13.208984 5.011719 9.007812 C 5.011719 8.585938 5 8.263672 5 8 C 5 6.998047 6.001953 6.998047 6.001953 6.998047 C 6.253906 6.998047 6.628906 6.998047 6.998047 6.998047 C 7.349609 6.998047 7.742188 6.998047 8 6.998047 C 9.001953 6.998047 9.001953 6.998047 9.001953 8 " transform="matrix(0.666667,0,0,0.666667,0.666667,0.666667)"/>
<path style="fill:none;stroke-width:2;stroke-linecap:round;stroke-linejoin:bevel;stroke:rgb(100%,74.901962%,0%);stroke-opacity:1;stroke-miterlimit:4;" d="M 13.009766 15.007812 C 13.009766 15.007812 17.023438 15.359375 17.005859 11.005859 C 16.994141 6.482422 13.009766 7.003906 13.009766 7.003906 M 12.992188 15.001953 L 12.992188 6.998047 " transform="matrix(0.666667,0,0,0.666667,0.666667,0.666667)"/>
</g>
</svg>
