<svg xmlns="http://www.w3.org/2000/svg" xmlns:xlink="http://www.w3.org/1999/xlink" width="16" height="16" viewBox="0 0 16 16" version="1.1">
<g id="surface1">
<path style=" stroke:none;fill-rule:nonzero;fill:rgb(0%,80.000001%,100%);fill-opacity:1;" d="M 4 6 L 4 12 C 4 12.347656 4.316406 12.667969 4.667969 12.667969 L 10.667969 12.667969 C 11.015625 12.667969 11.332031 12.347656 11.332031 12 L 11.332031 6 Z M 4 6 "/>
<path style=" stroke:none;fill-rule:nonzero;fill:rgb(0%,80.000001%,100%);fill-opacity:1;" d="M 3.332031 4.667969 L 3.332031 5.332031 L 12 5.332031 L 12 4.664062 C 12 3.996094 11.332031 3.996094 11.332031 3.996094 L 9.332031 3.996094 C 9.332031 3.996094 9.332031 3.328125 8.667969 3.328125 L 6.667969 3.328125 C 6 3.328125 6 3.996094 6 3.996094 L 4 3.996094 C 4 3.996094 3.332031 3.996094 3.332031 4.664062 Z M 3.332031 4.667969 "/>
</g>
</svg>
