<svg xmlns="http://www.w3.org/2000/svg" xmlns:xlink="http://www.w3.org/1999/xlink" width="16" height="16" viewBox="0 0 16 16" version="1.1">
<g id="surface1">
<path style="fill:none;stroke-width:2;stroke-linecap:round;stroke-linejoin:round;stroke:rgb(67.058825%,40.000001%,100%);stroke-opacity:1;stroke-miterlimit:4;" d="M 3.998047 14 C 3.998047 15.001953 3.998047 15.001953 5 15.001953 C 5.357422 15.001953 5.427734 15.001953 6.001953 15.001953 C 6.453125 15.001953 6.001953 15.001953 6.998047 15.001953 C 6.998047 15.001953 8 15.001953 8 14 L 8 12.998047 C 8 8.785156 3.998047 13.208984 4.009766 9.007812 C 4.009766 8.585938 3.998047 8.263672 3.998047 8 C 3.998047 6.998047 5 6.998047 5 6.998047 C 5.251953 6.998047 5.632812 6.998047 6.001953 6.998047 C 6.347656 6.998047 6.740234 6.998047 6.998047 6.998047 C 8 6.998047 8 6.998047 8 8 " transform="matrix(0.666667,0,0,0.666667,0.666667,0.666667)"/>
<path style="fill:none;stroke-width:2;stroke-linecap:round;stroke-linejoin:miter;stroke:rgb(67.058825%,40.000001%,100%);stroke-opacity:1;stroke-miterlimit:4;" d="M 15.001953 14.996094 L 15.001953 11 M 18.001953 6.998047 L 15.001953 11 M 12.001953 6.998047 L 15.001953 11 " transform="matrix(0.666667,0,0,0.666667,0.666667,0.666667)"/>
</g>
</svg>
