<svg xmlns="http://www.w3.org/2000/svg" xmlns:xlink="http://www.w3.org/1999/xlink" width="16" height="16" viewBox="0 0 16 16" version="1.1">
<g id="surface1">
<path style="fill:none;stroke-width:2;stroke-linecap:round;stroke-linejoin:bevel;stroke:rgb(0%,100%,66.666669%);stroke-opacity:1;stroke-miterlimit:4;" d="M 9.001953 14 C 9.001953 14.996094 9.001953 14.996094 8 14.996094 C 7.601562 14.996094 6.259766 14.996094 6.001953 14.996094 C 5.539062 14.996094 5 14.996094 5 14 L 5 8 C 5 6.998047 5 6.998047 6.001953 6.998047 C 6.429688 6.998047 6.810547 6.998047 6.998047 6.998047 C 7.425781 6.998047 7.455078 6.998047 8 6.998047 C 9.001953 6.998047 9.001953 6.998047 9.001953 8 " transform="matrix(0.666667,0,0,0.666667,0.666667,0.666667)"/>
<path style="fill:none;stroke-width:2;stroke-linecap:round;stroke-linejoin:round;stroke:rgb(0%,100%,66.666669%);stroke-opacity:1;stroke-miterlimit:4;" d="M 12.998047 14 C 12.998047 15.001953 12.998047 15.001953 14 15.001953 C 14.357422 15.001953 14.427734 15.001953 15.001953 15.001953 C 15.453125 15.001953 15.001953 15.001953 15.998047 15.001953 C 15.998047 15.001953 17 15.001953 17 14 L 17 12.998047 C 17 8.785156 12.998047 13.208984 13.009766 9.007812 C 13.009766 8.585938 12.998047 8.263672 12.998047 8 C 12.998047 6.998047 14 6.998047 14 6.998047 C 14.251953 6.998047 14.632812 6.998047 15.001953 6.998047 C 15.347656 6.998047 15.740234 6.998047 15.998047 6.998047 C 17 6.998047 17 6.998047 17 8 " transform="matrix(0.666667,0,0,0.666667,0.666667,0.666667)"/>
</g>
</svg>
