<svg xmlns="http://www.w3.org/2000/svg" xmlns:xlink="http://www.w3.org/1999/xlink" width="16" height="16" viewBox="0 0 16 16" version="1.1">
<g id="surface1">
<path style=" stroke:none;fill-rule:nonzero;fill:rgb(96.862745%,0%,100%);fill-opacity:1;" d="M 7.09375 2.820312 C 4.851562 3.46875 3.265625 5.214844 3.460938 7.644531 C 3.6875 10.441406 7.746094 13.273438 9.335938 13.332031 C 10.03125 13.167969 9.628906 10.953125 9.21875 9.277344 C 9.105469 8.828125 8.992188 8.375 8.859375 7.921875 C 8.816406 7.777344 8.765625 7.59375 8.753906 7.550781 C 8.535156 6.824219 8.273438 5.992188 7.84375 4.667969 C 7.761719 4.429688 7.933594 4.179688 8.183594 4.171875 C 8.351562 4.164062 8.5 4.273438 8.550781 4.433594 C 9.296875 6.726562 9.589844 7.734375 9.894531 8.917969 C 11.089844 10.417969 12.832031 12.46875 13.394531 12.339844 C 14.261719 12.144531 14.574219 6.371094 12.992188 4.589844 C 11.414062 2.8125 9.316406 2.394531 7.09375 2.820312 Z M 7.09375 2.820312 "/>
</g>
</svg>
