<svg xmlns="http://www.w3.org/2000/svg" xmlns:xlink="http://www.w3.org/1999/xlink" width="16" height="16" viewBox="0 0 16 16" version="1.1">
<defs>
<filter id="alpha" filterUnits="objectBoundingBox" x="0%" y="0%" width="100%" height="100%">
  <feColorMatrix type="matrix" in="SourceGraphic" values="0 0 0 0 1 0 0 0 0 1 0 0 0 0 1 0 0 0 1 0"/>
</filter>
<mask id="mask0">
  <g filter="url(#alpha)">
<rect x="0" y="0" width="16" height="16" style="fill:rgb(0%,0%,0%);fill-opacity:0.3;stroke:none;"/>
  </g>
</mask>
<clipPath id="clip1">
  <rect x="0" y="0" width="16" height="16"/>
</clipPath>
<g id="surface5" clip-path="url(#clip1)">
<path style=" stroke:none;fill-rule:nonzero;fill:rgb(0%,80.000001%,100%);fill-opacity:1;" d="M 4.648438 5.996094 C 3.441406 5.996094 2.972656 8.261719 2.789062 10.007812 C 3.839844 10.070312 4.664062 10.941406 4.667969 11.996094 L 6.667969 11.996094 C 6.667969 11.996094 6.613281 5.996094 4.648438 5.996094 Z M 4.648438 5.996094 "/>
</g>
</defs>
<g id="surface1">
<path style=" stroke:none;fill-rule:nonzero;fill:rgb(0%,80.000001%,100%);fill-opacity:1;" d="M 11.625 2.667969 C 11.585938 2.667969 11.550781 2.671875 11.515625 2.679688 L 4.652344 4.125 C 4.644531 4.128906 4.636719 4.128906 4.632812 4.132812 C 3.671875 4.363281 3 5.085938 2.542969 5.917969 C 2.089844 6.75 1.816406 7.722656 1.636719 8.675781 C 1.519531 9.300781 1.453125 9.890625 1.410156 10.445312 C 1.765625 10.15625 2.207031 10 2.667969 10 C 2.707031 10 2.746094 10.003906 2.789062 10.007812 C 2.972656 8.261719 3.441406 5.996094 4.648438 5.996094 C 6.613281 5.996094 6.667969 11.996094 6.667969 11.996094 L 4.667969 11.996094 C 4.667969 11.996094 4.667969 12 4.667969 12 C 4.667969 12.472656 4.5 12.933594 4.191406 13.296875 L 8.050781 13.332031 C 8.101562 13.332031 8.152344 13.328125 8.199219 13.320312 L 14.792969 11.898438 C 15.089844 11.835938 15.304688 11.582031 15.320312 11.28125 C 15.320312 11.28125 15.417969 9.296875 15.074219 7.253906 C 14.902344 6.230469 14.625 5.183594 14.117188 4.316406 C 13.609375 3.449219 12.789062 2.730469 11.691406 2.671875 C 11.667969 2.671875 11.644531 2.671875 11.625 2.671875 Z M 11.65625 4.011719 C 12.21875 4.058594 12.605469 4.367188 12.96875 4.984375 C 13.339844 5.617188 13.601562 6.535156 13.757812 7.46875 C 14.03125 9.082031 13.96875 10.304688 13.957031 10.710938 L 8.183594 11.953125 C 8.179688 10.285156 7.976562 6.273438 6.042969 5.195312 Z M 9.691406 5.332031 L 8.054688 5.472656 L 8 5.535156 L 8.789062 8.613281 L 8.863281 8.667969 L 9.789062 8.621094 L 9.816406 8.527344 L 9.214844 6.265625 L 9.988281 6.214844 L 10 6.148438 L 9.734375 5.382812 Z M 9.691406 5.332031 "/>
<use xlink:href="#surface5" mask="url(#mask0)"/>
<path style=" stroke:none;fill-rule:nonzero;fill:rgb(25.882354%,52.156866%,95.686275%);fill-opacity:1;" d="M 4 12 C 4 12.738281 3.402344 13.332031 2.667969 13.332031 C 1.929688 13.332031 1.332031 12.738281 1.332031 12 C 1.332031 11.261719 1.929688 10.667969 2.667969 10.667969 C 3.402344 10.667969 4 11.261719 4 12 Z M 4 12 "/>
</g>
</svg>
