<svg xmlns="http://www.w3.org/2000/svg" xmlns:xlink="http://www.w3.org/1999/xlink" width="16" height="16" viewBox="0 0 16 16" version="1.1">
<g id="surface1">
<path style="fill:none;stroke-width:2;stroke-linecap:round;stroke-linejoin:miter;stroke:rgb(67.058825%,40.000001%,100%);stroke-opacity:1;stroke-miterlimit:4;" d="M 10.009766 6.998047 L 5.005859 15.001953 M 5.005859 6.998047 L 10.009766 15.001953 " transform="matrix(0.666667,0,0,0.666667,0.666667,0.666667)"/>
<path style="fill:none;stroke-width:2;stroke-linecap:round;stroke-linejoin:round;stroke:rgb(67.058825%,40.000001%,100%);stroke-opacity:1;stroke-miterlimit:4;" d="M 14 14 C 14 15.001953 14 15.001953 15.001953 15.001953 C 15.359375 15.001953 15.423828 15.001953 15.998047 15.001953 C 16.455078 15.001953 15.998047 15.001953 17 15.001953 C 17 15.001953 18.001953 15.001953 18.001953 14 L 18.001953 12.998047 C 18.001953 8.785156 14 13.208984 14.011719 9.007812 C 14.011719 8.585938 14 8.263672 14 8 C 14 6.998047 15.001953 6.998047 15.001953 6.998047 C 15.253906 6.998047 15.628906 6.998047 15.998047 6.998047 C 16.349609 6.998047 16.742188 6.998047 17 6.998047 C 18.001953 6.998047 18.001953 6.998047 18.001953 8 " transform="matrix(0.666667,0,0,0.666667,0.666667,0.666667)"/>
</g>
</svg>
