<svg xmlns="http://www.w3.org/2000/svg" xmlns:xlink="http://www.w3.org/1999/xlink" width="16" height="16" viewBox="0 0 16 16" version="1.1">
<g id="surface1">
<path style=" stroke:none;fill-rule:nonzero;fill:rgb(100%,30.980393%,30.980393%);fill-opacity:1;" d="M 11.625 2.667969 C 11.585938 2.667969 11.550781 2.671875 11.515625 2.679688 L 4.652344 4.125 C 4.644531 4.128906 4.636719 4.128906 4.632812 4.132812 C 3.675781 4.363281 3 5.085938 2.542969 5.917969 C 2.089844 6.75 1.816406 7.722656 1.636719 8.675781 C 1.457031 9.628906 1.378906 10.554688 1.347656 11.28125 C 1.332031 11.640625 1.332031 11.953125 1.335938 12.195312 C 1.339844 12.34375 1.359375 12.445312 1.367188 12.550781 C 1.367188 12.550781 1.367188 12.550781 1.367188 12.558594 C 1.367188 12.574219 1.367188 12.589844 1.367188 12.605469 L 1.371094 12.605469 C 1.378906 12.660156 1.367188 12.699219 1.386719 12.777344 C 1.464844 13.066406 1.726562 13.269531 2.027344 13.273438 L 8.050781 13.332031 C 8.101562 13.332031 8.152344 13.328125 8.199219 13.320312 L 14.792969 11.898438 C 15.089844 11.835938 15.304688 11.582031 15.320312 11.28125 C 15.320312 11.28125 15.417969 9.296875 15.074219 7.253906 C 14.902344 6.230469 14.625 5.183594 14.117188 4.316406 C 13.613281 3.449219 12.789062 2.734375 11.691406 2.671875 C 11.667969 2.671875 11.644531 2.671875 11.625 2.671875 Z M 11.65625 4.011719 C 12.21875 4.058594 12.605469 4.367188 12.96875 4.984375 C 13.339844 5.617188 13.601562 6.535156 13.757812 7.46875 C 14.03125 9.082031 13.96875 10.304688 13.957031 10.710938 L 8.183594 11.953125 C 8.179688 10.285156 7.980469 6.273438 6.042969 5.195312 Z M 4.648438 5.996094 C 6.613281 5.996094 6.667969 11.996094 6.667969 11.996094 L 2.667969 11.996094 C 2.667969 11.996094 2.683594 5.996094 4.648438 5.996094 Z M 12.464844 7.332031 L 9.386719 8.117188 L 9.332031 8.191406 L 9.378906 9.117188 L 9.472656 9.144531 L 11.734375 8.542969 L 11.785156 9.320312 L 11.851562 9.328125 L 12.617188 9.066406 L 12.667969 9.023438 L 12.527344 7.382812 Z M 4.667969 7.996094 C 4.296875 7.996094 4 8.296875 4 8.664062 C 4 8.847656 4.078125 9.023438 4.210938 9.148438 L 3.667969 10.664062 L 5.667969 10.652344 L 5.132812 9.136719 C 5.261719 9.011719 5.332031 8.839844 5.332031 8.664062 C 5.332031 8.296875 5.035156 7.996094 4.667969 7.996094 Z M 4.667969 7.996094 "/>
</g>
</svg>
