<svg xmlns="http://www.w3.org/2000/svg" xmlns:xlink="http://www.w3.org/1999/xlink" width="16" height="16" viewBox="0 0 16 16" version="1.1">
<g id="surface1">
<path style=" stroke:none;fill-rule:nonzero;fill:rgb(100%,74.901962%,0%);fill-opacity:1;" d="M 4.667969 2.667969 C 4.296875 2.667969 4 2.964844 4 3.332031 L 4 6.667969 L 5.332031 6.667969 L 5.332031 2.667969 Z M 6 2.667969 L 6 13.332031 L 8 13.332031 C 8 12.964844 8.296875 12.667969 8.667969 12.667969 C 9.015625 12.667969 9.308594 12.9375 9.332031 13.285156 C 9.332031 13.300781 9.332031 13.316406 9.332031 13.332031 L 10.667969 13.332031 C 11.035156 13.332031 11.332031 13.035156 11.332031 12.667969 L 11.332031 3.332031 C 11.332031 2.964844 11.035156 2.667969 10.667969 2.667969 L 9.332031 2.667969 C 9.332031 2.6875 9.332031 2.710938 9.328125 2.734375 C 9.296875 3.074219 9.007812 3.332031 8.667969 3.332031 C 8.296875 3.332031 8 3.035156 8 2.667969 Z M 7.332031 4.667969 L 10 4.667969 L 10 6 L 7.332031 6 Z M 7.332031 7.332031 L 10 7.332031 L 10 8.667969 L 7.332031 8.667969 Z M 4 8 L 4 12.667969 C 4 13.035156 4.296875 13.332031 4.667969 13.332031 L 5.332031 13.332031 L 5.332031 8 Z M 7.332031 10 L 10 10 L 10 11.332031 L 7.332031 11.332031 Z M 7.332031 10 "/>
</g>
</svg>
