<svg xmlns="http://www.w3.org/2000/svg" xmlns:xlink="http://www.w3.org/1999/xlink" width="16" height="16" viewBox="0 0 16 16" version="1.1">
<g id="surface1">
<path style=" stroke:none;fill-rule:nonzero;fill:rgb(0%,100%,66.666669%);fill-opacity:1;" d="M 6.667969 3.328125 C 6 3.328125 6 3.992188 6 3.992188 L 4 3.992188 C 4 3.992188 3.332031 3.996094 3.332031 4.664062 L 3.332031 5.332031 L 12 5.328125 L 12 4.664062 C 12 3.996094 11.335938 3.992188 11.335938 3.992188 L 9.335938 3.992188 C 9.335938 3.992188 9.335938 3.328125 8.667969 3.328125 Z M 4 5.996094 C 4 5.996094 3.308594 8.199219 3.335938 9.332031 C 3.355469 10.253906 4 12 4 12 C 4 12.347656 4.320312 12.667969 4.667969 12.667969 L 10.667969 12.667969 C 11.015625 12.667969 11.335938 12.347656 11.335938 12 C 11.335938 12 11.980469 10.25 12 9.335938 C 12.027344 8.203125 11.335938 6.003906 11.335938 6.003906 Z M 4 5.996094 "/>
</g>
</svg>
