<svg xmlns="http://www.w3.org/2000/svg" xmlns:xlink="http://www.w3.org/1999/xlink" width="16" height="16" viewBox="0 0 16 16" version="1.1">
<g id="surface1">
<path style="fill:none;stroke-width:2;stroke-linecap:round;stroke-linejoin:miter;stroke:rgb(0%,80.000001%,100%);stroke-opacity:1;stroke-miterlimit:4;" d="M 5 15.001953 L 9.001953 15.001953 M 5 6.998047 L 9.001953 6.998047 M 6.998047 15.001953 L 6.998047 6.998047 " transform="matrix(0.666667,0,0,0.666667,0.666667,0.666667)"/>
<path style="fill:none;stroke-width:2;stroke-linecap:round;stroke-linejoin:bevel;stroke:rgb(0%,80.000001%,100%);stroke-opacity:1;stroke-miterlimit:4;" d="M 15.974609 12.001953 L 17.978516 12.001953 M 16.976562 12.001953 L 16.976562 14 C 16.976562 15.001953 16.976562 15.001953 15.974609 15.001953 C 15.570312 15.001953 14.275391 15.001953 13.976562 15.001953 C 12.974609 15.001953 12.974609 15.001953 12.974609 14 L 12.974609 8 C 12.974609 6.998047 12.974609 6.998047 13.976562 6.998047 C 14.228516 6.998047 15.59375 6.998047 15.974609 6.998047 C 16.976562 6.998047 16.976562 6.998047 16.976562 8 " transform="matrix(0.666667,0,0,0.666667,0.666667,0.666667)"/>
</g>
</svg>
