<svg xmlns="http://www.w3.org/2000/svg" xmlns:xlink="http://www.w3.org/1999/xlink" width="16" height="16" viewBox="0 0 16 16" version="1.1">
<g id="surface1">
<path style="fill:none;stroke-width:2;stroke-linecap:round;stroke-linejoin:bevel;stroke:rgb(67.058825%,40.000001%,100%);stroke-opacity:1;stroke-miterlimit:4;" d="M 5.005859 11 L 7.009766 11 C 7.431641 11 7.742188 11 8.005859 11 C 9.007812 11 9.007812 11 9.007812 9.998047 C 9.007812 9.6875 9.007812 9.617188 9.007812 9.001953 C 9.007812 8.585938 9.007812 8.269531 9.007812 8 C 9.007812 6.998047 9.007812 6.998047 8.005859 6.998047 C 7.771484 6.998047 7.431641 7.021484 7.085938 7.027344 C 6.007812 7.039062 5.005859 6.998047 5.005859 6.998047 M 5.005859 15.001953 L 5.005859 6.998047 " transform="matrix(0.666667,0,0,0.666667,0.666667,0.666667)"/>
<path style="fill:none;stroke-width:2;stroke-linecap:round;stroke-linejoin:round;stroke:rgb(67.058825%,40.000001%,100%);stroke-opacity:1;stroke-miterlimit:4;" d="M 12.998047 14 C 12.998047 15.001953 12.998047 15.001953 14 15.001953 C 14.357422 15.001953 14.427734 15.001953 15.001953 15.001953 C 15.453125 15.001953 15.001953 15.001953 15.998047 15.001953 C 15.998047 15.001953 17 15.001953 17 14 L 17 12.998047 C 17 8.785156 12.998047 13.208984 13.009766 9.007812 C 13.009766 8.585938 12.998047 8.263672 12.998047 8 C 12.998047 6.998047 14 6.998047 14 6.998047 C 14.251953 6.998047 14.632812 6.998047 15.001953 6.998047 C 15.347656 6.998047 15.740234 6.998047 15.998047 6.998047 C 17 6.998047 17 6.998047 17 8 " transform="matrix(0.666667,0,0,0.666667,0.666667,0.666667)"/>
</g>
</svg>
