<svg xmlns="http://www.w3.org/2000/svg" xmlns:xlink="http://www.w3.org/1999/xlink" width="16" height="16" viewBox="0 0 16 16" version="1.1">
<g id="surface1">
<path style="fill:none;stroke-width:2;stroke-linecap:round;stroke-linejoin:round;stroke:rgb(67.058825%,40.000001%,100%);stroke-opacity:1;stroke-miterlimit:4;" d="M 4.953125 14.005859 L 4.953125 15.007812 L 5.955078 15.007812 C 9.869141 14.890625 8.955078 8.117188 8.955078 7.009766 " transform="matrix(0.666667,0,0,0.666667,0.666667,0.666667)"/>
<path style="fill:none;stroke-width:2;stroke-linecap:round;stroke-linejoin:bevel;stroke:rgb(67.058825%,40.000001%,100%);stroke-opacity:1;stroke-miterlimit:4;" d="M 12.998047 12.001953 L 17 12.001953 M 12.998047 15.001953 L 12.998047 9.001953 M 17 15.001953 L 17 9.001953 M 12.998047 9.001953 L 12.998047 8.005859 C 12.998047 7.003906 12.998047 7.003906 15.001953 7.003906 C 17 7.003906 17 7.003906 17 8.005859 C 17 9.998047 17 9.001953 17 9.001953 " transform="matrix(0.666667,0,0,0.666667,0.666667,0.666667)"/>
</g>
</svg>
