<svg xmlns="http://www.w3.org/2000/svg" xmlns:xlink="http://www.w3.org/1999/xlink" width="16" height="16" viewBox="0 0 16 16" version="1.1">
<g id="surface1">
<path style=" stroke:none;fill-rule:nonzero;fill:rgb(100%,74.901962%,0%);fill-opacity:1;" d="M 4 2.667969 C 3.261719 2.667969 2.667969 3.261719 2.667969 4 L 2.667969 12 C 2.667969 12.738281 3.261719 13.332031 4 13.332031 L 12 13.332031 C 12.738281 13.332031 13.332031 12.738281 13.332031 12 L 13.332031 4 C 13.332031 3.261719 12.738281 2.667969 12 2.667969 Z M 7.328125 4 C 7.628906 3.996094 7.890625 4.195312 7.972656 4.484375 L 8.714844 7.078125 L 9.367188 5.121094 C 9.457031 4.851562 9.710938 4.664062 10 4.664062 C 10.289062 4.664062 10.542969 4.851562 10.632812 5.121094 L 11.8125 8.667969 L 12.667969 8.667969 L 12.667969 10 L 11.332031 10 C 11.046875 10 10.792969 9.816406 10.699219 9.542969 L 10 7.441406 L 9.300781 9.542969 C 9.207031 9.820312 8.945312 10.007812 8.652344 10 C 8.359375 9.992188 8.105469 9.796875 8.027344 9.515625 L 7.449219 7.492188 L 6.652344 11.464844 C 6.59375 11.765625 6.335938 11.984375 6.027344 12 C 5.71875 12.011719 5.445312 11.8125 5.359375 11.515625 L 4.164062 7.332031 L 3.332031 7.332031 L 3.332031 6 L 4.667969 6 C 4.964844 6 5.226562 6.195312 5.308594 6.484375 L 5.886719 8.507812 L 6.679688 4.535156 C 6.742188 4.226562 7.011719 4.003906 7.328125 4 Z M 7.328125 4 "/>
</g>
</svg>
