<svg xmlns="http://www.w3.org/2000/svg" xmlns:xlink="http://www.w3.org/1999/xlink" width="16" height="16" viewBox="0 0 16 16" version="1.1">
<g id="surface1">
<path style="fill:none;stroke-width:2;stroke-linecap:round;stroke-linejoin:round;stroke:rgb(100%,30.980393%,30.980393%);stroke-opacity:1;stroke-miterlimit:4;" d="M 3.001953 14 C 3.001953 15.001953 3.001953 15.001953 3.998047 15.001953 C 4.361328 15.001953 4.425781 15.001953 5 15.001953 C 5.457031 15.001953 5 15.001953 6.001953 15.001953 C 6.001953 15.001953 6.998047 15.001953 6.998047 14 L 6.998047 12.998047 C 6.998047 8.785156 3.001953 13.208984 3.013672 9.007812 C 3.007812 8.585938 3.001953 8.263672 3.001953 8 C 3.001953 6.998047 3.998047 6.998047 3.998047 6.998047 C 4.25 6.998047 4.630859 6.998047 5 6.998047 C 5.345703 6.998047 5.744141 6.998047 6.001953 6.998047 C 6.998047 6.998047 6.998047 6.998047 6.998047 8 " transform="matrix(0.666667,0,0,0.666667,0.666667,0.666667)"/>
<path style="fill:none;stroke-width:2;stroke-linecap:round;stroke-linejoin:bevel;stroke:rgb(100%,30.980393%,30.980393%);stroke-opacity:1;stroke-miterlimit:4;" d="M 18.998047 7.003906 L 18.998047 13.003906 C 18.998047 14.005859 18.998047 15.007812 18.001953 15.007812 C 17.603516 15.007812 17.386719 15.013672 17 15.001953 C 16.613281 15.007812 17 15.007812 15.998047 15.007812 C 15.001953 15.007812 15.001953 14.005859 15.001953 13.003906 L 15.001953 7.003906 M 15.001953 7.003906 L 15.001953 13.003906 C 15.001953 14.005859 15.001953 15.007812 14 15.007812 C 13.601562 15.007812 13.390625 15.013672 12.998047 15.001953 C 12.617188 15.007812 12.998047 15.007812 12.001953 15.007812 C 11 15.007812 11 14.005859 11 13.003906 L 11 7.003906 " transform="matrix(0.666667,0,0,0.666667,0.666667,0.666667)"/>
</g>
</svg>
