<svg xmlns="http://www.w3.org/2000/svg" xmlns:xlink="http://www.w3.org/1999/xlink" width="16" height="16" viewBox="0 0 16 16" version="1.1">
<g id="surface1">
<path style=" stroke:none;fill-rule:nonzero;fill:rgb(0%,100%,66.666669%);fill-opacity:1;" d="M 4.070312 3.265625 C 4.414062 3.300781 4.675781 3.589844 4.675781 3.933594 L 4.675781 12.601562 C 4.679688 12.839844 4.554688 13.0625 4.34375 13.183594 C 4.136719 13.304688 3.882812 13.304688 3.671875 13.183594 C 3.464844 13.0625 3.339844 12.839844 3.34375 12.601562 L 3.34375 4.601562 L 2.675781 4.601562 C 2.4375 4.601562 2.210938 4.476562 2.089844 4.269531 C 1.96875 4.0625 1.96875 3.804688 2.089844 3.597656 C 2.210938 3.390625 2.4375 3.261719 2.675781 3.265625 L 4.007812 3.265625 C 4.03125 3.265625 4.050781 3.265625 4.070312 3.265625 Z M 4.070312 3.265625 "/>
<path style=" stroke:none;fill-rule:nonzero;fill:rgb(0%,100%,66.666669%);fill-opacity:1;" d="M 4.007812 6.601562 L 4.007812 8.601562 L 2.007812 8.601562 L 2.007812 6.601562 Z M 3.34375 7.265625 L 2.675781 7.265625 L 2.675781 7.933594 L 3.34375 7.933594 Z M 3.34375 7.265625 "/>
<path style=" stroke:none;fill-rule:nonzero;fill:rgb(0%,100%,66.666669%);fill-opacity:1;" d="M 4.007812 9.265625 L 4.007812 11.265625 L 2.007812 11.265625 L 2.007812 9.265625 Z M 3.34375 9.933594 L 2.675781 9.933594 L 2.675781 10.601562 L 3.34375 10.601562 Z M 3.34375 9.933594 "/>
<path style=" stroke:none;fill-rule:nonzero;fill:rgb(0%,100%,66.666669%);fill-opacity:1;" d="M 12.675781 5.265625 L 12.675781 13.265625 L 6.007812 13.265625 L 6.007812 11.933594 L 5.34375 11.933594 L 5.34375 10.601562 L 7.34375 10.601562 L 7.34375 11.933594 L 11.34375 11.933594 L 11.34375 6.601562 L 5.34375 6.601562 L 5.34375 5.265625 Z M 12.675781 5.265625 "/>
<path style=" stroke:none;fill-rule:nonzero;fill:rgb(0%,100%,66.666669%);fill-opacity:1;" d="M 10.675781 7.332031 L 10.675781 10 L 10.007812 10 L 10.007812 7.332031 Z M 9.34375 7.332031 L 9.34375 10 L 8.675781 10 L 8.675781 7.332031 Z M 8.007812 7.332031 L 8.007812 10 L 7.34375 10 L 7.34375 7.332031 Z M 6.675781 7.332031 L 6.675781 10 L 6.007812 10 L 6.007812 7.332031 Z M 6.675781 7.332031 "/>
</g>
</svg>
