<svg xmlns="http://www.w3.org/2000/svg" xmlns:xlink="http://www.w3.org/1999/xlink" width="16" height="16" viewBox="0 0 16 16" version="1.1">
<g id="surface1">
<path style=" stroke:none;fill-rule:nonzero;fill:rgb(0%,100%,66.666669%);fill-opacity:1;" d="M 2.667969 2.667969 C 2.296875 2.667969 2 2.964844 2 3.332031 L 2 12.667969 C 2 13.035156 2.296875 13.332031 2.667969 13.332031 L 13.332031 13.332031 C 13.703125 13.332031 14 13.035156 14 12.667969 L 14 3.332031 C 14 2.964844 13.703125 2.667969 13.332031 2.667969 Z M 11.332031 4 L 12.667969 4 L 12.667969 4.667969 L 11.332031 4.667969 Z M 11.332031 5.332031 L 12.667969 5.332031 L 12.667969 6 L 11.332031 6 Z M 11.332031 6.667969 L 12.667969 6.667969 L 12.667969 7.332031 L 11.332031 7.332031 Z M 11.332031 8 L 12.667969 8 L 12.667969 8.667969 L 11.332031 8.667969 Z M 3.332031 10 L 7.332031 10 L 7.332031 12 L 3.332031 12 Z M 8.667969 10 L 12.667969 10 L 12.667969 12 L 8.667969 12 Z M 8.667969 10 "/>
</g>
</svg>
