<svg xmlns="http://www.w3.org/2000/svg" xmlns:xlink="http://www.w3.org/1999/xlink" width="16" height="16" viewBox="0 0 16 16" version="1.1">
<g id="surface1">
<path style=" stroke:none;fill-rule:nonzero;fill:rgb(0%,100%,66.666669%);fill-opacity:1;" d="M 5.332031 2.667969 L 5.332031 5.332031 L 2.667969 5.332031 L 2.667969 6.667969 L 5.332031 6.667969 L 5.332031 9.332031 L 2.667969 9.332031 L 2.667969 10.667969 L 5.332031 10.667969 L 5.332031 13.332031 L 6.667969 13.332031 L 6.667969 10.667969 L 9.332031 10.667969 L 9.332031 13.332031 L 10.667969 13.332031 L 10.667969 10.667969 L 13.332031 10.667969 L 13.332031 9.332031 L 10.667969 9.332031 L 10.667969 6.667969 L 13.332031 6.667969 L 13.332031 5.332031 L 10.667969 5.332031 L 10.667969 2.667969 L 9.332031 2.667969 L 9.332031 5.332031 L 6.667969 5.332031 L 6.667969 2.667969 Z M 6.667969 6.667969 L 9.332031 6.667969 L 9.332031 9.332031 L 6.667969 9.332031 Z M 6.667969 6.667969 "/>
</g>
</svg>
