<svg xmlns="http://www.w3.org/2000/svg" xmlns:xlink="http://www.w3.org/1999/xlink" width="16" height="16" viewBox="0 0 16 16" version="1.1">
<g id="surface1">
<path style=" stroke:none;fill-rule:nonzero;fill:rgb(0%,80.000001%,100%);fill-opacity:1;" d="M 6.382812 13.308594 C 5.1875 13.199219 4.265625 12.816406 3.570312 12.140625 C 2.984375 11.570312 2.667969 10.359375 2.667969 9.667969 C 2.664062 9.183594 2.804688 8.796875 3.085938 8.5 C 3.40625 8.167969 3.773438 8.015625 4.261719 8.011719 C 4.871094 8.007812 5.632812 8.222656 5.855469 8.695312 C 5.953125 8.894531 5.957031 8.925781 5.976562 9.433594 C 6 10.007812 5.894531 11.042969 6.035156 11.316406 C 6.234375 11.707031 6.589844 12.007812 7.359375 12.007812 C 8.132812 12.007812 8.433594 11.613281 8.636719 10.816406 C 8.6875 10.609375 8.695312 10.011719 8.695312 7.363281 C 8.695312 4.527344 8.691406 4.359375 8.628906 4.246094 C 8.515625 4.050781 8.441406 4.011719 7.90625 4 L 7.332031 4 L 7.332031 2.667969 L 13.332031 2.667969 L 13.332031 4 L 12.6875 4 C 12.179688 4.019531 12.289062 4.035156 12.175781 4.15625 C 12.019531 4.324219 12.0625 4.375 12.039062 7.457031 C 12.019531 10.515625 12.015625 10.546875 11.871094 10.949219 C 11.507812 11.960938 10.535156 12.808594 9.285156 13.132812 C 8.644531 13.296875 7.089844 13.375 6.382812 13.308594 Z M 6.382812 13.308594 "/>
</g>
</svg>
