<svg xmlns="http://www.w3.org/2000/svg" xmlns:xlink="http://www.w3.org/1999/xlink" width="16" height="16" viewBox="0 0 16 16" version="1.1">
<defs>
<filter id="alpha" filterUnits="objectBoundingBox" x="0%" y="0%" width="100%" height="100%">
  <feColorMatrix type="matrix" in="SourceGraphic" values="0 0 0 0 1 0 0 0 0 1 0 0 0 0 1 0 0 0 1 0"/>
</filter>
<mask id="mask0">
  <g filter="url(#alpha)">
<rect x="0" y="0" width="16" height="16" style="fill:rgb(0%,0%,0%);fill-opacity:0.3;stroke:none;"/>
  </g>
</mask>
<clipPath id="clip1">
  <rect x="0" y="0" width="16" height="16"/>
</clipPath>
<g id="surface5" clip-path="url(#clip1)">
<path style=" stroke:none;fill-rule:nonzero;fill:rgb(67.058825%,40.000001%,100%);fill-opacity:1;" d="M 3.332031 5.398438 C 3.164062 5.398438 2.992188 5.464844 2.863281 5.59375 C 2.601562 5.855469 2.601562 6.277344 2.863281 6.539062 L 5.691406 9.367188 L 6.632812 8.421875 L 3.804688 5.59375 C 3.675781 5.464844 3.503906 5.398438 3.332031 5.398438 Z M 7.578125 9.367188 L 6.667969 10.34375 L 9.460938 13.136719 C 9.722656 13.398438 10.144531 13.398438 10.40625 13.136719 C 10.667969 12.875 10.667969 12.453125 10.40625 12.195312 Z M 7.578125 9.367188 "/>
</g>
</defs>
<g id="surface1">
<path style=" stroke:none;fill-rule:nonzero;fill:rgb(67.058825%,40.000001%,100%);fill-opacity:1;" d="M 10.667969 2.664062 C 9.195312 2.664062 8 3.859375 8 5.332031 C 8 5.808594 8.128906 6.273438 8.371094 6.683594 L 2.863281 12.191406 C 2.601562 12.453125 2.601562 12.875 2.863281 13.136719 C 3.125 13.398438 3.546875 13.398438 3.804688 13.136719 L 4.277344 12.664062 L 5.332031 12.664062 L 5.332031 11.609375 L 5.609375 11.332031 L 6.667969 11.332031 L 6.667969 10.339844 L 7.578125 9.363281 L 9.316406 7.625 C 9.726562 7.871094 10.191406 7.996094 10.667969 8 C 12.140625 8 13.332031 6.804688 13.332031 5.332031 C 13.332031 3.859375 12.140625 2.664062 10.667969 2.664062 Z M 11.332031 4 C 11.703125 4 12 4.296875 12 4.664062 C 12 5.035156 11.703125 5.332031 11.332031 5.332031 C 10.964844 5.332031 10.667969 5.035156 10.667969 4.664062 C 10.667969 4.296875 10.964844 4 11.332031 4 Z M 11.332031 4 "/>
<use xlink:href="#surface5" mask="url(#mask0)"/>
</g>
</svg>
