<svg xmlns="http://www.w3.org/2000/svg" xmlns:xlink="http://www.w3.org/1999/xlink" width="16" height="16" viewBox="0 0 16 16" version="1.1">
<g id="surface1">
<path style=" stroke:none;fill-rule:nonzero;fill:rgb(67.058825%,40.000001%,100%);fill-opacity:1;" d="M 8 2.667969 C 6.160156 2.667969 4.667969 4.160156 4.667969 6 C 4.667969 7.324219 5.453125 8.519531 6.667969 9.050781 L 6.667969 12.667969 L 8 14 L 9.332031 12.667969 L 9.332031 12.199219 L 10 11.699219 L 9.332031 11.199219 L 9.332031 10.699219 L 10 10.035156 L 9.332031 9.367188 L 9.332031 9.054688 C 10.546875 8.523438 11.332031 7.324219 11.332031 6 C 11.332031 4.160156 9.839844 2.667969 8 2.667969 Z M 8 3.332031 C 8.738281 3.332031 9.332031 3.929688 9.332031 4.667969 C 9.332031 5.402344 8.738281 6 8 6 C 7.261719 6 6.667969 5.402344 6.667969 4.667969 C 6.667969 3.929688 7.261719 3.332031 8 3.332031 Z M 7.332031 9.332031 L 8 9.332031 L 8 12 L 7.332031 12 Z M 7.332031 9.332031 "/>
</g>
</svg>
