<svg xmlns="http://www.w3.org/2000/svg" xmlns:xlink="http://www.w3.org/1999/xlink" width="16" height="16" viewBox="0 0 16 16" version="1.1">
<g id="surface1">
<path style=" stroke:none;fill-rule:nonzero;fill:rgb(0%,80.000001%,100%);fill-opacity:1;" d="M 10.667969 2.667969 C 9.195312 2.667969 8 3.859375 8 5.332031 C 8 5.808594 8.128906 6.277344 8.371094 6.683594 L 6.632812 8.421875 L 3.804688 5.59375 C 3.675781 5.464844 3.503906 5.398438 3.332031 5.398438 C 3.164062 5.398438 2.992188 5.464844 2.863281 5.59375 C 2.601562 5.855469 2.601562 6.277344 2.863281 6.539062 L 5.691406 9.367188 L 2.863281 12.195312 C 2.601562 12.453125 2.601562 12.875 2.863281 13.136719 C 3.125 13.398438 3.542969 13.398438 3.804688 13.136719 L 4.277344 12.667969 L 5.332031 12.667969 L 5.332031 11.609375 L 5.609375 11.332031 L 6.667969 11.332031 L 6.667969 10.34375 L 9.460938 13.136719 C 9.722656 13.398438 10.144531 13.398438 10.40625 13.136719 C 10.667969 12.875 10.667969 12.453125 10.40625 12.195312 L 7.578125 9.367188 L 9.316406 7.628906 C 9.722656 7.871094 10.191406 8 10.667969 8 C 12.140625 8 13.332031 6.804688 13.332031 5.332031 C 13.332031 3.859375 12.140625 2.667969 10.667969 2.667969 Z M 11.332031 4 C 11.703125 4 12 4.296875 12 4.667969 C 12 5.035156 11.703125 5.332031 11.332031 5.332031 C 10.964844 5.332031 10.667969 5.035156 10.667969 4.667969 C 10.667969 4.296875 10.964844 4 11.332031 4 Z M 11.332031 4 "/>
</g>
</svg>
