<svg xmlns="http://www.w3.org/2000/svg" xmlns:xlink="http://www.w3.org/1999/xlink" width="16" height="16" viewBox="0 0 16 16" version="1.1">
<defs>
<filter id="alpha" filterUnits="objectBoundingBox" x="0%" y="0%" width="100%" height="100%">
  <feColorMatrix type="matrix" in="SourceGraphic" values="0 0 0 0 1 0 0 0 0 1 0 0 0 0 1 0 0 0 1 0"/>
</filter>
<mask id="mask0">
  <g filter="url(#alpha)">
<rect x="0" y="0" width="16" height="16" style="fill:rgb(0%,0%,0%);fill-opacity:0.35;stroke:none;"/>
  </g>
</mask>
<clipPath id="clip1">
  <rect x="0" y="0" width="16" height="16"/>
</clipPath>
<g id="surface5" clip-path="url(#clip1)">
<path style=" stroke:none;fill-rule:nonzero;fill:rgb(0%,80.000001%,100%);fill-opacity:1;" d="M 4.332031 2.667969 C 4.148438 2.667969 4 2.816406 4 3 L 4 3.332031 L 2.667969 3.332031 L 2.667969 13 C 2.667969 13.1875 2.816406 13.335938 3 13.335938 L 7 13.335938 C 7.183594 13.335938 7.332031 13.1875 7.332031 13 L 7.332031 3.335938 L 6 3.335938 L 6 3.003906 C 6 2.816406 5.851562 2.667969 5.667969 2.667969 Z M 4.332031 2.667969 "/>
</g>
</defs>
<g id="surface1">
<use xlink:href="#surface5" mask="url(#mask0)"/>
<path style=" stroke:none;fill-rule:nonzero;fill:rgb(0%,80.000001%,100%);fill-opacity:1;" d="M 2.667969 8 L 2.667969 13 C 2.667969 13.1875 2.816406 13.335938 3 13.335938 L 7 13.335938 C 7.183594 13.335938 7.332031 13.1875 7.332031 13 L 7.332031 8 Z M 2.667969 8 "/>
<path style=" stroke:none;fill-rule:evenodd;fill:rgb(0%,80.000001%,100%);fill-opacity:1;" d="M 9.332031 3.332031 C 8.964844 3.332031 8.667969 3.628906 8.667969 4 L 8.667969 12.667969 C 8.667969 13.035156 8.964844 13.332031 9.332031 13.332031 L 12.667969 13.332031 C 13.035156 13.332031 13.332031 13.035156 13.332031 12.667969 L 13.332031 4 C 13.332031 3.628906 13.035156 3.332031 12.667969 3.332031 Z M 9.332031 5.332031 L 10 5.332031 L 10 6 L 9.332031 6 Z M 10.667969 5.332031 L 11.332031 5.332031 L 11.332031 6 L 10.667969 6 Z M 12 6 L 12.667969 6 L 12.667969 10.667969 L 12 10.667969 Z M 9.332031 6.667969 L 10 6.667969 L 10 7.332031 L 9.332031 7.332031 Z M 10.667969 6.667969 L 11.332031 6.667969 L 11.332031 7.332031 L 10.667969 7.332031 Z M 9.332031 8 L 10 8 L 10 8.667969 L 9.332031 8.667969 Z M 10.667969 8 L 11.332031 8 L 11.332031 8.667969 L 10.667969 8.667969 Z M 9.332031 9.332031 L 10 9.332031 L 10 10 L 9.332031 10 Z M 10.667969 9.332031 L 11.332031 9.332031 L 11.332031 10 L 10.667969 10 Z M 9.332031 10.667969 L 10 10.667969 L 10 11.332031 L 9.332031 11.332031 Z M 10.667969 10.667969 L 11.332031 10.667969 L 11.332031 11.332031 L 10.667969 11.332031 Z M 10.667969 10.667969 "/>
</g>
</svg>
