<svg xmlns="http://www.w3.org/2000/svg" xmlns:xlink="http://www.w3.org/1999/xlink" width="16" height="16" viewBox="0 0 16 16" version="1.1">
<g id="surface1">
<path style=" stroke:none;fill-rule:nonzero;fill:rgb(100%,30.980393%,30.980393%);fill-opacity:1;" d="M 6.890625 2.667969 C 6.859375 2.667969 6.660156 3.007812 6.46875 3.382812 C 6.1875 3.929688 6.054688 4.351562 6.007812 4.839844 C 5.996094 4.960938 6 5.078125 6.007812 5.195312 C 6.003906 5.246094 6 5.300781 6 5.351562 C 6 5.566406 6.042969 5.769531 6.105469 5.964844 C 5.261719 6.339844 4.550781 6.953125 4.058594 7.726562 C 3.9375 7.882812 3.832031 8.050781 3.753906 8.226562 C 3.632812 8.503906 3.542969 8.789062 3.472656 9.097656 C 3.429688 9.28125 3.390625 9.46875 3.367188 9.660156 C 3.363281 9.675781 3.371094 9.679688 3.378906 9.679688 C 3.371094 9.753906 3.359375 9.824219 3.351562 9.898438 C 3.328125 10.148438 3.328125 10.25 3.34375 10.25 L 6 7.332031 L 5.3125 9.636719 C 5.316406 9.640625 5.402344 9.605469 5.507812 9.558594 C 6.144531 9.265625 6.9375 8.753906 7.640625 8.667969 C 7.882812 8.640625 8.71875 8.636719 8.972656 8.664062 C 9.484375 8.71875 9.949219 9.113281 10.523438 9.269531 C 10.777344 9.339844 10.902344 9.355469 11.109375 9.347656 C 11.320312 9.339844 11.441406 9.3125 11.59375 9.238281 C 11.980469 9.054688 12.179688 8.652344 12.125 8.222656 C 12.121094 8.179688 12.109375 8.140625 12.101562 8.101562 C 12.117188 8.0625 12.101562 7.992188 12.035156 7.878906 C 11.972656 7.710938 11.878906 7.539062 11.734375 7.347656 C 11.207031 6.765625 10.589844 6.285156 9.890625 5.964844 C 9.957031 5.773438 10 5.566406 10 5.351562 C 10 5.300781 10 5.253906 9.996094 5.203125 C 9.996094 5.152344 10 5.101562 10 5.050781 C 9.964844 4.375 9.566406 3.910156 8.96875 3.601562 C 8.652344 3.441406 8.167969 3.363281 7.851562 3.363281 C 7.457031 3.363281 7.15625 3.023438 6.964844 2.746094 C 6.933594 2.703125 6.902344 2.667969 6.890625 2.667969 Z M 12.554688 9.21875 C 12.398438 9.480469 12.171875 9.703125 11.882812 9.839844 C 11.664062 9.945312 11.394531 10.007812 11.136719 10.015625 C 10.882812 10.023438 10.628906 9.988281 10.347656 9.914062 C 9.585938 9.703125 9.117188 9.347656 8.902344 9.328125 C 8.808594 9.316406 7.785156 9.324219 7.71875 9.332031 C 7.277344 9.382812 6.5 9.835938 5.785156 10.164062 C 5.726562 10.191406 5.671875 10.214844 5.625 10.234375 C 5.597656 10.246094 5.578125 10.253906 5.542969 10.265625 C 5.527344 10.269531 5.511719 10.277344 5.464844 10.285156 C 5.445312 10.292969 5.417969 10.296875 5.351562 10.300781 C 5.316406 10.304688 5.199219 10.292969 5.199219 10.292969 C 5.199219 10.292969 5.050781 10.25 5.050781 10.25 C 5.050781 10.25 4.839844 10.105469 4.839844 10.105469 C 4.753906 10.019531 4.691406 9.910156 4.664062 9.792969 L 3.835938 10.699219 C 3.722656 10.824219 3.5625 10.902344 3.394531 10.914062 C 3.527344 11.816406 3.921875 12.65625 4.527344 13.332031 L 11.472656 13.332031 C 12.238281 12.480469 12.664062 11.371094 12.667969 10.222656 C 12.664062 9.886719 12.628906 9.546875 12.554688 9.21875 Z M 6 10.667969 C 6.367188 10.667969 6.667969 10.964844 6.667969 11.332031 C 6.667969 11.703125 6.367188 12 6 12 C 5.632812 12 5.332031 11.703125 5.332031 11.332031 C 5.332031 10.964844 5.632812 10.667969 6 10.667969 Z M 10 10.667969 C 10.367188 10.667969 10.667969 10.964844 10.667969 11.332031 C 10.667969 11.703125 10.367188 12 10 12 C 9.632812 12 9.332031 11.703125 9.332031 11.332031 C 9.332031 10.964844 9.632812 10.667969 10 10.667969 Z M 10 10.667969 "/>
</g>
</svg>
