<svg xmlns="http://www.w3.org/2000/svg" xmlns:xlink="http://www.w3.org/1999/xlink" width="16" height="16" viewBox="0 0 16 16" version="1.1">
<g id="surface1">
<path style=" stroke:none;fill-rule:nonzero;fill:rgb(0%,100%,66.666669%);fill-opacity:1;" d="M 14 2 C 13.261719 2 12.667969 2.597656 12.667969 3.332031 C 12.667969 4.070312 13.261719 4.667969 14 4.667969 C 14.738281 4.667969 15.332031 4.070312 15.332031 3.332031 C 15.332031 2.597656 14.738281 2 14 2 Z M 8 2.667969 C 5.054688 2.667969 2.667969 5.054688 2.667969 8 C 2.667969 10.945312 5.054688 13.332031 8 13.332031 C 10.945312 13.332031 13.332031 10.945312 13.332031 8 C 13.332031 5.054688 10.945312 2.667969 8 2.667969 Z M 8 6 L 8.382812 6.667969 C 8.382812 6.667969 9.332031 8.667969 10.667969 8.667969 C 12 8.667969 12.667969 7.332031 12.667969 7.332031 C 12.667969 7.332031 12.667969 10 10.667969 10 C 9.332031 10 8 9.332031 8 9.332031 C 8 9.332031 6.667969 10 5.332031 10 C 3.332031 10 3.332031 7.332031 3.332031 7.332031 C 3.332031 7.332031 4 8.667969 5.332031 8.667969 C 6.667969 8.667969 7.617188 6.667969 7.617188 6.667969 Z M 8 6 "/>
</g>
</svg>
