<svg xmlns="http://www.w3.org/2000/svg" xmlns:xlink="http://www.w3.org/1999/xlink" width="16" height="16" viewBox="0 0 16 16" version="1.1">
<g id="surface1">
<path style=" stroke:none;fill-rule:nonzero;fill:rgb(67.058825%,40.000001%,100%);fill-opacity:1;" d="M 2.761719 3.332031 C 2.339844 3.332031 2 3.691406 2 4.132812 L 2 11.867188 C 2 12.308594 2.339844 12.667969 2.761719 12.667969 L 13.238281 12.667969 C 13.660156 12.667969 14 12.308594 14 11.867188 L 14 4.132812 C 14 3.691406 13.660156 3.332031 13.238281 3.332031 Z M 6 5.332031 C 7.472656 5.332031 8.667969 6.527344 8.667969 8 C 8.667969 9.472656 7.472656 10.667969 6 10.667969 C 4.527344 10.667969 3.332031 9.472656 3.332031 8 C 3.332031 6.527344 4.527344 5.332031 6 5.332031 Z M 9.332031 5.332031 L 13.332031 5.332031 L 13.332031 6 L 9.332031 6 Z M 6 6.667969 C 5.261719 6.667969 4.667969 7.261719 4.667969 8 C 4.667969 8.738281 5.261719 9.332031 6 9.332031 C 6.738281 9.332031 7.332031 8.738281 7.332031 8 C 7.332031 7.261719 6.738281 6.667969 6 6.667969 Z M 9.332031 7.332031 L 13.332031 7.332031 L 13.332031 8 L 9.332031 8 Z M 9.332031 9.332031 L 13.332031 9.332031 L 13.332031 10 L 9.332031 10 Z M 9.332031 9.332031 "/>
</g>
</svg>
