<svg xmlns="http://www.w3.org/2000/svg" xmlns:xlink="http://www.w3.org/1999/xlink" width="16" height="16" viewBox="0 0 16 16" version="1.1">
<g id="surface1">
<path style=" stroke:none;fill-rule:nonzero;fill:rgb(0%,100%,66.666669%);fill-opacity:1;" d="M 13.042969 2.667969 C 12.953125 2.660156 12.816406 2.679688 12.558594 2.746094 C 12.046875 2.875 11.9375 2.914062 11.945312 3.027344 C 11.945312 3.089844 11.980469 3.144531 12.070312 3.25 L 11.695312 3.625 L 11.59375 3.519531 C 11.5625 3.492188 11.527344 3.480469 11.492188 3.480469 C 11.453125 3.480469 11.417969 3.492188 11.390625 3.519531 L 11.242188 3.667969 L 12.34375 4.75 L 12.480469 4.613281 C 12.539062 4.554688 12.539062 4.464844 12.480469 4.410156 L 12.382812 4.308594 L 12.757812 3.933594 C 12.855469 4.019531 12.910156 4.050781 12.976562 4.058594 C 13.082031 4.070312 13.109375 3.941406 13.246094 3.433594 C 13.382812 2.925781 13.347656 2.890625 13.230469 2.773438 C 13.171875 2.71875 13.132812 2.679688 13.042969 2.667969 Z M 11.003906 3.90625 L 7.800781 7.109375 L 8.894531 8.199219 L 12.105469 4.988281 Z M 6.929688 7.238281 C 6.890625 7.238281 6.851562 7.253906 6.824219 7.28125 L 3.46875 10.632812 C 3.410156 10.691406 3.410156 10.785156 3.46875 10.84375 L 5.152344 12.527344 C 5.210938 12.585938 5.304688 12.585938 5.363281 12.527344 L 8.714844 9.175781 C 8.773438 9.117188 8.773438 9.023438 8.714844 8.964844 L 7.035156 7.28125 C 7.003906 7.253906 6.964844 7.238281 6.929688 7.238281 Z M 3.148438 11.464844 L 2.773438 11.835938 C 2.632812 11.980469 2.632812 12.210938 2.773438 12.351562 L 3.648438 13.226562 C 3.789062 13.371094 4.023438 13.371094 4.164062 13.226562 L 4.535156 12.855469 Z M 3.148438 11.464844 "/>
</g>
</svg>
