<svg xmlns="http://www.w3.org/2000/svg" xmlns:xlink="http://www.w3.org/1999/xlink" width="16" height="16" viewBox="0 0 16 16" version="1.1">
<g id="surface1">
<path style=" stroke:none;fill-rule:nonzero;fill:rgb(96.862745%,0%,100%);fill-opacity:1;" d="M 3.332031 3.332031 C 2.964844 3.332031 2.667969 3.628906 2.667969 4 L 2.667969 10.667969 C 2.667969 11.035156 2.964844 11.332031 3.332031 11.332031 L 2 11.332031 L 2 12 C 2 12.371094 2.59375 12.667969 3.332031 12.667969 L 12 12.667969 L 12 10.667969 L 4 10.667969 L 4 4.667969 L 12 4.667969 L 12 6.667969 L 13.332031 6.667969 L 13.332031 4 C 13.332031 3.628906 13.035156 3.332031 12.667969 3.332031 Z M 6.667969 11.332031 L 9.332031 11.332031 L 9.332031 12 L 6.667969 12 Z M 6.667969 11.332031 "/>
<path style=" stroke:none;fill-rule:nonzero;fill:rgb(25.882354%,52.156866%,95.686275%);fill-opacity:1;" d="M 12.667969 7.332031 L 12.667969 10 L 12.832031 11.332031 L 13.832031 11.332031 L 14 10 L 14 7.332031 Z M 12.667969 12 L 12.667969 13.332031 L 14 13.332031 L 14 12 Z M 12.667969 12 "/>
</g>
</svg>
