<svg xmlns="http://www.w3.org/2000/svg" xmlns:xlink="http://www.w3.org/1999/xlink" width="16" height="16" viewBox="0 0 16 16" version="1.1">
<defs>
<filter id="alpha" filterUnits="objectBoundingBox" x="0%" y="0%" width="100%" height="100%">
  <feColorMatrix type="matrix" in="SourceGraphic" values="0 0 0 0 1 0 0 0 0 1 0 0 0 0 1 0 0 0 1 0"/>
</filter>
<mask id="mask0">
  <g filter="url(#alpha)">
<rect x="0" y="0" width="16" height="16" style="fill:rgb(0%,0%,0%);fill-opacity:0.3;stroke:none;"/>
  </g>
</mask>
<clipPath id="clip1">
  <rect x="0" y="0" width="16" height="16"/>
</clipPath>
<g id="surface5" clip-path="url(#clip1)">
<path style=" stroke:none;fill-rule:nonzero;fill:rgb(0%,100%,66.666669%);fill-opacity:1;" d="M 3.332031 3.332031 C 2.964844 3.332031 2.667969 3.628906 2.667969 4 L 2.667969 10.667969 C 2.667969 11.035156 2.964844 11.332031 3.332031 11.332031 L 2 11.332031 L 2 12 C 2 12.371094 2.59375 12.667969 3.332031 12.667969 L 12.667969 12.667969 C 13.40625 12.667969 14 12.371094 14 12 L 14 11.332031 L 12.667969 11.332031 C 13.035156 11.332031 13.332031 11.035156 13.332031 10.667969 L 13.332031 4 C 13.332031 3.628906 13.035156 3.332031 12.667969 3.332031 Z M 4 4.667969 L 12 4.667969 L 12 10.667969 L 4 10.667969 Z M 6.667969 11.332031 L 9.332031 11.332031 L 9.332031 12 L 6.667969 12 Z M 6.667969 11.332031 "/>
</g>
</defs>
<g id="surface1">
<use xlink:href="#surface5" mask="url(#mask0)"/>
</g>
</svg>
