<svg xmlns="http://www.w3.org/2000/svg" xmlns:xlink="http://www.w3.org/1999/xlink" width="16" height="16" viewBox="0 0 16 16" version="1.1">
<defs>
<filter id="alpha" filterUnits="objectBoundingBox" x="0%" y="0%" width="100%" height="100%">
  <feColorMatrix type="matrix" in="SourceGraphic" values="0 0 0 0 1 0 0 0 0 1 0 0 0 0 1 0 0 0 1 0"/>
</filter>
<mask id="mask0">
  <g filter="url(#alpha)">
<rect x="0" y="0" width="16" height="16" style="fill:rgb(0%,0%,0%);fill-opacity:0.3;stroke:none;"/>
  </g>
</mask>
<clipPath id="clip1">
  <rect x="0" y="0" width="16" height="16"/>
</clipPath>
<g id="surface5" clip-path="url(#clip1)">
<path style=" stroke:none;fill-rule:nonzero;fill:rgb(67.058825%,40.000001%,100%);fill-opacity:1;" d="M 8.882812 6.851562 C 8.523438 6.863281 8.164062 6.9375 7.8125 7.035156 C 7.847656 7.113281 7.890625 7.210938 7.910156 7.261719 C 7.914062 7.265625 7.914062 7.265625 7.914062 7.269531 C 7.980469 7.441406 8.070312 7.664062 7.980469 7.984375 C 7.886719 8.304688 7.582031 8.523438 7.355469 8.601562 C 6.988281 8.730469 6.582031 8.636719 6.351562 8.507812 C 6.269531 8.460938 6.25 8.441406 6.191406 8.398438 C 6.136719 8.546875 6.003906 8.761719 6 8.828125 C 5.980469 9.105469 5.972656 9.3125 6.03125 9.488281 C 6.089844 9.664062 6.199219 9.855469 6.636719 10.097656 L 6.640625 10.097656 C 7.347656 10.484375 8.355469 10.707031 9.238281 10.714844 C 10.296875 10.714844 11.355469 10.40625 11.914062 9.484375 C 12.0625 9.238281 12.347656 9.113281 12.628906 9.175781 C 12.652344 9.007812 12.664062 8.835938 12.667969 8.667969 C 12.667969 8.300781 12.613281 7.933594 12.511719 7.578125 C 12.335938 7.601562 12.148438 7.605469 11.949219 7.574219 C 11.933594 7.570312 11.914062 7.566406 11.894531 7.5625 C 11.792969 7.535156 11.734375 7.519531 11.65625 7.488281 C 11.652344 7.488281 11.644531 7.484375 11.640625 7.480469 C 11.160156 7.3125 10.78125 7.191406 10.367188 7.070312 C 10.363281 7.074219 10.363281 7.078125 10.363281 7.078125 C 10.082031 7.347656 9.609375 7.371094 9.292969 7.242188 C 9.035156 7.144531 9 7 8.882812 6.851562 Z M 8.882812 6.851562 "/>
</g>
</defs>
<g id="surface1">
<path style=" stroke:none;fill-rule:nonzero;fill:rgb(67.058825%,40.000001%,100%);fill-opacity:1;" d="M 7.832031 2.667969 C 5.042969 2.664062 2.742188 4.960938 2.667969 7.859375 C 2.59375 10.804688 4.84375 13.257812 7.695312 13.332031 C 10 13.335938 12 12 12.484375 9.828125 C 11.769531 11.015625 10.429688 11.382812 9.234375 11.378906 C 8.25 11.371094 7.15625 11.140625 6.316406 10.679688 C 5.21875 10.074219 5.296875 9.3125 5.332031 8.78125 C 5.355469 8.476562 5.503906 7.957031 5.898438 7.457031 C 6.027344 7.503906 6.152344 7.558594 6.261719 7.636719 C 6.535156 7.824219 6.78125 8.097656 7.132812 7.972656 C 7.371094 7.890625 7.386719 7.746094 7.292969 7.511719 C 7.214844 7.324219 7.089844 6.996094 6.929688 6.871094 C 6.867188 6.820312 6.773438 6.789062 6.675781 6.761719 C 6.84375 6.65625 7.027344 6.554688 7.234375 6.464844 C 7.816406 6.261719 8.464844 6.144531 9.089844 6.152344 C 9.214844 6.347656 9.332031 6.546875 9.535156 6.625 C 9.871094 6.761719 10.011719 6.539062 10 6.265625 C 10.03125 6.273438 10.0625 6.277344 10.09375 6.289062 C 10.765625 6.441406 11.246094 6.632812 11.882812 6.859375 C 11.882812 6.859375 11.878906 6.871094 12.054688 6.914062 C 12.570312 6.996094 12.871094 6.851562 13.054688 6.660156 C 13.097656 6.65625 13.140625 6.640625 13.179688 6.59375 C 13.25 6.507812 13.382812 6.378906 13.304688 6.191406 C 13.328125 6.089844 13.332031 6.019531 13.332031 6.019531 L 13.296875 5.820312 L 13.191406 5.550781 L 13.140625 5.4375 L 13.128906 5.414062 C 13.179688 5.371094 13.222656 5.300781 13.226562 5.210938 C 13.238281 5.066406 13.167969 4.941406 13.066406 4.925781 C 13.066406 4.765625 13.058594 4.585938 13.027344 4.339844 C 12.988281 4 12.765625 3.867188 12.691406 3.8125 C 12.621094 3.757812 12.28125 3.503906 11.957031 3.378906 C 11.632812 3.25 11.308594 3.15625 10.90625 3.214844 C 10.859375 3.21875 10.816406 3.226562 10.773438 3.234375 C 10.765625 3.230469 10.761719 3.226562 10.75 3.226562 C 10.597656 3.179688 10.488281 2.929688 10.363281 2.933594 C 10.355469 2.933594 10.34375 2.933594 10.332031 2.9375 C 10.324219 2.9375 10.316406 2.9375 10.304688 2.941406 C 10.292969 2.941406 10.285156 2.945312 10.273438 2.949219 C 10.261719 2.949219 10.25 2.953125 10.238281 2.960938 C 10.167969 2.992188 10.121094 3.121094 10.09375 3.207031 C 9.449219 2.882812 8.726562 2.691406 7.964844 2.667969 C 7.917969 2.667969 7.875 2.667969 7.832031 2.667969 Z M 11.625 4.667969 C 11.710938 4.660156 11.800781 4.679688 11.871094 4.738281 C 12.019531 4.851562 12.042969 5.0625 11.929688 5.207031 C 11.816406 5.351562 11.605469 5.375 11.460938 5.261719 C 11.316406 5.148438 11.289062 4.9375 11.402344 4.792969 C 11.460938 4.722656 11.542969 4.679688 11.625 4.667969 Z M 11.625 4.667969 "/>
<use xlink:href="#surface5" mask="url(#mask0)"/>
</g>
</svg>
