<svg xmlns="http://www.w3.org/2000/svg" xmlns:xlink="http://www.w3.org/1999/xlink" width="16" height="16" viewBox="0 0 16 16" version="1.1">
<g id="surface1">
<path style=" stroke:none;fill-rule:nonzero;fill:rgb(0%,100%,66.666669%);fill-opacity:1;" d="M 8 2.667969 C 5.054688 2.667969 2.667969 5.054688 2.667969 8 C 2.667969 10.945312 5.054688 13.332031 8 13.332031 C 10.945312 13.332031 13.332031 10.945312 13.332031 8 C 13.332031 5.054688 10.945312 2.667969 8 2.667969 Z M 4.667969 5.332031 L 11.332031 5.332031 L 8 8.667969 Z M 4.667969 6.277344 L 6.863281 8.472656 L 4.667969 10.667969 Z M 11.332031 6.277344 L 11.332031 10.667969 L 9.136719 8.472656 Z M 7.332031 8.941406 L 7.527344 9.136719 C 7.789062 9.398438 8.210938 9.398438 8.472656 9.136719 L 8.667969 8.941406 L 10.390625 10.667969 L 5.609375 10.667969 Z M 7.332031 8.941406 "/>
<path style=" stroke:none;fill-rule:nonzero;fill:rgb(25.882354%,52.156866%,95.686275%);fill-opacity:1;" d="M 15.332031 12.667969 C 15.332031 13.402344 14.738281 14 14 14 C 13.261719 14 12.667969 13.402344 12.667969 12.667969 C 12.667969 11.929688 13.261719 11.332031 14 11.332031 C 14.738281 11.332031 15.332031 11.929688 15.332031 12.667969 Z M 15.332031 12.667969 "/>
</g>
</svg>
