<svg xmlns="http://www.w3.org/2000/svg" xmlns:xlink="http://www.w3.org/1999/xlink" width="16" height="16" viewBox="0 0 16 16" version="1.1">
<defs>
<filter id="alpha" filterUnits="objectBoundingBox" x="0%" y="0%" width="100%" height="100%">
  <feColorMatrix type="matrix" in="SourceGraphic" values="0 0 0 0 1 0 0 0 0 1 0 0 0 0 1 0 0 0 1 0"/>
</filter>
<mask id="mask0">
  <g filter="url(#alpha)">
<rect x="0" y="0" width="16" height="16" style="fill:rgb(0%,0%,0%);fill-opacity:0.3;stroke:none;"/>
  </g>
</mask>
<clipPath id="clip1">
  <rect x="0" y="0" width="16" height="16"/>
</clipPath>
<g id="surface5" clip-path="url(#clip1)">
<path style=" stroke:none;fill-rule:nonzero;fill:rgb(100%,30.980393%,30.980393%);fill-opacity:1;" d="M 8 2.667969 C 5.054688 2.667969 2.667969 5.050781 2.667969 8 C 2.667969 10.945312 5.050781 13.332031 8 13.332031 C 8.21875 13.332031 8.429688 13.316406 8.640625 13.292969 C 8.226562 12.722656 8 12.039062 8 11.332031 C 8 10.285156 8.496094 9.300781 9.332031 8.671875 L 9.332031 8.332031 L 8.667969 9.332031 L 7.332031 9.332031 L 6.667969 8.332031 L 6.667969 10 L 5.332031 10 L 5.332031 6 L 6.667969 6 L 8 8 L 9.332031 6 L 10.667969 6 L 10.667969 8.070312 C 10.886719 8.023438 11.109375 8 11.332031 8 C 12.039062 8 12.722656 8.226562 13.292969 8.640625 C 13.316406 8.429688 13.332031 8.21875 13.332031 8 C 13.332031 5.054688 10.949219 2.667969 8 2.667969 Z M 8 2.667969 "/>
</g>
</defs>
<g id="surface1">
<use xlink:href="#surface5" mask="url(#mask0)"/>
<path style=" stroke:none;fill-rule:nonzero;fill:rgb(100%,30.980393%,30.980393%);fill-opacity:1;" d="M 11.519531 8.671875 C 11.007812 8.636719 10.476562 8.746094 10 9.023438 C 8.722656 9.761719 8.289062 11.390625 9.023438 12.667969 C 9.761719 13.941406 11.390625 14.378906 12.667969 13.640625 C 13.941406 12.90625 14.378906 11.277344 13.644531 10 C 13.183594 9.203125 12.375 8.730469 11.519531 8.671875 Z M 10 10 L 10.667969 10 L 10.667969 12.667969 L 10 12.667969 Z M 12 10 L 12.667969 10 L 12.667969 12.667969 L 12 12.667969 Z M 12 10 "/>
</g>
</svg>
