<svg xmlns="http://www.w3.org/2000/svg" xmlns:xlink="http://www.w3.org/1999/xlink" width="16" height="16" viewBox="0 0 16 16" version="1.1">
<g id="surface1">
<path style=" stroke:none;fill-rule:nonzero;fill:rgb(67.058825%,40.000001%,100%);fill-opacity:1;" d="M 8 2.667969 C 5.054688 2.667969 2.667969 5.050781 2.667969 8 C 2.667969 10.945312 5.050781 13.332031 8 13.332031 C 8.21875 13.332031 8.429688 13.316406 8.640625 13.292969 C 8.226562 12.722656 8 12.039062 8 11.332031 C 8 10.285156 8.496094 9.300781 9.332031 8.671875 L 9.332031 8.332031 L 8.667969 9.332031 L 7.332031 9.332031 L 6.667969 8.332031 L 6.667969 10 L 5.332031 10 L 5.332031 6 L 6.667969 6 L 8 8 L 9.332031 6 L 10.667969 6 L 10.667969 8.070312 C 10.886719 8.023438 11.109375 8 11.332031 8 C 12.039062 8 12.722656 8.226562 13.292969 8.640625 C 13.316406 8.429688 13.332031 8.21875 13.332031 8 C 13.332031 5.054688 10.949219 2.667969 8 2.667969 Z M 8 2.667969 "/>
<path style=" stroke:none;fill-rule:nonzero;fill:rgb(67.058825%,40.000001%,100%);fill-opacity:1;" d="M 13.644531 10 C 12.90625 8.722656 11.277344 8.285156 10 9.023438 C 8.726562 9.761719 8.289062 11.390625 9.023438 12.667969 C 9.761719 13.941406 11.390625 14.378906 12.667969 13.640625 C 13.941406 12.90625 14.378906 11.273438 13.644531 10 Z M 13.066406 10.332031 C 13.617188 11.289062 13.289062 12.511719 12.332031 13.066406 L 12 12.488281 C 12.636719 12.121094 12.855469 11.304688 12.488281 10.667969 Z M 10.332031 9.601562 L 10.667969 10.179688 C 10.03125 10.546875 9.8125 11.363281 10.179688 12 L 9.601562 12.332031 C 9.050781 11.375 9.378906 10.152344 10.332031 9.601562 Z M 10.332031 9.601562 "/>
</g>
</svg>
