<svg xmlns="http://www.w3.org/2000/svg" xmlns:xlink="http://www.w3.org/1999/xlink" width="16" height="16" viewBox="0 0 16 16" version="1.1">
<g id="surface1">
<path style=" stroke:none;fill-rule:nonzero;fill:rgb(100%,74.901962%,0%);fill-opacity:1;" d="M 8.011719 2.667969 C 5.417969 2.667969 3.257812 4.398438 2.789062 6.683594 C 2.707031 7.03125 2.667969 7.382812 2.667969 7.734375 C 2.667969 8.996094 3.183594 10.195312 4.078125 11.109375 C 4.433594 10.824219 4.875 10.667969 5.332031 10.667969 C 6.4375 10.667969 7.332031 11.5625 7.332031 12.667969 C 7.332031 12.675781 7.332031 12.683594 7.332031 12.691406 C 7.550781 12.71875 7.769531 12.734375 7.988281 12.734375 C 10.542969 12.734375 12.738281 11.023438 13.210938 8.664062 C 13.289062 8.328125 13.332031 7.976562 13.332031 7.617188 C 13.332031 4.882812 10.949219 2.667969 8.011719 2.667969 Z M 7.332031 5.332031 L 8.667969 7.667969 L 12 6 L 8 10 L 7 7.667969 L 4 9.332031 Z M 7.332031 5.332031 "/>
<path style=" stroke:none;fill-rule:nonzero;fill:rgb(25.882354%,52.156866%,95.686275%);fill-opacity:1;" d="M 6.667969 12.667969 C 6.667969 13.402344 6.070312 14 5.332031 14 C 4.597656 14 4 13.402344 4 12.667969 C 4 11.929688 4.597656 11.332031 5.332031 11.332031 C 6.070312 11.332031 6.667969 11.929688 6.667969 12.667969 Z M 6.667969 12.667969 "/>
</g>
</svg>
