<svg xmlns="http://www.w3.org/2000/svg" xmlns:xlink="http://www.w3.org/1999/xlink" width="16" height="16" viewBox="0 0 16 16" version="1.1">
<g id="surface1">
<path style=" stroke:none;fill-rule:nonzero;fill:rgb(90.588236%,29.803923%,23.529412%);fill-opacity:1;" d="M 8 3 L 4 4.332031 L 4 9 C 4 10.378906 5.054688 11.328125 5.960938 11.960938 C 6.867188 12.59375 8 13 8 13 C 8 13 9.132812 12.59375 10.039062 11.960938 C 10.945312 11.320312 12 10.359375 12 9 L 12 4.332031 Z M 6 6 L 6.667969 6 L 8 7.332031 L 9.332031 6 L 10 6 L 10 6.667969 L 8.667969 8 L 10 9.332031 L 10 10 L 9.332031 10 L 8 8.667969 L 6.667969 10 L 6 10 L 6 9.332031 L 7.332031 8 L 6 6.667969 Z M 6 6 "/>
</g>
</svg>
