<svg xmlns="http://www.w3.org/2000/svg" xmlns:xlink="http://www.w3.org/1999/xlink" width="16" height="16" viewBox="0 0 16 16" version="1.1">
<g id="surface1">
<path style=" stroke:none;fill-rule:nonzero;fill:rgb(0%,100%,66.666669%);fill-opacity:1;" d="M 8 3 L 4 4.332031 L 4 9 C 4 10.378906 5.054688 11.328125 5.960938 11.960938 C 6.867188 12.59375 8 13 8 13 C 8 13 9.132812 12.59375 10.039062 11.960938 C 10.945312 11.320312 12 10.359375 12 9 L 12 4.332031 Z M 8 6 C 8.410156 6 8.8125 6.128906 9.148438 6.367188 L 9.332031 6 L 10 7.332031 L 8.667969 7.332031 L 8.847656 6.972656 C 8.609375 6.777344 8.308594 6.667969 8 6.667969 C 7.261719 6.667969 6.667969 7.261719 6.667969 8 L 6 8 C 6 6.894531 6.894531 6 8 6 Z M 9.332031 8 L 10 8 C 10 9.105469 9.105469 10 8 10 C 7.589844 10 7.1875 9.871094 6.851562 9.632812 L 6.667969 10 L 6 8.667969 L 7.332031 8.667969 L 7.152344 9.027344 C 7.390625 9.222656 7.691406 9.332031 8 9.332031 C 8.738281 9.332031 9.332031 8.738281 9.332031 8 Z M 9.332031 8 "/>
</g>
</svg>
