<svg xmlns="http://www.w3.org/2000/svg" xmlns:xlink="http://www.w3.org/1999/xlink" width="16" height="16" viewBox="0 0 16 16" version="1.1">
<g id="surface1">
<path style=" stroke:none;fill-rule:nonzero;fill:rgb(100%,74.901962%,0%);fill-opacity:1;" d="M 8.910156 2.667969 C 8.683594 2.675781 8.476562 2.796875 8.363281 2.992188 L 7.09375 5.105469 L 3.628906 3.402344 C 3.398438 3.289062 3.128906 3.316406 2.925781 3.472656 C 2.726562 3.628906 2.628906 3.886719 2.679688 4.132812 L 3.324219 7.265625 C 3.328125 7.296875 3.328125 7.324219 3.332031 7.351562 L 3.332031 9.449219 C 3.546875 9.371094 3.773438 9.332031 4 9.332031 C 4.226562 9.335938 4.453125 9.375 4.667969 9.449219 L 4.667969 8.25 L 7.332031 9.378906 L 7.332031 11.628906 L 5.972656 11.007812 C 5.992188 11.117188 6 11.226562 6 11.332031 C 6 11.695312 5.902344 12.046875 5.714844 12.355469 L 7.644531 13.234375 C 7.785156 13.320312 7.953125 13.351562 8.113281 13.320312 C 8.132812 13.316406 8.152344 13.3125 8.171875 13.308594 L 8.179688 13.304688 L 12.171875 12.242188 C 12.464844 12.164062 12.667969 11.898438 12.667969 11.597656 L 12.667969 8.074219 L 13.941406 5.277344 C 14.015625 5.109375 14.019531 4.917969 13.949219 4.746094 C 13.878906 4.574219 13.742188 4.441406 13.570312 4.375 L 9.167969 2.710938 C 9.085938 2.679688 8.996094 2.664062 8.910156 2.667969 Z M 9.21875 4.152344 L 12.433594 5.371094 L 11.660156 7.070312 L 8.457031 5.742188 C 8.417969 5.707031 8.371094 5.671875 8.320312 5.648438 Z M 4.257812 5.199219 L 5.996094 6.054688 L 4.511719 6.425781 Z M 8.3125 7.125 L 9.882812 7.777344 L 8.515625 8.121094 Z M 6.960938 7.1875 L 7.09375 7.828125 L 6.09375 7.40625 Z M 11.332031 8.785156 L 11.332031 11.085938 L 8.667969 11.796875 L 8.667969 9.457031 Z M 11.332031 8.785156 "/>
<path style=" stroke:none;fill-rule:nonzero;fill:rgb(25.882354%,52.156866%,95.686275%);fill-opacity:1;" d="M 5.332031 11.332031 C 5.332031 12.070312 4.738281 12.667969 4 12.667969 C 3.261719 12.667969 2.667969 12.070312 2.667969 11.332031 C 2.667969 10.597656 3.261719 10 4 10 C 4.738281 10 5.332031 10.597656 5.332031 11.332031 Z M 5.332031 11.332031 "/>
</g>
</svg>
