<svg xmlns="http://www.w3.org/2000/svg" xmlns:xlink="http://www.w3.org/1999/xlink" width="16" height="16" viewBox="0 0 16 16" version="1.1">
<g id="surface1">
<path style=" stroke:none;fill-rule:nonzero;fill:rgb(100%,30.980393%,30.980393%);fill-opacity:1;" d="M 2.980469 2.667969 C 2.804688 2.667969 2.667969 2.804688 2.667969 2.980469 L 2.667969 7.6875 C 2.667969 7.859375 2.804688 8 2.980469 8 L 4 8 L 4 4 L 6 4 L 6 2.667969 Z M 6.667969 2.667969 L 6.667969 8 L 7.6875 8 C 7.859375 8 8 7.859375 8 7.6875 L 8 2.980469 C 8 2.804688 7.859375 2.667969 7.6875 2.667969 Z M 4.667969 4.667969 L 4.667969 8 L 6 8 L 6 4.667969 Z M 8.667969 4.667969 L 8.667969 7.6875 C 8.667969 8.21875 8.21875 8.667969 7.6875 8.667969 L 4 8.667969 L 4 11.507812 C 4 11.808594 4.230469 11.996094 4.519531 12 L 9.316406 12 L 10.355469 13.332031 L 11.390625 12 L 12.816406 12 C 13.101562 12 13.332031 11.808594 13.332031 11.507812 L 13.332031 5.207031 C 13.332031 4.910156 13.101562 4.667969 12.816406 4.667969 Z M 8.667969 4.667969 "/>
</g>
</svg>
