<svg xmlns="http://www.w3.org/2000/svg" xmlns:xlink="http://www.w3.org/1999/xlink" width="16" height="16" viewBox="0 0 16 16" version="1.1">
<g id="surface1">
<path style=" stroke:none;fill-rule:nonzero;fill:rgb(67.058825%,40.000001%,100%);fill-opacity:1;" d="M 3.332031 2.667969 C 2.964844 2.667969 2.667969 2.964844 2.667969 3.332031 L 2.667969 12.667969 C 2.667969 13.035156 2.964844 13.332031 3.332031 13.332031 L 12.667969 13.332031 C 13.035156 13.332031 13.332031 13.035156 13.332031 12.667969 L 13.332031 3.332031 C 13.332031 2.964844 13.035156 2.667969 12.667969 2.667969 L 11.332031 2.667969 L 11.332031 4.800781 C 11.332031 5.09375 11.085938 5.332031 10.777344 5.332031 L 5.222656 5.332031 C 4.914062 5.332031 4.667969 5.09375 4.667969 4.800781 L 4.667969 2.667969 Z M 5.332031 10.667969 L 7.332031 10.667969 C 7.703125 10.667969 8 10.964844 8 11.332031 L 8 12.667969 L 7.332031 12.667969 L 7.332031 11.332031 L 6.667969 11.332031 L 6.667969 12.667969 L 6 12.667969 L 6 11.332031 L 5.332031 11.332031 L 5.332031 12.667969 L 4.667969 12.667969 L 4.667969 11.332031 C 4.667969 10.964844 4.964844 10.667969 5.332031 10.667969 Z M 10.667969 10.667969 L 12 10.667969 C 12.371094 10.667969 12.667969 10.964844 12.667969 11.332031 L 12.667969 12 C 12.667969 12.371094 12.371094 12.667969 12 12.667969 L 10.667969 12.667969 C 10.296875 12.667969 10 12.371094 10 12 L 10 11.332031 C 10 10.964844 10.296875 10.667969 10.667969 10.667969 Z M 9 11.332031 C 9.183594 11.332031 9.332031 11.480469 9.332031 11.667969 C 9.332031 11.851562 9.183594 12 9 12 C 8.816406 12 8.667969 11.851562 8.667969 11.667969 C 8.667969 11.480469 8.816406 11.332031 9 11.332031 Z M 10.667969 11.332031 L 10.667969 12 L 12 12 L 12 11.332031 Z M 10.667969 11.332031 "/>
<path style=" stroke:none;fill-rule:nonzero;fill:rgb(25.882354%,52.156866%,95.686275%);fill-opacity:1;" d="M 5.332031 3.332031 L 5.332031 4 L 7.332031 4 L 7.332031 3.332031 Z M 8.667969 3.332031 L 8.667969 4 L 10.667969 4 L 10.667969 3.332031 Z M 8.667969 3.332031 "/>
</g>
</svg>
