<svg xmlns="http://www.w3.org/2000/svg" xmlns:xlink="http://www.w3.org/1999/xlink" width="16" height="16" viewBox="0 0 16 16" version="1.1">
<g id="surface1">
<path style=" stroke:none;fill-rule:nonzero;fill:rgb(0%,100%,66.666669%);fill-opacity:1;" d="M 3.667969 2.667969 C 3.480469 2.667969 3.332031 2.816406 3.332031 3 L 3.332031 3.332031 L 2 3.332031 L 2 13 C 2 13.1875 2.148438 13.335938 2.332031 13.335938 L 6.332031 13.335938 C 6.519531 13.335938 6.667969 13.1875 6.667969 13 L 6.667969 3.335938 L 5.332031 3.335938 L 5.332031 3.003906 C 5.332031 2.816406 5.183594 2.667969 5 2.667969 Z M 3.667969 2.667969 "/>
<path style=" stroke:none;fill-rule:nonzero;fill:rgb(0%,100%,66.666669%);fill-opacity:1;" d="M 11.332031 2.667969 C 9.488281 2.667969 8 4.449219 8 6.667969 L 11.332031 6.667969 Z M 12 2.667969 L 12 6.667969 L 15.332031 6.667969 C 15.332031 4.449219 13.847656 2.667969 12 2.667969 Z M 8 7.332031 L 8 9.332031 C 8 11.550781 9.488281 13.332031 11.332031 13.332031 L 12 13.332031 C 13.847656 13.332031 15.332031 11.550781 15.332031 9.332031 L 15.332031 7.332031 Z M 8 7.332031 "/>
</g>
</svg>
