<svg xmlns="http://www.w3.org/2000/svg" xmlns:xlink="http://www.w3.org/1999/xlink" width="16" height="16" viewBox="0 0 16 16" version="1.1">
<defs>
<filter id="alpha" filterUnits="objectBoundingBox" x="0%" y="0%" width="100%" height="100%">
  <feColorMatrix type="matrix" in="SourceGraphic" values="0 0 0 0 1 0 0 0 0 1 0 0 0 0 1 0 0 0 1 0"/>
</filter>
<mask id="mask0">
  <g filter="url(#alpha)">
<rect x="0" y="0" width="16" height="16" style="fill:rgb(0%,0%,0%);fill-opacity:0.35;stroke:none;"/>
  </g>
</mask>
<clipPath id="clip1">
  <rect x="0" y="0" width="16" height="16"/>
</clipPath>
<g id="surface5" clip-path="url(#clip1)">
<path style=" stroke:none;fill-rule:nonzero;fill:rgb(100%,32.156864%,32.156864%);fill-opacity:1;" d="M 3.667969 2.667969 C 3.480469 2.667969 3.332031 2.816406 3.332031 3 L 3.332031 3.332031 L 2 3.332031 L 2 13 C 2 13.183594 2.148438 13.332031 2.332031 13.332031 L 6.332031 13.332031 C 6.519531 13.332031 6.667969 13.183594 6.667969 13 L 6.667969 3.332031 L 5.332031 3.332031 L 5.332031 3 C 5.332031 2.816406 5.183594 2.667969 5 2.667969 Z M 3.667969 2.667969 "/>
</g>
</defs>
<g id="surface1">
<use xlink:href="#surface5" mask="url(#mask0)"/>
<path style=" stroke:none;fill-rule:nonzero;fill:rgb(0%,80.000001%,100%);fill-opacity:1;" d="M 11.332031 2.667969 C 9.488281 2.667969 8 4.449219 8 6.667969 L 11.332031 6.667969 Z M 12 2.667969 L 12 6.667969 L 15.332031 6.667969 C 15.332031 4.449219 13.847656 2.667969 12 2.667969 Z M 8 7.332031 L 8 9.332031 C 8 11.550781 9.488281 13.332031 11.332031 13.332031 L 12 13.332031 C 13.847656 13.332031 15.332031 11.550781 15.332031 9.332031 L 15.332031 7.332031 Z M 8 7.332031 "/>
</g>
</svg>
