<svg xmlns="http://www.w3.org/2000/svg" xmlns:xlink="http://www.w3.org/1999/xlink" width="16" height="16" viewBox="0 0 16 16" version="1.1">
<g id="surface1">
<path style=" stroke:none;fill-rule:nonzero;fill:rgb(0%,80.000001%,100%);fill-opacity:1;" d="M 6.445312 2.667969 C 4.71875 2.667969 3.332031 4.066406 3.332031 5.808594 L 3.332031 7.523438 C 3.332031 7.527344 3.335938 7.527344 3.335938 7.53125 C 3.335938 8.679688 3.445312 11.238281 4.347656 12.269531 C 5.164062 13.199219 7.066406 13.332031 7.835938 13.332031 C 9.199219 13.332031 10 12.796875 10 12.796875 L 10 11.667969 C 10 11.667969 8.984375 12.015625 8.011719 12 C 7.3125 11.980469 6.214844 11.707031 6.066406 10.933594 C 6.046875 10.835938 6.039062 10.726562 6.023438 10.625 C 6.164062 10.644531 6.300781 10.667969 6.445312 10.667969 L 9.554688 10.667969 C 11.28125 10.667969 12.667969 9.265625 12.667969 7.523438 L 12.667969 5.808594 C 12.667969 4.066406 11.28125 2.667969 9.554688 2.667969 Z M 6 5.332031 C 6.367188 5.332031 6.667969 5.632812 6.667969 6 C 6.667969 6.367188 6.367188 6.667969 6 6.667969 C 5.632812 6.667969 5.332031 6.367188 5.332031 6 C 5.332031 5.632812 5.632812 5.332031 6 5.332031 Z M 6 5.332031 "/>
</g>
</svg>
