<svg xmlns="http://www.w3.org/2000/svg" xmlns:xlink="http://www.w3.org/1999/xlink" width="16" height="16" viewBox="0 0 16 16" version="1.1">
<g id="surface1">
<path style=" stroke:none;fill-rule:nonzero;fill:rgb(100%,74.901962%,0%);fill-opacity:1;" d="M 6.667969 2.667969 C 3.722656 2.667969 1.332031 5.054688 1.332031 8 C 1.332031 10.945312 3.722656 13.332031 6.667969 13.332031 C 7.800781 13.332031 8.90625 12.96875 9.820312 12.292969 L 10.472656 11.644531 L 9.527344 10.699219 C 9.269531 10.441406 9.269531 10.019531 9.527344 9.757812 L 10.472656 8.816406 C 10.59375 8.691406 10.757812 8.621094 10.933594 8.621094 C 11.113281 8.617188 11.285156 8.6875 11.414062 8.816406 L 11.847656 9.246094 C 11.945312 8.839844 12 8.421875 12 8 C 12 5.054688 9.613281 2.667969 6.667969 2.667969 Z M 5.332031 4.667969 C 5.734375 4.667969 6.175781 4.710938 6.550781 4.832031 C 6.742188 4.894531 6.917969 4.976562 7.066406 5.105469 C 7.125 5.160156 7.128906 5.257812 7.175781 5.332031 L 7.667969 5.332031 C 7.851562 5.332031 8 5.484375 8 5.667969 L 8 6 C 8.132812 6.003906 8.210938 6.007812 8.800781 6 C 9.050781 5.996094 9.203125 6 9.390625 6 C 9.53125 5.601562 9.910156 5.332031 10.332031 5.332031 C 10.886719 5.332031 11.332031 5.78125 11.332031 6.332031 C 11.332031 6.886719 10.886719 7.332031 10.332031 7.332031 C 10.296875 7.332031 10.261719 7.332031 10.226562 7.328125 C 9.761719 7.902344 9.132812 8.363281 8.664062 8.8125 L 8.667969 8.992188 C 8.667969 9.082031 8.632812 9.171875 8.570312 9.234375 C 8.507812 9.300781 8.421875 9.335938 8.328125 9.335938 C 8.03125 9.332031 7.996094 9.394531 8.007812 9.375 C 8.015625 9.359375 7.996094 9.433594 8.058594 9.605469 C 8.121094 9.773438 8.242188 9.996094 8.359375 10.222656 C 8.480469 10.449219 8.601562 10.675781 8.65625 10.925781 C 8.679688 11.023438 8.65625 11.128906 8.59375 11.207031 C 8.53125 11.285156 8.433594 11.332031 8.332031 11.332031 L 6.332031 11.332031 C 5.449219 11.328125 3.667969 11.332031 3.667969 11.332031 C 3.539062 11.332031 3.425781 11.261719 3.367188 11.148438 C 3.3125 11.035156 3.324219 10.898438 3.402344 10.796875 C 3.585938 10.558594 3.757812 10.101562 3.878906 9.628906 C 3.96875 9.285156 4.027344 8.953125 4.078125 8.652344 C 4.027344 8.644531 3.980469 8.628906 3.933594 8.605469 C 3.824219 8.546875 3.707031 8.375 3.714844 8.230469 C 3.71875 8.128906 3.730469 8.136719 3.734375 8.121094 L 3.738281 8.097656 C 3.460938 7.707031 3.332031 7.1875 3.332031 6.730469 C 3.332031 6.144531 3.609375 5.628906 3.988281 5.265625 C 4.363281 4.902344 4.84375 4.667969 5.335938 4.667969 Z M 5.332031 5.332031 C 5.070312 5.332031 4.71875 5.484375 4.449219 5.746094 C 4.179688 6.003906 4 6.355469 4 6.730469 C 4 7.0625 4.152344 7.5625 4.308594 7.757812 C 4.332031 7.785156 4.347656 7.816406 4.363281 7.847656 C 4.378906 7.894531 4.367188 7.925781 4.375 7.96875 C 4.464844 7.953125 4.554688 7.945312 4.746094 7.886719 C 4.972656 7.796875 5.175781 7.695312 5.363281 7.589844 C 5.425781 7.554688 5.488281 7.511719 5.554688 7.472656 C 5.691406 7.390625 5.820312 7.296875 5.945312 7.199219 C 6.15625 7.003906 6.335938 6.765625 6.519531 6.535156 C 6.585938 6.425781 6.644531 6.320312 6.691406 6.203125 C 6.746094 6.078125 6.867188 6 7 6 C 6.816406 6 6.667969 5.851562 6.667969 5.667969 C 6.667969 5.648438 6.671875 5.648438 6.625 5.605469 C 6.539062 5.542969 6.445312 5.496094 6.34375 5.46875 C 6.078125 5.378906 5.683594 5.335938 5.332031 5.335938 Z M 7.722656 6.667969 C 7.703125 6.671875 7.683594 6.671875 7.664062 6.671875 L 7.324219 6.667969 C 7.265625 6.703125 7.191406 6.761719 7.101562 6.875 C 6.890625 7.125 6.632812 7.546875 6.183594 7.867188 C 5.859375 8.101562 5.507812 8.289062 5.136719 8.4375 C 5.082031 8.460938 5.039062 8.488281 4.984375 8.511719 C 4.976562 8.511719 4.972656 8.515625 4.964844 8.515625 C 4.921875 8.53125 4.890625 8.535156 4.847656 8.546875 C 4.828125 8.554688 4.777344 8.578125 4.761719 8.582031 C 4.707031 8.921875 4.640625 9.34375 4.527344 9.792969 C 4.445312 10.109375 4.289062 10.378906 4.15625 10.664062 C 4.617188 10.664062 5.609375 10.660156 6.335938 10.664062 L 7.828125 10.664062 C 7.804688 10.613281 7.800781 10.585938 7.769531 10.53125 C 7.65625 10.3125 7.523438 10.078125 7.433594 9.835938 C 7.34375 9.59375 7.269531 9.308594 7.4375 9.03125 C 7.539062 8.859375 7.789062 8.855469 7.996094 8.804688 L 7.992188 8.675781 C 7.992188 8.582031 8.027344 8.496094 8.089844 8.429688 C 8.597656 7.921875 9.167969 7.445312 9.570312 6.980469 C 9.492188 6.886719 9.433594 6.78125 9.390625 6.664062 C 9.207031 6.664062 9.046875 6.664062 8.808594 6.664062 C 8.023438 6.675781 7.757812 6.667969 7.722656 6.664062 Z M 10.941406 9.285156 L 10 10.230469 L 11.414062 11.644531 L 10 13.058594 L 10.941406 14 L 12.355469 12.585938 L 13.769531 14 L 14.714844 13.058594 L 13.300781 11.644531 L 14.714844 10.230469 L 13.769531 9.285156 L 12.355469 10.699219 Z M 10.941406 9.285156 "/>
</g>
</svg>
