<svg xmlns="http://www.w3.org/2000/svg" xmlns:xlink="http://www.w3.org/1999/xlink" width="16" height="16" viewBox="0 0 16 16" version="1.1">
<g id="surface1">
<path style=" stroke:none;fill-rule:nonzero;fill:rgb(0%,80.000001%,100%);fill-opacity:1;" d="M 8 3.332031 C 5.421875 3.332031 3.332031 5.421875 3.332031 8 L 3.332031 8.90625 C 2.90625 9.394531 2.667969 10.019531 2.667969 10.667969 C 2.667969 12.140625 3.859375 13.332031 5.332031 13.332031 L 6 13.332031 L 6 8 L 5.332031 8 C 5.109375 8 4.882812 8.03125 4.667969 8.089844 L 4.667969 8 C 4.667969 6.152344 6.152344 4.667969 8 4.667969 C 9.847656 4.667969 11.332031 6.152344 11.332031 8 L 11.332031 8.085938 C 11.117188 8.03125 10.890625 8 10.667969 8 L 10 8 L 10 12.007812 C 9.738281 11.992188 9.460938 12.054688 9.332031 11.992188 L 9.332031 11.332031 L 8 11.332031 C 7.628906 11.332031 7.332031 11.6875 7.332031 12.132812 L 7.332031 12.535156 C 7.332031 12.976562 7.628906 13.332031 8 13.332031 L 10.667969 13.332031 C 12.140625 13.332031 13.332031 12.140625 13.332031 10.667969 C 13.332031 10.019531 13.09375 9.394531 12.667969 8.90625 L 12.667969 8 C 12.667969 5.421875 10.578125 3.332031 8 3.332031 Z M 8 3.332031 "/>
</g>
</svg>
