<svg xmlns="http://www.w3.org/2000/svg" xmlns:xlink="http://www.w3.org/1999/xlink" width="16" height="16" viewBox="0 0 16 16" version="1.1">
<defs>
<filter id="alpha" filterUnits="objectBoundingBox" x="0%" y="0%" width="100%" height="100%">
  <feColorMatrix type="matrix" in="SourceGraphic" values="0 0 0 0 1 0 0 0 0 1 0 0 0 0 1 0 0 0 1 0"/>
</filter>
<mask id="mask0">
  <g filter="url(#alpha)">
<rect x="0" y="0" width="16" height="16" style="fill:rgb(0%,0%,0%);fill-opacity:0.3;stroke:none;"/>
  </g>
</mask>
<clipPath id="clip1">
  <rect x="0" y="0" width="16" height="16"/>
</clipPath>
<g id="surface5" clip-path="url(#clip1)">
<path style=" stroke:none;fill-rule:nonzero;fill:rgb(0%,100%,66.666669%);fill-opacity:1;" d="M 11.222656 2.667969 L 7.902344 6.363281 L 9.199219 7.5 L 9.773438 8 L 6.152344 11.167969 L 5.984375 11.316406 L 7.011719 12.347656 L 10 9.019531 L 10 13.332031 L 13.332031 13.332031 L 13.332031 2.667969 Z M 7.011719 7.355469 L 4.652344 9.984375 L 5.039062 10.371094 L 5.273438 10.164062 L 7.75 8 Z M 7.011719 7.355469 "/>
</g>
</defs>
<g id="surface1">
<use xlink:href="#surface5" mask="url(#mask0)"/>
<path style=" stroke:none;fill-rule:nonzero;fill:rgb(0%,100%,66.666669%);fill-opacity:1;" d="M 8.761719 8 L 5.714844 10.667969 L 2.667969 13.332031 L 2.667969 2.667969 L 5.714844 5.332031 Z M 8.761719 8 "/>
</g>
</svg>
