<svg xmlns="http://www.w3.org/2000/svg" xmlns:xlink="http://www.w3.org/1999/xlink" width="16" height="16" viewBox="0 0 16 16" version="1.1">
<defs>
<filter id="alpha" filterUnits="objectBoundingBox" x="0%" y="0%" width="100%" height="100%">
  <feColorMatrix type="matrix" in="SourceGraphic" values="0 0 0 0 1 0 0 0 0 1 0 0 0 0 1 0 0 0 1 0"/>
</filter>
<mask id="mask0">
  <g filter="url(#alpha)">
<rect x="0" y="0" width="16" height="16" style="fill:rgb(0%,0%,0%);fill-opacity:0.3;stroke:none;"/>
  </g>
</mask>
<clipPath id="clip1">
  <rect x="0" y="0" width="16" height="16"/>
</clipPath>
<g id="surface5" clip-path="url(#clip1)">
<path style=" stroke:none;fill-rule:nonzero;fill:rgb(100%,30.980393%,30.980393%);fill-opacity:1;" d="M 13.332031 9.332031 L 9.933594 9.332031 C 9.601562 9.332031 9.332031 9.601562 9.332031 9.933594 L 9.332031 13.332031 Z M 13.332031 9.332031 "/>
</g>
</defs>
<g id="surface1">
<path style=" stroke:none;fill-rule:nonzero;fill:rgb(100%,30.980393%,30.980393%);fill-opacity:1;" d="M 3.429688 2.667969 C 3.429688 2.667969 2.667969 2.667969 2.667969 3.429688 L 2.667969 12.570312 C 2.667969 13.332031 3.429688 13.332031 3.429688 13.332031 L 8.667969 13.332031 L 8.667969 9.933594 C 8.667969 9.242188 9.242188 8.667969 9.933594 8.667969 L 13.332031 8.667969 L 13.332031 3.429688 C 13.332031 2.667969 12.570312 2.667969 12.570312 2.667969 Z M 3.429688 2.667969 "/>
<use xlink:href="#surface5" mask="url(#mask0)"/>
</g>
</svg>
