<svg xmlns="http://www.w3.org/2000/svg" xmlns:xlink="http://www.w3.org/1999/xlink" width="16" height="16" viewBox="0 0 16 16" version="1.1">
<g id="surface1">
<path style=" stroke:none;fill-rule:nonzero;fill:rgb(67.058825%,40.000001%,100%);fill-opacity:1;" d="M 4 3.332031 C 4 3.332031 2.667969 3.332031 2.667969 4.707031 L 2.667969 11.332031 C 2.667969 12.667969 4 12.667969 4 12.667969 L 12 12.667969 C 13.332031 12.667969 13.332031 11.332031 13.332031 11.332031 L 13.332031 4.667969 C 13.332031 4.667969 13.332031 3.332031 12 3.332031 Z M 4 4.667969 L 5.332031 4.667969 L 5.332031 7.332031 L 6 7.332031 L 6 4.667969 L 7.332031 4.667969 L 7.332031 11.332031 L 6 11.332031 L 6 8.667969 L 5.332031 8.667969 C 4 8.667969 4 7.332031 4 7.332031 Z M 9.332031 4.667969 L 10.667969 4.667969 C 12 4.667969 12 6 12 6 L 12 6.667969 L 10.667969 6.667969 L 10.667969 6 L 9.332031 6 L 9.332031 10 L 10.667969 10 L 10.667969 8.667969 L 10 8.667969 L 10 7.355469 L 11.332031 7.332031 L 12 7.355469 L 12 9.980469 C 12 9.980469 12 11.332031 10.667969 11.332031 L 9.332031 11.332031 C 9.332031 11.332031 8 11.332031 8 10 L 8 6 C 8 4.667969 9.332031 4.667969 9.332031 4.667969 Z M 9.332031 4.667969 "/>
</g>
</svg>
