<svg xmlns="http://www.w3.org/2000/svg" xmlns:xlink="http://www.w3.org/1999/xlink" width="16" height="16" viewBox="0 0 16 16" version="1.1">
<defs>
<filter id="alpha" filterUnits="objectBoundingBox" x="0%" y="0%" width="100%" height="100%">
  <feColorMatrix type="matrix" in="SourceGraphic" values="0 0 0 0 1 0 0 0 0 1 0 0 0 0 1 0 0 0 1 0"/>
</filter>
<mask id="mask0">
  <g filter="url(#alpha)">
<rect x="0" y="0" width="16" height="16" style="fill:rgb(0%,0%,0%);fill-opacity:0.35;stroke:none;"/>
  </g>
</mask>
<clipPath id="clip1">
  <rect x="0" y="0" width="16" height="16"/>
</clipPath>
<g id="surface5" clip-path="url(#clip1)">
<path style=" stroke:none;fill-rule:nonzero;fill:rgb(0%,80.000001%,100%);fill-opacity:1;" d="M 12.667969 3.339844 L 10 6.007812 L 12.667969 6.007812 Z M 6 10.007812 L 3.332031 12.671875 L 12.667969 12.671875 L 12.667969 10.007812 Z M 6 10.007812 "/>
</g>
</defs>
<g id="surface1">
<use xlink:href="#surface5" mask="url(#mask0)"/>
<path style=" stroke:none;fill-rule:nonzero;fill:rgb(0%,80.000001%,100%);fill-opacity:1;" d="M 4.667969 6.671875 C 3.929688 6.671875 3.332031 7.269531 3.332031 8.007812 C 3.332031 8.746094 3.929688 9.339844 4.667969 9.339844 C 5.40625 9.339844 6 8.746094 6 8.007812 C 6 7.269531 5.40625 6.671875 4.667969 6.671875 Z M 8 6.671875 C 7.261719 6.671875 6.667969 7.269531 6.667969 8.007812 C 6.667969 8.746094 7.261719 9.339844 8 9.339844 C 8.738281 9.339844 9.332031 8.746094 9.332031 8.007812 C 9.332031 7.269531 8.738281 6.671875 8 6.671875 Z M 11.332031 6.671875 C 10.59375 6.671875 10 7.269531 10 8.007812 C 10 8.746094 10.59375 9.339844 11.332031 9.339844 C 12.070312 9.339844 12.667969 8.746094 12.667969 8.007812 C 12.667969 7.269531 12.070312 6.671875 11.332031 6.671875 Z M 11.332031 6.671875 "/>
</g>
</svg>
