<svg xmlns="http://www.w3.org/2000/svg" xmlns:xlink="http://www.w3.org/1999/xlink" width="16" height="16" viewBox="0 0 16 16" version="1.1">
<defs>
<filter id="alpha" filterUnits="objectBoundingBox" x="0%" y="0%" width="100%" height="100%">
  <feColorMatrix type="matrix" in="SourceGraphic" values="0 0 0 0 1 0 0 0 0 1 0 0 0 0 1 0 0 0 1 0"/>
</filter>
<mask id="mask0">
  <g filter="url(#alpha)">
<rect x="0" y="0" width="16" height="16" style="fill:rgb(0%,0%,0%);fill-opacity:0.35;stroke:none;"/>
  </g>
</mask>
<clipPath id="clip1">
  <rect x="0" y="0" width="16" height="16"/>
</clipPath>
<g id="surface5" clip-path="url(#clip1)">
<path style=" stroke:none;fill-rule:nonzero;fill:rgb(67.058825%,40.000001%,100%);fill-opacity:1;" d="M 12.667969 3.339844 L 3.332031 12.671875 L 8.667969 12.671875 L 8.667969 10.003906 L 9.34375 10.003906 C 9.355469 8.914062 10.238281 8.003906 11.332031 8.003906 C 11.847656 8.003906 12.3125 8.210938 12.667969 8.539062 Z M 12.667969 3.339844 "/>
</g>
</defs>
<g id="surface1">
<use xlink:href="#surface5" mask="url(#mask0)"/>
<path style=" stroke:none;fill-rule:nonzero;fill:rgb(67.058825%,40.000001%,100%);fill-opacity:1;" d="M 11.332031 8.667969 C 10.59375 8.667969 10 9.273438 10 10.019531 L 10 10.667969 L 9.332031 10.667969 L 9.332031 13.332031 L 13.332031 13.332031 L 13.332031 10.667969 L 12.667969 10.667969 L 12.667969 10.019531 C 12.667969 9.273438 12.070312 8.667969 11.332031 8.667969 Z M 11.332031 9.332031 C 11.703125 9.332031 12 9.628906 12 10 L 12 10.667969 L 10.667969 10.667969 L 10.667969 10 C 10.667969 9.628906 10.964844 9.332031 11.332031 9.332031 Z M 11.332031 9.332031 "/>
</g>
</svg>
