<svg xmlns="http://www.w3.org/2000/svg" xmlns:xlink="http://www.w3.org/1999/xlink" width="16" height="16" viewBox="0 0 16 16" version="1.1">
<defs>
<filter id="alpha" filterUnits="objectBoundingBox" x="0%" y="0%" width="100%" height="100%">
  <feColorMatrix type="matrix" in="SourceGraphic" values="0 0 0 0 1 0 0 0 0 1 0 0 0 0 1 0 0 0 1 0"/>
</filter>
<mask id="mask0">
  <g filter="url(#alpha)">
<rect x="0" y="0" width="16" height="16" style="fill:rgb(0%,0%,0%);fill-opacity:0.35;stroke:none;"/>
  </g>
</mask>
<clipPath id="clip1">
  <rect x="0" y="0" width="16" height="16"/>
</clipPath>
<g id="surface5" clip-path="url(#clip1)">
<path style=" stroke:none;fill-rule:nonzero;fill:rgb(0%,80.000001%,100%);fill-opacity:1;" d="M 5.667969 5.332031 C 4.957031 5.332031 4.316406 5.589844 3.800781 6 L 7.535156 6 C 7.015625 5.582031 6.363281 5.335938 5.667969 5.332031 Z M 3.175781 10 C 3.710938 10.804688 4.625 11.332031 5.667969 11.332031 C 6.679688 11.332031 7.601562 10.816406 8.148438 10 Z M 10.667969 10 L 10.667969 10.664062 L 12.667969 10.664062 L 12.667969 10 Z M 10.667969 10 "/>
</g>
</defs>
<g id="surface1">
<use xlink:href="#surface5" mask="url(#mask0)"/>
<path style=" stroke:none;fill-rule:nonzero;fill:rgb(0%,80.000001%,100%);fill-opacity:1;" d="M 4.667969 6.667969 C 3.929688 6.667969 3.332031 7.261719 3.332031 8 C 3.332031 8.738281 3.929688 9.332031 4.667969 9.332031 C 5.40625 9.332031 6 8.738281 6 8 C 6 7.261719 5.40625 6.667969 4.667969 6.667969 Z M 8 6.667969 C 7.261719 6.667969 6.667969 7.261719 6.667969 8 C 6.667969 8.738281 7.261719 9.332031 8 9.332031 C 8.738281 9.332031 9.332031 8.738281 9.332031 8 C 9.332031 7.261719 8.738281 6.667969 8 6.667969 Z M 11.332031 6.667969 C 10.59375 6.667969 10 7.261719 10 8 C 10 8.738281 10.59375 9.332031 11.332031 9.332031 C 12.070312 9.332031 12.667969 8.738281 12.667969 8 C 12.667969 7.261719 12.070312 6.667969 11.332031 6.667969 Z M 11.332031 6.667969 "/>
</g>
</svg>
