<svg xmlns="http://www.w3.org/2000/svg" xmlns:xlink="http://www.w3.org/1999/xlink" width="16" height="16" viewBox="0 0 16 16" version="1.1">
<defs>
<filter id="alpha" filterUnits="objectBoundingBox" x="0%" y="0%" width="100%" height="100%">
  <feColorMatrix type="matrix" in="SourceGraphic" values="0 0 0 0 1 0 0 0 0 1 0 0 0 0 1 0 0 0 1 0"/>
</filter>
<mask id="mask0">
  <g filter="url(#alpha)">
<rect x="0" y="0" width="16" height="16" style="fill:rgb(0%,0%,0%);fill-opacity:0.3;stroke:none;"/>
  </g>
</mask>
<clipPath id="clip1">
  <rect x="0" y="0" width="16" height="16"/>
</clipPath>
<g id="surface5" clip-path="url(#clip1)">
<path style=" stroke:none;fill-rule:nonzero;fill:rgb(100%,30.980393%,30.980393%);fill-opacity:1;" d="M 8 3.332031 C 5.964844 3.332031 4.054688 4.046875 2.667969 5.332031 L 8 12.667969 L 9.347656 10.816406 C 9.339844 10.765625 9.332031 10.714844 9.332031 10.667969 L 9.332031 9.332031 L 10.425781 9.332031 L 13.332031 5.332031 C 11.945312 4.046875 10.035156 3.332031 8 3.332031 Z M 8 3.332031 "/>
</g>
</defs>
<g id="surface1">
<path style=" stroke:none;fill-rule:nonzero;fill:rgb(100%,30.980393%,30.980393%);fill-opacity:1;" d="M 10 10 L 10 10.667969 C 10 10.851562 10.066406 11.027344 10.1875 11.148438 L 10.707031 11.667969 L 10.1875 12.1875 C 10.066406 12.3125 10 12.488281 10 12.667969 L 10 13.332031 L 10.667969 13.332031 C 10.851562 13.332031 11.027344 13.265625 11.148438 13.148438 L 11.667969 12.625 L 12.1875 13.148438 C 12.308594 13.265625 12.488281 13.332031 12.667969 13.332031 L 13.332031 13.332031 L 13.332031 12.667969 C 13.332031 12.488281 13.265625 12.3125 13.148438 12.1875 L 12.625 11.667969 L 13.148438 11.148438 C 13.265625 11.027344 13.332031 10.851562 13.332031 10.667969 L 13.332031 10 L 12.667969 10 C 12.488281 10 12.308594 10.066406 12.1875 10.1875 L 11.667969 10.714844 L 11.148438 10.1875 C 11.027344 10.066406 10.851562 10 10.667969 10 Z M 10 10 "/>
<use xlink:href="#surface5" mask="url(#mask0)"/>
</g>
</svg>
