<svg xmlns="http://www.w3.org/2000/svg" xmlns:xlink="http://www.w3.org/1999/xlink" width="16" height="16" viewBox="0 0 16 16" version="1.1">
<defs>
<filter id="alpha" filterUnits="objectBoundingBox" x="0%" y="0%" width="100%" height="100%">
  <feColorMatrix type="matrix" in="SourceGraphic" values="0 0 0 0 1 0 0 0 0 1 0 0 0 0 1 0 0 0 1 0"/>
</filter>
<mask id="mask0">
  <g filter="url(#alpha)">
<rect x="0" y="0" width="16" height="16" style="fill:rgb(0%,0%,0%);fill-opacity:0.3;stroke:none;"/>
  </g>
</mask>
<clipPath id="clip1">
  <rect x="0" y="0" width="16" height="16"/>
</clipPath>
<g id="surface5" clip-path="url(#clip1)">
<path style=" stroke:none;fill-rule:nonzero;fill:rgb(0%,80.000001%,100%);fill-opacity:1;" d="M 8 3.332031 C 5.964844 3.332031 4.054688 4.046875 2.667969 5.332031 L 3.152344 6 L 12.847656 6 L 13.332031 5.332031 C 11.945312 4.046875 10.035156 3.332031 8 3.332031 Z M 6.0625 10 L 8 12.667969 L 9.9375 10 Z M 6.0625 10 "/>
</g>
</defs>
<g id="surface1">
<path style=" stroke:none;fill-rule:nonzero;fill:rgb(0%,80.000001%,100%);fill-opacity:1;" d="M 6 8 C 6 8.738281 5.402344 9.332031 4.667969 9.332031 C 3.929688 9.332031 3.332031 8.738281 3.332031 8 C 3.332031 7.261719 3.929688 6.667969 4.667969 6.667969 C 5.402344 6.667969 6 7.261719 6 8 Z M 6 8 "/>
<path style=" stroke:none;fill-rule:nonzero;fill:rgb(0%,80.000001%,100%);fill-opacity:1;" d="M 9.332031 8 C 9.332031 8.738281 8.738281 9.332031 8 9.332031 C 7.261719 9.332031 6.667969 8.738281 6.667969 8 C 6.667969 7.261719 7.261719 6.667969 8 6.667969 C 8.738281 6.667969 9.332031 7.261719 9.332031 8 Z M 9.332031 8 "/>
<path style=" stroke:none;fill-rule:nonzero;fill:rgb(0%,80.000001%,100%);fill-opacity:1;" d="M 12.667969 8 C 12.667969 8.738281 12.070312 9.332031 11.332031 9.332031 C 10.597656 9.332031 10 8.738281 10 8 C 10 7.261719 10.597656 6.667969 11.332031 6.667969 C 12.070312 6.667969 12.667969 7.261719 12.667969 8 Z M 12.667969 8 "/>
<use xlink:href="#surface5" mask="url(#mask0)"/>
</g>
</svg>
