<svg xmlns="http://www.w3.org/2000/svg" xmlns:xlink="http://www.w3.org/1999/xlink" width="16" height="16" viewBox="0 0 16 16" version="1.1">
<defs>
<filter id="alpha" filterUnits="objectBoundingBox" x="0%" y="0%" width="100%" height="100%">
  <feColorMatrix type="matrix" in="SourceGraphic" values="0 0 0 0 1 0 0 0 0 1 0 0 0 0 1 0 0 0 1 0"/>
</filter>
<mask id="mask0">
  <g filter="url(#alpha)">
<rect x="0" y="0" width="16" height="16" style="fill:rgb(0%,0%,0%);fill-opacity:0.3;stroke:none;"/>
  </g>
</mask>
<clipPath id="clip1">
  <rect x="0" y="0" width="16" height="16"/>
</clipPath>
<g id="surface5" clip-path="url(#clip1)">
<path style=" stroke:none;fill-rule:nonzero;fill:rgb(0%,80.000001%,100%);fill-opacity:1;" d="M 8 3.332031 C 5.964844 3.332031 4.054688 4.046875 2.667969 5.332031 L 8 12.667969 L 8.667969 11.75 L 8.667969 10 L 9.34375 10 C 9.355469 8.910156 10.238281 8 11.332031 8 C 11.351562 8 11.371094 8.007812 11.390625 8.007812 L 13.332031 5.332031 C 11.945312 4.046875 10.035156 3.332031 8 3.332031 Z M 8 3.332031 "/>
</g>
</defs>
<g id="surface1">
<path style=" stroke:none;fill-rule:nonzero;fill:rgb(0%,80.000001%,100%);fill-opacity:1;" d="M 11.332031 8.667969 C 10.59375 8.667969 10 9.273438 10 10.019531 L 10 10.667969 L 9.332031 10.667969 L 9.332031 13.332031 L 13.332031 13.332031 L 13.332031 10.667969 L 12.667969 10.667969 L 12.667969 10.019531 C 12.667969 9.273438 12.070312 8.667969 11.332031 8.667969 Z M 11.332031 9.332031 C 11.703125 9.332031 12 9.628906 12 10 L 12 10.667969 L 10.667969 10.667969 L 10.667969 10 C 10.667969 9.628906 10.964844 9.332031 11.332031 9.332031 Z M 11.332031 9.332031 "/>
<use xlink:href="#surface5" mask="url(#mask0)"/>
</g>
</svg>
