<svg xmlns="http://www.w3.org/2000/svg" xmlns:xlink="http://www.w3.org/1999/xlink" width="16" height="16" viewBox="0 0 16 16" version="1.1">
<g id="surface1">
<path style=" stroke:none;fill-rule:nonzero;fill:rgb(96.862745%,0%,100%);fill-opacity:1;" d="M 8 3.332031 C 5.964844 3.332031 4.054688 4.046875 2.667969 5.332031 L 8 12.667969 L 13.332031 5.332031 C 11.945312 4.046875 10.035156 3.332031 8 3.332031 Z M 8 5.332031 C 8.738281 5.332031 9.332031 5.933594 9.332031 6.667969 C 9.332031 7.40625 8.738281 8 8 8 L 8 8.667969 L 7.332031 8.667969 L 7.332031 7.332031 L 8 7.332031 C 8.375 7.332031 8.667969 7.039062 8.667969 6.667969 C 8.667969 6.300781 8.375 6 8 6 C 7.632812 6 7.332031 6.300781 7.332031 6.667969 L 6.667969 6.667969 C 6.667969 5.933594 7.265625 5.332031 8 5.332031 Z M 7.332031 9.332031 L 8 9.332031 L 8 10 L 7.332031 10 Z M 7.332031 9.332031 "/>
</g>
</svg>
