<svg xmlns="http://www.w3.org/2000/svg" xmlns:xlink="http://www.w3.org/1999/xlink" width="16" height="16" viewBox="0 0 16 16" version="1.1">
<g id="surface1">
<path style=" stroke:none;fill-rule:nonzero;fill:rgb(96.862745%,0%,100%);fill-opacity:1;" d="M 3.332031 3.332031 C 3.332031 3.332031 2 3.332031 2 4.707031 L 2 11.332031 C 2 12.667969 3.332031 12.667969 3.332031 12.667969 L 12.667969 12.667969 C 14 12.667969 14 11.332031 14 11.332031 L 14 4.667969 C 14 4.667969 14 3.332031 12.667969 3.332031 Z M 4.667969 4.667969 L 7.332031 4.667969 L 7.332031 6 L 4.667969 6 L 4.667969 7.335938 L 6.667969 7.335938 L 6.667969 8.667969 L 4.667969 8.667969 L 4.667969 10 L 7.332031 10 L 7.332031 11.335938 L 4.667969 11.335938 C 4.667969 11.335938 3.332031 11.335938 3.332031 10 L 3.332031 6 C 3.332031 4.667969 4.667969 4.667969 4.667969 4.667969 Z M 8 4.667969 L 9.332031 4.667969 C 9.667969 6.445312 10 10 10 10 L 10.667969 10 L 11.332031 4.667969 L 12.667969 4.667969 L 12 10 C 12 10 12 11.335938 10.667969 11.335938 L 10 11.335938 C 10 11.335938 8.667969 11.335938 8.667969 10 Z M 8 4.667969 "/>
</g>
</svg>
