<svg xmlns="http://www.w3.org/2000/svg" xmlns:xlink="http://www.w3.org/1999/xlink" width="16" height="16" viewBox="0 0 16 16" version="1.1">
<g id="surface1">
<path style=" stroke:none;fill-rule:nonzero;fill:rgb(100%,30.980393%,30.980393%);fill-opacity:1;" d="M 4 4 C 4 4 3.332031 4 3.332031 4.667969 L 3.332031 10.667969 C 3.332031 11.332031 4 11.332031 4 11.332031 L 5.332031 11.332031 L 6 12 L 8.667969 12 L 8.667969 10.667969 L 6.667969 10.667969 L 6 10 L 4.667969 10 L 4.667969 5.332031 L 11.332031 5.332031 L 11.332031 8 C 11.851562 8 12.3125 8.207031 12.667969 8.535156 L 12.667969 4.667969 C 12.667969 4 12 4 12 4 Z M 4 4 "/>
<path style=" stroke:none;fill-rule:nonzero;fill:rgb(100%,30.980393%,30.980393%);fill-opacity:1;" d="M 11.332031 8.667969 C 10.59375 8.667969 10 9.273438 10 10.019531 L 10 10.667969 L 9.332031 10.667969 L 9.332031 13.332031 L 13.332031 13.332031 L 13.332031 10.667969 L 12.667969 10.667969 L 12.667969 10.019531 C 12.667969 9.273438 12.070312 8.667969 11.332031 8.667969 Z M 11.332031 9.332031 C 11.703125 9.332031 12 9.628906 12 10 L 12 10.667969 L 10.667969 10.667969 L 10.667969 10 C 10.667969 9.628906 10.964844 9.332031 11.332031 9.332031 Z M 11.332031 9.332031 "/>
</g>
</svg>
