<svg xmlns="http://www.w3.org/2000/svg" xmlns:xlink="http://www.w3.org/1999/xlink" width="16" height="16" viewBox="0 0 16 16" version="1.1">
<g id="surface1">
<path style=" stroke:none;fill-rule:nonzero;fill:rgb(96.862745%,0%,100%);fill-opacity:1;" d="M 8 2 C 7.628906 2 7.332031 2.296875 7.332031 2.667969 L 7.332031 4.0625 C 7.773438 3.984375 8.226562 3.984375 8.667969 4.058594 L 8.667969 2.667969 C 8.667969 2.296875 8.371094 2 8 2 Z M 4.230469 3.5625 C 4.058594 3.5625 3.886719 3.628906 3.757812 3.757812 C 3.632812 3.882812 3.5625 4.050781 3.5625 4.230469 C 3.5625 4.40625 3.632812 4.574219 3.757812 4.699219 L 4.742188 5.6875 C 4.871094 5.503906 5.015625 5.332031 5.171875 5.171875 C 5.332031 5.015625 5.5 4.871094 5.683594 4.742188 L 4.699219 3.757812 C 4.574219 3.632812 4.40625 3.5625 4.230469 3.5625 Z M 11.769531 3.5625 C 11.601562 3.5625 11.429688 3.628906 11.300781 3.757812 L 10.3125 4.742188 C 10.496094 4.871094 10.667969 5.015625 10.828125 5.171875 C 10.984375 5.332031 11.128906 5.5 11.257812 5.683594 L 12.242188 4.699219 C 12.367188 4.574219 12.4375 4.40625 12.4375 4.230469 C 12.4375 4.050781 12.367188 3.882812 12.242188 3.757812 C 12.117188 3.632812 11.949219 3.5625 11.769531 3.5625 Z M 7.953125 4.667969 C 7.085938 4.679688 6.257812 5.03125 5.644531 5.644531 C 4.34375 6.945312 4.34375 9.054688 5.644531 10.355469 C 6.945312 11.65625 9.054688 11.65625 10.355469 10.355469 C 11.65625 9.054688 11.65625 6.945312 10.355469 5.644531 C 9.71875 5.007812 8.851562 4.652344 7.953125 4.667969 Z M 2.667969 7.332031 C 2.296875 7.332031 2 7.628906 2 8 C 2 8.371094 2.296875 8.667969 2.667969 8.667969 L 4.0625 8.667969 C 3.984375 8.226562 3.984375 7.773438 4.058594 7.332031 Z M 11.9375 7.332031 C 12.015625 7.773438 12.015625 8.226562 11.941406 8.667969 L 13.332031 8.667969 C 13.703125 8.667969 14 8.371094 14 8 C 14 7.628906 13.703125 7.332031 13.332031 7.332031 Z M 11.257812 10.3125 C 11.128906 10.496094 10.984375 10.667969 10.828125 10.828125 C 10.667969 10.984375 10.5 11.128906 10.316406 11.257812 L 11.300781 12.242188 C 11.425781 12.367188 11.59375 12.4375 11.769531 12.4375 C 11.949219 12.4375 12.117188 12.367188 12.242188 12.242188 C 12.367188 12.117188 12.4375 11.949219 12.4375 11.769531 C 12.4375 11.59375 12.367188 11.425781 12.242188 11.300781 Z M 4.742188 10.316406 L 3.757812 11.300781 C 3.632812 11.425781 3.5625 11.59375 3.5625 11.769531 C 3.5625 11.949219 3.632812 12.117188 3.757812 12.242188 C 3.882812 12.367188 4.050781 12.4375 4.230469 12.4375 C 4.40625 12.4375 4.574219 12.367188 4.699219 12.242188 L 5.6875 11.257812 C 5.503906 11.128906 5.332031 10.984375 5.171875 10.828125 C 5.015625 10.667969 4.871094 10.5 4.742188 10.316406 Z M 8.667969 11.9375 C 8.226562 12.015625 7.773438 12.015625 7.332031 11.941406 L 7.332031 13.332031 C 7.332031 13.703125 7.628906 14 8 14 C 8.371094 14 8.667969 13.703125 8.667969 13.332031 Z M 8.667969 11.9375 "/>
</g>
</svg>
