<svg xmlns="http://www.w3.org/2000/svg" xmlns:xlink="http://www.w3.org/1999/xlink" width="16" height="16" viewBox="0 0 16 16" version="1.1">
<g id="surface1">
<path style=" stroke:none;fill-rule:nonzero;fill:rgb(67.058825%,40.000001%,100%);fill-opacity:1;" d="M 7.644531 2.667969 C 7.199219 2.691406 6.335938 2.894531 5.886719 3.625 C 5.886719 3.625 5.472656 3.488281 5.957031 2.730469 C 5.957031 2.730469 4.667969 2.667969 3.960938 3.332031 L 2.667969 3.332031 L 2.667969 10.109375 C 2.667969 10.109375 4.417969 13.988281 10.117188 13.238281 C 10.117188 13.238281 12.695312 12.847656 12.359375 10.429688 C 12.359375 10.429688 13.164062 9.515625 13.277344 8.347656 C 13.382812 7.265625 13.371094 6.753906 12.917969 5.355469 C 12.886719 5.257812 12.75 5.265625 12.730469 5.367188 C 12.570312 6.136719 12.257812 7.699219 10.914062 8.488281 C 10.914062 8.488281 11.621094 7.574219 11.238281 5.988281 C 11.222656 5.9375 11.152344 5.941406 11.148438 5.992188 C 11.089844 6.496094 10.890625 7.195312 10.203125 7.414062 C 10.203125 7.414062 9.644531 5.808594 7.78125 4.761719 C 7.78125 4.761719 7.941406 4.257812 7.988281 3.902344 C 8.03125 3.542969 7.871094 3.375 7.964844 3.210938 C 8.054688 3.042969 8.421875 2.804688 8.421875 2.804688 C 8.421875 2.804688 8.089844 2.644531 7.644531 2.667969 Z M 8.625 8 C 9.027344 7.976562 9.355469 8.308594 9.332031 8.710938 C 9.3125 9.042969 9.042969 9.3125 8.710938 9.332031 C 8.308594 9.359375 7.976562 9.027344 8 8.625 C 8.023438 8.292969 8.292969 8.023438 8.625 8 Z M 10.949219 11.335938 C 11.042969 11.339844 11.140625 11.359375 11.222656 11.40625 C 11.25 11.421875 11.347656 11.476562 11.332031 11.539062 C 11.316406 11.601562 11.214844 11.636719 11.175781 11.652344 C 11.054688 11.691406 11.007812 11.65625 10.851562 11.6875 C 10.816406 11.695312 10.699219 11.71875 10.597656 11.785156 C 10.515625 11.835938 10.535156 11.859375 10.460938 11.90625 C 10.386719 11.957031 10.230469 12.027344 10.117188 11.992188 C 10.011719 11.957031 10 11.84375 10 11.824219 C 9.988281 11.671875 10.160156 11.554688 10.234375 11.507812 C 10.3125 11.457031 10.480469 11.363281 10.734375 11.339844 C 10.777344 11.335938 10.859375 11.328125 10.949219 11.335938 Z M 10.949219 11.335938 "/>
</g>
</svg>
