<svg xmlns="http://www.w3.org/2000/svg" xmlns:xlink="http://www.w3.org/1999/xlink" width="16" height="16" viewBox="0 0 16 16" version="1.1">
<g id="surface1">
<path style=" stroke:none;fill-rule:nonzero;fill:rgb(0%,80.000001%,100%);fill-opacity:1;" d="M 4.191406 2.667969 C 3.347656 2.667969 2.667969 3.347656 2.667969 4.191406 L 2.667969 11.808594 C 2.667969 12.652344 3.347656 13.332031 4.191406 13.332031 L 11.808594 13.332031 C 12.652344 13.332031 13.332031 12.652344 13.332031 11.808594 L 13.332031 4.191406 C 13.332031 3.347656 12.652344 2.667969 11.808594 2.667969 Z M 4.667969 4.667969 L 11.332031 4.667969 L 11.332031 6 L 4.667969 6 Z M 4.667969 7.332031 L 11.332031 7.332031 L 11.332031 8.667969 L 4.667969 8.667969 Z M 4.667969 10 L 8.667969 10 L 8.667969 11.332031 L 4.667969 11.332031 Z M 4.667969 10 "/>
</g>
</svg>
