<svg xmlns="http://www.w3.org/2000/svg" xmlns:xlink="http://www.w3.org/1999/xlink" width="16" height="16" viewBox="0 0 16 16" version="1.1">
<g id="surface1">
<path style=" stroke:none;fill-rule:nonzero;fill:rgb(100%,100%,100%);fill-opacity:1;" d="M 8 2.667969 C 7.632812 2.667969 7.332031 2.964844 7.332031 3.332031 C 7.332031 3.355469 7.335938 3.378906 7.335938 3.398438 C 5.8125 3.707031 4.667969 5.046875 4.667969 6.667969 L 4.667969 9.667969 L 3.332031 11 L 3.332031 11.332031 L 12.667969 11.332031 L 12.667969 11 L 11.332031 9.667969 L 11.332031 6.667969 C 11.332031 5.046875 10.191406 3.707031 8.664062 3.398438 C 8.664062 3.378906 8.667969 3.355469 8.667969 3.332031 C 8.667969 2.964844 8.367188 2.667969 8 2.667969 Z M 6 12 C 6.238281 12.414062 6.679688 12.667969 7.152344 12.667969 C 7.628906 12.664062 8.066406 12.410156 8.304688 12 Z M 6 12 "/>
<path style=" stroke:none;fill-rule:nonzero;fill:rgb(25.882354%,52.156866%,95.686275%);fill-opacity:1;" d="M 12.667969 4 C 12.667969 4.367188 12.367188 4.667969 12 4.667969 C 11.632812 4.667969 11.332031 4.367188 11.332031 4 C 11.332031 3.632812 11.632812 3.332031 12 3.332031 C 12.367188 3.332031 12.667969 3.632812 12.667969 4 Z M 12.667969 4 "/>
</g>
</svg>
