<svg xmlns="http://www.w3.org/2000/svg" xmlns:xlink="http://www.w3.org/1999/xlink" width="16" height="16" viewBox="0 0 16 16" version="1.1">
<g id="surface1">
<path style=" stroke:none;fill-rule:nonzero;fill:rgb(100%,100%,100%);fill-opacity:1;" d="M 9.292969 2.835938 C 9.648438 2.933594 9.859375 3.296875 9.765625 3.652344 C 9.761719 3.675781 9.753906 3.695312 9.746094 3.714844 C 11.140625 4.40625 11.898438 6 11.480469 7.5625 L 10.703125 10.460938 L 11.644531 12.09375 L 11.558594 12.417969 L 10.269531 12.070312 L 3.832031 10.347656 L 2.542969 10 L 2.628906 9.679688 L 4.261719 8.734375 L 4.695312 7.125 L 5.039062 5.839844 C 5.457031 4.273438 6.910156 3.273438 8.464844 3.375 C 8.46875 3.351562 8.472656 3.328125 8.476562 3.308594 C 8.574219 2.953125 8.9375 2.742188 9.292969 2.835938 Z M 8.808594 12.371094 C 8.472656 12.707031 7.984375 12.839844 7.523438 12.714844 C 7.066406 12.589844 6.707031 12.234375 6.582031 11.773438 Z M 8.808594 12.371094 "/>
</g>
</svg>
