<svg xmlns="http://www.w3.org/2000/svg" xmlns:xlink="http://www.w3.org/1999/xlink" width="16" height="16" viewBox="0 0 16 16" version="1.1">
<g id="surface1">
<path style=" stroke:none;fill-rule:nonzero;fill:rgb(100%,100%,100%);fill-opacity:1;" d="M 10.5 3.335938 C 10.820312 3.519531 10.929688 3.929688 10.746094 4.246094 C 10.734375 4.265625 10.722656 4.285156 10.707031 4.300781 C 11.875 5.332031 12.195312 7.066406 11.386719 8.46875 L 9.886719 11.066406 L 10.375 12.886719 L 10.207031 13.175781 L 9.054688 12.507812 L 3.28125 9.175781 L 2.125 8.507812 L 2.292969 8.21875 L 4.113281 7.730469 L 4.945312 6.289062 L 5.613281 5.132812 C 6.421875 3.730469 8.085938 3.140625 9.558594 3.640625 C 9.570312 3.621094 9.578125 3.601562 9.589844 3.582031 C 9.773438 3.261719 10.179688 3.152344 10.5 3.335938 Z M 8.144531 12.753906 C 7.730469 12.992188 7.222656 12.992188 6.808594 12.753906 C 6.398438 12.515625 6.144531 12.074219 6.144531 11.601562 Z M 8.144531 12.753906 "/>
</g>
</svg>
