<svg xmlns="http://www.w3.org/2000/svg" xmlns:xlink="http://www.w3.org/1999/xlink" width="16" height="16" viewBox="0 0 16 16" version="1.1">
<g id="surface1">
<path style=" stroke:none;fill-rule:nonzero;fill:rgb(0%,80.000001%,100%);fill-opacity:1;" d="M 4.269531 3.917969 L 12.75 12.394531 L 11.8125 13.332031 L 3.332031 4.855469 Z M 4.269531 3.917969 "/>
<path style=" stroke:none;fill-rule:nonzero;fill:rgb(0%,80.000001%,100%);fill-opacity:1;" d="M 8.042969 3.292969 C 7.851562 3.292969 7.671875 3.371094 7.546875 3.511719 C 7.421875 3.652344 7.359375 3.839844 7.378906 4.023438 C 6.960938 4.113281 6.5625 4.28125 6.207031 4.519531 L 11.375 9.6875 L 11.375 7.292969 C 11.378906 5.707031 10.261719 4.335938 8.703125 4.023438 C 8.722656 3.839844 8.664062 3.652344 8.535156 3.511719 C 8.410156 3.371094 8.230469 3.292969 8.042969 3.292969 Z M 5.269531 5.457031 C 4.90625 6 4.710938 6.636719 4.707031 7.292969 L 4.707031 10.292969 L 3.375 11.625 L 3.375 11.957031 L 11.769531 11.957031 Z M 6.886719 12.625 C 7.125 13.039062 7.566406 13.292969 8.042969 13.292969 C 8.515625 13.292969 8.957031 13.039062 9.195312 12.625 Z M 6.886719 12.625 "/>
</g>
</svg>
