<svg xmlns="http://www.w3.org/2000/svg" xmlns:xlink="http://www.w3.org/1999/xlink" width="16" height="16" viewBox="0 0 16 16" version="1.1">
<g id="surface1">
<path style=" stroke:none;fill-rule:nonzero;fill:rgb(100%,100%,100%);fill-opacity:1;" d="M 8 2.667969 C 8.367188 2.667969 8.667969 2.964844 8.667969 3.332031 C 8.667969 3.355469 8.664062 3.378906 8.664062 3.398438 C 10.191406 3.707031 11.332031 5.046875 11.332031 6.667969 L 11.332031 9.667969 L 12.667969 11 L 12.667969 11.332031 L 3.332031 11.332031 L 3.332031 11 L 4.667969 9.667969 L 4.667969 6.667969 C 4.667969 5.046875 5.808594 3.707031 7.335938 3.398438 C 7.335938 3.378906 7.332031 3.355469 7.332031 3.332031 C 7.332031 2.964844 7.632812 2.667969 8 2.667969 Z M 10 12 C 9.761719 12.414062 9.324219 12.667969 8.847656 12.667969 C 8.371094 12.664062 7.933594 12.410156 7.695312 12 Z M 10 12 "/>
</g>
</svg>
