<svg xmlns="http://www.w3.org/2000/svg" xmlns:xlink="http://www.w3.org/1999/xlink" width="16" height="16" viewBox="0 0 16 16" version="1.1">
<g id="surface1">
<path style=" stroke:none;fill-rule:nonzero;fill:rgb(100%,100%,100%);fill-opacity:1;" d="M 6.707031 2.835938 C 6.351562 2.933594 6.140625 3.296875 6.234375 3.652344 C 6.242188 3.675781 6.246094 3.695312 6.253906 3.714844 C 4.859375 4.40625 4.101562 6 4.523438 7.5625 L 5.296875 10.460938 L 4.355469 12.09375 L 4.441406 12.417969 L 5.730469 12.070312 L 12.167969 10.347656 L 13.457031 10 L 13.371094 9.679688 L 11.738281 8.734375 L 11.304688 7.125 L 10.960938 5.839844 C 10.542969 4.273438 9.089844 3.273438 7.535156 3.375 C 7.53125 3.351562 7.527344 3.328125 7.523438 3.308594 C 7.425781 2.953125 7.0625 2.742188 6.707031 2.835938 Z M 7.191406 12.371094 C 7.527344 12.707031 8.015625 12.839844 8.476562 12.714844 C 8.9375 12.589844 9.292969 12.234375 9.417969 11.773438 Z M 7.191406 12.371094 "/>
</g>
</svg>
