<svg xmlns="http://www.w3.org/2000/svg" xmlns:xlink="http://www.w3.org/1999/xlink" width="16" height="16" viewBox="0 0 16 16" version="1.1">
<g id="surface1">
<path style=" stroke:none;fill-rule:nonzero;fill:rgb(100%,100%,100%);fill-opacity:1;" d="M 9.03125 2.820312 C 8.773438 2.855469 8.550781 3.042969 8.476562 3.308594 C 8.472656 3.328125 8.46875 3.351562 8.464844 3.375 C 6.910156 3.273438 5.460938 4.273438 5.039062 5.839844 L 4.695312 7.125 L 4.261719 8.734375 L 2.628906 9.679688 L 2.542969 10 L 3.832031 10.347656 L 10.269531 12.070312 L 11.558594 12.417969 L 11.644531 12.09375 L 10.703125 10.460938 L 11.480469 7.5625 C 11.632812 6.996094 11.625 6.425781 11.492188 5.898438 C 11.011719 5.695312 10.667969 5.21875 10.667969 4.667969 C 10.667969 4.582031 10.675781 4.503906 10.691406 4.421875 C 10.425781 4.136719 10.105469 3.894531 9.746094 3.714844 C 9.753906 3.695312 9.757812 3.675781 9.765625 3.652344 C 9.859375 3.296875 9.648438 2.933594 9.292969 2.835938 C 9.207031 2.8125 9.117188 2.808594 9.03125 2.820312 Z M 6.582031 11.773438 C 6.707031 12.234375 7.066406 12.589844 7.523438 12.714844 C 7.984375 12.835938 8.476562 12.707031 8.8125 12.371094 Z M 6.582031 11.773438 "/>
<path style=" stroke:none;fill-rule:nonzero;fill:rgb(25.882354%,52.156866%,95.686275%);fill-opacity:1;" d="M 13 4.667969 C 13 5.21875 12.550781 5.667969 12 5.667969 C 11.449219 5.667969 11 5.21875 11 4.667969 C 11 4.113281 11.449219 3.667969 12 3.667969 C 12.550781 3.667969 13 4.113281 13 4.667969 Z M 13 4.667969 "/>
</g>
</svg>
