<svg xmlns="http://www.w3.org/2000/svg" xmlns:xlink="http://www.w3.org/1999/xlink" width="16" height="16" viewBox="0 0 16 16" version="1.1">
<g id="surface1">
<path style=" stroke:none;fill-rule:nonzero;fill:rgb(100%,100%,100%);fill-opacity:1;" d="M 11.535156 4.132812 C 11.796875 4.390625 11.796875 4.8125 11.535156 5.074219 C 11.519531 5.089844 11.503906 5.105469 11.484375 5.117188 C 12.347656 6.414062 12.210938 8.171875 11.0625 9.316406 L 8.941406 11.4375 L 8.941406 13.324219 L 8.707031 13.558594 L 2.109375 6.960938 L 2.34375 6.722656 L 4.230469 6.722656 L 6.351562 4.601562 C 7.496094 3.457031 9.253906 3.316406 10.546875 4.179688 C 10.5625 4.164062 10.578125 4.148438 10.59375 4.132812 C 10.851562 3.871094 11.273438 3.871094 11.535156 4.132812 Z M 7.765625 13.558594 C 7.304688 13.683594 6.8125 13.550781 6.476562 13.214844 C 6.140625 12.878906 6.011719 12.386719 6.132812 11.929688 Z M 7.765625 13.558594 "/>
</g>
</svg>
