<svg xmlns="http://www.w3.org/2000/svg" xmlns:xlink="http://www.w3.org/1999/xlink" width="16" height="16" viewBox="0 0 16 16" version="1.1">
<g id="surface1">
<path style=" stroke:none;fill-rule:nonzero;fill:rgb(0%,80.000001%,100%);fill-opacity:1;" d="M 8 2.667969 C 5.054688 2.667969 2.667969 5.054688 2.667969 8 C 2.667969 10.941406 5.054688 13.332031 8 13.332031 C 10.945312 13.332031 13.332031 10.945312 13.332031 8 C 13.332031 7.332031 13.210938 6.691406 12.984375 6.101562 C 12.96875 6.054688 12.90625 6.042969 12.871094 6.078125 L 11.859375 6.957031 C 11.953125 7.296875 12 7.648438 12 8 C 12 10.210938 10.210938 12 8 12 C 5.789062 12 4 10.210938 4 8 C 4 5.789062 5.789062 4 8 4 C 8.492188 4 8.980469 4.09375 9.441406 4.273438 L 10.199219 3.226562 C 10.226562 3.191406 10.214844 3.144531 10.175781 3.125 C 9.445312 2.746094 8.882812 2.667969 8 2.667969 Z M 11.207031 3.332031 C 11.1875 3.335938 11.171875 3.34375 11.160156 3.359375 L 7.011719 8.566406 C 6.992188 8.589844 6.957031 8.59375 6.9375 8.570312 L 5.457031 7.160156 C 5.425781 7.128906 5.371094 7.136719 5.347656 7.171875 L 4.675781 8.214844 C 4.660156 8.242188 4.664062 8.277344 4.6875 8.296875 L 7.160156 10.648438 C 7.1875 10.675781 7.234375 10.671875 7.257812 10.644531 L 12.648438 4.851562 C 12.671875 4.832031 12.671875 4.796875 12.65625 4.773438 C 12.277344 4.226562 11.804688 3.742188 11.257812 3.347656 C 11.242188 3.335938 11.226562 3.332031 11.207031 3.332031 Z M 11.207031 3.332031 "/>
</g>
</svg>
