<svg xmlns="http://www.w3.org/2000/svg" xmlns:xlink="http://www.w3.org/1999/xlink" width="16" height="16" viewBox="0 0 16 16" version="1.1">
<defs>
<filter id="alpha" filterUnits="objectBoundingBox" x="0%" y="0%" width="100%" height="100%">
  <feColorMatrix type="matrix" in="SourceGraphic" values="0 0 0 0 1 0 0 0 0 1 0 0 0 0 1 0 0 0 1 0"/>
</filter>
<mask id="mask0">
  <g filter="url(#alpha)">
<rect x="0" y="0" width="16" height="16" style="fill:rgb(0%,0%,0%);fill-opacity:0.3;stroke:none;"/>
  </g>
</mask>
<clipPath id="clip1">
  <rect x="0" y="0" width="16" height="16"/>
</clipPath>
<g id="surface5" clip-path="url(#clip1)">
<path style=" stroke:none;fill-rule:evenodd;fill:rgb(0%,80.000001%,100%);fill-opacity:1;" d="M 4.667969 2.667969 C 3.988281 2.667969 3.417969 3.175781 3.339844 3.851562 L 2.675781 9.851562 C 2.632812 10.230469 2.753906 10.605469 3.007812 10.890625 C 3.257812 11.171875 3.621094 11.332031 4 11.332031 L 12 11.332031 C 12.378906 11.332031 12.742188 11.171875 12.992188 10.890625 C 13.246094 10.605469 13.367188 10.230469 13.324219 9.851562 L 12.660156 3.851562 C 12.582031 3.175781 12.011719 2.667969 11.332031 2.667969 Z M 8.667969 4 L 8.667969 8.667969 L 10 8.667969 L 10 10 L 6 10 L 6 8.667969 L 7.332031 8.667969 L 7.332031 5.667969 L 6 6 L 6 4.667969 Z M 8.667969 4 "/>
<path style=" stroke:none;fill-rule:nonzero;fill:rgb(0%,80.000001%,100%);fill-opacity:1;" d="M 2.667969 11.46875 L 2.667969 11.832031 C 2.667969 12.640625 3.359375 13.332031 4.167969 13.332031 L 11.832031 13.332031 C 12.640625 13.332031 13.332031 12.640625 13.332031 11.832031 L 13.332031 11.46875 C 12.976562 11.792969 12.515625 12 12 12 L 4 12 C 3.484375 12 3.019531 11.792969 2.667969 11.46875 Z M 2.667969 11.46875 "/>
</g>
</defs>
<g id="surface1">
<use xlink:href="#surface5" mask="url(#mask0)"/>
</g>
</svg>
