<svg xmlns="http://www.w3.org/2000/svg" xmlns:xlink="http://www.w3.org/1999/xlink" width="16" height="16" viewBox="0 0 16 16" version="1.1">
<g id="surface1">
<path style=" stroke:none;fill-rule:nonzero;fill:rgb(100%,30.980393%,30.980393%);fill-opacity:1;" d="M 7.613281 3.332031 C 7.210938 3.332031 6.816406 3.386719 6.453125 3.492188 C 5.898438 3.714844 5.441406 3.914062 5.960938 4.1875 C 6.945312 4.703125 7.871094 5.402344 8.671875 6.292969 C 9.949219 7.703125 10.742188 9.398438 11.105469 11.066406 C 11.207031 11.644531 11.707031 11.132812 11.910156 10.921875 C 13.03125 9.757812 12.976562 6.898438 11.261719 5.003906 C 10.257812 3.890625 8.878906 3.339844 7.613281 3.332031 Z M 12.550781 3.335938 C 12.414062 3.324219 12.265625 3.347656 12.109375 3.382812 C 11.777344 3.480469 11.457031 3.722656 11.148438 3.980469 C 11.359375 4.15625 11.566406 4.34375 11.757812 4.554688 C 11.832031 4.636719 11.898438 4.722656 11.964844 4.808594 C 12.046875 4.769531 12.132812 4.734375 12.234375 4.710938 C 12.472656 4.660156 12.878906 4.8125 13.070312 4.878906 C 13.320312 4.886719 13.367188 4.507812 13.3125 4.242188 C 13.246094 3.929688 13.042969 3.707031 12.914062 3.5 C 12.808594 3.398438 12.683594 3.351562 12.550781 3.335938 Z M 5.5 4.683594 C 5.46875 4.703125 5.441406 4.722656 5.414062 4.742188 C 3.207031 6.417969 1.96875 10.121094 3.082031 11.429688 C 4.378906 12.957031 7.859375 13.082031 9.984375 11.742188 C 10.167969 11.628906 10.335938 11.503906 10.496094 11.371094 C 10.472656 11.304688 10.457031 11.242188 10.449219 11.183594 L 10.453125 11.207031 C 10.113281 9.644531 9.367188 8.058594 8.179688 6.738281 C 7.429688 5.910156 6.566406 5.257812 5.652344 4.78125 L 5.648438 4.777344 C 5.601562 4.753906 5.550781 4.714844 5.5 4.683594 Z M 5.5 4.683594 "/>
</g>
</svg>
