<svg xmlns="http://www.w3.org/2000/svg" xmlns:xlink="http://www.w3.org/1999/xlink" width="16" height="16" viewBox="0 0 16 16" version="1.1">
<g id="surface1">
<path style=" stroke:none;fill-rule:evenodd;fill:rgb(67.058825%,40.000001%,100%);fill-opacity:1;" d="M 8.667969 2.332031 L 8.667969 4.332031 L 13.332031 7 L 13.332031 5 Z M 3.332031 2.816406 C 2.964844 2.816406 2.667969 3.113281 2.667969 3.480469 L 2.667969 4.332031 L 7.332031 7 L 7.332031 5 C 6.113281 4.300781 4.882812 3.597656 3.664062 2.902344 C 3.5625 2.84375 3.449219 2.816406 3.332031 2.816406 Z M 2.667969 5.667969 L 2.667969 7.667969 L 7.332031 10.332031 L 7.332031 8.332031 Z M 8.667969 5.667969 L 8.667969 7.667969 L 13.332031 10.332031 L 13.332031 8.332031 Z M 2.667969 9 L 2.667969 11 L 7.332031 13.667969 L 7.332031 11.667969 Z M 2.667969 9 "/>
<path style=" stroke:none;fill-rule:evenodd;fill:rgb(25.882354%,52.156866%,95.686275%);fill-opacity:1;" d="M 8.667969 9 L 8.667969 11 C 9.886719 11.699219 11.117188 12.402344 12.335938 13.097656 C 12.4375 13.15625 12.550781 13.183594 12.667969 13.183594 C 13.035156 13.183594 13.332031 12.886719 13.332031 12.519531 L 13.332031 11.667969 Z M 8.667969 9 "/>
</g>
</svg>
