<svg xmlns="http://www.w3.org/2000/svg" xmlns:xlink="http://www.w3.org/1999/xlink" width="16" height="16" viewBox="0 0 16 16" version="1.1">
<g id="surface1">
<path style=" stroke:none;fill-rule:nonzero;fill:rgb(100%,74.901962%,0%);fill-opacity:1;" d="M 4 6.667969 L 4 11.332031 C 4 12.667969 4 13.332031 5 13.332031 C 6 13.332031 6 12.667969 6 11.332031 C 6 12.667969 6 13.332031 7 13.332031 C 8 13.332031 8 12.667969 8 11.332031 C 8 12.667969 8 13.332031 9 13.332031 C 10 13.332031 10 12.667969 10 11.332031 C 10 12.667969 10 13.332031 11 13.332031 C 12 13.332031 12 12.667969 12 11.332031 L 12 6.667969 C 12 4.667969 11.332031 2.667969 8 2.667969 C 4.667969 2.667969 4 4.667969 4 6.667969 Z M 6.332031 6 C 6.886719 6 7.332031 6.445312 7.332031 7 C 7.332031 7.554688 6.886719 8 6.332031 8 C 5.78125 8 5.332031 7.554688 5.332031 7 C 5.332031 6.445312 5.78125 6 6.332031 6 Z M 10.332031 6 C 10.886719 6 11.332031 6.445312 11.332031 7 C 11.332031 7.554688 10.886719 8 10.332031 8 C 9.78125 8 9.332031 7.554688 9.332031 7 C 9.332031 6.445312 9.78125 6 10.332031 6 Z M 10.332031 6 "/>
<path style=" stroke:none;fill-rule:nonzero;fill:rgb(25.882354%,52.156866%,95.686275%);fill-opacity:1;" d="M 15.332031 4 C 15.332031 4.738281 14.738281 5.332031 14 5.332031 C 13.261719 5.332031 12.667969 4.738281 12.667969 4 C 12.667969 3.261719 13.261719 2.667969 14 2.667969 C 14.738281 2.667969 15.332031 3.261719 15.332031 4 Z M 15.332031 4 "/>
</g>
</svg>
