<svg xmlns="http://www.w3.org/2000/svg" xmlns:xlink="http://www.w3.org/1999/xlink" width="16" height="16" viewBox="0 0 16 16" version="1.1">
<g id="surface1">
<path style=" stroke:none;fill-rule:nonzero;fill:rgb(96.862745%,0%,100%);fill-opacity:1;" d="M 6 2.667969 L 9.535156 9.09375 C 10.164062 8.398438 11.0625 8 12 8 C 12.476562 8 12.949219 8.105469 13.382812 8.304688 L 10 2.667969 Z M 5.667969 3.332031 L 2 10 L 4 13.332031 L 7.667969 7 Z M 12 8.667969 C 10.527344 8.667969 9.332031 9.859375 9.332031 11.332031 C 9.332031 12.804688 10.527344 14 12 14 C 13.472656 14 14.667969 12.804688 14.667969 11.332031 C 14.667969 9.859375 13.472656 8.667969 12 8.667969 Z M 12 9.332031 C 13.105469 9.332031 14 10.230469 14 11.332031 L 13.332031 11.332031 C 13.332031 10.597656 12.738281 10 12 10 Z M 8.945312 10.003906 L 6.667969 10.007812 L 4.667969 13.332031 L 9.339844 13.332031 C 8.902344 12.757812 8.667969 12.054688 8.667969 11.332031 C 8.667969 10.875 8.761719 10.421875 8.945312 10.003906 Z M 10 11.332031 L 10.667969 11.332031 C 10.667969 12.070312 11.261719 12.667969 12 12.667969 L 12 13.332031 C 10.894531 13.332031 10 12.4375 10 11.332031 Z M 10 11.332031 "/>
</g>
</svg>
