<svg xmlns="http://www.w3.org/2000/svg" xmlns:xlink="http://www.w3.org/1999/xlink" width="16" height="16" viewBox="0 0 16 16" version="1.1">
<g id="surface1">
<path style=" stroke:none;fill-rule:nonzero;fill:rgb(100%,30.980393%,30.980393%);fill-opacity:1;" d="M 4.667969 3.335938 C 3.929688 3.335938 3.332031 3.929688 3.332031 4.667969 L 3.332031 11.335938 C 3.332031 12.074219 3.929688 12.667969 4.667969 12.667969 L 11.332031 12.667969 C 12.070312 12.667969 12.667969 12.074219 12.667969 11.335938 L 12.667969 4.667969 C 12.667969 3.929688 12.070312 3.335938 11.332031 3.335938 Z M 6.332031 4.644531 C 6.851562 4.644531 7.257812 4.792969 7.550781 5.09375 C 7.847656 5.390625 7.992188 5.800781 7.992188 6.324219 C 7.992188 6.847656 7.847656 7.257812 7.550781 7.554688 C 7.257812 7.851562 6.851562 8 6.332031 8 C 5.8125 8 5.402344 7.851562 5.109375 7.554688 C 4.8125 7.257812 4.667969 6.847656 4.667969 6.324219 C 4.667969 5.800781 4.8125 5.390625 5.109375 5.09375 C 5.402344 4.796875 5.8125 4.644531 6.332031 4.644531 Z M 6.332031 5.25 C 6.078125 5.25 5.878906 5.34375 5.738281 5.53125 C 5.597656 5.71875 5.527344 5.984375 5.527344 6.324219 C 5.527344 6.664062 5.597656 6.929688 5.738281 7.117188 C 5.878906 7.304688 6.078125 7.398438 6.332031 7.398438 C 6.585938 7.398438 6.785156 7.304688 6.925781 7.117188 C 7.0625 6.929688 7.132812 6.664062 7.132812 6.324219 C 7.132812 5.984375 7.066406 5.71875 6.925781 5.53125 C 6.785156 5.34375 6.585938 5.25 6.332031 5.25 Z M 8.710938 7.433594 L 9.960938 7.433594 C 10.410156 7.433594 10.734375 7.5 10.9375 7.636719 C 11.136719 7.773438 11.238281 7.988281 11.238281 8.289062 C 11.238281 8.445312 11.203125 8.582031 11.128906 8.691406 C 11.050781 8.804688 10.9375 8.890625 10.808594 8.9375 C 10.988281 8.988281 11.128906 9.085938 11.226562 9.226562 C 11.324219 9.367188 11.371094 9.539062 11.371094 9.742188 C 11.371094 10.050781 11.265625 10.285156 11.054688 10.4375 C 10.84375 10.59375 10.523438 10.667969 10.09375 10.667969 L 8.710938 10.667969 Z M 9.542969 8 L 9.542969 8.6875 L 10.003906 8.6875 C 10.136719 8.6875 10.234375 8.65625 10.304688 8.597656 C 10.371094 8.542969 10.40625 8.457031 10.40625 8.34375 C 10.40625 8.234375 10.371094 8.148438 10.304688 8.089844 C 10.234375 8.03125 10.136719 8 10.003906 8 Z M 9.542969 9.253906 L 9.542969 10.101562 L 10.03125 10.101562 C 10.199219 10.101562 10.324219 10.066406 10.410156 9.996094 C 10.496094 9.925781 10.539062 9.816406 10.539062 9.671875 C 10.539062 9.535156 10.496094 9.429688 10.414062 9.359375 C 10.328125 9.289062 10.203125 9.253906 10.03125 9.253906 Z M 9.542969 9.253906 "/>
</g>
</svg>
