<svg xmlns="http://www.w3.org/2000/svg" xmlns:xlink="http://www.w3.org/1999/xlink" width="16" height="16" viewBox="0 0 16 16" version="1.1">
<g id="surface1">
<path style=" stroke:none;fill-rule:nonzero;fill:rgb(100%,74.901962%,0%);fill-opacity:1;" d="M 15.269531 5.886719 C 14.578125 2.496094 8.066406 2.28125 3.867188 4.867188 L 3.867188 5.152344 C 8.058594 2.96875 14.007812 2.984375 14.550781 6.109375 C 14.734375 7.144531 14.160156 8.21875 13.128906 8.839844 L 13.128906 9.652344 C 14.367188 9.191406 15.636719 7.707031 15.269531 5.886719 M 7.632812 11.828125 C 4.734375 12.097656 1.714844 11.671875 1.292969 9.382812 C 1.082031 8.253906 1.59375 7.054688 2.269531 6.3125 L 2.269531 5.914062 C 1.054688 6.992188 0.394531 8.359375 0.773438 9.96875 C 1.261719 12.035156 3.851562 13.203125 7.808594 12.816406 C 9.375 12.664062 11.425781 12.152344 12.847656 11.359375 L 12.847656 10.238281 C 11.554688 11.015625 9.414062 11.660156 7.632812 11.828125 Z M 7.632812 11.828125 "/>
<path style=" stroke:none;fill-rule:nonzero;fill:rgb(100%,74.901962%,0%);fill-opacity:1;" d="M 12.613281 5.398438 L 11.855469 5.398438 L 11.855469 8.824219 C 11.855469 9.222656 12.046875 9.574219 12.613281 9.628906 M 3.566406 6.648438 L 2.804688 6.648438 L 2.804688 8.886719 C 2.804688 9.289062 2.996094 9.636719 3.566406 9.695312 M 2.804688 5.5 L 3.566406 5.5 L 3.566406 6.230469 L 2.804688 6.230469 Z M 8.117188 9.65625 C 7.5 9.65625 7.242188 9.226562 7.242188 8.796875 L 7.242188 5.828125 L 7.992188 5.828125 L 7.992188 6.648438 L 8.5625 6.648438 L 8.5625 7.265625 L 7.992188 7.265625 L 7.992188 8.75 C 7.992188 8.925781 8.074219 9.023438 8.253906 9.023438 L 8.5625 9.023438 L 8.5625 9.65625 L 8.117188 9.65625 M 10.113281 7.226562 C 9.859375 7.226562 9.660156 7.363281 9.574219 7.542969 C 9.527344 7.652344 9.507812 7.738281 9.5 7.871094 L 10.664062 7.871094 C 10.648438 7.542969 10.5 7.226562 10.113281 7.226562 M 9.5 8.390625 C 9.5 8.78125 9.746094 9.066406 10.167969 9.066406 C 10.503906 9.066406 10.671875 8.972656 10.863281 8.78125 L 11.328125 9.230469 C 11.027344 9.527344 10.71875 9.710938 10.164062 9.710938 C 9.445312 9.710938 8.753906 9.3125 8.753906 8.152344 C 8.753906 7.160156 9.355469 6.597656 10.148438 6.597656 C 10.953125 6.597656 11.414062 7.253906 11.414062 8.117188 L 11.414062 8.390625 L 9.5 8.390625 M 5.613281 7.265625 C 5.832031 7.265625 5.925781 7.375 5.925781 7.554688 L 5.925781 9.660156 L 6.679688 9.660156 L 6.679688 7.550781 C 6.679688 7.121094 6.453125 6.648438 5.792969 6.648438 L 4.238281 6.648438 L 4.238281 9.660156 L 4.988281 9.660156 L 4.988281 7.265625 "/>
</g>
</svg>
