<svg xmlns="http://www.w3.org/2000/svg" xmlns:xlink="http://www.w3.org/1999/xlink" width="16" height="16" viewBox="0 0 16 16" version="1.1">
<g id="surface1">
<path style=" stroke:none;fill-rule:nonzero;fill:rgb(0%,80.000001%,100%);fill-opacity:1;" d="M 3.429688 2.667969 C 3.429688 2.667969 2.667969 2.695312 2.667969 3.457031 L 2.667969 11.90625 C 2.667969 11.90625 2.667969 12.667969 3.429688 12.667969 L 8.949219 12.667969 C 8.765625 12.246094 8.667969 11.792969 8.667969 11.332031 C 8.667969 11.257812 8.671875 11.179688 8.679688 11.105469 L 8 10.664062 L 6.738281 11.484375 C 6.214844 11.828125 5.527344 11.359375 5.710938 10.789062 L 6.160156 9.34375 L 4.933594 8.472656 C 4.425781 8.113281 4.6875 7.355469 5.324219 7.34375 L 6.863281 7.316406 L 7.367188 5.753906 C 7.464844 5.492188 7.730469 5.320312 8.023438 5.332031 C 8.300781 5.34375 8.542969 5.507812 8.632812 5.753906 L 9.136719 7.316406 L 10.675781 7.34375 C 11.125 7.351562 11.378906 7.726562 11.320312 8.074219 C 11.542969 8.027344 11.769531 8 12 8 C 12.457031 8 12.914062 8.097656 13.332031 8.28125 L 13.332031 4.78125 C 13.332031 4.019531 12.570312 4.019531 12.570312 4.019531 L 8.761719 4.019531 L 7.238281 2.667969 Z M 7.992188 5.984375 L 7.488281 7.546875 C 7.390625 7.804688 7.148438 7.976562 6.875 7.980469 L 5.429688 8.007812 L 6.542969 8.800781 C 6.78125 8.96875 6.882812 9.269531 6.792969 9.546875 L 6.367188 10.925781 C 6.371094 10.925781 6.371094 10.929688 6.375 10.925781 L 7.636719 10.105469 C 7.859375 9.960938 8.144531 9.960938 8.363281 10.105469 L 8.804688 10.390625 C 8.894531 10.085938 9.03125 9.792969 9.203125 9.523438 C 9.125 9.253906 9.226562 8.964844 9.457031 8.800781 L 10.570312 8.007812 L 9.125 7.980469 C 8.851562 7.976562 8.609375 7.804688 8.511719 7.546875 L 8.007812 5.984375 C 8.015625 6.007812 8.015625 6 8 5.996094 C 7.984375 6 7.984375 6.007812 7.992188 5.984375 Z M 7.992188 5.984375 "/>
<path style=" stroke:none;fill-rule:nonzero;fill:rgb(0%,80.000001%,100%);fill-opacity:1;" d="M 12 8.667969 C 10.527344 8.667969 9.332031 9.859375 9.332031 11.332031 C 9.332031 12.804688 10.527344 14 12 14 C 13.472656 14 14.667969 12.804688 14.667969 11.332031 C 14.667969 9.859375 13.472656 8.667969 12 8.667969 Z M 12 9.332031 C 13.105469 9.332031 14 10.230469 14 11.332031 L 13.332031 11.332031 C 13.332031 10.597656 12.738281 10 12 10 Z M 10 11.332031 L 10.667969 11.332031 C 10.667969 12.070312 11.261719 12.667969 12 12.667969 L 12 13.332031 C 10.894531 13.332031 10 12.4375 10 11.332031 Z M 10 11.332031 "/>
</g>
</svg>
