<svg xmlns="http://www.w3.org/2000/svg" xmlns:xlink="http://www.w3.org/1999/xlink" width="16" height="16" viewBox="0 0 16 16" version="1.1">
<g id="surface1">
<path style=" stroke:none;fill-rule:nonzero;fill:rgb(67.058825%,40.000001%,100%);fill-opacity:1;" d="M 2 2.667969 L 2 13.332031 L 4 13.332031 L 4 4.667969 C 6.667969 4.667969 5.992188 9.332031 5.992188 13.332031 L 8.007812 13.332031 C 8.007812 12.574219 8.011719 11.976562 8.015625 11.332031 L 10 11.332031 L 10 13.332031 L 12 13.332031 L 12 11.332031 L 14 11.332031 L 14 9.332031 L 12 9.332031 L 12 7.332031 L 10 7.332031 L 10 9.332031 L 8.003906 9.332031 C 7.984375 7.140625 7.882812 5.667969 7.386719 4.539062 C 7.011719 3.6875 6.199219 3.058594 5.378906 2.851562 C 4.933594 2.738281 4.480469 2.695312 4 2.679688 L 4 2.667969 Z M 2 2.667969 "/>
</g>
</svg>
