<svg xmlns="http://www.w3.org/2000/svg" xmlns:xlink="http://www.w3.org/1999/xlink" width="16" height="16" viewBox="0 0 16 16" version="1.1">
<g id="surface1">
<path style=" stroke:none;fill-rule:nonzero;fill:rgb(96.862745%,0%,100%);fill-opacity:1;" d="M 8.332031 3.332031 C 6.578125 3.335938 4.992188 4.394531 4.328125 6.019531 C 2.628906 6.195312 1.335938 7.625 1.332031 9.332031 C 1.332031 11.175781 2.824219 12.667969 4.667969 12.667969 L 8.949219 12.667969 C 8.765625 12.246094 8.667969 11.792969 8.667969 11.332031 C 8.667969 11.097656 8.691406 10.863281 8.742188 10.636719 C 8.605469 10.65625 8.46875 10.664062 8.332031 10.667969 C 6.675781 10.667969 5.332031 9.324219 5.332031 7.667969 C 5.332031 6.011719 6.675781 4.667969 8.332031 4.667969 C 9.988281 4.667969 11.332031 6.011719 11.332031 7.667969 C 11.332031 7.804688 11.320312 7.941406 11.300781 8.078125 C 11.53125 8.027344 11.765625 8 12 8 C 12.582031 8 13.15625 8.15625 13.660156 8.445312 C 13.882812 8.117188 14 7.730469 14 7.332031 C 14 6.230469 13.105469 5.332031 12 5.332031 C 11.996094 5.332031 11.988281 5.332031 11.984375 5.332031 C 11.1875 4.085938 9.8125 3.332031 8.332031 3.332031 Z M 8.332031 5.332031 C 7.042969 5.332031 6 6.378906 6 7.667969 C 6 8.957031 7.042969 10 8.332031 10 C 8.558594 10 8.777344 9.96875 8.992188 9.902344 C 9.324219 9.210938 9.878906 8.65625 10.570312 8.328125 C 10.632812 8.113281 10.667969 7.890625 10.667969 7.667969 C 10.667969 6.378906 9.621094 5.332031 8.332031 5.332031 Z M 7.332031 6 L 9 6 C 9.550781 6 10 6.449219 10 7 C 10 7.550781 9.550781 8 9 8 L 8 8 L 8 9.332031 L 7.332031 9.332031 Z M 8 6.667969 L 8 7.332031 L 9 7.332031 C 9.183594 7.332031 9.332031 7.183594 9.332031 7 C 9.332031 6.816406 9.183594 6.667969 9 6.667969 Z M 8 6.667969 "/>
<path style=" stroke:none;fill-rule:nonzero;fill:rgb(96.862745%,0%,100%);fill-opacity:1;" d="M 14.308594 10 C 13.574219 8.722656 11.941406 8.285156 10.667969 9.023438 C 9.390625 9.761719 8.953125 11.390625 9.691406 12.667969 C 10.425781 13.941406 12.058594 14.378906 13.332031 13.640625 C 14.609375 12.90625 15.046875 11.273438 14.308594 10 Z M 13.734375 10.332031 C 14.285156 11.289062 13.957031 12.511719 13 13.066406 L 12.667969 12.488281 C 13.304688 12.121094 13.523438 11.304688 13.15625 10.667969 Z M 11 9.601562 L 11.332031 10.179688 C 10.695312 10.546875 10.476562 11.363281 10.84375 12 L 10.269531 12.332031 C 9.714844 11.375 10.042969 10.152344 11 9.601562 Z M 11 9.601562 "/>
</g>
</svg>
