<svg xmlns="http://www.w3.org/2000/svg" xmlns:xlink="http://www.w3.org/1999/xlink" width="16" height="16" viewBox="0 0 16 16" version="1.1">
<defs>
<filter id="alpha" filterUnits="objectBoundingBox" x="0%" y="0%" width="100%" height="100%">
  <feColorMatrix type="matrix" in="SourceGraphic" values="0 0 0 0 1 0 0 0 0 1 0 0 0 0 1 0 0 0 1 0"/>
</filter>
<mask id="mask0">
  <g filter="url(#alpha)">
<rect x="0" y="0" width="16" height="16" style="fill:rgb(0%,0%,0%);fill-opacity:0.3;stroke:none;"/>
  </g>
</mask>
<clipPath id="clip1">
  <rect x="0" y="0" width="16" height="16"/>
</clipPath>
<g id="surface5" clip-path="url(#clip1)">
<path style=" stroke:none;fill-rule:nonzero;fill:rgb(0%,80.000001%,100%);fill-opacity:1;" d="M 8.332031 3.332031 C 6.578125 3.335938 4.992188 4.394531 4.328125 6.019531 C 2.628906 6.195312 1.335938 7.625 1.332031 9.332031 C 1.332031 11.175781 2.824219 12.667969 4.667969 12.667969 L 12.5 12.667969 C 13.695312 12.667969 14.667969 11.695312 14.667969 10.5 C 14.667969 9.683594 14.207031 8.976562 13.539062 8.609375 C 13.835938 8.25 14 7.800781 14 7.332031 C 14 6.230469 13.105469 5.332031 12 5.332031 C 11.996094 5.332031 11.988281 5.332031 11.984375 5.332031 C 11.1875 4.085938 9.8125 3.332031 8.332031 3.332031 Z M 8.332031 4.667969 C 9.988281 4.667969 11.332031 6.011719 11.332031 7.667969 C 11.332031 9.324219 9.988281 10.667969 8.332031 10.667969 C 6.675781 10.667969 5.332031 9.324219 5.332031 7.667969 C 5.332031 6.011719 6.675781 4.667969 8.332031 4.667969 Z M 8.332031 5.332031 C 7.042969 5.332031 6 6.378906 6 7.667969 C 6 8.957031 7.042969 10 8.332031 10 C 9.621094 10 10.667969 8.957031 10.667969 7.667969 C 10.667969 6.378906 9.621094 5.332031 8.332031 5.332031 Z M 7.332031 6 L 9 6 C 9.550781 6 10 6.449219 10 7 C 10 7.550781 9.550781 8 9 8 L 8 8 L 8 9.332031 L 7.332031 9.332031 Z M 8 6.667969 L 8 7.332031 L 9 7.332031 C 9.183594 7.332031 9.332031 7.183594 9.332031 7 C 9.332031 6.816406 9.183594 6.667969 9 6.667969 Z M 8 6.667969 "/>
</g>
</defs>
<g id="surface1">
<use xlink:href="#surface5" mask="url(#mask0)"/>
</g>
</svg>
