<svg xmlns="http://www.w3.org/2000/svg" xmlns:xlink="http://www.w3.org/1999/xlink" width="16" height="16" viewBox="0 0 16 16" version="1.1">
<g id="surface1">
<path style=" stroke:none;fill-rule:nonzero;fill:rgb(67.058825%,40.000001%,100%);fill-opacity:1;" d="M 8 2.667969 C 5.046875 2.667969 2.667969 5.046875 2.667969 8 C 2.667969 10.953125 5.046875 13.332031 8 13.332031 C 10.953125 13.332031 13.332031 10.953125 13.332031 8 C 13.332031 5.046875 10.953125 2.667969 8 2.667969 Z M 6 4.667969 C 7.066406 5.464844 9.53125 5.46875 10.667969 5.667969 C 9.878906 5.839844 8.589844 5.878906 7.488281 6.101562 C 8.4375 6.777344 8.925781 6.8125 10 7 C 8.859375 7.253906 8.425781 7.226562 7.472656 7.90625 C 8.597656 8.152344 9.917969 8.203125 10.667969 8.332031 C 9.464844 8.601562 7.066406 8.535156 6 9.332031 L 7 9.464844 L 8 9.332031 C 7.199219 10.398438 7.199219 10.867188 7 12 C 6.734375 10.796875 6.800781 10.398438 6 9.332031 L 6.132812 8.332031 L 6 7.332031 C 6.335938 7.585938 6.820312 7.753906 7.347656 7.878906 L 7.464844 7 L 7.351562 6.132812 C 6.824219 6.25 6.339844 6.410156 6 6.667969 L 6.132812 5.667969 Z M 8.667969 9.332031 L 9.667969 9.464844 L 10.667969 9.332031 C 9.867188 10.398438 9.867188 10.867188 9.667969 12 C 9.398438 10.796875 9.464844 10.398438 8.667969 9.332031 Z M 8.667969 9.332031 "/>
</g>
</svg>
