<svg xmlns="http://www.w3.org/2000/svg" xmlns:xlink="http://www.w3.org/1999/xlink" width="16" height="16" viewBox="0 0 16 16" version="1.1">
<g id="surface1">
<path style=" stroke:none;fill-rule:nonzero;fill:rgb(0%,80.000001%,100%);fill-opacity:1;" d="M 8.667969 2.667969 C 8 2.667969 8 3.332031 8 3.332031 L 8 12.667969 C 8 12.667969 8 13.332031 8.667969 13.332031 L 14 13.332031 C 14.667969 13.332031 14.667969 12.667969 14.667969 12.667969 L 14.667969 3.332031 C 14.667969 3.332031 14.667969 2.667969 14 2.667969 Z M 9.332031 4.003906 L 13.332031 4.003906 L 13.332031 11.335938 L 9.332031 11.335938 Z M 9.332031 4.003906 "/>
<path style=" stroke:none;fill-rule:nonzero;fill:rgb(0%,80.000001%,100%);fill-opacity:1;" d="M 3.667969 2.667969 C 3.480469 2.667969 3.332031 2.816406 3.332031 3 L 3.332031 3.332031 L 2 3.332031 L 2 13 C 2 13.1875 2.148438 13.335938 2.332031 13.335938 L 6.332031 13.335938 C 6.519531 13.335938 6.667969 13.1875 6.667969 13 L 6.667969 3.335938 L 5.332031 3.335938 L 5.332031 3.003906 C 5.332031 2.816406 5.183594 2.667969 5 2.667969 Z M 3.667969 2.667969 "/>
</g>
</svg>
