<svg xmlns="http://www.w3.org/2000/svg" xmlns:xlink="http://www.w3.org/1999/xlink" width="16" height="16" viewBox="0 0 16 16" version="1.1">
<g id="surface1">
<path style=" stroke:none;fill-rule:nonzero;fill:rgb(100%,30.980393%,30.980393%);fill-opacity:1;" d="M 8.332031 2.667969 C 6.308594 2.667969 4.667969 4.21875 4.667969 6.132812 C 4.667969 6.222656 4.671875 6.3125 4.679688 6.398438 L 4.667969 6.398438 L 4.667969 6.667969 L 3.890625 6.667969 C 3.582031 6.667969 3.332031 6.898438 3.332031 7.183594 L 3.332031 10.816406 C 3.332031 11.101562 3.582031 11.332031 3.890625 11.332031 L 4.667969 11.332031 L 4.667969 12.800781 C 4.667969 13.09375 4.917969 13.332031 5.230469 13.332031 L 7.207031 13.332031 L 8.050781 12 L 8.617188 12 L 9.460938 13.332031 L 11.4375 13.332031 C 11.75 13.332031 12 13.09375 12 12.800781 L 12 11.332031 L 12.777344 11.332031 C 13.085938 11.332031 13.332031 11.101562 13.332031 10.816406 L 13.332031 7.183594 C 13.332031 6.898438 13.085938 6.667969 12.777344 6.667969 L 12 6.667969 L 12 6.398438 L 11.988281 6.398438 C 11.996094 6.3125 12 6.222656 12 6.132812 C 12 4.21875 10.359375 2.667969 8.332031 2.667969 Z M 8.332031 4 C 9.621094 4 10.667969 4.667969 10.667969 6.652344 C 10.667969 6.660156 10.664062 6.671875 10.664062 6.679688 L 6 6.679688 C 6 6.671875 6 6.660156 6 6.652344 C 6 4.667969 7.042969 4 8.332031 4 Z M 6.667969 5.332031 L 6.667969 6 L 7.332031 6 L 7.332031 5.332031 Z M 9.332031 5.332031 L 9.332031 6 L 10 6 L 10 5.332031 Z M 8.332031 7.332031 C 8.949219 7.332031 9.3125 7.855469 9.3125 8.496094 L 9.3125 8.667969 L 9.722656 8.667969 C 9.875 8.640625 10 8.839844 10 9 L 10 10.382812 C 10 10.539062 9.875 10.667969 9.722656 10.667969 L 6.945312 10.667969 C 6.789062 10.667969 6.667969 10.539062 6.667969 10.382812 L 6.667969 9 C 6.667969 8.839844 6.863281 8.535156 6.945312 8.667969 L 7.355469 8.667969 L 7.355469 8.496094 C 7.355469 7.855469 7.71875 7.332031 8.332031 7.332031 Z M 8.332031 7.90625 C 8.027344 7.90625 7.910156 8.160156 7.910156 8.476562 L 7.910156 8.667969 L 8.753906 8.667969 L 8.753906 8.476562 C 8.753906 8.160156 8.640625 7.90625 8.332031 7.90625 Z M 8.332031 7.90625 "/>
</g>
</svg>
