<svg xmlns="http://www.w3.org/2000/svg" xmlns:xlink="http://www.w3.org/1999/xlink" width="16" height="16" viewBox="0 0 16 16" version="1.1">
<defs>
<filter id="alpha" filterUnits="objectBoundingBox" x="0%" y="0%" width="100%" height="100%">
  <feColorMatrix type="matrix" in="SourceGraphic" values="0 0 0 0 1 0 0 0 0 1 0 0 0 0 1 0 0 0 1 0"/>
</filter>
<mask id="mask0">
  <g filter="url(#alpha)">
<rect x="0" y="0" width="16" height="16" style="fill:rgb(0%,0%,0%);fill-opacity:0.3;stroke:none;"/>
  </g>
</mask>
<clipPath id="clip1">
  <rect x="0" y="0" width="16" height="16"/>
</clipPath>
<g id="surface5" clip-path="url(#clip1)">
<path style=" stroke:none;fill-rule:nonzero;fill:rgb(0%,80.000001%,100%);fill-opacity:1;" d="M 8.332031 2.667969 C 6.308594 2.667969 4.667969 4.21875 4.667969 6.132812 C 4.667969 6.222656 4.671875 6.3125 4.679688 6.398438 L 4.667969 6.398438 L 4.667969 6.667969 L 3.890625 6.667969 C 3.582031 6.667969 3.332031 6.898438 3.332031 7.183594 L 3.332031 10.816406 C 3.332031 11.101562 3.582031 11.332031 3.890625 11.332031 L 4.667969 11.332031 L 4.667969 12.800781 C 4.667969 13.09375 4.917969 13.332031 5.230469 13.332031 L 7.207031 13.332031 L 8.050781 12 L 8.617188 12 L 9.460938 13.332031 L 11.4375 13.332031 C 11.75 13.332031 12 13.09375 12 12.800781 L 12 11.332031 L 12.777344 11.332031 C 13.085938 11.332031 13.332031 11.101562 13.332031 10.816406 L 13.332031 7.183594 C 13.332031 6.898438 13.085938 6.667969 12.777344 6.667969 L 12 6.667969 L 12 6.398438 L 11.988281 6.398438 C 11.996094 6.3125 12 6.222656 12 6.132812 C 12 4.21875 10.359375 2.667969 8.332031 2.667969 Z M 8.332031 4 C 9.621094 4 10.667969 4.667969 10.667969 6.652344 C 10.667969 6.660156 10.664062 6.671875 10.664062 6.683594 L 6 6.679688 C 6 6.671875 6 6.660156 6 6.652344 C 6 4.667969 7.042969 4 8.332031 4 Z M 6.667969 5.332031 L 6.667969 6 L 7.332031 6 L 7.332031 5.332031 Z M 9.332031 5.332031 L 9.332031 6 L 10 6 L 10 5.332031 Z M 5.667969 8 C 6.21875 8 6.667969 8.449219 6.667969 9 C 6.667969 9.550781 6.21875 10 5.667969 10 C 5.113281 10 4.667969 9.550781 4.667969 9 C 4.667969 8.449219 5.113281 8 5.667969 8 Z M 8.332031 8 C 8.886719 8 9.332031 8.449219 9.332031 9 C 9.332031 9.550781 8.886719 10 8.332031 10 C 7.78125 10 7.332031 9.550781 7.332031 9 C 7.332031 8.449219 7.78125 8 8.332031 8 Z M 11 8 C 11.550781 8 12 8.449219 12 9 C 12 9.550781 11.550781 10 11 10 C 10.449219 10 10 9.550781 10 9 C 10 8.449219 10.449219 8 11 8 Z M 11 8 "/>
</g>
</defs>
<g id="surface1">
<use xlink:href="#surface5" mask="url(#mask0)"/>
<path style=" stroke:none;fill-rule:nonzero;fill:rgb(0%,80.000001%,100%);fill-opacity:1;" d="M 5.332031 8.667969 L 5.332031 9.332031 L 6 9.332031 L 6 8.667969 Z M 8 8.667969 L 8 9.332031 L 8.667969 9.332031 L 8.667969 8.667969 Z M 10.667969 8.667969 L 10.667969 9.332031 L 11.332031 9.332031 L 11.332031 8.667969 Z M 10.667969 8.667969 "/>
</g>
</svg>
