<svg xmlns="http://www.w3.org/2000/svg" xmlns:xlink="http://www.w3.org/1999/xlink" width="16" height="16" viewBox="0 0 16 16" version="1.1">
<g id="surface1">
<path style=" stroke:none;fill-rule:nonzero;fill:rgb(67.058825%,40.000001%,100%);fill-opacity:1;" d="M 8 2 C 6.582031 2 5.277344 2.488281 4.25 3.3125 L 3.042969 2.105469 L 2.105469 3.042969 L 3.3125 4.25 C 2.488281 5.25 2 6.515625 2 7.984375 C 2 11.296875 4.6875 13.984375 8 13.984375 C 11.3125 13.984375 14 11.296875 14 7.984375 C 14 6.566406 13.511719 5.261719 12.6875 4.234375 L 13.894531 3.023438 L 12.957031 2.085938 L 11.75 3.296875 C 10.722656 2.472656 9.417969 1.984375 8 1.984375 Z M 8 3.332031 C 10.578125 3.332031 12.667969 5.421875 12.667969 8 C 12.667969 10.578125 10.578125 12.667969 8 12.667969 C 5.421875 12.667969 3.332031 10.578125 3.332031 8 C 3.332031 5.421875 5.421875 3.332031 8 3.332031 Z M 8 4 L 8 8 L 4.535156 6 C 3.632812 7.566406 3.890625 9.546875 5.171875 10.828125 C 6.445312 12.117188 8.425781 12.390625 10 11.496094 C 11.582031 10.585938 12.347656 8.71875 11.863281 6.960938 C 11.382812 5.226562 9.800781 4.023438 8 4.027344 Z M 8 4 "/>
</g>
</svg>
