<svg xmlns="http://www.w3.org/2000/svg" xmlns:xlink="http://www.w3.org/1999/xlink" width="16" height="16" viewBox="0 0 16 16" version="1.1">
<g id="surface1">
<path style=" stroke:none;fill-rule:nonzero;fill:rgb(67.058825%,40.000001%,100%);fill-opacity:1;" d="M 8 2.667969 C 5.054688 2.667969 2.667969 5.054688 2.667969 8 C 2.667969 10.945312 5.054688 13.332031 8 13.332031 C 10.945312 13.332031 13.332031 10.945312 13.332031 8 C 13.332031 5.054688 10.945312 2.667969 8 2.667969 Z M 6.332031 5.332031 L 9.667969 5.332031 C 10.21875 5.332031 10.667969 5.78125 10.667969 6.332031 L 10.667969 9.667969 C 10.667969 10.21875 10.21875 10.667969 9.667969 10.667969 L 6.332031 10.667969 C 5.78125 10.667969 5.332031 10.21875 5.332031 9.667969 L 5.332031 6.332031 C 5.332031 5.78125 5.78125 5.332031 6.332031 5.332031 Z M 7.667969 6 C 7.480469 6 7.332031 6.148438 7.332031 6.332031 L 7.332031 8.332031 C 7.332031 8.519531 7.480469 8.667969 7.667969 8.667969 L 9.667969 8.667969 C 9.851562 8.667969 10 8.519531 10 8.332031 L 10 7.667969 C 10 7.480469 9.851562 7.332031 9.667969 7.332031 L 8.667969 7.332031 L 8.667969 6.332031 C 8.667969 6.148438 8.519531 6 8.332031 6 Z M 7.667969 6 "/>
</g>
</svg>
