<svg xmlns="http://www.w3.org/2000/svg" xmlns:xlink="http://www.w3.org/1999/xlink" width="16" height="16" viewBox="0 0 16 16" version="1.1">
<g id="surface1">
<path style=" stroke:none;fill-rule:nonzero;fill:rgb(96.862745%,0%,100%);fill-opacity:1;" d="M 8 2.667969 C 5.054688 2.667969 2.667969 5.054688 2.667969 8 C 2.667969 10.945312 5.054688 13.332031 8 13.332031 C 10.945312 13.332031 13.332031 10.945312 13.332031 8 C 13.332031 5.054688 10.945312 2.667969 8 2.667969 Z M 6.332031 5.332031 L 9.667969 5.332031 C 10.21875 5.332031 10.667969 5.78125 10.667969 6.332031 L 10.667969 9.667969 C 10.667969 10.21875 10.21875 10.667969 9.667969 10.667969 L 6.332031 10.667969 C 5.78125 10.667969 5.332031 10.21875 5.332031 9.667969 L 5.332031 6.332031 C 5.332031 5.78125 5.78125 5.332031 6.332031 5.332031 Z M 7.058594 6.253906 C 6.972656 6.253906 6.886719 6.285156 6.820312 6.351562 L 6.351562 6.820312 C 6.21875 6.953125 6.21875 7.164062 6.351562 7.292969 L 7.058594 8 L 6.351562 8.707031 C 6.21875 8.835938 6.21875 9.046875 6.351562 9.179688 L 6.820312 9.648438 C 6.953125 9.78125 7.164062 9.78125 7.292969 9.648438 L 8 8.941406 L 8.707031 9.648438 C 8.835938 9.78125 9.046875 9.78125 9.179688 9.648438 L 9.648438 9.179688 C 9.78125 9.046875 9.78125 8.835938 9.648438 8.707031 L 8.941406 8 L 9.648438 7.292969 C 9.78125 7.164062 9.78125 6.953125 9.648438 6.820312 L 9.179688 6.351562 C 9.046875 6.21875 8.835938 6.21875 8.707031 6.351562 L 8 7.058594 L 7.292969 6.351562 C 7.226562 6.285156 7.140625 6.253906 7.058594 6.253906 Z M 7.058594 6.253906 "/>
</g>
</svg>
