<svg xmlns="http://www.w3.org/2000/svg" xmlns:xlink="http://www.w3.org/1999/xlink" width="16" height="16" viewBox="0 0 16 16" version="1.1">
<g id="surface1">
<path style=" stroke:none;fill-rule:nonzero;fill:rgb(100%,74.901962%,0%);fill-opacity:1;" d="M 8 2 C 6.582031 2 5.277344 2.488281 4.25 3.3125 L 3.042969 2.105469 L 2.105469 3.042969 L 3.3125 4.25 C 2.488281 5.277344 2 6.582031 2 8 C 2 11.3125 4.6875 14 8 14 C 11.3125 14 14 11.3125 14 8 C 14 6.582031 13.511719 5.277344 12.6875 4.25 L 13.894531 3.042969 L 12.957031 2.105469 L 11.75 3.3125 C 10.722656 2.488281 9.417969 2 8 2 Z M 8 3.332031 C 10.578125 3.332031 12.667969 5.421875 12.667969 8 C 12.667969 10.578125 10.578125 12.667969 8 12.667969 C 5.421875 12.667969 3.332031 10.578125 3.332031 8 C 3.332031 5.421875 5.421875 3.332031 8 3.332031 Z M 8 4 L 8 8 L 7.582031 4.023438 C 5.425781 4.25 3.839844 6.152344 4.011719 8.3125 C 4.183594 10.476562 6.042969 12.109375 8.210938 11.996094 C 10.375 11.882812 12.054688 10.0625 12 7.894531 C 11.925781 5.738281 10.15625 4.027344 8 4.027344 Z M 8 4 "/>
</g>
</svg>
