<svg xmlns="http://www.w3.org/2000/svg" xmlns:xlink="http://www.w3.org/1999/xlink" width="16" height="16" viewBox="0 0 16 16" version="1.1">
<g id="surface1">
<path style=" stroke:none;fill-rule:nonzero;fill:rgb(100%,74.901962%,0%);fill-opacity:1;" d="M 8 2 C 6.582031 2 5.277344 2.488281 4.25 3.3125 L 3.042969 2.105469 L 2.105469 3.042969 L 3.3125 4.25 C 2.488281 5.25 2 6.515625 2 7.984375 C 2 11.296875 4.6875 13.984375 8 13.984375 C 11.3125 13.984375 14 11.296875 14 7.984375 C 14 6.566406 13.511719 5.261719 12.6875 4.234375 L 13.894531 3.023438 L 12.957031 2.085938 L 11.75 3.296875 C 10.722656 2.472656 9.417969 1.984375 8 1.984375 Z M 8 3.332031 C 10.578125 3.332031 12.667969 5.421875 12.667969 8 C 12.667969 10.578125 10.578125 12.667969 8 12.667969 C 5.421875 12.667969 3.332031 10.578125 3.332031 8 C 3.332031 5.421875 5.421875 3.332031 8 3.332031 Z M 8 4 L 8 8 L 4.085938 7.167969 C 3.734375 8.824219 4.464844 10.523438 5.910156 11.410156 C 7.355469 12.296875 9.199219 12.175781 10.515625 11.109375 C 11.832031 10.042969 12.335938 8.261719 11.769531 6.664062 C 11.207031 5.066406 9.695312 4 8 4 Z M 8 4 "/>
</g>
</svg>
