<svg xmlns="http://www.w3.org/2000/svg" xmlns:xlink="http://www.w3.org/1999/xlink" width="16" height="16" viewBox="0 0 16 16" version="1.1">
<g id="surface1">
<path style=" stroke:none;fill-rule:nonzero;fill:rgb(96.862745%,0%,100%);fill-opacity:1;" d="M 8 2 C 6.582031 2 5.277344 2.488281 4.25 3.3125 L 3.042969 2.105469 L 2.105469 3.042969 L 3.3125 4.25 C 2.488281 5.277344 2 6.582031 2 8 C 2 11.3125 4.6875 14 8 14 C 11.3125 14 14 11.3125 14 8 C 14 6.582031 13.511719 5.277344 12.6875 4.25 L 13.894531 3.042969 L 12.957031 2.105469 L 11.75 3.3125 C 10.722656 2.488281 9.417969 2 8 2 Z M 8 3.332031 C 10.578125 3.332031 12.667969 5.421875 12.667969 8 C 12.667969 10.578125 10.578125 12.667969 8 12.667969 C 5.421875 12.667969 3.332031 10.578125 3.332031 8 C 3.332031 5.421875 5.421875 3.332031 8 3.332031 Z M 8 4 L 8 8 L 6.375 4.347656 C 4.503906 5.179688 3.5625 7.289062 4.195312 9.234375 C 4.828125 11.183594 6.828125 12.339844 8.832031 11.914062 C 10.835938 11.488281 12.191406 9.617188 11.976562 7.582031 C 11.773438 5.539062 10.054688 3.984375 8 3.980469 Z M 8 4 "/>
</g>
</svg>
