<svg xmlns="http://www.w3.org/2000/svg" xmlns:xlink="http://www.w3.org/1999/xlink" width="16" height="16" viewBox="0 0 16 16" version="1.1">
<g id="surface1">
<path style=" stroke:none;fill-rule:nonzero;fill:rgb(0%,80.000001%,100%);fill-opacity:1;" d="M 8 2 C 6.582031 2 5.277344 2.488281 4.25 3.3125 L 3.042969 2.105469 L 2.105469 3.042969 L 3.3125 4.25 C 2.488281 5.277344 2 6.582031 2 8 C 2 11.3125 4.6875 14 8 14 C 11.3125 14 14 11.3125 14 8 C 14 6.582031 13.511719 5.277344 12.6875 4.25 L 13.894531 3.042969 L 12.957031 2.105469 L 11.75 3.3125 C 10.722656 2.488281 9.417969 2 8 2 Z M 8 3.332031 C 10.578125 3.332031 12.667969 5.421875 12.667969 8 C 12.667969 10.578125 10.578125 12.667969 8 12.667969 C 5.421875 12.667969 3.332031 10.578125 3.332031 8 C 3.332031 5.421875 5.421875 3.332031 8 3.332031 Z M 8 4 L 8 8 L 4.535156 10 C 5.507812 11.679688 7.542969 12.421875 9.367188 11.757812 C 11.191406 11.09375 12.277344 9.21875 11.9375 7.304688 C 11.601562 5.394531 9.941406 4 8 4 Z M 8 4 "/>
</g>
</svg>
