<svg xmlns="http://www.w3.org/2000/svg" xmlns:xlink="http://www.w3.org/1999/xlink" width="16" height="16" viewBox="0 0 16 16" version="1.1">
<g id="surface1">
<path style=" stroke:none;fill-rule:nonzero;fill:rgb(100%,30.980393%,30.980393%);fill-opacity:1;" d="M 8 2.667969 C 5.054688 2.667969 2.667969 5.054688 2.667969 8 C 2.667969 10.945312 5.054688 13.332031 8 13.332031 C 10.945312 13.332031 13.332031 10.945312 13.332031 8 C 13.332031 5.054688 10.945312 2.667969 8 2.667969 Z M 6.332031 5.332031 L 9.667969 5.332031 C 10.21875 5.332031 10.667969 5.78125 10.667969 6.332031 L 10.667969 9.667969 C 10.667969 10.21875 10.21875 10.667969 9.667969 10.667969 L 6.332031 10.667969 C 5.78125 10.667969 5.332031 10.21875 5.332031 9.667969 L 5.332031 6.332031 C 5.332031 5.78125 5.78125 5.332031 6.332031 5.332031 Z M 7.066406 6.667969 C 6.84375 6.667969 6.667969 6.84375 6.667969 7.066406 L 6.667969 8.933594 C 6.667969 9.15625 6.84375 9.332031 7.066406 9.332031 L 8.933594 9.332031 C 9.15625 9.332031 9.332031 9.15625 9.332031 8.933594 L 9.332031 7.066406 C 9.332031 6.84375 9.15625 6.667969 8.933594 6.667969 Z M 7.066406 6.667969 "/>
</g>
</svg>
