<svg xmlns="http://www.w3.org/2000/svg" xmlns:xlink="http://www.w3.org/1999/xlink" width="16" height="16" viewBox="0 0 16 16" version="1.1">
<g id="surface1">
<path style=" stroke:none;fill-rule:nonzero;fill:rgb(0%,100%,66.666669%);fill-opacity:1;" d="M 8 2 C 6.582031 2 5.277344 2.488281 4.25 3.3125 L 3.042969 2.105469 L 2.105469 3.042969 L 3.3125 4.25 C 2.488281 5.277344 2 6.582031 2 8 C 2 11.3125 4.6875 14 8 14 C 11.3125 14 14 11.3125 14 8 C 14 6.582031 13.511719 5.277344 12.6875 4.25 L 13.894531 3.042969 L 12.957031 2.105469 L 11.75 3.3125 C 10.722656 2.488281 9.417969 2 8 2 Z M 8 3.332031 C 10.578125 3.332031 12.667969 5.421875 12.667969 8 C 12.667969 10.578125 10.578125 12.667969 8 12.667969 C 5.421875 12.667969 3.332031 10.578125 3.332031 8 C 3.332031 5.421875 5.421875 3.332031 8 3.332031 Z M 8 4 L 8 8 L 7.167969 4.085938 C 5.085938 4.53125 3.714844 6.523438 4.050781 8.625 C 4.382812 10.726562 6.300781 12.199219 8.417969 11.976562 C 10.535156 11.753906 12.105469 9.914062 11.996094 7.789062 C 11.882812 5.664062 10.128906 4 8 4 Z M 8 4 "/>
</g>
</svg>
