<svg xmlns="http://www.w3.org/2000/svg" xmlns:xlink="http://www.w3.org/1999/xlink" width="16" height="16" viewBox="0 0 16 16" version="1.1">
<defs>
<filter id="alpha" filterUnits="objectBoundingBox" x="0%" y="0%" width="100%" height="100%">
  <feColorMatrix type="matrix" in="SourceGraphic" values="0 0 0 0 1 0 0 0 0 1 0 0 0 0 1 0 0 0 1 0"/>
</filter>
<mask id="mask0">
  <g filter="url(#alpha)">
<rect x="0" y="0" width="16" height="16" style="fill:rgb(0%,0%,0%);fill-opacity:0.3;stroke:none;"/>
  </g>
</mask>
<clipPath id="clip1">
  <rect x="0" y="0" width="16" height="16"/>
</clipPath>
<g id="surface5" clip-path="url(#clip1)">
<path style=" stroke:none;fill-rule:nonzero;fill:rgb(67.058825%,40.000001%,100%);fill-opacity:1;" d="M 3.238281 2.667969 C 2.921875 2.667969 2.667969 2.921875 2.667969 3.238281 L 2.667969 8 L 13.332031 8 L 13.332031 3.238281 C 13.332031 2.921875 13.078125 2.667969 12.761719 2.667969 Z M 5.332031 4 C 5.703125 4 6 4.296875 6 4.667969 C 6 5.035156 5.703125 5.332031 5.332031 5.332031 C 4.964844 5.332031 4.667969 5.035156 4.667969 4.667969 C 4.667969 4.296875 4.964844 4 5.332031 4 Z M 10.667969 4 C 11.035156 4 11.332031 4.296875 11.332031 4.667969 C 11.332031 5.035156 11.035156 5.332031 10.667969 5.332031 C 10.296875 5.332031 10 5.035156 10 4.667969 C 10 4.296875 10.296875 4 10.667969 4 Z M 6.667969 6 C 8.035156 6.210938 9.332031 6 9.332031 6 C 9.332031 6.738281 8.738281 7.332031 8 7.332031 C 7.261719 7.332031 6.667969 6.738281 6.667969 6 Z M 6.667969 6 "/>
</g>
</defs>
<g id="surface1">
<use xlink:href="#surface5" mask="url(#mask0)"/>
<path style=" stroke:none;fill-rule:nonzero;fill:rgb(67.058825%,40.000001%,100%);fill-opacity:1;" d="M 2.667969 8 L 2.667969 12.761719 C 2.667969 13.078125 2.921875 13.332031 3.238281 13.332031 L 12.761719 13.332031 C 13.078125 13.332031 13.332031 13.078125 13.332031 12.761719 L 13.332031 8 Z M 5.269531 8.667969 L 5.398438 8.667969 C 5.730469 8.667969 6 8.90625 6 9.199219 L 6 12.132812 C 6 12.429688 5.730469 12.667969 5.398438 12.667969 L 5.269531 12.667969 C 4.933594 12.667969 4.667969 12.429688 4.667969 12.132812 L 4.667969 9.199219 C 4.667969 8.90625 4.933594 8.667969 5.269531 8.667969 Z M 7.933594 8.667969 L 8.066406 8.667969 C 8.398438 8.667969 8.667969 8.90625 8.667969 9.199219 L 8.667969 12.132812 C 8.667969 12.429688 8.398438 12.667969 8.066406 12.667969 L 7.933594 12.667969 C 7.601562 12.667969 7.332031 12.429688 7.332031 12.132812 L 7.332031 9.199219 C 7.332031 8.90625 7.601562 8.667969 7.933594 8.667969 Z M 10.601562 8.667969 L 10.730469 8.667969 C 11.066406 8.667969 11.332031 8.90625 11.332031 9.199219 L 11.332031 12.132812 C 11.332031 12.429688 11.066406 12.667969 10.730469 12.667969 L 10.601562 12.667969 C 10.269531 12.667969 10 12.429688 10 12.132812 L 10 9.199219 C 10 8.90625 10.269531 8.667969 10.601562 8.667969 Z M 10.601562 8.667969 "/>
</g>
</svg>
