<svg xmlns="http://www.w3.org/2000/svg" xmlns:xlink="http://www.w3.org/1999/xlink" width="16" height="16" viewBox="0 0 16 16" version="1.1">
<g id="surface1">
<path style=" stroke:none;fill-rule:nonzero;fill:rgb(0%,80.000001%,100%);fill-opacity:1;" d="M 9.980469 2.667969 C 9.925781 2.664062 9.832031 2.703125 9.664062 2.777344 C 9.460938 2.867188 9.007812 2.941406 8.648438 2.941406 C 7.386719 2.96875 6.375 3.410156 5.554688 4.246094 C 4.445312 5.390625 4.09375 6.828125 4.601562 8.164062 C 4.71875 8.472656 4.789062 8.785156 4.757812 8.859375 C 4.730469 8.933594 4.515625 9.140625 4.285156 9.320312 C 3.785156 9.710938 3.441406 10.339844 3.355469 11.011719 C 3.300781 11.417969 3.339844 11.613281 3.558594 12.09375 C 4.03125 13.128906 5.105469 13.574219 6.25 13.207031 C 6.910156 12.992188 7.574219 12.238281 8.105469 11.09375 C 8.5625 10.105469 8.582031 10.082031 9.074219 9.902344 C 9.902344 9.601562 10.425781 9.269531 10.945312 8.714844 C 11.867188 7.730469 12.207031 6.453125 11.878906 5.234375 C 11.730469 4.683594 11.605469 4.496094 10.933594 3.796875 C 10.507812 3.355469 10.128906 2.90625 10.09375 2.804688 C 10.0625 2.714844 10.039062 2.671875 9.980469 2.667969 Z M 7.890625 4 C 8.28125 4 8.582031 4.121094 8.664062 4.351562 C 8.691406 4.429688 8.574219 4.789062 8.410156 5.15625 C 7.980469 6.09375 7.84375 6.609375 7.585938 8.261719 C 7.261719 10.3125 6.914062 11.195312 6.207031 11.726562 C 5.765625 12.0625 5.21875 12.089844 4.929688 11.796875 C 4.675781 11.539062 4.605469 11.21875 4.722656 10.882812 C 4.8125 10.617188 5.171875 10.574219 5.847656 10.472656 C 6.316406 10.40625 6.648438 10.078125 6.648438 9.652344 C 6.648438 9.382812 6.539062 9.230469 6.175781 8.84375 C 5.609375 8.246094 5.09375 7.671875 5.09375 6.949219 C 5.089844 5.816406 5.644531 4.851562 6.589844 4.34375 C 7.023438 4.113281 7.5 4 7.890625 4 Z M 9.449219 4.667969 C 9.585938 4.652344 9.757812 4.789062 10.003906 5.082031 C 10.96875 6.230469 10.871094 7.96875 9.78125 8.96875 C 9.316406 9.394531 9.207031 9.417969 8.886719 9.191406 C 8.699219 9.058594 8.664062 8.9375 8.667969 8.453125 C 8.667969 7.707031 8.921875 5.886719 9.117188 5.195312 C 9.214844 4.859375 9.3125 4.6875 9.449219 4.667969 Z M 9.449219 4.667969 "/>
</g>
</svg>
