<svg xmlns="http://www.w3.org/2000/svg" xmlns:xlink="http://www.w3.org/1999/xlink" width="16" height="16" viewBox="0 0 16 16" version="1.1">
<g id="surface1">
<path style=" stroke:none;fill-rule:nonzero;fill:rgb(100%,30.980393%,30.980393%);fill-opacity:1;" d="M 3.332031 3.332031 C 2.964844 3.332031 2.667969 3.628906 2.667969 4 L 2.667969 5.523438 C 2.863281 5.40625 3.089844 5.332031 3.332031 5.332031 L 5.722656 5.332031 L 6.863281 4.195312 C 6.988281 4.070312 7.15625 4 7.332031 4 L 8 4 C 8 3.628906 7.703125 3.332031 7.332031 3.332031 Z M 7.332031 4.667969 L 6 6 L 3.332031 6 C 2.964844 6 2.667969 6.296875 2.667969 6.667969 L 2.667969 12 C 2.667969 12.738281 3.261719 13.332031 4 13.332031 L 12 13.332031 C 12.738281 13.332031 13.332031 12.738281 13.332031 12 L 13.332031 5.332031 C 13.332031 4.964844 13.035156 4.667969 12.667969 4.667969 Z M 8 6.667969 L 10 9.332031 L 8.667969 9.332031 L 8.667969 12 L 7.332031 12 L 7.332031 9.332031 L 6 9.332031 Z M 8 6.667969 "/>
</g>
</svg>
