<svg xmlns="http://www.w3.org/2000/svg" xmlns:xlink="http://www.w3.org/1999/xlink" width="16" height="16" viewBox="0 0 16 16" version="1.1">
<g id="surface1">
<path style=" stroke:none;fill-rule:nonzero;fill:rgb(67.058825%,40.000001%,100%);fill-opacity:1;" d="M 8 2.667969 C 7.75 2.667969 7.496094 2.679688 7.335938 2.703125 C 5.410156 2.988281 4.269531 3.964844 4.039062 5.519531 C 4.015625 5.691406 4.007812 5.996094 4.003906 7.164062 L 4 8.554688 L 4.054688 8.644531 C 4.195312 8.875 4.386719 9.035156 5.292969 9.6875 C 6.8125 10.777344 7.433594 11.175781 7.820312 11.296875 C 7.878906 11.316406 7.964844 11.332031 8.003906 11.332031 C 8.261719 11.335938 9.007812 10.90625 10.136719 10.097656 C 11.542969 9.089844 11.804688 8.878906 11.941406 8.652344 L 12 8.554688 L 12 7.40625 C 12 5.914062 11.992188 5.648438 11.921875 5.328125 C 11.804688 4.757812 11.582031 4.308594 11.234375 3.914062 C 10.675781 3.285156 9.796875 2.871094 8.660156 2.703125 C 8.5 2.679688 8.25 2.667969 8 2.667969 Z M 8 4.667969 C 9.332031 4.667969 9.695312 5.453125 9.953125 6.414062 C 10 6.585938 10 6.589844 10 7.28125 C 10 7.664062 9.996094 7.984375 9.988281 7.992188 C 9.980469 8 9.089844 8 8 8 C 6.910156 8 6.019531 8 6.011719 7.992188 C 6.003906 7.984375 6 7.664062 6 7.28125 C 6 6.589844 6 6.585938 6.046875 6.414062 C 6.304688 5.453125 6.667969 4.667969 8 4.667969 Z M 4 9.332031 C 4 9.332031 3.996094 9.726562 4.003906 11.183594 L 4.007812 12.976562 L 4.070312 13.085938 C 4.117188 13.171875 4.152344 13.210938 4.226562 13.257812 L 4.328125 13.316406 L 5.921875 13.324219 C 6.796875 13.328125 8.4375 13.332031 9.566406 13.332031 L 11.621094 13.332031 L 11.71875 13.289062 C 11.847656 13.234375 11.882812 13.203125 11.941406 13.089844 L 11.992188 13 L 11.992188 11.367188 L 12 9.332031 L 11.972656 9.332031 L 11.941406 9.386719 C 11.804688 9.609375 11.542969 9.8125 10.136719 10.792969 C 9.007812 11.582031 8.261719 12.003906 8.003906 12 C 7.964844 12 7.878906 11.984375 7.820312 11.964844 C 7.433594 11.847656 6.8125 11.460938 5.292969 10.398438 C 4.386719 9.761719 4.195312 9.605469 4.054688 9.382812 L 4.027344 9.332031 Z M 4 9.332031 "/>
</g>
</svg>
