<svg xmlns="http://www.w3.org/2000/svg" xmlns:xlink="http://www.w3.org/1999/xlink" width="16" height="16" viewBox="0 0 16 16" version="1.1">
<g id="surface1">
<path style=" stroke:none;fill-rule:nonzero;fill:rgb(0%,80.000001%,100%);fill-opacity:1;" d="M 11.332031 2.667969 C 10.628906 2.667969 10.046875 3.21875 10.003906 3.921875 L 5.105469 5.257812 C 4.859375 4.886719 4.445312 4.667969 4 4.667969 C 3.261719 4.667969 2.667969 5.261719 2.667969 6 C 2.667969 6.738281 3.261719 7.332031 4 7.332031 C 4.148438 7.332031 4.296875 7.308594 4.4375 7.257812 L 7.554688 11.265625 C 7.410156 11.484375 7.332031 11.738281 7.332031 12 C 7.332031 12.738281 7.929688 13.332031 8.667969 13.332031 C 9.402344 13.332031 10 12.738281 10 12 C 10 11.582031 9.804688 11.191406 9.46875 10.9375 L 11.339844 5.332031 C 12.074219 5.332031 12.667969 4.734375 12.667969 4 C 12.667969 3.261719 12.070312 2.667969 11.332031 2.667969 Z M 10.226562 4.742188 C 10.308594 4.863281 10.410156 4.972656 10.527344 5.0625 L 8.660156 10.667969 C 8.515625 10.667969 8.367188 10.691406 8.230469 10.742188 L 5.113281 6.734375 C 5.242188 6.539062 5.316406 6.3125 5.328125 6.078125 Z M 10.226562 4.742188 "/>
</g>
</svg>
