<svg xmlns="http://www.w3.org/2000/svg" xmlns:xlink="http://www.w3.org/1999/xlink" width="16" height="16" viewBox="0 0 16 16" version="1.1">
<g id="surface1">
<path style=" stroke:none;fill-rule:nonzero;fill:rgb(0%,100%,66.666669%);fill-opacity:1;" d="M 2.667969 4 L 2.667969 12 L 4 12 L 4 4 Z M 5.332031 4 L 5.332031 12 L 8.167969 11.976562 C 10.121094 11.957031 10.304688 11.929688 11.132812 11.527344 C 12.933594 10.648438 13.785156 8.523438 13.09375 6.632812 C 12.636719 5.382812 11.59375 4.457031 10.269531 4.121094 C 9.851562 4.015625 9.589844 4 7.96875 4 Z M 9.507812 5.277344 C 10.039062 5.304688 10.628906 5.523438 11.21875 6.113281 C 11.917969 6.8125 12.09375 7.515625 12.042969 8.117188 L 12.632812 7.527344 L 13.105469 8 L 12.160156 8.941406 L 11.691406 9.414062 L 10.277344 8 L 10.746094 7.527344 L 11.367188 8.148438 C 11.421875 7.679688 11.296875 7.136719 10.746094 6.585938 C 9.332031 5.171875 7.917969 6.585938 7.917969 6.585938 L 7.449219 6.113281 C 7.449219 6.113281 8.339844 5.222656 9.507812 5.277344 Z M 6.976562 6.585938 L 8.390625 8 L 7.917969 8.472656 L 7.300781 7.851562 C 7.242188 8.320312 7.367188 8.863281 7.917969 9.414062 C 9.332031 10.828125 10.746094 9.414062 10.746094 9.414062 L 11.21875 9.886719 C 11.21875 9.886719 9.332031 11.769531 7.449219 9.886719 C 6.75 9.1875 6.574219 8.484375 6.621094 7.882812 L 6.035156 8.472656 L 5.5625 8 Z M 6.976562 6.585938 "/>
</g>
</svg>
