<svg xmlns="http://www.w3.org/2000/svg" xmlns:xlink="http://www.w3.org/1999/xlink" width="16" height="16" viewBox="0 0 16 16" version="1.1">
<g id="surface1">
<path style=" stroke:none;fill-rule:nonzero;fill:rgb(0%,80.000001%,100%);fill-opacity:1;" d="M 2.667969 4 L 2.667969 12 L 4 12 L 4 4 Z M 5.332031 4 L 5.332031 12 L 8.167969 11.976562 C 10.121094 11.957031 10.304688 11.929688 11.132812 11.527344 C 12.933594 10.648438 13.785156 8.523438 13.09375 6.632812 C 12.636719 5.382812 11.59375 4.457031 10.269531 4.121094 C 9.851562 4.015625 9.589844 4 7.96875 4 Z M 9.332031 5.332031 C 10.320312 5.332031 10.941406 5.707031 11.332031 6.167969 L 11.332031 5.332031 L 12 5.332031 L 12 7.332031 L 10 7.332031 L 10 6.667969 L 10.875 6.667969 C 10.585938 6.296875 10.113281 6 9.332031 6 C 7.332031 6 7.332031 8 7.332031 8 L 6.667969 8 C 6.667969 8 6.667969 5.332031 9.332031 5.332031 Z M 11.332031 8 L 12 8 C 12 8 12 10.667969 9.332031 10.667969 C 8.34375 10.667969 7.726562 10.292969 7.332031 9.832031 L 7.332031 10.667969 L 6.667969 10.667969 L 6.667969 8.667969 L 8.667969 8.667969 L 8.667969 9.332031 L 7.792969 9.332031 C 8.082031 9.703125 8.554688 10 9.332031 10 C 11.332031 10 11.332031 8 11.332031 8 Z M 11.332031 8 "/>
</g>
</svg>
