<svg xmlns="http://www.w3.org/2000/svg" xmlns:xlink="http://www.w3.org/1999/xlink" width="16" height="16" viewBox="0 0 16 16" version="1.1">
<g id="surface1">
<path style=" stroke:none;fill-rule:nonzero;fill:rgb(100%,30.980393%,30.980393%);fill-opacity:1;" d="M 3.464844 2.667969 C 3.023438 2.667969 2.667969 3.023438 2.667969 3.464844 L 2.667969 12.535156 C 2.667969 12.976562 3.023438 13.332031 3.464844 13.332031 L 12.535156 13.332031 C 12.976562 13.332031 13.332031 12.976562 13.332031 12.535156 L 13.332031 3.464844 C 13.332031 3.023438 12.976562 2.667969 12.535156 2.667969 Z M 4 4 L 12 4 L 12 12 L 4 12 Z M 5.964844 4.648438 C 5.835938 4.648438 5.65625 4.695312 5.308594 4.820312 C 5.273438 4.832031 5.273438 4.832031 5.246094 4.84375 L 5.269531 4.933594 C 5.488281 4.875 5.527344 4.867188 5.582031 4.867188 C 5.722656 4.867188 5.757812 4.921875 5.835938 5.273438 L 6 6 L 5.539062 6.691406 C 5.421875 6.867188 5.316406 6.972656 5.253906 6.972656 C 5.21875 6.972656 5.160156 6.957031 5.105469 6.921875 C 5.03125 6.878906 4.976562 6.863281 4.925781 6.863281 C 4.8125 6.863281 4.734375 6.949219 4.734375 7.066406 C 4.734375 7.222656 4.839844 7.316406 5.015625 7.316406 C 5.191406 7.316406 5.257812 7.261719 5.539062 6.910156 C 5.691406 6.714844 5.816406 6.535156 6.046875 6.210938 L 6.214844 6.921875 C 6.285156 7.226562 6.359375 7.316406 6.539062 7.316406 C 6.753906 7.316406 6.898438 7.175781 7.226562 6.644531 L 7.148438 6.597656 C 7.101562 6.648438 7.074219 6.683594 7.023438 6.753906 C 6.894531 6.933594 6.828125 6.992188 6.761719 6.992188 C 6.683594 6.992188 6.628906 6.914062 6.589844 6.75 C 6.574219 6.683594 6.574219 6.671875 6.566406 6.65625 C 6.425781 6.054688 6.367188 5.78125 6.367188 5.691406 C 6.617188 5.234375 6.816406 4.980469 6.917969 4.980469 C 6.949219 4.980469 7 4.996094 7.050781 5.027344 C 7.121094 5.066406 7.160156 5.078125 7.210938 5.078125 C 7.320312 5.078125 7.402344 4.992188 7.402344 4.867188 C 7.402344 4.738281 7.304688 4.648438 7.171875 4.648438 C 6.921875 4.648438 6.714844 4.859375 6.320312 5.492188 L 6.257812 5.167969 C 6.179688 4.765625 6.117188 4.648438 5.964844 4.648438 Z M 8 6.667969 L 8 7.332031 L 11.332031 7.332031 L 11.332031 6.667969 Z M 6 8.667969 C 5.601562 8.667969 5.28125 8.777344 5.035156 9 C 4.789062 9.222656 4.667969 9.488281 4.667969 9.800781 C 4.667969 10.085938 4.753906 10.320312 4.933594 10.507812 C 5.109375 10.691406 5.304688 10.804688 5.519531 10.847656 L 5.523438 10.976562 L 5.054688 10.976562 C 4.941406 10.976562 4.859375 10.957031 4.808594 10.921875 C 4.757812 10.886719 4.730469 10.824219 4.726562 10.730469 L 4.652344 10.730469 L 4.652344 11.332031 L 5.699219 11.332031 L 5.660156 10.753906 C 5.457031 10.683594 5.320312 10.5625 5.25 10.386719 C 5.175781 10.214844 5.140625 10.019531 5.140625 9.808594 C 5.140625 9.515625 5.222656 9.277344 5.378906 9.089844 C 5.539062 8.902344 5.742188 8.808594 5.988281 8.808594 C 6.214844 8.808594 6.414062 8.894531 6.585938 9.070312 C 6.757812 9.25 6.84375 9.503906 6.84375 9.835938 C 6.84375 10.34375 6.667969 10.648438 6.320312 10.753906 L 6.269531 11.332031 L 7.316406 11.332031 L 7.316406 10.730469 L 7.242188 10.730469 C 7.238281 10.800781 7.21875 10.859375 7.175781 10.90625 C 7.136719 10.953125 7.050781 10.976562 6.921875 10.976562 L 6.445312 10.976562 L 6.464844 10.847656 C 6.722656 10.773438 6.929688 10.648438 7.082031 10.460938 C 7.234375 10.277344 7.308594 10.050781 7.308594 9.785156 C 7.308594 9.457031 7.1875 9.191406 6.941406 8.980469 C 6.699219 8.773438 6.382812 8.667969 6 8.667969 Z M 8 8.667969 L 8 9.332031 L 11.332031 9.332031 L 11.332031 8.667969 Z M 8 8.667969 "/>
</g>
</svg>
