<svg xmlns="http://www.w3.org/2000/svg" xmlns:xlink="http://www.w3.org/1999/xlink" width="16" height="16" viewBox="0 0 16 16" version="1.1">
<g id="surface1">
<path style=" stroke:none;fill-rule:nonzero;fill:rgb(67.058825%,40.000001%,100%);fill-opacity:1;" d="M 7.332031 2.667969 C 4.757812 2.667969 2.667969 5.054688 2.667969 8 C 2.667969 10.945312 4.757812 13.332031 7.332031 13.332031 C 8.230469 13.332031 9.109375 13.035156 9.863281 12.476562 L 9.007812 11.453125 C 8.5 11.804688 7.921875 11.988281 7.332031 11.984375 C 5.492188 11.984375 4 10.195312 4 7.984375 C 4 5.777344 5.492188 3.984375 7.332031 3.984375 C 8.484375 3.984375 9.550781 4.699219 10.160156 5.867188 L 11.988281 7.695312 C 11.832031 4.886719 9.796875 2.699219 7.332031 2.695312 Z M 9.332031 6 L 10.667969 9 L 8.667969 10 L 12 14 L 10.667969 10.667969 L 12.667969 9.332031 Z M 9.332031 6 "/>
</g>
</svg>
