<svg xmlns="http://www.w3.org/2000/svg" xmlns:xlink="http://www.w3.org/1999/xlink" width="16" height="16" viewBox="0 0 16 16" version="1.1">
<g id="surface1">
<path style=" stroke:none;fill-rule:nonzero;fill:rgb(0%,80.000001%,100%);fill-opacity:1;" d="M 4.683594 2.667969 C 3.023438 2.667969 1.777344 4.003906 1.691406 5.65625 L 1.359375 11.960938 C 1.148438 13.195312 2.347656 13.972656 3.355469 12.625 C 3.980469 11.773438 5.332031 10 5.332031 10 L 10.667969 10.027344 L 12.660156 12.707031 C 13.660156 14.050781 14.785156 12.945312 14.65625 12.039062 L 14.324219 5.722656 C 14.328125 5.699219 14.332031 5.679688 14.332031 5.65625 C 14.332031 4 12.996094 2.667969 11.339844 2.667969 Z M 4 4 L 5.332031 4 L 5.332031 5.332031 L 6.667969 5.332031 L 6.667969 6.667969 L 5.332031 6.667969 L 5.332031 8 L 4 8 L 4 6.667969 L 2.667969 6.667969 L 2.667969 5.332031 L 4 5.332031 Z M 11.332031 4 C 11.703125 4 12 4.296875 12 4.667969 C 12 5.035156 11.703125 5.332031 11.332031 5.332031 C 10.964844 5.332031 10.667969 5.035156 10.667969 4.667969 C 10.667969 4.296875 10.964844 4 11.332031 4 Z M 10 5.332031 C 10.367188 5.332031 10.667969 5.632812 10.667969 6 C 10.667969 6.367188 10.367188 6.667969 10 6.667969 C 9.632812 6.667969 9.332031 6.367188 9.332031 6 C 9.332031 5.632812 9.632812 5.332031 10 5.332031 Z M 12.667969 5.332031 C 13.035156 5.332031 13.332031 5.632812 13.332031 6 C 13.332031 6.367188 13.035156 6.667969 12.667969 6.667969 C 12.300781 6.667969 12 6.367188 12 6 C 12 5.632812 12.300781 5.332031 12.667969 5.332031 Z M 11.332031 6.667969 C 11.703125 6.667969 12 6.964844 12 7.332031 C 12 7.703125 11.703125 8 11.332031 8 C 10.964844 8 10.667969 7.703125 10.667969 7.332031 C 10.667969 6.964844 10.964844 6.667969 11.332031 6.667969 Z M 11.332031 6.667969 "/>
</g>
</svg>
