<svg xmlns="http://www.w3.org/2000/svg" xmlns:xlink="http://www.w3.org/1999/xlink" width="16" height="16" viewBox="0 0 16 16" version="1.1">
<g id="surface1">
<path style=" stroke:none;fill-rule:nonzero;fill:rgb(0%,80.000001%,100%);fill-opacity:1;" d="M 3.90625 2.667969 C 3.582031 2.660156 3.265625 2.769531 3.03125 2.972656 C 2.796875 3.179688 2.664062 3.457031 2.664062 3.75 L 2.664062 12.25 C 2.664062 12.636719 2.898438 12.996094 3.273438 13.1875 C 3.648438 13.382812 4.109375 13.382812 4.484375 13.1875 L 12.726562 8.9375 C 13.101562 8.742188 13.332031 8.386719 13.332031 8 C 13.332031 7.613281 13.101562 7.253906 12.726562 7.0625 L 4.484375 2.8125 C 4.308594 2.71875 4.109375 2.671875 3.90625 2.667969 Z M 4.664062 4.667969 L 7.664062 6.332031 L 10.664062 8 L 7.664062 9.664062 L 4.664062 11.332031 Z M 4.664062 4.667969 "/>
</g>
</svg>
