<svg xmlns="http://www.w3.org/2000/svg" xmlns:xlink="http://www.w3.org/1999/xlink" width="16" height="16" viewBox="0 0 16 16" version="1.1">
<g id="surface1">
<path style=" stroke:none;fill-rule:nonzero;fill:rgb(0%,100%,66.666669%);fill-opacity:1;" d="M 8 2.667969 C 5.054688 2.667969 2.667969 5.054688 2.667969 8 C 2.667969 10.945312 5.054688 13.332031 8 13.332031 C 8.96875 13.332031 9.914062 13.066406 10.742188 12.566406 C 11.121094 12.992188 11.460938 13.429688 11.722656 13.855469 L 13.023438 13.058594 C 12.71875 12.5625 12.339844 12.070312 11.925781 11.601562 C 12.828125 10.621094 13.332031 9.335938 13.332031 8 C 13.332031 5.054688 10.945312 2.667969 8 2.667969 Z M 8 4.570312 C 9.683594 4.570312 11.046875 6.105469 11.046875 8 C 11.046875 8.777344 10.808594 9.53125 10.378906 10.140625 C 10.332031 10.105469 10.292969 10.066406 10.25 10.03125 C 9.148438 9.199219 7.941406 8.578125 6.703125 8.675781 L 6.824219 10.195312 C 7.378906 10.152344 8.292969 10.507812 9.1875 11.152344 C 8.8125 11.332031 8.40625 11.425781 8 11.429688 C 6.316406 11.429688 4.953125 9.894531 4.953125 8 C 4.953125 6.105469 6.316406 4.570312 8 4.570312 Z M 8 4.570312 "/>
</g>
</svg>
