<svg xmlns="http://www.w3.org/2000/svg" xmlns:xlink="http://www.w3.org/1999/xlink" width="16" height="16" viewBox="0 0 16 16" version="1.1">
<g id="surface1">
<path style=" stroke:none;fill-rule:nonzero;fill:rgb(67.058825%,40.000001%,100%);fill-opacity:1;" d="M 8 2.667969 C 6.527344 2.667969 5.332031 3.859375 5.332031 5.332031 L 5.332031 6.667969 L 4 6.667969 C 3.632812 6.667969 3.332031 6.964844 3.332031 7.332031 L 3.332031 12.667969 C 3.332031 13.035156 3.632812 13.332031 4 13.332031 L 12 13.332031 C 12.367188 13.332031 12.667969 13.035156 12.667969 12.667969 L 12.667969 7.332031 C 12.667969 6.964844 12.367188 6.667969 12 6.667969 L 10.667969 6.667969 L 10.667969 5.332031 C 10.667969 3.859375 9.472656 2.667969 8 2.667969 Z M 8 4 C 8.738281 4 9.332031 4.597656 9.332031 5.332031 C 9.332031 5.648438 9.265625 5.894531 9.175781 6.070312 C 9.085938 6.25 8.890625 6.484375 8.667969 6.667969 C 8.445312 6.84375 8 7.066406 8 7.066406 C 8 7.066406 8.203125 6.824219 8.285156 6.632812 C 8.191406 6.652344 8.097656 6.667969 8 6.667969 C 7.265625 6.667969 6.667969 6.070312 6.667969 5.332031 C 6.667969 4.597656 7.261719 4 8 4 Z M 8 7.332031 C 9.472656 7.332031 10.667969 8.527344 10.667969 10 C 10.667969 11.472656 9.472656 12.667969 8 12.667969 C 6.527344 12.667969 5.332031 11.472656 5.332031 10 C 5.332031 8.527344 6.527344 7.332031 8 7.332031 Z M 8 8 C 6.894531 8 6 8.894531 6 10 C 6 11.105469 6.894531 12 8 12 C 9.105469 12 10 11.105469 10 10 C 10 8.894531 9.105469 8 8 8 Z M 8 8 "/>
</g>
</svg>
