<svg xmlns="http://www.w3.org/2000/svg" xmlns:xlink="http://www.w3.org/1999/xlink" width="16" height="16" viewBox="0 0 16 16" version="1.1">
<defs>
<filter id="alpha" filterUnits="objectBoundingBox" x="0%" y="0%" width="100%" height="100%">
  <feColorMatrix type="matrix" in="SourceGraphic" values="0 0 0 0 1 0 0 0 0 1 0 0 0 0 1 0 0 0 1 0"/>
</filter>
<mask id="mask0">
  <g filter="url(#alpha)">
<rect x="0" y="0" width="16" height="16" style="fill:rgb(0%,0%,0%);fill-opacity:0.3;stroke:none;"/>
  </g>
</mask>
<clipPath id="clip1">
  <rect x="0" y="0" width="16" height="16"/>
</clipPath>
<g id="surface5" clip-path="url(#clip1)">
<path style=" stroke:none;fill-rule:nonzero;fill:rgb(67.058825%,40.000001%,100%);fill-opacity:1;" d="M 8 2.667969 C 7.15625 2.667969 6.429688 3.039062 5.980469 3.601562 C 5.53125 4.164062 5.332031 4.875 5.332031 5.601562 L 5.332031 10 L 6.667969 10 L 6.667969 5.601562 C 6.667969 5.125 6.804688 4.703125 7.019531 4.433594 C 7.238281 4.160156 7.511719 4 8 4 C 8.488281 4 8.761719 4.160156 8.980469 4.433594 C 9.195312 4.703125 9.332031 5.125 9.332031 5.601562 L 9.332031 10 L 10.667969 10 L 10.667969 5.601562 C 10.667969 4.875 10.46875 4.164062 10.019531 3.601562 C 9.570312 3.039062 8.84375 2.667969 8 2.667969 Z M 8 2.667969 "/>
</g>
</defs>
<g id="surface1">
<use xlink:href="#surface5" mask="url(#mask0)"/>
<path style=" stroke:none;fill-rule:nonzero;fill:rgb(67.058825%,40.000001%,100%);fill-opacity:1;" d="M 6.238281 6.003906 C 4.957031 5.945312 4.066406 6.992188 4.003906 8.125 C 3.96875 8.710938 4.160156 9.324219 4.632812 9.816406 L 8 13.332031 L 11.367188 9.816406 C 11.839844 9.324219 12.03125 8.710938 11.996094 8.125 C 11.933594 6.992188 11.042969 5.945312 9.761719 6.003906 C 9.03125 6.035156 8.367188 6.457031 8 7.117188 C 7.632812 6.457031 6.96875 6.035156 6.238281 6.003906 Z M 7.335938 8 L 8.664062 8 L 8.664062 9.332031 L 8.347656 9.332031 L 9 10.667969 L 7 10.667969 L 7.652344 9.332031 L 7.335938 9.332031 Z M 7.335938 8 "/>
</g>
</svg>
