<svg xmlns="http://www.w3.org/2000/svg" xmlns:xlink="http://www.w3.org/1999/xlink" width="16" height="16" viewBox="0 0 16 16" version="1.1">
<g id="surface1">
<path style=" stroke:none;fill-rule:nonzero;fill:rgb(0%,80.000001%,100%);fill-opacity:1;" d="M 4.109375 2.667969 C 3.332031 2.667969 3.332031 3.429688 3.332031 3.429688 L 3.332031 12.570312 C 3.332031 12.570312 3.332031 13.332031 4.109375 13.332031 L 11.890625 13.332031 C 11.890625 13.332031 12.667969 13.332031 12.667969 12.570312 L 12.667969 3.429688 C 12.667969 3.429688 12.667969 2.667969 11.890625 2.667969 Z M 8 4 C 9.839844 4 11.332031 5.492188 11.332031 7.332031 C 11.332031 9.175781 9.839844 10.667969 8 10.667969 L 4.667969 10.667969 L 4.667969 7.332031 C 4.667969 5.492188 6.160156 4 8 4 Z M 8 5.332031 C 6.894531 5.332031 6 6.230469 6 7.332031 C 6 8.4375 6.894531 9.332031 8 9.332031 C 9.105469 9.332031 10 8.4375 10 7.332031 C 10 6.230469 9.105469 5.332031 8 5.332031 Z M 8 5.332031 "/>
</g>
</svg>
