<svg xmlns="http://www.w3.org/2000/svg" xmlns:xlink="http://www.w3.org/1999/xlink" width="16" height="16" viewBox="0 0 16 16" version="1.1">
<g id="surface1">
<path style=" stroke:none;fill-rule:evenodd;fill:rgb(96.862745%,0%,100%);fill-opacity:1;" d="M 8.617188 5.863281 C 9.863281 5.878906 10.023438 6.84375 10.386719 6.867188 C 10.835938 6.898438 11.09375 7.460938 10.910156 7.839844 C 10.730469 8.21875 10.449219 8.027344 10.441406 8.476562 C 10.433594 8.742188 10.554688 8.9375 10.65625 8.941406 C 10.933594 8.726562 11.230469 8.722656 11.375 8.859375 C 11.523438 9 11.523438 9.28125 11.523438 9.636719 C 12.1875 10.398438 12.351562 10.457031 12.527344 10.8125 C 12.664062 11.089844 12.796875 11.582031 12.429688 11.742188 C 12.167969 12.785156 11.425781 13.144531 10.683594 13.050781 C 10.4375 13.027344 9.796875 13.53125 8.46875 13.246094 C 7.441406 13.027344 2.835938 11.902344 3.378906 9.832031 C 3.855469 8.003906 5.5 3.914062 5.988281 3.441406 C 5.988281 3.441406 5.890625 4.4375 6.324219 4.84375 C 6.511719 3.234375 7.726562 2.71875 8.152344 2.667969 C 7.734375 3.164062 7.523438 3.734375 7.644531 4.226562 C 8.59375 3.050781 10.179688 3.171875 10.910156 3.558594 C 7.746094 4.117188 8.621094 5.863281 8.621094 5.863281 Z M 8.617188 5.863281 "/>
</g>
</svg>
