<svg xmlns="http://www.w3.org/2000/svg" xmlns:xlink="http://www.w3.org/1999/xlink" width="16" height="16" viewBox="0 0 16 16" version="1.1">
<g id="surface1">
<path style=" stroke:none;fill-rule:nonzero;fill:rgb(0%,80.000001%,100%);fill-opacity:1;" d="M 8.753906 2.667969 C 8.503906 2.683594 8.257812 2.75 8.019531 2.871094 C 7.941406 2.910156 7.839844 2.96875 7.789062 3.003906 C 7.28125 3.339844 6.847656 3.820312 6.542969 4.519531 C 6.46875 4.691406 6.371094 4.960938 6.359375 5.015625 C 6.347656 5.066406 6.328125 5.0625 6.269531 5.003906 C 6.039062 4.785156 5.753906 4.667969 5.476562 4.683594 C 5.195312 4.699219 4.953125 4.816406 4.71875 5.054688 C 4.535156 5.238281 4.402344 5.441406 4.285156 5.707031 C 4.136719 6.050781 4.066406 6.355469 4.027344 6.828125 L 4.019531 6.898438 L 3.917969 6.964844 C 3.355469 7.34375 2.917969 8.265625 2.746094 9.210938 C 2.515625 10.476562 2.792969 11.789062 3.445312 12.621094 C 3.523438 12.714844 3.707031 12.90625 3.792969 12.972656 C 4.042969 13.175781 4.296875 13.289062 4.597656 13.328125 L 4.601562 13.328125 C 4.617188 13.328125 6.183594 13.332031 8.082031 13.332031 C 11.863281 13.335938 11.605469 13.339844 11.808594 13.273438 C 12.164062 13.164062 12.515625 12.863281 12.769531 12.457031 C 13.207031 11.761719 13.40625 10.804688 13.308594 9.84375 C 13.179688 8.5625 12.574219 7.519531 12.09375 7.339844 L 12.011719 7.316406 L 12.007812 7.226562 C 11.988281 6.488281 11.949219 6.121094 11.835938 5.609375 C 11.523438 4.210938 10.410156 3.128906 9.5 2.785156 C 9.253906 2.695312 9 2.65625 8.753906 2.667969 Z M 7.144531 6 C 7.664062 5.996094 8.175781 6.027344 8.585938 6.101562 C 8.871094 6.152344 9.125 6.222656 9.375 6.316406 C 9.949219 6.535156 10.417969 6.898438 10.597656 7.375 C 10.71875 7.695312 10.664062 8.621094 10.566406 9.015625 C 10.480469 9.359375 10.257812 9.773438 9.976562 10.019531 L 11.007812 12 L 9.3125 12 L 8.730469 10.59375 C 8.484375 10.625 8.238281 10.648438 7.945312 10.679688 C 7.71875 10.699219 7.277344 10.695312 6.972656 10.675781 C 6.839844 10.667969 6.746094 10.65625 6.734375 10.65625 C 6.722656 10.652344 6.710938 10.65625 6.703125 10.664062 C 6.695312 10.671875 6.699219 10.277344 6.699219 10.707031 L 6.695312 11.988281 L 5.796875 11.988281 L 5.332031 11.992188 L 5.335938 8.761719 L 5.339844 6.199219 L 5.375 6.1875 C 5.394531 6.183594 5.511719 6.160156 5.628906 6.136719 C 6.085938 6.054688 6.621094 6.007812 7.144531 6 Z M 7.144531 6 "/>
<path style=" stroke:none;fill-rule:nonzero;fill:rgb(25.882354%,52.156866%,95.686275%);fill-opacity:1;" d="M 7.699219 7.335938 C 7.402344 7.332031 7.054688 7.359375 6.792969 7.40625 C 6.742188 7.417969 6.699219 7.425781 6.695312 7.425781 C 6.691406 7.425781 6.683594 7.429688 6.679688 7.433594 C 6.667969 7.445312 6.667969 7.535156 6.667969 8.351562 C 6.667969 8.859375 6.667969 9.261719 6.671875 9.265625 C 6.683594 9.28125 6.90625 9.3125 7.105469 9.328125 C 7.300781 9.339844 7.835938 9.332031 8.027344 9.3125 C 8.296875 9.285156 8.554688 9.226562 8.742188 9.144531 C 8.96875 9.046875 9.132812 8.910156 9.230469 8.730469 C 9.296875 8.613281 9.324219 8.511719 9.332031 8.355469 C 9.347656 8.089844 9.257812 7.867188 9.066406 7.699219 C 8.835938 7.496094 8.5 7.386719 7.976562 7.34375 C 7.894531 7.339844 7.800781 7.335938 7.699219 7.335938 Z M 7.699219 7.335938 "/>
</g>
</svg>
