<svg xmlns="http://www.w3.org/2000/svg" xmlns:xlink="http://www.w3.org/1999/xlink" width="16" height="16" viewBox="0 0 16 16" version="1.1">
<defs>
<filter id="alpha" filterUnits="objectBoundingBox" x="0%" y="0%" width="100%" height="100%">
  <feColorMatrix type="matrix" in="SourceGraphic" values="0 0 0 0 1 0 0 0 0 1 0 0 0 0 1 0 0 0 1 0"/>
</filter>
<mask id="mask0">
  <g filter="url(#alpha)">
<rect x="0" y="0" width="16" height="16" style="fill:rgb(0%,0%,0%);fill-opacity:0.35;stroke:none;"/>
  </g>
</mask>
<clipPath id="clip1">
  <rect x="0" y="0" width="16" height="16"/>
</clipPath>
<g id="surface5" clip-path="url(#clip1)">
<path style=" stroke:none;fill-rule:nonzero;fill:rgb(100%,74.901962%,0%);fill-opacity:1;" d="M 8 2.625 C 6.105469 2.625 4.570312 4.167969 4.570312 6.0625 C 4.570312 7.1875 5.101562 8.171875 5.933594 8.796875 C 6.3125 9.085938 6.628906 9.460938 6.628906 9.972656 L 6.667969 10.625 L 9.332031 10.625 L 9.371094 9.972656 C 9.402344 9.460938 9.6875 9.085938 10.066406 8.796875 C 10.898438 8.171875 11.429688 7.1875 11.429688 6.0625 C 11.429688 4.167969 9.894531 2.625 8 2.625 Z M 8 4 C 9.136719 4 10.058594 4.925781 10.058594 6.0625 C 10.058594 6.714844 9.761719 7.3125 9.242188 7.699219 C 8.46875 8.285156 8.175781 8.941406 8.070312 9.484375 L 7.929688 9.484375 C 7.824219 8.941406 7.53125 8.285156 6.757812 7.699219 C 6.238281 7.3125 5.941406 6.714844 5.941406 6.0625 C 5.941406 4.925781 6.863281 4 8 4 Z M 6.667969 11.292969 L 6.667969 11.960938 L 9.332031 11.960938 L 9.332031 11.292969 Z M 7.332031 12.625 L 7.332031 13.292969 L 8.667969 13.292969 L 8.667969 12.625 Z M 7.332031 12.625 "/>
</g>
</defs>
<g id="surface1">
<use xlink:href="#surface5" mask="url(#mask0)"/>
</g>
</svg>
