<svg xmlns="http://www.w3.org/2000/svg" xmlns:xlink="http://www.w3.org/1999/xlink" width="16" height="16" viewBox="0 0 16 16" version="1.1">
<g id="surface1">
<path style=" stroke:none;fill-rule:nonzero;fill:rgb(100%,30.980393%,30.980393%);fill-opacity:1;" d="M 8 2.667969 C 5.054688 2.667969 2.667969 5.054688 2.667969 8 C 2.667969 8.898438 2.894531 9.785156 3.328125 10.570312 L 4.445312 9.828125 C 4.152344 9.261719 4 8.636719 4 8 C 4 5.789062 5.789062 4 8 4 C 9.183594 4 10.304688 4.527344 11.0625 5.433594 L 12.175781 4.691406 C 11.167969 3.414062 9.628906 2.667969 8 2.667969 Z M 6 5.066406 L 6 6.359375 L 6.859375 6.933594 L 6 7.507812 L 6 8.800781 L 8.800781 6.933594 Z M 12.675781 5.433594 L 11.558594 6.175781 C 11.847656 6.742188 12 7.367188 12 8 C 12 10.210938 10.210938 12 8 12 C 6.820312 12 5.699219 11.476562 4.941406 10.570312 L 3.828125 11.3125 C 4.835938 12.585938 6.375 13.332031 8 13.332031 C 10.945312 13.332031 13.332031 10.945312 13.332031 8 C 13.332031 7.101562 13.105469 6.21875 12.675781 5.433594 Z M 10 7.199219 L 7.199219 9.066406 L 10 10.933594 L 10 9.640625 L 9.140625 9.066406 L 10 8.492188 Z M 10 7.199219 "/>
</g>
</svg>
