<svg xmlns="http://www.w3.org/2000/svg" xmlns:xlink="http://www.w3.org/1999/xlink" width="16" height="16" viewBox="0 0 16 16" version="1.1">
<g id="surface1">
<path style=" stroke:none;fill-rule:evenodd;fill:rgb(0%,80.000001%,100%);fill-opacity:1;" d="M 6 2.667969 L 6 6 L 2.667969 6 L 2.667969 10 L 6 10 L 6 13.332031 L 10 13.332031 L 10 10 L 13.332031 10 L 13.332031 6 L 10 6 L 10 2.667969 Z M 8 4 C 8.371094 4 8.667969 4.296875 8.667969 4.667969 L 8.667969 6.847656 C 8.867188 6.964844 9.035156 7.132812 9.152344 7.332031 L 11.332031 7.332031 C 11.703125 7.332031 12 7.628906 12 8 C 12 8.367188 11.703125 8.667969 11.332031 8.667969 L 9.152344 8.667969 C 8.914062 9.078125 8.476562 9.332031 8 9.332031 C 7.265625 9.332031 6.667969 8.734375 6.667969 8 C 6.667969 7.523438 6.921875 7.085938 7.332031 6.847656 L 7.332031 4.667969 C 7.332031 4.296875 7.632812 4 8 4 Z M 8 4 "/>
</g>
</svg>
