<svg xmlns="http://www.w3.org/2000/svg" xmlns:xlink="http://www.w3.org/1999/xlink" width="16" height="16" viewBox="0 0 16 16" version="1.1">
<g id="surface1">
<path style=" stroke:none;fill-rule:evenodd;fill:rgb(100%,74.901962%,0%);fill-opacity:1;" d="M 5 13.332031 C 4.445312 13.332031 4 12.886719 4 12.332031 L 4 3.667969 C 4 3.113281 4.445312 2.667969 5 2.667969 L 10.332031 2.667969 C 10.886719 2.667969 11.332031 3.113281 11.332031 3.667969 L 11.332031 12.332031 C 11.332031 12.886719 10.886719 13.332031 10.332031 13.332031 Z M 7.667969 12 C 8.957031 12 10 10.957031 10 9.667969 C 10 8.378906 8.957031 7.332031 7.667969 7.332031 C 6.378906 7.332031 5.332031 8.378906 5.332031 9.667969 C 5.332031 10.957031 6.378906 12 7.667969 12 Z M 7.667969 10.667969 C 7.113281 10.667969 6.667969 10.21875 6.667969 9.667969 C 6.667969 9.113281 7.113281 8.667969 7.667969 8.667969 C 8.21875 8.667969 8.667969 9.113281 8.667969 9.667969 C 8.667969 10.21875 8.21875 10.667969 7.667969 10.667969 Z M 6 5.332031 C 6.367188 5.332031 6.667969 5.035156 6.667969 4.667969 C 6.667969 4.296875 6.367188 4 6 4 C 5.632812 4 5.332031 4.296875 5.332031 4.667969 C 5.332031 5.035156 5.632812 5.332031 6 5.332031 Z M 9.332031 5.332031 C 9.703125 5.332031 10 5.035156 10 4.667969 C 10 4.296875 9.703125 4 9.332031 4 C 8.964844 4 8.667969 4.296875 8.667969 4.667969 C 8.667969 5.035156 8.964844 5.332031 9.332031 5.332031 Z M 9.332031 5.332031 "/>
</g>
</svg>
