<svg xmlns="http://www.w3.org/2000/svg" xmlns:xlink="http://www.w3.org/1999/xlink" width="16" height="16" viewBox="0 0 16 16" version="1.1">
<defs>
<filter id="alpha" filterUnits="objectBoundingBox" x="0%" y="0%" width="100%" height="100%">
  <feColorMatrix type="matrix" in="SourceGraphic" values="0 0 0 0 1 0 0 0 0 1 0 0 0 0 1 0 0 0 1 0"/>
</filter>
<mask id="mask0">
  <g filter="url(#alpha)">
<rect x="0" y="0" width="16" height="16" style="fill:rgb(0%,0%,0%);fill-opacity:0.3;stroke:none;"/>
  </g>
</mask>
<clipPath id="clip1">
  <rect x="0" y="0" width="16" height="16"/>
</clipPath>
<g id="surface5" clip-path="url(#clip1)">
<path style=" stroke:none;fill-rule:nonzero;fill:rgb(100%,30.980393%,30.980393%);fill-opacity:1;" d="M 8 2.667969 C 5.046875 2.667969 2.667969 5.046875 2.667969 8 C 2.667969 10.953125 5.046875 13.332031 8 13.332031 C 10.953125 13.332031 13.328125 10.957031 13.332031 8.007812 C 13.332031 8.003906 13.332031 8.003906 13.332031 8 C 13.332031 5.046875 10.953125 2.667969 8 2.667969 Z M 8.058594 4 C 9.097656 4.015625 10.09375 4.4375 10.828125 5.171875 C 12.390625 6.734375 12.390625 9.265625 10.828125 10.828125 C 9.265625 12.390625 6.734375 12.390625 5.171875 10.828125 C 3.609375 9.265625 3.609375 6.734375 5.171875 5.171875 C 5.9375 4.40625 6.976562 3.984375 8.058594 4 Z M 8 4.667969 L 8 8 L 11.332031 8.003906 L 11.332031 8 C 11.332031 6.152344 9.847656 4.667969 8 4.667969 Z M 5.332031 7.332031 C 4.964844 7.332031 4.667969 7.632812 4.667969 8 C 4.667969 8.367188 4.964844 8.667969 5.332031 8.667969 C 5.703125 8.667969 6 8.367188 6 8 C 6 7.632812 5.703125 7.332031 5.332031 7.332031 Z M 8 10 C 7.632812 10 7.332031 10.296875 7.332031 10.667969 C 7.332031 11.035156 7.632812 11.332031 8 11.332031 C 8.367188 11.332031 8.667969 11.035156 8.667969 10.667969 C 8.667969 10.296875 8.367188 10 8 10 Z M 8 10 "/>
</g>
</defs>
<g id="surface1">
<use xlink:href="#surface5" mask="url(#mask0)"/>
</g>
</svg>
