<svg xmlns="http://www.w3.org/2000/svg" xmlns:xlink="http://www.w3.org/1999/xlink" width="16" height="16" viewBox="0 0 16 16" version="1.1">
<defs>
<filter id="alpha" filterUnits="objectBoundingBox" x="0%" y="0%" width="100%" height="100%">
  <feColorMatrix type="matrix" in="SourceGraphic" values="0 0 0 0 1 0 0 0 0 1 0 0 0 0 1 0 0 0 1 0"/>
</filter>
<mask id="mask0">
  <g filter="url(#alpha)">
<rect x="0" y="0" width="16" height="16" style="fill:rgb(0%,0%,0%);fill-opacity:0.3;stroke:none;"/>
  </g>
</mask>
<clipPath id="clip1">
  <rect x="0" y="0" width="16" height="16"/>
</clipPath>
<g id="surface5" clip-path="url(#clip1)">
<path style=" stroke:none;fill-rule:nonzero;fill:rgb(67.058825%,40.000001%,100%);fill-opacity:1;" d="M 4.683594 3.332031 L 4.683594 3.335938 C 3.023438 3.335938 1.777344 4.667969 1.691406 6.320312 L 1.359375 11.960938 C 1.148438 13.195312 2.347656 13.972656 3.355469 12.625 C 3.980469 11.773438 5.332031 10 5.332031 10 L 10.667969 10.027344 L 12.660156 12.707031 C 13.65625 14.050781 14.78125 12.945312 14.65625 12.039062 L 14.324219 6.390625 C 14.324219 6.367188 14.332031 6.34375 14.332031 6.320312 C 14.332031 4.667969 12.996094 3.332031 11.339844 3.332031 L 8 3.332031 C 9.839844 3.332031 11.332031 4.824219 11.332031 6.667969 C 11.332031 8.507812 9.839844 10 8 10 C 6.160156 10 4.667969 8.507812 4.667969 6.667969 C 4.667969 4.824219 6.160156 3.332031 8 3.332031 Z M 4.683594 3.332031 "/>
</g>
</defs>
<g id="surface1">
<use xlink:href="#surface5" mask="url(#mask0)"/>
<path style=" stroke:none;fill-rule:nonzero;fill:rgb(67.058825%,40.000001%,100%);fill-opacity:1;" d="M 9.886719 4.78125 C 8.84375 3.738281 7.15625 3.738281 6.113281 4.78125 C 5.074219 5.824219 5.074219 7.511719 6.113281 8.550781 C 7.15625 9.59375 8.84375 9.59375 9.886719 8.550781 C 10.925781 7.511719 10.925781 5.824219 9.886719 4.78125 Z M 9.414062 5.253906 C 10.105469 5.941406 10.195312 7.03125 9.628906 7.828125 L 6.84375 5.039062 C 7.636719 4.472656 8.722656 4.566406 9.414062 5.253906 Z M 6.367188 5.507812 L 9.15625 8.292969 C 8.363281 8.859375 7.277344 8.769531 6.585938 8.082031 C 5.894531 7.390625 5.804688 6.304688 6.367188 5.507812 Z M 6.367188 5.507812 "/>
</g>
</svg>
