<svg xmlns="http://www.w3.org/2000/svg" xmlns:xlink="http://www.w3.org/1999/xlink" width="16" height="16" viewBox="0 0 16 16" version="1.1">
<g id="surface1">
<path style=" stroke:none;fill-rule:nonzero;fill:rgb(0%,100%,66.666669%);fill-opacity:1;" d="M 6.332031 4 C 4.308594 4 2.667969 5.640625 2.667969 7.667969 C 2.667969 7.8125 2.679688 7.960938 2.699219 8.105469 C 1.882812 8.378906 1.335938 9.140625 1.332031 10 C 1.332031 11.105469 2.230469 12 3.332031 12 L 12.667969 12 C 13.769531 12 14.667969 11.105469 14.667969 10 C 14.664062 9.152344 14.128906 8.394531 13.328125 8.113281 C 13.332031 8.078125 13.332031 8.039062 13.332031 8 C 13.332031 6.527344 12.140625 5.332031 10.667969 5.332031 C 10.222656 5.335938 9.789062 5.445312 9.398438 5.65625 C 8.722656 4.625 7.570312 4 6.332031 4 Z M 4.65625 5.332031 C 5.023438 5.332031 5.332031 5.632812 5.332031 6 C 5.332031 6.367188 5.023438 6.667969 4.65625 6.667969 C 4.289062 6.667969 4 6.367188 4 6 C 4 5.632812 4.289062 5.332031 4.65625 5.332031 Z M 8 6 C 9.472656 6 10.667969 7.195312 10.667969 8.667969 C 10.667969 10.140625 9.472656 11.332031 8 11.332031 C 6.527344 11.332031 5.332031 10.140625 5.332031 8.667969 C 5.332031 7.195312 6.527344 6 8 6 Z M 8 7.332031 C 7.261719 7.332031 6.667969 7.929688 6.667969 8.667969 C 6.667969 9.402344 7.261719 10 8 10 C 8.738281 10 9.332031 9.402344 9.332031 8.667969 C 9.332031 7.929688 8.738281 7.332031 8 7.332031 Z M 8 7.332031 "/>
</g>
</svg>
