<svg xmlns="http://www.w3.org/2000/svg" xmlns:xlink="http://www.w3.org/1999/xlink" width="16" height="16" viewBox="0 0 16 16" version="1.1">
<g id="surface1">
<path style=" stroke:none;fill-rule:nonzero;fill:rgb(0%,100%,66.666669%);fill-opacity:1;" d="M 7.667969 2.667969 C 5.691406 2.667969 4.089844 4.257812 4.023438 6.21875 C 2.847656 6.632812 2 7.714844 2 9 C 2 10.402344 2.996094 11.535156 4.304688 11.859375 C 4.253906 12.265625 4.21875 12.671875 4.050781 13.082031 C 3.953125 13.3125 3.996094 13.578125 4.160156 13.769531 C 4.324219 13.957031 4.578125 14.039062 4.824219 13.980469 C 6.230469 13.640625 7.34375 12.921875 8.25 12 L 10.667969 12 C 12.5 12 14 10.5 14 8.667969 C 14 7.507812 13.382812 6.519531 12.472656 5.941406 C 12.320312 5.980469 12.160156 6 12 6 C 10.894531 6 10 5.105469 10 4 C 10 3.867188 10.011719 3.730469 10.039062 3.601562 C 9.40625 3.023438 8.585938 2.667969 7.667969 2.667969 Z M 8.667969 8.667969 L 10.667969 8.667969 C 11.035156 8.667969 11.332031 8.964844 11.332031 9.332031 C 11.332031 9.703125 11.035156 10 10.667969 10 L 8.667969 10 C 8.296875 10 8 9.703125 8 9.332031 C 8 8.964844 8.296875 8.667969 8.667969 8.667969 Z M 8.667969 8.667969 "/>
<path style=" stroke:none;fill-rule:nonzero;fill:rgb(25.882354%,52.156866%,95.686275%);fill-opacity:1;" d="M 13.332031 4 C 13.332031 4.734375 12.738281 5.332031 12 5.332031 C 11.261719 5.332031 10.667969 4.734375 10.667969 4 C 10.667969 3.261719 11.261719 2.664062 12 2.664062 C 12.738281 2.664062 13.332031 3.261719 13.332031 4 Z M 13.332031 4 "/>
</g>
</svg>
