<svg xmlns="http://www.w3.org/2000/svg" xmlns:xlink="http://www.w3.org/1999/xlink" width="16" height="16" viewBox="0 0 16 16" version="1.1">
<g id="surface1">
<path style=" stroke:none;fill-rule:nonzero;fill:rgb(0%,80.000001%,100%);fill-opacity:1;" d="M 7.667969 2.644531 C 5.691406 2.644531 4.085938 4.234375 4.023438 6.195312 C 2.839844 6.617188 1.988281 7.707031 2 9.003906 C 2 10.402344 3 11.535156 4.304688 11.859375 C 4.253906 12.265625 4.21875 12.671875 4.050781 13.082031 C 3.953125 13.3125 3.996094 13.578125 4.160156 13.769531 C 4.324219 13.957031 4.578125 14.039062 4.824219 13.980469 C 6.230469 13.640625 7.34375 12.921875 8.25 12 L 10.667969 12 C 12.5 12 14 10.5 14 8.667969 C 14 7.007812 12.75 5.679688 11.15625 5.433594 C 10.769531 3.949219 9.527344 2.871094 7.988281 2.726562 C 7.890625 2.671875 7.78125 2.644531 7.667969 2.644531 Z M 8.667969 8.667969 L 10.667969 8.667969 C 11.035156 8.667969 11.332031 8.964844 11.332031 9.332031 C 11.332031 9.703125 11.035156 10 10.667969 10 L 8.667969 10 C 8.296875 10 8 9.703125 8 9.332031 C 8 8.964844 8.296875 8.667969 8.667969 8.667969 Z M 8.667969 8.667969 "/>
</g>
</svg>
