<svg xmlns="http://www.w3.org/2000/svg" xmlns:xlink="http://www.w3.org/1999/xlink" width="16" height="16" viewBox="0 0 16 16" version="1.1">
<g id="surface1">
<path style=" stroke:none;fill-rule:nonzero;fill:rgb(67.058825%,40.000001%,100%);fill-opacity:1;" d="M 6 4 L 6 4.011719 C 4.894531 4.011719 4 4.90625 4 6.007812 L 4 6.191406 C 3.796875 6.074219 3.566406 6.011719 3.332031 6.007812 C 2.597656 6.007812 2 6.605469 2 7.339844 L 1.667969 7.339844 C 1.578125 7.339844 1.492188 7.375 1.429688 7.4375 C 1.367188 7.5 1.332031 7.585938 1.332031 7.675781 C 1.332031 7.859375 1.484375 8.007812 1.667969 8.007812 L 3.707031 8.007812 C 4.171875 7.214844 5.023438 6.675781 6 6.675781 C 6.355469 6.675781 6.703125 6.753906 7.023438 6.886719 C 7.242188 6.390625 7.5625 5.953125 7.957031 5.597656 C 7.765625 4.667969 6.949219 4 6 4 Z M 10.332031 5.339844 L 10.332031 5.34375 C 8.851562 5.34375 7.59375 6.425781 7.371094 7.886719 C 7 7.539062 6.511719 7.34375 6 7.339844 C 4.894531 7.339844 4 8.234375 4 9.339844 C 4 9.566406 4.039062 9.792969 4.117188 10.007812 C 4.078125 10.003906 4.039062 10.003906 4 10.003906 C 3.261719 10.003906 2.667969 10.597656 2.667969 11.335938 C 2.667969 12.070312 3.261719 12.667969 4 12.667969 L 4.695312 12.667969 C 4.945312 12.597656 5.128906 12.53125 5.339844 12.347656 C 5.566406 12.152344 7.671875 8.683594 9.59375 8.683594 C 10.609375 8.683594 11.597656 9.179688 11.941406 10.546875 C 11.972656 10.675781 12.015625 10.921875 12 11 C 12 11.554688 11.550781 12 11 12 C 10.449219 12 10 11.554688 10 11 C 10 10.457031 10.4375 10.011719 10.984375 10.003906 C 10.671875 9.804688 10.292969 9.6875 10.003906 9.6875 C 9.214844 9.679688 8.726562 10.367188 8.65625 10.980469 C 8.585938 11.589844 8.785156 12.296875 9.996094 12.667969 L 13 12.667969 C 13.921875 12.667969 14.667969 11.921875 14.667969 11 C 14.667969 10.140625 14.011719 9.425781 13.15625 9.34375 C 13.273438 9.023438 13.332031 8.683594 13.332031 8.339844 C 13.332031 6.683594 11.988281 5.339844 10.332031 5.339844 Z M 10.332031 5.339844 "/>
</g>
</svg>
