<svg xmlns="http://www.w3.org/2000/svg" xmlns:xlink="http://www.w3.org/1999/xlink" width="16" height="16" viewBox="0 0 16 16" version="1.1">
<g id="surface1">
<path style=" stroke:none;fill-rule:nonzero;fill:rgb(100%,30.980393%,30.980393%);fill-opacity:1;" d="M 11.507812 2 C 11.410156 2 11.332031 2.082031 11.332031 2.175781 L 11.332031 2.667969 L 6 2.667969 C 5.332031 2.667969 4.582031 2.632812 3.867188 2.988281 C 3.15625 3.34375 2.667969 4.183594 2.667969 5.332031 L 2.667969 11.332031 L 4 11.332031 L 4 5.332031 C 4 4.480469 4.175781 4.324219 4.464844 4.179688 C 4.753906 4.035156 5.332031 4 6 4 L 13.15625 4 C 13.226562 4 13.292969 3.957031 13.320312 3.890625 C 13.347656 3.824219 13.332031 3.75 13.28125 3.699219 L 11.632812 2.050781 C 11.601562 2.019531 11.554688 2 11.507812 2 Z M 12 4.667969 L 12 10.667969 C 12 11.519531 11.824219 11.675781 11.535156 11.820312 C 11.246094 11.964844 10.667969 12 10 12 L 2.84375 12 C 2.773438 12 2.707031 12.042969 2.679688 12.109375 C 2.652344 12.175781 2.667969 12.25 2.71875 12.300781 L 4.367188 13.949219 C 4.398438 13.980469 4.445312 14 4.492188 14 C 4.589844 14 4.667969 13.917969 4.667969 13.824219 L 4.667969 13.332031 L 10 13.332031 C 10.667969 13.332031 11.417969 13.367188 12.132812 13.011719 C 12.84375 12.65625 13.332031 11.816406 13.332031 10.667969 L 13.332031 4.667969 Z M 6.667969 6.667969 C 6.296875 6.667969 6 6.964844 6 7.332031 L 6 8 C 6 8.371094 6.296875 8.667969 6.667969 8.667969 C 7.035156 8.667969 7.332031 8.371094 7.332031 8 L 7.332031 7.332031 C 7.332031 6.964844 7.035156 6.667969 6.667969 6.667969 Z M 9.332031 6.667969 C 8.964844 6.667969 8.667969 6.964844 8.667969 7.332031 L 8.667969 8 C 8.667969 8.371094 8.964844 8.667969 9.332031 8.667969 C 9.703125 8.667969 10 8.371094 10 8 L 10 7.332031 C 10 6.964844 9.703125 6.667969 9.332031 6.667969 Z M 9.332031 6.667969 "/>
</g>
</svg>
