<svg xmlns="http://www.w3.org/2000/svg" xmlns:xlink="http://www.w3.org/1999/xlink" width="16" height="16" viewBox="0 0 16 16" version="1.1">
<g id="surface1">
<path style=" stroke:none;fill-rule:nonzero;fill:rgb(100%,74.901962%,0%);fill-opacity:1;" d="M 12.617188 5.332031 C 11.144531 2.78125 7.882812 1.910156 5.332031 3.382812 C 2.78125 4.855469 1.910156 8.117188 3.382812 10.667969 C 4.855469 13.21875 8.117188 14.089844 10.667969 12.617188 C 13.21875 11.144531 14.089844 7.882812 12.617188 5.332031 Z M 11.464844 6 C 12.035156 6.992188 12.152344 8.179688 11.792969 9.265625 C 11.828125 9.308594 11.863281 9.359375 11.890625 9.410156 C 12.167969 9.886719 12.003906 10.5 11.527344 10.773438 C 11.296875 10.90625 11.027344 10.941406 10.773438 10.875 C 10.542969 11.101562 10.28125 11.300781 10 11.464844 C 9.261719 11.886719 8.40625 12.066406 7.558594 11.96875 C 7.472656 12.109375 7.351562 12.222656 7.210938 12.304688 C 6.734375 12.578125 6.125 12.414062 5.847656 11.9375 C 5.734375 11.738281 5.691406 11.507812 5.726562 11.285156 C 5.238281 10.949219 4.832031 10.511719 4.535156 10 C 3.824219 8.761719 3.824219 7.238281 4.539062 6 C 4.53125 5.992188 4.523438 5.980469 4.519531 5.96875 C 4.242188 5.492188 4.40625 4.878906 4.882812 4.601562 C 5.195312 4.421875 5.578125 4.425781 5.886719 4.609375 C 5.925781 4.582031 5.960938 4.558594 6 4.535156 C 7.914062 3.429688 10.359375 4.085938 11.464844 6 Z M 10.886719 6.332031 C 9.964844 4.738281 7.925781 4.191406 6.332031 5.113281 C 6.328125 5.117188 6.324219 5.117188 6.320312 5.121094 C 6.425781 5.40625 6.394531 5.726562 6.234375 5.988281 L 7.707031 7.804688 C 8.164062 7.640625 8.667969 7.824219 8.910156 8.242188 C 9.003906 8.40625 9.050781 8.589844 9.042969 8.777344 L 10.269531 9.253906 C 10.34375 9.171875 10.429688 9.097656 10.527344 9.042969 C 10.730469 8.925781 10.96875 8.882812 11.199219 8.925781 C 11.453125 8.054688 11.339844 7.117188 10.886719 6.332031 Z M 10.027344 9.875 L 8.800781 9.398438 C 8.726562 9.480469 8.640625 9.554688 8.542969 9.609375 C 8.355469 9.71875 8.140625 9.761719 7.925781 9.734375 L 7.429688 10.742188 C 7.488281 10.800781 7.539062 10.867188 7.578125 10.9375 C 7.644531 11.054688 7.6875 11.183594 7.707031 11.316406 C 8.386719 11.378906 9.074219 11.226562 9.667969 10.886719 C 9.863281 10.773438 10.042969 10.640625 10.210938 10.488281 C 10.195312 10.460938 10.175781 10.4375 10.160156 10.410156 C 10.066406 10.246094 10.023438 10.0625 10.027344 9.875 Z M 7.191406 8.222656 L 5.71875 6.410156 C 5.507812 6.484375 5.28125 6.488281 5.070312 6.417969 C 4.519531 7.433594 4.535156 8.664062 5.113281 9.667969 C 5.347656 10.070312 5.664062 10.421875 6.042969 10.695312 C 6.097656 10.648438 6.152344 10.605469 6.214844 10.570312 C 6.398438 10.464844 6.617188 10.417969 6.832031 10.445312 L 7.328125 9.441406 C 7.269531 9.382812 7.21875 9.316406 7.179688 9.246094 C 6.996094 8.925781 7 8.535156 7.191406 8.222656 Z M 7.191406 8.222656 "/>
</g>
</svg>
