<svg xmlns="http://www.w3.org/2000/svg" xmlns:xlink="http://www.w3.org/1999/xlink" width="16" height="16" viewBox="0 0 16 16" version="1.1">
<g id="surface1">
<path style=" stroke:none;fill-rule:nonzero;fill:rgb(100%,30.980393%,30.980393%);fill-opacity:1;" d="M 2.667969 8 C 2.667969 10.945312 5.054688 13.332031 8 13.332031 C 10.945312 13.332031 13.332031 10.945312 13.332031 8 C 13.332031 5.054688 10.945312 2.667969 8 2.667969 C 5.054688 2.667969 2.667969 5.054688 2.667969 8 Z M 4 8 C 4 6.855469 4.492188 5.765625 5.347656 5.007812 C 5.339844 4.949219 5.332031 4.890625 5.332031 4.832031 C 5.332031 4.28125 5.78125 3.832031 6.332031 3.832031 C 6.597656 3.832031 6.847656 3.9375 7.035156 4.121094 C 7.351562 4.042969 7.675781 4 8 4 C 8.851562 4 9.683594 4.277344 10.367188 4.78125 C 10.511719 4.707031 10.671875 4.667969 10.832031 4.667969 C 11.386719 4.667969 11.832031 5.113281 11.832031 5.667969 C 11.832031 5.894531 11.753906 6.117188 11.613281 6.292969 C 11.867188 6.828125 12 7.410156 12 8 C 12 9.429688 11.234375 10.746094 10 11.460938 C 10 11.472656 10 11.488281 10 11.5 C 10 12.050781 9.550781 12.5 9 12.5 C 8.640625 12.5 8.308594 12.304688 8.132812 11.992188 C 8.089844 11.996094 8.042969 12 8 12 C 5.789062 12 4 10.210938 4 8 Z M 4.667969 8 C 4.667969 9.839844 6.160156 11.332031 8 11.332031 C 8.003906 11.332031 8.007812 11.332031 8.015625 11.332031 C 8.066406 11.03125 8.253906 10.769531 8.523438 10.625 L 8.152344 8.316406 C 7.679688 8.230469 7.332031 7.816406 7.332031 7.332031 C 7.332031 7.148438 7.386719 6.964844 7.484375 6.804688 L 6.660156 5.777344 C 6.554688 5.8125 6.445312 5.832031 6.332031 5.832031 C 6.097656 5.832031 5.871094 5.75 5.691406 5.597656 C 5.035156 6.226562 4.667969 7.09375 4.667969 8 Z M 7.183594 5.359375 L 8.003906 6.390625 C 8.109375 6.351562 8.222656 6.332031 8.332031 6.332031 C 8.550781 6.332031 8.757812 6.402344 8.933594 6.535156 L 9.863281 5.910156 C 9.84375 5.832031 9.832031 5.75 9.832031 5.667969 C 9.832031 5.53125 9.859375 5.398438 9.914062 5.273438 C 9.355469 4.878906 8.683594 4.667969 8 4.667969 C 7.773438 4.667969 7.550781 4.691406 7.328125 4.738281 C 7.332031 4.769531 7.332031 4.800781 7.332031 4.832031 C 7.332031 5.019531 7.28125 5.203125 7.183594 5.359375 Z M 8.8125 8.210938 L 9.179688 10.515625 C 9.398438 10.558594 9.597656 10.667969 9.746094 10.835938 C 10.730469 10.230469 11.332031 9.15625 11.332031 8 C 11.332031 7.53125 11.230469 7.070312 11.039062 6.644531 C 10.972656 6.660156 10.902344 6.667969 10.832031 6.667969 C 10.617188 6.667969 10.40625 6.597656 10.234375 6.464844 L 9.300781 7.089844 C 9.324219 7.167969 9.332031 7.25 9.332031 7.332031 C 9.332031 7.699219 9.132812 8.035156 8.8125 8.210938 Z M 8.8125 8.210938 "/>
</g>
</svg>
