<svg xmlns="http://www.w3.org/2000/svg" xmlns:xlink="http://www.w3.org/1999/xlink" width="16" height="16" viewBox="0 0 16 16" version="1.1">
<g id="surface1">
<path style=" stroke:none;fill-rule:nonzero;fill:rgb(100%,74.901962%,0%);fill-opacity:1;" d="M 5.332031 12.617188 C 7.882812 14.089844 11.144531 13.21875 12.617188 10.667969 C 14.089844 8.117188 13.21875 4.855469 10.667969 3.382812 C 8.117188 1.910156 4.855469 2.78125 3.382812 5.332031 C 1.910156 7.882812 2.78125 11.144531 5.332031 12.617188 Z M 6 11.464844 C 5.011719 10.890625 4.3125 9.921875 4.085938 8.800781 C 4.027344 8.78125 3.976562 8.753906 3.925781 8.726562 C 3.445312 8.449219 3.28125 7.839844 3.558594 7.359375 C 3.691406 7.132812 3.90625 6.964844 4.160156 6.898438 C 4.246094 6.582031 4.375 6.28125 4.535156 6 C 4.964844 5.261719 5.617188 4.679688 6.398438 4.339844 C 6.402344 4.179688 6.449219 4.019531 6.53125 3.878906 C 6.804688 3.402344 7.417969 3.238281 7.894531 3.511719 C 8.09375 3.628906 8.246094 3.804688 8.328125 4.019531 C 8.917969 4.066406 9.488281 4.242188 10 4.535156 C 11.234375 5.25 11.996094 6.570312 11.996094 8 C 12.007812 8.003906 12.019531 8.011719 12.03125 8.019531 C 12.507812 8.292969 12.671875 8.90625 12.398438 9.382812 C 12.21875 9.695312 11.882812 9.882812 11.523438 9.882812 C 11.503906 9.921875 11.484375 9.960938 11.464844 10 C 10.359375 11.914062 7.914062 12.570312 6 11.464844 Z M 6.332031 10.886719 C 7.925781 11.808594 9.964844 11.261719 10.886719 9.667969 C 10.890625 9.664062 10.890625 9.660156 10.894531 9.652344 C 10.660156 9.457031 10.527344 9.164062 10.535156 8.859375 L 8.351562 8.023438 C 8.039062 8.394531 7.507812 8.484375 7.089844 8.242188 C 6.929688 8.152344 6.796875 8.015625 6.707031 7.847656 L 5.40625 8.046875 C 5.386719 8.15625 5.347656 8.261719 5.289062 8.359375 C 5.171875 8.5625 4.988281 8.71875 4.765625 8.800781 C 4.984375 9.679688 5.550781 10.433594 6.332031 10.886719 Z M 5.304688 7.386719 L 6.609375 7.191406 C 6.628906 7.082031 6.667969 6.976562 6.722656 6.878906 C 6.832031 6.691406 6.996094 6.542969 7.195312 6.460938 L 7.125 5.339844 C 7.042969 5.320312 6.96875 5.285156 6.894531 5.246094 C 6.777344 5.179688 6.675781 5.085938 6.597656 4.980469 C 5.972656 5.265625 5.457031 5.742188 5.113281 6.332031 C 5 6.53125 4.910156 6.738281 4.839844 6.949219 C 4.867188 6.964844 4.898438 6.976562 4.925781 6.992188 C 5.085938 7.085938 5.21875 7.222656 5.304688 7.386719 Z M 8.585938 7.402344 L 10.769531 8.234375 C 10.914062 8.066406 11.109375 7.949219 11.328125 7.90625 C 11.296875 6.75 10.667969 5.691406 9.667969 5.113281 C 9.261719 4.878906 8.8125 4.734375 8.34375 4.6875 C 8.324219 4.753906 8.296875 4.820312 8.261719 4.878906 C 8.152344 5.066406 7.988281 5.214844 7.789062 5.296875 L 7.859375 6.417969 C 7.941406 6.4375 8.015625 6.472656 8.089844 6.511719 C 8.40625 6.695312 8.597656 7.035156 8.585938 7.402344 Z M 8.585938 7.402344 "/>
</g>
</svg>
