<svg xmlns="http://www.w3.org/2000/svg" xmlns:xlink="http://www.w3.org/1999/xlink" width="16" height="16" viewBox="0 0 16 16" version="1.1">
<g id="surface1">
<path style=" stroke:none;fill-rule:nonzero;fill:rgb(0%,100%,66.666669%);fill-opacity:1;" d="M 8 13.332031 C 10.945312 13.332031 13.332031 10.945312 13.332031 8 C 13.332031 5.054688 10.945312 2.667969 8 2.667969 C 5.054688 2.667969 2.667969 5.054688 2.667969 8 C 2.667969 10.945312 5.054688 13.332031 8 13.332031 Z M 8 12 C 6.855469 12 5.765625 11.507812 5.007812 10.652344 C 4.949219 10.660156 4.890625 10.667969 4.832031 10.667969 C 4.28125 10.667969 3.832031 10.21875 3.832031 9.667969 C 3.832031 9.402344 3.9375 9.152344 4.121094 8.964844 C 4.042969 8.648438 4 8.324219 4 8 C 4 7.148438 4.277344 6.316406 4.78125 5.632812 C 4.707031 5.488281 4.667969 5.328125 4.667969 5.167969 C 4.667969 4.613281 5.113281 4.167969 5.667969 4.167969 C 5.894531 4.167969 6.117188 4.246094 6.292969 4.386719 C 6.828125 4.132812 7.410156 4 8 4 C 9.429688 4 10.746094 4.765625 11.460938 6 C 11.472656 6 11.488281 6 11.5 6 C 12.050781 6 12.5 6.449219 12.5 7 C 12.5 7.359375 12.304688 7.691406 11.992188 7.867188 C 11.996094 7.910156 12 7.957031 12 8 C 12 10.210938 10.210938 12 8 12 Z M 8 11.332031 C 9.839844 11.332031 11.332031 9.839844 11.332031 8 C 11.332031 7.996094 11.332031 7.992188 11.332031 7.984375 C 11.03125 7.933594 10.769531 7.746094 10.625 7.476562 L 8.316406 7.847656 C 8.230469 8.320312 7.816406 8.667969 7.332031 8.667969 C 7.148438 8.667969 6.964844 8.613281 6.804688 8.515625 L 5.777344 9.339844 C 5.8125 9.445312 5.832031 9.554688 5.832031 9.667969 C 5.832031 9.902344 5.75 10.128906 5.597656 10.308594 C 6.226562 10.964844 7.09375 11.332031 8 11.332031 Z M 5.359375 8.816406 L 6.390625 7.996094 C 6.351562 7.890625 6.332031 7.777344 6.332031 7.667969 C 6.332031 7.449219 6.402344 7.242188 6.535156 7.066406 L 5.910156 6.136719 C 5.832031 6.15625 5.75 6.167969 5.667969 6.167969 C 5.53125 6.167969 5.398438 6.140625 5.273438 6.085938 C 4.878906 6.644531 4.667969 7.316406 4.667969 8 C 4.667969 8.226562 4.691406 8.449219 4.738281 8.671875 C 4.769531 8.667969 4.800781 8.667969 4.832031 8.667969 C 5.019531 8.667969 5.203125 8.71875 5.359375 8.816406 Z M 8.210938 7.1875 L 10.515625 6.820312 C 10.558594 6.601562 10.667969 6.402344 10.835938 6.253906 C 10.230469 5.269531 9.15625 4.667969 8 4.667969 C 7.53125 4.667969 7.070312 4.769531 6.644531 4.960938 C 6.660156 5.027344 6.667969 5.097656 6.667969 5.167969 C 6.667969 5.382812 6.597656 5.59375 6.464844 5.765625 L 7.089844 6.699219 C 7.167969 6.675781 7.25 6.667969 7.332031 6.667969 C 7.699219 6.667969 8.035156 6.867188 8.210938 7.1875 Z M 8.210938 7.1875 "/>
</g>
</svg>
