<svg xmlns="http://www.w3.org/2000/svg" xmlns:xlink="http://www.w3.org/1999/xlink" width="16" height="16" viewBox="0 0 16 16" version="1.1">
<g id="surface1">
<path style=" stroke:none;fill-rule:nonzero;fill:rgb(96.862745%,0%,100%);fill-opacity:1;" d="M 3.382812 10.667969 C 4.855469 13.21875 8.117188 14.089844 10.667969 12.617188 C 13.21875 11.144531 14.089844 7.882812 12.617188 5.332031 C 11.144531 2.78125 7.882812 1.910156 5.332031 3.382812 C 2.78125 4.855469 1.910156 8.117188 3.382812 10.667969 Z M 4.535156 10 C 3.964844 9.007812 3.847656 7.820312 4.207031 6.734375 C 4.171875 6.691406 4.136719 6.640625 4.105469 6.589844 C 3.832031 6.113281 3.996094 5.5 4.472656 5.226562 C 4.699219 5.09375 4.972656 5.058594 5.226562 5.125 C 5.457031 4.898438 5.71875 4.699219 6 4.535156 C 6.738281 4.109375 7.59375 3.933594 8.441406 4.03125 C 8.527344 3.890625 8.648438 3.777344 8.785156 3.695312 C 9.265625 3.421875 9.875 3.585938 10.152344 4.0625 C 10.265625 4.261719 10.308594 4.492188 10.273438 4.714844 C 10.761719 5.050781 11.167969 5.488281 11.464844 6 C 12.175781 7.238281 12.175781 8.761719 11.460938 9.996094 C 11.46875 10.007812 11.476562 10.019531 11.480469 10.03125 C 11.757812 10.507812 11.59375 11.121094 11.117188 11.398438 C 10.804688 11.574219 10.421875 11.574219 10.113281 11.390625 C 10.074219 11.417969 10.039062 11.441406 10 11.464844 C 8.085938 12.570312 5.640625 11.914062 4.535156 10 Z M 5.113281 9.667969 C 6.035156 11.261719 8.074219 11.808594 9.667969 10.886719 C 9.671875 10.882812 9.675781 10.882812 9.679688 10.878906 C 9.574219 10.59375 9.605469 10.273438 9.765625 10.011719 L 8.292969 8.195312 C 7.835938 8.359375 7.332031 8.171875 7.089844 7.757812 C 6.996094 7.59375 6.949219 7.410156 6.957031 7.222656 L 5.730469 6.746094 C 5.65625 6.828125 5.570312 6.902344 5.472656 6.957031 C 5.269531 7.074219 5.03125 7.117188 4.796875 7.074219 C 4.546875 7.945312 4.660156 8.882812 5.113281 9.667969 Z M 5.972656 6.125 L 7.199219 6.601562 C 7.273438 6.519531 7.359375 6.445312 7.457031 6.390625 C 7.640625 6.28125 7.859375 6.238281 8.074219 6.265625 L 8.570312 5.257812 C 8.511719 5.199219 8.460938 5.132812 8.421875 5.0625 C 8.355469 4.945312 8.3125 4.816406 8.292969 4.683594 C 7.613281 4.621094 6.925781 4.769531 6.332031 5.113281 C 6.136719 5.226562 5.957031 5.359375 5.789062 5.511719 C 5.804688 5.535156 5.824219 5.5625 5.839844 5.589844 C 5.933594 5.753906 5.976562 5.9375 5.972656 6.125 Z M 8.808594 7.777344 L 10.28125 9.589844 C 10.492188 9.515625 10.71875 9.511719 10.929688 9.582031 C 11.480469 8.566406 11.464844 7.335938 10.886719 6.332031 C 10.652344 5.929688 10.335938 5.578125 9.957031 5.304688 C 9.902344 5.351562 9.847656 5.394531 9.785156 5.429688 C 9.601562 5.535156 9.382812 5.582031 9.167969 5.554688 L 8.671875 6.558594 C 8.730469 6.617188 8.78125 6.683594 8.820312 6.757812 C 9.003906 7.074219 9 7.464844 8.808594 7.777344 Z M 8.808594 7.777344 "/>
</g>
</svg>
