<svg xmlns="http://www.w3.org/2000/svg" xmlns:xlink="http://www.w3.org/1999/xlink" width="16" height="16" viewBox="0 0 16 16" version="1.1">
<g id="surface1">
<path style=" stroke:none;fill-rule:nonzero;fill:rgb(67.058825%,40.000001%,100%);fill-opacity:1;" d="M 3.382812 5.332031 C 1.910156 7.882812 2.78125 11.144531 5.332031 12.617188 C 7.882812 14.089844 11.144531 13.21875 12.617188 10.667969 C 14.089844 8.117188 13.21875 4.855469 10.667969 3.382812 C 8.117188 1.910156 4.855469 2.78125 3.382812 5.332031 Z M 4.535156 6 C 5.109375 5.011719 6.078125 4.3125 7.199219 4.085938 C 7.21875 4.027344 7.246094 3.976562 7.273438 3.925781 C 7.550781 3.445312 8.160156 3.28125 8.640625 3.558594 C 8.867188 3.691406 9.035156 3.90625 9.101562 4.160156 C 9.417969 4.246094 9.71875 4.375 10 4.535156 C 10.738281 4.964844 11.320312 5.617188 11.660156 6.398438 C 11.820312 6.402344 11.980469 6.449219 12.121094 6.53125 C 12.597656 6.804688 12.761719 7.417969 12.488281 7.894531 C 12.371094 8.09375 12.195312 8.246094 11.980469 8.328125 C 11.933594 8.917969 11.757812 9.488281 11.464844 10 C 10.75 11.234375 9.429688 11.996094 8 11.996094 C 7.996094 12.007812 7.988281 12.019531 7.980469 12.03125 C 7.707031 12.507812 7.09375 12.671875 6.617188 12.398438 C 6.304688 12.21875 6.117188 11.882812 6.117188 11.523438 C 6.078125 11.503906 6.039062 11.484375 6 11.464844 C 4.085938 10.359375 3.429688 7.914062 4.535156 6 Z M 5.113281 6.332031 C 4.191406 7.925781 4.738281 9.964844 6.332031 10.886719 C 6.335938 10.890625 6.339844 10.890625 6.347656 10.894531 C 6.542969 10.660156 6.835938 10.527344 7.140625 10.53125 L 7.976562 8.351562 C 7.605469 8.039062 7.515625 7.507812 7.757812 7.089844 C 7.847656 6.929688 7.984375 6.796875 8.152344 6.707031 L 7.953125 5.40625 C 7.84375 5.386719 7.738281 5.347656 7.640625 5.289062 C 7.4375 5.171875 7.28125 4.988281 7.199219 4.765625 C 6.320312 4.984375 5.566406 5.550781 5.113281 6.332031 Z M 8.613281 5.304688 L 8.808594 6.609375 C 8.917969 6.628906 9.023438 6.667969 9.121094 6.722656 C 9.308594 6.832031 9.457031 6.996094 9.539062 7.195312 L 10.660156 7.125 C 10.679688 7.042969 10.714844 6.96875 10.753906 6.894531 C 10.820312 6.777344 10.914062 6.675781 11.019531 6.59375 C 10.730469 5.972656 10.257812 5.457031 9.667969 5.113281 C 9.46875 5 9.261719 4.910156 9.046875 4.839844 C 9.035156 4.867188 9.019531 4.894531 9.003906 4.921875 C 8.910156 5.085938 8.773438 5.21875 8.609375 5.304688 Z M 8.597656 8.585938 L 7.765625 10.769531 C 7.933594 10.914062 8.050781 11.109375 8.09375 11.328125 C 9.25 11.296875 10.308594 10.667969 10.886719 9.667969 C 11.117188 9.261719 11.261719 8.8125 11.3125 8.347656 C 11.246094 8.324219 11.179688 8.296875 11.121094 8.261719 C 10.933594 8.152344 10.785156 7.988281 10.703125 7.789062 L 9.582031 7.863281 C 9.5625 7.941406 9.527344 8.019531 9.488281 8.089844 C 9.304688 8.40625 8.964844 8.597656 8.597656 8.585938 Z M 8.597656 8.585938 "/>
</g>
</svg>
