<svg xmlns="http://www.w3.org/2000/svg" xmlns:xlink="http://www.w3.org/1999/xlink" width="16" height="16" viewBox="0 0 16 16" version="1.1">
<g id="surface1">
<path style=" stroke:none;fill-rule:nonzero;fill:rgb(100%,30.980393%,30.980393%);fill-opacity:1;" d="M 12.617188 10.667969 C 14.089844 8.117188 13.21875 4.855469 10.667969 3.382812 C 8.117188 1.910156 4.855469 2.78125 3.382812 5.332031 C 1.910156 7.882812 2.78125 11.144531 5.332031 12.617188 C 7.882812 14.089844 11.144531 13.21875 12.617188 10.667969 Z M 11.464844 10 C 10.890625 10.988281 9.921875 11.6875 8.800781 11.914062 C 8.78125 11.972656 8.753906 12.023438 8.726562 12.074219 C 8.449219 12.554688 7.839844 12.71875 7.359375 12.441406 C 7.132812 12.308594 6.964844 12.09375 6.898438 11.839844 C 6.582031 11.753906 6.28125 11.625 6 11.464844 C 5.261719 11.035156 4.679688 10.382812 4.339844 9.601562 C 4.179688 9.597656 4.019531 9.550781 3.878906 9.46875 C 3.402344 9.195312 3.238281 8.582031 3.511719 8.105469 C 3.628906 7.90625 3.804688 7.753906 4.019531 7.671875 C 4.066406 7.082031 4.242188 6.511719 4.535156 6 C 5.25 4.765625 6.570312 4.003906 8 4.003906 C 8.003906 3.992188 8.011719 3.980469 8.019531 3.96875 C 8.292969 3.492188 8.90625 3.328125 9.382812 3.601562 C 9.695312 3.78125 9.882812 4.117188 9.882812 4.476562 C 9.921875 4.496094 9.960938 4.515625 10 4.535156 C 11.914062 5.640625 12.570312 8.085938 11.464844 10 Z M 10.886719 9.667969 C 11.808594 8.074219 11.261719 6.035156 9.667969 5.113281 C 9.664062 5.109375 9.660156 5.109375 9.652344 5.105469 C 9.457031 5.339844 9.164062 5.472656 8.859375 5.464844 L 8.027344 7.648438 C 8.394531 7.960938 8.484375 8.492188 8.246094 8.910156 C 8.152344 9.070312 8.015625 9.203125 7.851562 9.292969 L 8.046875 10.59375 C 8.15625 10.613281 8.261719 10.652344 8.359375 10.710938 C 8.5625 10.828125 8.71875 11.011719 8.800781 11.234375 C 9.679688 11.015625 10.433594 10.449219 10.886719 9.667969 Z M 7.386719 10.695312 L 7.191406 9.390625 C 7.082031 9.371094 6.976562 9.332031 6.878906 9.277344 C 6.691406 9.167969 6.542969 9 6.460938 8.804688 L 5.339844 8.875 C 5.320312 8.957031 5.285156 9.03125 5.246094 9.105469 C 5.179688 9.21875 5.085938 9.324219 4.980469 9.402344 C 5.265625 10.023438 5.742188 10.542969 6.332031 10.886719 C 6.53125 11 6.738281 11.089844 6.949219 11.160156 C 6.964844 11.132812 6.976562 11.101562 6.992188 11.074219 C 7.085938 10.914062 7.222656 10.78125 7.386719 10.695312 Z M 7.402344 7.414062 L 8.234375 5.230469 C 8.066406 5.085938 7.949219 4.890625 7.90625 4.671875 C 6.75 4.703125 5.691406 5.332031 5.113281 6.332031 C 4.878906 6.738281 4.734375 7.1875 4.6875 7.652344 C 4.753906 7.675781 4.820312 7.703125 4.878906 7.738281 C 5.066406 7.847656 5.214844 8.011719 5.296875 8.210938 L 6.417969 8.136719 C 6.4375 8.058594 6.46875 7.984375 6.511719 7.910156 C 6.695312 7.59375 7.035156 7.402344 7.402344 7.414062 Z M 7.402344 7.414062 "/>
</g>
</svg>
