<svg xmlns="http://www.w3.org/2000/svg" xmlns:xlink="http://www.w3.org/1999/xlink" width="16" height="16" viewBox="0 0 16 16" version="1.1">
<defs>
<filter id="alpha" filterUnits="objectBoundingBox" x="0%" y="0%" width="100%" height="100%">
  <feColorMatrix type="matrix" in="SourceGraphic" values="0 0 0 0 1 0 0 0 0 1 0 0 0 0 1 0 0 0 1 0"/>
</filter>
<mask id="mask0">
  <g filter="url(#alpha)">
<rect x="0" y="0" width="16" height="16" style="fill:rgb(0%,0%,0%);fill-opacity:0.3;stroke:none;"/>
  </g>
</mask>
<clipPath id="clip1">
  <rect x="0" y="0" width="16" height="16"/>
</clipPath>
<g id="surface5" clip-path="url(#clip1)">
<path style=" stroke:none;fill-rule:nonzero;fill:rgb(0%,80.000001%,100%);fill-opacity:1;" d="M 8 2.667969 C 5.054688 2.667969 2.667969 5.054688 2.667969 8 C 2.667969 10.945312 5.054688 13.332031 8 13.332031 C 10.945312 13.332031 13.332031 10.945312 13.332031 8 C 13.332031 5.054688 10.945312 2.667969 8 2.667969 Z M 8 4 C 9.144531 4 10.234375 4.492188 10.992188 5.347656 C 11.046875 5.339844 11.109375 5.332031 11.167969 5.332031 C 11.71875 5.332031 12.167969 5.78125 12.167969 6.332031 C 12.167969 6.597656 12.0625 6.847656 11.878906 7.035156 C 11.957031 7.351562 12 7.675781 12 8 C 12 8.851562 11.722656 9.683594 11.21875 10.367188 C 11.292969 10.511719 11.332031 10.671875 11.332031 10.832031 C 11.332031 11.386719 10.886719 11.832031 10.332031 11.832031 C 10.105469 11.832031 9.882812 11.753906 9.707031 11.613281 C 9.175781 11.867188 8.589844 12 8 12 C 6.570312 12 5.253906 11.234375 4.539062 10 C 4.527344 10 4.511719 10 4.5 10 C 3.949219 10 3.5 9.550781 3.5 9 C 3.5 8.640625 3.695312 8.308594 4.007812 8.132812 C 4.003906 8.089844 4 8.042969 4 8 C 4 5.789062 5.789062 4 8 4 Z M 8 4.667969 C 6.160156 4.667969 4.667969 6.160156 4.667969 8 C 4.667969 8.003906 4.667969 8.007812 4.667969 8.015625 C 4.96875 8.066406 5.230469 8.253906 5.375 8.523438 L 7.683594 8.152344 C 7.769531 7.679688 8.183594 7.332031 8.667969 7.332031 C 8.851562 7.332031 9.035156 7.386719 9.195312 7.484375 L 10.222656 6.660156 C 10.1875 6.554688 10.167969 6.445312 10.167969 6.332031 C 10.167969 6.097656 10.25 5.871094 10.402344 5.691406 C 9.773438 5.035156 8.90625 4.667969 8 4.667969 Z M 10.640625 7.183594 L 9.609375 8.003906 C 9.648438 8.109375 9.667969 8.222656 9.667969 8.332031 C 9.667969 8.550781 9.597656 8.757812 9.464844 8.933594 L 10.089844 9.863281 C 10.167969 9.84375 10.25 9.832031 10.332031 9.832031 C 10.46875 9.832031 10.601562 9.863281 10.726562 9.914062 C 11.121094 9.355469 11.332031 8.6875 11.332031 8 C 11.332031 7.773438 11.308594 7.550781 11.261719 7.328125 C 11.230469 7.332031 11.199219 7.332031 11.167969 7.332031 C 10.980469 7.332031 10.796875 7.28125 10.640625 7.183594 Z M 7.789062 8.8125 L 5.484375 9.179688 C 5.441406 9.398438 5.332031 9.597656 5.164062 9.746094 C 5.769531 10.730469 6.84375 11.332031 8 11.332031 C 8.46875 11.332031 8.929688 11.230469 9.355469 11.039062 C 9.339844 10.972656 9.332031 10.902344 9.332031 10.832031 C 9.332031 10.617188 9.402344 10.40625 9.535156 10.234375 L 8.910156 9.300781 C 8.832031 9.324219 8.75 9.332031 8.667969 9.332031 C 8.300781 9.332031 7.964844 9.132812 7.789062 8.8125 Z M 7.789062 8.8125 "/>
</g>
</defs>
<g id="surface1">
<use xlink:href="#surface5" mask="url(#mask0)"/>
</g>
</svg>
