<svg xmlns="http://www.w3.org/2000/svg" xmlns:xlink="http://www.w3.org/1999/xlink" width="16" height="16" viewBox="0 0 16 16" version="1.1">
<g id="surface1">
<path style=" stroke:none;fill-rule:nonzero;fill:rgb(0%,80.000001%,100%);fill-opacity:1;" d="M 10.667969 12.617188 C 13.21875 11.144531 14.089844 7.882812 12.617188 5.332031 C 11.144531 2.78125 7.882812 1.910156 5.332031 3.382812 C 2.78125 4.855469 1.910156 8.117188 3.382812 10.667969 C 4.855469 13.21875 8.117188 14.089844 10.667969 12.617188 Z M 10 11.464844 C 9.007812 12.035156 7.820312 12.152344 6.734375 11.792969 C 6.691406 11.828125 6.640625 11.863281 6.589844 11.894531 C 6.113281 12.167969 5.5 12.003906 5.226562 11.527344 C 5.09375 11.300781 5.058594 11.027344 5.125 10.773438 C 4.898438 10.542969 4.699219 10.28125 4.535156 10 C 4.109375 9.261719 3.933594 8.40625 4.03125 7.558594 C 3.890625 7.472656 3.777344 7.351562 3.695312 7.210938 C 3.421875 6.734375 3.585938 6.125 4.0625 5.847656 C 4.261719 5.734375 4.492188 5.691406 4.714844 5.726562 C 5.050781 5.238281 5.488281 4.832031 6 4.535156 C 7.238281 3.824219 8.761719 3.824219 9.996094 4.539062 C 10.007812 4.53125 10.019531 4.523438 10.03125 4.519531 C 10.507812 4.242188 11.121094 4.40625 11.398438 4.882812 C 11.574219 5.195312 11.574219 5.578125 11.390625 5.886719 C 11.417969 5.925781 11.441406 5.960938 11.464844 6 C 12.570312 7.914062 11.914062 10.359375 10 11.464844 Z M 9.667969 10.886719 C 11.261719 9.964844 11.808594 7.925781 10.886719 6.332031 C 10.882812 6.328125 10.882812 6.324219 10.878906 6.320312 C 10.59375 6.425781 10.273438 6.394531 10.011719 6.234375 L 8.199219 7.707031 C 8.359375 8.164062 8.175781 8.667969 7.757812 8.910156 C 7.59375 9.003906 7.410156 9.050781 7.222656 9.042969 L 6.746094 10.269531 C 6.828125 10.34375 6.902344 10.429688 6.957031 10.527344 C 7.074219 10.730469 7.117188 10.96875 7.074219 11.199219 C 7.945312 11.453125 8.882812 11.339844 9.667969 10.886719 Z M 6.125 10.027344 L 6.601562 8.800781 C 6.519531 8.726562 6.445312 8.640625 6.390625 8.542969 C 6.28125 8.359375 6.238281 8.140625 6.265625 7.925781 L 5.257812 7.429688 C 5.199219 7.488281 5.132812 7.539062 5.0625 7.578125 C 4.945312 7.644531 4.816406 7.6875 4.683594 7.707031 C 4.621094 8.386719 4.769531 9.074219 5.113281 9.667969 C 5.226562 9.863281 5.359375 10.042969 5.511719 10.210938 C 5.535156 10.195312 5.5625 10.175781 5.589844 10.160156 C 5.753906 10.066406 5.9375 10.023438 6.125 10.027344 Z M 7.777344 7.191406 L 9.589844 5.71875 C 9.515625 5.507812 9.511719 5.28125 9.582031 5.070312 C 8.566406 4.519531 7.335938 4.535156 6.332031 5.113281 C 5.929688 5.347656 5.578125 5.664062 5.304688 6.046875 C 5.351562 6.097656 5.394531 6.152344 5.429688 6.214844 C 5.535156 6.402344 5.582031 6.617188 5.554688 6.832031 L 6.558594 7.328125 C 6.617188 7.269531 6.683594 7.21875 6.757812 7.179688 C 7.074219 6.996094 7.464844 7.003906 7.777344 7.191406 Z M 7.777344 7.191406 "/>
</g>
</svg>
