<svg xmlns="http://www.w3.org/2000/svg" xmlns:xlink="http://www.w3.org/1999/xlink" width="16" height="16" viewBox="0 0 16 16" version="1.1">
<g id="surface1">
<path style=" stroke:none;fill-rule:nonzero;fill:rgb(67.058825%,40.000001%,100%);fill-opacity:1;" d="M 2.789062 4 C 2.351562 4 2 4.355469 2 4.800781 L 2 11.199219 C 2 11.644531 2.351562 12 2.789062 12 L 10.546875 12 C 10.980469 12 11.332031 11.644531 11.332031 11.199219 L 11.332031 9.332031 L 14.667969 10.667969 L 14.667969 5.332031 L 11.332031 6.667969 L 11.332031 4.800781 C 11.332031 4.355469 10.980469 4 10.546875 4 Z M 4 6 L 6 6 L 6 10 L 4 10 Z M 7.332031 6 L 9.332031 6 L 9.332031 10 L 7.332031 10 Z M 7.332031 6 "/>
</g>
</svg>
