<svg xmlns="http://www.w3.org/2000/svg" xmlns:xlink="http://www.w3.org/1999/xlink" width="16" height="16" viewBox="0 0 16 16" version="1.1">
<g id="surface1">
<path style=" stroke:none;fill-rule:nonzero;fill:rgb(0%,80.000001%,100%);fill-opacity:1;" d="M 2.789062 4 C 2.351562 4 2 4.355469 2 4.800781 L 2 11.199219 C 2 11.644531 2.351562 12 2.789062 12 L 10.546875 12 C 10.980469 12 11.332031 11.644531 11.332031 11.199219 L 11.332031 9.332031 L 14.667969 10.667969 L 14.667969 5.332031 L 11.332031 6.667969 L 11.332031 4.800781 C 11.332031 4.355469 10.980469 4 10.546875 4 Z M 6.667969 5.332031 C 8.140625 5.332031 9.332031 6.527344 9.332031 8 C 9.332031 9.472656 8.140625 10.667969 6.667969 10.667969 C 5.195312 10.667969 4 9.472656 4 8 C 4 6.527344 5.195312 5.332031 6.667969 5.332031 Z M 6.667969 5.332031 "/>
<path style=" stroke:none;fill-rule:nonzero;fill:rgb(25.882354%,52.156866%,95.686275%);fill-opacity:1;" d="M 8.667969 8 C 8.667969 9.105469 7.769531 10 6.667969 10 C 5.5625 10 4.667969 9.105469 4.667969 8 C 4.667969 6.894531 5.5625 6 6.667969 6 C 7.769531 6 8.667969 6.894531 8.667969 8 Z M 8.667969 8 "/>
</g>
</svg>
