<svg xmlns="http://www.w3.org/2000/svg" xmlns:xlink="http://www.w3.org/1999/xlink" width="16" height="16" viewBox="0 0 16 16" version="1.1">
<g id="surface1">
<path style=" stroke:none;fill-rule:nonzero;fill:rgb(0%,80.000001%,100%);fill-opacity:1;" d="M 8 2.667969 C 6.226562 2.667969 5.421875 4.105469 5.332031 5.949219 L 5.332031 7.332031 L 4.558594 7.332031 C 4.25 7.332031 4 7.636719 4 7.953125 L 4 12.757812 C 4 13.078125 4.25 13.332031 4.558594 13.332031 L 11.441406 13.332031 C 11.75 13.332031 12 13.078125 12 12.757812 L 12 7.953125 C 12 7.636719 11.75 7.332031 11.441406 7.332031 L 10.667969 7.332031 L 10.667969 5.949219 C 10.667969 4.132812 9.773438 2.667969 8 2.667969 Z M 8 4 C 8.921875 4 9.332031 4.886719 9.332031 5.988281 L 9.332031 7.332031 L 6.667969 7.332031 L 6.667969 5.988281 C 6.667969 4.886719 7.078125 4 8 4 Z M 8 8.667969 C 8.738281 8.667969 9.332031 9.277344 9.332031 10.035156 C 9.332031 10.527344 9.070312 10.972656 8.667969 11.214844 L 8.667969 12 C 8.667969 12.367188 8.367188 12.667969 8 12.667969 C 7.632812 12.667969 7.332031 12.367188 7.332031 12 L 7.332031 11.214844 C 6.929688 10.972656 6.667969 10.527344 6.667969 10.035156 C 6.667969 9.277344 7.261719 8.667969 8 8.667969 Z M 8 8.667969 "/>
</g>
</svg>
