<svg xmlns="http://www.w3.org/2000/svg" xmlns:xlink="http://www.w3.org/1999/xlink" width="16" height="16" viewBox="0 0 16 16" version="1.1">
<g id="surface1">
<path style=" stroke:none;fill-rule:nonzero;fill:rgb(96.862745%,0%,100%);fill-opacity:1;" d="M 5.332031 2.667969 C 3.859375 2.667969 2.667969 3.859375 2.667969 5.332031 C 2.667969 6.023438 2.933594 6.683594 3.410156 7.179688 C 3.359375 7.449219 3.335938 7.726562 3.332031 8 C 3.332031 10.578125 5.421875 12.667969 8 12.667969 C 8.277344 12.667969 8.554688 12.640625 8.824219 12.589844 C 9.320312 13.066406 9.980469 13.332031 10.667969 13.332031 C 12.140625 13.332031 13.332031 12.140625 13.332031 10.667969 C 13.332031 9.976562 13.066406 9.316406 12.589844 8.820312 C 12.640625 8.550781 12.664062 8.273438 12.667969 8 C 12.667969 5.421875 10.578125 3.332031 8 3.332031 C 7.722656 3.332031 7.445312 3.359375 7.175781 3.410156 C 6.679688 2.933594 6.019531 2.667969 5.332031 2.667969 Z M 5.332031 7.394531 L 10.667969 7.394531 L 10.667969 8.726562 L 5.332031 8.726562 Z M 5.332031 7.394531 "/>
<path style=" stroke:none;fill-rule:nonzero;fill:rgb(25.882354%,52.156866%,95.686275%);fill-opacity:1;" d="M 14.667969 3.332031 C 14.667969 4.070312 14.070312 4.667969 13.332031 4.667969 C 12.597656 4.667969 12 4.070312 12 3.332031 C 12 2.597656 12.597656 2 13.332031 2 C 14.070312 2 14.667969 2.597656 14.667969 3.332031 Z M 14.667969 3.332031 "/>
</g>
</svg>
