<svg xmlns="http://www.w3.org/2000/svg" xmlns:xlink="http://www.w3.org/1999/xlink" width="16" height="16" viewBox="0 0 16 16" version="1.1">
<defs>
<filter id="alpha" filterUnits="objectBoundingBox" x="0%" y="0%" width="100%" height="100%">
  <feColorMatrix type="matrix" in="SourceGraphic" values="0 0 0 0 1 0 0 0 0 1 0 0 0 0 1 0 0 0 1 0"/>
</filter>
<mask id="mask0">
  <g filter="url(#alpha)">
<rect x="0" y="0" width="16" height="16" style="fill:rgb(0%,0%,0%);fill-opacity:0.3;stroke:none;"/>
  </g>
</mask>
<clipPath id="clip1">
  <rect x="0" y="0" width="16" height="16"/>
</clipPath>
<g id="surface5" clip-path="url(#clip1)">
<path style=" stroke:none;fill-rule:nonzero;fill:rgb(67.058825%,40.000001%,100%);fill-opacity:1;" d="M 5.332031 2.667969 C 3.859375 2.667969 2.667969 3.859375 2.667969 5.332031 C 2.667969 6.023438 2.933594 6.683594 3.410156 7.179688 C 3.359375 7.449219 3.335938 7.726562 3.332031 8 C 3.332031 10.578125 5.421875 12.667969 8 12.667969 C 8.277344 12.667969 8.554688 12.640625 8.824219 12.589844 C 9.320312 13.066406 9.980469 13.332031 10.667969 13.332031 C 12.140625 13.332031 13.332031 12.140625 13.332031 10.667969 C 13.332031 9.976562 13.066406 9.316406 12.589844 8.820312 C 12.640625 8.550781 12.664062 8.273438 12.667969 8 C 12.667969 5.421875 10.578125 3.332031 8 3.332031 C 7.722656 3.332031 7.445312 3.359375 7.175781 3.410156 C 6.679688 2.933594 6.019531 2.667969 5.332031 2.667969 Z M 6.472656 5.589844 L 8 7.117188 L 9.527344 5.589844 L 10.472656 6.53125 L 8.941406 8.058594 L 10.472656 9.589844 L 9.527344 10.53125 L 8 9.003906 L 6.472656 10.53125 L 5.527344 9.589844 L 7.058594 8.058594 L 5.527344 6.53125 Z M 6.472656 5.589844 "/>
</g>
</defs>
<g id="surface1">
<use xlink:href="#surface5" mask="url(#mask0)"/>
</g>
</svg>
