<svg xmlns="http://www.w3.org/2000/svg" xmlns:xlink="http://www.w3.org/1999/xlink" width="16" height="16" viewBox="0 0 16 16" version="1.1">
<g id="surface1">
<path style=" stroke:none;fill-rule:nonzero;fill:rgb(25.882354%,52.156866%,95.686275%);fill-opacity:1;" d="M 5.332031 2.667969 C 4.667969 2.667969 4.667969 3.332031 4.667969 3.332031 L 4.667969 12.667969 C 4.667969 12.667969 4.667969 13.332031 5.332031 13.332031 L 10.667969 13.332031 C 11.332031 13.332031 11.332031 12.667969 11.332031 12.667969 L 11.332031 3.332031 C 11.332031 3.332031 11.332031 2.667969 10.667969 2.667969 Z M 10 4.667969 L 10 10.667969 L 6 10.667969 L 6 4.667969 Z M 7.667969 11.332031 L 8.332031 11.332031 C 8.332031 11.332031 8.667969 11.332031 8.667969 11.667969 L 8.667969 12.332031 C 8.667969 12.332031 8.667969 12.667969 8.332031 12.667969 L 7.667969 12.667969 C 7.667969 12.667969 7.332031 12.667969 7.332031 12.332031 L 7.332031 11.667969 C 7.332031 11.667969 7.332031 11.332031 7.667969 11.332031 Z M 7.667969 11.332031 "/>
</g>
</svg>
