<svg xmlns="http://www.w3.org/2000/svg" xmlns:xlink="http://www.w3.org/1999/xlink" width="16" height="16" viewBox="0 0 16 16" version="1.1">
<defs>
<filter id="alpha" filterUnits="objectBoundingBox" x="0%" y="0%" width="100%" height="100%">
  <feColorMatrix type="matrix" in="SourceGraphic" values="0 0 0 0 1 0 0 0 0 1 0 0 0 0 1 0 0 0 1 0"/>
</filter>
<mask id="mask0">
  <g filter="url(#alpha)">
<rect x="0" y="0" width="16" height="16" style="fill:rgb(0%,0%,0%);fill-opacity:0.3;stroke:none;"/>
  </g>
</mask>
<clipPath id="clip1">
  <rect x="0" y="0" width="16" height="16"/>
</clipPath>
<g id="surface5" clip-path="url(#clip1)">
<path style=" stroke:none;fill-rule:nonzero;fill:rgb(100%,74.901962%,0%);fill-opacity:1;" d="M 8 2.667969 C 7.71875 2.667969 7.441406 2.769531 7.230469 2.980469 L 2.980469 7.234375 C 2.769531 7.441406 2.667969 7.71875 2.667969 8 L 7.332031 8 L 7.332031 6 L 10 8 L 13.332031 8 C 13.332031 7.71875 13.226562 7.441406 13.019531 7.234375 L 8.769531 2.980469 C 8.558594 2.769531 8.28125 2.667969 8 2.667969 Z M 8 2.667969 "/>
</g>
</defs>
<g id="surface1">
<use xlink:href="#surface5" mask="url(#mask0)"/>
<path style=" stroke:none;fill-rule:nonzero;fill:rgb(100%,74.901962%,0%);fill-opacity:1;" d="M 2.667969 8 C 2.667969 8.277344 2.773438 8.558594 2.980469 8.765625 L 7.234375 13.019531 C 7.652344 13.4375 8.351562 13.4375 8.769531 13.019531 L 13.019531 8.765625 C 13.226562 8.558594 13.332031 8.277344 13.332031 8 L 10 8 L 7.332031 10 L 7.332031 8 Z M 2.667969 8 "/>
</g>
</svg>
