<svg xmlns="http://www.w3.org/2000/svg" xmlns:xlink="http://www.w3.org/1999/xlink" width="16" height="16" viewBox="0 0 16 16" version="1.1">
<g id="surface1">
<path style=" stroke:none;fill-rule:nonzero;fill:rgb(100%,74.901962%,0%);fill-opacity:1;" d="M 8 2.667969 C 5.046875 2.667969 2.667969 5.046875 2.667969 8 C 2.667969 10.953125 5.046875 13.332031 8 13.332031 C 10.953125 13.332031 13.332031 10.953125 13.332031 8 C 13.332031 5.046875 10.953125 2.667969 8 2.667969 Z M 8 3.332031 C 8.738281 3.332031 9.332031 3.929688 9.332031 4.667969 C 9.332031 5.402344 8.738281 6 8 6 C 7.261719 6 6.667969 5.402344 6.667969 4.667969 C 6.667969 3.929688 7.261719 3.332031 8 3.332031 Z M 4.667969 6.667969 C 5.402344 6.667969 6 7.261719 6 8 C 6 8.738281 5.402344 9.332031 4.667969 9.332031 C 3.929688 9.332031 3.332031 8.738281 3.332031 8 C 3.332031 7.261719 3.929688 6.667969 4.667969 6.667969 Z M 11.332031 6.667969 C 12.070312 6.667969 12.667969 7.261719 12.667969 8 C 12.667969 8.738281 12.070312 9.332031 11.332031 9.332031 C 10.597656 9.332031 10 8.738281 10 8 C 10 7.261719 10.597656 6.667969 11.332031 6.667969 Z M 7.660156 7.089844 C 7.78125 7.085938 7.894531 7.152344 7.957031 7.257812 C 8.046875 7.414062 7.992188 7.617188 7.832031 7.710938 C 7.757812 7.753906 7.667969 7.765625 7.582031 7.746094 C 7.496094 7.722656 7.421875 7.667969 7.378906 7.589844 C 7.332031 7.511719 7.320312 7.421875 7.34375 7.335938 C 7.367188 7.25 7.421875 7.179688 7.5 7.132812 C 7.546875 7.105469 7.601562 7.089844 7.660156 7.089844 Z M 8.570312 7.332031 C 8.691406 7.332031 8.804688 7.394531 8.867188 7.5 C 8.910156 7.578125 8.921875 7.667969 8.898438 7.753906 C 8.875 7.839844 8.820312 7.910156 8.742188 7.957031 C 8.585938 8.046875 8.382812 7.992188 8.289062 7.832031 C 8.246094 7.757812 8.234375 7.664062 8.253906 7.578125 C 8.277344 7.496094 8.332031 7.421875 8.410156 7.375 C 8.457031 7.347656 8.511719 7.332031 8.570312 7.332031 Z M 7.414062 8 C 7.539062 7.996094 7.652344 8.0625 7.710938 8.167969 C 7.804688 8.324219 7.75 8.53125 7.589844 8.621094 C 7.511719 8.667969 7.421875 8.679688 7.335938 8.65625 C 7.25 8.632812 7.179688 8.578125 7.132812 8.5 C 7.089844 8.421875 7.078125 8.332031 7.101562 8.246094 C 7.125 8.160156 7.179688 8.085938 7.257812 8.042969 C 7.304688 8.015625 7.359375 8 7.414062 8 Z M 8.324219 8.242188 C 8.449219 8.242188 8.5625 8.304688 8.621094 8.410156 C 8.667969 8.488281 8.679688 8.578125 8.65625 8.664062 C 8.632812 8.75 8.578125 8.820312 8.5 8.867188 C 8.421875 8.910156 8.332031 8.921875 8.246094 8.898438 C 8.160156 8.875 8.089844 8.820312 8.042969 8.742188 C 7.953125 8.585938 8.007812 8.382812 8.167969 8.289062 C 8.214844 8.261719 8.269531 8.246094 8.324219 8.242188 Z M 8 10 C 8.738281 10 9.332031 10.597656 9.332031 11.332031 C 9.332031 12.070312 8.738281 12.667969 8 12.667969 C 7.261719 12.667969 6.667969 12.070312 6.667969 11.332031 C 6.667969 10.597656 7.261719 10 8 10 Z M 8 10 "/>
</g>
</svg>
