<svg xmlns="http://www.w3.org/2000/svg" xmlns:xlink="http://www.w3.org/1999/xlink" width="16" height="16" viewBox="0 0 16 16" version="1.1">
<g id="surface1">
<path style=" stroke:none;fill-rule:nonzero;fill:rgb(100%,30.980393%,30.980393%);fill-opacity:1;" d="M 4 2.667969 C 3.261719 2.667969 2.667969 3.261719 2.667969 4 L 2.667969 12 C 2.667969 12.738281 3.261719 13.332031 4 13.332031 L 12 13.332031 C 12.738281 13.332031 13.332031 12.738281 13.332031 12 L 13.332031 4 C 13.332031 3.261719 12.738281 2.667969 12 2.667969 Z M 6.578125 4.203125 L 7.632812 6.035156 C 7.753906 6.011719 7.878906 6 8 6 C 8.121094 6 8.246094 6.011719 8.363281 6.035156 L 9.421875 4.203125 L 10.578125 4.871094 L 9.519531 6.703125 C 9.679688 6.890625 9.800781 7.101562 9.882812 7.332031 L 12 7.332031 L 12 8.667969 L 9.882812 8.667969 C 9.800781 8.898438 9.679688 9.113281 9.519531 9.300781 L 10.578125 11.128906 L 9.421875 11.796875 L 8.367188 9.964844 C 8.246094 9.988281 8.121094 10 8 10 C 7.878906 10 7.753906 9.988281 7.636719 9.964844 L 6.578125 11.796875 L 5.421875 11.128906 L 6.480469 9.296875 C 6.320312 9.109375 6.199219 8.898438 6.117188 8.667969 L 4 8.667969 L 4 7.332031 L 6.117188 7.332031 C 6.199219 7.101562 6.320312 6.886719 6.480469 6.699219 L 5.421875 4.871094 Z M 8 6.667969 C 7.261719 6.667969 6.667969 7.261719 6.667969 8 C 6.667969 8.738281 7.261719 9.332031 8 9.332031 C 8.738281 9.332031 9.332031 8.738281 9.332031 8 C 9.332031 7.261719 8.738281 6.667969 8 6.667969 Z M 8 6.667969 "/>
</g>
</svg>
