<svg xmlns="http://www.w3.org/2000/svg" xmlns:xlink="http://www.w3.org/1999/xlink" width="16" height="16" viewBox="0 0 16 16" version="1.1">
<g id="surface1">
<path style=" stroke:none;fill-rule:nonzero;fill:rgb(67.058825%,40.000001%,100%);fill-opacity:1;" d="M 3.667969 3.332031 L 5 3.332031 C 5.183594 3.332031 5.332031 3.484375 5.332031 3.667969 L 5.332031 5 C 5.332031 5.183594 5.183594 5.332031 5 5.332031 L 3.667969 5.332031 C 3.484375 5.332031 3.332031 5.183594 3.332031 5 L 3.332031 3.667969 C 3.332031 3.484375 3.484375 3.332031 3.667969 3.332031 Z M 3.667969 3.332031 "/>
<path style=" stroke:none;fill-rule:nonzero;fill:rgb(67.058825%,40.000001%,100%);fill-opacity:1;" d="M 3.667969 6.667969 L 5 6.667969 C 5.183594 6.667969 5.332031 6.816406 5.332031 7 L 5.332031 8.332031 C 5.332031 8.515625 5.183594 8.667969 5 8.667969 L 3.667969 8.667969 C 3.484375 8.667969 3.332031 8.515625 3.332031 8.332031 L 3.332031 7 C 3.332031 6.816406 3.484375 6.667969 3.667969 6.667969 Z M 3.667969 6.667969 "/>
<path style=" stroke:none;fill-rule:nonzero;fill:rgb(67.058825%,40.000001%,100%);fill-opacity:1;" d="M 3.667969 10 L 5 10 C 5.183594 10 5.332031 10.148438 5.332031 10.332031 L 5.332031 11.667969 C 5.332031 11.851562 5.183594 12 5 12 L 3.667969 12 C 3.484375 12 3.332031 11.851562 3.332031 11.667969 L 3.332031 10.332031 C 3.332031 10.148438 3.484375 10 3.667969 10 Z M 3.667969 10 "/>
<path style=" stroke:none;fill-rule:nonzero;fill:rgb(67.058825%,40.000001%,100%);fill-opacity:1;" d="M 7 3.332031 L 8.332031 3.332031 C 8.515625 3.332031 8.667969 3.484375 8.667969 3.667969 L 8.667969 5 C 8.667969 5.183594 8.515625 5.332031 8.332031 5.332031 L 7 5.332031 C 6.816406 5.332031 6.667969 5.183594 6.667969 5 L 6.667969 3.667969 C 6.667969 3.484375 6.816406 3.332031 7 3.332031 Z M 7 3.332031 "/>
<path style=" stroke:none;fill-rule:nonzero;fill:rgb(67.058825%,40.000001%,100%);fill-opacity:1;" d="M 7 6.667969 L 8.332031 6.667969 C 8.515625 6.667969 8.667969 6.816406 8.667969 7 L 8.667969 8.332031 C 8.667969 8.515625 8.515625 8.667969 8.332031 8.667969 L 7 8.667969 C 6.816406 8.667969 6.667969 8.515625 6.667969 8.332031 L 6.667969 7 C 6.667969 6.816406 6.816406 6.667969 7 6.667969 Z M 7 6.667969 "/>
<path style=" stroke:none;fill-rule:nonzero;fill:rgb(67.058825%,40.000001%,100%);fill-opacity:1;" d="M 7 10 L 8.332031 10 C 8.515625 10 8.667969 10.148438 8.667969 10.332031 L 8.667969 11.667969 C 8.667969 11.851562 8.515625 12 8.332031 12 L 7 12 C 6.816406 12 6.667969 11.851562 6.667969 11.667969 L 6.667969 10.332031 C 6.667969 10.148438 6.816406 10 7 10 Z M 7 10 "/>
<path style=" stroke:none;fill-rule:nonzero;fill:rgb(67.058825%,40.000001%,100%);fill-opacity:1;" d="M 10.332031 3.332031 L 11.667969 3.332031 C 11.851562 3.332031 12 3.484375 12 3.667969 L 12 5 C 12 5.183594 11.851562 5.332031 11.667969 5.332031 L 10.332031 5.332031 C 10.148438 5.332031 10 5.183594 10 5 L 10 3.667969 C 10 3.484375 10.148438 3.332031 10.332031 3.332031 Z M 10.332031 3.332031 "/>
<path style=" stroke:none;fill-rule:nonzero;fill:rgb(67.058825%,40.000001%,100%);fill-opacity:1;" d="M 10.332031 6.667969 L 11.667969 6.667969 C 11.851562 6.667969 12 6.816406 12 7 L 12 8.332031 C 12 8.515625 11.851562 8.667969 11.667969 8.667969 L 10.332031 8.667969 C 10.148438 8.667969 10 8.515625 10 8.332031 L 10 7 C 10 6.816406 10.148438 6.667969 10.332031 6.667969 Z M 10.332031 6.667969 "/>
<path style=" stroke:none;fill-rule:nonzero;fill:rgb(67.058825%,40.000001%,100%);fill-opacity:1;" d="M 10.332031 10 L 11.667969 10 C 11.851562 10 12 10.148438 12 10.332031 L 12 11.667969 C 12 11.851562 11.851562 12 11.667969 12 L 10.332031 12 C 10.148438 12 10 11.851562 10 11.667969 L 10 10.332031 C 10 10.148438 10.148438 10 10.332031 10 Z M 10.332031 10 "/>
</g>
</svg>
