<svg xmlns="http://www.w3.org/2000/svg" xmlns:xlink="http://www.w3.org/1999/xlink" width="16" height="16" viewBox="0 0 16 16" version="1.1">
<g id="surface1">
<path style=" stroke:none;fill-rule:nonzero;fill:rgb(0%,80.000001%,100%);fill-opacity:1;" d="M 8.566406 2.667969 C 8.195312 2.660156 7.820312 2.765625 7.507812 2.972656 C 7.195312 3.175781 6.945312 3.476562 6.804688 3.824219 C 6.664062 4.167969 6.628906 4.558594 6.707031 4.921875 C 6.789062 5.289062 6.976562 5.628906 7.25 5.882812 C 7.113281 5.65625 7.039062 5.386719 7.050781 5.121094 C 7.058594 4.855469 7.144531 4.589844 7.296875 4.371094 C 7.449219 4.152344 7.664062 3.980469 7.910156 3.878906 C 8.726562 3.601562 9.347656 3.949219 9.625 4.667969 L 13.234375 4.667969 L 10.234375 3.777344 C 10.09375 3.453125 9.855469 3.175781 9.5625 2.980469 C 9.269531 2.785156 8.921875 2.671875 8.566406 2.667969 Z M 3.332031 3.332031 C 2.90625 3.78125 2.660156 4.398438 2.667969 5.019531 C 2.671875 5.652344 2.933594 6.277344 3.378906 6.714844 C 3.449219 6.785156 3.53125 6.839844 3.605469 6.898438 L 3 6.710938 C 2.882812 7.15625 2.921875 7.640625 3.097656 8.066406 C 3.277344 8.488281 3.601562 8.847656 4 9.070312 C 4.304688 9.242188 4.652344 9.332031 5 9.332031 C 5.347656 9.332031 5.695312 9.242188 6 9.070312 C 5.71875 9.097656 5.433594 9.050781 5.175781 8.9375 C 4.917969 8.824219 4.6875 8.640625 4.515625 8.417969 C 4.320312 8.15625 4.195312 7.835938 4.171875 7.511719 L 7.332031 8.058594 L 4.453125 7.164062 C 4.351562 7.09375 4.25 7.019531 4.167969 6.925781 C 3.929688 6.671875 3.78125 6.335938 3.753906 5.988281 C 3.730469 5.648438 3.816406 5.304688 4 5.019531 L 7.667969 7.046875 Z M 9.335938 5.449219 C 9.152344 5.667969 9.03125 5.9375 8.992188 6.222656 C 8.953125 6.492188 8.988281 6.765625 9.058594 7.027344 C 9.132812 7.285156 9.238281 7.539062 9.339844 7.789062 C 9.445312 8.039062 9.546875 8.289062 9.617188 8.550781 C 9.683594 8.8125 9.714844 9.089844 9.667969 9.355469 C 9.59375 9.800781 9.308594 10.199219 8.9375 10.457031 C 8.566406 10.71875 8.113281 10.84375 7.660156 10.875 C 7.089844 10.910156 6.511719 10.796875 6 10.542969 L 6.011719 13.199219 L 6.675781 11.878906 C 7.554688 12.132812 8.539062 12.007812 9.324219 11.539062 C 9.71875 11.300781 10.066406 10.980469 10.308594 10.585938 C 10.550781 10.191406 10.6875 9.730469 10.664062 9.269531 C 10.632812 8.613281 10.296875 8.015625 9.976562 7.441406 C 9.65625 6.867188 9.335938 6.257812 9.332031 5.601562 C 9.332031 5.550781 9.332031 5.5 9.335938 5.449219 Z M 9.335938 5.449219 "/>
</g>
</svg>
