<svg xmlns="http://www.w3.org/2000/svg" xmlns:xlink="http://www.w3.org/1999/xlink" width="16" height="16" viewBox="0 0 16 16" version="1.1">
<g id="surface1">
<path style=" stroke:none;fill-rule:nonzero;fill:rgb(100%,74.901962%,0%);fill-opacity:1;" d="M 8 2.667969 C 5.054688 2.667969 2.667969 5.054688 2.667969 8 C 2.667969 10.945312 5.054688 13.332031 8 13.332031 C 10.945312 13.332031 13.332031 10.945312 13.332031 8 C 13.332031 5.054688 10.945312 2.667969 8 2.667969 Z M 8.097656 5.332031 C 8.96875 5.367188 9.765625 5.824219 10.234375 6.546875 L 11.160156 6.238281 L 10.113281 8.335938 L 8.015625 7.285156 L 8.867188 7 C 8.640625 6.804688 8.359375 6.675781 8.046875 6.664062 C 7.550781 6.648438 7.089844 6.902344 6.84375 7.332031 L 5.6875 6.664062 C 6.179688 5.808594 7.109375 5.296875 8.097656 5.332031 Z M 5.886719 7.664062 L 7.984375 8.714844 L 7.132812 9 C 7.359375 9.195312 7.640625 9.320312 7.953125 9.332031 C 8.449219 9.351562 8.910156 9.097656 9.15625 8.667969 L 10.3125 9.335938 C 9.820312 10.1875 8.890625 10.703125 7.902344 10.667969 C 7.03125 10.632812 6.238281 10.175781 5.769531 9.453125 L 4.84375 9.761719 Z M 5.886719 7.664062 "/>
</g>
</svg>
