<svg xmlns="http://www.w3.org/2000/svg" xmlns:xlink="http://www.w3.org/1999/xlink" width="16" height="16" viewBox="0 0 16 16" version="1.1">
<g id="surface1">
<path style=" stroke:none;fill-rule:nonzero;fill:rgb(96.862745%,0%,100%);fill-opacity:1;" d="M 7.941406 2.667969 C 7.574219 2.6875 7.242188 2.917969 7.0625 3.269531 L 4.9375 7.390625 L 2.808594 11.511719 C 2.71875 11.6875 2.667969 11.886719 2.664062 12.089844 C 2.660156 12.417969 2.769531 12.734375 2.972656 12.964844 C 3.175781 13.199219 3.457031 13.332031 3.746094 13.332031 L 12.25 13.332031 C 12.636719 13.332031 12.992188 13.101562 13.1875 12.726562 C 13.378906 12.351562 13.378906 11.886719 13.1875 11.511719 L 8.9375 3.269531 C 8.75 2.914062 8.417969 2.683594 8.046875 2.667969 C 8.011719 2.664062 7.976562 2.664062 7.941406 2.667969 Z M 7.332031 5.332031 L 8.664062 5.332031 L 8.664062 10 L 7.332031 10 Z M 7.332031 10.664062 L 8.664062 10.664062 L 8.664062 12 L 7.332031 12 Z M 7.332031 10.664062 "/>
</g>
</svg>
