<svg xmlns="http://www.w3.org/2000/svg" xmlns:xlink="http://www.w3.org/1999/xlink" width="16" height="16" viewBox="0 0 16 16" version="1.1">
<g id="surface1">
<path style=" stroke:none;fill-rule:nonzero;fill:rgb(67.058825%,40.000001%,100%);fill-opacity:1;" d="M 11.667969 4 C 10.496094 4 9.507812 4.867188 9.355469 6.027344 L 8.316406 8.027344 C 8.210938 8.007812 8.105469 8 8 8 C 7.484375 8 6.984375 8.203125 6.613281 8.5625 L 5.984375 8.246094 C 5.992188 8.164062 6 8.082031 6 8 C 6 6.894531 5.105469 6 4 6 C 2.894531 6 2 6.894531 2 8 C 2 9.105469 2.894531 10 4 10 C 4.515625 10 5.015625 9.796875 5.386719 9.4375 L 6.015625 9.753906 C 6.007812 9.835938 6 9.917969 6 10 C 6 11.105469 6.894531 12 8 12 C 9.101562 12 9.992188 11.113281 10 10.011719 L 12.445312 8.53125 C 13.375 8.203125 14 7.320312 14 6.332031 C 14 5.042969 12.957031 4 11.667969 4 Z M 11.667969 4.667969 C 12.585938 4.667969 13.332031 5.414062 13.332031 6.332031 C 13.332031 7.253906 12.585938 8 11.667969 8 C 10.746094 8 10 7.253906 10 6.332031 C 10 5.414062 10.746094 4.667969 11.667969 4.667969 Z M 11.667969 5.332031 C 11.113281 5.332031 10.667969 5.78125 10.667969 6.332031 C 10.667969 6.886719 11.113281 7.332031 11.667969 7.332031 C 12.21875 7.332031 12.667969 6.886719 12.667969 6.332031 C 12.667969 5.78125 12.21875 5.332031 11.667969 5.332031 Z M 4 6.667969 C 4.703125 6.667969 5.285156 7.214844 5.328125 7.917969 L 4.296875 7.402344 C 4.199219 7.351562 4.089844 7.328125 3.976562 7.328125 C 3.667969 7.335938 3.40625 7.554688 3.339844 7.855469 C 3.273438 8.15625 3.425781 8.460938 3.703125 8.597656 L 4.734375 9.113281 C 4.515625 9.257812 4.261719 9.332031 4 9.332031 C 3.261719 9.332031 2.667969 8.738281 2.667969 8 C 2.667969 7.261719 3.261719 6.667969 4 6.667969 Z M 8 8.667969 C 8.738281 8.667969 9.332031 9.261719 9.332031 10 C 9.332031 10.738281 8.738281 11.332031 8 11.332031 C 7.296875 11.332031 6.714844 10.785156 6.671875 10.082031 L 7.703125 10.597656 C 8.03125 10.761719 8.433594 10.628906 8.597656 10.296875 C 8.761719 9.96875 8.628906 9.566406 8.296875 9.402344 L 7.265625 8.886719 C 7.484375 8.742188 7.738281 8.667969 8 8.667969 Z M 8 8.667969 "/>
</g>
</svg>
