<svg xmlns="http://www.w3.org/2000/svg" xmlns:xlink="http://www.w3.org/1999/xlink" width="16" height="16" viewBox="0 0 16 16" version="1.1">
<g id="surface1">
<path style=" stroke:none;fill-rule:nonzero;fill:rgb(67.058825%,40.000001%,100%);fill-opacity:1;" d="M 9 2.746094 C 7.972656 2.746094 7.019531 3.273438 6.46875 4.136719 C 6.316406 4.101562 6.160156 4.082031 6 4.078125 C 4.894531 4.078125 4 4.976562 4 6.078125 C 4 6.351562 4.054688 6.617188 4.164062 6.867188 C 2.882812 7.238281 2 8.414062 2 9.746094 C 2 11.402344 3.34375 12.746094 5 12.746094 L 9.296875 12.746094 L 6.753906 9.972656 C 6.679688 9.875 6.664062 9.742188 6.71875 9.632812 C 6.769531 9.519531 6.878906 9.445312 7 9.4375 L 8.667969 9.4375 L 8.667969 6.4375 C 8.667969 6.253906 8.816406 6.105469 9 6.105469 L 12.332031 6.105469 C 12.382812 6.105469 12.429688 6.117188 12.472656 6.136719 C 12.324219 6.027344 12.164062 5.929688 11.996094 5.84375 C 11.996094 5.820312 12 5.796875 12 5.773438 C 12 4.113281 10.65625 2.773438 9 2.773438 Z M 12.601562 6.214844 C 12.644531 6.269531 12.667969 6.339844 12.667969 6.414062 L 12.667969 9.414062 L 13.972656 9.414062 C 13.980469 9.300781 14 9.191406 14 9.078125 C 14 7.949219 13.46875 6.898438 12.601562 6.214844 Z M 9.332031 6.746094 L 9.332031 9.746094 C 9.332031 9.929688 9.183594 10.082031 9 10.082031 L 7.757812 10.082031 L 10.667969 13.253906 L 13.574219 10.082031 L 12.332031 10.082031 C 12.148438 10.082031 12 9.929688 12 9.746094 L 12 6.746094 Z M 9.332031 6.746094 "/>
</g>
</svg>
