<svg xmlns="http://www.w3.org/2000/svg" xmlns:xlink="http://www.w3.org/1999/xlink" width="16" height="16" viewBox="0 0 16 16" version="1.1">
<g id="surface1">
<path style=" stroke:none;fill-rule:nonzero;fill:rgb(0%,80.000001%,100%);fill-opacity:1;" d="M 8.808594 3.359375 C 8.765625 3.363281 8.746094 3.363281 8.695312 3.367188 C 7.066406 3.542969 5.707031 4.550781 4.15625 6.738281 C 3.683594 7.398438 3.082031 8.246094 2.816406 8.621094 C 1.6875 10.207031 1.734375 11.835938 2.929688 12.519531 C 3.703125 12.960938 4.449219 13.136719 5.632812 13.152344 C 6.226562 13.164062 7.097656 13.207031 7.566406 13.25 C 8.875 13.371094 9.039062 13.367188 9.960938 13.207031 C 10.992188 13.027344 11.789062 12.652344 12.425781 12.046875 C 12.683594 11.804688 12.996094 11.339844 13.253906 10.867188 C 13.164062 10.71875 13.109375 10.582031 13.035156 10.433594 C 12.929688 10.523438 12.835938 10.636719 12.722656 10.703125 C 12.601562 10.773438 12.484375 10.835938 12.3125 10.875 C 12.140625 10.914062 11.800781 10.9375 11.539062 10.652344 C 11.308594 10.398438 11.355469 10.269531 11.355469 10.1875 C 11.351562 10.101562 11.359375 10.042969 11.367188 9.988281 C 11.382812 9.875 11.410156 9.769531 11.449219 9.660156 C 11.421875 9.738281 11.472656 9.539062 11.496094 9.34375 C 11.515625 9.152344 11.535156 8.90625 11.546875 8.675781 L 11.550781 8.550781 C 11.371094 8.566406 11.246094 8.582031 11.042969 8.601562 C 10.699219 8.628906 10.527344 8.664062 10.242188 8.609375 C 10.097656 8.585938 9.859375 8.492188 9.714844 8.285156 C 9.566406 8.078125 9.570312 7.890625 9.570312 7.796875 C 9.570312 7.308594 9.757812 7.054688 9.957031 6.726562 C 10.09375 6.5 10.28125 6.308594 10.460938 6.113281 C 10.300781 6.019531 10.125 5.917969 9.9375 5.820312 C 9.542969 5.609375 9.347656 5.527344 9.109375 5.316406 C 9.050781 5.261719 8.980469 5.191406 8.917969 5.070312 C 8.855469 4.949219 8.816406 4.757812 8.847656 4.589844 C 8.914062 4.253906 9.085938 4.160156 9.164062 4.101562 C 9.238281 4.039062 9.304688 4.039062 9.375 4 C 9.234375 3.867188 9.019531 3.738281 8.9375 3.613281 C 8.875 3.523438 8.84375 3.441406 8.808594 3.359375 Z M 8.128906 5.339844 C 8.199219 5.332031 8.269531 5.332031 8.332031 5.339844 C 8.417969 5.355469 8.496094 5.390625 8.554688 5.445312 C 8.785156 5.675781 8.632812 6.203125 8.375 6.460938 C 8.121094 6.714844 7.722656 6.738281 7.492188 6.507812 C 7.261719 6.277344 7.285156 5.878906 7.539062 5.625 C 7.683594 5.480469 7.914062 5.367188 8.128906 5.339844 Z M 5.460938 6.671875 C 5.53125 6.664062 5.601562 6.664062 5.667969 6.675781 C 5.753906 6.6875 5.828125 6.722656 5.886719 6.78125 C 6.117188 7.011719 5.964844 7.535156 5.710938 7.792969 C 5.453125 8.050781 5.058594 8.070312 4.828125 7.839844 C 4.59375 7.609375 4.617188 7.214844 4.875 6.957031 C 5.019531 6.8125 5.246094 6.703125 5.460938 6.671875 Z M 7.460938 8.007812 C 7.53125 7.996094 7.601562 7.996094 7.667969 8.007812 C 7.753906 8.023438 7.828125 8.054688 7.886719 8.113281 C 8.117188 8.34375 7.964844 8.871094 7.710938 9.125 C 7.453125 9.382812 7.058594 9.402344 6.828125 9.171875 C 6.59375 8.941406 6.617188 8.546875 6.875 8.289062 C 7.019531 8.144531 7.246094 8.035156 7.460938 8.007812 Z M 10.128906 8.671875 C 10.199219 8.664062 10.269531 8.664062 10.332031 8.675781 C 10.417969 8.6875 10.496094 8.722656 10.554688 8.78125 C 10.785156 9.011719 10.632812 9.535156 10.375 9.792969 C 10.121094 10.050781 9.722656 10.070312 9.492188 9.839844 C 9.261719 9.609375 9.285156 9.214844 9.539062 8.957031 C 9.683594 8.8125 9.914062 8.703125 10.128906 8.671875 Z M 4.128906 9.339844 C 4.199219 9.332031 4.269531 9.332031 4.332031 9.339844 C 4.417969 9.355469 4.496094 9.390625 4.554688 9.445312 C 4.785156 9.675781 4.632812 10.203125 4.375 10.460938 C 4.121094 10.714844 3.722656 10.738281 3.492188 10.507812 C 3.261719 10.277344 3.285156 9.878906 3.539062 9.625 C 3.683594 9.480469 3.914062 9.367188 4.128906 9.339844 Z M 6.792969 10.671875 C 6.867188 10.664062 6.933594 10.664062 7 10.675781 C 7.085938 10.6875 7.160156 10.722656 7.21875 10.78125 C 7.449219 11.011719 7.300781 11.535156 7.042969 11.792969 C 6.785156 12.050781 6.390625 12.070312 6.160156 11.839844 C 5.929688 11.609375 5.949219 11.214844 6.207031 10.957031 C 6.351562 10.8125 6.578125 10.703125 6.792969 10.671875 Z M 8.792969 11.339844 C 8.867188 11.332031 8.933594 11.332031 9 11.339844 C 9.085938 11.355469 9.160156 11.390625 9.21875 11.445312 C 9.449219 11.675781 9.300781 12.203125 9.042969 12.460938 C 8.785156 12.714844 8.390625 12.738281 8.160156 12.507812 C 7.929688 12.277344 7.949219 11.878906 8.207031 11.625 C 8.351562 11.480469 8.578125 11.367188 8.792969 11.339844 Z M 8.792969 11.339844 "/>
<path style=" stroke:none;fill-rule:nonzero;fill:rgb(0%,80.000001%,100%);fill-opacity:1;" d="M 9.390625 2.667969 C 9.332031 2.667969 9.316406 2.789062 9.351562 2.945312 C 9.351562 2.945312 9.457031 3.453125 10.160156 3.828125 C 10.648438 4.070312 10.648438 4.207031 10.15625 4.355469 C 9.941406 4.417969 9.683594 4.535156 9.578125 4.621094 C 9.40625 4.757812 9.46875 4.8125 10.25 5.230469 C 10.726562 5.484375 11.203125 5.765625 11.308594 5.855469 C 11.496094 6.011719 11.488281 6.03125 11.125 6.335938 C 10.71875 6.675781 10.238281 7.46875 10.238281 7.796875 C 10.238281 7.976562 10.316406 7.992188 10.984375 7.9375 C 11.394531 7.902344 11.847656 7.855469 11.988281 7.839844 L 12.246094 7.804688 L 12.210938 8.703125 C 12.191406 9.199219 12.132812 9.726562 12.078125 9.878906 C 12.027344 10.027344 12.003906 10.175781 12.03125 10.203125 C 12.140625 10.320312 12.578125 10.058594 12.882812 9.699219 C 13.191406 9.328125 13.210938 9.320312 13.277344 9.546875 C 13.496094 9.953125 13.59375 10.308594 13.9375 10.667969 C 14.015625 10.675781 14.074219 10.574219 14.121094 10.375 C 14.273438 9.75 14.191406 9.148438 13.875 8.527344 C 13.703125 8.191406 13.535156 7.664062 13.5 7.351562 C 13.464844 7.042969 13.410156 6.679688 13.375 6.550781 C 13.324219 6.351562 13.425781 6.234375 13.992188 5.84375 C 14.636719 5.394531 14.804688 5.140625 14.558594 4.976562 C 14.5 4.9375 14.179688 5.058594 13.847656 5.253906 C 13.519531 5.445312 13.183594 5.601562 13.105469 5.601562 C 13.027344 5.601562 12.777344 5.363281 12.554688 5.066406 C 12.164062 4.554688 12.144531 4.496094 12.144531 3.738281 C 12.144531 3.023438 12.125 2.945312 11.925781 2.914062 C 11.769531 2.890625 11.675781 2.972656 11.578125 3.226562 C 11.507812 3.414062 11.414062 3.570312 11.371094 3.570312 C 11.324219 3.570312 10.886719 3.367188 10.390625 3.117188 C 9.898438 2.871094 9.449219 2.667969 9.390625 2.667969 Z M 9.390625 2.667969 "/>
</g>
</svg>
