<svg xmlns="http://www.w3.org/2000/svg" xmlns:xlink="http://www.w3.org/1999/xlink" width="16" height="16" viewBox="0 0 16 16" version="1.1">
<g id="surface1">
<path style=" stroke:none;fill-rule:nonzero;fill:rgb(0%,80.000001%,100%);fill-opacity:1;" d="M 8 2.667969 C 7.828125 2.667969 7.65625 2.734375 7.523438 2.867188 L 2.867188 7.523438 C 2.738281 7.648438 2.667969 7.820312 2.667969 8 C 2.667969 8.179688 2.738281 8.351562 2.867188 8.476562 L 7.523438 13.132812 C 7.648438 13.261719 7.820312 13.332031 8 13.332031 C 8.179688 13.332031 8.351562 13.261719 8.476562 13.132812 L 13.132812 8.476562 C 13.261719 8.351562 13.332031 8.179688 13.332031 8 C 13.332031 7.820312 13.261719 7.648438 13.132812 7.523438 L 8.476562 2.867188 C 8.351562 2.738281 8.179688 2.667969 8 2.667969 Z M 7.929688 5.332031 C 8.414062 5.332031 8.796875 5.449219 9.066406 5.683594 C 9.34375 5.917969 9.480469 6.230469 9.480469 6.621094 C 9.480469 6.949219 9.382812 7.222656 9.1875 7.441406 C 8.996094 7.660156 8.71875 7.800781 8.359375 7.863281 L 8.359375 7.882812 C 9.210938 7.996094 9.640625 8.40625 9.640625 9.121094 C 9.640625 9.601562 9.476562 9.980469 9.148438 10.253906 C 8.824219 10.53125 8.351562 10.667969 7.734375 10.667969 C 7.160156 10.667969 6.703125 10.574219 6.359375 10.386719 L 6.359375 9.78125 C 6.777344 10.003906 7.246094 10.121094 7.71875 10.125 C 8.558594 10.125 8.976562 9.78125 8.976562 9.097656 C 8.976562 8.488281 8.523438 8.183594 7.625 8.183594 L 7.152344 8.183594 L 7.152344 7.648438 L 7.625 7.648438 C 8.003906 7.648438 8.296875 7.558594 8.503906 7.378906 C 8.710938 7.199219 8.816406 6.960938 8.816406 6.664062 C 8.816406 6.421875 8.734375 6.230469 8.574219 6.09375 C 8.414062 5.949219 8.199219 5.878906 7.929688 5.878906 C 7.507812 5.878906 7.101562 6.023438 6.707031 6.308594 L 6.382812 5.867188 C 6.824219 5.511719 7.339844 5.332031 7.929688 5.332031 Z M 7.929688 5.332031 "/>
</g>
</svg>
