<svg xmlns="http://www.w3.org/2000/svg" xmlns:xlink="http://www.w3.org/1999/xlink" width="16" height="16" viewBox="0 0 16 16" version="1.1">
<g id="surface1">
<path style=" stroke:none;fill-rule:nonzero;fill:rgb(0%,80.000001%,100%);fill-opacity:1;" d="M 8.0625 2.667969 C 6.511719 2.652344 4.988281 3.308594 3.933594 4.546875 C 2.328125 6.4375 2.238281 9.191406 3.71875 11.179688 C 5.195312 13.167969 7.859375 13.878906 10.132812 12.890625 C 12.402344 11.898438 13.695312 9.464844 13.242188 7.027344 C 13.121094 6.101562 11.71875 6.363281 11.933594 7.269531 C 12.273438 9.105469 11.308594 10.921875 9.597656 11.667969 C 7.886719 12.414062 5.898438 11.882812 4.789062 10.386719 C 3.675781 8.890625 3.742188 6.832031 4.949219 5.410156 C 6.15625 3.988281 8.175781 3.589844 9.835938 4.445312 C 10.632812 4.875 11.257812 3.664062 10.445312 3.261719 C 9.894531 2.976562 9.3125 2.796875 8.726562 2.714844 C 8.503906 2.6875 8.28125 2.667969 8.0625 2.667969 Z M 7.164062 6 C 7.035156 5.996094 6.90625 6.050781 6.8125 6.152344 C 6.71875 6.25 6.667969 6.386719 6.667969 6.527344 L 6.667969 9.472656 C 6.667969 9.660156 6.757812 9.835938 6.910156 9.929688 C 7.058594 10.023438 7.246094 10.023438 7.398438 9.929688 L 9.757812 8.457031 C 9.90625 8.363281 10 8.191406 10 8 C 10 7.8125 9.90625 7.640625 9.757812 7.542969 L 7.398438 6.070312 C 7.328125 6.027344 7.246094 6.003906 7.164062 6 Z M 7.164062 6 "/>
</g>
</svg>
