<svg xmlns="http://www.w3.org/2000/svg" xmlns:xlink="http://www.w3.org/1999/xlink" width="16" height="16" viewBox="0 0 16 16" version="1.1">
<defs>
<filter id="alpha" filterUnits="objectBoundingBox" x="0%" y="0%" width="100%" height="100%">
  <feColorMatrix type="matrix" in="SourceGraphic" values="0 0 0 0 1 0 0 0 0 1 0 0 0 0 1 0 0 0 1 0"/>
</filter>
<mask id="mask0">
  <g filter="url(#alpha)">
<rect x="0" y="0" width="16" height="16" style="fill:rgb(0%,0%,0%);fill-opacity:0.3;stroke:none;"/>
  </g>
</mask>
<clipPath id="clip1">
  <rect x="0" y="0" width="16" height="16"/>
</clipPath>
<g id="surface5" clip-path="url(#clip1)">
<path style=" stroke:none;fill-rule:nonzero;fill:rgb(0%,100%,66.666669%);fill-opacity:1;" d="M 8 2.664062 C 5.0625 2.664062 2.667969 5.0625 2.667969 8 C 2.667969 10.9375 5.0625 13.332031 8 13.332031 C 10.9375 13.332031 13.335938 10.9375 13.335938 8 C 13.335938 5.0625 10.9375 2.664062 8 2.664062 Z M 8 4 C 10.21875 4 12 5.78125 12 8 C 12 10.214844 10.21875 12 8 12 C 5.785156 12 4 10.214844 4 8 C 4 5.78125 5.785156 4 8 4 Z M 8 4 "/>
</g>
</defs>
<g id="surface1">
<path style=" stroke:none;fill-rule:nonzero;fill:rgb(0%,100%,66.666669%);fill-opacity:1;" d="M 7.167969 6 C 7.035156 5.996094 6.90625 6.050781 6.8125 6.148438 C 6.71875 6.25 6.667969 6.386719 6.667969 6.527344 L 6.667969 9.472656 C 6.667969 9.660156 6.761719 9.835938 6.910156 9.929688 C 7.0625 10.023438 7.246094 10.023438 7.398438 9.929688 L 9.757812 8.457031 C 9.90625 8.363281 10 8.1875 10 8 C 10 7.8125 9.90625 7.636719 9.757812 7.542969 L 7.398438 6.070312 C 7.328125 6.027344 7.246094 6 7.167969 6 Z M 7.167969 6 "/>
<use xlink:href="#surface5" mask="url(#mask0)"/>
<path style=" stroke:none;fill-rule:nonzero;fill:rgb(0%,100%,66.666669%);fill-opacity:1;" d="M 8 2.664062 L 8 4 C 10.210938 4 12 5.789062 12 8 C 12 10.207031 10.210938 12 8 12 C 5.792969 12 4 10.207031 4 8 C 4 7.578125 4.066406 7.164062 4.199219 6.761719 L 2.929688 6.351562 C 2.214844 8.546875 2.996094 10.957031 4.867188 12.3125 C 6.734375 13.671875 9.265625 13.671875 11.136719 12.3125 C 13.003906 10.957031 13.789062 8.546875 13.074219 6.351562 C 12.359375 4.152344 10.3125 2.664062 8 2.664062 Z M 8 2.664062 "/>
</g>
</svg>
