<svg xmlns="http://www.w3.org/2000/svg" xmlns:xlink="http://www.w3.org/1999/xlink" width="16" height="16" viewBox="0 0 16 16" version="1.1">
<g id="surface1">
<path style=" stroke:none;fill-rule:nonzero;fill:rgb(100%,30.980393%,30.980393%);fill-opacity:1;" d="M 7.164062 6 C 7.035156 5.996094 6.90625 6.050781 6.8125 6.152344 C 6.71875 6.25 6.667969 6.386719 6.667969 6.527344 L 6.667969 9.472656 C 6.667969 9.660156 6.757812 9.835938 6.910156 9.929688 C 7.0625 10.023438 7.246094 10.023438 7.398438 9.929688 L 9.757812 8.457031 C 9.90625 8.363281 10 8.1875 10 8 C 10 7.8125 9.90625 7.636719 9.757812 7.542969 L 7.398438 6.070312 C 7.328125 6.027344 7.246094 6.003906 7.164062 6 Z M 7.164062 6 "/>
<path style=" stroke:none;fill-rule:nonzero;fill:rgb(100%,30.980393%,30.980393%);fill-opacity:1;" d="M 8 2.667969 C 5.0625 2.667969 2.667969 5.0625 2.667969 8 C 2.667969 10.9375 5.0625 13.332031 8 13.332031 C 10.9375 13.332031 13.332031 10.9375 13.332031 8 C 13.332031 5.0625 10.9375 2.667969 8 2.667969 Z M 8 4 C 10.21875 4 12 5.78125 12 8 C 12 10.21875 10.21875 12 8 12 C 5.78125 12 4 10.21875 4 8 C 4 5.78125 5.78125 4 8 4 Z M 8 4 "/>
</g>
</svg>
