<svg xmlns="http://www.w3.org/2000/svg" xmlns:xlink="http://www.w3.org/1999/xlink" width="16" height="16" viewBox="0 0 16 16" version="1.1">
<defs>
<filter id="alpha" filterUnits="objectBoundingBox" x="0%" y="0%" width="100%" height="100%">
  <feColorMatrix type="matrix" in="SourceGraphic" values="0 0 0 0 1 0 0 0 0 1 0 0 0 0 1 0 0 0 1 0"/>
</filter>
<mask id="mask0">
  <g filter="url(#alpha)">
<rect x="0" y="0" width="16" height="16" style="fill:rgb(0%,0%,0%);fill-opacity:0.3;stroke:none;"/>
  </g>
</mask>
<clipPath id="clip1">
  <rect x="0" y="0" width="16" height="16"/>
</clipPath>
<g id="surface5" clip-path="url(#clip1)">
<path style=" stroke:none;fill-rule:nonzero;fill:rgb(96.862745%,0%,100%);fill-opacity:1;" d="M 8 2.667969 C 5.054688 2.667969 2.667969 5.054688 2.667969 8 L 3.667969 9.332031 L 4.667969 8 C 4.667969 6.160156 6.160156 4.667969 8 4.667969 L 6.667969 3.667969 Z M 8 2.667969 "/>
</g>
</defs>
<g id="surface1">
<use xlink:href="#surface5" mask="url(#mask0)"/>
<path style=" stroke:none;fill-rule:nonzero;fill:rgb(96.862745%,0%,100%);fill-opacity:1;" d="M 8 2.667969 L 6.667969 3.667969 L 8 4.667969 C 9.839844 4.667969 11.332031 6.160156 11.332031 8 L 12.332031 6.667969 L 13.332031 8 C 13.332031 5.054688 10.945312 2.667969 8 2.667969 Z M 2.667969 8 C 2.667969 10.945312 5.054688 13.332031 8 13.332031 L 9.332031 12.332031 L 8 11.332031 C 6.160156 11.332031 4.667969 9.839844 4.667969 8 L 3.667969 9.332031 Z M 2.667969 8 "/>
<path style=" stroke:none;fill-rule:nonzero;fill:rgb(96.862745%,0%,100%);fill-opacity:1;" d="M 11.84375 8.003906 C 11.667969 8.015625 11.488281 8.042969 11.308594 8.089844 C 9.886719 8.472656 9.042969 9.933594 9.425781 11.355469 C 9.804688 12.777344 11.269531 13.621094 12.691406 13.242188 C 14.113281 12.859375 14.957031 11.398438 14.574219 9.976562 C 14.242188 8.730469 13.082031 7.929688 11.84375 8.003906 Z M 12.984375 9.328125 C 13.105469 9.324219 13.21875 9.378906 13.28125 9.480469 C 13.347656 9.582031 13.351562 9.707031 13.296875 9.816406 L 12.296875 11.816406 C 12.257812 11.898438 12.179688 11.964844 12.085938 11.988281 C 11.992188 12.011719 11.894531 11.996094 11.816406 11.945312 L 10.816406 11.277344 C 10.714844 11.210938 10.65625 11.097656 10.664062 10.976562 C 10.671875 10.855469 10.742188 10.75 10.851562 10.695312 C 10.957031 10.644531 11.085938 10.652344 11.183594 10.722656 L 11.871094 11.179688 L 12.703125 9.519531 C 12.753906 9.40625 12.863281 9.335938 12.984375 9.328125 Z M 12.984375 9.328125 "/>
</g>
</svg>
