<svg xmlns="http://www.w3.org/2000/svg" xmlns:xlink="http://www.w3.org/1999/xlink" width="16" height="16" viewBox="0 0 16 16" version="1.1">
<g id="surface1">
<path style=" stroke:none;fill-rule:nonzero;fill:rgb(100%,74.901962%,0%);fill-opacity:1;" d="M 8 3.332031 C 7.628906 3.332031 7.332031 3.628906 7.332031 4 L 7.332031 7.335938 C 7.332031 7.707031 7.628906 8.003906 8 8.003906 C 8.371094 8.003906 8.667969 7.707031 8.667969 7.335938 L 8.667969 4 C 8.667969 3.628906 8.371094 3.332031 8 3.332031 Z M 10.023438 4.660156 C 9.980469 4.65625 9.9375 4.660156 9.894531 4.667969 C 9.625 4.703125 9.402344 4.902344 9.335938 5.171875 C 9.273438 5.4375 9.378906 5.71875 9.605469 5.875 C 10.789062 6.761719 11.03125 8.417969 10.144531 9.605469 C 9.257812 10.789062 7.582031 11.011719 6.394531 10.125 C 5.210938 9.238281 4.988281 7.582031 5.875 6.394531 C 6.019531 6.203125 6.183594 6.042969 6.375 5.894531 C 6.566406 5.75 6.667969 5.515625 6.636719 5.277344 C 6.605469 5.039062 6.449219 4.835938 6.226562 4.742188 C 6.007812 4.652344 5.753906 4.6875 5.5625 4.832031 C 5.277344 5.054688 5.007812 5.316406 4.792969 5.605469 C 3.472656 7.367188 3.839844 9.890625 5.605469 11.207031 C 7.367188 12.527344 9.890625 12.160156 11.207031 10.394531 C 12.527344 8.632812 12.160156 6.109375 10.394531 4.792969 C 10.289062 4.710938 10.160156 4.664062 10.023438 4.660156 Z M 10.023438 4.660156 "/>
</g>
</svg>
