<svg xmlns="http://www.w3.org/2000/svg" xmlns:xlink="http://www.w3.org/1999/xlink" width="16" height="16" viewBox="0 0 16 16" version="1.1">
<g id="surface1">
<path style=" stroke:none;fill-rule:nonzero;fill:rgb(67.058825%,40.000001%,100%);fill-opacity:1;" d="M 6.582031 2.667969 C 4.425781 2.667969 2.664062 4.429688 2.664062 6.585938 C 2.664062 8.738281 4.425781 10.5 6.582031 10.5 C 7.4375 10.5 8.191406 10.164062 8.839844 9.695312 L 12.480469 13.335938 L 13.332031 12.484375 L 9.691406 8.84375 C 10.160156 8.195312 10.496094 7.441406 10.496094 6.585938 C 10.496094 4.429688 8.734375 2.667969 6.582031 2.667969 Z M 6.582031 3.875 C 8.085938 3.875 9.292969 5.078125 9.292969 6.585938 C 9.292969 8.089844 8.085938 9.296875 6.582031 9.296875 C 5.859375 9.296875 5.171875 9.011719 4.660156 8.503906 C 4.152344 7.996094 3.867188 7.304688 3.871094 6.585938 C 3.871094 5.078125 5.078125 3.875 6.582031 3.875 Z M 6.582031 3.875 "/>
</g>
</svg>
