<svg xmlns="http://www.w3.org/2000/svg" xmlns:xlink="http://www.w3.org/1999/xlink" width="16" height="16" viewBox="0 0 16 16" version="1.1">
<g id="surface1">
<path style=" stroke:none;fill-rule:nonzero;fill:rgb(100%,30.980393%,30.980393%);fill-opacity:1;" d="M 6 2.667969 C 5.628906 2.667969 5.332031 2.964844 5.332031 3.332031 L 5.332031 4 L 10.667969 4 L 10.667969 3.332031 C 10.667969 2.964844 10.371094 2.667969 10 2.667969 Z M 4.667969 4.667969 C 4.296875 4.667969 4 4.964844 4 5.332031 L 4 6 L 12 6 L 12 5.332031 C 12 4.964844 11.703125 4.667969 11.332031 4.667969 Z M 3.332031 6.667969 C 2.964844 6.667969 2.667969 6.964844 2.667969 7.332031 L 2.667969 12.667969 C 2.667969 13.035156 2.964844 13.332031 3.332031 13.332031 L 12.667969 13.332031 C 13.035156 13.332031 13.332031 13.035156 13.332031 12.667969 L 13.332031 7.332031 C 13.332031 6.964844 13.035156 6.667969 12.667969 6.667969 Z M 6.832031 9.332031 L 9.167969 9.332031 C 9.257812 9.332031 9.332031 9.40625 9.332031 9.5 L 9.332031 9.832031 C 9.332031 9.925781 9.257812 10 9.167969 10 L 6.832031 10 C 6.742188 10 6.667969 9.925781 6.667969 9.832031 L 6.667969 9.5 C 6.667969 9.40625 6.742188 9.332031 6.832031 9.332031 Z M 6.832031 9.332031 "/>
</g>
</svg>
