<svg xmlns="http://www.w3.org/2000/svg" xmlns:xlink="http://www.w3.org/1999/xlink" width="16" height="16" viewBox="0 0 16 16" version="1.1">
<defs>
<filter id="alpha" filterUnits="objectBoundingBox" x="0%" y="0%" width="100%" height="100%">
  <feColorMatrix type="matrix" in="SourceGraphic" values="0 0 0 0 1 0 0 0 0 1 0 0 0 0 1 0 0 0 1 0"/>
</filter>
<mask id="mask0">
  <g filter="url(#alpha)">
<rect x="0" y="0" width="16" height="16" style="fill:rgb(0%,0%,0%);fill-opacity:0.3;stroke:none;"/>
  </g>
</mask>
<clipPath id="clip1">
  <rect x="0" y="0" width="16" height="16"/>
</clipPath>
<g id="surface5" clip-path="url(#clip1)">
<path style=" stroke:none;fill-rule:nonzero;fill:rgb(100%,74.901962%,0%);fill-opacity:1;" d="M 3.332031 4 C 2.59375 4 2 4.59375 2 5.332031 L 2 10.667969 C 2 11.40625 2.59375 12 3.332031 12 L 12.667969 12 C 13.40625 12 14 11.40625 14 10.667969 L 14 5.332031 C 14 4.59375 13.40625 4 12.667969 4 Z M 7.332031 4.332031 L 8.667969 4.332031 L 8.667969 4.667969 L 7.332031 4.667969 Z M 4 5.332031 L 12 5.332031 L 12 10.667969 L 4 10.667969 Z M 4 5.332031 "/>
</g>
</defs>
<g id="surface1">
<use xlink:href="#surface5" mask="url(#mask0)"/>
</g>
</svg>
