<svg xmlns="http://www.w3.org/2000/svg" xmlns:xlink="http://www.w3.org/1999/xlink" width="16" height="16" viewBox="0 0 16 16" version="1.1">
<g id="surface1">
<path style=" stroke:none;fill-rule:nonzero;fill:rgb(0%,100%,66.666669%);fill-opacity:1;" d="M 4.296875 2.667969 C 4.042969 2.660156 3.796875 2.757812 3.617188 2.9375 C 3.4375 3.117188 3.332031 3.367188 3.332031 3.625 L 3.332031 12.375 C 3.332031 12.71875 3.511719 13.035156 3.804688 13.207031 C 4.09375 13.375 4.453125 13.375 4.746094 13.207031 L 12.195312 8.828125 C 12.488281 8.660156 12.667969 8.34375 12.667969 8 C 12.667969 7.65625 12.488281 7.339844 12.195312 7.171875 L 4.746094 2.796875 C 4.609375 2.714844 4.453125 2.671875 4.296875 2.667969 Z M 5.332031 5.460938 L 9.65625 8 L 5.332031 10.542969 Z M 12.691406 9.332031 L 10.667969 10.667969 L 12.691406 12 L 12.691406 11.402344 C 13.078125 11.546875 13.332031 11.917969 13.332031 12.332031 C 13.332031 12.886719 12.886719 13.332031 12.332031 13.332031 C 11.910156 13.332031 11.53125 13.066406 11.390625 12.667969 L 10.027344 12.667969 C 10.191406 13.8125 11.175781 14.664062 12.332031 14.667969 C 13.621094 14.667969 14.667969 13.621094 14.667969 12.332031 C 14.664062 11.183594 13.828125 10.207031 12.691406 10.03125 Z M 12.691406 9.332031 "/>
</g>
</svg>
