<svg xmlns="http://www.w3.org/2000/svg" xmlns:xlink="http://www.w3.org/1999/xlink" width="16" height="16" viewBox="0 0 16 16" version="1.1">
<g id="surface1">
<path style=" stroke:none;fill-rule:nonzero;fill:rgb(96.862745%,0%,100%);fill-opacity:1;" d="M 4.296875 2.667969 C 4.042969 2.660156 3.796875 2.757812 3.617188 2.9375 C 3.4375 3.117188 3.332031 3.367188 3.332031 3.625 L 3.332031 12.375 C 3.332031 12.71875 3.511719 13.035156 3.804688 13.207031 C 4.09375 13.375 4.453125 13.375 4.746094 13.207031 L 12.195312 8.828125 C 12.488281 8.660156 12.667969 8.34375 12.667969 8 C 12.667969 7.65625 12.488281 7.339844 12.195312 7.171875 L 4.746094 2.796875 C 4.609375 2.714844 4.453125 2.671875 4.296875 2.667969 Z M 5.332031 5.460938 L 9.65625 8 L 5.332031 10.542969 Z M 14.003906 9.992188 C 13.78125 9.992188 13.578125 10.101562 13.453125 10.285156 L 11.527344 13.035156 L 10.417969 12.144531 C 10.128906 11.914062 9.710938 11.960938 9.480469 12.25 C 9.25 12.539062 9.296875 12.957031 9.582031 13.1875 L 11.25 14.519531 C 11.394531 14.636719 11.578125 14.6875 11.761719 14.660156 C 11.941406 14.632812 12.105469 14.535156 12.210938 14.382812 L 14.546875 11.050781 C 14.691406 10.847656 14.714844 10.578125 14.597656 10.355469 C 14.484375 10.132812 14.253906 9.992188 14.003906 9.992188 Z M 14.003906 9.992188 "/>
</g>
</svg>
