<svg xmlns="http://www.w3.org/2000/svg" xmlns:xlink="http://www.w3.org/1999/xlink" width="16" height="16" viewBox="0 0 16 16" version="1.1">
<g id="surface1">
<path style=" stroke:none;fill-rule:nonzero;fill:rgb(100%,30.980393%,30.980393%);fill-opacity:1;" d="M 4.296875 2.667969 C 4.042969 2.660156 3.796875 2.757812 3.617188 2.9375 C 3.4375 3.121094 3.332031 3.367188 3.332031 3.625 L 3.332031 12.375 C 3.332031 12.71875 3.511719 13.035156 3.804688 13.207031 C 4.09375 13.375 4.453125 13.375 4.746094 13.207031 L 12.195312 8.828125 C 12.488281 8.660156 12.667969 8.34375 12.667969 8 C 12.667969 7.65625 12.488281 7.34375 12.195312 7.171875 L 4.746094 2.796875 C 4.609375 2.714844 4.453125 2.671875 4.296875 2.667969 Z M 5.332031 5.460938 L 9.65625 8 L 5.332031 10.542969 Z M 12.339844 10 C 11.929688 10 11.523438 10.105469 11.167969 10.3125 C 10.164062 10.894531 9.738281 12.121094 10.167969 13.199219 L 11.351562 12.515625 C 11.273438 12.101562 11.46875 11.679688 11.832031 11.46875 C 11.933594 11.410156 12.039062 11.371094 12.152344 11.351562 L 12.457031 11.878906 L 12.980469 11.574219 L 14.164062 10.890625 C 13.722656 10.332031 13.050781 10.003906 12.339844 10 Z M 14.5 11.46875 L 13.316406 12.152344 C 13.390625 12.566406 13.199219 12.988281 12.832031 13.199219 C 12.734375 13.253906 12.628906 13.296875 12.515625 13.316406 L 12.210938 12.789062 L 11.683594 13.09375 L 11.054688 13.457031 L 10.503906 13.773438 C 11.21875 14.6875 12.496094 14.933594 13.5 14.355469 C 14.503906 13.773438 14.929688 12.546875 14.5 11.46875 Z M 14.5 11.46875 "/>
</g>
</svg>
