<svg xmlns="http://www.w3.org/2000/svg" xmlns:xlink="http://www.w3.org/1999/xlink" width="16" height="16" viewBox="0 0 16 16" version="1.1">
<g id="surface1">
<path style=" stroke:none;fill-rule:nonzero;fill:rgb(0%,80.000001%,100%);fill-opacity:1;" d="M 4.296875 2.667969 C 4.042969 2.660156 3.796875 2.757812 3.617188 2.9375 C 3.4375 3.117188 3.332031 3.367188 3.332031 3.625 L 3.332031 12.375 C 3.332031 12.71875 3.511719 13.035156 3.804688 13.207031 C 4.09375 13.375 4.453125 13.375 4.746094 13.207031 L 12.195312 8.828125 C 12.488281 8.660156 12.667969 8.34375 12.667969 8 C 12.667969 7.65625 12.488281 7.339844 12.195312 7.171875 L 4.746094 2.796875 C 4.609375 2.714844 4.453125 2.671875 4.296875 2.667969 Z M 5.332031 5.460938 L 9.65625 8 L 5.332031 10.542969 Z M 11.332031 10 L 11.332031 11.332031 L 12.667969 11.332031 L 12.667969 10 Z M 11.332031 12 L 11.332031 14.667969 L 12.667969 14.667969 L 12.667969 12 Z M 11.332031 12 "/>
</g>
</svg>
