<svg xmlns="http://www.w3.org/2000/svg" xmlns:xlink="http://www.w3.org/1999/xlink" width="16" height="16" viewBox="0 0 16 16" version="1.1">
<g id="surface1">
<path style=" stroke:none;fill-rule:nonzero;fill:rgb(25.882354%,52.156866%,95.686275%);fill-opacity:1;" d="M 13.332031 12 C 13.332031 12.738281 12.738281 13.332031 12 13.332031 C 11.261719 13.332031 10.667969 12.738281 10.667969 12 C 10.667969 11.261719 11.261719 10.667969 12 10.667969 C 12.738281 10.667969 13.332031 11.261719 13.332031 12 Z M 13.332031 12 "/>
<path style=" stroke:none;fill-rule:nonzero;fill:rgb(67.058825%,40.000001%,100%);fill-opacity:1;" d="M 3.347656 2.667969 C 2.972656 2.667969 2.667969 2.972656 2.667969 3.347656 L 2.667969 11.984375 C 2.667969 12.363281 2.972656 12.667969 3.347656 12.667969 L 10.117188 12.667969 C 10.039062 12.453125 10 12.226562 10 12 C 10 10.894531 10.894531 10 12 10 C 12.226562 10 12.453125 10.039062 12.667969 10.117188 L 12.667969 3.347656 C 12.667969 2.972656 12.363281 2.667969 11.984375 2.667969 Z M 4.667969 4.667969 L 10.667969 4.667969 L 10.667969 6.667969 L 8.667969 6.667969 L 8.667969 10.667969 L 6.667969 10.667969 L 6.667969 6.667969 L 4.667969 6.667969 Z M 4.667969 4.667969 "/>
</g>
</svg>
