<svg xmlns="http://www.w3.org/2000/svg" xmlns:xlink="http://www.w3.org/1999/xlink" width="16" height="16" viewBox="0 0 16 16" version="1.1">
<g id="surface1">
<path style=" stroke:none;fill-rule:nonzero;fill:rgb(100%,30.980393%,30.980393%);fill-opacity:1;" d="M 14.390625 9.945312 L 15.332031 10.886719 L 12.5 13.722656 L 12.503906 13.726562 L 11.558594 14.667969 L 8.734375 11.839844 L 9.675781 10.898438 L 11.554688 12.777344 Z M 9.332031 6 L 9.332031 7.332031 L 6.667969 7.332031 L 6.667969 6 L 4.667969 8 L 6.667969 10 L 6.667969 8.667969 L 9.332031 8.667969 L 9.332031 10 L 11.332031 8 Z M 13.332031 8 C 13.332031 9.046875 13.023438 10.070312 12.441406 10.945312 L 11.550781 11.835938 L 9.671875 9.953125 L 7.78125 11.835938 L 9.148438 13.203125 C 8.773438 13.285156 8.386719 13.332031 8 13.332031 C 5.054688 13.332031 2.667969 10.945312 2.667969 8 C 2.667969 5.054688 5.054688 2.667969 8 2.667969 C 10.945312 2.667969 13.332031 5.054688 13.332031 8 Z M 13.332031 8 "/>
</g>
</svg>
