<svg xmlns="http://www.w3.org/2000/svg" xmlns:xlink="http://www.w3.org/1999/xlink" width="16" height="16" viewBox="0 0 16 16" version="1.1">
<g id="surface1">
<path style=" stroke:none;fill-rule:nonzero;fill:rgb(96.862745%,0%,100%);fill-opacity:1;" d="M 11.601562 10 L 10.667969 10.933594 L 12.066406 12.332031 L 10.667969 13.734375 L 11.601562 14.667969 L 13 13.265625 L 14.402344 14.667969 L 15.332031 13.734375 L 13.933594 12.332031 L 15.332031 10.933594 L 14.402344 10 L 13 11.402344 Z M 6.667969 6 L 6.667969 7.332031 L 9.332031 7.332031 L 9.332031 6 L 11.332031 8 L 9.332031 10 L 9.332031 8.667969 L 6.667969 8.667969 L 6.667969 10 L 4.667969 8 Z M 8 2.667969 C 5.054688 2.667969 2.667969 5.054688 2.667969 8 C 2.667969 10.945312 5.054688 13.332031 8 13.332031 C 9.128906 13.332031 10.226562 12.972656 11.136719 12.304688 L 9.722656 10.898438 L 11.605469 9.007812 L 12.835938 10.238281 C 13.160156 9.535156 13.332031 8.773438 13.332031 8 C 13.332031 5.054688 10.945312 2.667969 8 2.667969 Z M 8 2.667969 "/>
</g>
</svg>
