<svg xmlns="http://www.w3.org/2000/svg" xmlns:xlink="http://www.w3.org/1999/xlink" width="16" height="16" viewBox="0 0 16 16" version="1.1">
<g id="surface1">
<path style=" stroke:none;fill-rule:nonzero;fill:rgb(96.862745%,0%,100%);fill-opacity:1;" d="M 4.015625 2.667969 C 3.636719 2.667969 3.332031 2.972656 3.332031 3.347656 L 3.332031 11.984375 C 3.332031 12.363281 3.636719 12.667969 4.015625 12.667969 L 11.332031 12.667969 L 11.332031 6.667969 L 9.332031 6.667969 L 9.332031 10.667969 L 7.332031 10.667969 L 7.332031 6.667969 L 5.332031 6.667969 L 5.332031 4.667969 L 11.332031 4.667969 L 11.332031 6.667969 L 13.332031 6.667969 L 13.332031 3.347656 C 13.332031 2.972656 13.027344 2.667969 12.652344 2.667969 Z M 4.015625 2.667969 "/>
<path style=" stroke:none;fill-rule:nonzero;fill:rgb(95.686275%,26.274511%,21.176471%);fill-opacity:1;" d="M 12 7.332031 L 12 10 L 12.167969 11.332031 L 13.167969 11.332031 L 13.332031 10 L 13.332031 7.332031 Z M 12 12 L 12 13.332031 L 13.332031 13.332031 L 13.332031 12 Z M 12 12 "/>
</g>
</svg>
