<svg xmlns="http://www.w3.org/2000/svg" xmlns:xlink="http://www.w3.org/1999/xlink" width="16" height="16" viewBox="0 0 16 16" version="1.1">
<g id="surface1">
<path style=" stroke:none;fill-rule:nonzero;fill:rgb(100%,74.901962%,0%);fill-opacity:1;" d="M 13.332031 8 C 13.332031 8.324219 13.300781 8.648438 13.238281 8.964844 L 12.527344 8.253906 L 10.667969 10.136719 L 11.195312 10.667969 L 8.667969 10.667969 L 8.667969 13.285156 C 8.445312 13.316406 8.222656 13.332031 8 13.332031 C 5.054688 13.332031 2.667969 10.945312 2.667969 8 C 2.667969 5.054688 5.054688 2.667969 8 2.667969 C 10.945312 2.667969 13.332031 5.054688 13.332031 8 Z M 9.332031 6 L 9.332031 7.332031 L 6.667969 7.332031 L 6.664062 6 L 4.667969 8 L 6.667969 10 L 6.667969 8.667969 L 9.332031 8.667969 L 9.332031 10 L 11.332031 8 Z M 12.527344 9.195312 L 15.332031 12 L 12.527344 14.804688 L 11.585938 13.863281 L 12.78125 12.667969 L 9.332031 12.664062 L 9.332031 11.332031 L 12.78125 11.332031 L 11.585938 10.136719 Z M 12.527344 9.195312 "/>
</g>
</svg>
