<svg xmlns="http://www.w3.org/2000/svg" xmlns:xlink="http://www.w3.org/1999/xlink" width="16" height="16" viewBox="0 0 16 16" version="1.1">
<defs>
<filter id="alpha" filterUnits="objectBoundingBox" x="0%" y="0%" width="100%" height="100%">
  <feColorMatrix type="matrix" in="SourceGraphic" values="0 0 0 0 1 0 0 0 0 1 0 0 0 0 1 0 0 0 1 0"/>
</filter>
<mask id="mask0">
  <g filter="url(#alpha)">
<rect x="0" y="0" width="16" height="16" style="fill:rgb(0%,0%,0%);fill-opacity:0.3;stroke:none;"/>
  </g>
</mask>
<clipPath id="clip1">
  <rect x="0" y="0" width="16" height="16"/>
</clipPath>
<g id="surface5" clip-path="url(#clip1)">
<path style=" stroke:none;fill-rule:nonzero;fill:rgb(100%,74.901962%,0%);fill-opacity:1;" d="M 9.210938 6.207031 C 8.832031 6.363281 8.476562 6.53125 7.996094 6.53125 C 7.980469 6.53125 7.960938 6.53125 7.945312 6.527344 C 7.082031 6.460938 6.679688 6.515625 6.050781 7.128906 C 6 7.175781 5.945312 7.21875 5.878906 7.25 C 5.839844 7.269531 5.800781 7.28125 5.765625 7.300781 C 5.71875 7.328125 5.671875 7.347656 5.625 7.363281 L 6.664062 8.53125 L 9.9375 7.5 C 9.964844 7.402344 9.992188 7.289062 9.996094 7.300781 C 9.84375 6.683594 9.664062 6.429688 9.210938 6.207031 Z M 5.429688 7.476562 C 5.289062 7.769531 4.964844 7.929688 4.648438 7.835938 C 4.648438 8.011719 4.597656 8.203125 4.640625 8.359375 C 4.710938 8.617188 4.613281 8.894531 4.402344 9.058594 C 4.527344 9.503906 4.691406 9.929688 4.910156 10.339844 L 9.046875 11.605469 C 9.070312 11.578125 9.097656 11.550781 9.121094 11.519531 C 9.382812 11.195312 9.625 10.808594 9.824219 10.371094 C 9.820312 10.375 9.808594 10.378906 9.804688 10.382812 C 9.742188 10.410156 9.691406 10.433594 9.652344 10.449219 C 9.632812 10.460938 9.621094 10.464844 9.605469 10.472656 C 9.597656 10.472656 9.589844 10.476562 9.578125 10.484375 C 9.570312 10.484375 9.566406 10.488281 9.546875 10.492188 C 9.539062 10.496094 9.503906 10.507812 9.503906 10.507812 C 9.503906 10.507812 9.445312 10.519531 9.445312 10.519531 C 9.445312 10.519531 9.273438 10.523438 9.25 10.523438 C 8.734375 10.464844 8.484375 9.859375 8.804688 9.453125 C 8.804688 9.449219 8.8125 9.441406 8.8125 9.4375 C 8.976562 9.230469 9.316406 8.742188 9.585938 8.261719 C 9.660156 8.128906 9.707031 8.011719 9.765625 7.886719 L 6.664062 8.863281 Z M 5.429688 7.476562 "/>
</g>
</defs>
<g id="surface1">
<use xlink:href="#surface5" mask="url(#mask0)"/>
<path style=" stroke:none;fill-rule:nonzero;fill:rgb(100%,74.901962%,0%);fill-opacity:1;" d="M 6.929688 2.53125 C 6.128906 2.550781 5.691406 3.28125 5.351562 3.945312 C 5.230469 4.007812 5.105469 4.0625 4.980469 4.128906 C 4.320312 4.578125 3.773438 5.195312 3.355469 5.871094 C 2.988281 6.519531 2.761719 7.246094 2.679688 7.988281 C 2.628906 8.738281 2.714844 9.507812 3 10.210938 C 3.21875 10.832031 3.605469 11.507812 4.101562 11.933594 C 4.757812 12.371094 5.28125 12.6875 6 12.660156 C 4.503906 11.464844 3.71875 10.03125 3.46875 8.347656 C 3.460938 8.21875 3.445312 8.082031 3.492188 8.117188 C 3.660156 8.386719 3.699219 8.378906 3.996094 8.53125 C 3.742188 7.578125 4.082031 6.515625 4.496094 5.742188 C 4.550781 5.683594 4.605469 5.625 4.660156 5.566406 L 4.6875 5.570312 C 4.695312 5.722656 4.714844 5.871094 4.730469 6.015625 C 4.730469 6.085938 4.773438 6.203125 4.785156 6.277344 C 4.777344 6.304688 4.722656 6.464844 4.699219 6.667969 C 4.6875 6.746094 4.6875 6.824219 4.699219 6.902344 C 4.699219 6.917969 4.703125 6.929688 4.703125 6.945312 C 4.710938 6.972656 4.71875 7 4.730469 7.027344 C 4.753906 7.089844 4.785156 7.148438 4.832031 7.195312 C 4.851562 7.113281 4.890625 7.046875 4.941406 6.988281 C 4.953125 6.976562 4.972656 6.96875 4.988281 6.953125 C 5.035156 6.914062 5.085938 6.875 5.136719 6.847656 C 5.148438 6.84375 5.148438 6.84375 5.15625 6.839844 C 5.289062 6.773438 5.417969 6.730469 5.417969 6.730469 L 5.429688 6.71875 C 5.484375 6.699219 5.539062 6.675781 5.585938 6.648438 C 6.339844 5.917969 7.050781 5.789062 7.996094 5.863281 C 8.515625 5.863281 8.8125 5.726562 9.328125 5.496094 C 10.121094 5.828125 10.460938 6.34375 10.664062 7.195312 C 10.738281 7.839844 9.707031 9.375 9.328125 9.863281 C 9.335938 9.863281 10.476562 9.355469 10.929688 8.925781 C 10.605469 11.429688 8.804688 12.980469 7.996094 13.332031 C 8.621094 13.371094 9.476562 12.984375 10.066406 12.625 C 9.796875 12.910156 9.507812 13.222656 9.328125 13.332031 C 10.03125 13.132812 10.699219 13.0625 11.140625 12.738281 C 11.140625 12.738281 11.5 12.410156 11.878906 11.980469 C 11.929688 11.921875 12.015625 11.84375 12.066406 11.777344 C 12.097656 11.738281 12.128906 11.695312 12.160156 11.65625 C 12.164062 11.648438 12.171875 11.640625 12.175781 11.636719 C 12.96875 10.667969 13.351562 9.464844 13.324219 8.371094 C 13.328125 7.050781 12.792969 5.902344 11.890625 4.953125 C 11.238281 4.265625 10.496094 3.847656 9.832031 3.617188 C 9.140625 3.421875 8.328125 3.320312 7.636719 3.359375 C 7.570312 3.359375 7.378906 3.363281 7.117188 3.386719 C 7.085938 3.328125 7.125 3.117188 7.199219 3.0625 C 7.035156 3.078125 6.882812 3.289062 6.746094 3.4375 C 6.722656 3.441406 6.699219 3.445312 6.675781 3.453125 C 6.800781 3.234375 6.929688 2.992188 7.078125 2.796875 C 6.617188 2.882812 6.414062 3.246094 6.1875 3.582031 C 6.121094 3.605469 6.058594 3.628906 5.996094 3.652344 C 6.164062 3.167969 6.476562 2.90625 6.929688 2.53125 Z M 5.730469 5.332031 C 5.859375 5.328125 5.976562 5.351562 5.980469 5.351562 C 5.980469 5.351562 6.039062 5.578125 5.929688 5.769531 C 5.824219 5.964844 5.578125 6.042969 5.4375 5.96875 C 5.296875 5.894531 5.300781 5.652344 5.40625 5.457031 C 5.460938 5.359375 5.601562 5.332031 5.730469 5.332031 Z M 5.730469 5.332031 "/>
<path style=" stroke:none;fill-rule:nonzero;fill:rgb(25.882354%,52.156866%,95.686275%);fill-opacity:1;" d="M 14.667969 3.332031 C 14.667969 4.070312 14.070312 4.667969 13.332031 4.667969 C 12.597656 4.667969 12 4.070312 12 3.332031 C 12 2.597656 12.597656 2 13.332031 2 C 14.070312 2 14.667969 2.597656 14.667969 3.332031 Z M 14.667969 3.332031 "/>
</g>
</svg>
