<svg xmlns="http://www.w3.org/2000/svg" xmlns:xlink="http://www.w3.org/1999/xlink" width="16" height="16" viewBox="0 0 16 16" version="1.1">
<defs>
<filter id="alpha" filterUnits="objectBoundingBox" x="0%" y="0%" width="100%" height="100%">
  <feColorMatrix type="matrix" in="SourceGraphic" values="0 0 0 0 1 0 0 0 0 1 0 0 0 0 1 0 0 0 1 0"/>
</filter>
<mask id="mask0">
  <g filter="url(#alpha)">
<rect x="0" y="0" width="16" height="16" style="fill:rgb(0%,0%,0%);fill-opacity:0.3;stroke:none;"/>
  </g>
</mask>
<clipPath id="clip1">
  <rect x="0" y="0" width="16" height="16"/>
</clipPath>
<g id="surface5" clip-path="url(#clip1)">
<path style=" stroke:none;fill-rule:nonzero;fill:rgb(100%,30.980393%,30.980393%);fill-opacity:1;" d="M 7.390625 8.835938 C 7.320312 8.835938 7.261719 8.875 7.226562 8.9375 C 7.195312 8.996094 7.195312 9.070312 7.230469 9.128906 L 8.136719 10.699219 C 8.191406 10.792969 8.3125 10.824219 8.40625 10.769531 C 8.496094 10.71875 8.527344 10.597656 8.476562 10.503906 L 7.566406 8.933594 C 7.53125 8.871094 7.464844 8.832031 7.390625 8.835938 Z M 7.390625 8.835938 "/>
</g>
<mask id="mask1">
  <g filter="url(#alpha)">
<rect x="0" y="0" width="16" height="16" style="fill:rgb(0%,0%,0%);fill-opacity:0.5;stroke:none;"/>
  </g>
</mask>
<clipPath id="clip2">
  <rect x="0" y="0" width="16" height="16"/>
</clipPath>
<g id="surface8" clip-path="url(#clip2)">
<path style=" stroke:none;fill-rule:nonzero;fill:rgb(100%,30.980393%,30.980393%);fill-opacity:1;" d="M 8.304688 8.589844 C 8.25 8.59375 8.203125 8.613281 8.167969 8.652344 C 8.128906 8.6875 8.109375 8.738281 8.113281 8.789062 L 8.113281 10.601562 C 8.113281 10.671875 8.148438 10.738281 8.210938 10.773438 C 8.269531 10.804688 8.34375 10.804688 8.402344 10.773438 C 8.464844 10.738281 8.5 10.671875 8.5 10.601562 L 8.5 8.789062 C 8.503906 8.734375 8.480469 8.683594 8.445312 8.648438 C 8.40625 8.609375 8.355469 8.589844 8.304688 8.589844 Z M 8.304688 8.589844 "/>
</g>
<mask id="mask2">
  <g filter="url(#alpha)">
<rect x="0" y="0" width="16" height="16" style="fill:rgb(0%,0%,0%);fill-opacity:0.7;stroke:none;"/>
  </g>
</mask>
<clipPath id="clip3">
  <rect x="0" y="0" width="16" height="16"/>
</clipPath>
<g id="surface11" clip-path="url(#clip3)">
<path style=" stroke:none;fill-rule:nonzero;fill:rgb(100%,30.980393%,30.980393%);fill-opacity:1;" d="M 9.214844 8.835938 C 9.144531 8.835938 9.078125 8.871094 9.042969 8.933594 L 8.136719 10.503906 C 8.085938 10.597656 8.117188 10.71875 8.207031 10.769531 C 8.300781 10.824219 8.421875 10.792969 8.476562 10.699219 L 9.382812 9.128906 C 9.417969 9.070312 9.417969 8.996094 9.382812 8.933594 C 9.351562 8.871094 9.285156 8.835938 9.214844 8.835938 Z M 9.214844 8.835938 "/>
</g>
</defs>
<g id="surface1">
<path style=" stroke:none;fill-rule:evenodd;fill:rgb(100%,30.980393%,30.980393%);fill-opacity:1;" d="M 8.332031 2.667969 C 6.671875 2.667969 5.332031 4.027344 5.332031 5.6875 L 5.332031 7.332031 L 5.191406 7.332031 C 4.898438 7.332031 4.667969 7.578125 4.667969 7.878906 L 4.667969 12.789062 C 4.667969 13.089844 4.898438 13.332031 5.191406 13.332031 L 11.476562 13.332031 C 11.765625 13.332031 12 13.089844 12 12.789062 L 12 7.878906 C 12 7.578125 11.765625 7.332031 11.476562 7.332031 L 11.332031 7.332031 L 11.332031 5.6875 C 11.332031 4.027344 9.996094 2.667969 8.332031 2.667969 Z M 8.332031 4 C 9.558594 4 9.855469 4.765625 10 5.957031 L 10 7.332031 L 6.667969 7.332031 L 6.667969 5.957031 C 6.667969 4.753906 7.105469 4 8.332031 4 Z M 8.332031 8 C 9.621094 8 10.667969 9.042969 10.667969 10.332031 C 10.667969 11.621094 9.621094 12.667969 8.332031 12.667969 C 7.042969 12.667969 6 11.621094 6 10.332031 C 6 9.042969 7.042969 8 8.332031 8 Z M 8.589844 8.195312 C 8.558594 8.199219 8.535156 8.226562 8.535156 8.257812 L 8.535156 8.777344 C 8.53125 8.800781 8.542969 8.824219 8.5625 8.839844 C 8.585938 8.851562 8.613281 8.851562 8.632812 8.839844 C 8.652344 8.824219 8.664062 8.800781 8.664062 8.777344 L 8.664062 8.257812 C 8.664062 8.242188 8.65625 8.222656 8.640625 8.210938 C 8.628906 8.199219 8.609375 8.191406 8.589844 8.195312 Z M 9.867188 9.5 C 9.835938 9.503906 9.804688 9.511719 9.78125 9.527344 L 8.304688 10.378906 L 7.207031 9.742188 C 7.113281 9.6875 6.992188 9.71875 6.9375 9.8125 C 6.886719 9.90625 6.917969 10.027344 7.011719 10.078125 L 8.210938 10.769531 C 8.269531 10.804688 8.34375 10.804688 8.402344 10.769531 L 9.972656 9.863281 C 10.054688 9.820312 10.09375 9.726562 10.066406 9.636719 C 10.042969 9.550781 9.957031 9.492188 9.867188 9.5 Z M 6.246094 10.535156 C 6.210938 10.539062 6.183594 10.570312 6.1875 10.609375 C 6.191406 10.644531 6.222656 10.671875 6.257812 10.667969 L 6.777344 10.667969 C 6.8125 10.667969 6.84375 10.636719 6.84375 10.601562 C 6.84375 10.566406 6.8125 10.535156 6.777344 10.535156 L 6.257812 10.535156 C 6.257812 10.535156 6.253906 10.535156 6.253906 10.535156 C 6.25 10.535156 6.25 10.535156 6.246094 10.535156 Z M 9.875 10.535156 C 9.839844 10.539062 9.8125 10.570312 9.816406 10.609375 C 9.820312 10.644531 9.851562 10.671875 9.890625 10.667969 L 10.40625 10.667969 C 10.445312 10.667969 10.472656 10.636719 10.472656 10.601562 C 10.472656 10.566406 10.445312 10.535156 10.40625 10.535156 L 9.890625 10.535156 C 9.886719 10.535156 9.886719 10.535156 9.882812 10.535156 C 9.878906 10.535156 9.878906 10.535156 9.875 10.535156 Z M 8.589844 11.824219 C 8.558594 11.828125 8.53125 11.855469 8.535156 11.890625 L 8.535156 12.40625 C 8.53125 12.433594 8.542969 12.457031 8.5625 12.46875 C 8.585938 12.484375 8.613281 12.484375 8.632812 12.46875 C 8.652344 12.457031 8.664062 12.433594 8.664062 12.40625 L 8.664062 11.890625 C 8.664062 11.871094 8.65625 11.855469 8.644531 11.84375 C 8.632812 11.828125 8.613281 11.824219 8.597656 11.824219 C 8.59375 11.824219 8.59375 11.824219 8.589844 11.824219 Z M 8.589844 11.824219 "/>
<use xlink:href="#surface5" mask="url(#mask0)"/>
<use xlink:href="#surface8" mask="url(#mask1)"/>
<use xlink:href="#surface11" mask="url(#mask2)"/>
</g>
</svg>
