<svg xmlns="http://www.w3.org/2000/svg" xmlns:xlink="http://www.w3.org/1999/xlink" width="16" height="16" viewBox="0 0 16 16" version="1.1">
<g id="surface1">
<path style=" stroke:none;fill-rule:nonzero;fill:rgb(0%,80.000001%,100%);fill-opacity:1;" d="M 11.8125 2.667969 C 11.726562 2.667969 11.644531 2.691406 11.570312 2.734375 C 11.5 2.78125 6.671875 5.785156 6.507812 5.882812 C 6.316406 6 6.078125 6.003906 5.882812 5.882812 L 3.332031 4.28125 L 3.332031 5.640625 C 3.953125 6.03125 5.496094 7.003906 5.871094 7.234375 C 6.09375 7.367188 6.308594 7.367188 6.523438 7.230469 L 12.566406 3.46875 C 12.699219 3.390625 12.703125 3.140625 12.558594 3.054688 C 12.414062 2.964844 12.140625 2.796875 12.039062 2.730469 C 11.96875 2.6875 11.890625 2.667969 11.8125 2.667969 Z M 11.8125 5.332031 C 11.726562 5.332031 11.644531 5.355469 11.570312 5.402344 C 11.5 5.449219 6.671875 8.449219 6.507812 8.550781 C 6.316406 8.667969 6.078125 8.667969 5.882812 8.550781 L 3.332031 6.945312 L 3.332031 8.308594 C 3.953125 8.699219 5.496094 9.671875 5.871094 9.898438 C 6.09375 10.035156 6.308594 10.03125 6.523438 9.898438 L 12.566406 6.136719 C 12.699219 6.054688 12.703125 5.808594 12.558594 5.71875 C 12.414062 5.628906 12.140625 5.460938 12.039062 5.398438 C 11.96875 5.355469 11.890625 5.332031 11.8125 5.332031 Z M 11.8125 8 C 11.726562 8 11.644531 8.023438 11.570312 8.070312 C 11.5 8.113281 6.671875 11.117188 6.507812 11.214844 C 6.316406 11.335938 6.078125 11.335938 5.882812 11.214844 L 3.332031 9.613281 L 3.332031 10.976562 C 3.953125 11.367188 5.496094 12.335938 5.871094 12.566406 C 6.09375 12.703125 6.308594 12.699219 6.523438 12.566406 L 12.566406 8.804688 C 12.699219 8.722656 12.703125 8.476562 12.558594 8.386719 C 12.414062 8.296875 12.140625 8.128906 12.039062 8.0625 C 11.96875 8.023438 11.890625 8 11.8125 8 Z M 11.8125 8 "/>
</g>
</svg>
