<svg xmlns="http://www.w3.org/2000/svg" xmlns:xlink="http://www.w3.org/1999/xlink" width="16" height="16" viewBox="0 0 16 16" version="1.1">
<g id="surface1">
<path style=" stroke:none;fill-rule:nonzero;fill:rgb(100%,30.980393%,30.980393%);fill-opacity:1;" d="M 3.199219 2.667969 C 2.90625 2.667969 2.667969 2.90625 2.667969 3.199219 L 2.667969 12.800781 C 2.667969 13.09375 2.90625 13.332031 3.199219 13.332031 L 12.800781 13.332031 C 13.09375 13.332031 13.332031 13.09375 13.332031 12.800781 L 13.332031 3.199219 C 13.332031 2.90625 13.09375 2.667969 12.800781 2.667969 Z M 5.867188 5.332031 L 10.132812 5.332031 C 10.429688 5.332031 10.667969 5.570312 10.667969 5.867188 L 10.667969 10.132812 C 10.667969 10.429688 10.429688 10.667969 10.132812 10.667969 L 5.867188 10.667969 C 5.570312 10.667969 5.332031 10.429688 5.332031 10.132812 L 5.332031 5.867188 C 5.332031 5.570312 5.570312 5.332031 5.867188 5.332031 Z M 5.867188 5.332031 "/>
</g>
</svg>
