<svg xmlns="http://www.w3.org/2000/svg" xmlns:xlink="http://www.w3.org/1999/xlink" width="16" height="16" viewBox="0 0 16 16" version="1.1">
<g id="surface1">
<path style=" stroke:none;fill-rule:nonzero;fill:rgb(67.058825%,40.000001%,100%);fill-opacity:1;" d="M 3.464844 2.667969 C 3.023438 2.667969 2.667969 3.023438 2.667969 3.464844 L 2.667969 12.535156 C 2.667969 12.554688 2.675781 12.570312 2.675781 12.589844 C 2.769531 12.550781 2.878906 12.503906 2.917969 12.492188 C 3.394531 12.324219 3.804688 12.167969 4.542969 11.867188 C 6.839844 10.929688 7.726562 10.390625 8.289062 9.816406 C 8.601562 9.5 8.71875 9.1875 8.644531 8.894531 C 8.597656 8.710938 8.527344 8.601562 8.359375 8.4375 C 8.105469 8.195312 7.734375 7.992188 6.902344 7.652344 C 6.246094 7.382812 6.027344 7.246094 6.027344 7.105469 C 6.027344 7.023438 6.125 6.894531 6.253906 6.808594 C 6.519531 6.628906 7.015625 6.546875 7.808594 6.496094 C 9.195312 6.402344 9.640625 6.371094 9.8125 6.222656 C 9.863281 6.175781 9.867188 6.046875 9.816406 5.984375 C 9.777344 5.929688 9.773438 5.902344 9.789062 5.898438 C 9.808594 5.898438 9.851562 5.921875 9.910156 5.972656 C 10.011719 6.0625 10.035156 6.140625 9.988281 6.25 C 9.886719 6.492188 9.410156 6.601562 8.488281 6.667969 C 7.605469 6.730469 7.058594 6.820312 7.105469 7.003906 C 7.136719 7.128906 7.386719 7.210938 8.394531 7.433594 C 10.019531 7.789062 10.910156 8.019531 11.585938 8.355469 C 12.414062 8.769531 12.9375 9.398438 13.246094 10.34375 L 13.332031 10.558594 L 13.332031 3.464844 C 13.332031 3.023438 12.976562 2.667969 12.535156 2.667969 Z M 2.679688 12.621094 C 2.683594 12.671875 2.6875 12.726562 2.703125 12.773438 C 2.710938 12.792969 2.722656 12.808594 2.734375 12.828125 C 2.710938 12.765625 2.6875 12.695312 2.679688 12.621094 Z M 2.679688 12.621094 "/>
</g>
</svg>
