<svg xmlns="http://www.w3.org/2000/svg" xmlns:xlink="http://www.w3.org/1999/xlink" width="16" height="16" viewBox="0 0 16 16" version="1.1">
<defs>
<filter id="alpha" filterUnits="objectBoundingBox" x="0%" y="0%" width="100%" height="100%">
  <feColorMatrix type="matrix" in="SourceGraphic" values="0 0 0 0 1 0 0 0 0 1 0 0 0 0 1 0 0 0 1 0"/>
</filter>
<mask id="mask0">
  <g filter="url(#alpha)">
<rect x="0" y="0" width="16" height="16" style="fill:rgb(0%,0%,0%);fill-opacity:0.3;stroke:none;"/>
  </g>
</mask>
<clipPath id="clip1">
  <rect x="0" y="0" width="16" height="16"/>
</clipPath>
<g id="surface5" clip-path="url(#clip1)">
<path style=" stroke:none;fill-rule:nonzero;fill:rgb(0%,80.000001%,100%);fill-opacity:1;" d="M 3.199219 4 C 2.90625 4 2.667969 4.238281 2.667969 4.535156 L 2.667969 11.464844 C 2.667969 11.761719 2.90625 12 3.199219 12 L 5.332031 12 L 5.332031 12.132812 C 5.332031 12.429688 5.570312 12.667969 5.867188 12.667969 L 10.132812 12.667969 C 10.429688 12.667969 10.667969 12.429688 10.667969 12.132812 L 10.667969 12 L 12.800781 12 C 13.09375 12 13.332031 11.761719 13.332031 11.464844 L 13.332031 4.535156 C 13.332031 4.238281 13.09375 4 12.800781 4 Z M 4 5.332031 L 12 5.332031 L 12 10.667969 L 4 10.667969 Z M 4 5.332031 "/>
</g>
</defs>
<g id="surface1">
<use xlink:href="#surface5" mask="url(#mask0)"/>
</g>
</svg>
