<svg xmlns="http://www.w3.org/2000/svg" xmlns:xlink="http://www.w3.org/1999/xlink" width="16" height="16" viewBox="0 0 16 16" version="1.1">
<g id="surface1">
<path style=" stroke:none;fill-rule:nonzero;fill:rgb(100%,32.156864%,32.156864%);fill-opacity:1;" d="M 6.6875 4 C 6.425781 4.007812 6.160156 4.058594 5.894531 4.148438 C 4.765625 4.53125 3.914062 5.640625 3.664062 7.023438 C 2.921875 7.199219 2.296875 7.855469 2.078125 8.792969 C 1.765625 10.125 2.414062 11.5 3.515625 11.875 C 3.535156 11.878906 3.539062 11.890625 3.558594 11.894531 C 3.710938 11.960938 3.886719 12 4.058594 12 L 12.046875 12 C 12.332031 12 12.59375 11.902344 12.816406 11.730469 C 13.710938 11.214844 14.199219 9.984375 13.921875 8.792969 C 13.71875 7.910156 13.144531 7.265625 12.460938 7.042969 C 12.457031 7.011719 12.46875 6.988281 12.460938 6.960938 C 12.152344 5.625 11 4.855469 9.898438 5.230469 C 9.683594 5.300781 9.492188 5.398438 9.3125 5.542969 C 8.707031 4.554688 7.71875 3.972656 6.683594 4 Z M 6 6.667969 L 6.519531 6.667969 C 6.648438 6.671875 6.765625 6.742188 6.851562 6.832031 L 8 7.960938 L 9.167969 6.832031 C 9.300781 6.71875 9.382812 6.671875 9.5 6.667969 L 10.003906 6.667969 L 10.003906 7.167969 C 10.003906 7.308594 9.984375 7.441406 9.875 7.542969 L 8.730469 8.6875 L 9.855469 9.8125 C 9.949219 9.910156 10.003906 10.03125 10.003906 10.167969 L 10.003906 10.667969 L 9.5 10.667969 C 9.371094 10.667969 9.242188 10.617188 9.148438 10.523438 L 8 9.394531 L 6.855469 10.519531 C 6.761719 10.617188 6.632812 10.667969 6.5 10.667969 L 6 10.667969 L 6 10.167969 C 6 10.035156 6.050781 9.90625 6.144531 9.8125 L 7.292969 8.6875 L 6.144531 7.542969 C 6.042969 7.449219 5.988281 7.308594 6 7.167969 Z M 6 6.667969 "/>
</g>
</svg>
