<svg xmlns="http://www.w3.org/2000/svg" xmlns:xlink="http://www.w3.org/1999/xlink" width="16" height="16" viewBox="0 0 16 16" version="1.1">
<defs>
<filter id="alpha" filterUnits="objectBoundingBox" x="0%" y="0%" width="100%" height="100%">
  <feColorMatrix type="matrix" in="SourceGraphic" values="0 0 0 0 1 0 0 0 0 1 0 0 0 0 1 0 0 0 1 0"/>
</filter>
<mask id="mask0">
  <g filter="url(#alpha)">
<rect x="0" y="0" width="16" height="16" style="fill:rgb(0%,0%,0%);fill-opacity:0.3;stroke:none;"/>
  </g>
</mask>
<clipPath id="clip1">
  <rect x="0" y="0" width="16" height="16"/>
</clipPath>
<g id="surface5" clip-path="url(#clip1)">
<path style=" stroke:none;fill-rule:nonzero;fill:rgb(0%,80.000001%,100%);fill-opacity:1;" d="M 6.695312 4 C 6.433594 4.007812 6.167969 4.054688 5.90625 4.144531 C 4.777344 4.527344 3.921875 5.628906 3.671875 7.011719 C 2.929688 7.1875 2.296875 7.847656 2.078125 8.789062 C 1.765625 10.121094 2.410156 11.507812 3.515625 11.882812 C 3.53125 11.886719 3.550781 11.890625 3.570312 11.894531 C 3.71875 11.960938 3.882812 12 4.054688 12 L 12.046875 12 C 12.332031 12 12.597656 11.894531 12.820312 11.722656 C 13.710938 11.207031 14.199219 9.980469 13.921875 8.789062 C 13.71875 7.90625 13.148438 7.269531 12.46875 7.046875 C 12.460938 7.015625 12.457031 6.988281 12.449219 6.957031 C 12.140625 5.625 10.992188 4.84375 9.890625 5.21875 C 9.679688 5.292969 9.484375 5.40625 9.308594 5.550781 C 8.699219 4.5625 7.726562 3.972656 6.695312 4 Z M 6.695312 4 "/>
</g>
</defs>
<g id="surface1">
<use xlink:href="#surface5" mask="url(#mask0)"/>
</g>
</svg>
