<svg xmlns="http://www.w3.org/2000/svg" xmlns:xlink="http://www.w3.org/1999/xlink" width="16" height="16" viewBox="0 0 16 16" version="1.1">
<g id="surface1">
<path style=" stroke:none;fill-rule:nonzero;fill:rgb(25.882354%,52.156866%,95.686275%);fill-opacity:1;" d="M 13.332031 7.332031 L 10.667969 7.332031 L 10.667969 8.667969 L 12 8.667969 L 9.332031 12 L 6.667969 8.667969 L 8 8.667969 L 8 4.667969 L 10.667969 4.667969 L 10.667969 6 L 13.332031 6 L 13.332031 4.667969 C 13.332031 4.667969 13.332031 2.667969 11.332031 2.667969 L 7.332031 2.667969 C 7.332031 2.667969 5.332031 2.667969 5.332031 4.667969 L 5.332031 9.332031 L 4 9.332031 L 4 5.332031 L 2.667969 5.332031 L 2.667969 9.332031 C 2.667969 10.667969 4 10.667969 4 10.667969 L 5.332031 10.667969 L 5.332031 11.332031 C 5.332031 13.332031 7.332031 13.332031 7.332031 13.332031 L 11.332031 13.332031 C 13.332031 13.332031 13.332031 11.332031 13.332031 11.332031 "/>
</g>
</svg>
