<svg xmlns="http://www.w3.org/2000/svg" xmlns:xlink="http://www.w3.org/1999/xlink" width="16" height="16" viewBox="0 0 16 16" version="1.1">
<g id="surface1">
<path style=" stroke:none;fill-rule:nonzero;fill:rgb(67.058825%,40.000001%,100%);fill-opacity:1;" d="M 12.667969 2.667969 L 10 3.804688 L 10 4.523438 C 10 4.527344 10 4.53125 10 4.535156 L 10 9.199219 C 10 9.800781 9.832031 10.335938 9.445312 10.722656 C 9.074219 11.097656 8.566406 11.332031 8 11.332031 C 6.851562 11.332031 6 10.382812 6 9.199219 L 6 5.78125 L 3.332031 6.96875 L 3.332031 8.59375 C 3.332031 9.292969 3.425781 9.929688 3.605469 10.507812 C 3.785156 11.085938 4.066406 11.585938 4.445312 12.003906 C 4.765625 12.355469 5.160156 12.644531 5.628906 12.867188 L 5.71875 12.898438 C 5.769531 12.925781 5.824219 12.957031 5.882812 12.980469 C 6.464844 13.214844 7.160156 13.332031 7.957031 13.332031 C 8.769531 13.332031 9.472656 13.21875 10.066406 12.988281 C 10.660156 12.757812 11.144531 12.4375 11.53125 12.019531 C 11.914062 11.601562 12.199219 11.101562 12.386719 10.515625 C 12.574219 9.933594 12.664062 9.292969 12.664062 8.59375 L 12.664062 8.472656 C 12.664062 8.46875 12.667969 8.46875 12.667969 8.464844 Z M 12.667969 2.667969 "/>
</g>
</svg>
