<svg xmlns="http://www.w3.org/2000/svg" xmlns:xlink="http://www.w3.org/1999/xlink" width="16" height="16" viewBox="0 0 16 16" version="1.1">
<g id="surface1">
<path style=" stroke:none;fill-rule:nonzero;fill:rgb(0%,80.000001%,100%);fill-opacity:1;" d="M 8 2.667969 C 5.054688 2.667969 2.667969 5.054688 2.667969 8 C 2.667969 10.945312 5.054688 13.332031 8 13.332031 C 10.945312 13.332031 13.332031 10.945312 13.332031 8 C 13.332031 5.054688 10.945312 2.667969 8 2.667969 Z M 8 4 C 8.996094 4 9.992188 4.375 10.765625 5.113281 C 10.519531 5.210938 10.289062 5.367188 10.113281 5.613281 L 9.808594 6.050781 C 8.761719 5.082031 7.132812 5.097656 6.113281 6.113281 C 5.59375 6.636719 5.335938 7.316406 5.335938 8 L 5.535156 8 C 5.699219 8 5.855469 8.074219 5.9375 8.191406 C 6.019531 8.308594 6.019531 8.457031 5.9375 8.574219 L 5.070312 9.808594 C 4.984375 9.925781 4.832031 10 4.664062 10 C 4.5 10 4.347656 9.925781 4.261719 9.808594 L 3.394531 8.574219 C 3.324219 8.472656 3.3125 8.351562 3.367188 8.242188 C 3.417969 8.132812 3.527344 8.050781 3.660156 8.015625 C 3.707031 8.003906 3.75 8 3.796875 8 L 4 8 C 4 6.976562 4.390625 5.953125 5.171875 5.171875 C 5.953125 4.390625 6.976562 4 8 4 Z M 11.308594 6 C 11.484375 5.992188 11.648438 6.066406 11.738281 6.191406 L 12.605469 7.425781 C 12.675781 7.527344 12.6875 7.648438 12.632812 7.757812 C 12.582031 7.867188 12.472656 7.949219 12.339844 7.984375 C 12.292969 7.996094 12.25 8 12.203125 8 L 12 8 C 12 9.023438 11.609375 10.046875 10.828125 10.828125 C 10.046875 11.609375 9.023438 12 8 12 C 7.003906 12 6.007812 11.628906 5.234375 10.886719 C 5.476562 10.792969 5.707031 10.636719 5.886719 10.386719 L 6.191406 9.949219 C 7.238281 10.917969 8.867188 10.902344 9.886719 9.886719 C 10.40625 9.363281 10.664062 8.683594 10.664062 8 L 10.464844 8 C 10.300781 8 10.144531 7.925781 10.0625 7.808594 C 9.980469 7.691406 9.980469 7.542969 10.0625 7.425781 L 10.929688 6.191406 C 11.011719 6.078125 11.152344 6.007812 11.308594 6 Z M 11.308594 6 "/>
<path style=" stroke:none;fill-rule:nonzero;fill:rgb(25.882354%,52.156866%,95.686275%);fill-opacity:1;" d="M 15.332031 12.667969 C 15.332031 13.402344 14.738281 14 14 14 C 13.261719 14 12.667969 13.402344 12.667969 12.667969 C 12.667969 11.929688 13.261719 11.332031 14 11.332031 C 14.738281 11.332031 15.332031 11.929688 15.332031 12.667969 Z M 15.332031 12.667969 "/>
</g>
</svg>
