<svg xmlns="http://www.w3.org/2000/svg" xmlns:xlink="http://www.w3.org/1999/xlink" width="16" height="16" viewBox="0 0 16 16" version="1.1">
<g id="surface1">
<path style=" stroke:none;fill-rule:nonzero;fill:rgb(96.862745%,0%,100%);fill-opacity:1;" d="M 4.644531 4 C 4.644531 4 3.332031 4 3.332031 5.332031 L 3.332031 9.332031 C 3.332031 8.230469 4.230469 7.332031 5.332031 7.332031 C 6.4375 7.332031 7.332031 8.230469 7.332031 9.332031 C 7.332031 9.824219 7.152344 10.300781 6.820312 10.667969 L 8 10.667969 L 9.332031 12.667969 L 10.667969 10.667969 L 11.332031 10.667969 C 11.332031 10.667969 12.667969 10.667969 12.667969 9.332031 L 12.667969 5.332031 C 12.667969 4 11.332031 4 11.332031 4 Z M 4.644531 4 "/>
<path style=" stroke:none;fill-rule:nonzero;fill:rgb(25.882354%,52.156866%,95.686275%);fill-opacity:1;" d="M 6.667969 9.332031 C 6.667969 10.070312 6.070312 10.667969 5.332031 10.667969 C 4.597656 10.667969 4 10.070312 4 9.332031 C 4 8.597656 4.597656 8 5.332031 8 C 6.070312 8 6.667969 8.597656 6.667969 9.332031 Z M 6.667969 9.332031 "/>
</g>
</svg>
