<svg xmlns="http://www.w3.org/2000/svg" xmlns:xlink="http://www.w3.org/1999/xlink" width="16" height="16" viewBox="0 0 16 16" version="1.1">
<g id="surface1">
<path style=" stroke:none;fill-rule:nonzero;fill:rgb(67.058825%,40.000001%,100%);fill-opacity:1;" d="M 8 2.667969 C 5.054688 2.667969 2.667969 5.054688 2.667969 8 C 2.667969 10.945312 5.054688 13.332031 8 13.332031 C 10.945312 13.332031 13.332031 10.945312 13.332031 8 C 13.332031 5.054688 10.945312 2.667969 8 2.667969 Z M 5.652344 4.679688 C 5.871094 4.667969 6.078125 4.734375 6.273438 4.84375 C 6.652344 5.054688 7.027344 5.28125 7.417969 5.464844 C 7.734375 5.617188 7.722656 5.757812 7.46875 5.953125 C 7.074219 6.261719 6.652344 6.320312 6.207031 6.085938 C 5.777344 5.867188 5.367188 5.613281 4.941406 5.398438 C 4.6875 5.269531 4.71875 5.152344 4.898438 4.996094 C 5.113281 4.800781 5.359375 4.683594 5.652344 4.679688 Z M 10.421875 4.890625 C 10.652344 4.910156 10.867188 5 11.054688 5.15625 C 11.242188 5.320312 11.308594 5.441406 11.03125 5.59375 C 10.289062 6.011719 9.558594 6.453125 8.820312 6.875 C 8.460938 7.085938 8.082031 7.097656 7.703125 6.898438 C 7.566406 6.792969 7.347656 6.710938 7.355469 6.507812 C 7.359375 6.335938 7.574219 6.3125 7.703125 6.238281 C 8.367188 5.84375 9.035156 5.445312 9.710938 5.066406 C 9.953125 4.929688 10.191406 4.875 10.421875 4.890625 Z M 12.128906 6.449219 C 12.210938 6.457031 12.253906 6.542969 12.277344 6.691406 C 12.328125 6.976562 12.304688 7.246094 12.167969 7.503906 C 12.066406 7.695312 11.917969 7.835938 11.730469 7.949219 C 11.367188 8.164062 11.003906 8.367188 10.65625 8.609375 C 10.375 8.804688 10.265625 8.722656 10.230469 8.40625 C 10.175781 7.910156 10.332031 7.515625 10.738281 7.257812 C 11.132812 7.003906 11.539062 6.78125 11.925781 6.523438 C 12.015625 6.46875 12.078125 6.441406 12.128906 6.449219 Z M 4.171875 6.542969 C 4.226562 6.53125 4.304688 6.550781 4.410156 6.613281 C 5.148438 7.039062 5.898438 7.433594 6.640625 7.855469 C 7.003906 8.0625 7.207031 8.378906 7.226562 8.8125 C 7.207031 8.984375 7.25 9.210938 7.074219 9.3125 C 6.925781 9.394531 6.792969 9.222656 6.664062 9.148438 C 5.984375 8.78125 5.300781 8.410156 4.628906 8.027344 C 4.144531 7.746094 3.933594 7.304688 4.019531 6.820312 C 4.042969 6.664062 4.082031 6.558594 4.171875 6.542969 Z M 9.730469 8 C 9.78125 8 9.832031 8.007812 9.882812 8.035156 C 10.050781 8.117188 9.949219 8.328125 9.957031 8.476562 C 9.980469 9.257812 10 10.039062 10 10.820312 C 9.992188 11.378906 9.667969 11.773438 9.136719 11.949219 C 8.867188 12.035156 8.703125 12.039062 8.703125 11.714844 C 8.710938 10.855469 8.671875 9.996094 8.667969 9.140625 C 8.660156 8.71875 8.871094 8.386719 9.292969 8.152344 C 9.429688 8.097656 9.578125 8.003906 9.730469 8 Z M 6.242188 9.335938 C 6.304688 9.339844 6.375 9.359375 6.457031 9.386719 C 6.980469 9.566406 7.277344 9.886719 7.296875 10.367188 C 7.3125 10.824219 7.300781 11.285156 7.332031 11.738281 C 7.351562 12.007812 7.21875 12.039062 6.960938 11.964844 C 6.648438 11.875 6.398438 11.730469 6.226562 11.488281 C 6.085938 11.308594 6.03125 11.113281 6.03125 10.898438 C 6.03125 10.488281 6.039062 10.074219 6.003906 9.664062 C 5.980469 9.410156 6.058594 9.320312 6.242188 9.335938 Z M 6.242188 9.335938 "/>
</g>
</svg>
