<svg xmlns="http://www.w3.org/2000/svg" xmlns:xlink="http://www.w3.org/1999/xlink" width="16" height="16" viewBox="0 0 16 16" version="1.1">
<defs>
<filter id="alpha" filterUnits="objectBoundingBox" x="0%" y="0%" width="100%" height="100%">
  <feColorMatrix type="matrix" in="SourceGraphic" values="0 0 0 0 1 0 0 0 0 1 0 0 0 0 1 0 0 0 1 0"/>
</filter>
<mask id="mask0">
  <g filter="url(#alpha)">
<rect x="0" y="0" width="16" height="16" style="fill:rgb(0%,0%,0%);fill-opacity:0.72;stroke:none;"/>
  </g>
</mask>
<clipPath id="clip1">
  <rect x="0" y="0" width="16" height="16"/>
</clipPath>
<g id="surface5" clip-path="url(#clip1)">
<path style=" stroke:none;fill-rule:nonzero;fill:rgb(67.058825%,40.000001%,100%);fill-opacity:1;" d="M 3.332031 4 C 2.667969 4 2.667969 4.667969 2.667969 4.667969 L 2.667969 12.4375 C 2.808594 12.59375 3.03125 12.675781 3.25 12.644531 C 3.28125 12.648438 3.300781 12.667969 3.332031 12.667969 L 12.667969 12.667969 C 13.035156 12.667969 13.332031 12.371094 13.332031 12 L 13.332031 4.667969 C 13.332031 4.296875 13.035156 4 12.667969 4 Z M 3.332031 4.667969 L 12.667969 4.667969 L 12.667969 11.332031 L 3.332031 11.332031 Z M 8.667969 5.332031 C 8.296875 5.332031 8 5.632812 8 6 C 8 6.367188 8.296875 6.667969 8.667969 6.667969 C 9.035156 6.667969 9.332031 6.367188 9.332031 6 C 9.332031 5.632812 9.035156 5.332031 8.667969 5.332031 Z M 6 7.332031 C 5 7.332031 4 8.667969 4 10.355469 L 4 10.667969 L 12 10.667969 C 12 10.667969 11.332031 8 10.332031 8 C 9.332031 8 9.332031 9.332031 8.667969 9.332031 C 8 9.332031 7 7.332031 6 7.332031 Z M 6 7.332031 "/>
</g>
</defs>
<g id="surface1">
<use xlink:href="#surface5" mask="url(#mask0)"/>
</g>
</svg>
