<svg xmlns="http://www.w3.org/2000/svg" xmlns:xlink="http://www.w3.org/1999/xlink" width="16" height="16" viewBox="0 0 16 16" version="1.1">
<defs>
<filter id="alpha" filterUnits="objectBoundingBox" x="0%" y="0%" width="100%" height="100%">
  <feColorMatrix type="matrix" in="SourceGraphic" values="0 0 0 0 1 0 0 0 0 1 0 0 0 0 1 0 0 0 1 0"/>
</filter>
<mask id="mask0">
  <g filter="url(#alpha)">
<rect x="0" y="0" width="16" height="16" style="fill:rgb(0%,0%,0%);fill-opacity:0.3;stroke:none;"/>
  </g>
</mask>
<clipPath id="clip1">
  <rect x="0" y="0" width="16" height="16"/>
</clipPath>
<g id="surface5" clip-path="url(#clip1)">
<path style=" stroke:none;fill-rule:nonzero;fill:rgb(100%,74.901962%,0%);fill-opacity:1;" d="M 0.667969 6 L 2.816406 11.332031 L 4.351562 11.332031 L 6.464844 6 L 5.015625 6 L 3.566406 9.515625 L 2.132812 6 Z M 0.667969 6 "/>
</g>
</defs>
<g id="surface1">
<use xlink:href="#surface5" mask="url(#mask0)"/>
<path style=" stroke:none;fill-rule:nonzero;fill:rgb(100%,74.901962%,0%);fill-opacity:1;" d="M 7.214844 6 C 6.496094 7.785156 5.761719 9.5625 5 11.332031 L 6.535156 11.332031 L 7.964844 7.832031 L 9.382812 11.332031 L 10.917969 11.332031 L 12.332031 7.734375 L 13.800781 11.332031 L 15.332031 11.332031 C 14.574219 9.5625 13.820312 7.785156 13.101562 6 L 11.566406 6 L 10.148438 9.515625 L 8.699219 6 Z M 7.214844 6 "/>
</g>
</svg>
