<svg xmlns="http://www.w3.org/2000/svg" xmlns:xlink="http://www.w3.org/1999/xlink" width="16" height="16" viewBox="0 0 16 16" version="1.1">
<g id="surface1">
<path style=" stroke:none;fill-rule:nonzero;fill:rgb(96.862745%,0%,100%);fill-opacity:1;" d="M 12 2.667969 C 11.265625 2.667969 10.667969 3.265625 10.667969 4 C 10.667969 4.179688 10.703125 4.355469 10.773438 4.519531 C 10.785156 4.558594 10.792969 4.601562 10.804688 4.632812 C 11.082031 5.710938 10.800781 6.550781 10.164062 7.316406 C 9.277344 8.210938 8 8.226562 7.117188 7.351562 L 4.421875 3.089844 C 4.148438 2.796875 3.765625 2.6875 3.417969 2.6875 C 2.671875 2.675781 2.152344 3.273438 2.03125 3.914062 C 1.9375 4.425781 1.898438 4.335938 4.3125 8.726562 C 5.839844 11.496094 6.5625 12.777344 6.683594 12.902344 C 7.105469 13.347656 7.703125 13.457031 8.265625 13.191406 C 8.414062 13.121094 8.578125 12.996094 8.6875 12.875 C 8.894531 12.640625 13.152344 4.816406 13.222656 4.546875 C 13.304688 4.367188 13.324219 4.179688 13.332031 4 C 13.332031 3.265625 12.738281 2.667969 12 2.667969 Z M 12 2.667969 "/>
</g>
</svg>
