<svg xmlns="http://www.w3.org/2000/svg" xmlns:xlink="http://www.w3.org/1999/xlink" width="16" height="16" viewBox="0 0 16 16" version="1.1">
<g id="surface1">
<path style=" stroke:none;fill-rule:evenodd;fill:rgb(100%,30.980393%,30.980393%);fill-opacity:1;" d="M 7.910156 11.964844 L 8.785156 11.964844 C 8.785156 11.964844 9.050781 11.933594 9.1875 11.78125 C 9.308594 11.644531 9.304688 11.382812 9.304688 11.382812 C 9.304688 11.382812 9.289062 10.164062 9.835938 9.984375 C 10.375 9.808594 10.996094 11.164062 11.730469 11.683594 C 12.285156 12.078125 12.707031 11.992188 12.707031 11.992188 L 14.664062 11.964844 C 14.664062 11.964844 15.6875 11.898438 15.203125 11.0625 C 15.164062 10.996094 14.917969 10.445312 13.746094 9.316406 C 12.519531 8.136719 12.683594 8.328125 14.160156 6.285156 C 15.0625 5.042969 15.421875 4.550781 15.308594 4.226562 C 15.203125 3.914062 14.539062 3.996094 14.539062 3.996094 L 12.335938 4.011719 C 12.335938 4.011719 12.171875 3.988281 12.050781 4.0625 C 11.929688 4.136719 11.855469 4.308594 11.855469 4.308594 C 11.855469 4.308594 11.507812 5.003906 11.042969 5.824219 C 10.058594 7.550781 9.734375 7.640625 9.570312 7.535156 C 9.199219 7.285156 9.292969 6.53125 9.292969 5.992188 C 9.292969 4.320312 9.539062 3.621094 8.816406 3.441406 C 8.574219 3.382812 8.398438 3.339844 7.785156 3.335938 C 7 3.328125 6.464844 3.335938 6.089844 3.527344 C 5.835938 3.65625 5.644531 3.941406 5.761719 3.957031 C 5.90625 3.976562 6.238281 4.046875 6.414062 4.296875 C 6.640625 4.613281 6.632812 5.328125 6.632812 5.328125 C 6.632812 5.328125 6.761719 7.300781 6.328125 7.542969 C 6.03125 7.710938 5.421875 7.371094 4.546875 5.800781 C 4.097656 5 3.761719 4.378906 3.761719 4.378906 C 3.761719 4.378906 3.695312 4.214844 3.578125 4.125 C 3.4375 4.015625 3.242188 3.984375 3.242188 3.984375 L 1.144531 3.996094 C 1.144531 3.996094 0.832031 4.007812 0.714844 4.148438 C 0.613281 4.273438 0.707031 4.535156 0.707031 4.535156 C 0.707031 4.535156 2.347656 8.242188 4.203125 10.246094 C 5.910156 12.085938 7.910156 11.964844 7.910156 11.964844 "/>
</g>
</svg>
