<svg xmlns="http://www.w3.org/2000/svg" xmlns:xlink="http://www.w3.org/1999/xlink" width="16" height="16" viewBox="0 0 16 16" version="1.1">
<defs>
<linearGradient id="linear0" gradientUnits="userSpaceOnUse" x1="14.583" y1="19" x2="14.351" y2="13.165" gradientTransform="matrix(0.666667,0,0,0.666667,0,0)">
<stop offset="0" style="stop-color:rgb(74.901962%,75.686276%,75.686276%);stop-opacity:1;"/>
<stop offset="1" style="stop-color:rgb(94.509804%,94.901961%,95.294118%);stop-opacity:1;"/>
</linearGradient>
<linearGradient id="linear1" gradientUnits="userSpaceOnUse" x1="16" y1="20" x2="16" y2="12" gradientTransform="matrix(0.666667,0,0,0.666667,0,0)">
<stop offset="0" style="stop-color:rgb(100%,0%,33.725491%);stop-opacity:1;"/>
<stop offset="0.1" style="stop-color:rgb(100%,4.705882%,30.588236%);stop-opacity:1;"/>
<stop offset="0.2" style="stop-color:rgb(100%,9.411765%,27.058825%);stop-opacity:1;"/>
<stop offset="0.3" style="stop-color:rgb(100%,14.117648%,23.921569%);stop-opacity:1;"/>
<stop offset="0.4" style="stop-color:rgb(100%,18.82353%,20.392157%);stop-opacity:1;"/>
<stop offset="0.5" style="stop-color:rgb(100%,23.529412%,16.862746%);stop-opacity:1;"/>
<stop offset="0.6" style="stop-color:rgb(100%,28.235295%,13.725491%);stop-opacity:1;"/>
<stop offset="0.7" style="stop-color:rgb(100%,32.941177%,10.196079%);stop-opacity:1;"/>
<stop offset="0.8" style="stop-color:rgb(100%,37.64706%,7.058824%);stop-opacity:1;"/>
<stop offset="0.9" style="stop-color:rgb(100%,42.352942%,3.529412%);stop-opacity:1;"/>
<stop offset="1" style="stop-color:rgb(100%,47.450981%,0.392157%);stop-opacity:1;"/>
</linearGradient>
</defs>
<g id="surface1">
<path style=" stroke:none;fill-rule:nonzero;fill:rgb(57.647061%,58.431375%,59.215689%);fill-opacity:1;" d="M 2.667969 4.230469 L 4.941406 4.230469 C 5.28125 4.230469 5.585938 4.445312 5.699219 4.769531 L 8.605469 13.074219 L 7.800781 10.320312 L 11.664062 5.25 L 13.332031 6.828125 L 10.210938 3.332031 L 12.839844 3.332031 C 13.113281 3.332031 13.332031 3.554688 13.332031 3.828125 L 13.332031 6.828125 L 8.605469 13.074219 L 6.316406 13.074219 C 6 13.074219 5.71875 12.875 5.613281 12.578125 Z M 2.667969 4.230469 "/>
<path style=" stroke:none;fill-rule:nonzero;fill:url(#linear0);" d="M 9.332031 8.667969 L 12 8.667969 L 12 12.667969 L 9.332031 12.667969 Z M 9.332031 8.667969 "/>
<path style=" stroke:none;fill-rule:nonzero;fill:url(#linear1);" d="M 10.667969 8 C 9.191406 8 8 9.191406 8 10.667969 C 8 12.140625 9.191406 13.332031 10.667969 13.332031 C 12.140625 13.332031 13.332031 12.140625 13.332031 10.667969 C 13.332031 9.191406 12.140625 8 10.667969 8 Z M 10.285156 9.144531 L 11.046875 9.144531 L 11.046875 10.667969 L 12 10.667969 L 10.667969 12.570312 L 9.332031 10.667969 L 10.285156 10.667969 Z M 10.285156 9.144531 "/>
</g>
</svg>
