<svg xmlns="http://www.w3.org/2000/svg" xmlns:xlink="http://www.w3.org/1999/xlink" width="16" height="16" viewBox="0 0 16 16" version="1.1">
<defs>
<linearGradient id="linear0" gradientUnits="userSpaceOnUse" x1="17.499001" y1="11.999" x2="17.325001" y2="19.955999" gradientTransform="matrix(0.666667,0,0,0.666667,0,0)">
<stop offset="0" style="stop-color:rgb(10.196079%,83.92157%,67.058825%);stop-opacity:1;"/>
<stop offset="1" style="stop-color:rgb(19.607843%,61.56863%,71.372551%);stop-opacity:1;"/>
</linearGradient>
</defs>
<g id="surface1">
<path style=" stroke:none;fill-rule:nonzero;fill:rgb(57.647061%,58.431375%,59.215689%);fill-opacity:1;" d="M 2.667969 4.222656 L 4.921875 4.222656 C 5.261719 4.222656 5.558594 4.433594 5.671875 4.753906 L 8.550781 12.988281 L 7.753906 10.261719 L 11.585938 5.234375 L 13.238281 6.796875 L 10.144531 3.332031 L 12.75 3.332031 C 13.019531 3.332031 13.238281 3.550781 13.238281 3.824219 L 13.238281 6.796875 L 8.550781 12.988281 L 6.28125 12.988281 C 5.972656 12.988281 5.691406 12.792969 5.589844 12.496094 Z M 2.667969 4.222656 "/>
<path style=" stroke:none;fill-rule:nonzero;fill:url(#linear0);" d="M 11.6875 8.003906 C 11.613281 8.25 11.515625 8.492188 11.410156 8.730469 C 10.878906 9.90625 10.070312 10.699219 9.980469 11.449219 C 9.976562 11.460938 9.972656 11.472656 9.972656 11.480469 L 9.976562 11.484375 C 9.972656 11.511719 9.96875 11.535156 9.96875 11.5625 C 9.949219 12.492188 10.671875 13.261719 11.582031 13.285156 C 12.492188 13.308594 13.246094 12.574219 13.261719 11.648438 C 13.261719 11.621094 13.257812 11.597656 13.257812 11.570312 L 13.261719 11.566406 C 13.261719 11.558594 13.257812 11.542969 13.253906 11.535156 C 13.191406 10.78125 12.417969 9.945312 11.933594 8.746094 C 11.835938 8.5 11.75 8.253906 11.6875 8.003906 Z M 11.6875 8.003906 "/>
</g>
</svg>
