<svg xmlns="http://www.w3.org/2000/svg" xmlns:xlink="http://www.w3.org/1999/xlink" width="16" height="16" viewBox="0 0 16 16" version="1.1">
<g id="surface1">
<path style=" stroke:none;fill-rule:nonzero;fill:rgb(67.058825%,40.000001%,100%);fill-opacity:1;" d="M 8 2.667969 C 6.621094 2.667969 5.445312 3.515625 4.9375 4.710938 C 3.652344 4.902344 2.667969 5.996094 2.667969 7.335938 C 2.667969 8.808594 3.859375 10.003906 5.332031 10.003906 L 11 10.003906 C 12.289062 10.003906 13.332031 8.957031 13.332031 7.667969 C 13.332031 6.472656 12.433594 5.488281 11.269531 5.355469 C 10.96875 3.828125 9.617188 2.667969 8 2.667969 Z M 5.332031 10.667969 C 4.964844 10.667969 4.667969 10.964844 4.667969 11.332031 C 4.667969 11.703125 4.964844 12 5.332031 12 C 5.703125 12 6 11.703125 6 11.332031 C 6 10.964844 5.703125 10.667969 5.332031 10.667969 Z M 8 10.667969 C 7.632812 10.667969 7.332031 10.964844 7.332031 11.332031 C 7.332031 11.703125 7.632812 12 8 12 C 8.367188 12 8.667969 11.703125 8.667969 11.332031 C 8.667969 10.964844 8.367188 10.667969 8 10.667969 Z M 10.667969 10.667969 C 10.296875 10.667969 10 10.964844 10 11.332031 C 10 11.703125 10.296875 12 10.667969 12 C 11.035156 12 11.332031 11.703125 11.332031 11.332031 C 11.332031 10.964844 11.035156 10.667969 10.667969 10.667969 Z M 4 12 C 3.632812 12 3.332031 12.296875 3.332031 12.667969 C 3.332031 13.035156 3.632812 13.332031 4 13.332031 C 4.367188 13.332031 4.667969 13.035156 4.667969 12.667969 C 4.667969 12.296875 4.367188 12 4 12 Z M 6.667969 12 C 6.296875 12 6 12.296875 6 12.667969 C 6 13.035156 6.296875 13.332031 6.667969 13.332031 C 7.035156 13.332031 7.332031 13.035156 7.332031 12.667969 C 7.332031 12.296875 7.035156 12 6.667969 12 Z M 9.332031 12 C 8.964844 12 8.667969 12.296875 8.667969 12.667969 C 8.667969 13.035156 8.964844 13.332031 9.332031 13.332031 C 9.703125 13.332031 10 13.035156 10 12.667969 C 10 12.296875 9.703125 12 9.332031 12 Z M 12 12 C 11.632812 12 11.332031 12.296875 11.332031 12.667969 C 11.332031 13.035156 11.632812 13.332031 12 13.332031 C 12.367188 13.332031 12.667969 13.035156 12.667969 12.667969 C 12.667969 12.296875 12.367188 12 12 12 Z M 12 12 "/>
</g>
</svg>
