<svg xmlns="http://www.w3.org/2000/svg" xmlns:xlink="http://www.w3.org/1999/xlink" width="16" height="16" viewBox="0 0 16 16" version="1.1">
<g id="surface1">
<path style=" stroke:none;fill-rule:nonzero;fill:rgb(0%,80.000001%,100%);fill-opacity:1;" d="M 8 2.667969 C 6.621094 2.667969 5.445312 3.515625 4.9375 4.710938 C 3.652344 4.902344 2.667969 5.996094 2.667969 7.335938 C 2.667969 8.625 3.578125 9.691406 4.792969 9.941406 C 5.300781 9.421875 5.804688 8.898438 6.332031 8.398438 C 6.714844 8.757812 7.089844 9.132812 7.457031 9.503906 C 7.621094 9.457031 7.714844 8.9375 7.9375 8.773438 C 8.507812 8.195312 9.078125 7.625 9.667969 7.066406 C 10.109375 7.480469 10.527344 7.90625 10.957031 8.335938 C 11.355469 8.714844 11.777344 9.136719 11.917969 9.691406 C 11.925781 9.722656 11.929688 9.757812 11.9375 9.792969 C 12.761719 9.433594 13.332031 8.625 13.332031 7.667969 C 13.332031 6.472656 12.433594 5.488281 11.269531 5.355469 C 10.96875 3.828125 9.617188 2.667969 8 2.667969 Z M 9.667969 8.960938 C 9.609375 9.015625 9.558594 9.070312 9.5 9.128906 C 9.234375 9.40625 8.902344 9.648438 8.75 10.003906 L 10.605469 10.003906 C 10.585938 9.960938 10.566406 9.917969 10.542969 9.878906 C 10.292969 9.535156 9.957031 9.269531 9.667969 8.960938 Z M 9.667969 8.960938 "/>
<path style=" stroke:none;fill-rule:nonzero;fill:rgb(25.882354%,52.156866%,95.686275%);fill-opacity:1;" d="M 9.667969 8 L 8.5 9.167969 C 8.199219 9.46875 8 9.875 8 10.332031 C 8 11.25 8.75 12 9.667969 12 C 10.582031 12 11.332031 11.25 11.332031 10.332031 C 11.332031 9.875 11.136719 9.46875 10.832031 9.167969 L 9.894531 8.230469 Z M 6.332031 9.332031 L 6.105469 9.5625 L 5.167969 10.5 C 4.863281 10.800781 4.667969 11.207031 4.667969 11.667969 C 4.667969 12.582031 5.417969 13.332031 6.332031 13.332031 C 7.25 13.332031 8 12.582031 8 11.667969 C 8 11.207031 7.800781 10.800781 7.5 10.5 Z M 6.332031 9.332031 "/>
</g>
</svg>
