<svg xmlns="http://www.w3.org/2000/svg" xmlns:xlink="http://www.w3.org/1999/xlink" width="16" height="16" viewBox="0 0 16 16" version="1.1">
<g id="surface1">
<path style=" stroke:none;fill-rule:nonzero;fill:rgb(100%,74.901962%,0%);fill-opacity:1;" d="M 7.332031 2.667969 L 7 3.355469 C 7.109375 3.347656 7.222656 3.335938 7.332031 3.335938 L 7.667969 3.335938 Z M 7.332031 4.003906 C 5.492188 4.003906 4 5.496094 4 7.335938 C 4 8.839844 5.007812 10.085938 6.375 10.503906 C 6.6875 10.050781 7.160156 9.699219 7.6875 9.542969 C 8.101562 8.664062 9.003906 7.984375 10 8.003906 C 10.203125 8 10.390625 8.039062 10.582031 8.085938 C 10.640625 7.84375 10.667969 7.597656 10.667969 7.335938 C 10.667969 5.496094 9.175781 4.003906 7.332031 4.003906 Z M 4.042969 4.042969 L 4.269531 4.753906 C 4.417969 4.578125 4.578125 4.417969 4.75 4.273438 Z M 10.625 4.042969 L 9.894531 4.292969 L 9.855469 4.292969 C 9.945312 4.367188 10.039062 4.445312 10.125 4.523438 C 10.210938 4.601562 10.296875 4.683594 10.375 4.773438 Z M 3.332031 7.003906 L 2.667969 7.335938 L 3.355469 7.667969 C 3.34375 7.554688 3.332031 7.453125 3.332031 7.335938 C 3.332031 7.316406 3.332031 7.28125 3.332031 7.230469 C 3.335938 7.15625 3.347656 7.078125 3.355469 7.003906 Z M 11.3125 7.003906 C 11.324219 7.117188 11.332031 7.21875 11.332031 7.335938 C 11.332031 7.355469 11.335938 7.390625 11.332031 7.441406 C 11.328125 7.515625 11.320312 7.59375 11.3125 7.667969 L 11.332031 7.667969 L 12 7.335938 Z M 10 8.667969 C 9.125 8.667969 8.398438 9.242188 8.125 10.023438 C 7.304688 10.128906 6.667969 10.820312 6.667969 11.667969 C 6.667969 12.589844 7.414062 13.335938 8.332031 13.335938 L 12 13.335938 C 12.738281 13.335938 13.332031 12.738281 13.332031 12.003906 C 13.332031 11.265625 12.738281 10.667969 12 10.667969 C 12 9.566406 11.105469 8.667969 10 8.667969 Z M 4.292969 9.898438 L 4.042969 10.628906 L 4.769531 10.378906 L 4.8125 10.378906 C 4.71875 10.304688 4.628906 10.226562 4.542969 10.148438 C 4.453125 10.070312 4.371094 9.988281 4.292969 9.898438 Z M 4.292969 9.898438 "/>
</g>
</svg>
