<svg xmlns="http://www.w3.org/2000/svg" xmlns:xlink="http://www.w3.org/1999/xlink" width="16" height="16" viewBox="0 0 16 16" version="1.1">
<g id="surface1">
<path style=" stroke:none;fill-rule:nonzero;fill:rgb(25.882354%,52.156866%,95.686275%);fill-opacity:1;" d="M 7.332031 7.332031 L 7.332031 11.332031 L 8.667969 11.332031 L 8.667969 7.332031 Z M 7.332031 12 L 7.332031 13.332031 L 8.667969 13.332031 L 8.667969 12 Z M 7.332031 12 "/>
<path style=" stroke:none;fill-rule:nonzero;fill:rgb(96.862745%,0%,100%);fill-opacity:1;" d="M 8 3.332031 C 6.621094 3.332031 5.445312 4.179688 4.9375 5.375 C 3.652344 5.566406 2.667969 6.660156 2.667969 8 C 2.667969 9.472656 3.859375 10.667969 5.332031 10.667969 L 6.667969 10.667969 L 6.667969 6.667969 L 9.332031 6.667969 L 9.332031 10.667969 L 11 10.667969 C 12.289062 10.667969 13.332031 9.621094 13.332031 8.332031 C 13.332031 7.136719 12.433594 6.152344 11.269531 6.019531 C 10.96875 4.492188 9.617188 3.332031 8 3.332031 Z M 8 3.332031 "/>
</g>
</svg>
