<svg xmlns="http://www.w3.org/2000/svg" xmlns:xlink="http://www.w3.org/1999/xlink" width="16" height="16" viewBox="0 0 16 16" version="1.1">
<defs>
<filter id="alpha" filterUnits="objectBoundingBox" x="0%" y="0%" width="100%" height="100%">
  <feColorMatrix type="matrix" in="SourceGraphic" values="0 0 0 0 1 0 0 0 0 1 0 0 0 0 1 0 0 0 1 0"/>
</filter>
<mask id="mask0">
  <g filter="url(#alpha)">
<rect x="0" y="0" width="16" height="16" style="fill:rgb(0%,0%,0%);fill-opacity:0.3;stroke:none;"/>
  </g>
</mask>
<clipPath id="clip1">
  <rect x="0" y="0" width="16" height="16"/>
</clipPath>
<g id="surface5" clip-path="url(#clip1)">
<path style=" stroke:none;fill-rule:nonzero;fill:rgb(100%,30.980393%,30.980393%);fill-opacity:1;" d="M 4.667969 11.332031 L 12.667969 11.332031 C 13.035156 11.332031 13.332031 11.632812 13.332031 12 C 13.332031 12.367188 13.035156 12.667969 12.667969 12.667969 L 4.667969 12.667969 C 4.296875 12.667969 4 12.367188 4 12 C 4 11.632812 4.296875 11.332031 4.667969 11.332031 Z M 4.667969 11.332031 "/>
</g>
<mask id="mask1">
  <g filter="url(#alpha)">
<rect x="0" y="0" width="16" height="16" style="fill:rgb(0%,0%,0%);fill-opacity:0.3;stroke:none;"/>
  </g>
</mask>
<clipPath id="clip2">
  <rect x="0" y="0" width="16" height="16"/>
</clipPath>
<g id="surface8" clip-path="url(#clip2)">
<path style=" stroke:none;fill-rule:nonzero;fill:rgb(100%,30.980393%,30.980393%);fill-opacity:1;" d="M 3.332031 8.667969 L 10.667969 8.667969 C 11.035156 8.667969 11.332031 8.964844 11.332031 9.332031 C 11.332031 9.703125 11.035156 10 10.667969 10 L 3.332031 10 C 2.964844 10 2.667969 9.703125 2.667969 9.332031 C 2.667969 8.964844 2.964844 8.667969 3.332031 8.667969 Z M 3.332031 8.667969 "/>
</g>
<mask id="mask2">
  <g filter="url(#alpha)">
<rect x="0" y="0" width="16" height="16" style="fill:rgb(0%,0%,0%);fill-opacity:0.3;stroke:none;"/>
  </g>
</mask>
<clipPath id="clip3">
  <rect x="0" y="0" width="16" height="16"/>
</clipPath>
<g id="surface11" clip-path="url(#clip3)">
<path style=" stroke:none;fill-rule:nonzero;fill:rgb(100%,30.980393%,30.980393%);fill-opacity:1;" d="M 6 6 L 12.667969 6 C 13.035156 6 13.332031 6.296875 13.332031 6.667969 C 13.332031 7.035156 13.035156 7.332031 12.667969 7.332031 L 6 7.332031 C 5.632812 7.332031 5.332031 7.035156 5.332031 6.667969 C 5.332031 6.296875 5.632812 6 6 6 Z M 6 6 "/>
</g>
<mask id="mask3">
  <g filter="url(#alpha)">
<rect x="0" y="0" width="16" height="16" style="fill:rgb(0%,0%,0%);fill-opacity:0.3;stroke:none;"/>
  </g>
</mask>
<clipPath id="clip4">
  <rect x="0" y="0" width="16" height="16"/>
</clipPath>
<g id="surface14" clip-path="url(#clip4)">
<path style=" stroke:none;fill-rule:nonzero;fill:rgb(100%,30.980393%,30.980393%);fill-opacity:1;" d="M 4 3.332031 L 8 3.332031 C 8.367188 3.332031 8.667969 3.632812 8.667969 4 C 8.667969 4.367188 8.367188 4.667969 8 4.667969 L 4 4.667969 C 3.632812 4.667969 3.332031 4.367188 3.332031 4 C 3.332031 3.632812 3.632812 3.332031 4 3.332031 Z M 4 3.332031 "/>
</g>
</defs>
<g id="surface1">
<use xlink:href="#surface5" mask="url(#mask0)"/>
<use xlink:href="#surface8" mask="url(#mask1)"/>
<use xlink:href="#surface11" mask="url(#mask2)"/>
<use xlink:href="#surface14" mask="url(#mask3)"/>
</g>
</svg>
