<svg xmlns="http://www.w3.org/2000/svg" xmlns:xlink="http://www.w3.org/1999/xlink" width="16" height="16" viewBox="0 0 16 16" version="1.1">
<g id="surface1">
<path style=" stroke:none;fill-rule:nonzero;fill:rgb(100%,74.901962%,0%);fill-opacity:1;" d="M 8 3.332031 C 6.621094 3.332031 5.445312 4.179688 4.9375 5.375 C 3.652344 5.566406 2.667969 6.660156 2.667969 8 C 2.667969 9.472656 3.859375 10.667969 5.332031 10.667969 L 5.605469 10.667969 C 5.90625 10.132812 6.429688 9.714844 7.019531 9.542969 C 7.433594 8.660156 8.335938 7.984375 9.332031 8 C 10.605469 7.980469 11.722656 8.988281 11.917969 10.230469 C 12.011719 10.257812 12.097656 10.289062 12.1875 10.332031 C 12.875 9.925781 13.332031 9.1875 13.332031 8.332031 C 13.332031 7.136719 12.433594 6.152344 11.269531 6.019531 C 10.96875 4.492188 9.617188 3.332031 8 3.332031 Z M 9.332031 8.667969 C 8.457031 8.667969 7.730469 9.238281 7.457031 10.019531 C 6.636719 10.125 6 10.816406 6 11.667969 C 6 12.585938 6.746094 13.332031 7.667969 13.332031 L 11.332031 13.332031 C 12.070312 13.332031 12.667969 12.738281 12.667969 12 C 12.667969 11.261719 12.070312 10.667969 11.332031 10.667969 C 11.332031 9.5625 10.4375 8.667969 9.332031 8.667969 Z M 9.332031 8.667969 "/>
</g>
</svg>
