<svg xmlns="http://www.w3.org/2000/svg" xmlns:xlink="http://www.w3.org/1999/xlink" width="16" height="16" viewBox="0 0 16 16" version="1.1">
<g id="surface1">
<path style=" stroke:none;fill-rule:nonzero;fill:rgb(96.862745%,0%,100%);fill-opacity:1;" d="M 7.835938 3.359375 C 5.992188 3.425781 4.296875 4.5625 3.625 6.398438 C 2.785156 8.714844 3.871094 11.28125 6.085938 12.273438 C 6.023438 12.050781 5.988281 11.804688 6 11.566406 C 6.019531 10.898438 6.390625 10.308594 6.917969 9.921875 C 5.875 8.765625 5.492188 7.089844 6.0625 5.523438 C 6.40625 4.582031 7.046875 3.851562 7.835938 3.359375 Z M 10 8.671875 C 9.125 8.671875 8.398438 9.242188 8.125 10.023438 C 7.304688 10.128906 6.667969 10.820312 6.667969 11.671875 C 6.667969 12.589844 7.414062 13.335938 8.335938 13.335938 L 12 13.335938 C 12.738281 13.335938 13.335938 12.742188 13.335938 12.003906 C 13.335938 11.269531 12.738281 10.671875 12 10.671875 C 12 9.566406 11.105469 8.671875 10 8.671875 Z M 10 8.671875 "/>
</g>
</svg>
