<svg xmlns="http://www.w3.org/2000/svg" xmlns:xlink="http://www.w3.org/1999/xlink" width="16" height="16" viewBox="0 0 16 16" version="1.1">
<defs>
<filter id="alpha" filterUnits="objectBoundingBox" x="0%" y="0%" width="100%" height="100%">
  <feColorMatrix type="matrix" in="SourceGraphic" values="0 0 0 0 1 0 0 0 0 1 0 0 0 0 1 0 0 0 1 0"/>
</filter>
<mask id="mask0">
  <g filter="url(#alpha)">
<rect x="0" y="0" width="16" height="16" style="fill:rgb(0%,0%,0%);fill-opacity:0.3;stroke:none;"/>
  </g>
</mask>
<clipPath id="clip1">
  <rect x="0" y="0" width="16" height="16"/>
</clipPath>
<g id="surface5" clip-path="url(#clip1)">
<path style=" stroke:none;fill-rule:nonzero;fill:rgb(0%,100%,66.666669%);fill-opacity:1;" d="M 8 3.332031 C 6.621094 3.332031 5.445312 4.179688 4.9375 5.375 C 3.652344 5.566406 2.667969 6.660156 2.667969 8 C 2.667969 9.472656 3.859375 10.667969 5.332031 10.667969 L 6 10.667969 L 6 10 C 6 9.824219 6.070312 9.652344 6.195312 9.527344 L 7.332031 8.390625 L 7.332031 8 L 6 8 C 5.632812 8 5.332031 7.703125 5.332031 7.332031 L 5.332031 6 C 5.332031 5.632812 5.632812 5.332031 6 5.332031 L 9.332031 5.332031 C 9.703125 5.332031 10 5.632812 10 6 L 10 8.667969 C 10 8.84375 9.929688 9.015625 9.804688 9.140625 L 8.667969 10.277344 L 8.667969 10.667969 L 11 10.667969 C 12.289062 10.667969 13.332031 9.621094 13.332031 8.332031 C 13.332031 7.136719 12.433594 6.152344 11.269531 6.019531 C 10.96875 4.492188 9.617188 3.332031 8 3.332031 Z M 8 3.332031 "/>
</g>
</defs>
<g id="surface1">
<use xlink:href="#surface5" mask="url(#mask0)"/>
<path style=" stroke:none;fill-rule:nonzero;fill:rgb(25.882354%,52.156866%,95.686275%);fill-opacity:1;" d="M 6 6 L 6 7.332031 L 8 7.332031 L 8 8.667969 L 6.667969 10 L 6.667969 11.332031 L 8 11.332031 L 8 10 L 9.332031 8.667969 L 9.332031 6 Z M 6.667969 12 L 6.667969 13.332031 L 8 13.332031 L 8 12 Z M 6.667969 12 "/>
</g>
</svg>
