<svg xmlns="http://www.w3.org/2000/svg" xmlns:xlink="http://www.w3.org/1999/xlink" width="16" height="16" viewBox="0 0 16 16" version="1.1">
<g id="surface1">
<path style=" stroke:none;fill-rule:nonzero;fill:rgb(0%,80.000001%,100%);fill-opacity:1;" d="M 8 2.667969 C 6.621094 2.667969 5.445312 3.511719 4.9375 4.707031 C 3.652344 4.898438 2.667969 5.996094 2.667969 7.332031 C 2.667969 8.804688 3.859375 10 5.332031 10 L 6.125 10 C 6.402344 9.226562 7.136719 8.667969 8 8.667969 C 8.863281 8.667969 9.597656 9.226562 9.875 10 L 11 10 C 12.289062 10 13.332031 8.957031 13.332031 7.667969 C 13.332031 6.46875 12.433594 5.488281 11.269531 5.355469 C 10.96875 3.824219 9.617188 2.667969 8 2.667969 Z M 8 9.332031 C 7.261719 9.332031 6.667969 9.929688 6.667969 10.667969 C 6.667969 11.402344 7.261719 12 8 12 C 8.738281 12 9.332031 11.402344 9.332031 10.667969 C 9.332031 9.929688 8.738281 9.332031 8 9.332031 Z M 4.667969 10.667969 C 3.929688 10.667969 3.332031 11.261719 3.332031 12 C 3.332031 12.738281 3.929688 13.332031 4.667969 13.332031 C 5.402344 13.332031 6 12.738281 6 12 C 6 11.261719 5.402344 10.667969 4.667969 10.667969 Z M 11.332031 10.667969 C 10.597656 10.667969 10 11.261719 10 12 C 10 12.738281 10.597656 13.332031 11.332031 13.332031 C 12.070312 13.332031 12.667969 12.738281 12.667969 12 C 12.667969 11.261719 12.070312 10.667969 11.332031 10.667969 Z M 11.332031 10.667969 "/>
</g>
</svg>
