<svg xmlns="http://www.w3.org/2000/svg" xmlns:xlink="http://www.w3.org/1999/xlink" width="16" height="16" viewBox="0 0 16 16" version="1.1">
<g id="surface1">
<path style=" stroke:none;fill-rule:nonzero;fill:rgb(0%,80.000001%,100%);fill-opacity:1;" d="M 8 2.667969 C 6.621094 2.667969 5.445312 3.515625 4.9375 4.710938 C 3.652344 4.902344 2.667969 5.996094 2.667969 7.335938 C 2.667969 8.808594 3.859375 10.003906 5.332031 10.003906 L 11 10.003906 C 12.289062 10.003906 13.332031 8.957031 13.332031 7.667969 C 13.332031 6.472656 12.433594 5.488281 11.269531 5.355469 C 10.96875 3.828125 9.617188 2.667969 8 2.667969 Z M 4.984375 10.660156 C 4.863281 10.667969 4.753906 10.738281 4.703125 10.851562 L 4.035156 12.183594 C 3.953125 12.347656 4.019531 12.546875 4.183594 12.628906 C 4.347656 12.710938 4.546875 12.644531 4.632812 12.480469 L 5.296875 11.148438 C 5.351562 11.042969 5.347656 10.914062 5.28125 10.8125 C 5.21875 10.714844 5.105469 10.65625 4.984375 10.660156 Z M 6.984375 10.664062 C 6.863281 10.667969 6.753906 10.742188 6.703125 10.851562 L 6.035156 12.183594 C 5.980469 12.292969 5.988281 12.417969 6.054688 12.519531 C 6.121094 12.617188 6.234375 12.675781 6.351562 12.667969 C 6.472656 12.660156 6.578125 12.589844 6.632812 12.484375 L 7.296875 11.148438 C 7.351562 11.042969 7.347656 10.917969 7.28125 10.816406 C 7.21875 10.714844 7.105469 10.65625 6.984375 10.664062 Z M 10 10.667969 C 9.632812 10.667969 9.332031 10.964844 9.332031 11.332031 C 9.332031 11.703125 9.632812 12 10 12 C 10.367188 12 10.667969 11.703125 10.667969 11.332031 C 10.667969 10.964844 10.367188 10.667969 10 10.667969 Z M 8.667969 12 C 8.296875 12 8 12.296875 8 12.667969 C 8 13.035156 8.296875 13.332031 8.667969 13.332031 C 9.035156 13.332031 9.332031 13.035156 9.332031 12.667969 C 9.332031 12.296875 9.035156 12 8.667969 12 Z M 11.332031 12 C 10.964844 12 10.667969 12.296875 10.667969 12.667969 C 10.667969 13.035156 10.964844 13.332031 11.332031 13.332031 C 11.703125 13.332031 12 13.035156 12 12.667969 C 12 12.296875 11.703125 12 11.332031 12 Z M 11.332031 12 "/>
</g>
</svg>
