<svg xmlns="http://www.w3.org/2000/svg" xmlns:xlink="http://www.w3.org/1999/xlink" width="16" height="16" viewBox="0 0 16 16" version="1.1">
<g id="surface1">
<path style=" stroke:none;fill-rule:nonzero;fill:rgb(67.058825%,40.000001%,100%);fill-opacity:1;" d="M 8 2.667969 L 7.667969 3.355469 C 7.777344 3.347656 7.886719 3.332031 8 3.332031 C 8.113281 3.332031 8.222656 3.347656 8.332031 3.355469 Z M 8 4 C 5.789062 4 4 5.789062 4 8 C 4 10.210938 5.789062 12 8 12 C 10.210938 12 12 10.210938 12 8 C 12 5.789062 10.210938 4 8 4 Z M 4.230469 4.230469 L 4.480469 4.957031 C 4.625 4.789062 4.789062 4.625 4.957031 4.480469 Z M 11.769531 4.230469 L 11.042969 4.480469 C 11.210938 4.625 11.375 4.789062 11.519531 4.957031 Z M 3.355469 7.667969 L 2.667969 8 L 3.355469 8.332031 C 3.347656 8.222656 3.332031 8.113281 3.332031 8 C 3.332031 7.886719 3.347656 7.777344 3.355469 7.667969 Z M 12.644531 7.667969 C 12.652344 7.777344 12.667969 7.886719 12.667969 8 C 12.667969 8.113281 12.652344 8.222656 12.644531 8.332031 L 13.332031 8 Z M 4.480469 11.042969 L 4.230469 11.769531 L 4.957031 11.519531 C 4.789062 11.375 4.625 11.210938 4.480469 11.042969 Z M 11.519531 11.042969 C 11.375 11.210938 11.210938 11.375 11.042969 11.519531 L 11.769531 11.769531 Z M 7.667969 12.644531 L 8 13.332031 L 8.332031 12.644531 C 8.222656 12.652344 8.113281 12.667969 8 12.667969 C 7.886719 12.667969 7.777344 12.652344 7.667969 12.644531 Z M 7.667969 12.644531 "/>
</g>
</svg>
