<svg xmlns="http://www.w3.org/2000/svg" xmlns:xlink="http://www.w3.org/1999/xlink" width="16" height="16" viewBox="0 0 16 16" version="1.1">
<g id="surface1">
<path style="fill:none;stroke-width:2;stroke-linecap:round;stroke-linejoin:round;stroke:rgb(100%,74.901962%,0%);stroke-opacity:1;stroke-miterlimit:4;" d="M 4.013672 9 L 13.013672 9 C 13.013672 9 15.011719 9 15.011719 7.001953 C 15.011719 4.998047 13.013672 4.998047 13.013672 4.998047 " transform="matrix(0.666667,0,0,0.666667,0,0)"/>
<path style="fill:none;stroke-width:2;stroke-linecap:round;stroke-linejoin:round;stroke:rgb(100%,74.901962%,0%);stroke-opacity:1;stroke-miterlimit:4;" d="M 9.011719 12 L 18.011719 12 C 18.011719 12 20.015625 12 20.015625 10.001953 C 20.015625 7.998047 18.011719 7.998047 18.011719 7.998047 " transform="matrix(0.666667,0,0,0.666667,0,0)"/>
<path style="fill:none;stroke-width:2;stroke-linecap:round;stroke-linejoin:round;stroke:rgb(100%,74.901962%,0%);stroke-opacity:1;stroke-miterlimit:4;" d="M 4.013672 15 L 13.013672 15 C 13.013672 15 15.011719 15 15.011719 16.998047 C 15.011719 19.001953 13.013672 19.001953 13.013672 19.001953 " transform="matrix(0.666667,0,0,0.666667,0,0)"/>
</g>
</svg>
