<svg xmlns="http://www.w3.org/2000/svg" xmlns:xlink="http://www.w3.org/1999/xlink" width="16" height="16" viewBox="0 0 16 16" version="1.1">
<g id="surface1">
<path style=" stroke:none;fill-rule:nonzero;fill:rgb(100%,30.980393%,30.980393%);fill-opacity:1;" d="M 8 2.667969 C 6.621094 2.667969 5.445312 3.515625 4.9375 4.710938 C 3.652344 4.902344 2.667969 5.996094 2.667969 7.335938 C 2.667969 8.808594 3.859375 10.003906 5.332031 10.003906 L 11 10.003906 C 12.289062 10.003906 13.332031 8.957031 13.332031 7.667969 C 13.332031 6.472656 12.433594 5.488281 11.269531 5.355469 C 10.96875 3.828125 9.617188 2.667969 8 2.667969 Z M 4.652344 10.664062 C 4.53125 10.667969 4.421875 10.742188 4.367188 10.851562 L 3.703125 12.183594 C 3.648438 12.292969 3.65625 12.417969 3.722656 12.519531 C 3.785156 12.617188 3.902344 12.675781 4.019531 12.667969 C 4.140625 12.660156 4.246094 12.589844 4.296875 12.484375 L 4.964844 11.148438 C 5.019531 11.042969 5.015625 10.917969 4.949219 10.816406 C 4.886719 10.714844 4.773438 10.65625 4.652344 10.664062 Z M 6.320312 10.664062 C 6.195312 10.667969 6.089844 10.742188 6.035156 10.851562 L 5.367188 12.183594 C 5.316406 12.292969 5.320312 12.417969 5.386719 12.519531 C 5.453125 12.617188 5.566406 12.675781 5.6875 12.667969 C 5.804688 12.660156 5.910156 12.589844 5.964844 12.484375 L 6.632812 11.148438 C 6.6875 11.042969 6.679688 10.917969 6.617188 10.816406 C 6.550781 10.714844 6.4375 10.65625 6.320312 10.664062 Z M 7.984375 10.664062 C 7.863281 10.667969 7.753906 10.742188 7.703125 10.851562 L 7.035156 12.183594 C 6.980469 12.292969 6.988281 12.417969 7.054688 12.519531 C 7.121094 12.617188 7.234375 12.675781 7.351562 12.667969 C 7.472656 12.660156 7.578125 12.589844 7.632812 12.484375 L 8.296875 11.148438 C 8.351562 11.042969 8.347656 10.917969 8.28125 10.816406 C 8.21875 10.714844 8.105469 10.65625 7.984375 10.664062 Z M 9.652344 10.664062 C 9.53125 10.667969 9.421875 10.742188 9.367188 10.851562 L 8.703125 12.183594 C 8.648438 12.292969 8.65625 12.417969 8.722656 12.519531 C 8.785156 12.617188 8.902344 12.675781 9.019531 12.667969 C 9.140625 12.660156 9.246094 12.589844 9.296875 12.484375 L 9.964844 11.148438 C 10.019531 11.042969 10.015625 10.917969 9.949219 10.816406 C 9.886719 10.714844 9.773438 10.65625 9.652344 10.664062 Z M 11.320312 10.664062 C 11.195312 10.667969 11.089844 10.742188 11.035156 10.851562 L 10.367188 12.183594 C 10.316406 12.292969 10.320312 12.417969 10.386719 12.519531 C 10.453125 12.617188 10.566406 12.675781 10.6875 12.667969 C 10.804688 12.660156 10.910156 12.589844 10.964844 12.484375 L 11.632812 11.148438 C 11.6875 11.042969 11.679688 10.917969 11.617188 10.816406 C 11.550781 10.714844 11.4375 10.65625 11.320312 10.664062 Z M 11.320312 10.664062 "/>
</g>
</svg>
