<svg xmlns="http://www.w3.org/2000/svg" xmlns:xlink="http://www.w3.org/1999/xlink" width="16" height="16" viewBox="0 0 16 16" version="1.1">
<g id="surface1">
<path style=" stroke:none;fill-rule:nonzero;fill:rgb(96.862745%,0%,100%);fill-opacity:1;" d="M 7.695312 2.667969 C 7.464844 2.660156 7.234375 2.71875 7.03125 2.828125 L 3.300781 4.890625 C 2.910156 5.105469 2.667969 5.507812 2.667969 5.941406 L 2.667969 10.058594 C 2.667969 10.492188 2.910156 10.894531 3.300781 11.109375 L 7.03125 13.171875 C 7.425781 13.386719 7.910156 13.386719 8.300781 13.171875 L 12.03125 11.109375 C 12.425781 10.894531 12.667969 10.492188 12.667969 10.058594 L 12.667969 5.941406 C 12.667969 5.507812 12.425781 5.105469 12.03125 4.890625 L 8.300781 2.828125 C 8.117188 2.726562 7.910156 2.671875 7.695312 2.667969 Z M 7.667969 4 L 11.332031 6.027344 L 11.332031 9.972656 L 7.667969 12 L 4 9.972656 L 4 6.027344 Z M 6.679688 6 C 5.9375 6 5.332031 6.6875 5.332031 7.53125 C 5.332031 8.851562 7.40625 9.890625 7.667969 10.667969 C 7.925781 9.890625 10 8.851562 10 7.53125 C 10 6.6875 9.398438 6 8.652344 6 C 8.265625 6 7.914062 6.238281 7.667969 6.539062 C 7.421875 6.238281 7.070312 6 6.679688 6 Z M 6.679688 6 "/>
</g>
</svg>
