<svg xmlns="http://www.w3.org/2000/svg" xmlns:xlink="http://www.w3.org/1999/xlink" width="16" height="16" viewBox="0 0 16 16" version="1.1">
<g id="surface1">
<path style=" stroke:none;fill-rule:nonzero;fill:rgb(100%,30.980393%,30.980393%);fill-opacity:1;" d="M 7.332031 2.667969 C 4.757812 2.667969 2.667969 4.605469 2.667969 7 C 2.667969 8.132812 3.144531 9.222656 4 10.03125 L 4 12 L 4.878906 10.679688 C 5.34375 10.945312 5.855469 11.132812 6.386719 11.234375 C 6.140625 10.761719 6 10.230469 6 9.667969 C 6 8.039062 7.148438 6.695312 8.699219 6.203125 C 8.679688 6.136719 8.667969 6.070312 8.667969 6 C 8.667969 5.632812 8.964844 5.332031 9.332031 5.332031 C 9.703125 5.332031 10 5.632812 10 6 C 10.707031 6 11.378906 6.175781 11.960938 6.476562 C 11.679688 4.304688 9.691406 2.667969 7.332031 2.667969 Z M 5.332031 5.332031 C 5.703125 5.332031 6 5.632812 6 6 C 6 6.367188 5.703125 6.667969 5.332031 6.667969 C 4.964844 6.667969 4.667969 6.367188 4.667969 6 C 4.667969 5.632812 4.964844 5.332031 5.332031 5.332031 Z M 10 6.667969 C 8.160156 6.667969 6.667969 8.011719 6.667969 9.667969 C 6.667969 11.324219 8.160156 12.667969 10 12.667969 C 10.667969 12.664062 11.320312 12.484375 11.875 12.144531 L 12.667969 13.332031 L 12.667969 11.460938 C 13.097656 10.941406 13.332031 10.3125 13.332031 9.667969 C 13.332031 8.011719 11.839844 6.667969 10 6.667969 Z M 8.667969 8 C 9.035156 8 9.332031 8.296875 9.332031 8.667969 C 9.332031 9.035156 9.035156 9.332031 8.667969 9.332031 C 8.296875 9.332031 8 9.035156 8 8.667969 C 8 8.296875 8.296875 8 8.667969 8 Z M 11.332031 8 C 11.703125 8 12 8.296875 12 8.667969 C 12 9.035156 11.703125 9.332031 11.332031 9.332031 C 10.964844 9.332031 10.667969 9.035156 10.667969 8.667969 C 10.667969 8.296875 10.964844 8 11.332031 8 Z M 11.332031 8 "/>
</g>
</svg>
