<svg xmlns="http://www.w3.org/2000/svg" xmlns:xlink="http://www.w3.org/1999/xlink" width="16" height="16" viewBox="0 0 16 16" version="1.1">
<g id="surface1">
<path style=" stroke:none;fill-rule:nonzero;fill:rgb(67.058825%,40.000001%,100%);fill-opacity:1;" d="M 8 2.667969 C 7.871094 2.667969 7.746094 2.671875 7.617188 2.683594 C 7.601562 2.683594 7.585938 2.683594 7.570312 2.683594 C 5.667969 2.835938 4.050781 3.980469 3.238281 5.601562 C 3.183594 5.707031 3.128906 5.8125 3.085938 5.921875 C 2.835938 6.484375 2.699219 7.082031 2.675781 7.707031 C 2.671875 7.730469 2.671875 7.75 2.671875 7.769531 C 2.671875 7.828125 2.667969 7.890625 2.667969 7.949219 C 2.667969 7.964844 2.667969 7.984375 2.667969 8 C 2.667969 8.621094 2.777344 9.210938 2.96875 9.765625 C 3.046875 10.011719 3.136719 10.261719 3.246094 10.515625 C 3.511719 11.148438 3.546875 11.320312 3.503906 11.847656 C 3.476562 12.214844 3.375 12.589844 3.25 12.800781 C 3.136719 12.992188 3.046875 13.191406 3.046875 13.242188 C 3.046875 13.398438 3.945312 13.34375 4.742188 13.140625 C 5.675781 12.902344 5.757812 12.902344 6.519531 13.140625 C 6.871094 13.25 7.269531 13.308594 7.71875 13.324219 C 7.738281 13.328125 7.757812 13.328125 7.777344 13.328125 C 7.835938 13.328125 7.898438 13.332031 7.960938 13.332031 C 7.964844 13.332031 7.96875 13.332031 7.976562 13.332031 C 7.984375 13.332031 7.992188 13.332031 8 13.332031 C 8.148438 13.332031 8.296875 13.324219 8.441406 13.3125 C 9.761719 13.21875 10.820312 12.734375 11.773438 11.78125 C 12.558594 10.996094 13.042969 10.027344 13.238281 9.015625 C 13.253906 8.921875 13.269531 8.828125 13.28125 8.734375 C 13.289062 8.679688 13.296875 8.621094 13.304688 8.5625 C 13.316406 8.4375 13.324219 8.3125 13.328125 8.183594 C 13.328125 8.152344 13.332031 8.121094 13.332031 8.089844 C 13.332031 8.058594 13.335938 8.03125 13.335938 8 C 13.335938 5.09375 11.035156 2.746094 8.148438 2.671875 C 8.125 2.667969 8.101562 2.667969 8.082031 2.667969 C 8.054688 2.667969 8.027344 2.667969 8 2.667969 Z M 4.667969 6.667969 C 5.402344 6.667969 6 7.261719 6 8 C 6 8.738281 5.402344 9.332031 4.667969 9.332031 C 3.929688 9.332031 3.332031 8.738281 3.332031 8 C 3.332031 7.261719 3.929688 6.667969 4.667969 6.667969 Z M 8 6.667969 C 8.738281 6.667969 9.332031 7.261719 9.332031 8 C 9.332031 8.738281 8.738281 9.332031 8 9.332031 C 7.261719 9.332031 6.667969 8.738281 6.667969 8 C 6.667969 7.261719 7.261719 6.667969 8 6.667969 Z M 11.332031 6.667969 C 12.070312 6.667969 12.667969 7.261719 12.667969 8 C 12.667969 8.738281 12.070312 9.332031 11.332031 9.332031 C 10.597656 9.332031 10 8.738281 10 8 C 10 7.261719 10.597656 6.667969 11.332031 6.667969 Z M 11.332031 6.667969 "/>
</g>
</svg>
