<svg xmlns="http://www.w3.org/2000/svg" xmlns:xlink="http://www.w3.org/1999/xlink" width="16" height="16" viewBox="0 0 16 16" version="1.1">
<g id="surface1">
<path style=" stroke:none;fill-rule:nonzero;fill:rgb(100%,74.901962%,0%);fill-opacity:1;" d="M 8 2.667969 C 6.527344 2.667969 5.332031 3.859375 5.332031 5.332031 C 5.332031 6.804688 6.527344 8 8 8 C 9.472656 8 10.667969 6.804688 10.667969 5.332031 C 10.667969 3.859375 9.472656 2.667969 8 2.667969 Z M 7.332031 4 L 8.667969 4 L 8.667969 4.667969 L 9.332031 4.667969 L 9.332031 6 L 8.667969 6 L 8.667969 6.667969 L 7.332031 6.667969 L 7.332031 6 L 6.667969 6 L 6.667969 4.667969 L 7.332031 4.667969 Z M 8 9.332031 C 2.667969 9.335938 2.667969 12.761719 2.667969 12.761719 L 2.667969 13.332031 L 13.332031 13.332031 L 13.332031 12.761719 C 13.332031 12.761719 13.332031 9.332031 8 9.332031 Z M 8 9.332031 "/>
</g>
</svg>
