<svg xmlns="http://www.w3.org/2000/svg" xmlns:xlink="http://www.w3.org/1999/xlink" width="16" height="16" viewBox="0 0 16 16" version="1.1">
<g id="surface1">
<path style=" stroke:none;fill-rule:nonzero;fill:rgb(96.862745%,0%,100%);fill-opacity:1;" d="M 8 2.667969 C 6.527344 2.667969 5.332031 3.859375 5.332031 5.332031 C 5.332031 6.804688 6.527344 8 8 8 C 9.472656 8 10.667969 6.804688 10.667969 5.332031 C 10.667969 3.859375 9.472656 2.667969 8 2.667969 Z M 7.332031 4 L 8.667969 4 L 8.667969 4.667969 L 9.332031 4.667969 L 9.332031 6 L 8.667969 6 L 8.667969 6.667969 L 7.332031 6.667969 L 7.332031 6 L 6.667969 6 L 6.667969 4.667969 L 7.332031 4.667969 Z M 8 9.332031 C 2.667969 9.335938 2.667969 12.761719 2.667969 12.761719 L 2.667969 13.332031 L 9.449219 13.332031 L 10.472656 12.308594 L 9.058594 10.894531 L 10.335938 9.617188 C 9.699219 9.441406 8.9375 9.332031 8 9.332031 Z M 10.941406 9.953125 L 10 10.894531 L 11.414062 12.308594 L 10 13.726562 L 10.941406 14.667969 L 12.355469 13.253906 L 13.773438 14.667969 L 14.714844 13.726562 L 13.300781 12.308594 L 14.714844 10.894531 L 13.773438 9.953125 L 12.355469 11.367188 Z M 10.941406 9.953125 "/>
</g>
</svg>
