<svg xmlns="http://www.w3.org/2000/svg" xmlns:xlink="http://www.w3.org/1999/xlink" width="16" height="16" viewBox="0 0 16 16" version="1.1">
<g id="surface1">
<path style=" stroke:none;fill-rule:nonzero;fill:rgb(100%,30.980393%,30.980393%);fill-opacity:1;" d="M 2.816406 1.871094 L 1.871094 2.816406 L 13.183594 14.128906 L 14.128906 13.183594 Z M 8 2.667969 C 7.097656 2.667969 6.257812 3.125 5.765625 3.878906 L 6.667969 4.78125 L 6.667969 4.667969 L 7.332031 4.667969 L 7.332031 4 L 8.667969 4 L 8.667969 4.667969 L 9.332031 4.667969 L 9.332031 6 L 8.667969 6 L 8.667969 6.667969 L 8.550781 6.667969 L 9.453125 7.566406 C 10.207031 7.074219 10.664062 6.234375 10.667969 5.332031 C 10.667969 3.859375 9.472656 2.667969 8 2.667969 Z M 7.46875 9.355469 C 2.679688 9.582031 2.667969 12.761719 2.667969 12.761719 L 2.667969 13.332031 L 11.449219 13.332031 Z M 7.46875 9.355469 "/>
</g>
</svg>
