<svg xmlns="http://www.w3.org/2000/svg" xmlns:xlink="http://www.w3.org/1999/xlink" width="16" height="16" viewBox="0 0 16 16" version="1.1">
<g id="surface1">
<path style=" stroke:none;fill-rule:evenodd;fill:rgb(0%,80.000001%,100%);fill-opacity:1;" d="M 4.9375 3.324219 C 4.765625 3.324219 4.589844 3.382812 4.457031 3.511719 L 3.519531 4.449219 C 3.257812 4.710938 3.257812 5.148438 3.519531 5.410156 L 4.105469 5.992188 L 7.894531 5.992188 L 5.417969 3.511719 C 5.285156 3.382812 5.109375 3.324219 4.9375 3.324219 Z M 11.0625 3.324219 C 10.886719 3.324219 10.714844 3.382812 10.582031 3.511719 L 8.105469 5.992188 L 11.894531 5.992188 L 12.480469 5.410156 C 12.742188 5.148438 12.742188 4.710938 12.480469 4.449219 L 11.542969 3.511719 C 11.410156 3.382812 11.238281 3.324219 11.0625 3.324219 Z M 5.652344 6.332031 C 5.476562 6.335938 5.335938 6.480469 5.332031 6.660156 L 5.332031 8.992188 C 5.332031 9.113281 5.394531 9.222656 5.5 9.285156 C 5.601562 9.34375 5.730469 9.34375 5.835938 9.285156 C 5.9375 9.222656 6 9.113281 6 8.992188 L 6 7.992188 L 6.667969 7.992188 L 6.667969 8.992188 C 6.664062 9.113281 6.726562 9.222656 6.832031 9.285156 C 6.9375 9.34375 7.0625 9.34375 7.167969 9.285156 C 7.273438 9.222656 7.335938 9.113281 7.332031 8.992188 L 7.332031 7.660156 C 7.332031 7.472656 7.183594 7.324219 7 7.324219 L 6 7.324219 L 6 6.660156 C 6 6.566406 5.960938 6.484375 5.894531 6.421875 C 5.828125 6.359375 5.742188 6.328125 5.652344 6.332031 Z M 12.984375 6.332031 C 12.808594 6.339844 12.667969 6.480469 12.667969 6.660156 L 12.667969 7.324219 L 12.332031 7.324219 C 12.152344 7.328125 12.003906 7.476562 12.003906 7.660156 C 12.003906 7.839844 12.152344 7.988281 12.332031 7.992188 L 12.667969 7.992188 L 12.667969 8.992188 C 12.667969 9.175781 12.816406 9.324219 13 9.324219 L 14 9.324219 C 14.121094 9.328125 14.230469 9.261719 14.292969 9.160156 C 14.351562 9.054688 14.351562 8.925781 14.292969 8.824219 C 14.230469 8.71875 14.121094 8.65625 14 8.660156 L 13.332031 8.660156 L 13.332031 7.992188 L 14 7.992188 C 14.121094 7.992188 14.230469 7.929688 14.292969 7.828125 C 14.351562 7.722656 14.351562 7.59375 14.292969 7.488281 C 14.230469 7.386719 14.121094 7.324219 14 7.324219 L 13.332031 7.324219 L 13.332031 6.660156 C 13.332031 6.566406 13.292969 6.484375 13.230469 6.421875 C 13.164062 6.359375 13.074219 6.328125 12.984375 6.332031 Z M 2.332031 7.324219 C 2.148438 7.324219 2 7.472656 2 7.65625 L 2 8.992188 C 2 9.175781 2.148438 9.324219 2.332031 9.324219 L 3.667969 9.324219 C 3.785156 9.328125 3.898438 9.261719 3.960938 9.160156 C 4.019531 9.054688 4.019531 8.925781 3.960938 8.824219 C 3.898438 8.71875 3.785156 8.65625 3.667969 8.65625 L 2.667969 8.65625 L 2.667969 7.992188 L 3.667969 7.992188 C 3.785156 7.992188 3.898438 7.929688 3.960938 7.824219 C 4.019531 7.722656 4.019531 7.59375 3.960938 7.488281 C 3.898438 7.386719 3.785156 7.324219 3.667969 7.324219 Z M 9 7.324219 C 8.816406 7.324219 8.667969 7.472656 8.667969 7.65625 L 8.667969 8.992188 C 8.667969 9.175781 8.816406 9.324219 9 9.324219 L 9.5 9.324219 C 9.621094 9.328125 9.730469 9.261719 9.792969 9.160156 C 9.851562 9.054688 9.851562 8.925781 9.792969 8.824219 C 9.730469 8.71875 9.621094 8.65625 9.5 8.65625 L 9.332031 8.65625 L 9.332031 7.992188 L 10 7.992188 L 10 8.992188 C 10 9.113281 10.0625 9.222656 10.164062 9.285156 C 10.269531 9.34375 10.398438 9.34375 10.5 9.285156 C 10.605469 9.222656 10.667969 9.113281 10.667969 8.992188 L 10.667969 7.65625 C 10.667969 7.472656 10.515625 7.324219 10.332031 7.324219 Z M 4.105469 9.992188 L 3.519531 10.574219 C 3.261719 10.835938 3.261719 11.273438 3.519531 11.53125 L 4.457031 12.46875 C 4.71875 12.730469 5.15625 12.730469 5.417969 12.46875 L 7.894531 9.992188 Z M 8.105469 9.992188 L 10.582031 12.46875 C 10.84375 12.730469 11.28125 12.730469 11.542969 12.46875 L 12.480469 11.53125 C 12.742188 11.273438 12.742188 10.835938 12.480469 10.574219 L 11.894531 9.992188 Z M 8.105469 9.992188 "/>
</g>
</svg>
