<svg xmlns="http://www.w3.org/2000/svg" xmlns:xlink="http://www.w3.org/1999/xlink" width="16" height="16" viewBox="0 0 16 16" version="1.1">
<g id="surface1">
<path style=" stroke:none;fill-rule:nonzero;fill:rgb(0%,100%,66.666669%);fill-opacity:1;" d="M 4 2.667969 C 3.628906 2.667969 3.332031 2.964844 3.332031 3.332031 L 3.332031 12.667969 C 3.332031 13.035156 3.628906 13.332031 4 13.332031 L 8.671875 13.332031 C 8.671875 13.316406 8.667969 13.304688 8.667969 13.289062 C 8.671875 13.074219 8.722656 12.863281 8.824219 12.671875 L 10.019531 10.351562 L 11.214844 8.035156 C 11.414062 7.644531 11.804688 7.363281 12.261719 7.335938 C 12.308594 7.332031 12.351562 7.332031 12.398438 7.335938 C 12.492188 7.339844 12.578125 7.363281 12.667969 7.386719 L 12.667969 3.332031 C 12.667969 2.964844 12.371094 2.667969 12 2.667969 Z M 8 4.667969 C 9.472656 4.667969 10.667969 5.859375 10.667969 7.332031 C 10.667969 8.804688 9.472656 10 8 10 L 5.332031 10 L 5.332031 7.332031 C 5.332031 5.859375 6.527344 4.667969 8 4.667969 Z M 8 6 C 7.261719 6 6.667969 6.597656 6.667969 7.332031 C 6.667969 8.070312 7.261719 8.667969 8 8.667969 C 8.738281 8.667969 9.332031 8.070312 9.332031 7.332031 C 9.332031 6.597656 8.738281 6 8 6 Z M 8 6 "/>
<path style=" stroke:none;fill-rule:nonzero;fill:rgb(25.882354%,52.156866%,95.686275%);fill-opacity:1;" d="M 12.300781 8 C 12.09375 8.011719 11.910156 8.140625 11.804688 8.339844 L 10.609375 10.660156 L 9.414062 12.976562 C 9.363281 13.074219 9.335938 13.1875 9.332031 13.300781 C 9.328125 13.484375 9.390625 13.664062 9.507812 13.792969 C 9.621094 13.925781 9.777344 14 9.941406 14 L 14.722656 14 C 14.941406 14 15.144531 13.871094 15.25 13.660156 C 15.359375 13.449219 15.359375 13.1875 15.25 12.976562 L 14.054688 10.660156 L 12.859375 8.339844 C 12.757812 8.140625 12.570312 8.011719 12.363281 8 C 12.339844 8 12.320312 8 12.300781 8 Z M 12 9.332031 L 12.667969 9.332031 L 12.667969 12 L 12 12 Z M 12 12.667969 L 12.667969 12.667969 L 12.667969 13.332031 L 12 13.332031 Z M 12 12.667969 "/>
</g>
</svg>
