<svg xmlns="http://www.w3.org/2000/svg" xmlns:xlink="http://www.w3.org/1999/xlink" width="16" height="16" viewBox="0 0 16 16" version="1.1">
<g id="surface1">
<path style=" stroke:none;fill-rule:nonzero;fill:rgb(100%,74.901962%,0%);fill-opacity:1;" d="M 6.871094 3.332031 C 6.714844 3.335938 6.59375 3.382812 6.550781 3.382812 C 5.566406 3.519531 6.195312 4.550781 6.613281 5.832031 C 6.648438 6.160156 5.636719 6.023438 5.414062 5.679688 C 4.65625 3.847656 4.457031 4.054688 4.246094 4 C 4.042969 3.960938 3.339844 4.3125 3.355469 5.050781 C 3.359375 5.265625 3.492188 6.46875 3.496094 6.777344 C 2.609375 8.285156 2.246094 9.777344 3.359375 11.316406 C 4.15625 12.363281 6.070312 12.6875 7.328125 12.664062 C 10 12.667969 11.300781 11.214844 12.832031 10.027344 C 14 9.074219 12.800781 7.867188 12.519531 7.699219 C 10.09375 6.132812 8.058594 6.457031 8.023438 6.210938 C 8.007812 5.921875 8.019531 5.125 7.976562 4.839844 C 7.8125 3.519531 7.207031 3.324219 6.871094 3.332031 Z M 11.933594 3.332031 C 11.4375 3.410156 11.191406 6.222656 11.414062 6.648438 C 12.175781 6.167969 12.03125 4.046875 11.933594 3.332031 Z M 13.890625 3.984375 C 12.320312 6.050781 12.691406 5.667969 12.300781 7.324219 C 12.449219 7.53125 14.484375 4.230469 13.890625 3.984375 Z M 8 7.332031 C 8.367188 7.332031 8.667969 7.632812 8.667969 8 C 8.667969 8.367188 8.367188 8.667969 8 8.667969 C 7.632812 8.667969 7.332031 8.367188 7.332031 8 C 7.332031 7.632812 7.632812 7.332031 8 7.332031 Z M 8 7.332031 "/>
</g>
</svg>
