<svg xmlns="http://www.w3.org/2000/svg" xmlns:xlink="http://www.w3.org/1999/xlink" width="16" height="16" viewBox="0 0 16 16" version="1.1">
<g id="surface1">
<path style=" stroke:none;fill-rule:nonzero;fill:rgb(0%,100%,66.666669%);fill-opacity:1;" d="M 5.019531 2.667969 C 3.710938 2.667969 2.667969 3.710938 2.667969 5.019531 L 2.667969 10.980469 C 2.667969 12.289062 3.710938 13.332031 5.019531 13.332031 L 10.980469 13.332031 C 12.289062 13.332031 13.332031 12.289062 13.332031 10.980469 L 13.332031 5.019531 C 13.332031 3.710938 12.289062 2.667969 10.980469 2.667969 Z M 4 4 L 7.332031 4 L 7.332031 4.3125 C 7.246094 4.320312 7.195312 4.3125 7.085938 4.3125 C 6.722656 4.335938 6.460938 4.382812 6.460938 4.585938 C 6.460938 4.761719 6.515625 4.925781 6.644531 5.105469 L 8.3125 7.6875 L 10.082031 5.085938 C 10.199219 4.898438 10.25 4.730469 10.25 4.625 C 10.25 4.472656 10.125 4.371094 10 4.3125 L 9.332031 4.3125 L 9.332031 4 L 12 4 L 12 4.3125 C 11.703125 4.335938 11.449219 4.355469 11.230469 4.542969 C 11.019531 4.71875 10.726562 5.074219 10.375 5.605469 L 8.667969 8.3125 L 8.667969 11.332031 C 8.808594 11.460938 9.476562 11.679688 10 11.6875 L 10 12 L 6 12 L 6 11.6875 C 6.53125 11.664062 7.207031 11.460938 7.332031 11.332031 L 7.332031 8.292969 L 5.917969 6.125 C 5.304688 5.253906 4.90625 4.734375 4.707031 4.542969 C 4.511719 4.347656 4.308594 4.3125 4 4.3125 Z M 4 4 "/>
</g>
</svg>
