<svg xmlns="http://www.w3.org/2000/svg" xmlns:xlink="http://www.w3.org/1999/xlink" width="16" height="16" viewBox="0 0 16 16" version="1.1">
<g id="surface1">
<path style=" stroke:none;fill-rule:nonzero;fill:rgb(0%,80.000001%,100%);fill-opacity:1;" d="M 7.734375 2.667969 C 6.320312 2.691406 5.222656 3.214844 4.179688 4.25 C 3.054688 5.367188 2.648438 6.394531 2.652344 8.113281 C 2.65625 8.921875 2.742188 9.53125 2.921875 10.042969 C 3.058594 10.015625 3.195312 10 3.332031 10 C 4.4375 10 5.332031 10.894531 5.332031 12 C 5.332031 12.234375 5.289062 12.464844 5.210938 12.683594 L 5.234375 12.695312 C 5.585938 12.859375 6.257812 13.078125 6.726562 13.179688 C 7.355469 13.316406 7.558594 13.355469 8.277344 13.324219 C 9.785156 13.261719 10.804688 12.839844 11.769531 11.878906 C 12.742188 10.910156 13.226562 9.746094 13.320312 8.160156 C 13.488281 5.320312 11.972656 3.320312 9.257812 2.8125 C 8.710938 2.707031 8.207031 2.660156 7.734375 2.667969 Z M 6.355469 4.667969 C 6.535156 4.667969 6.851562 5.046875 7.089844 5.539062 C 7.347656 6.074219 7.34375 6.238281 7.078125 6.414062 C 6.722656 6.648438 6.429688 6.960938 6.429688 7.113281 C 6.429688 7.1875 6.65625 7.488281 6.929688 7.773438 C 7.375 8.242188 7.449219 8.367188 7.652344 9.011719 C 7.78125 9.417969 7.941406 9.769531 8.019531 9.820312 C 8.128906 9.886719 8.265625 9.847656 8.671875 9.621094 L 8.835938 9.53125 C 9.160156 9.351562 9.195312 9.289062 9.417969 9.621094 C 9.542969 9.777344 9.742188 10.101562 9.855469 10.34375 C 10.101562 10.863281 10.058594 10.980469 9.554688 11.183594 C 8.433594 11.632812 7.796875 11.148438 6.46875 8.851562 C 5.355469 6.921875 5.140625 6.191406 5.480469 5.503906 C 5.65625 5.140625 6.15625 4.667969 6.355469 4.667969 Z M 6.355469 4.667969 "/>
<path style=" stroke:none;fill-rule:nonzero;fill:rgb(25.882354%,52.156866%,95.686275%);fill-opacity:1;" d="M 4.667969 12 C 4.667969 12.738281 4.070312 13.332031 3.332031 13.332031 C 2.597656 13.332031 2 12.738281 2 12 C 2 11.261719 2.597656 10.667969 3.332031 10.667969 C 4.070312 10.667969 4.667969 11.261719 4.667969 12 Z M 4.667969 12 "/>
</g>
</svg>
