<svg xmlns="http://www.w3.org/2000/svg" xmlns:xlink="http://www.w3.org/1999/xlink" width="16" height="16" viewBox="0 0 16 16" version="1.1">
<g id="surface1">
<path style=" stroke:none;fill-rule:nonzero;fill:rgb(100%,32.156864%,32.156864%);fill-opacity:1;" d="M 7.394531 4.03125 C 5.023438 4.03125 5.574219 6.195312 4.363281 6.847656 C 4.320312 6.871094 4.296875 6.894531 4.257812 6.917969 C 5.058594 6.441406 6.046875 6.042969 7.09375 5.773438 C 7.980469 5.546875 8.882812 5.417969 9.710938 5.402344 C 9.730469 5.402344 9.753906 5.402344 9.773438 5.402344 C 8.972656 5.171875 8.886719 4.03125 7.394531 4.03125 Z M 9.976562 6 C 9.148438 6.015625 8.246094 6.144531 7.359375 6.375 C 4.4375 7.125 2.351562 8.761719 2.707031 10.027344 C 2.910156 10.753906 3.890625 11.230469 5.351562 11.316406 C 5.351562 11.3125 5.351562 11.304688 5.351562 11.300781 C 5.269531 10.617188 5.707031 10.019531 6.214844 9.617188 C 6.722656 9.214844 7.378906 8.921875 8.113281 8.765625 C 8.851562 8.609375 9.539062 8.617188 10.113281 8.789062 C 10.65625 8.953125 11.164062 9.308594 11.289062 9.917969 C 12.753906 9.097656 13.515625 8.105469 13.296875 7.304688 C 13.0625 6.464844 11.789062 5.964844 9.976562 6 Z M 9.109375 9.332031 C 8.8125 9.328125 8.5 9.363281 8.191406 9.429688 C 6.902344 9.703125 5.925781 10.476562 6.003906 11.160156 C 6.082031 11.84375 7.191406 12.179688 8.476562 11.90625 C 9.761719 11.632812 10.742188 10.855469 10.660156 10.171875 C 10.605469 9.675781 9.992188 9.34375 9.109375 9.332031 Z M 9.109375 9.332031 "/>
</g>
</svg>
