<svg xmlns="http://www.w3.org/2000/svg" xmlns:xlink="http://www.w3.org/1999/xlink" width="16" height="16" viewBox="0 0 16 16" version="1.1">
<defs>
<filter id="alpha" filterUnits="objectBoundingBox" x="0%" y="0%" width="100%" height="100%">
  <feColorMatrix type="matrix" in="SourceGraphic" values="0 0 0 0 1 0 0 0 0 1 0 0 0 0 1 0 0 0 1 0"/>
</filter>
<mask id="mask0">
  <g filter="url(#alpha)">
<rect x="0" y="0" width="16" height="16" style="fill:rgb(0%,0%,0%);fill-opacity:0.3;stroke:none;"/>
  </g>
</mask>
<clipPath id="clip1">
  <rect x="0" y="0" width="16" height="16"/>
</clipPath>
<g id="surface5" clip-path="url(#clip1)">
<path style=" stroke:none;fill-rule:nonzero;fill:rgb(100%,30.980393%,30.980393%);fill-opacity:1;" d="M 8 3.332031 C 8 3.332031 5.480469 3.332031 3.800781 3.460938 C 3.566406 3.488281 3.054688 3.492188 2.597656 3.988281 C 2.238281 4.363281 2.121094 5.222656 2.121094 5.222656 C 2.121094 5.222656 2.003906 6.230469 2.003906 7.234375 L 2 8.761719 C 2 9.765625 2.121094 10.773438 2.121094 10.773438 C 2.121094 10.773438 2.238281 11.632812 2.597656 12.007812 C 3.050781 12.503906 3.652344 12.488281 3.917969 12.542969 C 4.878906 12.636719 8 12.667969 8 12.667969 C 8 12.667969 10.519531 12.660156 12.199219 12.535156 C 12.433594 12.507812 12.945312 12.503906 13.402344 12.007812 C 13.761719 11.632812 13.878906 10.773438 13.878906 10.773438 C 13.878906 10.773438 13.996094 9.765625 13.996094 8.761719 L 14 7.234375 C 14.003906 6.226562 13.878906 5.21875 13.878906 5.21875 C 13.878906 5.21875 13.761719 4.363281 13.402344 3.988281 C 12.949219 3.492188 12.433594 3.488281 12.199219 3.460938 C 10.523438 3.332031 8.003906 3.332031 8.003906 3.332031 Z M 6 5.332031 L 10 8.007812 L 6 10.667969 Z M 6 5.332031 "/>
</g>
</defs>
<g id="surface1">
<use xlink:href="#surface5" mask="url(#mask0)"/>
</g>
</svg>
