<svg xmlns="http://www.w3.org/2000/svg" xmlns:xlink="http://www.w3.org/1999/xlink" width="16" height="16" viewBox="0 0 16 16" version="1.1">
<g id="surface1">
<path style=" stroke:none;fill-rule:nonzero;fill:rgb(67.058825%,40.000001%,100%);fill-opacity:1;" d="M 8 3.332031 C 8 3.332031 5.480469 3.332031 3.800781 3.460938 C 3.566406 3.488281 3.054688 3.492188 2.597656 3.988281 C 2.238281 4.363281 2.121094 5.222656 2.121094 5.222656 C 2.121094 5.222656 2.003906 6.230469 2.003906 7.234375 L 2 8.761719 C 2 9.765625 2.121094 10.773438 2.121094 10.773438 C 2.121094 10.773438 2.238281 11.632812 2.597656 12.007812 C 3.050781 12.503906 3.652344 12.488281 3.917969 12.542969 C 4.878906 12.636719 8 12.667969 8 12.667969 C 8 12.667969 8.804688 12.65625 9.605469 12.640625 C 9.429688 12.238281 9.332031 11.796875 9.332031 11.332031 C 9.332031 9.5 10.832031 8 12.667969 8 C 13.140625 8 13.589844 8.101562 14 8.28125 L 14 7.234375 C 14 6.226562 13.878906 5.222656 13.878906 5.222656 C 13.878906 5.222656 13.761719 4.363281 13.402344 3.988281 C 12.949219 3.492188 12.4375 3.488281 12.199219 3.460938 C 10.523438 3.332031 8.003906 3.332031 8.003906 3.332031 Z M 6 5.332031 L 10 8.007812 L 6 10.667969 Z M 6 5.332031 "/>
<path style=" stroke:none;fill-rule:nonzero;fill:rgb(67.058825%,40.000001%,100%);fill-opacity:1;" d="M 12.667969 8.667969 C 11.195312 8.667969 10 9.859375 10 11.332031 C 10 12.804688 11.195312 14 12.667969 14 C 14.140625 14 15.332031 12.804688 15.332031 11.332031 C 15.332031 9.859375 14.140625 8.667969 12.667969 8.667969 Z M 12.667969 9.332031 C 13.769531 9.332031 14.667969 10.230469 14.667969 11.332031 L 14 11.332031 C 14 10.597656 13.402344 10 12.667969 10 Z M 10.667969 11.332031 L 11.332031 11.332031 C 11.332031 12.070312 11.929688 12.667969 12.667969 12.667969 L 12.667969 13.332031 C 11.5625 13.332031 10.667969 12.4375 10.667969 11.332031 Z M 10.667969 11.332031 "/>
</g>
</svg>
