<svg xmlns="http://www.w3.org/2000/svg" xmlns:xlink="http://www.w3.org/1999/xlink" width="16" height="16" viewBox="0 0 16 16" version="1.1">
<g id="surface1">
<path style=" stroke:none;fill-rule:nonzero;fill:rgb(100%,74.901962%,0%);fill-opacity:1;" d="M 8 3.332031 C 8 3.332031 5.480469 3.332031 3.800781 3.457031 C 3.566406 3.488281 3.054688 3.492188 2.597656 3.984375 C 2.238281 4.363281 2.121094 5.222656 2.121094 5.222656 C 2.121094 5.222656 2.003906 6.226562 2.003906 7.234375 L 2 8.761719 C 2 9.765625 2.121094 10.773438 2.121094 10.773438 C 2.121094 10.773438 2.238281 11.632812 2.597656 12.007812 C 3.050781 12.503906 3.652344 12.488281 3.917969 12.542969 C 4.878906 12.636719 8 12.664062 8 12.664062 C 8 12.664062 8.804688 12.65625 9.605469 12.640625 C 9.429688 12.238281 9.332031 11.796875 9.332031 11.332031 C 9.332031 9.5 10.832031 8 12.667969 8 C 13.140625 8 13.589844 8.101562 14 8.28125 L 14 7.234375 C 14 6.226562 13.878906 5.21875 13.878906 5.21875 C 13.878906 5.21875 13.761719 4.363281 13.402344 3.984375 C 12.949219 3.492188 12.4375 3.488281 12.199219 3.457031 C 10.523438 3.332031 8.003906 3.332031 8.003906 3.332031 Z M 6 5.332031 L 10 8.007812 L 6 10.664062 Z M 6 5.332031 "/>
<path style=" stroke:none;fill-rule:nonzero;fill:rgb(100%,74.901962%,0%);fill-opacity:1;" d="M 15.242188 10.644531 C 14.863281 9.21875 13.398438 8.375 11.976562 8.757812 C 10.554688 9.136719 9.710938 10.601562 10.089844 12.023438 C 10.472656 13.445312 11.933594 14.289062 13.355469 13.910156 C 14.78125 13.527344 15.625 12.066406 15.242188 10.644531 Z M 14.597656 10.816406 C 14.882812 11.882812 14.25 12.980469 13.183594 13.265625 L 13.011719 12.621094 C 13.722656 12.429688 14.144531 11.699219 13.953125 10.988281 Z M 12.148438 9.402344 L 12.320312 10.046875 C 11.609375 10.234375 11.1875 10.964844 11.378906 11.679688 L 10.734375 11.851562 C 10.449219 10.785156 11.082031 9.6875 12.148438 9.402344 Z M 12.148438 9.402344 "/>
</g>
</svg>
