<svg xmlns="http://www.w3.org/2000/svg" xmlns:xlink="http://www.w3.org/1999/xlink" width="16" height="16" viewBox="0 0 16 16" version="1.1">
<g id="surface1">
<path style=" stroke:none;fill-rule:nonzero;fill:rgb(0%,80.000001%,100%);fill-opacity:1;" d="M 8 3.332031 C 8 3.332031 5.480469 3.332031 3.800781 3.460938 C 3.566406 3.488281 3.054688 3.492188 2.597656 3.988281 C 2.238281 4.363281 2.121094 5.222656 2.121094 5.222656 C 2.121094 5.222656 2.003906 6.230469 2.003906 7.234375 L 2 8.761719 C 2 9.769531 2.121094 10.773438 2.121094 10.773438 C 2.121094 10.773438 2.238281 11.632812 2.597656 12.007812 C 3.050781 12.503906 3.652344 12.488281 3.917969 12.542969 C 4.878906 12.636719 8 12.667969 8 12.667969 C 8 12.667969 8.804688 12.65625 9.605469 12.640625 C 9.429688 12.238281 9.332031 11.796875 9.332031 11.332031 C 9.332031 9.5 10.832031 8 12.667969 8 C 13.140625 8 13.589844 8.101562 14 8.28125 L 14 7.234375 C 14 6.226562 13.878906 5.222656 13.878906 5.222656 C 13.878906 5.222656 13.761719 4.363281 13.402344 3.988281 C 12.949219 3.492188 12.4375 3.488281 12.199219 3.460938 C 10.523438 3.332031 8.003906 3.332031 8.003906 3.332031 Z M 6 5.332031 L 10 8.007812 L 6 10.667969 Z M 6 5.332031 "/>
<path style=" stroke:none;fill-rule:nonzero;fill:rgb(0%,80.000001%,100%);fill-opacity:1;" d="M 14.550781 9.398438 C 13.511719 8.359375 11.820312 8.359375 10.78125 9.398438 C 9.738281 10.441406 9.738281 12.128906 10.78125 13.171875 C 11.820312 14.210938 13.511719 14.210938 14.550781 13.171875 C 15.59375 12.128906 15.59375 10.441406 14.550781 9.398438 Z M 14.082031 9.871094 C 14.863281 10.652344 14.863281 11.917969 14.082031 12.699219 L 13.609375 12.226562 C 14.128906 11.707031 14.128906 10.863281 13.609375 10.34375 Z M 11.253906 9.871094 L 11.722656 10.34375 C 11.203125 10.863281 11.203125 11.707031 11.722656 12.226562 L 11.253906 12.699219 C 10.472656 11.917969 10.472656 10.652344 11.253906 9.871094 Z M 11.253906 9.871094 "/>
</g>
</svg>
