<svg xmlns="http://www.w3.org/2000/svg" xmlns:xlink="http://www.w3.org/1999/xlink" width="16" height="16" viewBox="0 0 16 16" version="1.1">
<defs>
<filter id="alpha" filterUnits="objectBoundingBox" x="0%" y="0%" width="100%" height="100%">
  <feColorMatrix type="matrix" in="SourceGraphic" values="0 0 0 0 1 0 0 0 0 1 0 0 0 0 1 0 0 0 1 0"/>
</filter>
<mask id="mask0">
  <g filter="url(#alpha)">
<rect x="0" y="0" width="16" height="16" style="fill:rgb(0%,0%,0%);fill-opacity:0.3;stroke:none;"/>
  </g>
</mask>
<clipPath id="clip1">
  <rect x="0" y="0" width="16" height="16"/>
</clipPath>
<g id="surface5" clip-path="url(#clip1)">
<path style=" stroke:none;fill-rule:nonzero;fill:rgb(96.862745%,0%,100%);fill-opacity:1;" d="M 8 2.667969 C 5.046875 2.667969 2.667969 5.046875 2.667969 8 C 2.667969 8.558594 2.753906 9.09375 2.910156 9.601562 C 2.914062 9.589844 2.914062 9.578125 2.917969 9.566406 C 3.015625 9.1875 3.199219 8.796875 3.53125 8.488281 C 3.925781 8.125 4.378906 8.027344 4.851562 8.019531 C 4.929688 7.855469 4.992188 7.679688 5.148438 7.566406 C 5.214844 7.515625 5.285156 7.535156 5.355469 7.503906 C 5.363281 7.488281 5.359375 7.488281 5.371094 7.46875 C 5.558594 7.109375 5.804688 6.839844 6.152344 6.449219 C 6.621094 5.917969 7.355469 5.425781 8.03125 4.984375 C 8.710938 4.542969 9.238281 4.234375 9.453125 4.125 C 9.386719 4.160156 9.664062 4.003906 9.929688 3.855469 C 10.152344 3.730469 10.445312 3.574219 10.730469 3.421875 C 9.933594 2.945312 9 2.667969 8 2.667969 Z M 12.910156 5.910156 C 12.714844 6.171875 12.519531 6.433594 12.359375 6.632812 C 12.175781 6.867188 12.003906 7.089844 12.027344 7.058594 L 12.027344 7.0625 C 11.882812 7.253906 11.492188 7.71875 10.949219 8.3125 C 10.40625 8.90625 9.800781 9.542969 9.199219 9.921875 C 8.800781 10.171875 8.5 10.25 8.179688 10.371094 C 8.132812 10.65625 8.007812 10.921875 7.757812 11.105469 C 7.605469 11.21875 7.417969 11.207031 7.242188 11.234375 C 7.15625 11.535156 7.011719 11.839844 6.75 12.105469 L 6.738281 12.121094 L 6.722656 12.132812 C 6.363281 12.464844 5.921875 12.613281 5.507812 12.660156 L 5.472656 12.664062 L 5.433594 12.664062 C 5.425781 12.664062 5.417969 12.664062 5.40625 12.664062 C 6.175781 13.089844 7.058594 13.332031 8 13.332031 C 10.957031 13.332031 13.332031 10.953125 13.332031 8 C 13.332031 7.257812 13.183594 6.550781 12.910156 5.910156 Z M 12.910156 5.910156 "/>
</g>
</defs>
<g id="surface1">
<use xlink:href="#surface5" mask="url(#mask0)"/>
<path style=" stroke:none;fill-rule:evenodd;fill:rgb(96.862745%,0%,100%);fill-opacity:1;" d="M 12.78125 3.339844 C 12.578125 3.316406 12.382812 3.394531 12.191406 3.460938 C 11.898438 3.578125 11.546875 3.746094 11.203125 3.925781 C 10.859375 4.101562 10.523438 4.285156 10.257812 4.433594 C 9.996094 4.582031 9.796875 4.699219 9.761719 4.714844 C 9.644531 4.777344 9.058594 5.113281 8.394531 5.542969 C 7.734375 5.972656 7.011719 6.484375 6.648438 6.894531 C 6.472656 7.09375 6.332031 7.253906 6.214844 7.402344 C 6.441406 7.472656 6.644531 7.613281 6.792969 7.8125 L 8.007812 9.457031 C 8.074219 9.550781 8.121094 9.648438 8.15625 9.75 C 8.351562 9.652344 8.5625 9.535156 8.84375 9.355469 C 9.3125 9.0625 9.929688 8.441406 10.457031 7.863281 C 10.988281 7.285156 11.414062 6.765625 11.492188 6.664062 C 11.519531 6.628906 11.65625 6.457031 11.835938 6.222656 C 12.019531 5.992188 12.246094 5.695312 12.46875 5.386719 C 12.695312 5.082031 12.914062 4.769531 13.074219 4.5 C 13.152344 4.367188 13.21875 4.246094 13.265625 4.140625 C 13.3125 4.03125 13.34375 3.945312 13.332031 3.851562 C 13.308594 3.691406 13.230469 3.597656 13.183594 3.550781 C 13.183594 3.546875 13.175781 3.542969 13.175781 3.542969 C 13.121094 3.472656 13.058594 3.433594 12.992188 3.398438 C 12.921875 3.367188 12.851562 3.347656 12.78125 3.339844 Z M 5.921875 8.007812 C 5.792969 7.988281 5.660156 8.019531 5.542969 8.101562 C 5.316406 8.269531 5.269531 8.585938 5.4375 8.816406 L 6.648438 10.460938 C 6.816406 10.6875 7.136719 10.734375 7.363281 10.566406 C 7.589844 10.398438 7.636719 10.082031 7.46875 9.855469 L 6.257812 8.210938 C 6.175781 8.097656 6.054688 8.027344 5.921875 8.007812 Z M 4.691406 8.6875 C 4.414062 8.730469 4.144531 8.832031 3.984375 8.980469 C 3.769531 9.179688 3.636719 9.449219 3.5625 9.730469 C 3.445312 10.191406 3.4375 10.859375 3.34375 11.347656 C 3.300781 11.59375 3.09375 11.972656 2.710938 12.464844 C 2.613281 12.628906 2.710938 12.652344 2.710938 12.652344 C 2.765625 12.691406 2.867188 12.652344 2.914062 12.628906 C 3.804688 11.898438 4.390625 12 5.433594 11.996094 C 5.738281 11.960938 6.042969 11.851562 6.273438 11.640625 C 6.425781 11.488281 6.507812 11.351562 6.566406 11.21875 C 6.390625 11.136719 6.230469 11.019531 6.109375 10.855469 L 4.898438 9.210938 C 4.78125 9.054688 4.71875 8.871094 4.691406 8.6875 Z M 4.691406 8.6875 "/>
</g>
</svg>
