<?xml version="1.0" encoding="UTF-8" standalone="no"?>
<svg
   width="22"
   height="22"
   viewBox="0 0 22 22"
   fill="none"
   version="1.1"
   id="svg1"
   sodipodi:docname="kate-symbolic.svg"
   inkscape:version="1.3.2 (091e20ef0f, 2023-11-25)"
   xmlns:inkscape="http://www.inkscape.org/namespaces/inkscape"
   xmlns:sodipodi="http://sodipodi.sourceforge.net/DTD/sodipodi-0.dtd"
   xmlns="http://www.w3.org/2000/svg"
   xmlns:svg="http://www.w3.org/2000/svg">
  <defs
     id="defs1" />
  <sodipodi:namedview
     id="namedview1"
     pagecolor="#ffffff"
     bordercolor="#999999"
     borderopacity="1"
     inkscape:showpageshadow="2"
     inkscape:pageopacity="0"
     inkscape:pagecheckerboard="0"
     inkscape:deskcolor="#d1d1d1"
     inkscape:zoom="16.83798"
     inkscape:cx="11.402793"
     inkscape:cy="1.959855"
     inkscape:window-width="1920"
     inkscape:window-height="994"
     inkscape:window-x="0"
     inkscape:window-y="0"
     inkscape:window-maximized="1"
     inkscape:current-layer="svg1" />
  <style
     type="text/css"
     id="current-color-scheme">.ColorScheme-Text { color: #fcfcfc; } </style>
  <g
     id="22-22-kate">
    <rect
       style="opacity:0.00100002;fill:#d3dae3;fill-opacity:1"
       width="22"
       height="22"
       x="0"
       y="0"
       id="rect2" />
    <path
       id="path14-8"
       d="M 10.212165,3.0035453 C 9.065086,3.0422078 7.7705821,3.4045769 6.5126729,4.3319935 5.2067287,5.2948346 4.6334525,5.5578573 4,5.8779494 c 0.5643955,0.04384 3.9413254,-0.4466917 4.5387945,1.5721829 0.027821,-0.00843 0.1460627,-0.043119 0.1853631,-0.05503 -2.4290924,0.6880632 -3.7841184,2.2702225 -2.7572154,4.4674717 1.0305719,2.205241 2.8112771,2.257955 5.0098938,3.754757 1.716421,1.168534 2.13634,1.763018 3.243849,3.382668 -0.230315,-2.237953 -1.294417,-5.122493 -1.791802,-6.39334 1.920276,1.168986 2.89382,1.430847 5.571117,1.716271 -3.474249,-2.517071 -4.133466,-3.009517 -6.122114,-4.7347622 -1.33416,0.06851 -1.187868,0.05622 -1.974592,0.102206 1.035723,1.4875472 1.445681,3.6735122 -0.447962,4.0744852 C 7.6828362,14.140158 5.9726975,12.58191 6.4586387,10.914 6.9862914,9.1028868 9.2645,9.4516868 11.653946,9.1374638 14.0433,8.8232938 16.226104,6.4379052 17.539204,4.6725713 15.664263,5.323662 13.258922,6.0666222 10.608784,6.8395033 10.072032,5.7728332 9.3852,3.7574623 13.026179,3.6166613 12.359253,3.2483547 11.359362,2.9648731 10.212279,3.0035326 Z"
       style="fill:#d3dae3;fill-opacity:1;stroke-width:0.88109" />
  </g>
</svg>
