<svg xmlns="http://www.w3.org/2000/svg" xmlns:xlink="http://www.w3.org/1999/xlink" width="64px" height="64px" viewBox="0 0 64 64" version="1.1">
<defs>
<linearGradient id="linear0" gradientUnits="userSpaceOnUse" x1="0" y1="0" x2="0" y2="1" gradientTransform="matrix(55.351351,0,0,55.351351,4.324324,4.324324)">
<stop offset="0" style="stop-color:#00b7ff;stop-opacity:1;"/>
<stop offset="0.5" style="stop-color:#dddddd;stop-opacity:1;"/>
<stop offset="1" style="stop-color:#ee42d9;stop-opacity:1;"/>
</linearGradient>
</defs>
<g id="surface1">
<path style=" stroke:none;fill-rule:nonzero;fill:url(#linear0);" d="M 11.703125 4.324219 C 7.679688 4.324219 4.324219 7.679688 4.324219 11.703125 L 4.324219 52.296875 C 4.324219 56.320312 7.679688 59.675781 11.703125 59.675781 L 39.378906 59.675781 L 44.914062 55.988281 L 8.011719 55.988281 L 8.011719 41.226562 L 22.773438 41.226562 L 22.773438 55.988281 L 26.460938 55.988281 L 26.460938 41.226562 L 55.988281 41.226562 L 55.988281 37.539062 L 26.460938 37.539062 L 26.460938 26.460938 L 37.539062 26.460938 L 37.539062 55.988281 L 41.226562 55.988281 L 41.226562 26.460938 L 55.988281 26.460938 L 55.988281 22.773438 L 41.226562 22.773438 L 41.226562 8.011719 L 55.988281 8.011719 L 55.988281 52.296875 L 59.675781 39.496094 L 59.675781 11.703125 C 59.675781 7.679688 56.320312 4.324219 52.296875 4.324219 Z M 8.011719 8.011719 L 22.773438 8.011719 L 22.773438 22.773438 L 8.011719 22.773438 Z M 26.460938 8.011719 L 37.539062 8.011719 L 37.539062 22.773438 L 26.460938 22.773438 Z M 8.011719 26.460938 L 22.773438 26.460938 L 22.773438 37.539062 L 8.011719 37.539062 Z M 59.675781 39.496094 L 55.988281 52.296875 L 55.988281 55.988281 L 44.914062 55.988281 L 39.378906 59.675781 L 52.296875 59.675781 C 56.320312 59.675781 59.675781 56.320312 59.675781 52.296875 Z M 59.675781 39.496094 "/>
</g>
</svg>
