<svg xmlns="http://www.w3.org/2000/svg" xmlns:xlink="http://www.w3.org/1999/xlink" width="64px" height="64px" viewBox="0 0 64 64" version="1.1">
<defs>
<linearGradient id="linear0" gradientUnits="userSpaceOnUse" x1="0" y1="0" x2="0" y2="1" gradientTransform="matrix(34.567568,0,0,55.351351,14.716216,4.324324)">
<stop offset="0" style="stop-color:#00fff2;stop-opacity:1;"/>
<stop offset="0.5" style="stop-color:#dddddd;stop-opacity:1;"/>
<stop offset="1" style="stop-color:#0062ff;stop-opacity:1;"/>
</linearGradient>
</defs>
<g id="surface1">
<path style=" stroke:none;fill-rule:nonzero;fill:url(#linear0);" d="M 32 4.324219 C 22.589844 4.324219 14.714844 12.199219 14.714844 21.609375 C 14.714844 27.554688 15.917969 31.105469 16.1875 31.976562 L 18.171875 31.976562 C 22.351562 31.976562 26.011719 34.726562 28.363281 39.417969 C 30.367188 43.441406 31.960938 59.664062 31.90625 59.664062 C 32.09375 59.691406 32.414062 59.664062 32.476562 59.664062 C 33.199219 48.941406 34.253906 42.191406 35.636719 39.417969 C 37.988281 34.726562 41.648438 31.976562 45.828125 31.976562 L 47.8125 31.976562 C 48.082031 31.105469 49.285156 27.554688 49.285156 21.609375 C 49.285156 12.199219 41.410156 4.324219 32 4.324219 Z M 32 4.324219 "/>
</g>
</svg>
