<svg xmlns="http://www.w3.org/2000/svg" xmlns:xlink="http://www.w3.org/1999/xlink" width="64px" height="64px" viewBox="0 0 64 64" version="1.1">
<defs>
<linearGradient id="linear0" gradientUnits="userSpaceOnUse" x1="0" y1="0" x2="0" y2="1" gradientTransform="matrix(50.144145,0,0,48.432432,6.927927,7.783784)">
<stop offset="0" style="stop-color:#ffae00;stop-opacity:1;"/>
<stop offset="0.5" style="stop-color:#dddddd;stop-opacity:1;"/>
<stop offset="1" style="stop-color:#6600ff;stop-opacity:1;"/>
</linearGradient>
</defs>
<g id="surface1">
<path style=" stroke:none;fill-rule:evenodd;fill:url(#linear0);" d="M 34.28125 23.164062 C 34.28125 16.878906 39.386719 11.773438 45.675781 11.773438 C 51.960938 11.773438 57.070312 16.878906 57.070312 23.164062 C 57.070312 29.460938 51.960938 34.5625 45.675781 34.5625 C 39.386719 34.5625 34.28125 29.460938 34.28125 23.164062 Z M 17.613281 44.820312 C 17.613281 38.53125 22.714844 33.421875 29.011719 33.421875 C 35.296875 33.421875 40.402344 38.53125 40.402344 44.820312 C 40.402344 51.109375 35.296875 56.214844 29.011719 56.214844 C 22.714844 56.214844 17.613281 51.109375 17.613281 44.820312 Z M 6.929688 19.179688 C 6.929688 12.890625 12.039062 7.785156 18.324219 7.785156 C 24.613281 7.785156 29.71875 12.890625 29.71875 19.179688 C 29.71875 25.46875 24.613281 30.578125 18.324219 30.578125 C 12.039062 30.578125 6.929688 25.46875 6.929688 19.179688 Z M 6.929688 19.179688 "/>
</g>
</svg>
