<svg xmlns="http://www.w3.org/2000/svg" xmlns:xlink="http://www.w3.org/1999/xlink" width="64px" height="64px" viewBox="0 0 64 64" version="1.1">
<defs>
<linearGradient id="linear0" gradientUnits="userSpaceOnUse" x1="0" y1="0" x2="0" y2="1" gradientTransform="matrix(48.432432,0,0,48.432432,7.783784,7.783784)">
<stop offset="0" style="stop-color:#00a2ff;stop-opacity:1;"/>
<stop offset="0.5" style="stop-color:#dddddd;stop-opacity:1;"/>
<stop offset="1" style="stop-color:#00ffae;stop-opacity:1;"/>
</linearGradient>
</defs>
<g id="surface1">
<path style=" stroke:none;fill-rule:nonzero;fill:url(#linear0);" d="M 41.082031 7.785156 C 38.589844 7.785156 36.039062 11.226562 36.039062 17.875 C 36.039062 23.929688 38.054688 27.960938 38.054688 27.960938 C 38.054688 27.960938 54.199219 25.945312 54.199219 17.875 C 54.199219 11.820312 48.511719 6.902344 46.125 11.820312 C 45.226562 9.117188 43.488281 7.785156 41.082031 7.785156 Z M 17.875 9.800781 C 11.820312 9.800781 6.902344 15.488281 11.820312 17.875 C 9.117188 18.773438 7.785156 20.511719 7.785156 22.917969 C 7.785156 25.410156 11.226562 27.960938 17.875 27.960938 C 23.929688 27.960938 27.960938 25.945312 27.960938 25.945312 C 27.960938 25.945312 25.945312 9.800781 17.875 9.800781 Z M 25.945312 36.039062 C 25.945312 36.039062 9.800781 38.054688 9.800781 46.125 C 9.800781 52.179688 15.488281 57.097656 17.875 52.179688 C 18.773438 54.882812 20.511719 56.214844 22.917969 56.214844 C 25.410156 56.214844 27.960938 52.773438 27.960938 46.125 C 27.960938 40.070312 25.945312 36.039062 25.945312 36.039062 Z M 46.125 36.039062 C 40.070312 36.039062 36.039062 38.054688 36.039062 38.054688 C 36.039062 38.054688 38.054688 54.199219 46.125 54.199219 C 52.179688 54.199219 57.097656 48.511719 52.179688 46.125 C 54.882812 45.226562 56.214844 43.488281 56.214844 41.082031 C 56.214844 38.589844 52.773438 36.039062 46.125 36.039062 Z M 46.125 36.039062 "/>
</g>
</svg>
