<svg xmlns="http://www.w3.org/2000/svg" xmlns:xlink="http://www.w3.org/1999/xlink" width="64px" height="64px" viewBox="0 0 64 64" version="1.1">
<defs>
<linearGradient id="linear0" gradientUnits="userSpaceOnUse" x1="0" y1="0" x2="0" y2="1" gradientTransform="matrix(55.351351,0,0,52.576578,4.324324,5.711712)">
<stop offset="0" style="stop-color:#ffae00;stop-opacity:1;"/>
<stop offset="0.5" style="stop-color:#dddddd;stop-opacity:1;"/>
<stop offset="1" style="stop-color:#bf1d1d;stop-opacity:1;"/>
</linearGradient>
</defs>
<g id="surface1">
<path style=" stroke:none;fill-rule:evenodd;fill:url(#linear0);" d="M 8.472656 32.707031 L 8.472656 16.949219 L 55.527344 16.949219 L 55.527344 29.757812 C 53.699219 27.136719 51.660156 25.835938 49.40625 25.835938 C 43.96875 25.835938 44.234375 34.71875 38.796875 34.632812 C 35.351562 34.570312 35.011719 28.792969 31.457031 28.828125 C 28.5625 28.855469 27.46875 33.085938 24.835938 32.996094 C 21.109375 32.867188 19.085938 28.984375 15.410156 29.28125 C 13.46875 29.441406 11.152344 30.582031 8.472656 32.707031 Z M 33.375 8.476562 L 33.375 5.710938 L 30.605469 5.710938 L 30.605469 8.476562 L 4.324219 8.476562 L 4.324219 11.242188 L 5.707031 11.242188 L 5.707031 44.109375 L 4.324219 44.109375 L 4.324219 46.875 L 29.234375 46.875 L 29.234375 49.410156 L 22.71875 55.921875 C 22.375 56.269531 22.234375 56.785156 22.363281 57.261719 C 22.488281 57.738281 22.863281 58.113281 23.339844 58.238281 C 23.820312 58.367188 24.328125 58.234375 24.679688 57.882812 L 29.234375 53.328125 L 29.234375 55.523438 C 29.234375 56.28125 29.855469 56.902344 30.617188 56.902344 C 31.378906 56.902344 32 56.28125 32 55.523438 L 32 53.328125 L 36.554688 57.882812 C 37.09375 58.421875 37.972656 58.421875 38.511719 57.882812 C 39.054688 57.339844 39.054688 56.460938 38.511719 55.921875 L 32 49.410156 L 32 46.875 L 59.675781 46.875 L 59.675781 44.109375 L 58.292969 44.109375 L 58.292969 11.242188 L 59.675781 11.242188 L 59.675781 8.476562 Z M 19.765625 23.660156 C 19.765625 21.460938 21.550781 19.671875 23.753906 19.671875 C 25.957031 19.671875 27.738281 21.460938 27.738281 23.660156 C 27.738281 25.863281 25.957031 27.648438 23.753906 27.648438 C 21.550781 27.648438 19.765625 25.863281 19.765625 23.660156 Z M 19.765625 23.660156 "/>
</g>
</svg>
