<svg xmlns="http://www.w3.org/2000/svg" xmlns:xlink="http://www.w3.org/1999/xlink" width="64px" height="64px" viewBox="0 0 64 64" version="1.1">
<defs>
<linearGradient id="linear0" gradientUnits="userSpaceOnUse" x1="0" y1="0" x2="0" y2="1" gradientTransform="matrix(48.432432,0,0,31.045044,7.783784,16.477476)">
<stop offset="0" style="stop-color:#00b7ff;stop-opacity:1;"/>
<stop offset="0.5" style="stop-color:#dddddd;stop-opacity:1;"/>
<stop offset="1" style="stop-color:#ee42d9;stop-opacity:1;"/>
</linearGradient>
</defs>
<g id="surface1">
<path style=" stroke:none;fill-rule:nonzero;fill:url(#linear0);" d="M 15.273438 47.523438 L 15.042969 47.511719 C 10.996094 47.4375 7.761719 44.121094 7.785156 40.070312 C 7.773438 37.027344 9.632812 34.289062 12.460938 33.160156 L 12.917969 32.976562 L 12.839844 32.488281 C 12.785156 32.125 12.757812 31.753906 12.753906 31.382812 C 12.753906 27.269531 16.09375 23.929688 20.203125 23.929688 C 20.839844 23.929688 21.503906 24.011719 22.152344 24.191406 L 22.78125 24.363281 L 22.917969 23.734375 C 23.863281 19.484375 27.644531 16.460938 32 16.476562 C 35.351562 16.476562 38.460938 18.296875 40.109375 21.21875 L 40.3125 21.585938 L 40.730469 21.53125 C 41.125 21.476562 41.527344 21.445312 41.9375 21.445312 C 46.648438 21.445312 50.613281 24.96875 51.175781 29.644531 L 51.210938 29.949219 L 51.488281 30.109375 C 54.40625 31.765625 56.207031 34.855469 56.214844 38.210938 C 56.214844 43.347656 52.039062 47.523438 46.90625 47.523438 Z M 15.273438 47.523438 "/>
</g>
</svg>
