<svg xmlns="http://www.w3.org/2000/svg" xmlns:xlink="http://www.w3.org/1999/xlink" width="64px" height="64px" viewBox="0 0 64 64" version="1.1">
<defs>
<linearGradient id="linear0" gradientUnits="userSpaceOnUse" x1="0" y1="0" x2="0" y2="1" gradientTransform="matrix(48.954956,0,0,48.432432,7.522523,7.783784)">
<stop offset="0" style="stop-color:#00fff2;stop-opacity:1;"/>
<stop offset="0.5" style="stop-color:#dddddd;stop-opacity:1;"/>
<stop offset="1" style="stop-color:#0062ff;stop-opacity:1;"/>
</linearGradient>
</defs>
<g id="surface1">
<path style=" stroke:none;fill-rule:evenodd;fill:url(#linear0);" d="M 7.523438 32 C 7.523438 18.636719 18.488281 7.785156 32 7.785156 C 45.511719 7.785156 56.476562 18.636719 56.476562 32 C 56.476562 45.363281 45.511719 56.214844 32 56.214844 C 18.488281 56.214844 7.523438 45.363281 7.523438 32 Z M 13.40625 32 C 13.40625 21.847656 21.734375 13.609375 32 13.609375 C 42.265625 13.609375 50.59375 21.847656 50.59375 32 C 50.59375 42.152344 42.265625 50.390625 32 50.390625 C 21.734375 50.390625 13.40625 42.152344 13.40625 32 Z M 31.960938 47.308594 C 28.824219 47.308594 26.300781 46.460938 24.390625 44.789062 C 22.484375 43.109375 21.523438 40.921875 21.523438 38.230469 C 21.523438 36.582031 21.988281 35.125 22.910156 33.863281 C 23.828125 32.597656 25.085938 31.636719 26.679688 30.972656 C 25.527344 30.421875 24.578125 29.636719 23.835938 28.605469 C 23.09375 27.570312 22.71875 26.382812 22.71875 25.039062 C 22.71875 22.8125 23.566406 20.988281 25.257812 19.570312 C 26.945312 18.160156 29.179688 17.449219 31.960938 17.449219 C 34.761719 17.449219 37.015625 18.160156 38.71875 19.570312 C 40.429688 20.988281 41.28125 22.8125 41.28125 25.039062 C 41.28125 26.382812 40.902344 27.570312 40.144531 28.605469 C 39.386719 29.636719 38.417969 30.410156 37.238281 30.933594 C 38.835938 31.59375 40.105469 32.566406 41.050781 33.863281 C 42 35.152344 42.472656 36.609375 42.472656 38.230469 C 42.472656 40.921875 41.511719 43.109375 39.585938 44.789062 C 37.664062 46.460938 35.121094 47.308594 31.960938 47.308594 Z M 28.785156 27.941406 C 29.582031 28.617188 30.636719 28.949219 31.960938 28.949219 C 33.28125 28.949219 34.351562 28.617188 35.175781 27.941406 C 36 27.269531 36.410156 26.421875 36.410156 25.40625 C 36.410156 24.335938 36 23.46875 35.175781 22.808594 C 34.351562 22.148438 33.28125 21.820312 31.960938 21.820312 C 30.636719 21.820312 29.582031 22.148438 28.785156 22.808594 C 27.988281 23.46875 27.589844 24.335938 27.589844 25.40625 C 27.589844 26.421875 27.988281 27.269531 28.785156 27.941406 Z M 27.984375 41.550781 C 29.011719 42.445312 30.335938 42.890625 31.960938 42.890625 C 33.582031 42.890625 34.914062 42.445312 35.960938 41.550781 C 37.003906 40.660156 37.523438 39.496094 37.523438 38.066406 C 37.523438 36.691406 37.003906 35.550781 35.960938 34.644531 C 34.914062 33.738281 33.582031 33.285156 31.960938 33.285156 C 30.335938 33.285156 29.011719 33.738281 27.984375 34.644531 C 26.949219 35.550781 26.433594 36.691406 26.433594 38.066406 C 26.433594 39.496094 26.949219 40.660156 27.984375 41.550781 Z M 27.984375 41.550781 "/>
</g>
</svg>
