<svg xmlns="http://www.w3.org/2000/svg" xmlns:xlink="http://www.w3.org/1999/xlink" width="64px" height="64px" viewBox="0 0 64 64" version="1.1">
<defs>
<linearGradient id="linear0" gradientUnits="userSpaceOnUse" x1="0" y1="0" x2="0" y2="1" gradientTransform="matrix(54.603605,0,0,55.351351,4.698198,4.324324)">
<stop offset="0" style="stop-color:#ffae00;stop-opacity:1;"/>
<stop offset="0.5" style="stop-color:#dddddd;stop-opacity:1;"/>
<stop offset="1" style="stop-color:#6600ff;stop-opacity:1;"/>
</linearGradient>
</defs>
<g id="surface1">
<path style=" stroke:none;fill-rule:nonzero;fill:url(#linear0);" d="M 43.863281 11.542969 L 43.800781 11.542969 C 43.789062 11.542969 43.78125 11.542969 43.78125 11.542969 C 42.800781 11.542969 41.835938 11.636719 40.886719 11.835938 C 40.207031 11.96875 39.539062 12.191406 38.910156 12.496094 C 38.03125 12.917969 37.269531 13.5625 36.71875 14.382812 C 36.1875 15.214844 35.8125 16.136719 35.636719 17.117188 C 35.421875 18.164062 35.328125 19.234375 35.328125 20.300781 C 35.335938 21.003906 35.363281 21.710938 35.410156 22.410156 C 35.4375 22.785156 35.445312 23.160156 35.460938 23.527344 L 28.3125 23.636719 C 28.3125 23.394531 28.308594 23.160156 28.28125 22.929688 C 28.21875 22.078125 28.199219 21.21875 28.1875 20.363281 C 28.175781 18.800781 28.3125 17.246094 28.621094 15.707031 C 28.996094 13.820312 29.71875 12 30.769531 10.386719 C 32.039062 8.488281 33.792969 6.960938 35.835938 5.972656 C 37.003906 5.40625 38.230469 5 39.488281 4.746094 C 40.910156 4.46875 42.351562 4.324219 43.789062 4.324219 L 43.828125 4.324219 C 46.097656 4.300781 48.363281 4.746094 50.46875 5.625 C 52.375 6.433594 54.078125 7.660156 55.460938 9.207031 C 56.742188 10.664062 57.730469 12.375 58.375 14.214844 C 58.996094 15.996094 59.3125 17.875 59.300781 19.773438 C 59.300781 21.703125 58.984375 23.613281 58.351562 25.445312 C 57.707031 27.3125 56.714844 29.039062 55.433594 30.53125 C 54.0625 32.121094 52.375 33.382812 50.484375 34.253906 C 48.394531 35.175781 46.148438 35.636719 43.863281 35.613281 L 19.984375 35.613281 C 19.972656 35.613281 19.945312 35.613281 19.9375 35.613281 C 18.648438 35.597656 17.386719 35.835938 16.199219 36.335938 C 15.292969 36.730469 14.484375 37.308594 13.828125 38.054688 C 13.1875 38.796875 12.6875 39.652344 12.363281 40.59375 C 12.015625 41.605469 11.839844 42.664062 11.839844 43.730469 C 11.839844 44.851562 12.03125 45.96875 12.402344 47.039062 C 12.742188 48.054688 13.265625 49.003906 13.960938 49.820312 C 14.636719 50.617188 15.460938 51.253906 16.394531 51.6875 C 17.515625 52.203125 18.742188 52.460938 19.972656 52.457031 C 19.984375 52.457031 19.996094 52.457031 19.996094 52.457031 L 20.148438 52.457031 C 20.148438 52.457031 20.164062 52.457031 20.164062 52.457031 C 21.089844 52.460938 22.003906 52.363281 22.910156 52.144531 C 23.554688 51.988281 24.164062 51.746094 24.730469 51.40625 C 25.664062 50.839844 26.421875 50.039062 26.945312 49.085938 C 27.515625 48.015625 27.902344 46.863281 28.089844 45.660156 C 28.28125 44.539062 28.363281 43.394531 28.363281 42.253906 C 28.363281 41.808594 28.351562 41.351562 28.324219 40.890625 C 28.324219 40.878906 28.324219 40.878906 28.324219 40.867188 L 28.3125 40.554688 L 35.460938 40.300781 L 35.46875 40.605469 C 35.496094 41.144531 35.503906 41.6875 35.503906 42.230469 C 35.503906 43.769531 35.386719 45.308594 35.136719 46.835938 C 34.8125 48.824219 34.171875 50.746094 33.230469 52.511719 C 32.089844 54.636719 30.394531 56.402344 28.351562 57.636719 C 27.175781 58.324219 25.894531 58.847656 24.578125 59.171875 C 23.113281 59.515625 21.613281 59.6875 20.113281 59.675781 L 19.984375 59.675781 C 17.71875 59.6875 15.488281 59.191406 13.421875 58.253906 C 11.539062 57.378906 9.878906 56.089844 8.53125 54.5 C 7.257812 53 6.285156 51.265625 5.648438 49.394531 C 5.015625 47.582031 4.699219 45.664062 4.699219 43.730469 C 4.699219 41.855469 5.003906 39.988281 5.613281 38.21875 C 6.242188 36.390625 7.21875 34.691406 8.496094 33.253906 C 9.863281 31.710938 11.539062 30.488281 13.4375 29.679688 C 15.515625 28.800781 17.742188 28.367188 20.003906 28.390625 L 43.894531 28.390625 C 43.910156 28.390625 43.921875 28.390625 43.9375 28.390625 C 45.1875 28.402344 46.433594 28.148438 47.578125 27.644531 C 48.511719 27.210938 49.363281 26.585938 50.039062 25.808594 C 50.730469 25 51.265625 24.058594 51.613281 23.042969 C 51.984375 22 52.171875 20.882812 52.160156 19.765625 C 52.171875 18.691406 51.988281 17.621094 51.636719 16.609375 C 51.300781 15.664062 50.800781 14.785156 50.136719 14.039062 C 49.46875 13.28125 48.636719 12.675781 47.707031 12.28125 C 46.503906 11.773438 45.207031 11.539062 43.894531 11.542969 "/>
</g>
</svg>
