<svg xmlns="http://www.w3.org/2000/svg" xmlns:xlink="http://www.w3.org/1999/xlink" width="64px" height="64px" viewBox="0 0 64 64" version="1.1">
<defs>
<linearGradient id="linear0" gradientUnits="userSpaceOnUse" x1="0" y1="0" x2="0" y2="1" gradientTransform="matrix(37.252253,0,0,48.432432,13.373873,7.783784)">
<stop offset="0" style="stop-color:#00a2ff;stop-opacity:1;"/>
<stop offset="0.5" style="stop-color:#dddddd;stop-opacity:1;"/>
<stop offset="1" style="stop-color:#00ffae;stop-opacity:1;"/>
</linearGradient>
</defs>
<g id="surface1">
<path style=" stroke:none;fill-rule:evenodd;fill:url(#linear0);" d="M 31.6875 7.789062 C 31.375 7.761719 31.003906 7.835938 30.597656 8.058594 C 19.664062 13.957031 13.28125 24.613281 13.375 31.710938 C 13.511719 42.042969 21.441406 50.5 33.261719 50.214844 C 32.71875 52.96875 31.085938 53.882812 31.328125 55.1875 C 31.421875 55.707031 32.179688 56.59375 33.207031 56.039062 C 43.703125 50.320312 50.414062 40.113281 50.617188 32.761719 C 50.902344 22.714844 43.261719 13.1875 30.679688 13.828125 C 30.976562 12.4375 31.679688 11.207031 32.550781 9.761719 C 33.09375 8.863281 32.636719 7.863281 31.6875 7.789062 Z M 32 24.550781 C 36.117188 24.550781 39.449219 27.886719 39.449219 32 C 39.449219 36.117188 36.117188 39.449219 32 39.449219 C 27.886719 39.449219 24.550781 36.117188 24.550781 32 C 24.550781 27.886719 27.886719 24.550781 32 24.550781 Z M 32 24.550781 "/>
</g>
</svg>
