<svg xmlns="http://www.w3.org/2000/svg" xmlns:xlink="http://www.w3.org/1999/xlink" width="64px" height="64px" viewBox="0 0 64 64" version="1.1">
<defs>
<linearGradient id="linear0" gradientUnits="userSpaceOnUse" x1="0" y1="0" x2="0" y2="1" gradientTransform="matrix(48.423422,0,0,48.432432,7.788288,7.783784)">
<stop offset="0" style="stop-color:#ffae00;stop-opacity:1;"/>
<stop offset="0.5" style="stop-color:#dddddd;stop-opacity:1;"/>
<stop offset="1" style="stop-color:#bf1d1d;stop-opacity:1;"/>
</linearGradient>
</defs>
<g id="surface1">
<path style=" stroke:none;fill-rule:nonzero;fill:url(#linear0);" d="M 32 7.785156 C 18.617188 7.785156 7.789062 18.605469 7.789062 31.960938 C 7.789062 45.324219 18.617188 56.214844 32 56.214844 C 45.382812 56.214844 56.210938 45.328125 56.210938 31.960938 C 56.210938 18.605469 45.382812 7.785156 32 7.785156 Z M 45.203125 17.8125 C 51.011719 19.570312 52.53125 27.890625 48.03125 31.132812 L 51.679688 44.933594 L 46.621094 46.175781 L 43.011719 32.476562 C 36.585938 30.890625 35.113281 25.289062 38.957031 19.554688 L 43.078125 27.207031 L 45.472656 26.496094 M 31.996094 27.53125 C 34.476562 27.53125 36.441406 29.503906 36.441406 31.960938 C 36.441406 34.421875 34.46875 36.460938 31.996094 36.460938 C 29.527344 36.460938 27.566406 34.421875 27.566406 31.960938 C 27.566406 29.503906 29.539062 27.53125 31.996094 27.53125 Z M 31.996094 27.53125 "/>
</g>
</svg>
