<svg xmlns="http://www.w3.org/2000/svg" xmlns:xlink="http://www.w3.org/1999/xlink" width="64px" height="64px" viewBox="0 0 64 64" version="1.1">
<defs>
<linearGradient id="linear0" gradientUnits="userSpaceOnUse" x1="0" y1="0" x2="0" y2="1" gradientTransform="matrix(48.432432,0,0,44.711713,7.783784,9.644144)">
<stop offset="0" style="stop-color:#ffae00;stop-opacity:1;"/>
<stop offset="0.5" style="stop-color:#dddddd;stop-opacity:1;"/>
<stop offset="1" style="stop-color:#bf1d1d;stop-opacity:1;"/>
</linearGradient>
</defs>
<g id="surface1">
<path style=" stroke:none;fill-rule:nonzero;fill:url(#linear0);" d="M 24.550781 9.644531 C 21.484375 9.644531 18.960938 12.171875 18.960938 15.234375 L 18.960938 24.550781 L 22.6875 24.550781 L 22.6875 15.234375 C 22.6875 14.203125 23.511719 13.367188 24.550781 13.367188 L 24.550781 24.550781 L 28.273438 24.550781 L 28.273438 13.367188 L 30.136719 13.367188 L 30.136719 24.550781 L 33.863281 24.550781 L 33.863281 13.367188 L 35.726562 13.367188 L 35.726562 24.550781 L 39.449219 24.550781 L 39.449219 13.367188 L 41.664062 13.367188 C 41.441406 13.96875 41.324219 14.597656 41.3125 15.234375 L 41.3125 24.550781 L 45.039062 24.550781 L 45.039062 15.234375 C 45.039062 14.203125 45.867188 13.367188 46.90625 13.367188 L 56.214844 13.367188 L 56.214844 9.644531 Z M 13.367188 17.09375 C 11.613281 17.09375 10.105469 18.175781 9.179688 19.539062 C 8.257812 20.910156 7.785156 22.636719 7.785156 24.550781 C 7.785156 26.460938 8.257812 28.1875 9.179688 29.558594 C 9.765625 30.410156 10.566406 31.097656 11.511719 31.53125 L 11.511719 54.355469 L 15.234375 54.355469 L 15.234375 50.632812 L 18.960938 50.632812 L 18.960938 54.355469 L 22.6875 54.355469 L 22.6875 50.632812 L 26.414062 50.632812 L 26.414062 54.355469 L 30.136719 54.355469 L 30.136719 50.632812 L 33.863281 50.632812 L 33.863281 54.355469 L 37.585938 54.355469 L 37.585938 50.632812 L 41.3125 50.632812 L 41.3125 54.355469 L 45.039062 54.355469 L 45.039062 50.632812 L 48.765625 50.632812 L 48.765625 54.355469 L 52.488281 54.355469 L 52.488281 31.53125 C 53.433594 31.097656 54.234375 30.410156 54.820312 29.554688 C 55.742188 28.1875 56.214844 26.460938 56.214844 24.550781 C 56.214844 22.636719 55.742188 20.914062 54.820312 19.539062 C 53.894531 18.175781 52.386719 17.09375 50.632812 17.09375 L 46.90625 17.09375 L 46.90625 20.824219 L 50.632812 20.824219 C 50.917969 20.824219 51.300781 20.945312 51.734375 21.582031 C 52.164062 22.210938 52.488281 23.296875 52.488281 24.550781 C 52.488281 25.800781 52.164062 26.882812 51.734375 27.515625 C 51.308594 28.152344 50.917969 28.273438 50.632812 28.273438 L 13.367188 28.273438 C 13.082031 28.273438 12.699219 28.152344 12.265625 27.515625 C 11.835938 26.882812 11.511719 25.800781 11.511719 24.550781 C 11.511719 23.296875 11.835938 22.210938 12.265625 21.582031 C 12.691406 20.945312 13.082031 20.824219 13.367188 20.824219 L 17.09375 20.824219 L 17.09375 17.09375 Z M 15.234375 32 L 17.09375 32 L 17.09375 45.039062 L 46.90625 45.039062 L 46.90625 32 L 48.765625 32 L 48.765625 46.90625 L 15.234375 46.90625 Z M 20.824219 32 L 43.175781 32 L 43.175781 41.3125 L 20.824219 41.3125 Z M 20.824219 32 "/>
</g>
</svg>
