<svg xmlns="http://www.w3.org/2000/svg" xmlns:xlink="http://www.w3.org/1999/xlink" width="64px" height="64px" viewBox="0 0 64 64" version="1.1">
<defs>
<linearGradient id="linear0" gradientUnits="userSpaceOnUse" x1="0" y1="0" x2="0" y2="1" gradientTransform="matrix(28.252253,0,0,46.414416,17.873874,9.801802)">
<stop offset="0" style="stop-color:#ff8963;stop-opacity:1;"/>
<stop offset="0.5" style="stop-color:#dddddd;stop-opacity:1;"/>
<stop offset="1" style="stop-color:#0F6FFF;stop-opacity:1;"/>
</linearGradient>
</defs>
<g id="surface1">
<path style=" stroke:none;fill-rule:nonzero;fill:url(#linear0);" d="M 21.910156 56.214844 L 25.945312 56.214844 L 25.945312 52.179688 L 21.910156 52.179688 Z M 32 34.015625 C 35.347656 34.015625 38.03125 31.3125 38.03125 27.960938 L 38.054688 15.855469 C 38.054688 12.503906 35.347656 9.800781 32 9.800781 C 28.652344 9.800781 25.945312 12.503906 25.945312 15.855469 L 25.945312 27.960938 C 25.945312 31.3125 28.652344 34.015625 32 34.015625 Z M 29.984375 56.214844 L 34.015625 56.214844 L 34.015625 52.179688 L 29.984375 52.179688 Z M 38.054688 56.214844 L 42.089844 56.214844 L 42.089844 52.179688 L 38.054688 52.179688 Z M 46.125 27.960938 L 42.699219 27.960938 C 42.699219 34.015625 37.566406 38.257812 32 38.257812 C 26.433594 38.257812 21.300781 34.015625 21.300781 27.960938 L 17.875 27.960938 C 17.875 34.847656 23.363281 40.539062 29.984375 41.523438 L 29.984375 48.144531 L 34.015625 48.144531 L 34.015625 41.523438 C 40.636719 40.539062 46.125 34.847656 46.125 27.960938 Z M 46.125 27.960938 "/>
</g>
</svg>
