<svg xmlns="http://www.w3.org/2000/svg" xmlns:xlink="http://www.w3.org/1999/xlink" width="64px" height="64px" viewBox="0 0 64 64" version="1.1">
<defs>
<linearGradient id="linear0" gradientUnits="userSpaceOnUse" x1="0" y1="0" x2="0" y2="1" gradientTransform="matrix(48.432432,0,0,38.698199,7.783784,12.648649)">
<stop offset="0" style="stop-color:#00fff2;stop-opacity:1;"/>
<stop offset="0.5" style="stop-color:#dddddd;stop-opacity:1;"/>
<stop offset="1" style="stop-color:#0062ff;stop-opacity:1;"/>
</linearGradient>
</defs>
<g id="surface1">
<path style=" stroke:none;fill-rule:evenodd;fill:url(#linear0);" d="M 40.1875 47.085938 C 39.160156 47.984375 38.003906 48.734375 36.761719 49.335938 C 30.394531 52.085938 23.039062 51.8125 16.550781 49.753906 C 13.296875 48.703125 9.703125 47.109375 8.292969 43.757812 C 7.144531 39.441406 8.09375 34.882812 9.636719 30.800781 C 11.785156 25.148438 15.238281 19.496094 20.855469 16.726562 C 21.300781 16.5 21.746094 16.300781 22.199219 16.109375 C 22.386719 16.054688 22.566406 15.984375 22.757812 15.929688 C 22.578125 15.960938 22.390625 16.023438 22.199219 16.109375 C 22.160156 16.113281 22.113281 16.132812 22.066406 16.152344 C 22.042969 16.1875 22.148438 13.863281 23.960938 13.414062 C 31.703125 10.96875 40.644531 14.605469 45.324219 21.390625 C 48.003906 18.5 54.011719 17.09375 55.339844 18.734375 C 56.789062 20.527344 56.105469 23.671875 55.660156 24.042969 C 55.21875 24.417969 52.347656 22.136719 49.847656 23.285156 C 48.835938 23.746094 48 24.210938 47.246094 24.6875 C 50.40625 31.335938 50.085938 39.644531 43.613281 46.609375 C 42.152344 48.289062 40.238281 47.144531 40.175781 47.105469 C 40.179688 47.097656 40.1875 47.09375 40.1875 47.085938 Z M 40.191406 38.863281 C 40.023438 39.210938 39.835938 39.550781 39.625 39.875 C 38.4375 41.945312 36.675781 43.554688 34.605469 44.636719 C 32.066406 45.679688 29.320312 46.191406 26.570312 46.144531 C 23.671875 46.144531 20.824219 45.679688 18.078125 44.796875 C 16.785156 44.433594 15.539062 43.863281 14.394531 43.1875 C 13.933594 42.878906 13.460938 42.460938 13.207031 41.945312 C 13.054688 41.273438 12.949219 40.550781 12.949219 39.820312 C 13.054688 37.335938 13.515625 34.957031 14.449219 32.675781 C 15.382812 30.1875 16.625 27.855469 18.125 25.730469 C 19.476562 23.863281 21.1875 22.363281 23.207031 21.328125 C 24.8125 20.550781 26.570312 20.136719 28.382812 20.1875 C 28.71875 20.1875 29.054688 20.199219 29.390625 20.230469 C 29.675781 20.59375 29.976562 20.972656 30.296875 21.363281 C 33.855469 25.707031 37.390625 31.863281 39.6875 37.53125 C 39.863281 37.984375 40.042969 38.429688 40.191406 38.863281 Z M 40.191406 38.863281 "/>
</g>
</svg>
