<svg xmlns="http://www.w3.org/2000/svg" xmlns:xlink="http://www.w3.org/1999/xlink" width="64px" height="64px" viewBox="0 0 64 64" version="1.1">
<defs>
<linearGradient id="linear0" gradientUnits="userSpaceOnUse" x1="0" y1="0" x2="0" y2="1" gradientTransform="matrix(55.351351,0,0,55.351351,4.324324,4.324324)">
<stop offset="0" style="stop-color:#ffae00;stop-opacity:1;"/>
<stop offset="0.5" style="stop-color:#dddddd;stop-opacity:1;"/>
<stop offset="1" style="stop-color:#bf1d1d;stop-opacity:1;"/>
</linearGradient>
</defs>
<g id="surface1">
<path style=" stroke:none;fill-rule:nonzero;fill:url(#linear0);" d="M 28.90625 24.484375 C 29.089844 24.972656 29.179688 25.582031 29.179688 26.296875 C 29.179688 27.152344 29.082031 27.863281 28.890625 28.40625 C 28.734375 28.878906 28.472656 29.308594 28.121094 29.664062 C 27.8125 29.960938 27.433594 30.175781 27.015625 30.292969 C 26.59375 30.429688 26.136719 30.496094 25.664062 30.496094 C 25.539062 30.496094 25.289062 30.476562 24.921875 30.445312 C 24.679688 30.417969 24.511719 30.394531 24.402344 30.378906 L 24.402344 22.660156 C 24.882812 22.570312 25.378906 22.539062 25.867188 22.542969 C 26.3125 22.542969 26.742188 22.605469 27.152344 22.734375 C 27.539062 22.855469 27.890625 23.058594 28.1875 23.335938 C 28.488281 23.617188 28.730469 24 28.90625 24.484375 Z M 59.675781 14.703125 L 59.675781 49.296875 C 59.675781 55.03125 55.03125 59.675781 49.296875 59.675781 L 14.703125 59.675781 C 8.96875 59.675781 4.324219 55.03125 4.324219 49.296875 L 4.324219 14.703125 C 4.324219 8.96875 8.96875 4.324219 14.703125 4.324219 L 49.296875 4.324219 C 55.03125 4.324219 59.675781 8.96875 59.675781 14.703125 Z M 33.554688 30.242188 C 33.988281 29.175781 34.203125 27.863281 34.203125 26.324219 C 34.203125 24.636719 33.945312 23.242188 33.433594 22.179688 C 32.917969 21.117188 32.230469 20.265625 31.402344 19.675781 C 30.5625 19.082031 29.605469 18.675781 28.59375 18.488281 C 26.609375 18.113281 24.558594 18.125 22.503906 18.351562 C 21.589844 18.441406 20.679688 18.585938 19.785156 18.78125 C 19.664062 18.8125 19.582031 18.914062 19.578125 19.039062 L 19.578125 42.644531 C 19.578125 42.792969 19.6875 42.910156 19.839844 42.910156 L 24.136719 42.910156 C 24.28125 42.910156 24.402344 42.789062 24.402344 42.644531 L 24.402344 34.746094 L 24.566406 34.765625 C 24.789062 34.796875 25.011719 34.8125 25.238281 34.820312 C 25.472656 34.824219 25.699219 34.835938 25.90625 34.835938 L 26.347656 34.835938 C 27.339844 34.835938 28.335938 34.6875 29.273438 34.378906 C 30.214844 34.082031 31.085938 33.570312 31.8125 32.886719 C 32.539062 32.207031 33.121094 31.320312 33.554688 30.246094 Z M 45.269531 37.882812 C 45.269531 36.90625 45.113281 36.078125 44.789062 35.410156 C 44.488281 34.773438 44.070312 34.199219 43.5625 33.710938 C 43.082031 33.269531 42.554688 32.886719 41.988281 32.5625 C 41.457031 32.273438 40.945312 31.988281 40.476562 31.714844 C 40.070312 31.496094 39.691406 31.230469 39.351562 30.917969 C 39.105469 30.691406 38.96875 30.378906 38.976562 30.042969 C 38.976562 29.523438 39.136719 28.914062 40.375 28.914062 C 40.941406 28.914062 41.523438 28.996094 42.113281 29.160156 C 42.703125 29.324219 43.21875 29.496094 43.644531 29.671875 C 43.714844 29.707031 43.792969 29.707031 43.863281 29.671875 C 43.933594 29.644531 43.984375 29.582031 44 29.503906 L 44.957031 26.367188 C 44.996094 26.253906 44.941406 26.132812 44.835938 26.070312 C 44.296875 25.738281 43.5625 25.457031 42.652344 25.238281 C 41.707031 25.011719 40.738281 24.902344 39.765625 24.910156 C 38.015625 24.910156 36.675781 25.363281 35.761719 26.28125 C 34.855469 27.1875 34.386719 28.488281 34.386719 30.144531 C 34.386719 31.113281 34.554688 31.933594 34.875 32.582031 C 35.191406 33.21875 35.609375 33.769531 36.109375 34.230469 C 36.609375 34.671875 37.132812 35.050781 37.671875 35.351562 C 38.203125 35.644531 38.710938 35.933594 39.1875 36.210938 C 39.644531 36.484375 40.011719 36.78125 40.296875 37.082031 C 40.5625 37.363281 40.703125 37.730469 40.6875 38.113281 C 40.6875 38.542969 40.558594 38.851562 40.292969 39.039062 C 40 39.242188 39.613281 39.339844 39.148438 39.339844 C 38.511719 39.339844 37.882812 39.242188 37.269531 39.050781 C 36.71875 38.867188 36.1875 38.636719 35.664062 38.363281 C 35.597656 38.320312 35.515625 38.3125 35.441406 38.335938 C 35.367188 38.367188 35.3125 38.429688 35.289062 38.503906 L 34.164062 41.773438 C 34.125 41.886719 34.171875 42.011719 34.269531 42.078125 C 34.835938 42.460938 35.589844 42.769531 36.511719 43 C 37.433594 43.234375 38.378906 43.351562 39.3125 43.351562 C 41.269531 43.351562 42.769531 42.847656 43.765625 41.847656 C 44.765625 40.835938 45.269531 39.511719 45.269531 37.882812 Z M 45.269531 37.882812 "/>
</g>
</svg>
