<svg xmlns="http://www.w3.org/2000/svg" xmlns:xlink="http://www.w3.org/1999/xlink" width="64px" height="64px" viewBox="0 0 64 64" version="1.1">
<defs>
<linearGradient id="linear0" gradientUnits="userSpaceOnUse" x1="0" y1="0" x2="0" y2="1" gradientTransform="matrix(55.351351,0,0,55.351351,4.324324,4.324324)">
<stop offset="0" style="stop-color:#ffae00;stop-opacity:1;"/>
<stop offset="0.5" style="stop-color:#dddddd;stop-opacity:1;"/>
<stop offset="1" style="stop-color:#6600ff;stop-opacity:1;"/>
</linearGradient>
</defs>
<g id="surface1">
<path style=" stroke:none;fill-rule:nonzero;fill:url(#linear0);" d="M 28.8125 4.324219 C 27.855469 4.324219 27.664062 4.367188 27.285156 4.691406 C 26.515625 5.335938 26.085938 7.308594 26.089844 10.171875 C 26.09375 13.136719 26.5 15.957031 27.433594 19.621094 L 28.015625 21.914062 L 27.46875 23.636719 C 25.714844 29.234375 23.175781 35.0625 19.433594 42.042969 C 13.757812 52.632812 9.367188 58.1875 6.3125 58.679688 C 5.824219 58.765625 5.800781 58.734375 5.800781 58.386719 C 5.800781 56.597656 9.1875 52.136719 12.957031 48.957031 C 14.882812 47.328125 12.636719 48.414062 10.050781 50.363281 C 7.441406 52.328125 5.28125 54.875 4.609375 56.773438 C 4.132812 58.125 4.230469 58.605469 5.105469 59.042969 C 6.664062 59.835938 7.457031 59.867188 8.785156 59.210938 C 11.363281 57.933594 14.769531 53.882812 18.566406 47.597656 C 19.796875 45.558594 20.1875 45.050781 20.496094 45.050781 C 20.609375 45.050781 21.769531 44.730469 23.070312 44.335938 C 28.269531 42.769531 34.511719 41.503906 40.636719 40.765625 L 42.675781 40.511719 L 43.707031 41.023438 C 46.386719 42.363281 50.125 43.671875 52.863281 44.207031 C 54.714844 44.570312 57.132812 44.636719 57.941406 44.355469 C 58.449219 44.175781 59.515625 43.542969 59.515625 43.335938 C 57.4375 44.3125 54.300781 43.109375 51.945312 42.410156 C 50.390625 41.921875 46.972656 40.585938 46.78125 40.394531 C 50.917969 39.59375 58.6875 39.417969 59.523438 42.285156 C 59.765625 42.285156 59.703125 41.136719 59.433594 40.671875 C 58.917969 39.808594 57.433594 39.109375 55.292969 38.710938 C 53.558594 38.386719 49.457031 38.296875 46.242188 38.511719 L 43.390625 38.691406 L 42.363281 38.066406 C 36.460938 34.488281 33.328125 30.457031 30.5 22.789062 C 30.078125 21.636719 30.050781 21.484375 30.1875 20.757812 C 30.6875 18.203125 31.144531 9.578125 30.796875 9.363281 C 30.164062 12.1875 29.652344 15.015625 29.011719 17.566406 C 28.878906 17.566406 28.488281 15.582031 28.1875 13.265625 C 27.851562 10.742188 27.972656 7.335938 28.421875 6.175781 C 28.605469 5.707031 28.839844 5.285156 28.957031 5.238281 C 30.113281 5.570312 30.757812 6.488281 30.921875 7.894531 C 31.089844 7.894531 31.132812 7.625 31.164062 6.761719 C 31.234375 4.855469 30.726562 4.324219 28.8125 4.324219 Z M 29.269531 25.355469 C 29.335938 25.328125 29.375 25.484375 29.457031 25.707031 C 29.554688 25.988281 30.113281 27.132812 30.6875 28.253906 C 33.152344 33.070312 35.886719 36.230469 39.824219 38.824219 C 40.027344 38.945312 40.148438 39.105469 40.105469 39.152344 C 40.054688 39.191406 39.253906 39.375 38.335938 39.539062 C 32.085938 40.648438 24.300781 42.988281 20.511719 44.886719 C 20.457031 44.914062 20.40625 44.855469 20.40625 44.761719 C 20.40625 44.664062 20.78125 43.886719 21.253906 43.039062 C 24.820312 36.652344 27.214844 31.496094 28.570312 27.246094 C 29 25.902344 29.164062 25.394531 29.269531 25.363281 Z M 29.269531 25.355469 "/>
</g>
</svg>
