<svg xmlns="http://www.w3.org/2000/svg" xmlns:xlink="http://www.w3.org/1999/xlink" width="64px" height="64px" viewBox="0 0 64 64" version="1.1">
<defs>
<linearGradient id="linear0" gradientUnits="userSpaceOnUse" x1="0" y1="0" x2="0" y2="1" gradientTransform="matrix(55.351351,0,0,55.351351,4.324324,4.324324)">
<stop offset="0" style="stop-color:#ffae00;stop-opacity:1;"/>
<stop offset="0.5" style="stop-color:#dddddd;stop-opacity:1;"/>
<stop offset="1" style="stop-color:#6600ff;stop-opacity:1;"/>
</linearGradient>
</defs>
<g id="surface1">
<path style=" stroke:none;fill-rule:evenodd;fill:url(#linear0);" d="M 10.476562 4.324219 C 7.085938 4.324219 4.324219 7.085938 4.324219 10.476562 L 4.324219 53.523438 C 4.324219 56.914062 7.085938 59.675781 10.476562 59.675781 L 53.523438 59.675781 C 56.914062 59.675781 59.675781 56.914062 59.675781 53.523438 L 59.675781 10.476562 C 59.675781 7.085938 56.914062 4.324219 53.523438 4.324219 Z M 32.433594 17.457031 L 32.433594 40.570312 C 32.433594 42.59375 32.363281 44.769531 32.289062 46.105469 L 36.347656 46.105469 L 36.53125 42.996094 L 36.609375 42.996094 C 37.6875 45.171875 39.855469 46.542969 42.484375 46.542969 C 46.761719 46.542969 50.164062 42.550781 50.164062 36.496094 C 50.199219 29.921875 46.429688 26.011719 42.113281 26.011719 C 39.636719 26.011719 37.863281 27.144531 37.054688 28.59375 L 36.976562 28.59375 L 36.976562 17.457031 L 32.433594 17.457031 M 37.125 39.042969 C 37.011719 38.597656 36.976562 38.113281 36.976562 37.589844 L 36.976562 34.644531 C 36.976562 34.242188 37.015625 33.757812 37.089844 33.355469 C 37.496094 31.414062 38.933594 29.839844 41.011719 29.839844 C 43.917969 29.839844 45.542969 32.664062 45.542969 36.335938 C 45.542969 39.929688 43.921875 42.550781 41.039062 42.550781 C 39.199219 42.550781 37.566406 41.179688 37.121094 39.042969 L 37.125 39.042969 M 13.835938 18.734375 L 13.835938 45.917969 L 18.796875 45.917969 L 18.796875 34.378906 L 28.800781 34.378906 L 28.800781 30.308594 L 18.796875 30.308594 L 18.796875 22.800781 L 29.53125 22.800781 L 29.53125 18.71875 L 13.835938 18.734375 M 32.433594 17.457031 Z M 32.433594 17.457031 "/>
</g>
</svg>
