<svg xmlns="http://www.w3.org/2000/svg" xmlns:xlink="http://www.w3.org/1999/xlink" width="64px" height="64px" viewBox="0 0 64 64" version="1.1">
<defs>
<linearGradient id="linear0" gradientUnits="userSpaceOnUse" x1="0" y1="0" x2="0" y2="1" gradientTransform="matrix(55.351351,0,0,55.351351,4.324324,4.324324)">
<stop offset="0" style="stop-color:#ff8963;stop-opacity:1;"/>
<stop offset="0.5" style="stop-color:#dddddd;stop-opacity:1;"/>
<stop offset="1" style="stop-color:#0F6FFF;stop-opacity:1;"/>
</linearGradient>
</defs>
<g id="surface1">
<path style=" stroke:none;fill-rule:evenodd;fill:url(#linear0);" d="M 10.476562 4.324219 C 7.085938 4.324219 4.324219 7.085938 4.324219 10.476562 L 4.324219 53.523438 C 4.324219 56.914062 7.085938 59.675781 10.476562 59.675781 L 53.523438 59.675781 C 56.914062 59.675781 59.675781 56.914062 59.675781 53.523438 L 59.675781 10.476562 C 59.675781 7.085938 56.914062 4.324219 53.523438 4.324219 Z M 21.1875 20.226562 L 13.933594 43.394531 L 18.199219 43.394531 L 20.144531 36.835938 L 27.335938 36.835938 L 29.382812 43.394531 L 33.8125 43.394531 L 26.460938 20.226562 L 21.1875 20.226562 M 22.566406 27.929688 C 22.96875 26.554688 23.3125 24.9375 23.644531 23.589844 L 23.707031 23.589844 C 24.039062 24.933594 24.414062 26.511719 24.851562 27.929688 L 26.625 33.632812 L 20.824219 33.632812 L 22.566406 27.929688 M 35.335938 35.285156 C 35.335938 40.410156 38.457031 43.773438 43.757812 43.773438 C 46.113281 43.773438 48.058594 43.292969 49.46875 42.707031 L 48.867188 39.792969 C 47.621094 40.269531 46.246094 40.539062 44.335938 40.539062 C 41.710938 40.539062 39.390625 39.238281 39.296875 36.210938 L 50.246094 36.210938 C 50.320312 35.835938 50.378906 35.210938 50.378906 34.421875 C 50.378906 30.738281 48.664062 26.273438 43.324219 26.273438 C 38.089844 26.273438 35.335938 30.632812 35.335938 35.265625 L 35.335938 35.285156 M 43.089844 29.152344 C 45.847656 29.152344 46.515625 31.691406 46.484375 33.242188 L 39.296875 33.242188 C 39.460938 31.515625 40.539062 29.152344 43.089844 29.152344 M 21.1875 20.226562 Z M 21.1875 20.226562 "/>
</g>
</svg>
