<svg xmlns="http://www.w3.org/2000/svg" xmlns:xlink="http://www.w3.org/1999/xlink" width="64px" height="64px" viewBox="0 0 64 64" version="1.1">
<defs>
<linearGradient id="linear0" gradientUnits="userSpaceOnUse" x1="0" y1="0" x2="0" y2="1" gradientTransform="matrix(55.351351,0,0,55.351351,4.324324,4.324324)">
<stop offset="0" style="stop-color:#05f7ff;stop-opacity:1;"/>
<stop offset="0.5" style="stop-color:#dddddd;stop-opacity:1;"/>
<stop offset="1" style="stop-color:#e6ff05;stop-opacity:1;"/>
</linearGradient>
</defs>
<g id="surface1">
<path style=" stroke:none;fill-rule:evenodd;fill:url(#linear0);" d="M 10.476562 4.324219 C 7.085938 4.324219 4.324219 7.085938 4.324219 10.476562 L 4.324219 53.523438 C 4.324219 56.914062 7.085938 59.675781 10.476562 59.675781 L 53.523438 59.675781 C 56.914062 59.675781 59.675781 56.914062 59.675781 53.523438 L 59.675781 10.476562 C 59.675781 7.085938 56.914062 4.324219 53.523438 4.324219 Z M 13.835938 15.3125 L 13.835938 51.097656 L 20.40625 51.097656 L 20.40625 37.441406 C 21.257812 37.597656 22.390625 37.648438 23.625 37.648438 C 28.3125 37.648438 32.457031 36.417969 35.097656 33.78125 C 37.136719 31.835938 38.210938 28.984375 38.210938 25.539062 C 38.210938 22.160156 36.824219 19.300781 34.664062 17.523438 C 32.351562 15.589844 28.800781 14.566406 23.957031 14.566406 C 19.488281 14.566406 16.207031 14.886719 13.835938 15.324219 L 13.835938 15.3125 M 20.40625 32.214844 L 20.40625 19.957031 C 21.109375 19.792969 22.390625 19.625 24.226562 19.625 C 28.800781 19.625 31.597656 21.785156 31.597656 25.8125 C 31.597656 30.070312 28.582031 32.488281 23.625 32.488281 C 22.285156 32.488281 21.210938 32.441406 20.40625 32.21875 L 20.40625 32.214844 M 43.488281 51.105469 L 50.164062 51.105469 L 50.164062 12.894531 L 43.488281 12.894531 L 43.488281 51.105469 M 13.835938 15.3125 Z M 13.835938 15.3125 "/>
</g>
</svg>
