<svg xmlns="http://www.w3.org/2000/svg" xmlns:xlink="http://www.w3.org/1999/xlink" width="64px" height="64px" viewBox="0 0 64 64" version="1.1">
<defs>
<linearGradient id="linear0" gradientUnits="userSpaceOnUse" x1="0" y1="0" x2="0" y2="1" gradientTransform="matrix(55.351351,0,0,55.351351,4.324324,4.324324)">
<stop offset="0" style="stop-color:#ff8963;stop-opacity:1;"/>
<stop offset="0.5" style="stop-color:#dddddd;stop-opacity:1;"/>
<stop offset="1" style="stop-color:#0F6FFF;stop-opacity:1;"/>
</linearGradient>
</defs>
<g id="surface1">
<path style=" stroke:none;fill-rule:nonzero;fill:url(#linear0);" d="M 10.476562 4.324219 C 7.085938 4.324219 4.324219 7.085938 4.324219 10.476562 L 4.324219 53.523438 C 4.324219 56.914062 7.085938 59.675781 10.476562 59.675781 L 53.523438 59.675781 C 56.914062 59.675781 59.675781 56.914062 59.675781 53.523438 L 59.675781 10.476562 C 59.675781 7.085938 56.914062 4.324219 53.523438 4.324219 Z M 42.761719 18.164062 C 43.757812 18.164062 44.679688 18.691406 45.175781 19.558594 C 45.675781 20.421875 45.675781 21.484375 45.175781 22.347656 C 44.675781 23.210938 43.757812 23.742188 42.757812 23.738281 C 41.21875 23.738281 39.96875 22.488281 39.96875 20.949219 C 39.972656 19.410156 41.21875 18.164062 42.761719 18.164062 Z M 24.886719 19.410156 L 29.886719 19.410156 L 38.152344 45.542969 L 32.292969 45.542969 L 30.753906 40.265625 L 23.738281 40.265625 L 22.199219 45.542969 L 16.625 45.542969 Z M 40.261719 26.136719 L 45.550781 26.136719 L 45.550781 45.542969 L 40.261719 45.542969 Z M 27.386719 26.429688 L 24.886719 35.652344 L 29.886719 35.652344 Z M 27.386719 26.429688 "/>
</g>
</svg>
