<svg xmlns="http://www.w3.org/2000/svg" xmlns:xlink="http://www.w3.org/1999/xlink" width="64px" height="64px" viewBox="0 0 64 64" version="1.1">
<defs>
<linearGradient id="linear0" gradientUnits="userSpaceOnUse" x1="0" y1="0" x2="0" y2="1" gradientTransform="matrix(55.351351,0,0,55.351351,4.324324,4.324324)">
<stop offset="0" style="stop-color:#00b7ff;stop-opacity:1;"/>
<stop offset="0.5" style="stop-color:#dddddd;stop-opacity:1;"/>
<stop offset="1" style="stop-color:#ee42d9;stop-opacity:1;"/>
</linearGradient>
</defs>
<g id="surface1">
<path style=" stroke:none;fill-rule:nonzero;fill:url(#linear0);" d="M 53.523438 4.324219 L 10.476562 4.324219 C 7.078125 4.324219 4.324219 7.078125 4.324219 10.476562 L 4.324219 53.523438 C 4.324219 56.921875 7.078125 59.675781 10.476562 59.675781 L 53.523438 59.675781 C 56.921875 59.675781 59.675781 56.921875 59.675781 53.523438 L 59.675781 10.476562 C 59.675781 7.078125 56.921875 4.324219 53.523438 4.324219 Z M 34.136719 44.878906 L 19.542969 44.878906 L 19.542969 18.636719 L 24.847656 18.636719 L 24.847656 40.476562 L 34.136719 40.476562 Z M 46.570312 30.292969 C 46.011719 30.234375 45.441406 30.1875 44.878906 30.148438 C 42.917969 30.148438 42.296875 31.386719 42.058594 31.988281 L 42.058594 44.875 L 36.9375 44.875 L 36.9375 25.378906 L 41.742188 25.378906 L 41.886719 27.484375 C 42.269531 26.699219 43.300781 25.023438 45.226562 25.023438 C 46.066406 25.023438 46.449219 25.179688 46.632812 25.253906 Z M 46.570312 30.292969 "/>
</g>
</svg>
