<svg xmlns="http://www.w3.org/2000/svg" xmlns:xlink="http://www.w3.org/1999/xlink" width="64px" height="64px" viewBox="0 0 64 64" version="1.1">
<defs>
<linearGradient id="linear0" gradientUnits="userSpaceOnUse" x1="0" y1="0" x2="0" y2="1" gradientTransform="matrix(55.351351,0,0,55.351351,4.324324,4.324324)">
<stop offset="0" style="stop-color:#ffae00;stop-opacity:1;"/>
<stop offset="0.5" style="stop-color:#dddddd;stop-opacity:1;"/>
<stop offset="1" style="stop-color:#bf1d1d;stop-opacity:1;"/>
</linearGradient>
</defs>
<g id="surface1">
<path style=" stroke:none;fill-rule:nonzero;fill:url(#linear0);" d="M 10.476562 4.324219 C 7.078125 4.324219 4.324219 7.078125 4.324219 10.476562 L 4.324219 53.523438 C 4.324219 56.921875 7.078125 59.675781 10.476562 59.675781 L 53.523438 59.675781 C 56.921875 59.675781 59.675781 56.921875 59.675781 53.523438 L 59.675781 10.476562 C 59.675781 7.078125 56.921875 4.324219 53.523438 4.324219 Z M 39.015625 17.679688 L 44.109375 17.679688 L 44.109375 45.355469 L 39.488281 45.355469 L 39.300781 43.4375 C 38.8125 44.164062 37.5625 45.738281 35.265625 45.738281 C 33.203125 45.738281 28.921875 44.949219 28.921875 36.324219 L 28.921875 35.078125 C 28.921875 31.875 29.367188 25.5625 35.269531 25.5625 C 37.367188 25.5625 38.542969 26.867188 39.015625 27.484375 Z M 20.085938 19.121094 L 25.375 19.121094 L 25.375 45.355469 L 20.085938 45.355469 Z M 36.707031 29.792969 C 33.789062 29.792969 34.015625 33.609375 34.015625 35.078125 L 34.015625 36.324219 C 34.015625 40.949219 35.28125 41.511719 36.707031 41.511719 C 37.664062 41.527344 38.554688 41.011719 39.015625 40.164062 L 39.015625 31.234375 C 38.773438 30.773438 38.054688 29.789062 36.707031 29.789062 Z M 36.707031 29.792969 "/>
</g>
</svg>
