<svg xmlns="http://www.w3.org/2000/svg" xmlns:xlink="http://www.w3.org/1999/xlink" width="64px" height="64px" viewBox="0 0 64 64" version="1.1">
<defs>
<linearGradient id="linear0" gradientUnits="userSpaceOnUse" x1="0" y1="0" x2="0" y2="1" gradientTransform="matrix(55.351351,0,0,55.351351,4.324324,4.324324)">
<stop offset="0" style="stop-color:#00fff2;stop-opacity:1;"/>
<stop offset="0.5" style="stop-color:#dddddd;stop-opacity:1;"/>
<stop offset="1" style="stop-color:#0062ff;stop-opacity:1;"/>
</linearGradient>
</defs>
<g id="surface1">
<path style=" stroke:none;fill-rule:evenodd;fill:url(#linear0);" d="M 10.476562 4.324219 C 7.085938 4.324219 4.324219 7.085938 4.324219 10.476562 L 4.324219 53.523438 C 4.324219 56.914062 7.085938 59.675781 10.476562 59.675781 L 53.523438 59.675781 C 56.914062 59.675781 59.675781 56.914062 59.675781 53.523438 L 59.675781 10.476562 C 59.675781 7.085938 56.914062 4.324219 53.523438 4.324219 Z M 13.839844 17.496094 L 13.839844 47.132812 L 19.273438 47.132812 L 19.273438 35.8125 C 19.988281 35.945312 20.921875 35.996094 21.945312 35.996094 C 25.824219 35.996094 29.261719 34.972656 31.441406 32.785156 C 33.136719 31.179688 34.027344 28.8125 34.027344 25.960938 C 34.027344 23.160156 32.867188 20.792969 31.082031 19.328125 C 29.164062 17.71875 26.226562 16.867188 22.210938 16.867188 C 18.515625 16.867188 15.796875 17.136719 13.835938 17.5 L 13.839844 17.496094 M 19.273438 31.5 L 19.273438 21.328125 C 19.855469 21.199219 20.917969 21.0625 22.441406 21.0625 C 26.21875 21.0625 28.554688 22.839844 28.554688 26.191406 C 28.554688 29.707031 26.058594 31.714844 21.957031 31.714844 C 20.835938 31.714844 19.945312 31.664062 19.28125 31.496094 L 19.273438 31.5 M 42.941406 29.570312 L 42.757812 29.570312 L 42.585938 25.429688 L 37.820312 25.429688 C 37.957031 27.390625 37.996094 29.484375 37.996094 32.421875 L 37.996094 47.132812 L 43.476562 47.132812 L 43.476562 35.902344 C 43.476562 35.28125 43.5625 34.703125 43.652344 34.207031 C 44.148438 31.753906 45.933594 30.0625 48.554688 30.0625 C 49.226562 30.0625 49.71875 30.160156 50.164062 30.242188 L 50.164062 25.070312 C 49.71875 24.984375 49.40625 24.941406 48.867188 24.941406 C 46.554688 24.941406 44.011719 26.5 42.941406 29.570312 M 13.839844 17.496094 Z M 13.839844 17.496094 "/>
</g>
</svg>
