<svg xmlns="http://www.w3.org/2000/svg" xmlns:xlink="http://www.w3.org/1999/xlink" width="64px" height="64px" viewBox="0 0 64 64" version="1.1">
<defs>
<linearGradient id="linear0" gradientUnits="userSpaceOnUse" x1="0" y1="0" x2="0" y2="1" gradientTransform="matrix(55.351351,0,0,55.351351,4.324324,4.324324)">
<stop offset="0" style="stop-color:#ffae00;stop-opacity:1;"/>
<stop offset="0.5" style="stop-color:#dddddd;stop-opacity:1;"/>
<stop offset="1" style="stop-color:#bf1d1d;stop-opacity:1;"/>
</linearGradient>
</defs>
<g id="surface1">
<path style=" stroke:none;fill-rule:nonzero;fill:url(#linear0);" d="M 10.476562 4.324219 C 7.085938 4.324219 4.324219 7.085938 4.324219 10.476562 L 4.324219 53.523438 C 4.324219 56.914062 7.085938 59.675781 10.476562 59.675781 L 53.523438 59.675781 C 56.914062 59.675781 59.675781 56.914062 59.675781 53.523438 L 59.675781 10.476562 C 59.675781 7.085938 56.914062 4.324219 53.523438 4.324219 Z M 17.589844 18.738281 L 25.5625 18.738281 C 26.789062 18.738281 33.828125 18.773438 33.828125 25.847656 C 33.828125 29.847656 31.070312 31.109375 30.460938 31.429688 C 31.078125 31.738281 34.117188 32.570312 34.117188 37.1875 C 34.421875 43.027344 31.0625 45.265625 26.136719 45.265625 L 17.589844 45.265625 Z M 22.773438 23.351562 L 22.773438 29.882812 L 25.5625 29.882812 C 27.414062 29.882812 28.636719 28.960938 28.636719 26.8125 C 28.636719 23.734375 26.789062 23.351562 25.5625 23.351562 Z M 46.132812 25.269531 C 46.4375 25.269531 47.351562 25.5625 47.664062 25.5625 L 47.664062 30.460938 L 45.835938 30.460938 C 43.988281 30.460938 43.363281 31.679688 43.054688 32.292969 L 43.054688 45.265625 L 37.863281 45.265625 L 37.863281 25.558594 L 42.761719 25.558594 L 42.761719 27.671875 C 43.078125 26.746094 44.273438 25.269531 46.132812 25.269531 Z M 22.773438 33.828125 L 22.773438 40.941406 L 26.136719 40.941406 C 27.675781 40.941406 28.921875 40.039062 28.921875 37.578125 C 29.238281 35.113281 28.28125 33.828125 26.421875 33.828125 Z M 22.773438 33.828125 "/>
</g>
</svg>
