<svg xmlns="http://www.w3.org/2000/svg" xmlns:xlink="http://www.w3.org/1999/xlink" width="64px" height="64px" viewBox="0 0 64 64" version="1.1">
<defs>
<linearGradient id="linear0" gradientUnits="userSpaceOnUse" x1="0" y1="0" x2="0" y2="1" gradientTransform="matrix(47.747747,0,0,55.351351,8.126126,4.324324)">
<stop offset="0" style="stop-color:#ffae00;stop-opacity:1;"/>
<stop offset="0.5" style="stop-color:#dddddd;stop-opacity:1;"/>
<stop offset="1" style="stop-color:#bf1d1d;stop-opacity:1;"/>
</linearGradient>
</defs>
<g id="surface1">
<path style=" stroke:none;fill-rule:evenodd;fill:url(#linear0);" d="M 33.910156 43.472656 L 38.625 43.472656 C 38.753906 43.472656 38.875 43.472656 39 43.488281 C 39.21875 43.503906 39.4375 43.511719 39.671875 43.503906 C 40.414062 43.511719 41.164062 43.460938 41.910156 43.351562 C 42.703125 43.246094 43.488281 43.027344 44.234375 42.710938 C 44.59375 42.566406 44.910156 42.339844 45.164062 42.042969 C 45.207031 41.976562 45.246094 41.910156 45.273438 41.835938 C 45.335938 41.59375 45.378906 41.347656 45.367188 41.097656 C 45.378906 40.542969 45.3125 40 45.175781 39.476562 C 45.089844 39.1875 44.976562 38.921875 44.824219 38.671875 C 44.53125 38.226562 44.117188 37.867188 43.632812 37.621094 C 42.9375 37.269531 42.175781 37.03125 41.394531 36.90625 C 40.730469 36.78125 40.050781 36.726562 39.375 36.726562 C 39.246094 36.726562 39.121094 36.734375 39 36.742188 C 38.882812 36.742188 38.769531 36.753906 38.664062 36.753906 L 33.910156 36.792969 Z M 29.136719 43.472656 L 18.773438 43.472656 C 17.378906 43.472656 16.039062 44.027344 15.058594 45.011719 C 14.078125 45.996094 13.523438 47.335938 13.523438 48.730469 C 13.523438 50.125 14.078125 51.460938 15.058594 52.441406 C 16.039062 53.429688 17.378906 53.984375 18.773438 53.984375 L 29.136719 53.984375 L 29.136719 57.292969 C 29.136719 58.609375 30.203125 59.675781 31.523438 59.675781 C 32.839844 59.675781 33.910156 58.609375 33.910156 57.292969 L 33.910156 53.984375 L 38.460938 53.984375 C 38.875 54.011719 39.296875 54.015625 39.707031 54.011719 C 40.929688 54.011719 42.148438 53.921875 43.355469 53.753906 C 45.042969 53.523438 46.707031 53.078125 48.28125 52.40625 C 50.3125 51.5625 52.097656 50.207031 53.460938 48.484375 C 54.269531 47.441406 54.867188 46.273438 55.269531 45.03125 C 55.6875 43.761719 55.882812 42.429688 55.875 41.089844 C 55.882812 39.625 55.703125 38.164062 55.320312 36.753906 C 54.957031 35.417969 54.390625 34.136719 53.648438 32.972656 C 52.335938 30.960938 50.511719 29.335938 48.363281 28.246094 C 46.726562 27.414062 44.960938 26.839844 43.136719 26.542969 C 41.910156 26.335938 40.671875 26.230469 39.417969 26.21875 C 39.09375 26.21875 38.769531 26.230469 38.445312 26.253906 L 33.910156 26.28125 L 33.910156 19.605469 L 44.890625 19.605469 C 46.285156 19.605469 47.621094 19.050781 48.605469 18.0625 C 49.589844 17.082031 50.144531 15.742188 50.144531 14.351562 C 50.144531 12.957031 49.589844 11.621094 48.605469 10.636719 C 47.621094 9.652344 46.285156 9.097656 44.890625 9.097656 L 33.910156 9.097656 L 33.910156 6.742188 C 33.917969 6.097656 33.664062 5.476562 33.210938 5.023438 C 32.753906 4.566406 32.132812 4.3125 31.488281 4.324219 C 30.171875 4.347656 29.113281 5.429688 29.136719 6.742188 L 29.136719 9.097656 L 25.476562 9.097656 C 25.265625 9.089844 25.066406 9.089844 24.855469 9.089844 C 23.703125 9.089844 22.542969 9.175781 21.402344 9.347656 C 19.625 9.585938 17.875 10.070312 16.226562 10.769531 C 15.210938 11.207031 14.246094 11.757812 13.351562 12.402344 C 12.335938 13.132812 11.441406 14.011719 10.6875 14.988281 C 9.847656 16.089844 9.207031 17.335938 8.773438 18.648438 C 8.335938 20.03125 8.117188 21.484375 8.125 22.945312 C 8.117188 24.417969 8.335938 25.878906 8.789062 27.269531 C 9.214844 28.597656 9.875 29.839844 10.710938 30.949219 C 11.488281 31.941406 12.382812 32.8125 13.410156 33.542969 C 14.308594 34.1875 15.28125 34.730469 16.292969 35.164062 C 17.949219 35.863281 19.703125 36.339844 21.488281 36.589844 C 22.621094 36.753906 23.769531 36.835938 24.914062 36.835938 C 25.105469 36.835938 25.296875 36.835938 25.488281 36.828125 L 29.136719 36.8125 Z M 25.335938 26.324219 C 25.28125 26.324219 25.207031 26.324219 25.144531 26.335938 C 25.089844 26.335938 25.015625 26.335938 24.960938 26.335938 C 24.285156 26.335938 23.613281 26.289062 22.945312 26.179688 C 22.066406 26.066406 21.21875 25.835938 20.40625 25.496094 C 20.09375 25.363281 19.792969 25.199219 19.527344 25 C 19.347656 24.875 19.1875 24.71875 19.039062 24.539062 C 18.9375 24.394531 18.839844 24.226562 18.785156 24.054688 C 18.675781 23.6875 18.621094 23.3125 18.632812 22.945312 C 18.621094 22.570312 18.671875 22.199219 18.785156 21.847656 C 18.839844 21.675781 18.929688 21.511719 19.039062 21.367188 C 19.164062 21.199219 19.328125 21.042969 19.5 20.917969 C 19.765625 20.71875 20.054688 20.558594 20.363281 20.4375 C 21.164062 20.089844 22 19.863281 22.867188 19.746094 C 23.550781 19.644531 24.226562 19.59375 24.90625 19.59375 C 24.984375 19.59375 25.058594 19.59375 25.125 19.59375 C 25.207031 19.605469 25.285156 19.605469 25.375 19.605469 L 29.136719 19.605469 L 29.136719 26.289062 Z M 25.335938 26.324219 "/>
</g>
</svg>
