<svg xmlns="http://www.w3.org/2000/svg" xmlns:xlink="http://www.w3.org/1999/xlink" width="64px" height="64px" viewBox="0 0 64 64" version="1.1">
<defs>
<linearGradient id="linear0" gradientUnits="userSpaceOnUse" x1="0" y1="0" x2="0" y2="1" gradientTransform="matrix(55.351351,0,0,46.986486,4.324324,7.783784)">
<stop offset="0" style="stop-color:#05f7ff;stop-opacity:1;"/>
<stop offset="0.5" style="stop-color:#dddddd;stop-opacity:1;"/>
<stop offset="1" style="stop-color:#e6ff05;stop-opacity:1;"/>
</linearGradient>
</defs>
<g id="surface1">
<path style=" stroke:none;fill-rule:evenodd;fill:url(#linear0);" d="M 26.109375 7.785156 L 21.882812 14.921875 L 23.648438 17.921875 L 15.152344 32.691406 L 9.902344 35.796875 L 4.324219 45.136719 L 8.734375 52.554688 L 10.28125 52.460938 L 11.589844 54.757812 L 54.917969 54.769531 L 59.675781 47.011719 L 38 9.136719 L 35.335938 9.1875 L 34.730469 7.96875 Z M 42.433594 23.214844 L 35.308594 10.9375 L 28.226562 23.214844 Z M 43.039062 24.265625 L 27.621094 24.265625 L 23.164062 31.996094 L 31.839844 46.863281 L 56.234375 47 Z M 27.253906 41.242188 L 22.511719 33.125 L 17.828125 41.242188 Z M 27.863281 42.292969 L 17.226562 42.292969 L 12.136719 51.113281 L 33.078125 51.21875 Z M 27.863281 42.292969 "/>
</g>
</svg>
