<svg xmlns="http://www.w3.org/2000/svg" xmlns:xlink="http://www.w3.org/1999/xlink" width="64px" height="64px" viewBox="0 0 64 64" version="1.1">
<defs>
<linearGradient id="linear0" gradientUnits="userSpaceOnUse" x1="0" y1="0" x2="0" y2="1" gradientTransform="matrix(48.432432,0,0,44.711713,7.783784,9.644144)">
<stop offset="0" style="stop-color:#00fff2;stop-opacity:1;"/>
<stop offset="0.5" style="stop-color:#dddddd;stop-opacity:1;"/>
<stop offset="1" style="stop-color:#0062ff;stop-opacity:1;"/>
</linearGradient>
</defs>
<g id="surface1">
<path style=" stroke:none;fill-rule:nonzero;fill:url(#linear0);" d="M 32.058594 54.285156 C 32.054688 54.285156 32.042969 54.285156 32.039062 54.285156 C 32.039062 54.308594 32.039062 54.324219 32.039062 54.339844 C 32.023438 54.328125 32.011719 54.324219 31.988281 54.3125 C 31.988281 54.328125 31.976562 54.339844 31.96875 54.355469 C 31.957031 54.328125 31.941406 54.300781 31.929688 54.28125 C 27.1875 54.339844 22.375 53.175781 17.960938 50.636719 C 13.542969 48.070312 10.113281 44.460938 7.792969 40.300781 L 7.785156 40.300781 C 11.808594 40.238281 15.886719 41.03125 19.71875 42.824219 C 19.394531 42.3125 19.082031 41.792969 18.769531 41.265625 C 15.484375 35.570312 13.988281 29.355469 14.078125 23.230469 L 14.058594 23.238281 C 18.636719 25.785156 22.710938 29.335938 25.847656 33.855469 C 25.820312 33.242188 25.808594 32.621094 25.808594 32 C 25.808594 23.820312 28.0625 16.1875 31.96875 9.644531 C 35.878906 16.1875 38.199219 23.820312 38.199219 32 C 38.199219 32.605469 38.1875 33.203125 38.160156 33.796875 C 41.390625 29.042969 45.609375 25.28125 50.375 22.621094 L 50.375 22.589844 C 50.46875 28.839844 48.988281 35.203125 45.636719 41.011719 C 45.292969 41.597656 44.9375 42.179688 44.578125 42.753906 C 48.320312 41.027344 52.289062 40.257812 56.207031 40.3125 L 56.214844 40.3125 C 53.894531 44.472656 50.488281 48.113281 46.058594 50.675781 C 41.664062 53.207031 36.875 54.335938 32.152344 54.285156 C 32.121094 54.300781 32.089844 54.320312 32.058594 54.335938 C 32.058594 54.320312 32.058594 54.300781 32.058594 54.285156 Z M 32.058594 54.285156 "/>
</g>
</svg>
