<svg xmlns="http://www.w3.org/2000/svg" xmlns:xlink="http://www.w3.org/1999/xlink" width="64px" height="64px" viewBox="0 0 64 64" version="1.1">
<defs>
<linearGradient id="linear0" gradientUnits="userSpaceOnUse" x1="0" y1="0" x2="0" y2="1" gradientTransform="matrix(48.432432,0,0,46.576578,7.783784,8.711711)">
<stop offset="0" style="stop-color:#ffae00;stop-opacity:1;"/>
<stop offset="0.5" style="stop-color:#dddddd;stop-opacity:1;"/>
<stop offset="1" style="stop-color:#6600ff;stop-opacity:1;"/>
</linearGradient>
</defs>
<g id="surface1">
<path style=" stroke:none;fill-rule:evenodd;fill:url(#linear0);" d="M 48.414062 20.1875 C 51 23.753906 52.488281 28.160156 52.488281 32.933594 C 52.488281 45.382812 42.347656 55.289062 30.136719 55.289062 C 17.929688 55.289062 7.785156 45.382812 7.785156 32.933594 C 7.785156 20.484375 17.929688 10.582031 30.136719 10.582031 C 35.742188 10.582031 40.910156 12.664062 44.847656 16.136719 C 47.773438 12.542969 50.414062 9.847656 52.0625 9.0625 C 54.433594 7.726562 57.515625 10.503906 55.632812 12.53125 C 53.476562 14.085938 50.976562 16.773438 48.414062 20.1875 Z M 42.597656 18.929688 C 39.289062 16.085938 34.945312 14.355469 30.136719 14.355469 C 19.527344 14.355469 11.152344 22.792969 11.152344 32.941406 C 11.152344 43.09375 19.523438 51.523438 30.136719 51.523438 C 40.742188 51.523438 49.113281 43.089844 49.113281 32.941406 C 49.113281 29.324219 48.054688 25.917969 46.160156 23.070312 C 41.152344 30.050781 36.335938 38.511719 33.933594 44.089844 C 32.996094 46.59375 30.210938 46.59375 27.753906 44.089844 L 19.523438 33.175781 L 19.515625 33.175781 C 17.378906 30.011719 21.890625 26.324219 24.164062 29.613281 L 30.394531 38.226562 C 31.523438 34.734375 37.132812 25.996094 42.597656 18.929688 Z M 42.597656 18.929688 "/>
</g>
</svg>
