<svg xmlns="http://www.w3.org/2000/svg" xmlns:xlink="http://www.w3.org/1999/xlink" width="64px" height="64px" viewBox="0 0 64 64" version="1.1">
<defs>
<linearGradient id="linear0" gradientUnits="userSpaceOnUse" x1="0" y1="0" x2="0" y2="1" gradientTransform="matrix(48.432432,0,0,35.045044,7.783784,14.477479)">
<stop offset="0" style="stop-color:#ff8963;stop-opacity:1;"/>
<stop offset="0.5" style="stop-color:#dddddd;stop-opacity:1;"/>
<stop offset="1" style="stop-color:#0F6FFF;stop-opacity:1;"/>
</linearGradient>
</defs>
<g id="surface1">
<path style=" stroke:none;fill-rule:evenodd;fill:url(#linear0);" d="M 42.835938 38.6875 L 42.078125 37.839844 C 39.488281 34.996094 35.820312 33.363281 32 33.363281 C 28.179688 33.363281 24.511719 34.996094 21.921875 37.839844 L 21.164062 38.6875 L 15.335938 32.855469 L 16.050781 32.097656 C 20.238281 27.613281 25.902344 25.144531 32 25.144531 C 38.09375 25.144531 43.761719 27.613281 47.945312 32.097656 L 48.664062 32.855469 Z M 32 49.523438 L 23.136719 40.664062 L 23.792969 39.902344 C 25.878906 37.488281 28.867188 36.105469 32 36.105469 C 35.125 36.105469 38.121094 37.488281 40.207031 39.902344 L 40.863281 40.664062 Z M 50.648438 30.875 L 49.886719 30.066406 C 45.171875 25.089844 38.820312 22.339844 32 22.339844 C 25.1875 22.339844 18.835938 25.085938 14.113281 30.066406 L 13.351562 30.875 L 7.785156 25.308594 L 8.511719 24.539062 C 14.714844 18.050781 23.058594 14.476562 32 14.476562 C 40.941406 14.476562 49.28125 18.050781 55.488281 24.539062 L 56.214844 25.308594 Z M 50.648438 30.875 "/>
</g>
</svg>
