<svg xmlns="http://www.w3.org/2000/svg" xmlns:xlink="http://www.w3.org/1999/xlink" width="64px" height="64px" viewBox="0 0 64 64" version="1.1">
<defs>
<linearGradient id="linear0" gradientUnits="userSpaceOnUse" x1="0" y1="0" x2="0" y2="1" gradientTransform="matrix(42.576578,0,0,55.351351,10.711711,4.324324)">
<stop offset="0" style="stop-color:#ffae00;stop-opacity:1;"/>
<stop offset="0.5" style="stop-color:#dddddd;stop-opacity:1;"/>
<stop offset="1" style="stop-color:#bf1d1d;stop-opacity:1;"/>
</linearGradient>
</defs>
<g id="surface1">
<path style=" stroke:none;fill-rule:nonzero;fill:url(#linear0);" d="M 25.523438 25.613281 C 25.582031 25.386719 25.613281 25.148438 25.613281 24.90625 L 25.613281 7.164062 C 25.613281 5.597656 24.339844 4.324219 22.78125 4.324219 L 19.9375 4.324219 C 18.367188 4.324219 17.09375 5.597656 17.09375 7.164062 L 17.09375 24.90625 C 17.09375 25.148438 17.125 25.386719 17.1875 25.613281 L 13.542969 25.613281 C 11.984375 25.613281 10.710938 26.882812 10.710938 28.449219 L 10.710938 56.835938 C 10.710938 58.402344 11.984375 59.675781 13.542969 59.675781 L 50.457031 59.675781 C 52.015625 59.675781 53.289062 58.402344 53.289062 56.835938 L 53.289062 28.449219 C 53.289062 26.882812 52.015625 25.613281 50.457031 25.613281 L 46.8125 25.613281 C 46.875 25.386719 46.90625 25.148438 46.90625 24.90625 L 46.90625 7.164062 C 46.90625 5.597656 45.632812 4.324219 44.0625 4.324219 L 41.21875 4.324219 C 39.660156 4.324219 38.386719 5.597656 38.386719 7.164062 L 38.386719 24.90625 C 38.386719 25.148438 38.417969 25.386719 38.476562 25.613281 Z M 25.523438 25.613281 "/>
</g>
</svg>
