<svg xmlns="http://www.w3.org/2000/svg" xmlns:xlink="http://www.w3.org/1999/xlink" width="64px" height="64px" viewBox="0 0 64 64" version="1.1">
<g id="surface1">
<path style=" stroke:none;fill-rule:nonzero;fill:rgb(92.54902%,29.411766%,0.784314%);fill-opacity:1;" d="M 14.59375 9.511719 L 49.40625 9.511719 C 50.78125 9.511719 51.890625 10.628906 51.890625 12 L 51.890625 46.8125 C 51.890625 48.1875 50.78125 49.296875 49.40625 49.296875 L 14.59375 49.296875 C 13.222656 49.296875 12.109375 48.1875 12.109375 46.8125 L 12.109375 12 C 12.109375 10.628906 13.222656 9.511719 14.59375 9.511719 Z M 14.59375 9.511719 "/>
<path style=" stroke:none;fill-rule:nonzero;fill:rgb(16.078432%,21.176471%,23.921569%);fill-opacity:1;" d="M 11.910156 12.972656 L 52.089844 12.972656 C 53.414062 12.972656 54.488281 14.152344 54.488281 15.605469 L 54.488281 51.855469 C 54.488281 53.3125 53.414062 54.488281 52.089844 54.488281 L 11.910156 54.488281 C 10.585938 54.488281 9.511719 53.3125 9.511719 51.855469 L 9.511719 15.605469 C 9.511719 14.152344 10.585938 12.972656 11.910156 12.972656 Z M 11.910156 12.972656 "/>
<path style=" stroke:none;fill-rule:nonzero;fill:rgb(23.529412%,59.607846%,99.607843%);fill-opacity:1;" d="M 29.835938 36.335938 L 29.164062 37.988281 C 30.984375 43.640625 30.984375 43.640625 32 48.570312 C 33.015625 43.640625 33.015625 43.640625 34.839844 37.988281 L 32 31.0625 Z M 29.835938 36.335938 "/>
<path style=" stroke:none;fill-rule:nonzero;fill:rgb(92.54902%,47.843137%,0.784314%);fill-opacity:1;" d="M 29.625 19.890625 L 34.371094 19.890625 L 44.886719 45.835938 L 40.472656 45.835938 L 32 26.019531 L 23.527344 45.835938 L 19.113281 45.835938 Z M 29.625 19.890625 "/>
</g>
</svg>
