<svg xmlns="http://www.w3.org/2000/svg" xmlns:xlink="http://www.w3.org/1999/xlink" width="64px" height="64px" viewBox="0 0 64 64" version="1.1">
<defs>
<linearGradient id="linear0" gradientUnits="userSpaceOnUse" x1="0" y1="0" x2="0" y2="1" gradientTransform="matrix(48.432432,0,0,29.810811,7.783784,17.094595)">
<stop offset="0" style="stop-color:#00fff2;stop-opacity:1;"/>
<stop offset="0.5" style="stop-color:#dddddd;stop-opacity:1;"/>
<stop offset="1" style="stop-color:#0062ff;stop-opacity:1;"/>
</linearGradient>
</defs>
<g id="surface1">
<path style=" stroke:none;fill-rule:nonzero;fill:url(#linear0);" d="M 26.921875 17.105469 C 20.363281 17.09375 15.566406 22.125 12.503906 27.988281 C 8.511719 35.621094 4.296875 46.90625 12.429688 46.90625 C 20.988281 46.90625 28.097656 42.152344 33.125 38.5625 C 34.945312 41.890625 37.605469 46.90625 41.3125 46.90625 C 45.023438 46.90625 48.402344 45.441406 50.054688 44.144531 L 56.214844 35.5625 L 55.550781 34.796875 C 47.753906 38.660156 45.089844 41.3125 40.707031 32.976562 L 46.238281 27.890625 L 54.363281 17.835938 L 53.761719 17.09375 L 39.148438 29.890625 C 36.785156 24.996094 31.921875 17.113281 26.914062 17.105469 M 21.445312 23.433594 C 26.085938 23.433594 28.8125 30.273438 31.542969 35.339844 C 27.515625 37.632812 22.253906 40.460938 18.390625 39.671875 C 13.820312 38.734375 12.652344 33.945312 14.5 30.351562 C 16.132812 26.988281 18.136719 23.433594 21.4375 23.433594 "/>
</g>
</svg>
