<svg xmlns="http://www.w3.org/2000/svg" xmlns:xlink="http://www.w3.org/1999/xlink" width="64px" height="64px" viewBox="0 0 64 64" version="1.1">
<defs>
<linearGradient id="linear0" gradientUnits="userSpaceOnUse" x1="0" y1="0" x2="0" y2="1" gradientTransform="matrix(48.432432,0,0,41.783784,7.783784,11.108107)">
<stop offset="0" style="stop-color:#ffae00;stop-opacity:1;"/>
<stop offset="0.5" style="stop-color:#dddddd;stop-opacity:1;"/>
<stop offset="1" style="stop-color:#bf1d1d;stop-opacity:1;"/>
</linearGradient>
</defs>
<g id="surface1">
<path style=" stroke:none;fill-rule:evenodd;fill:url(#linear0);" d="M 34.851562 11.109375 C 39.835938 11.109375 43.867188 15.144531 43.867188 20.132812 C 43.863281 23.554688 41.921875 26.6875 38.851562 28.203125 L 41.023438 28.203125 C 42.070312 28.203125 42.921875 29.050781 42.921875 30.097656 L 42.921875 32.949219 L 56.214844 28.203125 L 56.214844 52.890625 L 42.921875 48.144531 L 42.921875 50.988281 C 42.921875 52.042969 42.070312 52.890625 41.023438 52.890625 L 10.636719 52.890625 C 9.582031 52.890625 8.734375 52.042969 8.734375 50.988281 L 8.734375 30.097656 C 8.734375 29.050781 9.582031 28.203125 10.636719 28.203125 L 12.789062 28.203125 C 9.726562 26.679688 7.789062 23.554688 7.785156 20.132812 C 7.785156 15.144531 11.824219 11.109375 16.808594 11.109375 C 21.789062 11.109375 25.828125 15.144531 25.828125 20.132812 C 25.820312 23.554688 23.878906 26.6875 20.8125 28.203125 L 30.828125 28.203125 C 27.765625 26.675781 25.828125 23.554688 25.828125 20.132812 C 25.828125 15.144531 29.863281 11.109375 34.851562 11.109375 Z M 34.851562 11.109375 "/>
</g>
</svg>
