<svg xmlns="http://www.w3.org/2000/svg" xmlns:xlink="http://www.w3.org/1999/xlink" width="64px" height="64px" viewBox="0 0 64 64" version="1.1">
<defs>
<linearGradient id="linear0" gradientUnits="userSpaceOnUse" x1="0" y1="0" x2="0" y2="1" gradientTransform="matrix(39.342341,0,0,48.432432,12.328829,7.783784)">
<stop offset="0" style="stop-color:#00b7ff;stop-opacity:1;"/>
<stop offset="0.5" style="stop-color:#dddddd;stop-opacity:1;"/>
<stop offset="1" style="stop-color:#ee42d9;stop-opacity:1;"/>
</linearGradient>
</defs>
<g id="surface1">
<path style=" stroke:none;fill-rule:nonzero;fill:url(#linear0);" d="M 32.011719 7.785156 C 21.160156 7.785156 12.328125 15.753906 12.328125 25.539062 C 12.328125 30.570312 14.566406 38.109375 17.894531 44.292969 C 22.039062 51.988281 27.042969 56.214844 32 56.214844 C 36.957031 56.214844 41.972656 51.988281 46.105469 44.292969 C 49.433594 38.109375 51.671875 30.558594 51.671875 25.539062 C 51.6875 15.753906 42.863281 7.785156 32.011719 7.785156 Z M 14.566406 25.550781 C 14.566406 16.988281 22.390625 10.023438 32.023438 10.023438 C 41.652344 10.023438 49.476562 16.988281 49.476562 25.550781 C 49.476562 34.675781 41.214844 54.011719 32.023438 54.011719 C 22.828125 54.011719 14.566406 34.675781 14.566406 25.550781 Z M 30.039062 35.976562 L 29.960938 35.226562 C 29.941406 34.988281 29.363281 29.503906 25.765625 27.539062 C 22.164062 25.582031 17.238281 28.078125 17.027344 28.175781 L 16.363281 28.515625 L 16.441406 29.28125 C 16.460938 29.511719 17.039062 35 20.636719 36.972656 C 21.648438 37.511719 22.761719 37.714844 23.835938 37.714844 C 26.625 37.714844 29.21875 36.40625 29.363281 36.324219 Z M 21.6875 35.011719 C 19.78125 33.960938 19.03125 31.191406 18.765625 29.835938 C 20.242188 29.234375 22.90625 28.515625 24.699219 29.503906 C 26.597656 30.539062 27.355469 33.308594 27.621094 34.664062 C 26.335938 35.1875 23.609375 36.058594 21.6875 35.011719 Z M 40.347656 37.714844 C 41.429688 37.714844 42.550781 37.511719 43.554688 36.972656 C 47.148438 35.011719 47.730469 29.511719 47.753906 29.28125 L 47.828125 28.515625 L 47.160156 28.175781 C 46.949219 28.066406 42.027344 25.570312 38.421875 27.539062 C 34.824219 29.503906 34.246094 35 34.230469 35.226562 L 34.148438 35.976562 L 34.8125 36.324219 C 34.972656 36.40625 37.566406 37.714844 40.347656 37.714844 Z M 45.414062 29.847656 C 45.144531 31.203125 44.402344 33.976562 42.488281 35.011719 C 40.582031 36.050781 37.839844 35.1875 36.554688 34.664062 C 36.820312 33.308594 37.566406 30.539062 39.476562 29.503906 C 41.394531 28.460938 44.132812 29.335938 45.414062 29.847656 Z M 27.960938 44.058594 L 35.929688 44.058594 L 35.929688 46.289062 L 27.960938 46.289062 Z M 27.960938 44.058594 "/>
</g>
</svg>
