<svg xmlns="http://www.w3.org/2000/svg" xmlns:xlink="http://www.w3.org/1999/xlink" width="64px" height="64px" viewBox="0 0 64 64" version="1.1">
<defs>
<linearGradient id="linear0" gradientUnits="userSpaceOnUse" x1="0" y1="0" x2="0" y2="1" gradientTransform="matrix(55.351351,0,0,51.666666,4.324324,6.166666)">
<stop offset="0" style="stop-color:#05f7ff;stop-opacity:1;"/>
<stop offset="0.5" style="stop-color:#dddddd;stop-opacity:1;"/>
<stop offset="1" style="stop-color:#e6ff05;stop-opacity:1;"/>
</linearGradient>
</defs>
<g id="surface1">
<path style=" stroke:none;fill-rule:evenodd;fill:url(#linear0);" d="M 40.527344 6.164062 C 57.285156 6.164062 59.675781 8.558594 59.675781 25.296875 L 59.675781 38.703125 C 59.675781 55.441406 57.285156 57.835938 40.527344 57.835938 L 23.472656 57.835938 C 6.714844 57.835938 4.324219 55.441406 4.324219 38.703125 L 4.324219 25.296875 C 4.324219 8.558594 6.714844 6.164062 23.472656 6.164062 Z M 33.648438 11.042969 C 32.960938 11.042969 32.351562 11.457031 32.09375 12.085938 C 31.828125 12.710938 31.976562 13.4375 32.457031 13.917969 L 50.410156 31.867188 C 50.886719 32.351562 51.613281 32.496094 52.242188 32.230469 C 52.867188 31.972656 53.28125 31.363281 53.28125 30.679688 L 53.28125 12.726562 C 53.28125 11.796875 52.527344 11.042969 51.597656 11.042969 Z M 33.648438 11.042969 "/>
</g>
</svg>
