<svg xmlns="http://www.w3.org/2000/svg" xmlns:xlink="http://www.w3.org/1999/xlink" width="64px" height="64px" viewBox="0 0 64 64" version="1.1">
<g id="surface1">
<path style=" stroke:none;fill-rule:nonzero;fill:rgb(100%,90.196079%,83.529413%);fill-opacity:1;" d="M 55.351562 32 C 55.351562 44.894531 44.894531 55.351562 32 55.351562 C 19.105469 55.351562 8.648438 44.894531 8.648438 32 C 8.648438 19.105469 19.105469 8.648438 32 8.648438 C 44.894531 8.648438 55.351562 19.105469 55.351562 32 Z M 55.351562 32 "/>
<path style=" stroke:none;fill-rule:nonzero;fill:rgb(76.862746%,46.27451%,18.431373%);fill-opacity:1;" d="M 43.273438 38.261719 C 43.273438 45.777344 38.261719 49.539062 32 49.539062 C 25.738281 49.539062 20.726562 45.78125 20.726562 38.261719 C 20.726562 29.496094 26.773438 14.460938 32 14.460938 C 37.226562 14.460938 43.273438 29.496094 43.273438 38.261719 Z M 43.273438 38.261719 "/>
<path style=" stroke:none;fill-rule:nonzero;fill:rgb(94.509804%,78.431374%,32.156864%);fill-opacity:1;" d="M 32 15.714844 C 27.578125 15.714844 21.980469 29.492188 21.980469 38.261719 C 21.980469 44.523438 25.953125 48.28125 32 48.28125 C 34.023438 48.28125 35.804688 47.855469 37.289062 47.0625 C 39.261719 44.074219 40.765625 40.691406 40.765625 37.011719 C 41.488281 38.640625 41.140625 41.410156 40.382812 44.273438 C 41.4375 42.679688 42.019531 40.65625 42.019531 38.261719 C 42.019531 29.492188 36.421875 15.714844 32 15.714844 Z M 30.121094 18.21875 C 30.121094 18.21875 29.492188 22.519531 29.492188 24.484375 C 29.492188 27.023438 30.746094 30.746094 30.746094 32 C 30.746094 33.859375 28.867188 37.011719 28.867188 37.011719 C 28.867188 37.011719 29.492188 34.796875 29.492188 32 C 29.492188 30.746094 28.242188 27.476562 28.242188 24.484375 C 28.242188 22.355469 30.121094 18.21875 30.121094 18.21875 Z M 34.507812 18.21875 C 34.507812 18.21875 38.261719 23.585938 38.261719 29.492188 C 38.261719 32 37.8125 33.992188 37.011719 35.757812 L 37.011719 29.492188 C 37.011719 24.953125 35.757812 21.980469 34.507812 18.21875 Z M 25.738281 25.738281 L 25.738281 29.492188 C 25.738281 32 25.371094 34.222656 24.484375 37.011719 L 24.484375 32 C 24.484375 29.867188 25.738281 25.738281 25.738281 25.738281 Z M 25.738281 25.738281 "/>
<path style=" stroke:none;fill-rule:nonzero;fill:rgb(25.098041%,23.137255%,23.529412%);fill-opacity:1;" d="M 26.363281 39.511719 C 25.324219 39.511719 24.484375 40.636719 24.484375 42.019531 C 25.164062 40.765625 25.84375 40.765625 26.363281 40.765625 C 26.886719 40.765625 27.523438 40.765625 28.242188 42.019531 C 28.242188 40.636719 27.402344 39.511719 26.363281 39.511719 Z M 36.386719 39.511719 C 35.34375 39.511719 34.507812 40.636719 34.507812 42.019531 C 35.1875 40.765625 35.863281 40.765625 36.386719 40.765625 C 36.90625 40.765625 37.542969 40.765625 38.261719 42.019531 C 38.261719 40.636719 37.421875 39.511719 36.386719 39.511719 Z M 30.121094 43.273438 C 29.773438 43.273438 29.492188 43.554688 29.492188 43.898438 C 29.492188 44.9375 30.332031 45.777344 31.375 45.777344 C 32.414062 45.777344 33.253906 44.9375 33.253906 43.898438 C 33.253906 43.554688 32.972656 43.273438 32.625 43.273438 C 32.28125 43.273438 32 43.554688 32 43.898438 C 32 44.246094 31.71875 44.523438 31.375 44.523438 C 31.027344 44.523438 30.746094 44.246094 30.746094 43.898438 C 30.746094 43.554688 30.464844 43.273438 30.121094 43.273438 Z M 30.121094 43.273438 "/>
</g>
</svg>
