<svg xmlns="http://www.w3.org/2000/svg" xmlns:xlink="http://www.w3.org/1999/xlink" width="64px" height="64px" viewBox="0 0 64 64" version="1.1">
<defs>
<linearGradient id="linear0" gradientUnits="userSpaceOnUse" x1="0" y1="0" x2="0" y2="1" gradientTransform="matrix(48.432432,0,0,37.26126,7.783784,13.369369)">
<stop offset="0" style="stop-color:#ffae00;stop-opacity:1;"/>
<stop offset="0.5" style="stop-color:#dddddd;stop-opacity:1;"/>
<stop offset="1" style="stop-color:#6600ff;stop-opacity:1;"/>
</linearGradient>
</defs>
<g id="surface1">
<path style=" stroke:none;fill-rule:nonzero;fill:url(#linear0);" d="M 29.203125 13.367188 C 15.234375 13.367188 7.785156 31.097656 7.785156 37.214844 C 7.785156 45.039062 11.511719 50.632812 19.890625 50.632812 L 22.6875 50.632812 C 28.839844 50.632812 36.300781 43.175781 38.523438 39.449219 C 39.449219 41.3125 41.3125 50.632812 48.765625 50.632812 C 51.957031 50.632812 56.214844 46.90625 56.214844 46.90625 C 46.90625 49.769531 44.109375 32.933594 44.109375 32.933594 L 55.285156 15.234375 L 45.96875 15.234375 L 41.3125 23.148438 C 40.625 21.308594 37.585938 13.367188 29.203125 13.367188 Z M 28.914062 18.0625 C 31.769531 18.378906 34.328125 21.988281 35.726562 31.066406 C 33.351562 35.726562 25.40625 46.011719 18.960938 45.96875 C 9.179688 45.90625 20.363281 17.125 28.914062 18.0625 Z M 28.914062 18.0625 "/>
</g>
</svg>
