<svg xmlns="http://www.w3.org/2000/svg" xmlns:xlink="http://www.w3.org/1999/xlink" width="64px" height="64px" viewBox="0 0 64 64" version="1.1">
<defs>
<linearGradient id="linear0" gradientUnits="userSpaceOnUse" x1="0" y1="0" x2="0" y2="1" gradientTransform="matrix(43.450449,0,0,51.891892,11.243243,6.054054)">
<stop offset="0" style="stop-color:#05f7ff;stop-opacity:1;"/>
<stop offset="0.5" style="stop-color:#dddddd;stop-opacity:1;"/>
<stop offset="1" style="stop-color:#e6ff05;stop-opacity:1;"/>
</linearGradient>
</defs>
<g id="surface1">
<path style=" stroke:none;fill-rule:evenodd;fill:url(#linear0);" d="M 38.027344 35.042969 C 38.027344 38.585938 38.113281 41.539062 36.324219 44.679688 C 34.882812 47.234375 32.585938 48.808594 30.03125 48.808594 C 26.542969 48.808594 24.503906 46.152344 24.503906 42.21875 C 24.503906 34.488281 31.449219 33.082031 38.027344 33.082031 Z M 47.1875 57.1875 C 46.589844 57.726562 45.71875 57.761719 45.039062 57.394531 C 42.023438 54.890625 41.484375 53.730469 39.835938 51.347656 C 34.839844 56.421875 31.3125 57.945312 24.847656 57.945312 C 17.191406 57.945312 11.242188 53.230469 11.242188 43.792969 C 11.242188 36.421875 15.238281 31.410156 20.9375 28.957031 C 25.863281 26.792969 32.757812 26.402344 38.027344 25.808594 L 38.027344 24.632812 C 38.027344 22.46875 38.191406 19.910156 36.917969 18.042969 C 35.8125 16.375 33.6875 15.6875 31.820312 15.6875 C 28.351562 15.6875 25.269531 17.460938 24.511719 21.136719 C 24.355469 21.957031 23.757812 22.765625 22.933594 22.808594 L 14.125 21.855469 C 13.382812 21.6875 12.554688 21.089844 12.769531 19.957031 C 14.792969 9.28125 24.445312 6.054688 33.09375 6.054688 C 37.511719 6.054688 43.296875 7.234375 46.785156 10.578125 C 51.207031 14.703125 50.78125 20.207031 50.78125 26.203125 L 50.78125 40.347656 C 50.78125 44.605469 52.550781 46.46875 54.210938 48.765625 C 54.792969 49.589844 54.921875 50.570312 54.179688 51.175781 C 52.324219 52.730469 49.023438 55.59375 47.207031 57.207031 Z M 47.1875 57.1875 "/>
</g>
</svg>
