<svg xmlns="http://www.w3.org/2000/svg" xmlns:xlink="http://www.w3.org/1999/xlink" width="64px" height="64px" viewBox="0 0 64 64" version="1.1">
<defs>
<linearGradient id="linear0" gradientUnits="userSpaceOnUse" x1="0" y1="0" x2="0" y2="1" gradientTransform="matrix(55.351351,0,0,46.090091,4.324324,8.954955)">
<stop offset="0" style="stop-color:#00fff2;stop-opacity:1;"/>
<stop offset="0.5" style="stop-color:#dddddd;stop-opacity:1;"/>
<stop offset="1" style="stop-color:#0062ff;stop-opacity:1;"/>
</linearGradient>
</defs>
<g id="surface1">
<path style=" stroke:none;fill-rule:evenodd;fill:url(#linear0);" d="M 52.890625 33.636719 C 52.890625 36.367188 46.785156 38.6875 38.390625 39.445312 L 32.335938 39.265625 L 30.851562 44.136719 L 30.835938 44.164062 C 30.273438 45.691406 29.429688 46.746094 28.429688 47.292969 C 27.421875 47.839844 26.285156 47.851562 25.402344 47.269531 C 24.503906 46.6875 24.0625 45.632812 24.214844 44.476562 C 24.367188 43.347656 25.070312 42.175781 26.3125 41.082031 L 26.476562 41.261719 L 26.394531 41.011719 L 28.941406 39.164062 L 22.664062 38.984375 C 16.257812 37.957031 11.902344 35.945312 11.902344 33.636719 C 11.902344 33.28125 12.058594 32.9375 12.257812 32.597656 C 7.773438 32.117188 4.324219 29.515625 4.324219 26.363281 C 4.324219 22.863281 8.539062 20.015625 13.726562 20.015625 C 15.457031 20.015625 17.0625 20.363281 18.457031 20.910156 C 19.269531 17.445312 21.90625 14.890625 25.082031 14.890625 C 26.125 14.890625 27.121094 15.199219 28.011719 15.691406 C 30.242188 11.71875 34.789062 8.957031 40.097656 8.957031 C 47.59375 8.957031 53.664062 14.402344 53.664062 21.105469 C 53.664062 22.203125 53.457031 23.238281 53.148438 24.253906 C 53.269531 24.230469 53.382812 24.203125 53.5 24.175781 C 53.726562 24.125 53.957031 24.070312 54.199219 24.070312 C 57.226562 24.070312 59.675781 26.117188 59.675781 28.648438 C 59.675781 31.179688 57.226562 33.234375 54.199219 33.234375 C 53.675781 33.234375 53.191406 33.117188 52.710938 32.996094 L 52.664062 32.984375 C 52.6875 33.054688 52.71875 33.121094 52.753906 33.1875 C 52.824219 33.335938 52.890625 33.484375 52.890625 33.636719 Z M 20.246094 50.863281 L 20.238281 50.894531 C 19.675781 52.421875 18.828125 53.476562 17.828125 54.023438 C 16.820312 54.570312 15.679688 54.578125 14.796875 54 C 13.902344 53.414062 13.460938 52.363281 13.617188 51.207031 C 13.765625 50.078125 14.46875 48.90625 15.710938 47.808594 L 15.875 47.988281 L 15.792969 47.742188 L 22.746094 42.691406 Z M 35.867188 51.511719 L 35.878906 51.476562 L 38.378906 43.308594 L 31.429688 48.355469 L 31.503906 48.597656 L 31.347656 48.417969 C 30.097656 49.515625 29.402344 50.6875 29.246094 51.820312 C 29.09375 52.96875 29.539062 54.027344 30.429688 54.613281 C 31.3125 55.1875 32.457031 55.1875 33.460938 54.636719 C 34.460938 54.089844 35.308594 53.03125 35.867188 51.511719 Z M 35.867188 51.511719 "/>
</g>
</svg>
