<svg xmlns="http://www.w3.org/2000/svg" xmlns:xlink="http://www.w3.org/1999/xlink" width="64px" height="64px" viewBox="0 0 64 64" version="1.1">
<defs>
<linearGradient id="linear0" gradientUnits="userSpaceOnUse" x1="0" y1="0" x2="0" y2="1" gradientTransform="matrix(25.662162,0,0,51.900902,19.166666,6.04955)">
<stop offset="0" style="stop-color:#ff8963;stop-opacity:1;"/>
<stop offset="0.5" style="stop-color:#dddddd;stop-opacity:1;"/>
<stop offset="1" style="stop-color:#0F6FFF;stop-opacity:1;"/>
</linearGradient>
</defs>
<g id="surface1">
<path style=" stroke:none;fill-rule:nonzero;fill:url(#linear0);" d="M 21.347656 57.625 C 20.957031 56.605469 21.96875 54.527344 23.226562 53.785156 C 24.203125 53.210938 24.164062 54.449219 23.570312 41.347656 C 23.320312 35.824219 23.113281 31.273438 23.113281 31.246094 C 23.113281 31.21875 22.226562 31.191406 21.148438 31.191406 C 18.476562 31.191406 18.496094 30.824219 21.273438 29.054688 L 23.363281 27.726562 L 22.460938 26.632812 C 21.242188 25.148438 20.691406 24.175781 20.148438 22.539062 C 18.625 17.988281 19.765625 13.261719 23.207031 9.8125 C 25.085938 7.941406 26.972656 6.894531 29.460938 6.375 C 31.488281 5.941406 32.511719 5.941406 34.539062 6.375 C 41.207031 7.78125 45.570312 14.292969 44.242188 20.855469 C 43.8125 22.957031 42.710938 25.292969 41.4375 26.78125 L 40.632812 27.714844 L 42.726562 29.054688 C 45.488281 30.8125 45.515625 31.191406 42.882812 31.191406 L 40.949219 31.191406 L 40.808594 33.214844 C 40.730469 34.324219 40.496094 39.285156 40.285156 44.234375 C 39.921875 52.820312 39.921875 53.242188 40.3125 53.46875 C 41.820312 54.347656 42.878906 56.058594 42.699219 57.3125 L 42.621094 57.863281 L 32.054688 57.929688 C 22.78125 57.984375 21.460938 57.941406 21.347656 57.636719 Z M 39 52.257812 L 38.929688 51.164062 L 25.070312 51.164062 L 25 52.257812 L 24.933594 53.355469 L 39.066406 53.355469 Z M 38.039062 49.785156 C 37.8125 49.207031 32.246094 42.296875 32 42.296875 C 31.753906 42.296875 26.1875 49.203125 25.960938 49.785156 C 25.847656 50.078125 26.671875 50.125 32 50.125 C 37.328125 50.125 38.152344 50.070312 38.039062 49.785156 Z M 28.386719 44.878906 C 29.933594 42.949219 31.1875 41.296875 31.1875 41.214844 C 31.1875 41 24.433594 32.558594 24.335938 32.660156 C 24.292969 32.691406 24.414062 36.152344 24.609375 40.335938 C 24.800781 44.511719 24.957031 48.1875 24.957031 48.5 C 24.957031 49.207031 24.789062 49.382812 28.386719 44.878906 Z M 39.375 40.792969 C 39.578125 36.363281 39.703125 32.699219 39.664062 32.652344 C 39.566406 32.5625 32.8125 41 32.8125 41.210938 C 32.8125 41.386719 38.875 48.988281 38.949219 48.90625 C 38.984375 48.882812 39.171875 45.226562 39.375 40.792969 Z M 35.578125 35.863281 C 37.484375 33.484375 39.042969 31.460938 39.042969 31.363281 C 39.042969 31.269531 35.875 31.1875 32 31.1875 C 28.125 31.1875 24.957031 31.265625 24.957031 31.363281 C 24.957031 31.5625 31.835938 40.191406 32 40.191406 C 32.058594 40.191406 33.664062 38.246094 35.578125 35.863281 Z M 27.285156 25.089844 L 29.039062 23.914062 L 28.621094 22.988281 C 28.117188 21.878906 28.085938 21.03125 28.511719 20.039062 C 29.582031 17.527344 32.929688 16.9375 34.734375 18.945312 C 35.808594 20.125 36.03125 21.484375 35.40625 22.90625 L 34.960938 23.914062 L 39.621094 27.050781 L 40.59375 25.988281 C 41.886719 24.578125 42.894531 22.445312 43.242188 20.394531 C 44.386719 13.578125 38.945312 7.175781 32 7.175781 C 26.820312 7.175781 22.253906 10.753906 20.921875 15.839844 C 20.015625 19.3125 20.960938 23.238281 23.339844 25.945312 C 24.460938 27.207031 23.957031 27.320312 27.285156 25.089844 Z M 33.867188 23.242188 C 34.761719 22.355469 34.914062 21.269531 34.300781 20.09375 C 33.382812 18.3125 30.617188 18.3125 29.699219 20.09375 C 29.085938 21.269531 29.238281 22.355469 30.132812 23.242188 C 30.800781 23.914062 31.070312 24.03125 32 24.03125 C 32.929688 24.03125 33.199219 23.910156 33.867188 23.242188 Z M 33.867188 23.242188 "/>
</g>
</svg>
