<svg xmlns="http://www.w3.org/2000/svg" xmlns:xlink="http://www.w3.org/1999/xlink" width="64px" height="64px" viewBox="0 0 64 64" version="1.1">
<defs>
<linearGradient id="linear0" gradientUnits="userSpaceOnUse" x1="0" y1="0" x2="0" y2="1" gradientTransform="matrix(51.891892,0,0,51.918919,6.054054,6.040541)">
<stop offset="0" style="stop-color:#ffae00;stop-opacity:1;"/>
<stop offset="0.5" style="stop-color:#dddddd;stop-opacity:1;"/>
<stop offset="1" style="stop-color:#bf1d1d;stop-opacity:1;"/>
</linearGradient>
</defs>
<g id="surface1">
<path style=" stroke:none;fill-rule:evenodd;fill:url(#linear0);" d="M 10.886719 36.527344 C 11.5 35.328125 12.246094 34.144531 13.09375 32.972656 C 12.175781 31.976562 11.335938 30.9375 10.59375 29.824219 C 9.191406 30.886719 7.949219 32.160156 6.820312 33.589844 C 8.148438 34.730469 9.496094 35.71875 10.886719 36.527344 Z M 6.378906 35.917969 C 6.6875 38.21875 7.347656 40.402344 8.296875 42.421875 C 8.730469 41.03125 9.28125 39.636719 10.011719 38.246094 C 8.828125 37.585938 7.613281 36.792969 6.378906 35.917969 Z M 6.054688 31.054688 C 6.136719 28.644531 6.542969 26.320312 7.226562 24.117188 C 7.886719 25.515625 8.613281 26.863281 9.460938 28.109375 C 8.242188 29.003906 7.121094 29.996094 6.054688 31.054688 Z M 20.882812 13.539062 C 20.449219 14.773438 20.152344 16.011719 19.945312 17.257812 C 18.597656 17.1875 17.285156 17.203125 16.011719 17.367188 C 15.835938 15.785156 15.886719 14.179688 16.125 12.460938 C 17.785156 12.71875 19.382812 13.054688 20.882812 13.539062 Z M 18.207031 10.058594 C 19.8125 9.003906 21.566406 8.164062 23.417969 7.523438 C 22.773438 8.699219 22.210938 9.867188 21.773438 11.042969 C 20.5 10.605469 19.324219 10.285156 18.207031 10.058594 Z M 13.578125 13.734375 C 12.109375 15.214844 10.824219 16.875 9.761719 18.675781 C 11 18.230469 12.28125 17.886719 13.609375 17.707031 C 13.445312 16.339844 13.460938 15.023438 13.578125 13.734375 Z M 11.726562 39.226562 C 10.867188 40.808594 10.148438 42.5625 9.527344 44.4375 C 11.460938 44.949219 13.339844 45.328125 15.1875 45.457031 C 15.203125 43.949219 15.246094 42.46875 15.335938 41.011719 C 14.148438 40.511719 12.949219 39.9375 11.726562 39.226562 Z M 27.59375 13.238281 L 30.078125 10.296875 C 28.886719 9.335938 27.578125 8.421875 26.148438 7.554688 C 25.355469 9.042969 24.660156 10.5 24.152344 11.894531 C 25.214844 12.230469 26.386719 12.707031 27.59375 13.238281 Z M 17.117188 41.644531 C 18.070312 43.148438 19.261719 44.488281 20.621094 45.636719 C 19.40625 45.738281 18.1875 45.746094 16.960938 45.652344 C 16.917969 44.199219 16.976562 42.875 17.117188 41.644531 Z M 15.5 51.886719 C 13.515625 50.351562 11.847656 48.46875 10.46875 46.367188 C 11.921875 46.738281 13.488281 47 15.1875 47.066406 C 15.273438 48.664062 15.363281 50.261719 15.5 51.886719 Z M 17.449219 53.476562 C 21.585938 56.3125 26.59375 57.960938 31.988281 57.960938 C 46.3125 57.960938 57.945312 46.324219 57.945312 32 C 57.945312 17.675781 46.3125 6.039062 31.988281 6.039062 C 31.027344 6.039062 30.078125 6.09375 29.136719 6.171875 C 31.144531 7.664062 32.78125 9.0625 34.039062 10.367188 L 30.121094 14.363281 C 30.734375 14.292969 31.355469 14.261719 31.988281 14.261719 C 41.773438 14.261719 49.726562 22.210938 49.726562 32 C 49.726562 41.789062 41.773438 49.738281 31.988281 49.738281 C 28.550781 49.738281 25.335938 48.757812 22.636719 47.023438 C 20.675781 47.234375 18.769531 47.3125 17.003906 47.171875 C 17.003906 49.078125 17.1875 51.207031 17.449219 53.476562 Z M 13.851562 20.082031 C 12.203125 20.3125 10.351562 20.792969 8.375 21.4375 C 9.117188 23.328125 10.027344 25.117188 11.160156 26.800781 C 12.289062 25.941406 13.503906 25.164062 14.789062 24.429688 C 14.335938 22.945312 14.003906 21.496094 13.851562 20.082031 Z M 16.796875 22.902344 C 17.53125 21.660156 18.433594 20.527344 19.460938 19.527344 C 18.441406 19.484375 17.363281 19.527344 16.199219 19.675781 C 16.320312 20.734375 16.53125 21.792969 16.796875 22.902344 Z M 15.097656 26.582031 C 14.621094 28.054688 14.339844 29.617188 14.28125 31.234375 C 13.53125 30.335938 12.835938 29.429688 12.1875 28.5 C 13.109375 27.789062 14.085938 27.164062 15.097656 26.582031 Z M 25.972656 15.390625 C 24.730469 15.769531 23.585938 16.351562 22.527344 17.050781 C 22.703125 16.125 22.941406 15.1875 23.246094 14.238281 C 24.1875 14.570312 25.089844 14.949219 25.972656 15.390625 Z M 15.738281 39.136719 C 15.113281 37.675781 14.671875 36.121094 14.449219 34.496094 C 13.773438 35.445312 13.136719 36.457031 12.558594 37.542969 C 13.59375 38.164062 14.660156 38.6875 15.738281 39.136719 Z M 15.738281 39.136719 "/>
</g>
</svg>
