<svg xmlns="http://www.w3.org/2000/svg" xmlns:xlink="http://www.w3.org/1999/xlink" width="64px" height="64px" viewBox="0 0 64 64" version="1.1">
<defs>
<linearGradient id="linear0" gradientUnits="userSpaceOnUse" x1="0" y1="0" x2="0" y2="1" gradientTransform="matrix(48.432432,0,0,48.432432,7.783784,7.783784)">
<stop offset="0" style="stop-color:#00fff2;stop-opacity:1;"/>
<stop offset="0.5" style="stop-color:#dddddd;stop-opacity:1;"/>
<stop offset="1" style="stop-color:#0062ff;stop-opacity:1;"/>
</linearGradient>
</defs>
<g id="surface1">
<path style=" stroke:none;fill-rule:nonzero;fill:url(#linear0);" d="M 30.265625 7.785156 C 28.5 7.785156 26.839844 8.542969 25.691406 9.863281 C 22.664062 9.191406 19.902344 11.226562 19.230469 13.996094 C 18.582031 13.726562 17.886719 13.589844 17.179688 13.585938 C 14.136719 13.585938 11.664062 16.078125 11.664062 19.136719 C 11.664062 19.265625 11.6875 19.378906 11.691406 19.511719 C 9.460938 20.238281 7.847656 22.347656 7.847656 24.78125 C 7.847656 27.488281 9.808594 29.742188 12.355469 30.234375 C 11.984375 30.949219 11.746094 31.730469 11.664062 32.539062 C 9.351562 33.242188 7.773438 35.382812 7.785156 37.800781 C 7.785156 41 10.476562 43.644531 13.742188 43.351562 C 14.484375 45.570312 16.558594 47.136719 18.945312 47.136719 C 20.605469 47.136719 22.125 46.390625 23.171875 45.117188 C 23.632812 45.210938 24.070312 45.273438 24.496094 45.273438 C 25.730469 45.269531 26.945312 44.957031 28.027344 44.363281 C 29.578125 44.882812 31.28125 44.710938 32.691406 43.886719 C 33.5 44.570312 34.523438 44.929688 35.59375 44.929688 C 36.941406 44.9375 38.214844 44.335938 39.0625 43.289062 C 40.765625 43.757812 42.613281 43.515625 44.171875 42.660156 C 45.1875 44.28125 46.960938 45.265625 48.867188 45.273438 C 51.914062 45.273438 54.386719 42.785156 54.386719 39.726562 C 54.386719 38.199219 53.761719 36.738281 52.652344 35.6875 C 54.773438 34.890625 56.214844 32.828125 56.214844 30.488281 C 56.214844 27.976562 54.515625 25.785156 52.085938 25.160156 C 51.582031 23.296875 50.148438 21.835938 48.300781 21.28125 C 48.589844 20.613281 48.738281 19.890625 48.742188 19.164062 C 48.742188 16.109375 46.265625 13.617188 43.226562 13.617188 C 42.273438 13.609375 41.339844 13.847656 40.511719 14.3125 C 39.554688 12.652344 37.792969 11.621094 35.878906 11.597656 C 34.96875 9.296875 32.742188 7.78125 30.261719 7.785156 Z M 32.503906 46.1875 C 31.648438 46.503906 30.738281 46.664062 29.824219 46.664062 C 29.285156 46.664062 28.742188 46.613281 28.214844 46.503906 C 28.085938 46.5625 27.972656 46.609375 27.835938 46.664062 C 27.917969 47.414062 27.960938 48.253906 27.960938 49.152344 C 27.960938 51.753906 26.363281 52.117188 23.707031 52.402344 C 22.3125 52.550781 21.089844 52.679688 20.523438 53.632812 C 20.199219 54.171875 20.1875 54.828125 20.488281 55.585938 C 20.644531 55.96875 21.027344 56.214844 21.4375 56.214844 L 42.53125 56.214844 C 43.089844 56.214844 43.539062 55.765625 43.539062 55.207031 C 43.539062 53.292969 41.585938 53.171875 40.417969 53.09375 C 38.363281 52.960938 37.097656 52.730469 37.042969 50.132812 C 37.03125 49.578125 37.089844 48.148438 37.171875 46.726562 C 36.648438 46.863281 36.136719 46.976562 35.59375 46.976562 C 34.511719 46.972656 33.457031 46.703125 32.503906 46.1875 Z M 32.503906 46.1875 "/>
</g>
</svg>
