<svg xmlns="http://www.w3.org/2000/svg" xmlns:xlink="http://www.w3.org/1999/xlink" width="64px" height="64px" viewBox="0 0 64 64" version="1.1">
<defs>
<linearGradient id="linear0" gradientUnits="userSpaceOnUse" x1="0" y1="0" x2="0" y2="1" gradientTransform="matrix(41.432432,0,0,48.432432,11.283783,7.783784)">
<stop offset="0" style="stop-color:#ffae00;stop-opacity:1;"/>
<stop offset="0.5" style="stop-color:#dddddd;stop-opacity:1;"/>
<stop offset="1" style="stop-color:#6600ff;stop-opacity:1;"/>
</linearGradient>
</defs>
<g id="surface1">
<path style=" stroke:none;fill-rule:evenodd;fill:url(#linear0);" d="M 52.714844 25.957031 L 52.714844 37.652344 C 52.714844 39.308594 51.402344 40.644531 49.769531 40.644531 C 48.148438 40.644531 46.828125 39.300781 46.828125 37.652344 L 46.828125 25.957031 C 46.828125 24.296875 48.136719 22.960938 49.769531 22.960938 C 51.402344 22.960938 52.714844 24.300781 52.714844 25.957031 Z M 14.21875 22.960938 C 12.597656 22.960938 11.285156 24.300781 11.285156 25.957031 L 11.285156 37.644531 C 11.285156 39.296875 12.597656 40.644531 14.21875 40.644531 C 15.863281 40.644531 17.171875 39.296875 17.171875 37.644531 L 17.171875 25.957031 C 17.175781 25.164062 16.875 24.40625 16.320312 23.839844 C 15.765625 23.285156 15.011719 22.960938 14.21875 22.960938 Z M 18.945312 44.414062 C 18.945312 45.6875 19.976562 46.710938 21.242188 46.710938 L 23.875 46.710938 L 23.875 53.226562 C 23.875 54.878906 25.191406 56.214844 26.820312 56.214844 C 28.449219 56.214844 29.765625 54.878906 29.765625 53.226562 L 29.765625 46.710938 L 34.347656 46.710938 L 34.347656 53.226562 C 34.347656 54.878906 35.675781 56.214844 37.296875 56.214844 C 38.929688 56.214844 40.242188 54.878906 40.242188 53.226562 L 40.242188 46.710938 L 42.875 46.710938 C 43.484375 46.710938 44.066406 46.472656 44.496094 46.039062 C 44.929688 45.613281 45.171875 45.027344 45.171875 44.417969 L 45.171875 23.042969 L 18.945312 23.042969 Z M 45.105469 21.152344 L 18.886719 21.152344 C 19.230469 17.171875 21.929688 13.769531 25.789062 11.984375 L 23.363281 8.460938 C 23.214844 8.253906 23.253906 7.976562 23.433594 7.847656 C 23.625 7.726562 23.894531 7.785156 24.042969 7.988281 L 26.558594 11.644531 C 28.292969 10.96875 30.136719 10.621094 32 10.625 C 33.863281 10.625 35.707031 10.96875 37.441406 11.644531 L 39.957031 7.996094 C 40.105469 7.785156 40.375 7.726562 40.566406 7.847656 C 40.746094 7.976562 40.785156 8.253906 40.636719 8.460938 L 38.210938 11.984375 C 42.0625 13.769531 44.769531 17.171875 45.109375 21.152344 Z M 27.921875 16.066406 C 27.921875 15.679688 27.769531 15.3125 27.496094 15.039062 C 27.21875 14.769531 26.855469 14.621094 26.472656 14.621094 C 25.671875 14.621094 25.023438 15.261719 25.011719 16.0625 C 25.011719 16.867188 25.664062 17.515625 26.472656 17.515625 C 27.273438 17.515625 27.921875 16.867188 27.921875 16.0625 Z M 39.164062 16.066406 C 39.164062 15.679688 39.011719 15.3125 38.734375 15.039062 C 38.460938 14.769531 38.09375 14.621094 37.710938 14.621094 C 37.121094 14.621094 36.59375 14.976562 36.367188 15.515625 C 36.144531 16.0625 36.269531 16.6875 36.6875 17.097656 C 37.105469 17.511719 37.730469 17.636719 38.269531 17.410156 C 38.8125 17.179688 39.164062 16.648438 39.160156 16.0625 Z M 39.164062 16.066406 "/>
</g>
</svg>
