<svg xmlns="http://www.w3.org/2000/svg" xmlns:xlink="http://www.w3.org/1999/xlink" width="64px" height="64px" viewBox="0 0 64 64" version="1.1">
<defs>
<linearGradient id="linear0" gradientUnits="userSpaceOnUse" x1="0" y1="0" x2="0" y2="1" gradientTransform="matrix(55.351351,0,0,34.594595,4.324324,14.702703)">
<stop offset="0" style="stop-color:#ff8963;stop-opacity:1;"/>
<stop offset="0.5" style="stop-color:#dddddd;stop-opacity:1;"/>
<stop offset="1" style="stop-color:#0F6FFF;stop-opacity:1;"/>
</linearGradient>
</defs>
<g id="surface1">
<path style=" stroke:none;fill-rule:nonzero;fill:url(#linear0);" d="M 9.175781 14.714844 C 7.324219 15.070312 3.734375 21.265625 4.40625 23.011719 C 5.238281 25.171875 7.742188 27.289062 10.863281 29.230469 C 7.867188 31.234375 6.066406 34.691406 6.066406 38.40625 C 6.066406 44.417969 10.730469 49.292969 16.484375 49.296875 C 22.234375 49.296875 26.894531 44.421875 26.894531 38.40625 C 26.902344 37.71875 26.835938 37.03125 26.714844 36.355469 C 27.421875 36.59375 28.363281 36.960938 28.933594 37.136719 C 30.144531 37.511719 30.945312 33.269531 30.945312 33.269531 C 30.945312 33.269531 15.710938 22.058594 9.839844 14.949219 C 9.664062 14.734375 9.441406 14.664062 9.175781 14.714844 Z M 54.824219 14.714844 C 54.558594 14.664062 54.335938 14.734375 54.160156 14.949219 C 48.289062 22.058594 33.054688 33.269531 33.054688 33.269531 C 33.054688 33.269531 33.855469 37.511719 35.066406 37.136719 C 35.636719 36.960938 36.578125 36.59375 37.285156 36.355469 C 37.164062 37.03125 37.097656 37.71875 37.105469 38.40625 C 37.105469 44.421875 41.765625 49.296875 47.515625 49.296875 C 53.269531 49.292969 57.933594 44.417969 57.933594 38.40625 C 57.933594 34.691406 56.132812 31.234375 53.136719 29.230469 C 56.257812 27.289062 58.761719 25.171875 59.59375 23.011719 C 60.265625 21.265625 56.675781 15.070312 54.824219 14.714844 Z M 51.941406 30.941406 C 52.378906 30.890625 52.929688 31.1875 53.671875 31.96875 C 57.058594 35.511719 57.058594 41.273438 53.671875 44.8125 C 50.28125 48.363281 44.773438 48.363281 41.386719 44.8125 C 37.996094 41.273438 44.132812 41.949219 47.515625 38.40625 C 50.164062 35.636719 50.363281 31.097656 51.941406 30.941406 Z M 12.078125 30.949219 C 13.644531 31.109375 13.835938 35.636719 16.484375 38.40625 C 19.867188 41.949219 26.023438 41.292969 22.636719 44.835938 C 19.246094 48.382812 13.734375 48.382812 10.347656 44.835938 C 6.957031 41.292969 6.957031 35.53125 10.347656 31.988281 C 11.085938 31.210938 11.636719 30.910156 12.078125 30.949219 Z M 12.078125 30.949219 "/>
</g>
</svg>
