<svg xmlns="http://www.w3.org/2000/svg" xmlns:xlink="http://www.w3.org/1999/xlink" width="64px" height="64px" viewBox="0 0 64 64" version="1.1">
<defs>
<linearGradient id="linear0" gradientUnits="userSpaceOnUse" x1="0" y1="0" x2="0" y2="1" gradientTransform="matrix(48.432432,0,0,55.351351,7.783784,4.324324)">
<stop offset="0" style="stop-color:#ffae00;stop-opacity:1;"/>
<stop offset="0.5" style="stop-color:#dddddd;stop-opacity:1;"/>
<stop offset="1" style="stop-color:#bf1d1d;stop-opacity:1;"/>
</linearGradient>
</defs>
<g id="surface1">
<path style=" stroke:none;fill-rule:nonzero;fill:url(#linear0);" d="M 13.164062 28.039062 C 11.941406 27.675781 7.785156 30.671875 7.785156 30.671875 C 9.988281 22.671875 23.9375 14.863281 23.9375 14.863281 C 22.589844 14.375 15.863281 14.863281 15.863281 14.863281 C 25.789062 5.410156 40.089844 9.59375 40.089844 9.59375 C 40.457031 7.53125 45.472656 4.324219 45.472656 4.324219 C 44.855469 4.929688 45.472656 8.273438 45.472656 8.273438 C 46.085938 7.1875 48.164062 6.960938 48.164062 6.960938 C 47.0625 9.503906 47.136719 14.625 47.136719 14.625 C 50.320312 17.785156 53.875 28.699219 53.875 28.699219 L 55.226562 30.636719 C 56.941406 33.066406 56.242188 36.875 54.542969 37.78125 C 49.78125 40.570312 47.621094 35.011719 47.621094 35.011719 C 42.351562 34.402344 37.394531 28.039062 37.394531 28.039062 C 30.699219 31.738281 38.273438 43.488281 41.347656 47.433594 C 45.289062 52.488281 40.089844 59.652344 40.089844 59.652344 C 40.089844 59.652344 26.632812 60.582031 16.542969 50.4375 C 11.578125 45.226562 7.785156 39.40625 13.164062 28.039062 Z M 13.164062 28.039062 "/>
</g>
</svg>
