<svg xmlns="http://www.w3.org/2000/svg" xmlns:xlink="http://www.w3.org/1999/xlink" width="64px" height="64px" viewBox="0 0 64 64" version="1.1">
<defs>
<linearGradient id="linear0" gradientUnits="userSpaceOnUse" x1="0" y1="0" x2="0" y2="1" gradientTransform="matrix(51.891892,0,0,41.504503,6.054054,11.247747)">
<stop offset="0" style="stop-color:#ffae00;stop-opacity:1;"/>
<stop offset="0.5" style="stop-color:#dddddd;stop-opacity:1;"/>
<stop offset="1" style="stop-color:#bf1d1d;stop-opacity:1;"/>
</linearGradient>
</defs>
<g id="surface1">
<path style=" stroke:none;fill-rule:nonzero;fill:url(#linear0);" d="M 30.269531 11.246094 L 30.269531 12.976562 L 33.730469 12.976562 L 33.730469 11.246094 Z M 30.269531 14.707031 L 30.269531 16.4375 L 33.730469 16.4375 L 33.730469 14.707031 Z M 30.269531 18.164062 L 30.269531 28.542969 L 18.164062 28.542969 C 18.050781 28.539062 17.933594 28.550781 17.8125 28.570312 C 12.488281 28.726562 7.851562 32.347656 6.460938 37.515625 C 5.050781 42.800781 7.367188 48.402344 12.109375 51.136719 C 16.808594 53.851562 22.746094 53.085938 26.621094 49.300781 L 37.378906 49.300781 C 41.253906 53.085938 47.191406 53.851562 51.890625 51.136719 C 56.632812 48.402344 58.949219 42.800781 57.539062 37.515625 C 56.148438 32.335938 51.496094 28.714844 46.164062 28.570312 C 46.054688 28.550781 45.945312 28.542969 45.835938 28.542969 L 33.730469 28.542969 L 33.730469 18.164062 Z M 18.164062 32.003906 L 45.835938 32.003906 C 49.761719 32.003906 53.179688 34.625 54.191406 38.414062 C 55.210938 42.207031 53.558594 46.1875 50.164062 48.144531 C 46.949219 50 42.984375 49.570312 40.207031 47.175781 C 39.757812 46.730469 39.3125 45.828125 38.5 45.839844 L 25.5 45.839844 C 24.6875 45.828125 24.136719 46.765625 23.796875 47.171875 C 21.027344 49.566406 17.050781 50 13.835938 48.144531 C 10.441406 46.1875 8.792969 42.207031 9.8125 38.414062 C 10.824219 34.625 14.238281 32.003906 18.164062 32.003906 Z M 16.433594 35.460938 L 16.433594 38.921875 L 12.972656 38.921875 L 12.972656 42.382812 L 16.433594 42.382812 L 16.433594 45.839844 L 19.890625 45.839844 L 19.890625 42.382812 L 23.351562 42.382812 L 23.351562 38.921875 L 19.890625 38.921875 L 19.890625 35.460938 Z M 45.835938 35.460938 C 44.882812 35.460938 44.109375 36.238281 44.109375 37.191406 C 44.109375 38.148438 44.882812 38.921875 45.835938 38.921875 C 46.792969 38.921875 47.566406 38.148438 47.566406 37.191406 C 47.566406 36.238281 46.792969 35.460938 45.835938 35.460938 Z M 42.378906 38.921875 C 41.421875 38.921875 40.648438 39.699219 40.648438 40.652344 C 40.648438 41.609375 41.421875 42.382812 42.378906 42.382812 C 43.335938 42.382812 44.109375 41.609375 44.109375 40.652344 C 44.109375 39.699219 43.335938 38.921875 42.378906 38.921875 Z M 49.296875 38.921875 C 48.339844 38.921875 47.566406 39.699219 47.566406 40.652344 C 47.566406 41.609375 48.339844 42.382812 49.296875 42.382812 C 50.253906 42.382812 51.027344 41.609375 51.027344 40.652344 C 51.027344 39.699219 50.253906 38.921875 49.296875 38.921875 Z M 45.835938 42.382812 C 44.882812 42.382812 44.109375 43.160156 44.109375 44.113281 C 44.109375 45.066406 44.882812 45.839844 45.835938 45.839844 C 46.792969 45.839844 47.566406 45.066406 47.566406 44.113281 C 47.566406 43.160156 46.792969 42.382812 45.835938 42.382812 Z M 45.835938 42.382812 "/>
</g>
</svg>
