<svg xmlns="http://www.w3.org/2000/svg" xmlns:xlink="http://www.w3.org/1999/xlink" width="64px" height="64px" viewBox="0 0 64 64" version="1.1">
<defs>
<linearGradient id="linear0" gradientUnits="userSpaceOnUse" x1="0" y1="0" x2="0" y2="1" gradientTransform="matrix(55.351351,0,0,41.99099,4.324324,11.004505)">
<stop offset="0" style="stop-color:#05f7ff;stop-opacity:1;"/>
<stop offset="0.5" style="stop-color:#dddddd;stop-opacity:1;"/>
<stop offset="1" style="stop-color:#e6ff05;stop-opacity:1;"/>
</linearGradient>
</defs>
<g id="surface1">
<path style=" stroke:none;fill-rule:evenodd;fill:url(#linear0);" d="M 32 15.894531 L 28.335938 12.234375 C 27.515625 11.414062 26.417969 11.003906 25.320312 11.003906 C 24.21875 11.003906 23.121094 11.414062 22.296875 12.234375 L 5.554688 28.984375 C 3.914062 30.621094 3.914062 33.375 5.558594 35.015625 L 22.300781 51.761719 C 23.941406 53.40625 26.699219 53.40625 28.335938 51.765625 L 32.003906 48.105469 L 35.664062 51.761719 C 37.300781 53.40625 40.058594 53.40625 41.703125 51.765625 L 58.441406 35.015625 C 60.085938 33.378906 60.085938 30.621094 58.441406 28.984375 L 41.703125 12.234375 C 40.878906 11.414062 39.78125 11.003906 38.679688 11.003906 C 37.582031 11.003906 36.484375 11.414062 35.660156 12.234375 Z M 29.550781 18.339844 L 25.910156 14.703125 C 25.738281 14.53125 25.53125 14.460938 25.324219 14.460938 C 25.117188 14.460938 24.875 14.53125 24.734375 14.703125 L 8.027344 31.410156 C 7.851562 31.585938 7.785156 31.792969 7.785156 32 C 7.785156 32.207031 7.851562 32.414062 8.027344 32.589844 L 24.734375 49.296875 C 24.910156 49.46875 25.117188 49.539062 25.324219 49.539062 C 25.53125 49.539062 25.738281 49.46875 25.910156 49.296875 L 29.554688 45.652344 L 18.917969 35.015625 C 17.273438 33.375 17.273438 30.621094 18.914062 28.984375 Z M 29.550781 18.339844 "/>
</g>
</svg>
