<svg xmlns="http://www.w3.org/2000/svg" xmlns:xlink="http://www.w3.org/1999/xlink" width="64px" height="64px" viewBox="0 0 64 64" version="1.1">
<defs>
<linearGradient id="linear0" gradientUnits="userSpaceOnUse" x1="0" y1="0" x2="0" y2="1" gradientTransform="matrix(50.414416,0,0,55.351351,6.792793,4.324324)">
<stop offset="0" style="stop-color:#ffae00;stop-opacity:1;"/>
<stop offset="0.5" style="stop-color:#dddddd;stop-opacity:1;"/>
<stop offset="1" style="stop-color:#6600ff;stop-opacity:1;"/>
</linearGradient>
</defs>
<g id="surface1">
<path style=" stroke:none;fill-rule:nonzero;fill:url(#linear0);" d="M 9.996094 48.136719 L 9.988281 48.136719 C 9.78125 48.023438 9.578125 47.886719 9.386719 47.738281 C 9.292969 47.679688 9.207031 47.617188 9.132812 47.542969 C 9.003906 47.457031 8.886719 47.351562 8.78125 47.238281 C 8.730469 47.203125 8.6875 47.160156 8.644531 47.105469 C 7.472656 45.949219 6.792969 44.367188 6.792969 42.6875 L 6.792969 21.308594 C 6.792969 19.058594 8.011719 16.984375 9.988281 15.863281 L 28.800781 5.164062 C 29.820312 4.585938 30.976562 4.296875 32.152344 4.328125 L 32.152344 4.324219 C 33.21875 4.347656 34.269531 4.636719 35.199219 5.164062 L 54.011719 15.863281 C 55.988281 16.976562 57.207031 19.058594 57.207031 21.308594 L 57.207031 42.691406 C 57.207031 44.9375 55.988281 47.015625 54.011719 48.136719 L 35.199219 58.835938 C 33.214844 59.957031 30.785156 59.957031 28.800781 58.835938 Z M 9.996094 48.136719 "/>
</g>
</svg>
