<svg xmlns="http://www.w3.org/2000/svg" xmlns:xlink="http://www.w3.org/1999/xlink" width="64px" height="64px" viewBox="0 0 64 64" version="1.1">
<defs>
<linearGradient id="linear0" gradientUnits="userSpaceOnUse" x1="0" y1="0" x2="0" y2="1" gradientTransform="matrix(53.211713,0,0,55.351351,5.391892,4.324324)">
<stop offset="0" style="stop-color:#00a2ff;stop-opacity:1;"/>
<stop offset="0.5" style="stop-color:#dddddd;stop-opacity:1;"/>
<stop offset="1" style="stop-color:#00ffae;stop-opacity:1;"/>
</linearGradient>
</defs>
<g id="surface1">
<path style=" stroke:none;fill-rule:nonzero;fill:url(#linear0);" d="M 28.734375 59.476562 C 28.566406 59.363281 28.308594 59.273438 28.148438 59.273438 C 27.773438 59.269531 27.714844 59.070312 27.957031 58.597656 C 28.441406 57.644531 28.761719 56.394531 28.878906 55.023438 C 29.015625 53.320312 29.023438 49.738281 28.886719 49.011719 C 28.726562 48.152344 28.335938 47.445312 27.945312 47.300781 C 27.765625 47.234375 27.539062 47.136719 27.445312 47.085938 C 27.136719 46.921875 26.523438 46.988281 25.988281 47.234375 C 25.296875 47.554688 24.699219 48.089844 24.761719 48.328125 C 24.835938 48.597656 24.421875 49.144531 23.972656 49.378906 C 23.554688 49.597656 23.433594 49.742188 22.886719 50.6875 C 22.703125 51.011719 22.375 51.46875 22.164062 51.699219 L 21.785156 52.117188 L 21.996094 51.558594 C 22.109375 51.253906 22.253906 50.875 22.3125 50.714844 C 22.367188 50.558594 22.390625 50.410156 22.363281 50.378906 C 22.335938 50.347656 21.6875 50.476562 20.9375 50.664062 C 20.1875 50.855469 19.589844 50.972656 19.617188 50.929688 C 19.726562 50.746094 20.527344 50.417969 21.175781 50.285156 C 21.554688 50.203125 21.949219 50.109375 22.054688 50.070312 C 22.679688 49.851562 23.308594 49.011719 22.988281 48.8125 C 22.914062 48.761719 22.703125 48.71875 22.527344 48.71875 C 21.679688 48.714844 22.160156 48.238281 23.589844 47.660156 C 25.636719 46.828125 27.164062 45.96875 27.164062 45.636719 C 27.164062 45.402344 25.375 42.792969 24.875 42.300781 C 24.609375 42.039062 24.257812 41.796875 24.097656 41.761719 C 23.761719 41.6875 23.058594 41.988281 23.042969 42.21875 C 23.039062 42.308594 23.027344 42.433594 23.015625 42.503906 C 22.996094 42.679688 22.390625 43.03125 22.117188 43.039062 C 21.824219 43.039062 21.558594 43.441406 21.53125 43.929688 C 21.511719 44.335938 20.175781 46.757812 20 46.714844 C 19.949219 46.703125 19.882812 46.523438 19.855469 46.3125 L 19.808594 45.933594 L 19.644531 46.1875 C 19.554688 46.320312 19.441406 46.550781 19.402344 46.6875 C 19.355469 46.828125 19.164062 47.28125 18.96875 47.6875 C 18.78125 48.105469 18.570312 48.710938 18.511719 49.042969 C 18.402344 49.632812 18.375 49.664062 17.679688 50.199219 C 17.285156 50.5 16.78125 50.890625 16.558594 51.070312 L 16.152344 51.394531 L 16.460938 51.042969 C 17.4375 49.957031 18.015625 48.914062 18.289062 47.769531 C 18.386719 47.339844 18.441406 46.960938 18.40625 46.929688 C 18.367188 46.890625 18.082031 47.0625 17.765625 47.308594 C 16.71875 48.117188 16.765625 48.09375 16.847656 47.78125 C 16.945312 47.378906 16.679688 47.410156 15.664062 47.917969 C 15.011719 48.246094 14.875 48.289062 15.03125 48.113281 C 15.5 47.589844 16.164062 47.210938 17.011719 46.988281 C 18.050781 46.714844 18.402344 46.515625 18.863281 45.949219 C 19.207031 45.527344 19.960938 44.261719 19.960938 44.105469 C 19.960938 43.9375 18.636719 44.132812 18.160156 44.363281 C 17.757812 44.566406 17.664062 44.664062 17.609375 44.960938 C 17.527344 45.363281 17.039062 45.835938 16.613281 45.921875 C 16.46875 45.960938 16.144531 46.117188 15.894531 46.285156 C 15.375 46.625 15.273438 46.539062 15.59375 46.023438 C 15.71875 45.824219 15.796875 45.636719 15.765625 45.609375 C 15.738281 45.582031 15.539062 45.648438 15.324219 45.757812 C 14.917969 45.96875 14.738281 46.105469 13.414062 47.175781 C 12.984375 47.527344 12.605469 47.792969 12.578125 47.765625 C 12.550781 47.738281 12.648438 47.558594 12.792969 47.367188 C 12.9375 47.179688 13.054688 46.988281 13.054688 46.945312 C 13.054688 46.902344 12.808594 46.894531 12.5 46.9375 C 12.164062 46.976562 11.941406 46.96875 11.941406 46.910156 C 11.941406 46.863281 12.320312 46.671875 12.785156 46.496094 C 13.660156 46.164062 14.6875 45.605469 15.03125 45.261719 C 15.230469 45.066406 15.230469 45.0625 15.03125 44.917969 C 14.847656 44.785156 14.867188 44.769531 15.363281 44.703125 C 15.691406 44.660156 16.082031 44.511719 16.394531 44.3125 C 16.796875 44.050781 17.207031 43.921875 18.503906 43.660156 C 19.386719 43.476562 20.257812 43.28125 20.433594 43.226562 C 20.773438 43.117188 21.476562 42.414062 21.476562 42.179688 C 21.476562 41.988281 20.757812 41.664062 20.011719 41.511719 C 19.671875 41.449219 19.0625 41.320312 18.652344 41.230469 C 18.003906 41.089844 17.839844 41.089844 17.433594 41.207031 C 17.175781 41.285156 16.769531 41.351562 16.53125 41.363281 C 16.207031 41.367188 16.003906 41.457031 15.71875 41.691406 C 15.511719 41.867188 14.929688 42.265625 14.429688 42.578125 C 13.921875 42.882812 13.21875 43.3125 12.863281 43.539062 C 12.148438 43.984375 11.894531 43.988281 12.421875 43.550781 C 12.957031 43.105469 12.863281 43.003906 12.011719 43.078125 C 11.082031 43.164062 11.261719 43.039062 12.597656 42.6875 C 13.550781 42.433594 14.375 42.03125 14.375 41.820312 C 14.375 41.769531 14.066406 41.699219 13.6875 41.660156 C 12.589844 41.539062 12.496094 41.421875 13.488281 41.414062 C 14.191406 41.410156 14.472656 41.363281 14.808594 41.191406 C 15.335938 40.929688 15.894531 40.484375 15.894531 40.335938 C 15.894531 40.144531 14.050781 39.402344 13.160156 39.234375 C 12.6875 39.148438 11.890625 39 11.402344 38.90625 C 10.613281 38.761719 10.382812 38.757812 9.496094 38.875 C 8.6875 38.984375 8.378906 38.984375 7.933594 38.882812 C 7.347656 38.753906 7.210938 38.605469 7.597656 38.527344 C 7.726562 38.5 8.011719 38.441406 8.234375 38.402344 C 8.460938 38.355469 9.152344 38.335938 9.785156 38.347656 C 10.410156 38.363281 10.921875 38.335938 10.921875 38.285156 C 10.921875 38.164062 10.230469 37.671875 9.402344 37.203125 C 8.488281 36.679688 9.027344 36.820312 10.609375 37.515625 C 13.082031 38.609375 14.636719 39.054688 14.386719 38.59375 C 14.335938 38.496094 13.988281 38.085938 13.613281 37.679688 C 13.242188 37.273438 12.984375 36.941406 13.03125 36.941406 C 13.085938 36.941406 13.578125 37.363281 14.132812 37.867188 C 16.257812 39.835938 16.578125 39.984375 18.308594 39.800781 C 19.707031 39.652344 22.226562 39.296875 22.441406 39.210938 C 22.679688 39.121094 22.636719 39.039062 22.078125 38.417969 C 21.460938 37.746094 20.9375 37.429688 17.808594 35.839844 C 14.855469 34.347656 14.890625 34.363281 14.269531 34.582031 C 13.851562 34.730469 13.734375 34.734375 13.378906 34.617188 C 12.894531 34.457031 12.292969 34.511719 11.230469 34.8125 C 10.734375 34.949219 10.039062 35.042969 9.253906 35.082031 C 8.5625 35.113281 7.851562 35.203125 7.617188 35.289062 C 7.152344 35.457031 6.648438 35.4375 6.585938 35.246094 C 6.5625 35.179688 6.652344 35.105469 6.785156 35.082031 C 7.78125 34.886719 8.144531 34.789062 8.28125 34.664062 C 8.390625 34.570312 8.875 34.515625 9.910156 34.484375 C 11.023438 34.445312 11.503906 34.386719 11.878906 34.242188 C 12.152344 34.136719 12.394531 34 12.414062 33.941406 C 12.4375 33.878906 12.257812 33.746094 12.015625 33.644531 C 11.78125 33.542969 11.199219 33.289062 10.71875 33.078125 C 9.847656 32.6875 9.113281 32.53125 6.929688 32.273438 C 5.636719 32.121094 5.554688 32.089844 5.847656 31.867188 L 6.078125 31.699219 L 5.390625 31.246094 L 5.699219 31.292969 C 5.863281 31.3125 6.800781 31.542969 7.78125 31.808594 C 9.761719 32.328125 10.214844 32.378906 10.214844 32.085938 C 10.214844 31.765625 9.472656 30.933594 9.0625 30.796875 C 8.921875 30.746094 8.890625 30.671875 8.941406 30.484375 C 9.078125 29.945312 8.324219 29.207031 6.476562 28.066406 C 5.960938 27.746094 5.554688 27.460938 5.582031 27.4375 C 5.609375 27.410156 5.960938 27.527344 6.375 27.703125 C 7.121094 28.015625 7.375 28.078125 7.367188 27.9375 C 7.367188 27.894531 7.117188 27.523438 6.8125 27.113281 C 6.503906 26.699219 6.257812 26.320312 6.257812 26.273438 C 6.257812 26.152344 6.539062 26.164062 6.613281 26.289062 C 6.644531 26.339844 6.757812 26.386719 6.851562 26.386719 C 6.96875 26.386719 7.238281 26.71875 7.625 27.347656 C 7.949219 27.867188 8.503906 28.636719 8.855469 29.042969 C 9.207031 29.457031 9.902344 30.3125 10.402344 30.957031 C 11.078125 31.828125 11.445312 32.207031 11.851562 32.449219 C 12.511719 32.839844 14.511719 33.617188 14.921875 33.632812 C 15.625 33.664062 15.203125 33.085938 13.929688 32.265625 C 13.417969 31.9375 12.914062 31.605469 12.800781 31.523438 C 12.605469 31.375 12.605469 31.367188 12.828125 31.363281 C 12.957031 31.363281 13.054688 31.328125 13.054688 31.289062 C 13.054688 31.246094 12.566406 30.71875 11.96875 30.121094 C 10.882812 29.03125 10.738281 28.792969 11.460938 29.289062 C 11.6875 29.441406 11.917969 29.523438 12.027344 29.488281 C 12.242188 29.417969 12.9375 30.117188 14.394531 31.878906 C 15.851562 33.632812 16.429688 34.113281 17.609375 34.566406 C 18.753906 35.003906 19.039062 35.164062 20.0625 35.9375 C 21.078125 36.703125 21.484375 36.941406 21.757812 36.941406 C 22.042969 36.945312 22.050781 36.757812 21.773438 36.203125 C 21.445312 35.558594 20.808594 34.761719 20.386719 34.488281 C 20.179688 34.351562 19.6875 34.117188 19.289062 33.960938 C 18.839844 33.792969 18.324219 33.488281 17.917969 33.160156 C 17.039062 32.429688 16.488281 32.0625 15.636719 31.636719 C 14.78125 31.207031 14.378906 30.835938 15.132812 31.164062 C 15.503906 31.335938 15.636719 31.351562 15.753906 31.257812 C 15.863281 31.164062 16.03125 31.238281 16.59375 31.660156 C 16.976562 31.941406 17.320312 32.175781 17.355469 32.175781 C 17.390625 32.175781 17.417969 32.078125 17.417969 31.957031 C 17.417969 31.769531 17.539062 31.847656 18.105469 32.390625 C 19.175781 33.417969 20.367188 34.136719 20.6875 33.941406 C 20.835938 33.847656 19.363281 32.375 18.410156 31.664062 C 17.976562 31.335938 17.335938 30.820312 16.988281 30.511719 C 16.636719 30.203125 16.015625 29.71875 15.613281 29.4375 C 14.894531 28.945312 14.839844 28.929688 14.175781 28.929688 C 13.285156 28.929688 12.597656 28.710938 10.136719 27.652344 C 8.136719 26.796875 7.753906 26.589844 8.152344 26.589844 C 8.4375 26.589844 8.957031 26.785156 10.335938 27.390625 C 11.71875 28.011719 12.855469 28.3125 13.726562 28.3125 C 14.4375 28.3125 14.679688 28.253906 14.679688 28.0625 C 14.679688 27.996094 14.246094 27.523438 13.71875 27.015625 C 12.800781 26.136719 12.71875 26.085938 11.890625 25.835938 C 11.335938 25.664062 10.902344 25.460938 10.671875 25.257812 C 10.246094 24.886719 10.207031 24.707031 10.59375 24.902344 C 11.058594 25.136719 12.230469 25.488281 12.414062 25.460938 C 12.679688 25.40625 12.054688 24.742188 11.1875 24.160156 C 10.179688 23.484375 8.960938 22.496094 9.078125 22.457031 C 9.132812 22.4375 9.585938 22.644531 10.085938 22.917969 C 11.113281 23.472656 11.328125 23.570312 11.328125 23.46875 C 11.328125 23.429688 10.894531 22.867188 10.367188 22.230469 C 9.402344 21.054688 9.132812 20.617188 9.71875 21.164062 C 10.113281 21.539062 12.117188 23.785156 13.203125 25.066406 C 13.644531 25.589844 14.027344 25.96875 14.042969 25.90625 C 14.066406 25.839844 13.847656 25.207031 13.558594 24.488281 C 12.914062 22.902344 12.8125 22.570312 12.996094 22.730469 C 13.171875 22.875 13.691406 23.9375 14.484375 25.753906 C 15.246094 27.515625 15.761719 28.269531 17.132812 29.589844 C 18.363281 30.789062 19.28125 31.457031 19.335938 31.203125 C 19.351562 31.113281 19.015625 30.335938 18.589844 29.476562 C 17.90625 28.105469 17.699219 27.792969 16.902344 26.902344 C 16.066406 25.984375 14.367188 23.488281 14.378906 23.203125 C 14.386719 23.011719 15.636719 24.394531 15.839844 24.820312 C 16.164062 25.496094 16.527344 25.988281 16.828125 26.144531 C 17.089844 26.28125 17.117188 26.28125 17.117188 26.113281 C 17.117188 25.808594 16.523438 24.660156 16 23.949219 C 15.726562 23.582031 14.742188 22.558594 13.820312 21.675781 C 12.894531 20.796875 12.144531 20.039062 12.144531 19.988281 C 12.144531 19.933594 12.28125 19.890625 12.449219 19.890625 C 12.664062 19.890625 12.847656 19.988281 13.066406 20.226562 L 13.375 20.554688 L 13.3125 20.246094 C 13.148438 19.375 13.136719 19.238281 13.234375 19.335938 C 13.289062 19.390625 13.457031 19.765625 13.609375 20.164062 C 13.957031 21.09375 14.542969 21.917969 15.164062 22.324219 C 15.558594 22.589844 15.648438 22.617188 15.679688 22.484375 C 15.699219 22.390625 15.636719 22.207031 15.550781 22.070312 C 15.460938 21.9375 15.390625 21.78125 15.390625 21.714844 C 15.390625 21.578125 15.714844 21.976562 16.242188 22.761719 C 16.457031 23.082031 16.671875 23.339844 16.71875 23.339844 C 16.894531 23.339844 16.796875 22.96875 16.261719 21.617188 C 15.960938 20.863281 15.734375 20.230469 15.757812 20.207031 C 15.90625 20.050781 16.914062 22.039062 16.914062 22.484375 C 16.914062 22.664062 17.011719 23.078125 17.136719 23.394531 C 17.324219 23.894531 17.523438 24.125 18.625 25.152344 C 19.328125 25.808594 20.632812 27.050781 21.527344 27.914062 C 23.054688 29.394531 23.851562 30.039062 23.988281 29.90625 C 24.066406 29.820312 23.570312 28.910156 22.886719 27.890625 C 22.136719 26.773438 21.242188 25.8125 20.253906 25.0625 C 19.402344 24.414062 18.539062 23.589844 18.539062 23.421875 C 18.539062 23.320312 18.878906 23.558594 19.835938 24.328125 C 20.320312 24.71875 20.875 25.066406 21.015625 25.066406 C 21.136719 25.066406 21.066406 24.742188 20.878906 24.378906 C 20.589844 23.824219 16.042969 19.257812 15.511719 18.988281 C 14.292969 18.375 12.242188 16.890625 12.242188 16.625 C 12.242188 16.46875 12.410156 16.550781 13.082031 17.039062 C 13.625 17.4375 14.382812 17.839844 14.375 17.730469 C 14.375 17.71875 13.984375 17.308594 13.503906 16.808594 C 12.386719 15.644531 11.605469 14.511719 11.917969 14.511719 C 11.960938 14.511719 12.410156 14.96875 12.910156 15.527344 C 13.410156 16.085938 13.894531 16.539062 13.988281 16.539062 C 14.085938 16.542969 14.605469 17.078125 15.148438 17.738281 C 15.6875 18.390625 16.488281 19.273438 16.917969 19.691406 C 17.734375 20.488281 19.375 21.71875 19.617188 21.71875 C 20.042969 21.71875 19.511719 20.390625 18.609375 19.1875 C 17.472656 17.6875 15.367188 15.605469 14.242188 14.867188 C 14.039062 14.738281 13.96875 14.625 14.011719 14.484375 C 14.039062 14.347656 13.9375 14.132812 13.699219 13.835938 C 13.285156 13.335938 13.308594 13.171875 13.753906 13.488281 C 14.351562 13.914062 14.320312 13.789062 13.511719 12.488281 C 13.148438 11.910156 12.851562 11.390625 12.851562 11.339844 C 12.851562 11.1875 13.488281 11.679688 13.988281 12.21875 C 14.539062 12.8125 14.585938 12.738281 14.21875 11.914062 C 14.082031 11.59375 13.988281 11.3125 14.011719 11.292969 C 14.078125 11.230469 15.328125 13.125 16.257812 14.699219 C 17.054688 16.042969 18.039062 17.273438 18.1875 17.125 C 18.289062 17.03125 18.171875 16.566406 17.609375 14.769531 L 17.191406 13.449219 L 16.285156 12.527344 C 15.300781 11.539062 15.1875 11.394531 15.1875 11.164062 C 15.1875 11.085938 15.410156 11.238281 15.6875 11.511719 C 16.011719 11.835938 16.242188 11.984375 16.347656 11.945312 C 16.449219 11.90625 16.59375 12.011719 16.78125 12.261719 C 16.929688 12.46875 17.179688 12.773438 17.335938 12.941406 C 17.613281 13.246094 18.445312 15.515625 19.824219 19.738281 C 20.136719 20.6875 20.613281 21.96875 20.890625 22.582031 C 21.171875 23.199219 21.445312 23.8125 21.503906 23.957031 L 21.609375 24.207031 L 21.699219 23.902344 C 21.886719 23.257812 21.542969 20.703125 21.121094 19.636719 C 20.921875 19.136719 20.890625 18.9375 20.957031 18.523438 L 21.03125 18.011719 L 21.421875 19.109375 C 21.792969 20.152344 21.855469 20.246094 22.6875 21.144531 C 23.164062 21.664062 23.875 22.460938 24.257812 22.914062 C 25.3125 24.171875 25.855469 24.433594 25.292969 23.414062 C 24.972656 22.839844 23.363281 20.460938 21.808594 18.242188 C 20.4375 16.308594 19.523438 14.664062 18.894531 13.023438 C 18.066406 10.839844 18.054688 10.824219 17.230469 10.511719 C 16.835938 10.363281 16.46875 10.175781 16.402344 10.09375 C 16.203125 9.855469 16.976562 9.90625 17.382812 10.160156 C 17.6875 10.347656 17.730469 10.351562 17.789062 10.203125 C 17.824219 10.113281 17.800781 9.921875 17.738281 9.785156 C 17.570312 9.421875 17.59375 9.289062 17.789062 9.449219 C 17.878906 9.523438 18.265625 10.226562 18.644531 11.011719 C 19.308594 12.363281 19.335938 12.410156 19.339844 12.011719 C 19.347656 11.78125 19.1875 11.03125 18.988281 10.351562 C 18.789062 9.671875 18.644531 9.058594 18.664062 8.996094 C 18.714844 8.855469 19.0625 9.902344 19.351562 11.054688 C 20.039062 13.8125 21.886719 17.863281 22.890625 18.820312 L 23.203125 19.117188 L 23.203125 18.863281 C 23.203125 18.160156 22.113281 15.644531 21.691406 15.382812 C 21.632812 15.347656 21.539062 15.226562 21.472656 15.113281 C 21.378906 14.933594 21.390625 14.917969 21.625 14.976562 C 21.796875 15.023438 21.886719 15 21.886719 14.921875 C 21.886719 14.757812 20.984375 12.363281 20.410156 11.011719 C 19.5625 9.011719 19.515625 8.765625 20.179688 9.726562 C 20.597656 10.328125 20.675781 10.097656 20.328125 9.269531 C 20.1875 8.945312 20.089844 8.664062 20.109375 8.644531 C 20.125 8.625 20.238281 8.675781 20.355469 8.746094 C 20.539062 8.863281 20.585938 8.855469 20.664062 8.734375 C 20.785156 8.539062 20.789062 8.542969 21.152344 9.386719 C 21.734375 10.71875 22.757812 12.558594 22.863281 12.457031 C 22.910156 12.410156 22.582031 11.441406 21.902344 9.625 C 21.28125 7.972656 21.242188 7.707031 21.71875 8.242188 C 21.960938 8.523438 22.152344 8.9375 22.429688 9.824219 C 22.636719 10.503906 23.003906 11.378906 23.265625 11.835938 C 23.515625 12.273438 23.839844 13.039062 23.988281 13.527344 C 24.238281 14.351562 24.3125 14.476562 25.058594 15.300781 C 25.5 15.789062 26.1875 16.664062 26.585938 17.242188 C 26.984375 17.824219 27.324219 18.242188 27.347656 18.175781 C 27.503906 17.703125 25.457031 12.902344 24.363281 11.199219 C 24.179688 10.910156 23.617188 10.226562 23.113281 9.675781 C 22.230469 8.714844 21.835938 8.132812 21.910156 7.902344 C 21.929688 7.839844 22.144531 8.054688 22.390625 8.375 C 22.917969 9.054688 23.703125 9.691406 23.839844 9.554688 C 24.003906 9.390625 23.636719 8.511719 23.191406 7.960938 C 22.8125 7.503906 22.792969 7.460938 22.984375 7.429688 C 23.109375 7.410156 23.207031 7.308594 23.230469 7.175781 C 23.257812 6.988281 23.292969 7.011719 23.476562 7.363281 C 23.59375 7.585938 23.792969 8.109375 23.917969 8.527344 C 24.042969 8.945312 24.28125 9.585938 24.441406 9.945312 C 24.699219 10.511719 24.753906 10.582031 24.847656 10.417969 C 24.917969 10.289062 24.914062 10.039062 24.828125 9.589844 C 24.761719 9.234375 24.726562 8.882812 24.753906 8.8125 C 24.78125 8.738281 24.855469 8.949219 24.921875 9.289062 C 25.335938 11.273438 25.910156 13.136719 26.039062 12.878906 C 26.164062 12.636719 25.972656 10.550781 25.761719 9.742188 C 25.460938 8.621094 25.136719 7.8125 24.984375 7.8125 C 24.636719 7.8125 24.0625 6.742188 23.8125 5.613281 C 23.671875 4.988281 23.765625 4.941406 24.011719 5.511719 C 24.164062 5.867188 24.246094 5.960938 24.394531 5.921875 C 24.539062 5.886719 24.609375 5.714844 24.691406 5.164062 C 24.863281 4.105469 25.03125 4.039062 25.03125 5.03125 C 25.039062 5.914062 25.21875 6.957031 25.476562 7.511719 C 25.566406 7.707031 25.625 7.765625 25.605469 7.644531 C 25.554688 7.390625 25.785156 7.011719 25.90625 7.136719 C 26.003906 7.234375 26.105469 8.03125 26.300781 10.300781 C 26.488281 12.515625 26.570312 12.988281 26.957031 14.164062 L 27.257812 15.070312 L 27.203125 14.261719 C 27.171875 13.8125 27.109375 13.085938 27.054688 12.636719 C 27.003906 12.191406 26.960938 11.714844 26.96875 11.570312 C 26.972656 11.324219 26.976562 11.328125 27.136719 11.636719 C 27.21875 11.8125 27.375 11.984375 27.46875 12.011719 C 27.597656 12.039062 27.675781 12.234375 27.761719 12.707031 C 27.824219 13.066406 27.875 13.449219 27.875 13.558594 C 27.875 13.664062 27.917969 13.820312 27.972656 13.90625 C 28.105469 14.109375 28.496094 13.226562 28.5 12.703125 C 28.503906 12.496094 28.273438 11.636719 27.988281 10.808594 C 27.703125 9.96875 27.382812 8.824219 27.273438 8.257812 C 27.039062 7.027344 26.878906 6.6875 26.273438 6.117188 C 25.894531 5.761719 25.835938 5.664062 25.941406 5.539062 C 26.09375 5.351562 25.996094 5.175781 25.734375 5.175781 C 25.488281 5.175781 25.488281 5.054688 25.738281 4.824219 C 25.933594 4.648438 25.949219 4.664062 26.324219 5.265625 C 26.597656 5.710938 26.753906 5.867188 26.875 5.828125 C 27.058594 5.773438 27.171875 6.054688 27.578125 7.585938 C 27.691406 8.050781 27.828125 8.421875 27.875 8.421875 C 27.914062 8.421875 27.976562 8.117188 28.011719 7.738281 C 28.0625 7.207031 28.023438 6.785156 27.824219 5.839844 C 27.6875 5.179688 27.589844 4.617188 27.613281 4.589844 C 27.6875 4.515625 27.945312 5.097656 28.132812 5.738281 C 28.226562 6.070312 28.445312 6.617188 28.617188 6.957031 C 29.042969 7.785156 29.082031 7.460938 28.742188 5.882812 C 28.457031 4.542969 28.4375 4.363281 28.582031 4.363281 C 28.636719 4.363281 28.773438 4.699219 28.890625 5.097656 C 29.460938 7.082031 30.144531 9.199219 30.234375 9.289062 C 30.441406 9.496094 30.1875 7.652344 29.835938 6.449219 C 29.363281 4.78125 29.355469 4.757812 29.652344 5.3125 C 29.855469 5.6875 29.957031 5.785156 30.097656 5.738281 C 30.265625 5.6875 30.308594 5.789062 30.449219 6.621094 C 30.789062 8.515625 31.113281 11.253906 31.179688 12.738281 C 31.265625 14.558594 31.324219 14.472656 31.679688 12.042969 C 32.011719 9.765625 32.003906 9.289062 31.609375 7.699219 C 31.375 6.738281 31.3125 6.363281 31.402344 6.28125 C 31.484375 6.199219 31.542969 6.335938 31.636719 6.792969 C 31.824219 7.761719 31.949219 7.710938 32.089844 6.597656 C 32.125 6.292969 32.1875 5.996094 32.21875 5.941406 C 32.3125 5.78125 32.417969 6.292969 32.433594 7.003906 C 32.449219 7.914062 32.570312 8.066406 32.792969 7.445312 C 32.886719 7.175781 33.015625 6.835938 33.082031 6.699219 C 33.191406 6.445312 33.191406 6.449219 33.234375 6.796875 C 33.28125 7.257812 32.890625 8.726562 32.527344 9.460938 C 32.257812 10.003906 32.136719 10.761719 32.320312 10.761719 C 32.4375 10.761719 33.578125 9.910156 33.8125 9.648438 C 33.996094 9.441406 34.015625 9.234375 34.0625 7.460938 C 34.09375 6.378906 34.148438 5.460938 34.191406 5.421875 C 34.363281 5.253906 34.421875 5.558594 34.457031 6.757812 C 34.484375 7.808594 34.511719 8.015625 34.644531 8.015625 C 34.820312 8.015625 34.8125 8.117188 34.488281 9.441406 C 34.152344 10.800781 34.042969 11.6875 33.972656 13.660156 C 33.90625 15.386719 33.886719 15.523438 33.625 16.015625 C 33.242188 16.753906 33.261719 16.972656 33.671875 16.589844 L 33.988281 16.289062 L 33.917969 16.746094 C 33.882812 17 33.8125 17.523438 33.773438 17.914062 C 33.726562 18.390625 33.59375 18.839844 33.367188 19.296875 C 32.847656 20.367188 32.707031 22.1875 32.785156 27.050781 C 32.882812 33.214844 32.957031 34.773438 33.121094 34.550781 C 33.488281 34.039062 34.054688 31.617188 34.269531 29.585938 C 34.335938 28.972656 34.613281 27.351562 34.882812 25.984375 C 35.71875 21.753906 35.8125 20.4375 35.6875 14.609375 C 35.550781 8.210938 35.542969 5.886719 35.664062 5.769531 C 35.8125 5.621094 35.855469 5.828125 36 7.4375 C 36.164062 9.261719 36.246094 9.335938 36.503906 7.882812 C 36.570312 7.503906 36.664062 7.230469 36.707031 7.273438 C 36.917969 7.488281 36.8125 9.355469 36.449219 11.726562 C 36.285156 12.847656 36.246094 14.988281 36.394531 15.226562 C 36.46875 15.335938 36.570312 15.191406 36.839844 14.613281 C 37.539062 13.113281 38.023438 10.863281 38.023438 9.148438 C 38.023438 8.375 38.042969 8.273438 38.269531 8.0625 C 38.445312 7.90625 38.539062 7.675781 38.589844 7.320312 C 38.664062 6.773438 38.835938 6.605469 38.835938 7.082031 C 38.828125 7.734375 38.597656 9.324219 38.230469 11.214844 C 38.011719 12.335938 37.785156 13.527344 37.71875 13.875 C 37.664062 14.214844 37.484375 14.789062 37.324219 15.136719 C 36.988281 15.886719 36.890625 16.238281 37.011719 16.238281 C 37.164062 16.238281 37.515625 15.652344 38.105469 14.4375 C 38.582031 13.441406 38.679688 13.292969 38.710938 13.53125 C 38.757812 13.894531 38.4375 14.886719 37.8125 16.296875 C 37.539062 16.917969 37.3125 17.558594 37.320312 17.71875 L 37.328125 18.015625 L 37.46875 17.691406 C 37.632812 17.328125 37.773438 17.203125 37.867188 17.355469 C 37.90625 17.410156 37.972656 17.460938 38.015625 17.460938 C 38.0625 17.460938 38.4375 16.917969 38.847656 16.265625 C 40.1875 14.121094 40.578125 12.597656 40.203125 10.960938 C 39.949219 9.851562 39.914062 9.539062 40.039062 9.539062 C 40.097656 9.539062 40.210938 9.417969 40.289062 9.269531 C 40.421875 9.015625 40.4375 9.078125 40.5 10.109375 C 40.539062 10.714844 40.597656 11.375 40.632812 11.5625 C 40.6875 11.878906 40.703125 11.890625 40.824219 11.726562 C 40.902344 11.625 41.039062 11.191406 41.125 10.769531 C 41.363281 9.710938 41.402344 9.664062 41.621094 10.171875 L 41.8125 10.605469 L 41.460938 11.617188 C 41.273438 12.171875 40.578125 13.746094 39.914062 15.117188 C 39.253906 16.488281 38.527344 18.015625 38.308594 18.515625 L 37.90625 19.429688 L 37.882812 20.929688 C 37.867188 22.050781 37.894531 22.433594 37.988281 22.433594 C 38.054688 22.433594 38.328125 22.148438 38.597656 21.808594 C 39.257812 20.972656 39.292969 21.242188 38.699219 22.511719 C 38.441406 23.054688 38.207031 23.636719 38.171875 23.820312 C 38.132812 24.042969 37.851562 24.40625 37.246094 25.011719 C 36.570312 25.691406 36.3125 26.039062 36.039062 26.636719 C 35.664062 27.441406 35.484375 28.089844 35.660156 27.984375 C 35.710938 27.945312 36.050781 27.476562 36.40625 26.9375 C 36.761719 26.402344 37.0625 26 37.082031 26.050781 C 37.097656 26.105469 37.023438 26.414062 36.910156 26.738281 C 36.632812 27.550781 36.644531 27.734375 36.960938 27.351562 C 38.210938 25.863281 40.808594 20.367188 41.3125 18.152344 C 41.394531 17.796875 41.605469 16.570312 41.78125 15.429688 C 42.175781 12.863281 42.394531 11.757812 42.734375 10.707031 C 43.199219 9.261719 43.355469 9.320312 43.011719 10.8125 C 42.734375 11.96875 42.660156 12.585938 42.785156 12.585938 C 42.839844 12.585938 43.070312 12.234375 43.292969 11.796875 C 43.511719 11.363281 43.699219 11.054688 43.703125 11.109375 C 43.703125 11.164062 43.613281 11.542969 43.496094 11.960938 C 43.328125 12.550781 43.3125 12.734375 43.410156 12.792969 C 43.511719 12.855469 43.484375 12.996094 43.308594 13.414062 C 43.179688 13.710938 42.988281 14.050781 42.890625 14.160156 C 42.789062 14.269531 42.652344 14.496094 42.589844 14.664062 C 42.457031 15.027344 42.082031 17.160156 42.082031 17.585938 C 42.082031 17.890625 42.082031 17.894531 42.296875 17.703125 C 42.414062 17.59375 42.972656 16.945312 43.539062 16.261719 C 44.105469 15.578125 44.582031 15.058594 44.597656 15.113281 C 44.644531 15.238281 44.414062 15.59375 43.691406 16.542969 C 43.003906 17.445312 42.40625 18.421875 42.3125 18.773438 C 42.285156 18.914062 42.011719 19.296875 41.710938 19.621094 C 41.070312 20.3125 40.976562 20.488281 40.210938 22.378906 C 39.890625 23.164062 39.308594 24.417969 38.910156 25.171875 C 37.625 27.609375 37.414062 28.054688 37.3125 28.570312 C 37.261719 28.851562 37.1875 29.179688 37.152344 29.308594 C 37.117188 29.433594 37.125 29.539062 37.179688 29.539062 C 37.390625 29.539062 38.382812 28.847656 38.652344 28.511719 C 38.945312 28.144531 39.753906 26.273438 40.132812 25.066406 C 40.246094 24.707031 40.570312 23.671875 40.863281 22.765625 C 41.144531 21.863281 41.429688 21.089844 41.488281 21.050781 C 41.679688 20.933594 41.488281 21.875 41.054688 23.179688 C 40.835938 23.839844 40.664062 24.421875 40.6875 24.46875 C 40.699219 24.515625 41.050781 23.957031 41.460938 23.214844 C 44.089844 18.539062 44.558594 17.566406 45.1875 15.476562 C 45.4375 14.644531 45.460938 14.429688 45.449219 12.988281 C 45.4375 11.445312 45.550781 10.734375 45.691406 11.445312 C 45.796875 11.945312 45.890625 11.921875 46.132812 11.351562 C 46.246094 11.0625 46.367188 10.851562 46.390625 10.875 C 46.433594 10.914062 46.347656 12.015625 46.191406 13.449219 L 46.136719 13.957031 L 46.488281 13.347656 C 46.6875 13.011719 47.039062 12.308594 47.265625 11.773438 C 47.5 11.242188 47.726562 10.769531 47.769531 10.71875 C 47.8125 10.671875 47.90625 10.8125 47.972656 11.039062 C 48.085938 11.414062 48.078125 11.476562 47.847656 11.789062 C 47.59375 12.136719 46.851562 13.710938 46.851562 13.902344 C 46.851562 14.085938 47.113281 14.015625 47.328125 13.78125 C 47.441406 13.652344 47.765625 13.207031 48.042969 12.789062 C 48.585938 11.972656 48.988281 11.539062 48.847656 11.929688 C 48.636719 12.484375 47.796875 13.875 47.402344 14.320312 C 47.160156 14.597656 46.957031 14.90625 46.957031 15.003906 C 46.957031 15.265625 46.679688 15.609375 46.242188 15.882812 C 45.929688 16.085938 45.738281 16.363281 45.179688 17.457031 C 44.8125 18.1875 44.066406 19.460938 43.53125 20.28125 C 42.863281 21.296875 42.347656 22.238281 41.910156 23.242188 C 41.554688 24.054688 40.914062 25.410156 40.488281 26.261719 C 40.0625 27.113281 39.742188 27.835938 39.78125 27.875 C 39.882812 27.976562 40.53125 27.511719 40.988281 27.011719 C 41.226562 26.738281 41.96875 25.726562 42.636719 24.757812 C 43.300781 23.785156 44.015625 22.789062 44.230469 22.542969 C 45.011719 21.648438 46.054688 19.996094 46.300781 19.261719 C 46.585938 18.429688 46.753906 18.1875 46.753906 18.605469 C 46.753906 18.757812 46.792969 18.878906 46.847656 18.878906 C 46.949219 18.878906 48.242188 17.191406 48.558594 16.644531 C 48.671875 16.449219 48.835938 16.027344 48.929688 15.707031 C 49.089844 15.136719 49.289062 14.921875 49.289062 15.324219 C 49.289062 15.554688 49.488281 15.59375 49.675781 15.40625 C 49.769531 15.3125 49.796875 15.324219 49.796875 15.457031 C 49.796875 15.542969 49.867188 15.664062 49.960938 15.714844 C 50.117188 15.800781 50.113281 15.835938 49.910156 16.117188 C 49.789062 16.289062 49.472656 16.585938 49.207031 16.785156 C 48.542969 17.269531 47.554688 18.472656 46.511719 20.058594 C 45.433594 21.691406 45.402344 21.855469 46.253906 21.40625 C 46.960938 21.027344 48.039062 20.058594 48.675781 19.238281 C 48.914062 18.929688 49.144531 18.675781 49.179688 18.675781 C 49.21875 18.675781 49.234375 18.820312 49.207031 18.996094 L 49.164062 19.3125 L 49.605469 19.070312 C 49.851562 18.9375 50.433594 18.449219 50.894531 17.988281 C 51.652344 17.238281 51.761719 17.164062 51.875 17.3125 C 52.078125 17.59375 52.5 17.410156 53.230469 16.714844 C 53.589844 16.367188 53.855469 16.179688 53.8125 16.292969 C 53.769531 16.402344 53.6875 16.617188 53.636719 16.769531 C 53.578125 16.921875 53.3125 17.203125 53.050781 17.394531 C 52.605469 17.710938 52.5625 17.78125 52.570312 18.136719 C 52.585938 18.664062 52.320312 19.050781 51.792969 19.28125 C 51.242188 19.515625 50.839844 19.949219 50.214844 20.988281 C 49.714844 21.820312 49.207031 23.09375 49.328125 23.214844 C 49.363281 23.253906 49.578125 23.175781 49.796875 23.050781 C 50.023438 22.929688 50.203125 22.863281 50.203125 22.917969 C 50.203125 22.96875 50.039062 23.21875 49.847656 23.476562 C 49.457031 23.988281 49.289062 24.355469 49.289062 24.699219 C 49.289062 24.820312 49.175781 25.089844 49.039062 25.292969 C 48.714844 25.765625 48.714844 25.820312 49.050781 25.734375 C 49.449219 25.636719 50.109375 25.148438 50.488281 24.671875 C 50.785156 24.308594 50.847656 24.265625 50.945312 24.402344 C 51.050781 24.539062 51.175781 24.5 51.960938 24.117188 C 52.445312 23.875 52.933594 23.59375 53.039062 23.5 C 53.171875 23.378906 53.324219 23.347656 53.566406 23.390625 C 54.320312 23.527344 54.867188 22.828125 55.496094 20.960938 C 55.738281 20.234375 55.929688 19.835938 56.03125 19.8125 C 56.273438 19.761719 56.234375 20.070312 55.835938 21.300781 C 55.410156 22.621094 55.40625 22.660156 55.734375 22.570312 C 56.089844 22.484375 56.050781 22.613281 55.527344 23.171875 C 55.28125 23.441406 55.070312 23.714844 55.070312 23.785156 C 55.070312 23.847656 54.9375 24.152344 54.773438 24.460938 C 54.609375 24.765625 54.472656 25.082031 54.46875 25.160156 C 54.460938 25.234375 55.011719 24.730469 55.675781 24.039062 C 56.847656 22.828125 57.300781 22.53125 56.78125 23.3125 C 56.636719 23.527344 56.3125 23.933594 56.054688 24.21875 C 55.320312 25.039062 55.460938 25.089844 56.597656 24.417969 L 57.355469 23.96875 L 57.597656 24.226562 C 57.730469 24.363281 57.796875 24.511719 57.753906 24.558594 C 57.703125 24.605469 57.363281 24.6875 57.003906 24.753906 C 56.144531 24.894531 55.320312 25.449219 55.011719 26.085938 C 54.757812 26.609375 54.324219 27.011719 54.109375 26.933594 C 54.011719 26.894531 53.734375 27.121094 53.324219 27.566406 C 52.972656 27.949219 52.242188 28.691406 51.699219 29.214844 C 51.152344 29.738281 50.710938 30.203125 50.710938 30.242188 C 50.710938 30.285156 51.09375 30.351562 51.5625 30.386719 C 52.515625 30.460938 52.808594 30.386719 53.609375 29.835938 C 53.996094 29.566406 54.066406 29.542969 54.039062 29.703125 C 54.011719 29.867188 54.078125 29.886719 54.605469 29.867188 C 55.335938 29.839844 55.988281 29.636719 56.746094 29.175781 C 57.066406 28.984375 57.347656 28.824219 57.367188 28.824219 C 57.390625 28.824219 57.410156 28.921875 57.410156 29.039062 C 57.410156 29.242188 57.445312 29.253906 57.933594 29.1875 C 58.390625 29.125 58.441406 29.136719 58.328125 29.269531 C 58.066406 29.585938 57.339844 29.828125 56.339844 29.9375 C 55.785156 30 55.160156 30.09375 54.945312 30.152344 C 54.148438 30.363281 54.664062 30.605469 55.910156 30.59375 C 56.5625 30.589844 56.699219 30.617188 56.699219 30.753906 C 56.699219 30.835938 56.769531 31.011719 56.863281 31.144531 C 56.949219 31.269531 56.996094 31.40625 56.960938 31.4375 C 56.921875 31.472656 56.515625 31.378906 56.058594 31.230469 C 55.152344 30.933594 53.976562 30.714844 53.226562 30.707031 C 52.867188 30.703125 52.703125 30.757812 52.550781 30.917969 C 52.367188 31.113281 52.296875 31.125 51.863281 31.039062 C 51.179688 30.90625 50.605469 31 49.976562 31.347656 C 49.339844 31.699219 48.910156 31.8125 48.742188 31.675781 C 48.558594 31.523438 47.800781 31.902344 47.714844 32.1875 C 47.625 32.484375 46.960938 33.1875 46.773438 33.1875 C 46.675781 33.1875 46.648438 33.3125 46.671875 33.617188 C 46.707031 34.160156 46.789062 34.179688 48.527344 34.191406 C 49.367188 34.199219 50.109375 34.261719 50.5625 34.367188 C 51.496094 34.585938 52.03125 34.503906 53.027344 33.988281 L 53.800781 33.589844 L 53.394531 34.003906 L 52.996094 34.417969 L 53.402344 34.421875 C 53.621094 34.429688 54.8125 34.4375 56.039062 34.445312 C 57.53125 34.457031 58.335938 34.496094 58.472656 34.578125 C 58.652344 34.6875 58.636719 34.699219 58.320312 34.757812 C 58.125 34.789062 57.351562 34.808594 56.59375 34.789062 L 55.226562 34.761719 L 54.617188 35.1875 C 54.164062 35.511719 53.636719 35.738281 52.613281 36.066406 C 51.847656 36.3125 51.214844 36.5 51.214844 36.484375 C 51.214844 36.328125 52.273438 35.691406 52.824219 35.511719 C 53.523438 35.289062 53.753906 35.160156 53.753906 35.003906 C 53.753906 34.957031 52.988281 34.914062 52.050781 34.914062 C 51.113281 34.914062 49.800781 34.847656 49.136719 34.761719 C 48.460938 34.679688 47.679688 34.613281 47.386719 34.613281 C 46.902344 34.609375 46.847656 34.636719 46.699219 34.921875 C 46.609375 35.09375 46.378906 35.324219 46.1875 35.4375 C 45.710938 35.71875 45.699219 36.152344 46.160156 36.390625 C 46.511719 36.578125 48.402344 36.996094 49.347656 37.097656 C 49.890625 37.164062 50.027344 37.136719 50.511719 36.890625 L 51.0625 36.617188 L 50.824219 36.875 C 50.511719 37.210938 50.59375 37.40625 51.082031 37.488281 C 52.003906 37.636719 52.46875 37.570312 53.097656 37.1875 C 53.433594 36.988281 53.890625 36.738281 54.125 36.636719 C 54.5625 36.445312 55.484375 36.265625 55.484375 36.375 C 55.484375 36.40625 55.238281 36.554688 54.945312 36.703125 C 54.367188 36.996094 53.753906 37.433594 53.753906 37.550781 C 53.753906 37.636719 55.390625 37.929688 56.390625 38.011719 C 57.390625 38.09375 57.46875 38.121094 57.300781 38.320312 C 57.199219 38.441406 57.199219 38.523438 57.308594 38.726562 C 57.382812 38.863281 57.421875 38.996094 57.394531 39.015625 C 57.367188 39.042969 56.941406 38.894531 56.441406 38.691406 C 55.621094 38.355469 55.429688 38.3125 54.5 38.296875 C 53.933594 38.289062 53.203125 38.230469 52.882812 38.164062 C 52.558594 38.109375 51.933594 38.058594 51.488281 38.058594 C 50.96875 38.058594 49.933594 37.914062 48.523438 37.636719 C 47.253906 37.394531 46.246094 37.253906 46.09375 37.289062 C 45.625 37.40625 44.382812 38.699219 43.875 39.605469 C 43.613281 40.058594 43.402344 40.46875 43.402344 40.511719 C 43.402344 40.660156 44.152344 40.789062 46.191406 41.011719 C 48.246094 41.230469 49.042969 41.226562 50.207031 40.988281 C 50.699219 40.882812 50.835938 40.894531 51.273438 41.0625 L 51.773438 41.257812 L 50.40625 41.3125 C 49.652344 41.339844 48.945312 41.417969 48.835938 41.484375 C 48.636719 41.59375 48.636719 41.605469 48.90625 41.703125 C 49.496094 41.929688 52.441406 42.527344 52.957031 42.527344 C 53.003906 42.527344 53.042969 42.566406 53.042969 42.621094 C 53.042969 42.671875 52.792969 42.742188 52.488281 42.785156 C 52.179688 42.820312 51.929688 42.894531 51.929688 42.945312 C 51.929688 42.996094 52.261719 43.253906 52.664062 43.515625 C 53.210938 43.867188 53.648438 44.058594 54.339844 44.238281 C 55.003906 44.410156 55.273438 44.523438 55.273438 44.632812 C 55.273438 44.757812 55.1875 44.773438 54.785156 44.730469 C 54.269531 44.664062 53.246094 44.246094 51.136719 43.234375 C 50.039062 42.703125 49.894531 42.660156 49.894531 42.835938 C 49.894531 43.085938 49.847656 43.082031 49.484375 42.824219 C 47.851562 41.664062 44.5625 41.148438 42.707031 41.761719 C 41.894531 42.03125 41.675781 42.164062 41.675781 42.390625 C 41.675781 42.46875 41.96875 42.941406 42.324219 43.433594 C 42.679688 43.929688 43.132812 44.625 43.328125 44.984375 C 43.746094 45.730469 43.921875 45.90625 44.460938 46.132812 C 44.949219 46.335938 45.746094 46.335938 47.3125 46.136719 C 48.503906 45.988281 48.984375 46.003906 48.984375 46.1875 C 48.984375 46.238281 48.875 46.28125 48.738281 46.28125 C 48.378906 46.28125 48.335938 46.433594 48.636719 46.632812 C 48.851562 46.769531 48.886719 46.855469 48.835938 47.078125 C 48.796875 47.226562 48.753906 47.363281 48.734375 47.378906 C 48.714844 47.394531 48.457031 47.28125 48.160156 47.121094 C 47.691406 46.878906 47.496094 46.835938 46.800781 46.835938 C 45.949219 46.835938 45.433594 46.933594 45.433594 47.085938 C 45.433594 47.136719 45.582031 47.375 45.761719 47.609375 C 46.003906 47.929688 46.375 48.1875 47.148438 48.609375 C 48.152344 49.144531 49.3125 50.042969 49.175781 50.179688 C 49.136719 50.214844 48.738281 49.96875 48.28125 49.625 C 47.820312 49.289062 47.335938 48.960938 47.191406 48.914062 C 46.890625 48.796875 46.414062 48.785156 46.460938 48.890625 C 46.484375 48.9375 46.664062 49.324219 46.867188 49.753906 C 47.363281 50.785156 47.410156 50.945312 47.234375 50.945312 C 47.070312 50.945312 46.988281 50.851562 45.234375 48.5625 C 43.933594 46.863281 43.429688 46.28125 43.265625 46.28125 C 43.210938 46.28125 43.191406 46.582031 43.21875 46.988281 C 43.28125 47.792969 43.738281 48.828125 44.765625 50.484375 C 45.078125 50.984375 45.328125 51.4375 45.328125 51.5 C 45.328125 51.558594 44.796875 51.078125 44.152344 50.421875 C 43.503906 49.769531 42.917969 49.214844 42.851562 49.1875 C 42.757812 49.152344 42.703125 48.703125 42.664062 47.636719 C 42.59375 45.960938 42.417969 45.078125 42.003906 44.320312 C 41.414062 43.234375 40.585938 43.148438 39.582031 44.066406 C 38.875 44.714844 37.617188 46.261719 37.617188 46.484375 C 37.617188 46.589844 37.863281 46.882812 38.164062 47.148438 C 38.5 47.433594 38.699219 47.679688 38.664062 47.765625 C 38.59375 47.949219 39.882812 49.226562 40.890625 49.960938 C 41.324219 50.285156 41.675781 50.566406 41.675781 50.59375 C 41.675781 50.753906 41.125 50.59375 40.632812 50.289062 C 40.3125 50.09375 39.792969 49.773438 39.476562 49.578125 C 39.160156 49.382812 38.8125 49.21875 38.703125 49.21875 C 38.367188 49.21875 38.539062 49.878906 39.28125 51.429688 C 39.648438 52.199219 39.949219 52.886719 39.949219 52.957031 C 39.949219 53.210938 39.761719 53.0625 39.441406 52.566406 C 39.136719 52.097656 38.929688 51.644531 37.78125 49.011719 C 37.289062 47.890625 37.023438 47.550781 36.71875 47.644531 C 36 47.875 34.589844 51.53125 34.3125 54.496094 C 34.132812 56.40625 34.394531 57.757812 35.148438 58.78125 C 35.402344 59.121094 35.339844 59.292969 34.886719 59.511719 C 34.582031 59.652344 34.125 59.675781 31.660156 59.675781 C 28.957031 59.675781 29.023438 59.664062 28.738281 59.472656 Z M 34.367188 47.082031 C 34.769531 46.460938 34.949219 45.910156 34.839844 45.632812 C 34.8125 45.550781 34.671875 45.40625 34.53125 45.3125 C 34.335938 45.1875 34.234375 45.175781 34.066406 45.265625 C 33.761719 45.429688 33.660156 45.78125 33.660156 46.636719 C 33.660156 47.90625 33.785156 47.984375 34.367188 47.082031 Z M 28.460938 43.566406 C 28.382812 42.472656 28.199219 42.0625 27.703125 41.914062 C 27.488281 41.851562 27.175781 41.8125 27 41.835938 L 26.6875 41.863281 L 26.796875 42.300781 C 26.875 42.59375 27.132812 42.988281 27.609375 43.542969 C 27.988281 43.988281 28.351562 44.351562 28.40625 44.351562 C 28.472656 44.351562 28.488281 44.070312 28.460938 43.5625 Z M 35.488281 43.945312 C 35.488281 43.605469 35.339844 43.550781 35.1875 43.828125 C 35.121094 43.960938 35.125 44.054688 35.207031 44.136719 C 35.394531 44.328125 35.488281 44.269531 35.488281 43.945312 Z M 38.496094 42.5625 C 39.8125 41.566406 42.105469 39.515625 42.664062 38.835938 C 43.214844 38.171875 43.230469 38 42.71875 38.214844 C 42.511719 38.300781 42.289062 38.351562 42.21875 38.324219 C 42.054688 38.257812 40.570312 38.988281 39.726562 39.550781 C 39.257812 39.863281 39.039062 40.070312 39.039062 40.207031 C 39.039062 40.320312 38.835938 40.671875 38.59375 40.988281 C 38.039062 41.710938 37.609375 42.933594 37.914062 42.933594 C 37.960938 42.933594 38.230469 42.765625 38.496094 42.5625 Z M 34.625 42.152344 C 34.847656 42.003906 35.40625 41.589844 35.863281 41.226562 C 36.570312 40.671875 36.730469 40.488281 36.890625 40.050781 C 37.152344 39.355469 37.3125 38.265625 37.3125 37.1875 L 37.3125 36.308594 L 37.097656 36.496094 C 36.765625 36.796875 35.449219 38.578125 35.03125 39.289062 C 34.660156 39.929688 34.144531 41.320312 34.015625 42.042969 C 33.9375 42.511719 34.058594 42.53125 34.625 42.152344 Z M 23.175781 41.203125 C 23.441406 41.144531 23.730469 41.058594 23.8125 41.003906 C 23.949219 40.917969 23.949219 40.890625 23.8125 40.761719 C 23.730469 40.679688 23.375 40.496094 23.015625 40.347656 L 22.378906 40.082031 L 21.199219 40.242188 C 20.550781 40.335938 19.976562 40.433594 19.921875 40.46875 C 19.808594 40.539062 20.585938 40.851562 21.53125 41.105469 C 22.367188 41.335938 22.53125 41.339844 23.175781 41.203125 Z M 27.554688 40.941406 C 28.164062 40.820312 27.9375 40.285156 26.59375 38.664062 C 25.863281 37.785156 25.164062 37.160156 24.230469 36.554688 C 23.542969 36.113281 23.207031 36.039062 23.011719 36.28125 C 22.839844 36.476562 23.050781 36.921875 24.164062 38.769531 C 25.335938 40.714844 25.46875 40.882812 25.867188 40.933594 C 26.441406 41 27.230469 41.003906 27.554688 40.941406 Z M 29.53125 39.703125 C 29.488281 37.921875 27.828125 34.625 26.011719 32.707031 C 25.621094 32.296875 24.742188 31.558594 24.058594 31.0625 C 23.363281 30.558594 21.933594 29.339844 20.820312 28.300781 C 18.496094 26.125 17.824219 25.621094 17.824219 26.03125 C 17.824219 26.488281 19.664062 30.53125 20.550781 32.011719 C 21.488281 33.59375 22.160156 34.375 22.660156 34.46875 C 22.851562 34.503906 23.039062 34.511719 23.066406 34.476562 C 23.136719 34.410156 22.730469 33.8125 21.671875 32.402344 C 20.839844 31.292969 20.164062 30.109375 20.292969 29.976562 C 20.484375 29.792969 22.054688 31.738281 23.257812 33.644531 C 23.46875 33.984375 24.285156 34.917969 25.070312 35.726562 C 26.742188 37.445312 27.558594 38.363281 28.582031 39.664062 C 29.4375 40.757812 29.558594 40.761719 29.53125 39.703125 Z M 38.960938 39.011719 C 39.144531 38.917969 39.910156 38.457031 40.664062 37.976562 C 42.21875 36.996094 43.402344 36.402344 44.210938 36.203125 C 44.703125 36.082031 44.792969 36.011719 44.957031 35.6875 C 45.054688 35.476562 45.144531 35.136719 45.160156 34.933594 L 45.175781 34.558594 L 44.355469 34.472656 C 43.558594 34.386719 43.511719 34.390625 42.882812 34.691406 C 42.523438 34.863281 42.03125 35.050781 41.789062 35.105469 C 41.292969 35.214844 40.742188 35.6875 40.21875 36.449219 C 40.042969 36.710938 39.5 37.339844 39.011719 37.855469 C 38.320312 38.585938 38.125 38.855469 38.125 39.085938 C 38.125 39.351562 38.144531 39.367188 38.378906 39.28125 C 38.515625 39.226562 38.78125 39.105469 38.960938 39.011719 Z M 35.554688 35.597656 C 36.226562 34.894531 37.335938 33.324219 37.738281 32.511719 C 38.089844 31.800781 38.171875 31.527344 38.21875 30.863281 C 38.269531 30.164062 38.257812 30.070312 38.125 30.152344 C 37.835938 30.320312 37.511719 30.636719 37.511719 30.738281 C 37.511719 30.796875 37.238281 31.160156 36.894531 31.539062 C 35.957031 32.589844 35.660156 33.292969 35.125 35.703125 C 35.054688 36.015625 35.1875 35.988281 35.554688 35.597656 Z M 29.714844 34.6875 C 29.652344 34.117188 29.578125 33.335938 29.542969 32.957031 C 29.46875 32.011719 29.082031 30.835938 28.625 30.179688 C 27.996094 29.257812 26.472656 28.421875 24.960938 28.171875 L 24.539062 28.097656 L 24.726562 28.617188 C 24.976562 29.308594 29.636719 35.921875 29.78125 35.785156 C 29.808594 35.757812 29.78125 35.261719 29.714844 34.6875 Z M 45.414062 33.761719 C 45.664062 33.449219 46.851562 29.367188 46.851562 28.820312 C 46.851562 28.429688 46.746094 28.390625 46.324219 28.652344 C 45.828125 28.960938 45.097656 29.855469 44.660156 30.703125 C 44.457031 31.09375 43.996094 31.839844 43.636719 32.367188 C 42.890625 33.460938 42.890625 33.460938 43.863281 33.730469 C 44.835938 33.996094 45.21875 34.003906 45.414062 33.761719 Z M 41.386719 33.089844 C 42.1875 33.089844 42.296875 33.0625 42.585938 32.820312 C 42.78125 32.660156 43.125 32.097656 43.484375 31.378906 C 43.972656 30.367188 44.0625 30.097656 44.09375 29.511719 C 44.136719 28.835938 44.132812 28.824219 43.875 28.824219 C 43.378906 28.824219 41.226562 30.984375 40.851562 31.863281 C 40.742188 32.105469 40.523438 32.472656 40.355469 32.6875 C 39.988281 33.144531 39.976562 33.234375 40.28125 33.152344 C 40.40625 33.117188 40.90625 33.089844 41.386719 33.089844 Z M 39.746094 31.246094 C 40.414062 30.839844 42.691406 28.902344 43.460938 28.089844 C 44.011719 27.503906 44.335938 27.039062 44.648438 26.40625 C 44.882812 25.921875 45.273438 25.265625 45.515625 24.949219 C 45.773438 24.609375 46.152344 23.878906 46.441406 23.164062 C 46.707031 22.503906 46.976562 21.863281 47.042969 21.738281 C 47.242188 21.367188 46.945312 21.460938 46.234375 22 C 45.882812 22.265625 45.355469 22.617188 45.066406 22.789062 C 44.582031 23.066406 44.394531 23.300781 42.839844 25.625 C 41.808594 27.175781 41.03125 28.230469 40.851562 28.335938 C 40.691406 28.4375 40.558594 28.585938 40.558594 28.664062 C 40.558594 28.746094 40.367188 29.03125 40.136719 29.300781 C 39.691406 29.8125 39.308594 30.578125 39.203125 31.136719 C 39.132812 31.53125 39.242188 31.554688 39.746094 31.246094 Z M 48.757812 30.03125 C 49.164062 29.5625 49.539062 29.164062 49.59375 29.148438 C 49.757812 29.089844 49.707031 29.414062 49.496094 29.835938 C 49.386719 30.042969 49.324219 30.246094 49.363281 30.285156 C 49.511719 30.4375 50.496094 29.71875 51.3125 28.863281 C 52.207031 27.929688 53.386719 26.285156 53.714844 25.523438 C 53.914062 25.054688 54.171875 24.03125 54.105469 23.96875 C 53.976562 23.835938 52.292969 24.417969 51.523438 24.855469 C 51.042969 25.125 50.335938 25.511719 49.945312 25.71875 C 49.039062 26.199219 48.8125 26.386719 48.617188 26.863281 C 48.527344 27.078125 48.230469 27.625 47.949219 28.082031 C 47.496094 28.828125 47.421875 29.027344 47.246094 30.042969 C 47.144531 30.671875 47.082031 31.226562 47.113281 31.273438 C 47.234375 31.46875 48.039062 30.863281 48.757812 30.03125 Z M 30.199219 28.589844 C 30.484375 27.132812 30.46875 26.828125 30.082031 25.851562 C 29.691406 24.863281 27.613281 20.648438 27.1875 19.988281 C 26.863281 19.488281 25.46875 18.367188 24.78125 18.054688 C 24.554688 17.949219 24.191406 17.867188 23.976562 17.863281 C 23.589844 17.863281 23.585938 17.867188 23.644531 18.191406 C 23.734375 18.664062 24.699219 20.542969 26.027344 22.820312 C 26.652344 23.894531 27.71875 25.886719 28.394531 27.234375 C 29.070312 28.585938 29.671875 29.746094 29.730469 29.820312 C 29.890625 30.023438 29.960938 29.847656 30.199219 28.589844 Z M 27.164062 27.523438 C 27.164062 27.144531 22.636719 22.027344 22.308594 22.027344 C 22.164062 22.027344 22.097656 23.070312 22.191406 23.835938 C 22.300781 24.675781 22.742188 26.078125 23.042969 26.515625 C 23.367188 26.996094 23.867188 27.1875 25.296875 27.394531 C 26.835938 27.617188 27.164062 27.636719 27.164062 27.523438 Z M 31.972656 27.085938 C 32.070312 26.589844 32.042969 24.285156 31.929688 23.125 C 31.691406 20.808594 31.3125 19.609375 29.90625 16.648438 C 29.363281 15.503906 28.878906 14.414062 28.835938 14.226562 C 28.796875 14.027344 28.730469 13.921875 28.675781 13.976562 C 28.472656 14.179688 28.179688 15.945312 28.164062 17.117188 L 28.136719 18.320312 L 28.921875 20.402344 C 29.730469 22.550781 29.851562 22.820312 29.949219 22.71875 C 29.984375 22.6875 30.039062 22.292969 30.070312 21.835938 C 30.109375 21.378906 30.175781 20.984375 30.21875 20.957031 C 30.390625 20.847656 30.9375 22.21875 31.117188 23.226562 C 31.171875 23.539062 31.265625 24.324219 31.324219 24.960938 C 31.4375 26.152344 31.691406 27.40625 31.828125 27.40625 C 31.875 27.40625 31.9375 27.261719 31.972656 27.085938 Z M 47.042969 24.109375 C 47.675781 23.070312 47.96875 22.488281 47.96875 22.265625 C 47.96875 22.117188 47.933594 22.125 47.726562 22.320312 C 47.476562 22.554688 46.320312 24.710938 46.199219 25.171875 L 46.132812 25.421875 L 46.339844 25.171875 C 46.457031 25.03125 46.773438 24.554688 47.042969 24.109375 Z M 51.058594 18.796875 C 51.335938 18.429688 51.164062 18.417969 50.613281 18.773438 C 50.113281 19.09375 49.1875 20.027344 49.1875 20.207031 C 49.1875 20.335938 50.835938 19.085938 51.058594 18.796875 Z M 32.402344 18.363281 C 32.6875 16.765625 32.636719 11.839844 32.339844 12.027344 C 32.191406 12.117188 32.042969 13.3125 31.988281 14.867188 C 31.960938 15.707031 31.867188 16.730469 31.78125 17.136719 C 31.621094 17.890625 31.675781 18.664062 31.945312 19.367188 C 32.03125 19.597656 32.0625 19.617188 32.136719 19.476562 C 32.191406 19.386719 32.3125 18.882812 32.402344 18.363281 Z M 25.636719 17.59375 C 25.636719 17.558594 25.1875 16.933594 24.636719 16.199219 C 24.085938 15.46875 23.292969 14.347656 22.875 13.703125 C 22.449219 13.0625 21.96875 12.378906 21.796875 12.179688 L 21.488281 11.824219 L 21.484375 12.164062 C 21.476562 12.527344 22.351562 14.714844 22.496094 14.714844 C 22.542969 14.714844 22.613281 14.671875 22.644531 14.617188 C 22.679688 14.5625 22.746094 14.511719 22.792969 14.511719 C 22.886719 14.511719 23.894531 16.003906 24.191406 16.59375 C 24.421875 17.042969 24.625 17.253906 25.082031 17.488281 C 25.40625 17.664062 25.636719 17.707031 25.636719 17.59375 Z M 30.328125 13.984375 C 30.375 12.382812 30.265625 11.355469 29.949219 10.355469 C 29.539062 9.042969 28.730469 7.636719 28.511719 7.851562 C 28.417969 7.949219 28.457031 9.988281 28.5625 10.457031 C 28.625 10.738281 28.6875 10.808594 28.855469 10.78125 C 29.050781 10.753906 29.078125 10.828125 29.191406 11.796875 C 29.355469 13.148438 29.960938 15.125 30.214844 15.125 C 30.261719 15.125 30.3125 14.613281 30.328125 13.984375 Z M 33.503906 11.644531 C 33.644531 10.96875 33.660156 10.71875 33.566406 10.632812 C 33.484375 10.539062 33.386719 10.578125 33.191406 10.773438 C 32.949219 11.011719 32.941406 11.066406 33.039062 11.433594 C 33.097656 11.648438 33.148438 12.027344 33.148438 12.28125 C 33.152344 12.933594 33.292969 12.675781 33.503906 11.644531 Z M 17.417969 51.269531 C 17.417969 51.136719 17.820312 50.8125 17.890625 50.882812 C 17.929688 50.917969 17.878906 51.039062 17.773438 51.152344 C 17.585938 51.363281 17.417969 51.417969 17.417969 51.269531 Z M 42.8125 49.765625 C 42.851562 49.542969 43.148438 49.511719 43.148438 49.730469 C 43.148438 49.8125 43.0625 49.894531 42.960938 49.917969 C 42.824219 49.945312 42.785156 49.902344 42.8125 49.765625 Z M 50.625 44.179688 C 50.386719 44.136719 50.113281 43.699219 50.238281 43.570312 C 50.28125 43.53125 50.476562 43.671875 50.6875 43.878906 C 50.890625 44.082031 51.011719 44.246094 50.960938 44.238281 C 50.90625 44.230469 50.757812 44.203125 50.625 44.179688 Z M 56.136719 43.289062 C 54.503906 42.8125 54.558594 42.660156 56.210938 43.078125 C 57.09375 43.300781 58.175781 43.742188 57.8125 43.730469 C 57.730469 43.730469 56.976562 43.527344 56.136719 43.289062 Z M 58.164062 38.261719 C 58.125 38.199219 58.136719 38.097656 58.203125 38.039062 C 58.335938 37.902344 58.652344 38.023438 58.597656 38.1875 C 58.542969 38.355469 58.257812 38.40625 58.164062 38.261719 Z M 6.632812 37.488281 C 6.59375 37.457031 6.585938 37.386719 6.613281 37.347656 C 6.675781 37.242188 7.066406 37.347656 7.066406 37.460938 C 7.066406 37.566406 6.730469 37.585938 6.632812 37.488281 Z M 56.566406 36.511719 C 56.246094 36.449219 55.988281 36.375 55.988281 36.335938 C 55.988281 36.238281 56.976562 36.042969 57.8125 35.976562 L 58.472656 35.929688 L 58.066406 36.082031 C 57.839844 36.164062 57.585938 36.328125 57.488281 36.4375 C 57.402344 36.550781 57.285156 36.636719 57.238281 36.625 C 57.191406 36.617188 56.890625 36.5625 56.566406 36.511719 Z M 6.460938 34.082031 C 5.867188 33.957031 5.761719 33.839844 6.148438 33.765625 C 6.503906 33.691406 7.1875 33.886719 7.246094 34.078125 C 7.292969 34.226562 7.109375 34.226562 6.460938 34.082031 Z M 55.539062 34.015625 C 55.457031 33.882812 55.949219 33.699219 56.402344 33.699219 C 56.785156 33.699219 57.511719 33.929688 57.511719 34.042969 C 57.511719 34.136719 55.59375 34.109375 55.539062 34.015625 Z M 57.863281 31.769531 C 57.828125 31.710938 57.875 31.664062 57.960938 31.664062 C 58.042969 31.664062 58.117188 31.710938 58.117188 31.769531 C 58.117188 31.824219 58.078125 31.867188 58.023438 31.867188 C 57.96875 31.867188 57.894531 31.824219 57.863281 31.769531 Z M 11.328125 30.753906 C 10.945312 30.433594 11.054688 30.355469 11.539062 30.605469 C 11.703125 30.6875 11.835938 30.824219 11.835938 30.910156 C 11.835938 31.125 11.730469 31.089844 11.328125 30.753906 Z M 7.597656 30.351562 C 6.882812 30.09375 6.246094 29.703125 6.476562 29.660156 C 6.648438 29.625 8.363281 30.289062 8.539062 30.460938 C 8.699219 30.617188 8.171875 30.554688 7.597656 30.351562 Z M 5.488281 29.121094 C 5.378906 28.945312 5.496094 28.917969 5.707031 29.078125 C 5.878906 29.207031 5.878906 29.226562 5.730469 29.230469 C 5.636719 29.230469 5.527344 29.1875 5.488281 29.121094 Z M 9.324219 24.246094 C 9.09375 24.164062 9.027344 24.011719 9.1875 23.910156 C 9.273438 23.855469 9.671875 24.230469 9.59375 24.296875 C 9.570312 24.320312 9.449219 24.296875 9.324219 24.246094 Z M 51.414062 22.863281 C 51.632812 22.261719 51.875 21.613281 51.960938 21.414062 L 52.113281 21.0625 L 52.121094 21.390625 C 52.132812 21.738281 52.21875 21.789062 52.550781 21.613281 C 52.660156 21.554688 52.820312 21.515625 52.90625 21.539062 C 53.125 21.582031 52.367188 22.53125 52.109375 22.53125 C 51.988281 22.53125 51.921875 22.59375 51.933594 22.710938 C 51.941406 22.808594 51.945312 22.945312 51.9375 23.011719 C 51.921875 23.164062 51.230469 23.957031 51.109375 23.957031 C 51.0625 23.957031 51.203125 23.460938 51.414062 22.863281 Z M 47.058594 17.179688 C 47.058594 17.050781 47.457031 15.828125 47.550781 15.664062 C 47.699219 15.390625 47.765625 15.679688 47.648438 16.097656 C 47.484375 16.710938 47.050781 17.496094 47.058594 17.179688 Z M 17.125 12.058594 C 16.960938 11.617188 16.886719 11.136719 16.996094 11.203125 C 17.152344 11.300781 17.417969 12.164062 17.3125 12.234375 C 17.261719 12.269531 17.175781 12.1875 17.125 12.058594 Z M 48.375 10.886719 C 48.378906 10.746094 48.5625 10.511719 48.625 10.570312 C 48.707031 10.652344 48.578125 10.960938 48.460938 10.960938 C 48.414062 10.960938 48.375 10.929688 48.375 10.886719 Z M 22.5 7.039062 C 22.28125 6.761719 22.21875 6.542969 22.390625 6.648438 C 22.503906 6.71875 22.835938 7.3125 22.757812 7.3125 C 22.734375 7.3125 22.617188 7.1875 22.5 7.039062 Z M 22.5 7.039062 "/>
</g>
</svg>
