<svg xmlns="http://www.w3.org/2000/svg" xmlns:xlink="http://www.w3.org/1999/xlink" width="64px" height="64px" viewBox="0 0 64 64" version="1.1">
<defs>
<linearGradient id="linear0" gradientUnits="userSpaceOnUse" x1="0" y1="0" x2="0" y2="1" gradientTransform="matrix(55.351351,0,0,44.972973,4.216216,9.513514)">
<stop offset="0" style="stop-color:#ffae00;stop-opacity:1;"/>
<stop offset="0.5" style="stop-color:#dddddd;stop-opacity:1;"/>
<stop offset="1" style="stop-color:#bf1d1d;stop-opacity:1;"/>
</linearGradient>
</defs>
<g id="surface1">
<path style=" stroke:none;fill-rule:evenodd;fill:url(#linear0);" d="M 14.5625 28.375 L 22.3125 28.375 L 19.375 20.625 C 18.917969 19.488281 18.609375 18.597656 18.4375 17.945312 C 18.269531 18.597656 17.957031 19.488281 17.5 20.625 Z M 48.882812 40.253906 C 46.636719 40.253906 44.679688 39.808594 43.003906 38.910156 C 41.328125 38.015625 40.027344 36.8125 39.089844 35.292969 C 38.152344 33.773438 37.460938 32.152344 37.023438 30.417969 C 36.582031 28.6875 36.363281 26.839844 36.363281 24.882812 C 36.363281 23.066406 36.589844 21.300781 37.042969 19.585938 C 37.5 17.863281 38.191406 16.234375 39.132812 14.6875 C 40.066406 13.136719 41.375 11.890625 43.042969 10.9375 C 44.71875 9.988281 46.664062 9.511719 48.882812 9.511719 C 51.550781 9.511719 53.796875 10.164062 55.625 11.472656 C 57.460938 12.773438 58.757812 14.367188 59.523438 16.242188 L 54.375 18.585938 C 53.582031 17.363281 52.769531 16.46875 51.945312 15.902344 C 51.125 15.335938 50.105469 15.050781 48.882812 15.050781 C 47.320312 15.050781 46.023438 15.582031 44.984375 16.648438 C 43.945312 17.710938 43.246094 18.945312 42.878906 20.347656 C 42.511719 21.757812 42.324219 23.265625 42.324219 24.882812 C 42.324219 27.46875 42.882812 29.753906 44.003906 31.738281 C 45.125 33.726562 46.753906 34.71875 48.882812 34.71875 C 50.957031 34.71875 52.757812 33.441406 54.289062 30.886719 L 59.566406 32.886719 C 57.355469 37.796875 53.792969 40.253906 48.882812 40.253906 Z M 32.660156 39.789062 L 26.488281 39.789062 L 24.1875 33.613281 L 12.6875 33.613281 L 10.386719 39.789062 L 4.214844 39.789062 L 15.625 9.984375 L 21.246094 9.984375 Z M 4.214844 47.566406 L 59.566406 47.566406 L 59.566406 54.488281 L 4.214844 54.488281 Z M 4.214844 47.566406 "/>
</g>
</svg>
