<svg xmlns="http://www.w3.org/2000/svg" xmlns:xlink="http://www.w3.org/1999/xlink" width="64px" height="64px" viewBox="0 0 64 64" version="1.1">
<defs>
<linearGradient id="linear0" gradientUnits="userSpaceOnUse" x1="0" y1="0" x2="0" y2="1" gradientTransform="matrix(51.882882,0,0,47.788287,6.054054,8.427928)">
<stop offset="0" style="stop-color:#ffae00;stop-opacity:1;"/>
<stop offset="0.5" style="stop-color:#dddddd;stop-opacity:1;"/>
<stop offset="1" style="stop-color:#bf1d1d;stop-opacity:1;"/>
</linearGradient>
</defs>
<g id="surface1">
<path style=" stroke:none;fill-rule:evenodd;fill:url(#linear0);" d="M 29.40625 8.429688 C 22.378906 8.429688 14.972656 10.390625 9.765625 11.152344 C 7.460938 11.488281 6.054688 14 6.054688 17.050781 L 6.054688 19.9375 C 6.054688 20.863281 6.179688 21.578125 6.441406 22.0625 C 6.707031 22.554688 7.082031 22.800781 7.585938 22.800781 C 9.121094 22.800781 9.824219 22.988281 11.363281 22.988281 C 11.8125 22.988281 12.175781 22.78125 12.4375 22.363281 C 12.699219 21.949219 12.824219 21.390625 12.824219 20.738281 C 12.824219 20.394531 12.957031 20.0625 13.226562 19.710938 C 13.496094 19.363281 13.984375 19.199219 14.191406 19.199219 L 14.203125 19.199219 C 17.828125 19.199219 21.460938 19.199219 25.09375 19.199219 C 25.59375 19.199219 25.972656 19.441406 26.238281 19.933594 C 26.503906 20.417969 26.636719 21.132812 26.636719 22.054688 C 26.636719 22.644531 26.644531 23.226562 26.644531 23.808594 C 26.644531 24.746094 26.515625 25.460938 26.253906 25.945312 C 25.988281 26.433594 25.613281 26.675781 25.113281 26.675781 C 22.765625 26.675781 20.429688 26.679688 18.085938 26.679688 C 17.617188 26.679688 17.292969 26.863281 17.109375 27.214844 C 16.921875 27.570312 16.828125 28.21875 16.828125 29.152344 C 16.835938 31.003906 16.835938 32.847656 16.835938 34.691406 C 16.835938 35.625 16.933594 36.273438 17.121094 36.652344 C 17.300781 37.023438 17.632812 37.203125 18.105469 37.203125 L 25.527344 37.203125 C 26.015625 37.203125 26.390625 37.4375 26.644531 37.90625 C 26.894531 38.375 27.027344 39.0625 27.03125 39.96875 C 27.03125 40.617188 27.03125 41.265625 27.039062 41.910156 C 27.039062 42.839844 26.910156 43.554688 26.664062 44.042969 C 26.414062 44.539062 26.039062 44.785156 25.550781 44.785156 C 21.769531 44.785156 17.996094 44.785156 14.214844 44.785156 C 13.828125 44.785156 13.515625 44.632812 13.285156 44.328125 C 13.058594 44.03125 12.863281 43.550781 12.726562 42.878906 C 12.691406 42.707031 12.664062 42.496094 12.617188 42.226562 C 12.414062 40.984375 11.941406 40.363281 11.261719 40.363281 C 9.753906 40.363281 9.414062 40.335938 7.914062 40.335938 C 7.40625 40.335938 7.03125 40.570312 6.769531 41.050781 C 6.503906 41.527344 6.378906 42.242188 6.378906 43.171875 L 6.378906 45.246094 C 6.378906 47.730469 7.59375 54.136719 9.800781 54.136719 C 16.382812 54.136719 22.960938 56.210938 29.539062 56.210938 L 32.105469 56.210938 L 32.105469 56.214844 C 38.09375 56.175781 48.363281 53.523438 56.460938 52.355469 C 57.265625 52.242188 57.9375 51.6875 57.9375 50.878906 L 57.9375 16.582031 C 57.9375 15.769531 57.257812 14.457031 56.460938 14.292969 C 48.339844 12.636719 35.539062 8.472656 32.109375 8.429688 Z M 36.707031 22.679688 L 45.152344 23.917969 C 45.960938 24.039062 46.632812 24.582031 46.632812 25.390625 L 46.617188 41.644531 C 46.617188 42.457031 45.949219 43.097656 45.136719 43.121094 L 36.707031 43.335938 Z M 36.707031 22.679688 "/>
</g>
</svg>
