<svg xmlns="http://www.w3.org/2000/svg" xmlns:xlink="http://www.w3.org/1999/xlink" width="64px" height="64px" viewBox="0 0 64 64" version="1.1">
<defs>
<linearGradient id="linear0" gradientUnits="userSpaceOnUse" x1="0" y1="0" x2="0" y2="1" gradientTransform="matrix(55.351351,0,0,51.891892,4.324324,6.054054)">
<stop offset="0" style="stop-color:#ffae00;stop-opacity:1;"/>
<stop offset="0.5" style="stop-color:#dddddd;stop-opacity:1;"/>
<stop offset="1" style="stop-color:#bf1d1d;stop-opacity:1;"/>
</linearGradient>
</defs>
<g id="surface1">
<path style=" stroke:none;fill-rule:nonzero;fill:url(#linear0);" d="M 55.0625 57.914062 C 54.542969 57.847656 54.109375 57.613281 53.753906 57.238281 C 52.96875 56.414062 51.679688 53.988281 50.621094 51.339844 C 50.027344 49.863281 48.890625 46.59375 48.890625 46.375 C 48.890625 46.300781 49.644531 45.8125 50.558594 45.292969 L 52.226562 44.335938 L 52.488281 44.582031 C 53.515625 45.539062 56.5 49.910156 58.234375 53.023438 C 58.929688 54.265625 59 54.445312 58.996094 54.960938 C 58.988281 55.644531 58.773438 56.121094 58.152344 56.796875 C 57.410156 57.609375 56.136719 58.070312 55.0625 57.914062 Z M 5.566406 57.105469 C 5.597656 57.015625 6.109375 54.769531 6.699219 52.109375 C 7.285156 49.445312 7.78125 47.253906 7.792969 47.230469 C 7.847656 47.164062 13.164062 50.835938 13.164062 50.9375 C 13.164062 50.988281 11.625 52.292969 9.746094 53.824219 C 5.515625 57.273438 5.5 57.289062 5.566406 57.105469 Z M 11.207031 47.707031 C 9.71875 46.699219 8.523438 45.835938 8.539062 45.78125 C 8.570312 45.660156 21.308594 24.460938 21.414062 24.351562 C 21.472656 24.296875 27.039062 27.734375 27.296875 27.988281 C 27.351562 28.042969 14.109375 49.488281 14.003906 49.515625 C 13.945312 49.53125 12.6875 48.714844 11.207031 47.707031 Z M 46.164062 42.109375 C 45.148438 40.421875 44.328125 39.03125 44.351562 39.015625 C 44.53125 38.894531 48.382812 36.714844 48.421875 36.714844 C 48.488281 36.714844 51.71875 43.050781 51.671875 43.082031 C 51.257812 43.367188 48.171875 45.175781 48.105469 45.171875 C 48.054688 45.171875 47.179688 43.792969 46.164062 42.109375 Z M 4.363281 41.789062 C 4.328125 41.488281 4.3125 39.121094 4.328125 36.515625 L 4.363281 31.78125 L 9.703125 31.8125 C 12.636719 31.824219 15.054688 31.851562 15.066406 31.863281 C 15.082031 31.878906 13.671875 34.238281 11.929688 37.109375 L 8.761719 42.320312 L 4.429688 42.320312 Z M 20.382812 42.171875 C 20.382812 42.136719 21.835938 39.785156 23.605469 36.921875 L 26.828125 31.71875 L 38.265625 31.71875 L 41.324219 36.730469 C 43.011719 39.484375 44.441406 41.847656 44.515625 41.976562 L 44.648438 42.21875 L 32.511719 42.21875 C 25.839844 42.21875 20.378906 42.1875 20.378906 42.164062 Z M 51.59375 39.957031 C 50.976562 38.707031 49.820312 36.363281 49.015625 34.753906 L 47.5625 31.824219 L 51.515625 31.824219 C 53.699219 31.824219 56.421875 31.792969 57.578125 31.757812 L 59.675781 31.6875 L 59.675781 42.214844 L 52.710938 42.214844 L 51.59375 39.949219 Z M 42.757812 36.589844 C 40.414062 32.960938 38.023438 28.691406 35.152344 23.011719 C 32.878906 18.496094 30.6875 13.835938 29.785156 11.578125 C 28.472656 8.300781 28.160156 6.269531 28.9375 6.078125 C 30.179688 5.769531 32.617188 8.550781 36.082031 14.226562 C 38.796875 18.675781 43.136719 26.449219 46.457031 32.792969 C 47.066406 33.96875 47.6875 35.121094 47.8125 35.355469 L 48.058594 35.78125 L 45.996094 36.960938 C 44.863281 37.613281 43.890625 38.144531 43.847656 38.144531 C 43.796875 38.144531 43.3125 37.445312 42.757812 36.589844 Z M 24.8125 25.335938 L 21.929688 23.472656 L 22.203125 23.042969 C 22.351562 22.8125 23.109375 21.632812 23.878906 20.417969 C 24.648438 19.207031 25.292969 18.203125 25.3125 18.1875 C 25.324219 18.171875 26.621094 18.984375 28.191406 20 L 31.050781 21.851562 L 30.621094 22.53125 C 30.390625 22.90625 29.6875 24.039062 29.058594 25.042969 C 28.4375 26.054688 27.867188 26.957031 27.808594 27.042969 C 27.707031 27.1875 27.296875 26.945312 24.8125 25.335938 Z M 28.488281 19.28125 C 26.996094 18.320312 25.769531 17.488281 25.769531 17.433594 C 25.769531 17.027344 27.003906 15.90625 27.613281 15.753906 C 28.617188 15.511719 30.257812 16.136719 31.171875 17.121094 C 31.878906 17.882812 32.03125 18.253906 31.960938 19.03125 C 31.914062 19.617188 31.429688 21.015625 31.273438 21.015625 C 31.234375 21.015625 29.976562 20.234375 28.488281 19.273438 Z M 28.488281 19.28125 "/>
</g>
</svg>
