<svg xmlns="http://www.w3.org/2000/svg" xmlns:xlink="http://www.w3.org/1999/xlink" width="64px" height="64px" viewBox="0 0 64 64" version="1.1">
<defs>
<linearGradient id="linear0" gradientUnits="userSpaceOnUse" x1="0" y1="0" x2="0" y2="1" gradientTransform="matrix(55.351351,0,0,51.891892,4.324324,6.054054)">
<stop offset="0" style="stop-color:#00a2ff;stop-opacity:1;"/>
<stop offset="0.5" style="stop-color:#dddddd;stop-opacity:1;"/>
<stop offset="1" style="stop-color:#00ffae;stop-opacity:1;"/>
</linearGradient>
</defs>
<g id="surface1">
<path style=" stroke:none;fill-rule:nonzero;fill:url(#linear0);" d="M 15.171875 57.632812 C 13.300781 56.960938 9.875 54.96875 8.292969 53.644531 C 5.496094 51.292969 3.441406 48.136719 4.707031 48.136719 C 4.914062 48.136719 6.363281 49.160156 7.933594 50.40625 C 13.070312 54.511719 17.109375 55.957031 20.789062 55.011719 C 24.972656 53.945312 31.214844 50.0625 32.742188 47.585938 C 33.71875 45.996094 33.691406 44.996094 32.652344 44.253906 C 31.851562 43.679688 31.921875 43.660156 34.242188 43.738281 L 36.675781 43.828125 L 36.78125 45.136719 C 36.855469 46.066406 36.441406 47.378906 35.378906 49.578125 C 34.550781 51.296875 33.867188 53 33.867188 53.363281 C 33.867188 54.179688 31.164062 55.703125 28.070312 56.625 C 25.703125 57.335938 19.320312 57.566406 17.257812 57.015625 C 16.292969 56.761719 16.21875 56.792969 16.648438 57.3125 C 17.058594 57.808594 17.027344 57.890625 16.433594 57.867188 C 16.042969 57.855469 15.476562 57.746094 15.171875 57.636719 Z M 30.40625 56.664062 C 35.054688 54.71875 38.027344 52.554688 40.039062 49.648438 C 41.027344 48.210938 41.105469 47.109375 40.144531 48.070312 C 39.144531 49.078125 38.730469 48.550781 38.730469 46.261719 C 38.730469 43.296875 37.957031 42.40625 35.644531 42.71875 L 34.058594 42.9375 L 35.929688 41.941406 C 36.957031 41.390625 38.050781 40.726562 38.355469 40.460938 C 38.664062 40.191406 39.625 39.613281 40.496094 39.175781 C 42.375 38.230469 42.839844 37.460938 42.839844 35.355469 C 42.839844 32.679688 42.058594 30.828125 40.027344 28.71875 C 38.914062 27.566406 38.363281 26.753906 38.6875 26.753906 C 38.996094 26.753906 40.132812 27.664062 41.207031 28.78125 C 42.761719 30.386719 43.328125 31.335938 43.941406 33.324219 C 44.847656 36.269531 44.957031 40.503906 44.199219 43.730469 C 43.917969 44.917969 43.746094 45.886719 43.8125 45.886719 C 43.886719 45.886719 44.191406 45.421875 44.5 44.855469 C 44.808594 44.289062 45.0625 44.027344 45.070312 44.273438 C 45.097656 44.960938 43.386719 48.015625 41.820312 50.09375 C 39.085938 53.710938 33.300781 57.253906 29.382812 57.707031 L 27.324219 57.945312 Z M 26.390625 41.734375 C 22.761719 40.089844 19.117188 35.164062 18.703125 31.339844 L 18.511719 29.566406 L 19.703125 31.984375 C 21.972656 36.5625 25.402344 38.960938 28.078125 37.839844 C 29.214844 37.363281 30.503906 35.988281 30.503906 35.257812 C 30.503906 35.070312 30.089844 35.191406 29.582031 35.527344 C 28.097656 36.5 26.132812 36.308594 24.894531 35.066406 C 22.234375 32.394531 22.808594 27.746094 26.210938 24.328125 C 28.160156 22.375 29.609375 21.765625 32.765625 21.582031 C 35.09375 21.445312 35.917969 21.550781 37.511719 22.242188 C 41.234375 23.851562 44.960938 29 45.363281 33.089844 L 45.53125 34.820312 L 44.242188 32.191406 C 42.597656 28.828125 41.363281 27.382812 39.289062 26.375 C 37.21875 25.367188 35.757812 25.613281 34.441406 27.1875 C 33.238281 28.617188 33.226562 29.265625 34.414062 28.484375 C 35.894531 27.511719 37.863281 27.703125 39.105469 28.941406 C 42.8125 32.664062 39.910156 39.996094 33.90625 42.070312 C 31.902344 42.765625 28.3125 42.605469 26.386719 41.734375 Z M 34.746094 40.515625 C 35.5 39.941406 36.363281 38.984375 36.675781 38.382812 C 37.824219 36.148438 37.058594 32.355469 35.339844 31.8125 C 34.300781 31.476562 33.386719 32.355469 31.625 35.382812 C 29.746094 38.613281 29.03125 39.207031 26.761719 39.421875 C 25.132812 39.582031 24.945312 39.679688 25.355469 40.175781 C 26.273438 41.289062 28.011719 41.769531 30.726562 41.664062 C 32.960938 41.578125 33.59375 41.394531 34.746094 40.511719 Z M 30.394531 31.539062 C 30.820312 31.070312 31.6875 29.753906 32.328125 28.597656 C 33.988281 25.609375 34.976562 24.800781 37.234375 24.585938 C 39.042969 24.410156 39.105469 24.367188 38.511719 23.714844 C 37.558594 22.660156 35.527344 22.152344 32.902344 22.320312 C 30.257812 22.488281 29.011719 23.175781 27.605469 25.246094 C 25.351562 28.566406 27.886719 34.285156 30.394531 31.539062 Z M 23.210938 35.714844 C 19.894531 32.648438 18.511719 27.5625 19.488281 22.0625 C 20.152344 18.289062 20.152344 18.199219 19.460938 19.082031 C 18.960938 19.71875 18.960938 19.621094 19.476562 18.3125 C 21.410156 13.394531 27.308594 8.261719 32.835938 6.679688 C 35.839844 5.8125 37.347656 6.085938 34.617188 6.996094 C 29.828125 8.59375 24.863281 12.289062 23.21875 15.476562 L 22.554688 16.769531 L 23.523438 16.132812 C 25.054688 15.125 25.269531 15.320312 25.269531 17.746094 C 25.269531 20.726562 26.042969 21.613281 28.355469 21.273438 L 29.941406 21.039062 L 28.261719 21.957031 C 25.175781 23.632812 22.09375 25.636719 21.621094 26.269531 C 21.027344 27.066406 21.023438 29.785156 21.613281 31.773438 C 21.894531 32.714844 22.8125 34.085938 23.972656 35.289062 C 26.210938 37.613281 25.621094 37.945312 23.210938 35.714844 Z M 27.386719 20.121094 C 26.785156 19.511719 27.257812 17.320312 28.636719 14.367188 C 29.449219 12.613281 30.121094 10.910156 30.125 10.582031 C 30.132812 9.835938 32.988281 8.261719 35.929688 7.390625 C 38.328125 6.679688 43.800781 6.472656 46.375 7 C 47.691406 7.265625 47.796875 7.238281 47.355469 6.707031 C 45.703125 4.707031 52.523438 7.6875 55.6875 10.351562 C 58.5 12.710938 60.5625 15.867188 59.292969 15.867188 C 59.085938 15.867188 57.613281 14.828125 56.023438 13.558594 C 52.785156 10.972656 50.476562 8.824219 47.054688 8.1875 C 44.53125 7.71875 41.796875 8.417969 39.476562 9.511719 C 35.808594 11.234375 30.210938 15.125 30.210938 17.414062 C 30.210938 17.769531 30.875 19.1875 31.324219 19.609375 L 32.136719 20.375 L 29.886719 20.375 C 28.648438 20.375 27.523438 20.253906 27.386719 20.121094 Z M 27.386719 20.121094 "/>
</g>
</svg>
