<svg xmlns="http://www.w3.org/2000/svg" xmlns:xlink="http://www.w3.org/1999/xlink" width="64px" height="64px" viewBox="0 0 64 64" version="1.1">
<defs>
<linearGradient id="linear0" gradientUnits="userSpaceOnUse" x1="0" y1="0" x2="0" y2="1" gradientTransform="matrix(55.351351,0,0,55.351351,4.324324,4.324324)">
<stop offset="0" style="stop-color:#ff8963;stop-opacity:1;"/>
<stop offset="0.5" style="stop-color:#dddddd;stop-opacity:1;"/>
<stop offset="1" style="stop-color:#0F6FFF;stop-opacity:1;"/>
</linearGradient>
</defs>
<g id="surface1">
<path style=" stroke:none;fill-rule:nonzero;fill:url(#linear0);" d="M 32 4.324219 C 16.664062 4.324219 4.324219 16.664062 4.324219 32 C 4.324219 47.335938 16.664062 59.675781 32 59.675781 C 47.335938 59.675781 59.675781 47.335938 59.675781 32 C 59.675781 16.664062 47.335938 4.324219 32 4.324219 Z M 32 7.785156 C 35.824219 7.785156 38.917969 10.878906 38.917969 14.703125 C 38.917969 18.527344 35.824219 21.621094 32 21.621094 C 28.175781 21.621094 25.082031 18.527344 25.082031 14.703125 C 25.082031 10.878906 28.175781 7.785156 32 7.785156 Z M 14.703125 25.082031 C 18.527344 25.082031 21.621094 28.175781 21.621094 32 C 21.621094 35.824219 18.527344 38.917969 14.703125 38.917969 C 10.878906 38.917969 7.785156 35.824219 7.785156 32 C 7.785156 28.175781 10.878906 25.082031 14.703125 25.082031 Z M 49.296875 25.082031 C 53.121094 25.082031 56.214844 28.175781 56.214844 32 C 56.214844 35.824219 53.121094 38.917969 49.296875 38.917969 C 45.472656 38.917969 42.378906 35.824219 42.378906 32 C 42.378906 28.175781 45.472656 25.082031 49.296875 25.082031 Z M 30.230469 27.28125 C 30.863281 27.261719 31.457031 27.59375 31.769531 28.144531 C 32.242188 28.960938 31.960938 30.023438 31.136719 30.5 C 30.738281 30.730469 30.265625 30.792969 29.824219 30.675781 C 29.382812 30.558594 29 30.269531 28.769531 29.875 C 28.539062 29.472656 28.476562 29 28.597656 28.558594 C 28.714844 28.113281 29.011719 27.734375 29.410156 27.503906 C 29.660156 27.363281 29.941406 27.285156 30.234375 27.28125 Z M 34.957031 28.539062 C 35.585938 28.523438 36.179688 28.855469 36.496094 29.40625 C 36.726562 29.800781 36.789062 30.273438 36.671875 30.71875 C 36.550781 31.164062 36.257812 31.539062 35.863281 31.769531 C 35.039062 32.246094 33.976562 31.960938 33.5 31.132812 C 33.269531 30.738281 33.207031 30.261719 33.324219 29.820312 C 33.441406 29.378906 33.730469 28.996094 34.125 28.765625 C 34.378906 28.621094 34.664062 28.542969 34.957031 28.539062 Z M 28.96875 32 C 29.597656 31.988281 30.1875 32.320312 30.5 32.863281 C 30.734375 33.261719 30.796875 33.734375 30.679688 34.175781 C 30.5625 34.617188 30.269531 35 29.875 35.230469 C 29.472656 35.460938 29 35.523438 28.558594 35.40625 C 28.113281 35.285156 27.734375 34.988281 27.503906 34.589844 C 27.273438 34.191406 27.210938 33.71875 27.335938 33.273438 C 27.449219 32.835938 27.742188 32.457031 28.144531 32.226562 C 28.390625 32.082031 28.675781 32.003906 28.960938 31.996094 Z M 33.691406 33.261719 C 34.324219 33.246094 34.914062 33.578125 35.230469 34.125 C 35.460938 34.527344 35.527344 35 35.40625 35.441406 C 35.289062 35.886719 34.996094 36.265625 34.59375 36.496094 C 34.199219 36.726562 33.71875 36.789062 33.28125 36.664062 C 32.835938 36.542969 32.457031 36.257812 32.230469 35.855469 C 31.757812 35.03125 32.039062 33.976562 32.863281 33.5 C 33.117188 33.351562 33.394531 33.273438 33.6875 33.261719 Z M 32 42.378906 C 35.824219 42.378906 38.917969 45.472656 38.917969 49.296875 C 38.917969 53.121094 35.824219 56.214844 32 56.214844 C 28.175781 56.214844 25.082031 53.121094 25.082031 49.296875 C 25.082031 45.472656 28.175781 42.378906 32 42.378906 Z M 32 42.378906 "/>
</g>
</svg>
