<svg xmlns="http://www.w3.org/2000/svg" xmlns:xlink="http://www.w3.org/1999/xlink" width="64px" height="64px" viewBox="0 0 64 64" version="1.1">
<defs>
<linearGradient id="linear0" gradientUnits="userSpaceOnUse" x1="0" y1="0" x2="0" y2="1" gradientTransform="matrix(55.351351,0,0,48.432432,4.324324,7.783784)">
<stop offset="0" style="stop-color:#05f7ff;stop-opacity:1;"/>
<stop offset="0.5" style="stop-color:#dddddd;stop-opacity:1;"/>
<stop offset="1" style="stop-color:#e6ff05;stop-opacity:1;"/>
</linearGradient>
</defs>
<g id="surface1">
<path style=" stroke:none;fill-rule:nonzero;fill:url(#linear0);" d="M 57.234375 7.785156 C 56.621094 7.808594 56.039062 8.082031 55.609375 8.558594 L 34.679688 31.125 L 25.589844 21.324219 C 24.664062 20.328125 23.171875 20.328125 22.242188 21.324219 L 5.015625 39.894531 C 4.089844 40.894531 4.09375 42.511719 5.015625 43.511719 C 5.945312 44.511719 7.445312 44.503906 8.367188 43.511719 L 23.914062 26.742188 L 33.003906 36.542969 C 33.445312 37.023438 34.050781 37.292969 34.679688 37.292969 C 35.3125 37.292969 35.910156 37.023438 36.355469 36.542969 L 58.960938 12.164062 C 59.660156 11.433594 59.867188 10.3125 59.488281 9.339844 C 59.109375 8.367188 58.210938 7.753906 57.234375 7.785156 Z M 54.484375 24.867188 C 53.53125 24.867188 52.761719 25.699219 52.761719 26.730469 L 52.761719 54.351562 C 52.761719 55.378906 53.53125 56.207031 54.484375 56.207031 L 55.339844 56.207031 C 56.296875 56.207031 57.066406 55.378906 57.066406 54.351562 L 57.066406 26.730469 C 57.066406 25.699219 56.296875 24.867188 55.339844 24.867188 Z M 46.734375 32.988281 C 45.78125 32.988281 45.015625 33.824219 45.015625 34.851562 L 45.015625 54.355469 C 45.015625 55.386719 45.78125 56.207031 46.734375 56.207031 L 47.597656 56.207031 C 48.554688 56.207031 49.320312 55.386719 49.320312 54.355469 L 49.320312 34.851562 C 49.320312 33.824219 48.554688 32.988281 47.597656 32.988281 Z M 23.699219 35.894531 C 22.742188 35.894531 21.972656 36.726562 21.972656 37.753906 L 21.972656 54.351562 C 21.972656 55.378906 22.742188 56.207031 23.699219 56.207031 L 24.558594 56.207031 C 25.511719 56.207031 26.285156 55.378906 26.285156 54.351562 L 26.285156 37.753906 C 26.285156 36.726562 25.511719 35.894531 24.558594 35.894531 Z M 39.203125 40.421875 C 38.246094 40.421875 37.476562 41.253906 37.476562 42.285156 L 37.476562 54.351562 C 37.476562 55.378906 38.246094 56.207031 39.203125 56.207031 L 40.0625 56.207031 C 41.015625 56.207031 41.785156 55.378906 41.785156 54.351562 L 41.785156 42.285156 C 41.785156 41.253906 41.015625 40.421875 40.0625 40.421875 Z M 31.457031 41.8125 C 30.5 41.8125 29.730469 42.636719 29.730469 43.664062 L 29.730469 54.351562 C 29.730469 55.378906 30.5 56.207031 31.457031 56.207031 L 32.3125 56.207031 C 33.265625 56.207031 34.039062 55.378906 34.039062 54.351562 L 34.039062 43.664062 C 34.039062 42.636719 33.265625 41.8125 32.3125 41.8125 Z M 15.949219 42.289062 C 14.996094 42.289062 14.234375 43.121094 14.234375 44.148438 L 14.234375 54.363281 C 14.234375 55.390625 14.996094 56.214844 15.949219 56.214844 L 16.8125 56.214844 C 17.769531 56.214844 18.53125 55.390625 18.53125 54.363281 L 18.53125 44.148438 C 18.53125 43.121094 17.769531 42.289062 16.8125 42.289062 Z M 8.207031 46.933594 C 7.253906 46.933594 6.484375 47.757812 6.484375 48.785156 L 6.484375 54.355469 C 6.484375 55.386719 7.253906 56.214844 8.207031 56.214844 L 9.066406 56.214844 C 10.023438 56.214844 10.792969 55.386719 10.792969 54.355469 L 10.792969 48.785156 C 10.792969 47.757812 10.023438 46.933594 9.066406 46.933594 Z M 8.207031 46.933594 "/>
</g>
</svg>
