<svg xmlns="http://www.w3.org/2000/svg" xmlns:xlink="http://www.w3.org/1999/xlink" width="64px" height="64px" viewBox="0 0 64 64" version="1.1">
<defs>
<linearGradient id="linear0" gradientUnits="userSpaceOnUse" x1="0" y1="0" x2="0" y2="1" gradientTransform="matrix(51.891892,0,0,51.923422,6.13063,5.689189)">
<stop offset="0" style="stop-color:#ffae00;stop-opacity:1;"/>
<stop offset="0.5" style="stop-color:#dddddd;stop-opacity:1;"/>
<stop offset="1" style="stop-color:#6600ff;stop-opacity:1;"/>
</linearGradient>
</defs>
<g id="surface1">
<path style=" stroke:none;fill-rule:nonzero;fill:url(#linear0);" d="M 53.957031 5.703125 C 53.164062 5.765625 52.375 6.164062 51.734375 6.785156 L 37.433594 19.21875 C 36.8125 19.8125 36.472656 20.652344 36.472656 21.503906 C 36.472656 21.90625 36.5625 22.28125 36.710938 22.644531 C 36.71875 22.664062 36.707031 22.6875 36.710938 22.703125 C 36.1875 23.835938 36.351562 25.417969 36.351562 28.835938 C 36.351562 30.089844 33.082031 31.414062 32.265625 31.414062 C 32.226562 31.414062 32.1875 31.414062 32.148438 31.414062 C 29.542969 31.414062 21.109375 31.800781 18.511719 35.382812 C 15.90625 38.960938 6.132812 55.226562 6.132812 57.613281 C 10.03125 57.613281 38.382812 43.445312 39.835938 42.109375 C 41.59375 40.496094 40.734375 37.246094 39.59375 35.082031 C 39.605469 35.070312 39.59375 35.03125 39.59375 35.023438 C 39.625 34.941406 39.636719 34.828125 39.539062 34.664062 C 38.929688 33.636719 38.578125 32.609375 38.578125 31.175781 C 38.578125 27.988281 38.910156 26.234375 39.59375 25.226562 C 41.132812 25.488281 43.351562 24.738281 44.339844 23.785156 L 56.902344 11.828125 C 58.175781 10.59375 58.476562 8.738281 57.199219 7.5 L 56.179688 6.484375 C 55.539062 5.863281 54.746094 5.636719 53.957031 5.699219 Z M 53.957031 5.703125 "/>
</g>
</svg>
