<svg xmlns="http://www.w3.org/2000/svg" xmlns:xlink="http://www.w3.org/1999/xlink" width="64px" height="64px" viewBox="0 0 64 64" version="1.1">
<defs>
<linearGradient id="linear0" gradientUnits="userSpaceOnUse" x1="0" y1="0" x2="0" y2="1" gradientTransform="matrix(51.891892,0,0,55.351351,6.054054,4.324324)">
<stop offset="0" style="stop-color:#ffae00;stop-opacity:1;"/>
<stop offset="0.5" style="stop-color:#dddddd;stop-opacity:1;"/>
<stop offset="1" style="stop-color:#bf1d1d;stop-opacity:1;"/>
</linearGradient>
</defs>
<g id="surface1">
<path style=" stroke:none;fill-rule:evenodd;fill:url(#linear0);" d="M 6.054688 23.460938 L 11.6875 23.375 C 13.351562 29.367188 15.445312 35.015625 17.960938 40.3125 C 19.488281 35.863281 22.3125 30.070312 26.410156 22.941406 L 32.3125 23.375 C 28.933594 28.292969 27.460938 32.3125 25.773438 36.082031 C 21.734375 45.105469 20.230469 48.613281 28.863281 59.675781 L 22.320312 59.589844 C 15.550781 49.402344 10.132812 37.363281 6.054688 23.460938 Z M 57.945312 40.539062 L 52.3125 40.625 C 50.648438 34.632812 48.554688 28.984375 46.039062 23.6875 C 44.511719 28.136719 41.6875 33.929688 37.589844 41.058594 L 31.6875 40.625 C 35.066406 35.707031 36.539062 31.6875 38.226562 27.917969 C 42.265625 18.894531 43.769531 15.386719 35.136719 4.324219 L 41.679688 4.40625 C 48.449219 14.597656 53.867188 26.636719 57.945312 40.539062 Z M 57.945312 40.539062 "/>
</g>
</svg>
