<svg xmlns="http://www.w3.org/2000/svg" xmlns:xlink="http://www.w3.org/1999/xlink" width="64px" height="64px" viewBox="0 0 64 64" version="1.1">
<defs>
<linearGradient id="linear0" gradientUnits="userSpaceOnUse" x1="0" y1="0" x2="0" y2="1" gradientTransform="matrix(55.351351,0,0,44.972973,4.324324,9.513514)">
<stop offset="0" style="stop-color:#05f7ff;stop-opacity:1;"/>
<stop offset="0.5" style="stop-color:#dddddd;stop-opacity:1;"/>
<stop offset="1" style="stop-color:#e6ff05;stop-opacity:1;"/>
</linearGradient>
</defs>
<g id="surface1">
<path style=" stroke:none;fill-rule:nonzero;fill:url(#linear0);" d="M 30.152344 9.511719 L 30.152344 11.386719 L 33.847656 11.386719 L 33.847656 9.511719 Z M 30.152344 13.261719 L 30.152344 15.136719 L 33.847656 15.136719 L 33.847656 13.261719 Z M 30.152344 17.011719 L 30.152344 28.253906 L 17.238281 28.253906 C 17.117188 28.253906 16.988281 28.261719 16.875 28.285156 C 11.1875 28.449219 6.242188 32.375 4.765625 37.976562 C 3.253906 43.703125 5.726562 49.769531 10.785156 52.734375 C 15.792969 55.675781 22.136719 54.847656 26.261719 50.742188 L 37.738281 50.742188 C 41.863281 54.847656 48.207031 55.675781 53.214844 52.734375 C 58.273438 49.769531 60.746094 43.703125 59.234375 37.976562 C 57.757812 32.363281 52.796875 28.441406 47.109375 28.285156 C 46.988281 28.261719 46.878906 28.253906 46.761719 28.253906 L 33.847656 28.253906 L 33.847656 17.011719 Z M 17.238281 32 L 46.761719 32 C 50.945312 32 54.59375 34.839844 55.675781 38.949219 C 56.757812 43.054688 54.996094 47.363281 51.375 49.488281 C 47.945312 51.5 43.710938 51.039062 40.757812 48.445312 C 40.273438 47.960938 39.800781 46.984375 38.933594 46.996094 L 25.066406 46.996094 C 24.203125 46.984375 23.613281 47.996094 23.253906 48.4375 C 20.296875 51.03125 16.054688 51.5 12.625 49.488281 C 9.003906 47.363281 7.246094 43.054688 8.335938 38.949219 C 9.414062 34.839844 13.054688 32 17.238281 32 Z M 15.394531 35.753906 L 15.394531 39.5 L 11.703125 39.5 L 11.703125 43.246094 L 15.394531 43.246094 L 15.394531 46.996094 L 19.085938 46.996094 L 19.085938 43.246094 L 22.773438 43.246094 L 22.773438 39.5 L 19.085938 39.5 L 19.085938 35.753906 Z M 46.761719 35.753906 C 45.742188 35.753906 44.914062 36.589844 44.914062 37.625 C 44.914062 38.660156 45.742188 39.5 46.761719 39.5 C 47.78125 39.5 48.605469 38.660156 48.605469 37.625 C 48.605469 36.589844 47.78125 35.753906 46.761719 35.753906 Z M 43.070312 39.5 C 42.050781 39.5 41.226562 40.335938 41.226562 41.375 C 41.226562 42.40625 42.050781 43.246094 43.070312 43.246094 C 44.089844 43.246094 44.914062 42.40625 44.914062 41.375 C 44.914062 40.335938 44.089844 39.5 43.070312 39.5 Z M 50.449219 39.5 C 49.433594 39.5 48.605469 40.335938 48.605469 41.375 C 48.605469 42.40625 49.433594 43.246094 50.449219 43.246094 C 51.46875 43.246094 52.296875 42.40625 52.296875 41.375 C 52.296875 40.335938 51.46875 39.5 50.449219 39.5 Z M 46.761719 43.246094 C 45.742188 43.246094 44.914062 44.085938 44.914062 45.121094 C 44.914062 46.152344 45.742188 46.996094 46.761719 46.996094 C 47.78125 46.996094 48.605469 46.152344 48.605469 45.121094 C 48.605469 44.085938 47.78125 43.246094 46.761719 43.246094 Z M 46.761719 43.246094 "/>
</g>
</svg>
