<svg xmlns="http://www.w3.org/2000/svg" xmlns:xlink="http://www.w3.org/1999/xlink" width="64px" height="64px" viewBox="0 0 64 64" version="1.1">
<defs>
<linearGradient id="linear0" gradientUnits="userSpaceOnUse" x1="0" y1="0" x2="0" y2="1" gradientTransform="matrix(55.355858,0,0,55.355858,4.324324,4.324324)">
<stop offset="0" style="stop-color:#ffae00;stop-opacity:1;"/>
<stop offset="0.5" style="stop-color:#dddddd;stop-opacity:1;"/>
<stop offset="1" style="stop-color:#6600ff;stop-opacity:1;"/>
</linearGradient>
</defs>
<g id="surface1">
<path style=" stroke:none;fill-rule:nonzero;fill:url(#linear0);" d="M 24.097656 4.328125 L 24.097656 4.335938 C 23.148438 6.40625 22.410156 8.511719 21.988281 9.8125 C 20.613281 9.8125 18.351562 9.863281 16.1875 10.144531 L 16.1875 10.148438 C 17.835938 11.710938 19.589844 13.078125 20.679688 13.878906 C 20.253906 15.203125 19.605469 17.40625 19.199219 19.570312 C 21.171875 18.460938 22.988281 17.199219 24.078125 16.402344 C 25.644531 17.558594 27.273438 18.621094 28.960938 19.582031 L 28.960938 19.578125 C 28.585938 17.652344 28.09375 15.757812 27.5 13.890625 C 29.070312 12.742188 30.570312 11.496094 31.996094 10.164062 L 31.996094 10.160156 C 30.070312 9.933594 28.136719 9.820312 26.207031 9.8125 C 25.613281 7.945312 24.910156 6.109375 24.09375 4.324219 Z M 10.257812 20.171875 C 9.652344 21.511719 9.121094 22.878906 8.675781 24.28125 C 7.21875 24.273438 5.765625 24.363281 4.324219 24.539062 C 5.566406 25.707031 6.878906 26.730469 7.691406 27.328125 C 7.367188 28.324219 6.886719 29.976562 6.585938 31.605469 C 7.851562 30.882812 9.070312 30.089844 10.246094 29.226562 C 11.082031 29.839844 12.484375 30.820312 13.917969 31.613281 L 13.917969 31.609375 C 13.589844 29.929688 13.125 28.3125 12.8125 27.339844 C 13.648438 26.730469 15 25.6875 16.1875 24.542969 C 14.742188 24.375 13.292969 24.289062 11.839844 24.289062 C 11.394531 22.882812 10.867188 21.511719 10.261719 20.171875 Z M 41.085938 8.539062 C 45.6875 14.246094 47.308594 21.847656 45.433594 28.972656 C 42.191406 41.21875 29.773438 48.488281 17.691406 45.210938 C 14.609375 44.363281 11.734375 42.863281 9.261719 40.800781 C 11.753906 49.585938 18.589844 56.40625 27.292969 58.785156 C 41.015625 62.515625 55.125 54.257812 58.800781 40.339844 C 62.417969 26.617188 54.542969 12.484375 41.089844 8.539062 Z M 49.648438 18.390625 C 53.863281 22.808594 56.050781 28.808594 55.6875 34.9375 C 55.597656 36.414062 55.363281 37.878906 54.976562 39.308594 C 53.003906 46.867188 47.21875 52.800781 39.785156 54.886719 C 32.347656 56.972656 24.378906 54.902344 18.851562 49.441406 C 32.296875 51.886719 45.660156 43.617188 49.257812 30.011719 L 49.257812 30.003906 C 50.21875 26.210938 50.355469 22.246094 49.652344 18.390625 Z M 49.648438 18.390625 "/>
</g>
</svg>
