<svg xmlns="http://www.w3.org/2000/svg" xmlns:xlink="http://www.w3.org/1999/xlink" width="64px" height="64px" viewBox="0 0 64 64" version="1.1">
<defs>
<linearGradient id="linear0" gradientUnits="userSpaceOnUse" x1="0" y1="0" x2="0" y2="1" gradientTransform="matrix(30.909909,0,0,55.351351,16.545045,4.324324)">
<stop offset="0" style="stop-color:#00a2ff;stop-opacity:1;"/>
<stop offset="0.5" style="stop-color:#dddddd;stop-opacity:1;"/>
<stop offset="1" style="stop-color:#00ffae;stop-opacity:1;"/>
</linearGradient>
</defs>
<g id="surface1">
<path style=" stroke:none;fill-rule:nonzero;fill:url(#linear0);" d="M 18.273438 59.558594 C 17.691406 59.339844 17.1875 58.96875 16.882812 58.539062 C 16.605469 58.132812 16.59375 58.085938 16.558594 56.378906 C 16.515625 54.457031 16.636719 53.441406 17.039062 52.289062 C 17.8125 50.023438 19.175781 48.117188 21.300781 46.324219 C 22.214844 45.550781 23.769531 44.460938 23.882812 44.515625 C 23.917969 44.539062 24.273438 44.714844 24.671875 44.917969 C 25.984375 45.589844 28.066406 46.40625 29.59375 46.839844 C 29.757812 46.890625 29.617188 46.996094 28.894531 47.328125 C 27.757812 47.863281 26.773438 48.441406 26.847656 48.53125 C 26.875 48.566406 28.679688 48.597656 30.863281 48.597656 L 34.824219 48.597656 L 35.734375 49.113281 C 36.230469 49.394531 37.117188 50.027344 37.703125 50.515625 L 38.765625 51.414062 L 31.097656 51.460938 L 23.4375 51.503906 L 23.082031 52.085938 C 22.765625 52.609375 22.300781 53.675781 22.300781 53.882812 C 22.300781 53.929688 26.363281 53.960938 32 53.960938 C 37.335938 53.960938 41.699219 53.933594 41.699219 53.890625 C 41.699219 53.6875 41.3125 52.78125 41.011719 52.257812 C 39.714844 50.058594 37.402344 48.246094 34.191406 46.941406 C 33.542969 46.675781 32.054688 46.191406 30.878906 45.875 C 26.894531 44.773438 23.976562 43.351562 21.488281 41.285156 C 18.820312 39.070312 17.230469 36.609375 16.691406 33.863281 C 16.484375 32.796875 16.539062 30.636719 16.796875 29.644531 C 17.589844 26.613281 19.707031 23.875 22.988281 21.644531 C 23.390625 21.363281 23.769531 21.136719 23.820312 21.136719 C 23.878906 21.136719 24.3125 21.335938 24.789062 21.578125 C 26.164062 22.269531 27.664062 22.863281 29.589844 23.460938 C 29.757812 23.511719 29.636719 23.597656 28.949219 23.90625 C 28.488281 24.117188 27.796875 24.472656 27.414062 24.703125 L 26.71875 25.117188 L 30.773438 25.164062 L 34.824219 25.207031 L 35.539062 25.613281 C 36.738281 26.289062 38.613281 27.757812 38.613281 28.027344 C 38.613281 28.085938 35.945312 28.117188 31.003906 28.117188 L 23.394531 28.117188 L 23.011719 28.8125 C 22.5625 29.609375 22.257812 30.40625 22.351562 30.53125 C 22.445312 30.660156 41.558594 30.648438 41.652344 30.53125 C 41.757812 30.382812 41.308594 29.308594 40.835938 28.5625 C 39.585938 26.609375 37.324219 24.863281 34.457031 23.660156 C 33.664062 23.324219 32.511719 22.921875 31.890625 22.761719 C 29.917969 22.253906 28.675781 21.851562 27.257812 21.269531 C 21.757812 19.027344 17.988281 15.347656 16.796875 11.066406 C 16.679688 10.636719 16.613281 9.8125 16.570312 8.339844 C 16.515625 6.300781 16.527344 6.226562 16.757812 5.769531 C 17.175781 4.957031 18.289062 4.324219 19.3125 4.324219 C 20.796875 4.324219 22.085938 5.449219 22.085938 6.757812 L 22.085938 7.1875 L 41.914062 7.1875 L 41.914062 6.757812 C 41.914062 5.449219 43.203125 4.324219 44.6875 4.324219 C 45.710938 4.324219 46.824219 4.957031 47.242188 5.769531 C 47.472656 6.226562 47.484375 6.300781 47.429688 8.339844 C 47.363281 10.597656 47.292969 11.027344 46.703125 12.5 C 46.066406 14.097656 44.757812 15.886719 43.144531 17.351562 C 42.386719 18.042969 40.554688 19.402344 40.253906 19.5 C 40.175781 19.527344 39.703125 19.335938 39.207031 19.089844 C 38.109375 18.527344 36.1875 17.753906 35.058594 17.40625 L 34.226562 17.148438 L 35.214844 16.675781 C 35.765625 16.410156 36.449219 16.054688 36.742188 15.875 L 37.269531 15.550781 L 33.226562 15.503906 L 29.175781 15.460938 L 28.375 15.011719 C 27.9375 14.769531 27.042969 14.132812 26.402344 13.585938 L 25.230469 12.597656 L 40.582031 12.511719 L 40.894531 12.023438 C 41.207031 11.527344 41.699219 10.402344 41.699219 10.175781 C 41.699219 10.066406 40.257812 10.050781 32 10.050781 C 23.984375 10.050781 22.300781 10.070312 22.300781 10.164062 C 22.300781 10.394531 22.746094 11.429688 23.09375 12.011719 C 24.261719 13.949219 26.6875 15.828125 29.632812 17.054688 C 30.6875 17.5 31.394531 17.71875 33.597656 18.320312 C 38.015625 19.511719 42.105469 21.902344 44.515625 24.714844 C 46.441406 26.949219 47.320312 29.03125 47.429688 31.558594 C 47.550781 34.597656 46.515625 37.203125 44.207031 39.699219 C 43.445312 40.511719 41.863281 41.847656 40.863281 42.511719 L 40.179688 42.960938 L 39.851562 42.792969 C 38.003906 41.847656 36.175781 41.113281 34.402344 40.597656 C 34.230469 40.550781 34.347656 40.46875 34.988281 40.179688 C 35.949219 39.738281 37.03125 39.113281 37.089844 38.960938 C 37.125 38.875 36.292969 38.851562 33.160156 38.851562 L 29.175781 38.851562 L 28.265625 38.335938 C 27.769531 38.058594 26.882812 37.421875 26.296875 36.929688 L 25.230469 36.03125 L 40.542969 35.941406 L 40.863281 35.457031 C 41.164062 35.003906 41.699219 33.792969 41.699219 33.578125 C 41.699219 33.511719 38.835938 33.484375 32 33.484375 C 26.664062 33.484375 22.300781 33.511719 22.300781 33.558594 C 22.300781 33.710938 22.652344 34.617188 22.863281 35.003906 C 22.988281 35.226562 23.273438 35.664062 23.503906 35.988281 C 23.867188 36.496094 24.136719 36.785156 25.121094 37.761719 C 25.460938 38.089844 27.175781 39.230469 28.039062 39.699219 C 29.292969 40.375 30.839844 40.945312 33.089844 41.566406 C 35.414062 42.207031 37.257812 42.910156 38.878906 43.761719 C 42.296875 45.5625 45.113281 48.210938 46.347656 50.785156 C 47.261719 52.6875 47.496094 53.882812 47.441406 56.378906 C 47.40625 58.085938 47.394531 58.132812 47.117188 58.539062 C 46.5625 59.324219 45.664062 59.730469 44.585938 59.671875 C 43.0625 59.59375 42.085938 58.78125 41.933594 57.460938 L 41.863281 56.867188 L 22.136719 56.867188 L 22.066406 57.460938 C 21.960938 58.386719 21.394531 59.113281 20.511719 59.472656 C 19.988281 59.6875 18.738281 59.734375 18.273438 59.558594 Z M 18.273438 59.558594 "/>
</g>
</svg>
