<svg xmlns="http://www.w3.org/2000/svg" xmlns:xlink="http://www.w3.org/1999/xlink" width="64px" height="64px" viewBox="0 0 64 64" version="1.1">
<defs>
<linearGradient id="linear0" gradientUnits="userSpaceOnUse" x1="0" y1="0" x2="0" y2="1" gradientTransform="matrix(49.189189,0,0,55.351351,7.405405,4.324324)">
<stop offset="0" style="stop-color:#ffae00;stop-opacity:1;"/>
<stop offset="0.5" style="stop-color:#dddddd;stop-opacity:1;"/>
<stop offset="1" style="stop-color:#bf1d1d;stop-opacity:1;"/>
</linearGradient>
</defs>
<g id="surface1">
<path style=" stroke:none;fill-rule:nonzero;fill:url(#linear0);" d="M 32 4.324219 C 28.164062 4.324219 24.945312 9.082031 23.085938 16.5625 C 15.664062 14.4375 9.96875 14.835938 8.050781 18.164062 C 6.136719 21.472656 8.597656 26.664062 14.105469 32 C 8.597656 37.335938 6.136719 42.527344 8.050781 45.835938 C 9.96875 49.164062 15.664062 49.5625 23.085938 47.4375 C 24.945312 54.917969 28.164062 59.675781 32 59.675781 C 35.835938 59.675781 39.054688 54.917969 40.914062 47.4375 C 48.335938 49.5625 54.03125 49.160156 55.949219 45.835938 C 57.863281 42.527344 55.402344 37.335938 49.894531 32 C 55.410156 26.664062 57.863281 21.472656 55.949219 18.164062 C 54.03125 14.839844 48.335938 14.4375 40.910156 16.5625 C 39.054688 9.082031 35.835938 4.324219 32 4.324219 Z M 32 8.382812 C 34.46875 8.382812 37.121094 11.757812 38.917969 17.164062 C 36.554688 17.957031 34.242188 18.886719 32 19.960938 C 29.753906 18.886719 27.441406 17.949219 25.082031 17.164062 C 26.878906 11.757812 29.53125 8.378906 32 8.378906 Z M 17.296875 18.03125 C 18.835938 18.011719 20.6875 18.238281 22.617188 18.625 C 22.117188 21.0625 21.761719 23.53125 21.554688 26.011719 C 19.511719 27.402344 17.558594 28.910156 15.699219 30.539062 C 11.941406 26.285156 10.339844 22.296875 11.578125 20.160156 C 12.382812 18.761719 14.402344 18.0625 17.296875 18.03125 Z M 45.171875 18.03125 C 48.855469 17.789062 51.484375 18.527344 52.421875 20.160156 C 53.660156 22.292969 52.058594 26.285156 48.296875 30.539062 C 46.441406 28.914062 44.488281 27.402344 42.445312 26.011719 C 42.238281 23.53125 41.882812 21.0625 41.378906 18.632812 C 42.699219 18.351562 44.027344 18.105469 45.175781 18.027344 Z M 24.484375 19.027344 C 26.253906 19.496094 28.121094 20.160156 30.066406 20.960938 C 28.945312 21.53125 27.8125 22.09375 26.675781 22.753906 C 25.539062 23.410156 24.472656 24.136719 23.417969 24.8125 C 23.703125 22.753906 24.011719 20.78125 24.484375 19.027344 Z M 39.515625 19.027344 C 39.988281 20.78125 40.296875 22.753906 40.582031 24.8125 C 39.523438 24.136719 38.460938 23.410156 37.320312 22.753906 C 36.1875 22.09375 35.050781 21.53125 33.929688 20.957031 C 35.746094 20.191406 37.613281 19.542969 39.515625 19.027344 Z M 32 21.757812 C 33.496094 22.4375 35.0625 23.203125 36.589844 24.082031 C 38.078125 24.945312 39.515625 25.878906 40.910156 26.878906 C 41.0625 28.503906 41.113281 30.234375 41.113281 32 C 41.113281 33.765625 41.0625 35.488281 40.914062 37.121094 C 39.566406 38.082031 38.125 39.027344 36.589844 39.917969 C 35.09375 40.765625 33.566406 41.539062 32 42.242188 C 30.5 41.5625 28.9375 40.796875 27.410156 39.917969 C 25.921875 39.054688 24.484375 38.121094 23.085938 37.121094 C 22.941406 35.417969 22.875 33.707031 22.882812 32 C 22.882812 30.234375 22.9375 28.511719 23.085938 26.878906 C 24.433594 25.917969 25.867188 24.972656 27.40625 24.082031 C 28.902344 23.234375 30.433594 22.457031 32 21.753906 Z M 32 25.613281 C 29.714844 25.613281 27.609375 26.835938 26.46875 28.8125 C 25.328125 30.785156 25.328125 33.21875 26.46875 35.199219 C 27.613281 37.175781 29.71875 38.390625 32.003906 38.386719 C 35.53125 38.386719 38.390625 35.527344 38.386719 32 C 38.386719 28.472656 35.527344 25.613281 32 25.613281 Z M 21.488281 28.144531 C 21.433594 29.394531 21.355469 30.6875 21.355469 32 C 21.355469 33.3125 21.429688 34.605469 21.488281 35.863281 C 19.917969 34.671875 18.433594 33.382812 17.03125 32 C 18.320312 30.703125 19.824219 29.421875 21.488281 28.136719 Z M 42.511719 28.144531 C 44.082031 29.328125 45.566406 30.621094 46.960938 32 C 45.679688 33.296875 44.175781 34.578125 42.511719 35.863281 C 42.566406 34.605469 42.636719 33.3125 42.636719 32 C 42.636719 30.6875 42.566406 29.394531 42.503906 28.136719 Z M 15.699219 33.460938 C 17.429688 34.988281 19.382812 36.488281 21.554688 37.988281 C 21.761719 40.613281 22.164062 43.113281 22.617188 45.375 C 17.050781 46.511719 12.8125 45.914062 11.578125 43.773438 C 10.339844 41.636719 11.941406 37.714844 15.699219 33.460938 Z M 48.296875 33.460938 C 52.058594 37.714844 53.660156 41.703125 52.421875 43.839844 C 51.1875 45.976562 46.949219 46.511719 41.378906 45.375 C 41.835938 43.113281 42.238281 40.613281 42.445312 37.988281 C 44.488281 36.597656 46.441406 35.089844 48.296875 33.460938 Z M 23.417969 39.1875 C 24.476562 39.863281 25.539062 40.589844 26.679688 41.246094 C 27.8125 41.90625 28.949219 42.46875 30.070312 43.039062 C 28.125 43.839844 26.257812 44.503906 24.488281 44.972656 C 24.011719 43.21875 23.703125 41.246094 23.417969 39.1875 Z M 40.582031 39.1875 C 40.296875 41.246094 39.996094 43.21875 39.515625 44.972656 C 37.613281 44.457031 35.753906 43.808594 33.933594 43.039062 C 35.054688 42.46875 36.1875 41.90625 37.324219 41.246094 C 38.460938 40.589844 39.527344 39.863281 40.582031 39.1875 Z M 32 44.039062 C 34.242188 45.113281 36.554688 46.042969 38.917969 46.835938 C 37.121094 52.242188 34.46875 55.617188 32 55.617188 C 29.53125 55.617188 26.878906 52.242188 25.082031 46.835938 C 27.441406 46.050781 29.753906 45.113281 32 44.039062 Z M 32 44.039062 "/>
</g>
</svg>
