<svg xmlns="http://www.w3.org/2000/svg" xmlns:xlink="http://www.w3.org/1999/xlink" width="64px" height="64px" viewBox="0 0 64 64" version="1.1">
<defs>
<linearGradient id="linear0" gradientUnits="userSpaceOnUse" x1="0" y1="0" x2="0" y2="1" gradientTransform="matrix(55.351351,0,0,55.351351,4.324324,4.324324)">
<stop offset="0" style="stop-color:#ff8963;stop-opacity:1;"/>
<stop offset="0.5" style="stop-color:#dddddd;stop-opacity:1;"/>
<stop offset="1" style="stop-color:#0F6FFF;stop-opacity:1;"/>
</linearGradient>
</defs>
<g id="surface1">
<path style=" stroke:none;fill-rule:evenodd;fill:url(#linear0);" d="M 11.460938 4.324219 C 7.515625 4.324219 4.324219 7.515625 4.324219 11.460938 C 4.328125 15.394531 7.523438 18.589844 11.460938 18.589844 C 15.394531 18.585938 18.585938 15.394531 18.589844 11.460938 C 18.589844 7.523438 15.394531 4.328125 11.460938 4.324219 Z M 52.539062 4.324219 C 48.605469 4.328125 45.410156 7.523438 45.410156 11.460938 C 45.414062 15.394531 48.605469 18.585938 52.539062 18.589844 C 56.476562 18.589844 59.671875 15.394531 59.675781 11.460938 C 59.675781 7.515625 56.484375 4.324219 52.539062 4.324219 Z M 32 24.863281 C 28.058594 24.863281 24.863281 28.058594 24.863281 32 C 24.863281 35.941406 28.058594 39.136719 32 39.136719 C 35.941406 39.136719 39.136719 35.941406 39.136719 32 C 39.136719 28.058594 35.941406 24.863281 32 24.863281 Z M 11.460938 45.410156 C 7.523438 45.410156 4.328125 48.605469 4.324219 52.539062 C 4.324219 56.484375 7.515625 59.675781 11.460938 59.675781 C 15.394531 59.671875 18.589844 56.476562 18.589844 52.539062 C 18.585938 48.605469 15.394531 45.414062 11.460938 45.410156 Z M 52.539062 45.410156 C 48.605469 45.414062 45.414062 48.605469 45.410156 52.539062 C 45.410156 56.476562 48.605469 59.671875 52.539062 59.675781 C 56.484375 59.675781 59.675781 56.484375 59.675781 52.539062 C 59.671875 48.605469 56.476562 45.410156 52.539062 45.410156 Z M 52.539062 45.410156 "/>
</g>
</svg>
