<svg xmlns="http://www.w3.org/2000/svg" xmlns:xlink="http://www.w3.org/1999/xlink" width="64px" height="64px" viewBox="0 0 64 64" version="1.1">
<defs>
<linearGradient id="linear0" gradientUnits="userSpaceOnUse" x1="0" y1="0" x2="0" y2="1" gradientTransform="matrix(55.351351,0,0,50.198199,4.324324,6.018018)">
<stop offset="0" style="stop-color:#00fff2;stop-opacity:1;"/>
<stop offset="0.5" style="stop-color:#dddddd;stop-opacity:1;"/>
<stop offset="1" style="stop-color:#0062ff;stop-opacity:1;"/>
</linearGradient>
</defs>
<g id="surface1">
<path style=" stroke:none;fill-rule:nonzero;fill:url(#linear0);" d="M 31.910156 56.039062 C 31.769531 55.9375 31.488281 55.738281 31.285156 55.59375 L 30.90625 55.335938 L 30.90625 53.015625 L 31.433594 52.320312 L 31.957031 51.621094 L 31.933594 49.375 C 31.917969 48.136719 31.886719 44.875 31.863281 42.132812 C 31.835938 39.382812 31.808594 36.460938 31.796875 35.632812 C 31.785156 34.808594 31.761719 32.59375 31.742188 30.71875 L 31.710938 27.3125 L 31.097656 26.847656 C 30.375 26.292969 29.8125 25.867188 29.199219 25.394531 C 28.957031 25.207031 28.6875 25.003906 28.597656 24.941406 C 28.511719 24.878906 28.003906 24.488281 27.460938 24.078125 C 25.914062 22.886719 26.097656 22.988281 25.363281 22.886719 C 25.011719 22.835938 24.660156 22.773438 24.566406 22.753906 C 24.484375 22.734375 24.1875 22.679688 23.90625 22.636719 C 23.632812 22.597656 23.1875 22.53125 22.929688 22.484375 C 22.664062 22.433594 22.285156 22.367188 22.082031 22.339844 C 21.882812 22.3125 21.5625 22.261719 21.378906 22.226562 C 21.1875 22.1875 20.78125 22.121094 20.460938 22.070312 C 19.589844 21.933594 17.515625 21.589844 16.589844 21.433594 C 16.300781 21.378906 15.921875 21.320312 15.746094 21.292969 C 15.375 21.238281 14.230469 21.050781 13.671875 20.945312 C 13.460938 20.90625 12.976562 20.828125 12.597656 20.765625 C 12.226562 20.707031 11.542969 20.597656 11.09375 20.523438 C 10.644531 20.445312 9.882812 20.324219 9.410156 20.246094 C 8.933594 20.171875 8.511719 20.097656 8.472656 20.085938 C 8.4375 20.078125 8.066406 20.011719 7.652344 19.945312 C 7.238281 19.878906 6.613281 19.78125 6.261719 19.71875 C 5.910156 19.664062 5.335938 19.570312 4.972656 19.511719 L 4.324219 19.402344 L 4.324219 18.191406 L 4.652344 17.710938 C 4.835938 17.445312 5.09375 17.066406 5.230469 16.878906 C 5.363281 16.6875 5.539062 16.429688 5.625 16.300781 C 5.710938 16.175781 5.847656 15.984375 5.921875 15.867188 C 6.003906 15.757812 6.175781 15.511719 6.300781 15.320312 C 6.429688 15.132812 6.609375 14.867188 6.707031 14.738281 L 6.878906 14.5 L 57.113281 14.5 L 57.3125 14.769531 C 57.417969 14.917969 57.617188 15.203125 57.753906 15.394531 C 57.886719 15.59375 58.214844 16.070312 58.484375 16.460938 C 58.753906 16.847656 59.132812 17.394531 59.324219 17.675781 L 59.675781 18.1875 L 59.675781 19.402344 L 59.117188 19.5 C 58.511719 19.609375 57.390625 19.8125 56.367188 19.988281 C 56.015625 20.054688 55.382812 20.171875 54.957031 20.242188 C 54.53125 20.320312 53.839844 20.441406 53.429688 20.515625 C 53.011719 20.59375 52.390625 20.707031 52.039062 20.769531 C 51.6875 20.828125 51.050781 20.941406 50.625 21.023438 C 50.199219 21.097656 49.523438 21.21875 49.121094 21.292969 C 48.71875 21.363281 48.03125 21.488281 47.59375 21.566406 C 46.214844 21.8125 45.3125 21.972656 44.632812 22.09375 C 44.265625 22.152344 43.933594 22.214844 43.886719 22.230469 C 43.839844 22.246094 43.511719 22.308594 43.160156 22.363281 C 42.800781 22.429688 42.171875 22.539062 41.757812 22.613281 C 40.472656 22.839844 39.46875 23.023438 39.089844 23.089844 C 38.886719 23.132812 38.671875 23.164062 38.605469 23.164062 C 38.53125 23.164062 38.378906 23.246094 38.210938 23.378906 C 37.914062 23.613281 36.0625 25.027344 35.8125 25.214844 C 35.660156 25.328125 35.203125 25.671875 34.289062 26.378906 C 34.027344 26.578125 33.757812 26.785156 33.6875 26.835938 C 33.617188 26.882812 33.46875 26.988281 33.355469 27.078125 L 33.148438 27.230469 L 33.121094 27.828125 C 33.109375 28.160156 33.070312 31.339844 33.050781 34.902344 C 33.023438 38.460938 32.984375 43.679688 32.949219 46.496094 L 32.902344 51.613281 L 33.015625 51.785156 C 33.085938 51.878906 33.207031 52.039062 33.289062 52.148438 C 33.367188 52.257812 33.554688 52.503906 33.703125 52.707031 L 33.96875 53.070312 L 33.9375 54.1875 C 33.894531 55.476562 33.988281 55.273438 33.199219 55.847656 C 32.691406 56.210938 32.679688 56.214844 32.421875 56.214844 C 32.1875 56.210938 32.132812 56.191406 31.910156 56.039062 Z M 8.335938 13.769531 C 8.375 13.746094 9.488281 13.179688 10.8125 12.515625 L 13.210938 11.308594 L 15.527344 11.308594 L 15.6875 11.179688 C 15.917969 10.996094 16.710938 10.613281 17.253906 10.421875 C 18.78125 9.882812 21.066406 9.421875 23.636719 9.132812 L 23.957031 9.09375 L 23.960938 8.335938 L 23.976562 7.566406 L 25.164062 7.566406 L 25.164062 8.9375 L 25.386719 8.9375 L 25.386719 6.613281 L 25.6875 6.613281 C 25.839844 6.613281 25.988281 6.632812 26.003906 6.660156 C 26.023438 6.679688 26.042969 7.179688 26.058594 7.765625 C 26.070312 8.347656 26.09375 8.835938 26.105469 8.839844 C 26.113281 8.851562 26.117188 8.46875 26.117188 7.988281 L 26.117188 7.113281 L 26.707031 7.113281 L 26.71875 7.96875 C 26.734375 8.789062 26.738281 8.824219 26.824219 8.824219 C 26.914062 8.824219 26.917969 8.789062 26.929688 7.96875 L 26.941406 7.113281 L 28.125 7.113281 L 28.125 7.929688 C 28.125 8.375 28.136719 8.746094 28.144531 8.761719 C 28.160156 8.769531 28.273438 8.769531 28.40625 8.757812 L 28.648438 8.734375 L 28.664062 8.21875 C 28.671875 7.792969 28.6875 7.707031 28.746094 7.707031 C 28.785156 7.707031 28.828125 7.664062 28.839844 7.617188 C 28.863281 7.53125 28.902344 7.523438 29.476562 7.523438 L 30.089844 7.523438 L 30.078125 8.105469 C 30.0625 8.597656 30.070312 8.6875 30.132812 8.6875 C 30.1875 8.6875 30.203125 8.503906 30.210938 7.351562 L 30.226562 6.015625 L 30.660156 6.015625 C 31.039062 6.015625 31.089844 6.03125 31.089844 6.097656 C 31.09375 6.144531 31.09375 6.738281 31.089844 7.421875 L 31.082031 8.664062 L 31.40625 8.664062 L 31.40625 7.824219 C 31.40625 7.191406 31.421875 6.984375 31.460938 6.96875 C 31.511719 6.949219 31.652344 6.957031 31.917969 6.972656 C 31.988281 6.972656 32 7.058594 32.011719 7.8125 L 32.023438 8.636719 L 32.339844 8.636719 L 32.328125 7.863281 C 32.320312 7.441406 32.328125 6.984375 32.339844 6.851562 C 32.367188 6.621094 32.378906 6.613281 32.503906 6.613281 L 32.636719 6.613281 L 32.636719 7.636719 C 32.636719 8.636719 32.636719 8.664062 32.730469 8.664062 C 32.8125 8.664062 32.820312 8.632812 32.820312 8.078125 L 32.820312 7.488281 L 33.121094 7.472656 C 33.289062 7.460938 33.433594 7.460938 33.441406 7.476562 C 33.449219 7.488281 33.460938 7.769531 33.460938 8.105469 L 33.460938 8.714844 L 33.757812 8.6875 L 33.78125 7.117188 L 34.644531 7.117188 L 34.644531 7.753906 L 35 7.765625 L 35.351562 7.78125 L 35.363281 8.265625 L 35.378906 8.757812 L 35.648438 8.757812 L 35.648438 7.4375 L 36.511719 7.4375 L 36.511719 8.121094 C 36.511719 8.753906 36.523438 8.8125 36.59375 8.796875 C 36.664062 8.78125 36.675781 8.710938 36.6875 8.269531 L 36.699219 7.757812 L 37.402344 7.730469 L 37.414062 6.960938 C 37.429688 6.289062 37.4375 6.199219 37.5 6.21875 C 37.539062 6.234375 37.6875 6.246094 37.835938 6.246094 L 38.109375 6.246094 L 38.132812 8.917969 L 38.335938 8.945312 L 38.335938 7.488281 L 39.066406 7.460938 L 39.066406 8.976562 L 39.179688 8.996094 L 39.296875 9.015625 L 39.296875 7.839844 L 40.023438 7.839844 L 40.039062 8.472656 L 40.050781 9.097656 L 40.363281 9.136719 C 42.460938 9.367188 44.589844 9.761719 45.957031 10.164062 C 46.976562 10.472656 47.933594 10.882812 48.300781 11.175781 L 48.472656 11.3125 L 50.785156 11.3125 L 53.230469 12.539062 C 54.578125 13.214844 55.6875 13.78125 55.703125 13.792969 C 55.710938 13.808594 45.042969 13.820312 31.996094 13.820312 C 16.707031 13.820312 8.292969 13.800781 8.335938 13.773438 Z M 8.335938 13.769531 "/>
</g>
</svg>
