<svg xmlns="http://www.w3.org/2000/svg" xmlns:xlink="http://www.w3.org/1999/xlink" width="64px" height="64px" viewBox="0 0 64 64" version="1.1">
<defs>
<linearGradient id="linear0" gradientUnits="userSpaceOnUse" x1="0" y1="0" x2="0" y2="1" gradientTransform="matrix(31.03153,0,0,37.324324,4.324324,12.054054)">
<stop offset="0" style="stop-color:#ffae00;stop-opacity:1;"/>
<stop offset="0.5" style="stop-color:#dddddd;stop-opacity:1;"/>
<stop offset="1" style="stop-color:#bf1d1d;stop-opacity:1;"/>
</linearGradient>
<linearGradient id="linear1" gradientUnits="userSpaceOnUse" x1="0" y1="0" x2="0" y2="1" gradientTransform="matrix(39.905405,0,0,50.189189,19.77027,6.905405)">
<stop offset="0" style="stop-color:#ffae00;stop-opacity:1;"/>
<stop offset="0.5" style="stop-color:#dddddd;stop-opacity:1;"/>
<stop offset="1" style="stop-color:#bf1d1d;stop-opacity:1;"/>
</linearGradient>
</defs>
<g id="surface1">
<path style=" stroke:none;fill-rule:nonzero;fill:url(#linear0);" d="M 19.769531 12.054688 C 16.214844 12.054688 13.328125 14.824219 13.328125 18.238281 C 13.363281 19.503906 13.460938 21.003906 14.191406 24.429688 C 14.328125 24.839844 14.824219 25.511719 15.40625 26.238281 C 15.8125 28.164062 16.039062 29.730469 15.679688 31.726562 C 12.769531 34.09375 5.3125 35.164062 5.328125 37.617188 L 4.324219 44.96875 C 4.324219 47.402344 11.273438 49.378906 19.839844 49.378906 C 28.414062 49.378906 35.355469 47.402344 35.355469 44.96875 L 34.363281 37.617188 C 34.351562 35.511719 26.851562 34.175781 23.972656 31.726562 C 23.738281 29.847656 23.917969 28.027344 24.296875 26.160156 C 24.796875 25.460938 25.21875 24.824219 25.351562 24.429688 C 26.164062 20.867188 26.164062 19.566406 26.210938 18.238281 C 26.210938 14.824219 23.324219 12.054688 19.769531 12.054688 Z M 19.769531 12.054688 "/>
<path style=" stroke:none;fill-rule:nonzero;fill:url(#linear1);" d="M 39.714844 6.90625 C 35.671875 6.90625 32.21875 9.230469 30.785156 12.527344 C 29.207031 9.847656 27.839844 7.011719 28.191406 9.472656 L 29.484375 18.484375 L 30.230469 17.988281 C 30.363281 19.566406 30.609375 21.488281 31.355469 24.917969 C 31.644531 25.785156 32.984375 27.300781 34.347656 28.761719 C 34.585938 30.4375 34.691406 32.054688 34.375 33.921875 C 30.632812 37.03125 21.042969 38.4375 21.058594 41.648438 L 19.769531 51.300781 C 19.769531 54.5 28.707031 57.09375 39.726562 57.09375 C 50.742188 57.09375 59.675781 54.5 59.675781 51.300781 L 58.382812 41.648438 C 58.367188 38.902344 48.730469 37.144531 45.03125 33.921875 C 44.835938 32.296875 44.90625 30.699219 45.085938 29.09375 C 46.410156 27.53125 47.78125 25.851562 48.089844 24.917969 C 48.929688 21.363281 49.136719 19.5 49.242188 17.96875 L 50.011719 18.484375 L 51.300781 9.472656 C 51.660156 6.988281 50.273438 9.902344 48.6875 12.597656 C 47.265625 9.265625 43.796875 6.90625 39.714844 6.90625 Z M 39.714844 6.90625 "/>
</g>
</svg>
