<svg xmlns="http://www.w3.org/2000/svg" xmlns:xlink="http://www.w3.org/1999/xlink" width="64px" height="64px" viewBox="0 0 64 64" version="1.1">
<defs>
<linearGradient id="linear0" gradientUnits="userSpaceOnUse" x1="0" y1="0" x2="0" y2="1" gradientTransform="matrix(43.054054,0,0,51.891892,11.243243,6.054054)">
<stop offset="0" style="stop-color:#00fff2;stop-opacity:1;"/>
<stop offset="0.5" style="stop-color:#dddddd;stop-opacity:1;"/>
<stop offset="1" style="stop-color:#0062ff;stop-opacity:1;"/>
</linearGradient>
</defs>
<g id="surface1">
<path style=" stroke:none;fill-rule:evenodd;fill:url(#linear0);" d="M 54.296875 41.742188 L 52.570312 57.945312 L 11.242188 57.945312 L 11.242188 56.660156 L 32.125 33.40625 L 11.828125 7.328125 L 11.828125 6.054688 L 50.960938 6.054688 L 50.960938 19.835938 L 48.363281 19.835938 C 47.828125 17.402344 46.792969 15.105469 45.269531 12.945312 C 43.746094 10.785156 42.175781 9.578125 40.539062 9.3125 C 39.808594 9.179688 38.765625 9.085938 37.417969 9.039062 C 36.058594 8.972656 34.960938 8.933594 34.097656 8.933594 L 22.800781 8.933594 L 39.082031 29.855469 L 39.082031 30.441406 L 20.054688 51.5 L 43.9375 51.5 C 45.039062 51.5 46.011719 51.175781 46.867188 50.511719 C 47.714844 49.863281 48.457031 49.015625 49.066406 47.988281 C 49.625 47.066406 50.125 46.03125 50.5625 44.910156 C 51 43.773438 51.386719 42.710938 51.726562 41.738281 L 54.296875 41.738281 Z M 54.296875 41.742188 "/>
</g>
</svg>
