<svg xmlns="http://www.w3.org/2000/svg" xmlns:xlink="http://www.w3.org/1999/xlink" width="64px" height="64px" viewBox="0 0 64 64" version="1.1">
<defs>
<linearGradient id="linear0" gradientUnits="userSpaceOnUse" x1="0" y1="0" x2="0" y2="1" gradientTransform="matrix(55.351351,0,0,48.432432,4.324324,7.783784)">
<stop offset="0" style="stop-color:#00fff2;stop-opacity:1;"/>
<stop offset="0.5" style="stop-color:#dddddd;stop-opacity:1;"/>
<stop offset="1" style="stop-color:#0062ff;stop-opacity:1;"/>
</linearGradient>
</defs>
<g id="surface1">
<path style=" stroke:none;fill-rule:nonzero;fill:url(#linear0);" d="M 18.136719 7.785156 C 13.789062 7.835938 10.605469 7.679688 8 9.113281 C 6.652344 9.882812 5.625 11.109375 5.105469 12.566406 C 4.53125 14.082031 4.324219 15.886719 4.324219 18.164062 L 4.324219 45.835938 C 4.324219 48.113281 4.53125 49.917969 5.105469 51.433594 C 5.664062 52.949219 6.699219 54.164062 8 54.882812 C 10.605469 56.324219 13.789062 56.164062 18.136719 56.214844 L 45.855469 56.214844 C 50.210938 56.164062 53.394531 56.320312 56 54.882812 C 57.347656 54.117188 58.375 52.890625 58.902344 51.433594 C 59.460938 49.917969 59.675781 48.113281 59.675781 45.835938 L 59.675781 18.164062 C 59.675781 15.886719 59.46875 14.082031 58.902344 12.566406 C 58.375 11.109375 57.347656 9.882812 56 9.113281 C 53.394531 7.675781 50.210938 7.835938 45.855469 7.785156 Z M 18.164062 11.242188 L 32 11.242188 L 32 52.757812 L 18.164062 52.757812 C 13.808594 52.703125 10.933594 52.550781 9.671875 51.851562 C 9.039062 51.503906 8.675781 51.117188 8.335938 50.214844 C 8.003906 49.3125 7.785156 47.886719 7.785156 45.835938 L 7.785156 18.164062 C 7.785156 16.113281 8.003906 14.6875 8.335938 13.785156 C 8.675781 12.882812 9.039062 12.5 9.671875 12.148438 C 10.9375 11.449219 13.808594 11.296875 18.164062 11.242188 Z M 18.164062 18.164062 L 18.164062 21.621094 L 14.703125 21.621094 L 14.703125 25.082031 L 18.164062 25.082031 L 18.164062 28.539062 L 21.621094 28.539062 L 21.621094 25.082031 L 25.082031 25.082031 L 25.082031 21.621094 L 21.621094 21.621094 L 21.621094 18.164062 Z M 38.917969 25.082031 L 52.757812 25.082031 L 52.757812 28.539062 L 38.917969 28.539062 Z M 38.917969 32 L 52.757812 32 L 52.757812 35.460938 L 38.917969 35.460938 Z M 14.703125 38.917969 L 14.703125 42.378906 L 25.082031 42.378906 L 25.082031 38.917969 Z M 14.703125 38.917969 "/>
</g>
</svg>
