<svg xmlns="http://www.w3.org/2000/svg" xmlns:xlink="http://www.w3.org/1999/xlink" width="64px" height="64px" viewBox="0 0 64 64" version="1.1">
<defs>
<linearGradient id="linear0" gradientUnits="userSpaceOnUse" x1="0" y1="0" x2="0" y2="1" gradientTransform="matrix(55.351351,0,0,51.891892,4.324324,6.054054)">
<stop offset="0" style="stop-color:#ff8963;stop-opacity:1;"/>
<stop offset="0.5" style="stop-color:#dddddd;stop-opacity:1;"/>
<stop offset="1" style="stop-color:#0F6FFF;stop-opacity:1;"/>
</linearGradient>
</defs>
<g id="surface1">
<path style=" stroke:none;fill-rule:nonzero;fill:url(#linear0);" d="M 18.136719 6.054688 C 13.789062 6.109375 10.605469 5.949219 8 7.382812 C 6.652344 8.152344 5.625 9.378906 5.105469 10.835938 C 4.753906 11.761719 4.570312 12.851562 4.460938 14.03125 C 4.367188 14.246094 4.324219 14.472656 4.324219 14.703125 L 4.324219 37.1875 C 4.324219 39.460938 4.53125 41.269531 5.105469 42.785156 C 5.664062 44.300781 6.699219 45.515625 8 46.234375 C 10.605469 47.675781 13.789062 47.511719 18.136719 47.566406 L 25.082031 47.566406 L 25.082031 49.296875 C 25.082031 54.488281 23.351562 54.488281 19.890625 54.488281 L 18.164062 54.488281 L 18.164062 57.945312 L 45.835938 57.945312 L 45.835938 54.488281 L 44.109375 54.488281 C 40.648438 54.488281 38.917969 54.488281 38.917969 49.296875 L 38.917969 47.566406 L 51.027344 47.566406 C 51.289062 47.5625 51.550781 47.503906 51.785156 47.386719 C 53.363281 47.230469 54.753906 46.921875 56 46.234375 C 57.347656 45.46875 58.375 44.242188 58.902344 42.785156 C 59.460938 41.269531 59.675781 39.460938 59.675781 37.1875 L 59.675781 16.433594 C 59.675781 14.160156 59.46875 12.351562 58.902344 10.835938 C 58.375 9.378906 57.347656 8.152344 56 7.382812 C 53.394531 5.945312 50.210938 6.109375 45.855469 6.054688 Z M 18.164062 9.511719 L 45.835938 9.511719 C 50.191406 9.566406 53.058594 9.71875 54.324219 10.417969 C 54.960938 10.765625 55.328125 11.152344 55.664062 12.054688 C 55.996094 12.957031 56.214844 14.382812 56.214844 16.433594 L 56.214844 37.1875 C 56.214844 39.238281 55.996094 40.664062 55.664062 41.566406 C 55.324219 42.46875 54.960938 42.851562 54.324219 43.203125 C 53.691406 43.550781 52.664062 43.765625 51.257812 43.894531 L 7.921875 13.894531 C 8.023438 13.136719 8.164062 12.515625 8.335938 12.054688 C 8.675781 11.152344 9.039062 10.769531 9.671875 10.417969 C 10.9375 9.71875 13.808594 9.566406 18.164062 9.511719 Z M 7.785156 18 L 45.496094 44.109375 L 18.164062 44.109375 C 13.808594 44.054688 10.933594 43.902344 9.671875 43.203125 C 9.039062 42.855469 8.675781 42.46875 8.335938 41.566406 C 8.003906 40.664062 7.785156 39.238281 7.785156 37.1875 Z M 12.878906 26.8125 C 11.960938 26.863281 11.242188 27.621094 11.242188 28.539062 L 11.242188 38.917969 C 11.242188 39.875 12.015625 40.648438 12.972656 40.648438 L 26.8125 40.648438 C 27.558594 40.648438 28.21875 40.175781 28.457031 39.46875 C 28.691406 38.761719 28.449219 37.984375 27.851562 37.539062 L 14.011719 27.160156 C 13.6875 26.910156 13.285156 26.789062 12.878906 26.8125 Z M 14.703125 32 L 21.617188 37.1875 L 14.703125 37.1875 Z M 14.703125 32 "/>
</g>
</svg>
