<svg xmlns="http://www.w3.org/2000/svg" xmlns:xlink="http://www.w3.org/1999/xlink" width="64px" height="64px" viewBox="0 0 64 64" version="1.1">
<defs>
<linearGradient id="linear0" gradientUnits="userSpaceOnUse" x1="0" y1="0" x2="0" y2="1" gradientTransform="matrix(52.243243,0,0,55.351351,5.878378,4.324324)">
<stop offset="0" style="stop-color:#ffae00;stop-opacity:1;"/>
<stop offset="0.5" style="stop-color:#dddddd;stop-opacity:1;"/>
<stop offset="1" style="stop-color:#bf1d1d;stop-opacity:1;"/>
</linearGradient>
</defs>
<g id="surface1">
<path style=" stroke:none;fill-rule:nonzero;fill:url(#linear0);" d="M 47.917969 12.53125 L 40.335938 29.363281 L 38.136719 29.363281 L 46.226562 11.539062 L 33.730469 11.539062 L 33.730469 53.179688 C 36.308594 53.285156 49.433594 57.539062 49.433594 57.539062 L 49.433594 59.675781 L 14.144531 59.675781 L 14.144531 57.402344 C 14.144531 57.402344 27.289062 53.175781 29.300781 53.175781 L 29.300781 11.539062 L 17.5 11.539062 L 25.585938 29.363281 L 23.378906 29.363281 L 15.796875 12.53125 L 8.210938 29.363281 L 6.011719 29.363281 L 14.144531 11.347656 L 14.144531 9.265625 L 27.714844 9.265625 C 27.714844 6.550781 29.539062 4.324219 31.664062 4.324219 C 33.910156 4.324219 35.613281 6.664062 35.613281 9.265625 L 49.433594 9.265625 L 49.433594 11.042969 L 57.707031 29.363281 L 55.496094 29.363281 Z M 25.730469 31.6875 C 25.730469 37.097656 21.972656 42.027344 15.808594 42.027344 C 9.769531 42.027344 5.878906 37.097656 5.878906 31.6875 C 5.867188 31.703125 25.730469 31.703125 25.730469 31.6875 Z M 38.265625 31.6875 C 38.265625 31.691406 58.121094 31.691406 58.121094 31.6875 C 58.121094 37.097656 54.363281 42.027344 48.191406 42.027344 C 42.164062 42.027344 38.265625 37.097656 38.265625 31.6875 Z M 38.265625 31.6875 "/>
</g>
</svg>
