<svg xmlns="http://www.w3.org/2000/svg" xmlns:xlink="http://www.w3.org/1999/xlink" width="64px" height="64px" viewBox="0 0 64 64" version="1.1">
<defs>
<linearGradient id="linear0" gradientUnits="userSpaceOnUse" x1="0" y1="0" x2="0" y2="1" gradientTransform="matrix(48.432432,0,0,48.432432,7.783784,7.783784)">
<stop offset="0" style="stop-color:#ffae00;stop-opacity:1;"/>
<stop offset="0.5" style="stop-color:#dddddd;stop-opacity:1;"/>
<stop offset="1" style="stop-color:#bf1d1d;stop-opacity:1;"/>
</linearGradient>
</defs>
<g id="surface1">
<path style=" stroke:none;fill-rule:evenodd;fill:url(#linear0);" d="M 29.578125 22.3125 L 29.578125 39.644531 L 21.707031 31.851562 L 18.300781 35.257812 L 32 48.949219 L 45.699219 35.257812 L 42.292969 31.851562 L 34.421875 39.644531 L 34.421875 22.3125 Z M 29.578125 15.050781 L 34.421875 15.050781 L 34.421875 19.890625 L 29.578125 19.890625 Z M 29.578125 7.785156 L 34.421875 7.785156 L 34.421875 12.625 L 29.578125 12.625 Z M 7.785156 36.839844 L 7.785156 51.375 C 7.785156 54.015625 9.984375 56.214844 12.625 56.214844 L 51.375 56.214844 C 54.015625 56.214844 56.214844 54.015625 56.214844 51.375 L 56.214844 36.839844 L 51.375 36.839844 L 51.375 51.375 L 12.625 51.375 L 12.625 36.839844 Z M 7.785156 36.839844 "/>
</g>
</svg>
