<svg xmlns="http://www.w3.org/2000/svg" xmlns:xlink="http://www.w3.org/1999/xlink" width="64px" height="64px" viewBox="0 0 64 64" version="1.1">
<defs>
<linearGradient id="linear0" gradientUnits="userSpaceOnUse" x1="0" y1="0" x2="0" y2="1" gradientTransform="matrix(48.432432,0,0,48.432432,7.783784,7.783784)">
<stop offset="0" style="stop-color:#00a2ff;stop-opacity:1;"/>
<stop offset="0.5" style="stop-color:#dddddd;stop-opacity:1;"/>
<stop offset="1" style="stop-color:#00ffae;stop-opacity:1;"/>
</linearGradient>
</defs>
<g id="surface1">
<path style=" stroke:none;fill-rule:nonzero;fill:url(#linear0);" d="M 32 7.785156 C 18.625 7.785156 7.785156 18.625 7.785156 32 C 7.785156 45.375 18.625 56.214844 32 56.214844 C 37.929688 56.214844 43.390625 54.105469 47.605469 50.570312 L 53.242188 56.214844 L 56.214844 53.246094 L 50.570312 47.605469 C 54.109375 43.394531 56.214844 37.929688 56.214844 32.003906 C 56.214844 18.625 45.375 7.789062 32 7.789062 Z M 32 11.511719 C 42.863281 11.511719 51.738281 19.972656 52.4375 30.664062 L 19.71875 15.648438 C 23.144531 13.070312 27.382812 11.511719 32 11.511719 Z M 15.585938 19.78125 L 30.542969 52.433594 C 19.910156 51.6875 11.503906 42.824219 11.503906 32 C 11.503906 27.414062 13.039062 23.191406 15.582031 19.773438 Z M 20.941406 21 L 39.042969 29.554688 L 29.5 39.042969 Z M 43.117188 31.417969 L 52.136719 35.839844 C 51.496094 39.246094 49.996094 42.339844 47.890625 44.921875 L 44.339844 41.375 L 41.375 44.339844 L 44.921875 47.890625 C 42.324219 50.003906 39.207031 51.503906 35.785156 52.136719 L 31.417969 43.117188 Z M 43.117188 31.417969 "/>
</g>
</svg>
