<svg xmlns="http://www.w3.org/2000/svg" xmlns:xlink="http://www.w3.org/1999/xlink" width="64px" height="64px" viewBox="0 0 64 64" version="1.1">
<defs>
<linearGradient id="linear0" gradientUnits="userSpaceOnUse" x1="0" y1="0" x2="0" y2="1" gradientTransform="matrix(48.423422,0,0,48.432432,7.788288,7.783784)">
<stop offset="0" style="stop-color:#00b7ff;stop-opacity:1;"/>
<stop offset="0.5" style="stop-color:#dddddd;stop-opacity:1;"/>
<stop offset="1" style="stop-color:#ee42d9;stop-opacity:1;"/>
</linearGradient>
</defs>
<g id="surface1">
<path style=" stroke:none;fill-rule:evenodd;fill:url(#linear0);" d="M 31.996094 7.785156 C 29.839844 13.070312 28.539062 16.527344 26.136719 21.652344 C 27.609375 23.210938 29.414062 25.027344 32.351562 27.082031 C 29.199219 25.785156 27.042969 24.484375 25.4375 23.132812 C 22.363281 29.539062 17.554688 38.671875 7.789062 56.214844 C 15.460938 51.785156 21.414062 49.050781 26.960938 48.011719 C 26.71875 46.988281 26.585938 45.878906 26.59375 44.726562 L 26.605469 44.476562 C 26.726562 39.558594 29.285156 35.78125 32.3125 36.03125 C 35.347656 36.289062 37.703125 40.488281 37.578125 45.40625 C 37.554688 46.335938 37.449219 47.21875 37.269531 48.050781 C 42.753906 49.121094 48.636719 51.839844 56.210938 56.214844 C 54.714844 53.460938 53.386719 50.988281 52.113281 48.632812 C 50.109375 47.078125 48.015625 45.054688 43.753906 42.863281 C 46.6875 43.625 48.785156 44.503906 50.417969 45.488281 C 37.484375 21.394531 36.433594 18.199219 31.996094 7.785156 Z M 31.996094 7.785156 "/>
</g>
</svg>
