<svg xmlns="http://www.w3.org/2000/svg" xmlns:xlink="http://www.w3.org/1999/xlink" width="64px" height="64px" viewBox="0 0 64 64" version="1.1">
<defs>
<linearGradient id="linear0" gradientUnits="userSpaceOnUse" x1="0" y1="0" x2="0" y2="1" gradientTransform="matrix(55.351351,0,0,47.936936,4.324324,8.031532)">
<stop offset="0" style="stop-color:#ffae00;stop-opacity:1;"/>
<stop offset="0.5" style="stop-color:#dddddd;stop-opacity:1;"/>
<stop offset="1" style="stop-color:#bf1d1d;stop-opacity:1;"/>
</linearGradient>
</defs>
<g id="surface1">
<path style=" stroke:none;fill-rule:nonzero;fill:url(#linear0);" d="M 32 8.03125 L 4.324219 55.96875 L 4.800781 55.96875 C 5.753906 55.945312 6.125 54.394531 6.617188 54.394531 C 6.941406 54.394531 7.410156 54.636719 7.734375 54.636719 C 8.351562 54.636719 8.527344 51.386719 9.050781 51.394531 C 9.566406 51.40625 9.46875 54.175781 10.445312 54.210938 C 11.457031 54.246094 10.789062 47.828125 11.78125 47.828125 C 12.636719 47.828125 12.207031 53.308594 13.382812 53.339844 C 14.527344 53.378906 13.644531 43.855469 14.78125 43.765625 C 16.109375 43.660156 15.265625 52.625 16.636719 52.625 C 17.835938 52.625 17.042969 40.039062 18.105469 40.039062 C 19.164062 40.039062 18.839844 52.199219 19.921875 52.09375 C 20.960938 52.09375 19.960938 37.421875 21.160156 37.421875 C 22.691406 37.421875 21.910156 51.988281 22.960938 51.984375 C 24.144531 51.984375 23.179688 35.996094 24.558594 35.996094 C 25.988281 35.996094 25.011719 52.136719 26.207031 52.09375 C 27.460938 52.050781 26.144531 36.96875 27.53125 36.96875 C 28.863281 36.96875 27.957031 52.308594 29.121094 52.308594 C 30.351562 52.308594 29.03125 37.164062 30.636719 37.273438 C 32.203125 37.378906 31.179688 52.746094 32.292969 52.746094 C 33.355469 52.746094 32.71875 39.320312 33.988281 39.390625 C 35.476562 39.476562 34.609375 53.164062 35.636719 53.164062 C 36.585938 53.164062 36.152344 42.238281 37.414062 42.238281 C 38.746094 42.238281 37.742188 53.578125 38.96875 53.527344 C 40.191406 53.472656 39.648438 44.878906 40.835938 44.878906 C 41.984375 44.878906 41.039062 54.253906 42.324219 54.253906 C 43.664062 54.253906 42.988281 47.6875 44.171875 47.6875 C 45.386719 47.6875 44.621094 54.863281 45.554688 54.863281 C 46.460938 54.863281 46.191406 50.339844 47.089844 50.339844 C 47.988281 50.339844 47.566406 55.125 48.320312 55.125 C 49.105469 55.125 48.785156 52.363281 49.609375 52.363281 C 50.4375 52.363281 50.136719 55.339844 50.773438 55.378906 C 51.335938 55.410156 51.265625 53.5 51.789062 53.5 C 52.3125 53.5 52.09375 55.621094 52.820312 55.621094 C 53.523438 55.621094 53.308594 54.445312 53.808594 54.445312 C 54.296875 54.445312 54.3125 55.824219 54.890625 55.824219 C 55.308594 55.820312 55.742188 55.191406 56.269531 55.191406 C 56.960938 55.191406 57.171875 55.96875 58.941406 55.96875 L 59.675781 55.96875 Z M 32 8.03125 "/>
</g>
</svg>
