<svg xmlns="http://www.w3.org/2000/svg" xmlns:xlink="http://www.w3.org/1999/xlink" width="64px" height="64px" viewBox="0 0 64 64" version="1.1">
<defs>
<linearGradient id="linear0" gradientUnits="userSpaceOnUse" x1="0" y1="0" x2="0" y2="1" gradientTransform="matrix(55.351351,0,0,55.351351,4.324324,4.324324)">
<stop offset="0" style="stop-color:#ffae00;stop-opacity:1;"/>
<stop offset="0.5" style="stop-color:#dddddd;stop-opacity:1;"/>
<stop offset="1" style="stop-color:#6600ff;stop-opacity:1;"/>
</linearGradient>
</defs>
<g id="surface1">
<path style=" stroke:none;fill-rule:nonzero;fill:url(#linear0);" d="M 32 4.324219 C 16.714844 4.324219 4.324219 16.714844 4.324219 32 C 4.324219 47.285156 16.714844 59.675781 32 59.675781 C 47.285156 59.675781 59.675781 47.285156 59.675781 32 C 59.675781 16.714844 47.285156 4.324219 32 4.324219 Z M 32 8.449219 C 44.988281 8.449219 55.554688 19.011719 55.554688 32 C 55.554688 44.988281 44.988281 55.554688 32 55.554688 C 19.011719 55.554688 8.445312 44.988281 8.445312 32 C 8.445312 19.011719 19.011719 8.445312 32 8.445312 Z M 28.207031 12.175781 C 20.09375 13.753906 13.757812 20.09375 12.175781 28.207031 L 17.894531 29.269531 C 19.011719 23.511719 23.511719 19.003906 29.273438 17.894531 Z M 30.933594 21.488281 C 25.632812 22.027344 21.488281 26.542969 21.488281 31.996094 C 21.484375 34.789062 22.585938 37.460938 24.5625 39.4375 C 26.539062 41.410156 29.210938 42.515625 32 42.511719 C 34.789062 42.515625 37.460938 41.410156 39.4375 39.4375 C 41.410156 37.460938 42.515625 34.789062 42.511719 32 C 42.515625 29.210938 41.410156 26.539062 39.4375 24.5625 C 37.460938 22.589844 34.789062 21.484375 32 21.488281 C 31.636719 21.488281 31.292969 21.457031 30.933594 21.488281 Z M 32 29.46875 C 33.386719 29.46875 34.527344 30.609375 34.527344 31.996094 C 34.527344 33.386719 33.386719 34.527344 32 34.527344 C 30.605469 34.523438 29.476562 33.394531 29.472656 32 C 29.472656 30.613281 30.613281 29.472656 32 29.472656 Z M 46.105469 34.726562 C 44.988281 40.488281 40.488281 44.988281 34.726562 46.097656 L 35.792969 51.824219 C 43.90625 50.246094 50.246094 43.90625 51.824219 35.789062 Z M 46.105469 34.726562 "/>
</g>
</svg>
