<svg xmlns="http://www.w3.org/2000/svg" xmlns:xlink="http://www.w3.org/1999/xlink" width="64px" height="64px" viewBox="0 0 64 64" version="1.1">
<defs>
<linearGradient id="linear0" gradientUnits="userSpaceOnUse" x1="0" y1="0" x2="0" y2="1" gradientTransform="matrix(30.666666,0,0,23.585584,16.666666,20.207209)">
<stop offset="0" style="stop-color:#00fff2;stop-opacity:1;"/>
<stop offset="0.5" style="stop-color:#dddddd;stop-opacity:1;"/>
<stop offset="1" style="stop-color:#0062ff;stop-opacity:1;"/>
</linearGradient>
</defs>
<g id="surface1">
<path style=" stroke:none;fill-rule:nonzero;fill:url(#linear0);" d="M 33.179688 20.207031 C 39.078125 20.207031 47.335938 21.894531 47.335938 28.460938 L 47.335938 43.792969 L 35.539062 43.792969 L 35.539062 37.308594 C 35.539062 37.308594 32.363281 38.210938 30.761719 39.078125 C 28.460938 40.320312 27.597656 41.4375 30.136719 43.792969 L 19.4375 43.792969 C 18.042969 43.792969 16.664062 42.417969 16.664062 40.257812 C 16.664062 34.941406 21.085938 33.660156 25.273438 32.828125 C 28.652344 32.160156 33.589844 31.652344 34.539062 31.113281 C 36.652344 29.90625 35.320312 27.28125 33.179688 27.28125 C 29.636719 27.28125 28.460938 28.027344 28.460938 30.820312 L 17.839844 30.820312 C 17.839844 22.972656 26.105469 20.207031 33.179688 20.207031 Z M 33.179688 20.207031 "/>
</g>
</svg>
