<svg xmlns="http://www.w3.org/2000/svg" xmlns:xlink="http://www.w3.org/1999/xlink" width="64px" height="64px" viewBox="0 0 64 64" version="1.1">
<defs>
<linearGradient id="linear0" gradientUnits="userSpaceOnUse" x1="0" y1="0" x2="0" y2="1" gradientTransform="matrix(51.891892,0,0,20.941443,6.054054,26.626125)">
<stop offset="0" style="stop-color:#ff8963;stop-opacity:1;"/>
<stop offset="0.5" style="stop-color:#dddddd;stop-opacity:1;"/>
<stop offset="1" style="stop-color:#0F6FFF;stop-opacity:1;"/>
</linearGradient>
<linearGradient id="linear1" gradientUnits="userSpaceOnUse" x1="0" y1="0" x2="0" y2="1" gradientTransform="matrix(44.427929,0,0,22.662162,9.698198,22.090091)">
<stop offset="0" style="stop-color:#ff8963;stop-opacity:1;"/>
<stop offset="0.5" style="stop-color:#dddddd;stop-opacity:1;"/>
<stop offset="1" style="stop-color:#0F6FFF;stop-opacity:1;"/>
</linearGradient>
</defs>
<g id="surface1">
<path style=" stroke:none;fill-rule:nonzero;fill:url(#linear0);" d="M 8.023438 43.164062 C 8.335938 42.429688 14.539062 28.125 14.835938 27.386719 C 15.132812 26.644531 14.539062 26.3125 14.28125 27.011719 C 14.023438 27.71875 6.6875 43.789062 6.285156 44.714844 C 5.875 45.644531 5.875 46.269531 7.46875 46.269531 C 9.058594 46.269531 29.429688 46.269531 29.429688 46.269531 L 29.429688 47.566406 L 34.609375 47.566406 L 34.609375 46.164062 C 34.609375 46.164062 56.085938 46.164062 56.863281 46.164062 C 57.644531 46.164062 58.347656 46.011719 57.679688 44.605469 C 57.011719 43.199219 50.125 27.976562 49.792969 27.164062 C 49.460938 26.351562 48.828125 26.6875 49.089844 27.3125 C 49.347656 27.941406 55.753906 42.566406 56.011719 43.269531 C 56.273438 43.976562 56.605469 45.085938 53.609375 45.085938 C 49.570312 45.085938 42.496094 42.269531 39.421875 42.269531 C 36.351562 42.269531 33.460938 44.085938 32 46.011719 C 30.539062 44.644531 28.6875 42.269531 24.71875 42.269531 C 20.761719 42.269531 15.726562 45.050781 10.578125 45.050781 C 8.652344 45.050781 7.289062 44.875 8.023438 43.164062 Z M 8.023438 43.164062 "/>
<path style=" stroke:none;fill-rule:nonzero;fill:url(#linear1);" d="M 53.757812 41.234375 C 53.164062 39.644531 47.347656 24.386719 47.347656 24.386719 C 47.347656 24.386719 46.792969 24.570312 45.644531 24.570312 C 41.90625 24.570312 37.6875 22.089844 36.015625 22.089844 C 34.273438 22.089844 32 24.015625 32 24.015625 C 32 24.015625 29.351562 22.089844 28.09375 22.089844 C 25.761719 22.089844 22.726562 24.539062 18.164062 24.539062 C 17.164062 24.539062 16.578125 24.386719 16.578125 24.386719 C 16.578125 24.386719 10.390625 40.753906 9.945312 41.863281 C 9.503906 42.976562 9.503906 43.714844 11.171875 43.714844 C 15.171875 43.714844 22.390625 40.085938 24.648438 40.085938 C 28.796875 40.085938 32 44.753906 32 44.753906 C 32 44.753906 35.539062 40.125 39.3125 40.125 C 43.089844 40.125 48.199219 43.789062 52.902344 43.789062 C 54.347656 43.789062 54.347656 42.828125 53.757812 41.234375 Z M 30.984375 40.902344 C 30.984375 40.902344 28.984375 38.460938 25.058594 38.460938 C 20.984375 38.460938 14.910156 42.011719 13.207031 42.011719 C 12.242188 42.011719 11.6875 41.792969 12.09375 40.417969 C 12.503906 39.050781 17.390625 25.976562 17.390625 25.976562 C 17.390625 25.976562 18.09375 26.054688 19.09375 26.054688 C 23.648438 26.054688 25.3125 23.941406 27.984375 23.941406 C 29.796875 23.941406 30.757812 24.976562 30.984375 25.71875 Z M 50.863281 42.011719 C 49.160156 42.011719 43.085938 38.460938 39.011719 38.460938 C 35.085938 38.460938 33.085938 40.902344 33.085938 40.902344 L 33.085938 25.71875 C 33.3125 24.976562 34.269531 23.941406 36.085938 23.941406 C 38.753906 23.941406 40.417969 26.054688 44.972656 26.054688 C 45.972656 26.054688 46.675781 25.976562 46.675781 25.976562 C 46.675781 25.976562 51.566406 39.050781 51.972656 40.417969 C 52.378906 41.792969 51.824219 42.011719 50.863281 42.011719 Z M 50.863281 42.011719 "/>
</g>
</svg>
