<svg xmlns="http://www.w3.org/2000/svg" xmlns:xlink="http://www.w3.org/1999/xlink" width="64px" height="64px" viewBox="0 0 64 64" version="1.1">
<defs>
<linearGradient id="linear0" gradientUnits="userSpaceOnUse" x1="0" y1="0" x2="0" y2="1" gradientTransform="matrix(48.432432,0,0,29.792794,7.783784,17.103604)">
<stop offset="0" style="stop-color:#00b7ff;stop-opacity:1;"/>
<stop offset="0.5" style="stop-color:#dddddd;stop-opacity:1;"/>
<stop offset="1" style="stop-color:#ee42d9;stop-opacity:1;"/>
</linearGradient>
</defs>
<g id="surface1">
<path style=" stroke:none;fill-rule:nonzero;fill:url(#linear0);" d="M 20.054688 46.761719 C 19.085938 46.632812 17.363281 46.066406 16.210938 45.515625 C 8.71875 41.929688 5.660156 32.886719 9.347656 25.273438 C 13.5625 16.566406 25.0625 14.351562 31.988281 20.90625 C 33.988281 22.796875 34.875 24.414062 37.886719 31.578125 C 41.03125 39.070312 41.613281 40.246094 42.636719 41.246094 C 43.730469 42.3125 44.738281 42.664062 46.675781 42.664062 C 49.855469 42.664062 52.125 40.703125 52.125 37.957031 C 52.125 35.636719 51.3125 34.890625 47.148438 33.414062 C 40.808594 31.125 38.757812 29.058594 38.746094 24.910156 C 38.746094 22.699219 39.3125 21.21875 40.734375 19.6875 C 42.78125 17.511719 46.308594 16.785156 49.433594 17.867188 C 50.765625 18.347656 53.554688 20.8125 53.554688 21.515625 C 53.554688 21.863281 51.9375 22.910156 51.039062 23.152344 C 50.566406 23.28125 50.160156 23.121094 49.613281 22.59375 C 48.503906 21.53125 47.757812 21.203125 46.433594 21.203125 C 44.144531 21.203125 42.730469 22.582031 42.730469 24.800781 C 42.730469 27.011719 43.632812 27.761719 48.136719 29.285156 C 54.347656 31.382812 56.179688 33.273438 56.214844 37.660156 C 56.253906 41.441406 54.550781 44.171875 51.152344 45.785156 C 49.613281 46.515625 49.089844 46.605469 46.570312 46.605469 C 42.972656 46.597656 41.355469 45.9375 39.339844 43.664062 C 37.988281 42.136719 36.613281 39.269531 32.207031 28.800781 C 30.382812 24.460938 28.039062 22.335938 24.132812 21.5 C 22.148438 21.078125 19.390625 21.46875 17.589844 22.417969 C 15.835938 23.335938 13.878906 25.402344 12.957031 27.296875 C 12.1875 28.835938 12.117188 29.261719 12.117188 31.933594 C 12.117188 34.476562 12.21875 35.078125 12.863281 36.472656 C 13.828125 38.613281 15.734375 40.582031 17.828125 41.636719 C 19.347656 42.40625 19.820312 42.5 22.234375 42.5 C 24.554688 42.5 25.148438 42.378906 26.539062 41.730469 C 28.117188 40.957031 30.242188 39.0625 31.109375 37.644531 L 31.558594 36.910156 L 32.449219 38.941406 C 32.945312 40.066406 33.339844 41.117188 33.339844 41.3125 C 33.339844 41.875 31.335938 43.679688 29.488281 44.847656 C 26.699219 46.570312 23.488281 47.214844 20.058594 46.753906 "/>
</g>
</svg>
