<svg xmlns="http://www.w3.org/2000/svg" xmlns:xlink="http://www.w3.org/1999/xlink" width="64px" height="64px" viewBox="0 0 64 64" version="1.1">
<defs>
<linearGradient id="linear0" gradientUnits="userSpaceOnUse" x1="0" y1="0" x2="0" y2="1" gradientTransform="matrix(53.216216,0,0,48.432432,5.391892,7.783784)">
<stop offset="0" style="stop-color:#05f7ff;stop-opacity:1;"/>
<stop offset="0.5" style="stop-color:#dddddd;stop-opacity:1;"/>
<stop offset="1" style="stop-color:#e6ff05;stop-opacity:1;"/>
</linearGradient>
</defs>
<g id="surface1">
<path style=" stroke:none;fill-rule:evenodd;fill:url(#linear0);" d="M 6.527344 18.796875 L 29.261719 8.308594 C 30.769531 7.613281 33.230469 7.613281 34.738281 8.308594 L 57.476562 18.796875 C 58.988281 19.496094 58.988281 20.632812 57.476562 21.328125 L 34.738281 31.820312 C 33.230469 32.515625 30.769531 32.515625 29.261719 31.820312 L 6.527344 21.328125 C 5.011719 20.632812 5.011719 19.496094 6.527344 18.796875 Z M 14.664062 27.09375 L 7.386719 30.457031 C 5.390625 31.375 5.390625 32.855469 7.386719 33.78125 L 28.402344 43.472656 C 30.394531 44.394531 33.605469 44.394531 35.597656 43.472656 L 56.613281 33.78125 C 58.609375 32.855469 58.609375 31.375 56.613281 30.457031 L 49.335938 27.09375 L 35.597656 33.433594 C 33.605469 34.355469 30.394531 34.355469 28.402344 33.433594 Z M 14.664062 39.144531 L 7.386719 42.503906 C 5.390625 43.421875 5.390625 44.90625 7.386719 45.828125 L 28.402344 55.523438 C 30.394531 56.445312 33.605469 56.445312 35.597656 55.523438 L 56.613281 45.828125 C 58.609375 44.90625 58.609375 43.421875 56.613281 42.503906 L 49.335938 39.144531 L 35.597656 45.484375 C 33.605469 46.40625 30.394531 46.40625 28.402344 45.484375 Z M 14.664062 39.144531 "/>
</g>
</svg>
