<svg xmlns="http://www.w3.org/2000/svg" xmlns:xlink="http://www.w3.org/1999/xlink" width="64px" height="64px" viewBox="0 0 64 64" version="1.1">
<defs>
<linearGradient id="linear0" gradientUnits="userSpaceOnUse" x1="0" y1="0" x2="0" y2="1" gradientTransform="matrix(55.351351,0,0,25.540541,4.324324,19.22973)">
<stop offset="0" style="stop-color:#00fff2;stop-opacity:1;"/>
<stop offset="0.5" style="stop-color:#dddddd;stop-opacity:1;"/>
<stop offset="1" style="stop-color:#0062ff;stop-opacity:1;"/>
</linearGradient>
</defs>
<g id="surface1">
<path style=" stroke:none;fill-rule:evenodd;fill:url(#linear0);" d="M 4.324219 19.230469 L 4.324219 44.769531 L 6.449219 44.769531 L 6.449219 34.125 L 10.710938 34.125 L 10.710938 44.769531 L 12.839844 44.769531 L 12.839844 19.230469 Z M 17.09375 19.230469 L 17.09375 32 L 23.484375 32 L 23.484375 42.644531 L 17.09375 42.644531 L 17.09375 44.769531 L 25.613281 44.769531 L 25.613281 29.875 L 19.230469 29.875 L 19.230469 21.355469 L 25.613281 21.355469 L 25.613281 19.230469 Z M 29.875 19.230469 L 29.875 44.769531 L 38.386719 44.769531 L 38.386719 42.644531 L 32 42.644531 L 32 21.355469 L 38.386719 21.355469 L 38.386719 19.230469 Z M 42.644531 19.230469 L 42.644531 21.355469 L 44.769531 21.355469 L 44.769531 42.644531 L 42.644531 42.644531 L 42.644531 44.769531 L 49.03125 44.769531 L 49.03125 42.644531 L 46.90625 42.644531 L 46.90625 21.355469 L 49.03125 21.355469 L 49.03125 19.230469 Z M 53.289062 19.230469 L 53.289062 21.355469 L 55.417969 21.355469 L 55.417969 42.644531 L 53.289062 42.644531 L 53.289062 44.769531 L 59.675781 44.769531 L 59.675781 42.644531 L 57.550781 42.644531 L 57.550781 21.355469 L 59.675781 21.355469 L 59.675781 19.230469 Z M 6.449219 21.355469 L 10.710938 21.355469 L 10.710938 32 L 6.449219 32 Z M 6.449219 21.355469 "/>
</g>
</svg>
