<svg xmlns="http://www.w3.org/2000/svg" xmlns:xlink="http://www.w3.org/1999/xlink" width="64px" height="64px" viewBox="0 0 64 64" version="1.1">
<defs>
<linearGradient id="linear0" gradientUnits="userSpaceOnUse" x1="0" y1="0" x2="0" y2="1" gradientTransform="matrix(55.351351,0,0,44.972973,4.324324,9.513514)">
<stop offset="0" style="stop-color:#ffae00;stop-opacity:1;"/>
<stop offset="0.5" style="stop-color:#dddddd;stop-opacity:1;"/>
<stop offset="1" style="stop-color:#bf1d1d;stop-opacity:1;"/>
</linearGradient>
</defs>
<g id="surface1">
<path style=" stroke:none;fill-rule:nonzero;fill:url(#linear0);" d="M 32.988281 9.527344 C 32.796875 9.53125 32.597656 9.558594 32.386719 9.570312 C 29.976562 9.894531 29.3125 10.488281 27.839844 13.632812 C 26.847656 15.746094 26.351562 16.011719 25.070312 16.289062 C 19.085938 11.863281 19.085938 18.617188 17.90625 20.488281 C 16.292969 19.054688 14.191406 15.941406 12.121094 14.199219 C 10.265625 12.644531 8.429688 11.703125 6.972656 12.6875 C 5.820312 13.503906 4.835938 15.265625 4.484375 19.3125 C 3.996094 24.835938 4.488281 27.945312 7.941406 32.523438 C 11.847656 37.699219 17.664062 42.875 26.882812 49.367188 C 30.875 52.1875 34.21875 54.488281 34.320312 54.488281 C 34.867188 54.488281 28.976562 46.710938 25.40625 42.730469 C 20.070312 36.785156 19.085938 34.664062 18.972656 32 C 18.867188 29.585938 19.882812 27.988281 21.246094 27.988281 C 21.742188 27.988281 23.988281 29.691406 26.460938 32.542969 C 28.515625 34.808594 29.875 37.988281 31.515625 40.3125 C 35.003906 44.734375 39.042969 45.296875 40.542969 41.578125 C 42 37.949219 41.050781 31.585938 37.726562 27.152344 C 37.351562 25.53125 38.058594 25.285156 39.691406 25.289062 C 41.761719 25.289062 45.6875 26.714844 48.050781 28.789062 C 50.960938 31.355469 51.457031 31.339844 54.699219 37.878906 C 56.617188 41.738281 58.511719 45.335938 58.921875 45.878906 C 59.648438 46.835938 59.664062 46.835938 59.675781 45.632812 C 59.0625 35.644531 55.648438 26.136719 48.269531 19.3125 C 47.023438 18.207031 43.363281 15.5 40.132812 13.308594 C 35.421875 10.109375 34.335938 9.46875 32.988281 9.511719 Z M 32.863281 28.042969 C 33.90625 28.042969 35.125 28.734375 36.199219 29.921875 C 38.203125 32.160156 39.132812 35.496094 38.265625 37.378906 C 37.402344 39.265625 35.078125 38.984375 33.070312 36.746094 C 31.066406 34.511719 30.136719 31.175781 31.003906 29.292969 C 31.375 28.488281 32.03125 28.042969 32.863281 28.042969 Z M 32.863281 28.042969 "/>
</g>
</svg>
