<svg xmlns="http://www.w3.org/2000/svg" xmlns:xlink="http://www.w3.org/1999/xlink" width="64px" height="64px" viewBox="0 0 64 64" version="1.1">
<defs>
<linearGradient id="linear0" gradientUnits="userSpaceOnUse" x1="0" y1="0" x2="0" y2="1" gradientTransform="matrix(55.351351,0,0,34.594595,4.324324,14.702703)">
<stop offset="0" style="stop-color:#05f7ff;stop-opacity:1;"/>
<stop offset="0.5" style="stop-color:#dddddd;stop-opacity:1;"/>
<stop offset="1" style="stop-color:#e6ff05;stop-opacity:1;"/>
</linearGradient>
</defs>
<g id="surface1">
<path style=" stroke:none;fill-rule:nonzero;fill:url(#linear0);" d="M 14.929688 49.085938 C 12.789062 48.558594 11.066406 46.835938 10.449219 44.597656 C 10.054688 43.160156 10.011719 43.097656 8.882812 42.726562 C 4.257812 41.175781 2.796875 34.949219 6.160156 31.089844 C 6.589844 30.589844 7.578125 29.867188 8.347656 29.488281 L 9.746094 28.792969 L 53.882812 28.792969 L 55.1875 29.386719 C 58.476562 30.886719 60.136719 34.664062 59.082031 38.21875 C 58.457031 40.308594 56.460938 42.3125 54.484375 42.855469 C 53.636719 43.085938 53.539062 43.203125 53.386719 44.164062 C 53.003906 46.542969 51.125 48.550781 48.800781 49.054688 C 47.402344 49.355469 16.152344 49.386719 14.929688 49.082031 Z M 18.363281 45.320312 C 19.796875 44.050781 19.851562 42.132812 18.496094 40.851562 C 17.21875 39.652344 15.523438 39.675781 14.308594 40.910156 C 11.582031 43.660156 15.46875 47.886719 18.363281 45.324219 Z M 28.734375 45.335938 C 30.105469 44.03125 30.042969 41.988281 28.597656 40.761719 C 27.625 39.933594 26.636719 39.753906 25.558594 40.203125 C 23.335938 41.144531 23.050781 44.539062 25.097656 45.703125 C 26.066406 46.257812 27.960938 46.0625 28.734375 45.335938 Z M 38.484375 45.703125 C 40.003906 44.910156 40.457031 42.488281 39.328125 41.136719 C 38.117188 39.6875 36.234375 39.585938 34.855469 40.894531 C 32.324219 43.292969 35.367188 47.328125 38.484375 45.703125 Z M 49.226562 45.265625 C 49.917969 44.621094 50.136719 44.207031 50.230469 43.335938 C 50.539062 40.476562 47.144531 38.863281 45.121094 40.902344 C 43.207031 42.835938 44.539062 46.082031 47.246094 46.082031 C 48.136719 46.082031 48.503906 45.933594 49.226562 45.261719 Z M 10.363281 24.855469 C 10.363281 23.617188 11.523438 21.496094 12.613281 20.734375 L 13.554688 20.082031 L 13.570312 14.703125 L 20.660156 14.773438 C 27.011719 14.839844 27.8125 14.902344 28.40625 15.300781 C 29.242188 15.875 29.839844 17.148438 29.847656 18.367188 C 29.851562 19.3125 29.886719 19.339844 31.558594 20.136719 L 33.265625 20.945312 L 59.675781 20.945312 L 59.675781 23.933594 L 34.808594 23.933594 L 34.945312 24.800781 L 35.085938 25.675781 L 10.363281 25.675781 Z M 10.363281 24.855469 "/>
</g>
</svg>
