<svg xmlns="http://www.w3.org/2000/svg" xmlns:xlink="http://www.w3.org/1999/xlink" width="64px" height="64px" viewBox="0 0 64 64" version="1.1">
<defs>
<linearGradient id="linear0" gradientUnits="userSpaceOnUse" x1="0" y1="0" x2="0" y2="1" gradientTransform="matrix(48.432432,0,0,48.432432,7.783784,7.783784)">
<stop offset="0" style="stop-color:#00fff2;stop-opacity:1;"/>
<stop offset="0.5" style="stop-color:#dddddd;stop-opacity:1;"/>
<stop offset="1" style="stop-color:#0062ff;stop-opacity:1;"/>
</linearGradient>
</defs>
<g id="surface1">
<path style=" stroke:none;fill-rule:nonzero;fill:url(#linear0);" d="M 46.90625 20.824219 L 46.90625 32 C 49.988281 32 52.488281 29.5 52.488281 26.414062 C 52.488281 23.328125 49.988281 20.824219 46.90625 20.824219 Z M 28.273438 46.90625 L 28.273438 48.765625 C 28.273438 53.417969 30.136719 54.351562 32 56.214844 C 33.863281 54.351562 35.726562 53.417969 35.726562 48.765625 L 35.726562 46.90625 L 37.585938 46.90625 L 37.585938 39.449219 L 43.175781 39.449219 L 43.175781 17.09375 L 56.214844 17.09375 L 56.214844 11.511719 L 43.175781 11.511719 L 43.175781 7.785156 L 20.824219 7.785156 L 20.824219 11.511719 L 7.785156 11.511719 L 7.785156 17.09375 L 20.824219 17.09375 L 20.824219 39.449219 L 26.414062 39.449219 L 26.414062 46.90625 Z M 17.09375 20.824219 C 14.011719 20.824219 11.511719 23.328125 11.511719 26.414062 C 11.511719 29.5 14.011719 32 17.09375 32 Z M 17.09375 20.824219 "/>
</g>
</svg>
