<svg xmlns="http://www.w3.org/2000/svg" xmlns:xlink="http://www.w3.org/1999/xlink" width="64px" height="64px" viewBox="0 0 64 64" version="1.1">
<defs>
<linearGradient id="linear0" gradientUnits="userSpaceOnUse" x1="0" y1="0" x2="0" y2="1" gradientTransform="matrix(55.351351,0,0,55.351351,4.324324,4.324324)">
<stop offset="0" style="stop-color:#ffae00;stop-opacity:1;"/>
<stop offset="0.5" style="stop-color:#dddddd;stop-opacity:1;"/>
<stop offset="1" style="stop-color:#bf1d1d;stop-opacity:1;"/>
</linearGradient>
</defs>
<g id="surface1">
<path style=" stroke:none;fill-rule:nonzero;fill:url(#linear0);" d="M 47.085938 4.335938 C 37.289062 4.578125 27.949219 12.742188 21.210938 18.261719 C 18.792969 20.238281 15.234375 24.226562 15.402344 24.386719 C 15.566406 24.554688 19.152344 21.625 20.914062 20.199219 C 28.957031 13.707031 38.191406 10.042969 44.460938 10.054688 C 46.796875 10.058594 50.234375 11.433594 51.6875 13.082031 C 53.347656 14.960938 53.882812 16.414062 53.921875 20.699219 C 53.945312 23.09375 52.855469 26.636719 53.136719 26.460938 C 53.835938 26.039062 56.523438 18.109375 56.839844 15.050781 C 57.328125 10.417969 54.976562 5.652344 51.3125 4.738281 C 49.902344 4.421875 48.488281 4.292969 47.085938 4.335938 Z M 13.113281 7.089844 C 11.21875 7.070312 9.707031 7.378906 8.503906 8.050781 C -3.363281 15.765625 13.125 37.328125 19.792969 43.984375 C 21.488281 45.644531 24.976562 48.605469 25.1875 48.605469 C 25.390625 48.605469 21.800781 44.589844 19.578125 41.636719 C 13.28125 33.285156 9.789062 25.433594 9.9375 19.5625 C 10.015625 16.214844 11.191406 13.515625 13.515625 11.734375 C 14.90625 10.675781 16.539062 9.417969 19.941406 9.835938 L 26.460938 11.253906 C 22.488281 8.773438 18.144531 7.210938 13.113281 7.089844 Z M 38.8125 15.394531 C 38.609375 15.394531 42.199219 19.410156 44.421875 22.363281 C 50.71875 30.714844 54.210938 38.566406 54.0625 44.4375 C 53.984375 47.785156 52.808594 50.484375 50.484375 52.265625 C 49.09375 53.324219 47.460938 54.582031 44.058594 54.164062 L 37.539062 52.746094 C 41.511719 55.226562 45.855469 56.789062 50.886719 56.910156 C 52.78125 56.929688 54.292969 56.621094 55.496094 55.949219 C 67.363281 48.234375 50.875 26.671875 44.207031 20.015625 C 42.511719 18.355469 39.023438 15.394531 38.8125 15.394531 Z M 32 26.460938 C 28.941406 26.460938 26.460938 28.941406 26.460938 32 C 26.460938 35.058594 28.941406 37.539062 32 37.539062 C 35.058594 37.539062 37.539062 35.058594 37.539062 32 C 37.539062 28.941406 35.058594 26.460938 32 26.460938 Z M 10.863281 37.539062 C 10.164062 37.960938 7.476562 45.890625 7.160156 48.949219 C 6.671875 53.582031 9.023438 58.347656 12.6875 59.261719 C 14.097656 59.578125 15.511719 59.707031 16.914062 59.664062 C 26.710938 59.421875 36.050781 51.257812 42.789062 45.738281 C 45.207031 43.761719 48.765625 39.773438 48.597656 39.613281 C 48.433594 39.445312 44.847656 42.375 43.085938 43.800781 C 35.042969 50.292969 25.808594 53.957031 19.539062 53.945312 C 17.203125 53.941406 13.765625 52.566406 12.3125 50.917969 C 10.652344 49.039062 10.117188 47.585938 10.078125 43.300781 C 10.054688 40.90625 11.144531 37.363281 10.863281 37.539062 Z M 10.863281 37.539062 "/>
</g>
</svg>
