<svg xmlns="http://www.w3.org/2000/svg" xmlns:xlink="http://www.w3.org/1999/xlink" width="64px" height="64px" viewBox="0 0 64 64" version="1.1">
<g id="surface1">
<path style=" stroke:none;fill-rule:nonzero;fill:rgb(81.960785%,43.529412%,81.960785%);fill-opacity:1;" d="M 55.351562 31.980469 C 55.351562 44.875 44.894531 55.332031 32 55.332031 C 19.105469 55.332031 8.648438 44.875 8.648438 31.980469 C 8.648438 19.082031 19.105469 8.628906 32 8.628906 C 44.894531 8.628906 55.351562 19.082031 55.351562 31.980469 Z M 55.351562 31.980469 "/>
<path style=" stroke:none;fill-rule:nonzero;fill:rgb(100%,100%,100%);fill-opacity:1;" d="M 27.042969 19.21875 C 26.769531 19.207031 26.496094 19.238281 26.238281 19.308594 C 25.261719 19.644531 24.65625 20.367188 24.324219 21.578125 C 24.03125 22.628906 24.039062 24.523438 24.339844 26.167969 C 24.394531 26.457031 24.449219 26.71875 24.460938 26.757812 C 24.480469 26.820312 24.375 26.859375 23.917969 26.960938 C 21.679688 27.476562 20.046875 28.25 19.0625 29.25 C 18.671875 29.613281 18.386719 30.070312 18.238281 30.582031 C 18.136719 31.023438 18.136719 31.488281 18.238281 31.933594 C 18.511719 32.863281 19.289062 33.730469 20.507812 34.503906 C 21.359375 35.03125 21.613281 35.089844 21.882812 34.8125 C 22.011719 34.683594 22.039062 34.621094 22.039062 34.460938 C 22.039062 34.164062 21.949219 34.039062 21.550781 33.8125 C 19.046875 32.382812 18.609375 30.953125 20.277344 29.679688 C 21.125 29.039062 22.3125 28.527344 23.914062 28.132812 C 24.609375 27.960938 24.765625 27.9375 24.765625 28.027344 C 24.765625 28.15625 25.28125 29.824219 25.546875 30.542969 L 25.824219 31.292969 L 25.460938 32 C 24.011719 34.828125 23.085938 37.710938 22.976562 39.820312 C 22.882812 41.445312 23.171875 42.605469 23.882812 43.328125 C 24.652344 44.113281 25.746094 44.277344 27.144531 43.824219 C 27.914062 43.53125 28.644531 43.148438 29.332031 42.6875 C 29.773438 42.390625 29.871094 42.304688 29.929688 42.148438 C 29.988281 41.988281 29.988281 41.941406 29.929688 41.78125 C 29.839844 41.535156 29.660156 41.394531 29.40625 41.394531 C 29.246094 41.394531 29.136719 41.449219 28.71875 41.734375 C 27.773438 42.386719 26.886719 42.789062 26.152344 42.910156 C 25.136719 43.089844 24.484375 42.636719 24.183594 41.558594 C 24.050781 41.085938 24.0625 39.59375 24.207031 38.816406 C 24.421875 37.585938 24.796875 36.308594 25.339844 34.960938 C 25.660156 34.164062 26.269531 32.820312 26.355469 32.738281 C 26.394531 32.6875 26.453125 32.761719 26.585938 33.085938 C 27.285156 34.671875 28.351562 36.613281 29.394531 38.183594 C 31.886719 41.925781 34.613281 44.363281 36.71875 44.710938 L 36.691406 44.710938 C 37.617188 44.863281 38.394531 44.636719 38.996094 44.023438 C 39.488281 43.515625 39.8125 42.808594 39.996094 41.816406 C 40.109375 41.199219 40.109375 39.464844 39.996094 38.628906 C 39.660156 36.109375 38.75 33.214844 37.386719 30.339844 C 37.175781 29.886719 37.058594 29.78125 36.785156 29.78125 C 36.636719 29.773438 36.496094 29.832031 36.390625 29.933594 C 36.289062 30.035156 36.230469 30.171875 36.230469 30.316406 C 36.230469 30.421875 36.335938 30.707031 36.507812 31.085938 C 38.179688 34.695312 39.082031 38.191406 38.988281 40.726562 C 38.9375 42.230469 38.5625 43.136719 37.859375 43.488281 C 37.488281 43.675781 37.023438 43.667969 36.40625 43.464844 C 33.582031 42.496094 29.757812 37.660156 27.289062 31.9375 L 27.046875 31.363281 L 27.40625 30.746094 C 27.808594 30.046875 28.828125 28.472656 29.292969 27.832031 L 29.613281 27.40625 L 30.445312 27.40625 C 35.5 27.40625 40.496094 28.5625 43.152344 30.332031 C 43.691406 30.691406 44.34375 31.355469 44.539062 31.742188 C 44.683594 32.011719 44.695312 32.085938 44.695312 32.4375 C 44.695312 32.789062 44.683594 32.875 44.5625 33.085938 C 44.238281 33.714844 43.386719 34.375 42.285156 34.839844 C 41.773438 35.0625 41.636719 35.203125 41.636719 35.503906 C 41.636719 35.753906 41.796875 35.964844 42.042969 36.039062 C 42.199219 36.085938 42.253906 36.082031 42.535156 35.964844 C 44.3125 35.253906 45.539062 34.148438 45.789062 33.027344 C 45.859375 32.640625 45.855469 32.25 45.785156 31.863281 C 45.652344 31.289062 45.175781 30.546875 44.628906 30.050781 C 42.199219 27.84375 37.050781 26.421875 30.9375 26.273438 L 30.5 26.261719 L 31.011719 25.679688 C 31.289062 25.355469 31.777344 24.816406 32.113281 24.46875 C 33.851562 22.6875 35.460938 21.511719 36.875 21.027344 C 37.191406 20.890625 37.535156 20.828125 37.878906 20.847656 C 38.3125 20.847656 38.417969 20.863281 38.609375 20.960938 C 38.898438 21.121094 39.136719 21.367188 39.292969 21.664062 C 39.578125 22.238281 39.675781 23.246094 39.539062 24.328125 C 39.496094 24.640625 39.46875 24.957031 39.457031 25.273438 C 39.457031 25.523438 39.460938 25.558594 39.605469 25.683594 C 39.691406 25.777344 39.816406 25.828125 39.949219 25.820312 C 40.1875 25.820312 40.414062 25.6875 40.480469 25.511719 C 40.679688 24.988281 40.785156 23.140625 40.660156 22.363281 C 40.457031 21.167969 39.949219 20.363281 39.144531 19.96875 C 37.714844 19.273438 35.644531 19.953125 33.226562 21.914062 C 31.726562 23.191406 30.363281 24.617188 29.15625 26.171875 L 29.039062 26.304688 L 28.363281 26.347656 C 27.792969 26.378906 26.863281 26.46875 25.789062 26.601562 L 25.554688 26.632812 L 25.457031 26.054688 C 25.292969 25.261719 25.21875 24.449219 25.242188 23.636719 C 25.242188 22.671875 25.257812 22.488281 25.347656 22.101562 C 25.574219 21.121094 26.019531 20.515625 26.605469 20.390625 C 27.414062 20.21875 28.414062 20.625 29.816406 21.683594 C 30.269531 22.023438 30.8125 21.734375 30.75 21.191406 C 30.714844 20.960938 30.503906 20.757812 29.789062 20.277344 C 29.230469 19.886719 28.617188 19.578125 27.964844 19.363281 C 27.667969 19.28125 27.363281 19.234375 27.054688 19.226562 Z M 28.121094 27.503906 C 28.121094 27.523438 27.929688 27.824219 27.691406 28.175781 C 27.433594 28.558594 27.183594 28.9375 26.941406 29.332031 C 26.828125 29.527344 26.703125 29.71875 26.570312 29.90625 C 26.527344 29.957031 26.460938 29.824219 26.257812 29.167969 C 25.960938 28.261719 25.84375 27.773438 25.878906 27.734375 C 25.945312 27.664062 28.117188 27.4375 28.117188 27.503906 Z M 32.535156 30.925781 C 32.113281 30.925781 31.703125 31.089844 31.402344 31.390625 C 31.101562 31.6875 30.933594 32.097656 30.933594 32.519531 C 30.933594 32.945312 31.101562 33.351562 31.402344 33.652344 C 31.703125 33.949219 32.113281 34.117188 32.535156 34.113281 C 33.414062 34.113281 34.128906 33.402344 34.128906 32.519531 C 34.128906 32.097656 33.960938 31.691406 33.664062 31.390625 C 33.363281 31.09375 32.957031 30.925781 32.53125 30.925781 Z M 32.535156 30.925781 "/>
</g>
</svg>
