<svg xmlns="http://www.w3.org/2000/svg" xmlns:xlink="http://www.w3.org/1999/xlink" width="64px" height="64px" viewBox="0 0 64 64" version="1.1">
<defs>
<linearGradient id="linear0" gradientUnits="userSpaceOnUse" x1="0" y1="0" x2="0" y2="1" gradientTransform="matrix(41.963963,0,0,44.972973,11.243243,9.513514)">
<stop offset="0" style="stop-color:#ffae00;stop-opacity:1;"/>
<stop offset="0.5" style="stop-color:#dddddd;stop-opacity:1;"/>
<stop offset="1" style="stop-color:#bf1d1d;stop-opacity:1;"/>
</linearGradient>
</defs>
<g id="surface1">
<path style=" stroke:none;fill-rule:nonzero;fill:url(#linear0);" d="M 34.539062 9.523438 C 45.734375 9.917969 52.355469 17.015625 53.085938 27.367188 C 53.910156 39.039062 50.253906 42.070312 51.820312 44.414062 C 55.097656 49.3125 50.449219 50.59375 47.375 52.988281 C 45.457031 54.476562 41.761719 53.792969 39.921875 51.675781 C 34.351562 48.652344 36.496094 54.460938 24.984375 54.488281 C 19 54.257812 13.511719 50.203125 11.960938 44.742188 C 9.585938 36.367188 13.078125 30.1875 22.785156 27.273438 C 25.589844 26.433594 31.152344 26.941406 33.605469 25.261719 C 35.914062 23.675781 35.085938 21.386719 32.242188 21.089844 C 28.164062 20.664062 21.8125 22.402344 18.050781 21.699219 C 15.03125 21.136719 14.117188 15.734375 16.085938 13.410156 C 19.308594 9.609375 27.570312 9.769531 32.242188 9.566406 C 33.03125 9.53125 33.792969 9.496094 34.539062 9.523438 Z M 33.039062 34.53125 C 30.445312 34.53125 28.3125 36.351562 28.3125 38.609375 C 28.3125 40.867188 30.445312 42.730469 33.039062 42.730469 C 35.632812 42.730469 37.675781 40.867188 37.675781 38.609375 C 37.675781 36.351562 35.632812 34.53125 33.039062 34.53125 Z M 33.039062 34.53125 "/>
</g>
</svg>
