<svg xmlns="http://www.w3.org/2000/svg" xmlns:xlink="http://www.w3.org/1999/xlink" width="64px" height="64px" viewBox="0 0 64 64" version="1.1">
<defs>
<linearGradient id="linear0" gradientUnits="userSpaceOnUse" x1="0" y1="0" x2="0" y2="1" gradientTransform="matrix(55.351351,0,0,45.585584,4.324324,9.207207)">
<stop offset="0" style="stop-color:#00a2ff;stop-opacity:1;"/>
<stop offset="0.5" style="stop-color:#dddddd;stop-opacity:1;"/>
<stop offset="1" style="stop-color:#00ffae;stop-opacity:1;"/>
</linearGradient>
</defs>
<g id="surface1">
<path style=" stroke:none;fill-rule:nonzero;fill:url(#linear0);" d="M 32 9.207031 C 20.3125 9.207031 10.835938 18.6875 10.835938 30.367188 L 10.835938 37.234375 C 6.988281 38.324219 4.328125 41.835938 4.324219 45.835938 C 4.324219 50.78125 8.335938 54.792969 13.28125 54.792969 C 14.691406 54.789062 16.089844 54.449219 17.351562 53.800781 L 17.351562 54.792969 L 22.230469 54.792969 L 22.230469 36.882812 L 17.351562 36.882812 L 17.351562 37.863281 C 16.828125 37.597656 16.285156 37.386719 15.71875 37.226562 L 15.71875 30.367188 C 15.71875 21.378906 23.011719 14.09375 32 14.09375 C 40.988281 14.09375 48.28125 21.378906 48.28125 30.367188 L 48.28125 37.234375 C 44.429688 38.324219 41.773438 41.835938 41.769531 45.835938 C 41.769531 50.78125 45.773438 54.792969 50.71875 54.792969 C 55.664062 54.792969 59.675781 50.78125 59.675781 45.835938 C 59.671875 41.835938 57.011719 38.320312 53.164062 37.226562 L 53.164062 30.367188 C 53.164062 18.6875 43.6875 9.207031 32 9.207031 Z M 13.28125 41.769531 C 15.527344 41.769531 17.351562 43.589844 17.351562 45.835938 C 17.351562 48.085938 15.527344 49.90625 13.28125 49.90625 C 11.03125 49.90625 9.207031 48.085938 9.207031 45.835938 C 9.207031 43.589844 11.03125 41.769531 13.28125 41.769531 Z M 50.71875 41.769531 C 52.96875 41.769531 54.792969 43.589844 54.792969 45.835938 C 54.792969 48.085938 52.96875 49.90625 50.71875 49.90625 C 48.472656 49.90625 46.648438 48.085938 46.648438 45.835938 C 46.648438 43.589844 48.472656 41.769531 50.71875 41.769531 Z M 50.71875 41.769531 "/>
</g>
</svg>
