<svg xmlns="http://www.w3.org/2000/svg" xmlns:xlink="http://www.w3.org/1999/xlink" width="64px" height="64px" viewBox="0 0 64 64" version="1.1">
<defs>
<linearGradient id="linear0" gradientUnits="userSpaceOnUse" x1="0" y1="0" x2="0" y2="1" gradientTransform="matrix(55.351351,0,0,42.828828,4.324324,10.585586)">
<stop offset="0" style="stop-color:#ff8963;stop-opacity:1;"/>
<stop offset="0.5" style="stop-color:#dddddd;stop-opacity:1;"/>
<stop offset="1" style="stop-color:#0F6FFF;stop-opacity:1;"/>
</linearGradient>
</defs>
<g id="surface1">
<path style=" stroke:none;fill-rule:evenodd;fill:url(#linear0);" d="M 28.703125 23.855469 L 37.917969 33.070312 C 39.253906 34.40625 41.410156 34.40625 42.742188 33.070312 C 44.078125 31.738281 44.078125 29.578125 42.742188 28.246094 L 33.527344 19.027344 C 26.933594 12.433594 16.273438 12.324219 9.539062 18.691406 C 9.476562 18.746094 9.414062 18.800781 9.355469 18.855469 C 9.328125 18.886719 9.296875 18.914062 9.269531 18.945312 C 9.242188 18.972656 9.210938 19 9.1875 19.027344 C 9.125 19.085938 9.070312 19.148438 9.023438 19.210938 C 2.648438 25.945312 2.761719 36.605469 9.355469 43.203125 L 18.570312 52.417969 C 19.90625 53.746094 22.0625 53.746094 23.394531 52.417969 C 24.730469 51.085938 24.730469 48.921875 23.394531 47.59375 L 14.179688 38.375 C 10.164062 34.351562 10.132812 27.828125 14.097656 23.769531 C 18.152344 19.808594 24.679688 19.835938 28.703125 23.855469 Z M 40.605469 11.582031 C 39.269531 12.914062 39.269531 15.070312 40.605469 16.40625 L 49.820312 25.625 C 53.839844 29.648438 53.867188 36.171875 49.902344 40.230469 C 45.847656 44.191406 39.320312 44.164062 35.296875 40.148438 L 26.082031 30.929688 C 24.746094 29.59375 22.585938 29.59375 21.257812 30.929688 C 19.921875 32.261719 19.921875 34.421875 21.257812 35.753906 L 30.472656 44.972656 C 37.066406 51.566406 47.726562 51.675781 54.460938 45.308594 C 54.523438 45.253906 54.585938 45.203125 54.644531 45.144531 C 54.671875 45.113281 54.699219 45.085938 54.730469 45.054688 C 54.757812 45.027344 54.789062 45 54.8125 44.972656 C 54.875 44.914062 54.929688 44.851562 54.976562 44.789062 C 61.351562 38.054688 61.242188 27.394531 54.644531 20.796875 L 45.429688 11.582031 C 44.097656 10.253906 41.9375 10.253906 40.605469 11.582031 Z M 40.605469 11.582031 "/>
</g>
</svg>
