<svg xmlns="http://www.w3.org/2000/svg" xmlns:xlink="http://www.w3.org/1999/xlink" width="64px" height="64px" viewBox="0 0 64 64" version="1.1">
<defs>
<linearGradient id="linear0" gradientUnits="userSpaceOnUse" x1="0" y1="0" x2="0" y2="1" gradientTransform="matrix(48.432432,0,0,48.441443,7.783784,7.77928)">
<stop offset="0" style="stop-color:#ffae00;stop-opacity:1;"/>
<stop offset="0.5" style="stop-color:#dddddd;stop-opacity:1;"/>
<stop offset="1" style="stop-color:#bf1d1d;stop-opacity:1;"/>
</linearGradient>
</defs>
<g id="surface1">
<path style=" stroke:none;fill-rule:nonzero;fill:url(#linear0);" d="M 46.691406 7.796875 C 45.855469 7.730469 44.988281 7.835938 44.136719 8.125 C 43.121094 8.460938 42.417969 8.910156 41.636719 9.679688 C 40.617188 10.699219 40.082031 11.773438 39.835938 13.226562 C 39.703125 14.027344 39.597656 14.339844 39.363281 14.839844 C 38.460938 16.761719 36.472656 18.09375 34.496094 18.09375 C 34.328125 18.09375 33.8125 18.0625 33.3125 18 C 31.328125 17.738281 30.417969 17.707031 28.351562 17.90625 C 27.789062 17.960938 27.113281 18 26.882812 18 C 25.894531 18 25.296875 17.632812 24.894531 16.820312 C 24.644531 16.3125 24.558594 16.0625 24.566406 15.164062 C 24.578125 14.421875 24.589844 14.335938 24.472656 13.984375 C 24.273438 13.4375 24.097656 13.1875 23.671875 12.765625 C 23.050781 12.136719 22.390625 11.863281 21.539062 11.863281 C 20.984375 11.863281 20.585938 11.949219 20.121094 12.199219 C 19.136719 12.710938 18.527344 13.664062 18.472656 14.753906 C 18.433594 15.511719 18.585938 15.960938 18.988281 16.59375 C 19.292969 17.050781 19.660156 17.378906 20.3125 17.730469 C 21.03125 18.097656 21.40625 18.457031 21.734375 19.105469 C 21.9375 19.511719 21.929688 19.554688 21.929688 20 C 21.929688 20.421875 21.929688 20.46875 21.785156 20.757812 C 21.699219 20.929688 21.449219 21.253906 21.261719 21.460938 C 19.488281 23.4375 18.410156 25.5625 17.945312 27.847656 C 17.730469 28.929688 17.664062 29.511719 17.714844 30.679688 C 17.738281 31.242188 17.867188 31.863281 17.867188 32.054688 C 17.855469 33.125 16.984375 33.863281 15.351562 34.417969 C 14.960938 34.554688 14.78125 34.585938 14.265625 34.613281 C 13.863281 34.632812 13.542969 34.613281 13.3125 34.566406 C 13.113281 34.527344 12.691406 34.527344 12.273438 34.527344 C 11.476562 34.527344 11.105469 34.613281 10.476562 34.90625 C 8.164062 35.972656 7.136719 38.671875 8.207031 40.957031 C 9.582031 43.867188 13.460938 44.503906 15.679688 42.1875 C 16.011719 41.835938 16.171875 41.578125 16.53125 40.957031 C 16.636719 40.746094 16.875 40.476562 17.050781 40.296875 C 17.835938 39.46875 18.914062 39.078125 20.164062 39.078125 C 21.066406 39.078125 21.597656 39.265625 22.296875 39.835938 C 23.460938 40.769531 25.078125 41.585938 26.503906 42.003906 C 28.082031 42.460938 28.972656 42.539062 31.609375 42.46875 C 32.382812 42.445312 32.625 42.488281 32.984375 42.554688 C 33.976562 42.761719 34.941406 43.136719 35.773438 43.699219 C 36.390625 44.109375 37.402344 45.113281 37.8125 45.734375 C 38.367188 46.5625 38.769531 47.605469 38.90625 48.429688 C 39.121094 49.8125 39.390625 50.644531 39.851562 51.550781 C 41.09375 54 43.335938 55.636719 46.089844 56.136719 C 46.847656 56.269531 48.496094 56.242188 49.257812 56.089844 C 51.882812 55.554688 54.0625 53.894531 55.261719 51.550781 C 55.910156 50.273438 56.214844 49.109375 56.214844 47.625 C 56.226562 44.164062 54.207031 41.105469 51.015625 39.730469 C 50.285156 39.421875 49.746094 39.289062 48.746094 39.117188 C 47.753906 38.949219 47.09375 38.734375 46.382812 38.363281 C 44.71875 37.5 43.09375 35.910156 42.503906 34.164062 C 42.179688 33.1875 42.078125 31.988281 42.078125 31.089844 L 42.078125 26.265625 C 42.078125 25.1875 42.1875 24.539062 42.644531 23.617188 C 43.164062 22.566406 44.324219 21.703125 45.390625 21.160156 C 45.945312 20.875 46.351562 20.769531 47.144531 20.636719 C 47.976562 20.496094 48.570312 20.308594 49.214844 19.976562 C 50.707031 19.203125 51.855469 17.894531 52.378906 16.292969 C 52.609375 15.605469 52.664062 15.039062 52.664062 14.246094 C 52.664062 13.460938 52.5625 12.90625 52.339844 12.207031 C 51.484375 9.664062 49.21875 7.996094 46.714844 7.808594 Z M 29.972656 21.894531 C 34.429688 21.894531 38.039062 25.503906 38.039062 29.960938 C 38.039062 34.417969 34.429688 38.03125 29.972656 38.03125 C 25.515625 38.03125 21.90625 34.417969 21.90625 29.960938 C 21.90625 25.503906 25.515625 21.894531 29.972656 21.894531 Z M 30.210938 24.867188 C 27.765625 24.6875 25.53125 26.289062 24.878906 28.746094 C 24.757812 29.179688 24.734375 29.285156 24.734375 30.023438 C 24.734375 30.757812 24.761719 30.90625 24.878906 31.347656 C 25.144531 32.347656 25.78125 33.351562 26.53125 33.996094 C 28.703125 35.78125 30.285156 34.226562 31.351562 32.8125 L 31.351562 32.621094 L 30.457031 32.621094 C 29.8125 32.621094 29.472656 32.617188 29.273438 32.578125 C 28.121094 32.269531 27.335938 31.230469 27.335938 30.070312 C 27.335938 29.355469 27.578125 28.742188 28.089844 28.230469 C 28.578125 27.742188 29.234375 27.472656 29.886719 27.472656 C 31.054688 27.472656 32.441406 28.328125 32.449219 29.511719 L 32.488281 34.476562 L 32.785156 34.476562 C 33.378906 34.414062 34.003906 34.125 34.390625 33.71875 C 34.613281 33.496094 34.851562 32.988281 34.960938 32.644531 C 35.042969 32.355469 35.054688 32.1875 35.054688 30.894531 C 35.054688 29.039062 34.988281 28.605469 34.488281 27.636719 C 33.851562 26.414062 32.589844 25.414062 31.269531 25.078125 C 30.914062 24.984375 30.515625 24.894531 30.214844 24.875 Z M 30.210938 24.867188 "/>
</g>
</svg>
