<svg xmlns="http://www.w3.org/2000/svg" xmlns:xlink="http://www.w3.org/1999/xlink" width="64px" height="64px" viewBox="0 0 64 64" version="1.1">
<defs>
<linearGradient id="linear0" gradientUnits="userSpaceOnUse" x1="0" y1="0" x2="0" y2="1" gradientTransform="matrix(55.351351,0,0,51.891892,4.324324,6.054054)">
<stop offset="0" style="stop-color:#00fff2;stop-opacity:1;"/>
<stop offset="0.5" style="stop-color:#dddddd;stop-opacity:1;"/>
<stop offset="1" style="stop-color:#0062ff;stop-opacity:1;"/>
</linearGradient>
</defs>
<g id="surface1">
<path style=" stroke:none;fill-rule:nonzero;fill:url(#linear0);" d="M 31.984375 6.058594 C 31.460938 6.054688 30.675781 6.085938 29.960938 6.335938 C 29.199219 6.605469 28.460938 7.015625 27.851562 7.582031 C 27.03125 8.328125 26.363281 9.300781 25.9375 10.238281 L 4.324219 57.945312 L 19.6875 57.945312 L 26.289062 42.847656 L 39.164062 42.917969 L 26.289062 42.847656 L 19.6875 57.945312 L 59.675781 57.945312 L 37.773438 9.910156 C 37.296875 8.867188 36.527344 8.0625 35.8125 7.488281 C 35.09375 6.914062 34.375 6.539062 33.761719 6.3125 C 33.089844 6.066406 32.460938 6.058594 31.984375 6.054688 Z M 31.972656 7.550781 C 32.433594 7.554688 32.863281 7.5625 33.273438 7.726562 C 33.746094 7.902344 34.335938 8.203125 34.921875 8.671875 C 35.511719 9.136719 36.125 9.8125 36.460938 10.550781 L 57.390625 56.449219 L 21.933594 56.449219 L 27.21875 44.347656 L 41.410156 44.4375 L 32.164062 23.234375 L 16.515625 56.457031 L 6.605469 56.457031 L 27.253906 10.875 C 27.585938 10.136719 28.175781 9.285156 28.8125 8.703125 C 29.265625 8.289062 29.835938 7.960938 30.417969 7.757812 C 30.839844 7.613281 31.558594 7.550781 31.972656 7.554688 Z M 31.972656 7.550781 "/>
</g>
</svg>
