<svg xmlns="http://www.w3.org/2000/svg" xmlns:xlink="http://www.w3.org/1999/xlink" width="64px" height="64px" viewBox="0 0 64 64" version="1.1">
<defs>
<linearGradient id="linear0" gradientUnits="userSpaceOnUse" x1="0" y1="0" x2="0" y2="1" gradientTransform="matrix(55.351351,0,0,48.432432,4.324324,7.783784)">
<stop offset="0" style="stop-color:#ff8963;stop-opacity:1;"/>
<stop offset="0.5" style="stop-color:#dddddd;stop-opacity:1;"/>
<stop offset="1" style="stop-color:#0F6FFF;stop-opacity:1;"/>
</linearGradient>
</defs>
<g id="surface1">
<path style=" stroke:none;fill-rule:nonzero;fill:url(#linear0);" d="M 18.136719 7.785156 C 13.789062 7.835938 10.605469 7.675781 8 9.113281 C 6.691406 9.828125 5.664062 11.050781 5.105469 12.566406 C 4.53125 14.082031 4.324219 15.886719 4.324219 18.164062 L 4.324219 45.835938 C 4.324219 48.113281 4.53125 49.917969 5.105469 51.433594 C 5.664062 52.949219 6.691406 54.171875 8 54.882812 C 10.605469 56.324219 13.789062 56.164062 18.136719 56.214844 L 45.855469 56.214844 C 50.210938 56.164062 53.394531 56.324219 56 54.882812 C 57.300781 54.171875 58.328125 52.949219 58.902344 51.433594 C 59.460938 49.917969 59.675781 48.113281 59.675781 45.835938 L 59.675781 18.164062 C 59.675781 15.886719 59.46875 14.082031 58.902344 12.566406 C 58.335938 11.050781 57.300781 9.828125 56 9.113281 C 53.394531 7.675781 50.210938 7.835938 45.855469 7.785156 Z M 7.785156 19.09375 L 56.214844 19.09375 L 56.214844 45.835938 C 56.214844 47.886719 55.996094 49.3125 55.664062 50.214844 C 55.324219 51.117188 54.960938 51.5 54.324219 51.851562 C 53.058594 52.550781 50.191406 52.703125 45.835938 52.757812 L 18.164062 52.757812 C 13.808594 52.703125 10.9375 52.550781 9.671875 51.851562 C 9.039062 51.5 8.675781 51.117188 8.335938 50.214844 C 8.003906 49.3125 7.785156 47.886719 7.785156 45.835938 Z M 7.785156 19.09375 "/>
</g>
</svg>
