<svg xmlns="http://www.w3.org/2000/svg" xmlns:xlink="http://www.w3.org/1999/xlink" width="64px" height="64px" viewBox="0 0 64 64" version="1.1">
<defs>
<linearGradient id="linear0" gradientUnits="userSpaceOnUse" x1="0" y1="0" x2="0" y2="1" gradientTransform="matrix(55.351351,0,0,31.351351,4.324324,16.324324)">
<stop offset="0" style="stop-color:#00a2ff;stop-opacity:1;"/>
<stop offset="0.5" style="stop-color:#dddddd;stop-opacity:1;"/>
<stop offset="1" style="stop-color:#00ffae;stop-opacity:1;"/>
</linearGradient>
</defs>
<g id="surface1">
<path style=" stroke:none;fill-rule:nonzero;fill:url(#linear0);" d="M 4.324219 16.324219 L 4.324219 47.675781 L 12.164062 47.675781 L 12.164062 46.984375 C 13.417969 47.4375 14.742188 47.664062 16.082031 47.675781 C 22.570312 47.675781 27.835938 42.410156 27.835938 35.917969 C 27.835938 32.800781 26.59375 29.8125 24.390625 27.609375 C 22.1875 25.402344 19.199219 24.164062 16.082031 24.164062 C 14.742188 24.164062 13.417969 24.402344 12.164062 24.851562 L 12.164062 16.324219 Z M 46.121094 16.324219 C 41.960938 16.324219 37.976562 17.976562 35.039062 20.914062 C 32.097656 23.855469 30.445312 27.839844 30.445312 32 C 30.445312 36.160156 32.097656 40.144531 35.039062 43.085938 C 37.976562 46.023438 41.960938 47.675781 46.121094 47.675781 C 51.710938 47.664062 56.875 44.679688 59.671875 39.835938 L 46.121094 39.835938 C 41.789062 39.835938 38.285156 36.328125 38.285156 32 C 38.285156 27.671875 41.789062 24.164062 46.121094 24.164062 L 59.675781 24.164062 C 56.878906 19.320312 51.710938 16.335938 46.121094 16.324219 Z M 16.082031 32 C 17.117188 32 18.113281 32.410156 18.851562 33.148438 C 19.585938 33.882812 20 34.878906 20 35.917969 C 20 36.960938 19.585938 37.957031 18.851562 38.6875 C 18.113281 39.421875 17.117188 39.835938 16.082031 39.835938 C 13.914062 39.835938 12.164062 38.082031 12.164062 35.917969 C 12.164062 33.753906 13.914062 32 16.082031 32 Z M 16.082031 32 "/>
</g>
</svg>
