<svg xmlns="http://www.w3.org/2000/svg" xmlns:xlink="http://www.w3.org/1999/xlink" width="64px" height="64px" viewBox="0 0 64 64" version="1.1">
<defs>
<linearGradient id="linear0" gradientUnits="userSpaceOnUse" x1="0" y1="0" x2="0" y2="1" gradientTransform="matrix(55.351351,0,0,55.351351,4.324324,4.324324)">
<stop offset="0" style="stop-color:#ffae00;stop-opacity:1;"/>
<stop offset="0.5" style="stop-color:#dddddd;stop-opacity:1;"/>
<stop offset="1" style="stop-color:#bf1d1d;stop-opacity:1;"/>
</linearGradient>
</defs>
<g id="surface1">
<path style=" stroke:none;fill-rule:nonzero;fill:url(#linear0);" d="M 32 4.324219 C 16.691406 4.324219 4.324219 16.691406 4.324219 32 C 4.324219 47.308594 16.691406 59.675781 32 59.675781 C 47.308594 59.675781 59.675781 47.308594 59.675781 32 C 59.675781 16.691406 47.308594 4.324219 32 4.324219 Z M 32 7.785156 L 32 32 L 56.296875 32.164062 C 56.476562 32.164062 56.214844 31.800781 56.214844 32 C 56.214844 45.386719 45.386719 56.214844 32 56.214844 C 18.613281 56.214844 7.785156 45.386719 7.785156 32 C 7.785156 18.894531 18.152344 8.246094 31.144531 7.796875 C 31.429688 7.789062 32 7.5 32 7.785156 Z M 32 7.785156 "/>
</g>
</svg>
