<svg xmlns="http://www.w3.org/2000/svg" xmlns:xlink="http://www.w3.org/1999/xlink" width="64px" height="64px" viewBox="0 0 64 64" version="1.1">
<g id="surface1">
<path style=" stroke:none;fill-rule:nonzero;fill:rgb(99.215686%,81.176472%,44.313726%);fill-opacity:1;" d="M 32 8.648438 C 44.894531 8.648438 55.351562 19.105469 55.351562 32 C 55.351562 44.894531 44.894531 55.351562 32 55.351562 C 19.105469 55.351562 8.648438 44.894531 8.648438 32 C 8.648438 19.105469 19.105469 8.648438 32 8.648438 Z M 32 8.648438 "/>
<path style="fill:none;stroke-width:3.41;stroke-linecap:round;stroke-linejoin:round;stroke:rgb(50.588238%,29.411766%,7.450981%);stroke-opacity:1;stroke-miterlimit:4;" d="M 15.302124 33.698242 C 17.908203 26.300049 22.908081 17.700439 32.998169 17.700439 C 43.088257 17.700439 48.079102 30.970215 48.711426 39.967285 C 46.060181 44.569702 39.709839 46.299561 32.998169 46.299561 C 27.505981 46.385376 22.244141 44.077393 18.59021 39.967285 C 18.59021 39.967285 21.751831 31.435425 24.701172 31.417358 C 26.869141 31.417358 28.698364 35.419067 30.428223 35.419067 C 32.158081 35.419067 35.757812 27.736328 35.757812 27.736328 " transform="matrix(0.864865,0,0,0.864865,4.324324,4.324324)"/>
</g>
</svg>
