<svg xmlns="http://www.w3.org/2000/svg" xmlns:xlink="http://www.w3.org/1999/xlink" width="64px" height="64px" viewBox="0 0 64 64" version="1.1">
<defs>
<linearGradient id="linear0" gradientUnits="userSpaceOnUse" x1="0" y1="0" x2="0" y2="1" gradientTransform="matrix(55.351351,0,0,15.774777,4.324324,24.112612)">
<stop offset="0" style="stop-color:#05f7ff;stop-opacity:1;"/>
<stop offset="0.5" style="stop-color:#dddddd;stop-opacity:1;"/>
<stop offset="1" style="stop-color:#e6ff05;stop-opacity:1;"/>
</linearGradient>
</defs>
<g id="surface1">
<path style=" stroke:none;fill-rule:evenodd;fill:url(#linear0);" d="M 34.3125 34.308594 C 34.3125 36.015625 32.179688 35.917969 32.179688 35.917969 L 30.050781 35.917969 L 30.050781 32.824219 L 32.179688 32.824219 C 34.378906 32.8125 34.3125 34.308594 34.3125 34.308594 Z M 30.050781 28.097656 L 31.675781 28.097656 C 33.363281 28.1875 33.296875 29.441406 33.296875 29.441406 C 33.296875 31.011719 31.433594 31.03125 31.433594 31.03125 L 30.050781 31.03125 Z M 15.011719 34.308594 C 15.011719 36.015625 12.875 35.917969 12.875 35.917969 L 10.742188 35.917969 L 10.742188 32.824219 L 12.875 32.824219 C 15.070312 32.8125 15.011719 34.308594 15.011719 34.308594 Z M 10.742188 28.097656 L 12.367188 28.097656 C 14.054688 28.1875 13.996094 29.441406 13.996094 29.441406 C 13.996094 31.011719 12.125 31.03125 12.125 31.03125 L 10.742188 31.03125 Z M 33.917969 31.636719 C 33.917969 31.636719 35.378906 31.015625 35.367188 29.367188 C 35.367188 29.367188 35.589844 26.664062 32.011719 26.335938 L 28.027344 26.335938 L 28.027344 37.675781 L 32.589844 37.675781 C 32.589844 37.675781 36.394531 37.6875 36.394531 34.472656 C 36.394531 34.472656 36.488281 32.289062 33.917969 31.636719 Z M 14.617188 31.636719 C 14.617188 31.636719 16.078125 31.015625 16.0625 29.367188 C 16.0625 29.367188 16.285156 26.664062 12.699219 26.335938 L 8.726562 26.335938 L 8.726562 37.675781 L 13.28125 37.675781 C 13.28125 37.675781 17.089844 37.6875 17.089844 34.472656 C 17.089844 34.472656 17.179688 32.289062 14.617188 31.636719 Z M 23.625 24.113281 L 40.375 24.113281 L 40.375 39.886719 L 23.625 39.886719 Z M 4.324219 24.113281 L 21.0625 24.113281 L 21.0625 39.886719 L 4.324219 39.886719 Z M 56.261719 27.144531 L 56.261719 29.242188 C 56.261719 29.242188 54.214844 27.984375 51.960938 27.960938 C 51.960938 27.960938 47.738281 27.878906 47.550781 32 C 47.550781 32 47.394531 35.792969 51.90625 36.011719 C 51.90625 36.011719 53.796875 36.238281 56.363281 34.597656 L 56.363281 36.769531 C 56.363281 36.769531 52.921875 38.8125 48.933594 37.242188 C 48.933594 37.242188 45.582031 36.015625 45.457031 32 C 45.457031 32 45.3125 27.867188 49.785156 26.5 C 49.785156 26.5 50.976562 26.042969 53.121094 26.242188 C 53.121094 26.242188 54.40625 26.367188 56.261719 27.144531 Z M 42.9375 39.886719 L 59.675781 39.886719 L 59.675781 24.113281 L 42.9375 24.113281 Z M 42.9375 39.886719 "/>
</g>
</svg>
