<svg xmlns="http://www.w3.org/2000/svg" xmlns:xlink="http://www.w3.org/1999/xlink" width="64px" height="64px" viewBox="0 0 64 64" version="1.1">
<defs>
<linearGradient id="linear0" gradientUnits="userSpaceOnUse" x1="0" y1="0" x2="0" y2="1" gradientTransform="matrix(55.351351,0,0,55.351351,4.324324,4.324324)">
<stop offset="0" style="stop-color:#00fff2;stop-opacity:1;"/>
<stop offset="0.5" style="stop-color:#dddddd;stop-opacity:1;"/>
<stop offset="1" style="stop-color:#0062ff;stop-opacity:1;"/>
</linearGradient>
</defs>
<g id="surface1">
<path style=" stroke:none;fill-rule:nonzero;fill:url(#linear0);" d="M 12.839844 4.324219 C 8.148438 4.324219 4.324219 8.148438 4.324219 12.839844 L 4.324219 40.515625 C 4.324219 45.203125 8.148438 49.03125 12.839844 49.03125 L 27.742188 49.03125 L 27.742188 51.160156 C 27.742188 55.851562 31.566406 59.675781 36.257812 59.675781 L 51.160156 59.675781 C 55.851562 59.675781 59.675781 55.851562 59.675781 51.160156 L 59.675781 29.875 C 59.675781 27.609375 58.472656 26.664062 54.753906 23.015625 C 54.238281 22.511719 53.746094 21.945312 53.226562 21.417969 C 52.699219 20.894531 52.136719 20.40625 51.625 19.890625 C 47.984375 16.171875 47.039062 14.96875 44.769531 14.96875 L 36.257812 14.96875 C 35.566406 14.96875 34.910156 15.078125 34.261719 15.234375 C 33.527344 14.457031 32.617188 13.621094 31.335938 12.375 C 30.8125 11.863281 30.328125 11.300781 29.800781 10.773438 C 29.28125 10.253906 28.710938 9.761719 28.207031 9.246094 C 24.566406 5.53125 23.621094 4.324219 21.355469 4.324219 Z M 12.839844 8.582031 L 20.886719 8.582031 C 22.320312 8.582031 23.484375 9.3125 23.484375 11.039062 L 23.484375 14.96875 C 23.484375 16.136719 24.441406 17.09375 25.613281 17.09375 L 29.671875 17.09375 C 31.9375 17.09375 32 18.527344 32 19.429688 L 32 42.042969 C 32 42.878906 30.09375 44.769531 27.742188 44.769531 L 12.839844 44.769531 C 10.488281 44.769531 8.582031 42.863281 8.582031 40.515625 L 8.851562 11.445312 C 9.429688 9.730469 11.03125 8.582031 12.839844 8.582031 Z M 36.257812 19.230469 L 44.3125 19.230469 C 45.746094 19.230469 46.90625 19.960938 46.90625 21.6875 L 46.90625 25.613281 C 46.90625 26.785156 47.863281 27.742188 49.03125 27.742188 L 53.089844 27.742188 C 55.355469 27.742188 55.417969 29.175781 55.417969 30.066406 L 55.417969 52.6875 C 55.417969 53.523438 53.511719 55.417969 51.160156 55.417969 L 36.257812 55.417969 C 33.90625 55.417969 32 53.511719 32 51.160156 L 32 47.835938 C 34.125 46.613281 35.609375 44.523438 36.058594 42.113281 L 44.636719 48.636719 L 44.636719 42.644531 L 51.027344 42.644531 L 51.027344 38.386719 L 44.636719 38.386719 L 44.636719 32.394531 L 36.257812 38.785156 Z M 19.09375 21.757812 L 19.09375 27.742188 L 12.707031 27.742188 L 12.707031 32 L 19.09375 32 L 19.09375 37.988281 L 29.738281 29.875 Z M 19.09375 21.757812 "/>
</g>
</svg>
