<svg xmlns="http://www.w3.org/2000/svg" xmlns:xlink="http://www.w3.org/1999/xlink" width="64px" height="64px" viewBox="0 0 64 64" version="1.1">
<defs>
<linearGradient id="linear0" gradientUnits="userSpaceOnUse" x1="0" y1="0" x2="0" y2="1" gradientTransform="matrix(55.351351,0,0,55.351351,4.324324,4.324324)">
<stop offset="0" style="stop-color:#ffae00;stop-opacity:1;"/>
<stop offset="0.5" style="stop-color:#dddddd;stop-opacity:1;"/>
<stop offset="1" style="stop-color:#6600ff;stop-opacity:1;"/>
</linearGradient>
</defs>
<g id="surface1">
<path style=" stroke:none;fill-rule:evenodd;fill:url(#linear0);" d="M 55.363281 17.148438 C 58.089844 21.4375 59.675781 26.539062 59.675781 32 C 59.675781 47.285156 47.285156 59.675781 32 59.675781 C 16.714844 59.675781 4.324219 47.285156 4.324219 32 C 4.324219 16.714844 16.714844 4.324219 32 4.324219 C 36.988281 4.324219 41.671875 5.644531 45.710938 7.957031 C 46.917969 7.882812 48.539062 7.746094 50.0625 7.605469 C 51.0625 7.511719 52.289062 7.261719 53.402344 7.554688 C 53.746094 7.644531 54.089844 7.808594 54.378906 8.148438 C 54.636719 8.386719 54.851562 8.664062 55 8.945312 C 55.214844 9.367188 55.242188 9.523438 55.234375 10.3125 C 55.230469 10.800781 55.210938 12.257812 55.191406 13.542969 C 55.175781 15.382812 55.207031 16.121094 55.328125 16.960938 C 55.339844 17.027344 55.347656 17.09375 55.363281 17.148438 Z M 32 13.550781 C 42.191406 13.550781 50.449219 21.808594 50.449219 32 C 50.449219 42.191406 42.191406 50.449219 32 50.449219 C 21.808594 50.449219 13.550781 42.191406 13.550781 32 C 13.550781 21.808594 21.808594 13.550781 32 13.550781 Z M 32 13.550781 "/>
</g>
</svg>
