<svg xmlns="http://www.w3.org/2000/svg" xmlns:xlink="http://www.w3.org/1999/xlink" width="64px" height="64px" viewBox="0 0 64 64" version="1.1">
<g id="surface1">
<path style=" stroke:none;fill-rule:nonzero;fill:rgb(99.215686%,81.176472%,44.313726%);fill-opacity:1;" d="M 32 8.648438 C 44.894531 8.648438 55.351562 19.105469 55.351562 32 C 55.351562 44.894531 44.894531 55.351562 32 55.351562 C 19.105469 55.351562 8.648438 44.894531 8.648438 32 C 8.648438 19.105469 19.105469 8.648438 32 8.648438 Z M 32 8.648438 "/>
<path style=" stroke:none;fill-rule:nonzero;fill:rgb(50.588238%,29.411766%,7.450981%);fill-opacity:1;" d="M 24.90625 32 L 21.992188 34.933594 L 19.0625 32 L 21.992188 29.066406 Z M 32 24.90625 L 37.011719 29.917969 L 39.945312 26.988281 L 34.933594 21.992188 L 32 19.0625 L 24.074219 26.988281 L 27.007812 29.917969 Z M 42.007812 29.066406 L 39.09375 32 L 42.027344 34.933594 L 44.9375 32 Z M 32 39.09375 L 26.988281 34.082031 L 24.074219 37.011719 L 32 44.9375 L 39.945312 36.992188 L 37.011719 34.082031 Z M 32 34.933594 L 34.933594 32 L 32 29.066406 L 29.066406 32 Z M 32 34.933594 "/>
</g>
</svg>
