<svg xmlns="http://www.w3.org/2000/svg" xmlns:xlink="http://www.w3.org/1999/xlink" width="64px" height="64px" viewBox="0 0 64 64" version="1.1">
<defs>
<linearGradient id="linear0" gradientUnits="userSpaceOnUse" x1="0" y1="0" x2="0" y2="1" gradientTransform="matrix(55.351351,0,0,33.211713,4.324324,15.391892)">
<stop offset="0" style="stop-color:#ffae00;stop-opacity:1;"/>
<stop offset="0.5" style="stop-color:#dddddd;stop-opacity:1;"/>
<stop offset="1" style="stop-color:#bf1d1d;stop-opacity:1;"/>
</linearGradient>
</defs>
<g id="surface1">
<path style=" stroke:none;fill-rule:evenodd;fill:url(#linear0);" d="M 23.53125 44.347656 C 25.511719 47.003906 28.636719 48.605469 32 48.605469 C 35.363281 48.605469 38.488281 47.003906 40.46875 44.347656 L 41.597656 44.144531 C 43.027344 44.144531 43.558594 40.996094 42.550781 39.929688 L 33.136719 31.113281 C 32.835938 30.792969 32.421875 30.617188 32 30.617188 C 31.578125 30.617188 31.164062 30.792969 30.863281 31.113281 L 21.449219 39.929688 C 20.441406 40.996094 20.972656 44.144531 22.402344 44.144531 Z M 20.828125 21.660156 C 20.121094 17.214844 15.867188 14.523438 11.339844 15.648438 C 6.8125 16.785156 3.714844 21.300781 4.421875 25.742188 C 5.136719 30.1875 9.386719 32.875 13.914062 31.742188 C 18.441406 30.617188 21.539062 26.09375 20.828125 21.660156 Z M 43.171875 21.652344 C 43.878906 17.214844 48.132812 14.523438 52.660156 15.648438 C 57.1875 16.78125 60.285156 21.300781 59.578125 25.742188 C 58.863281 30.1875 54.613281 32.875 50.085938 31.742188 C 45.558594 30.617188 42.460938 26.09375 43.171875 21.652344 Z M 43.171875 21.652344 "/>
</g>
</svg>
