<svg xmlns="http://www.w3.org/2000/svg" xmlns:xlink="http://www.w3.org/1999/xlink" width="64px" height="64px" viewBox="0 0 64 64" version="1.1">
<defs>
<linearGradient id="linear0" gradientUnits="userSpaceOnUse" x1="0" y1="0" x2="0" y2="1" gradientTransform="matrix(50.864865,0,0,55.351351,6.567568,4.324324)">
<stop offset="0" style="stop-color:#ffae00;stop-opacity:1;"/>
<stop offset="0.5" style="stop-color:#dddddd;stop-opacity:1;"/>
<stop offset="1" style="stop-color:#bf1d1d;stop-opacity:1;"/>
</linearGradient>
</defs>
<g id="surface1">
<path style=" stroke:none;fill-rule:nonzero;fill:url(#linear0);" d="M 47.171875 4.328125 C 45.144531 4.382812 43.132812 5.039062 41.488281 6.238281 C 39.589844 7.625 38.242188 9.625 36.761719 11.457031 C 36.015625 12.367188 35.230469 13.257812 34.320312 14.003906 C 33.410156 14.753906 32.390625 15.511719 31.234375 15.664062 C 28.894531 15.972656 26.46875 14.785156 24.355469 14.042969 C 22.160156 13.203125 19.988281 12.148438 17.652344 11.902344 C 14.429688 11.5625 11.070312 12.90625 8.960938 15.382812 C 6.851562 17.855469 6.058594 22.148438 6.894531 25.292969 C 7.734375 28.441406 10.1875 31.105469 13.246094 32.1875 C 16.308594 33.273438 19.882812 32.753906 22.511719 30.835938 C 24.410156 29.449219 25.757812 27.449219 27.238281 25.621094 C 28.828125 23.644531 30.488281 21.703125 32.765625 20.8125 C 33.851562 20.382812 35.109375 20.511719 36.265625 20.699219 C 37.421875 20.886719 38.550781 21.261719 39.644531 21.6875 C 41.839844 22.523438 44.011719 23.582031 46.347656 23.824219 C 49.570312 24.164062 52.929688 22.824219 55.039062 20.347656 C 57.148438 17.867188 57.941406 14.929688 57.105469 11.785156 C 56.265625 8.636719 53.8125 5.972656 50.753906 4.882812 C 49.605469 4.476562 48.382812 4.292969 47.171875 4.328125 Z M 48.386719 26.769531 C 46.902344 26.808594 45.421875 27.292969 44.214844 28.175781 C 42.820312 29.199219 41.824219 30.664062 40.730469 32.015625 C 40.1875 32.691406 39.609375 33.347656 38.941406 33.894531 C 38.269531 34.449219 37.511719 34.894531 36.671875 35.121094 C 35.835938 35.347656 34.957031 35.339844 34.097656 35.199219 C 33.246094 35.0625 32.417969 34.789062 31.613281 34.476562 C 29.996094 33.855469 28.410156 33.082031 26.6875 32.902344 C 24.3125 32.648438 21.847656 33.636719 20.296875 35.460938 C 18.753906 37.289062 18.164062 39.894531 18.78125 42.210938 C 19.394531 44.53125 21.199219 46.496094 23.449219 47.296875 C 25.699219 48.097656 28.324219 47.710938 30.257812 46.300781 C 31.652344 45.28125 32.648438 43.800781 33.738281 42.457031 C 34.285156 41.78125 34.863281 41.125 35.53125 40.578125 C 36.203125 40.027344 36.960938 39.578125 37.800781 39.351562 C 38.636719 39.125 39.515625 39.136719 40.375 39.269531 C 41.21875 39.414062 42.054688 39.6875 42.863281 39.996094 C 44.472656 40.613281 46.0625 41.390625 47.785156 41.578125 C 50.152344 41.828125 52.625 40.835938 54.175781 39.011719 C 55.726562 37.1875 56.3125 34.582031 55.691406 32.261719 C 55.078125 29.941406 53.269531 27.976562 51.023438 27.175781 C 50.179688 26.878906 49.285156 26.742188 48.386719 26.769531 Z M 32.40625 49.214844 C 32.066406 49.234375 31.726562 49.289062 31.390625 49.378906 C 30.066406 49.734375 28.894531 50.632812 28.210938 51.820312 C 27.523438 53.011719 27.335938 54.472656 27.6875 55.796875 C 28.039062 57.121094 28.9375 58.292969 30.132812 58.976562 C 31.3125 59.664062 32.78125 59.855469 34.105469 59.503906 C 35.429688 59.144531 36.597656 58.253906 37.289062 57.058594 C 37.972656 55.875 38.164062 54.410156 37.808594 53.085938 C 37.449219 51.761719 36.554688 50.585938 35.367188 49.902344 C 34.476562 49.386719 33.433594 49.148438 32.40625 49.214844 Z M 32.40625 49.214844 "/>
</g>
</svg>
