<svg xmlns="http://www.w3.org/2000/svg" xmlns:xlink="http://www.w3.org/1999/xlink" width="64px" height="64px" viewBox="0 0 64 64" version="1.1">
<defs>
<linearGradient id="linear0" gradientUnits="userSpaceOnUse" x1="0" y1="0" x2="0" y2="1" gradientTransform="matrix(44.972973,0,0,55.351351,9.513514,4.324324)">
<stop offset="0" style="stop-color:#00b7ff;stop-opacity:1;"/>
<stop offset="0.5" style="stop-color:#dddddd;stop-opacity:1;"/>
<stop offset="1" style="stop-color:#ee42d9;stop-opacity:1;"/>
</linearGradient>
</defs>
<g id="surface1">
<path style=" stroke:none;fill-rule:nonzero;fill:url(#linear0);" d="M 32 4.324219 C 28.191406 4.324219 24.582031 5.433594 24.582031 5.433594 L 23.351562 5.808594 L 23.351562 11.625 C 19.789062 12.257812 16.3125 13.289062 12.984375 14.703125 L 12.972656 18.164062 L 9.511719 18.164062 L 9.511719 21.621094 L 12.972656 21.621094 L 12.988281 52.753906 C 12.988281 54.273438 13.125 55.484375 13.503906 56.496094 C 13.890625 57.511719 14.582031 58.324219 15.457031 58.808594 C 17.191406 59.773438 19.328125 59.671875 22.210938 59.671875 L 41.808594 59.671875 C 44.6875 59.671875 46.820312 59.773438 48.558594 58.808594 C 49.433594 58.324219 50.117188 57.511719 50.496094 56.496094 C 50.878906 55.484375 51.027344 54.273438 51.027344 52.753906 L 51.015625 25.082031 L 47.558594 25.082031 L 47.566406 52.753906 C 47.566406 54.054688 47.429688 54.835938 47.261719 55.273438 C 47.144531 55.585938 46.996094 55.71875 46.882812 55.78125 C 46.285156 56.117188 44.769531 56.210938 41.808594 56.210938 L 22.210938 56.210938 C 19.242188 56.210938 17.730469 56.117188 17.125 55.78125 C 16.941406 55.664062 16.800781 55.488281 16.738281 55.273438 L 16.738281 55.269531 C 16.578125 54.847656 16.445312 54.0625 16.445312 52.753906 L 16.445312 52.746094 L 16.433594 21.621094 L 54.488281 21.621094 L 54.488281 18.164062 L 51.015625 18.164062 L 51.027344 14.703125 C 47.691406 13.289062 44.210938 12.257812 40.648438 11.625 L 40.648438 5.882812 L 39.511719 5.46875 C 39.511719 5.46875 36.347656 4.328125 32 4.328125 Z M 32 7.785156 C 35.082031 7.785156 36.460938 8.320312 37.1875 8.542969 L 37.1875 11.097656 C 35.46875 10.910156 33.738281 10.8125 32.011719 10.8125 C 30.269531 10.8125 28.539062 10.917969 26.8125 11.109375 L 26.8125 8.566406 C 27.730469 8.328125 29.484375 7.785156 32 7.785156 Z M 23.351562 25.082031 L 23.351562 45.835938 L 26.8125 45.835938 L 26.8125 25.082031 Z M 30.269531 25.082031 L 30.269531 45.835938 L 33.730469 45.835938 L 33.730469 25.082031 Z M 37.1875 25.082031 L 37.1875 45.835938 L 40.648438 45.835938 L 40.648438 25.082031 Z M 37.1875 25.082031 "/>
</g>
</svg>
