<svg xmlns="http://www.w3.org/2000/svg" xmlns:xlink="http://www.w3.org/1999/xlink" width="64px" height="64px" viewBox="0 0 64 64" version="1.1">
<defs>
<linearGradient id="linear0" gradientUnits="userSpaceOnUse" x1="0" y1="0" x2="0" y2="1" gradientTransform="matrix(55.351351,0,0,55.351351,4.324324,4.324324)">
<stop offset="0" style="stop-color:#00fff2;stop-opacity:1;"/>
<stop offset="0.5" style="stop-color:#dddddd;stop-opacity:1;"/>
<stop offset="1" style="stop-color:#0062ff;stop-opacity:1;"/>
</linearGradient>
</defs>
<g id="surface1">
<path style=" stroke:none;fill-rule:evenodd;fill:url(#linear0);" d="M 25.644531 7.597656 C 24.648438 15.058594 25.984375 23.015625 30.042969 30.027344 C 27.910156 33.394531 25.351562 36.542969 22.363281 38.855469 C 16.46875 31.308594 14.203125 21.972656 15.210938 13.152344 C 18.214844 10.472656 21.789062 8.566406 25.644531 7.597656 Z M 12.800781 15.589844 C 12.414062 24.207031 15.015625 32.878906 20.445312 40.328125 C 17.410156 42.445312 14.066406 44.109375 10.550781 45.199219 C 8.0625 41.289062 6.746094 36.71875 6.746094 32 C 6.746094 25.949219 8.910156 20.152344 12.800781 15.589844 Z M 11.785156 47.039062 C 19.941406 44.289062 27.234375 38.855469 31.960938 31.082031 C 36.015625 31.082031 40.078125 31.917969 43.699219 33.179688 C 39.117188 43.789062 30.0625 51.257812 19.5 53.917969 C 17.554688 52.824219 15.757812 51.460938 14.148438 49.851562 C 13.273438 48.976562 12.472656 48.042969 11.785156 47.039062 Z M 22.636719 55.367188 C 32.699219 51.960938 41.269531 44.367188 45.621094 34.234375 C 49.355469 35.976562 52.71875 38.261719 55.554688 40.914062 C 54.363281 44.253906 52.40625 47.292969 49.851562 49.851562 C 45.113281 54.589844 38.710938 57.253906 32 57.253906 C 28.742188 57.253906 25.558594 56.625 22.636719 55.367188 Z M 56.386719 38.410156 C 49.867188 32.703125 41.414062 29.179688 31.960938 28.976562 C 29.835938 25.402344 28.554688 21.617188 27.914062 17.835938 C 29.324219 17.675781 30.730469 17.597656 32.117188 17.59375 C 41.386719 17.570312 50 20.921875 56.605469 26.660156 C 57.058594 28.382812 57.253906 30.179688 57.253906 32 C 57.253906 34.1875 56.96875 36.347656 56.386719 38.410156 Z M 55.503906 22.960938 C 47.753906 17.171875 37.929688 14.320312 27.699219 15.730469 C 27.511719 12.933594 27.511719 9.96875 27.96875 7.136719 C 29.28125 6.855469 30.636719 6.746094 32 6.746094 C 38.710938 6.746094 45.113281 9.410156 49.851562 14.148438 C 52.378906 16.675781 54.3125 19.675781 55.503906 22.960938 Z M 4.324219 32 C 4.324219 16.726562 16.726562 4.324219 32 4.324219 C 47.273438 4.324219 59.675781 16.726562 59.675781 32 C 59.675781 47.273438 47.273438 59.675781 32 59.675781 C 16.726562 59.675781 4.324219 47.273438 4.324219 32 Z M 4.324219 32 "/>
</g>
</svg>
