<svg xmlns="http://www.w3.org/2000/svg" xmlns:xlink="http://www.w3.org/1999/xlink" width="64px" height="64px" viewBox="0 0 64 64" version="1.1">
<defs>
<linearGradient id="linear0" gradientUnits="userSpaceOnUse" x1="0" y1="0" x2="0" y2="1" gradientTransform="matrix(55.351351,0,0,38.054054,4.324324,12.972973)">
<stop offset="0" style="stop-color:#00a2ff;stop-opacity:1;"/>
<stop offset="0.5" style="stop-color:#dddddd;stop-opacity:1;"/>
<stop offset="1" style="stop-color:#00ffae;stop-opacity:1;"/>
</linearGradient>
</defs>
<g id="surface1">
<path style=" stroke:none;fill-rule:nonzero;fill:url(#linear0);" d="M 35.5625 50.972656 C 35.566406 50.933594 35.890625 49.800781 36.273438 48.449219 C 36.664062 47.09375 36.933594 45.902344 36.867188 45.792969 C 36.808594 45.6875 36.292969 45.597656 35.726562 45.59375 C 35.164062 45.59375 33.921875 45.417969 32.976562 45.207031 C 27.796875 44.054688 22.539062 41.230469 17.644531 36.972656 C 16.648438 36.109375 15.765625 35.515625 15.664062 35.652344 C 15.558594 35.773438 14.988281 36.570312 14.386719 37.410156 C 12.28125 40.363281 9.082031 42.511719 6.027344 43.03125 C 5.179688 43.175781 4.457031 43.257812 4.417969 43.214844 C 4.378906 43.175781 4.945312 41.863281 5.675781 40.292969 C 8.714844 33.769531 8.679688 29.941406 5.515625 23.261719 L 4.324219 20.738281 L 5 20.738281 C 6.09375 20.738281 8.484375 21.476562 9.773438 22.21875 C 11.367188 23.136719 13.9375 25.632812 14.917969 27.226562 C 15.351562 27.933594 15.761719 28.503906 15.828125 28.503906 C 15.890625 28.503906 16.789062 27.824219 17.8125 26.988281 C 21.058594 24.351562 25.335938 21.644531 28.363281 20.320312 C 28.40625 20.308594 28.324219 19.984375 28.1875 19.609375 C 27.8125 18.578125 25.988281 16.621094 24.648438 15.8125 L 23.449219 15.09375 L 24.644531 14.679688 C 29.058594 13.136719 35.929688 12.503906 39.003906 13.347656 C 41.617188 14.066406 43.835938 15.4375 45.960938 17.660156 C 47.117188 18.863281 48.285156 19.820312 48.914062 20.082031 C 52.160156 21.433594 55.796875 24.066406 57.648438 26.410156 C 58.652344 27.675781 59.675781 29.164062 59.675781 29.347656 C 59.675781 29.414062 58.621094 30.257812 57.335938 31.234375 C 56.050781 32.207031 55 33.089844 55 33.199219 C 55 33.308594 55.996094 34.054688 57.214844 34.863281 C 58.433594 35.679688 59.429688 36.433594 59.429688 36.539062 C 59.429688 37.308594 55.039062 40.472656 51.710938 42.105469 C 49.523438 43.175781 45.160156 44.824219 44.496094 44.824219 C 44.320312 44.824219 44.171875 44.917969 44.171875 45.042969 C 44.171875 45.5625 42.082031 47.707031 40.664062 48.648438 C 39.011719 49.738281 35.523438 51.335938 35.5625 50.976562 Z M 49.644531 30.792969 C 51.363281 29.503906 51.503906 27.460938 50.003906 25.71875 C 49.378906 25 49.097656 24.976562 49.265625 25.652344 C 49.488281 26.53125 48.707031 27.46875 47.765625 27.46875 C 46.820312 27.46875 46.394531 27.039062 46.152344 25.847656 L 45.984375 25.003906 L 45.234375 25.835938 C 43.984375 27.230469 43.984375 28.851562 45.234375 30.285156 C 46.441406 31.664062 48.203125 31.867188 49.644531 30.792969 Z M 49.644531 30.792969 "/>
</g>
</svg>
