<svg xmlns="http://www.w3.org/2000/svg" xmlns:xlink="http://www.w3.org/1999/xlink" width="64px" height="64px" viewBox="0 0 64 64" version="1.1">
<defs>
<linearGradient id="linear0" gradientUnits="userSpaceOnUse" x1="0" y1="0" x2="0" y2="1" gradientTransform="matrix(51.891892,0,0,47.977476,6.054054,8.238738)">
<stop offset="0" style="stop-color:#00a2ff;stop-opacity:1;"/>
<stop offset="0.5" style="stop-color:#dddddd;stop-opacity:1;"/>
<stop offset="1" style="stop-color:#00ffae;stop-opacity:1;"/>
</linearGradient>
</defs>
<g id="surface1">
<path style=" stroke:none;fill-rule:nonzero;fill:url(#linear0);" d="M 53.886719 8.253906 C 53.226562 8.203125 52.554688 8.292969 51.894531 8.394531 C 51.339844 8.488281 50.800781 8.660156 50.261719 8.824219 C 49.589844 9.03125 49.050781 9.175781 48.273438 9.53125 C 47.496094 9.886719 46.476562 10.441406 45.644531 11.023438 C 44.8125 11.609375 44.015625 12.285156 43.300781 13.011719 C 42.460938 13.863281 41.027344 15.785156 41.027344 15.785156 C 41.027344 15.785156 36.324219 15.636719 33.988281 15.851562 C 33.320312 15.914062 32 16.207031 32 16.207031 L 29.867188 16.664062 C 29.867188 16.664062 29.003906 16.886719 28.117188 17.253906 C 28.117188 17.253906 27.136719 17.679688 26.421875 17.945312 C 25.402344 18.328125 24.96875 18.746094 24.042969 19.335938 C 23.203125 19.863281 22.460938 20.542969 21.769531 21.253906 C 21.238281 21.789062 20.78125 22.3125 20.335938 23.003906 C 20.3125 23.03125 20.296875 23.066406 20.28125 23.09375 C 19.808594 23.886719 19.40625 24.753906 19.210938 25.652344 C 19.042969 26.417969 19.042969 27.21875 19.136719 28 C 19.226562 28.679688 19.710938 29.988281 19.710938 29.988281 C 19.710938 29.988281 20.433594 30.96875 20.847656 31.410156 C 21.308594 31.894531 21.742188 32.449219 22.335938 32.757812 C 22.902344 33.054688 23.558594 33.105469 24.1875 33.1875 C 24.21875 33.1875 24.257812 33.191406 24.292969 33.199219 C 25.164062 33.289062 25.933594 33.347656 26.742188 33.261719 C 27.617188 33.171875 28.496094 32.96875 29.300781 32.625 C 30.152344 32.257812 30.9375 31.726562 31.648438 31.132812 C 32.339844 30.554688 33.085938 29.949219 33.496094 29.144531 C 33.78125 28.582031 33.972656 27.910156 33.851562 27.292969 C 33.785156 26.960938 33.550781 26.652344 33.28125 26.441406 C 33.066406 26.28125 32.742188 26.351562 32.523438 26.175781 C 32.511719 26.171875 32.503906 26.164062 32.5 26.164062 C 32.253906 25.933594 32.136719 25.570312 32.070312 25.238281 C 31.984375 24.773438 31.933594 24.242188 32.144531 23.820312 C 32.296875 23.515625 32.746094 22.882812 33.003906 22.664062 C 33.460938 22.273438 33.769531 22.300781 34.273438 21.972656 C 34.328125 21.933594 34.347656 21.933594 34.429688 21.890625 C 34.441406 21.886719 34.460938 21.882812 34.472656 21.878906 C 34.921875 21.675781 36.027344 21.203125 36.691406 21.117188 C 36.949219 21.089844 37.289062 21 37.472656 21.1875 C 37.476562 21.1875 37.484375 21.1875 37.484375 21.191406 C 37.613281 21.496094 37.542969 22.175781 37.542969 22.175781 L 37.527344 22.214844 L 33.066406 32.265625 C 33.066406 32.265625 31.335938 36.164062 30.011719 37.808594 C 29.539062 38.394531 28.941406 38.886719 28.308594 39.296875 C 27.785156 39.636719 27.207031 39.917969 26.605469 40.082031 C 25.820312 40.289062 24.972656 40.472656 24.1875 40.292969 C 23.511719 40.136719 22.828125 39.78125 22.410156 39.230469 C 22.085938 38.796875 21.933594 38.203125 21.984375 37.664062 C 22.003906 37.457031 22.164062 37.28125 22.269531 37.09375 C 22.441406 36.800781 22.675781 36.542969 22.835938 36.242188 C 23.011719 35.90625 23.257812 35.558594 23.261719 35.175781 C 23.269531 34.699219 23.09375 34.179688 22.765625 33.828125 C 22.410156 33.445312 21.851562 33.296875 21.339844 33.1875 C 20.671875 33.042969 19.96875 33.136719 19.285156 33.1875 C 18.1875 33.265625 17.109375 33.445312 16.011719 33.6875 C 15.011719 33.90625 14.042969 34.269531 13.105469 34.679688 C 12.386719 34.988281 11.675781 35.324219 11.039062 35.78125 C 10.328125 36.292969 9.734375 36.960938 9.121094 37.59375 C 8.460938 38.269531 7.867188 39.03125 7.417969 39.863281 C 6.890625 40.839844 6.511719 41.910156 6.28125 42.988281 C 6.0625 44.011719 6.027344 45.078125 6.066406 46.121094 C 6.09375 46.789062 6.203125 47.457031 6.351562 48.109375 C 6.542969 48.957031 6.730469 49.824219 7.136719 50.59375 C 7.636719 51.554688 8.296875 52.390625 9.121094 53.152344 C 9.945312 53.914062 10.988281 54.558594 12.039062 55.070312 C 12.945312 55.523438 13.945312 55.910156 14.914062 56.066406 C 15.828125 56.214844 16.761719 56.199219 17.6875 56.210938 C 19.039062 56.234375 20.375 56.1875 21.699219 55.929688 C 22.972656 55.675781 24.164062 55.089844 25.324219 54.503906 C 26.796875 53.761719 28.226562 52.90625 29.515625 51.878906 C 30.433594 51.144531 31.257812 50.292969 32.003906 49.386719 C 33.054688 48.113281 33.972656 46.714844 34.773438 45.269531 C 35.625 43.726562 36.199219 42.050781 36.90625 40.4375 C 37.335938 39.460938 37.835938 38.527344 38.1875 37.523438 C 38.460938 36.710938 38.585938 35.855469 38.824219 35.039062 C 39.082031 34.148438 39.675781 32.40625 39.675781 32.40625 C 39.675781 32.40625 41.457031 32.132812 42.308594 32.339844 C 42.9375 32.488281 43.5 32.863281 44.011719 33.265625 C 44.3125 33.503906 44.609375 33.78125 44.792969 34.117188 C 45.011719 34.503906 45.082031 34.960938 45.148438 35.394531 C 45.238281 35.960938 45.335938 36.542969 45.21875 37.105469 C 45.085938 37.746094 44.820312 38.40625 44.363281 38.878906 C 44.011719 39.242188 43.515625 39.496094 43.015625 39.589844 C 42.808594 39.625 42.578125 39.589844 42.378906 39.523438 C 42.136719 39.433594 41.890625 39.300781 41.738281 39.097656 C 41.554688 38.863281 41.550781 38.527344 41.457031 38.242188 C 41.363281 37.960938 41.363281 37.617188 41.164062 37.390625 C 41.097656 37.3125 40.988281 37.253906 40.882812 37.246094 C 40.441406 37.246094 40.03125 37.550781 39.675781 37.820312 C 39.1875 38.199219 38.824219 38.730469 38.46875 39.238281 C 38.082031 39.796875 37.746094 40.394531 37.472656 41.015625 C 37.105469 41.863281 36.765625 42.734375 36.621094 43.644531 C 36.488281 44.460938 36.460938 45.320312 36.621094 46.132812 C 36.753906 46.8125 37.003906 47.488281 37.402344 48.050781 C 37.710938 48.488281 38.1875 48.792969 38.613281 49.117188 C 39.058594 49.460938 39.511719 49.8125 40.03125 50.039062 C 40.460938 50.230469 40.929688 50.300781 41.382812 50.394531 C 42.132812 50.554688 42.886719 50.746094 43.660156 50.753906 C 44.488281 50.757812 45.347656 50.664062 46.144531 50.394531 C 47.058594 50.097656 47.917969 49.613281 48.703125 49.042969 C 49.6875 48.328125 50.511719 47.390625 51.328125 46.488281 C 52.042969 45.703125 52.746094 44.894531 53.320312 44 C 53.808594 43.242188 54.214844 42.429688 54.527344 41.585938 C 54.835938 40.761719 55.050781 39.894531 55.164062 39.027344 C 55.292969 38.089844 55.402344 37.117188 55.238281 36.1875 C 55.105469 35.410156 54.730469 34.6875 54.382812 33.984375 C 54.121094 33.4375 53.835938 32.890625 53.460938 32.417969 C 53.09375 31.960938 52.664062 31.550781 52.179688 31.210938 C 51.511719 30.734375 49.976562 30.070312 49.976562 30.070312 L 51.757812 29.363281 C 51.757812 29.363281 53.265625 28.738281 53.886719 28.226562 C 54.410156 27.796875 54.902344 27.285156 55.164062 26.664062 C 55.625 25.589844 55.703125 24.347656 55.59375 23.179688 C 55.488281 22.089844 55.164062 20.988281 54.597656 20.054688 C 54.214844 19.429688 53.597656 18.960938 53.039062 18.488281 C 52.4375 17.988281 51.808594 17.511719 51.117188 17.136719 C 50.46875 16.796875 49.773438 16.5 49.054688 16.363281 C 48.242188 16.199219 46.566406 16.292969 46.566406 16.292969 C 46.566406 16.292969 46.960938 15.523438 47.28125 15.191406 C 47.734375 14.71875 48.296875 14.160156 48.878906 13.839844 C 49.339844 13.589844 49.8125 13.460938 50.335938 13.382812 C 50.738281 13.3125 51.207031 13.367188 51.542969 13.59375 C 51.882812 13.828125 51.960938 14.3125 52.179688 14.664062 C 52.363281 14.949219 52.460938 15.328125 52.753906 15.511719 C 53.136719 15.757812 53.648438 15.796875 54.097656 15.726562 C 54.730469 15.636719 55.292969 15.242188 55.808594 14.875 C 56.160156 14.617188 56.449219 14.285156 56.730469 13.949219 C 56.996094 13.636719 57.242188 13.3125 57.441406 12.957031 C 57.652344 12.570312 57.894531 12.179688 57.9375 11.746094 C 57.984375 11.289062 57.839844 10.8125 57.652344 10.394531 C 57.460938 9.960938 57.164062 9.5625 56.800781 9.257812 C 56.4375 8.949219 55.523438 8.617188 55.523438 8.617188 C 55.523438 8.617188 54.445312 8.300781 53.886719 8.261719 Z M 42.824219 20.757812 C 42.824219 20.757812 44.097656 20.636719 44.609375 20.757812 C 45.113281 20.875 45.503906 21.058594 45.808594 21.375 C 46.113281 21.691406 46.210938 22.050781 46.351562 22.539062 C 46.488281 23.027344 46.652344 23.644531 46.542969 24.28125 C 46.433594 24.917969 46.027344 25.644531 45.613281 26.179688 C 45.203125 26.714844 44.6875 27.132812 44.144531 27.460938 C 43.59375 27.785156 43.015625 28.066406 42.394531 28.117188 C 41.9375 28.160156 41.039062 27.839844 41.039062 27.839844 Z M 42.824219 20.757812 "/>
</g>
</svg>
