<svg xmlns="http://www.w3.org/2000/svg" xmlns:xlink="http://www.w3.org/1999/xlink" width="64px" height="64px" viewBox="0 0 64 64" version="1.1">
<defs>
<linearGradient id="linear0" gradientUnits="userSpaceOnUse" x1="0" y1="0" x2="0" y2="1" gradientTransform="matrix(55.351351,0,0,51.126125,4.324324,6.436937)">
<stop offset="0" style="stop-color:#ffae00;stop-opacity:1;"/>
<stop offset="0.5" style="stop-color:#dddddd;stop-opacity:1;"/>
<stop offset="1" style="stop-color:#bf1d1d;stop-opacity:1;"/>
</linearGradient>
</defs>
<g id="surface1">
<path style=" stroke:none;fill-rule:nonzero;fill:url(#linear0);" d="M 30.707031 6.457031 C 30.113281 6.472656 29.554688 6.738281 29.171875 7.1875 L 7.0625 31.835938 C 6.605469 32.363281 5.46875 34.285156 4.929688 36.78125 C 4.511719 37.957031 4.3125 39.199219 4.324219 40.449219 C 4.324219 47.082031 9.867188 49.734375 9.867188 49.734375 C 9.957031 49.785156 10.042969 49.828125 10.136719 49.863281 L 35.78125 57.484375 C 36.617188 57.71875 37.511719 57.433594 38.050781 56.746094 L 58.957031 31.566406 C 59.472656 30.929688 59.578125 30.039062 59.21875 29.292969 C 59.21875 29.292969 58.414062 27.429688 59.292969 25.289062 C 59.582031 24.582031 59.472656 23.769531 59.003906 23.164062 C 58.539062 22.554688 57.78125 22.238281 57.015625 22.351562 C 56.265625 22.46875 55.625 22.976562 55.347656 23.6875 C 54.257812 26.363281 54.570312 28.402344 54.945312 29.699219 L 35.648438 52.941406 L 11.46875 45.792969 L 11.335938 45.726562 C 10.9375 45.578125 8.597656 44.523438 8.597656 40.449219 C 8.597656 38.847656 8.941406 37.996094 9.265625 37.511719 C 9.527344 37.089844 9.929688 36.785156 10.402344 36.644531 C 10.867188 36.496094 11.40625 36.496094 11.800781 36.511719 L 11.875 36.511719 L 34.179688 42.921875 C 35.050781 43.136719 35.960938 42.820312 36.515625 42.117188 L 59.152344 16.011719 C 59.644531 15.40625 59.8125 14.605469 59.554688 13.867188 C 59.292969 13.125 58.660156 12.566406 57.882812 12.402344 L 31.308594 6.457031 C 31.109375 6.414062 30.90625 6.449219 30.710938 6.457031 Z M 30.105469 14.9375 C 30.335938 14.933594 30.554688 14.957031 30.769531 15.003906 L 46.664062 18.878906 C 47.539062 19.085938 47.867188 19.660156 47.402344 20.210938 L 45.664062 22.285156 C 45.1875 22.839844 44.070312 23.09375 43.191406 22.882812 L 27.367188 19.011719 C 26.488281 18.808594 26.164062 18.164062 26.632812 17.609375 L 28.308594 15.609375 C 28.652344 15.1875 29.40625 14.957031 30.109375 14.9375 Z M 30.105469 14.9375 "/>
</g>
</svg>
