<svg xmlns="http://www.w3.org/2000/svg" xmlns:xlink="http://www.w3.org/1999/xlink" width="64px" height="64px" viewBox="0 0 64 64" version="1.1">
<defs>
<linearGradient id="linear0" gradientUnits="userSpaceOnUse" x1="0" y1="0" x2="0" y2="1" gradientTransform="matrix(55.351351,0,0,55.351351,4.324324,4.324324)">
<stop offset="0" style="stop-color:#05f7ff;stop-opacity:1;"/>
<stop offset="0.5" style="stop-color:#dddddd;stop-opacity:1;"/>
<stop offset="1" style="stop-color:#e6ff05;stop-opacity:1;"/>
</linearGradient>
</defs>
<g id="surface1">
<path style=" stroke:none;fill-rule:nonzero;fill:url(#linear0);" d="M 59.675781 4.324219 L 4.324219 22.039062 L 24.8125 30.558594 L 32 32 L 33.542969 39.367188 L 41.960938 59.675781 Z M 22.132812 37.542969 C 21.894531 37.566406 21.597656 37.613281 21.328125 37.6875 C 19.230469 38.234375 16.175781 40.488281 14.539062 42.707031 C 12.6875 45.21875 11.699219 48.164062 11.703125 51.164062 C 11.707031 52.003906 11.742188 52.144531 11.988281 52.253906 C 12.269531 52.375 14.644531 52.226562 15.605469 52.03125 C 18.382812 51.46875 20.746094 50.164062 22.863281 48.050781 C 24.1875 46.714844 24.976562 45.617188 25.746094 44.011719 C 26.253906 42.960938 26.59375 41.6875 26.414062 41.503906 C 26.382812 41.472656 26.105469 41.636719 25.800781 41.875 C 23.511719 43.339844 21.679688 44.40625 19.085938 44.914062 C 19.757812 42.363281 20.476562 40.417969 21.8125 38.585938 C 22.203125 38.0625 22.523438 37.613281 22.523438 37.585938 C 22.523438 37.539062 22.363281 37.523438 22.132812 37.542969 Z M 22.132812 37.542969 "/>
</g>
</svg>
