<svg xmlns="http://www.w3.org/2000/svg" xmlns:xlink="http://www.w3.org/1999/xlink" width="64px" height="64px" viewBox="0 0 64 64" version="1.1">
<defs>
<linearGradient id="linear0" gradientUnits="userSpaceOnUse" x1="0" y1="0" x2="0" y2="1" gradientTransform="matrix(55.351351,0,0,34.063064,4.324324,14.968469)">
<stop offset="0" style="stop-color:#00fff2;stop-opacity:1;"/>
<stop offset="0.5" style="stop-color:#dddddd;stop-opacity:1;"/>
<stop offset="1" style="stop-color:#0062ff;stop-opacity:1;"/>
</linearGradient>
</defs>
<g id="surface1">
<path style=" stroke:none;fill-rule:nonzero;fill:url(#linear0);" d="M 23.484375 14.96875 C 21.136719 14.96875 19.230469 16.875 19.230469 19.230469 L 19.230469 25.613281 L 42.644531 25.613281 L 39.449219 17.632812 C 38.8125 16.023438 37.257812 14.960938 35.527344 14.96875 Z M 55.417969 16.039062 L 55.417969 17.09375 L 41.378906 17.09375 L 43.113281 21.355469 L 55.417969 21.355469 L 55.417969 22.417969 L 59.675781 22.417969 L 59.675781 16.039062 Z M 10.839844 27.742188 C 9.421875 27.742188 8.109375 28.484375 7.3125 29.671875 L 4.324219 34.125 L 4.324219 36.257812 L 4.460938 36.257812 C 4.363281 37.230469 4.523438 38.21875 5.121094 39.121094 L 9.179688 45.238281 C 10.742188 47.605469 13.394531 49.03125 16.230469 49.03125 L 47.769531 49.03125 C 50.613281 49.03125 53.238281 47.609375 54.820312 45.238281 L 58.878906 39.121094 C 59.433594 38.273438 59.664062 37.261719 59.542969 36.257812 L 59.675781 36.257812 L 59.675781 34.125 L 56.6875 29.671875 C 55.90625 28.476562 54.582031 27.753906 53.152344 27.742188 Z M 8.914062 36.257812 L 55.085938 36.257812 C 55.460938 36.257812 55.558594 36.476562 55.351562 36.792969 L 51.292969 42.847656 L 51.292969 42.910156 C 50.511719 44.085938 49.179688 44.789062 47.769531 44.769531 L 16.230469 44.769531 C 14.808594 44.765625 13.484375 44.039062 12.707031 42.847656 L 8.648438 36.792969 C 8.445312 36.476562 8.539062 36.257812 8.914062 36.257812 Z M 45.835938 36.257812 C 44.070312 36.257812 42.644531 37.6875 42.644531 39.449219 C 42.644531 41.214844 44.070312 42.644531 45.835938 42.644531 C 47.605469 42.644531 49.03125 41.214844 49.03125 39.449219 C 49.03125 37.6875 47.605469 36.257812 45.835938 36.257812 Z M 37.320312 36.257812 C 35.558594 36.257812 34.125 37.6875 34.125 39.449219 C 34.125 41.214844 35.558594 42.644531 37.320312 42.644531 C 39.085938 42.644531 40.515625 41.214844 40.515625 39.449219 C 40.515625 37.6875 39.085938 36.257812 37.320312 36.257812 Z M 26.679688 36.257812 C 24.914062 36.257812 23.484375 37.6875 23.484375 39.449219 C 23.484375 41.214844 24.914062 42.644531 26.679688 42.644531 C 28.441406 42.644531 29.875 41.214844 29.875 39.449219 C 29.875 37.6875 28.441406 36.257812 26.679688 36.257812 Z M 18.164062 36.257812 C 16.394531 36.257812 14.96875 37.6875 14.96875 39.449219 C 14.96875 41.214844 16.394531 42.644531 18.164062 42.644531 C 19.929688 42.644531 21.355469 41.214844 21.355469 39.449219 C 21.355469 37.6875 19.929688 36.257812 18.164062 36.257812 Z M 18.164062 36.257812 "/>
</g>
</svg>
