<svg xmlns="http://www.w3.org/2000/svg" xmlns:xlink="http://www.w3.org/1999/xlink" width="64px" height="64px" viewBox="0 0 64 64" version="1.1">
<defs>
<linearGradient id="linear0" gradientUnits="userSpaceOnUse" x1="0" y1="0" x2="0" y2="1" gradientTransform="matrix(55.351351,0,0,55.297297,4.324324,4.351351)">
<stop offset="0" style="stop-color:#ffae00;stop-opacity:1;"/>
<stop offset="0.5" style="stop-color:#dddddd;stop-opacity:1;"/>
<stop offset="1" style="stop-color:#6600ff;stop-opacity:1;"/>
</linearGradient>
</defs>
<g id="surface1">
<path style=" stroke:none;fill-rule:nonzero;fill:url(#linear0);" d="M 40.714844 4.363281 C 37.792969 4.234375 35.207031 5.105469 33.386719 6.917969 C 32.253906 8.058594 31.457031 9.488281 31.097656 11.058594 C 30.679688 11.289062 30.300781 11.578125 29.96875 11.917969 C 27.253906 14.636719 28.117188 19.765625 31.960938 23.609375 C 33.246094 24.894531 34.726562 25.890625 36.285156 26.5 C 36.890625 28.054688 37.886719 29.539062 39.179688 30.824219 C 41.515625 33.164062 44.339844 34.390625 46.808594 34.390625 C 48.207031 34.390625 49.472656 34.015625 50.488281 33.1875 C 53.164062 33.160156 55.417969 32.246094 57.066406 30.597656 C 59.503906 28.164062 60.285156 24.40625 59.171875 20.1875 C 60.496094 17.082031 59.164062 12.699219 55.824219 9.363281 C 52.957031 6.496094 49.253906 5.085938 46.242188 5.679688 C 44.339844 4.882812 42.476562 4.445312 40.714844 4.363281 Z M 47.335938 10.339844 C 50.121094 10.339844 51.527344 12.078125 52.066406 12.972656 C 53.242188 13.496094 54.851562 14.886719 54.851562 17.558594 C 54.851562 18.21875 54.3125 18.761719 53.644531 18.761719 C 52.984375 18.761719 52.441406 18.21875 52.441406 17.558594 C 52.441406 15.511719 50.957031 15.117188 50.941406 15.113281 C 50.566406 15.015625 50.261719 14.753906 50.113281 14.394531 C 50.042969 14.238281 49.335938 12.742188 47.335938 12.742188 C 45.851562 12.742188 45.070312 13.972656 45.039062 14.023438 C 44.875 14.308594 44.609375 14.511719 44.289062 14.589844 C 43.960938 14.648438 43.621094 14.585938 43.347656 14.394531 C 43.339844 14.394531 42.503906 13.949219 40.417969 13.949219 C 40.011719 13.949219 38.011719 14.089844 38.011719 16.957031 C 38.011719 19.289062 40.613281 19.972656 40.714844 20 C 41.355469 20.164062 41.742188 20.824219 41.582031 21.460938 C 41.445312 22 40.96875 22.375 40.417969 22.363281 C 40.328125 22.363281 40.238281 22.355469 40.152344 22.328125 C 38.585938 21.957031 35.605469 20.339844 35.605469 16.957031 C 35.605469 12.664062 38.753906 11.542969 40.417969 11.542969 C 41.914062 11.542969 42.960938 11.742188 43.648438 11.957031 C 44.335938 11.242188 45.550781 10.339844 47.335938 10.339844 Z M 46.503906 16.351562 C 46.664062 16.363281 46.839844 16.429688 46.996094 16.503906 C 47.164062 16.589844 51.242188 18.726562 51.242188 22.96875 C 51.242188 26.636719 47.402344 28.113281 45.378906 28.382812 C 45.324219 28.382812 45.28125 28.382812 45.226562 28.382812 C 44.636719 28.382812 44.105469 27.9375 44.027344 27.324219 C 43.945312 26.664062 44.414062 26.0625 45.078125 25.972656 C 45.109375 25.96875 48.835938 25.441406 48.835938 22.96875 C 48.835938 20.179688 45.890625 18.621094 45.863281 18.609375 C 45.273438 18.300781 45.070312 17.585938 45.378906 16.988281 C 45.589844 16.566406 46.039062 16.3125 46.503906 16.351562 Z M 27.070312 20.710938 C 25.179688 24.949219 25.820312 29.945312 28.765625 33.527344 L 23.539062 38.714844 C 23.550781 38.875 23.582031 39.042969 23.582031 39.203125 C 23.582031 40.402344 23.40625 41.550781 23.089844 42.625 L 30.457031 35.21875 C 32.664062 37.015625 35.421875 38 38.273438 38 C 40.296875 38 42.324219 37.484375 44.175781 36.460938 C 41.808594 35.863281 39.472656 34.5 37.484375 32.511719 C 36.230469 31.261719 35.164062 29.855469 34.441406 28.339844 C 32.929688 27.613281 31.523438 26.550781 30.269531 25.296875 C 28.855469 23.882812 27.792969 22.324219 27.070312 20.710938 Z M 14.5625 28.382812 C 14.296875 28.382812 14.03125 28.46875 13.8125 28.644531 C 13.566406 28.835938 7.945312 33.378906 7.945312 39.203125 C 7.945312 44 11.613281 47.785156 13.09375 49.125 L 9.714844 52.511719 L 6.742188 51.230469 L 8.023438 54.238281 L 4.675781 57.582031 C 4.207031 58.0625 4.207031 58.828125 4.675781 59.3125 C 4.914062 59.542969 5.230469 59.648438 5.539062 59.648438 C 5.851562 59.648438 6.164062 59.542969 6.40625 59.3125 L 18.132812 47.511719 L 21.175781 48.824219 L 19.484375 44.878906 C 19.8125 44.3125 20.125 43.710938 20.386719 43.070312 C 20.410156 43.023438 20.441406 42.976562 20.460938 42.921875 C 20.542969 42.703125 20.617188 42.476562 20.6875 42.246094 C 20.78125 41.960938 20.839844 41.679688 20.914062 41.386719 C 21.082031 40.671875 21.171875 39.941406 21.175781 39.203125 C 21.175781 33.378906 15.550781 28.835938 15.3125 28.644531 C 15.097656 28.472656 14.835938 28.382812 14.5625 28.382812 Z M 14.5625 28.382812 "/>
</g>
</svg>
