<svg xmlns="http://www.w3.org/2000/svg" xmlns:xlink="http://www.w3.org/1999/xlink" width="64px" height="64px" viewBox="0 0 64 64" version="1.1">
<defs>
<linearGradient id="linear0" gradientUnits="userSpaceOnUse" x1="0" y1="0" x2="0" y2="1" gradientTransform="matrix(49.423422,0,0,55.351351,7.288288,4.324324)">
<stop offset="0" style="stop-color:#ffae00;stop-opacity:1;"/>
<stop offset="0.5" style="stop-color:#dddddd;stop-opacity:1;"/>
<stop offset="1" style="stop-color:#bf1d1d;stop-opacity:1;"/>
</linearGradient>
</defs>
<g id="surface1">
<path style=" stroke:none;fill-rule:evenodd;fill:url(#linear0);" d="M 34.238281 24.089844 L 21.125 24.089844 L 21.125 33.976562 L 19.152344 33.976562 L 19.152344 14.207031 L 31.011719 14.207031 L 31.011719 12.148438 C 31.011719 7.8125 26.363281 4.324219 20.296875 4.324219 L 18.242188 4.324219 C 12.175781 4.324219 7.289062 7.8125 7.289062 12.148438 L 7.289062 39.910156 L 21.125 39.910156 L 21.125 51.851562 C 21.125 56.1875 26.011719 59.675781 32.082031 59.675781 L 34.136719 59.675781 C 40.203125 59.675781 44.847656 56.1875 44.847656 51.851562 L 44.847656 49.792969 L 32.988281 49.792969 L 32.988281 39.910156 L 35.050781 39.910156 C 39.121094 39.910156 42.457031 35.585938 42.835938 30.023438 L 44.085938 30.023438 C 46.664062 30.023438 48.800781 32.214844 48.800781 34.527344 L 48.800781 37.707031 C 48.800781 40.023438 46.664062 41.882812 44.085938 41.882812 L 34.960938 41.882812 L 34.960938 47.8125 L 48.886719 47.8125 C 53.21875 47.8125 56.710938 43.257812 56.710938 37.1875 L 56.710938 35.050781 C 56.710938 28.976562 53.21875 24.089844 48.886719 24.089844 L 42.625 24.089844 C 41.761719 19.433594 38.707031 16.1875 35.050781 16.1875 L 21.125 16.1875 L 21.125 22.117188 L 30.246094 22.117188 C 31.921875 22.117188 33.417969 22.90625 34.257812 24.089844 Z M 34.902344 30.023438 L 32.988281 30.023438 L 32.988281 33.082031 C 34.023438 32.339844 34.753906 31.21875 34.929688 30.023438 Z M 24.585938 7.289062 C 23.765625 7.289062 23.105469 7.957031 23.105469 8.773438 C 23.105469 9.589844 23.765625 10.253906 24.585938 10.253906 C 25.40625 10.253906 26.070312 9.589844 26.070312 8.773438 C 26.070312 7.957031 25.40625 7.289062 24.585938 7.289062 Z M 38.421875 56.710938 C 37.605469 56.710938 36.941406 56.042969 36.941406 55.226562 C 36.941406 54.410156 37.605469 53.746094 38.421875 53.746094 C 39.242188 53.746094 39.910156 54.410156 39.910156 55.226562 C 39.910156 56.042969 39.242188 56.710938 38.421875 56.710938 Z M 38.421875 56.710938 "/>
</g>
</svg>
