<svg xmlns="http://www.w3.org/2000/svg" xmlns:xlink="http://www.w3.org/1999/xlink" width="64px" height="64px" viewBox="0 0 64 64" version="1.1">
<defs>
<linearGradient id="linear0" gradientUnits="userSpaceOnUse" x1="0" y1="0" x2="0" y2="1" gradientTransform="matrix(55.351351,0,0,54.585584,4.324324,4.707207)">
<stop offset="0" style="stop-color:#ffae00;stop-opacity:1;"/>
<stop offset="0.5" style="stop-color:#dddddd;stop-opacity:1;"/>
<stop offset="1" style="stop-color:#bf1d1d;stop-opacity:1;"/>
</linearGradient>
</defs>
<g id="surface1">
<path style=" stroke:none;fill-rule:evenodd;fill:url(#linear0);" d="M 9.882812 4.707031 L 7.078125 7.523438 L 8.476562 8.910156 L 11.273438 11.707031 L 12.664062 13.113281 L 15.472656 10.308594 L 14.066406 8.910156 L 11.273438 6.117188 Z M 54.117188 4.707031 L 52.726562 6.117188 L 48.542969 10.296875 L 51.335938 13.113281 L 52.726562 11.707031 L 56.910156 7.523438 Z M 32 11.847656 C 38.582031 11.847656 43.863281 17.125 43.863281 23.707031 C 43.863281 28.121094 42.296875 29.914062 40.28125 32.664062 C 38.53125 35.089844 36.796875 38.5 36.324219 43.472656 L 27.675781 43.472656 C 27.203125 38.5 25.46875 35.089844 23.71875 32.664062 C 21.703125 29.914062 20.136719 28.121094 20.136719 23.707031 C 20.136719 17.125 25.417969 11.847656 32 11.847656 Z M 4.324219 23.707031 L 4.324219 27.664062 L 12.234375 27.664062 L 12.234375 23.707031 Z M 51.765625 23.707031 L 51.765625 27.664062 L 59.675781 27.664062 L 59.675781 23.707031 Z M 12.664062 38.257812 L 11.273438 39.660156 L 8.476562 42.457031 L 7.070312 43.847656 L 9.882812 46.644531 L 14.066406 42.457031 L 15.472656 41.066406 Z M 51.335938 38.257812 L 48.542969 41.0625 L 54.117188 46.636719 L 56.910156 43.847656 L 52.726562 39.660156 Z M 28.042969 47.429688 L 35.957031 47.429688 L 35.957031 49.40625 C 35.957031 50.515625 35.089844 51.382812 33.976562 51.382812 L 30.023438 51.382812 C 29.496094 51.390625 28.988281 51.1875 28.617188 50.8125 C 28.246094 50.4375 28.039062 49.933594 28.042969 49.40625 Z M 32 7.890625 C 23.289062 7.890625 16.1875 14.996094 16.1875 23.707031 C 16.1875 29.175781 18.578125 32.324219 20.511719 35.011719 C 22.457031 37.6875 24.089844 39.957031 24.089844 45.457031 L 24.089844 49.40625 C 24.113281 51.914062 25.707031 54.136719 28.078125 54.960938 C 28.058594 55.089844 28.050781 55.210938 28.042969 55.335938 C 28.042969 57.511719 29.824219 59.292969 32 59.292969 C 34.175781 59.292969 35.957031 57.511719 35.957031 55.335938 C 35.957031 55.210938 35.957031 55.089844 35.9375 54.960938 C 38.300781 54.136719 39.890625 51.914062 39.910156 49.40625 L 39.910156 45.457031 C 39.910156 39.957031 41.542969 37.6875 43.488281 35.011719 C 45.421875 32.324219 47.8125 29.171875 47.8125 23.707031 C 47.8125 14.996094 40.710938 7.890625 32 7.890625 Z M 32.949219 16.109375 L 26.039062 27.164062 L 30.1875 27.164062 L 30.1875 35.460938 L 37.09375 24.402344 L 32.949219 24.402344 Z M 32.949219 16.109375 "/>
</g>
</svg>
