<svg xmlns="http://www.w3.org/2000/svg" xmlns:xlink="http://www.w3.org/1999/xlink" width="64px" height="64px" viewBox="0 0 64 64" version="1.1">
<g id="surface1">
<path style=" stroke:none;fill-rule:nonzero;fill:rgb(61.56863%,18.039216%,64.313728%);fill-opacity:1;" d="M 24.8125 8.648438 C 23.914062 8.648438 20.773438 12.238281 20.324219 12.238281 L 18.078125 12.238281 C 17.179688 12.238281 14.039062 15.386719 14.039062 16.285156 L 14.039062 18.976562 C 14.039062 19.425781 10.460938 22.566406 10.441406 23.464844 C 10.425781 24.363281 16.730469 45.46875 17.628906 46.367188 C 18.527344 47.265625 28.40625 55.351562 31.101562 55.351562 L 32.898438 55.351562 C 35.589844 55.351562 45.46875 47.265625 46.367188 46.367188 C 47.265625 45.46875 53.570312 24.363281 53.554688 23.464844 C 53.535156 22.574219 49.960938 19.425781 49.960938 18.976562 L 49.960938 16.285156 C 49.960938 15.386719 46.816406 12.238281 45.917969 12.238281 L 43.675781 12.238281 C 43.226562 12.238281 40.082031 8.648438 39.183594 8.648438 Z M 24.8125 8.648438 "/>
<path style=" stroke:none;fill-rule:nonzero;fill:rgb(100%,100%,100%);fill-opacity:1;" d="M 32 14.921875 C 31.105469 14.921875 30.210938 15.226562 29.304688 15.835938 C 26.613281 17.628906 23.015625 14.9375 22.117188 14.9375 C 21.222656 14.9375 15.835938 21.480469 15.835938 23.914062 C 15.835938 25.710938 22.566406 29.84375 22.566406 31.101562 C 22.566406 32 21.222656 32.429688 21.222656 34.335938 C 21.222656 35.589844 23.015625 37.835938 24.8125 37.835938 C 26.613281 37.835938 31.105469 34.3125 31.101562 33.4375 L 31.101562 32.898438 C 31.101562 31.820312 27.0625 30.460938 27.0625 28.40625 C 27.0625 26.613281 28.40625 25.945312 28.40625 23.914062 C 28.40625 22.167969 24.8125 21.671875 22.117188 21.222656 C 21.222656 21.222656 24.8125 18.265625 29.753906 21.460938 C 31.003906 22.269531 28.40625 25.464844 28.855469 28.40625 C 29.53125 29.039062 30.761719 29.351562 32 29.351562 C 33.234375 29.351562 34.46875 29.039062 35.140625 28.40625 C 35.589844 25.464844 32.992188 22.269531 34.242188 21.460938 C 39.183594 18.265625 42.777344 21.222656 41.878906 21.222656 C 39.183594 21.671875 35.589844 22.167969 35.589844 23.914062 C 35.589844 25.945312 36.9375 26.613281 36.9375 28.40625 C 36.9375 30.460938 32.898438 31.820312 32.898438 32.898438 L 32.898438 33.4375 C 32.890625 34.3125 37.386719 37.835938 39.183594 37.835938 C 40.980469 37.835938 42.777344 35.589844 42.777344 34.335938 C 42.777344 32.433594 41.429688 32 41.429688 31.101562 C 41.429688 29.84375 48.164062 25.710938 48.164062 23.914062 C 48.164062 21.480469 42.777344 14.9375 41.878906 14.9375 C 40.980469 14.9375 37.386719 17.628906 34.691406 15.835938 C 33.785156 15.226562 32.898438 14.921875 32 14.921875 Z M 32 36.3125 C 30.203125 36.3125 26.164062 39.09375 26.164062 39.632812 C 26.164062 40.171875 30.203125 44.574219 32 44.574219 C 33.792969 44.574219 37.835938 40.171875 37.835938 39.632812 C 37.835938 39.09375 33.792969 36.3125 32 36.3125 Z M 32 36.3125 "/>
</g>
</svg>
