<svg xmlns="http://www.w3.org/2000/svg" xmlns:xlink="http://www.w3.org/1999/xlink" width="64px" height="64px" viewBox="0 0 64 64" version="1.1">
<defs>
<linearGradient id="linear0" gradientUnits="userSpaceOnUse" x1="0" y1="0" x2="0" y2="1" gradientTransform="matrix(55.351351,0,0,39.711713,4.324324,12.144144)">
<stop offset="0" style="stop-color:#00fff2;stop-opacity:1;"/>
<stop offset="0.5" style="stop-color:#dddddd;stop-opacity:1;"/>
<stop offset="1" style="stop-color:#0062ff;stop-opacity:1;"/>
</linearGradient>
</defs>
<g id="surface1">
<path style=" stroke:none;fill-rule:evenodd;fill:url(#linear0);" d="M 30.835938 37.511719 L 30.835938 26.488281 C 29.988281 26.351562 29.164062 26.058594 28.417969 25.636719 L 16.933594 39.828125 C 17.847656 40.855469 18.449219 42.121094 18.671875 43.472656 L 24.875 43.472656 C 25.117188 41.988281 25.820312 40.609375 26.890625 39.527344 C 27.972656 38.449219 29.351562 37.746094 30.835938 37.511719 Z M 33.164062 26.488281 L 33.164062 37.511719 C 34.648438 37.746094 36.027344 38.449219 37.109375 39.527344 C 38.179688 40.609375 38.882812 41.988281 39.125 43.472656 L 45.328125 43.472656 C 45.550781 42.121094 46.152344 40.855469 47.066406 39.828125 L 35.582031 25.636719 C 34.835938 26.058594 34.011719 26.351562 33.164062 26.488281 Z M 45.328125 45.796875 L 39.125 45.796875 C 38.882812 47.28125 38.179688 48.664062 37.109375 49.738281 C 35.753906 51.09375 33.914062 51.855469 32 51.855469 C 30.085938 51.855469 28.246094 51.09375 26.890625 49.738281 C 25.820312 48.664062 25.117188 47.28125 24.875 45.796875 L 18.671875 45.796875 C 18.429688 47.28125 17.726562 48.664062 16.648438 49.738281 C 15.292969 51.09375 13.460938 51.855469 11.542969 51.855469 C 9.625 51.855469 7.792969 51.09375 6.4375 49.738281 C 5.085938 48.382812 4.324219 46.550781 4.324219 44.636719 C 4.324219 42.71875 5.085938 40.882812 6.4375 39.527344 C 7.792969 38.175781 9.625 37.414062 11.542969 37.414062 C 12.8125 37.414062 14.039062 37.746094 15.125 38.363281 L 26.613281 24.171875 C 25.4375 22.851562 24.78125 21.144531 24.78125 19.363281 C 24.78125 17.449219 25.539062 15.617188 26.890625 14.261719 C 28.246094 12.90625 30.085938 12.144531 32 12.144531 C 33.914062 12.144531 35.753906 12.90625 37.109375 14.261719 C 38.460938 15.617188 39.21875 17.449219 39.21875 19.363281 C 39.21875 21.144531 38.5625 22.851562 37.386719 24.171875 L 48.875 38.363281 C 49.960938 37.746094 51.1875 37.414062 52.457031 37.414062 C 54.375 37.414062 56.207031 38.175781 57.5625 39.527344 C 58.914062 40.882812 59.675781 42.71875 59.675781 44.636719 C 59.675781 46.550781 58.914062 48.382812 57.5625 49.738281 C 56.207031 51.09375 54.375 51.855469 52.457031 51.855469 C 50.539062 51.855469 48.707031 51.09375 47.351562 49.738281 C 46.273438 48.664062 45.570312 47.28125 45.328125 45.796875 Z M 45.328125 45.796875 "/>
</g>
</svg>
