<svg xmlns="http://www.w3.org/2000/svg" xmlns:xlink="http://www.w3.org/1999/xlink" width="64px" height="64px" viewBox="0 0 64 64" version="1.1">
<defs>
<linearGradient id="linear0" gradientUnits="userSpaceOnUse" x1="0" y1="0" x2="0" y2="1" gradientTransform="matrix(55.351351,0,0,55.27027,4.324324,4.364865)">
<stop offset="0" style="stop-color:#ffae00;stop-opacity:1;"/>
<stop offset="0.5" style="stop-color:#dddddd;stop-opacity:1;"/>
<stop offset="1" style="stop-color:#6600ff;stop-opacity:1;"/>
</linearGradient>
</defs>
<g id="surface1">
<path style=" stroke:none;fill-rule:nonzero;fill:url(#linear0);" d="M 55.6875 4.363281 C 54.6875 4.378906 53.757812 4.773438 53.230469 5.578125 L 44.835938 21.375 C 45.457031 21.585938 46.855469 22.210938 51.5 24.3125 L 51.570312 24.339844 C 52.375 24.707031 52.988281 24.96875 53.230469 25.070312 C 53.3125 25.109375 53.390625 25.171875 53.472656 25.207031 L 59.59375 8.269531 C 59.972656 6.933594 59.011719 5.390625 57.484375 4.78125 C 56.921875 4.503906 56.3125 4.363281 55.6875 4.363281 Z M 8.746094 13.179688 C 6.308594 13.179688 4.324219 15.164062 4.324219 17.605469 C 4.324219 20.042969 6.308594 22.03125 8.746094 22.03125 C 11.1875 22.03125 13.175781 20.042969 13.175781 17.605469 C 13.175781 15.164062 11.1875 13.179688 8.746094 13.179688 Z M 18.703125 16.5 C 17.484375 16.5 16.488281 17.488281 16.488281 18.707031 C 16.488281 19.933594 17.484375 20.921875 18.703125 20.921875 C 19.921875 20.921875 20.914062 19.933594 20.914062 18.707031 C 20.914062 17.488281 19.921875 16.5 18.703125 16.5 Z M 39.886719 22.714844 C 37.746094 22.882812 35.886719 23.941406 34.566406 25.792969 C 35.402344 27.203125 36.863281 28.914062 38.921875 28.875 C 39.460938 28.863281 39.929688 29.238281 40.027344 29.769531 C 40.445312 30.421875 43.023438 31.582031 43.757812 31.292969 C 44.066406 31.171875 44.410156 31.199219 44.691406 31.363281 C 44.984375 31.527344 45.1875 31.792969 45.246094 32.121094 C 45.292969 32.300781 45.769531 32.9375 46.769531 33.394531 C 47.550781 33.761719 48.3125 33.855469 48.738281 33.636719 C 49.003906 33.511719 49.320312 33.496094 49.605469 33.609375 C 49.886719 33.714844 50.136719 33.945312 50.261719 34.230469 C 51.003906 36.050781 54.417969 36.1875 56.757812 35.988281 C 57.097656 34.511719 57 32.960938 56.476562 31.53125 C 55.746094 29.558594 54.300781 27.996094 52.335938 27.109375 C 52.121094 27.015625 51.449219 26.699219 50.605469 26.3125 C 46.664062 24.539062 44.441406 23.566406 44 23.445312 C 42.558594 22.875 41.171875 22.625 39.886719 22.714844 Z M 17.042969 24.238281 C 13.6875 24.242188 10.96875 26.96875 10.960938 30.324219 C 10.960938 33.675781 13.691406 36.40625 17.042969 36.40625 C 20.394531 36.40625 23.125 33.675781 23.125 30.324219 C 23.125 26.96875 20.394531 24.238281 17.042969 24.238281 Z M 33.390625 28.011719 C 33.050781 28.800781 32.671875 29.570312 32.246094 30.324219 C 32.726562 31.484375 34.132812 34.164062 36.707031 33.570312 C 37.003906 33.5 37.3125 33.542969 37.570312 33.710938 C 37.828125 33.878906 37.972656 34.136719 38.023438 34.4375 C 38.09375 34.851562 38.585938 35.339844 39.269531 35.714844 C 40.234375 36.238281 41.285156 36.355469 41.71875 36.164062 C 42.003906 36.03125 42.335938 36.03125 42.621094 36.164062 C 42.90625 36.300781 43.117188 36.554688 43.207031 36.855469 C 43.363281 37.382812 43.90625 37.921875 44.660156 38.308594 C 45.542969 38.757812 46.558594 38.917969 47.214844 38.6875 C 47.726562 38.511719 48.285156 38.730469 48.53125 39.207031 C 49.503906 41.011719 52.710938 41.207031 55.199219 41.039062 C 55.511719 40.136719 55.808594 39.210938 56.097656 38.238281 C 55.800781 38.257812 55.488281 38.269531 55.164062 38.269531 C 52.851562 38.269531 50.082031 37.8125 48.703125 35.921875 C 47.769531 36.050781 46.691406 35.839844 45.625 35.300781 C 44.847656 34.902344 43.996094 34.292969 43.484375 33.539062 C 42.070312 33.539062 40.457031 32.753906 39.648438 32.261719 C 39.015625 31.875 38.53125 31.496094 38.230469 31.082031 C 36.039062 30.878906 34.46875 29.449219 33.390625 28.011719 Z M 30.867188 32.5 C 24.011719 42.027344 12.308594 41.746094 12.171875 41.730469 C 11.730469 41.691406 11.308594 41.921875 11.097656 42.320312 C 10.886719 42.703125 10.929688 43.179688 11.203125 43.527344 C 13.066406 45.824219 15.164062 47.917969 17.457031 49.785156 C 18.476562 49.988281 24.894531 50.890625 31.246094 43.527344 C 31.441406 43.308594 31.710938 43.175781 32.003906 43.152344 C 32.296875 43.132812 32.585938 43.234375 32.800781 43.421875 C 33.265625 43.820312 33.308594 44.515625 32.90625 44.984375 C 28.472656 50.117188 23.800781 51.71875 20.539062 52.0625 C 23.0625 53.761719 25.761719 55.199219 28.585938 56.351562 C 30.21875 56.011719 35.699219 54.375 40.542969 46.984375 C 40.882812 46.472656 41.589844 46.300781 42.105469 46.636719 C 42.609375 46.976562 42.746094 47.679688 42.414062 48.191406 C 38.757812 53.761719 34.757812 56.375 31.9375 57.59375 C 37.6875 59.460938 41.984375 59.621094 42.339844 59.636719 L 42.378906 59.636719 C 42.585938 59.636719 42.789062 59.570312 42.96875 59.460938 C 43.273438 59.265625 49.675781 55.085938 54.375 43.320312 C 54.1875 43.324219 54 43.355469 53.820312 43.355469 C 51.394531 43.355469 48.605469 42.863281 47.078125 40.96875 C 46.011719 41.097656 44.78125 40.851562 43.660156 40.28125 C 42.742188 39.808594 42.011719 39.179688 41.550781 38.449219 C 40.375 38.542969 39.105469 38.121094 38.230469 37.652344 C 37.328125 37.164062 36.632812 36.550781 36.226562 35.855469 C 33.679688 35.988281 31.914062 34.257812 30.867188 32.5 Z M 30.867188 32.5 "/>
</g>
</svg>
