<svg xmlns="http://www.w3.org/2000/svg" xmlns:xlink="http://www.w3.org/1999/xlink" width="64px" height="64px" viewBox="0 0 64 64" version="1.1">
<g id="surface1">
<path style=" stroke:none;fill-rule:nonzero;fill:rgb(12.941177%,58.823532%,95.294118%);fill-opacity:1;" d="M 16.429688 9.511719 L 47.566406 9.511719 C 51.386719 9.511719 54.488281 12.609375 54.488281 16.429688 L 54.488281 47.566406 C 54.488281 51.386719 51.386719 54.484375 47.566406 54.484375 L 16.429688 54.484375 C 12.609375 54.484375 9.511719 51.386719 9.511719 47.566406 L 9.511719 16.429688 C 9.511719 12.609375 12.609375 9.511719 16.429688 9.511719 Z M 16.429688 9.511719 "/>
<path style=" stroke:none;fill-rule:nonzero;fill:rgb(100%,100%,100%);fill-opacity:1;" d="M 19.3125 24.738281 L 25.402344 24.738281 C 26.175781 24.738281 26.804688 25.363281 26.804688 26.140625 L 26.804688 29.898438 C 26.804688 30.675781 26.175781 31.304688 25.402344 31.304688 L 19.3125 31.304688 C 18.539062 31.304688 17.914062 30.675781 17.914062 29.898438 L 17.914062 26.140625 C 17.914062 25.363281 18.539062 24.738281 19.3125 24.738281 Z M 19.3125 24.738281 "/>
<path style=" stroke:none;fill-rule:nonzero;fill:rgb(100%,100%,100%);fill-opacity:1;" d="M 29.503906 24.738281 L 35.589844 24.738281 C 36.363281 24.738281 36.992188 25.363281 36.992188 26.140625 L 36.992188 29.898438 C 36.992188 30.675781 36.363281 31.304688 35.589844 31.304688 L 29.503906 31.304688 C 28.730469 31.304688 28.101562 30.675781 28.101562 29.898438 L 28.101562 26.140625 C 28.101562 25.363281 28.730469 24.738281 29.503906 24.738281 Z M 29.503906 24.738281 "/>
<path style=" stroke:none;fill-rule:nonzero;fill:rgb(100%,100%,100%);fill-opacity:1;" d="M 19.199219 32.695312 L 25.285156 32.695312 C 26.0625 32.695312 26.6875 33.324219 26.6875 34.097656 L 26.6875 37.859375 C 26.6875 38.636719 26.0625 39.261719 25.285156 39.261719 L 19.199219 39.261719 C 18.421875 39.261719 17.792969 38.636719 17.792969 37.859375 L 17.792969 34.097656 C 17.792969 33.324219 18.421875 32.695312 19.199219 32.695312 Z M 19.199219 32.695312 "/>
<path style=" stroke:none;fill-rule:nonzero;fill:rgb(100%,100%,100%);fill-opacity:1;" d="M 29.386719 32.695312 L 35.472656 32.695312 C 36.25 32.695312 36.878906 33.324219 36.878906 34.097656 L 36.878906 37.859375 C 36.878906 38.636719 36.25 39.261719 35.472656 39.261719 L 29.386719 39.261719 C 28.613281 39.261719 27.984375 38.636719 27.984375 37.859375 L 27.984375 34.097656 C 27.984375 33.324219 28.613281 32.695312 29.386719 32.695312 Z M 29.386719 32.695312 "/>
<path style=" stroke:none;fill-rule:nonzero;fill:rgb(100%,100%,100%);fill-opacity:1;" d="M 32.355469 18.164062 C 28.9375 18.175781 25.636719 19.457031 23.105469 21.757812 L 27.585938 21.757812 C 29.078125 21.050781 30.707031 20.683594 32.359375 20.675781 C 38.613281 20.667969 43.6875 25.734375 43.691406 31.988281 L 43.691406 32 C 43.691406 38.253906 38.625 43.324219 32.371094 43.324219 C 30.710938 43.320312 29.070312 42.953125 27.570312 42.242188 L 23.085938 42.242188 C 25.632812 44.550781 28.9375 45.832031 32.371094 45.835938 C 40.011719 45.835938 46.207031 39.640625 46.207031 32 L 46.207031 31.984375 C 46.195312 24.34375 39.996094 18.15625 32.355469 18.164062 Z M 32.355469 18.164062 "/>
</g>
</svg>
