<svg xmlns="http://www.w3.org/2000/svg" xmlns:xlink="http://www.w3.org/1999/xlink" width="64px" height="64px" viewBox="0 0 64 64" version="1.1">
<defs>
<linearGradient id="linear0" gradientUnits="userSpaceOnUse" x1="0" y1="0" x2="0" y2="1" gradientTransform="matrix(55.351351,0,0,55.351351,4.324324,4.324324)">
<stop offset="0" style="stop-color:#ffae00;stop-opacity:1;"/>
<stop offset="0.5" style="stop-color:#dddddd;stop-opacity:1;"/>
<stop offset="1" style="stop-color:#bf1d1d;stop-opacity:1;"/>
</linearGradient>
</defs>
<g id="surface1">
<path style=" stroke:none;fill-rule:nonzero;fill:url(#linear0);" d="M 16.210938 4.324219 C 15.121094 4.324219 14.238281 5.207031 14.238281 6.300781 C 14.238281 7.390625 15.121094 8.273438 16.210938 8.273438 L 16.210938 8.3125 C 18.671875 8.570312 20.863281 10.214844 22.054688 12.703125 C 19.742188 15.042969 18.003906 18.152344 17.039062 21.675781 C 17.066406 21.6875 17.09375 21.703125 17.121094 21.714844 C 12.300781 23.8125 8.433594 27.632812 6.265625 32.429688 C 1.53125 42.863281 5.753906 54.957031 15.664062 59.5 C 16.652344 59.949219 17.820312 59.503906 18.265625 58.511719 L 21.78125 50.765625 C 24.632812 53.957031 28.257812 55.707031 32 55.707031 C 35.730469 55.691406 39.335938 53.941406 42.1875 50.765625 L 45.734375 58.511719 C 46.164062 59.5 47.351562 59.9375 48.335938 59.460938 C 58.246094 54.957031 62.46875 42.863281 57.734375 32.386719 C 55.558594 27.609375 51.691406 23.800781 46.878906 21.714844 C 46.890625 21.703125 46.90625 21.6875 46.917969 21.675781 C 45.957031 18.152344 44.21875 15.042969 41.90625 12.703125 C 43.109375 10.203125 45.3125 8.558594 47.789062 8.3125 L 47.789062 8.273438 C 48.878906 8.273438 49.761719 7.390625 49.761719 6.300781 C 49.761719 5.207031 48.878906 4.324219 47.789062 4.324219 C 47.558594 4.324219 47.328125 4.363281 47.117188 4.441406 C 43.6875 4.878906 40.625 7.003906 38.789062 10.210938 C 36.664062 8.941406 34.351562 8.285156 32 8.273438 C 29.648438 8.292969 27.328125 8.96875 25.210938 10.253906 C 23.382812 7.027344 20.320312 4.890625 16.882812 4.441406 C 16.671875 4.363281 16.441406 4.324219 16.210938 4.324219 Z M 22.328125 24.324219 C 24.378906 25.085938 26.539062 25.609375 28.765625 25.863281 L 19.171875 47.011719 L 15.582031 54.878906 C 8.949219 50.6875 6.347656 41.835938 9.863281 34.050781 C 11.558594 30.273438 14.578125 27.253906 18.339844 25.550781 C 18.664062 25.390625 19.011719 25.273438 19.367188 25.152344 C 20.238281 24.8125 21.136719 24.550781 22.054688 24.363281 Z M 41.671875 24.324219 L 41.863281 24.363281 C 42.933594 24.5625 44 24.878906 45.023438 25.273438 C 45.21875 25.351562 45.378906 25.433594 45.578125 25.511719 C 49.382812 27.207031 52.429688 30.242188 54.136719 34.042969 C 57.652344 41.835938 55.050781 50.6875 48.417969 54.878906 L 44.828125 46.972656 L 35.234375 25.863281 C 37.460938 25.609375 39.621094 25.085938 41.671875 24.324219 Z M 41.671875 24.324219 "/>
</g>
</svg>
