<svg xmlns="http://www.w3.org/2000/svg" xmlns:xlink="http://www.w3.org/1999/xlink" width="64px" height="64px" viewBox="0 0 64 64" version="1.1">
<defs>
<linearGradient id="linear0" gradientUnits="userSpaceOnUse" x1="0" y1="0" x2="0" y2="1" gradientTransform="matrix(51.891892,0,0,55.351351,6.054054,4.324324)">
<stop offset="0" style="stop-color:#00b7ff;stop-opacity:1;"/>
<stop offset="0.5" style="stop-color:#dddddd;stop-opacity:1;"/>
<stop offset="1" style="stop-color:#ee42d9;stop-opacity:1;"/>
</linearGradient>
</defs>
<g id="surface1">
<path style=" stroke:none;fill-rule:evenodd;fill:url(#linear0);" d="M 37.1875 4.324219 C 33.511719 4.324219 30.558594 7.164062 30.3125 10.773438 L 27.203125 13.890625 L 22.542969 18.550781 C 21.691406 18.324219 20.8125 18.164062 19.890625 18.164062 C 14.144531 18.164062 9.511719 22.792969 9.511719 28.539062 C 9.511719 31.617188 10.863281 34.335938 12.972656 36.238281 L 12.972656 49.296875 L 26.8125 49.296875 L 26.8125 36.238281 C 28.921875 34.335938 30.269531 31.617188 30.269531 28.539062 C 30.269531 27.617188 30.109375 26.738281 29.882812 25.882812 L 32.621094 23.148438 L 37.652344 18.117188 C 38.105469 18.085938 38.53125 18.011719 38.949219 17.902344 L 41.625 20.578125 L 41.664062 20.609375 L 42.164062 21.109375 L 41.152344 22.117188 C 40.828125 22.441406 40.648438 22.878906 40.648438 23.335938 L 40.648438 30.257812 C 40.648438 31.210938 41.421875 31.988281 42.378906 31.988281 L 49.296875 32 C 51.636719 32.039062 51.636719 28.511719 49.296875 28.539062 L 44.109375 28.539062 L 44.109375 24.0625 L 50.011719 18.148438 L 54.488281 18.148438 L 54.488281 23.335938 C 54.457031 25.679688 57.976562 25.679688 57.945312 23.335938 L 57.945312 16.417969 C 57.945312 15.460938 57.171875 14.6875 56.214844 14.6875 L 49.296875 14.6875 C 48.835938 14.6875 48.394531 14.875 48.070312 15.199219 L 47.054688 16.214844 L 46.554688 15.714844 L 46.515625 15.6875 L 43.851562 13.011719 C 44 12.445312 44.109375 11.863281 44.109375 11.242188 C 44.109375 7.410156 41.023438 4.324219 37.1875 4.324219 Z M 37.1875 7.785156 C 39.105469 7.785156 40.648438 9.328125 40.648438 11.242188 C 40.648438 13.160156 39.105469 14.703125 37.1875 14.703125 C 35.269531 14.703125 33.730469 13.160156 33.730469 11.242188 C 33.730469 9.328125 35.269531 7.785156 37.1875 7.785156 Z M 19.890625 21.621094 C 23.726562 21.621094 26.8125 24.707031 26.8125 28.539062 C 26.8125 29.8125 26.449219 30.976562 25.855469 32 C 25.269531 33.011719 24.429688 33.855469 23.433594 34.460938 C 23.382812 34.488281 23.328125 34.515625 23.273438 34.550781 C 22.867188 34.78125 22.429688 34.960938 21.972656 35.109375 C 21.835938 35.148438 21.707031 35.191406 21.566406 35.230469 C 21.03125 35.363281 20.472656 35.460938 19.890625 35.460938 C 19.3125 35.460938 18.753906 35.363281 18.214844 35.230469 C 18.078125 35.191406 17.945312 35.148438 17.8125 35.109375 C 17.355469 34.960938 16.914062 34.78125 16.503906 34.542969 C 16.457031 34.515625 16.402344 34.488281 16.351562 34.460938 C 15.351562 33.855469 14.511719 33.011719 13.921875 32 C 13.335938 30.976562 12.972656 29.8125 12.972656 28.539062 C 12.972656 24.707031 16.058594 21.621094 19.890625 21.621094 Z M 19.890625 25.082031 C 17.972656 25.082031 16.433594 26.625 16.433594 28.539062 C 16.433594 30.457031 17.972656 32 19.890625 32 C 21.808594 32 23.351562 30.457031 23.351562 28.539062 C 23.351562 26.625 21.808594 25.082031 19.890625 25.082031 Z M 9.511719 52.757812 C 9.511719 52.757812 6.054688 52.757812 6.054688 56.214844 L 6.054688 59.675781 L 33.730469 59.675781 L 33.730469 56.214844 C 33.730469 56.214844 33.730469 52.757812 30.269531 52.757812 Z M 9.511719 52.757812 "/>
</g>
</svg>
