<svg xmlns="http://www.w3.org/2000/svg" xmlns:xlink="http://www.w3.org/1999/xlink" width="64px" height="64px" viewBox="0 0 64 64" version="1.1">
<defs>
<linearGradient id="linear0" gradientUnits="userSpaceOnUse" x1="0" y1="0" x2="0" y2="1" gradientTransform="matrix(47.441443,0,0,55.351351,8.279279,4.324324)">
<stop offset="0" style="stop-color:#05f7ff;stop-opacity:1;"/>
<stop offset="0.5" style="stop-color:#dddddd;stop-opacity:1;"/>
<stop offset="1" style="stop-color:#e6ff05;stop-opacity:1;"/>
</linearGradient>
</defs>
<g id="surface1">
<path style=" stroke:none;fill-rule:evenodd;fill:url(#linear0);" d="M 35.957031 20.789062 C 35.957031 26.609375 31.085938 26.058594 25.082031 26.058594 C 19.078125 26.058594 14.207031 26.609375 14.207031 20.789062 C 14.207031 14.972656 19.078125 10.253906 25.082031 10.253906 C 31.085938 10.253906 35.957031 14.972656 35.957031 20.789062 Z M 26.484375 59.675781 L 40.320312 59.675781 C 48.820312 59.675781 55.71875 52.773438 55.71875 44.273438 L 55.71875 41.472656 C 55.71875 33.5 49.648438 26.933594 41.882812 26.148438 L 41.882812 19.726562 C 41.882812 11.226562 34.984375 4.324219 26.484375 4.324219 L 23.679688 4.324219 C 15.179688 4.324219 8.28125 11.226562 8.28125 19.726562 L 8.28125 44.273438 C 8.28125 52.773438 15.179688 59.675781 23.679688 59.675781 Z M 22.117188 45.835938 C 22.117188 47.472656 23.445312 48.800781 25.082031 48.800781 C 26.714844 48.800781 28.042969 47.472656 28.042969 45.835938 L 28.042969 41.539062 C 28.664062 40.835938 29.039062 39.921875 29.039062 38.917969 C 29.039062 36.734375 27.265625 34.960938 25.082031 34.960938 C 22.894531 34.960938 21.125 36.734375 21.125 38.917969 C 21.125 39.921875 21.5 40.835938 22.117188 41.539062 Z M 22.117188 45.835938 "/>
</g>
</svg>
