<svg xmlns="http://www.w3.org/2000/svg" xmlns:xlink="http://www.w3.org/1999/xlink" width="64px" height="64px" viewBox="0 0 64 64" version="1.1">
<defs>
<linearGradient id="linear0" gradientUnits="userSpaceOnUse" x1="0" y1="0" x2="0" y2="1" gradientTransform="matrix(50.603605,0,0,55.351351,6.698198,4.324324)">
<stop offset="0" style="stop-color:#00fff2;stop-opacity:1;"/>
<stop offset="0.5" style="stop-color:#dddddd;stop-opacity:1;"/>
<stop offset="1" style="stop-color:#0062ff;stop-opacity:1;"/>
</linearGradient>
</defs>
<g id="surface1">
<path style=" stroke:none;fill-rule:evenodd;fill:url(#linear0);" d="M 12.910156 9.066406 L 12.910156 14.011719 L 20.929688 14.011719 L 20.929688 18.558594 L 12.910156 18.558594 L 12.910156 29.625 L 6.699219 29.625 L 6.699219 4.324219 L 22.511719 4.324219 L 22.511719 9.066406 Z M 36.867188 7.738281 C 36.839844 7.863281 36.792969 8.082031 36.71875 8.394531 C 36.660156 8.707031 36.570312 9.0625 36.472656 9.460938 C 36.375 9.863281 36.261719 10.300781 36.136719 10.773438 C 36.023438 11.238281 35.90625 11.699219 35.78125 12.144531 L 33.4375 20.136719 L 40.296875 20.136719 L 37.957031 12.144531 C 37.835938 11.699219 37.703125 11.238281 37.582031 10.773438 C 37.46875 10.300781 37.363281 9.863281 37.261719 9.460938 C 37.164062 9.0625 37.078125 8.707031 37 8.394531 Z M 20.117188 46.828125 C 20.117188 45.363281 19.976562 44.117188 19.707031 43.09375 C 19.429688 42.058594 19.011719 41.210938 18.449219 40.5625 C 17.902344 39.894531 17.203125 39.417969 16.351562 39.117188 C 15.503906 38.808594 14.511719 38.648438 13.363281 38.648438 L 13.132812 38.648438 L 13.132812 55.402344 L 14.125 55.402344 C 16.148438 55.402344 17.648438 54.6875 18.636719 53.261719 C 19.621094 51.824219 20.117188 49.675781 20.117188 46.828125 Z M 47.8125 55.941406 C 47.355469 56.328125 46.820312 56.746094 46.203125 57.179688 C 45.597656 57.617188 44.917969 58.027344 44.160156 58.402344 C 43.410156 58.765625 42.59375 59.070312 41.710938 59.3125 C 40.835938 59.554688 39.890625 59.675781 38.886719 59.675781 C 37.1875 59.675781 35.703125 59.363281 34.433594 58.730469 C 33.175781 58.085938 32.132812 57.199219 31.300781 56.070312 C 30.46875 54.941406 29.847656 53.597656 29.433594 52.050781 C 29.039062 50.484375 28.835938 48.769531 28.835938 46.914062 C 28.835938 44.886719 29.039062 43.097656 29.433594 41.542969 C 29.835938 39.976562 30.441406 38.671875 31.261719 37.613281 C 32.097656 36.542969 33.148438 35.734375 34.414062 35.1875 C 35.679688 34.648438 37.191406 34.375 38.941406 34.375 C 40.148438 34.375 41.207031 34.539062 42.113281 34.863281 C 43.027344 35.1875 43.8125 35.664062 44.484375 36.265625 C 45.160156 36.863281 45.726562 37.578125 46.1875 38.414062 C 46.644531 39.253906 47.015625 40.179688 47.308594 41.199219 L 42.347656 42.179688 C 42.015625 40.96875 41.570312 40.070312 41.003906 39.488281 C 40.4375 38.890625 39.769531 38.597656 38.996094 38.597656 C 38.125 38.597656 37.390625 38.78125 36.789062 39.136719 C 36.1875 39.488281 35.691406 40.023438 35.320312 40.726562 C 34.945312 41.414062 34.675781 42.285156 34.503906 43.328125 C 34.335938 44.363281 34.253906 45.554688 34.253906 46.914062 C 34.253906 49.621094 34.660156 51.707031 35.46875 53.175781 C 36.269531 54.644531 37.503906 55.378906 39.160156 55.378906 C 39.617188 55.378906 40.042969 55.328125 40.445312 55.234375 C 40.855469 55.121094 41.214844 55 41.53125 54.867188 C 41.855469 54.726562 42.136719 54.582031 42.363281 54.433594 C 42.609375 54.273438 42.792969 54.136719 42.921875 54.03125 L 42.921875 50.1875 L 38.328125 50.1875 L 38.328125 45.578125 L 47.8125 45.578125 Z M 48.382812 29.625 L 42.867188 29.625 L 41.460938 24.882812 L 32.273438 24.882812 L 30.863281 29.625 L 25.335938 29.625 L 33.644531 4.324219 L 40.09375 4.324219 Z M 25.671875 46.828125 C 25.671875 48.929688 25.421875 50.78125 24.921875 52.378906 C 24.429688 53.984375 23.703125 55.324219 22.757812 56.414062 C 21.808594 57.488281 20.636719 58.296875 19.257812 58.847656 C 17.882812 59.402344 16.320312 59.675781 14.578125 59.675781 L 6.699219 59.675781 L 6.699219 34.375 L 13.457031 34.375 C 15.429688 34.375 17.171875 34.617188 18.691406 35.105469 C 20.210938 35.589844 21.496094 36.339844 22.53125 37.355469 C 23.566406 38.367188 24.339844 39.664062 24.867188 41.238281 C 25.40625 42.800781 25.671875 44.664062 25.671875 46.828125 Z M 50.976562 34.367188 L 57.300781 34.367188 L 57.300781 59.675781 L 50.976562 59.675781 Z M 50.976562 34.367188 "/>
</g>
</svg>
