<svg xmlns="http://www.w3.org/2000/svg" xmlns:xlink="http://www.w3.org/1999/xlink" width="64px" height="64px" viewBox="0 0 64 64" version="1.1">
<defs>
<linearGradient id="linear0" gradientUnits="userSpaceOnUse" x1="0" y1="0" x2="0" y2="1" gradientTransform="matrix(55.351351,0,0,55.351351,4.324324,4.324324)">
<stop offset="0" style="stop-color:#00a2ff;stop-opacity:1;"/>
<stop offset="0.5" style="stop-color:#dddddd;stop-opacity:1;"/>
<stop offset="1" style="stop-color:#00ffae;stop-opacity:1;"/>
</linearGradient>
</defs>
<g id="surface1">
<path style=" stroke:none;fill-rule:nonzero;fill:url(#linear0);" d="M 26.867188 4.324219 C 14.457031 4.324219 4.324219 14.863281 4.324219 27.742188 C 4.324219 40.625 14.457031 51.164062 26.867188 51.164062 C 32.105469 51.164062 36.921875 49.28125 40.757812 46.148438 L 52.632812 58.484375 C 53.402344 59.28125 54.488281 59.675781 55.570312 59.675781 L 59.675781 59.675781 L 59.675781 55.417969 C 59.675781 54.289062 59.292969 53.160156 58.523438 52.363281 L 46.265625 39.621094 C 48.261719 36.132812 49.421875 32.078125 49.421875 27.742188 C 49.421875 25.414062 49.015625 23.214844 48.394531 21.085938 L 31.230469 38.917969 L 26.867188 43.445312 L 22.515625 38.917969 L 10.214844 26.148438 L 18.933594 17.09375 L 26.867188 25.347656 L 41.609375 10.050781 C 37.644531 6.488281 32.488281 4.324219 26.867188 4.324219 Z M 26.867188 4.324219 "/>
</g>
</svg>
