<svg xmlns="http://www.w3.org/2000/svg" xmlns:xlink="http://www.w3.org/1999/xlink" width="64px" height="64px" viewBox="0 0 64 64" version="1.1">
<defs>
<linearGradient id="linear0" gradientUnits="userSpaceOnUse" x1="0" y1="0" x2="0" y2="1" gradientTransform="matrix(55.351351,0,0,49.819821,4.324324,7.09009)">
<stop offset="0" style="stop-color:#ffae00;stop-opacity:1;"/>
<stop offset="0.5" style="stop-color:#dddddd;stop-opacity:1;"/>
<stop offset="1" style="stop-color:#bf1d1d;stop-opacity:1;"/>
</linearGradient>
</defs>
<g id="surface1">
<path style=" stroke:none;fill-rule:nonzero;fill:url(#linear0);" d="M 32 7.089844 C 29.21875 7.136719 26.175781 7.796875 25.070312 9.011719 C 23.902344 10.308594 23.648438 12.121094 23.976562 14.136719 C 24.605469 17.972656 28.636719 22.679688 31.734375 26.910156 C 31.710938 26.9375 31.691406 26.972656 31.671875 26.996094 C 30.109375 28.96875 27.523438 31.234375 26 32.761719 C 26.246094 31.644531 26.429688 30.429688 26.46875 29.652344 C 26.503906 28.988281 26.484375 28.472656 26.28125 28.054688 C 26.175781 27.839844 25.996094 27.636719 25.742188 27.554688 C 25.488281 27.472656 25.230469 27.53125 25.011719 27.636719 C 24.558594 27.847656 24.136719 28.28125 23.589844 28.960938 C 23.050781 29.648438 22.417969 30.792969 21.664062 32.054688 C 20.917969 33.3125 20.386719 34.320312 20.042969 35.125 C 19.867188 35.539062 19.734375 35.894531 19.660156 36.210938 C 19.578125 36.503906 19.539062 36.769531 19.554688 37.011719 C 19.984375 37.59375 20.675781 37.511719 21.242188 37.542969 C 21.484375 37.539062 21.734375 37.5 22.015625 37.328125 C 22.679688 36.921875 23.488281 36.285156 24.355469 35.539062 C 23.734375 37.597656 23.882812 38.210938 22.894531 40.527344 C 22.882812 40.5625 22.863281 40.59375 22.851562 40.625 C 17.652344 39.910156 12.234375 40.363281 8.566406 41.636719 C 6.644531 42.3125 5.164062 43.800781 4.585938 45.457031 C 4.011719 47.097656 4.363281 50.027344 5.8125 52.625 C 7.265625 55.226562 8.863281 56.417969 10.5625 56.789062 C 12.269531 57.160156 13.972656 56.671875 15.550781 55.382812 C 18.558594 52.921875 21.273438 46.382812 23.382812 41.578125 C 23.417969 41.582031 23.449219 41.582031 23.488281 41.589844 C 25.96875 41.960938 28.355469 44.027344 30.4375 44.582031 C 29.347656 44.929688 28.378906 45.285156 27.6875 45.636719 C 27.09375 45.9375 26.664062 46.214844 26.402344 46.605469 C 26.265625 46.796875 26.179688 47.054688 26.238281 47.3125 C 26.292969 47.570312 26.460938 47.765625 26.671875 47.90625 C 27.078125 48.1875 27.664062 48.351562 28.523438 48.484375 C 29.386719 48.605469 30.527344 48.679688 31.988281 48.703125 C 31.988281 48.703125 31.996094 48.703125 32 48.703125 C 32.003906 48.703125 32.011719 48.703125 32.011719 48.703125 C 33.472656 48.679688 34.613281 48.605469 35.476562 48.484375 C 36.335938 48.351562 36.921875 48.1875 37.328125 47.90625 C 37.539062 47.765625 37.707031 47.570312 37.761719 47.3125 C 37.820312 47.054688 37.734375 46.796875 37.597656 46.605469 C 37.335938 46.214844 36.90625 45.9375 36.3125 45.636719 C 35.621094 45.285156 34.652344 44.929688 33.5625 44.582031 C 35.644531 44.027344 38.03125 41.960938 40.511719 41.589844 C 40.550781 41.582031 40.582031 41.582031 40.617188 41.578125 C 42.726562 46.382812 45.441406 52.921875 48.449219 55.382812 C 50.027344 56.671875 51.730469 57.160156 53.4375 56.789062 C 55.136719 56.417969 56.734375 55.226562 58.1875 52.625 C 59.636719 50.027344 59.988281 47.097656 59.414062 45.457031 C 58.835938 43.800781 57.355469 42.3125 55.433594 41.636719 C 51.765625 40.363281 46.347656 39.910156 41.148438 40.625 C 41.136719 40.59375 41.117188 40.5625 41.105469 40.527344 C 40.117188 38.210938 40.261719 37.597656 39.644531 35.539062 C 40.511719 36.285156 41.320312 36.921875 41.984375 37.328125 C 42.261719 37.5 42.511719 37.539062 42.757812 37.542969 C 43.320312 37.511719 44.015625 37.59375 44.441406 37.011719 C 44.460938 36.769531 44.417969 36.503906 44.339844 36.210938 C 44.261719 35.894531 44.132812 35.539062 43.949219 35.125 C 43.609375 34.320312 43.082031 33.3125 42.328125 32.054688 C 41.582031 30.792969 40.949219 29.648438 40.40625 28.960938 C 39.863281 28.28125 39.4375 27.847656 38.988281 27.636719 C 38.765625 27.53125 38.511719 27.472656 38.257812 27.554688 C 38.003906 27.636719 37.824219 27.839844 37.71875 28.054688 C 37.515625 28.472656 37.496094 28.988281 37.53125 29.652344 C 37.570312 30.429688 37.746094 31.644531 37.996094 32.761719 C 36.472656 31.234375 33.890625 28.96875 32.328125 26.996094 C 32.308594 26.972656 32.289062 26.9375 32.265625 26.910156 C 35.363281 22.679688 39.394531 17.972656 40.023438 14.136719 C 40.351562 12.121094 40.097656 10.308594 38.929688 9.011719 C 37.824219 7.796875 34.78125 7.136719 32 7.089844 Z M 32 7.089844 "/>
</g>
</svg>
