<svg xmlns="http://www.w3.org/2000/svg" xmlns:xlink="http://www.w3.org/1999/xlink" width="64px" height="64px" viewBox="0 0 64 64" version="1.1">
<defs>
<linearGradient id="linear0" gradientUnits="userSpaceOnUse" x1="0" y1="0" x2="0" y2="1" gradientTransform="matrix(51.639639,0,0,55.351351,6.18018,4.324324)">
<stop offset="0" style="stop-color:#ffae00;stop-opacity:1;"/>
<stop offset="0.5" style="stop-color:#dddddd;stop-opacity:1;"/>
<stop offset="1" style="stop-color:#6600ff;stop-opacity:1;"/>
</linearGradient>
</defs>
<g id="surface1">
<path style=" stroke:none;fill-rule:nonzero;fill:url(#linear0);" d="M 24.609375 4.324219 L 20.917969 5.246094 L 20.917969 8.011719 L 24.609375 8.011719 Z M 24.609375 8.011719 L 24.609375 11.703125 L 20.917969 11.703125 L 20.917969 8.011719 C 16.273438 8.066406 12.878906 7.90625 10.097656 9.4375 C 8.710938 10.199219 7.609375 11.5 7 13.117188 C 6.394531 14.734375 6.179688 16.664062 6.179688 19.085938 L 6.179688 48.605469 C 6.179688 51.03125 6.394531 52.957031 7.003906 54.570312 C 7.609375 56.191406 8.710938 57.484375 10.105469 58.246094 C 12.878906 59.785156 16.273438 59.621094 20.917969 59.675781 L 32.003906 59.675781 L 32.003906 55.988281 L 20.917969 55.988281 C 16.269531 55.933594 13.214844 55.765625 11.863281 55.015625 C 11.191406 54.648438 10.796875 54.234375 10.4375 53.28125 C 10.078125 52.320312 9.847656 50.789062 9.847656 48.605469 L 9.847656 30.152344 C 9.847656 27.96875 10.082031 26.441406 10.4375 25.484375 C 10.800781 24.523438 11.191406 24.113281 11.863281 23.742188 C 13.21875 22.988281 16.273438 22.828125 20.941406 22.773438 L 43.058594 22.773438 C 47.707031 22.828125 50.761719 22.996094 52.113281 23.742188 C 52.789062 24.113281 53.179688 24.523438 53.539062 25.484375 C 53.902344 26.441406 54.132812 30.152344 54.132812 30.152344 L 54.132812 37.539062 L 54.152344 37.539062 L 54.152344 48.605469 C 54.152344 50.789062 53.921875 52.320312 53.5625 53.28125 C 53.199219 54.234375 52.808594 54.644531 52.136719 55.015625 C 50.785156 55.765625 47.730469 55.933594 43.082031 55.988281 L 32.011719 55.988281 L 32.011719 59.675781 L 43.082031 59.675781 C 47.726562 59.621094 51.121094 59.785156 53.894531 58.246094 C 55.289062 57.484375 56.390625 56.191406 56.996094 54.570312 C 57.605469 52.957031 57.820312 51.03125 57.820312 48.605469 L 57.820312 19.085938 C 57.820312 16.660156 57.597656 14.734375 56.988281 13.117188 C 56.433594 11.5625 55.335938 10.257812 53.902344 9.4375 C 51.121094 7.902344 47.726562 8.066406 43.082031 8.011719 L 43.082031 11.703125 L 39.390625 11.703125 L 39.390625 8.011719 L 43.058594 8.011719 L 43.058594 4.324219 L 39.367188 5.246094 L 39.367188 8.011719 Z M 24.609375 8.011719 "/>
</g>
</svg>
