<svg xmlns="http://www.w3.org/2000/svg" xmlns:xlink="http://www.w3.org/1999/xlink" width="64px" height="64px" viewBox="0 0 64 64" version="1.1">
<defs>
<linearGradient id="linear0" gradientUnits="userSpaceOnUse" x1="0" y1="0" x2="0" y2="1" gradientTransform="matrix(48.432432,0,0,55.351351,7.783784,4.324324)">
<stop offset="0" style="stop-color:#00a2ff;stop-opacity:1;"/>
<stop offset="0.5" style="stop-color:#dddddd;stop-opacity:1;"/>
<stop offset="1" style="stop-color:#00ffae;stop-opacity:1;"/>
</linearGradient>
</defs>
<g id="surface1">
<path style=" stroke:none;fill-rule:nonzero;fill:url(#linear0);" d="M 32 59.675781 C 18.636719 59.675781 7.785156 56.09375 7.785156 51.742188 L 7.785156 43.8125 C 7.785156 43.132812 8.132812 42.445312 8.652344 41.851562 C 11.339844 45.261719 20.714844 47.820312 32 47.820312 C 43.285156 47.820312 52.660156 45.261719 55.347656 41.851562 C 55.867188 42.445312 56.214844 43.132812 56.214844 43.8125 L 56.214844 51.742188 C 56.214844 56.09375 45.363281 59.675781 32 59.675781 Z M 32 43.8125 C 18.636719 43.8125 7.785156 40.230469 7.785156 35.878906 L 7.785156 27.949219 C 7.785156 27.523438 7.960938 27.09375 8.132812 26.757812 L 8.652344 25.988281 C 11.339844 29.402344 20.714844 31.960938 32 31.960938 C 43.285156 31.960938 52.660156 29.402344 55.347656 25.988281 L 55.867188 26.757812 C 56.039062 27.179688 56.214844 27.609375 56.214844 27.949219 L 56.214844 35.878906 C 56.214844 40.3125 45.363281 43.8125 32 43.8125 Z M 32 28.039062 C 18.636719 28.039062 7.785156 24.449219 7.785156 20.105469 L 7.785156 12.257812 C 7.785156 7.90625 18.636719 4.324219 32 4.324219 C 45.363281 4.324219 56.214844 7.90625 56.214844 12.257812 L 56.214844 20.105469 C 56.214844 24.449219 45.363281 28.039062 32 28.039062 Z M 32 8.164062 C 23.058594 8.164062 15.855469 9.957031 15.855469 12.085938 C 15.855469 14.214844 23.058594 16.011719 32 16.011719 C 40.941406 16.011719 48.144531 14.214844 48.144531 12.085938 C 48.144531 9.957031 40.941406 8.164062 32 8.164062 Z M 32 8.164062 "/>
</g>
</svg>
