<svg xmlns="http://www.w3.org/2000/svg" xmlns:xlink="http://www.w3.org/1999/xlink" width="64px" height="64px" viewBox="0 0 64 64" version="1.1">
<defs>
<linearGradient id="linear0" gradientUnits="userSpaceOnUse" x1="0" y1="0" x2="0" y2="1" gradientTransform="matrix(55.351351,0,0,44.972973,4.324324,9.513514)">
<stop offset="0" style="stop-color:#ffae00;stop-opacity:1;"/>
<stop offset="0.5" style="stop-color:#dddddd;stop-opacity:1;"/>
<stop offset="1" style="stop-color:#bf1d1d;stop-opacity:1;"/>
</linearGradient>
</defs>
<g id="surface1">
<path style=" stroke:none;fill-rule:nonzero;fill:url(#linear0);" d="M 14.703125 9.511719 L 14.703125 12.972656 L 18.136719 12.972656 C 13.789062 13.023438 10.605469 12.863281 8 14.308594 C 6.699219 15.023438 5.671875 16.238281 5.105469 17.757812 C 4.53125 19.273438 4.324219 21.078125 4.324219 23.351562 L 4.324219 44.109375 C 4.324219 46.382812 4.53125 48.1875 5.105469 49.703125 C 5.671875 51.21875 6.699219 52.4375 8 53.152344 C 10.605469 54.589844 13.789062 54.4375 18.136719 54.488281 L 45.863281 54.488281 C 50.210938 54.4375 53.394531 54.59375 56 53.152344 C 57.300781 52.4375 58.328125 51.21875 58.902344 49.703125 C 59.46875 48.1875 59.675781 46.382812 59.675781 44.109375 L 59.675781 23.351562 C 59.675781 21.078125 59.46875 19.273438 58.894531 17.757812 C 58.328125 16.238281 57.300781 15.023438 56 14.308594 C 53.394531 12.867188 50.210938 13.023438 45.863281 12.972656 L 21.621094 12.972656 L 21.621094 9.511719 Z M 18.164062 16.433594 L 45.835938 16.433594 C 50.191406 16.484375 53.058594 16.636719 54.324219 17.335938 C 54.960938 17.6875 55.324219 18.070312 55.664062 18.972656 C 56 19.875 56.214844 21.300781 56.214844 23.351562 L 56.214844 44.109375 C 56.214844 46.160156 56 47.585938 55.664062 48.488281 C 55.324219 49.386719 54.960938 49.769531 54.324219 50.121094 C 53.058594 50.820312 50.191406 50.976562 45.835938 51.027344 L 18.164062 51.027344 C 13.808594 50.976562 10.9375 50.820312 9.664062 50.121094 C 9.039062 49.769531 8.675781 49.386719 8.335938 48.488281 C 8 47.585938 7.785156 46.160156 7.785156 44.109375 L 7.785156 23.351562 C 7.785156 21.300781 8 19.875 8.335938 18.972656 C 8.675781 18.070312 9.039062 17.6875 9.664062 17.335938 C 10.9375 16.636719 13.808594 16.484375 18.164062 16.433594 Z M 32 19.890625 C 24.355469 19.890625 18.164062 26.085938 18.164062 33.730469 C 18.164062 41.375 24.355469 47.566406 32 47.566406 C 39.644531 47.566406 45.835938 41.375 45.835938 33.730469 C 45.835938 26.085938 39.644531 19.890625 32 19.890625 Z M 51.027344 19.890625 C 50.070312 19.890625 49.296875 20.664062 49.296875 21.621094 C 49.296875 22.578125 50.070312 23.351562 51.027344 23.351562 C 51.984375 23.351562 52.757812 22.578125 52.757812 21.621094 C 52.757812 20.664062 51.984375 19.890625 51.027344 19.890625 Z M 32 23.351562 C 37.730469 23.351562 42.378906 28 42.378906 33.730469 C 42.378906 39.460938 37.730469 44.109375 32 44.109375 C 26.269531 44.109375 21.621094 39.460938 21.621094 33.730469 C 21.621094 28 26.269531 23.351562 32 23.351562 Z M 31.707031 26.824219 C 28.011719 26.984375 25.085938 30.023438 25.082031 33.730469 C 25.082031 37.550781 28.179688 40.648438 32 40.648438 C 35.820312 40.648438 38.917969 37.550781 38.917969 33.730469 C 38.914062 30.042969 36.023438 27.011719 32.347656 26.835938 C 34.113281 27.011719 35.460938 28.496094 35.460938 30.269531 C 35.460938 32.179688 33.910156 33.730469 32 33.730469 C 30.089844 33.730469 28.539062 32.179688 28.539062 30.269531 C 28.539062 28.472656 29.917969 26.976562 31.710938 26.824219 Z M 31.707031 26.824219 "/>
</g>
</svg>
