<svg xmlns="http://www.w3.org/2000/svg" xmlns:xlink="http://www.w3.org/1999/xlink" width="64px" height="64px" viewBox="0 0 64 64" version="1.1">
<defs>
<linearGradient id="linear0" gradientUnits="userSpaceOnUse" x1="0" y1="0" x2="0" y2="1" gradientTransform="matrix(51.891892,0,0,27.166666,6.054054,14.837839)">
<stop offset="0" style="stop-color:#00b7ff;stop-opacity:1;"/>
<stop offset="0.5" style="stop-color:#dddddd;stop-opacity:1;"/>
<stop offset="1" style="stop-color:#ee42d9;stop-opacity:1;"/>
</linearGradient>
<linearGradient id="linear1" gradientUnits="userSpaceOnUse" x1="0" y1="0" x2="0" y2="1" gradientTransform="matrix(51.891892,0,0,3.990992,6.054054,42.77928)">
<stop offset="0" style="stop-color:#00b7ff;stop-opacity:1;"/>
<stop offset="0.5" style="stop-color:#dddddd;stop-opacity:1;"/>
<stop offset="1" style="stop-color:#ee42d9;stop-opacity:1;"/>
</linearGradient>
<linearGradient id="linear2" gradientUnits="userSpaceOnUse" x1="0" y1="0" x2="0" y2="1" gradientTransform="matrix(11.977477,0,0,3.990992,26.013514,48.765767)">
<stop offset="0" style="stop-color:#00b7ff;stop-opacity:1;"/>
<stop offset="0.5" style="stop-color:#dddddd;stop-opacity:1;"/>
<stop offset="1" style="stop-color:#ee42d9;stop-opacity:1;"/>
</linearGradient>
</defs>
<g id="surface1">
<path style=" stroke:none;fill-rule:nonzero;fill:url(#linear0);" d="M 24.664062 14.835938 L 17.96875 31.570312 L 13.363281 20.824219 L 6.054688 20.824219 L 6.054688 24.8125 L 10.726562 24.8125 L 18.09375 42.003906 L 27.363281 18.828125 L 53.957031 18.828125 L 53.957031 20.824219 L 57.945312 20.824219 L 57.945312 14.835938 Z M 24.664062 14.835938 "/>
<path style=" stroke:none;fill-rule:nonzero;fill:url(#linear1);" d="M 6.054688 42.78125 L 6.054688 46.769531 L 57.945312 46.769531 L 57.945312 42.78125 Z M 6.054688 42.78125 "/>
<path style=" stroke:none;fill-rule:nonzero;fill:url(#linear2);" d="M 26.011719 48.765625 L 26.011719 52.757812 L 37.988281 52.757812 L 37.988281 48.765625 Z M 26.011719 48.765625 "/>
</g>
</svg>
