<svg xmlns="http://www.w3.org/2000/svg" xmlns:xlink="http://www.w3.org/1999/xlink" width="64px" height="64px" viewBox="0 0 64 64" version="1.1">
<defs>
<linearGradient id="linear0" gradientUnits="userSpaceOnUse" x1="0" y1="0" x2="0" y2="1" gradientTransform="matrix(55.324324,0,0,41.513514,4.337838,7.783784)">
<stop offset="0" style="stop-color:#ffae00;stop-opacity:1;"/>
<stop offset="0.5" style="stop-color:#dddddd;stop-opacity:1;"/>
<stop offset="1" style="stop-color:#bf1d1d;stop-opacity:1;"/>
</linearGradient>
<linearGradient id="linear1" gradientUnits="userSpaceOnUse" x1="0" y1="0" x2="0" y2="1" gradientTransform="matrix(24.216216,0,0,10.378378,16.445946,45.837838)">
<stop offset="0" style="stop-color:#ffae00;stop-opacity:1;"/>
<stop offset="0.5" style="stop-color:#dddddd;stop-opacity:1;"/>
<stop offset="1" style="stop-color:#bf1d1d;stop-opacity:1;"/>
</linearGradient>
<linearGradient id="linear2" gradientUnits="userSpaceOnUse" x1="0" y1="0" x2="0" y2="1" gradientTransform="matrix(35.360361,0,0,16.207206,15.400901,20.545044)">
<stop offset="0" style="stop-color:#ffae00;stop-opacity:1;"/>
<stop offset="0.5" style="stop-color:#dddddd;stop-opacity:1;"/>
<stop offset="1" style="stop-color:#bf1d1d;stop-opacity:1;"/>
</linearGradient>
</defs>
<g id="surface1">
<path style=" stroke:none;fill-rule:nonzero;fill:url(#linear0);" d="M 18.152344 7.785156 C 13.800781 7.835938 10.621094 7.679688 8.011719 9.117188 C 6.671875 9.882812 5.636719 11.109375 5.117188 12.566406 C 4.542969 14.085938 4.335938 15.886719 4.335938 18.164062 L 4.335938 38.917969 C 4.335938 41.191406 4.542969 42.996094 5.117188 44.511719 C 5.6875 46.03125 6.710938 47.246094 8.011719 47.960938 C 10.621094 49.40625 13.800781 49.242188 18.152344 49.296875 L 45.847656 49.296875 C 50.199219 49.242188 53.386719 49.402344 55.988281 47.960938 C 57.335938 47.199219 58.363281 45.972656 58.886719 44.511719 C 59.457031 42.996094 59.664062 41.191406 59.664062 38.917969 L 59.664062 18.164062 C 59.664062 15.886719 59.457031 14.085938 58.886719 12.566406 C 58.363281 11.109375 57.335938 9.882812 55.988281 9.117188 C 53.382812 7.675781 50.199219 7.835938 45.847656 7.785156 Z M 18.1875 11.242188 L 45.863281 11.242188 C 50.21875 11.296875 53.089844 11.449219 54.355469 12.148438 C 54.988281 12.496094 55.355469 12.882812 55.6875 13.785156 C 56.027344 14.679688 56.242188 16.113281 56.242188 18.164062 L 56.242188 38.917969 C 56.242188 40.96875 56.027344 42.402344 55.6875 43.296875 C 55.351562 44.199219 54.988281 44.582031 54.351562 44.933594 C 53.085938 45.632812 50.21875 45.785156 45.863281 45.835938 L 18.175781 45.835938 C 13.824219 45.785156 10.949219 45.632812 9.6875 44.933594 C 9.050781 44.585938 8.6875 44.199219 8.351562 43.296875 C 8.011719 42.402344 7.796875 40.96875 7.796875 38.917969 L 7.796875 18.164062 C 7.796875 16.113281 8.011719 14.679688 8.351562 13.785156 C 8.6875 12.882812 9.050781 12.5 9.6875 12.148438 C 10.949219 11.449219 13.824219 11.296875 18.175781 11.242188 Z M 18.1875 11.242188 "/>
<path style=" stroke:none;fill-rule:nonzero;fill:url(#linear1);" d="M 28.554688 56.214844 L 40.664062 47.566406 L 38.933594 45.835938 L 18.175781 45.835938 L 16.445312 47.566406 Z M 28.554688 56.214844 "/>
<path style=" stroke:none;fill-rule:nonzero;fill:url(#linear2);" d="M 15.402344 36.753906 L 30.136719 20.542969 L 37.5 27.910156 L 50.761719 20.542969 L 36.027344 36.753906 L 28.664062 29.382812 Z M 15.402344 36.753906 "/>
</g>
</svg>
