<svg xmlns="http://www.w3.org/2000/svg" xmlns:xlink="http://www.w3.org/1999/xlink" width="64px" height="64px" viewBox="0 0 64 64" version="1.1">
<defs>
<linearGradient id="linear0" gradientUnits="userSpaceOnUse" x1="0" y1="0" x2="0" y2="1" gradientTransform="matrix(15.045044,0,0,25.252253,34.549551,34.423422)">
<stop offset="0" style="stop-color:#00fff2;stop-opacity:1;"/>
<stop offset="0.5" style="stop-color:#dddddd;stop-opacity:1;"/>
<stop offset="1" style="stop-color:#0062ff;stop-opacity:1;"/>
</linearGradient>
<linearGradient id="linear1" gradientUnits="userSpaceOnUse" x1="0" y1="0" x2="0" y2="1" gradientTransform="matrix(5.027027,0,0,25.135135,34.513514,34.486486)">
<stop offset="0" style="stop-color:#00fff2;stop-opacity:1;"/>
<stop offset="0.5" style="stop-color:#dddddd;stop-opacity:1;"/>
<stop offset="1" style="stop-color:#0062ff;stop-opacity:1;"/>
</linearGradient>
<linearGradient id="linear2" gradientUnits="userSpaceOnUse" x1="0" y1="0" x2="0" y2="1" gradientTransform="matrix(35.193693,0,0,55.175676,14.400901,4.324324)">
<stop offset="0" style="stop-color:#00fff2;stop-opacity:1;"/>
<stop offset="0.5" style="stop-color:#dddddd;stop-opacity:1;"/>
<stop offset="1" style="stop-color:#0062ff;stop-opacity:1;"/>
</linearGradient>
</defs>
<g id="surface1">
<path style=" stroke:none;fill-rule:nonzero;fill:url(#linear0);" d="M 37.40625 39.503906 C 36.746094 39.589844 36.070312 39.417969 35.542969 39.011719 C 35.015625 38.613281 34.664062 38.015625 34.578125 37.355469 C 34.488281 36.703125 34.664062 36.023438 35.066406 35.496094 C 35.46875 34.96875 36.0625 34.617188 36.726562 34.527344 C 37.214844 34.457031 37.71875 34.421875 38.226562 34.421875 C 39.238281 34.421875 40.269531 34.554688 41.265625 34.792969 C 42.636719 35.105469 43.914062 35.691406 45.058594 36.511719 C 46.46875 37.539062 47.585938 38.910156 48.3125 40.511719 C 48.730469 41.429688 49.042969 42.40625 49.242188 43.402344 C 49.46875 44.558594 49.59375 45.726562 49.59375 46.890625 L 49.59375 47.082031 C 49.609375 48.292969 49.484375 49.496094 49.242188 50.6875 C 49.042969 51.71875 48.703125 52.726562 48.238281 53.664062 C 47.460938 55.289062 46.265625 56.671875 44.785156 57.675781 C 43.589844 58.46875 42.265625 59.039062 40.875 59.351562 C 39.894531 59.5625 38.902344 59.675781 37.894531 59.675781 C 37.53125 59.675781 37.164062 59.664062 36.800781 59.621094 C 36.136719 59.550781 35.53125 59.21875 35.117188 58.707031 C 34.691406 58.191406 34.5 57.527344 34.5625 56.863281 C 34.636719 56.191406 34.96875 55.589844 35.484375 55.175781 C 36 54.746094 36.664062 54.550781 37.328125 54.625 C 37.503906 54.636719 37.679688 54.648438 37.855469 54.648438 C 38.511719 54.648438 39.148438 54.570312 39.78125 54.433594 C 40.558594 54.269531 41.300781 53.957031 41.96875 53.515625 C 42.71875 53.003906 43.324219 52.296875 43.710938 51.484375 C 43.988281 50.902344 44.1875 50.300781 44.320312 49.6875 C 44.488281 48.839844 44.582031 47.976562 44.566406 47.121094 C 44.566406 47.121094 44.566406 47.109375 44.566406 47.109375 L 44.566406 46.917969 C 44.566406 46.0625 44.484375 45.207031 44.320312 44.382812 C 44.1875 43.765625 44.003906 43.164062 43.738281 42.59375 C 43.375 41.808594 42.8125 41.097656 42.117188 40.582031 C 41.503906 40.160156 40.824219 39.839844 40.105469 39.679688 C 39.476562 39.527344 38.835938 39.457031 38.1875 39.457031 C 37.917969 39.457031 37.671875 39.460938 37.40625 39.503906 Z M 37.40625 39.503906 "/>
<path style=" stroke:none;fill-rule:nonzero;fill:url(#linear1);" d="M 34.511719 37.003906 C 34.511719 36.335938 34.78125 35.691406 35.257812 35.214844 C 35.71875 34.753906 36.363281 34.488281 37.027344 34.488281 C 37.691406 34.488281 38.335938 34.753906 38.800781 35.214844 C 39.28125 35.691406 39.539062 36.335938 39.539062 37.003906 L 39.539062 57.113281 C 39.539062 57.773438 39.28125 58.40625 38.800781 58.882812 C 38.335938 59.351562 37.691406 59.621094 37.027344 59.621094 C 36.363281 59.621094 35.71875 59.351562 35.257812 58.882812 C 34.78125 58.40625 34.511719 57.773438 34.511719 57.113281 Z M 34.511719 37.003906 "/>
<path style=" stroke:none;fill-rule:evenodd;fill:url(#linear2);" d="M 24.625 49.445312 L 21.355469 49.445312 C 20.6875 49.445312 20.050781 49.179688 19.585938 48.714844 C 19.109375 48.238281 18.839844 47.597656 18.839844 46.933594 C 18.839844 46.265625 19.109375 45.621094 19.585938 45.160156 C 20.050781 44.679688 20.6875 44.417969 21.355469 44.417969 L 24.625 44.417969 L 24.625 41.527344 C 24.625 41.503906 24.625 41.476562 24.625 41.449219 C 24.636719 41.039062 24.550781 40.636719 24.375 40.257812 C 24.296875 40.117188 24.179688 40.003906 24.042969 39.917969 C 23.703125 39.714844 23.300781 39.617188 22.902344 39.644531 C 22.902344 39.644531 22.886719 39.644531 22.878906 39.644531 C 22.824219 39.644531 22.761719 39.644531 22.703125 39.644531 L 17.082031 39.644531 C 16.414062 39.644531 15.773438 39.378906 15.3125 38.910156 C 14.835938 38.433594 14.566406 37.792969 14.566406 37.125 C 14.566406 36.460938 14.835938 35.824219 15.3125 35.355469 C 15.773438 34.878906 16.414062 34.617188 17.082031 34.617188 L 22.625 34.617188 C 22.726562 34.617188 22.8125 34.617188 22.914062 34.617188 C 24.234375 34.589844 25.539062 34.957031 26.671875 35.632812 C 27.589844 36.199219 28.328125 36.988281 28.835938 37.945312 C 29.394531 39.0625 29.675781 40.3125 29.652344 41.566406 L 29.652344 52.5625 C 29.6875 53.839844 29.375 55.125 28.757812 56.269531 C 28.21875 57.210938 27.4375 58.003906 26.496094 58.542969 C 25.378906 59.1875 24.109375 59.511719 22.8125 59.5 C 22.761719 59.5 22.703125 59.5 22.648438 59.5 L 17.082031 59.5 C 16.414062 59.5 15.773438 59.234375 15.3125 58.769531 C 14.835938 58.292969 14.566406 57.652344 14.566406 56.988281 C 14.566406 56.320312 14.835938 55.679688 15.3125 55.210938 C 15.773438 54.734375 16.414062 54.472656 17.082031 54.472656 L 22.851562 54.472656 C 23.253906 54.488281 23.644531 54.386719 23.996094 54.179688 C 24.148438 54.09375 24.269531 53.972656 24.375 53.820312 C 24.550781 53.460938 24.636719 53.0625 24.625 52.664062 C 24.625 52.636719 24.625 52.613281 24.625 52.585938 Z M 44.707031 9.679688 C 44.59375 9.625 44.488281 9.59375 44.367188 9.582031 C 43.613281 9.414062 42.835938 9.339844 42.066406 9.351562 C 41.730469 9.351562 41.386719 9.386719 41.050781 9.460938 C 40.894531 9.503906 40.761719 9.566406 40.621094 9.636719 C 40.375 9.835938 40.179688 10.070312 40.082031 10.355469 C 39.835938 11.027344 39.679688 11.730469 39.644531 12.441406 C 39.554688 13.511719 39.527344 14.566406 39.539062 15.621094 C 39.539062 15.636719 39.539062 15.648438 39.539062 15.664062 L 39.539062 18.136719 C 39.539062 18.152344 39.539062 18.152344 39.539062 18.164062 C 39.527344 19.230469 39.554688 20.289062 39.644531 21.339844 C 39.679688 22.058594 39.835938 22.761719 40.082031 23.441406 C 40.179688 23.714844 40.375 23.96875 40.621094 24.148438 C 40.761719 24.234375 40.894531 24.285156 41.050781 24.320312 C 41.375 24.410156 41.714844 24.445312 42.058594 24.433594 C 42.863281 24.460938 43.652344 24.386719 44.441406 24.234375 C 44.558594 24.21875 44.679688 24.179688 44.796875 24.148438 C 45.039062 23.632812 45.421875 23.214844 45.929688 22.949219 C 46.429688 22.703125 47.011719 22.613281 47.558594 22.726562 C 48.113281 22.824219 48.617188 23.125 48.976562 23.554688 C 49.355469 23.96875 49.570312 24.511719 49.59375 25.070312 L 49.59375 25.113281 C 49.59375 25.175781 49.59375 25.238281 49.59375 25.300781 C 49.585938 25.855469 49.421875 26.382812 49.144531 26.863281 C 48.78125 27.488281 48.253906 28.003906 47.621094 28.355469 C 46.917969 28.769531 46.136719 29.042969 45.324219 29.1875 C 44.242188 29.382812 43.148438 29.488281 42.042969 29.460938 C 41.300781 29.472656 40.570312 29.382812 39.839844 29.210938 C 39.136719 29.039062 38.449219 28.734375 37.835938 28.328125 C 36.714844 27.5625 35.847656 26.472656 35.367188 25.203125 C 34.957031 24.070312 34.703125 22.886719 34.632812 21.679688 C 34.539062 20.5 34.5 19.308594 34.511719 18.113281 L 34.511719 15.675781 C 34.5 14.488281 34.539062 13.296875 34.632812 12.105469 C 34.703125 10.910156 34.957031 9.714844 35.367188 8.585938 C 35.847656 7.3125 36.714844 6.226562 37.835938 5.457031 C 38.449219 5.054688 39.136719 4.765625 39.839844 4.589844 C 40.558594 4.414062 41.300781 4.324219 42.042969 4.324219 C 43.175781 4.3125 44.292969 4.414062 45.394531 4.652344 C 46.238281 4.828125 47.042969 5.152344 47.761719 5.632812 C 48.390625 6.03125 48.878906 6.597656 49.214844 7.265625 C 49.457031 7.730469 49.585938 8.234375 49.59375 8.761719 C 49.59375 8.8125 49.59375 8.863281 49.59375 8.910156 L 49.59375 8.949219 C 49.570312 9.539062 49.347656 10.09375 48.957031 10.539062 C 48.5625 10.972656 48.023438 11.253906 47.445312 11.339844 C 46.867188 11.429688 46.28125 11.300781 45.773438 10.996094 C 45.273438 10.699219 44.894531 10.234375 44.707031 9.679688 Z M 19.433594 15.664062 L 19.433594 18.136719 C 19.433594 18.152344 19.433594 18.152344 19.433594 18.164062 C 19.421875 19.230469 19.445312 20.289062 19.53125 21.339844 C 19.570312 22.058594 19.71875 22.761719 19.972656 23.441406 C 20.078125 23.714844 20.261719 23.96875 20.511719 24.148438 C 20.652344 24.234375 20.792969 24.285156 20.941406 24.320312 C 21.269531 24.410156 21.609375 24.445312 21.945312 24.433594 C 22.746094 24.460938 23.539062 24.386719 24.335938 24.234375 C 24.445312 24.21875 24.570312 24.179688 24.6875 24.148438 C 24.921875 23.632812 25.3125 23.214844 25.820312 22.949219 C 26.320312 22.703125 26.894531 22.613281 27.449219 22.726562 C 28.003906 22.824219 28.503906 23.125 28.875 23.554688 C 29.246094 23.96875 29.460938 24.511719 29.488281 25.070312 L 29.488281 25.113281 C 29.488281 25.175781 29.488281 25.238281 29.488281 25.300781 C 29.472656 25.855469 29.3125 26.382812 29.039062 26.863281 C 28.664062 27.488281 28.144531 28.003906 27.511719 28.355469 C 26.8125 28.769531 26.03125 29.042969 25.210938 29.1875 C 24.136719 29.382812 23.039062 29.488281 21.933594 29.460938 C 21.191406 29.472656 20.460938 29.382812 19.734375 29.210938 C 19.03125 29.039062 18.335938 28.734375 17.71875 28.328125 C 16.605469 27.5625 15.738281 26.472656 15.261719 25.203125 C 14.839844 24.070312 14.59375 22.886719 14.515625 21.679688 C 14.429688 20.5 14.390625 19.308594 14.40625 18.113281 L 14.40625 15.675781 C 14.390625 14.488281 14.429688 13.296875 14.515625 12.105469 C 14.59375 10.910156 14.839844 9.714844 15.261719 8.585938 C 15.738281 7.3125 16.605469 6.226562 17.71875 5.457031 C 18.335938 5.054688 19.03125 4.765625 19.734375 4.589844 C 20.460938 4.414062 21.191406 4.324219 21.933594 4.324219 C 23.0625 4.3125 24.179688 4.414062 25.289062 4.652344 C 26.132812 4.828125 26.9375 5.152344 27.652344 5.632812 C 28.28125 6.03125 28.769531 6.597656 29.113281 7.265625 C 29.351562 7.730469 29.472656 8.234375 29.488281 8.761719 C 29.488281 8.8125 29.488281 8.863281 29.488281 8.910156 L 29.488281 8.949219 C 29.460938 9.539062 29.234375 10.09375 28.847656 10.539062 C 28.460938 10.972656 27.914062 11.253906 27.335938 11.339844 C 26.757812 11.429688 26.171875 11.300781 25.664062 10.996094 C 25.164062 10.699219 24.789062 10.234375 24.59375 9.679688 C 24.488281 9.625 24.386719 9.59375 24.269531 9.582031 C 23.503906 9.414062 22.726562 9.339844 21.957031 9.351562 C 21.617188 9.351562 21.28125 9.386719 20.941406 9.460938 C 20.792969 9.503906 20.652344 9.566406 20.511719 9.636719 C 20.261719 9.835938 20.078125 10.070312 19.972656 10.355469 C 19.71875 11.027344 19.570312 11.730469 19.53125 12.441406 C 19.445312 13.511719 19.421875 14.566406 19.433594 15.621094 C 19.433594 15.636719 19.433594 15.648438 19.433594 15.664062 Z M 19.433594 15.664062 "/>
</g>
</svg>
