<svg xmlns="http://www.w3.org/2000/svg" xmlns:xlink="http://www.w3.org/1999/xlink" width="64px" height="64px" viewBox="0 0 64 64" version="1.1">
<defs>
<linearGradient id="linear0" gradientUnits="userSpaceOnUse" x1="0" y1="0" x2="0" y2="1" gradientTransform="matrix(55.351351,0,0,55.252253,4.324324,4.373874)">
<stop offset="0" style="stop-color:#ffae00;stop-opacity:1;"/>
<stop offset="0.5" style="stop-color:#dddddd;stop-opacity:1;"/>
<stop offset="1" style="stop-color:#6600ff;stop-opacity:1;"/>
</linearGradient>
</defs>
<g id="surface1">
<path style=" stroke:none;fill-rule:evenodd;fill:url(#linear0);" d="M 4.324219 5.5625 L 4.324219 33.863281 C 4.324219 34.976562 5.078125 35.382812 6.003906 34.765625 L 26.902344 20.835938 C 27.828125 20.214844 27.828125 19.210938 26.902344 18.589844 L 6.003906 4.664062 C 5.078125 4.042969 4.324219 4.449219 4.324219 5.5625 Z M 17.050781 34.71875 L 17.050781 58.4375 C 17.050781 59.550781 17.808594 59.957031 18.734375 59.335938 L 36.1875 47.699219 C 37.121094 47.082031 37.121094 46.078125 36.1875 45.460938 L 18.734375 33.820312 C 17.808594 33.199219 17.050781 33.605469 17.050781 34.71875 Z M 44.792969 24.125 L 44.792969 41.238281 C 44.792969 42.355469 45.542969 42.757812 46.472656 42.144531 L 58.984375 33.808594 C 59.90625 33.1875 59.90625 32.1875 58.984375 31.5625 L 46.472656 23.226562 C 45.542969 22.609375 44.792969 23.011719 44.792969 24.125 Z M 44.792969 24.125 "/>
</g>
</svg>
