<svg xmlns="http://www.w3.org/2000/svg" xmlns:xlink="http://www.w3.org/1999/xlink" width="64px" height="64px" viewBox="0 0 64 64" version="1.1">
<defs>
<linearGradient id="linear0" gradientUnits="userSpaceOnUse" x1="0" y1="0" x2="0" y2="1" gradientTransform="matrix(55.351351,0,0,55.351351,4.324324,4.324324)">
<stop offset="0" style="stop-color:#ff8963;stop-opacity:1;"/>
<stop offset="0.5" style="stop-color:#dddddd;stop-opacity:1;"/>
<stop offset="1" style="stop-color:#0F6FFF;stop-opacity:1;"/>
</linearGradient>
</defs>
<g id="surface1">
<path style=" stroke:none;fill-rule:nonzero;fill:url(#linear0);" d="M 32 4.324219 C 16.714844 4.324219 4.324219 16.714844 4.324219 32 C 4.324219 47.285156 16.714844 59.675781 32 59.675781 C 47.285156 59.675781 59.675781 47.285156 59.675781 32 C 59.675781 16.714844 47.285156 4.324219 32 4.324219 Z M 31.675781 7.785156 C 31.785156 7.785156 31.890625 7.785156 32 7.785156 C 45.375 7.785156 56.214844 18.625 56.214844 32 C 56.214844 45.375 45.375 56.214844 32 56.214844 C 18.625 56.214844 7.785156 45.375 7.785156 32 C 7.785156 18.753906 18.429688 7.960938 31.675781 7.785156 Z M 32 21.621094 C 26.269531 21.621094 21.621094 26.269531 21.621094 32 C 21.621094 37.730469 26.269531 42.378906 32 42.378906 C 37.730469 42.378906 42.378906 37.730469 42.378906 32 C 42.378906 26.269531 37.730469 21.621094 32 21.621094 Z M 32 26.8125 C 34.863281 26.8125 37.1875 29.136719 37.1875 32 C 37.1875 34.863281 34.863281 37.1875 32 37.1875 C 29.136719 37.1875 26.8125 34.863281 26.8125 32 C 26.8125 29.136719 29.136719 26.8125 32 26.8125 Z M 32 26.8125 "/>
</g>
</svg>
