<svg xmlns="http://www.w3.org/2000/svg" xmlns:xlink="http://www.w3.org/1999/xlink" width="64px" height="64px" viewBox="0 0 64 64" version="1.1">
<defs>
<linearGradient id="linear0" gradientUnits="userSpaceOnUse" x1="0" y1="0" x2="0" y2="1" gradientTransform="matrix(55.351351,0,0,55.351351,4.324324,4.324324)">
<stop offset="0" style="stop-color:#00b7ff;stop-opacity:1;"/>
<stop offset="0.5" style="stop-color:#dddddd;stop-opacity:1;"/>
<stop offset="1" style="stop-color:#ee42d9;stop-opacity:1;"/>
</linearGradient>
</defs>
<g id="surface1">
<path style=" stroke:none;fill-rule:evenodd;fill:url(#linear0);" d="M 7.46875 4.324219 L 26.339844 4.324219 C 28.070312 4.324219 29.488281 5.734375 29.488281 7.46875 L 29.488281 16.273438 C 29.488281 18.011719 28.070312 19.421875 26.339844 19.421875 L 7.46875 19.421875 C 5.734375 19.421875 4.324219 18.011719 4.324219 16.273438 L 4.324219 7.46875 C 4.324219 5.734375 5.734375 4.324219 7.46875 4.324219 Z M 37.660156 4.324219 L 56.53125 4.324219 C 58.265625 4.324219 59.675781 5.734375 59.675781 7.46875 L 59.675781 16.273438 C 59.675781 18.011719 58.265625 19.421875 56.53125 19.421875 L 37.660156 19.421875 C 35.929688 19.421875 34.511719 18.011719 34.511719 16.273438 L 34.511719 7.46875 C 34.511719 5.734375 35.929688 4.324219 37.660156 4.324219 Z M 22.566406 24.449219 L 41.433594 24.449219 C 43.171875 24.449219 44.578125 25.863281 44.578125 27.59375 L 44.578125 36.40625 C 44.578125 38.136719 43.171875 39.550781 41.433594 39.550781 L 22.566406 39.550781 C 20.828125 39.550781 19.421875 38.136719 19.421875 36.40625 L 19.421875 27.59375 C 19.421875 25.863281 20.828125 24.449219 22.566406 24.449219 Z M 50.867188 24.449219 L 58.414062 24.449219 C 59.113281 24.449219 59.675781 25.011719 59.675781 25.710938 L 59.675781 38.289062 C 59.675781 38.988281 59.113281 39.550781 58.414062 39.550781 L 50.867188 39.550781 C 50.175781 39.550781 49.613281 38.988281 49.613281 38.289062 L 49.613281 25.710938 C 49.613281 25.011719 50.175781 24.449219 50.867188 24.449219 Z M 7.46875 44.578125 L 26.339844 44.578125 C 28.070312 44.578125 29.488281 45.988281 29.488281 47.726562 L 29.488281 56.53125 C 29.488281 58.265625 28.070312 59.675781 26.339844 59.675781 L 7.46875 59.675781 C 5.734375 59.675781 4.324219 58.265625 4.324219 56.53125 L 4.324219 47.726562 C 4.324219 45.988281 5.734375 44.578125 7.46875 44.578125 Z M 37.660156 44.578125 L 56.53125 44.578125 C 58.265625 44.578125 59.675781 45.988281 59.675781 47.726562 L 59.675781 56.53125 C 59.675781 58.265625 58.265625 59.675781 56.53125 59.675781 L 37.660156 59.675781 C 35.929688 59.675781 34.511719 58.265625 34.511719 56.53125 L 34.511719 47.726562 C 34.511719 45.988281 35.929688 44.578125 37.660156 44.578125 Z M 37.660156 44.578125 "/>
</g>
</svg>
