<svg xmlns="http://www.w3.org/2000/svg" xmlns:xlink="http://www.w3.org/1999/xlink" width="64px" height="64px" viewBox="0 0 64 64" version="1.1">
<defs>
<linearGradient id="linear0" gradientUnits="userSpaceOnUse" x1="0" y1="0" x2="0" y2="1" gradientTransform="matrix(55.351351,0,0,36.162162,4.324324,13.918918)">
<stop offset="0" style="stop-color:#00a2ff;stop-opacity:1;"/>
<stop offset="0.5" style="stop-color:#dddddd;stop-opacity:1;"/>
<stop offset="1" style="stop-color:#00ffae;stop-opacity:1;"/>
</linearGradient>
</defs>
<g id="surface1">
<path style=" stroke:none;fill-rule:nonzero;fill:url(#linear0);" d="M 35.5625 50.03125 C 35.566406 49.988281 35.890625 48.914062 36.273438 47.632812 C 36.664062 46.347656 36.933594 45.207031 36.867188 45.109375 C 36.808594 45.003906 36.292969 44.917969 35.726562 44.917969 C 35.164062 44.917969 33.921875 44.753906 32.976562 44.550781 C 27.796875 43.457031 22.539062 40.769531 17.644531 36.726562 C 16.648438 35.902344 15.765625 35.339844 15.664062 35.46875 C 15.558594 35.585938 14.988281 36.339844 14.386719 37.136719 C 12.28125 39.945312 9.082031 41.988281 6.027344 42.484375 C 5.179688 42.617188 4.457031 42.699219 4.417969 42.660156 C 4.378906 42.617188 4.945312 41.367188 5.675781 39.878906 C 8.714844 33.679688 8.679688 30.042969 5.515625 23.699219 L 4.324219 21.296875 L 5 21.296875 C 6.09375 21.296875 8.484375 22.003906 9.773438 22.707031 C 11.367188 23.578125 13.9375 25.949219 14.917969 27.460938 C 15.351562 28.136719 15.761719 28.679688 15.828125 28.679688 C 15.890625 28.679688 16.789062 28.03125 17.8125 27.238281 C 21.058594 24.730469 25.335938 22.164062 28.363281 20.902344 C 28.40625 20.886719 28.324219 20.582031 28.1875 20.226562 C 27.8125 19.242188 25.988281 17.386719 24.648438 16.621094 L 23.449219 15.9375 L 24.644531 15.542969 C 29.058594 14.082031 35.929688 13.472656 39.003906 14.28125 C 41.617188 14.960938 43.835938 16.261719 45.960938 18.367188 C 47.117188 19.511719 48.285156 20.429688 48.914062 20.675781 C 52.160156 21.960938 55.796875 24.460938 57.648438 26.6875 C 58.652344 27.890625 59.675781 29.300781 59.675781 29.476562 C 59.675781 29.542969 58.621094 30.347656 57.335938 31.269531 C 56.050781 32.199219 55 33.039062 55 33.136719 C 55 33.242188 55.996094 33.949219 57.214844 34.726562 C 58.433594 35.496094 59.429688 36.210938 59.429688 36.3125 C 59.429688 37.042969 55.039062 40.050781 51.710938 41.597656 C 49.523438 42.621094 45.160156 44.1875 44.496094 44.1875 C 44.320312 44.1875 44.171875 44.273438 44.171875 44.394531 C 44.171875 44.886719 42.082031 46.921875 40.664062 47.820312 C 39.011719 48.855469 35.523438 50.367188 35.5625 50.03125 Z M 49.644531 30.855469 C 51.363281 29.632812 51.503906 27.6875 50.003906 26.039062 C 49.378906 25.351562 49.097656 25.324219 49.265625 25.96875 C 49.488281 26.800781 48.707031 27.691406 47.765625 27.691406 C 46.820312 27.691406 46.394531 27.289062 46.152344 26.152344 L 45.984375 25.355469 L 45.234375 26.144531 C 43.984375 27.460938 43.984375 29.003906 45.234375 30.367188 C 46.441406 31.6875 48.203125 31.878906 49.644531 30.851562 Z M 49.644531 30.855469 "/>
</g>
</svg>
