<svg xmlns="http://www.w3.org/2000/svg" xmlns:xlink="http://www.w3.org/1999/xlink" width="64px" height="64px" viewBox="0 0 64 64" version="1.1">
<defs>
<linearGradient id="linear0" gradientUnits="userSpaceOnUse" x1="0" y1="0" x2="0" y2="1" gradientTransform="matrix(55.351351,0,0,48.432432,4.324324,7.783784)">
<stop offset="0" style="stop-color:#00fff2;stop-opacity:1;"/>
<stop offset="0.5" style="stop-color:#dddddd;stop-opacity:1;"/>
<stop offset="1" style="stop-color:#0062ff;stop-opacity:1;"/>
</linearGradient>
</defs>
<g id="surface1">
<path style=" stroke:none;fill-rule:nonzero;fill:url(#linear0);" d="M 14.703125 7.785156 C 12.1875 7.785156 10.105469 12.972656 9.621094 19.894531 C 9.585938 19.894531 9.550781 19.890625 9.511719 19.890625 C 7.605469 19.890625 6.054688 21.441406 6.054688 23.351562 C 6.058594 24.199219 6.367188 25.011719 6.933594 25.644531 C 5.296875 26.527344 4.324219 27.5 4.324219 28.539062 L 4.324219 54.488281 C 4.324219 55.445312 5.09375 56.214844 6.054688 56.214844 L 11.484375 56.214844 C 12.4375 56.214844 13.210938 55.445312 13.210938 54.488281 L 13.210938 47.441406 C 18.144531 48.585938 24.707031 49.296875 32 49.296875 C 39.292969 49.296875 45.855469 48.585938 50.792969 47.441406 L 50.792969 54.488281 C 50.792969 55.445312 51.5625 56.214844 52.523438 56.214844 L 57.945312 56.214844 C 58.90625 56.214844 59.675781 55.445312 59.675781 54.488281 L 59.675781 28.539062 C 59.675781 27.5 58.703125 26.527344 57.078125 25.644531 C 57.636719 25.011719 57.945312 24.191406 57.945312 23.351562 C 57.945312 21.441406 56.394531 19.890625 54.488281 19.890625 C 54.449219 19.890625 54.414062 19.890625 54.378906 19.890625 C 53.894531 12.96875 51.8125 7.785156 49.296875 7.785156 Z M 15.863281 11.242188 L 48.136719 11.242188 C 49.738281 11.242188 51.027344 16.644531 51.027344 23.351562 C 51.027344 23.414062 51.023438 23.460938 51.023438 23.527344 C 46.0625 22.351562 39.402344 21.621094 32 21.621094 C 24.597656 21.621094 17.9375 22.347656 12.976562 23.515625 C 12.976562 23.460938 12.972656 23.410156 12.972656 23.351562 C 12.972656 16.644531 14.261719 11.242188 15.863281 11.242188 Z M 32 25.082031 C 45.414062 25.082031 56.214844 27.308594 56.214844 30.078125 L 56.214844 40.847656 C 56.214844 43.613281 45.414062 45.835938 32 45.835938 C 18.585938 45.835938 7.785156 43.613281 7.785156 40.847656 L 7.785156 30.078125 C 7.785156 27.308594 18.585938 25.082031 32 25.082031 Z M 14.703125 32 C 12.792969 32 11.242188 33.550781 11.242188 35.460938 C 11.242188 37.367188 12.792969 38.917969 14.703125 38.917969 C 16.613281 38.917969 18.164062 37.367188 18.164062 35.460938 C 18.164062 33.550781 16.613281 32 14.703125 32 Z M 49.296875 32 C 47.386719 32 45.835938 33.550781 45.835938 35.460938 C 45.835938 37.367188 47.386719 38.917969 49.296875 38.917969 C 51.207031 38.917969 52.757812 37.367188 52.757812 35.460938 C 52.757812 33.550781 51.207031 32 49.296875 32 Z M 23.351562 38.917969 C 22.390625 38.917969 21.621094 39.6875 21.621094 40.648438 C 21.621094 41.609375 22.390625 42.378906 23.351562 42.378906 L 40.648438 42.378906 C 41.609375 42.378906 42.378906 41.609375 42.378906 40.648438 C 42.378906 39.6875 41.609375 38.917969 40.648438 38.917969 Z M 23.351562 38.917969 "/>
</g>
</svg>
