<svg xmlns="http://www.w3.org/2000/svg" xmlns:xlink="http://www.w3.org/1999/xlink" width="64px" height="64px" viewBox="0 0 64 64" version="1.1">
<defs>
<linearGradient id="linear0" gradientUnits="userSpaceOnUse" x1="0" y1="0" x2="0" y2="1" gradientTransform="matrix(55.351351,0,0,55.351351,4.324324,4.324324)">
<stop offset="0" style="stop-color:#ffae00;stop-opacity:1;"/>
<stop offset="0.5" style="stop-color:#dddddd;stop-opacity:1;"/>
<stop offset="1" style="stop-color:#bf1d1d;stop-opacity:1;"/>
</linearGradient>
</defs>
<g id="surface1">
<path style=" stroke:none;fill-rule:nonzero;fill:url(#linear0);" d="M 12.230469 4.324219 C 7.851562 4.324219 4.324219 7.851562 4.324219 12.230469 L 4.324219 51.769531 C 4.324219 56.148438 7.851562 59.675781 12.230469 59.675781 L 51.769531 59.675781 C 56.148438 59.675781 59.675781 56.148438 59.675781 51.769531 L 59.675781 12.230469 C 59.675781 7.851562 56.148438 4.324219 51.769531 4.324219 Z M 12.230469 8.28125 L 51.769531 8.28125 C 53.960938 8.28125 55.71875 10.039062 55.71875 12.230469 L 55.71875 47.8125 C 55.71875 50.003906 53.960938 51.769531 51.769531 51.769531 L 12.230469 51.769531 C 10.039062 51.769531 8.28125 50.003906 8.28125 47.8125 L 8.28125 12.230469 C 8.28125 10.039062 10.039062 8.28125 12.230469 8.28125 Z M 38.542969 24.066406 C 35.421875 24.066406 32.421875 25.085938 29.527344 27.039062 L 31.011719 30.394531 C 32.242188 29.5625 33.445312 28.972656 34.59375 28.539062 C 35.769531 28.082031 36.847656 27.921875 38.054688 27.921875 C 39.835938 27.921875 41.1875 28.335938 42.136719 29.285156 C 43.078125 30.203125 43.863281 31.449219 43.863281 33.113281 L 43.863281 34.324219 C 43.03125 34.011719 41.808594 33.757812 40.773438 33.582031 C 39.753906 33.402344 38.71875 33.3125 37.6875 33.335938 C 36.28125 33.335938 35.027344 33.488281 33.851562 33.828125 C 32.703125 34.175781 31.625 34.679688 30.765625 35.3125 C 29.9375 35.945312 29.367188 36.675781 28.910156 37.539062 C 28.457031 38.394531 28.164062 39.710938 28.164062 40.773438 C 28.164062 41.78125 28.414062 42.753906 28.789062 43.617188 C 29.1875 44.472656 29.613281 45.207031 30.269531 45.835938 C 30.960938 46.46875 31.824219 46.945312 32.742188 47.320312 C 33.6875 47.664062 34.738281 47.8125 35.828125 47.8125 C 37.523438 47.8125 39.0625 47.511719 40.523438 46.824219 C 42.011719 46.113281 43.230469 45.054688 44.234375 43.738281 L 44.355469 45.097656 C 44.441406 45.757812 44.746094 46.363281 45.21875 46.824219 C 45.707031 47.257812 46.402344 47.511719 47.320312 47.566406 C 47.636719 47.566406 48.058594 47.597656 48.433594 47.566406 C 48.835938 47.539062 49.210938 47.53125 49.664062 47.441406 L 49.664062 43.363281 C 49.179688 43.335938 48.472656 43.226562 48.269531 42.996094 C 47.984375 42.648438 47.820312 42.210938 47.8125 41.761719 L 47.8125 33.335938 C 47.8125 30.382812 47.4375 28.117188 45.714844 26.539062 C 43.996094 24.960938 41.644531 24.066406 38.542969 24.066406 Z M 38.1875 36.207031 C 39.054688 36.207031 40.59375 36.40625 41.488281 36.578125 C 42.402344 36.753906 43.058594 36.996094 43.863281 37.3125 L 43.863281 40.28125 C 43.863281 40.851562 43.351562 41.488281 42.753906 42.003906 C 41.0625 43.511719 39.03125 43.707031 37.0625 43.863281 C 35.773438 43.863281 34.164062 43.933594 33.335938 43.1875 C 32.5 42.410156 32 41.523438 32 40.402344 C 32 39.191406 33.164062 38.152344 34.226562 37.4375 C 35.382812 36.613281 36.769531 36.179688 38.1875 36.210938 Z M 38.1875 36.207031 "/>
</g>
</svg>
