<svg xmlns="http://www.w3.org/2000/svg" xmlns:xlink="http://www.w3.org/1999/xlink" width="64px" height="64px" viewBox="0 0 64 64" version="1.1">
<defs>
<linearGradient id="linear0" gradientUnits="userSpaceOnUse" x1="0" y1="0" x2="0" y2="1" gradientTransform="matrix(55.351351,0,0,55.351351,4.324324,4.324324)">
<stop offset="0" style="stop-color:#ffae00;stop-opacity:1;"/>
<stop offset="0.5" style="stop-color:#dddddd;stop-opacity:1;"/>
<stop offset="1" style="stop-color:#bf1d1d;stop-opacity:1;"/>
</linearGradient>
</defs>
<g id="surface1">
<path style=" stroke:none;fill-rule:nonzero;fill:url(#linear0);" d="M 41.238281 24.402344 L 57.203125 24.402344 L 57.203125 25.808594 C 55.230469 26.039062 53.59375 26.523438 52.300781 27.253906 C 51.539062 27.644531 49.511719 30.585938 46.214844 36.082031 C 42.3125 42.460938 40.1875 45.902344 39.835938 46.394531 C 43.863281 51.238281 47.648438 53.664062 51.199219 53.664062 C 54.847656 53.664062 57.203125 51.746094 58.269531 47.917969 L 59.675781 48.933594 C 57.929688 56.09375 54.011719 59.675781 47.929688 59.675781 C 43.566406 59.675781 39.109375 57.136719 34.542969 52.058594 C 28.792969 57.136719 23.257812 59.675781 17.933594 59.675781 C 14.207031 59.675781 11.078125 58.710938 8.542969 56.785156 C 5.730469 54.621094 4.324219 51.691406 4.324219 47.996094 C 4.324219 40.863281 9.59375 34.484375 20.136719 28.855469 C 18.058594 24.164062 17.023438 20.300781 17.023438 17.253906 C 17.023438 13.320312 18.253906 10.1875 20.707031 7.835938 C 23.164062 5.496094 26.347656 4.324219 30.253906 4.324219 C 33.214844 4.324219 35.648438 5.171875 37.550781 6.863281 C 39.527344 8.582031 40.511719 10.902344 40.511719 13.8125 C 40.511719 19 36.347656 23.699219 28.011719 27.917969 C 31.609375 34.296875 34.949219 39.675781 38.042969 44.050781 C 42.503906 38.554688 44.734375 33.972656 44.734375 30.300781 C 44.734375 27.335938 43.566406 25.835938 41.238281 25.808594 L 41.238281 24.402344 M 26.675781 25.335938 C 32.960938 22.292969 36.105469 18.402344 36.105469 13.664062 C 36.105469 11.863281 35.550781 10.328125 34.433594 9.050781 C 33.292969 7.800781 31.875 7.175781 30.175781 7.175781 C 28.226562 7.175781 26.613281 7.851562 25.347656 9.207031 C 24.105469 10.5625 23.488281 12.265625 23.488281 14.324219 C 23.488281 16.769531 24.550781 20.445312 26.675781 25.335938 M 32.570312 49.835938 C 27.121094 42.121094 23.394531 36.015625 21.390625 31.511719 C 15.261719 34.976562 12.191406 39.296875 12.191406 44.484375 C 12.191406 47.527344 13.066406 50.027344 14.8125 51.984375 C 16.589844 53.960938 18.960938 54.949219 21.929688 54.949219 C 24.96875 54.949219 28.511719 53.242188 32.570312 49.835938 "/>
</g>
</svg>
