<svg xmlns="http://www.w3.org/2000/svg" xmlns:xlink="http://www.w3.org/1999/xlink" width="64px" height="64px" viewBox="0 0 64 64" version="1.1">
<defs>
<linearGradient id="linear0" gradientUnits="userSpaceOnUse" x1="0" y1="0" x2="0" y2="1" gradientTransform="matrix(17.297297,0,0,55.351351,11.243243,4.324324)">
<stop offset="0" style="stop-color:#ffae00;stop-opacity:1;"/>
<stop offset="0.5" style="stop-color:#dddddd;stop-opacity:1;"/>
<stop offset="1" style="stop-color:#bf1d1d;stop-opacity:1;"/>
</linearGradient>
<linearGradient id="linear1" gradientUnits="userSpaceOnUse" x1="0" y1="0" x2="0" y2="1" gradientTransform="matrix(13.842341,0,0,55.351351,35.454956,4.324324)">
<stop offset="0" style="stop-color:#ffae00;stop-opacity:1;"/>
<stop offset="0.5" style="stop-color:#dddddd;stop-opacity:1;"/>
<stop offset="1" style="stop-color:#bf1d1d;stop-opacity:1;"/>
</linearGradient>
</defs>
<g id="surface1">
<path style=" stroke:none;fill-rule:nonzero;fill:url(#linear0);" d="M 11.242188 4.324219 L 11.242188 25.082031 L 14.703125 27.675781 L 14.703125 54.488281 C 14.703125 57.363281 17.015625 59.675781 19.890625 59.675781 C 22.765625 59.675781 25.082031 57.363281 25.082031 54.488281 L 25.082031 27.675781 L 28.539062 25.082031 L 28.539062 4.324219 L 25.082031 4.324219 L 25.082031 23.351562 L 21.621094 25.082031 L 21.621094 4.324219 L 18.164062 4.324219 L 18.164062 25.082031 L 14.703125 23.351562 L 14.703125 4.324219 Z M 18.164062 28.917969 L 21.621094 28.917969 L 21.621094 54.488281 C 21.621094 55.445312 20.851562 56.214844 19.890625 56.214844 C 18.933594 56.214844 18.164062 55.445312 18.164062 54.488281 Z M 18.164062 28.917969 "/>
<path style=" stroke:none;fill-rule:nonzero;fill:url(#linear1);" d="M 49.296875 4.324219 C 44.351562 4.324219 39.785156 7.621094 37.3125 12.972656 C 34.835938 18.324219 34.835938 24.917969 37.3125 30.269531 C 37.773438 31.253906 38.3125 32.175781 38.917969 33.027344 L 38.917969 54.488281 C 38.917969 57.363281 41.234375 59.675781 44.109375 59.675781 C 46.984375 59.675781 49.296875 57.363281 49.296875 54.488281 Z M 45.835938 8.757812 L 45.835938 54.488281 C 45.835938 55.445312 45.066406 56.214844 44.109375 56.214844 C 43.148438 56.214844 42.378906 55.445312 42.378906 54.488281 L 42.378906 31.621094 C 41.390625 30.636719 40.578125 29.242188 40 27.582031 C 38.796875 24.082031 38.5 19.792969 39.703125 16.292969 C 40.90625 12.792969 42.988281 9.382812 45.835938 8.757812 Z M 45.835938 8.757812 "/>
</g>
</svg>
