<svg xmlns="http://www.w3.org/2000/svg" xmlns:xlink="http://www.w3.org/1999/xlink" width="64px" height="64px" viewBox="0 0 64 64" version="1.1">
<defs>
<linearGradient id="linear0" gradientUnits="userSpaceOnUse" x1="0" y1="0" x2="0" y2="1" gradientTransform="matrix(55.090091,0,0,55.351351,4.454954,4.324324)">
<stop offset="0" style="stop-color:#00b7ff;stop-opacity:1;"/>
<stop offset="0.5" style="stop-color:#dddddd;stop-opacity:1;"/>
<stop offset="1" style="stop-color:#ee42d9;stop-opacity:1;"/>
</linearGradient>
</defs>
<g id="surface1">
<path style=" stroke:none;fill-rule:nonzero;fill:url(#linear0);" d="M 4.457031 4.324219 L 6.613281 34.457031 L 8.164062 56.164062 C 8.265625 57.609375 9.179688 58.863281 10.527344 59.402344 C 10.527344 59.40625 10.527344 59.402344 10.53125 59.402344 C 10.746094 59.488281 10.972656 59.558594 11.210938 59.605469 C 11.210938 59.609375 11.210938 59.605469 11.210938 59.605469 C 11.324219 59.625 11.449219 59.632812 11.570312 59.636719 C 11.6875 59.652344 11.8125 59.675781 11.933594 59.675781 L 29.878906 59.675781 C 30.121094 59.675781 30.363281 59.652344 30.59375 59.605469 C 32.273438 59.28125 33.523438 57.867188 33.644531 56.164062 L 35.257812 33.554688 L 37.351562 4.324219 Z M 7.164062 6.835938 L 34.648438 6.835938 L 33.835938 18.164062 L 7.96875 18.164062 Z M 56.066406 15.648438 C 50.082031 15.648438 44.828125 19.539062 42.703125 25.21875 L 41.910156 20.472656 C 41.820312 19.863281 41.308594 19.414062 40.691406 19.402344 C 40.3125 19.390625 39.960938 19.558594 39.714844 19.839844 C 39.46875 20.132812 39.367188 20.511719 39.433594 20.882812 L 40.511719 27.339844 C 39.710938 27.515625 38.929688 27.742188 38.179688 28.03125 L 36.152344 56.335938 C 36.152344 56.355469 36.136719 56.378906 36.136719 56.402344 C 38.484375 57.726562 41.132812 58.414062 43.8125 58.414062 C 52.496094 58.414062 59.542969 51.363281 59.542969 42.691406 C 59.542969 36.1875 55.566406 30.589844 49.914062 28.203125 C 54.160156 26.246094 57.375 22.199219 58.265625 17.179688 L 58.414062 15.796875 L 57.027344 15.6875 C 56.714844 15.671875 56.390625 15.648438 56.066406 15.648438 Z M 46.960938 43.324219 C 47.652344 43.324219 48.21875 43.886719 48.21875 44.578125 C 48.21875 45.269531 47.652344 45.835938 46.960938 45.835938 C 46.269531 45.835938 45.707031 45.269531 45.707031 44.578125 C 45.707031 43.886719 46.269531 43.324219 46.960938 43.324219 Z M 51.996094 43.324219 C 52.6875 43.324219 53.257812 43.886719 53.257812 44.578125 C 53.257812 45.269531 52.6875 45.835938 51.996094 45.835938 C 51.300781 45.835938 50.734375 45.269531 50.734375 44.578125 C 50.734375 43.886719 51.300781 43.324219 51.996094 43.324219 Z M 49.484375 47.097656 C 50.171875 47.097656 50.734375 47.664062 50.734375 48.351562 C 50.734375 49.042969 50.171875 49.613281 49.484375 49.613281 C 48.789062 49.613281 48.21875 49.042969 48.21875 48.351562 C 48.21875 47.664062 48.789062 47.097656 49.484375 47.097656 Z M 49.484375 47.097656 "/>
</g>
</svg>
