<svg xmlns="http://www.w3.org/2000/svg" xmlns:xlink="http://www.w3.org/1999/xlink" width="64px" height="64px" viewBox="0 0 64 64" version="1.1">
<defs>
<linearGradient id="linear0" gradientUnits="userSpaceOnUse" x1="0" y1="0" x2="0" y2="1" gradientTransform="matrix(44.972973,0,0,55.351351,9.513514,4.324324)">
<stop offset="0" style="stop-color:#00a2ff;stop-opacity:1;"/>
<stop offset="0.5" style="stop-color:#dddddd;stop-opacity:1;"/>
<stop offset="1" style="stop-color:#00ffae;stop-opacity:1;"/>
</linearGradient>
</defs>
<g id="surface1">
<path style=" stroke:none;fill-rule:nonzero;fill:url(#linear0);" d="M 9.511719 59.675781 L 10.390625 54.375 L 34.296875 33.636719 L 19.488281 7.835938 L 20.082031 4.324219 L 54.488281 4.324219 L 52.886719 14.09375 L 49.460938 14.09375 C 49.460938 13.609375 49.585938 12.792969 49.824219 11.644531 C 50.085938 10.5625 50.214844 9.746094 50.214844 9.191406 C 50.214844 7.957031 48.789062 7.335938 45.941406 7.335938 L 28.164062 7.335938 L 41.179688 30.460938 L 13.71875 54.375 L 39.125 54.375 C 41.339844 54.375 42.835938 53.921875 43.59375 53.015625 C 44.378906 52.042969 44.972656 50.1875 45.386719 47.449219 L 48.679688 47.449219 L 46.726562 59.675781 L 9.511719 59.675781 "/>
</g>
</svg>
