<svg xmlns="http://www.w3.org/2000/svg" xmlns:xlink="http://www.w3.org/1999/xlink" width="64px" height="64px" viewBox="0 0 64 64" version="1.1">
<defs>
<linearGradient id="linear0" gradientUnits="userSpaceOnUse" x1="0" y1="0" x2="0" y2="1" gradientTransform="matrix(55.351351,0,0,55.351351,4.324324,4.324324)">
<stop offset="0" style="stop-color:#00b7ff;stop-opacity:1;"/>
<stop offset="0.5" style="stop-color:#dddddd;stop-opacity:1;"/>
<stop offset="1" style="stop-color:#ee42d9;stop-opacity:1;"/>
</linearGradient>
</defs>
<g id="surface1">
<path style=" stroke:none;fill-rule:nonzero;fill:url(#linear0);" d="M 32 4.324219 C 16.714844 4.324219 4.324219 16.714844 4.324219 32 C 4.324219 47.285156 16.714844 59.675781 32 59.675781 C 47.285156 59.675781 59.675781 47.285156 59.675781 32 C 59.675781 16.714844 47.285156 4.324219 32 4.324219 Z M 32 8.582031 C 44.933594 8.582031 55.417969 19.066406 55.417969 32 C 55.417969 44.933594 44.933594 55.417969 32 55.417969 C 19.066406 55.417969 8.582031 44.933594 8.582031 32 C 8.582031 19.066406 19.066406 8.582031 32 8.582031 Z M 29.867188 17.097656 L 29.867188 29.867188 L 20.292969 29.867188 L 20.292969 34.132812 L 34.132812 34.132812 L 34.132812 17.097656 Z M 29.867188 17.097656 "/>
</g>
</svg>
