<svg xmlns="http://www.w3.org/2000/svg" xmlns:xlink="http://www.w3.org/1999/xlink" width="64px" height="64px" viewBox="0 0 64 64" version="1.1">
<defs>
<linearGradient id="linear0" gradientUnits="userSpaceOnUse" x1="0" y1="0" x2="0" y2="1" gradientTransform="matrix(55.351351,0,0,55.351351,4.324324,4.324324)">
<stop offset="0" style="stop-color:#05f7ff;stop-opacity:1;"/>
<stop offset="0.5" style="stop-color:#dddddd;stop-opacity:1;"/>
<stop offset="1" style="stop-color:#e6ff05;stop-opacity:1;"/>
</linearGradient>
</defs>
<g id="surface1">
<path style=" stroke:none;fill-rule:nonzero;fill:url(#linear0);" d="M 18.148438 4.324219 C 13.792969 4.382812 10.609375 4.203125 8 5.847656 C 6.652344 6.726562 5.625 8.121094 5.105469 9.792969 C 4.53125 11.523438 4.324219 13.585938 4.324219 16.1875 L 4.324219 39.90625 C 4.324219 42.511719 4.53125 44.566406 5.105469 46.300781 C 5.671875 48.039062 6.699219 49.421875 8 50.246094 C 10.609375 51.890625 13.792969 51.707031 18.148438 51.769531 L 18.863281 51.769531 L 28.554688 59.675781 L 38.246094 51.769531 L 45.851562 51.769531 C 50.207031 51.707031 53.394531 51.886719 56 50.246094 C 57.347656 49.367188 58.375 47.96875 58.894531 46.300781 C 59.460938 44.566406 59.675781 42.503906 59.675781 39.90625 L 59.675781 16.1875 C 59.675781 13.585938 59.460938 11.523438 58.894531 9.792969 C 58.375 8.121094 57.347656 6.726562 56 5.847656 C 53.390625 4.203125 50.207031 4.382812 45.851562 4.324219 Z M 18.164062 8.28125 L 45.875 8.28125 C 50.230469 8.335938 53.105469 8.511719 54.367188 9.3125 C 55.003906 9.707031 55.363281 10.152344 55.703125 11.179688 C 56.039062 12.207031 56.257812 13.847656 56.257812 16.1875 L 56.257812 39.90625 C 56.257812 42.246094 56.039062 43.882812 55.703125 44.910156 C 55.363281 45.9375 55 46.378906 54.363281 46.78125 C 53.09375 47.578125 50.230469 47.757812 45.875 47.8125 L 18.171875 47.8125 C 13.8125 47.757812 10.9375 47.578125 9.671875 46.78125 C 9.039062 46.382812 8.679688 45.9375 8.335938 44.910156 C 8 43.882812 7.785156 42.246094 7.785156 39.90625 L 7.785156 16.1875 C 7.785156 13.847656 8.003906 12.207031 8.335938 11.179688 C 8.679688 10.152344 9.039062 9.710938 9.671875 9.3125 C 10.9375 8.511719 13.8125 8.335938 18.171875 8.28125 Z M 18.164062 8.28125 "/>
</g>
</svg>
