<svg xmlns="http://www.w3.org/2000/svg" xmlns:xlink="http://www.w3.org/1999/xlink" width="64px" height="64px" viewBox="0 0 64 64" version="1.1">
<defs>
<linearGradient id="linear0" gradientUnits="userSpaceOnUse" x1="0" y1="0" x2="0" y2="1" gradientTransform="matrix(55.351351,0,0,32.045044,4.324324,15.977477)">
<stop offset="0" style="stop-color:#ffae00;stop-opacity:1;"/>
<stop offset="0.5" style="stop-color:#dddddd;stop-opacity:1;"/>
<stop offset="1" style="stop-color:#bf1d1d;stop-opacity:1;"/>
</linearGradient>
</defs>
<g id="surface1">
<path style=" stroke:none;fill-rule:evenodd;fill:url(#linear0);" d="M 24.539062 43.539062 C 26.625 46.335938 29.917969 48.015625 33.457031 48.023438 C 36.988281 48.023438 40.289062 46.335938 42.367188 43.539062 L 43.5625 43.328125 C 45.0625 43.328125 45.621094 40.011719 44.5625 38.890625 L 34.648438 29.609375 C 34.335938 29.269531 33.902344 29.085938 33.457031 29.085938 C 33.011719 29.085938 32.582031 29.273438 32.261719 29.609375 L 22.351562 38.890625 C 21.289062 40.011719 21.851562 43.328125 23.347656 43.328125 Z M 13.0625 17.4375 C 8.238281 17.4375 4.324219 21.347656 4.324219 26.175781 C 4.328125 26.914062 4.421875 27.652344 4.613281 28.367188 C 5.605469 24.511719 9.082031 21.808594 13.0625 21.808594 C 17.042969 21.808594 20.515625 24.5 21.515625 28.351562 C 21.703125 27.636719 21.796875 26.910156 21.808594 26.175781 C 21.808594 21.347656 17.890625 17.4375 13.0625 17.4375 Z M 48.023438 21.808594 C 48.023438 18.585938 50.632812 15.976562 53.851562 15.976562 C 57.0625 15.976562 59.675781 18.585938 59.675781 21.808594 C 59.675781 25.015625 57.0625 27.632812 53.851562 27.632812 C 50.632812 27.632812 48.023438 25.015625 48.023438 21.808594 Z M 48.023438 21.808594 "/>
</g>
</svg>
