<svg xmlns="http://www.w3.org/2000/svg" xmlns:xlink="http://www.w3.org/1999/xlink" width="64px" height="64px" viewBox="0 0 64 64" version="1.1">
<defs>
<linearGradient id="linear0" gradientUnits="userSpaceOnUse" x1="0" y1="0" x2="0" y2="1" gradientTransform="matrix(55.351351,0,0,55.351351,4.324324,4.324324)">
<stop offset="0" style="stop-color:#ffae00;stop-opacity:1;"/>
<stop offset="0.5" style="stop-color:#dddddd;stop-opacity:1;"/>
<stop offset="1" style="stop-color:#bf1d1d;stop-opacity:1;"/>
</linearGradient>
</defs>
<g id="surface1">
<path style=" stroke:none;fill-rule:evenodd;fill:url(#linear0);" d="M 32 4.324219 C 24.746094 4.328125 17.789062 7.175781 12.617188 12.257812 L 22.148438 28.769531 C 23.542969 24.511719 27.515625 21.625 32 21.621094 L 57.636719 21.621094 C 53.414062 11.171875 43.269531 4.335938 32 4.324219 Z M 10.203125 15 C 6.40625 19.855469 4.335938 25.835938 4.324219 32 C 4.335938 44.429688 12.636719 55.324219 24.613281 58.636719 L 34.136719 42.148438 C 33.433594 42.296875 32.714844 42.375 32 42.378906 C 28.292969 42.367188 24.878906 40.390625 23.027344 37.179688 L 23.011719 37.1875 Z M 39.714844 25.082031 C 41.421875 26.984375 42.367188 29.441406 42.378906 32 C 42.375 33.820312 41.890625 35.609375 40.984375 37.179688 L 40.988281 37.1875 L 28.175781 59.378906 C 29.441406 59.5625 30.71875 59.664062 32 59.675781 C 47.285156 59.675781 59.675781 47.285156 59.675781 32 C 59.664062 29.664062 59.367188 27.339844 58.773438 25.082031 Z M 32 25.082031 C 28.175781 25.082031 25.082031 28.175781 25.082031 32 C 25.082031 33.835938 25.8125 35.59375 27.109375 36.890625 C 28.40625 38.1875 30.164062 38.917969 32 38.917969 C 33.835938 38.917969 35.59375 38.1875 36.890625 36.890625 C 38.1875 35.59375 38.917969 33.835938 38.917969 32 C 38.917969 30.164062 38.1875 28.40625 36.890625 27.109375 C 35.59375 25.8125 33.835938 25.082031 32 25.082031 Z M 32 25.082031 "/>
</g>
</svg>
