<svg xmlns="http://www.w3.org/2000/svg" xmlns:xlink="http://www.w3.org/1999/xlink" width="64px" height="64px" viewBox="0 0 64 64" version="1.1">
<defs>
<linearGradient id="linear0" gradientUnits="userSpaceOnUse" x1="0" y1="0" x2="0" y2="1" gradientTransform="matrix(55.351351,0,0,55.351351,4.432432,4.324324)">
<stop offset="0" style="stop-color:#00b7ff;stop-opacity:1;"/>
<stop offset="0.5" style="stop-color:#dddddd;stop-opacity:1;"/>
<stop offset="1" style="stop-color:#ee42d9;stop-opacity:1;"/>
</linearGradient>
</defs>
<g id="surface1">
<path style=" stroke:none;fill-rule:evenodd;fill:url(#linear0);" d="M 51.363281 55.417969 L 53.394531 55.417969 C 54.59375 55.417969 55.523438 54.488281 55.523438 53.289062 L 55.523438 17.09375 L 8.6875 17.09375 L 8.6875 53.289062 C 8.6875 53.855469 8.90625 54.402344 9.308594 54.800781 C 9.707031 55.203125 10.253906 55.421875 10.820312 55.417969 L 11.679688 55.417969 C 11.042969 53.421875 10.703125 51.3125 10.703125 49.136719 C 10.710938 44.5 12.265625 40 15.121094 36.351562 L 24.757812 53.039062 L 24.765625 53.03125 C 25.3125 53.984375 26.042969 54.789062 26.894531 55.417969 L 36.894531 55.417969 L 38.269531 53.039062 L 38.265625 53.03125 C 38.957031 51.847656 39.3125 50.503906 39.3125 49.136719 C 39.3125 47.214844 38.597656 45.363281 37.3125 43.933594 L 51.644531 43.933594 C 52.09375 45.632812 52.320312 47.382812 52.324219 49.136719 C 52.324219 51.324219 51.988281 53.4375 51.363281 55.417969 Z M 27.847656 8.582031 L 36.363281 8.582031 C 37.5625 8.582031 38.496094 9.511719 38.496094 10.710938 L 38.496094 12.839844 L 25.71875 12.839844 L 25.71875 10.710938 C 25.71875 9.511719 26.652344 8.582031 27.847656 8.582031 Z M 27.847656 4.324219 C 24.339844 4.324219 21.460938 7.203125 21.460938 10.710938 L 21.460938 12.839844 L 4.433594 12.839844 L 4.433594 53.289062 C 4.433594 56.796875 7.3125 59.675781 10.820312 59.675781 L 53.394531 59.675781 C 56.90625 59.675781 59.785156 56.796875 59.785156 53.289062 L 59.785156 12.839844 L 42.753906 12.839844 L 42.753906 10.710938 C 42.753906 7.203125 39.875 4.324219 36.363281 4.324219 Z M 31.511719 28.324219 C 26.058594 28.324219 20.824219 30.46875 16.9375 34.289062 L 24.105469 46.707031 C 25.152344 43.503906 28.144531 41.335938 31.511719 41.328125 L 50.796875 41.328125 C 47.617188 33.472656 39.988281 28.328125 31.511719 28.324219 Z M 31.511719 43.933594 C 28.636719 43.933594 26.3125 46.261719 26.3125 49.136719 C 26.3125 50.511719 26.863281 51.835938 27.835938 52.8125 C 28.8125 53.792969 30.132812 54.335938 31.511719 54.335938 C 32.890625 54.335938 34.214844 53.792969 35.191406 52.8125 C 36.164062 51.835938 36.714844 50.511719 36.714844 49.136719 C 36.714844 47.753906 36.164062 46.433594 35.191406 45.460938 C 34.214844 44.484375 32.890625 43.933594 31.511719 43.933594 Z M 31.511719 43.933594 "/>
</g>
</svg>
