<svg xmlns="http://www.w3.org/2000/svg" xmlns:xlink="http://www.w3.org/1999/xlink" width="64px" height="64px" viewBox="0 0 64 64" version="1.1">
<defs>
<linearGradient id="linear0" gradientUnits="userSpaceOnUse" x1="0" y1="0" x2="0" y2="1" gradientTransform="matrix(55.351351,0,0,55.351351,4.324324,4.324324)">
<stop offset="0" style="stop-color:#ff8963;stop-opacity:1;"/>
<stop offset="0.5" style="stop-color:#dddddd;stop-opacity:1;"/>
<stop offset="1" style="stop-color:#0F6FFF;stop-opacity:1;"/>
</linearGradient>
</defs>
<g id="surface1">
<path style=" stroke:none;fill-rule:nonzero;fill:url(#linear0);" d="M 32 4.324219 C 23.210938 4.335938 14.949219 8.523438 9.742188 15.597656 L 18.273438 30.367188 C 18.289062 30.238281 18.308594 30.109375 18.324219 29.976562 C 18.390625 29.523438 18.484375 29.070312 18.59375 28.621094 C 18.707031 28.175781 18.839844 27.734375 19 27.300781 C 19.136719 26.929688 19.289062 26.5625 19.449219 26.199219 C 19.488281 26.117188 19.527344 26.03125 19.566406 25.957031 C 19.71875 25.636719 19.886719 25.335938 20.0625 25.03125 C 20.121094 24.9375 20.175781 24.839844 20.230469 24.746094 C 20.433594 24.429688 20.644531 24.113281 20.867188 23.8125 C 20.914062 23.746094 20.960938 23.6875 21 23.621094 C 21.214844 23.335938 21.449219 23.0625 21.6875 22.800781 C 21.761719 22.710938 21.835938 22.625 21.914062 22.539062 C 22.121094 22.324219 22.328125 22.117188 22.554688 21.914062 C 22.6875 21.789062 22.8125 21.664062 22.949219 21.539062 C 23.136719 21.386719 23.328125 21.238281 23.515625 21.089844 C 23.699219 20.949219 23.878906 20.8125 24.058594 20.675781 C 24.253906 20.542969 24.445312 20.417969 24.636719 20.296875 C 24.789062 20.199219 24.933594 20.109375 25.082031 20.015625 C 25.136719 19.988281 25.191406 19.960938 25.246094 19.929688 C 25.355469 19.867188 25.460938 19.8125 25.570312 19.757812 C 25.800781 19.636719 26.03125 19.527344 26.265625 19.421875 C 26.488281 19.320312 26.714844 19.21875 26.945312 19.132812 C 27.136719 19.054688 27.324219 18.988281 27.515625 18.917969 C 27.757812 18.835938 28.003906 18.761719 28.246094 18.691406 C 28.460938 18.632812 28.679688 18.578125 28.894531 18.527344 C 29.121094 18.476562 29.351562 18.433594 29.578125 18.390625 C 29.800781 18.347656 30.023438 18.3125 30.242188 18.289062 C 30.488281 18.257812 30.726562 18.234375 30.96875 18.214844 C 31.175781 18.199219 31.386719 18.1875 31.597656 18.1875 C 31.734375 18.175781 31.867188 18.164062 32 18.164062 L 55.921875 18.164062 C 50.988281 9.613281 41.875 4.335938 32.003906 4.324219 Z M 8.050781 18.1875 C 5.617188 22.382812 4.335938 27.148438 4.324219 32 C 4.324219 47.285156 16.714844 59.675781 32 59.675781 C 35.8125 59.664062 39.582031 58.863281 43.070312 57.328125 L 43.070312 40.296875 C 43.015625 40.363281 42.96875 40.433594 42.914062 40.496094 C 42.796875 40.636719 42.679688 40.785156 42.558594 40.921875 C 42.386719 41.136719 42.207031 41.335938 42.023438 41.539062 C 41.882812 41.675781 41.742188 41.8125 41.59375 41.949219 C 41.40625 42.136719 41.210938 42.3125 41.011719 42.488281 C 40.855469 42.621094 40.703125 42.742188 40.539062 42.863281 C 40.339844 43.023438 40.144531 43.175781 39.941406 43.324219 C 39.746094 43.457031 39.554688 43.582031 39.363281 43.703125 C 39.210938 43.796875 39.066406 43.890625 38.917969 43.984375 C 38.863281 44.011719 38.808594 44.039062 38.753906 44.070312 C 38.644531 44.132812 38.539062 44.1875 38.429688 44.242188 C 38.199219 44.363281 37.96875 44.472656 37.734375 44.578125 C 37.511719 44.679688 37.285156 44.78125 37.054688 44.867188 C 36.863281 44.945312 36.675781 45.011719 36.484375 45.082031 C 36.242188 45.164062 35.996094 45.238281 35.753906 45.308594 C 35.539062 45.367188 35.320312 45.417969 35.105469 45.472656 C 34.878906 45.523438 34.648438 45.566406 34.421875 45.609375 C 34.199219 45.652344 33.976562 45.6875 33.757812 45.710938 C 33.511719 45.738281 33.273438 45.765625 33.03125 45.785156 C 32.824219 45.800781 32.613281 45.8125 32.402344 45.8125 C 32.265625 45.824219 32.136719 45.828125 32 45.835938 C 31.828125 45.835938 31.664062 45.828125 31.488281 45.820312 C 31.414062 45.8125 31.339844 45.8125 31.265625 45.8125 C 30.960938 45.792969 30.660156 45.761719 30.355469 45.726562 C 30.1875 45.707031 30.023438 45.6875 29.855469 45.664062 C 29.570312 45.617188 29.289062 45.558594 29.011719 45.488281 C 28.835938 45.460938 28.664062 45.417969 28.5 45.378906 C 28.226562 45.308594 27.957031 45.226562 27.6875 45.136719 C 27.511719 45.082031 27.339844 45.023438 27.171875 44.960938 C 26.9375 44.867188 26.710938 44.769531 26.484375 44.664062 C 26.273438 44.582031 26.066406 44.488281 25.863281 44.390625 C 25.675781 44.292969 25.496094 44.191406 25.3125 44.089844 C 25.09375 43.972656 24.878906 43.847656 24.664062 43.714844 C 24.488281 43.605469 24.3125 43.488281 24.136719 43.367188 C 23.921875 43.21875 23.714844 43.070312 23.503906 42.910156 C 23.363281 42.796875 23.214844 42.675781 23.078125 42.554688 C 22.863281 42.382812 22.664062 42.207031 22.460938 42.023438 C 22.324219 41.882812 22.1875 41.742188 22.050781 41.59375 C 21.863281 41.40625 21.6875 41.210938 21.511719 41.011719 C 21.382812 40.855469 21.257812 40.703125 21.136719 40.539062 C 20.976562 40.339844 20.824219 40.144531 20.675781 39.941406 C 20.542969 39.746094 20.417969 39.554688 20.296875 39.355469 C 20.203125 39.210938 20.109375 39.066406 20.015625 38.917969 L 19.855469 38.632812 Z M 40.296875 20.929688 C 40.363281 20.984375 40.433594 21.03125 40.496094 21.085938 C 40.636719 21.203125 40.785156 21.320312 40.921875 21.441406 C 41.136719 21.613281 41.335938 21.792969 41.539062 21.976562 C 41.675781 22.117188 41.8125 22.261719 41.949219 22.40625 C 42.136719 22.59375 42.3125 22.792969 42.488281 22.988281 C 42.621094 23.144531 42.742188 23.296875 42.863281 23.460938 C 43.023438 23.660156 43.175781 23.855469 43.324219 24.058594 C 43.457031 24.253906 43.582031 24.445312 43.703125 24.636719 C 43.800781 24.789062 43.890625 24.933594 43.984375 25.082031 C 44.011719 25.136719 44.039062 25.191406 44.070312 25.246094 C 44.132812 25.355469 44.1875 25.460938 44.242188 25.570312 C 44.363281 25.800781 44.472656 26.03125 44.578125 26.265625 C 44.679688 26.488281 44.78125 26.714844 44.867188 26.945312 C 44.945312 27.136719 45.011719 27.324219 45.082031 27.515625 C 45.164062 27.757812 45.238281 28.003906 45.308594 28.246094 C 45.367188 28.460938 45.417969 28.679688 45.472656 28.894531 C 45.523438 29.121094 45.566406 29.351562 45.609375 29.578125 C 45.652344 29.800781 45.6875 30.023438 45.710938 30.242188 C 45.734375 30.367188 45.753906 30.488281 45.765625 30.617188 C 45.769531 30.734375 45.78125 30.851562 45.785156 30.96875 C 45.800781 31.175781 45.8125 31.390625 45.8125 31.605469 C 45.824219 31.734375 45.828125 31.863281 45.835938 32 L 45.835938 55.921875 C 54.386719 50.988281 59.660156 41.875 59.675781 32 C 59.664062 28.1875 58.863281 24.417969 57.328125 20.929688 Z M 40.296875 20.929688 "/>
</g>
</svg>
