<svg xmlns="http://www.w3.org/2000/svg" xmlns:xlink="http://www.w3.org/1999/xlink" width="64px" height="64px" viewBox="0 0 64 64" version="1.1">
<defs>
<linearGradient id="linear0" gradientUnits="userSpaceOnUse" x1="0" y1="0" x2="0" y2="1" gradientTransform="matrix(55.351351,0,0,44.972973,4.324324,9.513514)">
<stop offset="0" style="stop-color:#ffae00;stop-opacity:1;"/>
<stop offset="0.5" style="stop-color:#dddddd;stop-opacity:1;"/>
<stop offset="1" style="stop-color:#bf1d1d;stop-opacity:1;"/>
</linearGradient>
</defs>
<g id="surface1">
<path style=" stroke:none;fill-rule:nonzero;fill:url(#linear0);" d="M 32.273438 9.515625 C 31.664062 9.511719 31.050781 9.527344 30.441406 9.566406 C 23.136719 10.082031 16.335938 14.160156 12.527344 20.761719 L 15.523438 22.488281 C 19.824219 15.027344 28.609375 11.386719 36.921875 13.621094 C 43.089844 15.273438 48.015625 19.90625 50.042969 25.960938 L 43.539062 28.46875 C 45.613281 30.4375 47.828125 32.402344 50.179688 34.363281 C 52.472656 36.265625 54.8125 38.109375 57.199219 39.882812 C 57.808594 36.960938 58.320312 34.023438 58.742188 31.066406 C 59.171875 28.039062 59.484375 25.09375 59.675781 22.257812 L 53.269531 24.714844 C 50.890625 17.785156 45.199219 12.261719 37.820312 10.28125 C 36.011719 9.796875 34.144531 9.539062 32.273438 9.515625 Z M 6.800781 24.117188 C 6.191406 27.039062 5.679688 29.976562 5.257812 32.933594 C 4.828125 35.96875 4.515625 38.90625 4.324219 41.742188 L 10.726562 39.285156 C 13.105469 46.214844 18.800781 51.742188 26.179688 53.71875 C 28.582031 54.363281 31.078125 54.605469 33.558594 54.433594 C 40.863281 53.917969 47.664062 49.847656 51.472656 43.238281 L 48.476562 41.511719 C 44.175781 48.976562 35.390625 52.613281 27.078125 50.378906 C 20.910156 48.730469 15.976562 44.09375 13.957031 38.039062 L 20.460938 35.53125 C 18.3125 33.5 16.09375 31.53125 13.820312 29.636719 C 11.527344 27.734375 9.1875 25.890625 6.800781 24.117188 Z M 6.800781 24.117188 "/>
</g>
</svg>
