<svg xmlns="http://www.w3.org/2000/svg" xmlns:xlink="http://www.w3.org/1999/xlink" width="64px" height="64px" viewBox="0 0 64 64" version="1.1">
<defs>
<linearGradient id="linear0" gradientUnits="userSpaceOnUse" x1="0" y1="0" x2="0" y2="1" gradientTransform="matrix(53.067568,0,0,55.328828,4.324324,4.346847)">
<stop offset="0" style="stop-color:#00fff2;stop-opacity:1;"/>
<stop offset="0.5" style="stop-color:#dddddd;stop-opacity:1;"/>
<stop offset="1" style="stop-color:#0062ff;stop-opacity:1;"/>
</linearGradient>
<linearGradient id="linear1" gradientUnits="userSpaceOnUse" x1="0" y1="0" x2="0" y2="1" gradientTransform="matrix(55.351351,0,0,55.351351,4.324324,4.324324)">
<stop offset="0" style="stop-color:#00fff2;stop-opacity:1;"/>
<stop offset="0.5" style="stop-color:#dddddd;stop-opacity:1;"/>
<stop offset="1" style="stop-color:#0062ff;stop-opacity:1;"/>
</linearGradient>
</defs>
<g id="surface1">
<path style=" stroke:none;fill-rule:evenodd;fill:url(#linear0);" d="M 24.429688 20.152344 C 24.3125 20.136719 24.207031 20.136719 24.089844 20.136719 C 14.589844 20.144531 6.441406 26.90625 4.679688 36.238281 C 4.460938 34.855469 4.324219 33.445312 4.324219 32 C 4.324219 26.386719 5.988281 21.1875 8.835938 16.835938 C 13.363281 13.839844 18.664062 12.238281 24.089844 12.234375 C 25.003906 12.234375 25.90625 12.28125 26.808594 12.324219 C 28.136719 9.363281 30.042969 6.664062 32.410156 4.347656 C 36.089844 4.394531 39.589844 5.148438 42.78125 6.488281 C 39.257812 8.289062 36.433594 11.058594 34.570312 14.382812 C 44.679688 18.441406 51.765625 28.347656 51.765625 39.910156 C 51.765625 41.238281 51.671875 42.554688 51.433594 43.847656 C 51.539062 43.863281 51.660156 43.863281 51.765625 43.863281 C 53.675781 43.855469 55.566406 43.578125 57.390625 43.027344 C 55.96875 46.324219 53.921875 49.28125 51.402344 51.757812 C 50.625 51.746094 49.855469 51.707031 49.089844 51.648438 C 48.566406 52.867188 47.910156 54.039062 47.171875 55.160156 C 42.820312 58.011719 37.613281 59.675781 32 59.675781 C 30.554688 59.675781 29.144531 59.539062 27.761719 59.320312 C 33.648438 58.207031 38.511719 54.558594 41.257812 49.605469 C 31.160156 45.53125 24.09375 35.632812 24.089844 24.089844 C 24.09375 22.761719 24.191406 21.441406 24.429688 20.152344 Z M 32.144531 21.914062 C 39.058594 24.949219 43.863281 31.867188 43.863281 39.910156 C 43.863281 40.644531 43.8125 41.378906 43.730469 42.09375 C 36.808594 39.058594 32 32.136719 32 24.089844 C 32 23.363281 32.039062 22.625 32.144531 21.914062 Z M 32.144531 21.914062 "/>
<path style=" stroke:none;fill-rule:evenodd;fill:url(#linear1);" d="M 59.675781 32 C 59.675781 47.335938 47.335938 59.675781 32 59.675781 C 16.664062 59.675781 4.324219 47.335938 4.324219 32 C 4.324219 16.664062 16.664062 4.324219 32 4.324219 C 47.335938 4.324219 59.675781 16.664062 59.675781 32 Z M 56.214844 32 C 56.214844 38.433594 53.660156 44.59375 49.125 49.125 C 44.59375 53.660156 38.433594 56.214844 32 56.214844 C 25.566406 56.214844 19.40625 53.660156 14.875 49.125 C 10.339844 44.59375 7.785156 38.433594 7.785156 32 C 7.785156 25.566406 10.339844 19.40625 14.875 14.875 C 19.40625 10.339844 25.566406 7.785156 32 7.785156 C 38.433594 7.785156 44.59375 10.339844 49.125 14.875 C 53.660156 19.40625 56.214844 25.566406 56.214844 32 Z M 56.214844 32 "/>
</g>
</svg>
