<svg xmlns="http://www.w3.org/2000/svg" xmlns:xlink="http://www.w3.org/1999/xlink" width="64px" height="64px" viewBox="0 0 64 64" version="1.1">
<defs>
<linearGradient id="linear0" gradientUnits="userSpaceOnUse" x1="0" y1="0" x2="0" y2="1" gradientTransform="matrix(55.351351,0,0,44.27928,4.324324,9.86036)">
<stop offset="0" style="stop-color:#ffae00;stop-opacity:1;"/>
<stop offset="0.5" style="stop-color:#dddddd;stop-opacity:1;"/>
<stop offset="1" style="stop-color:#bf1d1d;stop-opacity:1;"/>
</linearGradient>
</defs>
<g id="surface1">
<path style=" stroke:none;fill-rule:evenodd;fill:url(#linear0);" d="M 22.6875 28.945312 L 9.863281 20.929688 L 9.863281 48.605469 L 54.136719 48.605469 L 54.136719 20.929688 L 41.929688 28.5625 L 41.929688 28.265625 C 41.929688 26.664062 41.515625 25.121094 40.753906 23.761719 L 54.136719 15.394531 L 9.863281 15.394531 L 24.324219 24.433594 C 23.78125 25.621094 23.488281 26.921875 23.488281 28.265625 L 23.488281 28.679688 C 23.210938 28.738281 22.941406 28.828125 22.6875 28.945312 Z M 54.136719 9.863281 L 9.863281 9.863281 C 6.8125 9.863281 4.351562 12.351562 4.351562 15.394531 L 4.324219 48.605469 C 4.324219 51.648438 6.8125 54.136719 9.863281 54.136719 L 54.136719 54.136719 C 57.1875 54.136719 59.675781 51.648438 59.675781 48.605469 L 59.675781 15.394531 C 59.675781 12.351562 57.1875 9.863281 54.136719 9.863281 Z M 32.71875 35.972656 C 33.734375 35.972656 34.554688 36.792969 34.554688 37.8125 C 34.554688 38.410156 34.261719 38.933594 33.820312 39.269531 L 33.820312 40.746094 C 33.820312 41.351562 33.324219 41.847656 32.71875 41.847656 C 32.113281 41.847656 31.617188 41.351562 31.617188 40.746094 L 31.617188 39.269531 C 31.160156 38.929688 30.886719 38.386719 30.882812 37.8125 C 30.882812 36.792969 31.703125 35.972656 32.71875 35.972656 Z M 32.71875 25.699219 C 34.109375 25.699219 35.289062 26.878906 35.289062 28.269531 L 35.289062 30.835938 L 30.148438 30.835938 L 30.148438 28.269531 C 30.148438 26.878906 31.324219 25.699219 32.71875 25.699219 Z M 32.71875 21.296875 C 28.878906 21.296875 25.742188 24.433594 25.742188 28.269531 L 25.742188 30.835938 L 24.28125 30.835938 C 23.46875 30.835938 22.8125 31.5 22.8125 32.308594 L 22.8125 44.785156 C 22.8125 45.589844 23.46875 46.246094 24.28125 46.246094 L 41.160156 46.246094 C 41.96875 46.246094 42.625 45.589844 42.625 44.785156 L 42.625 32.308594 C 42.625 31.5 41.96875 30.835938 41.160156 30.835938 L 39.6875 30.835938 L 39.6875 28.269531 C 39.6875 24.433594 36.554688 21.296875 32.71875 21.296875 Z M 32.71875 21.296875 "/>
</g>
</svg>
