<svg xmlns="http://www.w3.org/2000/svg" xmlns:xlink="http://www.w3.org/1999/xlink" width="64px" height="64px" viewBox="0 0 64 64" version="1.1">
<g id="surface1">
<path style=" stroke:none;fill-rule:nonzero;fill:rgb(94.901961%,94.901961%,94.901961%);fill-opacity:1;" d="M 32 8.648438 C 44.894531 8.648438 55.351562 19.105469 55.351562 32 C 55.351562 44.894531 44.894531 55.351562 32 55.351562 C 19.105469 55.351562 8.648438 44.894531 8.648438 32 C 8.648438 19.105469 19.105469 8.648438 32 8.648438 Z M 32 8.648438 "/>
<path style=" stroke:none;fill-rule:nonzero;fill:rgb(100%,42.745098%,43.529412%);fill-opacity:1;" d="M 32 17.988281 L 19.5 28.429688 L 23.316406 32.816406 L 32 25.566406 L 40.679688 32.816406 L 44.496094 28.429688 Z M 32 17.988281 "/>
<path style=" stroke:none;fill-rule:nonzero;fill:rgb(41.568628%,49.411765%,98.431373%);fill-opacity:1;" d="M 40.621094 35.800781 C 38.742188 38.898438 35.328125 40.730469 31.710938 40.578125 C 28.386719 40.4375 25.351562 38.644531 23.625 35.800781 L 19.285156 39.070312 C 22 43.210938 26.539062 45.789062 31.484375 45.996094 C 36.722656 46.210938 41.710938 43.746094 44.710938 39.449219 Z M 40.621094 35.800781 "/>
</g>
</svg>
