<svg xmlns="http://www.w3.org/2000/svg" xmlns:xlink="http://www.w3.org/1999/xlink" width="64px" height="64px" viewBox="0 0 64 64" version="1.1">
<defs>
<linearGradient id="linear0" gradientUnits="userSpaceOnUse" x1="0" y1="0" x2="0" y2="1" gradientTransform="matrix(55.351351,0,0,44.666666,4.324324,9.81982)">
<stop offset="0" style="stop-color:#00fff2;stop-opacity:1;"/>
<stop offset="0.5" style="stop-color:#dddddd;stop-opacity:1;"/>
<stop offset="1" style="stop-color:#0062ff;stop-opacity:1;"/>
</linearGradient>
</defs>
<g id="surface1">
<path style=" stroke:none;fill-rule:evenodd;fill:url(#linear0);" d="M 4.324219 47.566406 L 59.675781 47.566406 L 59.675781 54.488281 L 4.324219 54.488281 Z M 20.390625 40.707031 C 18.605469 40.707031 16.984375 40.410156 15.53125 39.8125 C 14.082031 39.214844 12.890625 38.417969 11.96875 37.421875 C 11.039062 36.429688 10.265625 35.246094 9.636719 33.882812 C 9.015625 32.515625 8.566406 31.121094 8.296875 29.699219 C 8.027344 28.273438 7.890625 26.796875 7.890625 25.261719 C 7.890625 23.441406 8.117188 21.664062 8.578125 19.929688 C 9.03125 18.191406 9.726562 16.550781 10.664062 15 C 11.605469 13.449219 12.914062 12.199219 14.589844 11.246094 C 16.269531 10.292969 18.203125 9.820312 20.390625 9.820312 C 23.039062 9.820312 25.257812 10.4375 27.050781 11.671875 C 28.839844 12.910156 30.09375 14.410156 30.808594 16.171875 L 26.199219 18.265625 C 25.402344 17.039062 24.566406 16.144531 23.703125 15.578125 C 22.835938 15.011719 21.730469 14.726562 20.390625 14.726562 C 19.085938 14.726562 17.941406 15.042969 16.960938 15.679688 C 15.976562 16.324219 15.226562 17.175781 14.699219 18.242188 C 14.171875 19.3125 13.789062 20.433594 13.542969 21.613281 C 13.308594 22.796875 13.1875 24.011719 13.1875 25.261719 C 13.1875 28.050781 13.800781 30.496094 15.039062 32.605469 C 16.273438 34.707031 18.0625 35.761719 20.390625 35.761719 C 22.671875 35.761719 24.578125 34.484375 26.113281 31.917969 L 30.847656 33.710938 C 28.769531 38.375 25.289062 40.707031 20.390625 40.707031 Z M 56.109375 40.191406 L 36.484375 40.191406 L 36.484375 10.328125 L 41.597656 10.328125 L 41.597656 35.289062 L 56.109375 35.289062 Z M 56.109375 40.191406 "/>
</g>
</svg>
