<svg xmlns="http://www.w3.org/2000/svg" xmlns:xlink="http://www.w3.org/1999/xlink" width="64px" height="64px" viewBox="0 0 64 64" version="1.1">
<defs>
<linearGradient id="linear0" gradientUnits="userSpaceOnUse" x1="0" y1="0" x2="0" y2="1" gradientTransform="matrix(55.351351,0,0,55.351351,4.324324,4.324324)">
<stop offset="0" style="stop-color:#ffae00;stop-opacity:1;"/>
<stop offset="0.5" style="stop-color:#dddddd;stop-opacity:1;"/>
<stop offset="1" style="stop-color:#6600ff;stop-opacity:1;"/>
</linearGradient>
</defs>
<g id="surface1">
<path style=" stroke:none;fill-rule:nonzero;fill:url(#linear0);" d="M 48.757812 4.324219 L 47.363281 5.746094 L 11.902344 41.707031 L 11.78125 41.882812 C 11.539062 42.273438 10.710938 43.664062 9.476562 46.1875 C 8.234375 48.707031 6.707031 52.160156 5.472656 56.039062 L 4.324219 59.675781 L 7.960938 58.527344 C 11.339844 57.4375 14.636719 56.097656 17.8125 54.523438 C 20.335938 53.285156 21.714844 52.46875 22.117188 52.214844 L 22.292969 52.097656 L 59.675781 15.242188 Z M 47.8125 35.957031 L 47.8125 39.90625 L 59.675781 39.90625 L 59.675781 35.957031 Z M 15.753906 43.429688 L 20.570312 48.246094 L 19.867188 48.941406 C 19.894531 48.921875 18.375 49.835938 16.070312 50.972656 C 15.226562 51.386719 13.949219 51.851562 12.773438 52.3125 L 11.6875 51.226562 C 12.148438 50.050781 12.613281 48.773438 13.027344 47.929688 C 14.164062 45.625 15.078125 44.109375 15.058594 44.136719 Z M 39.90625 43.863281 L 39.90625 47.8125 L 59.675781 47.8125 L 59.675781 43.863281 Z M 32 51.769531 L 32 55.71875 L 59.675781 55.71875 L 59.675781 51.769531 Z M 32 51.769531 "/>
</g>
</svg>
