<svg xmlns="http://www.w3.org/2000/svg" xmlns:xlink="http://www.w3.org/1999/xlink" width="64px" height="64px" viewBox="0 0 64 64" version="1.1">
<defs>
<linearGradient id="linear0" gradientUnits="userSpaceOnUse" x1="0" y1="0" x2="0" y2="1" gradientTransform="matrix(55.351351,0,0,51.666666,4.324324,6.166666)">
<stop offset="0" style="stop-color:#00a2ff;stop-opacity:1;"/>
<stop offset="0.5" style="stop-color:#dddddd;stop-opacity:1;"/>
<stop offset="1" style="stop-color:#00ffae;stop-opacity:1;"/>
</linearGradient>
</defs>
<g id="surface1">
<path style=" stroke:none;fill-rule:nonzero;fill:url(#linear0);" d="M 19.0625 6.164062 C 14.417969 6.226562 11.023438 6.058594 8.242188 7.589844 C 6.855469 8.355469 5.761719 9.652344 5.152344 11.269531 C 4.542969 12.890625 4.324219 14.8125 4.324219 17.238281 L 4.324219 46.761719 C 4.324219 49.1875 4.542969 51.109375 5.152344 52.730469 C 5.761719 54.347656 6.855469 55.644531 8.242188 56.410156 C 11.023438 57.941406 14.417969 57.773438 19.0625 57.835938 L 44.9375 57.835938 C 49.582031 57.773438 52.976562 57.941406 55.757812 56.410156 C 57.144531 55.644531 58.238281 54.347656 58.847656 52.730469 C 59.457031 51.109375 59.675781 49.1875 59.675781 46.761719 L 59.675781 17.238281 C 59.675781 14.8125 59.457031 12.890625 58.847656 11.269531 C 58.238281 9.652344 57.144531 8.355469 55.757812 7.589844 C 52.976562 6.058594 49.582031 6.226562 44.9375 6.164062 Z M 47.050781 20.882812 C 47.449219 20.933594 47.808594 21.117188 48 21.375 L 48.320312 21.792969 C 48.785156 22.417969 48.707031 23.625 47.945312 24.1875 L 35.652344 31.5 C 35.675781 31.664062 35.6875 31.835938 35.6875 32 C 35.6875 33.320312 34.988281 34.53125 33.847656 35.191406 L 33.847656 44.914062 C 33.847656 45.9375 33.078125 46.761719 32.117188 46.761719 L 31.886719 46.761719 C 30.929688 46.761719 30.160156 45.9375 30.160156 44.914062 L 30.160156 35.1875 C 29.015625 34.527344 28.3125 33.3125 28.3125 32 C 28.3125 31.855469 28.324219 31.707031 28.335938 31.566406 L 19.738281 27.941406 C 18.984375 27.382812 18.90625 26.175781 19.375 25.550781 L 19.6875 25.132812 C 20.078125 24.613281 21.113281 24.394531 21.875 24.957031 L 30.53125 28.621094 C 30.996094 28.414062 31.496094 28.3125 32 28.3125 C 32.488281 28.3125 32.96875 28.40625 33.417969 28.59375 L 45.8125 21.203125 C 46.199219 20.921875 46.648438 20.835938 47.050781 20.882812 Z M 47.050781 20.882812 "/>
</g>
</svg>
