<svg xmlns="http://www.w3.org/2000/svg" xmlns:xlink="http://www.w3.org/1999/xlink" width="64px" height="64px" viewBox="0 0 64 64" version="1.1">
<defs>
<linearGradient id="linear0" gradientUnits="userSpaceOnUse" x1="0" y1="0" x2="0" y2="1" gradientTransform="matrix(37.369368,0,0,51.891892,12.972973,6.054054)">
<stop offset="0" style="stop-color:#ffae00;stop-opacity:1;"/>
<stop offset="0.5" style="stop-color:#dddddd;stop-opacity:1;"/>
<stop offset="1" style="stop-color:#bf1d1d;stop-opacity:1;"/>
</linearGradient>
</defs>
<g id="surface1">
<path style=" stroke:none;fill-rule:nonzero;fill:url(#linear0);" d="M 26.867188 57.894531 C 26.558594 57.839844 26.300781 57.726562 26.164062 57.566406 C 26.011719 57.402344 25.941406 57.058594 25.875 56.214844 C 25.769531 54.875 25.9375 54.160156 26.40625 53.917969 C 26.933594 53.644531 28.378906 53.613281 28.863281 53.855469 C 29.179688 54.015625 29.347656 54.363281 29.320312 54.8125 L 29.300781 55.117188 L 28.984375 55.136719 C 28.625 55.152344 28.511719 55.070312 28.511719 54.792969 C 28.511719 54.511719 28.328125 54.414062 27.757812 54.390625 C 27.160156 54.367188 26.847656 54.46875 26.757812 54.707031 C 26.664062 54.949219 26.679688 56.691406 26.78125 56.921875 C 26.882812 57.171875 27.105469 57.253906 27.664062 57.253906 C 28.351562 57.253906 28.570312 57.109375 28.570312 56.664062 C 28.570312 56.460938 28.707031 56.375 29.023438 56.375 C 29.382812 56.378906 29.414062 56.421875 29.375 56.867188 C 29.3125 57.5625 29.132812 57.773438 28.488281 57.890625 C 28.097656 57.960938 27.28125 57.960938 26.867188 57.894531 Z M 31.96875 57.890625 C 31.28125 57.769531 31.175781 57.582031 31.175781 56.433594 C 31.175781 55.457031 31.242188 55.261719 31.636719 55.0625 C 31.882812 54.945312 32.789062 54.902344 33.207031 54.988281 C 33.761719 55.105469 33.933594 55.511719 33.886719 56.589844 C 33.855469 57.355469 33.757812 57.617188 33.429688 57.785156 C 33.164062 57.917969 32.429688 57.972656 31.96875 57.890625 Z M 33.039062 57.203125 C 33.152344 57.085938 33.164062 57.011719 33.164062 56.433594 C 33.164062 55.847656 33.160156 55.785156 33.03125 55.664062 C 32.921875 55.550781 32.835938 55.527344 32.523438 55.527344 C 32.207031 55.527344 32.121094 55.550781 32.011719 55.664062 C 31.890625 55.785156 31.878906 55.847656 31.878906 56.429688 C 31.878906 57.089844 31.917969 57.207031 32.171875 57.320312 C 32.386719 57.410156 32.894531 57.339844 33.039062 57.203125 Z M 38.566406 57.902344 C 37.863281 57.769531 37.699219 57.46875 37.71875 56.347656 C 37.734375 55.484375 37.820312 55.273438 38.214844 55.082031 C 38.433594 54.972656 38.589844 54.949219 39.015625 54.949219 C 39.636719 54.945312 39.929688 55.03125 40.125 55.265625 C 40.355469 55.539062 40.488281 56.421875 40.324219 56.53125 C 40.285156 56.5625 39.839844 56.59375 39.339844 56.609375 L 38.4375 56.636719 L 38.441406 56.894531 C 38.449219 57.257812 38.597656 57.367188 39.0625 57.367188 C 39.472656 57.367188 39.613281 57.3125 39.664062 57.105469 C 39.699219 56.960938 39.714844 56.957031 40.039062 56.972656 C 40.339844 56.988281 40.367188 57 40.386719 57.136719 C 40.410156 57.335938 40.179688 57.671875 39.929688 57.792969 C 39.6875 57.910156 38.957031 57.96875 38.566406 57.894531 Z M 39.648438 55.910156 C 39.621094 55.585938 39.5 55.496094 39.085938 55.496094 C 38.675781 55.496094 38.496094 55.589844 38.449219 55.828125 C 38.390625 56.132812 38.429688 56.148438 39.070312 56.132812 L 39.664062 56.113281 Z M 48.339844 57.894531 C 48.039062 57.820312 47.855469 57.6875 47.746094 57.460938 C 47.527344 56.996094 47.707031 56.417969 48.132812 56.226562 C 48.449219 56.082031 49.125 56.082031 49.402344 56.226562 C 49.570312 56.3125 49.59375 56.3125 49.625 56.230469 C 49.6875 56.082031 49.605469 55.675781 49.496094 55.554688 C 49.417969 55.46875 49.3125 55.441406 49.078125 55.441406 C 48.785156 55.441406 48.738281 55.460938 48.566406 55.644531 C 48.40625 55.824219 48.347656 55.851562 48.105469 55.851562 C 47.769531 55.851562 47.714844 55.761719 47.835938 55.417969 C 47.960938 55.054688 48.226562 54.945312 49.003906 54.949219 C 49.5 54.949219 49.671875 54.972656 49.886719 55.070312 C 50.3125 55.261719 50.355469 55.445312 50.335938 56.789062 L 50.320312 57.867188 L 49.988281 57.886719 C 49.699219 57.902344 49.660156 57.890625 49.632812 57.785156 L 49.597656 57.664062 L 49.402344 57.78125 C 49.164062 57.917969 48.652344 57.972656 48.339844 57.894531 Z M 49.511719 57.28125 C 49.625 57.164062 49.648438 57.09375 49.621094 56.972656 C 49.558594 56.714844 49.441406 56.648438 49.039062 56.621094 C 48.6875 56.597656 48.648438 56.613281 48.503906 56.753906 C 48.375 56.882812 48.351562 56.945312 48.382812 57.09375 C 48.433594 57.363281 48.5625 57.429688 48.988281 57.429688 C 49.3125 57.429688 49.378906 57.410156 49.511719 57.28125 Z M 24.390625 57.808594 C 21.851562 57.460938 19.363281 56.257812 17.511719 54.476562 C 16.226562 53.238281 15.1875 51.71875 14.578125 50.199219 C 13.78125 48.199219 13.402344 46.734375 13.109375 44.515625 C 12.988281 43.660156 12.972656 43.265625 12.972656 41.59375 C 12.972656 39.597656 13.003906 39.144531 13.296875 37.054688 C 14.417969 29.03125 18.550781 20.488281 24.003906 14.902344 C 26.039062 12.820312 28.011719 11.292969 30.09375 10.191406 C 30.773438 9.835938 32.125 9.261719 32.613281 9.125 C 32.886719 9.050781 40.488281 6.285156 40.886719 6.113281 C 41.058594 6.039062 41.109375 6.039062 41.085938 6.097656 C 41.066406 6.136719 40.472656 7.625 39.761719 9.402344 C 39.050781 11.175781 38.460938 12.664062 38.460938 12.707031 C 38.460938 12.757812 38.675781 13.058594 38.933594 13.382812 L 39.394531 13.972656 L 39.40625 33.875 C 39.410156 45.554688 39.390625 53.769531 39.363281 53.769531 C 39.335938 53.769531 38.835938 53.242188 38.261719 52.597656 C 37.6875 51.957031 37.179688 51.429688 37.136719 51.429688 C 37.097656 51.429688 36.933594 51.652344 36.765625 51.921875 C 36.605469 52.199219 36.28125 52.671875 36.050781 52.976562 C 35.449219 53.785156 33.855469 55.363281 33.753906 55.253906 C 33.738281 55.238281 33.863281 55.042969 34.023438 54.828125 C 35.078125 53.4375 35.789062 51.484375 36.070312 49.207031 C 36.164062 48.460938 36.164062 46.246094 36.078125 45.367188 C 35.335938 38.265625 31.269531 30.949219 26.164062 27.539062 C 25.394531 27.023438 24.207031 26.417969 23.515625 26.191406 C 23.257812 26.109375 21.855469 25.605469 20.410156 25.078125 C 18.960938 24.542969 17.761719 24.136719 17.734375 24.164062 C 17.707031 24.1875 18.066406 25.164062 18.53125 26.328125 C 19 27.496094 19.382812 28.484375 19.382812 28.527344 C 19.382812 28.566406 19.246094 28.761719 19.089844 28.960938 L 18.796875 29.324219 L 18.796875 42.382812 C 18.796875 49.785156 18.8125 55.441406 18.847656 55.441406 C 18.875 55.441406 19.210938 55.085938 19.59375 54.648438 C 19.976562 54.214844 20.308594 53.863281 20.328125 53.863281 C 20.355469 53.863281 20.527344 54.089844 20.710938 54.367188 C 21.136719 55.011719 22.09375 56.011719 22.710938 56.457031 C 23.351562 56.914062 24.265625 57.382812 24.972656 57.609375 C 25.292969 57.707031 25.613281 57.8125 25.675781 57.839844 C 25.863281 57.917969 25.054688 57.902344 24.394531 57.808594 Z M 29.886719 57.824219 C 29.875 57.785156 29.863281 56.855469 29.875 55.761719 L 29.886719 53.769531 L 30.53125 53.769531 L 30.558594 57.894531 L 30.234375 57.894531 C 30.027344 57.894531 29.894531 57.867188 29.878906 57.824219 Z M 34.511719 57.824219 C 34.488281 57.785156 34.488281 57.132812 34.496094 56.375 L 34.511719 55 L 34.835938 55 C 35.125 55 35.160156 55.011719 35.175781 55.132812 C 35.203125 55.292969 35.210938 55.292969 35.414062 55.144531 C 35.835938 54.835938 36.566406 54.878906 36.878906 55.234375 C 37.109375 55.5 37.125 55.632812 37.109375 56.839844 L 37.089844 57.867188 L 36.757812 57.886719 L 36.429688 57.902344 L 36.40625 56.8125 C 36.386719 55.800781 36.378906 55.714844 36.269531 55.636719 C 36.078125 55.496094 35.882812 55.472656 35.632812 55.5625 C 35.242188 55.691406 35.1875 55.875 35.1875 56.972656 L 35.1875 57.894531 L 34.863281 57.894531 C 34.652344 57.894531 34.527344 57.867188 34.511719 57.824219 Z M 40.789062 57.863281 C 40.765625 57.835938 40.746094 57.699219 40.746094 57.550781 C 40.746094 57.292969 40.773438 57.253906 41.449219 56.46875 C 41.835938 56.023438 42.152344 55.632812 42.152344 55.605469 C 42.152344 55.578125 41.894531 55.554688 41.582031 55.554688 C 41.269531 55.554688 40.976562 55.53125 40.9375 55.503906 C 40.886719 55.472656 40.863281 55.367188 40.878906 55.230469 L 40.890625 55 L 43.117188 55 L 43.152344 55.585938 L 42.417969 56.433594 C 42.011719 56.894531 41.703125 57.296875 41.730469 57.320312 C 41.753906 57.347656 42.078125 57.375 42.445312 57.382812 L 43.117188 57.402344 L 43.117188 57.867188 L 41.972656 57.886719 C 41.339844 57.894531 40.8125 57.882812 40.789062 57.863281 Z M 43.644531 57.824219 C 43.625 57.785156 43.621094 57.132812 43.632812 56.375 L 43.648438 55 L 44.292969 55 L 44.308594 56.449219 L 44.324219 57.894531 L 44 57.894531 C 43.792969 57.894531 43.664062 57.867188 43.648438 57.824219 Z M 45.023438 55.820312 L 45.023438 53.734375 L 45.363281 53.753906 L 45.691406 53.769531 L 45.691406 57.867188 L 45.363281 57.886719 L 45.023438 57.902344 Z M 46.394531 57.824219 C 46.382812 57.785156 46.375 56.855469 46.382812 55.761719 L 46.394531 53.769531 L 46.710938 53.753906 C 46.921875 53.738281 47.042969 53.761719 47.078125 53.8125 C 47.132812 53.902344 47.144531 57.664062 47.089844 57.808594 C 47.042969 57.921875 46.4375 57.941406 46.390625 57.828125 Z M 43.636719 54.246094 C 43.625 54.199219 43.617188 54.070312 43.625 53.960938 C 43.644531 53.769531 43.648438 53.769531 43.988281 53.753906 L 44.328125 53.734375 L 44.3125 54.015625 L 44.292969 54.296875 L 43.984375 54.3125 C 43.757812 54.328125 43.664062 54.3125 43.644531 54.246094 Z M 43.636719 54.246094 "/>
</g>
</svg>
