<svg xmlns="http://www.w3.org/2000/svg" xmlns:xlink="http://www.w3.org/1999/xlink" width="64px" height="64px" viewBox="0 0 64 64" version="1.1">
<defs>
<linearGradient id="linear0" gradientUnits="userSpaceOnUse" x1="0" y1="0" x2="0" y2="1" gradientTransform="matrix(55.351351,0,0,55.351351,4.324324,4.324324)">
<stop offset="0" style="stop-color:#00fff2;stop-opacity:1;"/>
<stop offset="0.5" style="stop-color:#dddddd;stop-opacity:1;"/>
<stop offset="1" style="stop-color:#0062ff;stop-opacity:1;"/>
</linearGradient>
</defs>
<g id="surface1">
<path style=" stroke:none;fill-rule:nonzero;fill:url(#linear0);" d="M 5.585938 4.324219 C 4.886719 4.324219 4.324219 4.886719 4.324219 5.585938 L 4.324219 58.414062 C 4.324219 59.113281 4.886719 59.675781 5.585938 59.675781 L 19.421875 59.675781 C 20.113281 59.675781 20.675781 59.113281 20.675781 58.414062 L 20.675781 5.585938 C 20.675781 4.886719 20.113281 4.324219 19.421875 4.324219 Z M 30.839844 7.40625 C 30.347656 7.339844 29.863281 7.582031 29.605469 8.011719 L 23.191406 18.894531 L 23.191406 34.78125 L 28.09375 37.597656 L 26.8125 39.761719 L 23.191406 37.679688 L 23.191406 51.132812 L 43.699219 16.3125 C 44.042969 15.710938 43.847656 14.9375 43.242188 14.585938 L 31.320312 7.566406 C 31.175781 7.484375 31.011719 7.429688 30.839844 7.40625 Z M 25.285156 20.121094 L 35.125 25.789062 L 33.839844 27.949219 L 23.988281 22.285156 Z M 48.335938 20.6875 C 48.175781 20.71875 48.023438 20.773438 47.875 20.863281 L 41.730469 24.609375 L 38.625 29.863281 L 44.335938 39.226562 L 42.1875 40.53125 L 37.1875 32.320312 L 30.664062 43.390625 L 32.511719 46.429688 L 30.367188 47.730469 L 29.21875 45.851562 L 24.152344 54.460938 L 56.386719 34.824219 C 56.671875 34.648438 56.878906 34.375 56.957031 34.050781 C 57.03125 33.726562 56.984375 33.382812 56.808594 33.097656 L 49.605469 21.28125 C 49.433594 20.996094 49.160156 20.792969 48.828125 20.710938 C 48.671875 20.675781 48.5 20.664062 48.335938 20.6875 Z M 47.28125 43.324219 L 43.324219 45.742188 L 32 52.675781 L 32 57.164062 L 29.488281 57.164062 L 29.488281 54.210938 L 23.191406 58.0625 L 23.191406 59.675781 L 58.414062 59.675781 C 59.113281 59.675781 59.675781 59.113281 59.675781 58.414062 L 59.675781 44.578125 C 59.675781 43.886719 59.113281 43.324219 58.414062 43.324219 Z M 43.324219 45.835938 L 45.835938 45.835938 L 45.835938 57.164062 L 43.324219 57.164062 Z M 12.503906 49.613281 C 13.542969 49.613281 14.386719 50.457031 14.386719 51.496094 C 14.386719 52.539062 13.542969 53.386719 12.503906 53.386719 C 11.460938 53.386719 10.613281 52.539062 10.613281 51.496094 C 10.613281 50.457031 11.460938 49.613281 12.503906 49.613281 Z M 12.503906 49.613281 "/>
</g>
</svg>
