<svg xmlns="http://www.w3.org/2000/svg" xmlns:xlink="http://www.w3.org/1999/xlink" width="64px" height="64px" viewBox="0 0 64 64" version="1.1">
<defs>
<linearGradient id="linear0" gradientUnits="userSpaceOnUse" x1="0" y1="0" x2="0" y2="1" gradientTransform="matrix(55.351351,0,0,55.351351,4.324324,4.324324)">
<stop offset="0" style="stop-color:#ffae00;stop-opacity:1;"/>
<stop offset="0.5" style="stop-color:#dddddd;stop-opacity:1;"/>
<stop offset="1" style="stop-color:#bf1d1d;stop-opacity:1;"/>
</linearGradient>
</defs>
<g id="surface1">
<path style=" stroke:none;fill-rule:evenodd;fill:url(#linear0);" d="M 49.523438 10.585938 C 44.746094 6.671875 38.644531 4.324219 32 4.324219 C 16.730469 4.324219 4.324219 16.730469 4.324219 32 C 4.324219 47.269531 16.730469 59.675781 32 59.675781 C 38.300781 59.675781 44.117188 57.5625 48.769531 54.003906 L 53.375 59.59375 L 59.613281 53.808594 L 53.03125 49.976562 C 57.175781 45.136719 59.675781 38.863281 59.675781 32 C 59.675781 25.363281 57.335938 19.269531 53.433594 14.5 L 56.8125 11.117188 L 54.957031 5.152344 Z M 47.066406 13.039062 C 42.8125 9.660156 37.511719 7.785156 32 7.785156 C 25.566406 7.785156 19.40625 10.339844 14.875 14.875 C 10.339844 19.40625 7.785156 25.566406 7.785156 32 C 7.785156 38.433594 10.339844 44.59375 14.875 49.125 C 19.40625 53.660156 25.566406 56.214844 32 56.214844 C 37.394531 56.214844 42.652344 54.417969 46.910156 51.09375 C 52.757812 46.496094 56.214844 39.4375 56.214844 32 C 56.214844 26.503906 54.347656 21.207031 50.972656 16.957031 L 37.671875 30.261719 C 37.835938 30.8125 37.929688 31.394531 37.929688 32 C 37.929688 35.273438 35.273438 37.929688 32 37.929688 C 28.851562 37.929688 26.269531 35.46875 26.082031 32.363281 L 17.496094 27.351562 L 18.363281 21.570312 L 28.335938 27.335938 C 29.351562 26.539062 30.621094 26.070312 32 26.070312 C 32.617188 26.070312 33.210938 26.164062 33.765625 26.339844 Z M 47.066406 13.039062 "/>
</g>
</svg>
