<svg xmlns="http://www.w3.org/2000/svg" xmlns:xlink="http://www.w3.org/1999/xlink" width="64px" height="64px" viewBox="0 0 64 64" version="1.1">
<defs>
<linearGradient id="linear0" gradientUnits="userSpaceOnUse" x1="0" y1="0" x2="0" y2="1" gradientTransform="matrix(55.351351,0,0,55.351351,4.324324,4.324324)">
<stop offset="0" style="stop-color:#05f7ff;stop-opacity:1;"/>
<stop offset="0.5" style="stop-color:#dddddd;stop-opacity:1;"/>
<stop offset="1" style="stop-color:#e6ff05;stop-opacity:1;"/>
</linearGradient>
</defs>
<g id="surface1">
<path style=" stroke:none;fill-rule:evenodd;fill:url(#linear0);" d="M 26.21875 23.929688 L 37.78125 23.929688 C 39.042969 23.929688 40.070312 24.957031 40.070312 26.21875 L 40.070312 37.78125 C 40.070312 39.042969 39.042969 40.070312 37.78125 40.070312 L 26.21875 40.070312 C 24.957031 40.070312 23.929688 39.042969 23.929688 37.78125 L 23.929688 26.21875 C 23.929688 24.957031 24.957031 23.929688 26.21875 23.929688 Z M 6.613281 23.929688 L 18.179688 23.929688 C 19.441406 23.929688 20.46875 24.957031 20.46875 26.21875 L 20.46875 37.78125 C 20.46875 39.042969 19.441406 40.070312 18.179688 40.070312 L 6.613281 40.070312 C 5.351562 40.070312 4.324219 39.042969 4.324219 37.78125 L 4.324219 26.21875 C 4.324219 24.957031 5.351562 23.929688 6.613281 23.929688 Z M 45.820312 23.929688 L 57.386719 23.929688 C 58.648438 23.929688 59.675781 24.957031 59.675781 26.21875 L 59.675781 37.78125 C 59.675781 39.042969 58.648438 40.070312 57.386719 40.070312 L 45.820312 40.070312 C 44.558594 40.070312 43.53125 39.042969 43.53125 37.78125 L 43.53125 26.21875 C 43.53125 24.957031 44.558594 23.929688 45.820312 23.929688 Z M 26.21875 43.53125 L 37.78125 43.53125 C 39.042969 43.53125 40.070312 44.558594 40.070312 45.820312 L 40.070312 57.386719 C 40.070312 58.648438 39.042969 59.675781 37.78125 59.675781 L 26.21875 59.675781 C 24.957031 59.675781 23.929688 58.648438 23.929688 57.386719 L 23.929688 45.820312 C 23.929688 44.558594 24.957031 43.53125 26.21875 43.53125 Z M 6.613281 43.53125 L 18.179688 43.53125 C 19.441406 43.53125 20.46875 44.558594 20.46875 45.820312 L 20.46875 57.386719 C 20.46875 58.648438 19.441406 59.675781 18.179688 59.675781 L 6.613281 59.675781 C 5.351562 59.675781 4.324219 58.648438 4.324219 57.386719 L 4.324219 45.820312 C 4.324219 44.558594 5.351562 43.53125 6.613281 43.53125 Z M 45.820312 43.53125 L 57.386719 43.53125 C 58.648438 43.53125 59.675781 44.558594 59.675781 45.820312 L 59.675781 57.386719 C 59.675781 58.648438 58.648438 59.675781 57.386719 59.675781 L 45.820312 59.675781 C 44.558594 59.675781 43.53125 58.648438 43.53125 57.386719 L 43.53125 45.820312 C 43.53125 44.558594 44.558594 43.53125 45.820312 43.53125 Z M 6.613281 4.324219 L 18.179688 4.324219 C 19.441406 4.324219 20.46875 5.351562 20.46875 6.613281 L 20.46875 18.179688 C 20.46875 19.441406 19.441406 20.46875 18.179688 20.46875 L 6.613281 20.46875 C 5.351562 20.46875 4.324219 19.441406 4.324219 18.179688 L 4.324219 6.613281 C 4.324219 5.351562 5.351562 4.324219 6.613281 4.324219 Z M 6.613281 4.324219 "/>
</g>
</svg>
