<svg xmlns="http://www.w3.org/2000/svg" xmlns:xlink="http://www.w3.org/1999/xlink" width="64px" height="64px" viewBox="0 0 64 64" version="1.1">
<defs>
<linearGradient id="linear0" gradientUnits="userSpaceOnUse" x1="0" y1="0" x2="0" y2="1" gradientTransform="matrix(55.351351,0,0,39.53153,4.324324,12.234234)">
<stop offset="0" style="stop-color:#ffae00;stop-opacity:1;"/>
<stop offset="0.5" style="stop-color:#dddddd;stop-opacity:1;"/>
<stop offset="1" style="stop-color:#bf1d1d;stop-opacity:1;"/>
</linearGradient>
</defs>
<g id="surface1">
<path style=" stroke:none;fill-rule:evenodd;fill:url(#linear0);" d="M 54.40625 46.496094 L 54.40625 25.410156 L 43.863281 25.410156 L 43.863281 46.496094 L 49.132812 46.496094 L 49.132812 51.765625 L 59.675781 51.765625 L 59.675781 46.496094 Z M 25.410156 22.773438 L 22.773438 22.773438 L 22.773438 17.503906 L 14.867188 17.503906 L 14.867188 46.496094 L 22.773438 46.496094 L 22.773438 41.226562 L 25.410156 41.226562 Z M 30.679688 22.773438 L 30.679688 17.503906 L 28.042969 17.503906 L 28.042969 12.234375 L 4.324219 12.234375 L 4.324219 51.765625 L 28.042969 51.765625 L 28.042969 46.496094 L 30.679688 46.496094 L 30.679688 41.226562 L 35.957031 41.226562 L 35.957031 22.773438 Z M 43.863281 12.234375 L 54.40625 12.234375 L 54.40625 17.503906 L 43.863281 17.503906 Z M 43.863281 12.234375 "/>
</g>
</svg>
