<svg xmlns="http://www.w3.org/2000/svg" xmlns:xlink="http://www.w3.org/1999/xlink" width="64px" height="64px" viewBox="0 0 64 64" version="1.1">
<defs>
<linearGradient id="linear0" gradientUnits="userSpaceOnUse" x1="0" y1="0" x2="0" y2="1" gradientTransform="matrix(55.351351,0,0,55.351351,4.324324,4.324324)">
<stop offset="0" style="stop-color:#00a2ff;stop-opacity:1;"/>
<stop offset="0.5" style="stop-color:#dddddd;stop-opacity:1;"/>
<stop offset="1" style="stop-color:#00ffae;stop-opacity:1;"/>
</linearGradient>
</defs>
<g id="surface1">
<path style=" stroke:none;fill-rule:evenodd;fill:url(#linear0);" d="M 51.996094 36.355469 C 52.8125 35.070312 53.5 33.710938 54.109375 32.3125 C 54.554688 31.339844 54.902344 30.335938 55.210938 29.300781 C 55.867188 27.085938 56.214844 24.808594 56.214844 22.488281 C 56.253906 18.613281 54.902344 14.839844 52.378906 11.902344 C 50.199219 9.339844 47.011719 7.851562 43.691406 7.785156 C 40.199219 7.785156 36.878906 9.339844 34.664062 12.039062 C 34.003906 12.867188 33.039062 13.320312 32 13.320312 C 30.960938 13.320312 29.996094 12.867188 29.335938 12.039062 C 27.121094 9.339844 23.800781 7.785156 20.308594 7.785156 C 16.988281 7.851562 13.800781 9.339844 11.621094 11.902344 C 9.097656 14.839844 7.746094 18.613281 7.785156 22.488281 C 7.785156 24.808594 8.132812 27.085938 8.789062 29.300781 C 9.097656 30.335938 9.445312 31.339844 9.890625 32.3125 C 11.449219 35.910156 13.5625 39.230469 16.121094 42.171875 C 18.539062 44.972656 21.207031 47.605469 24.078125 49.917969 C 26.257812 51.71875 28.539062 53.414062 30.890625 54.9375 C 31.273438 55.179688 31.621094 55.417969 32 55.664062 C 32.378906 55.417969 32.726562 55.179688 33.109375 54.9375 C 35.460938 53.414062 37.742188 51.71875 39.921875 49.917969 C 41.671875 48.511719 43.347656 46.976562 44.914062 45.339844 C 44.09375 44.636719 43.253906 43.90625 42.382812 43.136719 C 41.921875 43.660156 41.460938 44.164062 40.984375 44.660156 C 38.660156 46.957031 35.625 49.835938 32.335938 49.171875 C 29.742188 48.363281 28.292969 47.746094 27.578125 46.234375 C 26.433594 42.320312 29.875 40.71875 31.875 38.671875 C 32.703125 37.8125 33.539062 36.867188 34.347656 35.847656 C 33.261719 34.863281 32.199219 33.855469 31.144531 32.839844 C 30.390625 32.121094 29.636719 31.382812 28.867188 30.636719 C 27.171875 28.773438 27.136719 27.9375 27.625 25.855469 C 28.011719 24.632812 28.550781 23.523438 29.179688 22.597656 C 30.160156 21.152344 31.320312 20.476562 32.511719 20.320312 C 34.511719 20.0625 36.59375 21.246094 38.023438 22.757812 C 39.058594 23.878906 40.082031 25.011719 41.097656 26.160156 C 41.882812 24.863281 42.523438 23.671875 43.039062 22.597656 C 44.246094 20.242188 44.472656 19.335938 46.792969 18.765625 C 47.457031 18.730469 48.039062 18.863281 48.621094 19.125 C 51.488281 20.460938 52.1875 24.597656 51.527344 27.023438 C 50.988281 28.847656 50.039062 31.148438 48.765625 33.605469 C 49.867188 34.542969 50.976562 35.496094 51.996094 36.355469 Z M 32 9.863281 C 34.914062 6.285156 39.082031 4.324219 43.707031 4.324219 C 52.527344 4.324219 59.675781 12.460938 59.675781 22.496094 C 59.675781 25.191406 59.257812 27.789062 58.523438 30.265625 C 58.523438 30.265625 57.863281 32.5 57.269531 33.734375 C 50.539062 49.46875 32 59.675781 32 59.675781 C 32 59.675781 13.460938 49.46875 6.730469 33.734375 C 6.136719 32.5 5.476562 30.265625 5.476562 30.265625 C 4.742188 27.789062 4.324219 25.191406 4.324219 22.496094 C 4.324219 12.460938 11.472656 4.324219 20.292969 4.324219 C 24.917969 4.324219 29.085938 6.285156 32 9.863281 Z M 32 9.863281 "/>
</g>
</svg>
