<svg xmlns="http://www.w3.org/2000/svg" xmlns:xlink="http://www.w3.org/1999/xlink" width="64px" height="64px" viewBox="0 0 64 64" version="1.1">
<g id="surface1">
<path style=" stroke:none;fill-rule:nonzero;fill:rgb(87.058824%,86.666667%,85.490197%);fill-opacity:1;" d="M 14.269531 9.511719 L 49.730469 9.511719 C 52.359375 9.511719 54.488281 11.640625 54.488281 14.269531 L 54.488281 49.730469 C 54.488281 52.359375 52.359375 54.488281 49.730469 54.488281 L 14.269531 54.488281 C 11.640625 54.488281 9.511719 52.359375 9.511719 49.730469 L 9.511719 14.269531 C 9.511719 11.640625 11.640625 9.511719 14.269531 9.511719 Z M 14.269531 9.511719 "/>
<path style=" stroke:none;fill-rule:nonzero;fill:rgb(75.294119%,74.901962%,73.725492%);fill-opacity:1;" d="M 42.277344 30.269531 C 40.800781 32.414062 40.148438 33.875 38.101562 34.144531 C 36.0625 34.414062 35.050781 33.167969 33.074219 31.484375 L 28.882812 33.902344 C 29.351562 36.453125 29.925781 37.957031 28.671875 39.589844 C 27.40625 41.238281 25.78125 41.0625 23.234375 41.265625 L 21.976562 45.941406 C 24.113281 47.414062 25.585938 48.066406 25.851562 50.113281 C 26.085938 51.90625 25.136719 52.933594 23.761719 54.488281 L 49.730469 54.488281 C 52.363281 54.488281 54.488281 52.363281 54.488281 49.730469 L 54.488281 47.699219 C 54.28125 47.328125 54.136719 46.90625 54.070312 46.394531 C 53.957031 45.511719 54.121094 44.820312 54.488281 44.164062 L 54.488281 37.472656 L 54.3125 37.175781 C 51.757812 37.644531 50.261719 38.21875 48.628906 36.964844 L 48.628906 36.960938 C 46.988281 35.710938 47.160156 34.125 46.949219 31.523438 L 42.273438 30.269531 Z M 39.800781 42.265625 C 41.925781 42.210938 44.011719 43.289062 45.148438 45.261719 C 46.804688 48.125 45.820312 51.789062 42.957031 53.441406 C 40.089844 55.097656 36.429688 54.113281 34.773438 51.25 C 33.121094 48.386719 34.101562 44.71875 36.964844 43.066406 C 37.863281 42.550781 38.835938 42.289062 39.800781 42.265625 Z M 39.800781 42.265625 "/>
<path style=" stroke:none;fill-rule:nonzero;fill:rgb(60.392159%,60.000002%,58.823532%);fill-opacity:1;" d="M 14.269531 9.511719 C 11.636719 9.511719 9.511719 11.636719 9.511719 14.269531 L 9.511719 19.527344 C 10.101562 19.90625 10.558594 20.40625 10.878906 21.179688 L 10.878906 21.183594 C 11.664062 23.085938 10.726562 24.375 9.609375 26.730469 L 13.03125 30.148438 C 15.378906 29.035156 16.671875 28.09375 18.585938 28.886719 C 20.480469 29.664062 20.726562 31.238281 21.601562 33.703125 L 26.441406 33.703125 C 27.3125 31.257812 27.5625 29.667969 29.46875 28.878906 C 31.375 28.089844 32.675781 29.039062 35.019531 30.148438 L 38.441406 26.730469 C 37.316406 24.359375 36.386719 23.078125 37.171875 21.183594 L 37.171875 21.179688 C 37.960938 19.277344 39.539062 19.027344 41.996094 18.152344 L 41.996094 13.3125 C 39.558594 12.445312 37.960938 12.191406 37.171875 10.285156 C 37.0625 10.015625 36.988281 9.761719 36.9375 9.511719 Z M 24.023438 9.742188 C 25.558594 9.742188 27.089844 10.328125 28.261719 11.496094 C 30.597656 13.835938 30.597656 17.628906 28.261719 19.96875 C 25.917969 22.308594 22.128906 22.308594 19.789062 19.96875 C 17.449219 17.628906 17.449219 13.835938 19.789062 11.496094 C 20.960938 10.328125 22.488281 9.742188 24.023438 9.742188 Z M 24.023438 9.742188 "/>
</g>
</svg>
