<svg xmlns="http://www.w3.org/2000/svg" xmlns:xlink="http://www.w3.org/1999/xlink" width="64px" height="64px" viewBox="0 0 64 64" version="1.1">
<defs>
<linearGradient id="linear0" gradientUnits="userSpaceOnUse" x1="0" y1="0" x2="0" y2="1" gradientTransform="matrix(55.351351,0,0,55.351351,4.324324,4.324324)">
<stop offset="0" style="stop-color:#00fff2;stop-opacity:1;"/>
<stop offset="0.5" style="stop-color:#dddddd;stop-opacity:1;"/>
<stop offset="1" style="stop-color:#0062ff;stop-opacity:1;"/>
</linearGradient>
</defs>
<g id="surface1">
<path style=" stroke:none;fill-rule:nonzero;fill:url(#linear0);" d="M 55.238281 24.253906 L 59.675781 12.625 C 59.675781 7.921875 56.078125 4.324219 51.375 4.324219 L 12.625 4.324219 C 7.921875 4.324219 4.324219 7.921875 4.324219 12.625 L 7.921875 22.597656 C 5.707031 24.246094 4.324219 26.746094 4.324219 29.785156 L 4.324219 59.675781 L 59.675781 59.675781 L 59.675781 32 C 59.675781 28.949219 58.011719 26.179688 55.238281 24.253906 Z M 9.863281 32 L 9.863281 29.785156 C 9.863281 27.015625 14.011719 24.796875 17.609375 25.910156 L 20.378906 26.746094 L 21.210938 23.984375 C 21.761719 22.3125 23.984375 20.929688 26.460938 20.929688 C 28.402344 20.929688 30.335938 21.761719 31.171875 23.144531 L 32.554688 24.796875 L 34.765625 23.984375 C 38.089844 22.3125 42.238281 23.984375 43.070312 26.460938 L 43.902344 29.234375 L 46.664062 28.402344 C 49.988281 27.015625 54.136719 29.234375 54.136719 32 Z M 34.765625 40.300781 C 34.765625 41.96875 33.664062 43.070312 32 43.070312 C 30.335938 43.070312 29.234375 41.96875 29.234375 40.300781 C 29.234375 38.636719 30.335938 37.539062 32 37.539062 C 33.664062 37.539062 34.765625 38.636719 34.765625 40.300781 Z M 54.691406 12.625 L 50.539062 22.597656 C 49.988281 22.597656 49.160156 22.3125 48.605469 22.3125 L 46.9375 22.3125 C 45.003906 19.542969 41.402344 17.609375 37.539062 17.609375 C 36.4375 17.609375 35.320312 17.878906 34.214844 18.164062 C 32.285156 16.496094 29.515625 15.394531 26.460938 15.394531 C 22.597656 15.394531 18.988281 17.335938 17.0625 20.097656 L 15.394531 20.097656 C 14.292969 20.097656 13.460938 20.378906 12.339844 20.378906 L 9.3125 12.625 Z M 15.394531 54.136719 C 15.394531 51.089844 12.910156 48.605469 9.863281 48.605469 L 9.863281 37.539062 L 23.699219 37.539062 L 23.699219 43.070312 C 23.699219 46.121094 26.179688 48.605469 29.234375 48.605469 L 34.765625 48.605469 C 37.820312 48.605469 40.300781 46.121094 40.300781 43.070312 L 40.300781 37.539062 L 54.136719 37.539062 L 54.136719 48.605469 C 51.089844 48.605469 48.605469 51.089844 48.605469 54.136719 Z M 15.394531 54.136719 "/>
</g>
</svg>
