<svg xmlns="http://www.w3.org/2000/svg" xmlns:xlink="http://www.w3.org/1999/xlink" width="64px" height="64px" viewBox="0 0 64 64" version="1.1">
<defs>
<linearGradient id="linear0" gradientUnits="userSpaceOnUse" x1="0" y1="0" x2="0" y2="1" gradientTransform="matrix(53.657659,0,0,55.351351,5.171171,4.324324)">
<stop offset="0" style="stop-color:#00fff2;stop-opacity:1;"/>
<stop offset="0.5" style="stop-color:#dddddd;stop-opacity:1;"/>
<stop offset="1" style="stop-color:#0062ff;stop-opacity:1;"/>
</linearGradient>
</defs>
<g id="surface1">
<path style=" stroke:none;fill-rule:nonzero;fill:url(#linear0);" d="M 32 4.328125 C 29.625 4.328125 27.703125 6.136719 27.703125 8.21875 L 36.296875 8.21875 C 36.296875 6.269531 34.375 4.324219 32 4.324219 Z M 14.738281 4.996094 C 12.472656 5.171875 10.226562 6.226562 8.363281 8.089844 C 4.644531 11.8125 3.894531 17.191406 7.621094 20.910156 L 21.121094 7.414062 C 19.257812 5.554688 17.003906 4.820312 14.738281 4.996094 Z M 47.582031 4.996094 C 45.902344 5.226562 44.269531 6.023438 42.878906 7.414062 L 56.378906 20.914062 C 60.105469 17.191406 59.355469 11.8125 55.636719 8.089844 C 53.3125 5.761719 50.375 4.617188 47.582031 4.996094 Z M 32 10.773438 C 19.164062 10.773438 8.761719 21.171875 8.761719 34.003906 C 8.761719 41.707031 12.539062 48.511719 18.300781 52.746094 L 16.621094 57.714844 C 16.390625 58.457031 16.769531 59.246094 17.496094 59.527344 C 18.476562 59.957031 19.226562 59.351562 19.441406 58.921875 L 21.660156 54.824219 C 24.875 56.417969 28.414062 57.246094 32 57.242188 C 35.710938 57.242188 39.226562 56.375 42.339844 54.828125 L 44.558594 58.921875 C 44.773438 59.355469 45.523438 59.957031 46.503906 59.53125 C 47.476562 59.097656 47.539062 58.164062 47.378906 57.714844 L 45.699219 52.746094 C 51.46875 48.511719 55.238281 41.707031 55.238281 34.011719 C 55.238281 21.175781 44.835938 10.773438 32 10.773438 Z M 29.851562 16.410156 L 29.851562 17.890625 C 29.851562 18.632812 30.238281 19.3125 30.863281 19.707031 C 30.710938 19.929688 30.621094 20.179688 30.589844 20.441406 L 30.054688 31.257812 C 29.164062 31.890625 28.636719 32.917969 28.644531 34.003906 C 28.644531 35.867188 30.136719 37.363281 32 37.363281 C 32.117188 37.363281 32.214844 37.308594 32.335938 37.300781 L 38.917969 43.144531 C 39.285156 43.46875 40.214844 43.71875 41 42.9375 C 41.78125 42.164062 41.523438 41.238281 41.199219 40.863281 L 35.363281 34.144531 L 35.363281 34.003906 C 35.363281 32.8125 34.742188 31.792969 33.8125 31.1875 L 33.410156 20.441406 C 33.378906 20.179688 33.289062 19.921875 33.136719 19.707031 C 33.765625 19.3125 34.144531 18.632812 34.148438 17.890625 L 34.148438 16.410156 C 42.117188 17.378906 48.503906 23.664062 49.59375 31.589844 L 48.117188 31.589844 C 47.214844 31.539062 46.363281 31.988281 45.902344 32.753906 C 45.4375 33.527344 45.4375 34.488281 45.902344 35.257812 C 46.363281 36.03125 47.214844 36.484375 48.117188 36.421875 L 49.59375 36.421875 C 48.523438 44.265625 42.257812 50.527344 34.417969 51.605469 L 34.417969 50.125 C 34.441406 49.378906 34.113281 48.664062 33.539062 48.1875 C 32.960938 47.714844 32.1875 47.539062 31.460938 47.707031 C 30.335938 47.960938 29.550781 48.972656 29.582031 50.125 L 29.582031 51.605469 C 21.742188 50.527344 15.476562 44.265625 14.40625 36.421875 L 15.882812 36.421875 C 17.214844 36.421875 18.300781 35.339844 18.300781 34.003906 C 18.300781 32.675781 17.214844 31.589844 15.882812 31.589844 L 14.40625 31.589844 C 15.496094 23.664062 21.882812 17.378906 29.851562 16.410156 Z M 29.851562 16.410156 "/>
</g>
</svg>
