<svg xmlns="http://www.w3.org/2000/svg" xmlns:xlink="http://www.w3.org/1999/xlink" width="64px" height="64px" viewBox="0 0 64 64" version="1.1">
<defs>
<linearGradient id="linear0" gradientUnits="userSpaceOnUse" x1="0" y1="0" x2="0" y2="1" gradientTransform="matrix(44.283784,0,0,55.351351,9.855856,4.324324)">
<stop offset="0" style="stop-color:#00b7ff;stop-opacity:1;"/>
<stop offset="0.5" style="stop-color:#dddddd;stop-opacity:1;"/>
<stop offset="1" style="stop-color:#ee42d9;stop-opacity:1;"/>
</linearGradient>
</defs>
<g id="surface1">
<path style=" stroke:none;fill-rule:nonzero;fill:url(#linear0);" d="M 9.890625 4.324219 C 9.625 7.484375 10.996094 15.394531 10.878906 16.449219 C 10.960938 17.890625 12.28125 18.273438 12.28125 18.273438 L 13.894531 18.3125 C 14.375 16.078125 15.058594 14.785156 16.339844 14.011719 L 23.699219 14.011719 L 23.699219 54.1875 L 19.753906 54.089844 L 19.625 50.023438 L 16.910156 49.960938 L 15.789062 59.675781 L 40.648438 59.675781 L 43.429688 56.988281 C 41.558594 56.363281 38.328125 55.808594 37.539062 52.136719 L 37.539062 9.863281 L 50.5625 9.863281 C 50.988281 10.300781 48.644531 12.402344 49.058594 12.796875 C 50.914062 14.5625 52.539062 15.785156 54.136719 15.742188 L 54.136719 4.324219 Z M 9.890625 4.324219 "/>
</g>
</svg>
