<svg xmlns="http://www.w3.org/2000/svg" xmlns:xlink="http://www.w3.org/1999/xlink" width="64px" height="64px" viewBox="0 0 64 64" version="1.1">
<defs>
<linearGradient id="linear0" gradientUnits="userSpaceOnUse" x1="0" y1="0" x2="0" y2="1" gradientTransform="matrix(49.873875,0,0,55.351351,7.063063,4.324324)">
<stop offset="0" style="stop-color:#05f7ff;stop-opacity:1;"/>
<stop offset="0.5" style="stop-color:#dddddd;stop-opacity:1;"/>
<stop offset="1" style="stop-color:#e6ff05;stop-opacity:1;"/>
</linearGradient>
</defs>
<g id="surface1">
<path style=" stroke:none;fill-rule:evenodd;fill:url(#linear0);" d="M 28.636719 47.472656 C 28.515625 45.90625 28.460938 44.335938 28.460938 42.765625 C 28.460938 40.910156 28.636719 39.265625 28.820312 37.539062 L 23.136719 37.539062 C 23.484375 38.835938 23.6875 40.460938 23.6875 42.503906 C 23.6875 44.550781 23.484375 46.175781 23.136719 47.472656 Z M 12.636719 42.503906 C 12.636719 40.460938 12.839844 38.835938 13.1875 37.539062 L 7.503906 37.539062 C 7.6875 39.265625 7.863281 40.910156 7.863281 42.765625 C 7.863281 44.621094 7.789062 46.125 7.6875 47.472656 L 13.1875 47.472656 C 12.839844 46.175781 12.636719 44.550781 12.636719 42.503906 Z M 28.828125 49.679688 L 22.21875 49.679688 C 21.210938 51.296875 19.765625 51.886719 18.164062 51.886719 C 16.558594 51.886719 15.113281 51.296875 14.105469 49.679688 L 7.496094 49.679688 L 7.433594 50.296875 C 7.242188 52.226562 7.0625 54.050781 7.0625 56.476562 C 7.0625 58.269531 8.445312 59.675781 10.210938 59.675781 L 26.113281 59.675781 C 27.878906 59.675781 29.261719 58.269531 29.261719 56.476562 C 29.261719 54.050781 29.082031 52.226562 28.890625 50.296875 Z M 22.582031 10.027344 L 13.742188 10.027344 C 13.085938 10.027344 12.550781 9.488281 12.550781 8.835938 L 12.550781 7.730469 C 12.550781 5.851562 14.078125 4.324219 15.957031 4.324219 L 20.367188 4.324219 C 22.246094 4.324219 23.773438 5.851562 23.773438 7.730469 L 23.773438 8.835938 C 23.773438 9.488281 23.238281 10.027344 22.582031 10.027344 Z M 23.644531 21.257812 L 22.746094 12.21875 C 22.6875 12.21875 22.636719 12.234375 22.582031 12.234375 L 13.742188 12.234375 C 13.6875 12.234375 13.636719 12.21875 13.578125 12.21875 L 12.679688 21.257812 C 11.367188 22.441406 7.0625 26.6875 7.0625 31.082031 C 7.0625 32.636719 7.164062 34.015625 7.285156 35.328125 L 14.105469 35.328125 C 15.113281 33.707031 16.558594 33.121094 18.164062 33.121094 C 19.765625 33.121094 21.210938 33.707031 22.21875 35.328125 L 29.042969 35.328125 C 29.164062 34.015625 29.261719 32.636719 29.261719 31.082031 C 29.261719 26.6875 24.957031 22.445312 23.644531 21.257812 Z M 56.3125 47.472656 C 56.191406 45.90625 56.136719 44.335938 56.136719 42.765625 C 56.136719 40.910156 56.3125 39.265625 56.496094 37.539062 L 50.8125 37.539062 C 51.160156 38.835938 51.363281 40.460938 51.363281 42.503906 C 51.363281 44.550781 51.160156 46.175781 50.8125 47.472656 Z M 40.3125 42.503906 C 40.3125 40.460938 40.515625 38.835938 40.863281 37.539062 L 35.179688 37.539062 C 35.363281 39.265625 35.539062 40.910156 35.539062 42.765625 C 35.539062 44.621094 35.460938 46.125 35.363281 47.472656 L 40.863281 47.472656 C 40.515625 46.175781 40.3125 44.550781 40.3125 42.503906 Z M 56.503906 49.679688 L 49.894531 49.679688 C 48.886719 51.296875 47.441406 51.886719 45.835938 51.886719 C 44.234375 51.886719 42.789062 51.296875 41.78125 49.679688 L 35.171875 49.679688 L 35.109375 50.296875 C 34.917969 52.226562 34.738281 54.050781 34.738281 56.476562 C 34.738281 58.269531 36.121094 59.675781 37.886719 59.675781 L 53.789062 59.675781 C 55.554688 59.675781 56.9375 58.269531 56.9375 56.476562 C 56.9375 54.050781 56.757812 52.226562 56.566406 50.296875 Z M 50.257812 10.027344 L 41.417969 10.027344 C 40.761719 10.027344 40.226562 9.488281 40.226562 8.835938 L 40.226562 7.730469 C 40.226562 5.851562 41.753906 4.324219 43.632812 4.324219 L 48.042969 4.324219 C 49.921875 4.324219 51.449219 5.851562 51.449219 7.730469 L 51.449219 8.835938 C 51.449219 9.488281 50.914062 10.027344 50.257812 10.027344 Z M 51.320312 21.257812 L 50.421875 12.21875 C 50.363281 12.21875 50.3125 12.234375 50.257812 12.234375 L 41.417969 12.234375 C 41.363281 12.234375 41.3125 12.21875 41.253906 12.21875 L 40.355469 21.257812 C 39.042969 22.441406 34.738281 26.6875 34.738281 31.082031 C 34.738281 32.636719 34.835938 34.015625 34.960938 35.328125 L 41.78125 35.328125 C 42.789062 33.707031 44.234375 33.121094 45.835938 33.121094 C 47.441406 33.121094 48.886719 33.707031 49.894531 35.328125 L 56.71875 35.328125 C 56.839844 34.015625 56.9375 32.636719 56.9375 31.082031 C 56.9375 26.6875 52.632812 22.445312 51.320312 21.257812 Z M 51.320312 21.257812 "/>
</g>
</svg>
