<svg xmlns="http://www.w3.org/2000/svg" xmlns:xlink="http://www.w3.org/1999/xlink" width="64px" height="64px" viewBox="0 0 64 64" version="1.1">
<g id="surface1">
<path style=" stroke:none;fill-rule:nonzero;fill:rgb(70.19608%,70.19608%,70.19608%);fill-opacity:1;" d="M 55.050781 35.746094 C 21.234375 51.699219 38.140625 43.722656 55.050781 35.746094 Z M 55.050781 35.746094 L 35.746094 55.050781 C 45.667969 53.460938 53.460938 45.667969 55.050781 35.746094 Z M 35.746094 55.050781 Z M 35.746094 55.050781 "/>
<path style=" stroke:none;fill-rule:nonzero;fill:rgb(94.901961%,94.901961%,94.901961%);fill-opacity:1;" d="M 32 8.648438 C 19.0625 8.648438 8.648438 19.0625 8.648438 32 C 8.648438 44.9375 19.0625 55.351562 32 55.351562 C 33.277344 55.351562 34.527344 55.246094 35.746094 55.050781 L 55.050781 35.746094 C 55.246094 34.527344 55.351562 33.277344 55.351562 32 C 55.351562 19.0625 44.9375 8.648438 32 8.648438 Z M 32 8.648438 "/>
<path style=" stroke:none;fill-rule:nonzero;fill:rgb(100%,100%,100%);fill-opacity:1;" d="M 35.746094 55.050781 L 55.050781 35.746094 C 45.128906 37.335938 37.335938 45.128906 35.746094 55.050781 Z M 35.746094 55.050781 "/>
<path style="fill:none;stroke-width:4;stroke-linecap:round;stroke-linejoin:miter;stroke:rgb(87.843138%,10.588235%,14.117648%);stroke-opacity:1;stroke-miterlimit:4;" d="M 21.895026 230.494 C 35.279883 235.047088 16.315461 248.188029 35.818529 249.438096 C 47.282553 250.180005 47.191084 266.004016 47.191084 266.004016 " transform="matrix(0.384355,0,0,0.384355,6.275953,-61.153927)"/>
<path style=" stroke:none;fill-rule:nonzero;fill:rgb(91.764706%,22.745098%,21.960784%);fill-opacity:1;" d="M 31.65625 39.625 L 26.21875 34.1875 L 49.050781 11.363281 L 54.488281 16.792969 Z M 31.65625 39.625 "/>
<path style=" stroke:none;fill-rule:nonzero;fill:rgb(23.921569%,21.960784%,27.450982%);fill-opacity:1;" d="M 50.136719 21.144531 L 44.699219 15.710938 L 45.789062 14.621094 L 51.222656 20.058594 Z M 50.136719 21.144531 "/>
<path style=" stroke:none;fill-rule:nonzero;fill:rgb(23.921569%,21.960784%,27.450982%);fill-opacity:1;" d="M 34.914062 36.363281 L 29.480469 30.929688 L 30.566406 29.839844 L 36.003906 35.277344 Z M 34.914062 36.363281 "/>
<path style=" stroke:none;fill-rule:nonzero;fill:rgb(91.764706%,23.529412%,22.352941%);fill-opacity:1;" d="M 31.113281 39.082031 L 26.761719 34.734375 L 24.046875 40.710938 L 25.132812 41.800781 Z M 31.113281 39.082031 "/>
<path style=" stroke:none;fill-rule:nonzero;fill:rgb(0%,0%,0%);fill-opacity:0.25926;" d="M 32.199219 39.082031 L 26.761719 33.644531 L 26.21875 34.1875 L 31.65625 39.625 Z M 32.199219 39.082031 "/>
<path style=" stroke:none;fill-rule:nonzero;fill:rgb(23.921569%,21.960784%,27.450982%);fill-opacity:1;" d="M 34.914062 25.492188 C 35.667969 26.242188 37.492188 25.636719 38.992188 24.136719 C 40.492188 22.632812 41.101562 20.808594 40.351562 20.058594 Z M 34.914062 25.492188 "/>
</g>
</svg>
