<svg xmlns="http://www.w3.org/2000/svg" xmlns:xlink="http://www.w3.org/1999/xlink" width="64px" height="64px" viewBox="0 0 64 64" version="1.1">
<defs>
<linearGradient id="linear0" gradientUnits="userSpaceOnUse" x1="0" y1="0" x2="0" y2="1" gradientTransform="matrix(55.351351,0,0,55.351351,4.324324,4.324324)">
<stop offset="0" style="stop-color:#ffae00;stop-opacity:1;"/>
<stop offset="0.5" style="stop-color:#dddddd;stop-opacity:1;"/>
<stop offset="1" style="stop-color:#6600ff;stop-opacity:1;"/>
</linearGradient>
</defs>
<g id="surface1">
<path style=" stroke:none;fill-rule:nonzero;fill:url(#linear0);" d="M 31.191406 4.335938 C 16.230469 4.773438 4.324219 17.042969 4.324219 32.039062 C 4.367188 47.3125 16.746094 59.675781 32 59.675781 C 47.253906 59.675781 59.632812 47.3125 59.675781 32.039062 C 59.675781 24.550781 56.648438 17.378906 51.28125 12.160156 C 45.914062 6.9375 38.671875 4.117188 31.191406 4.335938 Z M 16.566406 29.335938 C 18.394531 29.390625 19.847656 30.886719 19.847656 32.714844 C 19.785156 34.539062 18.292969 35.976562 16.476562 35.976562 C 14.660156 35.976562 13.164062 34.539062 13.105469 32.714844 C 13.105469 31.808594 13.472656 30.933594 14.125 30.296875 C 14.773438 29.664062 15.660156 29.3125 16.566406 29.335938 Z M 47.625 29.335938 C 49.445312 29.394531 50.894531 30.890625 50.894531 32.714844 C 50.835938 34.539062 49.339844 35.976562 47.523438 35.976562 C 45.707031 35.976562 44.214844 34.539062 44.152344 32.714844 C 44.152344 31.808594 44.523438 30.929688 45.175781 30.292969 C 45.828125 29.660156 46.710938 29.3125 47.625 29.335938 Z M 18.269531 43.148438 C 18.550781 45.839844 19.605469 48.171875 21.136719 50.28125 C 18.636719 49.1875 16.671875 46.636719 14.855469 43.6875 Z M 45.335938 43.234375 L 48.835938 43.675781 C 47.0625 46.753906 45.132812 49.417969 42.609375 50.613281 C 44.121094 48.410156 45.125 46 45.335938 43.234375 Z M 45.335938 43.234375 "/>
</g>
</svg>
