<svg xmlns="http://www.w3.org/2000/svg" xmlns:xlink="http://www.w3.org/1999/xlink" width="64px" height="64px" viewBox="0 0 64 64" version="1.1">
<defs>
<linearGradient id="linear0" gradientUnits="userSpaceOnUse" x1="0" y1="0" x2="0" y2="1" gradientTransform="matrix(55.297297,0,0,55.351351,4.351351,4.324324)">
<stop offset="0" style="stop-color:#00a2ff;stop-opacity:1;"/>
<stop offset="0.5" style="stop-color:#dddddd;stop-opacity:1;"/>
<stop offset="1" style="stop-color:#00ffae;stop-opacity:1;"/>
</linearGradient>
</defs>
<g id="surface1">
<path style=" stroke:none;fill-rule:evenodd;fill:url(#linear0);" d="M 59.648438 26.445312 L 40.296875 23.675781 L 32 4.324219 L 23.703125 23.675781 L 4.351562 26.445312 L 18.175781 40.269531 L 15.410156 59.675781 L 32 51.324219 L 48.589844 59.621094 L 45.824219 40.269531 Z M 39.144531 47.621094 L 23.820312 47.621094 C 23.820312 42.386719 26.441406 38.378906 31.675781 35.589844 C 32.746094 35.023438 33.59375 34.4375 34.207031 33.835938 C 34.820312 33.230469 35.125 32.5 35.125 31.636719 C 35.125 30.769531 34.8125 30.0625 34.1875 29.511719 C 33.566406 28.960938 32.746094 28.6875 31.738281 28.6875 C 29.753906 28.6875 28.367188 29.59375 27.589844 31.410156 L 24.171875 29.863281 C 24.761719 28.40625 25.734375 27.242188 27.085938 26.378906 C 28.433594 25.511719 29.972656 25.082031 31.707031 25.082031 C 33.917969 25.082031 35.679688 25.691406 36.988281 26.917969 C 38.300781 28.136719 38.957031 29.710938 38.957031 31.636719 C 38.957031 33.363281 38.511719 34.730469 37.636719 35.734375 C 36.765625 36.734375 35.410156 37.742188 33.570312 38.757812 C 32.03125 39.597656 30.851562 40.421875 30.027344 41.226562 C 29.203125 42.027344 28.660156 42.933594 28.382812 43.949219 L 39.144531 43.949219 Z M 39.144531 47.621094 "/>
</g>
</svg>
