<svg xmlns="http://www.w3.org/2000/svg" xmlns:xlink="http://www.w3.org/1999/xlink" width="64px" height="64px" viewBox="0 0 64 64" version="1.1">
<defs>
<linearGradient id="linear0" gradientUnits="userSpaceOnUse" x1="0" y1="0" x2="0" y2="1" gradientTransform="matrix(55.351351,0,0,55.351351,4.324324,4.324324)">
<stop offset="0" style="stop-color:#00b7ff;stop-opacity:1;"/>
<stop offset="0.5" style="stop-color:#dddddd;stop-opacity:1;"/>
<stop offset="1" style="stop-color:#ee42d9;stop-opacity:1;"/>
</linearGradient>
</defs>
<g id="surface1">
<path style=" stroke:none;fill-rule:nonzero;fill:url(#linear0);" d="M 18.136719 4.324219 C 13.789062 4.375 10.605469 4.214844 8 5.652344 C 6.699219 6.375 5.671875 7.589844 5.105469 9.109375 C 4.53125 10.625 4.324219 12.429688 4.324219 14.703125 L 4.324219 35.460938 C 4.324219 37.734375 4.53125 39.539062 5.105469 41.054688 C 5.671875 42.570312 6.699219 43.789062 8 44.503906 C 10.605469 45.941406 13.789062 45.789062 18.136719 45.835938 L 25.082031 45.835938 L 25.082031 49.296875 L 38.917969 49.296875 L 38.917969 45.835938 L 45.855469 45.835938 C 50.210938 45.789062 53.394531 45.945312 56 44.503906 C 57.300781 43.789062 58.328125 42.570312 58.902344 41.054688 C 59.46875 39.539062 59.675781 37.734375 59.675781 35.460938 L 59.675781 14.703125 C 59.675781 12.429688 59.46875 10.625 58.902344 9.109375 C 58.328125 7.589844 57.300781 6.375 56 5.652344 C 53.394531 4.21875 50.210938 4.375 45.855469 4.324219 Z M 18.164062 7.785156 L 45.835938 7.785156 C 50.191406 7.835938 53.058594 7.988281 54.324219 8.6875 C 54.960938 9.039062 55.324219 9.421875 55.664062 10.324219 C 56 11.226562 56.214844 12.652344 56.214844 14.703125 L 56.214844 35.460938 C 56.214844 37.511719 56 38.9375 55.664062 39.835938 C 55.324219 40.738281 54.960938 41.121094 54.324219 41.472656 C 53.058594 42.171875 50.191406 42.328125 45.835938 42.378906 L 18.164062 42.378906 C 13.808594 42.328125 10.9375 42.171875 9.671875 41.472656 C 9.039062 41.121094 8.675781 40.738281 8.335938 39.835938 C 8 38.9375 7.785156 37.511719 7.785156 35.460938 L 7.785156 14.703125 C 7.785156 12.652344 8 11.226562 8.335938 10.324219 C 8.675781 9.421875 9.039062 9.039062 9.671875 8.6875 C 10.9375 7.988281 13.808594 7.835938 18.164062 7.785156 Z M 14.703125 52.757812 L 4.324219 56.214844 L 4.324219 59.675781 L 59.675781 59.675781 L 59.675781 56.214844 L 49.296875 52.757812 Z M 14.703125 52.757812 "/>
</g>
</svg>
