<svg xmlns="http://www.w3.org/2000/svg" xmlns:xlink="http://www.w3.org/1999/xlink" width="64px" height="64px" viewBox="0 0 64 64" version="1.1">
<defs>
<linearGradient id="linear0" gradientUnits="userSpaceOnUse" x1="0" y1="0" x2="0" y2="1" gradientTransform="matrix(46.837838,0,0,55.351351,8.581081,4.324324)">
<stop offset="0" style="stop-color:#05f7ff;stop-opacity:1;"/>
<stop offset="0.5" style="stop-color:#dddddd;stop-opacity:1;"/>
<stop offset="1" style="stop-color:#e6ff05;stop-opacity:1;"/>
</linearGradient>
</defs>
<g id="surface1">
<path style=" stroke:none;fill-rule:nonzero;fill:url(#linear0);" d="M 55.417969 55.707031 C 52.8125 57.015625 50.09375 58.011719 47.265625 58.675781 C 44.441406 59.339844 41.488281 59.675781 38.417969 59.675781 C 29.246094 59.675781 21.984375 57.199219 16.621094 52.242188 C 11.261719 47.261719 8.582031 40.523438 8.582031 32.015625 C 8.582031 23.488281 11.261719 16.746094 16.621094 11.792969 C 21.984375 6.8125 29.246094 4.324219 38.417969 4.324219 C 41.488281 4.324219 44.441406 4.660156 47.265625 5.324219 C 50.09375 5.988281 52.8125 6.984375 55.417969 8.292969 L 55.417969 19.78125 C 52.789062 18.039062 50.191406 16.765625 47.636719 15.960938 C 45.082031 15.148438 42.894531 14.742188 40.070312 14.742188 C 35.003906 14.742188 31.023438 16.3125 28.121094 19.460938 C 25.21875 22.605469 23.769531 26.488281 23.769531 32.015625 C 23.769531 37.523438 25.21875 41.394531 28.121094 44.539062 C 31.023438 47.6875 35.003906 49.257812 40.070312 49.257812 C 42.894531 49.257812 45.082031 48.855469 47.636719 48.039062 C 50.191406 47.234375 52.789062 45.960938 55.417969 44.21875 Z M 55.417969 55.707031 "/>
</g>
</svg>
