<svg xmlns="http://www.w3.org/2000/svg" xmlns:xlink="http://www.w3.org/1999/xlink" width="64px" height="64px" viewBox="0 0 64 64" version="1.1">
<defs>
<linearGradient id="linear0" gradientUnits="userSpaceOnUse" x1="0" y1="0" x2="0" y2="1" gradientTransform="matrix(55.351351,0,0,46.081081,4.324324,8.959459)">
<stop offset="0" style="stop-color:#ff8963;stop-opacity:1;"/>
<stop offset="0.5" style="stop-color:#dddddd;stop-opacity:1;"/>
<stop offset="1" style="stop-color:#0F6FFF;stop-opacity:1;"/>
</linearGradient>
</defs>
<g id="surface1">
<path style=" stroke:none;fill-rule:nonzero;fill:url(#linear0);" d="M 19.703125 8.960938 C 11.210938 8.960938 4.324219 15.835938 4.324219 24.320312 C 4.324219 31.726562 9.621094 38.078125 16.914062 39.417969 C 17.011719 39.648438 17.113281 39.867188 17.265625 40.082031 C 17.28125 40.117188 17.292969 40.117188 17.3125 40.144531 C 17.375 40.21875 17.4375 40.3125 17.511719 40.394531 L 29.835938 54.070312 C 30.457031 54.765625 31.226562 55.039062 31.976562 55.039062 L 32.003906 55.039062 C 32.761719 55.039062 33.539062 54.765625 34.164062 54.070312 L 46.488281 40.394531 C 46.5625 40.324219 46.621094 40.230469 46.6875 40.144531 C 46.699219 40.109375 46.71875 40.105469 46.738281 40.082031 C 46.886719 39.867188 46.988281 39.648438 47.082031 39.417969 C 54.375 38.078125 59.671875 31.726562 59.675781 24.320312 C 59.675781 15.835938 52.789062 8.960938 44.296875 8.960938 C 39.460938 8.960938 34.90625 11.234375 32 15.105469 C 29.09375 11.234375 24.539062 8.960938 19.703125 8.960938 Z M 19.703125 21.242188 C 22.246094 21.246094 24.3125 23.308594 24.3125 25.851562 C 24.3125 28.394531 22.246094 30.457031 19.703125 30.460938 C 17.152344 30.460938 15.089844 28.394531 15.085938 25.851562 C 15.089844 23.308594 17.152344 21.242188 19.703125 21.242188 Z M 44.296875 21.242188 C 46.847656 21.242188 48.910156 23.308594 48.914062 25.851562 C 48.910156 28.394531 46.847656 30.460938 44.296875 30.460938 C 41.753906 30.457031 39.6875 28.394531 39.6875 25.851562 C 39.6875 23.308594 41.753906 21.246094 44.296875 21.242188 Z M 44.296875 21.242188 "/>
</g>
</svg>
