<svg xmlns="http://www.w3.org/2000/svg" xmlns:xlink="http://www.w3.org/1999/xlink" width="64px" height="64px" viewBox="0 0 64 64" version="1.1">
<defs>
<linearGradient id="linear0" gradientUnits="userSpaceOnUse" x1="0" y1="0" x2="0" y2="1" gradientTransform="matrix(51.891892,0,0,55.351351,6.054054,4.324324)">
<stop offset="0" style="stop-color:#ffae00;stop-opacity:1;"/>
<stop offset="0.5" style="stop-color:#dddddd;stop-opacity:1;"/>
<stop offset="1" style="stop-color:#bf1d1d;stop-opacity:1;"/>
</linearGradient>
</defs>
<g id="surface1">
<path style=" stroke:none;fill-rule:evenodd;fill:url(#linear0);" d="M 32.753906 33.488281 C 32.324219 31.664062 34.5625 30.609375 36.089844 30.808594 C 39.070312 31.1875 40.484375 34.457031 39.796875 37.070312 C 38.753906 41.054688 34.132812 42.847656 30.335938 41.652344 C 25.1875 40.03125 22.933594 34.1875 24.691406 29.386719 C 26.941406 23.273438 34.269531 20.636719 40.273438 22.910156 C 47.609375 25.6875 50.734375 34.210938 47.855469 41.171875 C 44.441406 49.429688 34.363281 52.917969 26.152344 49.550781 C 16.636719 45.636719 12.632812 34.410156 16.636719 25.289062 C 21.203125 14.886719 34.050781 10.539062 44.460938 15.011719 C 56.171875 20.054688 61.050781 34 55.914062 45.269531 C 50.199219 57.820312 34.578125 63.03125 21.96875 57.441406 C 8.066406 51.285156 2.3125 34.617188 8.578125 21.1875 C 13.496094 10.664062 24.734375 4.039062 36.496094 4.335938 "/>
</g>
</svg>
