<svg xmlns="http://www.w3.org/2000/svg" xmlns:xlink="http://www.w3.org/1999/xlink" width="64px" height="64px" viewBox="0 0 64 64" version="1.1">
<defs>
<linearGradient id="linear0" gradientUnits="userSpaceOnUse" x1="0" y1="0" x2="0" y2="1" gradientTransform="matrix(55.351351,0,0,26.657659,4.324324,18.671172)">
<stop offset="0" style="stop-color:#00b7ff;stop-opacity:1;"/>
<stop offset="0.5" style="stop-color:#dddddd;stop-opacity:1;"/>
<stop offset="1" style="stop-color:#ee42d9;stop-opacity:1;"/>
</linearGradient>
</defs>
<g id="surface1">
<path style=" stroke:none;fill-rule:evenodd;fill:url(#linear0);" d="M 30.632812 18.671875 C 30.632812 18.671875 30.058594 18.664062 29.8125 18.699219 C 24.210938 18.664062 21.078125 24.789062 18.320312 28.214844 C 16.769531 30.757812 9.558594 37.375 4.851562 38.824219 C 3.632812 39.066406 4.644531 41.523438 6.761719 40.285156 C 9.261719 39.363281 18.242188 33.28125 18.484375 33.082031 C 18.847656 32.851562 19.542969 32.867188 19.847656 33.910156 C 20.148438 34.957031 19.457031 36.191406 19.457031 36.191406 C 19.457031 36.191406 18.542969 37.746094 18.578125 38.605469 C 19.003906 41.6875 21.488281 44.769531 24.011719 45.1875 C 25.824219 45.441406 28.511719 45.28125 28.511719 45.28125 L 28.5625 44.820312 C 28.503906 44.132812 27.085938 43.835938 27.085938 43.835938 C 27.078125 43.839844 25.285156 44.179688 24.496094 43.8125 C 23.171875 43.210938 21.621094 40.828125 21.621094 40.523438 C 21.621094 40.226562 22.066406 38.863281 22.066406 38.863281 C 22.066406 38.863281 23.527344 39.058594 24.011719 39.058594 C 24.496094 39.058594 25.746094 39.121094 25.746094 39.121094 L 26.6875 40.570312 C 26.984375 41.144531 27.351562 40.855469 27.835938 40.988281 L 29.933594 41.011719 L 31.375 40.984375 L 31.375 40.242188 C 31.375 40.984375 31.375 39.542969 30.4375 39.523438 C 29.625 39.488281 28.566406 39.382812 28.476562 39.089844 C 28.328125 38.613281 28.539062 37.363281 28.539062 37.363281 C 28.539062 37.363281 29.582031 36.855469 31.785156 37.289062 C 33.988281 37.726562 36.496094 39.550781 36.496094 39.550781 C 35.863281 40.710938 35.289062 40.960938 35.175781 42.152344 C 35.0625 43.230469 35.0625 43.230469 35.769531 43.230469 L 39.148438 43.230469 C 39.148438 43.230469 39.148438 41.800781 38.179688 41.875 C 37.5 41.847656 37.121094 41.8125 37.121094 41.753906 C 37.121094 41.476562 38.417969 40.339844 38.417969 40.339844 L 39.339844 39.675781 C 39.339844 39.675781 40.625 40.539062 42.28125 40.960938 C 43.933594 41.378906 45.988281 41.179688 45.988281 41.179688 C 46.636719 41.566406 46.761719 41.886719 47.082031 42.441406 C 47.335938 43.4375 47.335938 43.234375 47.890625 43.253906 C 49.113281 43.285156 50.144531 43.234375 51.335938 43.144531 C 51.335938 43.144531 51.433594 41.800781 49.449219 41.800781 C 49.449219 41.800781 48.726562 41.339844 48.59375 40.664062 C 48.460938 39.984375 48.542969 38.191406 48.542969 38.191406 L 49.523438 38.109375 L 50.8125 39.210938 L 51.617188 39.289062 L 52.730469 41.085938 C 52.730469 41.085938 54.957031 41.246094 55.699219 40.960938 C 56.441406 40.6875 57.789062 39.929688 58.570312 39.085938 C 59.351562 38.238281 59.867188 36.242188 59.609375 35.121094 C 59.339844 33.996094 57.886719 32.648438 57.886719 32.648438 C 54.808594 29.726562 50 24.835938 47.015625 24.8125 C 46.542969 24.8125 45.363281 25.929688 44.675781 25.433594 C 40.410156 22.496094 35.742188 18.886719 30.632812 18.675781 Z M 52.457031 30.949219 C 53.300781 30.949219 53.988281 31.636719 53.988281 32.484375 C 53.988281 33.328125 53.300781 34.015625 52.457031 34.015625 C 51.609375 34.015625 50.917969 33.328125 50.917969 32.484375 C 50.917969 31.636719 51.609375 30.949219 52.457031 30.949219 Z M 52.457031 30.949219 "/>
</g>
</svg>
