<svg xmlns="http://www.w3.org/2000/svg" xmlns:xlink="http://www.w3.org/1999/xlink" width="64px" height="64px" viewBox="0 0 64 64" version="1.1">
<defs>
<linearGradient id="linear0" gradientUnits="userSpaceOnUse" x1="0" y1="0" x2="0" y2="1" gradientTransform="matrix(55.351351,0,0,41.018017,4.324324,11.490992)">
<stop offset="0" style="stop-color:#00fff2;stop-opacity:1;"/>
<stop offset="0.5" style="stop-color:#dddddd;stop-opacity:1;"/>
<stop offset="1" style="stop-color:#0062ff;stop-opacity:1;"/>
</linearGradient>
</defs>
<g id="surface1">
<path style=" stroke:none;fill-rule:evenodd;fill:url(#linear0);" d="M 31.738281 11.488281 C 18.867188 11.488281 8.421875 14.160156 8.421875 17.4375 C 8.421875 18.226562 9.015625 18.972656 10.105469 19.660156 C 6.476562 23.089844 4.324219 27.386719 4.324219 32.058594 C 4.324219 36.792969 6.539062 41.148438 10.253906 44.605469 C 9.6875 46.257812 7.417969 51.585938 8.1875 52.351562 C 9.011719 53.179688 15.125 50.496094 16.257812 50.1875 C 16.605469 50.09375 17.496094 49.960938 18.539062 49.789062 C 22.523438 51.417969 27.117188 52.347656 32 52.347656 C 36.9375 52.347656 41.566406 51.394531 45.582031 49.738281 C 46.757812 49.933594 47.785156 50.089844 48.164062 50.1875 C 49.289062 50.496094 55.402344 53.179688 56.226562 52.351562 C 57.054688 51.527344 54.382812 45.449219 54.066406 44.296875 C 57.585938 40.894531 59.675781 36.652344 59.675781 32.058594 C 59.675781 27.296875 57.433594 22.914062 53.679688 19.449219 C 54.566406 18.824219 55.058594 18.148438 55.058594 17.4375 C 55.058594 14.160156 44.609375 11.488281 31.738281 11.488281 Z M 51.570312 16.960938 C 51.570312 18.863281 42.6875 20.410156 31.738281 20.410156 C 20.792969 20.410156 11.914062 18.863281 11.914062 16.960938 C 11.914062 15.054688 20.792969 13.511719 31.738281 13.511719 C 42.6875 13.511719 51.570312 15.054688 51.570312 16.960938 Z M 51.570312 16.960938 "/>
</g>
</svg>
