<svg xmlns="http://www.w3.org/2000/svg" xmlns:xlink="http://www.w3.org/1999/xlink" width="64px" height="64px" viewBox="0 0 64 64" version="1.1">
<defs>
<linearGradient id="linear0" gradientUnits="userSpaceOnUse" x1="0" y1="0" x2="0" y2="1" gradientTransform="matrix(55.351351,0,0,55.351351,4.324324,4.324324)">
<stop offset="0" style="stop-color:#ffae00;stop-opacity:1;"/>
<stop offset="0.5" style="stop-color:#dddddd;stop-opacity:1;"/>
<stop offset="1" style="stop-color:#6600ff;stop-opacity:1;"/>
</linearGradient>
</defs>
<g id="surface1">
<path style=" stroke:none;fill-rule:nonzero;fill:url(#linear0);" d="M 4.324219 14.210938 L 9.117188 33.113281 L 27.003906 28.042969 L 20.523438 24.09375 C 24.660156 16.53125 33.808594 13.941406 40.960938 18.308594 C 48.121094 22.671875 50.578125 32.339844 46.441406 39.90625 C 42.3125 47.46875 33.160156 50.058594 26 45.691406 C 23.71875 44.296875 21.828125 42.285156 20.515625 39.863281 L 9.476562 42.988281 C 11.703125 48.441406 15.53125 52.988281 20.386719 55.960938 C 32.914062 63.605469 48.933594 59.070312 56.164062 45.835938 C 63.394531 32.597656 59.105469 15.675781 46.578125 8.039062 C 34.054688 0.394531 18.039062 4.929688 10.808594 18.164062 Z M 4.324219 14.210938 "/>
</g>
</svg>
