<svg xmlns="http://www.w3.org/2000/svg" xmlns:xlink="http://www.w3.org/1999/xlink" width="64px" height="64px" viewBox="0 0 64 64" version="1.1">
<defs>
<linearGradient id="linear0" gradientUnits="userSpaceOnUse" x1="0" y1="0" x2="0" y2="1" gradientTransform="matrix(51.891892,0,0,51.891892,6.054054,6.054054)">
<stop offset="0" style="stop-color:#ffae00;stop-opacity:1;"/>
<stop offset="0.5" style="stop-color:#dddddd;stop-opacity:1;"/>
<stop offset="1" style="stop-color:#bf1d1d;stop-opacity:1;"/>
</linearGradient>
</defs>
<g id="surface1">
<path style=" stroke:none;fill-rule:evenodd;fill:url(#linear0);" d="M 22.929688 29.328125 C 11.894531 22.746094 6.054688 6.054688 6.054688 6.054688 L 15.136719 6.054688 C 21.621094 6.054688 22.917969 15.136719 32 24.214844 C 41.082031 15.136719 42.378906 6.054688 48.863281 6.054688 L 57.945312 6.054688 C 57.945312 6.054688 48.863281 32 32 32 C 30.738281 32.089844 29.273438 31.863281 27.867188 31.460938 C 27.121094 31.273438 26.390625 31.03125 25.699219 30.710938 C 24.554688 30.296875 23.558594 29.789062 22.863281 29.324219 C 22.882812 29.324219 22.90625 29.328125 22.929688 29.328125 Z M 41.070312 34.671875 C 52.105469 41.253906 57.945312 57.945312 57.945312 57.945312 L 48.863281 57.945312 C 42.378906 57.945312 41.082031 48.863281 32 39.785156 C 22.917969 48.863281 21.621094 57.945312 15.136719 57.945312 L 6.054688 57.945312 C 6.054688 57.945312 15.136719 32 32 32 C 33.261719 31.910156 34.726562 32.136719 36.132812 32.542969 C 36.878906 32.726562 37.605469 32.96875 38.300781 33.289062 C 39.445312 33.703125 40.441406 34.210938 41.136719 34.675781 C 41.117188 34.671875 41.09375 34.671875 41.070312 34.671875 Z M 41.070312 34.671875 "/>
</g>
</svg>
