<svg xmlns="http://www.w3.org/2000/svg" xmlns:xlink="http://www.w3.org/1999/xlink" width="64px" height="64px" viewBox="0 0 64 64" version="1.1">
<g id="surface1">
<path style=" stroke:none;fill-rule:nonzero;fill:rgb(94.901961%,94.901961%,94.901961%);fill-opacity:1;" d="M 55.351562 31.980469 C 55.351562 44.875 44.894531 55.332031 32 55.332031 C 19.105469 55.332031 8.648438 44.875 8.648438 31.980469 C 8.648438 19.082031 19.105469 8.628906 32 8.628906 C 44.894531 8.628906 55.351562 19.082031 55.351562 31.980469 Z M 55.351562 31.980469 "/>
<path style=" stroke:none;fill-rule:nonzero;fill:rgb(91.37255%,91.37255%,97.254902%);fill-opacity:1;" d="M 28.976562 26.375 L 34.382812 26.375 L 34.382812 35.023438 L 28.976562 35.023438 Z M 28.976562 26.375 "/>
<path style=" stroke:none;fill-rule:nonzero;fill:rgb(20.784314%,6.666667%,20.784314%);fill-opacity:1;" d="M 24.652344 22.050781 L 24.652344 24.210938 L 26.8125 24.210938 L 26.8125 22.050781 Z M 24.652344 24.210938 L 22.488281 24.210938 L 22.488281 26.375 L 24.652344 26.375 Z M 22.488281 26.375 L 20.328125 26.375 L 20.328125 35.023438 L 22.488281 35.023438 Z M 22.488281 35.023438 L 22.488281 37.1875 L 24.652344 37.1875 L 24.652344 35.023438 Z M 24.652344 37.1875 L 24.652344 39.347656 L 26.8125 39.347656 L 26.8125 37.1875 Z M 24.652344 39.347656 L 22.488281 39.347656 L 22.488281 41.511719 L 24.652344 41.511719 Z M 22.488281 41.511719 L 20.328125 41.511719 L 20.328125 43.671875 L 22.488281 43.671875 Z M 36.539062 22.050781 L 36.539062 24.210938 L 38.703125 24.210938 L 38.703125 22.050781 Z M 38.703125 24.210938 L 38.703125 26.375 L 40.863281 26.375 L 40.863281 24.210938 Z M 40.863281 26.375 L 40.863281 32.863281 L 31.136719 32.863281 L 31.136719 35.023438 L 44.109375 35.023438 L 44.109375 32.863281 L 43.027344 32.863281 L 43.027344 26.375 Z M 44.109375 35.023438 L 44.109375 39.347656 L 46.269531 39.347656 L 46.269531 35.023438 Z M 44.109375 39.347656 L 31.136719 39.347656 L 31.136719 41.511719 L 35.460938 41.511719 L 35.460938 43.671875 L 39.785156 43.671875 L 39.785156 41.511719 L 44.109375 41.511719 Z M 31.136719 39.347656 L 31.136719 35.023438 L 28.976562 35.023438 L 28.976562 39.347656 Z M 31.136719 39.347656 "/>
<path style=" stroke:none;fill-rule:nonzero;fill:rgb(40.784314%,30.980393%,78.823531%);fill-opacity:1;" d="M 26.8125 17.726562 L 26.8125 19.886719 L 24.652344 19.886719 L 24.652344 22.050781 L 26.8125 22.050781 L 26.8125 24.210938 L 36.539062 24.210938 L 36.539062 19.886719 L 34.382812 19.886719 L 34.382812 17.726562 Z M 26.8125 17.726562 "/>
<path style=" stroke:none;fill-rule:nonzero;fill:rgb(91.37255%,91.37255%,97.254902%);fill-opacity:1;" d="M 27.894531 19.886719 L 34.382812 19.886719 L 34.382812 22.050781 L 27.894531 22.050781 Z M 27.894531 19.886719 "/>
<path style=" stroke:none;fill-rule:nonzero;fill:rgb(60.000002%,37.64706%,0%);fill-opacity:1;" d="M 24.652344 24.210938 L 24.652344 26.375 L 26.8125 26.375 L 26.8125 24.210938 Z M 24.652344 26.375 L 22.488281 26.375 L 22.488281 35.023438 L 24.652344 35.023438 L 24.652344 37.1875 L 26.8125 37.1875 L 26.8125 39.347656 L 24.652344 39.347656 L 24.652344 41.511719 L 30.058594 41.511719 L 30.058594 43.671875 L 35.460938 43.671875 L 35.460938 41.511719 L 31.136719 41.511719 L 31.136719 39.347656 L 28.976562 39.347656 L 28.976562 33.941406 L 26.8125 33.941406 L 26.8125 31.78125 L 24.652344 31.78125 Z M 31.136719 39.347656 L 44.109375 39.347656 L 44.109375 37.1875 L 34.382812 37.1875 L 34.382812 35.023438 L 31.136719 35.023438 Z M 24.652344 41.511719 L 22.488281 41.511719 L 22.488281 43.671875 L 24.652344 43.671875 Z M 36.539062 24.210938 L 36.539062 26.375 L 38.703125 26.375 L 38.703125 24.210938 Z M 36.539062 24.210938 "/>
<path style=" stroke:none;fill-rule:nonzero;fill:rgb(97.254902%,75.686276%,13.725491%);fill-opacity:1;" d="M 26.8125 24.210938 L 26.8125 26.375 L 24.652344 26.375 L 24.652344 31.78125 L 26.8125 31.78125 L 26.8125 33.941406 L 28.976562 33.941406 L 28.976562 26.375 L 34.382812 26.375 L 34.382812 32.863281 L 36.539062 32.863281 L 36.539062 24.210938 Z M 24.652344 41.511719 L 24.652344 43.671875 L 30.058594 43.671875 L 30.058594 41.511719 Z M 24.652344 41.511719 "/>
<path style=" stroke:none;fill-rule:nonzero;fill:rgb(97.254902%,50.588238%,2.745098%);fill-opacity:1;" d="M 34.382812 35.023438 L 44.109375 35.023438 L 44.109375 37.1875 L 34.382812 37.1875 Z M 34.382812 35.023438 "/>
<path style=" stroke:none;fill-rule:nonzero;fill:rgb(40.784314%,30.980393%,78.823531%);fill-opacity:1;" d="M 32.21875 27.457031 L 34.382812 27.457031 L 34.382812 31.78125 L 32.21875 31.78125 Z M 32.21875 27.457031 "/>
<path style=" stroke:none;fill-rule:nonzero;fill:rgb(91.37255%,91.37255%,97.254902%);fill-opacity:1;" d="M 36.539062 26.375 L 40.863281 26.375 L 40.863281 32.863281 L 36.539062 32.863281 Z M 36.539062 26.375 "/>
<path style=" stroke:none;fill-rule:nonzero;fill:rgb(40.784314%,30.980393%,78.823531%);fill-opacity:1;" d="M 36.539062 27.457031 L 38.703125 27.457031 L 38.703125 31.78125 L 36.539062 31.78125 Z M 36.539062 27.457031 "/>
</g>
</svg>
