<svg xmlns="http://www.w3.org/2000/svg" xmlns:xlink="http://www.w3.org/1999/xlink" width="64px" height="64px" viewBox="0 0 64 64" version="1.1">
<defs>
<linearGradient id="linear0" gradientUnits="userSpaceOnUse" x1="0" y1="0" x2="0" y2="1" gradientTransform="matrix(55.351351,0,0,55.351351,4.324324,4.324324)">
<stop offset="0" style="stop-color:#05f7ff;stop-opacity:1;"/>
<stop offset="0.5" style="stop-color:#dddddd;stop-opacity:1;"/>
<stop offset="1" style="stop-color:#e6ff05;stop-opacity:1;"/>
</linearGradient>
</defs>
<g id="surface1">
<path style=" stroke:none;fill-rule:evenodd;fill:url(#linear0);" d="M 12.230469 32 C 12.230469 21.089844 21.089844 12.234375 32 12.234375 C 42.910156 12.234375 51.765625 21.089844 51.765625 32 C 51.765625 42.910156 42.910156 51.769531 32 51.769531 C 21.089844 51.769531 12.230469 42.910156 12.230469 32 Z M 31.710938 4.324219 L 31.6875 4.335938 C 16.5 4.511719 4.324219 16.773438 4.324219 32 C 4.324219 47.335938 16.664062 59.675781 32 59.675781 C 47.097656 59.675781 59.273438 47.691406 59.636719 32.6875 C 59.636719 32.6875 59.664062 32.214844 59.675781 32 L 59.675781 10.253906 C 59.675781 6.972656 57.027344 4.324219 53.746094 4.324219 Z M 34.71875 23.421875 C 34.621094 24.539062 33.878906 24.066406 33.070312 24.675781 C 32.855469 24.636719 32.605469 24.636719 32.265625 24.636719 C 32.203125 23.894531 32.457031 23.761719 32.570312 23.625 C 33.070312 23.226562 33.414062 23.421875 33.414062 23.421875 C 33.785156 23.363281 34.125 23.460938 34.71875 23.421875 Z M 36.582031 21.597656 L 35.496094 21.597656 L 35.496094 21.292969 L 34.90625 21.292969 L 34.90625 21.460938 C 34.839844 21.496094 34.78125 21.566406 34.71875 21.597656 L 34.660156 21.597656 C 33.632812 20.71875 33.566406 22.511719 32.886719 22.109375 C 32.824219 21.734375 32.855469 21.390625 32.855469 20.960938 C 34.039062 20.921875 33.597656 20.585938 33.261719 20.144531 C 33.136719 19.972656 33.070312 19.707031 33.039062 19.539062 C 32.761719 18.421875 31.613281 17.746094 29.9375 18.457031 C 28.851562 18.894531 29.132812 20.484375 29.226562 21.566406 C 29.164062 21.664062 29.039062 21.632812 28.945312 21.632812 C 27.765625 21.703125 27.238281 23.054688 26.988281 24.136719 C 27.054688 25.117188 26.929688 26.199219 26.773438 27.144531 C 26.617188 28.089844 26.308594 28.835938 26.273438 29.742188 C 26.214844 30.558594 26.488281 31.503906 26.433594 32.246094 C 25.78125 34.347656 25.3125 35.730469 24.972656 37.960938 C 24.726562 38.46875 23.855469 39.550781 23.511719 39.789062 C 23.417969 39.957031 23.578125 40.328125 23.417969 40.566406 C 23.144531 41 22.707031 41.238281 22.460938 41.714844 C 22.523438 41.8125 22.085938 41.914062 22.121094 42.085938 C 22.152344 42.253906 22.367188 42.691406 22.460938 42.796875 C 22.488281 42.863281 22.800781 42.691406 22.800781 42.796875 C 22.929688 43.203125 23.203125 44.042969 23.511719 44.246094 C 24.878906 44.414062 24.878906 44.414062 25.4375 44.246094 C 25.746094 43.265625 24.386719 43.707031 24.511719 42.386719 C 26.367188 41.984375 26.960938 41.410156 27.703125 39.28125 C 28.042969 37.726562 28.511719 36.203125 29.226562 34.714844 C 29.347656 34.617188 29.3125 34.347656 29.53125 34.242188 C 30.367188 35.765625 31.890625 36.847656 32.636719 38.433594 C 32.824219 40.496094 33.199219 41.613281 33.847656 41.984375 C 34.003906 42.054688 33.847656 42.691406 33.972656 42.828125 C 33.972656 43.03125 34.039062 43.265625 33.941406 43.503906 C 33.878906 43.675781 33.914062 43.878906 33.914062 44.042969 L 33.914062 44.246094 C 33.941406 44.554688 34.003906 44.554688 34.285156 44.789062 C 35.089844 45.363281 36.175781 46.28125 37.261719 45.605469 C 37.761719 44.71875 36.703125 43.609375 35.960938 43.03125 C 35.710938 42.828125 35.273438 42.324219 35.335938 41.984375 C 35.742188 41.542969 36.015625 39.617188 35.863281 38.132812 C 35.800781 37.792969 35.742188 37.449219 35.617188 37.179688 C 35.242188 36.40625 34.410156 35.324219 33.691406 34.542969 C 33.785156 34.445312 33.914062 34.3125 34.0625 34.242188 C 34.0625 33.5 33.785156 33.261719 33.414062 32.726562 C 33.105469 32.179688 32.390625 31.132812 31.863281 30.796875 C 31.863281 30.796875 31.863281 30.761719 31.335938 30.761719 C 31.308594 30.386719 31.394531 30.085938 31.488281 29.679688 C 31.488281 29.375 31.707031 29.542969 31.769531 28.867188 C 31.921875 28.292969 31.863281 28.632812 31.988281 28.054688 C 32.113281 27.789062 32.171875 27.515625 32.171875 27.078125 C 32.636719 27.246094 33.566406 27.210938 33.972656 27.078125 L 34.0625 27.144531 C 34.1875 27.175781 34.21875 26.972656 34.3125 26.941406 C 35.027344 26.539062 35.273438 25.824219 35.863281 25.761719 C 35.863281 25.761719 36.175781 25.589844 36.636719 25.761719 C 36.824219 25.761719 36.984375 25.789062 36.984375 25.589844 C 37.011719 25.285156 37.011719 25.042969 37.171875 24.847656 C 37.292969 25.652344 37.636719 26.566406 38.257812 27.445312 L 38.875 26.976562 C 38.285156 26.199219 37.914062 25.320312 37.851562 24.308594 C 37.882812 24.375 37.914062 24.441406 37.976562 24.511719 C 38.191406 24.511719 38.3125 24 38.566406 24.03125 C 38.597656 23.96875 38.660156 23.664062 38.71875 23.421875 L 41.050781 23.421875 L 41.882812 23.226562 L 41.882812 22.746094 L 41.265625 22.6875 L 41.265625 22.136719 L 41.109375 22.136719 L 41.109375 21.53125 L 40.738281 21.53125 L 40.738281 22.109375 L 39.773438 22.039062 L 39.773438 21.664062 L 39.40625 21.664062 L 39.40625 22.003906 L 38.410156 21.90625 L 38.410156 21.394531 L 38.039062 21.394531 L 38.039062 21.867188 L 36.578125 21.769531 L 36.578125 21.597656 Z M 36.582031 21.597656 "/>
</g>
</svg>
