<svg xmlns="http://www.w3.org/2000/svg" xmlns:xlink="http://www.w3.org/1999/xlink" width="64px" height="64px" viewBox="0 0 64 64" version="1.1">
<defs>
<linearGradient id="linear0" gradientUnits="userSpaceOnUse" x1="0" y1="0" x2="0" y2="1" gradientTransform="matrix(47.234233,0,0,55.351351,8.382883,4.324324)">
<stop offset="0" style="stop-color:#00a2ff;stop-opacity:1;"/>
<stop offset="0.5" style="stop-color:#dddddd;stop-opacity:1;"/>
<stop offset="1" style="stop-color:#00ffae;stop-opacity:1;"/>
</linearGradient>
</defs>
<g id="surface1">
<path style=" stroke:none;fill-rule:nonzero;fill:url(#linear0);" d="M 36.058594 4.324219 C 20.773438 4.324219 8.382812 16.714844 8.382812 32 C 8.382812 47.285156 20.773438 59.675781 36.058594 59.675781 C 43.394531 59.664062 50.433594 56.746094 55.617188 51.558594 L 52.164062 48.109375 C 47.894531 52.382812 42.105469 54.789062 36.058594 54.792969 C 30.011719 54.792969 24.214844 52.390625 19.941406 48.117188 C 15.664062 43.839844 13.265625 38.042969 13.265625 32 C 13.265625 25.957031 15.664062 20.160156 19.941406 15.882812 C 24.214844 11.609375 30.011719 9.207031 36.058594 9.207031 C 42.105469 9.210938 47.894531 11.617188 52.164062 15.890625 L 55.617188 12.441406 C 50.433594 7.253906 43.394531 4.335938 36.058594 4.324219 Z M 36.058594 12.394531 C 25.234375 12.394531 16.457031 21.171875 16.457031 32 C 16.457031 42.828125 25.234375 51.605469 36.058594 51.605469 C 41.257812 51.597656 46.238281 49.53125 49.914062 45.855469 L 46.445312 42.386719 C 43.691406 45.144531 39.957031 46.699219 36.058594 46.703125 C 27.9375 46.703125 21.355469 40.117188 21.355469 32 C 21.355469 23.882812 27.9375 17.296875 36.058594 17.296875 C 39.957031 17.300781 43.691406 18.855469 46.445312 21.613281 L 49.914062 18.144531 C 46.238281 14.46875 41.257812 12.402344 36.058594 12.394531 Z M 36.058594 20.46875 C 29.6875 20.46875 24.527344 25.632812 24.527344 32 C 24.527344 38.367188 29.6875 43.53125 36.058594 43.53125 C 39.117188 43.53125 42.042969 42.3125 44.207031 40.148438 L 40.714844 36.660156 C 39.476562 37.890625 37.808594 38.585938 36.058594 38.589844 C 34.3125 38.589844 32.636719 37.894531 31.394531 36.660156 C 30.164062 35.421875 29.46875 33.746094 29.46875 32 C 29.46875 30.253906 30.164062 28.578125 31.394531 27.339844 C 32.636719 26.105469 34.3125 25.410156 36.058594 25.410156 C 37.808594 25.414062 39.476562 26.109375 40.714844 27.339844 L 44.207031 23.851562 C 42.042969 21.6875 39.117188 20.46875 36.058594 20.46875 Z M 36.058594 20.46875 "/>
</g>
</svg>
