<svg xmlns="http://www.w3.org/2000/svg" xmlns:xlink="http://www.w3.org/1999/xlink" width="64px" height="64px" viewBox="0 0 64 64" version="1.1">
<defs>
<linearGradient id="linear0" gradientUnits="userSpaceOnUse" x1="0" y1="0" x2="0" y2="1" gradientTransform="matrix(55.351351,0,0,55.126125,4.324324,4.549549)">
<stop offset="0" style="stop-color:#ffae00;stop-opacity:1;"/>
<stop offset="0.5" style="stop-color:#dddddd;stop-opacity:1;"/>
<stop offset="1" style="stop-color:#bf1d1d;stop-opacity:1;"/>
</linearGradient>
</defs>
<g id="surface1">
<path style=" stroke:none;fill-rule:evenodd;fill:url(#linear0);" d="M 33.972656 53.300781 C 34.558594 52.878906 35.375 51.347656 35.902344 51.191406 C 38.945312 50.324219 42.339844 49.421875 45.105469 47.839844 C 45.710938 47.429688 50.105469 47.5625 51.375 47.351562 C 52.097656 47.226562 51.792969 45.675781 52.121094 44.929688 C 53.003906 42.910156 54.613281 43.429688 56.117188 42.566406 C 56.660156 42.261719 58.511719 40.226562 59.675781 39.644531 L 59.636719 43.503906 C 59.730469 49.476562 58.691406 53.710938 56.523438 56.207031 C 55.449219 57.023438 54.582031 57.835938 53.210938 58.3125 C 52.292969 58.523438 51.003906 58.96875 50.042969 59.117188 C 43.023438 60.027344 35.703125 59.503906 31.730469 59.664062 C 29.109375 59.539062 21.285156 59.933594 15.132812 59.328125 C 10.910156 58.8125 9.460938 58 8.710938 57.550781 C 7.714844 56.945312 6.960938 56.253906 6.394531 55.476562 C 5.660156 54.472656 5.226562 53.363281 4.929688 52.421875 C 4.4375 50.867188 4.300781 49.617188 4.328125 49.613281 C 6.570312 49.886719 8.191406 50.59375 9.742188 52.757812 C 13.589844 55.40625 20.363281 51.617188 24.191406 51.617188 C 25.203125 51.617188 26.320312 51.960938 27.46875 52.378906 C 26.621094 51.625 26.554688 50.753906 27.109375 50.410156 C 27.988281 49.863281 27.488281 46.703125 25.957031 43.144531 C 24.445312 39.648438 24.429688 39.539062 25.117188 38.769531 C 26.734375 36.960938 26.652344 36.863281 23.773438 37.144531 C 15.773438 37.914062 15.496094 39.238281 12.734375 40.386719 C 9.105469 41.890625 5.824219 42.414062 5.824219 41.996094 C 5.824219 41.820312 6.308594 41.539062 6.894531 41.375 L 7.960938 41.070312 L 6.828125 40.839844 C 5.703125 40.617188 5.703125 40.613281 7.996094 39.097656 C 14.738281 32.246094 20.902344 24.027344 29.726562 19.390625 C 30.828125 18.835938 32.09375 17.996094 32.363281 17.40625 C 32.617188 16.839844 32.828125 13.949219 32.828125 11.960938 C 32.828125 7.738281 33.511719 5.488281 36.0625 4.726562 C 38.050781 4.460938 37.71875 4.347656 39.488281 5.449219 C 40.675781 6.1875 42.1875 8.394531 43.476562 8.554688 C 48.625 9.191406 53.433594 11.164062 54.238281 12.46875 C 54.386719 12.703125 53.996094 12.632812 53.375 12.3125 C 50.015625 10.570312 42.949219 9.386719 40.460938 10.566406 C 38.417969 11.539062 39.625 12.414062 40.351562 16.511719 C 41.328125 22.070312 40.636719 26.503906 38.328125 29.539062 C 37.773438 30.265625 36.261719 31.636719 34.96875 32.589844 C 33.675781 33.539062 31.027344 34.757812 30.746094 35.292969 C 30.472656 35.828125 29.90625 36.699219 29.496094 37.21875 C 28.847656 38.039062 28.738281 38.863281 28.703125 43.085938 C 28.679688 46.179688 28.820312 48.1875 29.09375 48.511719 C 29.335938 48.800781 29.417969 49.46875 29.285156 49.996094 C 29.011719 51.078125 30.621094 52.675781 32.230469 52.675781 C 32.734375 52.675781 33.488281 52.933594 33.902344 53.246094 C 33.933594 53.269531 33.960938 53.289062 33.972656 53.300781 Z M 27.460938 41.960938 C 27.441406 41.265625 27.550781 39.957031 27.707031 39.042969 C 28.027344 37.1875 27.539062 36.847656 26.730469 38.355469 C 26.117188 39.488281 26.113281 41.300781 26.707031 42.417969 C 27.3125 43.539062 27.503906 43.417969 27.460938 41.960938 Z M 27.460938 41.960938 "/>
</g>
</svg>
