<svg xmlns="http://www.w3.org/2000/svg" xmlns:xlink="http://www.w3.org/1999/xlink" width="64px" height="64px" viewBox="0 0 64 64" version="1.1">
<defs>
<linearGradient id="linear0" gradientUnits="userSpaceOnUse" x1="0" y1="0" x2="0" y2="1" gradientTransform="matrix(55.351351,0,0,36.900902,4.324324,13.54955)">
<stop offset="0" style="stop-color:#ffae00;stop-opacity:1;"/>
<stop offset="0.5" style="stop-color:#dddddd;stop-opacity:1;"/>
<stop offset="1" style="stop-color:#bf1d1d;stop-opacity:1;"/>
</linearGradient>
</defs>
<g id="surface1">
<path style=" stroke:none;fill-rule:nonzero;fill:url(#linear0);" d="M 8.9375 13.550781 C 6.402344 13.550781 4.324219 15.855469 4.324219 18.164062 L 4.324219 45.835938 C 4.324219 48.144531 6.402344 50.449219 8.9375 50.449219 L 55.0625 50.449219 C 57.597656 50.449219 59.675781 48.144531 59.675781 45.835938 L 59.675781 18.164062 C 59.675781 15.855469 57.597656 13.550781 55.0625 13.550781 Z M 9.863281 19.085938 L 54.136719 19.085938 L 54.136719 44.914062 L 9.863281 44.914062 Z M 13.550781 22.773438 L 13.550781 41.226562 L 19.085938 41.226562 L 19.085938 30.890625 L 23.699219 35.511719 L 28.3125 30.890625 L 28.3125 41.226562 L 33.839844 41.226562 L 33.839844 22.773438 L 28.3125 22.773438 L 23.699219 27.386719 L 19.085938 22.773438 Z M 41.226562 22.773438 L 41.226562 33.839844 L 37.539062 33.839844 L 42.148438 41.226562 L 45.835938 41.226562 L 50.449219 33.839844 L 46.761719 33.839844 L 46.761719 22.773438 Z M 41.226562 22.773438 "/>
</g>
</svg>
