<svg xmlns="http://www.w3.org/2000/svg" xmlns:xlink="http://www.w3.org/1999/xlink" width="64px" height="64px" viewBox="0 0 64 64" version="1.1">
<defs>
<linearGradient id="linear0" gradientUnits="userSpaceOnUse" x1="0" y1="0" x2="0" y2="1" gradientTransform="matrix(55.351351,0,0,47.049551,4.324324,8.472973)">
<stop offset="0" style="stop-color:#ffae00;stop-opacity:1;"/>
<stop offset="0.5" style="stop-color:#dddddd;stop-opacity:1;"/>
<stop offset="1" style="stop-color:#bf1d1d;stop-opacity:1;"/>
</linearGradient>
</defs>
<g id="surface1">
<path style=" stroke:none;fill-rule:nonzero;fill:url(#linear0);" d="M 39.042969 55.136719 C 30.382812 53.285156 21.882812 45.988281 19.0625 37.511719 C 18.335938 35.324219 18.082031 31.742188 18.515625 29.8125 C 20.082031 22.820312 28.027344 20.308594 38.113281 23.613281 C 41.855469 24.835938 47.335938 27.761719 47.335938 28.53125 C 47.335938 28.921875 46.648438 29.292969 44.59375 29.988281 L 43.109375 30.488281 L 41.050781 29.484375 C 33.085938 25.578125 25.957031 26.59375 24.355469 31.875 C 23.660156 34.171875 24.054688 36.652344 25.613281 39.785156 C 28.78125 46.117188 36.347656 50.652344 42.730469 50.355469 C 44.539062 50.269531 44.9375 50.164062 46.753906 49.289062 C 49.320312 48.039062 51.867188 45.652344 52.960938 43.449219 C 55.824219 37.699219 54.179688 31.378906 48.21875 25.242188 C 41.292969 18.109375 30.835938 13.382812 22.011719 13.394531 C 17.765625 13.40625 15.3125 14.234375 13.09375 16.410156 C 10.917969 18.539062 10.078125 21.164062 10.3125 25.070312 C 10.835938 33.597656 15.828125 42.542969 24.089844 49.753906 C 25.648438 51.117188 26.921875 52.375 26.921875 52.542969 C 26.921875 53.136719 26.085938 52.867188 24.042969 51.617188 C 17.003906 47.292969 11.417969 41.289062 7.730469 34.0625 C 4.8125 28.355469 3.71875 22.820312 4.644531 18.390625 C 5.347656 15.011719 7.039062 12.441406 9.6875 10.703125 C 15.484375 7.109375 25.039062 8.59375 30.203125 10.085938 C 41.234375 13.363281 51.082031 20.078125 56.257812 27.730469 C 61.609375 35.234375 60.234375 45.097656 55.191406 50.292969 C 52.671875 52.765625 51.011719 53.855469 48.433594 54.738281 C 45.875 55.613281 42.058594 55.773438 39.042969 55.136719 Z M 39.042969 55.136719 "/>
</g>
</svg>
