<svg xmlns="http://www.w3.org/2000/svg" xmlns:xlink="http://www.w3.org/1999/xlink" width="64px" height="64px" viewBox="0 0 64 64" version="1.1">
<defs>
<linearGradient id="linear0" gradientUnits="userSpaceOnUse" x1="0" y1="0" x2="0" y2="1" gradientTransform="matrix(48.603605,0,0,55.351351,7.698198,4.324324)">
<stop offset="0" style="stop-color:#ffae00;stop-opacity:1;"/>
<stop offset="0.5" style="stop-color:#dddddd;stop-opacity:1;"/>
<stop offset="1" style="stop-color:#bf1d1d;stop-opacity:1;"/>
</linearGradient>
</defs>
<g id="surface1">
<path style=" stroke:none;fill-rule:nonzero;fill:url(#linear0);" d="M 32 4.328125 C 18.570312 4.328125 7.699219 9.164062 7.699219 15.144531 C 7.699219 21.121094 18.570312 25.960938 32 25.960938 C 45.429688 25.960938 56.300781 21.121094 56.300781 15.144531 C 56.300781 9.164062 45.429688 4.324219 32 4.324219 Z M 7.699219 18.09375 L 7.699219 26.382812 C 7.699219 32.363281 18.570312 37.199219 32 37.199219 C 45.429688 37.199219 56.300781 32.363281 56.300781 26.382812 L 56.300781 18.09375 C 56.300781 24.070312 45.429688 28.910156 32 28.910156 C 18.570312 28.910156 7.699219 24.070312 7.699219 18.09375 Z M 7.699219 29.335938 L 7.699219 37.617188 C 7.699219 43.597656 18.570312 48.4375 32 48.4375 C 45.429688 48.4375 56.300781 43.597656 56.300781 37.617188 L 56.300781 29.328125 C 56.300781 35.308594 45.429688 40.148438 32 40.148438 C 18.570312 40.148438 7.699219 35.3125 7.699219 29.328125 Z M 7.699219 40.566406 L 7.699219 48.855469 C 7.699219 54.835938 18.570312 59.675781 32 59.675781 C 45.429688 59.675781 56.300781 54.835938 56.300781 48.855469 L 56.300781 40.566406 C 56.300781 46.542969 45.429688 51.386719 32 51.386719 C 18.570312 51.386719 7.699219 46.550781 7.699219 40.566406 Z M 7.699219 40.566406 "/>
</g>
</svg>
