<svg xmlns="http://www.w3.org/2000/svg" xmlns:xlink="http://www.w3.org/1999/xlink" width="64px" height="64px" viewBox="0 0 64 64" version="1.1">
<g id="surface1">
<path style=" stroke:none;fill-rule:nonzero;fill:rgb(11.372549%,78.823531%,60.392159%);fill-opacity:1;" d="M 55.351562 32 C 55.351562 44.894531 44.894531 55.351562 32 55.351562 C 19.105469 55.351562 8.648438 44.894531 8.648438 32 C 8.648438 19.105469 19.105469 8.648438 32 8.648438 C 44.894531 8.648438 55.351562 19.105469 55.351562 32 Z M 55.351562 32 "/>
<path style=" stroke:none;fill-rule:nonzero;fill:rgb(18.82353%,18.82353%,18.82353%);fill-opacity:1;" d="M 23.351562 19.027344 L 40.648438 19.027344 C 43.039062 19.027344 44.972656 20.960938 44.972656 23.351562 L 44.972656 40.648438 C 44.972656 43.039062 43.039062 44.972656 40.648438 44.972656 L 23.351562 44.972656 C 20.960938 44.972656 19.027344 43.039062 19.027344 40.648438 L 19.027344 23.351562 C 19.027344 20.960938 20.960938 19.027344 23.351562 19.027344 Z M 23.351562 19.027344 "/>
<path style=" stroke:none;fill-rule:nonzero;fill:rgb(97.647059%,97.647059%,97.647059%);fill-opacity:1;" d="M 23.351562 39.484375 L 33.503906 39.484375 L 33.503906 41.511719 L 23.351562 41.511719 Z M 23.351562 39.484375 "/>
<path style=" stroke:none;fill-rule:nonzero;fill:rgb(100%,100%,100%);fill-opacity:1;" d="M 25.074219 25.335938 L 25.074219 31.441406 L 26 31.441406 C 27.054688 31.441406 27.859375 31.183594 28.414062 30.660156 C 28.96875 30.136719 29.25 29.375 29.25 28.382812 C 29.25 27.386719 28.972656 26.636719 28.417969 26.113281 C 27.863281 25.597656 27.058594 25.335938 26 25.335938 Z M 22.496094 23.386719 L 25.214844 23.386719 C 26.738281 23.386719 27.863281 23.5 28.609375 23.714844 C 29.351562 23.933594 29.988281 24.296875 30.523438 24.816406 C 30.992188 25.265625 31.339844 25.789062 31.566406 26.378906 C 31.796875 26.964844 31.910156 27.636719 31.910156 28.382812 C 31.910156 29.136719 31.796875 29.8125 31.566406 30.40625 C 31.339844 30.992188 30.992188 31.511719 30.523438 31.964844 C 29.988281 32.484375 29.34375 32.851562 28.59375 33.070312 C 27.839844 33.285156 26.714844 33.390625 25.214844 33.390625 L 22.496094 33.390625 Z M 22.496094 23.386719 "/>
<path style=" stroke:none;fill-rule:nonzero;fill:rgb(100%,100%,100%);fill-opacity:1;" d="M 40.847656 23.703125 L 40.847656 25.820312 C 40.296875 25.574219 39.761719 25.386719 39.238281 25.261719 C 38.714844 25.136719 38.222656 25.078125 37.757812 25.078125 C 37.140625 25.078125 36.6875 25.164062 36.390625 25.332031 C 36.097656 25.5 35.949219 25.761719 35.949219 26.121094 C 35.949219 26.390625 36.046875 26.601562 36.242188 26.753906 C 36.445312 26.898438 36.808594 27.027344 37.328125 27.136719 L 38.429688 27.355469 C 39.539062 27.578125 40.332031 27.917969 40.800781 28.375 C 41.269531 28.828125 41.503906 29.476562 41.503906 30.316406 C 41.503906 31.417969 41.175781 32.242188 40.515625 32.785156 C 39.863281 33.316406 38.867188 33.585938 37.523438 33.585938 C 36.886719 33.585938 36.253906 33.527344 35.613281 33.40625 C 34.976562 33.285156 34.335938 33.105469 33.699219 32.867188 L 33.699219 30.691406 C 34.335938 31.03125 34.953125 31.289062 35.546875 31.460938 C 36.144531 31.632812 36.722656 31.714844 37.277344 31.714844 C 37.835938 31.714844 38.269531 31.621094 38.566406 31.4375 C 38.867188 31.246094 39.015625 30.980469 39.015625 30.632812 C 39.015625 30.316406 38.914062 30.078125 38.710938 29.910156 C 38.511719 29.738281 38.105469 29.585938 37.496094 29.453125 L 36.5 29.230469 C 35.496094 29.015625 34.765625 28.675781 34.300781 28.207031 C 33.839844 27.738281 33.613281 27.105469 33.613281 26.3125 C 33.613281 25.3125 33.933594 24.546875 34.574219 24.011719 C 35.21875 23.476562 36.140625 23.210938 37.347656 23.210938 C 37.898438 23.210938 38.460938 23.25 39.042969 23.335938 C 39.625 23.414062 40.226562 23.539062 40.847656 23.703125 Z M 40.847656 23.703125 "/>
</g>
</svg>
