<svg xmlns="http://www.w3.org/2000/svg" xmlns:xlink="http://www.w3.org/1999/xlink" width="64px" height="64px" viewBox="0 0 64 64" version="1.1">
<defs>
<linearGradient id="linear0" gradientUnits="userSpaceOnUse" x1="0" y1="0" x2="0" y2="1" gradientTransform="matrix(44.405405,0,0,55.351351,9.797298,4.324324)">
<stop offset="0" style="stop-color:#ffae00;stop-opacity:1;"/>
<stop offset="0.5" style="stop-color:#dddddd;stop-opacity:1;"/>
<stop offset="1" style="stop-color:#bf1d1d;stop-opacity:1;"/>
</linearGradient>
</defs>
<g id="surface1">
<path style=" stroke:none;fill-rule:nonzero;fill:url(#linear0);" d="M 32.542969 4.324219 C 28.488281 4.324219 25.117188 10.226562 21.714844 23.386719 C 21.738281 23.550781 19.273438 32.789062 19.273438 32.789062 C 19.125 33.324219 18.636719 33.691406 18.109375 33.691406 C 18.003906 33.691406 17.902344 33.679688 17.808594 33.652344 C 17.164062 33.484375 16.765625 32.828125 16.941406 32.1875 L 17.652344 29.484375 C 17.097656 29.863281 16.539062 30.257812 16 30.609375 C 12.800781 32.714844 9.796875 34.691406 9.796875 37.226562 C 9.796875 38.257812 10.238281 38.835938 10.625 39.144531 C 11.855469 40.121094 13.847656 39.6875 16.335938 39.109375 C 16.988281 38.957031 17.636719 38.785156 18.292969 38.660156 C 18.136719 39.414062 17.988281 40.148438 17.839844 40.875 C 17.0625 44.753906 16.226562 49.011719 15.585938 51.253906 L 49.542969 51.253906 C 48.90625 49.023438 48.0625 44.789062 47.285156 40.949219 C 46.839844 38.753906 44.617188 29.515625 44.617188 29.515625 C 44.449219 28.863281 44.835938 28.199219 45.484375 28.011719 C 46.125 27.851562 46.78125 28.234375 46.949219 28.878906 L 47.585938 31.210938 C 50.589844 28.289062 53.003906 23.597656 53.003906 20.078125 C 53.003906 16.539062 50.648438 16.355469 50.179688 16.355469 C 48.988281 16.355469 48.441406 17.363281 47.921875 18.347656 C 47.175781 19.773438 46.203125 21.691406 43.148438 22.449219 C 39.824219 9.933594 36.539062 4.324219 32.542969 4.324219 Z M 28.9375 13.949219 C 31.207031 13.949219 32.039062 15.835938 32.542969 16.960938 C 32.617188 17.113281 32.726562 17.324219 32.8125 17.488281 C 33.375 17.214844 34.421875 16.351562 35.289062 15.488281 C 35.769531 15.023438 36.539062 15.023438 37.015625 15.488281 C 37.488281 15.960938 37.488281 16.753906 37.015625 17.21875 C 36.691406 17.542969 36.160156 18.015625 35.554688 18.5 C 36.648438 19.269531 37.363281 20.449219 37.363281 21.769531 C 37.363281 24.09375 35.199219 25.984375 32.542969 25.984375 C 29.890625 25.984375 27.730469 24.09375 27.730469 21.769531 C 27.730469 20.125 28.828125 18.707031 30.402344 18.011719 C 30.386719 17.988281 30.378906 17.960938 30.363281 17.9375 C 29.828125 16.746094 29.550781 16.355469 28.9375 16.355469 C 28.414062 16.355469 27.542969 16.945312 27.207031 17.261719 C 26.96875 17.472656 26.664062 17.589844 26.339844 17.570312 C 26.027344 17.558594 25.730469 17.417969 25.511719 17.1875 C 25.0625 16.679688 25.097656 15.914062 25.589844 15.457031 C 25.757812 15.300781 27.3125 13.949219 28.9375 13.949219 Z M 32.542969 19.96875 C 31.238281 19.96875 30.136719 20.792969 30.136719 21.769531 C 30.136719 22.746094 31.238281 23.578125 32.542969 23.578125 C 33.851562 23.578125 34.949219 22.746094 34.949219 21.769531 C 34.949219 20.792969 33.851562 19.96875 32.542969 19.96875 Z M 32.542969 28.390625 C 35.199219 28.390625 37.363281 30.28125 37.363281 32.605469 C 37.363281 34.921875 35.199219 36.8125 32.542969 36.8125 C 29.890625 36.8125 27.730469 34.921875 27.730469 32.605469 C 27.730469 30.28125 29.890625 28.390625 32.542969 28.390625 Z M 32.542969 30.796875 C 31.238281 30.796875 30.136719 31.621094 30.136719 32.605469 C 30.136719 33.582031 31.238281 34.410156 32.542969 34.410156 C 33.851562 34.410156 34.949219 33.578125 34.949219 32.605469 C 34.949219 31.621094 33.851562 30.796875 32.542969 30.796875 Z M 32.542969 39.21875 C 35.863281 39.21875 38.5625 41.378906 38.5625 44.03125 C 38.5625 46.6875 35.863281 48.847656 32.542969 48.847656 C 29.226562 48.847656 26.527344 46.6875 26.527344 44.03125 C 26.527344 41.378906 29.226562 39.21875 32.542969 39.21875 Z M 32.542969 41.625 C 30.589844 41.625 28.9375 42.730469 28.9375 44.03125 C 28.9375 45.335938 30.589844 46.441406 32.542969 46.441406 C 34.5 46.441406 36.152344 45.335938 36.152344 44.03125 C 36.152344 42.730469 34.5 41.625 32.542969 41.625 Z M 13.890625 53.660156 C 12.234375 53.664062 10.890625 55.011719 10.886719 56.664062 C 10.886719 58.324219 12.238281 59.675781 13.890625 59.675781 L 51.199219 59.675781 C 52.851562 59.675781 54.203125 58.324219 54.203125 56.664062 C 54.203125 55.011719 52.851562 53.660156 51.199219 53.660156 Z M 13.890625 53.660156 "/>
</g>
</svg>
