<svg xmlns="http://www.w3.org/2000/svg" xmlns:xlink="http://www.w3.org/1999/xlink" width="64px" height="64px" viewBox="0 0 64 64" version="1.1">
<defs>
<linearGradient id="linear0" gradientUnits="userSpaceOnUse" x1="0" y1="0" x2="0" y2="1" gradientTransform="matrix(49.819821,0,0,55.351351,7.09009,4.324324)">
<stop offset="0" style="stop-color:#ff8963;stop-opacity:1;"/>
<stop offset="0.5" style="stop-color:#dddddd;stop-opacity:1;"/>
<stop offset="1" style="stop-color:#0F6FFF;stop-opacity:1;"/>
</linearGradient>
</defs>
<g id="surface1">
<path style=" stroke:none;fill-rule:nonzero;fill:url(#linear0);" d="M 15.394531 4.324219 L 15.394531 9.863281 L 12.625 9.863281 C 9.566406 9.863281 7.089844 12.335938 7.089844 15.394531 L 7.089844 54.136719 C 7.089844 57.199219 9.566406 59.675781 12.625 59.675781 L 51.375 59.675781 C 54.433594 59.675781 56.910156 57.199219 56.910156 54.136719 L 56.910156 15.394531 C 56.910156 12.335938 54.433594 9.863281 51.375 9.863281 L 48.605469 9.863281 L 48.605469 4.324219 L 43.070312 4.324219 L 43.070312 9.863281 L 20.929688 9.863281 L 20.929688 4.324219 Z M 12.625 23.699219 L 51.375 23.699219 L 51.375 54.136719 L 12.625 54.136719 Z M 27.070312 29.234375 C 23.664062 29.234375 20.929688 31.960938 20.929688 35.375 C 20.929688 40.300781 32 49.125 32 49.125 C 32 49.125 43.070312 40.324219 43.070312 35.367188 C 43.070312 31.960938 40.335938 29.234375 36.929688 29.234375 C 34.910156 29.234375 33.136719 30.246094 32 31.738281 C 30.839844 30.179688 29.011719 29.246094 27.070312 29.234375 Z M 27.070312 29.234375 "/>
</g>
</svg>
