<svg xmlns="http://www.w3.org/2000/svg" xmlns:xlink="http://www.w3.org/1999/xlink" width="64px" height="64px" viewBox="0 0 64 64" version="1.1">
<defs>
<linearGradient id="linear0" gradientUnits="userSpaceOnUse" x1="0" y1="0" x2="0" y2="1" gradientTransform="matrix(55.351351,0,0,55.351351,4.324324,4.324324)">
<stop offset="0" style="stop-color:#00b7ff;stop-opacity:1;"/>
<stop offset="0.5" style="stop-color:#dddddd;stop-opacity:1;"/>
<stop offset="1" style="stop-color:#ee42d9;stop-opacity:1;"/>
</linearGradient>
</defs>
<g id="surface1">
<path style=" stroke:none;fill-rule:nonzero;fill:url(#linear0);" d="M 14.605469 4.324219 C 11.351562 4.324219 12.265625 9.261719 9.996094 11.539062 C 9.238281 12.289062 8.265625 12.875 8.265625 14.605469 C 8.265625 16.238281 9.011719 18.136719 11.339844 18.929688 C 10.105469 22.539062 8.757812 26.539062 6.726562 30.941406 C 5.644531 33.289062 4.3125 35.582031 4.324219 37.570312 C 4.347656 43.554688 14.5 59.675781 32 59.675781 C 49.5 59.675781 59.652344 43.554688 59.675781 37.570312 C 59.6875 35.582031 58.355469 33.289062 57.273438 30.941406 C 55.242188 26.539062 53.894531 22.539062 52.660156 18.929688 C 54.988281 18.136719 55.734375 16.238281 55.734375 14.605469 C 55.734375 12.875 54.761719 12.289062 54.003906 11.539062 C 51.734375 9.261719 52.648438 4.324219 49.394531 4.324219 C 47.902344 4.324219 46.570312 5.441406 45.542969 6.632812 C 43.472656 5.175781 40.8125 4.324219 36.996094 4.324219 C 34.773438 4.324219 33.308594 5 32 5 C 30.6875 5 29.265625 4.324219 27.003906 4.324219 C 23.191406 4.324219 20.511719 5.175781 18.457031 6.632812 C 17.429688 5.441406 16.097656 4.324219 14.605469 4.324219 Z M 20.855469 11.539062 C 21.164062 11.4375 21.5 11.4375 21.8125 11.539062 C 22.960938 11.941406 23.363281 13.835938 22.675781 15.761719 C 21.996094 17.679688 20.46875 18.957031 19.3125 18.542969 C 18.164062 18.136719 17.765625 16.238281 18.457031 14.320312 C 18.96875 12.875 19.914062 11.796875 20.855469 11.539062 Z M 42.1875 11.539062 C 43.335938 11.121094 44.863281 12.394531 45.542969 14.320312 C 46.234375 16.238281 45.835938 18.136719 44.6875 18.542969 C 43.53125 18.957031 42.003906 17.679688 41.320312 15.761719 C 40.636719 13.835938 41.03125 11.941406 42.1875 11.539062 Z M 32 16.625 C 38.175781 16.625 41.226562 21.71875 41.226562 23.253906 C 41.226562 23.914062 40.238281 24.9375 39.015625 25.945312 C 38.6875 25.105469 38.042969 24.503906 37.289062 24.503906 C 36.191406 24.503906 35.269531 25.742188 35.269531 27.199219 C 35.269531 27.578125 35.351562 27.929688 35.460938 28.246094 C 35.1875 28.367188 34.890625 28.433594 34.59375 28.441406 L 29.40625 28.441406 C 29.109375 28.441406 28.8125 28.375 28.539062 28.246094 C 28.648438 27.929688 28.734375 27.578125 28.734375 27.191406 C 28.734375 25.742188 27.808594 24.511719 26.710938 24.511719 C 25.957031 24.511719 25.320312 25.117188 24.984375 25.945312 C 23.746094 24.9375 22.773438 23.863281 22.773438 23.253906 C 22.773438 21.824219 25.824219 16.625 32 16.625 Z M 30.460938 34.117188 L 30.460938 49.199219 C 30.023438 49.457031 29.527344 49.585938 29.023438 49.589844 L 24.597656 49.589844 C 22.957031 49.589844 20.179688 41.585938 20.179688 37.765625 C 24.851562 37.765625 28.515625 36.253906 30.460938 34.113281 Z M 33.539062 34.117188 C 35.484375 36.253906 39.148438 37.765625 43.820312 37.765625 C 43.820312 41.585938 41.042969 49.589844 39.402344 49.589844 L 34.984375 49.589844 C 34.476562 49.585938 33.976562 49.457031 33.539062 49.199219 Z M 33.539062 34.117188 "/>
</g>
</svg>
