<svg xmlns="http://www.w3.org/2000/svg" xmlns:xlink="http://www.w3.org/1999/xlink" width="64px" height="64px" viewBox="0 0 64 64" version="1.1">
<defs>
<linearGradient id="linear0" gradientUnits="userSpaceOnUse" x1="0" y1="0" x2="0" y2="1" gradientTransform="matrix(55.351351,0,0,55.351351,4.324324,4.324324)">
<stop offset="0" style="stop-color:#ffae00;stop-opacity:1;"/>
<stop offset="0.5" style="stop-color:#dddddd;stop-opacity:1;"/>
<stop offset="1" style="stop-color:#bf1d1d;stop-opacity:1;"/>
</linearGradient>
</defs>
<g id="surface1">
<path style=" stroke:none;fill-rule:nonzero;fill:url(#linear0);" d="M 42.4375 9.097656 C 39.257812 7.648438 35.71875 6.835938 32 6.835938 C 30.949219 6.835938 29.917969 6.90625 28.90625 7.027344 C 25.164062 12.207031 23.226562 20.617188 23.378906 25.765625 C 23.378906 25.765625 23.136719 33.421875 28.378906 36.136719 C 28.378906 36.136719 33.09375 38.203125 36.308594 31.515625 C 36.308594 31.515625 38.515625 27.742188 37.617188 19.214844 C 37.617188 19.214844 38.476562 19.367188 38.578125 19.503906 C 38.671875 19.636719 40.476562 26.070312 39.210938 31.488281 C 39.210938 31.488281 38.042969 37.851562 32.3125 39.300781 C 26.582031 40.761719 22.113281 37.238281 19.082031 33.921875 C 16.835938 31.460938 13.496094 24.863281 11.835938 16.945312 C 8.703125 21.144531 6.835938 26.355469 6.835938 32 C 6.835938 35.917969 7.734375 39.625 9.335938 42.933594 C 14.835938 44.566406 29.078125 47.839844 38.121094 41.210938 C 44.070312 36.851562 43.308594 29.863281 43.308594 29.863281 C 43.207031 24.542969 39.96875 19.261719 39.96875 19.261719 C 52.554688 30.648438 45.117188 43.296875 45.117188 43.296875 C 41.664062 50.351562 34.570312 54.867188 28.355469 56.894531 C 29.542969 57.070312 30.761719 57.164062 32 57.164062 C 45.894531 57.164062 57.164062 45.894531 57.164062 32 C 57.164062 26.039062 55.085938 20.554688 51.617188 16.242188 C 50.378906 16.328125 48.945312 16.378906 47.457031 16.328125 C 47.457031 16.328125 40.757812 16.644531 37.003906 18.511719 C 37.003906 18.511719 34.203125 19.765625 31.40625 21.882812 C 31.40625 21.882812 30.8125 22.179688 30.835938 23.269531 C 30.863281 24.355469 30.265625 27.257812 28.285156 28.957031 C 28.285156 28.957031 26.867188 29.679688 27.578125 30.726562 C 27.578125 30.726562 28.53125 32.113281 29.878906 30.652344 C 29.878906 30.652344 33.351562 27.085938 33.5625 21.328125 C 33.5625 21.328125 34.664062 20.386719 36.394531 20.113281 C 36.394531 20.113281 36.71875 28.746094 32.433594 33.082031 C 32.433594 33.082031 28.355469 37.523438 27.042969 30.933594 C 27.042969 30.933594 25.449219 24.660156 33.671875 17.199219 C 33.671875 17.199219 39.175781 11.703125 42.4375 9.097656 Z M 32 59.675781 C 16.714844 59.675781 4.324219 47.285156 4.324219 32 C 4.324219 16.714844 16.714844 4.324219 32 4.324219 C 47.285156 4.324219 59.675781 16.714844 59.675781 32 C 59.675781 47.285156 47.285156 59.675781 32 59.675781 Z M 32 59.675781 "/>
</g>
</svg>
