<svg xmlns="http://www.w3.org/2000/svg" xmlns:xlink="http://www.w3.org/1999/xlink" width="64px" height="64px" viewBox="0 0 64 64" version="1.1">
<defs>
<linearGradient id="linear0" gradientUnits="userSpaceOnUse" x1="0" y1="0" x2="0" y2="1" gradientTransform="matrix(40.360361,0,0,48.432432,11.81982,7.783784)">
<stop offset="0" style="stop-color:#ffae00;stop-opacity:1;"/>
<stop offset="0.5" style="stop-color:#dddddd;stop-opacity:1;"/>
<stop offset="1" style="stop-color:#6600ff;stop-opacity:1;"/>
</linearGradient>
</defs>
<g id="surface1">
<path style=" stroke:none;fill-rule:nonzero;fill:url(#linear0);" d="M 47.488281 28.515625 C 47.542969 29.828125 47.089844 30.460938 46.691406 31.582031 L 45.972656 31.933594 C 45.375 33.042969 46.023438 32.636719 45.59375 33.515625 C 44.675781 34.3125 42.792969 36.003906 42.191406 36.152344 C 41.742188 36.148438 42.488281 35.660156 42.582031 35.460938 C 41.339844 36.285156 41.585938 36.691406 39.6875 37.199219 L 39.636719 37.078125 C 34.960938 39.191406 28.472656 34.996094 28.5625 29.265625 C 28.503906 29.632812 28.417969 29.53125 28.3125 29.6875 C 28.070312 26.730469 29.726562 23.769531 32.511719 22.5625 C 35.242188 21.261719 38.445312 21.792969 40.394531 23.542969 C 39.328125 22.191406 37.1875 20.761719 34.660156 20.894531 C 32.171875 20.929688 29.855469 22.449219 29.078125 24.089844 C 27.808594 24.863281 27.664062 27.070312 27.109375 27.46875 C 26.363281 32.746094 28.503906 35.039062 32.136719 37.707031 C 32.710938 38.078125 32.300781 38.132812 32.378906 38.417969 C 31.171875 37.867188 30.058594 37.050781 29.160156 36.042969 C 29.636719 36.726562 30.160156 37.386719 30.828125 37.910156 C 29.699219 37.539062 28.171875 35.246094 27.730469 35.152344 C 29.6875 38.542969 35.679688 41.09375 38.824219 39.820312 C 37.375 39.878906 35.523438 39.855469 33.894531 39.273438 C 33.203125 38.933594 32.273438 38.226562 32.441406 38.097656 C 36.71875 39.644531 41.148438 39.269531 44.863281 36.402344 C 45.792969 35.691406 46.828125 34.488281 47.125 34.472656 C 46.664062 35.125 47.199219 34.78125 46.863281 35.363281 C 47.796875 33.902344 46.457031 34.765625 47.828125 32.835938 L 48.339844 33.511719 C 48.152344 32.296875 49.902344 30.828125 49.726562 28.90625 C 50.132812 28.320312 50.171875 29.542969 49.753906 30.890625 C 50.335938 29.394531 49.902344 29.160156 50.050781 27.914062 C 50.214844 28.335938 50.433594 28.769531 50.539062 29.210938 C 50.160156 27.765625 50.9375 26.773438 51.132812 25.9375 C 50.9375 25.851562 50.53125 26.578125 50.445312 24.867188 C 50.457031 24.121094 50.664062 24.488281 50.734375 24.296875 C 50.585938 24.210938 50.1875 23.664062 49.945312 22.566406 C 50.121094 22.3125 50.414062 23.234375 50.652344 23.273438 C 50.503906 22.40625 50.230469 21.742188 50.226562 21.078125 C 49.527344 19.675781 49.976562 21.289062 49.414062 20.484375 C 48.679688 18.246094 50.027344 19.960938 50.125 18.945312 C 51.242188 20.515625 51.882812 22.941406 52.179688 23.949219 C 51.960938 22.726562 51.59375 21.539062 51.148438 20.382812 C 51.488281 20.527344 50.597656 17.886719 51.59375 19.632812 C 50.539062 15.863281 47.058594 12.355469 43.867188 10.710938 C 44.257812 11.058594 44.746094 11.488281 44.578125 11.554688 C 42.988281 10.652344 43.265625 10.582031 43.039062 10.191406 C 41.738281 9.6875 41.652344 10.230469 40.792969 10.191406 C 38.363281 8.941406 37.886719 9.078125 35.644531 8.28125 L 35.746094 8.746094 C 34.125 8.230469 33.863281 8.941406 32.113281 8.746094 C 32.011719 8.664062 32.675781 8.449219 33.21875 8.375 C 31.660156 8.582031 31.730469 8.078125 30.207031 8.429688 C 30.582031 8.171875 30.976562 8.003906 31.382812 7.785156 C 30.105469 7.863281 28.335938 8.511719 28.886719 7.917969 C 26.808594 8.8125 23.117188 10.070312 21.042969 11.941406 L 20.972656 11.515625 C 20.03125 12.617188 16.835938 14.800781 16.585938 16.230469 L 16.328125 16.285156 C 15.835938 17.085938 15.511719 18 15.121094 18.828125 C 14.484375 19.894531 14.175781 19.234375 14.261719 19.40625 C 12.996094 21.886719 12.367188 23.972656 11.820312 25.6875 C 12.207031 26.246094 11.828125 29.0625 11.984375 31.3125 C 11.335938 42.429688 20.066406 53.207031 29.605469 55.703125 C 31.011719 56.1875 33.082031 56.164062 34.851562 56.214844 C 32.769531 55.636719 32.488281 55.910156 30.460938 55.226562 C 29 54.558594 28.675781 53.808594 27.636719 52.929688 L 28.042969 53.632812 C 26.011719 52.9375 26.863281 52.769531 25.207031 52.261719 L 25.648438 51.714844 C 24.988281 51.664062 23.894531 50.644531 23.597656 50.066406 L 22.878906 50.105469 C 22.011719 49.0625 21.539062 48.324219 21.582031 47.742188 L 21.347656 48.148438 C 21.082031 47.707031 18.152344 44.28125 19.675781 45.078125 C 19.390625 44.824219 19.015625 44.671875 18.605469 43.957031 L 18.914062 43.617188 C 18.1875 42.710938 17.570312 41.539062 17.617188 41.164062 C 18.011719 41.671875 18.28125 41.761719 18.550781 41.847656 C 16.699219 37.433594 16.59375 41.609375 15.203125 37.351562 L 15.496094 37.328125 C 15.273438 37.003906 15.136719 36.644531 14.945312 36.296875 L 15.082031 35.058594 C 13.746094 33.570312 14.707031 28.757812 14.894531 26.117188 C 15.03125 25.039062 16.011719 23.894531 16.746094 22.105469 L 16.292969 22.03125 C 17.160156 20.578125 21.230469 16.1875 23.105469 16.410156 C 24.015625 15.308594 22.921875 16.410156 22.746094 16.132812 C 24.746094 14.121094 25.382812 14.710938 26.742188 14.351562 C 28.21875 13.515625 25.488281 14.679688 26.191406 14.039062 C 28.6875 13.414062 27.984375 12.621094 31.273438 12.308594 C 31.621094 12.496094 30.460938 12.597656 30.175781 12.847656 C 32.28125 11.851562 36.824219 12.082031 39.785156 13.394531 C 43.21875 14.949219 47.070312 19.511719 47.21875 23.8125 L 47.394531 23.855469 C 47.3125 25.582031 47.664062 27.550781 47.050781 29.355469 L 47.46875 28.5 "/>
</g>
</svg>
