<svg xmlns="http://www.w3.org/2000/svg" xmlns:xlink="http://www.w3.org/1999/xlink" width="64px" height="64px" viewBox="0 0 64 64" version="1.1">
<defs>
<linearGradient id="linear0" gradientUnits="userSpaceOnUse" x1="0" y1="0" x2="0" y2="1" gradientTransform="matrix(55.351351,0,0,55.351351,4.324324,4.324324)">
<stop offset="0" style="stop-color:#00b7ff;stop-opacity:1;"/>
<stop offset="0.5" style="stop-color:#dddddd;stop-opacity:1;"/>
<stop offset="1" style="stop-color:#ee42d9;stop-opacity:1;"/>
</linearGradient>
</defs>
<g id="surface1">
<path style=" stroke:none;fill-rule:nonzero;fill:url(#linear0);" d="M 32 4.324219 L 7.089844 19.289062 C 5.421875 20.390625 4.324219 22.023438 4.324219 23.957031 L 4.324219 54.136719 C 4.324219 57.191406 6.808594 59.675781 9.863281 59.675781 L 54.136719 59.675781 C 57.191406 59.675781 59.675781 57.191406 59.675781 54.136719 L 59.675781 23.957031 C 59.675781 22.015625 58.578125 20.121094 56.910156 19.289062 Z M 32 10.726562 L 53.96875 23.867188 L 32 40.300781 L 10.03125 23.867188 Z M 32 18.164062 L 23.699219 26.460938 L 29.234375 26.460938 L 29.234375 32.515625 L 32 34.765625 L 34.765625 32.515625 L 34.765625 26.460938 L 40.300781 26.460938 Z M 32 18.164062 "/>
</g>
</svg>
