<svg xmlns="http://www.w3.org/2000/svg" xmlns:xlink="http://www.w3.org/1999/xlink" width="64px" height="64px" viewBox="0 0 64 64" version="1.1">
<g id="surface1">
<path style=" stroke:none;fill-rule:nonzero;fill:rgb(21.960784%,68.235296%,100%);fill-opacity:1;" d="M 45.425781 48.941406 L 46.648438 48.941406 C 50.027344 48.941406 52.75 46.210938 52.75 42.84375 L 52.75 14.746094 C 52.75 11.386719 50.015625 8.648438 46.648438 8.648438 L 17.335938 8.648438 C 13.960938 8.648438 11.238281 11.378906 11.238281 14.746094 L 11.238281 42.84375 C 11.238281 46.207031 13.96875 48.941406 17.335938 48.941406 L 33.359375 48.941406 L 45.421875 58.710938 Z M 45.425781 48.941406 "/>
<path style=" stroke:none;fill-rule:nonzero;fill:rgb(100%,99.607843%,100%);fill-opacity:1;" d="M 29.519531 16.296875 L 34.59375 16.296875 L 34.59375 26.039062 L 42.5625 21.4375 L 45.105469 25.835938 L 36.570312 30.761719 L 42.929688 37.113281 L 39.335938 40.707031 L 31.992188 33.359375 L 24.648438 40.707031 L 21.058594 37.113281 L 27.414062 30.761719 L 18.886719 25.835938 L 21.421875 21.4375 L 29.519531 26.113281 Z M 29.519531 16.296875 "/>
</g>
</svg>
