<svg xmlns="http://www.w3.org/2000/svg" xmlns:xlink="http://www.w3.org/1999/xlink" width="64px" height="64px" viewBox="0 0 64 64" version="1.1">
<defs>
<linearGradient id="linear0" gradientUnits="userSpaceOnUse" x1="0" y1="0" x2="0" y2="1" gradientTransform="matrix(55.351351,0,0,36.900902,4.324324,13.54955)">
<stop offset="0" style="stop-color:#ffae00;stop-opacity:1;"/>
<stop offset="0.5" style="stop-color:#dddddd;stop-opacity:1;"/>
<stop offset="1" style="stop-color:#bf1d1d;stop-opacity:1;"/>
</linearGradient>
</defs>
<g id="surface1">
<path style=" stroke:none;fill-rule:nonzero;fill:url(#linear0);" d="M 9.863281 13.550781 L 9.863281 24.621094 L 4.324219 24.621094 L 4.324219 50.449219 L 59.675781 50.449219 L 59.675781 24.621094 L 54.136719 24.621094 L 54.136719 13.550781 L 50.449219 13.550781 L 50.449219 24.621094 L 46.761719 24.621094 L 46.761719 13.550781 L 39.378906 13.550781 L 39.378906 24.621094 L 35.6875 24.621094 L 35.6875 13.550781 L 32 13.550781 L 32 24.621094 L 28.3125 24.621094 L 28.3125 13.550781 L 17.238281 13.550781 L 17.238281 24.621094 L 13.550781 24.621094 L 13.550781 13.550781 Z M 8.011719 28.3125 L 55.988281 28.3125 L 55.988281 46.761719 L 8.011719 46.761719 Z M 9.863281 30.160156 L 9.863281 43.070312 L 13.550781 43.070312 L 13.550781 30.160156 Z M 17.238281 30.160156 L 17.238281 43.070312 L 28.3125 43.070312 L 28.3125 30.160156 Z M 32 30.160156 L 32 43.070312 L 35.6875 43.070312 L 35.6875 30.160156 Z M 39.378906 30.160156 L 39.378906 43.070312 L 46.761719 43.070312 L 46.761719 30.160156 Z M 50.449219 30.160156 L 50.449219 43.070312 L 54.136719 43.070312 L 54.136719 30.160156 Z M 50.449219 30.160156 "/>
</g>
</svg>
