<svg xmlns="http://www.w3.org/2000/svg" xmlns:xlink="http://www.w3.org/1999/xlink" width="64px" height="64px" viewBox="0 0 64 64" version="1.1">
<defs>
<linearGradient id="linear0" gradientUnits="userSpaceOnUse" x1="0" y1="0" x2="0" y2="1" gradientTransform="matrix(38.315314,0,0,55.351351,12.842343,4.324324)">
<stop offset="0" style="stop-color:#00a2ff;stop-opacity:1;"/>
<stop offset="0.5" style="stop-color:#dddddd;stop-opacity:1;"/>
<stop offset="1" style="stop-color:#00ffae;stop-opacity:1;"/>
</linearGradient>
</defs>
<g id="surface1">
<path style=" stroke:none;fill-rule:nonzero;fill:url(#linear0);" d="M 17.09375 4.324219 L 17.09375 23.484375 L 46.90625 23.484375 L 46.90625 4.324219 Z M 23.484375 10.710938 L 29.875 10.710938 L 29.875 17.09375 L 23.484375 17.09375 Z M 34.125 10.710938 L 40.515625 10.710938 L 40.515625 17.09375 L 34.125 17.09375 Z M 20.09375 25.613281 C 18.164062 25.597656 16.3125 26.363281 14.949219 27.726562 C 13.589844 29.085938 12.828125 30.9375 12.839844 32.863281 L 12.839844 52.421875 C 12.828125 54.351562 13.589844 56.203125 14.949219 57.566406 C 16.3125 58.929688 18.164062 59.6875 20.09375 59.675781 L 43.90625 59.675781 C 45.835938 59.6875 47.6875 58.929688 49.050781 57.566406 C 50.410156 56.203125 51.171875 54.351562 51.160156 52.421875 L 51.160156 32.863281 C 51.171875 30.9375 50.410156 29.085938 49.050781 27.726562 C 47.6875 26.363281 45.835938 25.597656 43.90625 25.613281 Z M 20.09375 25.613281 "/>
</g>
</svg>
