<svg xmlns="http://www.w3.org/2000/svg" xmlns:xlink="http://www.w3.org/1999/xlink" width="64px" height="64px" viewBox="0 0 64 64" version="1.1">
<defs>
<linearGradient id="linear0" gradientUnits="userSpaceOnUse" x1="0" y1="0" x2="0" y2="1" gradientTransform="matrix(36.900902,0,0,55.351351,14.702703,4.324324)">
<stop offset="0" style="stop-color:#ff8963;stop-opacity:1;"/>
<stop offset="0.5" style="stop-color:#dddddd;stop-opacity:1;"/>
<stop offset="1" style="stop-color:#0F6FFF;stop-opacity:1;"/>
</linearGradient>
</defs>
<g id="surface1">
<path style=" stroke:none;fill-rule:nonzero;fill:url(#linear0);" d="M 33.152344 4.324219 C 32.386719 6.949219 31.363281 9.511719 30.242188 12.027344 C 24.558594 24.484375 15.660156 33.003906 14.800781 40.863281 C 14.773438 40.984375 14.71875 41.109375 14.703125 41.226562 L 14.773438 41.253906 C 14.757812 41.527344 14.703125 41.792969 14.703125 42.0625 C 14.703125 51.792969 22.960938 59.675781 33.152344 59.675781 C 43.339844 59.675781 51.605469 51.789062 51.605469 42.0625 C 51.605469 41.796875 51.550781 41.527344 51.53125 41.253906 L 51.605469 41.226562 C 51.585938 41.109375 51.53125 40.984375 51.503906 40.863281 C 50.648438 33.003906 41.753906 24.484375 36.0625 12.027344 C 34.945312 9.511719 33.917969 6.949219 33.152344 4.324219 M 33.152344 11.082031 C 35.828125 17.382812 39.324219 22.660156 42.363281 27.253906 C 44.417969 30.457031 46.742188 33.960938 48.296875 37.855469 C 48.710938 39.21875 48.960938 40.632812 48.960938 42.0625 C 48.960938 50.402344 41.886719 57.164062 33.152344 57.164062 C 24.417969 57.164062 17.339844 50.402344 17.339844 42.0625 C 17.339844 40.632812 17.589844 39.21875 18.011719 37.855469 C 19.5625 33.960938 21.890625 30.457031 23.945312 27.253906 C 26.984375 22.660156 30.476562 17.382812 33.152344 11.082031 "/>
</g>
</svg>
