<svg xmlns="http://www.w3.org/2000/svg" xmlns:xlink="http://www.w3.org/1999/xlink" width="64px" height="64px" viewBox="0 0 64 64" version="1.1">
<defs>
<linearGradient id="linear0" gradientUnits="userSpaceOnUse" x1="0" y1="0" x2="0" y2="1" gradientTransform="matrix(55.346848,0,0,28.684686,4.324324,17.657658)">
<stop offset="0" style="stop-color:#05f7ff;stop-opacity:1;"/>
<stop offset="0.5" style="stop-color:#dddddd;stop-opacity:1;"/>
<stop offset="1" style="stop-color:#e6ff05;stop-opacity:1;"/>
</linearGradient>
</defs>
<g id="surface1">
<path style=" stroke:none;fill-rule:nonzero;fill:url(#linear0);" d="M 50.390625 35.027344 C 50.09375 34.847656 52.445312 32.105469 53.023438 32.402344 C 53.867188 33.238281 50.355469 35.09375 50.390625 35.027344 Z M 48.757812 33.144531 C 48.703125 32.957031 52.132812 30.882812 52.625 31.355469 C 53.515625 31.679688 48.789062 33.382812 48.757812 33.144531 Z M 47.511719 26.996094 C 47.890625 28.636719 48.488281 29.160156 50.269531 29.109375 C 48.003906 31.1875 46.621094 27.625 47.511719 26.996094 Z M 49.523438 26.378906 C 50.015625 26.378906 50.417969 26.835938 50.417969 27.402344 C 50.417969 27.960938 50.015625 28.414062 49.523438 28.414062 C 49.027344 28.414062 48.625 27.960938 48.625 27.402344 C 48.625 26.835938 49.027344 26.378906 49.523438 26.378906 Z M 48.203125 24.355469 C 48.125 24.171875 48.664062 17.6875 45.636719 18.886719 C 43.773438 19.578125 45.292969 23.707031 45.414062 24.242188 C 45.523438 24.734375 44.585938 24.679688 44.410156 24.460938 C 44.011719 23.988281 42.710938 19.679688 41.171875 20.449219 C 39.015625 21.636719 41.042969 25.351562 40.613281 25.472656 C 39.8125 25.917969 39.863281 27.011719 39.21875 27.894531 C 38.164062 29.410156 30.257812 27.1875 27.703125 27.03125 C 25.835938 26.921875 24.042969 28.457031 23.875 28.261719 C 21.597656 25.984375 16.886719 22.011719 11.71875 20.6875 C 8.824219 19.902344 4.515625 17.632812 4.347656 17.660156 C 4.050781 17.820312 6.699219 19.539062 11.636719 21.578125 C 16.582031 23.613281 23.40625 28.765625 22.867188 29.597656 C 21.265625 31.863281 20.320312 34.5625 20.972656 39.191406 C 21.089844 40.011719 18.558594 41.429688 18.742188 42.652344 C 18.894531 43.59375 21.570312 41.730469 21.867188 42.097656 C 22.042969 42.757812 20.4375 46.097656 21.085938 46.335938 C 21.5625 46.484375 25.753906 42.363281 25.996094 42.433594 C 32.902344 44.515625 41.890625 42.945312 42.0625 42.878906 C 42.050781 42.839844 48.53125 45.921875 49.09375 45.558594 C 50.515625 44.015625 46.402344 41.847656 47.085938 40.984375 C 47.386719 40.527344 52.097656 42.6875 52.335938 42.097656 C 52.671875 41.078125 50.144531 38.9375 49.765625 38.300781 C 49.4375 37.71875 49.363281 36.773438 50.210938 36.1875 C 51.058594 35.589844 59.726562 32.273438 59.363281 29.710938 C 58.734375 25.050781 48.367188 24.746094 48.203125 24.355469 Z M 59.664062 22.328125 C 59.382812 22.09375 57.136719 25.636719 57.636719 26 C 57.9375 26.226562 59.796875 22.460938 59.664062 22.328125 Z M 59.664062 22.328125 "/>
</g>
</svg>
