<svg xmlns="http://www.w3.org/2000/svg" xmlns:xlink="http://www.w3.org/1999/xlink" width="64px" height="64px" viewBox="0 0 64 64" version="1.1">
<g id="surface1">
<path style=" stroke:none;fill-rule:nonzero;fill:rgb(13.725491%,32.156864%,57.254905%);fill-opacity:1;" d="M 31.71875 8.652344 C 40.128906 8.550781 47.941406 12.976562 52.179688 20.242188 C 56.414062 27.511719 56.414062 36.492188 52.179688 43.757812 C 47.941406 51.023438 40.128906 55.453125 31.71875 55.351562 C 18.933594 55.195312 8.648438 44.789062 8.648438 32 C 8.648438 19.210938 18.933594 8.804688 31.71875 8.652344 Z M 31.71875 8.652344 "/>
<path style=" stroke:none;fill-rule:nonzero;fill:rgb(100%,100%,100%);fill-opacity:1;" d="M 38.902344 28.84375 C 37.203125 26.871094 35.675781 25.597656 33.414062 28.917969 C 32.0625 30.890625 23.988281 42.210938 22.507812 44.011719 C 22.070312 44.535156 21.816406 44.894531 21.492188 45.113281 C 21.492188 44.394531 27.070312 35.296875 28.628906 32.660156 C 30.507812 29.492188 30.449219 29.679688 30.222656 29.679688 C 29.90625 29.679688 29.261719 30.164062 28.273438 31.238281 C 26.480469 33.210938 21.164062 40.546875 20.796875 40.4375 C 20.921875 39.902344 25.085938 33.335938 26.972656 30.617188 C 28.597656 28.277344 27.976562 28.09375 27.046875 28.328125 C 23.070312 29.308594 18.316406 31.664062 18.164062 31.574219 C 18.21875 31.453125 34.179688 19.90625 36.3125 19.6875 C 36.558594 19.660156 37.082031 19.203125 38.011719 18.820312 C 39.027344 18.414062 39.710938 18.074219 39.875 18.183594 C 39.136719 19.25 38.75 19.464844 38.738281 19.808594 C 38.730469 20.371094 38.539062 21.28125 38.320312 21.574219 C 42.445312 24.402344 44.058594 34.039062 45.230469 41.792969 C 45.511719 43.632812 45.773438 45.015625 45.835938 45.835938 C 45.492188 44.914062 42.191406 32.664062 38.894531 28.84375 M 38.894531 28.84375 "/>
</g>
</svg>
