<svg xmlns="http://www.w3.org/2000/svg" xmlns:xlink="http://www.w3.org/1999/xlink" width="64px" height="64px" viewBox="0 0 64 64" version="1.1">
<g id="surface1">
<path style=" stroke:none;fill-rule:nonzero;fill:rgb(58.039218%,72.941178%,19.215687%);fill-opacity:1;" d="M 55.355469 32.011719 C 55.355469 44.910156 44.898438 55.363281 32 55.363281 C 19.105469 55.363281 8.648438 44.910156 8.648438 32.011719 C 8.648438 19.113281 19.105469 8.664062 32 8.664062 C 44.898438 8.664062 55.355469 19.113281 55.355469 32.011719 Z M 55.355469 32.011719 "/>
<path style=" stroke:none;fill-rule:nonzero;fill:rgb(100%,100%,100%);fill-opacity:1;" d="M 32 18.152344 C 27.5625 18.160156 23.398438 20.289062 20.804688 23.886719 L 22.789062 25.082031 C 24.960938 22.175781 28.375 20.464844 32 20.460938 C 38.367188 20.460938 43.53125 25.621094 43.53125 31.988281 C 43.53125 38.359375 38.367188 43.519531 32 43.519531 C 28.375 43.515625 24.960938 41.808594 22.789062 38.90625 L 20.800781 40.09375 C 23.398438 43.691406 27.5625 45.824219 32 45.828125 C 39.644531 45.828125 45.839844 39.632812 45.835938 31.988281 C 45.835938 24.347656 39.644531 18.152344 32 18.152344 Z M 18.164062 23.917969 L 18.164062 40.0625 L 32 31.988281 Z M 32 23.917969 C 29.585938 23.921875 27.304688 25.003906 25.769531 26.867188 L 27.777344 28.070312 C 28.867188 26.894531 30.398438 26.226562 32 26.222656 C 35.1875 26.222656 37.765625 28.804688 37.765625 31.988281 C 37.765625 35.171875 35.1875 37.753906 32 37.753906 C 30.398438 37.753906 28.867188 37.082031 27.777344 35.90625 L 25.765625 37.113281 C 27.300781 38.980469 29.585938 40.0625 32 40.0625 C 36.460938 40.0625 40.074219 36.449219 40.074219 31.988281 C 40.074219 27.53125 36.460938 23.914062 32 23.914062 Z M 32 23.917969 "/>
</g>
</svg>
