<svg xmlns="http://www.w3.org/2000/svg" xmlns:xlink="http://www.w3.org/1999/xlink" width="64px" height="64px" viewBox="0 0 64 64" version="1.1">
<defs>
<linearGradient id="linear0" gradientUnits="userSpaceOnUse" x1="0" y1="0" x2="0" y2="1" gradientTransform="matrix(37.954956,0,0,55.351351,13.022523,4.324324)">
<stop offset="0" style="stop-color:#00fff2;stop-opacity:1;"/>
<stop offset="0.5" style="stop-color:#dddddd;stop-opacity:1;"/>
<stop offset="1" style="stop-color:#0062ff;stop-opacity:1;"/>
</linearGradient>
</defs>
<g id="surface1">
<path style=" stroke:none;fill-rule:nonzero;fill:url(#linear0);" d="M 23.957031 59.636719 C 23.527344 59.5 23.265625 59.253906 23.148438 58.886719 C 23.078125 58.664062 23.070312 58.585938 23.078125 57.742188 C 23.078125 56.824219 23.085938 56.664062 23.261719 55.199219 C 23.367188 54.296875 23.476562 53.539062 23.632812 52.636719 C 23.96875 50.644531 24.023438 50.152344 23.96875 49.648438 C 23.882812 48.785156 23.664062 48.335938 23.273438 48.203125 C 23.058594 48.136719 22.71875 48.179688 22.4375 48.3125 C 22.015625 48.511719 21.484375 48.972656 20.960938 49.582031 C 20.421875 50.199219 19.988281 50.917969 19.394531 52.144531 C 18.796875 53.390625 18.238281 54.484375 18.023438 54.835938 C 17.265625 56.054688 16.308594 57.339844 15.761719 57.855469 C 15.386719 58.210938 14.902344 58.375 14.289062 58.351562 C 13.996094 58.335938 13.90625 58.320312 13.726562 58.238281 C 12.988281 57.90625 12.820312 56.945312 13.265625 55.664062 C 13.328125 55.476562 13.570312 54.949219 13.800781 54.488281 C 14.335938 53.429688 14.664062 52.589844 15.214844 50.957031 C 15.945312 48.761719 16.136719 48.125 16.824219 45.746094 C 17.945312 41.847656 18.753906 37.742188 19.050781 34.503906 C 19.164062 33.191406 19.199219 32.40625 19.199219 30.789062 C 19.199219 29.164062 19.164062 28.429688 19.011719 26.582031 C 18.863281 24.765625 18.839844 24.382812 18.824219 22.78125 C 18.8125 21.394531 18.8125 21.03125 18.863281 20.539062 C 19.023438 18.835938 19.433594 17.335938 20.054688 16.164062 C 20.285156 15.726562 20.734375 15.039062 21.042969 14.664062 L 21.269531 14.386719 L 20.691406 13.800781 C 20.113281 13.210938 19.78125 12.8125 19.308594 12.132812 C 19.164062 11.929688 19.015625 11.726562 18.988281 11.6875 L 18.929688 11.605469 L 18.675781 11.660156 C 18.214844 11.757812 17.609375 11.675781 17.125 11.449219 C 16.027344 10.933594 15.441406 9.679688 15.738281 8.496094 C 15.902344 7.847656 16.421875 7.179688 17.003906 6.875 C 17.429688 6.660156 17.679688 6.597656 18.234375 6.597656 C 18.796875 6.597656 19.011719 6.644531 19.410156 6.835938 C 20.023438 7.144531 20.539062 7.792969 20.710938 8.496094 C 20.761719 8.6875 20.78125 8.878906 20.78125 9.144531 C 20.78125 9.863281 20.578125 10.386719 20.09375 10.914062 C 19.894531 11.132812 19.886719 11.097656 20.242188 11.488281 C 20.820312 12.132812 21.550781 12.679688 22.320312 13.054688 L 22.554688 13.164062 L 22.847656 12.9375 C 23.738281 12.261719 24.789062 11.691406 26.148438 11.160156 C 27.066406 10.792969 27.855469 10.5625 28.929688 10.355469 C 30.285156 10.085938 30.90625 10.027344 32.375 10.027344 C 33.421875 10.027344 33.6875 10.039062 34.242188 10.105469 C 36.660156 10.390625 38.433594 10.960938 40.191406 12.023438 C 40.476562 12.1875 40.484375 12.1875 40.585938 12.136719 C 40.855469 12.011719 41.582031 11.414062 42.015625 10.957031 C 42.523438 10.433594 42.941406 9.808594 43.234375 9.152344 L 43.363281 8.863281 L 43.1875 8.6875 C 42.703125 8.199219 42.445312 7.566406 42.441406 6.863281 C 42.441406 6.457031 42.511719 6.121094 42.679688 5.773438 C 43.027344 5.050781 43.5625 4.605469 44.378906 4.367188 C 44.613281 4.300781 45.394531 4.3125 45.664062 4.382812 C 46.539062 4.621094 47.199219 5.265625 47.46875 6.136719 C 47.539062 6.363281 47.550781 6.460938 47.550781 6.886719 C 47.542969 7.320312 47.539062 7.410156 47.460938 7.636719 C 47.320312 8.054688 47.148438 8.335938 46.824219 8.660156 C 46.515625 8.960938 46.261719 9.136719 45.917969 9.261719 C 45.484375 9.429688 44.9375 9.476562 44.523438 9.386719 L 44.3125 9.339844 L 44.160156 9.769531 C 43.6875 11 43.027344 12.1875 42.296875 13.078125 L 42.027344 13.40625 L 42.339844 13.738281 C 43.328125 14.789062 44.210938 16.347656 44.621094 17.765625 C 44.941406 18.863281 45.125 20.082031 45.175781 21.449219 C 45.191406 21.910156 45.1875 22.136719 45.078125 23.148438 C 44.902344 24.875 44.699219 27.417969 44.597656 29.292969 C 44.570312 29.808594 44.539062 30.320312 44.53125 30.433594 C 44.488281 30.941406 44.410156 33.457031 44.390625 35.164062 C 44.328125 40.261719 44.699219 43.910156 45.496094 46.039062 C 45.5625 46.234375 45.835938 46.855469 46.089844 47.429688 C 46.351562 47.988281 46.949219 49.367188 47.421875 50.484375 C 47.894531 51.589844 48.394531 52.714844 48.53125 52.972656 C 49.097656 54.066406 49.792969 55.054688 50.4375 55.6875 C 50.8125 56.058594 50.976562 56.386719 50.976562 56.738281 C 50.972656 57.179688 50.71875 57.558594 50.230469 57.867188 C 49.839844 58.109375 49.554688 58.1875 49.050781 58.1875 C 48.71875 58.1875 48.558594 58.171875 48.3125 58.105469 C 47.746094 57.960938 47.023438 57.644531 46.523438 57.328125 C 45.378906 56.589844 44.417969 55.308594 43.652344 53.472656 C 43.339844 52.746094 42.730469 50.824219 42.542969 50.023438 C 42.40625 49.421875 42.144531 48.691406 41.933594 48.335938 C 41.429688 47.488281 40.796875 47.160156 40.226562 47.460938 C 39.867188 47.652344 39.488281 48.085938 39.113281 48.710938 C 38.257812 50.152344 37.710938 51.835938 37.585938 53.390625 C 37.515625 54.257812 37.636719 55.265625 37.929688 56.234375 C 38.1875 57.097656 38.207031 57.207031 38.1875 57.644531 C 38.164062 58.261719 38.011719 58.652344 37.664062 58.972656 C 37.457031 59.164062 37.242188 59.28125 36.851562 59.394531 C 36.59375 59.472656 36.488281 59.488281 36.09375 59.488281 C 35.578125 59.496094 35.347656 59.445312 34.972656 59.265625 C 34.585938 59.070312 34.199219 58.636719 33.921875 58.09375 C 33.671875 57.589844 33.289062 56.269531 33.136719 55.386719 C 32.988281 54.503906 32.960938 54.011719 32.949219 52.636719 C 32.945312 51.566406 32.933594 51.257812 32.886719 51.011719 C 32.8125 50.625 32.726562 50.347656 32.570312 50.070312 C 32.226562 49.4375 31.8125 49.1875 31.097656 49.175781 C 30.679688 49.171875 30.402344 49.242188 30.054688 49.457031 C 29.644531 49.691406 29.113281 50.300781 28.757812 50.945312 C 28.160156 52.03125 27.621094 53.699219 27.335938 55.375 C 27.199219 56.164062 26.984375 56.894531 26.675781 57.566406 C 26.136719 58.753906 25.503906 59.40625 24.703125 59.613281 C 24.402344 59.6875 24.152344 59.699219 23.957031 59.636719 Z M 26.488281 42.742188 C 26.566406 42.691406 26.714844 42.5625 26.820312 42.457031 C 27.175781 42.058594 27.320312 41.707031 27.503906 40.808594 C 27.664062 39.996094 27.828125 39.449219 27.984375 39.1875 C 28.308594 38.652344 28.929688 38.375 29.441406 38.550781 C 29.726562 38.636719 30.191406 39.125 30.578125 39.714844 C 30.972656 40.328125 31.3125 40.773438 31.488281 40.921875 C 31.566406 40.988281 31.71875 41.082031 31.828125 41.132812 C 31.988281 41.207031 32.058594 41.214844 32.265625 41.207031 C 32.8125 41.179688 33.027344 40.972656 33.78125 39.785156 C 33.949219 39.511719 34.296875 39.164062 34.484375 39.070312 C 34.921875 38.863281 35.527344 39.015625 35.933594 39.449219 C 36.078125 39.609375 36.3125 39.949219 36.851562 40.785156 C 36.941406 40.921875 37.097656 41.121094 37.199219 41.226562 C 37.664062 41.6875 38.109375 41.671875 38.734375 41.144531 C 39.53125 40.472656 39.835938 39.585938 39.929688 37.679688 C 39.96875 36.855469 40.023438 36.347656 40.152344 35.4375 C 40.230469 34.914062 40.242188 34.691406 40.242188 34.097656 C 40.242188 33.472656 40.238281 33.351562 40.171875 33.113281 C 40.011719 32.523438 39.746094 32.136719 39.363281 31.945312 C 38.714844 31.621094 38.011719 31.679688 37.042969 32.152344 C 36.523438 32.40625 36.3125 32.621094 36 33.269531 C 35.699219 33.875 35.527344 34.097656 35.238281 34.253906 C 35.0625 34.347656 34.988281 34.367188 34.820312 34.367188 C 34.410156 34.367188 34.105469 34.136719 33.460938 33.328125 C 33.203125 33.003906 32.886719 32.636719 32.765625 32.511719 C 32.363281 32.117188 31.960938 31.960938 31.363281 31.960938 C 31.097656 31.960938 31.054688 31.976562 30.820312 32.089844 C 30.429688 32.285156 30.210938 32.539062 29.796875 33.308594 C 29.363281 34.109375 29.21875 34.324219 28.949219 34.585938 C 28.527344 34.988281 28.066406 35.109375 27.738281 34.902344 C 27.539062 34.769531 27.355469 34.570312 27.09375 34.199219 C 26.851562 33.855469 26.511719 33.4375 26.339844 33.273438 C 26.109375 33.050781 25.734375 32.957031 25.378906 33.03125 C 24.972656 33.113281 24.691406 33.3125 24.515625 33.636719 C 24.210938 34.214844 24.125 34.753906 24.152344 35.902344 C 24.179688 36.945312 24.261719 37.5625 24.664062 39.660156 C 24.960938 41.199219 25.058594 41.542969 25.3125 42.066406 C 25.652344 42.757812 26.078125 43.003906 26.488281 42.742188 Z M 27.527344 28.769531 C 27.949219 28.699219 28.335938 28.582031 28.945312 28.339844 C 30.058594 27.910156 30.902344 27.699219 31.914062 27.597656 C 32.347656 27.554688 33.988281 27.554688 34.429688 27.59375 C 35.421875 27.691406 36.390625 27.839844 37.226562 28.027344 C 38.28125 28.253906 38.761719 28.292969 39.449219 28.1875 C 40.257812 28.070312 40.726562 27.839844 41.265625 27.300781 C 41.976562 26.589844 42.339844 25.671875 42.527344 24.148438 C 42.609375 23.476562 42.609375 21.214844 42.53125 20.605469 C 42.3125 18.941406 41.726562 17.710938 40.671875 16.710938 C 39.488281 15.589844 37.390625 14.835938 35 14.664062 C 34.273438 14.613281 32.625 14.621094 31.785156 14.679688 C 29.472656 14.839844 27.863281 15.214844 26.335938 15.957031 C 24.699219 16.742188 23.476562 18.054688 22.820312 19.730469 C 22.175781 21.386719 21.808594 24.121094 22.054688 25.417969 C 22.171875 26.039062 22.40625 26.59375 22.746094 27.078125 C 23.460938 28.085938 24.476562 28.636719 25.976562 28.835938 C 26.214844 28.863281 27.21875 28.820312 27.527344 28.769531 Z M 27.894531 23.976562 C 27.265625 23.824219 26.691406 23.265625 26.515625 22.625 C 26.4375 22.347656 26.457031 21.820312 26.550781 21.542969 C 26.699219 21.109375 27.097656 20.636719 27.472656 20.457031 C 28.210938 20.097656 29.097656 20.238281 29.660156 20.796875 C 30.402344 21.550781 30.410156 22.71875 29.679688 23.457031 C 29.199219 23.933594 28.53125 24.132812 27.894531 23.976562 Z M 29.015625 22.390625 C 29.191406 22.300781 29.390625 22.078125 29.4375 21.914062 C 29.503906 21.679688 29.46875 21.417969 29.351562 21.226562 C 29.054688 20.742188 28.367188 20.710938 28.03125 21.164062 C 27.710938 21.613281 27.863281 22.171875 28.363281 22.40625 C 28.53125 22.488281 28.851562 22.476562 29.015625 22.390625 Z M 36.253906 23.4375 C 35.378906 23.214844 34.800781 22.46875 34.800781 21.554688 C 34.800781 20.730469 35.457031 19.921875 36.257812 19.757812 C 37.285156 19.542969 38.261719 20.152344 38.523438 21.164062 C 38.746094 22.066406 38.191406 23.078125 37.289062 23.390625 C 37.03125 23.484375 36.515625 23.511719 36.253906 23.4375 Z M 37.261719 21.882812 C 37.460938 21.824219 37.738281 21.542969 37.792969 21.351562 C 37.835938 21.171875 37.820312 20.886719 37.746094 20.746094 C 37.675781 20.625 37.496094 20.441406 37.375 20.378906 C 37.234375 20.300781 36.949219 20.285156 36.78125 20.335938 C 36.570312 20.386719 36.324219 20.636719 36.242188 20.867188 C 36.117188 21.257812 36.300781 21.664062 36.6875 21.847656 C 36.878906 21.9375 37.050781 21.945312 37.261719 21.882812 Z M 37.261719 21.882812 "/>
</g>
</svg>
