<svg xmlns="http://www.w3.org/2000/svg" xmlns:xlink="http://www.w3.org/1999/xlink" width="64px" height="64px" viewBox="0 0 64 64" version="1.1">
<defs>
<linearGradient id="linear0" gradientUnits="userSpaceOnUse" x1="0" y1="0" x2="0" y2="1" gradientTransform="matrix(55.351351,0,0,55.351351,4.324324,4.324324)">
<stop offset="0" style="stop-color:#ffae00;stop-opacity:1;"/>
<stop offset="0.5" style="stop-color:#dddddd;stop-opacity:1;"/>
<stop offset="1" style="stop-color:#6600ff;stop-opacity:1;"/>
</linearGradient>
</defs>
<g id="surface1">
<path style=" stroke:none;fill-rule:nonzero;fill:url(#linear0);" d="M 59.328125 19.132812 L 44.875 4.671875 C 44.652344 4.449219 44.351562 4.324219 44.039062 4.324219 C 43.71875 4.324219 43.421875 4.449219 43.203125 4.671875 L 38.910156 8.957031 L 43.472656 13.515625 L 41.808594 15.1875 L 37.242188 10.625 L 34.1875 13.6875 L 42.292969 21.792969 L 40.621094 23.460938 L 32.511719 15.355469 L 29.460938 18.410156 L 34.023438 22.972656 L 32.347656 24.644531 L 27.789062 20.082031 L 24.730469 23.136719 L 32.835938 31.246094 L 31.164062 32.917969 L 23.058594 24.8125 L 20.003906 27.867188 L 24.5625 32.429688 L 22.890625 34.097656 L 18.335938 29.539062 L 15.273438 32.59375 L 23.382812 40.703125 L 21.707031 42.375 L 13.605469 34.265625 L 10.542969 37.324219 L 15.109375 41.882812 L 13.4375 43.554688 L 8.875 38.996094 L 4.671875 43.199219 C 4.449219 43.417969 4.324219 43.71875 4.324219 44.039062 C 4.324219 44.347656 4.449219 44.648438 4.671875 44.867188 L 19.132812 59.328125 C 19.351562 59.550781 19.652344 59.675781 19.96875 59.675781 C 20.28125 59.675781 20.582031 59.550781 20.800781 59.328125 L 59.328125 20.796875 C 59.789062 20.335938 59.789062 19.589844 59.328125 19.132812 Z M 59.328125 19.132812 "/>
</g>
</svg>
