<svg xmlns="http://www.w3.org/2000/svg" xmlns:xlink="http://www.w3.org/1999/xlink" width="64px" height="64px" viewBox="0 0 64 64" version="1.1">
<defs>
<linearGradient id="linear0" gradientUnits="userSpaceOnUse" x1="0" y1="0" x2="0" y2="1" gradientTransform="matrix(45.878378,0,0,55.351351,9.058559,4.324324)">
<stop offset="0" style="stop-color:#ff8963;stop-opacity:1;"/>
<stop offset="0.5" style="stop-color:#dddddd;stop-opacity:1;"/>
<stop offset="1" style="stop-color:#0F6FFF;stop-opacity:1;"/>
</linearGradient>
</defs>
<g id="surface1">
<path style=" stroke:none;fill-rule:nonzero;fill:url(#linear0);" d="M 18.554688 4.324219 L 18.554688 9.066406 L 20.136719 9.066406 L 20.136719 12.230469 L 16.976562 12.230469 L 16.976562 17 L 20.136719 17 L 20.136719 31.203125 L 9.058594 31.203125 L 9.058594 32.785156 L 20.136719 32.785156 L 20.136719 45.417969 L 16.976562 45.417969 L 16.976562 50.1875 L 20.136719 50.1875 L 20.136719 53.335938 L 21.726562 53.335938 L 21.726562 50.1875 L 35.960938 50.1875 C 46.472656 50.1875 54.9375 41.726562 54.9375 31.210938 C 54.9375 20.691406 46.472656 12.230469 35.960938 12.230469 L 21.726562 12.230469 L 21.726562 9.066406 L 23.296875 9.066406 L 23.296875 4.324219 Z M 21.726562 17 L 35.960938 17 C 43.914062 17 50.164062 23.257812 50.164062 31.210938 C 50.164062 39.164062 43.914062 45.417969 35.960938 45.417969 L 21.726562 45.417969 L 21.726562 32.785156 L 26.472656 32.785156 L 23.300781 39.117188 L 39.121094 39.117188 L 35.960938 32.785156 L 40.699219 32.785156 L 40.699219 31.203125 L 35.164062 31.203125 L 31.214844 23.300781 L 27.265625 31.203125 L 21.726562 31.203125 Z M 40.703125 28.835938 L 40.703125 35.164062 L 47.027344 32 Z M 17.769531 53.351562 L 20.933594 59.675781 L 24.09375 53.351562 Z M 17.769531 53.351562 "/>
</g>
</svg>
