<svg xmlns="http://www.w3.org/2000/svg" xmlns:xlink="http://www.w3.org/1999/xlink" width="64px" height="64px" viewBox="0 0 64 64" version="1.1">
<defs>
<linearGradient id="linear0" gradientUnits="userSpaceOnUse" x1="0" y1="0" x2="0" y2="1" gradientTransform="matrix(55.306307,0,0,55.351351,4.346847,4.324324)">
<stop offset="0" style="stop-color:#ffae00;stop-opacity:1;"/>
<stop offset="0.5" style="stop-color:#dddddd;stop-opacity:1;"/>
<stop offset="1" style="stop-color:#bf1d1d;stop-opacity:1;"/>
</linearGradient>
</defs>
<g id="surface1">
<path style=" stroke:none;fill-rule:evenodd;fill:url(#linear0);" d="M 9.253906 5.375 C 10.570312 6.296875 12.820312 7.679688 14.421875 8.933594 C 15.648438 10.070312 15.839844 10.636719 15.839844 12.457031 L 15.839844 33.429688 C 15.839844 39.011719 16.496094 43.066406 14.621094 47.292969 C 12.550781 51.960938 8.171875 53.390625 5.148438 57.53125 C 2.265625 61.09375 7.894531 59.390625 10.109375 58.28125 C 14.839844 55.882812 18.613281 54.539062 24.285156 53.921875 C 31.4375 53.78125 35.945312 54.089844 42.445312 53.941406 C 54.207031 53.941406 59.652344 42.46875 59.652344 27.679688 C 59.652344 15.21875 54.207031 4.324219 41.339844 4.382812 C 30.335938 4.335938 14.261719 4.324219 9.175781 4.324219 C 7.71875 4.324219 8.335938 4.734375 9.253906 5.375 Z M 27.597656 11.949219 C 31.738281 11.960938 40.234375 12.078125 41.894531 12.886719 C 49.171875 16.972656 50.261719 21.867188 50.109375 28.851562 C 50.308594 35.164062 47.984375 41.976562 41.894531 45.207031 C 39.675781 46.285156 25.691406 46.285156 25.691406 46.285156 L 25.324219 11.960938 C 25.324219 11.960938 26.21875 11.949219 27.597656 11.949219 Z M 27.597656 11.949219 "/>
</g>
</svg>
