<svg xmlns="http://www.w3.org/2000/svg" xmlns:xlink="http://www.w3.org/1999/xlink" width="64px" height="64px" viewBox="0 0 64 64" version="1.1">
<defs>
<linearGradient id="linear0" gradientUnits="userSpaceOnUse" x1="0" y1="0" x2="0" y2="1" gradientTransform="matrix(45.72973,0,0,55.351351,9.135135,4.324324)">
<stop offset="0" style="stop-color:#00b7ff;stop-opacity:1;"/>
<stop offset="0.5" style="stop-color:#dddddd;stop-opacity:1;"/>
<stop offset="1" style="stop-color:#ee42d9;stop-opacity:1;"/>
</linearGradient>
</defs>
<g id="surface1">
<path style=" stroke:none;fill-rule:nonzero;fill:url(#linear0);" d="M 16.355469 4.324219 C 12.375 4.324219 9.136719 7.5625 9.136719 11.542969 L 9.136719 52.960938 C 9.136719 56.664062 12.375 59.675781 16.355469 59.675781 L 54.863281 59.675781 L 54.863281 57.265625 L 16.355469 57.265625 C 13.746094 57.265625 11.542969 55.296875 11.542969 52.960938 C 11.542969 50.660156 13.660156 48.847656 16.355469 48.847656 L 54.863281 48.847656 L 54.863281 4.324219 Z M 25.121094 17.558594 L 28.042969 17.558594 L 34.410156 36.117188 L 34.410156 36.8125 L 32 36.8125 L 32 36.515625 L 30.867188 33.203125 L 22.300781 33.203125 L 21.171875 36.515625 L 21.171875 36.8125 L 18.765625 36.8125 L 18.765625 36.117188 Z M 26.585938 20.71875 L 23.132812 30.796875 L 30.039062 30.796875 Z M 40.421875 22.375 C 42.582031 22.375 44.03125 24.0625 44.03125 26.585938 L 44.03125 33.203125 C 44.03125 33.863281 44.578125 34.410156 45.234375 34.410156 L 45.234375 36.8125 C 44.3125 36.8125 43.46875 36.449219 42.828125 35.875 C 42.191406 36.449219 41.351562 36.8125 40.421875 36.8125 L 39.21875 36.8125 C 37.230469 36.8125 35.609375 35.1875 35.609375 33.203125 L 35.609375 30.796875 C 35.609375 28.8125 37.230469 27.1875 39.21875 27.1875 L 40.421875 27.1875 C 40.847656 27.1875 41.253906 27.269531 41.625 27.410156 L 41.625 26.585938 C 41.625 25.761719 41.414062 24.78125 40.421875 24.78125 C 39.835938 24.78125 39.21875 24.921875 39.21875 25.984375 L 36.8125 25.984375 C 36.8125 23.824219 38.265625 22.375 40.421875 22.375 Z M 39.21875 29.589844 C 38.558594 29.589844 38.015625 30.136719 38.015625 30.796875 L 38.015625 33.203125 C 38.015625 33.863281 38.558594 34.410156 39.21875 34.410156 L 40.421875 34.410156 C 41.085938 34.410156 41.625 33.863281 41.625 33.203125 L 41.625 30.796875 C 41.625 30.136719 41.085938 29.589844 40.421875 29.589844 Z M 39.21875 29.589844 "/>
</g>
</svg>
