<svg xmlns="http://www.w3.org/2000/svg" xmlns:xlink="http://www.w3.org/1999/xlink" width="64px" height="64px" viewBox="0 0 64 64" version="1.1">
<g id="surface1">
<path style=" stroke:none;fill-rule:nonzero;fill:rgb(9.019608%,56.862748%,96.078432%);fill-opacity:1;" d="M 54.644531 26.0625 C 54.585938 25.847656 54.527344 25.617188 54.460938 25.390625 C 54.339844 24.960938 54.199219 24.519531 54.042969 24.085938 C 53.726562 23.1875 53.34375 22.304688 52.898438 21.433594 C 52.710938 21.066406 52.507812 20.691406 52.289062 20.324219 C 51.28125 18.609375 50.023438 16.996094 48.511719 15.488281 C 43.957031 10.929688 38.449219 8.648438 32 8.648438 C 25.550781 8.648438 20.046875 10.929688 15.488281 15.488281 C 10.929688 20.046875 8.648438 25.550781 8.648438 32 C 8.648438 38.449219 10.929688 43.957031 15.488281 48.511719 C 18.855469 51.882812 22.738281 54.003906 27.109375 54.878906 C 28.6875 55.195312 30.3125 55.351562 32 55.351562 C 38.449219 55.351562 43.957031 53.074219 48.511719 48.511719 C 50.917969 46.113281 52.6875 43.441406 53.824219 40.511719 C 54.664062 38.335938 55.164062 36.015625 55.308594 33.546875 C 55.335938 33.039062 55.351562 32.523438 55.351562 32 C 55.351562 29.9375 55.117188 27.960938 54.640625 26.0625 Z M 54.644531 26.0625 "/>
<path style=" stroke:none;fill-rule:nonzero;fill:rgb(100%,100%,100%);fill-opacity:1;" d="M 18.890625 16.960938 C 18.890625 19.335938 19.214844 22.707031 20.921875 24.546875 C 21.839844 25.535156 23.351562 25.800781 24.5625 26.238281 C 27.214844 27.191406 30.152344 28.644531 32.976562 28.890625 L 29.261719 28.34375 L 20.847656 26.738281 C 20.863281 27.585938 21.039062 28.300781 21.359375 29.085938 C 23.460938 34.253906 28.539062 33.195312 33.171875 33.195312 C 31.425781 33.726562 29.5 33.789062 27.695312 34.035156 C 27.089844 34.113281 25.933594 34.136719 25.558594 34.703125 C 24.921875 35.65625 26.714844 36.96875 27.304688 37.445312 C 29.871094 39.535156 32.4375 39.136719 35.324219 37.886719 L 34.34375 42.78125 L 37.476562 42.78125 L 35.914062 49.824219 L 39.582031 45.128906 L 43.738281 39.457031 L 39.628906 39.457031 C 40.976562 36.921875 42.632812 34.5625 43.972656 32.019531 C 44.5625 30.910156 45.378906 29.617188 45.019531 28.304688 C 44.460938 26.257812 40.804688 25.355469 39.039062 24.75 C 34.195312 23.085938 29.507812 21.140625 24.761719 19.238281 C 22.90625 18.492188 20.910156 17.0625 18.890625 16.960938 Z M 18.890625 16.960938 "/>
</g>
</svg>
