<svg xmlns="http://www.w3.org/2000/svg" xmlns:xlink="http://www.w3.org/1999/xlink" width="64px" height="64px" viewBox="0 0 64 64" version="1.1">
<defs>
<linearGradient id="linear0" gradientUnits="userSpaceOnUse" x1="0" y1="0" x2="0" y2="1" gradientTransform="matrix(55.351351,0,0,33.801801,4.324324,15.099099)">
<stop offset="0" style="stop-color:#00fff2;stop-opacity:1;"/>
<stop offset="0.5" style="stop-color:#dddddd;stop-opacity:1;"/>
<stop offset="1" style="stop-color:#0062ff;stop-opacity:1;"/>
</linearGradient>
</defs>
<g id="surface1">
<path style=" stroke:none;fill-rule:evenodd;fill:url(#linear0);" d="M 52.746094 38.972656 L 52.59375 39.851562 L 52.59375 41.324219 L 53.042969 45.050781 L 53.8125 46.070312 L 54.136719 46.910156 L 53.6875 46.839844 L 53.6875 47.039062 L 52.914062 46.910156 L 52.914062 47.230469 L 52.335938 47.097656 L 52.015625 46.972656 L 52.015625 47.488281 L 51.5 47.292969 C 51.5 47.292969 50.171875 47.011719 49.960938 46.460938 C 49.8125 46.054688 50.410156 45.671875 50.410156 45.238281 C 50.410156 44.917969 50.144531 44.652344 50.089844 44.335938 C 50 43.8125 50.152344 43.265625 50.089844 42.738281 C 50.050781 42.386719 49.835938 41.710938 49.835938 41.710938 L 49.125 41.261719 C 49.125 41.261719 48.21875 41.179688 47.78125 41.261719 C 47.375 41.335938 47.03125 41.636719 46.621094 41.710938 C 46.390625 41.753906 46.152344 41.710938 45.917969 41.710938 C 45.664062 41.710938 45.402344 41.671875 45.148438 41.710938 C 44.863281 41.753906 44.605469 41.941406 44.3125 41.96875 C 44.011719 41.988281 43.414062 41.835938 43.414062 41.835938 C 43.414062 41.835938 42.855469 42.285156 42.773438 42.609375 C 42.664062 43.03125 42.957031 43.460938 43.027344 43.890625 C 43.164062 44.679688 43.351562 46.265625 43.351562 46.265625 L 44.890625 47.421875 L 44.890625 48 L 44.503906 47.875 L 44.1875 47.875 L 44.1875 48.320312 L 43.609375 48.066406 L 43.476562 48.257812 L 43.476562 48.644531 L 42.902344 48.382812 L 42.707031 48.382812 L 42.644531 48.902344 L 41.9375 48.578125 C 41.9375 48.578125 41.171875 48.476562 40.976562 48.191406 C 40.820312 47.960938 40.976562 47.355469 40.976562 47.355469 C 40.976562 47.355469 39.867188 47.621094 39.308594 47.617188 C 38.714844 47.605469 37.570312 47.292969 37.570312 47.292969 C 37.570312 47.292969 37.449219 46.484375 37.378906 46.070312 C 37.320312 45.710938 37.3125 45.335938 37.1875 44.984375 C 37.039062 44.566406 36.644531 44.257812 36.542969 43.828125 C 36.46875 43.488281 36.613281 42.800781 36.613281 42.800781 L 36.226562 41.902344 L 34.878906 41.773438 L 31.921875 41.191406 L 31.605469 41.644531 L 31.539062 42.609375 C 31.539062 42.609375 31.351562 43.996094 31.160156 44.664062 C 31.039062 45.039062 30.757812 45.363281 30.707031 45.757812 C 30.679688 45.921875 30.769531 46.265625 30.769531 46.265625 L 31.410156 46.714844 L 32.1875 47.230469 L 32.1875 47.742188 L 32.117188 47.742188 L 31.863281 47.550781 L 31.734375 48.125 L 31.214844 47.808594 L 31.027344 47.742188 L 31.089844 48.257812 L 30.578125 48.257812 L 30.257812 48.066406 L 30 48.191406 L 30.132812 48.578125 L 29.613281 48.382812 L 29.230469 48.320312 L 28.328125 48.066406 L 27.496094 47.488281 L 27.496094 47.039062 L 28.011719 45.496094 C 28.070312 45.308594 28.214844 45.121094 28.203125 44.917969 C 28.179688 44.636719 27.867188 44.429688 27.8125 44.148438 C 27.742188 43.746094 27.945312 42.929688 27.945312 42.929688 L 28.011719 41.902344 L 26.210938 42.164062 L 24.734375 43.253906 L 23.191406 44.472656 C 23.191406 44.472656 21.164062 45.835938 20.113281 46.460938 C 19.527344 46.800781 18.949219 47.171875 18.320312 47.421875 C 17.164062 47.878906 15.949219 48.226562 14.726562 48.382812 C 14.085938 48.46875 13.4375 48.445312 12.796875 48.382812 C 11.664062 48.273438 10.570312 47.960938 9.460938 47.742188 C 8.175781 47.488281 6.792969 47.527344 5.609375 46.972656 C 5.113281 46.738281 4.324219 45.945312 4.324219 45.945312 L 4.449219 45.6875 C 4.449219 45.6875 5.136719 45.664062 5.484375 45.6875 C 5.824219 45.710938 6.164062 45.773438 6.511719 45.8125 C 6.890625 45.863281 7.273438 45.917969 7.664062 45.945312 C 8.730469 46.027344 9.8125 46.226562 10.875 46.070312 C 11.539062 45.976562 12.1875 45.734375 12.796875 45.433594 C 13.539062 45.0625 14.21875 44.5625 14.851562 44.023438 C 15.5625 43.410156 16.207031 42.710938 16.78125 41.96875 C 17.324219 41.246094 17.765625 40.457031 18.1875 39.660156 C 18.824219 38.449219 19.855469 35.933594 19.855469 35.933594 C 19.855469 35.933594 20.421875 34.800781 20.757812 34.261719 C 21.417969 33.191406 22.136719 32.160156 22.941406 31.1875 C 23.765625 30.175781 24.660156 29.214844 25.636719 28.355469 C 26.511719 27.59375 27.5 26.960938 28.460938 26.308594 C 29.175781 25.8125 29.828125 25.1875 30.636719 24.894531 C 31.691406 24.511719 32.835938 24.367188 33.96875 24.363281 C 34.230469 24.363281 34.488281 24.367188 34.753906 24.378906 C 36.152344 24.441406 37.539062 24.800781 38.855469 25.28125 C 39.902344 25.652344 40.851562 26.261719 41.8125 26.820312 C 43.039062 27.539062 44.234375 28.324219 45.40625 29.132812 C 46.234375 29.703125 47.039062 30.3125 47.839844 30.929688 C 48.273438 31.261719 48.609375 31.769531 49.125 31.949219 C 49.402344 32.050781 49.921875 32 50.160156 31.96875 L 50.152344 31.949219 C 50.152344 31.949219 52.09375 31.839844 52.914062 31.375 C 53.851562 30.839844 54.539062 29.917969 55.09375 29 C 55.488281 28.355469 55.679688 27.609375 55.863281 26.882812 C 55.96875 26.484375 56.011719 26.070312 56.058594 25.664062 C 56.121094 25.132812 56.230469 24.59375 56.1875 24.058594 C 56.117188 23.136719 55.8125 22.242188 55.542969 21.363281 C 55.386719 20.835938 55.265625 20.285156 54.96875 19.824219 C 54.886719 19.691406 54.753906 19.609375 54.648438 19.5 C 54.320312 19.164062 53.6875 18.472656 53.6875 18.472656 L 53.109375 18.023438 C 53.109375 18.023438 52.5 18.230469 52.207031 18.152344 C 51.902344 18.070312 51.4375 17.570312 51.4375 17.570312 C 51.4375 17.570312 50.441406 17.664062 50.089844 17.382812 C 49.894531 17.226562 49.835938 16.679688 49.835938 16.679688 L 50.796875 16.738281 L 50.089844 16.417969 C 50.089844 16.417969 50.335938 15.941406 50.539062 15.78125 C 50.664062 15.675781 50.839844 15.660156 50.988281 15.585938 C 51.273438 15.445312 51.515625 15.214844 51.824219 15.136719 C 52.09375 15.066406 52.378906 15.117188 52.660156 15.136719 C 52.984375 15.160156 53.3125 15.175781 53.621094 15.261719 C 54.027344 15.378906 54.40625 15.578125 54.78125 15.78125 C 55.246094 16.039062 56.121094 16.679688 56.121094 16.679688 L 57.148438 17.894531 C 57.148438 17.894531 57.910156 19.292969 58.242188 20.011719 C 58.59375 20.769531 58.996094 21.515625 59.207031 22.324219 C 59.476562 23.367188 59.511719 24.460938 59.589844 25.539062 C 59.648438 26.347656 59.710938 27.164062 59.652344 27.972656 C 59.597656 28.769531 59.46875 29.570312 59.265625 30.351562 C 59.0625 31.164062 58.761719 31.949219 58.433594 32.726562 C 58.117188 33.472656 57.78125 34.21875 57.339844 34.90625 C 56.917969 35.570312 56.421875 36.207031 55.863281 36.765625 C 55.269531 37.375 54.589844 37.90625 53.878906 38.375 C 53.503906 38.613281 52.746094 38.972656 52.746094 38.972656 Z M 40.078125 43.761719 L 40.589844 46.394531 L 39.625 44.53125 Z M 40.078125 43.761719 "/>
</g>
</svg>
