<svg xmlns="http://www.w3.org/2000/svg" xmlns:xlink="http://www.w3.org/1999/xlink" width="64px" height="64px" viewBox="0 0 64 64" version="1.1">
<defs>
<linearGradient id="linear0" gradientUnits="userSpaceOnUse" x1="0" y1="0" x2="0" y2="1" gradientTransform="matrix(55.351351,0,0,55.351351,4.324324,4.324324)">
<stop offset="0" style="stop-color:#ffae00;stop-opacity:1;"/>
<stop offset="0.5" style="stop-color:#dddddd;stop-opacity:1;"/>
<stop offset="1" style="stop-color:#6600ff;stop-opacity:1;"/>
</linearGradient>
</defs>
<g id="surface1">
<path style=" stroke:none;fill-rule:nonzero;fill:url(#linear0);" d="M 4.324219 4.324219 L 4.324219 8.9375 L 32 8.9375 L 32 18.164062 L 27.386719 18.164062 L 27.386719 41.226562 L 4.324219 41.226562 L 4.324219 45.835938 L 27.386719 45.835938 L 27.386719 59.675781 L 59.675781 59.675781 L 59.675781 55.0625 L 32 55.0625 L 32 22.773438 L 59.675781 22.773438 L 59.675781 18.164062 L 36.613281 18.164062 L 36.613281 4.324219 Z M 16.363281 15.351562 L 13.039062 18.671875 L 17.160156 22.773438 L 4.324219 22.773438 L 4.324219 27.386719 L 17.160156 27.386719 L 13.039062 31.496094 L 16.363281 34.8125 L 24.433594 26.742188 L 26.015625 25.085938 L 24.433594 23.421875 Z M 47.636719 29.691406 L 37.984375 39.351562 L 39.566406 41.011719 L 47.636719 49.082031 L 50.960938 45.835938 L 46.414062 41.226562 L 59.675781 41.226562 L 59.675781 36.613281 L 47.28125 36.613281 L 50.957031 32.9375 Z M 47.636719 29.691406 "/>
</g>
</svg>
