<svg xmlns="http://www.w3.org/2000/svg" xmlns:xlink="http://www.w3.org/1999/xlink" width="64px" height="64px" viewBox="0 0 64 64" version="1.1">
<defs>
<linearGradient id="linear0" gradientUnits="userSpaceOnUse" x1="0" y1="0" x2="0" y2="1" gradientTransform="matrix(55.351351,0,0,39.513514,4.324324,12.243244)">
<stop offset="0" style="stop-color:#00fff2;stop-opacity:1;"/>
<stop offset="0.5" style="stop-color:#dddddd;stop-opacity:1;"/>
<stop offset="1" style="stop-color:#0062ff;stop-opacity:1;"/>
</linearGradient>
</defs>
<g id="surface1">
<path style=" stroke:none;fill-rule:nonzero;fill:url(#linear0);" d="M 24.363281 12.242188 C 23.625 12.246094 17.558594 12.417969 11.152344 17.179688 C 11.152344 17.179688 4.324219 29.460938 4.324219 44.59375 C 4.324219 44.59375 8.308594 51.421875 18.792969 51.757812 C 18.792969 51.757812 20.542969 49.664062 21.96875 47.863281 C 15.945312 46.0625 13.664062 42.3125 13.664062 42.3125 C 13.664062 42.3125 14.144531 42.648438 14.996094 43.121094 C 15.042969 43.121094 15.089844 43.179688 15.1875 43.21875 C 15.328125 43.320312 15.46875 43.363281 15.613281 43.457031 C 16.796875 44.121094 17.984375 44.644531 19.078125 45.070312 C 21.015625 45.878906 23.339844 46.585938 26.050781 47.109375 C 29.605469 47.773438 33.78125 48.011719 38.335938 47.164062 C 40.5625 46.738281 42.835938 46.121094 45.207031 45.125 C 46.867188 44.511719 48.71875 43.609375 50.664062 42.328125 C 50.664062 42.328125 48.292969 46.171875 42.082031 47.921875 C 43.5 49.679688 45.207031 51.714844 45.207031 51.714844 C 55.691406 51.386719 59.675781 44.554688 59.675781 44.605469 C 59.675781 29.472656 52.847656 17.1875 52.847656 17.1875 C 46.0625 12.113281 39.5625 12.257812 39.5625 12.257812 L 38.902344 13.011719 C 46.960938 15.433594 50.710938 18.988281 50.710938 18.988281 C 45.78125 16.335938 40.941406 15.003906 36.4375 14.488281 C 33.015625 14.105469 29.746094 14.203125 26.855469 14.582031 C 26.566406 14.582031 26.335938 14.636719 26.050781 14.679688 C 24.386719 14.867188 20.355469 15.4375 15.28125 17.664062 C 13.527344 18.429688 12.484375 18.996094 12.484375 18.996094 C 12.484375 18.996094 16.367188 15.246094 24.910156 12.828125 L 24.4375 12.261719 C 24.4375 12.261719 24.410156 12.261719 24.363281 12.261719 Z M 23.152344 29.746094 C 25.855469 29.746094 28.039062 32.070312 27.988281 34.960938 C 27.988281 37.855469 25.855469 40.179688 23.152344 40.179688 C 20.5 40.179688 18.3125 37.855469 18.3125 34.960938 C 18.3125 32.070312 20.449219 29.746094 23.152344 29.746094 Z M 40.46875 29.746094 C 43.121094 29.746094 45.308594 32.070312 45.308594 34.960938 C 45.308594 37.855469 43.171875 40.179688 40.46875 40.179688 C 37.8125 40.179688 35.625 37.855469 35.625 34.960938 C 35.625 32.070312 37.761719 29.746094 40.46875 29.746094 Z M 40.46875 29.746094 "/>
</g>
</svg>
