<svg xmlns="http://www.w3.org/2000/svg" xmlns:xlink="http://www.w3.org/1999/xlink" width="64px" height="64px" viewBox="0 0 64 64" version="1.1">
<defs>
<linearGradient id="linear0" gradientUnits="userSpaceOnUse" x1="0" y1="0" x2="0" y2="1" gradientTransform="matrix(51.891892,0,0,55.351351,7.783784,4.324324)">
<stop offset="0" style="stop-color:#ffae00;stop-opacity:1;"/>
<stop offset="0.5" style="stop-color:#dddddd;stop-opacity:1;"/>
<stop offset="1" style="stop-color:#bf1d1d;stop-opacity:1;"/>
</linearGradient>
</defs>
<g id="surface1">
<path style=" stroke:none;fill-rule:evenodd;fill:url(#linear0);" d="M 32.90625 52.503906 C 26.609375 53.613281 20.09375 50.707031 16.785156 44.972656 C 12.882812 38.214844 14.609375 29.585938 20.796875 24.835938 C 23.890625 22.460938 27.632812 21.417969 31.292969 21.664062 C 34.949219 21.90625 38.527344 23.421875 41.285156 26.1875 L 42.503906 27.40625 L 41.285156 28.621094 L 40.058594 29.851562 L 40.054688 29.851562 L 37.714844 32.1875 L 35.269531 29.742188 L 37.5 27.511719 C 33.214844 24.308594 27.261719 24.234375 22.894531 27.582031 C 18.0625 31.292969 16.738281 37.96875 19.785156 43.242188 C 22.3125 47.621094 27.1875 49.875 31.988281 49.164062 C 32.136719 50.335938 32.445312 51.460938 32.90625 52.503906 Z M 49.296875 31.363281 L 49.296875 14.703125 C 49.296875 12.652344 49.082031 11.21875 48.742188 10.324219 C 48.40625 9.429688 48.039062 9.039062 47.40625 8.6875 C 46.136719 7.988281 43.273438 7.835938 38.917969 7.785156 L 21.621094 7.785156 C 17.265625 7.835938 14.394531 7.988281 13.132812 8.6875 C 12.496094 9.039062 12.136719 9.429688 11.796875 10.324219 C 11.460938 11.21875 11.242188 12.652344 11.242188 14.703125 L 11.242188 49.296875 C 11.242188 51.347656 11.460938 52.78125 11.796875 53.675781 C 12.136719 54.578125 12.496094 54.960938 13.132812 55.3125 C 14.394531 56.011719 17.265625 56.164062 21.621094 56.214844 L 34.945312 56.214844 C 35.96875 57.554688 37.199219 58.726562 38.585938 59.675781 L 21.597656 59.675781 C 17.246094 59.625 14.0625 59.785156 11.460938 58.339844 C 10.160156 57.625 9.132812 56.410156 8.5625 54.890625 C 7.988281 53.375 7.785156 51.570312 7.785156 49.296875 L 7.785156 14.703125 C 7.785156 12.429688 7.988281 10.625 8.5625 9.109375 C 9.132812 7.589844 10.160156 6.375 11.460938 5.660156 C 14.0625 4.21875 17.246094 4.378906 21.597656 4.324219 L 38.941406 4.324219 C 43.292969 4.378906 46.476562 4.21875 49.082031 5.660156 C 50.382812 6.375 51.410156 7.589844 51.976562 9.109375 C 52.550781 10.625 52.757812 12.429688 52.757812 14.703125 L 52.757812 32.207031 C 51.660156 31.796875 50.496094 31.511719 49.296875 31.363281 Z M 30.269531 35.460938 C 31.226562 35.460938 32 36.234375 32 37.1875 C 32 38.144531 31.226562 38.917969 30.269531 38.917969 C 29.3125 38.917969 28.539062 38.144531 28.539062 37.1875 C 28.539062 36.234375 29.3125 35.460938 30.269531 35.460938 Z M 32.636719 41.753906 C 31.945312 42.164062 31.132812 42.378906 30.269531 42.378906 C 27.40625 42.378906 25.082031 40.058594 25.082031 37.1875 C 25.082031 34.324219 27.40625 32 30.269531 32 C 33 32 35.238281 34.109375 35.433594 36.785156 C 34.214844 38.238281 33.261719 39.914062 32.636719 41.753906 Z M 47.039062 43.273438 C 48 43.273438 48.929688 43.660156 49.613281 44.339844 C 50.292969 45.027344 50.675781 45.949219 50.675781 46.917969 C 50.675781 47.886719 50.292969 48.8125 49.613281 49.5 C 48.929688 50.1875 48 50.566406 47.039062 50.566406 C 46.066406 50.566406 45.136719 50.1875 44.457031 49.5 C 43.773438 48.8125 43.386719 47.886719 43.386719 46.917969 C 43.386719 45.949219 43.773438 45.027344 44.457031 44.339844 C 45.136719 43.660156 46.066406 43.273438 47.039062 43.273438 Z M 43.847656 34.164062 L 43.5625 37.523438 C 42.496094 37.917969 41.503906 38.488281 40.636719 39.214844 L 37.582031 37.78125 L 34.390625 43.300781 L 37.164062 45.230469 C 37.0625 45.785156 37.011719 46.351562 37.011719 46.917969 C 37.011719 47.488281 37.058594 48.054688 37.152344 48.617188 L 34.390625 50.539062 L 37.582031 56.058594 L 40.625 54.625 C 41.503906 55.347656 42.496094 55.917969 43.5625 56.3125 L 43.847656 59.675781 L 50.21875 59.675781 L 50.503906 56.3125 C 51.570312 55.921875 52.558594 55.347656 53.433594 54.621094 L 56.488281 56.058594 L 59.675781 50.539062 L 56.902344 48.609375 C 57 48.054688 57.054688 47.488281 57.058594 46.917969 C 57.058594 46.351562 57.011719 45.785156 56.910156 45.21875 L 59.675781 43.300781 L 56.488281 37.78125 L 53.4375 39.210938 C 52.5625 38.488281 51.570312 37.917969 50.5 37.527344 L 50.21875 34.164062 Z M 43.847656 34.164062 "/>
</g>
</svg>
