<svg xmlns="http://www.w3.org/2000/svg" xmlns:xlink="http://www.w3.org/1999/xlink" width="64px" height="64px" viewBox="0 0 64 64" version="1.1">
<g id="surface1">
<path style=" stroke:none;fill-rule:nonzero;fill:rgb(0%,52.941179%,92.941177%);fill-opacity:1;" d="M 31.71875 8.652344 C 40.128906 8.550781 47.941406 12.976562 52.179688 20.242188 C 56.414062 27.511719 56.414062 36.492188 52.179688 43.757812 C 47.941406 51.023438 40.128906 55.453125 31.71875 55.351562 C 18.933594 55.195312 8.648438 44.789062 8.648438 32 C 8.648438 19.210938 18.933594 8.804688 31.71875 8.652344 Z M 31.71875 8.652344 "/>
<path style=" stroke:none;fill-rule:nonzero;fill:rgb(100%,100%,100%);fill-opacity:1;" d="M 29.324219 17.902344 C 28.460938 18.4375 27.613281 19 26.789062 19.59375 C 25.773438 20.304688 24.699219 21.234375 23.554688 22.378906 C 22.5625 23.371094 21.863281 24.347656 21.464844 25.3125 C 21.085938 26.289062 20.953125 27.253906 21.070312 28.195312 C 21.1875 29.140625 21.511719 30.0625 22.039062 30.957031 C 22.636719 31.9375 23.359375 32.835938 24.175781 33.636719 L 31.4375 40.894531 L 33.75 38.585938 L 26.984375 31.820312 C 25.414062 30.253906 24.535156 28.875 24.351562 27.695312 C 24.167969 26.519531 24.664062 25.34375 25.84375 24.164062 C 26.089844 23.917969 26.355469 23.667969 26.636719 23.421875 L 27.4375 22.722656 C 27.671875 22.546875 27.90625 22.367188 28.132812 22.179688 C 28.292969 22.054688 28.46875 21.945312 28.65625 21.855469 L 43.527344 36.730469 L 45.835938 34.417969 Z M 28.605469 25.242188 L 26.289062 27.5625 L 37.210938 38.46875 C 37.117188 38.65625 37.007812 38.832031 36.882812 38.992188 C 36.691406 39.21875 36.511719 39.453125 36.335938 39.6875 L 35.636719 40.484375 C 35.398438 40.757812 35.152344 41.023438 34.894531 41.28125 C 33.714844 42.460938 32.539062 42.957031 31.363281 42.773438 C 30.1875 42.585938 28.8125 41.710938 27.238281 40.136719 L 20.476562 33.378906 L 18.164062 35.691406 L 25.421875 42.949219 C 26.226562 43.769531 27.128906 44.488281 28.109375 45.085938 C 29 45.617188 29.921875 45.941406 30.867188 46.058594 C 31.8125 46.175781 32.773438 46.039062 33.75 45.660156 C 34.710938 45.261719 35.6875 44.566406 36.683594 43.574219 C 37.828125 42.429688 38.753906 41.351562 39.464844 40.335938 C 40.195312 39.3125 40.761719 38.464844 41.160156 37.804688 Z M 28.605469 25.242188 "/>
</g>
</svg>
