<svg xmlns="http://www.w3.org/2000/svg" xmlns:xlink="http://www.w3.org/1999/xlink" width="64px" height="64px" viewBox="0 0 64 64" version="1.1">
<g id="surface1">
<path style=" stroke:none;fill-rule:nonzero;fill:rgb(30.19608%,30.19608%,30.19608%);fill-opacity:1;" d="M 55.351562 32 C 55.351562 44.894531 44.894531 55.351562 32 55.351562 C 19.105469 55.351562 8.648438 44.894531 8.648438 32 C 8.648438 19.105469 19.105469 8.648438 32 8.648438 C 44.894531 8.648438 55.351562 19.105469 55.351562 32 Z M 55.351562 32 "/>
<path style=" stroke:none;fill-rule:evenodd;fill:rgb(100%,100%,100%);fill-opacity:1;" d="M 32 16.648438 C 30.765625 19.667969 30.023438 21.644531 28.652344 24.574219 C 29.488281 25.464844 30.523438 26.503906 32.203125 27.679688 C 30.394531 26.9375 29.167969 26.191406 28.25 25.417969 C 26.492188 29.078125 23.742188 34.300781 18.164062 44.328125 C 22.546875 41.792969 25.949219 40.238281 29.117188 39.636719 C 28.976562 39.023438 28.910156 38.390625 28.914062 37.761719 L 28.914062 37.621094 C 28.984375 34.8125 30.449219 32.648438 32.183594 32.796875 C 33.914062 32.941406 35.257812 35.335938 35.1875 38.148438 C 35.179688 38.660156 35.117188 39.164062 35.011719 39.664062 C 38.148438 40.273438 41.511719 41.832031 45.835938 44.328125 C 44.988281 42.761719 44.222656 41.34375 43.492188 39.992188 C 42.351562 39.105469 41.15625 37.949219 38.71875 36.699219 C 40.390625 37.136719 41.59375 37.636719 42.527344 38.199219 C 35.132812 24.433594 34.535156 22.601562 32 16.648438 Z M 32 16.648438 "/>
</g>
</svg>
