<svg xmlns="http://www.w3.org/2000/svg" xmlns:xlink="http://www.w3.org/1999/xlink" width="64px" height="64px" viewBox="0 0 64 64" version="1.1">
<g id="surface1">
<path style=" stroke:none;fill-rule:nonzero;fill:rgb(30.980393%,30.980393%,30.980393%);fill-opacity:1;" d="M 32 8.648438 C 44.894531 8.648438 55.351562 19.105469 55.351562 32 C 55.351562 44.894531 44.894531 55.351562 32 55.351562 C 19.105469 55.351562 8.648438 44.894531 8.648438 32 C 8.648438 19.105469 19.105469 8.648438 32 8.648438 Z M 32 8.648438 "/>
<path style=" stroke:none;fill-rule:nonzero;fill:rgb(100%,100%,100%);fill-opacity:1;" d="M 26.335938 21.621094 L 23.824219 24.136719 L 30.765625 31.949219 L 29.363281 33.601562 L 27.597656 31.6875 L 18.164062 42.378906 L 45.835938 42.378906 L 39.546875 34.832031 L 38.820312 35.664062 L 34.28125 30.558594 L 40.808594 22.878906 L 39.546875 21.621094 L 33.089844 29.214844 Z M 31.960938 33.289062 L 36.460938 38.355469 L 35.144531 39.863281 L 30.578125 34.914062 Z M 31.960938 33.289062 "/>
</g>
</svg>
