<svg xmlns="http://www.w3.org/2000/svg" xmlns:xlink="http://www.w3.org/1999/xlink" width="64px" height="64px" viewBox="0 0 64 64" version="1.1">
<g id="surface1">
<path style=" stroke:none;fill-rule:nonzero;fill:rgb(23.921569%,25.882354%,30.588236%);fill-opacity:1;" d="M 31.71875 8.652344 C 40.128906 8.550781 47.941406 12.976562 52.179688 20.242188 C 56.414062 27.511719 56.414062 36.492188 52.179688 43.757812 C 47.941406 51.023438 40.128906 55.453125 31.71875 55.351562 C 18.933594 55.195312 8.648438 44.789062 8.648438 32 C 8.648438 19.210938 18.933594 8.804688 31.71875 8.652344 Z M 31.71875 8.652344 "/>
<path style=" stroke:none;fill-rule:nonzero;fill:rgb(100%,100%,100%);fill-opacity:1;" d="M 32 18.164062 C 24.359375 18.160156 18.160156 24.359375 18.164062 32 C 18.164062 39.644531 24.359375 45.839844 32 45.835938 C 39.644531 45.835938 45.835938 39.644531 45.835938 32 C 45.839844 24.359375 39.644531 18.164062 32 18.164062 Z M 35.703125 21.398438 C 36.09375 21.390625 36.417969 21.4375 36.804688 21.5 C 38.214844 21.726562 39.574219 22.632812 40.4375 24.132812 C 41.605469 26.152344 41.332031 28.707031 40.027344 30.113281 C 39.316406 30.765625 39.164062 30.8125 38.730469 31.113281 C 39.03125 30.640625 39.082031 30.550781 39.15625 30.113281 C 39.136719 29.875 39.144531 29.773438 39.015625 29.445312 C 38.859375 29.082031 38.582031 28.785156 38.234375 28.597656 C 37.847656 28.429688 37.433594 28.34375 37.011719 28.359375 C 36.765625 28.359375 36.617188 28.351562 36.289062 28.398438 C 34.769531 28.816406 33.070312 28.238281 32.273438 26.851562 C 31.316406 25.195312 32.011719 23.003906 33.722656 22.015625 C 34.199219 21.714844 34.730469 21.515625 35.285156 21.429688 C 35.433594 21.414062 35.570312 21.40625 35.703125 21.398438 Z M 25.636719 25.90625 C 25.882812 25.914062 26.121094 25.945312 26.355469 26 C 27.273438 26.285156 27.390625 26.386719 27.867188 26.621094 C 27.3125 26.597656 27.207031 26.59375 26.792969 26.753906 C 26.589844 26.886719 26.5 26.933594 26.285156 27.207031 C 26.046875 27.523438 25.929688 27.914062 25.941406 28.308594 C 25.988281 28.726562 26.121094 29.128906 26.339844 29.484375 C 26.460938 29.695312 26.535156 29.832031 26.742188 30.085938 C 27.863281 31.195312 28.207031 32.960938 27.40625 34.339844 C 26.453125 36 24.203125 36.488281 22.492188 35.503906 C 21.996094 35.238281 21.558594 34.882812 21.210938 34.441406 C 20.90625 34.03125 20.667969 33.574219 20.507812 33.089844 C 19.996094 31.757812 20.101562 30.125 20.960938 28.628906 C 21.988281 26.859375 23.914062 25.839844 25.636719 25.902344 Z M 36.328125 34.8125 C 38.238281 34.8125 39.789062 36.511719 39.789062 38.488281 C 39.789062 39.070312 39.734375 39.621094 39.511719 40.132812 C 39.273438 40.6875 39.023438 41.007812 38.695312 41.414062 C 37.792969 42.523438 36.328125 43.246094 34.597656 43.246094 C 32.265625 43.246094 30.1875 41.730469 29.625 39.894531 C 29.414062 38.957031 29.445312 38.804688 29.410156 38.273438 C 29.667969 38.769531 29.714844 38.863281 30.058594 39.136719 C 30.277344 39.25 30.363281 39.300781 30.707031 39.359375 C 31.101562 39.398438 31.496094 39.308594 31.832031 39.097656 C 32.171875 38.851562 32.453125 38.535156 32.652344 38.164062 C 32.773438 37.953125 32.859375 37.828125 32.980469 37.515625 C 33.371094 35.992188 34.730469 34.816406 36.332031 34.816406 Z M 36.328125 34.8125 "/>
</g>
</svg>
