<svg xmlns="http://www.w3.org/2000/svg" xmlns:xlink="http://www.w3.org/1999/xlink" width="64px" height="64px" viewBox="0 0 64 64" version="1.1">
<g id="surface1">
<path style=" stroke:none;fill-rule:nonzero;fill:rgb(0%,58.039218%,94.117647%);fill-opacity:1;" d="M 55.351562 32 C 55.351562 44.894531 44.894531 55.351562 32 55.351562 C 19.105469 55.351562 8.648438 44.894531 8.648438 32 C 8.648438 19.105469 19.105469 8.648438 32 8.648438 C 44.894531 8.648438 55.351562 19.105469 55.351562 32 Z M 55.351562 32 "/>
<path style="fill:none;stroke-width:4;stroke-linecap:round;stroke-linejoin:miter;stroke:rgb(100%,100%,100%);stroke-opacity:1;stroke-miterlimit:4;" d="M 38.001935 32.000105 C 38.001935 35.314548 35.314548 38.001935 32.000105 38.001935 C 28.685661 38.001935 25.998274 35.314548 25.998274 32.000105 C 25.998274 28.685661 28.685661 25.998274 32.000105 25.998274 C 35.314548 25.998274 38.001935 28.685661 38.001935 32.000105 Z M 38.001935 32.000105 " transform="matrix(0.74131,0,0,0.74131,8.277994,8.277994)"/>
<path style="fill:none;stroke-width:4;stroke-linecap:round;stroke-linejoin:miter;stroke:rgb(100%,100%,100%);stroke-opacity:1;stroke-miterlimit:4;" d="M 22.014618 22.188508 C 25.998274 18.131081 32.04226 16.892775 37.301107 19.042684 C 42.565224 21.192594 46.000863 26.319706 46.000863 32.000105 C 46.000863 37.680503 42.565224 42.807615 37.301107 44.957525 C 32.04226 47.112704 25.998274 45.869129 22.014618 41.811701 " transform="matrix(0.74131,0,0,0.74131,8.277994,8.277994)"/>
<path style="fill:none;stroke-width:4;stroke-linecap:round;stroke-linejoin:miter;stroke:rgb(100%,100%,100%);stroke-opacity:1;stroke-miterlimit:4;" d="M 10.854058 38.065168 C 9.715871 34.10259 9.715871 29.89762 10.854058 25.940311 " transform="matrix(0.74131,0,0,0.74131,8.277994,8.277994)"/>
<path style="fill:none;stroke-width:4;stroke-linecap:round;stroke-linejoin:miter;stroke:rgb(100%,100%,100%);stroke-opacity:1;stroke-miterlimit:4;" d="M 36.948058 10.564242 C 41.22153 11.549617 45.099798 13.789106 48.09281 16.998163 " transform="matrix(0.74131,0,0,0.74131,8.277994,8.277994)"/>
<path style="fill:none;stroke-width:4;stroke-linecap:round;stroke-linejoin:miter;stroke:rgb(100%,100%,100%);stroke-opacity:1;stroke-miterlimit:4;" d="M 48.09281 47.002047 C 45.099798 50.211103 41.22153 52.450592 36.948058 53.435967 " transform="matrix(0.74131,0,0,0.74131,8.277994,8.277994)"/>
<path style="fill:none;stroke-width:4;stroke-linecap:round;stroke-linejoin:miter;stroke:rgb(100%,100%,100%);stroke-opacity:1;stroke-miterlimit:4;" d="M 18.610595 36.094418 C 17.820187 33.50188 17.79384 30.740721 18.542093 28.137645 " transform="matrix(0.74131,0,0,0.74131,8.277994,8.277994)"/>
</g>
</svg>
