<svg xmlns="http://www.w3.org/2000/svg" xmlns:xlink="http://www.w3.org/1999/xlink" width="64px" height="64px" viewBox="0 0 64 64" version="1.1">
<g id="surface1">
<path style=" stroke:none;fill-rule:nonzero;fill:rgb(33.333334%,86.666667%,100%);fill-opacity:1;" d="M 55.355469 32.035156 C 55.355469 44.929688 44.898438 55.386719 32 55.386719 C 19.105469 55.386719 8.648438 44.929688 8.648438 32.035156 C 8.648438 19.136719 19.105469 8.679688 32 8.679688 C 44.898438 8.679688 55.355469 19.136719 55.355469 32.035156 Z M 55.355469 32.035156 "/>
<path style=" stroke:none;fill-rule:nonzero;fill:rgb(10.196079%,10.196079%,10.196079%);fill-opacity:1;" d="M 21.84375 23.613281 L 21.84375 18.390625 L 25.949219 17.277344 L 34.515625 20.628906 L 46.0625 39.257812 L 40.105469 34.789062 L 39.363281 45.21875 L 37.125 40.003906 L 35.632812 49.6875 L 34.140625 31.0625 L 30.414062 29.574219 L 27.4375 23.613281 L 25.949219 22.117188 L 24.457031 21.375 Z M 21.84375 23.613281 "/>
</g>
</svg>
