<svg xmlns="http://www.w3.org/2000/svg" xmlns:xlink="http://www.w3.org/1999/xlink" width="64px" height="64px" viewBox="0 0 64 64" version="1.1">
<g id="surface1">
<path style=" stroke:none;fill-rule:nonzero;fill:rgb(0%,26.666668%,66.666669%);fill-opacity:1;" d="M 31.71875 8.652344 C 40.128906 8.550781 47.941406 12.976562 52.179688 20.242188 C 56.414062 27.511719 56.414062 36.492188 52.179688 43.757812 C 47.941406 51.023438 40.128906 55.453125 31.71875 55.351562 C 18.933594 55.195312 8.648438 44.789062 8.648438 32 C 8.648438 19.210938 18.933594 8.804688 31.71875 8.652344 Z M 31.71875 8.652344 "/>
<path style=" stroke:none;fill-rule:nonzero;fill:rgb(100%,100%,100%);fill-opacity:1;" d="M 39.265625 18.117188 C 39.203125 18.164062 39.167969 18.195312 39.1875 18.171875 C 38.4375 19.445312 38.429688 21.113281 38.085938 22.617188 C 38.089844 22.640625 38.089844 22.664062 38.085938 22.691406 C 37.921875 24.335938 37.386719 26.003906 37.8125 27.578125 C 37.832031 27.613281 37.847656 27.640625 37.859375 27.675781 C 37.9375 27.78125 38.039062 27.871094 38.097656 27.886719 C 38.144531 27.894531 38.210938 27.875 38.363281 27.765625 C 38.535156 27.652344 38.640625 27.4375 38.691406 27.128906 C 38.707031 27.042969 38.738281 26.964844 38.789062 26.898438 C 39.460938 24.230469 39.9375 21.425781 39.761719 18.6875 C 39.757812 18.675781 39.757812 18.664062 39.761719 18.65625 C 39.738281 18.527344 39.695312 18.453125 39.574219 18.304688 C 39.527344 18.246094 39.476562 18.1875 39.417969 18.136719 C 39.398438 18.121094 39.417969 18.117188 39.339844 18.125 C 39.316406 18.125 39.289062 18.125 39.265625 18.121094 Z M 45.453125 19.417969 C 45.4375 19.421875 45.414062 19.421875 45.398438 19.417969 C 44.238281 19.988281 43.644531 21.347656 42.847656 22.4375 C 42.835938 22.492188 42.8125 22.546875 42.789062 22.59375 C 41.78125 24.378906 40.496094 26.152344 40.363281 28.214844 C 40.367188 28.542969 40.554688 28.730469 40.746094 28.773438 C 40.996094 28.792969 41.242188 28.6875 41.398438 28.488281 C 41.410156 28.457031 41.398438 28.429688 41.417969 28.402344 C 41.421875 28.394531 41.429688 28.386719 41.433594 28.382812 C 43.261719 25.871094 44.636719 22.890625 45.773438 20 C 45.855469 19.800781 45.859375 19.726562 45.789062 19.585938 C 45.769531 19.539062 45.5625 19.402344 45.453125 19.417969 Z M 45.453125 19.417969 "/>
<path style=" stroke:none;fill-rule:nonzero;fill:rgb(100%,100%,100%);fill-opacity:1;" d="M 27.480469 20.253906 C 27.292969 20.289062 27.019531 20.453125 26.820312 20.53125 C 26.125 20.792969 25.742188 21.394531 25.570312 22.089844 C 25.40625 22.8125 25.460938 23.605469 25.570312 24.417969 C 25.6875 25.230469 25.847656 26.0625 26.023438 26.707031 C 26.175781 27.261719 26.285156 27.53125 26.335938 27.710938 L 26.335938 27.851562 C 26.335938 27.914062 26.308594 27.90625 26.265625 27.957031 C 26.246094 27.964844 26.289062 28.023438 26.265625 28.023438 C 26.21875 28.0625 26.160156 28.089844 26.09375 28.09375 C 25.96875 28.101562 25.871094 28.058594 25.746094 28.023438 C 25.660156 28.003906 25.546875 27.9375 25.570312 27.960938 C 25.535156 27.933594 25.460938 27.925781 25.4375 27.886719 C 25.4375 27.902344 25.457031 27.902344 25.4375 27.855469 C 25.40625 27.796875 25.375 27.664062 25.332031 27.570312 C 25.234375 27.363281 25.152344 27.117188 25.019531 26.8125 C 24.710938 26.101562 24.378906 25.410156 24.011719 24.730469 C 23.664062 24.054688 23.210938 23.445312 22.660156 22.925781 C 22.414062 22.6875 22.117188 22.511719 21.792969 22.40625 C 21.472656 22.339844 21.140625 22.386719 20.855469 22.539062 C 20.140625 22.9375 19.636719 23.621094 19.464844 24.417969 C 19.296875 25.164062 19.378906 26.027344 19.5 26.773438 C 19.628906 27.527344 19.828125 28.140625 19.953125 28.648438 C 20.007812 28.863281 20.074219 29.0625 20.089844 29.171875 C 20.082031 29.335938 20.0625 29.496094 20.023438 29.65625 C 19.894531 30.113281 19.570312 30.871094 19.570312 30.871094 C 19.570312 30.871094 13.515625 46.949219 26.511719 45.820312 C 26.617188 45.8125 26.859375 45.753906 26.960938 45.753906 C 29.511719 45.238281 31.929688 44.46875 34.074219 43.601562 C 34.496094 43.398438 35.046875 43.199219 35.667969 42.910156 C 36.914062 42.328125 38.46875 41.578125 39.96875 40.761719 C 41.472656 39.933594 42.863281 39.058594 43.925781 38.121094 C 44.992188 37.1875 45.769531 36.160156 45.625 35.136719 C 45.398438 33.488281 44.304688 32.265625 42.851562 31.320312 C 41.386719 30.375 39.566406 29.714844 37.75 29.238281 C 36.128906 28.800781 34.484375 28.4375 32.824219 28.164062 C 32.152344 28.0625 31.515625 28.03125 31.125 27.957031 C 31.007812 27.9375 30.945312 27.90625 30.882812 27.886719 C 30.847656 27.882812 30.84375 27.867188 30.8125 27.855469 C 30.773438 27.828125 30.695312 27.824219 30.675781 27.78125 C 30.652344 27.742188 30.675781 27.6875 30.675781 27.644531 L 30.675781 26.566406 C 30.660156 25.582031 30.578125 24.59375 30.429688 23.617188 C 30.257812 22.589844 29.988281 21.613281 29.425781 20.945312 C 29.078125 20.535156 28.574219 20.285156 28.039062 20.253906 C 27.851562 20.226562 27.664062 20.226562 27.480469 20.253906 Z M 27.480469 20.253906 "/>
</g>
</svg>
