<svg xmlns="http://www.w3.org/2000/svg" xmlns:xlink="http://www.w3.org/1999/xlink" width="64px" height="64px" viewBox="0 0 64 64" version="1.1">
<defs>
<linearGradient id="linear0" gradientUnits="userSpaceOnUse" x1="0" y1="0" x2="0" y2="1" gradientTransform="matrix(55.351351,0,0,55.351351,4.324324,4.324324)">
<stop offset="0" style="stop-color:#00fff2;stop-opacity:1;"/>
<stop offset="0.5" style="stop-color:#dddddd;stop-opacity:1;"/>
<stop offset="1" style="stop-color:#0062ff;stop-opacity:1;"/>
</linearGradient>
</defs>
<g id="surface1">
<path style=" stroke:none;fill-rule:nonzero;fill:url(#linear0);" d="M 32 4.324219 C 16.730469 4.324219 4.324219 16.730469 4.324219 32 C 4.324219 43.867188 11.824219 53.988281 22.335938 57.910156 C 22.386719 57.929688 22.433594 57.960938 22.488281 57.984375 C 23.335938 58.296875 24.199219 58.585938 25.082031 58.8125 C 25.089844 58.8125 25.105469 58.808594 25.117188 58.8125 C 25.550781 58.917969 26 59.023438 26.433594 59.113281 C 26.511719 59.125 26.582031 59.136719 26.664062 59.148438 C 27.164062 59.253906 27.660156 59.339844 28.164062 59.414062 C 28.421875 59.449219 28.6875 59.460938 28.957031 59.488281 C 29.027344 59.5 29.105469 59.515625 29.179688 59.527344 C 29.496094 59.558594 29.796875 59.578125 30.121094 59.597656 C 30.738281 59.644531 31.367188 59.675781 32 59.675781 C 32.476562 59.675781 32.960938 59.664062 33.429688 59.636719 C 33.984375 59.609375 34.515625 59.542969 35.042969 59.488281 C 35.3125 59.460938 35.578125 59.449219 35.835938 59.414062 C 36.339844 59.339844 36.835938 59.253906 37.339844 59.148438 C 37.890625 59.039062 38.40625 58.949219 38.917969 58.8125 C 39.796875 58.582031 40.664062 58.300781 41.511719 57.984375 C 41.566406 57.960938 41.613281 57.929688 41.664062 57.910156 C 52.175781 53.988281 59.675781 43.867188 59.675781 32 C 59.675781 16.730469 47.269531 4.324219 32 4.324219 Z M 32 6.734375 C 45.96875 6.734375 57.265625 18.03125 57.265625 32 C 57.265625 39.746094 53.808594 46.691406 48.320312 51.328125 C 47.933594 50.402344 47.273438 49.136719 46.214844 47.867188 C 42.847656 49.664062 38.171875 51.253906 32 51.253906 C 25.828125 51.253906 21.152344 49.664062 17.785156 47.867188 C 16.917969 48.914062 16.207031 50.082031 15.679688 51.328125 C 9.988281 46.523438 6.714844 39.449219 6.734375 32 C 6.734375 18.03125 18.03125 6.734375 32 6.734375 Z M 20.078125 14.78125 L 19.253906 15.382812 C 15.769531 18.179688 14.53125 22.929688 16.207031 27.070312 C 15.285156 28.699219 12.792969 33.691406 12.746094 40.347656 L 12.746094 40.761719 L 12.972656 41.105469 C 13.207031 41.414062 18.914062 48.847656 32 48.847656 C 45.082031 48.847656 50.792969 41.414062 51.027344 41.097656 L 51.253906 40.761719 L 51.253906 40.347656 C 51.203125 33.691406 48.71875 28.699219 47.792969 27.070312 C 49.46875 22.929688 48.230469 18.179688 44.746094 15.382812 L 43.921875 14.78125 L 38.917969 19.78125 C 37.746094 19.390625 35.335938 18.765625 32 18.765625 C 28.664062 18.765625 26.253906 19.390625 25.082031 19.78125 Z M 25.984375 29.589844 C 27.273438 29.589844 28.460938 30.285156 29.113281 31.402344 C 29.757812 32.515625 29.757812 33.890625 29.109375 35.011719 C 28.460938 36.125 27.269531 36.8125 25.984375 36.8125 C 23.988281 36.8125 22.375 35.199219 22.375 33.203125 C 22.375 31.207031 23.988281 29.589844 25.984375 29.589844 Z M 38.015625 29.589844 C 39.308594 29.589844 40.5 30.285156 41.144531 31.402344 C 41.789062 32.515625 41.789062 33.890625 41.144531 35.011719 C 40.496094 36.125 39.300781 36.8125 38.011719 36.8125 C 36.015625 36.8125 34.40625 35.199219 34.40625 33.203125 C 34.40625 31.207031 36.023438 29.589844 38.015625 29.589844 Z M 28.988281 39.21875 L 35.011719 39.21875 L 32 42.230469 Z M 28.988281 39.21875 "/>
</g>
</svg>
