<svg xmlns="http://www.w3.org/2000/svg" xmlns:xlink="http://www.w3.org/1999/xlink" width="64px" height="64px" viewBox="0 0 64 64" version="1.1">
<g id="surface1">
<path style=" stroke:none;fill-rule:nonzero;fill:rgb(41.568628%,39.607844%,47.058824%);fill-opacity:1;" d="M 55.351562 32 C 55.351562 44.894531 44.894531 55.351562 32 55.351562 C 19.105469 55.351562 8.648438 44.894531 8.648438 32 C 8.648438 19.105469 19.105469 8.648438 32 8.648438 C 44.894531 8.648438 55.351562 19.105469 55.351562 32 Z M 55.351562 32 "/>
<path style=" stroke:none;fill-rule:nonzero;fill:rgb(100%,100%,100%);fill-opacity:1;" d="M 19.890625 20.089844 C 62.605469 29.945312 22.210938 38.652344 22.210938 38.652344 C 21.414062 38.78125 20.863281 39.199219 20.378906 39.832031 C 19.890625 40.460938 19.863281 41.449219 20.167969 42.175781 C 20.550781 43.085938 21.089844 43.429688 21.863281 43.742188 C 22.488281 43.996094 23.203125 43.925781 23.835938 43.742188 C 31.511719 41.527344 44.207031 37.171875 44.109375 30.964844 C 44.0625 27.972656 37.636719 22.0625 19.890625 20.089844 Z M 19.890625 20.089844 "/>
</g>
</svg>
