<svg xmlns="http://www.w3.org/2000/svg" xmlns:xlink="http://www.w3.org/1999/xlink" width="64px" height="64px" viewBox="0 0 64 64" version="1.1">
<g id="surface1">
<path style=" stroke:none;fill-rule:nonzero;fill:rgb(30.19608%,30.19608%,30.19608%);fill-opacity:1;" d="M 31.71875 8.652344 C 40.128906 8.550781 47.941406 12.976562 52.179688 20.242188 C 56.414062 27.511719 56.414062 36.492188 52.179688 43.757812 C 47.941406 51.023438 40.128906 55.453125 31.71875 55.351562 C 18.933594 55.195312 8.648438 44.789062 8.648438 32 C 8.648438 19.210938 18.933594 8.804688 31.71875 8.652344 Z M 31.71875 8.652344 "/>
<path style=" stroke:none;fill-rule:nonzero;fill:rgb(100%,100%,100%);fill-opacity:1;" d="M 23.195312 45.335938 L 24.367188 45.335938 C 24.589844 44.886719 24.871094 44.664062 25.207031 44.664062 C 25.433594 44.664062 25.9375 44.777344 26.714844 45 C 29.175781 45.558594 31.136719 45.835938 32.585938 45.835938 C 38.289062 45.613281 41.367188 43.042969 41.8125 38.125 C 41.8125 36.113281 40.972656 34.210938 39.292969 32.417969 C 37.953125 31.082031 35.71875 29.625 32.585938 28.0625 C 29.121094 26.15625 27.386719 24.480469 27.386719 23.027344 C 27.613281 21.125 29.011719 20.117188 31.582031 20.007812 C 35.042969 20.117188 37.398438 22.019531 38.628906 25.710938 L 40.304688 25.710938 L 39.460938 18.835938 L 38.628906 18.835938 C 38.402344 18.949219 38.347656 19 38.457031 19 C 38.214844 19.191406 37.925781 19.308594 37.621094 19.339844 C 37.507812 19.339844 37.117188 19.226562 36.441406 19.003906 C 34.433594 18.445312 32.640625 18.164062 31.078125 18.164062 C 25.597656 18.5 22.691406 20.847656 22.355469 25.210938 C 23.027344 29.347656 25.542969 32.140625 29.90625 33.597656 C 33.59375 35.050781 35.664062 37.121094 36.113281 39.804688 C 35.886719 42.488281 34.261719 43.886719 31.246094 43.996094 C 27.664062 43.996094 25.207031 41.875 23.863281 37.625 L 22.1875 37.625 L 23.195312 45.335938 "/>
</g>
</svg>
