<svg xmlns="http://www.w3.org/2000/svg" xmlns:xlink="http://www.w3.org/1999/xlink" width="64px" height="64px" viewBox="0 0 64 64" version="1.1">
<g id="surface1">
<path style=" stroke:none;fill-rule:nonzero;fill:rgb(0%,73.725492%,98.431373%);fill-opacity:1;" d="M 55.355469 32.011719 C 55.355469 44.910156 44.898438 55.363281 32 55.363281 C 19.105469 55.363281 8.648438 44.910156 8.648438 32.011719 C 8.648438 19.113281 19.105469 8.664062 32 8.664062 C 44.898438 8.664062 55.355469 19.113281 55.355469 32.011719 Z M 55.355469 32.011719 "/>
<path style=" stroke:none;fill-rule:nonzero;fill:rgb(100%,100%,100%);fill-opacity:1;" d="M 31.128906 19.898438 C 29.65625 19.929688 29.757812 20.195312 29.132812 21.464844 C 28.125 23.507812 27.421875 26.464844 27.5625 28.214844 C 27.71875 30.085938 28.21875 31.300781 29.1875 32.210938 C 30.351562 33.3125 31.773438 33.171875 32.96875 31.886719 C 34.042969 30.734375 34.4375 29.535156 34.539062 26.917969 C 34.59375 25.261719 34.625 25.0625 34.75 25.347656 C 35.226562 26.453125 35.351562 29.039062 35.023438 30.316406 C 34.746094 31.382812 34.0625 32.675781 33.511719 33.1875 C 32.78125 33.855469 31.996094 34.160156 30.914062 34.210938 C 30.1875 34.238281 29.90625 34.230469 29.347656 34.046875 C 27.914062 33.570312 26.148438 32.203125 25.136719 30.863281 C 23.691406 28.957031 22.257812 25.082031 21.890625 22.003906 C 21.859375 21.601562 21.789062 21.203125 21.679688 20.8125 C 21.417969 20.519531 20.425781 21.757812 20.113281 22.761719 C 19.910156 23.40625 19.898438 23.710938 19.898438 29.40625 L 19.898438 35.40625 L 20.167969 35.566406 C 20.550781 35.8125 22.21875 36.3125 23.578125 36.589844 C 24.613281 36.804688 25.027344 36.863281 27.464844 36.863281 C 29.910156 36.863281 30.367188 36.796875 31.304688 36.589844 C 32.835938 36.253906 33.976562 35.710938 34.925781 34.753906 C 36.261719 33.414062 36.757812 32.054688 36.761719 29.949219 C 36.761719 28.546875 36.566406 27.429688 36.003906 26.324219 C 35.804688 25.921875 35.605469 25.589844 35.625 25.566406 C 35.75 25.441406 37.144531 27.109375 37.460938 27.78125 C 39.460938 32.011719 38.511719 35.464844 34.382812 38.910156 C 32.550781 40.4375 29.386719 42.53125 27.570312 43.445312 C 26.9375 43.761719 26.820312 43.886719 26.976562 44.039062 C 27.015625 44.082031 30.175781 44.113281 34 44.09375 L 40.972656 44.039062 L 41.566406 43.769531 C 42.769531 43.191406 43.527344 42.34375 43.886719 41.175781 C 44.097656 40.507812 44.101562 40.203125 44.101562 31.992188 C 44.101562 23.363281 44.089844 22.621094 43.726562 22.484375 C 43.640625 22.453125 42.828125 22.542969 41.9375 22.695312 C 40.960938 22.871094 39.570312 23.011719 38.375 23.078125 C 36.285156 23.1875 35.230469 23.386719 33.996094 23.886719 C 32.851562 24.355469 32.1875 24.734375 31.5625 25.238281 C 31.007812 25.695312 30.929688 25.753906 30.753906 26.484375 C 30.503906 27.488281 30.351562 27.9375 29.9375 28.480469 C 29.632812 28.878906 29.335938 29.074219 29.335938 28.863281 C 29.355469 28.472656 29.703125 27.261719 30.042969 26.585938 C 31.046875 24.59375 32.355469 23.164062 34.910156 21.238281 C 35.691406 20.640625 36.363281 20.128906 36.363281 20.046875 C 36.363281 19.929688 35.796875 19.886719 33.226562 19.886719 C 32.3125 19.886719 31.613281 19.878906 31.121094 19.886719 M 33.226562 24.96875 C 33.390625 24.96875 33.394531 25.136719 33.175781 26.757812 C 32.9375 28.460938 32.324219 29.828125 31.550781 30.644531 C 31.003906 31.222656 30.414062 31.378906 29.988281 31.074219 C 29.695312 30.804688 29.507812 30.441406 29.449219 30.050781 C 29.449219 29.914062 29.496094 29.90625 29.664062 29.996094 C 29.988281 30.171875 30.125 30.132812 30.527344 29.78125 C 31.195312 29.1875 31.898438 27.492188 32.261719 25.5625 C 32.296875 25.34375 32.914062 24.960938 33.226562 24.960938 M 33.226562 24.960938 "/>
</g>
</svg>
