<svg xmlns="http://www.w3.org/2000/svg" xmlns:xlink="http://www.w3.org/1999/xlink" width="64px" height="64px" viewBox="0 0 64 64" version="1.1">
<g id="surface1">
<path style=" stroke:none;fill-rule:nonzero;fill:rgb(29.803923%,32.156864%,38.82353%);fill-opacity:1;" d="M 55.351562 32.011719 C 55.351562 44.902344 44.894531 55.351562 32 55.351562 C 19.105469 55.351562 8.648438 44.902344 8.648438 32.011719 C 8.648438 19.121094 19.105469 8.671875 32 8.671875 C 44.894531 8.671875 55.351562 19.121094 55.351562 32.011719 Z M 55.351562 32.011719 "/>
<path style=" stroke:none;fill-rule:evenodd;fill:rgb(100%,100%,100%);fill-opacity:1;" d="M 54.800781 36.824219 C 51.390625 41.414062 45.101562 43.867188 37.609375 44.960938 C 29.789062 46.089844 20.71875 45.757812 12.632812 45.066406 C 13.015625 45.644531 13.441406 46.207031 13.882812 46.746094 C 21.671875 47.363281 29.78125 49.773438 37.363281 48.671875 C 43.6875 47.75 49.875 43.730469 53.792969 40.265625 C 54.21875 39.144531 54.558594 37.992188 54.796875 36.816406 Z M 54.800781 36.824219 "/>
<path style=" stroke:none;fill-rule:nonzero;fill:rgb(32.156864%,58.039218%,88.627452%);fill-opacity:1;" d="M 37.835938 46.527344 C 29.90625 47.644531 21.835938 47.367188 13.886719 46.757812 C 19 53.28125 27.894531 56.570312 36.109375 54.988281 C 44.042969 53.621094 50.988281 47.816406 53.789062 40.289062 C 49.082031 43.628906 43.519531 45.652344 37.835938 46.527344 Z M 37.835938 46.527344 "/>
<path style=" stroke:none;fill-rule:evenodd;fill:rgb(100%,100%,100%);fill-opacity:1;" d="M 24.289062 13.855469 C 22.125 22.699219 15.886719 33.570312 11.960938 40.511719 C 18.804688 42.15625 26.398438 42.636719 32.285156 43.171875 C 32.183594 41.835938 31.191406 27.3125 30.949219 24.515625 C 28.527344 20.128906 26.5625 17.859375 24.289062 13.855469 Z M 32.613281 25.183594 C 35.828125 31.796875 35.828125 38.339844 33.949219 43.171875 C 36.601562 43.1875 40.921875 43.484375 45.609375 41.171875 C 41.757812 32.375 32.613281 25.183594 32.613281 25.183594 Z M 38.949219 29.183594 C 40.9375 30.515625 42.835938 31.734375 44.277344 33.175781 C 46.222656 35.132812 47.21875 37.769531 46.941406 40.511719 C 49.554688 39.195312 51.28125 37.011719 52.273438 35.179688 C 50.539062 33.578125 47.523438 31.996094 44.277344 30.847656 C 42.488281 30.210938 40.601562 29.636719 38.945312 29.183594 Z M 38.949219 29.183594 "/>
</g>
</svg>
