<svg xmlns="http://www.w3.org/2000/svg" xmlns:xlink="http://www.w3.org/1999/xlink" width="64px" height="64px" viewBox="0 0 64 64" version="1.1">
<g id="surface1">
<path style=" stroke:none;fill-rule:nonzero;fill:rgb(94.901961%,94.901961%,94.901961%);fill-opacity:1;" d="M 32 8.648438 C 44.898438 8.648438 55.355469 19.105469 55.355469 32 C 55.355469 44.898438 44.898438 55.351562 32 55.351562 C 19.105469 55.351562 8.648438 44.898438 8.648438 32 C 8.648438 19.105469 19.105469 8.648438 32 8.648438 Z M 32 8.648438 "/>
<path style=" stroke:none;fill-rule:nonzero;fill:rgb(93.725491%,65.490198%,14.117648%);fill-opacity:1;" d="M 32 18.519531 L 28.925781 21.597656 L 31.136719 21.597656 L 31.136719 28.664062 L 32 29.53125 L 32.863281 28.664062 L 32.863281 21.597656 L 35.074219 21.597656 Z M 32 18.519531 "/>
<path style=" stroke:none;fill-rule:nonzero;fill:rgb(14.901961%,14.509805%,46.666667%);fill-opacity:1;" d="M 42.378906 28.898438 L 42.378906 31.113281 L 35.3125 31.113281 L 34.445312 31.976562 L 35.3125 32.839844 L 42.382812 32.839844 L 42.382812 35.050781 L 45.457031 31.980469 "/>
<path style=" stroke:none;fill-rule:nonzero;fill:rgb(61.176473%,80.392158%,16.470589%);fill-opacity:1;" d="M 32 34.417969 L 31.136719 35.289062 L 31.136719 42.355469 L 28.921875 42.355469 L 32 45.429688 L 35.074219 42.359375 L 32.863281 42.359375 L 32.863281 35.285156 "/>
<path style=" stroke:none;fill-rule:nonzero;fill:rgb(57.647061%,13.333334%,47.450981%);fill-opacity:1;" d="M 21.617188 28.898438 L 18.546875 31.976562 L 21.617188 35.050781 L 21.617188 32.839844 L 28.6875 32.839844 L 29.554688 31.976562 L 28.6875 31.113281 L 21.617188 31.113281 "/>
<path style=" stroke:none;fill-rule:nonzero;fill:rgb(93.725491%,65.490198%,14.117648%);fill-opacity:1;" d="M 33.726562 33.710938 L 33.726562 34.929688 L 38.726562 39.929688 L 37.164062 41.488281 L 41.511719 41.488281 L 41.511719 37.140625 L 39.953125 38.703125 L 34.949219 33.710938 Z M 36.175781 33.710938 L 39.953125 37.480469 L 41.511719 35.917969 L 41.511719 33.707031 L 36.175781 33.707031 Z M 33.726562 36.152344 L 33.726562 41.488281 L 35.9375 41.488281 L 37.503906 39.929688 L 33.730469 36.152344 Z M 33.726562 36.152344 "/>
<path style=" stroke:none;fill-rule:nonzero;fill:rgb(14.901961%,14.509805%,46.666667%);fill-opacity:1;" d="M 22.488281 33.710938 L 22.488281 35.917969 L 24.046875 37.480469 L 27.824219 33.710938 Z M 29.046875 33.710938 L 24.042969 38.703125 L 22.488281 37.140625 L 22.488281 41.488281 L 26.835938 41.488281 L 25.273438 39.929688 L 30.269531 34.925781 L 30.269531 33.710938 Z M 30.269531 36.152344 L 26.496094 39.929688 L 28.0625 41.488281 L 30.269531 41.488281 Z M 30.269531 36.152344 "/>
<path style=" stroke:none;fill-rule:nonzero;fill:rgb(57.647061%,13.333334%,47.450981%);fill-opacity:1;" d="M 33.726562 22.460938 L 33.726562 27.800781 L 37.503906 24.027344 L 35.9375 22.460938 Z M 37.164062 22.460938 L 38.726562 24.027344 L 33.730469 29.023438 L 33.730469 30.246094 L 34.953125 30.246094 L 39.953125 25.25 L 41.511719 26.8125 L 41.511719 22.460938 Z M 39.953125 26.472656 L 36.175781 30.246094 L 41.511719 30.246094 L 41.511719 28.039062 L 39.953125 26.46875 Z M 39.953125 26.472656 "/>
<path style=" stroke:none;fill-rule:nonzero;fill:rgb(61.176473%,80.392158%,16.470589%);fill-opacity:1;" d="M 22.488281 22.460938 L 22.488281 26.8125 L 24.046875 25.25 L 29.046875 30.246094 L 30.269531 30.246094 L 30.269531 29.023438 L 25.277344 24.027344 L 26.839844 22.460938 Z M 28.0625 22.460938 L 26.492188 24.027344 L 30.269531 27.800781 L 30.269531 22.460938 L 28.058594 22.460938 Z M 24.046875 26.472656 L 22.488281 28.039062 L 22.488281 30.246094 L 27.824219 30.246094 Z M 24.046875 26.472656 "/>
</g>
</svg>
