<svg xmlns="http://www.w3.org/2000/svg" xmlns:xlink="http://www.w3.org/1999/xlink" width="64px" height="64px" viewBox="0 0 64 64" version="1.1">
<defs>
<linearGradient id="linear0" gradientUnits="userSpaceOnUse" x1="0" y1="0" x2="0" y2="1" gradientTransform="matrix(42.396395,0,0,55.351351,10.801802,4.324324)">
<stop offset="0" style="stop-color:#00a2ff;stop-opacity:1;"/>
<stop offset="0.5" style="stop-color:#dddddd;stop-opacity:1;"/>
<stop offset="1" style="stop-color:#00ffae;stop-opacity:1;"/>
</linearGradient>
</defs>
<g id="surface1">
<path style=" stroke:none;fill-rule:evenodd;fill:url(#linear0);" d="M 27.929688 45.363281 C 27.9375 45.726562 27.917969 46.257812 27.835938 46.636719 C 26.878906 46.710938 26.042969 46.796875 25.6875 46.886719 C 24.648438 47.171875 23.328125 46.960938 23.328125 49.1875 C 23.328125 51.414062 23.1875 55.3125 23.1875 56.144531 C 23.1875 56.984375 22.769531 57.742188 23.882812 58.300781 C 24.996094 58.863281 28.242188 59.675781 32 59.675781 C 35.757812 59.675781 39.003906 58.863281 40.117188 58.300781 C 41.230469 57.742188 40.8125 56.984375 40.8125 56.144531 C 40.8125 55.3125 40.671875 51.414062 40.671875 49.1875 C 40.671875 46.960938 39.351562 47.171875 38.3125 46.886719 C 37.957031 46.796875 37.113281 46.707031 36.136719 46.636719 C 36.0625 46.253906 36.050781 45.726562 36.054688 45.363281 C 36.796875 45.355469 37.523438 45.335938 38.121094 45.3125 C 40.351562 45.21875 39.792969 44.109375 40.070312 42.902344 C 40.351562 41.691406 40.71875 41.136719 41.648438 40.765625 C 42.578125 40.394531 47.03125 38.164062 49.066406 35.757812 C 51.113281 33.347656 52.78125 22.957031 53.152344 18.132812 C 53.523438 13.308594 51.578125 8.664062 49.632812 6.4375 C 47.679688 4.210938 43.785156 4.210938 41.929688 4.394531 C 40.070312 4.585938 33.484375 5.511719 32 5.511719 C 30.515625 5.511719 23.929688 4.585938 22.070312 4.394531 C 20.214844 4.210938 16.320312 4.210938 14.375 6.4375 C 12.421875 8.664062 10.476562 13.308594 10.847656 18.132812 C 11.21875 22.957031 12.886719 33.339844 14.933594 35.757812 C 16.96875 38.164062 21.421875 40.394531 22.351562 40.765625 C 23.28125 41.136719 23.648438 41.691406 23.929688 42.902344 C 24.207031 44.109375 23.648438 45.21875 25.878906 45.3125 C 26.472656 45.335938 27.1875 45.351562 27.929688 45.363281 Z M 26.6875 29.878906 C 23.539062 33.308594 21.105469 33.738281 19.4375 33.105469 C 15.113281 31.664062 14.828125 28.148438 13.386719 20.3125 C 11.945312 12.488281 20.527344 17.6875 22.714844 18.53125 C 32.273438 22.21875 27.496094 28.957031 26.6875 29.878906 Z M 50.3125 20.3125 C 48.875 28.148438 48.582031 31.664062 44.265625 33.105469 C 42.59375 33.738281 40.152344 33.308594 37.003906 29.878906 C 36.199219 28.957031 31.421875 22.21875 40.984375 18.53125 C 43.164062 17.6875 51.753906 12.488281 50.3125 20.3125 Z M 50.3125 20.3125 "/>
</g>
</svg>
