<svg xmlns="http://www.w3.org/2000/svg" xmlns:xlink="http://www.w3.org/1999/xlink" width="64px" height="64px" viewBox="0 0 64 64" version="1.1">
<defs>
<linearGradient id="linear0" gradientUnits="userSpaceOnUse" x1="0" y1="0" x2="0" y2="1" gradientTransform="matrix(20.702703,0,0,17.581081,32.783784,4.31982)">
<stop offset="0" style="stop-color:#ff8963;stop-opacity:1;"/>
<stop offset="0.5" style="stop-color:#dddddd;stop-opacity:1;"/>
<stop offset="1" style="stop-color:#0F6FFF;stop-opacity:1;"/>
</linearGradient>
<linearGradient id="linear1" gradientUnits="userSpaceOnUse" x1="0" y1="0" x2="0" y2="1" gradientTransform="matrix(55.351351,0,0,55.355858,4.324324,4.31982)">
<stop offset="0" style="stop-color:#ff8963;stop-opacity:1;"/>
<stop offset="0.5" style="stop-color:#dddddd;stop-opacity:1;"/>
<stop offset="1" style="stop-color:#0F6FFF;stop-opacity:1;"/>
</linearGradient>
</defs>
<g id="surface1">
<path style=" stroke:none;fill-rule:evenodd;fill:url(#linear0);" d="M 47.636719 14.085938 C 47.636719 18.40625 44.070312 21.902344 39.679688 21.902344 C 38.542969 21.902344 37.460938 21.664062 36.488281 21.246094 C 33.6875 20.039062 35.1875 17.886719 35.1875 14.6875 C 35.1875 13.1875 32.152344 11.1875 32.902344 10 C 34.300781 7.761719 36.8125 6.269531 39.679688 6.269531 C 44.070312 6.269531 47.636719 9.773438 47.636719 14.085938 Z M 47.625 7.253906 C 47.625 5.632812 48.941406 4.320312 50.558594 4.320312 C 52.175781 4.320312 53.488281 5.632812 53.488281 7.253906 C 53.488281 8.863281 52.175781 10.179688 50.558594 10.179688 C 48.941406 10.179688 47.625 8.863281 47.625 7.253906 Z M 47.625 7.253906 "/>
<path style=" stroke:none;fill-rule:evenodd;fill:url(#linear1);" d="M 59.675781 45.9375 C 59.015625 57.820312 55.386719 59.675781 40.609375 59.675781 L 23.515625 59.675781 C 6.726562 59.675781 4.324219 57.285156 4.324219 40.503906 L 4.324219 36.335938 C 26.085938 37.203125 44.539062 40.40625 59.675781 45.9375 Z M 17.351562 11.160156 L 24.773438 11.160156 C 30.042969 11.160156 32.976562 13.820312 32.976562 18.972656 C 32.976562 24.117188 30.042969 26.785156 24.773438 26.785156 L 17.351562 26.785156 Z M 11.847656 4.320312 C 11.105469 4.320312 10.511719 4.914062 10.511719 5.652344 L 10.511719 32.292969 C 10.511719 33.027344 11.105469 33.621094 11.847656 33.621094 L 25.539062 33.621094 C 25.570312 33.621094 25.59375 33.605469 25.625 33.597656 C 33.527344 33.351562 39.808594 26.878906 39.8125 18.972656 C 39.808594 11.054688 33.511719 4.570312 25.59375 4.335938 C 25.582031 4.335938 25.5625 4.320312 25.539062 4.320312 Z M 11.847656 4.320312 "/>
</g>
</svg>
