<svg xmlns="http://www.w3.org/2000/svg" xmlns:xlink="http://www.w3.org/1999/xlink" width="64px" height="64px" viewBox="0 0 64 64" version="1.1">
<defs>
<linearGradient id="linear0" gradientUnits="userSpaceOnUse" x1="0" y1="0" x2="0" y2="1" gradientTransform="matrix(55.351351,0,0,54.639639,4.324324,4.680181)">
<stop offset="0" style="stop-color:#00fff2;stop-opacity:1;"/>
<stop offset="0.5" style="stop-color:#dddddd;stop-opacity:1;"/>
<stop offset="1" style="stop-color:#0062ff;stop-opacity:1;"/>
</linearGradient>
</defs>
<g id="surface1">
<path style=" stroke:none;fill-rule:nonzero;fill:url(#linear0);" d="M 56.445312 59.320312 C 60.539062 33.015625 49.542969 24.414062 51.59375 20.890625 C 53.082031 18.335938 59.675781 19.484375 59.675781 19.484375 C 54.53125 15.179688 49.941406 14.988281 45.523438 16.113281 C 40.144531 7.976562 18.136719 -2.757812 9.105469 12.066406 C 9.105469 12.066406 3.929688 13.78125 4.347656 15.679688 C 4.765625 17.542969 12.539062 14.800781 23.566406 20.011719 C 22.914062 27.625 26.289062 32.488281 32.5 35.414062 C 30.800781 32.378906 28.390625 29.585938 30.839844 24.652344 C 38.671875 29.785156 42.671875 36.386719 46.050781 43.011719 C 45.292969 36.160156 38.503906 19.144531 16.96875 14.1875 C 34.085938 0.207031 58.886719 31.265625 56.445312 59.320312 Z M 56.445312 59.320312 "/>
</g>
</svg>
