<svg xmlns="http://www.w3.org/2000/svg" xmlns:xlink="http://www.w3.org/1999/xlink" width="64px" height="64px" viewBox="0 0 64 64" version="1.1">
<defs>
<linearGradient id="linear0" gradientUnits="userSpaceOnUse" x1="0" y1="0" x2="0" y2="1" gradientTransform="matrix(55.351351,0,0,26.454956,4.324324,18.77027)">
<stop offset="0" style="stop-color:#00a2ff;stop-opacity:1;"/>
<stop offset="0.5" style="stop-color:#dddddd;stop-opacity:1;"/>
<stop offset="1" style="stop-color:#00ffae;stop-opacity:1;"/>
</linearGradient>
</defs>
<g id="surface1">
<path style=" stroke:none;fill-rule:nonzero;fill:url(#linear0);" d="M 59.675781 18.769531 L 57.3125 18.847656 C 55.589844 18.835938 53.644531 18.824219 53.632812 18.835938 L 52.121094 23.296875 C 52.121094 23.296875 50.339844 18.769531 49.984375 18.855469 L 49.691406 18.839844 C 49.539062 18.828125 48.796875 18.824219 47.769531 18.824219 L 45.890625 18.824219 L 45.890625 35.257812 L 45.742188 35.375 C 45.613281 35.46875 45.589844 35.496094 45.621094 35.527344 L 50.300781 38.890625 L 50.320312 35.617188 C 50.335938 32.609375 50.335938 32.363281 50.378906 32.5 L 52.121094 37.085938 L 53.6875 32.320312 L 53.703125 36.648438 L 53.71875 40.984375 L 58.109375 44.089844 L 58.121094 32.015625 L 58.136719 20.40625 Z M 20.632812 18.773438 L 19.929688 19.300781 L 19.21875 19.835938 L 19.21875 27.511719 L 19.214844 35.1875 L 26.40625 40.558594 L 30.335938 37.613281 L 30.328125 28.726562 L 30.320312 19.835938 L 29.625 19.300781 L 28.929688 18.773438 Z M 33.960938 18.773438 L 33.265625 19.300781 L 32.570312 19.835938 L 32.5625 28.726562 L 32.558594 37.613281 L 36.488281 40.558594 L 43.671875 35.1875 L 43.664062 27.511719 L 43.664062 19.835938 L 42.960938 19.300781 L 42.261719 18.773438 Z M 4.324219 18.785156 L 5.917969 20.363281 L 5.917969 31.53125 C 5.917969 37.675781 5.929688 43.121094 5.941406 43.636719 L 5.941406 43.644531 C 5.957031 44.3125 5.96875 45.238281 5.988281 45.226562 C 6.066406 45.179688 17.40625 35.988281 17.417969 35.972656 C 17.421875 35.960938 17.351562 35.886719 17.257812 35.820312 L 17.078125 35.6875 L 17.078125 19.835938 L 16.40625 19.320312 L 15.730469 18.796875 L 10.105469 18.785156 C 6.421875 18.78125 4.308594 18.765625 4.324219 18.785156 Z M 26.203125 22.132812 C 26.394531 22.113281 26.433594 22.117188 26.703125 22.253906 L 26.996094 22.394531 L 27 29.1875 C 27 32.273438 26.984375 36.203125 26.960938 36.199219 L 22.558594 32.890625 L 22.558594 28.160156 L 22.554688 22.390625 L 22.824219 22.269531 L 23.09375 22.144531 L 24.542969 22.144531 C 25.339844 22.144531 26.085938 22.136719 26.203125 22.132812 Z M 36.6875 22.132812 C 36.808594 22.136719 37.550781 22.144531 38.347656 22.144531 L 39.796875 22.144531 L 40.0625 22.269531 L 40.335938 22.390625 L 40.328125 28.160156 L 40.328125 32.890625 L 35.929688 36.199219 C 35.90625 36.203125 35.890625 32.273438 35.890625 29.1875 L 35.902344 22.394531 L 36.1875 22.253906 C 36.460938 22.117188 36.496094 22.113281 36.6875 22.132812 Z M 13.152344 22.1875 L 13.417969 22.308594 L 13.679688 22.421875 L 13.679688 34.214844 L 9.238281 37.589844 C 9.1875 37.609375 9.179688 31.867188 9.191406 27.324219 L 9.203125 22.199219 L 11.382812 22.191406 Z M 13.152344 22.1875 "/>
</g>
</svg>
