<svg xmlns="http://www.w3.org/2000/svg" xmlns:xlink="http://www.w3.org/1999/xlink" width="64px" height="64px" viewBox="0 0 64 64" version="1.1">
<defs>
<linearGradient id="linear0" gradientUnits="userSpaceOnUse" x1="0" y1="0" x2="0" y2="1" gradientTransform="matrix(55.351351,0,0,6.918919,4.216216,47.567568)">
<stop offset="0" style="stop-color:#05f7ff;stop-opacity:1;"/>
<stop offset="0.5" style="stop-color:#dddddd;stop-opacity:1;"/>
<stop offset="1" style="stop-color:#e6ff05;stop-opacity:1;"/>
</linearGradient>
<linearGradient id="linear1" gradientUnits="userSpaceOnUse" x1="0" y1="0" x2="0" y2="1" gradientTransform="matrix(49.018017,0,0,26.139639,7.472973,11.936937)">
<stop offset="0" style="stop-color:#05f7ff;stop-opacity:1;"/>
<stop offset="0.5" style="stop-color:#dddddd;stop-opacity:1;"/>
<stop offset="1" style="stop-color:#e6ff05;stop-opacity:1;"/>
</linearGradient>
</defs>
<g id="surface1">
<path style=" stroke:none;fill-rule:evenodd;fill:url(#linear0);" d="M 4.214844 47.566406 L 59.566406 47.566406 L 59.566406 54.488281 L 4.214844 54.488281 Z M 4.214844 47.566406 "/>
<path style=" stroke:none;fill-rule:evenodd;fill:url(#linear1);" d="M 7.472656 37.636719 L 7.472656 11.9375 L 15.40625 11.9375 C 17.136719 11.9375 18.71875 12.179688 20.136719 12.664062 C 21.5625 13.160156 22.738281 13.8125 23.664062 14.617188 C 24.59375 15.421875 25.375 16.382812 26 17.5 C 26.621094 18.613281 27.078125 19.773438 27.355469 20.988281 C 27.636719 22.199219 27.78125 23.460938 27.78125 24.789062 C 27.78125 26.011719 27.648438 27.210938 27.390625 28.382812 C 27.136719 29.5625 26.691406 30.714844 26.070312 31.855469 C 25.445312 32.996094 24.664062 33.988281 23.738281 34.828125 C 22.8125 35.675781 21.617188 36.351562 20.160156 36.867188 C 18.703125 37.382812 17.066406 37.636719 15.257812 37.636719 Z M 11.878906 33.488281 L 15.882812 33.488281 C 17.179688 33.488281 18.324219 33.234375 19.3125 32.71875 C 20.308594 32.207031 21.078125 31.511719 21.632812 30.644531 C 22.179688 29.773438 22.585938 28.851562 22.835938 27.875 C 23.097656 26.890625 23.226562 25.863281 23.226562 24.789062 C 23.226562 22.386719 22.636719 20.335938 21.460938 18.636719 C 20.289062 16.933594 18.5625 16.082031 16.285156 16.082031 L 11.878906 16.082031 Z M 56.488281 11.9375 L 56.488281 37.636719 L 52.085938 37.636719 L 52.085938 23.976562 C 52.085938 22.851562 52.136719 21.824219 52.234375 20.894531 C 51.9375 21.773438 51.542969 22.828125 51.058594 24.054688 L 44.8125 38.078125 L 38.570312 23.976562 C 38.132812 23 37.730469 21.972656 37.363281 20.894531 C 37.460938 21.824219 37.511719 22.851562 37.511719 23.976562 L 37.511719 37.636719 L 33.105469 37.636719 L 33.105469 11.9375 L 37.542969 11.9375 L 44.160156 27.027344 C 44.421875 27.710938 44.660156 28.351562 44.851562 28.9375 C 45.050781 28.351562 45.28125 27.710938 45.550781 27.027344 L 52.199219 11.9375 Z M 56.488281 11.9375 "/>
</g>
</svg>
