<svg xmlns="http://www.w3.org/2000/svg" xmlns:xlink="http://www.w3.org/1999/xlink" width="64px" height="64px" viewBox="0 0 64 64" version="1.1">
<defs>
<linearGradient id="linear0" gradientUnits="userSpaceOnUse" x1="0" y1="0" x2="0" y2="1" gradientTransform="matrix(55.351351,0,0,6.918919,4.216216,47.567568)">
<stop offset="0" style="stop-color:#00fff2;stop-opacity:1;"/>
<stop offset="0.5" style="stop-color:#dddddd;stop-opacity:1;"/>
<stop offset="1" style="stop-color:#0062ff;stop-opacity:1;"/>
</linearGradient>
<linearGradient id="linear1" gradientUnits="userSpaceOnUse" x1="0" y1="0" x2="0" y2="1" gradientTransform="matrix(49.018017,0,0,28.03153,7.472973,11.936937)">
<stop offset="0" style="stop-color:#00fff2;stop-opacity:1;"/>
<stop offset="0.5" style="stop-color:#dddddd;stop-opacity:1;"/>
<stop offset="1" style="stop-color:#0062ff;stop-opacity:1;"/>
</linearGradient>
</defs>
<g id="surface1">
<path style=" stroke:none;fill-rule:evenodd;fill:url(#linear0);" d="M 4.214844 47.566406 L 59.566406 47.566406 L 59.566406 54.488281 L 4.214844 54.488281 Z M 4.214844 47.566406 "/>
<path style=" stroke:none;fill-rule:evenodd;fill:url(#linear1);" d="M 7.472656 39.96875 L 7.472656 11.9375 L 16.125 11.9375 C 18.023438 11.9375 19.742188 12.203125 21.289062 12.738281 C 22.835938 13.269531 24.117188 13.976562 25.136719 14.863281 C 26.148438 15.738281 26.996094 16.789062 27.675781 18.003906 C 28.363281 19.214844 28.851562 20.488281 29.160156 21.808594 C 29.46875 23.132812 29.621094 24.511719 29.621094 25.957031 C 29.621094 27.289062 29.476562 28.59375 29.199219 29.875 C 28.917969 31.160156 28.4375 32.417969 27.757812 33.664062 C 27.078125 34.90625 26.230469 35.988281 25.214844 36.90625 C 24.203125 37.828125 22.902344 38.566406 21.3125 39.132812 C 19.71875 39.6875 17.9375 39.96875 15.960938 39.96875 Z M 12.28125 35.445312 L 16.644531 35.445312 C 18.058594 35.445312 19.308594 35.164062 20.390625 34.605469 C 21.46875 34.039062 22.3125 33.289062 22.910156 32.335938 C 23.511719 31.390625 23.949219 30.382812 24.234375 29.3125 C 24.511719 28.246094 24.652344 27.125 24.652344 25.957031 C 24.652344 23.335938 24.011719 21.097656 22.734375 19.242188 C 21.449219 17.386719 19.566406 16.460938 17.082031 16.460938 L 12.28125 16.460938 Z M 40.234375 39.96875 L 35.429688 39.96875 L 35.429688 11.9375 L 47.082031 11.9375 C 50.3125 11.9375 52.6875 12.773438 54.210938 14.457031 C 55.730469 16.136719 56.488281 18.199219 56.488281 20.625 C 56.488281 22.921875 55.699219 24.949219 54.109375 26.710938 C 52.523438 28.476562 50.175781 29.355469 47.082031 29.355469 L 40.234375 29.355469 Z M 40.234375 24.789062 L 47.320312 24.789062 C 48.734375 24.789062 49.789062 24.378906 50.484375 23.550781 C 51.179688 22.71875 51.527344 21.746094 51.527344 20.625 C 51.527344 19.558594 51.199219 18.605469 50.542969 17.761719 C 49.890625 16.921875 48.8125 16.5 47.320312 16.5 L 40.234375 16.5 Z M 40.234375 24.789062 "/>
</g>
</svg>
