<svg xmlns="http://www.w3.org/2000/svg" xmlns:xlink="http://www.w3.org/1999/xlink" width="64px" height="64px" viewBox="0 0 64 64" version="1.1">
<defs>
<linearGradient id="linear0" gradientUnits="userSpaceOnUse" x1="0" y1="0" x2="0" y2="1" gradientTransform="matrix(55.351351,0,0,6.918919,4.216216,47.567568)">
<stop offset="0" style="stop-color:#ffae00;stop-opacity:1;"/>
<stop offset="0.5" style="stop-color:#dddddd;stop-opacity:1;"/>
<stop offset="1" style="stop-color:#6600ff;stop-opacity:1;"/>
</linearGradient>
<linearGradient id="linear1" gradientUnits="userSpaceOnUse" x1="0" y1="0" x2="0" y2="1" gradientTransform="matrix(49.018017,0,0,29.306307,7.472973,9.86036)">
<stop offset="0" style="stop-color:#ffae00;stop-opacity:1;"/>
<stop offset="0.5" style="stop-color:#dddddd;stop-opacity:1;"/>
<stop offset="1" style="stop-color:#6600ff;stop-opacity:1;"/>
</linearGradient>
</defs>
<g id="surface1">
<path style=" stroke:none;fill-rule:evenodd;fill:url(#linear0);" d="M 4.214844 47.566406 L 59.566406 47.566406 L 59.566406 54.488281 L 4.214844 54.488281 Z M 4.214844 47.566406 "/>
<path style=" stroke:none;fill-rule:evenodd;fill:url(#linear1);" d="M 7.472656 39.164062 L 7.472656 9.863281 L 16.511719 9.863281 C 18.496094 9.863281 20.296875 10.136719 21.914062 10.699219 C 23.539062 11.257812 24.875 11.996094 25.933594 12.914062 C 26.988281 13.835938 27.878906 14.933594 28.59375 16.203125 C 29.300781 17.472656 29.820312 18.796875 30.144531 20.179688 C 30.460938 21.558594 30.621094 23.003906 30.621094 24.511719 C 30.621094 25.90625 30.476562 27.273438 30.1875 28.613281 C 29.890625 29.957031 29.386719 31.269531 28.675781 32.570312 C 27.960938 33.863281 27.078125 34.996094 26.015625 35.960938 C 24.960938 36.921875 23.597656 37.699219 21.9375 38.285156 C 20.273438 38.867188 18.414062 39.164062 16.347656 39.164062 Z M 12.496094 34.433594 L 17.058594 34.433594 C 18.539062 34.433594 19.839844 34.136719 20.972656 33.554688 C 22.105469 32.96875 22.984375 32.179688 23.613281 31.1875 C 24.238281 30.199219 24.699219 29.144531 24.988281 28.027344 C 25.285156 26.914062 25.433594 25.738281 25.433594 24.511719 C 25.433594 21.773438 24.761719 19.4375 23.417969 17.5 C 22.082031 15.558594 20.117188 14.589844 17.515625 14.589844 L 12.496094 14.589844 Z M 56.488281 14.675781 L 48.164062 14.675781 L 48.164062 39.164062 L 43.136719 39.164062 L 43.136719 14.675781 L 34.8125 14.675781 L 34.8125 9.863281 L 56.488281 9.863281 Z M 56.488281 14.675781 "/>
</g>
</svg>
