<svg xmlns="http://www.w3.org/2000/svg" xmlns:xlink="http://www.w3.org/1999/xlink" width="64px" height="64px" viewBox="0 0 64 64" version="1.1">
<defs>
<linearGradient id="linear0" gradientUnits="userSpaceOnUse" x1="0" y1="0" x2="0" y2="1" gradientTransform="matrix(41.513514,0,0,41.513514,11.243243,11.243243)">
<stop offset="0" style="stop-color:#00b7ff;stop-opacity:1;"/>
<stop offset="0.5" style="stop-color:#dddddd;stop-opacity:1;"/>
<stop offset="1" style="stop-color:#ee42d9;stop-opacity:1;"/>
</linearGradient>
</defs>
<g id="surface1">
<path style=" stroke:none;fill-rule:nonzero;fill:url(#linear0);" d="M 47.566406 11.242188 C 45.367188 11.246094 43.414062 12.632812 42.6875 14.703125 L 11.242188 14.703125 L 11.242188 18.164062 C 17.664062 21.476562 22.191406 26.738281 22.863281 29.589844 C 23.761719 33.460938 22.367188 38 18.757812 42.933594 C 18.039062 42.566406 17.238281 42.378906 16.433594 42.378906 C 13.566406 42.378906 11.242188 44.703125 11.242188 47.566406 C 11.242188 50.433594 13.566406 52.757812 16.433594 52.757812 C 18.632812 52.753906 20.585938 51.367188 21.320312 49.296875 L 35.460938 49.296875 L 35.460938 52.757812 L 45.835938 52.757812 L 45.835938 42.378906 L 35.460938 42.378906 L 35.460938 45.835938 L 21.320312 45.835938 C 21.28125 45.726562 21.234375 45.617188 21.1875 45.511719 C 25.699219 39.699219 27.757812 34.261719 26.554688 29.027344 C 25.539062 24.605469 22.457031 21.152344 18.054688 18.164062 L 42.6875 18.164062 C 43.414062 20.234375 45.367188 21.617188 47.566406 21.621094 C 50.433594 21.621094 52.757812 19.296875 52.757812 16.433594 C 52.757812 13.566406 50.433594 11.242188 47.566406 11.242188 Z M 47.566406 14.703125 C 48.523438 14.703125 49.296875 15.476562 49.296875 16.433594 C 49.296875 17.386719 48.523438 18.164062 47.566406 18.164062 C 46.613281 18.164062 45.835938 17.386719 45.835938 16.433594 C 45.835938 15.476562 46.613281 14.703125 47.566406 14.703125 Z M 16.433594 45.835938 C 17.296875 45.839844 18.03125 46.488281 18.136719 47.347656 C 18.148438 47.378906 18.152344 47.410156 18.160156 47.445312 C 18.160156 47.46875 18.164062 47.488281 18.164062 47.511719 C 18.164062 47.53125 18.164062 47.550781 18.164062 47.566406 C 18.164062 48.523438 17.386719 49.296875 16.433594 49.296875 C 15.589844 49.296875 14.875 48.691406 14.730469 47.863281 C 14.710938 47.761719 14.703125 47.664062 14.703125 47.566406 C 14.703125 47.511719 14.703125 47.449219 14.707031 47.390625 C 14.800781 46.511719 15.542969 45.835938 16.433594 45.835938 Z M 38.917969 45.835938 L 42.378906 45.835938 L 42.378906 49.296875 L 38.917969 49.296875 Z M 38.917969 45.835938 "/>
</g>
</svg>
