<svg xmlns="http://www.w3.org/2000/svg" xmlns:xlink="http://www.w3.org/1999/xlink" width="64px" height="64px" viewBox="0 0 64 64" version="1.1">
<defs>
<linearGradient id="linear0" gradientUnits="userSpaceOnUse" x1="0" y1="0" x2="0" y2="1" gradientTransform="matrix(26.072071,0,0,55.351351,18.963963,4.324324)">
<stop offset="0" style="stop-color:#ffae00;stop-opacity:1;"/>
<stop offset="0.5" style="stop-color:#dddddd;stop-opacity:1;"/>
<stop offset="1" style="stop-color:#bf1d1d;stop-opacity:1;"/>
</linearGradient>
</defs>
<g id="surface1">
<path style=" stroke:none;fill-rule:evenodd;fill:url(#linear0);" d="M 41.613281 59.539062 C 40.894531 59.1875 40.292969 58.648438 39.53125 57.6875 C 38.902344 56.882812 38.636719 56.566406 38.289062 56.1875 C 37.96875 55.828125 37.851562 55.417969 37.761719 54.257812 C 37.71875 53.78125 37.6875 53.589844 37.632812 53.496094 C 37.585938 53.417969 37.554688 53.292969 37.554688 53.203125 C 37.554688 53.042969 37.542969 53.039062 37.230469 52.890625 C 36.972656 52.765625 36.894531 52.703125 36.8125 52.5625 C 36.753906 52.460938 36.511719 51.765625 36.28125 51.003906 C 35.738281 49.246094 35.289062 47.910156 35.121094 47.566406 C 34.988281 47.3125 34.988281 47.292969 35.039062 47.109375 C 35.070312 47 35.199219 46.757812 35.324219 46.570312 L 35.554688 46.230469 L 35.488281 45.863281 C 35.390625 45.269531 35.347656 44.710938 35.3125 43.621094 C 35.285156 42.390625 35.300781 42.445312 34.632812 41.824219 C 34.378906 41.585938 34.09375 41.28125 33.984375 41.109375 C 33.589844 40.523438 33.039062 39.339844 32.636719 38.214844 C 32.363281 37.445312 32.335938 37.390625 32.179688 37.324219 C 31.6875 37.121094 31.3125 37.757812 30.828125 39.609375 C 30.539062 40.71875 30.132812 41.417969 29.335938 42.175781 C 28.773438 42.699219 28.773438 42.691406 28.847656 44.132812 C 28.875 44.609375 28.863281 44.957031 28.8125 45.511719 C 28.742188 46.214844 28.742188 46.253906 28.8125 46.292969 C 28.96875 46.382812 29.265625 46.6875 29.339844 46.835938 C 29.523438 47.1875 29.515625 47.214844 28.386719 50.023438 L 27.351562 52.597656 L 27.121094 52.6875 C 26.996094 52.742188 26.792969 52.808594 26.671875 52.835938 C 26.457031 52.878906 26.445312 52.882812 26.445312 53.015625 C 26.445312 53.089844 26.433594 53.171875 26.410156 53.199219 C 26.386719 53.214844 26.363281 53.484375 26.347656 53.789062 C 26.335938 54.089844 26.296875 54.511719 26.257812 54.714844 C 26.117188 55.472656 25.9375 55.8125 25.46875 56.160156 C 25.3125 56.269531 25.078125 56.445312 24.9375 56.550781 C 24.792969 56.660156 24.238281 57.136719 23.703125 57.617188 C 22.300781 58.878906 22.164062 58.960938 21.617188 58.957031 C 21.199219 58.949219 20.902344 58.867188 20.839844 58.742188 C 20.761719 58.582031 20.773438 57.90625 20.875 57.285156 C 21.027344 56.351562 21.335938 55.394531 22.210938 53.210938 L 22.730469 51.914062 L 22.582031 51.558594 C 22.429688 51.191406 22.429688 51.191406 22.433594 50.558594 C 22.4375 49.976562 22.457031 49.828125 22.632812 48.960938 C 22.875 47.765625 23.152344 46.1875 23.214844 45.671875 C 23.242188 45.460938 23.292969 45.234375 23.328125 45.179688 C 23.40625 45.050781 23.613281 44.929688 23.8125 44.894531 C 23.96875 44.867188 23.976562 44.863281 24.0625 44.589844 C 24.210938 44.121094 24.382812 43.792969 24.914062 42.914062 C 25.417969 42.085938 25.429688 42.066406 25.472656 41.714844 C 25.496094 41.523438 25.511719 41.050781 25.503906 40.664062 C 25.484375 38.820312 25.503906 38.617188 25.835938 37.621094 C 26.171875 36.605469 26.808594 35.210938 27.5625 33.847656 C 27.8125 33.394531 27.839844 33.320312 27.867188 33.015625 C 27.921875 32.421875 28.261719 31.292969 28.726562 30.144531 L 28.914062 29.664062 L 28.847656 29.460938 C 28.789062 29.285156 28.789062 29.253906 28.847656 29.136719 C 28.90625 29.023438 28.90625 28.960938 28.847656 28.503906 L 28.773438 28.003906 L 28.246094 27.476562 C 27.960938 27.1875 27.707031 26.96875 27.6875 26.984375 C 27.621094 27.011719 27.355469 27.59375 27.191406 28.023438 C 27.039062 28.441406 26.941406 28.578125 26.589844 28.835938 C 26.417969 28.960938 26.355469 29.050781 26.296875 29.203125 C 26.148438 29.621094 26.117188 29.671875 25.914062 29.769531 C 25.808594 29.824219 25.582031 29.886719 25.414062 29.914062 C 25.132812 29.960938 25.105469 29.96875 24.941406 30.164062 C 24.714844 30.429688 24.636719 30.472656 24.117188 30.578125 C 23.691406 30.664062 23.6875 30.664062 23.375 30.582031 C 23.191406 30.539062 22.882812 30.429688 22.671875 30.339844 C 22.214844 30.160156 21.214844 29.621094 20.8125 29.335938 C 20.644531 29.230469 20.433594 29.117188 20.335938 29.089844 C 20.136719 29.039062 19.714844 28.742188 19.511719 28.503906 C 19.367188 28.347656 19.367188 28.339844 19.449219 27.960938 C 19.46875 27.851562 19.441406 27.773438 19.300781 27.558594 C 19.097656 27.246094 19.085938 27.125 19.234375 26.976562 C 19.292969 26.921875 19.339844 26.835938 19.339844 26.796875 C 19.339844 26.757812 19.257812 26.582031 19.148438 26.40625 C 18.933594 26.042969 18.917969 25.957031 19.050781 25.730469 C 19.136719 25.578125 19.136719 25.570312 19.0625 25.253906 C 18.984375 24.894531 19.003906 24.789062 19.234375 24.582031 C 19.296875 24.523438 19.441406 24.339844 19.558594 24.1875 C 19.945312 23.664062 20.335938 23.660156 21.011719 24.136719 C 21.203125 24.273438 21.226562 24.285156 21.292969 24.21875 C 21.402344 24.121094 21.742188 24.136719 21.96875 24.242188 C 22.136719 24.324219 22.171875 24.375 22.335938 24.71875 C 22.4375 24.9375 22.5625 25.226562 22.613281 25.363281 L 22.703125 25.621094 L 23.375 25.625 C 23.742188 25.632812 24.09375 25.652344 24.160156 25.679688 C 24.265625 25.71875 24.28125 25.714844 24.296875 25.613281 C 24.375 25.261719 24.429688 25.136719 24.59375 24.96875 L 24.773438 24.789062 L 24.769531 24.476562 C 24.765625 24.191406 24.773438 24.148438 24.910156 23.941406 C 25.039062 23.730469 25.042969 23.699219 25.003906 23.539062 C 24.921875 23.210938 24.90625 22.773438 24.957031 22.511719 C 25.089844 21.867188 25.800781 20.960938 26.273438 20.835938 C 26.605469 20.746094 27.125 20.703125 27.972656 20.699219 L 28.835938 20.691406 L 28.917969 20.511719 C 29.03125 20.257812 29.125 20.210938 29.375 20.300781 L 29.578125 20.378906 L 29.839844 20.125 L 30.113281 19.878906 L 30.148438 19.324219 C 30.171875 19.015625 30.203125 18.707031 30.210938 18.632812 C 30.234375 18.503906 30.230469 18.496094 30.125 18.496094 C 30.0625 18.496094 29.941406 18.457031 29.855469 18.410156 C 29.769531 18.363281 29.515625 18.261719 29.296875 18.171875 C 28.488281 17.863281 27.710938 17.402344 27.070312 16.855469 C 26.773438 16.605469 26.375 16.164062 26.410156 16.132812 C 26.417969 16.125 26.636719 16.152344 26.890625 16.199219 C 27.382812 16.28125 27.765625 16.308594 27.765625 16.246094 C 27.765625 16.230469 27.664062 16.132812 27.539062 16.03125 C 27.40625 15.929688 27.117188 15.664062 26.902344 15.433594 L 26.503906 15.023438 L 26.070312 13.726562 C 25.835938 13.011719 25.636719 12.414062 25.636719 12.390625 C 25.636719 12.375 25.761719 12.472656 25.910156 12.613281 C 26.058594 12.753906 26.3125 12.957031 26.460938 13.066406 C 26.753906 13.273438 27.46875 13.652344 27.503906 13.621094 C 27.511719 13.609375 27.449219 13.488281 27.363281 13.355469 C 27.117188 12.988281 26.710938 12.207031 26.59375 11.863281 C 26.539062 11.703125 26.472656 11.445312 26.445312 11.296875 C 26.394531 10.976562 26.386719 8.285156 26.4375 8.285156 C 26.460938 8.285156 26.566406 8.417969 26.6875 8.585938 C 26.933594 8.949219 27.46875 9.515625 27.5625 9.515625 C 27.605469 9.515625 27.839844 9.621094 28.09375 9.746094 C 28.347656 9.878906 28.5625 9.984375 28.578125 9.984375 C 28.585938 9.984375 28.589844 9.800781 28.582031 9.578125 C 28.550781 8.691406 28.664062 8.402344 29.621094 6.796875 L 30.171875 5.886719 L 30.199219 6.648438 C 30.214844 7.136719 30.246094 7.472656 30.285156 7.582031 C 30.335938 7.738281 30.734375 8.320312 30.789062 8.324219 C 30.800781 8.324219 30.847656 8.207031 30.886719 8.070312 C 31.015625 7.644531 31.296875 7.226562 31.835938 6.660156 C 32.113281 6.363281 32.394531 6.023438 32.46875 5.894531 C 32.589844 5.671875 32.59375 5.644531 32.609375 4.996094 C 32.617188 4.625 32.636719 4.324219 32.648438 4.324219 C 32.664062 4.324219 32.796875 4.449219 32.933594 4.609375 C 33.914062 5.703125 34.613281 6.652344 34.988281 7.410156 C 35.234375 7.902344 35.296875 8.144531 35.296875 8.625 C 35.296875 8.863281 35.308594 9.042969 35.324219 9.042969 C 35.390625 9.042969 35.910156 8.636719 36.179688 8.375 C 36.511719 8.039062 36.6875 7.808594 36.867188 7.441406 L 36.988281 7.199219 L 37.015625 7.386719 C 37.03125 7.488281 37.109375 8.269531 37.191406 9.113281 C 37.355469 10.785156 37.351562 10.867188 37.136719 11.257812 C 37.085938 11.355469 37.050781 11.449219 37.054688 11.460938 C 37.09375 11.5 37.792969 10.960938 38.039062 10.703125 C 38.191406 10.539062 38.3125 10.433594 38.3125 10.460938 C 38.3125 10.488281 38.253906 11.125 38.164062 11.878906 C 38.058594 12.875 37.988281 13.335938 37.914062 13.589844 C 37.8125 13.917969 37.792969 13.949219 37.527344 14.1875 C 37.375 14.320312 37.269531 14.4375 37.292969 14.441406 C 37.375 14.472656 38.050781 14.121094 38.226562 13.960938 C 38.324219 13.875 38.40625 13.820312 38.40625 13.847656 C 38.40625 13.949219 37.707031 15.8125 37.613281 15.945312 C 37.554688 16.039062 37.3125 16.246094 37.039062 16.4375 C 36.597656 16.738281 36.570312 16.769531 36.6875 16.785156 C 36.746094 16.789062 36.960938 16.765625 37.148438 16.734375 C 37.335938 16.703125 37.496094 16.679688 37.511719 16.691406 C 37.539062 16.71875 36.4375 17.8125 36.3125 17.878906 C 36.246094 17.914062 35.929688 18.011719 35.597656 18.109375 C 35.207031 18.214844 34.949219 18.3125 34.855469 18.386719 C 34.769531 18.449219 34.625 18.511719 34.527344 18.527344 C 34.378906 18.542969 34.355469 18.558594 34.378906 18.636719 C 34.390625 18.6875 34.40625 19.054688 34.40625 19.449219 L 34.410156 20.175781 L 34.648438 20.3125 C 34.773438 20.390625 34.941406 20.449219 35.003906 20.449219 C 35.203125 20.449219 35.363281 20.558594 35.511719 20.792969 L 35.644531 21.011719 L 35.945312 20.988281 C 36.117188 20.976562 36.394531 20.945312 36.570312 20.917969 C 37.410156 20.792969 38.351562 21.066406 38.8125 21.578125 C 39.1875 21.988281 39.238281 22.042969 39.3125 22.105469 C 39.351562 22.132812 39.382812 22.210938 39.382812 22.273438 C 39.382812 22.347656 39.433594 22.511719 39.488281 22.644531 C 39.636719 22.976562 39.664062 23.3125 39.570312 23.613281 L 39.5 23.851562 L 39.632812 24.121094 C 39.738281 24.339844 39.761719 24.445312 39.761719 24.671875 C 39.761719 24.886719 39.78125 24.960938 39.839844 25.015625 C 39.988281 25.152344 40.164062 25.558594 40.179688 25.8125 L 40.199219 26.058594 L 40.355469 26.039062 C 40.441406 26.023438 40.6875 25.9375 40.910156 25.851562 C 41.21875 25.730469 41.320312 25.671875 41.328125 25.609375 C 41.339844 25.550781 41.3125 25.511719 41.261719 25.496094 C 41.089844 25.441406 41.070312 25.375 41.082031 24.679688 C 41.089844 23.921875 41.121094 23.800781 41.363281 23.703125 C 41.441406 23.671875 41.597656 23.644531 41.714844 23.644531 C 41.902344 23.644531 41.96875 23.613281 42.429688 23.3125 C 43.117188 22.855469 43.09375 22.863281 43.355469 22.894531 C 43.621094 22.933594 43.652344 22.945312 44.285156 23.460938 C 44.882812 23.945312 44.941406 24.054688 44.824219 24.445312 C 44.78125 24.589844 44.789062 24.625 44.90625 24.851562 C 45.070312 25.152344 45.070312 25.300781 44.933594 25.570312 C 44.835938 25.757812 44.828125 25.796875 44.875 25.890625 C 45.027344 26.21875 44.996094 26.421875 44.761719 26.707031 C 44.589844 26.914062 44.554688 27.027344 44.585938 27.265625 C 44.617188 27.511719 44.550781 27.703125 44.367188 27.863281 C 44.117188 28.082031 43.9375 28.335938 43.9375 28.460938 C 43.9375 28.53125 43.902344 28.597656 43.847656 28.632812 C 43.800781 28.664062 43.699219 28.789062 43.625 28.917969 C 43.253906 29.582031 42.730469 30.269531 42.496094 30.414062 C 42.351562 30.511719 42.296875 30.511719 41.679688 30.511719 C 41.042969 30.511719 41.011719 30.511719 40.785156 30.394531 C 40.558594 30.289062 40.539062 30.285156 40.285156 30.328125 C 40.097656 30.363281 39.894531 30.367188 39.582031 30.335938 C 39.1875 30.296875 39.105469 30.28125 38.890625 30.148438 C 38.761719 30.066406 38.472656 29.835938 38.253906 29.632812 C 37.945312 29.339844 37.847656 29.21875 37.835938 29.117188 C 37.820312 29.039062 37.796875 28.910156 37.785156 28.820312 C 37.765625 28.703125 37.691406 28.585938 37.523438 28.402344 C 37.257812 28.109375 37.164062 27.9375 37.027344 27.402344 C 36.96875 27.1875 36.894531 26.960938 36.863281 26.902344 L 36.800781 26.785156 L 36.726562 26.976562 C 36.671875 27.125 36.527344 27.296875 36.105469 27.699219 C 35.644531 28.144531 35.554688 28.246094 35.554688 28.355469 C 35.554688 28.429688 35.511719 28.527344 35.472656 28.582031 C 35.414062 28.660156 35.386719 28.785156 35.375 29.042969 C 35.347656 29.449219 35.335938 29.414062 35.792969 30.808594 C 36.082031 31.703125 36.363281 32.753906 36.449219 33.230469 C 36.476562 33.402344 36.613281 33.785156 36.773438 34.164062 C 37.570312 36.050781 38.210938 37.660156 38.5625 38.703125 L 38.800781 39.40625 L 38.820312 40.113281 C 38.835938 40.746094 38.828125 40.851562 38.738281 41.179688 C 38.613281 41.660156 38.589844 42.058594 38.679688 42.335938 C 38.714844 42.460938 38.867188 42.714844 39.015625 42.917969 C 39.40625 43.445312 39.6875 43.878906 39.851562 44.1875 C 39.96875 44.429688 39.996094 44.550781 40.058594 45.078125 L 40.125 45.691406 L 40.433594 45.789062 C 41 45.96875 41.136719 46.113281 41.230469 46.617188 C 41.394531 47.542969 41.648438 49.875 41.789062 51.765625 L 41.8125 52.132812 L 41.59375 52.441406 L 41.382812 52.753906 L 41.460938 52.863281 C 41.511719 52.914062 41.582031 53.113281 41.621094 53.292969 C 41.671875 53.523438 41.851562 53.960938 42.242188 54.789062 C 42.890625 56.164062 42.894531 56.1875 42.9375 57.605469 C 42.96875 58.613281 42.9375 58.910156 42.761719 59.261719 C 42.625 59.539062 42.445312 59.652344 42.148438 59.671875 C 41.949219 59.6875 41.867188 59.664062 41.613281 59.539062 Z M 41.613281 59.539062 "/>
</g>
</svg>
