<svg xmlns="http://www.w3.org/2000/svg" xmlns:xlink="http://www.w3.org/1999/xlink" width="64px" height="64px" viewBox="0 0 64 64" version="1.1">
<defs>
<linearGradient id="linear0" gradientUnits="userSpaceOnUse" x1="0" y1="0" x2="0" y2="1" gradientTransform="matrix(55.351351,0,0,47.441443,4.324324,8.279279)">
<stop offset="0" style="stop-color:#05f7ff;stop-opacity:1;"/>
<stop offset="0.5" style="stop-color:#dddddd;stop-opacity:1;"/>
<stop offset="1" style="stop-color:#e6ff05;stop-opacity:1;"/>
</linearGradient>
</defs>
<g id="surface1">
<path style=" stroke:none;fill-rule:nonzero;fill:url(#linear0);" d="M 17.976562 37.269531 L 24.253906 26.652344 C 22.652344 26.308594 21.457031 24.820312 21.457031 23.039062 L 21.457031 11.96875 C 21.457031 9.921875 23.023438 8.28125 24.96875 8.28125 L 39.03125 8.28125 C 40.976562 8.28125 42.542969 9.921875 42.542969 11.96875 L 42.542969 23.039062 C 42.542969 24.820312 41.347656 26.308594 39.746094 26.652344 L 46.023438 37.269531 L 56.164062 37.269531 C 58.109375 37.269531 59.675781 38.917969 59.675781 40.960938 L 59.675781 52.03125 C 59.675781 54.078125 58.109375 55.71875 56.164062 55.71875 L 42.105469 55.71875 C 40.160156 55.71875 38.589844 54.078125 38.589844 52.03125 L 38.589844 40.960938 C 38.589844 39.179688 39.785156 37.691406 41.382812 37.347656 L 35.109375 26.730469 L 28.890625 26.730469 L 22.617188 37.347656 C 24.214844 37.691406 25.410156 39.179688 25.410156 40.960938 L 25.410156 52.03125 C 25.410156 54.078125 23.839844 55.71875 21.894531 55.71875 L 7.835938 55.71875 C 5.890625 55.71875 4.324219 54.078125 4.324219 52.03125 L 4.324219 40.960938 C 4.324219 38.917969 5.890625 37.269531 7.835938 37.269531 Z M 17.976562 37.269531 "/>
</g>
</svg>
