<svg xmlns="http://www.w3.org/2000/svg" xmlns:xlink="http://www.w3.org/1999/xlink" width="64px" height="64px" viewBox="0 0 64 64" version="1.1">
<defs>
<linearGradient id="linear0" gradientUnits="userSpaceOnUse" x1="0" y1="0" x2="0" y2="1" gradientTransform="matrix(55.351351,0,0,43.045044,4.324324,10.477478)">
<stop offset="0" style="stop-color:#ff8963;stop-opacity:1;"/>
<stop offset="0.5" style="stop-color:#dddddd;stop-opacity:1;"/>
<stop offset="1" style="stop-color:#0F6FFF;stop-opacity:1;"/>
</linearGradient>
</defs>
<g id="surface1">
<path style=" stroke:none;fill-rule:nonzero;fill:url(#linear0);" d="M 15.085938 10.476562 L 21.238281 18.164062 L 24.3125 16.625 L 19.699219 12.011719 L 24.3125 10.476562 Z M 39.6875 10.476562 L 44.300781 12.011719 L 39.6875 16.625 L 42.761719 18.164062 L 48.914062 10.476562 Z M 32 13.550781 C 27.996094 13.5625 22.757812 15.746094 22.773438 23.386719 L 32 18.164062 L 41.226562 23.386719 C 41.242188 15.746094 36.003906 13.5625 32 13.550781 Z M 8.9375 16.625 L 12.011719 25.847656 L 12.011719 22.773438 L 18.164062 22.773438 L 19.699219 19.699219 Z M 55.0625 16.625 L 44.300781 19.699219 L 45.835938 22.773438 L 51.988281 22.773438 L 51.988281 25.847656 Z M 32 21.238281 L 27.386719 24.003906 L 28 28.3125 L 29.539062 24.3125 L 34.460938 24.3125 L 36 28.3125 L 36.613281 24.011719 L 32 21.242188 Z M 16.625 25.847656 L 4.324219 30.460938 L 10.476562 33.539062 L 10.476562 32 L 15.085938 30.460938 Z M 24.3125 25.847656 L 18.164062 28.3125 C 18.199219 33.335938 21.015625 38.082031 23.851562 40.386719 C 25.835938 41.96875 28.320312 43.773438 29.539062 44.296875 C 30.933594 44.820312 30.160156 41.710938 30.460938 41.21875 L 33.539062 41.21875 C 33.839844 41.710938 33.0625 44.824219 34.460938 44.296875 C 35.679688 43.773438 38.164062 41.96875 40.148438 40.386719 C 42.984375 38.078125 45.796875 33.335938 45.835938 28.3125 L 39.6875 25.847656 L 38.152344 32 L 34.148438 32 L 32 25.847656 L 29.851562 32 L 25.847656 32 Z M 47.375 25.847656 L 48.914062 30.460938 L 53.523438 32 L 53.523438 33.539062 L 59.675781 30.460938 Z M 16.625 35.078125 L 8.9375 38.152344 L 21.238281 53.523438 Z M 47.375 35.078125 L 42.761719 53.523438 L 55.0625 38.152344 Z M 47.375 35.078125 "/>
</g>
</svg>
