<svg xmlns="http://www.w3.org/2000/svg" xmlns:xlink="http://www.w3.org/1999/xlink" width="64px" height="64px" viewBox="0 0 64 64" version="1.1">
<defs>
<linearGradient id="linear0" gradientUnits="userSpaceOnUse" x1="0" y1="0" x2="0" y2="1" gradientTransform="matrix(16.603601,0,0,41.513514,23.698199,4.324324)">
<stop offset="0" style="stop-color:#ffae00;stop-opacity:1;"/>
<stop offset="0.5" style="stop-color:#dddddd;stop-opacity:1;"/>
<stop offset="1" style="stop-color:#bf1d1d;stop-opacity:1;"/>
</linearGradient>
<linearGradient id="linear1" gradientUnits="userSpaceOnUse" x1="0" y1="0" x2="0" y2="1" gradientTransform="matrix(38.747747,0,0,33.211713,12.626127,26.463963)">
<stop offset="0" style="stop-color:#ffae00;stop-opacity:1;"/>
<stop offset="0.5" style="stop-color:#dddddd;stop-opacity:1;"/>
<stop offset="1" style="stop-color:#bf1d1d;stop-opacity:1;"/>
</linearGradient>
</defs>
<g id="surface1">
<path style=" stroke:none;fill-rule:nonzero;fill:url(#linear0);" d="M 32 4.324219 C 32 4.324219 29.234375 4.324219 29.234375 7.089844 C 29.234375 9.863281 26.460938 9.863281 26.460938 9.863281 C 26.460938 9.863281 23.699219 9.863281 23.699219 7.089844 L 23.699219 45.835938 L 40.300781 45.835938 L 40.300781 7.089844 C 40.300781 9.863281 37.539062 9.863281 37.539062 9.863281 C 37.539062 9.863281 34.765625 9.863281 34.765625 7.089844 C 34.765625 4.324219 32 4.324219 32 4.324219 Z M 32 4.324219 "/>
<path style=" stroke:none;fill-rule:nonzero;fill:url(#linear1);" d="M 12.625 37.539062 L 32 59.675781 L 51.375 37.539062 L 40.300781 37.539062 L 40.300781 29.234375 C 40.300781 32 37.539062 32 37.539062 32 C 37.539062 32 34.765625 32 34.765625 29.234375 C 34.765625 26.460938 32 26.460938 32 26.460938 C 32 26.460938 29.234375 26.460938 29.234375 29.234375 C 29.234375 32 26.460938 32 26.460938 32 C 26.460938 32 23.699219 32 23.699219 29.230469 L 23.699219 37.539062 Z M 12.625 37.539062 "/>
</g>
</svg>
