<svg xmlns="http://www.w3.org/2000/svg" xmlns:xlink="http://www.w3.org/1999/xlink" width="64px" height="64px" viewBox="0 0 64 64" version="1.1">
<defs>
<linearGradient id="linear0" gradientUnits="userSpaceOnUse" x1="0" y1="0" x2="0" y2="1" gradientTransform="matrix(55.351351,0,0,49.369368,4.324324,7.315315)">
<stop offset="0" style="stop-color:#ffae00;stop-opacity:1;"/>
<stop offset="0.5" style="stop-color:#dddddd;stop-opacity:1;"/>
<stop offset="1" style="stop-color:#bf1d1d;stop-opacity:1;"/>
</linearGradient>
</defs>
<g id="surface1">
<path style=" stroke:none;fill-rule:evenodd;fill:url(#linear0);" d="M 24.179688 7.3125 L 55.40625 7.3125 C 57.761719 7.3125 59.675781 9.234375 59.675781 11.589844 L 59.675781 34.691406 C 59.675781 37.050781 57.761719 38.960938 55.40625 38.960938 L 24.179688 38.960938 C 21.824219 38.960938 19.910156 37.050781 19.910156 34.691406 L 19.910156 11.589844 C 19.910156 9.234375 21.824219 7.3125 24.179688 7.3125 Z M 7.957031 34.929688 L 16.113281 34.929688 C 16.429688 43.550781 22.121094 42.996094 31.933594 42.835938 L 31.933594 53.054688 C 31.933594 55.058594 30.308594 56.6875 28.308594 56.6875 L 7.957031 56.6875 C 5.949219 56.6875 4.324219 55.058594 4.324219 53.054688 L 4.324219 38.554688 C 4.324219 36.554688 5.949219 34.929688 7.957031 34.929688 Z M 35.886719 42.835938 L 35.96875 52.570312 L 45.863281 52.625 C 47.957031 52.636719 49.636719 50.945312 49.625 48.851562 L 49.578125 42.679688 Z M 35.886719 42.835938 "/>
</g>
</svg>
