<svg xmlns="http://www.w3.org/2000/svg" xmlns:xlink="http://www.w3.org/1999/xlink" width="64px" height="64px" viewBox="0 0 64 64" version="1.1">
<defs>
<linearGradient id="linear0" gradientUnits="userSpaceOnUse" x1="0" y1="0" x2="0" y2="1" gradientTransform="matrix(55.351351,0,0,55.351351,4.324324,4.324324)">
<stop offset="0" style="stop-color:#00a2ff;stop-opacity:1;"/>
<stop offset="0.5" style="stop-color:#dddddd;stop-opacity:1;"/>
<stop offset="1" style="stop-color:#00ffae;stop-opacity:1;"/>
</linearGradient>
</defs>
<g id="surface1">
<path style=" stroke:none;fill-rule:evenodd;fill:url(#linear0);" d="M 57.460938 42.835938 C 42.238281 49.9375 25.90625 52.269531 11.941406 51.050781 C 17.164062 56.550781 24.414062 59.671875 32 59.675781 C 43.097656 59.675781 53.121094 53.050781 57.460938 42.835938 Z M 26.070312 34.960938 L 37.929688 34.960938 L 37.929688 37.929688 L 26.070312 37.929688 Z M 38.296875 26.257812 L 36.773438 23.707031 L 44.457031 19.097656 L 52.136719 23.707031 L 50.613281 26.257812 L 44.457031 22.558594 Z M 32 4.324219 C 16.714844 4.324219 4.324219 16.714844 4.324219 32 C 4.335938 36.511719 5.4375 40.945312 7.554688 44.929688 C 22.589844 47.289062 42.171875 44.949219 59.402344 35.679688 C 59.578125 34.460938 59.664062 33.230469 59.675781 32 C 59.675781 16.714844 47.285156 4.324219 32 4.324219 Z M 17.664062 19.152344 L 19.152344 19.152344 L 19.152344 22.117188 L 17.664062 22.117188 C 16.796875 22.117188 16.1875 21.511719 16.1875 20.632812 C 16.1875 19.761719 16.796875 19.152344 17.664062 19.152344 Z M 22.117188 25.082031 L 23.597656 25.082031 C 24.472656 25.082031 25.082031 25.6875 25.082031 26.5625 C 25.082031 27.4375 24.472656 28.042969 23.597656 28.042969 L 22.117188 28.042969 Z M 19.152344 13.21875 L 19.152344 16.1875 L 17.664062 16.1875 C 15.203125 16.1875 13.21875 18.171875 13.21875 20.632812 C 13.21875 23.097656 15.203125 25.082031 17.664062 25.082031 L 19.152344 25.082031 L 19.152344 28.042969 L 13.488281 28.042969 C 14.105469 29.769531 15.726562 31.011719 17.664062 31.011719 L 19.152344 31.011719 L 19.152344 33.976562 L 22.117188 33.976562 L 22.117188 31.011719 L 23.597656 31.011719 C 26.0625 31.011719 28.042969 29.027344 28.042969 26.5625 C 28.042969 24.097656 26.0625 22.117188 23.597656 22.117188 L 22.117188 22.117188 L 22.117188 19.152344 L 27.773438 19.152344 C 27.164062 17.421875 25.539062 16.1875 23.597656 16.1875 L 22.117188 16.1875 L 22.117188 13.21875 Z M 19.152344 13.21875 "/>
</g>
</svg>
