<svg xmlns="http://www.w3.org/2000/svg" xmlns:xlink="http://www.w3.org/1999/xlink" width="64px" height="64px" viewBox="0 0 64 64" version="1.1">
<defs>
<linearGradient id="linear0" gradientUnits="userSpaceOnUse" x1="0" y1="0" x2="0" y2="1" gradientTransform="matrix(33.693693,0,0,55.351351,15.153153,4.324324)">
<stop offset="0" style="stop-color:#ffae00;stop-opacity:1;"/>
<stop offset="0.5" style="stop-color:#dddddd;stop-opacity:1;"/>
<stop offset="1" style="stop-color:#bf1d1d;stop-opacity:1;"/>
</linearGradient>
</defs>
<g id="surface1">
<path style=" stroke:none;fill-rule:nonzero;fill:url(#linear0);" d="M 21.171875 4.324219 C 17.800781 4.324219 15.152344 6.972656 15.152344 10.339844 L 15.152344 53.660156 C 15.152344 57.027344 17.800781 59.675781 21.171875 59.675781 L 42.828125 59.675781 C 46.199219 59.675781 48.847656 57.027344 48.847656 53.660156 L 48.847656 10.339844 C 48.847656 6.972656 46.199219 4.324219 42.828125 4.324219 Z M 21.171875 6.734375 L 42.828125 6.734375 C 44.875 6.734375 46.441406 8.296875 46.441406 10.339844 L 46.441406 47.644531 L 17.558594 47.644531 L 17.558594 10.339844 C 17.558594 8.296875 19.125 6.734375 21.171875 6.734375 Z M 23.351562 15.152344 C 22.6875 15.214844 22.199219 15.808594 22.261719 16.46875 C 22.320312 17.132812 22.914062 17.621094 23.578125 17.558594 L 40.421875 17.558594 C 40.855469 17.5625 41.261719 17.335938 41.484375 16.960938 C 41.699219 16.589844 41.699219 16.125 41.484375 15.753906 C 41.261719 15.375 40.855469 15.148438 40.421875 15.152344 Z M 23.351562 21.171875 C 22.6875 21.230469 22.199219 21.824219 22.261719 22.488281 C 22.320312 23.148438 22.914062 23.636719 23.578125 23.578125 L 36.8125 23.578125 C 37.246094 23.582031 37.648438 23.355469 37.867188 22.984375 C 38.089844 22.605469 38.089844 22.144531 37.867188 21.765625 C 37.648438 21.390625 37.242188 21.164062 36.8125 21.171875 Z M 23.351562 27.1875 C 22.6875 27.246094 22.199219 27.839844 22.261719 28.503906 C 22.320312 29.164062 22.914062 29.652344 23.578125 29.589844 L 40.421875 29.589844 C 40.855469 29.597656 41.261719 29.367188 41.484375 28.996094 C 41.699219 28.621094 41.699219 28.164062 41.484375 27.785156 C 41.261719 27.410156 40.855469 27.179688 40.421875 27.1875 Z M 23.351562 33.203125 C 22.6875 33.261719 22.199219 33.855469 22.261719 34.515625 C 22.320312 35.1875 22.914062 35.671875 23.578125 35.609375 L 36.8125 35.609375 C 37.246094 35.617188 37.648438 35.386719 37.867188 35.011719 C 38.089844 34.636719 38.089844 34.175781 37.867188 33.796875 C 37.648438 33.421875 37.242188 33.199219 36.8125 33.203125 Z M 23.351562 39.21875 C 22.6875 39.28125 22.199219 39.875 22.261719 40.539062 C 22.320312 41.199219 22.914062 41.6875 23.578125 41.625 L 40.421875 41.625 C 40.855469 41.632812 41.261719 41.40625 41.484375 41.027344 C 41.699219 40.660156 41.699219 40.191406 41.484375 39.8125 C 41.261719 39.441406 40.855469 39.214844 40.421875 39.21875 Z M 32 51.253906 C 33.324219 51.253906 34.410156 52.335938 34.410156 53.660156 C 34.410156 54.988281 33.324219 56.066406 32 56.066406 C 30.675781 56.066406 29.589844 54.988281 29.589844 53.660156 C 29.589844 52.335938 30.675781 51.253906 32 51.253906 Z M 32 51.253906 "/>
</g>
</svg>
