<svg xmlns="http://www.w3.org/2000/svg" xmlns:xlink="http://www.w3.org/1999/xlink" width="64px" height="64px" viewBox="0 0 64 64" version="1.1">
<defs>
<linearGradient id="linear0" gradientUnits="userSpaceOnUse" x1="0" y1="0" x2="0" y2="1" gradientTransform="matrix(51.810811,0,0,51.891892,6.094595,6.054054)">
<stop offset="0" style="stop-color:#05f7ff;stop-opacity:1;"/>
<stop offset="0.5" style="stop-color:#dddddd;stop-opacity:1;"/>
<stop offset="1" style="stop-color:#e6ff05;stop-opacity:1;"/>
</linearGradient>
</defs>
<g id="surface1">
<path style=" stroke:none;fill-rule:nonzero;fill:url(#linear0);" d="M 28.179688 56.21875 C 28.738281 56.21875 29.265625 56.144531 29.757812 55.988281 C 30.246094 55.828125 30.730469 55.582031 31.191406 55.238281 C 31.660156 54.894531 32.027344 54.394531 32.300781 53.734375 C 32.570312 53.070312 32.707031 52.285156 32.707031 51.363281 L 32.707031 42.382812 L 30.414062 42.382812 L 30.414062 51.242188 C 30.414062 53.097656 29.675781 54.023438 28.203125 54.023438 C 27.164062 54.023438 26.375 53.5 25.835938 52.449219 L 23.851562 53.40625 C 24.253906 54.296875 24.828125 54.988281 25.582031 55.484375 C 26.328125 55.972656 27.199219 56.21875 28.179688 56.21875 Z M 41.863281 55.988281 C 38.8125 57.253906 35.46875 57.945312 31.960938 57.945312 C 21.441406 57.921875 11.984375 51.554688 8 41.820312 L 25.179688 38.867188 L 24.597656 35.460938 L 6.882812 38.496094 C 6.476562 36.933594 6.210938 35.335938 6.105469 33.730469 L 25.039062 33.730469 L 25.039062 30.269531 L 6.09375 30.269531 C 6.207031 28.660156 6.46875 27.0625 6.878906 25.5 L 24.597656 28.539062 L 25.179688 25.132812 L 7.960938 22.175781 C 11.945312 12.429688 21.429688 6.0625 31.960938 6.054688 C 46.289062 6.054688 57.90625 17.671875 57.90625 32 C 57.90625 35.6875 57.136719 39.199219 55.746094 42.378906 L 56.394531 42.378906 L 56.394531 44.578125 L 54.664062 44.578125 C 55.058594 43.863281 55.421875 43.132812 55.753906 42.382812 L 47.675781 42.382812 L 47.675781 52.652344 C 48.488281 52.039062 49.257812 51.378906 49.984375 50.671875 L 49.984375 53.789062 L 56.808594 53.789062 L 56.808594 55.988281 L 47.671875 55.988281 L 47.671875 52.648438 C 46.769531 53.335938 45.824219 53.960938 44.835938 54.527344 L 44.835938 53.792969 L 38.015625 53.792969 L 38.015625 50.058594 L 42.191406 50.058594 L 42.191406 47.863281 L 38.015625 47.863281 L 38.015625 44.578125 L 44.429688 44.578125 L 44.429688 42.382812 L 35.707031 42.382812 L 35.707031 55.988281 Z M 41.890625 55.988281 L 44.835938 55.988281 L 44.835938 54.539062 C 43.890625 55.078125 42.910156 55.5625 41.890625 55.988281 Z M 54.660156 44.578125 C 54.015625 45.726562 53.296875 46.824219 52.496094 47.863281 L 54.164062 47.863281 L 54.164062 50.054688 L 50.605469 50.054688 C 51.273438 49.363281 51.910156 48.632812 52.5 47.863281 L 49.988281 47.863281 L 49.988281 44.578125 Z M 50.585938 50.058594 C 50.390625 50.261719 50.191406 50.460938 49.988281 50.664062 L 49.988281 50.058594 Z M 50.585938 50.058594 "/>
</g>
</svg>
