<svg xmlns="http://www.w3.org/2000/svg" xmlns:xlink="http://www.w3.org/1999/xlink" width="64px" height="64px" viewBox="0 0 64 64" version="1.1">
<defs>
<linearGradient id="linear0" gradientUnits="userSpaceOnUse" x1="0" y1="0" x2="0" y2="1" gradientTransform="matrix(36.572071,0,0,55.351351,13.711712,4.324324)">
<stop offset="0" style="stop-color:#00a2ff;stop-opacity:1;"/>
<stop offset="0.5" style="stop-color:#dddddd;stop-opacity:1;"/>
<stop offset="1" style="stop-color:#00ffae;stop-opacity:1;"/>
</linearGradient>
</defs>
<g id="surface1">
<path style=" stroke:none;fill-rule:evenodd;fill:url(#linear0);" d="M 31.296875 53.675781 C 30.144531 53.421875 29.132812 52.679688 28.714844 51.789062 C 28.441406 51.1875 28.488281 50.8125 28.863281 50.585938 C 29.308594 50.320312 29.621094 50.496094 30.085938 51.261719 C 30.539062 52.027344 31.164062 52.402344 32 52.402344 C 32.875 52.402344 33.484375 52.023438 33.9375 51.199219 C 34.351562 50.457031 34.664062 50.300781 35.136719 50.585938 C 35.511719 50.8125 35.558594 51.1875 35.28125 51.796875 C 34.679688 53.105469 32.773438 54 31.296875 53.675781 Z M 20.675781 48.5625 C 20.5 48.125 20.890625 46.8125 21.386719 46.1875 C 22.933594 44.214844 26.027344 44.46875 27.171875 46.660156 C 27.605469 47.488281 27.691406 48.800781 27.3125 48.800781 C 27.191406 48.800781 27.09375 48.753906 27.09375 48.6875 C 27.09375 48.621094 26.878906 48.355469 26.613281 48.09375 C 25.511719 46.996094 23.773438 46.753906 22.414062 47.511719 C 21.996094 47.742188 21.511719 48.125 21.335938 48.367188 C 20.972656 48.863281 20.8125 48.910156 20.675781 48.5625 Z M 50.230469 44.382812 C 49.441406 52.792969 42.070312 59.675781 32.003906 59.675781 C 21.9375 59.675781 14.636719 52.789062 13.769531 44.382812 C 12.90625 35.933594 21.660156 4.449219 32.003906 4.324219 C 42.414062 4.199219 51.050781 35.625 50.230469 44.382812 Z M 43.324219 48.5625 C 43.5 48.125 43.109375 46.8125 42.613281 46.1875 C 41.066406 44.214844 37.972656 44.46875 36.828125 46.660156 C 36.394531 47.488281 36.308594 48.800781 36.6875 48.800781 C 36.808594 48.800781 36.90625 48.753906 36.90625 48.6875 C 36.90625 48.621094 37.121094 48.355469 37.386719 48.09375 C 38.488281 46.996094 40.226562 46.753906 41.585938 47.511719 C 42.003906 47.742188 42.488281 48.125 42.664062 48.367188 C 43.027344 48.863281 43.1875 48.910156 43.324219 48.5625 Z M 43.324219 48.5625 "/>
</g>
</svg>
