<svg xmlns="http://www.w3.org/2000/svg" xmlns:xlink="http://www.w3.org/1999/xlink" width="64px" height="64px" viewBox="0 0 64 64" version="1.1">
<defs>
<linearGradient id="linear0" gradientUnits="userSpaceOnUse" x1="0" y1="0" x2="0" y2="1" gradientTransform="matrix(50.324324,0,0,32.711713,6.837839,16.900901)">
<stop offset="0" style="stop-color:#ff8963;stop-opacity:1;"/>
<stop offset="0.5" style="stop-color:#dddddd;stop-opacity:1;"/>
<stop offset="1" style="stop-color:#0F6FFF;stop-opacity:1;"/>
</linearGradient>
<linearGradient id="linear1" gradientUnits="userSpaceOnUse" x1="0" y1="0" x2="0" y2="1" gradientTransform="matrix(55.351351,0,0,40.252253,4.324324,11.873874)">
<stop offset="0" style="stop-color:#ff8963;stop-opacity:1;"/>
<stop offset="0.5" style="stop-color:#dddddd;stop-opacity:1;"/>
<stop offset="1" style="stop-color:#0F6FFF;stop-opacity:1;"/>
</linearGradient>
</defs>
<g id="surface1">
<path style=" stroke:none;fill-rule:nonzero;fill:url(#linear0);" d="M 29.488281 16.902344 L 29.488281 47.097656 L 6.835938 47.097656 L 6.835938 49.613281 L 32 49.613281 L 32 34.511719 L 57.164062 34.511719 L 57.164062 32 L 32 32 L 32 16.902344 Z M 29.488281 16.902344 "/>
<path style=" stroke:none;fill-rule:nonzero;fill:url(#linear1);" d="M 30.738281 11.875 C 28.660156 11.875 26.96875 13.5625 26.96875 15.648438 C 26.96875 17.730469 28.660156 19.421875 30.738281 19.421875 C 32.828125 19.421875 34.511719 17.730469 34.511719 15.648438 C 34.511719 13.5625 32.828125 11.875 30.738281 11.875 Z M 30.738281 29.488281 C 28.660156 29.488281 26.96875 31.171875 26.96875 33.261719 C 26.96875 35.339844 28.660156 37.03125 30.738281 37.03125 C 32.828125 37.03125 34.511719 35.339844 34.511719 33.261719 C 34.511719 31.171875 32.828125 29.488281 30.738281 29.488281 Z M 55.902344 29.488281 C 53.820312 29.488281 52.125 31.171875 52.125 33.261719 C 52.125 35.339844 53.820312 37.03125 55.902344 37.03125 C 57.988281 37.03125 59.675781 35.339844 59.675781 33.261719 C 59.675781 31.171875 57.988281 29.488281 55.902344 29.488281 Z M 8.097656 44.578125 C 6.011719 44.578125 4.324219 46.269531 4.324219 48.351562 C 4.324219 50.4375 6.011719 52.125 8.097656 52.125 C 10.179688 52.125 11.875 50.4375 11.875 48.351562 C 11.875 46.269531 10.179688 44.578125 8.097656 44.578125 Z M 30.738281 44.578125 C 28.660156 44.578125 26.96875 46.269531 26.96875 48.351562 C 26.96875 50.4375 28.660156 52.125 30.738281 52.125 C 32.828125 52.125 34.511719 50.4375 34.511719 48.351562 C 34.511719 46.269531 32.828125 44.578125 30.738281 44.578125 Z M 30.738281 44.578125 "/>
</g>
</svg>
