<svg xmlns="http://www.w3.org/2000/svg" xmlns:xlink="http://www.w3.org/1999/xlink" width="64px" height="64px" viewBox="0 0 64 64" version="1.1">
<defs>
<linearGradient id="linear0" gradientUnits="userSpaceOnUse" x1="0" y1="0" x2="0" y2="1" gradientTransform="matrix(55.351351,0,0,50.927929,4.324324,6.536036)">
<stop offset="0" style="stop-color:#05f7ff;stop-opacity:1;"/>
<stop offset="0.5" style="stop-color:#dddddd;stop-opacity:1;"/>
<stop offset="1" style="stop-color:#e6ff05;stop-opacity:1;"/>
</linearGradient>
</defs>
<g id="surface1">
<path style=" stroke:none;fill-rule:evenodd;fill:url(#linear0);" d="M 11.773438 40.996094 C 11.402344 40.703125 11.039062 40.402344 10.6875 40.089844 C 9.835938 39.335938 9.066406 38.496094 8.394531 37.566406 C 7.800781 36.734375 7.335938 35.8125 6.988281 34.851562 C 6.6875 33.933594 6.511719 32.96875 6.511719 32 C 6.511719 31.03125 6.6875 30.066406 6.988281 29.136719 C 7.335938 28.1875 7.800781 27.265625 8.394531 26.433594 C 9.066406 25.503906 9.835938 24.664062 10.6875 23.910156 C 11.039062 23.59375 11.410156 23.292969 11.785156 23 C 11.890625 25.691406 12.351562 28.355469 13.117188 30.9375 C 13.21875 31.292969 13.335938 31.648438 13.457031 32 C 13.335938 32.351562 13.21875 32.707031 13.117188 33.0625 C 12.351562 35.644531 11.894531 38.300781 11.773438 40.996094 Z M 52.226562 23.003906 C 52.597656 23.296875 52.960938 23.597656 53.3125 23.910156 C 54.164062 24.664062 54.933594 25.503906 55.605469 26.433594 C 56.199219 27.265625 56.664062 28.1875 57.011719 29.148438 C 57.3125 30.066406 57.488281 31.03125 57.488281 32 C 57.488281 32.96875 57.3125 33.933594 57.011719 34.851562 C 56.664062 35.8125 56.199219 36.734375 55.605469 37.566406 C 54.933594 38.496094 54.164062 39.335938 53.3125 40.089844 C 52.960938 40.402344 52.597656 40.703125 52.226562 40.996094 C 52.105469 38.300781 51.648438 35.644531 50.882812 33.0625 C 50.78125 32.707031 50.664062 32.351562 50.542969 32 C 50.664062 31.648438 50.78125 31.292969 50.882812 30.9375 C 51.648438 28.355469 52.105469 25.699219 52.226562 23.003906 Z M 49.886719 18.972656 C 47.578125 17.769531 45.132812 16.855469 42.597656 16.242188 C 42.164062 16.132812 41.726562 16.03125 41.285156 15.941406 C 39.703125 14.1875 37.957031 12.59375 36.0625 11.179688 C 35.511719 10.761719 34.941406 10.367188 34.355469 9.996094 C 34.511719 9.921875 34.664062 9.863281 34.8125 9.800781 C 36.488281 9.117188 38.261719 8.761719 40.058594 8.726562 C 41.699219 8.714844 43.3125 9.132812 44.746094 9.929688 C 45.609375 10.429688 46.375 11.078125 47.023438 11.835938 C 47.703125 12.625 48.265625 13.53125 48.691406 14.5 C 49.160156 15.578125 49.511719 16.699219 49.710938 17.855469 C 49.785156 18.230469 49.839844 18.597656 49.886719 18.972656 Z M 22.714844 15.941406 C 22.273438 16.03125 21.835938 16.132812 21.402344 16.242188 C 18.867188 16.855469 16.421875 17.769531 14.113281 18.972656 C 14.160156 18.597656 14.214844 18.230469 14.289062 17.855469 C 14.488281 16.699219 14.839844 15.578125 15.308594 14.5 C 15.734375 13.53125 16.296875 12.625 16.976562 11.835938 C 17.625 11.078125 18.390625 10.429688 19.253906 9.929688 C 20.6875 9.132812 22.300781 8.714844 23.941406 8.726562 C 25.738281 8.761719 27.523438 9.117188 29.1875 9.800781 C 29.335938 9.863281 29.496094 9.921875 29.648438 10 C 29.0625 10.367188 28.488281 10.761719 27.9375 11.179688 C 26.042969 12.59375 24.296875 14.1875 22.714844 15.941406 Z M 26.402344 15.355469 C 28.253906 15.066406 30.125 14.949219 32 14.957031 C 33.875 14.949219 35.746094 15.066406 37.597656 15.355469 C 36.710938 14.484375 35.753906 13.679688 34.753906 12.921875 C 33.882812 12.269531 32.96875 11.675781 32 11.175781 C 31.03125 11.675781 30.117188 12.269531 29.246094 12.921875 C 28.246094 13.679688 27.289062 14.484375 26.402344 15.355469 Z M 41.285156 48.058594 C 41.726562 47.96875 42.164062 47.867188 42.597656 47.757812 C 45.132812 47.144531 47.578125 46.230469 49.886719 45.027344 C 49.839844 45.402344 49.785156 45.769531 49.710938 46.144531 C 49.511719 47.300781 49.160156 48.421875 48.691406 49.5 C 48.265625 50.46875 47.703125 51.375 47.023438 52.164062 C 46.375 52.921875 45.609375 53.570312 44.746094 54.070312 C 43.3125 54.867188 41.699219 55.285156 40.058594 55.273438 C 38.261719 55.238281 36.488281 54.882812 34.8125 54.199219 C 34.664062 54.136719 34.503906 54.078125 34.351562 54 C 34.9375 53.632812 35.511719 53.238281 36.0625 52.820312 C 37.957031 51.40625 39.703125 49.8125 41.285156 48.058594 Z M 37.597656 48.644531 C 35.746094 48.933594 33.875 49.050781 32 49.042969 C 30.125 49.050781 28.246094 48.933594 26.402344 48.644531 C 27.289062 49.515625 28.246094 50.320312 29.246094 51.078125 C 30.117188 51.730469 31.03125 52.324219 32 52.824219 C 32.96875 52.324219 33.882812 51.730469 34.753906 51.078125 C 35.753906 50.320312 36.710938 49.515625 37.597656 48.644531 Z M 14.113281 45.027344 C 16.421875 46.230469 18.867188 47.144531 21.402344 47.757812 C 21.835938 47.867188 22.273438 47.96875 22.714844 48.058594 C 24.296875 49.8125 26.042969 51.40625 27.9375 52.820312 C 28.488281 53.238281 29.0625 53.632812 29.648438 54 C 29.496094 54.078125 29.335938 54.136719 29.1875 54.199219 C 27.523438 54.882812 25.738281 55.238281 23.941406 55.273438 C 22.300781 55.285156 20.6875 54.867188 19.253906 54.070312 C 18.390625 53.570312 17.625 52.921875 16.976562 52.164062 C 16.296875 51.375 15.734375 50.46875 15.308594 49.5 C 14.839844 48.421875 14.488281 47.300781 14.289062 46.144531 C 14.214844 45.769531 14.160156 45.402344 14.113281 45.027344 Z M 13.941406 42.433594 C 15.96875 43.609375 18.132812 44.53125 20.367188 45.210938 C 19.21875 43.726562 18.179688 42.152344 17.242188 40.527344 C 16.285156 38.882812 15.441406 37.171875 14.753906 35.394531 C 14.234375 37.632812 13.949219 39.917969 13.9375 42.21875 C 13.9375 42.289062 13.9375 42.363281 13.941406 42.433594 Z M 20.367188 18.789062 C 18.132812 19.46875 15.96875 20.390625 13.941406 21.566406 C 13.9375 21.636719 13.9375 21.710938 13.9375 21.78125 C 13.949219 24.082031 14.234375 26.367188 14.753906 28.605469 C 15.441406 26.828125 16.285156 25.117188 17.242188 23.472656 C 18.179688 21.847656 19.21875 20.273438 20.367188 18.789062 Z M 23.875 17.929688 C 26.550781 17.40625 29.265625 17.136719 32 17.144531 C 34.734375 17.136719 37.449219 17.40625 40.125 17.929688 C 40.132812 17.933594 40.136719 17.933594 40.136719 17.933594 C 41.917969 19.988281 43.503906 22.207031 44.863281 24.582031 C 46.238281 26.933594 47.363281 29.421875 48.246094 32 C 47.363281 34.578125 46.238281 37.066406 44.863281 39.417969 C 43.503906 41.792969 41.917969 44.011719 40.136719 46.066406 C 40.136719 46.066406 40.132812 46.066406 40.125 46.070312 C 37.449219 46.59375 34.734375 46.863281 32 46.855469 C 29.265625 46.863281 26.550781 46.59375 23.875 46.070312 C 23.867188 46.066406 23.863281 46.066406 23.863281 46.066406 C 22.082031 44.011719 20.496094 41.792969 19.136719 39.417969 C 17.761719 37.066406 16.636719 34.578125 15.753906 32 C 16.636719 29.421875 17.761719 26.933594 19.136719 24.582031 C 20.496094 22.207031 22.082031 19.988281 23.863281 17.933594 C 23.863281 17.933594 23.867188 17.933594 23.875 17.929688 Z M 49.246094 35.394531 C 49.765625 37.632812 50.050781 39.917969 50.0625 42.21875 C 50.0625 42.289062 50.0625 42.363281 50.058594 42.433594 C 48.03125 43.609375 45.867188 44.53125 43.632812 45.210938 C 44.78125 43.726562 45.820312 42.152344 46.757812 40.527344 C 47.714844 38.882812 48.558594 37.171875 49.246094 35.394531 Z M 50.058594 21.566406 C 48.03125 20.390625 45.867188 19.46875 43.632812 18.789062 C 44.78125 20.273438 45.820312 21.847656 46.757812 23.472656 C 47.714844 25.117188 48.558594 26.828125 49.246094 28.605469 C 49.765625 26.367188 50.050781 24.082031 50.0625 21.78125 C 50.0625 21.710938 50.0625 21.636719 50.058594 21.566406 Z M 11.773438 43.664062 C 10.882812 43.085938 10.039062 42.4375 9.238281 41.738281 C 8.257812 40.878906 7.375 39.910156 6.621094 38.847656 C 5.894531 37.835938 5.335938 36.742188 4.917969 35.570312 C 4.527344 34.421875 4.324219 33.210938 4.324219 32 C 4.324219 30.789062 4.527344 29.578125 4.917969 28.429688 C 5.335938 27.257812 5.894531 26.164062 6.621094 25.152344 C 7.375 24.089844 8.257812 23.121094 9.238281 22.261719 C 10.039062 21.5625 10.886719 20.910156 11.785156 20.335938 C 11.835938 19.375 11.949219 18.410156 12.132812 17.457031 C 12.375 16.136719 12.765625 14.851562 13.308594 13.617188 C 13.808594 12.460938 14.488281 11.375 15.308594 10.40625 C 16.113281 9.460938 17.082031 8.652344 18.171875 8.027344 C 19.933594 7.039062 21.933594 6.511719 23.960938 6.539062 C 26.039062 6.566406 28.085938 6.984375 30 7.761719 C 30.679688 8.03125 31.351562 8.335938 32 8.664062 C 32.648438 8.335938 33.320312 8.03125 34 7.761719 C 35.914062 6.984375 37.960938 6.566406 40.027344 6.539062 C 42.058594 6.511719 44.066406 7.039062 45.828125 8.027344 C 46.917969 8.652344 47.886719 9.460938 48.691406 10.40625 C 49.511719 11.375 50.191406 12.460938 50.691406 13.617188 C 51.234375 14.851562 51.625 16.136719 51.867188 17.457031 C 52.050781 18.410156 52.164062 19.375 52.226562 20.335938 C 53.117188 20.914062 53.960938 21.5625 54.761719 22.261719 C 55.742188 23.121094 56.625 24.089844 57.378906 25.152344 C 58.105469 26.164062 58.664062 27.257812 59.082031 28.429688 C 59.472656 29.578125 59.675781 30.789062 59.675781 32 C 59.675781 33.210938 59.472656 34.421875 59.082031 35.570312 C 58.664062 36.742188 58.105469 37.835938 57.378906 38.847656 C 56.625 39.910156 55.742188 40.878906 54.761719 41.738281 C 53.960938 42.4375 53.117188 43.085938 52.226562 43.664062 C 52.164062 44.625 52.050781 45.589844 51.867188 46.542969 C 51.625 47.863281 51.234375 49.148438 50.691406 50.382812 C 50.191406 51.539062 49.511719 52.625 48.691406 53.59375 C 47.886719 54.539062 46.917969 55.347656 45.828125 55.972656 C 44.066406 56.960938 42.058594 57.488281 40.027344 57.460938 C 37.960938 57.433594 35.914062 57.015625 34 56.238281 C 33.320312 55.96875 32.648438 55.664062 32 55.335938 C 31.351562 55.664062 30.679688 55.96875 30 56.238281 C 28.085938 57.015625 26.039062 57.433594 23.972656 57.460938 C 21.941406 57.488281 19.933594 56.972656 18.171875 55.972656 C 17.082031 55.347656 16.113281 54.539062 15.308594 53.59375 C 14.488281 52.625 13.808594 51.539062 13.308594 50.382812 C 12.765625 49.148438 12.375 47.863281 12.132812 46.542969 C 11.949219 45.589844 11.835938 44.625 11.773438 43.664062 Z M 29.875 25.621094 C 32.875 25.621094 34.125 25.621094 34.125 27.746094 C 34.125 29.875 32.570312 29.875 29.875 29.875 Z M 29.875 32 C 34.125 32 36.253906 32 36.253906 35.1875 C 36.253906 38.378906 34.125 38.378906 29.875 38.378906 Z M 27.746094 19.242188 L 27.746094 23.488281 C 27.226562 23.511719 26.265625 23.488281 25.761719 23.488281 L 23.488281 23.488281 L 23.488281 25.621094 C 23.488281 25.621094 24.257812 25.589844 24.230469 25.621094 C 25.207031 25.609375 25.523438 26.3125 25.621094 26.789062 L 25.621094 37.3125 C 25.582031 37.613281 25.613281 38.363281 24.933594 38.378906 C 24.960938 38.40625 23.488281 38.378906 23.488281 38.378906 L 23.488281 40.511719 L 25.890625 40.511719 C 26.476562 40.488281 27.179688 40.511719 27.746094 40.511719 L 27.746094 44.757812 L 29.875 44.71875 L 29.875 40.511719 L 31.960938 40.511719 L 32.039062 44.757812 L 34.160156 44.757812 L 34.09375 40.511719 C 38.152344 40.210938 40.511719 39.726562 40.511719 35.1875 C 40.511719 32 38.375 30.9375 35.863281 30.9375 C 37.460938 30.8125 38.378906 29.875 38.378906 27.214844 C 37.808594 23.976562 37.011719 23.488281 34.125 23.488281 L 34.125 19.242188 L 32 19.242188 L 32 23.488281 C 31.363281 23.488281 30.515625 23.472656 29.875 23.488281 L 29.875 19.242188 Z M 27.746094 19.242188 "/>
</g>
</svg>
