<svg xmlns="http://www.w3.org/2000/svg" xmlns:xlink="http://www.w3.org/1999/xlink" width="64px" height="64px" viewBox="0 0 64 64" version="1.1">
<defs>
<linearGradient id="linear0" gradientUnits="userSpaceOnUse" x1="0" y1="0" x2="0" y2="1" gradientTransform="matrix(55.351351,0,0,50.909909,4.324324,6.545045)">
<stop offset="0" style="stop-color:#00fff2;stop-opacity:1;"/>
<stop offset="0.5" style="stop-color:#dddddd;stop-opacity:1;"/>
<stop offset="1" style="stop-color:#0062ff;stop-opacity:1;"/>
</linearGradient>
</defs>
<g id="surface1">
<path style=" stroke:none;fill-rule:nonzero;fill:url(#linear0);" d="M 24.265625 6.550781 C 22.089844 6.496094 20.015625 6.96875 18.164062 8.039062 C 14.164062 10.339844 12.113281 14.933594 11.800781 20.347656 C 7.269531 23.324219 4.324219 27.394531 4.324219 32.011719 C 4.324219 36.617188 7.269531 40.6875 11.800781 43.664062 C 12.113281 49.082031 14.171875 53.664062 18.164062 55.972656 C 22.160156 58.28125 27.160156 57.765625 32 55.328125 C 36.839844 57.765625 41.847656 58.28125 45.835938 55.972656 C 49.828125 53.664062 51.886719 49.082031 52.199219 43.664062 C 56.730469 40.6875 59.675781 36.617188 59.675781 32.011719 C 59.675781 27.394531 56.730469 23.320312 52.199219 20.347656 C 51.886719 14.933594 49.828125 10.339844 45.835938 8.039062 C 41.839844 5.734375 36.835938 6.242188 31.996094 8.6875 C 29.402344 7.378906 26.769531 6.605469 24.265625 6.550781 Z M 39.734375 8.734375 C 41.566406 8.6875 43.261719 9.078125 44.742188 9.9375 C 47.605469 11.585938 49.347656 14.800781 49.882812 18.988281 C 47.351562 17.664062 44.441406 16.636719 41.265625 15.949219 C 39.082031 13.542969 36.738281 11.539062 34.335938 10.011719 C 36.210938 9.21875 38.03125 8.78125 39.734375 8.734375 Z M 24.265625 8.734375 C 25.96875 8.78125 27.789062 9.21875 29.664062 10.011719 C 27.257812 11.539062 24.910156 13.542969 22.734375 15.949219 C 19.558594 16.636719 16.648438 17.664062 14.117188 18.988281 C 14.648438 14.800781 16.402344 11.585938 19.257812 9.9375 C 20.738281 9.078125 22.433594 8.6875 24.265625 8.734375 Z M 31.996094 11.148438 C 33.867188 12.207031 35.746094 13.613281 37.554688 15.300781 C 35.761719 15.082031 33.902344 14.960938 32 14.960938 C 30.097656 14.960938 28.238281 15.082031 26.441406 15.300781 C 28.246094 13.613281 30.125 12.207031 31.996094 11.148438 Z M 32 17.160156 C 34.839844 17.160156 37.566406 17.4375 40.117188 17.945312 C 41.828125 19.902344 43.441406 22.121094 44.863281 24.582031 C 46.285156 27.039062 47.394531 29.542969 48.234375 32.011719 C 47.394531 34.46875 46.285156 36.972656 44.863281 39.433594 C 43.441406 41.890625 41.835938 44.113281 40.117188 46.066406 C 37.566406 46.570312 34.839844 46.863281 32 46.863281 C 29.160156 46.863281 26.433594 46.570312 23.882812 46.066406 C 22.164062 44.113281 20.554688 41.890625 19.136719 39.433594 C 17.714844 36.972656 16.605469 34.46875 15.765625 32.011719 C 16.605469 29.542969 17.714844 27.039062 19.136719 24.582031 C 20.554688 22.121094 22.164062 19.902344 23.882812 17.945312 C 26.433594 17.4375 29.160156 17.160156 32 17.160156 Z M 20.3125 18.839844 C 19.21875 20.289062 18.191406 21.835938 17.238281 23.484375 C 16.289062 25.136719 15.460938 26.800781 14.757812 28.46875 C 14.199219 26.058594 13.917969 23.730469 13.9375 21.578125 C 15.789062 20.488281 17.945312 19.5625 20.3125 18.839844 Z M 43.6875 18.839844 C 46.054688 19.5625 48.207031 20.488281 50.0625 21.578125 C 50.082031 23.730469 49.800781 26.054688 49.242188 28.46875 C 48.539062 26.800781 47.710938 25.136719 46.761719 23.488281 C 45.808594 21.835938 44.773438 20.289062 43.6875 18.839844 Z M 27.851562 21.375 L 25.796875 30.402344 L 22.21875 30.941406 L 21.367188 34.132812 L 25.070312 33.570312 L 23.488281 40.511719 L 38.910156 40.511719 L 40.402344 36.257812 L 30.839844 36.257812 L 31.679688 32.566406 L 35.402344 32.011719 L 36.253906 28.8125 L 32.40625 29.394531 L 34.230469 21.375 Z M 52.214844 23.03125 C 55.570312 25.582031 57.484375 28.703125 57.484375 32.011719 C 57.484375 35.308594 55.570312 38.429688 52.214844 40.984375 C 52.09375 38.136719 51.527344 35.097656 50.539062 32.011719 C 51.527344 28.914062 52.09375 25.878906 52.214844 23.03125 Z M 11.78125 23.03125 C 11.90625 25.878906 12.472656 28.914062 13.460938 32.011719 C 12.472656 35.097656 11.90625 38.132812 11.78125 40.984375 C 8.429688 38.429688 6.515625 35.308594 6.515625 32.011719 C 6.515625 28.707031 8.429688 25.585938 11.78125 23.03125 Z M 14.757812 35.539062 C 15.460938 37.210938 16.289062 38.878906 17.238281 40.527344 C 18.191406 42.175781 19.21875 43.726562 20.3125 45.171875 C 17.945312 44.445312 15.789062 43.527344 13.9375 42.433594 C 13.917969 40.285156 14.199219 37.957031 14.757812 35.539062 Z M 49.242188 35.539062 C 49.800781 37.957031 50.082031 40.285156 50.0625 42.433594 C 48.207031 43.527344 46.054688 44.445312 43.6875 45.171875 C 44.773438 43.726562 45.808594 42.175781 46.757812 40.527344 C 47.707031 38.882812 48.539062 37.210938 49.242188 35.539062 Z M 14.117188 45.027344 C 16.648438 46.339844 19.558594 47.375 22.734375 48.0625 C 24.910156 50.460938 27.257812 52.46875 29.664062 54 C 25.769531 55.632812 22.117188 55.726562 19.257812 54.078125 C 16.402344 52.421875 14.648438 49.210938 14.117188 45.027344 Z M 49.882812 45.027344 C 49.347656 49.210938 47.597656 52.421875 44.742188 54.078125 C 41.882812 55.726562 38.226562 55.632812 34.335938 54 C 36.738281 52.46875 39.082031 50.460938 41.265625 48.0625 C 44.441406 47.375 47.351562 46.339844 49.882812 45.027344 Z M 26.445312 48.707031 C 28.238281 48.933594 30.097656 49.050781 32 49.050781 C 33.902344 49.050781 35.761719 48.933594 37.554688 48.707031 C 35.742188 50.402344 33.867188 51.808594 31.996094 52.863281 C 30.125 51.808594 28.253906 50.402344 26.445312 48.707031 Z M 26.445312 48.707031 "/>
</g>
</svg>
