<svg xmlns="http://www.w3.org/2000/svg" xmlns:xlink="http://www.w3.org/1999/xlink" width="64px" height="64px" viewBox="0 0 64 64" version="1.1">
<defs>
<linearGradient id="linear0" gradientUnits="userSpaceOnUse" x1="0" y1="0" x2="0" y2="1" gradientTransform="matrix(55.351351,0,0,55.351351,4.324324,4.324324)">
<stop offset="0" style="stop-color:#00a2ff;stop-opacity:1;"/>
<stop offset="0.5" style="stop-color:#dddddd;stop-opacity:1;"/>
<stop offset="1" style="stop-color:#00ffae;stop-opacity:1;"/>
</linearGradient>
</defs>
<g id="surface1">
<path style=" stroke:none;fill-rule:nonzero;fill:url(#linear0);" d="M 32 4.324219 C 16.714844 4.324219 4.324219 16.714844 4.324219 32 C 4.324219 47.285156 16.714844 59.675781 32 59.675781 C 47.285156 59.675781 59.675781 47.285156 59.675781 32 C 59.675781 16.714844 47.285156 4.324219 32 4.324219 Z M 32.011719 6.621094 L 32 6.632812 C 43.621094 6.632812 53.417969 14.4375 56.417969 25.09375 C 53.839844 30.433594 50.152344 35.234375 45.675781 39.121094 C 43.523438 40.988281 41.164062 42.648438 38.570312 43.8125 C 35.972656 44.988281 33.117188 45.652344 30.269531 45.488281 C 28.136719 45.363281 26.015625 44.769531 24.152344 43.730469 C 29.113281 41.039062 33.585938 37.460938 37.253906 33.171875 C 39.664062 30.351562 41.757812 27.148438 42.566406 23.539062 C 42.976562 21.730469 43.039062 19.839844 42.664062 18.027344 C 42.292969 16.210938 41.457031 14.488281 40.1875 13.136719 C 38.945312 11.820312 37.320312 10.882812 35.570312 10.40625 C 33.835938 9.921875 31.976562 9.886719 30.199219 10.210938 C 26.636719 10.863281 23.457031 12.929688 20.910156 15.496094 C 16.417969 20.023438 13.636719 26.414062 14.152344 32.769531 C 14.410156 35.949219 15.472656 39.070312 17.292969 41.6875 C 17.703125 42.269531 18.152344 42.828125 18.632812 43.351562 C 15.972656 44.289062 13.214844 44.949219 10.429688 45.324219 C 8.027344 41.449219 6.644531 36.882812 6.644531 31.996094 C 6.644531 17.976562 18 6.621094 32.011719 6.621094 Z M 32.164062 11.742188 L 32.160156 11.746094 C 33.945312 11.746094 35.738281 12.292969 37.164062 13.367188 C 38.445312 14.335938 39.394531 15.710938 39.933594 17.226562 C 40.46875 18.738281 40.609375 20.382812 40.421875 21.976562 C 40.058594 25.171875 38.449219 28.097656 36.503906 30.660156 C 33.058594 35.1875 28.476562 38.808594 23.382812 41.347656 C 22.863281 41.605469 22.335938 41.851562 21.800781 42.089844 C 20.699219 41.121094 19.746094 39.972656 19.023438 38.6875 C 17.511719 36.011719 17.011719 32.828125 17.300781 29.765625 C 17.597656 26.703125 18.644531 23.753906 20.058594 21.015625 C 21.691406 17.851562 23.929688 14.851562 27.050781 13.125 C 28.613281 12.261719 30.378906 11.742188 32.164062 11.742188 Z M 57.144531 28.609375 C 57.289062 29.714844 57.367188 30.839844 57.367188 31.988281 C 57.367188 46.003906 46.015625 57.363281 32.003906 57.363281 C 24.136719 57.363281 17.097656 53.78125 12.457031 48.160156 C 15.324219 47.503906 18.132812 46.566406 20.824219 45.375 C 22.003906 46.265625 23.308594 47.003906 24.6875 47.53125 C 28.664062 49.058594 33.1875 48.835938 37.214844 47.441406 C 41.242188 46.042969 44.820312 43.550781 47.933594 40.632812 C 51.636719 37.171875 54.761719 33.085938 57.144531 28.609375 Z M 57.144531 28.609375 "/>
</g>
</svg>
