<svg xmlns="http://www.w3.org/2000/svg" xmlns:xlink="http://www.w3.org/1999/xlink" width="64px" height="64px" viewBox="0 0 64 64" version="1.1">
<defs>
<linearGradient id="linear0" gradientUnits="userSpaceOnUse" x1="0" y1="0" x2="0" y2="1" gradientTransform="matrix(55.351351,0,0,55.351351,4.324324,4.324324)">
<stop offset="0" style="stop-color:#ff8963;stop-opacity:1;"/>
<stop offset="0.5" style="stop-color:#dddddd;stop-opacity:1;"/>
<stop offset="1" style="stop-color:#0F6FFF;stop-opacity:1;"/>
</linearGradient>
</defs>
<g id="surface1">
<path style=" stroke:none;fill-rule:evenodd;fill:url(#linear0);" d="M 27.058594 41.882812 L 15.226562 41.882812 L 15.226562 53.746094 L 10.253906 53.746094 L 10.253906 25.082031 L 15.171875 25.082031 L 15.171875 36.941406 L 27.058594 36.941406 L 27.058594 25.082031 L 32 25.082031 L 32 53.746094 L 27.058594 53.746094 Z M 59.675781 56.910156 L 59.675781 7.089844 C 59.675781 5.566406 58.433594 4.324219 56.910156 4.324219 L 7.089844 4.324219 C 5.566406 4.324219 4.324219 5.566406 4.324219 7.089844 L 4.324219 56.910156 C 4.324219 58.4375 5.566406 59.675781 7.089844 59.675781 L 56.910156 59.675781 C 58.433594 59.675781 59.675781 58.4375 59.675781 56.910156 Z M 52.757812 8.28125 L 52.757812 11.242188 L 49.792969 11.242188 L 49.792969 14.207031 L 52.757812 14.207031 L 52.757812 25.082031 L 55.71875 25.082031 L 55.71875 8.28125 Z M 52.757812 8.28125 "/>
</g>
</svg>
