<svg xmlns="http://www.w3.org/2000/svg" xmlns:xlink="http://www.w3.org/1999/xlink" width="64px" height="64px" viewBox="0 0 64 64" version="1.1">
<defs>
<linearGradient id="linear0" gradientUnits="userSpaceOnUse" x1="0" y1="0" x2="0" y2="1" gradientTransform="matrix(55.351351,0,0,55.351351,4.324324,4.324324)">
<stop offset="0" style="stop-color:#ffae00;stop-opacity:1;"/>
<stop offset="0.5" style="stop-color:#dddddd;stop-opacity:1;"/>
<stop offset="1" style="stop-color:#bf1d1d;stop-opacity:1;"/>
</linearGradient>
</defs>
<g id="surface1">
<path style=" stroke:none;fill-rule:nonzero;fill:url(#linear0);" d="M 32 4.324219 C 16.738281 4.324219 4.324219 16.738281 4.324219 32 C 4.324219 47.261719 16.738281 59.675781 32 59.675781 C 47.261719 59.675781 59.675781 47.261719 59.675781 32 C 59.675781 16.738281 47.261719 4.324219 32 4.324219 Z M 32 7.785156 C 32.082031 7.785156 32.160156 7.796875 32.238281 7.796875 C 33.410156 7.8125 34.554688 7.921875 35.679688 8.09375 C 47.320312 9.867188 56.214844 19.863281 56.214844 32 C 56.214844 33.070312 56.125 34.117188 55.996094 35.148438 C 54.769531 34.960938 53.585938 34.664062 52.433594 34.300781 L 53.675781 31.085938 L 50.449219 29.835938 L 49.207031 33.039062 C 46.4375 31.710938 43.96875 29.875 41.90625 27.648438 L 44.542969 25.515625 L 42.378906 22.835938 L 39.734375 24.960938 C 38.027344 22.488281 36.785156 19.679688 36.09375 16.652344 L 39.421875 16.136719 L 38.894531 12.726562 L 35.542969 13.242188 C 35.496094 12.582031 35.460938 11.917969 35.460938 11.242188 C 35.460938 10.171875 35.550781 9.125 35.679688 8.09375 C 34.554688 7.921875 33.410156 7.8125 32.238281 7.796875 C 32.09375 8.929688 32 10.070312 32 11.242188 C 32 12.09375 32.039062 12.9375 32.113281 13.769531 L 28.644531 14.3125 L 29.164062 17.730469 L 32.671875 17.1875 C 33.46875 20.820312 34.972656 24.1875 37.050781 27.132812 L 34.296875 29.335938 L 36.460938 32.027344 L 39.214844 29.8125 C 41.664062 32.5 44.625 34.707031 47.960938 36.269531 L 46.703125 39.511719 L 49.929688 40.761719 L 51.1875 37.527344 C 52.515625 37.960938 53.882812 38.3125 55.296875 38.539062 C 55.597656 37.449219 55.835938 36.335938 55.988281 35.1875 C 55.835938 36.335938 55.605469 37.449219 55.296875 38.539062 C 52.445312 48.742188 43.125 56.214844 32 56.214844 C 31.800781 56.214844 31.613281 56.191406 31.417969 56.1875 C 31.660156 54.257812 31.644531 52.269531 31.460938 50.265625 L 35.003906 49.714844 L 34.472656 46.296875 L 30.988281 46.835938 C 30.179688 43.171875 28.652344 39.828125 26.59375 36.914062 L 29.351562 34.699219 L 27.1875 32 L 24.402344 34.238281 C 21.9375 31.539062 18.976562 29.355469 15.671875 27.808594 L 16.945312 24.511719 L 13.714844 23.265625 L 12.460938 26.5 C 11.234375 26.097656 9.972656 25.757812 8.679688 25.539062 C 8.378906 26.632812 8.148438 27.757812 8 28.914062 C 9.097656 29.09375 10.164062 29.386719 11.214844 29.714844 L 9.96875 32.941406 L 13.191406 34.1875 L 14.433594 30.996094 C 17.1875 32.3125 19.648438 34.152344 21.726562 36.390625 L 19.09375 38.511719 L 21.265625 41.203125 L 23.894531 39.082031 C 25.585938 41.527344 26.800781 44.328125 27.5 47.378906 L 24.214844 47.890625 L 24.753906 51.3125 L 28.050781 50.796875 C 28.1875 52.511719 28.1875 54.207031 27.976562 55.855469 C 16.511719 53.945312 7.785156 44.023438 7.785156 32 C 7.785156 30.949219 7.867188 29.921875 8 28.914062 C 8.148438 27.757812 8.378906 26.632812 8.679688 25.539062 C 11.511719 15.292969 20.847656 7.785156 32 7.785156 Z M 28.003906 55.855469 C 29.113281 56.039062 30.234375 56.164062 31.382812 56.1875 C 30.234375 56.164062 29.113281 56.039062 28.003906 55.855469 Z M 28.003906 55.855469 "/>
</g>
</svg>
