<svg xmlns="http://www.w3.org/2000/svg" xmlns:xlink="http://www.w3.org/1999/xlink" width="64px" height="64px" viewBox="0 0 64 64" version="1.1">
<defs>
<linearGradient id="linear0" gradientUnits="userSpaceOnUse" x1="0" y1="0" x2="0" y2="1" gradientTransform="matrix(38.054054,0,0,55.355858,14.702703,4.324324)">
<stop offset="0" style="stop-color:#00a2ff;stop-opacity:1;"/>
<stop offset="0.5" style="stop-color:#dddddd;stop-opacity:1;"/>
<stop offset="1" style="stop-color:#00ffae;stop-opacity:1;"/>
</linearGradient>
</defs>
<g id="surface1">
<path style=" stroke:none;fill-rule:nonzero;fill:url(#linear0);" d="M 33.761719 4.324219 C 29.28125 4.3125 24.9375 5.761719 21.5 8.40625 C 14.429688 13.847656 12.636719 23.160156 17.246094 30.488281 C 19.90625 34.117188 25.082031 37.6875 25.082031 42.378906 L 25.09375 42.378906 C 25.09375 42.378906 25.089844 46.121094 25.085938 49.296875 L 25.085938 52.757812 C 25.085938 54.070312 25.089844 55.484375 25.085938 56.039062 C 24.957031 57.878906 26.515625 59.621094 28.375 59.664062 C 31.828125 59.671875 35.285156 59.664062 38.742188 59.671875 C 40.585938 59.800781 42.328125 58.242188 42.375 56.390625 C 42.382812 54.085938 42.375 44.6875 42.378906 42.378906 C 42.378906 37.6875 47.554688 34.117188 50.210938 30.488281 C 54.824219 23.160156 53.03125 13.847656 45.960938 8.40625 C 42.539062 5.773438 38.226562 4.335938 33.761719 4.324219 Z M 33.730469 7.488281 C 42.328125 7.488281 49.296875 13.882812 49.296875 21.761719 C 49.285156 24.375 48.488281 26.929688 47.011719 29.160156 C 45.238281 31.824219 38.742188 36.960938 38.917969 42.378906 L 28.539062 42.378906 C 28.71875 36.90625 22.042969 31.6875 20.363281 29.050781 C 18.929688 26.847656 18.164062 24.328125 18.164062 21.761719 C 18.164062 13.882812 25.132812 7.488281 33.730469 7.488281 Z M 28.515625 23.355469 C 28.078125 23.363281 27.636719 23.527344 27.296875 23.863281 C 26.621094 24.539062 26.621094 25.636719 27.296875 26.3125 C 27.929688 26.941406 31.042969 29.09375 32 28.8125 L 32 38.917969 L 35.460938 38.917969 L 35.460938 28.824219 C 36.457031 29.039062 39.496094 26.9375 40.121094 26.3125 C 40.796875 25.636719 40.796875 24.539062 40.121094 23.863281 C 39.445312 23.1875 38.351562 23.1875 37.675781 23.863281 C 37.050781 24.488281 34.929688 27.558594 35.164062 28.539062 L 32.257812 28.539062 C 32.496094 27.5625 30.367188 24.488281 29.742188 23.863281 C 29.40625 23.527344 28.960938 23.355469 28.515625 23.355469 Z M 28.539062 45.835938 L 38.917969 45.835938 L 38.917969 56.214844 L 28.539062 56.214844 L 28.539062 52.757812 L 33.734375 52.757812 L 33.734375 49.296875 L 28.539062 49.296875 Z M 28.539062 45.835938 "/>
</g>
</svg>
