<svg xmlns="http://www.w3.org/2000/svg" xmlns:xlink="http://www.w3.org/1999/xlink" width="64px" height="64px" viewBox="0 0 64 64" version="1.1">
<defs>
<linearGradient id="linear0" gradientUnits="userSpaceOnUse" x1="0" y1="0" x2="0" y2="1" gradientTransform="matrix(41.513514,0,0,55.351351,11.243243,4.324324)">
<stop offset="0" style="stop-color:#ffae00;stop-opacity:1;"/>
<stop offset="0.5" style="stop-color:#dddddd;stop-opacity:1;"/>
<stop offset="1" style="stop-color:#bf1d1d;stop-opacity:1;"/>
</linearGradient>
</defs>
<g id="surface1">
<path style=" stroke:none;fill-rule:nonzero;fill:url(#linear0);" d="M 32 4.324219 C 22.445312 4.324219 14.703125 12.066406 14.703125 21.621094 L 14.703125 28.539062 L 11.242188 28.539062 L 11.242188 59.675781 L 52.757812 59.675781 L 52.757812 28.539062 L 49.296875 28.539062 L 49.296875 21.621094 C 49.296875 12.066406 41.554688 4.324219 32 4.324219 Z M 32 7.785156 C 39.6875 7.785156 45.835938 13.9375 45.835938 21.621094 L 45.835938 28.539062 L 18.164062 28.539062 L 18.164062 21.621094 C 18.164062 13.9375 24.3125 7.785156 32 7.785156 Z M 14.703125 32 L 49.296875 32 L 49.296875 56.214844 L 14.703125 56.214844 Z M 35.460938 38.054688 L 28.539062 38.917969 L 28.539062 49.296875 L 35.460938 49.296875 Z M 35.460938 38.054688 "/>
</g>
</svg>
