<svg xmlns="http://www.w3.org/2000/svg" xmlns:xlink="http://www.w3.org/1999/xlink" width="64px" height="64px" viewBox="0 0 64 64" version="1.1">
<defs>
<linearGradient id="linear0" gradientUnits="userSpaceOnUse" x1="0" y1="0" x2="0" y2="1" gradientTransform="matrix(55.351351,0,0,46.666666,4.324324,8.666666)">
<stop offset="0" style="stop-color:#05f7ff;stop-opacity:1;"/>
<stop offset="0.5" style="stop-color:#dddddd;stop-opacity:1;"/>
<stop offset="1" style="stop-color:#e6ff05;stop-opacity:1;"/>
</linearGradient>
</defs>
<g id="surface1">
<path style=" stroke:none;fill-rule:evenodd;fill:url(#linear0);" d="M 13.011719 44.050781 L 13.011719 19.949219 C 14.9375 18.960938 16.261719 16.949219 16.261719 14.636719 C 16.261719 11.339844 13.589844 8.664062 10.292969 8.664062 C 7 8.664062 4.324219 11.339844 4.324219 14.636719 C 4.324219 16.949219 5.648438 18.960938 7.582031 19.957031 L 7.582031 44.042969 C 5.648438 45.039062 4.324219 47.050781 4.324219 49.363281 C 4.324219 52.660156 7 55.335938 10.292969 55.335938 C 12.613281 55.335938 14.621094 54.011719 15.613281 52.078125 L 48.386719 52.078125 C 49.378906 54.011719 51.386719 55.335938 53.707031 55.335938 C 57 55.335938 59.675781 52.660156 59.675781 49.363281 C 59.675781 46.066406 57 43.394531 53.707031 43.394531 C 51.390625 43.394531 49.378906 44.71875 48.390625 46.648438 L 15.609375 46.648438 C 15.039062 45.53125 14.125 44.621094 13.011719 44.050781 Z M 26.527344 38.753906 C 27.191406 38.582031 27.863281 38.410156 28.527344 38.238281 C 30.296875 37.808594 32.050781 37.292969 33.765625 36.675781 C 34.761719 37.496094 36.039062 37.96875 37.429688 37.96875 C 40.523438 37.96875 43.066406 35.613281 43.355469 32.589844 C 44.378906 31.960938 45.335938 31.226562 46.207031 30.394531 C 47.109375 29.488281 47.917969 28.515625 48.636719 27.460938 C 48.988281 26.96875 49.324219 26.476562 49.664062 25.976562 C 49.917969 26.011719 50.1875 26.03125 50.449219 26.03125 C 53.746094 26.03125 56.417969 23.355469 56.417969 20.0625 C 56.417969 16.765625 53.746094 14.09375 50.449219 14.09375 C 47.160156 14.09375 44.484375 16.765625 44.484375 20.0625 C 44.484375 21.078125 44.734375 22.03125 45.230469 22.851562 C 44.886719 23.363281 44.539062 23.863281 44.1875 24.375 C 43.664062 25.132812 43.070312 25.847656 42.417969 26.511719 C 42.050781 26.863281 41.652344 27.175781 41.261719 27.5 C 40.257812 26.566406 38.90625 26.03125 37.429688 26.03125 C 34.203125 26.03125 31.570312 28.59375 31.46875 31.792969 C 30.0625 32.21875 28.644531 32.632812 27.210938 32.976562 C 26.886719 33.0625 26.558594 33.144531 26.230469 33.230469 C 25.1875 31.511719 23.296875 30.367188 21.148438 30.367188 C 17.851562 30.367188 15.175781 33.050781 15.175781 36.339844 C 15.175781 39.636719 17.851562 42.3125 21.148438 42.3125 C 23.566406 42.3125 25.660156 40.863281 26.527344 38.753906 Z M 26.527344 38.753906 "/>
</g>
</svg>
