<svg xmlns="http://www.w3.org/2000/svg" xmlns:xlink="http://www.w3.org/1999/xlink" width="64px" height="64px" viewBox="0 0 64 64" version="1.1">
<g id="surface1">
<path style=" stroke:none;fill-rule:nonzero;fill:rgb(21.960784%,21.960784%,21.960784%);fill-opacity:1;" d="M 32 8.648438 C 44.894531 8.648438 55.351562 19.105469 55.351562 32 C 55.351562 44.894531 44.894531 55.351562 32 55.351562 C 19.105469 55.351562 8.648438 44.894531 8.648438 32 C 8.648438 19.105469 19.105469 8.648438 32 8.648438 Z M 32 8.648438 "/>
<path style=" stroke:none;fill-rule:nonzero;fill:rgb(89.411765%,78.431374%,18.431373%);fill-opacity:1;" d="M 23.382812 40.65625 L 28.511719 40.65625 C 28.527344 40.65625 28.539062 40.664062 28.539062 40.664062 L 28.539062 43.242188 C 28.539062 43.242188 28.527344 43.25 28.511719 43.25 L 23.382812 43.25 C 23.367188 43.25 23.355469 43.242188 23.355469 43.242188 L 23.355469 40.664062 C 23.355469 40.664062 23.367188 40.65625 23.382812 40.65625 "/>
<path style=" stroke:none;fill-rule:nonzero;fill:rgb(89.411765%,78.431374%,18.431373%);fill-opacity:0.902;" d="M 23.382812 37.183594 L 28.511719 37.183594 C 28.527344 37.183594 28.539062 37.1875 28.539062 37.1875 L 28.539062 39.765625 C 28.539062 39.765625 28.527344 39.773438 28.511719 39.773438 L 23.382812 39.773438 C 23.367188 39.773438 23.355469 39.765625 23.355469 39.765625 L 23.355469 37.1875 C 23.355469 37.1875 23.367188 37.183594 23.382812 37.183594 "/>
<path style=" stroke:none;fill-rule:nonzero;fill:rgb(89.411765%,78.431374%,18.431373%);fill-opacity:0.8;" d="M 23.382812 33.703125 L 28.511719 33.703125 C 28.527344 33.703125 28.539062 33.703125 28.539062 33.710938 L 28.539062 36.257812 C 28.539062 36.261719 28.527344 36.261719 28.511719 36.261719 L 23.382812 36.261719 C 23.367188 36.261719 23.355469 36.261719 23.355469 36.257812 L 23.355469 33.710938 C 23.355469 33.703125 23.367188 33.703125 23.382812 33.703125 "/>
<path style=" stroke:none;fill-rule:nonzero;fill:rgb(89.411765%,78.431374%,18.431373%);fill-opacity:0.702;" d="M 23.382812 30.28125 L 28.511719 30.28125 C 28.527344 30.28125 28.539062 30.285156 28.539062 30.285156 L 28.539062 32.816406 C 28.539062 32.816406 28.527344 32.820312 28.511719 32.820312 L 23.382812 32.820312 C 23.367188 32.820312 23.355469 32.816406 23.355469 32.816406 L 23.355469 30.285156 C 23.355469 30.285156 23.367188 30.28125 23.382812 30.28125 "/>
<path style=" stroke:none;fill-rule:nonzero;fill:rgb(89.411765%,78.431374%,18.431373%);fill-opacity:0.6;" d="M 23.382812 26.820312 L 28.511719 26.820312 C 28.527344 26.820312 28.539062 26.820312 28.539062 26.828125 L 28.539062 29.339844 C 28.539062 29.339844 28.527344 29.347656 28.511719 29.347656 L 23.382812 29.347656 C 23.367188 29.347656 23.355469 29.339844 23.355469 29.339844 L 23.355469 26.828125 C 23.355469 26.820312 23.367188 26.820312 23.382812 26.820312 "/>
<path style=" stroke:none;fill-rule:nonzero;fill:rgb(24.313726%,55.29412%,92.941177%);fill-opacity:1;" d="M 35.488281 40.667969 L 40.621094 40.667969 C 40.636719 40.667969 40.644531 40.667969 40.644531 40.675781 L 40.644531 43.238281 C 40.644531 43.238281 40.636719 43.242188 40.621094 43.242188 L 35.488281 43.242188 C 35.472656 43.242188 35.460938 43.238281 35.460938 43.238281 L 35.460938 40.675781 C 35.460938 40.667969 35.472656 40.667969 35.488281 40.667969 "/>
<path style=" stroke:none;fill-rule:nonzero;fill:rgb(24.313726%,55.29412%,92.941177%);fill-opacity:0.902;" d="M 35.488281 37.226562 L 40.621094 37.226562 C 40.636719 37.226562 40.644531 37.234375 40.644531 37.234375 L 40.644531 39.78125 C 40.644531 39.785156 40.636719 39.785156 40.621094 39.785156 L 35.488281 39.785156 C 35.472656 39.785156 35.460938 39.785156 35.460938 39.78125 L 35.460938 37.234375 C 35.460938 37.234375 35.472656 37.226562 35.488281 37.226562 "/>
<path style=" stroke:none;fill-rule:nonzero;fill:rgb(24.313726%,55.29412%,92.941177%);fill-opacity:0.8;" d="M 35.488281 33.742188 L 40.621094 33.742188 C 40.636719 33.742188 40.644531 33.75 40.644531 33.75 L 40.644531 36.285156 C 40.644531 36.285156 40.636719 36.289062 40.621094 36.289062 L 35.488281 36.289062 C 35.472656 36.289062 35.460938 36.285156 35.460938 36.285156 L 35.460938 33.75 C 35.460938 33.75 35.472656 33.742188 35.488281 33.742188 "/>
<path style=" stroke:none;fill-rule:nonzero;fill:rgb(24.313726%,55.29412%,92.941177%);fill-opacity:0.702;" d="M 35.488281 30.34375 L 40.621094 30.34375 C 40.636719 30.34375 40.644531 30.34375 40.644531 30.351562 L 40.644531 32.863281 C 40.644531 32.863281 40.636719 32.871094 40.621094 32.871094 L 35.488281 32.871094 C 35.472656 32.871094 35.460938 32.863281 35.460938 32.863281 L 35.460938 30.351562 C 35.460938 30.34375 35.472656 30.34375 35.488281 30.34375 "/>
<path style=" stroke:none;fill-rule:nonzero;fill:rgb(24.313726%,55.29412%,92.941177%);fill-opacity:0.6;" d="M 35.488281 26.898438 L 40.621094 26.898438 C 40.636719 26.898438 40.644531 26.90625 40.644531 26.90625 L 40.644531 29.402344 C 40.644531 29.40625 40.636719 29.40625 40.621094 29.40625 L 35.488281 29.40625 C 35.472656 29.40625 35.460938 29.40625 35.460938 29.402344 L 35.460938 26.90625 C 35.460938 26.90625 35.472656 26.898438 35.488281 26.898438 "/>
<path style=" stroke:none;fill-rule:nonzero;fill:rgb(24.313726%,55.29412%,92.941177%);fill-opacity:0.502;" d="M 35.488281 23.351562 L 40.621094 23.351562 C 40.636719 23.351562 40.644531 23.359375 40.644531 23.359375 L 40.644531 25.9375 C 40.644531 25.941406 40.636719 25.941406 40.621094 25.941406 L 35.488281 25.941406 C 35.472656 25.941406 35.460938 25.941406 35.460938 25.9375 L 35.460938 23.359375 C 35.460938 23.359375 35.472656 23.351562 35.488281 23.351562 "/>
<path style=" stroke:none;fill-rule:nonzero;fill:rgb(85.882354%,30.19608%,85.882354%);fill-opacity:1;" d="M 41.539062 40.65625 L 46.675781 40.65625 C 46.6875 40.65625 46.699219 40.664062 46.699219 40.664062 L 46.699219 43.242188 C 46.699219 43.242188 46.6875 43.25 46.675781 43.25 L 41.539062 43.25 C 41.527344 43.25 41.515625 43.242188 41.515625 43.242188 L 41.515625 40.664062 C 41.515625 40.664062 41.527344 40.65625 41.539062 40.65625 "/>
<path style=" stroke:none;fill-rule:nonzero;fill:rgb(85.882354%,30.19608%,85.882354%);fill-opacity:0.902;" d="M 41.539062 37.203125 L 46.675781 37.203125 C 46.6875 37.203125 46.699219 37.203125 46.699219 37.207031 L 46.699219 39.773438 C 46.699219 39.773438 46.6875 39.777344 46.675781 39.777344 L 41.539062 39.777344 C 41.527344 39.777344 41.515625 39.773438 41.515625 39.773438 L 41.515625 37.207031 C 41.515625 37.203125 41.527344 37.203125 41.539062 37.203125 "/>
<path style=" stroke:none;fill-rule:nonzero;fill:rgb(85.882354%,30.19608%,85.882354%);fill-opacity:0.8;" d="M 41.539062 33.703125 L 46.675781 33.703125 C 46.6875 33.703125 46.699219 33.703125 46.699219 33.710938 L 46.699219 36.257812 C 46.699219 36.261719 46.6875 36.261719 46.675781 36.261719 L 41.539062 36.261719 C 41.527344 36.261719 41.515625 36.261719 41.515625 36.257812 L 41.515625 33.710938 C 41.515625 33.703125 41.527344 33.703125 41.539062 33.703125 "/>
<path style=" stroke:none;fill-rule:nonzero;fill:rgb(85.882354%,30.19608%,85.882354%);fill-opacity:0.702;" d="M 41.539062 30.28125 L 46.675781 30.28125 C 46.6875 30.28125 46.699219 30.285156 46.699219 30.285156 L 46.699219 32.816406 C 46.699219 32.816406 46.6875 32.820312 46.675781 32.820312 L 41.539062 32.820312 C 41.527344 32.820312 41.515625 32.816406 41.515625 32.816406 L 41.515625 30.285156 C 41.515625 30.285156 41.527344 30.28125 41.539062 30.28125 "/>
<path style=" stroke:none;fill-rule:nonzero;fill:rgb(85.882354%,30.19608%,85.882354%);fill-opacity:0.6;" d="M 41.539062 26.820312 L 46.675781 26.820312 C 46.6875 26.820312 46.699219 26.820312 46.699219 26.828125 L 46.699219 29.339844 C 46.699219 29.339844 46.6875 29.347656 46.675781 29.347656 L 41.539062 29.347656 C 41.527344 29.347656 41.515625 29.339844 41.515625 29.339844 L 41.515625 26.828125 C 41.515625 26.820312 41.527344 26.820312 41.539062 26.820312 "/>
<path style=" stroke:none;fill-rule:nonzero;fill:rgb(49.803922%,81.176472%,35.686275%);fill-opacity:1;" d="M 29.4375 40.65625 L 34.5625 40.65625 C 34.582031 40.65625 34.589844 40.664062 34.589844 40.664062 L 34.589844 43.242188 C 34.589844 43.242188 34.582031 43.25 34.5625 43.25 L 29.4375 43.25 C 29.421875 43.25 29.410156 43.242188 29.410156 43.242188 L 29.410156 40.664062 C 29.410156 40.664062 29.421875 40.65625 29.4375 40.65625 "/>
<path style=" stroke:none;fill-rule:nonzero;fill:rgb(49.803922%,81.176472%,35.686275%);fill-opacity:0.902;" d="M 29.4375 37.203125 L 34.5625 37.203125 C 34.582031 37.203125 34.589844 37.203125 34.589844 37.207031 L 34.589844 39.773438 C 34.589844 39.773438 34.582031 39.777344 34.5625 39.777344 L 29.4375 39.777344 C 29.421875 39.777344 29.410156 39.773438 29.410156 39.773438 L 29.410156 37.207031 C 29.410156 37.203125 29.421875 37.203125 29.4375 37.203125 "/>
<path style=" stroke:none;fill-rule:nonzero;fill:rgb(49.803922%,81.176472%,35.686275%);fill-opacity:0.8;" d="M 29.4375 33.703125 L 34.5625 33.703125 C 34.582031 33.703125 34.589844 33.703125 34.589844 33.710938 L 34.589844 36.257812 C 34.589844 36.261719 34.582031 36.261719 34.5625 36.261719 L 29.4375 36.261719 C 29.421875 36.261719 29.410156 36.261719 29.410156 36.257812 L 29.410156 33.710938 C 29.410156 33.703125 29.421875 33.703125 29.4375 33.703125 "/>
<path style=" stroke:none;fill-rule:nonzero;fill:rgb(77.254903%,18.431373%,18.431373%);fill-opacity:1;" d="M 17.328125 40.65625 L 22.457031 40.65625 C 22.472656 40.65625 22.484375 40.664062 22.484375 40.664062 L 22.484375 43.242188 C 22.484375 43.242188 22.472656 43.25 22.457031 43.25 L 17.328125 43.25 C 17.3125 43.25 17.300781 43.242188 17.300781 43.242188 L 17.300781 40.664062 C 17.300781 40.664062 17.3125 40.65625 17.328125 40.65625 "/>
<path style=" stroke:none;fill-rule:nonzero;fill:rgb(77.254903%,18.431373%,18.431373%);fill-opacity:0.902;" d="M 17.328125 37.226562 L 22.457031 37.226562 C 22.472656 37.226562 22.484375 37.234375 22.484375 37.234375 L 22.484375 39.785156 L 17.300781 39.785156 L 17.300781 37.234375 C 17.300781 37.234375 17.3125 37.226562 17.328125 37.226562 "/>
<path style=" stroke:none;fill-rule:nonzero;fill:rgb(77.254903%,18.431373%,18.431373%);fill-opacity:0.8;" d="M 17.328125 33.730469 L 22.484375 33.730469 L 22.484375 36.265625 C 22.484375 36.269531 22.472656 36.269531 22.457031 36.269531 L 17.328125 36.269531 C 17.3125 36.269531 17.300781 36.269531 17.300781 36.265625 L 17.300781 33.730469 L 17.328125 33.730469 "/>
<path style=" stroke:none;fill-rule:nonzero;fill:rgb(77.254903%,18.431373%,18.431373%);fill-opacity:0.702;" d="M 17.328125 30.34375 L 22.457031 30.34375 C 22.472656 30.34375 22.484375 30.34375 22.484375 30.351562 L 22.484375 32.863281 C 22.484375 32.863281 22.472656 32.871094 22.457031 32.871094 L 17.328125 32.871094 C 17.3125 32.871094 17.300781 32.863281 17.300781 32.863281 L 17.300781 30.351562 C 17.300781 30.34375 17.3125 30.34375 17.328125 30.34375 "/>
<path style=" stroke:none;fill-rule:nonzero;fill:rgb(77.254903%,18.431373%,18.431373%);fill-opacity:0.6;" d="M 17.328125 26.898438 L 22.457031 26.898438 C 22.472656 26.898438 22.484375 26.90625 22.484375 26.90625 L 22.484375 29.40625 L 17.300781 29.40625 L 17.300781 26.90625 C 17.300781 26.90625 17.3125 26.898438 17.328125 26.898438 "/>
<path style=" stroke:none;fill-rule:nonzero;fill:rgb(77.254903%,18.431373%,18.431373%);fill-opacity:0.502;" d="M 17.328125 23.351562 L 22.457031 23.351562 C 22.472656 23.351562 22.484375 23.351562 22.484375 23.359375 L 22.484375 25.933594 C 22.484375 25.9375 22.472656 25.9375 22.457031 25.9375 L 17.328125 25.9375 C 17.3125 25.9375 17.300781 25.9375 17.300781 25.933594 L 17.300781 23.359375 C 17.300781 23.351562 17.3125 23.351562 17.328125 23.351562 "/>
<path style=" stroke:none;fill-rule:nonzero;fill:rgb(77.254903%,18.431373%,18.431373%);fill-opacity:0.4;" d="M 17.328125 19.898438 L 22.457031 19.898438 C 22.472656 19.898438 22.484375 19.90625 22.484375 19.90625 L 22.484375 22.488281 C 22.484375 22.488281 22.472656 22.492188 22.457031 22.492188 L 17.328125 22.492188 C 17.3125 22.492188 17.300781 22.488281 17.300781 22.488281 L 17.300781 19.90625 C 17.300781 19.90625 17.3125 19.898438 17.328125 19.898438 "/>
</g>
</svg>
