<svg xmlns="http://www.w3.org/2000/svg" xmlns:xlink="http://www.w3.org/1999/xlink" width="64px" height="64px" viewBox="0 0 64 64" version="1.1">
<defs>
<linearGradient id="linear0" gradientUnits="userSpaceOnUse" x1="0" y1="0" x2="0" y2="1" gradientTransform="matrix(48.135135,0,0,55.351351,7.932432,4.324324)">
<stop offset="0" style="stop-color:#ffae00;stop-opacity:1;"/>
<stop offset="0.5" style="stop-color:#dddddd;stop-opacity:1;"/>
<stop offset="1" style="stop-color:#bf1d1d;stop-opacity:1;"/>
</linearGradient>
</defs>
<g id="surface1">
<path style=" stroke:none;fill-rule:evenodd;fill:url(#linear0);" d="M 44.03125 9.136719 L 18.523438 9.136719 C 18.320312 9.136719 18.113281 9.148438 17.910156 9.1875 C 17.363281 9.285156 16.835938 9.414062 16.320312 9.582031 C 15.1875 9.941406 14.117188 10.4375 13.109375 11.070312 C 11.675781 11.96875 10.472656 13.179688 9.570312 14.605469 C 8.476562 16.40625 7.910156 18.488281 7.9375 20.59375 L 7.9375 42.828125 L 15.152344 42.828125 L 15.152344 20.570312 C 15.152344 20.542969 15.152344 20.53125 15.152344 20.511719 C 15.144531 19.773438 15.335938 19.039062 15.707031 18.40625 C 16.03125 17.910156 16.457031 17.5 16.945312 17.1875 C 17.457031 16.875 17.984375 16.636719 18.542969 16.457031 C 18.660156 16.417969 18.765625 16.378906 18.886719 16.355469 L 45.066406 16.355469 C 45.078125 16.355469 45.085938 16.355469 45.09375 16.355469 L 55.003906 16.355469 C 55.433594 16.355469 55.820312 16.097656 55.988281 15.703125 C 56.148438 15.308594 56.058594 14.847656 55.757812 14.542969 L 45.847656 4.636719 C 45.636719 4.433594 45.367188 4.320312 45.082031 4.324219 C 44.5 4.335938 44.03125 4.808594 44.03125 5.386719 Z M 19.96875 54.863281 L 45.472656 54.863281 C 45.679688 54.863281 45.886719 54.851562 46.089844 54.8125 C 46.632812 54.714844 47.160156 54.585938 47.679688 54.417969 C 48.8125 54.058594 49.878906 53.5625 50.890625 52.929688 C 52.324219 52.03125 53.523438 50.820312 54.429688 49.394531 C 55.523438 47.59375 56.089844 45.511719 56.0625 43.40625 L 56.0625 21.171875 L 48.839844 21.171875 L 48.839844 43.429688 C 48.839844 43.457031 48.839844 43.46875 48.839844 43.488281 C 48.855469 44.226562 48.664062 44.960938 48.292969 45.59375 C 47.960938 46.089844 47.542969 46.5 47.054688 46.8125 C 46.542969 47.125 46.015625 47.363281 45.449219 47.542969 C 45.339844 47.582031 45.234375 47.621094 45.113281 47.644531 L 18.933594 47.644531 C 18.921875 47.644531 18.914062 47.644531 18.90625 47.644531 L 8.996094 47.644531 C 8.566406 47.644531 8.179688 47.902344 8.011719 48.296875 C 7.851562 48.691406 7.941406 49.152344 8.242188 49.457031 L 18.152344 59.363281 C 18.355469 59.566406 18.632812 59.679688 18.917969 59.675781 C 19.5 59.664062 19.96875 59.191406 19.96875 58.613281 Z M 25.582031 25.984375 L 26.386719 25.984375 C 28.160156 25.984375 29.589844 27.421875 29.589844 29.191406 L 29.589844 32.402344 C 29.589844 34.171875 28.160156 35.613281 26.386719 35.613281 L 25.582031 35.613281 C 23.8125 35.613281 22.375 34.171875 22.375 32.402344 L 22.375 29.191406 C 22.375 27.421875 23.8125 25.984375 25.582031 25.984375 Z M 37.613281 25.984375 L 38.417969 25.984375 C 40.1875 25.984375 41.625 27.421875 41.625 29.191406 L 41.625 32.402344 C 41.625 34.171875 40.1875 35.613281 38.417969 35.613281 L 37.613281 35.613281 C 35.839844 35.613281 34.410156 34.171875 34.410156 32.402344 L 34.410156 29.191406 C 34.410156 27.421875 35.839844 25.984375 37.613281 25.984375 Z M 37.613281 25.984375 "/>
</g>
</svg>
