<svg xmlns="http://www.w3.org/2000/svg" xmlns:xlink="http://www.w3.org/1999/xlink" width="64px" height="64px" viewBox="0 0 64 64" version="1.1">
<defs>
<linearGradient id="linear0" gradientUnits="userSpaceOnUse" x1="0" y1="0" x2="0" y2="1" gradientTransform="matrix(51.391892,0,0,55.351351,6.306307,4.324324)">
<stop offset="0" style="stop-color:#00b7ff;stop-opacity:1;"/>
<stop offset="0.5" style="stop-color:#dddddd;stop-opacity:1;"/>
<stop offset="1" style="stop-color:#ee42d9;stop-opacity:1;"/>
</linearGradient>
</defs>
<g id="surface1">
<path style=" stroke:none;fill-rule:nonzero;fill:url(#linear0);" d="M 26.6875 4.324219 C 26.335938 4.3125 25.984375 4.347656 25.597656 4.40625 C 23.070312 4.8125 21.390625 6.421875 19.886719 9.886719 C 17.058594 16.308594 14.347656 22.789062 12.421875 27.324219 C 10.296875 31.511719 8.105469 36.039062 7.542969 37.375 C 5.996094 41.066406 5.851562 44.59375 7.375 41.433594 C 8.117188 39.894531 10.429688 37.8125 12.589844 36.742188 C 14.566406 35.757812 15.378906 35.578125 15.230469 36.160156 C 15.0625 36.800781 14.726562 38.09375 14.726562 38.324219 C 15.53125 37.632812 16.949219 37.207031 17.378906 38.121094 C 17.632812 38.679688 17.558594 39.3125 16.984375 41.550781 C 16.335938 44.042969 16.207031 46.691406 16.511719 46.691406 C 16.945312 45.789062 17.949219 44.550781 18.941406 45.058594 C 19.613281 45.417969 19.703125 45.746094 19.929688 48.589844 C 20.117188 51.027344 21.878906 54.390625 22.335938 54.554688 C 22.125 53.136719 22.449219 52.375 24.179688 53.226562 C 24.511719 53.390625 25.878906 54.609375 27.230469 55.921875 C 28.582031 57.242188 30.929688 58.863281 31.136719 58.863281 C 31.136719 58.863281 30.5625 58.050781 30.710938 57.714844 C 31.070312 56.882812 31.972656 56.820312 33.664062 57.511719 C 34.449219 57.828125 36.109375 58.378906 37.347656 58.730469 C 39.390625 59.335938 40.835938 59.773438 41.257812 59.660156 C 38.8125 58.265625 41.742188 57.621094 44.011719 56.878906 C 45.734375 56.289062 48.003906 55.488281 49.886719 53.484375 C 48.636719 53.753906 48.945312 52.511719 49.136719 51.863281 C 49.617188 50.269531 49.523438 47.449219 48.941406 45.960938 C 48.53125 44.246094 47.085938 43.054688 45.828125 41.972656 C 45.890625 42.109375 45.945312 42.246094 45.988281 42.386719 C 46.039062 42.539062 46.078125 42.679688 46.105469 42.835938 C 46.109375 42.835938 46.109375 42.835938 46.109375 42.835938 C 46.136719 42.988281 46.160156 43.136719 46.171875 43.296875 C 46.1875 43.460938 46.199219 43.632812 46.199219 43.8125 C 46.199219 44.410156 46.039062 44.960938 45.761719 45.414062 C 46.117188 47.582031 46.746094 48.648438 45.542969 51.382812 C 44.605469 52.988281 42.820312 54.210938 41.410156 54.636719 C 39.523438 55.164062 38.460938 55.171875 36.539062 54.652344 C 31.855469 53.390625 27.875 49.675781 26.933594 44.636719 C 26.433594 41.945312 25.828125 40.394531 27.429688 42.011719 C 27.648438 41.808594 27.523438 40.363281 27.71875 40.136719 C 31.542969 35.6875 30.976562 27.785156 34.800781 26.96875 C 35.160156 26.96875 35.460938 26.96875 35.757812 26.972656 C 37.382812 27.097656 38.1875 27.625 39.285156 28.265625 C 39.296875 27.449219 38.066406 26.496094 37.847656 25.941406 C 37.328125 24.660156 40.097656 25.605469 41.257812 25.847656 C 41.082031 25.523438 38.539062 24.042969 38.367188 23.949219 C 38.214844 23.863281 38.089844 23.726562 40.558594 23.757812 C 40.558594 23.757812 39.015625 22.894531 37.703125 22.96875 C 36.890625 23.011719 36.226562 22.929688 36.191406 22.78125 C 36.015625 22.015625 39.320312 20.058594 42.078125 19.734375 C 44.246094 19.476562 45.472656 19.765625 45.878906 20.761719 C 46.460938 22.164062 47.433594 23.089844 48.796875 23.542969 C 49.511719 23.785156 50.355469 24.253906 50.664062 24.582031 C 52.621094 26.085938 52.707031 29.023438 52.066406 29.085938 C 52.066406 29.085938 52.984375 29.328125 54.152344 29.085938 C 57 28.488281 58.550781 26.011719 57.207031 24.191406 C 56.757812 23.585938 56.585938 22.867188 56.460938 21.050781 C 56.296875 18.527344 56.03125 17.800781 54.566406 15.785156 C 54.054688 15.070312 53.484375 13.917969 53.296875 13.214844 C 52.710938 11.011719 51.273438 9.097656 49.632812 7.449219 C 48.632812 6.449219 47.996094 5.914062 47.726562 5.894531 C 47.726562 5.894531 49.324219 8.910156 49.367188 10.984375 C 49.367188 12.90625 48.160156 13.097656 47.113281 11.8125 C 46.171875 10.460938 46.105469 8.8125 44.085938 8.550781 C 44.085938 8.550781 44.71875 9.90625 44.539062 10.082031 C 42.8125 11.753906 40.757812 10.976562 39.503906 9.257812 C 38.976562 8.539062 38.097656 8.347656 38.097656 8.347656 C 38.351562 9.054688 37.6875 10.296875 36.09375 10.207031 C 35.375 10.207031 34.039062 9.238281 31.351562 6.773438 C 29.511719 5.078125 28.191406 4.363281 26.6875 4.324219 Z M 26.6875 4.324219 "/>
</g>
</svg>
