<svg xmlns="http://www.w3.org/2000/svg" xmlns:xlink="http://www.w3.org/1999/xlink" width="64px" height="64px" viewBox="0 0 64 64" version="1.1">
<defs>
<linearGradient id="linear0" gradientUnits="userSpaceOnUse" x1="0" y1="0" x2="0" y2="1" gradientTransform="matrix(55.351351,0,0,55.351351,4.324324,4.324324)">
<stop offset="0" style="stop-color:#05f7ff;stop-opacity:1;"/>
<stop offset="0.5" style="stop-color:#dddddd;stop-opacity:1;"/>
<stop offset="1" style="stop-color:#e6ff05;stop-opacity:1;"/>
</linearGradient>
</defs>
<g id="surface1">
<path style=" stroke:none;fill-rule:nonzero;fill:url(#linear0);" d="M 4.324219 4.324219 C 5.136719 7.105469 21.273438 53.652344 23.5 59.675781 L 30.738281 51.878906 L 30.738281 4.324219 Z M 37.914062 4.324219 C 37.796875 5.46875 37.226562 14.097656 36.582031 24.488281 C 35.890625 35.558594 35.269531 45.289062 35.191406 46.117188 C 35.164062 46.472656 35.144531 46.746094 35.136719 46.960938 L 39.703125 41.984375 C 41.105469 36.054688 47.179688 7.476562 47.699219 4.324219 Z M 50.410156 4.324219 C 49.691406 7.015625 42.753906 35.570312 41.808594 39.679688 L 44.355469 36.894531 C 46.296875 31.234375 53.929688 7.296875 54.734375 4.324219 Z M 56.941406 4.324219 C 56.039062 6.554688 47.53125 31.324219 46.585938 34.46875 L 48.246094 32.648438 C 50.863281 26.589844 59 6.476562 59.675781 4.324219 Z M 56.941406 4.324219 "/>
</g>
</svg>
