<svg xmlns="http://www.w3.org/2000/svg" xmlns:xlink="http://www.w3.org/1999/xlink" width="64px" height="64px" viewBox="0 0 64 64" version="1.1">
<defs>
<linearGradient id="linear0" gradientUnits="userSpaceOnUse" x1="0" y1="0" x2="0" y2="1" gradientTransform="matrix(48.432432,0,0,48.432432,7.783784,7.783784)">
<stop offset="0" style="stop-color:#00a2ff;stop-opacity:1;"/>
<stop offset="0.5" style="stop-color:#dddddd;stop-opacity:1;"/>
<stop offset="1" style="stop-color:#00ffae;stop-opacity:1;"/>
</linearGradient>
<linearGradient id="linear1" gradientUnits="userSpaceOnUse" x1="0" y1="0" x2="0" y2="1" gradientTransform="matrix(33.846848,0,0,29.639639,25.815314,4.346847)">
<stop offset="0" style="stop-color:#00a2ff;stop-opacity:1;"/>
<stop offset="0.5" style="stop-color:#dddddd;stop-opacity:1;"/>
<stop offset="1" style="stop-color:#00ffae;stop-opacity:1;"/>
</linearGradient>
</defs>
<g id="surface1">
<path style=" stroke:none;fill-rule:nonzero;fill:url(#linear0);" d="M 42.378906 7.785156 C 23.269531 7.785156 7.785156 23.269531 7.785156 42.378906 C 7.796875 46.382812 8.5 50.351562 9.867188 54.113281 C 13.636719 55.488281 17.613281 56.203125 21.621094 56.214844 C 28.40625 56.207031 35.039062 54.207031 40.699219 50.460938 C 39.554688 49.1875 38.917969 47.542969 38.917969 45.835938 C 38.917969 42.015625 42.015625 38.917969 45.835938 38.917969 C 47.539062 38.921875 49.1875 39.554688 50.449219 40.699219 C 54.203125 35.039062 56.207031 28.40625 56.214844 21.621094 C 56.203125 17.617188 55.5 13.648438 54.125 9.886719 C 50.363281 8.511719 46.386719 7.796875 42.378906 7.785156 Z M 42.363281 11.238281 L 42.378906 11.238281 C 45.378906 11.246094 48.324219 11.949219 51.191406 12.8125 C 52.058594 15.6875 52.753906 18.625 52.761719 21.621094 L 52.761719 21.625 C 52.761719 26.625 51.488281 31.59375 49.1875 36.027344 C 48.109375 35.660156 46.976562 35.460938 45.835938 35.460938 C 40.109375 35.460938 35.460938 40.109375 35.460938 45.835938 C 35.460938 46.976562 35.652344 48.113281 36.027344 49.1875 C 31.597656 51.488281 26.625 52.761719 21.636719 52.761719 C 18.632812 52.753906 15.679688 52.050781 12.808594 51.1875 C 11.941406 48.3125 11.242188 45.367188 11.238281 42.375 C 11.238281 34.21875 14.59375 26.121094 20.355469 20.355469 C 26.121094 14.59375 34.214844 11.238281 42.363281 11.238281 Z M 42.363281 11.238281 "/>
<path style=" stroke:none;fill-rule:nonzero;fill:url(#linear1);" d="M 57.863281 4.347656 C 47.738281 14.097656 37.066406 23.136719 25.8125 31.566406 L 28.238281 33.988281 C 39.191406 25.675781 49.769531 16.578125 59.664062 7.023438 Z M 57.863281 4.347656 "/>
</g>
</svg>
