<svg xmlns="http://www.w3.org/2000/svg" xmlns:xlink="http://www.w3.org/1999/xlink" width="64px" height="64px" viewBox="0 0 64 64" version="1.1">
<defs>
<linearGradient id="linear0" gradientUnits="userSpaceOnUse" x1="0" y1="0" x2="0" y2="1" gradientTransform="matrix(51.108108,0,0,55.351351,6.445946,4.324324)">
<stop offset="0" style="stop-color:#ffae00;stop-opacity:1;"/>
<stop offset="0.5" style="stop-color:#dddddd;stop-opacity:1;"/>
<stop offset="1" style="stop-color:#bf1d1d;stop-opacity:1;"/>
</linearGradient>
</defs>
<g id="surface1">
<path style=" stroke:none;fill-rule:evenodd;fill:url(#linear0);" d="M 55.027344 29.878906 L 53.363281 29.878906 C 51.972656 29.875 50.839844 28.742188 50.839844 27.351562 L 50.839844 21.261719 C 50.839844 19.863281 51.972656 18.734375 53.363281 18.734375 L 55.027344 18.734375 C 56.417969 18.734375 57.550781 19.863281 57.554688 21.261719 L 57.554688 27.351562 C 57.554688 28.671875 56.351562 29.878906 55.027344 29.878906 Z M 10.636719 29.878906 L 8.972656 29.878906 C 7.625 29.878906 6.445312 28.644531 6.445312 27.238281 L 6.445312 21.152344 C 6.445312 19.828125 7.648438 18.621094 8.972656 18.621094 L 10.742188 18.621094 C 12.089844 18.621094 13.273438 19.855469 13.273438 21.261719 L 13.273438 27.351562 C 13.273438 28.699219 12.039062 29.878906 10.636719 29.878906 Z M 7.644531 48.605469 L 56.355469 48.605469 L 56.355469 54.136719 L 7.644531 54.136719 Z M 10.96875 59.675781 L 15.394531 59.675781 C 17.226562 59.675781 18.714844 58.1875 18.714844 56.355469 L 7.644531 56.355469 C 7.644531 58.1875 9.136719 59.675781 10.96875 59.675781 Z M 48.605469 59.675781 L 53.03125 59.675781 C 54.863281 59.675781 56.355469 58.1875 56.355469 56.355469 L 45.285156 56.355469 C 45.285156 58.1875 46.773438 59.675781 48.605469 59.675781 Z M 18.496094 19.113281 C 18.523438 18.636719 20.8125 16.726562 30.890625 16.726562 C 40.226562 16.726562 45.097656 18.363281 45.515625 19.191406 L 46.636719 27.710938 C 44.996094 27.988281 40.132812 28.679688 32 28.679688 C 23.875 28.679688 19.003906 27.988281 17.363281 27.710938 Z M 19.824219 42.296875 C 19.824219 42.738281 19.488281 43.070312 19.050781 43.070312 L 13.957031 43.070312 C 13.511719 43.070312 13.179688 42.738281 13.179688 42.296875 L 13.179688 39.417969 C 13.179688 38.972656 13.511719 38.644531 13.957031 38.644531 L 19.050781 38.644531 C 19.488281 38.644531 19.824219 38.972656 19.824219 39.417969 Z M 39.746094 41.296875 C 39.746094 42.296875 38.972656 43.070312 37.976562 43.070312 L 26.023438 43.070312 C 25.027344 43.070312 24.253906 42.296875 24.253906 41.296875 L 24.253906 35.988281 C 24.253906 35.753906 24.296875 35.527344 24.378906 35.320312 C 24.636719 34.664062 25.265625 34.214844 26.023438 34.214844 L 37.976562 34.214844 C 38.738281 34.214844 39.363281 34.664062 39.621094 35.320312 C 39.703125 35.527344 39.746094 35.753906 39.746094 35.988281 Z M 50.820312 42.296875 C 50.820312 42.738281 50.488281 43.070312 50.042969 43.070312 L 44.949219 43.070312 C 44.511719 43.070312 44.175781 42.738281 44.175781 42.296875 L 44.175781 39.417969 C 44.175781 38.972656 44.511719 38.644531 44.949219 38.644531 L 50.042969 38.644531 C 50.488281 38.644531 50.820312 38.972656 50.820312 39.417969 Z M 56.253906 37.824219 C 56.238281 37.746094 56.230469 37.679688 56.214844 37.609375 C 56.121094 37.199219 55.988281 36.796875 55.808594 36.414062 C 55.730469 36.242188 55.636719 36.078125 55.539062 35.914062 C 55.03125 35.054688 54.300781 34.347656 53.433594 33.855469 L 53.28125 33.78125 C 53.0625 33.664062 52.835938 33.5625 52.609375 33.476562 C 52.472656 33.429688 52.335938 33.390625 52.191406 33.351562 C 52.015625 33.300781 51.839844 33.242188 51.664062 33.210938 C 51.3125 33.144531 50.957031 33.113281 50.597656 33.109375 L 49.578125 33.109375 L 49.082031 29.351562 L 48.625 25.867188 L 47.71875 18.984375 C 47.46875 14.726562 33.664062 14.511719 30.890625 14.511719 C 25.539062 14.511719 16.511719 15.089844 16.292969 18.902344 L 15.488281 25.011719 L 14.890625 29.542969 L 14.429688 33.109375 L 13.402344 33.109375 C 13.039062 33.109375 12.679688 33.148438 12.335938 33.210938 C 12.160156 33.242188 11.984375 33.300781 11.808594 33.351562 C 11.664062 33.390625 11.527344 33.421875 11.390625 33.476562 C 11.164062 33.558594 10.9375 33.664062 10.71875 33.78125 L 10.570312 33.855469 C 10.324219 34 10.085938 34.152344 9.863281 34.328125 C 9.550781 34.566406 9.269531 34.835938 9.015625 35.136719 C 8.96875 35.1875 8.921875 35.246094 8.878906 35.300781 C 8.726562 35.496094 8.585938 35.703125 8.460938 35.914062 C 8.296875 36.1875 8.160156 36.460938 8.042969 36.761719 C 7.9375 37.039062 7.851562 37.320312 7.789062 37.609375 C 7.769531 37.679688 7.761719 37.746094 7.746094 37.824219 C 7.6875 38.164062 7.648438 38.511719 7.644531 38.863281 L 7.644531 46.390625 L 56.355469 46.390625 L 56.355469 38.863281 C 56.351562 38.511719 56.3125 38.164062 56.253906 37.824219 Z M 14.191406 17.988281 C 15.042969 14.164062 20.523438 12.292969 30.890625 12.292969 C 42.582031 12.292969 48.933594 14.265625 49.8125 18.152344 C 50.707031 17.121094 52.003906 16.527344 53.363281 16.515625 L 54.136719 16.515625 L 54.136719 7.863281 C 54.136719 5.914062 52.503906 4.324219 50.488281 4.324219 L 13.402344 4.324219 C 11.445312 4.328125 9.863281 5.914062 9.863281 7.863281 L 9.863281 16.410156 L 10.742188 16.410156 C 12.09375 16.410156 13.320312 17.03125 14.191406 17.988281 Z M 14.191406 17.988281 "/>
</g>
</svg>
