<svg xmlns="http://www.w3.org/2000/svg" xmlns:xlink="http://www.w3.org/1999/xlink" width="64px" height="64px" viewBox="0 0 64 64" version="1.1">
<defs>
<linearGradient id="linear0" gradientUnits="userSpaceOnUse" x1="0" y1="0" x2="0" y2="1" gradientTransform="matrix(44.477476,0,0,51.891892,9.513514,6.054054)">
<stop offset="0" style="stop-color:#05f7ff;stop-opacity:1;"/>
<stop offset="0.5" style="stop-color:#dddddd;stop-opacity:1;"/>
<stop offset="1" style="stop-color:#e6ff05;stop-opacity:1;"/>
</linearGradient>
</defs>
<g id="surface1">
<path style=" stroke:none;fill-rule:nonzero;fill:url(#linear0);" d="M 28.214844 6.058594 C 26.488281 6.023438 24.996094 6.175781 24.382812 6.347656 C 23.414062 6.605469 21.96875 7.148438 21.375 7.988281 C 20.972656 8.542969 20.636719 9.261719 20.636719 10.261719 C 20.648438 12.136719 20.609375 13.699219 20.636719 15.59375 C 20.636719 16.652344 20.265625 17.148438 19.179688 17.175781 L 14.1875 17.175781 C 13.121094 17.175781 12.3125 17.152344 11.691406 17.421875 C 11.070312 17.707031 10.625 18.070312 10.296875 18.511719 C 9.621094 19.386719 9.511719 21.015625 9.511719 22.117188 C 9.511719 22.117188 9.523438 23 9.742188 24.742188 C 9.933594 26.097656 11.421875 35.5 12.847656 38.347656 C 13.394531 39.460938 13.761719 39.917969 14.839844 40.410156 C 17.960938 41.136719 28.902344 44.78125 30.089844 42.269531 C 31.0625 39.71875 31.550781 35.515625 31.753906 33.851562 C 31.753906 34.976562 31.929688 39.527344 35 40.59375 C 36.214844 41.011719 38.71875 41.382812 41.28125 41.675781 C 43.59375 41.933594 44.726562 42.820312 44.726562 48.613281 C 44.726562 52.136719 44.511719 52.386719 40.554688 52.386719 C 36.988281 52.386719 35.460938 52.386719 35.460938 50.53125 C 35.460938 48.679688 36.550781 48.679688 39.164062 48.679688 L 39.164062 44.972656 C 33.933594 44.972656 31.753906 44.972656 31.753906 51.082031 C 31.753906 56.648438 33.875 57.945312 41.285156 57.945312 C 47.097656 57.945312 49.148438 57.753906 51.550781 50.488281 C 52.023438 49.054688 53.179688 44.671875 53.875 37.3125 C 54.3125 32.664062 53.449219 18.636719 52.769531 15.082031 L 52.769531 15.070312 C 52.378906 13 51.125 11.988281 49.976562 11.582031 C 48.746094 11.148438 46.253906 10.707031 43.121094 10.347656 C 40.59375 10.054688 37.253906 9.703125 35.460938 9.761719 C 35.460938 8.460938 34.59375 7.386719 33.441406 6.929688 C 31.90625 6.328125 29.945312 6.09375 28.214844 6.058594 Z M 43.796875 28.292969 C 45.335938 28.292969 46.582031 29.957031 46.582031 32 L 41.015625 32 C 41.015625 29.957031 42.265625 28.292969 43.796875 28.292969 Z M 43.796875 28.292969 "/>
</g>
</svg>
