<svg xmlns="http://www.w3.org/2000/svg" xmlns:xlink="http://www.w3.org/1999/xlink" width="64px" height="64px" viewBox="0 0 64 64" version="1.1">
<defs>
<linearGradient id="linear0" gradientUnits="userSpaceOnUse" x1="0" y1="0" x2="0" y2="1" gradientTransform="matrix(55.351351,0,0,35.495497,4.324324,14.252253)">
<stop offset="0" style="stop-color:#00fff2;stop-opacity:1;"/>
<stop offset="0.5" style="stop-color:#dddddd;stop-opacity:1;"/>
<stop offset="1" style="stop-color:#0062ff;stop-opacity:1;"/>
</linearGradient>
</defs>
<g id="surface1">
<path style=" stroke:none;fill-rule:nonzero;fill:url(#linear0);" d="M 4.324219 49.171875 C 13.765625 46.476562 22.6875 41.996094 30.488281 36.039062 C 33.136719 34.011719 35.710938 31.753906 37.328125 28.835938 C 38.136719 27.375 38.6875 25.761719 38.828125 24.097656 C 38.972656 22.441406 38.691406 20.730469 37.929688 19.246094 C 37.28125 17.996094 36.292969 16.929688 35.132812 16.125 C 33.96875 15.328125 32.636719 14.792969 31.253906 14.511719 C 28.488281 13.941406 25.597656 14.367188 22.921875 15.265625 C 19.308594 16.472656 15.945312 18.566406 13.511719 21.503906 C 11.082031 24.441406 9.636719 28.246094 9.828125 32.058594 C 10.039062 36.203125 12.171875 40.113281 15.207031 42.941406 C 18.242188 45.769531 22.125 47.578125 26.136719 48.625 C 32.011719 50.160156 38.28125 50.121094 44.132812 48.523438 C 49.984375 46.929688 55.394531 43.773438 59.675781 39.472656 L 59.632812 28.3125 C 55.855469 34.152344 50.121094 38.703125 43.582031 41.054688 C 38.652344 42.824219 33.164062 43.347656 28.164062 41.789062 C 25.664062 41.011719 23.3125 39.714844 21.382812 37.945312 C 19.457031 36.175781 17.957031 33.921875 17.160156 31.433594 C 16.230469 28.542969 16.292969 25.28125 17.679688 22.582031 C 18.367188 21.230469 19.382812 20.039062 20.632812 19.1875 C 21.882812 18.324219 23.367188 17.808594 24.886719 17.746094 C 25.902344 17.707031 26.921875 17.878906 27.863281 18.273438 C 28.792969 18.671875 29.632812 19.296875 30.246094 20.105469 C 30.960938 21.03125 31.355469 22.179688 31.460938 23.339844 C 31.558594 24.511719 31.367188 25.6875 30.988281 26.792969 C 30.21875 29 28.71875 30.867188 27.160156 32.609375 C 20.824219 39.652344 12.988281 45.335938 4.324219 49.171875 "/>
</g>
</svg>
