<svg xmlns="http://www.w3.org/2000/svg" xmlns:xlink="http://www.w3.org/1999/xlink" width="64px" height="64px" viewBox="0 0 64 64" version="1.1">
<defs>
<linearGradient id="linear0" gradientUnits="userSpaceOnUse" x1="0" y1="0" x2="0" y2="1" gradientTransform="matrix(55.351351,0,0,41.513514,4.324324,11.243243)">
<stop offset="0" style="stop-color:#00a2ff;stop-opacity:1;"/>
<stop offset="0.5" style="stop-color:#dddddd;stop-opacity:1;"/>
<stop offset="1" style="stop-color:#00ffae;stop-opacity:1;"/>
</linearGradient>
</defs>
<g id="surface1">
<path style=" stroke:none;fill-rule:nonzero;fill:url(#linear0);" d="M 11.242188 11.242188 C 9.726562 11.242188 8.527344 11.378906 7.511719 11.757812 C 6.5 12.136719 5.691406 12.828125 5.214844 13.691406 C 4.257812 15.433594 4.355469 17.550781 4.324219 20.457031 L 4.324219 43.550781 C 4.363281 46.449219 4.257812 48.566406 5.214844 50.308594 C 5.691406 51.171875 6.5 51.863281 7.511719 52.242188 C 8.527344 52.621094 9.726562 52.757812 11.242188 52.757812 L 52.757812 52.757812 C 54.273438 52.757812 55.472656 52.621094 56.488281 52.242188 C 57.5 51.863281 58.3125 51.171875 58.789062 50.308594 C 59.746094 48.566406 59.644531 46.449219 59.675781 43.542969 L 59.675781 20.449219 C 59.636719 17.550781 59.746094 15.433594 58.789062 13.691406 C 58.3125 12.828125 57.5 12.136719 56.488281 11.757812 C 55.472656 11.378906 54.273438 11.242188 52.757812 11.242188 Z M 11.242188 14.703125 L 52.757812 14.703125 C 54.070312 14.703125 54.851562 14.835938 55.269531 14.996094 C 55.5625 15.105469 55.710938 15.265625 55.761719 15.363281 C 56.089844 15.960938 56.179688 17.488281 56.214844 20.460938 L 56.214844 43.542969 C 56.179688 46.503906 56.089844 48.039062 55.761719 48.636719 C 55.707031 48.734375 55.558594 48.894531 55.269531 49.011719 C 54.851562 49.164062 54.070312 49.296875 52.757812 49.296875 L 11.242188 49.296875 C 9.929688 49.296875 9.148438 49.164062 8.730469 49.011719 C 8.445312 48.902344 8.300781 48.742188 8.242188 48.636719 C 7.914062 48.039062 7.820312 46.5 7.785156 43.542969 L 7.785156 20.460938 C 7.820312 17.5 7.910156 15.960938 8.242188 15.363281 C 8.300781 15.257812 8.445312 15.097656 8.730469 14.996094 C 9.148438 14.835938 9.929688 14.703125 11.242188 14.703125 Z M 13.105469 20.164062 L 12.113281 21.675781 L 32.433594 36.28125 L 52.757812 21.621094 L 51.769531 20.164062 L 32.433594 31.828125 Z M 13.105469 20.164062 "/>
</g>
</svg>
