<svg xmlns="http://www.w3.org/2000/svg" xmlns:xlink="http://www.w3.org/1999/xlink" width="64px" height="64px" viewBox="0 0 64 64" version="1.1">
<defs>
<linearGradient id="linear0" gradientUnits="userSpaceOnUse" x1="0" y1="0" x2="0" y2="1" gradientTransform="matrix(48.324324,0,0,55.351351,7.837838,4.324324)">
<stop offset="0" style="stop-color:#ff8963;stop-opacity:1;"/>
<stop offset="0.5" style="stop-color:#dddddd;stop-opacity:1;"/>
<stop offset="1" style="stop-color:#0F6FFF;stop-opacity:1;"/>
</linearGradient>
</defs>
<g id="surface1">
<path style=" stroke:none;fill-rule:nonzero;fill:url(#linear0);" d="M 25.890625 40.6875 L 23.761719 40.6875 L 23.761719 38.644531 C 23.761719 38.515625 23.660156 38.410156 23.527344 38.410156 L 10.09375 38.410156 C 9.96875 38.410156 9.863281 38.515625 9.863281 38.644531 L 9.863281 40.6875 L 9.734375 40.6875 C 8.6875 40.6875 7.835938 41.539062 7.835938 42.582031 L 7.835938 57.78125 C 7.835938 58.824219 8.6875 59.675781 9.734375 59.675781 L 54.265625 59.675781 C 55.3125 59.675781 56.164062 58.824219 56.164062 57.78125 L 56.164062 42.582031 C 56.164062 41.539062 55.3125 40.6875 54.265625 40.6875 L 54.136719 40.6875 L 54.136719 38.644531 C 54.136719 38.515625 54.03125 38.410156 53.90625 38.410156 L 40.472656 38.410156 C 40.339844 38.410156 40.238281 38.515625 40.238281 38.644531 L 40.238281 40.6875 L 36.703125 40.6875 L 36.703125 35.394531 C 36.703125 35.164062 36.515625 34.984375 36.289062 34.984375 L 34.039062 34.984375 L 34.039062 23.179688 C 36.730469 22.496094 39.105469 20.644531 40.363281 17.929688 C 42.582031 13.132812 40.496094 7.4375 35.699219 5.210938 C 30.902344 2.988281 25.207031 5.078125 22.988281 9.875 C 20.765625 14.671875 22.847656 20.363281 27.644531 22.585938 L 27.648438 22.589844 C 27.949219 22.730469 28.257812 22.851562 28.5625 22.957031 L 28.5625 34.984375 L 26.3125 34.984375 C 26.082031 34.984375 25.890625 35.164062 25.890625 35.394531 Z M 25.890625 40.6875 "/>
</g>
</svg>
