<svg xmlns="http://www.w3.org/2000/svg" xmlns:xlink="http://www.w3.org/1999/xlink" width="64px" height="64px" viewBox="0 0 64 64" version="1.1">
<defs>
<linearGradient id="linear0" gradientUnits="userSpaceOnUse" x1="0" y1="0" x2="0" y2="1" gradientTransform="matrix(55.351351,0,0,55.351351,4.324324,4.324324)">
<stop offset="0" style="stop-color:#ffae00;stop-opacity:1;"/>
<stop offset="0.5" style="stop-color:#dddddd;stop-opacity:1;"/>
<stop offset="1" style="stop-color:#bf1d1d;stop-opacity:1;"/>
</linearGradient>
</defs>
<g id="surface1">
<path style=" stroke:none;fill-rule:evenodd;fill:url(#linear0);" d="M 4.324219 4.324219 C 11.121094 11.488281 8.171875 16.0625 11.902344 24.5 C 15.363281 32.324219 22.902344 26.46875 28.058594 32 C 22.902344 37.53125 15.335938 31.648438 11.878906 39.476562 C 8.148438 47.910156 11.121094 52.511719 4.324219 59.675781 C 11.488281 52.878906 16.089844 55.851562 24.523438 52.121094 C 32.351562 48.664062 26.488281 41.125 32.027344 35.96875 C 37.515625 41.125 31.6875 48.691406 39.5 52.148438 C 47.9375 55.878906 52.511719 52.875 59.675781 59.675781 C 52.875 52.511719 55.878906 47.9375 52.148438 39.5 C 48.691406 31.6875 41.152344 37.496094 35.996094 32 C 41.152344 26.503906 48.691406 32.3125 52.148438 24.5 C 55.878906 16.0625 52.875 11.488281 59.675781 4.324219 C 52.511719 11.125 47.9375 8.121094 39.5 11.851562 C 31.6875 15.3125 37.515625 22.875 32.027344 28.03125 C 26.488281 22.875 32.351562 15.335938 24.523438 11.878906 C 16.089844 8.148438 11.488281 11.121094 4.324219 4.324219 Z M 4.324219 4.324219 "/>
</g>
</svg>
