<svg xmlns="http://www.w3.org/2000/svg" xmlns:xlink="http://www.w3.org/1999/xlink" width="64px" height="64px" viewBox="0 0 64 64" version="1.1">
<g id="surface1">
<path style=" stroke:none;fill-rule:nonzero;fill:rgb(44.313726%,7.058824%,27.450982%);fill-opacity:1;" d="M 55.351562 32 C 55.351562 44.894531 44.894531 55.351562 32 55.351562 C 19.105469 55.351562 8.648438 44.894531 8.648438 32 C 8.648438 19.105469 19.105469 8.648438 32 8.648438 C 44.894531 8.648438 55.351562 19.105469 55.351562 32 Z M 55.351562 32 "/>
<path style=" stroke:none;fill-rule:nonzero;fill:rgb(97.647059%,97.647059%,97.647059%);fill-opacity:1;" d="M 32 17.789062 C 32.5625 17.789062 33.011719 18.238281 33.011719 18.800781 L 33.011719 40.121094 C 33.011719 40.683594 32.5625 41.136719 32 41.136719 C 31.4375 41.136719 30.984375 40.683594 30.984375 40.121094 L 30.984375 18.800781 C 30.984375 18.238281 31.4375 17.789062 32 17.789062 Z M 32 17.789062 "/>
<path style=" stroke:none;fill-rule:nonzero;fill:rgb(94.117647%,81.568629%,41.176471%);fill-opacity:1;" d="M 32 29.96875 C 28.769531 29.96875 26.0625 32.105469 25.1875 35.046875 L 25.910156 36.0625 L 24.890625 37.078125 L 24.890625 44.183594 L 39.109375 44.183594 L 39.109375 37.078125 L 38.089844 36.0625 L 38.8125 35.046875 C 37.9375 32.105469 35.230469 29.96875 32 29.96875 Z M 32 29.96875 "/>
<path style=" stroke:none;fill-rule:nonzero;fill:rgb(96.862745%,49.019608%,34.509805%);fill-opacity:1;" d="M 25.191406 35.046875 C 25 35.6875 24.890625 36.367188 24.890625 37.078125 L 39.109375 37.078125 C 39.109375 36.367188 39 35.6875 38.8125 35.046875 Z M 25.191406 35.046875 "/>
<path style=" stroke:none;fill-rule:nonzero;fill:rgb(97.647059%,97.647059%,97.647059%);fill-opacity:1;" d="M 22.355469 21.339844 C 22.355469 23.019531 20.988281 24.386719 19.3125 24.386719 C 20.988281 24.386719 22.355469 25.75 22.355469 27.433594 C 22.355469 25.75 23.71875 24.386719 25.402344 24.386719 C 23.71875 24.386719 22.355469 23.019531 22.355469 21.339844 Z M 42.660156 26.414062 C 42.660156 28.097656 41.296875 29.460938 39.613281 29.460938 C 41.296875 29.460938 42.660156 30.824219 42.660156 32.507812 C 42.660156 30.824219 44.023438 29.460938 45.707031 29.460938 C 44.023438 29.460938 42.660156 28.097656 42.660156 26.414062 Z M 42.660156 26.414062 "/>
</g>
</svg>
