<svg xmlns="http://www.w3.org/2000/svg" xmlns:xlink="http://www.w3.org/1999/xlink" width="64px" height="64px" viewBox="0 0 64 64" version="1.1">
<defs>
<linearGradient id="linear0" gradientUnits="userSpaceOnUse" x1="0" y1="0" x2="0" y2="1" gradientTransform="matrix(35.423422,0,0,55.351351,14.288288,4.324324)">
<stop offset="0" style="stop-color:#ffae00;stop-opacity:1;"/>
<stop offset="0.5" style="stop-color:#dddddd;stop-opacity:1;"/>
<stop offset="1" style="stop-color:#bf1d1d;stop-opacity:1;"/>
</linearGradient>
</defs>
<g id="surface1">
<path style=" stroke:none;fill-rule:nonzero;fill:url(#linear0);" d="M 32 4.324219 C 36.429688 4.324219 42.5 7.644531 41.960938 16.5 C 41.539062 24.253906 36.734375 28.679688 36.734375 28.679688 L 49.300781 28.679688 C 51.203125 28.679688 45.972656 33.554688 44.175781 35.320312 C 41.039062 32.976562 35.707031 33.109375 34.582031 33.109375 C 34.214844 33.109375 33.109375 46.390625 36.429688 49.710938 C 37.6875 50.972656 38.675781 51.878906 38.703125 52.625 C 38.726562 53.1875 38.472656 53.6875 37.976562 54.136719 L 32 59.675781 L 26.132812 54.136719 C 25.675781 53.707031 25.417969 53.253906 25.40625 52.734375 C 25.386719 51.960938 26.246094 51.039062 27.570312 49.710938 C 30.890625 46.390625 29.785156 33.109375 29.46875 33.109375 C 28.339844 33.109375 22.960938 33.023438 19.824219 35.320312 C 18.027344 33.554688 12.707031 28.679688 14.746094 28.679688 L 27.28125 28.679688 C 27.28125 28.679688 22.550781 24.253906 22.039062 16.5 C 21.523438 7.644531 27.570312 4.324219 32 4.324219 Z M 26.460938 16.5 C 26.460938 20.929688 28.949219 25.355469 32 25.355469 C 35.050781 25.355469 37.539062 20.929688 37.539062 16.5 C 37.539062 11.160156 34.214844 8.753906 32 8.753906 C 29.785156 8.753906 26.460938 11.160156 26.460938 16.5 Z M 26.460938 16.5 "/>
</g>
</svg>
