<svg xmlns="http://www.w3.org/2000/svg" xmlns:xlink="http://www.w3.org/1999/xlink" width="64px" height="64px" viewBox="0 0 64 64" version="1.1">
<g id="surface1">
<path style=" stroke:none;fill-rule:nonzero;fill:rgb(92.54902%,92.54902%,92.54902%);fill-opacity:1;" d="M 55.351562 31.980469 C 55.351562 44.875 44.894531 55.332031 32 55.332031 C 19.105469 55.332031 8.648438 44.875 8.648438 31.980469 C 8.648438 19.082031 19.105469 8.628906 32 8.628906 C 44.894531 8.628906 55.351562 19.082031 55.351562 31.980469 Z M 55.351562 31.980469 "/>
<path style=" stroke:none;fill-rule:nonzero;fill:rgb(26.274511%,33.333334%,49.019608%);fill-opacity:1;" d="M 18.652344 23.738281 L 24.878906 29.179688 L 31.304688 34.792969 C 31.722656 35.203125 32.355469 35.300781 32.875 35.035156 C 32.972656 34.988281 35.691406 32.636719 39.195312 29.574219 L 45.566406 24.011719 L 45.789062 23.824219 L 45.789062 40.636719 L 45.667969 40.867188 C 45.550781 41.113281 45.351562 41.308594 45.105469 41.414062 L 44.929688 41.492188 L 32.289062 41.5 C 22.441406 41.507812 19.601562 41.5 19.46875 41.460938 C 19.097656 41.359375 18.800781 41.070312 18.6875 40.703125 Z M 32 32.316406 C 31.78125 32.238281 31.578125 32.117188 31.402344 31.964844 C 31.292969 31.875 28.582031 29.789062 25.375 27.339844 C 21.117188 24.085938 19.539062 22.855469 19.519531 22.789062 C 19.503906 22.722656 19.519531 22.664062 19.574219 22.59375 L 19.648438 22.496094 L 44.835938 22.476562 L 44.933594 22.566406 C 45.035156 22.667969 45.050781 22.765625 44.980469 22.863281 C 44.953125 22.894531 42.316406 24.917969 39.121094 27.363281 C 35.925781 29.800781 33.226562 31.871094 33.125 31.960938 C 32.835938 32.207031 32.601562 32.316406 32.328125 32.335938 C 32.21875 32.34375 32.109375 32.335938 32 32.316406 Z M 32 32.316406 "/>
<path style=" stroke:none;fill-rule:nonzero;fill:rgb(79.215688%,63.921571%,26.274511%);fill-opacity:1;" d="M 45.78125 27.886719 L 45.78125 30.773438 L 45.46875 30.746094 C 44.714844 30.6875 43.457031 30.96875 42.265625 31.425781 C 42.003906 31.523438 41.480469 31.753906 41.109375 31.9375 C 40.03125 32.460938 39.472656 32.792969 36.71875 34.566406 C 36.261719 34.859375 35.800781 35.140625 35.332031 35.417969 C 32 37.382812 28.632812 38.570312 25.140625 38.984375 C 24.539062 39.058594 22.371094 39.089844 21.542969 39.039062 C 20.527344 38.976562 18.765625 38.777344 18.6875 38.730469 L 18.628906 37.539062 C 18.636719 37.625 18.628906 37.789062 18.628906 38.109375 C 18.628906 38.589844 18.609375 38.730469 18.574219 38.730469 C 18.476562 38.730469 17.179688 38.511719 16.761719 38.417969 C 16.222656 38.296875 15.699219 38.117188 15.203125 37.878906 C 15.09375 37.820312 14.980469 37.773438 14.863281 37.738281 C 14.863281 37.761719 15.636719 38.242188 15.910156 38.390625 C 16.515625 38.71875 17.289062 39.035156 18.117188 39.265625 L 18.597656 39.410156 L 18.660156 39.410156 C 18.664062 39.410156 18.976562 39.480469 19.335938 39.550781 C 20.761719 39.832031 22.027344 39.921875 23.835938 39.886719 C 25.628906 39.859375 26.863281 39.738281 28.425781 39.4375 C 31.488281 38.839844 34.382812 37.75 38.21875 35.785156 C 39.066406 35.347656 40.398438 34.65625 42.75 33.378906 C 43.347656 33.035156 43.972656 32.738281 44.617188 32.503906 C 44.960938 32.386719 45.460938 32.273438 45.664062 32.273438 L 45.78125 32.273438 L 45.949219 32.300781 C 46.390625 32.351562 46.785156 32.613281 46.996094 33.007812 C 47.085938 33.195312 47.085938 33.28125 47.082031 33.578125 C 47.078125 34.113281 46.894531 34.558594 46.402344 35.132812 L 46.144531 35.417969 L 46.402344 35.21875 C 46.960938 34.792969 47.550781 34.160156 47.761719 33.773438 C 48.023438 33.285156 47.988281 32.742188 47.707031 32.160156 C 47.359375 31.5 46.753906 31.019531 46.035156 30.828125 L 45.808594 30.800781 C 45.804688 29.832031 45.796875 28.859375 45.78125 27.886719 Z M 18.628906 37.539062 L 18.597656 36.605469 C 18.484375 36.605469 17.136719 36.429688 16.617188 36.347656 C 15.914062 36.242188 15.214844 36.101562 14.527344 35.925781 L 14.527344 36.292969 C 15.546875 36.757812 16.714844 37.132812 17.980469 37.339844 C 18.238281 37.386719 18.496094 37.441406 18.542969 37.453125 C 18.585938 37.460938 18.617188 37.457031 18.628906 37.539062 Z M 18.628906 37.539062 "/>
</g>
</svg>
