<svg xmlns="http://www.w3.org/2000/svg" xmlns:xlink="http://www.w3.org/1999/xlink" width="64px" height="64px" viewBox="0 0 64 64" version="1.1">
<defs>
<linearGradient id="linear0" gradientUnits="userSpaceOnUse" x1="0" y1="0" x2="0" y2="1" gradientTransform="matrix(52.46847,0,0,55.351351,5.765766,4.324324)">
<stop offset="0" style="stop-color:#00b7ff;stop-opacity:1;"/>
<stop offset="0.5" style="stop-color:#dddddd;stop-opacity:1;"/>
<stop offset="1" style="stop-color:#ee42d9;stop-opacity:1;"/>
</linearGradient>
</defs>
<g id="surface1">
<path style=" stroke:none;fill-rule:nonzero;fill:url(#linear0);" d="M 16.878906 4.324219 L 5.765625 15.441406 L 9.46875 19.136719 L 20.585938 8.03125 Z M 47.121094 4.324219 L 36.9375 14.511719 L 48.050781 25.625 L 58.234375 15.441406 Z M 23.363281 10.808594 L 12.246094 21.917969 L 15.949219 25.625 L 27.066406 14.511719 Z M 31.960938 20.386719 C 26.207031 20.386719 21.484375 25.109375 21.484375 30.863281 C 21.484375 36.621094 26.207031 41.339844 31.960938 41.339844 C 37.71875 41.339844 42.4375 36.621094 42.4375 30.863281 C 42.4375 25.109375 37.71875 20.386719 31.960938 20.386719 Z M 31.960938 25.625 C 34.878906 25.625 37.199219 27.941406 37.199219 30.863281 C 37.199219 33.789062 34.878906 36.105469 31.960938 36.105469 C 29.039062 36.105469 26.71875 33.789062 26.71875 30.863281 C 26.71875 27.941406 29.039062 25.625 31.960938 25.625 Z M 24.105469 45.269531 L 24.105469 50.511719 L 39.820312 50.511719 L 39.820312 45.269531 Z M 24.105469 54.4375 L 24.105469 59.675781 L 39.820312 59.675781 L 39.820312 54.4375 Z M 24.105469 54.4375 "/>
</g>
</svg>
