<svg xmlns="http://www.w3.org/2000/svg" xmlns:xlink="http://www.w3.org/1999/xlink" width="64px" height="64px" viewBox="0 0 64 64" version="1.1">
<defs>
<linearGradient id="linear0" gradientUnits="userSpaceOnUse" x1="0" y1="0" x2="0" y2="1" gradientTransform="matrix(55.351351,0,0,55.351351,4.324324,4.324324)">
<stop offset="0" style="stop-color:#ff8963;stop-opacity:1;"/>
<stop offset="0.5" style="stop-color:#dddddd;stop-opacity:1;"/>
<stop offset="1" style="stop-color:#0F6FFF;stop-opacity:1;"/>
</linearGradient>
</defs>
<g id="surface1">
<path style=" stroke:none;fill-rule:nonzero;fill:url(#linear0);" d="M 8.28125 4.324219 C 6.199219 4.324219 4.511719 5.914062 4.347656 7.949219 C 5.972656 7.960938 7.289062 9.285156 7.289062 10.910156 C 7.289062 12.550781 5.960938 13.882812 4.324219 13.882812 L 4.324219 18.496094 C 5.960938 18.496094 7.289062 19.820312 7.289062 21.457031 C 7.289062 23.09375 5.960938 24.421875 4.324219 24.421875 L 4.324219 29.039062 C 5.960938 29.039062 7.289062 30.363281 7.289062 32 C 7.289062 33.636719 5.960938 34.960938 4.324219 34.960938 L 4.324219 39.578125 C 5.960938 39.578125 7.289062 40.90625 7.289062 42.542969 C 7.289062 44.179688 5.960938 45.503906 4.324219 45.503906 L 4.324219 50.117188 C 5.960938 50.117188 7.289062 51.449219 7.289062 53.089844 C 7.289062 54.714844 5.972656 56.039062 4.347656 56.050781 C 4.511719 58.085938 6.199219 59.675781 8.28125 59.675781 C 8.28125 58.039062 9.609375 56.710938 11.242188 56.710938 C 12.878906 56.710938 14.207031 58.039062 14.207031 59.675781 L 18.820312 59.675781 C 18.820312 58.039062 20.148438 56.710938 21.789062 56.710938 C 23.421875 56.710938 24.746094 58.039062 24.746094 59.675781 L 29.363281 59.675781 C 29.363281 58.039062 30.691406 56.710938 32.335938 56.710938 C 33.96875 56.710938 35.292969 58.039062 35.292969 59.675781 L 39.90625 59.675781 C 39.90625 58.039062 41.238281 56.710938 42.875 56.710938 C 44.511719 56.710938 45.835938 58.039062 45.835938 59.675781 L 50.449219 59.675781 C 50.449219 58.039062 51.773438 56.710938 53.414062 56.710938 C 55.027344 56.710938 56.347656 58.003906 56.382812 59.613281 C 58.152344 59.3125 59.511719 57.867188 59.652344 56.050781 C 58.027344 56.039062 56.710938 54.714844 56.710938 53.089844 C 56.710938 51.449219 58.039062 50.117188 59.675781 50.117188 L 59.675781 45.503906 C 58.039062 45.503906 56.710938 44.179688 56.710938 42.542969 C 56.710938 40.90625 58.039062 39.578125 59.675781 39.578125 L 59.675781 34.960938 C 58.039062 34.960938 56.710938 33.636719 56.710938 32 C 56.710938 30.363281 58.039062 29.039062 59.675781 29.039062 L 59.675781 24.421875 C 58.039062 24.421875 56.710938 23.09375 56.710938 21.457031 C 56.710938 19.820312 58.039062 18.496094 59.675781 18.496094 L 59.675781 13.882812 C 58.039062 13.882812 56.710938 12.550781 56.710938 10.910156 C 56.710938 9.285156 58.027344 7.960938 59.652344 7.949219 C 59.511719 6.132812 58.152344 4.6875 56.382812 4.386719 C 56.347656 5.996094 55.027344 7.289062 53.414062 7.289062 C 51.773438 7.289062 50.449219 5.960938 50.449219 4.324219 L 45.835938 4.324219 C 45.835938 5.960938 44.511719 7.289062 42.875 7.289062 C 41.238281 7.289062 39.90625 5.960938 39.90625 4.324219 L 35.292969 4.324219 C 35.292969 5.960938 33.96875 7.289062 32.335938 7.289062 C 30.691406 7.289062 29.363281 5.960938 29.363281 4.324219 L 24.746094 4.324219 C 24.746094 5.960938 23.421875 7.289062 21.789062 7.289062 C 20.148438 7.289062 18.820312 5.960938 18.820312 4.324219 L 14.207031 4.324219 C 14.207031 5.960938 12.878906 7.289062 11.242188 7.289062 C 9.609375 7.289062 8.28125 5.960938 8.28125 4.324219 Z M 21.347656 14.246094 L 43.902344 14.246094 L 42.753906 19.703125 L 26.003906 19.703125 L 24.351562 26.261719 L 49.910156 26.261719 L 48.585938 31.726562 L 36.386719 41.960938 C 40.648438 42.109375 42.542969 45.875 48.527344 41.660156 L 49.613281 47.1875 C 44.132812 50.320312 41.488281 49.488281 38.675781 48.710938 C 35.785156 47.917969 34.191406 46.789062 30.386719 48.726562 L 28.367188 49.757812 L 24.441406 45.265625 L 39.515625 31.882812 L 23.414062 31.882812 L 19.988281 46.164062 L 14.089844 46.164062 Z M 21.347656 14.246094 "/>
</g>
</svg>
