<svg xmlns="http://www.w3.org/2000/svg" xmlns:xlink="http://www.w3.org/1999/xlink" width="64px" height="64px" viewBox="0 0 64 64" version="1.1">
<defs>
<linearGradient id="linear0" gradientUnits="userSpaceOnUse" x1="0" y1="0" x2="0" y2="1" gradientTransform="matrix(55.351351,0,0,27.675676,4.324324,18.162162)">
<stop offset="0" style="stop-color:#ffae00;stop-opacity:1;"/>
<stop offset="0.5" style="stop-color:#dddddd;stop-opacity:1;"/>
<stop offset="1" style="stop-color:#bf1d1d;stop-opacity:1;"/>
</linearGradient>
</defs>
<g id="surface1">
<path style=" stroke:none;fill-rule:evenodd;fill:url(#linear0);" d="M 20.605469 28.082031 C 20.605469 26.375 19.503906 25.792969 18.164062 26.789062 C 16.820312 27.789062 15.71875 29.1875 15.71875 29.890625 C 15.71875 30.605469 16.820312 31.1875 18.164062 31.1875 C 19.503906 31.1875 20.605469 29.789062 20.605469 28.082031 Z M 12.394531 35.664062 C 8.089844 30.875 13.210938 24.671875 21.472656 24.671875 C 24.660156 24.671875 29.566406 26.324219 32.390625 28.335938 C 37.476562 31.960938 37.476562 32.039062 32.390625 35.664062 C 29.566406 37.675781 24.660156 39.328125 21.472656 39.328125 C 18.289062 39.328125 14.207031 37.675781 12.394531 35.664062 Z M 50 35.652344 C 47.503906 32.308594 47.664062 30.847656 50.886719 27.257812 C 54.527344 23.203125 54.792969 23.476562 54.792969 31.308594 C 54.792969 40.828125 54.238281 41.328125 50 35.652344 Z M 35.148438 40.59375 C 41.6875 35.457031 41.933594 35.457031 48.285156 40.59375 C 57.976562 48.445312 59.675781 47.164062 59.675781 32 C 59.675781 16.835938 57.976562 15.554688 48.285156 23.40625 C 41.933594 28.542969 41.6875 28.542969 35.148438 23.40625 C 31.488281 20.523438 25.539062 18.164062 21.941406 18.164062 C 15.363281 18.164062 4.324219 26.835938 4.324219 32 C 4.324219 37.164062 15.363281 45.835938 21.941406 45.835938 C 25.539062 45.835938 31.488281 43.476562 35.148438 40.59375 Z M 35.148438 40.59375 "/>
</g>
</svg>
