<svg xmlns="http://www.w3.org/2000/svg" xmlns:xlink="http://www.w3.org/1999/xlink" width="64px" height="64px" viewBox="0 0 64 64" version="1.1">
<defs>
<linearGradient id="linear0" gradientUnits="userSpaceOnUse" x1="0" y1="0" x2="0" y2="1" gradientTransform="matrix(55.351351,0,0,55.351351,4.324324,4.324324)">
<stop offset="0" style="stop-color:#00b7ff;stop-opacity:1;"/>
<stop offset="0.5" style="stop-color:#dddddd;stop-opacity:1;"/>
<stop offset="1" style="stop-color:#ee42d9;stop-opacity:1;"/>
</linearGradient>
</defs>
<g id="surface1">
<path style=" stroke:none;fill-rule:nonzero;fill:url(#linear0);" d="M 4.324219 4.324219 L 4.324219 59.675781 L 8.011719 59.675781 L 8.011719 55.417969 L 11.703125 55.417969 L 11.703125 59.675781 L 52.296875 59.675781 L 52.296875 55.417969 L 55.988281 55.417969 L 55.988281 59.675781 L 59.675781 59.675781 L 59.675781 4.324219 L 55.988281 4.324219 L 55.988281 8.582031 L 52.296875 8.582031 L 52.296875 4.324219 L 11.703125 4.324219 L 11.703125 8.582031 L 8.011719 8.582031 L 8.011719 4.324219 Z M 15.394531 8.582031 L 48.605469 8.582031 L 48.605469 29.867188 L 15.394531 29.867188 Z M 8.011719 12.835938 L 11.703125 12.835938 L 11.703125 17.097656 L 8.011719 17.097656 Z M 52.296875 12.835938 L 55.988281 12.835938 L 55.988281 17.097656 L 52.296875 17.097656 Z M 8.011719 21.355469 L 11.703125 21.355469 L 11.703125 25.613281 L 8.011719 25.613281 Z M 52.296875 21.355469 L 55.988281 21.355469 L 55.988281 25.613281 L 52.296875 25.613281 Z M 8.011719 29.867188 L 11.703125 29.867188 L 11.703125 34.132812 L 8.011719 34.132812 Z M 52.296875 29.867188 L 55.988281 29.867188 L 55.988281 34.132812 L 52.296875 34.132812 Z M 15.394531 34.132812 L 48.605469 34.132812 L 48.605469 55.417969 L 15.394531 55.417969 Z M 8.011719 38.386719 L 11.703125 38.386719 L 11.703125 42.644531 L 8.011719 42.644531 Z M 52.296875 38.386719 L 55.988281 38.386719 L 55.988281 42.644531 L 52.296875 42.644531 Z M 8.011719 46.902344 L 11.703125 46.902344 L 11.703125 51.164062 L 8.011719 51.164062 Z M 52.296875 46.902344 L 55.988281 46.902344 L 55.988281 51.164062 L 52.296875 51.164062 Z M 52.296875 46.902344 "/>
</g>
</svg>
