<svg xmlns="http://www.w3.org/2000/svg" xmlns:xlink="http://www.w3.org/1999/xlink" width="64px" height="64px" viewBox="0 0 64 64" version="1.1">
<defs>
<linearGradient id="linear0" gradientUnits="userSpaceOnUse" x1="0" y1="0" x2="0" y2="1" gradientTransform="matrix(46.423422,0,0,55.351351,8.788289,4.324324)">
<stop offset="0" style="stop-color:#05f7ff;stop-opacity:1;"/>
<stop offset="0.5" style="stop-color:#dddddd;stop-opacity:1;"/>
<stop offset="1" style="stop-color:#e6ff05;stop-opacity:1;"/>
</linearGradient>
</defs>
<g id="surface1">
<path style=" stroke:none;fill-rule:nonzero;fill:url(#linear0);" d="M 32.636719 4.335938 C 25.21875 4.164062 18 6.730469 12.347656 11.53125 C 11.863281 11.945312 11.632812 12.589844 11.742188 13.214844 C 11.855469 13.847656 12.300781 14.367188 12.902344 14.582031 C 13.503906 14.796875 14.175781 14.671875 14.664062 14.257812 C 24.988281 5.472656 40.242188 5.800781 50.179688 15.011719 C 50.648438 15.457031 51.3125 15.617188 51.933594 15.429688 C 52.550781 15.242188 53.015625 14.738281 53.160156 14.109375 C 53.296875 13.484375 53.089844 12.824219 52.609375 12.394531 C 47.164062 7.351562 40.0625 4.484375 32.644531 4.335938 Z M 31.996094 11.460938 C 19.21875 11.460938 8.847656 21.785156 8.789062 34.558594 C 8.789062 34.589844 8.789062 34.621094 8.789062 34.648438 C 8.789062 34.660156 8.789062 34.664062 8.789062 34.664062 L 8.789062 34.726562 C 8.789062 34.753906 8.789062 34.78125 8.789062 34.808594 C 8.789062 39.390625 9.636719 43.941406 11.285156 48.214844 C 11.511719 48.820312 12.039062 49.253906 12.675781 49.355469 C 13.3125 49.460938 13.949219 49.210938 14.351562 48.707031 C 14.753906 48.207031 14.851562 47.53125 14.617188 46.933594 C 13.113281 43.03125 12.339844 38.882812 12.355469 34.699219 C 12.355469 34.6875 12.355469 34.679688 12.355469 34.664062 C 12.355469 23.820312 21.148438 15.03125 31.996094 15.03125 C 42.835938 15.03125 51.632812 23.820312 51.632812 34.664062 C 51.632812 37.625 49.234375 40.023438 46.273438 40.023438 C 43.320312 40.023438 40.917969 37.625 40.917969 34.664062 C 40.917969 29.738281 36.921875 25.742188 31.996094 25.742188 C 27.109375 25.742188 23.132812 29.675781 23.070312 34.558594 C 23.070312 34.59375 23.070312 34.632812 23.070312 34.664062 C 23.070312 34.675781 23.070312 34.679688 23.070312 34.6875 C 23.039062 47.386719 33.300781 57.765625 46.011719 57.878906 C 46.648438 57.882812 47.242188 57.550781 47.566406 57 C 47.890625 56.449219 47.902344 55.769531 47.585938 55.210938 C 47.269531 54.660156 46.679688 54.3125 46.039062 54.308594 C 35.28125 54.230469 26.609375 45.460938 26.648438 34.699219 C 26.648438 34.6875 26.648438 34.679688 26.648438 34.664062 C 26.648438 31.710938 29.042969 29.3125 32.003906 29.3125 C 34.960938 29.3125 37.363281 31.710938 37.363281 34.664062 C 37.363281 39.597656 41.355469 43.59375 46.285156 43.59375 C 51.214844 43.59375 55.210938 39.597656 55.210938 34.664062 C 55.210938 21.851562 44.820312 11.460938 32.003906 11.460938 Z M 31.996094 18.597656 C 23.164062 18.597656 15.988281 25.726562 15.929688 34.558594 C 15.929688 34.570312 15.929688 34.585938 15.929688 34.605469 C 15.929688 34.625 15.929688 34.644531 15.929688 34.664062 C 15.929688 34.675781 15.929688 34.679688 15.929688 34.6875 C 15.902344 44.457031 20.59375 53.632812 28.53125 59.324219 C 28.867188 59.578125 29.285156 59.699219 29.703125 59.671875 C 29.765625 59.664062 29.824219 59.664062 29.882812 59.648438 C 30.597656 59.53125 31.171875 58.988281 31.335938 58.285156 C 31.488281 57.578125 31.207031 56.839844 30.613281 56.429688 C 23.617188 51.40625 19.476562 43.3125 19.5 34.699219 C 19.5 34.6875 19.5 34.675781 19.5 34.664062 C 19.5 27.761719 25.09375 22.164062 32 22.164062 C 38.902344 22.164062 44.496094 27.761719 44.496094 34.664062 C 44.496094 35.648438 45.292969 36.449219 46.28125 36.449219 C 47.265625 36.449219 48.066406 35.648438 48.066406 34.664062 C 48.066406 34.609375 48.066406 34.554688 48.066406 34.5 C 47.972656 25.691406 40.8125 18.605469 32.003906 18.597656 Z M 31.960938 32.8125 C 31.488281 32.820312 31.039062 33.011719 30.703125 33.351562 C 30.375 33.6875 30.1875 34.148438 30.191406 34.621094 L 30.191406 34.644531 C 30.191406 34.652344 30.191406 34.664062 30.191406 34.664062 C 30.191406 34.730469 30.191406 34.792969 30.191406 34.855469 C 30.3125 43.589844 37.375 50.636719 46.109375 50.734375 C 46.746094 50.742188 47.339844 50.410156 47.664062 49.863281 C 47.988281 49.3125 48 48.625 47.6875 48.070312 C 47.367188 47.511719 46.785156 47.171875 46.144531 47.164062 C 39.28125 47.117188 33.742188 41.53125 33.757812 34.664062 C 33.757812 34.660156 33.757812 34.644531 33.757812 34.632812 C 33.765625 34.148438 33.578125 33.6875 33.238281 33.339844 C 32.902344 33.003906 32.4375 32.8125 31.957031 32.820312 Z M 31.960938 32.8125 "/>
</g>
</svg>
