<svg xmlns="http://www.w3.org/2000/svg" xmlns:xlink="http://www.w3.org/1999/xlink" width="64px" height="64px" viewBox="0 0 64 64" version="1.1">
<defs>
<linearGradient id="linear0" gradientUnits="userSpaceOnUse" x1="0" y1="0" x2="0" y2="1" gradientTransform="matrix(55.346848,0,0,40.797297,4.328829,11.603604)">
<stop offset="0" style="stop-color:#00a2ff;stop-opacity:1;"/>
<stop offset="0.5" style="stop-color:#dddddd;stop-opacity:1;"/>
<stop offset="1" style="stop-color:#00ffae;stop-opacity:1;"/>
</linearGradient>
</defs>
<g id="surface1">
<path style=" stroke:none;fill-rule:nonzero;fill:url(#linear0);" d="M 4.386719 11.605469 C 4.457031 11.609375 4.527344 11.617188 4.582031 11.664062 C 4.890625 11.914062 5.226562 12.097656 5.539062 12.378906 C 13.457031 19.375 17.472656 18.960938 24.011719 23.328125 C 24.3125 23.523438 26.03125 23.929688 27.199219 25.324219 C 27.246094 25.375 27.28125 25.445312 27.363281 25.460938 C 28.976562 25.855469 28.875 25.828125 28.875 25.867188 C 28.894531 26.175781 28.902344 26.484375 28.929688 26.789062 C 28.957031 26.78125 28.984375 26.761719 28.988281 26.738281 C 30.085938 24.710938 32.671875 24 32.644531 24.015625 C 37.109375 21.03125 42.085938 19.570312 45.011719 17.632812 C 47.484375 15.988281 52.121094 11.835938 51.789062 12.09375 C 52.335938 11.679688 52.460938 11.539062 52.539062 11.789062 C 52.863281 12.789062 51.1875 17.011719 48.851562 18.753906 C 48.171875 19.257812 47.929688 19.21875 47.929688 19.347656 C 48.605469 19.21875 49.375 19.023438 49.867188 19.109375 C 51.09375 19.3125 48.394531 20.773438 47.300781 21.351562 C 47.1875 21.414062 46.039062 21.960938 46.023438 22.027344 C 46.539062 21.929688 49.40625 21.113281 49.71875 21.59375 C 49.746094 21.769531 49.421875 21.9375 49.382812 21.988281 C 49.320312 22.050781 49.246094 22.121094 49.160156 22.136719 C 48.757812 22.554688 44.558594 24.472656 39.234375 26.082031 C 39.203125 26.085938 39.179688 26.109375 39.179688 26.144531 C 46.5625 25.148438 44.59375 27.070312 37.554688 27.96875 C 37.484375 28.039062 37.429688 28.132812 37.363281 28.210938 C 37.484375 28.246094 39.488281 28.414062 40.660156 28.863281 C 41.636719 29.261719 40.570312 29.460938 39.402344 29.457031 C 36.675781 29.460938 36.367188 29.03125 36.164062 29.3125 C 37.828125 29.847656 39.335938 30.503906 39.335938 30.503906 C 39.484375 30.472656 39.617188 30.410156 39.761719 30.363281 C 46.46875 27.9375 51.902344 24.382812 55.761719 26.945312 C 56.570312 27.472656 57.117188 28.21875 57.164062 29.191406 C 57.203125 30.1875 56.664062 31.242188 56.269531 31.761719 C 56.226562 31.8125 56.171875 31.867188 56.136719 31.933594 C 60.230469 33.800781 60.214844 35.972656 58.863281 37.414062 C 56.285156 40.347656 50.648438 38.117188 49.257812 36.527344 C 49.460938 36.597656 49.664062 36.703125 49.867188 36.773438 C 51.902344 37.558594 54.613281 37.792969 54.328125 36.394531 C 53.945312 32.589844 46.828125 34.8125 38.5 32.835938 C 38.339844 32.796875 38.1875 32.753906 38.027344 32.726562 C 38.039062 32.753906 38.039062 32.785156 38.078125 32.789062 C 42.457031 34.320312 47.394531 34.765625 49.496094 36.957031 C 50.867188 38.523438 51.335938 41.152344 48.449219 42.644531 C 47.917969 42.910156 47.023438 43.382812 45.6875 42.863281 C 44.269531 42.335938 43.039062 40.746094 42.949219 39.539062 C 43.117188 39.71875 43.460938 40.285156 44.1875 40.761719 C 44.710938 41.113281 45.488281 41.402344 45.988281 41.023438 C 46.257812 40.824219 46.625 40.011719 46.589844 39.4375 C 46.488281 37.363281 42.105469 36.976562 38.761719 34.6875 C 38.449219 34.457031 37.4375 33.800781 35.921875 32.273438 C 35.867188 32.441406 35.808594 32.609375 35.734375 32.769531 C 35.6875 32.851562 35.71875 32.9375 35.726562 33.023438 C 35.738281 33.097656 35.730469 33.191406 35.785156 33.261719 C 38.828125 37.773438 37.894531 40.828125 39.105469 42.363281 C 39.703125 43.152344 41.070312 42.855469 41.257812 42.296875 C 41.511719 41.566406 40.921875 40.539062 40.382812 39.988281 C 41.761719 40.347656 43.5625 42.867188 41.9375 44.757812 C 40.59375 46.445312 38.796875 46.257812 37.589844 44.949219 C 35.949219 43.285156 36.433594 38.878906 35.914062 35.125 C 35.902344 35.121094 35.882812 35.113281 35.875 35.109375 C 36.160156 42.503906 33.132812 47.515625 36.300781 48.375 C 36.9375 48.542969 37.164062 47.527344 37.242188 46.875 C 37.347656 45.605469 37.089844 44.660156 37.054688 44.414062 C 37.984375 45.460938 38.929688 50.214844 36.441406 51.890625 C 34.175781 53.476562 32.714844 51.011719 32.402344 49.03125 C 29.089844 50.605469 27.847656 47.664062 28.402344 45.21875 C 28.890625 43.175781 30.660156 40.761719 32.21875 38.433594 C 32.621094 37.835938 34.730469 34.660156 34.894531 33.960938 C 34.800781 33.988281 32.996094 35.960938 29.4375 35.707031 C 26.078125 35.488281 24.734375 33.441406 24.660156 33.402344 C 24.648438 33.589844 24.625 34.386719 24.613281 34.488281 C 24.28125 34.171875 21.207031 30.390625 21.015625 30.382812 C 20.621094 30.402344 20.261719 30.394531 19.941406 30.582031 C 19.460938 30.792969 19.289062 31.488281 19.246094 31.578125 C 19.152344 31.386719 19.117188 31.171875 19.03125 30.976562 C 18.230469 31.410156 13.539062 33.117188 13.179688 32.476562 C 12.902344 31.914062 16.753906 30.039062 18.71875 29.335938 C 18.734375 29.144531 18.785156 28.957031 18.835938 28.769531 C 18.5625 28.769531 16.53125 28.9375 15.828125 28.652344 C 15.558594 28.539062 15.707031 28.382812 15.972656 28.257812 C 16.976562 27.8125 19.242188 27.609375 19.375 27.585938 C 19.328125 27.503906 19.269531 27.433594 19.214844 27.355469 C 19.214844 27.355469 16.617188 26.996094 14.773438 26.457031 C 11.488281 25.503906 12.578125 24.8125 17.230469 25.457031 C 17.351562 25.472656 17.476562 25.488281 17.605469 25.496094 C 17.59375 25.472656 7.164062 22.109375 7.039062 20.863281 C 7.511719 20.441406 10.378906 21.289062 10.738281 21.347656 C 10.730469 21.292969 10.671875 21.285156 10.625 21.257812 C 9.523438 20.726562 8.117188 19.960938 8.085938 19.882812 C 7.894531 19.8125 7.226562 19.355469 7.085938 19.207031 C 6.949219 19.136719 6.460938 18.6875 6.636719 18.539062 C 6.636719 18.53125 6.636719 18.515625 6.636719 18.511719 C 7.117188 18.136719 8.5 18.734375 8.863281 18.617188 C 8.769531 18.566406 8.675781 18.5 8.578125 18.460938 C 8.511719 18.417969 8.417969 18.390625 8.382812 18.320312 C 7.191406 17.835938 4.179688 14.378906 4.335938 11.664062 C 4.347656 11.660156 4.363281 11.652344 4.382812 11.652344 C 4.382812 11.644531 4.386719 11.617188 4.386719 11.605469 Z M 50.675781 29.4375 C 50.273438 29.460938 49.878906 29.527344 49.484375 29.59375 C 48.003906 29.863281 46.589844 30.382812 45.144531 30.792969 C 44.230469 31.054688 43.296875 31.273438 42.355469 31.421875 C 42.328125 31.429688 42.3125 31.441406 42.296875 31.460938 C 42.605469 31.46875 42.90625 31.429688 43.207031 31.417969 C 45.066406 31.3125 46.921875 31.1875 48.785156 31.125 C 49.613281 31.113281 50.4375 31.085938 51.265625 31.121094 C 51.882812 31.125 52.496094 31.179688 53.109375 31.230469 C 53.117188 31.066406 53.039062 30.929688 52.996094 30.78125 C 52.894531 30.523438 52.769531 30.265625 52.585938 30.058594 C 52.386719 29.824219 52.113281 29.660156 51.824219 29.558594 C 51.457031 29.429688 51.0625 29.414062 50.675781 29.4375 Z M 34.125 38.367188 C 34.027344 38.609375 33.9375 38.847656 33.828125 39.078125 C 33.664062 39.488281 33.457031 39.875 33.265625 40.269531 C 33.207031 40.355469 33.160156 40.449219 33.113281 40.550781 C 32.726562 41.285156 32.308594 42.003906 31.945312 42.757812 C 31.761719 43.164062 31.585938 43.5625 31.441406 43.988281 C 31.296875 44.394531 31.179688 44.828125 31.226562 45.261719 C 31.257812 45.664062 31.472656 46.054688 31.808594 46.285156 C 31.960938 46.40625 32.132812 46.515625 32.320312 46.578125 C 32.351562 46.472656 32.351562 46.363281 32.367188 46.253906 C 32.394531 46.011719 32.441406 45.765625 32.46875 45.515625 C 32.785156 43.609375 33.300781 41.738281 33.789062 39.863281 C 33.921875 39.367188 34.0625 38.863281 34.1875 38.363281 C 34.171875 38.363281 34.136719 38.367188 34.125 38.367188 Z M 34.125 38.367188 "/>
</g>
</svg>
