<svg xmlns="http://www.w3.org/2000/svg" xmlns:xlink="http://www.w3.org/1999/xlink" width="64px" height="64px" viewBox="0 0 64 64" version="1.1">
<defs>
<linearGradient id="linear0" gradientUnits="userSpaceOnUse" x1="0" y1="0" x2="0" y2="1" gradientTransform="matrix(55.351351,0,0,55.351351,4.324324,4.324324)">
<stop offset="0" style="stop-color:#ffae00;stop-opacity:1;"/>
<stop offset="0.5" style="stop-color:#dddddd;stop-opacity:1;"/>
<stop offset="1" style="stop-color:#bf1d1d;stop-opacity:1;"/>
</linearGradient>
</defs>
<g id="surface1">
<path style=" stroke:none;fill-rule:nonzero;fill:url(#linear0);" d="M 29.972656 59.460938 C 18.671875 58.394531 8.730469 50.3125 5.761719 39.78125 C 5.410156 38.527344 4.867188 34.957031 4.78125 33.296875 C 4.765625 33.039062 4.679688 33.070312 4.511719 33.421875 C 4.070312 34.328125 4.472656 30.511719 5.03125 28.472656 C 5.3125 27.433594 5.511719 26.539062 5.457031 26.484375 C 5.402344 26.433594 5.171875 26.714844 4.9375 27.113281 C 4.539062 27.789062 4.527344 27.792969 4.679688 27.199219 C 5.105469 25.578125 6.6875 22.226562 7.773438 20.632812 C 8.550781 19.496094 8.976562 18.589844 8.976562 18.089844 C 8.976562 15.902344 10.308594 12.414062 11.796875 10.6875 L 12.554688 9.8125 L 12.734375 11.070312 C 12.851562 11.894531 13.246094 12.8125 13.886719 13.726562 L 14.863281 15.125 L 17.734375 15.28125 C 19.3125 15.363281 20.800781 15.511719 21.039062 15.613281 C 21.328125 15.734375 21.875 15.5 22.6875 14.890625 C 24.230469 13.746094 26.390625 13.109375 27.957031 13.335938 L 29.109375 13.503906 L 27.847656 14.472656 C 26.539062 15.484375 24.917969 17.648438 24.917969 18.394531 C 24.917969 19.039062 25.6875 20.0625 26.460938 20.441406 C 26.835938 20.625 27.875 20.851562 28.773438 20.949219 C 29.671875 21.042969 30.765625 21.242188 31.210938 21.394531 C 31.910156 21.632812 31.996094 21.761719 31.855469 22.335938 C 31.550781 23.585938 30.761719 24.273438 28.164062 25.542969 L 25.570312 26.8125 L 25.523438 28.441406 C 25.460938 30.429688 25.203125 30.753906 24.253906 30.027344 C 23.347656 29.335938 22.792969 29.339844 22.125 30.058594 C 20.582031 31.714844 21.539062 33.847656 24.761719 35.941406 C 25.960938 36.71875 27.753906 36.820312 29.78125 36.21875 C 30.488281 36.011719 31.6875 35.839844 32.445312 35.839844 C 34.609375 35.835938 36.679688 37.085938 36.679688 38.394531 C 36.679688 39.160156 36.242188 39.4375 35.386719 39.21875 C 35.023438 39.125 33.960938 39.5 32.320312 40.300781 C 30.015625 41.433594 29.625 41.539062 27.558594 41.636719 C 26.3125 41.691406 24.839844 41.617188 24.28125 41.460938 C 23.710938 41.3125 23.207031 41.230469 23.152344 41.285156 C 22.875 41.558594 26.011719 44.136719 27.386719 44.761719 C 34.3125 47.910156 42.792969 44.269531 45.039062 37.1875 C 45.679688 35.179688 45.742188 31.902344 45.179688 30.097656 C 44.960938 29.410156 44.789062 28.761719 44.789062 28.648438 C 44.773438 27.972656 47.917969 30.664062 49.144531 32.382812 C 50.238281 33.910156 50.082031 33.234375 48.902344 31.328125 C 47.921875 29.757812 46.625 28.484375 43.097656 25.621094 C 37.828125 21.347656 36.058594 16.988281 37.433594 11.703125 C 38.164062 8.878906 40.578125 4.320312 41.335938 4.324219 C 41.433594 4.324219 41.742188 4.863281 42.015625 5.511719 C 42.367188 6.339844 43.296875 7.433594 45.152344 9.191406 C 46.605469 10.566406 47.863281 11.691406 47.945312 11.691406 C 48.039062 11.691406 48.28125 11.09375 48.488281 10.363281 L 48.875 9.027344 L 49.285156 10.320312 C 49.882812 12.191406 50.5625 13.382812 52.105469 15.253906 C 54.1875 17.769531 55.972656 20.433594 56.835938 22.3125 C 57.742188 24.273438 58.636719 27.242188 58.636719 28.296875 C 58.636719 28.820312 58.738281 28.988281 59 28.894531 C 59.824219 28.585938 59.914062 32.296875 59.164062 35.828125 C 58.820312 37.441406 58.246094 39.03125 57.429688 40.660156 C 56.5 42.488281 56.1875 43.414062 56.136719 44.4375 C 56.054688 46.363281 54.582031 49.175781 52.878906 50.664062 C 52.160156 51.292969 50.664062 52.328125 49.550781 52.960938 C 48.4375 53.597656 46.820312 54.789062 45.957031 55.609375 C 43.523438 57.910156 40.757812 58.96875 35.863281 59.46875 C 33.160156 59.746094 33.027344 59.746094 29.972656 59.460938 Z M 29.972656 59.460938 "/>
</g>
</svg>
