<svg xmlns="http://www.w3.org/2000/svg" xmlns:xlink="http://www.w3.org/1999/xlink" width="64px" height="64px" viewBox="0 0 64 64" version="1.1">
<defs>
<linearGradient id="linear0" gradientUnits="userSpaceOnUse" x1="0" y1="0" x2="0" y2="1" gradientTransform="matrix(55.351351,0,0,55.351351,4.324324,4.324324)">
<stop offset="0" style="stop-color:#ffae00;stop-opacity:1;"/>
<stop offset="0.5" style="stop-color:#dddddd;stop-opacity:1;"/>
<stop offset="1" style="stop-color:#6600ff;stop-opacity:1;"/>
</linearGradient>
</defs>
<g id="surface1">
<path style=" stroke:none;fill-rule:evenodd;fill:url(#linear0);" d="M 12.484375 29.660156 L 12.484375 5.699219 C 12.484375 5.699219 12.476562 5.328125 12.5625 5.179688 C 12.734375 4.855469 13.027344 4.585938 13.375 4.4375 C 13.585938 4.351562 13.828125 4.320312 14.054688 4.324219 C 14.273438 4.328125 14.476562 4.363281 14.605469 4.40625 C 14.957031 4.511719 19.003906 7.203125 23.609375 10.375 C 28.144531 13.5 31.808594 15.988281 31.976562 16.058594 C 31.984375 16.058594 32.097656 16.136719 32.097656 16.136719 C 32.171875 16.136719 36.03125 13.511719 40.6875 10.296875 C 45.988281 6.636719 49.410156 4.460938 49.863281 4.460938 C 50.9375 4.460938 51.238281 4.460938 51.363281 9.238281 L 51.363281 29.621094 L 52.5 30.394531 C 52.5 30.394531 52.511719 30.324219 52.511719 30.324219 L 55.109375 32.125 C 59.636719 35.273438 59.675781 35.3125 59.675781 36.335938 C 59.675781 37.109375 58.3125 38.328125 46.238281 48.363281 C 38.847656 54.5 32.558594 59.585938 32.269531 59.664062 C 32.175781 59.6875 32.042969 59.671875 31.921875 59.664062 C 31.664062 59.652344 31.386719 59.609375 31.179688 59.488281 C 30.082031 58.878906 4.808594 37.511719 4.5 36.9375 C 4.335938 36.617188 4.269531 36.089844 4.375 35.765625 C 4.476562 35.445312 6.339844 33.949219 8.523438 32.445312 L 12.46875 29.71875 L 12.484375 29.710938 Z M 31.921875 16.558594 C 31.929688 16.558594 31.941406 16.550781 31.960938 16.539062 C 31.945312 16.542969 31.933594 16.554688 31.933594 16.554688 C 31.929688 16.558594 31.921875 16.558594 31.921875 16.558594 Z M 32.011719 16.5 C 32.015625 16.5 32.023438 16.488281 32.023438 16.488281 C 32.03125 16.488281 32.03125 16.488281 32.03125 16.488281 L 31.976562 16.523438 Z M 32.011719 16.5 "/>
</g>
</svg>
