<svg xmlns="http://www.w3.org/2000/svg" xmlns:xlink="http://www.w3.org/1999/xlink" width="48px" height="48px" viewBox="0 0 48 48" version="1.1">
<g id="surface1">
<path style=" stroke:none;fill-rule:nonzero;fill:rgb(29.019609%,56.470591%,85.09804%);fill-opacity:1;" d="M 34.269531 12.28125 L 34.269531 24.140625 L 24 30.066406 L 24 18.210938 Z M 34.269531 12.28125 "/>
<path style=" stroke:none;fill-rule:nonzero;fill:rgb(29.019609%,56.470591%,85.09804%);fill-opacity:1;" d="M 24 18.210938 L 24 6.355469 L 13.730469 12.28125 Z M 24 18.210938 "/>
<path style=" stroke:none;fill-rule:nonzero;fill:rgb(29.019609%,56.470591%,85.09804%);fill-opacity:1;" d="M 14.191406 10.570312 C 13.128906 11.179688 12.476562 12.3125 12.476562 13.539062 L 12.476562 22.882812 C 12.476562 24.109375 13.128906 25.238281 14.191406 25.851562 L 22.285156 30.527344 C 23.347656 31.140625 24.652344 31.140625 25.714844 30.527344 L 33.808594 25.851562 C 34.871094 25.238281 35.523438 24.109375 35.523438 22.882812 L 35.523438 13.539062 C 35.523438 12.3125 34.871094 11.179688 33.808594 10.570312 L 25.714844 5.894531 C 24.652344 5.28125 23.347656 5.28125 22.285156 5.894531 Z M 24.460938 8.066406 L 32.554688 12.742188 C 32.835938 12.90625 33.011719 13.210938 33.011719 13.539062 L 33.011719 22.882812 C 33.011719 23.210938 32.835938 23.515625 32.554688 23.679688 L 24.460938 28.351562 C 24.175781 28.515625 23.824219 28.515625 23.539062 28.351562 L 15.445312 23.679688 C 15.164062 23.515625 14.988281 23.210938 14.988281 22.882812 L 14.988281 13.539062 C 14.988281 13.210938 15.164062 12.90625 15.445312 12.742188 L 23.539062 8.066406 C 23.824219 7.90625 24.175781 7.90625 24.460938 8.066406 Z M 24.460938 8.066406 "/>
<path style=" stroke:none;fill-rule:nonzero;fill:rgb(29.019609%,56.470591%,85.09804%);fill-opacity:1;" d="M 13.960938 41.382812 L 14.851562 41.382812 L 14.851562 39.644531 L 16.5625 39.644531 L 16.5625 38.910156 L 14.851562 38.910156 L 14.851562 37.90625 L 16.75 37.90625 L 16.75 37.171875 L 13.960938 37.171875 Z M 13.960938 41.382812 "/>
<path style=" stroke:none;fill-rule:nonzero;fill:rgb(29.019609%,56.470591%,85.09804%);fill-opacity:1;" d="M 18.207031 37.171875 L 17.328125 37.171875 L 17.328125 41.382812 L 18.207031 41.382812 Z M 18.207031 37.171875 "/>
<path style=" stroke:none;fill-rule:nonzero;fill:rgb(29.019609%,56.470591%,85.09804%);fill-opacity:1;" d="M 19.804688 41.441406 C 20.269531 41.441406 20.574219 41.238281 20.726562 40.945312 L 20.75 40.945312 L 20.75 41.382812 L 21.582031 41.382812 L 21.582031 39.253906 C 21.582031 38.5 20.945312 38.183594 20.242188 38.183594 C 19.484375 38.183594 18.988281 38.546875 18.867188 39.121094 L 19.675781 39.1875 C 19.734375 38.976562 19.921875 38.824219 20.238281 38.824219 C 20.535156 38.824219 20.707031 38.972656 20.707031 39.230469 L 20.707031 39.246094 C 20.707031 39.449219 20.488281 39.472656 19.941406 39.527344 C 19.316406 39.585938 18.757812 39.796875 18.757812 40.5 C 18.757812 41.125 19.203125 41.441406 19.804688 41.441406 Z M 20.054688 40.835938 C 19.785156 40.835938 19.59375 40.710938 19.59375 40.472656 C 19.59375 40.222656 19.796875 40.101562 20.105469 40.058594 C 20.292969 40.035156 20.605469 39.988281 20.710938 39.917969 L 20.710938 40.253906 C 20.710938 40.585938 20.4375 40.835938 20.054688 40.835938 Z M 20.054688 40.835938 "/>
<path style=" stroke:none;fill-rule:nonzero;fill:rgb(29.019609%,56.470591%,85.09804%);fill-opacity:1;" d="M 23.941406 38.226562 L 23.347656 38.226562 L 23.347656 37.46875 L 22.472656 37.46875 L 22.472656 38.226562 L 22.039062 38.226562 L 22.039062 38.882812 L 22.472656 38.882812 L 22.472656 40.527344 C 22.46875 41.144531 22.886719 41.453125 23.523438 41.425781 C 23.75 41.417969 23.910156 41.371094 23.996094 41.34375 L 23.859375 40.691406 C 23.816406 40.699219 23.722656 40.71875 23.640625 40.71875 C 23.46875 40.71875 23.347656 40.652344 23.347656 40.410156 L 23.347656 38.882812 L 23.941406 38.882812 Z M 23.941406 38.226562 "/>
<path style=" stroke:none;fill-rule:nonzero;fill:rgb(29.019609%,56.470591%,85.09804%);fill-opacity:1;" d="M 24.507812 42.566406 L 25.382812 42.566406 L 25.382812 40.875 L 25.410156 40.875 C 25.53125 41.140625 25.796875 41.433594 26.308594 41.433594 C 27.027344 41.433594 27.585938 40.863281 27.585938 39.808594 C 27.585938 38.722656 27 38.183594 26.308594 38.183594 C 25.78125 38.183594 25.527344 38.5 25.410156 38.753906 L 25.371094 38.753906 L 25.371094 38.226562 L 24.507812 38.226562 Z M 25.367188 39.804688 C 25.367188 39.242188 25.605469 38.878906 26.03125 38.878906 C 26.464844 38.878906 26.695312 39.257812 26.695312 39.804688 C 26.695312 40.355469 26.460938 40.734375 26.03125 40.734375 C 25.609375 40.734375 25.367188 40.367188 25.367188 39.804688 Z M 25.367188 39.804688 "/>
<path style=" stroke:none;fill-rule:nonzero;fill:rgb(29.019609%,56.470591%,85.09804%);fill-opacity:1;" d="M 29.070312 41.441406 C 29.535156 41.441406 29.835938 41.238281 29.992188 40.945312 L 30.015625 40.945312 L 30.015625 41.382812 L 30.847656 41.382812 L 30.847656 39.253906 C 30.847656 38.5 30.210938 38.183594 29.507812 38.183594 C 28.75 38.183594 28.253906 38.546875 28.132812 39.121094 L 28.941406 39.1875 C 29 38.976562 29.1875 38.824219 29.503906 38.824219 C 29.800781 38.824219 29.972656 38.972656 29.972656 39.230469 L 29.972656 39.246094 C 29.972656 39.449219 29.753906 39.472656 29.207031 39.527344 C 28.582031 39.585938 28.019531 39.796875 28.019531 40.5 C 28.019531 41.125 28.464844 41.441406 29.070312 41.441406 Z M 29.320312 40.835938 C 29.050781 40.835938 28.855469 40.710938 28.855469 40.472656 C 28.855469 40.222656 29.058594 40.101562 29.367188 40.058594 C 29.558594 40.035156 29.871094 39.988281 29.976562 39.917969 L 29.976562 40.253906 C 29.976562 40.585938 29.703125 40.835938 29.320312 40.835938 Z M 29.320312 40.835938 "/>
<path style=" stroke:none;fill-rule:nonzero;fill:rgb(29.019609%,56.470591%,85.09804%);fill-opacity:1;" d="M 31.527344 41.382812 L 32.402344 41.382812 L 32.402344 40.378906 L 32.636719 40.109375 L 33.5 41.382812 L 34.523438 41.382812 L 33.292969 39.589844 L 34.464844 38.226562 L 33.460938 38.226562 L 32.449219 39.421875 L 32.402344 39.421875 L 32.402344 37.171875 L 31.527344 37.171875 Z M 31.527344 41.382812 "/>
</g>
</svg>
