<svg xmlns="http://www.w3.org/2000/svg" xmlns:xlink="http://www.w3.org/1999/xlink" width="64px" height="64px" viewBox="0 0 64 64" version="1.1">
<defs>
<linearGradient id="linear0" gradientUnits="userSpaceOnUse" x1="0" y1="0" x2="0" y2="1" gradientTransform="matrix(55.351351,0,0,55.351351,4.324324,4.324324)">
<stop offset="0" style="stop-color:#00a2ff;stop-opacity:1;"/>
<stop offset="0.5" style="stop-color:#dddddd;stop-opacity:1;"/>
<stop offset="1" style="stop-color:#00ffae;stop-opacity:1;"/>
</linearGradient>
</defs>
<g id="surface1">
<path style=" stroke:none;fill-rule:nonzero;fill:url(#linear0);" d="M 59.675781 7.214844 C 59.675781 9.515625 57.707031 12.632812 53.773438 16.566406 L 44.265625 26.078125 L 49.933594 55.636719 L 49.96875 55.875 C 49.96875 56.242188 49.851562 56.542969 49.613281 56.789062 L 47.078125 59.320312 C 46.835938 59.558594 46.539062 59.675781 46.164062 59.675781 C 45.613281 59.675781 45.226562 59.4375 45.011719 58.960938 L 34.160156 36.179688 L 24.449219 45.886719 C 26.246094 52.175781 27.144531 55.503906 27.144531 55.875 C 27.144531 56.242188 27.027344 56.542969 26.789062 56.78125 L 24.253906 59.320312 C 24.015625 59.558594 23.710938 59.675781 23.339844 59.675781 C 22.863281 59.675781 22.496094 59.460938 22.234375 59.039062 L 16.09375 47.945312 L 5 41.808594 C 4.550781 41.566406 4.324219 41.199219 4.324219 40.691406 C 4.324219 40.324219 4.441406 40.023438 4.679688 39.785156 L 7.214844 37.210938 C 7.457031 36.972656 7.757812 36.855469 8.125 36.855469 C 8.496094 36.855469 11.828125 37.753906 18.113281 39.550781 L 27.8125 29.839844 L 5.039062 18.984375 C 4.5625 18.769531 4.324219 18.386719 4.324219 17.835938 C 4.324219 17.460938 4.441406 17.164062 4.679688 16.921875 L 7.214844 14.386719 C 7.457031 14.148438 7.757812 14.03125 8.125 14.03125 C 8.234375 14.03125 8.3125 14.042969 8.363281 14.066406 L 37.921875 19.734375 L 47.433594 10.230469 C 51.367188 6.292969 54.488281 4.324219 56.78125 4.324219 C 57.625 4.324219 58.320312 4.59375 58.863281 5.136719 C 59.40625 5.675781 59.675781 6.367188 59.675781 7.214844 Z M 59.675781 7.214844 "/>
</g>
</svg>
