<svg xmlns="http://www.w3.org/2000/svg" xmlns:xlink="http://www.w3.org/1999/xlink" width="64px" height="64px" viewBox="0 0 64 64" version="1.1">
<defs>
<linearGradient id="linear0" gradientUnits="userSpaceOnUse" x1="0" y1="0" x2="0" y2="1" gradientTransform="matrix(41.756757,0,0,55.351351,11.121621,4.324324)">
<stop offset="0" style="stop-color:#00fff2;stop-opacity:1;"/>
<stop offset="0.5" style="stop-color:#dddddd;stop-opacity:1;"/>
<stop offset="1" style="stop-color:#0062ff;stop-opacity:1;"/>
</linearGradient>
</defs>
<g id="surface1">
<path style=" stroke:none;fill-rule:nonzero;fill:url(#linear0);" d="M 18.59375 4.324219 C 17.824219 5.269531 17.355469 6.058594 16.46875 7 C 13.515625 10.148438 13.996094 12.164062 16.335938 14.363281 C 16.738281 14.742188 15.429688 16.097656 14.976562 17.875 C 15.855469 18.585938 16.082031 19.664062 16.882812 20.488281 C 17.753906 19.414062 19.753906 16.996094 20.363281 16.351562 C 20.363281 16.351562 21.644531 14.324219 20.042969 12.421875 C 18.886719 11.269531 18.59375 8.582031 18.664062 5.917969 C 18.734375 5.742188 18.570312 4.773438 18.59375 4.324219 Z M 25.984375 6.5 C 24.867188 6.5 24.757812 6.894531 25.144531 9.328125 C 25.707031 12.847656 24.484375 16.066406 21.738281 18.09375 C 20.59375 18.941406 18.269531 21.792969 18.269531 22.164062 C 18.269531 22.496094 12.988281 23.863281 14.515625 25.835938 C 14.742188 26.121094 11.875 28.078125 15.136719 26.648438 C 17.855469 25.460938 19.378906 32.511719 20.421875 34.539062 L 22.3125 38.210938 L 20.632812 41.488281 C 18.179688 46.273438 18.890625 47.839844 14.273438 52.523438 C 13.554688 53.253906 13.671875 54.152344 13.105469 53.78125 C 9.058594 51.117188 12.753906 54.976562 12.5 55.328125 C 10.660156 51.476562 11.191406 57.488281 11.191406 57.496094 C 12.949219 59.429688 16.21875 59.738281 18.796875 59.664062 C 23.085938 59.6875 24.96875 56.800781 26.230469 54.652344 C 29.917969 48.347656 34.675781 43.3125 36.179688 43.890625 C 36.835938 44.144531 39.207031 46.90625 41.445312 50.023438 C 43.691406 53.136719 45.847656 55.589844 46.238281 55.476562 C 47.5 55.109375 48.988281 51.914062 48.988281 48.855469 C 48.988281 44.8125 48.285156 43.863281 47.058594 42.671875 C 46.144531 41.773438 46.707031 41.308594 45.847656 40.042969 C 44.335938 37.847656 43.605469 38.523438 44.726562 36.160156 C 45.367188 34.800781 45.394531 34.152344 47.078125 32.78125 C 51.230469 29.378906 53.597656 22.308594 52.679688 18.972656 C 52.300781 17.597656 51.664062 15.855469 51.089844 15.089844 C 50.105469 13.789062 50.039062 13.863281 50.015625 16.363281 C 50 18.550781 44.472656 21.0625 43.296875 21.0625 C 43.175781 21.0625 43.054688 21.085938 42.917969 21.125 C 41.886719 22.757812 41.039062 23.78125 40.382812 24.988281 C 37.179688 29.488281 38.230469 29.429688 37.039062 29.429688 C 35.835938 29.429688 33.230469 26.3125 29.972656 21.417969 C 29.71875 21.039062 28.578125 20.6875 28.394531 20.355469 C 28.308594 20.1875 28.246094 20.042969 28.179688 19.894531 C 28.160156 19.835938 28.132812 19.785156 28.105469 19.730469 C 28.058594 19.632812 27.996094 19.515625 27.960938 19.421875 C 27.863281 19.164062 27.8125 18.941406 27.773438 18.71875 C 27.773438 18.714844 27.769531 18.707031 27.769531 18.699219 C 27.765625 18.679688 27.757812 18.664062 27.757812 18.636719 C 27.753906 18.617188 27.757812 18.589844 27.757812 18.566406 C 27.734375 18.367188 27.734375 18.1875 27.765625 18.011719 C 27.769531 17.996094 27.765625 17.976562 27.769531 17.960938 C 27.808594 17.78125 27.882812 17.609375 27.984375 17.445312 C 27.984375 17.441406 27.988281 17.4375 27.988281 17.433594 C 27.996094 17.417969 28 17.402344 28.011719 17.386719 C 28.121094 17.21875 28.273438 17.066406 28.457031 16.929688 C 28.460938 16.921875 28.460938 16.917969 28.46875 16.914062 C 28.46875 16.914062 28.472656 16.914062 28.472656 16.914062 C 28.863281 16.617188 29.394531 16.367188 30.089844 16.160156 C 30.257812 16.214844 30.410156 16.261719 30.585938 16.328125 L 32.949219 16.328125 C 33.039062 16.054688 33.050781 15.726562 33 15.292969 C 32.753906 13.1875 27.710938 6.5 25.984375 6.5 Z M 43.808594 6.5 C 42.847656 6.5 38.496094 13.148438 38.699219 15.515625 C 38.882812 17.699219 38.46875 17.734375 39.417969 17.617188 C 40.257812 17.511719 42.457031 17.527344 42.878906 16.738281 C 43.164062 16.203125 44.015625 10.972656 44.296875 9.863281 C 45.085938 6.738281 45.054688 6.5 43.808594 6.5 Z M 43.808594 6.5 "/>
</g>
</svg>
