<svg xmlns="http://www.w3.org/2000/svg" xmlns:xlink="http://www.w3.org/1999/xlink" width="64px" height="64px" viewBox="0 0 64 64" version="1.1">
<defs>
<linearGradient id="linear0" gradientUnits="userSpaceOnUse" x1="0" y1="0" x2="0" y2="1" gradientTransform="matrix(55.351351,0,0,54.27928,4.324324,4.860361)">
<stop offset="0" style="stop-color:#ff8963;stop-opacity:1;"/>
<stop offset="0.5" style="stop-color:#dddddd;stop-opacity:1;"/>
<stop offset="1" style="stop-color:#0F6FFF;stop-opacity:1;"/>
</linearGradient>
</defs>
<g id="surface1">
<path style=" stroke:none;fill-rule:nonzero;fill:url(#linear0);" d="M 38.539062 57.585938 C 41.40625 57.585938 44.03125 56.632812 45.347656 54.988281 C 48.566406 58.242188 51.585938 59.136719 54.179688 59.136719 C 58.363281 59.136719 59.675781 56.484375 59.675781 54.71875 C 59.675781 52.511719 58.269531 50.960938 56.152344 50.960938 C 53.855469 50.960938 54.988281 56.210938 51.734375 56.210938 C 49.078125 56.210938 46.867188 49.199219 45.761719 43.078125 L 51.496094 43.078125 C 52.152344 43.078125 52.269531 42.597656 52.269531 42.089844 C 52.269531 40.714844 51.644531 39.554688 50.511719 39.554688 L 44.867188 39.554688 C 44.867188 39.554688 42.273438 27.28125 40.363281 19.609375 C 37.785156 9.292969 29.878906 6.414062 24.921875 6.414062 C 22.566406 6.414062 20.058594 7.253906 18.386719 8.984375 C 16.148438 6.6875 12.742188 4.863281 9.097656 4.863281 C 7.3125 4.863281 4.324219 6.054688 4.324219 8.324219 C 4.324219 9.609375 5.609375 11.550781 6.984375 11.550781 C 9.402344 11.550781 9.699219 8.921875 12.414062 8.921875 C 13.730469 8.921875 14.636719 9.285156 15.730469 13.21875 C 18.117188 21.851562 21.730469 39.554688 21.730469 39.554688 L 17.460938 39.554688 C 16.773438 39.554688 16.6875 39.972656 16.6875 40.417969 C 16.6875 41.613281 17.132812 43.078125 18.652344 43.078125 L 22.625 43.078125 C 24.808594 50.570312 29.636719 57.585938 38.539062 57.585938 Z M 36.210938 54.597656 C 32 54.597656 30.089844 47.613281 29.164062 43.078125 L 39.136719 43.078125 C 39.851562 45.824219 41.042969 48.632812 42.328125 50.929688 C 40.894531 53.199219 38.417969 54.597656 36.210938 54.597656 Z M 27.253906 10.058594 C 29.582031 10.058594 31.433594 10.835938 32.566406 14.890625 C 35.253906 24.566406 38.238281 39.554688 38.238281 39.554688 L 28.386719 39.554688 C 26.957031 32.945312 25.378906 25.824219 23.996094 20.476562 C 23.050781 16.835938 22.257812 14.792969 21.433594 13.070312 C 23.136719 11.070312 25.339844 10.058594 27.253906 10.058594 Z M 27.253906 10.058594 "/>
</g>
</svg>
