<svg xmlns="http://www.w3.org/2000/svg" xmlns:xlink="http://www.w3.org/1999/xlink" width="64px" height="64px" viewBox="0 0 64 64" version="1.1">
<defs>
<linearGradient id="linear0" gradientUnits="userSpaceOnUse" x1="0" y1="0" x2="0" y2="1" gradientTransform="matrix(55.351351,0,0,55.351351,4.324324,4.324324)">
<stop offset="0" style="stop-color:#00b7ff;stop-opacity:1;"/>
<stop offset="0.5" style="stop-color:#dddddd;stop-opacity:1;"/>
<stop offset="1" style="stop-color:#ee42d9;stop-opacity:1;"/>
</linearGradient>
</defs>
<g id="surface1">
<path style=" stroke:none;fill-rule:nonzero;fill:url(#linear0);" d="M 32 4.328125 C 16.71875 4.328125 4.324219 16.71875 4.324219 32 C 4.324219 47.28125 16.71875 59.675781 32 59.675781 C 47.28125 59.675781 59.675781 47.28125 59.675781 32 C 59.675781 16.71875 47.273438 4.324219 32 4.324219 Z M 24.839844 9.789062 L 23.703125 11.886719 L 32 15.460938 L 40.300781 11.882812 L 39.152344 9.789062 C 43.882812 11.324219 47.996094 14.328125 50.902344 18.363281 L 48.539062 17.886719 L 47.726562 26.867188 L 53.664062 33.6875 L 55.355469 31.863281 L 55.355469 32 C 55.355469 37.1875 53.644531 41.957031 50.765625 45.835938 L 50.496094 43.40625 L 41.71875 45.367188 L 37.132812 53.125 L 39.289062 54.136719 C 36.941406 54.929688 34.484375 55.335938 32 55.355469 C 29.515625 55.335938 27.058594 54.929688 24.710938 54.136719 L 26.867188 53.125 L 22.28125 45.367188 L 13.503906 43.40625 L 13.234375 45.835938 C 10.253906 41.835938 8.644531 36.988281 8.644531 32 L 8.644531 31.863281 L 10.335938 33.6875 L 16.273438 26.867188 L 15.460938 17.890625 L 13.097656 18.363281 C 16.011719 14.335938 20.121094 11.328125 24.847656 9.796875 Z M 32 22.746094 L 22.28125 29.839844 L 25.996094 41.246094 L 38.003906 41.246094 L 41.71875 29.839844 Z M 32 22.746094 "/>
</g>
</svg>
