<svg xmlns="http://www.w3.org/2000/svg" xmlns:xlink="http://www.w3.org/1999/xlink" width="64px" height="64px" viewBox="0 0 64 64" version="1.1">
<defs>
<linearGradient id="linear0" gradientUnits="userSpaceOnUse" x1="0" y1="0" x2="0" y2="1" gradientTransform="matrix(39.891892,0,0,55.351351,12.054054,4.324324)">
<stop offset="0" style="stop-color:#05f7ff;stop-opacity:1;"/>
<stop offset="0.5" style="stop-color:#dddddd;stop-opacity:1;"/>
<stop offset="1" style="stop-color:#e6ff05;stop-opacity:1;"/>
</linearGradient>
</defs>
<g id="surface1">
<path style=" stroke:none;fill-rule:nonzero;fill:url(#linear0);" d="M 17.113281 4.324219 C 14.339844 4.324219 12.054688 6.613281 12.054688 9.378906 L 12.054688 56.6875 C 12.054688 57.96875 12.960938 59.136719 14.027344 59.523438 C 15.210938 59.902344 16.5 59.5625 17.347656 58.652344 L 33.296875 39.703125 L 41.984375 39.703125 C 44.402344 39.675781 46.476562 37.96875 46.960938 35.597656 L 51.855469 10.324219 C 52.449219 7.253906 50.011719 4.324219 46.878906 4.324219 Z M 17.113281 9.378906 L 46.878906 9.378906 L 44.90625 19.488281 L 28.402344 19.488281 C 27.757812 19.5 27.234375 20.023438 27.21875 20.671875 L 27.21875 23.355469 C 27.21875 23.988281 27.769531 24.539062 28.402344 24.539062 L 43.960938 24.539062 L 41.984375 34.648438 L 32.039062 34.648438 C 31.28125 34.632812 30.554688 34.945312 30.058594 35.515625 L 17.113281 51.078125 Z M 17.113281 9.378906 "/>
</g>
</svg>
