<svg xmlns="http://www.w3.org/2000/svg" xmlns:xlink="http://www.w3.org/1999/xlink" width="64px" height="64px" viewBox="0 0 64 64" version="1.1">
<defs>
<linearGradient id="linear0" gradientUnits="userSpaceOnUse" x1="0" y1="0" x2="0" y2="1" gradientTransform="matrix(51.891892,0,0,51.891892,6.054054,6.054054)">
<stop offset="0" style="stop-color:#00fff2;stop-opacity:1;"/>
<stop offset="0.5" style="stop-color:#dddddd;stop-opacity:1;"/>
<stop offset="1" style="stop-color:#0062ff;stop-opacity:1;"/>
</linearGradient>
</defs>
<g id="surface1">
<path style=" stroke:none;fill-rule:evenodd;fill:url(#linear0);" d="M 57.945312 24.136719 C 53.082031 3.578125 34.40625 3.746094 23.132812 9.117188 C 11.265625 15.113281 2.671875 30.488281 7.355469 43.355469 C 14.597656 62.773438 41.265625 62.484375 50.289062 44.421875 C 52.96875 37.800781 54.933594 33.105469 47.566406 26.8125 L 47.566406 34.59375 L 44.972656 29.40625 C 44.972656 29.40625 42.671875 34.847656 40.226562 37.328125 C 36.820312 40.785156 32 39.785156 32 39.785156 C 32.910156 43.21875 39.785156 44.972656 39.785156 44.972656 C 21.941406 53.417969 21.417969 39.300781 21.621094 35.890625 C 22.207031 26.070312 30.097656 18.449219 40.5 19 C 43.8125 19.253906 50.164062 21.621094 50.164062 21.621094 C 47.773438 16.164062 44.375 14.863281 42.378906 13.835938 C 50.207031 11.246094 54.386719 19.421875 57.945312 24.132812 Z M 57.945312 24.136719 "/>
</g>
</svg>
