<svg xmlns="http://www.w3.org/2000/svg" xmlns:xlink="http://www.w3.org/1999/xlink" width="64px" height="64px" viewBox="0 0 64 64" version="1.1">
<defs>
<linearGradient id="linear0" gradientUnits="userSpaceOnUse" x1="0" y1="0" x2="0" y2="1" gradientTransform="matrix(38.459459,0,0,51.891892,12.972973,6.054054)">
<stop offset="0" style="stop-color:#ffae00;stop-opacity:1;"/>
<stop offset="0.5" style="stop-color:#dddddd;stop-opacity:1;"/>
<stop offset="1" style="stop-color:#6600ff;stop-opacity:1;"/>
</linearGradient>
</defs>
<g id="surface1">
<path style=" stroke:none;fill-rule:nonzero;fill:url(#linear0);" d="M 27.882812 57.863281 C 25.605469 57.644531 21.160156 56.855469 20.921875 56.625 C 20.769531 56.472656 21.144531 56.066406 21.617188 55.882812 C 21.890625 55.769531 22.671875 55.59375 23.339844 55.488281 C 27.800781 54.8125 29.558594 53.765625 30.300781 51.363281 C 30.835938 49.625 31.191406 43.621094 31.175781 36.585938 C 31.164062 31.078125 31.042969 28.886719 30.707031 27.589844 C 30.613281 27.214844 30.550781 26.902344 30.566406 26.882812 C 30.585938 26.863281 30.894531 26.929688 31.265625 27.027344 C 31.960938 27.214844 33.023438 27.171875 33.460938 26.9375 C 33.589844 26.867188 33.726562 26.835938 33.761719 26.867188 C 33.796875 26.90625 33.734375 27.324219 33.625 27.800781 C 33.328125 29.105469 33.203125 31.808594 33.199219 36.890625 C 33.191406 42.71875 33.542969 49.3125 33.941406 50.984375 C 34.105469 51.644531 34.53125 52.539062 34.960938 53.097656 C 35.789062 54.1875 37.761719 55 40.671875 55.445312 C 42.402344 55.714844 43.238281 56 43.449219 56.402344 C 43.570312 56.621094 43.539062 56.660156 43.132812 56.773438 C 42.1875 57.039062 39.71875 57.503906 38.265625 57.691406 C 36.511719 57.929688 29.738281 58.039062 27.882812 57.863281 Z M 31.542969 26.585938 C 30.53125 26.382812 30.136719 26.066406 29.082031 24.632812 C 26.214844 20.71875 23.023438 17.109375 16.8125 10.738281 C 14.789062 8.664062 13.082031 6.867188 13.015625 6.757812 C 12.933594 6.597656 12.960938 6.515625 13.164062 6.414062 C 14.054688 5.9375 50.28125 5.933594 51.171875 6.410156 C 51.3125 6.488281 51.433594 6.613281 51.433594 6.6875 C 51.433594 6.769531 50.085938 8.191406 48.4375 9.855469 C 42.40625 15.945312 38.828125 19.960938 35.6875 24.171875 C 34.578125 25.664062 34.292969 25.972656 33.761719 26.246094 C 33.054688 26.613281 32.285156 26.730469 31.542969 26.585938 Z M 31.542969 26.585938 "/>
</g>
</svg>
