<svg xmlns="http://www.w3.org/2000/svg" xmlns:xlink="http://www.w3.org/1999/xlink" width="64px" height="64px" viewBox="0 0 64 64" version="1.1">
<defs>
<linearGradient id="linear0" gradientUnits="userSpaceOnUse" x1="0" y1="0" x2="0" y2="1" gradientTransform="matrix(55.351351,0,0,49.810811,4.324324,7.094595)">
<stop offset="0" style="stop-color:#05f7ff;stop-opacity:1;"/>
<stop offset="0.5" style="stop-color:#dddddd;stop-opacity:1;"/>
<stop offset="1" style="stop-color:#e6ff05;stop-opacity:1;"/>
</linearGradient>
</defs>
<g id="surface1">
<path style=" stroke:none;fill-rule:nonzero;fill:url(#linear0);" d="M 4.324219 7.09375 C 4.78125 12.089844 8.410156 13.238281 8.609375 18.570312 C 8.710938 20.828125 5.753906 26.003906 5.785156 29 C 5.796875 30.417969 6.496094 31.753906 7.664062 32.570312 C 9.878906 34.132812 14.515625 34.769531 20.714844 34.769531 L 21.085938 34.769531 C 15.855469 34.769531 11.933594 36.152344 10.058594 37.402344 C 9.070312 38.058594 8.488281 39.121094 8.484375 40.257812 C 8.707031 47.855469 9.765625 56.671875 18.472656 56.90625 C 25.242188 56.828125 28.324219 49.707031 29.671875 43.09375 C 29.671875 43.097656 29.675781 43.097656 29.675781 43.105469 C 29.894531 43.460938 30.1875 43.761719 30.542969 43.988281 C 30.617188 44.039062 30.679688 44.085938 30.757812 44.132812 C 30.863281 44.1875 30.972656 44.230469 31.085938 44.269531 C 31.375 44.378906 31.675781 44.457031 32 44.457031 C 32.324219 44.457031 32.625 44.378906 32.910156 44.269531 C 33.027344 44.230469 33.136719 44.1875 33.242188 44.132812 C 33.320312 44.085938 33.382812 44.039062 33.449219 43.988281 C 33.8125 43.761719 34.105469 43.460938 34.324219 43.105469 C 34.324219 43.097656 34.328125 43.097656 34.328125 43.09375 C 35.675781 49.707031 38.757812 56.828125 45.527344 56.90625 C 54.234375 56.671875 55.292969 47.855469 55.515625 40.257812 C 55.511719 39.121094 54.929688 38.058594 53.9375 37.402344 C 52.066406 36.152344 48.144531 34.769531 42.910156 34.769531 L 43.285156 34.769531 C 49.484375 34.769531 54.121094 34.132812 56.335938 32.570312 C 57.503906 31.753906 58.203125 30.417969 58.214844 29 C 58.246094 26.003906 55.289062 20.828125 55.390625 18.570312 C 55.589844 13.238281 59.21875 12.089844 59.675781 7.09375 C 47.339844 7.09375 37.933594 22.285156 34.699219 30.40625 C 34.679688 30.363281 34.671875 30.335938 34.652344 30.296875 C 34.542969 30.03125 34.460938 29.78125 34.429688 29.5625 C 34.421875 29.558594 34.429688 29.558594 34.429688 29.554688 C 34.257812 28.375 35.085938 27.800781 35.652344 26.851562 C 35.6875 26.800781 35.71875 26.761719 35.753906 26.710938 C 35.863281 26.5 35.960938 26.261719 36.03125 26 C 36.109375 25.726562 36.152344 25.421875 36.152344 25.078125 C 36.152344 23.933594 35.6875 22.902344 34.9375 22.148438 C 35.082031 20.5 35.328125 18.742188 35.839844 17.132812 C 36.269531 15.800781 36.847656 14.636719 37.582031 13.839844 C 38.3125 13.050781 39.148438 12.605469 40.289062 12.621094 L 40.3125 11.246094 C 38.785156 11.230469 37.496094 11.890625 36.5625 12.90625 C 35.625 13.917969 34.988281 15.265625 34.527344 16.714844 C 34.054688 18.1875 33.769531 19.769531 33.597656 21.257812 C 33.109375 21.050781 32.566406 20.933594 32 20.933594 C 31.433594 20.933594 30.890625 21.042969 30.402344 21.253906 C 30.230469 19.765625 29.949219 18.1875 29.484375 16.714844 C 29.015625 15.265625 28.382812 13.917969 27.445312 12.90625 C 26.511719 11.890625 25.230469 11.230469 23.699219 11.246094 L 23.714844 12.621094 C 24.855469 12.605469 25.691406 13.050781 26.429688 13.839844 C 27.160156 14.636719 27.738281 15.800781 28.164062 17.132812 C 28.679688 18.742188 28.917969 20.496094 29.066406 22.136719 C 29.066406 22.144531 29.066406 22.148438 29.066406 22.148438 C 28.691406 22.523438 28.386719 22.960938 28.175781 23.460938 C 27.960938 23.960938 27.847656 24.503906 27.847656 25.070312 C 27.847656 25.421875 27.890625 25.726562 27.960938 26 C 28.039062 26.261719 28.136719 26.5 28.246094 26.707031 C 28.28125 26.761719 28.3125 26.800781 28.339844 26.851562 C 28.914062 27.800781 29.742188 28.375 29.570312 29.554688 C 29.570312 29.558594 29.578125 29.558594 29.570312 29.558594 C 29.539062 29.78125 29.457031 30.03125 29.347656 30.296875 C 29.328125 30.335938 29.320312 30.363281 29.300781 30.40625 C 26.066406 22.285156 16.660156 7.09375 4.324219 7.09375 Z M 11.242188 11.238281 C 11.613281 11.234375 11.960938 11.382812 12.226562 11.644531 C 12.488281 11.90625 12.632812 12.261719 12.625 12.625 C 12.632812 12.996094 12.484375 13.347656 12.226562 13.609375 C 11.960938 13.867188 11.613281 14.011719 11.242188 14.011719 C 10.875 14.011719 10.523438 13.867188 10.261719 13.609375 C 10.003906 13.347656 9.855469 12.996094 9.863281 12.625 C 9.855469 12.261719 10 11.90625 10.261719 11.644531 C 10.523438 11.382812 10.875 11.234375 11.242188 11.238281 Z M 52.757812 11.238281 C 53.125 11.234375 53.476562 11.382812 53.738281 11.644531 C 54 11.90625 54.144531 12.261719 54.144531 12.625 C 54.144531 12.996094 53.996094 13.347656 53.738281 13.609375 C 53.476562 13.867188 53.125 14.011719 52.757812 14.011719 C 52.386719 14.011719 52.039062 13.867188 51.773438 13.609375 C 51.515625 13.347656 51.367188 12.996094 51.367188 12.625 C 51.367188 12.261719 51.511719 11.90625 51.773438 11.644531 C 52.039062 11.382812 52.386719 11.234375 52.757812 11.238281 Z M 15.972656 17.644531 C 16.011719 17.636719 16.050781 17.636719 16.085938 17.644531 C 17.234375 17.644531 18.164062 18.570312 18.164062 19.714844 C 18.164062 20.265625 17.945312 20.796875 17.558594 21.1875 C 17.164062 21.578125 16.636719 21.796875 16.085938 21.796875 C 15.539062 21.796875 15.003906 21.582031 14.613281 21.1875 C 14.226562 20.796875 14.003906 20.269531 14.003906 19.714844 C 14.003906 18.613281 14.867188 17.699219 15.972656 17.644531 Z M 47.800781 17.644531 C 47.835938 17.636719 47.878906 17.636719 47.910156 17.644531 C 48.460938 17.636719 48.988281 17.863281 49.382812 18.246094 C 49.773438 18.636719 49.988281 19.164062 49.996094 19.714844 C 49.996094 20.269531 49.773438 20.796875 49.386719 21.1875 C 48.996094 21.582031 48.460938 21.796875 47.910156 21.796875 C 47.363281 21.796875 46.835938 21.578125 46.441406 21.1875 C 46.054688 20.796875 45.835938 20.265625 45.835938 19.714844 C 45.835938 18.613281 46.703125 17.699219 47.800781 17.644531 Z M 12.625 25.078125 C 13.363281 25.070312 14.070312 25.363281 14.589844 25.886719 C 15.109375 26.410156 15.402344 27.117188 15.402344 27.851562 C 15.394531 29.378906 14.160156 30.617188 12.625 30.617188 C 11.097656 30.617188 9.863281 29.378906 9.863281 27.851562 C 9.855469 27.117188 10.148438 26.410156 10.664062 25.886719 C 11.1875 25.363281 11.890625 25.070312 12.625 25.078125 Z M 51.367188 25.078125 C 52.109375 25.070312 52.8125 25.363281 53.335938 25.886719 C 53.851562 26.410156 54.144531 27.117188 54.144531 27.851562 C 54.136719 29.378906 52.902344 30.617188 51.367188 30.617188 C 49.839844 30.617188 48.605469 29.378906 48.597656 27.851562 C 48.597656 27.117188 48.890625 26.410156 49.410156 25.886719 C 49.929688 25.363281 50.636719 25.070312 51.367188 25.078125 Z M 14.554688 40.308594 C 14.605469 40.300781 14.652344 40.300781 14.703125 40.308594 C 15.847656 40.308594 16.773438 41.230469 16.78125 42.375 C 16.78125 42.921875 16.558594 43.449219 16.171875 43.839844 C 15.785156 44.234375 15.253906 44.449219 14.703125 44.449219 C 14.152344 44.449219 13.621094 44.234375 13.234375 43.839844 C 12.847656 43.449219 12.625 42.921875 12.625 42.375 C 12.632812 41.285156 13.46875 40.382812 14.554688 40.308594 Z M 49.148438 40.308594 C 49.199219 40.300781 49.246094 40.300781 49.296875 40.308594 C 50.441406 40.308594 51.367188 41.230469 51.375 42.375 C 51.375 42.921875 51.152344 43.449219 50.765625 43.839844 C 50.378906 44.234375 49.847656 44.449219 49.296875 44.449219 C 48.746094 44.449219 48.214844 44.234375 47.828125 43.839844 C 47.441406 43.449219 47.21875 42.921875 47.226562 42.375 C 47.226562 41.285156 48.0625 40.382812 49.148438 40.308594 Z M 18.164062 48.609375 C 19.6875 48.609375 20.921875 49.847656 20.921875 51.367188 C 20.929688 52.902344 19.6875 54.136719 18.164062 54.144531 C 16.636719 54.136719 15.394531 52.902344 15.402344 51.367188 C 15.402344 49.847656 16.636719 48.609375 18.164062 48.609375 Z M 45.835938 48.609375 C 47.363281 48.609375 48.597656 49.847656 48.597656 51.367188 C 48.605469 52.902344 47.363281 54.136719 45.835938 54.144531 C 44.3125 54.136719 43.070312 52.902344 43.078125 51.367188 C 43.078125 49.847656 44.3125 48.609375 45.835938 48.609375 Z M 45.835938 48.609375 "/>
</g>
</svg>
