<svg xmlns="http://www.w3.org/2000/svg" xmlns:xlink="http://www.w3.org/1999/xlink" width="64px" height="64px" viewBox="0 0 64 64" version="1.1">
<defs>
<linearGradient id="linear0" gradientUnits="userSpaceOnUse" x1="0" y1="0" x2="0" y2="1" gradientTransform="matrix(55.351351,0,0,53.882882,4.324324,5.058559)">
<stop offset="0" style="stop-color:#ff8963;stop-opacity:1;"/>
<stop offset="0.5" style="stop-color:#dddddd;stop-opacity:1;"/>
<stop offset="1" style="stop-color:#0F6FFF;stop-opacity:1;"/>
</linearGradient>
</defs>
<g id="surface1">
<path style=" stroke:none;fill-rule:nonzero;fill:url(#linear0);" d="M 59.347656 24.941406 C 57.40625 17.839844 47.71875 17.042969 44.203125 16.996094 C 43.164062 14.144531 39.285156 5.058594 32.039062 5.058594 C 24.835938 5.058594 20.960938 14.042969 19.890625 16.945312 C 19.613281 16.941406 19.335938 16.933594 19.054688 16.933594 C 15.4375 16.933594 6.800781 17.710938 4.734375 24.921875 C 2.527344 32.636719 9.820312 38.460938 12.320312 40.191406 C 11.429688 43.070312 9.273438 52.058594 15.113281 56.921875 C 16.71875 58.265625 18.652344 58.941406 20.855469 58.941406 C 25.613281 58.941406 30.355469 55.761719 32.097656 54.460938 C 33.9375 55.613281 38.910156 58.429688 43.699219 58.429688 C 45.664062 58.429688 47.402344 57.949219 48.855469 57.003906 C 54.785156 53.164062 52.539062 43.121094 51.71875 40.164062 C 54.042969 38.351562 61.292969 32.050781 59.347656 24.941406 Z M 32.855469 33.113281 C 32.855469 33.113281 39.773438 38.089844 37.28125 40.105469 C 34.78125 42.117188 32 33.738281 32 33.738281 C 32 33.738281 28.988281 42.058594 26.71875 40.105469 C 24.449219 38.152344 31.144531 33.113281 31.144531 33.113281 C 31.144531 33.113281 22.335938 33.058594 23.460938 30.0625 C 24.582031 27.066406 31.46875 32.113281 31.46875 32.113281 C 31.46875 32.113281 28.839844 23.855469 32 23.855469 C 35.164062 23.855469 32.53125 32.113281 32.53125 32.113281 C 32.53125 32.113281 39.375 27.070312 40.539062 30.0625 C 41.710938 33.050781 32.855469 33.113281 32.855469 33.113281 Z M 32.855469 33.113281 "/>
</g>
</svg>
