<svg xmlns="http://www.w3.org/2000/svg" xmlns:xlink="http://www.w3.org/1999/xlink" width="64px" height="64px" viewBox="0 0 64 64" version="1.1">
<defs>
<linearGradient id="linear0" gradientUnits="userSpaceOnUse" x1="0" y1="0" x2="0" y2="1" gradientTransform="matrix(55.351351,0,0,55.351351,4.324324,4.324324)">
<stop offset="0" style="stop-color:#ffae00;stop-opacity:1;"/>
<stop offset="0.5" style="stop-color:#dddddd;stop-opacity:1;"/>
<stop offset="1" style="stop-color:#bf1d1d;stop-opacity:1;"/>
</linearGradient>
</defs>
<g id="surface1">
<path style=" stroke:none;fill-rule:nonzero;fill:url(#linear0);" d="M 44.96875 4.324219 C 41.265625 4.324219 37.613281 5.78125 34.707031 8.6875 C 31.796875 11.589844 30.351562 15.363281 30.351562 18.851562 L 45.148438 33.648438 C 48.929688 33.648438 52.707031 32.203125 55.3125 29.292969 C 61.132812 23.484375 61.132812 14.488281 55.3125 8.6875 C 52.410156 5.78125 48.664062 4.324219 44.960938 4.324219 Z M 27.714844 23.484375 C 27.714844 23.484375 4.765625 51.632812 4.472656 51.632812 C 3.890625 52.210938 5.054688 54.589844 7.378906 56.621094 C 9.703125 58.949219 11.699219 60.109375 12.28125 59.527344 L 40.515625 36.285156 Z M 27.714844 23.484375 "/>
</g>
</svg>
