<svg xmlns="http://www.w3.org/2000/svg" xmlns:xlink="http://www.w3.org/1999/xlink" width="64px" height="64px" viewBox="0 0 64 64" version="1.1">
<defs>
<linearGradient id="linear0" gradientUnits="userSpaceOnUse" x1="0" y1="0" x2="0" y2="1" gradientTransform="matrix(55.351351,0,0,51.666666,4.324324,6.166666)">
<stop offset="0" style="stop-color:#00b7ff;stop-opacity:1;"/>
<stop offset="0.5" style="stop-color:#dddddd;stop-opacity:1;"/>
<stop offset="1" style="stop-color:#ee42d9;stop-opacity:1;"/>
</linearGradient>
</defs>
<g id="surface1">
<path style=" stroke:none;fill-rule:evenodd;fill:url(#linear0);" d="M 54.144531 52.296875 L 54.144531 55.058594 C 54.144531 55.796875 53.851562 56.5 53.335938 57.027344 C 52.8125 57.539062 52.109375 57.835938 51.378906 57.835938 C 50.636719 57.835938 49.941406 57.539062 49.414062 57.027344 C 48.902344 56.5 48.605469 55.796875 48.605469 55.058594 L 48.605469 44.917969 L 44.917969 44.917969 L 44.917969 45.890625 C 44.917969 51.484375 40.3125 55.988281 34.585938 55.988281 L 29.414062 55.988281 C 23.691406 55.988281 19.082031 51.484375 19.082031 45.890625 L 19.082031 44.917969 L 15.394531 44.917969 L 15.394531 55.058594 C 15.394531 55.796875 15.097656 56.5 14.585938 57.027344 C 14.058594 57.539062 13.363281 57.835938 12.621094 57.835938 C 11.890625 57.835938 11.1875 57.539062 10.664062 57.027344 C 10.148438 56.5 9.855469 55.796875 9.855469 55.058594 L 9.855469 52.296875 L 7.089844 52.296875 C 6.351562 52.296875 5.652344 52.011719 5.136719 51.484375 C 4.613281 50.96875 4.324219 50.265625 4.324219 49.527344 C 4.324219 48.792969 4.613281 48.09375 5.136719 47.578125 C 5.652344 47.050781 6.351562 46.765625 7.089844 46.765625 L 9.855469 46.765625 L 9.855469 42.148438 C 9.855469 40.617188 11.09375 39.378906 12.621094 39.378906 L 19.082031 39.378906 L 19.082031 24.621094 L 12.621094 24.621094 C 11.09375 24.621094 9.855469 23.382812 9.855469 21.851562 L 9.855469 17.234375 L 7.089844 17.234375 C 6.351562 17.234375 5.652344 16.949219 5.136719 16.421875 C 4.613281 15.90625 4.324219 15.207031 4.324219 14.472656 C 4.324219 13.734375 4.613281 13.03125 5.136719 12.515625 C 5.652344 11.988281 6.351562 11.703125 7.089844 11.703125 L 9.855469 11.703125 L 9.855469 8.941406 C 9.855469 8.203125 10.148438 7.488281 10.664062 6.972656 C 11.1875 6.460938 11.890625 6.164062 12.621094 6.164062 C 13.363281 6.164062 14.058594 6.460938 14.585938 6.972656 C 15.097656 7.488281 15.394531 8.203125 15.394531 8.941406 L 15.394531 19.082031 L 19.082031 19.082031 L 19.082031 18.109375 C 19.082031 12.515625 23.691406 8.011719 29.414062 8.011719 L 34.585938 8.011719 C 40.3125 8.011719 44.917969 12.515625 44.917969 18.109375 L 44.917969 19.082031 L 48.605469 19.082031 L 48.605469 8.941406 C 48.605469 8.203125 48.902344 7.488281 49.414062 6.972656 C 49.941406 6.460938 50.636719 6.164062 51.378906 6.164062 C 52.109375 6.164062 52.8125 6.460938 53.335938 6.972656 C 53.851562 7.488281 54.144531 8.203125 54.144531 8.941406 L 54.144531 11.703125 L 56.910156 11.703125 C 57.648438 11.703125 58.347656 11.988281 58.863281 12.515625 C 59.386719 13.03125 59.675781 13.734375 59.675781 14.472656 C 59.675781 15.207031 59.386719 15.90625 58.863281 16.421875 C 58.347656 16.949219 57.648438 17.234375 56.910156 17.234375 L 54.144531 17.234375 L 54.144531 21.851562 C 54.144531 23.382812 52.90625 24.621094 51.378906 24.621094 L 44.917969 24.621094 L 44.917969 39.378906 L 51.378906 39.378906 C 52.90625 39.378906 54.144531 40.617188 54.144531 42.148438 L 54.144531 46.765625 L 56.910156 46.765625 C 57.648438 46.765625 58.347656 47.050781 58.863281 47.578125 C 59.386719 48.09375 59.675781 48.792969 59.675781 49.527344 C 59.675781 50.265625 59.386719 50.96875 58.863281 51.484375 C 58.347656 52.011719 57.648438 52.296875 56.910156 52.296875 Z M 54.144531 52.296875 "/>
</g>
</svg>
