<svg xmlns="http://www.w3.org/2000/svg" xmlns:xlink="http://www.w3.org/1999/xlink" width="64px" height="64px" viewBox="0 0 64 64" version="1.1">
<defs>
<linearGradient id="linear0" gradientUnits="userSpaceOnUse" x1="0" y1="0" x2="0" y2="1" gradientTransform="matrix(55.351351,0,0,37.036037,4.324324,13.481981)">
<stop offset="0" style="stop-color:#ffae00;stop-opacity:1;"/>
<stop offset="0.5" style="stop-color:#dddddd;stop-opacity:1;"/>
<stop offset="1" style="stop-color:#bf1d1d;stop-opacity:1;"/>
</linearGradient>
</defs>
<g id="surface1">
<path style=" stroke:none;fill-rule:nonzero;fill:url(#linear0);" d="M 59.664062 39.179688 C 59.664062 39.003906 59.675781 38.882812 59.675781 38.703125 L 59.675781 35.765625 C 56.820312 34.863281 52.652344 33.644531 50.011719 31.796875 C 52.027344 30.378906 54.828125 29.011719 59.675781 27.882812 L 59.675781 25.296875 C 59.675781 24.820312 59.648438 24.46875 59.644531 24.011719 C 54.949219 25.132812 51.164062 27.085938 46.914062 29.765625 C 45.664062 28.785156 44.875 27.9375 43.875 26.917969 C 43.550781 27.515625 42.757812 29.207031 42.476562 29.652344 C 43.515625 30.675781 43.957031 31.273438 44.789062 31.878906 C 43.789062 32.597656 43.773438 32.796875 41.375 34.914062 C 41.878906 35.863281 42.148438 36.792969 42.652344 37.714844 C 43.8125 36.460938 44.6875 35.46875 47.1875 33.808594 C 50.652344 35.625 53.625 37.511719 59.664062 39.179688 Z M 39.488281 35.511719 C 39.078125 36.445312 38.8125 37.078125 38.199219 38.472656 C 40.558594 43.132812 40.894531 45.113281 43.078125 49.082031 C 44.011719 50.664062 46.097656 49.53125 45.296875 48.027344 C 43.089844 43.570312 41.769531 40.402344 39.488281 35.511719 Z M 20.421875 49.589844 C 19.382812 51.351562 16.972656 50.53125 18.320312 47.792969 C 20.6875 42.539062 26.011719 29.445312 28.890625 22.988281 C 29.726562 21.03125 31.960938 22.292969 31.296875 23.933594 C 27.957031 31.664062 23.472656 43.261719 20.421875 49.589844 Z M 34.886719 41.738281 C 33.976562 43.253906 31.566406 42.175781 32.917969 39.4375 C 35.285156 34.1875 40.605469 21.089844 43.484375 14.636719 C 44.324219 12.675781 46.558594 13.9375 45.890625 15.578125 C 42.550781 23.300781 37.941406 35.414062 34.886719 41.738281 Z M 29.328125 40.746094 C 28.414062 42.769531 26.136719 41.820312 27.484375 39.085938 C 29.847656 33.835938 30.839844 30.660156 33.726562 24.203125 C 34.5625 22.246094 36.796875 23.503906 36.136719 25.148438 C 32.792969 32.875 32.378906 34.421875 29.328125 40.746094 Z M 4.335938 24.875 C 4.335938 25.027344 4.324219 25.136719 4.324219 25.296875 L 4.324219 28.144531 C 7.199219 29.054688 11.386719 30.308594 14.011719 32.136719 C 11.988281 33.5625 9.179688 34.929688 4.324219 36.058594 L 4.324219 38.703125 C 4.324219 39.160156 4.347656 39.488281 4.355469 39.929688 C 9.058594 38.8125 12.851562 36.855469 17.105469 34.171875 C 18.355469 35.152344 19.144531 35.996094 20.144531 37.015625 C 20.472656 36.417969 21.257812 34.726562 21.542969 34.285156 C 20.496094 33.261719 20.0625 32.664062 19.230469 32.058594 C 20.230469 31.335938 20.242188 31.136719 22.644531 29.015625 C 22.144531 28.070312 21.867188 27.144531 21.367188 26.21875 C 20.207031 27.46875 19.328125 28.472656 16.828125 30.132812 C 13.40625 28.328125 10.242188 26.515625 4.335938 24.875 Z M 24.429688 27.8125 C 24.835938 26.882812 25.097656 26.253906 25.714844 24.855469 C 23.355469 20.199219 23.015625 18.214844 20.835938 14.246094 C 19.90625 12.664062 17.8125 13.792969 18.617188 15.300781 C 20.820312 19.757812 22.136719 22.921875 24.429688 27.8125 Z M 24.429688 27.8125 "/>
</g>
</svg>
