<svg xmlns="http://www.w3.org/2000/svg" xmlns:xlink="http://www.w3.org/1999/xlink" width="64px" height="64px" viewBox="0 0 64 64" version="1.1">
<defs>
<linearGradient id="linear0" gradientUnits="userSpaceOnUse" x1="0" y1="0" x2="0" y2="1" gradientTransform="matrix(55.351351,0,0,33.981983,4.324324,15.009009)">
<stop offset="0" style="stop-color:#00b7ff;stop-opacity:1;"/>
<stop offset="0.5" style="stop-color:#dddddd;stop-opacity:1;"/>
<stop offset="1" style="stop-color:#ee42d9;stop-opacity:1;"/>
</linearGradient>
</defs>
<g id="surface1">
<path style=" stroke:none;fill-rule:nonzero;fill:url(#linear0);" d="M 15.863281 15.011719 L 16.417969 29.097656 C 16.457031 30.132812 16.621094 30.96875 16.921875 31.621094 C 17.21875 32.273438 17.761719 32.757812 18.542969 33.066406 C 19.328125 33.375 21.445312 33.527344 22.957031 33.527344 C 23.554688 33.527344 24.089844 33.476562 24.550781 33.375 C 25.039062 33.269531 25.496094 33.039062 25.921875 32.679688 C 26.367188 32.300781 26.835938 31.714844 27.324219 30.929688 C 27.996094 31.820312 28.8125 32.539062 29.785156 33.089844 C 30.757812 33.621094 31.707031 33.886719 32.636719 33.886719 C 33.136719 33.886719 34.808594 33.78125 35.242188 33.597656 L 35.675781 44.5625 C 35.710938 45.589844 35.882812 46.433594 36.179688 47.085938 C 36.476562 47.738281 37.015625 48.21875 37.800781 48.53125 C 38.585938 48.839844 39.730469 48.988281 41.242188 48.988281 L 42.578125 48.988281 C 44.21875 48.988281 45.527344 48.875 46.496094 48.636719 C 47.46875 48.375 48.191406 48.050781 48.679688 47.652344 C 49.164062 47.261719 49.484375 46.835938 49.632812 46.390625 C 49.78125 45.945312 49.855469 45.53125 49.855469 45.160156 C 49.855469 43.835938 49.265625 42.527344 48.089844 41.238281 C 46.933594 39.933594 45.265625 38.460938 43.082031 36.835938 C 43.679688 36.457031 44.324219 36.085938 45.011719 35.726562 C 45.71875 35.347656 46.605469 34.917969 47.664062 34.4375 C 48.703125 33.960938 50.054688 33.351562 51.644531 32.644531 C 51.863281 32.855469 52.121094 33.03125 52.429688 33.164062 C 53.023438 33.410156 53.835938 33.527344 54.863281 33.527344 C 56.355469 33.527344 57.53125 33.136719 58.386719 32.367188 C 59.246094 31.578125 59.675781 30.386719 59.675781 28.789062 C 59.675781 28.273438 59.605469 27.671875 59.457031 26.984375 C 59.308594 26.296875 59.117188 25.613281 58.890625 24.921875 C 58.671875 24.21875 58.445312 23.585938 58.21875 23.015625 L 55.957031 23.792969 C 56.363281 24.769531 56.730469 25.757812 57.042969 26.753906 C 57.382812 27.746094 57.550781 28.5625 57.550781 29.203125 C 57.550781 30.09375 57.308594 30.6875 56.820312 30.976562 C 56.335938 31.269531 55.691406 31.414062 54.890625 31.414062 C 54.164062 31.414062 53.613281 31.351562 53.242188 31.234375 C 52.886719 31.113281 52.644531 30.949219 52.511719 30.746094 C 52.402344 30.523438 52.347656 30.292969 52.347656 30.050781 C 52.347656 29.757812 52.375 29.394531 52.429688 28.960938 C 52.484375 28.515625 52.550781 28.078125 52.625 27.632812 C 52.71875 27.1875 52.792969 26.800781 52.847656 26.496094 L 50.71875 26.136719 C 50.523438 27.367188 50.328125 28.324219 50.148438 29.039062 L 49.488281 27.714844 C 47.738281 28.554688 46.210938 29.328125 44.796875 30.070312 C 44.796875 30.066406 44.789062 30.058594 44.789062 30.050781 C 44.789062 29.566406 44.863281 29.027344 45.011719 28.429688 C 45.160156 27.828125 45.292969 27.300781 45.40625 26.855469 L 43.308594 26.3125 C 43.003906 27.554688 42.742188 28.511719 42.515625 29.203125 C 42.296875 29.886719 42.054688 30.390625 41.792969 30.71875 C 41.550781 31.027344 41.242188 31.230469 40.875 31.3125 C 40.5 31.382812 40.011719 31.414062 39.417969 31.414062 C 39.414062 31.414062 39.414062 31.414062 39.414062 31.414062 C 38.929688 31.414062 38.488281 31.347656 38.09375 31.210938 C 37.71875 31.054688 37.363281 30.746094 37.003906 30.285156 C 36.664062 29.820312 36.289062 29.109375 35.855469 28.144531 C 35.390625 27.117188 34.945312 26.308594 34.511719 25.71875 C 34.105469 25.117188 33.660156 24.703125 33.171875 24.460938 C 32.6875 24.203125 32.136719 24.078125 31.515625 24.078125 C 31.070312 24.078125 30.566406 24.1875 30.011719 24.410156 C 29.46875 24.632812 28.890625 25.039062 28.273438 25.621094 C 27.679688 26.207031 27.082031 27.042969 26.484375 28.144531 C 26.039062 28.96875 25.664062 29.621094 25.363281 30.105469 C 25.085938 30.566406 24.785156 30.902344 24.46875 31.105469 C 24.164062 31.3125 23.761719 31.414062 23.238281 31.414062 C 22.171875 31.414062 20.421875 31.328125 19.914062 31.160156 C 19.433594 30.988281 19.113281 30.679688 18.960938 30.234375 C 18.835938 29.769531 18.753906 29.113281 18.710938 28.273438 L 18.152344 15.011719 Z M 51.199219 16.8125 C 50.808594 16.8125 50.46875 16.9375 50.1875 17.199219 C 49.933594 17.457031 49.796875 17.753906 49.796875 18.097656 C 49.796875 18.441406 49.933594 18.742188 50.1875 19 C 50.46875 19.242188 50.808594 19.363281 51.199219 19.363281 C 51.570312 19.363281 51.886719 19.242188 52.152344 19 C 52.433594 18.742188 52.566406 18.441406 52.566406 18.097656 C 52.566406 17.753906 52.433594 17.457031 52.152344 17.199219 C 51.886719 16.9375 51.570312 16.8125 51.199219 16.8125 Z M 49.292969 19.644531 C 48.902344 19.644531 48.566406 19.773438 48.289062 20.03125 C 48.027344 20.289062 47.894531 20.589844 47.894531 20.933594 C 47.894531 21.273438 48.027344 21.570312 48.289062 21.835938 C 48.566406 22.070312 48.902344 22.191406 49.292969 22.191406 C 49.664062 22.191406 49.984375 22.070312 50.242188 21.835938 C 50.527344 21.570312 50.664062 21.273438 50.664062 20.933594 C 50.664062 20.589844 50.527344 20.289062 50.242188 20.03125 C 49.984375 19.773438 49.664062 19.644531 49.292969 19.644531 Z M 53.097656 19.644531 C 52.707031 19.644531 52.375 19.773438 52.09375 20.03125 C 51.828125 20.289062 51.703125 20.589844 51.703125 20.933594 C 51.703125 21.273438 51.828125 21.570312 52.09375 21.835938 C 52.375 22.070312 52.707031 22.191406 53.097656 22.191406 C 53.472656 22.191406 53.792969 22.070312 54.050781 21.835938 C 54.328125 21.570312 54.472656 21.273438 54.472656 20.933594 C 54.472656 20.589844 54.328125 20.289062 54.050781 20.03125 C 53.792969 19.773438 53.472656 19.644531 53.097656 19.644531 Z M 11.460938 24.664062 L 9.414062 25.621094 C 9.921875 26.460938 10.3125 27.164062 10.589844 27.730469 C 10.867188 28.296875 11.066406 28.808594 11.179688 29.253906 C 11.292969 29.699219 11.347656 30.164062 11.347656 30.644531 C 11.347656 31.394531 11.152344 32.199219 10.761719 33.039062 C 10.386719 33.863281 9.6875 34.652344 8.664062 35.410156 C 7.660156 36.164062 6.210938 36.820312 4.324219 37.363281 L 5.136719 39.324219 C 5.714844 39.1875 6.367188 38.960938 7.09375 38.660156 C 7.839844 38.347656 8.578125 37.949219 9.308594 37.46875 C 10.050781 36.988281 10.730469 36.40625 11.347656 35.714844 C 11.984375 35.050781 12.488281 34.273438 12.863281 33.402344 C 13.246094 32.527344 13.445312 31.542969 13.445312 30.460938 C 13.445312 29.707031 13.289062 28.835938 12.972656 27.835938 C 12.671875 26.835938 12.171875 25.785156 11.460938 24.664062 Z M 31.351562 26.136719 C 31.785156 26.136719 32.160156 26.296875 32.46875 26.625 C 32.789062 26.933594 33.066406 27.335938 33.3125 27.835938 C 33.554688 28.335938 33.789062 28.835938 34.011719 29.351562 C 34.199219 29.78125 34.273438 30.148438 34.261719 30.472656 L 33.933594 31.273438 C 33.632812 31.621094 33.199219 31.800781 32.613281 31.800781 C 31.996094 31.800781 31.292969 31.578125 30.511719 31.132812 C 29.726562 30.664062 29.023438 29.945312 28.386719 28.960938 C 28.984375 27.886719 29.523438 27.144531 30.011719 26.753906 C 30.496094 26.355469 30.941406 26.152344 31.351562 26.136719 Z M 50.039062 29.40625 C 49.875 29.949219 49.691406 30.394531 49.488281 30.671875 C 49.265625 30.996094 48.976562 31.203125 48.621094 31.289062 C 48.269531 31.375 47.8125 31.414062 47.253906 31.414062 C 46.863281 31.414062 46.542969 31.382812 46.253906 31.339844 C 47.4375 30.726562 48.554688 30.136719 50.039062 29.40625 Z M 44.011719 32.488281 C 44.144531 32.648438 44.289062 32.796875 44.457031 32.910156 C 44.703125 33.066406 44.960938 33.1875 45.238281 33.273438 C 45.144531 33.320312 44.988281 33.390625 44.902344 33.4375 C 43.3125 34.171875 42.148438 34.910156 41.402344 35.648438 C 41.199219 35.835938 41.042969 36.105469 40.957031 36.445312 C 40.863281 36.792969 40.8125 37.160156 40.8125 37.554688 C 40.8125 37.707031 41.039062 37.960938 41.488281 38.300781 C 41.933594 38.644531 42.503906 39.0625 43.1875 39.5625 C 43.882812 40.058594 44.578125 40.636719 45.265625 41.292969 C 46.269531 42.21875 46.933594 42.972656 47.253906 43.558594 C 47.589844 44.144531 47.753906 44.632812 47.753906 45.027344 C 47.753906 45.246094 47.699219 45.472656 47.589844 45.699219 C 47.496094 45.90625 47.289062 46.097656 46.972656 46.289062 C 46.671875 46.460938 46.199219 46.605469 45.542969 46.726562 C 44.890625 46.828125 44.027344 46.878906 42.941406 46.878906 L 41.523438 46.878906 C 40.460938 46.878906 39.675781 46.792969 39.171875 46.621094 C 38.6875 46.449219 38.367188 46.144531 38.21875 45.699219 C 38.089844 45.234375 38.011719 44.578125 37.972656 43.738281 L 37.4375 33.417969 C 37.679688 33.589844 37.824219 33.632812 38.136719 33.746094 L 40.003906 34.691406 C 41.097656 34.066406 42.457031 33.324219 44.011719 32.488281 Z M 25.636719 36.734375 L 24.1875 38.328125 L 24.996094 39 C 23.671875 40.136719 22.738281 41.214844 22.191406 42.242188 C 21.675781 43.257812 21.414062 44.109375 21.414062 44.792969 C 21.414062 46.1875 21.867188 47.214844 22.78125 47.886719 C 23.699219 48.539062 24.847656 48.863281 26.226562 48.863281 C 27.175781 48.863281 27.96875 48.71875 28.605469 48.421875 C 29.238281 48.117188 29.734375 47.730469 30.085938 47.265625 C 30.441406 46.785156 30.691406 46.292969 30.839844 45.796875 C 30.996094 45.296875 31.066406 44.855469 31.066406 44.460938 C 31.066406 43.445312 30.8125 42.484375 30.3125 41.570312 C 29.808594 40.664062 29.144531 39.808594 28.324219 39 C 27.503906 38.191406 26.609375 37.4375 25.636719 36.734375 Z M 26.335938 40.03125 C 27.117188 40.648438 27.710938 41.210938 28.097656 41.730469 C 28.488281 42.226562 28.757812 42.6875 28.882812 43.117188 C 29.011719 43.550781 29.082031 43.960938 29.082031 44.355469 C 29.082031 45.078125 28.835938 45.664062 28.355469 46.109375 C 27.867188 46.539062 27.164062 46.753906 26.226562 46.753906 C 25.476562 46.753906 24.855469 46.570312 24.351562 46.210938 C 23.863281 45.851562 23.625 45.308594 23.625 44.589844 C 23.625 43.96875 23.855469 43.246094 24.320312 42.421875 C 24.808594 41.59375 25.476562 40.800781 26.335938 40.03125 Z M 26.335938 40.03125 "/>
</g>
</svg>
