<svg xmlns="http://www.w3.org/2000/svg" xmlns:xlink="http://www.w3.org/1999/xlink" width="64px" height="64px" viewBox="0 0 64 64" version="1.1">
<defs>
<linearGradient id="linear0" gradientUnits="userSpaceOnUse" x1="0" y1="0" x2="0" y2="1" gradientTransform="matrix(55.351351,0,0,48.963963,4.324324,7.518018)">
<stop offset="0" style="stop-color:#05f7ff;stop-opacity:1;"/>
<stop offset="0.5" style="stop-color:#dddddd;stop-opacity:1;"/>
<stop offset="1" style="stop-color:#e6ff05;stop-opacity:1;"/>
</linearGradient>
</defs>
<g id="surface1">
<path style=" stroke:none;fill-rule:evenodd;fill:url(#linear0);" d="M 40.515625 28.808594 L 59.472656 28.808594 C 59.597656 29.863281 59.664062 30.933594 59.675781 32 C 59.675781 33.066406 59.617188 34.132812 59.503906 35.191406 L 53.050781 35.191406 C 51.445312 47.363281 41.082031 56.460938 28.808594 56.484375 C 15.285156 56.484375 4.324219 45.515625 4.324219 32 C 4.324219 18.484375 15.285156 7.515625 28.808594 7.515625 C 34.902344 7.523438 40.765625 9.800781 45.265625 13.90625 L 28.808594 13.90625 C 18.8125 13.90625 10.710938 22.003906 10.710938 32 C 10.710938 41.996094 18.8125 50.09375 28.808594 50.09375 C 37.5625 50.089844 45.054688 43.8125 46.605469 35.191406 L 40.515625 35.191406 L 40.515625 43.710938 L 34.125 43.710938 L 34.125 42.414062 C 32.484375 43.261719 30.660156 43.703125 28.808594 43.710938 C 22.339844 43.710938 17.09375 38.460938 17.09375 32 C 17.09375 25.539062 22.339844 20.289062 28.808594 20.289062 C 30.660156 20.289062 32.484375 20.730469 34.125 21.570312 L 34.125 20.289062 L 40.515625 20.289062 Z M 28.808594 26.679688 C 31.746094 26.679688 34.125 29.058594 34.125 32 C 34.125 34.941406 31.746094 37.320312 28.808594 37.320312 C 25.863281 37.320312 23.484375 34.941406 23.484375 32 C 23.484375 29.058594 25.863281 26.679688 28.808594 26.679688 Z M 28.808594 26.679688 "/>
</g>
</svg>
