<svg xmlns="http://www.w3.org/2000/svg" xmlns:xlink="http://www.w3.org/1999/xlink" width="64px" height="64px" viewBox="0 0 64 64" version="1.1">
<defs>
<linearGradient id="linear0" gradientUnits="userSpaceOnUse" x1="0" y1="0" x2="0" y2="1" gradientTransform="matrix(47.436936,0,0,55.342341,8.279279,4.333333)">
<stop offset="0" style="stop-color:#00fff2;stop-opacity:1;"/>
<stop offset="0.5" style="stop-color:#dddddd;stop-opacity:1;"/>
<stop offset="1" style="stop-color:#0062ff;stop-opacity:1;"/>
</linearGradient>
</defs>
<g id="surface1">
<path style=" stroke:none;fill-rule:evenodd;fill:url(#linear0);" d="M 46.378906 4.335938 C 40.375 6.039062 36.625 16.417969 37.269531 16.175781 L 37.363281 18.582031 C 37.40625 18.585938 37.429688 18.589844 37.460938 18.59375 C 33.867188 18.367188 28.625 19.46875 26 22.644531 C 16.039062 23.636719 7.558594 32.800781 8.328125 39.824219 C 9.136719 47.144531 16.292969 51.621094 18.011719 52.066406 C 18.421875 52.191406 18.796875 52.261719 19.160156 52.285156 C 19.582031 55.144531 21.441406 58.21875 23.734375 59.457031 C 25.738281 60.527344 31 57.367188 31 57.367188 C 27.550781 55.328125 25.363281 53.328125 23.734375 51.292969 C 25.382812 51.179688 27.511719 51.550781 29.714844 52 C 35.835938 58.589844 46.164062 61.894531 49.421875 57.984375 C 48.613281 56.707031 47.179688 56.523438 45.3125 55.214844 C 44.917969 55.285156 44.578125 55.449219 44.320312 55.742188 L 43.3125 54.011719 C 42.921875 54.066406 42.597656 53.503906 42.214844 54.175781 C 41.496094 53.648438 41.539062 53.449219 41.675781 53.03125 C 41.796875 52.71875 41.949219 52.472656 42.109375 52.230469 C 43.199219 52.589844 44.355469 52.996094 45.117188 53.300781 C 45.550781 53.484375 45.1875 52.039062 45.660156 52 C 46.300781 51.945312 46.445312 53.632812 47.09375 53.675781 C 47.652344 53.714844 47.886719 52.027344 48.378906 52.296875 C 49.121094 52.707031 51.945312 55.136719 51.746094 53.910156 C 51.324219 51.230469 47.976562 48.238281 45.972656 47.082031 C 44.960938 46.5 43.015625 46.214844 41.457031 46.082031 C 39.6875 43.582031 36.789062 40.621094 34.511719 39.355469 C 34.386719 39.289062 34.265625 39.230469 34.136719 39.164062 C 34.363281 38.539062 34.589844 37.71875 34.8125 36.941406 C 43.890625 34.988281 57.753906 22.511719 55.460938 11.726562 C 54.867188 13.808594 54.117188 15.171875 53.238281 16.050781 C 53.363281 15.515625 53.355469 14.933594 53.191406 14.285156 L 50.621094 17.066406 C 50.789062 16.59375 50.894531 16.089844 50.773438 15.5 L 48.3125 17.609375 C 48.710938 17.089844 48.933594 16.484375 48.878906 15.675781 C 48.890625 15.703125 48.039062 16.351562 46.945312 17.066406 C 46.988281 16.613281 47.003906 16.164062 47 15.734375 C 48.023438 14.867188 49.148438 13.769531 49.460938 12.886719 C 50.070312 11.136719 50.632812 7.679688 49.648438 6.3125 C 49.152344 5.621094 48.441406 8.53125 48.417969 8.769531 C 48.378906 9.207031 47.328125 8.3125 47 8.59375 C 46.390625 9.125 46.96875 10.300781 46.730469 10.269531 C 46.414062 10.214844 46.3125 9.671875 46 9.726562 C 45.171875 10.417969 44.707031 11.265625 44.339844 12.085938 C 44.113281 12.03125 43.882812 11.960938 43.671875 11.863281 C 43.355469 11.726562 43.390625 10.902344 43.5 10.570312 C 43.636719 10.164062 44.355469 10.457031 44.542969 10.066406 C 44.757812 9.648438 44.355469 8.914062 44.648438 8.554688 C 44.820312 8.339844 45.136719 8.644531 45.3125 8.417969 C 45.847656 7.730469 46.730469 4.253906 46.378906 4.335938 Z M 46.253906 17.511719 C 45.960938 17.679688 45.738281 17.824219 45.421875 17.988281 C 45.71875 17.835938 45.976562 17.671875 46.253906 17.511719 Z M 45.226562 18.082031 C 44.757812 18.3125 44.28125 18.511719 43.78125 18.6875 C 44.273438 18.511719 44.761719 18.3125 45.226562 18.082031 Z M 43.335938 18.835938 C 42.875 18.972656 42.410156 19.058594 41.945312 19.113281 C 42.410156 19.058594 42.878906 18.972656 43.335938 18.835938 Z M 39.691406 18.949219 C 39.726562 18.960938 39.769531 18.957031 39.796875 18.96875 C 39.835938 18.976562 39.867188 18.976562 39.90625 18.988281 C 39.867188 18.976562 39.835938 18.988281 39.796875 18.972656 C 39.769531 18.960938 39.726562 18.960938 39.691406 18.949219 Z M 41.054688 19.164062 C 41.1875 19.175781 41.320312 19.179688 41.457031 19.175781 C 41.3125 19.179688 41.1875 19.175781 41.054688 19.164062 Z M 36.863281 20.136719 C 36.882812 20.136719 36.914062 20.136719 36.941406 20.136719 C 37.726562 20.136719 38.484375 20.457031 39.039062 21.011719 C 39.59375 21.566406 39.90625 22.320312 39.90625 23.109375 C 39.90625 23.894531 39.59375 24.648438 39.039062 25.207031 C 38.484375 25.761719 37.726562 26.078125 36.941406 26.078125 C 36.152344 26.078125 35.394531 25.761719 34.839844 25.207031 C 34.285156 24.648438 33.972656 23.894531 33.972656 23.109375 C 33.972656 21.5 35.253906 20.1875 36.863281 20.136719 Z M 29.058594 36.808594 C 28.6875 37.691406 28.269531 38.6875 28.082031 39.175781 C 26.335938 40.707031 25.800781 43.742188 26.191406 46.144531 C 24.113281 45.988281 21.78125 46.238281 20.355469 47.636719 C 19.582031 45.808594 18.929688 42.664062 20.515625 40.597656 C 22.023438 38.648438 26.457031 37.214844 29.058594 36.808594 Z M 29.058594 36.808594 "/>
</g>
</svg>
