<svg xmlns="http://www.w3.org/2000/svg" xmlns:xlink="http://www.w3.org/1999/xlink" width="64px" height="64px" viewBox="0 0 64 64" version="1.1">
<defs>
<linearGradient id="linear0" gradientUnits="userSpaceOnUse" x1="0" y1="0" x2="0" y2="1" gradientTransform="matrix(55.351351,0,0,44.27928,4.324324,9.86036)">
<stop offset="0" style="stop-color:#ff8963;stop-opacity:1;"/>
<stop offset="0.5" style="stop-color:#dddddd;stop-opacity:1;"/>
<stop offset="1" style="stop-color:#0F6FFF;stop-opacity:1;"/>
</linearGradient>
</defs>
<g id="surface1">
<path style=" stroke:none;fill-rule:nonzero;fill:url(#linear0);" d="M 30.152344 9.863281 L 30.152344 11.707031 L 33.847656 11.707031 L 33.847656 9.863281 Z M 30.152344 13.550781 L 30.152344 15.394531 L 33.847656 15.394531 L 33.847656 13.550781 Z M 30.152344 17.242188 L 30.152344 28.3125 L 17.238281 28.3125 C 17.117188 28.3125 16.988281 28.320312 16.875 28.339844 C 11.1875 28.503906 6.242188 32.367188 4.765625 37.886719 C 3.253906 43.523438 5.726562 49.496094 10.785156 52.414062 C 15.792969 55.3125 22.136719 54.496094 26.261719 50.457031 L 37.738281 50.457031 C 41.863281 54.496094 48.207031 55.3125 53.214844 52.414062 C 58.273438 49.496094 60.746094 43.523438 59.234375 37.886719 C 57.757812 32.363281 52.796875 28.496094 47.109375 28.339844 C 46.988281 28.320312 46.878906 28.3125 46.761719 28.3125 L 33.847656 28.3125 L 33.847656 17.242188 Z M 17.238281 32 L 46.761719 32 C 50.945312 32 54.59375 34.800781 55.675781 38.839844 C 56.757812 42.882812 54.996094 47.125 51.375 49.21875 C 47.945312 51.199219 43.710938 50.738281 40.757812 48.1875 C 40.273438 47.710938 39.800781 46.753906 38.933594 46.761719 L 25.066406 46.761719 C 24.203125 46.753906 23.613281 47.753906 23.253906 48.179688 C 20.296875 50.738281 16.054688 51.199219 12.625 49.21875 C 9.003906 47.125 7.246094 42.882812 8.335938 38.839844 C 9.414062 34.800781 13.054688 32 17.238281 32 Z M 15.394531 35.691406 L 15.394531 39.382812 L 11.703125 39.382812 L 11.703125 43.070312 L 15.394531 43.070312 L 15.394531 46.761719 L 19.085938 46.761719 L 19.085938 43.070312 L 22.773438 43.070312 L 22.773438 39.382812 L 19.085938 39.382812 L 19.085938 35.691406 Z M 46.761719 35.691406 C 45.742188 35.691406 44.914062 36.515625 44.914062 37.539062 C 44.914062 38.554688 45.742188 39.382812 46.761719 39.382812 C 47.78125 39.382812 48.605469 38.554688 48.605469 37.539062 C 48.605469 36.515625 47.78125 35.691406 46.761719 35.691406 Z M 43.070312 39.382812 C 42.050781 39.382812 41.226562 40.207031 41.226562 41.226562 C 41.226562 42.246094 42.050781 43.070312 43.070312 43.070312 C 44.089844 43.070312 44.914062 42.246094 44.914062 41.226562 C 44.914062 40.207031 44.089844 39.382812 43.070312 39.382812 Z M 50.449219 39.382812 C 49.433594 39.382812 48.605469 40.207031 48.605469 41.226562 C 48.605469 42.246094 49.433594 43.070312 50.449219 43.070312 C 51.46875 43.070312 52.296875 42.246094 52.296875 41.226562 C 52.296875 40.207031 51.46875 39.382812 50.449219 39.382812 Z M 46.761719 43.070312 C 45.742188 43.070312 44.914062 43.894531 44.914062 44.917969 C 44.914062 45.9375 45.742188 46.761719 46.761719 46.761719 C 47.78125 46.761719 48.605469 45.9375 48.605469 44.917969 C 48.605469 43.894531 47.78125 43.070312 46.761719 43.070312 Z M 46.761719 43.070312 "/>
</g>
</svg>
