<svg xmlns="http://www.w3.org/2000/svg" xmlns:xlink="http://www.w3.org/1999/xlink" width="64px" height="64px" viewBox="0 0 64 64" version="1.1">
<defs>
<linearGradient id="linear0" gradientUnits="userSpaceOnUse" x1="0" y1="0" x2="0" y2="1" gradientTransform="matrix(55.351351,0,0,36.900902,4.324324,13.54955)">
<stop offset="0" style="stop-color:#00a2ff;stop-opacity:1;"/>
<stop offset="0.5" style="stop-color:#dddddd;stop-opacity:1;"/>
<stop offset="1" style="stop-color:#00ffae;stop-opacity:1;"/>
</linearGradient>
</defs>
<g id="surface1">
<path style=" stroke:none;fill-rule:nonzero;fill:url(#linear0);" d="M 19.03125 13.550781 C 15.792969 13.550781 12.402344 15.335938 10.511719 20.144531 C 6.503906 30.285156 4.324219 38.121094 4.324219 42.878906 C 4.324219 46.539062 5.617188 48.851562 8.363281 50.207031 C 8.679688 50.367188 9.039062 50.449219 9.394531 50.449219 C 9.96875 50.449219 10.515625 50.238281 10.945312 49.863281 L 18.117188 43.53125 C 19.402344 42.390625 20.523438 41.214844 23.664062 41.214844 L 40.339844 41.214844 C 43.476562 41.214844 44.597656 42.390625 45.882812 43.53125 L 53.054688 49.863281 C 53.765625 50.488281 54.789062 50.632812 55.644531 50.207031 C 58.382812 48.851562 59.675781 46.539062 59.675781 42.875 C 59.675781 38.121094 57.496094 30.28125 53.496094 20.144531 C 51.597656 15.335938 48.207031 13.550781 44.96875 13.550781 C 43.457031 13.550781 41.976562 13.941406 40.703125 14.605469 C 35.230469 17.421875 28.894531 17.484375 23.308594 14.605469 C 22.027344 13.941406 20.539062 13.550781 19.03125 13.550781 Z M 32 18.820312 C 34.1875 18.820312 35.957031 20.589844 35.957031 22.773438 C 35.957031 24.960938 34.1875 26.730469 32 26.730469 C 29.8125 26.730469 28.042969 24.960938 28.042969 22.773438 C 28.042969 20.589844 29.8125 18.820312 32 18.820312 Z M 19.085938 22.773438 C 22.136719 22.773438 24.621094 25.253906 24.621094 28.3125 C 24.621094 31.363281 22.136719 33.847656 19.085938 33.847656 C 16.027344 33.847656 13.550781 31.363281 13.550781 28.3125 C 13.550781 25.253906 16.027344 22.773438 19.085938 22.773438 Z M 44.515625 22.773438 C 45.042969 22.773438 45.542969 22.984375 45.917969 23.351562 C 46.289062 23.726562 46.496094 24.226562 46.496094 24.753906 C 46.496094 25.273438 46.289062 25.78125 45.917969 26.148438 C 45.542969 26.515625 45.042969 26.730469 44.515625 26.730469 C 43.996094 26.730469 43.488281 26.515625 43.121094 26.148438 C 42.753906 25.78125 42.542969 25.273438 42.542969 24.753906 C 42.542969 24.226562 42.753906 23.726562 43.121094 23.351562 C 43.488281 22.984375 43.996094 22.773438 44.515625 22.773438 Z M 19.085938 24.621094 C 17.042969 24.621094 15.394531 26.269531 15.394531 28.3125 C 15.394531 30.347656 17.042969 32 19.085938 32 C 21.121094 32 22.773438 30.347656 22.773438 28.3125 C 22.773438 26.269531 21.121094 24.621094 19.085938 24.621094 Z M 40.566406 26.730469 C 41.089844 26.730469 41.59375 26.9375 41.960938 27.308594 C 42.335938 27.679688 42.542969 28.179688 42.542969 28.707031 C 42.542969 29.230469 42.335938 29.734375 41.960938 30.105469 C 41.59375 30.472656 41.089844 30.679688 40.566406 30.679688 C 40.039062 30.679688 39.539062 30.472656 39.164062 30.105469 C 38.796875 29.734375 38.589844 29.230469 38.589844 28.707031 C 38.589844 28.179688 38.796875 27.679688 39.164062 27.308594 C 39.539062 26.9375 40.039062 26.730469 40.566406 26.730469 Z M 48.472656 26.730469 C 48.996094 26.730469 49.5 26.9375 49.867188 27.308594 C 50.242188 27.679688 50.449219 28.179688 50.449219 28.707031 C 50.449219 29.230469 50.242188 29.734375 49.867188 30.105469 C 49.5 30.472656 48.996094 30.679688 48.472656 30.679688 C 47.949219 30.679688 47.445312 30.472656 47.078125 30.105469 C 46.707031 29.734375 46.496094 29.230469 46.496094 28.707031 C 46.496094 28.179688 46.707031 27.679688 47.078125 27.308594 C 47.445312 26.9375 47.949219 26.730469 48.472656 26.730469 Z M 44.515625 30.679688 C 45.042969 30.679688 45.542969 30.890625 45.917969 31.261719 C 46.289062 31.632812 46.496094 32.136719 46.496094 32.660156 C 46.496094 33.1875 46.289062 33.6875 45.917969 34.058594 C 45.542969 34.429688 45.042969 34.636719 44.515625 34.636719 C 43.996094 34.636719 43.488281 34.429688 43.121094 34.058594 C 42.753906 33.6875 42.542969 33.1875 42.542969 32.660156 C 42.542969 32.136719 42.753906 31.632812 43.121094 31.261719 C 43.488281 30.890625 43.996094 30.679688 44.515625 30.679688 Z M 44.515625 30.679688 "/>
</g>
</svg>
