<svg xmlns="http://www.w3.org/2000/svg" xmlns:xlink="http://www.w3.org/1999/xlink" width="64px" height="64px" viewBox="0 0 64 64" version="1.1">
<defs>
<linearGradient id="linear0" gradientUnits="userSpaceOnUse" x1="0" y1="0" x2="0" y2="1" gradientTransform="matrix(36.900902,0,0,55.351351,13.54955,4.324324)">
<stop offset="0" style="stop-color:#00b7ff;stop-opacity:1;"/>
<stop offset="0.5" style="stop-color:#dddddd;stop-opacity:1;"/>
<stop offset="1" style="stop-color:#ee42d9;stop-opacity:1;"/>
</linearGradient>
</defs>
<g id="surface1">
<path style=" stroke:none;fill-rule:nonzero;fill:url(#linear0);" d="M 30.460938 4.324219 C 22.941406 4.324219 13.550781 12.890625 13.550781 24.414062 C 13.550781 36.421875 20.789062 47.375 30.824219 47.375 C 35.78125 47.375 37.921875 45.511719 41.226562 41.226562 C 39.609375 46.839844 36.890625 50.417969 32.542969 51.460938 C 29.113281 52.285156 25.253906 50.390625 22.773438 47.375 L 13.550781 47.375 C 16.410156 55.171875 23.585938 59.675781 32.21875 59.675781 C 38.570312 59.675781 43.59375 57.21875 46.894531 52.585938 C 49.367188 49 50.449219 44.21875 50.449219 36.78125 L 50.449219 5.863281 L 41.226562 5.863281 L 41.226562 10.160156 C 41.226562 10.160156 37.988281 4.324219 30.460938 4.324219 Z M 31.828125 13.550781 C 37.410156 13.550781 41.226562 18.597656 41.226562 25.996094 C 41.226562 33.3125 37.523438 38.152344 31.941406 38.152344 C 26.355469 38.152344 22.78125 33.390625 22.78125 25.996094 C 22.78125 18.527344 26.363281 13.550781 31.828125 13.550781 Z M 31.828125 13.550781 "/>
</g>
</svg>
