<svg xmlns="http://www.w3.org/2000/svg" xmlns:xlink="http://www.w3.org/1999/xlink" width="64px" height="64px" viewBox="0 0 64 64" version="1.1">
<defs>
<linearGradient id="linear0" gradientUnits="userSpaceOnUse" x1="0" y1="0" x2="0" y2="1" gradientTransform="matrix(48.432432,0,0,55.351351,7.783784,4.324324)">
<stop offset="0" style="stop-color:#ffae00;stop-opacity:1;"/>
<stop offset="0.5" style="stop-color:#dddddd;stop-opacity:1;"/>
<stop offset="1" style="stop-color:#bf1d1d;stop-opacity:1;"/>
</linearGradient>
</defs>
<g id="surface1">
<path style=" stroke:none;fill-rule:evenodd;fill:url(#linear0);" d="M 12.726562 29.8125 L 12.726562 27.058594 L 12.746094 27.058594 C 12.734375 26.730469 12.726562 26.402344 12.726562 26.070312 C 12.726562 14.066406 22.46875 4.324219 34.46875 4.324219 C 46.472656 4.324219 56.214844 14.066406 56.214844 26.070312 C 56.214844 32.8125 53.136719 38.851562 48.308594 42.835938 L 48.308594 56 C 48.308594 58.027344 46.664062 59.675781 44.636719 59.675781 L 26.285156 59.675781 C 24.257812 59.675781 22.613281 58.027344 22.613281 56 L 22.613281 51.765625 L 16.660156 51.765625 C 14.484375 51.765625 12.726562 50.011719 12.726562 47.835938 L 12.726562 41.882812 L 10.550781 41.882812 C 9.5625 41.882812 8.648438 41.355469 8.152344 40.5 C 7.660156 39.644531 7.660156 38.589844 8.152344 37.734375 L 11.820312 31.378906 Z M 34.78125 10.179688 C 34.335938 10.164062 33.894531 10.171875 33.457031 10.1875 C 30.941406 10.273438 28.40625 10.847656 26.175781 11.839844 C 23.875 13.039062 21.886719 14.769531 20.378906 16.878906 C 18.765625 19.421875 18.136719 22.433594 19.136719 24.339844 C 20.3125 26.59375 22.765625 27.96875 25.269531 27.96875 C 26.566406 27.96875 26.671875 28.039062 26.671875 28.96875 C 26.671875 31.011719 29.328125 31.976562 33.058594 31.976562 C 35.050781 31.976562 35.382812 32.0625 35.203125 32.53125 C 34.929688 33.242188 36.066406 35.671875 37.292969 36.8125 C 37.820312 37.300781 38.460938 38.023438 38.734375 38.660156 C 39.253906 39.894531 39.761719 40.050781 41.1875 39.402344 C 42.28125 38.902344 42.3125 38.613281 41.386719 37.085938 C 40.996094 36.445312 40.671875 36.109375 40.671875 35.988281 C 40.671875 35.875 40.402344 35.792969 41.914062 35.8125 C 46.3125 35.851562 48.300781 34.289062 48.308594 30.703125 C 48.308594 30.121094 48.605469 29.699219 49.003906 29.351562 C 50.363281 28.691406 50.21875 27.984375 50.289062 26.621094 C 50.28125 19.539062 45.761719 13.121094 39.054688 10.863281 C 38.894531 10.8125 38.746094 10.757812 38.589844 10.714844 C 37.378906 10.402344 36.09375 10.21875 34.78125 10.179688 Z M 34.78125 10.179688 "/>
</g>
</svg>
