<svg xmlns="http://www.w3.org/2000/svg" xmlns:xlink="http://www.w3.org/1999/xlink" width="64px" height="64px" viewBox="0 0 64 64" version="1.1">
<defs>
<linearGradient id="linear0" gradientUnits="userSpaceOnUse" x1="0" y1="0" x2="0" y2="1" gradientTransform="matrix(55.351351,0,0,55.342341,4.324324,4.328829)">
<stop offset="0" style="stop-color:#00fff2;stop-opacity:1;"/>
<stop offset="0.5" style="stop-color:#dddddd;stop-opacity:1;"/>
<stop offset="1" style="stop-color:#0062ff;stop-opacity:1;"/>
</linearGradient>
</defs>
<g id="surface1">
<path style=" stroke:none;fill-rule:nonzero;fill:url(#linear0);" d="M 58.941406 14.242188 L 58.328125 12.390625 L 48.554688 22.164062 L 43.757812 20.242188 L 41.835938 15.441406 L 51.609375 5.664062 L 49.757812 5.054688 C 48.296875 4.570312 46.769531 4.328125 45.234375 4.328125 C 37.273438 4.328125 30.796875 10.800781 30.796875 18.765625 C 30.796875 20.542969 31.121094 22.285156 31.769531 23.949219 L 6.039062 49.675781 C 4.9375 50.769531 4.320312 52.265625 4.324219 53.824219 C 4.324219 55.386719 4.9375 56.851562 6.039062 57.960938 C 7.136719 59.058594 8.625 59.675781 10.179688 59.671875 C 11.6875 59.671875 13.1875 59.105469 14.324219 57.960938 L 40.050781 32.238281 C 41.714844 32.882812 43.457031 33.207031 45.234375 33.207031 C 53.199219 33.207031 59.675781 26.730469 59.675781 18.765625 C 59.675781 17.230469 59.429688 15.703125 58.941406 14.242188 Z M 58.941406 14.242188 "/>
</g>
</svg>
