<svg xmlns="http://www.w3.org/2000/svg" xmlns:xlink="http://www.w3.org/1999/xlink" width="64px" height="64px" viewBox="0 0 64 64" version="1.1">
<defs>
<linearGradient id="linear0" gradientUnits="userSpaceOnUse" x1="0" y1="0" x2="0" y2="1" gradientTransform="matrix(55.351351,0,0,55.351351,4.324324,4.324324)">
<stop offset="0" style="stop-color:#ffae00;stop-opacity:1;"/>
<stop offset="0.5" style="stop-color:#dddddd;stop-opacity:1;"/>
<stop offset="1" style="stop-color:#6600ff;stop-opacity:1;"/>
</linearGradient>
</defs>
<g id="surface1">
<path style=" stroke:none;fill-rule:nonzero;fill:url(#linear0);" d="M 32 4.324219 C 16.714844 4.324219 4.324219 16.714844 4.324219 32 C 4.324219 47.285156 16.714844 59.675781 32 59.675781 C 47.285156 59.675781 59.675781 47.285156 59.675781 32 C 59.675781 16.714844 47.285156 4.324219 32 4.324219 Z M 23.753906 25.539062 C 26.441406 25.296875 29.148438 27.191406 30.144531 30.199219 C 31.273438 33.632812 29.742188 37.230469 26.71875 38.226562 C 23.699219 39.226562 20.3125 37.242188 19.1875 33.8125 C 18.050781 30.378906 19.589844 26.78125 22.613281 25.78125 C 22.988281 25.660156 23.367188 25.578125 23.753906 25.539062 Z M 40.246094 25.539062 C 40.632812 25.578125 41.011719 25.660156 41.386719 25.78125 C 44.410156 26.78125 45.949219 30.378906 44.8125 33.8125 C 43.6875 37.242188 40.300781 39.226562 37.28125 38.226562 C 34.257812 37.230469 32.726562 33.632812 33.855469 30.199219 C 34.851562 27.191406 37.558594 25.296875 40.246094 25.539062 Z M 40.246094 25.539062 "/>
</g>
</svg>
