<svg xmlns="http://www.w3.org/2000/svg" xmlns:xlink="http://www.w3.org/1999/xlink" width="64px" height="64px" viewBox="0 0 64 64" version="1.1">
<defs>
<linearGradient id="linear0" gradientUnits="userSpaceOnUse" x1="0" y1="0" x2="0" y2="1" gradientTransform="matrix(55.342341,0,0,55.351351,4.328829,4.324324)">
<stop offset="0" style="stop-color:#00a2ff;stop-opacity:1;"/>
<stop offset="0.5" style="stop-color:#dddddd;stop-opacity:1;"/>
<stop offset="1" style="stop-color:#00ffae;stop-opacity:1;"/>
</linearGradient>
</defs>
<g id="surface1">
<path style=" stroke:none;fill-rule:nonzero;fill:url(#linear0);" d="M 55.023438 27.488281 C 61.394531 20.703125 60.679688 8.765625 56.121094 4.324219 C 56.121094 8.113281 53.328125 14.625 47.730469 17.988281 C 47.308594 17.132812 46.976562 16.097656 46.3125 15.621094 C 45.363281 14.929688 43.550781 15.238281 42.503906 14.707031 C 41.457031 14.171875 40.644531 12.523438 39.523438 12.164062 C 38.40625 11.796875 36.78125 12.652344 35.617188 12.46875 C 34.460938 12.285156 33.175781 10.96875 32 10.96875 C 30.824219 10.96875 29.539062 12.285156 28.382812 12.46875 C 27.21875 12.652344 25.59375 11.796875 24.472656 12.164062 C 23.355469 12.523438 22.539062 14.171875 21.496094 14.707031 C 20.449219 15.238281 18.636719 14.929688 17.6875 15.621094 C 17.023438 16.097656 16.691406 17.132812 16.269531 17.988281 C 10.671875 14.625 7.878906 8.113281 7.878906 4.324219 C 3.320312 8.765625 2.605469 20.699219 8.976562 27.488281 C 8.914062 27.589844 8.867188 27.6875 8.835938 27.796875 C 8.472656 28.914062 9.328125 30.539062 9.148438 31.703125 C 8.960938 32.863281 7.644531 34.144531 7.644531 35.320312 C 7.644531 36.496094 8.960938 37.78125 9.148438 38.941406 C 9.328125 40.105469 8.472656 41.730469 8.835938 42.847656 C 9.203125 43.96875 10.851562 44.773438 11.382812 45.824219 C 11.917969 46.875 11.609375 48.6875 12.292969 49.636719 C 12.988281 50.585938 14.8125 50.851562 15.636719 51.679688 C 16.46875 52.511719 16.734375 54.335938 17.6875 55.023438 C 18.636719 55.714844 20.449219 55.40625 21.496094 55.9375 C 22.539062 56.46875 23.355469 58.117188 24.472656 58.484375 C 25.59375 58.847656 27.21875 57.988281 28.382812 58.175781 C 29.539062 58.355469 30.824219 59.675781 32 59.675781 C 33.175781 59.675781 34.460938 58.355469 35.617188 58.175781 C 36.78125 57.988281 38.40625 58.847656 39.523438 58.484375 C 40.644531 58.117188 41.457031 56.46875 42.503906 55.9375 C 43.550781 55.40625 45.363281 55.714844 46.3125 55.023438 C 47.265625 54.335938 47.53125 52.511719 48.363281 51.679688 C 49.1875 50.851562 51.011719 50.585938 51.703125 49.636719 C 52.390625 48.6875 52.082031 46.875 52.617188 45.824219 C 53.148438 44.773438 54.796875 43.96875 55.164062 42.847656 C 55.523438 41.730469 54.664062 40.105469 54.851562 38.941406 C 55.039062 37.78125 56.355469 36.496094 56.355469 35.320312 C 56.355469 34.144531 55.039062 32.863281 54.851562 31.703125 C 54.664062 30.539062 55.523438 28.914062 55.164062 27.796875 C 55.132812 27.6875 55.082031 27.589844 55.023438 27.488281 Z M 55.023438 27.488281 "/>
</g>
</svg>
