<svg xmlns="http://www.w3.org/2000/svg" xmlns:xlink="http://www.w3.org/1999/xlink" width="64px" height="64px" viewBox="0 0 64 64" version="1.1">
<defs>
<linearGradient id="linear0" gradientUnits="userSpaceOnUse" x1="0" y1="0" x2="0" y2="1" gradientTransform="matrix(55.351351,0,0,31.135135,4.324324,16.432432)">
<stop offset="0" style="stop-color:#ff8963;stop-opacity:1;"/>
<stop offset="0.5" style="stop-color:#dddddd;stop-opacity:1;"/>
<stop offset="1" style="stop-color:#0F6FFF;stop-opacity:1;"/>
</linearGradient>
</defs>
<g id="surface1">
<path style=" stroke:none;fill-rule:nonzero;fill:url(#linear0);" d="M 12.109375 16.433594 C 10.191406 16.433594 4.773438 25.0625 4.351562 28.230469 C 4.335938 28.324219 4.320312 28.421875 4.324219 28.539062 C 4.320312 28.660156 4.335938 28.757812 4.351562 28.851562 C 4.769531 32.011719 10.191406 40.648438 12.109375 40.648438 C 14.023438 40.648438 19.445312 32.011719 19.863281 28.851562 C 19.882812 28.757812 19.894531 28.660156 19.890625 28.539062 C 19.894531 28.421875 19.882812 28.324219 19.863281 28.230469 C 19.441406 25.0625 14.023438 16.433594 12.109375 16.433594 Z M 51.890625 16.433594 C 49.976562 16.433594 44.558594 25.0625 44.136719 28.230469 C 44.117188 28.324219 44.105469 28.421875 44.109375 28.539062 C 44.105469 28.660156 44.117188 28.757812 44.136719 28.851562 C 44.554688 32.011719 49.976562 40.648438 51.890625 40.648438 C 53.808594 40.648438 59.230469 32.011719 59.648438 28.851562 C 59.664062 28.757812 59.679688 28.660156 59.675781 28.539062 C 59.679688 28.421875 59.664062 28.324219 59.648438 28.230469 C 59.226562 25.0625 53.808594 16.433594 51.890625 16.433594 Z M 32 23.351562 C 30.085938 23.351562 24.664062 31.984375 24.242188 35.148438 C 24.226562 35.242188 24.210938 35.339844 24.214844 35.460938 C 24.210938 35.578125 24.226562 35.675781 24.242188 35.769531 C 24.664062 38.933594 30.085938 47.566406 32 47.566406 C 33.914062 47.566406 39.335938 38.933594 39.757812 35.769531 C 39.773438 35.675781 39.789062 35.578125 39.785156 35.460938 C 39.789062 35.339844 39.773438 35.242188 39.757812 35.148438 C 39.335938 31.984375 33.914062 23.351562 32 23.351562 Z M 32 23.351562 "/>
</g>
</svg>
