<svg xmlns="http://www.w3.org/2000/svg" xmlns:xlink="http://www.w3.org/1999/xlink" width="64px" height="64px" viewBox="0 0 64 64" version="1.1">
<defs>
<linearGradient id="linear0" gradientUnits="userSpaceOnUse" x1="0" y1="0" x2="0" y2="1" gradientTransform="matrix(53.864865,0,0,55.351351,5.067568,4.324324)">
<stop offset="0" style="stop-color:#ffae00;stop-opacity:1;"/>
<stop offset="0.5" style="stop-color:#dddddd;stop-opacity:1;"/>
<stop offset="1" style="stop-color:#bf1d1d;stop-opacity:1;"/>
</linearGradient>
</defs>
<g id="surface1">
<path style=" stroke:none;fill-rule:evenodd;fill:url(#linear0);" d="M 26.335938 4.328125 C 25.746094 4.390625 25.230469 4.867188 25.121094 5.449219 L 23.957031 11.375 C 21.863281 12.191406 19.890625 13.320312 18.164062 14.703125 L 12.414062 12.757812 C 11.8125 12.550781 11.089844 12.820312 10.769531 13.363281 L 5.234375 22.960938 C 4.921875 23.515625 5.054688 24.28125 5.539062 24.691406 L 10.117188 28.710938 C 9.960938 29.792969 9.863281 30.878906 9.863281 32 C 9.863281 33.125 9.960938 34.207031 10.117188 35.289062 L 5.539062 39.3125 C 5.054688 39.71875 4.921875 40.488281 5.234375 41.039062 L 10.769531 50.636719 C 11.089844 51.1875 11.8125 51.449219 12.414062 51.242188 L 18.164062 49.296875 C 19.890625 50.679688 21.863281 51.8125 23.957031 52.632812 L 25.125 58.550781 C 25.242188 59.171875 25.835938 59.664062 26.460938 59.675781 L 37.539062 59.675781 C 38.164062 59.664062 38.757812 59.171875 38.875 58.550781 L 40.042969 52.632812 C 42.136719 51.8125 44.109375 50.679688 45.835938 49.296875 L 51.585938 51.242188 C 52.1875 51.449219 52.910156 51.1875 53.230469 50.636719 L 58.765625 41.039062 C 59.078125 40.488281 58.945312 39.71875 58.460938 39.3125 L 53.882812 35.289062 C 54.039062 34.210938 54.136719 33.125 54.136719 32 C 54.136719 30.878906 54.039062 29.792969 53.882812 28.710938 L 58.460938 24.691406 C 58.945312 24.28125 59.078125 23.515625 58.765625 22.960938 L 53.230469 13.363281 C 52.910156 12.820312 52.1875 12.550781 51.585938 12.757812 L 45.835938 14.703125 C 44.109375 13.320312 42.136719 12.191406 40.042969 11.375 L 38.875 5.449219 C 38.757812 4.828125 38.164062 4.335938 37.539062 4.324219 L 26.460938 4.324219 C 26.421875 4.324219 26.378906 4.324219 26.335938 4.324219 Z M 21.621094 32 C 21.621094 26.269531 26.269531 21.621094 32 21.621094 C 37.730469 21.621094 42.378906 26.269531 42.378906 32 C 42.378906 37.730469 37.730469 42.378906 32 42.378906 C 26.269531 42.378906 21.621094 37.730469 21.621094 32 Z M 21.621094 32 "/>
</g>
</svg>
