<svg xmlns="http://www.w3.org/2000/svg" xmlns:xlink="http://www.w3.org/1999/xlink" width="64px" height="64px" viewBox="0 0 64 64" version="1.1">
<defs>
<linearGradient id="linear0" gradientUnits="userSpaceOnUse" x1="0" y1="0" x2="0" y2="1" gradientTransform="matrix(51.918919,0,0,55.135135,6.040541,4.324324)">
<stop offset="0" style="stop-color:#05f7ff;stop-opacity:1;"/>
<stop offset="0.5" style="stop-color:#dddddd;stop-opacity:1;"/>
<stop offset="1" style="stop-color:#e6ff05;stop-opacity:1;"/>
</linearGradient>
</defs>
<g id="surface1">
<path style=" stroke:none;fill-rule:nonzero;fill:url(#linear0);" d="M 35.570312 35.300781 L 28.742188 35.378906 L 32.414062 24.363281 L 57.960938 24.21875 L 46.8125 59.460938 L 29.835938 59.460938 L 32.414062 51.675781 C 17.808594 54.757812 6.136719 50.050781 6.0625 39.78125 C 5.417969 22.714844 19.863281 5.351562 40.339844 4.324219 C 49.960938 4.609375 55.714844 8.671875 57.59375 16.511719 L 41.078125 22.457031 C 40.207031 18.890625 37.867188 17.457031 34.03125 18.125 C 26.46875 20.328125 21.707031 29.671875 23.386719 35.378906 C 24.214844 38.175781 26.714844 38.90625 29.257812 38.824219 C 31.835938 38.972656 33.945312 37.808594 35.570312 35.300781 Z M 35.570312 35.300781 "/>
</g>
</svg>
