<svg xmlns="http://www.w3.org/2000/svg" xmlns:xlink="http://www.w3.org/1999/xlink" width="64px" height="64px" viewBox="0 0 64 64" version="1.1">
<defs>
<linearGradient id="linear0" gradientUnits="userSpaceOnUse" x1="0" y1="0" x2="0" y2="1" gradientTransform="matrix(55.189189,0,0,50.923422,5.135135,6.211712)">
<stop offset="0" style="stop-color:#00a2ff;stop-opacity:1;"/>
<stop offset="0.5" style="stop-color:#dddddd;stop-opacity:1;"/>
<stop offset="1" style="stop-color:#00ffae;stop-opacity:1;"/>
</linearGradient>
</defs>
<g id="surface1">
<path style=" stroke:none;fill-rule:nonzero;fill:url(#linear0);" d="M 32.730469 6.210938 C 30.089844 6.210938 27.867188 8.191406 27.570312 10.8125 C 25.566406 11.488281 23.582031 12.351562 21.664062 13.460938 C 16.1875 16.621094 12.011719 21.148438 9.539062 26.136719 C 7.011719 26.523438 5.136719 28.703125 5.136719 31.265625 C 5.136719 32.824219 5.839844 34.308594 7.054688 35.292969 C 6.847656 38.996094 7.617188 42.664062 9.539062 45.984375 C 11.300781 49.042969 13.835938 51.40625 16.8125 53.066406 C 17.339844 55.441406 19.445312 57.132812 21.878906 57.136719 C 23.1875 57.136719 24.441406 56.644531 25.402344 55.757812 C 31.3125 56.441406 37.839844 55.164062 43.765625 51.742188 C 44.984375 51.039062 46.109375 50.246094 47.191406 49.417969 C 47.949219 49.824219 48.796875 50.039062 49.660156 50.039062 C 52.523438 50.039062 54.847656 47.714844 54.847656 44.851562 C 54.847656 43.894531 54.582031 42.960938 54.082031 42.144531 C 57.773438 36.609375 59.246094 30.207031 57.875 24.320312 C 59.394531 23.375 60.324219 21.707031 60.324219 19.914062 C 60.324219 17.042969 58 14.726562 55.136719 14.726562 C 54.328125 14.71875 53.53125 14.910156 52.8125 15.269531 C 48.890625 11.40625 43.394531 9.378906 37.460938 9.269531 C 36.621094 7.410156 34.769531 6.210938 32.730469 6.210938 Z M 37.539062 13.324219 C 42.550781 13.460938 47.078125 15.210938 50.175781 18.375 C 50.023438 18.867188 49.945312 19.390625 49.945312 19.914062 C 49.949219 22.28125 51.558594 24.347656 53.851562 24.933594 C 55.054688 29.679688 53.90625 35.050781 50.792969 39.789062 C 50.417969 39.707031 50.039062 39.664062 49.660156 39.664062 C 46.789062 39.664062 44.46875 41.988281 44.46875 44.851562 C 44.46875 45.328125 44.53125 45.800781 44.664062 46.265625 C 43.738281 46.960938 42.78125 47.625 41.734375 48.230469 C 36.90625 51.015625 31.746094 52.164062 27.066406 51.863281 C 27.023438 49.03125 24.710938 46.757812 21.878906 46.757812 C 20.238281 46.761719 18.691406 47.539062 17.714844 48.863281 C 15.808594 47.589844 14.199219 45.949219 13.050781 43.949219 C 11.714844 41.648438 11.109375 39.0625 11.113281 36.390625 C 13.644531 36 15.511719 33.824219 15.511719 31.265625 C 15.511719 29.6875 14.792969 28.199219 13.5625 27.214844 C 15.679688 23.261719 19.109375 19.617188 23.6875 16.972656 C 25.339844 16.015625 27.03125 15.28125 28.730469 14.703125 C 29.714844 15.894531 31.179688 16.585938 32.730469 16.589844 C 34.851562 16.585938 36.753906 15.292969 37.539062 13.324219 Z M 37.539062 13.324219 "/>
</g>
</svg>
