<svg xmlns="http://www.w3.org/2000/svg" xmlns:xlink="http://www.w3.org/1999/xlink" width="64px" height="64px" viewBox="0 0 64 64" version="1.1">
<defs>
<linearGradient id="linear0" gradientUnits="userSpaceOnUse" x1="0" y1="0" x2="0" y2="1" gradientTransform="matrix(55.351351,0,0,51.72072,4.324324,6.13964)">
<stop offset="0" style="stop-color:#ffae00;stop-opacity:1;"/>
<stop offset="0.5" style="stop-color:#dddddd;stop-opacity:1;"/>
<stop offset="1" style="stop-color:#bf1d1d;stop-opacity:1;"/>
</linearGradient>
</defs>
<g id="surface1">
<path style=" stroke:none;fill-rule:nonzero;fill:url(#linear0);" d="M 15.171875 57.542969 C 13.300781 56.875 9.875 54.890625 8.292969 53.570312 C 5.496094 51.230469 3.441406 48.085938 4.707031 48.085938 C 4.914062 48.085938 6.363281 49.105469 7.933594 50.347656 C 13.070312 54.433594 17.109375 55.875 20.789062 54.9375 C 24.972656 53.867188 31.214844 50.003906 32.742188 47.53125 C 33.71875 45.945312 33.691406 44.949219 32.652344 44.210938 C 31.851562 43.636719 31.921875 43.617188 34.242188 43.699219 L 36.675781 43.789062 L 36.78125 45.097656 C 36.855469 46.015625 36.441406 47.324219 35.378906 49.515625 C 34.550781 51.230469 33.867188 52.929688 33.867188 53.292969 C 33.867188 54.109375 31.164062 55.621094 28.070312 56.542969 C 25.703125 57.253906 19.320312 57.484375 17.257812 56.933594 C 16.292969 56.675781 16.21875 56.710938 16.648438 57.230469 C 17.058594 57.71875 17.027344 57.808594 16.433594 57.785156 C 16.042969 57.769531 15.476562 57.664062 15.171875 57.554688 Z M 30.40625 56.582031 C 35.054688 54.644531 38.027344 52.488281 40.039062 49.589844 C 41.027344 48.160156 41.105469 47.058594 40.144531 48.015625 C 39.144531 49.015625 38.730469 48.496094 38.730469 46.214844 C 38.730469 43.257812 37.957031 42.367188 35.644531 42.6875 L 34.058594 42.902344 L 35.929688 41.910156 C 36.957031 41.363281 38.050781 40.699219 38.355469 40.433594 C 38.664062 40.164062 39.625 39.589844 40.496094 39.152344 C 42.375 38.207031 42.839844 37.441406 42.839844 35.347656 C 42.839844 32.679688 42.058594 30.835938 40.027344 28.734375 C 38.914062 27.582031 38.363281 26.769531 38.6875 26.769531 C 38.996094 26.769531 40.132812 27.679688 41.207031 28.792969 C 42.761719 30.390625 43.328125 31.335938 43.941406 33.320312 C 44.847656 36.257812 44.957031 40.476562 44.199219 43.6875 C 43.917969 44.875 43.746094 45.839844 43.8125 45.839844 C 43.886719 45.839844 44.191406 45.378906 44.5 44.8125 C 44.808594 44.246094 45.0625 43.988281 45.070312 44.234375 C 45.097656 44.917969 43.386719 47.96875 41.820312 50.03125 C 39.085938 53.636719 33.300781 57.164062 29.382812 57.621094 L 27.324219 57.863281 Z M 26.390625 41.699219 C 22.761719 40.0625 19.117188 35.160156 18.703125 31.347656 L 18.511719 29.570312 L 19.703125 31.984375 C 21.972656 36.550781 25.402344 38.941406 28.078125 37.824219 C 29.214844 37.347656 30.503906 35.976562 30.503906 35.242188 C 30.503906 35.058594 30.089844 35.1875 29.582031 35.511719 C 28.097656 36.488281 26.132812 36.292969 24.894531 35.054688 C 22.234375 32.394531 22.808594 27.761719 26.210938 24.355469 C 28.160156 22.40625 29.609375 21.800781 32.765625 21.613281 C 35.09375 21.476562 35.917969 21.582031 37.511719 22.273438 C 41.234375 23.878906 44.960938 29.011719 45.363281 33.085938 L 45.53125 34.8125 L 44.242188 32.191406 C 42.597656 28.839844 41.363281 27.402344 39.289062 26.390625 C 37.21875 25.390625 35.757812 25.636719 34.441406 27.199219 C 33.238281 28.632812 33.226562 29.273438 34.414062 28.496094 C 35.894531 27.523438 37.863281 27.714844 39.105469 28.957031 C 42.8125 32.664062 39.910156 39.96875 33.90625 42.039062 C 31.902344 42.730469 28.3125 42.566406 26.386719 41.699219 Z M 34.746094 40.488281 C 35.5 39.914062 36.363281 38.957031 36.675781 38.363281 C 37.824219 36.136719 37.058594 32.355469 35.339844 31.8125 C 34.300781 31.476562 33.386719 32.355469 31.625 35.367188 C 29.746094 38.589844 29.03125 39.179688 26.761719 39.402344 C 25.132812 39.554688 24.945312 39.652344 25.355469 40.148438 C 26.273438 41.257812 28.011719 41.738281 30.726562 41.636719 C 32.960938 41.542969 33.59375 41.363281 34.746094 40.488281 Z M 30.394531 31.539062 C 30.820312 31.070312 31.6875 29.757812 32.328125 28.613281 C 33.988281 25.632812 34.976562 24.824219 37.234375 24.609375 C 39.042969 24.4375 39.105469 24.394531 38.511719 23.742188 C 37.558594 22.6875 35.527344 22.1875 32.902344 22.351562 C 30.257812 22.515625 29.011719 23.207031 27.605469 25.269531 C 25.351562 28.578125 27.886719 34.273438 30.394531 31.539062 Z M 23.210938 35.703125 C 19.894531 32.648438 18.511719 27.578125 19.488281 22.09375 C 20.152344 18.335938 20.152344 18.242188 19.460938 19.125 C 18.960938 19.761719 18.960938 19.664062 19.476562 18.355469 C 21.410156 13.460938 27.308594 8.339844 32.835938 6.761719 C 35.839844 5.90625 37.347656 6.175781 34.617188 7.082031 C 29.828125 8.671875 24.863281 12.355469 23.21875 15.53125 L 22.554688 16.820312 L 23.523438 16.1875 C 25.054688 15.179688 25.269531 15.378906 25.269531 17.792969 C 25.269531 20.761719 26.042969 21.648438 28.355469 21.3125 L 29.941406 21.078125 L 28.261719 21.988281 C 25.175781 23.660156 22.09375 25.652344 21.621094 26.289062 C 21.027344 27.085938 21.023438 29.792969 21.613281 31.773438 C 21.894531 32.710938 22.8125 34.082031 23.972656 35.28125 C 26.210938 37.59375 25.621094 37.929688 23.210938 35.707031 Z M 27.386719 20.164062 C 26.785156 19.558594 27.257812 17.367188 28.636719 14.429688 C 29.449219 12.679688 30.121094 10.984375 30.125 10.652344 C 30.132812 9.90625 32.988281 8.339844 35.929688 7.472656 C 38.328125 6.765625 43.800781 6.558594 46.375 7.082031 C 47.691406 7.351562 47.796875 7.320312 47.355469 6.792969 C 45.703125 4.800781 52.523438 7.769531 55.6875 10.421875 C 58.5 12.773438 60.5625 15.921875 59.292969 15.921875 C 59.085938 15.921875 57.613281 14.886719 56.023438 13.621094 C 52.785156 11.042969 50.476562 8.902344 47.054688 8.265625 C 44.53125 7.800781 41.796875 8.496094 39.476562 9.585938 C 35.808594 11.308594 30.210938 15.179688 30.210938 17.460938 C 30.210938 17.8125 30.875 19.230469 31.324219 19.648438 L 32.136719 20.410156 L 29.886719 20.410156 C 28.648438 20.410156 27.523438 20.292969 27.386719 20.164062 Z M 27.386719 20.164062 "/>
</g>
</svg>
