<svg xmlns="http://www.w3.org/2000/svg" xmlns:xlink="http://www.w3.org/1999/xlink" width="64px" height="64px" viewBox="0 0 64 64" version="1.1">
<defs>
<linearGradient id="linear0" gradientUnits="userSpaceOnUse" x1="0" y1="0" x2="0" y2="1" gradientTransform="matrix(55.351351,0,0,51.666666,4.324324,6.166666)">
<stop offset="0" style="stop-color:#ffae00;stop-opacity:1;"/>
<stop offset="0.5" style="stop-color:#dddddd;stop-opacity:1;"/>
<stop offset="1" style="stop-color:#bf1d1d;stop-opacity:1;"/>
</linearGradient>
</defs>
<g id="surface1">
<path style=" stroke:none;fill-rule:evenodd;fill:url(#linear0);" d="M 17.386719 23.652344 C 18.085938 19.617188 21.066406 16.769531 24.039062 17.308594 C 27.011719 17.839844 28.863281 21.554688 28.164062 25.589844 C 27.460938 29.625 24.484375 32.46875 21.511719 31.9375 C 18.539062 31.402344 16.6875 27.6875 17.386719 23.652344 Z M 53.597656 43.109375 C 53.910156 42.542969 54.152344 41.941406 54.3125 41.296875 C 55.414062 38.433594 55.988281 35.289062 55.988281 32 C 55.988281 30.660156 55.890625 29.335938 55.660156 28.066406 C 57.984375 27.429688 59.675781 25.296875 59.675781 22.773438 C 59.675781 19.71875 57.191406 17.238281 54.136719 17.238281 C 53.339844 17.238281 52.585938 17.410156 51.929688 17.773438 C 47.691406 10.761719 40.339844 6.164062 32 6.164062 C 23.660156 6.164062 16.308594 10.761719 12.070312 17.773438 C 11.414062 17.410156 10.660156 17.238281 9.863281 17.238281 C 6.808594 17.238281 4.324219 19.71875 4.324219 22.773438 C 4.324219 25.296875 6.015625 27.429688 8.339844 28.066406 C 8.109375 29.335938 8.011719 30.660156 8.011719 32 C 8.011719 46.257812 18.761719 57.835938 32 57.835938 C 32.726562 57.835938 33.4375 57.796875 34.136719 57.730469 C 34.3125 57.71875 34.484375 57.714844 34.648438 57.699219 C 45.828125 57.070312 54.460938 55.1875 57.835938 54.136719 C 53.039062 52.59375 52.390625 47.105469 53.597656 43.109375 Z M 35.835938 25.585938 C 35.136719 21.542969 36.984375 17.835938 39.957031 17.308594 C 42.929688 16.769531 45.910156 19.617188 46.613281 23.660156 C 47.3125 27.691406 45.46875 31.40625 42.496094 31.9375 C 39.523438 32.46875 36.539062 29.621094 35.835938 25.585938 Z M 35.835938 25.585938 "/>
</g>
</svg>
