<svg xmlns="http://www.w3.org/2000/svg" xmlns:xlink="http://www.w3.org/1999/xlink" width="64px" height="64px" viewBox="0 0 64 64" version="1.1">
<defs>
<linearGradient id="linear0" gradientUnits="userSpaceOnUse" x1="0" y1="0" x2="0" y2="1" gradientTransform="matrix(52.189189,0,0,55.351351,5.905405,4.324324)">
<stop offset="0" style="stop-color:#05f7ff;stop-opacity:1;"/>
<stop offset="0.5" style="stop-color:#dddddd;stop-opacity:1;"/>
<stop offset="1" style="stop-color:#e6ff05;stop-opacity:1;"/>
</linearGradient>
</defs>
<g id="surface1">
<path style=" stroke:none;fill-rule:nonzero;fill:url(#linear0);" d="M 27.238281 4.324219 L 19.105469 35.597656 C 16.761719 22.609375 14.738281 15.707031 11.988281 10.207031 C 9.539062 12.445312 7.488281 15.082031 5.90625 18.003906 C 7.851562 22.996094 9.71875 29.707031 12.234375 40.300781 C 14.933594 51.835938 19.308594 56 29.3125 57.96875 L 36.476562 59.675781 L 44.609375 28.394531 C 47.027344 41.796875 49.109375 48.71875 51.996094 54.308594 C 54.429688 52.136719 56.488281 49.585938 58.09375 46.746094 C 56.042969 41.691406 54.117188 34.8125 51.484375 23.699219 C 48.785156 12.164062 44.40625 8 34.40625 6.03125 Z M 34.082031 12.648438 C 39.148438 14.003906 41.085938 16.472656 42.648438 21.523438 L 39.210938 21.523438 L 29.636719 51.351562 C 24.566406 49.996094 22.632812 47.527344 21.066406 42.476562 L 24.511719 42.476562 Z M 34.082031 12.648438 "/>
</g>
</svg>
