<svg xmlns="http://www.w3.org/2000/svg" xmlns:xlink="http://www.w3.org/1999/xlink" width="64px" height="64px" viewBox="0 0 64 64" version="1.1">
<defs>
<linearGradient id="linear0" gradientUnits="userSpaceOnUse" x1="0" y1="0" x2="0" y2="1" gradientTransform="matrix(52,0,0,55.351351,6,4.324324)">
<stop offset="0" style="stop-color:#00fff2;stop-opacity:1;"/>
<stop offset="0.5" style="stop-color:#dddddd;stop-opacity:1;"/>
<stop offset="1" style="stop-color:#0062ff;stop-opacity:1;"/>
</linearGradient>
</defs>
<g id="surface1">
<path style=" stroke:none;fill-rule:nonzero;fill:url(#linear0);" d="M 39.109375 4.324219 C 39.109375 4.324219 38.003906 5.09375 36.710938 6.292969 C 35.792969 7.148438 34.929688 8.515625 34.144531 9.886719 C 31.828125 10.890625 28.199219 12.402344 24.988281 15.875 C 21.773438 19.351562 19.230469 24.746094 18.488281 32.8125 C 17.707031 32.46875 16.863281 32.296875 16.011719 32.300781 C 11.996094 32.300781 6 34.339844 6 44.28125 C 6 52.78125 13.207031 59.675781 21.058594 59.675781 C 28.40625 59.675781 36.113281 52.78125 36.113281 44.28125 C 36.113281 34.28125 28.757812 32.300781 26.105469 32.300781 C 25.269531 32.300781 24.578125 32.488281 23.96875 32.726562 C 24.671875 25.960938 26.710938 22.03125 29.011719 19.554688 C 29.996094 18.496094 31.042969 17.738281 32.09375 17.066406 C 31.488281 26.03125 35.460938 33.125 37.566406 37.347656 C 38.367188 39.210938 38.851562 41.496094 38.851562 44.28125 C 38.851562 48.835938 37.066406 52.882812 34.320312 55.996094 C 38.460938 59.761719 44.53125 60.894531 50.144531 58.136719 C 56.511719 55.011719 60.132812 46.085938 56.644531 38.972656 C 52.539062 30.621094 45.484375 32.039062 43.214844 33.160156 C 42.710938 33.402344 42.285156 33.703125 41.933594 34.011719 C 39.28125 28.6875 35.847656 21.800781 38.421875 12.878906 C 38.5625 12.410156 39.429688 11.203125 40.390625 10.3125 C 41.355469 9.429688 42.1875 8.863281 42.1875 8.863281 Z M 41.589844 13.308594 C 41.589844 13.308594 38.9375 18.644531 41.761719 24.597656 C 44.742188 27.328125 49.757812 27.003906 52.539062 26.226562 C 52.539062 26.226562 51.429688 20.136719 48.089844 17.328125 C 44.609375 14.394531 41.589844 13.308594 41.589844 13.308594 Z M 41.589844 13.308594 "/>
</g>
</svg>
