<svg xmlns="http://www.w3.org/2000/svg" xmlns:xlink="http://www.w3.org/1999/xlink" width="64px" height="64px" viewBox="0 0 64 64" version="1.1">
<defs>
<linearGradient id="linear0" gradientUnits="userSpaceOnUse" x1="0" y1="0" x2="0" y2="1" gradientTransform="matrix(55.351351,0,0,55.351351,4.324324,4.324324)">
<stop offset="0" style="stop-color:#00a2ff;stop-opacity:1;"/>
<stop offset="0.5" style="stop-color:#dddddd;stop-opacity:1;"/>
<stop offset="1" style="stop-color:#00ffae;stop-opacity:1;"/>
</linearGradient>
</defs>
<g id="surface1">
<path style=" stroke:none;fill-rule:nonzero;fill:url(#linear0);" d="M 58.632812 29.539062 L 34.460938 5.367188 C 33.070312 3.976562 30.8125 3.976562 29.421875 5.367188 L 24.40625 10.386719 L 30.769531 16.753906 C 32.253906 16.253906 33.945312 16.589844 35.125 17.769531 C 36.3125 18.957031 36.644531 20.664062 36.132812 22.152344 L 42.265625 28.289062 C 43.753906 27.773438 45.460938 28.105469 46.648438 29.292969 C 48.308594 30.949219 48.308594 33.636719 46.648438 35.292969 C 44.988281 36.949219 42.308594 36.949219 40.648438 35.292969 C 39.402344 34.042969 39.09375 32.210938 39.726562 30.679688 L 34.003906 24.960938 L 34.003906 40.011719 C 34.410156 40.214844 34.789062 40.484375 35.125 40.820312 C 36.785156 42.472656 36.785156 45.160156 35.125 46.820312 C 33.46875 48.472656 30.785156 48.472656 29.125 46.820312 C 27.472656 45.160156 27.472656 42.476562 29.125 40.820312 C 29.539062 40.410156 30.011719 40.097656 30.515625 39.890625 L 30.515625 24.691406 C 30.011719 24.488281 29.539062 24.179688 29.125 23.765625 C 27.875 22.511719 27.570312 20.671875 28.214844 19.132812 L 21.941406 12.851562 L 5.367188 29.421875 C 3.976562 30.820312 3.976562 33.070312 5.367188 34.460938 L 29.539062 58.632812 C 30.929688 60.023438 33.1875 60.023438 34.578125 58.632812 L 58.632812 34.578125 C 60.023438 33.1875 60.023438 30.929688 58.632812 29.539062 "/>
</g>
</svg>
