<svg xmlns="http://www.w3.org/2000/svg" xmlns:xlink="http://www.w3.org/1999/xlink" width="64px" height="64px" viewBox="0 0 64 64" version="1.1">
<defs>
<linearGradient id="linear0" gradientUnits="userSpaceOnUse" x1="0" y1="0" x2="0" y2="1" gradientTransform="matrix(48.432432,0,0,42.549551,7.783784,10.725225)">
<stop offset="0" style="stop-color:#00b7ff;stop-opacity:1;"/>
<stop offset="0.5" style="stop-color:#dddddd;stop-opacity:1;"/>
<stop offset="1" style="stop-color:#ee42d9;stop-opacity:1;"/>
</linearGradient>
</defs>
<g id="surface1">
<path style=" stroke:none;fill-rule:evenodd;fill:url(#linear0);" d="M 36.757812 36.449219 C 35.882812 36.449219 35.179688 37.160156 35.179688 38.027344 C 35.179688 38.894531 35.882812 39.605469 36.757812 39.605469 C 37.632812 39.605469 38.335938 38.894531 38.335938 38.027344 C 38.335938 37.160156 37.632812 36.449219 36.757812 36.449219 Z M 32 42.761719 C 31.988281 42.773438 31.988281 42.785156 31.976562 42.785156 C 31.976562 42.785156 31.972656 42.785156 31.96875 42.785156 C 31.578125 42.773438 31.1875 42.757812 30.921875 42.757812 C 30.917969 42.757812 30.917969 42.757812 30.917969 42.757812 L 30.917969 53.273438 C 17.621094 52.441406 7.789062 41.414062 7.785156 28.09375 C 7.792969 25.960938 8.066406 23.789062 8.609375 21.730469 C 9.023438 20.449219 9.558594 19.820312 10.214844 19.835938 C 11.671875 19.863281 12.21875 20.496094 11.867188 21.730469 C 11.253906 23.773438 10.941406 25.957031 10.9375 28.09375 C 10.960938 38.449219 17.652344 47.394531 27.765625 49.617188 L 27.765625 46.402344 C 26.789062 46.148438 25.828125 45.847656 24.914062 45.445312 L 24.613281 45.296875 C 18.089844 42.3125 14.09375 35.757812 14.09375 28.089844 C 14.09375 22.417969 16.582031 17.828125 20.511719 14.367188 C 24.363281 11.1875 26.78125 10.089844 27.765625 11.070312 C 28.824219 12.367188 28.292969 13.46875 26.164062 14.367188 C 20.882812 16.914062 17.246094 21.820312 17.246094 28.09375 C 17.246094 33.949219 19.894531 39.03125 24.613281 41.757812 L 24.613281 39.605469 C 24.042969 39.605469 23.5625 38.554688 23.5625 37.5 C 23.5625 36.449219 24.011719 35.394531 24.613281 35.394531 C 24.179688 33.179688 24.511719 31.613281 22.652344 29.929688 C 21.566406 29.207031 21.457031 29.011719 21.457031 27.753906 C 21.457031 25.863281 22.785156 23.136719 25.351562 19.765625 C 26.769531 17.96875 28.820312 14.367188 31.976562 14.367188 C 31.984375 14.367188 31.988281 14.367188 32 14.367188 C 32.011719 14.367188 32.015625 14.367188 32.023438 14.367188 C 35.179688 14.367188 37.230469 17.96875 38.648438 19.765625 C 41.214844 23.136719 42.542969 25.863281 42.542969 27.753906 C 42.542969 29.011719 42.433594 29.207031 41.347656 29.929688 C 39.488281 31.613281 39.820312 33.179688 39.386719 35.394531 C 39.988281 35.394531 40.4375 36.449219 40.4375 37.5 C 40.4375 38.554688 39.957031 39.605469 39.386719 39.605469 L 39.386719 41.757812 C 44.105469 39.03125 46.753906 33.949219 46.753906 28.09375 C 46.753906 21.820312 43.117188 16.914062 37.835938 14.367188 C 35.707031 13.46875 35.175781 12.367188 36.234375 11.070312 C 37.21875 10.089844 39.636719 11.1875 43.488281 14.367188 C 47.417969 17.828125 49.90625 22.417969 49.90625 28.089844 C 49.90625 35.757812 45.910156 42.3125 39.386719 45.296875 L 39.085938 45.445312 C 38.171875 45.847656 37.210938 46.148438 36.234375 46.402344 L 36.234375 49.617188 C 46.347656 47.394531 53.039062 38.449219 53.0625 28.09375 C 53.058594 25.957031 52.746094 23.773438 52.132812 21.730469 C 51.78125 20.496094 52.328125 19.863281 53.785156 19.835938 C 54.441406 19.820312 54.976562 20.449219 55.390625 21.730469 C 55.933594 23.789062 56.207031 25.960938 56.214844 28.09375 C 56.210938 41.414062 46.378906 52.441406 33.082031 53.273438 L 33.082031 42.757812 C 33.082031 42.757812 33.082031 42.757812 33.078125 42.757812 C 32.8125 42.757812 32.421875 42.773438 32.03125 42.785156 C 32.027344 42.785156 32.023438 42.785156 32.023438 42.785156 C 32.011719 42.785156 32.011719 42.773438 32 42.761719 Z M 27.242188 36.449219 C 26.367188 36.449219 25.664062 37.160156 25.664062 38.027344 C 25.664062 38.894531 26.367188 39.605469 27.242188 39.605469 C 28.117188 39.605469 28.820312 38.894531 28.820312 38.027344 C 28.820312 37.160156 28.117188 36.449219 27.242188 36.449219 Z M 27.242188 36.449219 "/>
</g>
</svg>
