<svg xmlns="http://www.w3.org/2000/svg" xmlns:xlink="http://www.w3.org/1999/xlink" width="64px" height="64px" viewBox="0 0 64 64" version="1.1">
<defs>
<linearGradient id="linear0" gradientUnits="userSpaceOnUse" x1="0" y1="0" x2="0" y2="1" gradientTransform="matrix(55.351351,0,0,50.53153,4.324324,6.734235)">
<stop offset="0" style="stop-color:#ffae00;stop-opacity:1;"/>
<stop offset="0.5" style="stop-color:#dddddd;stop-opacity:1;"/>
<stop offset="1" style="stop-color:#bf1d1d;stop-opacity:1;"/>
</linearGradient>
</defs>
<g id="surface1">
<path style=" stroke:none;fill-rule:nonzero;fill:url(#linear0);" d="M 47.660156 6.734375 C 47.132812 6.726562 46.664062 7.0625 46.496094 7.5625 L 40.511719 25.984375 L 23.488281 25.984375 L 17.503906 7.5625 C 17.347656 7.078125 16.894531 6.746094 16.382812 6.734375 C 15.875 6.71875 15.410156 7.03125 15.234375 7.511719 L 8.015625 26.757812 C 8.011719 26.757812 8.011719 26.757812 8.011719 26.761719 L 4.402344 36.390625 C 4.210938 36.894531 4.382812 37.46875 4.824219 37.785156 L 31.285156 57.027344 L 31.292969 57.039062 C 31.292969 57.039062 31.292969 57.039062 31.292969 57.042969 L 31.339844 57.070312 C 31.363281 57.082031 31.375 57.09375 31.394531 57.105469 C 31.394531 57.105469 31.394531 57.109375 31.40625 57.109375 C 31.40625 57.109375 31.410156 57.113281 31.410156 57.113281 C 31.417969 57.117188 31.421875 57.121094 31.433594 57.121094 L 31.449219 57.136719 C 31.472656 57.148438 31.5 57.164062 31.53125 57.171875 L 31.53125 57.175781 L 31.609375 57.203125 C 31.617188 57.203125 31.617188 57.203125 31.621094 57.207031 C 31.636719 57.210938 31.664062 57.21875 31.679688 57.226562 C 31.6875 57.226562 31.699219 57.230469 31.710938 57.230469 C 31.710938 57.238281 31.710938 57.238281 31.710938 57.230469 C 31.738281 57.238281 31.761719 57.242188 31.785156 57.253906 L 31.878906 57.265625 C 31.929688 57.265625 31.976562 57.265625 32.023438 57.265625 C 32.070312 57.265625 32.113281 57.265625 32.160156 57.253906 C 32.175781 57.253906 32.1875 57.253906 32.207031 57.253906 L 32.214844 57.253906 C 32.226562 57.242188 32.230469 57.242188 32.242188 57.242188 C 32.246094 57.242188 32.246094 57.238281 32.261719 57.238281 C 32.269531 57.238281 32.285156 57.238281 32.292969 57.230469 C 32.308594 57.226562 32.324219 57.21875 32.335938 57.214844 C 32.351562 57.214844 32.351562 57.214844 32.355469 57.210938 L 32.375 57.210938 C 32.414062 57.199219 32.457031 57.179688 32.496094 57.164062 C 32.5 57.164062 32.5 57.164062 32.5 57.152344 C 32.511719 57.152344 32.511719 57.152344 32.515625 57.148438 L 32.542969 57.136719 C 32.570312 57.121094 32.59375 57.109375 32.621094 57.09375 C 32.632812 57.089844 32.636719 57.085938 32.636719 57.082031 C 32.644531 57.082031 32.648438 57.070312 32.652344 57.070312 C 32.675781 57.058594 32.691406 57.054688 32.707031 57.039062 L 32.71875 57.027344 L 59.179688 37.789062 C 59.617188 37.460938 59.789062 36.894531 59.597656 36.390625 L 56 26.796875 C 55.996094 26.789062 55.988281 26.773438 55.988281 26.761719 L 48.769531 7.511719 C 48.59375 7.042969 48.160156 6.738281 47.660156 6.734375 Z M 11.621094 28.390625 L 21.738281 28.390625 L 28.789062 50.066406 Z M 42.261719 28.390625 L 52.378906 28.390625 L 35.210938 50.066406 Z M 9.511719 29.605469 L 25.609375 49.933594 L 6.976562 36.378906 Z M 54.488281 29.605469 L 57.027344 36.378906 L 38.390625 49.933594 Z M 54.488281 29.605469 "/>
</g>
</svg>
