<svg xmlns="http://www.w3.org/2000/svg" xmlns:xlink="http://www.w3.org/1999/xlink" width="64px" height="64px" viewBox="0 0 64 64" version="1.1">
<defs>
<linearGradient id="linear0" gradientUnits="userSpaceOnUse" x1="0" y1="0" x2="0" y2="1" gradientTransform="matrix(55.351351,0,0,55.351351,4.324324,4.324324)">
<stop offset="0" style="stop-color:#ffae00;stop-opacity:1;"/>
<stop offset="0.5" style="stop-color:#dddddd;stop-opacity:1;"/>
<stop offset="1" style="stop-color:#6600ff;stop-opacity:1;"/>
</linearGradient>
</defs>
<g id="surface1">
<path style=" stroke:none;fill-rule:nonzero;fill:url(#linear0);" d="M 32 4.324219 C 27.160156 4.324219 23.230469 8.253906 23.230469 13.09375 C 23.230469 17.9375 32 26.148438 32 26.148438 C 32 26.148438 40.769531 17.9375 40.769531 13.09375 C 40.769531 8.253906 36.839844 4.324219 32 4.324219 Z M 13.09375 23.230469 C 8.253906 23.230469 4.324219 27.160156 4.324219 32 C 4.324219 36.839844 8.253906 40.769531 13.09375 40.769531 C 17.9375 40.769531 26.148438 32 26.148438 32 C 26.148438 32 17.9375 23.230469 13.09375 23.230469 Z M 50.90625 23.230469 C 46.0625 23.230469 37.851562 32 37.851562 32 C 37.851562 32 46.0625 40.769531 50.90625 40.769531 C 55.746094 40.769531 59.675781 36.839844 59.675781 32 C 59.675781 27.160156 55.746094 23.230469 50.90625 23.230469 Z M 32 37.851562 C 32 37.851562 23.230469 46.0625 23.230469 50.90625 C 23.230469 55.746094 27.160156 59.675781 32 59.675781 C 36.839844 59.675781 40.769531 55.746094 40.769531 50.90625 C 40.769531 46.0625 32 37.851562 32 37.851562 Z M 32 37.851562 "/>
</g>
</svg>
