<svg xmlns="http://www.w3.org/2000/svg" xmlns:xlink="http://www.w3.org/1999/xlink" width="64px" height="64px" viewBox="0 0 64 64" version="1.1">
<defs>
<linearGradient id="linear0" gradientUnits="userSpaceOnUse" x1="0" y1="0" x2="0" y2="1" gradientTransform="matrix(55.351351,0,0,55.135135,4.324324,4.432432)">
<stop offset="0" style="stop-color:#ffae00;stop-opacity:1;"/>
<stop offset="0.5" style="stop-color:#dddddd;stop-opacity:1;"/>
<stop offset="1" style="stop-color:#6600ff;stop-opacity:1;"/>
</linearGradient>
</defs>
<g id="surface1">
<path style=" stroke:none;fill-rule:nonzero;fill:url(#linear0);" d="M 11.136719 4.433594 C 7.363281 4.433594 4.324219 7.472656 4.324219 11.242188 L 4.324219 52.757812 C 4.324219 56.527344 7.363281 59.566406 11.136719 59.566406 L 52.863281 59.566406 C 56.636719 59.566406 59.675781 56.527344 59.675781 52.757812 L 59.675781 11.242188 C 59.675781 7.472656 56.636719 4.433594 52.863281 4.433594 Z M 11.136719 7.890625 L 52.863281 7.890625 C 54.773438 7.890625 56.214844 9.328125 56.214844 11.242188 L 56.214844 49.40625 C 56.214844 51.3125 54.773438 52.757812 52.863281 52.757812 L 11.136719 52.757812 C 9.226562 52.757812 7.785156 51.3125 7.785156 49.40625 L 7.785156 11.242188 C 7.785156 9.164062 9.011719 7.890625 11.136719 7.890625 Z M 11.242188 11.242188 L 11.242188 14.703125 L 14.703125 14.703125 L 14.703125 11.242188 Z M 18.164062 11.242188 L 18.164062 14.703125 L 21.621094 14.703125 L 21.621094 11.242188 Z M 28.539062 11.242188 L 28.539062 14.703125 L 32 14.703125 L 32 11.242188 Z M 35.460938 11.242188 L 35.460938 14.703125 L 38.917969 14.703125 L 38.917969 11.242188 Z M 42.378906 11.242188 L 42.378906 14.703125 L 45.835938 14.703125 L 45.835938 11.242188 Z M 49.296875 11.242188 L 49.296875 14.703125 L 52.757812 14.703125 L 52.757812 11.242188 Z M 11.242188 18.164062 L 11.242188 21.621094 L 14.703125 21.621094 L 14.703125 18.164062 Z M 18.164062 18.164062 L 18.164062 21.621094 L 21.621094 21.621094 L 21.621094 18.164062 Z M 28.539062 18.164062 L 28.539062 21.621094 L 32 21.621094 L 32 18.164062 Z M 35.460938 18.164062 L 35.460938 21.621094 L 38.917969 21.621094 L 38.917969 18.164062 Z M 42.378906 18.164062 L 42.378906 21.621094 L 45.835938 21.621094 L 45.835938 18.164062 Z M 49.296875 18.164062 L 49.296875 21.621094 L 52.757812 21.621094 L 52.757812 18.164062 Z M 42.378906 25.082031 L 42.378906 28.539062 L 38.917969 28.539062 C 37.03125 28.539062 35.460938 30.113281 35.460938 32 L 35.460938 35.460938 C 35.460938 37.347656 37.03125 38.917969 38.917969 38.917969 L 49.296875 38.917969 C 51.1875 38.917969 52.757812 37.347656 52.757812 35.460938 L 52.757812 32 C 52.757812 30.113281 51.1875 28.539062 49.296875 28.539062 L 45.835938 28.539062 L 45.835938 25.082031 Z M 21.621094 28.539062 C 15.910156 28.539062 11.242188 33.207031 11.242188 38.917969 C 11.242188 44.632812 15.910156 49.296875 21.621094 49.296875 C 27.335938 49.296875 32 44.632812 32 38.917969 C 32 33.207031 27.335938 28.539062 21.621094 28.539062 Z M 21.621094 32 C 25.460938 32 28.539062 35.078125 28.539062 38.917969 C 28.539062 42.761719 25.460938 45.835938 21.621094 45.835938 C 17.78125 45.835938 14.703125 42.761719 14.703125 38.917969 C 14.703125 35.078125 17.78125 32 21.621094 32 Z M 38.917969 32 L 49.296875 32 L 49.296875 35.460938 L 38.917969 35.460938 Z M 42.378906 42.378906 L 42.378906 49.296875 L 45.835938 49.296875 L 45.835938 42.378906 Z M 42.378906 42.378906 "/>
</g>
</svg>
