<svg xmlns="http://www.w3.org/2000/svg" xmlns:xlink="http://www.w3.org/1999/xlink" width="64px" height="64px" viewBox="0 0 64 64" version="1.1">
<defs>
<linearGradient id="linear0" gradientUnits="userSpaceOnUse" x1="0" y1="0" x2="0" y2="1" gradientTransform="matrix(49.063064,0,0,55.351351,7.468468,4.324324)">
<stop offset="0" style="stop-color:#ffae00;stop-opacity:1;"/>
<stop offset="0.5" style="stop-color:#dddddd;stop-opacity:1;"/>
<stop offset="1" style="stop-color:#6600ff;stop-opacity:1;"/>
</linearGradient>
</defs>
<g id="surface1">
<path style=" stroke:none;fill-rule:nonzero;fill:url(#linear0);" d="M 31.890625 4.324219 C 29.921875 4.324219 28.671875 5.769531 28.539062 7.675781 L 28.539062 11.5625 C 28.71875 13.308594 30.210938 14.699219 32 14.699219 C 32.445312 14.699219 32.90625 14.636719 33.296875 14.484375 C 34.476562 14.011719 35.324219 12.867188 35.460938 11.5625 L 35.460938 7.785156 C 35.460938 5.875 33.863281 4.324219 31.890625 4.324219 Z M 25.191406 12.429688 C 22.914062 13.234375 20.769531 14.503906 18.921875 15.996094 C 19.726562 16.570312 20.394531 17.269531 20.867188 18.160156 C 20.882812 18.179688 20.855469 18.238281 20.867188 18.261719 C 21.085938 18.679688 21.292969 19.09375 21.410156 19.558594 C 21.417969 19.59375 21.40625 19.636719 21.410156 19.664062 C 21.523438 20.136719 21.625 20.679688 21.625 21.179688 C 21.625 21.621094 21.605469 22.0625 21.515625 22.476562 C 21.4375 22.890625 21.242188 23.285156 21.085938 23.664062 C 20.136719 25.957031 17.957031 27.554688 15.363281 27.554688 C 14.117188 27.554688 13.089844 27.214844 12.117188 26.585938 C 11.976562 26.976562 11.769531 27.351562 11.6875 27.769531 C 11.679688 27.800781 11.691406 27.847656 11.6875 27.878906 C 11.558594 28.523438 11.429688 29.164062 11.363281 29.824219 C 11.363281 29.863281 11.363281 29.894531 11.363281 29.933594 C 11.296875 30.597656 11.253906 31.308594 11.253906 31.988281 C 11.253906 32.023438 11.253906 32.058594 11.253906 32.09375 C 11.253906 32.132812 11.253906 32.164062 11.253906 32.203125 C 11.261719 32.847656 11.296875 33.515625 11.363281 34.148438 C 11.367188 34.21875 11.355469 34.292969 11.363281 34.363281 C 11.433594 34.988281 11.5625 35.59375 11.6875 36.199219 C 11.800781 36.796875 11.949219 37.355469 12.117188 37.929688 C 13.402344 37.1875 14.863281 36.894531 15.792969 36.847656 C 17.042969 36.785156 18.214844 37.148438 19.136719 37.820312 C 20.066406 38.488281 20.765625 39.378906 21.191406 40.523438 C 21.335938 40.902344 21.445312 41.296875 21.515625 41.710938 C 21.605469 42.160156 21.625 42.539062 21.625 43.011719 C 21.625 44.761719 20.191406 47.066406 19.136719 48.191406 C 19.566406 48.527344 19.984375 48.863281 20.4375 49.164062 C 20.984375 49.53125 21.476562 49.9375 22.058594 50.246094 C 22.882812 50.691406 23.765625 51.105469 24.652344 51.4375 C 24.820312 51.5 25.011719 51.511719 25.191406 51.542969 C 25.144531 51.308594 25.085938 51.039062 25.085938 50.789062 C 25.085938 48.039062 28.179688 45.8125 32 45.8125 C 35.820312 45.8125 38.914062 48.039062 38.914062 50.789062 C 38.914062 51.039062 38.855469 51.308594 38.808594 51.542969 C 39.847656 51.1875 40.878906 50.761719 41.835938 50.246094 C 42.570312 49.863281 43.207031 49.421875 43.886719 48.949219 C 44.097656 48.800781 44.328125 48.675781 44.539062 48.515625 C 44.699219 48.394531 44.8125 48.214844 44.96875 48.085938 C 44.472656 47.703125 44.105469 47.3125 43.78125 46.894531 C 43.121094 46.078125 42.738281 45.1875 42.589844 44.308594 C 42.511719 43.863281 42.484375 43.445312 42.484375 43.011719 C 42.484375 42.171875 42.675781 41.339844 42.914062 40.632812 C 42.921875 40.597656 42.90625 40.554688 42.914062 40.523438 C 43.042969 40.152344 43.160156 39.875 43.347656 39.550781 C 43.539062 39.230469 43.746094 38.960938 43.996094 38.6875 C 44.253906 38.382812 44.542969 38.164062 44.863281 37.929688 C 45.441406 37.488281 46.058594 37.144531 46.808594 36.957031 C 47.179688 36.863281 47.585938 36.761719 47.996094 36.738281 C 48.960938 36.6875 50.597656 37.078125 51.882812 37.820312 C 52.039062 37.28125 52.207031 36.761719 52.3125 36.199219 C 52.441406 35.59375 52.566406 34.988281 52.636719 34.363281 C 52.648438 34.292969 52.632812 34.21875 52.636719 34.148438 C 52.703125 33.515625 52.742188 32.847656 52.746094 32.203125 C 52.746094 31.410156 52.730469 30.589844 52.636719 29.824219 C 52.570312 29.164062 52.441406 28.523438 52.3125 27.878906 C 52.3125 27.847656 52.324219 27.808594 52.3125 27.769531 C 52.21875 27.3125 52.039062 26.902344 51.882812 26.476562 C 50.910156 27.109375 49.882812 27.445312 48.636719 27.445312 C 46.910156 27.445312 45.347656 26.765625 44.210938 25.613281 C 43.929688 25.324219 43.679688 24.976562 43.457031 24.636719 C 42.78125 23.621094 42.375 22.390625 42.375 21.070312 C 42.375 20 42.675781 19.011719 43.132812 18.152344 C 43.363281 17.726562 43.570312 17.335938 43.886719 16.96875 C 44.207031 16.605469 44.566406 16.285156 44.96875 15.996094 C 43.121094 14.5 41.089844 13.21875 38.8125 12.429688 C 38.855469 12.664062 38.917969 12.9375 38.917969 13.1875 C 38.917969 15.933594 35.820312 18.152344 32 18.152344 C 29.613281 18.152344 27.515625 17.3125 26.273438 15.996094 C 26.027344 15.730469 25.800781 15.429688 25.625 15.132812 C 25.273438 14.539062 25.085938 13.867188 25.085938 13.1875 C 25.085938 12.9375 25.144531 12.664062 25.191406 12.429688 Z M 10.171875 14.808594 C 9.3125 15.015625 8.53125 15.589844 8.011719 16.429688 C 6.972656 18.097656 7.46875 20.285156 9.089844 21.289062 L 11.902344 23.015625 L 12.984375 23.664062 C 13.417969 23.824219 13.890625 23.988281 14.386719 23.988281 C 14.914062 23.988281 15.445312 23.847656 15.902344 23.664062 C 16.351562 23.484375 16.746094 23.234375 17.089844 22.910156 C 17.769531 22.261719 18.164062 21.394531 18.164062 20.421875 C 18.164062 19.40625 17.726562 18.351562 16.984375 17.726562 L 15.6875 16.96875 L 12.765625 15.238281 C 11.957031 14.734375 11.027344 14.589844 10.171875 14.808594 Z M 52.53125 14.808594 C 52.089844 14.875 51.636719 14.988281 51.234375 15.238281 L 48.3125 16.96875 L 47.015625 17.726562 C 46.984375 17.757812 46.949219 17.796875 46.910156 17.835938 C 46.164062 18.460938 45.835938 19.296875 45.835938 20.3125 C 45.835938 21.289062 46.230469 22.152344 46.910156 22.800781 C 47.253906 23.125 47.648438 23.375 48.097656 23.558594 C 48.554688 23.742188 49.085938 23.882812 49.613281 23.882812 C 50.109375 23.882812 50.582031 23.824219 51.015625 23.664062 L 52.097656 23.015625 L 54.910156 21.289062 C 56.53125 20.285156 57.027344 18.097656 55.988281 16.429688 C 55.210938 15.171875 53.851562 14.609375 52.53125 14.808594 Z M 31.988281 25.078125 C 35.8125 25.078125 38.90625 28.171875 38.90625 31.988281 C 38.90625 35.8125 35.8125 38.90625 31.988281 38.90625 C 30.082031 38.90625 28.378906 38.105469 27.132812 36.855469 C 26.8125 36.539062 26.511719 36.246094 26.265625 35.882812 C 25.515625 34.78125 25.078125 33.421875 25.078125 31.988281 C 25.078125 31.511719 25.09375 31.039062 25.1875 30.585938 C 25.828125 27.4375 28.648438 25.078125 31.988281 25.078125 Z M 31.988281 28.53125 C 30.554688 28.53125 29.382812 29.457031 28.855469 30.691406 C 28.6875 31.109375 28.53125 31.511719 28.53125 31.988281 C 28.53125 33.902344 30.078125 35.449219 31.988281 35.449219 C 33.90625 35.449219 35.449219 33.902344 35.449219 31.988281 C 35.449219 30.082031 33.90625 28.53125 31.988281 28.53125 Z M 14.378906 40.09375 C 13.570312 40.1875 13.363281 40.386719 12.972656 40.527344 L 12.214844 40.960938 L 9.40625 42.6875 C 7.785156 43.691406 7.289062 45.878906 8.328125 47.550781 C 9.363281 49.226562 11.566406 49.746094 13.1875 48.738281 L 16 47.011719 L 16.972656 46.363281 C 17.441406 45.867188 17.878906 45.3125 18.050781 44.636719 C 18.117188 44.414062 18.160156 44.21875 18.160156 43.988281 C 18.160156 43.449219 18.042969 42.976562 17.835938 42.472656 C 17.660156 42.027344 17.390625 41.644531 17.082031 41.285156 C 16.742188 40.90625 16.339844 40.511719 15.890625 40.3125 C 15.441406 40.113281 14.90625 40.039062 14.378906 40.09375 Z M 49.710938 40.3125 C 47.6875 40.3125 46.039062 41.972656 46.039062 43.988281 C 46.039062 44.933594 46.308594 45.625 46.90625 46.257812 L 47.988281 47.011719 L 50.792969 48.738281 C 52.414062 49.746094 54.617188 49.226562 55.660156 47.550781 C 56.691406 45.878906 56.199219 43.691406 54.578125 42.6875 L 51.765625 40.960938 C 51.515625 40.8125 51.285156 40.652344 51.011719 40.527344 C 50.625 40.386719 50.144531 40.3125 49.710938 40.3125 Z M 31.972656 49.300781 C 31.527344 49.300781 31.09375 49.363281 30.679688 49.515625 C 30.261719 49.679688 29.828125 49.988281 29.488281 50.273438 C 28.8125 50.847656 28.390625 51.5625 28.300781 52.4375 L 28.300781 56.214844 C 28.300781 58.125 29.902344 59.675781 31.863281 59.675781 C 33.835938 59.675781 35.433594 58.125 35.433594 56.214844 L 35.433594 52.4375 C 35.253906 50.691406 33.761719 49.300781 31.972656 49.300781 Z M 31.972656 49.300781 "/>
</g>
</svg>
