<svg xmlns="http://www.w3.org/2000/svg" xmlns:xlink="http://www.w3.org/1999/xlink" width="64px" height="64px" viewBox="0 0 64 64" version="1.1">
<defs>
<linearGradient id="linear0" gradientUnits="userSpaceOnUse" x1="0" y1="0" x2="0" y2="1" gradientTransform="matrix(27.680179,0,0,27.680179,4.324324,32)">
<stop offset="0" style="stop-color:#05f7ff;stop-opacity:1;"/>
<stop offset="0.5" style="stop-color:#dddddd;stop-opacity:1;"/>
<stop offset="1" style="stop-color:#e6ff05;stop-opacity:1;"/>
</linearGradient>
<linearGradient id="linear1" gradientUnits="userSpaceOnUse" x1="0" y1="0" x2="0" y2="1" gradientTransform="matrix(27.680179,0,0,27.680179,32,4.324324)">
<stop offset="0" style="stop-color:#05f7ff;stop-opacity:1;"/>
<stop offset="0.5" style="stop-color:#dddddd;stop-opacity:1;"/>
<stop offset="1" style="stop-color:#e6ff05;stop-opacity:1;"/>
</linearGradient>
<linearGradient id="linear2" gradientUnits="userSpaceOnUse" x1="0" y1="0" x2="0" y2="1" gradientTransform="matrix(15.815314,0,0,15.815314,10.932433,10.896397)">
<stop offset="0" style="stop-color:#05f7ff;stop-opacity:1;"/>
<stop offset="0.5" style="stop-color:#dddddd;stop-opacity:1;"/>
<stop offset="1" style="stop-color:#e6ff05;stop-opacity:1;"/>
</linearGradient>
<linearGradient id="linear3" gradientUnits="userSpaceOnUse" x1="0" y1="0" x2="0" y2="1" gradientTransform="matrix(15.815314,0,0,15.819821,37.292794,37.256757)">
<stop offset="0" style="stop-color:#05f7ff;stop-opacity:1;"/>
<stop offset="0.5" style="stop-color:#dddddd;stop-opacity:1;"/>
<stop offset="1" style="stop-color:#e6ff05;stop-opacity:1;"/>
</linearGradient>
</defs>
<g id="surface1">
<path style=" stroke:none;fill-rule:nonzero;fill:url(#linear0);" d="M 8.28125 32 L 28.050781 32 C 30.234375 32 32.003906 33.769531 32.003906 35.957031 L 32.003906 55.726562 C 32.003906 57.910156 30.234375 59.679688 28.050781 59.679688 L 8.28125 59.679688 C 6.09375 59.679688 4.324219 57.910156 4.324219 55.726562 L 4.324219 35.957031 C 4.324219 33.769531 6.09375 32 8.28125 32 Z M 8.28125 32 "/>
<path style=" stroke:none;fill-rule:nonzero;fill:url(#linear1);" d="M 35.957031 4.324219 L 55.726562 4.324219 C 57.910156 4.324219 59.679688 6.09375 59.679688 8.28125 L 59.679688 28.050781 C 59.679688 30.234375 57.910156 32.003906 55.726562 32.003906 L 35.957031 32.003906 C 33.769531 32.003906 32 30.234375 32 28.050781 L 32 8.28125 C 32 6.09375 33.769531 4.324219 35.957031 4.324219 Z M 35.957031 4.324219 "/>
<path style=" stroke:none;fill-rule:nonzero;fill:url(#linear2);" d="M 12.910156 10.894531 L 24.769531 10.894531 C 25.863281 10.894531 26.746094 11.785156 26.746094 12.875 L 26.746094 24.734375 C 26.746094 25.828125 25.863281 26.710938 24.769531 26.710938 L 12.910156 26.710938 C 11.820312 26.710938 10.933594 25.828125 10.933594 24.734375 L 10.933594 12.875 C 10.933594 11.785156 11.820312 10.894531 12.910156 10.894531 Z M 12.910156 10.894531 "/>
<path style=" stroke:none;fill-rule:nonzero;fill:url(#linear3);" d="M 39.269531 37.257812 L 51.132812 37.257812 C 52.226562 37.257812 53.109375 38.144531 53.109375 39.238281 L 53.109375 51.09375 C 53.109375 52.1875 52.226562 53.078125 51.132812 53.078125 L 39.269531 53.078125 C 38.179688 53.078125 37.292969 52.1875 37.292969 51.09375 L 37.292969 39.238281 C 37.292969 38.144531 38.179688 37.257812 39.269531 37.257812 Z M 39.269531 37.257812 "/>
</g>
</svg>
