<svg xmlns="http://www.w3.org/2000/svg" xmlns:xlink="http://www.w3.org/1999/xlink" width="64px" height="64px" viewBox="0 0 64 64" version="1.1">
<g id="surface1">
<path style=" stroke:none;fill-rule:nonzero;fill:rgb(19.215687%,25.490198%,28.627452%);fill-opacity:1;" d="M 32 8.648438 C 44.894531 8.648438 55.351562 19.105469 55.351562 32 C 55.351562 44.894531 44.894531 55.351562 32 55.351562 C 19.105469 55.351562 8.648438 44.894531 8.648438 32 C 8.648438 19.105469 19.105469 8.648438 32 8.648438 Z M 32 8.648438 "/>
<path style=" stroke:none;fill-rule:nonzero;fill:rgb(0.392157%,82.745099%,66.666669%);fill-opacity:1;" d="M 45.226562 19.027344 C 44.929688 19.039062 44.640625 19.164062 44.433594 19.375 L 37.609375 26.273438 C 36.117188 24.832031 34.09375 23.9375 31.863281 23.9375 C 27.304688 23.9375 23.578125 27.664062 23.578125 32.226562 C 23.578125 33.6875 23.960938 35.0625 24.636719 36.253906 L 18.667969 42.21875 L 14.140625 38.265625 C 13.660156 37.84375 12.925781 37.890625 12.5 38.375 C 12.296875 38.605469 12.195312 38.910156 12.214844 39.214844 C 12.238281 39.523438 12.375 39.8125 12.609375 40.011719 L 17.953125 44.683594 C 18.414062 45.085938 19.109375 45.066406 19.542969 44.632812 L 26.058594 38.117188 C 27.554688 39.589844 29.609375 40.507812 31.863281 40.507812 C 36.425781 40.507812 40.144531 36.789062 40.144531 32.226562 C 40.144531 30.730469 39.738281 29.332031 39.042969 28.117188 C 39.074219 28.089844 39.105469 28.0625 39.136719 28.035156 L 45.316406 21.777344 L 49.867188 25.710938 C 50.101562 25.914062 50.40625 26.011719 50.710938 25.988281 C 51.019531 25.964844 51.308594 25.824219 51.511719 25.585938 C 51.925781 25.105469 51.871094 24.375 51.386719 23.957031 L 46.015625 19.3125 C 45.816406 19.140625 45.566406 19.039062 45.308594 19.027344 C 45.28125 19.027344 45.253906 19.027344 45.226562 19.027344 Z M 31.863281 26.261719 C 35.171875 26.261719 37.828125 28.917969 37.828125 32.222656 C 37.828125 35.53125 35.171875 38.1875 31.863281 38.1875 C 28.558594 38.1875 25.902344 35.53125 25.902344 32.222656 C 25.902344 28.917969 28.558594 26.261719 31.863281 26.261719 Z M 31.863281 26.261719 "/>
</g>
</svg>
