<svg xmlns="http://www.w3.org/2000/svg" xmlns:xlink="http://www.w3.org/1999/xlink" width="64px" height="64px" viewBox="0 0 64 64" version="1.1">
<g id="surface1">
<path style="fill:none;stroke-width:1.058;stroke-linecap:butt;stroke-linejoin:miter;stroke:rgb(96.078432%,80.784315%,9.019608%);stroke-opacity:1;stroke-miterlimit:4;" d="M 8.5143 3.139217 L 2.925313 8.730593 L 4.5039 10.31157 L 10.096472 4.722584 Z M 8.5143 3.139217 " transform="matrix(3.268845,0,0,3.268845,4.324324,4.324324)"/>
<path style=" stroke:none;fill-rule:nonzero;fill:rgb(25.882354%,25.098041%,28.235295%);fill-opacity:1;" d="M 7.785156 51.027344 L 29.40625 51.027344 L 29.40625 54.488281 L 7.785156 54.488281 Z M 7.785156 51.027344 "/>
<path style=" stroke:none;fill-rule:nonzero;fill:rgb(50.196081%,50.196081%,50.196081%);fill-opacity:1;" d="M 13.1875 30.414062 L 13.1875 44.832031 C 13.1875 46.820312 11.574219 48.433594 9.585938 48.433594 L 7.785156 48.433594 L 7.785156 51.890625 L 29.40625 51.890625 L 29.40625 48.433594 L 27.605469 48.433594 C 25.613281 48.4375 24 46.820312 24 44.832031 L 24 30.414062 Z M 13.1875 30.414062 "/>
<path style=" stroke:none;fill-rule:nonzero;fill:rgb(40.784314%,40.392157%,41.960785%);fill-opacity:1;" d="M 7.785156 48.433594 L 29.40625 48.433594 L 29.40625 51.890625 L 7.785156 51.890625 Z M 7.785156 48.433594 "/>
<path style="fill:none;stroke-width:1.0583;stroke-linecap:butt;stroke-linejoin:miter;stroke:rgb(25.882354%,25.098041%,28.235295%);stroke-opacity:1;stroke-miterlimit:4;" d="M 10.840953 10.588809 L 13.077981 8.35178 L 15.31501 10.588809 " transform="matrix(3.268845,0,0,3.268845,4.324324,4.324324)"/>
<path style=" stroke:none;fill-rule:nonzero;fill:rgb(47.843137%,52.156866%,60.000002%);fill-opacity:1;" d="M 53.472656 35.285156 C 54.988281 35.285156 56.210938 36.511719 56.210938 38.027344 L 56.210938 43.507812 L 53.472656 46.253906 L 50.734375 46.253906 L 50.734375 38.027344 C 50.734375 36.511719 51.960938 35.285156 53.472656 35.285156 Z M 53.472656 35.285156 "/>
<path style=" stroke:none;fill-rule:nonzero;fill:rgb(97.647059%,94.117647%,41.960785%);fill-opacity:1;" d="M 29.40625 32.863281 C 29.40625 38.597656 24.761719 43.242188 19.027344 43.242188 C 13.296875 43.242188 8.648438 38.597656 8.648438 32.863281 C 8.648438 27.132812 13.296875 22.488281 19.027344 22.488281 C 24.761719 22.488281 29.40625 27.132812 29.40625 32.863281 Z M 29.40625 32.863281 "/>
<path style="fill-rule:nonzero;fill:rgb(25.882354%,25.098041%,28.235295%);fill-opacity:1;stroke-width:1.058;stroke-linecap:butt;stroke-linejoin:miter;stroke:rgb(25.882354%,25.098041%,28.235295%);stroke-opacity:1;stroke-miterlimit:4;" d="M 13.671893 8.631409 L 9.200226 4.158547 " transform="matrix(3.268845,0,0,3.268845,4.324324,4.324324)"/>
<path style=" stroke:none;fill-rule:nonzero;fill:rgb(97.647059%,94.117647%,41.960785%);fill-opacity:1;" d="M 42.382812 17.730469 C 42.382812 22.265625 38.699219 25.949219 34.164062 25.949219 C 29.625 25.949219 25.945312 22.265625 25.945312 17.730469 C 25.945312 13.191406 29.625 9.511719 34.164062 9.511719 C 38.699219 9.511719 42.382812 13.191406 42.382812 17.730469 Z M 42.382812 17.730469 "/>
<path style=" stroke:none;fill-rule:nonzero;fill:rgb(97.647059%,94.117647%,41.960785%);fill-opacity:1;" d="M 51.890625 31.136719 C 51.890625 34 49.570312 36.324219 46.707031 36.324219 C 43.839844 36.324219 41.515625 34 41.515625 31.136719 C 41.515625 28.269531 43.839844 25.949219 46.707031 25.949219 C 49.570312 25.949219 51.890625 28.269531 51.890625 31.136719 Z M 51.890625 31.136719 "/>
<path style=" stroke:none;fill-rule:nonzero;fill:rgb(29.019609%,28.235295%,31.37255%);fill-opacity:1;" d="M 38.917969 17.730469 C 38.917969 20.359375 36.789062 22.488281 34.164062 22.488281 C 31.539062 22.488281 29.40625 20.359375 29.40625 17.730469 C 29.40625 15.105469 31.539062 12.972656 34.164062 12.972656 C 36.789062 12.972656 38.917969 15.105469 38.917969 17.730469 Z M 38.917969 17.730469 "/>
<path style=" stroke:none;fill-rule:nonzero;fill:rgb(29.019609%,28.235295%,31.37255%);fill-opacity:1;" d="M 25.082031 32.863281 C 25.082031 36.210938 22.371094 38.917969 19.027344 38.917969 C 15.683594 38.917969 12.972656 36.210938 12.972656 32.863281 C 12.972656 29.519531 15.683594 26.8125 19.027344 26.8125 C 22.371094 26.8125 25.082031 29.519531 25.082031 32.863281 Z M 25.082031 32.863281 "/>
<path style=" stroke:none;fill-rule:nonzero;fill:rgb(10.196079%,9.019608%,13.725491%);fill-opacity:1;" d="M 22.488281 32.863281 C 22.488281 34.773438 20.9375 36.324219 19.027344 36.324219 C 17.117188 36.324219 15.566406 34.773438 15.566406 32.863281 C 15.566406 30.957031 17.117188 29.40625 19.027344 29.40625 C 20.9375 29.40625 22.488281 30.957031 22.488281 32.863281 Z M 22.488281 32.863281 "/>
<path style=" stroke:none;fill-rule:nonzero;fill:rgb(10.196079%,9.019608%,13.725491%);fill-opacity:1;" d="M 36.324219 17.730469 C 36.324219 18.921875 35.355469 19.890625 34.164062 19.890625 C 32.96875 19.890625 32 18.921875 32 17.730469 C 32 16.539062 32.96875 15.566406 34.164062 15.566406 C 35.355469 15.566406 36.324219 16.539062 36.324219 17.730469 Z M 36.324219 17.730469 "/>
<path style=" stroke:none;fill-rule:nonzero;fill:rgb(29.019609%,28.235295%,31.37255%);fill-opacity:1;" d="M 50.164062 31.136719 C 50.164062 33.042969 48.613281 34.59375 46.707031 34.59375 C 44.792969 34.59375 43.246094 33.042969 43.246094 31.136719 C 43.246094 29.226562 44.792969 27.675781 46.707031 27.675781 C 48.613281 27.675781 50.164062 29.226562 50.164062 31.136719 Z M 50.164062 31.136719 "/>
<path style=" stroke:none;fill-rule:nonzero;fill:rgb(10.196079%,9.019608%,13.725491%);fill-opacity:1;" d="M 48.433594 31.136719 C 48.433594 32.089844 47.660156 32.863281 46.707031 32.863281 C 45.75 32.863281 44.976562 32.089844 44.976562 31.136719 C 44.976562 30.179688 45.75 29.40625 46.707031 29.40625 C 47.660156 29.40625 48.433594 30.179688 48.433594 31.136719 Z M 48.433594 31.136719 "/>
<path style=" stroke:none;fill-rule:nonzero;fill:rgb(18.039216%,20.392157%,21.176471%);fill-opacity:1;" d="M 54.386719 38.027344 C 54.386719 38.53125 53.976562 38.941406 53.472656 38.941406 C 52.964844 38.941406 52.558594 38.53125 52.558594 38.027344 C 52.558594 37.519531 52.964844 37.113281 53.472656 37.113281 C 53.976562 37.113281 54.386719 37.519531 54.386719 38.027344 Z M 54.386719 38.027344 "/>
<path style=" stroke:none;fill-rule:nonzero;fill:rgb(47.843137%,52.156866%,60.000002%);fill-opacity:1;" d="M 40.675781 35.285156 C 39.164062 35.285156 37.9375 36.511719 37.9375 38.027344 L 37.9375 43.507812 L 40.675781 46.253906 L 43.421875 46.253906 L 43.421875 38.027344 C 43.421875 37.296875 43.136719 36.601562 42.617188 36.085938 C 42.105469 35.570312 41.40625 35.285156 40.675781 35.285156 Z M 40.675781 35.285156 "/>
<path style=" stroke:none;fill-rule:nonzero;fill:rgb(18.039216%,20.392157%,21.176471%);fill-opacity:1;" d="M 39.761719 38.027344 C 39.761719 38.53125 40.171875 38.941406 40.675781 38.941406 C 41.183594 38.941406 41.589844 38.53125 41.589844 38.027344 C 41.589844 37.519531 41.183594 37.113281 40.675781 37.113281 C 40.171875 37.113281 39.761719 37.519531 39.761719 38.027344 Z M 39.761719 38.027344 "/>
</g>
</svg>
