<svg xmlns="http://www.w3.org/2000/svg" xmlns:xlink="http://www.w3.org/1999/xlink" width="64px" height="64px" viewBox="0 0 64 64" version="1.1">
<g id="surface1">
<path style=" stroke:none;fill-rule:nonzero;fill:rgb(94.901961%,94.901961%,94.901961%);fill-opacity:1;" d="M 21.644531 11.242188 C 13.96875 11.3125 7.785156 17.574219 7.785156 25.277344 C 7.785156 28.617188 8.671875 31.871094 10.890625 34.09375 L 32 52.757812 L 52.710938 34.566406 C 54.992188 32.277344 56.214844 28.835938 56.214844 25.277344 C 56.214844 17.523438 49.953125 11.242188 42.226562 11.242188 C 38.351562 11.242188 34.644531 12.859375 32 15.703125 C 29.355469 12.859375 25.652344 11.242188 21.773438 11.242188 Z M 21.644531 11.242188 "/>
<path style="fill:none;stroke-width:3;stroke-linecap:round;stroke-linejoin:miter;stroke:rgb(92.54902%,23.529412%,26.666668%);stroke-opacity:1;stroke-miterlimit:4;" d="M 15.500854 31.498657 L 26.738159 31.498657 L 31.52124 21.223389 L 34.389282 39.876953 L 38.21936 31.498657 L 41.498413 31.498657 " transform="matrix(0.864865,0,0,0.864865,4.324324,4.324324)"/>
</g>
</svg>
