<svg xmlns="http://www.w3.org/2000/svg" xmlns:xlink="http://www.w3.org/1999/xlink" width="64px" height="64px" viewBox="0 0 64 64" version="1.1">
<defs>
<linearGradient id="linear0" gradientUnits="userSpaceOnUse" x1="0" y1="0" x2="0" y2="1" gradientTransform="matrix(42.572071,0,0,55.351351,10.716217,4.324324)">
<stop offset="0" style="stop-color:#00a2ff;stop-opacity:1;"/>
<stop offset="0.5" style="stop-color:#dddddd;stop-opacity:1;"/>
<stop offset="1" style="stop-color:#00ffae;stop-opacity:1;"/>
</linearGradient>
</defs>
<g id="surface1">
<path style=" stroke:none;fill-rule:nonzero;fill:url(#linear0);" d="M 48.828125 4.324219 C 38.015625 4.324219 35.988281 20.746094 42.070312 20.746094 C 48.152344 20.746094 59.636719 4.324219 48.828125 4.324219 Z M 32.179688 6.851562 C 32.011719 6.847656 31.824219 6.847656 31.632812 6.886719 C 25.503906 7.664062 27.660156 18.03125 30.921875 18.226562 C 34.082031 18.414062 37.53125 6.875 32.171875 6.855469 Z M 21.554688 10.679688 C 21.179688 10.636719 20.765625 10.730469 20.300781 10.917969 C 15.378906 12.941406 19.554688 21.289062 22.3125 20.726562 C 24.8125 20.214844 25.171875 10.914062 21.554688 10.679688 Z M 13.515625 17.503906 C 13.089844 17.503906 12.625 17.636719 12.136719 18.011719 C 8.191406 20.949219 13.460938 28.058594 15.78125 26.960938 C 17.808594 25.988281 16.511719 17.613281 13.515625 17.503906 Z M 36.796875 24.285156 C 28.257812 24.136719 16.988281 28.472656 15.066406 37.179688 C 12.988281 46.605469 23.636719 59.675781 34.742188 59.675781 C 40.207031 59.675781 46.511719 54.679688 47.691406 48.355469 C 48.59375 43.53125 37.085938 45.460938 37.5 48.660156 C 37.996094 52.484375 34.734375 54.375 31.53125 51.90625 C 21.335938 44.058594 48.40625 40.136719 46.621094 29.414062 C 46.0625 26.078125 41.921875 24.375 36.796875 24.285156 Z M 36.796875 24.285156 "/>
</g>
</svg>
