<svg xmlns="http://www.w3.org/2000/svg" xmlns:xlink="http://www.w3.org/1999/xlink" width="64px" height="64px" viewBox="0 0 64 64" version="1.1">
<defs>
<linearGradient id="linear0" gradientUnits="userSpaceOnUse" x1="0" y1="0" x2="0" y2="1" gradientTransform="matrix(55.351351,0,0,55.351351,4.324324,4.324324)">
<stop offset="0" style="stop-color:#ff8963;stop-opacity:1;"/>
<stop offset="0.5" style="stop-color:#dddddd;stop-opacity:1;"/>
<stop offset="1" style="stop-color:#0F6FFF;stop-opacity:1;"/>
</linearGradient>
</defs>
<g id="surface1">
<path style=" stroke:none;fill-rule:nonzero;fill:url(#linear0);" d="M 8.773438 59.488281 C 7.699219 59.1875 6.984375 58.757812 6.109375 57.882812 C 4.882812 56.660156 4.324219 55.347656 4.324219 53.699219 C 4.324219 51.636719 5.644531 49.476562 7.488281 48.527344 L 8.28125 48.117188 L 8.28125 15.855469 L 7.632812 15.5625 C 6.765625 15.179688 5.339844 13.746094 4.921875 12.847656 C 3.320312 9.414062 5.179688 5.460938 8.835938 4.511719 C 11.390625 3.847656 14.253906 5.125 15.46875 7.484375 L 15.878906 8.273438 L 48.125 8.273438 L 48.539062 7.484375 C 49.273438 6.0625 50.71875 4.933594 52.351562 4.503906 C 56.5625 3.410156 60.589844 7.449219 59.488281 11.664062 C 59.066406 13.292969 57.738281 14.949219 56.351562 15.585938 L 55.730469 15.867188 L 55.730469 48.117188 L 56.515625 48.527344 C 56.984375 48.765625 57.589844 49.230469 57.988281 49.644531 C 60.320312 52.085938 60.21875 55.746094 57.761719 58.050781 C 55.902344 59.789062 53.46875 60.152344 51.09375 59.042969 C 50.269531 58.664062 48.8125 57.199219 48.429688 56.367188 L 48.132812 55.726562 L 15.878906 55.726562 L 15.578125 56.367188 C 15.203125 57.175781 13.738281 58.660156 12.941406 59.039062 C 11.652344 59.652344 9.996094 59.835938 8.773438 59.488281 Z M 48.5 51.011719 L 48.863281 50.269531 L 46.390625 47.8125 L 43.929688 45.347656 L 43.1875 45.605469 C 42.273438 45.917969 41.117188 45.867188 40.242188 45.484375 C 39.914062 45.335938 39.351562 44.914062 38.984375 44.539062 L 38.3125 43.855469 L 25.6875 43.855469 L 25.023438 44.539062 C 24.660156 44.914062 24.089844 45.335938 23.765625 45.484375 C 22.890625 45.867188 21.734375 45.917969 20.820312 45.605469 L 20.082031 45.347656 L 17.613281 47.8125 L 15.148438 50.269531 L 15.503906 51.011719 L 15.863281 51.761719 L 48.144531 51.761719 Z M 18.390625 43.175781 C 17.867188 41.660156 18.265625 40.136719 19.488281 38.960938 L 20.136719 38.328125 L 20.136719 25.664062 L 19.488281 25.03125 C 18.265625 23.851562 17.867188 22.328125 18.390625 20.8125 L 18.648438 20.070312 L 16.1875 17.613281 L 13.734375 15.152344 L 12.988281 15.511719 L 12.234375 15.875 L 12.234375 48.117188 L 12.941406 48.496094 L 13.652344 48.878906 L 16.148438 46.394531 L 18.648438 43.917969 Z M 51.769531 31.988281 L 51.773438 15.863281 L 50.269531 15.152344 L 45.363281 20.070312 L 45.613281 20.8125 C 46.136719 22.328125 45.738281 23.851562 44.523438 25.03125 L 43.863281 25.664062 L 43.863281 38.328125 L 44.523438 38.960938 C 45.738281 40.136719 46.136719 41.660156 45.613281 43.175781 L 45.363281 43.917969 L 47.835938 46.394531 L 50.3125 48.878906 L 51.039062 48.5 L 51.769531 48.117188 Z M 38.710938 39.539062 C 38.828125 39.339844 39.148438 39.003906 39.417969 38.789062 L 39.910156 38.394531 L 39.910156 25.679688 L 39.105469 24.882812 L 38.296875 24.089844 L 25.707031 24.089844 L 24.902344 24.882812 L 24.09375 25.679688 L 24.09375 38.394531 L 24.585938 38.789062 C 24.863281 39.003906 25.175781 39.339844 25.292969 39.539062 L 25.511719 39.902344 L 38.5 39.902344 Z M 38.761719 19.710938 C 39.3125 18.863281 40.730469 18.160156 41.894531 18.160156 C 42.234375 18.160156 42.828125 18.269531 43.214844 18.40625 L 43.921875 18.652344 L 48.90625 13.679688 L 48.550781 13.117188 C 48.351562 12.808594 48.1875 12.476562 48.1875 12.390625 C 48.1875 12.257812 45.230469 12.230469 32.003906 12.230469 C 18.773438 12.230469 15.8125 12.261719 15.8125 12.390625 C 15.8125 12.476562 15.652344 12.808594 15.460938 13.117188 L 15.097656 13.679688 L 20.082031 18.652344 L 20.789062 18.40625 C 21.175781 18.269531 21.769531 18.160156 22.109375 18.160156 C 23.28125 18.160156 24.6875 18.863281 25.242188 19.710938 L 25.515625 20.132812 L 38.488281 20.132812 Z M 38.761719 19.710938 "/>
</g>
</svg>
