<svg xmlns="http://www.w3.org/2000/svg" xmlns:xlink="http://www.w3.org/1999/xlink" width="64px" height="64px" viewBox="0 0 64 64" version="1.1">
<defs>
<linearGradient id="linear0" gradientUnits="userSpaceOnUse" x1="0" y1="0" x2="0" y2="1" gradientTransform="matrix(48.432432,0,0,55.351351,7.783784,4.324324)">
<stop offset="0" style="stop-color:#00a2ff;stop-opacity:1;"/>
<stop offset="0.5" style="stop-color:#dddddd;stop-opacity:1;"/>
<stop offset="1" style="stop-color:#00ffae;stop-opacity:1;"/>
</linearGradient>
</defs>
<g id="surface1">
<path style=" stroke:none;fill-rule:nonzero;fill:url(#linear0);" d="M 31.890625 4.324219 C 29.949219 4.324219 28.710938 5.769531 28.585938 7.675781 L 28.585938 11.5625 C 28.765625 13.308594 30.234375 14.699219 32 14.699219 C 32.441406 14.699219 32.890625 14.636719 33.28125 14.484375 C 34.445312 14.011719 35.28125 12.867188 35.414062 11.5625 L 35.414062 7.785156 C 35.414062 5.875 33.835938 4.324219 31.890625 4.324219 Z M 25.28125 12.429688 C 23.03125 13.234375 20.914062 14.503906 19.09375 15.996094 C 19.882812 16.570312 20.542969 17.269531 21.011719 18.160156 C 21.027344 18.179688 21 18.238281 21.011719 18.261719 C 21.226562 18.679688 21.429688 19.09375 21.542969 19.558594 C 21.558594 19.59375 21.539062 19.636719 21.542969 19.664062 C 21.660156 20.136719 21.761719 20.679688 21.761719 21.179688 C 21.761719 21.621094 21.734375 22.0625 21.652344 22.476562 C 21.570312 22.890625 21.382812 23.285156 21.226562 23.664062 C 20.289062 25.957031 18.136719 27.554688 15.570312 27.554688 C 14.347656 27.554688 13.335938 27.214844 12.375 26.585938 C 12.234375 26.976562 12.03125 27.351562 11.945312 27.769531 C 11.941406 27.800781 11.957031 27.847656 11.945312 27.878906 C 11.820312 28.523438 11.691406 29.164062 11.625 29.824219 C 11.625 29.863281 11.632812 29.894531 11.625 29.933594 C 11.5625 30.597656 11.523438 31.308594 11.523438 31.988281 C 11.523438 32.023438 11.523438 32.058594 11.523438 32.09375 C 11.523438 32.132812 11.523438 32.164062 11.523438 32.203125 C 11.527344 32.847656 11.5625 33.515625 11.625 34.148438 C 11.636719 34.21875 11.621094 34.292969 11.625 34.363281 C 11.699219 34.988281 11.824219 35.59375 11.945312 36.199219 C 12.058594 36.796875 12.207031 37.355469 12.375 37.929688 C 13.636719 37.1875 15.085938 36.894531 16 36.847656 C 17.238281 36.785156 18.390625 37.148438 19.308594 37.820312 C 20.21875 38.488281 20.910156 39.378906 21.335938 40.523438 C 21.472656 40.902344 21.582031 41.296875 21.652344 41.710938 C 21.738281 42.160156 21.761719 42.539062 21.761719 43.011719 C 21.761719 44.761719 20.339844 47.066406 19.308594 48.191406 C 19.726562 48.527344 20.136719 48.863281 20.585938 49.164062 C 21.125 49.53125 21.613281 49.9375 22.1875 50.246094 C 23 50.691406 23.875 51.105469 24.746094 51.4375 C 24.914062 51.5 25.097656 51.511719 25.28125 51.542969 C 25.230469 51.308594 25.171875 51.039062 25.171875 50.789062 C 25.171875 48.039062 28.230469 45.8125 32 45.8125 C 35.769531 45.8125 38.824219 48.039062 38.824219 50.789062 C 38.824219 51.039062 38.765625 51.308594 38.71875 51.542969 C 39.746094 51.1875 40.765625 50.761719 41.707031 50.246094 C 42.433594 49.863281 43.0625 49.421875 43.734375 48.949219 C 43.941406 48.800781 44.171875 48.675781 44.375 48.515625 C 44.53125 48.394531 44.644531 48.214844 44.800781 48.085938 C 44.3125 47.703125 43.945312 47.3125 43.625 46.894531 C 42.976562 46.078125 42.597656 45.1875 42.457031 44.308594 C 42.378906 43.863281 42.347656 43.445312 42.347656 43.011719 C 42.347656 42.171875 42.539062 41.339844 42.773438 40.632812 C 42.785156 40.597656 42.761719 40.554688 42.773438 40.523438 C 42.902344 40.152344 43.011719 39.875 43.199219 39.550781 C 43.390625 39.230469 43.597656 38.960938 43.835938 38.6875 C 44.09375 38.382812 44.382812 38.164062 44.691406 37.929688 C 45.269531 37.488281 45.875 37.144531 46.613281 36.957031 C 46.984375 36.863281 47.382812 36.761719 47.789062 36.738281 C 48.746094 36.6875 50.363281 37.078125 51.625 37.820312 C 51.78125 37.28125 51.945312 36.761719 52.054688 36.199219 C 52.175781 35.59375 52.308594 34.988281 52.375 34.363281 C 52.378906 34.292969 52.363281 34.21875 52.375 34.148438 C 52.4375 33.515625 52.472656 32.847656 52.476562 32.203125 C 52.476562 31.410156 52.460938 30.589844 52.375 29.824219 C 52.308594 29.164062 52.179688 28.523438 52.054688 27.878906 C 52.042969 27.847656 52.058594 27.808594 52.054688 27.769531 C 51.960938 27.3125 51.773438 26.902344 51.625 26.476562 C 50.664062 27.109375 49.652344 27.445312 48.429688 27.445312 C 46.714844 27.445312 45.171875 26.765625 44.054688 25.613281 C 43.773438 25.324219 43.527344 24.976562 43.308594 24.636719 C 42.636719 23.621094 42.238281 22.390625 42.238281 21.070312 C 42.238281 20 42.539062 19.011719 42.988281 18.152344 C 43.210938 17.726562 43.421875 17.335938 43.734375 16.96875 C 44.050781 16.605469 44.40625 16.285156 44.800781 15.996094 C 42.976562 14.5 40.972656 13.21875 38.71875 12.429688 C 38.769531 12.664062 38.828125 12.9375 38.828125 13.1875 C 38.828125 15.933594 35.769531 18.152344 32 18.152344 C 29.644531 18.152344 27.570312 17.3125 26.347656 15.996094 C 26.105469 15.730469 25.878906 15.429688 25.707031 15.132812 C 25.363281 14.539062 25.175781 13.867188 25.175781 13.1875 C 25.175781 12.9375 25.234375 12.664062 25.28125 12.429688 Z M 10.457031 14.808594 C 9.609375 15.015625 8.835938 15.589844 8.320312 16.429688 C 7.296875 18.097656 7.789062 20.285156 9.386719 21.289062 L 12.164062 23.015625 L 13.226562 23.664062 C 13.660156 23.824219 14.125 23.988281 14.613281 23.988281 C 15.136719 23.988281 15.660156 23.847656 16.109375 23.664062 C 16.554688 23.484375 16.945312 23.234375 17.28125 22.910156 C 17.949219 22.261719 18.347656 21.394531 18.347656 20.421875 C 18.347656 19.40625 17.910156 18.351562 17.171875 17.726562 L 15.890625 16.96875 L 13.011719 15.238281 C 12.210938 14.734375 11.296875 14.589844 10.457031 14.808594 Z M 52.265625 14.808594 C 51.835938 14.875 51.386719 14.988281 50.988281 15.238281 L 48.109375 16.96875 L 46.828125 17.726562 C 46.789062 17.757812 46.757812 17.796875 46.71875 17.835938 C 45.984375 18.460938 45.652344 19.296875 45.652344 20.3125 C 45.652344 21.289062 46.050781 22.152344 46.71875 22.800781 C 47.054688 23.125 47.445312 23.375 47.890625 23.558594 C 48.339844 23.742188 48.863281 23.882812 49.386719 23.882812 C 49.875 23.882812 50.339844 23.824219 50.773438 23.664062 L 51.835938 23.015625 L 54.613281 21.289062 C 56.210938 20.285156 56.703125 18.097656 55.679688 16.429688 C 54.910156 15.171875 53.570312 14.609375 52.265625 14.808594 Z M 31.988281 25.078125 C 35.761719 25.078125 38.820312 28.171875 38.820312 31.988281 C 38.820312 35.8125 35.761719 38.90625 31.988281 38.90625 C 30.109375 38.90625 28.429688 38.105469 27.191406 36.855469 C 26.882812 36.539062 26.585938 36.246094 26.335938 35.882812 C 25.605469 34.78125 25.164062 33.421875 25.164062 31.988281 C 25.164062 31.511719 25.179688 31.039062 25.269531 30.585938 C 25.910156 27.4375 28.691406 25.078125 31.988281 25.078125 Z M 31.988281 28.53125 C 30.578125 28.53125 29.414062 29.457031 28.894531 30.691406 C 28.726562 31.109375 28.578125 31.511719 28.578125 31.988281 C 28.578125 33.902344 30.105469 35.449219 31.988281 35.449219 C 33.882812 35.449219 35.40625 33.902344 35.40625 31.988281 C 35.40625 30.082031 33.882812 28.53125 31.988281 28.53125 Z M 14.605469 40.09375 C 13.808594 40.1875 13.597656 40.386719 13.214844 40.527344 L 12.472656 40.960938 L 9.699219 42.6875 C 8.097656 43.691406 7.609375 45.878906 8.632812 47.550781 C 9.660156 49.226562 11.828125 49.746094 13.433594 48.738281 L 16.203125 47.011719 L 17.164062 46.363281 C 17.632812 45.867188 18.058594 45.3125 18.230469 44.636719 C 18.292969 44.414062 18.335938 44.21875 18.335938 43.988281 C 18.335938 43.449219 18.226562 42.976562 18.015625 42.472656 C 17.839844 42.027344 17.582031 41.644531 17.269531 41.285156 C 16.9375 40.90625 16.542969 40.511719 16.097656 40.3125 C 15.652344 40.113281 15.125 40.039062 14.605469 40.09375 Z M 49.488281 40.3125 C 47.484375 40.3125 45.863281 41.972656 45.863281 43.988281 C 45.863281 44.933594 46.121094 45.625 46.710938 46.257812 L 47.78125 47.011719 L 50.554688 48.738281 C 52.152344 49.746094 54.328125 49.226562 55.351562 47.550781 C 56.375 45.878906 55.886719 43.691406 54.285156 42.6875 L 51.511719 40.960938 C 51.269531 40.8125 51.039062 40.652344 50.765625 40.527344 C 50.382812 40.386719 49.914062 40.3125 49.488281 40.3125 Z M 31.972656 49.300781 C 31.539062 49.300781 31.105469 49.363281 30.691406 49.515625 C 30.285156 49.679688 29.855469 49.988281 29.523438 50.273438 C 28.851562 50.847656 28.4375 51.5625 28.347656 52.4375 L 28.347656 56.214844 C 28.347656 58.125 29.929688 59.675781 31.867188 59.675781 C 33.8125 59.675781 35.386719 58.125 35.386719 56.214844 L 35.386719 52.4375 C 35.210938 50.691406 33.738281 49.300781 31.972656 49.300781 Z M 31.972656 49.300781 "/>
</g>
</svg>
