<svg xmlns="http://www.w3.org/2000/svg" xmlns:xlink="http://www.w3.org/1999/xlink" width="64px" height="64px" viewBox="0 0 64 64" version="1.1">
<defs>
<linearGradient id="linear0" gradientUnits="userSpaceOnUse" x1="0" y1="0" x2="0" y2="1" gradientTransform="matrix(55.351351,0,0,47.972973,4.324324,8.013514)">
<stop offset="0" style="stop-color:#ff8963;stop-opacity:1;"/>
<stop offset="0.5" style="stop-color:#dddddd;stop-opacity:1;"/>
<stop offset="1" style="stop-color:#0F6FFF;stop-opacity:1;"/>
</linearGradient>
</defs>
<g id="surface1">
<path style=" stroke:none;fill-rule:nonzero;fill:url(#linear0);" d="M 24.605469 52.6875 C 24.421875 50.554688 26.472656 48.542969 29.335938 48.433594 C 29.835938 48.433594 30.367188 48.503906 30.933594 48.636719 C 31.605469 48.785156 32.539062 48.808594 33.09375 48.855469 C 33.292969 48.726562 33.285156 48.605469 33.023438 47.949219 C 32.261719 46.023438 30.679688 43.867188 28.675781 43.273438 C 28.253906 43.148438 27.609375 43.070312 26.988281 43.058594 C 22.835938 43.164062 19.8125 47.148438 17.914062 50.125 C 17.3125 51.066406 16.605469 52.136719 16.335938 52.488281 C 15.011719 54.3125 13.449219 55.339844 11.882812 55.800781 C 11.296875 55.972656 9.875 56.042969 9.285156 55.929688 C 6.152344 55.328125 4.058594 52.335938 4.351562 49.136719 C 4.378906 48.863281 4.417969 48.644531 4.4375 48.648438 C 4.460938 48.648438 4.585938 48.792969 4.71875 48.960938 C 5.257812 49.679688 6.429688 50.117188 7.347656 50.335938 C 8.03125 50.5 8.703125 50.527344 9.339844 50.410156 C 11.070312 50.109375 12.1875 49.378906 13.996094 46.917969 C 16.734375 43.207031 18.6875 39.800781 22.539062 31.410156 C 25.070312 25.878906 26.460938 23.105469 27.984375 20.539062 C 29.9375 17.238281 32.003906 14.578125 33.941406 12.863281 C 36.902344 10.253906 40.40625 8.664062 44.441406 8.125 C 45.652344 7.960938 47.753906 7.984375 48.902344 8.160156 C 53.015625 8.800781 56.1875 10.867188 58.136719 14.1875 C 58.765625 15.261719 59.308594 16.785156 59.554688 18.179688 C 59.710938 19.066406 59.714844 21.054688 59.554688 21.945312 C 59.429688 22.6875 59.09375 23.882812 58.867188 24.4375 L 58.710938 24.820312 L 58.707031 24.136719 C 58.675781 21.246094 56.800781 18.105469 53.988281 17.3125 C 53.441406 17.164062 53.269531 17.144531 52.394531 17.144531 C 51.542969 17.148438 51.339844 17.171875 50.792969 17.320312 C 47.644531 18.175781 44.617188 22.257812 43.585938 26.390625 C 42.824219 29.429688 42.945312 32.773438 43.9375 36.363281 C 44.875 39.738281 49.351562 44.3125 50.265625 44.996094 C 53.511719 47.40625 55.707031 48.226562 58.191406 49.949219 C 59.054688 50.542969 59.292969 50.839844 59.367188 51.414062 C 59.460938 52.121094 59.039062 52.78125 57.957031 53.589844 C 57.652344 53.8125 57.089844 54.257812 56.699219 54.570312 C 55.394531 55.613281 55.238281 55.894531 54.363281 55.894531 C 53.867188 55.902344 53.753906 55.878906 53.4375 55.71875 C 52.433594 55.21875 52.015625 54.523438 52.503906 53.515625 C 52.957031 52.585938 53.984375 52.160156 54.949219 52.496094 C 55.164062 52.570312 55.410156 52.730469 55.652344 52.960938 C 56.042969 53.324219 55.867188 52.894531 55.988281 52.6875 C 56.105469 52.449219 56.132812 51.636719 56.027344 51.109375 C 55.671875 49.234375 54.027344 48.46875 52.179688 48.570312 C 51.105469 48.636719 50.078125 49.125 49.226562 49.988281 C 47.414062 52.621094 44.914062 55.921875 42.148438 55.882812 C 41.671875 55.9375 41.207031 55.894531 40.835938 55.746094 C 40.554688 55.644531 40.273438 55.445312 40.03125 55.191406 C 39.339844 54.511719 39.417969 53.773438 39.488281 52.886719 C 39.558594 51.882812 40.179688 51.125 40.773438 50.566406 C 41.636719 49.855469 42.511719 49.566406 43.460938 49.46875 C 44.652344 49.351562 45.757812 49.261719 46.839844 49.542969 C 47.441406 49.738281 47.636719 49.742188 47.707031 49.558594 C 47.8125 49.289062 47.246094 47.0625 46.773438 46.40625 C 46 45.320312 45.230469 44.875 43.945312 44.5 C 43.355469 44.324219 41.960938 44.261719 41.257812 44.375 C 37.335938 45.113281 36.027344 48.039062 34.46875 50.785156 C 32.675781 53.929688 31.027344 55.132812 29.335938 55.714844 C 29.09375 55.800781 28.757812 55.863281 28.414062 55.894531 C 26.148438 56.109375 24.769531 54.675781 24.605469 52.6875 Z M 24.605469 52.6875 "/>
</g>
</svg>
