<svg xmlns="http://www.w3.org/2000/svg" xmlns:xlink="http://www.w3.org/1999/xlink" width="64px" height="64px" viewBox="0 0 64 64" version="1.1">
<defs>
<linearGradient id="linear0" gradientUnits="userSpaceOnUse" x1="0" y1="0" x2="0" y2="1" gradientTransform="matrix(47.477476,0,0,55.351351,8.261261,4.324324)">
<stop offset="0" style="stop-color:#00b7ff;stop-opacity:1;"/>
<stop offset="0.5" style="stop-color:#dddddd;stop-opacity:1;"/>
<stop offset="1" style="stop-color:#ee42d9;stop-opacity:1;"/>
</linearGradient>
</defs>
<g id="surface1">
<path style=" stroke:none;fill-rule:evenodd;fill:url(#linear0);" d="M 31.984375 16.1875 C 31.984375 14.730469 33.164062 13.550781 34.617188 13.550781 C 36.078125 13.550781 37.257812 14.730469 37.257812 16.1875 C 37.257812 17.636719 36.078125 18.820312 34.617188 18.820312 C 33.164062 18.820312 31.984375 17.636719 31.984375 16.1875 Z M 29.347656 17.503906 C 29.347656 13.863281 32.300781 10.914062 35.9375 10.914062 C 39.570312 10.914062 42.527344 13.863281 42.527344 17.503906 C 42.527344 21.136719 39.570312 24.089844 35.9375 24.089844 C 32.300781 24.089844 29.347656 21.136719 29.347656 17.503906 Z M 53 16.765625 C 53.296875 18.191406 52.636719 19.664062 51.515625 20.050781 L 50.4375 14.867188 C 51.550781 14.488281 52.699219 15.335938 53 16.765625 Z M 27.527344 59.441406 C 24.375 58.835938 21.003906 57.382812 18.1875 55.386719 C 15.027344 53.160156 11.757812 49.226562 10.1875 45.765625 C 8.609375 42.289062 7.96875 38.085938 8.386719 33.9375 C 8.703125 30.800781 9.066406 29.347656 10.148438 26.847656 C 13.144531 19.917969 19.003906 15.144531 26.769531 13.308594 C 28.039062 13.003906 28.917969 12.648438 29.46875 12.214844 C 30.273438 11.578125 30.28125 11.570312 30.761719 8.421875 C 31.367188 4.496094 31.363281 4.527344 31.984375 4.367188 C 32.820312 4.160156 36.726562 4.714844 38.636719 5.3125 C 41.710938 6.285156 43.90625 7.542969 46.527344 9.835938 C 47.335938 10.550781 49.421875 11.132812 49.554688 11.132812 C 50.339844 11.132812 52.539062 12.164062 53.429688 13.023438 C 56.078125 15.589844 56.433594 18.824219 54.414062 21.96875 C 53.875 22.8125 53.152344 22.433594 53.152344 23.523438 C 53.152344 24.242188 53.027344 25 52.875 25.203125 C 52.652344 25.488281 50.671875 25.652344 46.386719 26.023438 C 42.488281 26.355469 40.132812 27.355469 39.890625 27.59375 C 39.179688 28.3125 40.820312 28.460938 48.40625 29.054688 C 55.488281 29.613281 56.132812 29.808594 55.59375 30.347656 C 55.476562 30.460938 52.367188 31.003906 48.042969 31.875 L 40.1875 33.460938 L 35.242188 31.558594 C 32.53125 30.511719 30.21875 29.914062 30.117188 29.914062 C 29.792969 29.914062 27.414062 33.863281 27.488281 34.269531 C 27.589844 34.773438 28.585938 34.5 29.878906 34.675781 C 30.769531 34.796875 31.023438 34.734375 31.945312 34.121094 C 34.003906 32.761719 35.847656 32.757812 36.988281 34.117188 C 37.6875 34.945312 37.714844 35.511719 37.066406 35.960938 C 36.421875 36.414062 35.957031 36.394531 35.003906 35.886719 C 33.664062 35.171875 32.820312 36.109375 33.308594 37.386719 C 33.617188 38.210938 33.4375 38.664062 32.800781 38.664062 C 32.445312 38.664062 32.191406 38.445312 31.945312 37.921875 C 31.589844 37.1875 31.589844 36.8125 29.652344 36.6875 C 27.550781 36.539062 26.5625 37.269531 25.246094 36.441406 C 24.210938 35.789062 23.242188 34.652344 23.242188 34.089844 C 23.242188 33.554688 24.269531 31.511719 25.328125 29.949219 C 26.308594 28.5 26.335938 28.144531 25.476562 28.144531 C 25.027344 28.144531 24.660156 28.355469 24.226562 28.863281 C 23.46875 29.757812 21.691406 33.4375 21.691406 34.113281 C 21.691406 35.050781 22.410156 36.085938 24.3125 37.335938 C 25.824219 38.328125 26.285156 38.390625 26.609375 39.125 C 27.09375 40.226562 27.945312 42.113281 28.132812 43.835938 C 28.285156 45.257812 28.59375 44.886719 29.164062 43.890625 C 29.738281 42.878906 31.335938 42.679688 31.335938 43.621094 C 31.335938 43.847656 31.089844 44.164062 30.785156 44.324219 C 29.785156 44.863281 29.863281 45.761719 30.941406 46.339844 C 31.261719 46.511719 31.585938 46.4375 32.328125 46 C 32.863281 45.6875 33.449219 45.433594 33.632812 45.433594 C 34.066406 45.433594 34.660156 46.28125 34.660156 46.90625 C 34.660156 48.308594 33.554688 49.1875 31.796875 49.1875 C 29.703125 49.1875 28.097656 48.0625 27.226562 45.984375 C 26.761719 44.875 24.949219 42.875 24.199219 42.066406 C 23.460938 41.273438 23.066406 41.136719 22.445312 41.226562 C 21.753906 41.324219 21.414062 41.984375 21.410156 43.664062 C 21.40625 46.917969 22.433594 50.253906 26.132812 52.078125 C 32.207031 55.070312 38.039062 55.105469 44.324219 52.1875 C 48.960938 50.027344 52.53125 46.460938 52.792969 42.714844 C 52.882812 41.339844 52.828125 40.976562 52.386719 40.121094 C 51.460938 38.347656 48.605469 37.3125 46.648438 38.199219 C 46.015625 38.488281 45.53125 39.3125 45.21875 40.207031 C 44.3125 43.011719 45.648438 44.164062 47.1875 44.828125 C 47.8125 45.105469 48.921875 44.90625 49.121094 44.125 C 49.339844 43.253906 48.914062 42.902344 47.71875 42.972656 C 46.8125 43.027344 46.691406 42.984375 46.636719 42.550781 C 46.539062 41.910156 47.503906 41.285156 48.550781 41.3125 C 49.164062 41.335938 49.523438 41.3125 50.082031 41.929688 C 50.949219 42.875 50.800781 43.984375 50.347656 44.847656 C 49.796875 45.890625 48.773438 46.59375 47.257812 46.589844 C 45.09375 46.585938 43.347656 45.382812 42.835938 43.550781 C 42.53125 42.457031 42.542969 40.699219 42.933594 39.402344 C 44.054688 35.636719 50.378906 34.867188 53.390625 37.789062 C 54.839844 39.191406 55.582031 40.792969 55.441406 43.328125 C 55.148438 48.824219 49.609375 54.121094 43.285156 57.21875 C 39.539062 59.058594 37.4375 59.550781 32.878906 59.652344 C 30.285156 59.710938 28.621094 59.648438 27.527344 59.441406 Z M 27.527344 59.441406 "/>
</g>
</svg>
