<svg xmlns="http://www.w3.org/2000/svg" xmlns:xlink="http://www.w3.org/1999/xlink" width="64px" height="64px" viewBox="0 0 64 64" version="1.1">
<defs>
<linearGradient id="linear0" gradientUnits="userSpaceOnUse" x1="0" y1="0" x2="0" y2="1" gradientTransform="matrix(48.432432,0,0,55.351351,7.783784,4.324324)">
<stop offset="0" style="stop-color:#05f7ff;stop-opacity:1;"/>
<stop offset="0.5" style="stop-color:#dddddd;stop-opacity:1;"/>
<stop offset="1" style="stop-color:#e6ff05;stop-opacity:1;"/>
</linearGradient>
</defs>
<g id="surface1">
<path style=" stroke:none;fill-rule:nonzero;fill:url(#linear0);" d="M 46.664062 4.324219 L 45.441406 5.699219 L 14.410156 40.417969 L 14.3125 40.589844 C 14.097656 40.960938 13.375 42.308594 12.292969 44.742188 C 11.203125 47.179688 9.867188 50.511719 8.789062 54.257812 L 7.785156 57.769531 L 10.96875 56.652344 C 13.921875 55.605469 16.808594 54.3125 19.589844 52.792969 C 21.792969 51.589844 23 50.808594 23.351562 50.558594 L 23.511719 50.449219 L 56.214844 14.863281 Z M 52.757812 32.949219 L 52.757812 59.675781 L 56.214844 59.675781 L 56.214844 32.949219 Z M 45.835938 40.589844 L 45.835938 59.675781 L 49.296875 59.675781 L 49.296875 40.589844 Z M 17.785156 42.082031 L 22 46.738281 L 21.382812 47.40625 C 21.410156 47.386719 20.070312 48.269531 18.058594 49.363281 C 17.320312 49.765625 16.207031 50.210938 15.175781 50.652344 L 14.230469 49.609375 C 14.632812 48.46875 15.039062 47.242188 15.402344 46.429688 C 16.390625 44.203125 17.1875 42.738281 17.175781 42.761719 Z M 38.917969 48.21875 L 38.917969 59.675781 L 42.378906 59.675781 L 42.378906 48.21875 Z M 38.917969 48.21875 "/>
</g>
</svg>
