<svg xmlns="http://www.w3.org/2000/svg" xmlns:xlink="http://www.w3.org/1999/xlink" width="64px" height="64px" viewBox="0 0 64 64" version="1.1">
<defs>
<linearGradient id="linear0" gradientUnits="userSpaceOnUse" x1="0" y1="0" x2="0" y2="1" gradientTransform="matrix(37.96847,0,0,51.891892,12.972973,6.054054)">
<stop offset="0" style="stop-color:#00fff2;stop-opacity:1;"/>
<stop offset="0.5" style="stop-color:#dddddd;stop-opacity:1;"/>
<stop offset="1" style="stop-color:#0062ff;stop-opacity:1;"/>
</linearGradient>
</defs>
<g id="surface1">
<path style=" stroke:none;fill-rule:nonzero;fill:url(#linear0);" d="M 31.960938 6.054688 C 22.609375 6.054688 15.082031 13.582031 15.082031 22.933594 L 15.082031 31.367188 L 12.972656 31.367188 L 12.972656 43.363281 L 13.828125 42.246094 C 15.054688 40.597656 18.324219 38.246094 20.882812 37.238281 C 22.230469 36.703125 25.46875 36.121094 29.121094 35.71875 C 34.632812 35.097656 45.039062 35.589844 48.835938 31.367188 L 48.835938 22.933594 C 48.835938 13.582031 41.308594 6.054688 31.960938 6.054688 Z M 33.339844 8.097656 C 34.144531 8.152344 34.929688 8.238281 35.714844 8.429688 C 38.550781 9.109375 38.875 9.765625 36.113281 9.21875 C 31.765625 8.363281 26 10.292969 22.460938 13.835938 C 21.410156 14.890625 20.078125 16.648438 19.5 17.726562 C 18.3125 19.941406 18.496094 18.511719 19.761719 15.8125 C 22.078125 10.875 27.742188 7.773438 33.339844 8.097656 Z M 31.960938 14.496094 C 36.632812 14.496094 40.394531 18.257812 40.394531 22.933594 L 40.394531 31.367188 L 23.523438 31.367188 L 23.523438 22.933594 C 23.523438 18.257812 27.285156 14.496094 31.960938 14.496094 Z M 50.941406 35.070312 L 48.703125 36.917969 C 47.484375 37.957031 45.578125 39.375 44.417969 40.085938 C 42.039062 41.539062 36.414062 43.578125 34.726562 43.578125 C 34.09375 43.578125 33.71875 43.730469 33.867188 43.972656 C 34.152344 44.433594 37.523438 44.226562 41.054688 43.511719 C 42.214844 43.28125 44.910156 42.226562 47.054688 41.136719 L 50.941406 39.164062 Z M 50.941406 39.621094 L 49.757812 41.269531 C 45.820312 46.691406 39.414062 49.703125 30.511719 50.234375 C 24.558594 50.59375 26.738281 51.269531 33.867188 51.289062 C 38.703125 51.296875 39.789062 51.148438 42.703125 50.171875 C 44.527344 49.554688 46.039062 49.089844 46.132812 49.179688 C 46.460938 49.511719 42.894531 52.460938 40.921875 53.460938 C 37.136719 55.382812 34.566406 55.921875 27.738281 56.234375 C 22.890625 56.457031 20.902344 56.703125 19.960938 57.21875 C 18.765625 57.878906 19.554688 57.921875 34.792969 57.945312 L 50.941406 57.945312 Z M 50.941406 39.621094 "/>
</g>
</svg>
