<svg xmlns="http://www.w3.org/2000/svg" xmlns:xlink="http://www.w3.org/1999/xlink" width="64px" height="64px" viewBox="0 0 64 64" version="1.1">
<defs>
<linearGradient id="linear0" gradientUnits="userSpaceOnUse" x1="0" y1="0" x2="0" y2="1" gradientTransform="matrix(55.351351,0,0,51.396395,4.324324,6.301802)">
<stop offset="0" style="stop-color:#ffae00;stop-opacity:1;"/>
<stop offset="0.5" style="stop-color:#dddddd;stop-opacity:1;"/>
<stop offset="1" style="stop-color:#6600ff;stop-opacity:1;"/>
</linearGradient>
</defs>
<g id="surface1">
<path style=" stroke:none;fill-rule:evenodd;fill:url(#linear0);" d="M 18.164062 26.070312 C 21.4375 26.070312 24.089844 28.726562 24.089844 32 C 24.089844 35.273438 21.4375 37.929688 18.164062 37.929688 C 14.886719 37.929688 12.234375 35.273438 12.234375 32 C 12.234375 28.726562 14.886719 26.070312 18.164062 26.070312 Z M 45.835938 26.070312 C 49.113281 26.070312 51.765625 28.726562 51.765625 32 C 51.765625 35.273438 49.113281 37.929688 45.835938 37.929688 C 42.5625 37.929688 39.910156 35.273438 39.910156 32 C 39.910156 28.726562 42.5625 26.070312 45.835938 26.070312 Z M 8.28125 41.882812 L 8.28125 40.625 L 8.28125 41.730469 L 8.28125 27.386719 L 4.324219 23.105469 L 11.242188 16.1875 L 14.5625 19.097656 L 20.929688 16.1875 L 19.542969 9.265625 L 26.238281 6.433594 L 26.460938 6.300781 L 28.828125 10.253906 L 35.164062 10.253906 L 37.539062 6.300781 L 44.457031 9.265625 L 43.070312 16.1875 L 49.4375 19.097656 L 52.757812 16.1875 L 59.675781 23.105469 L 55.71875 27.386719 L 55.71875 41.730469 L 55.71875 40.625 L 55.71875 41.882812 L 45.835938 41.882812 L 45.835938 45.835938 L 37.929688 45.835938 L 37.929688 41.882812 L 32 41.882812 L 32 43.863281 L 35.957031 43.863281 L 35.957031 47.8125 L 47.8125 47.8125 L 47.8125 43.863281 L 55.71875 43.863281 L 55.71875 45.238281 C 55.71875 45.238281 51.765625 57.699219 32 57.699219 C 12.234375 57.699219 8.28125 45.238281 8.28125 45.238281 L 8.28125 43.863281 L 16.1875 43.863281 L 16.1875 47.8125 L 28.042969 47.8125 L 28.042969 43.863281 L 32 43.863281 L 32 41.882812 L 26.070312 41.882812 L 26.070312 45.835938 L 18.164062 45.835938 L 18.164062 41.882812 Z M 32 30.023438 C 33.09375 30.023438 33.976562 30.90625 33.976562 32 L 33.976562 35.957031 C 33.976562 37.050781 33.09375 37.929688 32 37.929688 C 30.90625 37.929688 30.023438 37.050781 30.023438 35.957031 L 30.023438 32 C 30.023438 30.90625 30.90625 30.023438 32 30.023438 Z M 32 30.023438 "/>
</g>
</svg>
