<svg xmlns="http://www.w3.org/2000/svg" xmlns:xlink="http://www.w3.org/1999/xlink" width="64px" height="64px" viewBox="0 0 64 64" version="1.1">
<defs>
<linearGradient id="linear0" gradientUnits="userSpaceOnUse" x1="0" y1="0" x2="0" y2="1" gradientTransform="matrix(55.351351,0,0,6.918919,4.216216,47.567568)">
<stop offset="0" style="stop-color:#00a2ff;stop-opacity:1;"/>
<stop offset="0.5" style="stop-color:#dddddd;stop-opacity:1;"/>
<stop offset="1" style="stop-color:#00ffae;stop-opacity:1;"/>
</linearGradient>
<linearGradient id="linear1" gradientUnits="userSpaceOnUse" x1="0" y1="0" x2="0" y2="1" gradientTransform="matrix(55.306307,0,0,30.891892,4.346847,9.166667)">
<stop offset="0" style="stop-color:#00a2ff;stop-opacity:1;"/>
<stop offset="0.5" style="stop-color:#dddddd;stop-opacity:1;"/>
<stop offset="1" style="stop-color:#00ffae;stop-opacity:1;"/>
</linearGradient>
</defs>
<g id="surface1">
<path style=" stroke:none;fill-rule:evenodd;fill:url(#linear0);" d="M 4.214844 47.566406 L 59.566406 47.566406 L 59.566406 54.488281 L 4.214844 54.488281 Z M 4.214844 47.566406 "/>
<path style=" stroke:none;fill-rule:evenodd;fill:url(#linear1);" d="M 17.449219 40.058594 C 15.230469 40.058594 13.261719 39.625 11.539062 38.761719 C 9.820312 37.890625 8.445312 36.71875 7.417969 35.238281 C 6.394531 33.761719 5.632812 32.125 5.117188 30.335938 C 4.605469 28.539062 4.347656 26.636719 4.347656 24.613281 C 4.347656 23.136719 4.511719 21.671875 4.835938 20.21875 C 5.164062 18.769531 5.6875 17.375 6.394531 16.039062 C 7.109375 14.699219 7.960938 13.527344 8.960938 12.515625 C 9.957031 11.503906 11.1875 10.691406 12.648438 10.085938 C 14.113281 9.472656 15.714844 9.164062 17.449219 9.164062 C 20.066406 9.164062 22.171875 9.703125 23.761719 10.769531 C 25.355469 11.835938 26.738281 13.308594 27.90625 15.1875 L 23.335938 17.789062 C 21.6875 15.339844 19.726562 14.117188 17.449219 14.117188 C 16.027344 14.117188 14.785156 14.4375 13.714844 15.078125 C 12.648438 15.714844 11.835938 16.570312 11.265625 17.636719 C 10.691406 18.703125 10.28125 19.820312 10.027344 20.988281 C 9.769531 22.152344 9.636719 23.363281 9.636719 24.613281 C 9.636719 27.570312 10.296875 30.0625 11.605469 32.082031 C 12.914062 34.097656 14.863281 35.109375 17.449219 35.109375 C 19.097656 35.109375 20.472656 34.570312 21.566406 33.488281 C 22.664062 32.410156 23.210938 31.085938 23.210938 29.515625 L 23.210938 29.054688 L 17.960938 29.054688 L 17.960938 24.230469 L 28.414062 24.230469 L 28.414062 28.367188 C 28.414062 32.039062 27.390625 34.90625 25.339844 36.96875 C 23.296875 39.03125 20.664062 40.058594 17.449219 40.058594 Z M 46.550781 40.058594 C 44.703125 40.058594 43.023438 39.761719 41.515625 39.164062 C 40.011719 38.566406 38.761719 37.761719 37.78125 36.753906 C 36.800781 35.742188 35.976562 34.570312 35.308594 33.234375 C 34.636719 31.894531 34.164062 30.511719 33.878906 29.070312 C 33.59375 27.636719 33.449219 26.148438 33.449219 24.613281 C 33.449219 23.078125 33.59375 21.589844 33.878906 20.152344 C 34.164062 18.714844 34.636719 17.328125 35.308594 15.988281 C 35.976562 14.660156 36.800781 13.488281 37.78125 12.472656 C 38.761719 11.460938 40.011719 10.664062 41.515625 10.0625 C 43.023438 9.46875 44.703125 9.164062 46.550781 9.164062 C 48.855469 9.164062 50.882812 9.617188 52.632812 10.511719 C 54.378906 11.410156 55.746094 12.617188 56.730469 14.136719 C 57.707031 15.664062 58.441406 17.308594 58.921875 19.066406 C 59.410156 20.828125 59.652344 22.679688 59.652344 24.613281 C 59.652344 26.550781 59.410156 28.394531 58.921875 30.160156 C 58.441406 31.921875 57.707031 33.566406 56.730469 35.089844 C 55.746094 36.613281 54.378906 37.820312 52.632812 38.714844 C 50.882812 39.613281 48.855469 40.058594 46.550781 40.058594 Z M 46.550781 35.152344 C 47.914062 35.152344 49.125 34.828125 50.175781 34.171875 C 51.230469 33.515625 52.050781 32.660156 52.632812 31.589844 C 53.210938 30.523438 53.648438 29.402344 53.933594 28.21875 C 54.214844 27.039062 54.363281 25.835938 54.363281 24.613281 C 54.363281 23.308594 54.214844 22.0625 53.933594 20.882812 C 53.648438 19.703125 53.210938 18.585938 52.632812 17.53125 C 52.050781 16.476562 51.238281 15.636719 50.199219 15.011719 C 49.164062 14.386719 47.941406 14.070312 46.550781 14.070312 C 44.730469 14.070312 43.207031 14.648438 41.984375 15.800781 C 40.761719 16.957031 39.914062 18.285156 39.445312 19.792969 C 38.976562 21.300781 38.742188 22.90625 38.742188 24.613281 C 38.742188 25.890625 38.882812 27.132812 39.164062 28.324219 C 39.449219 29.523438 39.886719 30.644531 40.46875 31.691406 C 41.054688 32.746094 41.863281 33.589844 42.902344 34.214844 C 43.941406 34.839844 45.160156 35.152344 46.550781 35.152344 Z M 46.550781 35.152344 "/>
</g>
</svg>
