<svg xmlns="http://www.w3.org/2000/svg" xmlns:xlink="http://www.w3.org/1999/xlink" width="64px" height="64px" viewBox="0 0 64 64" version="1.1">
<defs>
<linearGradient id="linear0" gradientUnits="userSpaceOnUse" x1="0" y1="0" x2="0" y2="1" gradientTransform="matrix(55.351351,0,0,55.351351,4.324324,4.324324)">
<stop offset="0" style="stop-color:#ff8963;stop-opacity:1;"/>
<stop offset="0.5" style="stop-color:#dddddd;stop-opacity:1;"/>
<stop offset="1" style="stop-color:#0F6FFF;stop-opacity:1;"/>
</linearGradient>
</defs>
<g id="surface1">
<path style=" stroke:none;fill-rule:nonzero;fill:url(#linear0);" d="M 4.324219 4.324219 L 4.324219 8.753906 L 8.753906 8.753906 L 8.753906 4.324219 Z M 10.96875 4.324219 L 10.96875 8.753906 L 15.394531 8.753906 L 15.394531 4.324219 Z M 17.609375 4.324219 L 17.609375 8.753906 L 22.039062 8.753906 L 22.039062 4.324219 Z M 24.253906 4.324219 L 24.253906 8.753906 L 28.679688 8.753906 L 28.679688 4.324219 Z M 30.890625 4.324219 L 30.890625 8.753906 L 35.320312 8.753906 L 35.320312 4.324219 Z M 37.539062 4.324219 L 37.539062 8.753906 L 41.960938 8.753906 L 41.960938 4.324219 Z M 48.605469 4.324219 L 48.605469 8.753906 L 53.03125 8.753906 L 53.03125 4.324219 Z M 55.246094 4.324219 L 55.246094 8.753906 L 59.675781 8.753906 L 59.675781 4.324219 Z M 4.324219 10.96875 L 4.324219 15.394531 L 8.753906 15.394531 L 8.753906 10.96875 Z M 10.96875 10.96875 L 10.96875 15.394531 L 15.394531 15.394531 L 15.394531 10.96875 Z M 17.609375 10.96875 L 17.609375 15.394531 L 22.039062 15.394531 L 22.039062 10.96875 Z M 24.253906 10.96875 L 24.253906 15.394531 L 28.679688 15.394531 L 28.679688 10.96875 Z M 30.890625 10.96875 L 30.890625 15.394531 L 35.320312 15.394531 L 35.320312 10.96875 Z M 37.539062 10.96875 L 37.539062 15.394531 L 41.960938 15.394531 L 41.960938 10.96875 Z M 48.605469 10.96875 L 48.605469 15.394531 L 53.03125 15.394531 L 53.03125 10.96875 Z M 55.246094 10.96875 L 55.246094 15.394531 L 59.675781 15.394531 L 59.675781 10.96875 Z M 48.605469 17.609375 L 48.605469 22.039062 L 53.03125 22.039062 L 53.03125 17.609375 Z M 55.246094 17.609375 L 55.246094 22.039062 L 59.675781 22.039062 L 59.675781 17.609375 Z M 4.324219 22.039062 L 4.324219 26.460938 L 8.753906 26.460938 L 8.753906 22.039062 Z M 10.96875 22.039062 L 10.96875 26.460938 L 15.394531 26.460938 L 15.394531 22.039062 Z M 48.605469 24.253906 L 48.605469 28.679688 L 53.03125 28.679688 L 53.03125 24.253906 Z M 55.246094 24.253906 L 55.246094 28.679688 L 59.675781 28.679688 L 59.675781 24.253906 Z M 4.324219 28.679688 L 4.324219 33.109375 L 8.753906 33.109375 L 8.753906 28.679688 Z M 10.96875 28.679688 L 10.96875 33.109375 L 15.394531 33.109375 L 15.394531 28.679688 Z M 48.605469 30.890625 L 48.605469 35.320312 L 53.03125 35.320312 L 53.03125 30.890625 Z M 55.246094 30.890625 L 55.246094 35.320312 L 59.675781 35.320312 L 59.675781 30.890625 Z M 4.324219 35.320312 L 4.324219 39.746094 L 8.753906 39.746094 L 8.753906 35.320312 Z M 10.96875 35.320312 L 10.96875 39.746094 L 15.394531 39.746094 L 15.394531 35.320312 Z M 48.605469 37.539062 L 48.605469 41.960938 L 53.03125 41.960938 L 53.03125 37.539062 Z M 55.246094 37.539062 L 55.246094 41.960938 L 59.675781 41.960938 L 59.675781 37.539062 Z M 4.324219 41.960938 L 4.324219 46.390625 L 8.753906 46.390625 L 8.753906 41.960938 Z M 10.96875 41.960938 L 10.96875 46.390625 L 15.394531 46.390625 L 15.394531 41.960938 Z M 4.324219 48.605469 L 4.324219 53.03125 L 8.753906 53.03125 L 8.753906 48.605469 Z M 10.96875 48.605469 L 10.96875 53.03125 L 15.394531 53.03125 L 15.394531 48.605469 Z M 22.039062 48.605469 L 22.039062 53.03125 L 26.460938 53.03125 L 26.460938 48.605469 Z M 28.679688 48.605469 L 28.679688 53.03125 L 33.109375 53.03125 L 33.109375 48.605469 Z M 35.320312 48.605469 L 35.320312 53.03125 L 39.746094 53.03125 L 39.746094 48.605469 Z M 41.960938 48.605469 L 41.960938 53.03125 L 46.390625 53.03125 L 46.390625 48.605469 Z M 48.605469 48.605469 L 48.605469 53.03125 L 53.03125 53.03125 L 53.03125 48.605469 Z M 55.246094 48.605469 L 55.246094 53.03125 L 59.675781 53.03125 L 59.675781 48.605469 Z M 4.324219 55.246094 L 4.324219 59.675781 L 8.753906 59.675781 L 8.753906 55.246094 Z M 10.96875 55.246094 L 10.96875 59.675781 L 15.394531 59.675781 L 15.394531 55.246094 Z M 22.039062 55.246094 L 22.039062 59.675781 L 26.460938 59.675781 L 26.460938 55.246094 Z M 28.679688 55.246094 L 28.679688 59.675781 L 33.109375 59.675781 L 33.109375 55.246094 Z M 35.320312 55.246094 L 35.320312 59.675781 L 39.746094 59.675781 L 39.746094 55.246094 Z M 41.960938 55.246094 L 41.960938 59.675781 L 46.390625 59.675781 L 46.390625 55.246094 Z M 48.605469 55.246094 L 48.605469 59.675781 L 53.03125 59.675781 L 53.03125 55.246094 Z M 55.246094 55.246094 L 55.246094 59.675781 L 59.675781 59.675781 L 59.675781 55.246094 Z M 55.246094 55.246094 "/>
</g>
</svg>
