<svg xmlns="http://www.w3.org/2000/svg" xmlns:xlink="http://www.w3.org/1999/xlink" width="64px" height="64px" viewBox="0 0 64 64" version="1.1">
<defs>
<linearGradient id="linear0" gradientUnits="userSpaceOnUse" x1="0" y1="0" x2="0" y2="1" gradientTransform="matrix(55.351351,0,0,55.351351,4.324324,4.324324)">
<stop offset="0" style="stop-color:#ffae00;stop-opacity:1;"/>
<stop offset="0.5" style="stop-color:#dddddd;stop-opacity:1;"/>
<stop offset="1" style="stop-color:#bf1d1d;stop-opacity:1;"/>
</linearGradient>
</defs>
<g id="surface1">
<path style=" stroke:none;fill-rule:nonzero;fill:url(#linear0);" d="M 31.949219 4.324219 C 16.769531 4.324219 4.324219 16.769531 4.324219 31.949219 C 4.324219 47.136719 16.769531 59.675781 31.949219 59.675781 C 47.136719 59.675781 59.675781 47.136719 59.675781 31.949219 C 59.675781 16.769531 47.136719 4.324219 31.949219 4.324219 Z M 31.949219 20.164062 C 38.59375 20.164062 43.835938 25.3125 43.835938 31.949219 C 43.835938 38.59375 38.59375 43.835938 31.949219 43.835938 C 25.3125 43.835938 20.164062 38.59375 20.164062 31.949219 C 20.164062 25.3125 25.3125 20.164062 31.949219 20.164062 Z M 32.023438 24.121094 C 27.679688 24.121094 24.066406 27.664062 24.066406 32.003906 C 24.066406 36.347656 27.679688 39.894531 32.023438 39.894531 C 36.363281 39.894531 39.90625 36.347656 39.90625 32.003906 C 39.90625 27.664062 36.363281 24.121094 32.023438 24.121094 Z M 32.023438 28.066406 C 34.226562 28.066406 35.96875 29.800781 35.96875 32.003906 C 35.96875 34.210938 34.226562 35.949219 32.023438 35.949219 C 29.8125 35.949219 28.078125 34.210938 28.078125 32.003906 C 28.078125 29.800781 29.8125 28.066406 32.023438 28.066406 Z M 32.023438 28.066406 "/>
</g>
</svg>
