<svg xmlns="http://www.w3.org/2000/svg" xmlns:xlink="http://www.w3.org/1999/xlink" width="64px" height="64px" viewBox="0 0 64 64" version="1.1">
<defs>
<linearGradient id="linear0" gradientUnits="userSpaceOnUse" x1="0" y1="0" x2="0" y2="1" gradientTransform="matrix(55.351351,0,0,30.193693,4.324324,16.900901)">
<stop offset="0" style="stop-color:#00b7ff;stop-opacity:1;"/>
<stop offset="0.5" style="stop-color:#dddddd;stop-opacity:1;"/>
<stop offset="1" style="stop-color:#ee42d9;stop-opacity:1;"/>
</linearGradient>
</defs>
<g id="surface1">
<path style=" stroke:none;fill-rule:nonzero;fill:url(#linear0);" d="M 35.144531 16.902344 C 35.082031 16.902344 35.015625 16.917969 34.957031 16.921875 L 32 16.921875 C 31.847656 16.921875 25.226562 16.894531 23.644531 16.917969 C 23.875 16.929688 23.835938 16.933594 22.703125 16.921875 C 12.976562 16.878906 6.542969 22.210938 4.726562 31.820312 C 3.230469 39.714844 5.941406 44.90625 12.503906 46.703125 C 14.890625 47.355469 22.285156 47.039062 25.421875 46.152344 C 30.933594 44.59375 30.597656 44.078125 31.664062 38.714844 C 32.511719 34.433594 32.46875 32 30.738281 32 C 30.234375 31.988281 29.324219 32.042969 28.855469 32 L 23.820312 32 C 22.78125 32 21.9375 32.839844 21.9375 33.886719 C 21.9375 34.933594 22.78125 35.773438 23.820312 35.773438 L 25.542969 35.773438 C 25.488281 36.433594 25.3125 37.375 25.027344 38.855469 C 24.261719 42.8125 24.207031 43.660156 22.457031 44.367188 C 15.914062 47 11.855469 43.773438 12.171875 36.191406 C 12.621094 25.410156 16.960938 18.847656 23.652344 18.847656 C 29.539062 18.847656 31.703125 21.570312 33.691406 31.476562 C 36.988281 47.835938 36.472656 46.960938 38.945312 47.050781 C 41.582031 47.144531 40.363281 48.199219 49.738281 31.902344 C 53.589844 25.207031 55.351562 22.152344 56.355469 20.675781 L 57.789062 20.675781 C 58.835938 20.675781 59.675781 19.835938 59.675781 18.792969 C 59.675781 18.773438 59.671875 18.761719 59.671875 18.742188 C 59.671875 18.730469 59.675781 18.710938 59.675781 18.691406 C 59.675781 17.796875 59.027344 17.066406 58.1875 16.945312 C 58.058594 16.917969 57.921875 16.902344 57.789062 16.902344 L 52.757812 16.902344 C 51.710938 16.902344 50.867188 17.746094 50.867188 18.792969 C 50.867188 19.835938 51.710938 20.675781 52.757812 20.675781 L 53.558594 20.675781 C 51.570312 24.496094 44.164062 37.476562 43.460938 38.28125 C 42.820312 39.003906 42.632812 38.363281 40.78125 29.285156 C 39.761719 24.3125 39.269531 21.914062 39.203125 20.675781 L 40.179688 20.675781 C 40.894531 20.675781 41.511719 20.273438 41.835938 19.6875 C 42.011719 19.40625 42.125 19.0625 42.125 18.691406 C 42.125 17.710938 41.355469 16.921875 40.394531 16.921875 L 40.367188 16.921875 C 40.308594 16.917969 40.242188 16.902344 40.179688 16.902344 Z M 22.703125 16.921875 C 22.714844 16.917969 23.460938 16.921875 23.644531 16.917969 C 23.160156 16.910156 21.058594 16.886719 22.703125 16.921875 Z M 22.703125 16.921875 "/>
</g>
</svg>
