<svg xmlns="http://www.w3.org/2000/svg" xmlns:xlink="http://www.w3.org/1999/xlink" width="64px" height="64px" viewBox="0 0 64 64" version="1.1">
<defs>
<linearGradient id="linear0" gradientUnits="userSpaceOnUse" x1="0" y1="0" x2="0" y2="1" gradientTransform="matrix(46.450449,0,0,51.891892,9.166667,6.054054)">
<stop offset="0" style="stop-color:#ff8963;stop-opacity:1;"/>
<stop offset="0.5" style="stop-color:#dddddd;stop-opacity:1;"/>
<stop offset="1" style="stop-color:#0F6FFF;stop-opacity:1;"/>
</linearGradient>
</defs>
<g id="surface1">
<path style=" stroke:none;fill-rule:nonzero;fill:url(#linear0);" d="M 11.828125 57.835938 C 11.515625 57.746094 11.164062 57.621094 11.042969 57.558594 C 10.632812 57.335938 9.886719 56.578125 9.664062 56.148438 C 9.144531 55.125 9.164062 56.175781 9.164062 31.988281 C 9.164062 7.785156 9.144531 8.855469 9.671875 7.828125 C 9.984375 7.21875 10.863281 6.460938 11.515625 6.234375 C 12.214844 5.996094 13.539062 5.996094 14.355469 6.234375 C 14.710938 6.339844 17.242188 7.726562 20.773438 9.746094 L 26.609375 13.089844 L 27.847656 12.863281 C 36.269531 11.328125 44.792969 15.445312 48.960938 23.058594 C 49.402344 23.863281 50.273438 25.921875 50.421875 26.496094 C 50.472656 26.703125 50.863281 26.972656 52.238281 27.757812 C 53.570312 28.515625 54.121094 28.894531 54.566406 29.363281 C 55.417969 30.257812 55.617188 30.757812 55.617188 31.988281 C 55.617188 32.875 55.585938 33.066406 55.328125 33.585938 C 54.734375 34.800781 54.652344 34.851562 43.730469 41.097656 C 38.175781 44.273438 29.445312 49.269531 24.320312 52.203125 C 19.160156 55.160156 14.757812 57.609375 14.441406 57.707031 C 13.597656 57.96875 12.496094 58.023438 11.828125 57.835938 Z M 28.875 47.113281 C 30.894531 45.957031 32.558594 44.988281 32.582031 44.972656 C 32.597656 44.957031 31.988281 44.9375 31.21875 44.933594 C 29.171875 44.921875 27.503906 44.515625 25.707031 43.605469 C 22.285156 41.863281 19.847656 38.59375 19.089844 34.738281 C 18.882812 33.6875 18.914062 31.164062 19.144531 30.089844 C 19.789062 27.070312 21.449219 24.433594 23.847656 22.632812 C 26.335938 20.757812 29.40625 19.867188 32.417969 20.152344 C 35.8125 20.472656 38.730469 21.988281 40.863281 24.554688 C 42.808594 26.882812 43.746094 29.484375 43.753906 32.515625 C 43.757812 35.113281 43.054688 37.402344 41.5625 39.636719 L 41.363281 39.945312 L 41.734375 39.746094 C 41.9375 39.636719 43.632812 38.671875 45.496094 37.597656 C 47.878906 36.234375 48.910156 35.589844 48.957031 35.433594 C 48.988281 35.3125 49.070312 34.609375 49.136719 33.867188 C 49.351562 31.609375 49.0625 29.28125 48.273438 26.90625 C 44.730469 16.226562 32.355469 11.496094 22.488281 17.042969 C 19.664062 18.632812 16.863281 21.570312 15.410156 24.476562 C 11.386719 32.496094 13.910156 42.285156 21.292969 47.285156 C 22.734375 48.261719 24.5625 49.207031 25.039062 49.214844 C 25.132812 49.214844 26.855469 48.269531 28.878906 47.113281 Z M 31.835938 38.148438 C 32.414062 37.851562 33.039062 37.21875 33.273438 36.703125 C 33.457031 36.3125 33.472656 35.941406 33.472656 32.441406 L 33.476562 28.609375 L 36.226562 28.609375 L 36.226562 25.542969 L 31.890625 25.542969 L 31.890625 29.296875 C 31.890625 31.363281 31.875 33.050781 31.851562 33.050781 C 31.828125 33.050781 31.609375 32.976562 31.363281 32.886719 C 30.621094 32.632812 29.90625 32.6875 29.160156 33.058594 C 27.03125 34.117188 27.054688 37.171875 29.1875 38.191406 C 29.648438 38.414062 29.839844 38.445312 30.566406 38.410156 C 31.152344 38.382812 31.542969 38.300781 31.835938 38.148438 Z M 31.835938 38.148438 "/>
</g>
</svg>
