<svg xmlns="http://www.w3.org/2000/svg" xmlns:xlink="http://www.w3.org/1999/xlink" width="64px" height="64px" viewBox="0 0 64 64" version="1.1">
<defs>
<linearGradient id="linear0" gradientUnits="userSpaceOnUse" x1="0" y1="0" x2="0" y2="1" gradientTransform="matrix(55.351351,0,0,55.342341,4.324324,4.328829)">
<stop offset="0" style="stop-color:#00a2ff;stop-opacity:1;"/>
<stop offset="0.5" style="stop-color:#dddddd;stop-opacity:1;"/>
<stop offset="1" style="stop-color:#00ffae;stop-opacity:1;"/>
</linearGradient>
</defs>
<g id="surface1">
<path style=" stroke:none;fill-rule:nonzero;fill:url(#linear0);" d="M 31.828125 4.347656 C 31.285156 4.429688 30.886719 4.902344 30.890625 5.449219 L 30.890625 16.511719 L 18.625 16.511719 C 18.347656 16.53125 18.089844 16.652344 17.902344 16.855469 L 17.902344 16.886719 C 17.875 16.914062 17.851562 16.933594 17.828125 16.960938 L 4.625 31.234375 C 4.320312 31.558594 4.238281 32.039062 4.421875 32.441406 C 4.597656 32.851562 5.011719 33.113281 5.457031 33.097656 L 16.511719 33.097656 L 16.511719 45.265625 C 16.511719 45.582031 16.636719 45.882812 16.863281 46.097656 L 31.242188 59.367188 C 31.5625 59.675781 32.039062 59.757812 32.449219 59.578125 C 32.855469 59.394531 33.117188 58.988281 33.109375 58.539062 L 33.109375 47.484375 L 45.273438 47.484375 C 45.585938 47.488281 45.886719 47.363281 46.097656 47.136719 L 59.375 32.753906 C 59.679688 32.429688 59.761719 31.957031 59.578125 31.542969 C 59.402344 31.136719 58.988281 30.878906 58.542969 30.886719 L 47.488281 30.886719 L 47.488281 18.71875 C 47.488281 18.410156 47.363281 18.109375 47.136719 17.890625 L 32.761719 4.621094 C 32.511719 4.390625 32.164062 4.289062 31.828125 4.347656 Z M 33.109375 8.011719 L 44.71875 18.71875 L 34.488281 28.957031 C 33.597656 27.9375 33.109375 26.636719 33.109375 25.289062 Z M 18.730469 19.273438 L 28.960938 29.503906 C 27.945312 30.394531 26.644531 30.886719 25.296875 30.886719 L 8.011719 30.886719 Z M 32 29.300781 C 32.664062 30.40625 33.589844 31.335938 34.699219 31.996094 C 33.589844 32.664062 32.664062 33.589844 32 34.691406 C 31.335938 33.589844 30.410156 32.664062 29.308594 31.996094 C 30.410156 31.335938 31.335938 30.40625 32 29.296875 Z M 38.707031 33.097656 L 55.988281 33.097656 L 45.273438 44.710938 L 35.039062 34.484375 C 36.054688 33.59375 37.363281 33.105469 38.707031 33.097656 Z M 29.511719 35.039062 C 30.363281 36.015625 30.890625 37.292969 30.890625 38.703125 L 30.890625 55.984375 L 19.28125 45.265625 Z M 29.511719 35.039062 "/>
</g>
</svg>
