<svg xmlns="http://www.w3.org/2000/svg" xmlns:xlink="http://www.w3.org/1999/xlink" width="64px" height="64px" viewBox="0 0 64 64" version="1.1">
<defs>
<linearGradient id="linear0" gradientUnits="userSpaceOnUse" x1="0" y1="0" x2="0" y2="1" gradientTransform="matrix(55.351351,0,0,55.351351,4.324324,4.324324)">
<stop offset="0" style="stop-color:#00a2ff;stop-opacity:1;"/>
<stop offset="0.5" style="stop-color:#dddddd;stop-opacity:1;"/>
<stop offset="1" style="stop-color:#00ffae;stop-opacity:1;"/>
</linearGradient>
</defs>
<g id="surface1">
<path style=" stroke:none;fill-rule:nonzero;fill:url(#linear0);" d="M 12.714844 32.003906 L 5.0625 39.660156 C 4.589844 40.125 4.324219 40.765625 4.324219 41.433594 L 4.324219 57.164062 C 4.324219 58.550781 5.449219 59.675781 6.835938 59.675781 L 22.566406 59.675781 C 23.234375 59.675781 23.867188 59.414062 24.339844 58.941406 L 32 51.289062 L 39.660156 58.941406 C 40.132812 59.414062 40.765625 59.675781 41.433594 59.675781 L 57.164062 59.675781 C 58.550781 59.675781 59.675781 58.550781 59.675781 57.164062 L 59.675781 41.433594 C 59.675781 40.765625 59.410156 40.125 58.9375 39.660156 L 51.285156 32.003906 L 58.9375 24.347656 C 59.410156 23.875 59.675781 23.234375 59.675781 22.566406 L 59.675781 6.835938 C 59.675781 5.449219 58.550781 4.324219 57.164062 4.324219 L 41.433594 4.324219 C 40.765625 4.324219 40.125 4.589844 39.660156 5.0625 L 32 12.714844 L 24.339844 5.0625 C 23.875 4.589844 23.234375 4.324219 22.566406 4.324219 L 6.835938 4.324219 C 5.449219 4.324219 4.324219 5.449219 4.324219 6.835938 L 4.324219 22.566406 C 4.324219 23.234375 4.589844 23.875 5.0625 24.347656 Z M 12.714844 32.003906 "/>
</g>
</svg>
