<svg xmlns="http://www.w3.org/2000/svg" xmlns:xlink="http://www.w3.org/1999/xlink" width="64px" height="64px" viewBox="0 0 64 64" version="1.1">
<defs>
<linearGradient id="linear0" gradientUnits="userSpaceOnUse" x1="0" y1="0" x2="0" y2="1" gradientTransform="matrix(55.351351,0,0,54.765767,4.324324,4.617117)">
<stop offset="0" style="stop-color:#00b7ff;stop-opacity:1;"/>
<stop offset="0.5" style="stop-color:#dddddd;stop-opacity:1;"/>
<stop offset="1" style="stop-color:#ee42d9;stop-opacity:1;"/>
</linearGradient>
</defs>
<g id="surface1">
<path style=" stroke:none;fill-rule:evenodd;fill:url(#linear0);" d="M 46.839844 59.382812 L 38.847656 59.382812 C 38.210938 59.382812 37.703125 58.875 37.703125 58.238281 C 37.703125 35.941406 54.917969 24.039062 58.265625 24.039062 C 59.113281 24.039062 59.445312 24.5625 59.550781 24.789062 C 59.9375 25.636719 59.414062 26.234375 58.382812 27.429688 C 55.539062 30.710938 47.984375 39.421875 47.984375 58.238281 C 47.984375 58.875 47.46875 59.382812 46.839844 59.382812 Z M 51.488281 14.644531 C 51.382812 14.234375 51.015625 13.785156 50.3125 13.757812 L 50.1875 13.757812 C 50.0625 13.757812 39.089844 13.945312 32.796875 28.265625 C 34.179688 31.976562 35.378906 36.265625 36.242188 41.132812 C 37.882812 31.503906 41.78125 21.660156 50.410156 16.328125 C 51.023438 15.945312 51.71875 15.515625 51.488281 14.644531 Z M 26.300781 59.382812 L 18.285156 59.382812 C 17.652344 59.382812 17.136719 58.875 17.136719 58.238281 C 17.136719 39.210938 8.824219 30.589844 5.691406 27.351562 C 4.617188 26.230469 4.070312 25.671875 4.4375 24.8125 C 4.511719 24.625 4.835938 24.039062 5.71875 24.039062 C 8.226562 24.039062 27.292969 34.929688 27.421875 58.011719 C 27.488281 58.347656 27.40625 58.699219 27.1875 58.960938 C 26.972656 59.230469 26.648438 59.382812 26.300781 59.382812 Z M 35.417969 58.011719 C 35.335938 16.949219 12.730469 4.617188 10.289062 4.617188 C 9.4375 4.617188 9.125 5.203125 9.054688 5.382812 C 8.714844 6.203125 9.257812 6.738281 10.070312 7.550781 C 16.660156 14.089844 21.089844 23.746094 23.363281 36.335938 C 26.933594 41.914062 29.621094 49.078125 29.707031 57.828125 C 29.765625 58.355469 29.703125 58.886719 29.515625 59.382812 L 34.300781 59.382812 C 34.644531 59.382812 34.96875 59.230469 35.1875 58.960938 C 35.402344 58.699219 35.488281 58.347656 35.417969 58.011719 Z M 35.417969 58.011719 "/>
</g>
</svg>
