<svg xmlns="http://www.w3.org/2000/svg" xmlns:xlink="http://www.w3.org/1999/xlink" width="64px" height="64px" viewBox="0 0 64 64" version="1.1">
<defs>
<linearGradient id="linear0" gradientUnits="userSpaceOnUse" x1="0" y1="0" x2="0" y2="1" gradientTransform="matrix(55.351351,0,0,55.351351,4.324324,4.324324)">
<stop offset="0" style="stop-color:#ffae00;stop-opacity:1;"/>
<stop offset="0.5" style="stop-color:#dddddd;stop-opacity:1;"/>
<stop offset="1" style="stop-color:#bf1d1d;stop-opacity:1;"/>
</linearGradient>
</defs>
<g id="surface1">
<path style=" stroke:none;fill-rule:nonzero;fill:url(#linear0);" d="M 32.011719 4.324219 C 32.011719 4.324219 30.523438 10.824219 29.644531 17.015625 C 27.863281 13.121094 26.078125 9.6875 26.078125 9.6875 C 26.078125 9.6875 26.230469 13.636719 26.636719 17.960938 C 22.769531 12.988281 18.164062 8.011719 18.164062 8.011719 C 18.164062 8.011719 20.117188 14.402344 22.4375 20.207031 C 18.984375 17.753906 15.761719 15.703125 15.761719 15.703125 C 15.761719 15.703125 17.734375 18.828125 20.121094 22.226562 C 14.355469 19.90625 8.027344 17.957031 8.027344 17.957031 C 8.027344 17.957031 13.132812 22.734375 18.148438 26.652344 C 13.796875 26.230469 9.773438 26.066406 9.773438 26.066406 C 9.773438 26.066406 13.242188 27.886719 17.152344 29.6875 C 10.933594 30.566406 4.324219 32.097656 4.324219 32.097656 C 4.324219 32.097656 10.605469 33.550781 16.699219 34.4375 C 12.917969 36.1875 9.636719 37.917969 9.636719 37.917969 C 9.636719 37.917969 13.769531 37.746094 18.199219 37.3125 C 13.164062 41.238281 8.039062 46.042969 8.039062 46.042969 C 8.039062 46.042969 14.4375 44.070312 20.230469 41.730469 C 17.785156 45.203125 15.738281 48.441406 15.738281 48.441406 C 15.738281 48.441406 19.003906 46.378906 22.472656 43.90625 C 20.136719 49.738281 18.164062 56.1875 18.164062 56.1875 C 18.164062 56.1875 22.796875 51.199219 26.664062 46.21875 C 26.261719 50.527344 26.105469 54.460938 26.105469 54.460938 C 26.105469 54.460938 27.886719 51.03125 29.664062 47.144531 C 30.550781 53.285156 32 59.675781 32 59.675781 C 32 59.675781 33.488281 53.148438 34.367188 46.945312 C 36.171875 50.910156 38.011719 54.4375 38.011719 54.4375 C 38.011719 54.4375 37.851562 50.605469 37.457031 46.363281 C 41.300781 51.289062 45.835938 56.1875 45.835938 56.1875 C 45.835938 56.1875 43.835938 49.625 41.46875 43.757812 C 44.945312 46.234375 48.203125 48.300781 48.203125 48.300781 C 48.203125 48.300781 46.226562 45.160156 43.828125 41.742188 C 49.609375 44.078125 55.972656 46.042969 55.972656 46.042969 C 55.972656 46.042969 50.984375 41.375 46.015625 37.476562 C 50.335938 37.890625 54.308594 38.054688 54.308594 38.054688 C 54.308594 38.054688 50.902344 36.261719 47.039062 34.476562 C 53.199219 33.59375 59.675781 32.097656 59.675781 32.097656 C 59.675781 32.097656 53.148438 30.589844 46.960938 29.707031 C 50.867188 27.910156 54.328125 26.082031 54.328125 26.082031 C 54.328125 26.082031 50.214844 26.261719 45.800781 26.691406 C 50.835938 22.769531 55.960938 17.957031 55.960938 17.957031 C 55.960938 17.957031 49.734375 19.882812 44 22.1875 C 46.378906 18.792969 48.335938 15.6875 48.335938 15.6875 C 48.335938 15.6875 45.039062 17.785156 41.539062 20.289062 C 43.867188 14.460938 45.835938 8.011719 45.835938 8.011719 C 45.835938 8.011719 41.152344 13.0625 37.269531 18.066406 C 37.691406 13.652344 37.863281 9.550781 37.863281 9.550781 C 37.863281 9.550781 36.105469 12.9375 34.335938 16.800781 C 33.449219 10.675781 32.011719 4.324219 32.011719 4.324219 Z M 32.011719 4.324219 "/>
</g>
</svg>
