<svg xmlns="http://www.w3.org/2000/svg" xmlns:xlink="http://www.w3.org/1999/xlink" width="64px" height="64px" viewBox="0 0 64 64" version="1.1">
<defs>
<linearGradient id="linear0" gradientUnits="userSpaceOnUse" x1="0" y1="0" x2="0" y2="1" gradientTransform="matrix(55.351351,0,0,40.252253,4.324324,11.873874)">
<stop offset="0" style="stop-color:#05f7ff;stop-opacity:1;"/>
<stop offset="0.5" style="stop-color:#dddddd;stop-opacity:1;"/>
<stop offset="1" style="stop-color:#e6ff05;stop-opacity:1;"/>
</linearGradient>
</defs>
<g id="surface1">
<path style=" stroke:none;fill-rule:nonzero;fill:url(#linear0);" d="M 54.644531 14.386719 C 52.789062 14.386719 51.1875 15.410156 50.308594 16.902344 L 39.550781 16.902344 L 39.550781 14.386719 C 39.550781 13.003906 38.417969 11.875 37.03125 11.875 L 26.96875 11.875 C 25.582031 11.875 24.449219 13.003906 24.449219 14.386719 L 24.449219 16.902344 L 13.691406 16.902344 C 12.8125 15.410156 11.210938 14.386719 9.355469 14.386719 C 6.578125 14.386719 4.324219 16.636719 4.324219 19.421875 C 4.324219 22.199219 6.578125 24.449219 9.355469 24.449219 C 11.210938 24.449219 12.8125 23.433594 13.691406 21.9375 L 17.585938 21.9375 C 15.46875 25.8125 14.386719 31.441406 14.386719 37.03125 L 11.875 37.03125 C 10.488281 37.03125 9.355469 38.164062 9.355469 39.550781 L 9.355469 49.613281 C 9.355469 50.996094 10.488281 52.125 11.875 52.125 L 21.9375 52.125 C 23.320312 52.125 24.449219 50.996094 24.449219 49.613281 L 24.449219 39.550781 C 24.449219 38.164062 23.320312 37.03125 21.9375 37.03125 L 19.421875 37.03125 C 19.421875 27.664062 22.6875 21.9375 24.449219 21.9375 L 24.449219 24.449219 C 24.449219 25.835938 25.582031 26.96875 26.96875 26.96875 L 37.03125 26.96875 C 38.417969 26.96875 39.550781 25.835938 39.550781 24.449219 L 39.550781 21.9375 C 41.3125 21.9375 44.578125 27.664062 44.578125 37.03125 L 42.0625 37.03125 C 40.679688 37.03125 39.550781 38.164062 39.550781 39.550781 L 39.550781 49.613281 C 39.550781 50.996094 40.679688 52.125 42.0625 52.125 L 52.125 52.125 C 53.511719 52.125 54.644531 50.996094 54.644531 49.613281 L 54.644531 39.550781 C 54.644531 38.164062 53.511719 37.03125 52.125 37.03125 L 49.613281 37.03125 C 49.613281 31.441406 48.53125 25.8125 46.414062 21.9375 L 50.308594 21.9375 C 51.1875 23.433594 52.789062 24.449219 54.644531 24.449219 C 57.421875 24.449219 59.675781 22.199219 59.675781 19.421875 C 59.675781 16.636719 57.421875 14.386719 54.644531 14.386719 Z M 54.644531 14.386719 "/>
</g>
</svg>
