<svg xmlns="http://www.w3.org/2000/svg" xmlns:xlink="http://www.w3.org/1999/xlink" width="64px" height="64px" viewBox="0 0 64 64" version="1.1">
<defs>
<linearGradient id="linear0" gradientUnits="userSpaceOnUse" x1="0" y1="0" x2="0" y2="1" gradientTransform="matrix(48.058557,0,0,25.171172,7.81982,19.243243)">
<stop offset="0" style="stop-color:#00fff2;stop-opacity:1;"/>
<stop offset="0.5" style="stop-color:#dddddd;stop-opacity:1;"/>
<stop offset="1" style="stop-color:#0062ff;stop-opacity:1;"/>
</linearGradient>
<linearGradient id="linear1" gradientUnits="userSpaceOnUse" x1="0" y1="0" x2="0" y2="1" gradientTransform="matrix(55.351351,0,0,32.702703,4.324324,15.648648)">
<stop offset="0" style="stop-color:#00fff2;stop-opacity:1;"/>
<stop offset="0.5" style="stop-color:#dddddd;stop-opacity:1;"/>
<stop offset="1" style="stop-color:#0062ff;stop-opacity:1;"/>
</linearGradient>
</defs>
<g id="surface1">
<path style=" stroke:none;fill-rule:nonzero;fill:url(#linear0);" d="M 10.890625 44.414062 L 7.820312 42.226562 L 21.460938 23.132812 L 36.894531 33.410156 L 53.410156 19.242188 L 55.878906 22.113281 L 37.171875 38.136719 L 22.414062 28.289062 Z M 10.890625 44.414062 "/>
<path style=" stroke:none;fill-rule:evenodd;fill:url(#linear1);" d="M 4.324219 43.324219 C 4.324219 40.542969 6.582031 38.289062 9.355469 38.289062 C 12.132812 38.289062 14.386719 40.542969 14.386719 43.324219 C 14.386719 46.097656 12.132812 48.351562 9.355469 48.351562 C 6.582031 48.351562 4.324219 46.097656 4.324219 43.324219 Z M 16.902344 25.710938 C 16.902344 22.933594 19.160156 20.675781 21.9375 20.675781 C 24.714844 20.675781 26.96875 22.933594 26.96875 25.710938 C 26.96875 28.488281 24.714844 30.738281 21.9375 30.738281 C 19.160156 30.738281 16.902344 28.488281 16.902344 25.710938 Z M 32 35.773438 C 32 32.996094 34.257812 30.738281 37.03125 30.738281 C 39.808594 30.738281 42.0625 32.996094 42.0625 35.773438 C 42.0625 38.554688 39.808594 40.808594 37.03125 40.808594 C 34.257812 40.808594 32 38.554688 32 35.773438 Z M 49.613281 20.675781 C 49.613281 17.902344 51.867188 15.648438 54.644531 15.648438 C 57.417969 15.648438 59.675781 17.902344 59.675781 20.675781 C 59.675781 23.457031 57.417969 25.710938 54.644531 25.710938 C 51.867188 25.710938 49.613281 23.457031 49.613281 20.675781 Z M 49.613281 20.675781 "/>
</g>
</svg>
