<svg xmlns="http://www.w3.org/2000/svg" xmlns:xlink="http://www.w3.org/1999/xlink" width="64px" height="64px" viewBox="0 0 64 64" version="1.1">
<defs>
<linearGradient id="linear0" gradientUnits="userSpaceOnUse" x1="0" y1="0" x2="0" y2="1" gradientTransform="matrix(29.522524,0,0,55.351351,17.238739,4.324324)">
<stop offset="0" style="stop-color:#00a2ff;stop-opacity:1;"/>
<stop offset="0.5" style="stop-color:#dddddd;stop-opacity:1;"/>
<stop offset="1" style="stop-color:#00ffae;stop-opacity:1;"/>
</linearGradient>
</defs>
<g id="surface1">
<path style=" stroke:none;fill-rule:nonzero;fill:url(#linear0);" d="M 29.539062 4.324219 L 30.769531 10.476562 L 32 16.625 L 33.230469 10.476562 L 34.460938 4.324219 Z M 24.824219 6.785156 L 23.488281 7.863281 L 22.164062 8.949219 L 27.082031 16.625 L 25.957031 11.703125 Z M 39.175781 6.785156 L 38.042969 11.703125 L 36.917969 16.625 L 41.835938 8.949219 L 40.511719 7.863281 Z M 23.386719 17.855469 C 19.988281 17.855469 17.238281 21.988281 17.238281 27.082031 C 17.238281 32.175781 19.988281 36.300781 23.386719 36.300781 C 26.789062 36.300781 29.539062 32.175781 29.539062 27.082031 C 29.539062 21.988281 26.789062 17.855469 23.386719 17.855469 Z M 40.613281 17.855469 C 37.210938 17.855469 34.460938 21.988281 34.460938 27.082031 C 34.460938 32.175781 37.210938 36.300781 40.613281 36.300781 C 44.011719 36.300781 46.761719 32.175781 46.761719 27.082031 C 46.761719 21.988281 44.011719 17.855469 40.613281 17.855469 Z M 31.917969 31.386719 C 31.242188 31.414062 30.660156 31.785156 30.441406 32.324219 L 28.800781 36.484375 L 27.164062 40.625 C 26.6875 41.847656 28.265625 42.914062 29.566406 42.253906 C 31.800781 40.824219 32.1875 41.117188 34.433594 42.253906 C 35.734375 42.914062 37.3125 41.847656 36.835938 40.625 L 35.199219 36.484375 L 33.558594 32.324219 C 33.324219 31.738281 32.648438 31.355469 31.917969 31.386719 Z M 23.386719 44.914062 C 20.664062 44.914062 18.46875 47.113281 18.46875 49.835938 L 18.46875 54.757812 C 18.46875 57.484375 20.664062 59.675781 23.386719 59.675781 L 40.613281 59.675781 C 43.335938 59.675781 45.53125 57.484375 45.53125 54.757812 L 45.53125 49.835938 C 45.53125 47.113281 43.335938 44.914062 40.613281 44.914062 Z M 23.386719 47.375 L 24.621094 47.375 L 24.621094 51.0625 L 20.929688 51.0625 L 20.929688 49.835938 C 20.929688 48.429688 21.988281 47.375 23.386719 47.375 Z M 27.082031 47.375 L 30.769531 47.375 L 30.769531 51.0625 L 27.082031 51.0625 Z M 33.230469 47.375 L 36.917969 47.375 L 36.917969 51.0625 L 33.230469 51.0625 Z M 39.378906 47.375 L 40.613281 47.375 C 42.011719 47.375 43.070312 48.429688 43.070312 49.835938 L 43.070312 51.0625 L 39.378906 51.0625 Z M 20.929688 53.523438 L 24.621094 53.523438 L 24.621094 57.214844 L 23.386719 57.214844 C 21.988281 57.214844 20.929688 56.164062 20.929688 54.757812 Z M 27.082031 53.523438 L 30.769531 53.523438 L 30.769531 57.214844 L 27.082031 57.214844 Z M 33.230469 53.523438 L 36.917969 53.523438 L 36.917969 57.214844 L 33.230469 57.214844 Z M 39.378906 53.523438 L 43.070312 53.523438 L 43.070312 54.757812 C 43.070312 56.164062 42.011719 57.214844 40.613281 57.214844 L 39.378906 57.214844 Z M 39.378906 53.523438 "/>
</g>
</svg>
