<svg xmlns="http://www.w3.org/2000/svg" xmlns:xlink="http://www.w3.org/1999/xlink" width="64px" height="64px" viewBox="0 0 64 64" version="1.1">
<defs>
<linearGradient id="linear0" gradientUnits="userSpaceOnUse" x1="0" y1="0" x2="0" y2="1" gradientTransform="matrix(45.788287,0,0,51.891892,9.513514,6.054054)">
<stop offset="0" style="stop-color:#ffae00;stop-opacity:1;"/>
<stop offset="0.5" style="stop-color:#dddddd;stop-opacity:1;"/>
<stop offset="1" style="stop-color:#bf1d1d;stop-opacity:1;"/>
</linearGradient>
</defs>
<g id="surface1">
<path style=" stroke:none;fill-rule:nonzero;fill:url(#linear0);" d="M 55.296875 36.214844 C 55.296875 43.363281 53.496094 48.785156 49.890625 52.460938 C 46.289062 56.117188 40.890625 57.945312 33.707031 57.945312 C 28.648438 57.945312 24.285156 56.847656 20.609375 54.644531 C 16.957031 52.421875 14.191406 49.347656 12.320312 45.414062 C 10.449219 41.457031 9.511719 36.863281 9.511719 31.636719 C 9.511719 26.679688 10.496094 22.273438 12.460938 18.410156 C 14.429688 14.542969 17.261719 11.523438 20.960938 9.351562 C 24.660156 7.152344 28.941406 6.054688 33.8125 6.054688 C 39.171875 6.054688 43.5625 7.40625 46.976562 10.113281 C 50.417969 12.820312 53.203125 16.734375 54.539062 21.3125 L 45.382812 21.3125 C 44.515625 19.1875 42.765625 17.164062 40.730469 15.769531 C 38.691406 14.382812 36.335938 13.6875 33.671875 13.6875 C 29.363281 13.6875 25.664062 15.386719 22.578125 18.792969 C 19.488281 22.171875 17.941406 26.4375 17.941406 31.597656 C 17.941406 35.070312 18.5625 38.214844 19.800781 41.039062 C 21.066406 43.839844 22.890625 46.085938 25.28125 47.773438 C 27.6875 49.460938 30.460938 50.3125 33.605469 50.3125 C 36.058594 50.3125 38.238281 50.011719 40.136719 49.40625 C 42.054688 48.78125 43.621094 47.789062 44.835938 46.417969 C 46.082031 45.03125 46.835938 43.125 46.910156 41.160156 L 38.511719 41.160156 L 38.511719 33.527344 L 55.300781 33.527344 "/>
</g>
</svg>
