<svg xmlns="http://www.w3.org/2000/svg" xmlns:xlink="http://www.w3.org/1999/xlink" width="64px" height="64px" viewBox="0 0 64 64" version="1.1">
<defs>
<linearGradient id="linear0" gradientUnits="userSpaceOnUse" x1="0" y1="0" x2="0" y2="1" gradientTransform="matrix(55.351351,0,0,55.351351,4.324324,4.324324)">
<stop offset="0" style="stop-color:#ffae00;stop-opacity:1;"/>
<stop offset="0.5" style="stop-color:#dddddd;stop-opacity:1;"/>
<stop offset="1" style="stop-color:#bf1d1d;stop-opacity:1;"/>
</linearGradient>
</defs>
<g id="surface1">
<path style=" stroke:none;fill-rule:evenodd;fill:url(#linear0);" d="M 24.851562 14.558594 C 17.308594 17.5 12.335938 24.761719 12.324219 32.863281 C 12.324219 43.730469 21.136719 52.539062 32 52.539062 C 42.863281 52.539062 51.675781 43.730469 51.675781 32.863281 C 51.664062 25 46.972656 17.890625 39.742188 14.796875 L 37.621094 19.988281 C 42.742188 22.226562 46.054688 27.28125 46.054688 32.863281 C 46.054688 40.625 39.761719 46.917969 32 46.917969 C 24.238281 46.917969 17.945312 40.625 17.945312 32.863281 C 17.949219 27.210938 21.347656 22.109375 26.558594 19.917969 Z M 4.324219 32 C 4.324219 16.726562 16.726562 4.324219 32 4.324219 C 47.273438 4.324219 59.675781 16.726562 59.675781 32 C 59.675781 47.273438 47.273438 59.675781 32 59.675781 C 16.726562 59.675781 4.324219 47.273438 4.324219 32 Z M 29.1875 7.566406 L 29.1875 24.433594 L 34.8125 24.433594 L 34.8125 7.566406 Z M 29.1875 7.566406 "/>
</g>
</svg>
