<svg xmlns="http://www.w3.org/2000/svg" xmlns:xlink="http://www.w3.org/1999/xlink" width="64px" height="64px" viewBox="0 0 64 64" version="1.1">
<defs>
<linearGradient id="linear0" gradientUnits="userSpaceOnUse" x1="0" y1="0" x2="0" y2="1" gradientTransform="matrix(55.351351,0,0,27.675676,4.324324,18.162162)">
<stop offset="0" style="stop-color:#ffae00;stop-opacity:1;"/>
<stop offset="0.5" style="stop-color:#dddddd;stop-opacity:1;"/>
<stop offset="1" style="stop-color:#6600ff;stop-opacity:1;"/>
</linearGradient>
</defs>
<g id="surface1">
<path style=" stroke:none;fill-rule:evenodd;fill:url(#linear0);" d="M 19.136719 18.914062 C 23.757812 18.675781 27.761719 21.761719 32.375 21.503906 C 36.226562 21.289062 43.53125 18.164062 43.53125 18.164062 C 42.886719 22.300781 41.625 25.011719 32.46875 26.164062 C 27.515625 26.773438 21.933594 23.390625 17.867188 22.808594 C 15.1875 22.417969 11.242188 23.625 11.242188 23.625 C 11.242188 23.625 13.894531 19.1875 19.136719 18.914062 Z M 35.289062 28.136719 C 39.902344 27.90625 43.90625 30.988281 48.515625 30.726562 C 52.375 30.511719 59.675781 27.386719 59.675781 27.386719 C 59.027344 31.527344 57.773438 34.238281 48.609375 35.382812 C 43.664062 36.003906 38.078125 32.617188 34.011719 32.027344 C 31.335938 31.644531 27.386719 32.855469 27.386719 32.855469 C 27.386719 32.855469 30.039062 28.410156 35.289062 28.136719 Z M 12.21875 38.515625 C 16.835938 38.285156 20.839844 41.363281 25.457031 41.105469 C 29.308594 40.890625 36.613281 37.765625 36.613281 37.765625 C 35.96875 41.90625 34.707031 44.617188 25.550781 45.761719 C 20.597656 46.382812 15.011719 42.996094 10.949219 42.40625 C 8.269531 42.015625 4.324219 43.234375 4.324219 43.234375 C 4.324219 43.234375 6.976562 38.789062 12.21875 38.515625 Z M 12.21875 38.515625 "/>
</g>
</svg>
