<svg xmlns="http://www.w3.org/2000/svg" xmlns:xlink="http://www.w3.org/1999/xlink" width="64px" height="64px" viewBox="0 0 64 64" version="1.1">
<defs>
<linearGradient id="linear0" gradientUnits="userSpaceOnUse" x1="0" y1="0" x2="0" y2="1" gradientTransform="matrix(48.441443,0,0,48.432432,7.77928,7.783784)">
<stop offset="0" style="stop-color:#00a2ff;stop-opacity:1;"/>
<stop offset="0.5" style="stop-color:#dddddd;stop-opacity:1;"/>
<stop offset="1" style="stop-color:#00ffae;stop-opacity:1;"/>
</linearGradient>
</defs>
<g id="surface1">
<path style=" stroke:none;fill-rule:nonzero;fill:url(#linear0);" d="M 28.273438 55.59375 C 27.6875 55.269531 24.578125 53.3125 21.375 51.265625 C 13.765625 46.402344 11.472656 44.988281 9.863281 44.210938 C 7.6875 43.152344 7.894531 44.382812 7.820312 31.933594 C 7.761719 20.308594 7.613281 18.28125 8.753906 18.582031 C 7.855469 17.769531 12.066406 16.5 18.652344 13.691406 C 25.089844 10.941406 32.199219 8.175781 33.765625 7.796875 C 34.1875 7.703125 35.199219 8.105469 39.011719 9.921875 C 47.394531 13.917969 54.3125 17.589844 55.191406 18.515625 C 55.402344 18.730469 55.675781 18.90625 55.820312 18.90625 C 56.21875 18.90625 56.328125 19.671875 56.105469 21.070312 C 56 21.785156 55.210938 26.390625 54.363281 31.320312 C 53.511719 36.242188 52.753906 40.78125 52.6875 41.394531 C 52.433594 43.578125 52.5 43.5 49.023438 45.542969 C 47.296875 46.566406 42.894531 49.027344 39.265625 51.003906 C 35.632812 52.984375 32.011719 54.972656 31.21875 55.429688 C 30.433594 55.867188 29.691406 56.226562 29.566406 56.214844 C 29.449219 56.207031 28.863281 55.933594 28.285156 55.597656 M 29.125 50.765625 C 29.1875 49.105469 29.3125 44.335938 29.394531 40.179688 C 29.589844 30.949219 29.636719 31.234375 27.59375 29.921875 C 25.089844 28.3125 22.386719 26.8125 17.773438 24.488281 C 15.261719 23.230469 12.511719 21.796875 11.648438 21.300781 C 10.59375 20.6875 10.03125 20.472656 9.902344 20.597656 C 9.648438 20.835938 9.632812 30.488281 9.863281 37.246094 L 10.03125 42.058594 L 11.417969 42.828125 C 12.613281 43.5 19.570312 47.988281 26.320312 52.4375 C 27.460938 53.1875 28.511719 53.792969 28.6875 53.808594 C 28.984375 53.8125 29.015625 53.421875 29.121094 50.78125 M 17.1875 42.5 L 17.484375 33.179688 L 13.785156 31.3125 L 14.265625 27.460938 L 25.96875 32.800781 L 25.742188 36.414062 L 21.496094 34.726562 C 20.945312 36.8125 20.863281 40.996094 20.539062 44.1875 L 17.1875 42.5 M 39.265625 49.039062 C 47.753906 44.367188 50.625 42.660156 50.730469 42.171875 C 50.785156 41.949219 50.960938 40.835938 51.136719 39.710938 C 51.3125 38.570312 52.0625 34.125 52.800781 29.824219 C 54.03125 22.605469 54.289062 20.765625 54.054688 20.765625 C 53.800781 20.765625 49.253906 22.734375 43.449219 25.339844 C 39.863281 26.957031 35.882812 28.738281 34.605469 29.308594 C 33.320312 29.875 32.171875 30.449219 32.027344 30.550781 C 31.636719 30.902344 30.71875 52.28125 31.070312 53.136719 C 31.1875 53.417969 31.324219 53.390625 32.3125 52.839844 C 32.933594 52.511719 36.054688 50.792969 39.253906 49.039062 M 35.003906 45.828125 C 34.945312 40.882812 34.550781 35.996094 35.703125 30.8125 L 38.109375 30.773438 L 38.3125 37.878906 L 46.703125 28.066406 L 50.664062 27.082031 L 43.285156 36.785156 L 50.121094 39.921875 L 47.308594 41.664062 L 40.335938 38.691406 L 37.808594 39.890625 L 37.71875 44.664062 M 32.394531 28.335938 C 32.960938 28.105469 37.09375 26.21875 41.59375 24.179688 C 46.089844 22.121094 50.335938 20.203125 51.027344 19.921875 C 52.867188 19.152344 52.945312 19.054688 52.058594 18.488281 C 50.703125 17.636719 43.789062 14.105469 38.941406 11.792969 L 34.132812 9.5 L 32.511719 10.023438 C 30.246094 10.761719 23.761719 13.351562 18.214844 15.761719 C 12.367188 18.273438 11.59375 18.652344 11.59375 18.957031 C 11.59375 19.085938 12.878906 19.875 14.460938 20.71875 C 19.527344 23.40625 30.539062 28.792969 30.976562 28.792969 C 31.214844 28.792969 31.867188 28.59375 32.441406 28.351562 M 29.355469 25.355469 C 26.539062 24.691406 23.339844 23.121094 22.503906 22.015625 C 21.851562 21.136719 21.289062 19.71875 21.289062 18.929688 C 21.289062 17.976562 21.914062 16.632812 22.726562 15.8125 C 23.761719 14.792969 25.191406 14.355469 28.917969 13.941406 C 32.625 13.523438 35.820312 13.648438 37.726562 14.289062 C 39.53125 14.886719 40.257812 15.257812 40.625 15.773438 C 41.59375 17.109375 42.28125 18.230469 42.28125 18.457031 C 42.28125 18.796875 41.386719 19.125 40.746094 19.015625 C 40.46875 18.960938 39.921875 18.875 39.523438 18.8125 C 38.933594 18.71875 38.726562 18.558594 38.363281 17.949219 C 37.863281 17.109375 36.558594 16.230469 35.296875 15.90625 C 33.363281 15.410156 28.027344 15.828125 26.402344 16.59375 C 25.476562 17.027344 24.984375 17.984375 24.839844 19.566406 C 24.742188 20.652344 24.78125 20.820312 25.207031 21.257812 C 25.773438 21.835938 27.355469 22.617188 29.117188 23.1875 C 30.09375 23.5 30.664062 23.582031 31.339844 23.488281 C 32.917969 23.28125 33.097656 22.882812 32.171875 21.765625 C 31.363281 20.796875 31.171875 20.269531 31.429688 19.792969 C 31.621094 19.457031 31.773438 19.414062 32.648438 19.5 C 33.902344 19.632812 36.554688 20.589844 37.164062 21.160156 C 37.71875 21.644531 37.808594 22.808594 37.3125 23.261719 C 36.78125 23.792969 34.363281 25.070312 33.421875 25.339844 C 32.324219 25.660156 30.691406 25.660156 29.363281 25.339844 "/>
</g>
</svg>
