<svg xmlns="http://www.w3.org/2000/svg" xmlns:xlink="http://www.w3.org/1999/xlink" width="64px" height="64px" viewBox="0 0 64 64" version="1.1">
<defs>
<linearGradient id="linear0" gradientUnits="userSpaceOnUse" x1="0" y1="0" x2="0" y2="1" gradientTransform="matrix(55.351351,0,0,55.351351,4.324324,4.324324)">
<stop offset="0" style="stop-color:#ffae00;stop-opacity:1;"/>
<stop offset="0.5" style="stop-color:#dddddd;stop-opacity:1;"/>
<stop offset="1" style="stop-color:#bf1d1d;stop-opacity:1;"/>
</linearGradient>
</defs>
<g id="surface1">
<path style=" stroke:none;fill-rule:nonzero;fill:url(#linear0);" d="M 20.617188 4.324219 L 20.617188 20.617188 L 4.324219 20.617188 L 4.324219 25.402344 L 20.617188 25.402344 L 20.617188 38.59375 L 4.324219 38.59375 L 4.324219 43.382812 L 20.617188 43.382812 L 20.617188 59.675781 L 25.40625 59.675781 L 25.40625 43.382812 L 38.597656 43.382812 L 38.597656 59.675781 L 43.382812 59.675781 L 43.382812 43.382812 L 59.675781 43.382812 L 59.675781 38.59375 L 43.382812 38.59375 L 43.382812 25.402344 L 59.675781 25.402344 L 59.675781 20.617188 L 43.382812 20.617188 L 43.382812 4.324219 L 38.597656 4.324219 L 38.597656 20.617188 L 25.40625 20.617188 L 25.40625 4.324219 Z M 25.40625 25.402344 L 38.597656 25.402344 L 38.597656 38.59375 L 25.40625 38.59375 Z M 25.40625 25.402344 "/>
</g>
</svg>
