<svg xmlns="http://www.w3.org/2000/svg" xmlns:xlink="http://www.w3.org/1999/xlink" width="64px" height="64px" viewBox="0 0 64 64" version="1.1">
<defs>
<linearGradient id="linear0" gradientUnits="userSpaceOnUse" x1="0" y1="0" x2="0" y2="1" gradientTransform="matrix(36.914416,0,0,55.351351,13.540541,4.324324)">
<stop offset="0" style="stop-color:#00b7ff;stop-opacity:1;"/>
<stop offset="0.5" style="stop-color:#dddddd;stop-opacity:1;"/>
<stop offset="1" style="stop-color:#ee42d9;stop-opacity:1;"/>
</linearGradient>
<linearGradient id="linear1" gradientUnits="userSpaceOnUse" x1="0" y1="0" x2="0" y2="1" gradientTransform="matrix(22.144145,0,0,14.76126,20.927926,11.702704)">
<stop offset="0" style="stop-color:#00b7ff;stop-opacity:1;"/>
<stop offset="0.5" style="stop-color:#dddddd;stop-opacity:1;"/>
<stop offset="1" style="stop-color:#ee42d9;stop-opacity:1;"/>
</linearGradient>
</defs>
<g id="surface1">
<path style=" stroke:none;fill-rule:nonzero;fill:url(#linear0);" d="M 22.78125 4.324219 C 20.78125 4.324219 19.144531 4.558594 17.757812 5.175781 C 16.367188 5.792969 15.296875 6.863281 14.671875 8.113281 C 13.414062 10.621094 13.550781 13.542969 13.542969 17.238281 L 13.542969 46.761719 C 13.550781 50.457031 13.414062 53.378906 14.671875 55.886719 C 15.296875 57.136719 16.367188 58.207031 17.757812 58.824219 C 19.144531 59.441406 20.78125 59.675781 22.78125 59.675781 L 41.226562 59.675781 C 43.21875 59.675781 44.855469 59.441406 46.242188 58.824219 C 47.632812 58.207031 48.703125 57.136719 49.335938 55.886719 C 50.585938 53.378906 50.449219 50.457031 50.449219 46.761719 L 50.449219 17.238281 C 50.457031 13.542969 50.585938 10.621094 49.335938 8.113281 C 48.703125 6.863281 47.632812 5.792969 46.242188 5.175781 C 44.855469 4.558594 43.21875 4.324219 41.226562 4.324219 Z M 22.78125 8.011719 L 41.226562 8.011719 C 42.914062 8.011719 44.054688 8.238281 44.742188 8.542969 C 45.433594 8.855469 45.738281 9.164062 46.039062 9.757812 C 46.625 10.941406 46.765625 13.542969 46.761719 17.238281 L 46.761719 46.761719 C 46.761719 50.457031 46.625 53.058594 46.039062 54.242188 C 45.738281 54.835938 45.433594 55.144531 44.742188 55.457031 C 44.054688 55.761719 42.914062 55.988281 41.226562 55.988281 L 22.78125 55.988281 C 21.085938 55.988281 19.945312 55.761719 19.257812 55.457031 C 18.566406 55.144531 18.261719 54.835938 17.96875 54.242188 C 17.375 53.058594 17.238281 50.457031 17.238281 46.761719 L 17.238281 17.238281 C 17.238281 13.542969 17.375 10.941406 17.96875 9.757812 C 18.261719 9.164062 18.566406 8.855469 19.257812 8.542969 C 19.945312 8.238281 21.085938 8.011719 22.78125 8.011719 Z M 32 30.160156 C 25.910156 30.160156 20.933594 35.132812 20.933594 41.226562 C 20.933594 47.3125 25.910156 52.296875 32 52.296875 C 38.089844 52.296875 43.066406 47.3125 43.066406 41.226562 C 43.066406 35.132812 38.089844 30.160156 32 30.160156 Z M 32 33.839844 C 36.097656 33.839844 39.378906 37.125 39.378906 41.226562 C 39.378906 45.320312 36.097656 48.609375 32 48.609375 C 27.902344 48.609375 24.621094 45.320312 24.621094 41.226562 C 24.621094 37.125 27.902344 33.839844 32 33.839844 Z M 32 33.839844 "/>
<path style=" stroke:none;fill-rule:evenodd;fill:url(#linear1);" d="M 20.929688 11.703125 L 20.929688 26.460938 L 43.070312 26.460938 L 43.070312 11.703125 Z M 20.929688 11.703125 "/>
</g>
</svg>
