<svg xmlns="http://www.w3.org/2000/svg" xmlns:xlink="http://www.w3.org/1999/xlink" width="64px" height="64px" viewBox="0 0 64 64" version="1.1">
<defs>
<linearGradient id="linear0" gradientUnits="userSpaceOnUse" x1="0" y1="0" x2="0" y2="1" gradientTransform="matrix(28.427929,0,0,34.594595,17.783784,14.702703)">
<stop offset="0" style="stop-color:#ffae00;stop-opacity:1;"/>
<stop offset="0.5" style="stop-color:#dddddd;stop-opacity:1;"/>
<stop offset="1" style="stop-color:#bf1d1d;stop-opacity:1;"/>
</linearGradient>
<linearGradient id="linear1" gradientUnits="userSpaceOnUse" x1="0" y1="0" x2="0" y2="1" gradientTransform="matrix(55.351351,0,0,55.351351,4.324324,4.324324)">
<stop offset="0" style="stop-color:#ffae00;stop-opacity:1;"/>
<stop offset="0.5" style="stop-color:#dddddd;stop-opacity:1;"/>
<stop offset="1" style="stop-color:#bf1d1d;stop-opacity:1;"/>
</linearGradient>
</defs>
<g id="surface1">
<path style=" stroke:none;fill-rule:evenodd;fill:url(#linear0);" d="M 45.085938 14.707031 C 44.820312 14.6875 44.511719 14.710938 44.136719 14.746094 L 27.472656 17.347656 C 25.59375 17.539062 25.386719 18.414062 25.40625 19.511719 L 25.40625 41.515625 C 24.449219 40.886719 23.429688 40.441406 22.0625 40.441406 C 20.3125 40.441406 19.261719 41.117188 18.632812 42 C 17.996094 42.886719 17.785156 44 17.785156 44.863281 C 17.785156 45.90625 18.144531 47.011719 18.914062 47.855469 C 19.6875 48.703125 20.867188 49.296875 22.570312 49.296875 C 24.496094 49.296875 25.839844 48.761719 26.609375 47.710938 C 27.207031 46.886719 27.542969 45.78125 27.664062 44.417969 C 27.679688 44.257812 27.6875 44.085938 27.703125 43.910156 C 27.710938 43.769531 27.710938 43.675781 27.710938 43.511719 L 27.71875 43.511719 L 27.71875 25.707031 C 27.769531 24.273438 29.066406 24.0625 29.066406 24.0625 L 42.597656 21.949219 C 43.902344 21.550781 43.902344 23.160156 43.902344 23.160156 L 43.902344 39.207031 C 42.945312 38.578125 41.921875 38.132812 40.558594 38.132812 C 38.808594 38.132812 37.757812 38.800781 37.121094 39.6875 C 36.488281 40.570312 36.28125 41.6875 36.28125 42.550781 C 36.28125 43.589844 36.636719 44.699219 37.410156 45.542969 C 38.179688 46.390625 39.363281 46.988281 41.0625 46.988281 C 42.988281 46.988281 44.335938 46.449219 45.105469 45.402344 C 45.703125 44.578125 46.039062 43.46875 46.160156 42.109375 C 46.175781 41.945312 46.1875 41.773438 46.191406 41.597656 C 46.203125 41.460938 46.203125 41.363281 46.203125 41.203125 L 46.210938 41.203125 L 46.210938 16.769531 C 46.242188 15.1875 45.886719 14.765625 45.089844 14.710938 Z M 45.085938 14.707031 "/>
<path style=" stroke:none;fill-rule:nonzero;fill:url(#linear1);" d="M 20.117188 4.324219 C 15.144531 4.382812 11.503906 4.207031 8.527344 5.847656 C 7.039062 6.664062 5.863281 8.058594 5.210938 9.792969 C 4.558594 11.527344 4.324219 13.585938 4.324219 16.1875 L 4.324219 47.8125 C 4.324219 50.414062 4.558594 52.472656 5.210938 54.207031 C 5.863281 55.941406 7.039062 57.328125 8.527344 58.148438 C 11.503906 59.792969 15.144531 59.617188 20.117188 59.675781 L 43.882812 59.675781 C 48.855469 59.617188 52.496094 59.792969 55.472656 58.148438 C 56.960938 57.328125 58.136719 55.941406 58.789062 54.207031 C 59.441406 52.472656 59.675781 50.414062 59.675781 47.8125 L 59.675781 16.1875 C 59.675781 13.585938 59.441406 11.527344 58.789062 9.792969 C 58.136719 8.058594 56.960938 6.664062 55.472656 5.847656 C 52.496094 4.207031 48.855469 4.382812 43.882812 4.324219 Z M 20.164062 8.273438 L 43.863281 8.273438 C 48.835938 8.335938 52.113281 8.511719 53.5625 9.3125 C 54.289062 9.707031 54.703125 10.152344 55.085938 11.179688 C 55.472656 12.207031 55.71875 13.839844 55.71875 16.1875 L 55.71875 47.8125 C 55.71875 50.160156 55.472656 51.789062 55.085938 52.820312 C 54.703125 53.847656 54.289062 54.289062 53.5625 54.6875 C 52.113281 55.488281 48.835938 55.664062 43.863281 55.71875 L 20.136719 55.71875 C 15.164062 55.664062 11.886719 55.488281 10.4375 54.6875 C 9.710938 54.289062 9.296875 53.847656 8.914062 52.820312 C 8.527344 51.789062 8.28125 50.160156 8.28125 47.8125 L 8.28125 16.1875 C 8.28125 13.839844 8.527344 12.207031 8.914062 11.179688 C 9.300781 10.152344 9.710938 9.707031 10.4375 9.3125 C 11.886719 8.511719 15.164062 8.335938 20.164062 8.273438 Z M 20.164062 8.273438 "/>
</g>
</svg>
