<svg xmlns="http://www.w3.org/2000/svg" xmlns:xlink="http://www.w3.org/1999/xlink" width="64px" height="64px" viewBox="0 0 64 64" version="1.1">
<defs>
<linearGradient id="linear0" gradientUnits="userSpaceOnUse" x1="0" y1="0" x2="0" y2="1" gradientTransform="matrix(55.351351,0,0,25.621622,4.324324,19.189189)">
<stop offset="0" style="stop-color:#05f7ff;stop-opacity:1;"/>
<stop offset="0.5" style="stop-color:#dddddd;stop-opacity:1;"/>
<stop offset="1" style="stop-color:#e6ff05;stop-opacity:1;"/>
</linearGradient>
</defs>
<g id="surface1">
<path style=" stroke:none;fill-rule:evenodd;fill:url(#linear0);" d="M 23.8125 26.878906 L 23.972656 19.1875 L 11.761719 19.1875 C 11.085938 19.457031 10.386719 19.355469 9.800781 19.753906 C 6.800781 21.761719 5.058594 25.757812 4.4375 31.082031 C 4.132812 32.8125 4.4375 34.039062 5.558594 36.082031 C 6.238281 38.207031 6.941406 39.734375 7.4375 40.929688 C 8.875 44.347656 10.121094 44.96875 12.800781 44.769531 L 25.691406 44.769531 L 27.460938 35.5625 L 27.460938 32 L 19.730469 32 L 19.6875 37.121094 L 14.203125 37.121094 L 12.039062 31.761719 C 12.242188 29.851562 12.800781 28.3125 13.6875 26.878906 Z M 32.335938 26.878906 L 32.335938 19.1875 L 55.699219 19.1875 C 59.9375 19.1875 60.949219 21.625 57.949219 24.625 L 45.449219 37.121094 L 57.957031 37.121094 L 57.957031 44.8125 L 34.570312 44.8125 C 30.328125 44.8125 29.324219 42.375 32.320312 39.375 L 44.820312 26.878906 Z M 32.335938 26.878906 "/>
</g>
</svg>
