<svg xmlns="http://www.w3.org/2000/svg" xmlns:xlink="http://www.w3.org/1999/xlink" width="64px" height="64px" viewBox="0 0 64 64" version="1.1">
<defs>
<linearGradient id="linear0" gradientUnits="userSpaceOnUse" x1="0" y1="0" x2="0" y2="1" gradientTransform="matrix(55.351351,0,0,53.288287,4.324324,5.355856)">
<stop offset="0" style="stop-color:#00a2ff;stop-opacity:1;"/>
<stop offset="0.5" style="stop-color:#dddddd;stop-opacity:1;"/>
<stop offset="1" style="stop-color:#00ffae;stop-opacity:1;"/>
</linearGradient>
</defs>
<g id="surface1">
<path style=" stroke:none;fill-rule:nonzero;fill:url(#linear0);" d="M 18.691406 5.355469 C 18.136719 5.355469 17.632812 5.769531 17.511719 6.3125 C 17.394531 6.863281 17.703125 7.417969 18.214844 7.644531 C 18.261719 7.664062 22.78125 9.699219 28.042969 15.21875 C 30.40625 17.699219 32.890625 20.976562 31.226562 22.613281 C 31.1875 22.652344 30.988281 22.882812 30.261719 23.613281 C 30.191406 23.679688 30.171875 23.730469 30.113281 23.792969 L 30.078125 23.835938 L 39.132812 32.886719 L 39.984375 32.070312 C 40 32.054688 40.003906 32.015625 40.015625 32 L 41.347656 30.664062 L 43.011719 32.335938 C 43.488281 32.8125 43.378906 34 43.234375 34.289062 C 42.789062 35.175781 42.875 36.109375 43.457031 36.691406 L 47.558594 40.792969 C 48.199219 41.433594 49.042969 41.757812 49.886719 41.757812 C 50.726562 41.757812 51.539062 41.433594 52.175781 40.792969 L 58.714844 34.289062 C 59.996094 33.011719 59.996094 30.914062 58.714844 29.636719 L 54.613281 25.53125 C 54.015625 24.9375 53.121094 24.8125 52.363281 25.199219 C 52.003906 25.378906 50.738281 25.5 50.289062 25.054688 L 48.589844 23.351562 C 48.984375 22.800781 49.1875 22.136719 49.1875 21.460938 C 49.1875 20.59375 48.839844 19.753906 48.21875 19.136719 L 43.789062 14.703125 C 43.765625 14.679688 43.6875 14.632812 43.636719 14.589844 L 42.710938 13.664062 C 40.785156 11.738281 39 9.914062 38.539062 9.460938 C 34.621094 5.539062 20.3125 5.363281 18.691406 5.355469 Z M 28.414062 25.488281 L 5.285156 48.632812 C 4.003906 49.90625 4.003906 51.972656 5.285156 53.246094 L 9.714844 57.6875 C 10.355469 58.324219 11.203125 58.644531 12.039062 58.644531 C 12.882812 58.644531 13.699219 58.324219 14.335938 57.6875 L 37.46875 34.585938 Z M 28.414062 25.488281 "/>
</g>
</svg>
