<svg xmlns="http://www.w3.org/2000/svg" xmlns:xlink="http://www.w3.org/1999/xlink" width="64px" height="64px" viewBox="0 0 64 64" version="1.1">
<defs>
<linearGradient id="linear0" gradientUnits="userSpaceOnUse" x1="0" y1="0" x2="0" y2="1" gradientTransform="matrix(55.351351,0,0,55.351351,4.324324,4.324324)">
<stop offset="0" style="stop-color:#00b7ff;stop-opacity:1;"/>
<stop offset="0.5" style="stop-color:#dddddd;stop-opacity:1;"/>
<stop offset="1" style="stop-color:#ee42d9;stop-opacity:1;"/>
</linearGradient>
</defs>
<g id="surface1">
<path style=" stroke:none;fill-rule:evenodd;fill:url(#linear0);" d="M 27.445312 23.226562 L 27.691406 23.011719 L 28.265625 21.71875 L 29.097656 21.089844 L 29.960938 20.96875 L 30.703125 20.636719 L 31.289062 20.226562 L 32.6875 20.53125 L 33.320312 19.878906 L 34.40625 20.003906 L 34.71875 19.8125 L 35.3125 20.144531 L 34.839844 20.679688 L 34.675781 21.472656 L 37.300781 21.894531 L 37.539062 22.289062 L 37.875 22.148438 L 37.71875 21.421875 L 38.179688 21.144531 L 39.652344 21.421875 L 39.902344 21.207031 L 41.800781 21.886719 L 42.539062 21.957031 L 42.503906 21.011719 L 42.214844 20.1875 L 40.996094 20.132812 L 39.582031 20.289062 L 38.136719 20.175781 L 37.691406 19.378906 L 39.335938 18.230469 L 40.570312 18.242188 L 42 18.109375 L 42.113281 17.691406 L 41.238281 17.394531 L 41.027344 16.796875 L 39.851562 16.839844 L 38.960938 16.496094 L 38.269531 16.917969 L 38.730469 17.171875 L 38.710938 17.636719 L 38.238281 18.410156 L 37.355469 18.554688 L 37.011719 18.335938 L 36.738281 17.769531 L 35.78125 17.808594 L 35.210938 17.472656 L 34.664062 17.078125 L 34.402344 17.421875 L 34.945312 17.914062 L 35.765625 18.710938 L 36.390625 18.785156 L 36.875 19.113281 L 36.050781 19.488281 L 35.835938 19.679688 L 35.496094 19.152344 L 34.933594 18.824219 L 34.164062 18.136719 C 34.164062 18.136719 33.261719 17.652344 33.320312 17.496094 C 33.375 17.335938 32.660156 17.984375 32.660156 17.984375 L 31.765625 18.097656 L 31.113281 18.707031 L 30.679688 19.847656 L 29.785156 20.460938 L 29.589844 20.300781 L 29.039062 20.421875 L 28.679688 20.644531 L 27.882812 20.390625 L 28.085938 19.539062 C 28.085938 19.539062 28.164062 18.726562 28.414062 18.457031 C 28.539062 18.300781 28.707031 18.199219 28.890625 18.164062 C 28.890625 18.164062 29.753906 18.105469 30.148438 17.796875 L 29.941406 17.648438 L 30.039062 17.066406 L 29.6875 17.226562 L 29.632812 16.828125 L 30.132812 16.527344 L 30.578125 16.605469 L 30.664062 16.273438 L 31.09375 15.886719 C 31.09375 15.886719 31.351562 16.191406 31.429688 16.082031 C 31.503906 15.976562 31.648438 16.039062 31.648438 16.039062 L 31.960938 15.847656 L 32.253906 15.796875 L 32.269531 14.441406 L 33.296875 14.488281 L 32.738281 13.550781 L 32.273438 13.828125 L 31.648438 13.265625 L 31.890625 12.292969 L 34.410156 11.039062 C 35.054688 11.296875 36.382812 11.152344 37.460938 10.988281 C 37.472656 10.988281 37.484375 10.988281 37.496094 10.988281 C 37.539062 11 37.589844 11.011719 37.636719 11.027344 C 38.335938 11.210938 39.011719 11.433594 39.664062 11.703125 C 40.382812 11.949219 41.070312 12.253906 41.742188 12.582031 C 42.308594 12.867188 42.855469 13.175781 43.375 13.527344 C 43.890625 13.8125 44.382812 14.144531 44.839844 14.515625 C 45.335938 14.847656 45.800781 15.21875 46.257812 15.605469 C 47.023438 16.28125 47.746094 17.003906 48.421875 17.773438 C 48.796875 18.214844 49.152344 18.664062 49.46875 19.136719 C 49.863281 19.625 50.214844 20.148438 50.523438 20.691406 C 51.644531 22.488281 52.496094 24.460938 53.039062 26.570312 L 52.386719 25.117188 L 51.835938 25.207031 L 51.132812 24.253906 L 50.320312 23.363281 L 49.066406 22.960938 L 48.234375 22.734375 L 47.5 22.570312 L 46.960938 21.957031 L 46.1875 21.203125 L 45.902344 21.726562 C 45.988281 22.03125 46.089844 22.335938 46.207031 22.636719 C 46.417969 23.175781 46.617188 22.847656 46.617188 22.847656 L 47.175781 23.238281 L 47.613281 23.910156 L 47.839844 23.382812 L 48.011719 23.28125 L 48.976562 23.761719 L 49.636719 24.117188 L 49.855469 24.863281 L 49.113281 28.273438 L 48.542969 28.621094 L 48.339844 29.144531 L 46.996094 28.496094 L 46.132812 27.59375 L 45.621094 26.769531 L 45.011719 25.488281 L 44.324219 24.90625 L 43.6875 23.132812 L 43.070312 23.320312 L 43.800781 24.957031 L 44.230469 25.730469 L 44.363281 26.234375 L 45 27.339844 L 45.589844 27.921875 C 45.589844 27.921875 46.171875 28.585938 46.636719 28.632812 C 47.097656 28.675781 46.988281 29.085938 46.988281 29.085938 L 47.5625 30.042969 L 47.5 29.8125 L 48.46875 30.011719 L 48.558594 29.566406 L 49.164062 29.472656 L 49.148438 30.085938 L 49.097656 31.617188 L 48.238281 33.664062 L 47.664062 34.496094 L 46.996094 34.960938 L 46.863281 36.539062 C 46.957031 36.945312 47.066406 37.347656 47.191406 37.742188 C 47.292969 38.03125 47.375 38.328125 47.433594 38.632812 L 46.503906 41.542969 L 46.003906 41.847656 L 45.664062 42.789062 L 44.882812 43.414062 L 44.746094 44.097656 L 45.246094 45.414062 L 44.558594 45.957031 L 43.707031 47.566406 L 43.011719 48.726562 L 41.484375 49.039062 L 40.59375 49.578125 L 40.148438 50.253906 L 39.488281 50.40625 L 39.386719 49.796875 L 39.039062 48.96875 L 39.210938 47.800781 L 38.734375 46.324219 L 37.699219 44.9375 L 37.136719 41.285156 C 37.136719 41.285156 37.554688 40.417969 37.617188 40.265625 C 37.613281 40.207031 37.613281 40.160156 37.605469 40.105469 C 36.023438 41.238281 34.085938 41.882812 32 41.882812 C 26.542969 41.882812 22.117188 37.457031 22.117188 32 C 22.117188 28.1875 24.28125 24.878906 27.445312 23.226562 Z M 13.570312 20.554688 C 13.1875 21.082031 12.863281 21.652344 12.585938 22.246094 C 11.085938 25.175781 10.253906 28.488281 10.253906 32 C 10.253906 32.855469 10.308594 33.707031 10.390625 34.539062 C 10.460938 35.011719 10.527344 35.488281 10.679688 35.929688 C 10.800781 36.96875 11.058594 37.957031 11.382812 38.910156 C 11.523438 39.347656 11.6875 39.773438 11.914062 40.164062 C 12.234375 41.117188 12.664062 42.011719 13.175781 42.855469 C 13.421875 43.3125 13.699219 43.757812 14.042969 44.144531 C 14.515625 44.9375 15.082031 45.664062 15.699219 46.351562 C 16.308594 47.054688 16.96875 47.714844 17.675781 48.335938 L 17.839844 47.164062 L 18.558594 47 L 18.648438 46.488281 L 18.636719 42 L 19.46875 41.230469 L 19.605469 40.527344 L 19.3125 40.082031 L 18.191406 39.21875 L 17.109375 39.160156 L 16.46875 37.835938 L 14.976562 37.835938 L 14.1875 36.078125 L 14.179688 35.363281 L 13.6875 35.039062 L 12.789062 35.039062 L 12.257812 34.367188 L 11.730469 32.960938 L 10.4375 32.300781 L 10.273438 32.515625 C 10.289062 33.199219 10.335938 33.867188 10.390625 34.539062 C 10.472656 35.003906 10.542969 35.484375 10.679688 35.929688 C 10.820312 36.949219 11.070312 37.941406 11.382812 38.910156 C 11.539062 39.335938 11.699219 39.761719 11.914062 40.164062 C 12.246094 41.105469 12.679688 41.996094 13.175781 42.855469 C 13.4375 43.300781 13.710938 43.742188 13.570312 20.554688 Z M 31.660156 10.265625 C 30.5625 10.28125 29.472656 10.382812 28.390625 10.5625 L 31.4375 10.402344 Z M 28.390625 10.5625 C 26.1875 10.933594 24.058594 11.636719 22.070312 12.664062 L 22.066406 13.203125 L 22.46875 14.21875 L 23.1875 14.0625 L 23 13.351562 L 23.152344 12.796875 L 25.773438 12.59375 L 26.5625 12.5625 L 28.160156 11.394531 Z M 29.664062 13.730469 L 29.21875 13.828125 L 29.757812 14.746094 L 29.539062 15.769531 L 29.597656 16.386719 L 31.097656 15.375 L 30.578125 14.792969 L 30.144531 14.410156 Z M 19.707031 14.09375 C 19.335938 14.347656 18.976562 14.609375 18.621094 14.878906 C 18.082031 15.3125 17.554688 15.765625 17.082031 16.269531 C 16.605469 16.664062 16.171875 17.113281 15.769531 17.578125 C 15.335938 18.050781 14.933594 18.550781 14.566406 19.082031 C 14.191406 19.539062 13.863281 20.03125 13.570312 20.554688 C 13.203125 21.09375 12.882812 21.664062 12.585938 22.246094 C 12.308594 22.808594 12.042969 23.382812 11.8125 23.96875 L 12.03125 23.773438 L 13.199219 23.339844 L 13.296875 22.910156 L 13.253906 22.496094 L 13.300781 22.089844 L 13.441406 21.554688 L 13.71875 21.308594 L 13.976562 21.152344 L 14.105469 20.90625 C 14.285156 20.59375 14.496094 20.308594 14.730469 20.042969 L 16.742188 18.582031 L 16.933594 17.652344 C 16.933594 17.652344 17.910156 17.054688 18.011719 17.265625 C 18.113281 17.476562 18.410156 17.335938 18.445312 17.792969 C 18.484375 18.246094 18.820312 16.605469 18.820312 16.605469 L 18.8125 15.066406 L 19.703125 14.429688 Z M 49.484375 39.5 L 48.960938 40.886719 L 47.957031 41.59375 L 47.621094 42.417969 L 47.691406 43.09375 L 47.382812 44.085938 L 47.394531 44.070312 C 47.460938 44.21875 46.996094 44.511719 46.9375 44.550781 C 46.96875 44.566406 47.011719 44.597656 47.136719 44.703125 L 46.996094 45.410156 L 47.292969 46.023438 L 48.457031 45.136719 L 49.003906 42.589844 L 49.296875 41.238281 L 49.707031 40.890625 L 49.960938 39.945312 Z M 46.9375 44.550781 C 46.90625 44.53125 46.902344 44.523438 46.878906 44.484375 L 46.917969 44.5625 C 46.917969 44.5625 46.933594 44.550781 46.9375 44.550781 Z M 14.566406 19.082031 C 14.917969 18.539062 15.320312 18.039062 15.769531 17.578125 C 16.160156 17.09375 16.589844 16.648438 17.082031 16.269531 C 17.542969 15.746094 18.066406 15.292969 18.621094 14.878906 C 22.308594 11.976562 26.949219 10.253906 32 10.253906 C 33.890625 10.253906 35.726562 10.496094 37.460938 10.988281 C 37.53125 10.96875 37.589844 10.984375 37.636719 11.027344 C 38.347656 11.1875 39.027344 11.402344 39.664062 11.703125 C 40.394531 11.921875 41.085938 12.226562 41.742188 12.582031 C 42.320312 12.847656 42.867188 13.160156 43.375 13.527344 C 43.90625 13.796875 44.402344 14.132812 44.839844 14.515625 C 45.351562 14.828125 45.8125 15.203125 46.257812 15.605469 C 47.039062 16.265625 47.765625 16.988281 48.421875 17.773438 C 48.8125 18.199219 49.171875 18.648438 49.46875 19.136719 C 49.882812 19.617188 50.230469 20.136719 50.523438 20.691406 C 52.582031 23.96875 53.746094 27.847656 53.746094 32 C 53.746094 44 44 53.746094 32 53.746094 C 25.503906 53.746094 19.671875 50.890625 15.699219 46.351562 C 15.078125 45.679688 14.511719 44.949219 14.566406 19.082031 Z M 31.785156 4.324219 L 31.785156 4.335938 C 16.554688 4.445312 4.324219 16.738281 4.324219 32 C 4.324219 47.335938 16.664062 59.675781 32 59.675781 C 46.78125 59.675781 58.773438 48.203125 59.621094 33.648438 L 59.675781 33.597656 L 59.675781 9.863281 C 59.675781 6.792969 57.207031 4.324219 54.136719 4.324219 Z M 31.785156 4.324219 "/>
</g>
</svg>
