<svg xmlns="http://www.w3.org/2000/svg" xmlns:xlink="http://www.w3.org/1999/xlink" width="64px" height="64px" viewBox="0 0 64 64" version="1.1">
<defs>
<linearGradient id="linear0" gradientUnits="userSpaceOnUse" x1="0" y1="0" x2="0" y2="1" gradientTransform="matrix(44.972973,0,0,55.351351,9.513514,4.324324)">
<stop offset="0" style="stop-color:#ffae00;stop-opacity:1;"/>
<stop offset="0.5" style="stop-color:#dddddd;stop-opacity:1;"/>
<stop offset="1" style="stop-color:#bf1d1d;stop-opacity:1;"/>
</linearGradient>
</defs>
<g id="surface1">
<path style=" stroke:none;fill-rule:nonzero;fill:url(#linear0);" d="M 23.328125 4.324219 C 18.976562 4.375 15.792969 4.214844 13.1875 5.652344 C 11.886719 6.375 10.863281 7.589844 10.292969 9.109375 C 9.71875 10.625 9.511719 12.429688 9.511719 14.703125 L 9.511719 49.296875 C 9.511719 51.570312 9.71875 53.375 10.292969 54.890625 C 10.863281 56.410156 11.886719 57.625 13.1875 58.339844 C 15.792969 59.78125 18.976562 59.625 23.328125 59.675781 L 40.664062 59.675781 C 45.023438 59.625 48.207031 59.785156 50.8125 58.339844 C 52.113281 57.625 53.136719 56.410156 53.710938 54.890625 C 54.28125 53.375 54.488281 51.570312 54.488281 49.296875 L 54.488281 14.703125 C 54.488281 12.429688 54.28125 10.625 53.710938 9.109375 C 53.136719 7.589844 52.113281 6.375 50.8125 5.652344 C 48.207031 4.21875 45.023438 4.375 40.664062 4.324219 Z M 23.351562 7.785156 L 40.648438 7.785156 C 45.003906 7.835938 47.867188 7.988281 49.136719 8.6875 C 49.769531 9.039062 50.136719 9.421875 50.472656 10.324219 C 50.8125 11.226562 51.027344 12.652344 51.027344 14.703125 L 51.027344 49.296875 C 51.027344 51.347656 50.8125 52.773438 50.472656 53.675781 C 50.136719 54.578125 49.769531 54.960938 49.136719 55.3125 C 47.867188 56.011719 45.003906 56.164062 40.648438 56.214844 L 23.351562 56.214844 C 18.996094 56.164062 16.125 56.011719 14.863281 55.3125 C 14.226562 54.960938 13.863281 54.578125 13.527344 53.675781 C 13.1875 52.773438 12.972656 51.347656 12.972656 49.296875 L 12.972656 14.703125 C 12.972656 12.652344 13.1875 11.226562 13.527344 10.324219 C 13.863281 9.421875 14.226562 9.039062 14.863281 8.6875 C 16.125 7.988281 18.996094 7.835938 23.351562 7.785156 Z M 33.023438 21.664062 C 29.363281 21.421875 25.621094 22.460938 22.527344 24.835938 C 16.335938 29.585938 14.613281 38.214844 18.511719 44.972656 C 22.414062 51.730469 30.753906 54.558594 37.960938 51.570312 C 45.164062 48.589844 49.066406 40.6875 47.042969 33.160156 L 46.59375 31.488281 L 43.246094 32.382812 L 43.703125 34.054688 C 45.28125 39.9375 42.261719 46.039062 36.636719 48.375 C 31.011719 50.703125 24.558594 48.515625 21.511719 43.242188 C 18.46875 37.96875 19.796875 31.289062 24.625 27.582031 C 28.988281 24.234375 34.941406 24.308594 39.230469 27.511719 L 37 29.742188 L 39.445312 32.1875 L 41.785156 29.851562 L 41.789062 29.851562 L 43.011719 28.621094 L 44.234375 27.40625 L 43.011719 26.1875 C 40.257812 23.421875 36.679688 21.902344 33.023438 21.664062 Z M 32 32 C 29.136719 32 26.8125 34.324219 26.8125 37.1875 C 26.8125 40.054688 29.136719 42.378906 32 42.378906 C 34.863281 42.378906 37.1875 40.054688 37.1875 37.1875 C 37.1875 34.324219 34.863281 32 32 32 Z M 31.960938 35.460938 C 31.972656 35.460938 31.988281 35.460938 32 35.460938 C 32.957031 35.460938 33.730469 36.234375 33.730469 37.1875 C 33.730469 38.144531 32.957031 38.917969 32 38.917969 C 31.042969 38.917969 30.269531 38.144531 30.269531 37.1875 C 30.269531 36.246094 31.015625 35.484375 31.960938 35.460938 Z M 31.960938 35.460938 "/>
</g>
</svg>
