<svg xmlns="http://www.w3.org/2000/svg" xmlns:xlink="http://www.w3.org/1999/xlink" width="64px" height="64px" viewBox="0 0 64 64" version="1.1">
<defs>
<linearGradient id="linear0" gradientUnits="userSpaceOnUse" x1="0" y1="0" x2="0" y2="1" gradientTransform="matrix(55.351351,0,0,55.351351,4.324324,4.324324)">
<stop offset="0" style="stop-color:#00fff2;stop-opacity:1;"/>
<stop offset="0.5" style="stop-color:#dddddd;stop-opacity:1;"/>
<stop offset="1" style="stop-color:#0062ff;stop-opacity:1;"/>
</linearGradient>
</defs>
<g id="surface1">
<path style=" stroke:none;fill-rule:evenodd;fill:url(#linear0);" d="M 53.210938 10.1875 L 51.746094 18.792969 L 55.671875 18.792969 C 56.648438 18.792969 57.355469 18.828125 57.789062 18.90625 C 58.226562 18.984375 58.648438 19.246094 59.058594 19.707031 C 59.46875 20.164062 59.675781 20.835938 59.675781 21.71875 C 59.675781 22.609375 59.585938 23.570312 59.40625 24.613281 C 59.226562 25.652344 58.828125 26.554688 58.210938 27.320312 C 57.59375 28.082031 57.003906 28.511719 56.441406 28.613281 C 55.878906 28.714844 55.03125 28.765625 53.902344 28.765625 L 50.050781 28.765625 L 48.664062 37.136719 L 52.59375 37.136719 C 53.566406 37.136719 54.273438 37.179688 54.710938 37.257812 C 55.148438 37.328125 55.570312 37.597656 55.984375 38.054688 C 56.390625 38.511719 56.59375 39.1875 56.59375 40.070312 C 56.59375 40.960938 56.515625 41.835938 56.363281 42.699219 C 56.210938 43.558594 55.96875 44.347656 55.636719 45.054688 C 55.300781 45.769531 54.851562 46.28125 54.285156 46.582031 C 53.460938 46.988281 52.3125 47.1875 50.824219 47.1875 L 46.972656 47.1875 C 46.460938 50.335938 46.152344 52.289062 46.050781 53.050781 L 45.894531 53.886719 C 45.6875 55.003906 45.523438 55.792969 45.394531 56.253906 C 45.265625 56.707031 44.996094 57.265625 44.585938 57.921875 C 43.765625 59.089844 41.863281 59.675781 38.890625 59.675781 C 35.914062 59.675781 34.421875 58.738281 34.421875 56.863281 C 34.421875 56.8125 34.632812 55.488281 35.039062 52.894531 L 35.960938 47.1875 L 24.488281 47.1875 C 23.984375 50.335938 23.671875 52.289062 23.566406 53.050781 L 23.417969 53.886719 C 23.210938 55.003906 23.042969 55.792969 22.914062 56.253906 C 22.789062 56.707031 22.515625 57.265625 22.109375 57.921875 C 21.289062 59.089844 19.386719 59.675781 16.410156 59.675781 C 13.433594 59.675781 11.945312 58.738281 11.945312 56.863281 C 11.945312 56.8125 12.148438 55.488281 12.5625 52.894531 L 13.488281 47.1875 L 8.402344 47.1875 C 6.246094 47.1875 4.96875 46.734375 4.554688 45.8125 C 4.402344 45.410156 4.324219 44.8125 4.324219 44.027344 C 4.324219 43.242188 4.414062 42.328125 4.59375 41.289062 C 4.773438 40.246094 5.1875 39.347656 5.824219 38.585938 C 6.46875 37.824219 7.070312 37.394531 7.636719 37.292969 C 8.199219 37.191406 9.042969 37.136719 10.175781 37.136719 L 15.179688 37.136719 L 16.5625 28.765625 L 11.488281 28.765625 C 9.28125 28.765625 7.996094 28.335938 7.636719 27.472656 C 7.484375 27.011719 7.40625 26.402344 7.40625 25.636719 C 7.40625 24.878906 7.488281 23.984375 7.671875 22.941406 C 7.851562 21.902344 8.261719 21 8.90625 20.238281 C 9.542969 19.476562 10.148438 19.042969 10.710938 18.945312 C 11.28125 18.839844 12.125 18.792969 13.253906 18.792969 L 18.261719 18.792969 L 19.566406 10.949219 C 19.617188 10.644531 19.679688 10.148438 19.761719 9.460938 C 19.835938 8.78125 19.914062 8.292969 19.988281 8.011719 C 20.066406 7.738281 20.1875 7.339844 20.335938 6.835938 C 20.488281 6.328125 20.707031 5.972656 20.988281 5.769531 C 21.273438 5.566406 21.644531 5.3125 22.109375 5.011719 C 22.828125 4.554688 24.136719 4.324219 26.03125 4.324219 C 27.933594 4.324219 29.253906 4.589844 29.996094 5.121094 C 30.742188 5.660156 31.113281 6.457031 31.113281 7.523438 C 31.113281 7.671875 30.988281 8.5625 30.730469 10.1875 L 29.265625 18.792969 L 40.738281 18.792969 L 42.042969 10.949219 C 42.097656 10.644531 42.164062 10.148438 42.238281 9.460938 C 42.3125 8.78125 42.390625 8.292969 42.46875 8.011719 C 42.542969 7.738281 42.664062 7.339844 42.820312 6.835938 C 42.96875 6.328125 43.1875 5.972656 43.472656 5.769531 C 43.753906 5.566406 44.125 5.3125 44.585938 5.011719 C 45.308594 4.554688 46.613281 4.324219 48.511719 4.324219 C 50.414062 4.324219 51.734375 4.589844 52.476562 5.121094 C 53.21875 5.660156 53.59375 6.457031 53.59375 7.523438 C 53.59375 7.671875 53.460938 8.5625 53.210938 10.1875 Z M 26.1875 37.136719 L 37.660156 37.136719 L 39.042969 28.765625 L 27.652344 28.765625 Z M 26.1875 37.136719 "/>
</g>
</svg>
