<svg xmlns="http://www.w3.org/2000/svg" xmlns:xlink="http://www.w3.org/1999/xlink" width="64px" height="64px" viewBox="0 0 64 64" version="1.1">
<defs>
<linearGradient id="linear0" gradientUnits="userSpaceOnUse" x1="0" y1="0" x2="0" y2="1" gradientTransform="matrix(55.351351,0,0,55.351351,4.324324,4.324324)">
<stop offset="0" style="stop-color:#ff8963;stop-opacity:1;"/>
<stop offset="0.5" style="stop-color:#dddddd;stop-opacity:1;"/>
<stop offset="1" style="stop-color:#0F6FFF;stop-opacity:1;"/>
</linearGradient>
</defs>
<g id="surface1">
<path style=" stroke:none;fill-rule:nonzero;fill:url(#linear0);" d="M 32 4.324219 C 16.691406 4.324219 4.324219 16.691406 4.324219 32 C 4.324219 47.308594 16.691406 59.675781 32 59.675781 C 47.308594 59.675781 59.675781 47.308594 59.675781 32 C 59.675781 16.691406 47.308594 4.324219 32 4.324219 Z M 32 7.785156 C 45.386719 7.785156 56.214844 18.613281 56.214844 32 C 56.214844 45.386719 45.386719 56.214844 32 56.214844 C 18.613281 56.214844 7.785156 45.386719 7.785156 32 C 7.785156 18.613281 18.613281 7.785156 32 7.785156 Z M 32.214844 14.703125 C 27.886719 14.621094 23.347656 16.328125 21.941406 19.675781 C 21.136719 21.539062 21.921875 24.863281 24.648438 24.863281 C 26.238281 24.863281 26.910156 23.773438 27.027344 22.8125 C 27.117188 22.078125 26.878906 21.46875 26.703125 20.863281 C 26.503906 20.175781 27.300781 18.8125 28.214844 18.269531 C 28.984375 17.8125 29.828125 17.648438 29.945312 17.621094 C 32.691406 16.945312 35.394531 18.503906 36.539062 20.324219 C 37.6875 22.144531 36.40625 24.878906 34.59375 27.566406 C 32.785156 30.253906 30.910156 33.300781 30.917969 36.539062 C 30.917969 37.773438 30.734375 38.203125 30.8125 38.703125 C 30.875 39.105469 32.203125 39.105469 33.1875 38.917969 C 33.105469 35.78125 33.757812 32.644531 36.648438 30.488281 C 39.703125 28.042969 42.6875 25.003906 42.378906 21.40625 C 42.3125 17.933594 38.300781 15.203125 34.054688 14.8125 C 33.445312 14.738281 32.835938 14.703125 32.214844 14.703125 Z M 31.027344 43.136719 C 28.941406 43.648438 27.699219 46.296875 29.082031 48 C 30.488281 50.148438 34.457031 49.566406 35.136719 47.136719 C 35.835938 45.242188 34.070312 43.105469 31.890625 43.136719 C 31.5625 43.117188 31.324219 43.0625 31.027344 43.136719 Z M 31.027344 43.136719 "/>
</g>
</svg>
