<svg xmlns="http://www.w3.org/2000/svg" xmlns:xlink="http://www.w3.org/1999/xlink" width="64px" height="64px" viewBox="0 0 64 64" version="1.1">
<defs>
<linearGradient id="linear0" gradientUnits="userSpaceOnUse" x1="0" y1="0" x2="0" y2="1" gradientTransform="matrix(55.351351,0,0,30.441443,4.324324,16.77928)">
<stop offset="0" style="stop-color:#ffae00;stop-opacity:1;"/>
<stop offset="0.5" style="stop-color:#dddddd;stop-opacity:1;"/>
<stop offset="1" style="stop-color:#bf1d1d;stop-opacity:1;"/>
</linearGradient>
</defs>
<g id="surface1">
<path style=" stroke:none;fill-rule:nonzero;fill:url(#linear0);" d="M 4.324219 16.78125 L 4.324219 44.457031 L 9.863281 44.457031 L 9.863281 29.234375 L 12.625 29.234375 L 12.625 38.917969 L 18.164062 38.917969 L 18.164062 16.78125 L 12.625 16.78125 L 12.625 23.699219 L 9.863281 23.699219 L 9.863281 16.78125 Z M 32 16.78125 C 29.0625 16.78125 26.246094 17.945312 24.171875 20.015625 C 22.09375 22.09375 20.929688 24.910156 20.929688 27.847656 C 20.929688 30.785156 22.09375 33.605469 24.171875 35.675781 C 26.246094 37.753906 29.0625 38.917969 32 38.917969 C 34.9375 38.917969 37.753906 37.753906 39.828125 35.675781 C 41.90625 33.605469 43.070312 30.785156 43.070312 27.847656 C 43.070312 24.910156 41.90625 22.09375 39.828125 20.015625 C 37.753906 17.945312 34.9375 16.78125 32 16.78125 Z M 45.835938 16.78125 L 45.835938 38.917969 L 51.375 38.917969 L 51.375 27.027344 L 54.136719 31.824219 L 54.136719 44.457031 L 59.675781 44.457031 L 59.675781 16.78125 L 54.136719 16.78125 L 54.136719 21.457031 L 51.375 16.78125 Z M 32 22.3125 C 33.46875 22.3125 34.875 22.894531 35.914062 23.9375 C 36.949219 24.972656 37.539062 26.382812 37.539062 27.847656 C 37.539062 29.3125 36.949219 30.726562 35.914062 31.761719 C 34.875 32.796875 33.46875 33.382812 32 33.382812 C 30.53125 33.382812 29.125 32.796875 28.085938 31.761719 C 27.050781 30.726562 26.460938 29.3125 26.460938 27.847656 C 26.460938 26.382812 27.050781 24.972656 28.085938 23.9375 C 29.125 22.894531 30.53125 22.3125 32 22.3125 Z M 20.929688 41.6875 L 20.929688 47.21875 L 43.070312 47.21875 L 43.070312 41.6875 Z M 20.929688 41.6875 "/>
</g>
</svg>
