<svg xmlns="http://www.w3.org/2000/svg" xmlns:xlink="http://www.w3.org/1999/xlink" width="64px" height="64px" viewBox="0 0 64 64" version="1.1">
<defs>
<linearGradient id="linear0" gradientUnits="userSpaceOnUse" x1="0" y1="0" x2="0" y2="1" gradientTransform="matrix(51.891892,0,0,44.103605,6.054054,11.076577)">
<stop offset="0" style="stop-color:#ffae00;stop-opacity:1;"/>
<stop offset="0.5" style="stop-color:#dddddd;stop-opacity:1;"/>
<stop offset="1" style="stop-color:#bf1d1d;stop-opacity:1;"/>
</linearGradient>
</defs>
<g id="surface1">
<path style=" stroke:none;fill-rule:nonzero;fill:url(#linear0);" d="M 31.757812 11.085938 C 25.835938 11.136719 19.914062 11.488281 18.796875 12.113281 C 16.5625 13.351562 6.027344 30.917969 6.054688 33.363281 C 6.082031 35.800781 16.996094 53.164062 19.257812 54.363281 C 21.515625 55.5625 42.96875 55.390625 45.203125 54.148438 C 47.4375 52.90625 57.972656 35.339844 57.945312 32.902344 C 57.917969 30.460938 47.003906 13.066406 44.742188 11.867188 C 43.613281 11.269531 37.679688 11.03125 31.757812 11.085938 Z M 31.8125 15.460938 C 36.441406 15.417969 41.050781 15.625 41.9375 16.109375 C 41.988281 16.136719 42.058594 16.210938 42.125 16.269531 L 32.378906 27.152344 L 31.945312 27.609375 L 31.539062 27.152344 L 21.386719 16.511719 C 21.484375 16.421875 21.585938 16.335938 21.660156 16.296875 C 22.53125 15.796875 27.179688 15.503906 31.8125 15.460938 Z M 47.414062 23.636719 C 49.90625 27.664062 52.265625 31.984375 52.273438 33.011719 C 52.289062 34.125 49.625 39.132812 47.011719 43.460938 L 37.429688 34.902344 L 36.96875 34.496094 L 37.402344 34.089844 Z M 16.5 23.664062 L 25.867188 34.089844 L 26.246094 34.496094 L 25.839844 34.867188 L 16.960938 43.429688 C 14.328125 39.226562 11.734375 34.472656 11.726562 33.386719 C 11.710938 32.335938 14.042969 27.8125 16.503906 23.664062 Z M 31.945312 39.027344 L 32.324219 39.40625 L 42.988281 49.421875 C 42.710938 49.738281 42.484375 49.972656 42.3125 50.070312 C 40.566406 51.070312 23.808594 51.28125 22.039062 50.3125 C 21.835938 50.210938 21.515625 49.902344 21.171875 49.503906 L 31.539062 39.410156 Z M 31.945312 39.027344 "/>
</g>
</svg>
