<svg xmlns="http://www.w3.org/2000/svg" xmlns:xlink="http://www.w3.org/1999/xlink" width="64px" height="64px" viewBox="0 0 64 64" version="1.1">
<defs>
<linearGradient id="linear0" gradientUnits="userSpaceOnUse" x1="0" y1="0" x2="0" y2="1" gradientTransform="matrix(55.351351,0,0,55.355858,4.324324,4.324324)">
<stop offset="0" style="stop-color:#05f7ff;stop-opacity:1;"/>
<stop offset="0.5" style="stop-color:#dddddd;stop-opacity:1;"/>
<stop offset="1" style="stop-color:#e6ff05;stop-opacity:1;"/>
</linearGradient>
</defs>
<g id="surface1">
<path style=" stroke:none;fill-rule:evenodd;fill:url(#linear0);" d="M 32 10.472656 C 43.875 10.472656 53.523438 19.8125 53.523438 30.660156 C 53.515625 35.324219 51.417969 39.835938 47.726562 43.636719 C 46.570312 44.8125 45.941406 46.410156 45.976562 48.058594 C 46.015625 49.863281 46.710938 51.53125 47.410156 53.089844 C 45.429688 52.632812 43.511719 51.828125 41.636719 50.597656 C 40.253906 49.6875 38.554688 49.367188 36.9375 49.726562 C 34.976562 50.164062 33.339844 50.441406 32 50.449219 C 20.011719 50.449219 10.476562 41.515625 10.476562 30.664062 C 10.476562 19.8125 20.121094 10.472656 32 10.472656 Z M 32 4.324219 C 16.886719 4.324219 4.324219 16.242188 4.324219 30.664062 C 4.324219 45.085938 16.886719 56.597656 32 56.597656 L 32.011719 56.597656 C 34.125 56.59375 36.203125 56.1875 38.265625 55.730469 C 42.511719 58.527344 47.703125 60.441406 53.589844 59.382812 C 56.292969 58.886719 57.375 56.214844 55.488281 54.21875 C 53.472656 52.089844 52.1875 50.765625 52.125 47.921875 C 56.730469 43.199219 59.664062 37.175781 59.675781 30.664062 C 59.675781 16.242188 47.113281 4.324219 32 4.324219 Z M 39.621094 35.484375 C 40.3125 35.050781 41.164062 34.929688 41.941406 35.113281 C 42.742188 35.296875 43.417969 35.808594 43.847656 36.496094 C 44.28125 37.1875 44.402344 38.03125 44.21875 38.820312 C 44.015625 39.617188 43.527344 40.292969 42.820312 40.726562 C 41.742188 41.386719 40.621094 41.96875 39.449219 42.460938 C 38.363281 42.9375 37.238281 43.335938 36.085938 43.664062 C 34.765625 44.027344 33.378906 44.230469 31.996094 44.246094 C 30.613281 44.230469 29.242188 44.027344 27.90625 43.664062 C 26.769531 43.335938 25.644531 42.9375 24.554688 42.460938 C 23.386719 41.96875 22.261719 41.386719 21.171875 40.726562 C 20.484375 40.292969 19.972656 39.617188 19.789062 38.820312 C 19.585938 38.03125 19.726562 37.1875 20.152344 36.496094 C 20.570312 35.808594 21.261719 35.296875 22.042969 35.113281 C 22.847656 34.929688 23.675781 35.050781 24.386719 35.484375 C 25.214844 35.988281 26.089844 36.4375 26.996094 36.820312 C 27.828125 37.1875 28.6875 37.496094 29.582031 37.742188 C 30.367188 37.957031 31.179688 38.078125 31.996094 38.09375 C 32.828125 38.078125 33.636719 37.957031 34.421875 37.742188 C 35.300781 37.496094 36.179688 37.1875 37.011719 36.820312 C 37.914062 36.4375 38.792969 35.988281 39.621094 35.484375 Z M 39.621094 35.484375 "/>
</g>
</svg>
