<svg xmlns="http://www.w3.org/2000/svg" xmlns:xlink="http://www.w3.org/1999/xlink" width="64px" height="64px" viewBox="0 0 64 64" version="1.1">
<defs>
<linearGradient id="linear0" gradientUnits="userSpaceOnUse" x1="0" y1="0" x2="0" y2="1" gradientTransform="matrix(55.346848,0,0,45.189189,4.324324,9.405405)">
<stop offset="0" style="stop-color:#00fff2;stop-opacity:1;"/>
<stop offset="0.5" style="stop-color:#dddddd;stop-opacity:1;"/>
<stop offset="1" style="stop-color:#0062ff;stop-opacity:1;"/>
</linearGradient>
</defs>
<g id="surface1">
<path style=" stroke:none;fill-rule:nonzero;fill:url(#linear0);" d="M 32.542969 9.441406 C 27.070312 10.011719 23.164062 10.339844 17.566406 10.386719 C 13.234375 10.363281 9.234375 9.820312 4.9375 9.511719 C 3.902344 9.511719 4.320312 9.890625 5.152344 10.789062 C 5.824219 11.503906 6.988281 11.664062 6.988281 12.042969 C 6.988281 12.429688 7.1875 14.472656 7.726562 15.03125 C 8.355469 15.699219 9.3125 15.960938 10.839844 15.730469 C 11.800781 15.765625 11.8125 16.265625 11.8125 17.144531 C 11.8125 17.753906 12.152344 18.542969 12.5625 19.242188 C 13.570312 20.972656 15.070312 22.210938 16.734375 22.308594 C 17.636719 22.355469 18.863281 22.152344 19.8125 21.675781 C 20.730469 21.210938 21.578125 20.835938 21.691406 20.835938 C 21.808594 20.835938 22.015625 21.5625 22.152344 22.457031 C 22.691406 25.972656 24.769531 26.988281 27.863281 27.757812 C 29.285156 28.03125 30.839844 28.082031 31.945312 27.402344 C 31.542969 29.59375 31.132812 31.917969 30.488281 35.785156 C 29.949219 39.011719 29.414062 43.8125 29.308594 46.003906 C 29.132812 49.445312 29.203125 50.171875 29.847656 51.378906 C 30.796875 53.164062 33.175781 54.550781 35.214844 54.558594 L 36.792969 54.5625 L 36.613281 51.617188 C 36.289062 46.429688 38.589844 40.488281 42.1875 37.972656 C 45.417969 35.710938 46.113281 37.261719 44.917969 44.039062 C 43.847656 50.105469 43.988281 51.945312 45.652344 53.488281 C 47.070312 54.808594 49.132812 54.941406 52.1875 53.914062 C 55.339844 52.855469 60.226562 48.40625 59.621094 46.785156 C 59.3125 45.929688 58.9375 46.226562 57.042969 47.742188 C 54.835938 49.527344 53.328125 49.472656 52.460938 48.484375 C 51.835938 47.761719 51.855469 47.320312 52.839844 43.199219 C 53.5625 40.210938 54.210938 38.058594 54.226562 35.6875 C 54.238281 31.917969 53.746094 30.367188 50.171875 29.828125 C 47.441406 29.441406 43.386719 30.214844 40.136719 32.539062 C 39.136719 33.253906 38.238281 33.746094 38.136719 33.636719 C 38.03125 33.53125 38.5625 29.9375 39.3125 25.984375 C 40.0625 22.027344 40.679688 18.308594 40.679688 17.710938 C 40.679688 16.617188 39.164062 14.878906 34.710938 10.863281 C 33.996094 10.214844 33.542969 9.789062 32.976562 9.542969 C 32.902344 9.460938 32.839844 9.433594 32.796875 9.414062 C 32.734375 9.421875 32.675781 9.433594 32.621094 9.433594 C 32.59375 9.421875 32.5625 9.414062 32.539062 9.40625 C 32.539062 9.40625 32.539062 9.410156 32.542969 9.441406 Z M 32.542969 9.441406 "/>
</g>
</svg>
