<svg xmlns="http://www.w3.org/2000/svg" xmlns:xlink="http://www.w3.org/1999/xlink" width="64px" height="64px" viewBox="0 0 64 64" version="1.1">
<defs>
<linearGradient id="linear0" gradientUnits="userSpaceOnUse" x1="0" y1="0" x2="0" y2="1" gradientTransform="matrix(47.801801,0,0,55.351351,8.0991,4.324324)">
<stop offset="0" style="stop-color:#00a2ff;stop-opacity:1;"/>
<stop offset="0.5" style="stop-color:#dddddd;stop-opacity:1;"/>
<stop offset="1" style="stop-color:#00ffae;stop-opacity:1;"/>
</linearGradient>
</defs>
<g id="surface1">
<path style=" stroke:none;fill-rule:evenodd;fill:url(#linear0);" d="M 29.863281 4.324219 L 34.390625 4.324219 C 35.226562 4.324219 35.902344 5.207031 35.902344 6.300781 L 35.902344 30.023438 C 35.902344 31.117188 35.226562 32 34.390625 32 L 29.863281 32 C 29.027344 32 28.351562 31.117188 28.351562 30.023438 L 28.351562 6.300781 C 28.351562 5.207031 29.027344 4.324219 29.863281 4.324219 Z M 12.617188 21.808594 C 15.554688 17.738281 19.691406 14.699219 24.449219 13.117188 L 24.449219 21.273438 C 21.796875 22.652344 19.578125 24.734375 18.023438 27.292969 C 16.46875 29.847656 15.648438 32.785156 15.644531 35.773438 C 15.644531 40.113281 17.367188 44.269531 20.4375 47.335938 C 23.503906 50.40625 27.664062 52.125 32 52.125 C 36.335938 52.125 40.496094 50.40625 43.5625 47.335938 C 46.632812 44.269531 48.355469 40.113281 48.355469 35.773438 C 48.351562 32.785156 47.527344 29.851562 45.976562 27.296875 C 44.421875 24.738281 42.203125 22.664062 39.550781 21.28125 L 39.550781 13.125 C 44.308594 14.710938 48.441406 17.746094 51.378906 21.8125 C 54.3125 25.878906 55.894531 30.761719 55.902344 35.773438 C 55.902344 42.113281 53.382812 48.191406 48.902344 52.675781 C 44.417969 57.160156 38.335938 59.675781 32 59.675781 C 25.664062 59.675781 19.582031 57.160156 15.097656 52.675781 C 10.617188 48.191406 8.097656 42.113281 8.097656 35.773438 C 8.105469 30.757812 9.6875 25.875 12.617188 21.808594 Z M 12.617188 21.808594 "/>
</g>
</svg>
