<svg xmlns="http://www.w3.org/2000/svg" xmlns:xlink="http://www.w3.org/1999/xlink" width="64px" height="64px" viewBox="0 0 64 64" version="1.1">
<defs>
<linearGradient id="linear0" gradientUnits="userSpaceOnUse" x1="0" y1="0" x2="0" y2="1" gradientTransform="matrix(55.351351,0,0,51.824324,4.324324,6.085586)">
<stop offset="0" style="stop-color:#ff8963;stop-opacity:1;"/>
<stop offset="0.5" style="stop-color:#dddddd;stop-opacity:1;"/>
<stop offset="1" style="stop-color:#0F6FFF;stop-opacity:1;"/>
</linearGradient>
</defs>
<g id="surface1">
<path style=" stroke:none;fill-rule:nonzero;fill:url(#linear0);" d="M 32 6.085938 L 4.324219 33.757812 L 6.8125 36.257812 L 10.863281 32.214844 L 10.863281 57.910156 L 42.578125 57.910156 L 42.578125 42.082031 C 42.578125 41.1875 42.488281 40.375 42.324219 39.636719 C 42.152344 38.902344 41.863281 38.265625 41.441406 37.753906 C 41.039062 37.210938 40.488281 36.800781 39.800781 36.515625 C 39.117188 36.214844 38.246094 36.066406 37.210938 36.066406 C 36.050781 36.066406 35.03125 36.136719 34.136719 36.292969 C 33.421875 36.410156 32.707031 36.554688 32 36.726562 L 32 54.382812 L 14.378906 54.382812 L 14.378906 28.699219 L 32 11.066406 L 49.625 28.703125 L 49.621094 57.910156 L 53.136719 57.910156 L 53.136719 32.214844 L 57.1875 36.257812 L 59.675781 33.757812 Z M 46.089844 15.625 L 53.136719 22.675781 L 53.136719 15.625 Z M 46.089844 15.625 "/>
</g>
</svg>
