<svg xmlns="http://www.w3.org/2000/svg" xmlns:xlink="http://www.w3.org/1999/xlink" width="64px" height="64px" viewBox="0 0 64 64" version="1.1">
<defs>
<linearGradient id="linear0" gradientUnits="userSpaceOnUse" x1="0" y1="0" x2="0" y2="1" gradientTransform="matrix(55.351351,0,0,16.585584,4.324324,23.707206)">
<stop offset="0" style="stop-color:#ffae00;stop-opacity:1;"/>
<stop offset="0.5" style="stop-color:#dddddd;stop-opacity:1;"/>
<stop offset="1" style="stop-color:#bf1d1d;stop-opacity:1;"/>
</linearGradient>
</defs>
<g id="surface1">
<path style=" stroke:none;fill-rule:nonzero;fill:url(#linear0);" d="M 9.203125 23.707031 L 9.203125 30.539062 L 4.324219 30.539062 C 4.320312 30.976562 4.335938 32.933594 4.324219 33.460938 L 9.203125 33.460938 L 9.203125 40.292969 L 12.132812 40.292969 L 12.132812 23.707031 Z M 22.375 23.707031 C 17.792969 23.707031 14.082031 27.417969 14.082031 32 C 14.082031 36.582031 17.792969 40.292969 22.375 40.292969 C 26.949219 40.292969 30.664062 36.582031 30.664062 32 C 30.664062 27.417969 26.949219 23.707031 22.375 23.707031 Z M 40.910156 23.707031 C 36.328125 23.707031 32.617188 27.417969 32.617188 32 C 32.617188 36.582031 36.328125 40.292969 40.910156 40.292969 C 45.488281 40.292969 49.199219 36.582031 49.199219 32 C 49.199219 27.417969 45.488281 23.707031 40.910156 23.707031 Z M 51.152344 23.707031 L 51.152344 40.292969 L 54.078125 40.292969 L 54.078125 34.539062 L 59.671875 39.363281 C 59.671875 38.089844 59.671875 36.644531 59.675781 35.558594 L 55.351562 32.03125 L 59.671875 27.835938 C 59.671875 26.703125 59.671875 25.136719 59.671875 23.972656 L 54.078125 29.53125 L 54.078125 23.707031 Z M 41.070312 26.3125 C 44.121094 26.3125 46.597656 28.789062 46.597656 31.835938 C 46.597656 34.890625 44.121094 37.363281 41.070312 37.363281 C 38.015625 37.363281 35.539062 34.890625 35.539062 31.835938 C 35.539062 28.789062 38.015625 26.3125 41.070312 26.3125 Z M 22.375 26.636719 C 25.335938 26.636719 27.738281 29.039062 27.738281 32 C 27.738281 34.960938 25.335938 37.363281 22.375 37.363281 C 19.40625 37.363281 17.003906 34.960938 17.003906 32 C 17.003906 29.039062 19.40625 26.636719 22.375 26.636719 Z M 22.375 26.636719 "/>
</g>
</svg>
