<svg xmlns="http://www.w3.org/2000/svg" xmlns:xlink="http://www.w3.org/1999/xlink" width="64px" height="64px" viewBox="0 0 64 64" version="1.1">
<defs>
<linearGradient id="linear0" gradientUnits="userSpaceOnUse" x1="0" y1="0" x2="0" y2="1" gradientTransform="matrix(27.977476,0,0,55.351351,18.013514,4.324324)">
<stop offset="0" style="stop-color:#ffae00;stop-opacity:1;"/>
<stop offset="0.5" style="stop-color:#dddddd;stop-opacity:1;"/>
<stop offset="1" style="stop-color:#bf1d1d;stop-opacity:1;"/>
</linearGradient>
</defs>
<g id="surface1">
<path style=" stroke:none;fill-rule:nonzero;fill:url(#linear0);" d="M 35.945312 4.324219 C 35.945312 4.324219 35.988281 5.625 35.78125 6.21875 C 35.675781 6.503906 35.386719 6.691406 35.273438 6.972656 C 35.109375 7.414062 35.011719 7.902344 35.058594 8.375 C 35.089844 8.636719 35.257812 8.878906 35.355469 9.132812 C 35.4375 9.328125 35.523438 9.542969 35.597656 9.730469 L 35.761719 10.136719 L 36.113281 8.886719 C 36.171875 8.699219 36.226562 8.511719 36.273438 8.320312 C 36.273438 8.320312 36.699219 7.257812 36.734375 6.699219 C 36.769531 6.210938 36.703125 5.707031 36.539062 5.246094 C 36.40625 4.90625 35.945312 4.324219 35.945312 4.324219 Z M 32.671875 10.3125 C 32.078125 10.714844 31.527344 11.136719 31.011719 11.582031 L 31.011719 11.589844 C 31.011719 11.589844 29.605469 12.886719 29.023438 13.644531 C 28.179688 14.734375 27.460938 15.933594 26.886719 17.1875 C 26.3125 18.421875 25.882812 19.738281 25.589844 21.078125 C 25.28125 22.472656 25.113281 23.90625 25.105469 25.335938 C 25.085938 27.4375 25.261719 29.617188 25.726562 31.597656 L 25.730469 31.625 C 26.171875 33.515625 26.257812 34.414062 27.105469 35.921875 C 36.6875 34.242188 43.039062 41.648438 40.902344 49.648438 C 39.769531 53.867188 36.285156 55.902344 32.945312 56.664062 C 28.242188 57.484375 24.28125 54.941406 23.324219 51.378906 C 23.136719 50.203125 23.429688 48.621094 24.105469 48.21875 C 23.710938 48.363281 23.242188 48.511719 22.675781 49.042969 C 21.71875 49.945312 21.699219 50.265625 20.457031 50.613281 C 21.0625 48.894531 17.710938 47.496094 18.320312 43.8125 C 18.335938 43.726562 18.171875 44.515625 18.1875 44.433594 C 16.707031 52.578125 25.050781 61.742188 34.300781 59.261719 C 40.578125 57.699219 44.3125 53.089844 45.550781 47.890625 C 46.261719 44.890625 46.039062 41.800781 45.390625 39.203125 C 44.863281 37.085938 43.785156 34.855469 42.164062 32.808594 C 41.644531 32.148438 41.097656 31.542969 40.542969 30.988281 L 40.539062 30.972656 L 40.488281 30.921875 C 39.242188 29.675781 37.949219 28.644531 36.714844 27.671875 C 36.714844 27.671875 34.214844 25.621094 33.054688 24.5 C 32.984375 24.433594 32.914062 24.363281 32.851562 24.285156 C 32.445312 23.800781 32.0625 23.300781 31.714844 22.78125 C 31.621094 22.636719 31.523438 22.488281 31.457031 22.328125 C 31.085938 21.527344 30.765625 20.691406 30.582031 19.835938 C 30.335938 18.707031 30.238281 17.539062 30.269531 16.382812 C 30.296875 15.40625 30.433594 14.421875 30.699219 13.484375 C 31.175781 12.363281 31.957031 11.324219 32.671875 10.3125 Z M 35.4375 14.460938 C 35.125 14.960938 34.890625 15.53125 34.617188 16.066406 C 34.367188 16.542969 34.082031 17 33.878906 17.488281 C 33.433594 18.578125 33.171875 19.730469 32.8125 20.839844 C 32.773438 20.976562 32.671875 21.105469 32.6875 21.242188 C 32.8125 22.296875 33.703125 23.121094 34.351562 23.96875 C 34.597656 24.289062 35.203125 24.851562 35.203125 24.851562 C 35.300781 24.960938 35.402344 25.070312 35.511719 25.1875 C 35.511719 25.1875 35.308594 23.90625 35.214844 23.265625 C 35.207031 23.207031 35.199219 23.152344 35.191406 23.09375 C 35.039062 20.820312 34.933594 18.523438 35.121094 16.246094 C 35.171875 15.644531 35.4375 14.460938 35.4375 14.460938 Z M 19.085938 32.582031 C 19.085938 32.582031 19.460938 35.089844 19.191406 36.300781 C 19.066406 36.878906 18.550781 37.3125 18.40625 37.878906 C 18.175781 38.773438 18.105469 39.753906 18.320312 40.652344 C 18.441406 41.171875 18.828125 41.582031 19.078125 42.050781 C 19.132812 42.160156 19.1875 42.269531 19.242188 42.378906 C 19.542969 41.015625 20.53125 39.914062 20.921875 38.589844 C 21.078125 38.078125 21.203125 37.539062 21.175781 37.003906 C 21.125 36.054688 20.886719 35.089844 20.457031 34.242188 C 20.125 33.605469 19.085938 32.582031 19.085938 32.582031 Z M 30.132812 37.382812 C 24.800781 37.382812 20.484375 41.707031 20.484375 47.03125 C 20.484375 47.53125 20.523438 48.023438 20.597656 48.511719 C 20.710938 48.6875 20.828125 48.855469 20.917969 49.03125 C 21 49.191406 21.039062 49.375 21.085938 49.554688 C 21.117188 49.53125 21.191406 49.515625 21.21875 49.496094 C 21.433594 49.320312 21.699219 49.015625 22.203125 48.539062 C 22.855469 47.921875 23.460938 47.644531 23.863281 47.5625 C 24.753906 47.378906 24.988281 47.539062 25.761719 47.660156 C 25.136719 47.914062 24.941406 48.207031 24.460938 48.824219 C 24.441406 48.847656 24.171875 49.164062 24.058594 49.664062 C 23.949219 50.152344 23.941406 50.757812 24.011719 51.238281 C 24.886719 54.386719 28.445312 56.726562 32.824219 55.960938 C 33.753906 55.753906 34.671875 55.429688 35.542969 55 C 38.1875 53.207031 39.765625 50.226562 39.769531 47.03125 C 39.769531 41.707031 35.457031 37.382812 30.132812 37.382812 Z M 30.132812 37.382812 "/>
</g>
</svg>
