<svg xmlns="http://www.w3.org/2000/svg" xmlns:xlink="http://www.w3.org/1999/xlink" width="64px" height="64px" viewBox="0 0 64 64" version="1.1">
<defs>
<linearGradient id="linear0" gradientUnits="userSpaceOnUse" x1="0" y1="0" x2="0" y2="1" gradientTransform="matrix(50.369368,0,0,55.351351,6.815315,4.324324)">
<stop offset="0" style="stop-color:#05f7ff;stop-opacity:1;"/>
<stop offset="0.5" style="stop-color:#dddddd;stop-opacity:1;"/>
<stop offset="1" style="stop-color:#e6ff05;stop-opacity:1;"/>
</linearGradient>
</defs>
<g id="surface1">
<path style=" stroke:none;fill-rule:nonzero;fill:url(#linear0);" d="M 13.511719 4.324219 L 12.324219 5.960938 C 12.324219 5.960938 8.914062 10.433594 8.914062 15.996094 C 8.914062 19.539062 10.09375 22.839844 10.6875 24.261719 C 8.136719 28.984375 6.8125 34.648438 6.8125 41.1875 L 6.8125 43.085938 L 8.785156 43.28125 C 13.21875 43.617188 18.503906 44.929688 19.671875 47.085938 C 20.238281 48.136719 20.710938 49.476562 21.179688 50.757812 C 21.71875 52.230469 22.269531 53.734375 23.015625 55.015625 C 24.792969 58.09375 27.835938 59.675781 32 59.675781 C 36.164062 59.675781 39.207031 58.09375 40.984375 55.015625 C 41.730469 53.734375 42.28125 52.230469 42.820312 50.757812 C 43.289062 49.476562 43.757812 48.136719 44.328125 47.085938 C 45.496094 44.929688 50.78125 43.617188 55.214844 43.28125 L 57.1875 43.085938 L 57.1875 41.179688 C 57.1875 34.648438 55.863281 28.984375 53.3125 24.261719 C 53.90625 22.839844 55.085938 19.539062 55.085938 15.996094 C 55.085938 10.433594 51.675781 5.960938 51.675781 5.960938 L 50.488281 4.324219 L 48.855469 5.4375 L 40.328125 11.082031 C 39.886719 10.835938 39.867188 10.757812 39.148438 10.488281 C 37.53125 9.882812 35.160156 9.3125 32 9.3125 C 28.839844 9.3125 26.460938 9.882812 24.851562 10.488281 C 24.132812 10.757812 24.113281 10.835938 23.671875 11.078125 L 15.148438 5.441406 Z M 14.753906 10.230469 L 22.363281 15.28125 L 23.605469 16.0625 L 24.851562 15.144531 C 24.851562 15.144531 25.1875 14.863281 26.363281 14.421875 C 27.53125 13.984375 29.351562 13.503906 32 13.503906 C 34.648438 13.503906 36.53125 13.984375 37.707031 14.421875 C 38.878906 14.863281 39.210938 15.144531 39.210938 15.144531 L 40.394531 16.066406 L 41.636719 15.28125 L 49.246094 10.230469 C 50.011719 11.664062 50.886719 13.636719 50.886719 16 C 50.886719 17.335938 50.617188 18.664062 50.296875 19.867188 C 49.347656 18.714844 48.363281 17.597656 47.214844 16.589844 L 43.609375 19.015625 C 49.429688 23.675781 52.539062 30.460938 52.921875 39.28125 C 48.945312 39.789062 42.769531 41.207031 40.660156 45.121094 C 39.941406 46.4375 39.402344 47.894531 38.886719 49.3125 C 38.386719 50.6875 37.878906 51.945312 37.3125 52.921875 C 37.03125 53.449219 36.652344 53.914062 36.199219 54.300781 L 36.199219 51.941406 C 34.839844 51.5 33.421875 51.28125 32 51.28125 C 30.246094 51.28125 28.851562 51.597656 27.800781 51.9375 L 27.800781 54.296875 C 27.347656 53.914062 26.96875 53.445312 26.6875 52.917969 C 26.121094 51.945312 25.613281 50.6875 25.113281 49.3125 C 24.597656 47.894531 24.058594 46.4375 23.339844 45.117188 C 21.230469 41.207031 15.054688 39.789062 11.078125 39.28125 C 11.460938 30.460938 14.570312 23.671875 20.390625 19.011719 L 16.785156 16.589844 C 15.636719 17.59375 14.652344 18.710938 13.703125 19.863281 C 13.386719 18.664062 13.113281 17.335938 13.113281 15.996094 C 13.113281 13.636719 13.988281 11.664062 14.753906 10.226562 Z M 22.554688 32.390625 C 21.113281 33.847656 21.113281 36.1875 22.554688 37.636719 C 24.011719 39.082031 26.351562 39.082031 27.800781 37.636719 Z M 41.445312 32.390625 L 36.199219 37.636719 C 37.648438 39.082031 39.988281 39.082031 41.445312 37.636719 C 42.886719 36.1875 42.886719 33.847656 41.445312 32.390625 Z M 41.445312 32.390625 "/>
</g>
</svg>
