<svg xmlns="http://www.w3.org/2000/svg" xmlns:xlink="http://www.w3.org/1999/xlink" width="64px" height="64px" viewBox="0 0 64 64" version="1.1">
<defs>
<linearGradient id="linear0" gradientUnits="userSpaceOnUse" x1="0" y1="0" x2="0" y2="1" gradientTransform="matrix(44.549551,0,0,55.351351,9.725226,4.324324)">
<stop offset="0" style="stop-color:#00fff2;stop-opacity:1;"/>
<stop offset="0.5" style="stop-color:#dddddd;stop-opacity:1;"/>
<stop offset="1" style="stop-color:#0062ff;stop-opacity:1;"/>
</linearGradient>
</defs>
<g id="surface1">
<path style=" stroke:none;fill-rule:nonzero;fill:url(#linear0);" d="M 23.90625 5.097656 L 18.652344 19.53125 L 18.648438 19.53125 L 9.726562 44.058594 L 15.664062 44.058594 L 23.257812 23.214844 L 27.726562 23.214844 L 20.136719 44.058594 L 26.070312 44.058594 L 33.148438 24.617188 C 34.164062 21.824219 32.5625 19.539062 29.589844 19.539062 L 24.59375 19.539062 L 30.117188 4.363281 C 27.59375 4.378906 24.199219 4.324219 24.199219 4.324219 Z M 39.46875 19.53125 L 30.289062 44.757812 L 24.824219 59.664062 L 30.808594 59.675781 L 36.488281 44.058594 L 44.378906 44.058594 C 45.761719 44.058594 47.28125 42.988281 47.753906 41.691406 L 53.96875 24.617188 C 54.988281 21.820312 53.386719 19.53125 50.410156 19.53125 Z M 44.09375 23.203125 L 48.558594 23.203125 L 42.308594 40.363281 L 37.835938 40.363281 Z M 44.09375 23.203125 "/>
</g>
</svg>
