<svg xmlns="http://www.w3.org/2000/svg" xmlns:xlink="http://www.w3.org/1999/xlink" width="64px" height="64px" viewBox="0 0 64 64" version="1.1">
<defs>
<linearGradient id="linear0" gradientUnits="userSpaceOnUse" x1="0" y1="0" x2="0" y2="1" gradientTransform="matrix(55.351351,0,0,18.306307,4.324324,22.846848)">
<stop offset="0" style="stop-color:#ffae00;stop-opacity:1;"/>
<stop offset="0.5" style="stop-color:#dddddd;stop-opacity:1;"/>
<stop offset="1" style="stop-color:#bf1d1d;stop-opacity:1;"/>
</linearGradient>
</defs>
<g id="surface1">
<path style=" stroke:none;fill-rule:nonzero;fill:url(#linear0);" d="M 4.324219 22.847656 L 4.324219 41.152344 L 8.71875 41.152344 L 8.71875 33.730469 C 8.730469 33.429688 8.863281 33.144531 9.082031 32.9375 C 9.3125 32.710938 9.621094 32.585938 9.945312 32.578125 L 12.46875 32.578125 C 12.773438 32.578125 13.027344 32.730469 13.261719 32.9375 C 13.496094 33.144531 13.59375 33.421875 13.621094 33.730469 L 13.621094 41.152344 L 18.023438 41.152344 L 18.023438 33.160156 C 18.023438 32.054688 17.800781 31.1875 17.367188 30.488281 C 16.929688 29.835938 16.296875 29.335938 15.566406 29.042969 C 14.773438 28.691406 13.914062 28.515625 13.042969 28.539062 L 10.164062 28.539062 L 9.082031 28.6875 C 8.828125 28.757812 8.71875 28.835938 8.71875 28.835938 L 8.71875 22.847656 Z M 38.199219 22.847656 L 38.199219 41.152344 L 42.59375 41.152344 L 42.59375 22.847656 Z M 21.1875 28.539062 L 21.1875 36.324219 C 21.1875 37.351562 21.347656 38.199219 21.761719 38.917969 C 22.179688 39.644531 22.820312 40.21875 23.566406 40.582031 C 24.335938 40.941406 25.136719 41.152344 26.164062 41.152344 L 30.488281 41.152344 L 30.488281 41.085938 C 31.40625 41.085938 32.226562 40.890625 32.863281 40.511719 C 33.5 40.089844 34.015625 39.496094 34.378906 38.78125 C 34.710938 38.054688 34.855469 37.242188 34.882812 36.324219 L 34.882812 28.539062 L 30.488281 28.539062 L 30.488281 35.894531 C 30.460938 36.210938 30.335938 36.511719 30.125 36.757812 C 29.914062 36.96875 29.632812 37.09375 29.335938 37.121094 L 26.742188 37.121094 C 26.441406 37.105469 26.160156 36.972656 25.945312 36.761719 C 25.726562 36.527344 25.59375 36.214844 25.585938 35.890625 L 25.585938 28.539062 Z M 45.976562 28.539062 L 45.976562 36.324219 C 46.011719 37.351562 46.199219 38.199219 46.632812 38.917969 C 47.0625 39.644531 47.621094 40.21875 48.363281 40.582031 C 49.125 40.941406 49.957031 41.152344 50.957031 41.152344 L 55.28125 41.152344 L 55.28125 41.085938 C 56.199219 41.085938 56.988281 40.890625 57.660156 40.511719 C 58.296875 40.089844 58.835938 39.496094 59.171875 38.78125 C 59.523438 38.0625 59.675781 37.242188 59.675781 36.324219 L 59.675781 28.539062 L 55.28125 28.539062 L 55.28125 35.894531 C 55.269531 36.214844 55.136719 36.527344 54.917969 36.757812 C 54.707031 36.972656 54.421875 37.097656 54.125 37.121094 L 51.53125 37.121094 C 51.230469 37.109375 50.945312 36.976562 50.738281 36.761719 C 50.511719 36.527344 50.386719 36.214844 50.378906 35.890625 L 50.378906 28.539062 Z M 45.976562 28.539062 "/>
</g>
</svg>
