<svg xmlns="http://www.w3.org/2000/svg" xmlns:xlink="http://www.w3.org/1999/xlink" width="64px" height="64px" viewBox="0 0 64 64" version="1.1">
<defs>
<linearGradient id="linear0" gradientUnits="userSpaceOnUse" x1="0" y1="0" x2="0" y2="1" gradientTransform="matrix(55.351351,0,0,44.657659,4.324324,9.671171)">
<stop offset="0" style="stop-color:#00b7ff;stop-opacity:1;"/>
<stop offset="0.5" style="stop-color:#dddddd;stop-opacity:1;"/>
<stop offset="1" style="stop-color:#ee42d9;stop-opacity:1;"/>
</linearGradient>
</defs>
<g id="surface1">
<path style=" stroke:none;fill-rule:evenodd;fill:url(#linear0);" d="M 36.96875 18.136719 C 38.503906 17.335938 39.242188 16.675781 42.828125 15.78125 C 46.308594 14.910156 50.636719 12.808594 54.121094 11.996094 C 48.164062 12.710938 40.972656 14.214844 36.96875 18.136719 Z M 4.671875 32.234375 C 6.609375 44.863281 17.445312 54.257812 30.273438 54.328125 C 30.933594 54.328125 31.589844 54.3125 32.242188 54.269531 C 32.246094 54.269531 32.253906 54.269531 32.257812 54.269531 C 37.394531 53.894531 42.3125 52.011719 46.378906 48.851562 C 45.808594 45.121094 43.875 40.996094 39.703125 36.203125 C 38.828125 34.554688 38.257812 33.351562 37.929688 32.164062 C 37.234375 29.710938 39.078125 26.902344 39.765625 25.554688 C 40.863281 23.417969 41.789062 20.441406 43.414062 18.835938 C 46.265625 16.023438 51.242188 14.5625 55.644531 13.109375 C 57.015625 12.648438 58.238281 12.742188 59.675781 12.433594 C 58.339844 11.6875 56.679688 11.414062 55.324219 11.390625 C 48.082031 11.285156 43.664062 12.382812 40.746094 12.0625 C 37.039062 11.664062 33.570312 9.617188 29.027344 9.671875 C 28.1875 9.679688 27.3125 9.742188 26.382812 9.878906 C 19.699219 10.863281 15.417969 14.523438 9.933594 21.144531 C 7.703125 23.835938 5.734375 27.070312 4.324219 29.5625 C 4.375 30.488281 4.46875 31.394531 4.617188 32.308594 C 4.632812 32.285156 4.648438 32.261719 4.671875 32.234375 Z M 28.566406 15.785156 C 28.769531 14.78125 29.753906 14.132812 30.757812 14.335938 C 31.769531 14.539062 32.421875 15.515625 32.21875 16.527344 C 32.023438 17.539062 31.039062 18.1875 30.03125 17.984375 C 29.027344 17.78125 28.367188 16.792969 28.566406 15.785156 Z M 28.566406 15.785156 "/>
</g>
</svg>
