<svg xmlns="http://www.w3.org/2000/svg" xmlns:xlink="http://www.w3.org/1999/xlink" width="64px" height="64px" viewBox="0 0 64 64" version="1.1">
<defs>
<linearGradient id="linear0" gradientUnits="userSpaceOnUse" x1="0" y1="0" x2="0" y2="1" gradientTransform="matrix(55.351351,0,0,54.243243,4.324324,4.878378)">
<stop offset="0" style="stop-color:#ffae00;stop-opacity:1;"/>
<stop offset="0.5" style="stop-color:#dddddd;stop-opacity:1;"/>
<stop offset="1" style="stop-color:#bf1d1d;stop-opacity:1;"/>
</linearGradient>
</defs>
<g id="surface1">
<path style=" stroke:none;fill-rule:nonzero;fill:url(#linear0);" d="M 51.234375 4.882812 C 50.855469 4.917969 50.496094 5.039062 50.171875 5.238281 L 36.539062 13.449219 C 37.585938 13.652344 38.554688 13.902344 39.476562 14.160156 L 51.554688 7.644531 C 52.472656 7.144531 52.933594 6.175781 52.542969 5.488281 C 52.292969 5.050781 51.808594 4.835938 51.234375 4.882812 Z M 39.476562 14.160156 L 25.566406 21.664062 C 25.355469 21.78125 25.039062 21.625 24.863281 21.3125 C 24.6875 20.988281 24.6875 20.617188 24.894531 20.496094 L 36.539062 13.449219 C 34.585938 13.078125 32.433594 12.835938 30.0625 12.742188 C 30.589844 11.789062 30.367188 10.59375 29.527344 9.902344 C 28.6875 9.207031 27.472656 9.207031 26.636719 9.902344 C 25.796875 10.59375 25.570312 11.789062 26.097656 12.742188 C 22.132812 12.890625 18.769531 13.503906 15.9375 14.367188 C 15.53125 14.027344 15.015625 13.839844 14.488281 13.839844 C 13.351562 13.839844 12.417969 14.691406 12.257812 15.789062 C 6.835938 18.324219 4.324219 21.839844 4.324219 24.109375 C 4.324219 30.234375 15.179688 35.429688 28.042969 35.4375 C 40.910156 35.429688 51.800781 30.234375 51.800781 24.109375 C 51.800781 23.320312 51.46875 22.382812 50.847656 21.382812 L 29.5 27.789062 C 29.296875 27.855469 29.054688 27.636719 28.960938 27.328125 C 28.863281 27.015625 28.9375 26.726562 29.144531 26.660156 L 49.253906 19.394531 C 47.261719 17.40625 44.058594 15.445312 39.476562 14.160156 Z M 49.253906 19.394531 C 49.855469 19.996094 50.390625 20.660156 50.847656 21.378906 L 57.960938 19.257812 C 59.125 18.914062 59.882812 18.011719 59.625 17.238281 C 59.382812 16.476562 58.214844 16.1875 57.078125 16.605469 Z M 51.835938 29.734375 C 49.882812 32.039062 46.742188 33.976562 42.808594 35.363281 L 42.808594 53.8125 C 43.488281 54.207031 43.941406 54.921875 43.941406 55.761719 C 43.941406 56 43.90625 56.242188 43.835938 56.460938 C 49.613281 54 51.835938 50.421875 51.835938 48.363281 Z M 4.324219 29.769531 L 4.324219 48.609375 C 4.324219 50.339844 6.460938 53.914062 12.324219 56.433594 C 12.257812 56.210938 12.21875 55.988281 12.21875 55.761719 C 12.21875 54.957031 12.652344 54.210938 13.351562 53.8125 L 13.351562 35.363281 C 9.421875 33.988281 6.292969 32.054688 4.324219 29.769531 Z M 15.621094 36.078125 L 15.621094 53.8125 C 16.292969 54.199219 16.726562 54.90625 16.753906 55.6875 C 16.78125 56.460938 16.40625 57.199219 15.761719 57.636719 C 18.570312 58.433594 21.976562 58.988281 26.097656 59.121094 C 25.503906 58.042969 25.878906 56.6875 26.949219 56.078125 L 26.949219 37.664062 C 22.835938 37.585938 18.996094 37.011719 15.621094 36.070312 Z M 40.542969 36.078125 C 37.171875 37.011719 33.328125 37.582031 29.214844 37.664062 L 29.214844 56.078125 C 30.28125 56.6875 30.660156 58.042969 30.0625 59.121094 C 34.175781 58.988281 37.613281 58.433594 40.4375 57.636719 C 39.800781 57.21875 39.417969 56.515625 39.410156 55.761719 C 39.410156 54.921875 39.863281 54.207031 40.542969 53.8125 Z M 40.542969 36.078125 "/>
</g>
</svg>
