<svg xmlns="http://www.w3.org/2000/svg" xmlns:xlink="http://www.w3.org/1999/xlink" width="64px" height="64px" viewBox="0 0 64 64" version="1.1">
<defs>
<linearGradient id="linear0" gradientUnits="userSpaceOnUse" x1="0" y1="0" x2="0" y2="1" gradientTransform="matrix(55.351351,0,0,53.513514,4.324324,5.243243)">
<stop offset="0" style="stop-color:#ff8963;stop-opacity:1;"/>
<stop offset="0.5" style="stop-color:#dddddd;stop-opacity:1;"/>
<stop offset="1" style="stop-color:#0F6FFF;stop-opacity:1;"/>
</linearGradient>
</defs>
<g id="surface1">
<path style=" stroke:none;fill-rule:evenodd;fill:url(#linear0);" d="M 24.199219 5.242188 L 12.363281 21.207031 L 15.707031 27.847656 L 23.484375 27.847656 C 23.285156 28.789062 23.039062 29.863281 22.734375 31.023438 C 21.820312 34.484375 20.152344 38.476562 18.929688 39.867188 L 18.878906 39.921875 L 18.835938 39.976562 C 15.890625 43.539062 11.097656 47.207031 4.324219 51.066406 L 8.707031 58.757812 C 15.960938 54.625 21.589844 50.496094 25.59375 45.675781 C 28.796875 42.015625 30.234375 37.292969 31.292969 33.292969 C 31.863281 31.125 32.253906 29.207031 32.496094 27.851562 L 51.175781 27.851562 C 50.835938 36.351562 50.769531 38.410156 48.960938 42.808594 C 47.886719 45.394531 46.539062 47.023438 43.820312 48.292969 C 41.105469 49.5625 36.757812 50.335938 30.152344 49.910156 L 29.617188 58.207031 C 37.0625 58.6875 42.800781 57.957031 47.339844 55.835938 C 51.886719 53.710938 54.972656 50.054688 56.652344 45.984375 C 60.011719 37.828125 59.113281 33.765625 59.675781 23.929688 L 59.496094 19.527344 L 23.96875 19.527344 L 30.882812 10.203125 Z M 24.199219 5.242188 "/>
</g>
</svg>
