<svg xmlns="http://www.w3.org/2000/svg" xmlns:xlink="http://www.w3.org/1999/xlink" width="64px" height="64px" viewBox="0 0 64 64" version="1.1">
<g id="surface1">
<path style=" stroke:none;fill-rule:nonzero;fill:rgb(80.000001%,80.000001%,80.000001%);fill-opacity:1;" d="M 16.433594 9.511719 L 47.566406 9.511719 C 51.386719 9.511719 54.488281 12.613281 54.488281 16.433594 L 54.488281 47.566406 C 54.488281 51.386719 51.386719 54.488281 47.566406 54.488281 L 16.433594 54.488281 C 12.613281 54.488281 9.511719 51.386719 9.511719 47.566406 L 9.511719 16.433594 C 9.511719 12.613281 12.613281 9.511719 16.433594 9.511719 Z M 16.433594 9.511719 "/>
<path style=" stroke:none;fill-rule:nonzero;fill:rgb(100%,42.745098%,0%);fill-opacity:1;" d="M 17.5625 41.332031 C 14.757812 44.136719 14.605469 49.253906 14.605469 49.253906 C 14.605469 49.253906 19.71875 49.105469 22.53125 46.296875 C 25.339844 43.488281 26.503906 40.101562 25.132812 38.734375 C 23.757812 37.359375 20.371094 38.523438 17.5625 41.332031 Z M 17.5625 41.332031 "/>
<path style=" stroke:none;fill-rule:nonzero;fill:rgb(77.64706%,15.686275%,15.686275%);fill-opacity:1;" d="M 18.414062 42.316406 C 16.648438 44.085938 16.550781 47.304688 16.550781 47.304688 C 16.550781 47.304688 19.769531 47.210938 21.539062 45.441406 C 23.304688 43.675781 24.039062 41.539062 23.175781 40.679688 C 22.3125 39.816406 20.1875 40.546875 18.414062 42.316406 Z M 18.414062 42.316406 "/>
<path style=" stroke:none;fill-rule:nonzero;fill:rgb(32.941177%,43.137255%,47.843137%);fill-opacity:1;" d="M 22.039062 42.347656 C 23.71875 44.144531 25.925781 43.957031 26.109375 43.660156 L 27.644531 41.164062 C 27.738281 41.011719 27.652344 40.769531 27.585938 40.710938 L 23.4375 36.5625 C 23.375 36.492188 23.140625 36.417969 22.992188 36.511719 L 20.492188 38.046875 C 20.203125 38.230469 19.871094 40.035156 22.039062 42.347656 Z M 22.039062 42.347656 "/>
<path style=" stroke:none;fill-rule:nonzero;fill:rgb(0.784314%,53.333336%,81.960785%);fill-opacity:1;" d="M 33.335938 46.914062 C 32.992188 47.191406 32.535156 47.128906 32.476562 46.71875 C 32.3125 45.578125 32.417969 43.289062 30.988281 41.855469 C 29.585938 40.457031 27.3125 40.25 27.3125 40.25 L 35.875 36.027344 C 35.875 36.027344 37.488281 38.515625 36.601562 42.058594 C 35.859375 44.988281 34.589844 45.886719 33.335938 46.914062 Z M 33.335938 46.914062 "/>
<path style=" stroke:none;fill-rule:nonzero;fill:rgb(0.784314%,53.333336%,81.960785%);fill-opacity:1;" d="M 17.050781 31.117188 C 16.710938 31.40625 16.835938 31.917969 17.242188 31.980469 C 18.386719 32.136719 20.671875 32.035156 22.109375 33.464844 C 23.507812 34.867188 23.800781 36.851562 23.800781 36.851562 L 27.9375 28.089844 C 27.9375 28.089844 25.75 27.0625 22.5625 27.890625 C 20.367188 28.460938 18.1875 30.136719 17.050781 31.117188 Z M 17.050781 31.117188 "/>
<path style=" stroke:none;fill-rule:nonzero;fill:rgb(100%,100%,100%);fill-opacity:1;" d="M 38.808594 16.648438 C 40.195312 17.289062 42.070312 18.386719 43.859375 20.171875 C 44.488281 20.804688 45.027344 21.449219 45.496094 22.082031 C 46.398438 23.296875 47.015625 24.460938 47.417969 25.371094 C 46.515625 27.742188 44.8125 30.503906 43.152344 32.164062 C 36.351562 38.964844 28.84375 42.847656 24.960938 40.097656 C 24.734375 39.9375 24.511719 39.789062 24.308594 39.609375 C 20.972656 36.613281 24.789062 28.035156 31.722656 21.101562 C 33.460938 19.363281 36.363281 17.585938 38.808594 16.648438 Z M 38.808594 16.648438 "/>
<path style=" stroke:none;fill-rule:nonzero;fill:rgb(27.058825%,35.294119%,39.215687%);fill-opacity:1;" d="M 39.15625 24.335938 C 40.347656 25.527344 40.347656 27.460938 39.15625 28.652344 C 37.960938 29.847656 36.03125 29.847656 34.835938 28.652344 C 33.644531 27.460938 33.644531 25.527344 34.835938 24.335938 C 36.03125 23.140625 37.960938 23.140625 39.15625 24.335938 Z M 39.15625 24.335938 "/>
<path style=" stroke:none;fill-rule:nonzero;fill:rgb(27.058825%,35.294119%,39.215687%);fill-opacity:1;" d="M 32.261719 31.621094 C 33.125 32.484375 33.125 33.882812 32.261719 34.746094 C 31.398438 35.609375 30 35.609375 29.136719 34.746094 C 28.273438 33.882812 28.273438 32.484375 29.136719 31.621094 C 30 30.757812 31.398438 30.757812 32.261719 31.621094 Z M 32.261719 31.621094 "/>
<path style=" stroke:none;fill-rule:nonzero;fill:rgb(89.803922%,22.352941%,20.784314%);fill-opacity:1;" d="M 38.808594 16.648438 C 38.171875 19.78125 43.703125 25.917969 47.417969 25.371094 C 48.578125 22.382812 49.050781 20.355469 49.363281 16.863281 C 49.527344 15.097656 49.011719 14.589844 47.371094 14.785156 C 43.03125 15.292969 41.3125 15.621094 38.808594 16.648438 Z M 38.808594 16.648438 "/>
</g>
</svg>
