<svg xmlns="http://www.w3.org/2000/svg" xmlns:xlink="http://www.w3.org/1999/xlink" width="64px" height="64px" viewBox="0 0 64 64" version="1.1">
<defs>
<linearGradient id="linear0" gradientUnits="userSpaceOnUse" x1="0" y1="0" x2="0" y2="1" gradientTransform="matrix(49.423422,0,0,33.608108,7.288288,4.324324)">
<stop offset="0" style="stop-color:#ffae00;stop-opacity:1;"/>
<stop offset="0.5" style="stop-color:#dddddd;stop-opacity:1;"/>
<stop offset="1" style="stop-color:#bf1d1d;stop-opacity:1;"/>
</linearGradient>
<linearGradient id="linear1" gradientUnits="userSpaceOnUse" x1="0" y1="0" x2="0" y2="1" gradientTransform="matrix(24.711713,0,0,38.747747,7.288288,20.927926)">
<stop offset="0" style="stop-color:#ffae00;stop-opacity:1;"/>
<stop offset="0.5" style="stop-color:#dddddd;stop-opacity:1;"/>
<stop offset="1" style="stop-color:#bf1d1d;stop-opacity:1;"/>
</linearGradient>
<linearGradient id="linear2" gradientUnits="userSpaceOnUse" x1="0" y1="0" x2="0" y2="1" gradientTransform="matrix(24.711713,0,0,38.644145,32,21.03153)">
<stop offset="0" style="stop-color:#ffae00;stop-opacity:1;"/>
<stop offset="0.5" style="stop-color:#dddddd;stop-opacity:1;"/>
<stop offset="1" style="stop-color:#bf1d1d;stop-opacity:1;"/>
</linearGradient>
</defs>
<g id="surface1">
<path style=" stroke:none;fill-rule:evenodd;fill:url(#linear0);" d="M 29.039062 10.253906 L 29.039062 16.1875 L 34.960938 16.1875 L 34.960938 10.253906 Z M 32.148438 4.324219 L 32.148438 4.328125 C 30.996094 4.296875 29.863281 4.589844 28.863281 5.175781 L 10.40625 15.988281 C 8.59375 17.058594 7.421875 18.972656 7.289062 21.097656 C 7.40625 23.242188 8.582031 25.179688 10.40625 26.257812 L 28.863281 37.078125 C 30.800781 38.214844 33.199219 38.214844 35.136719 37.078125 L 53.59375 26.257812 C 55.40625 25.191406 56.578125 23.273438 56.710938 21.152344 C 56.59375 19.011719 55.417969 17.066406 53.59375 15.988281 L 35.136719 5.175781 C 34.230469 4.644531 33.199219 4.347656 32.148438 4.324219 Z M 29.039062 19.152344 L 29.039062 32.988281 L 34.960938 32.988281 L 34.960938 19.152344 Z M 29.039062 19.152344 "/>
<path style=" stroke:none;fill-rule:evenodd;fill:url(#linear1);" d="M 7.292969 20.929688 C 7.292969 20.9375 7.289062 20.945312 7.289062 20.957031 C 7.292969 20.976562 7.296875 21.003906 7.296875 21.03125 C 7.296875 21.078125 7.292969 21.121094 7.289062 21.171875 L 7.289062 42.6875 C 7.289062 44.9375 8.484375 47.015625 10.421875 48.136719 L 28.863281 58.835938 C 29.828125 59.390625 30.921875 59.671875 32 59.675781 L 32 37.527344 C 31.988281 37.527344 31.988281 37.527344 31.984375 37.527344 C 31.8125 37.527344 31.648438 37.523438 31.476562 37.503906 C 31.429688 37.503906 31.382812 37.496094 31.335938 37.496094 C 31.164062 37.476562 30.996094 37.449219 30.828125 37.417969 C 30.796875 37.410156 30.761719 37.40625 30.730469 37.402344 C 30.578125 37.367188 30.429688 37.328125 30.28125 37.289062 C 30.214844 37.269531 30.160156 37.253906 30.097656 37.234375 C 29.976562 37.199219 29.863281 37.152344 29.753906 37.109375 C 29.664062 37.078125 29.578125 37.042969 29.488281 37.011719 C 29.394531 36.960938 29.308594 36.917969 29.210938 36.867188 C 29.09375 36.8125 28.976562 36.753906 28.863281 36.6875 L 10.410156 26 C 10.226562 25.890625 10.054688 25.78125 9.882812 25.652344 C 9.875 25.652344 9.863281 25.644531 9.863281 25.636719 C 9.703125 25.527344 9.554688 25.40625 9.414062 25.285156 C 9.339844 25.210938 9.265625 25.144531 9.191406 25.070312 C 9.117188 25 9.042969 24.921875 8.96875 24.851562 C 8.886719 24.761719 8.8125 24.664062 8.734375 24.570312 C 8.675781 24.511719 8.621094 24.4375 8.566406 24.367188 C 8.488281 24.269531 8.417969 24.164062 8.351562 24.058594 C 8.300781 23.988281 8.257812 23.921875 8.210938 23.851562 C 8.144531 23.734375 8.078125 23.621094 8.015625 23.503906 C 7.984375 23.4375 7.945312 23.367188 7.910156 23.300781 C 7.855469 23.179688 7.800781 23.058594 7.753906 22.933594 C 7.71875 22.863281 7.691406 22.792969 7.664062 22.71875 C 7.636719 22.632812 7.609375 22.542969 7.582031 22.457031 C 7.539062 22.335938 7.503906 22.214844 7.472656 22.09375 C 7.460938 22.042969 7.449219 21.988281 7.441406 21.941406 C 7.40625 21.792969 7.375 21.636719 7.351562 21.488281 C 7.324219 21.300781 7.300781 21.117188 7.292969 20.929688 Z M 13.355469 32.230469 C 11.484375 32.1875 10.253906 33.269531 10.253906 35.320312 L 10.253906 39.257812 C 10.253906 42.539062 13.394531 47.023438 17.296875 49.320312 L 29.039062 56.214844 L 29.039062 52.273438 L 17.296875 45.367188 C 15.917969 44.558594 14.949219 43.179688 14.949219 42.015625 L 14.949219 38.078125 C 14.949219 36.914062 15.917969 36.675781 17.296875 37.484375 L 29.039062 44.382812 L 29.039062 40.441406 L 17.296875 33.539062 C 15.835938 32.679688 14.476562 32.253906 13.355469 32.230469 Z M 13.355469 32.230469 "/>
<path style=" stroke:none;fill-rule:evenodd;fill:url(#linear2);" d="M 56.703125 21.03125 C 56.542969 23.097656 55.382812 24.960938 53.589844 26 L 35.136719 36.6875 C 34.1875 37.242188 33.097656 37.53125 32 37.527344 L 32 59.675781 C 33.082031 59.675781 34.164062 59.394531 35.136719 58.835938 L 53.578125 48.136719 C 55.515625 47.015625 56.710938 44.9375 56.710938 42.6875 L 56.710938 21.171875 C 56.707031 21.121094 56.703125 21.078125 56.703125 21.03125 Z M 48.054688 37.082031 C 48.671875 37.058594 49.050781 37.417969 49.050781 38.148438 L 39.664062 43.664062 C 39.664062 42.511719 40.625 41.132812 42.011719 40.3125 L 44.355469 38.941406 L 46.703125 37.558594 C 47.21875 37.257812 47.679688 37.097656 48.054688 37.082031 Z M 50.648438 32.308594 C 49.523438 32.328125 48.164062 32.753906 46.703125 33.617188 L 44.355469 34.988281 L 42.011719 36.375 C 38.109375 38.664062 34.960938 43.152344 34.960938 46.429688 L 34.960938 50.375 C 34.960938 53.648438 38.109375 54.441406 42.011719 52.148438 L 44.355469 50.769531 L 44.355469 46.824219 L 42.011719 48.203125 C 40.625 49.015625 39.664062 48.769531 39.664062 47.613281 L 44.355469 44.851562 L 49.050781 42.085938 L 53.746094 39.328125 L 53.746094 35.386719 C 53.746094 33.335938 52.515625 32.261719 50.648438 32.308594 Z M 50.648438 32.308594 "/>
</g>
</svg>
