<svg xmlns="http://www.w3.org/2000/svg" xmlns:xlink="http://www.w3.org/1999/xlink" width="64px" height="64px" viewBox="0 0 64 64" version="1.1">
<defs>
<linearGradient id="linear0" gradientUnits="userSpaceOnUse" x1="0" y1="0" x2="0" y2="1" gradientTransform="matrix(55.351351,0,0,49.711713,4.324324,7.144144)">
<stop offset="0" style="stop-color:#05f7ff;stop-opacity:1;"/>
<stop offset="0.5" style="stop-color:#dddddd;stop-opacity:1;"/>
<stop offset="1" style="stop-color:#e6ff05;stop-opacity:1;"/>
</linearGradient>
</defs>
<g id="surface1">
<path style=" stroke:none;fill-rule:nonzero;fill:url(#linear0);" d="M 39.339844 25.214844 L 26.511719 25.214844 C 24.5 25.308594 22.582031 26.0625 21.042969 27.375 C 19.515625 28.6875 18.46875 30.472656 18.0625 32.4375 C 17.9375 33.039062 17.878906 33.644531 17.878906 34.253906 C 17.878906 37.71875 19.867188 40.894531 23 42.410156 C 24.214844 42.996094 25.5625 43.300781 26.917969 43.300781 C 29.609375 43.300781 32.144531 42.117188 33.863281 40.058594 C 35.015625 38.679688 36.675781 37.8125 38.460938 37.652344 C 40.257812 37.496094 42.042969 38.050781 43.417969 39.203125 C 44.800781 40.355469 45.660156 42.011719 45.8125 43.800781 C 45.972656 45.59375 45.417969 47.382812 44.265625 48.757812 C 39.972656 53.886719 33.617188 56.855469 26.917969 56.855469 C 23.527344 56.855469 20.171875 56.089844 17.113281 54.613281 C 13.28125 52.765625 10.054688 49.875 7.78125 46.285156 C 5.523438 42.679688 4.324219 38.511719 4.324219 34.253906 C 4.324219 32.730469 4.46875 31.214844 4.78125 29.726562 C 5.792969 24.789062 8.414062 20.335938 12.242188 17.070312 C 16.0625 13.796875 20.875 11.894531 25.902344 11.671875 C 25.976562 11.664062 26.050781 11.664062 26.125 11.664062 L 39.339844 11.664062 L 39.339844 10.539062 C 39.339844 9.625 39.707031 8.746094 40.355469 8.109375 C 41.011719 7.46875 41.886719 7.121094 42.792969 7.144531 C 43.355469 7.160156 43.910156 7.3125 44.402344 7.597656 L 51.199219 11.550781 L 57.988281 15.5 C 59.03125 16.109375 59.675781 17.226562 59.675781 18.4375 C 59.675781 19.648438 59.03125 20.769531 57.988281 21.378906 L 51.199219 25.328125 L 44.402344 29.28125 C 43.355469 29.886719 42.070312 29.886719 41.027344 29.28125 C 39.988281 28.675781 39.339844 27.554688 39.339844 26.339844 Z M 39.339844 25.214844 "/>
</g>
</svg>
