<svg xmlns="http://www.w3.org/2000/svg" xmlns:xlink="http://www.w3.org/1999/xlink" width="64px" height="64px" viewBox="0 0 64 64" version="1.1">
<defs>
<linearGradient id="linear0" gradientUnits="userSpaceOnUse" x1="0" y1="0" x2="0" y2="1" gradientTransform="matrix(51.891892,0,0,51.891892,6.054054,6.054054)">
<stop offset="0" style="stop-color:#ffae00;stop-opacity:1;"/>
<stop offset="0.5" style="stop-color:#dddddd;stop-opacity:1;"/>
<stop offset="1" style="stop-color:#6600ff;stop-opacity:1;"/>
</linearGradient>
</defs>
<g id="surface1">
<path style=" stroke:none;fill-rule:nonzero;fill:url(#linear0);" d="M 30.839844 57.828125 C 29.191406 57.503906 27.40625 56.121094 26.367188 54.363281 C 25.769531 53.351562 25.066406 51.285156 24.933594 50.160156 C 24.882812 49.734375 24.824219 49.390625 24.800781 49.390625 C 24.773438 49.390625 24.363281 49.664062 23.882812 49.996094 C 19.792969 52.839844 15.375 52.707031 13.089844 49.664062 C 11.292969 47.273438 11.636719 43.472656 13.960938 40.097656 L 14.589844 39.1875 L 13.621094 39.023438 C 7.039062 37.894531 4.03125 32.503906 7.527344 28.109375 C 8.636719 26.710938 11.292969 25.335938 13.570312 24.988281 L 14.605469 24.824219 L 13.917969 23.824219 C 12.570312 21.847656 11.957031 20.015625 11.960938 18.011719 C 11.960938 15.234375 13.511719 13.027344 15.984375 12.261719 C 17.078125 11.921875 18.929688 11.894531 20.109375 12.203125 C 21.199219 12.484375 22.917969 13.292969 23.960938 14.023438 L 24.808594 14.609375 L 24.96875 13.660156 C 25.511719 10.449219 27.1875 7.796875 29.335938 6.738281 C 31.847656 5.5 34.246094 5.945312 36.320312 8.027344 C 37.734375 9.445312 38.59375 11.230469 39.023438 13.613281 L 39.199219 14.613281 L 39.835938 14.148438 C 40.796875 13.449219 41.910156 12.863281 43.050781 12.441406 C 43.960938 12.109375 44.269531 12.066406 45.878906 12.0625 C 47.621094 12.058594 47.710938 12.070312 48.613281 12.5 C 49.894531 13.109375 50.828125 14.015625 51.445312 15.265625 C 51.894531 16.175781 51.957031 16.429688 52.011719 17.632812 C 52.054688 18.585938 52.003906 19.265625 51.847656 19.957031 C 51.582031 21.09375 50.613281 23.148438 49.910156 24.066406 C 49.636719 24.421875 49.410156 24.753906 49.410156 24.792969 C 49.410156 24.835938 49.558594 24.867188 49.738281 24.867188 C 50.476562 24.867188 52.800781 25.582031 53.878906 26.136719 C 55.285156 26.863281 56.789062 28.300781 57.339844 29.449219 C 59.308594 33.554688 56.320312 37.828125 50.691406 38.960938 L 49.421875 39.21875 L 49.988281 40.042969 C 53.191406 44.703125 52.59375 49.632812 48.589844 51.511719 C 47.835938 51.867188 47.496094 51.941406 46.308594 51.988281 C 44.175781 52.085938 42.488281 51.566406 40.335938 50.164062 C 39.375 49.539062 39.160156 49.441406 39.160156 49.652344 C 39.160156 50.308594 38.410156 52.761719 37.894531 53.808594 C 37.46875 54.671875 37.066406 55.226562 36.335938 55.960938 C 34.675781 57.621094 32.890625 58.226562 30.839844 57.828125 Z M 33.308594 54.710938 C 35.261719 53.738281 36.390625 50.960938 36.375 47.175781 C 36.367188 46.21875 36.3125 44.691406 36.253906 43.78125 C 36.1875 42.863281 36.152344 42.105469 36.164062 42.085938 C 36.1875 42.066406 37.003906 42.960938 37.988281 44.070312 C 38.972656 45.1875 40.28125 46.5 40.886719 46.988281 C 42.929688 48.632812 45.058594 49.414062 46.671875 49.109375 C 48.429688 48.773438 49.230469 47.59375 49.105469 45.527344 C 49.03125 44.3125 48.636719 43.230469 47.820312 41.976562 C 47.269531 41.136719 45.144531 38.921875 43.109375 37.078125 C 42.496094 36.523438 42.113281 36.105469 42.246094 36.148438 C 42.386719 36.191406 43.914062 36.269531 45.644531 36.320312 C 49.097656 36.417969 50.234375 36.289062 51.960938 35.597656 C 54.578125 34.550781 55.730469 32.375 54.644531 30.523438 C 53.960938 29.363281 52.621094 28.5 50.660156 27.960938 C 49.886719 27.746094 49.21875 27.710938 45.949219 27.730469 L 42.136719 27.746094 L 43.246094 26.761719 C 47.699219 22.800781 49.125 20.699219 49.132812 18.089844 C 49.136719 16.824219 48.789062 16.015625 47.996094 15.445312 C 46.785156 14.566406 45.066406 14.617188 43.0625 15.585938 C 41.53125 16.328125 40.136719 17.511719 38.039062 19.875 C 37.023438 21.015625 36.179688 21.9375 36.164062 21.921875 C 36.160156 21.90625 36.207031 20.988281 36.28125 19.882812 C 36.441406 17.335938 36.335938 14.390625 36.039062 13.300781 C 35.496094 11.335938 34.523438 9.902344 33.308594 9.296875 C 32.003906 8.648438 30.890625 8.882812 29.726562 10.042969 C 27.996094 11.761719 27.410156 14.285156 27.675781 18.878906 C 27.753906 20.191406 27.792969 21.402344 27.765625 21.5625 C 27.730469 21.800781 27.457031 21.554688 26.289062 20.246094 C 23.558594 17.1875 21.894531 15.851562 19.949219 15.152344 C 18.867188 14.765625 17.253906 14.734375 16.566406 15.09375 C 14.632812 16.097656 14.269531 18.257812 15.585938 20.921875 C 16.503906 22.78125 18.117188 24.542969 21.46875 27.382812 L 21.894531 27.746094 L 18.015625 27.730469 C 14.636719 27.710938 14.027344 27.742188 13.242188 27.960938 C 9.917969 28.90625 8.234375 31.121094 9.234375 33.246094 C 9.796875 34.445312 11.3125 35.484375 13.3125 36.03125 C 14.351562 36.320312 17.625 36.433594 20.097656 36.261719 C 21.089844 36.191406 21.917969 36.148438 21.9375 36.164062 C 21.957031 36.171875 21.066406 36.976562 19.96875 37.949219 C 17.339844 40.269531 16.363281 41.421875 15.523438 43.1875 C 14.960938 44.375 14.707031 45.59375 14.835938 46.46875 C 15.300781 49.558594 18.71875 50.066406 22.3125 47.582031 C 23.285156 46.914062 23.949219 46.257812 27.226562 42.738281 L 27.808594 42.117188 L 27.703125 44.191406 C 27.484375 48.496094 27.6875 50.40625 28.550781 52.246094 C 29.125 53.488281 29.878906 54.328125 30.769531 54.742188 C 31.679688 55.164062 32.414062 55.160156 33.308594 54.710938 Z M 30.636719 38.558594 C 27.644531 37.988281 25.296875 35.113281 25.296875 32.011719 C 25.296875 29.488281 26.792969 27.105469 29.066406 25.988281 C 34.734375 23.207031 40.773438 29.289062 37.972656 34.957031 C 36.625 37.675781 33.652344 39.136719 30.636719 38.558594 Z M 33.125 37.125 C 35.054688 36.8125 36.863281 34.863281 37.210938 32.714844 C 37.761719 29.363281 34.558594 26.207031 31.207031 26.796875 C 28.894531 27.203125 27.230469 28.875 26.792969 31.226562 C 26.5 32.8125 26.988281 34.308594 28.242188 35.632812 C 29.039062 36.472656 30.09375 37.042969 31.148438 37.199219 C 31.878906 37.308594 32.082031 37.296875 33.125 37.125 Z M 33.125 37.125 "/>
</g>
</svg>
