<svg xmlns="http://www.w3.org/2000/svg" xmlns:xlink="http://www.w3.org/1999/xlink" width="64px" height="64px" viewBox="0 0 64 64" version="1.1">
<defs>
<linearGradient id="linear0" gradientUnits="userSpaceOnUse" x1="0" y1="0" x2="0" y2="1" gradientTransform="matrix(55.351351,0,0,55.351351,4.324324,4.324324)">
<stop offset="0" style="stop-color:#ffae00;stop-opacity:1;"/>
<stop offset="0.5" style="stop-color:#dddddd;stop-opacity:1;"/>
<stop offset="1" style="stop-color:#bf1d1d;stop-opacity:1;"/>
</linearGradient>
</defs>
<g id="surface1">
<path style=" stroke:none;fill-rule:evenodd;fill:url(#linear0);" d="M 31.785156 4.324219 L 31.785156 4.335938 C 16.554688 4.445312 4.324219 16.738281 4.324219 32 C 4.324219 47.335938 16.664062 59.675781 32 59.675781 C 46.78125 59.675781 58.773438 48.203125 59.621094 33.648438 L 59.675781 33.597656 L 59.675781 9.863281 C 59.675781 6.792969 57.207031 4.324219 54.136719 4.324219 Z M 33.261719 33.976562 L 34.160156 28.042969 L 31.390625 28.042969 L 30.496094 33.976562 Z M 37.257812 33.976562 L 38.152344 28.042969 L 42.21875 28.042969 L 42.820312 24.089844 L 38.753906 24.089844 L 39.949219 16.1875 L 35.957031 16.1875 L 34.757812 24.089844 L 31.988281 24.089844 L 33.1875 16.1875 L 29.1875 16.1875 L 27.996094 24.089844 L 23.433594 24.089844 L 22.835938 28.042969 L 27.394531 28.042969 L 26.5 33.976562 L 21.941406 33.976562 L 21.339844 37.929688 L 25.902344 37.929688 L 24.40625 47.8125 L 28.402344 47.8125 L 29.894531 37.929688 L 32.664062 37.929688 L 31.171875 47.8125 L 35.164062 47.8125 L 36.660156 37.929688 L 40.730469 37.929688 L 41.328125 33.976562 Z M 37.257812 33.976562 "/>
</g>
</svg>
