<svg xmlns="http://www.w3.org/2000/svg" xmlns:xlink="http://www.w3.org/1999/xlink" width="64px" height="64px" viewBox="0 0 64 64" version="1.1">
<defs>
<linearGradient id="linear0" gradientUnits="userSpaceOnUse" x1="0" y1="0" x2="0" y2="1" gradientTransform="matrix(55.351351,0,0,55.351351,4.324324,4.324324)">
<stop offset="0" style="stop-color:#00b7ff;stop-opacity:1;"/>
<stop offset="0.5" style="stop-color:#dddddd;stop-opacity:1;"/>
<stop offset="1" style="stop-color:#ee42d9;stop-opacity:1;"/>
</linearGradient>
</defs>
<g id="surface1">
<path style=" stroke:none;fill-rule:evenodd;fill:url(#linear0);" d="M 54.675781 42.875 C 54.714844 42.875 54.753906 42.875 54.792969 42.875 C 55.226562 42.875 55.636719 43.039062 55.941406 43.320312 C 56.246094 43.609375 56.417969 43.996094 56.417969 44.402344 C 56.417969 44.808594 56.246094 45.191406 55.941406 45.484375 C 55.636719 45.765625 55.226562 45.929688 54.792969 45.929688 C 53.890625 45.929688 53.164062 45.242188 53.164062 44.402344 C 53.164062 43.59375 53.824219 42.929688 54.675781 42.875 Z M 9.09375 42.875 C 9.136719 42.875 9.171875 42.875 9.207031 42.875 C 9.636719 42.875 10.054688 43.039062 10.363281 43.320312 C 10.664062 43.609375 10.835938 43.996094 10.835938 44.402344 C 10.835938 44.808594 10.664062 45.191406 10.363281 45.484375 C 10.054688 45.765625 9.636719 45.929688 9.207031 45.929688 C 8.773438 45.929688 8.363281 45.765625 8.058594 45.484375 C 7.753906 45.191406 7.582031 44.808594 7.582031 44.402344 C 7.582031 43.59375 8.238281 42.929688 9.09375 42.875 Z M 11.164062 26.28125 C 10.515625 26.460938 9.847656 26.558594 9.164062 26.5625 C 8.757812 26.5625 8.347656 26.527344 7.941406 26.460938 L 7.941406 38.175781 C 8.347656 38.105469 8.757812 38.066406 9.164062 38.066406 C 9.847656 38.066406 10.515625 38.164062 11.164062 38.347656 Z M 52.855469 26.3125 L 52.855469 38.3125 C 53.46875 38.152344 54.109375 38.0625 54.746094 38.0625 C 55.292969 38.066406 55.835938 38.136719 56.363281 38.257812 L 56.363281 26.375 C 55.835938 26.496094 55.292969 26.558594 54.746094 26.558594 C 54.109375 26.558594 53.46875 26.476562 52.855469 26.3125 Z M 15.933594 45.855469 C 15.710938 46.835938 15.253906 47.757812 14.589844 48.542969 L 25.171875 54.28125 C 25.285156 53.265625 25.648438 52.292969 26.234375 51.4375 Z M 48 45.90625 L 37.851562 51.40625 C 38.46875 52.300781 38.835938 53.324219 38.933594 54.386719 L 49.457031 48.691406 C 48.738281 47.886719 48.238281 46.933594 48 45.910156 Z M 25.136719 9.414062 L 13.996094 15.457031 C 14.824219 16.214844 15.4375 17.164062 15.769531 18.210938 L 26.136719 12.59375 C 25.515625 11.636719 25.171875 10.539062 25.136719 9.414062 Z M 38.988281 9.3125 C 38.96875 10.488281 38.613281 11.632812 37.957031 12.625 L 48.160156 18.152344 C 48.515625 17.066406 49.179688 16.09375 50.078125 15.320312 Z M 31.796875 7.378906 C 31.835938 7.375 31.875 7.375 31.914062 7.378906 C 32.347656 7.378906 32.757812 7.539062 33.0625 7.824219 C 33.367188 8.113281 33.539062 8.5 33.539062 8.90625 C 33.539062 9.3125 33.367188 9.699219 33.0625 9.984375 C 32.757812 10.269531 32.347656 10.433594 31.914062 10.433594 C 31.484375 10.433594 31.066406 10.269531 30.761719 9.984375 C 30.457031 9.699219 30.285156 9.3125 30.285156 8.90625 C 30.285156 8.105469 30.945312 7.433594 31.796875 7.378906 Z M 54.675781 18.410156 C 54.714844 18.410156 54.753906 18.410156 54.792969 18.410156 C 55.226562 18.410156 55.636719 18.570312 55.941406 18.855469 C 56.246094 19.144531 56.417969 19.53125 56.417969 19.9375 C 56.417969 20.339844 56.246094 20.730469 55.941406 21.015625 C 55.636719 21.300781 55.226562 21.460938 54.792969 21.460938 C 53.890625 21.460938 53.164062 20.78125 53.164062 19.9375 C 53.164062 19.136719 53.824219 18.46875 54.675781 18.410156 Z M 9.09375 18.410156 C 9.136719 18.410156 9.171875 18.410156 9.207031 18.410156 C 9.636719 18.410156 10.054688 18.570312 10.363281 18.855469 C 10.664062 19.144531 10.835938 19.53125 10.835938 19.9375 C 10.835938 20.339844 10.664062 20.730469 10.363281 21.015625 C 10.054688 21.300781 9.636719 21.460938 9.207031 21.460938 C 8.773438 21.460938 8.363281 21.300781 8.058594 21.015625 C 7.753906 20.730469 7.582031 20.339844 7.582031 19.9375 C 7.582031 19.136719 8.238281 18.46875 9.09375 18.410156 Z M 31.796875 53.566406 C 31.835938 53.566406 31.875 53.566406 31.914062 53.566406 C 32.347656 53.566406 32.757812 53.730469 33.0625 54.015625 C 33.367188 54.300781 33.539062 54.6875 33.539062 55.09375 C 33.539062 55.5 33.367188 55.886719 33.0625 56.175781 C 32.757812 56.460938 32.347656 56.621094 31.914062 56.621094 C 31.484375 56.621094 31.066406 56.460938 30.761719 56.175781 C 30.457031 55.886719 30.285156 55.5 30.285156 55.09375 C 30.285156 54.292969 30.945312 53.625 31.796875 53.566406 Z M 14.457031 24.253906 C 13.738281 25.042969 12.835938 25.664062 11.8125 26.058594 L 26.914062 50.597656 C 27.652344 49.828125 28.570312 49.234375 29.605469 48.867188 Z M 54.792969 39.820312 C 52.09375 39.820312 49.90625 41.867188 49.90625 44.402344 C 49.90625 46.933594 52.09375 48.984375 54.792969 48.984375 C 56.089844 48.984375 57.328125 48.5 58.246094 47.636719 C 59.164062 46.785156 59.675781 45.617188 59.675781 44.402344 C 59.675781 43.1875 59.164062 42.023438 58.246094 41.164062 C 57.328125 40.300781 56.089844 39.820312 54.792969 39.820312 Z M 9.207031 39.820312 C 6.511719 39.820312 4.324219 41.867188 4.324219 44.402344 C 4.324219 46.933594 6.511719 48.984375 9.207031 48.984375 C 10.503906 48.984375 11.742188 48.5 12.664062 47.636719 C 13.578125 46.785156 14.09375 45.617188 14.09375 44.402344 C 14.09375 43.1875 13.578125 42.023438 12.664062 41.164062 C 11.742188 40.300781 10.503906 39.820312 9.207031 39.820312 Z M 31.914062 4.324219 C 29.214844 4.324219 27.027344 6.375 27.027344 8.90625 C 27.027344 11.433594 29.214844 13.488281 31.914062 13.488281 C 33.207031 13.488281 34.449219 13.003906 35.363281 12.144531 C 36.285156 11.285156 36.792969 10.117188 36.792969 8.90625 C 36.792969 7.6875 36.285156 6.523438 35.363281 5.664062 C 34.449219 4.8125 33.207031 4.324219 31.914062 4.324219 Z M 9.207031 15.355469 C 6.511719 15.355469 4.324219 17.410156 4.324219 19.9375 C 4.324219 21.152344 4.835938 22.3125 5.753906 23.175781 C 6.671875 24.039062 7.910156 24.515625 9.207031 24.515625 C 10.503906 24.515625 11.742188 24.039062 12.664062 23.175781 C 13.578125 22.3125 14.09375 21.152344 14.09375 19.9375 C 14.09375 18.71875 13.578125 17.558594 12.664062 16.699219 C 11.742188 15.839844 10.503906 15.355469 9.207031 15.355469 Z M 54.792969 15.355469 C 52.09375 15.355469 49.90625 17.410156 49.90625 19.9375 C 49.90625 21.152344 50.421875 22.3125 51.335938 23.175781 C 52.257812 24.039062 53.496094 24.515625 54.792969 24.515625 C 56.089844 24.515625 57.328125 24.039062 58.246094 23.175781 C 59.164062 22.3125 59.675781 21.152344 59.675781 19.9375 C 59.675781 18.71875 59.164062 17.558594 58.246094 16.699219 C 57.328125 15.839844 56.089844 15.355469 54.792969 15.355469 Z M 31.914062 50.511719 C 30.617188 50.511719 29.375 50.996094 28.460938 51.855469 C 27.542969 52.714844 27.027344 53.882812 27.027344 55.09375 C 27.027344 57.625 29.214844 59.675781 31.914062 59.675781 C 33.207031 59.675781 34.449219 59.1875 35.363281 58.335938 C 36.285156 57.476562 36.792969 56.3125 36.792969 55.09375 C 36.792969 53.882812 36.285156 52.714844 35.363281 51.855469 C 34.449219 50.996094 33.207031 50.511719 31.914062 50.511719 Z M 49.570312 24.363281 L 34.488281 48.875 C 35.523438 49.238281 36.445312 49.835938 37.1875 50.605469 L 52.257812 26.113281 C 51.226562 25.738281 50.300781 25.136719 49.570312 24.363281 Z M 49.570312 24.363281 "/>
</g>
</svg>
