<svg xmlns="http://www.w3.org/2000/svg" xmlns:xlink="http://www.w3.org/1999/xlink" width="64px" height="64px" viewBox="0 0 64 64" version="1.1">
<defs>
<linearGradient id="linear0" gradientUnits="userSpaceOnUse" x1="0" y1="0" x2="0" y2="1" gradientTransform="matrix(52.175676,0,0,55.351351,5.914414,4.324324)">
<stop offset="0" style="stop-color:#00fff2;stop-opacity:1;"/>
<stop offset="0.5" style="stop-color:#dddddd;stop-opacity:1;"/>
<stop offset="1" style="stop-color:#0062ff;stop-opacity:1;"/>
</linearGradient>
</defs>
<g id="surface1">
<path style=" stroke:none;fill-rule:nonzero;fill:url(#linear0);" d="M 5.914062 4.324219 L 5.914062 56.488281 L 23.570312 56.488281 C 19.503906 53.820312 16.410156 49.902344 14.757812 45.3125 L 9.644531 45.3125 L 9.644531 8.054688 L 54.363281 8.054688 L 54.363281 25.707031 C 56.664062 29.210938 58.003906 33.386719 58.003906 37.863281 C 58.082031 37.863281 58.089844 33.1875 58.089844 4.324219 Z M 45.039062 11.78125 C 42.445312 11.78125 40.285156 13.554688 39.660156 15.949219 C 43.382812 16.621094 46.808594 18.226562 49.660156 20.515625 C 50.824219 18.8125 50.949219 16.589844 49.984375 14.757812 C 49.015625 12.921875 47.113281 11.78125 45.039062 11.78125 Z M 35.726562 19.230469 C 25.457031 19.230469 17.09375 27.597656 17.09375 37.863281 C 17.09375 48.132812 25.457031 56.488281 35.726562 56.488281 C 40.1875 56.488281 44.234375 54.847656 47.445312 52.214844 L 54.90625 59.675781 L 57.539062 57.039062 L 50.082031 49.582031 C 52.710938 46.367188 54.363281 42.324219 54.363281 37.863281 C 54.363281 27.597656 45.988281 19.230469 35.726562 19.230469 Z M 35.351562 23.109375 C 35.472656 23.109375 35.597656 23.109375 35.726562 23.109375 C 39.636719 23.105469 43.394531 24.652344 46.164062 27.421875 C 48.933594 30.191406 50.488281 33.949219 50.484375 37.863281 C 50.484375 41.78125 48.933594 45.539062 46.164062 48.300781 C 43.390625 51.066406 39.636719 52.621094 35.726562 52.613281 C 31.8125 52.617188 28.054688 51.066406 25.289062 48.296875 C 22.523438 45.53125 20.96875 41.78125 20.972656 37.863281 C 20.960938 29.855469 27.339844 23.300781 35.351562 23.109375 Z M 34.976562 26.835938 C 34.015625 26.890625 33.066406 27.082031 32.160156 27.382812 L 30.136719 30.410156 L 29.210938 28.863281 C 26.3125 30.945312 24.605469 34.296875 24.621094 37.863281 C 24.621094 39.1875 24.886719 40.421875 25.296875 41.585938 L 43.1875 41.585938 Z M 13.6875 41 L 13.363281 41.585938 L 13.785156 41.585938 C 13.746094 41.390625 13.714844 41.199219 13.6875 41 Z M 27.5 45.3125 C 29.523438 47.554688 32.421875 48.96875 35.726562 48.96875 C 39.023438 48.96875 41.929688 47.554688 43.949219 45.3125 Z M 27.5 45.3125 "/>
</g>
</svg>
