<svg xmlns="http://www.w3.org/2000/svg" xmlns:xlink="http://www.w3.org/1999/xlink" width="64px" height="64px" viewBox="0 0 64 64" version="1.1">
<defs>
<linearGradient id="linear0" gradientUnits="userSpaceOnUse" x1="0" y1="128" x2="128" y2="0" gradientTransform="matrix(0.432432,0,0,0.432432,4.324324,4.324324)">
<stop offset="0" style="stop-color:rgb(85.882354%,85.882354%,85.882354%);stop-opacity:1;"/>
<stop offset="0.5" style="stop-color:#dddddd;stop-opacity:1;"/>
<stop offset="1" style="stop-color:rgb(45.882353%,45.882353%,45.882353%);stop-opacity:1;"/>
</linearGradient>
</defs>
<g id="surface1">
<path style=" stroke:none;fill-rule:nonzero;fill:url(#linear0);" d="M 15.203125 7.714844 C 13.8125 7.714844 12.664062 8.878906 12.664062 10.269531 L 12.664062 53.742188 C 12.664062 55.136719 13.804688 56.285156 15.203125 56.285156 L 48.785156 56.285156 C 50.183594 56.285156 51.335938 55.140625 51.335938 53.742188 L 51.335938 25.5 L 51.082031 25.242188 L 33.835938 7.972656 L 33.582031 7.714844 Z M 49.460938 7.90625 C 48.65625 7.90625 41.59375 7.972656 40.203125 7.972656 C 38.8125 7.972656 38.378906 8.996094 39.214844 10.027344 C 40.054688 11.058594 48.65625 19.476562 49.136719 20.027344 C 49.773438 20.761719 51.164062 20.671875 51.164062 18.972656 L 51.164062 9.609375 C 51.164062 8.792969 50.527344 7.90625 49.460938 7.90625 Z M 15.203125 9.445312 L 32.851562 9.445312 L 49.609375 26.203125 L 49.609375 53.742188 C 49.609375 54.203125 49.242188 54.554688 48.785156 54.554688 L 15.203125 54.554688 C 14.742188 54.554688 14.390625 54.210938 14.390625 53.742188 L 14.390625 10.269531 C 14.390625 9.804688 14.738281 9.445312 15.203125 9.445312 Z M 23.09375 28 C 22.160156 28 21.417969 28.753906 21.417969 29.6875 L 21.417969 41.5 C 21.417969 42.4375 22.160156 43.1875 23.09375 43.1875 L 40.890625 43.1875 C 41.828125 43.1875 42.582031 42.4375 42.582031 41.5 L 42.582031 29.6875 C 42.582031 28.753906 41.828125 28 40.890625 28 Z M 23.582031 32.769531 L 40.40625 32.769531 L 40.40625 39.972656 C 40.40625 40.589844 39.914062 41.082031 39.296875 41.082031 L 24.703125 41.082031 C 24.085938 41.082031 23.582031 40.589844 23.582031 39.972656 Z M 27.511719 44.121094 L 25.011719 48.664062 L 26.730469 48.664062 L 29.242188 44.121094 Z M 31.066406 44.121094 L 31.164062 48.664062 L 32.664062 48.664062 L 32.566406 44.121094 Z M 34.835938 44.121094 L 37.285156 48.664062 L 38.988281 48.664062 L 36.539062 44.121094 Z M 34.835938 44.121094 "/>
</g>
</svg>
