<svg xmlns="http://www.w3.org/2000/svg" xmlns:xlink="http://www.w3.org/1999/xlink" width="64px" height="64px" viewBox="0 0 64 64" version="1.1">
<defs>
<linearGradient id="linear0" gradientUnits="userSpaceOnUse" x1="0" y1="0" x2="0" y2="1" gradientTransform="matrix(37.558557,0,0,55.351351,13.220721,4.324324)">
<stop offset="0" style="stop-color:#ffae00;stop-opacity:1;"/>
<stop offset="0.5" style="stop-color:#dddddd;stop-opacity:1;"/>
<stop offset="1" style="stop-color:#6600ff;stop-opacity:1;"/>
</linearGradient>
</defs>
<g id="surface1">
<path style=" stroke:none;fill-rule:evenodd;fill:url(#linear0);" d="M 40.746094 38.664062 L 38.132812 35.847656 C 39.484375 35.097656 40.757812 34.152344 41.90625 33.003906 C 48.460938 26.445312 48.460938 15.796875 41.90625 9.242188 C 35.347656 2.6875 24.699219 2.6875 18.136719 9.242188 C 11.582031 15.796875 11.582031 26.445312 18.136719 33.003906 C 20.414062 35.285156 23.179688 36.765625 26.105469 37.460938 L 26.105469 46.113281 C 23.226562 46.957031 21.121094 49.613281 21.121094 52.757812 C 21.121094 56.578125 24.226562 59.675781 28.042969 59.675781 C 31.863281 59.675781 34.960938 56.578125 34.960938 52.757812 C 34.960938 49.613281 32.863281 46.957031 29.988281 46.113281 L 29.988281 37.929688 C 31.421875 37.929688 32.855469 37.746094 34.253906 37.386719 L 37.910156 41.320312 C 37.292969 42.355469 36.941406 43.5625 36.941406 44.847656 C 36.941406 48.664062 40.039062 51.765625 43.863281 51.765625 C 47.679688 51.765625 50.78125 48.664062 50.78125 44.847656 C 50.78125 41.027344 47.679688 37.929688 43.863281 37.929688 C 42.742188 37.929688 41.6875 38.191406 40.746094 38.664062 Z M 30.542969 16.152344 L 21.121094 25.578125 L 21.210938 29.933594 L 25.566406 30.023438 L 34.988281 20.597656 Z M 35.882812 12.59375 C 35.390625 12.105469 34.59375 12.105469 34.105469 12.59375 L 32.324219 14.375 L 36.769531 18.820312 L 38.550781 17.039062 C 39.039062 16.550781 39.039062 15.753906 38.550781 15.261719 Z M 35.882812 12.59375 "/>
</g>
</svg>
