<svg xmlns="http://www.w3.org/2000/svg" xmlns:xlink="http://www.w3.org/1999/xlink" width="64px" height="64px" viewBox="0 0 64 64" version="1.1">
<defs>
<linearGradient id="linear0" gradientUnits="userSpaceOnUse" x1="0" y1="0" x2="0" y2="1" gradientTransform="matrix(26.216216,0,0,51.891892,18.891894,6.054054)">
<stop offset="0" style="stop-color:#00a2ff;stop-opacity:1;"/>
<stop offset="0.5" style="stop-color:#dddddd;stop-opacity:1;"/>
<stop offset="1" style="stop-color:#00ffae;stop-opacity:1;"/>
</linearGradient>
</defs>
<g id="surface1">
<path style=" stroke:none;fill-rule:evenodd;fill:url(#linear0);" d="M 33.148438 12.390625 C 33.148438 8.90625 36.160156 6.054688 39.644531 6.054688 C 42.8125 6.054688 45.109375 8.191406 45.109375 11.441406 C 45.109375 15.085938 42.097656 17.785156 38.539062 17.785156 C 35.289062 17.78125 33.148438 15.636719 33.148438 12.390625 Z M 28.867188 27.996094 C 29.429688 26.570312 28.710938 25.863281 28.078125 25.863281 C 25.148438 25.863281 21.347656 32.753906 19.921875 32.753906 C 19.363281 32.753906 18.890625 32.199219 18.890625 31.726562 C 18.890625 30.292969 22.375 26.96875 23.40625 25.9375 C 26.578125 22.929688 30.691406 20.632812 35.289062 20.632812 C 38.691406 20.632812 42.335938 22.6875 39.488281 30.378906 L 33.785156 45.824219 C 33.308594 47.011719 32.4375 48.996094 32.4375 50.261719 C 32.4375 50.8125 32.753906 51.367188 33.382812 51.367188 C 35.761719 51.367188 40.117188 44.636719 41.230469 44.636719 C 41.625 44.636719 42.175781 45.113281 42.175781 45.824219 C 42.175781 48.121094 32.910156 57.945312 24.910156 57.945312 C 22.058594 57.945312 20.078125 56.597656 20.078125 53.589844 C 20.078125 49.789062 22.769531 43.292969 23.328125 41.941406 C 23.328125 41.941406 28.867188 27.996094 28.867188 27.996094 Z M 28.867188 27.996094 "/>
</g>
</svg>
