<svg xmlns="http://www.w3.org/2000/svg" xmlns:xlink="http://www.w3.org/1999/xlink" width="64px" height="64px" viewBox="0 0 64 64" version="1.1">
<defs>
<linearGradient id="linear0" gradientUnits="userSpaceOnUse" x1="0" y1="0" x2="0" y2="1" gradientTransform="matrix(49.423422,0,0,55.351351,7.288288,4.324324)">
<stop offset="0" style="stop-color:#05f7ff;stop-opacity:1;"/>
<stop offset="0.5" style="stop-color:#dddddd;stop-opacity:1;"/>
<stop offset="1" style="stop-color:#e6ff05;stop-opacity:1;"/>
</linearGradient>
</defs>
<g id="surface1">
<path style=" stroke:none;fill-rule:evenodd;fill:url(#linear0);" d="M 10.039062 4.324219 C 8.429688 4.6875 7.164062 5.6875 7.296875 7.511719 L 9.445312 41.929688 C 9.53125 43.027344 10.054688 44.015625 10.875 44.632812 L 30.210938 59.070312 C 31.292969 59.878906 32.707031 59.878906 33.789062 59.070312 L 53.125 44.632812 C 53.945312 44.015625 54.46875 43.027344 54.554688 41.929688 L 56.703125 7.511719 C 56.835938 5.6875 55.570312 4.6875 53.960938 4.324219 Z M 33.375 19.152344 L 29.253906 23.699219 L 33.375 23.699219 L 34.742188 25.082031 L 37.488281 20.929688 L 36.117188 19.152344 Z M 38.863281 21.125 L 36.117188 25.082031 L 37.488281 29.234375 L 41.613281 25.082031 L 41.613281 26.460938 L 37.488281 30.617188 L 38.863281 33.382812 L 44.355469 27.847656 L 44.355469 29.234375 L 38.863281 34.765625 L 44.355469 34.765625 L 46.828125 32 L 46.828125 29.234375 L 45.835938 27.847656 L 45.835938 25.082031 L 42.984375 23.699219 L 41.613281 21.125 Z M 23.761719 27.847656 L 25.136719 34.765625 L 25.136719 36.152344 L 13.566406 46.644531 L 14.324219 47.203125 C 15.988281 45.679688 22.421875 39.8125 26.503906 36.152344 Z M 33.375 40.300781 L 34.742188 40.300781 L 27.878906 48.605469 Z M 26.503906 25.082031 L 25.136719 26.460938 L 27.878906 36.152344 L 16.539062 48.855469 L 25.03125 55.203125 L 36.117188 40.300781 L 38.863281 40.300781 L 40.238281 38.917969 L 42.984375 37.539062 L 44.355469 35.957031 L 37.488281 35.957031 L 36.117188 32 L 34.742188 32 L 33.375 35.957031 L 30.625 35.957031 L 32 32 L 29.253906 29.234375 L 30.625 27.847656 L 33.375 30.617188 L 36.117188 30.617188 L 36.117188 29.234375 L 33.375 25.082031 Z M 26.503906 25.082031 "/>
</g>
</svg>
