<svg xmlns="http://www.w3.org/2000/svg" xmlns:xlink="http://www.w3.org/1999/xlink" width="64px" height="64px" viewBox="0 0 64 64" version="1.1">
<defs>
<linearGradient id="linear0" gradientUnits="userSpaceOnUse" x1="0" y1="0" x2="0" y2="1" gradientTransform="matrix(55.351351,0,0,55.351351,4.324324,4.324324)">
<stop offset="0" style="stop-color:#ffae00;stop-opacity:1;"/>
<stop offset="0.5" style="stop-color:#dddddd;stop-opacity:1;"/>
<stop offset="1" style="stop-color:#6600ff;stop-opacity:1;"/>
</linearGradient>
</defs>
<g id="surface1">
<path style=" stroke:none;fill-rule:nonzero;fill:url(#linear0);" d="M 4.335938 59.644531 C 4.324219 59.609375 4.320312 47.160156 4.328125 31.960938 L 4.335938 4.324219 L 59.675781 4.324219 L 59.675781 59.675781 L 32.015625 59.675781 C 9.910156 59.675781 4.351562 59.675781 4.335938 59.636719 Z M 30.636719 50.335938 L 30.636719 48.609375 L 9.878906 48.609375 L 9.878906 52.054688 L 30.636719 52.054688 Z M 36.40625 35.011719 C 38.363281 34.742188 39.8125 34.0625 40.933594 32.886719 C 42.207031 31.542969 42.882812 29.679688 43.050781 27.082031 C 43.070312 26.679688 43.089844 23.347656 43.089844 18.664062 L 43.089844 10.90625 L 37.90625 10.90625 L 37.886719 19.011719 C 37.867188 27.46875 37.878906 27.273438 37.6875 27.988281 C 37.390625 29.152344 36.726562 29.878906 35.703125 30.164062 C 35.292969 30.273438 34.21875 30.261719 33.78125 30.121094 C 32.941406 29.894531 32.171875 29.40625 31.300781 28.550781 C 30.96875 28.21875 30.6875 27.960938 30.679688 27.960938 C 30.664062 27.960938 29.949219 28.769531 29.089844 29.765625 C 27.933594 31.089844 27.527344 31.585938 27.554688 31.632812 C 27.636719 31.785156 28.363281 32.515625 28.78125 32.878906 C 30.203125 34.105469 31.917969 34.851562 33.769531 35.054688 C 34.269531 35.109375 35.863281 35.089844 36.410156 35 Z M 23.703125 32.515625 L 23.703125 30.257812 L 20.257812 30.257812 L 20.257812 15.390625 L 23.703125 15.390625 L 23.703125 10.90625 L 11.957031 10.90625 L 11.957031 15.390625 L 15.402344 15.390625 L 15.402344 30.257812 L 11.957031 30.257812 L 11.957031 34.785156 L 23.703125 34.785156 Z M 23.703125 32.515625 "/>
</g>
</svg>
