<svg xmlns="http://www.w3.org/2000/svg" xmlns:xlink="http://www.w3.org/1999/xlink" width="64px" height="64px" viewBox="0 0 64 64" version="1.1">
<defs>
<linearGradient id="linear0" gradientUnits="userSpaceOnUse" x1="0" y1="0" x2="0" y2="1" gradientTransform="matrix(55.351351,0,0,55.351351,4.324324,4.324324)">
<stop offset="0" style="stop-color:#ff8963;stop-opacity:1;"/>
<stop offset="0.5" style="stop-color:#dddddd;stop-opacity:1;"/>
<stop offset="1" style="stop-color:#0F6FFF;stop-opacity:1;"/>
</linearGradient>
</defs>
<g id="surface1">
<path style=" stroke:none;fill-rule:nonzero;fill:url(#linear0);" d="M 28.390625 4.324219 C 20.800781 4.324219 14.625 6.917969 14.625 10.113281 C 14.625 11.3125 15.476562 12.429688 16.960938 13.351562 C 16.863281 13.460938 16.835938 13.53125 16.734375 13.648438 C 15.707031 13.226562 14.558594 13.050781 13.429688 13.050781 C 8.621094 13.050781 4.324219 17.136719 4.324219 22.753906 C 4.324219 27.714844 7.664062 31.5 11.769531 32.300781 C 12.503906 37.796875 14.914062 42.558594 18.3125 45.765625 C 18.441406 45.96875 18.578125 46.265625 18.6875 46.511719 C 18.394531 45.558594 18.238281 44.550781 18.238281 43.511719 C 18.226562 37.246094 24.203125 32.789062 30.867188 33.273438 C 32.550781 33.402344 34.136719 33.847656 35.609375 34.484375 L 41.78125 13.191406 C 41.179688 13.300781 40.605469 13.417969 40.050781 13.648438 C 39.949219 13.53125 39.921875 13.460938 39.824219 13.351562 C 41.308594 12.429688 42.160156 11.3125 42.160156 10.113281 C 42.160156 6.917969 35.984375 4.324219 28.390625 4.324219 Z M 46.253906 6.164062 L 37.105469 38.066406 C 35.363281 36.734375 33.136719 35.875 30.726562 35.699219 C 25.152344 35.289062 20.648438 38.796875 20.652344 43.527344 C 20.664062 48.257812 25.1875 52.394531 30.757812 52.808594 C 35.542969 53.160156 39.53125 50.617188 40.554688 46.890625 L 40.621094 46.707031 C 40.636719 46.660156 40.644531 46.609375 40.652344 46.558594 L 47.511719 22.644531 C 49.203125 27.917969 53.136719 31.949219 59.675781 31.878906 C 55.46875 29.6875 53.28125 24.253906 52.296875 18.808594 C 51.3125 13.355469 51.617188 8.511719 51.617188 8.511719 L 51.582031 8.488281 L 51.617188 8.382812 Z M 13.429688 18.914062 C 13.460938 18.914062 13.46875 18.910156 13.5 18.914062 C 12.542969 21.136719 11.957031 23.664062 11.699219 26.285156 C 10.199219 25.632812 9.292969 24.136719 9.292969 22.753906 C 9.292969 20.882812 10.886719 18.914062 13.429688 18.914062 Z M 18.914062 47.117188 C 19.210938 48.089844 19.234375 49.269531 18.539062 50.648438 C 18.5 50.730469 18.488281 50.800781 18.460938 50.878906 C 16.039062 51.8125 14.554688 53.082031 14.554688 54.488281 C 14.554688 57.347656 20.757812 59.675781 28.390625 59.675781 C 36.027344 59.675781 42.160156 57.347656 42.160156 54.488281 C 42.160156 53.53125 41.460938 52.621094 40.269531 51.851562 C 37.890625 54.1875 34.347656 55.511719 30.570312 55.238281 C 25.253906 54.847656 20.585938 51.605469 18.914062 47.117188 Z M 18.914062 47.117188 "/>
</g>
</svg>
