<svg xmlns="http://www.w3.org/2000/svg" xmlns:xlink="http://www.w3.org/1999/xlink" width="64px" height="64px" viewBox="0 0 64 64" version="1.1">
<defs>
<linearGradient id="linear0" gradientUnits="userSpaceOnUse" x1="0" y1="0" x2="0" y2="1" gradientTransform="matrix(55.351351,0,0,49.819821,4.324324,7.09009)">
<stop offset="0" style="stop-color:#00b7ff;stop-opacity:1;"/>
<stop offset="0.5" style="stop-color:#dddddd;stop-opacity:1;"/>
<stop offset="1" style="stop-color:#ee42d9;stop-opacity:1;"/>
</linearGradient>
</defs>
<g id="surface1">
<path style=" stroke:none;fill-rule:nonzero;fill:url(#linear0);" d="M 30.617188 7.089844 C 21.867188 7.105469 14.625 13.902344 14.066406 22.625 C 8.378906 23.894531 4.335938 28.941406 4.324219 34.765625 C 4.324219 41.644531 9.902344 47.21875 16.78125 47.21875 L 16.71875 47.21875 L 17.851562 47.285156 C 18.121094 48.230469 18.363281 49.1875 18.300781 50.125 C 18.335938 52.472656 17.039062 53.90625 15.460938 55.273438 C 15.054688 55.488281 14.746094 55.738281 14.78125 55.828125 C 14.875 56.121094 16.71875 56.746094 17.808594 56.863281 C 19.207031 57 21.160156 56.828125 22.269531 56.410156 C 24.042969 55.746094 25.476562 54.636719 26.476562 53.136719 C 27.335938 51.847656 27.789062 50.570312 27.921875 49.089844 L 28.039062 47.285156 L 34.988281 47.21875 L 49.296875 47.21875 C 55.03125 47.21875 59.675781 42.578125 59.675781 36.839844 C 59.675781 31.113281 55.03125 26.460938 49.296875 26.460938 C 48.5 26.46875 47.707031 26.5625 46.933594 26.753906 C 47.121094 25.742188 47.214844 24.71875 47.21875 23.699219 C 47.21875 14.527344 39.789062 7.089844 30.617188 7.089844 Z M 30.617188 7.089844 "/>
</g>
</svg>
