<svg xmlns="http://www.w3.org/2000/svg" xmlns:xlink="http://www.w3.org/1999/xlink" width="64px" height="64px" viewBox="0 0 64 64" version="1.1">
<defs>
<linearGradient id="linear0" gradientUnits="userSpaceOnUse" x1="0" y1="0" x2="0" y2="1" gradientTransform="matrix(55.351351,0,0,36.702703,4.324324,13.648649)">
<stop offset="0" style="stop-color:#05f7ff;stop-opacity:1;"/>
<stop offset="0.5" style="stop-color:#dddddd;stop-opacity:1;"/>
<stop offset="1" style="stop-color:#e6ff05;stop-opacity:1;"/>
</linearGradient>
</defs>
<g id="surface1">
<path style=" stroke:none;fill-rule:evenodd;fill:url(#linear0);" d="M 23.390625 18.003906 C 22.726562 15.828125 21.585938 14.328125 20.015625 13.828125 C 15.605469 12.414062 9.414062 19.414062 6.210938 29.441406 C 3.003906 39.472656 3.988281 48.761719 8.402344 50.171875 C 11.988281 51.320312 16.746094 46.914062 20.121094 39.839844 L 43.878906 39.839844 C 47.253906 46.914062 52.011719 51.320312 55.597656 50.171875 C 60.011719 48.761719 60.996094 39.472656 57.789062 29.441406 C 54.585938 19.414062 48.394531 12.414062 43.984375 13.828125 C 42.414062 14.328125 41.273438 15.828125 40.609375 18.003906 Z M 33.960938 20.347656 L 33.960938 29.242188 L 37.300781 29.242188 L 31.738281 35.914062 L 26.179688 29.242188 L 29.515625 29.242188 L 29.515625 20.347656 Z M 25.066406 35.914062 L 38.410156 35.914062 L 38.410156 38.136719 L 25.066406 38.136719 Z M 25.066406 35.914062 "/>
</g>
</svg>
