<svg xmlns="http://www.w3.org/2000/svg" xmlns:xlink="http://www.w3.org/1999/xlink" width="64px" height="64px" viewBox="0 0 64 64" version="1.1">
<defs>
<linearGradient id="linear0" gradientUnits="userSpaceOnUse" x1="0" y1="0" x2="0" y2="1" gradientTransform="matrix(55.351351,0,0,45.288287,4.324324,9.355856)">
<stop offset="0" style="stop-color:#ffae00;stop-opacity:1;"/>
<stop offset="0.5" style="stop-color:#dddddd;stop-opacity:1;"/>
<stop offset="1" style="stop-color:#6600ff;stop-opacity:1;"/>
</linearGradient>
</defs>
<g id="surface1">
<path style=" stroke:none;fill-rule:evenodd;fill:url(#linear0);" d="M 9.921875 9.355469 C 19.707031 20.5 21.003906 32 20.488281 39.550781 C 20.03125 46.164062 15.960938 48.636719 15.1875 48.957031 C 13.5625 49.605469 9.753906 50.578125 4.324219 47.097656 C 4.324219 51.160156 7.8125 54.644531 13.890625 54.644531 C 19.96875 54.644531 24.941406 49.765625 25.949219 44.269531 C 29.460938 15.902344 22.789062 11.917969 22.789062 11.917969 C 22.789062 11.917969 16.679688 9.355469 9.921875 9.355469 Z M 29.488281 9.355469 C 31.261719 16.882812 44.578125 19.847656 44.578125 23.421875 C 44.578125 27.003906 34.367188 27.621094 34.511719 33.421875 C 34.664062 41.441406 47.539062 52.050781 59.675781 54.644531 C 54.347656 48.472656 40.878906 35.023438 45.324219 31.566406 C 61.308594 20.707031 46.648438 11.824219 29.488281 9.355469 Z M 29.488281 9.355469 "/>
</g>
</svg>
