<svg xmlns="http://www.w3.org/2000/svg" xmlns:xlink="http://www.w3.org/1999/xlink" width="64px" height="64px" viewBox="0 0 64 64" version="1.1">
<defs>
<linearGradient id="linear0" gradientUnits="userSpaceOnUse" x1="0" y1="0" x2="0" y2="1" gradientTransform="matrix(55.333334,0,0,55.351351,4.333333,4.324324)">
<stop offset="0" style="stop-color:#ff8963;stop-opacity:1;"/>
<stop offset="0.5" style="stop-color:#dddddd;stop-opacity:1;"/>
<stop offset="1" style="stop-color:#0F6FFF;stop-opacity:1;"/>
</linearGradient>
</defs>
<g id="surface1">
<path style=" stroke:none;fill-rule:evenodd;fill:url(#linear0);" d="M 44.910156 4.363281 L 59.664062 4.324219 C 59.6875 11.261719 58.6875 18.160156 56.714844 24.796875 C 54.929688 30.976562 52.179688 36.839844 48.5625 42.152344 C 46.847656 44.664062 44.890625 47.003906 42.753906 49.164062 C 40.652344 51.242188 38.347656 53.089844 35.835938 54.675781 C 33.363281 56.242188 30.6875 57.484375 27.886719 58.347656 C 25.042969 59.214844 22.078125 59.675781 19.109375 59.675781 L 19.070312 44.917969 C 20.585938 44.917969 22.078125 44.699219 23.539062 44.257812 C 25.085938 43.757812 26.582031 43.078125 27.960938 42.207031 C 29.542969 41.191406 31.003906 40.03125 32.335938 38.703125 C 33.828125 37.210938 35.171875 35.585938 36.375 33.855469 C 39.121094 29.796875 41.203125 25.351562 42.566406 20.644531 C 44.136719 15.375 44.929688 9.878906 44.910156 4.363281 Z M 19.089844 59.675781 L 4.335938 59.675781 L 4.335938 4.339844 L 19.089844 4.339844 Z M 19.089844 59.675781 "/>
</g>
</svg>
