<svg xmlns="http://www.w3.org/2000/svg" xmlns:xlink="http://www.w3.org/1999/xlink" width="64px" height="64px" viewBox="0 0 64 64" version="1.1">
<defs>
<linearGradient id="linear0" gradientUnits="userSpaceOnUse" x1="0" y1="0" x2="0" y2="1" gradientTransform="matrix(55.351351,0,0,43.819821,4.324324,10.09009)">
<stop offset="0" style="stop-color:#ffae00;stop-opacity:1;"/>
<stop offset="0.5" style="stop-color:#dddddd;stop-opacity:1;"/>
<stop offset="1" style="stop-color:#bf1d1d;stop-opacity:1;"/>
</linearGradient>
</defs>
<g id="surface1">
<path style=" stroke:none;fill-rule:nonzero;fill:url(#linear0);" d="M 42.625 53.253906 C 44.582031 51.734375 57.136719 41.105469 58.402344 39.894531 C 60.054688 38.300781 60.070312 37.882812 58.609375 33.625 C 55.40625 24.300781 49.765625 12.71875 47.234375 10.710938 C 46.175781 9.875 44.230469 9.886719 42.863281 10.734375 C 40.949219 11.921875 41.039062 13.523438 43.207031 17.320312 C 43.988281 18.6875 44.636719 20.355469 44.636719 20.46875 C 44.636719 20.585938 44.363281 20.675781 44.027344 20.675781 C 43.605469 20.675781 42.632812 19.472656 40.742188 16.605469 C 37.867188 12.234375 37.039062 11.542969 35.148438 11.921875 C 33.726562 12.210938 32.105469 13.3125 31.566406 14.351562 C 30.949219 15.558594 31.203125 16.164062 34.082031 20.347656 C 35.855469 22.917969 36.335938 23.835938 36.0625 24.117188 C 35.863281 24.320312 35.597656 24.484375 35.472656 24.484375 C 35.347656 24.484375 33.738281 22.414062 31.894531 19.882812 C 30.714844 18.269531 29.796875 17.082031 29.113281 16.292969 C 27.933594 14.6875 26.8125 15.1875 25.363281 15.714844 C 24.328125 16.230469 23.28125 16.960938 22.761719 17.644531 C 21.550781 19.242188 21.730469 20.257812 23.71875 23.058594 C 24.679688 24.40625 26.105469 26.296875 26.882812 27.261719 C 28.246094 28.949219 28.582031 30.136719 27.757812 30.410156 C 27.28125 30.566406 27.527344 30.839844 18.355469 20.0625 C 12.679688 13.386719 10.011719 10.488281 9.339844 10.253906 C 8.089844 9.808594 6.714844 10.386719 5.378906 11.929688 C 3.390625 14.203125 3.164062 13.800781 14.324219 27.402344 C 19.796875 34.070312 24.417969 39.714844 24.589844 39.941406 C 25.21875 40.761719 23.511719 39.785156 20.523438 38.785156 C 18 37.941406 17.085938 37.78125 15.4375 37.882812 C 12.703125 38.113281 11.460938 39.617188 11.402344 41.699219 C 11.355469 43.144531 12.746094 44.542969 14.449219 45.414062 C 15.421875 45.910156 27.121094 50.300781 35.984375 52.972656 C 39.851562 54.136719 41.394531 54.203125 42.625 53.253906 Z M 42.625 53.253906 "/>
</g>
</svg>
