<svg xmlns="http://www.w3.org/2000/svg" xmlns:xlink="http://www.w3.org/1999/xlink" width="64px" height="64px" viewBox="0 0 64 64" version="1.1">
<defs>
<linearGradient id="linear0" gradientUnits="userSpaceOnUse" x1="0" y1="0" x2="0" y2="1" gradientTransform="matrix(55.351351,0,0,55.351351,4.324324,4.324324)">
<stop offset="0" style="stop-color:#00fff2;stop-opacity:1;"/>
<stop offset="0.5" style="stop-color:#dddddd;stop-opacity:1;"/>
<stop offset="1" style="stop-color:#0062ff;stop-opacity:1;"/>
</linearGradient>
</defs>
<g id="surface1">
<path style=" stroke:none;fill-rule:evenodd;fill:url(#linear0);" d="M 32.003906 4.324219 C 24.679688 4.324219 1.097656 47.070312 4.691406 54.292969 C 8.289062 61.511719 55.757812 61.429688 59.3125 54.292969 C 62.867188 47.160156 39.328125 4.324219 32.003906 4.324219 Z M 49.558594 47.320312 C 47.269531 51.910156 16.761719 51.960938 14.445312 47.320312 C 12.136719 42.679688 27.292969 15.199219 32.003906 15.199219 C 36.710938 15.199219 51.839844 42.730469 49.558594 47.320312 Z M 22.246094 41.9375 C 20.960938 39.363281 29.382812 24.09375 32 24.09375 C 34.617188 24.09375 43.023438 39.386719 41.757812 41.9375 C 40.488281 44.488281 23.53125 44.515625 22.246094 41.9375 Z M 22.246094 41.9375 "/>
</g>
</svg>
