<svg xmlns="http://www.w3.org/2000/svg" xmlns:xlink="http://www.w3.org/1999/xlink" width="64px" height="64px" viewBox="0 0 64 64" version="1.1">
<defs>
<linearGradient id="linear0" gradientUnits="userSpaceOnUse" x1="0" y1="0" x2="0" y2="1" gradientTransform="matrix(44.288287,0,0,55.351351,9.855856,4.324324)">
<stop offset="0" style="stop-color:#00a2ff;stop-opacity:1;"/>
<stop offset="0.5" style="stop-color:#dddddd;stop-opacity:1;"/>
<stop offset="1" style="stop-color:#00ffae;stop-opacity:1;"/>
</linearGradient>
</defs>
<g id="surface1">
<path style=" stroke:none;fill-rule:nonzero;fill:url(#linear0);" d="M 44.652344 4.324219 C 39.585938 9.691406 36.460938 15.429688 34.949219 21.957031 C 32.996094 30.394531 33.308594 39.675781 33.488281 52.625 L 44.460938 52.625 C 44.363281 45.609375 44.351562 39.90625 44.53125 35.0625 L 53.109375 35.0625 L 53.109375 24.089844 L 45.785156 24.089844 C 47.066406 18.792969 49.210938 14.886719 54.144531 10.296875 C 51.375 7.738281 48.160156 5.714844 44.652344 4.324219 Z M 31.160156 10.863281 L 20.1875 10.984375 C 20.378906 28.335938 19.835938 36.957031 18.300781 41.664062 C 16.9375 45.839844 14.671875 48.117188 9.855469 52.625 C 12.238281 55.46875 15.117188 57.855469 18.351562 59.675781 C 23.078125 55.1875 26.726562 51.234375 28.734375 45.070312 C 31.144531 37.703125 31.351562 28.414062 31.160156 10.863281 Z M 31.160156 10.863281 "/>
</g>
</svg>
