<svg xmlns="http://www.w3.org/2000/svg" xmlns:xlink="http://www.w3.org/1999/xlink" width="64px" height="64px" viewBox="0 0 64 64" version="1.1">
<defs>
<linearGradient id="linear0" gradientUnits="userSpaceOnUse" x1="0" y1="0" x2="0" y2="1" gradientTransform="matrix(40.783784,0,0,55.351351,11.608107,4.324324)">
<stop offset="0" style="stop-color:#ff8963;stop-opacity:1;"/>
<stop offset="0.5" style="stop-color:#dddddd;stop-opacity:1;"/>
<stop offset="1" style="stop-color:#0F6FFF;stop-opacity:1;"/>
</linearGradient>
</defs>
<g id="surface1">
<path style=" stroke:none;fill-rule:evenodd;fill:url(#linear0);" d="M 46.714844 21.496094 C 45.523438 21.78125 44.402344 22.347656 43.414062 23.054688 C 41.800781 25.253906 39.5625 27.027344 36.585938 27.726562 C 35.457031 26.90625 34.082031 25.949219 33.136719 24.867188 C 28.835938 25.363281 22.902344 26.3125 21.878906 30.441406 C 20.8125 34.730469 23.636719 40.328125 25.9375 40.660156 C 28.117188 40.960938 35.125 39.015625 38.511719 38.113281 C 35.675781 35.90625 32.410156 34.941406 30.625 34.824219 C 28.527344 34.664062 26.714844 35.039062 24.835938 35.515625 C 27.585938 33.753906 30.078125 32.433594 32.539062 31.941406 C 34.386719 31.59375 37.257812 31.582031 40.703125 32.863281 C 44.972656 34.457031 45.996094 36.730469 48.988281 37.746094 C 50.972656 37.441406 49.96875 35.246094 49.558594 33.726562 C 49.285156 32.902344 49.066406 32.269531 48.976562 31.996094 C 48.828125 31.539062 46.679688 26.078125 46.367188 24.671875 C 46.164062 23.714844 46.339844 22.460938 46.71875 21.496094 Z M 36.367188 12.910156 C 33.378906 14.164062 33.273438 16.539062 33.113281 19.109375 C 34.363281 17.976562 38.300781 17.148438 39.367188 16.230469 C 42.511719 13.523438 43.730469 7.921875 43.066406 8.746094 C 40.933594 11.4375 37.46875 12.300781 36.367188 12.90625 Z M 19.902344 50.539062 C 19.902344 50.539062 16.933594 48.582031 16.988281 47.957031 C 18.941406 37.441406 12.21875 44.917969 11.710938 49.632812 C 11.175781 54.148438 12.847656 59.355469 13.09375 59.675781 C 13.496094 55.988281 13.847656 53.941406 19.902344 50.539062 Z M 52.363281 27.367188 C 52.210938 23.457031 49.742188 20.753906 48.066406 21.386719 C 47.351562 21.660156 46.875 23.476562 47.125 24.613281 C 47.945312 28.636719 51.347656 33.28125 50.503906 37.257812 C 49.875 39.164062 44.296875 40.339844 44.296875 40.339844 C 44.296875 40.339844 44.1875 41.972656 43.984375 43.085938 C 43.726562 44.429688 43.210938 45.5 43.210938 45.5 C 43.210938 45.5 44.539062 46.679688 44.589844 46.679688 C 44.644531 46.679688 52.929688 42.402344 52.363281 27.367188 Z M 48.679688 38.148438 C 47.308594 37.589844 46.828125 37.351562 45.03125 36.027344 C 35.105469 28.648438 25.960938 35.039062 26.144531 34.972656 C 27.789062 34.460938 29.648438 33.988281 32.058594 34.136719 C 34.003906 34.269531 36.597656 35.496094 39.800781 38.136719 C 41.957031 40.023438 45.210938 40.261719 48.671875 38.148438 Z M 39.363281 17.054688 C 35.6875 18.230469 33.707031 19.242188 33.113281 19.707031 C 31.894531 22.792969 34.347656 25.117188 36.585938 26.742188 C 39.527344 26.054688 41.976562 23.882812 43.070312 21.496094 C 42.496094 21.578125 41.886719 21.460938 41.214844 21.089844 C 39.90625 20.363281 39.109375 18.589844 39.363281 17.054688 Z M 44.703125 16.46875 C 44.460938 15.53125 43.699219 14.335938 43.488281 14.335938 C 43.296875 14.335938 41.257812 15.839844 40.730469 16.363281 C 39.539062 17.558594 40.117188 19.71875 41.441406 20.460938 C 43.6875 21.714844 45.339844 18.960938 44.707031 16.472656 Z M 42.960938 13.296875 C 43.855469 12.441406 45.054688 11.039062 45.363281 8.894531 C 45.542969 6.976562 45.078125 5.792969 44.496094 4.324219 C 44.210938 7.191406 43.792969 10.386719 41.828125 13.773438 C 41.210938 14.839844 41.550781 14.648438 42.960938 13.296875 Z M 17.773438 43.011719 C 18.082031 43.789062 18.0625 45.269531 17.597656 47.796875 C 17.589844 47.820312 17.597656 47.835938 17.597656 47.863281 C 17.921875 48.3125 18.597656 48.855469 19.273438 49.355469 C 21.585938 48.285156 24.5 46.269531 24.3125 46.242188 C 23.078125 46.03125 19.242188 45.105469 17.773438 43.011719 Z M 38.957031 38.511719 C 38.851562 38.511719 38.773438 38.511719 38.550781 38.5625 C 35.664062 39.363281 28.300781 41.238281 27.152344 42.488281 C 26.703125 43.4375 26.261719 47.234375 19.792969 49.644531 C 19.613281 49.707031 25.226562 53.3125 25.53125 53.335938 C 43.851562 54.097656 43.828125 41.011719 43.589844 40.417969 C 41.808594 40.445312 40.296875 39.824219 39.132812 38.6875 C 39.070312 38.625 39.015625 38.566406 38.957031 38.511719 Z M 38.957031 38.511719 "/>
</g>
</svg>
