<svg xmlns="http://www.w3.org/2000/svg" xmlns:xlink="http://www.w3.org/1999/xlink" width="64px" height="64px" viewBox="0 0 64 64" version="1.1">
<g id="surface1">
<path style=" stroke:none;fill-rule:nonzero;fill:rgb(94.901961%,94.901961%,94.901961%);fill-opacity:1;" d="M 32 8.648438 C 44.894531 8.648438 55.351562 19.101562 55.351562 32 C 55.351562 44.894531 44.894531 55.351562 32 55.351562 C 19.101562 55.351562 8.648438 44.894531 8.648438 32 C 8.648438 19.101562 19.101562 8.648438 32 8.648438 Z M 32 8.648438 "/>
<path style=" stroke:none;fill-rule:nonzero;fill:rgb(86.666667%,26.274511%,37.254903%);fill-opacity:1;" d="M 28.941406 28.953125 C 27.039062 31.464844 25.328125 34.253906 23.945312 37.078125 C 26.046875 37.75 29.113281 37.460938 32.277344 37.078125 C 33.472656 36.335938 34.609375 35.363281 35.71875 34.035156 C 31.996094 34.035156 29.664062 33.410156 29.664062 33.015625 L 36.363281 33.015625 C 37.292969 32.042969 38.246094 30.929688 38.96875 29.96875 C 35.714844 29.96875 33.011719 29.558594 33.011719 28.957031 C 32 27.9375 31.484375 28.261719 28.9375 28.953125 "/>
<path style=" stroke:none;fill-rule:nonzero;fill:rgb(89.803922%,47.843137%,33.333334%);fill-opacity:1;" d="M 32.429688 24.890625 C 31.226562 26.125 30.054688 27.488281 28.941406 28.953125 L 39.710938 28.953125 C 40.386719 27.957031 40.945312 26.886719 41.414062 25.910156 C 38.511719 25.910156 36.5625 25.253906 36.5625 24.894531 C 36.0625 23.878906 34.03125 23.878906 32.429688 24.890625 "/>
<path style=" stroke:none;fill-rule:nonzero;fill:rgb(96.078432%,67.843139%,27.058825%);fill-opacity:1;" d="M 43.167969 18.800781 C 39.835938 18.800781 35.988281 21.238281 32.429688 24.890625 L 41.898438 24.890625 C 42.777344 22.726562 43.171875 20.660156 43.164062 18.804688 Z M 43.167969 18.800781 "/>
<path style=" stroke:none;fill-rule:nonzero;fill:rgb(75.294119%,33.725491%,72.941178%);fill-opacity:1;" d="M 23.949219 37.078125 C 23.855469 37.269531 23.75 37.460938 23.660156 37.65625 C 22.355469 40.414062 21.253906 43.398438 20.835938 45.199219 L 21.34375 45.175781 C 23.238281 39.71875 25.414062 39.277344 26.449219 39.105469 C 28.648438 38.738281 30.53125 38.164062 32.28125 37.078125 Z M 23.949219 37.078125 "/>
</g>
</svg>
