<svg xmlns="http://www.w3.org/2000/svg" xmlns:xlink="http://www.w3.org/1999/xlink" width="64px" height="64px" viewBox="0 0 64 64" version="1.1">
<defs>
<linearGradient id="linear0" gradientUnits="userSpaceOnUse" x1="0" y1="0" x2="0" y2="1" gradientTransform="matrix(55.351351,0,0,55.243243,4.324324,4.378378)">
<stop offset="0" style="stop-color:#05f7ff;stop-opacity:1;"/>
<stop offset="0.5" style="stop-color:#dddddd;stop-opacity:1;"/>
<stop offset="1" style="stop-color:#e6ff05;stop-opacity:1;"/>
</linearGradient>
</defs>
<g id="surface1">
<path style=" stroke:none;fill-rule:nonzero;fill:url(#linear0);" d="M 23.660156 4.378906 L 4.324219 13.527344 L 4.324219 58.242188 C 4.324219 58.503906 4.402344 58.738281 4.496094 58.933594 C 4.605469 59.164062 4.789062 59.339844 5.015625 59.449219 C 5.210938 59.550781 5.445312 59.621094 5.703125 59.621094 C 5.988281 59.621094 6.226562 59.644531 6.226562 59.363281 L 23.660156 51.335938 L 40.234375 59.621094 L 59.570312 50.46875 L 59.570312 17.671875 L 40.234375 37.011719 L 40.234375 53.585938 L 26.164062 46.335938 L 23.660156 45.292969 L 23.660156 10.511719 L 23.921875 10.417969 L 36.09375 14.5625 L 40.757812 9.902344 L 41.097656 9.636719 L 40.234375 9.902344 Z M 53.269531 4.550781 C 52.820312 4.550781 52.429688 4.617188 52.148438 4.890625 L 49.039062 8 L 55.941406 14.910156 L 59.054688 11.800781 C 59.882812 10.96875 59.882812 9.9375 59.054688 9.386719 L 54.5625 4.890625 C 54.179688 4.644531 53.726562 4.527344 53.269531 4.550781 Z M 47.402344 9.636719 L 29.1875 27.855469 L 29.1875 34.761719 L 36.09375 34.761719 L 54.308594 16.542969 Z M 47.402344 9.636719 "/>
</g>
</svg>
