<svg xmlns="http://www.w3.org/2000/svg" xmlns:xlink="http://www.w3.org/1999/xlink" width="64px" height="64px" viewBox="0 0 64 64" version="1.1">
<defs>
<linearGradient id="linear0" gradientUnits="userSpaceOnUse" x1="0" y1="0" x2="0" y2="1" gradientTransform="matrix(55.351351,0,0,47.96847,4.324324,8.018018)">
<stop offset="0" style="stop-color:#00fff2;stop-opacity:1;"/>
<stop offset="0.5" style="stop-color:#dddddd;stop-opacity:1;"/>
<stop offset="1" style="stop-color:#0062ff;stop-opacity:1;"/>
</linearGradient>
</defs>
<g id="surface1">
<path style=" stroke:none;fill-rule:evenodd;fill:url(#linear0);" d="M 13.542969 35.6875 C 13.542969 34.671875 14.375 33.839844 15.394531 33.839844 C 16.410156 33.839844 17.238281 34.671875 17.238281 35.6875 C 17.238281 36.707031 16.410156 37.539062 15.394531 37.539062 C 14.375 37.539062 13.542969 36.707031 13.542969 35.6875 Z M 46.757812 35.6875 C 46.757812 34.671875 47.585938 33.839844 48.605469 33.839844 C 49.621094 33.839844 50.449219 34.671875 50.449219 35.6875 C 50.449219 36.707031 49.621094 37.539062 48.605469 37.539062 C 47.585938 37.539062 46.757812 36.707031 46.757812 35.6875 Z M 6.164062 36.613281 C 6.164062 31.011719 10.714844 26.460938 16.320312 26.460938 C 21.914062 26.460938 26.460938 31.011719 26.460938 36.613281 C 26.460938 42.210938 21.914062 46.761719 16.320312 46.761719 C 10.714844 46.761719 6.164062 42.210938 6.164062 36.613281 Z M 37.539062 36.613281 C 37.539062 31.011719 42.082031 26.460938 47.679688 26.460938 C 53.285156 26.460938 57.828125 31.011719 57.828125 36.613281 C 57.828125 42.210938 53.285156 46.761719 47.679688 46.761719 C 42.082031 46.761719 37.539062 42.210938 37.539062 36.613281 Z M 36.570312 51.597656 C 38.273438 50.839844 39 49.796875 38 49.542969 C 37.664062 49.460938 36.792969 49.71875 36.054688 50.132812 C 34.410156 51.042969 32.125 51.109375 30.117188 50.300781 C 27.59375 49.289062 26.382812 49.839844 28.402344 51.09375 C 30.625 52.472656 34.136719 52.691406 36.570312 51.597656 Z M 39.96875 8.027344 C 31.550781 8.164062 13.363281 9.449219 10.039062 14.769531 C 9.460938 16.308594 8.417969 21.691406 7.910156 25.8125 C 7.792969 26.765625 7.6875 27.976562 7.566406 29.09375 C 5.488281 31.214844 4.324219 34.070312 4.324219 37.050781 C 4.324219 39.375 5.039062 41.644531 6.367188 43.554688 C 6.347656 43.878906 6.246094 45.253906 6.246094 45.253906 C 6.09375 50.527344 6.214844 50.710938 11.226562 52.796875 C 15.230469 54.460938 19.558594 55.335938 26.144531 55.785156 C 31.769531 56.171875 37.46875 55.988281 41.8125 55.296875 C 49.441406 54.078125 56.066406 51.570312 56.800781 49.636719 C 57.003906 49.113281 57.3125 46.941406 57.476562 44.820312 C 57.511719 44.390625 57.539062 44.027344 57.5625 43.636719 C 58.933594 41.714844 59.664062 39.414062 59.675781 37.050781 C 59.671875 34.238281 58.625 31.527344 56.742188 29.441406 C 56.410156 27.292969 56.011719 24.847656 55.476562 21.660156 C 54.53125 16.707031 53.40625 11.96875 52.976562 11.117188 C 51.71875 8.652344 50.175781 8.179688 42.90625 8.03125 C 42.171875 8.011719 41.171875 8.011719 39.96875 8.03125 Z M 39.96875 8.027344 "/>
</g>
</svg>
