<svg xmlns="http://www.w3.org/2000/svg" xmlns:xlink="http://www.w3.org/1999/xlink" width="64px" height="64px" viewBox="0 0 64 64" version="1.1">
<defs>
<linearGradient id="linear0" gradientUnits="userSpaceOnUse" x1="0" y1="0" x2="0" y2="1" gradientTransform="matrix(55.351351,0,0,55.351351,4.324324,4.324324)">
<stop offset="0" style="stop-color:#ffae00;stop-opacity:1;"/>
<stop offset="0.5" style="stop-color:#dddddd;stop-opacity:1;"/>
<stop offset="1" style="stop-color:#6600ff;stop-opacity:1;"/>
</linearGradient>
</defs>
<g id="surface1">
<path style=" stroke:none;fill-rule:nonzero;fill:url(#linear0);" d="M 29.875 4.324219 L 29.875 17.3125 C 27.433594 17.675781 25.125 18.648438 23.148438 20.121094 L 13.9375 10.921875 L 10.929688 13.9375 L 20.121094 23.148438 C 18.632812 25.117188 17.652344 27.429688 17.296875 29.875 L 4.324219 29.875 L 4.324219 34.125 L 17.296875 34.125 C 17.664062 36.644531 18.664062 38.917969 20.121094 40.851562 L 10.929688 50.0625 L 13.9375 53.070312 L 23.148438 43.863281 C 25.082031 45.308594 27.375 46.320312 29.875 46.6875 L 29.875 59.675781 L 34.125 59.675781 L 34.125 46.6875 C 36.570312 46.324219 38.882812 45.347656 40.851562 43.863281 L 50.0625 53.070312 L 53.070312 50.0625 L 43.863281 40.851562 C 45.367188 38.890625 46.347656 36.578125 46.703125 34.125 L 59.675781 34.125 L 59.675781 29.875 L 46.703125 29.875 C 46.347656 27.421875 45.367188 25.109375 43.863281 23.148438 L 53.070312 13.9375 L 50.0625 10.929688 L 40.851562 20.121094 C 38.875 18.648438 36.566406 17.679688 34.125 17.3125 L 34.125 4.324219 Z M 32 21.355469 C 37.90625 21.355469 42.644531 26.09375 42.644531 32 C 42.644531 37.90625 37.90625 42.644531 32 42.644531 C 29.175781 42.652344 26.460938 41.539062 24.460938 39.539062 C 22.460938 37.539062 21.347656 34.824219 21.355469 32 C 21.355469 26.09375 26.09375 21.355469 32 21.355469 Z M 32 21.355469 "/>
</g>
</svg>
