<svg xmlns="http://www.w3.org/2000/svg" xmlns:xlink="http://www.w3.org/1999/xlink" width="64px" height="64px" viewBox="0 0 64 64" version="1.1">
<defs>
<linearGradient id="linear0" gradientUnits="userSpaceOnUse" x1="0" y1="0" x2="0" y2="1" gradientTransform="matrix(55.351351,0,0,55.351351,4.324324,4.432432)">
<stop offset="0" style="stop-color:#ffae00;stop-opacity:1;"/>
<stop offset="0.5" style="stop-color:#dddddd;stop-opacity:1;"/>
<stop offset="1" style="stop-color:#6600ff;stop-opacity:1;"/>
</linearGradient>
</defs>
<g id="surface1">
<path style=" stroke:none;fill-rule:evenodd;fill:url(#linear0);" d="M 15.21875 38.636719 C 14.988281 38.042969 14.839844 37.421875 14.839844 36.867188 C 14.839844 36.5 14.886719 36.21875 14.933594 35.957031 C 16.4375 36.335938 18.136719 36.636719 19.929688 36.875 L 19.929688 37.089844 C 19.929688 39.886719 21.855469 42.933594 25.410156 43.066406 C 25.53125 43.070312 25.652344 43.078125 25.773438 43.078125 C 27.117188 43.078125 28.355469 42.6875 29.269531 41.988281 C 30.058594 41.378906 31 40.226562 31 38.199219 L 31 37.636719 C 31.335938 37.644531 31.664062 37.644531 32 37.644531 C 32.40625 37.644531 32.8125 37.636719 33.214844 37.636719 L 33.214844 38.199219 C 33.214844 41.566406 35.835938 43.078125 38.441406 43.078125 C 38.558594 43.078125 38.675781 43.070312 38.792969 43.066406 C 42.363281 42.933594 44.285156 39.886719 44.285156 37.089844 L 44.285156 36.847656 C 46.070312 36.597656 47.773438 36.300781 49.273438 35.90625 C 49.335938 36.136719 49.378906 36.402344 49.378906 36.757812 C 49.378906 37.347656 49.230469 38.011719 48.988281 38.636719 L 48.996094 38.636719 C 48.511719 39.9375 47.636719 41.09375 46.714844 41.191406 L 46.054688 41.261719 L 45.800781 41.878906 C 42.660156 49.691406 38.613281 57.6875 32.125 57.566406 C 25.335938 57.460938 21.050781 48.632812 18.414062 41.996094 L 18.171875 41.375 L 17.511719 41.300781 C 16.691406 41.210938 15.738281 39.988281 15.21875 38.636719 Z M 12.957031 38.835938 C 12.742188 38.144531 12.625 37.460938 12.625 36.867188 C 12.625 36.289062 12.699219 35.808594 12.835938 35.4375 C 7.691406 34.070312 4.324219 32.023438 4.324219 29.335938 C 4.324219 26.539062 7.820312 24.328125 14.703125 22.761719 C 16.734375 14.421875 19.308594 4.433594 25.027344 4.433594 C 26.671875 4.433594 27.890625 5.082031 28.960938 5.652344 C 29.960938 6.1875 30.824219 6.644531 32 6.644531 C 33.175781 6.644531 34.039062 6.1875 35.039062 5.652344 C 36.109375 5.082031 37.328125 4.433594 38.972656 4.433594 C 43.796875 4.433594 46.273438 11.421875 48.234375 18.710938 L 48.273438 18.710938 C 48.273438 18.746094 48.261719 18.773438 48.261719 18.8125 C 48.578125 19.988281 48.886719 21.179688 49.1875 22.375 L 49.289062 22.761719 C 56.179688 24.328125 59.675781 26.539062 59.675781 29.335938 C 59.675781 31.984375 56.402344 34.015625 51.382812 35.378906 C 51.515625 35.730469 51.589844 36.191406 51.589844 36.757812 C 51.589844 37.417969 51.460938 38.160156 51.238281 38.902344 C 51.234375 38.917969 51.230469 38.9375 51.21875 38.957031 C 53.402344 40.164062 56.503906 42.433594 59.460938 46.511719 C 59.636719 46.753906 59.710938 47.054688 59.664062 47.339844 C 59.609375 47.636719 59.445312 47.894531 59.207031 48.066406 L 49.320312 55.03125 L 51.570312 57.847656 C 51.917969 58.148438 52.039062 58.636719 51.878906 59.066406 C 51.714844 59.5 51.300781 59.785156 50.839844 59.785156 L 13.179688 59.785156 C 12.757812 59.785156 12.367188 59.539062 12.1875 59.152344 C 12 58.769531 12.054688 58.3125 12.320312 57.984375 L 14.679688 55.03125 L 4.792969 48.066406 C 4.554688 47.894531 4.390625 47.636719 4.339844 47.339844 C 4.289062 47.054688 4.363281 46.753906 4.539062 46.511719 C 7.433594 42.511719 10.773438 40.070312 12.957031 38.835938 Z M 16.691406 23.957031 C 16.894531 23.125 17.113281 22.226562 17.351562 21.289062 C 20.109375 23.378906 26.214844 24.355469 32 24.355469 C 37.753906 24.355469 43.820312 23.402344 46.644531 21.363281 L 47.042969 22.917969 L 47.339844 24.089844 C 46.882812 25.445312 41.148438 27.679688 32 27.679688 C 22.863281 27.679688 17.132812 25.445312 16.664062 24.089844 Z M 16.691406 23.957031 "/>
</g>
</svg>
