<svg xmlns="http://www.w3.org/2000/svg" xmlns:xlink="http://www.w3.org/1999/xlink" width="64px" height="64px" viewBox="0 0 64 64" version="1.1">
<defs>
<linearGradient id="linear0" gradientUnits="userSpaceOnUse" x1="0" y1="0" x2="0" y2="1" gradientTransform="matrix(51.00901,0,0,55.351351,6.495495,4.324324)">
<stop offset="0" style="stop-color:#00fff2;stop-opacity:1;"/>
<stop offset="0.5" style="stop-color:#dddddd;stop-opacity:1;"/>
<stop offset="1" style="stop-color:#0062ff;stop-opacity:1;"/>
</linearGradient>
</defs>
<g id="surface1">
<path style=" stroke:none;fill-rule:evenodd;fill:url(#linear0);" d="M 21.027344 11.433594 L 21.132812 28.957031 L 17.023438 28.957031 C 17.023438 28.957031 20.390625 37.1875 25.253906 43.910156 C 25.253906 43.910156 25.253906 43.910156 25.253906 43.90625 C 25.257812 43.90625 25.257812 43.90625 25.261719 43.90625 C 25.261719 43.90625 25.265625 43.90625 25.265625 43.90625 C 25.265625 43.902344 25.265625 43.902344 25.269531 43.902344 C 30.285156 36.808594 33.46875 28.957031 33.46875 28.957031 L 29.355469 28.957031 L 29.296875 15.648438 C 26.363281 14.136719 23.582031 12.671875 21.027344 11.433594 Z M 6.496094 4.324219 L 6.496094 59.675781 C 6.496094 59.675781 34.566406 48.328125 57.503906 31.984375 C 57.503906 31.976562 57.503906 31.972656 57.5 31.96875 C 57.5 31.960938 57.496094 31.957031 57.488281 31.945312 C 57.488281 31.941406 57.484375 31.9375 57.476562 31.933594 C 57.476562 31.921875 57.472656 31.917969 57.472656 31.914062 C 33.273438 15.042969 6.496094 4.324219 6.496094 4.324219 Z M 6.496094 4.324219 "/>
</g>
</svg>
