<svg xmlns="http://www.w3.org/2000/svg" xmlns:xlink="http://www.w3.org/1999/xlink" width="64px" height="64px" viewBox="0 0 64 64" version="1.1">
<defs>
<linearGradient id="linear0" gradientUnits="userSpaceOnUse" x1="0" y1="0" x2="0" y2="1" gradientTransform="matrix(29.864865,0,0,55.351351,17.067568,4.324324)">
<stop offset="0" style="stop-color:#ffae00;stop-opacity:1;"/>
<stop offset="0.5" style="stop-color:#dddddd;stop-opacity:1;"/>
<stop offset="1" style="stop-color:#bf1d1d;stop-opacity:1;"/>
</linearGradient>
</defs>
<g id="surface1">
<path style=" stroke:none;fill-rule:evenodd;fill:url(#linear0);" d="M 36.589844 59.675781 L 33.296875 59.675781 L 33.296875 56.1875 L 24.164062 56.1875 L 24.164062 54.039062 L 33.09375 42.214844 L 36.589844 42.214844 L 36.589844 53.0625 L 38.707031 53.0625 L 38.707031 56.1875 L 36.589844 56.1875 Z M 28.558594 53.0625 L 33.296875 53.0625 L 33.296875 46.660156 Z M 46.933594 32.703125 L 17.066406 32.703125 L 17.066406 29.863281 L 46.933594 29.863281 Z M 33.707031 21.785156 L 30.339844 21.785156 L 30.339844 8.863281 L 27.671875 8.863281 L 27.671875 6.191406 C 29.488281 6.191406 30.597656 5.570312 31.011719 4.324219 L 33.707031 4.324219 Z M 33.707031 21.785156 "/>
</g>
</svg>
