<svg xmlns="http://www.w3.org/2000/svg" xmlns:xlink="http://www.w3.org/1999/xlink" width="64px" height="64px" viewBox="0 0 64 64" version="1.1">
<defs>
<linearGradient id="linear0" gradientUnits="userSpaceOnUse" x1="0" y1="0" x2="0" y2="1" gradientTransform="matrix(9.162163,0,0,13.567568,4.324324,11.243243)">
<stop offset="0" style="stop-color:#05f7ff;stop-opacity:1;"/>
<stop offset="0.5" style="stop-color:#dddddd;stop-opacity:1;"/>
<stop offset="1" style="stop-color:#e6ff05;stop-opacity:1;"/>
</linearGradient>
<linearGradient id="linear1" gradientUnits="userSpaceOnUse" x1="0" y1="0" x2="0" y2="1" gradientTransform="matrix(8.842343,0,0,9.576578,16.022523,15.009009)">
<stop offset="0" style="stop-color:#05f7ff;stop-opacity:1;"/>
<stop offset="0.5" style="stop-color:#dddddd;stop-opacity:1;"/>
<stop offset="1" style="stop-color:#e6ff05;stop-opacity:1;"/>
</linearGradient>
<linearGradient id="linear2" gradientUnits="userSpaceOnUse" x1="0" y1="0" x2="0" y2="1" gradientTransform="matrix(9.162163,0,0,13.567568,27.418919,11.243243)">
<stop offset="0" style="stop-color:#05f7ff;stop-opacity:1;"/>
<stop offset="0.5" style="stop-color:#dddddd;stop-opacity:1;"/>
<stop offset="1" style="stop-color:#e6ff05;stop-opacity:1;"/>
</linearGradient>
<linearGradient id="linear3" gradientUnits="userSpaceOnUse" x1="0" y1="0" x2="0" y2="1" gradientTransform="matrix(9.166667,0,0,13.567568,38.963963,11.243243)">
<stop offset="0" style="stop-color:#05f7ff;stop-opacity:1;"/>
<stop offset="0.5" style="stop-color:#dddddd;stop-opacity:1;"/>
<stop offset="1" style="stop-color:#e6ff05;stop-opacity:1;"/>
</linearGradient>
<linearGradient id="linear4" gradientUnits="userSpaceOnUse" x1="0" y1="0" x2="0" y2="1" gradientTransform="matrix(9.162163,0,0,13.567568,50.513514,11.243243)">
<stop offset="0" style="stop-color:#05f7ff;stop-opacity:1;"/>
<stop offset="0.5" style="stop-color:#dddddd;stop-opacity:1;"/>
<stop offset="1" style="stop-color:#e6ff05;stop-opacity:1;"/>
</linearGradient>
<linearGradient id="linear5" gradientUnits="userSpaceOnUse" x1="0" y1="0" x2="0" y2="1" gradientTransform="matrix(41.513514,0,0,20.756757,11.243243,32)">
<stop offset="0" style="stop-color:#05f7ff;stop-opacity:1;"/>
<stop offset="0.5" style="stop-color:#dddddd;stop-opacity:1;"/>
<stop offset="1" style="stop-color:#e6ff05;stop-opacity:1;"/>
</linearGradient>
</defs>
<g id="surface1">
<path style=" stroke:none;fill-rule:nonzero;fill:url(#linear0);" d="M 8.894531 24.8125 C 8.058594 24.8125 7.328125 24.617188 6.703125 24.230469 C 6.089844 23.828125 5.617188 23.296875 5.28125 22.636719 C 4.957031 21.960938 4.710938 21.242188 4.550781 20.484375 C 4.402344 19.71875 4.324219 18.902344 4.324219 18.027344 C 4.324219 17.402344 4.363281 16.796875 4.4375 16.207031 C 4.523438 15.621094 4.675781 15.023438 4.886719 14.410156 C 5.097656 13.785156 5.367188 13.246094 5.691406 12.796875 C 6.03125 12.347656 6.472656 11.984375 7.023438 11.691406 C 7.570312 11.390625 8.199219 11.242188 8.894531 11.242188 C 9.734375 11.242188 10.460938 11.441406 11.089844 11.839844 C 11.710938 12.230469 12.1875 12.761719 12.511719 13.4375 C 12.851562 14.109375 13.09375 14.828125 13.242188 15.589844 C 13.40625 16.351562 13.488281 17.164062 13.488281 18.027344 C 13.488281 18.824219 13.414062 19.59375 13.261719 20.335938 C 13.125 21.054688 12.894531 21.773438 12.566406 22.488281 C 12.242188 23.1875 11.765625 23.746094 11.125 24.171875 C 10.5 24.597656 9.757812 24.8125 8.894531 24.8125 Z M 8.894531 23.328125 C 9.472656 23.328125 9.960938 23.175781 10.363281 22.863281 C 10.769531 22.539062 11.070312 22.097656 11.257812 21.550781 C 11.460938 21 11.59375 20.445312 11.671875 19.882812 C 11.757812 19.308594 11.800781 18.6875 11.800781 18.027344 C 11.800781 17.328125 11.753906 16.6875 11.652344 16.09375 C 11.5625 15.511719 11.414062 14.957031 11.203125 14.429688 C 11 13.890625 10.703125 13.472656 10.300781 13.171875 C 9.914062 12.875 9.445312 12.726562 8.894531 12.726562 C 8.320312 12.726562 7.828125 12.886719 7.414062 13.210938 C 7.015625 13.523438 6.714844 13.960938 6.515625 14.523438 C 6.3125 15.070312 6.171875 15.625 6.085938 16.1875 C 6.011719 16.753906 5.972656 17.363281 5.972656 18.027344 C 5.972656 18.726562 6.015625 19.375 6.105469 19.976562 C 6.203125 20.5625 6.355469 21.117188 6.554688 21.644531 C 6.765625 22.164062 7.066406 22.582031 7.457031 22.878906 C 7.851562 23.179688 8.335938 23.328125 8.894531 23.328125 Z M 9.757812 18.90625 C 9.523438 19.144531 9.234375 19.261719 8.894531 19.261719 C 8.558594 19.261719 8.269531 19.144531 8.039062 18.90625 C 7.796875 18.660156 7.679688 18.367188 7.679688 18.042969 C 7.679688 17.707031 7.796875 17.417969 8.039062 17.1875 C 8.269531 16.933594 8.558594 16.8125 8.894531 16.8125 C 9.234375 16.8125 9.523438 16.933594 9.757812 17.1875 C 10.011719 17.417969 10.136719 17.707031 10.136719 18.042969 C 10.136719 18.367188 10.011719 18.660156 9.757812 18.90625 Z M 9.757812 18.90625 "/>
<path style=" stroke:none;fill-rule:nonzero;fill:url(#linear1);" d="M 16.023438 24.585938 L 19.5625 19.636719 L 16.246094 15.011719 L 18.027344 15.011719 L 19.972656 17.726562 C 20.261719 18.152344 20.417969 18.386719 20.441406 18.4375 C 20.457031 18.414062 20.515625 18.3125 20.632812 18.136719 C 20.757812 17.949219 20.851562 17.8125 20.910156 17.726562 L 22.863281 15.011719 L 24.636719 15.011719 L 21.324219 19.636719 L 24.863281 24.585938 L 23.085938 24.585938 L 20.910156 21.550781 C 20.851562 21.460938 20.757812 21.328125 20.632812 21.160156 C 20.515625 20.96875 20.457031 20.863281 20.441406 20.835938 C 20.390625 20.914062 20.3125 21.03125 20.199219 21.191406 C 20.097656 21.355469 20.027344 21.472656 19.972656 21.550781 L 17.800781 24.585938 Z M 16.023438 24.585938 "/>
<path style=" stroke:none;fill-rule:nonzero;fill:url(#linear2);" d="M 31.988281 24.8125 C 31.152344 24.8125 30.421875 24.617188 29.796875 24.230469 C 29.1875 23.828125 28.710938 23.296875 28.375 22.636719 C 28.050781 21.960938 27.808594 21.242188 27.644531 20.484375 C 27.496094 19.71875 27.417969 18.902344 27.417969 18.027344 C 27.417969 17.402344 27.457031 16.796875 27.53125 16.207031 C 27.617188 15.621094 27.769531 15.023438 27.984375 14.410156 C 28.191406 13.785156 28.460938 13.246094 28.789062 12.796875 C 29.121094 12.347656 29.566406 11.984375 30.117188 11.691406 C 30.664062 11.390625 31.292969 11.242188 31.988281 11.242188 C 32.828125 11.242188 33.558594 11.441406 34.1875 11.839844 C 34.808594 12.230469 35.285156 12.761719 35.609375 13.4375 C 35.945312 14.109375 36.1875 14.828125 36.335938 15.589844 C 36.5 16.351562 36.582031 17.164062 36.582031 18.027344 C 36.582031 18.824219 36.503906 19.59375 36.355469 20.335938 C 36.21875 21.054688 35.988281 21.773438 35.664062 22.488281 C 35.335938 23.1875 34.855469 23.746094 34.21875 24.171875 C 33.59375 24.597656 32.851562 24.8125 31.988281 24.8125 Z M 31.988281 23.328125 C 32.5625 23.328125 33.054688 23.175781 33.449219 22.863281 C 33.863281 22.539062 34.164062 22.097656 34.351562 21.550781 C 34.550781 21 34.6875 20.445312 34.765625 19.882812 C 34.851562 19.308594 34.894531 18.6875 34.894531 18.027344 C 34.894531 17.328125 34.847656 16.6875 34.742188 16.09375 C 34.660156 15.511719 34.511719 14.957031 34.296875 14.429688 C 34.09375 13.890625 33.796875 13.472656 33.394531 13.171875 C 33.011719 12.875 32.539062 12.726562 31.988281 12.726562 C 31.414062 12.726562 30.921875 12.886719 30.511719 13.210938 C 30.113281 13.523438 29.8125 13.960938 29.613281 14.523438 C 29.410156 15.070312 29.265625 15.625 29.179688 16.1875 C 29.105469 16.753906 29.066406 17.363281 29.066406 18.027344 C 29.066406 18.726562 29.113281 19.375 29.199219 19.976562 C 29.296875 20.5625 29.449219 21.117188 29.648438 21.644531 C 29.863281 22.164062 30.164062 22.582031 30.550781 22.878906 C 30.945312 23.179688 31.429688 23.328125 31.988281 23.328125 Z M 32.851562 18.90625 C 32.617188 19.144531 32.328125 19.261719 31.988281 19.261719 C 31.652344 19.261719 31.363281 19.144531 31.132812 18.90625 C 30.890625 18.660156 30.773438 18.367188 30.773438 18.042969 C 30.773438 17.707031 30.890625 17.417969 31.132812 17.1875 C 31.363281 16.933594 31.652344 16.8125 31.988281 16.8125 C 32.328125 16.8125 32.617188 16.933594 32.851562 17.1875 C 33.105469 17.417969 33.226562 17.707031 33.226562 18.042969 C 33.226562 18.367188 33.105469 18.660156 32.851562 18.90625 Z M 32.851562 18.90625 "/>
<path style=" stroke:none;fill-rule:nonzero;fill:url(#linear3);" d="M 43.539062 24.8125 C 42.703125 24.8125 41.96875 24.617188 41.347656 24.230469 C 40.734375 23.828125 40.257812 23.296875 39.917969 22.636719 C 39.59375 21.960938 39.351562 21.242188 39.1875 20.484375 C 39.039062 19.71875 38.960938 18.902344 38.960938 18.027344 C 38.960938 17.402344 39.003906 16.796875 39.078125 16.207031 C 39.164062 15.621094 39.3125 15.023438 39.527344 14.410156 C 39.738281 13.785156 40.011719 13.246094 40.335938 12.796875 C 40.671875 12.347656 41.113281 11.984375 41.664062 11.691406 C 42.210938 11.390625 42.835938 11.242188 43.539062 11.242188 C 44.375 11.242188 45.105469 11.441406 45.730469 11.839844 C 46.355469 12.230469 46.828125 12.761719 47.152344 13.4375 C 47.488281 14.109375 47.734375 14.828125 47.886719 15.589844 C 48.050781 16.351562 48.132812 17.164062 48.132812 18.027344 C 48.132812 18.824219 48.054688 19.59375 47.90625 20.335938 C 47.765625 21.054688 47.539062 21.773438 47.210938 22.488281 C 46.886719 23.1875 46.40625 23.746094 45.765625 24.171875 C 45.144531 24.597656 44.402344 24.8125 43.539062 24.8125 Z M 43.539062 23.328125 C 44.113281 23.328125 44.597656 23.175781 45 22.863281 C 45.410156 22.539062 45.710938 22.097656 45.902344 21.550781 C 46.097656 21 46.234375 20.445312 46.3125 19.882812 C 46.394531 19.308594 46.441406 18.6875 46.441406 18.027344 C 46.441406 17.328125 46.390625 16.6875 46.292969 16.09375 C 46.203125 15.511719 46.054688 14.957031 45.839844 14.429688 C 45.644531 13.890625 45.339844 13.472656 44.941406 13.171875 C 44.554688 12.875 44.085938 12.726562 43.539062 12.726562 C 42.960938 12.726562 42.46875 12.886719 42.058594 13.210938 C 41.660156 13.523438 41.355469 13.960938 41.160156 14.523438 C 40.960938 15.070312 40.8125 15.625 40.726562 16.1875 C 40.652344 16.753906 40.613281 17.363281 40.613281 18.027344 C 40.613281 18.726562 40.660156 19.375 40.746094 19.976562 C 40.847656 20.5625 40.996094 21.117188 41.191406 21.644531 C 41.40625 22.164062 41.707031 22.582031 42.09375 22.878906 C 42.496094 23.179688 42.976562 23.328125 43.539062 23.328125 Z M 44.402344 18.90625 C 44.164062 19.144531 43.875 19.261719 43.539062 19.261719 C 43.199219 19.261719 42.914062 19.144531 42.675781 18.90625 C 42.4375 18.660156 42.320312 18.367188 42.320312 18.042969 C 42.320312 17.707031 42.4375 17.417969 42.675781 17.1875 C 42.914062 16.933594 43.199219 16.8125 43.539062 16.8125 C 43.875 16.8125 44.164062 16.933594 44.402344 17.1875 C 44.648438 17.417969 44.773438 17.707031 44.773438 18.042969 C 44.773438 18.367188 44.648438 18.660156 44.402344 18.90625 Z M 44.402344 18.90625 "/>
<path style=" stroke:none;fill-rule:nonzero;fill:url(#linear4);" d="M 55.085938 24.8125 C 54.246094 24.8125 53.515625 24.617188 52.890625 24.230469 C 52.28125 23.828125 51.808594 23.296875 51.46875 22.636719 C 51.144531 21.960938 50.902344 21.242188 50.738281 20.484375 C 50.585938 19.71875 50.511719 18.902344 50.511719 18.027344 C 50.511719 17.402344 50.550781 16.796875 50.625 16.207031 C 50.710938 15.621094 50.863281 15.023438 51.078125 14.410156 C 51.289062 13.785156 51.554688 13.246094 51.878906 12.796875 C 52.214844 12.347656 52.664062 11.984375 53.210938 11.691406 C 53.761719 11.390625 54.382812 11.242188 55.085938 11.242188 C 55.921875 11.242188 56.652344 11.441406 57.28125 11.839844 C 57.902344 12.230469 58.378906 12.761719 58.703125 13.4375 C 59.039062 14.109375 59.285156 14.828125 59.433594 15.589844 C 59.59375 16.351562 59.675781 17.164062 59.675781 18.027344 C 59.675781 18.824219 59.597656 19.59375 59.449219 20.335938 C 59.3125 21.054688 59.082031 21.773438 58.757812 22.488281 C 58.433594 23.1875 57.949219 23.746094 57.3125 24.171875 C 56.6875 24.597656 55.945312 24.8125 55.085938 24.8125 Z M 55.085938 23.328125 C 55.660156 23.328125 56.148438 23.175781 56.542969 22.863281 C 56.960938 22.539062 57.257812 22.097656 57.445312 21.550781 C 57.644531 21 57.785156 20.445312 57.855469 19.882812 C 57.945312 19.308594 57.988281 18.6875 57.988281 18.027344 C 57.988281 17.328125 57.941406 16.6875 57.835938 16.09375 C 57.753906 15.511719 57.605469 14.957031 57.390625 14.429688 C 57.1875 13.890625 56.890625 13.472656 56.488281 13.171875 C 56.105469 12.875 55.636719 12.726562 55.085938 12.726562 C 54.511719 12.726562 54.015625 12.886719 53.605469 13.210938 C 53.203125 13.523438 52.90625 13.960938 52.703125 14.523438 C 52.503906 15.070312 52.363281 15.625 52.273438 16.1875 C 52.199219 16.753906 52.164062 17.363281 52.164062 18.027344 C 52.164062 18.726562 52.207031 19.375 52.292969 19.976562 C 52.390625 20.5625 52.539062 21.117188 52.742188 21.644531 C 52.957031 22.164062 53.257812 22.582031 53.636719 22.878906 C 54.039062 23.179688 54.523438 23.328125 55.085938 23.328125 Z M 55.945312 18.90625 C 55.707031 19.144531 55.421875 19.261719 55.085938 19.261719 C 54.746094 19.261719 54.460938 19.144531 54.21875 18.90625 C 53.988281 18.660156 53.863281 18.367188 53.863281 18.042969 C 53.863281 17.707031 53.988281 17.417969 54.21875 17.1875 C 54.460938 16.933594 54.746094 16.8125 55.085938 16.8125 C 55.421875 16.8125 55.707031 16.933594 55.945312 17.1875 C 56.199219 17.417969 56.320312 17.707031 56.320312 18.042969 C 56.320312 18.367188 56.199219 18.660156 55.945312 18.90625 Z M 55.945312 18.90625 "/>
<path style=" stroke:none;fill-rule:nonzero;fill:url(#linear5);" d="M 14.703125 32 L 49.296875 32 C 51.207031 32 52.757812 33.550781 52.757812 35.460938 L 52.757812 49.296875 C 52.757812 51.207031 51.207031 52.757812 49.296875 52.757812 L 14.703125 52.757812 C 12.792969 52.757812 11.242188 51.207031 11.242188 49.296875 L 11.242188 35.460938 C 11.242188 33.550781 12.792969 32 14.703125 32 Z M 14.703125 32 "/>
</g>
</svg>
