<svg xmlns="http://www.w3.org/2000/svg" xmlns:xlink="http://www.w3.org/1999/xlink" width="64px" height="64px" viewBox="0 0 64 64" version="1.1">
<defs>
<linearGradient id="linear0" gradientUnits="userSpaceOnUse" x1="0" y1="0" x2="0" y2="1" gradientTransform="matrix(3.990991,0,0,49.896395,31.040541,8.04955)">
<stop offset="0" style="stop-color:#ffae00;stop-opacity:1;"/>
<stop offset="0.5" style="stop-color:#dddddd;stop-opacity:1;"/>
<stop offset="1" style="stop-color:#6600ff;stop-opacity:1;"/>
</linearGradient>
<linearGradient id="linear1" gradientUnits="userSpaceOnUse" x1="0" y1="0" x2="0" y2="1" gradientTransform="matrix(19.959459,0,0,32.932432,7.09009,16.031531)">
<stop offset="0" style="stop-color:#ffae00;stop-opacity:1;"/>
<stop offset="0.5" style="stop-color:#dddddd;stop-opacity:1;"/>
<stop offset="1" style="stop-color:#6600ff;stop-opacity:1;"/>
</linearGradient>
<linearGradient id="linear2" gradientUnits="userSpaceOnUse" x1="0" y1="0" x2="0" y2="1" gradientTransform="matrix(15.96847,0,0,11.972974,25.054054,6.054054)">
<stop offset="0" style="stop-color:#ffae00;stop-opacity:1;"/>
<stop offset="0.5" style="stop-color:#dddddd;stop-opacity:1;"/>
<stop offset="1" style="stop-color:#6600ff;stop-opacity:1;"/>
</linearGradient>
<linearGradient id="linear3" gradientUnits="userSpaceOnUse" x1="0" y1="0" x2="0" y2="1" gradientTransform="matrix(17.959459,0,0,23.945946,39.027027,21.423422)">
<stop offset="0" style="stop-color:#ffae00;stop-opacity:1;"/>
<stop offset="0.5" style="stop-color:#dddddd;stop-opacity:1;"/>
<stop offset="1" style="stop-color:#6600ff;stop-opacity:1;"/>
</linearGradient>
</defs>
<g id="surface1">
<path style=" stroke:none;fill-rule:nonzero;fill:url(#linear0);" d="M 31.039062 8.050781 L 31.121094 57.945312 L 35.03125 57.945312 L 35.03125 8.050781 Z M 31.039062 8.050781 "/>
<path style=" stroke:none;fill-rule:evenodd;fill:url(#linear1);" d="M 23.058594 16.03125 L 23.058594 19.027344 L 27.050781 19.027344 L 27.050781 16.03125 Z M 19.066406 22.015625 L 19.066406 25.011719 L 27.050781 25.011719 L 27.050781 22.015625 Z M 11.085938 28.003906 L 11.085938 31 L 27.050781 31 L 27.050781 28.003906 Z M 7.089844 33.996094 L 7.089844 36.988281 L 27.050781 36.988281 L 27.050781 33.996094 Z M 11.085938 39.984375 L 11.085938 42.976562 L 27.050781 42.976562 L 27.050781 39.984375 Z M 19.066406 45.96875 L 19.066406 48.960938 L 27.050781 48.960938 L 27.050781 45.96875 Z M 19.066406 45.96875 "/>
<path style=" stroke:none;fill-rule:nonzero;fill:url(#linear2);" d="M 41.023438 6.054688 L 25.054688 6.054688 L 33.039062 18.027344 Z M 41.023438 6.054688 "/>
<path style=" stroke:none;fill-rule:nonzero;fill:url(#linear3);" d="M 40.578125 21.421875 C 39.839844 21.460938 39.050781 22.109375 39.054688 22.824219 L 39.027344 43.96875 C 39.027344 44.921875 40.433594 45.753906 41.234375 45.1875 L 56.382812 34.578125 C 57.1875 34.015625 57.1875 32.703125 56.382812 32.136719 L 41.261719 21.605469 C 41.0625 21.460938 40.824219 21.410156 40.578125 21.421875 Z M 40.578125 21.421875 "/>
</g>
</svg>
