<svg xmlns="http://www.w3.org/2000/svg" xmlns:xlink="http://www.w3.org/1999/xlink" width="64px" height="64px" viewBox="0 0 64 64" version="1.1">
<defs>
<linearGradient id="linear0" gradientUnits="userSpaceOnUse" x1="0" y1="0" x2="0" y2="1" gradientTransform="matrix(55.351351,0,0,55.351351,4.324324,4.324324)">
<stop offset="0" style="stop-color:#ffae00;stop-opacity:1;"/>
<stop offset="0.5" style="stop-color:#dddddd;stop-opacity:1;"/>
<stop offset="1" style="stop-color:#bf1d1d;stop-opacity:1;"/>
</linearGradient>
</defs>
<g id="surface1">
<path style=" stroke:none;fill-rule:nonzero;fill:url(#linear0);" d="M 4.324219 4.324219 L 4.324219 50.011719 L 39.21875 50.050781 L 39.21875 18.273438 L 25.265625 4.363281 Z M 24.78125 6.734375 L 36.8125 18.765625 L 24.78125 18.765625 Z M 41.625 13.949219 L 41.625 36.324219 L 43.164062 34.742188 L 44.894531 36.476562 L 41.625 39.707031 L 41.625 40.421875 L 52.457031 40.421875 L 52.457031 42.828125 L 41.625 42.828125 L 41.625 43.542969 L 44.894531 46.78125 L 43.164062 48.511719 L 41.625 46.929688 L 41.625 52.457031 L 24.78125 52.457031 L 24.78125 59.636719 L 59.675781 59.675781 L 59.675781 27.902344 L 45.726562 13.988281 Z M 45.234375 16.355469 L 57.265625 28.390625 L 45.234375 28.390625 Z M 23.238281 26.324219 L 30.085938 33.203125 L 23.238281 40.085938 L 21.511719 38.355469 L 25.496094 34.410156 L 13.949219 34.410156 L 13.949219 32 L 25.496094 32 L 21.511719 28.054688 Z M 23.238281 26.324219 "/>
</g>
</svg>
