<svg xmlns="http://www.w3.org/2000/svg" xmlns:xlink="http://www.w3.org/1999/xlink" width="64px" height="64px" viewBox="0 0 64 64" version="1.1">
<defs>
<linearGradient id="linear0" gradientUnits="userSpaceOnUse" x1="0" y1="0" x2="0" y2="1" gradientTransform="matrix(55.351351,0,0,49.03153,4.324324,7.09009)">
<stop offset="0" style="stop-color:#ffae00;stop-opacity:1;"/>
<stop offset="0.5" style="stop-color:#dddddd;stop-opacity:1;"/>
<stop offset="1" style="stop-color:#bf1d1d;stop-opacity:1;"/>
</linearGradient>
</defs>
<g id="surface1">
<path style=" stroke:none;fill-rule:evenodd;fill:url(#linear0);" d="M 9.863281 29.234375 C 9.863281 18.164062 15.394531 7.089844 32 7.089844 C 48.605469 7.089844 54.136719 18.164062 54.136719 29.234375 L 54.136719 51.375 C 39.414062 57.71875 24.621094 57.6875 9.863281 51.375 L 9.863281 45.835938 L 7.089844 45.835938 C 5.433594 45.835938 4.324219 44.730469 4.324219 43.070312 L 4.324219 32 C 4.324219 30.335938 5.433594 29.234375 7.089844 29.234375 Z M 48.144531 37.539062 C 48.449219 36.648438 48.605469 35.71875 48.605469 34.765625 L 48.605469 29.234375 C 48.605469 24.253906 44.457031 18.164062 32 18.164062 C 19.542969 18.164062 15.394531 23.972656 15.394531 29.234375 L 15.394531 34.765625 C 15.394531 40.855469 21.761719 45.835938 32 45.835938 C 36.691406 45.835938 40.578125 44.789062 43.402344 43.070312 L 36.152344 43.070312 C 33.9375 43.070312 32 41.136719 32 38.917969 C 32 36.703125 33.9375 34.765625 36.152344 34.765625 C 37.8125 34.765625 39.472656 35.875 40.027344 37.539062 Z M 54.136719 45.835938 L 56.910156 45.835938 C 58.566406 45.835938 59.675781 44.730469 59.675781 43.070312 L 59.675781 32 C 59.675781 30.335938 58.566406 29.234375 56.910156 29.234375 L 54.136719 29.234375 Z M 54.136719 45.835938 "/>
</g>
</svg>
