<svg xmlns="http://www.w3.org/2000/svg" xmlns:xlink="http://www.w3.org/1999/xlink" width="64px" height="64px" viewBox="0 0 64 64" version="1.1">
<defs>
<linearGradient id="linear0" gradientUnits="userSpaceOnUse" x1="0" y1="0" x2="0" y2="1" gradientTransform="matrix(51.891892,0,0,51.112612,6.054054,6.833333)">
<stop offset="0" style="stop-color:#05f7ff;stop-opacity:1;"/>
<stop offset="0.5" style="stop-color:#dddddd;stop-opacity:1;"/>
<stop offset="1" style="stop-color:#e6ff05;stop-opacity:1;"/>
</linearGradient>
</defs>
<g id="surface1">
<path style=" stroke:none;fill-rule:nonzero;fill:url(#linear0);" d="M 38 6.835938 C 27.589844 6.835938 18.226562 13.160156 14.320312 22.808594 L 9.246094 22.808594 L 6.054688 29.191406 L 12.675781 29.191406 C 12.53125 30.253906 12.457031 31.320312 12.441406 32.390625 L 9.246094 38.78125 L 13.292969 38.78125 C 16.203125 50.050781 26.363281 57.929688 38 57.945312 C 45.757812 57.945312 53.09375 54.417969 57.945312 48.363281 L 48.578125 48.363281 C 45.441406 50.441406 41.761719 51.554688 38 51.558594 C 29.882812 51.550781 22.652344 46.429688 19.949219 38.78125 L 41.191406 38.78125 L 44.386719 32.390625 L 18.835938 32.390625 C 18.835938 31.320312 18.9375 30.253906 19.121094 29.191406 L 44.386719 29.191406 L 47.582031 22.808594 L 21.421875 22.808594 C 24.839844 16.882812 31.160156 13.230469 38 13.21875 C 41.761719 13.226562 45.4375 14.335938 48.570312 16.417969 L 57.917969 16.417969 C 53.078125 10.367188 45.746094 6.839844 38 6.835938 Z M 38 6.835938 "/>
</g>
</svg>
