<svg xmlns="http://www.w3.org/2000/svg" xmlns:xlink="http://www.w3.org/1999/xlink" width="64px" height="64px" viewBox="0 0 64 64" version="1.1">
<defs>
<linearGradient id="linear0" gradientUnits="userSpaceOnUse" x1="0" y1="0" x2="0" y2="1" gradientTransform="matrix(47.594595,0,0,55.351351,8.202703,4.324324)">
<stop offset="0" style="stop-color:#00fff2;stop-opacity:1;"/>
<stop offset="0.5" style="stop-color:#dddddd;stop-opacity:1;"/>
<stop offset="1" style="stop-color:#0062ff;stop-opacity:1;"/>
</linearGradient>
</defs>
<g id="surface1">
<path style=" stroke:none;fill-rule:nonzero;fill:url(#linear0);" d="M 32 59.675781 C 18.863281 59.675781 8.203125 56.09375 8.203125 51.742188 L 8.203125 43.8125 C 8.203125 43.132812 8.542969 42.445312 9.058594 41.851562 C 11.703125 45.261719 20.914062 47.820312 32 47.820312 C 43.085938 47.820312 52.296875 45.261719 54.941406 41.851562 C 55.457031 42.445312 55.796875 43.132812 55.796875 43.8125 L 55.796875 51.742188 C 55.796875 56.09375 45.136719 59.675781 32 59.675781 Z M 32 43.8125 C 18.863281 43.8125 8.203125 40.230469 8.203125 35.878906 L 8.203125 27.949219 C 8.203125 27.523438 8.375 27.09375 8.542969 26.757812 L 9.058594 25.988281 C 11.703125 29.402344 20.914062 31.960938 32 31.960938 C 43.085938 31.960938 52.296875 29.402344 54.941406 25.988281 L 55.457031 26.757812 C 55.625 27.179688 55.796875 27.609375 55.796875 27.949219 L 55.796875 35.878906 C 55.796875 40.3125 45.136719 43.8125 32 43.8125 Z M 32 28.039062 C 18.863281 28.039062 8.203125 24.449219 8.203125 20.105469 L 8.203125 12.257812 C 8.203125 7.90625 18.863281 4.324219 32 4.324219 C 45.136719 4.324219 55.796875 7.90625 55.796875 12.257812 L 55.796875 20.105469 C 55.796875 24.449219 45.136719 28.039062 32 28.039062 Z M 32 8.164062 C 23.214844 8.164062 16.136719 9.957031 16.136719 12.085938 C 16.136719 14.214844 23.214844 16.011719 32 16.011719 C 40.785156 16.011719 47.863281 14.214844 47.863281 12.085938 C 47.863281 9.957031 40.785156 8.164062 32 8.164062 Z M 32 8.164062 "/>
</g>
</svg>
