<svg xmlns="http://www.w3.org/2000/svg" xmlns:xlink="http://www.w3.org/1999/xlink" width="64px" height="64px" viewBox="0 0 64 64" version="1.1">
<defs>
<linearGradient id="linear0" gradientUnits="userSpaceOnUse" x1="0" y1="0" x2="0" y2="1" gradientTransform="matrix(51.360361,0,0,55.351351,4.324324,4.324324)">
<stop offset="0" style="stop-color:#ffae00;stop-opacity:1;"/>
<stop offset="0.5" style="stop-color:#dddddd;stop-opacity:1;"/>
<stop offset="1" style="stop-color:#6600ff;stop-opacity:1;"/>
</linearGradient>
</defs>
<g id="surface1">
<path style=" stroke:none;fill-rule:nonzero;fill:url(#linear0);" d="M 49.96875 58.671875 C 51.335938 55.945312 52.214844 52.863281 52.449219 50.039062 C 52.644531 47.726562 52.554688 44.203125 52.300781 43.945312 C 52.269531 43.917969 51.753906 44.378906 51.136719 44.96875 C 49.902344 46.171875 48.976562 46.726562 47.558594 47.136719 C 46.839844 47.347656 46.523438 47.375 44.941406 47.367188 C 43.46875 47.363281 42.972656 47.324219 42.214844 47.144531 C 36.320312 45.738281 36.53125 45.769531 32.46875 45.707031 C 28.761719 45.648438 27.984375 45.710938 25.851562 46.234375 C 23.773438 46.746094 22.160156 47.328125 20.402344 48.191406 C 18.539062 49.109375 17.484375 49.761719 14.609375 51.78125 C 13.40625 52.625 12.402344 53.300781 12.382812 53.28125 C 12.335938 53.230469 12.769531 51.746094 13.703125 48.78125 C 14.082031 47.566406 14.375 46.5625 14.351562 46.539062 C 14.296875 46.488281 11.46875 49.386719 10.632812 50.347656 L 10.011719 51.050781 L 10.300781 52.144531 C 10.863281 54.28125 11.652344 56.082031 12.984375 58.269531 C 13.351562 58.886719 13.664062 59.429688 13.664062 59.476562 C 13.664062 59.527344 12.835938 59.566406 11.8125 59.566406 L 9.972656 59.566406 L 9.613281 58.921875 C 9.171875 58.132812 7.890625 55.285156 7.648438 54.554688 C 7.554688 54.257812 7.433594 54.011719 7.386719 54.011719 C 7.339844 54.011719 6.6875 54.699219 5.933594 55.539062 L 4.554688 57.066406 L 4.488281 56.179688 C 4.050781 50.367188 4.5 44.292969 5.644531 40.582031 C 6.835938 36.710938 8.894531 33.300781 11.90625 30.203125 C 14.089844 27.960938 16.292969 26.347656 19.0625 24.96875 C 19.742188 24.625 20.3125 24.335938 20.335938 24.3125 C 20.363281 24.292969 20.257812 23.867188 20.109375 23.375 C 19.800781 22.363281 19.582031 21.136719 19.472656 19.875 C 19.421875 19.265625 19.363281 19.027344 19.261719 19.027344 C 19.1875 19.027344 18.648438 18.972656 18.0625 18.914062 C 15.714844 18.671875 14.648438 18.171875 13.855469 16.941406 C 13.144531 15.835938 13.09375 15.539062 13.234375 13.144531 C 13.355469 10.988281 13.515625 9.957031 13.828125 9.28125 C 13.929688 9.066406 14.363281 8.539062 14.789062 8.105469 C 15.433594 7.457031 15.664062 7.289062 16.132812 7.148438 C 16.957031 6.902344 18.148438 6.847656 19.8125 6.976562 C 21.6875 7.125 22.105469 7.21875 23.089844 7.714844 C 23.53125 7.9375 23.957031 8.117188 24.023438 8.117188 C 24.164062 8.117188 25.253906 6.742188 26.28125 5.269531 L 26.941406 4.324219 L 28.246094 5.085938 C 28.960938 5.503906 29.570312 5.890625 29.589844 5.945312 C 29.609375 6.003906 29.460938 6.476562 29.265625 7.011719 C 28.902344 7.984375 28.582031 9.3125 28.582031 9.847656 L 28.582031 10.148438 L 29.6875 10.28125 C 32.367188 10.59375 34.363281 11.460938 36.015625 13.042969 C 37.289062 14.261719 38.121094 15.570312 38.660156 17.199219 C 39.109375 18.566406 39.113281 21.292969 38.664062 22.886719 C 38.542969 23.320312 38.460938 23.6875 38.476562 23.703125 C 38.496094 23.714844 38.765625 23.808594 39.078125 23.90625 C 39.941406 24.175781 43.027344 25.71875 44.070312 26.40625 C 46.027344 27.699219 48.765625 30.191406 50.355469 32.144531 C 52.40625 34.660156 54.171875 38.160156 54.972656 41.296875 C 55.511719 43.382812 55.679688 44.800781 55.6875 47.171875 C 55.6875 51.320312 54.960938 55.148438 53.5 58.636719 L 53.089844 59.621094 L 49.46875 59.675781 Z M 14.734375 41.355469 C 20.550781 35.199219 21.792969 33.914062 21.855469 33.976562 C 21.929688 34.050781 21.699219 34.8125 20.09375 39.863281 C 18.390625 45.234375 18.378906 45.265625 18.511719 45.265625 C 18.566406 45.265625 19.386719 44.96875 20.335938 44.609375 C 24.761719 42.910156 27.484375 42.375 31.734375 42.375 C 34.960938 42.375 37.261719 42.671875 40.984375 43.554688 C 43.539062 44.164062 43.984375 44.234375 45.042969 44.234375 C 46.066406 44.234375 46.757812 44.058594 47.738281 43.550781 C 49.039062 42.875 49.765625 41.8125 50.003906 40.296875 C 50.273438 38.527344 49.675781 36.734375 48.105469 34.609375 C 47.402344 33.664062 44.890625 31.160156 43.863281 30.378906 C 41.914062 28.910156 40.164062 27.90625 38.1875 27.117188 C 36.960938 26.625 36.660156 26.632812 36.171875 27.132812 L 35.796875 27.511719 L 36.976562 28.957031 C 38.851562 31.234375 39.878906 32.621094 40.0625 33.121094 C 40.324219 33.8125 40.308594 35.203125 40.03125 35.8125 C 39.757812 36.429688 39.109375 37.054688 38.375 37.414062 C 37.847656 37.675781 37.6875 37.703125 36.660156 37.703125 L 35.527344 37.707031 L 34.828125 38.136719 C 33.09375 39.1875 31.800781 38.945312 30.246094 37.289062 C 29.097656 36.0625 28.8125 35.476562 28.636719 34.011719 C 28.550781 33.363281 28.382812 32.589844 28.261719 32.289062 C 28.085938 31.863281 28.03125 31.488281 28.011719 30.652344 L 27.988281 29.578125 L 27.335938 29.414062 C 25.957031 29.0625 24.710938 28.496094 23.375 27.609375 C 22.917969 27.300781 22.476562 27.050781 22.390625 27.050781 C 22.105469 27.050781 19.375 28.472656 18.289062 29.1875 C 14.1875 31.886719 11.246094 35.445312 9.488281 39.8125 C 8.660156 41.894531 8.210938 43.757812 7.949219 46.308594 C 7.863281 47.175781 7.761719 48.070312 7.730469 48.300781 L 7.675781 48.710938 L 8.945312 47.429688 C 9.636719 46.714844 12.246094 43.984375 14.734375 41.355469 Z M 33.410156 35.789062 C 33.605469 35.664062 34.117188 35.308594 34.539062 34.984375 C 35.734375 34.078125 35.707031 34.082031 36.117188 34.558594 C 36.6875 35.230469 37.289062 35.292969 37.554688 34.71875 C 37.660156 34.484375 37.621094 34.386719 37.199219 33.765625 C 36.671875 32.996094 32.863281 28.28125 31.511719 26.71875 C 31.03125 26.171875 30.496094 25.644531 30.324219 25.554688 C 30.03125 25.40625 29.984375 25.40625 29.746094 25.5625 C 29.539062 25.699219 29.503906 25.789062 29.558594 26 C 29.652344 26.367188 30.171875 27.132812 31.199219 28.375 L 32.070312 29.4375 L 31.460938 29.945312 C 30.679688 30.589844 30.570312 30.792969 30.792969 31.125 C 30.882812 31.269531 31.070312 31.4375 31.207031 31.5 C 31.429688 31.597656 31.542969 31.558594 32.179688 31.136719 C 32.578125 30.875 32.9375 30.652344 32.984375 30.652344 C 33.121094 30.652344 33.8125 31.410156 33.847656 31.605469 C 33.867188 31.726562 33.460938 32.179688 32.664062 32.945312 L 31.441406 34.113281 L 31.644531 34.515625 C 31.957031 35.125 32.691406 36.003906 32.886719 36.003906 C 32.976562 36.003906 33.214844 35.910156 33.410156 35.789062 Z M 26.9375 24.675781 C 27.5625 23.386719 28.613281 22.644531 29.933594 22.550781 C 30.59375 22.5 30.699219 22.523438 31.386719 22.863281 C 32.136719 23.238281 32.796875 23.785156 33.382812 24.511719 L 33.703125 24.910156 L 34.289062 24.164062 C 34.609375 23.746094 34.988281 23.21875 35.121094 22.988281 C 36.433594 20.746094 35.960938 17.550781 34.050781 15.636719 C 32.820312 14.414062 31.257812 13.796875 28.597656 13.472656 C 27.515625 13.339844 27.039062 13.132812 26.289062 12.441406 C 25.71875 11.921875 25.6875 11.90625 25.542969 12.09375 C 25.265625 12.449219 24.386719 14.234375 23.863281 15.476562 C 23.042969 17.445312 22.976562 17.738281 22.988281 19.386719 C 23 21.011719 23.214844 22.0625 23.710938 22.910156 C 24.042969 23.476562 25.164062 24.691406 25.742188 25.113281 C 26.375 25.578125 26.53125 25.523438 26.9375 24.675781 Z M 20.148438 15.472656 C 20.1875 15.449219 20.347656 15.113281 20.5 14.730469 C 20.652344 14.351562 21.027344 13.472656 21.335938 12.789062 C 21.933594 11.449219 22.011719 11.011719 21.6875 10.699219 C 21.335938 10.339844 19.902344 10.085938 18.273438 10.078125 C 17.460938 10.070312 17.351562 10.097656 17.066406 10.339844 C 16.664062 10.675781 16.585938 11.011719 16.441406 12.863281 C 16.296875 14.664062 16.378906 15.015625 17.027344 15.289062 C 17.648438 15.542969 19.820312 15.675781 20.148438 15.472656 Z M 18.234375 13.21875 C 18.152344 12.539062 18.242188 12.058594 18.496094 11.921875 C 18.605469 11.867188 19.039062 11.824219 19.46875 11.824219 L 20.242188 11.824219 L 20.242188 13.78125 L 18.308594 13.78125 Z M 23.335938 55.957031 C 23.003906 55.824219 22.53125 55.378906 22.347656 55.015625 C 22.164062 54.664062 22.160156 53.496094 22.335938 53.054688 C 22.527344 52.597656 23.148438 52.082031 23.59375 52 C 25.160156 51.707031 26.320312 52.570312 26.3125 54.015625 C 26.308594 55.320312 25.488281 56.082031 24.117188 56.0625 C 23.824219 56.058594 23.472656 56.011719 23.328125 55.957031 Z M 37.070312 55.882812 C 35.40625 55.089844 35.539062 52.632812 37.285156 52.054688 C 37.488281 51.988281 37.945312 51.949219 38.300781 51.972656 C 39.4375 52.042969 40 52.675781 40.082031 53.960938 C 40.136719 54.863281 40.039062 55.121094 39.433594 55.617188 C 38.984375 55.988281 38.886719 56.015625 38.210938 56.042969 C 37.660156 56.070312 37.378906 56.03125 37.070312 55.882812 Z M 37.070312 55.882812 "/>
</g>
</svg>
