<svg xmlns="http://www.w3.org/2000/svg" xmlns:xlink="http://www.w3.org/1999/xlink" width="64px" height="64px" viewBox="0 0 64 64" version="1.1">
<defs>
<linearGradient id="linear0" gradientUnits="userSpaceOnUse" x1="0" y1="0" x2="0" y2="1" gradientTransform="matrix(55.351351,0,0,40.594595,4.324324,11.702704)">
<stop offset="0" style="stop-color:#00a2ff;stop-opacity:1;"/>
<stop offset="0.5" style="stop-color:#dddddd;stop-opacity:1;"/>
<stop offset="1" style="stop-color:#00ffae;stop-opacity:1;"/>
</linearGradient>
</defs>
<g id="surface1">
<path style=" stroke:none;fill-rule:nonzero;fill:url(#linear0);" d="M 19.058594 11.703125 C 14.417969 11.757812 11.023438 11.597656 8.242188 13.132812 C 6.808594 13.949219 5.710938 15.257812 5.160156 16.8125 C 4.542969 18.429688 4.324219 20.351562 4.324219 22.78125 L 4.324219 41.226562 C 4.324219 43.652344 4.542969 45.570312 5.160156 47.1875 C 5.761719 48.8125 6.855469 50.105469 8.242188 50.867188 C 11.023438 52.40625 14.417969 52.242188 19.058594 52.296875 L 44.9375 52.296875 C 49.582031 52.242188 52.976562 52.402344 55.757812 50.867188 C 57.191406 50.054688 58.292969 48.746094 58.851562 47.1875 C 59.457031 45.570312 59.675781 43.648438 59.675781 41.226562 L 59.675781 22.78125 C 59.675781 20.347656 59.457031 18.429688 58.847656 16.8125 C 58.289062 15.257812 57.191406 13.949219 55.757812 13.132812 C 52.976562 11.59375 49.582031 11.757812 44.9375 11.703125 Z M 19.085938 15.390625 L 44.914062 15.390625 C 49.558594 15.445312 52.617188 15.613281 53.960938 16.355469 C 54.644531 16.726562 55.039062 17.144531 55.390625 18.105469 C 55.746094 19.058594 55.988281 20.59375 55.988281 22.78125 L 55.988281 41.226562 C 55.988281 43.40625 55.746094 44.941406 55.390625 45.894531 C 55.03125 46.855469 54.644531 47.269531 53.960938 47.636719 C 52.617188 48.386719 49.558594 48.554688 44.914062 48.609375 L 19.085938 48.609375 C 14.441406 48.554688 11.382812 48.386719 10.03125 47.636719 C 9.355469 47.273438 8.960938 46.855469 8.609375 45.894531 C 8.253906 44.941406 8.011719 43.40625 8.011719 41.226562 L 8.011719 22.78125 C 8.011719 20.59375 8.253906 19.058594 8.609375 18.105469 C 8.96875 17.144531 9.355469 16.730469 10.03125 16.355469 C 11.382812 15.613281 14.441406 15.445312 19.085938 15.390625 Z M 15.390625 22.78125 L 15.390625 26.460938 L 19.085938 26.460938 L 19.085938 22.78125 Z M 22.78125 22.78125 L 22.78125 26.460938 L 26.460938 26.460938 L 26.460938 22.78125 Z M 30.160156 22.78125 L 30.160156 26.460938 L 33.839844 26.460938 L 33.839844 22.78125 Z M 37.539062 22.78125 L 37.539062 26.460938 L 41.226562 26.460938 L 41.226562 22.78125 Z M 44.914062 22.78125 L 44.914062 26.460938 L 48.609375 26.460938 L 48.609375 22.78125 Z M 19.078125 30.160156 L 19.09375 33.839844 L 22.78125 33.839844 L 22.78125 30.160156 Z M 26.460938 30.160156 L 26.460938 33.839844 L 30.160156 33.839844 L 30.160156 30.160156 Z M 33.839844 30.160156 L 33.839844 33.839844 L 37.539062 33.839844 L 37.539062 30.160156 Z M 41.226562 30.160156 L 41.226562 33.839844 L 44.914062 33.839844 L 44.914062 30.160156 Z M 15.390625 37.539062 L 15.390625 41.226562 L 19.085938 41.226562 L 19.085938 37.539062 Z M 22.78125 37.539062 L 22.78125 41.226562 L 41.226562 41.226562 L 41.226562 37.539062 Z M 44.914062 37.539062 L 44.960938 41.226562 L 48.632812 41.226562 L 48.582031 37.539062 Z M 44.914062 37.539062 "/>
</g>
</svg>
