<svg xmlns="http://www.w3.org/2000/svg" xmlns:xlink="http://www.w3.org/1999/xlink" width="64px" height="64px" viewBox="0 0 64 64" version="1.1">
<defs>
<linearGradient id="linear0" gradientUnits="userSpaceOnUse" x1="0" y1="0" x2="0" y2="1" gradientTransform="matrix(55.351351,0,0,55.351351,4.324324,4.324324)">
<stop offset="0" style="stop-color:#ff8963;stop-opacity:1;"/>
<stop offset="0.5" style="stop-color:#dddddd;stop-opacity:1;"/>
<stop offset="1" style="stop-color:#0F6FFF;stop-opacity:1;"/>
</linearGradient>
</defs>
<g id="surface1">
<path style=" stroke:none;fill-rule:nonzero;fill:url(#linear0);" d="M 20.113281 4.324219 C 15.136719 4.382812 11.503906 4.203125 8.527344 5.839844 C 7.039062 6.664062 5.863281 8.054688 5.210938 9.789062 C 4.558594 11.527344 4.324219 13.582031 4.324219 16.1875 L 4.324219 48.636719 L 4.90625 49.207031 L 15.363281 59.675781 L 43.886719 59.675781 C 48.863281 59.617188 52.496094 59.796875 55.472656 58.160156 C 56.960938 57.335938 58.136719 55.945312 58.792969 54.210938 C 59.441406 52.472656 59.675781 50.417969 59.675781 47.820312 L 59.675781 16.1875 C 59.675781 13.582031 59.441406 11.527344 58.792969 9.789062 C 58.136719 8.054688 56.960938 6.664062 55.472656 5.839844 C 52.496094 4.203125 48.863281 4.382812 43.886719 4.324219 Z M 20.136719 8.273438 L 43.863281 8.273438 C 48.839844 8.335938 52.121094 8.511719 53.566406 9.3125 C 54.292969 9.710938 54.703125 10.152344 55.085938 11.1875 C 55.472656 12.210938 55.726562 13.839844 55.726562 16.1875 L 55.726562 47.820312 C 55.726562 50.160156 55.472656 51.789062 55.085938 52.8125 C 54.703125 53.847656 54.292969 54.289062 53.566406 54.6875 C 52.582031 55.234375 50.457031 55.441406 47.820312 55.566406 L 47.820312 35.949219 L 16.1875 35.949219 L 16.1875 54.902344 L 8.273438 46.988281 L 8.273438 16.1875 C 8.273438 13.839844 8.527344 12.210938 8.914062 11.1875 C 9.296875 10.152344 9.714844 9.710938 10.4375 9.3125 C 11.886719 8.511719 15.164062 8.335938 20.136719 8.273438 Z M 24.09375 39.90625 L 32 39.90625 L 32 55.726562 L 24.09375 55.726562 Z M 24.09375 39.90625 "/>
</g>
</svg>
