<svg xmlns="http://www.w3.org/2000/svg" xmlns:xlink="http://www.w3.org/1999/xlink" width="64px" height="64px" viewBox="0 0 64 64" version="1.1">
<defs>
<linearGradient id="linear0" gradientUnits="userSpaceOnUse" x1="0" y1="0" x2="0" y2="1" gradientTransform="matrix(29.657659,0,0,55.351351,17.171171,4.324324)">
<stop offset="0" style="stop-color:#ffae00;stop-opacity:1;"/>
<stop offset="0.5" style="stop-color:#dddddd;stop-opacity:1;"/>
<stop offset="1" style="stop-color:#bf1d1d;stop-opacity:1;"/>
</linearGradient>
</defs>
<g id="surface1">
<path style=" stroke:none;fill-rule:evenodd;fill:url(#linear0);" d="M 34.949219 24.511719 L 35.402344 24.511719 C 37.308594 24.511719 38.855469 22.96875 38.855469 21.0625 C 38.855469 19.46875 37.78125 18.132812 36.3125 17.738281 C 37.78125 17.351562 38.855469 16.011719 38.855469 14.417969 C 38.855469 12.839844 37.792969 11.503906 36.335938 11.113281 C 37.820312 10.730469 38.910156 9.378906 38.910156 7.78125 C 38.910156 5.875 37.363281 4.324219 35.457031 4.324219 L 28.542969 4.324219 C 26.636719 4.324219 25.089844 5.875 25.089844 7.78125 C 25.089844 9.355469 26.148438 10.691406 27.609375 11.085938 C 26.125 11.472656 25.039062 12.820312 25.039062 14.417969 C 25.039062 16.011719 26.113281 17.351562 27.582031 17.738281 C 26.113281 18.132812 25.039062 19.46875 25.039062 21.0625 C 25.039062 22.921875 26.511719 24.441406 28.355469 24.511719 C 25.070312 26.609375 22.300781 29.441406 20.289062 32.796875 C 18.285156 36.078125 17.210938 39.839844 17.175781 43.679688 C 17.070312 47.71875 18.488281 51.691406 21.117188 54.769531 C 22.496094 56.324219 24.191406 57.566406 26.089844 58.394531 C 28.132812 59.261719 30.335938 59.675781 32.554688 59.675781 L 32.589844 59.675781 C 34.691406 59.675781 36.800781 59.226562 38.734375 58.324219 C 40.539062 57.5 42.121094 56.253906 43.367188 54.703125 C 45.714844 51.664062 46.921875 47.863281 46.824219 44.058594 C 46.789062 39.324219 45.234375 34.691406 42.402344 30.890625 C 40.410156 28.226562 37.863281 26.054688 34.949219 24.511719 Z M 31.621094 30.585938 C 36.664062 33.210938 39.878906 38.429688 39.910156 44.132812 C 39.984375 46.410156 39.289062 48.617188 37.941406 50.414062 C 37.355469 51.109375 36.632812 51.691406 35.800781 52.078125 C 34.796875 52.527344 33.726562 52.765625 32.621094 52.765625 C 32.621094 52.765625 32.589844 52.765625 32.589844 52.765625 L 32.515625 52.765625 C 32.515625 52.765625 32.515625 52.765625 32.488281 52.765625 C 31.238281 52.765625 29.996094 52.527344 28.820312 52.039062 C 27.886719 51.625 27.027344 51.003906 26.335938 50.242188 C 24.8125 48.445312 24.015625 46.164062 24.089844 43.8125 C 24.121094 41.191406 24.847656 38.636719 26.191406 36.386719 C 27.578125 34.109375 29.441406 32.105469 31.621094 30.585938 Z M 31.621094 30.585938 "/>
</g>
</svg>
