<svg xmlns="http://www.w3.org/2000/svg" xmlns:xlink="http://www.w3.org/1999/xlink" width="64px" height="64px" viewBox="0 0 64 64" version="1.1">
<defs>
<linearGradient id="linear0" gradientUnits="userSpaceOnUse" x1="0" y1="0" x2="0" y2="1" gradientTransform="matrix(55.351351,0,0,45.099098,4.324324,9.45045)">
<stop offset="0" style="stop-color:#05f7ff;stop-opacity:1;"/>
<stop offset="0.5" style="stop-color:#dddddd;stop-opacity:1;"/>
<stop offset="1" style="stop-color:#e6ff05;stop-opacity:1;"/>
</linearGradient>
</defs>
<g id="surface1">
<path style=" stroke:none;fill-rule:nonzero;fill:url(#linear0);" d="M 59.671875 9.449219 L 31.917969 9.460938 L 16.511719 36.144531 L 11.117188 26.792969 L 4.328125 27.132812 L 4.328125 30.605469 L 9.285156 30.605469 L 16.679688 43.414062 L 18.523438 39.613281 L 33.933594 12.917969 L 59.675781 12.933594 Z M 42.324219 19.855469 C 36.5625 19.855469 31.917969 24.5 31.917969 30.265625 C 31.917969 36.03125 36.5625 40.671875 42.324219 40.671875 C 45.011719 40.671875 47.421875 39.636719 49.265625 37.988281 L 49.265625 40.671875 L 52.734375 40.671875 L 52.734375 19.855469 L 49.265625 19.855469 L 49.265625 22.542969 C 47.421875 20.890625 45.011719 19.855469 42.324219 19.855469 M 42.324219 23.328125 C 46.171875 23.328125 49.265625 26.421875 49.265625 30.265625 C 49.265625 34.109375 46.171875 37.203125 42.324219 37.203125 C 38.484375 37.203125 35.390625 34.109375 35.390625 30.265625 C 35.390625 26.421875 38.484375 23.328125 42.324219 23.328125 M 4.363281 44.441406 C 4.335938 44.441406 4.324219 45.21875 4.324219 46.175781 C 4.324219 47.136719 4.335938 47.914062 4.363281 47.914062 L 59.636719 47.578125 C 59.660156 47.578125 59.671875 46.800781 59.671875 45.839844 C 59.671875 44.878906 59.660156 44.105469 59.636719 44.105469 Z M 24.984375 51.082031 L 24.984375 54.550781 L 38.855469 54.550781 L 38.855469 51.082031 Z M 24.984375 51.082031 "/>
</g>
</svg>
