<svg xmlns="http://www.w3.org/2000/svg" xmlns:xlink="http://www.w3.org/1999/xlink" width="64px" height="64px" viewBox="0 0 64 64" version="1.1">
<defs>
<linearGradient id="linear0" gradientUnits="userSpaceOnUse" x1="0" y1="0" x2="0" y2="1" gradientTransform="matrix(55.351351,0,0,49.198199,4.324324,7.783784)">
<stop offset="0" style="stop-color:#00fff2;stop-opacity:1;"/>
<stop offset="0.5" style="stop-color:#dddddd;stop-opacity:1;"/>
<stop offset="1" style="stop-color:#0062ff;stop-opacity:1;"/>
</linearGradient>
</defs>
<g id="surface1">
<path style=" stroke:none;fill-rule:nonzero;fill:url(#linear0);" d="M 27.320312 7.785156 C 22.707031 7.785156 22.707031 10.863281 22.691406 13.933594 C 22.664062 15.835938 22.671875 19.800781 22.707031 25.652344 C 22.765625 35.003906 22.746094 37.941406 22.636719 38.339844 C 19.445312 38.003906 14.625 36.714844 12.46875 35.011719 C 11.058594 33.890625 9.660156 32.863281 9.363281 32.734375 C 8.121094 32.1875 6.363281 32.53125 5.363281 33.527344 C 4.664062 34.214844 4.40625 34.828125 4.339844 35.9375 C 4.296875 36.78125 4.324219 36.984375 4.582031 37.539062 C 4.746094 37.890625 5.039062 38.363281 5.238281 38.589844 C 5.433594 38.8125 8.117188 42.296875 11.207031 46.335938 C 16.917969 53.800781 22.605469 56.570312 23.585938 56.851562 C 24.1875 57.023438 55.066406 57.027344 55.6875 56.863281 C 55.96875 56.785156 56.378906 56.523438 56.664062 56.234375 C 57.078125 55.828125 57.230469 55.539062 57.542969 54.558594 C 58.449219 51.761719 59.355469 47.511719 59.613281 45.148438 C 59.726562 42.402344 59.664062 42.296875 59.613281 40.070312 C 59.613281 40.03125 59.605469 39.996094 59.597656 39.949219 C 59.605469 37.972656 59.617188 36.300781 59.597656 35.460938 C 59.609375 32.382812 59.617188 29.3125 55.011719 29.3125 C 50.851562 29.3125 50.46875 31.828125 50.417969 34.578125 C 50.410156 34.648438 50.390625 34.726562 50.386719 34.796875 C 50.390625 34.054688 50.394531 32.835938 50.386719 32.382812 C 50.394531 29.3125 50.402344 26.234375 45.792969 26.234375 C 41.664062 26.234375 41.253906 28.71875 41.203125 31.445312 C 41.1875 31.457031 41.175781 31.460938 41.164062 31.460938 C 41.164062 31.449219 41.164062 31.300781 41.160156 31.265625 C 41.164062 30.714844 41.164062 29.675781 41.160156 29.3125 C 41.171875 26.234375 41.171875 23.160156 36.5625 23.160156 C 33.0625 23.160156 32.21875 24.9375 32.011719 27.136719 C 32.011719 27.144531 31.9375 27.160156 31.9375 27.160156 C 31.867188 27.1875 31.921875 23.421875 31.921875 19.375 C 31.921875 16.605469 31.945312 14.957031 31.921875 13.933594 C 31.933594 10.863281 31.9375 7.785156 27.320312 7.785156 Z M 27.320312 7.785156 "/>
</g>
</svg>
