<svg xmlns="http://www.w3.org/2000/svg" xmlns:xlink="http://www.w3.org/1999/xlink" width="64px" height="64px" viewBox="0 0 64 64" version="1.1">
<defs>
<linearGradient id="linear0" gradientUnits="userSpaceOnUse" x1="0" y1="0" x2="0" y2="1" gradientTransform="matrix(55.351351,0,0,50.126125,4.324324,6.936937)">
<stop offset="0" style="stop-color:#ffae00;stop-opacity:1;"/>
<stop offset="0.5" style="stop-color:#dddddd;stop-opacity:1;"/>
<stop offset="1" style="stop-color:#bf1d1d;stop-opacity:1;"/>
</linearGradient>
</defs>
<g id="surface1">
<path style=" stroke:none;fill-rule:evenodd;fill:url(#linear0);" d="M 15.523438 10.773438 L 15.753906 11.609375 L 29.746094 11.609375 C 30.152344 11.609375 30.410156 11.46875 30.5 11.148438 C 29.609375 10.3125 28.164062 9.132812 28.164062 9.132812 L 26.863281 10.773438 L 23.6875 10.773438 L 23.6875 8.03125 C 24.324219 7.917969 24.582031 7.660156 24.636719 7.285156 L 21.8125 6.996094 L 21.8125 10.773438 Z M 17.886719 12.1875 C 18.496094 13.578125 19.242188 15.679688 19.363281 17.351562 C 21.089844 18.972656 23.054688 15.363281 18.261719 12.070312 Z M 7.296875 29.761719 L 7.296875 22.664062 L 13.1875 22.664062 L 13.1875 29.761719 Z M 13.960938 20.675781 L 12.894531 21.824219 L 11.21875 21.824219 L 11.21875 16.460938 L 16.273438 16.460938 C 16.648438 16.460938 16.933594 16.3125 17.023438 15.996094 C 16.097656 15.132812 14.597656 13.917969 14.597656 13.917969 L 13.296875 15.59375 L 11.21875 15.59375 L 11.21875 10.136719 C 12.636719 9.734375 13.9375 9.300781 14.945312 8.867188 C 15.636719 9.070312 16.125 9.042969 16.363281 8.785156 L 13.9375 6.9375 C 11.914062 8.378906 7.875 10.136719 4.324219 11.003906 L 4.496094 11.46875 C 6.113281 11.296875 7.761719 11.003906 9.347656 10.632812 L 9.347656 15.59375 L 4.351562 15.59375 L 4.554688 16.460938 L 9.347656 16.460938 L 9.347656 21.824219 L 7.441406 21.824219 L 5.484375 20.933594 L 5.484375 32.9375 L 5.765625 32.9375 C 6.542969 32.9375 7.296875 32.503906 7.296875 32.335938 L 7.296875 30.597656 L 13.1875 30.597656 L 13.1875 32.160156 L 13.472656 32.160156 C 14.082031 32.160156 15.003906 31.726562 15.03125 31.523438 L 15.03125 23.039062 C 15.636719 22.894531 16.097656 22.664062 16.300781 22.460938 Z M 30.382812 19.230469 C 30.757812 19.230469 31.050781 19.085938 31.136719 18.765625 C 30.238281 17.933594 28.769531 16.78125 28.769531 16.78125 L 27.5 18.390625 L 24.148438 18.390625 C 25.503906 16.890625 26.800781 14.902344 27.585938 13.402344 C 28.1875 13.429688 28.511719 13.199219 28.621094 12.910156 L 25.621094 11.988281 C 25.1875 13.917969 24.351562 16.542969 23.511719 18.390625 L 15.203125 18.390625 L 15.4375 19.230469 L 21.8125 19.230469 L 21.8125 24.105469 L 16.214844 24.105469 L 16.414062 24.972656 L 21.8125 24.972656 L 21.8125 33.339844 L 22.132812 33.339844 C 23.082031 33.339844 23.6875 32.878906 23.6875 32.738281 L 23.6875 24.972656 L 29.691406 24.972656 C 30.125 24.972656 30.382812 24.828125 30.472656 24.511719 C 29.578125 23.644531 28.105469 22.488281 28.105469 22.488281 L 26.800781 24.105469 L 23.6875 24.105469 L 23.6875 19.230469 Z M 39.792969 54.671875 L 39.792969 52.269531 L 52.949219 52.269531 L 52.949219 54.671875 Z M 52.949219 49.160156 L 52.949219 51.4375 L 39.792969 51.4375 L 39.792969 49.160156 Z M 52.664062 48.351562 L 39.960938 48.351562 L 37.941406 47.429688 L 37.941406 57.0625 L 38.175781 57.0625 C 38.988281 57.0625 39.792969 56.632812 39.792969 56.460938 L 39.792969 55.539062 L 52.949219 55.539062 L 52.949219 57.003906 L 53.242188 57.003906 C 53.847656 57.003906 54.796875 56.570312 54.828125 56.402344 L 54.828125 49.53125 C 55.40625 49.414062 55.863281 49.1875 56.066406 48.957031 L 53.703125 47.164062 Z M 47.121094 39.285156 L 47.121094 36.976562 L 52.746094 36.976562 L 52.746094 39.285156 Z M 47.121094 33.917969 L 52.746094 33.917969 L 52.746094 36.164062 L 47.121094 36.164062 Z M 53.011719 41.253906 C 53.644531 41.253906 54.566406 40.8125 54.597656 40.613281 L 54.597656 36.976562 L 58.949219 36.976562 C 59.355469 36.976562 59.589844 36.863281 59.675781 36.542969 C 58.835938 35.734375 57.394531 34.585938 57.394531 34.585938 L 56.1875 36.164062 L 54.597656 36.164062 L 54.597656 34.238281 C 55.144531 34.121094 55.578125 33.886719 55.78125 33.6875 L 53.5 31.929688 L 52.460938 33.050781 L 47.121094 33.050781 L 47.121094 31.785156 C 47.8125 31.664062 48.078125 31.382812 48.164062 30.976562 L 45.246094 30.660156 L 45.246094 33.050781 L 36.792969 33.050781 L 37.050781 33.917969 L 45.246094 33.917969 L 45.246094 36.164062 L 33.242188 36.164062 L 33.46875 36.976562 L 45.246094 36.976562 L 45.246094 39.285156 L 36.617188 39.285156 L 36.878906 40.152344 L 45.246094 40.152344 L 45.246094 42.347656 L 35.753906 42.347656 L 35.957031 43.210938 L 45.246094 43.210938 L 45.246094 45.488281 L 33.441406 45.488281 L 33.703125 46.328125 L 58.664062 46.328125 C 59.070312 46.328125 59.355469 46.1875 59.445312 45.863281 C 58.460938 45 57.023438 43.90625 57.023438 43.90625 L 55.691406 45.488281 L 47.121094 45.488281 L 47.121094 43.210938 L 56.90625 43.210938 C 57.253906 43.210938 57.539062 43.066406 57.625 42.746094 C 56.730469 41.910156 55.289062 40.847656 55.289062 40.847656 L 54.042969 42.347656 L 47.121094 42.347656 L 47.121094 40.152344 L 52.746094 40.152344 L 52.746094 41.253906 Z M 53.011719 41.253906 "/>
</g>
</svg>
