<svg xmlns="http://www.w3.org/2000/svg" xmlns:xlink="http://www.w3.org/1999/xlink" width="64px" height="64px" viewBox="0 0 64 64" version="1.1">
<defs>
<linearGradient id="linear0" gradientUnits="userSpaceOnUse" x1="0" y1="0" x2="0" y2="1" gradientTransform="matrix(55.351351,0,0,44.027027,4.324324,9.986486)">
<stop offset="0" style="stop-color:#05f7ff;stop-opacity:1;"/>
<stop offset="0.5" style="stop-color:#dddddd;stop-opacity:1;"/>
<stop offset="1" style="stop-color:#e6ff05;stop-opacity:1;"/>
</linearGradient>
</defs>
<g id="surface1">
<path style=" stroke:none;fill-rule:nonzero;fill:url(#linear0);" d="M 52.109375 52.328125 C 53.46875 49.785156 56.296875 49.511719 56.292969 46.5 C 56.292969 44.1875 55.648438 42.929688 54.078125 42.1875 C 51.191406 40.8125 48.382812 42.4375 48.382812 45.476562 C 48.382812 48.460938 51.226562 50.117188 53.113281 48.230469 C 53.902344 47.445312 54.089844 46.125 53.53125 45.324219 C 53.285156 44.972656 53.257812 45.027344 53.410156 45.578125 C 53.945312 47.46875 52.488281 48.78125 50.8125 47.910156 C 49.0625 47.003906 49.394531 44.09375 51.308594 43.617188 C 52.246094 43.382812 53.503906 44.207031 54.125 45.46875 C 54.460938 46.148438 54.46875 46.558594 54.1875 47.511719 C 53.246094 50.636719 49.039062 50.660156 42.699219 47.566406 C 41.164062 46.820312 39.105469 45.6875 38.121094 45.054688 C 36.433594 43.960938 34.375 43.042969 31.429688 40.457031 C 29.863281 39.082031 29.636719 39.265625 33.707031 38.605469 C 34.878906 38.410156 38.300781 37.417969 41.3125 36.390625 C 46.664062 34.578125 46.867188 34.53125 50.136719 34.511719 C 51.984375 34.496094 48.929688 34.378906 51.984375 34.511719 L 57.539062 34.753906 L 57.539062 28.726562 L 51.066406 28.554688 C 41.824219 28.3125 46.328125 27.988281 36.785156 24.308594 C 34.960938 23.605469 32.433594 22.753906 31.160156 22.417969 C 28.144531 21.632812 23.582031 21.363281 21.292969 21.839844 C 18.660156 22.390625 14.933594 24.386719 12.765625 26.414062 C 9.40625 29.554688 5.613281 35.429688 5.988281 36.90625 C 6.152344 37.570312 6.324219 37.617188 9.285156 37.742188 C 11 37.8125 14.5625 38.207031 17.199219 38.613281 L 21.988281 39.351562 L 21.988281 41.417969 C 21.164062 45.207031 21.757812 47.253906 21.902344 48.632812 C 22.457031 53.621094 22.660156 54.164062 23.9375 53.984375 C 25.90625 50.742188 25.933594 44.539062 25.949219 40.949219 L 28.152344 42.917969 C 33.664062 47.835938 35.285156 47.765625 40.011719 50.0625 C 44.46875 52.234375 49.367188 53.148438 52.109375 52.324219 Z M 10.1875 34.800781 C 9.882812 34.496094 11.765625 32.171875 14.230469 29.808594 C 17.894531 26.285156 17.882812 26.289062 17.890625 29.113281 C 17.894531 31.890625 18.566406 33.40625 20.488281 35 L 21.742188 36.042969 L 16.039062 35.5 C 12.910156 35.203125 10.273438 34.886719 10.1875 34.800781 Z M 30.742188 35.066406 C 31.285156 34.636719 32.109375 33.648438 32.566406 32.863281 C 33.296875 31.621094 33.40625 31.121094 33.40625 28.933594 C 33.40625 27.550781 33.496094 26.417969 33.605469 26.417969 C 33.714844 26.417969 35.886719 27.3125 38.433594 28.402344 C 40.972656 29.488281 43.382812 30.460938 43.785156 30.5625 C 44.1875 30.664062 44.511719 30.851562 44.511719 30.984375 C 44.511719 31.109375 42.972656 31.984375 41.089844 32.914062 C 37.246094 34.820312 34.375 35.617188 30.664062 35.800781 L 29.753906 35.847656 Z M 59.675781 20.421875 C 59.675781 18.726562 59.472656 18.5625 57.335938 18.5625 C 52.558594 18.5625 51.375 17.796875 44.1875 14.613281 C 36.496094 11.207031 31.835938 9.988281 26.496094 9.988281 C 21.269531 9.988281 15.761719 11.414062 10.105469 14.234375 C 5.496094 16.527344 3.527344 18.421875 4.617188 19.511719 C 5 19.894531 4.738281 19.976562 11.1875 17.460938 C 15.597656 15.746094 21.015625 14.296875 23.949219 14.050781 C 28.476562 13.664062 33.867188 14.855469 43.410156 18.335938 C 46.835938 19.589844 50.78125 20.90625 52.164062 21.257812 C 55.136719 22.015625 55.449219 21.894531 57.929688 21.90625 L 59.675781 21.914062 Z M 59.675781 20.421875 "/>
</g>
</svg>
