<svg xmlns="http://www.w3.org/2000/svg" xmlns:xlink="http://www.w3.org/1999/xlink" width="64px" height="64px" viewBox="0 0 64 64" version="1.1">
<defs>
<linearGradient id="linear0" gradientUnits="userSpaceOnUse" x1="0" y1="0" x2="0" y2="1" gradientTransform="matrix(55.351351,0,0,55.351351,4.324324,4.324324)">
<stop offset="0" style="stop-color:#ff8963;stop-opacity:1;"/>
<stop offset="0.5" style="stop-color:#dddddd;stop-opacity:1;"/>
<stop offset="1" style="stop-color:#0F6FFF;stop-opacity:1;"/>
</linearGradient>
</defs>
<g id="surface1">
<path style=" stroke:none;fill-rule:evenodd;fill:url(#linear0);" d="M 9.355469 31.335938 L 9.355469 9.355469 L 32.125 9.355469 L 32.171875 31.039062 C 31.875 31.117188 31.570312 31.203125 31.273438 31.292969 Z M 9.355469 32.28125 L 9.355469 47.742188 C 9.820312 46.679688 10.382812 45.652344 11.023438 44.675781 C 13.039062 41.714844 15.585938 39.203125 18.539062 37.253906 C 21.648438 35.226562 24.984375 33.539062 28.457031 32.246094 Z M 54.644531 32.191406 L 54.644531 54.644531 L 33.164062 54.644531 L 33.117188 32.375 C 33.257812 32.320312 33.394531 32.273438 33.527344 32.234375 Z M 54.644531 31.246094 L 54.644531 16.46875 C 54.296875 17.265625 53.894531 18.039062 53.449219 18.792969 C 51.753906 21.558594 49.488281 23.984375 46.839844 25.863281 C 44.515625 27.5625 42 28.984375 39.363281 30.113281 C 38.363281 30.53125 37.355469 30.917969 36.351562 31.285156 Z M 33.070312 9.355469 L 54.644531 9.355469 L 54.644531 10.621094 C 54.3125 13.207031 53.449219 15.71875 52.125 17.972656 C 50.488281 20.554688 48.414062 22.8125 45.933594 24.582031 C 43.699219 26.210938 41.28125 27.5625 38.730469 28.664062 C 36.90625 29.421875 35.082031 30.113281 33.191406 30.710938 C 33.171875 30.71875 33.136719 30.726562 33.113281 30.738281 Z M 32.214844 54.644531 L 9.355469 54.644531 L 9.355469 53.542969 C 9.730469 50.703125 10.746094 47.96875 12.339844 45.554688 C 14.234375 42.789062 16.621094 40.429688 19.421875 38.570312 C 23.363281 35.988281 27.652344 34 32.175781 32.679688 Z M 4.324219 4.324219 L 59.675781 4.324219 L 59.675781 59.675781 L 4.324219 59.675781 Z M 4.324219 4.324219 "/>
</g>
</svg>
