<svg xmlns="http://www.w3.org/2000/svg" xmlns:xlink="http://www.w3.org/1999/xlink" width="64px" height="64px" viewBox="0 0 64 64" version="1.1">
<defs>
<linearGradient id="linear0" gradientUnits="userSpaceOnUse" x1="0" y1="0" x2="0" y2="1" gradientTransform="matrix(55.351351,0,0,20.99099,4.324324,21.504503)">
<stop offset="0" style="stop-color:#ffae00;stop-opacity:1;"/>
<stop offset="0.5" style="stop-color:#dddddd;stop-opacity:1;"/>
<stop offset="1" style="stop-color:#bf1d1d;stop-opacity:1;"/>
</linearGradient>
</defs>
<g id="surface1">
<path style=" stroke:none;fill-rule:evenodd;fill:url(#linear0);" d="M 10.042969 21.503906 L 10.042969 27.230469 L 4.324219 27.230469 L 4.324219 29.136719 L 11.960938 29.136719 L 11.960938 23.414062 L 13.863281 23.414062 L 13.863281 34.863281 L 19.589844 34.863281 L 19.589844 29.136719 L 31.039062 29.136719 L 31.039062 23.414062 L 32.957031 23.414062 L 32.957031 34.863281 L 38.679688 34.863281 L 38.679688 29.136719 L 48.21875 29.136719 L 48.21875 23.414062 L 50.132812 23.414062 L 50.132812 34.863281 L 55.863281 34.863281 L 55.863281 29.136719 L 59.675781 29.136719 L 59.675781 27.230469 L 53.945312 27.230469 L 53.945312 32.957031 L 52.039062 32.957031 L 52.039062 21.503906 L 46.3125 21.503906 L 46.3125 27.230469 L 36.769531 27.230469 L 36.769531 32.957031 L 34.863281 32.957031 L 34.863281 21.503906 L 29.136719 21.503906 L 29.136719 27.230469 L 17.6875 27.230469 L 17.6875 32.957031 L 15.773438 32.957031 L 15.773438 21.503906 Z M 46.3125 36.773438 L 46.3125 42.496094 L 48.21875 42.496094 L 48.21875 36.773438 Z M 42.496094 38.679688 L 42.496094 42.496094 L 44.40625 42.496094 L 44.40625 38.679688 Z M 50.132812 38.679688 L 50.132812 42.496094 L 52.039062 42.496094 L 52.039062 38.679688 Z M 38.679688 40.589844 L 38.679688 42.496094 L 40.585938 42.496094 L 40.585938 40.589844 Z M 53.945312 40.589844 L 53.945312 42.496094 L 55.863281 42.496094 L 55.863281 40.589844 Z M 53.945312 40.589844 "/>
</g>
</svg>
