<svg xmlns="http://www.w3.org/2000/svg" xmlns:xlink="http://www.w3.org/1999/xlink" width="64px" height="64px" viewBox="0 0 64 64" version="1.1">
<defs>
<linearGradient id="linear0" gradientUnits="userSpaceOnUse" x1="0" y1="0" x2="0" y2="1" gradientTransform="matrix(55.351351,0,0,29.072071,4.324324,16.765764)">
<stop offset="0" style="stop-color:#00b7ff;stop-opacity:1;"/>
<stop offset="0.5" style="stop-color:#dddddd;stop-opacity:1;"/>
<stop offset="1" style="stop-color:#ee42d9;stop-opacity:1;"/>
</linearGradient>
</defs>
<g id="surface1">
<path style=" stroke:none;fill-rule:nonzero;fill:url(#linear0);" d="M 48.417969 16.765625 C 45.828125 16.765625 43.324219 17.609375 41.320312 19.152344 C 38.53125 18.148438 35.363281 17.582031 31.988281 17.582031 C 28.59375 17.582031 25.402344 18.160156 22.605469 19.171875 C 20.613281 17.671875 18.136719 16.851562 15.582031 16.851562 C 9.363281 16.851562 4.324219 21.605469 4.324219 27.46875 C 4.335938 32.378906 7.910156 36.648438 12.972656 37.789062 C 13.664062 39.894531 14.769531 41.867188 16.503906 43.175781 C 20.152344 45.941406 26.5 45.835938 32.082031 45.835938 C 38.863281 45.835938 45.285156 45.984375 48.875 42.175781 C 49.855469 41.136719 50.570312 39.472656 51.070312 37.6875 C 56.117188 36.539062 59.664062 32.28125 59.675781 27.382812 C 59.675781 24.566406 58.488281 21.867188 56.378906 19.875 C 54.269531 17.882812 51.40625 16.765625 48.417969 16.765625 Z M 21.769531 27.949219 C 21.9375 27.949219 22.097656 27.960938 22.265625 27.976562 C 23.957031 28.164062 25.445312 29.269531 26.207031 30.917969 C 26.207031 30.921875 26.210938 30.921875 26.210938 30.929688 C 26.558594 31.675781 26.738281 32.5 26.738281 33.335938 C 26.738281 34.765625 26.210938 36.136719 25.285156 37.144531 C 24.351562 38.152344 23.089844 38.71875 21.769531 38.71875 C 20.691406 38.714844 19.648438 38.335938 18.792969 37.636719 C 18.664062 37.53125 18.539062 37.417969 18.414062 37.296875 C 18.410156 37.292969 18.410156 37.292969 18.410156 37.289062 C 18.289062 37.171875 18.175781 37.050781 18.066406 36.917969 C 18.0625 36.914062 18.058594 36.902344 18.050781 36.890625 C 17.949219 36.769531 17.855469 36.636719 17.765625 36.511719 C 17.753906 36.488281 17.742188 36.472656 17.734375 36.457031 C 17.648438 36.335938 17.570312 36.199219 17.5 36.066406 C 17.484375 36.039062 17.46875 36.015625 17.457031 35.988281 C 17.390625 35.867188 17.328125 35.738281 17.273438 35.613281 C 17.257812 35.570312 17.238281 35.53125 17.226562 35.496094 C 17.175781 35.378906 17.132812 35.257812 17.09375 35.136719 C 17.078125 35.082031 17.058594 35.027344 17.039062 34.972656 C 17.003906 34.855469 16.976562 34.742188 16.949219 34.625 C 16.9375 34.5625 16.921875 34.503906 16.914062 34.441406 C 16.890625 34.335938 16.875 34.21875 16.855469 34.109375 C 16.847656 34.039062 16.839844 33.960938 16.835938 33.886719 C 16.824219 33.78125 16.8125 33.664062 16.8125 33.558594 C 16.808594 33.484375 16.800781 33.410156 16.800781 33.335938 C 16.800781 30.363281 19.027344 27.949219 21.769531 27.949219 Z M 42.300781 28.21875 C 42.96875 28.21875 43.625 28.367188 44.234375 28.648438 C 44.238281 28.648438 44.238281 28.648438 44.238281 28.648438 C 46.078125 29.488281 47.269531 31.441406 47.269531 33.609375 C 47.269531 35.152344 46.660156 36.617188 45.589844 37.636719 C 44.679688 38.511719 43.511719 38.988281 42.300781 38.996094 C 40.984375 38.996094 39.71875 38.429688 38.792969 37.417969 C 37.863281 36.40625 37.335938 35.039062 37.335938 33.609375 C 37.335938 32.742188 37.53125 31.890625 37.894531 31.125 C 38.121094 30.660156 38.410156 30.230469 38.746094 29.851562 C 38.761719 29.835938 38.769531 29.824219 38.78125 29.8125 C 38.882812 29.699219 38.988281 29.589844 39.105469 29.488281 C 39.117188 29.476562 39.136719 29.460938 39.148438 29.449219 C 39.253906 29.355469 39.363281 29.265625 39.476562 29.1875 C 39.503906 29.164062 39.527344 29.148438 39.554688 29.132812 C 39.664062 29.054688 39.773438 28.984375 39.890625 28.910156 C 39.921875 28.890625 39.949219 28.875 39.984375 28.863281 C 40.089844 28.796875 40.203125 28.738281 40.3125 28.6875 C 40.355469 28.664062 40.394531 28.636719 40.4375 28.621094 C 40.539062 28.578125 40.648438 28.539062 40.761719 28.503906 C 40.808594 28.488281 40.863281 28.46875 40.910156 28.449219 C 41.011719 28.417969 41.117188 28.394531 41.21875 28.367188 C 41.28125 28.355469 41.335938 28.339844 41.402344 28.335938 C 41.496094 28.3125 41.59375 28.292969 41.699219 28.28125 C 41.761719 28.269531 41.828125 28.261719 41.890625 28.253906 C 42.03125 28.238281 42.164062 28.234375 42.308594 28.230469 Z M 34.300781 37.027344 C 34.855469 37.027344 35.300781 37.824219 35.300781 38.808594 C 35.300781 38.867188 35.300781 38.941406 35.296875 39.003906 C 35.191406 39.1875 35.105469 39.394531 34.976562 39.554688 C 34.730469 39.878906 34.441406 40.148438 34.113281 40.367188 C 34.054688 40.40625 33.984375 40.417969 33.921875 40.445312 C 33.542969 40.175781 33.300781 39.523438 33.300781 38.800781 C 33.300781 37.820312 33.753906 37.023438 34.300781 37.023438 Z M 29.664062 37.089844 C 29.929688 37.089844 30.1875 37.28125 30.367188 37.613281 C 30.558594 37.945312 30.664062 38.402344 30.664062 38.867188 C 30.664062 39.710938 30.335938 40.4375 29.863281 40.613281 C 29.6875 40.515625 29.488281 40.460938 29.324219 40.347656 C 29.132812 40.207031 28.984375 40.011719 28.8125 39.828125 C 28.710938 39.539062 28.660156 39.210938 28.660156 38.875 C 28.660156 38.402344 28.765625 37.949219 28.949219 37.613281 C 29.144531 37.285156 29.394531 37.09375 29.664062 37.09375 Z M 31.976562 41.335938 C 32.257812 41.328125 32.539062 41.328125 32.726562 41.386719 C 32.878906 41.429688 32.960938 41.449219 33.039062 41.503906 C 33.109375 41.554688 33.136719 41.59375 33.230469 41.671875 C 33.351562 41.761719 33.457031 41.890625 33.5625 42.027344 C 33.675781 42.164062 33.785156 42.296875 33.878906 42.375 C 34 42.484375 34.089844 42.59375 34.171875 42.671875 C 34.257812 42.753906 34.320312 42.789062 34.421875 42.789062 C 34.738281 42.789062 35.015625 42.867188 35.335938 42.765625 C 35.460938 42.726562 35.734375 42.53125 35.949219 42.355469 C 36.164062 42.1875 36.335938 42.027344 36.335938 42.027344 C 36.378906 41.988281 36.433594 41.96875 36.488281 41.988281 C 36.539062 42 36.582031 42.042969 36.589844 42.097656 C 36.597656 42.152344 36.585938 42.207031 36.539062 42.242188 C 36.539062 42.242188 36.363281 42.410156 36.136719 42.589844 C 35.914062 42.769531 35.652344 42.96875 35.429688 43.042969 C 35.023438 43.1875 34.675781 43.085938 34.421875 43.085938 C 34.230469 43.085938 34.082031 42.996094 33.972656 42.890625 C 33.863281 42.789062 33.773438 42.6875 33.679688 42.597656 C 33.558594 42.496094 33.441406 42.351562 33.335938 42.21875 C 33.226562 42.085938 33.121094 41.960938 33.042969 41.902344 C 32.945312 41.820312 32.902344 41.769531 32.867188 41.753906 C 32.835938 41.726562 32.792969 41.710938 32.648438 41.671875 C 32.542969 41.644531 32.253906 41.636719 31.988281 41.636719 C 31.71875 41.636719 31.449219 41.660156 31.40625 41.671875 C 31.214844 41.710938 31.285156 41.644531 31.011719 41.8125 C 30.90625 41.878906 30.6875 42.09375 30.488281 42.3125 C 30.28125 42.539062 30.082031 42.757812 29.882812 42.875 C 29.542969 43.070312 29.3125 43.058594 29.234375 43.082031 C 29.164062 43.089844 29.109375 43.089844 29.027344 43.089844 C 28.945312 43.085938 28.851562 43.078125 28.753906 43.0625 C 28.550781 43.027344 28.324219 42.972656 28.136719 42.878906 C 27.9375 42.773438 27.734375 42.570312 27.5625 42.386719 C 27.386719 42.207031 27.257812 42.042969 27.257812 42.042969 C 27.21875 42 27.207031 41.941406 27.226562 41.890625 C 27.246094 41.835938 27.292969 41.808594 27.347656 41.796875 C 27.402344 41.789062 27.457031 41.8125 27.488281 41.855469 C 27.488281 41.855469 27.613281 42.011719 27.773438 42.1875 C 27.941406 42.363281 28.152344 42.554688 28.273438 42.617188 C 28.410156 42.6875 28.617188 42.746094 28.800781 42.773438 C 28.890625 42.789062 28.972656 42.800781 29.039062 42.800781 C 29.109375 42.800781 29.164062 42.796875 29.164062 42.800781 C 29.335938 42.757812 29.441406 42.789062 29.734375 42.621094 C 29.851562 42.554688 30.066406 42.335938 30.269531 42.117188 C 30.472656 41.890625 30.664062 41.675781 30.851562 41.566406 C 31.148438 41.382812 31.214844 41.414062 31.347656 41.386719 C 31.460938 41.355469 31.703125 41.347656 31.976562 41.347656 Z M 31.976562 41.335938 "/>
</g>
</svg>
