<svg xmlns="http://www.w3.org/2000/svg" xmlns:xlink="http://www.w3.org/1999/xlink" width="64px" height="64px" viewBox="0 0 64 64" version="1.1">
<defs>
<linearGradient id="linear0" gradientUnits="userSpaceOnUse" x1="0" y1="0" x2="0" y2="1" gradientTransform="matrix(55.351351,0,0,55.351351,4.324324,4.324324)">
<stop offset="0" style="stop-color:#00a2ff;stop-opacity:1;"/>
<stop offset="0.5" style="stop-color:#dddddd;stop-opacity:1;"/>
<stop offset="1" style="stop-color:#00ffae;stop-opacity:1;"/>
</linearGradient>
</defs>
<g id="surface1">
<path style=" stroke:none;fill-rule:nonzero;fill:url(#linear0);" d="M 17.785156 59.417969 C 17.648438 59.28125 17.539062 58.773438 17.539062 58.289062 C 17.539062 57.210938 16.945312 57.148438 16.402344 58.164062 C 15.757812 59.367188 15.230469 59.039062 15.351562 57.503906 C 15.433594 56.402344 15.335938 56.125 14.890625 56.238281 C 12.367188 56.886719 12.355469 56.863281 14.039062 55.03125 C 15.847656 53.066406 16.175781 51.882812 14.800781 52.3125 C 14.335938 52.460938 12.972656 52.675781 11.78125 52.785156 C 8.109375 53.121094 4.324219 50.734375 4.324219 48.085938 C 4.324219 46.960938 6.273438 45.402344 9.085938 44.265625 C 10.515625 43.6875 11.730469 42.976562 11.78125 42.6875 C 11.835938 42.394531 11.28125 41.773438 10.539062 41.296875 C 8.863281 40.214844 7.914062 38.699219 6.917969 35.460938 C 5.773438 31.738281 6.027344 25.308594 7.488281 21.066406 C 12.554688 6.375 27.289062 0.28125 41.1875 7.125 C 50.085938 11.503906 56.511719 18.445312 57.914062 25.179688 C 58.296875 27 58.257812 27.390625 57.582031 28.714844 C 56.6875 30.460938 54.699219 32.554688 53.933594 32.554688 C 53.636719 32.554688 52.933594 32.003906 52.363281 31.335938 C 50.878906 29.566406 44.164062 22.9375 41.367188 20.460938 L 38.984375 18.355469 L 39.246094 16.238281 C 39.5 14.214844 39.46875 14.105469 38.539062 13.679688 C 37.109375 13.03125 35.125 13.664062 34.960938 14.820312 C 34.867188 15.476562 35.351562 16.230469 36.835938 17.726562 L 38.835938 19.753906 L 36.585938 19.757812 C 32.496094 19.765625 31.707031 20.410156 33.71875 22.097656 C 35.207031 23.351562 35.726562 24.449219 35.59375 26.085938 L 35.484375 27.472656 L 37.269531 27.378906 C 38.636719 27.3125 39.050781 27.417969 39.050781 27.847656 C 39.050781 28.164062 38.882812 28.414062 38.671875 28.414062 C 38.042969 28.414062 38.253906 29.476562 38.957031 29.890625 C 39.46875 30.191406 39.511719 30.351562 39.136719 30.605469 C 38.863281 30.773438 38.757812 31.203125 38.886719 31.550781 C 39.253906 32.5 38.503906 32.328125 35.582031 30.796875 C 33.171875 29.53125 32.867188 29.234375 32.023438 27.324219 C 30.515625 23.941406 29.234375 23.03125 29.234375 25.363281 C 29.234375 25.9375 28.878906 27.746094 28.441406 29.386719 C 27.050781 34.605469 26.886719 34.0625 29.855469 34.0625 C 32.828125 34.0625 34.972656 34.566406 35.6875 35.417969 C 36.207031 36.042969 36.269531 37.761719 35.855469 39.972656 C 35.613281 41.261719 35.636719 41.300781 36.5625 41.070312 C 37.460938 40.847656 37.511719 40.902344 37.296875 41.96875 C 37.078125 43.058594 37.117188 43.105469 38.4375 43.105469 C 39.1875 43.105469 39.808594 43.269531 39.808594 43.476562 C 39.808594 43.6875 39.671875 43.851562 39.5 43.851562 C 39.328125 43.851562 38.863281 44.09375 38.460938 44.382812 C 37.753906 44.90625 37.753906 44.933594 38.449219 45.703125 C 39.269531 46.605469 39.175781 46.636719 36.21875 46.5 C 33.988281 46.394531 33.523438 46.085938 33.1875 44.488281 C 32.796875 42.621094 31.933594 41.457031 31.320312 41.960938 C 30.152344 42.933594 32.410156 46.914062 35.21875 48.839844 C 39.1875 51.566406 43.714844 52.203125 47.882812 50.625 C 50.714844 49.554688 54.824219 45.578125 57.09375 41.707031 C 59.625 37.394531 60.175781 37.472656 59.261719 42 C 57.730469 49.53125 52.539062 55.199219 44.933594 57.648438 C 42.488281 58.433594 41.132812 58.632812 38.109375 58.636719 C 31.800781 58.648438 28.199219 56.878906 22.363281 50.917969 C 18.691406 47.175781 17.597656 46.886719 19.476562 50.164062 L 20.679688 52.261719 L 19.460938 55.96875 C 18.796875 58.011719 18.199219 59.675781 18.144531 59.675781 C 18.089844 59.675781 17.933594 59.5625 17.792969 59.429688 Z M 19.460938 39.105469 C 16.1875 32.570312 15.460938 29.941406 15.460938 24.644531 C 15.460938 20.675781 15.542969 20.152344 16.46875 18.394531 C 19.285156 13.085938 25.292969 9.976562 32.789062 9.960938 C 36.308594 9.957031 40.285156 10.578125 41.878906 11.375 C 43.839844 12.363281 46.636719 14.917969 49.5 18.347656 C 52.835938 22.363281 53.113281 23.121094 50.664062 21.632812 C 49.984375 21.21875 49.058594 20.882812 48.609375 20.882812 C 47.160156 20.878906 46.621094 20.460938 46.375 19.132812 C 46.191406 18.179688 45.664062 17.484375 44.402344 16.511719 C 41.542969 14.335938 40.460938 15.320312 42.433594 18.292969 C 44.097656 20.800781 53.269531 29.621094 54.0625 29.472656 C 55.214844 29.257812 56.097656 26.949219 55.910156 24.636719 C 55.59375 20.730469 52.835938 16.664062 48.523438 13.757812 C 44.582031 11.09375 37.121094 7.703125 33.753906 7.039062 C 23.03125 4.933594 12.570312 11.597656 11.03125 21.515625 C 10.113281 27.460938 13.402344 35.3125 19.566406 41.878906 C 20.589844 42.96875 21.488281 43.796875 21.566406 43.71875 C 21.644531 43.644531 20.691406 41.566406 19.460938 39.105469 Z M 19.460938 39.105469 "/>
</g>
</svg>
