<svg xmlns="http://www.w3.org/2000/svg" xmlns:xlink="http://www.w3.org/1999/xlink" width="64px" height="64px" viewBox="0 0 64 64" version="1.1">
<defs>
<linearGradient id="linear0" gradientUnits="userSpaceOnUse" x1="0" y1="0" x2="0" y2="1" gradientTransform="matrix(51.891892,0,0,48.77027,6.054054,7.445946)">
<stop offset="0" style="stop-color:#ffae00;stop-opacity:1;"/>
<stop offset="0.5" style="stop-color:#dddddd;stop-opacity:1;"/>
<stop offset="1" style="stop-color:#bf1d1d;stop-opacity:1;"/>
</linearGradient>
</defs>
<g id="surface1">
<path style=" stroke:none;fill-rule:nonzero;fill:url(#linear0);" d="M 55.933594 7.460938 C 55.6875 7.582031 55.476562 7.757812 55.320312 7.972656 L 53.679688 9.613281 L 53.164062 9.105469 L 33.503906 28.765625 L 34.011719 29.28125 L 32.378906 30.917969 L 32.273438 33.273438 L 34.632812 33.171875 L 36.269531 31.53125 L 36.78125 32.042969 L 56.445312 12.378906 L 55.933594 11.867188 L 57.570312 10.230469 C 58.53125 9.253906 57.488281 7.242188 56.136719 7.460938 C 56.070312 7.460938 56 7.460938 55.933594 7.460938 Z M 9.335938 13.609375 C 7.515625 13.609375 6.054688 15.070312 6.054688 16.886719 L 6.054688 46.382812 C 6.054688 48.199219 7.515625 49.664062 9.335938 49.664062 L 48.664062 49.664062 C 50.476562 49.664062 51.941406 48.199219 51.941406 46.382812 L 51.941406 21.597656 L 39.136719 34.402344 L 36.78125 36.652344 L 36.269531 36.136719 L 36.0625 36.347656 L 34.734375 36.449219 L 32.378906 36.550781 L 28.894531 36.652344 L 28.996094 33.171875 L 29.097656 30.8125 L 29.203125 29.484375 L 29.40625 29.28125 L 28.890625 28.765625 L 31.148438 26.410156 L 43.949219 13.609375 Z M 6.054688 49.664062 L 6.054688 52.9375 C 6.054688 54.753906 7.515625 56.214844 9.335938 56.214844 L 48.664062 56.214844 C 50.476562 56.214844 51.941406 54.753906 51.941406 52.9375 L 51.941406 49.664062 C 51.941406 51.476562 50.476562 52.9375 48.664062 52.9375 L 9.335938 52.9375 C 7.515625 52.9375 6.054688 51.476562 6.054688 49.664062 Z M 6.054688 49.664062 "/>
</g>
</svg>
