<svg xmlns="http://www.w3.org/2000/svg" xmlns:xlink="http://www.w3.org/1999/xlink" width="64px" height="64px" viewBox="0 0 64 64" version="1.1">
<defs>
<linearGradient id="linear0" gradientUnits="userSpaceOnUse" x1="0" y1="0" x2="0" y2="1" gradientTransform="matrix(44.972973,0,0,44.693693,9.513514,9.792793)">
<stop offset="0" style="stop-color:#05f7ff;stop-opacity:1;"/>
<stop offset="0.5" style="stop-color:#dddddd;stop-opacity:1;"/>
<stop offset="1" style="stop-color:#e6ff05;stop-opacity:1;"/>
</linearGradient>
</defs>
<g id="surface1">
<path style=" stroke:none;fill-rule:nonzero;fill:url(#linear0);" d="M 31.824219 54.109375 C 30.851562 53.554688 30.613281 53.113281 30.605469 51.863281 C 30.59375 50.308594 31.570312 49.609375 34.226562 49.28125 C 36.671875 48.972656 37.011719 48.847656 38.214844 47.757812 L 39.003906 47.042969 L 39.003906 32.296875 C 39.003906 19.234375 38.941406 17.460938 38.433594 16.734375 C 37.675781 15.648438 35.890625 14.945312 33.910156 14.945312 C 32.585938 14.945312 32.109375 14.757812 31.246094 13.894531 C 30.449219 13.097656 30.257812 12.660156 30.441406 12.058594 C 30.78125 10.941406 31.5625 10.136719 32.550781 9.890625 C 33.917969 9.542969 37.960938 10.351562 39.753906 11.324219 L 41.402344 12.21875 L 43.289062 11.296875 C 45.390625 10.269531 49.097656 9.542969 50.589844 9.867188 C 51.636719 10.097656 52.664062 11.363281 52.664062 12.414062 C 52.664062 12.769531 52.355469 13.390625 51.984375 13.796875 C 51.289062 14.539062 50.691406 14.71875 47.699219 15.113281 C 46.796875 15.234375 45.652344 15.648438 45.160156 16.039062 C 44.335938 16.6875 44.261719 16.972656 44.261719 19.347656 L 44.261719 21.949219 L 48.789062 21.949219 C 52.4375 21.949219 53.421875 22.050781 53.863281 22.5 C 54.691406 23.324219 54.691406 40.886719 53.863281 41.714844 C 53.421875 42.160156 52.4375 42.265625 48.773438 42.265625 L 44.230469 42.265625 L 44.335938 44.945312 C 44.421875 47.335938 44.527344 47.691406 45.3125 48.28125 C 45.796875 48.636719 47.058594 49.023438 48.117188 49.132812 C 50.800781 49.40625 51.839844 49.875 52.3125 51.027344 C 52.878906 52.386719 52.164062 53.851562 50.738281 54.242188 C 49.230469 54.660156 45.207031 53.960938 43.1875 52.9375 L 41.457031 52.0625 L 39.742188 52.929688 C 38.800781 53.40625 37.03125 53.960938 35.808594 54.160156 C 33.042969 54.609375 32.699219 54.605469 31.824219 54.105469 Z M 50.914062 32.109375 L 50.914062 25.105469 L 44.261719 25.105469 L 44.261719 39.113281 L 50.914062 39.113281 Z M 10.136719 41.714844 C 9.308594 40.886719 9.308594 23.324219 10.136719 22.5 C 10.613281 22.023438 12.28125 21.949219 23.09375 21.949219 L 35.503906 21.949219 L 35.503906 25.105469 L 13.085938 25.105469 L 13.085938 39.113281 L 35.503906 39.113281 L 35.503906 42.265625 L 23.09375 42.265625 C 12.28125 42.265625 10.613281 42.199219 10.136719 41.714844 Z M 16.589844 32.109375 L 16.589844 28.605469 L 32 28.605469 L 32 35.609375 L 16.589844 35.609375 Z M 16.589844 32.109375 "/>
</g>
</svg>
