<svg xmlns="http://www.w3.org/2000/svg" xmlns:xlink="http://www.w3.org/1999/xlink" width="64px" height="64px" viewBox="0 0 64 64" version="1.1">
<defs>
<linearGradient id="linear0" gradientUnits="userSpaceOnUse" x1="0" y1="0" x2="0" y2="1" gradientTransform="matrix(55.351351,0,0,41.50901,4.324324,11.234234)">
<stop offset="0" style="stop-color:#00fff2;stop-opacity:1;"/>
<stop offset="0.5" style="stop-color:#dddddd;stop-opacity:1;"/>
<stop offset="1" style="stop-color:#0062ff;stop-opacity:1;"/>
</linearGradient>
</defs>
<g id="surface1">
<path style=" stroke:none;fill-rule:nonzero;fill:url(#linear0);" d="M 34.699219 11.238281 C 34.515625 11.214844 34.339844 11.269531 34.203125 11.390625 C 34.0625 11.511719 33.984375 11.6875 33.96875 11.878906 L 33.1875 20.484375 C 33.148438 20.875 33.421875 21.230469 33.789062 21.269531 C 35.929688 21.488281 37.988281 22.113281 39.917969 23.109375 C 40.011719 23.160156 40.117188 23.175781 40.214844 23.175781 C 40.292969 23.175781 40.363281 23.164062 40.433594 23.136719 C 40.597656 23.070312 40.738281 22.941406 40.8125 22.769531 L 44.320312 14.988281 C 44.476562 14.625 44.339844 14.199219 44.003906 14.027344 C 41.078125 12.511719 37.941406 11.570312 34.699219 11.238281 Z M 28.246094 11.363281 C 25.023438 11.835938 21.921875 12.90625 19.050781 14.539062 C 18.71875 14.726562 18.59375 15.164062 18.769531 15.511719 L 22.542969 23.148438 C 22.664062 23.390625 22.902344 23.527344 23.136719 23.527344 C 23.246094 23.527344 23.351562 23.503906 23.457031 23.445312 C 25.347656 22.367188 27.386719 21.664062 29.511719 21.355469 C 29.882812 21.308594 30.136719 20.941406 30.085938 20.542969 L 29.003906 11.976562 C 28.957031 11.585938 28.617188 11.3125 28.246094 11.363281 Z M 48.960938 17.582031 C 48.785156 17.597656 48.617188 17.699219 48.503906 17.839844 L 43.417969 24.542969 C 43.308594 24.691406 43.257812 24.882812 43.28125 25.078125 C 43.296875 25.265625 43.382812 25.441406 43.515625 25.5625 C 45.1875 27.015625 46.59375 28.753906 47.691406 30.730469 C 47.820312 30.957031 48.050781 31.082031 48.273438 31.082031 C 48.394531 31.082031 48.511719 31.050781 48.621094 30.976562 L 55.539062 26.542969 C 55.691406 26.449219 55.800781 26.292969 55.839844 26.109375 C 55.886719 25.921875 55.863281 25.726562 55.769531 25.5625 C 54.105469 22.570312 51.976562 19.9375 49.457031 17.734375 C 49.3125 17.617188 49.136719 17.5625 48.960938 17.582031 Z M 14.21875 18.296875 C 14.042969 18.285156 13.867188 18.347656 13.734375 18.472656 C 11.292969 20.78125 9.261719 23.488281 7.703125 26.542969 C 7.617188 26.714844 7.597656 26.917969 7.648438 27.105469 C 7.699219 27.285156 7.8125 27.4375 7.96875 27.527344 L 15.039062 31.675781 C 15.144531 31.734375 15.257812 31.761719 15.363281 31.761719 C 15.605469 31.761719 15.828125 31.625 15.949219 31.382812 C 16.984375 29.363281 18.328125 27.570312 19.945312 26.050781 C 20.082031 25.921875 20.160156 25.742188 20.164062 25.554688 C 20.179688 25.363281 20.125 25.171875 20.003906 25.027344 L 14.679688 18.539062 C 14.5625 18.394531 14.402344 18.3125 14.21875 18.296875 Z M 57.570312 31.410156 L 49.878906 33.996094 C 49.523438 34.113281 49.328125 34.515625 49.441406 34.894531 C 49.988281 36.789062 50.269531 38.761719 50.269531 40.761719 C 50.269531 41.058594 50.265625 41.363281 50.253906 41.679688 C 50.242188 41.875 50.308594 42.0625 50.429688 42.203125 C 50.542969 42.339844 50.714844 42.433594 50.890625 42.4375 L 58.945312 42.835938 C 58.957031 42.835938 58.960938 42.835938 58.972656 42.835938 C 59.328125 42.835938 59.625 42.539062 59.636719 42.148438 C 59.664062 41.664062 59.675781 41.214844 59.675781 40.761719 C 59.675781 37.738281 59.246094 34.753906 58.414062 31.886719 C 58.300781 31.503906 57.929688 31.292969 57.570312 31.410156 Z M 20.285156 32.242188 C 20.136719 32.261719 19.996094 32.328125 19.886719 32.445312 C 19.664062 32.675781 19.613281 33.039062 19.757812 33.328125 L 25.707031 45.292969 C 25.6875 45.523438 25.675781 45.757812 25.675781 45.996094 C 25.675781 47.796875 26.328125 49.488281 27.515625 50.761719 C 28.710938 52.039062 30.289062 52.742188 31.972656 52.742188 C 33.660156 52.742188 35.242188 52.039062 36.433594 50.761719 C 37.621094 49.488281 38.273438 47.796875 38.273438 45.996094 C 38.273438 44.1875 37.621094 42.488281 36.433594 41.214844 C 35.242188 39.941406 33.664062 39.238281 31.976562 39.238281 L 31.972656 39.238281 C 31.863281 39.238281 31.738281 39.238281 31.625 39.242188 L 20.714844 32.347656 C 20.582031 32.261719 20.429688 32.226562 20.285156 32.242188 Z M 6.113281 32.472656 C 5.941406 32.421875 5.757812 32.445312 5.597656 32.539062 C 5.445312 32.636719 5.335938 32.796875 5.292969 32.976562 C 4.652344 35.511719 4.324219 38.125 4.324219 40.761719 C 4.324219 41.214844 4.335938 41.664062 4.363281 42.148438 C 4.375 42.539062 4.671875 42.835938 5.027344 42.835938 C 5.039062 42.835938 5.050781 42.835938 5.058594 42.835938 L 13.109375 42.4375 C 13.285156 42.433594 13.457031 42.339844 13.570312 42.203125 C 13.691406 42.0625 13.757812 41.875 13.753906 41.679688 C 13.734375 41.363281 13.730469 41.058594 13.730469 40.761719 C 13.730469 39.015625 13.941406 37.289062 14.363281 35.621094 C 14.460938 35.238281 14.246094 34.839844 13.890625 34.734375 Z M 6.113281 32.472656 "/>
</g>
</svg>
