<svg xmlns="http://www.w3.org/2000/svg" xmlns:xlink="http://www.w3.org/1999/xlink" width="64px" height="64px" viewBox="0 0 64 64" version="1.1">
<defs>
<linearGradient id="linear0" gradientUnits="userSpaceOnUse" x1="0" y1="0" x2="0" y2="1" gradientTransform="matrix(34.549551,0,0,55.351351,14.725226,4.324324)">
<stop offset="0" style="stop-color:#00a2ff;stop-opacity:1;"/>
<stop offset="0.5" style="stop-color:#dddddd;stop-opacity:1;"/>
<stop offset="1" style="stop-color:#00ffae;stop-opacity:1;"/>
</linearGradient>
</defs>
<g id="surface1">
<path style=" stroke:none;fill-rule:nonzero;fill:url(#linear0);" d="M 35.410156 59.296875 C 35.21875 59.296875 35.03125 59.296875 34.644531 59.109375 C 34.261719 58.914062 33.878906 58.53125 33.5 58.152344 L 26.410156 41.675781 L 17.789062 49.71875 C 17.59375 50.097656 17.214844 50.292969 16.636719 50.292969 C 16.445312 50.292969 16.0625 50.292969 15.878906 50.097656 C 15.300781 49.914062 14.726562 49.136719 14.726562 48.378906 L 14.726562 6.238281 C 14.726562 5.476562 15.109375 4.707031 15.878906 4.515625 C 16.0625 4.324219 16.445312 4.324219 16.636719 4.324219 C 17.023438 4.324219 17.597656 4.515625 17.984375 4.902344 L 48.625 33.632812 C 49.203125 34.207031 49.394531 34.972656 49.203125 35.734375 C 49.011719 36.503906 48.242188 36.886719 47.484375 37.082031 L 35.414062 38.226562 L 42.878906 54.503906 C 43.078125 54.886719 43.078125 55.460938 42.878906 56.039062 C 42.691406 56.421875 42.308594 57 41.921875 57.191406 L 36.367188 59.675781 C 35.988281 59.292969 35.597656 59.292969 35.414062 59.292969 Z M 35.410156 59.296875 "/>
</g>
</svg>
