<svg xmlns="http://www.w3.org/2000/svg" xmlns:xlink="http://www.w3.org/1999/xlink" width="64px" height="64px" viewBox="0 0 64 64" version="1.1">
<g id="surface1">
<path style=" stroke:none;fill-rule:nonzero;fill:rgb(100%,33.333334%,33.333334%);fill-opacity:1;" d="M 31.71875 8.648438 C 40.132812 8.539062 47.953125 12.964844 52.191406 20.238281 C 56.433594 27.507812 56.433594 36.492188 52.191406 43.761719 C 47.953125 51.03125 40.132812 55.460938 31.71875 55.347656 C 18.9375 55.183594 8.667969 44.777344 8.667969 32 C 8.667969 19.21875 18.9375 8.816406 31.71875 8.648438 Z M 31.71875 8.648438 "/>
<path style=" stroke:none;fill-rule:nonzero;fill:rgb(100%,100%,100%);fill-opacity:1;" d="M 33.84375 18.164062 L 30.15625 18.164062 L 30.15625 32 L 33.847656 32 "/>
<path style=" stroke:none;fill-rule:nonzero;fill:rgb(100%,100%,100%);fill-opacity:1;" d="M 28.3125 18.625 C 22.320312 20.300781 18.171875 25.753906 18.164062 31.972656 C 18.164062 39.5625 24.355469 45.835938 32 45.835938 C 39.644531 45.835938 45.835938 39.5625 45.835938 31.972656 C 45.828125 25.753906 41.683594 20.300781 35.691406 18.625 L 35.691406 22.199219 C 39.710938 23.777344 42.363281 27.652344 42.382812 31.972656 C 42.382812 37.796875 37.730469 42.464844 32 42.464844 C 26.277344 42.464844 21.621094 37.792969 21.621094 31.972656 C 21.589844 27.625 24.257812 23.710938 28.3125 22.140625 "/>
</g>
</svg>
