<svg xmlns="http://www.w3.org/2000/svg" xmlns:xlink="http://www.w3.org/1999/xlink" width="64px" height="64px" viewBox="0 0 64 64" version="1.1">
<defs>
<linearGradient id="linear0" gradientUnits="userSpaceOnUse" x1="0" y1="0" x2="0" y2="1" gradientTransform="matrix(55.351351,0,0,42.792794,4.324324,10.603603)">
<stop offset="0" style="stop-color:#ffae00;stop-opacity:1;"/>
<stop offset="0.5" style="stop-color:#dddddd;stop-opacity:1;"/>
<stop offset="1" style="stop-color:#bf1d1d;stop-opacity:1;"/>
</linearGradient>
</defs>
<g id="surface1">
<path style=" stroke:none;fill-rule:nonzero;fill:url(#linear0);" d="M 52.191406 10.609375 C 51.984375 10.59375 51.773438 10.636719 51.585938 10.742188 C 50.039062 11.4375 51.835938 13.085938 46.5 15.496094 C 41.261719 17.855469 30.136719 16.460938 20.117188 20.988281 C 18.789062 21.585938 17.621094 22.238281 16.570312 22.863281 C 16.324219 22.335938 15.988281 21.855469 15.5625 21.457031 C 14.597656 20.5 13.164062 19.984375 11.550781 19.984375 C 11.058594 19.984375 11.042969 19.882812 10.945312 19.78125 C 10.742188 19.578125 10.609375 19.320312 10.539062 19.042969 C 10.339844 18.246094 10.476562 17.234375 10.476562 17.234375 C 10.578125 16.542969 10.335938 15.851562 9.835938 15.367188 C 9.324219 14.890625 8.613281 14.6875 7.929688 14.828125 C 7 15 6.292969 15.761719 6.1875 16.703125 C 6.1875 16.703125 5.945312 18.273438 6.390625 20.050781 C 6.617188 20.9375 7.066406 21.929688 7.929688 22.792969 C 8.894531 23.734375 10.191406 24.265625 11.550781 24.269531 C 12.324219 24.269531 12.460938 24.441406 12.550781 24.539062 C 12.644531 24.625 12.757812 24.800781 12.820312 25.207031 C 12.828125 25.269531 12.8125 25.335938 12.820312 25.40625 C 7.429688 29.984375 7.941406 34.328125 7.597656 35.71875 C 7.164062 35.054688 6.164062 34.863281 5.320312 35.246094 C 4.40625 35.664062 3.605469 37.523438 5.386719 41.476562 C 7.164062 45.429688 9.164062 46.105469 10.070312 45.691406 C 10.917969 45.308594 11.355469 44.4375 11.144531 43.6875 C 11.984375 44.121094 13.597656 45.652344 16.566406 46.363281 C 16.226562 45.164062 16.042969 43.929688 16.039062 42.6875 C 16.042969 35.109375 22.179688 28.960938 29.761719 28.957031 C 34.902344 28.957031 39.40625 31.796875 41.742188 35.988281 C 45.230469 32.652344 49.121094 28.8125 51.921875 27.550781 C 57.253906 25.136719 57.414062 27.839844 58.957031 27.144531 C 59.90625 26.714844 59.773438 25.921875 59.355469 25.003906 L 53.460938 11.878906 C 53.152344 11.191406 52.765625 10.664062 52.191406 10.609375 Z M 29.761719 31.96875 C 23.839844 31.96875 19.050781 36.765625 19.050781 42.6875 C 19.050781 48.597656 23.839844 53.394531 29.761719 53.394531 C 35.675781 53.394531 40.472656 48.597656 40.472656 42.6875 C 40.472656 36.765625 35.675781 31.96875 29.761719 31.96875 Z M 29.761719 36.050781 C 33.421875 36.054688 36.386719 39.015625 36.390625 42.6875 C 36.386719 46.339844 33.421875 49.308594 29.761719 49.3125 C 26.097656 49.308594 23.136719 46.339844 23.132812 42.6875 C 23.136719 39.015625 26.097656 36.054688 29.761719 36.050781 Z M 29.761719 40.40625 C 28.523438 40.40625 27.484375 41.445312 27.484375 42.6875 C 27.484375 43.921875 28.523438 44.960938 29.761719 44.960938 C 31 44.960938 32.039062 43.921875 32.039062 42.6875 C 32.039062 41.445312 31 40.402344 29.761719 40.402344 Z M 29.761719 40.40625 "/>
</g>
</svg>
