<svg xmlns="http://www.w3.org/2000/svg" xmlns:xlink="http://www.w3.org/1999/xlink" width="64px" height="64px" viewBox="0 0 64 64" version="1.1">
<defs>
<linearGradient id="linear0" gradientUnits="userSpaceOnUse" x1="0" y1="0" x2="0" y2="1" gradientTransform="matrix(55.351351,0,0,39.873875,4.324324,12.063063)">
<stop offset="0" style="stop-color:#ffae00;stop-opacity:1;"/>
<stop offset="0.5" style="stop-color:#dddddd;stop-opacity:1;"/>
<stop offset="1" style="stop-color:#bf1d1d;stop-opacity:1;"/>
</linearGradient>
</defs>
<g id="surface1">
<path style=" stroke:none;fill-rule:nonzero;fill:url(#linear0);" d="M 32.011719 12.0625 C 31.402344 12.0625 30.800781 12.085938 30.207031 12.132812 C 23.765625 12.710938 18.21875 16.394531 15.011719 21.648438 C 13.539062 24.351562 12.691406 27.5 12.691406 30.960938 C 12.691406 33.320312 13.136719 35.636719 13.976562 37.917969 C 14.054688 38.058594 14.109375 38.160156 14.113281 38.164062 C 16.164062 41.488281 24.902344 41.410156 34.675781 36.015625 C 41.121094 32.488281 45.988281 27.5625 47.066406 23.484375 C 47.417969 22.152344 47.363281 21.011719 46.824219 20.125 C 46.8125 20.109375 46.644531 19.828125 46.335938 19.402344 C 43.039062 15.308594 38.78125 12.582031 33.566406 12.132812 C 33.050781 12.085938 32.53125 12.066406 32.011719 12.0625 Z M 47.238281 12.511719 C 46.699219 12.511719 46.144531 12.550781 45.578125 12.582031 C 45.390625 12.59375 45.179688 12.605469 44.988281 12.617188 C 44.578125 12.644531 44.171875 12.664062 43.742188 12.71875 C 43.527344 12.742188 43.308594 12.792969 43.085938 12.824219 C 42.882812 12.847656 42.671875 12.863281 42.460938 12.890625 C 44.613281 14.265625 46.558594 16.0625 48.246094 18.1875 C 48.230469 18.199219 48.214844 18.214844 48.207031 18.226562 C 48.539062 18.691406 48.710938 19.023438 48.730469 19.054688 C 49.566406 20.414062 49.71875 22.164062 49.214844 24.078125 C 47.984375 28.710938 42.699219 34.152344 35.746094 37.957031 C 30.085938 41.078125 24.503906 42.664062 20.105469 42.664062 C 16.445312 42.664062 13.621094 41.582031 12.242188 39.335938 L 12.175781 39.164062 C 12.164062 39.164062 12.148438 39.171875 12.136719 39.164062 C 12.089844 39.03125 12.050781 38.882812 12 38.746094 C 11.941406 38.59375 11.90625 38.488281 11.894531 38.472656 C 11.90625 38.46875 11.890625 38.445312 11.894531 38.4375 C 11.027344 35.988281 10.476562 33.488281 10.476562 30.960938 C 10.476562 30.691406 10.503906 30.429688 10.511719 30.164062 C 4.785156 36.433594 2.867188 42.53125 5.460938 46.847656 C 7.375 50.023438 11.46875 51.589844 16.742188 51.589844 C 17.46875 51.589844 18.230469 51.550781 18.988281 51.488281 C 19.242188 51.46875 19.503906 51.445312 19.757812 51.417969 C 21.234375 51.261719 22.703125 51.015625 24.148438 50.691406 C 24.351562 50.648438 24.570312 50.636719 24.773438 50.585938 C 29.460938 49.5 34.566406 47.53125 39.660156 44.703125 C 44.265625 42.089844 48.308594 39.078125 51.53125 35.945312 C 52 35.488281 52.449219 35.054688 52.882812 34.597656 C 52.96875 34.503906 53.039062 34.410156 53.121094 34.320312 C 53.472656 33.9375 53.835938 33.558594 54.164062 33.175781 C 54.273438 33.050781 54.363281 32.929688 54.472656 32.796875 C 54.761719 32.457031 55.039062 32.105469 55.300781 31.757812 C 55.417969 31.605469 55.539062 31.457031 55.652344 31.308594 C 55.886719 30.988281 56.121094 30.660156 56.339844 30.335938 C 56.457031 30.171875 56.542969 30.015625 56.660156 29.851562 C 56.851562 29.542969 57.058594 29.226562 57.242188 28.917969 C 57.347656 28.742188 57.421875 28.566406 57.523438 28.402344 C 57.6875 28.097656 57.851562 27.800781 58.003906 27.5 C 58.085938 27.328125 58.164062 27.148438 58.246094 26.984375 C 58.390625 26.664062 58.539062 26.363281 58.664062 26.042969 C 58.726562 25.894531 58.78125 25.746094 58.835938 25.59375 C 59.003906 25.144531 59.164062 24.6875 59.285156 24.246094 C 59.988281 21.558594 59.742188 19.214844 58.558594 17.253906 C 58.339844 16.902344 58.097656 16.566406 57.835938 16.246094 C 57.761719 16.160156 57.664062 16.09375 57.589844 16.011719 C 57.375 15.769531 57.144531 15.554688 56.894531 15.351562 C 56.8125 15.28125 56.734375 15.207031 56.660156 15.144531 C 56.328125 14.875 55.976562 14.636719 55.613281 14.414062 C 55.542969 14.367188 55.484375 14.351562 55.40625 14.3125 C 55.082031 14.121094 54.746094 13.949219 54.40625 13.792969 C 54.28125 13.738281 54.152344 13.707031 54.023438 13.652344 C 53.660156 13.511719 53.289062 13.382812 52.914062 13.273438 C 52.828125 13.246094 52.726562 13.199219 52.636719 13.171875 C 52.164062 13.039062 51.664062 12.917969 51.152344 12.824219 C 51.015625 12.796875 50.875 12.8125 50.734375 12.789062 C 50.335938 12.726562 49.914062 12.652344 49.488281 12.617188 C 49.328125 12.597656 49.171875 12.59375 49.003906 12.582031 C 48.429688 12.539062 47.851562 12.515625 47.273438 12.511719 Z M 50.148438 40.136719 C 47.210938 42.582031 44.058594 44.761719 40.730469 46.644531 C 36.878906 48.785156 32.890625 50.484375 29.03125 51.691406 C 30.027344 51.851562 31.027344 51.9375 32.011719 51.9375 C 40.039062 51.9375 47.027344 47.175781 50.148438 40.136719 Z M 50.148438 40.136719 "/>
</g>
</svg>
