<svg xmlns="http://www.w3.org/2000/svg" xmlns:xlink="http://www.w3.org/1999/xlink" width="64px" height="64px" viewBox="0 0 64 64" version="1.1">
<defs>
<linearGradient id="linear0" gradientUnits="userSpaceOnUse" x1="0" y1="0" x2="0" y2="1" gradientTransform="matrix(46.126125,0,0,20.756757,8.936937,21.621622)">
<stop offset="0" style="stop-color:#05f7ff;stop-opacity:1;"/>
<stop offset="0.5" style="stop-color:#dddddd;stop-opacity:1;"/>
<stop offset="1" style="stop-color:#e6ff05;stop-opacity:1;"/>
</linearGradient>
<linearGradient id="linear1" gradientUnits="userSpaceOnUse" x1="0" y1="0" x2="0" y2="1" gradientTransform="matrix(55.351351,0,0,25.369368,4.324324,19.315314)">
<stop offset="0" style="stop-color:#05f7ff;stop-opacity:1;"/>
<stop offset="0.5" style="stop-color:#dddddd;stop-opacity:1;"/>
<stop offset="1" style="stop-color:#e6ff05;stop-opacity:1;"/>
</linearGradient>
</defs>
<g id="surface1">
<path style=" stroke:none;fill-rule:nonzero;fill:url(#linear0);" d="M 8.9375 42.378906 L 8.9375 37.765625 L 29.691406 37.765625 L 29.691406 21.621094 L 55.0625 21.621094 L 55.0625 26.234375 L 34.308594 26.234375 L 34.308594 42.378906 Z M 8.9375 42.378906 "/>
<path style=" stroke:none;fill-rule:nonzero;fill:url(#linear1);" d="M 32 19.3125 C 29.457031 19.3125 27.386719 21.378906 27.386719 23.929688 C 27.386719 26.476562 29.457031 28.539062 32 28.539062 C 34.542969 28.539062 36.613281 26.476562 36.613281 23.929688 C 36.613281 21.378906 34.542969 19.3125 32 19.3125 Z M 55.0625 19.3125 C 52.511719 19.3125 50.449219 21.378906 50.449219 23.929688 C 50.449219 26.476562 52.511719 28.539062 55.0625 28.539062 C 57.613281 28.539062 59.675781 26.476562 59.675781 23.929688 C 59.675781 21.378906 57.613281 19.3125 55.0625 19.3125 Z M 8.9375 35.460938 C 6.386719 35.460938 4.324219 37.523438 4.324219 40.070312 C 4.324219 42.621094 6.386719 44.6875 8.9375 44.6875 C 11.488281 44.6875 13.550781 42.621094 13.550781 40.070312 C 13.550781 37.523438 11.488281 35.460938 8.9375 35.460938 Z M 32 35.460938 C 29.457031 35.460938 27.386719 37.523438 27.386719 40.070312 C 27.386719 42.621094 29.457031 44.6875 32 44.6875 C 34.542969 44.6875 36.613281 42.621094 36.613281 40.070312 C 36.613281 37.523438 34.542969 35.460938 32 35.460938 Z M 32 35.460938 "/>
</g>
</svg>
