<svg xmlns="http://www.w3.org/2000/svg" xmlns:xlink="http://www.w3.org/1999/xlink" width="64px" height="64px" viewBox="0 0 64 64" version="1.1">
<defs>
<linearGradient id="linear0" gradientUnits="userSpaceOnUse" x1="0" y1="0" x2="0" y2="1" gradientTransform="matrix(55.351351,0,0,55.351351,4.324324,4.324324)">
<stop offset="0" style="stop-color:#00a2ff;stop-opacity:1;"/>
<stop offset="0.5" style="stop-color:#dddddd;stop-opacity:1;"/>
<stop offset="1" style="stop-color:#00ffae;stop-opacity:1;"/>
</linearGradient>
</defs>
<g id="surface1">
<path style=" stroke:none;fill-rule:evenodd;fill:url(#linear0);" d="M 51.769531 53.742188 L 51.769531 56.597656 C 51.769531 58.296875 50.503906 59.675781 48.945312 59.675781 L 15.054688 59.675781 C 13.496094 59.675781 12.230469 58.296875 12.230469 56.597656 L 12.230469 35.957031 L 5.808594 35.957031 C 4.988281 35.957031 4.324219 35.363281 4.324219 34.636719 L 4.324219 29.363281 C 4.324219 28.636719 4.988281 28.042969 5.808594 28.042969 L 12.230469 28.042969 L 12.230469 18.164062 L 5.808594 18.164062 C 4.988281 18.164062 4.324219 17.570312 4.324219 16.847656 L 4.324219 11.570312 C 4.324219 10.847656 4.988281 10.257812 5.808594 10.257812 L 12.230469 10.257812 L 12.230469 7.402344 C 12.230469 5.703125 13.496094 4.324219 15.054688 4.324219 L 48.945312 4.324219 C 50.503906 4.324219 51.769531 5.703125 51.769531 7.402344 L 51.769531 10.257812 L 58.191406 10.257812 C 59.011719 10.257812 59.675781 10.847656 59.675781 11.570312 L 59.675781 16.847656 C 59.675781 17.570312 59.011719 18.164062 58.191406 18.164062 L 51.769531 18.164062 L 51.769531 28.042969 L 58.191406 28.042969 C 59.011719 28.042969 59.675781 28.636719 59.675781 29.363281 L 59.675781 34.636719 C 59.675781 35.363281 59.011719 35.957031 58.191406 35.957031 L 51.769531 35.957031 L 51.769531 45.835938 L 58.191406 45.835938 C 59.011719 45.835938 59.675781 46.429688 59.675781 47.160156 L 59.675781 52.429688 C 59.675781 53.152344 59.011719 53.742188 58.191406 53.742188 Z M 20.136719 14.207031 L 43.863281 14.207031 L 43.863281 49.792969 L 32 49.792969 L 32 37.933594 L 20.136719 37.933594 Z M 20.136719 14.207031 "/>
</g>
</svg>
