<svg xmlns="http://www.w3.org/2000/svg" xmlns:xlink="http://www.w3.org/1999/xlink" width="64px" height="64px" viewBox="0 0 64 64" version="1.1">
<defs>
<linearGradient id="linear0" gradientUnits="userSpaceOnUse" x1="0" y1="0" x2="0" y2="1" gradientTransform="matrix(55.351351,0,0,37.648649,4.324324,13.175675)">
<stop offset="0" style="stop-color:#00b7ff;stop-opacity:1;"/>
<stop offset="0.5" style="stop-color:#dddddd;stop-opacity:1;"/>
<stop offset="1" style="stop-color:#ee42d9;stop-opacity:1;"/>
</linearGradient>
</defs>
<g id="surface1">
<path style=" stroke:none;fill-rule:evenodd;fill:url(#linear0);" d="M 13.160156 40.773438 C 11.132812 40.773438 9.847656 40.335938 9.238281 39.429688 C 8.488281 38.328125 8.523438 37.363281 8.6875 36.757812 C 8.878906 36.011719 9.335938 35.445312 9.761719 35.050781 C 9.136719 33.503906 8.949219 31.066406 9.726562 28.445312 C 10.503906 25.808594 12.90625 21.03125 20.210938 18.738281 C 22.597656 17.988281 24.855469 17.609375 26.917969 17.609375 C 33.550781 17.609375 36.738281 21.445312 38.03125 23.675781 C 39.40625 23.753906 40.539062 24.585938 41.011719 25.894531 C 41.636719 27.609375 41 29.652344 39.417969 30.984375 C 36.09375 33.78125 30.515625 36.648438 24.863281 38.46875 C 20.378906 39.910156 16.003906 40.773438 13.160156 40.773438 Z M 54.679688 23.148438 C 53.761719 23.148438 53.015625 22.40625 53.015625 21.488281 C 53.015625 20.570312 53.761719 19.828125 54.679688 19.828125 C 55.597656 19.828125 56.339844 20.570312 56.339844 21.488281 C 56.339844 22.40625 55.597656 23.148438 54.679688 23.148438 Z M 57.910156 17.355469 C 56.234375 14.8125 53.488281 13.175781 50.914062 13.175781 C 50.066406 13.175781 49.261719 13.351562 48.503906 13.6875 C 45.542969 15.027344 44.238281 18.988281 43.085938 22.476562 C 42.914062 23 42.738281 23.523438 42.554688 24.039062 C 42.765625 24.382812 42.949219 24.746094 43.09375 25.136719 C 44.039062 27.714844 43.132812 30.742188 40.839844 32.675781 C 37.3125 35.644531 31.449219 38.671875 25.539062 40.570312 C 20.855469 42.085938 16.21875 42.988281 13.160156 42.988281 C 12.121094 42.988281 8.96875 42.988281 7.40625 40.664062 C 7.339844 40.582031 7.296875 40.488281 7.238281 40.402344 C 6.289062 41.0625 5.40625 41.828125 4.617188 42.679688 C 4.269531 43.058594 4.226562 43.621094 4.511719 44.050781 C 4.792969 44.476562 5.328125 44.660156 5.8125 44.488281 C 7.484375 43.90625 10.207031 43.890625 11.578125 44.46875 C 11.386719 45.132812 10.910156 45.960938 10.199219 46.863281 C 9.855469 47.292969 8.8125 48.605469 9.378906 49.78125 C 9.609375 50.253906 10.148438 50.8125 11.445312 50.8125 L 13.90625 50.824219 C 14.410156 50.824219 15.015625 50.824219 15.808594 50.8125 C 17.414062 50.808594 18.273438 49.957031 20.269531 46.914062 C 22.390625 47.308594 24.542969 47.5 26.703125 47.503906 C 30.578125 47.503906 33.4375 46.847656 34.929688 46.402344 C 35.527344 48.058594 36.914062 50.8125 39.488281 50.8125 L 43.433594 50.8125 C 44.917969 50.8125 45.613281 50.242188 45.9375 49.765625 C 46.273438 49.265625 46.351562 48.636719 46.144531 48.117188 C 45.011719 45.335938 44.375 43.273438 44.144531 41.625 C 43.542969 37.300781 45.542969 32.613281 49.664062 28.632812 C 50.582031 29.476562 51.835938 29.945312 53.269531 29.945312 C 55.347656 29.945312 57.3125 28.949219 58.410156 27.355469 C 60.550781 24.226562 59.699219 20.078125 57.910156 17.355469 Z M 57.910156 17.355469 "/>
</g>
</svg>
