<svg xmlns="http://www.w3.org/2000/svg" xmlns:xlink="http://www.w3.org/1999/xlink" width="48px" height="48px" viewBox="0 0 48 48" version="1.1">
<g id="surface1">
<path style=" stroke:none;fill-rule:nonzero;fill:rgb(100%,100%,100%);fill-opacity:1;" d="M 27.777344 9.453125 L 27.757812 9.453125 L 26.554688 9.457031 L 26.558594 12.378906 L 24.246094 12.378906 C 24.039062 12.378906 23.875 12.792969 23.863281 13.3125 L 23.863281 16.46875 L 26.558594 16.46875 L 26.558594 22.046875 L 26.554688 24.3125 L 26.550781 24.566406 L 26.550781 24.8125 C 26.546875 25.226562 26.539062 25.746094 26.527344 26.132812 L 26.519531 26.363281 L 26.503906 26.902344 L 23.699219 26.902344 C 23.496094 26.902344 23.328125 27.316406 23.316406 27.835938 L 23.316406 30.992188 C 25.132812 30.992188 26.160156 30.992188 26.40625 30.992188 C 25.839844 35.136719 24.777344 37.84375 23.316406 39.339844 C 23.355469 39.675781 23.582031 41.671875 23.699219 42.703125 C 23.734375 43.03125 23.917969 43.121094 24.007812 43.03125 C 25.054688 41.945312 26.90625 39.222656 27.84375 32.722656 C 28.675781 38.902344 30.597656 41.78125 31.472656 42.804688 C 31.5 42.835938 31.523438 42.863281 31.546875 42.890625 C 31.835938 43.21875 31.960938 42.890625 32.007812 42.480469 C 32.148438 41.261719 32.269531 40.199219 32.367188 39.339844 C 31.777344 38.726562 30.027344 36.75 29.285156 30.992188 C 29.613281 30.992188 30.515625 30.992188 31.984375 30.992188 L 32.003906 30.992188 C 32.203125 30.972656 32.359375 30.566406 32.371094 30.058594 L 32.371094 26.902344 L 31.609375 26.902344 L 31.609375 13.359375 C 31.609375 12.835938 31.449219 12.40625 31.25 12.378906 L 28.140625 12.378906 L 28.140625 10.382812 C 28.128906 9.894531 27.980469 9.503906 27.796875 9.457031 Z M 22.144531 9.453125 L 20.941406 9.453125 L 20.941406 41.996094 C 20.941406 42.523438 21.101562 42.953125 21.304688 42.976562 L 21.324219 42.980469 L 22.527344 42.960938 L 22.527344 23.203125 L 23.460938 23.207031 L 23.480469 23.203125 C 23.679688 23.1875 23.835938 22.777344 23.847656 22.273438 L 23.847656 19.113281 L 22.527344 19.113281 L 22.527344 10.398438 C 22.519531 9.890625 22.359375 9.480469 22.164062 9.453125 Z M 45.210938 9.84375 C 45 10.628906 44.59375 11.519531 43.996094 11.539062 C 43.992188 11.539062 40.910156 11.539062 34.75 11.539062 L 34.75 14.648438 C 34.75 15.15625 34.902344 15.574219 35.09375 15.625 L 35.113281 15.628906 L 40 15.628906 L 40 20.992188 L 35.578125 20.992188 C 35.371094 20.992188 35.207031 21.40625 35.195312 21.925781 L 35.195312 25.085938 L 40 25.085938 L 40 29.960938 L 34.203125 29.960938 C 34 29.960938 33.832031 30.375 33.820312 30.894531 L 33.820312 34.050781 L 40 34.050781 L 40 37.75 L 39.996094 37.78125 L 39.996094 37.839844 C 39.960938 38.417969 39.773438 38.859375 39.546875 38.882812 L 39.527344 38.886719 L 37.394531 38.882812 L 37.738281 42.226562 C 37.785156 42.632812 37.910156 42.929688 38.070312 42.972656 L 38.089844 42.976562 L 39.574219 42.976562 L 39.644531 42.96875 C 40.71875 42.808594 41.566406 40.53125 41.582031 37.75 L 41.582031 34.050781 L 47.171875 34.050781 C 47.371094 34.03125 47.53125 33.625 47.539062 33.117188 L 47.539062 29.960938 L 41.582031 29.960938 L 41.582031 25.085938 L 45.730469 25.085938 L 45.75 25.082031 C 45.949219 25.066406 46.109375 24.65625 46.117188 24.152344 L 46.117188 20.992188 L 41.582031 20.992188 L 41.582031 15.628906 C 42.109375 15.640625 42.898438 15.636719 43.960938 15.625 C 45.691406 15.644531 46.574219 12.371094 46.808594 10.863281 C 46.460938 10.46875 45.980469 9.9375 45.667969 9.585938 C 45.449219 9.34375 45.289062 9.546875 45.210938 9.84375 Z M 19.894531 13.90625 L 18.695312 13.90625 L 18.695312 25.058594 L 18.691406 25.414062 L 18.691406 25.640625 C 18.667969 27.96875 18.519531 30.3125 18.242188 32.675781 C 18.183594 33.152344 18.273438 33.65625 18.449219 33.859375 L 18.46875 33.878906 L 19.636719 34.894531 C 20.039062 31.992188 20.253906 28.945312 20.277344 25.621094 L 20.277344 14.839844 C 20.269531 14.351562 20.121094 13.957031 19.933594 13.910156 L 19.914062 13.90625 Z M 28.140625 16.46875 L 30.027344 16.46875 L 30.027344 26.902344 L 28.09375 26.902344 L 28.109375 26.277344 C 28.125 25.683594 28.132812 24.945312 28.136719 24.296875 L 28.140625 24.019531 Z M 28.140625 16.46875 "/>
<path style=" stroke:none;fill-rule:evenodd;fill:rgb(100%,28.627452%,2.352941%);fill-opacity:1;" d="M 12.457031 25.300781 C 14.175781 25.300781 15.570312 28.921875 15.570312 33.390625 L 15.570312 39.816406 C 15.570312 44.28125 14.175781 47.90625 12.457031 47.90625 L 7.875 47.90625 C 6.496094 47.90625 5.324219 45.570312 4.917969 42.335938 L 2.1875 45.886719 C 1.441406 46.859375 0.535156 46.074219 0.160156 44.136719 C 0.0546875 43.589844 0 42.988281 0 42.378906 L 0 30.855469 C 0 28.6875 0.675781 26.929688 1.511719 26.929688 C 1.75 26.929688 1.980469 27.074219 2.195312 27.355469 L 4.910156 30.925781 C 5.3125 27.664062 6.488281 25.300781 7.875 25.300781 Z M 12.4375 29.464844 L 7.921875 29.464844 C 7.070312 29.464844 6.378906 31.242188 6.367188 33.445312 L 6.367188 39.695312 C 6.367188 41.90625 7.050781 43.703125 7.898438 43.742188 L 12.410156 43.742188 C 13.261719 43.742188 13.953125 41.964844 13.96875 39.761719 L 13.96875 33.511719 C 13.96875 31.300781 13.285156 29.5 12.4375 29.464844 Z M 2.015625 31.972656 C 1.789062 31.972656 1.605469 32.441406 1.601562 33.027344 L 1.601562 40.269531 C 1.601562 40.4375 1.617188 40.605469 1.648438 40.753906 C 1.75 41.277344 1.992188 41.484375 2.195312 41.230469 L 2.203125 41.222656 L 4.761719 37.828125 L 4.761719 35.429688 L 2.199219 32.089844 C 2.144531 32.011719 2.078125 31.972656 2.015625 31.972656 Z M 5.816406 1.507812 C 7.394531 1.507812 8.773438 3.765625 9.492188 7.109375 C 10.136719 5.554688 11.003906 4.601562 11.953125 4.601562 C 13.949219 4.601562 15.570312 8.808594 15.570312 14 C 15.570312 19.191406 13.949219 23.398438 11.953125 23.398438 C 10.75 23.398438 9.6875 21.878906 9.027344 19.535156 C 8.257812 21.898438 7.105469 23.398438 5.816406 23.398438 C 3.488281 23.398438 1.601562 18.5 1.601562 12.453125 C 1.601562 6.410156 3.488281 1.507812 5.816406 1.507812 Z M 5.816406 5.910156 C 4.425781 5.910156 3.296875 8.839844 3.296875 12.453125 C 3.296875 16.066406 4.425781 18.996094 5.816406 18.996094 C 7.207031 18.996094 8.335938 16.066406 8.335938 12.453125 C 8.335938 8.839844 7.207031 5.910156 5.816406 5.910156 Z M 11.953125 9.003906 C 10.890625 9.003906 10.03125 11.242188 10.03125 14 C 10.03125 16.761719 10.890625 18.996094 11.953125 18.996094 C 13.015625 18.996094 13.875 16.761719 13.875 14 C 13.875 11.242188 13.015625 9.003906 11.953125 9.003906 Z M 11.953125 9.003906 "/>
</g>
</svg>
