<svg xmlns="http://www.w3.org/2000/svg" xmlns:xlink="http://www.w3.org/1999/xlink" width="64px" height="64px" viewBox="0 0 64 64" version="1.1">
<defs>
<linearGradient id="linear0" gradientUnits="userSpaceOnUse" x1="0" y1="0" x2="0" y2="1" gradientTransform="matrix(31.630632,0,0,55.351351,16.184685,4.324324)">
<stop offset="0" style="stop-color:#00fff2;stop-opacity:1;"/>
<stop offset="0.5" style="stop-color:#dddddd;stop-opacity:1;"/>
<stop offset="1" style="stop-color:#0062ff;stop-opacity:1;"/>
</linearGradient>
</defs>
<g id="surface1">
<path style=" stroke:none;fill-rule:evenodd;fill:url(#linear0);" d="M 37.011719 35.957031 L 37.089844 35.109375 C 39.363281 34.335938 41.457031 33.050781 43.179688 31.320312 C 46.148438 28.355469 47.8125 24.335938 47.8125 20.136719 C 47.8125 11.40625 40.734375 4.324219 32 4.324219 C 23.265625 4.324219 16.1875 11.40625 16.1875 20.136719 C 16.1875 24.335938 17.851562 28.355469 20.820312 31.320312 C 22.542969 33.050781 24.636719 34.335938 26.910156 35.109375 L 26.988281 35.957031 L 21.457031 35.957031 L 21.457031 41.226562 L 27.515625 41.226562 L 29.363281 59.675781 L 34.636719 59.675781 L 36.484375 41.226562 L 42.542969 41.226562 L 42.542969 35.957031 Z M 32 6.960938 C 34.796875 6.960938 37.476562 8.070312 39.457031 10.050781 C 41.433594 12.027344 42.542969 14.707031 42.542969 17.503906 C 42.542969 20.300781 41.433594 22.984375 39.457031 24.960938 C 37.476562 26.9375 34.796875 28.042969 32 28.042969 C 29.203125 28.042969 26.523438 26.9375 24.542969 24.960938 C 22.566406 22.984375 21.457031 20.300781 21.457031 17.503906 C 21.457031 14.707031 22.566406 12.027344 24.542969 10.050781 C 26.523438 8.070312 29.203125 6.960938 32 6.960938 Z M 32 6.960938 "/>
</g>
</svg>
