<svg xmlns="http://www.w3.org/2000/svg" xmlns:xlink="http://www.w3.org/1999/xlink" width="64px" height="64px" viewBox="0 0 64 64" version="1.1">
<defs>
<linearGradient id="linear0" gradientUnits="userSpaceOnUse" x1="0" y1="0" x2="0" y2="1" gradientTransform="matrix(33.585584,0,0,55.351351,15.207207,4.324324)">
<stop offset="0" style="stop-color:#ffae00;stop-opacity:1;"/>
<stop offset="0.5" style="stop-color:#dddddd;stop-opacity:1;"/>
<stop offset="1" style="stop-color:#bf1d1d;stop-opacity:1;"/>
</linearGradient>
</defs>
<g id="surface1">
<path style=" stroke:none;fill-rule:nonzero;fill:url(#linear0);" d="M 17.164062 35.652344 C 17.113281 35.914062 16.960938 36.136719 16.746094 36.273438 C 16.53125 36.421875 16.261719 36.472656 16.011719 36.421875 C 15.753906 36.378906 15.523438 36.226562 15.375 36 C 15.226562 35.785156 15.175781 35.511719 15.226562 35.257812 L 20.636719 8.214844 L 22.164062 30.996094 L 24.066406 4.324219 L 26.164062 31.542969 L 27.828125 13.113281 L 30.238281 29.957031 L 34.960938 8.679688 L 34.960938 28.460938 L 37.988281 8.746094 L 41.6875 36.460938 L 43.234375 19.417969 L 48.71875 33.117188 C 48.820312 33.363281 48.820312 33.632812 48.707031 33.867188 C 48.613281 34.113281 48.410156 34.300781 48.164062 34.402344 C 47.933594 34.496094 47.652344 34.488281 47.414062 34.390625 C 47.171875 34.285156 46.976562 34.09375 46.882812 33.847656 L 44.460938 27.792969 L 42.0625 54.203125 L 37.851562 22.660156 L 32.988281 54.300781 L 32.988281 26.675781 L 29.8125 40.960938 L 28.265625 30.144531 L 25.988281 55.171875 L 24.136719 31.03125 L 22.089844 59.675781 L 19.664062 23.1875 Z M 17.164062 35.652344 "/>
</g>
</svg>
