<svg xmlns="http://www.w3.org/2000/svg" xmlns:xlink="http://www.w3.org/1999/xlink" width="64px" height="64px" viewBox="0 0 64 64" version="1.1">
<defs>
<linearGradient id="linear0" gradientUnits="userSpaceOnUse" x1="0" y1="0" x2="0" y2="1" gradientTransform="matrix(55.351351,0,0,44.342341,4.324324,9.828829)">
<stop offset="0" style="stop-color:#05f7ff;stop-opacity:1;"/>
<stop offset="0.5" style="stop-color:#dddddd;stop-opacity:1;"/>
<stop offset="1" style="stop-color:#e6ff05;stop-opacity:1;"/>
</linearGradient>
</defs>
<g id="surface1">
<path style=" stroke:none;fill-rule:nonzero;fill:url(#linear0);" d="M 34.078125 9.828125 C 31.785156 9.851562 29.890625 11.335938 28.085938 13.339844 C 26.28125 15.347656 24.503906 17.941406 22.429688 20.511719 C 18.273438 25.644531 13.054688 30.613281 4.324219 30.613281 L 4.324219 33.390625 C 7.769531 33.390625 10.652344 34.1875 13.152344 35.4375 L 13.152344 35.46875 L 13.214844 35.46875 C 17.023438 37.390625 19.929688 40.402344 22.429688 43.488281 C 24.503906 46.058594 26.28125 48.652344 28.085938 50.660156 C 29.890625 52.664062 31.785156 54.148438 34.078125 54.171875 C 36.375 54.1875 38.0625 52.664062 39.484375 50.644531 C 40.894531 48.625 42.160156 46.027344 43.710938 43.460938 C 45.710938 40.160156 48.160156 36.960938 51.957031 35.082031 L 51.957031 35.46875 L 54.949219 35.46875 L 54.949219 34 C 56.367188 33.636719 57.90625 33.390625 59.664062 33.390625 L 59.664062 33.386719 L 59.675781 33.386719 L 59.675781 32 L 59.664062 32 L 59.664062 30.613281 C 57.90625 30.613281 56.367188 30.367188 54.949219 30.003906 L 54.949219 29.914062 L 54.578125 29.914062 C 49.214844 28.402344 46.136719 24.550781 43.710938 20.542969 C 42.160156 17.976562 40.894531 15.375 39.484375 13.355469 C 38.0625 11.335938 36.375 9.8125 34.078125 9.828125 Z M 34.089844 11.253906 C 35.765625 11.238281 37.011719 12.300781 38.324219 14.171875 C 39.636719 16.042969 40.902344 18.644531 42.5 21.28125 C 43.539062 22.988281 44.765625 24.710938 46.226562 26.269531 C 45.257812 25.457031 44.414062 24.578125 43.636719 23.691406 C 42.089844 21.941406 40.835938 20.152344 39.394531 18.753906 C 37.960938 17.347656 36.273438 16.324219 34.078125 16.339844 C 31.882812 16.355469 29.996094 17.363281 28.1875 18.742188 C 26.367188 20.125 24.589844 21.910156 22.515625 23.664062 C 21.308594 24.699219 19.976562 25.707031 18.511719 26.636719 C 20.410156 25.023438 22.066406 23.210938 23.53125 21.40625 C 25.648438 18.785156 27.441406 16.1875 29.148438 14.292969 C 30.851562 12.394531 32.414062 11.265625 34.089844 11.253906 Z M 34.089844 17.761719 C 35.863281 17.746094 37.113281 18.496094 38.40625 19.761719 C 39.703125 21.027344 40.96875 22.8125 42.578125 24.636719 C 44.726562 27.078125 47.578125 29.539062 51.957031 30.914062 L 51.957031 32 L 35.449219 32 L 35.449219 29.914062 L 32.449219 29.914062 L 32.449219 32 L 16.257812 32 L 16.257812 29.914062 L 15.28125 29.914062 C 18.582031 28.527344 21.207031 26.636719 23.433594 24.746094 C 25.558594 22.945312 27.351562 21.171875 29.050781 19.875 C 30.746094 18.578125 32.320312 17.773438 34.089844 17.761719 Z M 13.152344 30.710938 L 13.152344 32 L 5.011719 32 C 8.097656 31.9375 10.796875 31.46875 13.152344 30.710938 Z M 54.949219 31.617188 C 56.191406 31.828125 57.53125 31.96875 58.996094 32 L 54.949219 32 Z M 11.902344 33.386719 L 13.152344 33.386719 L 13.152344 33.878906 C 12.753906 33.691406 12.320312 33.542969 11.902344 33.386719 Z M 16.257812 33.386719 L 32.449219 33.386719 L 32.449219 35.46875 L 35.449219 35.46875 L 35.449219 33.386719 L 51.957031 33.386719 L 51.957031 33.585938 C 47.515625 35.589844 44.648438 39.1875 42.5 42.730469 C 40.902344 45.363281 39.636719 47.960938 38.324219 49.835938 C 37.011719 51.703125 35.765625 52.761719 34.089844 52.746094 C 32.414062 52.734375 30.851562 51.605469 29.148438 49.707031 C 27.441406 47.8125 25.648438 45.214844 23.53125 42.59375 C 21.460938 40.039062 19.03125 37.457031 16.023438 35.46875 L 16.257812 35.46875 Z M 16.257812 33.386719 "/>
</g>
</svg>
