<svg xmlns="http://www.w3.org/2000/svg" xmlns:xlink="http://www.w3.org/1999/xlink" width="64px" height="64px" viewBox="0 0 64 64" version="1.1">
<defs>
<linearGradient id="linear0" gradientUnits="userSpaceOnUse" x1="0" y1="0" x2="0" y2="1" gradientTransform="matrix(55.351351,0,0,55.351351,4.324324,4.324324)">
<stop offset="0" style="stop-color:#ffae00;stop-opacity:1;"/>
<stop offset="0.5" style="stop-color:#dddddd;stop-opacity:1;"/>
<stop offset="1" style="stop-color:#6600ff;stop-opacity:1;"/>
</linearGradient>
</defs>
<g id="surface1">
<path style=" stroke:none;fill-rule:nonzero;fill:url(#linear0);" d="M 32 4.324219 C 16.738281 4.324219 4.324219 16.738281 4.324219 32 C 4.324219 47.261719 16.738281 59.675781 32 59.675781 C 47.261719 59.675781 59.675781 47.261719 59.675781 32 C 59.675781 16.738281 47.261719 4.324219 32 4.324219 Z M 27.460938 8.457031 C 21.863281 15.261719 18.757812 22.875 18.335938 30.160156 L 8.109375 30.160156 C 8.933594 19.28125 16.960938 10.460938 27.460938 8.457031 Z M 36.539062 8.457031 C 47.039062 10.460938 55.066406 19.28125 55.890625 30.160156 L 45.671875 30.160156 C 45.253906 22.867188 42.136719 15.257812 36.539062 8.457031 Z M 32 8.890625 C 38.171875 15.59375 41.515625 23.179688 41.984375 30.160156 L 22.023438 30.160156 C 22.488281 23.175781 25.835938 15.59375 32 8.890625 Z M 8.085938 33.839844 L 18.347656 33.839844 C 18.820312 41.203125 21.824219 48.71875 27.460938 55.5625 C 16.847656 53.527344 8.90625 44.625 8.085938 33.839844 Z M 22.039062 33.839844 L 41.960938 33.839844 C 41.445312 40.945312 38.234375 48.351562 32 55.109375 C 25.761719 48.351562 22.550781 40.945312 22.039062 33.839844 Z M 45.660156 33.839844 L 55.890625 33.839844 C 55.066406 44.71875 47.039062 53.539062 36.542969 55.550781 C 42.179688 48.707031 45.1875 41.191406 45.660156 33.839844 Z M 45.660156 33.839844 "/>
</g>
</svg>
