<svg xmlns="http://www.w3.org/2000/svg" xmlns:xlink="http://www.w3.org/1999/xlink" width="64px" height="64px" viewBox="0 0 64 64" version="1.1">
<defs>
<linearGradient id="linear0" gradientUnits="userSpaceOnUse" x1="0" y1="0" x2="0" y2="1" gradientTransform="matrix(55.351351,0,0,39.301801,4.324324,11.243243)">
<stop offset="0" style="stop-color:#00a2ff;stop-opacity:1;"/>
<stop offset="0.5" style="stop-color:#dddddd;stop-opacity:1;"/>
<stop offset="1" style="stop-color:#00ffae;stop-opacity:1;"/>
</linearGradient>
</defs>
<g id="surface1">
<path style=" stroke:none;fill-rule:evenodd;fill:url(#linear0);" d="M 30.890625 11.242188 C 28.847656 11.242188 26.71875 12.558594 26.269531 14.738281 C 26.21875 14.945312 26.1875 15.164062 26.1875 15.394531 L 26.1875 15.460938 C 26.1875 15.484375 26.1875 15.5 26.1875 15.523438 C 26.179688 15.539062 26.175781 15.5625 26.175781 15.585938 L 26.175781 18.710938 C 26.199219 18.671875 26.226562 18.636719 26.246094 18.597656 C 26.265625 18.570312 26.285156 18.550781 26.300781 18.523438 L 32 18.523438 L 32 17.066406 L 36.363281 17.066406 L 36.363281 34.53125 L 42.1875 34.53125 L 42.1875 17.066406 L 46.554688 17.066406 L 46.554688 18.523438 L 52.214844 18.523438 C 52.238281 18.554688 52.261719 18.582031 52.289062 18.609375 C 52.3125 18.644531 52.339844 18.675781 52.375 18.714844 C 52.382812 17.503906 52.390625 16.59375 52.390625 15.988281 C 52.390625 13.441406 50.496094 11.242188 47.191406 11.242188 Z M 15.578125 38.902344 C 15.351562 38.902344 15.003906 38.910156 14.605469 38.941406 C 14.488281 38.945312 14.378906 38.960938 14.265625 38.972656 L 14.191406 38.984375 C 14.085938 38.996094 13.976562 39.011719 13.855469 39.03125 C 12.382812 39.242188 10.839844 39.820312 9.050781 41.261719 C 7.597656 42.375 5.996094 44.011719 4.324219 46.429688 L 9.707031 49.324219 C 10.1875 49 10.671875 48.515625 11.1875 47.996094 C 11.710938 47.460938 12.273438 46.890625 12.914062 46.429688 C 13.746094 45.820312 14.894531 45.421875 15.578125 45.421875 C 16.273438 45.421875 16.753906 45.550781 17.203125 45.800781 C 17.597656 46.027344 17.945312 46.3125 18.742188 47.066406 L 18.773438 47.097656 C 18.773438 47.097656 18.78125 47.09375 18.78125 47.097656 C 19.378906 47.664062 19.835938 48.082031 20.269531 48.421875 C 20.703125 48.765625 21.109375 49.039062 21.613281 49.324219 C 23.039062 50.132812 24.617188 50.542969 26.441406 50.542969 C 26.894531 50.542969 27.335938 50.523438 27.761719 50.46875 C 28.617188 50.363281 29.414062 50.160156 30.164062 49.851562 C 30.542969 49.699219 30.910156 49.523438 31.265625 49.324219 C 32.273438 48.753906 32.894531 48.234375 34.105469 47.097656 C 34.515625 46.707031 34.8125 46.4375 35.054688 46.242188 C 35.292969 46.042969 35.476562 45.917969 35.679688 45.800781 C 36.125 45.554688 36.605469 45.421875 37.300781 45.421875 C 38 45.421875 38.476562 45.554688 38.921875 45.800781 C 39.328125 46.03125 39.664062 46.3125 40.5 47.097656 C 41.703125 48.234375 42.328125 48.753906 43.335938 49.324219 C 43.691406 49.523438 44.054688 49.703125 44.433594 49.855469 C 45.5625 50.3125 46.796875 50.542969 48.164062 50.542969 C 48.621094 50.542969 49.066406 50.515625 49.496094 50.460938 C 49.511719 50.460938 49.515625 50.460938 49.527344 50.460938 C 50.820312 50.300781 52.011719 49.917969 53.0625 49.324219 C 53.78125 48.960938 54.488281 48.429688 55.171875 47.835938 C 55.214844 47.796875 55.265625 47.757812 55.3125 47.71875 C 55.429688 47.617188 55.539062 47.515625 55.648438 47.414062 C 55.765625 47.3125 55.882812 47.203125 55.996094 47.097656 L 56.117188 46.949219 C 57.890625 45.171875 59.246094 43.230469 59.542969 42.796875 L 59.59375 42.726562 L 59.675781 42.625 L 54.292969 39.851562 C 54.417969 39.71875 54.351562 39.789062 54.257812 39.878906 C 54.203125 39.933594 54.136719 39.996094 54.105469 40.027344 C 53.414062 40.941406 51.539062 43.085938 50.558594 43.558594 C 49.96875 43.835938 49.324219 43.96875 48.671875 43.960938 C 48.113281 43.9375 47.558594 43.828125 47.027344 43.644531 C 46.253906 43.363281 45.550781 42.921875 44.960938 42.347656 C 43.757812 41.210938 43.136719 40.691406 42.125 40.121094 C 40.707031 39.320312 39.125 38.902344 37.300781 38.902344 C 36.847656 38.902344 36.402344 38.921875 35.976562 38.976562 C 34.691406 39.132812 33.539062 39.515625 32.472656 40.121094 C 31.460938 40.699219 30.839844 41.210938 29.636719 42.347656 C 28.808594 43.132812 28.460938 43.414062 28.0625 43.644531 C 27.835938 43.769531 27.609375 43.863281 27.347656 43.929688 C 27.082031 43.988281 26.789062 44.023438 26.441406 44.023438 C 25.742188 44.023438 25.261719 43.894531 24.8125 43.644531 C 24.414062 43.414062 24.070312 43.132812 23.242188 42.347656 C 22.039062 41.210938 21.414062 40.691406 20.40625 40.121094 C 18.984375 39.320312 17.402344 38.902344 15.578125 38.902344 Z M 15.988281 30.097656 L 15.988281 30.105469 L 15.984375 30.109375 L 15.988281 30.117188 C 16 32.949219 17.890625 34.421875 20.699219 34.527344 C 20.714844 34.53125 20.734375 34.53125 20.757812 34.53125 L 32 34.53125 L 32 28.714844 L 21.808594 28.714844 L 21.8125 28.707031 L 21.8125 16.085938 C 21.8125 14.8125 21.300781 11.242188 16.644531 11.242188 L 13.078125 11.242188 L 13.078125 17.066406 L 15.984375 17.066406 Z M 15.988281 30.097656 "/>
</g>
</svg>
