<svg xmlns="http://www.w3.org/2000/svg" xmlns:xlink="http://www.w3.org/1999/xlink" width="64px" height="64px" viewBox="0 0 64 64" version="1.1">
<defs>
<linearGradient id="linear0" gradientUnits="userSpaceOnUse" x1="0" y1="0" x2="0" y2="1" gradientTransform="matrix(55.351351,0,0,52.27928,4.324324,5.86036)">
<stop offset="0" style="stop-color:#05f7ff;stop-opacity:1;"/>
<stop offset="0.5" style="stop-color:#dddddd;stop-opacity:1;"/>
<stop offset="1" style="stop-color:#e6ff05;stop-opacity:1;"/>
</linearGradient>
</defs>
<g id="surface1">
<path style=" stroke:none;fill-rule:nonzero;fill:url(#linear0);" d="M 34.09375 5.863281 C 33.765625 5.863281 33.828125 7.152344 34.171875 7.449219 C 34.5625 7.773438 35.136719 8.933594 35.308594 9.730469 L 35.4375 10.355469 L 34.363281 10.582031 C 31.800781 11.125 31.308594 12.890625 32.960938 15.566406 C 33.539062 16.503906 33.539062 16.53125 33.429688 18.570312 C 33.339844 20.09375 33.386719 20.867188 33.605469 21.605469 C 33.933594 22.738281 34.855469 23.785156 35.824219 24.113281 C 36.894531 24.476562 39.796875 24.308594 40.878906 23.8125 C 42.058594 23.273438 43.59375 21.671875 44.023438 20.527344 C 44.527344 19.1875 44.335938 17.324219 43.53125 15.707031 C 42.757812 14.144531 40.738281 12.027344 39.335938 11.300781 C 38.597656 10.921875 38.246094 10.59375 38 10.042969 C 37.644531 9.265625 34.46875 5.863281 34.09375 5.863281 Z M 15.726562 12.011719 C 15.679688 12.011719 15.636719 12.023438 15.605469 12.058594 C 15.214844 12.441406 14.90625 14.46875 14.941406 16.351562 C 14.972656 18.136719 14.929688 18.511719 14.578125 19.105469 C 13.394531 21.082031 13.203125 24.707031 14.152344 26.761719 C 14.996094 28.582031 16.390625 29.691406 18.523438 30.21875 C 20.003906 30.589844 21.011719 30.539062 22.40625 30.03125 C 26.257812 28.621094 26.921875 25.878906 24.164062 22.78125 C 23.039062 21.523438 22.523438 20.5 22.523438 19.570312 C 22.523438 18.441406 22.109375 17.335938 21.410156 16.59375 C 20.78125 15.921875 20.746094 15.917969 19.542969 16.023438 C 18.875 16.082031 18.082031 16.1875 17.789062 16.261719 C 17.296875 16.386719 17.21875 16.320312 16.867188 15.539062 C 16.660156 15.066406 16.484375 14.273438 16.476562 13.769531 C 16.472656 12.996094 16.03125 12.039062 15.726562 12.011719 Z M 54.796875 15.09375 C 54.3125 14.996094 54.164062 16.121094 54.554688 16.9375 C 54.734375 17.3125 54.851562 17.949219 54.8125 18.351562 L 54.757812 19.085938 L 53.71875 19.105469 C 52.921875 19.121094 52.539062 19.246094 51.972656 19.675781 C 51.320312 20.175781 50.3125 21.867188 50.3125 22.488281 C 50.3125 22.621094 49.699219 23.957031 48.957031 25.441406 C 48.207031 26.929688 47.539062 28.441406 47.457031 28.800781 C 47.039062 30.738281 48.207031 32.1875 51.003906 33.1875 C 52.1875 33.617188 53.417969 33.648438 54.757812 33.289062 C 56.933594 32.710938 58.328125 31.617188 59.175781 29.820312 C 59.621094 28.875 59.6875 28.488281 59.675781 26.769531 C 59.664062 24.539062 59.242188 23.132812 58.105469 21.523438 C 57.742188 21.023438 57.3125 20.050781 57.136719 19.355469 C 56.773438 17.945312 55.261719 15.1875 54.796875 15.09375 Z M 4.566406 30.46875 C 4.515625 30.457031 4.484375 30.460938 4.457031 30.488281 C 4.050781 30.921875 4.660156 35.109375 5.265625 36.109375 C 5.414062 36.351562 5.625 37.1875 5.738281 37.960938 C 6.257812 41.476562 8.707031 44.753906 11.488281 45.664062 C 12.4375 45.976562 14.5 45.863281 15.828125 45.421875 C 16.933594 45.0625 17.300781 44.8125 18.132812 43.878906 C 19.855469 41.9375 20.164062 40.023438 19.011719 38.46875 C 18.707031 38.058594 17.769531 37.289062 16.933594 36.765625 C 16.097656 36.234375 14.644531 35.261719 13.703125 34.605469 C 10.949219 32.664062 10.664062 32.488281 9.902344 32.261719 C 8.941406 31.972656 7.957031 32.273438 7.160156 33.113281 L 6.523438 33.761719 L 6.136719 33.066406 C 5.917969 32.6875 5.738281 32.179688 5.738281 31.945312 C 5.738281 31.527344 4.917969 30.550781 4.566406 30.46875 Z M 39.699219 33.539062 C 38.488281 33.542969 37.089844 33.738281 35.484375 34.125 C 30.933594 35.226562 28.78125 36.53125 27.800781 38.792969 C 27.375 39.769531 27.339844 40.109375 27.460938 41.984375 C 27.578125 43.886719 27.542969 44.164062 27.097656 45.113281 C 26.644531 46.078125 26.117188 46.621094 23.714844 48.644531 C 22.957031 49.285156 22.882812 49.4375 22.796875 50.613281 C 22.714844 51.707031 22.796875 52.070312 23.347656 53.242188 C 24.53125 55.746094 26.660156 57.433594 29.324219 57.957031 C 30.589844 58.199219 31.421875 58.199219 33.589844 57.960938 C 42.011719 57.015625 51.703125 53.988281 54.46875 51.410156 C 55.914062 50.066406 56.488281 48.828125 56.585938 46.863281 C 56.773438 43.105469 55.078125 40.851562 52.058594 40.835938 C 49.691406 40.824219 47.3125 39.449219 46.335938 37.53125 C 45.621094 36.109375 44.152344 34.691406 42.789062 34.089844 C 41.929688 33.710938 40.910156 33.53125 39.699219 33.539062 Z M 39.699219 33.539062 "/>
</g>
</svg>
