<svg xmlns="http://www.w3.org/2000/svg" xmlns:xlink="http://www.w3.org/1999/xlink" width="64px" height="64px" viewBox="0 0 64 64" version="1.1">
<defs>
<linearGradient id="linear0" gradientUnits="userSpaceOnUse" x1="0" y1="0" x2="0" y2="1" gradientTransform="matrix(55.351351,0,0,41.513514,4.324324,11.243243)">
<stop offset="0" style="stop-color:#00fff2;stop-opacity:1;"/>
<stop offset="0.5" style="stop-color:#dddddd;stop-opacity:1;"/>
<stop offset="1" style="stop-color:#0062ff;stop-opacity:1;"/>
</linearGradient>
</defs>
<g id="surface1">
<path style=" stroke:none;fill-rule:nonzero;fill:url(#linear0);" d="M 31.914062 11.242188 C 31.558594 11.261719 31.207031 11.355469 30.894531 11.527344 L 5.527344 25.363281 C 4.789062 25.769531 4.324219 26.542969 4.324219 27.386719 L 4.324219 38.917969 C 4.324219 39.824219 4.855469 40.644531 5.675781 41.015625 L 31.042969 52.550781 C 31.757812 52.875 32.585938 52.8125 33.242188 52.390625 L 53.863281 39.191406 L 55.449219 41.390625 L 57.5625 36.691406 L 59.675781 32 L 49.433594 33.039062 L 51.164062 35.445312 L 31.8125 47.835938 L 8.9375 37.4375 L 8.9375 28.757812 L 32.042969 16.160156 L 50.488281 25.375 L 31.792969 37.894531 L 14.515625 29.90625 L 12.582031 34.09375 L 31.03125 42.625 C 31.761719 42.96875 32.617188 42.894531 33.285156 42.449219 L 56.347656 26.996094 C 57.027344 26.539062 57.414062 25.757812 57.363281 24.9375 C 57.3125 24.117188 56.828125 23.386719 56.09375 23.015625 L 33.03125 11.488281 C 32.6875 11.3125 32.300781 11.230469 31.914062 11.242188 Z M 31.914062 11.242188 "/>
</g>
</svg>
