<svg xmlns="http://www.w3.org/2000/svg" xmlns:xlink="http://www.w3.org/1999/xlink" width="64px" height="64px" viewBox="0 0 64 64" version="1.1">
<defs>
<linearGradient id="linear0" gradientUnits="userSpaceOnUse" x1="0" y1="0" x2="0" y2="1" gradientTransform="matrix(55.351351,0,0,55.351351,4.324324,4.324324)">
<stop offset="0" style="stop-color:#ffae00;stop-opacity:1;"/>
<stop offset="0.5" style="stop-color:#dddddd;stop-opacity:1;"/>
<stop offset="1" style="stop-color:#bf1d1d;stop-opacity:1;"/>
</linearGradient>
<linearGradient id="linear1" gradientUnits="userSpaceOnUse" x1="0" y1="0" x2="0" y2="1" gradientTransform="matrix(26.810811,0,0,28.72973,18.810811,23.581081)">
<stop offset="0" style="stop-color:#ffae00;stop-opacity:1;"/>
<stop offset="0.5" style="stop-color:#dddddd;stop-opacity:1;"/>
<stop offset="1" style="stop-color:#bf1d1d;stop-opacity:1;"/>
</linearGradient>
</defs>
<g id="surface1">
<path style=" stroke:none;fill-rule:nonzero;fill:url(#linear0);" d="M 18.136719 4.324219 C 13.789062 4.382812 10.605469 4.210938 8 5.851562 C 6.648438 6.730469 5.617188 8.125 5.089844 9.792969 C 4.527344 11.523438 4.324219 13.589844 4.324219 16.1875 L 4.324219 47.8125 C 4.324219 50.414062 4.527344 52.476562 5.09375 54.207031 C 5.664062 55.941406 6.699219 57.328125 8 58.152344 C 10.605469 59.796875 13.789062 59.617188 18.136719 59.675781 L 45.863281 59.675781 C 50.210938 59.617188 53.394531 59.792969 56 58.152344 C 57.300781 57.335938 58.335938 55.941406 58.910156 54.207031 C 59.472656 52.476562 59.675781 50.410156 59.675781 47.8125 L 59.675781 24.089844 C 59.675781 21.488281 59.472656 19.433594 58.90625 17.699219 C 58.835938 17.484375 58.738281 17.289062 58.648438 17.089844 L 58.554688 16.863281 C 57.996094 15.558594 57.105469 14.472656 56 13.757812 C 53.394531 12.109375 50.210938 12.292969 45.863281 12.234375 L 35.347656 12.234375 L 28.351562 4.324219 Z M 18.1875 8.28125 L 26.9375 8.28125 L 33.039062 15.179688 L 28.652344 20.136719 L 18.136719 20.136719 C 13.789062 20.199219 10.605469 20.015625 8 21.660156 C 7.921875 21.707031 7.863281 21.78125 7.785156 21.835938 L 7.785156 16.1875 C 7.785156 13.847656 8 12.207031 8.335938 11.179688 C 8.675781 10.152344 9.039062 9.714844 9.675781 9.3125 C 10.941406 8.511719 13.8125 8.335938 18.1875 8.28125 Z M 37.066406 16.1875 L 45.8125 16.1875 C 50.1875 16.246094 53.050781 16.421875 54.320312 17.21875 C 54.957031 17.617188 55.3125 18.058594 55.660156 19.085938 C 55.996094 20.117188 56.214844 21.753906 56.214844 24.089844 L 56.214844 47.8125 C 56.214844 50.152344 56 51.792969 55.664062 52.820312 C 55.324219 53.847656 54.960938 54.285156 54.324219 54.6875 C 53.058594 55.488281 50.199219 55.664062 45.835938 55.71875 L 18.164062 55.71875 C 13.800781 55.664062 10.941406 55.488281 9.675781 54.6875 C 9.039062 54.289062 8.671875 53.847656 8.335938 52.820312 C 8 51.792969 7.785156 50.152344 7.785156 47.8125 L 7.785156 32 C 7.785156 29.660156 8.003906 28.023438 8.339844 26.996094 C 8.6875 25.96875 9.042969 25.527344 9.6875 25.132812 C 10.949219 24.328125 13.8125 24.148438 18.1875 24.089844 L 30.070312 24.089844 Z M 37.066406 16.1875 "/>
<path style=" stroke:none;fill-rule:nonzero;fill:url(#linear1);" d="M 45.621094 28.367188 C 45.621094 25.738281 43.46875 23.582031 40.835938 23.582031 C 38.191406 23.589844 36.054688 25.730469 36.050781 28.367188 C 36.050781 31.003906 38.199219 33.160156 40.835938 33.160156 C 43.46875 33.160156 45.621094 31.003906 45.621094 28.367188 Z M 45.621094 47.523438 C 45.621094 44.886719 43.46875 42.734375 40.835938 42.734375 C 38.191406 42.742188 36.054688 44.878906 36.050781 47.523438 C 36.050781 50.152344 38.199219 52.3125 40.835938 52.3125 C 43.46875 52.3125 45.621094 50.152344 45.621094 47.523438 Z M 43.707031 28.367188 C 43.707031 29.96875 42.433594 31.242188 40.835938 31.242188 C 39.238281 31.242188 37.960938 29.96875 37.960938 28.367188 C 37.960938 26.773438 39.238281 25.5 40.835938 25.5 C 42.433594 25.5 43.707031 26.773438 43.707031 28.367188 Z M 43.707031 47.523438 C 43.707031 49.117188 42.433594 50.390625 40.835938 50.390625 C 39.238281 50.390625 37.960938 49.117188 37.960938 47.523438 C 37.960938 45.921875 39.238281 44.648438 40.835938 44.648438 C 42.433594 44.648438 43.707031 45.921875 43.707031 47.523438 Z M 35.539062 32.410156 C 35.144531 31.902344 34.824219 31.335938 34.589844 30.738281 L 27.210938 34.847656 C 26.3125 33.785156 24.988281 33.164062 23.597656 33.160156 C 20.960938 33.164062 18.820312 35.300781 18.8125 37.945312 C 18.8125 40.582031 20.960938 42.734375 23.597656 42.734375 C 25.042969 42.734375 26.328125 42.070312 27.210938 41.050781 L 34.589844 45.148438 C 34.824219 44.542969 35.144531 43.988281 35.539062 43.484375 L 28.144531 39.375 C 28.289062 38.921875 28.382812 38.445312 28.382812 37.945312 C 28.382812 37.445312 28.289062 36.972656 28.144531 36.515625 Z M 26.472656 37.945312 C 26.472656 39.539062 25.191406 40.820312 23.597656 40.820312 C 22 40.820312 20.726562 39.539062 20.726562 37.945312 C 20.726562 36.347656 22 35.070312 23.597656 35.070312 C 25.191406 35.070312 26.472656 36.347656 26.472656 37.945312 Z M 26.472656 37.945312 "/>
</g>
</svg>
