<svg xmlns="http://www.w3.org/2000/svg" xmlns:xlink="http://www.w3.org/1999/xlink" width="64px" height="64px" viewBox="0 0 64 64" version="1.1">
<defs>
<linearGradient id="linear0" gradientUnits="userSpaceOnUse" x1="0" y1="0" x2="0" y2="1" gradientTransform="matrix(55.351351,0,0,55.351351,4.324324,4.324324)">
<stop offset="0" style="stop-color:#05f7ff;stop-opacity:1;"/>
<stop offset="0.5" style="stop-color:#dddddd;stop-opacity:1;"/>
<stop offset="1" style="stop-color:#e6ff05;stop-opacity:1;"/>
</linearGradient>
<linearGradient id="linear1" gradientUnits="userSpaceOnUse" x1="0" y1="0" x2="0" y2="1" gradientTransform="matrix(48.432432,0,0,48.432432,7.783784,7.783784)">
<stop offset="0" style="stop-color:#05f7ff;stop-opacity:0.4;"/>
<stop offset="0.5" style="stop-color:#dddddd;stop-opacity:1;"/>
<stop offset="1" style="stop-color:#e6ff05;stop-opacity:0.4;"/>
</linearGradient>
<linearGradient id="linear2" gradientUnits="userSpaceOnUse" x1="0" y1="0" x2="0" y2="1" gradientTransform="matrix(55.351351,0,0,17.297297,4.324324,23.351351)">
<stop offset="0" style="stop-color:#05f7ff;stop-opacity:1;"/>
<stop offset="0.5" style="stop-color:#dddddd;stop-opacity:1;"/>
<stop offset="1" style="stop-color:#e6ff05;stop-opacity:1;"/>
</linearGradient>
</defs>
<g id="surface1">
<path style=" stroke:none;fill-rule:nonzero;fill:url(#linear0);" d="M 4.324219 56.214844 L 4.324219 52.757812 L 11.242188 52.757812 L 11.242188 59.675781 L 4.324219 59.675781 Z M 52.757812 56.214844 L 52.757812 52.757812 L 59.675781 52.757812 L 59.675781 59.675781 L 52.757812 59.675781 Z M 4.324219 7.785156 L 4.324219 4.324219 L 11.242188 4.324219 L 11.242188 11.242188 L 4.324219 11.242188 Z M 52.757812 7.785156 L 52.757812 4.324219 L 59.675781 4.324219 L 59.675781 11.242188 L 52.757812 11.242188 Z M 52.757812 7.785156 "/>
<path style=" stroke:none;fill-rule:nonzero;fill:url(#linear1);" d="M 56.214844 32 C 56.214844 45.375 45.375 56.214844 32 56.214844 C 18.625 56.214844 7.785156 45.375 7.785156 32 C 7.785156 18.625 18.625 7.785156 32 7.785156 C 45.375 7.785156 56.214844 18.625 56.214844 32 "/>
<path style=" stroke:none;fill-rule:nonzero;fill:url(#linear2);" d="M 4.324219 32 L 4.324219 23.351562 L 19.699219 23.351562 L 19.699219 27.675781 L 59.675781 27.675781 L 59.675781 36.324219 L 19.699219 36.324219 L 19.699219 40.648438 L 4.324219 40.648438 Z M 4.324219 32 "/>
</g>
</svg>
