<svg xmlns="http://www.w3.org/2000/svg" xmlns:xlink="http://www.w3.org/1999/xlink" width="64px" height="64px" viewBox="0 0 64 64" version="1.1">
<defs>
<linearGradient id="linear0" gradientUnits="userSpaceOnUse" x1="0" y1="0" x2="0" y2="1" gradientTransform="matrix(48.432432,0,0,55.351351,7.783784,4.324324)">
<stop offset="0" style="stop-color:#ffae00;stop-opacity:1;"/>
<stop offset="0.5" style="stop-color:#dddddd;stop-opacity:1;"/>
<stop offset="1" style="stop-color:#bf1d1d;stop-opacity:1;"/>
</linearGradient>
</defs>
<g id="surface1">
<path style=" stroke:none;fill-rule:nonzero;fill:url(#linear0);" d="M 10.703125 4.339844 C 9.039062 4.648438 7.753906 6.1875 7.785156 7.808594 L 7.785156 56.214844 C 7.785156 58.027344 9.558594 59.675781 11.460938 59.675781 L 52.539062 59.675781 C 54.441406 59.675781 56.214844 58.027344 56.214844 56.214844 L 56.214844 30.269531 C 56.238281 29.355469 55.800781 28.132812 55.136719 27.472656 L 32.972656 5.320312 C 32.285156 4.679688 31.335938 4.324219 30.378906 4.339844 L 11.460938 4.339844 C 11.234375 4.324219 10.929688 4.324219 10.703125 4.339844 Z M 43.351562 4.339844 C 42.386719 4.605469 42.054688 6.070312 42.8125 6.726562 L 53.835938 17.742188 C 54.597656 18.539062 56.234375 17.867188 56.214844 16.769531 L 56.214844 5.644531 C 56.175781 4.9375 55.511719 4.328125 54.8125 4.339844 L 43.785156 4.339844 C 43.636719 4.320312 43.496094 4.320312 43.351562 4.339844 Z M 12.109375 8.648438 L 30.269531 8.648438 L 51.890625 30.269531 L 51.890625 55.351562 L 12.109375 55.351562 Z M 12.109375 8.648438 "/>
</g>
</svg>
