<svg xmlns="http://www.w3.org/2000/svg" xmlns:xlink="http://www.w3.org/1999/xlink" width="64px" height="64px" viewBox="0 0 64 64" version="1.1">
<defs>
<linearGradient id="linear0" gradientUnits="userSpaceOnUse" x1="64.001099" y1="120.000999" x2="64.001099" y2="7.99947" >
<stop offset="0" style="stop-color:rgb(0%,38.431373%,100%);stop-opacity:1;"/>
<stop offset="1" style="stop-color:rgb(0%,100%,94.901961%);stop-opacity:1;"/>
</linearGradient>
<linearGradient id="linear1" gradientUnits="userSpaceOnUse" x1="64.001099" y1="120.000999" x2="64.001099" y2="7.99947" >
<stop offset="0" style="stop-color:rgb(0%,38.431373%,100%);stop-opacity:1;"/>
<stop offset="1" style="stop-color:rgb(0%,100%,94.901961%);stop-opacity:1;"/>
</linearGradient>
</defs>
<g id="surface1">
<path style="fill-rule:nonzero;fill:url(#linear0);stroke-width:3;stroke-linecap:butt;stroke-linejoin:miter;stroke:url(#linear1);stroke-miterlimit:4;" d="M 60.21875 8.125 C 29.40625 10.210938 6.046875 36.96875 8.132812 67.773438 C 10.210938 98.585938 36.96875 121.953125 67.773438 119.867188 C 98.585938 117.789062 121.953125 91.023438 119.867188 60.21875 C 117.789062 29.40625 91.03125 6.046875 60.21875 8.125 Z M 60.773438 16.328125 C 87.148438 14.539062 109.890625 34.390625 111.679688 60.773438 C 113.273438 84.421875 97.476562 105.148438 75.179688 110.46875 C 75.28125 110.101562 75.359375 109.710938 75.421875 109.3125 C 76.015625 107.28125 76.367188 104.257812 76.148438 104 C 75.554688 103.289062 78.546875 95.921875 79.96875 94.585938 C 81.851562 92.820312 82.734375 88.84375 82.203125 84.578125 C 81.8125 81.40625 82.015625 79.75 83.375 75.132812 C 84.429688 71.546875 85.507812 69 86.367188 68.046875 C 87.109375 67.234375 88.515625 64.960938 89.476562 63.007812 C 91.328125 59.265625 94.9375 55.210938 97.179688 54.367188 C 99.421875 53.523438 101.476562 50.085938 101.265625 47.515625 C 101.015625 44.484375 100.164062 43.226562 98.78125 43.875 C 97.984375 44.25 97.445312 44.109375 96.6875 43.320312 C 95.796875 42.390625 95.640625 42.4375 95.40625 43.679688 C 95.265625 44.46875 94.742188 45.148438 94.25 45.1875 C 93.554688 45.234375 93.59375 44.6875 94.453125 42.75 C 95.0625 41.382812 95.539062 39.234375 95.523438 37.96875 C 95.484375 35.742188 93.53125 30.601562 92.609375 30.328125 C 92.359375 30.257812 90.453125 31.710938 88.382812 33.546875 C 82.820312 38.5 74.085938 44.773438 72.570312 44.890625 C 71.835938 44.953125 70.460938 44.835938 69.507812 44.648438 C 67.75 44.289062 65.109375 45.484375 58.859375 49.445312 C 56.164062 51.15625 54.539062 51.625 50.71875 51.796875 C 47.78125 51.929688 45.070312 52.523438 43.671875 53.34375 C 41.585938 54.570312 41.4375 54.820312 41.820312 56.34375 C 42.054688 57.257812 43.515625 59.265625 45.054688 60.796875 L 47.859375 63.59375 L 46.148438 66.3125 C 45.203125 67.804688 44.15625 69.921875 43.835938 71 C 43.507812 72.085938 42.25 74.046875 41.03125 75.359375 C 38.6875 77.890625 34.234375 85.257812 32.8125 88.960938 C 32.460938 89.882812 28.84375 92.265625 26.351562 93.46875 C 20.648438 86.1875 17 77.171875 16.328125 67.21875 C 14.539062 40.84375 34.390625 18.109375 60.773438 16.328125 Z M 60.773438 16.328125 " transform="matrix(0.5,0,0,0.5,0,0)"/>
</g>
</svg>
