<svg xmlns="http://www.w3.org/2000/svg" xmlns:xlink="http://www.w3.org/1999/xlink" width="64px" height="64px" viewBox="0 0 64 64" version="1.1">
<defs>
<linearGradient id="linear0" gradientUnits="userSpaceOnUse" x1="0" y1="0" x2="0" y2="1" gradientTransform="matrix(48.432432,0,0,55.351351,7.783784,4.324324)">
<stop offset="0" style="stop-color:#ff8963;stop-opacity:1;"/>
<stop offset="0.5" style="stop-color:#dddddd;stop-opacity:1;"/>
<stop offset="1" style="stop-color:#0F6FFF;stop-opacity:1;"/>
</linearGradient>
<linearGradient id="linear1" gradientUnits="userSpaceOnUse" x1="0" y1="0" x2="0" y2="1" gradientTransform="matrix(27.675676,0,0,17.297297,18.162162,32)">
<stop offset="0" style="stop-color:#ff8963;stop-opacity:1;"/>
<stop offset="0.5" style="stop-color:#dddddd;stop-opacity:1;"/>
<stop offset="1" style="stop-color:#0F6FFF;stop-opacity:1;"/>
</linearGradient>
</defs>
<g id="surface1">
<path style=" stroke:none;fill-rule:nonzero;fill:url(#linear0);" d="M 10.703125 4.339844 C 9.039062 4.648438 7.753906 6.1875 7.785156 7.808594 L 7.785156 56.214844 C 7.785156 58.027344 9.558594 59.675781 11.460938 59.675781 L 52.539062 59.675781 C 54.441406 59.675781 56.214844 58.027344 56.214844 56.214844 L 56.214844 30.269531 C 56.238281 29.355469 55.800781 28.132812 55.136719 27.472656 L 32.972656 5.320312 C 32.285156 4.679688 31.335938 4.324219 30.378906 4.339844 L 11.460938 4.339844 C 11.234375 4.324219 10.929688 4.324219 10.703125 4.339844 Z M 43.351562 4.339844 C 42.386719 4.605469 42.054688 6.070312 42.8125 6.726562 L 53.835938 17.742188 C 54.597656 18.539062 56.234375 17.867188 56.214844 16.769531 L 56.214844 5.644531 C 56.175781 4.9375 55.511719 4.328125 54.8125 4.339844 L 43.785156 4.339844 C 43.636719 4.320312 43.496094 4.320312 43.351562 4.339844 Z M 12.109375 8.648438 L 30.269531 8.648438 L 51.890625 30.269531 L 51.890625 55.351562 L 12.109375 55.351562 Z M 12.109375 8.648438 "/>
<path style=" stroke:none;fill-rule:nonzero;fill:url(#linear1);" d="M 19.890625 32 C 18.933594 32 18.164062 32.769531 18.164062 33.730469 L 18.164062 47.566406 C 18.164062 48.527344 18.933594 49.296875 19.890625 49.296875 L 44.109375 49.296875 C 45.066406 49.296875 45.835938 48.527344 45.835938 47.566406 L 45.835938 33.730469 C 45.835938 32.769531 45.066406 32 44.109375 32 Z M 23.351562 35.460938 C 24.308594 35.460938 25.082031 36.234375 25.082031 37.1875 C 25.082031 38.144531 24.308594 38.917969 23.351562 38.917969 C 22.394531 38.917969 21.621094 38.144531 21.621094 37.1875 C 21.621094 36.234375 22.394531 35.460938 23.351562 35.460938 Z M 30.269531 35.460938 L 40.648438 35.460938 C 41.609375 35.460938 42.378906 36.230469 42.378906 37.1875 C 42.378906 38.148438 41.609375 38.917969 40.648438 38.917969 L 30.269531 38.917969 C 29.3125 38.917969 28.539062 38.148438 28.539062 37.1875 C 28.539062 36.230469 29.3125 35.460938 30.269531 35.460938 Z M 23.351562 42.378906 C 24.308594 42.378906 25.082031 43.152344 25.082031 44.109375 C 25.082031 45.0625 24.308594 45.835938 23.351562 45.835938 C 22.394531 45.835938 21.621094 45.0625 21.621094 44.109375 C 21.621094 43.152344 22.394531 42.378906 23.351562 42.378906 Z M 30.269531 42.378906 L 40.648438 42.378906 C 41.609375 42.378906 42.378906 43.148438 42.378906 44.109375 C 42.378906 45.066406 41.609375 45.835938 40.648438 45.835938 L 30.269531 45.835938 C 29.3125 45.835938 28.539062 45.066406 28.539062 44.109375 C 28.539062 43.148438 29.3125 42.378906 30.269531 42.378906 Z M 30.269531 42.378906 "/>
</g>
</svg>
