<svg xmlns="http://www.w3.org/2000/svg" xmlns:xlink="http://www.w3.org/1999/xlink" width="64px" height="64px" viewBox="0 0 64 64" version="1.1">
<defs>
<clipPath id="clip1">
  <path d="M 23.351562 23.351562 L 40.648438 23.351562 L 40.648438 40.648438 L 23.351562 40.648438 Z M 23.351562 23.351562 "/>
</clipPath>
<clipPath id="clip2">
  <path d="M 40.636719 32.007812 C 40.636719 36.738281 36.800781 40.578125 32.0625 40.578125 C 27.332031 40.578125 23.492188 36.738281 23.492188 32.007812 C 23.492188 27.269531 27.332031 23.433594 32.0625 23.433594 C 36.800781 23.433594 40.636719 27.269531 40.636719 32.007812 Z M 40.636719 32.007812 "/>
</clipPath>
<clipPath id="clip3">
  <path d="M 23.351562 23.351562 L 40.648438 23.351562 L 40.648438 38.917969 L 23.351562 38.917969 Z M 23.351562 23.351562 "/>
</clipPath>
<clipPath id="clip4">
  <path d="M 40.636719 32.007812 C 40.636719 36.738281 36.800781 40.578125 32.0625 40.578125 C 27.332031 40.578125 23.492188 36.738281 23.492188 32.007812 C 23.492188 27.269531 27.332031 23.433594 32.0625 23.433594 C 36.800781 23.433594 40.636719 27.269531 40.636719 32.007812 Z M 40.636719 32.007812 "/>
</clipPath>
<clipPath id="clip5">
  <path d="M 23.351562 23.351562 L 40.648438 23.351562 L 40.648438 40.648438 L 23.351562 40.648438 Z M 23.351562 23.351562 "/>
</clipPath>
<clipPath id="clip6">
  <path d="M 40.636719 32.007812 C 40.636719 36.738281 36.800781 40.578125 32.0625 40.578125 C 27.332031 40.578125 23.492188 36.738281 23.492188 32.007812 C 23.492188 27.269531 27.332031 23.433594 32.0625 23.433594 C 36.800781 23.433594 40.636719 27.269531 40.636719 32.007812 Z M 40.636719 32.007812 "/>
</clipPath>
<clipPath id="clip7">
  <path d="M 25.082031 27 L 40.648438 27 L 40.648438 40.648438 L 25.082031 40.648438 Z M 25.082031 27 "/>
</clipPath>
<clipPath id="clip8">
  <path d="M 40.636719 32.007812 C 40.636719 36.738281 36.800781 40.578125 32.0625 40.578125 C 27.332031 40.578125 23.492188 36.738281 23.492188 32.007812 C 23.492188 27.269531 27.332031 23.433594 32.0625 23.433594 C 36.800781 23.433594 40.636719 27.269531 40.636719 32.007812 Z M 40.636719 32.007812 "/>
</clipPath>
<clipPath id="clip9">
  <path d="M 23.351562 23.351562 L 40.648438 23.351562 L 40.648438 40.648438 L 23.351562 40.648438 Z M 23.351562 23.351562 "/>
</clipPath>
<clipPath id="clip10">
  <path d="M 40.636719 32.007812 C 40.636719 36.738281 36.800781 40.578125 32.0625 40.578125 C 27.332031 40.578125 23.492188 36.738281 23.492188 32.007812 C 23.492188 27.269531 27.332031 23.433594 32.0625 23.433594 C 36.800781 23.433594 40.636719 27.269531 40.636719 32.007812 Z M 40.636719 32.007812 "/>
</clipPath>
<clipPath id="clip11">
  <path d="M 23.351562 27 L 40.648438 27 L 40.648438 40.648438 L 23.351562 40.648438 Z M 23.351562 27 "/>
</clipPath>
<clipPath id="clip12">
  <path d="M 40.636719 32.007812 C 40.636719 36.738281 36.800781 40.578125 32.0625 40.578125 C 27.332031 40.578125 23.492188 36.738281 23.492188 32.007812 C 23.492188 27.269531 27.332031 23.433594 32.0625 23.433594 C 36.800781 23.433594 40.636719 27.269531 40.636719 32.007812 Z M 40.636719 32.007812 "/>
</clipPath>
</defs>
<g id="surface1">
<path style=" stroke:none;fill-rule:nonzero;fill:rgb(30.19608%,30.19608%,30.19608%);fill-opacity:1;" d="M 18.164062 9.488281 L 45.835938 9.488281 C 49.660156 9.488281 52.761719 12.585938 52.761719 16.410156 L 52.761719 47.539062 C 52.761719 51.363281 49.660156 54.460938 45.835938 54.460938 L 18.164062 54.460938 C 14.34375 54.460938 11.242188 51.363281 11.242188 47.539062 L 11.242188 16.410156 C 11.242188 12.585938 14.34375 9.488281 18.164062 9.488281 Z M 18.164062 9.488281 "/>
<path style=" stroke:none;fill-rule:nonzero;fill:rgb(100%,100%,100%);fill-opacity:1;" d="M 18.164062 12.972656 C 16.246094 12.972656 14.703125 14.515625 14.703125 16.433594 L 14.703125 47.566406 C 14.703125 49.484375 16.246094 51.027344 18.164062 51.027344 L 45.835938 51.027344 C 47.753906 51.027344 49.296875 49.484375 49.296875 47.566406 L 49.296875 26.8125 L 35.460938 12.972656 Z M 40.648438 12.972656 L 49.296875 21.621094 L 49.296875 16.433594 C 49.296875 14.515625 47.753906 12.972656 45.835938 12.972656 Z M 40.648438 12.972656 "/>
<path style=" stroke:none;fill-rule:nonzero;fill:rgb(80.000001%,80.000001%,80.000001%);fill-opacity:1;" d="M 40.648438 32 C 40.648438 36.777344 36.777344 40.648438 32 40.648438 C 27.222656 40.648438 23.351562 36.777344 23.351562 32 C 23.351562 27.222656 27.222656 23.351562 32 23.351562 C 36.777344 23.351562 40.648438 27.222656 40.648438 32 Z M 40.648438 32 "/>
<g clip-path="url(#clip1)" clip-rule="nonzero">
<g clip-path="url(#clip2)" clip-rule="nonzero">
<path style="fill:none;stroke-width:1.7906;stroke-linecap:round;stroke-linejoin:miter;stroke:rgb(100%,100%,100%);stroke-opacity:1;stroke-miterlimit:4;" d="M 3068.203539 -1099.50539 C 3052.375029 -1093.924616 3052.009505 -1078.683556 3055.795293 -1071.973573 " transform="matrix(0.598455,0,0,0.598455,-1801.178843,681.067356)"/>
</g>
</g>
<g clip-path="url(#clip3)" clip-rule="nonzero">
<g clip-path="url(#clip4)" clip-rule="nonzero">
<path style="fill:none;stroke-width:0.8125;stroke-linecap:round;stroke-linejoin:miter;stroke:rgb(100%,100%,100%);stroke-opacity:1;stroke-miterlimit:4;" d="M 3115.999973 -861.639958 C 3112.422129 -868.360262 3105.559658 -867.486534 3102.808154 -865.333311 " transform="matrix(1.318881,0,0,1.318881,-4067.675676,1169.013725)"/>
</g>
</g>
<g clip-path="url(#clip5)" clip-rule="nonzero">
<g clip-path="url(#clip6)" clip-rule="nonzero">
<path style="fill:none;stroke-width:0.8125;stroke-linecap:round;stroke-linejoin:miter;stroke:rgb(100%,100%,100%);stroke-opacity:1;stroke-miterlimit:4;" d="M 3104.600038 -857.040295 C 3106.267526 -864.468468 3113.11815 -865.448821 3116.343541 -864.098244 " transform="matrix(1.318881,0,0,1.318881,-4067.675676,1169.013725)"/>
</g>
</g>
<g clip-path="url(#clip7)" clip-rule="nonzero">
<g clip-path="url(#clip8)" clip-rule="nonzero">
<path style="fill:none;stroke-width:0.8125;stroke-linecap:round;stroke-linejoin:miter;stroke:rgb(100%,100%,100%);stroke-opacity:1;stroke-miterlimit:4;" d="M 3108.000174 -854.36876 C 3108.666578 -860.150176 3113.562419 -861.414861 3115.999973 -860.63591 " transform="matrix(1.318881,0,0,1.318881,-4067.675676,1169.013725)"/>
</g>
</g>
<g clip-path="url(#clip9)" clip-rule="nonzero">
<g clip-path="url(#clip10)" clip-rule="nonzero">
<path style="fill:none;stroke-width:0.8125;stroke-linecap:round;stroke-linejoin:miter;stroke:rgb(100%,100%,100%);stroke-opacity:1;stroke-miterlimit:4;" d="M 3111.000469 -855.639368 C 3112.916748 -863.008305 3107.280459 -867.012647 3103.794431 -867.291056 " transform="matrix(1.318881,0,0,1.318881,-4067.675676,1169.013725)"/>
</g>
</g>
<g clip-path="url(#clip11)" clip-rule="nonzero">
<g clip-path="url(#clip12)" clip-rule="nonzero">
<path style="fill:none;stroke-width:0.8125;stroke-linecap:round;stroke-linejoin:miter;stroke:rgb(100%,100%,100%);stroke-opacity:1;stroke-miterlimit:4;" d="M 3101.401303 -861.109797 C 3106.033545 -855.067742 3112.659072 -857.055104 3115.01962 -859.631863 " transform="matrix(1.318881,0,0,1.318881,-4067.675676,1169.013725)"/>
</g>
</g>
</g>
</svg>
