<svg xmlns="http://www.w3.org/2000/svg" xmlns:xlink="http://www.w3.org/1999/xlink" width="64px" height="64px" viewBox="0 0 64 64" version="1.1">
<defs>
<linearGradient id="linear0" gradientUnits="userSpaceOnUse" x1="0" y1="0" x2="0" y2="1" gradientTransform="matrix(45.72973,0,0,55.351351,9.135135,4.324324)">
<stop offset="0" style="stop-color:#ffae00;stop-opacity:1;"/>
<stop offset="0.5" style="stop-color:#dddddd;stop-opacity:1;"/>
<stop offset="1" style="stop-color:#6600ff;stop-opacity:1;"/>
</linearGradient>
</defs>
<g id="surface1">
<path style=" stroke:none;fill-rule:evenodd;fill:url(#linear0);" d="M 16.355469 48.847656 L 54.863281 48.847656 L 54.863281 4.324219 L 16.355469 4.324219 C 12.375 4.324219 9.136719 7.5625 9.136719 11.542969 L 9.136719 52.960938 C 9.136719 56.664062 12.375 59.675781 16.355469 59.675781 L 54.863281 59.675781 L 54.863281 57.265625 L 16.355469 57.265625 C 13.746094 57.265625 11.542969 55.296875 11.542969 52.960938 C 11.542969 50.648438 13.660156 48.847656 16.355469 48.847656 Z M 34.300781 16.78125 C 36.335938 16.78125 37.988281 18.429688 37.988281 20.460938 C 37.988281 22.503906 36.335938 24.152344 34.300781 24.152344 C 32.261719 24.152344 30.613281 22.503906 30.613281 20.460938 C 30.613281 18.429688 32.261719 16.78125 34.300781 16.78125 Z M 36.144531 35.214844 L 36.144531 29.503906 C 40.355469 28.648438 43.515625 24.921875 43.515625 20.460938 C 43.515625 15.375 39.390625 11.246094 34.300781 11.246094 C 29.207031 11.246094 25.082031 15.375 25.082031 20.460938 C 25.082031 24.921875 28.246094 28.648438 32.457031 29.503906 L 32.457031 42.59375 L 36.144531 42.59375 L 36.144531 38.90625 L 39.835938 38.90625 L 39.835938 35.214844 Z M 36.144531 35.214844 "/>
</g>
</svg>
