<svg xmlns="http://www.w3.org/2000/svg" xmlns:xlink="http://www.w3.org/1999/xlink" width="64px" height="64px" viewBox="0 0 64 64" version="1.1">
<defs>
<linearGradient id="linear0" gradientUnits="userSpaceOnUse" x1="0" y1="0" x2="0" y2="1" gradientTransform="matrix(55.351351,0,0,51.666666,4.324324,6.166666)">
<stop offset="0" style="stop-color:#00fff2;stop-opacity:1;"/>
<stop offset="0.5" style="stop-color:#dddddd;stop-opacity:1;"/>
<stop offset="1" style="stop-color:#0062ff;stop-opacity:1;"/>
</linearGradient>
</defs>
<g id="surface1">
<path style=" stroke:none;fill-rule:evenodd;fill:url(#linear0);" d="M 13.625 14.703125 L 51.273438 14.703125 C 52.121094 14.703125 52.8125 15.390625 52.8125 16.238281 L 52.8125 47.066406 C 52.8125 47.917969 52.121094 48.605469 51.273438 48.605469 L 13.625 48.605469 C 12.78125 48.605469 12.089844 47.917969 12.089844 47.066406 L 12.089844 16.238281 C 12.089844 15.390625 12.78125 14.703125 13.625 14.703125 Z M 40.527344 6.164062 C 57.285156 6.164062 59.675781 8.558594 59.675781 25.296875 L 59.675781 38.703125 C 59.675781 55.441406 57.285156 57.835938 40.527344 57.835938 L 23.472656 57.835938 C 6.714844 57.835938 4.324219 55.441406 4.324219 38.703125 L 4.324219 25.296875 C 4.324219 8.558594 6.714844 6.164062 23.472656 6.164062 Z M 21.960938 44.300781 L 21.960938 20.542969 L 26.296875 20.542969 L 26.296875 44.300781 Z M 37.664062 39.972656 L 37.664062 34.890625 C 37.664062 34.488281 37.589844 34.21875 37.4375 34.082031 C 37.289062 33.945312 37.011719 33.875 36.613281 33.875 L 33.558594 33.875 C 30.972656 33.875 29.679688 32.621094 29.679688 30.113281 L 29.679688 24.273438 C 29.679688 21.789062 31.039062 20.542969 33.753906 20.542969 L 37.890625 20.542969 C 40.605469 20.542969 41.957031 21.789062 41.957031 24.273438 L 41.957031 27.585938 L 37.589844 27.585938 L 37.589844 24.878906 C 37.589844 24.476562 37.511719 24.207031 37.363281 24.066406 C 37.210938 23.929688 36.9375 23.863281 36.539062 23.863281 L 35.109375 23.863281 C 34.679688 23.863281 34.390625 23.929688 34.238281 24.066406 C 34.089844 24.207031 34.011719 24.476562 34.011719 24.878906 L 34.011719 29.660156 C 34.011719 30.058594 34.089844 30.328125 34.238281 30.46875 C 34.390625 30.605469 34.679688 30.675781 35.109375 30.675781 L 38.078125 30.675781 C 40.714844 30.675781 42.03125 31.90625 42.03125 34.363281 L 42.03125 40.578125 C 42.03125 43.058594 40.664062 44.300781 37.929688 44.300781 L 33.863281 44.300781 C 31.125 44.300781 29.757812 43.058594 29.757812 40.578125 L 29.757812 37.300781 L 34.089844 37.300781 L 34.089844 39.972656 C 34.089844 40.375 34.164062 40.644531 34.3125 40.785156 C 34.460938 40.921875 34.753906 40.988281 35.179688 40.988281 L 36.613281 40.988281 C 37.011719 40.988281 37.289062 40.921875 37.4375 40.785156 C 37.589844 40.644531 37.664062 40.375 37.664062 39.972656 Z M 37.664062 39.972656 "/>
</g>
</svg>
