<svg xmlns="http://www.w3.org/2000/svg" xmlns:xlink="http://www.w3.org/1999/xlink" width="64px" height="64px" viewBox="0 0 64 64" version="1.1">
<defs>
<linearGradient id="linear0" gradientUnits="userSpaceOnUse" x1="0" y1="0" x2="0" y2="1" gradientTransform="matrix(44.477476,0,0,55.351351,9.761262,4.324324)">
<stop offset="0" style="stop-color:#00b7ff;stop-opacity:1;"/>
<stop offset="0.5" style="stop-color:#dddddd;stop-opacity:1;"/>
<stop offset="1" style="stop-color:#ee42d9;stop-opacity:1;"/>
</linearGradient>
</defs>
<g id="surface1">
<path style=" stroke:none;fill-rule:evenodd;fill:url(#linear0);" d="M 32 4.324219 C 21.621094 4.324219 9.761719 20.929688 9.761719 34.078125 C 9.761719 47.21875 16.707031 59.675781 32 59.675781 C 47.292969 59.675781 54.238281 47.21875 54.238281 34.078125 C 54.238281 20.929688 42.378906 4.324219 32 4.324219 Z M 18.660156 40.402344 C 18.660156 33.039062 24.636719 27.058594 32 27.058594 C 39.363281 27.058594 45.339844 33.039062 45.339844 40.402344 C 45.339844 47.765625 39.363281 53.746094 32 53.746094 C 24.636719 53.746094 18.660156 47.765625 18.660156 40.402344 Z M 18.660156 40.402344 "/>
</g>
</svg>
