<svg xmlns="http://www.w3.org/2000/svg" xmlns:xlink="http://www.w3.org/1999/xlink" width="64px" height="64px" viewBox="0 0 64 64" version="1.1">
<defs>
<linearGradient id="linear0" gradientUnits="userSpaceOnUse" x1="0" y1="0" x2="0" y2="1" gradientTransform="matrix(55.351351,0,0,55.351351,4.324324,4.324324)">
<stop offset="0" style="stop-color:#ffae00;stop-opacity:1;"/>
<stop offset="0.5" style="stop-color:#dddddd;stop-opacity:1;"/>
<stop offset="1" style="stop-color:#bf1d1d;stop-opacity:1;"/>
</linearGradient>
</defs>
<g id="surface1">
<path style=" stroke:none;fill-rule:nonzero;fill:url(#linear0);" d="M 17.726562 4.324219 C 10.335938 4.324219 4.324219 10.335938 4.324219 17.726562 C 4.324219 25.109375 10.335938 31.113281 17.726562 31.113281 C 17.734375 31.113281 17.738281 31.113281 17.753906 31.113281 C 17.808594 30.203125 17.945312 29.3125 18.164062 28.457031 C 18.636719 26.625 19.460938 24.945312 20.554688 23.484375 C 20.6875 23.296875 20.835938 23.117188 20.976562 22.941406 C 21.269531 22.585938 21.582031 22.246094 21.90625 21.921875 C 22.390625 21.441406 22.910156 20.988281 23.460938 20.582031 C 24.191406 20.03125 24.976562 19.550781 25.8125 19.148438 C 27.433594 18.367188 29.226562 17.886719 31.113281 17.769531 C 31.113281 17.753906 31.113281 17.738281 31.113281 17.726562 C 31.113281 10.335938 25.109375 4.324219 17.726562 4.324219 Z M 46.273438 4.324219 C 38.890625 4.324219 32.886719 10.328125 32.886719 17.714844 C 32.886719 17.734375 32.886719 17.753906 32.886719 17.769531 C 40.058594 18.207031 45.796875 23.941406 46.253906 31.109375 C 46.261719 31.109375 46.265625 31.109375 46.273438 31.109375 C 53.664062 31.109375 59.675781 25.105469 59.675781 17.714844 C 59.675781 10.328125 53.664062 4.324219 46.273438 4.324219 Z M 31.246094 18.648438 C 31.191406 18.652344 31.136719 18.660156 31.082031 18.664062 C 24.433594 19.117188 19.105469 24.4375 18.644531 31.082031 C 18.636719 31.136719 18.632812 31.191406 18.625 31.246094 L 31.246094 31.246094 Z M 32.753906 18.648438 L 32.753906 31.246094 L 45.367188 31.246094 C 45.367188 31.191406 45.363281 31.132812 45.355469 31.078125 C 44.890625 24.433594 39.566406 19.117188 32.917969 18.664062 C 32.863281 18.660156 32.808594 18.652344 32.753906 18.648438 Z M 18.625 32.753906 C 18.632812 32.808594 18.632812 32.867188 18.636719 32.921875 C 19.082031 39.585938 24.417969 44.921875 31.082031 45.378906 C 31.136719 45.382812 31.191406 45.382812 31.246094 45.386719 L 31.246094 32.753906 Z M 32.753906 32.753906 L 32.753906 45.386719 C 32.808594 45.382812 32.863281 45.382812 32.917969 45.378906 C 39.582031 44.921875 44.917969 39.582031 45.363281 32.917969 C 45.367188 32.863281 45.367188 32.808594 45.367188 32.753906 Z M 46.253906 32.886719 C 45.820312 40.070312 40.070312 45.824219 32.886719 46.265625 C 32.886719 46.265625 32.886719 46.273438 32.886719 46.273438 C 32.886719 53.664062 38.890625 59.671875 46.273438 59.671875 C 53.664062 59.671875 59.675781 53.664062 59.675781 46.273438 C 59.675781 38.890625 53.664062 32.886719 46.273438 32.886719 C 46.265625 32.886719 46.261719 32.886719 46.253906 32.886719 Z M 17.726562 32.890625 C 10.335938 32.890625 4.324219 38.894531 4.324219 46.285156 C 4.324219 53.671875 10.335938 59.675781 17.726562 59.675781 C 25.109375 59.675781 31.113281 53.671875 31.113281 46.285156 C 31.113281 46.28125 31.113281 46.269531 31.113281 46.265625 C 29.21875 46.148438 27.433594 45.664062 25.8125 44.882812 C 24.976562 44.484375 24.191406 44.011719 23.460938 43.460938 C 22.910156 43.050781 22.390625 42.597656 21.90625 42.113281 C 21.582031 41.792969 21.269531 41.457031 20.976562 41.097656 C 20.835938 40.921875 20.6875 40.742188 20.554688 40.558594 C 19.460938 39.09375 18.636719 37.414062 18.164062 35.589844 C 17.945312 34.714844 17.808594 33.8125 17.753906 32.890625 C 17.738281 32.890625 17.734375 32.890625 17.726562 32.890625 Z M 17.726562 32.890625 "/>
</g>
</svg>
