<svg xmlns="http://www.w3.org/2000/svg" xmlns:xlink="http://www.w3.org/1999/xlink" width="64px" height="64px" viewBox="0 0 64 64" version="1.1">
<defs>
<linearGradient id="linear0" gradientUnits="userSpaceOnUse" x1="0" y1="0" x2="0" y2="1" gradientTransform="matrix(44.27928,0,0,55.351351,9.86036,4.324324)">
<stop offset="0" style="stop-color:#ffae00;stop-opacity:1;"/>
<stop offset="0.5" style="stop-color:#dddddd;stop-opacity:1;"/>
<stop offset="1" style="stop-color:#bf1d1d;stop-opacity:1;"/>
</linearGradient>
</defs>
<g id="surface1">
<path style=" stroke:none;fill-rule:evenodd;fill:url(#linear0);" d="M 49.5 28.710938 C 49.675781 27.839844 48.894531 26.675781 48.023438 26.488281 C 47.1875 26.3125 46.042969 27.015625 45.863281 27.847656 C 45.671875 28.738281 46.488281 29.949219 47.382812 30.132812 C 48.214844 30.292969 49.335938 29.542969 49.5 28.710938 Z M 26.132812 59.144531 C 26.554688 57.746094 28.660156 54.269531 29.792969 53.082031 C 30.488281 52.355469 31.054688 51.6875 31.054688 51.609375 C 31.054688 51.03125 29.335938 49.765625 21.664062 44.707031 C 17.558594 42 15.328125 40.0625 13.28125 37.421875 L 11.542969 35.1875 L 10.824219 31.792969 C 10.28125 29.234375 10.160156 28.210938 10.320312 27.625 C 10.484375 27.050781 10.457031 26.789062 10.199219 26.582031 C 9.730469 26.203125 9.753906 24.496094 10.226562 24.320312 C 10.488281 24.226562 10.582031 23.863281 10.558594 23.085938 C 10.515625 21.613281 10.753906 21.117188 12.890625 18.070312 C 14.148438 16.292969 15.054688 15.269531 15.730469 14.855469 C 16.273438 14.523438 17.351562 13.664062 18.117188 12.957031 C 19.378906 11.789062 19.585938 11.679688 20.3125 11.8125 C 20.882812 11.917969 21.269531 11.835938 21.6875 11.527344 C 22.613281 10.835938 24.070312 10.058594 24.4375 10.058594 C 24.835938 10.058594 27.113281 8.785156 27.808594 8.171875 C 28.605469 7.472656 31.691406 5.988281 32.175781 6.082031 C 32.421875 6.125 32.660156 6.40625 32.703125 6.691406 C 32.742188 6.988281 32.851562 7.226562 32.941406 7.226562 C 33.027344 7.226562 33.863281 6.863281 34.789062 6.417969 C 35.71875 5.984375 37.6875 5.289062 39.164062 4.882812 C 42.054688 4.089844 42.8125 4.125 43.335938 5.085938 C 43.570312 5.515625 43.835938 5.566406 45.769531 5.566406 C 48.011719 5.566406 49.164062 5.902344 49.445312 6.621094 C 49.527344 6.820312 50.296875 7.3125 51.164062 7.710938 C 52.445312 8.308594 52.734375 8.539062 52.734375 9 C 52.734375 9.351562 53.011719 9.742188 53.472656 10.070312 C 54.539062 10.820312 54.347656 11.429688 52.734375 12.355469 C 52.011719 12.773438 51.246094 13.214844 51.050781 13.335938 C 50.757812 13.511719 50.8125 13.609375 51.351562 13.851562 C 51.714844 14.015625 52.015625 14.308594 52.015625 14.5 C 52.015625 15.011719 49.945312 17.753906 49.125 18.328125 C 48.253906 18.9375 48.238281 19.199219 48.96875 21.300781 C 49.28125 22.199219 49.78125 24 50.082031 25.296875 C 50.378906 26.597656 50.824219 28.355469 51.082031 29.199219 C 51.328125 30.039062 51.707031 31.742188 51.917969 32.976562 C 52.597656 36.886719 52.027344 39.386719 49.855469 42.058594 C 48.394531 43.847656 44.917969 47.144531 42.890625 48.652344 L 41.355469 49.796875 L 41.496094 50.976562 C 41.609375 51.886719 41.835938 52.375 42.511719 53.105469 C 43.5625 54.242188 45.511719 58.082031 45.511719 59.011719 L 45.511719 59.675781 L 25.96875 59.675781 Z M 38.78125 33.242188 C 39.109375 32.910156 39.378906 32.339844 39.378906 31.988281 C 39.378906 31.636719 39.109375 31.066406 38.78125 30.734375 C 37.078125 29.011719 34.582031 31.5 36.230469 33.28125 C 36.9375 34.042969 38 34.027344 38.78125 33.242188 Z M 38.78125 33.242188 "/>
</g>
</svg>
