<svg xmlns="http://www.w3.org/2000/svg" xmlns:xlink="http://www.w3.org/1999/xlink" width="64px" height="64px" viewBox="0 0 64 64" version="1.1">
<defs>
<linearGradient id="linear0" gradientUnits="userSpaceOnUse" x1="0" y1="0" x2="0" y2="1" gradientTransform="matrix(55.351351,0,0,55.351351,4.324324,4.324324)">
<stop offset="0" style="stop-color:#05f7ff;stop-opacity:1;"/>
<stop offset="0.5" style="stop-color:#dddddd;stop-opacity:1;"/>
<stop offset="1" style="stop-color:#e6ff05;stop-opacity:1;"/>
</linearGradient>
</defs>
<g id="surface1">
<path style=" stroke:none;fill-rule:nonzero;fill:url(#linear0);" d="M 13.820312 4.324219 C 1.160156 16.988281 1.160156 37.515625 13.820312 50.179688 C 26.484375 62.839844 47.011719 62.839844 59.675781 50.179688 L 54.582031 45.085938 C 44.730469 54.933594 28.765625 54.933594 18.917969 45.085938 C 9.070312 35.234375 9.070312 19.269531 18.917969 9.417969 Z M 21.402344 12.160156 C 18.503906 15.585938 16.746094 19.828125 16.375 24.300781 L 33.542969 24.300781 Z M 16.347656 27.90625 C 16.730469 32.382812 18.496094 36.625 21.402344 40.050781 L 33.542969 27.90625 Z M 36.09375 30.457031 L 23.945312 42.597656 C 27.375 45.496094 31.621094 47.246094 36.09375 47.621094 Z M 39.699219 30.457031 L 39.699219 47.652344 C 44.171875 47.269531 48.414062 45.503906 51.839844 42.597656 Z M 39.699219 30.457031 "/>
</g>
</svg>
