<svg xmlns="http://www.w3.org/2000/svg" xmlns:xlink="http://www.w3.org/1999/xlink" width="64px" height="64px" viewBox="0 0 64 64" version="1.1">
<defs>
<linearGradient id="linear0" gradientUnits="userSpaceOnUse" x1="0" y1="0" x2="0" y2="1" gradientTransform="matrix(55.351351,0,0,55.351351,4.324324,4.324324)">
<stop offset="0" style="stop-color:#00a2ff;stop-opacity:1;"/>
<stop offset="0.5" style="stop-color:#dddddd;stop-opacity:1;"/>
<stop offset="1" style="stop-color:#00ffae;stop-opacity:1;"/>
</linearGradient>
</defs>
<g id="surface1">
<path style=" stroke:none;fill-rule:evenodd;fill:url(#linear0);" d="M 4.324219 14.703125 C 4.324219 8.972656 8.972656 4.324219 14.703125 4.324219 C 20.433594 4.324219 25.082031 8.972656 25.082031 14.703125 C 25.082031 20.433594 20.433594 25.082031 14.703125 25.082031 C 8.972656 25.082031 4.324219 20.433594 4.324219 14.703125 Z M 38.917969 32 C 38.917969 26.269531 43.566406 21.621094 49.296875 21.621094 C 55.027344 21.621094 59.675781 26.269531 59.675781 32 C 59.675781 37.730469 55.027344 42.378906 49.296875 42.378906 C 43.566406 42.378906 38.917969 37.730469 38.917969 32 Z M 4.324219 49.296875 C 4.324219 43.566406 8.972656 38.917969 14.703125 38.917969 C 20.433594 38.917969 25.082031 43.566406 25.082031 49.296875 C 25.082031 55.027344 20.433594 59.675781 14.703125 59.675781 C 8.972656 59.675781 4.324219 55.027344 4.324219 49.296875 Z M 4.324219 49.296875 "/>
</g>
</svg>
