<svg xmlns="http://www.w3.org/2000/svg" xmlns:xlink="http://www.w3.org/1999/xlink" width="64px" height="64px" viewBox="0 0 64 64" version="1.1">
<g id="surface1">
<path style="fill:none;stroke-width:0.529;stroke-linecap:butt;stroke-linejoin:miter;stroke:rgb(0%,0%,0%);stroke-opacity:0.059;stroke-miterlimit:4;" d="M 15.610174 288.530513 C 15.610174 292.475188 12.411175 295.674187 8.4665 295.674187 C 4.521825 295.674187 1.322826 292.475188 1.322826 288.530513 C 1.322826 284.584643 4.521825 281.386839 8.4665 281.386839 C 12.411175 281.386839 15.610174 284.584643 15.610174 288.530513 Z M 15.610174 288.530513 " transform="matrix(3.268845,0,0,3.268845,4.324324,-911.18106)"/>
<path style=" stroke:none;fill-rule:nonzero;fill:rgb(100%,100%,100%);fill-opacity:1;" d="M 55.351562 31.980469 C 55.351562 44.875 44.894531 55.332031 32 55.332031 C 19.105469 55.332031 8.648438 44.875 8.648438 31.980469 C 8.648438 19.082031 19.105469 8.628906 32 8.628906 C 44.894531 8.628906 55.351562 19.082031 55.351562 31.980469 Z M 55.351562 31.980469 "/>
<path style=" stroke:none;fill-rule:nonzero;fill:rgb(100%,100%,100%);fill-opacity:1;" d="M 55.351562 31.980469 C 55.351562 44.875 44.894531 55.332031 32 55.332031 C 19.105469 55.332031 8.648438 44.875 8.648438 31.980469 C 8.648438 19.082031 19.105469 8.628906 32 8.628906 C 44.894531 8.628906 55.351562 19.082031 55.351562 31.980469 Z M 55.351562 31.980469 "/>
<path style=" stroke:none;fill-rule:nonzero;fill:rgb(100%,33.333334%,33.333334%);fill-opacity:1;" d="M 31.511719 17.300781 C 27.789062 17.421875 24.242188 18.957031 21.605469 21.59375 C 16.375 26.835938 15.863281 35.148438 20.40625 40.992188 L 23.492188 37.90625 C 20.628906 33.789062 21.121094 28.207031 24.664062 24.652344 C 27.492188 21.832031 31.691406 20.886719 35.460938 22.21875 L 35.460938 25.9375 L 41.007812 20.386719 C 38.300781 18.285156 34.941406 17.191406 31.511719 17.300781 Z M 31.511719 17.300781 "/>
<path style=" stroke:none;fill-rule:nonzero;fill:rgb(100%,50.196081%,50.196081%);fill-opacity:1;" d="M 43.597656 22.988281 L 40.511719 26.074219 C 43.375 30.195312 42.878906 35.773438 39.335938 39.328125 C 36.507812 42.148438 32.308594 43.09375 28.539062 41.761719 L 28.539062 38.042969 L 22.992188 43.589844 C 28.839844 48.132812 37.15625 47.617188 42.394531 42.386719 C 47.625 37.144531 48.136719 28.835938 43.597656 22.988281 Z M 43.597656 22.988281 "/>
</g>
</svg>
