<svg xmlns="http://www.w3.org/2000/svg" xmlns:xlink="http://www.w3.org/1999/xlink" width="64px" height="64px" viewBox="0 0 64 64" version="1.1">
<g id="surface1">
<path style=" stroke:none;fill-rule:nonzero;fill:rgb(25.882354%,25.882354%,25.882354%);fill-opacity:1;" d="M 16.433594 9.511719 L 47.566406 9.511719 C 51.386719 9.511719 54.488281 12.613281 54.488281 16.433594 L 54.488281 47.566406 C 54.488281 51.386719 51.386719 54.488281 47.566406 54.488281 L 16.433594 54.488281 C 12.613281 54.488281 9.511719 51.386719 9.511719 47.566406 L 9.511719 16.433594 C 9.511719 12.613281 12.613281 9.511719 16.433594 9.511719 Z M 16.433594 9.511719 "/>
<path style=" stroke:none;fill-rule:nonzero;fill:rgb(40.000001%,73.333335%,41.568628%);fill-opacity:1;" d="M 47.566406 32 C 47.566406 40.597656 40.597656 47.566406 32 47.566406 C 23.402344 47.566406 16.433594 40.597656 16.433594 32 C 16.433594 23.402344 23.402344 16.433594 32 16.433594 C 40.597656 16.433594 47.566406 23.402344 47.566406 32 Z M 47.566406 32 "/>
<path style=" stroke:none;fill-rule:nonzero;fill:rgb(98.039216%,98.039216%,98.039216%);fill-opacity:1;" d="M 28.539062 23.351562 L 28.539062 32 L 23.351562 32 L 32 40.648438 L 40.648438 32 L 35.460938 32 L 35.460938 23.351562 Z M 28.539062 23.351562 "/>
</g>
</svg>
