<svg xmlns="http://www.w3.org/2000/svg" xmlns:xlink="http://www.w3.org/1999/xlink" width="64px" height="64px" viewBox="0 0 64 64" version="1.1">
<defs>
<linearGradient id="linear0" gradientUnits="userSpaceOnUse" x1="0" y1="0" x2="0" y2="1" gradientTransform="matrix(55.351351,0,0,55.351351,4.324324,4.324324)">
<stop offset="0" style="stop-color:#05f7ff;stop-opacity:1;"/>
<stop offset="0.5" style="stop-color:#dddddd;stop-opacity:1;"/>
<stop offset="1" style="stop-color:#e6ff05;stop-opacity:1;"/>
</linearGradient>
<linearGradient id="linear1" gradientUnits="userSpaceOnUse" x1="0" y1="0" x2="0" y2="1" gradientTransform="matrix(37.77027,0,0,27.905405,13.112613,18.058558)">
<stop offset="0" style="stop-color:#05f7ff;stop-opacity:1;"/>
<stop offset="0.5" style="stop-color:#dddddd;stop-opacity:1;"/>
<stop offset="1" style="stop-color:#e6ff05;stop-opacity:1;"/>
</linearGradient>
</defs>
<g id="surface1">
<path style=" stroke:none;fill-rule:nonzero;fill:url(#linear0);" d="M 32.5 4.324219 C 31.511719 4.324219 30.539062 4.378906 29.589844 4.472656 C 15.433594 5.699219 4.324219 17.550781 4.324219 32.011719 C 4.324219 47.289062 16.714844 59.675781 32 59.675781 C 47.285156 59.675781 59.675781 47.289062 59.675781 32.011719 C 59.675781 16.957031 47.636719 4.710938 32.652344 4.363281 C 46.324219 4.710938 57.296875 15.890625 57.296875 29.636719 C 57.296875 30.421875 57.261719 31.203125 57.1875 31.972656 C 56.011719 44.839844 45.179688 54.917969 32 54.917969 C 18.820312 54.917969 6.8125 44.894531 6.8125 31.972656 C 6.8125 19.050781 19.320312 9.351562 32.5 9.351562 Z M 29.539062 4.476562 C 28.847656 4.550781 28.171875 4.652344 27.511719 4.769531 C 28.175781 4.648438 28.847656 4.542969 29.539062 4.476562 Z M 27.03125 4.839844 C 26.648438 4.917969 26.285156 5.03125 25.90625 5.121094 C 26.285156 5.027344 26.648438 4.917969 27.03125 4.839844 Z M 27.03125 4.839844 "/>
<path style=" stroke:none;fill-rule:nonzero;fill:url(#linear1);" d="M 25.1875 18.058594 C 24.792969 18.058594 24.460938 18.476562 24.460938 18.988281 L 24.460938 45.039062 C 24.460938 45.550781 24.792969 45.960938 25.1875 45.960938 C 25.585938 45.960938 25.914062 45.550781 25.914062 45.039062 L 25.914062 18.988281 C 25.914062 18.476562 25.585938 18.058594 25.1875 18.058594 Z M 43.351562 18.542969 C 42.957031 18.542969 42.632812 18.960938 42.632812 19.472656 L 42.632812 44.558594 C 42.632812 45.070312 42.957031 45.488281 43.351562 45.488281 C 43.746094 45.488281 44.070312 45.070312 44.070312 44.558594 L 44.070312 19.460938 C 44.070312 18.957031 43.746094 18.542969 43.351562 18.542969 Z M 20.648438 20.214844 C 20.253906 20.214844 19.921875 20.632812 19.921875 21.136719 L 19.921875 42.890625 C 19.921875 43.402344 20.253906 43.8125 20.648438 43.8125 C 21.042969 43.8125 21.375 43.402344 21.375 42.890625 L 21.375 21.136719 C 21.375 20.632812 21.042969 20.214844 20.648438 20.214844 Z M 41.082031 21.742188 C 40.6875 21.742188 40.363281 22.160156 40.363281 22.671875 L 40.363281 41.355469 C 40.363281 41.867188 40.6875 42.285156 41.082031 42.285156 C 41.476562 42.285156 41.800781 41.867188 41.800781 41.355469 L 41.800781 22.671875 C 41.800781 22.160156 41.476562 21.742188 41.082031 21.742188 Z M 22.917969 22.3125 C 22.523438 22.3125 22.191406 22.726562 22.191406 23.238281 L 22.191406 40.796875 C 22.191406 41.308594 22.523438 41.714844 22.917969 41.714844 C 23.3125 41.714844 23.644531 41.308594 23.644531 40.796875 L 23.644531 23.238281 C 23.644531 22.726562 23.3125 22.3125 22.917969 22.3125 Z M 18.378906 23.257812 C 17.984375 23.257812 17.652344 23.664062 17.652344 24.175781 L 17.652344 39.851562 C 17.652344 40.363281 17.984375 40.773438 18.378906 40.773438 C 18.773438 40.773438 19.105469 40.363281 19.105469 39.851562 L 19.105469 24.175781 C 19.105469 23.664062 18.773438 23.257812 18.378906 23.257812 Z M 45.621094 24.914062 C 45.226562 24.914062 44.902344 25.328125 44.902344 25.835938 L 44.902344 38.1875 C 44.902344 38.699219 45.226562 39.117188 45.621094 39.117188 C 46.015625 39.117188 46.339844 38.699219 46.339844 38.1875 L 46.339844 25.835938 C 46.339844 25.328125 46.015625 24.914062 45.621094 24.914062 Z M 38.8125 25.175781 C 38.414062 25.175781 38.089844 25.589844 38.085938 26.105469 L 38.085938 37.921875 C 38.089844 38.4375 38.414062 38.851562 38.8125 38.851562 C 39.207031 38.851562 39.53125 38.4375 39.53125 37.921875 L 39.53125 26.105469 C 39.53125 25.589844 39.207031 25.175781 38.8125 25.175781 Z M 27.460938 25.742188 C 27.0625 25.742188 26.734375 26.160156 26.734375 26.671875 L 26.734375 37.355469 C 26.734375 37.867188 27.0625 38.285156 27.460938 38.285156 C 27.855469 38.285156 28.1875 37.867188 28.1875 37.355469 L 28.1875 26.671875 C 28.1875 26.160156 27.855469 25.742188 27.460938 25.742188 Z M 13.835938 27.269531 C 13.441406 27.269531 13.113281 27.6875 13.113281 28.191406 L 13.113281 35.835938 C 13.113281 36.339844 13.441406 36.757812 13.835938 36.757812 C 14.234375 36.757812 14.5625 36.339844 14.5625 35.835938 L 14.5625 28.191406 C 14.5625 27.6875 14.234375 27.269531 13.835938 27.269531 Z M 34.269531 27.914062 C 33.875 27.914062 33.550781 28.328125 33.542969 28.835938 L 33.542969 35.1875 C 33.550781 35.699219 33.875 36.113281 34.269531 36.113281 C 34.664062 36.113281 34.996094 35.699219 34.996094 35.1875 L 34.996094 28.835938 C 34.996094 28.328125 34.664062 27.914062 34.269531 27.914062 Z M 29.730469 28.050781 C 29.335938 28.050781 29.003906 28.460938 29.003906 28.972656 L 29.003906 35.054688 C 29.003906 35.5625 29.335938 35.976562 29.730469 35.976562 C 30.125 35.976562 30.457031 35.570312 30.457031 35.058594 L 30.457031 28.972656 C 30.457031 28.460938 30.125 28.050781 29.730469 28.050781 Z M 16.109375 29.472656 C 15.710938 29.472656 15.382812 29.886719 15.382812 30.402344 L 15.382812 33.636719 C 15.382812 34.144531 15.710938 34.554688 16.109375 34.554688 C 16.503906 34.554688 16.835938 34.144531 16.835938 33.636719 L 16.835938 30.402344 C 16.835938 29.886719 16.503906 29.472656 16.109375 29.472656 Z M 47.890625 29.472656 C 47.496094 29.472656 47.171875 29.886719 47.171875 30.402344 L 47.171875 33.636719 C 47.171875 34.144531 47.496094 34.554688 47.890625 34.554688 C 48.289062 34.554688 48.613281 34.144531 48.613281 33.636719 L 48.613281 30.402344 C 48.613281 29.886719 48.289062 29.472656 47.890625 29.472656 Z M 32 30.238281 C 31.605469 30.238281 31.273438 30.652344 31.273438 31.164062 L 31.273438 32.867188 C 31.273438 33.382812 31.605469 33.789062 32 33.789062 C 32.394531 33.789062 32.726562 33.382812 32.726562 32.867188 L 32.726562 31.164062 C 32.726562 30.652344 32.394531 30.238281 32 30.238281 Z M 36.539062 30.238281 C 36.144531 30.238281 35.8125 30.652344 35.8125 31.164062 L 35.8125 32.867188 C 35.8125 33.382812 36.144531 33.789062 36.539062 33.789062 C 36.9375 33.789062 37.265625 33.382812 37.265625 32.867188 L 37.265625 31.164062 C 37.265625 30.652344 36.9375 30.238281 36.539062 30.238281 Z M 50.164062 30.554688 C 49.765625 30.554688 49.441406 30.96875 49.441406 31.484375 L 49.441406 32.542969 C 49.441406 33.058594 49.765625 33.472656 50.164062 33.472656 C 50.558594 33.472656 50.882812 33.058594 50.882812 32.542969 L 50.882812 31.484375 C 50.882812 30.96875 50.558594 30.554688 50.164062 30.554688 Z M 50.164062 30.554688 "/>
</g>
</svg>
