<svg xmlns="http://www.w3.org/2000/svg" xmlns:xlink="http://www.w3.org/1999/xlink" width="64px" height="64px" viewBox="0 0 64 64" version="1.1">
<defs>
<linearGradient id="linear0" gradientUnits="userSpaceOnUse" x1="0" y1="0" x2="0" y2="1" gradientTransform="matrix(55.351351,0,0,48.432432,4.324324,7.783784)">
<stop offset="0" style="stop-color:#00fff2;stop-opacity:1;"/>
<stop offset="0.5" style="stop-color:#dddddd;stop-opacity:1;"/>
<stop offset="1" style="stop-color:#0062ff;stop-opacity:1;"/>
</linearGradient>
</defs>
<g id="surface1">
<path style=" stroke:none;fill-rule:nonzero;fill:url(#linear0);" d="M 18.136719 7.785156 C 13.789062 7.835938 10.605469 7.675781 8 9.117188 C 6.699219 9.835938 5.671875 11.050781 5.105469 12.566406 C 4.53125 14.085938 4.324219 15.886719 4.324219 18.164062 L 4.324219 45.835938 C 4.324219 48.113281 4.53125 49.914062 5.105469 51.433594 C 5.671875 52.949219 6.699219 54.164062 8 54.882812 C 10.605469 56.320312 13.789062 56.164062 18.136719 56.214844 L 45.855469 56.214844 C 50.210938 56.164062 53.394531 56.324219 56 54.882812 C 57.300781 54.164062 58.328125 52.949219 58.894531 51.433594 C 59.46875 49.914062 59.675781 48.113281 59.675781 45.835938 L 59.675781 18.164062 C 59.675781 15.886719 59.46875 14.085938 58.902344 12.566406 C 58.328125 11.050781 57.300781 9.835938 56 9.117188 C 53.394531 7.679688 50.210938 7.835938 45.855469 7.785156 Z M 18.164062 11.242188 L 45.835938 11.242188 C 50.191406 11.292969 53.058594 11.449219 54.324219 12.148438 C 54.960938 12.5 55.324219 12.882812 55.664062 13.785156 C 56 14.6875 56.214844 16.113281 56.214844 18.164062 L 56.214844 45.835938 C 56.214844 47.886719 56 49.3125 55.664062 50.214844 C 55.324219 51.117188 54.960938 51.5 54.324219 51.851562 C 53.058594 52.550781 50.191406 52.707031 45.835938 52.757812 L 18.164062 52.757812 C 13.808594 52.707031 10.9375 52.550781 9.671875 51.851562 C 9.039062 51.5 8.675781 51.117188 8.335938 50.214844 C 8 49.3125 7.785156 47.886719 7.785156 45.835938 L 7.785156 18.164062 C 7.785156 16.113281 8 14.6875 8.335938 13.785156 C 8.675781 12.882812 9.039062 12.5 9.671875 12.148438 C 10.9375 11.449219 13.808594 11.292969 18.164062 11.242188 Z M 18.164062 26.8125 C 15.296875 26.8125 12.972656 29.136719 12.972656 32 C 12.972656 34.863281 15.296875 37.1875 18.164062 37.1875 C 21.027344 37.1875 23.351562 34.863281 23.351562 32 C 23.351562 29.136719 21.027344 26.8125 18.164062 26.8125 Z M 32 26.8125 C 29.136719 26.8125 26.8125 29.136719 26.8125 32 C 26.8125 34.863281 29.136719 37.1875 32 37.1875 C 34.863281 37.1875 37.1875 34.863281 37.1875 32 C 37.1875 29.136719 34.863281 26.8125 32 26.8125 Z M 45.835938 26.8125 C 42.972656 26.8125 40.648438 29.136719 40.648438 32 C 40.648438 34.863281 42.972656 37.1875 45.835938 37.1875 C 48.703125 37.1875 51.027344 34.863281 51.027344 32 C 51.027344 29.136719 48.703125 26.8125 45.835938 26.8125 Z M 45.835938 26.8125 "/>
</g>
</svg>
