<svg xmlns="http://www.w3.org/2000/svg" xmlns:xlink="http://www.w3.org/1999/xlink" width="64px" height="64px" viewBox="0 0 64 64" version="1.1">
<defs>
<linearGradient id="linear0" gradientUnits="userSpaceOnUse" x1="0" y1="0" x2="0" y2="1" gradientTransform="matrix(38.414416,0,0,37.554054,12.761261,13.337837)">
<stop offset="0" style="stop-color:#ff8963;stop-opacity:1;"/>
<stop offset="0.5" style="stop-color:#dddddd;stop-opacity:1;"/>
<stop offset="1" style="stop-color:#0F6FFF;stop-opacity:1;"/>
</linearGradient>
<linearGradient id="linear1" gradientUnits="userSpaceOnUse" x1="0" y1="0" x2="0" y2="1" gradientTransform="matrix(14.396395,0,0,16.22072,26.554054,24.040541)">
<stop offset="0" style="stop-color:#ff8963;stop-opacity:1;"/>
<stop offset="0.5" style="stop-color:#dddddd;stop-opacity:1;"/>
<stop offset="1" style="stop-color:#0F6FFF;stop-opacity:1;"/>
</linearGradient>
<linearGradient id="linear2" gradientUnits="userSpaceOnUse" x1="0" y1="0" x2="0" y2="1" gradientTransform="matrix(55.351351,0,0,55.351351,4.324324,4.324324)">
<stop offset="0" style="stop-color:#ff8963;stop-opacity:1;"/>
<stop offset="0.5" style="stop-color:#dddddd;stop-opacity:1;"/>
<stop offset="1" style="stop-color:#0F6FFF;stop-opacity:1;"/>
</linearGradient>
</defs>
<g id="surface1">
<path style=" stroke:none;fill-rule:nonzero;fill:url(#linear0);" d="M 30.78125 13.335938 C 30.113281 13.335938 29.582031 13.855469 29.582031 14.511719 L 29.582031 19.203125 C 29.582031 19.851562 30.113281 20.378906 30.78125 20.378906 L 33.1875 20.378906 C 33.847656 20.378906 34.378906 19.851562 34.378906 19.203125 L 34.378906 14.511719 C 34.378906 13.855469 33.847656 13.335938 33.1875 13.335938 Z M 43.835938 17.671875 C 43.53125 17.671875 43.21875 17.785156 42.988281 18.011719 L 39.59375 21.328125 C 39.125 21.792969 39.125 22.53125 39.59375 22.996094 L 41.292969 24.652344 C 41.761719 25.117188 42.515625 25.117188 42.988281 24.652344 L 46.382812 21.328125 C 46.855469 20.867188 46.855469 20.136719 46.382812 19.675781 L 44.6875 18.011719 C 44.445312 17.785156 44.144531 17.671875 43.835938 17.671875 Z M 20.078125 17.679688 C 19.765625 17.679688 19.460938 17.796875 19.230469 18.027344 L 17.527344 19.6875 C 17.058594 20.148438 17.058594 20.890625 17.527344 21.351562 L 20.921875 24.671875 C 21.394531 25.132812 22.152344 25.132812 22.621094 24.671875 L 24.320312 23.003906 C 24.789062 22.542969 24.789062 21.8125 24.320312 21.351562 L 20.921875 18.027344 C 20.6875 17.796875 20.382812 17.679688 20.078125 17.679688 Z M 13.96875 29.785156 C 13.300781 29.785156 12.761719 30.3125 12.761719 30.960938 L 12.761719 33.3125 C 12.761719 33.960938 13.300781 34.484375 13.96875 34.484375 L 18.769531 34.484375 C 19.4375 34.484375 19.972656 33.960938 19.972656 33.3125 L 19.972656 30.960938 C 19.972656 30.3125 19.4375 29.785156 18.769531 29.785156 Z M 45.171875 29.785156 C 44.503906 29.785156 43.972656 30.3125 43.972656 30.960938 L 43.972656 33.3125 C 43.972656 33.960938 44.503906 34.484375 45.171875 34.484375 L 49.972656 34.484375 C 50.636719 34.484375 51.175781 33.960938 51.175781 33.3125 L 51.175781 30.960938 C 51.175781 30.3125 50.636719 29.785156 49.972656 29.785156 Z M 21.769531 39.238281 C 21.460938 39.238281 21.152344 39.351562 20.917969 39.582031 L 17.527344 42.90625 C 17.058594 43.363281 17.058594 44.097656 17.527344 44.558594 L 19.21875 46.21875 C 19.691406 46.6875 20.449219 46.6875 20.917969 46.21875 L 24.320312 42.90625 C 24.789062 42.445312 24.789062 41.703125 24.320312 41.242188 L 22.621094 39.582031 C 22.386719 39.351562 22.078125 39.238281 21.769531 39.238281 Z M 42.144531 39.257812 C 41.835938 39.257812 41.527344 39.367188 41.292969 39.605469 L 39.59375 41.261719 C 39.125 41.726562 39.125 42.460938 39.59375 42.917969 L 42.988281 46.242188 C 43.460938 46.703125 44.21875 46.703125 44.6875 46.242188 L 46.382812 44.582031 C 46.855469 44.121094 46.855469 43.378906 46.382812 42.917969 L 42.988281 39.605469 C 42.757812 39.367188 42.449219 39.257812 42.144531 39.257812 Z M 30.78125 43.839844 C 30.113281 43.839844 29.582031 44.367188 29.582031 45.023438 L 29.582031 49.714844 C 29.582031 50.363281 30.113281 50.890625 30.78125 50.890625 L 33.1875 50.890625 C 33.847656 50.890625 34.378906 50.363281 34.378906 49.714844 L 34.378906 45.023438 C 34.378906 44.367188 33.847656 43.839844 33.1875 43.839844 Z M 30.78125 43.839844 "/>
<path style=" stroke:none;fill-rule:nonzero;fill:url(#linear1);" d="M 26.554688 24.039062 L 26.554688 40.261719 L 28.160156 40.261719 C 28.4375 40.261719 28.714844 40.199219 28.960938 40.058594 L 40.199219 33.570312 C 40.699219 33.292969 40.949219 32.71875 40.949219 32.148438 C 40.949219 31.582031 40.699219 31.011719 40.199219 30.730469 L 28.960938 24.242188 C 28.714844 24.105469 28.4375 24.039062 28.160156 24.039062 Z M 26.554688 24.039062 "/>
<path style=" stroke:none;fill-rule:nonzero;fill:url(#linear2);" d="M 32 4.324219 C 16.746094 4.324219 4.324219 16.746094 4.324219 32 C 4.324219 47.253906 16.746094 59.675781 32 59.675781 C 47.253906 59.675781 59.675781 47.253906 59.675781 32 C 59.675781 16.746094 47.253906 4.324219 32 4.324219 Z M 32 8.28125 C 45.117188 8.28125 55.71875 18.882812 55.71875 32 C 55.71875 45.117188 45.117188 55.71875 32 55.71875 C 18.882812 55.71875 8.28125 45.117188 8.28125 32 C 8.28125 18.882812 18.882812 8.28125 32 8.28125 Z M 32 8.28125 "/>
</g>
</svg>
