<svg xmlns="http://www.w3.org/2000/svg" xmlns:xlink="http://www.w3.org/1999/xlink" width="64px" height="64px" viewBox="0 0 64 64" version="1.1">
<defs>
<linearGradient id="linear0" gradientUnits="userSpaceOnUse" x1="0" y1="0" x2="0" y2="1" gradientTransform="matrix(55.351351,0,0,36.900902,4.432432,13.54955)">
<stop offset="0" style="stop-color:#ffae00;stop-opacity:1;"/>
<stop offset="0.5" style="stop-color:#dddddd;stop-opacity:1;"/>
<stop offset="1" style="stop-color:#bf1d1d;stop-opacity:1;"/>
</linearGradient>
</defs>
<g id="surface1">
<path style=" stroke:none;fill-rule:evenodd;fill:url(#linear0);" d="M 32.109375 22.773438 C 37.203125 22.773438 41.335938 26.90625 41.335938 32 C 41.335938 37.09375 37.203125 41.226562 32.109375 41.226562 C 27.011719 41.226562 22.882812 37.09375 22.882812 32 C 22.882812 26.90625 27.011719 22.773438 32.109375 22.773438 Z M 32.109375 19.085938 C 24.972656 19.085938 19.191406 24.863281 19.191406 32 C 19.191406 39.136719 24.972656 44.914062 32.109375 44.914062 C 39.238281 44.914062 45.027344 39.136719 45.027344 32 C 45.027344 24.863281 39.238281 19.085938 32.109375 19.085938 Z M 32.109375 13.550781 C 24.941406 13.550781 18.839844 17.800781 16.214844 23.820312 C 9.550781 24.785156 4.433594 30.296875 4.433594 37.03125 C 4.433594 44.441406 10.625 50.449219 18.269531 50.449219 L 47.679688 50.449219 C 54.363281 50.449219 59.785156 45.191406 59.785156 38.707031 C 59.785156 32.679688 55.109375 27.742188 49.082031 27.070312 C 47.511719 19.378906 40.503906 13.550781 32.109375 13.550781 Z M 26.570312 32 C 26.570312 28.945312 29.054688 26.460938 32.109375 26.460938 C 35.164062 26.460938 37.644531 28.945312 37.644531 32 C 37.644531 35.054688 35.164062 37.539062 32.109375 37.539062 C 29.054688 37.539062 26.570312 35.054688 26.570312 32 Z M 26.570312 32 "/>
</g>
</svg>
