<svg xmlns="http://www.w3.org/2000/svg" xmlns:xlink="http://www.w3.org/1999/xlink" width="64px" height="64px" viewBox="0 0 64 64" version="1.1">
<defs>
<linearGradient id="linear0" gradientUnits="userSpaceOnUse" x1="0" y1="0" x2="0" y2="1" gradientTransform="matrix(42.045044,0,0,55.351351,10.977477,4.324324)">
<stop offset="0" style="stop-color:#00a2ff;stop-opacity:1;"/>
<stop offset="0.5" style="stop-color:#dddddd;stop-opacity:1;"/>
<stop offset="1" style="stop-color:#00ffae;stop-opacity:1;"/>
</linearGradient>
</defs>
<g id="surface1">
<path style=" stroke:none;fill-rule:evenodd;fill:url(#linear0);" d="M 38.636719 38.625 C 37.417969 38.625 36.421875 37.636719 36.421875 36.410156 C 36.429688 35.1875 37.417969 34.199219 38.636719 34.199219 C 39.863281 34.199219 40.851562 35.1875 40.851562 36.414062 C 40.851562 37.636719 39.863281 38.625 38.636719 38.625 Z M 32.421875 26.253906 C 31.917969 11.289062 21.066406 6.539062 17.945312 6.539062 C 16.210938 6.539062 15.402344 7.382812 15.402344 9.191406 C 15.402344 14.726562 18.070312 24.605469 23.097656 29.78125 C 20.789062 32.214844 19.960938 34.972656 19.21875 37.433594 C 18.105469 41.136719 17.136719 44.335938 11.6875 46.445312 C 11.125 46.664062 10.839844 47.28125 11.039062 47.839844 C 11.082031 47.960938 15.363281 59.675781 31.136719 59.675781 C 31.578125 59.675781 32.027344 59.664062 32.488281 59.648438 C 33.082031 59.621094 33.550781 59.136719 33.550781 58.539062 C 33.550781 50.4375 36.054688 50.4375 37.710938 50.4375 C 38.40625 50.4375 39.164062 50.523438 39.96875 50.609375 C 40.851562 50.707031 41.761719 50.800781 42.6875 50.800781 C 46.785156 50.800781 49.28125 48.664062 50.703125 43.878906 C 51.761719 43.539062 53.023438 42.679688 53.023438 40.949219 C 53.023438 39.058594 49.148438 26.761719 32.421875 26.253906 Z M 34.511719 24.152344 C 34.761719 24.179688 35.003906 24.207031 35.257812 24.238281 C 34.652344 9.28125 29.710938 4.324219 27.242188 4.324219 C 26.714844 4.324219 26.238281 4.539062 25.851562 4.941406 C 25.414062 5.40625 25.136719 6.144531 24.957031 6.960938 C 29.203125 9.800781 33.644531 15.144531 34.511719 24.152344 Z M 34.511719 24.152344 "/>
</g>
</svg>
