<svg xmlns="http://www.w3.org/2000/svg" xmlns:xlink="http://www.w3.org/1999/xlink" width="64px" height="64px" viewBox="0 0 64 64" version="1.1">
<defs>
<linearGradient id="linear0" gradientUnits="userSpaceOnUse" x1="0" y1="0" x2="0" y2="1" gradientTransform="matrix(55.351351,0,0,55.351351,4.324324,4.324324)">
<stop offset="0" style="stop-color:#05f7ff;stop-opacity:1;"/>
<stop offset="0.5" style="stop-color:#dddddd;stop-opacity:1;"/>
<stop offset="1" style="stop-color:#e6ff05;stop-opacity:1;"/>
</linearGradient>
</defs>
<g id="surface1">
<path style=" stroke:none;fill-rule:nonzero;fill:url(#linear0);" d="M 32 4.324219 C 16.714844 4.324219 4.324219 16.714844 4.324219 32 C 4.324219 39.339844 7.238281 46.382812 12.429688 51.570312 C 17.617188 56.761719 24.660156 59.675781 32 59.675781 C 47.285156 59.675781 59.675781 47.285156 59.675781 32 C 59.675781 16.714844 47.285156 4.324219 32 4.324219 Z M 32 12.625 C 35.0625 12.625 37.539062 14.851562 37.539062 17.613281 L 37.539062 40.851562 C 37.539062 43.613281 35.0625 45.835938 32 45.835938 C 28.9375 45.835938 26.460938 43.613281 26.460938 40.851562 L 26.460938 17.613281 C 26.460938 14.851562 28.9375 12.625 32 12.625 Z M 15.394531 23.699219 C 18.460938 23.699219 20.929688 26.164062 20.929688 29.234375 L 20.929688 40.300781 C 20.929688 43.367188 18.460938 45.835938 15.394531 45.835938 C 12.328125 45.835938 9.863281 43.367188 9.863281 40.300781 L 9.863281 29.234375 C 9.863281 26.164062 12.328125 23.699219 15.394531 23.699219 Z M 48.605469 23.699219 C 51.671875 23.699219 54.136719 26.164062 54.136719 29.234375 L 54.136719 40.300781 C 54.136719 43.367188 51.671875 45.835938 48.605469 45.835938 C 45.539062 45.835938 43.070312 43.367188 43.070312 40.300781 L 43.070312 29.234375 C 43.070312 26.164062 45.539062 23.699219 48.605469 23.699219 Z M 48.605469 23.699219 "/>
</g>
</svg>
