<svg xmlns="http://www.w3.org/2000/svg" xmlns:xlink="http://www.w3.org/1999/xlink" width="64px" height="64px" viewBox="0 0 64 64" version="1.1">
<defs>
<linearGradient id="linear0" gradientUnits="userSpaceOnUse" x1="0" y1="0" x2="0" y2="1" gradientTransform="matrix(48.432432,0,0,41.513514,7.72973,6.864865)">
<stop offset="0" style="stop-color:#ffae00;stop-opacity:1;"/>
<stop offset="0.5" style="stop-color:#dddddd;stop-opacity:1;"/>
<stop offset="1" style="stop-color:#bf1d1d;stop-opacity:1;"/>
</linearGradient>
<linearGradient id="linear1" gradientUnits="userSpaceOnUse" x1="0" y1="0" x2="0" y2="1" gradientTransform="matrix(27.675676,0,0,27.675676,30.27027,31.567568)">
<stop offset="0" style="stop-color:#ffae00;stop-opacity:1;"/>
<stop offset="0.5" style="stop-color:#dddddd;stop-opacity:1;"/>
<stop offset="1" style="stop-color:#bf1d1d;stop-opacity:1;"/>
</linearGradient>
</defs>
<g id="surface1">
<path style=" stroke:none;fill-rule:nonzero;fill:url(#linear0);" d="M 7.730469 6.863281 L 7.730469 48.378906 L 32.59375 48.378906 L 32.863281 45.027344 L 43.027344 33.621094 C 43.296875 33.734375 43.855469 33.789062 44.703125 33.785156 C 49.386719 36.703125 53.207031 39.117188 56.164062 41.027344 L 56.164062 6.863281 Z M 13.636719 10.324219 L 50.257812 10.324219 L 31.945312 28.636719 Z M 11.1875 12.769531 L 24.796875 26.378906 L 11.1875 42.257812 Z M 52.703125 12.769531 L 52.703125 38.109375 L 44.957031 33.21875 L 39.09375 26.378906 Z M 27.253906 28.835938 L 31.945312 33.527344 L 36.644531 28.835938 L 41.652344 34.675781 L 32.59375 44.917969 L 13.460938 44.917969 Z M 27.253906 28.835938 "/>
<path style=" stroke:none;fill-rule:evenodd;fill:url(#linear1);" d="M 30.269531 45.40625 C 30.269531 37.765625 36.46875 31.566406 44.109375 31.566406 C 51.746094 31.566406 57.945312 37.765625 57.945312 45.40625 C 57.945312 53.042969 51.746094 59.242188 44.109375 59.242188 C 36.46875 59.242188 30.269531 53.042969 30.269531 45.40625 Z M 53.382812 46.945312 L 45.636719 46.945312 L 45.636719 54.671875 L 42.539062 54.671875 L 42.539062 46.945312 L 34.835938 46.945312 L 34.835938 43.863281 L 42.539062 43.863281 L 42.539062 36.136719 L 45.636719 36.136719 L 45.636719 43.863281 L 53.382812 43.863281 Z M 53.382812 46.945312 "/>
</g>
</svg>
