<svg xmlns="http://www.w3.org/2000/svg" xmlns:xlink="http://www.w3.org/1999/xlink" width="64px" height="64px" viewBox="0 0 64 64" version="1.1">
<defs>
<linearGradient id="linear0" gradientUnits="userSpaceOnUse" x1="0" y1="0" x2="0" y2="1" gradientTransform="matrix(55.351351,0,0,41.513514,4.324324,11.243243)">
<stop offset="0" style="stop-color:#00a2ff;stop-opacity:1;"/>
<stop offset="0.5" style="stop-color:#dddddd;stop-opacity:1;"/>
<stop offset="1" style="stop-color:#00ffae;stop-opacity:1;"/>
</linearGradient>
</defs>
<g id="surface1">
<path style=" stroke:none;fill-rule:evenodd;fill:url(#linear0);" d="M 51.375 25.082031 C 50.824219 25.082031 50.40625 25.082031 49.988281 25.21875 L 49.988281 24.386719 C 49.988281 19.40625 45.976562 15.394531 40.996094 15.394531 C 38.644531 15.394531 36.566406 16.363281 34.910156 17.746094 C 32.914062 13.765625 28.847656 11.246094 24.386719 11.242188 C 17.886719 11.242188 12.625 16.5 12.625 23.003906 C 12.625 23.699219 12.769531 24.53125 12.769531 25.21875 C 7.941406 25.800781 4.3125 29.90625 4.324219 34.765625 C 4.324219 40.164062 8.617188 44.457031 14.011719 44.457031 C 14.5625 44.457031 14.976562 44.457031 15.539062 44.3125 C 16.085938 49.023438 20.238281 52.757812 25.082031 52.757812 C 29.375 52.757812 33.109375 49.988281 34.351562 45.976562 C 35.875 47.5 37.949219 48.605469 40.300781 48.605469 C 44.59375 48.605469 48.054688 45.421875 48.605469 41.136719 C 49.4375 41.410156 50.40625 41.6875 51.375 41.6875 C 55.941406 41.6875 59.675781 37.949219 59.675781 33.382812 C 59.675781 28.8125 55.941406 25.082031 51.375 25.082031 Z M 40.027344 23.699219 L 29.089844 34.625 L 23.972656 29.375 L 20.929688 32.414062 L 29.089844 40.578125 L 43.070312 26.742188 Z M 40.027344 23.699219 "/>
</g>
</svg>
