<svg xmlns="http://www.w3.org/2000/svg" xmlns:xlink="http://www.w3.org/1999/xlink" width="64px" height="64px" viewBox="0 0 64 64" version="1.1">
<defs>
<linearGradient id="linear0" gradientUnits="userSpaceOnUse" x1="0" y1="0" x2="0" y2="1" gradientTransform="matrix(55.351351,0,0,35.387388,4.324324,14.306307)">
<stop offset="0" style="stop-color:#05f7ff;stop-opacity:1;"/>
<stop offset="0.5" style="stop-color:#dddddd;stop-opacity:1;"/>
<stop offset="1" style="stop-color:#e6ff05;stop-opacity:1;"/>
</linearGradient>
</defs>
<g id="surface1">
<path style=" stroke:none;fill-rule:evenodd;fill:url(#linear0);" d="M 29.351562 29.367188 C 31.5 29.367188 33.164062 30.011719 34.335938 31.300781 C 35.5 32.589844 36.085938 34.761719 36.085938 37.820312 L 36.085938 46.429688 C 36.085938 47.511719 35.746094 48.328125 35.066406 48.875 C 34.390625 49.417969 33.550781 49.691406 32.539062 49.691406 C 31.53125 49.691406 30.6875 49.417969 30.011719 48.875 C 29.328125 48.328125 28.988281 47.511719 28.988281 46.429688 L 28.988281 37.660156 C 28.988281 36.59375 28.808594 35.851562 28.433594 35.429688 C 28.0625 35 27.515625 34.789062 26.800781 34.789062 C 25.867188 34.789062 25.125 35.121094 24.566406 35.785156 C 24.011719 36.449219 23.730469 37.363281 23.730469 38.539062 L 23.730469 46.429688 C 23.730469 47.511719 23.402344 48.328125 22.734375 48.875 C 22.070312 49.417969 21.21875 49.691406 20.1875 49.691406 C 19.175781 49.691406 18.335938 49.417969 17.652344 48.875 C 16.976562 48.328125 16.636719 47.511719 16.636719 46.429688 L 16.636719 37.660156 C 16.636719 36.59375 16.449219 35.851562 16.082031 35.429688 C 15.707031 35 15.164062 34.789062 14.445312 34.789062 C 13.515625 34.789062 12.78125 35.121094 12.234375 35.785156 C 11.6875 36.449219 11.414062 37.363281 11.414062 38.539062 L 11.414062 46.429688 C 11.414062 47.511719 11.078125 48.328125 10.402344 48.875 C 9.726562 49.417969 8.878906 49.691406 7.867188 49.691406 C 6.863281 49.691406 6.015625 49.417969 5.339844 48.875 C 4.664062 48.328125 4.324219 47.511719 4.324219 46.429688 L 4.324219 32.636719 C 4.324219 31.597656 4.675781 30.8125 5.378906 30.265625 C 6.085938 29.71875 6.929688 29.449219 7.910156 29.449219 C 8.839844 29.449219 9.617188 29.699219 10.242188 30.1875 C 10.863281 30.679688 11.1875 31.386719 11.21875 32.320312 C 12.515625 30.351562 14.511719 29.367188 17.199219 29.367188 C 20.039062 29.367188 21.9375 30.527344 22.894531 32.835938 C 23.558594 31.773438 24.449219 30.929688 25.566406 30.308594 C 26.679688 29.679688 27.941406 29.367188 29.351562 29.367188 Z M 57.324219 21.679688 C 57.988281 21.679688 58.542969 21.90625 58.996094 22.355469 C 59.449219 22.808594 59.675781 23.363281 59.675781 24.03125 C 59.675781 24.691406 59.449219 25.257812 58.996094 25.726562 C 58.542969 26.1875 57.988281 26.417969 57.324219 26.417969 L 52.300781 26.417969 L 52.300781 31.402344 C 52.300781 32.066406 52.085938 32.621094 51.644531 33.078125 C 51.207031 33.527344 50.644531 33.753906 49.949219 33.753906 C 49.289062 33.753906 48.730469 33.527344 48.28125 33.078125 C 47.828125 32.621094 47.605469 32.066406 47.605469 31.402344 L 47.605469 26.417969 L 42.582031 26.417969 C 41.914062 26.417969 41.355469 26.1875 40.910156 25.726562 C 40.457031 25.257812 40.230469 24.691406 40.230469 24.03125 C 40.230469 23.363281 40.457031 22.808594 40.910156 22.355469 C 41.355469 21.90625 41.914062 21.679688 42.582031 21.679688 L 47.605469 21.679688 L 47.605469 16.660156 C 47.605469 15.988281 47.828125 15.4375 48.28125 14.984375 C 48.730469 14.53125 49.289062 14.308594 49.949219 14.308594 C 50.617188 14.308594 51.175781 14.53125 51.625 14.984375 C 52.078125 15.4375 52.300781 15.988281 52.300781 16.660156 L 52.300781 21.679688 Z M 57.324219 21.679688 "/>
</g>
</svg>
