<svg xmlns="http://www.w3.org/2000/svg" xmlns:xlink="http://www.w3.org/1999/xlink" width="64px" height="64px" viewBox="0 0 64 64" version="1.1">
<defs>
<linearGradient id="linear0" gradientUnits="userSpaceOnUse" x1="0" y1="0" x2="0" y2="1" gradientTransform="matrix(28.175676,0,0,40.414416,25.135135,4.315315)">
<stop offset="0" style="stop-color:#ffae00;stop-opacity:1;"/>
<stop offset="0.5" style="stop-color:#dddddd;stop-opacity:1;"/>
<stop offset="1" style="stop-color:#6600ff;stop-opacity:1;"/>
</linearGradient>
<linearGradient id="linear1" gradientUnits="userSpaceOnUse" x1="0" y1="0" x2="0" y2="1" gradientTransform="matrix(55.346848,0,0,15.013514,4.400901,44.662162)">
<stop offset="0" style="stop-color:#ffae00;stop-opacity:1;"/>
<stop offset="0.5" style="stop-color:#dddddd;stop-opacity:1;"/>
<stop offset="1" style="stop-color:#6600ff;stop-opacity:1;"/>
</linearGradient>
</defs>
<g id="surface1">
<path style=" stroke:none;fill-rule:nonzero;fill:url(#linear0);" d="M 39.269531 4.3125 C 31.566406 4.3125 25.136719 10.308594 25.136719 17.761719 C 25.136719 23.144531 27.6875 29.46875 30.515625 34.699219 C 31.9375 37.3125 33.433594 39.621094 34.796875 41.355469 C 35.484375 42.226562 36.121094 42.949219 36.761719 43.515625 C 37.40625 44.089844 37.949219 44.636719 39.136719 44.71875 C 40.433594 44.820312 41.082031 44.214844 41.742188 43.648438 C 42.40625 43.082031 43.050781 42.355469 43.730469 41.488281 C 45.09375 39.742188 46.578125 37.40625 47.984375 34.757812 C 50.785156 29.460938 53.3125 23.054688 53.3125 17.761719 C 53.3125 10.324219 46.972656 4.3125 39.269531 4.3125 Z M 39.269531 8 C 45.082031 8 49.625 12.414062 49.625 17.761719 C 49.625 21.792969 47.363281 28.050781 44.71875 33.03125 C 43.40625 35.527344 42 37.730469 40.828125 39.226562 C 40.246094 39.96875 39.710938 40.539062 39.351562 40.847656 C 38.988281 41.152344 38.761719 41.011719 39.40625 41.054688 C 39.933594 41.09375 39.605469 41.117188 39.214844 40.769531 C 38.828125 40.421875 38.285156 39.835938 37.6875 39.082031 C 36.503906 37.570312 35.085938 35.402344 33.757812 32.945312 C 31.09375 28.039062 28.8125 21.890625 28.8125 17.761719 C 28.8125 12.4375 33.460938 8 39.269531 8 Z M 39.175781 13.433594 C 36.488281 13.433594 34.265625 15.648438 34.265625 18.335938 C 34.265625 21.027344 36.488281 23.246094 39.175781 23.246094 C 41.863281 23.246094 44.089844 21.027344 44.089844 18.335938 C 44.089844 15.648438 41.863281 13.433594 39.175781 13.433594 Z M 39.175781 17.113281 C 39.878906 17.113281 40.40625 17.636719 40.40625 18.335938 C 40.40625 19.039062 39.878906 19.566406 39.175781 19.566406 C 38.472656 19.566406 37.941406 19.039062 37.941406 18.335938 C 37.941406 17.636719 38.472656 17.113281 39.175781 17.113281 Z M 39.175781 17.113281 "/>
<path style=" stroke:none;fill-rule:nonzero;fill:url(#linear1);" d="M 57.890625 44.664062 C 57.5625 44.664062 57.242188 44.753906 56.960938 44.917969 L 39.476562 55.355469 L 22.996094 44.96875 L 5.269531 55.949219 C 4.40625 56.488281 4.136719 57.621094 4.675781 58.488281 C 5.210938 59.351562 6.347656 59.617188 7.210938 59.082031 L 22.976562 49.3125 L 39.421875 59.675781 L 58.847656 48.082031 C 59.265625 47.835938 59.566406 47.421875 59.6875 46.949219 C 59.8125 46.476562 59.738281 45.972656 59.488281 45.554688 C 59.148438 44.996094 58.542969 44.660156 57.890625 44.664062 Z M 57.890625 44.664062 "/>
</g>
</svg>
