<svg xmlns="http://www.w3.org/2000/svg" xmlns:xlink="http://www.w3.org/1999/xlink" width="64px" height="64px" viewBox="0 0 64 64" version="1.1">
<defs>
<linearGradient id="linear0" gradientUnits="userSpaceOnUse" x1="0" y1="0" x2="0" y2="1" gradientTransform="matrix(55.351351,0,0,52.072071,4.324324,5.963964)">
<stop offset="0" style="stop-color:#00a2ff;stop-opacity:1;"/>
<stop offset="0.5" style="stop-color:#dddddd;stop-opacity:1;"/>
<stop offset="1" style="stop-color:#00ffae;stop-opacity:1;"/>
</linearGradient>
</defs>
<g id="surface1">
<path style=" stroke:none;fill-rule:nonzero;fill:url(#linear0);" d="M 37.941406 5.960938 L 21.824219 22.078125 L 21.460938 22.375 L 21.3125 22.808594 L 15.703125 36.082031 L 10.671875 40.96875 L 8.917969 42.570312 L 11.324219 44.984375 L 4.324219 51.984375 L 16.726562 58.039062 L 20.511719 54.242188 L 21.097656 54.753906 L 22.703125 56.433594 L 24.378906 54.824219 L 29.558594 49.941406 L 42.835938 44.324219 L 43.191406 44.105469 L 43.5625 43.8125 L 59.675781 27.699219 L 56.320312 24.417969 L 47.933594 32.800781 L 32.765625 17.632812 L 41.21875 9.246094 Z M 29.558594 20.988281 L 44.652344 36.085938 L 41.882812 38.851562 L 26.789062 23.757812 Z M 24.308594 27.847656 L 37.796875 41.335938 L 27.226562 45.855469 L 26.863281 46.003906 L 26.496094 46.292969 L 22.773438 49.867188 L 15.632812 42.714844 L 19.273438 39.21875 L 19.566406 38.851562 L 19.785156 38.417969 Z M 24.308594 27.847656 "/>
</g>
</svg>
