<svg xmlns="http://www.w3.org/2000/svg" xmlns:xlink="http://www.w3.org/1999/xlink" width="64px" height="64px" viewBox="0 0 64 64" version="1.1">
<defs>
<linearGradient id="linear0" gradientUnits="userSpaceOnUse" x1="0" y1="0" x2="0" y2="1" gradientTransform="matrix(43.319821,0,0,55.351351,4.324324,4.324324)">
<stop offset="0" style="stop-color:#00b7ff;stop-opacity:1;"/>
<stop offset="0.5" style="stop-color:#dddddd;stop-opacity:1;"/>
<stop offset="1" style="stop-color:#ee42d9;stop-opacity:1;"/>
</linearGradient>
<linearGradient id="linear1" gradientUnits="userSpaceOnUse" x1="0" y1="0" x2="0" y2="1" gradientTransform="matrix(31.680179,0,0,30.734233,10.432432,12.292792)">
<stop offset="0" style="stop-color:#00b7ff;stop-opacity:1;"/>
<stop offset="0.5" style="stop-color:#dddddd;stop-opacity:1;"/>
<stop offset="1" style="stop-color:#ee42d9;stop-opacity:1;"/>
</linearGradient>
<linearGradient id="linear2" gradientUnits="userSpaceOnUse" x1="0" y1="0" x2="0" y2="1" gradientTransform="matrix(34.594595,0,0,34.594595,25.081081,20.432432)">
<stop offset="0" style="stop-color:#00b7ff;stop-opacity:1;"/>
<stop offset="0.5" style="stop-color:#dddddd;stop-opacity:1;"/>
<stop offset="1" style="stop-color:#ee42d9;stop-opacity:1;"/>
</linearGradient>
</defs>
<g id="surface1">
<path style=" stroke:none;fill-rule:nonzero;fill:url(#linear0);" d="M 47.644531 21.621094 L 47.644531 4.324219 L 4.324219 4.324219 L 4.324219 59.675781 L 47.644531 59.675781 L 47.644531 42.378906 L 44.214844 45.835938 L 44.179688 56.214844 L 7.789062 56.214844 L 7.789062 7.785156 L 44.179688 7.785156 L 44.179688 25.082031 Z M 47.644531 21.621094 "/>
<path style=" stroke:none;fill-rule:evenodd;fill:url(#linear1);" d="M 24.300781 15.171875 C 24.238281 15.203125 24.179688 15.226562 24.117188 15.246094 C 23.882812 15.457031 23.8125 16.605469 24.417969 18.515625 C 24.746094 16.324219 24.488281 15.363281 24.300781 15.171875 Z M 25.351562 26.742188 L 25.285156 26.984375 L 25.203125 26.855469 C 24.566406 28.550781 23.863281 30.214844 23.089844 31.863281 L 23.339844 31.753906 L 23.230469 31.945312 C 24.839844 31.375 26.472656 30.863281 28.121094 30.40625 L 28.039062 30.335938 L 28.292969 30.285156 C 27.21875 29.179688 26.238281 27.996094 25.351562 26.742188 Z M 37.199219 31.78125 C 36.757812 31.78125 36.269531 31.8125 35.734375 31.855469 C 36.335938 32.058594 36.960938 32.164062 37.59375 32.175781 C 38.382812 32.175781 38.796875 32.113281 39.015625 32.058594 C 38.828125 31.945312 38.3125 31.78125 37.199219 31.78125 Z M 24.347656 12.292969 C 25.3125 12.292969 26.152344 12.699219 26.726562 13.4375 C 27.9375 15.011719 27.851562 18.230469 26.476562 23 C 27.976562 25.550781 29.875 27.863281 31.8125 29.511719 C 33.917969 29.078125 35.734375 28.863281 37.199219 28.863281 C 41.632812 28.863281 42.113281 31.078125 42.113281 32.03125 C 42.105469 35.097656 38.828125 35.097656 37.59375 35.097656 C 35.476562 35.097656 33.273438 34.289062 31.042969 32.675781 C 27.59375 33.511719 24.214844 34.609375 20.9375 35.96875 C 16.824219 43.027344 14.3125 43.027344 13.484375 43.027344 C 12.972656 43.027344 12.484375 42.910156 12.027344 42.675781 C 10.589844 41.921875 10.410156 40.824219 10.433594 40.246094 C 10.460938 39.503906 10.550781 37.269531 18.796875 33.691406 C 20.597656 30.386719 22.089844 26.921875 23.238281 23.335938 C 21.988281 20.988281 19.933594 16.363281 21.511719 13.785156 C 22.097656 12.824219 23.105469 12.292969 24.347656 12.292969 Z M 15.28125 38.808594 C 14.460938 39.335938 13.960938 39.761719 13.691406 40.054688 C 14.011719 39.941406 14.550781 39.585938 15.28125 38.808594 Z M 15.28125 38.808594 "/>
<path style=" stroke:none;fill-rule:nonzero;fill:url(#linear2);" d="M 50.417969 22.90625 L 45.542969 27.847656 L 43.109375 30.3125 L 40.671875 32.789062 L 38.234375 35.257812 L 35.792969 37.730469 L 33.363281 40.203125 L 30.921875 42.671875 L 29.085938 45.144531 C 28.835938 45.59375 28.71875 45.742188 28.300781 46.59375 C 27.523438 48.171875 26.566406 50.324219 25.800781 52.753906 L 25.082031 55.027344 L 27.355469 54.308594 C 29.785156 53.539062 31.9375 52.585938 33.511719 51.8125 C 35.089844 51.039062 35.949219 50.523438 36.199219 50.363281 L 36.3125 50.292969 L 59.675781 27.257812 L 52.851562 20.433594 Z M 32.226562 44.875 L 35.234375 47.886719 L 34.796875 48.320312 C 34.8125 48.308594 33.863281 48.878906 32.421875 49.589844 C 31.890625 49.847656 31.097656 50.136719 30.363281 50.421875 L 29.6875 49.746094 C 29.96875 49.011719 30.261719 48.214844 30.515625 47.6875 C 31.230469 46.246094 31.796875 45.296875 31.789062 45.3125 Z M 32.226562 44.875 "/>
</g>
</svg>
