<svg xmlns="http://www.w3.org/2000/svg" xmlns:xlink="http://www.w3.org/1999/xlink" width="48px" height="48px" viewBox="0 0 48 48" version="1.1">
<g id="surface1">
<path style=" stroke:none;fill-rule:nonzero;fill:rgb(16.862746%,56.470591%,85.09804%);fill-opacity:1;" d="M 46.976562 28.765625 C 46.273438 32.144531 40.660156 35.84375 34.210938 36.5625 C 30.847656 36.933594 27.539062 37.277344 24.007812 37.128906 C 18.234375 36.882812 13.679688 35.84375 13.679688 35.84375 C 13.679688 36.367188 13.714844 36.867188 13.785156 37.332031 C 14.535156 42.636719 19.433594 42.953125 24.074219 43.101562 C 28.757812 43.25 32.929688 42.027344 32.929688 42.027344 L 33.121094 45.96875 C 33.121094 45.96875 29.84375 47.605469 24.007812 47.910156 C 20.789062 48.074219 16.796875 47.832031 12.140625 46.6875 C 2.046875 44.199219 0.3125 34.183594 0.046875 24.019531 C -0.0351562 21 0.015625 18.15625 0.015625 15.773438 C 0.015625 5.382812 7.328125 2.335938 7.328125 2.335938 C 11.015625 0.757812 17.34375 0.09375 23.925781 0.046875 L 24.085938 0.046875 C 30.664062 0.09375 36.996094 0.757812 40.683594 2.335938 C 40.683594 2.335938 48 5.382812 48 15.773438 C 48 15.773438 48.089844 23.441406 46.976562 28.765625 "/>
<path style=" stroke:none;fill-rule:nonzero;fill:rgb(100%,100%,100%);fill-opacity:1;" d="M 39.371094 16.582031 L 39.371094 29.164062 L 34.015625 29.164062 L 34.015625 16.949219 C 34.015625 14.375 32.851562 13.070312 30.523438 13.070312 C 27.953125 13.070312 26.660156 14.621094 26.660156 17.683594 L 26.660156 24.371094 L 21.339844 24.371094 L 21.339844 17.683594 C 21.339844 14.621094 20.046875 13.070312 17.476562 13.070312 C 15.148438 13.070312 13.984375 14.375 13.984375 16.949219 L 13.984375 29.164062 L 8.628906 29.164062 L 8.628906 16.582031 C 8.628906 14.007812 9.332031 11.964844 10.746094 10.453125 C 12.203125 8.941406 14.109375 8.164062 16.480469 8.164062 C 19.21875 8.164062 21.292969 9.144531 22.667969 11.109375 L 24 13.191406 L 25.335938 11.109375 C 26.707031 9.144531 28.78125 8.164062 31.523438 8.164062 C 33.890625 8.164062 35.796875 8.941406 37.253906 10.453125 C 38.667969 11.964844 39.371094 14.007812 39.371094 16.582031 "/>
</g>
</svg>
