<svg xmlns="http://www.w3.org/2000/svg" xmlns:xlink="http://www.w3.org/1999/xlink" width="64px" height="64px" viewBox="0 0 64 64" version="1.1">
<defs>
<linearGradient id="linear0" gradientUnits="userSpaceOnUse" x1="0" y1="0" x2="0" y2="1" gradientTransform="matrix(55.351351,0,0,55.337838,4.324324,4.328829)">
<stop offset="0" style="stop-color:#ffae00;stop-opacity:1;"/>
<stop offset="0.5" style="stop-color:#dddddd;stop-opacity:1;"/>
<stop offset="1" style="stop-color:#bf1d1d;stop-opacity:1;"/>
</linearGradient>
</defs>
<g id="surface1">
<path style=" stroke:none;fill-rule:nonzero;fill:url(#linear0);" d="M 11.351562 28.757812 C 11.058594 28.757812 10.773438 28.636719 10.566406 28.433594 L 8.835938 26.699219 C 7.613281 25.476562 7.613281 23.503906 8.835938 22.285156 L 25.902344 5.210938 C 27.078125 4.039062 29.132812 4.039062 30.3125 5.210938 L 32.050781 6.957031 C 32.484375 7.386719 32.484375 8.085938 32.050781 8.515625 L 12.132812 28.433594 C 11.921875 28.636719 11.644531 28.757812 11.351562 28.757812 Z M 19.289062 37.449219 L 18.3125 38.433594 C 11.472656 45.28125 11.472656 45.28125 10.058594 45.910156 C 9.367188 46.214844 8.328125 46.675781 6.328125 47.875 C 4.867188 48.753906 4.449219 49.875 4.351562 50.664062 C 4.136719 52.355469 5.164062 54.347656 7.40625 56.585938 C 9.457031 58.632812 11.296875 59.664062 12.890625 59.664062 C 13.8125 59.664062 15.125 59.320312 16.121094 57.664062 C 17.320312 55.664062 17.78125 54.625 18.082031 53.9375 C 18.710938 52.523438 18.710938 52.523438 25.5625 45.679688 L 26.539062 44.707031 Z M 32.96875 10.730469 L 14.335938 29.367188 L 34.613281 49.648438 L 53.242188 31.011719 Z M 25.324219 34.148438 L 33.335938 30.785156 L 29.589844 27.039062 L 38.125 24.191406 L 41.941406 28.011719 L 34.824219 29.429688 L 38.792969 33.394531 Z M 39.488281 56.058594 C 38.652344 56.058594 37.867188 55.734375 37.285156 55.148438 L 35.542969 53.410156 C 35.335938 53.203125 35.21875 52.917969 35.21875 52.625 C 35.21875 52.335938 35.335938 52.050781 35.542969 51.839844 L 55.460938 31.929688 C 55.664062 31.71875 55.949219 31.605469 56.242188 31.605469 C 56.539062 31.605469 56.820312 31.71875 57.027344 31.929688 L 58.761719 33.664062 C 59.351562 34.257812 59.675781 35.039062 59.675781 35.867188 C 59.675781 36.703125 59.351562 37.488281 58.761719 38.078125 L 41.691406 55.148438 C 41.109375 55.734375 40.3125 56.0625 39.488281 56.058594 Z M 39.488281 56.058594 "/>
</g>
</svg>
