<svg xmlns="http://www.w3.org/2000/svg" xmlns:xlink="http://www.w3.org/1999/xlink" width="64px" height="64px" viewBox="0 0 64 64" version="1.1">
<defs>
<linearGradient id="linear0" gradientUnits="userSpaceOnUse" x1="0" y1="0" x2="0" y2="1" gradientTransform="matrix(43.26126,0,0,51.891892,9.166667,6.054054)">
<stop offset="0" style="stop-color:#00fff2;stop-opacity:1;"/>
<stop offset="0.5" style="stop-color:#dddddd;stop-opacity:1;"/>
<stop offset="1" style="stop-color:#0062ff;stop-opacity:1;"/>
</linearGradient>
</defs>
<g id="surface1">
<path style=" stroke:none;fill-rule:evenodd;fill:url(#linear0);" d="M 52.429688 45.742188 L 52.429688 55.144531 C 46.671875 57.011719 41.160156 57.945312 35.882812 57.945312 C 27.59375 57.945312 21.070312 55.5625 16.3125 50.800781 C 11.550781 46.070312 9.164062 39.59375 9.164062 31.367188 C 9.164062 23.6875 11.246094 17.550781 15.40625 12.96875 C 19.539062 8.363281 25.050781 6.054688 31.949219 6.054688 C 39.960938 6.054688 45.554688 8.988281 48.71875 14.867188 C 51.097656 19.296875 52.335938 25.894531 52.429688 34.664062 L 23.269531 34.664062 C 23.664062 37.558594 24.1875 39.742188 24.851562 41.21875 C 27.203125 46.3125 31.636719 48.863281 38.144531 48.863281 C 42.238281 48.863281 47 47.820312 52.429688 45.742188 M 23.136719 27.117188 L 39.269531 27.117188 C 39.179688 23.171875 38.714844 20.246094 37.867188 18.347656 C 36.664062 15.726562 34.71875 14.414062 32.039062 14.414062 C 29.027344 14.414062 26.734375 15.96875 25.171875 19.070312 C 24.265625 20.878906 23.585938 23.5625 23.136719 27.117188 "/>
</g>
</svg>
