<svg xmlns="http://www.w3.org/2000/svg" xmlns:xlink="http://www.w3.org/1999/xlink" width="64px" height="64px" viewBox="0 0 64 64" version="1.1">
<defs>
<linearGradient id="linear0" gradientUnits="userSpaceOnUse" x1="0" y1="0" x2="0" y2="1" gradientTransform="matrix(55.351351,0,0,51.099098,4.324324,6.45045)">
<stop offset="0" style="stop-color:#ff8963;stop-opacity:1;"/>
<stop offset="0.5" style="stop-color:#dddddd;stop-opacity:1;"/>
<stop offset="1" style="stop-color:#0F6FFF;stop-opacity:1;"/>
</linearGradient>
</defs>
<g id="surface1">
<path style=" stroke:none;fill-rule:evenodd;fill:url(#linear0);" d="M 44.769531 51.160156 L 55.417969 51.160156 L 55.417969 53.289062 L 44.769531 53.289062 Z M 10.390625 44.460938 L 17.414062 51.476562 C 18.082031 52.144531 17.609375 53.289062 16.664062 53.289062 L 10.710938 53.289062 C 9.539062 53.289062 8.582031 52.335938 8.582031 51.160156 L 8.582031 45.207031 C 8.582031 44.261719 9.726562 43.789062 10.390625 44.460938 Z M 13.90625 8.582031 L 50.09375 8.582031 L 50.09375 9.644531 L 13.90625 9.644531 Z M 7.515625 21.355469 L 8.582031 21.355469 L 8.582031 23.59375 C 7.808594 23.757812 7.082031 24.089844 6.449219 24.578125 L 6.449219 22.417969 C 6.449219 21.835938 6.929688 21.355469 7.515625 21.355469 Z M 20.289062 16.039062 L 45.835938 16.039062 L 45.835938 18.164062 L 20.289062 18.164062 Z M 56.484375 21.355469 C 57.070312 21.355469 57.550781 21.835938 57.550781 22.417969 L 57.550781 24.578125 C 56.917969 24.089844 56.191406 23.757812 55.417969 23.59375 L 55.417969 21.355469 Z M 44.769531 46.90625 L 55.417969 46.90625 L 55.417969 49.03125 L 44.769531 49.03125 Z M 26.679688 20.289062 L 37.320312 20.289062 L 37.320312 22.417969 L 26.679688 22.417969 Z M 11.773438 11.773438 L 52.226562 11.773438 C 52.8125 11.773438 53.289062 12.253906 53.289062 12.839844 L 53.289062 23.484375 L 42.71875 23.484375 C 41.648438 23.484375 40.660156 24.011719 40.058594 24.910156 L 37.066406 29.394531 C 36.867188 29.691406 36.539062 29.875 36.1875 29.875 L 27.8125 29.875 C 27.460938 29.875 27.132812 29.691406 26.933594 29.394531 L 23.941406 24.910156 C 23.347656 24.015625 22.347656 23.484375 21.28125 23.484375 L 10.710938 23.484375 L 10.710938 12.839844 C 10.710938 12.253906 11.1875 11.773438 11.773438 11.773438 Z M 57.550781 52.226562 C 57.550781 53.988281 56.113281 55.417969 54.355469 55.417969 L 9.644531 55.417969 C 7.886719 55.417969 6.449219 53.988281 6.449219 52.226562 L 6.449219 28.808594 C 6.449219 27.042969 7.886719 25.613281 9.644531 25.613281 L 21.28125 25.613281 C 21.636719 25.613281 21.96875 25.789062 22.164062 26.085938 L 25.164062 30.578125 C 25.753906 31.46875 26.746094 32.003906 27.8125 32 L 36.1875 32 C 37.253906 32 38.246094 31.46875 38.835938 30.578125 L 41.835938 26.085938 C 42.03125 25.789062 42.363281 25.613281 42.71875 25.613281 L 54.355469 25.613281 C 56.113281 25.613281 57.550781 27.042969 57.550781 28.808594 Z M 56.484375 19.230469 L 55.417969 19.230469 L 55.417969 12.839844 C 55.417969 11.082031 53.988281 9.644531 52.226562 9.644531 L 52.226562 8.582031 C 52.226562 7.40625 51.269531 6.449219 50.09375 6.449219 L 13.90625 6.449219 C 12.730469 6.449219 11.773438 7.40625 11.773438 8.582031 L 11.773438 9.644531 C 10.011719 9.644531 8.582031 11.082031 8.582031 12.839844 L 8.582031 19.230469 L 7.515625 19.230469 C 5.757812 19.230469 4.324219 20.660156 4.324219 22.417969 L 4.324219 52.226562 C 4.324219 55.160156 6.710938 57.550781 9.644531 57.550781 L 54.355469 57.550781 C 57.289062 57.550781 59.675781 55.160156 59.675781 52.226562 L 59.675781 22.417969 C 59.675781 20.660156 58.242188 19.230469 56.484375 19.230469 Z M 28.808594 24.550781 L 35.191406 24.550781 L 35.191406 26.679688 L 28.808594 26.679688 Z M 28.808594 24.550781 "/>
</g>
</svg>
