<svg xmlns="http://www.w3.org/2000/svg" xmlns:xlink="http://www.w3.org/1999/xlink" width="64px" height="64px" viewBox="0 0 64 64" version="1.1">
<defs>
<linearGradient id="linear0" gradientUnits="userSpaceOnUse" x1="0" y1="0" x2="0" y2="1" gradientTransform="matrix(53.369368,0,0,55.351351,5.315315,4.324324)">
<stop offset="0" style="stop-color:#00b7ff;stop-opacity:1;"/>
<stop offset="0.5" style="stop-color:#dddddd;stop-opacity:1;"/>
<stop offset="1" style="stop-color:#ee42d9;stop-opacity:1;"/>
</linearGradient>
</defs>
<g id="surface1">
<path style=" stroke:none;fill-rule:evenodd;fill:url(#linear0);" d="M 32.0625 4.324219 C 31.46875 4.300781 30.914062 4.597656 30.617188 5.109375 L 25.828125 13.21875 L 17.136719 9.441406 C 16.617188 9.214844 16.011719 9.285156 15.554688 9.613281 C 15.09375 9.941406 14.839844 10.488281 14.90625 11.050781 L 15.847656 20.390625 L 6.566406 22.390625 C 6.015625 22.511719 5.566406 22.914062 5.390625 23.449219 C 5.214844 23.988281 5.339844 24.570312 5.71875 24.988281 L 12.039062 32.003906 L 5.71875 39.015625 C 5.339844 39.433594 5.214844 40.023438 5.390625 40.554688 C 5.566406 41.089844 6.015625 41.488281 6.570312 41.613281 L 15.847656 43.609375 L 14.90625 52.957031 C 14.851562 53.511719 15.097656 54.0625 15.558594 54.390625 C 16.015625 54.71875 16.617188 54.789062 17.136719 54.558594 L 25.835938 50.785156 L 30.621094 58.890625 C 30.910156 59.378906 31.4375 59.675781 32.003906 59.675781 C 32.570312 59.675781 33.09375 59.378906 33.382812 58.890625 L 38.171875 50.78125 L 46.863281 54.554688 C 47.382812 54.785156 47.988281 54.714844 48.445312 54.386719 C 48.90625 54.058594 49.160156 53.511719 49.09375 52.949219 L 48.152344 43.609375 L 57.433594 41.609375 C 57.984375 41.488281 58.433594 41.085938 58.609375 40.550781 C 58.785156 40.011719 58.660156 39.429688 58.28125 39.011719 L 51.960938 31.996094 L 58.28125 24.984375 C 58.660156 24.566406 58.785156 23.976562 58.609375 23.445312 C 58.433594 22.910156 57.984375 22.511719 57.429688 22.386719 L 48.148438 20.390625 L 49.09375 11.042969 C 49.148438 10.488281 48.902344 9.9375 48.441406 9.609375 C 47.984375 9.28125 47.382812 9.210938 46.863281 9.441406 L 38.164062 13.214844 L 33.378906 5.109375 C 33.105469 4.644531 32.609375 4.347656 32.0625 4.324219 Z M 40.328125 21.707031 C 40.160156 22.949219 39.988281 24.226562 39.910156 25.386719 C 39.8125 26.757812 39.632812 27.742188 40.136719 29.3125 C 40.679688 30.976562 41.429688 31.636719 42.363281 32.738281 C 43.289062 33.835938 44.386719 35.011719 45.460938 36.117188 C 43.914062 36.382812 42.296875 36.6875 40.863281 37.039062 C 39.433594 37.386719 38.378906 37.539062 37.011719 38.476562 C 35.644531 39.417969 35.136719 40.355469 34.339844 41.542969 C 33.578125 42.691406 32.808594 44.011719 32.089844 45.28125 C 30.738281 42.8125 29.1875 40.117188 26.539062 38.421875 C 24.242188 36.960938 21.515625 36.421875 18.957031 36.015625 C 20.78125 34.125 22.664062 31.90625 23.511719 29.042969 C 24.238281 26.582031 24.117188 24.136719 23.863281 21.894531 C 26.179688 23.015625 28.835938 24.089844 31.789062 24.089844 C 34.933594 24.089844 37.835938 22.90625 40.328125 21.707031 Z M 19.78125 16.1875 C 19.78125 16.1875 22.050781 23.511719 20.664062 28.207031 C 19.273438 32.902344 12.234375 38.1875 12.234375 38.1875 C 12.234375 38.1875 21.441406 38.6875 24.941406 40.921875 C 28.4375 43.160156 31.988281 51.765625 31.988281 51.765625 C 31.988281 51.765625 36.714844 42.28125 38.6875 40.921875 C 40.664062 39.566406 51.765625 38.175781 51.765625 38.175781 C 51.765625 38.175781 43.652344 30.53125 42.960938 28.402344 C 42.269531 26.269531 44.21875 16.1875 44.21875 16.1875 C 44.21875 16.1875 36.917969 21.125 31.789062 21.125 C 26.652344 21.125 19.78125 16.1875 19.78125 16.1875 Z M 19.78125 16.1875 "/>
</g>
</svg>
