<svg xmlns="http://www.w3.org/2000/svg" xmlns:xlink="http://www.w3.org/1999/xlink" width="64px" height="64px" viewBox="0 0 64 64" version="1.1">
<defs>
<linearGradient id="linear0" gradientUnits="userSpaceOnUse" x1="0" y1="0" x2="0" y2="1" gradientTransform="matrix(27.675676,0,0,55.351351,18.162162,4.324324)">
<stop offset="0" style="stop-color:#ffae00;stop-opacity:1;"/>
<stop offset="0.5" style="stop-color:#dddddd;stop-opacity:1;"/>
<stop offset="1" style="stop-color:#6600ff;stop-opacity:1;"/>
</linearGradient>
</defs>
<g id="surface1">
<path style=" stroke:none;fill-rule:nonzero;fill:url(#linear0);" d="M 43.8125 7.03125 L 43.8125 10.226562 L 39.726562 10.226562 C 38.230469 10.226562 36.820312 10.347656 35.496094 10.589844 C 34.175781 10.839844 32.882812 11.292969 31.621094 11.949219 C 30.460938 12.578125 29.511719 13.421875 28.785156 14.503906 C 28.050781 15.59375 27.675781 16.90625 27.675781 18.445312 C 27.675781 20.6875 28.578125 22.386719 30.375 23.554688 C 32.171875 24.71875 34.550781 25.3125 37.515625 25.3125 L 42.082031 25.3125 L 42.082031 28.269531 L 35.90625 28.269531 C 32.484375 28.269531 29.867188 28.914062 28.070312 30.207031 C 26.273438 31.5 25.382812 33.523438 25.382812 36.289062 C 25.382812 38.554688 26.113281 40.3125 27.589844 41.5625 C 29.050781 42.8125 31.109375 43.441406 33.734375 43.441406 L 37.894531 43.441406 C 40.5 43.441406 42.46875 44.078125 43.8125 45.363281 C 45.160156 46.644531 45.835938 48.347656 45.835938 50.5 C 45.835938 52.8125 44.730469 54.921875 42.511719 56.824219 C 40.296875 58.730469 37.648438 59.675781 34.582031 59.675781 C 32.378906 59.675781 30.808594 59.433594 29.890625 58.960938 C 28.960938 58.484375 28.503906 57.773438 28.503906 56.851562 C 28.503906 56.097656 28.761719 55.5 29.265625 55.050781 C 29.785156 54.59375 30.550781 54.363281 31.558594 54.363281 C 32.148438 54.363281 32.675781 54.46875 33.152344 54.679688 C 33.625 54.882812 34.03125 55.125 34.386719 55.386719 C 34.734375 55.609375 35.132812 55.90625 35.605469 56.261719 C 36.078125 56.621094 36.53125 56.886719 36.949219 57.082031 C 37.457031 57.042969 38.003906 56.9375 38.609375 56.757812 C 39.199219 56.570312 39.769531 56.273438 40.3125 55.835938 C 40.886719 55.40625 41.335938 54.90625 41.675781 54.324219 C 42.015625 53.757812 42.179688 52.976562 42.179688 51.988281 C 42.179688 50.625 41.691406 49.605469 40.714844 48.945312 C 39.734375 48.292969 38.335938 47.957031 36.511719 47.957031 L 31.589844 47.957031 C 27.972656 47.957031 25.003906 46.96875 22.703125 44.996094 C 20.386719 43.015625 19.226562 40.566406 19.226562 37.648438 C 19.226562 36.066406 19.582031 34.621094 20.28125 33.3125 C 20.988281 32.011719 21.9375 30.863281 23.144531 29.878906 C 24.273438 28.960938 25.578125 28.230469 27.027344 27.679688 C 28.488281 27.132812 29.902344 26.785156 31.246094 26.632812 L 31.246094 26.46875 C 28.050781 25.996094 25.617188 25.050781 23.960938 23.636719 C 22.292969 22.226562 21.460938 20.539062 21.460938 18.5625 C 21.460938 17.441406 21.710938 16.433594 22.207031 15.527344 C 22.703125 14.609375 23.390625 13.789062 24.273438 13.078125 C 25.089844 12.417969 26.058594 11.851562 27.179688 11.378906 C 28.289062 10.917969 29.460938 10.523438 30.675781 10.191406 L 30.675781 9.71875 C 29.835938 9.742188 28.738281 9.769531 27.390625 9.828125 C 26.050781 9.886719 24.894531 9.914062 23.929688 9.914062 C 21.949219 9.914062 20.496094 9.664062 19.5625 9.164062 C 18.625 8.671875 18.164062 7.960938 18.164062 7.03125 C 18.164062 6.300781 18.378906 5.664062 18.808594 5.136719 C 19.238281 4.59375 19.96875 4.324219 20.988281 4.324219 C 21.960938 4.324219 22.789062 4.496094 23.46875 4.835938 C 24.160156 5.171875 24.792969 5.539062 25.382812 5.933594 C 26.050781 6.386719 26.636719 6.761719 27.148438 7.082031 C 27.652344 7.386719 28.414062 7.542969 29.449219 7.542969 C 31.710938 7.542969 34.164062 7.488281 36.8125 7.367188 C 39.445312 7.265625 41.78125 7.148438 43.8125 7.03125 Z M 43.8125 7.03125 "/>
</g>
</svg>
