<svg xmlns="http://www.w3.org/2000/svg" xmlns:xlink="http://www.w3.org/1999/xlink" width="64px" height="64px" viewBox="0 0 64 64" version="1.1">
<defs>
<linearGradient id="linear0" gradientUnits="userSpaceOnUse" x1="0" y1="0" x2="0" y2="1" gradientTransform="matrix(55.351351,0,0,37.585584,4.324324,13.207207)">
<stop offset="0" style="stop-color:#ffae00;stop-opacity:1;"/>
<stop offset="0.5" style="stop-color:#dddddd;stop-opacity:1;"/>
<stop offset="1" style="stop-color:#bf1d1d;stop-opacity:1;"/>
</linearGradient>
</defs>
<g id="surface1">
<path style=" stroke:none;fill-rule:evenodd;fill:url(#linear0);" d="M 59.664062 40.929688 C 58.988281 41.121094 55.242188 42.1875 54.835938 41.9375 C 50.625 39.417969 47.265625 40.675781 43.328125 42.3125 C 42.097656 42.828125 40.863281 43.335938 39.089844 44.0625 C 46.113281 30.292969 41.769531 16.78125 25.761719 13.757812 C 28.824219 13.039062 33.109375 12.972656 36.46875 13.863281 C 45.644531 16.269531 50.699219 19.902344 56.109375 29.699219 C 57.699219 32.910156 59.835938 38 59.664062 40.929688 Z M 8.851562 28.4375 C 11.164062 23.945312 19.363281 22.769531 23.96875 25.136719 C 28.558594 27.488281 31.597656 35.082031 27.421875 42.445312 C 27.476562 37.285156 26.28125 32.542969 22.347656 29.214844 C 18.476562 26.050781 13.644531 26.539062 8.851562 28.4375 Z M 12.503906 22.042969 C 15.742188 17.828125 19.824219 16.597656 24.339844 16.957031 C 30.28125 17.421875 34.796875 20.339844 37.214844 25.960938 C 39.472656 31.339844 38.3125 38.257812 33.511719 43.609375 C 35.324219 36.621094 34.960938 30.726562 30.339844 25.863281 C 25.582031 21.039062 19.515625 20.109375 12.503906 22.042969 Z M 12.558594 45.890625 C 12.558594 45.625 12.59375 45.410156 12.664062 45.230469 C 12.742188 45.050781 12.847656 44.90625 12.984375 44.792969 C 13.113281 44.679688 13.269531 44.605469 13.449219 44.550781 C 13.632812 44.503906 13.820312 44.476562 14.027344 44.476562 C 14.21875 44.476562 14.40625 44.503906 14.578125 44.550781 C 14.757812 44.605469 14.90625 44.679688 15.039062 44.792969 C 15.171875 44.90625 15.273438 45.050781 15.351562 45.230469 C 15.433594 45.410156 15.46875 45.625 15.46875 45.890625 C 15.46875 46.136719 15.433594 46.351562 15.351562 46.53125 C 15.273438 46.707031 15.171875 46.851562 15.039062 46.96875 C 14.90625 47.082031 14.757812 47.171875 14.578125 47.21875 C 14.40625 47.273438 14.21875 47.300781 14.027344 47.300781 C 13.820312 47.300781 13.632812 47.273438 13.449219 47.21875 C 13.269531 47.171875 13.113281 47.082031 12.984375 46.96875 C 12.847656 46.851562 12.742188 46.707031 12.664062 46.53125 C 12.59375 46.351562 12.558594 46.136719 12.558594 45.890625 Z M 12.835938 42.707031 L 12.835938 42.675781 C 12.835938 42.390625 12.863281 41.808594 12.917969 41.582031 C 12.976562 41.347656 13.066406 41.132812 13.1875 40.921875 C 13.308594 40.714844 13.460938 40.511719 13.644531 40.3125 C 13.835938 40.117188 14.058594 39.914062 14.324219 39.707031 C 14.558594 39.523438 14.757812 39.363281 14.917969 39.214844 C 15.078125 39.070312 15.203125 38.929688 15.308594 38.789062 C 15.40625 38.648438 15.476562 38.5 15.523438 38.347656 C 15.566406 38.1875 15.589844 38.011719 15.589844 37.808594 C 15.589844 37.488281 15.484375 37.226562 15.269531 37.027344 C 15.054688 36.820312 14.730469 36.71875 14.292969 36.71875 C 13.910156 36.71875 13.5 36.796875 13.058594 36.960938 C 12.621094 37.121094 12.164062 37.3125 11.691406 37.550781 L 10.847656 35.710938 C 11.085938 35.570312 11.339844 35.441406 11.621094 35.320312 C 11.90625 35.191406 12.191406 35.082031 12.496094 34.988281 C 12.796875 34.886719 13.105469 34.8125 13.414062 34.757812 C 13.726562 34.703125 14.027344 34.675781 14.324219 34.675781 C 14.886719 34.675781 15.402344 34.742188 15.855469 34.878906 C 16.308594 35.011719 16.691406 35.210938 17.003906 35.472656 C 17.324219 35.734375 17.5625 36.050781 17.734375 36.417969 C 17.902344 36.792969 17.988281 37.210938 17.988281 37.6875 C 17.988281 38.039062 17.945312 38.347656 17.867188 38.621094 C 17.796875 38.894531 17.675781 39.148438 17.527344 39.386719 C 17.375 39.621094 17.1875 39.851562 16.957031 40.066406 C 16.726562 40.285156 16.457031 40.515625 16.152344 40.761719 C 15.917969 40.941406 15.730469 41.105469 15.585938 41.238281 C 15.4375 41.375 15.320312 41.503906 15.238281 41.625 C 15.160156 41.742188 15.097656 41.875 15.066406 42 C 15.039062 42.132812 15.023438 42.96875 15.023438 42.792969 L 15.023438 42.707031 Z M 4.324219 40.941406 C 4.324219 35.511719 8.738281 31.09375 14.171875 31.09375 C 19.609375 31.09375 24.023438 35.511719 24.023438 40.941406 C 24.023438 46.378906 19.609375 50.792969 14.171875 50.792969 C 8.738281 50.792969 4.324219 46.378906 4.324219 40.941406 Z M 4.324219 40.941406 "/>
</g>
</svg>
