<svg xmlns="http://www.w3.org/2000/svg" xmlns:xlink="http://www.w3.org/1999/xlink" width="64px" height="64px" viewBox="0 0 64 64" version="1.1">
<defs>
<linearGradient id="linear0" gradientUnits="userSpaceOnUse" x1="0" y1="0" x2="0" y2="1" gradientTransform="matrix(38.306307,0,0,53.621622,12.995495,5.189189)">
<stop offset="0" style="stop-color:#00b7ff;stop-opacity:1;"/>
<stop offset="0.5" style="stop-color:#dddddd;stop-opacity:1;"/>
<stop offset="1" style="stop-color:#ee42d9;stop-opacity:1;"/>
</linearGradient>
</defs>
<g id="surface1">
<path style=" stroke:none;fill-rule:nonzero;fill:url(#linear0);" d="M 23.21875 5.1875 C 22.539062 5.1875 21.886719 5.457031 21.40625 5.941406 L 13.753906 13.59375 C 13.269531 14.070312 13 14.726562 13 15.402344 C 13 16.082031 13.269531 16.730469 13.753906 17.210938 C 14.746094 18.203125 16.363281 18.203125 17.355469 17.210938 L 20.664062 13.90625 L 20.664062 39.757812 C 20.664062 39.761719 20.664062 39.765625 20.664062 39.769531 C 20.664062 40.105469 20.734375 40.4375 20.863281 40.742188 C 21.417969 46.476562 26.335938 51.152344 32.148438 51.152344 C 38.300781 51.152344 43.636719 45.960938 43.636719 39.769531 C 43.636719 36.675781 42.21875 33.855469 40.148438 31.753906 C 38.078125 29.644531 35.265625 28.164062 32.148438 28.164062 C 29.726562 28.164062 27.613281 29.214844 25.761719 30.597656 L 25.761719 7.742188 C 25.765625 6.335938 24.625 5.199219 23.21875 5.1875 Z M 30.625 20.566406 C 29.949219 20.621094 29.324219 20.941406 28.886719 21.457031 C 28.445312 21.972656 28.230469 22.636719 28.285156 23.320312 C 28.335938 23.996094 28.660156 24.621094 29.171875 25.058594 C 29.6875 25.5 30.355469 25.714844 31.03125 25.664062 C 37.089844 25.179688 42.746094 28.621094 45.097656 34.21875 C 47.457031 39.824219 45.949219 46.28125 41.363281 50.265625 C 36.78125 54.246094 30.1875 54.835938 24.96875 51.730469 C 19.746094 48.621094 17.121094 42.542969 18.4375 36.617188 C 18.742188 35.238281 17.878906 33.875 16.5 33.566406 C 15.121094 33.261719 13.757812 34.132812 13.457031 35.511719 C 11.660156 43.566406 15.253906 51.894531 22.351562 56.121094 C 29.449219 60.347656 38.484375 59.539062 44.714844 54.113281 C 50.949219 48.691406 53.011719 39.863281 49.8125 32.242188 C 46.613281 24.625 38.863281 19.910156 30.625 20.566406 Z M 32.148438 33.273438 C 33.585938 33.273438 35.246094 34.050781 36.511719 35.328125 C 37.765625 36.613281 38.539062 38.3125 38.539062 39.769531 C 38.539062 42.679688 35.097656 46.050781 32.148438 46.050781 C 29.191406 46.050781 25.761719 42.679688 25.761719 39.769531 C 25.761719 38.3125 26.539062 36.613281 27.796875 35.328125 C 29.058594 34.050781 30.710938 33.273438 32.148438 33.273438 Z M 32.148438 33.273438 "/>
</g>
</svg>
