<svg xmlns="http://www.w3.org/2000/svg" xmlns:xlink="http://www.w3.org/1999/xlink" width="64px" height="64px" viewBox="0 0 64 64" version="1.1">
<defs>
<linearGradient id="linear0" gradientUnits="userSpaceOnUse" x1="0" y1="0" x2="0" y2="1" gradientTransform="matrix(55.324324,0,0,55.351351,4.337838,4.324324)">
<stop offset="0" style="stop-color:#ffae00;stop-opacity:1;"/>
<stop offset="0.5" style="stop-color:#dddddd;stop-opacity:1;"/>
<stop offset="1" style="stop-color:#bf1d1d;stop-opacity:1;"/>
</linearGradient>
</defs>
<g id="surface1">
<path style=" stroke:none;fill-rule:nonzero;fill:url(#linear0);" d="M 40.292969 4.351562 C 40.292969 4.351562 38.613281 4.4375 36.460938 5.363281 C 34.308594 6.289062 31.382812 8.015625 27.984375 11.414062 C 21.191406 18.207031 18.90625 25.199219 18.90625 25.199219 C 18.515625 25.957031 18.613281 26.863281 19.136719 27.527344 C 19.671875 28.1875 20.539062 28.476562 21.363281 28.265625 C 22.179688 28.054688 22.800781 27.382812 22.941406 26.550781 C 22.941406 26.550781 24.960938 20.632812 31.078125 14.511719 C 34.136719 11.445312 36.589844 9.957031 38.207031 9.261719 C 39.253906 8.820312 39.269531 8.902344 39.554688 8.863281 L 42.039062 11.347656 C 37.671875 14.710938 33.511719 18.351562 29.597656 22.238281 C 20.46875 31.367188 11.984375 42.886719 11.984375 42.886719 L 21.125 52.03125 C 21.125 52.03125 32.636719 43.542969 41.773438 34.414062 C 50.902344 25.285156 56.765625 16.390625 56.765625 16.390625 L 47.621094 7.242188 C 47.621094 7.242188 46.8125 7.863281 45.609375 8.726562 L 41.835938 4.960938 C 41.429688 4.554688 40.863281 4.335938 40.292969 4.351562 Z M 54.613281 4.351562 C 53.242188 4.503906 51.632812 5.1875 49.570312 6.164062 L 57.839844 14.441406 C 59.8125 10.320312 60.523438 8.042969 58.246094 5.761719 C 57.113281 4.632812 55.988281 4.203125 54.613281 4.351562 Z M 10.5 44.367188 C 7.648438 49.121094 6.808594 53.066406 6.597656 55.328125 L 4.785156 57.078125 C 4.496094 57.363281 4.335938 57.746094 4.335938 58.152344 C 4.335938 58.554688 4.496094 58.941406 4.785156 59.230469 C 5.066406 59.511719 5.457031 59.675781 5.863281 59.675781 C 6.265625 59.675781 6.652344 59.511719 6.9375 59.230469 L 8.753906 57.414062 C 11.023438 57.191406 14.929688 56.335938 19.644531 53.511719 Z M 10.5 44.367188 "/>
</g>
</svg>
