<svg xmlns="http://www.w3.org/2000/svg" xmlns:xlink="http://www.w3.org/1999/xlink" width="64px" height="64px" viewBox="0 0 64 64" version="1.1">
<defs>
<linearGradient id="linear0" gradientUnits="userSpaceOnUse" x1="0" y1="0" x2="0" y2="1" gradientTransform="matrix(53.441443,0,0,55.351351,5.27928,4.324324)">
<stop offset="0" style="stop-color:#00fff2;stop-opacity:1;"/>
<stop offset="0.5" style="stop-color:#dddddd;stop-opacity:1;"/>
<stop offset="1" style="stop-color:#0062ff;stop-opacity:1;"/>
</linearGradient>
</defs>
<g id="surface1">
<path style=" stroke:none;fill-rule:evenodd;fill:url(#linear0);" d="M 26.042969 47.933594 L 21.644531 57.6875 C 21.457031 58.09375 21.457031 58.597656 21.644531 59.011719 C 21.824219 59.421875 22.164062 59.675781 22.539062 59.675781 L 41.460938 59.675781 C 41.835938 59.675781 42.175781 59.421875 42.355469 59.011719 C 42.542969 58.597656 42.542969 58.09375 42.355469 57.6875 L 37.957031 47.933594 C 40.558594 49.320312 43.515625 50.171875 46.894531 50.132812 C 50.929688 50.011719 54.957031 48.261719 57.085938 45.238281 C 60.3125 40.660156 58.773438 34.648438 52.410156 25.636719 C 48.320312 19.855469 34 4.929688 32 4.324219 C 30.003906 4.929688 15.679688 19.855469 11.589844 25.636719 C 5.226562 34.648438 3.6875 40.660156 6.914062 45.238281 C 9.042969 48.261719 13.070312 50.011719 17.105469 50.132812 C 20.484375 50.171875 23.441406 49.320312 26.042969 47.933594 Z M 19.78125 21.117188 L 19.78125 43.941406 L 25.050781 43.941406 L 25.050781 28.417969 L 28.59375 32.320312 L 32.070312 35.792969 L 35.550781 32.320312 L 39.09375 28.417969 L 39.09375 43.941406 L 44.363281 43.941406 L 44.363281 21.117188 L 39.09375 21.117188 L 32.070312 28.488281 L 25.050781 21.117188 Z M 19.78125 21.117188 "/>
</g>
</svg>
