<svg xmlns="http://www.w3.org/2000/svg" xmlns:xlink="http://www.w3.org/1999/xlink" width="64px" height="64px" viewBox="0 0 64 64" version="1.1">
<defs>
<linearGradient id="linear0" gradientUnits="userSpaceOnUse" x1="0" y1="0" x2="0" y2="1" gradientTransform="matrix(47.378378,0,0,51.891892,8.477477,6.054054)">
<stop offset="0" style="stop-color:#00a2ff;stop-opacity:1;"/>
<stop offset="0.5" style="stop-color:#dddddd;stop-opacity:1;"/>
<stop offset="1" style="stop-color:#00ffae;stop-opacity:1;"/>
</linearGradient>
</defs>
<g id="surface1">
<path style=" stroke:none;fill-rule:nonzero;fill:url(#linear0);" d="M 19.1875 6.054688 C 17.0625 6.054688 15.164062 6.089844 13.476562 6.1875 C 12.632812 6.238281 11.835938 6.308594 11.089844 6.386719 C 10.828125 6.417969 10.609375 6.460938 10.363281 6.496094 C 10.011719 8.445312 9.582031 11.109375 9.351562 12.890625 C 9.160156 14.394531 8.996094 15.855469 8.867188 17.265625 C 8.738281 18.679688 8.636719 20.039062 8.578125 21.355469 C 8.511719 22.664062 8.476562 23.933594 8.476562 25.144531 C 8.472656 26.351562 8.503906 27.511719 8.566406 28.617188 C 8.632812 29.71875 8.71875 30.769531 8.847656 31.761719 C 8.972656 32.757812 9.132812 33.691406 9.320312 34.570312 C 9.511719 35.445312 9.730469 36.265625 9.976562 37.023438 C 10.230469 37.78125 10.511719 38.472656 10.828125 39.109375 C 11.039062 39.527344 11.261719 39.9375 11.5 40.335938 C 11.742188 40.730469 12 41.117188 12.269531 41.488281 C 12.539062 41.863281 12.828125 42.21875 13.125 42.566406 C 13.429688 42.914062 13.746094 43.253906 14.078125 43.570312 C 14.40625 43.890625 14.753906 44.203125 15.109375 44.496094 C 15.46875 44.792969 15.839844 45.070312 16.226562 45.335938 C 17 45.875 17.828125 46.351562 18.707031 46.769531 C 19.179688 47 19.632812 47.1875 20.066406 47.351562 C 20.511719 47.511719 20.9375 47.644531 21.363281 47.746094 C 21.792969 47.847656 22.226562 47.921875 22.671875 47.972656 C 23.117188 48.023438 23.578125 48.050781 24.066406 48.050781 C 24.710938 48.054688 25.3125 48.027344 25.902344 47.960938 C 26.488281 47.894531 27.058594 47.792969 27.636719 47.636719 C 28.226562 47.488281 28.820312 47.292969 29.460938 47.042969 C 30.105469 46.792969 30.789062 46.488281 31.542969 46.121094 C 32.433594 45.6875 33.089844 45.324219 33.710938 44.878906 C 34.335938 44.4375 34.921875 43.914062 35.664062 43.179688 C 36.207031 42.648438 36.6875 42.097656 37.09375 41.539062 C 37.503906 40.976562 37.851562 40.40625 38.132812 39.824219 C 38.410156 39.246094 38.617188 38.664062 38.761719 38.070312 C 38.902344 37.484375 38.972656 36.886719 38.972656 36.296875 C 38.972656 35.800781 38.917969 35.292969 38.820312 34.789062 C 38.71875 34.28125 38.570312 33.769531 38.382812 33.265625 C 38.191406 32.761719 37.96875 32.265625 37.703125 31.789062 C 37.441406 31.308594 37.144531 30.839844 36.820312 30.402344 C 36.496094 29.960938 36.144531 29.542969 35.769531 29.164062 C 35.394531 28.785156 35.003906 28.433594 34.59375 28.125 C 34.1875 27.820312 33.761719 27.554688 33.328125 27.339844 C 32.894531 27.125 32.457031 26.960938 32.011719 26.863281 C 31.746094 26.796875 31.417969 26.746094 31.0625 26.714844 C 30.710938 26.6875 30.328125 26.671875 29.945312 26.671875 C 29.566406 26.671875 29.1875 26.6875 28.839844 26.71875 C 28.5 26.753906 28.1875 26.796875 27.945312 26.863281 C 27.539062 26.96875 27.175781 27.097656 26.867188 27.242188 C 26.5625 27.390625 26.308594 27.558594 26.105469 27.742188 C 25.902344 27.921875 25.753906 28.125 25.652344 28.335938 C 25.554688 28.550781 25.503906 28.773438 25.511719 29.011719 C 25.511719 29.246094 25.570312 29.496094 25.679688 29.746094 C 25.789062 30.003906 25.945312 30.265625 26.160156 30.53125 C 26.367188 30.796875 26.632812 31.066406 26.945312 31.339844 C 27.261719 31.613281 27.625 31.886719 28.042969 32.164062 C 28.328125 32.347656 28.613281 32.558594 28.882812 32.785156 C 29.152344 33.011719 29.410156 33.246094 29.636719 33.484375 C 29.863281 33.714844 30.058594 33.949219 30.210938 34.164062 C 30.363281 34.375 30.46875 34.566406 30.515625 34.726562 C 30.589844 34.972656 30.625 35.117188 30.59375 35.285156 C 30.566406 35.449219 30.476562 35.636719 30.308594 35.976562 C 30.199219 36.1875 30.0625 36.386719 29.902344 36.578125 C 29.742188 36.769531 29.558594 36.949219 29.351562 37.117188 C 29.148438 37.285156 28.921875 37.441406 28.679688 37.582031 C 28.441406 37.726562 28.1875 37.851562 27.917969 37.960938 C 27.648438 38.070312 27.375 38.171875 27.085938 38.246094 C 26.800781 38.324219 26.511719 38.382812 26.210938 38.421875 C 25.917969 38.460938 25.617188 38.488281 25.324219 38.488281 C 25.027344 38.488281 24.730469 38.460938 24.441406 38.417969 C 23.910156 38.335938 23.386719 38.199219 22.886719 38.011719 C 22.386719 37.820312 21.902344 37.582031 21.441406 37.296875 C 20.984375 37.011719 20.539062 36.6875 20.132812 36.320312 C 19.71875 35.949219 19.339844 35.550781 18.988281 35.113281 C 18.644531 34.675781 18.328125 34.207031 18.050781 33.714844 C 17.769531 33.21875 17.53125 32.703125 17.335938 32.164062 C 17.136719 31.625 16.976562 31.066406 16.867188 30.496094 C 16.765625 29.921875 16.703125 29.339844 16.699219 28.746094 C 16.6875 28.054688 16.730469 27.5 16.855469 26.957031 C 16.984375 26.410156 17.1875 25.863281 17.503906 25.199219 C 17.703125 24.78125 17.933594 24.363281 18.1875 23.960938 C 18.449219 23.554688 18.734375 23.152344 19.039062 22.761719 C 19.351562 22.367188 19.6875 21.988281 20.039062 21.621094 C 20.390625 21.253906 20.765625 20.894531 21.160156 20.558594 C 21.550781 20.21875 21.957031 19.894531 22.375 19.59375 C 22.796875 19.289062 23.230469 19.003906 23.671875 18.742188 C 24.113281 18.484375 24.5625 18.242188 25.023438 18.03125 C 25.476562 17.8125 25.941406 17.632812 26.40625 17.46875 C 26.917969 17.296875 27.457031 17.152344 28.003906 17.042969 C 28.558594 16.941406 29.125 16.867188 29.703125 16.828125 C 30.285156 16.789062 30.867188 16.78125 31.460938 16.808594 C 32.058594 16.828125 32.652344 16.886719 33.253906 16.976562 C 33.851562 17.066406 34.445312 17.1875 35.039062 17.335938 C 35.625 17.488281 36.207031 17.671875 36.78125 17.878906 C 37.351562 18.089844 37.910156 18.335938 38.449219 18.597656 C 38.988281 18.867188 39.511719 19.171875 40.011719 19.496094 C 40.613281 19.882812 41.164062 20.292969 41.671875 20.730469 C 42.1875 21.164062 42.652344 21.632812 43.082031 22.132812 C 43.511719 22.625 43.902344 23.160156 44.257812 23.730469 C 44.609375 24.296875 44.929688 24.90625 45.210938 25.5625 C 45.496094 26.214844 45.746094 26.917969 45.96875 27.671875 C 46.1875 28.421875 46.378906 29.226562 46.539062 30.089844 C 46.699219 30.949219 46.835938 31.875 46.941406 32.855469 C 47.050781 33.839844 47.132812 34.890625 47.1875 36.011719 C 47.265625 37.460938 47.273438 39.089844 47.226562 40.835938 C 47.171875 42.589844 47.058594 44.457031 46.890625 46.367188 C 46.726562 48.289062 46.5 50.253906 46.234375 52.203125 C 45.960938 54.160156 45.644531 56.089844 45.289062 57.945312 C 45.753906 57.882812 46.226562 57.824219 46.648438 57.746094 C 49.265625 57.253906 51.160156 56.421875 52.523438 55.058594 C 55.253906 52.335938 55.855469 47.488281 55.855469 39.011719 L 55.855469 25.433594 C 55.855469 13.773438 54.710938 8.988281 48.476562 7.136719 C 47.910156 6.960938 47.300781 6.820312 46.648438 6.699219 C 45.996094 6.578125 45.296875 6.472656 44.550781 6.386719 C 43.808594 6.308594 43.011719 6.238281 42.164062 6.1875 C 40.472656 6.089844 38.582031 6.054688 36.460938 6.054688 Z M 19.1875 6.054688 "/>
</g>
</svg>
