<svg xmlns="http://www.w3.org/2000/svg" xmlns:xlink="http://www.w3.org/1999/xlink" width="64px" height="64px" viewBox="0 0 64 64" version="1.1">
<defs>
<linearGradient id="linear0" gradientUnits="userSpaceOnUse" x1="0" y1="0" x2="0" y2="1" gradientTransform="matrix(55.351351,0,0,38.716216,4.324324,12.63964)">
<stop offset="0" style="stop-color:#00b7ff;stop-opacity:1;"/>
<stop offset="0.5" style="stop-color:#dddddd;stop-opacity:1;"/>
<stop offset="1" style="stop-color:#ee42d9;stop-opacity:1;"/>
</linearGradient>
</defs>
<g id="surface1">
<path style=" stroke:none;fill-rule:nonzero;fill:url(#linear0);" d="M 29.710938 51.273438 C 28.175781 51.132812 25.113281 50.570312 23.792969 50.1875 C 20.960938 49.367188 18.460938 48.039062 16.410156 46.265625 C 16 45.914062 15.503906 45.632812 15.292969 45.632812 C 15.085938 45.632812 13.117188 46.242188 10.921875 46.988281 C 8.71875 47.738281 6.8125 48.351562 6.6875 48.351562 C 6.265625 48.351562 5.960938 47.828125 5.449219 46.230469 C 4.890625 44.476562 4.855469 44.152344 5.179688 43.882812 C 5.300781 43.78125 6.863281 43.207031 8.660156 42.613281 C 10.445312 42.015625 11.929688 41.457031 11.960938 41.363281 C 12.027344 41.175781 9.503906 40.988281 6.839844 40.988281 C 5.179688 40.988281 5.078125 40.972656 4.6875 40.582031 C 4.300781 40.191406 4.273438 40.089844 4.367188 39.191406 C 4.429688 38.664062 4.472656 37.847656 4.472656 37.378906 C 4.472656 36.003906 4.484375 36.003906 8.050781 36.0625 L 11.105469 36.113281 L 11.300781 34.746094 C 11.539062 33.164062 12.054688 31.703125 12.855469 30.382812 C 13.28125 29.6875 13.40625 29.324219 13.351562 28.945312 C 12.59375 23.511719 12.488281 20.734375 12.875 16.71875 C 13.191406 13.472656 13.691406 12.636719 15.320312 12.636719 C 17.027344 12.636719 20.039062 14.800781 24.6875 19.363281 L 27.027344 21.660156 L 28.5625 21.488281 C 30.5 21.269531 33.011719 21.269531 35.460938 21.488281 L 37.355469 21.652344 L 40.027344 19.113281 C 43.570312 15.746094 45.03125 14.515625 46.621094 13.5625 C 47.753906 12.886719 48.089844 12.761719 48.9375 12.707031 C 49.867188 12.648438 49.960938 12.675781 50.414062 13.132812 C 51.339844 14.054688 51.738281 16.191406 51.742188 20.273438 C 51.746094 22.734375 51.707031 23.339844 51.253906 27.335938 L 51.050781 29.117188 L 51.742188 30.179688 C 52.617188 31.515625 53.164062 33.011719 53.417969 34.753906 L 53.613281 36.113281 L 56.246094 36.058594 C 58.367188 36.011719 58.945312 36.050781 59.1875 36.234375 C 59.445312 36.429688 59.515625 36.773438 59.621094 38.351562 C 59.699219 39.460938 59.6875 40.351562 59.605469 40.511719 C 59.433594 40.835938 58.660156 40.988281 57.203125 40.988281 C 56.625 40.988281 55.339844 41.039062 54.347656 41.09375 C 51.753906 41.246094 51.917969 41.445312 55.671875 42.699219 C 57.339844 43.253906 58.820312 43.8125 58.949219 43.949219 C 59.171875 44.171875 59.171875 44.300781 58.921875 45.230469 C 58.539062 46.71875 57.96875 48.054688 57.636719 48.253906 C 57.410156 48.394531 56.5625 48.160156 53.46875 47.109375 C 51.335938 46.382812 49.449219 45.785156 49.28125 45.785156 C 49.113281 45.789062 48.320312 46.289062 47.511719 46.894531 C 44.433594 49.238281 40.539062 50.714844 36.121094 51.21875 C 34.765625 51.378906 31.125 51.40625 29.710938 51.273438 Z M 24.089844 37.339844 C 24.792969 36.933594 25.1875 36.300781 25.265625 35.429688 C 25.402344 34.03125 24.703125 33.070312 23.261719 32.6875 C 22.675781 32.527344 22.476562 32.542969 21.894531 32.800781 C 20.09375 33.597656 19.652344 35.644531 20.996094 36.984375 C 21.824219 37.808594 23.03125 37.949219 24.089844 37.339844 Z M 42.5 37.621094 C 43.636719 37.308594 44.539062 36.136719 44.539062 34.988281 C 44.539062 34.375 43.894531 33.375 43.296875 33.042969 C 42.324219 32.511719 41.808594 32.488281 40.882812 32.914062 C 39.855469 33.390625 39.414062 34.054688 39.410156 35.121094 C 39.410156 36.257812 40.03125 37.21875 41.011719 37.613281 C 41.539062 37.824219 41.773438 37.824219 42.5 37.625 Z M 42.5 37.621094 "/>
</g>
</svg>
