<svg xmlns="http://www.w3.org/2000/svg" xmlns:xlink="http://www.w3.org/1999/xlink" width="64px" height="64px" viewBox="0 0 64 64" version="1.1">
<defs>
<linearGradient id="linear0" gradientUnits="userSpaceOnUse" x1="0" y1="0" x2="0" y2="1" gradientTransform="matrix(55.351351,0,0,55.351351,4.324324,4.324324)">
<stop offset="0" style="stop-color:#ffae00;stop-opacity:1;"/>
<stop offset="0.5" style="stop-color:#dddddd;stop-opacity:1;"/>
<stop offset="1" style="stop-color:#bf1d1d;stop-opacity:1;"/>
</linearGradient>
</defs>
<g id="surface1">
<path style=" stroke:none;fill-rule:evenodd;fill:url(#linear0);" d="M 47.902344 14.648438 L 45.808594 7.089844 C 45.394531 5.613281 44.578125 4.324219 43.042969 4.324219 L 37.929688 4.324219 L 32 14.207031 L 26.070312 4.324219 L 20.957031 4.324219 C 19.421875 4.324219 18.605469 5.613281 18.191406 7.089844 L 4.386719 56.910156 C 3.976562 58.386719 5.617188 59.675781 7.148438 59.675781 L 56.851562 59.675781 C 58.382812 59.675781 60.023438 58.386719 59.613281 56.910156 L 59.609375 56.910156 L 50.042969 22.390625 L 52.347656 18.410156 C 53.132812 17.050781 52.664062 15.308594 51.300781 14.515625 L 51.109375 14.40625 C 50.0625 13.800781 48.789062 13.9375 47.902344 14.648438 Z M 33.050781 39.976562 C 32.707031 39.933594 32.355469 39.910156 32 39.910156 C 27.636719 39.910156 24.089844 43.449219 24.089844 47.8125 C 24.089844 52.179688 27.636719 55.71875 32 55.71875 C 36.363281 55.71875 39.910156 52.179688 39.910156 47.8125 C 39.910156 45.960938 39.269531 44.257812 38.199219 42.910156 L 34.460938 49.386719 C 33.675781 50.753906 31.933594 51.214844 30.566406 50.429688 L 30.375 50.320312 C 29.011719 49.53125 28.542969 47.785156 29.328125 46.429688 Z M 33.050781 39.976562 "/>
</g>
</svg>
