<svg xmlns="http://www.w3.org/2000/svg" xmlns:xlink="http://www.w3.org/1999/xlink" width="64px" height="64px" viewBox="0 0 64 64" version="1.1">
<defs>
<linearGradient id="linear0" gradientUnits="userSpaceOnUse" x1="0" y1="0" x2="0" y2="1" gradientTransform="matrix(51.891892,0,0,55.351351,6.054054,4.324324)">
<stop offset="0" style="stop-color:#05f7ff;stop-opacity:1;"/>
<stop offset="0.5" style="stop-color:#dddddd;stop-opacity:1;"/>
<stop offset="1" style="stop-color:#e6ff05;stop-opacity:1;"/>
</linearGradient>
</defs>
<g id="surface1">
<path style=" stroke:none;fill-rule:nonzero;fill:url(#linear0);" d="M 32.003906 4.324219 C 26.664062 4.320312 22.355469 5.347656 18.855469 6.988281 C 18.136719 7.3125 17.441406 7.664062 16.769531 8.054688 C 16.589844 8.164062 16.421875 8.285156 16.246094 8.394531 C 15.808594 8.671875 15.363281 8.945312 14.941406 9.253906 C 14.59375 9.503906 14.285156 9.789062 13.960938 10.058594 C 11.6875 11.957031 10.015625 14.261719 8.773438 16.765625 C 8.714844 16.890625 8.632812 17.011719 8.570312 17.136719 C 8.511719 17.269531 8.472656 17.402344 8.414062 17.53125 C 7.652344 19.226562 7.027344 20.972656 6.660156 22.789062 C 6.585938 23.132812 6.578125 23.484375 6.515625 23.824219 C 6.351562 24.761719 6.21875 25.6875 6.136719 26.59375 C 6.136719 26.675781 6.125 26.757812 6.117188 26.839844 C 6.027344 27.9375 6.054688 28.933594 6.066406 29.960938 C 6.070312 30.339844 6.0625 30.71875 6.082031 31.097656 C 6.132812 32.191406 6.207031 33.175781 6.339844 34.132812 C 6.417969 34.796875 6.523438 35.449219 6.632812 36.109375 C 6.652344 36.199219 6.660156 36.324219 6.675781 36.410156 L 6.675781 36.414062 L 6.757812 36.789062 C 6.867188 37.433594 6.957031 38.09375 7.09375 38.730469 L 7.503906 40.589844 L 7.539062 40.585938 L 11.457031 59.675781 L 15.820312 58.886719 C 18.273438 58.441406 20.023438 58.050781 20.835938 57.382812 C 21.242188 57.050781 21.476562 56.6875 21.597656 56.039062 C 21.714844 55.394531 21.6875 54.460938 21.421875 53.175781 L 18.484375 38.917969 C 18.214844 37.636719 17.878906 36.746094 17.503906 36.1875 C 17.125 35.617188 16.746094 35.351562 16.226562 35.179688 C 15.175781 34.835938 13.402344 35.089844 10.933594 35.539062 L 10.328125 35.648438 C 9.652344 31.578125 9.515625 27.367188 10.292969 23.5625 C 11.207031 19.058594 13.28125 15.152344 17.09375 12.355469 C 20.855469 9.605469 26.445312 8.210938 32 8.226562 C 37.558594 8.214844 43.144531 9.605469 46.90625 12.355469 C 50.726562 15.152344 52.792969 19.058594 53.707031 23.5625 C 54.484375 27.367188 54.347656 31.578125 53.671875 35.648438 L 53.066406 35.539062 C 50.597656 35.085938 48.824219 34.835938 47.773438 35.179688 C 47.253906 35.351562 46.875 35.617188 46.5 36.1875 C 46.125 36.746094 45.785156 37.636719 45.515625 38.917969 L 42.578125 53.175781 C 42.3125 54.460938 42.285156 55.394531 42.40625 56.039062 C 42.523438 56.6875 42.757812 57.050781 43.164062 57.382812 C 43.976562 58.050781 45.730469 58.441406 48.1875 58.886719 L 52.542969 59.675781 L 56.46875 40.585938 L 56.496094 40.589844 L 56.90625 38.730469 C 57.042969 38.09375 57.132812 37.433594 57.242188 36.789062 L 57.324219 36.414062 L 57.324219 36.410156 C 57.347656 36.324219 57.351562 36.199219 57.367188 36.109375 C 57.476562 35.449219 57.582031 34.796875 57.660156 34.132812 C 57.792969 33.175781 57.867188 32.191406 57.917969 31.097656 C 57.941406 30.71875 57.929688 30.339844 57.9375 29.960938 C 57.945312 28.933594 57.972656 27.9375 57.882812 26.839844 C 57.878906 26.757812 57.867188 26.675781 57.863281 26.59375 C 57.78125 25.6875 57.648438 24.761719 57.484375 23.824219 C 57.421875 23.484375 57.414062 23.132812 57.339844 22.789062 C 56.972656 20.972656 56.347656 19.226562 55.585938 17.53125 C 55.527344 17.402344 55.488281 17.269531 55.429688 17.136719 C 55.367188 17.011719 55.285156 16.890625 55.226562 16.765625 C 53.984375 14.261719 52.3125 11.957031 50.039062 10.058594 C 49.714844 9.789062 49.40625 9.503906 49.058594 9.253906 C 48.636719 8.945312 48.199219 8.671875 47.753906 8.394531 C 47.578125 8.285156 47.414062 8.164062 47.230469 8.054688 C 46.558594 7.664062 45.863281 7.3125 45.148438 6.988281 C 41.648438 5.347656 37.339844 4.320312 32 4.324219 Z M 32.003906 4.324219 "/>
</g>
</svg>
