<svg xmlns="http://www.w3.org/2000/svg" xmlns:xlink="http://www.w3.org/1999/xlink" width="64px" height="64px" viewBox="0 0 64 64" version="1.1">
<defs>
<linearGradient id="linear0" gradientUnits="userSpaceOnUse" x1="0" y1="0" x2="0" y2="1" gradientTransform="matrix(36.567568,0,0,55.351351,13.716216,4.324324)">
<stop offset="0" style="stop-color:#00fff2;stop-opacity:1;"/>
<stop offset="0.5" style="stop-color:#dddddd;stop-opacity:1;"/>
<stop offset="1" style="stop-color:#0062ff;stop-opacity:1;"/>
</linearGradient>
</defs>
<g id="surface1">
<path style=" stroke:none;fill-rule:nonzero;fill:url(#linear0);" d="M 26.21875 4.363281 L 17.960938 7.828125 C 17.675781 7.941406 17.515625 8.21875 17.625 8.488281 L 18.558594 10.691406 C 18.675781 10.96875 18.949219 11.078125 19.230469 10.960938 L 21.089844 10.226562 L 21.625 11.625 L 20.824219 11.960938 C 19.527344 12.472656 19.511719 12.527344 20.027344 13.824219 L 22.089844 18.824219 L 20.363281 19.488281 C 14.929688 21.699219 12.292969 27.929688 14.496094 33.351562 L 16.625 38.550781 C 18.171875 37.058594 20.1875 36.097656 22.496094 36.082031 L 20.421875 30.949219 C 19.558594 28.78125 20.597656 26.3125 22.761719 25.417969 L 24.488281 24.757812 L 25.421875 26.949219 L 34.820312 23.152344 L 29.488281 9.960938 C 28.972656 8.652344 28.988281 8.636719 27.6875 9.164062 L 26.6875 9.558594 L 26.160156 8.164062 L 27.558594 7.558594 C 27.839844 7.445312 27.941406 7.113281 27.824219 6.828125 L 26.960938 4.691406 C 26.839844 4.417969 26.503906 4.242188 26.21875 4.363281 Z M 36.152344 26.488281 L 26.6875 30.289062 L 27.824219 33.085938 L 31.160156 34.484375 L 35.824219 32.554688 L 37.289062 29.289062 Z M 45.152344 33.753906 C 44.941406 33.785156 44.738281 33.855469 44.550781 33.949219 L 27.558594 40.8125 C 26.382812 39.335938 24.597656 38.347656 22.558594 38.347656 C 19.023438 38.347656 16.160156 41.210938 16.160156 44.746094 C 16.171875 47.917969 18.488281 50.609375 21.625 51.082031 C 21.675781 51.1875 21.714844 51.300781 21.761719 51.410156 C 22.417969 53.03125 23.460938 54.347656 24.6875 55.410156 L 18.292969 55.410156 C 17.113281 55.410156 16.160156 56.363281 16.160156 57.542969 L 16.160156 59.675781 L 50.285156 59.675781 L 50.285156 57.542969 C 50.285156 56.355469 49.335938 55.410156 48.148438 55.410156 L 40.351562 55.410156 L 46.882812 52.878906 C 48.53125 52.242188 49.390625 50.390625 48.746094 48.746094 C 48.441406 47.960938 47.835938 47.320312 47.058594 46.988281 C 46.285156 46.648438 45.40625 46.636719 44.617188 46.945312 L 33.21875 51.347656 C 31.050781 52.226562 28.578125 51.179688 27.6875 49.011719 C 27.660156 48.929688 27.589844 48.78125 27.558594 48.679688 C 28.441406 47.582031 28.933594 46.21875 28.957031 44.8125 L 46.152344 37.882812 C 47.125 37.511719 47.699219 36.496094 47.5 35.472656 C 47.300781 34.449219 46.390625 33.71875 45.351562 33.753906 Z M 22.558594 42.613281 C 23.730469 42.613281 24.6875 43.578125 24.6875 44.746094 C 24.6875 45.917969 23.730469 46.878906 22.558594 46.878906 C 21.386719 46.878906 20.421875 45.917969 20.421875 44.746094 C 20.421875 43.578125 21.386719 42.613281 22.558594 42.613281 Z M 22.558594 42.613281 "/>
</g>
</svg>
