<svg xmlns="http://www.w3.org/2000/svg" xmlns:xlink="http://www.w3.org/1999/xlink" width="64px" height="64px" viewBox="0 0 64 64" version="1.1">
<defs>
<linearGradient id="linear0" gradientUnits="userSpaceOnUse" x1="0" y1="0" x2="0" y2="1" gradientTransform="matrix(55.351351,0,0,55.351351,4.324324,4.324324)">
<stop offset="0" style="stop-color:#00b7ff;stop-opacity:1;"/>
<stop offset="0.5" style="stop-color:#dddddd;stop-opacity:1;"/>
<stop offset="1" style="stop-color:#ee42d9;stop-opacity:1;"/>
</linearGradient>
</defs>
<g id="surface1">
<path style=" stroke:none;fill-rule:nonzero;fill:url(#linear0);" d="M 27.6875 4.328125 C 14.78125 4.328125 4.324219 8.972656 4.324219 14.71875 C 4.324219 20.460938 14.78125 25.117188 27.6875 25.117188 C 32.472656 25.117188 36.929688 24.460938 40.636719 23.363281 L 42.402344 22.078125 C 43.355469 21.339844 44.582031 21.050781 45.769531 21.269531 C 49.042969 19.484375 51.039062 17.207031 51.039062 14.71875 C 51.039062 8.972656 40.582031 4.324219 27.6875 4.324219 Z M 4.324219 17.558594 L 4.324219 25.523438 C 4.324219 31.265625 14.78125 35.914062 27.6875 35.914062 C 27.921875 35.914062 28.175781 35.921875 28.421875 35.914062 C 29.421875 34.796875 30.933594 34.289062 32.410156 34.5625 L 32.945312 34.632812 C 32.351562 33.886719 32.011719 32.960938 32 32 C 32 30.636719 32.664062 29.378906 33.757812 28.558594 L 35.242188 27.410156 C 32.863281 27.773438 30.335938 27.949219 27.6875 27.949219 C 14.78125 27.949219 4.324219 23.300781 4.324219 17.554688 Z M 51.039062 17.558594 C 51.039062 19.386719 49.988281 21.121094 48.136719 22.617188 C 48.863281 23.40625 49.285156 24.414062 49.285156 25.523438 L 49.285156 26.402344 C 49.808594 26.515625 50.328125 26.710938 50.835938 26.867188 C 50.96875 26.414062 51.039062 25.996094 51.039062 25.523438 L 51.039062 17.554688 Z M 44.960938 25.523438 L 36.320312 32 L 44.960938 38.476562 L 44.960938 34.023438 C 50.320312 34.042969 54.878906 37.921875 55.761719 43.207031 C 56.746094 49.164062 52.675781 54.773438 46.714844 55.761719 C 43.863281 56.238281 40.933594 55.5625 38.578125 53.878906 C 36.21875 52.191406 34.632812 49.636719 34.164062 46.785156 C 33.730469 44.1875 34.296875 41.675781 35.511719 39.5625 L 31.59375 38.820312 C 30.355469 41.488281 29.960938 44.484375 30.449219 47.390625 C 31.773438 55.40625 39.375 60.800781 47.390625 59.472656 C 55.40625 58.144531 60.800781 50.542969 59.472656 42.53125 C 58.296875 35.4375 52.152344 30.238281 44.960938 30.246094 Z M 4.324219 28.355469 L 4.324219 36.320312 C 4.324219 41.820312 13.917969 46.28125 26.058594 46.648438 C 25.808594 43.976562 26.132812 41.285156 27.011719 38.746094 C 14.414062 38.589844 4.328125 34 4.328125 28.355469 Z M 4.324219 39.160156 L 4.324219 47.121094 C 4.324219 52.867188 14.78125 57.515625 27.6875 57.515625 C 28.664062 57.515625 29.636719 57.5 30.585938 57.445312 C 28.609375 55.179688 27.199219 52.472656 26.46875 49.550781 C 14.121094 49.273438 4.328125 44.714844 4.328125 39.152344 Z M 4.324219 39.160156 "/>
</g>
</svg>
