<svg xmlns="http://www.w3.org/2000/svg" xmlns:xlink="http://www.w3.org/1999/xlink" width="64px" height="64px" viewBox="0 0 64 64" version="1.1">
<defs>
<linearGradient id="linear0" gradientUnits="userSpaceOnUse" x1="0" y1="0" x2="0" y2="1" gradientTransform="matrix(55.351351,0,0,48.207206,4.324324,7.896396)">
<stop offset="0" style="stop-color:#ffae00;stop-opacity:1;"/>
<stop offset="0.5" style="stop-color:#dddddd;stop-opacity:1;"/>
<stop offset="1" style="stop-color:#bf1d1d;stop-opacity:1;"/>
</linearGradient>
<linearGradient id="linear1" gradientUnits="userSpaceOnUse" x1="0" y1="0" x2="0" y2="1" gradientTransform="matrix(30.355855,0,0,32.139639,20.391892,15.036035)">
<stop offset="0" style="stop-color:#ffae00;stop-opacity:1;"/>
<stop offset="0.5" style="stop-color:#dddddd;stop-opacity:1;"/>
<stop offset="1" style="stop-color:#bf1d1d;stop-opacity:1;"/>
</linearGradient>
</defs>
<g id="surface1">
<path style=" stroke:none;fill-rule:evenodd;fill:url(#linear0);" d="M 4.324219 7.894531 L 4.324219 22.179688 L 11.46875 22.179688 L 11.46875 38.417969 C 11.46875 48.210938 19.363281 56.105469 29.152344 56.105469 L 59.675781 56.105469 L 59.675781 25.582031 C 59.675781 15.789062 51.78125 7.894531 41.988281 7.894531 Z M 7.894531 11.46875 L 7.894531 18.609375 L 11.46875 18.609375 C 13.335938 18.609375 15.039062 20.3125 15.039062 22.179688 L 15.039062 38.417969 C 15.039062 46.292969 21.28125 52.53125 29.152344 52.53125 L 56.105469 52.53125 L 56.105469 25.582031 C 56.105469 17.707031 49.863281 11.46875 41.988281 11.46875 Z M 7.894531 11.46875 "/>
<path style=" stroke:none;fill-rule:nonzero;fill:url(#linear1);" d="M 20.390625 15.039062 L 20.390625 40.039062 C 20.390625 43.988281 23.582031 47.175781 27.539062 47.175781 L 43.609375 47.175781 C 47.5625 47.175781 50.746094 43.988281 50.746094 40.039062 L 50.746094 26.644531 C 50.746094 23.191406 47.949219 20.390625 44.5 20.390625 C 42.742188 20.390625 41.171875 21.125 40.039062 22.292969 C 38.902344 21.125 37.324219 20.390625 35.570312 20.390625 C 32.121094 20.390625 29.324219 23.191406 29.324219 26.644531 L 29.324219 37.355469 L 32.890625 37.355469 L 32.890625 26.644531 C 32.890625 25.164062 34.09375 23.960938 35.570312 23.960938 C 37.050781 23.960938 38.246094 25.164062 38.246094 26.644531 L 38.246094 37.355469 L 41.820312 37.355469 L 41.820312 26.644531 C 41.820312 25.164062 43.015625 23.960938 44.5 23.960938 C 45.976562 23.960938 47.175781 25.164062 47.175781 26.644531 L 47.175781 40.039062 C 47.175781 42.011719 45.585938 43.609375 43.609375 43.609375 L 27.539062 43.609375 C 25.558594 43.609375 23.960938 42.011719 23.960938 40.039062 L 23.960938 15.039062 Z M 20.390625 15.039062 "/>
</g>
</svg>
