<svg xmlns="http://www.w3.org/2000/svg" xmlns:xlink="http://www.w3.org/1999/xlink" width="64px" height="64px" viewBox="0 0 64 64" version="1.1">
<defs>
<linearGradient id="linear0" gradientUnits="userSpaceOnUse" x1="0" y1="0" x2="0" y2="1" gradientTransform="matrix(22.045044,0,0,7.509009,37.49099,9.463964)">
<stop offset="0" style="stop-color:#00fff2;stop-opacity:1;"/>
<stop offset="0.5" style="stop-color:#dddddd;stop-opacity:1;"/>
<stop offset="1" style="stop-color:#0062ff;stop-opacity:1;"/>
</linearGradient>
<linearGradient id="linear1" gradientUnits="userSpaceOnUse" x1="0" y1="0" x2="0" y2="1" gradientTransform="matrix(20.495497,0,0,10.391892,39.180179,17.310811)">
<stop offset="0" style="stop-color:#00fff2;stop-opacity:1;"/>
<stop offset="0.5" style="stop-color:#dddddd;stop-opacity:1;"/>
<stop offset="1" style="stop-color:#0062ff;stop-opacity:1;"/>
</linearGradient>
<linearGradient id="linear2" gradientUnits="userSpaceOnUse" x1="0" y1="0" x2="0" y2="1" gradientTransform="matrix(15.094595,0,0,14.063061,37.022524,21.418919)">
<stop offset="0" style="stop-color:#00fff2;stop-opacity:1;"/>
<stop offset="0.5" style="stop-color:#dddddd;stop-opacity:1;"/>
<stop offset="1" style="stop-color:#0062ff;stop-opacity:1;"/>
</linearGradient>
<linearGradient id="linear3" gradientUnits="userSpaceOnUse" x1="0" y1="0" x2="0" y2="1" gradientTransform="matrix(4.175676,0,0,10.333334,30.585584,6.103604)">
<stop offset="0" style="stop-color:#00fff2;stop-opacity:1;"/>
<stop offset="0.5" style="stop-color:#dddddd;stop-opacity:1;"/>
<stop offset="1" style="stop-color:#0062ff;stop-opacity:1;"/>
</linearGradient>
<linearGradient id="linear4" gradientUnits="userSpaceOnUse" x1="0" y1="0" x2="0" y2="1" gradientTransform="matrix(21.630632,0,0,5.54955,4.324324,12.72072)">
<stop offset="0" style="stop-color:#00fff2;stop-opacity:1;"/>
<stop offset="0.5" style="stop-color:#dddddd;stop-opacity:1;"/>
<stop offset="1" style="stop-color:#0062ff;stop-opacity:1;"/>
</linearGradient>
<linearGradient id="linear5" gradientUnits="userSpaceOnUse" x1="0" y1="0" x2="0" y2="1" gradientTransform="matrix(19.639639,0,0,11.711712,6.545045,19.842341)">
<stop offset="0" style="stop-color:#00fff2;stop-opacity:1;"/>
<stop offset="0.5" style="stop-color:#dddddd;stop-opacity:1;"/>
<stop offset="1" style="stop-color:#0062ff;stop-opacity:1;"/>
</linearGradient>
<linearGradient id="linear6" gradientUnits="userSpaceOnUse" x1="0" y1="0" x2="0" y2="1" gradientTransform="matrix(12.04955,0,0,14.959459,15.265766,22.950449)">
<stop offset="0" style="stop-color:#00fff2;stop-opacity:1;"/>
<stop offset="0.5" style="stop-color:#dddddd;stop-opacity:1;"/>
<stop offset="1" style="stop-color:#0062ff;stop-opacity:1;"/>
</linearGradient>
<linearGradient id="linear7" gradientUnits="userSpaceOnUse" x1="0" y1="0" x2="0" y2="1" gradientTransform="matrix(9.977477,0,0,38.382882,27.833334,19.513514)">
<stop offset="0" style="stop-color:#00fff2;stop-opacity:1;"/>
<stop offset="0.5" style="stop-color:#dddddd;stop-opacity:1;"/>
<stop offset="1" style="stop-color:#0062ff;stop-opacity:1;"/>
</linearGradient>
</defs>
<g id="surface1">
<path style=" stroke:none;fill-rule:nonzero;fill:url(#linear0);" d="M 39.660156 14.921875 C 39.042969 15.449219 38.703125 16.003906 38.234375 16.3125 C 38.027344 16.457031 37.589844 16.625 37.488281 16.902344 C 37.472656 16.945312 37.636719 16.996094 37.714844 16.960938 C 38.527344 16.6875 39.308594 16.351562 40.09375 16.027344 C 40.984375 15.664062 41.902344 15.445312 42.828125 15.230469 C 43.742188 15.015625 44.648438 14.761719 45.59375 14.71875 C 46.488281 14.6875 47.488281 14.949219 48.363281 14.730469 C 49.0625 14.554688 49.347656 13.894531 49.835938 13.441406 C 50.421875 12.890625 51.136719 12.828125 51.90625 12.9375 C 52.597656 13.039062 53.285156 13.199219 53.828125 12.648438 C 54.265625 12.214844 54.488281 11.46875 55.207031 11.472656 C 55.976562 11.484375 56.707031 12.164062 57.488281 11.828125 C 57.824219 11.6875 58.082031 11.390625 58.367188 11.175781 C 58.730469 10.914062 59.125 10.730469 59.539062 10.558594 C 56.511719 10.09375 53.441406 9.515625 50.375 9.460938 C 47.660156 9.417969 45.152344 10.066406 42.976562 11.734375 C 42.351562 12.214844 41.765625 12.742188 41.203125 13.296875 C 40.59375 13.890625 40.097656 14.605469 39.417969 15.121094 "/>
<path style=" stroke:none;fill-rule:nonzero;fill:url(#linear1);" d="M 39.292969 18.800781 C 40.09375 18.429688 40.988281 18.3125 41.839844 18.109375 C 42.734375 17.890625 43.636719 17.730469 44.542969 17.617188 C 46.53125 17.367188 48.550781 17.296875 50.550781 17.3125 C 52.230469 17.328125 54.109375 17.378906 55.511719 18.417969 C 56.949219 19.488281 57.734375 21.300781 58.363281 22.917969 C 58.960938 24.472656 59.390625 26.0625 59.675781 27.703125 C 59.09375 27.1875 58.511719 26.664062 57.792969 26.339844 C 57.199219 26.070312 56.441406 26.039062 55.914062 25.632812 C 55.363281 25.203125 55.300781 24.445312 54.886719 23.914062 C 54.390625 23.28125 53.609375 23.429688 52.894531 23.378906 C 52.054688 23.320312 51.726562 22.828125 51.355469 22.136719 C 50.972656 21.421875 50.523438 21.023438 49.6875 20.988281 C 48.839844 20.957031 48.042969 21.050781 47.210938 20.8125 C 46.351562 20.570312 45.5625 20.136719 44.738281 19.808594 C 43.796875 19.429688 42.847656 19.300781 41.835938 19.28125 C 41.324219 19.265625 40.8125 19.265625 40.296875 19.234375 C 40.023438 19.21875 39.476562 19.289062 39.203125 19.125 C 39.125 19.082031 39.246094 18.792969 39.292969 18.800781 "/>
<path style=" stroke:none;fill-rule:nonzero;fill:url(#linear2);" d="M 37.117188 21.445312 C 37.429688 21.40625 37.773438 21.496094 38.078125 21.527344 C 38.394531 21.558594 38.757812 21.554688 39.082031 21.585938 C 39.394531 21.617188 39.6875 21.742188 39.988281 21.820312 C 40.269531 21.886719 40.570312 21.933594 40.847656 22.015625 C 41.460938 22.207031 42.0625 22.441406 42.664062 22.632812 C 43.289062 22.824219 43.90625 22.929688 44.460938 23.300781 C 45.105469 23.738281 45.734375 24.113281 46.191406 24.71875 C 46.261719 24.8125 46.421875 24.867188 46.511719 24.96875 C 46.613281 25.082031 46.699219 25.214844 46.78125 25.347656 C 46.960938 25.636719 47.136719 25.933594 47.335938 26.214844 C 47.6875 26.71875 48.03125 27.234375 48.378906 27.742188 C 49.070312 28.757812 49.769531 29.71875 50.207031 30.847656 C 50.4375 31.445312 50.710938 32 50.96875 32.597656 C 51.191406 33.125 51.449219 33.679688 51.675781 34.210938 C 51.847656 34.609375 52.011719 35.042969 52.117188 35.476562 C 52.121094 35.496094 51.886719 35.421875 51.863281 35.402344 C 51.769531 35.320312 51.699219 35.230469 51.636719 35.121094 C 51.550781 34.949219 51.457031 34.835938 51.347656 34.78125 C 51.132812 34.664062 50.988281 34.550781 50.746094 34.476562 C 50.511719 34.40625 50.246094 34.4375 50.003906 34.414062 C 49.6875 34.382812 49.328125 34.414062 49.027344 34.335938 C 48.445312 34.1875 48.46875 33.441406 48.238281 33 C 47.933594 32.417969 47.441406 32.347656 46.824219 32.3125 C 46.3125 32.289062 45.449219 32.363281 45.238281 31.796875 C 45.136719 31.527344 45.125 31.214844 45.027344 30.933594 C 44.941406 30.699219 44.769531 30.476562 44.609375 30.269531 C 44.289062 29.867188 43.792969 29.523438 43.292969 29.382812 C 42.8125 29.246094 42.136719 29.050781 41.9375 28.5 C 41.835938 28.226562 41.921875 27.890625 41.835938 27.621094 C 41.753906 27.367188 41.632812 27.210938 41.511719 27.011719 C 41.351562 26.753906 41.269531 26.460938 41.117188 26.199219 C 40.882812 25.792969 40.503906 25.457031 40.285156 25.03125 C 40.144531 24.769531 40.015625 24.511719 39.8125 24.273438 C 39.636719 24.070312 39.457031 23.902344 39.28125 23.6875 C 39.117188 23.496094 38.949219 23.3125 38.789062 23.105469 C 38.613281 22.886719 38.460938 22.648438 38.289062 22.421875 C 38.113281 22.203125 37.882812 22.039062 37.664062 21.878906 C 37.511719 21.847656 37.328125 21.789062 37.199219 21.714844 C 37.09375 21.664062 36.878906 21.355469 37.164062 21.429688 "/>
<path style=" stroke:none;fill-rule:nonzero;fill:url(#linear3);" d="M 31.863281 16.4375 C 31.917969 16.363281 31.960938 16.300781 31.988281 16.1875 C 32.21875 15.164062 31.554688 14.164062 31.113281 13.289062 C 30.585938 12.230469 30.390625 10.792969 30.820312 9.664062 C 31.207031 8.632812 31.910156 7.851562 32.527344 6.960938 C 32.761719 6.617188 33.175781 6.1875 33.597656 6.105469 C 33.648438 6.792969 33.449219 7.363281 33.417969 8.015625 C 33.363281 9.152344 34.105469 10.253906 34.511719 11.257812 C 35 12.449219 34.753906 13.539062 33.941406 14.523438 C 33.335938 15.261719 32.542969 15.773438 31.863281 16.4375 "/>
<path style=" stroke:none;fill-rule:nonzero;fill:url(#linear4);" d="M 25.828125 17.757812 C 25.589844 17.457031 25.257812 17.203125 24.960938 16.949219 C 24.652344 16.6875 24.335938 16.433594 24.015625 16.171875 C 23.441406 15.699219 22.851562 15.246094 22.226562 14.835938 C 21.617188 14.4375 20.984375 14.082031 20.3125 13.785156 C 19.652344 13.488281 18.96875 13.253906 18.265625 13.082031 C 17.554688 12.910156 16.828125 12.800781 16.09375 12.753906 C 15.347656 12.703125 14.59375 12.710938 13.839844 12.761719 C 13.082031 12.8125 12.320312 12.914062 11.5625 13.039062 C 10.800781 13.171875 10.042969 13.335938 9.292969 13.511719 C 8.542969 13.6875 7.800781 13.882812 7.058594 14.089844 C 6.320312 14.296875 5.585938 14.511719 4.851562 14.726562 C 4.675781 14.78125 4.5 14.828125 4.324219 14.882812 C 4.671875 15.023438 5.003906 15.171875 5.324219 15.367188 C 5.636719 15.566406 5.9375 15.796875 6.285156 15.921875 C 6.636719 16.050781 7 16.03125 7.351562 15.90625 C 7.703125 15.78125 8.039062 15.589844 8.414062 15.539062 C 9.207031 15.441406 9.703125 16 10.328125 16.363281 C 10.636719 16.539062 10.984375 16.648438 11.335938 16.59375 C 11.691406 16.539062 11.988281 16.324219 12.300781 16.175781 C 12.636719 16.015625 12.988281 15.960938 13.351562 16.0625 C 13.710938 16.164062 14.011719 16.386719 14.296875 16.617188 C 14.582031 16.847656 14.863281 17.082031 15.191406 17.234375 C 15.539062 17.394531 15.910156 17.46875 16.289062 17.488281 C 17.105469 17.53125 17.929688 17.4375 18.742188 17.40625 C 19.558594 17.367188 20.386719 17.351562 21.203125 17.410156 C 21.988281 17.460938 22.761719 17.679688 23.53125 17.851562 C 23.945312 17.941406 24.351562 18.0625 24.761719 18.164062 C 25.058594 18.238281 25.484375 18.363281 25.753906 18.152344 C 25.820312 18.105469 25.886719 18.03125 25.929688 17.960938 C 25.996094 17.851562 25.933594 17.800781 25.828125 17.757812 "/>
<path style=" stroke:none;fill-rule:nonzero;fill:url(#linear5);" d="M 25.957031 20.390625 C 25.625 20.351562 25.394531 20.265625 25.089844 20.1875 C 24.386719 20.003906 23.632812 20.066406 22.90625 20.042969 C 22.097656 20.023438 21.289062 19.976562 20.476562 19.9375 C 18.863281 19.855469 17.238281 19.792969 15.617188 19.902344 C 14.703125 19.960938 13.785156 20.09375 12.890625 20.3125 C 11.382812 20.675781 9.949219 21.367188 8.933594 22.570312 C 7.917969 23.773438 7.410156 25.308594 7.082031 26.820312 C 6.671875 28.726562 6.734375 29.617188 6.542969 31.554688 C 7 30.90625 7.238281 31.3125 7.863281 30.8125 C 8.386719 30.386719 9.015625 30.1875 9.5625 29.808594 C 10.066406 29.457031 10.175781 28.933594 10.351562 28.382812 C 10.566406 27.714844 10.941406 27.320312 11.632812 27.148438 C 12.289062 26.988281 13.097656 27.023438 13.609375 26.503906 C 14.054688 26.054688 14.023438 25.378906 14.375 24.878906 C 14.765625 24.328125 15.539062 24.339844 16.144531 24.253906 C 16.933594 24.136719 17.605469 23.875 18.238281 23.382812 C 18.941406 22.847656 19.589844 22.339844 20.441406 22.054688 C 21.554688 21.675781 22.710938 21.488281 23.855469 21.246094 C 24.152344 21.1875 24.460938 21.164062 24.753906 21.113281 C 25.136719 21.050781 25.554688 20.984375 25.910156 20.808594 C 25.972656 20.773438 26.042969 20.734375 26.105469 20.6875 C 26.136719 20.660156 26.179688 20.625 26.1875 20.582031 C 26.203125 20.417969 25.972656 20.40625 25.867188 20.367188 "/>
<path style=" stroke:none;fill-rule:nonzero;fill:url(#linear6);" d="M 24.976562 23.558594 C 23.421875 23.886719 21.761719 24.984375 20.671875 26.09375 C 20.285156 26.488281 19.835938 26.855469 19.511719 27.296875 C 19.136719 27.796875 18.820312 28.320312 18.457031 28.828125 C 18.050781 29.402344 17.742188 30.054688 17.496094 30.707031 C 17.246094 31.351562 17.175781 32.09375 16.933594 32.738281 C 16.664062 33.433594 16.363281 33.863281 16.164062 34.582031 C 15.835938 35.742188 15.449219 35.792969 15.265625 37.910156 C 15.960938 37.335938 16.132812 37.273438 16.3125 37.234375 C 16.671875 37.152344 16.851562 37.261719 17.191406 37.191406 C 17.550781 37.121094 17.511719 37.066406 17.785156 36.8125 C 18.039062 36.589844 18.121094 36.199219 18.230469 35.902344 C 18.363281 35.542969 18.40625 35.253906 18.757812 35.039062 C 19.050781 34.851562 19.390625 34.773438 19.710938 34.652344 C 20.011719 34.539062 20.378906 34.460938 20.644531 34.246094 C 20.921875 34.015625 21.023438 33.71875 21.152344 33.394531 C 21.449219 32.660156 21.632812 31.957031 22.308594 31.511719 C 22.578125 31.328125 22.894531 31.199219 23.121094 30.984375 C 23.363281 30.757812 23.496094 30.421875 23.609375 30.132812 C 24.09375 28.847656 24.503906 27.511719 24.984375 26.210938 C 25.203125 25.605469 25.539062 24.933594 26.09375 24.515625 C 26.335938 24.335938 26.644531 24.1875 26.855469 23.917969 C 26.988281 23.753906 27.378906 23.394531 27.308594 23.164062 C 27.191406 22.796875 26.3125 22.988281 26.078125 23.089844 C 25.726562 23.238281 25.347656 23.4375 24.976562 23.558594 "/>
<path style=" stroke:none;fill-rule:nonzero;fill:url(#linear7);" d="M 32.996094 19.527344 C 32.769531 19.484375 32.351562 19.566406 32.136719 19.617188 C 31.945312 19.660156 31.710938 19.597656 31.527344 19.652344 C 31.351562 19.707031 31.261719 19.679688 31.085938 19.734375 C 31.023438 19.757812 30.988281 19.796875 30.972656 19.839844 C 30.972656 19.839844 30.972656 19.851562 30.972656 19.851562 C 30.976562 20.039062 31.039062 20.296875 31.085938 20.472656 C 31.136719 20.652344 31.257812 20.984375 31.347656 21.148438 C 31.460938 21.375 31.539062 21.457031 31.636719 21.707031 C 31.71875 21.9375 31.835938 22.023438 31.976562 22.078125 C 32.253906 22.175781 32.597656 22.042969 32.886719 22.058594 C 33.1875 22.078125 33.699219 22.136719 34.023438 21.894531 C 34.171875 21.789062 33.984375 21.339844 33.921875 21.164062 C 33.839844 20.910156 33.742188 20.660156 33.636719 20.40625 C 33.460938 20 33.46875 19.617188 32.996094 19.527344 Z M 30.972656 19.851562 C 30.972656 19.851562 30.96875 19.863281 30.96875 19.863281 C 30.949219 19.910156 30.960938 19.972656 30.996094 20.023438 Z M 34.664062 24.488281 C 34.515625 24.496094 34.375 24.488281 34.230469 24.488281 C 33.90625 24.511719 33.582031 24.511719 33.246094 24.527344 C 32.933594 24.539062 32.605469 24.527344 32.292969 24.5625 C 32.203125 24.570312 31.886719 24.558594 31.863281 24.652344 C 31.847656 24.71875 32.003906 24.882812 32.050781 24.921875 C 32.210938 25.089844 32.382812 25.28125 32.460938 25.511719 C 32.554688 25.738281 32.652344 25.957031 32.808594 26.160156 L 32.648438 25.890625 C 32.753906 26.03125 32.808594 26.257812 32.867188 26.417969 C 33.058594 26.894531 33.210938 27.394531 33.433594 27.867188 C 33.515625 28.054688 33.699219 28.3125 33.890625 28.375 C 34.160156 28.457031 34.410156 28.476562 34.703125 28.484375 C 34.972656 28.484375 35.253906 28.460938 35.527344 28.460938 C 35.765625 28.460938 36.113281 28.527344 36.191406 28.269531 C 36.269531 28.03125 36.257812 27.839844 36.257812 27.582031 C 36.257812 27.3125 36.164062 27.023438 36.058594 26.789062 C 35.949219 26.542969 35.929688 26.1875 35.796875 25.949219 C 35.664062 25.707031 35.582031 25.542969 35.472656 25.296875 C 35.363281 25.042969 35.207031 24.738281 35.027344 24.539062 C 34.945312 24.441406 34.785156 24.484375 34.664062 24.488281 Z M 34.324219 30.78125 C 34.105469 30.792969 33.828125 30.808594 33.648438 30.945312 C 33.558594 31.015625 33.324219 31.039062 33.609375 31.554688 C 33.839844 31.976562 33.882812 32.355469 33.996094 32.796875 C 34 32.890625 34.039062 32.96875 34.058594 33.058594 C 34.117188 33.292969 34.117188 33.53125 34.109375 33.769531 C 34.078125 34.949219 33.886719 35.476562 34.402344 35.59375 C 34.835938 35.691406 35.105469 35.839844 35.511719 36 C 35.984375 36.1875 36.8125 36.421875 37.328125 36.417969 C 37.769531 36.414062 37.6875 36.105469 37.757812 35.703125 C 37.851562 35.164062 37.808594 34.589844 37.761719 34.050781 C 37.714844 33.4375 37.585938 32.835938 37.539062 32.21875 C 37.460938 31.394531 37.386719 30.945312 36.679688 30.921875 C 36.152344 30.910156 35.808594 30.792969 35.296875 30.78125 C 34.972656 30.765625 34.648438 30.757812 34.324219 30.78125 Z M 33.433594 38 C 33.3125 38.042969 33.246094 38.179688 33.246094 38.457031 C 33.253906 38.917969 33.324219 39.402344 33.347656 39.863281 C 33.363281 40.3125 33.285156 40.734375 33.285156 41.1875 L 33.269531 41.109375 C 33.234375 41.484375 33.171875 41.824219 33.09375 42.1875 C 32.78125 43.738281 32.246094 44.042969 33.160156 44.335938 C 33.703125 44.511719 34.097656 44.714844 34.757812 44.976562 C 35.328125 45.207031 36.011719 45.609375 36.570312 45.566406 C 36.839844 45.550781 37.265625 43.828125 37.328125 43.335938 C 37.441406 42.511719 37.570312 41.457031 37.707031 40.636719 C 37.890625 39.515625 37.757812 39.367188 37.1875 39.285156 C 36.539062 39.1875 36.113281 38.972656 35.488281 38.761719 C 34.941406 38.578125 34.441406 38.296875 33.90625 38.078125 C 33.714844 37.996094 33.550781 37.957031 33.433594 38 Z M 31.078125 46.542969 C 30.824219 46.726562 30.671875 47.652344 30.617188 47.929688 C 30.503906 48.441406 30.523438 48.984375 30.378906 49.496094 C 30.347656 49.609375 30.3125 49.769531 30.285156 49.929688 C 30.234375 50.164062 30.164062 50.402344 30.011719 50.527344 L 30.082031 50.375 C 29.90625 50.820312 29.671875 51.136719 29.429688 51.554688 C 29.144531 52.027344 28.851562 52.496094 28.570312 52.972656 C 28.386719 53.292969 28.164062 53.835938 27.960938 54.148438 C 27.503906 54.847656 28.328125 54.90625 29.4375 55.835938 C 29.867188 56.191406 30.300781 56.554688 30.753906 56.890625 C 31.09375 57.152344 31.710938 57.746094 32.136719 57.863281 C 32.960938 58.09375 33.324219 56.960938 33.753906 56.378906 C 35.003906 54.644531 35.882812 52.664062 36.445312 50.597656 C 36.6875 49.726562 37.378906 49.089844 36.347656 48.460938 C 35.941406 48.210938 35.21875 48.097656 34.769531 47.996094 C 34.203125 47.855469 33.617188 47.550781 33.058594 47.378906 C 32.605469 47.238281 32.53125 47.1875 32.082031 47.03125 C 31.855469 46.957031 31.292969 46.386719 31.078125 46.542969 Z M 31.078125 46.542969 "/>
</g>
</svg>
