<svg xmlns="http://www.w3.org/2000/svg" xmlns:xlink="http://www.w3.org/1999/xlink" width="64px" height="64px" viewBox="0 0 64 64" version="1.1">
<defs>
<linearGradient id="linear0" gradientUnits="userSpaceOnUse" x1="0" y1="0" x2="0" y2="1" gradientTransform="matrix(55.351351,0,0,38.054054,4.324324,12.972973)">
<stop offset="0" style="stop-color:#ff8963;stop-opacity:1;"/>
<stop offset="0.5" style="stop-color:#dddddd;stop-opacity:1;"/>
<stop offset="1" style="stop-color:#0F6FFF;stop-opacity:1;"/>
</linearGradient>
</defs>
<g id="surface1">
<path style=" stroke:none;fill-rule:evenodd;fill:url(#linear0);" d="M 33.320312 26.339844 C 32.738281 25.984375 32.320312 25.402344 32.164062 24.726562 C 32.015625 24.058594 32.132812 23.351562 32.496094 22.773438 C 32.863281 22.1875 33.445312 21.765625 34.109375 21.621094 C 34.785156 21.460938 35.484375 21.582031 36.078125 21.941406 C 36.460938 22.191406 36.835938 22.46875 37.179688 22.773438 C 37.96875 23.449219 38.671875 24.207031 39.285156 25.039062 C 40.164062 26.253906 40.863281 27.578125 41.355469 29 C 41.984375 30.824219 42.292969 32.738281 42.273438 34.664062 C 42.292969 36.59375 41.96875 38.511719 41.328125 40.328125 C 40.835938 41.738281 40.105469 43.054688 39.1875 44.238281 C 38.554688 45.050781 37.828125 45.796875 37.027344 46.441406 C 36.660156 46.738281 36.285156 46.996094 35.882812 47.234375 C 35.289062 47.566406 34.578125 47.652344 33.914062 47.46875 C 33.242188 47.292969 32.679688 46.863281 32.335938 46.261719 C 32 45.664062 31.914062 44.957031 32.097656 44.292969 C 32.273438 43.621094 32.707031 43.058594 33.308594 42.710938 C 33.460938 42.625 33.617188 42.527344 33.753906 42.414062 C 34.246094 42.011719 34.699219 41.566406 35.089844 41.0625 C 35.664062 40.3125 36.125 39.484375 36.445312 38.589844 C 36.886719 37.328125 37.105469 36.003906 37.085938 34.664062 C 37.105469 33.3125 36.886719 31.960938 36.445312 30.675781 C 36.125 29.761719 35.675781 28.894531 35.09375 28.109375 C 34.714844 27.578125 34.265625 27.105469 33.773438 26.6875 C 33.632812 26.5625 33.484375 26.445312 33.320312 26.339844 Z M 32 12.972656 C 24.835938 12.972656 18.734375 17.363281 16.109375 23.566406 C 9.4375 24.558594 4.324219 30.246094 4.324219 37.1875 C 4.324219 44.835938 10.515625 51.027344 18.164062 51.027344 L 47.566406 51.027344 C 54.257812 51.027344 59.675781 45.609375 59.675781 38.917969 C 59.675781 32.707031 55 27.609375 48.972656 26.917969 C 47.402344 18.988281 40.394531 12.972656 32 12.972656 Z M 25.082031 43.960938 C 24.433594 44.1875 23.726562 44.152344 23.105469 43.863281 C 22.476562 43.5625 22 43.027344 21.765625 42.378906 C 21.542969 41.730469 21.582031 41.015625 21.875 40.402344 C 22.164062 39.773438 22.703125 39.296875 23.351562 39.066406 C 23.523438 39.003906 23.6875 38.9375 23.851562 38.851562 C 24.328125 38.617188 24.769531 38.328125 25.179688 37.988281 C 25.644531 37.621094 26.03125 37.164062 26.335938 36.644531 C 26.648438 36.0625 26.8125 35.417969 26.8125 34.753906 C 26.8125 34.742188 26.8125 34.742188 26.8125 34.734375 C 26.8125 34.039062 26.648438 33.363281 26.320312 32.753906 C 26.003906 32.199219 25.597656 31.699219 25.117188 31.28125 C 24.6875 30.917969 24.242188 30.597656 23.757812 30.328125 C 23.582031 30.234375 23.410156 30.148438 23.238281 30.082031 C 22.597656 29.820312 22.089844 29.308594 21.824219 28.679688 C 21.5625 28.050781 21.554688 27.328125 21.8125 26.699219 C 22.070312 26.058594 22.585938 25.550781 23.210938 25.285156 C 23.839844 25.023438 24.5625 25.011719 25.191406 25.269531 C 25.570312 25.429688 25.945312 25.613281 26.300781 25.808594 C 27.085938 26.253906 27.835938 26.769531 28.503906 27.355469 C 29.460938 28.175781 30.261719 29.164062 30.863281 30.261719 C 31.609375 31.636719 32 33.175781 32 34.734375 C 32.011719 36.289062 31.609375 37.828125 30.863281 39.1875 C 30.234375 40.28125 29.421875 41.238281 28.445312 42.023438 C 27.757812 42.59375 27 43.082031 26.199219 43.476562 C 25.839844 43.664062 25.460938 43.824219 25.082031 43.960938 Z M 25.082031 43.960938 "/>
</g>
</svg>
