<svg xmlns="http://www.w3.org/2000/svg" xmlns:xlink="http://www.w3.org/1999/xlink" width="64px" height="64px" viewBox="0 0 64 64" version="1.1">
<defs>
<linearGradient id="linear0" gradientUnits="userSpaceOnUse" x1="0" y1="0" x2="0" y2="1" gradientTransform="matrix(55.351351,0,0,32.702703,4.324324,15.648648)">
<stop offset="0" style="stop-color:#00b7ff;stop-opacity:1;"/>
<stop offset="0.5" style="stop-color:#dddddd;stop-opacity:1;"/>
<stop offset="1" style="stop-color:#ee42d9;stop-opacity:1;"/>
</linearGradient>
</defs>
<g id="surface1">
<path style=" stroke:none;fill-rule:evenodd;fill:url(#linear0);" d="M 25.785156 44.894531 C 20.90625 46.324219 16.753906 47.085938 14.230469 47.117188 C 10.113281 47.164062 4.890625 46.5 4.347656 42.339844 C 3.949219 39.328125 9.003906 34.503906 9.003906 34.503906 C 9.003906 34.503906 5.289062 39.160156 6.273438 41.433594 C 7.378906 43.976562 11.234375 44.578125 14.003906 44.503906 C 16.785156 44.433594 20.296875 43.835938 24.132812 42.8125 C 22.734375 40.820312 21.9375 38.386719 21.9375 35.773438 C 21.9375 28.824219 27.5625 23.191406 34.511719 23.191406 C 35.457031 23.191406 36.367188 23.296875 37.242188 23.511719 C 37.105469 23.015625 37.03125 22.484375 37.03125 21.9375 C 37.03125 18.460938 39.847656 15.648438 43.324219 15.648438 C 46.796875 15.648438 49.613281 18.460938 49.613281 21.9375 C 49.613281 25.011719 47.40625 27.566406 44.5 28.144531 C 45.617188 29.609375 46.410156 31.324219 46.789062 33.199219 C 52.902344 29.460938 57.21875 25.1875 57.402344 21.105469 C 57.539062 18.1875 51.496094 16.671875 51.496094 16.671875 C 51.496094 16.402344 59.636719 16.800781 59.675781 21.328125 C 59.71875 26.796875 54.328125 31.90625 47.082031 36.09375 C 46.917969 42.894531 41.363281 48.351562 34.511719 48.351562 C 31.402344 48.351562 28.554688 47.226562 26.378906 45.335938 C 26.148438 45.230469 25.945312 45.085938 25.785156 44.894531 Z M 24.460938 41.863281 C 23.988281 40.796875 23.726562 39.617188 23.726562 38.382812 C 23.726562 33.660156 27.539062 29.839844 32.265625 29.839844 C 36.378906 29.839844 39.835938 32.730469 40.636719 36.605469 C 37.734375 38.0625 34.648438 39.378906 31.578125 40.421875 C 31 39.152344 29.710938 38.292969 28.226562 38.292969 C 26.210938 38.292969 24.566406 39.867188 24.460938 41.863281 Z M 28.105469 45.828125 C 29.3125 46.570312 30.742188 46.972656 32.265625 46.972656 C 36.675781 46.972656 40.328125 43.609375 40.8125 39.328125 C 37.890625 40.730469 34.839844 41.960938 31.894531 42.949219 C 31.496094 44.609375 30.003906 45.839844 28.226562 45.839844 C 28.1875 45.839844 28.144531 45.835938 28.105469 45.828125 Z M 28.105469 45.828125 "/>
</g>
</svg>
