<svg xmlns="http://www.w3.org/2000/svg" xmlns:xlink="http://www.w3.org/1999/xlink" width="64px" height="64px" viewBox="0 0 64 64" version="1.1">
<defs>
<linearGradient id="linear0" gradientUnits="userSpaceOnUse" x1="0" y1="0" x2="0" y2="1" gradientTransform="matrix(55.351351,0,0,48.963963,4.324324,7.518018)">
<stop offset="0" style="stop-color:#ffae00;stop-opacity:1;"/>
<stop offset="0.5" style="stop-color:#dddddd;stop-opacity:1;"/>
<stop offset="1" style="stop-color:#bf1d1d;stop-opacity:1;"/>
</linearGradient>
</defs>
<g id="surface1">
<path style=" stroke:none;fill-rule:nonzero;fill:url(#linear0);" d="M 8.984375 7.515625 C 6.429688 7.515625 4.324219 8.566406 4.324219 11.976562 C 4.324219 32.621094 6.636719 36.257812 21.757812 36.257812 C 10.890625 36.257812 9.246094 43.949219 10.3125 46.503906 C 12.441406 51.824219 17.070312 56.484375 20.6875 56.484375 C 22.0625 56.484375 29.269531 52.433594 32 43.511719 C 34.726562 52.433594 41.9375 56.484375 43.3125 56.484375 C 46.929688 56.484375 51.558594 51.824219 53.6875 46.5 C 54.753906 43.949219 53.109375 36.257812 42.246094 36.257812 C 57.363281 36.257812 59.675781 32.621094 59.675781 11.976562 C 59.675781 8.566406 57.570312 7.515625 55.015625 7.515625 C 49.542969 7.515625 35.835938 19.214844 32 30.605469 C 28.164062 19.214844 14.457031 7.515625 8.984375 7.515625 Z M 8.984375 7.515625 "/>
</g>
</svg>
