<svg xmlns="http://www.w3.org/2000/svg" xmlns:xlink="http://www.w3.org/1999/xlink" width="64px" height="64px" viewBox="0 0 64 64" version="1.1">
<defs>
<linearGradient id="linear0" gradientUnits="userSpaceOnUse" x1="0" y1="0" x2="0" y2="1" gradientTransform="matrix(55.351351,0,0,38.585584,4.324324,12.707207)">
<stop offset="0" style="stop-color:#05f7ff;stop-opacity:1;"/>
<stop offset="0.5" style="stop-color:#dddddd;stop-opacity:1;"/>
<stop offset="1" style="stop-color:#e6ff05;stop-opacity:1;"/>
</linearGradient>
</defs>
<g id="surface1">
<path style=" stroke:none;fill-rule:evenodd;fill:url(#linear0);" d="M 32 45.511719 C 31.863281 45.765625 31.699219 46.003906 31.53125 46.234375 C 31.566406 46.253906 31.597656 46.28125 31.625 46.308594 C 31.769531 46.457031 31.847656 46.648438 31.839844 46.847656 C 31.839844 46.917969 31.839844 46.988281 31.839844 47.058594 C 31.839844 47.375 31.855469 47.679688 31.886719 47.988281 C 31.917969 48.320312 31.976562 48.648438 32.082031 48.96875 C 32.125 49.09375 32.1875 49.226562 32.253906 49.339844 C 32.300781 49.433594 32.363281 49.515625 32.441406 49.589844 C 32.496094 49.644531 32.558594 49.6875 32.636719 49.714844 C 32.726562 49.753906 32.820312 49.769531 32.917969 49.765625 C 33.117188 49.765625 33.3125 49.839844 33.460938 49.984375 C 33.605469 50.125 33.6875 50.320312 33.6875 50.523438 C 33.691406 50.71875 33.613281 50.917969 33.46875 51.0625 C 33.328125 51.210938 33.136719 51.292969 32.933594 51.292969 C 32.636719 51.296875 32.339844 51.242188 32.066406 51.136719 C 31.8125 51.039062 31.582031 50.882812 31.382812 50.691406 C 31.203125 50.515625 31.042969 50.3125 30.917969 50.09375 C 30.800781 49.886719 30.707031 49.664062 30.632812 49.4375 C 30.496094 49.011719 30.40625 48.570312 30.367188 48.132812 C 30.335938 47.828125 30.320312 47.515625 30.320312 47.214844 C 28.488281 48.269531 25.429688 47.933594 20.257812 44.863281 C 13.089844 40.617188 4.988281 32.027344 4.324219 29.109375 C 6.378906 28.472656 13.039062 29.875 19.242188 32.414062 C 16.765625 26.050781 15.394531 19.210938 16.023438 17.105469 C 18.113281 17.605469 23.191406 22.238281 27.328125 27.621094 C 28.289062 20.835938 30.433594 14.214844 32 12.707031 C 33.511719 14.160156 35.550781 20.339844 36.558594 26.839844 C 40.710938 21.402344 45.863281 16.6875 47.976562 16.179688 C 48.636719 18.410156 47.066406 25.921875 44.335938 32.585938 C 50.660156 29.941406 57.570312 28.457031 59.675781 29.109375 C 59.011719 32.027344 50.910156 40.617188 43.742188 44.863281 C 36.582031 49.113281 33.46875 48.125 32 45.511719 Z M 32 45.511719 "/>
</g>
</svg>
