<svg xmlns="http://www.w3.org/2000/svg" xmlns:xlink="http://www.w3.org/1999/xlink" width="64px" height="64px" viewBox="0 0 64 64" version="1.1">
<defs>
<linearGradient id="linear0" gradientUnits="userSpaceOnUse" x1="0" y1="0" x2="0" y2="1" gradientTransform="matrix(48.432432,0,0,48.432432,7.783784,7.783784)">
<stop offset="0" style="stop-color:#ff8963;stop-opacity:1;"/>
<stop offset="0.5" style="stop-color:#dddddd;stop-opacity:1;"/>
<stop offset="1" style="stop-color:#0F6FFF;stop-opacity:1;"/>
</linearGradient>
</defs>
<g id="surface1">
<path style=" stroke:none;fill-rule:nonzero;fill:url(#linear0);" d="M 14.269531 7.785156 C 10.691406 7.785156 7.785156 10.691406 7.785156 14.269531 L 7.785156 49.730469 C 7.785156 53.308594 10.691406 56.214844 14.269531 56.214844 L 49.730469 56.214844 C 53.308594 56.214844 56.214844 53.308594 56.214844 49.730469 L 56.214844 14.269531 C 56.214844 10.691406 53.308594 7.785156 49.730469 7.785156 Z M 52.757812 11.242188 L 52.757812 52.757812 L 15.351562 52.585938 C 15.351562 52.585938 17.636719 49.207031 17.636719 49.191406 C 17.636719 48.984375 24.855469 40.296875 25.003906 40.328125 C 25.09375 40.351562 28.324219 41.71875 32.1875 43.378906 C 38.769531 46.207031 39.199219 46.375 39.378906 46.136719 C 39.648438 45.773438 40.578125 43.828125 41.066406 42.597656 L 41.488281 41.558594 L 40.785156 41.175781 C 39.789062 40.632812 38.335938 39.421875 37.417969 38.382812 C 36.585938 37.4375 35.082031 35.144531 35.082031 34.824219 C 35.082031 34.714844 35.558594 35.203125 36.136719 35.894531 C 37.78125 37.851562 41.558594 40.910156 41.796875 40.472656 C 42.078125 39.957031 42.261719 38.433594 42.253906 36.671875 C 42.238281 34.511719 41.960938 32.835938 41.214844 30.515625 L 40.796875 29.214844 L 38.742188 28.570312 C 37.613281 28.21875 36.476562 27.863281 36.21875 27.785156 C 35.335938 27.503906 35.894531 27.511719 37.191406 27.808594 C 38.753906 28.152344 40.324219 28.445312 41.300781 28.566406 C 42.164062 28.675781 42.355469 28.511719 42.445312 27.554688 C 42.5625 26.335938 41.773438 22.957031 40.976562 21.273438 C 40.664062 20.609375 40.523438 20.460938 39.886719 20.164062 C 37.769531 19.199219 31.148438 18.292969 28.335938 18.589844 C 27.121094 18.714844 25.867188 19.011719 25.484375 19.265625 C 25.367188 19.335938 26.160156 19.539062 27.511719 19.785156 C 28.71875 20.003906 29.597656 20.210938 29.460938 20.238281 C 29.335938 20.261719 27.433594 20.054688 25.238281 19.769531 C 21.382812 19.273438 21.234375 19.269531 20.96875 19.511719 C 20.40625 20.015625 19.605469 21.402344 19.4375 22.136719 C 19.28125 22.863281 19.292969 22.945312 19.648438 23.675781 C 20.257812 24.917969 21.382812 25.820312 23.960938 27.121094 C 25.175781 27.738281 26.144531 28.273438 26.109375 28.3125 C 26.070312 28.347656 25.03125 27.957031 23.796875 27.445312 L 21.554688 26.515625 L 18.265625 27.4375 C 16.457031 27.945312 11.488281 28.421875 11.414062 28.421875 L 11.242188 11.242188 Z M 52.757812 11.242188 "/>
</g>
</svg>
