<svg xmlns="http://www.w3.org/2000/svg" xmlns:xlink="http://www.w3.org/1999/xlink" width="64px" height="64px" viewBox="0 0 64 64" version="1.1">
<defs>
<linearGradient id="linear0" gradientUnits="userSpaceOnUse" x1="0" y1="0" x2="0" y2="1" gradientTransform="matrix(55.351351,0,0,55.351351,4.324324,4.324324)">
<stop offset="0" style="stop-color:#ffae00;stop-opacity:1;"/>
<stop offset="0.5" style="stop-color:#dddddd;stop-opacity:1;"/>
<stop offset="1" style="stop-color:#bf1d1d;stop-opacity:1;"/>
</linearGradient>
</defs>
<g id="surface1">
<path style=" stroke:none;fill-rule:nonzero;fill:url(#linear0);" d="M 30.148438 4.324219 C 24.089844 4.738281 18.328125 7.136719 13.757812 11.144531 L 30.148438 27.539062 Z M 33.851562 4.351562 L 33.851562 27.539062 L 50.246094 11.136719 C 45.671875 7.136719 39.910156 4.757812 33.851562 4.351562 Z M 11.136719 13.753906 C 7.136719 18.328125 4.757812 24.089844 4.351562 30.148438 L 27.539062 30.148438 Z M 52.855469 13.757812 L 36.460938 30.148438 L 59.675781 30.148438 C 59.261719 24.089844 56.863281 18.328125 52.855469 13.757812 Z M 4.324219 33.851562 C 4.738281 39.910156 7.136719 45.671875 11.144531 50.242188 L 27.539062 33.851562 Z M 36.460938 33.851562 L 52.863281 50.246094 C 56.863281 45.671875 59.242188 39.910156 59.648438 33.851562 Z M 30.148438 36.460938 L 13.753906 52.863281 C 18.328125 56.863281 24.089844 59.242188 30.148438 59.648438 Z M 33.851562 36.460938 L 33.851562 59.675781 C 39.910156 59.261719 45.671875 56.863281 50.242188 52.855469 Z M 33.851562 36.460938 "/>
</g>
</svg>
