<svg xmlns="http://www.w3.org/2000/svg" xmlns:xlink="http://www.w3.org/1999/xlink" width="64px" height="64px" viewBox="0 0 64 64" version="1.1">
<defs>
<linearGradient id="linear0" gradientUnits="userSpaceOnUse" x1="0" y1="0" x2="0" y2="1" gradientTransform="matrix(35.797297,0,0,7.144144,8.306307,52.53153)">
<stop offset="0" style="stop-color:#00a2ff;stop-opacity:1;"/>
<stop offset="0.5" style="stop-color:#dddddd;stop-opacity:1;"/>
<stop offset="1" style="stop-color:#00ffae;stop-opacity:1;"/>
</linearGradient>
<linearGradient id="linear1" gradientUnits="userSpaceOnUse" x1="0" y1="0" x2="0" y2="1" gradientTransform="matrix(55.351351,0,0,24.409909,4.324324,9.927928)">
<stop offset="0" style="stop-color:#00a2ff;stop-opacity:1;"/>
<stop offset="0.5" style="stop-color:#dddddd;stop-opacity:1;"/>
<stop offset="1" style="stop-color:#00ffae;stop-opacity:1;"/>
</linearGradient>
</defs>
<g id="surface1">
<path style=" stroke:none;fill-rule:nonzero;fill:url(#linear0);" d="M 40.523438 52.53125 C 41.46875 52.53125 42.382812 52.90625 43.054688 53.578125 C 43.726562 54.242188 44.105469 55.152344 44.105469 56.105469 C 44.105469 57.050781 43.726562 57.960938 43.054688 58.625 C 42.378906 59.296875 41.46875 59.675781 40.523438 59.675781 L 11.890625 59.675781 C 10.941406 59.675781 10.03125 59.296875 9.363281 58.625 C 8.6875 57.960938 8.3125 57.050781 8.308594 56.105469 C 8.308594 55.152344 8.6875 54.246094 9.363281 53.578125 C 10.03125 52.910156 10.941406 52.53125 11.890625 52.53125 Z M 40.523438 52.53125 "/>
<path style=" stroke:none;fill-rule:evenodd;fill:url(#linear1);" d="M 9.5625 26.792969 L 9.5625 32.59375 C 9.5625 33.351562 8.945312 33.96875 8.1875 33.96875 L 5.699219 33.96875 C 4.9375 33.96875 4.324219 33.351562 4.324219 32.59375 L 4.324219 11.671875 C 4.324219 10.914062 4.9375 10.296875 5.699219 10.296875 L 8.355469 10.296875 C 9.113281 10.296875 9.882812 10.890625 10.078125 11.625 L 12.585938 21.160156 L 15.164062 11.621094 C 15.363281 10.890625 16.136719 10.296875 16.894531 10.296875 L 19.335938 10.296875 C 20.09375 10.296875 20.707031 10.914062 20.707031 11.671875 L 20.707031 32.59375 C 20.707031 33.351562 20.09375 33.96875 19.335938 33.96875 L 16.839844 33.96875 C 16.085938 33.96875 15.46875 33.351562 15.46875 32.59375 L 15.46875 26.792969 L 13.636719 33.308594 C 13.53125 33.671875 13.136719 33.96875 12.761719 33.96875 L 12.269531 33.96875 C 11.890625 33.96875 11.5 33.671875 11.394531 33.308594 Z M 34.761719 17.566406 C 34.785156 17.71875 34.796875 17.867188 34.796875 18.027344 C 34.796875 18.1875 34.785156 18.355469 34.757812 18.515625 C 34.734375 18.660156 34.699219 18.792969 34.652344 18.921875 C 34.605469 19.050781 34.550781 19.171875 34.484375 19.289062 C 34.40625 19.414062 34.324219 19.53125 34.226562 19.636719 C 34.152344 19.726562 34.070312 19.800781 33.976562 19.867188 C 33.878906 19.941406 33.765625 20.003906 33.648438 20.054688 C 33.503906 20.113281 33.363281 20.152344 33.207031 20.179688 C 32.988281 20.214844 32.757812 20.238281 32.527344 20.238281 L 29.417969 20.238281 L 29.417969 15.8125 L 32.527344 15.8125 C 32.769531 15.8125 33.011719 15.835938 33.257812 15.878906 C 33.410156 15.90625 33.558594 15.949219 33.703125 16.011719 C 33.8125 16.0625 33.917969 16.121094 34.011719 16.191406 C 34.09375 16.261719 34.171875 16.335938 34.238281 16.414062 C 34.335938 16.53125 34.414062 16.664062 34.488281 16.792969 C 34.558594 16.914062 34.613281 17.039062 34.660156 17.164062 C 34.707031 17.296875 34.738281 17.433594 34.761719 17.566406 Z M 53.136719 28.515625 C 53.027344 28.582031 52.914062 28.632812 52.796875 28.671875 C 52.664062 28.714844 52.515625 28.757812 52.375 28.773438 C 52.1875 28.808594 51.988281 28.820312 51.792969 28.820312 C 51.613281 28.820312 51.429688 28.808594 51.253906 28.773438 C 51.078125 28.746094 50.90625 28.707031 50.734375 28.652344 C 50.5625 28.59375 50.390625 28.523438 50.230469 28.4375 C 50.042969 28.339844 49.863281 28.230469 49.699219 28.109375 C 49.363281 27.863281 49.058594 27.578125 48.796875 27.253906 C 48.503906 26.890625 48.261719 26.5 48.0625 26.082031 C 47.957031 25.839844 47.757812 25.664062 47.523438 25.5625 C 47.285156 25.460938 47.011719 25.460938 46.773438 25.554688 L 43.441406 26.789062 C 43.1875 26.878906 42.984375 27.066406 42.867188 27.308594 C 42.753906 27.550781 42.738281 27.828125 42.824219 28.085938 C 42.984375 28.554688 43.179688 29.011719 43.40625 29.449219 C 43.625 29.875 43.875 30.273438 44.152344 30.660156 C 44.433594 31.03125 44.738281 31.382812 45.066406 31.707031 C 45.40625 32.039062 45.773438 32.351562 46.164062 32.632812 C 46.550781 32.910156 46.957031 33.164062 47.382812 33.378906 C 47.796875 33.589844 48.226562 33.765625 48.664062 33.910156 C 49.109375 34.050781 49.566406 34.152344 50.03125 34.226562 C 50.511719 34.296875 50.996094 34.335938 51.484375 34.335938 C 52.042969 34.335938 52.605469 34.292969 53.164062 34.203125 C 53.671875 34.121094 54.171875 33.996094 54.652344 33.824219 C 55.121094 33.664062 55.566406 33.460938 56 33.214844 C 56.429688 32.972656 56.835938 32.6875 57.21875 32.367188 C 57.613281 32.042969 57.96875 31.679688 58.28125 31.28125 C 58.582031 30.886719 58.835938 30.46875 59.039062 30.023438 C 59.253906 29.558594 59.410156 29.070312 59.511719 28.570312 C 59.621094 28.015625 59.675781 27.449219 59.675781 26.886719 C 59.675781 26.363281 59.617188 25.847656 59.503906 25.335938 C 59.394531 24.851562 59.234375 24.382812 59.015625 23.9375 C 58.800781 23.488281 58.53125 23.070312 58.21875 22.6875 C 57.894531 22.289062 57.527344 21.921875 57.125 21.605469 C 56.761719 21.3125 56.386719 21.039062 56.003906 20.765625 C 55.710938 20.558594 55.40625 20.363281 55.09375 20.179688 C 54.789062 20 54.476562 19.828125 54.160156 19.671875 C 53.714844 19.445312 53.273438 19.234375 52.824219 19.027344 C 52.757812 19 52.6875 18.96875 52.621094 18.9375 C 52.460938 18.863281 52.296875 18.792969 52.136719 18.714844 C 51.96875 18.636719 51.800781 18.558594 51.632812 18.484375 C 51.554688 18.445312 51.472656 18.410156 51.394531 18.375 C 51.335938 18.351562 51.273438 18.324219 51.214844 18.296875 C 51.089844 18.234375 50.960938 18.171875 50.835938 18.109375 C 50.707031 18.042969 50.585938 17.984375 50.460938 17.914062 C 50.410156 17.886719 50.363281 17.855469 50.3125 17.828125 C 50.253906 17.792969 50.191406 17.757812 50.136719 17.714844 C 50.042969 17.652344 49.949219 17.59375 49.863281 17.53125 C 49.792969 17.488281 49.730469 17.4375 49.664062 17.382812 C 49.660156 17.378906 49.648438 17.367188 49.644531 17.363281 C 49.597656 17.308594 49.554688 17.253906 49.511719 17.199219 C 49.460938 17.136719 49.414062 17.078125 49.367188 17.011719 C 49.355469 17 49.347656 16.984375 49.339844 16.96875 C 49.335938 16.960938 49.335938 16.949219 49.328125 16.941406 C 49.320312 16.910156 49.3125 16.878906 49.3125 16.839844 C 49.308594 16.808594 49.300781 16.765625 49.300781 16.730469 C 49.300781 16.617188 49.3125 16.503906 49.335938 16.394531 C 49.351562 16.320312 49.375 16.246094 49.410156 16.179688 C 49.4375 16.117188 49.46875 16.058594 49.511719 16.011719 C 49.566406 15.941406 49.625 15.886719 49.6875 15.835938 C 49.761719 15.773438 49.835938 15.726562 49.917969 15.6875 C 50.011719 15.632812 50.105469 15.59375 50.203125 15.558594 C 50.3125 15.523438 50.433594 15.496094 50.550781 15.476562 C 50.707031 15.457031 50.863281 15.441406 51.023438 15.441406 C 51.296875 15.441406 51.570312 15.484375 51.839844 15.554688 C 52.058594 15.613281 52.261719 15.703125 52.445312 15.820312 C 52.648438 15.949219 52.824219 16.105469 52.976562 16.289062 C 53.191406 16.542969 53.378906 16.820312 53.527344 17.121094 C 53.636719 17.347656 53.824219 17.523438 54.054688 17.617188 C 54.285156 17.710938 54.539062 17.71875 54.78125 17.636719 L 58.082031 16.53125 C 58.328125 16.445312 58.539062 16.265625 58.664062 16.03125 C 58.789062 15.796875 58.8125 15.523438 58.738281 15.265625 C 58.625 14.886719 58.488281 14.511719 58.3125 14.160156 C 58.144531 13.808594 57.945312 13.46875 57.71875 13.152344 C 57.488281 12.828125 57.238281 12.523438 56.957031 12.242188 C 56.660156 11.945312 56.335938 11.671875 55.996094 11.421875 C 55.664062 11.179688 55.3125 10.960938 54.945312 10.78125 C 54.585938 10.59375 54.203125 10.4375 53.8125 10.3125 C 53.414062 10.1875 53.003906 10.089844 52.585938 10.027344 C 52.136719 9.960938 51.6875 9.929688 51.238281 9.929688 C 50.664062 9.929688 50.089844 9.972656 49.527344 10.0625 C 49.027344 10.144531 48.539062 10.269531 48.066406 10.441406 C 47.632812 10.597656 47.210938 10.796875 46.8125 11.039062 C 46.417969 11.269531 46.054688 11.539062 45.714844 11.839844 C 45.363281 12.164062 45.039062 12.511719 44.757812 12.890625 C 44.488281 13.253906 44.265625 13.636719 44.085938 14.039062 C 43.902344 14.441406 43.769531 14.863281 43.679688 15.289062 C 43.585938 15.742188 43.539062 16.203125 43.539062 16.664062 C 43.539062 17.164062 43.589844 17.660156 43.691406 18.144531 C 43.789062 18.597656 43.933594 19.039062 44.136719 19.457031 C 44.328125 19.867188 44.582031 20.265625 44.875 20.625 C 45.1875 21.003906 45.542969 21.351562 45.933594 21.652344 C 46.285156 21.921875 46.648438 22.179688 47.011719 22.429688 C 47.296875 22.613281 47.585938 22.789062 47.878906 22.945312 C 48.164062 23.09375 48.445312 23.242188 48.734375 23.378906 C 49.179688 23.59375 49.625 23.796875 50.082031 24 C 50.746094 24.292969 51.394531 24.617188 52.039062 24.976562 C 52.417969 25.191406 52.789062 25.4375 53.136719 25.707031 C 53.292969 25.824219 53.433594 25.960938 53.558594 26.105469 C 53.636719 26.199219 53.710938 26.300781 53.769531 26.414062 C 53.8125 26.5 53.855469 26.59375 53.878906 26.6875 C 53.902344 26.789062 53.914062 26.882812 53.914062 26.976562 C 53.914062 27.160156 53.894531 27.335938 53.863281 27.511719 C 53.839844 27.621094 53.808594 27.738281 53.757812 27.851562 C 53.71875 27.941406 53.671875 28.027344 53.613281 28.113281 C 53.554688 28.1875 53.484375 28.261719 53.410156 28.328125 C 53.324219 28.402344 53.230469 28.460938 53.136719 28.515625 Z M 29.417969 32.59375 L 29.417969 25.753906 L 32.335938 25.753906 C 33.027344 25.753906 33.71875 25.699219 34.394531 25.578125 C 34.960938 25.484375 35.515625 25.320312 36.050781 25.105469 C 36.523438 24.90625 36.976562 24.664062 37.394531 24.375 C 37.808594 24.085938 38.175781 23.761719 38.511719 23.390625 C 38.851562 23.011719 39.160156 22.605469 39.429688 22.171875 C 39.6875 21.761719 39.902344 21.328125 40.078125 20.878906 C 40.246094 20.433594 40.375 19.972656 40.460938 19.511719 C 40.550781 19.015625 40.59375 18.523438 40.59375 18.027344 C 40.59375 17.496094 40.550781 16.960938 40.460938 16.445312 C 40.378906 15.960938 40.246094 15.488281 40.078125 15.027344 C 39.910156 14.585938 39.703125 14.160156 39.457031 13.753906 C 39.199219 13.335938 38.910156 12.945312 38.585938 12.585938 C 38.246094 12.203125 37.855469 11.875 37.429688 11.589844 C 36.96875 11.292969 36.484375 11.042969 35.960938 10.863281 C 35.445312 10.671875 34.910156 10.539062 34.363281 10.449219 C 33.691406 10.347656 33.015625 10.296875 32.335938 10.296875 L 25.058594 10.296875 C 24.300781 10.296875 23.6875 10.914062 23.6875 11.671875 L 23.6875 32.59375 C 23.6875 33.351562 24.300781 33.96875 25.058594 33.96875 L 28.042969 33.96875 C 28.800781 33.96875 29.417969 33.351562 29.417969 32.59375 Z M 29.417969 32.59375 "/>
</g>
</svg>
