<svg xmlns="http://www.w3.org/2000/svg" xmlns:xlink="http://www.w3.org/1999/xlink" width="64px" height="64px" viewBox="0 0 64 64" version="1.1">
<defs>
<linearGradient id="linear0" gradientUnits="userSpaceOnUse" x1="0" y1="0" x2="0" y2="1" gradientTransform="matrix(30.752253,0,0,53.815314,6.054054,4.824324)">
<stop offset="0" style="stop-color:#05f7ff;stop-opacity:1;"/>
<stop offset="0.5" style="stop-color:#dddddd;stop-opacity:1;"/>
<stop offset="1" style="stop-color:#e6ff05;stop-opacity:1;"/>
</linearGradient>
<linearGradient id="linear1" gradientUnits="userSpaceOnUse" x1="0" y1="0" x2="0" y2="1" gradientTransform="matrix(19.22072,0,0,40.360361,38.725226,12.513514)">
<stop offset="0" style="stop-color:#05f7ff;stop-opacity:1;"/>
<stop offset="0.5" style="stop-color:#dddddd;stop-opacity:1;"/>
<stop offset="1" style="stop-color:#e6ff05;stop-opacity:1;"/>
</linearGradient>
</defs>
<g id="surface1">
<path style=" stroke:none;fill-rule:nonzero;fill:url(#linear0);" d="M 34.175781 4.824219 C 24.808594 6.496094 15.429688 8.707031 6.058594 10.347656 C 6.058594 24.605469 6.050781 38.863281 6.058594 53.125 C 15.378906 54.761719 24.707031 56.9375 34.011719 58.636719 L 36.808594 58.636719 L 36.808594 4.824219 Z M 20.078125 21.769531 C 21.921875 21.730469 23.699219 21.996094 25.136719 23.300781 C 27.902344 26.652344 27.171875 32.8125 23.078125 34.820312 C 21.621094 35.5625 19.960938 35.460938 18.375 35.410156 C 18.367188 37.914062 18.363281 40.417969 18.367188 42.921875 C 17.097656 42.8125 15.824219 42.707031 14.558594 42.605469 C 14.5 35.761719 14.488281 29.230469 14.5625 22.386719 C 16.367188 22.164062 18.226562 21.8125 20.078125 21.769531 Z M 19.863281 25.484375 C 19.363281 25.46875 18.839844 25.511719 18.367188 25.539062 C 18.351562 27.6875 18.335938 29.835938 18.472656 31.984375 C 19.746094 31.828125 21.402344 31.957031 22.132812 30.636719 C 22.738281 29.339844 22.773438 27.6875 22.042969 26.433594 C 21.511719 25.691406 20.703125 25.503906 19.863281 25.484375 Z M 19.863281 25.484375 "/>
<path style=" stroke:none;fill-rule:nonzero;fill:url(#linear1);" d="M 38.730469 12.511719 L 38.730469 18.902344 C 39.632812 18.707031 40.609375 18.339844 41.609375 18.285156 L 41.609375 26.929688 L 50.203125 26.929688 C 49.894531 29.550781 48.726562 32.242188 46.414062 33.617188 C 44.148438 35.136719 41.265625 35.160156 38.730469 34.375 C 38.734375 35.625 38.71875 38.164062 38.730469 39.417969 L 54.105469 39.417969 L 54.105469 41.339844 L 38.730469 41.339844 L 38.730469 45.1875 L 54.105469 45.1875 L 54.105469 47.109375 L 38.730469 47.109375 L 38.730469 52.875 L 57.945312 52.875 L 57.945312 12.511719 Z M 43.53125 17.117188 C 47.617188 17.539062 50.996094 20.929688 51.441406 25.003906 L 43.53125 25.003906 Z M 43.53125 17.117188 "/>
</g>
</svg>
