<svg xmlns="http://www.w3.org/2000/svg" xmlns:xlink="http://www.w3.org/1999/xlink" width="64px" height="64px" viewBox="0 0 64 64" version="1.1">
<defs>
<linearGradient id="linear0" gradientUnits="userSpaceOnUse" x1="0" y1="0" x2="0" y2="1" gradientTransform="matrix(30.752253,0,0,53.815314,6.054054,4.824324)">
<stop offset="0" style="stop-color:#00a2ff;stop-opacity:1;"/>
<stop offset="0.5" style="stop-color:#dddddd;stop-opacity:1;"/>
<stop offset="1" style="stop-color:#00ffae;stop-opacity:1;"/>
</linearGradient>
<linearGradient id="linear1" gradientUnits="userSpaceOnUse" x1="0" y1="0" x2="0" y2="1" gradientTransform="matrix(19.22072,0,0,38.436936,38.725226,12.513513)">
<stop offset="0" style="stop-color:#00a2ff;stop-opacity:1;"/>
<stop offset="0.5" style="stop-color:#dddddd;stop-opacity:1;"/>
<stop offset="1" style="stop-color:#00ffae;stop-opacity:1;"/>
</linearGradient>
</defs>
<g id="surface1">
<path style=" stroke:none;fill-rule:nonzero;fill:url(#linear0);" d="M 34.175781 4.824219 C 24.808594 6.496094 15.429688 8.707031 6.058594 10.347656 C 6.058594 24.605469 6.050781 38.863281 6.058594 53.132812 C 15.378906 54.761719 24.707031 56.9375 34.011719 58.636719 L 36.808594 58.636719 L 36.808594 4.824219 Z M 30.554688 22.257812 L 26.234375 40.378906 L 22.6875 40.097656 C 21.878906 36.054688 20.933594 32.03125 20.203125 27.960938 C 19.488281 31.914062 18.558594 35.828125 17.738281 39.753906 C 16.5625 39.6875 15.386719 39.617188 14.207031 39.539062 C 13.1875 34.160156 12 28.8125 11.050781 23.421875 C 12.09375 23.367188 13.148438 23.335938 14.191406 23.292969 C 14.824219 27.1875 15.539062 31.0625 16.089844 34.960938 C 16.949219 30.960938 17.835938 26.960938 18.6875 22.96875 C 19.847656 22.902344 21.011719 22.851562 22.171875 22.789062 C 22.988281 26.914062 23.8125 31.039062 24.699219 35.144531 C 25.386719 30.902344 26.152344 26.671875 26.890625 22.4375 C 28.113281 22.394531 29.335938 22.328125 30.554688 22.253906 Z M 30.554688 22.257812 "/>
<path style=" stroke:none;fill-rule:nonzero;fill:url(#linear1);" d="M 38.726562 12.511719 L 57.945312 12.511719 L 57.945312 50.949219 L 38.726562 50.949219 L 38.726562 47.109375 L 54.105469 47.109375 L 54.105469 45.1875 L 38.726562 45.1875 L 38.726562 41.339844 L 54.105469 41.339844 L 54.105469 39.417969 L 38.726562 39.417969 L 38.726562 35.578125 L 54.105469 35.578125 L 54.105469 33.652344 L 38.726562 33.652344 L 38.726562 29.8125 L 54.105469 29.8125 L 54.105469 27.886719 L 38.726562 27.886719 L 38.726562 24.050781 L 54.105469 24.050781 L 54.105469 22.121094 L 38.726562 22.121094 L 38.726562 18.28125 L 54.105469 18.28125 L 54.105469 16.355469 L 38.726562 16.355469 Z M 38.726562 12.511719 "/>
</g>
</svg>
