<svg xmlns="http://www.w3.org/2000/svg" xmlns:xlink="http://www.w3.org/1999/xlink" width="64px" height="64px" viewBox="0 0 64 64" version="1.1">
<defs>
<linearGradient id="linear0" gradientUnits="userSpaceOnUse" x1="0" y1="0" x2="0" y2="1" gradientTransform="matrix(49.423422,0,0,55.351351,7.288288,4.324324)">
<stop offset="0" style="stop-color:#ffae00;stop-opacity:1;"/>
<stop offset="0.5" style="stop-color:#dddddd;stop-opacity:1;"/>
<stop offset="1" style="stop-color:#6600ff;stop-opacity:1;"/>
</linearGradient>
</defs>
<g id="surface1">
<path style=" stroke:none;fill-rule:evenodd;fill:url(#linear0);" d="M 22.972656 47.789062 C 23.230469 47.8125 23.496094 47.8125 23.761719 47.8125 L 40.238281 47.8125 C 49.328125 47.8125 56.710938 40.433594 56.710938 31.335938 L 56.710938 20.796875 C 56.710938 11.707031 49.328125 4.324219 40.238281 4.324219 L 23.761719 4.324219 C 14.671875 4.324219 7.289062 11.707031 7.289062 20.796875 L 7.289062 31.335938 C 7.289062 32.1875 7.355469 33.023438 7.511719 33.828125 C 7.6875 40.421875 8.808594 49.886719 12.558594 54.164062 C 16.789062 58.984375 26.664062 59.675781 30.648438 59.675781 C 37.738281 59.675781 40.894531 56.902344 40.894531 56.902344 L 40.894531 52.339844 C 40.894531 52.339844 36.621094 53.835938 31.570312 53.746094 C 28.105469 53.6875 25.136719 52.773438 23.644531 50.527344 C 23.105469 49.714844 23.1875 49.003906 22.972656 47.789062 Z M 19.152344 21.125 C 19.152344 19.488281 20.484375 18.164062 22.117188 18.164062 C 23.753906 18.164062 25.082031 19.488281 25.082031 21.125 C 25.082031 22.761719 23.753906 24.089844 22.117188 24.089844 C 20.484375 24.089844 19.152344 22.761719 19.152344 21.125 Z M 19.152344 21.125 "/>
</g>
</svg>
