<svg xmlns="http://www.w3.org/2000/svg" xmlns:xlink="http://www.w3.org/1999/xlink" width="64px" height="64px" viewBox="0 0 64 64" version="1.1">
<defs>
<linearGradient id="linear0" gradientUnits="userSpaceOnUse" x1="0" y1="0" x2="0" y2="1" gradientTransform="matrix(55.351351,0,0,45.288287,4.324324,9.198198)">
<stop offset="0" style="stop-color:#00b7ff;stop-opacity:1;"/>
<stop offset="0.5" style="stop-color:#dddddd;stop-opacity:1;"/>
<stop offset="1" style="stop-color:#ee42d9;stop-opacity:1;"/>
</linearGradient>
</defs>
<g id="surface1">
<path style=" stroke:none;fill-rule:nonzero;fill:url(#linear0);" d="M 47.097656 9.199219 C 52.765625 9.199219 59.675781 15.023438 59.675781 22.253906 C 59.675781 25.355469 58.589844 29.363281 56.773438 31.605469 C 56.378906 32.632812 56.785156 33.472656 56.796875 33.699219 C 56.835938 34.46875 55.160156 34.796875 50.652344 33.347656 C 42.5 30.136719 37.179688 25.542969 34.511719 19.261719 L 29.488281 19.300781 L 29.488281 14.234375 L 34.511719 14.234375 C 34.511719 10.539062 41.433594 9.199219 47.097656 9.199219 Z M 9.355469 14.234375 C 12.136719 14.234375 14.386719 16.488281 14.386719 19.261719 C 14.386719 22.042969 12.136719 24.296875 9.355469 24.296875 C 6.578125 24.296875 4.324219 22.042969 4.324219 19.261719 C 4.324219 16.488281 6.578125 14.234375 9.355469 14.234375 Z M 24.449219 19.261719 L 24.449219 19.300781 C 24.449219 22.09375 26.730469 24.355469 29.523438 24.335938 L 32.160156 24.3125 C 35.785156 30.261719 41.226562 35.050781 48.8125 38.03125 C 48.914062 38.078125 49.011719 38.109375 49.113281 38.144531 C 51.226562 38.824219 52.839844 39.164062 54.449219 39.285156 C 55.417969 44.515625 56.976562 50.96875 59.675781 54.488281 C 59.675781 54.488281 46.246094 54.445312 39.550781 54.488281 L 24.449219 54.488281 C 25.726562 48.988281 34.988281 39.269531 24.449219 39.386719 L 24.511719 36.875 C 21.53125 33.886719 17.796875 30.945312 14.613281 27.824219 C 17.59375 26 19.414062 22.757812 19.421875 19.261719 C 20.03125 19.265625 20.285156 19.257812 20.894531 19.261719 C 23.488281 19.292969 23.09375 19.265625 24.449219 19.261719 Z M 39.550781 34.363281 C 32.46875 34.515625 29.488281 39.386719 29.488281 39.386719 L 39.550781 39.386719 Z M 39.550781 34.363281 "/>
</g>
</svg>
