<svg xmlns="http://www.w3.org/2000/svg" xmlns:xlink="http://www.w3.org/1999/xlink" width="64px" height="64px" viewBox="0 0 64 64" version="1.1">
<defs>
<linearGradient id="linear0" gradientUnits="userSpaceOnUse" x1="0" y1="0" x2="0" y2="1" gradientTransform="matrix(55.351351,0,0,48.432432,4.324324,7.783784)">
<stop offset="0" style="stop-color:#05f7ff;stop-opacity:1;"/>
<stop offset="0.5" style="stop-color:#dddddd;stop-opacity:1;"/>
<stop offset="1" style="stop-color:#e6ff05;stop-opacity:1;"/>
</linearGradient>
<linearGradient id="linear1" gradientUnits="userSpaceOnUse" x1="0" y1="0" x2="0" y2="1" gradientTransform="matrix(44.972973,0,0,34.594595,7.783784,11.243243)">
<stop offset="0" style="stop-color:#05f7ff;stop-opacity:1;"/>
<stop offset="0.5" style="stop-color:#dddddd;stop-opacity:1;"/>
<stop offset="1" style="stop-color:#e6ff05;stop-opacity:1;"/>
</linearGradient>
<linearGradient id="linear2" gradientUnits="userSpaceOnUse" x1="0" y1="0" x2="0" y2="1" gradientTransform="matrix(34.594595,0,0,34.594595,18.162162,21.621622)">
<stop offset="0" style="stop-color:#05f7ff;stop-opacity:1;"/>
<stop offset="0.5" style="stop-color:#dddddd;stop-opacity:1;"/>
<stop offset="1" style="stop-color:#e6ff05;stop-opacity:1;"/>
</linearGradient>
<linearGradient id="linear3" gradientUnits="userSpaceOnUse" x1="0" y1="0" x2="0" y2="1" gradientTransform="matrix(11.099099,0,0,11.099099,44.612612,48.072071)">
<stop offset="0" style="stop-color:#05f7ff;stop-opacity:1;"/>
<stop offset="0.5" style="stop-color:#dddddd;stop-opacity:1;"/>
<stop offset="1" style="stop-color:#e6ff05;stop-opacity:1;"/>
</linearGradient>
</defs>
<g id="surface1">
<path style=" stroke:none;fill-rule:nonzero;fill:url(#linear0);" d="M 18.136719 7.785156 C 13.789062 7.835938 10.605469 7.675781 8 9.117188 C 6.699219 9.835938 5.671875 11.050781 5.105469 12.566406 C 4.53125 14.085938 4.324219 15.886719 4.324219 18.164062 L 4.324219 45.835938 C 4.324219 48.113281 4.53125 49.914062 5.105469 51.433594 C 5.671875 52.949219 6.699219 54.164062 8 54.882812 C 10.605469 56.324219 13.789062 56.164062 18.136719 56.214844 L 23.335938 56.214844 C 19.8125 53.664062 17.117188 50.050781 15.738281 45.835938 L 7.785156 45.835938 L 7.785156 18.164062 C 7.785156 16.113281 8 14.679688 8.335938 13.785156 C 8.675781 12.882812 9.039062 12.5 9.671875 12.148438 C 10.9375 11.449219 13.808594 11.296875 18.164062 11.242188 L 45.835938 11.242188 C 50.191406 11.296875 53.058594 11.449219 54.324219 12.148438 C 54.960938 12.5 55.324219 12.882812 55.664062 13.785156 C 56 14.679688 56.214844 16.113281 56.214844 18.164062 L 56.214844 45.835938 L 54.941406 45.835938 C 54.421875 47.1875 53.808594 48.488281 53.082031 49.707031 L 57.28125 53.90625 C 57.96875 53.234375 58.539062 52.40625 58.894531 51.433594 C 59.46875 49.914062 59.675781 48.113281 59.675781 45.835938 L 59.675781 18.164062 C 59.675781 15.886719 59.46875 14.085938 58.894531 12.566406 C 58.328125 11.050781 57.300781 9.835938 56 9.117188 C 53.394531 7.675781 50.210938 7.835938 45.863281 7.785156 Z M 27.488281 45.835938 C 29.351562 48.164062 32.1875 49.664062 35.460938 49.664062 C 38.734375 49.664062 41.566406 48.164062 43.433594 45.835938 Z M 27.488281 45.835938 "/>
<path style=" stroke:none;fill-rule:nonzero;fill:url(#linear1);" d="M 25.082031 11.242188 L 14.828125 31.742188 L 7.785156 45.835938 L 15.738281 45.835938 C 15.070312 43.8125 14.703125 41.664062 14.703125 39.421875 C 14.703125 31.125 19.660156 23.941406 26.742188 20.632812 C 28.011719 19.132812 29.882812 18.164062 32 18.164062 C 32.960938 18.164062 33.867188 18.355469 34.703125 18.707031 C 34.957031 18.699219 35.203125 18.671875 35.460938 18.671875 C 39.8125 18.671875 43.855469 20.039062 47.203125 22.351562 L 52.757812 11.242188 Z M 37.390625 29.367188 C 36.121094 30.960938 34.191406 32 32 32 C 30.976562 32 30.011719 31.769531 29.144531 31.367188 C 26.757812 33.234375 25.214844 36.109375 25.214844 39.421875 C 25.214844 41.882812 26.085938 44.085938 27.488281 45.835938 L 35.460938 45.835938 L 42.429688 31.90625 C 41.054688 30.636719 39.328125 29.730469 37.390625 29.367188 Z M 37.390625 29.367188 "/>
<path style=" stroke:none;fill-rule:nonzero;fill:url(#linear2);" d="M 35.460938 21.621094 C 25.929688 21.621094 18.164062 29.386719 18.164062 38.917969 C 18.164062 48.449219 25.929688 56.214844 35.460938 56.214844 C 44.988281 56.214844 52.757812 48.449219 52.757812 38.917969 C 52.757812 29.386719 44.988281 21.621094 35.460938 21.621094 Z M 35.460938 25.214844 C 43.042969 25.214844 49.164062 31.335938 49.164062 38.917969 C 49.164062 46.503906 43.042969 52.621094 35.460938 52.621094 C 27.875 52.621094 21.757812 46.503906 21.757812 38.917969 C 21.757812 31.335938 27.875 25.214844 35.460938 25.214844 Z M 35.460938 25.214844 "/>
<path style=" stroke:none;fill-rule:evenodd;fill:url(#linear3);" d="M 47.0625 48.070312 L 44.613281 50.523438 L 53.261719 59.171875 L 55.710938 56.71875 Z M 47.0625 48.070312 "/>
</g>
</svg>
