<svg xmlns="http://www.w3.org/2000/svg" xmlns:xlink="http://www.w3.org/1999/xlink" width="64px" height="64px" viewBox="0 0 64 64" version="1.1">
<defs>
<linearGradient id="linear0" gradientUnits="userSpaceOnUse" x1="0" y1="0" x2="0" y2="1" gradientTransform="matrix(55.351351,0,0,38.054054,4.324324,12.972973)">
<stop offset="0" style="stop-color:#00fff2;stop-opacity:1;"/>
<stop offset="0.5" style="stop-color:#dddddd;stop-opacity:1;"/>
<stop offset="1" style="stop-color:#0062ff;stop-opacity:1;"/>
</linearGradient>
</defs>
<g id="surface1">
<path style=" stroke:none;fill-rule:nonzero;fill:url(#linear0);" d="M 20.441406 12.972656 C 19.4375 12.988281 18.554688 13.671875 18.261719 14.664062 L 11.835938 36.761719 L 4.324219 36.761719 L 4.324219 41.515625 L 13.550781 41.515625 C 14.566406 41.515625 15.460938 40.828125 15.757812 39.824219 L 20.433594 23.753906 L 27.621094 49.3125 C 27.902344 50.296875 28.761719 50.988281 29.757812 51.027344 C 30.753906 51.0625 31.652344 50.4375 32 49.472656 L 36.9375 35.609375 L 39.164062 40.199219 C 39.550781 41.003906 40.351562 41.515625 41.226562 41.515625 L 59.675781 41.515625 L 59.675781 36.761719 L 42.648438 36.761719 L 38.675781 28.5625 C 38.265625 27.714844 37.40625 27.203125 36.488281 27.257812 C 35.566406 27.308594 34.769531 27.917969 34.449219 28.808594 L 30.089844 41.039062 L 22.6875 14.691406 C 22.394531 13.664062 21.476562 12.960938 20.441406 12.972656 Z M 20.441406 12.972656 "/>
</g>
</svg>
