<svg xmlns="http://www.w3.org/2000/svg" xmlns:xlink="http://www.w3.org/1999/xlink" width="64px" height="64px" viewBox="0 0 64 64" version="1.1">
<defs>
<linearGradient id="linear0" gradientUnits="userSpaceOnUse" x1="0" y1="0" x2="0" y2="1" gradientTransform="matrix(55.351351,0,0,27.675676,4.324324,18.162162)">
<stop offset="0" style="stop-color:#ffae00;stop-opacity:1;"/>
<stop offset="0.5" style="stop-color:#dddddd;stop-opacity:1;"/>
<stop offset="1" style="stop-color:#bf1d1d;stop-opacity:1;"/>
</linearGradient>
</defs>
<g id="surface1">
<path style=" stroke:none;fill-rule:nonzero;fill:url(#linear0);" d="M 18.136719 18.164062 C 17.90625 18.164062 17.679688 18.1875 17.460938 18.242188 C 10.164062 18.613281 4.324219 24.609375 4.324219 32 C 4.324219 39.636719 10.527344 45.835938 18.164062 45.835938 L 18.1875 45.835938 C 22.988281 45.835938 26.851562 43.40625 29.675781 40.703125 C 28.347656 39.136719 27.171875 37.441406 26.164062 35.648438 C 26.039062 35.460938 25.933594 35.269531 25.835938 35.066406 C 25.789062 34.996094 25.742188 34.914062 25.699219 34.835938 C 23.746094 36.960938 21.136719 38.917969 18.191406 38.917969 L 18.164062 38.917969 C 14.335938 38.917969 11.242188 35.824219 11.242188 32 C 11.242188 28.175781 14.335938 25.082031 18.164062 25.082031 L 18.1875 25.082031 C 24.269531 25.082031 28.917969 33.511719 28.917969 33.511719 C 29.09375 33.863281 29.324219 34.1875 29.59375 34.460938 C 29.988281 35.1875 30.875 37 33.1875 39.511719 C 35.917969 42.503906 40.164062 45.835938 45.835938 45.835938 C 46.113281 45.839844 46.382812 45.8125 46.648438 45.742188 C 53.878906 45.3125 59.664062 39.351562 59.675781 32.027344 C 59.699219 28.339844 58.238281 24.808594 55.621094 22.214844 C 53.042969 19.613281 49.527344 18.148438 45.863281 18.164062 L 45.835938 18.164062 C 41 18.164062 37.175781 20.511719 34.378906 23.164062 C 35.738281 24.78125 36.9375 26.539062 37.949219 28.390625 C 38.03125 28.511719 38.097656 28.636719 38.164062 28.757812 L 38.300781 29.027344 C 40.160156 27.011719 42.726562 25.082031 45.835938 25.082031 C 49.660156 25.082031 52.757812 28.175781 52.757812 32 C 52.757812 35.824219 49.660156 38.917969 45.835938 38.917969 C 42.972656 38.917969 40.324219 37.050781 38.285156 34.835938 C 36.242188 32.621094 35.121094 30.410156 35.121094 30.410156 C 34.960938 30.097656 34.765625 29.8125 34.527344 29.566406 L 34.511719 29.566406 C 33.769531 27.988281 28.851562 18.164062 18.1875 18.164062 Z M 18.136719 18.164062 "/>
</g>
</svg>
