<svg xmlns="http://www.w3.org/2000/svg" xmlns:xlink="http://www.w3.org/1999/xlink" width="64px" height="64px" viewBox="0 0 64 64" version="1.1">
<defs>
<linearGradient id="linear0" gradientUnits="userSpaceOnUse" x1="0" y1="0" x2="0" y2="1" gradientTransform="matrix(55.351351,0,0,55.355858,4.324324,4.31982)">
<stop offset="0" style="stop-color:#ffae00;stop-opacity:1;"/>
<stop offset="0.5" style="stop-color:#dddddd;stop-opacity:1;"/>
<stop offset="1" style="stop-color:#6600ff;stop-opacity:1;"/>
</linearGradient>
</defs>
<g id="surface1">
<path style=" stroke:none;fill-rule:evenodd;fill:url(#linear0);" d="M 23.757812 4.335938 L 23.761719 4.351562 C 19.238281 4.253906 14.652344 5.363281 13.511719 9.617188 C 13.257812 10.644531 12.851562 12.773438 12.835938 13.761719 L 12.835938 25.324219 L 12.933594 25.324219 C 7.96875 27.117188 4.324219 32.753906 4.324219 39.445312 C 4.324219 46.636719 8.53125 52.558594 14.078125 53.851562 C 14.199219 53.996094 14.367188 54.105469 14.59375 54.105469 L 15.191406 54.105469 C 15.230469 54.105469 15.257812 54.117188 15.292969 54.121094 L 15.292969 54.105469 L 16.40625 54.105469 C 16.789062 54.105469 17.09375 53.824219 17.09375 53.496094 L 17.09375 24.707031 C 17.09375 24.703125 17.089844 24.703125 17.085938 24.699219 C 17.109375 21.039062 17.050781 17.441406 17.085938 13.761719 C 17.238281 11.300781 20.6875 8.550781 23.472656 8.566406 C 23.511719 12.511719 23.414062 16.511719 23.472656 20.433594 C 23.710938 23.625 25.59375 25.597656 29.566406 25.597656 C 31.679688 25.558594 33.8125 25.597656 35.917969 25.597656 C 39.132812 25.039062 40.5 22.363281 40.5 19.214844 L 40.5 8.566406 C 43.417969 8.367188 46.761719 11.144531 46.882812 13.703125 C 46.933594 17.585938 46.867188 21.320312 46.882812 25.164062 C 46.890625 25.164062 46.894531 25.164062 46.90625 25.164062 L 46.90625 53.335938 C 46.90625 53.554688 47.078125 53.710938 47.296875 53.820312 C 46.875 54.335938 46.4375 54.96875 45.835938 55.28125 C 45.515625 55.433594 45.363281 55.433594 44.773438 55.433594 L 38.066406 55.433594 C 37.335938 54.1875 35.386719 53.292969 33.066406 53.292969 C 30.121094 53.292969 27.742188 54.714844 27.742188 56.484375 C 27.742188 58.242188 30.121094 59.675781 33.066406 59.675781 C 35.367188 59.675781 37.3125 58.789062 38.054688 57.5625 L 43.863281 57.5625 C 44.003906 57.5625 44.449219 57.605469 44.742188 57.53125 C 45.511719 57.367188 46.027344 57.09375 46.914062 56.597656 C 47.554688 56.210938 48.863281 54.808594 49.789062 53.785156 C 49.828125 53.757812 49.863281 53.738281 49.890625 53.710938 C 55.445312 52.433594 59.675781 46.5 59.675781 39.296875 C 59.675781 32.644531 56.070312 27.042969 51.148438 25.214844 L 51.148438 13.6875 C 51 12.433594 50.5625 10.824219 49.835938 9.597656 C 47.960938 6 43.578125 4.054688 39.433594 4.351562 C 38.230469 4.210938 36.566406 4.976562 36.238281 6.066406 C 36.261719 10.699219 36.28125 15.449219 36.238281 20.082031 C 36.105469 22.015625 34.710938 23.472656 31.988281 23.472656 C 29.375 23.472656 29.351562 23.164062 28.378906 22.003906 C 27.730469 20.710938 27.808594 18.71875 27.730469 17.078125 C 27.730469 13.3125 27.691406 9.785156 27.730469 6.039062 C 26.449219 4.617188 25.335938 4.4375 23.757812 4.335938 Z M 23.757812 4.335938 "/>
</g>
</svg>
