<svg xmlns="http://www.w3.org/2000/svg" xmlns:xlink="http://www.w3.org/1999/xlink" width="64px" height="64px" viewBox="0 0 64 64" version="1.1">
<defs>
<linearGradient id="linear0" gradientUnits="userSpaceOnUse" x1="0" y1="0" x2="0" y2="1" gradientTransform="matrix(39.072071,0,0,55.351351,12.463965,4.324324)">
<stop offset="0" style="stop-color:#ffae00;stop-opacity:1;"/>
<stop offset="0.5" style="stop-color:#dddddd;stop-opacity:1;"/>
<stop offset="1" style="stop-color:#bf1d1d;stop-opacity:1;"/>
</linearGradient>
</defs>
<g id="surface1">
<path style=" stroke:none;fill-rule:nonzero;fill:url(#linear0);" d="M 22.230469 20.597656 L 22.230469 4.324219 L 12.460938 4.324219 L 12.460938 27.121094 C 12.460938 27.125 12.460938 27.132812 12.460938 27.132812 L 12.460938 59.675781 L 22.230469 59.675781 L 22.230469 44.023438 C 25.113281 45.699219 28.449219 46.660156 32 46.660156 C 35.550781 46.660156 38.886719 45.699219 41.769531 44.023438 L 41.769531 46.648438 L 51.539062 46.648438 L 51.539062 4.324219 L 41.769531 4.324219 L 41.769531 27.117188 C 41.769531 32.613281 37.496094 36.882812 32 36.882812 C 26.503906 36.882812 22.230469 32.613281 22.230469 27.117188 Z M 22.230469 20.597656 "/>
</g>
</svg>
