<svg xmlns="http://www.w3.org/2000/svg" xmlns:xlink="http://www.w3.org/1999/xlink" width="64px" height="64px" viewBox="0 0 64 64" version="1.1">
<defs>
<linearGradient id="linear0" gradientUnits="userSpaceOnUse" x1="0" y1="0" x2="0" y2="1" gradientTransform="matrix(44.972973,0,0,55.351351,9.513514,4.324324)">
<stop offset="0" style="stop-color:#00b7ff;stop-opacity:1;"/>
<stop offset="0.5" style="stop-color:#dddddd;stop-opacity:1;"/>
<stop offset="1" style="stop-color:#ee42d9;stop-opacity:1;"/>
</linearGradient>
</defs>
<g id="surface1">
<path style=" stroke:none;fill-rule:evenodd;fill:url(#linear0);" d="M 52.707031 4.335938 C 52.289062 4.308594 51.792969 4.339844 51.207031 4.390625 L 24.839844 8.554688 C 21.867188 8.863281 21.542969 10.265625 21.570312 12.011719 L 21.570312 47.230469 C 20.058594 46.226562 18.441406 45.511719 16.285156 45.511719 C 13.511719 45.511719 11.851562 46.585938 10.847656 48 C 9.847656 49.417969 9.511719 51.203125 9.511719 52.582031 C 9.511719 54.242188 10.082031 56.015625 11.296875 57.367188 C 12.515625 58.726562 14.390625 59.675781 17.085938 59.675781 C 20.125 59.675781 22.261719 58.820312 23.472656 57.136719 C 24.421875 55.820312 24.957031 54.050781 25.144531 51.875 C 25.164062 51.609375 25.1875 51.335938 25.199219 51.058594 C 25.210938 50.835938 25.210938 50.679688 25.210938 50.421875 L 25.226562 50.421875 L 25.226562 21.929688 C 25.308594 19.636719 27.363281 19.296875 27.363281 19.296875 L 48.769531 15.914062 C 50.824219 15.28125 50.828125 17.851562 50.828125 17.851562 L 50.828125 43.527344 C 49.3125 42.523438 47.699219 41.8125 45.539062 41.8125 C 42.765625 41.8125 41.109375 42.886719 40.109375 44.300781 C 39.105469 45.714844 38.769531 47.503906 38.769531 48.882812 C 38.769531 50.542969 39.335938 52.320312 40.558594 53.671875 C 41.773438 55.027344 43.648438 55.976562 46.339844 55.976562 C 49.382812 55.976562 51.515625 55.117188 52.730469 53.441406 C 53.679688 52.121094 54.210938 50.351562 54.402344 48.175781 C 54.421875 47.910156 54.441406 47.636719 54.457031 47.355469 C 54.46875 47.136719 54.46875 46.984375 54.46875 46.71875 L 54.488281 46.71875 L 54.488281 7.632812 C 54.527344 5.09375 53.96875 4.421875 52.707031 4.335938 Z M 52.707031 4.335938 "/>
</g>
</svg>
