<svg xmlns="http://www.w3.org/2000/svg" xmlns:xlink="http://www.w3.org/1999/xlink" width="64px" height="64px" viewBox="0 0 64 64" version="1.1">
<defs>
<linearGradient id="linear0" gradientUnits="userSpaceOnUse" x1="0" y1="0" x2="0" y2="1" gradientTransform="matrix(47.045044,0,0,55.351351,8.477477,4.324324)">
<stop offset="0" style="stop-color:#ffae00;stop-opacity:1;"/>
<stop offset="0.5" style="stop-color:#dddddd;stop-opacity:1;"/>
<stop offset="1" style="stop-color:#bf1d1d;stop-opacity:1;"/>
</linearGradient>
</defs>
<g id="surface1">
<path style=" stroke:none;fill-rule:evenodd;fill:url(#linear0);" d="M 36.152344 38.773438 C 36.152344 38.835938 36.152344 38.894531 36.160156 38.957031 L 36.152344 38.960938 Z M 36.152344 14.011719 C 36.152344 8.664062 40.488281 4.324219 45.835938 4.324219 C 51.1875 4.324219 55.523438 8.664062 55.523438 14.011719 C 55.523438 19.355469 51.1875 23.699219 45.835938 23.699219 C 40.488281 23.699219 36.152344 19.355469 36.152344 14.011719 Z M 19.542969 14.011719 C 19.542969 9.429688 23.265625 5.707031 27.847656 5.707031 C 32.433594 5.707031 36.152344 9.429688 36.152344 14.011719 C 36.152344 18.59375 32.433594 22.3125 27.847656 22.3125 C 23.265625 22.3125 19.542969 18.59375 19.542969 14.011719 Z M 8.476562 14.011719 C 8.476562 10.957031 10.957031 8.476562 14.011719 8.476562 C 17.066406 8.476562 19.542969 10.957031 19.542969 14.011719 C 19.542969 17.066406 17.066406 19.542969 14.011719 19.542969 C 10.957031 19.542969 8.476562 17.066406 8.476562 14.011719 Z M 36.152344 38.625 C 36.1875 36.148438 37.199219 33.773438 38.988281 32.015625 C 40.808594 30.234375 43.265625 29.234375 45.835938 29.234375 C 48.40625 29.234375 50.867188 30.234375 52.6875 32.023438 C 54.503906 33.808594 55.523438 36.226562 55.523438 38.746094 C 55.523438 38.78125 55.523438 38.8125 55.523438 38.851562 L 55.523438 59.675781 L 36.152344 59.675781 L 36.152344 54.136719 L 19.542969 54.136719 L 19.542969 35.3125 L 19.554688 35.308594 C 19.550781 35.242188 19.542969 35.179688 19.542969 35.113281 C 19.542969 30.335938 23.265625 26.460938 27.847656 26.460938 C 32.4375 26.460938 36.152344 30.335938 36.152344 35.113281 C 36.152344 35.144531 36.152344 35.175781 36.148438 35.207031 L 36.152344 35.210938 Z M 14.011719 23.699219 C 10.949219 23.699219 8.476562 26.40625 8.476562 29.753906 C 8.476562 29.796875 8.476562 29.839844 8.476562 29.886719 L 8.476562 43.070312 L 19.542969 43.070312 L 19.542969 29.824219 L 19.539062 29.8125 C 19.542969 29.796875 19.542969 29.773438 19.542969 29.757812 C 19.542969 28.148438 18.960938 26.609375 17.929688 25.472656 C 16.886719 24.335938 15.484375 23.699219 14.011719 23.699219 Z M 14.011719 23.699219 "/>
</g>
</svg>
