<svg xmlns="http://www.w3.org/2000/svg" xmlns:xlink="http://www.w3.org/1999/xlink" width="64px" height="64px" viewBox="0 0 64 64" version="1.1">
<defs>
<linearGradient id="linear0" gradientUnits="userSpaceOnUse" x1="0" y1="0" x2="0" y2="1" gradientTransform="matrix(48.594595,0,0,55.351351,7.702704,4.324324)">
<stop offset="0" style="stop-color:#00fff2;stop-opacity:1;"/>
<stop offset="0.5" style="stop-color:#dddddd;stop-opacity:1;"/>
<stop offset="1" style="stop-color:#0062ff;stop-opacity:1;"/>
</linearGradient>
</defs>
<g id="surface1">
<path style=" stroke:none;fill-rule:nonzero;fill:url(#linear0);" d="M 52.09375 59.675781 L 9.917969 59.675781 C 9.011719 59.675781 7.703125 59.042969 7.703125 57.902344 C 7.703125 57.636719 7.792969 57.390625 7.960938 57.191406 C 14.902344 48.890625 21.839844 40.636719 29.175781 31.988281 C 22.121094 23.355469 15.042969 14.738281 7.957031 6.136719 C 7.6875 5.808594 7.625 5.347656 7.808594 4.960938 C 7.988281 4.570312 8.382812 4.324219 8.8125 4.324219 L 51.875 4.324219 C 52.484375 4.324219 52.984375 4.820312 52.984375 5.433594 L 52.984375 18.164062 C 52.984375 18.773438 52.484375 19.269531 51.875 19.269531 L 50.4375 19.269531 C 49.300781 19.269531 48.605469 18.734375 48.363281 17.671875 C 48.308594 17.46875 48.265625 17.269531 48.234375 17.070312 C 48.214844 16.960938 48.203125 16.851562 48.164062 16.742188 C 46.839844 12.328125 46.40625 10.855469 40.6875 10.855469 C 36.734375 10.945312 29.949219 10.960938 26.339844 10.96875 L 29.894531 15.636719 C 33.230469 20 36.488281 24.285156 40.015625 28.890625 C 40.328125 29.300781 40.324219 29.875 40 30.269531 L 23.996094 49.710938 L 43.488281 49.714844 C 46.96875 49.714844 49.3125 48.203125 50.632812 45.070312 C 50.671875 44.941406 50.773438 44.726562 50.882812 44.515625 C 50.945312 44.390625 51.003906 44.28125 51.050781 44.160156 C 51.585938 42.296875 53.003906 41.160156 54.820312 41.160156 C 55.179688 41.160156 55.40625 41.207031 55.40625 41.207031 C 55.988281 41.335938 56.390625 41.910156 56.28125 42.503906 L 53.1875 58.773438 C 53.085938 59.296875 52.625 59.675781 52.09375 59.675781 Z M 52.09375 59.675781 "/>
</g>
</svg>
