<svg xmlns="http://www.w3.org/2000/svg" xmlns:xlink="http://www.w3.org/1999/xlink" width="64px" height="64px" viewBox="0 0 64 64" version="1.1">
<defs>
<linearGradient id="linear0" gradientUnits="userSpaceOnUse" x1="0" y1="0" x2="0" y2="1" gradientTransform="matrix(55.351351,0,0,49.441443,4.324324,7.27928)">
<stop offset="0" style="stop-color:#ffae00;stop-opacity:1;"/>
<stop offset="0.5" style="stop-color:#dddddd;stop-opacity:1;"/>
<stop offset="1" style="stop-color:#6600ff;stop-opacity:1;"/>
</linearGradient>
</defs>
<g id="surface1">
<path style=" stroke:none;fill-rule:nonzero;fill:url(#linear0);" d="M 17.875 56.71875 L 4.8125 34.039062 C 4.164062 32.90625 4.164062 31.070312 4.8125 29.945312 L 16.632812 9.449219 C 17.285156 8.320312 18.867188 7.402344 20.171875 7.394531 L 29.609375 7.367188 C 30.910156 7.363281 32.496094 8.28125 33.148438 9.40625 L 44.960938 29.800781 C 45.617188 30.929688 46.144531 30.785156 46.144531 29.484375 L 46.144531 7.28125 L 59.1875 30.003906 C 59.835938 31.136719 59.835938 32.96875 59.1875 34.097656 L 47.59375 54.28125 C 46.851562 55.566406 45.039062 56.617188 43.554688 56.617188 L 34.367188 56.617188 C 33.066406 56.617188 31.488281 55.699219 30.839844 54.566406 L 19.164062 34.082031 C 18.433594 32.789062 17.835938 32.945312 17.835938 34.433594 Z M 17.875 56.71875 "/>
</g>
</svg>
