<svg xmlns="http://www.w3.org/2000/svg" xmlns:xlink="http://www.w3.org/1999/xlink" width="64px" height="64px" viewBox="0 0 64 64" version="1.1">
<defs>
<linearGradient id="linear0" gradientUnits="userSpaceOnUse" x1="0" y1="0" x2="0" y2="1" gradientTransform="matrix(55.351351,0,0,54.171172,4.324324,4.914415)">
<stop offset="0" style="stop-color:#ff8963;stop-opacity:1;"/>
<stop offset="0.5" style="stop-color:#dddddd;stop-opacity:1;"/>
<stop offset="1" style="stop-color:#0F6FFF;stop-opacity:1;"/>
</linearGradient>
</defs>
<g id="surface1">
<path style=" stroke:none;fill-rule:nonzero;fill:url(#linear0);" d="M 8.328125 32.929688 L 8.613281 34.8125 L 4.835938 35.382812 L 4.554688 33.488281 C 4.402344 32.46875 4.324219 31.433594 4.324219 30.390625 C 4.328125 28.789062 4.5 27.1875 4.835938 25.613281 C 5.164062 24.054688 5.636719 22.523438 6.234375 21.039062 C 7.410156 18.132812 9.011719 15.417969 11.003906 12.996094 C 11.945312 11.839844 12.960938 10.761719 14.066406 9.765625 C 15.109375 8.824219 16.230469 7.976562 17.421875 7.238281 C 18.527344 6.539062 19.714844 5.972656 20.957031 5.550781 C 22.132812 5.136719 23.363281 4.929688 24.605469 4.914062 C 25.300781 4.914062 26 4.988281 26.675781 5.144531 C 27.363281 5.300781 28.015625 5.554688 28.636719 5.878906 C 29.617188 6.378906 30.503906 7.03125 31.289062 7.800781 C 32.011719 8.527344 32.617188 9.363281 33.082031 10.28125 C 33.523438 11.171875 33.839844 12.117188 34.027344 13.089844 C 34.214844 14.066406 34.308594 15.0625 34.300781 16.058594 C 34.300781 16.785156 34.261719 17.511719 34.1875 18.230469 C 34.109375 18.972656 34.003906 19.707031 33.867188 20.445312 C 33.511719 22.4375 33.027344 24.410156 32.429688 26.347656 C 30.589844 26.285156 28.746094 26.417969 26.9375 26.746094 C 25.757812 26.960938 24.59375 27.28125 23.460938 27.699219 C 22.460938 28.078125 21.503906 28.539062 20.59375 29.097656 C 19.765625 29.609375 18.996094 30.199219 18.289062 30.863281 C 16.996094 32.082031 15.96875 33.554688 15.273438 35.1875 C 14.617188 36.761719 14.28125 38.449219 14.28125 40.160156 C 14.28125 41.835938 14.589844 43.484375 15.203125 45.039062 C 15.839844 46.679688 16.785156 48.1875 17.96875 49.488281 C 19.289062 50.929688 20.863281 52.109375 22.613281 52.988281 C 23.589844 53.484375 24.613281 53.894531 25.664062 54.210938 C 26.828125 54.566406 28.015625 54.824219 29.21875 54.988281 C 30.566406 55.171875 31.917969 55.265625 33.273438 55.269531 C 34.582031 55.269531 35.886719 55.175781 37.179688 54.988281 C 38.386719 54.8125 39.582031 54.550781 40.746094 54.199219 C 41.828125 53.867188 42.878906 53.457031 43.902344 52.960938 C 44.835938 52.5 45.734375 51.960938 46.578125 51.347656 C 47.351562 50.78125 48.066406 50.144531 48.71875 49.4375 C 49.320312 48.789062 49.839844 48.078125 50.28125 47.308594 C 50.691406 46.589844 51.011719 45.824219 51.234375 45.027344 C 51.449219 44.238281 51.558594 43.429688 51.558594 42.617188 C 51.542969 41.355469 51.300781 40.105469 50.835938 38.929688 C 50.566406 38.246094 50.238281 37.597656 49.863281 36.972656 C 49.433594 36.269531 48.957031 35.597656 48.429688 34.960938 C 47.828125 34.242188 47.175781 33.558594 46.488281 32.917969 C 45.699219 32.191406 44.867188 31.511719 44.011719 30.878906 C 43.023438 30.160156 42.003906 29.488281 40.957031 28.863281 C 39.417969 27.957031 37.835938 27.136719 36.203125 26.402344 C 36.1875 25.082031 36.28125 23.765625 36.5 22.460938 C 36.652344 21.554688 36.851562 20.652344 37.09375 19.765625 C 37.566406 17.984375 38.230469 16.253906 39.058594 14.605469 C 39.445312 13.828125 39.882812 13.082031 40.367188 12.363281 C 40.820312 11.6875 41.335938 11.058594 41.90625 10.484375 C 42.445312 9.921875 43.070312 9.449219 43.753906 9.082031 C 44.472656 8.6875 45.269531 8.476562 46.085938 8.460938 C 46.414062 8.460938 46.746094 8.5 47.066406 8.566406 C 48.039062 8.789062 48.960938 9.136719 49.835938 9.613281 C 50.707031 10.09375 51.527344 10.675781 52.273438 11.339844 C 53.050781 12.023438 53.761719 12.773438 54.402344 13.589844 C 55.0625 14.433594 55.664062 15.324219 56.199219 16.257812 C 57.3125 18.210938 58.164062 20.300781 58.746094 22.472656 C 59.355469 24.699219 59.664062 26.988281 59.675781 29.292969 C 59.6875 31.214844 59.4375 33.136719 58.933594 34.988281 L 58.429688 36.828125 L 54.742188 35.824219 L 55.246094 33.976562 C 55.664062 32.457031 55.867188 30.886719 55.855469 29.3125 C 55.851562 27.339844 55.582031 25.375 55.0625 23.46875 C 54.566406 21.609375 53.835938 19.820312 52.882812 18.144531 C 52.441406 17.378906 51.945312 16.648438 51.394531 15.949219 C 50.902344 15.320312 50.347656 14.730469 49.738281 14.191406 C 49.207031 13.714844 48.621094 13.308594 47.996094 12.960938 C 47.441406 12.664062 46.851562 12.4375 46.242188 12.292969 C 46.203125 12.285156 46.160156 12.28125 46.121094 12.28125 C 45.933594 12.292969 45.742188 12.335938 45.582031 12.429688 C 45.230469 12.621094 44.90625 12.863281 44.636719 13.152344 C 44.226562 13.5625 43.863281 14.011719 43.539062 14.496094 C 43.144531 15.078125 42.789062 15.6875 42.46875 16.3125 C 41.757812 17.738281 41.191406 19.230469 40.773438 20.765625 C 40.566406 21.53125 40.394531 22.308594 40.269531 23.09375 C 40.210938 23.414062 40.164062 23.734375 40.132812 24.058594 C 41.066406 24.539062 41.988281 25.042969 42.894531 25.582031 C 44.054688 26.261719 45.175781 27.003906 46.261719 27.796875 C 47.242188 28.515625 48.1875 29.292969 49.078125 30.113281 C 49.890625 30.863281 50.652344 31.664062 51.363281 32.515625 C 52.011719 33.296875 52.597656 34.125 53.125 34.988281 C 53.613281 35.796875 54.03125 36.644531 54.378906 37.515625 C 55.03125 39.136719 55.363281 40.863281 55.375 42.609375 C 55.375 43.765625 55.21875 44.917969 54.914062 46.039062 C 54.605469 47.148438 54.164062 48.214844 53.589844 49.210938 C 53.011719 50.21875 52.3125 51.164062 51.527344 52.027344 C 50.707031 52.914062 49.800781 53.71875 48.828125 54.433594 C 47.796875 55.179688 46.710938 55.835938 45.570312 56.386719 C 44.375 56.972656 43.132812 57.460938 41.851562 57.851562 C 40.503906 58.261719 39.125 58.5625 37.730469 58.769531 C 36.253906 58.984375 34.761719 59.085938 33.269531 59.085938 C 31.738281 59.082031 30.214844 58.984375 28.710938 58.769531 C 27.300781 58.582031 25.910156 58.28125 24.554688 57.863281 C 23.292969 57.484375 22.066406 56.988281 20.890625 56.402344 C 18.734375 55.3125 16.789062 53.847656 15.160156 52.066406 C 13.648438 50.417969 12.457031 48.511719 11.636719 46.429688 C 10.863281 44.433594 10.460938 42.3125 10.460938 40.164062 C 10.460938 37.941406 10.894531 35.753906 11.757812 33.707031 C 12.660156 31.582031 13.996094 29.664062 15.675781 28.085938 C 16.566406 27.242188 17.550781 26.488281 18.59375 25.847656 C 19.714844 25.164062 20.894531 24.582031 22.136719 24.121094 C 23.472656 23.625 24.855469 23.246094 26.261719 22.988281 C 27.335938 22.792969 28.417969 22.664062 29.511719 22.585938 C 29.738281 21.648438 29.945312 20.710938 30.113281 19.765625 C 30.230469 19.125 30.324219 18.484375 30.386719 17.835938 C 30.445312 17.238281 30.484375 16.636719 30.484375 16.039062 C 30.488281 15.292969 30.421875 14.542969 30.28125 13.8125 C 30.160156 13.179688 29.949219 12.5625 29.664062 11.988281 C 29.386719 11.445312 29.027344 10.941406 28.59375 10.503906 C 28.085938 10.011719 27.511719 9.585938 26.875 9.265625 C 26.539062 9.085938 26.179688 8.949219 25.8125 8.863281 C 25.421875 8.773438 25.027344 8.730469 24.636719 8.730469 C 23.800781 8.738281 22.984375 8.882812 22.199219 9.160156 C 21.230469 9.488281 20.308594 9.929688 19.449219 10.46875 C 18.449219 11.09375 17.503906 11.800781 16.636719 12.597656 C 15.671875 13.460938 14.773438 14.40625 13.960938 15.410156 C 12.214844 17.539062 10.800781 19.914062 9.773438 22.472656 C 9.257812 23.746094 8.855469 25.0625 8.566406 26.40625 C 8.292969 27.71875 8.148438 29.054688 8.144531 30.402344 C 8.144531 31.246094 8.203125 32.09375 8.328125 32.929688 Z M 8.328125 32.929688 "/>
</g>
</svg>
