<svg xmlns="http://www.w3.org/2000/svg" xmlns:xlink="http://www.w3.org/1999/xlink" width="64px" height="64px" viewBox="0 0 64 64" version="1.1">
<defs>
<linearGradient id="linear0" gradientUnits="userSpaceOnUse" x1="0" y1="0" x2="0" y2="1" gradientTransform="matrix(37.621622,0,0,48.436936,13.189189,7.783784)">
<stop offset="0" style="stop-color:#ffae00;stop-opacity:1;"/>
<stop offset="0.5" style="stop-color:#dddddd;stop-opacity:1;"/>
<stop offset="1" style="stop-color:#bf1d1d;stop-opacity:1;"/>
</linearGradient>
</defs>
<g id="surface1">
<path style=" stroke:none;fill-rule:nonzero;fill:url(#linear0);" d="M 34.421875 12.378906 C 33.46875 14.394531 31.664062 15.199219 29.414062 15.109375 C 26.199219 14.976562 23.121094 16.808594 21.203125 19.410156 C 19.988281 21.066406 18.449219 23.164062 16.175781 22.8125 C 14.234375 22.511719 12 23.902344 13.933594 25.753906 C 15.28125 27.050781 17.328125 26.941406 18.558594 28.265625 C 20.890625 30.769531 24.355469 31.726562 27.675781 32.039062 C 28.1875 35.46875 30.089844 39.6875 33.761719 40.1875 C 37.082031 40.636719 34.320312 36.8125 34.613281 34.960938 C 35.066406 32.136719 37.289062 34.308594 38.621094 34.902344 C 40.339844 35.671875 42.132812 36.796875 42.957031 38.496094 C 44.414062 41.5 39.9375 39.882812 38.714844 41.121094 C 37.238281 42.625 38.792969 45.246094 40.367188 46.230469 C 42.105469 47.308594 43.550781 48.664062 44.136719 50.726562 C 44.660156 52.527344 45.003906 57.402344 47.449219 55.957031 C 49.785156 54.570312 50.050781 51.1875 50.347656 48.570312 C 50.636719 46.023438 50.421875 43.386719 49.347656 41.011719 C 52.152344 35.09375 50.738281 27.8125 46.6875 22.820312 C 45.289062 21.089844 43.664062 19.523438 41.761719 18.363281 C 43.058594 16.863281 43.363281 14.648438 42.503906 12.949219 C 41.488281 10.933594 45.550781 8.085938 42.191406 7.808594 C 39.105469 7.542969 36.3125 9.710938 34.570312 12.203125 C 32.886719 14.605469 34.515625 12.265625 34.496094 12.292969 C 34.46875 12.324219 35.242188 10.664062 34.421875 12.378906 Z M 34.421875 12.378906 "/>
</g>
</svg>
