<svg xmlns="http://www.w3.org/2000/svg" xmlns:xlink="http://www.w3.org/1999/xlink" width="64px" height="64px" viewBox="0 0 64 64" version="1.1">
<defs>
<linearGradient id="linear0" gradientUnits="userSpaceOnUse" x1="0" y1="0" x2="0" y2="1" gradientTransform="matrix(25.833334,0,0,55.351351,18.162162,4.324324)">
<stop offset="0" style="stop-color:#00b7ff;stop-opacity:1;"/>
<stop offset="0.5" style="stop-color:#dddddd;stop-opacity:1;"/>
<stop offset="1" style="stop-color:#ee42d9;stop-opacity:1;"/>
</linearGradient>
</defs>
<g id="surface1">
<path style=" stroke:none;fill-rule:nonzero;fill:url(#linear0);" d="M 28.328125 4.324219 C 26.789062 4.324219 25.539062 5.796875 25.539062 7.625 L 25.539062 12.09375 C 25.539062 12.265625 25.5625 12.429688 25.582031 12.589844 C 21.210938 14.015625 18.179688 17.125 18.164062 20.929688 L 18.164062 57.039062 C 18.164062 58.5 19.3125 59.675781 20.746094 59.675781 L 41.410156 59.675781 C 42.835938 59.675781 43.996094 58.5 43.996094 57.039062 L 43.996094 20.929688 L 43.988281 20.929688 C 43.976562 17.125 40.941406 14.015625 36.570312 12.589844 C 36.589844 12.429688 36.613281 12.265625 36.613281 12.09375 L 36.613281 7.625 C 36.613281 5.796875 35.367188 4.324219 33.828125 4.324219 Z M 31.078125 30.160156 C 31.8125 30.160156 32.511719 30.589844 33.039062 31.367188 C 33.554688 32.148438 33.839844 33.203125 33.839844 34.308594 C 33.839844 34.429688 33.839844 34.550781 33.835938 34.664062 L 38.042969 30.367188 L 39.027344 31.324219 L 32.917969 37.558594 L 38.460938 37.558594 L 38.460938 38.917969 L 33.96875 38.917969 C 34.363281 39.582031 34.625 40.363281 34.71875 41.199219 L 39.027344 45.589844 L 38.042969 46.542969 L 34.652344 43.085938 C 34.242188 45.242188 32.769531 46.757812 31.078125 46.761719 C 29.382812 46.757812 27.910156 45.242188 27.5 43.085938 L 24.109375 46.542969 L 23.132812 45.589844 L 27.433594 41.199219 C 27.527344 40.363281 27.789062 39.582031 28.1875 38.917969 L 23.699219 38.917969 L 23.699219 37.558594 L 29.238281 37.558594 L 23.132812 31.324219 L 24.109375 30.367188 L 28.324219 34.664062 C 28.3125 34.550781 28.3125 34.429688 28.3125 34.308594 C 28.3125 32.011719 29.550781 30.160156 31.078125 30.160156 Z M 31.078125 30.160156 "/>
</g>
</svg>
