<svg xmlns="http://www.w3.org/2000/svg" xmlns:xlink="http://www.w3.org/1999/xlink" width="64px" height="64px" viewBox="0 0 64 64" version="1.1">
<defs>
<linearGradient id="linear0" gradientUnits="userSpaceOnUse" x1="0" y1="0" x2="0" y2="1" gradientTransform="matrix(52.792794,0,0,55.351351,5.603604,4.324324)">
<stop offset="0" style="stop-color:#ffae00;stop-opacity:1;"/>
<stop offset="0.5" style="stop-color:#dddddd;stop-opacity:1;"/>
<stop offset="1" style="stop-color:#bf1d1d;stop-opacity:1;"/>
</linearGradient>
</defs>
<g id="surface1">
<path style=" stroke:none;fill-rule:evenodd;fill:url(#linear0);" d="M 36.636719 59.675781 C 41.105469 59.542969 45.234375 56.679688 46.738281 52.191406 C 48.664062 46.449219 45.578125 40.226562 39.835938 38.296875 C 39.164062 38.070312 38.496094 37.914062 37.824219 37.820312 C 37.488281 37.792969 37.152344 37.714844 36.8125 37.625 C 35.457031 37.171875 34.46875 36.089844 34.0625 34.8125 C 33.648438 33.863281 33.566406 32.761719 33.921875 31.699219 C 34.105469 31.160156 34.375 30.675781 34.726562 30.269531 C 34.753906 30.242188 34.785156 30.203125 34.8125 30.164062 C 34.839844 30.136719 34.875 30.097656 34.90625 30.070312 C 37.300781 27.894531 38.949219 24.921875 39.429688 21.566406 C 39.460938 21.367188 39.515625 21.179688 39.582031 20.988281 C 40.335938 18.71875 42.785156 17.488281 45.054688 18.242188 C 45.445312 18.375 45.796875 18.566406 46.121094 18.773438 L 46.136719 18.773438 C 46.710938 19.160156 47.339844 19.472656 48.03125 19.703125 C 52.164062 21.066406 56.632812 18.824219 57.996094 14.6875 C 59.363281 10.558594 57.117188 6.089844 52.988281 4.726562 C 49.125 3.449219 44.972656 5.3125 43.328125 8.9375 C 42.484375 11.039062 40.121094 12.160156 37.9375 11.433594 C 37.152344 11.171875 36.5 10.714844 36.003906 10.125 C 33.390625 7.171875 29.582031 5.3125 25.335938 5.3125 C 17.484375 5.3125 11.117188 11.691406 11.117188 19.542969 C 11.117188 22.488281 12.015625 25.210938 13.542969 27.476562 C 14.003906 28.285156 14.214844 29.226562 14.078125 30.210938 C 13.988281 30.875 13.753906 31.488281 13.40625 32.011719 L 12.515625 33.203125 C 11.882812 33.972656 11 34.511719 10.011719 34.707031 L 9.996094 34.71875 C 7.78125 35.175781 5.988281 36.988281 5.660156 39.351562 C 5.238281 42.355469 7.328125 45.125 10.328125 45.539062 C 13.335938 45.960938 16.117188 43.867188 16.539062 40.867188 C 16.621094 40.253906 16.605469 39.636719 16.488281 39.058594 C 16.441406 38.679688 16.4375 38.300781 16.488281 37.90625 C 16.585938 37.21875 16.839844 36.585938 17.207031 36.054688 L 18.0625 34.886719 C 18.988281 33.78125 20.441406 33.160156 21.984375 33.375 C 22.054688 33.378906 22.132812 33.402344 22.207031 33.402344 C 23.050781 33.597656 23.910156 33.691406 24.800781 33.738281 C 24.863281 33.738281 24.914062 33.742188 24.972656 33.753906 C 25.027344 33.753906 25.085938 33.753906 25.144531 33.753906 C 25.484375 33.78125 25.820312 33.839844 26.152344 33.949219 C 27.511719 34.40625 28.484375 35.460938 28.890625 36.730469 C 29.3125 37.6875 29.40625 38.789062 29.042969 39.855469 C 28.886719 40.324219 28.644531 40.761719 28.355469 41.136719 C 27.296875 42.253906 26.460938 43.617188 25.941406 45.175781 C 24.011719 50.917969 27.109375 57.144531 32.847656 59.070312 C 34.105469 59.488281 35.386719 59.664062 36.636719 59.636719 Z M 36.226562 56.09375 C 35.5 56.082031 34.773438 55.960938 34.050781 55.714844 C 30.191406 54.421875 28.109375 50.242188 29.40625 46.382812 C 30.703125 42.527344 34.882812 40.441406 38.738281 41.738281 C 42.597656 43.03125 44.679688 47.210938 43.382812 51.070312 C 42.335938 54.207031 39.367188 56.164062 36.226562 56.09375 Z M 11.269531 43.324219 C 11.058594 43.335938 10.855469 43.324219 10.636719 43.296875 C 8.894531 43.066406 7.671875 41.445312 7.914062 39.703125 C 8.160156 37.960938 9.765625 36.753906 11.511719 36.988281 C 13.253906 37.21875 14.472656 38.839844 14.234375 40.585938 C 14.015625 42.113281 12.746094 43.226562 11.269531 43.324219 Z M 25.335938 29.613281 C 19.785156 29.613281 15.285156 25.113281 15.285156 19.5625 C 15.285156 14.011719 19.785156 9.496094 25.335938 9.496094 C 30.886719 9.496094 35.394531 14.011719 35.394531 19.5625 C 35.394531 25.113281 30.886719 29.613281 25.335938 29.613281 Z M 50.699219 17.078125 C 50.539062 17.085938 50.375 17.070312 50.207031 17.0625 C 47.53125 16.902344 45.476562 14.617188 45.632812 11.941406 C 45.785156 9.261719 48.078125 7.226562 50.753906 7.378906 C 53.433594 7.539062 55.484375 9.824219 55.328125 12.5 C 55.1875 15.011719 53.160156 16.96875 50.699219 17.078125 Z M 50.699219 17.078125 "/>
</g>
</svg>
