<svg xmlns="http://www.w3.org/2000/svg" xmlns:xlink="http://www.w3.org/1999/xlink" width="64px" height="64px" viewBox="0 0 64 64" version="1.1">
<defs>
<linearGradient id="linear0" gradientUnits="userSpaceOnUse" x1="0" y1="128" x2="128" y2="0" gradientTransform="matrix(0.432432,0,0,0.432432,4.324324,4.324324)">
<stop offset="0" style="stop-color:rgb(85.882354%,85.882354%,85.882354%);stop-opacity:1;"/>
<stop offset="0.5" style="stop-color:#dddddd;stop-opacity:1;"/>
<stop offset="1" style="stop-color:rgb(45.882353%,45.882353%,45.882353%);stop-opacity:1;"/>
</linearGradient>
</defs>
<g id="surface1">
<path style=" stroke:none;fill-rule:nonzero;fill:url(#linear0);" d="M 32 7.933594 C 18.691406 7.933594 7.933594 18.6875 7.933594 32 C 7.933594 45.3125 18.691406 56.066406 32 56.066406 C 45.308594 56.066406 56.066406 45.3125 56.066406 32 C 56.066406 18.6875 45.308594 7.933594 32 7.933594 Z M 32 10.9375 C 36.582031 10.9375 40.808594 12.367188 44.253906 14.816406 C 52.039062 30.898438 23.710938 27.988281 34.90625 11.34375 C 28.914062 15.726562 25.328125 17.855469 26.339844 22.453125 C 33.257812 23.871094 41.871094 25.953125 40.9375 31.84375 C 40.671875 33.527344 39.125 36.757812 35.3125 40.484375 C 26.09375 42.9375 19.898438 34.664062 26.3125 22.515625 C 23.890625 24.433594 20.113281 26.5625 19.089844 29.589844 C 19.019531 29.644531 18.941406 29.6875 18.871094 29.746094 C 18.976562 30.449219 19.230469 33.054688 19.6875 33.59375 C 22.539062 36.863281 26.601562 42.617188 20.871094 43.078125 C 18.558594 41.433594 16.957031 38.792969 17.089844 36.882812 C 17.183594 35.578125 17.988281 31.640625 18.8125 29.839844 C 16.449219 31.746094 14.945312 33.957031 14.246094 36.289062 C 13.984375 34.46875 14.015625 32.636719 14.152344 31.28125 C 12.628906 33.371094 11.855469 35.460938 11.652344 37.476562 C 11.1875 35.734375 10.933594 33.898438 10.933594 32 C 10.933594 20.296875 20.300781 10.9375 32 10.9375 Z M 18.8125 29.839844 C 18.835938 29.816406 18.84375 29.769531 18.871094 29.746094 C 18.867188 29.730469 18.875 29.664062 18.871094 29.652344 C 18.847656 29.707031 18.835938 29.785156 18.8125 29.839844 Z M 49.660156 20.511719 C 51.738281 23.714844 52.996094 27.511719 53.066406 31.625 C 52.832031 30.488281 52.480469 29.335938 52.003906 28.183594 C 52.144531 29.585938 52.757812 31.078125 53.066406 32.53125 C 53.039062 33.761719 52.890625 34.960938 52.664062 36.132812 C 52.320312 36.652344 51.804688 37.152344 51.066406 37.601562 C 49.105469 35.570312 47.242188 31.59375 48.128906 30.121094 C 44 34.480469 51.742188 39.351562 45.722656 40.324219 C 45.007812 40.324219 43.316406 40.085938 42.9375 35.664062 C 42.5625 31.238281 44.265625 27.539062 48.566406 23.457031 C 49.375 22.488281 49.691406 21.484375 49.660156 20.511719 Z M 32 25.085938 C 28.210938 25.085938 25.089844 28.207031 25.089844 32 C 25.089844 35.792969 28.210938 38.914062 32 38.914062 C 35.789062 38.914062 38.910156 35.792969 38.910156 32 C 38.910156 28.207031 35.789062 25.085938 32 25.085938 Z M 32 28.085938 C 34.136719 28.085938 35.90625 29.863281 35.90625 32 C 35.90625 34.136719 34.136719 35.914062 32 35.914062 C 29.863281 35.914062 28.09375 34.136719 28.09375 32 C 28.09375 29.863281 29.863281 28.085938 32 28.085938 Z M 32 28.085938 "/>
</g>
</svg>
