<svg xmlns="http://www.w3.org/2000/svg" xmlns:xlink="http://www.w3.org/1999/xlink" width="64px" height="64px" viewBox="0 0 64 64" version="1.1">
<defs>
<linearGradient id="linear0" gradientUnits="userSpaceOnUse" x1="0" y1="0" x2="0" y2="1" gradientTransform="matrix(55.351351,0,0,46.46847,4.324324,8.765765)">
<stop offset="0" style="stop-color:#ffae00;stop-opacity:1;"/>
<stop offset="0.5" style="stop-color:#dddddd;stop-opacity:1;"/>
<stop offset="1" style="stop-color:#6600ff;stop-opacity:1;"/>
</linearGradient>
</defs>
<g id="surface1">
<path style=" stroke:none;fill-rule:evenodd;fill:url(#linear0);" d="M 29.988281 8.765625 C 16.90625 8.765625 4.324219 19.164062 4.324219 32 C 4.324219 44.835938 16.90625 55.234375 29.988281 55.234375 C 33.394531 55.226562 36.765625 54.496094 39.863281 53.089844 L 39.863281 41.460938 C 37.261719 44.070312 33.707031 45.542969 29.988281 45.554688 C 22.355469 45.554688 14.191406 39.488281 14.191406 32 C 14.191406 24.511719 22.355469 18.445312 29.988281 18.445312 C 33.703125 18.449219 37.261719 19.914062 39.863281 22.523438 L 39.863281 10.910156 C 36.765625 9.503906 33.394531 8.773438 29.988281 8.765625 Z M 39.863281 22.523438 L 59.675781 22.523438 L 51.753906 30.71875 L 39.863281 30.71875 Z M 39.863281 41.566406 L 59.675781 41.566406 L 51.753906 33.363281 L 39.863281 33.363281 Z M 39.863281 41.566406 "/>
</g>
</svg>
