<svg xmlns="http://www.w3.org/2000/svg" xmlns:xlink="http://www.w3.org/1999/xlink" width="64px" height="64px" viewBox="0 0 64 64" version="1.1">
<defs>
<linearGradient id="linear0" gradientUnits="userSpaceOnUse" x1="0" y1="0" x2="0" y2="1" gradientTransform="matrix(55.351351,0,0,50.581081,4.324324,6.711711)">
<stop offset="0" style="stop-color:#00fff2;stop-opacity:1;"/>
<stop offset="0.5" style="stop-color:#dddddd;stop-opacity:1;"/>
<stop offset="1" style="stop-color:#0062ff;stop-opacity:1;"/>
</linearGradient>
</defs>
<g id="surface1">
<path style=" stroke:none;fill-rule:evenodd;fill:url(#linear0);" d="M 25.320312 27.707031 L 42.726562 27.707031 C 44.179688 27.707031 45.363281 26.523438 45.363281 25.070312 L 45.363281 15.070312 C 45.363281 13.617188 44.179688 12.4375 42.726562 12.4375 L 25.320312 12.4375 L 25.320312 9.445312 C 25.320312 8.707031 25.058594 8 24.589844 7.484375 C 24.121094 6.96875 23.488281 6.6875 22.847656 6.710938 C 22.449219 6.726562 22.058594 6.851562 21.714844 7.078125 L 13.621094 12.386719 L 5.527344 17.703125 C 4.785156 18.1875 4.324219 19.09375 4.324219 20.066406 C 4.324219 21.050781 4.785156 21.949219 5.527344 22.4375 L 21.714844 33.066406 C 22.460938 33.554688 23.375 33.554688 24.117188 33.066406 C 24.863281 32.578125 25.320312 31.675781 25.320312 30.691406 Z M 38.679688 36.421875 L 21.40625 36.421875 C 19.945312 36.421875 18.765625 37.605469 18.765625 39.058594 L 18.765625 49.054688 C 18.765625 50.511719 19.945312 51.6875 21.40625 51.6875 L 38.679688 51.6875 L 38.679688 54.554688 C 38.679688 55.53125 39.136719 56.433594 39.882812 56.921875 C 40.625 57.414062 41.539062 57.414062 42.285156 56.921875 L 58.472656 46.296875 C 59.214844 45.808594 59.675781 44.90625 59.675781 43.929688 C 59.675781 42.949219 59.214844 42.050781 58.472656 41.5625 L 42.285156 30.933594 C 41.941406 30.710938 41.550781 30.582031 41.152344 30.570312 C 40.511719 30.542969 39.878906 30.828125 39.410156 31.339844 C 38.941406 31.863281 38.679688 32.5625 38.679688 33.308594 Z M 38.679688 36.421875 "/>
</g>
</svg>
