<svg xmlns="http://www.w3.org/2000/svg" xmlns:xlink="http://www.w3.org/1999/xlink" width="64px" height="64px" viewBox="0 0 64 64" version="1.1">
<defs>
<linearGradient id="linear0" gradientUnits="userSpaceOnUse" x1="0" y1="0" x2="0" y2="1" gradientTransform="matrix(55.351351,0,0,55.351351,4.324324,4.324324)">
<stop offset="0" style="stop-color:#ff8963;stop-opacity:1;"/>
<stop offset="0.5" style="stop-color:#dddddd;stop-opacity:1;"/>
<stop offset="1" style="stop-color:#0F6FFF;stop-opacity:1;"/>
</linearGradient>
</defs>
<g id="surface1">
<path style=" stroke:none;fill-rule:nonzero;fill:url(#linear0);" d="M 31.394531 4.324219 C 30.238281 4.320312 29.066406 4.539062 27.960938 4.96875 L 6.082031 13.511719 C 5.011719 13.929688 4.386719 14.976562 4.351562 15.988281 C 4.347656 16.121094 4.378906 16.246094 4.390625 16.378906 L 4.324219 16.378906 L 4.367188 44.328125 C 4.375 46.257812 5.476562 48.011719 7.191406 48.824219 L 28.234375 58.835938 C 30.59375 59.957031 33.324219 59.957031 35.679688 58.835938 L 56.714844 48.863281 C 58.523438 48.003906 59.675781 46.164062 59.675781 44.144531 L 59.652344 16.449219 L 59.59375 16.449219 C 59.597656 16.382812 59.648438 16.320312 59.648438 16.253906 C 59.632812 15.445312 59.121094 14.589844 58.273438 14.257812 L 34.8125 4.984375 C 33.714844 4.542969 32.558594 4.328125 31.394531 4.324219 Z M 31.390625 6.894531 C 32.246094 6.894531 33.097656 7.054688 33.914062 7.375 L 56.539062 16.324219 L 33.933594 26.503906 C 32.132812 27.3125 30.078125 27.289062 28.289062 26.4375 L 6.972656 16.261719 C 6.851562 16.203125 6.863281 16.175781 6.863281 16.089844 C 6.867188 16.003906 6.855469 15.960938 6.976562 15.910156 L 28.863281 7.367188 C 29.675781 7.050781 30.539062 6.894531 31.390625 6.894531 Z M 57.132812 18.863281 L 57.148438 44.144531 C 57.148438 45.175781 56.5625 46.109375 55.644531 46.542969 L 34.609375 56.511719 C 34.082031 56.761719 33.527344 56.90625 32.96875 57 L 32.824219 29.488281 C 33.550781 29.363281 34.265625 29.164062 34.949219 28.855469 Z M 6.855469 19.042969 L 27.21875 28.765625 C 28.199219 29.234375 29.246094 29.460938 30.296875 29.566406 L 30.445312 56.910156 C 30.058594 56.8125 29.671875 56.6875 29.300781 56.511719 L 8.269531 46.511719 C 7.433594 46.109375 6.902344 45.261719 6.894531 44.320312 Z M 6.855469 19.042969 "/>
</g>
</svg>
