<svg xmlns="http://www.w3.org/2000/svg" xmlns:xlink="http://www.w3.org/1999/xlink" width="64px" height="64px" viewBox="0 0 64 64" version="1.1">
<defs>
<linearGradient id="linear0" gradientUnits="userSpaceOnUse" x1="0" y1="0" x2="0" y2="1" gradientTransform="matrix(54.387388,0,0,55.351351,4.806307,4.324324)">
<stop offset="0" style="stop-color:#ffae00;stop-opacity:1;"/>
<stop offset="0.5" style="stop-color:#dddddd;stop-opacity:1;"/>
<stop offset="1" style="stop-color:#bf1d1d;stop-opacity:1;"/>
</linearGradient>
</defs>
<g id="surface1">
<path style=" stroke:none;fill-rule:evenodd;fill:url(#linear0);" d="M 31.96875 55.363281 L 32.652344 56.089844 C 33.125 56.582031 33.605469 57.078125 34.089844 57.570312 L 34.785156 58.28125 L 33.367188 59.675781 L 32.671875 58.96875 C 32.175781 58.460938 31.6875 57.960938 31.210938 57.457031 L 30.527344 56.734375 Z M 23.355469 44.382812 C 23.089844 43.96875 22.835938 43.550781 22.582031 43.132812 L 22.066406 42.273438 L 20.363281 43.296875 L 20.875 44.152344 C 20.910156 44.210938 20.945312 44.273438 20.988281 44.335938 C 20.636719 44.320312 20.285156 44.296875 19.929688 44.273438 L 18.9375 44.207031 L 18.800781 46.1875 L 19.792969 46.261719 C 20.621094 46.3125 21.449219 46.351562 22.269531 46.375 C 22.566406 46.8125 22.863281 47.261719 23.175781 47.703125 L 23.742188 48.515625 L 25.375 47.382812 L 24.808594 46.5625 C 24.761719 46.5 24.714844 46.433594 24.671875 46.363281 L 24.890625 46.363281 L 24.863281 44.375 L 23.867188 44.382812 C 23.703125 44.386719 23.527344 44.386719 23.355469 44.382812 Z M 16.589844 10.828125 L 16.429688 11.808594 C 16.207031 13.1875 16.039062 14.539062 15.9375 15.863281 L 15.855469 16.855469 L 13.875 16.691406 L 13.957031 15.707031 C 14.066406 14.324219 14.234375 12.917969 14.46875 11.488281 L 14.625 10.511719 Z M 15.78125 18.945312 L 15.785156 19.941406 C 15.796875 21.3125 15.867188 22.671875 16 24.003906 L 16.097656 24.996094 L 14.121094 25.191406 L 14.023438 24.203125 C 13.882812 22.808594 13.808594 21.390625 13.796875 19.957031 L 13.789062 18.960938 Z M 16.410156 27.058594 L 16.605469 28.027344 C 16.863281 29.367188 17.191406 30.679688 17.582031 31.976562 L 17.863281 32.933594 L 15.960938 33.5 L 15.675781 32.550781 C 15.269531 31.191406 14.929688 29.8125 14.648438 28.414062 L 14.457031 27.441406 Z M 18.558594 34.902344 L 18.929688 35.824219 C 19.429688 37.082031 19.988281 38.320312 20.605469 39.542969 L 21.050781 40.433594 L 19.273438 41.328125 L 18.824219 40.4375 C 18.1875 39.164062 17.605469 37.875 17.082031 36.566406 L 16.707031 35.644531 Z M 26.636719 49.082031 L 27.253906 49.863281 C 28.085938 50.929688 28.960938 51.988281 29.878906 53.039062 L 30.53125 53.785156 L 29.03125 55.089844 L 28.378906 54.339844 C 27.445312 53.265625 26.550781 52.1875 25.6875 51.09375 L 25.070312 50.3125 Z M 18.003906 4.847656 L 17.738281 5.808594 C 17.558594 6.476562 17.390625 7.136719 17.234375 7.792969 L 17.003906 8.761719 L 15.066406 8.300781 L 15.300781 7.335938 C 15.460938 6.660156 15.636719 5.972656 15.824219 5.285156 L 16.082031 4.324219 Z M 59.191406 29.960938 L 58.488281 30.660156 C 58.003906 31.144531 57.511719 31.617188 57.027344 32.082031 L 56.296875 32.761719 L 54.9375 31.3125 L 55.664062 30.632812 C 56.136719 30.179688 56.613281 29.71875 57.089844 29.246094 L 57.792969 28.550781 Z M 54.730469 34.152344 L 53.960938 34.789062 C 52.890625 35.675781 51.8125 36.511719 50.726562 37.296875 L 49.917969 37.882812 L 48.757812 36.265625 L 49.5625 35.6875 C 50.613281 34.929688 51.660156 34.121094 52.6875 33.261719 L 53.457031 32.621094 Z M 48.160156 39.050781 L 47.3125 39.566406 C 46.125 40.296875 44.929688 40.960938 43.726562 41.566406 L 42.835938 42.011719 L 41.941406 40.234375 L 42.835938 39.789062 C 43.988281 39.210938 45.136719 38.566406 46.273438 37.875 L 47.125 37.355469 Z M 40.894531 42.882812 L 39.96875 43.246094 C 38.6875 43.757812 37.386719 44.203125 36.078125 44.582031 L 35.121094 44.863281 L 34.5625 42.949219 L 35.515625 42.675781 C 36.765625 42.3125 38.011719 41.882812 39.238281 41.402344 L 40.164062 41.03125 Z M 5.375 41.410156 L 6.328125 41.699219 C 6.96875 41.886719 7.605469 42.070312 8.238281 42.238281 L 9.199219 42.503906 L 8.675781 44.417969 L 7.714844 44.164062 C 7.066406 43.984375 6.414062 43.796875 5.757812 43.597656 L 4.808594 43.3125 Z M 11.125 42.96875 L 12.097656 43.171875 C 13.414062 43.445312 14.710938 43.675781 16 43.863281 L 16.984375 44 L 16.703125 45.96875 L 15.71875 45.828125 C 14.386719 45.636719 13.042969 45.402344 11.6875 45.117188 L 10.714844 44.914062 Z M 33.050781 45.363281 L 32.070312 45.554688 C 30.730469 45.8125 29.367188 46.011719 28 46.144531 L 27.011719 46.246094 L 26.8125 44.265625 L 27.800781 44.164062 C 29.113281 44.039062 30.410156 43.847656 31.691406 43.597656 L 32.675781 43.414062 Z M 43.878906 12.445312 L 41.855469 18.675781 L 48.261719 20.054688 L 42.421875 23.027344 L 45.972656 28.53125 L 39.746094 26.503906 L 38.363281 32.90625 L 35.390625 27.070312 L 29.890625 30.621094 L 31.917969 24.390625 L 25.511719 23.011719 L 31.351562 20.039062 L 27.796875 14.539062 L 34.027344 16.5625 L 35.40625 10.164062 L 38.378906 15.996094 Z M 43.878906 12.445312 "/>
</g>
</svg>
