<svg xmlns="http://www.w3.org/2000/svg" xmlns:xlink="http://www.w3.org/1999/xlink" width="64px" height="64px" viewBox="0 0 64 64" version="1.1">
<g id="surface1">
<path style=" stroke:none;fill-rule:nonzero;fill:rgb(36.078432%,62.7451%,83.92157%);fill-opacity:1;" d="M 54.566406 31.984375 C 54.566406 44.878906 44.273438 55.335938 31.574219 55.335938 C 18.875 55.335938 8.582031 44.878906 8.582031 31.984375 C 8.582031 19.085938 18.875 8.632812 31.574219 8.632812 C 44.273438 8.632812 54.566406 19.085938 54.566406 31.984375 Z M 54.566406 31.984375 "/>
<path style=" stroke:none;fill-rule:evenodd;fill:rgb(100%,100%,100%);fill-opacity:1;" d="M 39.238281 18.59375 L 39.238281 44.539062 L 44.347656 44.539062 L 44.347656 18.59375 Z M 39.238281 18.59375 "/>
<path style=" stroke:none;fill-rule:evenodd;fill:rgb(100%,100%,100%);fill-opacity:1;" d="M 32.425781 23.785156 L 32.425781 44.539062 L 37.535156 44.539062 L 37.535156 23.785156 Z M 32.425781 23.785156 "/>
<path style=" stroke:none;fill-rule:evenodd;fill:rgb(100%,100%,100%);fill-opacity:1;" d="M 25.613281 28.972656 L 25.613281 44.539062 L 30.722656 44.539062 L 30.722656 28.972656 Z M 25.613281 28.972656 "/>
<path style=" stroke:none;fill-rule:evenodd;fill:rgb(100%,100%,100%);fill-opacity:1;" d="M 18.800781 34.164062 L 18.800781 44.539062 L 23.910156 44.539062 L 23.910156 34.164062 Z M 18.800781 34.164062 "/>
</g>
</svg>
