<svg xmlns="http://www.w3.org/2000/svg" xmlns:xlink="http://www.w3.org/1999/xlink" width="64px" height="64px" viewBox="0 0 64 64" version="1.1">
<defs>
<linearGradient id="linear0" gradientUnits="userSpaceOnUse" x1="0" y1="0" x2="0" y2="1" gradientTransform="matrix(46.198199,0,0,55.351351,8.900901,4.324324)">
<stop offset="0" style="stop-color:#ff8963;stop-opacity:1;"/>
<stop offset="0.5" style="stop-color:#dddddd;stop-opacity:1;"/>
<stop offset="1" style="stop-color:#0F6FFF;stop-opacity:1;"/>
</linearGradient>
</defs>
<g id="surface1">
<path style=" stroke:none;fill-rule:nonzero;fill:url(#linear0);" d="M 36.457031 59.300781 C 36.269531 59.097656 35.367188 57.460938 34.445312 55.671875 C 33.191406 53.226562 32.789062 52.242188 32.835938 51.753906 C 32.917969 50.933594 33.308594 50.835938 34.726562 51.300781 L 35.792969 51.652344 L 36.488281 50.855469 C 38.132812 48.96875 39.738281 44.636719 40.929688 38.894531 C 41.5625 35.839844 43.460938 21.835938 43.296875 21.433594 C 43.226562 21.246094 30.566406 24.1875 30.335938 24.441406 C 30.238281 24.542969 29.253906 27.375 28.136719 30.730469 C 27.03125 34.085938 25.769531 37.570312 25.335938 38.484375 C 23.851562 41.617188 18.394531 47.625 14.761719 50.117188 C 11.894531 52.085938 9.246094 53.058594 9.070312 52.203125 C 9.03125 52.011719 9.527344 51.324219 10.238281 50.585938 C 12.609375 48.136719 17.015625 41.324219 18.578125 37.707031 C 19.003906 36.710938 19.679688 34.800781 20.078125 33.46875 C 20.746094 31.191406 22.042969 25.863281 22.042969 25.382812 C 22.042969 25.261719 21.699219 25.109375 21.269531 25.039062 C 17.269531 24.394531 13.308594 23.308594 10.792969 22.164062 C 9.175781 21.429688 8.660156 20.863281 9 20.226562 C 9.375 19.53125 14.058594 17.984375 20.449219 16.433594 C 22.410156 15.960938 24.042969 15.542969 24.085938 15.511719 C 24.132812 15.472656 24.390625 14.402344 24.675781 13.117188 C 25.292969 10.28125 25.1875 9.53125 23.796875 7.132812 C 21.894531 3.835938 22.527344 3.621094 28.550781 5.558594 C 31.375 6.46875 32.527344 7.144531 33.363281 8.386719 C 34.238281 9.6875 34.363281 10.671875 33.917969 12.875 L 33.792969 13.515625 L 36.039062 13.027344 C 37.265625 12.757812 39.488281 12.242188 40.972656 11.894531 L 43.664062 11.257812 L 47.027344 12.121094 C 51.097656 13.164062 53.027344 13.800781 54.253906 14.523438 C 55.148438 15.050781 55.171875 15.082031 55.039062 15.878906 C 54.96875 16.328125 53.511719 22.015625 51.800781 28.523438 C 48.539062 40.914062 47.671875 43.570312 45.527344 47.753906 C 44.1875 50.351562 42.460938 53.160156 40.882812 55.289062 C 39.636719 56.96875 37.207031 59.675781 36.941406 59.675781 C 36.863281 59.675781 36.636719 59.511719 36.457031 59.308594 Z M 36.457031 59.300781 "/>
</g>
</svg>
