<svg xmlns="http://www.w3.org/2000/svg" xmlns:xlink="http://www.w3.org/1999/xlink" width="64px" height="64px" viewBox="0 0 64 64" version="1.1">
<defs>
<linearGradient id="linear0" gradientUnits="userSpaceOnUse" x1="0" y1="0" x2="0" y2="1" gradientTransform="matrix(37.945946,0,0,51.896395,12.972973,6.04955)">
<stop offset="0" style="stop-color:#ffae00;stop-opacity:1;"/>
<stop offset="0.5" style="stop-color:#dddddd;stop-opacity:1;"/>
<stop offset="1" style="stop-color:#bf1d1d;stop-opacity:1;"/>
</linearGradient>
</defs>
<g id="surface1">
<path style=" stroke:none;fill-rule:nonzero;fill:url(#linear0);" d="M 12.972656 57.753906 C 13.230469 57.765625 13.460938 57.808594 13.726562 57.8125 C 15.179688 57.910156 16.933594 57.910156 18.632812 57.9375 L 18.710938 39.863281 C 18.742188 33.085938 18.363281 23.539062 19.917969 19 C 22.511719 13.742188 28.023438 10.914062 33.886719 11.820312 C 39.730469 12.726562 44.164062 17.324219 44.894531 23.242188 C 45.058594 24.542969 45.097656 32.355469 44.996094 41.972656 L 44.820312 57.945312 C 46.699219 57.917969 48.585938 57.90625 50.171875 57.8125 C 50.4375 57.800781 50.664062 57.773438 50.917969 57.746094 L 50.796875 40.136719 C 50.664062 20.6875 50.671875 20.851562 48.929688 17.039062 C 47.203125 13.28125 43.921875 9.792969 40.4375 8.015625 C 36.429688 5.96875 30.664062 5.460938 26.40625 6.769531 C 21.011719 8.4375 16.824219 12.152344 14.476562 17.363281 C 13.011719 20.609375 12.976562 21.179688 12.972656 40.242188 Z M 12.972656 57.753906 "/>
</g>
</svg>
