<svg xmlns="http://www.w3.org/2000/svg" xmlns:xlink="http://www.w3.org/1999/xlink" width="64px" height="64px" viewBox="0 0 64 64" version="1.1">
<defs>
<linearGradient id="linear0" gradientUnits="userSpaceOnUse" x1="0" y1="0" x2="0" y2="1" gradientTransform="matrix(55.351351,0,0,43.045044,4.324324,10.477478)">
<stop offset="0" style="stop-color:#00fff2;stop-opacity:1;"/>
<stop offset="0.5" style="stop-color:#dddddd;stop-opacity:1;"/>
<stop offset="1" style="stop-color:#0062ff;stop-opacity:1;"/>
</linearGradient>
</defs>
<g id="surface1">
<path style=" stroke:none;fill-rule:nonzero;fill:url(#linear0);" d="M 36.710938 10.476562 C 31.46875 10.476562 26.929688 13.441406 24.675781 17.746094 C 23.214844 16.828125 21.488281 16.292969 19.632812 16.292969 C 14.429688 16.292969 10.210938 20.460938 10.210938 25.597656 C 10.210938 26.414062 10.339844 27.207031 10.542969 27.960938 C 6.789062 30.46875 4.324219 34.730469 4.324219 39.5625 C 4.324219 47.296875 10.625 53.523438 18.457031 53.523438 L 45.542969 53.523438 C 53.375 53.523438 59.675781 47.296875 59.675781 39.5625 C 59.675781 33.386719 55.636719 28.175781 50.039062 26.324219 C 50.1875 25.523438 50.257812 24.703125 50.257812 23.855469 C 50.257812 16.46875 44.1875 10.476562 36.710938 10.476562 Z M 36.710938 10.476562 "/>
</g>
</svg>
