<svg xmlns="http://www.w3.org/2000/svg" xmlns:xlink="http://www.w3.org/1999/xlink" width="64px" height="64px" viewBox="0 0 64 64" version="1.1">
<defs>
<linearGradient id="linear0" gradientUnits="userSpaceOnUse" x1="0" y1="0" x2="0" y2="1" gradientTransform="matrix(55.351351,0,0,55.351351,4.324324,4.324324)">
<stop offset="0" style="stop-color:#00a2ff;stop-opacity:1;"/>
<stop offset="0.5" style="stop-color:#dddddd;stop-opacity:1;"/>
<stop offset="1" style="stop-color:#00ffae;stop-opacity:1;"/>
</linearGradient>
</defs>
<g id="surface1">
<path style=" stroke:none;fill-rule:evenodd;fill:url(#linear0);" d="M 38.121094 46.886719 C 39.800781 47.511719 41.625 47.847656 43.53125 47.847656 C 43.660156 47.847656 43.789062 47.839844 43.910156 47.835938 C 43.308594 49.585938 42.296875 51.179688 40.960938 52.511719 C 38.609375 54.863281 35.355469 56.214844 32 56.214844 C 28.644531 56.214844 25.390625 54.863281 23.039062 52.511719 C 21.785156 51.257812 20.8125 49.769531 20.210938 48.136719 C 20.296875 48.136719 20.382812 48.144531 20.46875 48.144531 C 22.511719 48.144531 24.460938 47.765625 26.238281 47.039062 C 28.011719 47.765625 29.960938 48.144531 32 48.144531 C 34.175781 48.144531 36.246094 47.710938 38.121094 46.886719 Z M 21.929688 44.617188 C 21.449219 44.664062 20.960938 44.699219 20.484375 44.699219 C 20.097656 44.699219 19.71875 44.679688 19.339844 44.660156 C 19.320312 44.28125 19.300781 43.902344 19.300781 43.515625 C 19.300781 43.039062 19.335938 42.550781 19.382812 42.070312 C 20.136719 43.011719 20.988281 43.863281 21.929688 44.617188 Z M 16.960938 26.234375 C 16.234375 24.460938 15.855469 22.511719 15.855469 20.46875 C 15.855469 20.382812 15.863281 20.296875 15.863281 20.210938 C 14.230469 20.8125 12.742188 21.785156 11.488281 23.039062 C 9.136719 25.390625 7.785156 28.644531 7.785156 32 C 7.785156 35.355469 9.136719 38.609375 11.488281 40.960938 C 12.742188 42.214844 14.230469 43.1875 15.863281 43.789062 C 15.863281 43.703125 15.855469 43.617188 15.855469 43.53125 C 15.855469 41.488281 16.234375 39.539062 16.960938 37.769531 C 16.234375 35.988281 15.855469 34.039062 15.855469 32 C 15.855469 29.960938 16.234375 28.011719 16.960938 26.234375 Z M 44.617188 21.929688 C 44.664062 21.449219 44.699219 20.960938 44.699219 20.484375 C 44.699219 20.003906 44.664062 19.53125 44.621094 19.0625 C 44.257812 19.042969 43.890625 19.027344 43.515625 19.027344 C 42.921875 19.027344 42.335938 19.066406 41.757812 19.164062 C 42.828125 19.957031 43.785156 20.886719 44.617188 21.929688 Z M 42.410156 44.347656 C 42.78125 44.367188 43.148438 44.382812 43.515625 44.382812 C 43.90625 44.382812 44.289062 44.367188 44.664062 44.347656 C 44.6875 44.070312 44.699219 43.796875 44.699219 43.515625 C 44.699219 43.039062 44.664062 42.550781 44.617188 42.070312 C 43.949219 42.894531 43.210938 43.660156 42.410156 44.347656 Z M 21.929688 19.382812 C 21.449219 19.335938 20.960938 19.300781 20.484375 19.300781 C 20.097656 19.300781 19.71875 19.320312 19.339844 19.339844 C 19.320312 19.71875 19.300781 20.097656 19.300781 20.484375 C 19.300781 20.960938 19.335938 21.449219 19.382812 21.929688 C 20.136719 20.988281 20.988281 20.136719 21.929688 19.382812 Z M 47.039062 26.234375 C 47.765625 24.460938 48.144531 22.511719 48.144531 20.46875 C 48.144531 20.285156 48.136719 20.097656 48.125 19.914062 C 49.765625 20.511719 51.257812 21.46875 52.511719 22.730469 C 54.863281 25.117188 56.214844 28.335938 56.214844 31.6875 C 56.214844 35.082031 54.863281 38.296875 52.511719 40.6875 C 51.257812 41.917969 49.773438 42.878906 48.136719 43.476562 C 48.136719 41.460938 47.757812 39.523438 47.039062 37.765625 C 47.765625 35.988281 48.144531 34.039062 48.144531 32 C 48.144531 29.960938 47.765625 28.011719 47.039062 26.234375 Z M 37.417969 16.8125 C 39.285156 15.988281 41.355469 15.558594 43.53125 15.558594 C 43.578125 15.558594 43.621094 15.558594 43.664062 15.5625 C 43.0625 14.042969 42.136719 12.664062 40.960938 11.488281 C 38.609375 9.136719 35.355469 7.785156 32 7.785156 C 28.644531 7.785156 25.390625 9.136719 23.039062 11.488281 C 21.785156 12.742188 20.8125 14.230469 20.210938 15.863281 C 20.296875 15.863281 20.382812 15.855469 20.46875 15.855469 C 22.511719 15.855469 24.457031 16.234375 26.230469 16.960938 C 28.011719 16.234375 29.960938 15.855469 32 15.855469 C 33.90625 15.855469 35.734375 16.1875 37.417969 16.8125 Z M 47.660156 47.285156 C 54.578125 45.484375 59.675781 39.1875 59.675781 31.703125 C 59.675781 24.179688 54.511719 17.847656 47.53125 16.097656 C 45.636719 9.308594 39.390625 4.324219 32 4.324219 C 24.496094 4.324219 18.1875 9.457031 16.40625 16.40625 C 9.457031 18.1875 4.324219 24.496094 4.324219 32 C 4.324219 39.503906 9.457031 45.8125 16.40625 47.59375 C 18.1875 54.542969 24.496094 59.675781 32 59.675781 C 39.613281 59.675781 46 54.394531 47.660156 47.285156 Z M 19.136719 32.109375 C 19.136719 24.949219 24.949219 19.136719 32.109375 19.136719 C 39.269531 19.136719 45.082031 24.949219 45.082031 32.109375 C 45.082031 39.269531 39.269531 45.082031 32.109375 45.082031 C 24.949219 45.082031 19.136719 39.269531 19.136719 32.109375 Z M 19.136719 32.109375 "/>
</g>
</svg>
