<svg xmlns="http://www.w3.org/2000/svg" xmlns:xlink="http://www.w3.org/1999/xlink" width="64px" height="64px" viewBox="0 0 64 64" version="1.1">
<defs>
<linearGradient id="linear0" gradientUnits="userSpaceOnUse" x1="0" y1="0" x2="0" y2="1" gradientTransform="matrix(55.351351,0,0,55.351351,4.324324,4.324324)">
<stop offset="0" style="stop-color:#ffae00;stop-opacity:1;"/>
<stop offset="0.5" style="stop-color:#dddddd;stop-opacity:1;"/>
<stop offset="1" style="stop-color:#bf1d1d;stop-opacity:1;"/>
</linearGradient>
<linearGradient id="linear1" gradientUnits="userSpaceOnUse" x1="0" y1="0" x2="0" y2="1" gradientTransform="matrix(55.351351,0,0,55.351351,4.324324,4.324324)">
<stop offset="0" style="stop-color:#ffae00;stop-opacity:1;"/>
<stop offset="0.5" style="stop-color:#dddddd;stop-opacity:1;"/>
<stop offset="1" style="stop-color:#bf1d1d;stop-opacity:1;"/>
</linearGradient>
</defs>
<g id="surface1">
<path style=" stroke:none;fill-rule:nonzero;fill:url(#linear0);" d="M 57.363281 46.171875 C 58.847656 47.660156 59.675781 49.675781 59.675781 51.765625 C 59.675781 53.863281 58.847656 55.882812 57.363281 57.363281 C 55.882812 58.847656 53.863281 59.675781 51.765625 59.675781 C 49.675781 59.675781 47.660156 58.847656 46.171875 57.363281 L 6.636719 17.828125 C 5.152344 16.339844 4.324219 14.324219 4.324219 12.234375 C 4.324219 10.136719 5.152344 8.117188 6.636719 6.636719 C 8.117188 5.152344 10.136719 4.324219 12.234375 4.324219 C 14.324219 4.324219 16.339844 5.152344 17.828125 6.636719 Z M 57.363281 46.171875 "/>
<path style=" stroke:none;fill-rule:evenodd;fill:url(#linear1);" d="M 9.59375 4.324219 L 14.867188 4.324219 C 17.78125 4.324219 20.136719 6.6875 20.136719 9.59375 L 20.136719 54.40625 C 20.136719 57.3125 17.78125 59.675781 14.867188 59.675781 L 9.59375 59.675781 C 6.6875 59.675781 4.324219 57.3125 4.324219 54.40625 L 4.324219 9.59375 C 4.324219 6.6875 6.6875 4.324219 9.59375 4.324219 Z M 49.132812 4.324219 L 54.40625 4.324219 C 57.3125 4.324219 59.675781 6.6875 59.675781 9.59375 L 59.675781 54.40625 C 59.675781 57.3125 57.3125 59.675781 54.40625 59.675781 L 49.132812 59.675781 C 46.21875 59.675781 43.863281 57.3125 43.863281 54.40625 L 43.863281 9.59375 C 43.863281 6.6875 46.21875 4.324219 49.132812 4.324219 Z M 49.132812 4.324219 "/>
</g>
</svg>
