<svg xmlns="http://www.w3.org/2000/svg" xmlns:xlink="http://www.w3.org/1999/xlink" width="64px" height="64px" viewBox="0 0 64 64" version="1.1">
<defs>
<linearGradient id="linear0" gradientUnits="userSpaceOnUse" x1="0" y1="0" x2="0" y2="1" gradientTransform="matrix(55.351351,0,0,55.351351,4.324324,4.324324)">
<stop offset="0" style="stop-color:#05f7ff;stop-opacity:1;"/>
<stop offset="0.5" style="stop-color:#dddddd;stop-opacity:1;"/>
<stop offset="1" style="stop-color:#e6ff05;stop-opacity:1;"/>
</linearGradient>
</defs>
<g id="surface1">
<path style=" stroke:none;fill-rule:nonzero;fill:url(#linear0);" d="M 32.011719 4.324219 C 32.011719 4.324219 32 4.335938 32 4.335938 C 32 4.335938 31.996094 4.339844 31.996094 4.339844 C 28.664062 11.855469 26.089844 19.511719 24.625 24.207031 C 19.8125 24.210938 11.882812 24.402344 4.324219 25.433594 C 4.324219 25.433594 4.335938 25.441406 4.335938 25.441406 C 4.335938 25.441406 4.335938 25.449219 4.335938 25.449219 C 4.335938 25.449219 4.335938 25.457031 4.335938 25.457031 C 4.335938 25.457031 4.335938 25.460938 4.335938 25.460938 C 10.109375 31.117188 16.242188 36.054688 20.039062 38.96875 C 18.554688 43.78125 16.269531 51.769531 14.867188 59.644531 C 14.867188 59.644531 14.875 59.644531 14.875 59.644531 C 14.875 59.644531 14.882812 59.644531 14.882812 59.644531 C 14.882812 59.644531 14.886719 59.644531 14.886719 59.644531 C 14.886719 59.644531 14.894531 59.644531 14.894531 59.644531 C 21.792969 55.621094 28.160156 51.011719 31.96875 48.121094 C 35.863281 51.09375 42.394531 55.839844 49.085938 59.675781 C 49.085938 59.675781 49.085938 59.664062 49.085938 59.664062 C 49.085938 59.664062 49.085938 59.660156 49.085938 59.660156 C 49.085938 59.660156 49.085938 59.648438 49.085938 59.648438 C 49.085938 59.648438 49.089844 59.644531 49.089844 59.644531 C 47.585938 51.503906 45.378906 43.714844 43.9375 39.011719 C 47.835938 36.039062 54.136719 30.984375 59.675781 25.484375 C 59.675781 25.484375 59.664062 25.472656 59.664062 25.472656 C 59.664062 25.472656 59.652344 25.460938 59.652344 25.460938 C 59.652344 25.460938 59.652344 25.457031 59.652344 25.457031 C 51.824219 24.445312 44.105469 24.242188 39.40625 24.230469 C 37.914062 19.417969 35.28125 11.558594 32.011719 4.324219 Z M 32.015625 15.707031 C 33.257812 19.144531 34.910156 23.136719 35.648438 25.523438 L 36.539062 28.375 L 39.390625 28.382812 C 41.710938 28.390625 45.917969 28.8125 49.378906 28.988281 C 46.652344 31.292969 43.550781 34.179688 41.621094 35.660156 L 39.308594 37.421875 L 40.1875 40.289062 C 40.894531 42.609375 41.8125 46.9375 42.726562 50.457031 C 39.796875 48.441406 36.21875 46.234375 34.292969 44.761719 L 31.976562 42.996094 L 29.664062 44.753906 C 27.785156 46.1875 24.148438 48.4375 21.246094 50.433594 C 22.164062 46.882812 23.058594 42.632812 23.792969 40.246094 L 24.671875 37.390625 L 22.363281 35.617188 C 20.488281 34.175781 17.328125 31.242188 14.625 28.960938 C 18.121094 28.78125 22.246094 28.363281 24.636719 28.363281 L 27.488281 28.351562 L 28.382812 25.496094 C 29.105469 23.179688 30.785156 19.113281 32.015625 15.707031 Z M 32.015625 15.707031 "/>
</g>
</svg>
