<svg xmlns="http://www.w3.org/2000/svg" xmlns:xlink="http://www.w3.org/1999/xlink" width="64px" height="64px" viewBox="0 0 64 64" version="1.1">
<defs>
<linearGradient id="linear0" gradientUnits="userSpaceOnUse" x1="0" y1="0" x2="0" y2="1" gradientTransform="matrix(20.306307,0,0,55.351351,21.846848,4.324324)">
<stop offset="0" style="stop-color:#00fff2;stop-opacity:1;"/>
<stop offset="0.5" style="stop-color:#dddddd;stop-opacity:1;"/>
<stop offset="1" style="stop-color:#0062ff;stop-opacity:1;"/>
</linearGradient>
</defs>
<g id="surface1">
<path style=" stroke:none;fill-rule:nonzero;fill:url(#linear0);" d="M 40.113281 33.070312 C 38.609375 31.355469 36.460938 30.285156 33.886719 30.5 C 33.675781 30.066406 32.8125 25.78125 32.8125 25.78125 C 32.8125 25.78125 35.820312 21.273438 36.460938 20.414062 C 39.679688 15.265625 39.894531 11.1875 37.960938 7.113281 C 37.320312 5.613281 35.605469 4.324219 33.886719 4.324219 C 32.605469 4.324219 31.53125 5.394531 30.886719 6.6875 C 28.738281 10.335938 28.738281 17.199219 29.8125 21.914062 C 29.8125 21.914062 28.738281 22.988281 27.664062 24.273438 C 25.523438 26.636719 23.164062 29.210938 22.308594 32.644531 C 21.230469 36.503906 22.089844 40.152344 24.449219 42.941406 C 27.023438 46.160156 30.886719 47.664062 35.605469 47.234375 C 36.460938 51.3125 37.109375 53.882812 35.820312 56.242188 C 35.390625 57.097656 34.53125 57.960938 33.03125 57.960938 C 32.605469 57.960938 32.386719 57.960938 31.960938 57.742188 C 33.246094 57.097656 34.320312 55.8125 34.320312 54.3125 C 34.320312 52.164062 32.605469 50.449219 30.457031 50.449219 C 26.8125 50.664062 26.59375 54.3125 26.59375 54.3125 C 26.59375 55.597656 27.023438 56.886719 27.882812 57.742188 C 28.957031 58.8125 30.671875 59.675781 32.605469 59.675781 C 34.960938 59.675781 37.320312 58.8125 38.179688 55.382812 C 39.039062 52.59375 37.539062 48.089844 37.320312 46.589844 C 39.679688 45.515625 41.828125 42.296875 42.039062 40.152344 C 42.472656 37.792969 41.613281 35.003906 40.113281 33.070312 Z M 33.246094 9.257812 C 33.460938 8.828125 33.886719 8.617188 34.320312 8.617188 C 34.53125 8.617188 34.960938 8.828125 35.175781 9.042969 C 36.039062 9.472656 36.246094 10.335938 36.246094 11.617188 C 36.039062 14.835938 33.246094 18.699219 31.742188 19.988281 C 31.097656 16.984375 31.53125 11.40625 33.246094 9.257812 Z M 27.023438 42.941406 C 25.523438 41.441406 24.878906 39.292969 25.09375 37.148438 C 25.523438 33.714844 27.882812 30.929688 29.8125 28.785156 C 30.242188 28.351562 30.671875 27.921875 30.886719 27.496094 C 31.097656 28.566406 31.742188 30.285156 31.960938 31.136719 C 29.382812 32.214844 27.882812 35.648438 28.09375 38.4375 C 28.09375 39.726562 28.527344 40.582031 29.171875 41.441406 C 29.382812 41.652344 29.597656 41.867188 29.8125 41.867188 C 30.027344 41.867188 30.457031 41.652344 30.457031 41.441406 C 30.671875 41.226562 30.671875 40.796875 30.457031 40.582031 C 30.242188 40.363281 30.242188 40.152344 30.242188 39.726562 C 30.027344 37.792969 31.3125 36.292969 32.8125 35.648438 C 33.03125 36.933594 34.53125 43.585938 34.746094 45.085938 C 31.960938 45.945312 28.957031 45.085938 27.023438 42.941406 Z M 36.679688 44.230469 C 36.246094 42.726562 36.039062 41.011719 35.605469 39.082031 C 35.390625 37.792969 35.175781 36.292969 34.746094 35.003906 C 37.539062 35.003906 38.394531 37.363281 38.609375 38.21875 C 39.253906 40.582031 38.609375 42.941406 36.679688 44.230469 Z M 36.679688 44.230469 "/>
</g>
</svg>
