<svg xmlns="http://www.w3.org/2000/svg" xmlns:xlink="http://www.w3.org/1999/xlink" width="64px" height="64px" viewBox="0 0 64 64" version="1.1">
<g id="surface1">
<path style=" stroke:none;fill-rule:nonzero;fill:rgb(94.901961%,94.901961%,94.901961%);fill-opacity:1;" d="M 16.433594 7.785156 L 47.566406 7.785156 C 49.957031 7.785156 51.890625 9.71875 51.890625 12.109375 L 51.890625 51.890625 C 51.890625 54.28125 49.957031 56.214844 47.566406 56.214844 L 16.433594 56.214844 C 14.042969 56.214844 12.109375 54.28125 12.109375 51.890625 L 12.109375 12.109375 C 12.109375 9.71875 14.042969 7.785156 16.433594 7.785156 Z M 16.433594 7.785156 "/>
<path style=" stroke:none;fill-rule:nonzero;fill:rgb(100%,71.372551%,52.156866%);fill-opacity:1;" d="M 18.164062 18.164062 L 42.378906 18.164062 L 42.378906 21.621094 L 18.164062 21.621094 Z M 18.164062 18.164062 "/>
<path style=" stroke:none;fill-rule:nonzero;fill:rgb(12.54902%,91.37255%,71.764708%);fill-opacity:1;" d="M 18.164062 25.945312 L 46.703125 25.945312 L 46.703125 29.40625 L 18.164062 29.40625 Z M 18.164062 25.945312 "/>
<path style=" stroke:none;fill-rule:nonzero;fill:rgb(52.549022%,36.078432%,100%);fill-opacity:1;" d="M 18.164062 33.730469 L 38.917969 33.730469 L 38.917969 37.1875 L 18.164062 37.1875 Z M 18.164062 33.730469 "/>
<path style=" stroke:none;fill-rule:nonzero;fill:rgb(100%,36.078432%,57.647061%);fill-opacity:1;" d="M 18.164062 42.378906 L 28.539062 42.378906 L 28.539062 45.835938 L 18.164062 45.835938 Z M 18.164062 42.378906 "/>
<path style=" stroke:none;fill-rule:nonzero;fill:rgb(30.19608%,30.19608%,30.19608%);fill-opacity:1;" d="M 22.488281 45.835938 L 41.511719 45.835938 L 41.511719 47.566406 L 22.488281 47.566406 Z M 22.488281 45.835938 "/>
<path style=" stroke:none;fill-rule:nonzero;fill:rgb(30.19608%,30.19608%,30.19608%);fill-opacity:1;" d="M 21.621094 18.164062 L 21.621094 41.511719 L 25.945312 41.511719 L 25.945312 26.039062 L 35.890625 41.511719 L 42.378906 41.511719 L 42.378906 18.164062 L 38.054688 18.164062 L 38.054688 38.054688 L 25.945312 18.164062 Z M 21.621094 18.164062 "/>
</g>
</svg>
