<svg xmlns="http://www.w3.org/2000/svg" xmlns:xlink="http://www.w3.org/1999/xlink" width="64px" height="64px" viewBox="0 0 64 64" version="1.1">
<defs>
<linearGradient id="linear0" gradientUnits="userSpaceOnUse" x1="0" y1="0" x2="0" y2="1" gradientTransform="matrix(17.756758,0,0,19.454956,13.301802,34.288287)">
<stop offset="0" style="stop-color:#ff8963;stop-opacity:1;"/>
<stop offset="0.5" style="stop-color:#dddddd;stop-opacity:1;"/>
<stop offset="1" style="stop-color:#0F6FFF;stop-opacity:1;"/>
</linearGradient>
<linearGradient id="linear1" gradientUnits="userSpaceOnUse" x1="0" y1="0" x2="0" y2="1" gradientTransform="matrix(12.063064,0,0,13.702702,43.923422,12.382883)">
<stop offset="0" style="stop-color:#ff8963;stop-opacity:1;"/>
<stop offset="0.5" style="stop-color:#dddddd;stop-opacity:1;"/>
<stop offset="1" style="stop-color:#0F6FFF;stop-opacity:1;"/>
</linearGradient>
<linearGradient id="linear2" gradientUnits="userSpaceOnUse" x1="0" y1="0" x2="0" y2="1" gradientTransform="matrix(9.135135,0,0,3.932432,50.454956,35.887388)">
<stop offset="0" style="stop-color:#ff8963;stop-opacity:1;"/>
<stop offset="0.5" style="stop-color:#dddddd;stop-opacity:1;"/>
<stop offset="1" style="stop-color:#0F6FFF;stop-opacity:1;"/>
</linearGradient>
<linearGradient id="linear3" gradientUnits="userSpaceOnUse" x1="0" y1="0" x2="0" y2="1" gradientTransform="matrix(29.486486,0,0,3.927928,4.324324,35.887388)">
<stop offset="0" style="stop-color:#ff8963;stop-opacity:1;"/>
<stop offset="0.5" style="stop-color:#dddddd;stop-opacity:1;"/>
<stop offset="1" style="stop-color:#0F6FFF;stop-opacity:1;"/>
</linearGradient>
<linearGradient id="linear4" gradientUnits="userSpaceOnUse" x1="0" y1="0" x2="0" y2="1" gradientTransform="matrix(38.995497,0,0,3.927928,12.063063,35.887388)">
<stop offset="0" style="stop-color:#ff8963;stop-opacity:1;"/>
<stop offset="0.5" style="stop-color:#dddddd;stop-opacity:1;"/>
<stop offset="1" style="stop-color:#0F6FFF;stop-opacity:1;"/>
</linearGradient>
<linearGradient id="linear5" gradientUnits="userSpaceOnUse" x1="0" y1="0" x2="0" y2="1" gradientTransform="matrix(38.590091,0,0,20.635135,13.319819,16.522523)">
<stop offset="0" style="stop-color:#ff8963;stop-opacity:1;"/>
<stop offset="0.5" style="stop-color:#dddddd;stop-opacity:1;"/>
<stop offset="1" style="stop-color:#0F6FFF;stop-opacity:1;"/>
</linearGradient>
<linearGradient id="linear6" gradientUnits="userSpaceOnUse" x1="0" y1="0" x2="0" y2="1" gradientTransform="matrix(11.139639,0,0,15.184686,33.972973,10.256756)">
<stop offset="0" style="stop-color:#ff8963;stop-opacity:1;"/>
<stop offset="0.5" style="stop-color:#dddddd;stop-opacity:1;"/>
<stop offset="1" style="stop-color:#0F6FFF;stop-opacity:1;"/>
</linearGradient>
</defs>
<g id="surface1">
<path style=" stroke:none;fill-rule:nonzero;fill:url(#linear0);" d="M 25.21875 45.6875 C 25.660156 46.363281 25.605469 46.792969 25.0625 46.984375 C 22.148438 46.515625 23.242188 41.824219 27.132812 43.460938 C 30.488281 44.433594 29.636719 51.800781 25.875 52.042969 C 18.824219 53.96875 14.1875 42.429688 15.460938 34.289062 L 13.382812 34.710938 C 13.21875 36.292969 13.335938 38.550781 13.441406 39.613281 C 14.335938 48.320312 19.390625 54.511719 26.355469 53.664062 C 32.554688 52.289062 32.203125 43.664062 27.773438 41.921875 C 24.664062 40.796875 21.941406 42.367188 21.660156 45 C 21.539062 47.1875 23.589844 48.847656 25.0625 48.523438 C 27.253906 48.363281 27.253906 45.769531 25.21875 45.6875 Z M 25.21875 45.6875 "/>
<path style=" stroke:none;fill-rule:nonzero;fill:url(#linear1);" d="M 54.378906 13.210938 C 58.0625 16.613281 55.269531 23.457031 47.539062 26.085938 C 39.015625 22.632812 47.320312 8.90625 54.378906 13.210938 Z M 54.378906 13.210938 "/>
<path style=" stroke:none;fill-rule:nonzero;fill:url(#linear2);" d="M 50.457031 35.886719 L 50.472656 39.8125 C 52.984375 39.867188 55.808594 39.402344 58.949219 38.40625 C 59.800781 38.136719 59.800781 37.691406 58.949219 37.421875 C 55.613281 36.363281 52.78125 35.855469 50.457031 35.886719 Z M 50.457031 35.886719 "/>
<path style=" stroke:none;fill-rule:nonzero;fill:url(#linear3);" d="M 5.625 35.886719 L 33.8125 35.886719 C 33.605469 36.757812 33.511719 37.539062 33.527344 38.238281 C 33.542969 38.824219 33.636719 39.355469 33.8125 39.8125 L 5.625 39.8125 C 5.269531 39.8125 4.839844 39.558594 4.675781 39.238281 C 4.210938 38.355469 4.214844 37.050781 4.621094 36.433594 C 4.820312 36.132812 5.269531 35.886719 5.625 35.886719 Z M 5.625 35.886719 "/>
<path style=" stroke:none;fill-rule:nonzero;fill:url(#linear4);" d="M 12.429688 35.886719 L 51.058594 35.886719 C 50.679688 37.496094 50.6875 38.808594 51.058594 39.8125 L 12.429688 39.8125 C 11.9375 38.476562 11.949219 37.175781 12.429688 35.886719 Z M 12.429688 35.886719 "/>
<path style=" stroke:none;fill-rule:nonzero;fill:url(#linear5);" d="M 38.496094 32.011719 C 39.496094 33.472656 40.824219 34.757812 42.476562 35.847656 C 41.71875 36.328125 42.710938 36.5 43.972656 35.886719 C 45.511719 35.886719 46.445312 35.929688 48.105469 35.96875 C 47.375 35.292969 46.566406 34.78125 45.675781 34.429688 C 44.835938 34.539062 43.917969 34.835938 42.921875 35.320312 C 42.292969 34.023438 41.632812 32.613281 40.921875 31.066406 C 41.273438 30.875 41.632812 30.660156 41.988281 30.421875 C 44.59375 31.835938 48.113281 31.160156 51.910156 28.152344 C 50.878906 25.148438 48.835938 23.378906 45.796875 22.851562 L 32.554688 18.3125 C 28.503906 15.9375 24.484375 15.921875 20.488281 18.273438 C 16.164062 21.808594 13.78125 27.679688 13.320312 35.886719 L 14.835938 35.867188 C 16.539062 31.664062 18.363281 29.234375 20.324219 29.421875 C 19.429688 31.457031 19.769531 34.378906 20.882812 35.972656 C 20.03125 36.203125 19.179688 36.5 22.378906 36.214844 C 20.851562 35.136719 20.261719 32.539062 21.527344 29.660156 C 22.410156 29.917969 22.9375 30.261719 22.59375 31.234375 C 23.792969 31.679688 24.957031 32.03125 26.085938 32.261719 C 25.96875 33.6875 25.699219 35.390625 24.941406 35.96875 L 26.03125 36.011719 C 26.542969 35.09375 27.160156 33.863281 27.53125 32.472656 C 29.324219 32.785156 31 32.765625 32.589844 32.476562 C 32.875 33.511719 33.449219 34.765625 33.945312 36.109375 C 34.457031 37.484375 35.339844 37.460938 37.566406 36.324219 C 37.488281 35.4375 37.21875 34.902344 36.765625 34.710938 C 36.308594 34.875 35.902344 35.269531 35.550781 35.886719 C 34.300781 35.625 33.710938 34.429688 33.8125 32.238281 C 34.082031 32.171875 34.351562 32.089844 34.617188 32 C 35.863281 32.363281 37.152344 32.378906 38.496094 32.011719 Z M 38.496094 32.011719 "/>
<path style=" stroke:none;fill-rule:nonzero;fill:url(#linear6);" d="M 40.691406 25.441406 C 33.039062 25.441406 31.703125 12.199219 37.820312 10.335938 C 42.191406 9.769531 44.621094 12.253906 45.109375 17.789062 C 45.1875 22.8125 43.714844 25.363281 40.691406 25.441406 Z M 40.691406 25.441406 "/>
</g>
</svg>
