<svg xmlns="http://www.w3.org/2000/svg" xmlns:xlink="http://www.w3.org/1999/xlink" width="64px" height="64px" viewBox="0 0 64 64" version="1.1">
<defs>
<linearGradient id="linear0" gradientUnits="userSpaceOnUse" x1="0" y1="0" x2="0" y2="1" gradientTransform="matrix(55.351351,0,0,55.351351,4.324324,4.324324)">
<stop offset="0" style="stop-color:#00a2ff;stop-opacity:1;"/>
<stop offset="0.5" style="stop-color:#dddddd;stop-opacity:1;"/>
<stop offset="1" style="stop-color:#00ffae;stop-opacity:1;"/>
</linearGradient>
</defs>
<g id="surface1">
<path style=" stroke:none;fill-rule:nonzero;fill:url(#linear0);" d="M 4.324219 4.324219 L 4.324219 59.675781 L 38.054688 59.675781 L 52.757812 44.972656 L 52.757812 26.050781 L 49.296875 29.460938 L 49.296875 42.378906 L 35.460938 42.378906 L 35.460938 56.214844 L 7.785156 56.214844 L 7.785156 7.785156 L 46.714844 7.785156 L 39.890625 14.703125 L 14.703125 14.703125 L 14.703125 18.164062 L 36.484375 18.164062 L 33.066406 21.621094 L 14.703125 21.621094 L 14.703125 25.082031 L 29.660156 25.082031 L 26.242188 28.539062 L 14.703125 28.539062 L 14.703125 32 L 22.835938 32 L 19.429688 35.460938 L 14.703125 35.460938 L 14.703125 38.917969 L 16.847656 38.917969 C 16.496094 39.550781 16.335938 39.761719 15.753906 40.949219 C 14.664062 43.160156 13.328125 46.175781 12.253906 49.578125 L 11.242188 52.757812 L 14.429688 51.746094 C 17.828125 50.671875 20.839844 49.335938 23.050781 48.253906 C 25.253906 47.164062 26.460938 46.449219 26.8125 46.230469 L 26.960938 46.125 L 59.675781 13.878906 L 52.757812 6.960938 L 52.757812 4.324219 Z M 21.242188 38.539062 L 25.460938 42.757812 L 24.847656 43.363281 C 24.867188 43.347656 23.539062 44.148438 21.523438 45.144531 C 20.78125 45.503906 19.664062 45.910156 18.636719 46.3125 L 17.6875 45.363281 C 18.089844 44.335938 18.496094 43.21875 18.863281 42.484375 C 19.851562 40.460938 20.648438 39.136719 20.636719 39.160156 Z M 21.242188 38.539062 "/>
</g>
</svg>
