<svg xmlns="http://www.w3.org/2000/svg" xmlns:xlink="http://www.w3.org/1999/xlink" width="64px" height="64px" viewBox="0 0 64 64" version="1.1">
<defs>
<linearGradient id="linear0" gradientUnits="userSpaceOnUse" x1="0" y1="0" x2="0" y2="1" gradientTransform="matrix(42.864865,0,0,43.53153,16.810811,16.144144)">
<stop offset="0" style="stop-color:#ffae00;stop-opacity:1;"/>
<stop offset="0.5" style="stop-color:#dddddd;stop-opacity:1;"/>
<stop offset="1" style="stop-color:#bf1d1d;stop-opacity:1;"/>
</linearGradient>
<linearGradient id="linear1" gradientUnits="userSpaceOnUse" x1="0" y1="0" x2="0" y2="1" gradientTransform="matrix(27.671172,0,0,27.581081,4.324324,4.324324)">
<stop offset="0" style="stop-color:#ffae00;stop-opacity:1;"/>
<stop offset="0.5" style="stop-color:#dddddd;stop-opacity:1;"/>
<stop offset="1" style="stop-color:#bf1d1d;stop-opacity:1;"/>
</linearGradient>
</defs>
<g id="surface1">
<path style=" stroke:none;fill-rule:nonzero;fill:url(#linear0);" d="M 35.710938 16.144531 C 35.785156 16.800781 35.960938 17.4375 35.960938 18.117188 C 35.960938 27.910156 27.996094 35.847656 18.171875 35.847656 C 17.703125 35.847656 17.265625 35.761719 16.8125 35.726562 L 16.8125 44.46875 C 16.8125 48.421875 20.003906 51.609375 23.976562 51.609375 L 30.082031 51.609375 L 37.988281 59.675781 L 46.144531 51.609375 L 52.511719 51.609375 C 56.484375 51.609375 59.675781 48.421875 59.675781 44.46875 L 59.675781 23.289062 C 59.675781 19.335938 56.484375 16.144531 52.511719 16.144531 Z M 35.710938 16.144531 "/>
<path style=" stroke:none;fill-rule:nonzero;fill:url(#linear1);" d="M 18.160156 4.324219 C 10.515625 4.324219 4.324219 10.5 4.324219 18.117188 C 4.324219 25.734375 10.515625 31.90625 18.160156 31.90625 C 25.800781 31.90625 31.996094 25.734375 31.996094 18.117188 C 31.996094 10.5 25.800781 4.324219 18.160156 4.324219 Z M 16.058594 8.265625 L 20.136719 8.265625 L 19.886719 13.6875 C 19.875 13.765625 19.875 13.847656 19.886719 13.929688 C 19.886719 13.96875 19.886719 14.011719 19.886719 14.054688 C 19.96875 14.285156 20.148438 14.460938 20.382812 14.542969 C 20.421875 14.550781 20.460938 14.550781 20.503906 14.542969 C 20.589844 14.558594 20.671875 14.558594 20.753906 14.542969 C 20.835938 14.558594 20.917969 14.558594 21 14.542969 C 21.042969 14.511719 21.085938 14.46875 21.125 14.421875 L 25.691406 11.46875 L 27.671875 15.039062 L 22.851562 17.5 C 22.8125 17.496094 22.769531 17.496094 22.730469 17.5 C 22.6875 17.539062 22.644531 17.578125 22.609375 17.621094 C 22.539062 17.734375 22.488281 17.863281 22.484375 17.988281 C 22.46875 18.070312 22.46875 18.160156 22.484375 18.238281 C 22.476562 18.28125 22.476562 18.320312 22.484375 18.363281 C 22.511719 18.449219 22.550781 18.53125 22.609375 18.609375 C 22.644531 18.652344 22.6875 18.691406 22.730469 18.730469 C 22.765625 18.773438 22.808594 18.8125 22.851562 18.855469 L 27.792969 21.3125 L 25.691406 24.886719 L 21.121094 21.8125 C 21.082031 21.808594 21.039062 21.808594 21 21.8125 C 20.929688 21.757812 20.839844 21.710938 20.753906 21.6875 C 20.671875 21.675781 20.589844 21.675781 20.503906 21.6875 C 20.296875 21.738281 20.121094 21.867188 20.011719 22.058594 C 19.96875 22.09375 19.921875 22.136719 19.886719 22.179688 C 19.886719 22.21875 19.886719 22.261719 19.886719 22.300781 C 19.875 22.382812 19.875 22.46875 19.886719 22.550781 L 20.136719 27.96875 L 16.058594 27.96875 L 16.429688 22.550781 C 16.417969 22.417969 16.378906 22.289062 16.308594 22.179688 C 16.28125 22.089844 16.238281 22.011719 16.1875 21.933594 C 16.109375 21.878906 16.027344 21.835938 15.9375 21.8125 C 15.863281 21.757812 15.78125 21.710938 15.6875 21.6875 C 15.648438 21.6875 15.609375 21.6875 15.566406 21.6875 C 15.433594 21.699219 15.308594 21.738281 15.191406 21.8125 L 10.5 24.886719 L 8.523438 21.320312 L 13.460938 18.855469 C 13.511719 18.820312 13.554688 18.78125 13.589844 18.734375 C 13.636719 18.691406 13.675781 18.652344 13.710938 18.609375 C 13.765625 18.539062 13.8125 18.449219 13.835938 18.363281 C 13.835938 18.320312 13.835938 18.28125 13.835938 18.238281 C 13.847656 18.160156 13.847656 18.078125 13.835938 17.996094 C 13.835938 17.957031 13.835938 17.910156 13.835938 17.867188 C 13.8125 17.785156 13.765625 17.699219 13.710938 17.625 C 13.675781 17.582031 13.636719 17.539062 13.589844 17.5 C 13.550781 17.5 13.511719 17.5 13.460938 17.5 L 8.523438 15.039062 L 10.5 11.46875 L 15.191406 14.421875 C 15.230469 14.46875 15.273438 14.511719 15.320312 14.542969 C 15.402344 14.558594 15.484375 14.558594 15.566406 14.542969 C 15.648438 14.558594 15.730469 14.558594 15.8125 14.542969 C 15.855469 14.550781 15.894531 14.550781 15.9375 14.542969 C 15.984375 14.511719 16.023438 14.46875 16.058594 14.421875 C 16.105469 14.386719 16.148438 14.347656 16.1875 14.300781 C 16.230469 14.265625 16.269531 14.21875 16.308594 14.175781 C 16.3125 14.136719 16.3125 14.09375 16.308594 14.054688 C 16.363281 13.984375 16.40625 13.894531 16.429688 13.808594 C 16.433594 13.765625 16.433594 13.726562 16.429688 13.6875 L 16.070312 8.246094 Z M 16.058594 8.265625 "/>
</g>
</svg>
