<svg xmlns="http://www.w3.org/2000/svg" xmlns:xlink="http://www.w3.org/1999/xlink" width="64px" height="64px" viewBox="0 0 64 64" version="1.1">
<defs>
<linearGradient id="linear0" gradientUnits="userSpaceOnUse" x1="0" y1="0" x2="0" y2="1" gradientTransform="matrix(55.351351,0,0,49.756757,4.324324,7.121622)">
<stop offset="0" style="stop-color:#ffae00;stop-opacity:1;"/>
<stop offset="0.5" style="stop-color:#dddddd;stop-opacity:1;"/>
<stop offset="1" style="stop-color:#6600ff;stop-opacity:1;"/>
</linearGradient>
</defs>
<g id="surface1">
<path style=" stroke:none;fill-rule:evenodd;fill:url(#linear0);" d="M 15.394531 12.652344 L 29.234375 12.652344 L 29.234375 20.960938 L 9.863281 20.960938 Z M 34.765625 12.652344 L 48.605469 12.652344 L 54.136719 20.960938 L 34.765625 20.960938 Z M 30.710938 50.089844 L 30.710938 53.484375 C 28.496094 53.4375 26.757812 52.773438 25.496094 51.496094 C 24.238281 50.214844 23.609375 48.363281 23.609375 45.929688 L 23.609375 43.921875 C 23.609375 43.191406 23.46875 42.617188 23.1875 42.199219 C 22.910156 41.78125 22.511719 41.566406 21.996094 41.566406 L 21.253906 41.566406 L 21.253906 38.179688 L 21.996094 38.179688 C 22.511719 38.179688 22.910156 37.960938 23.1875 37.539062 C 23.46875 37.105469 23.609375 36.53125 23.609375 35.824219 L 23.609375 33.855469 C 23.609375 31.421875 24.238281 29.570312 25.496094 28.300781 C 26.757812 27.03125 28.496094 26.363281 30.710938 26.300781 L 30.710938 29.691406 C 28.496094 29.820312 27.382812 31.011719 27.382812 33.273438 L 27.382812 35.5 C 27.382812 36.855469 27.164062 37.875 26.726562 38.554688 C 26.28125 39.230469 25.621094 39.675781 24.738281 39.890625 C 26.503906 40.339844 27.382812 41.808594 27.382812 44.28125 L 27.382812 46.503906 C 27.382812 48.8125 28.496094 50.003906 30.710938 50.089844 Z M 15.652344 7.121094 C 13.714844 7.121094 12.097656 8.234375 10.984375 9.886719 L 4.839844 19.824219 C 4.570312 20.375 4.324219 21.496094 4.324219 22.328125 L 4.324219 51.355469 C 4.324219 54.394531 6.808594 56.878906 9.863281 56.878906 L 54.136719 56.878906 C 57.191406 56.878906 59.675781 54.394531 59.675781 51.363281 L 59.675781 22.328125 C 59.675781 21.496094 59.4375 20.378906 59.160156 19.824219 L 53.015625 9.886719 C 51.902344 8.234375 50.28125 7.121094 48.347656 7.121094 Z M 33.289062 53.484375 L 33.289062 50.089844 C 35.53125 49.984375 36.648438 48.789062 36.648438 46.503906 L 36.648438 44.28125 C 36.648438 41.808594 37.53125 40.339844 39.296875 39.890625 C 38.414062 39.675781 37.753906 39.230469 37.3125 38.554688 C 36.867188 37.875 36.648438 36.855469 36.648438 35.5 L 36.648438 33.273438 C 36.648438 31.011719 35.53125 29.820312 33.289062 29.691406 L 33.289062 26.300781 C 35.503906 26.363281 37.253906 27.039062 38.523438 28.320312 C 39.789062 29.597656 40.421875 31.445312 40.421875 33.855469 L 40.421875 35.824219 C 40.421875 36.53125 40.5625 37.105469 40.839844 37.539062 C 41.121094 37.960938 41.523438 38.179688 42.039062 38.179688 L 42.746094 38.179688 L 42.746094 41.566406 L 42.039062 41.566406 C 41.523438 41.566406 41.121094 41.78125 40.839844 42.199219 C 40.5625 42.617188 40.421875 43.191406 40.421875 43.921875 L 40.421875 45.929688 C 40.421875 48.363281 39.789062 50.214844 38.523438 51.496094 C 37.253906 52.773438 35.503906 53.4375 33.289062 53.484375 Z M 33.289062 53.484375 "/>
</g>
</svg>
