<svg xmlns="http://www.w3.org/2000/svg" xmlns:xlink="http://www.w3.org/1999/xlink" width="64px" height="64px" viewBox="0 0 64 64" version="1.1">
<defs>
<linearGradient id="linear0" gradientUnits="userSpaceOnUse" x1="0" y1="0" x2="0" y2="1" gradientTransform="matrix(55.351351,0,0,54.324324,4.324324,4.837839)">
<stop offset="0" style="stop-color:#00a2ff;stop-opacity:1;"/>
<stop offset="0.5" style="stop-color:#dddddd;stop-opacity:1;"/>
<stop offset="1" style="stop-color:#00ffae;stop-opacity:1;"/>
</linearGradient>
</defs>
<g id="surface1">
<path style=" stroke:none;fill-rule:nonzero;fill:url(#linear0);" d="M 4.429688 4.835938 L 4.484375 5.199219 C 5.789062 13.835938 6.527344 19.960938 7.5 24.296875 C 8.46875 28.625 9.675781 31.203125 11.941406 32.636719 C 14.203125 34.0625 17.429688 34.179688 22.386719 34.023438 C 27.351562 33.863281 34.0625 33.421875 43.324219 33.136719 L 43.621094 33.136719 L 43.582031 32.839844 C 42.710938 26.207031 42.417969 21.609375 41.828125 18.292969 C 41.238281 14.984375 40.3125 12.917969 38.199219 11.515625 C 36.082031 10.117188 32.839844 9.375 27.570312 8.515625 C 22.308594 7.660156 15.011719 6.691406 4.792969 4.902344 Z M 49.011719 6.484375 C 45.410156 6.484375 42.46875 9.402344 42.46875 13.027344 C 42.46875 16.648438 45.410156 19.566406 49.011719 19.566406 C 52.617188 19.566406 55.554688 16.648438 55.554688 13.027344 C 55.554688 9.402344 52.617188 6.484375 49.011719 6.484375 Z M 59.675781 17.894531 L 59.132812 18.226562 C 54.765625 20.835938 51.550781 21.300781 49.050781 22.671875 C 47.808594 23.355469 46.742188 24.28125 45.882812 25.785156 C 45.023438 27.289062 44.347656 29.367188 43.800781 32.394531 L 43.71875 32.855469 L 44.164062 32.699219 C 50.933594 30.164062 53.9375 29.941406 55.761719 28.621094 C 56.671875 27.960938 57.238281 27.023438 57.753906 25.476562 C 58.269531 23.933594 58.757812 21.761719 59.527344 18.515625 Z M 59.117188 29.234375 L 58.402344 29.472656 C 51.164062 31.886719 48.199219 32.582031 46.675781 33.6875 C 45.917969 34.242188 45.542969 34.914062 45.269531 35.867188 C 44.996094 36.824219 44.78125 38.078125 44.28125 39.902344 L 44.164062 40.328125 L 44.59375 40.238281 C 48.976562 39.269531 51.003906 39.03125 52.710938 37.828125 C 54.421875 36.621094 55.714844 34.515625 58.703125 29.875 Z M 43.828125 35.238281 L 43.460938 35.261719 C 32.457031 35.835938 26.714844 34.976562 22.902344 37.417969 C 20.988281 38.636719 19.613281 40.613281 18.351562 43.789062 C 17.089844 46.960938 15.9375 51.363281 14.460938 57.5 L 14.351562 57.949219 L 14.792969 57.820312 C 21.363281 55.890625 26.023438 55.054688 29.421875 54.511719 C 32.828125 53.960938 34.988281 53.714844 36.585938 52.902344 C 38.1875 52.089844 39.148438 50.707031 40.113281 48.054688 C 41.070312 45.394531 42.058594 41.699219 43.730469 35.597656 Z M 57.042969 36.351562 C 53.8125 39.742188 51.050781 40.355469 48.910156 41.109375 C 47.839844 41.488281 46.910156 41.902344 46.210938 42.730469 C 45.511719 43.5625 45.0625 44.773438 44.886719 46.703125 L 44.863281 47.039062 L 45.1875 46.996094 C 49.121094 46.488281 51.328125 46.089844 53 44.6875 C 54.671875 43.285156 55.730469 40.949219 57.484375 36.636719 Z M 17.40625 42.015625 L 16.933594 42.148438 C 11.9375 43.402344 9.632812 44.933594 8.207031 47.46875 C 6.78125 50.003906 6.203125 53.460938 4.488281 58.664062 L 4.324219 59.164062 L 4.828125 58.988281 C 7.09375 58.238281 8.703125 57.703125 9.933594 57.089844 C 11.164062 56.476562 12.011719 55.773438 12.707031 54.742188 C 14.09375 52.675781 14.875 49.335938 17.242188 42.476562 Z M 55.988281 45.726562 L 55.503906 45.910156 C 51.496094 47.4375 49.289062 48.117188 48.085938 49.160156 C 47.488281 49.679688 47.160156 50.320312 47.039062 51.125 C 46.917969 51.929688 46.996094 51.988281 47.160156 53.296875 L 47.191406 53.597656 L 47.488281 53.523438 C 48.855469 53.175781 49.851562 53.1875 50.648438 53.21875 C 51.445312 53.257812 52.066406 53.335938 52.652344 53.0625 C 53.238281 52.789062 53.6875 52.1875 54.152344 51.003906 C 54.625 49.828125 55.148438 48.960938 55.855469 46.226562 Z M 55.988281 45.726562 "/>
</g>
</svg>
