<svg xmlns="http://www.w3.org/2000/svg" xmlns:xlink="http://www.w3.org/1999/xlink" width="64px" height="64px" viewBox="0 0 64 64" version="1.1">
<defs>
<linearGradient id="linear0" gradientUnits="userSpaceOnUse" x1="0" y1="0" x2="0" y2="1" gradientTransform="matrix(55.351351,0,0,40.26126,4.324324,11.86937)">
<stop offset="0" style="stop-color:#ffae00;stop-opacity:1;"/>
<stop offset="0.5" style="stop-color:#dddddd;stop-opacity:1;"/>
<stop offset="1" style="stop-color:#bf1d1d;stop-opacity:1;"/>
</linearGradient>
</defs>
<g id="surface1">
<path style=" stroke:none;fill-rule:evenodd;fill:url(#linear0);" d="M 7.148438 23.5625 C 6.445312 23.597656 5.746094 23.351562 5.21875 22.878906 C 4.691406 22.40625 4.375 21.742188 4.328125 21.03125 C 4.292969 20.324219 4.539062 19.625 5.015625 19.097656 C 5.488281 18.5625 6.148438 18.253906 6.863281 18.207031 C 7.46875 18.179688 8.078125 18.164062 8.6875 18.164062 C 10.246094 18.152344 11.800781 18.28125 13.324219 18.527344 C 14.710938 18.761719 16.066406 19.117188 17.378906 19.589844 C 19.707031 20.457031 21.867188 21.742188 23.753906 23.375 C 25.421875 24.863281 26.90625 26.539062 28.164062 28.375 C 29.308594 30.039062 30.378906 31.753906 31.378906 33.5 C 32.097656 34.765625 32.855469 36.011719 33.664062 37.226562 C 34.300781 38.203125 35.042969 39.105469 35.882812 39.917969 C 36.484375 40.460938 37.136719 40.957031 37.824219 41.382812 C 38.636719 41.902344 39.484375 42.363281 40.355469 42.765625 C 42.3125 43.664062 44.335938 44.414062 46.417969 44.988281 C 48.417969 45.5625 50.445312 46.011719 52.496094 46.335938 C 53.347656 46.484375 54.203125 46.589844 55.058594 46.664062 C 55.710938 46.738281 56.363281 46.773438 57.011719 46.773438 C 57.71875 46.785156 58.410156 47.066406 58.910156 47.566406 C 59.402344 48.078125 59.6875 48.757812 59.675781 49.46875 C 59.675781 50.175781 59.382812 50.863281 58.878906 51.355469 C 58.367188 51.855469 57.691406 52.136719 56.984375 52.132812 C 56.164062 52.121094 55.339844 52.085938 54.539062 51.996094 C 53.566406 51.910156 52.605469 51.78125 51.644531 51.632812 C 49.390625 51.265625 47.160156 50.773438 44.972656 50.148438 C 42.617188 49.5 40.320312 48.648438 38.109375 47.632812 C 37.027344 47.121094 35.984375 46.5625 34.972656 45.929688 C 33.988281 45.3125 33.066406 44.609375 32.214844 43.820312 C 31.070312 42.71875 30.054688 41.488281 29.1875 40.164062 C 28.324219 38.855469 27.503906 37.515625 26.726562 36.164062 C 25.796875 34.539062 24.808594 32.945312 23.746094 31.402344 C 22.734375 29.929688 21.550781 28.589844 20.210938 27.394531 C 18.835938 26.199219 17.242188 25.261719 15.53125 24.617188 C 14.53125 24.261719 13.503906 23.988281 12.460938 23.8125 C 11.21875 23.609375 9.960938 23.511719 8.703125 23.523438 C 8.1875 23.523438 7.664062 23.527344 7.148438 23.5625 Z M 36.320312 23.082031 C 36.1875 24.039062 36.125 25 36.117188 25.972656 C 36.117188 26.289062 36.136719 26.597656 36.171875 26.90625 C 36.179688 26.945312 36.1875 26.984375 36.199219 27.015625 L 36.207031 27.011719 C 36.855469 28.292969 37.851562 29.375 39.0625 30.144531 C 40.070312 30.769531 41.234375 31.109375 42.417969 31.109375 C 43.726562 31.125 44.988281 30.644531 45.945312 29.753906 C 46.410156 29.292969 46.773438 28.753906 47.023438 28.144531 C 47.328125 27.355469 47.484375 26.527344 47.46875 25.6875 C 47.460938 24.742188 47.328125 23.796875 47.066406 22.878906 C 46.960938 21.015625 46.097656 19.28125 44.664062 18.070312 C 43.375 16.960938 41.730469 16.339844 40.027344 16.335938 C 38.988281 16.324219 37.984375 16.605469 37.109375 17.144531 C 36.660156 17.433594 36.257812 17.78125 35.917969 18.1875 C 35.511719 18.671875 35.179688 19.226562 34.929688 19.808594 C 34.8125 20.09375 34.625 20.363281 34.390625 20.570312 C 34.984375 20.644531 35.515625 20.960938 35.875 21.417969 C 36.242188 21.894531 36.390625 22.496094 36.320312 23.082031 Z M 32.589844 21.144531 C 31.890625 21.054688 31.289062 20.644531 30.9375 20.039062 C 30.589844 19.4375 30.554688 18.699219 30.824219 18.0625 C 31.242188 17.070312 31.808594 16.160156 32.488281 15.335938 C 33.125 14.5625 33.886719 13.894531 34.734375 13.363281 C 36.335938 12.367188 38.179688 11.851562 40.0625 11.867188 C 42.8125 11.886719 45.472656 12.878906 47.570312 14.671875 C 49.785156 16.558594 51.1875 19.226562 51.488281 22.117188 C 51.773438 23.28125 51.929688 24.460938 51.9375 25.644531 C 51.957031 27.0625 51.691406 28.460938 51.175781 29.785156 C 50.691406 30.988281 49.957031 32.082031 49.023438 32.984375 C 47.234375 34.671875 44.835938 35.597656 42.375 35.570312 C 40.363281 35.5625 38.40625 34.988281 36.699219 33.929688 C 34.824219 32.753906 33.296875 31.097656 32.273438 29.136719 C 32.117188 28.863281 31.988281 28.582031 31.914062 28.289062 C 31.828125 28.015625 31.78125 27.753906 31.742188 27.472656 C 31.679688 26.96875 31.652344 26.445312 31.652344 25.929688 C 31.664062 24.773438 31.742188 23.625 31.890625 22.484375 C 31.960938 21.972656 32.207031 21.5 32.589844 21.144531 Z M 32.589844 21.144531 "/>
</g>
</svg>
