<svg xmlns="http://www.w3.org/2000/svg" xmlns:xlink="http://www.w3.org/1999/xlink" width="64px" height="64px" viewBox="0 0 64 64" version="1.1">
<defs>
<linearGradient id="linear0" gradientUnits="userSpaceOnUse" x1="0" y1="0" x2="0" y2="1" gradientTransform="matrix(55.351351,0,0,39.207206,4.324324,12.396396)">
<stop offset="0" style="stop-color:#00b7ff;stop-opacity:1;"/>
<stop offset="0.5" style="stop-color:#dddddd;stop-opacity:1;"/>
<stop offset="1" style="stop-color:#ee42d9;stop-opacity:1;"/>
</linearGradient>
</defs>
<g id="surface1">
<path style=" stroke:none;fill-rule:nonzero;fill:url(#linear0);" d="M 34.214844 12.394531 C 26.746094 12.40625 20.40625 17.003906 17.375 23.582031 L 17.164062 24.027344 L 16.6875 24.0625 C 9.785156 24.5625 4.324219 30.53125 4.324219 37.792969 C 4.324219 45.378906 10.261719 51.605469 17.605469 51.605469 L 49.726562 51.605469 C 55.226562 51.605469 59.675781 46.929688 59.675781 41.265625 C 59.675781 36.96875 57.089844 33.363281 53.433594 31.808594 L 52.960938 31.605469 L 52.921875 31.089844 C 52.457031 20.734375 44.320312 12.40625 34.230469 12.402344 Z M 34.214844 15.855469 C 42.410156 15.863281 49.0625 22.613281 49.457031 31.242188 L 49.457031 31.28125 L 49.632812 33.960938 L 52.0625 34.988281 C 54.488281 36.015625 56.199219 38.351562 56.199219 41.265625 C 56.234375 45.117188 53.269531 48.144531 49.726562 48.144531 L 17.605469 48.144531 C 12.21875 48.144531 7.785156 43.570312 7.785156 37.792969 C 7.785156 32.265625 11.882812 27.875 16.933594 27.511719 L 19.433594 27.335938 L 20.511719 25.039062 L 20.511719 25.027344 C 23.027344 19.558594 28.164062 15.863281 34.210938 15.863281 Z M 34.214844 15.855469 "/>
</g>
</svg>
