<svg xmlns="http://www.w3.org/2000/svg" xmlns:xlink="http://www.w3.org/1999/xlink" width="64px" height="64px" viewBox="0 0 64 64" version="1.1">
<defs>
<linearGradient id="linear0" gradientUnits="userSpaceOnUse" x1="0" y1="0" x2="0" y2="1" gradientTransform="matrix(55.351351,0,0,55.351351,4.324324,4.324324)">
<stop offset="0" style="stop-color:#ff8963;stop-opacity:1;"/>
<stop offset="0.5" style="stop-color:#dddddd;stop-opacity:1;"/>
<stop offset="1" style="stop-color:#0F6FFF;stop-opacity:1;"/>
</linearGradient>
</defs>
<g id="surface1">
<path style=" stroke:none;fill-rule:evenodd;fill:url(#linear0);" d="M 26.078125 50.097656 C 28.710938 49.292969 31.867188 47.078125 33.351562 44.996094 L 33.835938 44.3125 L 33.226562 42.460938 C 30.988281 35.703125 35.050781 28.886719 42 27.710938 C 47.054688 26.863281 52.363281 29.949219 54.1875 34.8125 C 54.625 35.972656 54.636719 35.988281 54.496094 35.097656 C 54.078125 32.46875 52.773438 30.039062 50.660156 27.949219 C 48.449219 25.765625 45.882812 24.527344 42.675781 24.097656 C 41.691406 23.96875 41.589844 24.003906 41.21875 24.632812 C 40.652344 25.59375 38.988281 27.210938 37.761719 27.996094 C 34.460938 30.109375 29.367188 30.109375 26.058594 27.996094 C 22.3125 25.613281 20.199219 21.050781 20.886719 16.847656 C 21.261719 14.554688 22.269531 12.515625 23.882812 10.8125 C 25.050781 9.570312 25.132812 9.4375 24.457031 9.824219 C 23.320312 10.476562 20.660156 13.363281 19.90625 14.765625 C 19.039062 16.382812 18.328125 19.246094 18.335938 21.136719 C 18.335938 22.765625 18.765625 24.921875 19.390625 26.488281 C 19.753906 27.402344 19.796875 27.429688 21.152344 27.582031 C 21.914062 27.664062 23.121094 27.9375 23.828125 28.179688 C 30.113281 30.339844 33.078125 37.589844 30.132812 43.59375 C 28.132812 47.6875 23.488281 50.324219 19.152344 49.828125 C 17.382812 49.632812 17.570312 49.867188 19.527344 50.320312 C 21.265625 50.710938 24.429688 50.605469 26.078125 50.097656 Z M 32 7.296875 C 45.664062 7.296875 56.703125 18.335938 56.703125 32 C 56.703125 45.664062 45.664062 56.703125 32 56.703125 C 18.335938 56.703125 7.296875 45.664062 7.296875 32 C 7.296875 18.335938 18.335938 7.296875 32 7.296875 Z M 32 4.324219 C 16.734375 4.324219 4.324219 16.734375 4.324219 32 C 4.324219 47.265625 16.734375 59.675781 32 59.675781 C 47.265625 59.675781 59.675781 47.265625 59.675781 32 C 59.675781 16.734375 47.265625 4.324219 32 4.324219 Z M 32 4.324219 "/>
</g>
</svg>
