<svg xmlns="http://www.w3.org/2000/svg" xmlns:xlink="http://www.w3.org/1999/xlink" width="64px" height="64px" viewBox="0 0 64 64" version="1.1">
<defs>
<linearGradient id="linear0" gradientUnits="userSpaceOnUse" x1="0" y1="0" x2="0" y2="1" gradientTransform="matrix(51.495497,0,0,55.351351,8.18018,4.324324)">
<stop offset="0" style="stop-color:#ffae00;stop-opacity:1;"/>
<stop offset="0.5" style="stop-color:#dddddd;stop-opacity:1;"/>
<stop offset="1" style="stop-color:#bf1d1d;stop-opacity:1;"/>
</linearGradient>
<linearGradient id="linear1" gradientUnits="userSpaceOnUse" x1="0" y1="0" x2="0" y2="1" gradientTransform="matrix(7.265765,0,0,7.184685,45.166666,13.387388)">
<stop offset="0" style="stop-color:#ffae00;stop-opacity:1;"/>
<stop offset="0.5" style="stop-color:#dddddd;stop-opacity:1;"/>
<stop offset="1" style="stop-color:#bf1d1d;stop-opacity:1;"/>
</linearGradient>
<linearGradient id="linear2" gradientUnits="userSpaceOnUse" x1="0" y1="0" x2="0" y2="1" gradientTransform="matrix(17.10811,0,0,16.923422,4.324324,22.837838)">
<stop offset="0" style="stop-color:#ffae00;stop-opacity:1;"/>
<stop offset="0.5" style="stop-color:#dddddd;stop-opacity:1;"/>
<stop offset="1" style="stop-color:#bf1d1d;stop-opacity:1;"/>
</linearGradient>
<linearGradient id="linear3" gradientUnits="userSpaceOnUse" x1="0" y1="0" x2="0" y2="1" gradientTransform="matrix(10.333332,0,0,10.22072,48.563064,44.99099)">
<stop offset="0" style="stop-color:#ffae00;stop-opacity:1;"/>
<stop offset="0.5" style="stop-color:#dddddd;stop-opacity:1;"/>
<stop offset="1" style="stop-color:#bf1d1d;stop-opacity:1;"/>
</linearGradient>
</defs>
<g id="surface1">
<path style=" stroke:none;fill-rule:nonzero;fill:url(#linear0);" d="M 13.527344 10.070312 C 4.851562 19.394531 6.949219 36.773438 18.21875 48.882812 C 29.488281 60.996094 45.648438 63.253906 54.324219 53.929688 C 63 44.605469 60.90625 27.226562 49.636719 15.113281 C 38.367188 3.003906 22.203125 0.746094 13.527344 10.070312 Z M 21.390625 13.945312 C 28.207031 6.621094 40.742188 8.210938 49.386719 17.511719 C 58.039062 26.800781 59.515625 40.269531 52.703125 47.597656 C 45.882812 54.921875 33.347656 53.335938 24.703125 44.039062 C 16.054688 34.746094 14.578125 21.273438 21.390625 13.945312 Z M 21.390625 13.945312 "/>
<path style=" stroke:none;fill-rule:nonzero;fill:url(#linear1);" d="M 46.449219 13.386719 L 51.148438 13.386719 C 51.863281 13.386719 52.433594 13.957031 52.433594 14.660156 L 52.433594 19.300781 C 52.433594 20.011719 51.863281 20.570312 51.148438 20.570312 L 46.449219 20.570312 C 45.738281 20.570312 45.164062 20.011719 45.164062 19.300781 L 45.164062 14.660156 C 45.164062 13.957031 45.738281 13.386719 46.449219 13.386719 Z M 46.449219 13.386719 "/>
<path style=" stroke:none;fill-rule:nonzero;fill:url(#linear2);" d="M 7.351562 22.835938 L 18.40625 22.835938 C 20.085938 22.835938 21.433594 24.175781 21.433594 25.835938 L 21.433594 36.769531 C 21.433594 38.429688 20.085938 39.761719 18.40625 39.761719 L 7.351562 39.761719 C 5.675781 39.761719 4.324219 38.429688 4.324219 36.769531 L 4.324219 25.835938 C 4.324219 24.175781 5.675781 22.835938 7.351562 22.835938 Z M 7.351562 22.835938 "/>
<path style=" stroke:none;fill-rule:nonzero;fill:url(#linear3);" d="M 50.390625 44.988281 L 57.066406 44.988281 C 58.082031 44.988281 58.894531 45.796875 58.894531 46.800781 L 58.894531 53.402344 C 58.894531 54.40625 58.082031 55.210938 57.066406 55.210938 L 50.390625 55.210938 C 49.378906 55.210938 48.5625 54.40625 48.5625 53.402344 L 48.5625 46.800781 C 48.5625 45.796875 49.378906 44.988281 50.390625 44.988281 Z M 50.390625 44.988281 "/>
</g>
</svg>
