<svg xmlns="http://www.w3.org/2000/svg" xmlns:xlink="http://www.w3.org/1999/xlink" width="64px" height="64px" viewBox="0 0 64 64" version="1.1">
<defs>
<linearGradient id="linear0" gradientUnits="userSpaceOnUse" x1="0" y1="0" x2="0" y2="1" gradientTransform="matrix(41.513514,0,0,55.351351,11.243243,4.324324)">
<stop offset="0" style="stop-color:#05f7ff;stop-opacity:1;"/>
<stop offset="0.5" style="stop-color:#dddddd;stop-opacity:1;"/>
<stop offset="1" style="stop-color:#e6ff05;stop-opacity:1;"/>
</linearGradient>
</defs>
<g id="surface1">
<path style=" stroke:none;fill-rule:nonzero;fill:url(#linear0);" d="M 11.242188 25.082031 L 11.242188 49.296875 C 11.242188 56.214844 11.242188 59.675781 16.433594 59.675781 C 21.621094 59.675781 21.621094 56.214844 21.621094 49.296875 C 21.621094 56.214844 21.621094 59.675781 26.8125 59.675781 C 32 59.675781 32 56.214844 32 49.296875 C 32 56.214844 32 59.675781 37.1875 59.675781 C 42.378906 59.675781 42.378906 56.214844 42.378906 49.296875 C 42.378906 56.214844 42.378906 59.675781 47.566406 59.675781 C 52.757812 59.675781 52.757812 56.214844 52.757812 49.296875 L 52.757812 25.082031 L 52.746094 25.082031 C 52.757812 14.703125 49.296875 4.324219 32 4.324219 C 14.703125 4.324219 11.242188 14.703125 11.242188 25.082031 Z M 23.351562 21.621094 C 26.226562 21.621094 28.539062 23.9375 28.539062 26.8125 C 28.539062 29.6875 26.226562 32 23.351562 32 C 20.476562 32 18.164062 29.6875 18.164062 26.8125 C 18.164062 23.9375 20.476562 21.621094 23.351562 21.621094 Z M 44.109375 21.621094 C 46.984375 21.621094 49.296875 23.9375 49.296875 26.8125 C 49.296875 29.6875 46.984375 32 44.109375 32 C 41.234375 32 38.917969 29.6875 38.917969 26.8125 C 38.917969 23.9375 41.234375 21.621094 44.109375 21.621094 Z M 44.109375 21.621094 "/>
</g>
</svg>
