<svg xmlns="http://www.w3.org/2000/svg" xmlns:xlink="http://www.w3.org/1999/xlink" width="48px" height="48px" viewBox="0 0 48 48" version="1.1">
<g id="surface1">
<path style=" stroke:none;fill-rule:nonzero;fill:rgb(100%,0%,0%);fill-opacity:1;" d="M 23.929688 0 C 10.703125 0.0390625 0 10.773438 0 24 C 0 37.253906 10.746094 48 24 48 C 37.253906 48 48 37.253906 48 24 C 48 17.941406 45.707031 12.105469 41.582031 7.664062 C 41.550781 9.90625 41.003906 12.109375 39.984375 14.101562 C 38.886719 16.015625 35.421875 19.640625 33.457031 21.5 C 33.144531 21.789062 32.976562 22.203125 33 22.628906 C 33.019531 23.054688 33.230469 23.449219 33.566406 23.707031 C 35.558594 25.1875 38.882812 28.011719 39.144531 30.550781 C 39.496094 34.222656 42.34375 38.59375 42.492188 38.871094 C 42.480469 39.101562 42.410156 39.328125 42.285156 39.523438 C 41.082031 40.941406 39.71875 42.214844 38.222656 43.320312 C 37.703125 43.496094 37.160156 43.578125 36.609375 43.570312 C 32.722656 43.492188 33.558594 39.839844 33.1875 37.761719 C 32.8125 35.683594 31.625 31.59375 27.753906 32.1875 C 27.753906 32.1875 28.722656 40.671875 24.777344 43.277344 C 20.828125 45.882812 13.089844 47.816406 11.675781 42.460938 C 10.261719 37.105469 16.597656 37.695312 17.042969 37.695312 C 17.488281 37.695312 21.511719 36.429688 19.578125 32.632812 C 17.644531 28.839844 15.558594 25.632812 15.558594 25.632812 C 13.628906 26.242188 11.789062 27.109375 10.089844 28.203125 C 9.316406 28.660156 8.601562 29.210938 7.964844 29.84375 C 5.835938 32.050781 3.585938 33.269531 2.058594 32.558594 C 1.824219 32.445312 1.609375 32.296875 1.417969 32.117188 C 0.824219 30.464844 0.417969 28.75 0.199219 27.007812 C 1.058594 25.722656 4.363281 22.929688 7.59375 21.195312 C 10.199219 19.789062 13.066406 19.21875 13.828125 18.484375 C 12.484375 14.015625 10.0625 7.078125 15.492188 3.824219 C 19.761719 1.269531 25.378906 -0.285156 27.539062 5.914062 C 29.699219 12.117188 29.144531 13.507812 30.074219 13.507812 C 31.003906 13.507812 33.289062 13.953125 34.253906 10.007812 C 34.964844 7.117188 35.402344 4.636719 37.011719 3.835938 C 33.132812 1.332031 28.617188 0 24 0 C 23.976562 0 23.953125 0 23.929688 0 Z M 22.933594 4.25 C 22.226562 4.210938 21.375 4.351562 20.328125 4.699219 C 20.328125 4.699219 16.539062 5.738281 16.828125 9.757812 C 17.089844 13.3125 18.988281 15.265625 22.9375 13.777344 C 26.878906 12.304688 27.554688 11.25 26.585938 8.273438 C 25.855469 6.039062 25.054688 4.359375 22.933594 4.25 Z M 23.894531 5.703125 C 24.03125 5.695312 24.164062 5.746094 24.261719 5.84375 C 24.445312 6.050781 24.601562 6.285156 24.722656 6.535156 C 24.800781 6.683594 24.800781 6.859375 24.722656 7.007812 C 24.644531 7.15625 24.496094 7.257812 24.328125 7.273438 C 24.136719 7.28125 23.957031 7.179688 23.863281 7.011719 C 23.777344 6.847656 23.679688 6.695312 23.566406 6.546875 C 23.378906 6.351562 23.378906 6.039062 23.566406 5.84375 C 23.65625 5.757812 23.773438 5.707031 23.894531 5.703125 Z M 30.953125 6.007812 C 31.105469 6.003906 31.253906 6.082031 31.335938 6.210938 C 31.398438 6.3125 31.417969 6.429688 31.394531 6.546875 C 31.367188 6.660156 31.296875 6.761719 31.195312 6.820312 C 31.039062 6.917969 30.839844 6.90625 30.695312 6.789062 C 30.550781 6.675781 30.492188 6.484375 30.550781 6.308594 C 30.609375 6.132812 30.769531 6.011719 30.953125 6.007812 Z M 25.21875 8.539062 C 25.40625 8.535156 25.582031 8.640625 25.671875 8.804688 C 25.960938 9.417969 26.03125 10.109375 25.875 10.769531 C 25.832031 11.007812 25.625 11.175781 25.382812 11.179688 L 25.285156 11.179688 C 25.011719 11.125 24.835938 10.863281 24.886719 10.589844 C 25.007812 10.125 24.957031 9.628906 24.742188 9.195312 C 24.695312 9.042969 24.722656 8.878906 24.816406 8.75 C 24.910156 8.621094 25.058594 8.542969 25.21875 8.539062 Z M 9.148438 9.644531 C 9.167969 9.644531 9.1875 9.644531 9.207031 9.648438 C 9.332031 9.683594 9.410156 9.8125 9.378906 9.9375 C 9.347656 10.066406 9.222656 10.144531 9.09375 10.117188 C 8.964844 10.085938 8.882812 9.960938 8.910156 9.832031 C 8.9375 9.722656 9.035156 9.644531 9.148438 9.644531 Z M 40.6875 16.480469 L 41.234375 17.558594 L 42.421875 17.800781 L 41.34375 18.351562 L 41.097656 19.535156 L 40.550781 18.457031 L 39.367188 18.210938 L 40.445312 17.664062 Z M 5.152344 17.550781 C 5.308594 17.546875 5.457031 17.625 5.539062 17.761719 C 5.601562 17.859375 5.621094 17.980469 5.597656 18.09375 C 5.570312 18.207031 5.5 18.304688 5.398438 18.367188 C 5.242188 18.464844 5.042969 18.449219 4.898438 18.335938 C 4.753906 18.222656 4.695312 18.03125 4.753906 17.855469 C 4.8125 17.679688 4.96875 17.558594 5.152344 17.550781 Z M 37.160156 23.132812 C 37.203125 23.132812 37.246094 23.136719 37.285156 23.144531 C 37.5625 23.210938 37.734375 23.488281 37.671875 23.765625 C 37.609375 24.042969 37.332031 24.214844 37.054688 24.152344 C 36.777344 24.089844 36.605469 23.8125 36.664062 23.535156 C 36.71875 23.300781 36.921875 23.136719 37.160156 23.132812 Z M 9.828125 32.230469 C 9.992188 32.230469 10.128906 32.351562 10.15625 32.511719 C 10.191406 32.695312 10.066406 32.871094 9.882812 32.902344 C 9.757812 32.929688 9.625 32.878906 9.546875 32.773438 C 9.46875 32.667969 9.460938 32.53125 9.519531 32.414062 C 9.578125 32.296875 9.699219 32.226562 9.828125 32.230469 Z M 29.367188 40.417969 C 29.390625 40.417969 29.414062 40.421875 29.4375 40.425781 C 29.597656 40.457031 29.722656 40.582031 29.753906 40.742188 C 29.785156 40.902344 29.714844 41.066406 29.578125 41.15625 C 29.441406 41.242188 29.261719 41.238281 29.128906 41.144531 C 28.996094 41.050781 28.933594 40.886719 28.972656 40.726562 C 29.015625 40.542969 29.179688 40.414062 29.367188 40.417969 Z M 29.367188 40.417969 "/>
</g>
</svg>
