<svg xmlns="http://www.w3.org/2000/svg" xmlns:xlink="http://www.w3.org/1999/xlink" width="64px" height="64px" viewBox="0 0 64 64" version="1.1">
<defs>
<linearGradient id="linear0" gradientUnits="userSpaceOnUse" x1="0" y1="0" x2="0" y2="1" gradientTransform="matrix(49.396395,0,0,32.621622,7.301802,17.346847)">
<stop offset="0" style="stop-color:#ffae00;stop-opacity:1;"/>
<stop offset="0.5" style="stop-color:#dddddd;stop-opacity:1;"/>
<stop offset="1" style="stop-color:#6600ff;stop-opacity:1;"/>
</linearGradient>
<linearGradient id="linear1" gradientUnits="userSpaceOnUse" x1="0" y1="0" x2="0" y2="1" gradientTransform="matrix(31.554054,0,0,55.351351,20.148649,4.324324)">
<stop offset="0" style="stop-color:#ffae00;stop-opacity:1;"/>
<stop offset="0.5" style="stop-color:#dddddd;stop-opacity:1;"/>
<stop offset="1" style="stop-color:#6600ff;stop-opacity:1;"/>
</linearGradient>
</defs>
<g id="surface1">
<path style=" stroke:none;fill-rule:nonzero;fill:url(#linear0);" d="M 39.4375 17.351562 C 38.449219 17.40625 37.570312 17.976562 37.125 18.855469 L 29.890625 34.570312 L 21.390625 44.292969 L 10.375 42.96875 C 6.710938 42.5625 6.097656 48.0625 9.765625 48.46875 L 22.210938 49.949219 C 23.117188 50.050781 24.003906 49.707031 24.605469 49.023438 L 34.285156 37.957031 C 34.4375 37.785156 34.5625 37.59375 34.664062 37.390625 L 39.863281 26.488281 L 43.023438 33.429688 C 43.820312 35.1875 46.132812 35.605469 47.496094 34.238281 L 55.792969 25.9375 C 58.511719 23.335938 54.488281 19.3125 51.882812 22.03125 L 46.40625 27.503906 L 42.109375 18.96875 C 41.636719 17.933594 40.578125 17.289062 39.4375 17.351562 Z M 39.4375 17.351562 "/>
<path style=" stroke:none;fill-rule:evenodd;fill:url(#linear1);" d="M 38.933594 9.761719 C 38.933594 6.761719 41.367188 4.324219 44.367188 4.324219 C 47.363281 4.324219 49.808594 6.761719 49.808594 9.761719 C 49.808594 12.761719 47.363281 15.199219 44.367188 15.199219 C 41.367188 15.199219 38.933594 12.761719 38.933594 9.761719 Z M 33.71875 15.292969 C 33.484375 15.289062 33.242188 15.3125 33.011719 15.375 L 22.242188 18.136719 C 21.011719 18.449219 20.148438 19.554688 20.148438 20.824219 L 20.148438 33.273438 C 20.09375 37.011719 25.148438 37.011719 25.09375 33.273438 L 25.09375 23.082031 L 31.113281 21.648438 L 31.292969 24.917969 C 30.609375 26.957031 29.957031 28.988281 29.460938 30.988281 C 27.949219 36.242188 29.609375 39.40625 32.796875 40.1875 C 32.917969 40.324219 33.058594 40.441406 33.207031 40.550781 L 41.144531 46.246094 L 46.367188 58.011719 C 47.867188 61.378906 52.929688 59.132812 51.429688 55.761719 L 45.890625 43.3125 C 45.699219 42.863281 45.378906 42.476562 44.984375 42.1875 L 38.652344 37.644531 C 39.960938 35.414062 40.5 32.203125 41.265625 29.515625 C 41.855469 27.4375 42.457031 25.355469 43.050781 23.269531 C 43.589844 21.554688 43.441406 20.136719 43.058594 19.164062 C 42.199219 17.125 41.015625 16.917969 39.082031 16.46875 L 34.488281 15.40625 C 34.484375 15.410156 34.484375 15.410156 34.484375 15.410156 C 34.238281 15.335938 33.984375 15.296875 33.71875 15.292969 Z M 33.71875 15.292969 "/>
</g>
</svg>
