<svg xmlns="http://www.w3.org/2000/svg" xmlns:xlink="http://www.w3.org/1999/xlink" width="64px" height="64px" viewBox="0 0 64 64" version="1.1">
<g id="surface1">
<path style=" stroke:none;fill-rule:nonzero;fill:rgb(31.37255%,88.627452%,47.450981%);fill-opacity:0.99608;" d="M 32 8.648438 C 44.894531 8.648438 55.351562 19.105469 55.351562 32 C 55.351562 44.894531 44.894531 55.351562 32 55.351562 C 19.105469 55.351562 8.648438 44.894531 8.648438 32 C 8.648438 19.105469 19.105469 8.648438 32 8.648438 Z M 32 8.648438 "/>
<path style=" stroke:none;fill-rule:nonzero;fill:rgb(100%,100%,100%);fill-opacity:1;" d="M 18.238281 18.066406 L 19.238281 18.820312 C 16.0625 20.285156 24.214844 26.96875 24.214844 26.96875 C 24.214844 26.96875 25.804688 25.539062 28.128906 25.386719 C 30.4375 23.027344 40.039062 24.824219 39.679688 26.761719 C 36.449219 26.8125 35.429688 26.402344 35.429688 26.402344 C 35.429688 26.402344 35.585938 26.585938 35.652344 27.214844 C 35.414062 27.414062 32.082031 26.664062 31.382812 26.714844 C 29.394531 26.867188 28.058594 26.917969 26.632812 27.078125 C 27.613281 27.398438 35.417969 28.789062 37.914062 31.203125 C 37.25 31.460938 36.960938 31.355469 36.738281 31.4375 C 36.539062 31.511719 36.34375 31.90625 35.914062 31.910156 C 35.609375 31.910156 35.710938 31.636719 35.078125 31.335938 C 31.125 31.492188 29.84375 29.085938 29.457031 28.789062 C 27.710938 28.371094 24.773438 27.429688 24.773438 27.429688 C 24.773438 27.429688 27.261719 29.414062 28.625 30.515625 C 28.738281 30.609375 30.609375 30.957031 32.988281 32.113281 C 34.261719 31.070312 37.710938 32.84375 37.066406 34.46875 C 36.496094 35.917969 32.671875 34.425781 32.8125 32.457031 C 31.9375 32.1875 30.328125 31.40625 29.292969 31.035156 C 30.285156 31.804688 34.171875 35.042969 34.953125 35.960938 C 38.375 35.539062 43.539062 36.390625 46.746094 38.445312 C 46.015625 38.636719 42.539062 39.300781 41.839844 39.113281 C 40.546875 38.625 38.617188 37.039062 38.414062 36.863281 C 37.667969 36.738281 36 36.496094 35.363281 36.421875 C 36.011719 37.085938 38.15625 39.5625 38.832031 40.609375 C 39.113281 40.546875 40.535156 40.890625 40.929688 41.160156 C 42.390625 39.664062 44.761719 42.285156 46.21875 43.550781 C 45.835938 44.328125 39.824219 43.128906 40.628906 41.386719 C 40.195312 41.332031 39.335938 40.859375 39.019531 40.835938 C 39.34375 41.257812 40.050781 41.835938 40.984375 42.8125 C 41.878906 42.558594 45.257812 46.210938 45.347656 47.011719 C 42.820312 46.398438 41.570312 45.863281 41.179688 45.40625 C 40.410156 44.5 40.699219 43.207031 40.773438 42.96875 C 39.78125 42.082031 39.59375 41.816406 39.269531 41.640625 C 39.261719 41.648438 39.269531 41.914062 39.289062 42.042969 C 40.917969 43.246094 40.128906 46.582031 39.1875 46.699219 C 38.785156 46.75 37.839844 41.996094 39.015625 41.820312 C 39.042969 41.726562 39.058594 41.445312 39.0625 41.433594 C 38.4375 40.761719 34.996094 37.097656 34.773438 36.945312 C 34.886719 37.234375 35.066406 37.710938 35.238281 38.292969 C 37.265625 39.621094 37.605469 41.746094 37.453125 44.242188 C 36.960938 43.390625 32.1875 39.503906 34.277344 37.78125 C 34.289062 37.515625 34.210938 36.914062 34.386719 36.570312 C 33.726562 35.914062 31.664062 33.875 31.480469 33.878906 C 31.710938 34.347656 31.851562 34.617188 31.964844 35.128906 C 33.539062 35.914062 33.082031 37.9375 32.363281 37.984375 C 31.613281 38.027344 29.9375 35.703125 31.511719 35.210938 C 31.386719 34.625 31.15625 33.828125 31.0625 33.484375 C 29.902344 32.578125 28.753906 31.664062 27.609375 30.738281 C 28.246094 31.804688 28.871094 33.460938 29.183594 34.410156 C 31.066406 36.542969 30.546875 39.84375 30.355469 43.25 C 28.144531 41.609375 26.773438 36.011719 28.179688 34.613281 C 27.710938 32.996094 27 30.257812 27 30.257812 C 23.960938 27.898438 22.28125 26.132812 22.28125 26.132812 C 22.28125 26.132812 24.304688 28.757812 24.539062 30.164062 C 26.3125 30.507812 27.789062 33.597656 26.382812 34.125 C 24.320312 34.894531 22.109375 31.625 23.867188 30.410156 C 23.867188 30.410156 22.3125 27.539062 21.105469 25.027344 C 16.351562 19.8125 16.8125 18.242188 18.238281 18.066406 Z M 18.238281 18.066406 "/>
</g>
</svg>
