<svg xmlns="http://www.w3.org/2000/svg" xmlns:xlink="http://www.w3.org/1999/xlink" width="64px" height="64px" viewBox="0 0 64 64" version="1.1">
<g id="surface1">
<path style=" stroke:none;fill-rule:nonzero;fill:rgb(25.098041%,70.19608%,91.37255%);fill-opacity:1;" d="M 32 8.648438 C 44.894531 8.648438 55.351562 19.105469 55.351562 32 C 55.351562 44.894531 44.894531 55.351562 32 55.351562 C 19.105469 55.351562 8.648438 44.894531 8.648438 32 C 8.648438 19.105469 19.105469 8.648438 32 8.648438 Z M 32 8.648438 "/>
<path style=" stroke:none;fill-rule:nonzero;fill:rgb(100%,100%,100%);fill-opacity:1;" d="M 34.539062 20.824219 C 31.710938 20.824219 29.265625 22.449219 28.054688 24.808594 C 27.269531 24.308594 26.339844 24.011719 25.339844 24.011719 C 22.539062 24.011719 20.265625 26.296875 20.265625 29.113281 C 20.265625 29.5625 20.335938 29.992188 20.445312 30.410156 C 18.421875 31.78125 17.097656 34.113281 17.097656 36.765625 C 17.097656 41.007812 20.488281 44.417969 24.707031 44.417969 L 39.289062 44.417969 C 43.507812 44.417969 46.902344 41.007812 46.902344 36.765625 C 46.902344 33.382812 44.730469 30.527344 41.710938 29.511719 C 41.789062 29.070312 41.828125 28.621094 41.828125 28.15625 C 41.828125 24.109375 38.5625 20.824219 34.539062 20.824219 Z M 34.539062 20.824219 "/>
</g>
</svg>
