<svg xmlns="http://www.w3.org/2000/svg" xmlns:xlink="http://www.w3.org/1999/xlink" width="64px" height="64px" viewBox="0 0 64 64" version="1.1">
<defs>
<linearGradient id="linear0" gradientUnits="userSpaceOnUse" x1="0" y1="0" x2="0" y2="1" gradientTransform="matrix(37.873875,0,0,55.351351,4.324324,4.324324)">
<stop offset="0" style="stop-color:#05f7ff;stop-opacity:1;"/>
<stop offset="0.5" style="stop-color:#dddddd;stop-opacity:1;"/>
<stop offset="1" style="stop-color:#e6ff05;stop-opacity:1;"/>
</linearGradient>
</defs>
<g id="surface1">
<path style=" stroke:none;fill-rule:evenodd;fill:url(#linear0);" d="M 32 4.324219 C 16.714844 4.324219 4.324219 16.714844 4.324219 32 C 4.324219 47.285156 16.714844 59.675781 32 59.675781 C 35.347656 59.664062 38.664062 59.042969 41.796875 57.847656 L 40.300781 52.078125 C 37.671875 53.171875 34.851562 53.738281 32 53.746094 C 19.988281 53.746094 10.253906 44.011719 10.253906 32 C 10.253906 26.234375 12.550781 20.703125 16.621094 16.621094 C 20.703125 12.550781 26.234375 10.253906 32 10.253906 C 34.855469 10.257812 37.675781 10.824219 40.3125 11.917969 L 41.8125 6.136719 C 38.679688 4.941406 35.355469 4.328125 32 4.324219 Z M 32 13.0625 C 21.539062 13.0625 13.0625 21.539062 13.0625 32 C 13.0625 42.460938 21.539062 50.9375 32 50.9375 C 34.570312 50.933594 37.117188 50.410156 39.476562 49.394531 L 38.03125 43.800781 C 36.164062 44.757812 34.09375 45.253906 32 45.257812 C 28.488281 45.257812 25.113281 43.863281 22.625 41.375 C 20.136719 38.886719 18.742188 35.511719 18.742188 32 C 18.742188 28.488281 20.136719 25.113281 22.625 22.625 C 25.113281 20.136719 28.488281 18.742188 32 18.742188 C 34.097656 18.753906 36.164062 19.253906 38.03125 20.210938 L 39.476562 14.632812 C 37.117188 13.605469 34.570312 13.070312 32 13.0625 Z M 37 23.105469 C 33.894531 21.363281 30.109375 21.367188 27.003906 23.117188 L 28.390625 28.390625 L 23.105469 27 C 21.363281 30.105469 21.367188 33.890625 23.117188 36.996094 L 28.390625 35.609375 L 27 40.894531 C 30.105469 42.636719 33.890625 42.632812 36.996094 40.882812 L 35.609375 35.609375 L 40.894531 37 C 42.636719 33.894531 42.632812 30.109375 40.882812 27.003906 L 35.609375 28.390625 Z M 37 23.105469 "/>
</g>
</svg>
