<svg xmlns="http://www.w3.org/2000/svg" xmlns:xlink="http://www.w3.org/1999/xlink" width="64px" height="64px" viewBox="0 0 64 64" version="1.1">
<defs>
<linearGradient id="linear0" gradientUnits="userSpaceOnUse" x1="0" y1="0" x2="0" y2="1" gradientTransform="matrix(28.585584,0,0,55.351351,17.734234,4.459459)">
<stop offset="0" style="stop-color:#00b7ff;stop-opacity:1;"/>
<stop offset="0.5" style="stop-color:#dddddd;stop-opacity:1;"/>
<stop offset="1" style="stop-color:#ee42d9;stop-opacity:1;"/>
</linearGradient>
</defs>
<g id="surface1">
<path style=" stroke:none;fill-rule:nonzero;fill:url(#linear0);" d="M 33.613281 49.050781 C 35.863281 48.851562 37.078125 47.972656 38.246094 46.882812 C 39.441406 45.789062 39.960938 44.789062 39.960938 42.902344 C 39.960938 41.1875 39.449219 39.253906 38.28125 38.058594 C 37.105469 36.863281 35.878906 35.828125 33.613281 35.210938 Z M 30.4375 15.226562 C 28.390625 15.363281 26.503906 16.199219 25.367188 17.253906 C 24.238281 18.289062 24.085938 19.625 24.085938 21.375 C 24.085938 22.960938 24.1875 24.335938 25.21875 25.390625 C 26.273438 26.441406 28.210938 26.867188 30.4375 27.523438 Z M 17.734375 49.050781 L 17.734375 41.363281 L 20.910156 41.363281 C 20.988281 44.085938 21.890625 45.253906 23.40625 46.644531 C 24.914062 48.03125 27.460938 48.988281 30.4375 49.050781 L 30.4375 35.210938 C 25.867188 33.941406 22.363281 31.632812 20.511719 29.984375 C 18.664062 28.3125 17.734375 26.105469 17.734375 23.363281 C 17.734375 20.1875 18.835938 17.632812 21.015625 15.703125 C 23.207031 13.773438 26.542969 12.386719 30.4375 12.148438 L 30.4375 4.460938 L 33.613281 4.460938 L 33.613281 12.148438 C 35.621094 12.308594 37.054688 12.941406 38.90625 13.4375 C 40.769531 13.914062 42.960938 14.5625 44.730469 15.375 L 44.730469 22.910156 L 41.554688 22.910156 C 41.3125 20.609375 40.066406 19.0625 38.691406 17.730469 C 37.324219 16.402344 35.960938 15.402344 33.613281 15.226562 L 33.613281 29.0625 C 38.503906 30.390625 41.429688 31.796875 43.375 33.527344 C 45.339844 35.238281 46.320312 36.941406 46.320312 39.824219 C 46.320312 43.121094 45.171875 46.355469 42.867188 48.339844 C 40.5625 50.328125 37.808594 51.824219 33.613281 52.125 L 33.613281 59.8125 L 30.4375 59.8125 L 30.4375 52.125 C 28.53125 52.085938 26.257812 51.449219 24.207031 50.9375 C 22.164062 50.4375 19.960938 50.042969 17.734375 49.050781 Z M 17.734375 49.050781 "/>
</g>
</svg>
