<svg xmlns="http://www.w3.org/2000/svg" xmlns:xlink="http://www.w3.org/1999/xlink" width="64px" height="64px" viewBox="0 0 64 64" version="1.1">
<defs>
<linearGradient id="linear0" gradientUnits="userSpaceOnUse" x1="0" y1="0" x2="0" y2="1" gradientTransform="matrix(55.351351,0,0,43.045044,4.324324,10.477478)">
<stop offset="0" style="stop-color:#ffae00;stop-opacity:1;"/>
<stop offset="0.5" style="stop-color:#dddddd;stop-opacity:1;"/>
<stop offset="1" style="stop-color:#bf1d1d;stop-opacity:1;"/>
</linearGradient>
</defs>
<g id="surface1">
<path style=" stroke:none;fill-rule:nonzero;fill:url(#linear0);" d="M 32 10.476562 C 25.238281 10.484375 18.496094 12.136719 13.347656 15.410156 C 2.027344 22.597656 1.242188 35.039062 11.644531 42.679688 C 12.605469 43.367188 13.472656 44.011719 13.582031 44.097656 L 10.703125 49.214844 L 16.625 53.523438 L 32 27.941406 L 47.375 53.523438 L 53.296875 49.214844 L 50.417969 44.097656 C 50.527344 44.011719 51.394531 43.367188 52.351562 42.679688 C 62.757812 35.039062 61.976562 22.59375 50.652344 15.410156 C 45.503906 12.136719 38.761719 10.484375 32 10.476562 Z M 30.441406 13.550781 L 16.605469 38.152344 C 1.230469 25.847656 18.144531 13.550781 30.441406 13.550781 Z M 33.539062 13.550781 C 45.835938 13.550781 62.753906 25.847656 47.375 38.152344 Z M 32 35.078125 L 25.847656 44.292969 L 32 53.523438 L 38.152344 44.292969 Z M 32 35.078125 "/>
</g>
</svg>
