<svg xmlns="http://www.w3.org/2000/svg" xmlns:xlink="http://www.w3.org/1999/xlink" width="64px" height="64px" viewBox="0 0 64 64" version="1.1">
<defs>
<linearGradient id="linear0" gradientUnits="userSpaceOnUse" x1="0" y1="0" x2="0" y2="1" gradientTransform="matrix(41.00901,0,0,55.351351,11.495496,4.324324)">
<stop offset="0" style="stop-color:#ffae00;stop-opacity:1;"/>
<stop offset="0.5" style="stop-color:#dddddd;stop-opacity:1;"/>
<stop offset="1" style="stop-color:#6600ff;stop-opacity:1;"/>
</linearGradient>
</defs>
<g id="surface1">
<path style=" stroke:none;fill-rule:evenodd;fill:url(#linear0);" d="M 18.734375 39.171875 C 18.734375 46.5 24.671875 52.4375 32 52.4375 C 39.328125 52.4375 45.265625 46.5 45.265625 39.171875 C 45.265625 31.839844 39.328125 25.90625 32 25.90625 C 25.003906 25.90625 19.273438 31.320312 18.769531 38.179688 L 18.769531 39.171875 Z M 18.765625 23.511719 C 22.335938 20.488281 26.949219 18.664062 32 18.664062 C 43.324219 18.664062 52.503906 27.847656 52.503906 39.171875 C 52.503906 50.496094 43.324219 59.675781 32 59.675781 C 20.675781 59.675781 11.496094 50.496094 11.496094 39.171875 C 11.496094 38.746094 11.511719 38.328125 11.539062 37.910156 L 11.566406 4.710938 C 13.945312 4.511719 16.339844 4.386719 18.753906 4.324219 Z M 35.617188 39.171875 C 35.617188 37.175781 37.242188 35.554688 39.238281 35.554688 C 41.234375 35.554688 42.855469 37.175781 42.855469 39.171875 C 42.855469 41.164062 41.234375 42.789062 39.238281 42.789062 C 37.242188 42.789062 35.617188 41.164062 35.617188 39.171875 Z M 35.617188 39.171875 "/>
</g>
</svg>
