<svg xmlns="http://www.w3.org/2000/svg" xmlns:xlink="http://www.w3.org/1999/xlink" width="64px" height="64px" viewBox="0 0 64 64" version="1.1">
<defs>
<linearGradient id="linear0" gradientUnits="userSpaceOnUse" x1="0" y1="0" x2="0" y2="1" gradientTransform="matrix(55.351351,0,0,55.351351,4.324324,4.324324)">
<stop offset="0" style="stop-color:#ffae00;stop-opacity:1;"/>
<stop offset="0.5" style="stop-color:#dddddd;stop-opacity:1;"/>
<stop offset="1" style="stop-color:#bf1d1d;stop-opacity:1;"/>
</linearGradient>
</defs>
<g id="surface1">
<path style=" stroke:none;fill-rule:evenodd;fill:url(#linear0);" d="M 32.171875 10.652344 C 23.679688 10.652344 18.828125 14.132812 15.664062 18.042969 C 18.089844 18.710938 19.785156 19.265625 20.335938 19.445312 C 20.335938 19.082031 20.394531 15.773438 20.394531 15.773438 L 20.445312 15.664062 L 20.566406 15.632812 C 21.3125 15.738281 37.234375 18.09375 43.9375 22 C 44.769531 22.488281 45.175781 23 45.6875 23.523438 C 47.542969 25.441406 50.003906 33.414062 50.265625 35.0625 L 50.160156 35.234375 C 50.0625 35.269531 49.828125 35.433594 49.527344 35.644531 C 47.960938 36.734375 44.300781 39.296875 39.613281 38.878906 C 35.394531 38.503906 29.890625 36.085938 23.257812 31.710938 C 23.550781 32.402344 24.929688 35.675781 25.164062 36.226562 L 25.253906 36.339844 C 26.214844 36.835938 35.4375 41.539062 40.011719 41.445312 C 43.703125 41.375 47.648438 39.566406 49.21875 38.621094 L 49.726562 38.527344 C 49.863281 38.636719 49.839844 38.851562 49.796875 39.050781 C 49.703125 39.5 49.488281 40.328125 49.335938 40.714844 L 49.214844 41.039062 C 49.039062 41.511719 48.855469 41.972656 48.523438 42.253906 C 47.589844 43.09375 46.105469 43.765625 43.78125 44.785156 C 40.1875 46.351562 34.363281 47.339844 28.945312 47.3125 C 27.011719 47.261719 25.136719 47.054688 23.488281 46.863281 C 20.050781 46.472656 17.261719 46.160156 15.589844 47.457031 C 19.648438 52.039062 25.570312 54.933594 32.175781 54.933594 C 44.40625 54.933594 54.328125 45.015625 54.328125 32.792969 C 54.328125 20.5625 44.40625 10.652344 32.175781 10.652344 Z M 32 4.324219 C 16.714844 4.324219 4.324219 16.714844 4.324219 32 C 4.324219 47.285156 16.714844 59.675781 32 59.675781 C 47.285156 59.675781 59.675781 47.285156 59.675781 32 C 59.675781 16.714844 47.285156 4.324219 32 4.324219 Z M 39.089844 26.757812 C 37.929688 26.757812 36.984375 27.382812 36.984375 28.164062 C 36.984375 28.9375 37.929688 29.578125 39.089844 29.578125 C 40.253906 29.578125 41.191406 28.9375 41.191406 28.164062 C 41.191406 27.382812 40.253906 26.757812 39.089844 26.757812 Z M 37.839844 24.378906 C 38 24.367188 38.152344 24.375 38.3125 24.378906 C 40.929688 24.46875 42.988281 26.664062 42.894531 29.289062 C 42.863281 30.554688 42.324219 31.738281 41.394531 32.605469 C 40.460938 33.46875 39.257812 33.914062 37.988281 33.867188 C 35.367188 33.773438 33.320312 31.570312 33.40625 28.949219 C 33.445312 27.6875 33.988281 26.511719 34.910156 25.644531 C 35.71875 24.886719 36.746094 24.445312 37.839844 24.378906 Z M 38.027344 22.367188 C 36.335938 22.394531 34.734375 23.03125 33.488281 24.191406 C 32.160156 25.433594 31.386719 27.121094 31.324219 28.941406 C 31.203125 32.6875 34.152344 35.855469 37.902344 35.988281 C 39.730469 36.050781 41.457031 35.402344 42.789062 34.152344 C 44.113281 32.917969 44.875 31.238281 44.945312 29.421875 C 45.070312 25.671875 42.121094 22.503906 38.363281 22.367188 C 38.253906 22.363281 38.136719 22.367188 38.027344 22.367188 Z M 38.027344 22.367188 "/>
</g>
</svg>
