<svg xmlns="http://www.w3.org/2000/svg" xmlns:xlink="http://www.w3.org/1999/xlink" width="64px" height="64px" viewBox="0 0 64 64" version="1.1">
<defs>
<linearGradient id="linear0" gradientUnits="userSpaceOnUse" x1="0" y1="0" x2="0" y2="1" gradientTransform="matrix(55.351351,0,0,51.666666,4.324324,6.166666)">
<stop offset="0" style="stop-color:#ff8963;stop-opacity:1;"/>
<stop offset="0.5" style="stop-color:#dddddd;stop-opacity:1;"/>
<stop offset="1" style="stop-color:#0F6FFF;stop-opacity:1;"/>
</linearGradient>
</defs>
<g id="surface1">
<path style=" stroke:none;fill-rule:evenodd;fill:url(#linear0);" d="M 7.785156 25.296875 L 15.539062 25.296875 L 15.539062 35.632812 L 20.664062 35.632812 L 20.664062 25.296875 L 43.367188 25.296875 L 43.367188 35.632812 L 48.5 35.632812 L 48.5 25.296875 L 56.214844 25.296875 L 56.214844 38.710938 C 56.214844 40.542969 56.179688 42.339844 56.078125 44.144531 C 56.011719 45.488281 55.867188 46.839844 55.625 48.160156 C 55.488281 49.054688 55.210938 49.886719 54.863281 50.714844 C 54.625 51.234375 54.3125 51.6875 53.933594 52.097656 C 53.554688 52.484375 53.066406 52.792969 52.550781 53.03125 C 51.753906 53.378906 50.886719 53.621094 49.988281 53.792969 C 48.675781 54.039062 47.324219 54.175781 45.976562 54.242188 C 44.175781 54.347656 42.339844 54.382812 40.542969 54.382812 C 40.542969 54.382812 40.542969 54.382812 40.511719 54.382812 L 23.488281 54.382812 C 23.457031 54.382812 23.457031 54.382812 23.457031 54.382812 C 21.660156 54.382812 19.824219 54.347656 18.023438 54.242188 C 16.675781 54.175781 15.324219 54.039062 14.011719 53.792969 C 13.113281 53.621094 12.246094 53.378906 11.449219 53.03125 C 10.933594 52.792969 10.445312 52.484375 10.066406 52.097656 C 9.6875 51.6875 9.375 51.234375 9.136719 50.714844 C 8.789062 49.886719 8.511719 49.054688 8.375 48.160156 C 8.132812 46.839844 7.988281 45.488281 7.921875 44.144531 C 7.820312 42.339844 7.785156 40.542969 7.785156 38.710938 Z M 4.324219 25.296875 C 4.324219 8.558594 6.714844 6.164062 23.472656 6.164062 L 40.527344 6.164062 C 57.285156 6.164062 59.675781 8.558594 59.675781 25.296875 L 59.675781 38.703125 C 59.675781 55.441406 57.285156 57.835938 40.527344 57.835938 L 23.472656 57.835938 C 6.714844 57.835938 4.324219 55.441406 4.324219 38.703125 Z M 4.324219 25.296875 "/>
</g>
</svg>
