<svg xmlns="http://www.w3.org/2000/svg" xmlns:xlink="http://www.w3.org/1999/xlink" width="64px" height="64px" viewBox="0 0 64 64" version="1.1">
<defs>
<linearGradient id="linear0" gradientUnits="userSpaceOnUse" x1="0" y1="0" x2="0" y2="1" gradientTransform="matrix(39.981983,0,0,55.351351,12.009008,4.324324)">
<stop offset="0" style="stop-color:#00b7ff;stop-opacity:1;"/>
<stop offset="0.5" style="stop-color:#dddddd;stop-opacity:1;"/>
<stop offset="1" style="stop-color:#ee42d9;stop-opacity:1;"/>
</linearGradient>
</defs>
<g id="surface1">
<path style=" stroke:none;fill-rule:nonzero;fill:url(#linear0);" d="M 12.011719 4.324219 L 12.011719 29.875 C 12.011719 35.539062 14.136719 41 17.71875 44.300781 L 12.011719 53.523438 C 17.828125 58.003906 24.820312 59.675781 32 59.675781 C 39.179688 59.675781 46.171875 58.003906 51.988281 53.523438 L 46.28125 44.300781 C 49.863281 41 51.988281 35.539062 51.988281 29.875 L 51.988281 4.324219 L 44.300781 4.324219 L 44.300781 14.542969 C 42.691406 13.511719 39.566406 11.550781 36.613281 10.996094 L 36.613281 4.324219 L 27.386719 4.324219 L 27.386719 10.996094 C 25.960938 11.296875 21.308594 13.511719 19.699219 14.542969 L 19.699219 4.324219 Z M 32 19.699219 C 37.390625 19.699219 40.875 22.179688 44.300781 24.3125 L 44.300781 32 C 44.300781 37.402344 36 42.171875 32 44.300781 C 28 42.171875 19.699219 37.402344 19.699219 32 L 19.699219 24.3125 C 23.125 22.179688 26.609375 19.699219 32 19.699219 Z M 32 19.699219 "/>
</g>
</svg>
