<svg xmlns="http://www.w3.org/2000/svg" xmlns:xlink="http://www.w3.org/1999/xlink" width="64px" height="64px" viewBox="0 0 64 64" version="1.1">
<defs>
<linearGradient id="linear0" gradientUnits="userSpaceOnUse" x1="0" y1="0" x2="0" y2="1" gradientTransform="matrix(55.351351,0,0,54.684686,4.324324,4.657657)">
<stop offset="0" style="stop-color:#ff8963;stop-opacity:1;"/>
<stop offset="0.5" style="stop-color:#dddddd;stop-opacity:1;"/>
<stop offset="1" style="stop-color:#0F6FFF;stop-opacity:1;"/>
</linearGradient>
</defs>
<g id="surface1">
<path style=" stroke:none;fill-rule:evenodd;fill:url(#linear0);" d="M 31.664062 4.660156 C 16.5625 4.660156 4.324219 16.902344 4.324219 32 C 4.324219 47.097656 16.5625 59.339844 31.664062 59.339844 C 33.636719 59.328125 35.597656 59.105469 37.523438 58.671875 C 24.988281 55.921875 16.054688 44.835938 16.039062 32 C 16.054688 19.1875 24.960938 8.09375 37.472656 5.328125 C 35.566406 4.894531 33.617188 4.675781 31.664062 4.660156 Z M 47.71875 32.488281 C 51.1875 34.679688 54.957031 36.363281 59.675781 36.335938 C 55.566406 38.253906 55.808594 43.429688 45.863281 41.21875 C 44.714844 40.96875 43.664062 40.632812 42.6875 40.226562 C 42.523438 44.324219 42.949219 48.429688 45.335938 52.503906 C 41.621094 49.90625 37.257812 52.703125 34.199219 42.988281 C 33.839844 41.863281 33.609375 40.789062 33.46875 39.734375 C 29.835938 41.648438 26.5 44.070312 24.160156 48.171875 C 24.550781 43.660156 19.945312 41.273438 26.835938 33.765625 C 27.621094 32.902344 28.441406 32.160156 29.28125 31.511719 C 25.8125 29.320312 22.042969 27.636719 17.324219 27.664062 C 21.433594 25.746094 21.191406 20.570312 31.136719 22.78125 C 32.285156 23.03125 33.335938 23.367188 34.320312 23.773438 C 34.476562 19.675781 34.042969 15.570312 31.664062 11.496094 C 35.378906 14.09375 39.742188 11.296875 42.800781 21.011719 C 43.160156 22.136719 43.390625 23.210938 43.539062 24.265625 C 47.164062 22.351562 50.5 19.929688 52.835938 15.828125 C 52.445312 20.339844 57.050781 22.726562 50.164062 30.234375 C 49.375 31.097656 48.558594 31.839844 47.71875 32.488281 Z M 47.71875 32.488281 "/>
</g>
</svg>
