<svg xmlns="http://www.w3.org/2000/svg" xmlns:xlink="http://www.w3.org/1999/xlink" width="64px" height="64px" viewBox="0 0 64 64" version="1.1">
<defs>
<linearGradient id="linear0" gradientUnits="userSpaceOnUse" x1="0" y1="0" x2="0" y2="1" gradientTransform="matrix(55.351351,0,0,31.563064,4.324324,14.702703)">
<stop offset="0" style="stop-color:#05f7ff;stop-opacity:1;"/>
<stop offset="0.5" style="stop-color:#dddddd;stop-opacity:1;"/>
<stop offset="1" style="stop-color:#e6ff05;stop-opacity:1;"/>
</linearGradient>
</defs>
<g id="surface1">
<path style=" stroke:none;fill-rule:evenodd;fill:url(#linear0);" d="M 42.839844 17.152344 C 36.378906 14.023438 28.488281 13.835938 21.96875 16.910156 C 17.394531 19.015625 13.605469 22.644531 11.109375 27 C 13.339844 24.1875 16.050781 21.6875 19.3125 20.117188 C 25.136719 17.160156 32.265625 17.082031 38.238281 19.6875 C 42.765625 21.613281 46.59375 25.085938 48.984375 29.386719 C 49.402344 29.179688 49.820312 28.972656 50.238281 28.765625 L 50.242188 28.761719 C 51.320312 28.230469 52.402344 27.691406 53.476562 27.152344 C 51.070312 22.824219 47.3125 19.273438 42.839844 17.152344 Z M 17.53125 30.648438 C 20.71875 25.851562 26.199219 22.515625 32.03125 22.570312 C 37.839844 22.503906 43.363281 25.808594 46.421875 30.675781 L 41.945312 32.914062 C 39.199219 28.636719 34.363281 25.710938 29.234375 25.671875 C 24.824219 25.496094 20.644531 27.605469 17.578125 30.671875 Z M 4.324219 28.527344 C 4.328125 29.824219 4.328125 31.125 4.328125 32.429688 C 13.554688 37.039062 22.773438 41.652344 31.996094 46.265625 C 41.21875 41.648438 50.445312 37.039062 59.671875 32.429688 C 59.664062 31.132812 59.664062 29.828125 59.675781 28.53125 C 53.214844 31.765625 46.757812 34.988281 40.300781 38.21875 L 32 42.363281 L 27.660156 40.199219 L 27.648438 40.191406 C 19.875 36.308594 12.09375 32.421875 4.324219 28.527344 Z M 31.292969 29.203125 C 28.289062 29.382812 25.8125 31.414062 24.113281 33.761719 C 25.644531 32.785156 27.390625 31.960938 29.261719 32.175781 C 31.847656 32.324219 34.050781 34.039062 35.433594 36.144531 C 36.105469 35.808594 36.78125 35.46875 37.449219 35.136719 C 38.269531 34.730469 39.085938 34.324219 39.894531 33.910156 C 38.109375 30.996094 34.808594 28.835938 31.292969 29.203125 Z M 31.292969 29.203125 "/>
</g>
</svg>
