<svg xmlns="http://www.w3.org/2000/svg" xmlns:xlink="http://www.w3.org/1999/xlink" width="64px" height="64px" viewBox="0 0 64 64" version="1.1">
<defs>
<linearGradient id="linear0" gradientUnits="userSpaceOnUse" x1="0" y1="0" x2="0" y2="1" gradientTransform="matrix(51.369368,0,0,55.351351,6.315315,4.324324)">
<stop offset="0" style="stop-color:#ffae00;stop-opacity:1;"/>
<stop offset="0.5" style="stop-color:#dddddd;stop-opacity:1;"/>
<stop offset="1" style="stop-color:#bf1d1d;stop-opacity:1;"/>
</linearGradient>
</defs>
<g id="surface1">
<path style=" stroke:none;fill-rule:nonzero;fill:url(#linear0);" d="M 6.3125 31.726562 C 6.3125 46.351562 16.589844 59.675781 32 59.675781 C 47.414062 59.675781 57.6875 46.351562 57.6875 31.726562 C 57.6875 15.28125 47.113281 4.324219 32 4.324219 C 16.886719 4.324219 6.3125 15.28125 6.3125 31.726562 Z M 21.496094 31.109375 C 21.496094 20.058594 23.28125 7.851562 32 7.851562 C 40.71875 7.851562 42.488281 20.1875 42.488281 31.238281 C 42.488281 41.472656 41.402344 55.417969 32 55.417969 C 22.597656 55.417969 21.496094 41.339844 21.496094 31.109375 Z M 21.496094 31.109375 "/>
</g>
</svg>
