<svg xmlns="http://www.w3.org/2000/svg" xmlns:xlink="http://www.w3.org/1999/xlink" width="64px" height="64px" viewBox="0 0 64 64" version="1.1">
<g id="surface1">
<path style=" stroke:none;fill-rule:nonzero;fill:rgb(60.000002%,60.000002%,58.039218%);fill-opacity:1;" d="M 23.710938 22.347656 C 23.835938 27.789062 22.078125 32.515625 17.132812 36.058594 L 24.507812 39.597656 C 24.046875 33.5625 26.636719 29.210938 31.085938 25.886719 Z M 23.710938 22.347656 "/>
<path style=" stroke:none;fill-rule:nonzero;fill:rgb(60.000002%,60.000002%,58.039218%);fill-opacity:1;" d="M 40.070312 22.347656 C 39.941406 27.789062 41.703125 32.515625 46.648438 36.058594 L 39.273438 39.597656 C 39.734375 33.5625 37.144531 29.210938 32.695312 25.886719 Z M 40.070312 22.347656 "/>
<path style=" stroke:none;fill-rule:nonzero;fill:rgb(60.000002%,60.000002%,58.039218%);fill-opacity:1;" d="M 38.699219 41.84375 C 34.039062 44.308594 29.207031 44.761719 24.085938 41.835938 L 24.078125 50.011719 C 29.121094 46.992188 33.964844 47.445312 38.691406 50.023438 Z M 38.699219 41.84375 "/>
<path style=" stroke:none;fill-rule:nonzero;fill:rgb(92.156863%,92.156863%,92.156863%);fill-opacity:1;" d="M 42.378906 18.164062 C 42.378906 23.894531 37.734375 28.539062 32 28.539062 C 26.265625 28.539062 21.621094 23.894531 21.621094 18.164062 C 21.621094 12.429688 26.265625 7.785156 32 7.785156 C 37.734375 7.785156 42.378906 12.429688 42.378906 18.164062 Z M 42.378906 18.164062 "/>
<path style=" stroke:none;fill-rule:nonzero;fill:rgb(92.156863%,92.156863%,92.156863%);fill-opacity:1;" d="M 26.8125 45.835938 C 26.8125 51.570312 22.164062 56.214844 16.433594 56.214844 C 10.699219 56.214844 6.054688 51.570312 6.054688 45.835938 C 6.054688 40.105469 10.699219 35.460938 16.433594 35.460938 C 22.164062 35.460938 26.8125 40.105469 26.8125 45.835938 Z M 26.8125 45.835938 "/>
<path style=" stroke:none;fill-rule:nonzero;fill:rgb(92.156863%,92.156863%,92.156863%);fill-opacity:1;" d="M 57.945312 45.835938 C 57.945312 51.570312 53.300781 56.214844 47.566406 56.214844 C 41.835938 56.214844 37.1875 51.570312 37.1875 45.835938 C 37.1875 40.105469 41.835938 35.460938 47.566406 35.460938 C 53.300781 35.460938 57.945312 40.105469 57.945312 45.835938 Z M 57.945312 45.835938 "/>
</g>
</svg>
