<svg xmlns="http://www.w3.org/2000/svg" xmlns:xlink="http://www.w3.org/1999/xlink" width="64px" height="64px" viewBox="0 0 64 64" version="1.1">
<defs>
<linearGradient id="linear0" gradientUnits="userSpaceOnUse" x1="0" y1="0" x2="0" y2="1" gradientTransform="matrix(55.351351,0,0,38.054054,4.324324,12.972973)">
<stop offset="0" style="stop-color:#ffae00;stop-opacity:1;"/>
<stop offset="0.5" style="stop-color:#dddddd;stop-opacity:1;"/>
<stop offset="1" style="stop-color:#bf1d1d;stop-opacity:1;"/>
</linearGradient>
</defs>
<g id="surface1">
<path style=" stroke:none;fill-rule:nonzero;fill:url(#linear0);" d="M 4.324219 50.410156 C 13.765625 47.523438 22.6875 42.714844 30.488281 36.324219 C 33.136719 34.152344 35.710938 31.734375 37.328125 28.605469 C 38.136719 27.039062 38.6875 25.3125 38.828125 23.53125 C 38.972656 21.753906 38.691406 19.914062 37.929688 18.328125 C 37.28125 16.988281 36.292969 15.839844 35.132812 14.984375 C 33.96875 14.125 32.636719 13.554688 31.253906 13.246094 C 28.488281 12.636719 25.597656 13.097656 22.921875 14.058594 C 19.308594 15.351562 15.945312 17.597656 13.511719 20.746094 C 11.082031 23.894531 9.636719 27.976562 9.828125 32.0625 C 10.039062 36.503906 12.171875 40.699219 15.207031 43.730469 C 18.242188 46.761719 22.125 48.703125 26.136719 49.824219 C 32.011719 51.460938 38.28125 51.429688 44.132812 49.714844 C 49.984375 48.003906 55.394531 44.621094 59.675781 40.011719 L 59.632812 28.050781 C 55.855469 34.3125 50.121094 39.1875 43.582031 41.707031 C 38.652344 43.605469 33.164062 44.164062 28.164062 42.496094 C 25.664062 41.664062 23.3125 40.273438 21.382812 38.378906 C 19.457031 36.476562 17.957031 34.0625 17.160156 31.390625 C 16.230469 28.292969 16.292969 24.792969 17.679688 21.902344 C 18.367188 20.457031 19.382812 19.179688 20.632812 18.261719 C 21.882812 17.335938 23.367188 16.78125 24.886719 16.71875 C 25.902344 16.679688 26.921875 16.863281 27.863281 17.285156 C 28.792969 17.707031 29.632812 18.378906 30.246094 19.242188 C 30.960938 20.238281 31.355469 21.472656 31.460938 22.71875 C 31.558594 23.96875 31.367188 25.234375 30.988281 26.414062 C 30.21875 28.785156 28.71875 30.789062 27.160156 32.652344 C 20.824219 40.207031 12.988281 46.300781 4.324219 50.410156 "/>
</g>
</svg>
