<svg xmlns="http://www.w3.org/2000/svg" xmlns:xlink="http://www.w3.org/1999/xlink" width="64px" height="64px" viewBox="0 0 64 64" version="1.1">
<g id="surface1">
<path style=" stroke:none;fill-rule:nonzero;fill:rgb(94.901961%,94.901961%,94.901961%);fill-opacity:1;" d="M 32 8.648438 C 44.894531 8.648438 55.351562 19.105469 55.351562 32 C 55.351562 44.894531 44.894531 55.351562 32 55.351562 C 19.105469 55.351562 8.648438 44.894531 8.648438 32 C 8.648438 19.105469 19.105469 8.648438 32 8.648438 Z M 32 8.648438 "/>
<path style=" stroke:none;fill-rule:nonzero;fill:rgb(45.09804%,82.352942%,8.627451%);fill-opacity:1;" d="M 43.613281 17.082031 C 39.902344 19.152344 25.371094 17.011719 19.191406 32.53125 C 18.328125 36.625 18.773438 42.273438 22.738281 42.527344 C 23.554688 42.578125 24.292969 43.132812 24.683594 43.761719 C 27.210938 47.882812 30.859375 47.523438 32.363281 45.558594 C 32.65625 45.179688 33.207031 45.289062 33.597656 45.585938 C 38.160156 49.09375 41.214844 43.542969 42.777344 39.191406 C 43.394531 37.289062 46.511719 22.375 45.28125 20.78125 C 44.914062 20.304688 43.3125 21.679688 41.914062 23.144531 C 30.757812 34.859375 23.351562 26.113281 43.203125 17.375 L 43.503906 17.011719 L 43.710938 17.097656 "/>
<path style="fill:none;stroke-width:0.78171;stroke-linecap:butt;stroke-linejoin:round;stroke:rgb(27.058825%,63.921571%,0%);stroke-opacity:1;stroke-miterlimit:4;" d="M 46.651855 14.484619 C 42.266235 15.302124 21.756348 17.610107 17.19458 32.849121 C 15.862183 38.002563 16.611938 45.021362 22.55127 44.759399 C 22.966797 44.741333 23.011963 44.876831 23.165527 45.233643 C 25.604492 51.014893 31.620605 49.962524 32.971069 47.69519 C 33.165283 47.374512 32.67749 47.49646 32.971069 47.69519 C 39.095581 51.891113 42.43335 46.08728 44.361938 40.915771 C 46.719604 36.430786 48.1604 17.745605 46.900269 18.951538 C 25.419312 39.538208 25.455444 21.408569 46.651855 14.484619 " transform="matrix(0.864865,0,0,0.864865,4.324324,4.324324)"/>
<path style="fill:none;stroke-width:0.82767;stroke-linecap:round;stroke-linejoin:bevel;stroke:rgb(27.058825%,63.921571%,0%);stroke-opacity:1;stroke-miterlimit:4;" d="M 18.646197 43.901926 C 15.048948 37.186096 16.539306 35.408322 16.712341 33.277265 " transform="matrix(0.786067,0.222123,-0.222123,0.786067,19.449946,4.469483)"/>
<path style="fill:none;stroke-width:0.82767;stroke-linecap:round;stroke-linejoin:bevel;stroke:rgb(27.058825%,63.921571%,0%);stroke-opacity:1;stroke-miterlimit:4;" d="M 29.354134 43.827925 C 26.089828 40.084109 25.417969 36.422706 26.115946 33.353185 " transform="matrix(0.786067,0.222123,-0.222123,0.786067,19.449946,4.469483)"/>
</g>
</svg>
