<svg xmlns="http://www.w3.org/2000/svg" xmlns:xlink="http://www.w3.org/1999/xlink" width="64px" height="64px" viewBox="0 0 64 64" version="1.1">
<defs>
<linearGradient id="linear0" gradientUnits="userSpaceOnUse" x1="0" y1="0" x2="0" y2="1" gradientTransform="matrix(55.351351,0,0,34.72072,4.324324,14.639639)">
<stop offset="0" style="stop-color:#ffae00;stop-opacity:1;"/>
<stop offset="0.5" style="stop-color:#dddddd;stop-opacity:1;"/>
<stop offset="1" style="stop-color:#6600ff;stop-opacity:1;"/>
</linearGradient>
</defs>
<g id="surface1">
<path style=" stroke:none;fill-rule:evenodd;fill:url(#linear0);" d="M 4.71875 42.554688 L 4.328125 42.558594 L 4.328125 42.550781 L 4.324219 42.207031 C 4.324219 42.207031 4.324219 42.207031 4.324219 42.203125 C 4.320312 38.515625 5.058594 34.867188 6.488281 31.472656 C 7.878906 28.199219 9.882812 25.226562 12.402344 22.714844 C 14.914062 20.199219 17.886719 18.191406 21.164062 16.808594 C 24.558594 15.375 28.207031 14.636719 31.890625 14.636719 C 35.578125 14.636719 39.230469 15.375 42.625 16.808594 C 45.902344 18.191406 48.875 20.199219 51.386719 22.714844 C 53.902344 25.226562 55.910156 28.199219 57.296875 31.472656 C 58.730469 34.867188 59.460938 38.515625 59.460938 42.203125 C 59.460938 42.207031 59.460938 42.207031 59.460938 42.207031 L 59.460938 42.460938 L 59.675781 42.570312 L 46.945312 48.703125 L 46.214844 47.199219 L 54.230469 43.335938 L 38.703125 43.335938 C 38.511719 44.847656 37.828125 46.261719 36.746094 47.351562 C 35.460938 48.636719 33.707031 49.363281 31.886719 49.363281 C 30.066406 49.363281 28.324219 48.636719 27.039062 47.351562 C 25.941406 46.257812 25.253906 44.835938 25.070312 43.3125 L 9.660156 43.335938 L 17.921875 47.3125 L 17.199219 48.820312 L 4.460938 42.6875 Z M 56.921875 41.164062 C 56.808594 38.171875 56.148438 35.214844 54.976562 32.457031 C 53.71875 29.476562 51.894531 26.773438 49.609375 24.488281 C 47.324219 22.207031 44.621094 20.382812 41.644531 19.125 C 38.558594 17.820312 35.242188 17.152344 31.890625 17.160156 C 28.542969 17.152344 25.226562 17.820312 22.136719 19.125 C 19.164062 20.382812 16.460938 22.207031 14.175781 24.488281 C 11.890625 26.773438 10.066406 29.476562 8.808594 32.457031 C 7.597656 35.3125 6.941406 38.367188 6.851562 41.46875 L 17.179688 36.1875 L 17.941406 37.671875 L 10.117188 41.675781 L 25.070312 41.652344 C 25.261719 40.148438 25.949219 38.730469 27.039062 37.644531 C 28.324219 36.355469 30.066406 35.632812 31.886719 35.632812 C 33.707031 35.632812 35.460938 36.355469 36.746094 37.644531 C 37.835938 38.730469 38.511719 40.144531 38.703125 41.652344 L 54.214844 41.652344 L 46.203125 37.554688 L 46.960938 36.066406 Z M 37.078125 42.496094 C 37.078125 43.875 36.53125 45.191406 35.558594 46.164062 C 34.585938 47.136719 33.265625 47.6875 31.886719 47.6875 C 30.515625 47.6875 29.1875 47.136719 28.21875 46.164062 C 27.246094 45.191406 26.699219 43.875 26.699219 42.496094 C 26.699219 41.117188 27.246094 39.800781 28.21875 38.824219 C 29.1875 37.851562 30.515625 37.308594 31.886719 37.308594 C 33.265625 37.308594 34.585938 37.851562 35.558594 38.824219 C 36.53125 39.800781 37.078125 41.117188 37.078125 42.496094 Z M 37.078125 42.496094 "/>
</g>
</svg>
