<svg xmlns="http://www.w3.org/2000/svg" xmlns:xlink="http://www.w3.org/1999/xlink" width="64px" height="64px" viewBox="0 0 64 64" version="1.1">
<g id="surface1">
<path style=" stroke:none;fill-rule:nonzero;fill:rgb(24.705882%,24.705882%,24.705882%);fill-opacity:1;" d="M 31.992188 7.785156 C 31.726562 7.785156 31.460938 7.847656 31.226562 7.964844 L 10.46875 18.34375 C 9.882812 18.636719 9.511719 19.238281 9.511719 19.890625 L 9.511719 43.242188 C 9.511719 43.878906 9.863281 44.460938 10.417969 44.761719 L 31.175781 56.007812 C 31.6875 56.289062 32.3125 56.289062 32.824219 56.007812 L 53.582031 44.761719 C 54.136719 44.460938 54.488281 43.878906 54.488281 43.242188 L 54.488281 20.757812 C 54.488281 20.121094 54.136719 19.539062 53.582031 19.238281 L 32.824219 7.992188 C 32.566406 7.855469 32.285156 7.785156 31.992188 7.785156 Z M 31.992188 7.785156 "/>
<path style=" stroke:none;fill-rule:nonzero;fill:rgb(34.509805%,56.862748%,85.09804%);fill-opacity:1;" d="M 31.980469 15.566406 C 31.03125 15.582031 30.269531 16.351562 30.269531 17.296875 L 30.269531 31.136719 C 30.269531 31.777344 30.625 32.363281 31.191406 32.664062 L 45.894531 40.449219 C 47.046875 41.058594 48.433594 40.222656 48.433594 38.917969 L 48.433594 25.082031 C 48.433594 24.4375 48.078125 23.851562 47.511719 23.550781 L 32.8125 15.765625 C 32.554688 15.632812 32.265625 15.5625 31.980469 15.566406 Z M 31.980469 15.566406 "/>
<path style=" stroke:none;fill-rule:nonzero;fill:rgb(55.686277%,83.529413%,60.000002%);fill-opacity:1;" d="M 24.195312 19.890625 C 23.246094 19.90625 22.488281 20.675781 22.488281 21.621094 L 22.488281 35.460938 C 22.488281 36.101562 22.839844 36.6875 23.410156 36.988281 L 38.113281 44.773438 C 39.261719 45.382812 40.648438 44.546875 40.648438 43.242188 L 40.648438 29.40625 C 40.648438 28.761719 40.292969 28.175781 39.730469 27.875 L 25.027344 20.089844 C 24.769531 19.957031 24.484375 19.886719 24.195312 19.890625 Z M 24.195312 19.890625 "/>
<path style=" stroke:none;fill-rule:nonzero;fill:rgb(100%,100%,100%);fill-opacity:1;" d="M 37.1875 33.730469 L 22.488281 34.648438 L 22.488281 35.460938 C 22.488281 36.101562 22.839844 36.6875 23.410156 36.988281 L 38.113281 44.773438 C 39.261719 45.382812 40.648438 44.546875 40.648438 43.242188 L 40.648438 37.1875 Z M 37.1875 33.730469 "/>
<path style=" stroke:none;fill-rule:nonzero;fill:rgb(84.313726%,35.294119%,52.549022%);fill-opacity:1;" d="M 17.277344 23.351562 C 16.328125 23.363281 15.566406 24.136719 15.566406 25.082031 L 15.566406 38.917969 C 15.566406 39.5625 15.921875 40.148438 16.488281 40.449219 L 31.191406 48.234375 C 32.34375 48.839844 33.730469 48.007812 33.730469 46.703125 L 33.730469 32.863281 C 33.730469 32.222656 33.375 31.636719 32.8125 31.335938 L 18.109375 23.550781 C 17.851562 23.414062 17.5625 23.347656 17.277344 23.351562 Z M 17.277344 23.351562 "/>
<path style=" stroke:none;fill-rule:nonzero;fill:rgb(100%,100%,100%);fill-opacity:1;" d="M 42.378906 27.675781 C 42.378906 28.539062 43.242188 30.269531 44.109375 30.269531 C 44.972656 30.269531 45.835938 29.40625 45.835938 29.40625 C 45.835938 29.40625 44.460938 28.414062 44.109375 27.675781 C 43.691406 26.8125 44.109375 25.082031 44.109375 25.082031 C 44.109375 25.082031 42.378906 25.945312 42.378906 27.675781 Z M 42.378906 27.675781 "/>
<path style=" stroke:none;fill-rule:nonzero;fill:rgb(100%,100%,100%);fill-opacity:1;" d="M 19.890625 33.730469 L 15.566406 34.015625 L 15.566406 38.917969 C 15.566406 39.5625 15.921875 40.148438 16.488281 40.449219 L 29.679688 47.429688 Z M 19.890625 33.730469 "/>
</g>
</svg>
