<svg xmlns="http://www.w3.org/2000/svg" xmlns:xlink="http://www.w3.org/1999/xlink" width="64px" height="64px" viewBox="0 0 64 64" version="1.1">
<defs>
<linearGradient id="linear0" gradientUnits="userSpaceOnUse" x1="0" y1="0" x2="0" y2="1" gradientTransform="matrix(24.216216,0,0,24.216216,35.459459,7.783784)">
<stop offset="0" style="stop-color:#00a2ff;stop-opacity:1;"/>
<stop offset="0.5" style="stop-color:#dddddd;stop-opacity:1;"/>
<stop offset="1" style="stop-color:#00ffae;stop-opacity:1;"/>
</linearGradient>
<linearGradient id="linear1" gradientUnits="userSpaceOnUse" x1="0" y1="0" x2="0" y2="1" gradientTransform="matrix(55.351351,0,0,51.891892,4.324324,7.783784)">
<stop offset="0" style="stop-color:#00a2ff;stop-opacity:1;"/>
<stop offset="0.5" style="stop-color:#dddddd;stop-opacity:1;"/>
<stop offset="1" style="stop-color:#00ffae;stop-opacity:1;"/>
</linearGradient>
</defs>
<g id="surface1">
<path style=" stroke:none;fill-rule:nonzero;fill:url(#linear0);" d="M 37.1875 7.785156 C 36.234375 7.785156 35.460938 8.558594 35.460938 9.511719 L 35.460938 21.621094 C 35.460938 23.894531 35.664062 25.699219 36.238281 27.214844 C 36.808594 28.734375 37.835938 29.949219 39.136719 30.664062 C 41.738281 32.109375 44.921875 31.945312 49.273438 32 C 49.285156 32 49.289062 32 49.296875 32 L 57.945312 32 C 58.902344 32 59.675781 31.226562 59.675781 30.269531 L 59.675781 28.539062 C 59.675781 28.082031 59.496094 27.636719 59.171875 27.3125 L 40.144531 8.289062 C 39.820312 7.960938 39.378906 7.785156 38.917969 7.785156 Z M 38.917969 11.960938 L 55.5 28.539062 L 49.296875 28.539062 C 44.941406 28.488281 42.078125 28.335938 40.8125 27.636719 C 40.175781 27.289062 39.808594 26.902344 39.472656 26 C 39.136719 25.105469 38.917969 23.671875 38.917969 21.621094 Z M 38.917969 11.960938 "/>
<path style=" stroke:none;fill-rule:evenodd;fill:url(#linear1);" d="M 25.082031 49.296875 L 18.136719 49.296875 C 13.789062 49.242188 10.605469 49.40625 8 47.960938 C 6.699219 47.246094 5.671875 46.03125 5.105469 44.511719 C 4.53125 42.996094 4.324219 41.191406 4.324219 38.917969 L 4.324219 18.164062 C 4.324219 15.886719 4.53125 14.085938 5.105469 12.566406 C 5.625 11.109375 6.652344 9.882812 8 9.117188 C 10.605469 7.679688 13.789062 7.835938 18.136719 7.785156 L 45.863281 7.785156 C 50.210938 7.835938 53.394531 7.675781 56 9.117188 C 57.347656 9.882812 58.375 11.109375 58.894531 12.566406 C 59.46875 14.085938 59.675781 15.886719 59.675781 18.164062 L 59.675781 38.917969 C 59.675781 41.191406 59.46875 42.996094 58.902344 44.511719 C 58.378906 45.972656 57.347656 47.199219 56 47.960938 C 53.394531 49.402344 50.210938 49.242188 45.863281 49.296875 L 38.917969 49.296875 L 38.917969 51.027344 C 38.917969 56.214844 40.648438 56.214844 44.109375 56.214844 L 45.835938 56.214844 L 45.835938 59.675781 L 18.164062 59.675781 L 18.164062 56.214844 L 19.890625 56.214844 C 23.351562 56.214844 25.082031 56.214844 25.082031 51.027344 Z M 42.378906 11.242188 L 18.164062 11.242188 C 13.808594 11.296875 10.9375 11.449219 9.671875 12.148438 C 9.039062 12.5 8.675781 12.882812 8.335938 13.785156 C 8 14.679688 7.785156 16.113281 7.785156 18.164062 L 7.785156 38.917969 C 7.785156 40.96875 8 42.402344 8.335938 43.296875 C 8.675781 44.199219 9.039062 44.585938 9.671875 44.933594 C 10.933594 45.632812 13.808594 45.785156 18.164062 45.835938 L 45.835938 45.835938 C 50.191406 45.785156 53.058594 45.632812 54.324219 44.933594 C 54.960938 44.582031 55.324219 44.199219 55.664062 43.296875 C 56 42.402344 56.214844 40.96875 56.214844 38.917969 L 56.214844 25.082031 Z M 42.378906 11.242188 "/>
</g>
</svg>
