<svg xmlns="http://www.w3.org/2000/svg" xmlns:xlink="http://www.w3.org/1999/xlink" width="64px" height="64px" viewBox="0 0 64 64" version="1.1">
<defs>
<linearGradient id="linear0" gradientUnits="userSpaceOnUse" x1="0" y1="0" x2="0" y2="1" gradientTransform="matrix(48.432432,0,0,26.198199,7.783784,18.900902)">
<stop offset="0" style="stop-color:#ff8963;stop-opacity:1;"/>
<stop offset="0.5" style="stop-color:#dddddd;stop-opacity:1;"/>
<stop offset="1" style="stop-color:#0F6FFF;stop-opacity:1;"/>
</linearGradient>
</defs>
<g id="surface1">
<path style=" stroke:none;fill-rule:nonzero;fill:url(#linear0);" d="M 43.5 45.039062 C 42.058594 44.882812 40.59375 44.207031 39.449219 43.164062 L 39.023438 42.773438 L 39.472656 42.253906 C 41.609375 39.746094 42.363281 36.496094 41.550781 33.324219 C 41.445312 32.90625 41.28125 32.378906 41.179688 32.152344 L 41.011719 31.738281 L 41.46875 31.523438 C 41.714844 31.40625 42.203125 31.234375 42.539062 31.148438 C 43.070312 31.011719 43.3125 30.988281 44.355469 30.996094 C 45.652344 31 46.160156 31.089844 47.039062 31.484375 C 49.207031 32.441406 50.636719 34.152344 51.207031 36.488281 C 51.386719 37.226562 51.402344 38.671875 51.238281 39.40625 C 50.539062 42.523438 48.097656 44.714844 44.960938 45.039062 C 44.582031 45.078125 44.21875 45.105469 44.160156 45.097656 C 44.09375 45.097656 43.800781 45.066406 43.5 45.039062 Z M 20.660156 44.847656 C 18.941406 44.351562 17.867188 42.734375 18.09375 40.960938 C 18.320312 39.191406 19.835938 37.863281 21.617188 37.863281 C 22.238281 37.863281 22.324219 37.902344 22.40625 38.226562 C 22.792969 39.6875 23.632812 41.269531 24.566406 42.296875 L 24.960938 42.734375 L 24.761719 43.117188 C 24.335938 43.917969 23.417969 44.632812 22.503906 44.867188 C 21.984375 45.003906 21.175781 44.996094 20.660156 44.847656 Z M 13.308594 44.824219 C 12.652344 44.730469 11.609375 44.355469 10.96875 43.972656 C 10.1875 43.511719 9.078125 42.402344 8.664062 41.664062 C 7.617188 39.808594 7.5 37.6875 8.335938 35.746094 C 9.125 33.917969 10.949219 32.421875 12.878906 32.023438 C 13.363281 31.917969 14.472656 31.796875 14.472656 31.851562 C 14.46875 31.863281 14.421875 32.125 14.367188 32.421875 C 14.242188 33.136719 14.238281 34.410156 14.367188 35.136719 C 14.6875 36.960938 15.652344 38.617188 17.125 39.851562 L 17.496094 40.160156 L 17.410156 40.460938 C 17.300781 40.867188 17.300781 41.910156 17.410156 42.375 C 17.457031 42.582031 17.605469 42.984375 17.730469 43.261719 C 17.910156 43.652344 17.941406 43.78125 17.875 43.824219 C 16.597656 44.679688 14.90625 45.050781 13.308594 44.824219 Z M 30.4375 44.792969 C 27.132812 44.203125 24.390625 41.847656 23.335938 38.675781 C 23 37.679688 22.914062 37.09375 22.914062 35.8125 C 22.914062 34.484375 22.984375 34.039062 23.335938 32.945312 C 24.351562 29.8125 26.996094 27.5 30.296875 26.835938 C 31.191406 26.664062 32.636719 26.648438 33.550781 26.8125 C 37.335938 27.488281 40.226562 30.339844 40.976562 34.152344 C 41.152344 35.039062 41.136719 36.726562 40.949219 37.59375 C 40.550781 39.429688 39.742188 40.921875 38.460938 42.21875 C 37.0625 43.632812 35.414062 44.484375 33.445312 44.800781 C 32.679688 44.929688 31.164062 44.921875 30.4375 44.792969 Z M 52.105469 44.558594 C 51.539062 44.460938 51.003906 44.230469 50.558594 43.890625 C 49.96875 43.441406 49.949219 43.402344 50.242188 43.070312 C 51.363281 41.835938 52.078125 39.957031 52.105469 38.164062 L 52.113281 37.527344 L 52.421875 37.488281 C 52.921875 37.417969 53.632812 37.5625 54.234375 37.863281 C 55.089844 38.285156 55.730469 38.988281 56.054688 39.882812 C 56.269531 40.476562 56.269531 41.554688 56.058594 42.171875 C 55.789062 42.941406 55.191406 43.6875 54.550781 44.066406 C 53.828125 44.488281 52.855469 44.6875 52.105469 44.558594 Z M 17.28125 38.984375 C 16.246094 38.023438 15.53125 36.808594 15.179688 35.402344 C 14.984375 34.609375 15 32.835938 15.210938 32.050781 C 15.753906 30.039062 17.039062 28.441406 18.835938 27.511719 C 19.882812 26.972656 21.089844 26.6875 22.089844 26.730469 L 22.5625 26.753906 L 22.707031 27.296875 C 22.941406 28.164062 23.367188 29.050781 23.863281 29.710938 L 24.03125 29.941406 L 23.625 30.5625 C 22.910156 31.675781 22.378906 33.148438 22.191406 34.550781 C 22.152344 34.875 22.125 35.585938 22.136719 36.125 L 22.164062 37.109375 L 21.675781 37.109375 C 20.164062 37.109375 18.761719 37.867188 17.96875 39.121094 L 17.769531 39.433594 Z M 40.210938 30.324219 C 39.589844 29.382812 38.40625 28.203125 37.46875 27.578125 L 36.773438 27.121094 L 36.855469 26.863281 C 36.894531 26.71875 36.929688 26.105469 36.929688 25.421875 L 36.933594 24.238281 L 37.652344 24.273438 C 40.078125 24.410156 42.152344 25.820312 43.191406 28.039062 C 43.441406 28.5625 43.6875 29.382812 43.757812 29.9375 L 43.792969 30.1875 L 43.367188 30.234375 C 42.59375 30.320312 41.972656 30.5 40.757812 31 C 40.714844 31.015625 40.46875 30.710938 40.210938 30.324219 Z M 24.238281 28.917969 C 23.902344 28.402344 23.597656 27.730469 23.414062 27.078125 C 23.28125 26.617188 23.257812 26.386719 23.261719 25.382812 C 23.265625 24.3125 23.285156 24.171875 23.449219 23.621094 C 23.921875 22.066406 24.828125 20.847656 26.148438 19.96875 C 27.042969 19.363281 28.011719 19.03125 29.113281 18.929688 C 31.828125 18.675781 34.347656 20.082031 35.558594 22.523438 C 36.03125 23.488281 36.214844 24.308594 36.210938 25.445312 C 36.207031 26.367188 36.144531 26.757812 36.003906 26.734375 C 35.957031 26.730469 35.554688 26.597656 35.121094 26.449219 C 34.0625 26.085938 33.1875 25.945312 32.011719 25.949219 C 29.558594 25.949219 27.472656 26.714844 25.558594 28.324219 C 25.210938 28.613281 24.851562 28.957031 24.753906 29.085938 C 24.660156 29.210938 24.554688 29.3125 24.53125 29.3125 C 24.511719 29.3125 24.375 29.136719 24.238281 28.917969 Z M 18.136719 26.726562 C 17.960938 26.382812 17.824219 25.757812 17.824219 25.285156 C 17.828125 23.796875 18.800781 22.488281 20.234375 22.058594 C 21.050781 21.808594 22.363281 21.960938 22.917969 22.363281 C 23.042969 22.460938 23.042969 22.476562 22.855469 23.003906 C 22.605469 23.730469 22.476562 24.488281 22.472656 25.285156 L 22.472656 25.941406 L 21.664062 25.984375 C 20.726562 26.03125 19.789062 26.253906 18.960938 26.613281 C 18.652344 26.753906 18.363281 26.878906 18.320312 26.894531 C 18.273438 26.917969 18.191406 26.835938 18.136719 26.726562 Z M 18.136719 26.726562 "/>
</g>
</svg>
