<svg xmlns="http://www.w3.org/2000/svg" xmlns:xlink="http://www.w3.org/1999/xlink" width="64px" height="64px" viewBox="0 0 64 64" version="1.1">
<defs>
<linearGradient id="linear0" gradientUnits="userSpaceOnUse" x1="0" y1="0" x2="0" y2="1" gradientTransform="matrix(55.351351,0,0,47.441443,4.324324,8.279279)">
<stop offset="0" style="stop-color:#ffae00;stop-opacity:1;"/>
<stop offset="0.5" style="stop-color:#dddddd;stop-opacity:1;"/>
<stop offset="1" style="stop-color:#bf1d1d;stop-opacity:1;"/>
</linearGradient>
</defs>
<g id="surface1">
<path style=" stroke:none;fill-rule:evenodd;fill:url(#linear0);" d="M 18.164062 16.1875 L 12.234375 16.1875 L 12.234375 43.863281 L 20.136719 43.863281 L 24.089844 47.8125 L 39.910156 47.8125 L 43.863281 43.863281 L 51.765625 43.863281 L 51.765625 16.1875 L 45.835938 16.1875 L 45.835938 20.136719 L 41.882812 20.136719 L 41.882812 16.1875 L 39.910156 16.1875 L 39.910156 20.136719 L 35.957031 20.136719 L 35.957031 16.1875 L 33.976562 16.1875 L 33.976562 20.136719 L 30.023438 20.136719 L 30.023438 16.1875 L 28.042969 16.1875 L 28.042969 20.136719 L 24.089844 20.136719 L 24.089844 16.1875 L 22.117188 16.1875 L 22.117188 20.136719 L 18.164062 20.136719 Z M 20.136719 55.71875 L 16.1875 51.765625 L 8.28125 51.765625 C 6.089844 51.765625 4.324219 50.003906 4.324219 47.8125 L 4.324219 12.234375 C 4.324219 10.042969 6.089844 8.28125 8.28125 8.28125 L 55.71875 8.28125 C 57.910156 8.28125 59.675781 10.042969 59.675781 12.234375 L 59.675781 47.8125 C 59.675781 50.003906 57.910156 51.765625 55.71875 51.765625 L 47.8125 51.765625 L 43.863281 55.71875 Z M 20.136719 55.71875 "/>
</g>
</svg>
