<svg xmlns="http://www.w3.org/2000/svg" xmlns:xlink="http://www.w3.org/1999/xlink" width="64px" height="64px" viewBox="0 0 64 64" version="1.1">
<defs>
<linearGradient id="linear0" gradientUnits="userSpaceOnUse" x1="0" y1="0" x2="0" y2="1" gradientTransform="matrix(55.351351,0,0,55.351351,4.324324,4.324324)">
<stop offset="0" style="stop-color:#00b7ff;stop-opacity:1;"/>
<stop offset="0.5" style="stop-color:#dddddd;stop-opacity:1;"/>
<stop offset="1" style="stop-color:#ee42d9;stop-opacity:1;"/>
</linearGradient>
</defs>
<g id="surface1">
<path style=" stroke:none;fill-rule:nonzero;fill:url(#linear0);" d="M 15.652344 4.324219 C 13.714844 4.324219 12.085938 5.421875 10.984375 7.089844 L 4.839844 17.039062 C 4.5625 17.589844 4.324219 18.710938 4.324219 19.542969 L 4.324219 54.136719 C 4.324219 57.191406 6.808594 59.675781 9.863281 59.675781 L 54.136719 59.675781 C 57.191406 59.675781 59.675781 57.191406 59.675781 54.136719 L 59.675781 19.542969 C 59.675781 18.714844 59.4375 17.609375 59.160156 16.78125 L 53.015625 7.089844 C 51.914062 5.421875 50.285156 4.324219 48.351562 4.324219 Z M 15.652344 9.863281 L 48.347656 9.863281 L 51.632812 15.394531 L 12.367188 15.394531 Z M 9.863281 20.929688 L 54.136719 20.929688 L 54.136719 54.136719 L 9.863281 54.136719 Z M 25.945312 26.460938 C 24.421875 26.605469 23.296875 27.96875 23.4375 29.488281 C 23.582031 31.011719 24.941406 32.136719 26.460938 32 L 37.539062 32 C 38.53125 32.011719 39.460938 31.488281 39.96875 30.625 C 40.460938 29.765625 40.460938 28.699219 39.96875 27.835938 C 39.460938 26.972656 38.527344 26.457031 37.539062 26.460938 Z M 25.945312 26.460938 "/>
</g>
</svg>
