<svg xmlns="http://www.w3.org/2000/svg" xmlns:xlink="http://www.w3.org/1999/xlink" width="64px" height="64px" viewBox="0 0 64 64" version="1.1">
<defs>
<linearGradient id="linear0" gradientUnits="userSpaceOnUse" x1="0" y1="0" x2="0" y2="1" gradientTransform="matrix(55.351351,0,0,55.351351,4.324324,4.324324)">
<stop offset="0" style="stop-color:#05f7ff;stop-opacity:1;"/>
<stop offset="0.5" style="stop-color:#dddddd;stop-opacity:1;"/>
<stop offset="1" style="stop-color:#e6ff05;stop-opacity:1;"/>
</linearGradient>
</defs>
<g id="surface1">
<path style=" stroke:none;fill-rule:nonzero;fill:url(#linear0);" d="M 19.417969 4.335938 C 3.863281 4.914062 1.988281 12.5 6.394531 22.8125 C 7.730469 25.941406 11.996094 25.679688 9.605469 22.503906 C -0.441406 -8.773438 66.308594 19.820312 52.902344 38.386719 C 49.117188 42.582031 43.132812 43.707031 38.320312 41.582031 C 36.132812 40.613281 32.136719 41.867188 35.363281 43.6875 C 41.890625 47.363281 57.382812 45.257812 59.238281 36.503906 C 63.863281 14.707031 30.644531 3.921875 19.417969 4.335938 M 40.542969 20.265625 C 31.339844 30.320312 22.324219 51.164062 17.394531 56.085938 C 14.734375 58.742188 11.027344 53.878906 9.910156 55.394531 C 7.875 58.164062 12.015625 59.625 16.203125 59.675781 C 26.070312 59.855469 44.460938 16.78125 40.542969 20.265625 Z M 40.542969 20.265625 "/>
</g>
</svg>
