<svg xmlns="http://www.w3.org/2000/svg" xmlns:xlink="http://www.w3.org/1999/xlink" width="64px" height="64px" viewBox="0 0 64 64" version="1.1">
<defs>
<linearGradient id="linear0" gradientUnits="userSpaceOnUse" x1="0" y1="0" x2="0" y2="1" gradientTransform="matrix(55.351351,0,0,55.351351,4.324324,4.324324)">
<stop offset="0" style="stop-color:#00fff2;stop-opacity:1;"/>
<stop offset="0.5" style="stop-color:#dddddd;stop-opacity:1;"/>
<stop offset="1" style="stop-color:#0062ff;stop-opacity:1;"/>
</linearGradient>
</defs>
<g id="surface1">
<path style=" stroke:none;fill-rule:nonzero;fill:url(#linear0);" d="M 32 4.324219 C 16.726562 4.347656 4.347656 16.726562 4.324219 32 C 4.347656 47.273438 16.726562 59.652344 32 59.675781 C 47.273438 59.652344 59.652344 47.273438 59.675781 32 C 59.652344 16.726562 47.273438 4.347656 32 4.324219 Z M 24.550781 9.820312 C 30.367188 11.164062 35.449219 14.6875 38.753906 19.664062 C 39.421875 18.109375 40.957031 17.097656 42.644531 17.09375 C 44.988281 17.09375 46.90625 19.011719 46.90625 21.355469 C 46.90625 23.699219 44.988281 25.613281 42.644531 25.613281 C 42.207031 25.613281 41.8125 25.484375 41.410156 25.363281 C 42.164062 27.625 42.644531 30.023438 42.644531 32.53125 C 42.644531 42.910156 35.875 51.6875 26.503906 54.753906 C 15.988281 52.230469 8.570312 42.820312 8.582031 32 C 8.582031 21.652344 15.265625 12.90625 24.550781 9.820312 Z M 19.230469 21.355469 C 18.050781 21.355469 17.09375 22.3125 17.09375 23.484375 C 17.09375 24.660156 18.050781 25.613281 19.230469 25.613281 C 20.40625 25.613281 21.355469 24.660156 21.355469 23.484375 C 21.355469 22.3125 20.40625 21.355469 19.230469 21.355469 Z M 21.355469 34.125 C 19.011719 34.125 17.09375 36.042969 17.09375 38.386719 C 17.09375 40.730469 19.011719 42.644531 21.355469 42.644531 C 23.699219 42.644531 25.613281 40.730469 25.613281 38.386719 C 25.613281 36.042969 23.699219 34.125 21.355469 34.125 Z M 49.03125 34.125 C 50.207031 34.125 51.160156 35.082031 51.160156 36.257812 C 51.160156 37.4375 50.207031 38.386719 49.03125 38.386719 C 48.46875 38.386719 47.921875 38.164062 47.523438 37.765625 C 47.125 37.363281 46.902344 36.824219 46.90625 36.257812 C 46.90625 35.082031 47.851562 34.125 49.03125 34.125 Z M 49.03125 34.125 "/>
</g>
</svg>
