<svg xmlns="http://www.w3.org/2000/svg" xmlns:xlink="http://www.w3.org/1999/xlink" width="64px" height="64px" viewBox="0 0 64 64" version="1.1">
<defs>
<linearGradient id="linear0" gradientUnits="userSpaceOnUse" x1="0" y1="0" x2="0" y2="1" gradientTransform="matrix(55.351351,0,0,44.972973,4.324324,9.513514)">
<stop offset="0" style="stop-color:#ffae00;stop-opacity:1;"/>
<stop offset="0.5" style="stop-color:#dddddd;stop-opacity:1;"/>
<stop offset="1" style="stop-color:#6600ff;stop-opacity:1;"/>
</linearGradient>
</defs>
<g id="surface1">
<path style=" stroke:none;fill-rule:nonzero;fill:url(#linear0);" d="M 18.136719 9.511719 C 13.789062 9.566406 10.605469 9.40625 8 10.847656 C 6.699219 11.5625 5.664062 12.78125 5.09375 14.296875 C 4.527344 15.8125 4.324219 17.617188 4.324219 19.890625 L 4.324219 44.109375 C 4.324219 46.382812 4.527344 48.1875 5.09375 49.703125 C 5.664062 51.21875 6.699219 52.4375 8 53.152344 C 10.605469 54.59375 13.789062 54.433594 18.136719 54.488281 L 45.863281 54.488281 C 50.210938 54.4375 53.394531 54.59375 56 53.152344 C 57.300781 52.4375 58.328125 51.21875 58.894531 49.703125 C 59.46875 48.1875 59.675781 46.382812 59.675781 44.109375 L 59.675781 19.890625 C 59.675781 17.617188 59.46875 15.8125 58.894531 14.296875 C 58.328125 12.78125 57.300781 11.5625 56 10.847656 C 53.394531 9.40625 50.210938 9.566406 45.863281 9.511719 Z M 10.671875 12.972656 L 11.8125 12.972656 C 14.125 12.972656 14.703125 13.664062 14.703125 16.433594 C 14.703125 19.199219 14.125 19.890625 11.8125 19.890625 L 10.671875 19.890625 C 8.363281 19.890625 7.785156 19.199219 7.785156 16.433594 C 7.785156 13.664062 8.363281 12.972656 10.671875 12.972656 Z M 18.164062 12.972656 L 45.835938 12.972656 C 50.199219 13.027344 53.058594 13.175781 54.324219 13.875 C 54.960938 14.21875 55.324219 14.613281 55.664062 15.511719 C 56 16.410156 56.214844 17.839844 56.214844 19.890625 L 56.214844 44.109375 C 56.214844 46.160156 56 47.589844 55.664062 48.488281 C 55.324219 49.386719 54.960938 49.78125 54.324219 50.125 C 53.058594 50.824219 50.199219 50.972656 45.835938 51.027344 L 18.164062 51.027344 Z M 38.917969 18.164062 L 21.621094 32 L 38.917969 45.835938 Z M 10.671875 23.351562 L 11.8125 23.351562 C 14.125 23.351562 14.703125 24.042969 14.703125 26.8125 C 14.703125 29.578125 14.125 30.269531 11.8125 30.269531 L 10.671875 30.269531 C 8.363281 30.269531 7.785156 29.578125 7.785156 26.8125 C 7.785156 24.042969 8.363281 23.351562 10.671875 23.351562 Z M 10.671875 33.730469 L 11.8125 33.730469 C 14.125 33.730469 14.703125 34.421875 14.703125 37.1875 C 14.703125 39.957031 14.125 40.648438 11.8125 40.648438 L 10.671875 40.648438 C 8.363281 40.648438 7.785156 39.957031 7.785156 37.1875 C 7.785156 34.421875 8.363281 33.730469 10.671875 33.730469 Z M 10.671875 44.109375 L 11.8125 44.109375 C 14.125 44.109375 14.703125 44.800781 14.703125 47.566406 C 14.703125 50.335938 14.125 51.027344 11.8125 51.027344 L 10.671875 51.027344 C 8.363281 51.027344 7.785156 50.335938 7.785156 47.566406 C 7.785156 44.800781 8.363281 44.109375 10.671875 44.109375 Z M 10.671875 44.109375 "/>
</g>
</svg>
