<svg xmlns="http://www.w3.org/2000/svg" xmlns:xlink="http://www.w3.org/1999/xlink" width="64px" height="64px" viewBox="0 0 64 64" version="1.1">
<defs>
<linearGradient id="linear0" gradientUnits="userSpaceOnUse" x1="0" y1="128" x2="128" y2="0" gradientTransform="matrix(0.432432,0,0,0.432432,4.324324,4.324324)">
<stop offset="0" style="stop-color:rgb(85.882354%,85.882354%,85.882354%);stop-opacity:1;"/>
<stop offset="0.5" style="stop-color:#dddddd;stop-opacity:1;"/>
<stop offset="1" style="stop-color:rgb(45.882353%,45.882353%,45.882353%);stop-opacity:1;"/>
</linearGradient>
</defs>
<g id="surface1">
<path style=" stroke:none;fill-rule:nonzero;fill:url(#linear0);" d="M 51.269531 12.730469 C 47.722656 9.179688 44.285156 9.164062 42.289062 9.976562 C 40.734375 10.613281 39.382812 12.125 39.921875 14.507812 C 40.414062 16.683594 40.585938 17.320312 39.375 18.066406 C 38.230469 18.78125 37.261719 18.421875 36.539062 17.730469 L 30.136719 11.59375 L 11.59375 30.136719 L 17.730469 36.539062 C 18.421875 37.261719 18.78125 38.230469 18.066406 39.375 C 17.320312 40.585938 16.671875 40.421875 14.496094 39.929688 C 12.117188 39.390625 10.613281 40.734375 9.976562 42.289062 C 9.164062 44.285156 9.179688 47.722656 12.730469 51.269531 C 16.277344 54.820312 19.714844 54.835938 21.710938 54.023438 C 23.265625 53.386719 24.609375 51.882812 24.070312 49.503906 C 23.578125 47.328125 23.414062 46.679688 24.625 45.933594 C 25.769531 45.21875 26.738281 45.578125 27.460938 46.269531 L 33.863281 52.40625 L 52.40625 33.863281 L 46.269531 27.460938 C 45.578125 26.738281 45.21875 25.769531 45.933594 24.625 C 46.679688 23.414062 47.316406 23.585938 49.492188 24.078125 C 51.875 24.617188 53.386719 23.265625 54.023438 21.710938 C 54.835938 19.714844 54.820312 16.277344 51.269531 12.730469 Z M 51.269531 12.730469 "/>
</g>
</svg>
