<svg xmlns="http://www.w3.org/2000/svg" xmlns:xlink="http://www.w3.org/1999/xlink" width="64px" height="64px" viewBox="0 0 64 64" version="1.1">
<g id="surface1">
<path style=" stroke:none;fill-rule:nonzero;fill:rgb(44.313726%,66.666669%,45.882353%);fill-opacity:1;" d="M 55.351562 31.980469 C 55.351562 44.875 44.894531 55.332031 32 55.332031 C 19.105469 55.332031 8.648438 44.875 8.648438 31.980469 C 8.648438 19.082031 19.105469 8.628906 32 8.628906 C 44.894531 8.628906 55.351562 19.082031 55.351562 31.980469 Z M 55.351562 31.980469 "/>
<path style=" stroke:none;fill-rule:nonzero;fill:rgb(54.509807%,78.431374%,56.862748%);fill-opacity:1;" d="M 50.164062 31.980469 C 50.164062 42.011719 42.03125 50.140625 32 50.140625 C 21.96875 50.140625 13.839844 42.011719 13.839844 31.980469 C 13.839844 21.949219 21.96875 13.816406 32 13.816406 C 42.03125 13.816406 50.164062 21.949219 50.164062 31.980469 Z M 50.164062 31.980469 "/>
<path style=" stroke:none;fill-rule:nonzero;fill:rgb(100%,100%,100%);fill-opacity:1;" d="M 22.613281 22.605469 C 22.535156 22.6875 22.488281 22.792969 22.488281 22.910156 C 22.488281 23.023438 22.535156 23.136719 22.613281 23.214844 L 40.351562 40.953125 C 41.363281 41.886719 42.929688 41.863281 43.914062 40.90625 C 44.90625 39.945312 44.972656 38.382812 44.070312 37.339844 C 44.050781 37.316406 44.039062 37.296875 44.015625 37.28125 C 43.9375 37.199219 43.828125 37.15625 43.710938 37.15625 C 43.597656 37.15625 43.488281 37.199219 43.40625 37.28125 C 43.324219 37.363281 43.28125 37.472656 43.28125 37.585938 C 43.28125 37.703125 43.324219 37.8125 43.40625 37.890625 C 43.890625 38.316406 44.097656 38.980469 43.945312 39.605469 C 43.789062 40.234375 43.300781 40.722656 42.675781 40.875 C 42.046875 41.03125 41.386719 40.820312 40.960938 40.335938 L 23.226562 22.605469 C 23.144531 22.523438 23.035156 22.476562 22.917969 22.476562 C 22.804688 22.476562 22.695312 22.523438 22.613281 22.605469 Z M 22.613281 22.605469 "/>
<path style=" stroke:none;fill-rule:nonzero;fill:rgb(100%,100%,100%);fill-opacity:1;" d="M 23.796875 23.773438 C 19.742188 27.828125 19.742188 34.398438 23.796875 38.453125 L 38.472656 23.773438 C 34.421875 19.71875 27.851562 19.71875 23.796875 23.773438 Z M 23.796875 23.773438 "/>
</g>
</svg>
