<svg xmlns="http://www.w3.org/2000/svg" xmlns:xlink="http://www.w3.org/1999/xlink" width="64px" height="64px" viewBox="0 0 64 64" version="1.1">
<defs>
<linearGradient id="linear0" gradientUnits="userSpaceOnUse" x1="0" y1="0" x2="0" y2="1" gradientTransform="matrix(55.351351,0,0,34.594595,4.324324,14.702703)">
<stop offset="0" style="stop-color:#ffae00;stop-opacity:1;"/>
<stop offset="0.5" style="stop-color:#dddddd;stop-opacity:1;"/>
<stop offset="1" style="stop-color:#bf1d1d;stop-opacity:1;"/>
</linearGradient>
</defs>
<g id="surface1">
<path style=" stroke:none;fill-rule:nonzero;fill:url(#linear0);" d="M 12.785156 14.703125 C 10.984375 14.703125 9.527344 14.867188 8.269531 15.363281 C 7.011719 15.863281 5.976562 16.785156 5.390625 17.90625 C 4.214844 20.144531 4.363281 22.757812 4.324219 26.3125 L 4.324219 37.6875 C 4.363281 41.242188 4.214844 43.855469 5.390625 46.09375 C 5.976562 47.214844 7.011719 48.136719 8.269531 48.636719 C 9.527344 49.132812 10.984375 49.296875 12.785156 49.296875 L 23.542969 49.296875 C 25.347656 49.296875 26.800781 49.132812 28.058594 48.636719 C 29.320312 48.136719 30.347656 47.214844 30.933594 46.09375 C 31.957031 44.148438 31.960938 41.800781 31.972656 38.914062 L 38.703125 38.894531 L 40.648438 37.1875 L 42.378906 38.917969 L 44.109375 37.1875 L 45.835938 38.917969 L 47.566406 37.1875 L 51.027344 40.648438 L 59.675781 32 L 52.757812 25.082031 L 31.972656 25.089844 C 31.972656 22.203125 31.9375 19.851562 30.933594 17.90625 C 30.347656 16.785156 29.3125 15.863281 28.054688 15.363281 C 26.796875 14.867188 25.347656 14.703125 23.542969 14.703125 Z M 12.785156 18.164062 L 23.542969 18.164062 C 25.109375 18.164062 26.164062 18.339844 26.785156 18.585938 C 27.40625 18.835938 27.625 19.050781 27.867188 19.511719 C 28.363281 20.441406 28.5 22.78125 28.539062 26.355469 L 28.539062 28.542969 L 51.324219 28.539062 L 54.785156 32 L 51.027344 35.757812 L 47.566406 32.296875 L 45.835938 34.027344 L 44.109375 32.296875 L 42.378906 34.027344 L 40.800781 32.449219 L 37.394531 35.4375 L 28.539062 35.460938 L 28.539062 37.636719 C 28.503906 41.21875 28.355469 43.558594 27.867188 44.488281 C 27.632812 44.949219 27.40625 45.164062 26.785156 45.410156 C 26.164062 45.660156 25.109375 45.835938 23.542969 45.835938 L 12.785156 45.835938 C 11.21875 45.835938 10.164062 45.660156 9.539062 45.410156 C 8.917969 45.164062 8.703125 44.949219 8.460938 44.488281 C 7.972656 43.5625 7.824219 41.21875 7.785156 37.664062 L 7.785156 26.335938 C 7.824219 22.773438 7.972656 20.4375 8.460938 19.511719 C 8.703125 19.050781 8.917969 18.835938 9.539062 18.585938 C 10.164062 18.339844 11.21875 18.164062 12.785156 18.164062 Z M 14.703125 28.539062 C 12.792969 28.539062 11.242188 30.089844 11.242188 32 C 11.242188 33.910156 12.792969 35.460938 14.703125 35.460938 C 16.613281 35.460938 18.164062 33.910156 18.164062 32 C 18.164062 30.089844 16.613281 28.539062 14.703125 28.539062 Z M 14.703125 28.539062 "/>
</g>
</svg>
