<svg xmlns="http://www.w3.org/2000/svg" xmlns:xlink="http://www.w3.org/1999/xlink" width="64px" height="64px" viewBox="0 0 64 64" version="1.1">
<defs>
<linearGradient id="linear0" gradientUnits="userSpaceOnUse" x1="0" y1="0" x2="0" y2="1" gradientTransform="matrix(55.351351,0,0,48.432432,4.324324,7.783784)">
<stop offset="0" style="stop-color:#00b7ff;stop-opacity:1;"/>
<stop offset="0.5" style="stop-color:#dddddd;stop-opacity:1;"/>
<stop offset="1" style="stop-color:#ee42d9;stop-opacity:1;"/>
</linearGradient>
</defs>
<g id="surface1">
<path style=" stroke:none;fill-rule:nonzero;fill:url(#linear0);" d="M 39.90625 7.785156 L 39.90625 11.8125 L 4.324219 11.8125 L 4.324219 19.890625 L 39.90625 19.890625 L 39.90625 23.921875 L 47.820312 23.921875 L 47.820312 7.785156 Z M 51.769531 11.8125 L 51.769531 19.890625 L 59.675781 19.890625 L 59.675781 11.8125 Z M 16.1875 23.921875 L 16.1875 27.96875 L 4.324219 27.96875 L 4.324219 36.03125 L 16.1875 36.03125 L 16.1875 40.070312 L 24.09375 40.070312 L 24.09375 23.921875 Z M 28.050781 27.96875 L 28.050781 36.03125 L 59.675781 36.03125 L 59.675781 27.96875 Z M 32 40.070312 L 32 44.109375 L 4.324219 44.109375 L 4.324219 52.179688 L 32 52.179688 L 32 56.214844 L 39.90625 56.214844 L 39.90625 40.070312 Z M 43.855469 44.109375 L 43.855469 52.179688 L 59.675781 52.179688 L 59.675781 44.109375 Z M 43.855469 44.109375 "/>
</g>
</svg>
