<svg xmlns="http://www.w3.org/2000/svg" xmlns:xlink="http://www.w3.org/1999/xlink" width="64px" height="64px" viewBox="0 0 64 64" version="1.1">
<defs>
<linearGradient id="linear0" gradientUnits="userSpaceOnUse" x1="0" y1="0" x2="0" y2="1" gradientTransform="matrix(51.252253,0,0,55.351351,6.373874,4.324324)">
<stop offset="0" style="stop-color:#ffae00;stop-opacity:1;"/>
<stop offset="0.5" style="stop-color:#dddddd;stop-opacity:1;"/>
<stop offset="1" style="stop-color:#bf1d1d;stop-opacity:1;"/>
</linearGradient>
</defs>
<g id="surface1">
<path style=" stroke:none;fill-rule:nonzero;fill:url(#linear0);" d="M 39.175781 4.324219 L 24.824219 6.375 L 24.824219 10.476562 L 17.855469 10.476562 C 6.375 10.476562 6.375 17.648438 6.375 17.648438 L 6.375 24.824219 L 24.824219 24.824219 C 24.824219 22.449219 26.136719 20.726562 28.511719 20.726562 C 30.890625 20.726562 31.929688 22.449219 31.929688 24.824219 L 32.070312 24.824219 L 6.636719 41.226562 L 6.375 41.226562 L 6.375 53.523438 L 24.824219 53.523438 L 24.824219 59.675781 L 39.175781 57.625 L 39.175781 53.523438 L 57.625 53.523438 L 57.625 41.226562 L 32 41.226562 L 52.347656 28.28125 C 55.164062 26.261719 57.625 24.824219 57.625 19.082031 C 57.625 19.082031 58.039062 10.476562 42.253906 10.476562 L 39.175781 10.476562 Z M 39.175781 4.324219 "/>
</g>
</svg>
