<svg xmlns="http://www.w3.org/2000/svg" xmlns:xlink="http://www.w3.org/1999/xlink" width="64px" height="64px" viewBox="0 0 64 64" version="1.1">
<defs>
<linearGradient id="linear0" gradientUnits="userSpaceOnUse" x1="0" y1="0" x2="0" y2="1" gradientTransform="matrix(46.126125,0,0,34.594595,8.936937,15.855856)">
<stop offset="0" style="stop-color:#05f7ff;stop-opacity:1;"/>
<stop offset="0.5" style="stop-color:#dddddd;stop-opacity:1;"/>
<stop offset="1" style="stop-color:#e6ff05;stop-opacity:1;"/>
</linearGradient>
<linearGradient id="linear1" gradientUnits="userSpaceOnUse" x1="0" y1="0" x2="0" y2="1" gradientTransform="matrix(55.351351,0,0,41.513514,4.324324,11.243243)">
<stop offset="0" style="stop-color:#05f7ff;stop-opacity:1;"/>
<stop offset="0.5" style="stop-color:#dddddd;stop-opacity:1;"/>
<stop offset="1" style="stop-color:#e6ff05;stop-opacity:1;"/>
</linearGradient>
</defs>
<g id="surface1">
<path style=" stroke:none;fill-rule:evenodd;fill:url(#linear0);" d="M 34.308594 32 L 29.691406 32 L 29.691406 15.855469 L 34.308594 15.855469 Z M 8.9375 50.449219 L 8.9375 45.835938 L 29.691406 45.835938 L 29.691406 29.691406 L 55.0625 29.691406 L 55.0625 34.308594 L 34.308594 34.308594 L 34.308594 50.449219 Z M 8.9375 50.449219 "/>
<path style=" stroke:none;fill-rule:nonzero;fill:url(#linear1);" d="M 32 11.242188 C 29.457031 11.242188 27.386719 13.308594 27.386719 15.855469 C 27.386719 18.40625 29.457031 20.46875 32 20.46875 C 34.542969 20.46875 36.613281 18.40625 36.613281 15.855469 C 36.613281 13.308594 34.542969 11.242188 32 11.242188 Z M 32 27.386719 C 29.457031 27.386719 27.386719 29.457031 27.386719 32 C 27.386719 34.542969 29.457031 36.613281 32 36.613281 C 34.542969 36.613281 36.613281 34.542969 36.613281 32 C 36.613281 29.457031 34.542969 27.386719 32 27.386719 Z M 55.0625 27.386719 C 52.511719 27.386719 50.449219 29.457031 50.449219 32 C 50.449219 34.542969 52.511719 36.613281 55.0625 36.613281 C 57.613281 36.613281 59.675781 34.542969 59.675781 32 C 59.675781 29.457031 57.613281 27.386719 55.0625 27.386719 Z M 8.9375 43.53125 C 6.386719 43.53125 4.324219 45.59375 4.324219 48.144531 C 4.324219 50.691406 6.386719 52.757812 8.9375 52.757812 C 11.488281 52.757812 13.550781 50.691406 13.550781 48.144531 C 13.550781 45.59375 11.488281 43.53125 8.9375 43.53125 Z M 32 43.53125 C 29.457031 43.53125 27.386719 45.59375 27.386719 48.144531 C 27.386719 50.691406 29.457031 52.757812 32 52.757812 C 34.542969 52.757812 36.613281 50.691406 36.613281 48.144531 C 36.613281 45.59375 34.542969 43.53125 32 43.53125 Z M 32 43.53125 "/>
</g>
</svg>
