<svg xmlns="http://www.w3.org/2000/svg" xmlns:xlink="http://www.w3.org/1999/xlink" width="64px" height="64px" viewBox="0 0 64 64" version="1.1">
<defs>
<linearGradient id="linear0" gradientUnits="userSpaceOnUse" x1="0" y1="0" x2="0" y2="1" gradientTransform="matrix(55.351351,0,0,55.351351,4.324324,4.324324)">
<stop offset="0" style="stop-color:#00fff2;stop-opacity:1;"/>
<stop offset="0.5" style="stop-color:#dddddd;stop-opacity:1;"/>
<stop offset="1" style="stop-color:#0062ff;stop-opacity:1;"/>
</linearGradient>
</defs>
<g id="surface1">
<path style=" stroke:none;fill-rule:evenodd;fill:url(#linear0);" d="M 32 10.253906 C 44.011719 10.253906 53.746094 19.988281 53.746094 32 C 53.746094 44.011719 44.011719 53.746094 32 53.746094 C 19.988281 53.746094 10.253906 44.011719 10.253906 32 C 10.253906 19.988281 19.988281 10.253906 32 10.253906 Z M 32 4.324219 C 16.714844 4.324219 4.324219 16.714844 4.324219 32 C 4.324219 47.285156 16.714844 59.675781 32 59.675781 C 47.285156 59.675781 59.675781 47.285156 59.675781 32 C 59.675781 16.714844 47.285156 4.324219 32 4.324219 Z M 28.042969 26.164062 L 37.039062 26.164062 C 38.726562 26.164062 39.910156 27.703125 39.910156 29.328125 C 39.910156 30.949219 38.726562 32.132812 37.039062 32.09375 L 28.042969 32.09375 Z M 24.289062 18.164062 C 21.988281 18.164062 20.136719 19.960938 20.136719 22.203125 L 20.136719 43.769531 C 20.136719 46.011719 21.988281 47.8125 24.289062 47.8125 C 26.589844 47.8125 27.9375 46.003906 28.042969 43.769531 L 28.042969 40.117188 L 36.742188 40.117188 C 42.863281 40.117188 47.8125 35.292969 47.8125 29.335938 C 47.8125 23.386719 42.863281 18.164062 36.742188 18.164062 Z M 24.289062 18.164062 "/>
</g>
</svg>
