<svg xmlns="http://www.w3.org/2000/svg" xmlns:xlink="http://www.w3.org/1999/xlink" width="64px" height="64px" viewBox="0 0 64 64" version="1.1">
<defs>
<linearGradient id="linear0" gradientUnits="userSpaceOnUse" x1="0" y1="0" x2="0" y2="1" gradientTransform="matrix(55.351351,0,0,42.657659,4.324324,10.671171)">
<stop offset="0" style="stop-color:#00a2ff;stop-opacity:1;"/>
<stop offset="0.5" style="stop-color:#dddddd;stop-opacity:1;"/>
<stop offset="1" style="stop-color:#00ffae;stop-opacity:1;"/>
</linearGradient>
</defs>
<g id="surface1">
<path style=" stroke:none;fill-rule:nonzero;fill:url(#linear0);" d="M 25.457031 10.671875 L 25.457031 50.675781 L 34.109375 53.328125 L 34.109375 19.9375 C 34.109375 19.054688 34.214844 18.40625 34.585938 18.03125 C 34.949219 17.515625 35.292969 17.46875 35.8125 17.691406 C 37.0625 18.054688 37.652344 19.1875 37.652344 21.03125 L 37.652344 34.457031 C 40.457031 35.785156 42.96875 35.917969 44.808594 34.523438 C 46.726562 33.191406 47.738281 30.835938 47.738281 27.296875 C 47.738281 23.613281 47.050781 20.765625 45.417969 18.914062 C 43.945312 16.933594 41.351562 15.335938 37.511719 14.011719 C 32.730469 12.460938 28.699219 11.355469 25.457031 10.671875 Z M 22.792969 34.863281 L 21.089844 35.40625 L 10.390625 39.226562 L 8.550781 39.972656 C 5.746094 41.148438 4.253906 42.410156 4.328125 43.515625 C 4.472656 45.136719 6.324219 46.3125 9.644531 47.199219 C 13.957031 48.355469 18.320312 48.617188 22.792969 47.945312 L 22.792969 43.382812 L 21.089844 43.996094 L 19.1875 44.742188 L 16.117188 45.355469 L 13.1875 45.015625 C 12.597656 44.636719 12.402344 44.226562 12.773438 43.863281 C 13.253906 43.5625 13.757812 43.3125 14.28125 43.109375 L 16.253906 42.429688 L 22.792969 40.109375 Z M 47.605469 36.972656 C 46.800781 36.941406 45.996094 37.011719 45.21875 37.039062 C 42.355469 37.105469 39.417969 37.570312 36.363281 38.539062 L 36.363281 43.921875 L 42.421875 41.8125 L 45.558594 40.71875 L 47.605469 40.179688 C 48.921875 39.828125 50.328125 40.3125 50.328125 40.3125 C 51.136719 40.382812 51.542969 40.6875 51.6875 41.0625 C 51.835938 41.503906 51.296875 41.847656 50.191406 42.21875 L 47.46875 43.3125 L 36.363281 47.261719 L 36.363281 52.511719 L 41.539062 50.671875 L 54.011719 46.238281 L 55.511719 45.5625 C 58.460938 44.449219 59.8125 43.285156 59.664062 41.8125 C 59.585938 40.40625 57.910156 39.296875 54.960938 38.335938 C 52.585938 37.539062 50.109375 37.078125 47.605469 36.972656 Z M 47.605469 36.972656 "/>
</g>
</svg>
