<svg xmlns="http://www.w3.org/2000/svg" xmlns:xlink="http://www.w3.org/1999/xlink" width="64px" height="64px" viewBox="0 0 64 64" version="1.1">
<defs>
<linearGradient id="linear0" gradientUnits="userSpaceOnUse" x1="0" y1="0" x2="0" y2="1" gradientTransform="matrix(55.351351,0,0,39.522524,4.324324,12.238738)">
<stop offset="0" style="stop-color:#ffae00;stop-opacity:1;"/>
<stop offset="0.5" style="stop-color:#dddddd;stop-opacity:1;"/>
<stop offset="1" style="stop-color:#bf1d1d;stop-opacity:1;"/>
</linearGradient>
</defs>
<g id="surface1">
<path style=" stroke:none;fill-rule:evenodd;fill:url(#linear0);" d="M 19.5625 21.085938 C 21.3125 20.113281 23.300781 19.320312 25.460938 18.738281 C 31.097656 19.09375 36.347656 20.824219 40.117188 23.582031 C 48.851562 24.324219 56.144531 28.335938 58.710938 33.808594 C 61.273438 39.273438 58.632812 45.179688 51.96875 48.855469 C 44.757812 52.414062 34.882812 52.734375 27.054688 49.664062 C 18.320312 48.917969 11.027344 44.914062 8.460938 39.441406 C 6.039062 34.28125 8.253906 28.738281 14.097656 25.039062 L 5.511719 18.003906 C 4.839844 17.457031 4.421875 16.675781 4.335938 15.8125 C 4.257812 14.949219 4.515625 14.089844 5.054688 13.421875 C 5.609375 12.757812 6.386719 12.335938 7.246094 12.253906 C 8.109375 12.171875 8.972656 12.429688 9.636719 12.960938 Z M 21.207031 30.851562 C 21.027344 31.160156 20.863281 31.476562 20.726562 31.800781 C 18.410156 34.792969 18.347656 38.433594 20.542969 41.488281 C 22.746094 44.539062 26.917969 46.589844 31.632812 46.933594 C 37.714844 47.679688 43.734375 45.449219 46.441406 41.441406 C 48.757812 38.449219 48.828125 34.8125 46.625 31.753906 C 44.429688 28.703125 40.253906 26.652344 35.539062 26.3125 C 33.660156 25.636719 31.589844 25.269531 29.496094 25.246094 C 28.292969 25.542969 27.164062 25.960938 26.136719 26.46875 L 27.515625 27.597656 C 28.1875 28.148438 28.609375 28.933594 28.691406 29.792969 C 28.769531 30.652344 28.511719 31.511719 27.976562 32.1875 C 27.421875 32.847656 26.644531 33.273438 25.78125 33.351562 C 24.917969 33.4375 24.058594 33.171875 23.390625 32.636719 Z M 21.207031 30.851562 "/>
</g>
</svg>
