<svg xmlns="http://www.w3.org/2000/svg" xmlns:xlink="http://www.w3.org/1999/xlink" width="64px" height="64px" viewBox="0 0 64 64" version="1.1">
<defs>
<linearGradient id="linear0" gradientUnits="userSpaceOnUse" x1="0" y1="0" x2="0" y2="1" gradientTransform="matrix(44.765767,0,0,48.432432,10.378378,7.783784)">
<stop offset="0" style="stop-color:#05f7ff;stop-opacity:1;"/>
<stop offset="0.5" style="stop-color:#dddddd;stop-opacity:1;"/>
<stop offset="1" style="stop-color:#e6ff05;stop-opacity:1;"/>
</linearGradient>
</defs>
<g id="surface1">
<path style=" stroke:none;fill-rule:nonzero;fill:url(#linear0);" d="M 24.949219 7.792969 C 24.230469 7.792969 23.664062 7.824219 23.011719 7.835938 C 22.164062 7.863281 21.261719 7.863281 20.488281 7.894531 C 20.429688 7.917969 20.363281 7.941406 20.3125 7.960938 L 19.414062 8.375 L 19.203125 9.429688 L 14.949219 30.691406 L 13.335938 38.734375 L 10.378906 53.5 C 10.609375 53.703125 10.835938 53.914062 11.09375 54.089844 C 11.476562 54.347656 11.890625 54.578125 12.339844 54.78125 C 12.792969 54.988281 13.28125 55.164062 13.800781 55.320312 C 14.328125 55.476562 14.890625 55.613281 15.5 55.726562 C 16.105469 55.835938 16.753906 55.933594 17.445312 56.011719 C 18.136719 56.089844 18.875 56.148438 19.660156 56.191406 C 19.960938 56.214844 20.363281 56.203125 20.679688 56.214844 C 21.054688 54.386719 21.296875 53.246094 22 49.726562 L 23.636719 41.523438 L 24 39.6875 L 26.011719 39.6875 C 28.785156 39.6875 32.632812 39.5 34.390625 39.289062 C 40.796875 38.511719 45.378906 36.414062 49.1875 32.511719 C 51.253906 30.390625 52.691406 28.121094 53.863281 25.164062 C 54.449219 23.664062 54.929688 21.660156 55.144531 19.941406 C 55.136719 19.617188 55.125 19.292969 55.105469 18.96875 C 55.039062 18.390625 54.929688 17.820312 54.785156 17.261719 C 54.675781 16.867188 54.554688 16.476562 54.40625 16.09375 C 54.203125 15.550781 53.960938 15.023438 53.675781 14.503906 C 53.390625 13.988281 53.066406 13.496094 52.707031 13.011719 C 52.347656 12.53125 51.949219 12.066406 51.515625 11.621094 C 51.085938 11.179688 50.617188 10.757812 50.117188 10.355469 C 49.960938 10.242188 49.808594 10.132812 49.648438 10.023438 C 47.742188 8.738281 44.9375 7.605469 43.351562 7.839844 C 42.550781 7.828125 41.855469 7.785156 40.972656 7.785156 Z M 29.125 13.96875 L 32.882812 13.96875 C 36.589844 13.96875 38.746094 14.109375 39.886719 14.421875 C 40.6875 14.644531 41.621094 15.21875 42.179688 15.835938 C 43.097656 16.835938 43.476562 18.191406 43.375 20.117188 C 43.269531 22.085938 42.636719 24.027344 41.445312 26.015625 C 39.21875 29.746094 36.300781 31.542969 31.3125 32.257812 L 31.3125 32.253906 C 30.59375 32.355469 29.265625 32.417969 27.792969 32.421875 L 25.433594 32.421875 L 27.28125 23.191406 Z M 29.125 13.96875 "/>
</g>
</svg>
