<svg xmlns="http://www.w3.org/2000/svg" xmlns:xlink="http://www.w3.org/1999/xlink" width="64px" height="64px" viewBox="0 0 64 64" version="1.1">
<defs>
<linearGradient id="linear0" gradientUnits="userSpaceOnUse" x1="0" y1="0" x2="0" y2="1" gradientTransform="matrix(55.351351,0,0,55.342341,4.324324,4.328829)">
<stop offset="0" style="stop-color:#ff8963;stop-opacity:1;"/>
<stop offset="0.5" style="stop-color:#dddddd;stop-opacity:1;"/>
<stop offset="1" style="stop-color:#0F6FFF;stop-opacity:1;"/>
</linearGradient>
</defs>
<g id="surface1">
<path style=" stroke:none;fill-rule:nonzero;fill:url(#linear0);" d="M 45.011719 4.328125 C 44.710938 4.328125 44.386719 4.460938 44.144531 4.703125 L 12.863281 35.988281 C 12.742188 36.109375 12.636719 36.199219 12.636719 36.4375 L 4.441406 58.09375 C 4.203125 58.457031 4.347656 58.9375 4.707031 59.296875 C 4.945312 59.539062 5.171875 59.671875 5.539062 59.671875 C 5.660156 59.671875 5.785156 59.6875 6.023438 59.558594 L 27.679688 51.363281 C 27.800781 51.242188 28.042969 51.257812 28.164062 51.136719 L 30.085938 49.21875 L 59.296875 19.96875 C 59.539062 19.609375 59.675781 19.351562 59.675781 18.988281 C 59.675781 18.632812 59.539062 18.40625 59.296875 18.164062 L 45.835938 4.703125 C 45.597656 4.460938 45.3125 4.328125 45.011719 4.328125 Z M 15.269531 37.039062 C 15.875 38.238281 15.636719 39.566406 15.160156 40.648438 C 14.917969 41.125 15.171875 41.761719 15.648438 42 C 16.125 42.363281 16.714844 42.238281 17.078125 42 C 17.914062 41.402344 21.050781 39.945312 22.488281 41.511719 C 23.933594 42.957031 22.753906 45.960938 22.152344 46.929688 C 21.792969 47.289062 21.792969 47.875 22.152344 48.355469 C 22.511719 48.714844 22.988281 48.960938 23.46875 48.839844 C 25.03125 48.363281 26.238281 48.605469 27.078125 48.839844 L 26.589844 49.335938 L 13.203125 54.335938 L 9.742188 50.761719 L 14.785156 37.523438 Z M 15.269531 37.039062 "/>
</g>
</svg>
