<svg xmlns="http://www.w3.org/2000/svg" xmlns:xlink="http://www.w3.org/1999/xlink" width="64px" height="64px" viewBox="0 0 64 64" version="1.1">
<defs>
<linearGradient id="linear0" gradientUnits="userSpaceOnUse" x1="0" y1="0" x2="0" y2="1" gradientTransform="matrix(55.351351,0,0,55.351351,4.324324,4.324324)">
<stop offset="0" style="stop-color:#00a2ff;stop-opacity:1;"/>
<stop offset="0.5" style="stop-color:#dddddd;stop-opacity:1;"/>
<stop offset="1" style="stop-color:#00ffae;stop-opacity:1;"/>
</linearGradient>
</defs>
<g id="surface1">
<path style=" stroke:none;fill-rule:evenodd;fill:url(#linear0);" d="M 51.765625 45.988281 C 54.636719 41.933594 56.214844 37.050781 56.214844 32 C 56.214844 25.566406 53.660156 19.40625 49.125 14.875 C 44.59375 10.339844 38.433594 7.785156 32 7.785156 C 25.566406 7.785156 19.40625 10.339844 14.875 14.875 C 10.339844 19.40625 7.785156 25.566406 7.785156 32 C 7.785156 38.433594 10.339844 44.59375 14.875 49.125 C 17.488281 51.738281 20.652344 53.703125 24.089844 54.886719 L 24.089844 29.234375 L 37.929688 22.117188 L 51.765625 29.234375 Z M 4.324219 32 C 4.324219 16.726562 16.726562 4.324219 32 4.324219 C 47.273438 4.324219 59.675781 16.726562 59.675781 32 C 59.675781 47.273438 47.273438 59.675781 32 59.675781 C 16.726562 59.675781 4.324219 47.273438 4.324219 32 Z M 41.882812 30.023438 C 41.882812 30.730469 41.132812 31.382812 39.910156 31.734375 C 38.6875 32.089844 37.175781 32.089844 35.957031 31.734375 C 34.730469 31.382812 33.976562 30.730469 33.976562 30.023438 Z M 41.882812 30.023438 "/>
</g>
</svg>
