<svg xmlns="http://www.w3.org/2000/svg" xmlns:xlink="http://www.w3.org/1999/xlink" width="64px" height="64px" viewBox="0 0 64 64" version="1.1">
<defs>
<linearGradient id="linear0" gradientUnits="userSpaceOnUse" x1="0" y1="0" x2="0" y2="1" gradientTransform="matrix(51.891892,0,0,51.891892,6.054054,6.054054)">
<stop offset="0" style="stop-color:#ffae00;stop-opacity:1;"/>
<stop offset="0.5" style="stop-color:#dddddd;stop-opacity:1;"/>
<stop offset="1" style="stop-color:#bf1d1d;stop-opacity:1;"/>
</linearGradient>
</defs>
<g id="surface1">
<path style=" stroke:none;fill-rule:evenodd;fill:url(#linear0);" d="M 54.488281 31.351562 L 54.488281 15.839844 C 54.449219 14.148438 53.761719 12.523438 52.550781 11.347656 C 51.300781 10.136719 49.675781 9.476562 47.945312 9.511719 C 47.945312 9.511719 47.945312 9.511719 47.914062 9.511719 L 42.015625 9.511719 L 33.09375 31.351562 Z M 54.488281 34.648438 L 54.488281 48.160156 C 54.449219 49.851562 53.761719 51.476562 52.550781 52.652344 C 51.300781 53.863281 49.675781 54.523438 47.945312 54.488281 C 47.945312 54.488281 47.945312 54.488281 47.914062 54.488281 L 23.660156 54.488281 L 31.746094 34.648438 Z M 20.097656 54.488281 L 16.085938 54.488281 C 16.054688 54.488281 16.054688 54.488281 16.054688 54.488281 C 14.324219 54.523438 12.699219 53.863281 11.449219 52.652344 C 10.238281 51.476562 9.550781 49.851562 9.511719 48.160156 L 9.511719 15.839844 C 9.550781 14.148438 10.238281 12.523438 11.449219 11.347656 C 12.699219 10.136719 14.324219 9.476562 16.054688 9.511719 C 16.054688 9.511719 16.054688 9.511719 16.085938 9.511719 L 38.214844 9.511719 Z M 47.917969 6.054688 C 53.472656 6.054688 57.945312 10.414062 57.945312 15.828125 L 57.945312 48.171875 C 57.945312 53.585938 53.472656 57.945312 47.917969 57.945312 L 16.082031 57.945312 C 10.527344 57.945312 6.054688 53.585938 6.054688 48.171875 L 6.054688 15.828125 C 6.054688 10.414062 10.527344 6.054688 16.082031 6.054688 Z M 47.917969 6.054688 "/>
</g>
</svg>
