<svg xmlns="http://www.w3.org/2000/svg" xmlns:xlink="http://www.w3.org/1999/xlink" width="64px" height="64px" viewBox="0 0 64 64" version="1.1">
<defs>
<linearGradient id="linear0" gradientUnits="userSpaceOnUse" x1="0" y1="0" x2="0" y2="1" gradientTransform="matrix(55.351351,0,0,51.891892,4.324324,6.054054)">
<stop offset="0" style="stop-color:#05f7ff;stop-opacity:1;"/>
<stop offset="0.5" style="stop-color:#dddddd;stop-opacity:1;"/>
<stop offset="1" style="stop-color:#e6ff05;stop-opacity:1;"/>
</linearGradient>
</defs>
<g id="surface1">
<path style=" stroke:none;fill-rule:nonzero;fill:url(#linear0);" d="M 14.765625 6.054688 C 10.488281 6.003906 5.402344 10.472656 4.484375 23.164062 C 3.496094 36.699219 7.339844 38.03125 11.515625 38.03125 C 14.996094 38.03125 17.789062 36.292969 20.851562 32.714844 C 21.3125 32.175781 21.835938 31.890625 22.03125 32.09375 C 22.238281 32.296875 22.386719 32.457031 22.375 32.441406 C 22.355469 32.421875 22.132812 32.960938 21.914062 33.644531 C 21.3125 35.523438 20.390625 39.175781 21.3125 41.742188 C 21.558594 42.414062 22.0625 42.320312 22.269531 41.636719 C 22.761719 40 23.703125 37.191406 24.730469 35.78125 C 25.148438 35.199219 25.632812 35.527344 25.609375 36.242188 C 25.476562 40.597656 26.878906 48.539062 33.289062 53.582031 C 39.996094 58.863281 49.765625 58.71875 55.058594 56.460938 C 55.707031 56.1875 56.71875 56.207031 57.414062 56.328125 C 57.835938 56.410156 58.378906 56.457031 59.054688 56.417969 C 61.011719 56.308594 57.738281 54.644531 57.523438 53.746094 C 57.300781 52.855469 59.054688 52.6875 59.40625 49.839844 C 59.761719 47 57.527344 49.738281 57.527344 49.738281 C 57.527344 49.738281 55.882812 51.664062 49.335938 51.242188 C 43.308594 50.863281 36.117188 47.753906 36.363281 36.820312 C 36.378906 36.097656 36.597656 35.460938 36.8125 35.375 C 37.023438 35.289062 37.617188 35.609375 37.988281 36.214844 C 38.894531 37.71875 39.710938 40.160156 40.152344 41.636719 C 40.363281 42.320312 40.863281 42.417969 41.109375 41.746094 C 41.910156 39.515625 41.324219 36.460938 40.757812 34.46875 C 40.566406 33.78125 40.769531 32.910156 41.21875 32.484375 C 41.675781 32.050781 42.367188 32.121094 42.835938 32.664062 C 45.910156 36.269531 48.714844 38.039062 52.210938 38.039062 C 56.382812 38.039062 60.234375 36.703125 59.253906 23.164062 C 58.265625 9.632812 52.53125 5.449219 48.113281 6.121094 C 45.265625 6.554688 43.296875 8.015625 42.257812 9.011719 C 41.742188 9.503906 41.390625 10.003906 41.390625 10.058594 C 41.390625 10.117188 40.984375 9.753906 40.4375 9.296875 C 38.058594 7.3125 35.066406 6.121094 31.8125 6.121094 C 28.609375 6.121094 25.652344 7.28125 23.285156 9.214844 C 22.734375 9.664062 22.335938 10.042969 22.328125 10.015625 C 22.328125 9.988281 21.976562 9.511719 21.460938 9.015625 C 20.421875 8.03125 18.457031 6.554688 15.609375 6.121094 C 15.335938 6.078125 15.050781 6.058594 14.765625 6.054688 Z M 26.8125 16.433594 C 27.765625 16.433594 28.539062 17.207031 28.539062 18.164062 C 28.539062 19.117188 27.765625 19.890625 26.8125 19.890625 C 25.855469 19.890625 25.082031 19.117188 25.082031 18.164062 C 25.082031 17.207031 25.855469 16.433594 26.8125 16.433594 Z M 37.1875 16.433594 C 38.144531 16.433594 38.917969 17.207031 38.917969 18.164062 C 38.917969 19.117188 38.144531 19.890625 37.1875 19.890625 C 36.234375 19.890625 35.460938 19.117188 35.460938 18.164062 C 35.460938 17.207031 36.234375 16.433594 37.1875 16.433594 Z M 37.1875 16.433594 "/>
</g>
</svg>
