<svg xmlns="http://www.w3.org/2000/svg" xmlns:xlink="http://www.w3.org/1999/xlink" width="64px" height="64px" viewBox="0 0 64 64" version="1.1">
<defs>
<linearGradient id="linear0" gradientUnits="userSpaceOnUse" x1="0" y1="0" x2="0" y2="1" gradientTransform="matrix(55.351351,0,0,43.495497,4.324324,10.252253)">
<stop offset="0" style="stop-color:#00a2ff;stop-opacity:1;"/>
<stop offset="0.5" style="stop-color:#dddddd;stop-opacity:1;"/>
<stop offset="1" style="stop-color:#00ffae;stop-opacity:1;"/>
</linearGradient>
</defs>
<g id="surface1">
<path style=" stroke:none;fill-rule:evenodd;fill:url(#linear0);" d="M 32 10.253906 C 16.664062 10.253906 4.324219 23.847656 4.324219 32 C 4.324219 40.152344 16.664062 53.746094 32 53.746094 C 47.335938 53.746094 59.675781 40.152344 59.675781 32 C 59.675781 23.847656 47.335938 10.253906 32 10.253906 Z M 34.976562 22.117188 C 38.824219 22.117188 41.890625 25.1875 41.890625 29.03125 C 41.890625 32.875 38.824219 35.949219 34.976562 35.949219 C 31.136719 35.949219 28.070312 32.875 28.070312 29.03125 C 28.070312 25.1875 31.136719 22.117188 34.976562 22.117188 Z M 34.976562 18.164062 C 29 18.164062 24.058594 23.054688 24.058594 29.03125 C 24.058594 31.308594 24.828125 33.394531 26.039062 35.148438 L 18.753906 42.433594 L 20.003906 47.1875 L 28.8125 37.988281 C 30.5625 39.191406 32.707031 39.902344 34.976562 39.902344 C 40.960938 39.902344 45.835938 35.011719 45.835938 29.03125 C 45.835938 23.054688 40.960938 18.164062 34.976562 18.164062 Z M 34.976562 18.164062 "/>
</g>
</svg>
