<svg xmlns="http://www.w3.org/2000/svg" xmlns:xlink="http://www.w3.org/1999/xlink" width="64px" height="64px" viewBox="0 0 64 64" version="1.1">
<defs>
<linearGradient id="linear0" gradientUnits="userSpaceOnUse" x1="0" y1="0" x2="0" y2="1" gradientTransform="matrix(55.351351,0,0,43.495497,4.324324,10.252253)">
<stop offset="0" style="stop-color:#ffae00;stop-opacity:1;"/>
<stop offset="0.5" style="stop-color:#dddddd;stop-opacity:1;"/>
<stop offset="1" style="stop-color:#6600ff;stop-opacity:1;"/>
</linearGradient>
</defs>
<g id="surface1">
<path style=" stroke:none;fill-rule:evenodd;fill:url(#linear0);" d="M 32 10.253906 C 16.664062 10.253906 4.324219 23.847656 4.324219 32 C 4.324219 40.152344 16.664062 53.746094 32 53.746094 C 47.335938 53.746094 59.675781 40.152344 59.675781 32 C 59.675781 23.847656 47.335938 10.253906 32 10.253906 Z M 31.8125 26.386719 C 34.761719 26.386719 37.152344 28.78125 37.152344 31.730469 C 37.152344 34.6875 34.761719 37.078125 31.8125 37.078125 C 28.863281 37.078125 26.460938 34.6875 26.460938 31.730469 C 26.460938 28.78125 28.863281 26.386719 31.8125 26.386719 Z M 30.320312 18.367188 C 29.664062 18.367188 29.136719 19.105469 29.136719 20.011719 L 29.136719 21.390625 C 28.171875 21.644531 27.246094 22.027344 26.386719 22.53125 L 25.410156 21.554688 C 24.769531 20.914062 23.878906 20.765625 23.414062 21.230469 L 21.308594 23.335938 C 20.847656 23.800781 20.988281 24.6875 21.632812 25.335938 L 22.613281 26.3125 C 22.109375 27.171875 21.726562 28.09375 21.476562 29.058594 L 20.089844 29.058594 C 19.179688 29.058594 18.449219 29.585938 18.449219 30.242188 L 18.449219 33.21875 C 18.449219 33.875 19.179688 34.40625 20.089844 34.40625 L 21.460938 34.40625 C 21.71875 35.367188 22.105469 36.292969 22.613281 37.152344 L 21.632812 38.132812 C 20.988281 38.773438 20.847656 39.664062 21.308594 40.125 L 23.414062 42.234375 C 23.878906 42.691406 24.765625 42.550781 25.410156 41.910156 L 26.386719 40.929688 C 27.246094 41.433594 28.175781 41.8125 29.136719 42.0625 L 29.136719 43.449219 C 29.136719 44.363281 29.664062 45.089844 30.320312 45.089844 L 33.300781 45.089844 C 33.957031 45.089844 34.484375 44.363281 34.484375 43.449219 L 34.484375 42.070312 C 35.445312 41.820312 36.367188 41.4375 37.226562 40.929688 L 38.207031 41.910156 C 38.851562 42.550781 39.738281 42.691406 40.203125 42.230469 L 42.3125 40.125 C 42.773438 39.664062 42.625 38.769531 41.988281 38.132812 L 41.011719 37.152344 C 41.511719 36.292969 41.890625 35.363281 42.144531 34.402344 L 43.527344 34.402344 C 44.4375 34.402344 45.171875 33.875 45.171875 33.21875 L 45.171875 30.238281 C 45.171875 29.585938 44.4375 29.058594 43.527344 29.058594 L 42.148438 29.058594 C 41.894531 28.09375 41.511719 27.171875 41.011719 26.3125 L 41.988281 25.335938 C 42.625 24.6875 42.773438 23.800781 42.3125 23.335938 L 40.203125 21.230469 C 39.738281 20.765625 38.851562 20.910156 38.207031 21.554688 L 37.230469 22.53125 C 36.367188 22.027344 35.445312 21.644531 34.484375 21.394531 L 34.484375 20.011719 C 34.484375 19.105469 33.957031 18.367188 33.296875 18.367188 Z M 30.320312 18.367188 "/>
</g>
</svg>
