<svg xmlns="http://www.w3.org/2000/svg" xmlns:xlink="http://www.w3.org/1999/xlink" width="64px" height="64px" viewBox="0 0 64 64" version="1.1">
<defs>
<linearGradient id="linear0" gradientUnits="userSpaceOnUse" x1="0" y1="0" x2="0" y2="1" gradientTransform="matrix(55.351351,0,0,45.288287,4.432432,9.355856)">
<stop offset="0" style="stop-color:#00b7ff;stop-opacity:1;"/>
<stop offset="0.5" style="stop-color:#dddddd;stop-opacity:1;"/>
<stop offset="1" style="stop-color:#ee42d9;stop-opacity:1;"/>
</linearGradient>
</defs>
<g id="surface1">
<path style=" stroke:none;fill-rule:evenodd;fill:url(#linear0);" d="M 56.320312 37.117188 L 56.320312 14.390625 C 56.320312 13.976562 56.148438 13.5625 55.867188 13.285156 C 55.558594 12.972656 55.179688 12.800781 54.761719 12.800781 L 9.550781 12.800781 C 9.097656 12.835938 8.714844 13.039062 8.441406 13.386719 C 8.132812 13.632812 7.921875 14.042969 7.886719 14.460938 L 7.886719 33.566406 C 7.921875 33.570312 7.960938 33.570312 7.996094 33.558594 C 8.011719 33.542969 8.078125 33.515625 8.09375 33.5 C 8.121094 33.46875 8.390625 33.496094 8.445312 33.4375 C 8.476562 33.410156 8.585938 33.460938 8.625 33.4375 L 8.945312 33.28125 C 9.042969 33.230469 9.214844 33.3125 9.328125 33.28125 C 9.367188 33.265625 9.375 33.230469 9.402344 33.203125 C 9.433594 33.171875 9.511719 33.175781 9.5625 33.164062 C 9.648438 33.132812 9.703125 33.054688 9.78125 33.011719 C 9.894531 32.957031 9.851562 33.117188 9.941406 33.070312 C 9.972656 33.058594 10.113281 32.902344 10.117188 32.902344 C 10.125 32.902344 10.117188 32.917969 10.117188 32.929688 C 10.117188 32.988281 10.207031 33.066406 10.28125 33.03125 C 10.292969 33.023438 10.296875 32.988281 10.324219 32.972656 C 10.363281 32.949219 10.429688 32.988281 10.46875 32.972656 C 10.53125 32.949219 10.589844 32.914062 10.644531 32.882812 C 10.664062 32.875 10.90625 32.839844 10.949219 32.824219 C 11.109375 32.769531 11.335938 32.882812 11.476562 32.8125 C 11.578125 32.761719 11.699219 32.644531 11.8125 32.605469 C 11.847656 32.59375 11.863281 32.542969 11.890625 32.53125 C 11.90625 32.523438 11.949219 32.53125 11.976562 32.53125 C 12.175781 32.53125 12.039062 32.53125 12.179688 32.679688 C 12.1875 32.6875 12.292969 32.679688 12.296875 32.679688 C 12.3125 32.671875 12.300781 32.636719 12.324219 32.617188 C 12.378906 32.59375 12.457031 32.605469 12.503906 32.570312 C 12.515625 32.566406 12.511719 32.539062 12.53125 32.542969 C 12.589844 32.570312 12.609375 32.730469 12.707031 32.679688 C 12.8125 32.625 12.710938 32.4375 12.726562 32.429688 C 12.796875 32.390625 12.957031 32.351562 13.042969 32.3125 C 13.136719 32.273438 13.292969 32.257812 13.351562 32.191406 C 13.355469 32.1875 13.382812 32.125 13.382812 32.097656 C 13.414062 32.136719 13.511719 32.226562 13.570312 32.164062 C 13.589844 32.152344 13.566406 32.078125 13.585938 32.050781 C 13.609375 32.015625 13.671875 32.023438 13.6875 32.011719 C 13.71875 31.972656 13.785156 31.90625 13.820312 31.886719 C 13.921875 31.835938 14.085938 31.957031 14.1875 31.902344 C 14.335938 31.828125 13.96875 31.726562 14.011719 31.679688 C 14.054688 31.636719 14.265625 31.636719 14.335938 31.609375 C 14.351562 31.605469 14.375 31.550781 14.40625 31.566406 C 14.441406 31.582031 14.539062 31.796875 14.582031 31.753906 C 14.609375 31.730469 14.605469 31.664062 14.625 31.636719 C 14.664062 31.59375 14.738281 31.5 14.785156 31.476562 C 14.839844 31.449219 14.917969 31.421875 14.960938 31.378906 C 15.011719 31.324219 15.179688 31.40625 15.226562 31.363281 C 15.242188 31.347656 15.246094 31.28125 15.269531 31.261719 C 15.335938 31.1875 15.460938 31.253906 15.53125 31.214844 C 15.605469 31.175781 15.691406 31.097656 15.738281 31.054688 C 15.796875 30.996094 15.910156 30.984375 15.972656 30.917969 C 16.109375 30.789062 16.363281 30.921875 16.394531 30.890625 C 16.457031 30.835938 16.433594 30.738281 16.5 30.671875 C 16.5625 30.609375 16.605469 30.730469 16.691406 30.6875 C 16.734375 30.664062 16.785156 30.648438 16.824219 30.632812 C 16.839844 30.621094 16.839844 30.589844 16.851562 30.585938 C 16.902344 30.5625 17.066406 30.710938 17.125 30.644531 C 17.171875 30.605469 17.121094 30.460938 17.203125 30.421875 C 17.273438 30.386719 17.429688 30.40625 17.484375 30.382812 C 17.589844 30.324219 17.707031 30.261719 17.8125 30.203125 C 17.839844 30.1875 17.882812 30.191406 17.933594 30.210938 C 18.011719 30 18.847656 27.785156 19.21875 26.957031 C 19.21875 26.957031 19.839844 25.730469 19.863281 25.5625 C 19.863281 25.5625 20.152344 24.613281 20.339844 24.402344 C 20.339844 24.402344 20.691406 23.839844 20.78125 23.738281 C 20.78125 23.738281 21.375 23.136719 21.523438 22.933594 C 21.523438 22.933594 22.105469 22.390625 22.105469 22.292969 C 22.105469 22.292969 22.386719 21.894531 22.578125 21.792969 C 22.578125 21.792969 23.011719 21.402344 23.238281 21.402344 C 23.238281 21.402344 23.835938 21.296875 23.835938 21.296875 L 24.082031 21.378906 L 24.390625 21.417969 L 24.710938 21.542969 C 24.710938 21.542969 24.945312 21.554688 25.015625 21.636719 C 25.015625 21.636719 25.164062 21.875 25.164062 21.875 C 25.164062 21.875 25.386719 21.8125 25.375 21.90625 C 25.375 21.90625 25.488281 22.210938 25.589844 22.226562 C 25.589844 22.226562 25.753906 22.328125 25.8125 22.402344 C 25.8125 22.402344 25.894531 22.5625 25.96875 22.621094 C 25.96875 22.621094 26.148438 22.691406 26.253906 22.8125 C 26.253906 22.8125 26.6875 23.191406 26.789062 23.3125 C 26.789062 23.3125 27.203125 23.703125 27.347656 23.957031 C 27.347656 23.957031 27.949219 24.917969 28.023438 25.109375 C 28.023438 25.109375 28.226562 25.785156 28.226562 25.785156 C 28.226562 25.785156 28.285156 25.699219 28.339844 25.785156 C 28.339844 25.785156 28.738281 26.382812 28.796875 26.589844 C 28.796875 26.589844 29.070312 27.378906 29.148438 27.527344 C 29.148438 27.527344 29.335938 27.996094 29.335938 28.054688 C 29.335938 28.054688 29.246094 28.160156 29.28125 28.269531 C 29.28125 28.269531 29.394531 29 29.394531 29 L 29.441406 28.988281 C 29.429688 28.9375 29.429688 28.886719 29.472656 28.839844 C 29.503906 28.808594 29.636719 28.792969 29.664062 28.769531 C 29.6875 28.742188 29.726562 28.699219 29.78125 28.679688 C 29.808594 28.671875 29.875 28.714844 29.894531 28.699219 C 29.914062 28.679688 29.914062 28.652344 29.9375 28.621094 C 30.023438 28.542969 30.078125 28.625 30.144531 28.59375 C 30.203125 28.5625 30.214844 28.488281 30.261719 28.460938 C 30.28125 28.457031 30.320312 28.476562 30.351562 28.476562 C 30.386719 28.476562 30.402344 28.457031 30.421875 28.433594 C 30.460938 28.394531 30.542969 28.46875 30.585938 28.445312 C 30.609375 28.4375 30.664062 28.246094 30.714844 28.199219 C 30.78125 28.136719 30.976562 28.113281 31.023438 28.066406 C 31.039062 28.042969 31.113281 28.066406 31.136719 28.054688 C 31.324219 27.929688 31.171875 27.886719 31.1875 27.878906 C 31.203125 27.863281 31.410156 27.839844 31.433594 27.863281 C 31.476562 27.90625 31.390625 27.984375 31.503906 27.984375 C 31.605469 27.984375 31.78125 27.957031 31.839844 27.890625 C 31.839844 27.890625 31.8125 27.800781 31.886719 27.730469 C 31.894531 27.71875 32.011719 27.699219 32.050781 27.699219 C 32.058594 27.699219 32.082031 27.726562 32.09375 27.710938 C 32.132812 27.675781 32.164062 27.613281 32.191406 27.582031 C 32.230469 27.542969 32.300781 27.539062 32.339844 27.496094 C 32.363281 27.476562 32.285156 27.46875 32.285156 27.449219 C 32.285156 27.4375 32.539062 27.484375 32.570312 27.484375 C 32.621094 27.484375 32.738281 27.503906 32.785156 27.484375 C 32.863281 27.441406 32.949219 27.257812 32.988281 27.1875 C 32.960938 27.144531 33.0625 27.296875 33.070312 27.261719 C 33.082031 27.234375 33.039062 27.164062 33.058594 27.144531 C 33.113281 27.085938 33.410156 27.203125 33.4375 27.144531 C 33.476562 27.070312 33.433594 26.976562 33.511719 26.890625 C 33.515625 26.890625 33.523438 26.878906 33.527344 26.878906 C 33.539062 26.890625 33.566406 26.882812 33.585938 26.890625 C 33.609375 26.910156 33.617188 26.941406 33.644531 26.957031 C 33.691406 26.976562 33.6875 26.921875 33.714844 26.910156 C 33.796875 26.882812 33.929688 26.851562 34.011719 26.851562 C 34.09375 26.851562 34.109375 26.863281 34.152344 26.910156 C 34.152344 26.910156 34.339844 26.917969 34.347656 26.910156 C 34.414062 26.773438 34.386719 26.730469 34.550781 26.675781 C 34.558594 26.671875 34.613281 26.648438 34.625 26.664062 C 34.664062 26.703125 34.691406 26.765625 34.8125 26.71875 C 34.863281 26.699219 34.914062 26.636719 34.960938 26.617188 C 34.976562 26.609375 35 26.6875 35.039062 26.6875 C 35.078125 26.6875 35.230469 26.671875 35.257812 26.6875 C 35.292969 26.730469 35.300781 26.863281 35.328125 26.878906 C 35.335938 26.886719 35.347656 26.878906 35.355469 26.878906 C 35.511719 26.878906 35.40625 26.699219 35.429688 26.648438 C 35.441406 26.625 35.484375 26.625 35.503906 26.617188 C 35.578125 26.582031 35.570312 26.671875 35.605469 26.6875 C 35.636719 26.707031 35.753906 26.617188 35.78125 26.632812 C 35.839844 26.664062 35.910156 26.757812 35.960938 26.851562 C 35.960938 26.855469 35.960938 26.855469 35.960938 26.855469 C 36.054688 26.792969 36.109375 26.753906 36.109375 26.753906 C 36.1875 26.671875 36.355469 26.671875 36.355469 26.671875 C 36.417969 26.625 36.484375 26.449219 36.484375 26.449219 C 36.539062 26.402344 36.625 26.445312 36.625 26.445312 C 36.6875 26.445312 36.78125 26.289062 36.78125 26.289062 L 37.242188 25.785156 C 37.191406 25.800781 36.960938 25.742188 36.984375 25.699219 C 37.015625 25.621094 37.121094 25.523438 37.1875 25.488281 C 37.210938 25.476562 37.285156 25.511719 37.300781 25.488281 C 37.394531 25.394531 37.1875 25.414062 37.160156 25.402344 C 36.996094 25.324219 37.1875 25.203125 37.257812 25.164062 C 37.320312 25.136719 37.585938 25.207031 37.597656 25.199219 C 37.660156 25.136719 37.484375 25.058594 37.523438 25.023438 C 37.539062 25.011719 37.742188 25.011719 37.757812 25.023438 C 37.773438 25.039062 37.761719 25.066406 37.800781 25.082031 C 37.855469 25.097656 38.191406 25.113281 38.257812 25.082031 C 38.273438 25.070312 38.273438 25.042969 38.285156 25.039062 C 38.375 24.949219 38.496094 25.207031 38.578125 25.125 C 38.625 25.070312 39.023438 24.902344 39.148438 24.960938 L 39.324219 25.050781 C 39.472656 25.125 39.714844 24.929688 39.835938 25.109375 C 39.863281 25.148438 39.769531 25.207031 39.746094 25.226562 C 39.734375 25.238281 39.734375 25.261719 39.730469 25.285156 L 39.882812 25.28125 C 39.914062 25.21875 39.929688 25.160156 39.941406 25.164062 C 39.957031 25.1875 40.199219 25.097656 40.261719 25.039062 C 40.273438 25.023438 40.269531 24.996094 40.273438 24.976562 C 40.308594 24.914062 40.402344 24.8125 40.449219 24.789062 C 40.46875 24.78125 40.582031 24.78125 40.59375 24.789062 C 40.597656 24.789062 40.613281 24.828125 40.613281 24.835938 C 40.671875 24.886719 40.839844 24.785156 40.90625 24.820312 C 40.984375 24.855469 40.984375 24.941406 41.023438 24.976562 C 41.058594 25.011719 41.257812 24.960938 41.269531 24.949219 C 41.445312 25.003906 41.835938 25.039062 42.03125 25.011719 C 42.070312 25 42.175781 24.960938 42.207031 24.976562 C 42.265625 25.011719 42.3125 25.054688 42.339844 25.082031 C 42.355469 25.09375 42.445312 25.097656 42.488281 25.109375 C 42.550781 25.136719 42.714844 25.09375 42.746094 25.109375 C 42.789062 25.132812 42.773438 25.226562 42.808594 25.257812 C 42.835938 25.285156 42.996094 25.257812 43.027344 25.238281 C 43.039062 25.234375 43.039062 25.199219 43.058594 25.199219 C 43.070312 25.199219 43.058594 25.226562 43.058594 25.238281 C 43.058594 25.269531 43.070312 25.3125 43.085938 25.328125 C 43.125 25.386719 43.1875 25.355469 43.246094 25.386719 C 43.28125 25.402344 43.339844 25.382812 43.378906 25.386719 C 43.445312 25.394531 43.472656 25.410156 43.511719 25.445312 C 43.539062 25.476562 43.542969 25.671875 43.613281 25.738281 C 43.652344 25.78125 43.769531 25.835938 43.835938 25.796875 C 43.839844 25.792969 43.863281 25.769531 43.878906 25.785156 C 43.902344 25.808594 43.9375 26 43.949219 26.03125 C 43.972656 26.082031 44.066406 26.105469 44.097656 26.136719 C 44.148438 26.1875 44.339844 26.082031 44.386719 26.105469 C 44.402344 26.113281 44.402344 26.160156 44.402344 26.164062 C 44.460938 26.226562 44.511719 26.289062 44.578125 26.355469 C 44.59375 26.367188 44.652344 26.320312 44.726562 26.355469 C 44.789062 26.386719 44.769531 26.457031 44.800781 26.5 C 44.847656 26.578125 44.960938 26.5625 45.015625 26.617188 C 45.085938 26.679688 45.164062 26.808594 45.207031 26.835938 C 45.300781 26.894531 45.578125 27.039062 45.578125 27.039062 C 45.578125 27.054688 45.621094 27.09375 45.636719 27.117188 C 45.6875 27.226562 45.847656 27.230469 45.957031 27.335938 C 46.003906 27.382812 46.0625 27.445312 46.117188 27.484375 C 46.203125 27.539062 46.335938 27.609375 46.382812 27.660156 C 46.402344 27.679688 46.441406 27.664062 46.46875 27.6875 C 46.5625 27.785156 46.523438 27.851562 46.570312 27.949219 C 46.636719 28.089844 46.691406 28.054688 46.761719 28.125 C 46.765625 28.132812 46.785156 28.292969 46.835938 28.347656 C 46.867188 28.378906 46.929688 28.335938 46.960938 28.363281 C 47.003906 28.378906 46.988281 28.441406 47.011719 28.476562 C 47.039062 28.53125 47.125 28.585938 47.171875 28.609375 C 47.234375 28.621094 47.441406 28.703125 47.460938 28.742188 C 47.5 28.800781 47.503906 28.945312 47.566406 28.976562 C 47.585938 28.984375 47.605469 28.96875 47.625 28.976562 C 47.730469 29.011719 47.839844 29.015625 47.828125 29.015625 C 47.8125 29.015625 47.828125 29.117188 47.886719 29.148438 C 47.933594 29.175781 48.015625 29.132812 48.0625 29.148438 C 48.1875 29.210938 48.378906 29.273438 48.460938 29.355469 C 48.488281 29.382812 48.542969 29.367188 48.578125 29.394531 C 48.605469 29.429688 48.707031 29.367188 48.738281 29.394531 C 48.761719 29.421875 48.785156 29.472656 48.8125 29.503906 C 48.828125 29.523438 48.957031 29.503906 48.988281 29.515625 C 49.039062 29.542969 49.023438 29.664062 49.042969 29.679688 C 49.078125 29.691406 49.132812 29.691406 49.164062 29.707031 C 49.300781 29.773438 49.457031 29.886719 49.511719 30 C 49.527344 30.027344 49.5625 30.03125 49.589844 30.039062 C 49.617188 30.058594 49.71875 30.097656 49.78125 30.070312 C 49.828125 30.050781 49.78125 30.058594 49.835938 30.058594 C 49.839844 30.058594 49.828125 30.039062 49.820312 30.039062 C 49.796875 30.066406 49.886719 30.214844 49.921875 30.234375 C 50.011719 30.28125 50.171875 30.234375 50.160156 30.234375 C 50.148438 30.234375 50.160156 30.253906 50.160156 30.261719 C 50.160156 30.324219 50.03125 30.335938 50.085938 30.441406 C 50.089844 30.445312 50.171875 30.4375 50.1875 30.441406 C 50.246094 30.457031 50.199219 30.460938 50.261719 30.527344 C 50.300781 30.5625 50.457031 30.488281 50.496094 30.527344 C 50.523438 30.554688 50.433594 30.636719 50.46875 30.671875 L 50.554688 30.761719 C 50.605469 30.8125 50.691406 30.769531 50.730469 30.847656 C 50.757812 30.910156 50.6875 31.082031 50.730469 31.125 C 50.78125 31.175781 50.867188 30.988281 50.945312 31.066406 C 51.015625 31.136719 51.078125 31.253906 51.152344 31.335938 C 51.199219 31.378906 51.3125 31.429688 51.328125 31.476562 C 51.367188 31.59375 51.320312 31.707031 51.402344 31.785156 C 51.417969 31.800781 51.40625 31.851562 51.433594 31.875 C 51.449219 31.890625 51.632812 31.941406 51.636719 31.945312 C 51.660156 31.988281 51.632812 32.0625 51.648438 32.109375 C 51.675781 32.160156 51.714844 32.113281 51.738281 32.136719 C 51.769531 32.171875 51.6875 32.261719 51.753906 32.296875 C 51.753906 32.296875 51.753906 32.296875 51.757812 32.296875 C 51.828125 32.335938 51.960938 32.382812 51.949219 32.511719 C 52.230469 32.8125 52.394531 32.988281 52.394531 32.988281 C 52.6875 33.21875 53.960938 34.539062 53.960938 34.539062 C 54.226562 34.8125 54.738281 35.8125 54.738281 35.8125 C 54.894531 36.105469 55.179688 36.960938 55.308594 37.335938 L 55.933594 37.335938 L 55.996094 37.117188 Z M 56.320312 39.957031 L 56.320312 49.609375 C 56.320312 50.023438 56.148438 50.4375 55.867188 50.714844 C 55.558594 51.027344 55.179688 51.199219 54.761719 51.199219 L 9.476562 51.199219 C 9.0625 51.199219 8.648438 51.027344 8.335938 50.714844 C 8.058594 50.4375 7.886719 50.023438 7.886719 49.609375 L 7.886719 38.675781 L 23.203125 39.253906 L 51.210938 40.324219 L 55.675781 40.246094 L 55.636719 39.933594 Z M 59.785156 14.386719 L 59.785156 49.613281 C 59.785156 52.125 57.265625 54.644531 54.753906 54.644531 L 9.460938 54.644531 C 6.699219 54.644531 4.433594 52.378906 4.433594 49.613281 L 4.433594 14.386719 C 4.433594 11.875 6.949219 9.355469 9.460938 9.355469 L 54.753906 9.355469 C 57.265625 9.355469 59.785156 11.875 59.785156 14.386719 Z M 13.382812 32.097656 C 13.382812 32.085938 13.378906 32.082031 13.367188 32.082031 C 13.367188 32.082031 13.375 32.085938 13.382812 32.097656 Z M 13.382812 32.097656 "/>
</g>
</svg>
