<svg xmlns="http://www.w3.org/2000/svg" xmlns:xlink="http://www.w3.org/1999/xlink" width="64px" height="64px" viewBox="0 0 64 64" version="1.1">
<defs>
<linearGradient id="linear0" gradientUnits="userSpaceOnUse" x1="0" y1="0" x2="0" y2="1" gradientTransform="matrix(55.351351,0,0,55.351351,4.324324,4.324324)">
<stop offset="0" style="stop-color:#05f7ff;stop-opacity:1;"/>
<stop offset="0.5" style="stop-color:#dddddd;stop-opacity:1;"/>
<stop offset="1" style="stop-color:#e6ff05;stop-opacity:1;"/>
</linearGradient>
</defs>
<g id="surface1">
<path style=" stroke:none;fill-rule:nonzero;fill:url(#linear0);" d="M 25.636719 4.324219 L 25.636719 8.59375 C 34.570312 8.59375 33.082031 5.613281 38.402344 4.324219 C 30.527344 4.324219 31.589844 7.105469 25.636719 4.324219 Z M 36.269531 8.59375 L 19.914062 13.539062 C 26.296875 19.949219 24.171875 32.753906 24.171875 32.96875 L 42.652344 31.03125 C 42.652344 31.03125 46.691406 16.292969 36.269531 8.59375 Z M 42.652344 10.734375 C 42.652344 10.734375 48.1875 18.632812 47.972656 29.097656 C 53.078125 28.878906 59.675781 27.828125 59.675781 27.828125 C 59.675781 27.828125 49.675781 15.863281 42.652344 10.734375 Z M 6.488281 27.828125 C 4.996094 27.828125 4.136719 29.082031 4.363281 30.367188 L 5.621094 37.039062 C 5.835938 37.890625 6.703125 38.511719 7.550781 38.511719 C 8.613281 38.511719 9.457031 39.179688 9.878906 40.246094 C 9.878906 40.246094 11.085938 44.488281 12.867188 47.457031 C 10.957031 48.949219 8.1875 49.394531 6.488281 49.394531 C 5.636719 49.394531 4.996094 49.410156 4.363281 49.191406 L 4.363281 53.066406 C 4.996094 53.066406 5.636719 53.265625 6.488281 53.265625 C 10.105469 53.265625 11.585938 52.394531 12.867188 51.335938 C 14.78125 52.824219 17.550781 53.265625 19.253906 53.265625 C 20.957031 53.265625 23.71875 52.824219 25.636719 51.335938 C 27.542969 52.824219 30.3125 53.265625 32.015625 53.265625 C 33.71875 53.265625 36.488281 52.824219 38.402344 51.335938 C 40.3125 52.824219 43.082031 53.265625 44.785156 53.265625 C 46.488281 53.265625 49.257812 52.824219 51.164062 51.335938 C 53.078125 52.824219 55.847656 53.265625 57.550781 53.265625 C 58.394531 53.265625 59.039062 53.015625 59.675781 52.796875 L 59.675781 48.988281 C 59.039062 49.210938 58.394531 49.394531 57.550781 49.394531 C 55.847656 49.394531 53.078125 48.949219 51.164062 47.457031 C 50.78125 47.757812 50.335938 47.976562 49.902344 48.1875 C 56.207031 43.460938 59.472656 32.097656 59.472656 32.097656 C 59.902344 31.246094 59.28125 30.164062 58.210938 30.164062 L 50.5 31.433594 C 47.734375 32.285156 44.765625 32.765625 43.917969 34.902344 C 43.488281 35.757812 42.652344 36.375 41.589844 36.375 L 24.367188 36.375 C 22.664062 36.375 22.015625 35.28125 21.378906 33.566406 L 20.511719 31.03125 C 19.875 29.113281 18.171875 27.828125 16.261719 27.828125 Z M 12.867188 53.867188 C 10.957031 55.363281 8.1875 55.808594 6.488281 55.808594 C 5.636719 55.808594 4.996094 55.820312 4.363281 55.605469 L 4.363281 59.476562 C 4.996094 59.476562 5.636719 59.675781 6.488281 59.675781 C 10.105469 59.675781 11.585938 58.808594 12.867188 57.738281 C 14.78125 59.234375 17.550781 59.675781 19.253906 59.675781 C 20.957031 59.675781 23.71875 59.234375 25.636719 57.738281 C 27.542969 59.234375 30.3125 59.675781 32.015625 59.675781 C 33.71875 59.675781 36.488281 59.234375 38.402344 57.738281 C 40.3125 59.234375 43.082031 59.675781 44.785156 59.675781 C 46.488281 59.675781 49.257812 59.234375 51.164062 57.738281 C 53.078125 59.234375 55.847656 59.675781 57.550781 59.675781 C 58.394531 59.675781 59.039062 59.429688 59.675781 59.207031 L 59.675781 55.40625 C 59.039062 55.621094 58.394531 55.808594 57.550781 55.808594 C 55.847656 55.808594 53.078125 55.363281 51.164062 53.867188 C 49.257812 55.363281 46.488281 55.808594 44.785156 55.808594 C 43.082031 55.808594 40.3125 55.363281 38.402344 53.867188 C 36.488281 55.363281 33.71875 55.808594 32.015625 55.808594 C 30.3125 55.808594 27.542969 55.363281 25.636719 53.867188 C 23.71875 55.363281 20.957031 55.808594 19.253906 55.808594 C 17.550781 55.808594 14.78125 55.363281 12.867188 53.867188 Z M 12.867188 53.867188 "/>
</g>
</svg>
