<svg xmlns="http://www.w3.org/2000/svg" xmlns:xlink="http://www.w3.org/1999/xlink" width="64px" height="64px" viewBox="0 0 64 64" version="1.1">
<defs>
<linearGradient id="linear0" gradientUnits="userSpaceOnUse" x1="0" y1="0" x2="0" y2="1" gradientTransform="matrix(55.351351,0,0,6.918919,4.216216,47.567568)">
<stop offset="0" style="stop-color:#00fff2;stop-opacity:1;"/>
<stop offset="0.5" style="stop-color:#dddddd;stop-opacity:1;"/>
<stop offset="1" style="stop-color:#0062ff;stop-opacity:1;"/>
</linearGradient>
<linearGradient id="linear1" gradientUnits="userSpaceOnUse" x1="0" y1="0" x2="0" y2="1" gradientTransform="matrix(47.198199,0,0,30.891892,8.4009,9.166667)">
<stop offset="0" style="stop-color:#00fff2;stop-opacity:1;"/>
<stop offset="0.5" style="stop-color:#dddddd;stop-opacity:1;"/>
<stop offset="1" style="stop-color:#0062ff;stop-opacity:1;"/>
</linearGradient>
</defs>
<g id="surface1">
<path style=" stroke:none;fill-rule:evenodd;fill:url(#linear0);" d="M 4.214844 47.566406 L 59.566406 47.566406 L 59.566406 54.488281 L 4.214844 54.488281 Z M 4.214844 47.566406 "/>
<path style=" stroke:none;fill-rule:evenodd;fill:url(#linear1);" d="M 13.523438 39.550781 L 8.402344 39.550781 L 8.402344 9.679688 L 20.820312 9.679688 C 24.261719 9.679688 26.792969 10.578125 28.414062 12.367188 C 30.039062 14.160156 30.847656 16.351562 30.847656 18.941406 C 30.847656 21.386719 30 23.542969 28.3125 25.421875 C 26.617188 27.300781 24.117188 28.238281 20.820312 28.238281 L 13.523438 28.238281 Z M 13.523438 23.375 L 21.078125 23.375 C 22.585938 23.375 23.707031 22.9375 24.445312 22.054688 C 25.1875 21.171875 25.558594 20.136719 25.558594 18.941406 C 25.558594 17.800781 25.207031 16.785156 24.511719 15.886719 C 23.8125 14.988281 22.664062 14.542969 21.078125 14.542969 L 13.523438 14.542969 Z M 45.097656 40.058594 C 42.367188 40.058594 40.011719 39.367188 38.039062 37.988281 C 36.058594 36.613281 34.660156 34.726562 33.835938 32.335938 L 38.566406 30.589844 C 39.199219 31.984375 40.09375 33.097656 41.261719 33.9375 C 42.421875 34.773438 43.761719 35.199219 45.269531 35.199219 C 46.835938 35.199219 48.078125 34.839844 49.003906 34.132812 C 49.929688 33.417969 50.390625 32.390625 50.390625 31.054688 C 50.390625 30.515625 50.261719 30.011719 50.003906 29.542969 C 49.753906 29.070312 49.460938 28.679688 49.132812 28.367188 C 48.800781 28.054688 48.3125 27.742188 47.664062 27.429688 C 47.003906 27.117188 46.449219 26.867188 45.996094 26.6875 C 45.539062 26.5 44.867188 26.265625 43.988281 25.984375 C 42.851562 25.582031 41.976562 25.265625 41.363281 25.039062 C 40.753906 24.8125 39.972656 24.4375 39.015625 23.910156 C 38.066406 23.382812 37.339844 22.851562 36.839844 22.3125 C 36.347656 21.769531 35.90625 21.054688 35.523438 20.152344 C 35.136719 19.261719 34.945312 18.269531 34.945312 17.1875 C 34.945312 14.914062 35.824219 13.011719 37.589844 11.472656 C 39.355469 9.9375 41.742188 9.164062 44.757812 9.164062 C 47.261719 9.164062 49.335938 9.757812 50.988281 10.9375 C 52.636719 12.121094 53.746094 13.664062 54.3125 15.566406 L 49.707031 17.105469 C 48.796875 15.054688 47.03125 14.03125 44.414062 14.03125 C 43.082031 14.03125 42.039062 14.3125 41.285156 14.863281 C 40.527344 15.417969 40.148438 16.207031 40.148438 17.230469 C 40.148438 17.914062 40.441406 18.527344 41.027344 19.066406 C 41.609375 19.609375 42.234375 20.011719 42.902344 20.285156 C 43.566406 20.554688 44.558594 20.902344 45.867188 21.328125 C 46.71875 21.636719 47.367188 21.878906 47.8125 22.03125 C 48.253906 22.1875 48.867188 22.457031 49.664062 22.820312 C 50.460938 23.1875 51.089844 23.527344 51.539062 23.824219 C 51.996094 24.121094 52.511719 24.527344 53.097656 25.039062 C 53.6875 25.550781 54.132812 26.085938 54.445312 26.636719 C 54.757812 27.191406 55.027344 27.847656 55.253906 28.605469 C 55.484375 29.355469 55.597656 30.175781 55.597656 31.054688 C 55.597656 33.839844 54.609375 36.039062 52.632812 37.648438 C 50.652344 39.257812 48.144531 40.058594 45.097656 40.058594 Z M 45.097656 40.058594 "/>
</g>
</svg>
