<svg xmlns="http://www.w3.org/2000/svg" xmlns:xlink="http://www.w3.org/1999/xlink" width="64px" height="64px" viewBox="0 0 64 64" version="1.1">
<defs>
<linearGradient id="linear0" gradientUnits="userSpaceOnUse" x1="0" y1="0" x2="0" y2="1" gradientTransform="matrix(53.689189,0,0,55.342341,5.157657,4.328829)">
<stop offset="0" style="stop-color:#00b7ff;stop-opacity:1;"/>
<stop offset="0.5" style="stop-color:#dddddd;stop-opacity:1;"/>
<stop offset="1" style="stop-color:#ee42d9;stop-opacity:1;"/>
</linearGradient>
</defs>
<g id="surface1">
<path style=" stroke:none;fill-rule:nonzero;fill:url(#linear0);" d="M 55.679688 39.742188 L 52.570312 43.488281 C 52.082031 44.085938 50.921875 44.320312 50.238281 43.96875 L 40.90625 39.164062 C 40.882812 39.152344 40.863281 39.144531 40.839844 39.136719 C 40.863281 39.121094 40.882812 39.109375 40.90625 39.097656 L 48.828125 34.847656 C 49.652344 34.410156 51.3125 34.410156 52.144531 34.839844 L 53.011719 35.300781 C 54.089844 35.878906 55.523438 37.027344 56.078125 37.761719 C 56.3125 38.078125 56.273438 39.023438 55.679688 39.742188 Z M 42.597656 55.515625 C 42.117188 56.105469 41 56.3125 40.335938 55.957031 L 39.929688 55.730469 L 38.410156 54.882812 C 38.296875 54.828125 38.226562 54.769531 38.179688 54.734375 C 38.226562 54.6875 38.292969 54.625 38.394531 54.558594 L 48.652344 48.230469 Z M 24.609375 57.039062 C 23.582031 57.039062 22.039062 56.3125 21.382812 55.515625 L 18.585938 52.148438 C 18.410156 51.921875 18.328125 51.6875 18.367188 51.472656 C 18.410156 51.257812 18.570312 51.066406 18.824219 50.9375 L 20.6875 49.9375 C 21.089844 49.71875 21.675781 49.59375 22.308594 49.59375 C 22.941406 49.59375 23.566406 49.734375 23.972656 49.960938 L 36.835938 57.039062 Z M 10.960938 42.941406 L 19.4375 47.488281 C 19.476562 47.511719 19.511719 47.539062 19.539062 47.550781 C 19.511719 47.570312 19.476562 47.589844 19.4375 47.609375 L 17.578125 48.609375 C 17.351562 48.726562 17.066406 48.792969 16.765625 48.792969 C 16.1875 48.792969 15.605469 48.550781 15.28125 48.164062 Z M 8.253906 37.3125 L 13.847656 29.847656 C 14.292969 29.246094 15.367188 28.996094 16.039062 29.347656 L 20.710938 31.746094 C 20.738281 31.761719 20.761719 31.769531 20.78125 31.785156 C 20.761719 31.796875 20.738281 31.8125 20.710938 31.824219 L 9.957031 37.632812 C 9.328125 37.960938 8.542969 38.175781 7.941406 38.175781 C 7.894531 38.175781 7.855469 38.175781 7.8125 38.164062 C 7.863281 37.96875 7.988281 37.660156 8.253906 37.3125 Z M 16.945312 25.707031 L 21.21875 20.015625 C 21.523438 19.621094 22.078125 19.363281 22.644531 19.363281 C 22.910156 19.363281 23.171875 19.421875 23.386719 19.539062 L 27.234375 21.585938 L 27.238281 21.585938 L 33.433594 24.882812 C 33.4375 24.882812 33.441406 24.890625 33.449219 24.894531 C 33.484375 24.910156 33.511719 24.929688 33.539062 24.941406 C 33.511719 24.960938 33.476562 24.984375 33.441406 25 L 25.28125 29.375 C 24.855469 29.59375 24.214844 29.730469 23.5625 29.730469 C 22.921875 29.730469 22.328125 29.609375 21.917969 29.402344 L 17.246094 26.996094 C 16.988281 26.863281 16.8125 26.664062 16.757812 26.433594 C 16.707031 26.199219 16.773438 25.945312 16.945312 25.707031 Z M 24.355469 15.941406 C 27.234375 12.3125 30.789062 8.160156 32.066406 7.105469 C 32.839844 7.648438 34.488281 9.328125 35.894531 11.050781 C 36.078125 11.269531 36.152344 11.511719 36.109375 11.726562 C 36.066406 11.9375 35.90625 12.121094 35.660156 12.265625 L 26.636719 17.050781 C 25.824219 17.292969 24.742188 17.269531 24.265625 17.015625 C 24.160156 16.960938 24.097656 16.886719 24.078125 16.765625 C 24.039062 16.589844 24.089844 16.28125 24.355469 15.941406 Z M 42.117188 19.164062 C 42.296875 19.394531 42.363281 19.664062 42.3125 19.902344 C 42.257812 20.144531 42.085938 20.351562 41.824219 20.496094 L 37.988281 22.550781 C 37.171875 22.988281 35.511719 22.988281 34.6875 22.558594 L 34.679688 22.554688 L 28.472656 19.253906 C 28.441406 19.234375 28.40625 19.214844 28.378906 19.199219 C 28.40625 19.1875 28.441406 19.164062 28.472656 19.136719 L 36.902344 14.597656 C 37.554688 14.246094 38.613281 14.488281 39.058594 15.078125 Z M 51.300781 31.40625 L 48.835938 30.085938 C 48.824219 30.085938 48.824219 30.085938 48.824219 30.082031 L 39.253906 24.988281 C 39.246094 24.984375 39.242188 24.984375 39.238281 24.984375 C 39.203125 24.960938 39.171875 24.949219 39.148438 24.929688 C 39.171875 24.914062 39.207031 24.894531 39.242188 24.875 L 43.070312 22.820312 C 43.726562 22.472656 44.785156 22.710938 45.230469 23.296875 Z M 37.941406 37.132812 C 37.3125 37.132812 36.710938 37.011719 36.300781 36.796875 L 26.523438 31.769531 C 26.503906 31.757812 26.476562 31.746094 26.460938 31.734375 C 26.476562 31.726562 26.503906 31.710938 26.523438 31.699219 L 34.6875 27.324219 C 35.511719 26.886719 37.171875 26.878906 38 27.3125 L 38.003906 27.3125 L 47.605469 32.429688 C 47.636719 32.4375 47.652344 32.449219 47.679688 32.46875 C 47.648438 32.488281 47.617188 32.5 47.582031 32.523438 L 39.660156 36.769531 C 39.238281 36.996094 38.59375 37.132812 37.941406 37.132812 Z M 47.542969 45.542969 C 47.621094 45.59375 47.6875 45.636719 47.734375 45.664062 C 47.6875 45.707031 47.636719 45.753906 47.554688 45.800781 L 37.011719 52.3125 C 36.246094 52.789062 34.664062 52.824219 33.867188 52.386719 L 25.246094 47.636719 C 25.199219 47.617188 25.152344 47.589844 25.121094 47.566406 C 25.160156 47.542969 25.199219 47.523438 25.246094 47.488281 L 36.339844 41.542969 C 37.171875 41.105469 38.863281 41.089844 39.699219 41.515625 L 43.164062 43.296875 Z M 11.191406 40.066406 C 11.160156 40.054688 11.117188 40.03125 11.09375 40.011719 C 11.125 39.996094 11.164062 39.972656 11.203125 39.945312 L 21.960938 34.152344 C 22.789062 33.707031 24.484375 33.6875 25.3125 34.121094 L 35.09375 39.148438 C 35.117188 39.160156 35.136719 39.164062 35.160156 39.1875 C 35.136719 39.1875 35.117188 39.203125 35.09375 39.21875 L 24 45.164062 C 23.175781 45.613281 21.511719 45.613281 20.6875 45.164062 Z M 58.191406 36.175781 C 57.742188 35.585938 56.984375 34.878906 56.160156 34.230469 C 56.160156 33.472656 55.648438 32.792969 55.417969 32.488281 L 47.335938 21.710938 C 46.753906 20.9375 45.890625 20.390625 44.921875 20.152344 C 45.039062 19.257812 44.796875 18.335938 44.230469 17.570312 L 41.164062 13.488281 C 40.578125 12.699219 39.703125 12.152344 38.71875 11.914062 C 38.808594 11.027344 38.542969 10.117188 37.9375 9.375 C 33.796875 4.328125 32.4375 4.328125 31.988281 4.328125 C 31.355469 4.328125 30.175781 4.328125 22.289062 14.308594 C 21.675781 15.082031 21.390625 16.003906 21.457031 16.882812 C 20.511719 17.136719 19.679688 17.671875 19.109375 18.4375 L 14.835938 24.121094 C 14.269531 24.882812 14.039062 25.796875 14.144531 26.6875 C 13.175781 26.9375 12.320312 27.484375 11.730469 28.265625 L 6.136719 35.726562 C 5.335938 36.789062 5.003906 37.96875 5.226562 38.945312 C 5.269531 39.164062 5.351562 39.363281 5.449219 39.539062 C 5.394531 40.351562 5.988281 41.082031 6.273438 41.421875 L 13.246094 49.839844 C 13.867188 50.585938 14.761719 51.109375 15.746094 51.324219 C 15.679688 52.207031 15.945312 53.097656 16.558594 53.828125 L 19.351562 57.203125 C 20.523438 58.613281 22.78125 59.671875 24.609375 59.671875 L 39.375 59.671875 C 40.730469 59.671875 41.355469 59.21875 41.636719 58.730469 C 42.820312 58.609375 43.910156 58.070312 44.636719 57.207031 L 51.320312 49.152344 C 51.820312 48.550781 52.570312 47.488281 52.675781 46.472656 C 53.429688 46.203125 54.113281 45.769531 54.605469 45.175781 L 57.707031 41.421875 C 59.011719 39.855469 59.21875 37.554688 58.191406 36.175781 Z M 58.191406 36.175781 "/>
</g>
</svg>
