<svg xmlns="http://www.w3.org/2000/svg" xmlns:xlink="http://www.w3.org/1999/xlink" width="64px" height="64px" viewBox="0 0 64 64" version="1.1">
<defs>
<linearGradient id="linear0" gradientUnits="userSpaceOnUse" x1="0" y1="0" x2="0" y2="1" gradientTransform="matrix(55.351351,0,0,55.351351,4.324324,4.324324)">
<stop offset="0" style="stop-color:#ffae00;stop-opacity:1;"/>
<stop offset="0.5" style="stop-color:#dddddd;stop-opacity:1;"/>
<stop offset="1" style="stop-color:#bf1d1d;stop-opacity:1;"/>
</linearGradient>
</defs>
<g id="surface1">
<path style=" stroke:none;fill-rule:evenodd;fill:url(#linear0);" d="M 21.125 29.039062 C 16.226562 29.039062 11.933594 32.214844 10.648438 36.792969 C 10.402344 37.347656 10.253906 37.996094 10.253906 38.773438 C 10.253906 38.890625 10.273438 39.011719 10.273438 39.125 C 10.265625 39.269531 10.257812 39.410156 10.253906 39.554688 C 10.253906 40.867188 10.511719 42.175781 11.011719 43.402344 C 13.488281 51.0625 21.9375 56.710938 32 56.710938 C 42.121094 56.710938 50.605469 50.996094 53.03125 43.269531 C 53.496094 42.085938 53.738281 40.824219 53.746094 39.554688 C 53.742188 39.386719 53.734375 39.226562 53.726562 39.058594 C 53.730469 38.960938 53.746094 38.867188 53.746094 38.773438 C 53.746094 38.015625 53.609375 37.390625 53.375 36.847656 C 52.109375 32.242188 47.796875 29.039062 42.875 29.039062 C 37.46875 29.039062 32.886719 32.886719 32.121094 38.0625 C 32.113281 38.0625 32 38.109375 32 38.109375 C 32 38.109375 31.886719 38.0625 31.878906 38.0625 C 31.113281 32.886719 26.53125 29.039062 21.125 29.039062 Z M 4.324219 32 C 4.324219 16.726562 16.726562 4.324219 32 4.324219 C 47.273438 4.324219 59.675781 16.726562 59.675781 32 C 59.675781 47.273438 47.273438 59.675781 32 59.675781 C 16.726562 59.675781 4.324219 47.273438 4.324219 32 Z M 21.125 40.894531 C 21.125 39.257812 22.457031 37.929688 24.089844 37.929688 C 25.730469 37.929688 27.058594 39.257812 27.058594 40.894531 C 27.058594 42.53125 25.730469 43.863281 24.089844 43.863281 C 22.457031 43.863281 21.125 42.53125 21.125 40.894531 Z M 36.941406 40.894531 C 36.941406 39.257812 38.269531 37.929688 39.910156 37.929688 C 41.542969 37.929688 42.875 39.257812 42.875 40.894531 C 42.875 42.53125 41.542969 43.863281 39.910156 43.863281 C 38.269531 43.863281 36.941406 42.53125 36.941406 40.894531 Z M 26.042969 44.875 C 30.0625 44.015625 34.023438 44.023438 37.90625 44.875 C 36.511719 48.53125 34.539062 51.5 31.976562 53.769531 C 29.179688 51.242188 27.207031 48.28125 26.042969 44.875 Z M 26.042969 44.875 "/>
</g>
</svg>
