<svg xmlns="http://www.w3.org/2000/svg" xmlns:xlink="http://www.w3.org/1999/xlink" width="48px" height="48px" viewBox="0 0 48 48" version="1.1">
<g id="surface1">
<path style=" stroke:none;fill-rule:nonzero;fill:rgb(90.196079%,0%,13.725491%);fill-opacity:1;" d="M 44 24 C 44 35.046875 35.046875 44 24 44 C 12.953125 44 4 35.046875 4 24 C 4 12.953125 12.953125 4 24 4 C 35.046875 4 44 12.953125 44 24 Z M 44 24 "/>
<path style=" stroke:none;fill-rule:nonzero;fill:rgb(100%,100%,100%);fill-opacity:1;" d="M 24.445312 11.417969 C 15.8125 11.417969 11.226562 17.210938 11.226562 23.519531 C 11.226562 26.453125 12.789062 30.105469 15.289062 31.269531 C 15.667969 31.445312 15.871094 31.367188 15.957031 31 C 16.023438 30.722656 16.359375 29.363281 16.511719 28.730469 C 16.5625 28.53125 16.535156 28.359375 16.375 28.160156 C 15.546875 27.15625 14.886719 25.3125 14.886719 23.59375 C 14.886719 19.183594 18.226562 14.914062 23.914062 14.914062 C 28.828125 14.914062 32.269531 18.261719 32.269531 23.050781 C 32.269531 28.460938 29.535156 32.210938 25.980469 32.210938 C 24.019531 32.210938 22.546875 30.585938 23.019531 28.59375 C 23.585938 26.21875 24.675781 23.652344 24.675781 21.9375 C 24.675781 20.402344 23.855469 19.121094 22.148438 19.121094 C 20.140625 19.121094 18.527344 21.195312 18.527344 23.976562 C 18.527344 25.746094 19.125 26.945312 19.125 26.945312 C 19.125 26.945312 17.144531 35.324219 16.78125 36.886719 C 16.378906 38.609375 16.535156 41.027344 16.710938 42.609375 C 17.160156 42.785156 17.613281 42.964844 18.078125 43.109375 C 18.894531 41.78125 20.113281 39.601562 20.566406 37.867188 C 20.808594 36.929688 21.8125 33.109375 21.8125 33.109375 C 22.464844 34.355469 24.367188 35.40625 26.394531 35.40625 C 32.425781 35.40625 36.773438 29.859375 36.773438 22.96875 C 36.773438 16.359375 31.382812 11.417969 24.445312 11.417969 Z M 24.445312 11.417969 "/>
</g>
</svg>
