<svg xmlns="http://www.w3.org/2000/svg" xmlns:xlink="http://www.w3.org/1999/xlink" width="64px" height="64px" viewBox="0 0 64 64" version="1.1">
<defs>
<linearGradient id="linear0" gradientUnits="userSpaceOnUse" x1="0" y1="0" x2="0" y2="1" gradientTransform="matrix(55.351351,0,0,45.108108,4.324324,9.445945)">
<stop offset="0" style="stop-color:#05f7ff;stop-opacity:1;"/>
<stop offset="0.5" style="stop-color:#dddddd;stop-opacity:1;"/>
<stop offset="1" style="stop-color:#e6ff05;stop-opacity:1;"/>
</linearGradient>
</defs>
<g id="surface1">
<path style=" stroke:none;fill-rule:nonzero;fill:url(#linear0);" d="M 22.242188 9.445312 C 22.1875 9.441406 22.160156 9.46875 22.109375 9.476562 C 22.03125 9.488281 21.9375 9.488281 21.863281 9.511719 C 21.847656 9.515625 21.847656 9.503906 21.828125 9.511719 C 21.824219 9.511719 21.796875 9.542969 21.792969 9.550781 C 10.292969 13.265625 5.78125 22.800781 4.671875 25.597656 L 34.59375 25.597656 C 35.496094 24.496094 37.761719 24.488281 38.644531 24.488281 C 39.523438 24.488281 41.789062 24.496094 42.6875 25.597656 L 58.8125 25.597656 L 22.660156 9.550781 C 22.527344 9.488281 22.386719 9.449219 22.242188 9.445312 Z M 28.609375 14.636719 L 34.144531 17.089844 C 33.820312 18.152344 32.003906 18.960938 29.785156 18.960938 C 27.339844 18.960938 25.355469 17.960938 25.355469 16.742188 C 25.355469 15.726562 26.738281 14.890625 28.609375 14.636719 Z M 4.324219 27.8125 L 4.324219 51.648438 C 4.3125 52.421875 4.617188 53.164062 5.164062 53.714844 C 5.710938 54.261719 6.457031 54.566406 7.230469 54.554688 C 7.28125 54.554688 7.351562 54.558594 7.40625 54.554688 C 7.433594 54.554688 7.441406 54.558594 7.472656 54.554688 L 56.703125 50.855469 C 58.339844 50.730469 59.675781 49.320312 59.675781 47.671875 L 59.675781 40.132812 C 59.675781 39.660156 59.363281 39.210938 58.914062 39.058594 C 58.886719 39.042969 56.355469 38.164062 56.355469 36.152344 C 56.355469 34.136719 58.890625 33.214844 58.914062 33.210938 C 59.363281 33.066406 59.671875 32.648438 59.675781 32.171875 L 59.675781 27.8125 L 42.894531 27.8125 C 42.402344 29.71875 40.703125 31.136719 38.644531 31.136719 C 36.585938 31.136719 34.882812 29.71875 34.386719 27.8125 Z M 16.5 31.136719 C 19.558594 31.136719 22.039062 33.121094 22.039062 35.5625 C 22.039062 38.003906 19.558594 39.988281 16.5 39.988281 C 13.441406 39.988281 10.96875 38.003906 10.96875 35.5625 C 10.96875 33.121094 13.441406 31.136719 16.5 31.136719 Z M 45.835938 38.882812 C 47.976562 38.882812 49.710938 40.375 49.710938 42.207031 C 49.710938 44.03125 47.976562 45.527344 45.835938 45.527344 C 43.699219 45.527344 41.960938 44.03125 41.960938 42.207031 C 41.960938 40.375 43.699219 38.882812 45.835938 38.882812 Z M 30.890625 41.097656 C 34.5625 41.097656 37.539062 43.6875 37.539062 46.875 C 37.539062 48.105469 37.082031 49.230469 36.324219 50.164062 L 26.1875 50.921875 C 24.996094 49.875 24.253906 48.460938 24.253906 46.875 C 24.253906 43.6875 27.226562 41.097656 30.890625 41.097656 Z M 30.890625 41.097656 "/>
</g>
</svg>
