<svg xmlns="http://www.w3.org/2000/svg" xmlns:xlink="http://www.w3.org/1999/xlink" width="64px" height="64px" viewBox="0 0 64 64" version="1.1">
<defs>
<linearGradient id="linear0" gradientUnits="userSpaceOnUse" x1="0" y1="0" x2="0" y2="1" gradientTransform="matrix(10.378378,0,0,10.378378,40.324324,13.837838)">
<stop offset="0" style="stop-color:#00fff2;stop-opacity:1;"/>
<stop offset="0.5" style="stop-color:#dddddd;stop-opacity:1;"/>
<stop offset="1" style="stop-color:#0062ff;stop-opacity:1;"/>
</linearGradient>
<linearGradient id="linear1" gradientUnits="userSpaceOnUse" x1="0" y1="0" x2="0" y2="1" gradientTransform="matrix(48.432432,0,0,48.432432,7.783784,7.783784)">
<stop offset="0" style="stop-color:#00fff2;stop-opacity:1;"/>
<stop offset="0.5" style="stop-color:#dddddd;stop-opacity:1;"/>
<stop offset="1" style="stop-color:#0062ff;stop-opacity:1;"/>
</linearGradient>
<linearGradient id="linear2" gradientUnits="userSpaceOnUse" x1="0" y1="0" x2="0" y2="1" gradientTransform="matrix(13.297297,0,0,8.432432,21.243243,14.702703)">
<stop offset="0" style="stop-color:#00fff2;stop-opacity:1;"/>
<stop offset="0.5" style="stop-color:#dddddd;stop-opacity:1;"/>
<stop offset="1" style="stop-color:#0062ff;stop-opacity:1;"/>
</linearGradient>
<linearGradient id="linear3" gradientUnits="userSpaceOnUse" x1="0" y1="0" x2="0" y2="1" gradientTransform="matrix(27.675676,0,0,9.135135,14.702703,33.243243)">
<stop offset="0" style="stop-color:#00fff2;stop-opacity:1;"/>
<stop offset="0.5" style="stop-color:#dddddd;stop-opacity:1;"/>
<stop offset="1" style="stop-color:#0062ff;stop-opacity:1;"/>
</linearGradient>
<linearGradient id="linear4" gradientUnits="userSpaceOnUse" x1="0" y1="0" x2="0" y2="1" gradientTransform="matrix(36.058557,0,0,21.112612,6.427928,17.828828)">
<stop offset="0" style="stop-color:#00fff2;stop-opacity:1;"/>
<stop offset="0.5" style="stop-color:#dddddd;stop-opacity:1;"/>
<stop offset="1" style="stop-color:#0062ff;stop-opacity:1;"/>
</linearGradient>
</defs>
<g id="surface1">
<path style=" stroke:none;fill-rule:nonzero;fill:url(#linear0);" d="M 45.511719 13.835938 C 42.648438 13.835938 40.324219 16.164062 40.324219 19.027344 C 40.324219 21.890625 42.648438 24.214844 45.511719 24.214844 C 48.378906 24.214844 50.703125 21.890625 50.703125 19.027344 C 50.703125 16.164062 48.378906 13.835938 45.511719 13.835938 Z M 45.511719 13.835938 "/>
<path style=" stroke:none;fill-rule:nonzero;fill:url(#linear1);" d="M 11.242188 20.664062 L 11.242188 11.242188 L 52.757812 11.242188 L 52.757812 45.835938 L 11.242188 45.835938 L 11.242188 36.285156 L 7.785156 33.039062 L 7.785156 56.214844 L 56.214844 56.214844 L 56.214844 7.785156 L 7.785156 7.785156 L 7.785156 23.890625 Z M 11.242188 20.664062 "/>
<path style=" stroke:none;fill-rule:nonzero;fill:url(#linear2);" d="M 21.242188 22.863281 L 23.296875 14.703125 L 28.378906 21.351562 L 31.1875 18.109375 L 34.539062 23.136719 Z M 21.242188 22.863281 "/>
<path style=" stroke:none;fill-rule:nonzero;fill:url(#linear3);" d="M 26 33.835938 L 20.703125 34.109375 C 21.097656 37.027344 20.773438 38.972656 19.730469 39.945312 C 19.179688 40.460938 17.957031 40.636719 16.054688 40.488281 L 14.703125 42.378906 L 42.378906 42.378906 L 37.136719 33.242188 L 31.1875 33.511719 Z M 26 33.835938 "/>
<path style=" stroke:none;fill-rule:nonzero;fill:url(#linear4);" d="M 17.738281 17.828125 C 17.5 17.855469 17.265625 17.945312 17.070312 18.09375 C 11.917969 21.578125 6.941406 27.375 6.761719 27.609375 C 6.5625 27.828125 6.445312 28.109375 6.429688 28.40625 C 6.429688 28.699219 6.570312 28.960938 6.761719 29.203125 C 6.941406 29.4375 11.917969 35.230469 17.070312 38.714844 C 17.46875 38.988281 17.976562 39.011719 18.390625 38.792969 C 18.8125 38.566406 19.078125 38.125 19.070312 37.652344 L 19.070312 32.726562 C 19.070312 32.726562 40.890625 31.929688 41.355469 31.59375 C 42.039062 31.113281 42.488281 29.710938 42.488281 28.402344 C 42.488281 27.089844 42.039062 25.488281 41.355469 25.011719 C 40.890625 24.675781 19.066406 24.078125 19.066406 24.078125 L 19.066406 19.160156 C 19.082031 18.6875 18.824219 18.246094 18.40625 18.027344 C 18.203125 17.902344 17.976562 17.835938 17.738281 17.828125 Z M 17.738281 17.828125 "/>
</g>
</svg>
