<svg xmlns="http://www.w3.org/2000/svg" xmlns:xlink="http://www.w3.org/1999/xlink" width="64px" height="64px" viewBox="0 0 64 64" version="1.1">
<defs>
<linearGradient id="linear0" gradientUnits="userSpaceOnUse" x1="0" y1="0" x2="0" y2="1" gradientTransform="matrix(51.891892,0,0,51.891892,6.054054,6.054054)">
<stop offset="0" style="stop-color:#00a2ff;stop-opacity:1;"/>
<stop offset="0.5" style="stop-color:#dddddd;stop-opacity:1;"/>
<stop offset="1" style="stop-color:#00ffae;stop-opacity:1;"/>
</linearGradient>
</defs>
<g id="surface1">
<path style=" stroke:none;fill-rule:nonzero;fill:url(#linear0);" d="M 19.027344 6.054688 C 17.230469 6.054688 15.785156 7.5 15.785156 9.296875 C 15.785156 11.09375 17.230469 12.539062 19.027344 12.539062 C 20.824219 12.539062 22.269531 11.09375 22.269531 9.296875 C 22.269531 7.5 20.824219 6.054688 19.027344 6.054688 M 41.730469 6.054688 L 35.242188 12.539062 L 44.972656 22.269531 L 35.242188 32 L 41.730469 38.488281 L 57.945312 22.269531 Z M 10.917969 25.511719 C 8.226562 25.511719 6.054688 27.6875 6.054688 30.378906 C 6.054688 33.070312 8.226562 35.242188 10.917969 35.242188 C 13.613281 35.242188 15.785156 33.070312 15.785156 30.378906 C 15.785156 27.6875 13.613281 25.511719 10.917969 25.511719 M 25.511719 44.972656 C 21.917969 44.972656 19.027344 47.863281 19.027344 51.460938 C 19.027344 55.054688 21.917969 57.945312 25.511719 57.945312 C 29.109375 57.945312 32 55.054688 32 51.460938 C 32 47.863281 29.109375 44.972656 25.511719 44.972656 "/>
</g>
</svg>
