<svg xmlns="http://www.w3.org/2000/svg" xmlns:xlink="http://www.w3.org/1999/xlink" width="64px" height="64px" viewBox="0 0 64 64" version="1.1">
<defs>
<linearGradient id="linear0" gradientUnits="userSpaceOnUse" x1="0" y1="0" x2="0" y2="1" gradientTransform="matrix(55.198199,0,0,55.351351,4.400901,4.324324)">
<stop offset="0" style="stop-color:#ff8963;stop-opacity:1;"/>
<stop offset="0.5" style="stop-color:#dddddd;stop-opacity:1;"/>
<stop offset="1" style="stop-color:#0F6FFF;stop-opacity:1;"/>
</linearGradient>
</defs>
<g id="surface1">
<path style=" stroke:none;fill-rule:nonzero;fill:url(#linear0);" d="M 35.566406 31.785156 C 35.171875 32.375 34.5625 32.785156 33.855469 32.921875 C 33.164062 33.0625 32.433594 32.90625 31.863281 32.511719 C 31.269531 32.117188 30.863281 31.488281 30.71875 30.796875 C 30.597656 30.105469 30.738281 29.378906 31.132812 28.789062 C 32.296875 27.070312 34.230469 26.027344 36.296875 25.984375 C 38.050781 26.003906 39.730469 26.734375 40.949219 27.996094 C 42.152344 29.257812 42.820312 30.949219 42.761719 32.707031 C 42.703125 34.617188 41.972656 36.449219 40.730469 37.914062 C 39.882812 38.957031 38.820312 39.808594 37.597656 40.375 C 36.496094 40.910156 35.273438 41.164062 34.03125 41.164062 C 32.457031 41.148438 30.894531 40.753906 29.496094 40.023438 C 28.234375 39.386719 27.089844 38.523438 26.148438 37.496094 C 24.46875 35.605469 23.539062 33.179688 23.5625 30.660156 C 23.5625 27.148438 25.164062 23.835938 27.902344 21.632812 C 30.144531 19.835938 32.945312 18.851562 35.824219 18.867188 C 40.203125 18.867188 44.335938 20.941406 46.984375 24.429688 C 48.957031 27.027344 50.015625 30.226562 50 33.5 C 50 38.738281 47.472656 43.6875 43.214844 46.785156 C 40.238281 48.933594 36.675781 50.078125 33.003906 50.078125 C 26.875 50.078125 21.121094 47.082031 17.589844 42.070312 C 15.242188 38.738281 14 34.757812 14 30.691406 C 14 23.699219 17.46875 17.113281 23.226562 13.152344 C 26.9375 10.625 31.292969 9.265625 35.765625 9.289062 C 39.613281 9.289062 43.375 10.234375 46.765625 12.011719 C 50.257812 13.820312 53.230469 16.488281 55.417969 19.714844 C 58.164062 23.773438 59.597656 28.550781 59.597656 33.4375 C 59.578125 37.691406 58.539062 41.875 56.542969 45.636719 C 54.53125 49.503906 51.570312 52.792969 47.945312 55.199219 C 43.539062 58.117188 38.347656 59.675781 33.066406 59.675781 C 28.390625 59.652344 23.78125 58.511719 19.664062 56.308594 C 15.421875 54.078125 11.8125 50.824219 9.171875 46.824219 C 6.058594 42.054688 4.402344 36.449219 4.402344 30.757812 C 4.421875 25.652344 5.6875 20.644531 8.066406 16.148438 C 10.511719 11.539062 14.082031 7.613281 18.457031 4.753906 C 19.050781 4.363281 19.78125 4.242188 20.460938 4.378906 C 21.160156 4.515625 21.769531 4.933594 22.164062 5.539062 C 22.558594 6.136719 22.691406 6.863281 22.539062 7.554688 C 22.402344 8.242188 21.988281 8.855469 21.390625 9.246094 C 17.765625 11.59375 14.828125 14.847656 12.800781 18.652344 C 10.808594 22.378906 9.761719 26.539062 9.761719 30.757812 C 9.742188 35.429688 11.105469 39.984375 13.648438 43.886719 C 15.796875 47.117188 18.710938 49.78125 22.164062 51.570312 C 25.511719 53.367188 29.261719 54.3125 33.066406 54.3125 C 37.300781 54.335938 41.460938 53.089844 44.988281 50.746094 C 47.867188 48.835938 50.214844 46.210938 51.8125 43.136719 C 53.390625 40.136719 54.238281 36.8125 54.238281 33.417969 C 54.238281 29.613281 53.113281 25.886719 50.988281 22.714844 C 49.289062 20.210938 46.984375 18.160156 44.300781 16.761719 C 41.660156 15.382812 38.742188 14.648438 35.765625 14.648438 C 32.375 14.632812 29.0625 15.652344 26.265625 17.566406 C 21.945312 20.542969 19.363281 25.457031 19.363281 30.691406 C 19.363281 33.675781 20.269531 36.554688 21.960938 38.976562 C 24.488281 42.585938 28.632812 44.710938 33.003906 44.710938 C 35.550781 44.734375 38.011719 43.921875 40.0625 42.445312 C 42.941406 40.355469 44.636719 37.027344 44.652344 33.476562 C 44.652344 31.363281 43.988281 29.335938 42.726562 27.664062 C 41.066406 25.488281 38.523438 24.210938 35.808594 24.210938 C 34.148438 24.210938 32.554688 24.761719 31.253906 25.808594 C 29.769531 26.988281 28.921875 28.789062 28.90625 30.679688 C 28.90625 31.863281 29.335938 33.023438 30.132812 33.910156 C 30.621094 34.460938 31.234375 34.914062 31.917969 35.253906 C 32.589844 35.605469 33.339844 35.785156 34.089844 35.800781 C 34.523438 35.800781 34.9375 35.707031 35.335938 35.542969 C 35.824219 35.289062 36.28125 34.9375 36.632812 34.484375 C 37.109375 33.949219 37.382812 33.261719 37.417969 32.550781 C 37.417969 32.234375 37.300781 31.960938 37.109375 31.726562 C 36.910156 31.503906 36.613281 31.363281 36.3125 31.347656 C 36.015625 31.363281 35.746094 31.542969 35.566406 31.785156 Z M 35.566406 31.785156 "/>
</g>
</svg>
