<svg xmlns="http://www.w3.org/2000/svg" xmlns:xlink="http://www.w3.org/1999/xlink" width="64px" height="64px" viewBox="0 0 64 64" version="1.1">
<defs>
<linearGradient id="linear0" gradientUnits="userSpaceOnUse" x1="0" y1="0" x2="0" y2="1" gradientTransform="matrix(55.351351,0,0,55.351351,4.324324,4.324324)">
<stop offset="0" style="stop-color:#ffae00;stop-opacity:1;"/>
<stop offset="0.5" style="stop-color:#dddddd;stop-opacity:1;"/>
<stop offset="1" style="stop-color:#bf1d1d;stop-opacity:1;"/>
</linearGradient>
</defs>
<g id="surface1">
<path style=" stroke:none;fill-rule:evenodd;fill:url(#linear0);" d="M 31.9375 32.125 C 31.921875 32.125 31.910156 32.125 31.894531 32.125 C 31.890625 32.050781 31.886719 31.972656 31.878906 31.890625 C 31.875 31.976562 31.902344 32.054688 31.9375 32.125 Z M 31.902344 32.210938 L 31.910156 32.210938 C 31.96875 32.179688 32.039062 32.148438 32.09375 32.117188 C 32.039062 32.121094 31.988281 32.121094 31.902344 32.210938 Z M 19.742188 35.40625 C 10.96875 39.648438 4.890625 47.039062 13.136719 51.800781 C 16.308594 53.625 18.585938 53.734375 20.242188 53.011719 C 20.457031 54.808594 21.6875 56.730469 24.847656 58.558594 C 32.175781 62.792969 35.835938 54.296875 35.503906 44.875 C 39.941406 53.199219 47.363281 58.71875 51.59375 51.390625 C 53.417969 48.226562 53.523438 45.945312 52.8125 44.285156 C 54.605469 44.078125 56.527344 42.847656 58.355469 39.6875 C 63.132812 31.414062 54.121094 28.054688 44.375 28.757812 C 53.039062 24.410156 58.996094 16.734375 51.496094 12.40625 C 48.328125 10.582031 46.050781 10.476562 44.390625 11.1875 C 44.1875 9.394531 42.949219 7.472656 39.789062 5.644531 C 31.226562 0.699219 27.921875 10.542969 29.050781 20.6875 C 24.933594 11.355469 17.144531 4.460938 12.199219 13.039062 C 10.375 16.203125 10.269531 18.484375 10.988281 20.136719 C 9.191406 20.347656 7.269531 21.585938 5.441406 24.746094 C 1.113281 32.234375 10.085938 35.90625 19.742188 35.40625 Z M 19.742188 35.40625 "/>
</g>
</svg>
