<svg xmlns="http://www.w3.org/2000/svg" xmlns:xlink="http://www.w3.org/1999/xlink" width="64px" height="64px" viewBox="0 0 64 64" version="1.1">
<defs>
<linearGradient id="linear0" gradientUnits="userSpaceOnUse" x1="0" y1="0" x2="0" y2="1" gradientTransform="matrix(50.459459,0,0,48.432432,6.77027,7.783784)">
<stop offset="0" style="stop-color:#05f7ff;stop-opacity:1;"/>
<stop offset="0.5" style="stop-color:#dddddd;stop-opacity:1;"/>
<stop offset="1" style="stop-color:#e6ff05;stop-opacity:1;"/>
</linearGradient>
</defs>
<g id="surface1">
<path style=" stroke:none;fill-rule:nonzero;fill:url(#linear0);" d="M 44.429688 8.582031 C 43.558594 8.164062 42.730469 7.90625 41.9375 7.820312 C 41.136719 7.738281 40.410156 7.792969 39.746094 7.984375 C 39.089844 8.171875 38.511719 8.484375 38 8.914062 C 37.496094 9.347656 37.09375 9.878906 36.792969 10.5 C 36.605469 10.890625 36.460938 11.261719 36.378906 11.597656 C 36.285156 11.949219 36.21875 12.257812 36.1875 12.523438 C 36.152344 12.800781 36.144531 13.03125 36.152344 13.214844 C 36.164062 13.402344 36.160156 13.5625 36.171875 13.636719 L 36.257812 14.46875 C 36.296875 14.851562 36.257812 15.148438 36.136719 15.355469 C 36.015625 15.578125 35.800781 15.699219 35.484375 15.730469 C 35.40625 15.738281 35.324219 15.738281 35.234375 15.734375 C 35.148438 15.730469 35.066406 15.71875 35 15.707031 L 21.972656 9.4375 L 17.734375 18.246094 C 17.71875 18.320312 17.707031 18.394531 17.707031 18.488281 C 17.699219 18.570312 17.703125 18.660156 17.707031 18.730469 C 17.738281 19.050781 17.863281 19.269531 18.082031 19.382812 C 18.289062 19.503906 18.585938 19.542969 18.972656 19.511719 L 19.796875 19.421875 C 19.875 19.410156 20.039062 19.414062 20.226562 19.40625 C 20.40625 19.390625 20.636719 19.40625 20.914062 19.441406 C 21.179688 19.46875 21.488281 19.53125 21.835938 19.625 C 22.179688 19.714844 22.542969 19.855469 22.941406 20.042969 C 23.5625 20.347656 24.089844 20.746094 24.523438 21.253906 C 24.957031 21.757812 25.265625 22.339844 25.460938 23 C 25.644531 23.660156 25.699219 24.386719 25.617188 25.1875 C 25.53125 25.976562 25.28125 26.808594 24.863281 27.679688 C 24.4375 28.550781 23.960938 29.28125 23.417969 29.863281 C 22.878906 30.429688 22.300781 30.847656 21.6875 31.117188 C 21.066406 31.390625 20.429688 31.511719 19.761719 31.488281 C 19.09375 31.46875 18.433594 31.292969 17.765625 30.972656 C 17.378906 30.789062 17.039062 30.589844 16.726562 30.382812 C 16.421875 30.171875 16.164062 29.976562 15.949219 29.785156 C 15.738281 29.59375 15.5625 29.429688 15.433594 29.28125 C 15.308594 29.117188 15.261719 29.011719 15.21875 28.9375 L 14.769531 28.234375 C 14.5625 27.90625 14.339844 27.699219 14.117188 27.613281 C 13.894531 27.515625 13.648438 27.554688 13.375 27.730469 C 13.3125 27.769531 13.246094 27.820312 13.179688 27.878906 C 13.113281 27.9375 13.058594 27.996094 13.011719 28.050781 L 6.769531 41.011719 L 19.792969 47.28125 C 19.863281 47.292969 19.941406 47.308594 20.03125 47.308594 C 20.121094 47.3125 20.199219 47.3125 20.273438 47.308594 C 20.597656 47.273438 20.8125 47.148438 20.929688 46.933594 C 21.050781 46.726562 21.089844 46.429688 21.050781 46.042969 L 20.96875 45.214844 C 20.957031 45.136719 20.960938 44.976562 20.945312 44.789062 C 20.941406 44.609375 20.949219 44.375 20.988281 44.097656 C 21.015625 43.835938 21.078125 43.523438 21.171875 43.175781 C 21.261719 42.835938 21.402344 42.46875 21.589844 42.070312 C 21.886719 41.449219 22.292969 40.921875 22.796875 40.488281 C 23.300781 40.058594 23.882812 39.746094 24.542969 39.558594 C 25.203125 39.367188 25.933594 39.3125 26.734375 39.394531 C 27.515625 39.484375 28.351562 39.734375 29.226562 40.152344 C 30.097656 40.578125 30.824219 41.054688 31.40625 41.59375 C 31.972656 42.136719 32.390625 42.714844 32.664062 43.335938 C 32.933594 43.945312 33.058594 44.589844 33.039062 45.253906 C 33.011719 45.917969 32.839844 46.585938 32.515625 47.253906 C 32.335938 47.636719 32.136719 47.984375 31.929688 48.289062 C 31.71875 48.589844 31.515625 48.847656 31.328125 49.0625 C 31.144531 49.273438 30.972656 49.449219 30.820312 49.582031 C 30.664062 49.707031 30.558594 49.753906 30.476562 49.796875 L 29.773438 50.242188 C 29.457031 50.457031 29.246094 50.671875 29.160156 50.894531 C 29.058594 51.117188 29.097656 51.363281 29.273438 51.636719 C 29.3125 51.703125 29.363281 51.765625 29.421875 51.835938 C 29.484375 51.902344 29.539062 51.957031 29.589844 52.003906 L 38.347656 56.214844 L 44.589844 43.253906 C 44.636719 43.199219 44.6875 43.144531 44.757812 43.085938 C 44.824219 43.027344 44.886719 42.976562 44.949219 42.9375 C 45.21875 42.761719 45.472656 42.71875 45.691406 42.820312 C 45.917969 42.910156 46.136719 43.113281 46.339844 43.4375 L 46.796875 44.136719 C 46.835938 44.21875 46.882812 44.324219 47.011719 44.484375 C 47.136719 44.632812 47.3125 44.800781 47.527344 44.988281 C 47.738281 45.179688 47.996094 45.378906 48.308594 45.589844 C 48.609375 45.796875 48.957031 45.996094 49.335938 46.179688 C 50.003906 46.5 50.671875 46.675781 51.335938 46.691406 C 52.003906 46.71875 52.644531 46.59375 53.257812 46.324219 C 53.875 46.054688 54.449219 45.632812 54.996094 45.066406 C 55.539062 44.488281 56.011719 43.757812 56.433594 42.882812 C 56.851562 42.011719 57.105469 41.179688 57.191406 40.394531 C 57.273438 39.59375 57.21875 38.863281 57.03125 38.207031 C 56.839844 37.542969 56.53125 36.960938 56.097656 36.457031 C 55.664062 35.949219 55.136719 35.550781 54.511719 35.253906 C 54.121094 35.0625 53.757812 34.921875 53.414062 34.835938 C 53.0625 34.738281 52.757812 34.675781 52.488281 34.648438 C 52.210938 34.613281 51.984375 34.597656 51.796875 34.609375 C 51.613281 34.617188 51.449219 34.617188 51.378906 34.632812 L 50.542969 34.710938 C 50.164062 34.753906 49.863281 34.707031 49.660156 34.589844 C 49.441406 34.476562 49.320312 34.261719 49.285156 33.933594 C 49.273438 33.863281 49.273438 33.785156 49.28125 33.691406 C 49.285156 33.605469 49.292969 33.523438 49.308594 33.457031 L 53.550781 24.636719 L 44.796875 20.421875 C 44.742188 20.378906 44.6875 20.324219 44.632812 20.257812 C 44.570312 20.191406 44.515625 20.125 44.484375 20.0625 C 44.308594 19.792969 44.265625 19.539062 44.363281 19.320312 C 44.449219 19.09375 44.660156 18.878906 44.984375 18.671875 L 45.679688 18.214844 C 45.765625 18.179688 45.863281 18.132812 46.027344 18.003906 C 46.175781 17.875 46.347656 17.703125 46.539062 17.488281 C 46.726562 17.273438 46.921875 17.015625 47.132812 16.710938 C 47.335938 16.40625 47.539062 16.0625 47.726562 15.675781 C 48.042969 15.011719 48.214844 14.339844 48.242188 13.679688 C 48.261719 13.011719 48.136719 12.367188 47.867188 11.757812 C 47.59375 11.136719 47.175781 10.5625 46.609375 10.015625 C 46.027344 9.476562 45.300781 9 44.429688 8.582031 Z M 44.429688 8.582031 "/>
</g>
</svg>
