<svg xmlns="http://www.w3.org/2000/svg" xmlns:xlink="http://www.w3.org/1999/xlink" width="64px" height="64px" viewBox="0 0 64 64" version="1.1">
<defs>
<linearGradient id="linear0" gradientUnits="userSpaceOnUse" x1="0" y1="0" x2="0" y2="1" gradientTransform="matrix(55.351351,0,0,49.567568,4.324324,7.216215)">
<stop offset="0" style="stop-color:#00fff2;stop-opacity:1;"/>
<stop offset="0.5" style="stop-color:#dddddd;stop-opacity:1;"/>
<stop offset="1" style="stop-color:#0062ff;stop-opacity:1;"/>
</linearGradient>
</defs>
<g id="surface1">
<path style=" stroke:none;fill-rule:evenodd;fill:url(#linear0);" d="M 32.039062 32.488281 C 31.902344 32.355469 31.792969 32.261719 31.6875 32.164062 C 28.335938 28.945312 24.988281 25.71875 21.636719 22.511719 C 20.097656 21.039062 17.742188 21.089844 16.273438 22.613281 C 14.835938 24.113281 14.855469 26.488281 16.375 27.949219 C 20.71875 32.148438 25.082031 36.335938 29.445312 40.515625 C 30.902344 41.910156 33.136719 41.890625 34.617188 40.523438 C 35.210938 39.96875 35.785156 39.40625 36.367188 38.839844 C 40.105469 35.257812 43.835938 31.664062 47.570312 28.082031 C 48.46875 27.21875 48.941406 26.175781 48.824219 24.941406 C 48.671875 23.363281 47.839844 22.230469 46.351562 21.6875 C 44.863281 21.144531 43.511719 21.472656 42.363281 22.566406 C 40.488281 24.363281 38.617188 26.164062 36.746094 27.960938 C 35.1875 29.460938 33.632812 30.960938 32.039062 32.488281 Z M 32.027344 7.214844 C 39.554688 7.214844 47.078125 7.210938 54.597656 7.214844 C 56.929688 7.21875 58.9375 8.71875 59.515625 10.910156 C 59.609375 11.253906 59.664062 11.621094 59.664062 11.976562 C 59.664062 17.855469 59.699219 23.730469 59.644531 29.609375 C 59.589844 35.617188 57.773438 41.054688 54.078125 45.800781 C 49.960938 51.085938 44.660156 54.566406 38.121094 56.078125 C 23.105469 59.542969 8.761719 49.855469 5.21875 36.292969 C 4.746094 34.484375 4.429688 32.648438 4.414062 30.785156 C 4.363281 24.527344 4.320312 18.273438 4.324219 12.023438 C 4.324219 9.386719 6.671875 7.21875 9.414062 7.214844 C 16.957031 7.210938 24.488281 7.214844 32.027344 7.214844 Z M 32.027344 7.214844 "/>
</g>
</svg>
