<svg xmlns="http://www.w3.org/2000/svg" xmlns:xlink="http://www.w3.org/1999/xlink" width="64px" height="64px" viewBox="0 0 64 64" version="1.1">
<defs>
<linearGradient id="linear0" gradientUnits="userSpaceOnUse" x1="0" y1="0" x2="0" y2="1" gradientTransform="matrix(55.351351,0,0,55.351351,4.324324,4.324324)">
<stop offset="0" style="stop-color:#00a2ff;stop-opacity:1;"/>
<stop offset="0.5" style="stop-color:#dddddd;stop-opacity:1;"/>
<stop offset="1" style="stop-color:#00ffae;stop-opacity:1;"/>
</linearGradient>
</defs>
<g id="surface1">
<path style=" stroke:none;fill-rule:nonzero;fill:url(#linear0);" d="M 39.367188 13.367188 C 30.835938 19.511719 22.144531 26.945312 17.972656 31.121094 C 17.523438 31.566406 17.113281 32.039062 16.71875 32.511719 C 16.59375 32.664062 16.488281 32.824219 16.367188 32.984375 C 16.117188 33.3125 15.867188 33.644531 15.636719 33.984375 C 15.515625 34.164062 15.40625 34.351562 15.289062 34.539062 C 15.089844 34.867188 14.890625 35.1875 14.714844 35.515625 C 14.609375 35.710938 14.511719 35.910156 14.410156 36.109375 C 14.242188 36.4375 14.082031 36.769531 13.933594 37.105469 C 13.847656 37.292969 13.761719 37.484375 13.679688 37.675781 C 13.472656 38.191406 13.273438 38.714844 13.089844 39.242188 C 12.960938 39.625 12.847656 40 12.738281 40.375 C 12.699219 40.523438 12.652344 40.664062 12.617188 40.808594 C 12.5 41.238281 12.390625 41.671875 12.292969 42.105469 C 12.28125 42.175781 12.261719 42.253906 12.246094 42.324219 C 12.03125 43.3125 11.867188 44.300781 11.757812 45.300781 C 11.757812 45.320312 11.757812 45.335938 11.753906 45.347656 C 11.691406 45.863281 11.648438 46.367188 11.613281 46.882812 C 11.59375 47.199219 11.578125 47.503906 11.5625 47.789062 C 11.558594 47.914062 11.554688 48.023438 11.554688 48.132812 C 11.542969 48.378906 11.539062 48.609375 11.539062 48.828125 L 11.539062 49.1875 C 11.539062 49.367188 11.539062 49.53125 11.539062 49.691406 C 11.542969 49.820312 11.542969 49.941406 11.550781 50.058594 C 11.554688 50.164062 11.558594 50.253906 11.558594 50.347656 C 11.566406 50.488281 11.570312 50.617188 11.578125 50.726562 L 4.675781 57.625 C 4.207031 58.097656 4.207031 58.863281 4.675781 59.328125 C 4.914062 59.558594 5.21875 59.675781 5.527344 59.675781 C 5.847656 59.675781 6.152344 59.550781 6.375 59.324219 L 13.28125 52.421875 C 13.429688 52.433594 13.617188 52.441406 13.820312 52.445312 C 14.164062 52.460938 14.515625 52.460938 14.863281 52.460938 C 18.792969 52.460938 27.175781 51.734375 32.878906 46.027344 L 32.890625 46.011719 C 32.921875 45.976562 32.960938 45.949219 32.996094 45.917969 C 33.558594 45.347656 34.1875 44.691406 34.855469 43.976562 L 34.878906 43.949219 C 36.21875 42.511719 37.753906 40.800781 39.382812 38.894531 L 39.382812 38.890625 C 39.394531 38.878906 39.40625 38.863281 39.417969 38.851562 C 40.105469 38.058594 40.773438 37.257812 41.445312 36.449219 L 41.53125 36.351562 C 42.210938 35.53125 42.90625 34.691406 43.59375 33.828125 C 43.605469 33.824219 43.605469 33.820312 43.609375 33.8125 L 43.621094 33.796875 C 44.117188 33.179688 44.621094 32.550781 45.125 31.917969 C 45.160156 31.867188 45.191406 31.828125 45.230469 31.785156 L 45.234375 31.785156 C 46.015625 30.785156 46.800781 29.769531 47.582031 28.746094 L 47.582031 28.742188 C 47.734375 28.550781 47.882812 28.355469 48.027344 28.160156 C 48.335938 27.757812 48.636719 27.339844 48.945312 26.9375 C 48.945312 26.933594 48.945312 26.929688 48.949219 26.929688 C 49.082031 26.746094 49.210938 26.578125 49.339844 26.402344 C 49.773438 25.8125 50.207031 25.21875 50.632812 24.625 C 62.1875 8.570312 59.730469 6.117188 58.808594 5.1875 C 57.882812 4.269531 55.429688 1.8125 39.367188 13.367188 Z M 17.902344 44.402344 L 17.910156 44.386719 Z M 44.011719 13.054688 C 44.863281 12.476562 45.664062 11.949219 46.414062 11.46875 L 46.414062 15.882812 L 44.011719 18.289062 Z M 36.792969 18.269531 C 37.59375 17.664062 38.394531 17.058594 39.199219 16.46875 L 39.199219 23.097656 L 36.792969 25.503906 Z M 32.339844 29.960938 L 32.335938 29.960938 Z M 29.578125 24.003906 C 30.363281 23.355469 31.164062 22.703125 31.988281 22.039062 L 31.988281 30.3125 L 29.578125 32.71875 Z M 25.125 37.179688 L 25.121094 37.179688 Z M 22.363281 30.257812 C 23.105469 29.582031 23.910156 28.863281 24.769531 28.097656 L 24.769531 37.53125 L 22.363281 39.9375 Z M 31.175781 44.328125 C 30.367188 45.125 29.484375 45.835938 28.527344 46.445312 L 19.257812 46.445312 L 21.660156 44.039062 L 31.460938 44.039062 C 31.363281 44.136719 31.265625 44.238281 31.175781 44.324219 Z M 35.902344 39.230469 L 26.46875 39.230469 L 28.875 36.824219 L 37.976562 36.824219 C 37.265625 37.664062 36.570312 38.46875 35.902344 39.230469 Z M 41.960938 32.011719 L 33.6875 32.011719 L 36.089844 29.609375 L 43.867188 29.609375 C 43.234375 30.421875 42.59375 31.226562 41.960938 32.011719 Z M 47.539062 24.796875 L 40.902344 24.796875 L 43.308594 22.390625 L 49.273438 22.390625 C 49.078125 22.671875 47.917969 24.273438 47.539062 24.796875 Z M 47.539062 24.796875 "/>
</g>
</svg>
