<svg xmlns="http://www.w3.org/2000/svg" xmlns:xlink="http://www.w3.org/1999/xlink" width="64px" height="64px" viewBox="0 0 64 64" version="1.1">
<defs>
<linearGradient id="linear0" gradientUnits="userSpaceOnUse" x1="0" y1="0" x2="0" y2="1" gradientTransform="matrix(55.351351,0,0,55.351351,4.324324,4.324324)">
<stop offset="0" style="stop-color:#ffae00;stop-opacity:1;"/>
<stop offset="0.5" style="stop-color:#dddddd;stop-opacity:1;"/>
<stop offset="1" style="stop-color:#bf1d1d;stop-opacity:1;"/>
</linearGradient>
</defs>
<g id="surface1">
<path style=" stroke:none;fill-rule:nonzero;fill:url(#linear0);" d="M 32 4.324219 C 16.738281 4.324219 4.324219 16.738281 4.324219 32 C 4.324219 47.261719 16.738281 59.675781 32 59.675781 C 47.261719 59.675781 59.675781 47.261719 59.675781 32 C 59.675781 16.738281 47.261719 4.324219 32 4.324219 Z M 32 7.785156 C 45.394531 7.785156 56.214844 18.605469 56.214844 32 C 56.214844 45.394531 45.394531 56.214844 32 56.214844 C 18.605469 56.214844 7.785156 45.394531 7.785156 32 C 7.785156 18.605469 18.605469 7.785156 32 7.785156 Z M 38.988281 19.878906 C 15.878906 46.410156 27.4375 33.144531 38.988281 19.878906 Z M 22.878906 21.148438 C 20.011719 21.148438 17.6875 23.472656 17.6875 26.335938 C 17.6875 29.203125 20.011719 31.527344 22.878906 31.527344 C 25.742188 31.527344 28.066406 29.203125 28.066406 26.335938 C 28.066406 23.472656 25.742188 21.148438 22.878906 21.148438 Z M 43.636719 21.148438 C 40.769531 21.148438 38.445312 23.472656 38.445312 26.335938 C 38.445312 29.203125 40.769531 31.527344 43.636719 31.527344 C 46.5 31.527344 48.824219 29.203125 48.824219 26.335938 C 48.824219 23.472656 46.5 21.148438 43.636719 21.148438 Z M 28.273438 38.457031 L 32.027344 47.769531 L 36.664062 38.679688 Z M 28.273438 38.457031 "/>
</g>
</svg>
