<svg xmlns="http://www.w3.org/2000/svg" xmlns:xlink="http://www.w3.org/1999/xlink" width="64px" height="64px" viewBox="0 0 64 64" version="1.1">
<defs>
<linearGradient id="linear0" gradientUnits="userSpaceOnUse" x1="0" y1="0" x2="0" y2="1" gradientTransform="matrix(51.891892,0,0,45.414416,6.054054,9.072073)">
<stop offset="0" style="stop-color:#05f7ff;stop-opacity:1;"/>
<stop offset="0.5" style="stop-color:#dddddd;stop-opacity:1;"/>
<stop offset="1" style="stop-color:#e6ff05;stop-opacity:1;"/>
</linearGradient>
</defs>
<g id="surface1">
<path style=" stroke:none;fill-rule:nonzero;fill:url(#linear0);" d="M 38.488281 9.070312 C 31.46875 9.078125 25.152344 13.320312 22.488281 19.8125 C 20.921875 18.460938 18.929688 17.726562 16.863281 17.71875 C 12.089844 17.71875 8.214844 21.59375 8.214844 26.367188 C 8.21875 28.269531 8.847656 30.117188 10.003906 31.625 C 7.570312 32.949219 6.058594 35.496094 6.054688 38.261719 C 6.054688 42.441406 9.441406 45.828125 13.621094 45.828125 C 13.984375 45.828125 14.347656 45.808594 14.703125 45.753906 L 14.703125 48 C 14.703125 51.59375 17.59375 54.488281 21.1875 54.488281 L 42.8125 54.488281 C 46.40625 54.488281 49.296875 51.59375 49.296875 48 L 49.296875 47.910156 C 49.652344 47.960938 50.015625 47.996094 50.378906 48 C 54.558594 48 57.945312 44.613281 57.945312 40.433594 C 57.945312 37.691406 56.460938 35.171875 54.070312 33.835938 C 55.191406 31.511719 55.773438 28.960938 55.785156 26.378906 C 55.785156 16.824219 48.039062 9.082031 38.488281 9.082031 Z M 20.109375 28.53125 C 22.496094 28.53125 24.433594 30.46875 24.433594 32.855469 C 24.433594 35.246094 22.496094 37.179688 20.109375 37.179688 C 17.71875 37.179688 15.785156 35.246094 15.785156 32.855469 C 15.785156 30.46875 17.71875 28.53125 20.109375 28.53125 Z M 43.890625 28.53125 C 46.28125 28.53125 48.214844 30.46875 48.214844 32.855469 C 48.214844 35.246094 46.28125 37.179688 43.890625 37.179688 C 41.503906 37.179688 39.566406 35.246094 39.566406 32.855469 C 39.566406 30.46875 41.503906 28.53125 43.890625 28.53125 Z M 25.511719 37.179688 L 38.488281 37.179688 C 38.488281 40.765625 35.582031 43.664062 32 43.664062 C 28.417969 43.664062 25.511719 40.765625 25.511719 37.179688 Z M 25.511719 37.179688 "/>
</g>
</svg>
