<svg xmlns="http://www.w3.org/2000/svg" xmlns:xlink="http://www.w3.org/1999/xlink" width="64px" height="64px" viewBox="0 0 64 64" version="1.1">
<defs>
<linearGradient id="linear0" gradientUnits="userSpaceOnUse" x1="0" y1="0" x2="0" y2="1" gradientTransform="matrix(55.351351,0,0,55.351351,4.324324,4.324324)">
<stop offset="0" style="stop-color:#00fff2;stop-opacity:1;"/>
<stop offset="0.5" style="stop-color:#dddddd;stop-opacity:1;"/>
<stop offset="1" style="stop-color:#0062ff;stop-opacity:1;"/>
</linearGradient>
</defs>
<g id="surface1">
<path style=" stroke:none;fill-rule:nonzero;fill:url(#linear0);" d="M 32 4.324219 C 24.613281 4.324219 17.660156 7.207031 12.429688 12.429688 C 7.207031 17.660156 4.324219 24.613281 4.324219 32 C 4.324219 39.386719 7.207031 46.339844 12.429688 51.570312 C 17.660156 56.792969 24.613281 59.675781 32 59.675781 C 39.386719 59.675781 46.339844 56.792969 51.570312 51.570312 C 56.792969 46.339844 59.675781 39.386719 59.675781 32 C 59.675781 24.613281 56.792969 17.660156 51.570312 12.429688 C 46.339844 7.191406 39.40625 4.324219 32 4.324219 Z M 51.503906 17.003906 L 30.144531 17.003906 L 38.800781 8.339844 C 43.910156 9.820312 48.339844 12.90625 51.503906 17.003906 Z M 20.089844 10.472656 C 23.730469 8.445312 27.835938 7.382812 32 7.386719 C 33.089844 7.386719 34.152344 7.460938 35.199219 7.589844 L 25.339844 17.457031 L 20.089844 22.703125 Z M 17.015625 12.496094 L 17.015625 33.839844 L 8.355469 25.199219 C 9.835938 20.089844 12.917969 15.660156 17.015625 12.496094 Z M 10.488281 43.910156 C 8.460938 40.269531 7.394531 36.164062 7.394531 32 C 7.394531 30.910156 7.476562 29.847656 7.605469 28.800781 L 22.714844 43.910156 Z M 12.511719 46.984375 L 33.855469 46.984375 L 25.199219 55.644531 C 20.160156 54.175781 15.710938 51.136719 12.511719 46.984375 Z M 43.921875 53.503906 C 40.285156 55.527344 36.1875 56.589844 32.011719 56.589844 C 30.921875 56.589844 29.863281 56.511719 28.8125 56.386719 L 38.671875 46.523438 L 43.921875 41.269531 Z M 43.921875 36.929688 L 43.679688 37.175781 L 36.941406 43.910156 L 27.070312 43.910156 L 26.824219 43.664062 L 20.105469 36.941406 L 20.105469 27.070312 L 27.082031 20.089844 L 36.960938 20.105469 L 43.9375 27.070312 L 43.9375 36.929688 Z M 46.996094 51.488281 L 46.996094 30.117188 L 55.660156 38.773438 C 54.1875 43.824219 51.152344 48.273438 46.996094 51.488281 Z M 56.605469 31.988281 C 56.605469 33.0625 56.523438 34.125 56.394531 35.175781 L 41.285156 20.078125 L 53.527344 20.078125 C 55.488281 23.613281 56.605469 27.671875 56.605469 31.988281 Z M 56.605469 31.988281 "/>
</g>
</svg>
