<svg xmlns="http://www.w3.org/2000/svg" xmlns:xlink="http://www.w3.org/1999/xlink" width="64px" height="64px" viewBox="0 0 64 64" version="1.1">
<defs>
<linearGradient id="linear0" gradientUnits="userSpaceOnUse" x1="0" y1="0" x2="0" y2="1" gradientTransform="matrix(55.351351,0,0,31.630632,4.324324,16.184685)">
<stop offset="0" style="stop-color:#ffae00;stop-opacity:1;"/>
<stop offset="0.5" style="stop-color:#dddddd;stop-opacity:1;"/>
<stop offset="1" style="stop-color:#6600ff;stop-opacity:1;"/>
</linearGradient>
</defs>
<g id="surface1">
<path style=" stroke:none;fill-rule:evenodd;fill:url(#linear0);" d="M 9.265625 40.894531 L 9.265625 45.539062 C 9.265625 46.796875 10.285156 47.8125 11.539062 47.8125 L 52.460938 47.8125 C 53.714844 47.8125 54.734375 46.796875 54.734375 45.539062 L 54.734375 18.460938 C 54.734375 17.203125 53.714844 16.1875 52.460938 16.1875 L 11.539062 16.1875 C 10.285156 16.1875 9.265625 17.203125 9.265625 18.460938 L 9.265625 23.105469 L 6.179688 23.105469 C 5.152344 23.105469 4.324219 23.957031 4.324219 25.011719 L 4.324219 38.988281 C 4.324219 40.042969 5.152344 40.894531 6.179688 40.894531 Z M 57.820312 40.894531 C 58.847656 40.894531 59.675781 40.042969 59.675781 38.988281 L 59.675781 25.011719 C 59.675781 23.957031 58.847656 23.105469 57.820312 23.105469 L 54.734375 23.105469 L 54.734375 40.894531 Z M 32 24.089844 C 28.78125 24.09375 25.882812 26.050781 24.675781 29.039062 L 20.292969 29.039062 L 20.171875 28.835938 L 18.917969 26.757812 C 18.648438 26.3125 18.136719 26.042969 17.589844 26.070312 C 17.105469 26.097656 16.664062 26.355469 16.414062 26.757812 L 15.164062 28.835938 L 15.039062 29.039062 L 11.242188 29.039062 L 11.242188 28.042969 C 11.242188 26.949219 10.363281 26.070312 9.265625 26.070312 L 8.28125 26.070312 C 7.179688 26.070312 6.300781 26.949219 6.300781 28.042969 L 6.300781 35.957031 C 6.300781 37.050781 7.179688 37.929688 8.28125 37.929688 L 9.265625 37.929688 C 10.363281 37.929688 11.242188 37.050781 11.242188 35.957031 L 11.242188 34.960938 L 15.039062 34.960938 L 15.164062 35.164062 L 16.414062 37.238281 C 16.664062 37.644531 17.105469 37.902344 17.589844 37.929688 C 18.136719 37.957031 18.648438 37.6875 18.917969 37.238281 L 20.171875 35.164062 L 20.292969 34.960938 L 24.671875 34.960938 C 25.878906 37.949219 28.78125 39.90625 32 39.910156 C 35.21875 39.90625 38.117188 37.949219 39.324219 34.960938 L 43.707031 34.960938 L 43.828125 35.164062 L 45.082031 37.238281 C 45.324219 37.644531 45.765625 37.902344 46.257812 37.929688 C 46.800781 37.957031 47.3125 37.6875 47.585938 37.238281 L 48.835938 35.164062 L 48.960938 34.960938 L 52.757812 34.960938 L 52.757812 35.957031 C 52.757812 37.050781 53.636719 37.929688 54.734375 37.929688 L 55.71875 37.929688 C 56.820312 37.929688 57.699219 37.050781 57.699219 35.957031 L 57.699219 28.042969 C 57.699219 26.949219 56.820312 26.070312 55.71875 26.070312 L 54.734375 26.070312 C 53.636719 26.070312 52.757812 26.949219 52.757812 28.042969 L 52.757812 29.039062 L 48.960938 29.039062 L 48.835938 28.835938 L 47.585938 26.757812 C 47.3125 26.3125 46.800781 26.042969 46.257812 26.070312 C 45.765625 26.097656 45.324219 26.355469 45.082031 26.757812 L 43.828125 28.835938 L 43.707031 29.039062 L 39.328125 29.039062 C 38.121094 26.050781 35.21875 24.09375 32 24.089844 Z M 32 24.089844 "/>
</g>
</svg>
