<svg xmlns="http://www.w3.org/2000/svg" xmlns:xlink="http://www.w3.org/1999/xlink" width="64px" height="64px" viewBox="0 0 64 64" version="1.1">
<defs>
<linearGradient id="linear0" gradientUnits="userSpaceOnUse" x1="0" y1="0" x2="0" y2="1" gradientTransform="matrix(55.351351,0,0,27.675676,4.324324,18.162162)">
<stop offset="0" style="stop-color:#00b7ff;stop-opacity:1;"/>
<stop offset="0.5" style="stop-color:#dddddd;stop-opacity:1;"/>
<stop offset="1" style="stop-color:#ee42d9;stop-opacity:1;"/>
</linearGradient>
</defs>
<g id="surface1">
<path style=" stroke:none;fill-rule:evenodd;fill:url(#linear0);" d="M 20.136719 22.117188 L 44.847656 22.117188 L 44.847656 41.882812 L 20.136719 41.882812 Z M 11.042969 26.070312 C 10.386719 26.070312 9.863281 26.597656 9.863281 27.257812 L 9.863281 29.625 L 7.488281 29.625 C 6.828125 29.625 6.300781 30.160156 6.300781 30.8125 L 6.300781 33.1875 C 6.300781 33.839844 6.828125 34.375 7.488281 34.375 L 9.863281 34.375 L 9.863281 36.742188 C 9.863281 37.402344 10.386719 37.929688 11.042969 37.929688 L 13.417969 37.929688 C 14.078125 37.929688 14.605469 37.402344 14.605469 36.742188 L 14.605469 34.375 L 16.976562 34.375 C 17.632812 34.375 18.164062 33.839844 18.164062 33.1875 L 18.164062 30.8125 C 18.164062 30.160156 17.632812 29.625 16.976562 29.625 L 14.605469 29.625 L 14.605469 27.257812 C 14.605469 26.597656 14.078125 26.070312 13.417969 26.070312 Z M 51.765625 26.070312 C 52.863281 26.070312 53.746094 26.957031 53.746094 28.042969 C 53.746094 29.136719 52.863281 30.023438 51.765625 30.023438 C 50.675781 30.023438 49.792969 29.136719 49.792969 28.042969 C 49.792969 26.957031 50.675781 26.070312 51.765625 26.070312 Z M 51.765625 33.976562 C 52.863281 33.976562 53.746094 34.863281 53.746094 35.957031 C 53.746094 37.042969 52.863281 37.929688 51.765625 37.929688 C 50.675781 37.929688 49.792969 37.042969 49.792969 35.957031 C 49.792969 34.863281 50.675781 33.976562 51.765625 33.976562 Z M 57.699219 32 C 57.699219 33.089844 56.8125 33.976562 55.71875 33.976562 C 54.632812 33.976562 53.746094 33.089844 53.746094 32 C 53.746094 30.910156 54.632812 30.023438 55.71875 30.023438 C 56.8125 30.023438 57.699219 30.910156 57.699219 32 Z M 12.625 18.164062 L 51.375 18.164062 C 55.957031 18.164062 59.675781 21.882812 59.675781 26.460938 L 59.675781 37.539062 C 59.675781 42.117188 55.957031 45.835938 51.375 45.835938 L 12.625 45.835938 C 8.042969 45.835938 4.324219 42.117188 4.324219 37.539062 L 4.324219 26.460938 C 4.324219 21.882812 8.042969 18.164062 12.625 18.164062 Z M 49.792969 32 C 49.792969 33.089844 48.90625 33.976562 47.8125 33.976562 C 46.726562 33.976562 45.835938 33.089844 45.835938 32 C 45.835938 30.910156 46.726562 30.023438 47.8125 30.023438 C 48.90625 30.023438 49.792969 30.910156 49.792969 32 Z M 49.792969 32 "/>
</g>
</svg>
