<svg xmlns="http://www.w3.org/2000/svg" xmlns:xlink="http://www.w3.org/1999/xlink" width="64px" height="64px" viewBox="0 0 64 64" version="1.1">
<g id="surface1">
<path style=" stroke:none;fill-rule:nonzero;fill:rgb(20.392157%,21.568628%,22.352941%);fill-opacity:1;" d="M 11.117188 9.511719 L 52.882812 9.511719 C 53.765625 9.511719 54.488281 10.234375 54.488281 11.117188 L 54.488281 52.882812 C 54.488281 53.765625 53.765625 54.488281 52.882812 54.488281 L 11.117188 54.488281 C 10.234375 54.488281 9.511719 53.765625 9.511719 52.882812 L 9.511719 11.117188 C 9.511719 10.234375 10.234375 9.511719 11.117188 9.511719 Z M 11.117188 9.511719 "/>
<path style=" stroke:none;fill-rule:nonzero;fill:rgb(21.960784%,66.666669%,92.156863%);fill-opacity:1;" d="M 12.972656 33.730469 L 30.269531 33.730469 L 30.269531 51.027344 L 12.972656 51.027344 Z M 33.730469 33.730469 L 51.027344 33.730469 L 51.027344 51.027344 L 33.730469 51.027344 Z M 33.730469 12.972656 L 51.027344 12.972656 L 51.027344 30.269531 L 33.730469 30.269531 Z M 12.972656 12.972656 L 30.269531 12.972656 L 30.269531 30.269531 L 12.972656 30.269531 Z M 12.972656 12.972656 "/>
<path style=" stroke:none;fill-rule:nonzero;fill:rgb(100%,100%,100%);fill-opacity:1;" d="M 42.378906 16.433594 L 42.378906 18.164062 L 21.621094 18.164062 C 20.566406 18.160156 19.566406 18.640625 18.914062 19.46875 C 18.425781 20.082031 18.164062 20.839844 18.164062 21.621094 L 18.164062 30.269531 C 18.164062 30.464844 18.179688 30.664062 18.210938 30.859375 C 18.273438 31.199219 18.382812 31.53125 18.539062 31.835938 C 19.128906 33 20.320312 33.730469 21.621094 33.730469 L 40.648438 33.730469 C 40.945312 33.730469 41.238281 33.808594 41.496094 33.957031 C 41.617188 34.023438 41.730469 34.105469 41.832031 34.199219 C 42.179688 34.527344 42.378906 34.984375 42.378906 35.460938 L 42.378906 40.648438 C 42.378906 41.605469 41.605469 42.378906 40.648438 42.378906 L 21.621094 42.378906 L 21.621094 40.648438 L 16.433594 44.109375 L 21.621094 47.566406 L 21.621094 45.835938 L 42.378906 45.835938 C 43.3125 45.839844 44.210938 45.460938 44.863281 44.789062 C 45.265625 44.371094 45.558594 43.863281 45.710938 43.304688 C 45.796875 43.003906 45.835938 42.691406 45.835938 42.378906 L 45.835938 33.730469 C 45.835938 33.535156 45.820312 33.335938 45.789062 33.140625 C 45.726562 32.800781 45.617188 32.46875 45.460938 32.164062 C 44.871094 31 43.679688 30.269531 42.378906 30.269531 L 23.351562 30.269531 C 23.054688 30.269531 22.761719 30.191406 22.503906 30.042969 C 22.382812 29.976562 22.269531 29.894531 22.167969 29.800781 C 21.820312 29.472656 21.621094 29.015625 21.621094 28.539062 L 21.621094 23.351562 C 21.621094 22.394531 22.394531 21.621094 23.351562 21.621094 L 42.378906 21.621094 L 42.378906 23.351562 L 47.566406 19.890625 Z M 42.378906 16.433594 "/>
</g>
</svg>
