<svg xmlns="http://www.w3.org/2000/svg" xmlns:xlink="http://www.w3.org/1999/xlink" width="64px" height="64px" viewBox="0 0 64 64" version="1.1">
<defs>
<linearGradient id="linear0" gradientUnits="userSpaceOnUse" x1="0" y1="0" x2="0" y2="1" gradientTransform="matrix(41.513514,0,0,38.054054,4.324324,7.783784)">
<stop offset="0" style="stop-color:#ff8963;stop-opacity:1;"/>
<stop offset="0.5" style="stop-color:#dddddd;stop-opacity:1;"/>
<stop offset="1" style="stop-color:#0F6FFF;stop-opacity:1;"/>
</linearGradient>
<linearGradient id="linear1" gradientUnits="userSpaceOnUse" x1="0" y1="0" x2="0" y2="1" gradientTransform="matrix(34.594595,0,0,34.594595,25.081081,21.621622)">
<stop offset="0" style="stop-color:#ff8963;stop-opacity:1;"/>
<stop offset="0.5" style="stop-color:#dddddd;stop-opacity:1;"/>
<stop offset="1" style="stop-color:#0F6FFF;stop-opacity:1;"/>
</linearGradient>
</defs>
<g id="surface1">
<path style=" stroke:none;fill-rule:nonzero;fill:url(#linear0);" d="M 18.136719 7.785156 C 13.789062 7.835938 10.605469 7.679688 8 9.117188 C 6.652344 9.882812 5.625 11.109375 5.105469 12.566406 C 4.53125 14.085938 4.324219 15.886719 4.324219 18.164062 L 4.324219 28.539062 C 4.324219 30.8125 4.53125 32.617188 5.105469 34.136719 C 5.671875 35.652344 6.699219 36.867188 8 37.585938 C 10.605469 39.027344 13.789062 38.863281 18.136719 38.917969 L 21.476562 38.917969 C 21.136719 41.511719 20.042969 42.191406 18.164062 42.3125 L 18.164062 45.835938 L 21.621094 45.835938 L 21.621094 35.460938 L 18.164062 35.460938 C 13.808594 35.40625 10.933594 35.253906 9.671875 34.554688 C 9.039062 34.207031 8.675781 33.820312 8.335938 32.917969 C 8 32.023438 7.785156 30.589844 7.785156 28.539062 L 7.785156 18.164062 C 7.785156 16.113281 8 14.679688 8.335938 13.785156 C 8.675781 12.882812 9.039062 12.5 9.671875 12.148438 C 10.9375 11.449219 13.808594 11.296875 18.164062 11.242188 L 32 11.242188 C 36.355469 11.296875 39.21875 11.449219 40.488281 12.148438 C 41.121094 12.496094 41.488281 12.882812 41.824219 13.785156 C 42.164062 14.679688 42.378906 16.113281 42.378906 18.164062 L 45.835938 18.164062 C 45.835938 15.886719 45.632812 14.085938 45.058594 12.566406 C 44.539062 11.109375 43.511719 9.882812 42.164062 9.117188 C 39.558594 7.675781 36.375 7.835938 32.023438 7.785156 Z M 18.136719 7.785156 "/>
<path style=" stroke:none;fill-rule:nonzero;fill:url(#linear1);" d="M 32 21.621094 L 32 28.636719 C 30.664062 28.726562 29.496094 28.921875 28.417969 29.378906 C 27.289062 29.847656 26.363281 30.707031 25.808594 31.796875 C 25.257812 32.90625 25.082031 34.175781 25.082031 35.675781 L 25.082031 42.164062 C 25.082031 43.664062 25.257812 44.929688 25.808594 46.039062 C 26.351562 47.152344 27.324219 48 28.417969 48.460938 C 28.457031 48.476562 28.503906 48.476562 28.539062 48.496094 L 28.539062 35.675781 C 28.539062 34.472656 28.710938 33.71875 28.90625 33.320312 C 29.097656 32.929688 29.265625 32.765625 29.757812 32.558594 C 30.742188 32.144531 33.148438 32.03125 36.714844 32 L 48.039062 32 C 51.605469 32.03125 54.011719 32.144531 55 32.558594 C 55.496094 32.765625 55.660156 32.929688 55.851562 33.320312 C 56.042969 33.71875 56.214844 34.472656 56.214844 35.675781 L 56.214844 48.496094 C 56.253906 48.476562 56.296875 48.476562 56.335938 48.460938 C 57.429688 48 58.40625 47.152344 58.949219 46.039062 C 59.5 44.933594 59.675781 43.664062 59.675781 42.164062 L 59.675781 35.675781 C 59.675781 34.175781 59.5 32.910156 58.949219 31.796875 C 58.394531 30.703125 57.46875 29.847656 56.335938 29.378906 C 55.261719 28.921875 54.089844 28.726562 52.757812 28.636719 L 52.757812 21.621094 Z M 35.460938 25.082031 L 49.296875 25.082031 L 49.296875 28.5625 C 48.855469 28.5625 48.53125 28.542969 48.054688 28.539062 L 36.703125 28.539062 C 36.230469 28.539062 35.902344 28.558594 35.460938 28.5625 Z M 51.027344 35.460938 C 50.070312 35.460938 49.296875 36.234375 49.296875 37.1875 C 49.296875 38.144531 50.070312 38.917969 51.027344 38.917969 C 51.984375 38.917969 52.757812 38.144531 52.757812 37.1875 C 52.757812 36.234375 51.984375 35.460938 51.027344 35.460938 Z M 32 42.378906 L 32 56.214844 L 52.757812 56.214844 L 52.757812 42.378906 L 49.296875 42.378906 L 49.296875 52.757812 L 35.460938 52.757812 L 35.460938 42.378906 Z M 32 42.378906 "/>
</g>
</svg>
