<svg xmlns="http://www.w3.org/2000/svg" xmlns:xlink="http://www.w3.org/1999/xlink" width="64px" height="64px" viewBox="0 0 64 64" version="1.1">
<g id="surface1">
<path style=" stroke:none;fill-rule:nonzero;fill:rgb(79.215688%,79.607844%,81.176472%);fill-opacity:1;" d="M 51.027344 50.164062 C 51.027344 52.75 49.191406 54.488281 46.703125 54.488281 L 17.296875 54.488281 C 14.808594 54.488281 12.972656 52.75 12.972656 50.164062 L 12.972656 13.835938 C 12.972656 11.25 14.808594 9.511719 17.296875 9.511719 L 46.703125 9.511719 C 49.191406 9.511719 51.027344 11.25 51.027344 13.835938 Z M 51.027344 50.164062 "/>
<path style=" stroke:none;fill-rule:nonzero;fill:rgb(52.156866%,52.156866%,54.11765%);fill-opacity:1;" d="M 48.433594 13.835938 C 48.433594 14.792969 47.660156 15.566406 46.703125 15.566406 C 45.746094 15.566406 44.972656 14.792969 44.972656 13.835938 C 44.972656 12.882812 45.746094 12.109375 46.703125 12.109375 C 47.660156 12.109375 48.433594 12.882812 48.433594 13.835938 Z M 48.433594 13.835938 "/>
<path style=" stroke:none;fill-rule:nonzero;fill:rgb(100%,100%,100%);fill-opacity:1;" d="M 47.566406 13.835938 C 47.566406 13.363281 47.179688 12.972656 46.703125 12.972656 C 46.226562 12.972656 45.835938 13.363281 45.835938 13.835938 C 45.835938 14.3125 46.226562 14.703125 46.703125 14.703125 C 47.179688 14.703125 47.566406 14.3125 47.566406 13.835938 Z M 47.566406 13.835938 "/>
<path style=" stroke:none;fill-rule:nonzero;fill:rgb(52.156866%,52.156866%,54.11765%);fill-opacity:1;" d="M 19.027344 13.835938 C 19.027344 14.792969 18.253906 15.566406 17.296875 15.566406 C 16.339844 15.566406 15.566406 14.792969 15.566406 13.835938 C 15.566406 12.882812 16.339844 12.109375 17.296875 12.109375 C 18.253906 12.109375 19.027344 12.882812 19.027344 13.835938 Z M 19.027344 13.835938 "/>
<path style=" stroke:none;fill-rule:nonzero;fill:rgb(100%,100%,100%);fill-opacity:1;" d="M 18.164062 13.835938 C 18.164062 13.363281 17.773438 12.972656 17.296875 12.972656 C 16.820312 12.972656 16.433594 13.363281 16.433594 13.835938 C 16.433594 14.3125 16.820312 14.703125 17.296875 14.703125 C 17.773438 14.703125 18.164062 14.3125 18.164062 13.835938 Z M 18.164062 13.835938 "/>
<path style=" stroke:none;fill-rule:nonzero;fill:rgb(58.039218%,58.039218%,58.823532%);fill-opacity:1;" d="M 16.433594 38.054688 L 12.972656 38.054688 L 12.972656 50.164062 C 12.972656 52.644531 14.847656 54.488281 17.296875 54.488281 L 32.863281 54.488281 L 32.863281 46.703125 C 26.160156 46.269531 20.230469 43.027344 16.433594 38.054688 Z M 16.433594 38.054688 "/>
<path style=" stroke:none;fill-rule:evenodd;fill:rgb(100%,100%,100%);fill-opacity:1;" d="M 45.835938 27.78125 C 45.835938 35.316406 39.640625 41.511719 32 41.511719 C 24.359375 41.511719 18.164062 35.316406 18.164062 27.78125 C 18.164062 20.035156 24.359375 13.835938 32 13.835938 C 39.640625 13.835938 45.835938 20.035156 45.835938 27.78125 "/>
<path style=" stroke:none;fill-rule:nonzero;fill:rgb(50.196081%,50.196081%,50.196081%);fill-opacity:1;" d="M 32 12.972656 C 23.882812 12.972656 17.296875 19.554688 17.296875 27.675781 C 17.296875 35.792969 23.882812 42.378906 32 42.378906 C 40.117188 42.378906 46.703125 35.792969 46.703125 27.675781 C 46.703125 19.554688 40.117188 12.972656 32 12.972656 Z M 41.011719 36.6875 C 39.847656 37.847656 38.472656 38.777344 36.960938 39.417969 C 35.386719 40.082031 33.703125 40.421875 32 40.414062 C 30.28125 40.414062 28.609375 40.082031 27.039062 39.417969 C 25.527344 38.777344 24.152344 37.847656 22.988281 36.6875 C 20.59375 34.300781 19.25 31.058594 19.257812 27.675781 C 19.253906 24.292969 20.59375 21.054688 22.988281 18.664062 C 24.148438 17.5 25.527344 16.574219 27.039062 15.933594 C 28.613281 15.269531 30.296875 14.929688 32 14.9375 C 33.71875 14.9375 35.390625 15.269531 36.960938 15.9375 C 38.472656 16.574219 39.847656 17.503906 41.011719 18.664062 C 43.40625 21.054688 44.746094 24.292969 44.742188 27.675781 C 44.75 31.058594 43.40625 34.300781 41.011719 36.6875 Z M 41.011719 36.6875 "/>
<path style=" stroke:none;fill-rule:evenodd;fill:rgb(58.039218%,58.039218%,58.823532%);fill-opacity:1;" d="M 42.59375 46.917969 C 42.355469 46.917969 42.164062 47.113281 42.164062 47.351562 L 42.164062 52.539062 C 42.164062 52.78125 42.355469 52.972656 42.59375 52.972656 C 42.835938 52.972656 43.027344 52.78125 43.027344 52.539062 L 43.027344 47.351562 C 43.027344 47.113281 42.835938 46.917969 42.59375 46.917969 Z M 42.59375 46.917969 "/>
<path style=" stroke:none;fill-rule:evenodd;fill:rgb(58.039218%,58.039218%,58.823532%);fill-opacity:1;" d="M 40.863281 46.917969 C 40.625 46.917969 40.433594 47.113281 40.433594 47.351562 L 40.433594 52.539062 C 40.433594 52.78125 40.625 52.972656 40.863281 52.972656 C 41.105469 52.972656 41.296875 52.78125 41.296875 52.539062 L 41.296875 47.351562 C 41.296875 47.113281 41.105469 46.917969 40.863281 46.917969 Z M 40.863281 46.917969 "/>
<path style=" stroke:none;fill-rule:evenodd;fill:rgb(58.039218%,58.039218%,58.823532%);fill-opacity:1;" d="M 39.136719 46.917969 C 38.894531 46.917969 38.703125 47.113281 38.703125 47.351562 L 38.703125 52.539062 C 38.703125 52.78125 38.894531 52.972656 39.136719 52.972656 C 39.375 52.972656 39.566406 52.78125 39.566406 52.539062 L 39.566406 47.351562 C 39.566406 47.113281 39.375 46.917969 39.136719 46.917969 Z M 39.136719 46.917969 "/>
<path style=" stroke:none;fill-rule:evenodd;fill:rgb(58.039218%,58.039218%,58.823532%);fill-opacity:1;" d="M 37.40625 46.917969 C 37.164062 46.917969 36.972656 47.113281 36.972656 47.351562 L 36.972656 52.539062 C 36.972656 52.78125 37.164062 52.972656 37.40625 52.972656 C 37.644531 52.972656 37.835938 52.78125 37.835938 52.539062 L 37.835938 47.351562 C 37.835938 47.113281 37.644531 46.917969 37.40625 46.917969 Z M 37.40625 46.917969 "/>
<path style=" stroke:none;fill-rule:evenodd;fill:rgb(58.039218%,58.039218%,58.823532%);fill-opacity:1;" d="M 35.675781 46.917969 C 35.4375 46.917969 35.242188 47.113281 35.242188 47.351562 L 35.242188 52.539062 C 35.242188 52.78125 35.4375 52.972656 35.675781 52.972656 C 35.914062 52.972656 36.109375 52.78125 36.109375 52.539062 L 36.109375 47.351562 C 36.109375 47.113281 35.914062 46.917969 35.675781 46.917969 Z M 35.675781 46.917969 "/>
<path style=" stroke:none;fill-rule:nonzero;fill:rgb(52.156866%,52.156866%,54.11765%);fill-opacity:1;" d="M 48.433594 50.164062 C 48.433594 51.117188 47.660156 51.890625 46.703125 51.890625 C 45.746094 51.890625 44.972656 51.117188 44.972656 50.164062 C 44.972656 49.207031 45.746094 48.433594 46.703125 48.433594 C 47.660156 48.433594 48.433594 49.207031 48.433594 50.164062 Z M 48.433594 50.164062 "/>
<path style=" stroke:none;fill-rule:nonzero;fill:rgb(100%,100%,100%);fill-opacity:1;" d="M 47.566406 50.164062 C 47.566406 49.6875 47.179688 49.296875 46.703125 49.296875 C 46.226562 49.296875 45.835938 49.6875 45.835938 50.164062 C 45.835938 50.636719 46.226562 51.027344 46.703125 51.027344 C 47.179688 51.027344 47.566406 50.636719 47.566406 50.164062 Z M 47.566406 50.164062 "/>
<path style=" stroke:none;fill-rule:nonzero;fill:rgb(41.568628%,41.568628%,41.568628%);fill-opacity:1;" d="M 19.027344 50.164062 C 19.027344 51.117188 18.253906 51.890625 17.296875 51.890625 C 16.339844 51.890625 15.566406 51.117188 15.566406 50.164062 C 15.566406 49.207031 16.339844 48.433594 17.296875 48.433594 C 18.253906 48.433594 19.027344 49.207031 19.027344 50.164062 Z M 19.027344 50.164062 "/>
<path style=" stroke:none;fill-rule:nonzero;fill:rgb(100%,100%,100%);fill-opacity:1;" d="M 18.164062 50.164062 C 18.164062 49.6875 17.773438 49.296875 17.296875 49.296875 C 16.820312 49.296875 16.433594 49.6875 16.433594 50.164062 C 16.433594 50.636719 16.820312 51.027344 17.296875 51.027344 C 17.773438 51.027344 18.164062 50.636719 18.164062 50.164062 Z M 18.164062 50.164062 "/>
<path style=" stroke:none;fill-rule:nonzero;fill:rgb(50.196081%,50.196081%,50.196081%);fill-opacity:1;" d="M 32.007812 13.828125 C 31.457031 13.828125 30.921875 13.875 30.386719 13.9375 C 29.859375 14 29.335938 14.085938 28.816406 14.210938 C 28.65625 14.246094 28.5 14.324219 28.335938 14.371094 C 28.1875 14.410156 28.042969 14.4375 27.902344 14.480469 C 27.71875 14.539062 27.53125 14.582031 27.359375 14.640625 C 27.171875 14.710938 27 14.789062 26.816406 14.859375 C 26.460938 15.003906 26.132812 15.171875 25.789062 15.339844 C 25.667969 15.40625 25.53125 15.441406 25.414062 15.507812 C 25.011719 15.710938 24.648438 15.960938 24.277344 16.210938 C 24.136719 16.304688 23.984375 16.378906 23.84375 16.476562 C 23.789062 16.519531 23.738281 16.542969 23.683594 16.585938 C 23.519531 16.710938 23.351562 16.832031 23.195312 16.964844 C 23.011719 17.117188 22.835938 17.289062 22.65625 17.453125 C 22.601562 17.503906 22.546875 17.5625 22.492188 17.613281 L 22.4375 17.667969 C 22.414062 17.695312 22.414062 17.75 22.386719 17.777344 C 22.023438 18.128906 21.625 18.464844 21.304688 18.859375 C 21.296875 18.875 21.3125 18.902344 21.304688 18.910156 C 20.988281 19.289062 20.710938 19.6875 20.4375 20.101562 C 20.402344 20.15625 20.367188 20.207031 20.332031 20.261719 C 20.304688 20.304688 20.25 20.328125 20.222656 20.371094 C 20.117188 20.539062 20.046875 20.734375 19.953125 20.914062 C 19.921875 20.96875 19.875 21.015625 19.84375 21.074219 C 19.710938 21.328125 19.585938 21.578125 19.460938 21.832031 C 19.457031 21.847656 19.46875 21.871094 19.460938 21.886719 C 19.261719 22.324219 19.078125 22.777344 18.921875 23.238281 C 18.886719 23.328125 18.84375 23.414062 18.8125 23.507812 C 18.808594 23.523438 18.816406 23.542969 18.8125 23.558594 C 18.78125 23.667969 18.738281 23.777344 18.707031 23.886719 C 18.578125 24.328125 18.460938 24.773438 18.378906 25.234375 C 18.320312 25.566406 18.25 25.921875 18.214844 26.261719 C 18.175781 26.730469 18.160156 27.199219 18.164062 27.667969 C 18.164062 28.363281 18.226562 29.050781 18.328125 29.722656 C 18.335938 29.789062 18.3125 29.867188 18.328125 29.9375 C 18.402344 30.398438 18.53125 30.84375 18.652344 31.289062 C 18.695312 31.453125 18.761719 31.613281 18.8125 31.773438 C 18.882812 31.996094 18.949219 32.207031 19.03125 32.421875 C 19.160156 32.789062 19.304688 33.148438 19.460938 33.503906 C 19.546875 33.6875 19.636719 33.863281 19.734375 34.042969 C 19.988281 34.546875 20.28125 35.035156 20.597656 35.503906 C 20.625 35.542969 20.675781 35.570312 20.707031 35.613281 C 21.046875 36.097656 21.386719 36.582031 21.789062 37.015625 C 21.855469 37.09375 21.933594 37.160156 22.003906 37.234375 C 22.070312 37.308594 22.148438 37.378906 22.21875 37.449219 C 22.589844 37.820312 22.996094 38.148438 23.410156 38.476562 C 23.9375 38.898438 24.496094 39.269531 25.085938 39.613281 C 25.105469 39.628906 25.117188 39.652344 25.136719 39.664062 C 25.230469 39.714844 25.316406 39.777344 25.410156 39.828125 C 25.953125 40.09375 26.605469 40.386719 27.03125 40.585938 C 27.21875 40.65625 27.429688 40.683594 27.625 40.746094 C 27.714844 40.777344 27.804688 40.824219 27.894531 40.855469 C 28.128906 40.925781 28.359375 41.011719 28.597656 41.070312 L 28.8125 41.125 C 29.316406 41.246094 29.855469 41.335938 30.378906 41.394531 C 30.914062 41.457031 31.449219 41.503906 32.003906 41.503906 C 32.589844 41.503906 33.164062 41.464844 33.734375 41.394531 C 34.363281 41.3125 34.910156 41.179688 35.460938 41.070312 C 38.347656 40.320312 40.910156 38.652344 42.757812 36.3125 C 42.808594 36.253906 42.875 36.210938 42.917969 36.152344 C 42.9375 36.132812 42.960938 36.117188 42.972656 36.101562 C 42.996094 36.066406 43.003906 36.023438 43.027344 35.988281 C 44.113281 34.539062 44.90625 32.886719 45.351562 31.128906 C 45.449219 30.753906 45.558594 30.382812 45.621094 29.992188 C 45.632812 29.941406 45.613281 29.886719 45.621094 29.832031 C 45.632812 29.761719 45.664062 29.691406 45.675781 29.613281 C 45.6875 29.539062 45.71875 29.472656 45.730469 29.398438 L 45.675781 29.398438 C 45.75 28.828125 45.835938 28.257812 45.835938 27.667969 C 45.835938 26.714844 45.75 25.761719 45.566406 24.859375 C 45.554688 24.785156 45.53125 24.714844 45.515625 24.640625 C 45.4375 24.285156 45.300781 23.914062 45.1875 23.5625 C 45.1875 23.546875 45.195312 23.527344 45.1875 23.511719 C 45.171875 23.457031 45.15625 23.402344 45.136719 23.347656 C 45.066406 23.136719 44.996094 22.902344 44.917969 22.699219 C 44.898438 22.640625 44.886719 22.585938 44.867188 22.539062 C 44.789062 22.34375 44.679688 22.179688 44.59375 21.992188 C 44.589844 21.992188 44.597656 21.949219 44.59375 21.941406 C 44.554688 21.847656 44.480469 21.761719 44.433594 21.671875 C 44.265625 21.320312 44.085938 20.980469 43.890625 20.644531 C 43.789062 20.472656 43.730469 20.269531 43.621094 20.105469 C 43.582031 20.039062 43.503906 20.003906 43.460938 19.941406 C 43.34375 19.769531 43.207031 19.621094 43.082031 19.457031 C 42.941406 19.285156 42.835938 19.082031 42.703125 18.914062 C 42.691406 18.894531 42.710938 18.871094 42.703125 18.863281 C 42.40625 18.496094 42.0625 18.164062 41.730469 17.835938 C 41.566406 17.675781 41.410156 17.496094 41.242188 17.347656 C 41.191406 17.304688 41.128906 17.28125 41.082031 17.238281 C 40.714844 16.933594 40.335938 16.640625 39.945312 16.375 C 39.851562 16.3125 39.769531 16.222656 39.675781 16.160156 C 39.554688 16.078125 39.417969 16.019531 39.296875 15.941406 C 39.0625 15.796875 38.835938 15.640625 38.59375 15.511719 C 38.382812 15.394531 38.164062 15.289062 37.945312 15.1875 C 37.578125 15.007812 37.199219 14.84375 36.8125 14.699219 C 36.351562 14.53125 35.882812 14.386719 35.40625 14.265625 C 34.292969 13.976562 33.148438 13.832031 32 13.835938 M 32 15.5625 C 32.816406 15.570312 33.632812 15.664062 34.433594 15.835938 L 34.484375 15.835938 C 34.773438 15.894531 35.070312 15.972656 35.347656 16.050781 C 35.515625 16.097656 35.675781 16.164062 35.835938 16.210938 C 36.136719 16.3125 36.414062 16.414062 36.703125 16.539062 C 37.039062 16.679688 37.359375 16.800781 37.675781 16.972656 L 37.511719 17.023438 C 37.421875 17.074219 37.347656 17.148438 37.296875 17.238281 C 37.261719 17.324219 37.304688 17.4375 37.296875 17.5625 C 37.363281 17.59375 37.402344 17.71875 37.511719 17.78125 C 37.558594 17.804688 37.582031 17.761719 37.621094 17.78125 C 37.6875 17.816406 37.742188 17.933594 37.730469 17.996094 C 37.710938 18.089844 37.578125 18.039062 37.511719 18.109375 C 37.523438 18.238281 37.4375 18.289062 37.40625 18.375 C 37.425781 18.433594 37.503906 18.417969 37.511719 18.488281 C 37.503906 18.5625 37.375 18.570312 37.40625 18.648438 C 37.53125 18.742188 37.664062 18.609375 37.785156 18.59375 C 38.042969 18.5625 38.273438 18.664062 38.433594 18.539062 C 38.414062 18.417969 38.605469 18.382812 38.59375 18.269531 C 38.585938 18.1875 38.4375 18.164062 38.378906 18.109375 C 38.34375 18.078125 38.3125 18.007812 38.269531 17.945312 C 38.226562 17.875 38.160156 17.792969 38.109375 17.730469 C 38.039062 17.636719 37.890625 17.527344 37.890625 17.460938 C 37.890625 17.382812 37.984375 17.351562 38 17.242188 C 37.980469 17.144531 37.796875 17.242188 37.785156 17.136719 C 37.792969 17.09375 37.8125 17.058594 37.835938 17.027344 C 38.09375 17.164062 38.355469 17.335938 38.59375 17.511719 L 38.757812 17.621094 C 38.945312 17.761719 39.113281 17.914062 39.300781 18.054688 C 39.183594 18.074219 39.125 18.210938 39.03125 18.324219 C 38.957031 18.414062 38.863281 18.488281 38.761719 18.539062 C 38.710938 18.5625 38.640625 18.511719 38.597656 18.539062 C 38.535156 18.582031 38.511719 18.707031 38.4375 18.753906 C 38.382812 18.789062 38.21875 18.917969 38.164062 18.917969 C 38.097656 18.917969 37.996094 18.847656 37.949219 18.863281 C 37.878906 18.886719 37.917969 18.996094 37.839844 19.027344 C 37.6875 19.078125 37.410156 18.90625 37.355469 19.136719 C 37.417969 19.265625 37.617188 19.222656 37.734375 19.296875 C 37.832031 19.386719 37.90625 19.5 37.949219 19.625 C 37.96875 19.75 37.96875 19.878906 37.949219 20.003906 C 37.878906 20.1875 37.671875 20.167969 37.460938 20.164062 C 37.40625 20.164062 37.355469 20.164062 37.300781 20.164062 C 36.941406 20.140625 36.59375 20.015625 36.4375 20.273438 C 36.445312 20.46875 36.480469 20.589844 36.4375 20.757812 C 36.40625 20.882812 36.265625 20.972656 36.273438 21.085938 C 36.277344 21.136719 36.367188 21.226562 36.382812 21.300781 C 36.390625 21.335938 36.363281 21.425781 36.382812 21.460938 C 36.4375 21.578125 36.601562 21.445312 36.707031 21.460938 C 36.808594 21.480469 36.925781 21.671875 36.921875 21.789062 C 36.910156 21.886719 36.871094 21.976562 36.8125 22.058594 C 36.710938 22.210938 36.527344 22.1875 36.382812 22.273438 C 36.261719 22.339844 36.238281 22.480469 36.164062 22.597656 C 36.085938 22.726562 36.027344 22.789062 36.058594 22.976562 C 35.972656 23.167969 35.816406 23.324219 35.625 23.410156 C 35.5625 23.4375 35.464844 23.476562 35.410156 23.515625 C 35.347656 23.566406 35.292969 23.621094 35.246094 23.683594 C 35.164062 23.769531 35.070312 23.828125 35.03125 23.898438 C 34.992188 23.949219 35.011719 24.042969 34.976562 24.113281 C 34.921875 24.210938 34.824219 24.289062 34.761719 24.382812 C 34.730469 24.429688 34.6875 24.488281 34.652344 24.546875 C 34.578125 24.679688 34.476562 24.804688 34.488281 24.921875 C 34.5 25.039062 34.640625 25.039062 34.652344 25.136719 C 34.660156 25.195312 34.59375 25.242188 34.597656 25.300781 C 34.597656 25.386719 34.640625 25.449219 34.648438 25.515625 C 34.664062 25.691406 34.574219 25.726562 34.539062 25.84375 C 34.523438 25.898438 34.554688 25.960938 34.539062 26.007812 C 34.511719 26.089844 34.382812 26.175781 34.378906 26.277344 C 34.378906 26.347656 34.480469 26.441406 34.488281 26.542969 C 34.488281 26.613281 34.421875 26.644531 34.4375 26.710938 C 34.460938 26.835938 34.710938 26.988281 34.8125 27.085938 C 34.941406 27.214844 35.082031 27.328125 35.136719 27.464844 C 35.1875 27.582031 35.207031 27.757812 35.300781 27.84375 C 35.367188 27.910156 35.484375 27.9375 35.570312 28.007812 C 35.652344 28.070312 35.757812 28.101562 35.839844 28.167969 C 35.980469 28.28125 36.15625 28.511719 36.382812 28.492188 C 36.5 28.476562 36.628906 28.410156 36.761719 28.386719 C 36.898438 28.363281 37.054688 28.316406 37.191406 28.332031 C 37.296875 28.347656 37.410156 28.445312 37.515625 28.441406 C 37.636719 28.441406 37.765625 28.335938 37.898438 28.277344 C 38.125 28.179688 38.484375 28.011719 38.8125 28.0625 C 39.066406 28.097656 39.074219 28.4375 39.246094 28.546875 C 39.449219 28.5625 39.628906 28.457031 39.789062 28.492188 C 39.910156 28.523438 40.046875 28.722656 40.058594 28.820312 C 40.070312 28.917969 39.960938 29.027344 39.949219 29.089844 C 39.917969 29.226562 39.917969 29.382812 39.894531 29.464844 C 39.875 29.535156 39.835938 29.613281 39.839844 29.683594 C 39.875 29.800781 39.929688 29.914062 40.003906 30.007812 C 40.082031 30.105469 40.183594 30.175781 40.273438 30.277344 C 40.425781 30.480469 40.554688 30.695312 40.65625 30.925781 C 40.683594 30.988281 40.625 31.0625 40.65625 31.140625 C 40.601562 31.53125 40.472656 31.792969 40.222656 32.222656 C 40.101562 32.363281 39.945312 32.484375 39.949219 32.65625 C 39.941406 33.070312 40.1875 33.335938 40.164062 33.738281 C 40.125 34.277344 40.210938 34.3125 40.164062 34.601562 C 40.347656 34.691406 40.21875 35.003906 40.164062 35.195312 C 40.085938 35.421875 39.992188 35.476562 39.949219 35.628906 C 40.074219 35.679688 40.246094 35.664062 40.382812 35.628906 C 40.382812 35.628906 40.546875 36.320312 40.542969 36.332031 C 39.121094 37.722656 37.378906 38.742188 35.464844 39.300781 C 34.511719 39.53125 34.234375 39.53125 33.789062 39.628906 C 33.199219 39.730469 32.605469 39.785156 32.007812 39.789062 C 31.585938 39.789062 31.167969 39.773438 30.761719 39.738281 C 30.445312 39.707031 30.148438 39.628906 29.84375 39.574219 C 29.753906 39.558594 29.664062 39.539062 29.574219 39.519531 C 29.289062 39.425781 28.96875 39.367188 28.710938 39.304688 C 28.417969 39.222656 28.128906 39.136719 27.84375 39.035156 C 27.867188 39.011719 27.890625 39.011719 27.898438 38.980469 C 27.914062 38.914062 27.902344 38.871094 27.898438 38.761719 C 27.921875 38.652344 28.039062 38.664062 28.0625 38.546875 C 28.011719 38.464844 27.914062 38.484375 27.84375 38.4375 C 27.769531 38.390625 27.726562 38.3125 27.738281 38.222656 C 27.855469 38.171875 28.082031 38.335938 28.167969 38.167969 C 28.210938 38.085938 28.109375 37.925781 28.167969 37.84375 C 28.207031 37.789062 28.460938 37.75 28.546875 37.734375 C 28.667969 37.710938 28.804688 37.714844 28.871094 37.683594 C 28.976562 37.609375 29.039062 37.488281 29.035156 37.355469 C 29.027344 37.289062 28.976562 37.253906 28.925781 37.191406 C 28.882812 37.140625 28.902344 37.078125 28.875 37.03125 C 28.816406 36.949219 28.738281 36.929688 28.710938 36.8125 C 28.875 36.78125 29.117188 36.988281 29.359375 36.921875 C 29.472656 36.890625 29.628906 36.597656 29.683594 36.488281 C 29.699219 36.460938 29.664062 36.421875 29.683594 36.382812 C 29.703125 36.335938 29.789062 36.296875 29.789062 36.273438 C 29.8125 36.210938 29.777344 36.152344 29.789062 36.113281 C 29.835938 35.992188 29.9375 35.980469 30.007812 35.894531 C 30.0625 35.828125 30.121094 35.742188 30.171875 35.679688 C 30.222656 35.609375 30.242188 35.523438 30.28125 35.460938 C 30.3125 35.253906 30.175781 35.109375 30.226562 34.921875 C 30.28125 34.714844 30.5625 34.636719 30.765625 34.539062 C 30.835938 34.511719 30.925781 34.457031 30.984375 34.4375 C 31.121094 34.386719 31.289062 34.371094 31.414062 34.324219 C 31.632812 34.246094 31.6875 34.039062 31.792969 33.839844 C 31.84375 33.753906 31.878906 33.664062 31.90625 33.570312 C 31.914062 33.511719 31.890625 33.476562 31.90625 33.410156 C 31.914062 33.335938 31.9375 33.265625 31.957031 33.191406 C 31.988281 33.066406 32.007812 32.9375 32.011719 32.8125 C 32.011719 32.71875 31.960938 32.675781 31.957031 32.59375 C 31.941406 32.296875 32.0625 32.21875 32.171875 32.054688 C 32.230469 31.972656 32.242188 31.898438 32.285156 31.835938 C 32.46875 31.5625 32.792969 31.449219 32.765625 31.03125 C 32.761719 30.890625 32.710938 30.585938 32.605469 30.542969 C 32.546875 30.515625 32.421875 30.523438 32.335938 30.488281 C 32.0625 30.386719 31.863281 30.023438 31.578125 30.003906 C 31.515625 30.003906 31.484375 30.054688 31.414062 30.054688 C 31.304688 30.054688 31.164062 29.964844 31.039062 29.949219 C 30.957031 29.929688 30.8125 29.96875 30.765625 29.949219 C 30.695312 29.914062 30.714844 29.769531 30.660156 29.734375 C 30.613281 29.699219 30.511719 29.707031 30.441406 29.679688 C 30.328125 29.636719 30.25 29.582031 30.117188 29.566406 C 30.078125 29.566406 30 29.566406 29.957031 29.566406 C 29.882812 29.550781 29.804688 29.5 29.738281 29.460938 C 29.667969 29.425781 29.613281 29.367188 29.574219 29.296875 C 29.652344 29.046875 29.410156 29.011719 29.359375 28.863281 C 29.335938 28.796875 29.382812 28.710938 29.359375 28.648438 C 29.332031 28.5625 29.238281 28.503906 29.140625 28.433594 C 28.976562 28.304688 28.839844 28.191406 28.601562 28.164062 C 28.496094 28.144531 28.351562 28.164062 28.222656 28.164062 C 28.074219 28.136719 27.941406 28.0625 27.84375 27.945312 C 27.746094 27.835938 27.710938 27.730469 27.628906 27.675781 C 27.546875 27.625 27.414062 27.625 27.359375 27.566406 C 27.335938 27.542969 27.328125 27.515625 27.308594 27.460938 C 27.261719 27.375 27.199219 27.289062 27.25 27.1875 C 27.160156 27.140625 27.1875 27.3125 27.085938 27.296875 C 27 27.167969 26.914062 27.097656 26.710938 27.136719 C 26.613281 27.152344 26.546875 27.238281 26.4375 27.242188 C 26.351562 27.242188 26.289062 27.152344 26.167969 27.136719 C 26.082031 27.117188 25.960938 27.195312 25.898438 27.1875 C 25.800781 27.171875 25.773438 27.085938 25.683594 27.027344 C 25.617188 26.984375 25.503906 26.863281 25.464844 26.863281 C 25.351562 26.863281 25.25 27.113281 25.085938 27.027344 C 25.011719 26.929688 25.238281 26.90625 25.140625 26.8125 C 25.074219 26.738281 25.039062 26.828125 24.980469 26.863281 C 24.914062 26.910156 24.835938 26.941406 24.761719 26.972656 C 24.605469 27.03125 24.511719 27.015625 24.386719 27.082031 C 24.269531 27.140625 24.234375 27.234375 24.167969 27.351562 C 24.117188 27.449219 24.03125 27.613281 23.953125 27.621094 C 23.855469 27.621094 23.769531 27.496094 23.6875 27.460938 C 23.417969 27.34375 23.257812 27.511719 23.039062 27.511719 C 22.832031 27.511719 22.539062 27.21875 22.550781 27.027344 C 22.558594 26.914062 22.640625 26.738281 22.660156 26.59375 C 22.667969 26.484375 22.765625 26.375 22.765625 26.269531 C 22.765625 26.132812 22.535156 26.015625 22.441406 26 C 22.226562 25.960938 21.933594 26.105469 21.6875 26 C 21.636719 25.921875 21.765625 25.863281 21.792969 25.785156 C 21.8125 25.738281 21.777344 25.726562 21.792969 25.675781 C 21.820312 25.601562 21.921875 25.539062 21.957031 25.460938 C 21.984375 25.402344 21.984375 25.316406 22.007812 25.242188 C 22.039062 25.15625 22.113281 25.085938 22.117188 25.027344 C 22.128906 24.949219 22.070312 24.863281 22.011719 24.8125 C 21.816406 24.828125 21.6875 24.8125 21.578125 24.863281 C 21.328125 24.980469 21.394531 25.324219 21.144531 25.40625 C 21.058594 25.433594 20.914062 25.4375 20.820312 25.457031 C 20.738281 25.476562 20.636719 25.511719 20.550781 25.511719 C 20.429688 25.492188 20.3125 25.4375 20.226562 25.351562 C 20.199219 25.316406 20.183594 25.28125 20.171875 25.238281 C 20.175781 25.222656 20.167969 25.207031 20.171875 25.1875 C 20.25 24.800781 20.332031 24.417969 20.441406 24.054688 C 20.445312 24.039062 20.4375 24.011719 20.441406 24 C 20.511719 23.761719 20.617188 23.535156 20.710938 23.296875 C 20.734375 23.28125 20.742188 23.257812 20.761719 23.246094 C 20.898438 23.152344 21.035156 23.039062 21.195312 23.03125 C 21.296875 23.03125 21.480469 23.0625 21.574219 23.082031 C 21.664062 23.097656 21.714844 23.1875 21.789062 23.191406 C 22.003906 23.210938 22.050781 23.011719 22.222656 22.921875 C 22.40625 22.949219 22.492188 22.90625 22.65625 22.921875 C 22.765625 22.9375 22.894531 23.078125 22.984375 23.085938 C 23.054688 23.085938 23.074219 22.960938 23.144531 22.976562 C 23.210938 22.992188 23.351562 23.164062 23.363281 23.246094 C 23.371094 23.347656 23.277344 23.457031 23.308594 23.566406 C 23.414062 23.679688 23.636719 23.664062 23.789062 23.730469 C 23.894531 23.648438 23.808594 23.527344 23.789062 23.410156 C 23.789062 23.355469 23.800781 23.292969 23.789062 23.246094 C 23.785156 23.164062 23.738281 23.101562 23.738281 23.03125 C 23.738281 22.699219 24.007812 22.511719 24.222656 22.382812 C 24.320312 22.324219 24.414062 22.261719 24.492188 22.214844 C 24.609375 22.160156 24.664062 22.109375 24.761719 22.054688 C 24.9375 21.957031 25.113281 21.894531 25.25 21.785156 C 25.3125 21.636719 25.242188 21.445312 25.25 21.300781 C 25.3125 21.261719 25.34375 21.300781 25.414062 21.300781 C 25.515625 21.277344 25.566406 21.140625 25.628906 21.085938 C 25.664062 21.046875 25.75 21.011719 25.789062 20.972656 C 25.894531 20.890625 25.914062 20.792969 26.007812 20.757812 C 26.039062 20.738281 26.117188 20.730469 26.167969 20.707031 C 26.238281 20.6875 26.328125 20.636719 26.4375 20.59375 C 26.511719 20.570312 26.683594 20.570312 26.710938 20.539062 C 26.742188 20.507812 26.699219 20.378906 26.710938 20.324219 C 26.761719 20.066406 27.179688 20.035156 27.414062 19.945312 C 27.574219 19.886719 27.71875 19.75 27.898438 19.785156 C 27.863281 19.910156 27.707031 19.851562 27.738281 20 C 27.773438 20.210938 28.039062 19.976562 28.113281 19.949219 C 28.253906 19.886719 28.523438 19.851562 28.710938 19.785156 C 28.871094 19.726562 29.132812 19.644531 28.980469 19.460938 C 28.851562 19.460938 28.820312 19.574219 28.710938 19.621094 C 28.632812 19.636719 28.613281 19.574219 28.546875 19.570312 C 28.484375 19.570312 28.449219 19.636719 28.386719 19.621094 C 28.320312 19.605469 28.234375 19.480469 28.222656 19.40625 C 28.195312 19.214844 28.414062 19.167969 28.488281 19.027344 C 28.4375 18.855469 28.203125 18.988281 28.058594 18.917969 C 28.074219 18.808594 28.164062 18.71875 28.273438 18.703125 C 28.375 18.6875 28.59375 18.71875 28.65625 18.757812 C 28.6875 18.789062 28.65625 18.871094 28.707031 18.917969 C 28.765625 18.972656 28.847656 18.9375 28.921875 18.917969 C 28.953125 18.789062 28.738281 18.84375 28.761719 18.757812 C 28.914062 18.652344 29.21875 18.730469 29.410156 18.703125 C 29.519531 18.6875 29.636719 18.59375 29.738281 18.539062 C 29.828125 18.488281 29.910156 18.402344 30.003906 18.488281 C 30.035156 18.582031 29.949219 18.601562 29.894531 18.648438 C 29.714844 18.8125 29.554688 18.992188 29.414062 19.1875 C 29.492188 19.273438 29.644531 19.226562 29.789062 19.242188 C 29.84375 19.242188 29.890625 19.289062 29.949219 19.296875 C 30.019531 19.3125 30.113281 19.277344 30.164062 19.296875 C 30.261719 19.320312 30.289062 19.460938 30.382812 19.460938 C 30.539062 19.460938 30.527344 19.242188 30.4375 19.136719 C 30.464844 19.023438 30.527344 18.996094 30.488281 18.917969 C 30.421875 18.777344 30.128906 18.941406 30.113281 18.757812 C 30.105469 18.636719 30.234375 18.625 30.273438 18.539062 C 30.257812 18.316406 30.460938 18.308594 30.4375 18.109375 C 30.425781 18.023438 30.335938 18.023438 30.273438 17.945312 C 30.246094 17.90625 30.257812 17.8125 30.222656 17.785156 C 30.101562 17.679688 29.859375 17.707031 29.839844 17.511719 C 29.835938 17.398438 29.859375 17.3125 29.839844 17.1875 C 29.828125 17.070312 29.726562 16.722656 29.625 16.703125 C 29.496094 16.675781 29.402344 16.898438 29.246094 16.972656 C 29.144531 17.015625 29.035156 17.035156 28.921875 17.023438 C 28.863281 17.007812 28.765625 16.96875 28.761719 16.863281 C 28.75 16.742188 28.84375 16.71875 28.867188 16.59375 C 28.851562 16.515625 28.78125 16.539062 28.707031 16.484375 C 28.621094 16.417969 28.550781 16.285156 28.4375 16.265625 C 28.378906 16.265625 28.273438 16.316406 28.21875 16.320312 C 28.113281 16.320312 28.039062 16.292969 27.949219 16.265625 C 27.988281 16.25 28.019531 16.226562 28.058594 16.210938 C 28.269531 16.140625 28.488281 16.113281 28.707031 16.050781 C 28.746094 16.035156 28.777344 16.007812 28.816406 15.996094 C 28.871094 16.054688 28.914062 16.175781 28.980469 16.210938 C 29.023438 16.238281 29.085938 16.195312 29.140625 16.210938 C 29.3125 16.265625 29.441406 16.363281 29.628906 16.324219 C 29.691406 16.210938 29.5 16.195312 29.574219 16.109375 C 29.699219 16.125 29.800781 16.175781 29.898438 16.214844 C 30.035156 16.117188 30.121094 16.101562 30.113281 15.945312 C 30.113281 15.863281 30.007812 15.835938 29.953125 15.785156 C 30.0625 15.761719 30.164062 15.746094 30.277344 15.730469 C 30.289062 15.761719 30.3125 15.78125 30.332031 15.785156 C 30.398438 15.800781 30.617188 15.695312 30.65625 15.675781 C 30.664062 15.675781 30.644531 15.628906 30.65625 15.621094 C 31.09375 15.574219 31.558594 15.566406 32.007812 15.566406 M 27.683594 16.378906 C 27.644531 16.453125 27.601562 16.511719 27.519531 16.539062 C 27.539062 16.652344 27.375 16.722656 27.359375 16.8125 C 27.347656 16.871094 27.355469 16.972656 27.359375 17.027344 C 27.390625 17.578125 26.925781 17.851562 26.386719 17.835938 C 26.28125 17.9375 26.335938 18.132812 26.277344 18.269531 C 26.226562 18.386719 26.066406 18.496094 25.949219 18.488281 C 25.863281 18.488281 25.734375 18.347656 25.734375 18.269531 C 25.734375 18.167969 25.875 18.113281 25.789062 18 C 25.800781 17.921875 25.96875 17.851562 25.949219 17.730469 C 25.929688 17.601562 25.785156 17.695312 25.625 17.679688 C 25.511719 17.652344 25.40625 17.613281 25.300781 17.566406 C 25.472656 17.449219 25.65625 17.347656 25.839844 17.242188 C 26.003906 17.144531 26.164062 17.0625 26.328125 16.972656 C 26.761719 16.753906 27.230469 16.550781 27.679688 16.378906 M 36.976562 17.675781 C 36.929688 17.675781 36.90625 17.707031 36.863281 17.726562 C 36.777344 17.78125 36.773438 17.863281 36.703125 17.890625 C 36.613281 17.925781 36.5 17.910156 36.488281 18 C 36.476562 18.070312 36.542969 18.09375 36.539062 18.164062 C 36.503906 18.246094 36.449219 18.277344 36.433594 18.378906 C 36.550781 18.566406 36.828125 18.363281 36.972656 18.328125 C 37.039062 18.304688 37.101562 18.328125 37.136719 18.269531 C 37.175781 18.210938 37.160156 18.085938 37.1875 18 C 37.222656 17.90625 37.3125 17.925781 37.296875 17.835938 C 37.289062 17.753906 37.113281 17.664062 36.972656 17.675781 M 24.328125 19.023438 C 24.429688 19.054688 24.664062 19.363281 24.4375 19.457031 C 24.3125 19.488281 24.183594 19.511719 24.054688 19.511719 C 23.976562 19.496094 23.921875 19.363281 23.839844 19.351562 C 23.683594 19.320312 23.460938 19.523438 23.355469 19.351562 C 23.382812 19.246094 23.503906 19.277344 23.625 19.238281 C 23.839844 19.183594 24.136719 18.976562 24.328125 19.023438 M 24.761719 19.566406 C 24.8125 19.566406 24.855469 19.667969 24.917969 19.675781 C 24.984375 19.675781 25.042969 19.613281 25.082031 19.621094 C 25.179688 19.648438 25.226562 19.820312 25.136719 19.890625 C 25.0625 19.890625 25.035156 19.828125 24.972656 19.835938 C 24.816406 19.863281 24.765625 20.171875 24.648438 20.164062 C 24.539062 20.144531 24.484375 19.917969 24.597656 19.835938 C 24.601562 19.769531 24.539062 19.742188 24.542969 19.675781 C 24.578125 19.632812 24.667969 19.5625 24.757812 19.566406 M 24.214844 19.617188 C 24.25 19.621094 24.261719 19.617188 24.269531 19.617188 C 24.257812 19.742188 24.203125 19.777344 24.109375 19.835938 C 23.941406 19.925781 23.824219 20.085938 23.785156 20.265625 C 23.765625 20.332031 23.589844 20.5 23.511719 20.484375 C 23.332031 20.445312 23.582031 20.101562 23.621094 20.050781 C 23.667969 19.996094 23.730469 19.957031 23.785156 19.886719 C 23.835938 19.824219 23.839844 19.710938 23.894531 19.671875 C 23.996094 19.632812 24.109375 19.613281 24.21875 19.617188 M 40.648438 19.671875 C 40.730469 19.695312 40.746094 19.792969 40.8125 19.835938 C 40.859375 19.867188 40.921875 19.859375 40.972656 19.886719 C 41.035156 19.929688 41.066406 19.992188 41.136719 20.050781 C 41.234375 20.136719 41.378906 20.207031 41.515625 20.265625 C 41.539062 20.289062 41.589844 20.308594 41.621094 20.320312 C 41.71875 20.445312 41.804688 20.570312 41.890625 20.699219 C 41.902344 20.769531 41.914062 20.871094 41.945312 20.914062 C 42.039062 21.039062 42.171875 21.144531 42.269531 21.296875 C 42.269531 21.4375 42.335938 21.523438 42.4375 21.5625 C 42.5625 21.777344 42.691406 21.992188 42.8125 22.210938 C 42.863281 22.3125 42.875 22.4375 42.921875 22.539062 C 42.886719 22.539062 42.847656 22.554688 42.8125 22.539062 C 42.699219 22.335938 42.105469 22.296875 42.054688 22.589844 C 42.035156 22.71875 42.140625 22.894531 41.945312 22.914062 C 41.824219 22.933594 41.683594 22.789062 41.511719 22.753906 C 41.445312 22.738281 41.351562 22.777344 41.296875 22.753906 C 41.171875 22.710938 41.1875 22.5625 41.082031 22.484375 C 40.980469 22.429688 40.871094 22.390625 40.757812 22.375 L 40.59375 22.375 C 40.515625 22.359375 40.386719 22.359375 40.324219 22.320312 C 40.261719 22.285156 40.125 22.210938 40.109375 22.160156 C 40.085938 22.070312 40.261719 21.960938 40.269531 21.886719 C 40.273438 21.835938 40.230469 21.8125 40.21875 21.726562 C 40.210938 21.675781 40.226562 21.597656 40.21875 21.5625 C 40.203125 21.507812 40.09375 21.457031 40 21.457031 C 39.917969 21.457031 39.855469 21.507812 39.785156 21.511719 C 39.683594 21.511719 39.480469 21.445312 39.351562 21.457031 C 39.277344 21.457031 39.210938 21.503906 39.136719 21.511719 C 38.9375 21.527344 38.808594 21.488281 38.652344 21.511719 C 38.503906 21.519531 38.355469 21.558594 38.21875 21.617188 C 38.164062 21.640625 38.125 21.691406 38.058594 21.726562 C 38.019531 21.746094 37.988281 21.761719 37.949219 21.78125 C 37.882812 21.8125 37.789062 21.871094 37.734375 21.886719 C 37.640625 21.914062 37.515625 21.886719 37.351562 21.886719 C 37.238281 21.886719 37.03125 21.863281 37.027344 21.726562 C 37.027344 21.511719 37.417969 21.601562 37.621094 21.5625 C 37.699219 21.546875 37.75 21.457031 37.835938 21.402344 C 37.882812 21.375 37.90625 21.375 37.949219 21.347656 C 38.015625 21.300781 38.152344 21.1875 38.164062 21.132812 C 38.175781 21.082031 38.105469 21.007812 38.113281 20.96875 C 38.117188 20.917969 38.210938 20.867188 38.273438 20.808594 C 38.367188 20.710938 38.421875 20.597656 38.542969 20.539062 C 38.625 20.492188 38.777344 20.496094 38.8125 20.429688 C 38.820312 20.355469 38.8125 20.332031 38.8125 20.261719 C 38.863281 20.21875 38.878906 20.164062 38.921875 20.15625 C 39.046875 20.128906 39.15625 20.214844 39.300781 20.210938 C 39.375 20.210938 39.449219 20.1875 39.511719 20.160156 C 39.570312 20.117188 39.621094 20.078125 39.675781 20.046875 C 39.738281 20.015625 39.765625 19.945312 39.839844 19.9375 C 40.019531 19.921875 40.136719 20.152344 40.21875 20.261719 C 40.289062 20.355469 40.484375 20.46875 40.597656 20.535156 C 40.664062 20.570312 40.742188 20.613281 40.8125 20.640625 C 40.960938 20.710938 41.238281 20.929688 41.246094 21.074219 C 41.25 21.148438 41.179688 21.167969 41.191406 21.238281 C 41.308594 21.257812 41.40625 21.136719 41.410156 21.019531 C 41.410156 20.953125 41.339844 20.9375 41.359375 20.859375 C 41.410156 20.742188 41.613281 20.839844 41.679688 20.808594 C 41.667969 20.675781 41.464844 20.65625 41.355469 20.585938 C 41.296875 20.554688 41.253906 20.507812 41.191406 20.480469 C 41.101562 20.445312 40.992188 20.425781 40.921875 20.371094 C 40.859375 20.320312 40.824219 20.234375 40.761719 20.15625 C 40.664062 20.042969 40.488281 20.027344 40.542969 19.777344 C 40.570312 19.738281 40.609375 19.65625 40.652344 19.664062 M 25.414062 20.046875 L 25.574219 20.046875 C 25.636719 20.046875 25.710938 20.011719 25.738281 20.046875 C 25.699219 20.195312 25.371094 20.15625 25.253906 20.097656 C 25.261719 20.039062 25.335938 20.050781 25.414062 20.046875 M 24.875 20.3125 C 24.914062 20.3125 24.9375 20.296875 24.984375 20.3125 C 24.855469 20.414062 24.707031 20.488281 24.550781 20.53125 C 24.460938 20.558594 24.347656 20.574219 24.335938 20.480469 C 24.3125 20.359375 24.414062 20.382812 24.496094 20.367188 C 24.597656 20.351562 24.757812 20.316406 24.875 20.316406 M 39.902344 20.316406 C 39.828125 20.335938 39.789062 20.511719 39.902344 20.53125 C 39.953125 20.5 39.964844 20.414062 39.953125 20.3125 C 39.925781 20.285156 39.925781 20.3125 39.902344 20.3125 M 39.847656 20.640625 C 39.8125 20.660156 39.777344 20.660156 39.738281 20.691406 C 39.738281 20.824219 39.761719 20.90625 39.738281 21.019531 C 39.8125 21.164062 39.96875 21.0625 40.007812 20.964844 C 40.054688 20.726562 39.957031 20.613281 39.84375 20.640625 M 40.601562 21.289062 C 40.6875 21.425781 40.84375 21.527344 41.035156 21.558594 C 41.101562 21.507812 41.109375 21.378906 41.140625 21.289062 L 40.871094 21.289062 C 40.769531 21.289062 40.664062 21.238281 40.601562 21.289062 M 20.386719 25.9375 C 20.671875 25.917969 20.757812 26.308594 20.988281 26.421875 C 21.039062 26.453125 21.128906 26.460938 21.203125 26.476562 C 21.261719 26.492188 21.304688 26.511719 21.363281 26.527344 C 21.484375 26.570312 21.644531 26.542969 21.742188 26.585938 C 21.886719 26.648438 21.996094 26.9375 22.121094 27.015625 C 22.128906 27.085938 22.097656 27.175781 22.121094 27.230469 C 22.183594 27.3125 22.292969 27.339844 22.390625 27.390625 C 22.511719 27.457031 22.550781 27.613281 22.664062 27.664062 C 22.699219 27.679688 22.761719 27.644531 22.824219 27.664062 C 22.976562 27.710938 23.015625 27.914062 23.148438 27.878906 C 23.238281 27.855469 23.242188 27.742188 23.257812 27.664062 C 23.3125 27.601562 23.386719 27.503906 23.472656 27.5 C 23.617188 27.5 23.636719 27.628906 23.6875 27.769531 C 23.71875 27.847656 23.777344 27.957031 23.800781 28.039062 C 23.835938 28.183594 23.828125 28.601562 23.800781 28.6875 C 23.761719 28.792969 23.613281 28.839844 23.53125 28.960938 C 23.488281 29.011719 23.453125 29.082031 23.417969 29.121094 C 23.363281 29.1875 23.300781 29.21875 23.257812 29.285156 C 23.234375 29.316406 23.226562 29.398438 23.203125 29.445312 C 23.136719 29.59375 23.039062 29.703125 23.09375 29.878906 C 23.117188 29.953125 23.203125 30.011719 23.203125 30.09375 C 23.203125 30.195312 23.007812 30.257812 22.988281 30.363281 C 22.976562 30.445312 23.070312 30.582031 23.097656 30.6875 C 23.113281 30.769531 23.261719 30.851562 23.3125 30.90625 C 23.394531 30.996094 23.457031 31.113281 23.53125 31.230469 C 23.675781 31.453125 23.761719 31.710938 23.910156 31.933594 C 23.984375 32.046875 24.128906 32.136719 24.179688 32.257812 C 24.203125 32.316406 24.152344 32.417969 24.179688 32.472656 C 24.261719 32.660156 24.636719 32.867188 24.828125 32.960938 C 24.914062 33.003906 25.015625 32.960938 25.097656 33.011719 C 25.261719 33.113281 25.410156 33.238281 25.53125 33.390625 C 25.585938 33.488281 25.613281 33.726562 25.636719 33.875 C 25.671875 34.082031 25.628906 34.253906 25.636719 34.472656 C 25.644531 34.589844 25.6875 34.679688 25.6875 34.796875 C 25.6875 34.835938 25.691406 34.917969 25.6875 34.960938 C 25.6875 35.105469 25.703125 35.246094 25.6875 35.390625 C 25.683594 35.460938 25.683594 35.539062 25.6875 35.609375 C 25.699219 35.679688 25.738281 35.707031 25.746094 35.769531 C 25.75 35.835938 25.6875 35.933594 25.691406 35.988281 C 25.707031 36.132812 25.824219 36.234375 25.855469 36.363281 C 25.875 36.46875 25.921875 36.722656 25.90625 36.851562 C 25.898438 36.917969 25.863281 36.992188 25.855469 37.066406 C 25.847656 37.125 25.863281 37.175781 25.855469 37.230469 C 25.84375 37.3125 25.792969 37.367188 25.800781 37.445312 C 25.8125 37.601562 25.9375 37.722656 25.960938 37.878906 C 25.972656 37.929688 25.960938 37.988281 25.960938 38.039062 C 25.960938 38.085938 26.003906 38.109375 26.011719 38.148438 C 25.5625 37.886719 25.132812 37.601562 24.714844 37.285156 C 24.320312 36.984375 23.941406 36.660156 23.585938 36.3125 L 23.53125 36.261719 C 23.164062 35.902344 22.820312 35.523438 22.503906 35.125 C 22.324219 34.894531 22.125 34.664062 21.960938 34.421875 C 21.863281 34.277344 21.785156 34.136719 21.691406 33.988281 C 21.636719 33.902344 21.585938 33.8125 21.53125 33.71875 C 21.375 33.457031 21.230469 33.1875 21.097656 32.910156 C 21.011719 32.738281 20.957031 32.550781 20.882812 32.367188 C 20.691406 31.945312 20.53125 31.511719 20.394531 31.070312 C 20.300781 30.753906 20.246094 30.429688 20.179688 30.097656 C 20.128906 29.84375 20.054688 29.597656 20.015625 29.339844 C 19.996094 29.195312 19.976562 29.054688 19.960938 28.910156 C 19.878906 27.988281 19.894531 27.066406 20.015625 26.152344 L 20.015625 26.101562 C 20.128906 26.101562 20.277344 25.9375 20.394531 25.9375 M 25.046875 27.234375 C 25.15625 27.183594 25.191406 27.4375 25.097656 27.449219 C 25.011719 27.464844 24.960938 27.273438 25.046875 27.234375 "/>
</g>
</svg>
