<svg xmlns="http://www.w3.org/2000/svg" xmlns:xlink="http://www.w3.org/1999/xlink" width="64px" height="64px" viewBox="0 0 64 64" version="1.1">
<g id="surface1">
<path style=" stroke:none;fill-rule:nonzero;fill:rgb(79.215688%,79.607844%,81.176472%);fill-opacity:1;" d="M 51.027344 50.164062 C 51.027344 52.75 49.191406 54.488281 46.703125 54.488281 L 17.296875 54.488281 C 14.808594 54.488281 12.972656 52.75 12.972656 50.164062 L 12.972656 13.835938 C 12.972656 11.25 14.808594 9.511719 17.296875 9.511719 L 46.703125 9.511719 C 49.191406 9.511719 51.027344 11.25 51.027344 13.835938 Z M 51.027344 50.164062 "/>
<path style=" stroke:none;fill-rule:nonzero;fill:rgb(52.156866%,52.156866%,54.11765%);fill-opacity:1;" d="M 48.433594 13.835938 C 48.433594 14.792969 47.660156 15.566406 46.703125 15.566406 C 45.746094 15.566406 44.972656 14.792969 44.972656 13.835938 C 44.972656 12.882812 45.746094 12.109375 46.703125 12.109375 C 47.660156 12.109375 48.433594 12.882812 48.433594 13.835938 Z M 48.433594 13.835938 "/>
<path style=" stroke:none;fill-rule:nonzero;fill:rgb(100%,100%,100%);fill-opacity:1;" d="M 47.566406 13.835938 C 47.566406 13.363281 47.179688 12.972656 46.703125 12.972656 C 46.226562 12.972656 45.835938 13.363281 45.835938 13.835938 C 45.835938 14.3125 46.226562 14.703125 46.703125 14.703125 C 47.179688 14.703125 47.566406 14.3125 47.566406 13.835938 Z M 47.566406 13.835938 "/>
<path style=" stroke:none;fill-rule:nonzero;fill:rgb(52.156866%,52.156866%,54.11765%);fill-opacity:1;" d="M 19.027344 13.835938 C 19.027344 14.792969 18.253906 15.566406 17.296875 15.566406 C 16.339844 15.566406 15.566406 14.792969 15.566406 13.835938 C 15.566406 12.882812 16.339844 12.109375 17.296875 12.109375 C 18.253906 12.109375 19.027344 12.882812 19.027344 13.835938 Z M 19.027344 13.835938 "/>
<path style=" stroke:none;fill-rule:nonzero;fill:rgb(100%,100%,100%);fill-opacity:1;" d="M 18.164062 13.835938 C 18.164062 13.363281 17.773438 12.972656 17.296875 12.972656 C 16.820312 12.972656 16.433594 13.363281 16.433594 13.835938 C 16.433594 14.3125 16.820312 14.703125 17.296875 14.703125 C 17.773438 14.703125 18.164062 14.3125 18.164062 13.835938 Z M 18.164062 13.835938 "/>
<path style=" stroke:none;fill-rule:nonzero;fill:rgb(58.039218%,58.039218%,58.823532%);fill-opacity:1;" d="M 16.433594 38.054688 L 12.972656 38.054688 L 12.972656 50.164062 C 12.972656 52.644531 14.847656 54.488281 17.296875 54.488281 L 32.863281 54.488281 L 32.863281 46.703125 C 26.160156 46.269531 20.230469 43.027344 16.433594 38.054688 Z M 16.433594 38.054688 "/>
<path style=" stroke:none;fill-rule:evenodd;fill:rgb(100%,100%,100%);fill-opacity:1;" d="M 45.835938 27.78125 C 45.835938 35.316406 39.640625 41.511719 32 41.511719 C 24.359375 41.511719 18.164062 35.316406 18.164062 27.78125 C 18.164062 20.035156 24.359375 13.835938 32 13.835938 C 39.640625 13.835938 45.835938 20.035156 45.835938 27.78125 "/>
<path style=" stroke:none;fill-rule:nonzero;fill:rgb(50.196081%,50.196081%,50.196081%);fill-opacity:1;" d="M 32 12.972656 C 23.882812 12.972656 17.296875 19.554688 17.296875 27.675781 C 17.296875 35.792969 23.882812 42.378906 32 42.378906 C 40.117188 42.378906 46.703125 35.792969 46.703125 27.675781 C 46.703125 19.554688 40.117188 12.972656 32 12.972656 Z M 41.011719 36.6875 C 39.847656 37.847656 38.472656 38.777344 36.960938 39.417969 C 35.386719 40.082031 33.703125 40.421875 32 40.414062 C 30.28125 40.414062 28.609375 40.082031 27.039062 39.417969 C 25.527344 38.777344 24.152344 37.847656 22.988281 36.6875 C 20.59375 34.300781 19.25 31.058594 19.257812 27.675781 C 19.253906 24.292969 20.59375 21.054688 22.988281 18.664062 C 24.148438 17.5 25.527344 16.574219 27.039062 15.933594 C 28.613281 15.269531 30.296875 14.929688 32 14.9375 C 33.71875 14.9375 35.390625 15.269531 36.960938 15.9375 C 38.472656 16.574219 39.847656 17.503906 41.011719 18.664062 C 43.40625 21.054688 44.746094 24.292969 44.742188 27.675781 C 44.75 31.058594 43.40625 34.300781 41.011719 36.6875 Z M 41.011719 36.6875 "/>
<path style=" stroke:none;fill-rule:evenodd;fill:rgb(58.039218%,58.039218%,58.823532%);fill-opacity:1;" d="M 42.59375 46.917969 C 42.355469 46.917969 42.164062 47.113281 42.164062 47.351562 L 42.164062 52.539062 C 42.164062 52.78125 42.355469 52.972656 42.59375 52.972656 C 42.835938 52.972656 43.027344 52.78125 43.027344 52.539062 L 43.027344 47.351562 C 43.027344 47.113281 42.835938 46.917969 42.59375 46.917969 Z M 42.59375 46.917969 "/>
<path style=" stroke:none;fill-rule:evenodd;fill:rgb(58.039218%,58.039218%,58.823532%);fill-opacity:1;" d="M 40.863281 46.917969 C 40.625 46.917969 40.433594 47.113281 40.433594 47.351562 L 40.433594 52.539062 C 40.433594 52.78125 40.625 52.972656 40.863281 52.972656 C 41.105469 52.972656 41.296875 52.78125 41.296875 52.539062 L 41.296875 47.351562 C 41.296875 47.113281 41.105469 46.917969 40.863281 46.917969 Z M 40.863281 46.917969 "/>
<path style=" stroke:none;fill-rule:evenodd;fill:rgb(58.039218%,58.039218%,58.823532%);fill-opacity:1;" d="M 39.136719 46.917969 C 38.894531 46.917969 38.703125 47.113281 38.703125 47.351562 L 38.703125 52.539062 C 38.703125 52.78125 38.894531 52.972656 39.136719 52.972656 C 39.375 52.972656 39.566406 52.78125 39.566406 52.539062 L 39.566406 47.351562 C 39.566406 47.113281 39.375 46.917969 39.136719 46.917969 Z M 39.136719 46.917969 "/>
<path style=" stroke:none;fill-rule:evenodd;fill:rgb(58.039218%,58.039218%,58.823532%);fill-opacity:1;" d="M 37.40625 46.917969 C 37.164062 46.917969 36.972656 47.113281 36.972656 47.351562 L 36.972656 52.539062 C 36.972656 52.78125 37.164062 52.972656 37.40625 52.972656 C 37.644531 52.972656 37.835938 52.78125 37.835938 52.539062 L 37.835938 47.351562 C 37.835938 47.113281 37.644531 46.917969 37.40625 46.917969 Z M 37.40625 46.917969 "/>
<path style=" stroke:none;fill-rule:evenodd;fill:rgb(58.039218%,58.039218%,58.823532%);fill-opacity:1;" d="M 35.675781 46.917969 C 35.4375 46.917969 35.242188 47.113281 35.242188 47.351562 L 35.242188 52.539062 C 35.242188 52.78125 35.4375 52.972656 35.675781 52.972656 C 35.914062 52.972656 36.109375 52.78125 36.109375 52.539062 L 36.109375 47.351562 C 36.109375 47.113281 35.914062 46.917969 35.675781 46.917969 Z M 35.675781 46.917969 "/>
<path style=" stroke:none;fill-rule:nonzero;fill:rgb(52.156866%,52.156866%,54.11765%);fill-opacity:1;" d="M 48.433594 50.164062 C 48.433594 51.117188 47.660156 51.890625 46.703125 51.890625 C 45.746094 51.890625 44.972656 51.117188 44.972656 50.164062 C 44.972656 49.207031 45.746094 48.433594 46.703125 48.433594 C 47.660156 48.433594 48.433594 49.207031 48.433594 50.164062 Z M 48.433594 50.164062 "/>
<path style=" stroke:none;fill-rule:nonzero;fill:rgb(100%,100%,100%);fill-opacity:1;" d="M 47.566406 50.164062 C 47.566406 49.6875 47.179688 49.296875 46.703125 49.296875 C 46.226562 49.296875 45.835938 49.6875 45.835938 50.164062 C 45.835938 50.636719 46.226562 51.027344 46.703125 51.027344 C 47.179688 51.027344 47.566406 50.636719 47.566406 50.164062 Z M 47.566406 50.164062 "/>
<path style=" stroke:none;fill-rule:nonzero;fill:rgb(41.568628%,41.568628%,41.568628%);fill-opacity:1;" d="M 19.027344 50.164062 C 19.027344 51.117188 18.253906 51.890625 17.296875 51.890625 C 16.339844 51.890625 15.566406 51.117188 15.566406 50.164062 C 15.566406 49.207031 16.339844 48.433594 17.296875 48.433594 C 18.253906 48.433594 19.027344 49.207031 19.027344 50.164062 Z M 19.027344 50.164062 "/>
<path style=" stroke:none;fill-rule:nonzero;fill:rgb(100%,100%,100%);fill-opacity:1;" d="M 18.164062 50.164062 C 18.164062 49.6875 17.773438 49.296875 17.296875 49.296875 C 16.820312 49.296875 16.433594 49.6875 16.433594 50.164062 C 16.433594 50.636719 16.820312 51.027344 17.296875 51.027344 C 17.773438 51.027344 18.164062 50.636719 18.164062 50.164062 Z M 18.164062 50.164062 "/>
<path style=" stroke:none;fill-rule:nonzero;fill:rgb(96.470588%,70.588237%,30.19608%);fill-opacity:1;" d="M 32 17.296875 C 26.25 17.296875 21.621094 21.925781 21.621094 27.675781 C 21.621094 33.425781 26.25 38.054688 32 38.054688 C 37.75 38.054688 42.378906 33.425781 42.378906 27.675781 C 42.378906 21.925781 37.75 17.296875 32 17.296875 M 32 18.59375 C 37.03125 18.59375 41.082031 22.644531 41.082031 27.675781 C 41.082031 32.707031 37.03125 36.757812 32 36.757812 C 26.96875 36.757812 22.917969 32.707031 22.917969 27.675781 C 22.917969 22.644531 26.96875 18.59375 32 18.59375 M 30.703125 19.890625 L 30.703125 28.972656 L 38.488281 28.972656 L 38.488281 27.675781 L 32 27.675781 L 32 19.890625 Z M 30.703125 19.890625 "/>
</g>
</svg>
