<svg xmlns="http://www.w3.org/2000/svg" xmlns:xlink="http://www.w3.org/1999/xlink" width="64px" height="64px" viewBox="0 0 64 64" version="1.1">
<defs>
<linearGradient id="linear0" gradientUnits="userSpaceOnUse" x1="0" y1="0" x2="0" y2="1" gradientTransform="matrix(34.450449,0,0,27.675676,4.324324,26.810811)">
<stop offset="0" style="stop-color:#05f7ff;stop-opacity:1;"/>
<stop offset="0.5" style="stop-color:#dddddd;stop-opacity:1;"/>
<stop offset="1" style="stop-color:#e6ff05;stop-opacity:1;"/>
</linearGradient>
<linearGradient id="linear1" gradientUnits="userSpaceOnUse" x1="0" y1="0" x2="0" y2="1" gradientTransform="matrix(44.972973,0,0,34.018017,14.702703,9.513514)">
<stop offset="0" style="stop-color:#05f7ff;stop-opacity:1;"/>
<stop offset="0.5" style="stop-color:#dddddd;stop-opacity:1;"/>
<stop offset="1" style="stop-color:#e6ff05;stop-opacity:1;"/>
</linearGradient>
<linearGradient id="linear2" gradientUnits="userSpaceOnUse" x1="0" y1="0" x2="0" y2="1" gradientTransform="matrix(20.216216,0,0,21.932432,33.189189,33.855855)">
<stop offset="0" style="stop-color:#05f7ff;stop-opacity:1;"/>
<stop offset="0.5" style="stop-color:#dddddd;stop-opacity:1;"/>
<stop offset="1" style="stop-color:#e6ff05;stop-opacity:1;"/>
</linearGradient>
</defs>
<g id="surface1">
<path style=" stroke:none;fill-rule:nonzero;fill:url(#linear0);" d="M 31.261719 54.300781 C 29.488281 54.496094 27.46875 54.460938 25.105469 54.488281 L 18.136719 54.488281 C 13.789062 54.433594 10.605469 54.59375 8 53.152344 C 6.699219 52.4375 5.671875 51.21875 5.105469 49.703125 C 4.53125 48.1875 4.324219 46.382812 4.324219 44.109375 L 4.324219 37.1875 C 4.324219 34.914062 4.53125 33.113281 5.105469 31.59375 C 5.671875 30.078125 6.699219 28.863281 8 28.144531 C 10.605469 26.703125 13.789062 26.863281 18.136719 26.8125 L 25.105469 26.8125 C 29.457031 26.863281 32.636719 26.703125 35.242188 28.144531 C 36.542969 28.863281 37.570312 30.078125 38.136719 31.59375 C 38.460938 32.511719 38.660156 33.476562 38.773438 34.53125 C 37.511719 34.054688 36.164062 33.511719 34.90625 32.8125 C 34.566406 31.910156 34.203125 31.527344 33.566406 31.175781 C 32.300781 30.476562 29.4375 30.324219 25.082031 30.269531 L 18.164062 30.269531 C 13.808594 30.324219 10.9375 30.476562 9.671875 31.175781 C 9.039062 31.527344 8.675781 31.910156 8.335938 32.8125 C 8 33.707031 7.785156 35.136719 7.785156 37.1875 L 7.785156 44.109375 C 7.785156 46.160156 8 47.589844 8.335938 48.488281 C 8.675781 49.386719 9.039062 49.769531 9.671875 50.121094 C 10.9375 50.820312 13.808594 50.972656 18.164062 51.027344 L 25.082031 51.027344 C 27.644531 50.996094 29.699219 50.929688 31.207031 50.738281 C 31.351562 52.109375 31.40625 52.972656 31.261719 54.300781 Z M 31.261719 54.300781 "/>
<path style=" stroke:none;fill-rule:nonzero;fill:url(#linear1);" d="M 28.515625 9.511719 C 24.164062 9.566406 20.984375 9.40625 18.378906 10.847656 C 17.078125 11.5625 16.050781 12.78125 15.484375 14.296875 C 14.910156 15.8125 14.703125 17.617188 14.703125 19.890625 L 14.703125 23.351562 L 18.164062 23.351562 L 18.164062 19.890625 C 18.164062 17.839844 18.378906 16.410156 18.714844 15.511719 C 19.054688 14.613281 19.414062 14.230469 20.050781 13.878906 C 21.3125 13.179688 24.1875 13.027344 28.539062 12.972656 L 45.835938 12.972656 C 50.191406 13.027344 53.058594 13.179688 54.324219 13.878906 C 54.960938 14.230469 55.324219 14.613281 55.664062 15.511719 C 56 16.410156 56.214844 17.839844 56.214844 19.890625 L 56.214844 33.730469 C 56.214844 35.78125 56 37.210938 55.664062 38.109375 C 55.324219 39.011719 54.960938 39.390625 54.328125 39.742188 C 53.632812 40.136719 52.429688 40.351562 50.757812 40.476562 C 51.945312 41.945312 52.863281 42.648438 54.125 43.53125 C 54.789062 43.347656 55.410156 43.105469 56 42.773438 C 57.300781 42.058594 58.328125 40.839844 58.894531 39.324219 C 59.46875 37.808594 59.675781 36.003906 59.675781 33.730469 L 59.675781 19.890625 C 59.675781 17.617188 59.46875 15.8125 58.894531 14.296875 C 58.328125 12.78125 57.300781 11.5625 56 10.847656 C 53.394531 9.40625 50.210938 9.566406 45.863281 9.511719 Z M 28.515625 9.511719 "/>
<path style=" stroke:none;fill-rule:nonzero;fill:url(#linear2);" d="M 33.1875 33.855469 L 33.1875 55.789062 C 33.1875 55.789062 44.3125 51.289062 53.40625 44.8125 C 53.40625 44.8125 53.40625 44.8125 53.40625 44.808594 C 53.40625 44.800781 53.402344 44.800781 53.402344 44.800781 C 53.394531 44.796875 53.394531 44.796875 53.390625 44.792969 C 53.390625 44.789062 53.390625 44.789062 53.390625 44.789062 C 43.800781 38.105469 33.1875 33.855469 33.1875 33.855469 Z M 33.1875 33.855469 "/>
</g>
</svg>
