<svg xmlns="http://www.w3.org/2000/svg" xmlns:xlink="http://www.w3.org/1999/xlink" width="64px" height="64px" viewBox="0 0 64 64" version="1.1">
<defs>
<linearGradient id="linear0" gradientUnits="userSpaceOnUse" x1="0" y1="0" x2="0" y2="1" gradientTransform="matrix(51.891892,0,0,12.972973,6.054054,22.486486)">
<stop offset="0" style="stop-color:#ffae00;stop-opacity:1;"/>
<stop offset="0.5" style="stop-color:#dddddd;stop-opacity:1;"/>
<stop offset="1" style="stop-color:#bf1d1d;stop-opacity:1;"/>
</linearGradient>
</defs>
<g id="surface1">
<path style=" stroke:none;fill-rule:nonzero;fill:url(#linear0);" d="M 7.6875 22.488281 C 6.785156 22.488281 6.054688 23.042969 6.054688 23.734375 L 6.054688 34.210938 C 6.054688 34.902344 6.785156 35.460938 7.6875 35.460938 L 17.394531 35.460938 C 18.292969 35.460938 19.027344 34.894531 19.027344 34.210938 L 19.027344 23.734375 C 19.027344 23.042969 18.292969 22.488281 17.394531 22.488281 Z M 27.144531 22.488281 C 26.242188 22.488281 25.511719 23.042969 25.511719 23.734375 L 25.511719 34.210938 C 25.511719 34.902344 26.242188 35.460938 27.144531 35.460938 L 36.855469 35.460938 C 37.753906 35.460938 38.488281 34.894531 38.488281 34.210938 L 38.488281 23.734375 C 38.488281 23.042969 37.753906 22.488281 36.855469 22.488281 Z M 46.605469 22.488281 C 45.703125 22.488281 44.972656 23.042969 44.972656 23.734375 L 44.972656 34.210938 C 44.972656 34.902344 45.703125 35.460938 46.605469 35.460938 L 56.3125 35.460938 C 57.210938 35.460938 57.945312 34.894531 57.945312 34.210938 L 57.945312 23.734375 C 57.945312 23.042969 57.210938 22.488281 56.3125 22.488281 Z M 46.605469 22.488281 "/>
</g>
</svg>
