<svg xmlns="http://www.w3.org/2000/svg" xmlns:xlink="http://www.w3.org/1999/xlink" width="64px" height="64px" viewBox="0 0 64 64" version="1.1">
<defs>
<linearGradient id="linear0" gradientUnits="userSpaceOnUse" x1="0" y1="0" x2="0" y2="1" gradientTransform="matrix(55.351351,0,0,55.351351,4.324324,4.324324)">
<stop offset="0" style="stop-color:#ffae00;stop-opacity:1;"/>
<stop offset="0.5" style="stop-color:#dddddd;stop-opacity:1;"/>
<stop offset="1" style="stop-color:#bf1d1d;stop-opacity:1;"/>
</linearGradient>
</defs>
<g id="surface1">
<path style=" stroke:none;fill-rule:nonzero;fill:url(#linear0);" d="M 32 4.324219 C 16.738281 4.324219 4.324219 16.738281 4.324219 32 C 4.324219 47.261719 16.738281 59.675781 32 59.675781 C 47.261719 59.675781 59.675781 47.261719 59.675781 32 C 59.675781 16.738281 47.261719 4.324219 32 4.324219 Z M 32 7.785156 C 45.394531 7.785156 56.214844 18.605469 56.214844 32 C 56.214844 45.394531 45.394531 56.214844 32 56.214844 C 18.605469 56.214844 7.785156 45.394531 7.785156 32 C 7.785156 18.605469 18.605469 7.785156 32 7.785156 Z M 25.003906 19.878906 C 23.597656 19.988281 22.484375 23.058594 22.488281 26.800781 C 22.488281 36.039062 27.675781 36.039062 27.675781 26.800781 C 27.675781 22.902344 26.46875 19.765625 25.011719 19.878906 Z M 38.839844 19.878906 C 37.4375 19.988281 36.320312 23.058594 36.324219 26.800781 C 36.324219 36.039062 41.511719 36.039062 41.511719 26.800781 C 41.511719 22.902344 40.308594 19.765625 38.847656 19.878906 Z M 22.226562 38.328125 L 19.78125 40.773438 C 23.015625 44.023438 27.414062 45.847656 32 45.851562 C 36.585938 45.847656 40.984375 44.023438 44.21875 40.773438 L 41.773438 38.328125 C 39.1875 40.929688 35.664062 42.386719 32 42.390625 C 28.335938 42.386719 24.8125 40.929688 22.226562 38.328125 Z M 22.226562 38.328125 "/>
</g>
</svg>
