<svg xmlns="http://www.w3.org/2000/svg" xmlns:xlink="http://www.w3.org/1999/xlink" width="64px" height="64px" viewBox="0 0 64 64" version="1.1">
<defs>
<linearGradient id="linear0" gradientUnits="userSpaceOnUse" x1="0" y1="0" x2="0" y2="1" gradientTransform="matrix(55.351351,0,0,55.351351,4.324324,4.324324)">
<stop offset="0" style="stop-color:#00a2ff;stop-opacity:1;"/>
<stop offset="0.5" style="stop-color:#dddddd;stop-opacity:1;"/>
<stop offset="1" style="stop-color:#00ffae;stop-opacity:1;"/>
</linearGradient>
</defs>
<g id="surface1">
<path style=" stroke:none;fill-rule:evenodd;fill:url(#linear0);" d="M 32 4.324219 C 29.191406 7.089844 26.511719 10.242188 23.671875 12.996094 L 12.996094 12.996094 L 12.996094 23.671875 C 10.238281 26.511719 7.089844 29.191406 4.324219 32 C 7.089844 34.808594 10.242188 37.59375 12.996094 40.441406 L 12.996094 51.003906 L 23.671875 51.003906 C 26.511719 53.757812 29.191406 56.910156 32 59.675781 C 34.808594 56.910156 37.59375 53.757812 40.441406 51.003906 L 51.003906 51.003906 L 51.003906 40.4375 C 53.757812 37.589844 56.910156 34.808594 59.675781 32 C 56.910156 29.191406 53.757812 26.511719 51.003906 23.671875 L 51.003906 12.996094 L 40.441406 12.996094 C 37.597656 10.242188 34.808594 7.089844 32 4.324219 Z M 31.941406 15.960938 C 23.542969 15.960938 16.738281 22.769531 16.738281 31.171875 C 16.738281 39.566406 23.542969 46.375 31.941406 46.375 Z M 31.941406 15.960938 "/>
</g>
</svg>
