<svg xmlns="http://www.w3.org/2000/svg" xmlns:xlink="http://www.w3.org/1999/xlink" width="64px" height="64px" viewBox="0 0 64 64" version="1.1">
<g id="surface1">
<path style=" stroke:none;fill-rule:nonzero;fill:rgb(94.901961%,94.901961%,94.901961%);fill-opacity:1;" d="M 16.433594 9.511719 L 47.566406 9.511719 C 51.386719 9.511719 54.488281 12.613281 54.488281 16.433594 L 54.488281 47.566406 C 54.488281 51.386719 51.386719 54.488281 47.566406 54.488281 L 16.433594 54.488281 C 12.613281 54.488281 9.511719 51.386719 9.511719 47.566406 L 9.511719 16.433594 C 9.511719 12.613281 12.613281 9.511719 16.433594 9.511719 Z M 16.433594 9.511719 "/>
<path style=" stroke:none;fill-rule:nonzero;fill:rgb(27.843139%,30.980393%,31.37255%);fill-opacity:1;" d="M 31.460938 17.488281 L 22.8125 24.40625 L 22.488281 25.082031 L 22.488281 35.042969 L 14.164062 41.703125 L 15.242188 43.054688 L 23.351562 36.566406 L 31.460938 43.054688 L 32.539062 41.703125 L 24.214844 35.042969 L 24.214844 25.496094 L 32 19.269531 L 39.785156 25.496094 L 39.785156 35.460938 L 40.109375 36.136719 L 48.757812 43.054688 L 49.835938 41.703125 L 41.511719 35.042969 L 41.511719 25.082031 L 41.1875 24.40625 L 32.539062 17.488281 Z M 31.460938 17.488281 "/>
<path style=" stroke:none;fill-rule:nonzero;fill:rgb(88.235295%,43.137255%,48.235294%);fill-opacity:1;" d="M 28.109375 12.109375 L 35.890625 12.109375 C 36.609375 12.109375 37.1875 12.6875 37.1875 13.40625 L 37.1875 21.1875 C 37.1875 21.90625 36.609375 22.488281 35.890625 22.488281 L 28.109375 22.488281 C 27.390625 22.488281 26.8125 21.90625 26.8125 21.1875 L 26.8125 13.40625 C 26.8125 12.6875 27.390625 12.109375 28.109375 12.109375 Z M 28.109375 12.109375 "/>
<path style=" stroke:none;fill-rule:nonzero;fill:rgb(65.490198%,47.450981%,74.509805%);fill-opacity:1;" d="M 19.460938 24.214844 L 27.242188 24.214844 C 27.960938 24.214844 28.539062 24.796875 28.539062 25.511719 L 28.539062 33.296875 C 28.539062 34.011719 27.960938 34.59375 27.242188 34.59375 L 19.460938 34.59375 C 18.742188 34.59375 18.164062 34.011719 18.164062 33.296875 L 18.164062 25.511719 C 18.164062 24.796875 18.742188 24.214844 19.460938 24.214844 Z M 19.460938 24.214844 "/>
<path style=" stroke:none;fill-rule:nonzero;fill:rgb(65.490198%,47.450981%,74.509805%);fill-opacity:1;" d="M 36.757812 24.214844 L 44.539062 24.214844 C 45.257812 24.214844 45.835938 24.796875 45.835938 25.511719 L 45.835938 33.296875 C 45.835938 34.011719 45.257812 34.59375 44.539062 34.59375 L 36.757812 34.59375 C 36.039062 34.59375 35.460938 34.011719 35.460938 33.296875 L 35.460938 25.511719 C 35.460938 24.796875 36.039062 24.214844 36.757812 24.214844 Z M 36.757812 24.214844 "/>
<path style=" stroke:none;fill-rule:nonzero;fill:rgb(34.509805%,69.01961%,44.705883%);fill-opacity:1;" d="M 41.945312 40.648438 L 49.730469 40.648438 C 50.445312 40.648438 51.027344 41.230469 51.027344 41.945312 L 51.027344 49.730469 C 51.027344 50.445312 50.445312 51.027344 49.730469 51.027344 L 41.945312 51.027344 C 41.230469 51.027344 40.648438 50.445312 40.648438 49.730469 L 40.648438 41.945312 C 40.648438 41.230469 41.230469 40.648438 41.945312 40.648438 Z M 41.945312 40.648438 "/>
<path style=" stroke:none;fill-rule:nonzero;fill:rgb(34.509805%,69.01961%,44.705883%);fill-opacity:1;" d="M 28.109375 40.648438 L 35.890625 40.648438 C 36.609375 40.648438 37.1875 41.230469 37.1875 41.945312 L 37.1875 49.730469 C 37.1875 50.445312 36.609375 51.027344 35.890625 51.027344 L 28.109375 51.027344 C 27.390625 51.027344 26.8125 50.445312 26.8125 49.730469 L 26.8125 41.945312 C 26.8125 41.230469 27.390625 40.648438 28.109375 40.648438 Z M 28.109375 40.648438 "/>
<path style=" stroke:none;fill-rule:nonzero;fill:rgb(34.509805%,69.01961%,44.705883%);fill-opacity:1;" d="M 14.269531 40.648438 L 22.054688 40.648438 C 22.769531 40.648438 23.351562 41.230469 23.351562 41.945312 L 23.351562 49.730469 C 23.351562 50.445312 22.769531 51.027344 22.054688 51.027344 L 14.269531 51.027344 C 13.554688 51.027344 12.972656 50.445312 12.972656 49.730469 L 12.972656 41.945312 C 12.972656 41.230469 13.554688 40.648438 14.269531 40.648438 Z M 14.269531 40.648438 "/>
</g>
</svg>
