<svg xmlns="http://www.w3.org/2000/svg" xmlns:xlink="http://www.w3.org/1999/xlink" width="64px" height="64px" viewBox="0 0 64 64" version="1.1">
<defs>
<linearGradient id="linear0" gradientUnits="userSpaceOnUse" x1="0" y1="0" x2="0" y2="1" gradientTransform="matrix(47.441443,0,0,55.351351,8.279279,4.324324)">
<stop offset="0" style="stop-color:#00b7ff;stop-opacity:1;"/>
<stop offset="0.5" style="stop-color:#dddddd;stop-opacity:1;"/>
<stop offset="1" style="stop-color:#ee42d9;stop-opacity:1;"/>
</linearGradient>
</defs>
<g id="surface1">
<path style=" stroke:none;fill-rule:nonzero;fill:url(#linear0);" d="M 20.6875 4.324219 C 18.414062 4.324219 16.578125 6.085938 16.578125 8.28125 L 16.578125 12.230469 C 16.578125 14.421875 18.414062 16.1875 20.6875 16.1875 L 24.800781 16.1875 C 27.082031 16.1875 28.917969 14.421875 28.917969 12.230469 L 28.917969 8.28125 C 28.917969 6.085938 27.082031 4.324219 24.800781 4.324219 Z M 18.746094 20.136719 L 16.578125 21.652344 L 8.566406 37.050781 C 7.191406 39.460938 11.078125 41.320312 12.246094 38.8125 L 16.578125 30.488281 L 18.136719 26.039062 L 16.578125 39.90625 L 16.578125 59.675781 L 20.6875 59.675781 L 20.6875 43.863281 L 24.800781 43.863281 L 24.800781 59.675781 L 28.917969 59.675781 L 28.917969 39.90625 L 26.742188 26.023438 L 28.917969 30.488281 L 33.246094 38.8125 C 33.445312 39.191406 33.769531 39.503906 34.171875 39.699219 L 41.257812 43.105469 L 41.257812 59.675781 L 49.484375 59.675781 L 49.484375 46.660156 L 52.136719 49.214844 C 54.082031 51.152344 57.066406 48.28125 55.050781 46.414062 L 49.484375 41.066406 L 49.484375 39.90625 L 43.792969 39.90625 L 36.621094 36.457031 L 28.917969 21.652344 L 26.066406 20.136719 Z M 41.257812 28.042969 L 41.257812 35.957031 L 49.484375 35.957031 L 49.484375 28.042969 Z M 41.257812 28.042969 "/>
</g>
</svg>
