<svg xmlns="http://www.w3.org/2000/svg" xmlns:xlink="http://www.w3.org/1999/xlink" width="64px" height="64px" viewBox="0 0 64 64" version="1.1">
<g id="surface1">
<path style=" stroke:none;fill-rule:nonzero;fill:rgb(35.294119%,84.705883%,36.470589%);fill-opacity:1;" d="M 39.9375 12.972656 L 51.738281 12.972656 C 52.300781 12.972656 52.757812 13.429688 52.757812 13.992188 L 52.757812 26.65625 C 52.757812 27.21875 52.300781 27.675781 51.738281 27.675781 L 39.9375 27.675781 C 39.375 27.675781 38.917969 27.21875 38.917969 26.65625 L 38.917969 13.992188 C 38.917969 13.429688 39.375 12.972656 39.9375 12.972656 Z M 39.9375 12.972656 "/>
<path style=" stroke:none;fill-rule:nonzero;fill:rgb(100%,34.509805%,29.803923%);fill-opacity:1;" d="M 40.066406 24.214844 L 51.609375 24.214844 C 52.242188 24.214844 52.757812 24.730469 52.757812 25.363281 L 52.757812 37.773438 C 52.757812 38.40625 52.242188 38.917969 51.609375 38.917969 L 40.066406 38.917969 C 39.433594 38.917969 38.917969 38.40625 38.917969 37.773438 L 38.917969 25.363281 C 38.917969 24.730469 39.433594 24.214844 40.066406 24.214844 Z M 40.066406 24.214844 "/>
<path style=" stroke:none;fill-rule:nonzero;fill:rgb(100%,80.784315%,23.921569%);fill-opacity:1;" d="M 40 36.324219 L 51.671875 36.324219 C 52.269531 36.324219 52.757812 36.8125 52.757812 37.410156 L 52.757812 49.082031 C 52.757812 49.679688 52.269531 50.164062 51.671875 50.164062 L 40 50.164062 C 39.402344 50.164062 38.917969 49.679688 38.917969 49.082031 L 38.917969 37.410156 C 38.917969 36.8125 39.402344 36.324219 40 36.324219 Z M 40 36.324219 "/>
<path style=" stroke:none;fill-rule:nonzero;fill:rgb(21.960784%,49.803922%,90.588236%);fill-opacity:1;" d="M 15.59375 54.511719 L 46.679688 54.511719 C 49.082031 54.511719 51.03125 52.5625 51.03125 50.164062 L 51.03125 13.890625 C 51.03125 11.488281 49.082031 9.539062 46.679688 9.539062 L 15.59375 9.539062 C 13.191406 9.539062 11.242188 11.488281 11.242188 13.890625 L 11.242188 50.164062 C 11.242188 52.5625 13.191406 54.511719 15.59375 54.511719 Z M 15.59375 54.511719 "/>
<path style=" stroke:none;fill-rule:nonzero;fill:rgb(100%,100%,100%);fill-opacity:1;" d="M 38.921875 30.273438 C 37.011719 30.273438 35.460938 31.820312 35.460938 33.734375 L 35.460938 37.191406 L 33.734375 37.191406 L 33.734375 44.113281 L 44.113281 44.113281 L 44.113281 37.191406 L 42.382812 37.191406 L 42.382812 33.734375 C 42.382812 31.820312 40.832031 30.273438 38.921875 30.273438 Z M 38.921875 32.003906 C 39.875 32.003906 40.652344 32.777344 40.652344 33.734375 L 40.652344 37.191406 L 37.191406 37.191406 L 37.191406 33.734375 C 37.191406 32.777344 37.964844 32.003906 38.921875 32.003906 Z M 30.273438 32.003906 C 23.5625 32.003906 18.164062 37.402344 18.164062 44.113281 L 32.003906 44.113281 L 32.003906 42.382812 L 20.050781 42.382812 C 20.878906 37.382812 25.207031 33.722656 30.273438 33.734375 C 30.863281 33.734375 31.441406 33.792969 32.003906 33.902344 L 32.003906 32.152344 C 31.429688 32.058594 30.851562 32.007812 30.273438 32.003906 Z M 30.273438 19.894531 C 27.398438 19.894531 25.085938 22.210938 25.085938 25.085938 C 25.085938 27.957031 27.398438 30.273438 30.273438 30.273438 C 33.144531 30.273438 35.460938 27.957031 35.460938 25.085938 C 35.460938 22.210938 33.144531 19.894531 30.273438 19.894531 Z M 30.273438 21.625 C 32.1875 21.625 33.734375 23.164062 33.734375 25.085938 C 33.734375 27 32.1875 28.542969 30.273438 28.542969 C 28.355469 28.542969 26.8125 27 26.8125 25.085938 C 26.8125 23.164062 28.355469 21.625 30.273438 21.625 Z M 30.273438 21.625 "/>
</g>
</svg>
