<svg xmlns="http://www.w3.org/2000/svg" xmlns:xlink="http://www.w3.org/1999/xlink" width="64px" height="64px" viewBox="0 0 64 64" version="1.1">
<g id="surface1">
<path style=" stroke:none;fill-rule:nonzero;fill:rgb(11.764706%,65.882355%,96.862745%);fill-opacity:1;" d="M 32 8.648438 C 44.894531 8.648438 55.351562 19.105469 55.351562 32 C 55.351562 44.894531 44.894531 55.351562 32 55.351562 C 19.105469 55.351562 8.648438 44.894531 8.648438 32 C 8.648438 19.105469 19.105469 8.648438 32 8.648438 Z M 32 8.648438 "/>
<path style=" stroke:none;fill-rule:nonzero;fill:rgb(100%,100%,100%);fill-opacity:1;" d="M 32 19.890625 C 28.644531 19.890625 25.945312 22.589844 25.945312 25.945312 C 25.945312 29.300781 28.644531 32 32 32 C 35.355469 32 38.054688 29.300781 38.054688 25.945312 C 38.054688 22.589844 35.355469 19.890625 32 19.890625 Z M 32 32 C 25.289062 32 19.890625 37.398438 19.890625 44.109375 L 33.730469 44.109375 L 33.730469 42.378906 L 21.777344 42.378906 C 22.609375 37.382812 26.9375 33.71875 32 33.730469 C 32.621094 33.730469 33.222656 33.792969 33.808594 33.910156 L 34.257812 32.226562 C 33.511719 32.078125 32.757812 32 32 32 Z M 32 21.621094 C 34.394531 21.621094 36.324219 23.550781 36.324219 25.945312 C 36.324219 28.339844 34.394531 30.269531 32 30.269531 C 29.605469 30.269531 27.675781 28.339844 27.675781 25.945312 C 27.675781 23.550781 29.605469 21.621094 32 21.621094 Z M 32 21.621094 "/>
<path style=" stroke:none;fill-rule:nonzero;fill:rgb(100%,100%,100%);fill-opacity:1;" d="M 42.378906 33.730469 L 42.378906 44.109375 L 44.109375 44.109375 L 44.109375 33.730469 Z M 42.378906 33.730469 "/>
<path style=" stroke:none;fill-rule:nonzero;fill:rgb(100%,100%,100%);fill-opacity:1;" d="M 35.460938 42.378906 L 45.835938 42.378906 L 45.835938 40.648438 L 35.460938 40.648438 Z M 35.460938 37.1875 L 45.835938 37.1875 L 45.835938 35.460938 L 35.460938 35.460938 Z M 35.460938 37.1875 "/>
<path style=" stroke:none;fill-rule:nonzero;fill:rgb(100%,100%,100%);fill-opacity:1;" d="M 37.1875 33.730469 L 37.1875 44.109375 L 38.917969 44.109375 L 38.917969 33.730469 Z M 37.1875 33.730469 "/>
</g>
</svg>
