<svg xmlns="http://www.w3.org/2000/svg" xmlns:xlink="http://www.w3.org/1999/xlink" width="64px" height="64px" viewBox="0 0 64 64" version="1.1">
<g id="surface1">
<path style=" stroke:none;fill-rule:nonzero;fill:rgb(92.54902%,92.54902%,92.54902%);fill-opacity:1;" d="M 12.972656 8.648438 L 51.027344 8.648438 C 51.988281 8.648438 52.757812 9.449219 52.757812 10.449219 L 52.757812 53.558594 C 52.757812 54.550781 51.988281 55.351562 51.023438 55.351562 L 12.976562 55.351562 C 12.515625 55.355469 12.074219 55.164062 11.75 54.828125 C 11.421875 54.488281 11.238281 54.03125 11.242188 53.554688 L 11.242188 10.445312 C 11.242188 9.449219 12.015625 8.648438 12.976562 8.648438 Z M 12.972656 8.648438 "/>
<path style=" stroke:none;fill-rule:evenodd;fill:rgb(70.19608%,70.19608%,70.19608%);fill-opacity:1;" d="M 14.703125 12.972656 L 14.703125 21.621094 L 23.351562 21.621094 L 23.351562 12.972656 Z M 16.429688 14.703125 L 18.160156 14.703125 L 18.160156 16.433594 L 19.886719 16.433594 L 19.886719 14.703125 L 21.617188 14.703125 L 21.617188 16.433594 L 19.886719 16.433594 L 19.886719 18.164062 L 21.617188 18.164062 L 21.617188 19.890625 L 19.886719 19.890625 L 19.886719 18.164062 L 18.160156 18.164062 L 18.160156 19.890625 L 16.429688 19.890625 Z M 26.808594 12.972656 L 26.808594 14.703125 L 49.292969 14.703125 L 49.292969 12.972656 Z M 26.808594 18.164062 L 26.808594 19.890625 L 49.292969 19.890625 L 49.292969 18.164062 Z M 14.703125 23.351562 L 14.703125 25.082031 L 28.539062 25.082031 L 28.539062 23.351562 Z M 32 23.351562 L 32 40.648438 L 49.296875 40.648438 L 49.296875 23.351562 Z M 33.730469 25.082031 L 47.566406 25.082031 L 47.566406 38.917969 L 33.730469 38.917969 Z M 14.703125 28.539062 L 14.703125 30.269531 L 28.539062 30.269531 L 28.539062 28.539062 Z M 14.703125 33.730469 L 14.703125 35.460938 L 28.539062 35.460938 L 28.539062 33.730469 Z M 14.703125 38.917969 L 14.703125 40.648438 L 28.539062 40.648438 L 28.539062 38.917969 Z M 14.703125 44.109375 L 14.703125 45.835938 L 49.296875 45.835938 L 49.296875 44.109375 Z M 14.703125 49.296875 L 14.703125 51.027344 L 49.296875 51.027344 L 49.296875 49.296875 Z M 14.703125 49.296875 "/>
<path style=" stroke:none;fill-rule:evenodd;fill:rgb(48.627451%,81.960785%,80.000001%);fill-opacity:1;" d="M 35.457031 26.808594 L 45.835938 26.808594 L 45.835938 37.191406 L 35.457031 37.191406 Z M 35.457031 26.808594 "/>
</g>
</svg>
