<svg xmlns="http://www.w3.org/2000/svg" xmlns:xlink="http://www.w3.org/1999/xlink" width="64px" height="64px" viewBox="0 0 64 64" version="1.1">
<defs>
<linearGradient id="linear0" gradientUnits="userSpaceOnUse" x1="0" y1="0" x2="0" y2="1" gradientTransform="matrix(55.351351,0,0,41.513514,4.324324,11.243243)">
<stop offset="0" style="stop-color:#ffae00;stop-opacity:1;"/>
<stop offset="0.5" style="stop-color:#dddddd;stop-opacity:1;"/>
<stop offset="1" style="stop-color:#bf1d1d;stop-opacity:1;"/>
</linearGradient>
</defs>
<g id="surface1">
<path style=" stroke:none;fill-rule:nonzero;fill:url(#linear0);" d="M 34.214844 11.242188 C 26.746094 11.253906 20.40625 16.117188 17.367188 23.082031 L 17.164062 23.558594 L 16.679688 23.59375 C 9.785156 24.125 4.324219 30.445312 4.324219 38.132812 C 4.324219 46.164062 10.261719 52.757812 17.597656 52.757812 L 49.71875 52.757812 C 55.226562 52.757812 59.675781 47.8125 59.675781 41.8125 C 59.6875 37.445312 57.230469 33.496094 53.433594 31.792969 L 52.960938 31.578125 L 52.921875 31.039062 C 52.457031 20.066406 44.320312 11.253906 34.230469 11.242188 Z M 34.214844 14.90625 C 42.40625 14.914062 49.0625 22.058594 49.457031 31.199219 L 49.457031 31.234375 L 49.625 34.078125 L 52.0625 35.164062 C 54.589844 36.28125 56.226562 38.910156 56.191406 41.8125 C 56.230469 45.890625 53.269531 49.09375 49.726562 49.09375 L 17.597656 49.09375 C 12.214844 49.09375 7.78125 44.257812 7.78125 38.132812 C 7.78125 32.285156 11.878906 27.636719 16.933594 27.242188 L 19.429688 27.058594 L 20.5 24.632812 L 20.5 24.617188 C 23.027344 18.828125 28.164062 14.914062 34.207031 14.90625 Z M 34.214844 14.90625 "/>
</g>
</svg>
