<svg xmlns="http://www.w3.org/2000/svg" xmlns:xlink="http://www.w3.org/1999/xlink" width="64px" height="64px" viewBox="0 0 64 64" version="1.1">
<defs>
<linearGradient id="linear0" gradientUnits="userSpaceOnUse" x1="0" y1="0" x2="0" y2="1" gradientTransform="matrix(55.351351,0,0,55.351351,4.324324,4.324324)">
<stop offset="0" style="stop-color:#00b7ff;stop-opacity:1;"/>
<stop offset="0.5" style="stop-color:#dddddd;stop-opacity:1;"/>
<stop offset="1" style="stop-color:#ee42d9;stop-opacity:1;"/>
</linearGradient>
</defs>
<g id="surface1">
<path style=" stroke:none;fill-rule:nonzero;fill:url(#linear0);" d="M 8.367188 36.171875 C 2.976562 41.5625 2.976562 50.242188 8.367188 55.632812 C 13.757812 61.023438 22.4375 61.023438 27.828125 55.632812 L 29.21875 54.242188 L 26.441406 51.460938 L 25.050781 52.851562 C 21.199219 56.703125 15 56.703125 11.148438 52.851562 C 7.296875 49 7.296875 42.800781 11.148438 38.949219 L 38.949219 11.148438 C 42.800781 7.296875 49 7.296875 52.851562 11.148438 C 56.703125 15 56.703125 21.199219 52.851562 25.050781 L 36.171875 41.730469 C 33.863281 44.039062 30.136719 44.039062 27.828125 41.730469 C 25.515625 39.417969 25.515625 35.703125 27.828125 33.390625 L 34.78125 26.441406 L 32 23.660156 L 25.050781 30.609375 C 21.199219 34.460938 21.199219 40.664062 25.050781 44.511719 C 28.902344 48.363281 35.097656 48.363281 38.949219 44.511719 L 42.308594 41.152344 L 47.292969 36.171875 L 55.632812 27.828125 C 61.023438 22.4375 61.023438 13.757812 55.632812 8.367188 C 50.242188 2.976562 41.5625 2.976562 36.171875 8.367188 Z M 8.367188 36.171875 "/>
</g>
</svg>
