<svg xmlns="http://www.w3.org/2000/svg" xmlns:xlink="http://www.w3.org/1999/xlink" width="64px" height="64px" viewBox="0 0 64 64" version="1.1">
<defs>
<linearGradient id="linear0" gradientUnits="userSpaceOnUse" x1="0" y1="0" x2="0" y2="1" gradientTransform="matrix(55.351351,0,0,53.495497,4.324324,5.252252)">
<stop offset="0" style="stop-color:#00fff2;stop-opacity:1;"/>
<stop offset="0.5" style="stop-color:#dddddd;stop-opacity:1;"/>
<stop offset="1" style="stop-color:#0062ff;stop-opacity:1;"/>
</linearGradient>
</defs>
<g id="surface1">
<path style=" stroke:none;fill-rule:evenodd;fill:url(#linear0);" d="M 24.675781 9.347656 C 28.246094 6.671875 32.4375 5.253906 36.746094 5.253906 C 42.828125 5.253906 48.664062 8.070312 52.960938 13.085938 C 57.261719 18.105469 59.675781 24.90625 59.675781 32 C 59.675781 39.09375 57.261719 45.894531 52.960938 50.914062 C 48.664062 55.929688 42.828125 58.746094 36.746094 58.746094 C 32.542969 58.746094 28.460938 57.402344 24.941406 54.855469 C 24.714844 55.664062 24.265625 56.386719 23.671875 56.984375 C 22.589844 58.0625 21.125 58.664062 19.609375 58.664062 C 18.089844 58.664062 16.636719 58.0625 15.558594 56.984375 C 14.488281 55.910156 13.875 54.449219 13.875 52.933594 L 13.875 33.839844 C 13.839844 33.230469 13.824219 32.617188 13.824219 32 C 13.824219 31.382812 13.839844 30.765625 13.875 30.152344 L 13.875 24.726562 C 12.769531 25.726562 11.3125 26.242188 9.820312 26.1875 C 8.328125 26.117188 6.921875 25.476562 5.890625 24.402344 C 4.867188 23.3125 4.308594 21.867188 4.324219 20.378906 C 4.351562 18.886719 4.957031 17.457031 6.003906 16.402344 L 13.179688 9.226562 C 18.511719 3.902344 23.039062 4.226562 24.675781 9.347656 Z M 25.339844 33.542969 C 25.957031 42.089844 31.617188 47.285156 36.746094 47.285156 C 42.1875 47.285156 48.210938 41.460938 48.210938 32 C 48.210938 22.539062 42.1875 16.714844 36.746094 16.714844 C 31.617188 16.714844 25.957031 21.910156 25.339844 30.457031 Z M 25.339844 33.542969 "/>
</g>
</svg>
