<svg xmlns="http://www.w3.org/2000/svg" xmlns:xlink="http://www.w3.org/1999/xlink" width="64px" height="64px" viewBox="0 0 64 64" version="1.1">
<defs>
<linearGradient id="linear0" gradientUnits="userSpaceOnUse" x1="0" y1="0" x2="0" y2="1" gradientTransform="matrix(49.405405,0,0,51.891892,7.783784,6.054054)">
<stop offset="0" style="stop-color:#ff8963;stop-opacity:1;"/>
<stop offset="0.5" style="stop-color:#dddddd;stop-opacity:1;"/>
<stop offset="1" style="stop-color:#0F6FFF;stop-opacity:1;"/>
</linearGradient>
</defs>
<g id="surface1">
<path style=" stroke:none;fill-rule:nonzero;fill:url(#linear0);" d="M 34.59375 55.597656 C 33.664062 54.207031 32.910156 52.867188 32.910156 52.625 C 32.910156 52.382812 34.578125 51.941406 36.613281 51.644531 C 43.199219 50.6875 48.636719 47.367188 50.070312 43.441406 C 52.230469 37.515625 48.46875 31.527344 41.730469 30.152344 C 40.578125 29.917969 40.363281 30.160156 38.761719 33.339844 C 36.527344 37.8125 33.824219 41.789062 30.921875 44.886719 C 28.835938 47.109375 28.625 47.527344 28.910156 48.863281 C 29.882812 53.4375 30.027344 53.070312 26.757812 54.417969 L 23.789062 55.636719 L 23.511719 54.363281 C 23.03125 52.152344 22.726562 51.960938 21.085938 52.890625 C 17.121094 55.125 12.058594 55.261719 9.828125 53.199219 C 5.945312 49.59375 7.792969 40.691406 13.664062 34.714844 C 15.117188 33.242188 17.488281 31.273438 18.945312 30.351562 L 21.59375 28.664062 L 21.929688 25.097656 C 22.113281 23.136719 22.113281 21.386719 21.933594 21.207031 C 21.753906 21.027344 19.199219 20.949219 16.261719 21.042969 L 10.917969 21.210938 L 10.914062 19.171875 C 10.910156 18.050781 10.78125 16.664062 10.625 16.09375 C 10.351562 15.066406 10.410156 15.054688 16.351562 14.921875 L 22.355469 14.792969 L 23.039062 10.421875 L 23.71875 6.054688 L 25.097656 6.328125 C 25.855469 6.484375 27.253906 6.605469 28.203125 6.605469 L 29.929688 6.605469 L 29.539062 10.1875 C 29.328125 12.160156 29.265625 13.878906 29.402344 14.011719 C 29.726562 14.335938 35.824219 13.421875 41.300781 12.234375 C 46.386719 11.125 46.460938 11.164062 46.472656 14.847656 L 46.484375 17.238281 L 39.8125 18.46875 C 36.144531 19.148438 32.09375 19.863281 30.808594 20.058594 L 28.46875 20.414062 L 28.324219 23.160156 C 28.1875 25.894531 28.1875 25.90625 29.378906 25.605469 C 30.039062 25.441406 31.570312 25.175781 32.792969 25.011719 C 35.542969 24.660156 36.082031 24.246094 36.460938 22.234375 C 36.796875 20.449219 36.863281 20.433594 40.5625 21.175781 L 43.226562 21.710938 L 42.933594 23.253906 C 42.652344 24.742188 42.707031 24.808594 44.445312 25.125 C 49.773438 26.109375 55.148438 30.660156 56.511719 35.335938 C 58.570312 42.441406 55.855469 49.78125 49.730469 53.648438 C 47.414062 55.109375 42.910156 56.921875 40.605469 57.320312 C 39.589844 57.496094 38.203125 57.753906 37.515625 57.886719 C 36.429688 58.105469 36.066406 57.820312 34.59375 55.597656 Z M 16.960938 48.261719 C 17.839844 48.011719 19.390625 47.226562 20.414062 46.515625 L 22.269531 45.234375 L 21.945312 40.550781 C 21.769531 37.976562 21.511719 35.761719 21.375 35.625 C 20.960938 35.226562 16.308594 40.488281 15.417969 42.351562 C 14.054688 45.234375 13.824219 48.714844 15 48.714844 C 15.203125 48.714844 16.089844 48.511719 16.960938 48.261719 Z M 29.839844 36.902344 C 30.339844 36.066406 31.339844 34.246094 32.0625 32.863281 L 33.375 30.347656 L 31.855469 30.597656 C 31.023438 30.738281 29.757812 31.082031 29.050781 31.351562 C 27.8125 31.828125 27.765625 31.984375 27.765625 35.136719 C 27.765625 38.863281 28.363281 39.367188 29.839844 36.902344 Z M 29.839844 36.902344 "/>
</g>
</svg>
