<svg xmlns="http://www.w3.org/2000/svg" xmlns:xlink="http://www.w3.org/1999/xlink" width="64px" height="64px" viewBox="0 0 64 64" version="1.1">
<defs>
<linearGradient id="linear0" gradientUnits="userSpaceOnUse" x1="0" y1="0" x2="0" y2="1" gradientTransform="matrix(55.351351,0,0,34.225226,4.324324,14.887388)">
<stop offset="0" style="stop-color:#ffae00;stop-opacity:1;"/>
<stop offset="0.5" style="stop-color:#dddddd;stop-opacity:1;"/>
<stop offset="1" style="stop-color:#bf1d1d;stop-opacity:1;"/>
</linearGradient>
</defs>
<g id="surface1">
<path style=" stroke:none;fill-rule:evenodd;fill:url(#linear0);" d="M 16.230469 44.839844 L 16.230469 49.113281 C 13.441406 49.054688 11.253906 48.21875 9.671875 46.609375 C 8.085938 44.996094 7.292969 42.664062 7.292969 39.597656 L 7.292969 37.078125 C 7.292969 36.160156 7.117188 35.433594 6.761719 34.90625 C 6.410156 34.378906 5.910156 34.113281 5.257812 34.113281 L 4.324219 34.113281 L 4.324219 29.847656 L 5.257812 29.847656 C 5.910156 29.847656 6.410156 29.570312 6.761719 29.03125 C 7.117188 28.488281 7.292969 27.773438 7.292969 26.878906 L 7.292969 24.402344 C 7.292969 21.335938 8.085938 19.011719 9.671875 17.410156 C 11.253906 15.8125 13.441406 14.972656 16.230469 14.886719 L 16.230469 19.160156 C 13.441406 19.320312 12.042969 20.824219 12.042969 23.671875 L 12.042969 26.472656 C 12.042969 28.179688 11.765625 29.460938 11.210938 30.3125 C 10.660156 31.164062 9.824219 31.730469 8.714844 32 C 10.9375 32.566406 12.042969 34.414062 12.042969 37.527344 L 12.042969 40.328125 C 12.042969 43.230469 13.441406 44.734375 16.230469 44.839844 Z M 24.886719 43.402344 C 24.265625 44.011719 23.488281 44.3125 22.570312 44.3125 C 21.648438 44.3125 20.878906 44.011719 20.257812 43.402344 C 19.632812 42.789062 19.320312 42.039062 19.320312 41.144531 C 19.320312 40.253906 19.632812 39.5 20.257812 38.886719 C 20.878906 38.28125 21.648438 37.972656 22.570312 37.972656 C 23.488281 37.972656 24.265625 38.285156 24.886719 38.910156 C 25.511719 39.53125 25.820312 40.273438 25.820312 41.144531 C 25.820312 42.039062 25.511719 42.789062 24.886719 43.402344 Z M 34.320312 43.402344 C 33.691406 44.011719 32.917969 44.3125 32 44.3125 C 31.082031 44.3125 30.308594 44.011719 29.679688 43.402344 C 29.058594 42.789062 28.746094 42.039062 28.746094 41.144531 C 28.746094 40.253906 29.058594 39.5 29.679688 38.886719 C 30.308594 38.28125 31.082031 37.972656 32 37.972656 C 32.917969 37.972656 33.691406 38.285156 34.320312 38.910156 C 34.941406 39.53125 35.253906 40.273438 35.253906 41.144531 C 35.253906 42.039062 34.941406 42.789062 34.320312 43.402344 Z M 43.742188 43.402344 C 43.121094 44.011719 42.351562 44.3125 41.429688 44.3125 C 40.511719 44.3125 39.734375 44.011719 39.113281 43.402344 C 38.488281 42.789062 38.179688 42.039062 38.179688 41.144531 C 38.179688 40.253906 38.488281 39.5 39.113281 38.886719 C 39.734375 38.28125 40.511719 37.972656 41.429688 37.972656 C 42.351562 37.972656 43.121094 38.285156 43.742188 38.910156 C 44.367188 39.53125 44.679688 40.273438 44.679688 41.144531 C 44.679688 42.039062 44.367188 42.789062 43.742188 43.402344 Z M 47.769531 49.113281 L 47.769531 44.839844 C 50.585938 44.707031 51.996094 43.203125 51.996094 40.328125 L 51.996094 37.527344 C 51.996094 34.414062 53.109375 32.566406 55.328125 32 C 54.214844 31.730469 53.382812 31.164062 52.828125 30.3125 C 52.273438 29.460938 51.996094 28.179688 51.996094 26.472656 L 51.996094 23.671875 C 51.996094 20.824219 50.585938 19.320312 47.769531 19.160156 L 47.769531 14.886719 C 50.558594 14.972656 52.753906 15.820312 54.351562 17.433594 C 55.949219 19.042969 56.746094 21.363281 56.746094 24.402344 L 56.746094 26.878906 C 56.746094 27.773438 56.921875 28.488281 57.28125 29.03125 C 57.632812 29.570312 58.132812 29.847656 58.785156 29.847656 L 59.675781 29.847656 L 59.675781 34.113281 L 58.785156 34.113281 C 58.132812 34.113281 57.632812 34.378906 57.28125 34.90625 C 56.921875 35.433594 56.746094 36.160156 56.746094 37.078125 L 56.746094 39.597656 C 56.746094 42.664062 55.949219 44.996094 54.351562 46.609375 C 52.753906 48.21875 50.558594 49.054688 47.769531 49.113281 Z M 47.769531 49.113281 "/>
</g>
</svg>
