<svg xmlns="http://www.w3.org/2000/svg" xmlns:xlink="http://www.w3.org/1999/xlink" width="64px" height="64px" viewBox="0 0 64 64" version="1.1">
<defs>
<linearGradient id="linear0" gradientUnits="userSpaceOnUse" x1="0" y1="0" x2="0" y2="1" gradientTransform="matrix(55.351351,0,0,47.153152,4.324324,8.423424)">
<stop offset="0" style="stop-color:#ffae00;stop-opacity:1;"/>
<stop offset="0.5" style="stop-color:#dddddd;stop-opacity:1;"/>
<stop offset="1" style="stop-color:#bf1d1d;stop-opacity:1;"/>
</linearGradient>
</defs>
<g id="surface1">
<path style=" stroke:none;fill-rule:evenodd;fill:url(#linear0);" d="M 21.941406 38.5 C 21.1875 36.902344 20.761719 35.191406 20.632812 33.46875 C 20.410156 31.039062 20.773438 28.554688 21.761719 26.273438 C 20.894531 26.582031 20.03125 26.902344 19.203125 27.234375 C 16.136719 28.472656 13.417969 29.957031 11.855469 31.203125 C 11.1875 31.734375 10.863281 32.113281 10.671875 32.363281 C 10.863281 32.605469 11.1875 32.988281 11.855469 33.515625 C 13.417969 34.765625 16.136719 36.246094 19.203125 37.484375 C 20.085938 37.839844 21.011719 38.179688 21.941406 38.5 Z M 30.769531 47.078125 C 39.292969 52.644531 52.9375 58.503906 57.503906 53.941406 C 61.1875 50.257812 58.070312 40.648438 53.78125 32.597656 C 58.363281 24.265625 61.890625 13.949219 58.015625 10.082031 C 53.1875 5.246094 38.3125 11.941406 29.828125 17.78125 C 19.570312 19.730469 4.324219 25.515625 4.324219 32.363281 C 4.324219 39.433594 20.613281 45.378906 30.769531 47.078125 Z M 48.039062 41.433594 C 48.707031 40.582031 49.394531 39.660156 50.097656 38.644531 C 50.320312 39.109375 50.523438 39.566406 50.714844 40.023438 C 51.988281 43.011719 52.847656 45.941406 53.070312 47.894531 C 53.164062 48.734375 53.121094 49.21875 53.085938 49.527344 C 52.78125 49.5625 52.292969 49.605469 51.457031 49.511719 C 49.5 49.285156 46.578125 48.421875 43.585938 47.160156 C 42.988281 46.902344 42.382812 46.625 41.773438 46.347656 C 44.296875 45.324219 46.457031 43.609375 48.039062 41.433594 Z M 33.0625 41.273438 C 31.214844 40.085938 29.882812 39.050781 29.21875 38.386719 C 25.652344 34.820312 25.652344 29.21875 29.21875 25.660156 C 30.1875 24.6875 31.308594 23.988281 32.5 23.566406 C 33.882812 23.339844 35.082031 23.210938 35.824219 23.210938 C 37.375 23.210938 38.820312 23.582031 40.089844 24.234375 C 40.753906 24.609375 41.375 25.089844 41.945312 25.660156 C 42.457031 26.164062 43.175781 27.058594 44.0625 28.363281 C 44.652344 29.558594 44.972656 30.914062 44.972656 32.363281 C 44.972656 37.484375 40.949219 41.503906 35.824219 41.503906 C 35.164062 41.503906 34.136719 41.402344 33.0625 41.273438 Z M 49.320312 25.242188 C 49.5 25.476562 49.6875 25.742188 49.875 26.011719 C 50.335938 25.011719 50.757812 24.078125 51.136719 23.179688 C 52.421875 20.148438 53.296875 17.179688 53.523438 15.199219 C 53.617188 14.347656 53.578125 13.855469 53.539062 13.542969 C 53.230469 13.503906 52.734375 13.460938 51.886719 13.5625 C 49.90625 13.789062 46.9375 14.664062 43.90625 15.945312 C 42.671875 16.46875 41.40625 17.078125 40.1875 17.738281 C 40.445312 17.828125 40.710938 17.914062 40.960938 18.03125 C 41.347656 18.164062 41.726562 18.328125 42.097656 18.511719 C 43.578125 19.21875 44.960938 20.1875 46.1875 21.414062 C 47.125 22.351562 48.199219 23.664062 49.320312 25.242188 Z M 49.320312 25.242188 "/>
</g>
</svg>
