<svg xmlns="http://www.w3.org/2000/svg" xmlns:xlink="http://www.w3.org/1999/xlink" width="64px" height="64px" viewBox="0 0 64 64" version="1.1">
<defs>
<linearGradient id="linear0" gradientUnits="userSpaceOnUse" x1="0" y1="0" x2="0" y2="1" gradientTransform="matrix(42.333334,0,0,55.351351,10.833333,4.324324)">
<stop offset="0" style="stop-color:#05f7ff;stop-opacity:1;"/>
<stop offset="0.5" style="stop-color:#dddddd;stop-opacity:1;"/>
<stop offset="1" style="stop-color:#e6ff05;stop-opacity:1;"/>
</linearGradient>
</defs>
<g id="surface1">
<path style=" stroke:none;fill-rule:nonzero;fill:url(#linear0);" d="M 32 4.324219 C 30.671875 4.324219 29.339844 4.382812 28.496094 4.503906 C 18.289062 5.960938 12.261719 10.90625 11.054688 18.792969 C 10.917969 19.664062 10.878906 21.210938 10.863281 27.136719 L 10.835938 34.1875 L 11.132812 34.648438 C 11.863281 35.8125 12.875 36.625 17.675781 39.933594 C 25.710938 45.460938 29.011719 47.488281 31.042969 48.097656 C 31.363281 48.199219 31.808594 48.273438 32.027344 48.28125 C 33.378906 48.296875 37.324219 46.097656 43.296875 42 C 50.746094 36.890625 52.132812 35.835938 52.855469 34.675781 L 53.164062 34.1875 L 53.164062 28.367188 C 53.164062 20.792969 53.109375 19.457031 52.753906 17.828125 C 52.117188 14.933594 50.960938 12.648438 49.113281 10.652344 C 46.148438 7.457031 41.515625 5.363281 35.5 4.503906 C 34.660156 4.382812 33.328125 4.324219 32 4.324219 Z M 32 14.09375 C 38.511719 14.09375 41.664062 17.933594 43.132812 22.632812 C 43.390625 23.460938 43.394531 23.488281 43.394531 26.863281 C 43.394531 28.726562 43.367188 30.292969 43.328125 30.324219 C 43.292969 30.363281 38.214844 30.382812 32 30.367188 C 25.785156 30.382812 20.707031 30.363281 20.671875 30.324219 C 20.632812 30.292969 20.605469 28.726562 20.605469 26.863281 C 20.605469 23.488281 20.609375 23.460938 20.867188 22.632812 C 22.335938 17.933594 25.488281 14.09375 32 14.09375 Z M 53.164062 39.0625 L 52.855469 39.558594 C 52.132812 40.714844 50.746094 41.773438 43.296875 46.886719 C 37.324219 50.988281 33.378906 53.179688 32.027344 53.164062 C 31.808594 53.164062 31.363281 53.078125 31.042969 52.984375 C 29.011719 52.363281 25.710938 50.347656 17.675781 44.8125 C 12.875 41.503906 11.863281 40.691406 11.132812 39.53125 L 10.839844 39.078125 C 10.839844 39.308594 10.839844 40.289062 10.839844 40.386719 C 10.839844 40.414062 10.835938 40.4375 10.835938 40.46875 L 10.835938 51.210938 C 10.835938 51.3125 10.863281 51.402344 10.863281 51.496094 L 10.886719 57.8125 L 11.207031 58.402344 C 11.449219 58.847656 11.648438 59.050781 12.042969 59.28125 L 12.5625 59.578125 L 20.996094 59.632812 C 25.636719 59.660156 34.3125 59.679688 40.289062 59.675781 L 51.152344 59.664062 L 51.675781 59.449219 C 52.351562 59.164062 52.550781 58.996094 52.863281 58.417969 L 53.113281 57.949219 L 53.121094 51.644531 C 53.132812 51.496094 53.164062 51.363281 53.164062 51.210938 L 53.164062 40.46875 C 53.164062 40.445312 53.160156 40.433594 53.160156 40.410156 Z M 53.164062 39.0625 "/>
</g>
</svg>
