<svg xmlns="http://www.w3.org/2000/svg" xmlns:xlink="http://www.w3.org/1999/xlink" width="64px" height="64px" viewBox="0 0 64 64" version="1.1">
<defs>
<linearGradient id="linear0" gradientUnits="userSpaceOnUse" x1="0" y1="0" x2="0" y2="1" gradientTransform="matrix(55.351351,0,0,55.351351,4.324324,4.324324)">
<stop offset="0" style="stop-color:#ffae00;stop-opacity:1;"/>
<stop offset="0.5" style="stop-color:#dddddd;stop-opacity:1;"/>
<stop offset="1" style="stop-color:#bf1d1d;stop-opacity:1;"/>
</linearGradient>
</defs>
<g id="surface1">
<path style=" stroke:none;fill-rule:nonzero;fill:url(#linear0);" d="M 26.460938 4.324219 L 26.460938 7.089844 C 26.460938 9.296875 24.734375 11.484375 24.042969 12.28125 C 23.867188 12.488281 23.867188 12.59375 23.957031 12.539062 C 24.71875 12.097656 28.671875 9.863281 32 9.863281 C 36.164062 9.863281 38.609375 11.554688 40.132812 12.539062 C 40.191406 12.582031 39.945312 12.269531 39.867188 12.191406 C 38.679688 11.003906 37.539062 8.625 37.539062 7.089844 C 37.539062 4.367188 34.765625 4.324219 34.765625 4.324219 Z M 32 12.625 C 28.175781 12.625 24.734375 15.285156 22.226562 19.542969 C 19.960938 23.40625 18.421875 28.5625 18.164062 34.335938 C 18.136719 34.707031 18.078125 34.8125 18.078125 34.511719 C 18.0625 27.050781 18.199219 23.890625 20.929688 18.164062 C 21.039062 17.71875 20.875 16.8125 20.152344 16.085938 C 19.699219 15.636719 19.234375 15.394531 18.164062 15.394531 C 10.515625 15.394531 4.324219 23.164062 4.324219 36.152344 C 4.324219 49.136719 10.515625 56.910156 18.164062 56.910156 C 20.527344 56.910156 21.539062 56.214844 23.351562 54.488281 C 25.6875 57.636719 28.773438 59.675781 32 59.675781 C 35.21875 59.675781 38.3125 57.644531 40.648438 54.488281 C 42.460938 56.214844 43.472656 56.910156 45.835938 56.910156 C 53.484375 56.910156 59.675781 49.136719 59.675781 36.152344 C 59.675781 23.164062 53.484375 15.394531 45.835938 15.394531 C 44.636719 15.394531 44.085938 15.847656 43.847656 16.085938 C 43.125 16.8125 42.960938 17.71875 43.070312 18.164062 C 45.785156 23.863281 45.847656 27.070312 45.835938 34.421875 C 45.589844 28.660156 44.117188 23.414062 41.863281 19.542969 C 39.351562 15.257812 35.835938 12.625 32 12.625 Z M 32 12.625 "/>
</g>
</svg>
