<svg xmlns="http://www.w3.org/2000/svg" xmlns:xlink="http://www.w3.org/1999/xlink" width="64px" height="64px" viewBox="0 0 64 64" version="1.1">
<defs>
<linearGradient id="linear0" gradientUnits="userSpaceOnUse" x1="0" y1="0" x2="0" y2="1" gradientTransform="matrix(55.351351,0,0,35.810811,4.324324,14.094595)">
<stop offset="0" style="stop-color:#00b7ff;stop-opacity:1;"/>
<stop offset="0.5" style="stop-color:#dddddd;stop-opacity:1;"/>
<stop offset="1" style="stop-color:#ee42d9;stop-opacity:1;"/>
</linearGradient>
</defs>
<g id="surface1">
<path style=" stroke:none;fill-rule:evenodd;fill:url(#linear0);" d="M 6.496094 14.09375 L 15.175781 14.09375 C 16.375 14.09375 17.351562 14.976562 17.351562 16.078125 L 17.351562 47.917969 C 17.351562 49.011719 16.375 49.90625 15.175781 49.90625 L 6.496094 49.90625 C 5.300781 49.90625 4.324219 49.011719 4.324219 47.917969 L 4.324219 16.078125 C 4.324219 14.976562 5.300781 14.09375 6.496094 14.09375 Z M 22.652344 14.09375 C 21.515625 14.09375 20.605469 14.976562 20.605469 16.078125 L 20.605469 47.910156 C 20.605469 49.003906 21.515625 49.902344 22.652344 49.902344 C 28.820312 49.902344 34.988281 49.90625 41.164062 49.90625 C 51.386719 49.90625 59.675781 41.886719 59.675781 32 C 59.675781 22.109375 51.386719 14.09375 41.164062 14.09375 Z M 22.652344 14.09375 "/>
</g>
</svg>
