<svg xmlns="http://www.w3.org/2000/svg" xmlns:xlink="http://www.w3.org/1999/xlink" width="64px" height="64px" viewBox="0 0 64 64" version="1.1">
<defs>
<linearGradient id="linear0" gradientUnits="userSpaceOnUse" x1="0" y1="0" x2="0" y2="1" gradientTransform="matrix(55.351351,0,0,45.319821,4.216216,9.166667)">
<stop offset="0" style="stop-color:#00fff2;stop-opacity:1;"/>
<stop offset="0.5" style="stop-color:#dddddd;stop-opacity:1;"/>
<stop offset="1" style="stop-color:#0062ff;stop-opacity:1;"/>
</linearGradient>
</defs>
<g id="surface1">
<path style=" stroke:none;fill-rule:evenodd;fill:url(#linear0);" d="M 4.214844 47.566406 L 59.566406 47.566406 L 59.566406 54.488281 L 4.214844 54.488281 Z M 12.609375 23.375 L 20.160156 23.375 C 21.664062 23.375 22.792969 22.9375 23.53125 22.054688 C 24.269531 21.171875 24.636719 20.136719 24.636719 18.941406 C 24.636719 17.800781 24.289062 16.785156 23.59375 15.886719 C 22.894531 14.988281 21.753906 14.542969 20.160156 14.542969 L 12.609375 14.542969 Z M 46.058594 40.058594 C 44.265625 40.058594 42.644531 39.761719 41.191406 39.164062 C 39.742188 38.566406 38.558594 37.769531 37.632812 36.773438 C 36.707031 35.78125 35.933594 34.597656 35.308594 33.234375 C 34.679688 31.867188 34.234375 30.472656 33.960938 29.054688 C 33.691406 27.632812 33.558594 26.148438 33.558594 24.613281 C 33.558594 22.792969 33.785156 21.015625 34.242188 19.28125 C 34.699219 17.542969 35.390625 15.902344 36.335938 14.351562 C 37.269531 12.800781 38.578125 11.550781 40.257812 10.59375 C 41.933594 9.644531 43.867188 9.164062 46.058594 9.164062 C 48.703125 9.164062 50.921875 9.789062 52.714844 11.027344 C 54.511719 12.261719 55.761719 13.761719 56.472656 15.527344 L 51.863281 17.617188 C 51.066406 16.390625 50.234375 15.496094 49.363281 14.929688 C 48.5 14.355469 47.394531 14.070312 46.058594 14.070312 C 44.753906 14.070312 43.609375 14.390625 42.625 15.039062 C 41.644531 15.675781 40.890625 16.527344 40.363281 17.59375 C 39.835938 18.664062 39.449219 19.785156 39.210938 20.960938 C 38.96875 22.144531 38.851562 23.363281 38.851562 24.613281 C 38.851562 27.402344 39.46875 29.847656 40.703125 31.949219 C 41.941406 34.058594 43.730469 35.109375 46.058594 35.109375 C 48.335938 35.109375 50.242188 33.828125 51.78125 31.269531 L 56.511719 33.0625 C 54.4375 37.730469 50.957031 40.058594 46.058594 40.058594 Z M 12.609375 39.550781 L 7.488281 39.550781 L 7.488281 9.679688 L 19.902344 9.679688 C 23.347656 9.679688 25.878906 10.578125 27.5 12.367188 C 29.121094 14.160156 29.933594 16.351562 29.933594 18.941406 C 29.933594 21.386719 29.085938 23.542969 27.390625 25.421875 C 25.699219 27.300781 23.203125 28.238281 19.902344 28.238281 L 12.609375 28.238281 Z M 12.609375 39.550781 "/>
</g>
</svg>
