<svg xmlns="http://www.w3.org/2000/svg" xmlns:xlink="http://www.w3.org/1999/xlink" width="64px" height="64px" viewBox="0 0 64 64" version="1.1">
<defs>
<linearGradient id="linear0" gradientUnits="userSpaceOnUse" x1="0" y1="0" x2="0" y2="1" gradientTransform="matrix(55.351351,0,0,40.342341,4.324324,11.828829)">
<stop offset="0" style="stop-color:#00b7ff;stop-opacity:1;"/>
<stop offset="0.5" style="stop-color:#dddddd;stop-opacity:1;"/>
<stop offset="1" style="stop-color:#ee42d9;stop-opacity:1;"/>
</linearGradient>
</defs>
<g id="surface1">
<path style=" stroke:none;fill-rule:evenodd;fill:url(#linear0);" d="M 34.910156 34.347656 L 42.226562 34.347656 C 43.570312 34.347656 44.664062 35.4375 44.664062 36.785156 L 44.664062 49.730469 C 44.664062 51.082031 43.570312 52.171875 42.226562 52.171875 L 34.910156 52.171875 C 33.5625 52.171875 32.46875 51.082031 32.46875 49.730469 L 32.46875 36.785156 C 32.46875 35.4375 33.5625 34.347656 34.910156 34.347656 Z M 49.917969 34.347656 L 57.238281 34.347656 C 58.582031 34.347656 59.675781 35.4375 59.675781 36.785156 L 59.675781 49.730469 C 59.675781 51.082031 58.582031 52.171875 57.238281 52.171875 L 49.917969 52.171875 C 48.570312 52.171875 47.484375 51.082031 47.484375 49.730469 L 47.484375 36.785156 C 47.484375 35.4375 48.570312 34.347656 49.917969 34.347656 Z M 37.113281 22.847656 L 40.144531 19.824219 L 37.113281 16.8125 C 36.933594 16.632812 36.828125 16.386719 36.828125 16.136719 C 36.828125 15.882812 36.929688 15.636719 37.109375 15.460938 C 37.289062 15.28125 37.527344 15.179688 37.78125 15.179688 C 38.039062 15.175781 38.273438 15.28125 38.457031 15.457031 L 42.847656 19.824219 L 38.457031 24.191406 C 38.273438 24.375 38.039062 24.476562 37.78125 24.476562 C 37.527344 24.476562 37.289062 24.375 37.109375 24.191406 C 36.929688 24.011719 36.828125 23.773438 36.828125 23.515625 C 36.828125 23.265625 36.933594 23.027344 37.113281 22.847656 Z M 43.675781 22.847656 L 46.710938 19.824219 L 43.675781 16.8125 C 43.5 16.632812 43.394531 16.386719 43.394531 16.136719 C 43.394531 15.882812 43.488281 15.636719 43.671875 15.460938 C 43.851562 15.28125 44.09375 15.179688 44.351562 15.179688 C 44.597656 15.175781 44.847656 15.28125 45.027344 15.457031 L 49.414062 19.824219 L 45.027344 24.191406 C 44.847656 24.375 44.597656 24.476562 44.351562 24.476562 C 44.09375 24.476562 43.851562 24.375 43.671875 24.191406 C 43.488281 24.011719 43.394531 23.773438 43.394531 23.515625 C 43.394531 23.265625 43.5 23.027344 43.675781 22.847656 Z M 50.242188 22.847656 L 53.273438 19.824219 L 50.242188 16.8125 C 50.0625 16.632812 49.960938 16.386719 49.960938 16.136719 C 49.960938 15.882812 50.0625 15.636719 50.238281 15.460938 C 50.417969 15.28125 50.664062 15.179688 50.914062 15.179688 C 51.164062 15.175781 51.410156 15.28125 51.589844 15.457031 L 55.984375 19.824219 L 51.589844 24.191406 C 51.410156 24.375 51.164062 24.476562 50.914062 24.476562 C 50.664062 24.476562 50.417969 24.375 50.238281 24.191406 C 50.0625 24.011719 49.960938 23.773438 49.960938 23.515625 C 49.960938 23.265625 50.0625 23.027344 50.242188 22.847656 Z M 34.941406 11.828125 L 57.203125 11.828125 C 58.566406 11.828125 59.675781 12.9375 59.675781 14.300781 L 59.675781 29.058594 C 59.675781 30.421875 58.566406 31.53125 57.203125 31.53125 L 34.941406 31.53125 C 33.578125 31.53125 32.46875 30.421875 32.46875 29.058594 L 32.46875 14.300781 C 32.46875 12.9375 33.578125 11.828125 34.941406 11.828125 Z M 8.078125 19.335938 L 25.902344 19.335938 L 25.902344 22.152344 L 8.078125 22.152344 Z M 8.078125 26.835938 L 25.902344 26.835938 L 25.902344 29.652344 L 8.078125 29.652344 Z M 8.078125 34.347656 L 25.902344 34.347656 L 25.902344 37.164062 L 8.078125 37.164062 Z M 8.078125 41.847656 L 20.269531 41.847656 L 20.269531 44.664062 L 8.078125 44.664062 Z M 6.855469 11.828125 L 27.121094 11.828125 C 28.515625 11.828125 29.652344 12.960938 29.652344 14.363281 L 29.652344 49.636719 C 29.652344 51.039062 28.515625 52.171875 27.121094 52.171875 L 6.855469 52.171875 C 5.460938 52.171875 4.324219 51.039062 4.324219 49.636719 L 4.324219 14.363281 C 4.324219 12.960938 5.460938 11.828125 6.855469 11.828125 Z M 6.855469 11.828125 "/>
</g>
</svg>
