<svg xmlns="http://www.w3.org/2000/svg" xmlns:xlink="http://www.w3.org/1999/xlink" width="64px" height="64px" viewBox="0 0 64 64" version="1.1">
<g id="surface1">
<path style=" stroke:none;fill-rule:nonzero;fill:rgb(21.960784%,21.960784%,21.960784%);fill-opacity:1;" d="M 32 8.648438 C 44.894531 8.648438 55.351562 19.101562 55.351562 32 C 55.351562 44.894531 44.894531 55.351562 32 55.351562 C 19.101562 55.351562 8.648438 44.894531 8.648438 32 C 8.648438 19.101562 19.101562 8.648438 32 8.648438 Z M 32 8.648438 "/>
<path style=" stroke:none;fill-rule:nonzero;fill:rgb(100%,54.509807%,23.529412%);fill-opacity:1;" d="M 32 16.863281 C 23.585938 16.863281 16.769531 23.679688 16.769531 32.089844 C 16.777344 38.644531 20.976562 44.460938 27.195312 46.527344 C 25.789062 42.617188 24.707031 36.582031 24.050781 33.679688 C 23.722656 32.394531 23.917969 31.113281 24.136719 29.828125 C 24.585938 28.488281 24.734375 27.09375 25.34375 25.808594 C 26.277344 25.003906 26.300781 23.539062 27.207031 22.835938 C 27.339844 22.917969 27.429688 22.953125 27.492188 22.984375 L 27.585938 22.992188 L 27.597656 22.992188 C 27.726562 22.859375 26.332031 21.4375 27.625 21.996094 C 27.675781 21.253906 28.84375 21.820312 28.863281 21.167969 C 29.433594 21.636719 29.324219 21.441406 30.089844 21.355469 C 30.960938 20.800781 31.363281 22.664062 31.726562 21.625 C 32.792969 21.761719 33.929688 22.097656 34.9375 22.4375 C 35.953125 22.65625 36.914062 23.222656 37.589844 24.007812 L 37.570312 24.007812 L 38.070312 24.660156 C 38.132812 24.769531 38.191406 24.886719 38.242188 25.003906 C 38.445312 26.675781 40.355469 26.65625 41.636719 27.261719 C 42.730469 27.636719 44.046875 28.210938 44.183594 29.496094 C 43.90625 29.4375 42.835938 28.222656 42 28.097656 C 41.492188 28.066406 40.945312 27.929688 40.4375 27.746094 L 37.484375 27.214844 L 37.484375 27.207031 C 37.339844 27.1875 37.1875 27.164062 37.042969 27.136719 L 37.042969 27.144531 L 32.867188 26.644531 C 32.9375 26.6875 33.011719 26.753906 33.078125 26.8125 L 37.363281 27.625 L 37.363281 27.613281 L 37.65625 27.6875 L 38.855469 27.953125 C 39.089844 27.972656 39.332031 28.011719 39.527344 28.046875 C 40.75 28.371094 42.191406 28.3125 43.199219 29.144531 C 42.933594 29.636719 41.472656 29.359375 40.742188 29.292969 C 40.652344 29.277344 40.554688 29.265625 40.464844 29.246094 C 40.445312 29.246094 40.4375 29.238281 40.414062 29.238281 C 39.421875 29.085938 38.40625 29.074219 37.445312 29.363281 C 37.445312 29.363281 37.4375 29.363281 37.4375 29.363281 C 37.109375 29.460938 36.789062 29.605469 36.480469 29.78125 C 35.097656 30.5625 33.390625 30.847656 32.242188 31.972656 C 31.125 33.144531 31.1875 34.765625 31.386719 36.273438 L 31.429688 36.273438 L 31.429688 36.65625 C 31.449219 36.789062 31.46875 36.917969 31.488281 37.046875 C 32.070312 40.089844 33.628906 42.886719 34.113281 45.957031 C 34.140625 46.324219 34.191406 46.738281 34.234375 47.136719 C 41.695312 46.035156 47.222656 39.632812 47.230469 32.089844 C 47.230469 23.679688 40.410156 16.863281 32 16.863281 Z M 34.351562 24.199219 C 33.890625 24.210938 33.535156 24.382812 33.433594 24.664062 C 33.269531 25.125 33.820312 25.714844 34.667969 25.996094 C 35.515625 26.289062 36.335938 26.148438 36.5 25.691406 C 36.664062 25.234375 36.113281 24.636719 35.261719 24.351562 C 34.945312 24.242188 34.628906 24.195312 34.351562 24.199219 Z M 34.351562 24.199219 "/>
</g>
</svg>
