<svg xmlns="http://www.w3.org/2000/svg" xmlns:xlink="http://www.w3.org/1999/xlink" width="64px" height="64px" viewBox="0 0 64 64" version="1.1">
<defs>
<linearGradient id="linear0" gradientUnits="userSpaceOnUse" x1="0" y1="0" x2="0" y2="1" gradientTransform="matrix(38.099098,0,0,55.351351,12.950451,4.324324)">
<stop offset="0" style="stop-color:#00fff2;stop-opacity:1;"/>
<stop offset="0.5" style="stop-color:#dddddd;stop-opacity:1;"/>
<stop offset="1" style="stop-color:#0062ff;stop-opacity:1;"/>
</linearGradient>
</defs>
<g id="surface1">
<path style=" stroke:none;fill-rule:nonzero;fill:url(#linear0);" d="M 22.003906 4.324219 C 21.972656 5.59375 19.757812 4.496094 19.664062 5.945312 C 17.207031 4.855469 19.847656 7.613281 19.597656 7.863281 L 19.589844 7.863281 L 19.40625 7.847656 C 19.289062 7.808594 19.113281 7.734375 18.863281 7.578125 C 18.339844 7.988281 17.976562 8.539062 17.671875 9.136719 C 15.621094 12.324219 14.625 14.984375 13.949219 18.335938 C 13.09375 22.621094 12.882812 27.625 12.96875 31.847656 C 13.0625 33.039062 13.363281 34.164062 14.335938 34.914062 C 17.082031 37.175781 19.367188 40.027344 21.675781 42.742188 C 26.21875 48.902344 30.199219 54.152344 32.792969 59.675781 C 32.503906 57.820312 32.136719 54.867188 31.960938 52.585938 C 30.382812 44.550781 27.164062 40.296875 26.792969 31.320312 C 26.707031 29.097656 29.097656 24.613281 31.785156 22.257812 C 35.824219 18.703125 38.746094 19.597656 43.90625 20.363281 C 43.9375 20.363281 43.972656 20.375 44 20.378906 C 44.171875 20.40625 44.355469 20.4375 44.527344 20.472656 C 45.90625 20.59375 48.675781 21.132812 49.171875 20.179688 C 47.269531 18.558594 44.539062 18.351562 42.21875 17.714844 C 41.855469 17.648438 41.394531 17.570312 40.945312 17.527344 L 38.679688 17.027344 L 38.113281 16.875 L 38.113281 16.894531 L 29.996094 15.3125 C 29.867188 15.199219 29.726562 15.082031 29.59375 14.988281 L 37.511719 15.972656 L 37.511719 15.933594 C 37.792969 15.988281 38.070312 16.042969 38.351562 16.082031 L 38.351562 16.097656 L 43.945312 17.125 C 44.910156 17.488281 45.941406 17.765625 46.90625 17.824219 C 48.5 18.054688 50.527344 20.4375 51.050781 20.550781 C 50.792969 18.042969 48.292969 16.921875 46.214844 16.1875 C 43.792969 15.011719 40.164062 15.050781 39.785156 11.789062 C 39.679688 11.5625 39.582031 11.335938 39.460938 11.117188 L 38.511719 9.863281 L 38.550781 9.847656 C 37.257812 8.328125 35.449219 7.214844 33.523438 6.792969 C 31.609375 6.136719 29.460938 5.484375 27.433594 5.214844 C 26.746094 7.238281 25.984375 3.617188 24.328125 4.6875 C 22.882812 4.863281 23.082031 5.242188 22.003906 4.324219 Z M 32.003906 8.878906 C 32.511719 8.863281 33.097656 8.984375 33.6875 9.234375 C 35.253906 9.910156 36.269531 11.328125 35.96875 12.414062 C 35.671875 13.496094 34.152344 13.8125 32.589844 13.144531 C 31.023438 12.46875 30.003906 11.066406 30.308594 9.984375 C 30.496094 9.308594 31.152344 8.910156 32.003906 8.878906 Z M 32.003906 8.878906 "/>
</g>
</svg>
