<svg xmlns="http://www.w3.org/2000/svg" xmlns:xlink="http://www.w3.org/1999/xlink" width="64px" height="64px" viewBox="0 0 64 64" version="1.1">
<g id="surface1">
<path style=" stroke:none;fill-rule:nonzero;fill:rgb(92.54902%,92.54902%,92.54902%);fill-opacity:1;" d="M 32 8.648438 C 44.894531 8.648438 55.351562 19.101562 55.351562 32 C 55.351562 44.894531 44.894531 55.351562 32 55.351562 C 19.101562 55.351562 8.648438 44.894531 8.648438 32 C 8.648438 19.101562 19.101562 8.648438 32 8.648438 Z M 32 8.648438 "/>
<path style=" stroke:none;fill-rule:nonzero;fill:rgb(30.19608%,30.19608%,30.19608%);fill-opacity:1;" d="M 32 16.433594 C 23.402344 16.433594 16.433594 23.402344 16.433594 32 C 16.433594 37.882812 19.753906 43.261719 25.007812 45.90625 L 25.996094 37.730469 C 24.519531 36.1875 23.695312 34.136719 23.695312 32 C 23.695312 27.414062 27.414062 23.695312 32 23.695312 C 36.585938 23.695312 40.300781 27.414062 40.300781 32 C 40.296875 34.132812 39.472656 36.183594 38 37.722656 L 38.988281 45.890625 C 44.238281 43.25 47.558594 37.878906 47.566406 32 C 47.566406 23.402344 40.597656 16.433594 32 16.433594 "/>
<path style=" stroke:none;fill-rule:nonzero;fill:rgb(50.196081%,50.196081%,50.196081%);fill-opacity:1;" d="M 32 26.8125 C 29.136719 26.8125 26.8125 29.132812 26.8125 32 C 26.8125 33.804688 27.753906 35.480469 29.292969 36.417969 L 28.003906 47.027344 C 29.308594 47.378906 30.648438 47.5625 32 47.566406 C 33.347656 47.5625 34.6875 47.386719 35.992188 47.039062 L 34.707031 36.417969 C 36.246094 35.480469 37.1875 33.804688 37.1875 32 C 37.1875 29.132812 34.863281 26.8125 32 26.8125 "/>
</g>
</svg>
