<svg xmlns="http://www.w3.org/2000/svg" xmlns:xlink="http://www.w3.org/1999/xlink" width="64px" height="64px" viewBox="0 0 64 64" version="1.1">
<defs>
<linearGradient id="linear0" gradientUnits="userSpaceOnUse" x1="0" y1="0" x2="0" y2="1" gradientTransform="matrix(55.351351,0,0,47.801801,4.324324,8.0991)">
<stop offset="0" style="stop-color:#ff8963;stop-opacity:1;"/>
<stop offset="0.5" style="stop-color:#dddddd;stop-opacity:1;"/>
<stop offset="1" style="stop-color:#0F6FFF;stop-opacity:1;"/>
</linearGradient>
</defs>
<g id="surface1">
<path style=" stroke:none;fill-rule:nonzero;fill:url(#linear0);" d="M 33.539062 8.097656 C 32.636719 8.097656 31.707031 8.136719 30.753906 8.214844 C 22.300781 8.921875 16.234375 13.199219 11.339844 18.261719 C 7.886719 21.835938 5.320312 26.847656 4.597656 31.867188 C 3.550781 39.160156 5.515625 45.664062 10.488281 50.347656 C 14.707031 54.324219 21.375 55.730469 28.375 55.882812 C 33.285156 55.996094 37.894531 55.589844 42.023438 54.636719 C 44.085938 54.164062 46.105469 53.554688 47.40625 52.78125 C 48.707031 51.996094 49.589844 50.988281 49.617188 49.761719 L 49.617188 49.753906 C 49.617188 47.753906 48.457031 46.105469 46.773438 44.765625 C 41.910156 41.328125 37.917969 39.347656 32.515625 36.621094 C 31.03125 35.914062 29.6875 34.988281 29.488281 33.515625 C 29.234375 31.636719 32.105469 31.0625 33.511719 30.90625 C 35.460938 30.730469 37.105469 30.8125 39.089844 31.011719 C 41.078125 31.207031 43.296875 32.988281 43.984375 33.253906 L 44.03125 33.273438 L 44.085938 33.28125 C 44.226562 33.296875 44.421875 33.226562 44.511719 33.125 C 44.605469 33.027344 44.621094 32.945312 44.632812 32.894531 C 44.652344 32.789062 44.648438 32.738281 44.636719 32.6875 C 44.636719 32.582031 44.613281 32.476562 44.585938 32.351562 C 44.527344 32.089844 44.429688 31.742188 44.300781 31.328125 C 43.851562 28.742188 42.324219 25.039062 41.257812 22.820312 C 41.003906 22.367188 40.753906 21.972656 40.488281 21.660156 C 40.230469 21.347656 39.976562 21.089844 39.597656 20.996094 C 39.105469 20.863281 38.386719 20.824219 37.429688 20.835938 C 36.460938 20.851562 35.109375 20.921875 33.789062 21.050781 C 31.144531 21.3125 28.292969 21.808594 25.261719 22.53125 C 22.230469 23.257812 19.367188 24.207031 17.375 25.433594 C 16.375 26.050781 15.328125 26.730469 14.863281 27.539062 C 14.382812 28.335938 14.269531 30.285156 14.636719 31.214844 C 15.410156 33.246094 17.617188 34.773438 20.03125 36.082031 C 25.082031 38.828125 29.539062 40.582031 34.308594 43.523438 C 36.0625 44.476562 37.238281 45.894531 36.972656 47.335938 C 36.699219 48.839844 34.882812 49.597656 33.3125 50.117188 C 30.488281 51.050781 27.648438 50.957031 25.148438 50.867188 C 19.347656 50.617188 13.929688 49.402344 9.945312 44.890625 C 7.472656 42.09375 7.136719 39.214844 6.863281 35.09375 C 6.597656 31.054688 8.179688 26.550781 10.441406 23.191406 C 15.46875 15.738281 22.015625 11.429688 30.703125 10.273438 C 40.945312 8.960938 47.945312 12.636719 52.421875 16.597656 C 54.664062 18.578125 56.265625 20.972656 57.296875 22.503906 C 57.820312 23.269531 58.191406 23.90625 58.4375 24.335938 C 58.5625 24.554688 58.648438 24.714844 58.710938 24.828125 C 58.738281 24.882812 58.757812 24.921875 58.785156 24.960938 C 58.792969 24.984375 58.773438 24.976562 58.863281 25.066406 C 58.882812 25.089844 59.027344 25.179688 59.027344 25.179688 C 59.027344 25.179688 59.609375 24.984375 59.609375 24.984375 C 59.609375 24.984375 59.675781 24.761719 59.675781 24.71875 C 59.675781 24.679688 59.671875 24.664062 59.664062 24.644531 C 59.636719 24.515625 59.632812 24.523438 59.609375 24.46875 C 59.585938 24.417969 59.554688 24.351562 59.515625 24.273438 C 59.445312 24.117188 59.339844 23.910156 59.203125 23.660156 C 58.921875 23.144531 58.503906 22.441406 57.949219 21.617188 C 56.835938 19.96875 55.148438 17.488281 52.824219 15.410156 C 48.753906 11.78125 42.707031 8.339844 34.433594 8.113281 C 34.136719 8.105469 33.839844 8.097656 33.539062 8.097656 Z M 33.539062 8.097656 "/>
</g>
</svg>
