<svg xmlns="http://www.w3.org/2000/svg" xmlns:xlink="http://www.w3.org/1999/xlink" width="64px" height="64px" viewBox="0 0 64 64" version="1.1">
<defs>
<linearGradient id="linear0" gradientUnits="userSpaceOnUse" x1="0" y1="0" x2="0" y2="1" gradientTransform="matrix(55.351351,0,0,48.432432,4.324324,7.783784)">
<stop offset="0" style="stop-color:#00b7ff;stop-opacity:1;"/>
<stop offset="0.5" style="stop-color:#dddddd;stop-opacity:1;"/>
<stop offset="1" style="stop-color:#ee42d9;stop-opacity:1;"/>
</linearGradient>
</defs>
<g id="surface1">
<path style=" stroke:none;fill-rule:nonzero;fill:url(#linear0);" d="M 20.882812 7.785156 C 16.117188 7.785156 12.265625 9.441406 9.335938 12.753906 C 5.996094 16.527344 4.324219 21.644531 4.324219 28.117188 C 4.324219 32.933594 5.292969 37.117188 7.242188 40.664062 C 10.207031 45.941406 14.765625 48.570312 20.882812 48.570312 C 22.203125 54.210938 25.851562 57.179688 34.429688 55.9375 L 34.429688 51.847656 C 30.433594 52.199219 29.566406 50.097656 29.257812 46.390625 L 29.257812 46.148438 C 30.460938 45.414062 31.550781 44.511719 32.523438 43.390625 C 35.710938 39.730469 37.3125 34.625 37.3125 28.117188 C 37.3125 23.261719 36.292969 19.085938 34.265625 15.539062 C 31.265625 10.378906 26.8125 7.785156 20.882812 7.785156 Z M 53.011719 9.417969 L 46.988281 9.570312 L 44.988281 18.605469 L 40.707031 18.605469 L 40.707031 25.363281 L 44.636719 25.363281 L 44.636719 38.296875 C 44.636719 41.839844 45.171875 44.328125 46.191406 45.753906 C 47.488281 47.636719 50.226562 48.570312 54.441406 48.570312 C 55.847656 48.570312 57.585938 48.390625 59.675781 47.960938 L 59.675781 41.539062 C 58.234375 41.617188 57.164062 41.664062 56.441406 41.664062 C 55.261719 41.664062 54.429688 41.472656 53.933594 41.085938 C 53.328125 40.625 53.011719 39.429688 53.011719 37.539062 L 53.011719 25.363281 L 59.230469 25.363281 L 59.230469 18.605469 L 53.011719 18.605469 Z M 20.882812 15.363281 C 25.539062 15.363281 27.863281 19.625 27.863281 28.179688 C 27.863281 36.730469 25.539062 41.027344 20.882812 41.027344 C 16.152344 41.027344 13.773438 36.707031 13.773438 28.117188 C 13.773438 27.769531 13.773438 27.433594 13.773438 27.085938 C 14 19.265625 16.378906 15.363281 20.882812 15.363281 Z M 20.882812 15.363281 "/>
</g>
</svg>
