<svg xmlns="http://www.w3.org/2000/svg" xmlns:xlink="http://www.w3.org/1999/xlink" width="64px" height="64px" viewBox="0 0 64 64" version="1.1">
<defs>
<linearGradient id="linear0" gradientUnits="userSpaceOnUse" x1="0" y1="0" x2="0" y2="1" gradientTransform="matrix(43.684686,0,0,55.351351,10.157658,4.324324)">
<stop offset="0" style="stop-color:#ffae00;stop-opacity:1;"/>
<stop offset="0.5" style="stop-color:#dddddd;stop-opacity:1;"/>
<stop offset="1" style="stop-color:#bf1d1d;stop-opacity:1;"/>
</linearGradient>
</defs>
<g id="surface1">
<path style=" stroke:none;fill-rule:evenodd;fill:url(#linear0);" d="M 40.1875 20.132812 L 40.1875 18.671875 C 40.1875 18.664062 40.1875 18.664062 40.1875 18.664062 C 40.191406 17.449219 40 16.246094 39.609375 15.105469 C 39.257812 14.078125 38.710938 13.132812 38.003906 12.3125 C 37.324219 11.539062 36.476562 10.910156 35.527344 10.488281 C 35.011719 10.261719 34.472656 10.085938 33.917969 9.976562 C 33.289062 9.847656 32.644531 9.785156 32 9.789062 C 31.355469 9.785156 30.710938 9.847656 30.082031 9.976562 C 29.527344 10.085938 28.988281 10.261719 28.472656 10.488281 C 27.523438 10.910156 26.675781 11.539062 25.996094 12.3125 C 25.289062 13.132812 24.742188 14.078125 24.390625 15.105469 C 24 16.246094 23.808594 17.449219 23.8125 18.664062 C 23.8125 18.664062 23.8125 18.664062 23.8125 18.671875 L 23.8125 20.132812 C 27.203125 20.726562 30.230469 22.847656 32 26.011719 C 33.769531 22.847656 36.796875 20.726562 40.1875 20.132812 Z M 18.347656 20.523438 L 18.347656 18.675781 C 18.339844 16.863281 18.632812 15.054688 19.21875 13.335938 C 19.796875 11.636719 20.703125 10.078125 21.867188 8.71875 C 23.082031 7.339844 24.578125 6.238281 26.253906 5.496094 C 27.132812 5.109375 28.050781 4.8125 28.988281 4.621094 C 29.984375 4.421875 30.988281 4.320312 32 4.324219 C 33.011719 4.320312 34.015625 4.421875 35.011719 4.621094 C 35.949219 4.8125 36.867188 5.109375 37.746094 5.496094 C 39.421875 6.238281 40.917969 7.339844 42.132812 8.71875 C 43.296875 10.078125 44.203125 11.636719 44.78125 13.335938 C 45.367188 15.054688 45.660156 16.863281 45.652344 18.675781 L 45.652344 20.523438 C 49.082031 21.636719 51.875 24.339844 53.136719 27.929688 C 54.6875 32.351562 53.632812 37.300781 50.414062 40.632812 L 32 59.675781 L 13.585938 40.632812 C 10.367188 37.300781 9.3125 32.351562 10.863281 27.929688 C 12.125 24.339844 14.917969 21.636719 18.347656 20.523438 Z M 30.679688 39.597656 C 29.136719 39.050781 28.027344 37.578125 28.027344 35.847656 C 28.027344 33.660156 29.808594 31.875 32 31.875 C 34.191406 31.875 35.972656 33.660156 35.972656 35.847656 C 35.972656 37.609375 34.824219 39.105469 33.234375 39.625 L 35.972656 47.761719 L 28.027344 47.761719 Z M 30.679688 39.597656 "/>
</g>
</svg>
