<svg xmlns="http://www.w3.org/2000/svg" xmlns:xlink="http://www.w3.org/1999/xlink" width="64px" height="64px" viewBox="0 0 64 64" version="1.1">
<defs>
<linearGradient id="linear0" gradientUnits="userSpaceOnUse" x1="0" y1="0" x2="0" y2="1" gradientTransform="matrix(55.351351,0,0,52.27928,4.324324,5.86036)">
<stop offset="0" style="stop-color:#ff8963;stop-opacity:1;"/>
<stop offset="0.5" style="stop-color:#dddddd;stop-opacity:1;"/>
<stop offset="1" style="stop-color:#0F6FFF;stop-opacity:1;"/>
</linearGradient>
</defs>
<g id="surface1">
<path style=" stroke:none;fill-rule:evenodd;fill:url(#linear0);" d="M 32.003906 5.863281 L 28.679688 32 L 32.003906 58.136719 L 35.320312 32 Z M 15.988281 19.417969 L 13.023438 20.230469 C 10.589844 20.894531 8.6875 21.644531 7.144531 22.699219 C 5.605469 23.757812 4.105469 25.570312 4.351562 27.847656 C 4.597656 30.121094 6.1875 31.460938 7.824219 32.417969 C 9.460938 33.378906 11.488281 34.09375 14.039062 34.71875 C 16.511719 35.328125 19.289062 35.765625 22.199219 36.078125 L 26.460938 58.136719 L 26.460938 30.351562 C 15.730469 29.839844 8.941406 27.636719 8.9375 25.082031 C 8.945312 23.566406 11.671875 22.132812 16.449219 21.113281 Z M 48.335938 19.484375 L 47.851562 21.179688 C 52.449219 22.191406 55.058594 23.605469 55.066406 25.082031 C 55.054688 27.636719 48.265625 29.835938 37.539062 30.351562 L 37.539062 58.136719 L 41.808594 36.082031 C 44.585938 35.78125 47.246094 35.363281 49.636719 34.796875 C 52.214844 34.1875 54.285156 33.484375 55.949219 32.550781 C 57.617188 31.621094 59.207031 30.394531 59.609375 28.164062 C 60.011719 25.933594 58.582031 23.941406 57.070312 22.847656 C 55.5625 21.753906 53.6875 20.996094 51.292969 20.3125 Z M 48.335938 19.484375 "/>
</g>
</svg>
