<svg xmlns="http://www.w3.org/2000/svg" xmlns:xlink="http://www.w3.org/1999/xlink" width="64px" height="64px" viewBox="0 0 64 64" version="1.1">
<defs>
<linearGradient id="linear0" gradientUnits="userSpaceOnUse" x1="0" y1="0" x2="0" y2="1" gradientTransform="matrix(55.351351,0,0,55.351351,4.324324,4.324324)">
<stop offset="0" style="stop-color:#ffae00;stop-opacity:1;"/>
<stop offset="0.5" style="stop-color:#dddddd;stop-opacity:1;"/>
<stop offset="1" style="stop-color:#bf1d1d;stop-opacity:1;"/>
</linearGradient>
</defs>
<g id="surface1">
<path style=" stroke:none;fill-rule:evenodd;fill:url(#linear0);" d="M 25.082031 50.449219 L 25.082031 59.675781 L 4.324219 59.675781 L 4.324219 4.324219 L 25.082031 4.324219 L 25.082031 13.550781 L 13.550781 13.550781 L 13.550781 50.449219 Z M 34.378906 13.550781 L 34.378906 4.324219 L 36.539062 4.324219 C 42.679688 4.324219 48.558594 6.746094 52.894531 11.058594 C 57.230469 15.394531 59.675781 21.253906 59.675781 27.386719 L 59.675781 36.613281 C 59.675781 42.746094 57.230469 48.605469 52.894531 52.941406 C 48.558594 57.253906 42.679688 59.675781 36.539062 59.675781 L 34.378906 59.675781 L 34.378906 50.449219 L 36.539062 50.449219 C 36.539062 50.449219 36.566406 50.449219 36.566406 50.449219 C 40.234375 50.449219 43.761719 48.996094 46.367188 46.414062 C 48.976562 43.808594 50.449219 40.28125 50.449219 36.613281 L 50.449219 27.386719 C 50.449219 23.71875 48.976562 20.191406 46.367188 17.585938 C 43.761719 15.003906 40.234375 13.550781 36.566406 13.550781 C 36.566406 13.550781 36.539062 13.550781 36.539062 13.550781 Z M 34.378906 13.550781 "/>
</g>
</svg>
