<svg xmlns="http://www.w3.org/2000/svg" xmlns:xlink="http://www.w3.org/1999/xlink" width="64px" height="64px" viewBox="0 0 64 64" version="1.1">
<defs>
<linearGradient id="linear0" gradientUnits="userSpaceOnUse" x1="0" y1="0" x2="0" y2="1" gradientTransform="matrix(31.216216,0,0,55.351351,16.391892,4.324324)">
<stop offset="0" style="stop-color:#00fff2;stop-opacity:1;"/>
<stop offset="0.5" style="stop-color:#dddddd;stop-opacity:1;"/>
<stop offset="1" style="stop-color:#0062ff;stop-opacity:1;"/>
</linearGradient>
</defs>
<g id="surface1">
<path style=" stroke:none;fill-rule:nonzero;fill:url(#linear0);" d="M 21.941406 4.335938 C 17.515625 4.113281 14.714844 9.160156 17.511719 12.445312 C 20.285156 16.5625 26.917969 19.085938 31.410156 16.003906 C 31.410156 29.957031 31.472656 45.652344 31.472656 59.605469 C 34.152344 60.296875 32.917969 55.71875 33.542969 54.121094 C 34.796875 48.0625 40.941406 44.910156 44.890625 40.582031 C 48.125 37.042969 48.558594 31.636719 45.71875 27.730469 C 44.917969 26.617188 42.320312 22.066406 42.710938 22.929688 C 44.460938 26.476562 46.707031 30.460938 45.648438 34.488281 C 44.300781 39.3125 39.414062 42.394531 34.394531 43.144531 C 33.117188 43.324219 33.199219 42.960938 33.070312 40.949219 C 33.070312 30.976562 33.070312 21.003906 33.070312 11.027344 C 31.394531 6.957031 26.503906 4.199219 21.941406 4.335938 Z M 22.46875 5.621094 C 26.710938 5.429688 31.835938 8.660156 31.296875 13.039062 C 30.199219 16.917969 24.589844 16.625 21.738281 14.726562 C 18.570312 13.28125 16.234375 8.257812 20.066406 6.242188 C 20.800781 5.863281 21.636719 5.671875 22.46875 5.621094 Z M 22.46875 5.621094 "/>
</g>
</svg>
