<svg xmlns="http://www.w3.org/2000/svg" xmlns:xlink="http://www.w3.org/1999/xlink" width="48px" height="48px" viewBox="0 0 48 48" version="1.1">
<g id="surface1">
<path style=" stroke:none;fill-rule:nonzero;fill:rgb(94.117647%,35.686275%,42.352942%);fill-opacity:1;" d="M 17.851562 28.300781 L 18.8125 30.21875 C 18.8125 30.21875 22.171875 29.257812 24.089844 32.140625 L 27.945312 38.691406 C 28.722656 40.015625 30.035156 41.582031 31.425781 42.230469 C 33.40625 43.15625 36.1875 43.410156 38.972656 41.738281 C 38.972656 41.738281 41.839844 40.542969 42.421875 35.398438 L 40.023438 35.398438 C 40.023438 35.398438 38.492188 38.378906 36.089844 37.898438 C 36.089844 37.898438 32.898438 36.304688 30.152344 30.929688 C 29.472656 29.597656 28.375 28.515625 27.011719 27.894531 C 24.714844 26.84375 21.101562 25.9375 17.851562 28.300781 Z M 17.851562 28.300781 "/>
<path style=" stroke:none;fill-rule:nonzero;fill:rgb(94.117647%,35.686275%,42.352942%);fill-opacity:1;" d="M 23.039062 7.117188 C 14.292969 7.117188 7.199219 14.101562 7.199219 22.71875 C 7.199219 31.332031 14.292969 38.320312 23.039062 38.320312 C 31.789062 38.320312 38.878906 31.332031 38.878906 22.71875 C 38.878906 14.101562 31.789062 7.117188 23.039062 7.117188 Z M 23.039062 35.4375 C 18.269531 35.4375 14.398438 29.742188 14.398438 22.71875 C 14.398438 15.691406 18.269531 10 23.039062 10 C 27.8125 10 31.679688 15.691406 31.679688 22.71875 C 31.679688 29.742188 27.8125 35.4375 23.039062 35.4375 Z M 23.039062 35.4375 "/>
<path style=" stroke:none;fill-rule:nonzero;fill:rgb(12.156863%,12.941177%,16.862746%);fill-opacity:1;" d="M 23.039062 38.878906 C 14.039062 38.878906 6.71875 31.667969 6.71875 22.800781 C 6.71875 13.933594 14.039062 6.71875 23.039062 6.71875 C 32.039062 6.71875 39.359375 13.933594 39.359375 22.800781 C 39.359375 27.820312 37.042969 32.460938 33 35.535156 C 32.789062 35.695312 32.488281 35.652344 32.328125 35.441406 C 32.167969 35.230469 32.207031 34.929688 32.417969 34.769531 C 36.21875 31.878906 38.398438 27.515625 38.398438 22.800781 C 38.398438 14.460938 31.507812 7.679688 23.039062 7.679688 C 14.570312 7.679688 7.679688 14.460938 7.679688 22.800781 C 7.679688 31.136719 14.570312 37.921875 23.039062 37.921875 C 24.4375 37.921875 25.835938 37.730469 27.191406 37.355469 C 27.445312 37.285156 27.710938 37.4375 27.78125 37.691406 C 27.851562 37.949219 27.699219 38.210938 27.445312 38.28125 C 26.007812 38.679688 24.523438 38.878906 23.039062 38.878906 Z M 23.039062 38.878906 "/>
<path style=" stroke:none;fill-rule:nonzero;fill:rgb(12.156863%,12.941177%,16.862746%);fill-opacity:1;" d="M 23.039062 36 C 16.65625 36 13.800781 29.191406 13.800781 22.441406 C 13.800781 14.519531 17.339844 9.601562 23.039062 9.601562 C 28.664062 9.601562 32.160156 14.566406 32.160156 22.558594 C 32.160156 25.824219 31.636719 28.703125 30.648438 30.878906 C 30.539062 31.121094 30.253906 31.230469 30.011719 31.117188 C 29.769531 31.007812 29.664062 30.726562 29.773438 30.484375 C 30.707031 28.429688 31.199219 25.691406 31.199219 22.558594 C 31.199219 16.757812 29.054688 10.558594 23.039062 10.558594 C 16.933594 10.558594 14.761719 16.695312 14.761719 22.441406 C 14.761719 28.710938 17.320312 35.039062 23.039062 35.039062 C 24.050781 35.039062 24.992188 34.871094 25.835938 34.535156 C 26.082031 34.433594 26.363281 34.554688 26.460938 34.800781 C 26.558594 35.050781 26.4375 35.328125 26.191406 35.425781 C 25.234375 35.808594 24.175781 36 23.039062 36 Z M 23.039062 36 "/>
<path style=" stroke:none;fill-rule:nonzero;fill:rgb(12.156863%,12.941177%,16.862746%);fill-opacity:1;" d="M 23.039062 36 C 16.65625 36 13.800781 29.191406 13.800781 22.441406 C 13.800781 14.519531 17.339844 9.601562 23.039062 9.601562 C 28.664062 9.601562 32.160156 14.566406 32.160156 22.558594 C 32.160156 25.824219 31.636719 28.703125 30.648438 30.878906 C 30.578125 31.035156 30.429688 31.140625 30.261719 31.160156 C 30.09375 31.175781 29.925781 31.105469 29.824219 30.96875 C 25.484375 25.09375 19.867188 27.667969 18.386719 28.5 L 18.960938 29.648438 C 19.734375 29.441406 21.40625 29.277344 23.339844 30.824219 C 24.519531 31.769531 25.53125 33.054688 26.4375 34.753906 C 26.5 34.875 26.511719 35.015625 26.464844 35.144531 C 26.417969 35.273438 26.316406 35.375 26.191406 35.425781 C 25.234375 35.808594 24.175781 36 23.039062 36 Z M 23.039062 10.558594 C 16.933594 10.558594 14.761719 16.695312 14.761719 22.441406 C 14.761719 28.710938 17.320312 35.039062 23.039062 35.039062 C 23.851562 35.039062 24.613281 34.929688 25.320312 34.714844 C 24.546875 33.375 23.703125 32.34375 22.742188 31.574219 C 20.632812 29.886719 19 30.636719 18.929688 30.671875 C 18.695312 30.78125 18.40625 30.6875 18.289062 30.453125 L 17.332031 28.535156 C 17.222656 28.316406 17.292969 28.054688 17.492188 27.921875 C 17.566406 27.871094 24.652344 23.269531 30.082031 29.742188 C 30.816406 27.789062 31.199219 25.328125 31.199219 22.558594 C 31.199219 16.757812 29.054688 10.558594 23.039062 10.558594 Z M 23.039062 10.558594 "/>
<path style=" stroke:none;fill-rule:nonzero;fill:rgb(12.156863%,12.941177%,16.862746%);fill-opacity:1;" d="M 26.015625 35.460938 C 25.84375 35.460938 25.675781 35.367188 25.589844 35.207031 C 24.746094 33.621094 23.816406 32.433594 22.738281 31.574219 C 20.632812 29.890625 19 30.640625 18.929688 30.671875 C 18.695312 30.78125 18.40625 30.6875 18.289062 30.453125 L 17.332031 28.535156 C 17.222656 28.320312 17.292969 28.054688 17.492188 27.921875 C 17.570312 27.871094 25.109375 22.972656 30.597656 30.398438 C 30.753906 30.609375 30.707031 30.910156 30.496094 31.070312 C 30.28125 31.226562 29.980469 31.179688 29.824219 30.96875 C 25.484375 25.09375 19.867188 27.667969 18.386719 28.5 L 18.960938 29.648438 C 19.734375 29.441406 21.40625 29.277344 23.339844 30.824219 C 24.519531 31.769531 25.53125 33.054688 26.4375 34.753906 C 26.5625 34.988281 26.472656 35.28125 26.238281 35.40625 C 26.167969 35.441406 26.089844 35.460938 26.015625 35.460938 Z M 26.015625 35.460938 "/>
<path style=" stroke:none;fill-rule:nonzero;fill:rgb(12.156863%,12.941177%,16.862746%);fill-opacity:1;" d="M 36.5625 26.203125 C 36.546875 26.203125 36.535156 26.203125 36.519531 26.199219 C 36.390625 26.175781 36.300781 26.050781 36.324219 25.921875 C 36.429688 25.347656 36.480469 24.78125 36.480469 24.238281 C 36.480469 24.109375 36.585938 24 36.71875 24 C 36.851562 24 36.960938 24.109375 36.960938 24.238281 C 36.960938 24.808594 36.90625 25.402344 36.796875 26.003906 C 36.777344 26.121094 36.675781 26.203125 36.5625 26.203125 Z M 36.5625 26.203125 "/>
<path style=" stroke:none;fill-rule:nonzero;fill:rgb(12.156863%,12.941177%,16.862746%);fill-opacity:1;" d="M 34.800781 30.71875 C 34.753906 30.71875 34.707031 30.707031 34.667969 30.679688 C 34.558594 30.605469 34.527344 30.457031 34.601562 30.347656 C 34.609375 30.332031 35.574219 28.871094 36.113281 26.863281 C 36.148438 26.734375 36.28125 26.660156 36.40625 26.695312 C 36.535156 26.726562 36.613281 26.859375 36.578125 26.988281 C 36.015625 29.078125 35.042969 30.550781 35 30.613281 C 34.953125 30.683594 34.878906 30.71875 34.800781 30.71875 Z M 34.800781 30.71875 "/>
<path style=" stroke:none;fill-rule:nonzero;fill:rgb(12.156863%,12.941177%,16.862746%);fill-opacity:1;" d="M 10.222656 17.246094 C 10.191406 17.246094 10.160156 17.242188 10.128906 17.230469 C 10.007812 17.175781 9.949219 17.035156 10 16.914062 C 10.238281 16.347656 10.519531 15.785156 10.832031 15.242188 C 10.898438 15.125 11.042969 15.085938 11.160156 15.152344 C 11.273438 15.21875 11.316406 15.367188 11.25 15.480469 C 10.945312 16.007812 10.671875 16.554688 10.441406 17.101562 C 10.402344 17.191406 10.316406 17.246094 10.222656 17.246094 Z M 10.222656 17.246094 "/>
<path style=" stroke:none;fill-rule:nonzero;fill:rgb(12.156863%,12.941177%,16.862746%);fill-opacity:1;" d="M 9.40625 19.886719 C 9.390625 19.886719 9.375 19.886719 9.359375 19.882812 C 9.226562 19.855469 9.144531 19.730469 9.167969 19.597656 C 9.296875 18.980469 9.464844 18.363281 9.675781 17.761719 C 9.71875 17.636719 9.855469 17.570312 9.980469 17.613281 C 10.105469 17.660156 10.171875 17.796875 10.128906 17.921875 C 9.925781 18.5 9.761719 19.097656 9.640625 19.695312 C 9.617188 19.808594 9.515625 19.886719 9.40625 19.886719 Z M 9.40625 19.886719 "/>
<path style=" stroke:none;fill-rule:nonzero;fill:rgb(12.156863%,12.941177%,16.862746%);fill-opacity:1;" d="M 11.519531 30.960938 C 11.441406 30.960938 11.367188 30.921875 11.320312 30.855469 C 11.289062 30.808594 8.253906 26.246094 9.015625 20.527344 C 9.03125 20.398438 9.152344 20.304688 9.285156 20.320312 C 9.414062 20.339844 9.507812 20.460938 9.488281 20.589844 C 8.753906 26.132812 11.6875 30.542969 11.71875 30.585938 C 11.792969 30.695312 11.765625 30.84375 11.65625 30.917969 C 11.613281 30.945312 11.566406 30.960938 11.519531 30.960938 Z M 11.519531 30.960938 "/>
<path style=" stroke:none;fill-rule:nonzero;fill:rgb(12.156863%,12.941177%,16.862746%);fill-opacity:1;" d="M 34.800781 43.679688 C 31.648438 43.679688 28.707031 41.488281 27.121094 37.957031 C 27.011719 37.714844 27.121094 37.429688 27.363281 37.324219 C 27.605469 37.214844 27.886719 37.324219 27.996094 37.566406 C 29.425781 40.746094 32.03125 42.71875 34.800781 42.71875 C 38.214844 42.71875 41.039062 40.101562 42.113281 36 L 40.285156 36 C 40.203125 36.585938 39.957031 37.082031 39.558594 37.476562 C 38.925781 38.101562 37.941406 38.421875 36.710938 38.398438 C 35.21875 38.375 34.027344 38.148438 32.304688 35.40625 C 32.164062 35.183594 32.230469 34.886719 32.453125 34.746094 C 32.679688 34.605469 32.976562 34.671875 33.117188 34.894531 C 34.695312 37.40625 35.636719 37.421875 36.726562 37.441406 C 37.6875 37.453125 38.445312 37.226562 38.882812 36.792969 C 39.199219 36.480469 39.359375 36.054688 39.359375 35.519531 C 39.359375 35.253906 39.574219 35.039062 39.839844 35.039062 L 42.71875 35.039062 C 42.863281 35.039062 43.003906 35.105469 43.09375 35.21875 C 43.183594 35.332031 43.21875 35.480469 43.1875 35.621094 C 42.140625 40.515625 38.847656 43.679688 34.800781 43.679688 Z M 34.800781 43.679688 "/>
</g>
</svg>
