<svg xmlns="http://www.w3.org/2000/svg" xmlns:xlink="http://www.w3.org/1999/xlink" width="64px" height="64px" viewBox="0 0 64 64" version="1.1">
<defs>
<linearGradient id="linear0" gradientUnits="userSpaceOnUse" x1="0" y1="0" x2="0" y2="1" gradientTransform="matrix(55.351351,0,0,29.216216,4.324324,17.391892)">
<stop offset="0" style="stop-color:#ffae00;stop-opacity:1;"/>
<stop offset="0.5" style="stop-color:#dddddd;stop-opacity:1;"/>
<stop offset="1" style="stop-color:#6600ff;stop-opacity:1;"/>
</linearGradient>
</defs>
<g id="surface1">
<path style=" stroke:none;fill-rule:evenodd;fill:url(#linear0);" d="M 14.957031 26.8125 C 13.8125 26.8125 12.96875 26.417969 12.441406 25.636719 C 12.207031 25.3125 12.015625 24.890625 11.867188 24.363281 C 11.71875 23.828125 11.644531 23.246094 11.644531 22.613281 C 11.644531 21.503906 11.933594 20.488281 12.503906 19.554688 C 13.078125 18.621094 13.914062 17.902344 15.015625 17.390625 L 15.308594 17.960938 C 14.753906 18.214844 14.261719 18.585938 13.824219 19.0625 C 13.390625 19.539062 13.089844 20.042969 12.917969 20.570312 C 12.8125 20.867188 12.757812 21.21875 12.757812 21.625 C 12.757812 21.941406 12.78125 22.175781 12.824219 22.324219 C 13.375 21.664062 14.148438 21.335938 15.144531 21.335938 C 15.996094 21.335938 16.675781 21.578125 17.1875 22.054688 C 17.691406 22.53125 17.945312 23.203125 17.945312 24.078125 C 17.945312 24.902344 17.671875 25.566406 17.121094 26.0625 C 16.566406 26.5625 15.847656 26.8125 14.957031 26.8125 Z M 7.636719 26.8125 C 6.488281 26.8125 5.648438 26.417969 5.121094 25.636719 C 4.886719 25.3125 4.691406 24.890625 4.542969 24.363281 C 4.394531 23.828125 4.324219 23.246094 4.324219 22.613281 C 4.324219 21.503906 4.609375 20.488281 5.179688 19.554688 C 5.757812 18.621094 6.59375 17.902344 7.699219 17.390625 L 7.988281 17.960938 C 7.433594 18.214844 6.941406 18.585938 6.503906 19.0625 C 6.070312 19.539062 5.769531 20.042969 5.597656 20.570312 C 5.488281 20.867188 5.4375 21.21875 5.4375 21.625 C 5.4375 21.941406 5.460938 22.175781 5.5 22.324219 C 6.054688 21.664062 6.828125 21.335938 7.824219 21.335938 C 8.675781 21.335938 9.351562 21.578125 9.863281 22.054688 C 10.375 22.53125 10.625 23.203125 10.625 24.078125 C 10.625 24.902344 10.351562 25.566406 9.800781 26.0625 C 9.246094 26.5625 8.527344 26.8125 7.636719 26.8125 Z M 43.566406 39.476562 L 44.175781 39.636719 C 44.066406 41.039062 43.820312 42.238281 43.429688 43.234375 C 43.039062 44.234375 42.511719 44.988281 41.851562 45.496094 C 41.382812 45.855469 40.796875 46.132812 40.085938 46.324219 C 39.375 46.511719 38.636719 46.609375 37.875 46.609375 C 36.578125 46.609375 35.3125 46.40625 34.085938 46.003906 C 32.855469 45.597656 31.292969 44.972656 29.40625 44.125 L 27.308594 43.234375 C 26.902344 43.085938 26.648438 43.011719 26.539062 43.011719 C 26.117188 43.246094 25.664062 43.4375 25.1875 43.585938 C 24.710938 43.734375 24.269531 43.808594 23.863281 43.808594 C 23.421875 43.808594 23.058594 43.730469 22.785156 43.566406 C 22.511719 43.410156 22.375 43.171875 22.375 42.851562 C 22.375 42.539062 22.523438 42.292969 22.820312 42.121094 C 23.113281 41.949219 23.550781 41.863281 24.121094 41.863281 C 24.863281 41.863281 25.671875 42.058594 26.539062 42.441406 C 27.347656 42.230469 28.144531 41.941406 28.929688 41.582031 C 29.121094 41.515625 29.335938 41.433594 29.582031 41.328125 C 29.824219 41.21875 30.109375 41.113281 30.429688 41.011719 C 28.324219 40.796875 26.496094 40.210938 24.9375 39.257812 C 23.375 38.300781 22.171875 37 21.320312 35.339844 C 20.472656 33.6875 20.050781 31.753906 20.050781 29.542969 C 20.050781 27.210938 20.558594 25.144531 21.578125 23.339844 C 22.59375 21.539062 24.011719 20.136719 25.839844 19.136719 C 27.664062 18.144531 29.746094 17.644531 32.082031 17.644531 C 34.476562 17.644531 36.582031 18.097656 38.382812 19.011719 C 40.1875 19.929688 41.585938 21.246094 42.582031 22.976562 C 43.582031 24.707031 44.082031 26.769531 44.082031 29.164062 C 44.082031 31.460938 43.589844 33.496094 42.613281 35.28125 C 41.636719 37.058594 40.269531 38.457031 38.511719 39.460938 C 36.746094 40.472656 34.730469 41.011719 32.460938 41.070312 C 31.972656 41.136719 31.5 41.242188 31.042969 41.386719 C 30.589844 41.539062 30.160156 41.699219 29.757812 41.863281 C 28.90625 42.207031 28.207031 42.449219 27.652344 42.597656 L 28.894531 42.632812 C 30.71875 42.691406 32.269531 42.730469 33.542969 42.730469 C 35.753906 42.730469 37.554688 42.582031 38.957031 42.28125 C 40.144531 42.027344 41.078125 41.699219 41.757812 41.296875 C 42.433594 40.890625 43.039062 40.289062 43.566406 39.476562 Z M 26.730469 29.421875 C 26.730469 31.632812 26.976562 33.570312 27.460938 35.242188 C 27.957031 36.921875 28.613281 38.214844 29.4375 39.132812 C 30.265625 40.042969 31.175781 40.5 32.175781 40.5 C 33.214844 40.5 34.132812 40.027344 34.929688 39.082031 C 35.726562 38.136719 36.335938 36.820312 36.761719 35.121094 C 37.1875 33.421875 37.394531 31.484375 37.394531 29.292969 C 37.394531 27.085938 37.152344 25.144531 36.664062 23.46875 C 36.175781 21.792969 35.515625 20.5 34.6875 19.585938 C 33.863281 18.675781 32.949219 18.214844 31.949219 18.214844 C 30.910156 18.214844 29.996094 18.6875 29.199219 19.636719 C 28.402344 20.582031 27.792969 21.902344 27.367188 23.597656 C 26.941406 25.292969 26.730469 27.234375 26.730469 29.421875 Z M 49.042969 17.644531 C 50.1875 17.644531 51.03125 18.039062 51.558594 18.824219 C 51.792969 19.136719 51.984375 19.566406 52.132812 20.09375 C 52.28125 20.625 52.355469 21.210938 52.355469 21.847656 C 52.355469 22.949219 52.066406 23.96875 51.496094 24.902344 C 50.921875 25.835938 50.085938 26.558594 48.984375 27.066406 L 48.691406 26.488281 C 49.246094 26.238281 49.738281 25.875 50.175781 25.394531 C 50.609375 24.917969 50.910156 24.414062 51.082031 23.882812 C 51.1875 23.585938 51.242188 23.234375 51.242188 22.835938 C 51.242188 22.511719 51.21875 22.28125 51.175781 22.136719 C 50.625 22.792969 49.851562 23.121094 48.855469 23.121094 C 48.003906 23.121094 47.324219 22.882812 46.8125 22.40625 C 46.308594 21.929688 46.054688 21.253906 46.054688 20.382812 C 46.054688 19.554688 46.328125 18.890625 46.878906 18.390625 C 47.433594 17.890625 48.152344 17.644531 49.042969 17.644531 Z M 56.363281 17.644531 C 57.511719 17.644531 58.351562 18.039062 58.878906 18.824219 C 59.113281 19.136719 59.308594 19.566406 59.457031 20.09375 C 59.605469 20.625 59.675781 21.210938 59.675781 21.847656 C 59.675781 22.949219 59.390625 23.96875 58.820312 24.902344 C 58.242188 25.835938 57.40625 26.558594 56.300781 27.066406 L 56.011719 26.488281 C 56.566406 26.238281 57.058594 25.875 57.496094 25.394531 C 57.929688 24.917969 58.230469 24.414062 58.402344 23.882812 C 58.511719 23.585938 58.5625 23.234375 58.5625 22.835938 C 58.5625 22.511719 58.539062 22.28125 58.5 22.136719 C 57.945312 22.792969 57.171875 23.121094 56.175781 23.121094 C 55.324219 23.121094 54.648438 22.882812 54.136719 22.40625 C 53.625 21.929688 53.375 21.253906 53.375 20.382812 C 53.375 19.554688 53.648438 18.890625 54.199219 18.390625 C 54.753906 17.890625 55.472656 17.644531 56.363281 17.644531 Z M 56.363281 17.644531 "/>
</g>
</svg>
