<svg xmlns="http://www.w3.org/2000/svg" xmlns:xlink="http://www.w3.org/1999/xlink" width="64px" height="64px" viewBox="0 0 64 64" version="1.1">
<defs>
<linearGradient id="linear0" gradientUnits="userSpaceOnUse" x1="0" y1="0" x2="0" y2="1" gradientTransform="matrix(55.351351,0,0,52.711713,4.324324,5.644144)">
<stop offset="0" style="stop-color:#00a2ff;stop-opacity:1;"/>
<stop offset="0.5" style="stop-color:#dddddd;stop-opacity:1;"/>
<stop offset="1" style="stop-color:#00ffae;stop-opacity:1;"/>
</linearGradient>
</defs>
<g id="surface1">
<path style=" stroke:none;fill-rule:nonzero;fill:url(#linear0);" d="M 35.957031 5.644531 C 34.496094 5.644531 33.320312 6.820312 33.320312 8.28125 L 33.320312 27.214844 L 30.515625 30.015625 C 29.539062 23.582031 24.011719 18.824219 17.503906 18.820312 C 10.226562 18.820312 4.324219 24.71875 4.324219 32 C 4.324219 39.28125 10.226562 45.175781 17.503906 45.175781 C 20.355469 45.175781 23.136719 44.238281 25.410156 42.523438 L 25.410156 55.71875 C 25.410156 57.179688 26.585938 58.355469 28.042969 58.355469 C 29.503906 58.355469 30.679688 57.179688 30.679688 55.71875 L 30.679688 37.308594 L 33.554688 34.4375 C 34.726562 40.664062 40.164062 45.175781 46.496094 45.179688 C 53.773438 45.179688 59.675781 39.28125 59.675781 32 C 59.675781 24.71875 53.773438 18.820312 46.496094 18.820312 C 43.644531 18.824219 40.863281 19.761719 38.589844 21.476562 L 38.589844 8.28125 C 38.589844 6.820312 37.414062 5.644531 35.957031 5.644531 Z M 17.503906 24.089844 C 21.867188 24.089844 25.414062 27.636719 25.414062 32 C 25.414062 36.363281 21.867188 39.910156 17.503906 39.910156 C 13.136719 39.910156 9.59375 36.363281 9.59375 32 C 9.59375 27.636719 13.136719 24.089844 17.503906 24.089844 Z M 46.5 24.089844 C 50.863281 24.089844 54.40625 27.636719 54.40625 32 C 54.40625 36.363281 50.863281 39.910156 46.5 39.910156 C 42.132812 39.910156 38.589844 36.363281 38.589844 32 C 38.589844 27.636719 42.132812 24.089844 46.5 24.089844 Z M 46.5 24.089844 "/>
</g>
</svg>
