<svg xmlns="http://www.w3.org/2000/svg" xmlns:xlink="http://www.w3.org/1999/xlink" width="64px" height="64px" viewBox="0 0 64 64" version="1.1">
<defs>
<linearGradient id="linear0" gradientUnits="userSpaceOnUse" x1="0" y1="0" x2="0" y2="1" gradientTransform="matrix(47.801801,0,0,55.351351,8.0991,4.324324)">
<stop offset="0" style="stop-color:#ff8963;stop-opacity:1;"/>
<stop offset="0.5" style="stop-color:#dddddd;stop-opacity:1;"/>
<stop offset="1" style="stop-color:#0F6FFF;stop-opacity:1;"/>
</linearGradient>
</defs>
<g id="surface1">
<path style=" stroke:none;fill-rule:nonzero;fill:url(#linear0);" d="M 21.0625 22.761719 C 21.125 24.285156 20.3125 24.511719 19.597656 24.449219 C 18.90625 24.402344 17.792969 24.117188 18.117188 22.429688 C 18.875 18.46875 16.179688 16.171875 13.609375 14.742188 C 18.835938 21.460938 14.011719 21.476562 11.589844 30.109375 C 11.089844 31.875 10.648438 33.675781 10.636719 35.390625 C 10.625 36.523438 11.308594 37.613281 11.769531 38.644531 C 12.109375 39.382812 12.984375 40.269531 12.894531 41.164062 C 12.8125 42.09375 12.164062 42.808594 11.753906 43.621094 C 11.125 44.867188 8.691406 45.988281 8.164062 47.097656 C 7.867188 47.710938 8.589844 48.179688 9.117188 48.46875 C 9.917969 48.917969 11.003906 49.0625 11.472656 49.890625 C 11.792969 50.46875 11.710938 51.078125 11.429688 51.632812 C 11.175781 52.152344 10.988281 52.933594 11.511719 53.285156 C 11.90625 53.539062 12.414062 53.675781 12.6875 54.121094 C 12.9375 54.550781 12.820312 55.058594 13.230469 55.386719 C 13.90625 55.941406 15.027344 55.886719 15.542969 57.042969 C 15.785156 57.578125 15.945312 58.171875 16.261719 58.699219 C 16.742188 59.503906 18.09375 59.742188 19.027344 59.664062 C 20.027344 59.5625 20.765625 59.253906 21.726562 58.96875 C 24.210938 58.214844 26.5625 57.214844 28.789062 55.839844 C 30.660156 54.671875 31.796875 54.011719 33.476562 53.042969 C 34.707031 52.363281 36.457031 52.585938 37.8125 52.242188 C 39.496094 51.824219 41.515625 51.152344 42.707031 50 C 43.960938 48.785156 44.484375 47.824219 44.863281 45.585938 C 44.320312 46.320312 42.917969 48.753906 41.527344 49.199219 C 40 49.691406 39.28125 49.433594 38.8125 48.820312 C 38.417969 48.292969 38.3125 47.59375 38.335938 46.949219 C 39.242188 44.023438 43.335938 44.488281 45.960938 43.472656 C 50.746094 41.636719 51.839844 38.148438 52.164062 34.867188 C 52.308594 33.082031 52.550781 31.878906 55.632812 28.28125 C 51.773438 29.902344 50.179688 30.6875 49.289062 32.589844 C 48.457031 34.378906 45.390625 35.386719 43.8125 33.632812 C 41.8125 31.394531 46.726562 29.488281 50 28.691406 C 52.617188 28.054688 55.089844 25.488281 55.636719 23.023438 C 56.5 17.378906 54.363281 13.800781 54.132812 10.21875 C 54.011719 8.351562 54.828125 6.488281 55.902344 4.324219 C 46.578125 11.460938 54.496094 15.335938 48.539062 21.210938 C 45.136719 24.542969 42.324219 22.773438 43.648438 19.921875 C 44.523438 18.085938 45.351562 18.445312 46.050781 14.199219 C 44.105469 16.945312 38.867188 16.847656 37.109375 21.320312 C 35.675781 24.867188 34.53125 24.894531 33.8125 23.902344 C 32.945312 22.710938 32.902344 18.410156 36.757812 16.378906 C 39.746094 14.800781 45.558594 15.8125 47.296875 4.59375 C 43.800781 11.234375 36.082031 10.179688 29.179688 13.050781 C 25.59375 14.53125 20.882812 18.496094 21.0625 22.761719 "/>
</g>
</svg>
