<!-- Uploaded to: SVG Repo, www.svgrepo.com, Generator: SVG Repo Mixer Tools -->
<svg xmlns="http://www.w3.org/2000/svg" xmlns:xlink="http://www.w3.org/1999/xlink" width="48px" height="48px" viewBox="0 0 48 48" version="1.1">
<g id="surface1">
<path style=" stroke:none;fill-rule:nonzero;fill:rgb(95.294118%,60.000002%,0%);fill-opacity:1;" d="M 47.96875 18.402344 C 47.90625 18.207031 47.714844 17.957031 47.300781 17.886719 C 46.886719 17.816406 32.601562 15.074219 32.601562 15.074219 C 32.601562 15.074219 32.390625 15.03125 32.203125 14.9375 C 32.019531 14.84375 31.949219 14.601562 31.949219 14.601562 C 31.949219 14.601562 24.894531 1.910156 24.699219 1.539062 C 24.5 1.164062 24.207031 1.0625 24 1.0625 C 23.792969 1.0625 23.496094 1.164062 23.300781 1.539062 C 23.105469 1.910156 16.050781 14.601562 16.050781 14.601562 C 16.050781 14.601562 15.980469 14.84375 15.792969 14.9375 C 15.609375 15.03125 15.398438 15.074219 15.398438 15.074219 C 15.398438 15.074219 1.113281 17.816406 0.695312 17.886719 C 0.28125 17.957031 0.09375 18.207031 0.03125 18.402344 C -0.046875 18.722656 0.046875 19.066406 0.28125 19.300781 L 11.003906 30.28125 C 11.003906 30.28125 11.148438 30.441406 11.242188 30.625 C 11.273438 30.832031 11.253906 31.042969 11.253906 31.042969 C 11.253906 31.042969 8.875 45.527344 8.8125 45.945312 C 8.75 46.359375 8.960938 46.683594 9.128906 46.804688 C 9.296875 46.929688 9.597656 47.015625 9.972656 46.828125 C 10.351562 46.644531 23.597656 40.308594 23.597656 40.308594 C 23.597656 40.308594 23.792969 40.21875 23.996094 40.1875 C 24.203125 40.152344 24.398438 40.308594 24.398438 40.308594 C 24.398438 40.308594 37.644531 46.644531 38.023438 46.828125 C 38.398438 47.019531 38.699219 46.929688 38.867188 46.804688 C 39.117188 46.59375 39.238281 46.265625 39.183594 45.945312 C 39.140625 45.664062 37.324219 34.589844 37.324219 34.589844 C 39.074219 33.511719 40.175781 32.511719 41.023438 31.097656 C 35.835938 33.035156 29.011719 34.53125 22.191406 34.828125 C 20.363281 34.910156 17.371094 35.023438 15.246094 34.796875 C 13.890625 34.65625 12.90625 34.511719 12.761719 33.921875 C 12.652344 33.492188 12.867188 33.003906 13.851562 32.261719 C 15.757812 30.820312 17.664062 29.386719 19.570312 27.949219 C 22.140625 26.015625 26.691406 23.011719 26.691406 22.488281 C 26.691406 21.917969 22.402344 20.925781 18.617188 20.925781 C 14.726562 20.925781 14.066406 21.191406 12.992188 21.261719 C 12.019531 21.328125 11.457031 21.273438 11.386719 20.984375 C 11.265625 20.488281 11.753906 20.207031 12.5625 19.851562 C 13.980469 19.222656 16.28125 18.660156 16.53125 18.597656 C 16.917969 18.492188 22.695312 16.988281 27.765625 17.527344 C 30.402344 17.808594 34.253906 18.863281 34.253906 20.078125 C 34.253906 20.765625 30.8125 23.066406 27.804688 25.273438 C 25.507812 26.960938 23.371094 28.394531 23.371094 28.648438 C 23.371094 29.335938 30.4375 31.132812 36.746094 30.671875 L 36.753906 30.625 C 36.851562 30.441406 36.992188 30.28125 36.992188 30.28125 L 47.714844 19.300781 C 47.953125 19.066406 48.046875 18.726562 47.96875 18.402344 Z M 47.96875 18.402344 "/>
</g>
</svg>
