<svg xmlns="http://www.w3.org/2000/svg" xmlns:xlink="http://www.w3.org/1999/xlink" width="64px" height="64px" viewBox="0 0 64 64" version="1.1">
<defs>
<linearGradient id="linear0" gradientUnits="userSpaceOnUse" x1="0" y1="0" x2="0" y2="1" gradientTransform="matrix(51.225226,0,0,55.351351,6.387388,4.324324)">
<stop offset="0" style="stop-color:#ffae00;stop-opacity:1;"/>
<stop offset="0.5" style="stop-color:#dddddd;stop-opacity:1;"/>
<stop offset="1" style="stop-color:#bf1d1d;stop-opacity:1;"/>
</linearGradient>
</defs>
<g id="surface1">
<path style=" stroke:none;fill-rule:nonzero;fill:url(#linear0);" d="M 21.097656 4.324219 C 9.523438 4.324219 8.863281 4.378906 7.660156 5.484375 C 5.257812 7.660156 6.585938 12.117188 9.644531 12.136719 C 10.375 12.136719 11.460938 12.292969 12.058594 12.476562 L 13.148438 12.8125 L 13.148438 51.148438 L 11.769531 51.148438 C 9.761719 51.148438 7.402344 52.226562 6.855469 53.402344 C 5.78125 55.714844 6.617188 58.1875 8.796875 59.113281 C 9.199219 59.28125 13.390625 59.441406 18.117188 59.460938 C 24.558594 59.496094 27.125 59.3125 28.367188 58.707031 L 28.367188 58.710938 C 30.257812 57.800781 30.976562 55.746094 30.148438 53.648438 C 29.511719 52.039062 27.039062 51.152344 23.179688 51.152344 L 20.394531 51.148438 L 20.394531 36.09375 L 30.929688 36.09375 L 33.511719 39.328125 C 36.335938 42.839844 40.570312 49.933594 43.402344 55.863281 L 45.1875 59.625 C 45.1875 59.625 47.335938 59.664062 51.414062 59.675781 C 55.488281 59.6875 57.613281 58.46875 57.613281 55.253906 C 57.613281 52.8125 56.113281 51.691406 52.335938 51.300781 L 49.4375 50.996094 L 46.746094 46.097656 C 45.265625 43.410156 43.058594 39.917969 41.835938 38.351562 C 40.609375 36.78125 39.6875 35.433594 39.789062 35.355469 C 42.105469 33.570312 44.6875 30.976562 45.488281 29.632812 C 49.484375 22.933594 47.234375 12.472656 40.78125 7.746094 C 36.59375 4.6875 34.527344 4.324219 21.097656 4.324219 Z M 20.394531 12.6875 L 27.285156 12.699219 C 30.160156 12.703125 31.960938 12.753906 33.265625 12.90625 C 33.914062 12.988281 34.4375 13.09375 34.910156 13.234375 C 35.378906 13.378906 35.789062 13.558594 36.214844 13.78125 C 36.875 14.125 37.449219 14.539062 37.945312 15.027344 C 38.445312 15.511719 38.863281 16.066406 39.199219 16.691406 C 39.539062 17.3125 39.789062 18.003906 39.957031 18.761719 C 40.125 19.511719 40.207031 20.335938 40.210938 21.210938 C 40.210938 21.863281 40.171875 22.460938 40.082031 22.996094 C 39.996094 23.527344 39.851562 24.011719 39.652344 24.4375 C 39.449219 24.863281 39.191406 25.238281 38.863281 25.570312 C 38.527344 25.902344 38.125 26.1875 37.644531 26.433594 C 37.160156 26.675781 36.59375 26.878906 35.9375 27.042969 C 35.28125 27.214844 34.53125 27.347656 33.6875 27.445312 C 31.988281 27.652344 29.878906 27.730469 27.285156 27.730469 L 20.394531 27.734375 Z M 20.394531 12.6875 "/>
</g>
</svg>
