<svg xmlns="http://www.w3.org/2000/svg" xmlns:xlink="http://www.w3.org/1999/xlink" width="64px" height="64px" viewBox="0 0 64 64" version="1.1">
<defs>
<linearGradient id="linear0" gradientUnits="userSpaceOnUse" x1="0" y1="0" x2="0" y2="1" gradientTransform="matrix(47.445946,0,0,55.351351,8.279279,4.324324)">
<stop offset="0" style="stop-color:#05f7ff;stop-opacity:1;"/>
<stop offset="0.5" style="stop-color:#dddddd;stop-opacity:1;"/>
<stop offset="1" style="stop-color:#e6ff05;stop-opacity:1;"/>
</linearGradient>
</defs>
<g id="surface1">
<path style=" stroke:none;fill-rule:nonzero;fill:url(#linear0);" d="M 45.5625 4.324219 C 39.523438 4.3125 27.1875 6.851562 25.875 8.460938 C 25.476562 8.957031 25.460938 9.445312 25.820312 10.496094 C 26.625 12.847656 27.144531 16.789062 25.378906 28.273438 C 23.335938 41.589844 22.472656 46.203125 22.011719 46.671875 C 21.820312 46.863281 20.8125 46.632812 19.769531 46.148438 C 17.203125 44.960938 13.230469 44.949219 11.339844 46.125 C 5.710938 49.621094 8.191406 56.835938 15.945312 59.414062 C 16.539062 59.613281 18.203125 59.71875 19.648438 59.660156 C 21.6875 59.570312 22.753906 59.257812 24.363281 58.253906 C 27.429688 56.351562 28.886719 53.109375 30.539062 44.527344 C 31.257812 40.808594 31.878906 37.394531 32 37.269531 C 32.121094 37.148438 32.988281 38.199219 33.855469 39.273438 C 39.460938 46.28125 43.050781 49.132812 47.113281 49.132812 C 48.375 49.132812 49.1875 48.988281 49.1875 48.6875 C 49.1875 48.417969 48.1875 47.324219 46.972656 46.105469 C 43.503906 42.488281 41.976562 37.179688 38.589844 33.320312 L 40.253906 32.449219 C 51.457031 25.523438 57.988281 15.242188 55 9.257812 C 53.238281 5.742188 50.539062 4.328125 45.5625 4.324219 Z M 43.5625 13.550781 C 45.652344 13.542969 47.53125 13.746094 48.363281 14.214844 C 49.257812 14.726562 49.363281 14.875 48.71875 14.707031 C 47.960938 14.515625 47.511719 14.839844 46.378906 16.421875 C 44.609375 18.890625 41.761719 21.53125 38.445312 23.792969 C 34.511719 26.476562 33.585938 26.988281 33.351562 26.625 C 33.058594 26.164062 34.808594 15.648438 35.273438 15.078125 C 36.027344 14.152344 40.085938 13.5625 43.5625 13.550781 Z M 43.5625 13.550781 "/>
</g>
</svg>
