<svg xmlns="http://www.w3.org/2000/svg" xmlns:xlink="http://www.w3.org/1999/xlink" width="64px" height="64px" viewBox="0 0 64 64" version="1.1">
<defs>
<linearGradient id="linear0" gradientUnits="userSpaceOnUse" x1="0" y1="0" x2="0" y2="1" gradientTransform="matrix(55.351351,0,0,44.256757,4.324324,9.873874)">
<stop offset="0" style="stop-color:#ffae00;stop-opacity:1;"/>
<stop offset="0.5" style="stop-color:#dddddd;stop-opacity:1;"/>
<stop offset="1" style="stop-color:#bf1d1d;stop-opacity:1;"/>
</linearGradient>
</defs>
<g id="surface1">
<path style=" stroke:none;fill-rule:nonzero;fill:url(#linear0);" d="M 17.296875 9.875 C 16.855469 9.875 16.414062 10.039062 16.078125 10.378906 C 15.394531 11.058594 15.394531 12.148438 16.078125 12.824219 L 26.242188 22.996094 L 7.785156 22.996094 C 5.867188 22.996094 4.324219 24.539062 4.324219 26.457031 L 4.324219 50.671875 C 4.324219 52.585938 5.867188 54.132812 7.785156 54.132812 L 56.214844 54.132812 C 58.132812 54.132812 59.675781 52.585938 59.675781 50.671875 L 59.675781 26.457031 C 59.675781 24.539062 58.132812 22.996094 56.214844 22.996094 L 36.863281 22.996094 L 47.03125 12.824219 C 47.710938 12.148438 47.710938 11.058594 47.03125 10.378906 C 46.355469 9.703125 45.265625 9.703125 44.589844 10.378906 L 31.972656 22.996094 L 31.136719 22.996094 L 18.515625 10.378906 C 18.179688 10.039062 17.738281 9.875 17.296875 9.875 Z M 19.890625 29.914062 C 24.664062 29.914062 28.539062 33.785156 28.539062 38.5625 C 28.539062 43.335938 24.664062 47.210938 19.890625 47.210938 C 15.117188 47.210938 11.242188 43.335938 11.242188 38.5625 C 11.242188 33.785156 15.117188 29.914062 19.890625 29.914062 Z M 37.1875 33.375 L 51.027344 33.375 C 51.988281 33.375 52.757812 34.144531 52.757812 35.105469 C 52.757812 36.058594 51.988281 36.835938 51.027344 36.835938 L 37.1875 36.835938 C 36.230469 36.835938 35.460938 36.058594 35.460938 35.105469 C 35.460938 34.144531 36.230469 33.375 37.1875 33.375 Z M 37.1875 40.292969 L 51.027344 40.292969 C 51.988281 40.292969 52.757812 41.0625 52.757812 42.023438 C 52.757812 42.976562 51.988281 43.753906 51.027344 43.753906 L 37.1875 43.753906 C 36.230469 43.753906 35.460938 42.976562 35.460938 42.023438 C 35.460938 41.0625 36.230469 40.292969 37.1875 40.292969 Z M 37.1875 40.292969 "/>
</g>
</svg>
