<svg xmlns="http://www.w3.org/2000/svg" xmlns:xlink="http://www.w3.org/1999/xlink" width="64px" height="64px" viewBox="0 0 64 64" version="1.1">
<defs>
<linearGradient id="linear0" gradientUnits="userSpaceOnUse" x1="0" y1="0" x2="0" y2="1" gradientTransform="matrix(52.373875,0,0,55.351351,5.81081,4.324324)">
<stop offset="0" style="stop-color:#ffae00;stop-opacity:1;"/>
<stop offset="0.5" style="stop-color:#dddddd;stop-opacity:1;"/>
<stop offset="1" style="stop-color:#6600ff;stop-opacity:1;"/>
</linearGradient>
</defs>
<g id="surface1">
<path style=" stroke:none;fill-rule:nonzero;fill:url(#linear0);" d="M 5.8125 37.636719 C 6.109375 43.550781 5.773438 50.613281 10.113281 54.976562 C 14.171875 58.757812 20.117188 59.1875 25.253906 59.488281 C 27.710938 59.636719 30.402344 59.675781 33.488281 59.675781 L 41.78125 59.675781 C 41.863281 59.300781 41.921875 58.867188 42.011719 58.5625 C 42.386719 57.335938 42.738281 54.808594 42.738281 53.300781 C 42.738281 51.460938 42.285156 48.097656 41.6875 45.472656 C 41.613281 45.160156 41.6875 45.148438 44.421875 45.148438 C 46.96875 45.148438 47.363281 45.113281 48.46875 44.746094 C 49.328125 44.46875 50.109375 44.335938 51.089844 44.320312 C 54.015625 44.265625 56.3125 42.636719 57.066406 40.085938 C 57.214844 39.589844 57.488281 39.121094 57.757812 38.910156 C 58.144531 38.605469 58.191406 38.445312 58.1875 37.675781 C 58.164062 36.226562 57.417969 34.988281 55.320312 32.921875 L 53.539062 31.175781 L 53.539062 29.960938 C 53.539062 28.863281 53.503906 28.726562 53.089844 28.335938 C 52.4375 27.730469 51.863281 27.644531 50.988281 28.027344 C 50.589844 28.207031 50.152344 28.3125 50.03125 28.265625 C 49.738281 28.160156 49.289062 27.027344 49.289062 26.40625 C 49.289062 26.011719 49.449219 25.808594 50.199219 25.253906 C 51.191406 24.515625 51.414062 24.117188 51.414062 23.0625 C 51.414062 21.941406 50.1875 20.511719 49.214844 20.511719 C 48.988281 20.511719 48.394531 20.023438 47.554688 19.152344 C 46.796875 18.363281 45.917969 17.636719 45.488281 17.421875 C 44.710938 17.050781 42.835938 16.664062 42.570312 16.828125 C 42.488281 16.878906 42.296875 16.679688 42.136719 16.382812 C 41.703125 15.558594 41.746094 13.761719 42.230469 12.765625 C 43.296875 10.578125 46.410156 8.757812 50.144531 8.152344 C 50.960938 8.023438 51.660156 7.882812 51.699219 7.835938 C 51.738281 7.800781 51.289062 7.613281 50.6875 7.433594 C 46.230469 6.054688 41.539062 6.917969 39.039062 9.578125 C 38.644531 10 38.3125 10.335938 38.308594 10.3125 C 37.914062 9.230469 38.835938 6.417969 40.042969 4.976562 C 40.289062 4.6875 40.445312 4.414062 40.394531 4.363281 C 40.363281 4.335938 40.296875 4.3125 40.203125 4.328125 C 39.554688 4.378906 37.609375 5.367188 36.539062 6.234375 C 35.042969 7.445312 33.609375 9.863281 33.175781 11.890625 L 32.960938 12.902344 L 32.539062 11.996094 C 32.089844 11.039062 31.773438 9.476562 31.769531 8.191406 C 31.769531 7.765625 31.714844 7.417969 31.648438 7.417969 C 31.445312 7.421875 29.875 10.152344 29.011719 11.996094 C 27.886719 14.410156 27.1875 16.246094 26.207031 19.363281 C 23.6875 27.414062 22.671875 29.578125 20.253906 32.097656 C 17.882812 34.566406 13 36.273438 10.449219 36.828125 C 7.894531 37.378906 7.417969 37.484375 5.8125 37.636719 Z M 5.8125 37.636719 "/>
</g>
</svg>
