<svg xmlns="http://www.w3.org/2000/svg" xmlns:xlink="http://www.w3.org/1999/xlink" width="64px" height="64px" viewBox="0 0 64 64" version="1.1">
<defs>
<linearGradient id="linear0" gradientUnits="userSpaceOnUse" x1="0" y1="0" x2="0" y2="1" gradientTransform="matrix(42.585584,0,0,55.351351,10.707207,4.324324)">
<stop offset="0" style="stop-color:#00a2ff;stop-opacity:1;"/>
<stop offset="0.5" style="stop-color:#dddddd;stop-opacity:1;"/>
<stop offset="1" style="stop-color:#00ffae;stop-opacity:1;"/>
</linearGradient>
</defs>
<g id="surface1">
<path style=" stroke:none;fill-rule:nonzero;fill:url(#linear0);" d="M 23.488281 4.324219 C 20.6875 4.324219 18.46875 4.582031 16.597656 5.285156 C 14.734375 5.988281 13.234375 7.246094 12.351562 8.851562 C 10.582031 12.058594 10.769531 15.972656 10.707031 21.328125 L 10.707031 42.664062 C 10.769531 48.027344 10.582031 51.949219 12.351562 55.152344 C 13.234375 56.757812 14.734375 58.023438 16.597656 58.71875 C 18.46875 59.421875 20.6875 59.675781 23.488281 59.675781 L 40.511719 59.675781 C 43.3125 59.675781 45.53125 59.417969 47.402344 58.714844 C 49.265625 58.011719 50.757812 56.753906 51.636719 55.148438 C 53.410156 51.941406 53.230469 48.027344 53.292969 42.664062 L 53.292969 27.09375 L 48.933594 20.554688 C 48.890625 15.691406 49.050781 11.851562 47.390625 8.839844 C 46.511719 7.242188 45.011719 5.976562 43.136719 5.273438 C 41.273438 4.578125 39.058594 4.324219 36.257812 4.324219 Z M 23.488281 8.582031 L 36.257812 8.582031 C 38.78125 8.582031 40.539062 8.847656 41.648438 9.265625 C 42.757812 9.679688 43.230469 10.132812 43.664062 10.914062 C 44.523438 12.472656 44.707031 16 44.769531 21.378906 L 44.785156 22.011719 L 49.03125 28.390625 L 49.03125 42.621094 C 48.972656 48 48.78125 51.527344 47.917969 53.085938 C 47.488281 53.867188 47.011719 54.320312 45.90625 54.738281 C 44.796875 55.152344 43.039062 55.417969 40.511719 55.417969 L 23.488281 55.417969 C 20.960938 55.417969 19.203125 55.152344 18.09375 54.738281 C 16.988281 54.320312 16.511719 53.867188 16.082031 53.085938 C 15.21875 51.53125 15.027344 48 14.96875 42.644531 L 14.96875 21.355469 C 15.027344 16 15.21875 12.46875 16.082031 10.914062 C 16.511719 10.132812 16.988281 9.679688 18.09375 9.265625 C 19.203125 8.847656 20.960938 8.582031 23.488281 8.582031 Z M 19.230469 12.835938 L 19.230469 21.355469 L 23.488281 21.355469 L 23.488281 12.835938 Z M 27.742188 12.835938 L 27.742188 21.355469 L 32 21.355469 L 32 12.835938 Z M 36.257812 12.835938 L 36.257812 21.355469 L 40.511719 21.355469 L 40.511719 12.835938 Z M 36.257812 12.835938 "/>
</g>
</svg>
