<svg xmlns="http://www.w3.org/2000/svg" xmlns:xlink="http://www.w3.org/1999/xlink" width="64px" height="64px" viewBox="0 0 64 64" version="1.1">
<defs>
<linearGradient id="linear0" gradientUnits="userSpaceOnUse" x1="0" y1="0" x2="0" y2="1" gradientTransform="matrix(55.351351,0,0,54.837838,4.324324,4.581081)">
<stop offset="0" style="stop-color:#ffae00;stop-opacity:1;"/>
<stop offset="0.5" style="stop-color:#dddddd;stop-opacity:1;"/>
<stop offset="1" style="stop-color:#bf1d1d;stop-opacity:1;"/>
</linearGradient>
</defs>
<g id="surface1">
<path style=" stroke:none;fill-rule:evenodd;fill:url(#linear0);" d="M 49.523438 22.792969 C 38.945312 4.363281 30.585938 2.839844 24.484375 5.71875 C 21.5 7.125 22.746094 8.417969 18.496094 7.488281 C 14.714844 6.664062 12.324219 6.382812 9 7.933594 C 5.675781 9.476562 4.324219 11.027344 4.324219 11.914062 C 4.324219 12.800781 5.210938 10.582031 7.648438 10.355469 C 10.085938 10.125 14.042969 10.355469 16.707031 12.351562 C 19.363281 14.339844 19.585938 16.097656 19.585938 16.984375 C 19.585938 17.867188 16.703125 16.589844 13.308594 17.421875 C 10.300781 18.164062 7.988281 19.039062 7.761719 19.929688 C 7.539062 20.8125 13.097656 20.269531 15.703125 20.261719 C 16.941406 20.300781 17.839844 19.914062 18.707031 21.59375 C 19.597656 23.363281 19.8125 24.707031 20.929688 25.136719 C 22.039062 25.5625 22.257812 24.253906 23.582031 26.910156 C 24.914062 29.570312 25.355469 30.53125 23.800781 34.515625 C 22.246094 38.511719 21.121094 41.550781 21.789062 40.878906 C 22.308594 40.363281 23.984375 39.875 24.582031 39.097656 C 24.414062 40.523438 24.582031 43.136719 26.476562 46.058594 C 29.800781 51.152344 34.664062 50.734375 41.539062 52.496094 C 52.242188 55.1875 56.9375 55.03125 59.179688 58.6875 C 59.621094 59.410156 59.90625 60.039062 59.429688 58.3125 C 57.226562 50.257812 56.011719 34.105469 49.523438 22.792969 Z M 24.730469 9.671875 C 24.730469 8.734375 25.488281 7.976562 26.421875 7.976562 C 27.363281 7.976562 28.121094 8.734375 28.121094 9.671875 C 28.121094 10.609375 27.363281 11.367188 26.421875 11.367188 C 25.488281 11.367188 24.730469 10.609375 24.730469 9.671875 Z M 24.730469 9.671875 "/>
</g>
</svg>
