<svg xmlns="http://www.w3.org/2000/svg" xmlns:xlink="http://www.w3.org/1999/xlink" width="64px" height="64px" viewBox="0 0 64 64" version="1.1">
<defs>
<linearGradient id="linear0" gradientUnits="userSpaceOnUse" x1="0" y1="0" x2="0" y2="1" gradientTransform="matrix(55.351351,0,0,55.351351,4.324324,4.324324)">
<stop offset="0" style="stop-color:#00b7ff;stop-opacity:1;"/>
<stop offset="0.5" style="stop-color:#dddddd;stop-opacity:1;"/>
<stop offset="1" style="stop-color:#ee42d9;stop-opacity:1;"/>
</linearGradient>
</defs>
<g id="surface1">
<path style=" stroke:none;fill-rule:nonzero;fill:url(#linear0);" d="M 58.820312 4.324219 C 58.710938 4.324219 58.511719 4.335938 58.296875 4.347656 C 58.011719 4.363281 57.761719 4.378906 57.738281 4.378906 C 57.714844 4.378906 57.613281 4.5 57.503906 4.652344 C 57.394531 4.808594 57.285156 4.941406 57.253906 4.960938 C 57.226562 4.972656 57.039062 5.050781 56.847656 5.121094 C 56.511719 5.242188 56.476562 5.246094 56.363281 5.21875 C 56.203125 5.179688 55.96875 5.191406 53.957031 5.351562 L 53.023438 5.421875 L 52.558594 5.863281 C 52.300781 6.105469 52.078125 6.320312 52.0625 6.347656 C 52.039062 6.363281 51.902344 6.429688 51.738281 6.476562 C 51.175781 6.664062 50.707031 6.933594 50.378906 7.265625 C 50.148438 7.5 50.070312 7.625 49.886719 8.070312 C 49.808594 8.257812 49.738281 8.417969 49.730469 8.421875 C 49.71875 8.433594 49.605469 8.363281 49.46875 8.28125 C 48.738281 7.808594 48.03125 7.585938 47.230469 7.585938 C 46.105469 7.585938 45.097656 7.890625 44.335938 8.460938 C 43.605469 9.011719 43 9.699219 42.660156 10.375 C 42.527344 10.636719 42.390625 11.164062 42.324219 11.671875 C 42.261719 12.203125 42.28125 13.078125 42.367188 13.488281 C 42.515625 14.1875 43.105469 15.488281 43.757812 16.5625 C 44.53125 17.839844 45.164062 18.652344 46.699219 20.3125 C 47.292969 20.960938 47.417969 21.09375 48.652344 22.363281 C 49.617188 23.347656 49.933594 23.714844 50.335938 24.328125 C 51.210938 25.664062 51.664062 26.9375 51.53125 27.675781 C 51.460938 28.054688 51.207031 28.441406 50.847656 28.710938 C 50.609375 28.890625 50.066406 29.164062 49.753906 29.261719 C 49.488281 29.339844 49.160156 29.410156 49.125 29.382812 C 49.121094 29.375 49.164062 29.175781 49.21875 28.9375 C 49.410156 28.164062 49.484375 27.476562 49.441406 26.8125 C 49.367188 25.664062 48.914062 24.511719 48.242188 23.785156 C 47.710938 23.210938 46.757812 22.566406 46.054688 22.324219 C 45.648438 22.179688 45.429688 22.148438 44.960938 22.164062 C 44.449219 22.179688 44.175781 22.242188 43.8125 22.421875 C 43.347656 22.652344 43.121094 22.972656 43.121094 23.382812 C 43.125 23.566406 43.136719 23.625 43.207031 23.761719 C 43.320312 23.960938 43.511719 24.164062 43.675781 24.230469 C 43.742188 24.261719 43.933594 24.296875 44.09375 24.3125 C 44.496094 24.355469 44.800781 24.441406 45.144531 24.609375 C 45.484375 24.765625 45.714844 24.9375 46.023438 25.234375 C 46.390625 25.59375 46.589844 25.960938 46.707031 26.460938 C 46.769531 26.742188 46.769531 27.363281 46.707031 27.621094 C 46.636719 27.886719 46.488281 28.265625 46.417969 28.363281 L 46.355469 28.441406 L 45.792969 27.890625 C 45.050781 27.164062 44.027344 26.207031 43.742188 25.96875 C 42.710938 25.109375 41.660156 24.503906 40.8125 24.285156 C 40.679688 24.246094 40.550781 24.207031 40.539062 24.1875 C 40.511719 24.171875 40.488281 24.050781 40.460938 23.921875 C 40.300781 22.851562 39.828125 21.625 39.246094 20.761719 C 38.90625 20.246094 38.613281 19.902344 38.011719 19.308594 C 37.136719 18.4375 36.320312 17.828125 35.457031 17.410156 L 35.015625 17.191406 L 34.929688 16.890625 C 34.679688 15.988281 34.199219 15.015625 33.625 14.261719 C 33.363281 13.90625 32.789062 13.3125 32.449219 13.042969 C 31.550781 12.335938 30.5625 11.917969 29.324219 11.730469 C 28.8125 11.652344 27.773438 11.621094 27.265625 11.671875 C 26.230469 11.773438 25.355469 12.082031 24.710938 12.5625 C 23.417969 13.53125 22.253906 15.1875 21.730469 16.796875 C 21.3125 18.085938 19.878906 23.882812 19.144531 27.269531 C 19.050781 27.707031 18.960938 27.90625 18.675781 28.300781 C 18.390625 28.6875 18.152344 28.941406 17.933594 29.078125 C 17.785156 29.164062 17.742188 29.175781 17.554688 29.175781 C 17.300781 29.175781 17.054688 29.070312 16.957031 28.9375 C 16.78125 28.6875 16.699219 28.234375 16.726562 27.589844 C 16.742188 27.144531 16.78125 26.90625 16.96875 25.9375 C 17.171875 24.894531 16.988281 24.136719 16.382812 23.511719 C 16.085938 23.199219 15.621094 22.929688 15.1875 22.8125 C 14.914062 22.734375 14.367188 22.742188 14.066406 22.820312 C 13.242188 23.042969 12.578125 23.539062 12.136719 24.273438 C 12.058594 24.402344 11.96875 24.582031 11.933594 24.671875 C 11.8125 24.941406 11.8125 24.941406 11.621094 24.648438 C 11.527344 24.511719 11.355469 24.296875 11.242188 24.1875 C 11.039062 23.984375 11.039062 23.984375 10.636719 23.851562 C 10.421875 23.785156 10.144531 23.675781 10.023438 23.613281 C 9.71875 23.460938 9.476562 23.386719 9.179688 23.351562 C 9.039062 23.335938 8.613281 23.269531 8.230469 23.207031 C 7.570312 23.097656 7.523438 23.089844 7.226562 22.945312 C 6.882812 22.789062 6.914062 22.820312 6.558594 22.269531 C 6.335938 21.917969 6.171875 21.773438 5.9375 21.71875 C 5.488281 21.613281 4.9375 22.027344 4.894531 22.511719 C 4.882812 22.664062 4.867188 22.6875 4.792969 22.730469 C 4.644531 22.808594 4.46875 22.988281 4.394531 23.136719 C 4.210938 23.539062 4.402344 24.089844 4.789062 24.265625 C 4.882812 24.308594 5.648438 24.433594 5.8125 24.433594 C 5.835938 24.433594 5.984375 24.53125 6.136719 24.648438 C 6.417969 24.855469 6.433594 24.867188 6.675781 25.265625 C 6.8125 25.488281 6.996094 25.757812 7.078125 25.851562 C 7.164062 25.957031 7.257812 26.085938 7.289062 26.148438 C 7.390625 26.351562 7.691406 26.726562 7.863281 26.863281 C 7.957031 26.9375 8.085938 27.078125 8.160156 27.171875 C 8.511719 27.648438 8.921875 27.851562 9.730469 27.9375 L 10.058594 27.976562 L 10.296875 28.144531 C 10.632812 28.382812 11.066406 28.59375 11.417969 28.6875 C 11.8125 28.789062 12.242188 28.769531 12.675781 28.644531 C 12.835938 28.597656 12.960938 28.566406 12.972656 28.578125 C 12.984375 28.589844 12.996094 28.753906 13.015625 28.945312 C 13.132812 30.191406 13.652344 31.214844 14.578125 32.011719 C 15.390625 32.71875 16.015625 33.003906 17.113281 33.1875 C 17.5 33.242188 18.269531 33.253906 18.609375 33.199219 C 19.234375 33.09375 20.003906 32.746094 20.617188 32.289062 C 21.347656 31.738281 22.039062 30.796875 22.761719 29.351562 C 23.527344 27.839844 23.929688 26.625 24.460938 24.230469 C 24.734375 23.023438 25 21.664062 25.160156 20.644531 C 25.210938 20.285156 25.296875 19.824219 25.347656 19.621094 C 25.609375 18.570312 26.070312 17.617188 26.710938 16.796875 C 26.949219 16.496094 27.4375 16.03125 27.621094 15.933594 C 28.054688 15.703125 28.652344 15.707031 29.1875 15.949219 C 29.390625 16.042969 30.394531 16.785156 30.386719 16.835938 C 30.382812 16.855469 30.214844 16.941406 30.011719 17.023438 C 29.144531 17.363281 28.421875 17.828125 27.863281 18.402344 C 27.226562 19.042969 26.730469 19.835938 26.460938 20.632812 C 26.3125 21.078125 26.28125 21.320312 26.28125 21.914062 C 26.28125 22.625 26.367188 23.164062 26.578125 23.6875 C 26.863281 24.433594 27.476562 25.042969 28.175781 25.285156 C 28.585938 25.429688 28.875 25.382812 29.132812 25.136719 C 29.351562 24.921875 29.460938 24.636719 29.414062 24.363281 C 29.402344 24.292969 29.328125 24.125 29.246094 23.976562 C 28.960938 23.488281 28.8125 23.039062 28.789062 22.578125 C 28.761719 22.125 28.890625 21.460938 29.085938 21.0625 C 29.207031 20.8125 29.503906 20.484375 29.800781 20.257812 C 30.179688 19.972656 30.757812 19.730469 31.148438 19.6875 L 31.3125 19.664062 L 31.292969 19.9375 C 31.273438 20.21875 31.261719 20.3125 31.03125 21.570312 C 30.960938 21.984375 30.875 22.46875 30.855469 22.652344 C 30.664062 24.136719 30.753906 25.585938 31.089844 26.460938 C 31.097656 26.484375 31.015625 26.558594 30.90625 26.636719 C 29.828125 27.390625 28.863281 28.515625 28.285156 29.703125 C 27.609375 31.078125 27.191406 32.675781 27.191406 33.929688 L 27.191406 34.292969 L 26.96875 34.484375 C 26.652344 34.742188 26.191406 35.203125 25.921875 35.539062 C 24.835938 36.882812 24.300781 38.414062 24.355469 40.011719 C 24.382812 40.738281 24.476562 41.21875 24.738281 42 C 25.21875 43.414062 25.941406 44.5 26.863281 45.1875 C 27.132812 45.390625 28.027344 45.828125 28.511719 45.996094 C 29.539062 46.347656 30.605469 46.503906 31.636719 46.46875 C 32.113281 46.449219 32.171875 46.441406 35.59375 45.792969 C 37.511719 45.429688 39.9375 44.96875 40.988281 44.769531 C 42.050781 44.566406 43.042969 44.375 43.207031 44.335938 C 43.9375 44.1875 44.769531 44.363281 45.238281 44.769531 C 45.476562 44.984375 45.609375 45.3125 45.5625 45.585938 C 45.515625 45.800781 45.144531 46.121094 44.679688 46.335938 C 44.257812 46.527344 43.855469 46.636719 43.03125 46.800781 C 42.402344 46.917969 42.285156 46.957031 41.960938 47.125 C 41.320312 47.457031 40.796875 48.058594 40.636719 48.660156 C 40.554688 48.960938 40.542969 49.585938 40.617188 49.851562 C 40.835938 50.660156 41.433594 51.320312 42.253906 51.679688 C 42.707031 51.878906 43.339844 51.996094 43.757812 51.957031 C 43.863281 51.945312 43.960938 51.945312 43.96875 51.960938 C 43.976562 51.976562 43.921875 52.09375 43.839844 52.226562 C 43.761719 52.363281 43.652344 52.566406 43.605469 52.6875 C 43.488281 52.960938 43.488281 53.011719 43.539062 53.910156 C 43.578125 54.53125 43.621094 54.820312 43.746094 55.136719 C 43.785156 55.226562 43.820312 55.40625 43.839844 55.550781 C 43.894531 56 43.949219 56.242188 44.027344 56.433594 L 44.097656 56.613281 L 44.0625 57.070312 L 44.027344 57.539062 L 43.789062 57.910156 C 43.527344 58.320312 43.460938 58.484375 43.460938 58.664062 C 43.460938 58.875 43.515625 59.011719 43.691406 59.179688 C 43.96875 59.457031 44.300781 59.570312 44.597656 59.503906 C 44.738281 59.46875 44.757812 59.472656 44.855469 59.53125 C 44.910156 59.566406 45.011719 59.613281 45.085938 59.636719 C 45.308594 59.703125 45.503906 59.6875 45.734375 59.578125 C 45.984375 59.460938 46.144531 59.308594 46.238281 59.097656 C 46.347656 58.867188 46.324219 58.625 46.160156 58.203125 L 46.039062 57.878906 L 46.117188 57.339844 C 46.199219 56.808594 46.203125 56.796875 46.308594 56.6875 C 46.46875 56.511719 46.53125 56.402344 46.625 56.179688 C 46.671875 56.066406 46.796875 55.863281 46.902344 55.730469 C 47.121094 55.441406 47.335938 55.03125 47.421875 54.734375 C 47.457031 54.617188 47.558594 54.335938 47.648438 54.105469 L 47.8125 53.6875 L 47.796875 53.402344 C 47.785156 53.179688 47.753906 53.050781 47.664062 52.789062 L 47.558594 52.457031 L 47.605469 52.042969 C 47.664062 51.570312 47.664062 51.347656 47.625 51.003906 C 47.558594 50.484375 47.394531 50.082031 47.085938 49.707031 C 46.976562 49.578125 46.890625 49.457031 46.890625 49.429688 C 46.890625 49.402344 47.011719 49.320312 47.160156 49.238281 C 47.691406 48.941406 48.289062 48.4375 48.671875 47.945312 C 49.253906 47.207031 49.636719 45.800781 49.539062 44.789062 C 49.457031 43.921875 49.191406 43.136719 48.792969 42.53125 C 48.351562 41.863281 47.660156 41.265625 46.847656 40.863281 C 46.199219 40.539062 45.554688 40.386719 44.355469 40.253906 C 43.882812 40.203125 42.050781 40.203125 41.523438 40.253906 C 39.890625 40.410156 37.851562 40.8125 35.691406 41.414062 C 35.320312 41.515625 34.839844 41.636719 34.617188 41.6875 C 34.171875 41.789062 31.71875 42.105469 31.429688 42.105469 C 31.234375 42.105469 30.605469 42.003906 30.324219 41.9375 C 29.730469 41.789062 29.230469 41.558594 29.011719 41.335938 C 28.855469 41.175781 28.632812 40.753906 28.5625 40.488281 C 28.539062 40.402344 28.511719 40.226562 28.503906 40.105469 C 28.484375 39.894531 28.488281 39.835938 28.652344 39.191406 C 28.746094 38.8125 28.835938 38.511719 28.847656 38.511719 C 28.863281 38.511719 28.988281 38.613281 29.132812 38.746094 C 30.265625 39.792969 31.703125 40.265625 32.886719 40.363281 C 34.484375 40.414062 36.539062 39.6875 37.21875 38.449219 C 37.648438 37.617188 37.660156 36.785156 37.234375 36.390625 C 37.066406 36.238281 36.875 36.171875 36.585938 36.171875 C 36.246094 36.171875 36.011719 36.300781 35.835938 36.578125 C 35.632812 36.894531 35.570312 36.972656 35.390625 37.152344 C 35.0625 37.484375 34.53125 37.757812 33.988281 37.894531 C 33.648438 37.988281 33.136719 37.988281 32.863281 37.914062 C 32.59375 37.835938 32.160156 37.632812 31.941406 37.472656 C 31.636719 37.257812 31.160156 36.707031 31.148438 36.554688 C 31.144531 36.503906 31.960938 36.246094 33.050781 35.960938 C 34.152344 35.675781 34.875 35.414062 35.6875 35.015625 C 36.460938 34.632812 36.941406 34.300781 37.441406 33.8125 C 37.613281 33.648438 37.765625 33.511719 37.785156 33.511719 C 37.800781 33.511719 37.902344 33.554688 38.003906 33.597656 C 38.511719 33.824219 39.382812 34.082031 39.996094 34.1875 C 40.8125 34.320312 41.460938 34.335938 42.257812 34.214844 C 43.714844 34.003906 44.941406 33.609375 45.960938 33.023438 C 46.105469 32.9375 46.238281 32.875 46.261719 32.875 C 46.285156 32.875 46.5 32.9375 46.738281 33.015625 C 47.511719 33.273438 48.171875 33.390625 48.988281 33.417969 C 50.164062 33.457031 51.226562 33.238281 52.199219 32.753906 C 52.914062 32.402344 53.351562 32.082031 53.894531 31.515625 C 54.886719 30.503906 55.59375 29.339844 55.878906 28.28125 C 56.011719 27.78125 56.039062 27.46875 55.996094 26.9375 C 55.863281 25.21875 55.234375 23.589844 54.136719 22.148438 C 53.199219 20.914062 51.039062 18.421875 48.449219 15.605469 C 47.511719 14.585938 47.539062 14.613281 47.1875 14.1875 C 46.738281 13.636719 46.5625 13.234375 46.484375 12.554688 C 46.414062 12.011719 46.589844 11.613281 46.96875 11.46875 C 47.402344 11.296875 48.296875 11.835938 49.082031 12.726562 C 49.691406 13.429688 49.96875 13.664062 50.429688 13.890625 C 51.238281 14.292969 52.03125 14.269531 52.8125 13.828125 C 53.160156 13.636719 53.539062 13.246094 53.699219 12.929688 C 53.882812 12.558594 53.96875 12.179688 53.988281 11.6875 C 54.011719 10.976562 53.867188 10.421875 53.496094 9.769531 C 53.4375 9.679688 53.40625 9.59375 53.410156 9.589844 C 53.417969 9.582031 53.6875 9.558594 54.011719 9.539062 C 54.578125 9.511719 54.605469 9.503906 54.773438 9.417969 C 54.867188 9.375 55.023438 9.285156 55.113281 9.21875 C 55.199219 9.160156 55.402344 9.023438 55.554688 8.917969 C 55.863281 8.707031 56.121094 8.46875 56.394531 8.136719 C 56.539062 7.960938 56.625 7.882812 56.761719 7.8125 C 57 7.6875 57.191406 7.496094 57.296875 7.28125 L 57.386719 7.105469 L 57.691406 7 C 57.988281 6.894531 58.023438 6.886719 58.386719 6.886719 C 58.972656 6.882812 59.230469 6.8125 59.445312 6.605469 C 59.625 6.417969 59.675781 6.292969 59.675781 5.984375 C 59.675781 5.664062 59.625 5.527344 59.429688 5.300781 C 59.335938 5.199219 59.3125 5.148438 59.296875 5.003906 C 59.265625 4.703125 59.058594 4.375 58.882812 4.328125 C 58.875 4.324219 58.851562 4.324219 58.820312 4.324219 Z M 34.230469 19.597656 C 34.257812 19.597656 34.300781 19.632812 34.40625 19.707031 C 34.914062 20.097656 35.4375 20.632812 35.847656 21.175781 C 36.691406 22.300781 37.136719 23.59375 37.078125 24.785156 C 37.050781 25.378906 36.902344 25.808594 36.609375 26.144531 C 36.363281 26.421875 36.078125 26.515625 35.714844 26.433594 C 35.027344 26.28125 34.527344 25.753906 34.289062 24.921875 C 34.054688 24.121094 33.988281 22.460938 34.136719 21.015625 C 34.164062 20.765625 34.1875 20.363281 34.1875 20.113281 C 34.1875 19.863281 34.191406 19.636719 34.210938 19.617188 C 34.214844 19.609375 34.21875 19.605469 34.230469 19.597656 Z M 39.542969 27.621094 C 39.941406 27.621094 40.375 27.734375 40.835938 27.949219 C 41.296875 28.175781 42.386719 28.933594 43.253906 29.636719 C 43.996094 30.234375 44.636719 30.785156 44.621094 30.8125 C 44.605469 30.875 43.910156 31.054688 43.335938 31.136719 C 43.042969 31.179688 41.882812 31.214844 41.625 31.1875 C 41.285156 31.160156 40.6875 31.050781 40.410156 30.972656 C 39.648438 30.757812 38.773438 30.210938 38.390625 29.710938 C 38.152344 29.394531 37.96875 28.9375 37.96875 28.660156 C 37.972656 28.515625 38.089844 28.292969 38.253906 28.132812 C 38.59375 27.789062 39.039062 27.617188 39.542969 27.621094 Z M 34.1875 28.996094 C 34.214844 28.996094 34.257812 29 34.289062 29 C 34.710938 29.039062 35.050781 29.152344 35.210938 29.328125 C 35.375 29.5 35.433594 29.9375 35.339844 30.292969 C 35.042969 31.433594 33.597656 32.511719 31.113281 33.460938 C 30.6875 33.625 29.988281 33.835938 29.867188 33.835938 C 29.839844 33.835938 29.835938 33.808594 29.851562 33.730469 C 29.929688 33.320312 30.1875 32.632812 30.488281 32.058594 C 31.199219 30.6875 32.203125 29.664062 33.308594 29.203125 C 33.636719 29.0625 33.921875 28.996094 34.1875 28.996094 Z M 34.1875 28.996094 "/>
</g>
</svg>
