<svg xmlns="http://www.w3.org/2000/svg" xmlns:xlink="http://www.w3.org/1999/xlink" width="64px" height="64px" viewBox="0 0 64 64" version="1.1">
<defs>
<linearGradient id="linear0" gradientUnits="userSpaceOnUse" x1="0" y1="0" x2="0" y2="1" gradientTransform="matrix(55.351351,0,0,33.603605,4.324324,15.198199)">
<stop offset="0" style="stop-color:#00fff2;stop-opacity:1;"/>
<stop offset="0.5" style="stop-color:#dddddd;stop-opacity:1;"/>
<stop offset="1" style="stop-color:#0062ff;stop-opacity:1;"/>
</linearGradient>
</defs>
<g id="surface1">
<path style=" stroke:none;fill-rule:evenodd;fill:url(#linear0);" d="M 37.03125 19.589844 L 35.988281 22.855469 L 39.910156 24.78125 L 34.855469 25.46875 L 33.726562 29.039062 L 31.902344 25.054688 L 26.070312 24.367188 L 30.421875 22.3125 L 29.113281 19.152344 L 33.1875 21.242188 Z M 32.367188 44.847656 L 24.089844 39.6875 L 35.957031 36.941406 Z M 12.234375 31.011719 C 12.234375 28.835938 15.335938 27.058594 19.152344 27.058594 C 22.972656 27.058594 26.070312 28.835938 26.070312 31.011719 C 26.070312 33.191406 22.972656 34.960938 19.152344 34.960938 C 15.335938 34.960938 12.234375 33.191406 12.234375 31.011719 Z M 32 15.199219 C 30.164062 15.199219 28.328125 15.609375 26.96875 16.4375 L 6.363281 28.945312 C 3.644531 30.59375 3.644531 33.40625 6.363281 35.054688 L 26.96875 47.566406 C 29.6875 49.214844 34.3125 49.214844 37.03125 47.566406 L 57.636719 35.054688 C 60.355469 33.40625 60.355469 30.59375 57.636719 28.945312 L 37.03125 16.4375 C 35.675781 15.609375 33.835938 15.199219 32 15.199219 Z M 43.863281 36.941406 L 35.957031 32.257812 L 43.863281 27.058594 L 51.765625 31.753906 Z M 43.863281 36.941406 "/>
</g>
</svg>
