<svg xmlns="http://www.w3.org/2000/svg" xmlns:xlink="http://www.w3.org/1999/xlink" width="64px" height="64px" viewBox="0 0 64 64" version="1.1">
<defs>
<linearGradient id="linear0" gradientUnits="userSpaceOnUse" x1="0" y1="0" x2="0" y2="1" gradientTransform="matrix(55.351351,0,0,51.405405,4.324324,6.297298)">
<stop offset="0" style="stop-color:#ffae00;stop-opacity:1;"/>
<stop offset="0.5" style="stop-color:#dddddd;stop-opacity:1;"/>
<stop offset="1" style="stop-color:#6600ff;stop-opacity:1;"/>
</linearGradient>
</defs>
<g id="surface1">
<path style=" stroke:none;fill-rule:evenodd;fill:url(#linear0);" d="M 26.070312 22.117188 L 37.929688 22.117188 L 43.070312 32 L 37.929688 41.882812 L 26.070312 41.882812 L 20.929688 32 Z M 17.886719 40.429688 C 9.730469 38.757812 4.324219 35.597656 4.324219 32 C 4.324219 28.390625 9.753906 25.230469 17.875 23.515625 C 15.441406 15.199219 15.578125 8.605469 18.734375 6.785156 C 21.757812 5.042969 26.824219 8.085938 31.988281 14.179688 C 37.164062 8.089844 42.238281 5.042969 45.265625 6.785156 C 48.433594 8.609375 48.5625 15.226562 46.113281 23.570312 C 54.269531 25.242188 59.675781 28.402344 59.675781 32 C 59.675781 35.609375 54.246094 38.769531 46.125 40.484375 C 48.558594 48.800781 48.421875 55.394531 45.265625 57.214844 C 42.242188 58.957031 37.175781 55.914062 32.011719 49.824219 C 26.835938 55.910156 21.761719 58.960938 18.734375 57.214844 C 15.5625 55.390625 15.4375 48.773438 17.886719 40.429688 Z M 27.058594 32 C 27.058594 29.273438 29.273438 27.058594 32 27.058594 C 34.726562 27.058594 36.941406 29.273438 36.941406 32 C 36.941406 34.726562 34.726562 36.941406 32 36.941406 C 29.273438 36.941406 27.058594 34.726562 27.058594 32 Z M 27.058594 32 "/>
</g>
</svg>
