<svg xmlns="http://www.w3.org/2000/svg" xmlns:xlink="http://www.w3.org/1999/xlink" width="64px" height="64px" viewBox="0 0 64 64" version="1.1">
<defs>
<linearGradient id="linear0" gradientUnits="userSpaceOnUse" x1="0" y1="0" x2="0" y2="1" gradientTransform="matrix(55.351351,0,0,31.288287,4.324324,16.355856)">
<stop offset="0" style="stop-color:#00b7ff;stop-opacity:1;"/>
<stop offset="0.5" style="stop-color:#dddddd;stop-opacity:1;"/>
<stop offset="1" style="stop-color:#ee42d9;stop-opacity:1;"/>
</linearGradient>
</defs>
<g id="surface1">
<path style=" stroke:none;fill-rule:evenodd;fill:url(#linear0);" d="M 47.644531 27.8125 C 43.460938 38.46875 15.949219 40.105469 14.539062 35.8125 C 12.089844 27.570312 17.511719 19.09375 26.652344 16.886719 C 35.796875 14.679688 45.191406 19.570312 47.644531 27.8125 Z M 47.644531 30.796875 C 47.644531 30.796875 24.957031 47.214844 10.390625 41.960938 C 7.863281 39.96875 12.664062 36.644531 12.652344 35.886719 C 7.085938 38.105469 4.324219 40.984375 4.324219 44.445312 C 6.691406 52.164062 28.207031 43.679688 31.785156 42.058594 C 38.863281 38.660156 47.644531 30.796875 47.644531 30.796875 Z M 18.765625 47.644531 C 18.765625 47.644531 46.585938 41.214844 52.835938 27.488281 C 53.132812 24.402344 48.28125 25.5625 47.726562 25.066406 C 55.523438 21.496094 60.054688 25.171875 59.652344 27.488281 C 58.921875 31.679688 50.273438 38.539062 38.972656 43.011719 C 31.550781 45.847656 18.765625 47.644531 18.765625 47.644531 Z M 18.765625 47.644531 "/>
</g>
</svg>
