<svg xmlns="http://www.w3.org/2000/svg" xmlns:xlink="http://www.w3.org/1999/xlink" width="64px" height="64px" viewBox="0 0 64 64" version="1.1">
<defs>
<linearGradient id="linear0" gradientUnits="userSpaceOnUse" x1="0" y1="0" x2="0" y2="1" gradientTransform="matrix(55.351351,0,0,55.351351,4.324324,4.324324)">
<stop offset="0" style="stop-color:#ffae00;stop-opacity:1;"/>
<stop offset="0.5" style="stop-color:#dddddd;stop-opacity:1;"/>
<stop offset="1" style="stop-color:#bf1d1d;stop-opacity:1;"/>
</linearGradient>
</defs>
<g id="surface1">
<path style=" stroke:none;fill-rule:nonzero;fill:url(#linear0);" d="M 10.945312 56.820312 C 4.269531 42.410156 2.4375 26.261719 6.386719 16.6875 C 7.117188 14.933594 6.820312 15.066406 14.164062 13.039062 C 14.578125 12.917969 16.171875 11.664062 17.707031 10.257812 C 26.414062 2.265625 38.066406 2.355469 47.203125 10.484375 C 49.78125 12.769531 50.527344 13.1875 53.488281 13.941406 C 56.550781 14.71875 56.921875 14.9375 57.605469 16.308594 C 58.011719 17.132812 58.6875 19.4375 59.105469 21.429688 C 60.085938 26.175781 59.765625 36.257812 58.460938 41.714844 C 56.636719 49.375 52.355469 59.921875 51.210938 59.589844 C 50.902344 59.496094 49.949219 58.109375 49.09375 56.511719 C 47.617188 53.339844 45 50.511719 42.339844 49.539062 C 37.808594 47.886719 26.855469 48.488281 22.269531 49.476562 C 17.011719 50.609375 16.886719 52.867188 15.203125 56.445312 C 14.234375 58.503906 13.429688 59.675781 12.976562 59.675781 C 12.53125 59.675781 11.773438 58.617188 10.945312 56.820312 Z M 10.945312 56.820312 "/>
</g>
</svg>
