<svg xmlns="http://www.w3.org/2000/svg" xmlns:xlink="http://www.w3.org/1999/xlink" width="64px" height="64px" viewBox="0 0 64 64" version="1.1">
<defs>
<linearGradient id="linear0" gradientUnits="userSpaceOnUse" x1="0" y1="0" x2="0" y2="1" gradientTransform="matrix(35.585584,0,0,55.351351,14.207206,4.324324)">
<stop offset="0" style="stop-color:#05f7ff;stop-opacity:1;"/>
<stop offset="0.5" style="stop-color:#dddddd;stop-opacity:1;"/>
<stop offset="1" style="stop-color:#e6ff05;stop-opacity:1;"/>
</linearGradient>
</defs>
<g id="surface1">
<path style=" stroke:none;fill-rule:nonzero;fill:url(#linear0);" d="M 32 4.324219 C 22.175781 4.324219 14.207031 12.3125 14.207031 22.160156 C 14.207031 28 16.957031 33.09375 21.269531 36.347656 C 23.253906 37.851562 24.894531 39.785156 24.894531 42.457031 L 25.082031 45.835938 L 38.917969 45.835938 L 39.117188 42.457031 C 39.269531 39.789062 40.753906 37.851562 42.730469 36.347656 C 47.042969 33.09375 49.792969 28 49.792969 22.160156 C 49.792969 12.3125 41.824219 4.324219 32 4.324219 Z M 32 11.449219 C 37.890625 11.449219 42.675781 16.257812 42.675781 22.164062 C 42.675781 25.53125 41.136719 28.636719 38.449219 30.652344 C 34.4375 33.691406 32.914062 37.085938 32.355469 39.90625 L 31.644531 39.90625 C 31.089844 37.085938 29.566406 33.691406 25.550781 30.652344 C 22.867188 28.632812 21.324219 25.53125 21.324219 22.164062 C 21.324219 16.257812 26.109375 11.449219 32 11.449219 Z M 25.082031 49.296875 L 25.082031 52.757812 L 38.917969 52.757812 L 38.917969 49.296875 Z M 28.539062 56.214844 L 28.539062 59.675781 L 35.460938 59.675781 L 35.460938 56.214844 Z M 28.539062 56.214844 "/>
</g>
</svg>
