<svg xmlns="http://www.w3.org/2000/svg" xmlns:xlink="http://www.w3.org/1999/xlink" width="64px" height="64px" viewBox="0 0 64 64" version="1.1">
<defs>
<linearGradient id="linear0" gradientUnits="userSpaceOnUse" x1="0" y1="0" x2="0" y2="1" gradientTransform="matrix(55.351351,0,0,53.477476,4.324324,5.261261)">
<stop offset="0" style="stop-color:#ffae00;stop-opacity:1;"/>
<stop offset="0.5" style="stop-color:#dddddd;stop-opacity:1;"/>
<stop offset="1" style="stop-color:#6600ff;stop-opacity:1;"/>
</linearGradient>
</defs>
<g id="surface1">
<path style=" stroke:none;fill-rule:nonzero;fill:url(#linear0);" d="M 31.945312 5.265625 C 31.886719 5.265625 31.828125 5.269531 31.769531 5.273438 C 31.757812 5.28125 31.746094 5.28125 31.734375 5.285156 C 31.679688 5.292969 31.621094 5.300781 31.566406 5.320312 C 31.511719 5.328125 31.460938 5.347656 31.410156 5.363281 C 31.382812 5.375 31.351562 5.382812 31.324219 5.390625 C 31.308594 5.394531 31.292969 5.40625 31.273438 5.410156 C 31.234375 5.429688 31.1875 5.445312 31.148438 5.460938 C 31.132812 5.476562 31.113281 5.488281 31.09375 5.5 C 30.984375 5.5625 30.878906 5.636719 30.785156 5.726562 C 30.738281 5.761719 30.691406 5.808594 30.648438 5.851562 C 30.613281 5.890625 30.578125 5.9375 30.539062 5.976562 C 30.53125 5.988281 30.523438 6 30.511719 6.011719 C 30.488281 6.054688 30.460938 6.097656 30.433594 6.136719 C 30.417969 6.160156 30.410156 6.171875 30.402344 6.1875 C 30.386719 6.210938 30.375 6.234375 30.363281 6.257812 L 4.53125 56.039062 C 4.234375 56.617188 4.261719 57.3125 4.605469 57.863281 C 4.945312 58.417969 5.558594 58.753906 6.210938 58.738281 L 57.78125 58.738281 C 57.792969 58.738281 57.8125 58.738281 57.835938 58.738281 C 57.847656 58.738281 57.867188 58.738281 57.886719 58.738281 C 57.9375 58.734375 57.988281 58.730469 58.039062 58.71875 C 58.09375 58.714844 58.148438 58.707031 58.203125 58.699219 C 58.269531 58.679688 58.335938 58.664062 58.40625 58.644531 C 58.421875 58.636719 58.4375 58.636719 58.449219 58.632812 C 58.46875 58.621094 58.488281 58.617188 58.5 58.609375 C 58.550781 58.585938 58.597656 58.5625 58.648438 58.539062 C 58.699219 58.515625 58.742188 58.488281 58.792969 58.46875 C 58.808594 58.460938 58.824219 58.449219 58.835938 58.4375 C 58.882812 58.410156 58.921875 58.378906 58.96875 58.339844 C 58.984375 58.335938 58.996094 58.324219 59.011719 58.3125 C 59.050781 58.273438 59.089844 58.238281 59.132812 58.203125 C 59.136719 58.191406 59.152344 58.179688 59.164062 58.164062 C 59.175781 58.160156 59.1875 58.148438 59.191406 58.136719 C 59.230469 58.09375 59.265625 58.050781 59.296875 58.003906 C 59.328125 57.960938 59.363281 57.917969 59.390625 57.875 C 59.402344 57.863281 59.410156 57.847656 59.417969 57.835938 C 59.445312 57.785156 59.46875 57.738281 59.496094 57.6875 C 59.5 57.675781 59.511719 57.660156 59.511719 57.636719 C 59.539062 57.59375 59.554688 57.542969 59.570312 57.496094 C 59.582031 57.476562 59.585938 57.460938 59.585938 57.445312 C 59.609375 57.378906 59.625 57.308594 59.636719 57.238281 C 59.652344 57.164062 59.664062 57.097656 59.671875 57.027344 C 59.675781 56.972656 59.675781 56.917969 59.675781 56.863281 C 59.675781 56.851562 59.675781 56.835938 59.675781 56.8125 C 59.675781 56.761719 59.671875 56.707031 59.664062 56.652344 C 59.664062 56.636719 59.660156 56.617188 59.660156 56.597656 C 59.644531 56.550781 59.636719 56.496094 59.621094 56.445312 C 59.617188 56.429688 59.613281 56.414062 59.609375 56.394531 C 59.59375 56.347656 59.582031 56.292969 59.5625 56.242188 C 59.554688 56.226562 59.550781 56.210938 59.539062 56.199219 C 59.515625 56.144531 59.496094 56.09375 59.472656 56.050781 L 59.445312 56 L 33.671875 6.320312 L 33.652344 6.292969 C 33.617188 6.214844 33.578125 6.144531 33.527344 6.078125 C 33.496094 6.027344 33.460938 5.976562 33.417969 5.933594 C 33.414062 5.921875 33.40625 5.914062 33.402344 5.90625 C 33.363281 5.863281 33.320312 5.820312 33.273438 5.78125 C 33.269531 5.769531 33.261719 5.761719 33.246094 5.757812 C 33.207031 5.714844 33.164062 5.679688 33.113281 5.644531 C 33.109375 5.636719 33.097656 5.625 33.085938 5.621094 C 33.039062 5.585938 32.988281 5.550781 32.941406 5.515625 C 32.933594 5.511719 32.921875 5.511719 32.914062 5.511719 C 32.863281 5.476562 32.808594 5.449219 32.753906 5.429688 C 32.742188 5.417969 32.734375 5.414062 32.726562 5.410156 C 32.664062 5.386719 32.613281 5.367188 32.554688 5.351562 C 32.496094 5.335938 32.433594 5.3125 32.375 5.300781 C 32.363281 5.300781 32.355469 5.296875 32.347656 5.296875 C 32.335938 5.292969 32.324219 5.292969 32.3125 5.292969 C 32.253906 5.28125 32.191406 5.273438 32.136719 5.269531 C 32.085938 5.265625 32.039062 5.265625 31.988281 5.265625 C 31.972656 5.261719 31.960938 5.261719 31.945312 5.265625 Z M 30.160156 14.671875 L 30.160156 46.878906 L 9.914062 53.679688 Z M 33.839844 14.671875 L 54.089844 53.6875 L 33.839844 46.878906 Z M 32 51.988281 L 43.59375 55.042969 L 20.40625 55.042969 Z M 32 51.988281 "/>
</g>
</svg>
