<svg xmlns="http://www.w3.org/2000/svg" xmlns:xlink="http://www.w3.org/1999/xlink" width="64px" height="64px" viewBox="0 0 64 64" version="1.1">
<defs>
<linearGradient id="linear0" gradientUnits="userSpaceOnUse" x1="0" y1="0" x2="0" y2="1" gradientTransform="matrix(55.351351,0,0,55.351351,4.324324,4.324324)">
<stop offset="0" style="stop-color:#00a2ff;stop-opacity:1;"/>
<stop offset="0.5" style="stop-color:#dddddd;stop-opacity:1;"/>
<stop offset="1" style="stop-color:#00ffae;stop-opacity:1;"/>
</linearGradient>
</defs>
<g id="surface1">
<path style=" stroke:none;fill-rule:nonzero;fill:url(#linear0);" d="M 26.542969 4.324219 L 16.257812 8.554688 L 18.675781 14.355469 C 17.023438 15.605469 15.570312 17.066406 14.355469 18.679688 L 8.558594 16.261719 L 4.324219 26.539062 L 10.03125 28.960938 C 9.757812 30.949219 9.828125 32.988281 10.113281 35.015625 L 4.324219 37.441406 L 8.558594 47.738281 L 14.355469 45.3125 C 15.605469 46.972656 17.0625 48.417969 18.675781 49.636719 L 16.257812 55.429688 L 26.542969 59.671875 L 28.976562 53.960938 C 30.960938 54.238281 32.984375 54.160156 35.015625 53.878906 L 37.441406 59.675781 L 47.738281 55.433594 L 45.3125 49.644531 C 46.972656 48.394531 48.417969 46.9375 49.636719 45.324219 L 55.441406 47.742188 L 59.675781 37.445312 L 53.96875 35.027344 C 54.242188 33.039062 54.164062 31.003906 53.882812 28.96875 L 59.675781 26.550781 L 55.441406 16.265625 L 49.636719 18.6875 C 48.390625 17.03125 46.933594 15.582031 45.3125 14.363281 L 47.738281 8.5625 L 37.441406 4.328125 L 35.015625 10.039062 C 33.03125 9.765625 31.011719 9.835938 28.976562 10.125 Z M 32 18.164062 C 39.644531 18.164062 45.835938 24.355469 45.835938 31.996094 C 45.835938 39.636719 39.644531 45.835938 32 45.835938 C 24.355469 45.835938 18.160156 39.636719 18.160156 31.996094 C 18.160156 24.355469 24.355469 18.164062 32 18.164062 Z M 32 18.164062 "/>
</g>
</svg>
