<svg xmlns="http://www.w3.org/2000/svg" xmlns:xlink="http://www.w3.org/1999/xlink" width="64px" height="64px" viewBox="0 0 64 64" version="1.1">
<defs>
<linearGradient id="linear0" gradientUnits="userSpaceOnUse" x1="0" y1="0" x2="0" y2="1" gradientTransform="matrix(55.351351,0,0,6.918919,4.216216,47.567568)">
<stop offset="0" style="stop-color:#05f7ff;stop-opacity:1;"/>
<stop offset="0.5" style="stop-color:#dddddd;stop-opacity:1;"/>
<stop offset="1" style="stop-color:#e6ff05;stop-opacity:1;"/>
</linearGradient>
<linearGradient id="linear1" gradientUnits="userSpaceOnUse" x1="0" y1="0" x2="0" y2="1" gradientTransform="matrix(55.351351,0,0,31.045044,4.324324,9.166667)">
<stop offset="0" style="stop-color:#05f7ff;stop-opacity:1;"/>
<stop offset="0.5" style="stop-color:#dddddd;stop-opacity:1;"/>
<stop offset="1" style="stop-color:#e6ff05;stop-opacity:1;"/>
</linearGradient>
</defs>
<g id="surface1">
<path style=" stroke:none;fill-rule:evenodd;fill:url(#linear0);" d="M 4.214844 47.566406 L 59.566406 47.566406 L 59.566406 54.488281 L 4.214844 54.488281 Z M 4.214844 47.566406 "/>
<path style=" stroke:none;fill-rule:evenodd;fill:url(#linear1);" d="M 9.644531 40.210938 L 4.324219 40.210938 L 4.324219 9.164062 L 18.070312 9.164062 C 21.652344 9.164062 24.246094 10.054688 25.855469 11.828125 C 27.46875 13.605469 28.273438 15.863281 28.273438 18.617188 C 28.273438 20.539062 27.730469 22.335938 26.636719 24.027344 C 25.539062 25.710938 23.957031 26.863281 21.886719 27.488281 L 28.097656 40.210938 L 22.109375 40.210938 L 16.121094 28.0625 L 9.644531 28.0625 Z M 9.644531 14.226562 L 9.644531 23.003906 L 18.164062 23.003906 C 19.757812 23.003906 20.929688 22.589844 21.664062 21.761719 C 22.40625 20.9375 22.773438 19.886719 22.773438 18.617188 C 22.773438 17.375 22.417969 16.328125 21.710938 15.488281 C 21 14.644531 19.820312 14.226562 18.164062 14.226562 Z M 40.960938 40.210938 L 36.4375 40.210938 L 37.675781 32.097656 L 32.796875 32.097656 L 33.460938 27.707031 L 38.339844 27.707031 L 39.363281 20.917969 L 34.484375 20.917969 L 35.148438 16.53125 L 40.070312 16.53125 L 41.179688 9.164062 L 45.664062 9.164062 L 44.550781 16.53125 L 50.320312 16.53125 L 51.46875 9.164062 L 55.949219 9.164062 L 54.796875 16.53125 L 59.675781 16.53125 L 59.058594 20.917969 L 54.132812 20.917969 L 53.113281 27.707031 L 57.988281 27.707031 L 57.328125 32.097656 L 52.445312 32.097656 L 51.203125 40.210938 L 46.726562 40.210938 L 47.960938 32.097656 L 42.203125 32.097656 Z M 43.886719 20.917969 L 42.863281 27.707031 L 48.636719 27.707031 L 49.652344 20.917969 Z M 43.886719 20.917969 "/>
</g>
</svg>
