<svg xmlns="http://www.w3.org/2000/svg" xmlns:xlink="http://www.w3.org/1999/xlink" width="64px" height="64px" viewBox="0 0 64 64" version="1.1">
<defs>
<linearGradient id="linear0" gradientUnits="userSpaceOnUse" x1="0" y1="0" x2="0" y2="1" gradientTransform="matrix(55.351351,0,0,6.918919,4.216216,47.567568)">
<stop offset="0" style="stop-color:#00fff2;stop-opacity:1;"/>
<stop offset="0.5" style="stop-color:#dddddd;stop-opacity:1;"/>
<stop offset="1" style="stop-color:#0062ff;stop-opacity:1;"/>
</linearGradient>
<linearGradient id="linear1" gradientUnits="userSpaceOnUse" x1="0" y1="0" x2="0" y2="1" gradientTransform="matrix(41.225226,0,0,30.891892,11.387388,9.166667)">
<stop offset="0" style="stop-color:#00fff2;stop-opacity:1;"/>
<stop offset="0.5" style="stop-color:#dddddd;stop-opacity:1;"/>
<stop offset="1" style="stop-color:#0062ff;stop-opacity:1;"/>
</linearGradient>
</defs>
<g id="surface1">
<path style=" stroke:none;fill-rule:evenodd;fill:url(#linear0);" d="M 4.214844 47.566406 L 59.566406 47.566406 L 59.566406 54.488281 L 4.214844 54.488281 Z M 4.214844 47.566406 "/>
<path style=" stroke:none;fill-rule:evenodd;fill:url(#linear1);" d="M 16.6875 14.199219 L 16.6875 22.9375 L 25.164062 22.9375 C 26.746094 22.9375 27.910156 22.523438 28.644531 21.703125 C 29.378906 20.878906 29.746094 19.835938 29.746094 18.566406 C 29.746094 17.328125 29.394531 16.292969 28.6875 15.457031 C 27.984375 14.617188 26.808594 14.199219 25.164062 14.199219 Z M 16.6875 40.058594 L 11.386719 40.058594 L 11.386719 9.164062 L 25.070312 9.164062 C 28.632812 9.164062 31.210938 10.050781 32.8125 11.8125 C 34.417969 13.582031 35.21875 15.835938 35.21875 18.566406 C 35.21875 20.476562 34.675781 22.273438 33.589844 23.957031 C 32.5 25.632812 30.921875 26.78125 28.863281 27.394531 L 35.042969 40.058594 L 29.085938 40.058594 L 23.132812 27.96875 L 16.6875 27.96875 Z M 46.9375 25.164062 L 46.9375 30.742188 L 52.613281 30.742188 L 52.613281 34.457031 L 46.9375 34.457031 L 46.9375 40.058594 L 43.355469 40.058594 L 43.355469 34.457031 L 37.71875 34.457031 L 37.71875 30.742188 L 43.355469 30.742188 L 43.355469 25.164062 Z M 46.9375 9.164062 L 46.9375 14.742188 L 52.613281 14.742188 L 52.613281 18.457031 L 46.9375 18.457031 L 46.9375 24.058594 L 43.355469 24.058594 L 43.355469 18.457031 L 37.71875 18.457031 L 37.71875 14.742188 L 43.355469 14.742188 L 43.355469 9.164062 Z M 46.9375 9.164062 "/>
</g>
</svg>
