<svg xmlns="http://www.w3.org/2000/svg" xmlns:xlink="http://www.w3.org/1999/xlink" width="64px" height="64px" viewBox="0 0 64 64" version="1.1">
<defs>
<linearGradient id="linear0" gradientUnits="userSpaceOnUse" x1="0" y1="0" x2="0" y2="1" gradientTransform="matrix(45.283784,0,0,55.351351,9.355856,4.324324)">
<stop offset="0" style="stop-color:#ffae00;stop-opacity:1;"/>
<stop offset="0.5" style="stop-color:#dddddd;stop-opacity:1;"/>
<stop offset="1" style="stop-color:#6600ff;stop-opacity:1;"/>
</linearGradient>
</defs>
<g id="surface1">
<path style=" stroke:none;fill-rule:nonzero;fill:url(#linear0);" d="M 20.402344 4.339844 C 18.191406 4.402344 16.011719 4.636719 14.011719 5.214844 C 9.296875 6.792969 9.355469 9.226562 9.355469 12.90625 L 9.355469 52.625 C 9.355469 56.210938 9.363281 57.9375 12.015625 58.875 C 12.824219 59.148438 13.8125 59.363281 14.976562 59.523438 C 16.878906 59.785156 19.527344 59.691406 21.265625 59.339844 C 21.9375 59.207031 22.585938 59.015625 23.121094 58.800781 C 24.730469 58.257812 24.714844 57.273438 24.660156 55.988281 C 24.542969 53.347656 24.238281 50.21875 26.78125 48.136719 C 27.949219 47.1875 29.386719 47.136719 30.765625 47.78125 C 31.9375 48.328125 33.253906 49.621094 33.855469 50.835938 C 34.4375 51.988281 34.578125 52.765625 34.890625 54.917969 C 35.363281 58.171875 36.199219 58.8125 39.671875 59.417969 C 40.523438 59.566406 43.347656 59.652344 44.988281 59.671875 C 47.105469 59.699219 49.328125 59.617188 50.273438 59.417969 C 51.917969 59.089844 53.125 58.511719 53.6875 57.789062 C 54.191406 57.121094 54.597656 56.363281 54.636719 55.488281 C 54.707031 54.011719 53.960938 52.203125 52.636719 50 C 51.441406 48.011719 50.484375 47.585938 48.570312 45.421875 C 46.246094 42.789062 45.132812 41.082031 44.703125 39.582031 C 44.164062 37.699219 45.863281 35.761719 48.703125 33.226562 C 51.355469 30.863281 53.496094 28.847656 54.289062 26.558594 C 54.542969 25.820312 54.648438 24.792969 54.632812 23.625 C 54.59375 21.214844 54 18.199219 53.003906 15.875 C 51.191406 11.632812 47.738281 9.207031 39.914062 6.664062 C 37.957031 6.03125 36.503906 5.664062 34.59375 5.328125 C 32.375 4.9375 28.855469 4.636719 25.539062 4.472656 C 24.566406 4.410156 23.59375 4.363281 22.613281 4.339844 C 21.875 4.3125 21.136719 4.3125 20.402344 4.339844 Z M 29.355469 19.421875 C 31.660156 19.457031 33.675781 21.199219 34.335938 23.792969 C 34.570312 24.734375 34.578125 26.757812 34.335938 27.890625 C 33.71875 30.863281 31.59375 32.363281 28.609375 31.914062 C 27.578125 31.761719 26.878906 31.386719 26.175781 30.613281 C 25.070312 29.410156 24.460938 27.53125 24.449219 25.402344 C 24.445312 21.9375 26.132812 19.675781 28.890625 19.4375 C 29.042969 19.414062 29.203125 19.414062 29.355469 19.414062 Z M 29.355469 19.421875 "/>
</g>
</svg>
