<svg xmlns="http://www.w3.org/2000/svg" xmlns:xlink="http://www.w3.org/1999/xlink" width="64px" height="64px" viewBox="0 0 64 64" version="1.1">
<defs>
<linearGradient id="linear0" gradientUnits="userSpaceOnUse" x1="0" y1="0" x2="0" y2="1" gradientTransform="matrix(55.351351,0,0,55.333334,4.324324,4.333333)">
<stop offset="0" style="stop-color:#00a2ff;stop-opacity:1;"/>
<stop offset="0.5" style="stop-color:#dddddd;stop-opacity:1;"/>
<stop offset="1" style="stop-color:#00ffae;stop-opacity:1;"/>
</linearGradient>
</defs>
<g id="surface1">
<path style=" stroke:none;fill-rule:nonzero;fill:url(#linear0);" d="M 6.066406 4.335938 C 5.050781 4.527344 4.3125 5.421875 4.335938 6.460938 L 4.335938 8.585938 C 4.328125 9.355469 4.730469 10.066406 5.390625 10.460938 C 6.058594 10.839844 6.867188 10.839844 7.539062 10.460938 C 8.203125 10.066406 8.605469 9.351562 8.59375 8.585938 C 9.363281 8.59375 10.070312 8.191406 10.460938 7.53125 C 10.847656 6.863281 10.847656 6.050781 10.460938 5.386719 C 10.070312 4.71875 9.355469 4.324219 8.59375 4.335938 L 6.0625 4.335938 Z M 17.039062 4.335938 L 15.378906 5.199219 L 15.042969 7.058594 L 16.308594 8.457031 L 17.039062 8.585938 L 21.496094 8.585938 L 23.226562 7.726562 L 23.558594 5.863281 L 22.226562 4.460938 L 21.496094 4.335938 Z M 29.875 4.335938 L 28.144531 5.199219 L 27.8125 7.058594 L 29.144531 8.457031 L 29.875 8.585938 L 34.335938 8.585938 L 35.996094 7.726562 L 36.328125 5.863281 L 35.0625 4.460938 L 34.335938 4.335938 Z M 42.710938 4.335938 L 40.984375 5.199219 L 40.652344 7.058594 L 41.984375 8.457031 L 42.710938 8.585938 L 47.105469 8.585938 L 48.835938 7.726562 L 49.164062 5.863281 L 47.835938 4.460938 L 47.097656 4.335938 Z M 55.015625 4.335938 C 53.847656 4.4375 52.984375 5.488281 53.089844 6.660156 C 53.199219 7.828125 54.242188 8.699219 55.417969 8.585938 C 55.410156 9.355469 55.808594 10.066406 56.472656 10.460938 C 57.136719 10.839844 57.957031 10.839844 58.617188 10.460938 C 59.28125 10.066406 59.6875 9.351562 59.675781 8.585938 L 59.675781 6.460938 C 59.675781 5.289062 58.714844 4.335938 57.542969 4.335938 Z M 50.09375 13.042969 L 36.929688 14.769531 C 36.289062 14.769531 36.238281 15.214844 36.664062 15.636719 L 41.117188 20.09375 L 27.011719 34.125 L 8.59375 34.125 L 8.59375 29.671875 L 7.730469 28.011719 L 5.867188 27.675781 L 4.46875 28.941406 L 4.335938 29.671875 L 4.335938 34.125 L 4.734375 34.988281 C 4.472656 35.363281 4.335938 35.808594 4.335938 36.257812 L 4.335938 55.015625 C 4.320312 55.148438 4.320312 55.28125 4.335938 55.414062 L 4.335938 57.539062 C 4.347656 57.761719 4.386719 57.988281 4.46875 58.207031 C 4.5 58.324219 4.542969 58.433594 4.597656 58.539062 C 4.675781 58.679688 4.765625 58.8125 4.867188 58.9375 C 4.902344 58.96875 4.902344 59.039062 4.933594 59.070312 C 5.0625 59.171875 5.191406 59.265625 5.335938 59.335938 C 5.363281 59.355469 5.375 59.382812 5.402344 59.402344 L 5.460938 59.46875 C 5.511719 59.496094 5.554688 59.515625 5.597656 59.539062 L 5.664062 59.539062 C 5.6875 59.542969 5.714844 59.527344 5.734375 59.539062 C 5.929688 59.609375 6.125 59.652344 6.328125 59.664062 L 27.746094 59.664062 C 28.164062 59.664062 28.503906 59.566406 28.8125 59.402344 L 28.949219 59.539062 L 29.679688 59.664062 L 34.136719 59.664062 L 35.863281 58.800781 L 36.199219 56.941406 L 34.863281 55.542969 L 34.136719 55.414062 L 29.875 55.414062 L 29.875 36.988281 L 43.910156 22.886719 L 48.363281 27.339844 C 48.792969 27.769531 49.230469 27.503906 49.230469 27.078125 L 50.960938 13.910156 C 50.960938 13.269531 50.515625 12.828125 50.09375 13.042969 Z M 5.867188 14.835938 L 4.46875 16.171875 L 4.335938 16.902344 L 4.335938 21.292969 L 5.199219 23.023438 L 7.0625 23.355469 L 8.460938 22.027344 L 8.59375 21.289062 L 8.59375 16.902344 L 7.730469 15.171875 Z M 56.945312 15.039062 L 55.550781 16.308594 L 55.417969 17.039062 L 55.417969 21.488281 L 56.285156 23.21875 L 58.144531 23.554688 L 59.539062 22.226562 L 59.675781 21.488281 L 59.675781 17.039062 L 58.8125 15.375 Z M 56.945312 27.8125 L 55.550781 29.136719 L 55.417969 29.875 L 55.417969 34.328125 L 56.285156 35.988281 L 58.144531 36.324219 L 59.539062 35.058594 L 59.675781 34.328125 L 59.675781 29.875 L 58.8125 28.144531 Z M 56.945312 40.644531 L 55.550781 41.976562 L 55.417969 42.707031 L 55.417969 47.097656 L 56.285156 48.828125 L 58.144531 49.164062 L 59.539062 47.828125 L 59.675781 47.097656 L 59.675781 42.707031 L 58.8125 40.976562 Z M 57.347656 53.214844 C 57.253906 53.234375 57.164062 53.261719 57.082031 53.285156 C 56.089844 53.511719 55.394531 54.394531 55.417969 55.414062 C 54.648438 55.40625 53.9375 55.808594 53.542969 56.46875 C 53.164062 57.136719 53.164062 57.949219 53.542969 58.613281 C 53.941406 59.28125 54.652344 59.675781 55.417969 59.664062 L 57.542969 59.664062 C 58.714844 59.664062 59.675781 58.710938 59.675781 57.539062 L 59.675781 55.414062 C 59.699219 54.800781 59.457031 54.207031 59.011719 53.789062 C 58.5625 53.367188 57.957031 53.160156 57.347656 53.214844 Z M 42.515625 55.414062 L 40.785156 56.273438 L 40.449219 58.136719 L 41.785156 59.539062 L 42.511719 59.664062 L 46.96875 59.664062 L 48.636719 58.800781 L 48.960938 56.941406 L 47.703125 55.542969 L 46.96875 55.414062 Z M 42.515625 55.414062 "/>
</g>
</svg>
