<svg xmlns="http://www.w3.org/2000/svg" xmlns:xlink="http://www.w3.org/1999/xlink" width="64px" height="64px" viewBox="0 0 64 64" version="1.1">
<defs>
<linearGradient id="linear0" gradientUnits="userSpaceOnUse" x1="0" y1="0" x2="0" y2="1" gradientTransform="matrix(23.063064,0,0,20.180179,6.054054,36.036037)">
<stop offset="0" style="stop-color:#ff8963;stop-opacity:1;"/>
<stop offset="0.5" style="stop-color:#dddddd;stop-opacity:1;"/>
<stop offset="1" style="stop-color:#0F6FFF;stop-opacity:1;"/>
</linearGradient>
<linearGradient id="linear1" gradientUnits="userSpaceOnUse" x1="0" y1="0" x2="0" y2="1" gradientTransform="matrix(20.180179,0,0,25.945946,21.909909,8.648649)">
<stop offset="0" style="stop-color:#ff8963;stop-opacity:1;"/>
<stop offset="0.5" style="stop-color:#dddddd;stop-opacity:1;"/>
<stop offset="1" style="stop-color:#0F6FFF;stop-opacity:1;"/>
</linearGradient>
<linearGradient id="linear2" gradientUnits="userSpaceOnUse" x1="0" y1="0" x2="0" y2="1" gradientTransform="matrix(23.063064,0,0,20.180179,34.882882,36.036037)">
<stop offset="0" style="stop-color:#ff8963;stop-opacity:1;"/>
<stop offset="0.5" style="stop-color:#dddddd;stop-opacity:1;"/>
<stop offset="1" style="stop-color:#0F6FFF;stop-opacity:1;"/>
</linearGradient>
</defs>
<g id="surface1">
<path style=" stroke:none;fill-rule:nonzero;fill:url(#linear0);" d="M 16.296875 56.210938 C 16.921875 56.234375 17.625 56.152344 18.335938 56.003906 C 20.414062 55.550781 22.1875 54.605469 23.542969 52.921875 C 24.367188 51.902344 25.066406 50.789062 25.664062 49.621094 C 26.367188 48.246094 26.960938 46.8125 27.472656 45.363281 C 28.097656 43.609375 28.632812 41.8125 29.039062 40.003906 C 29.269531 38.988281 29.011719 38.355469 27.890625 38.003906 C 26.460938 37.558594 25.027344 37.164062 23.5625 36.835938 C 21.136719 36.308594 18.691406 35.960938 16.203125 36.050781 C 15.496094 36.078125 14.792969 36.152344 14.097656 36.273438 C 12.082031 36.625 10.367188 37.558594 8.972656 39.027344 C 6.585938 41.53125 5.636719 44.515625 6.226562 47.921875 C 7.070312 52.789062 11.386719 56.253906 16.296875 56.210938 Z M 16.296875 56.210938 "/>
<path style=" stroke:none;fill-rule:nonzero;fill:url(#linear1);" d="M 21.914062 19.289062 C 21.886719 20.03125 22.015625 20.839844 22.234375 21.652344 C 22.652344 23.191406 23.339844 24.609375 24.152344 25.945312 C 26.011719 28.984375 28.339844 31.582031 30.878906 33.996094 C 31.085938 34.191406 31.335938 34.363281 31.597656 34.488281 C 31.863281 34.625 32.125 34.625 32.402344 34.511719 C 32.664062 34.390625 32.902344 34.21875 33.105469 34.003906 C 33.984375 33.09375 34.851562 32.1875 35.6875 31.242188 C 36.855469 29.910156 37.972656 28.539062 38.984375 27.0625 C 39.902344 25.726562 40.726562 24.320312 41.328125 22.796875 C 41.933594 21.285156 42.226562 19.726562 42.027344 18.082031 C 41.699219 15.375 40.589844 13.078125 38.613281 11.28125 C 36.28125 9.152344 33.554688 8.300781 30.488281 8.773438 C 25.511719 9.550781 21.894531 14.136719 21.914062 19.289062 Z M 21.914062 19.289062 "/>
<path style=" stroke:none;fill-rule:nonzero;fill:url(#linear2);" d="M 47.703125 56.210938 C 47.078125 56.234375 46.375 56.152344 45.664062 56.003906 C 43.585938 55.550781 41.8125 54.605469 40.457031 52.921875 C 39.632812 51.902344 38.933594 50.789062 38.335938 49.621094 C 37.632812 48.246094 37.039062 46.8125 36.527344 45.363281 C 35.902344 43.609375 35.367188 41.8125 34.960938 40.003906 C 34.730469 38.988281 34.988281 38.355469 36.109375 38.003906 C 37.539062 37.558594 38.972656 37.164062 40.4375 36.835938 C 42.863281 36.308594 45.308594 35.960938 47.796875 36.050781 C 48.503906 36.078125 49.207031 36.152344 49.902344 36.273438 C 51.917969 36.625 53.632812 37.558594 55.027344 39.027344 C 57.414062 41.53125 58.363281 44.515625 57.773438 47.921875 C 56.929688 52.789062 52.613281 56.253906 47.703125 56.210938 Z M 47.703125 56.210938 "/>
</g>
</svg>
