<svg xmlns="http://www.w3.org/2000/svg" xmlns:xlink="http://www.w3.org/1999/xlink" width="64px" height="64px" viewBox="0 0 64 64" version="1.1">
<defs>
<linearGradient id="linear0" gradientUnits="userSpaceOnUse" x1="0" y1="0" x2="0" y2="1" gradientTransform="matrix(55.351351,0,0,53.621622,4.324324,5.189189)">
<stop offset="0" style="stop-color:#00b7ff;stop-opacity:1;"/>
<stop offset="0.5" style="stop-color:#dddddd;stop-opacity:1;"/>
<stop offset="1" style="stop-color:#ee42d9;stop-opacity:1;"/>
</linearGradient>
</defs>
<g id="surface1">
<path style=" stroke:none;fill-rule:nonzero;fill:url(#linear0);" d="M 31.136719 5.1875 C 29.707031 5.1875 28.539062 6.355469 28.539062 7.785156 L 28.539062 8.648438 L 24.214844 8.648438 C 21.835938 8.648438 19.890625 10.589844 19.890625 12.972656 L 19.890625 13.835938 C 19.890625 16.226562 21.835938 18.164062 24.214844 18.164062 C 24.691406 18.164062 25.082031 18.554688 25.082031 19.027344 L 25.082031 37.1875 C 25.082031 38.617188 26.246094 39.785156 27.675781 39.785156 L 28.539062 39.785156 L 28.539062 46.703125 L 12.109375 46.703125 C 10.679688 46.703125 9.511719 47.867188 9.511719 49.296875 L 9.511719 53.621094 L 6.917969 53.621094 C 5.488281 53.621094 4.324219 54.789062 4.324219 56.214844 C 4.324219 57.644531 5.488281 58.8125 6.917969 58.8125 L 57.082031 58.8125 C 58.511719 58.8125 59.675781 57.644531 59.675781 56.214844 C 59.675781 54.789062 58.511719 53.621094 57.082031 53.621094 L 54.488281 53.621094 L 54.488281 49.296875 C 54.488281 47.867188 53.320312 46.703125 51.890625 46.703125 L 49.296875 46.703125 L 49.296875 45.835938 C 49.296875 44.410156 48.132812 43.242188 46.703125 43.242188 L 44.972656 43.242188 C 43.542969 43.242188 42.378906 44.410156 42.378906 45.835938 L 42.378906 46.703125 L 35.460938 46.703125 L 35.460938 39.785156 L 36.324219 39.785156 C 37.753906 39.785156 38.917969 38.617188 38.917969 37.1875 L 38.917969 11.242188 C 38.917969 9.8125 37.753906 8.648438 36.324219 8.648438 L 35.460938 8.648438 L 35.460938 7.785156 C 35.460938 6.355469 34.292969 5.1875 32.863281 5.1875 Z M 31.136719 6.917969 L 32.863281 6.917969 C 33.339844 6.917969 33.730469 7.3125 33.730469 7.785156 L 33.730469 8.648438 L 30.269531 8.648438 L 30.269531 7.785156 C 30.269531 7.3125 30.664062 6.917969 31.136719 6.917969 Z M 24.214844 10.378906 L 36.324219 10.378906 C 36.800781 10.378906 37.1875 10.769531 37.1875 11.242188 L 37.1875 37.1875 C 37.1875 37.664062 36.800781 38.054688 36.324219 38.054688 L 27.675781 38.054688 C 27.203125 38.054688 26.8125 37.664062 26.8125 37.1875 L 26.8125 19.027344 C 26.8125 17.597656 25.644531 16.433594 24.214844 16.433594 C 22.789062 16.433594 21.621094 15.265625 21.621094 13.835938 L 21.621094 12.972656 C 21.621094 11.542969 22.789062 10.378906 24.214844 10.378906 Z M 32.863281 12.109375 C 32.390625 12.109375 32 12.5 32 12.972656 C 32 13.449219 32.390625 13.835938 32.863281 13.835938 L 34.59375 13.835938 C 35.070312 13.835938 35.460938 13.449219 35.460938 12.972656 C 35.460938 12.5 35.070312 12.109375 34.59375 12.109375 Z M 32.863281 16.433594 C 32.390625 16.433594 32 16.824219 32 17.296875 C 32 17.773438 32.390625 18.164062 32.863281 18.164062 L 34.59375 18.164062 C 35.070312 18.164062 35.460938 17.773438 35.460938 17.296875 C 35.460938 16.824219 35.070312 16.433594 34.59375 16.433594 Z M 32.863281 20.757812 C 32.390625 20.757812 32 21.148438 32 21.621094 C 32 22.097656 32.390625 22.488281 32.863281 22.488281 L 34.59375 22.488281 C 35.070312 22.488281 35.460938 22.097656 35.460938 21.621094 C 35.460938 21.148438 35.070312 20.757812 34.59375 20.757812 Z M 32.863281 25.082031 C 32.390625 25.082031 32 25.472656 32 25.945312 C 32 26.421875 32.390625 26.8125 32.863281 26.8125 L 34.59375 26.8125 C 35.070312 26.8125 35.460938 26.421875 35.460938 25.945312 C 35.460938 25.472656 35.070312 25.082031 34.59375 25.082031 Z M 32.863281 29.40625 C 32.390625 29.40625 32 29.796875 32 30.269531 C 32 30.746094 32.390625 31.136719 32.863281 31.136719 L 34.59375 31.136719 C 35.070312 31.136719 35.460938 30.746094 35.460938 30.269531 C 35.460938 29.796875 35.070312 29.40625 34.59375 29.40625 Z M 32.863281 33.730469 C 32.390625 33.730469 32 34.121094 32 34.59375 C 32 35.070312 32.390625 35.460938 32.863281 35.460938 L 34.59375 35.460938 C 35.070312 35.460938 35.460938 35.070312 35.460938 34.59375 C 35.460938 34.121094 35.070312 33.730469 34.59375 33.730469 Z M 30.269531 39.785156 L 33.730469 39.785156 L 33.730469 46.703125 L 30.269531 46.703125 Z M 44.972656 44.972656 L 46.703125 44.972656 C 47.179688 44.972656 47.566406 45.363281 47.566406 45.835938 L 47.566406 46.703125 L 44.109375 46.703125 L 44.109375 45.835938 C 44.109375 45.363281 44.5 44.972656 44.972656 44.972656 Z M 12.109375 48.433594 L 51.890625 48.433594 C 52.367188 48.433594 52.757812 48.824219 52.757812 49.296875 L 52.757812 53.621094 L 11.242188 53.621094 L 11.242188 49.296875 C 11.242188 48.824219 11.636719 48.433594 12.109375 48.433594 Z M 6.917969 55.351562 L 57.082031 55.351562 C 57.558594 55.351562 57.945312 55.742188 57.945312 56.214844 C 57.945312 56.691406 57.558594 57.082031 57.082031 57.082031 L 6.917969 57.082031 C 6.445312 57.082031 6.054688 56.691406 6.054688 56.214844 C 6.054688 55.742188 6.445312 55.351562 6.917969 55.351562 Z M 6.917969 55.351562 "/>
</g>
</svg>
