<svg xmlns="http://www.w3.org/2000/svg" xmlns:xlink="http://www.w3.org/1999/xlink" width="64px" height="64px" viewBox="0 0 64 64" version="1.1">
<defs>
<linearGradient id="linear0" gradientUnits="userSpaceOnUse" x1="0" y1="0" x2="0" y2="1" gradientTransform="matrix(55.351351,0,0,52.657659,4.324324,5.671171)">
<stop offset="0" style="stop-color:#ffae00;stop-opacity:1;"/>
<stop offset="0.5" style="stop-color:#dddddd;stop-opacity:1;"/>
<stop offset="1" style="stop-color:#bf1d1d;stop-opacity:1;"/>
</linearGradient>
</defs>
<g id="surface1">
<path style=" stroke:none;fill-rule:nonzero;fill:url(#linear0);" d="M 15.71875 5.671875 C 15.71875 5.671875 12.984375 5.671875 9.933594 7.117188 L 9.933594 7.109375 C 7.597656 8.21875 5.632812 9.835938 4.6875 11.164062 C 4.40625 11.523438 4.347656 12.011719 4.53125 12.429688 C 4.199219 12.933594 4.269531 13.59375 4.703125 14.011719 C 5.125 14.433594 5.792969 14.488281 6.285156 14.152344 C 6.78125 13.8125 6.960938 13.171875 6.726562 12.621094 C 7.179688 11.988281 9.109375 10.285156 11.011719 9.382812 C 13.542969 8.179688 15.71875 8.179688 15.71875 8.179688 C 16.171875 8.1875 16.589844 7.949219 16.820312 7.554688 C 17.050781 7.164062 17.050781 6.6875 16.820312 6.292969 C 16.589844 5.902344 16.171875 5.664062 15.71875 5.671875 Z M 40.679688 6.867188 C 37.246094 6.851562 33.820312 7.054688 30.417969 7.484375 C 25.265625 8.148438 20.613281 9.171875 16.1875 10.617188 C 8.675781 13.0625 6.1875 15.9375 5.253906 17.011719 L 5.164062 17.117188 C 3.3125 19.242188 5.664062 26.8125 5.6875 26.882812 C 6.246094 28.597656 7.664062 29.460938 8.921875 29.460938 C 9.179688 29.460938 9.421875 29.429688 9.652344 29.363281 C 10.125 29.21875 11.976562 28.484375 14.746094 27.382812 C 16.113281 26.835938 17.320312 26.355469 17.707031 26.214844 C 18.78125 25.824219 19.585938 24.699219 19.867188 23.207031 C 20.003906 22.511719 20.765625 19.328125 21.257812 17.308594 C 22.539062 16.789062 26.085938 15.527344 31.394531 14.835938 C 36.707031 14.152344 40.472656 14.421875 41.839844 14.5625 C 43.242188 16.917969 45.265625 20.328125 45.363281 20.46875 C 46.039062 21.503906 46.933594 22.113281 47.875 22.1875 C 48.308594 22.21875 49.691406 22.394531 51.226562 22.585938 C 54.050781 22.941406 55.9375 23.171875 56.472656 23.1875 C 57.847656 23.210938 59.539062 21.929688 59.660156 19.785156 C 59.664062 19.707031 59.988281 11.949219 57.648438 10.363281 C 57.648438 10.363281 57.414062 10.207031 57.285156 10.121094 C 55.828125 9.171875 52.113281 7.121094 43.382812 6.910156 C 42.476562 6.882812 41.582031 6.867188 40.679688 6.867188 Z M 24.539062 20.675781 C 23.839844 20.675781 23.28125 21.242188 23.28125 21.933594 L 23.28125 25.152344 C 22.011719 26.367188 17.867188 30.40625 12.914062 36.175781 C 8.757812 41.011719 8.207031 44.394531 8.214844 47.066406 C 8.226562 49.417969 9.4375 56.957031 9.488281 57.269531 C 9.585938 57.878906 10.109375 58.335938 10.730469 58.328125 L 17.003906 58.328125 C 17.691406 58.328125 18.261719 57.765625 18.261719 57.070312 L 18.261719 55.820312 L 48.378906 55.820312 L 48.378906 57.070312 C 48.378906 57.765625 48.945312 58.328125 49.636719 58.328125 L 55.910156 58.328125 C 56.53125 58.328125 57.054688 57.882812 57.148438 57.269531 C 57.203125 56.957031 58.414062 49.402344 58.421875 47.039062 C 58.429688 44.378906 57.878906 41.003906 53.726562 36.175781 C 48.765625 30.40625 44.632812 26.367188 43.363281 25.152344 L 43.363281 21.933594 C 43.363281 21.242188 42.796875 20.675781 42.105469 20.675781 L 38.339844 20.675781 C 37.648438 20.675781 37.085938 21.242188 37.085938 21.933594 L 37.085938 24.441406 L 29.554688 24.441406 L 29.554688 21.933594 C 29.554688 21.242188 28.988281 20.675781 28.296875 20.675781 Z M 48.378906 24.496094 C 47.839844 24.488281 47.363281 24.824219 47.1875 25.328125 C 47.003906 25.835938 47.164062 26.394531 47.578125 26.730469 C 48.675781 27.636719 50.234375 28.09375 52.066406 28.207031 C 54.273438 28.335938 55.300781 28.085938 56.421875 27.660156 C 57.03125 27.382812 57.320312 26.679688 57.078125 26.058594 C 56.835938 25.433594 56.148438 25.105469 55.511719 25.3125 C 54.476562 25.714844 54.257812 25.824219 52.226562 25.699219 C 50.765625 25.613281 49.605469 25.148438 49.179688 24.792969 C 48.960938 24.605469 48.671875 24.496094 48.378906 24.496094 Z M 23.28125 31.972656 L 28.296875 31.972656 L 28.296875 34.484375 L 23.28125 34.484375 Z M 30.8125 31.972656 L 35.828125 31.972656 L 35.828125 34.484375 L 30.8125 34.484375 Z M 38.339844 31.972656 L 43.363281 31.972656 L 43.363281 34.484375 L 38.339844 34.484375 Z M 23.28125 36.988281 L 28.296875 36.988281 L 28.296875 39.503906 L 23.28125 39.503906 Z M 30.8125 36.988281 L 35.828125 36.988281 L 35.828125 39.503906 L 30.8125 39.503906 Z M 38.339844 36.988281 L 43.363281 36.988281 L 43.363281 39.503906 L 38.339844 39.503906 Z M 23.28125 42.011719 L 28.296875 42.011719 L 28.296875 44.523438 L 23.28125 44.523438 Z M 30.8125 42.011719 L 35.828125 42.011719 L 35.828125 44.523438 L 30.8125 44.523438 Z M 38.339844 42.011719 L 43.363281 42.011719 L 43.363281 44.523438 L 38.339844 44.523438 Z M 38.339844 42.011719 "/>
</g>
</svg>
