<svg xmlns="http://www.w3.org/2000/svg" xmlns:xlink="http://www.w3.org/1999/xlink" width="64px" height="64px" viewBox="0 0 64 64" version="1.1">
<defs>
<linearGradient id="linear0" gradientUnits="userSpaceOnUse" x1="0" y1="0" x2="0" y2="1" gradientTransform="matrix(41.513514,0,0,51.891892,11.243243,6.054054)">
<stop offset="0" style="stop-color:#05f7ff;stop-opacity:1;"/>
<stop offset="0.5" style="stop-color:#dddddd;stop-opacity:1;"/>
<stop offset="1" style="stop-color:#e6ff05;stop-opacity:1;"/>
</linearGradient>
</defs>
<g id="surface1">
<path style=" stroke:none;fill-rule:nonzero;fill:url(#linear0);" d="M 18.164062 57.945312 C 11.242188 57.945312 11.242188 51.027344 11.242188 51.027344 L 11.242188 12.972656 C 11.242188 6.054688 17.792969 6.066406 18.164062 6.054688 L 45.835938 6.054688 C 45.835938 6.054688 52.757812 6.066406 52.757812 12.972656 L 52.757812 51.027344 C 52.757812 57.945312 45.835938 57.945312 45.835938 57.945312 Z M 42.378906 55.351562 C 44.765625 55.351562 46.703125 53.414062 46.703125 51.027344 C 46.703125 48.636719 44.765625 46.703125 42.378906 46.703125 C 39.988281 46.703125 38.054688 48.636719 38.054688 51.027344 C 38.054688 53.414062 39.988281 55.351562 42.378906 55.351562 Z M 32 40.648438 C 39.644531 40.648438 45.835938 34.457031 45.835938 26.8125 C 45.835938 19.164062 39.644531 12.972656 32 12.972656 C 24.355469 12.972656 18.164062 19.164062 18.164062 26.8125 C 18.164062 34.457031 24.355469 40.648438 32 40.648438 Z M 32 33.730469 C 28.179688 33.730469 25.082031 30.632812 25.082031 26.8125 C 25.082031 22.988281 28.179688 19.890625 32 19.890625 C 35.820312 19.890625 38.917969 22.988281 38.917969 26.8125 C 38.917969 30.632812 35.820312 33.730469 32 33.730469 Z M 32 33.730469 "/>
</g>
</svg>
