<svg xmlns="http://www.w3.org/2000/svg" xmlns:xlink="http://www.w3.org/1999/xlink" width="64px" height="64px" viewBox="0 0 64 64" version="1.1">
<defs>
<linearGradient id="linear0" gradientUnits="userSpaceOnUse" x1="0" y1="0" x2="0" y2="1" gradientTransform="matrix(55.351351,0,0,6.918919,4.216216,47.567568)">
<stop offset="0" style="stop-color:#00fff2;stop-opacity:1;"/>
<stop offset="0.5" style="stop-color:#dddddd;stop-opacity:1;"/>
<stop offset="1" style="stop-color:#0062ff;stop-opacity:1;"/>
</linearGradient>
<linearGradient id="linear1" gradientUnits="userSpaceOnUse" x1="0" y1="0" x2="0" y2="1" gradientTransform="matrix(54.639639,0,0,30.891892,4.680181,9.166667)">
<stop offset="0" style="stop-color:#00fff2;stop-opacity:1;"/>
<stop offset="0.5" style="stop-color:#dddddd;stop-opacity:1;"/>
<stop offset="1" style="stop-color:#0062ff;stop-opacity:1;"/>
</linearGradient>
</defs>
<g id="surface1">
<path style=" stroke:none;fill-rule:evenodd;fill:url(#linear0);" d="M 4.214844 47.566406 L 59.566406 47.566406 L 59.566406 54.488281 L 4.214844 54.488281 Z M 4.214844 47.566406 "/>
<path style=" stroke:none;fill-rule:evenodd;fill:url(#linear1);" d="M 9.976562 40.058594 L 4.679688 40.058594 L 4.679688 9.164062 L 18.363281 9.164062 C 21.921875 9.164062 24.503906 10.050781 26.109375 11.8125 C 27.710938 13.582031 28.511719 15.835938 28.511719 18.566406 C 28.511719 20.476562 27.96875 22.273438 26.878906 23.957031 C 25.792969 25.632812 24.214844 26.78125 22.160156 27.394531 L 28.335938 40.058594 L 22.378906 40.058594 L 16.421875 27.96875 L 9.976562 27.96875 Z M 9.976562 14.199219 L 9.976562 22.9375 L 18.457031 22.9375 C 20.039062 22.9375 21.203125 22.523438 21.9375 21.703125 C 22.671875 20.878906 23.039062 19.835938 23.039062 18.566406 C 23.039062 17.328125 22.6875 16.292969 21.984375 15.457031 C 21.273438 14.617188 20.097656 14.199219 18.457031 14.199219 Z M 34.914062 40.058594 L 34.914062 9.164062 L 44.445312 9.164062 C 46.539062 9.164062 48.433594 9.460938 50.136719 10.050781 C 51.847656 10.636719 53.257812 11.417969 54.375 12.386719 C 55.496094 13.363281 56.429688 14.511719 57.179688 15.855469 C 57.929688 17.191406 58.472656 18.589844 58.8125 20.050781 C 59.148438 21.503906 59.320312 23.027344 59.320312 24.613281 C 59.320312 26.085938 59.164062 27.527344 58.855469 28.9375 C 58.542969 30.351562 58.015625 31.742188 57.265625 33.113281 C 56.511719 34.476562 55.582031 35.671875 54.460938 36.6875 C 53.347656 37.699219 51.914062 38.511719 50.164062 39.136719 C 48.410156 39.753906 46.445312 40.058594 44.265625 40.058594 Z M 40.207031 35.070312 L 45.015625 35.070312 C 46.578125 35.070312 47.957031 34.765625 49.144531 34.148438 C 50.335938 33.53125 51.265625 32.699219 51.929688 31.652344 C 52.589844 30.609375 53.070312 29.5 53.382812 28.324219 C 53.691406 27.144531 53.847656 25.910156 53.847656 24.613281 C 53.847656 21.730469 53.136719 19.265625 51.726562 17.21875 C 50.3125 15.175781 48.242188 14.160156 45.503906 14.160156 L 40.207031 14.160156 Z M 40.207031 35.070312 "/>
</g>
</svg>
