<svg xmlns="http://www.w3.org/2000/svg" xmlns:xlink="http://www.w3.org/1999/xlink" width="64px" height="64px" viewBox="0 0 64 64" version="1.1">
<defs>
<linearGradient id="linear0" gradientUnits="userSpaceOnUse" x1="0" y1="0" x2="0" y2="1" gradientTransform="matrix(33.477476,0,0,55.351351,15.261261,4.324324)">
<stop offset="0" style="stop-color:#ffae00;stop-opacity:1;"/>
<stop offset="0.5" style="stop-color:#dddddd;stop-opacity:1;"/>
<stop offset="1" style="stop-color:#bf1d1d;stop-opacity:1;"/>
</linearGradient>
</defs>
<g id="surface1">
<path style=" stroke:none;fill-rule:nonzero;fill:url(#linear0);" d="M 48.738281 4.324219 C 27.433594 4.324219 14.78125 22.554688 15.273438 38.753906 L 15.273438 59.675781 C 21.707031 59.675781 28.144531 59.675781 34.582031 59.675781 L 34.582031 38.691406 C 34.582031 34.820312 35.855469 31.011719 38.21875 28.234375 C 40.585938 25.460938 43.996094 23.632812 48.738281 23.632812 Z M 44.878906 8.421875 L 44.878906 12.382812 C 32.886719 14.210938 22.996094 24.089844 22.996094 38.691406 L 22.996094 55.8125 L 19.136719 55.8125 L 19.136719 38.636719 C 18.734375 25.503906 28.171875 10.449219 44.878906 8.421875 Z M 44.878906 16.261719 L 44.878906 20.160156 C 40.882812 20.960938 37.613281 22.988281 35.28125 25.730469 C 32.234375 29.300781 30.71875 33.988281 30.71875 38.691406 L 30.71875 55.8125 L 26.863281 55.8125 L 26.863281 38.691406 C 26.863281 26.027344 34.855469 17.976562 44.878906 16.261719 Z M 44.878906 16.261719 "/>
</g>
</svg>
