<svg xmlns="http://www.w3.org/2000/svg" xmlns:xlink="http://www.w3.org/1999/xlink" width="64px" height="64px" viewBox="0 0 64 64" version="1.1">
<defs>
<linearGradient id="linear0" gradientUnits="userSpaceOnUse" x1="0" y1="0" x2="0" y2="1" gradientTransform="matrix(50.860361,0,0,55.351351,6.572073,4.324324)">
<stop offset="0" style="stop-color:#ffae00;stop-opacity:1;"/>
<stop offset="0.5" style="stop-color:#dddddd;stop-opacity:1;"/>
<stop offset="1" style="stop-color:#6600ff;stop-opacity:1;"/>
</linearGradient>
</defs>
<g id="surface1">
<path style=" stroke:none;fill-rule:nonzero;fill:url(#linear0);" d="M 24.285156 4.324219 C 21.265625 4.324219 19.863281 6.960938 19.863281 8.746094 L 19.863281 42.136719 L 14.714844 37.511719 C 14.605469 37.390625 11.1875 34.539062 7.914062 37.957031 C 5.199219 41.3125 7.238281 44.691406 8.46875 46 L 15.335938 52.835938 C 19.753906 57.253906 25.539062 59.675781 31.671875 59.675781 L 43.066406 59.675781 C 50.988281 59.675781 57.433594 53.230469 57.433594 45.3125 L 57.433594 10.949219 C 57.433594 9.171875 56.03125 6.539062 53.011719 6.539062 C 49.996094 6.539062 48.589844 9.171875 48.589844 10.949219 L 48.589844 35.46875 C 48.613281 36.609375 48.636719 38.710938 47.039062 40.339844 C 46.339844 41.042969 45.109375 41.890625 43.066406 41.890625 C 41.042969 41.890625 39.792969 41.042969 39.09375 40.339844 C 38.933594 40.179688 38.785156 40.003906 38.644531 39.820312 C 38.511719 40.003906 38.363281 40.179688 38.199219 40.339844 C 37.5 41.042969 36.269531 41.890625 34.230469 41.890625 C 32.203125 41.890625 30.949219 41.042969 30.257812 40.339844 C 28.644531 38.699219 28.679688 36.523438 28.703125 35.46875 L 28.703125 8.746094 C 28.703125 6.910156 27.328125 4.324219 24.285156 4.324219 Z M 34.230469 19.792969 C 33.21875 19.792969 32.421875 20.105469 31.839844 20.6875 C 30.875 21.675781 30.902344 23.105469 30.910156 23.96875 L 30.910156 35.511719 C 30.902344 36.375 30.882812 37.808594 31.839844 38.789062 C 32.421875 39.375 33.214844 39.6875 34.230469 39.6875 C 35.246094 39.6875 36.066406 39.375 36.644531 38.789062 C 37.59375 37.820312 37.558594 36.4375 37.539062 35.511719 L 37.539062 24.003906 C 37.554688 23.136719 37.585938 21.6875 36.609375 20.6875 C 36.03125 20.109375 35.230469 19.792969 34.230469 19.792969 Z M 43.066406 19.792969 C 42.058594 19.792969 41.261719 20.105469 40.6875 20.6875 C 39.714844 21.675781 39.738281 23.105469 39.753906 23.96875 L 39.753906 35.511719 C 39.734375 36.375 39.71875 37.808594 40.6875 38.789062 C 41.261719 39.375 42.058594 39.6875 43.066406 39.6875 C 44.089844 39.6875 44.910156 39.375 45.488281 38.789062 C 46.433594 37.820312 46.394531 36.4375 46.382812 35.511719 L 46.382812 24.003906 C 46.394531 23.136719 46.429688 21.6875 45.449219 20.6875 C 44.867188 20.109375 44.066406 19.792969 43.066406 19.792969 Z M 43.066406 19.792969 "/>
</g>
</svg>
