<svg xmlns="http://www.w3.org/2000/svg" xmlns:xlink="http://www.w3.org/1999/xlink" width="64px" height="64px" viewBox="0 0 64 64" version="1.1">
<defs>
<linearGradient id="linear0" gradientUnits="userSpaceOnUse" x1="0" y1="0" x2="0" y2="1" gradientTransform="matrix(55.351351,0,0,50.73874,4.324324,6.630631)">
<stop offset="0" style="stop-color:#00fff2;stop-opacity:1;"/>
<stop offset="0.5" style="stop-color:#dddddd;stop-opacity:1;"/>
<stop offset="1" style="stop-color:#0062ff;stop-opacity:1;"/>
</linearGradient>
</defs>
<g id="surface1">
<path style=" stroke:none;fill-rule:evenodd;fill:url(#linear0);" d="M 22.726562 12.3125 C 23.773438 12.117188 24.851562 11.9375 25.960938 11.789062 C 28.625 11.429688 31.675781 11.246094 34.691406 11.242188 C 34.945312 11.242188 35.203125 11.242188 35.457031 11.246094 C 38.71875 11.214844 42.066406 11.402344 44.960938 11.789062 C 48.988281 12.335938 52.625 13.285156 55.609375 14.566406 C 57.296875 15.292969 59.445312 16.5 59.554688 16.785156 C 59.589844 16.878906 59.644531 17.679688 59.675781 18.570312 C 58.105469 31.351562 54.441406 41.9375 46.585938 49.976562 C 45.078125 51.511719 44.527344 52 44.476562 51.835938 C 44.460938 51.78125 44.421875 51.472656 44.394531 51.152344 C 44.011719 46.472656 36.320312 40.148438 27.578125 37.339844 C 26.203125 36.894531 24.550781 36.503906 22.808594 36.199219 C 19.988281 35.707031 18.433594 35.273438 17.105469 34.621094 C 16.1875 34.164062 15.726562 33.839844 15.113281 33.242188 C 14.109375 32.242188 13.710938 31.410156 13.097656 29 C 12.765625 27.699219 12.429688 26.117188 12.246094 25.042969 C 18.136719 24.53125 22.773438 19.578125 22.773438 13.550781 C 22.773438 13.136719 22.753906 12.726562 22.726562 12.3125 Z M 20.003906 39.179688 C 19.472656 39.175781 19.058594 39.207031 18.828125 39.269531 C 18.632812 39.328125 18.339844 39.503906 18.1875 39.660156 C 17.761719 40.082031 17.828125 40.460938 18.539062 41.636719 C 19.835938 43.808594 21.4375 46.066406 22.972656 47.917969 C 23.921875 49.0625 26.742188 51.847656 27.773438 52.652344 C 30.054688 54.445312 31.636719 55.414062 34.554688 56.820312 C 35.175781 57.121094 35.710938 57.367188 35.734375 57.367188 C 35.867188 57.367188 39.144531 55.6875 39.96875 55.191406 C 41.414062 54.335938 42.527344 53.578125 42.8125 53.253906 C 42.957031 53.089844 43.164062 52.753906 43.28125 52.511719 C 43.6875 51.632812 43.511719 50.457031 42.808594 49.261719 C 40.375 45.160156 32.605469 41.050781 24.613281 39.652344 C 22.941406 39.363281 21.179688 39.1875 20.003906 39.179688 Z M 4.324219 13.550781 C 4.324219 9.730469 7.421875 6.632812 11.242188 6.632812 C 15.0625 6.632812 18.164062 9.730469 18.164062 13.550781 C 18.164062 17.367188 15.0625 20.46875 11.242188 20.46875 C 7.421875 20.46875 4.324219 17.367188 4.324219 13.550781 Z M 4.324219 13.550781 "/>
</g>
</svg>
