<svg xmlns="http://www.w3.org/2000/svg" xmlns:xlink="http://www.w3.org/1999/xlink" width="64px" height="64px" viewBox="0 0 64 64" version="1.1">
<defs>
<linearGradient id="linear0" gradientUnits="userSpaceOnUse" x1="0" y1="0" x2="0" y2="1" gradientTransform="matrix(55.351351,0,0,51.662162,4.324324,5.666666)">
<stop offset="0" style="stop-color:#05f7ff;stop-opacity:1;"/>
<stop offset="0.5" style="stop-color:#dddddd;stop-opacity:1;"/>
<stop offset="1" style="stop-color:#e6ff05;stop-opacity:1;"/>
</linearGradient>
</defs>
<g id="surface1">
<path style=" stroke:none;fill-rule:evenodd;fill:url(#linear0);" d="M 32 16.738281 C 25.023438 16.738281 18.765625 18.664062 14.472656 21.523438 C 10.1875 24.378906 8.011719 27.890625 8.011719 31.488281 C 8.023438 34.09375 9.171875 36.746094 11.753906 39.253906 C 12.566406 40.042969 12.972656 41.171875 12.851562 42.296875 C 12.449219 45.996094 11.855469 49.445312 10.878906 52.527344 C 14.617188 51.355469 17.96875 49.3125 20.578125 46.488281 C 21.46875 45.523438 22.808594 45.105469 24.09375 45.390625 C 26.632812 45.960938 29.308594 46.253906 32.011719 46.257812 C 38.984375 46.257812 45.238281 44.328125 49.527344 41.472656 C 53.8125 38.613281 55.988281 35.09375 55.988281 31.5 C 55.988281 27.894531 53.8125 24.378906 49.527344 21.523438 C 45.234375 18.664062 38.976562 16.738281 32 16.738281 Z M 23.296875 49.011719 C 18.585938 54.125 11.828125 57.328125 4.324219 57.328125 C 6.90625 54.3125 8.484375 48.589844 9.199219 41.945312 C 6.121094 38.976562 4.324219 35.378906 4.324219 31.5 C 4.324219 27.730469 6.023438 24.21875 8.941406 21.300781 C 8.089844 14.550781 6.5 8.714844 4.324219 5.664062 C 11.828125 5.664062 18.585938 8.863281 23.296875 13.976562 C 26.039062 13.375 28.960938 13.042969 32 13.042969 C 47.273438 13.042969 59.675781 21.3125 59.675781 31.5 C 59.675781 41.679688 47.273438 49.945312 32 49.945312 C 28.960938 49.945312 26.039062 49.617188 23.296875 49.011719 Z M 20.929688 27.808594 C 18.890625 27.808594 17.238281 29.460938 17.238281 31.5 C 17.238281 33.539062 18.890625 35.1875 20.929688 35.1875 C 22.96875 35.1875 24.621094 33.539062 24.621094 31.5 C 24.621094 29.460938 22.96875 27.808594 20.929688 27.808594 Z M 32 27.808594 C 29.960938 27.808594 28.3125 29.460938 28.3125 31.5 C 28.3125 33.539062 29.960938 35.1875 32 35.1875 C 34.039062 35.1875 35.6875 33.539062 35.6875 31.5 C 35.6875 29.460938 34.039062 27.808594 32 27.808594 Z M 43.070312 27.808594 C 41.03125 27.808594 39.378906 29.460938 39.378906 31.5 C 39.378906 33.539062 41.03125 35.1875 43.070312 35.1875 C 45.109375 35.1875 46.761719 33.539062 46.761719 31.5 C 46.761719 29.460938 45.109375 27.808594 43.070312 27.808594 Z M 43.070312 27.808594 "/>
</g>
</svg>
