<svg xmlns="http://www.w3.org/2000/svg" xmlns:xlink="http://www.w3.org/1999/xlink" width="64px" height="64px" viewBox="0 0 64 64" version="1.1">
<defs>
<linearGradient id="linear0" gradientUnits="userSpaceOnUse" x1="0" y1="0" x2="0" y2="1" gradientTransform="matrix(55.351351,0,0,55.211713,4.351351,4.531532)">
<stop offset="0" style="stop-color:#00a2ff;stop-opacity:1;"/>
<stop offset="0.5" style="stop-color:#dddddd;stop-opacity:1;"/>
<stop offset="1" style="stop-color:#00ffae;stop-opacity:1;"/>
</linearGradient>
</defs>
<g id="surface1">
<path style=" stroke:none;fill-rule:evenodd;fill:url(#linear0);" d="M 32.550781 59.742188 C 34.050781 59.742188 35.265625 58.527344 35.265625 57.027344 C 35.265625 56.292969 34.96875 55.589844 34.441406 55.082031 L 37.730469 47.960938 C 37.8125 47.96875 37.894531 47.972656 37.984375 47.976562 C 38.796875 47.972656 39.566406 47.605469 40.082031 46.972656 L 47.761719 49.710938 C 47.785156 50.390625 48.066406 51.039062 48.550781 51.523438 C 49.609375 52.582031 51.328125 52.582031 52.386719 51.523438 C 53.445312 50.460938 53.445312 48.742188 52.386719 47.6875 C 51.90625 47.203125 51.257812 46.917969 50.578125 46.890625 L 47.835938 39.21875 C 48.472656 38.707031 48.839844 37.933594 48.839844 37.117188 L 50.652344 37.117188 L 52.6875 36.875 L 59.703125 36.027344 L 59.703125 27.335938 L 52.6875 26.496094 C 52.203125 24.605469 51.449219 22.792969 50.457031 21.113281 L 54.820312 15.554688 L 48.679688 9.414062 L 43.121094 13.773438 C 41.441406 12.785156 39.625 12.039062 37.738281 11.550781 L 36.894531 4.53125 L 28.207031 4.53125 L 28.207031 4.539062 L 27.363281 11.542969 C 25.472656 12.03125 23.664062 12.785156 21.984375 13.773438 L 16.421875 9.414062 L 10.863281 15.558594 L 15.226562 21.117188 L 16.488281 22.726562 L 17.882812 24.117188 C 17.226562 24.632812 16.839844 25.417969 16.839844 26.257812 C 16.839844 26.335938 16.847656 26.421875 16.855469 26.511719 L 9.011719 29.792969 C 8.5 29.269531 7.796875 28.972656 7.066406 28.972656 C 5.566406 28.972656 4.351562 30.1875 4.351562 31.6875 C 4.351562 33.1875 5.566406 34.402344 7.066406 34.402344 C 7.796875 34.402344 8.5 34.105469 9.011719 33.578125 L 16.855469 36.863281 C 16.847656 36.945312 16.839844 37.03125 16.839844 37.117188 C 16.839844 37.933594 17.210938 38.703125 17.839844 39.21875 L 14.378906 46.894531 C 13.699219 46.921875 13.054688 47.203125 12.566406 47.6875 C 11.511719 48.742188 11.511719 50.460938 12.566406 51.523438 C 13.632812 52.582031 15.347656 52.582031 16.410156 51.523438 C 16.890625 51.039062 17.175781 50.390625 17.203125 49.710938 L 25.015625 46.972656 C 25.53125 47.609375 26.308594 47.972656 27.121094 47.976562 C 27.203125 47.972656 27.289062 47.96875 27.367188 47.960938 L 30.660156 55.082031 C 30.132812 55.589844 29.835938 56.292969 29.835938 57.027344 C 29.835938 58.527344 31.050781 59.738281 32.550781 59.738281 Z M 32.300781 54.324219 L 29.015625 47.207031 C 29.3125 46.914062 29.539062 46.558594 29.675781 46.164062 L 35.421875 46.164062 C 35.5625 46.558594 35.792969 46.914062 36.089844 47.207031 L 32.808594 54.320312 C 32.71875 54.3125 32.636719 54.3125 32.550781 54.3125 C 32.46875 54.3125 32.382812 54.3125 32.300781 54.324219 Z M 48.292969 47.984375 L 40.699219 45.269531 L 40.699219 45.261719 C 40.691406 44.855469 40.605469 44.460938 40.429688 44.09375 L 44.960938 39.5625 C 45.324219 39.738281 45.71875 39.828125 46.125 39.835938 L 46.136719 39.835938 L 48.847656 47.429688 C 48.742188 47.503906 48.636719 47.589844 48.550781 47.6875 C 48.457031 47.773438 48.367188 47.878906 48.292969 47.984375 Z M 16.664062 47.984375 C 16.585938 47.878906 16.5 47.773438 16.410156 47.6875 C 16.3125 47.589844 16.214844 47.503906 16.109375 47.421875 L 19.550781 39.828125 L 19.554688 39.828125 C 19.960938 39.828125 20.363281 39.738281 20.71875 39.5625 L 24.675781 44.09375 C 24.5 44.460938 24.40625 44.855469 24.40625 45.261719 L 24.40625 45.269531 Z M 35.421875 44.355469 L 29.679688 44.355469 C 29.296875 43.269531 28.269531 42.542969 27.121094 42.542969 C 26.714844 42.542969 26.320312 42.636719 25.957031 42.8125 L 22 38.285156 C 22.175781 37.917969 22.269531 37.515625 22.269531 37.117188 C 22.269531 35.960938 21.542969 34.941406 20.460938 34.558594 L 20.460938 28.8125 C 21.542969 28.429688 22.269531 27.40625 22.269531 26.257812 C 22.269531 25.617188 22.042969 25 21.632812 24.511719 C 24.105469 20.539062 27.867188 17.617188 32.550781 17.609375 C 42.265625 17.609375 46.769531 24.1875 46.769531 31.6875 C 46.765625 32.605469 46.671875 33.515625 46.484375 34.417969 C 44.585938 34.457031 43.410156 35.730469 43.410156 37.117188 C 43.410156 37.523438 43.503906 37.917969 43.679688 38.285156 L 39.148438 42.8125 C 38.785156 42.636719 38.386719 42.542969 37.984375 42.542969 C 36.828125 42.550781 35.808594 43.273438 35.421875 44.355469 Z M 17.617188 35.226562 L 9.765625 31.9375 C 9.773438 31.851562 9.78125 31.769531 9.78125 31.6875 C 9.78125 31.605469 9.773438 31.515625 9.765625 31.4375 L 17.613281 28.148438 C 17.902344 28.445312 18.257812 28.675781 18.652344 28.8125 L 18.652344 34.558594 C 18.261719 34.699219 17.90625 34.929688 17.617188 35.226562 Z M 17.617188 35.226562 "/>
</g>
</svg>
