<svg xmlns="http://www.w3.org/2000/svg" xmlns:xlink="http://www.w3.org/1999/xlink" width="64px" height="64px" viewBox="0 0 64 64" version="1.1">
<defs>
<linearGradient id="linear0" gradientUnits="userSpaceOnUse" x1="0" y1="0" x2="0" y2="1" gradientTransform="matrix(55.351351,0,0,50.112612,4.324324,6.945947)">
<stop offset="0" style="stop-color:#ffae00;stop-opacity:1;"/>
<stop offset="0.5" style="stop-color:#dddddd;stop-opacity:1;"/>
<stop offset="1" style="stop-color:#bf1d1d;stop-opacity:1;"/>
</linearGradient>
</defs>
<g id="surface1">
<path style=" stroke:none;fill-rule:nonzero;fill:url(#linear0);" d="M 32.613281 56.960938 C 30.042969 56.523438 27.828125 54.847656 26.488281 52.324219 C 25.863281 51.164062 25.289062 49.28125 25.4375 48.894531 C 25.511719 48.691406 26.199219 48.625 28.988281 48.542969 C 33.9375 48.40625 36.09375 47.988281 39.054688 46.605469 C 43.550781 44.5 46.960938 41.609375 49.023438 38.160156 C 50.042969 36.445312 50.570312 34.761719 50.90625 32.125 C 51.136719 30.328125 51.335938 29.5 51.941406 27.949219 C 52.9375 25.382812 53.289062 24.144531 53.171875 23.566406 C 53.117188 23.308594 52.996094 22.289062 52.894531 21.3125 C 52.753906 19.847656 52.625 19.363281 52.199219 18.597656 C 51.609375 17.550781 51.558594 17.226562 51.9375 16.910156 C 52.160156 16.730469 52.40625 16.769531 53.339844 17.175781 C 55.152344 17.941406 56.421875 18.867188 57.6875 20.335938 C 59.402344 22.335938 59.675781 23.023438 59.675781 25.269531 C 59.671875 28.691406 59.351562 33.863281 59.082031 34.757812 C 58.738281 35.902344 58.027344 36.734375 56.539062 37.726562 L 55.3125 38.539062 L 55.613281 38.996094 C 55.773438 39.246094 56.207031 39.8125 56.566406 40.238281 C 57.664062 41.558594 57.851562 42.527344 57.246094 43.851562 C 56.863281 44.710938 55.542969 46.164062 54.527344 46.867188 C 53.363281 47.664062 50.890625 48.839844 47.589844 50.171875 C 43.234375 51.917969 43.011719 52.054688 40.097656 54.6875 C 38.199219 56.40625 37.015625 56.957031 35.015625 57.039062 C 34.171875 57.082031 33.089844 57.039062 32.613281 56.957031 Z M 19.554688 45.976562 C 18.691406 45.796875 17.636719 45.515625 17.207031 45.363281 C 15.8125 44.847656 12.835938 43.058594 10.039062 41.058594 C 6.6875 38.671875 5.472656 37.632812 4.824219 36.609375 C 4.375 35.902344 4.324219 35.664062 4.324219 34.355469 C 4.324219 33.0625 4.394531 32.726562 4.941406 31.472656 C 5.347656 30.539062 5.675781 29.351562 5.914062 27.96875 C 6.292969 25.769531 6.914062 23.960938 7.890625 22.21875 C 9.1875 19.914062 10.636719 18.835938 12.46875 18.828125 C 13.664062 18.828125 14.171875 19.285156 14.335938 20.503906 C 14.390625 20.972656 14.675781 22.253906 14.960938 23.355469 C 16.285156 28.527344 16.28125 28.441406 15.125 30.800781 C 14.164062 32.769531 13.96875 33.5 14.226562 34.171875 C 14.320312 34.421875 15 35.320312 15.734375 36.164062 C 16.472656 37.011719 17.769531 38.738281 18.621094 40.011719 C 20.460938 42.769531 21.988281 44.429688 23.539062 45.375 C 24.164062 45.757812 24.679688 46.132812 24.6875 46.203125 C 24.699219 46.460938 21.109375 46.296875 19.554688 45.976562 Z M 30 45.910156 C 28.636719 45.597656 26.945312 44.902344 25.882812 44.21875 C 24.644531 43.429688 23.675781 42.253906 22.609375 40.261719 C 21.121094 37.488281 20.660156 36.957031 18.960938 36.117188 C 16.929688 35.113281 16.636719 34.488281 17.523438 33.085938 C 18.886719 30.941406 21.230469 29.910156 23.8125 30.324219 C 24.433594 30.421875 26.785156 31.121094 29.039062 31.875 C 33.835938 33.476562 34.765625 33.726562 36.550781 33.886719 C 37.5625 33.96875 38.121094 33.929688 38.902344 33.707031 C 40.589844 33.21875 42.261719 32.238281 43.488281 31.011719 C 45.207031 29.292969 45.875 27.988281 46.890625 24.351562 C 47.042969 23.796875 47.238281 23.347656 47.324219 23.347656 C 47.914062 23.347656 48.210938 28.472656 47.769531 31.011719 C 46.996094 35.445312 44.660156 39.375 40.851562 42.625 C 37.699219 45.320312 33.273438 46.660156 30 45.910156 Z M 37.238281 30.882812 C 36.539062 30.3125 36.847656 29.785156 39.476562 27.09375 C 42.566406 23.9375 42.839844 23.441406 42.9375 20.820312 L 43.003906 18.894531 L 42.3125 18.269531 C 41.238281 17.300781 39.902344 16.863281 37.726562 16.773438 C 36.351562 16.714844 35.625 16.769531 34.910156 16.976562 C 32.636719 17.636719 30.699219 20.085938 31.039062 21.867188 C 31.191406 22.714844 32.226562 23.789062 33.476562 24.40625 C 34.449219 24.882812 34.699219 24.9375 35.460938 24.835938 C 37.011719 24.617188 38.769531 23.152344 39.144531 21.757812 C 39.730469 19.59375 37.238281 17.824219 34.878906 18.726562 C 34.039062 19.050781 33.042969 20.039062 33.042969 20.558594 C 33.042969 20.742188 32.960938 20.945312 32.855469 21.011719 C 32.613281 21.164062 32.800781 20.191406 33.171875 19.390625 C 34.246094 17.078125 39.59375 17.117188 40.363281 19.449219 C 40.921875 21.148438 40.042969 23.265625 37.617188 26.0625 C 36.78125 27.027344 35.726562 28.253906 35.269531 28.785156 C 34.179688 30.070312 33.300781 30.488281 31.675781 30.488281 C 29.515625 30.488281 26.742188 29.355469 25.773438 28.085938 C 25.386719 27.582031 25.300781 27.285156 25.300781 26.476562 C 25.300781 25.59375 25.4375 25.210938 26.566406 22.96875 C 27.613281 20.886719 28.085938 20.164062 29.292969 18.792969 C 32.242188 15.445312 33.765625 14.785156 37.445312 15.253906 C 40.636719 15.652344 42.636719 16.441406 44.039062 17.839844 C 44.886719 18.691406 45.289062 19.445312 45.664062 20.910156 C 45.984375 22.132812 45.914062 23.160156 45.417969 24.664062 C 44.746094 26.6875 42.132812 29.839844 40.433594 30.664062 C 39.265625 31.230469 37.792969 31.328125 37.238281 30.882812 Z M 49.648438 26.339844 C 49.105469 25.988281 48.757812 24.707031 48.113281 20.660156 C 47.792969 18.652344 47.289062 17.433594 46.347656 16.390625 C 44.9375 14.828125 42.199219 13.261719 39.835938 12.660156 C 35.308594 11.503906 31.210938 12.839844 28.09375 16.496094 C 26.707031 18.121094 25.757812 19.933594 24.945312 22.496094 C 24.203125 24.835938 23.851562 25.265625 22.6875 25.265625 C 21.59375 25.265625 21.5 25.011719 21.59375 22.324219 C 21.664062 20.527344 21.761719 19.878906 22.144531 18.753906 C 23.230469 15.597656 25.039062 13.421875 27.910156 11.828125 C 29.664062 10.855469 32.984375 9.039062 34.441406 8.253906 C 35.671875 7.585938 37.511719 7.753906 41.578125 8.886719 C 43.347656 9.382812 45.1875 9.96875 45.664062 10.1875 C 46.886719 10.746094 48.207031 12.003906 48.855469 13.214844 C 49.851562 15.085938 50.460938 18.6875 50.445312 22.605469 C 50.4375 25.429688 50.171875 26.679688 49.648438 26.347656 Z M 17.460938 25.382812 C 17.226562 24.867188 16.71875 22.886719 16.320312 20.902344 C 15.707031 17.867188 15.59375 16.996094 15.578125 14.996094 C 15.554688 12.738281 15.570312 12.597656 16.058594 11.542969 C 16.644531 10.28125 17.03125 9.921875 18.394531 9.417969 C 18.9375 9.214844 20.09375 8.625 20.960938 8.097656 C 22.054688 7.445312 22.828125 7.105469 23.46875 7 C 24.3125 6.863281 26.257812 6.988281 27.3125 7.234375 C 27.542969 7.292969 28.476562 7.410156 29.378906 7.503906 C 30.476562 7.613281 31.109375 7.761719 31.292969 7.945312 C 31.542969 8.203125 31.527344 8.261719 31.097656 8.636719 C 30.511719 9.136719 29.0625 9.691406 27.125 10.152344 C 22.699219 11.191406 21.347656 12.179688 19.636719 15.613281 C 18.632812 17.636719 18.40625 18.875 18.300781 22.867188 C 18.246094 24.835938 18.136719 26.308594 18.042969 26.308594 C 17.957031 26.308594 17.691406 25.890625 17.460938 25.382812 Z M 35.1875 22.3125 C 34.488281 21.886719 34.320312 21.296875 34.6875 20.585938 C 35.066406 19.851562 35.613281 19.570312 35.96875 19.933594 C 36.191406 20.152344 36.203125 20.285156 36.039062 20.652344 C 35.554688 21.710938 36.097656 22.199219 37.328125 21.820312 C 38.085938 21.589844 38.097656 21.851562 37.355469 22.308594 C 36.636719 22.742188 35.902344 22.742188 35.1875 22.308594 Z M 35.1875 22.3125 "/>
</g>
</svg>
