<svg xmlns="http://www.w3.org/2000/svg" xmlns:xlink="http://www.w3.org/1999/xlink" width="64px" height="64px" viewBox="0 0 64 64" version="1.1">
<defs>
<linearGradient id="linear0" gradientUnits="userSpaceOnUse" x1="0" y1="0" x2="0" y2="1" gradientTransform="matrix(51.891892,0,0,46.887388,6.054054,8.635135)">
<stop offset="0" style="stop-color:#ffae00;stop-opacity:1;"/>
<stop offset="0.5" style="stop-color:#dddddd;stop-opacity:1;"/>
<stop offset="1" style="stop-color:#bf1d1d;stop-opacity:1;"/>
</linearGradient>
</defs>
<g id="surface1">
<path style=" stroke:none;fill-rule:nonzero;fill:url(#linear0);" d="M 6.054688 8.636719 L 6.054688 55.523438 L 57.945312 55.523438 L 57.945312 8.636719 Z M 56.503906 9.699219 L 56.503906 54.460938 Z M 13.863281 13.8125 C 18.773438 13.8125 23.472656 14.78125 27.945312 16.714844 C 32.421875 18.648438 36.285156 21.242188 39.527344 24.503906 C 42.769531 27.761719 45.351562 31.644531 47.273438 36.144531 C 49.203125 40.636719 50.164062 45.363281 50.164062 50.296875 L 43.191406 50.296875 C 43.191406 46.308594 42.417969 42.488281 40.867188 38.839844 C 39.320312 35.191406 37.234375 32.054688 34.609375 29.429688 C 31.984375 26.800781 28.863281 24.710938 25.242188 23.152344 C 21.625 21.597656 17.835938 20.820312 13.863281 20.820312 Z M 13.863281 26.21875 C 18.199219 26.21875 22.203125 27.292969 25.878906 29.445312 C 29.558594 31.597656 32.46875 34.523438 34.609375 38.21875 C 36.746094 41.917969 37.820312 45.941406 37.820312 50.296875 L 30.851562 50.296875 C 30.851562 45.582031 29.191406 41.554688 25.878906 38.21875 C 22.539062 34.863281 18.539062 33.1875 13.863281 33.1875 Z M 18.691406 40.554688 C 20.023438 40.554688 21.160156 41.03125 22.105469 41.976562 C 23.042969 42.929688 23.515625 44.070312 23.515625 45.410156 C 23.515625 46.769531 23.042969 47.917969 22.105469 48.855469 C 21.160156 49.792969 20.023438 50.261719 18.691406 50.261719 C 17.363281 50.261719 16.21875 49.789062 15.28125 48.835938 C 14.335938 47.886719 13.863281 46.746094 13.863281 45.410156 C 13.863281 44.070312 14.335938 42.929688 15.28125 41.976562 C 16.21875 41.03125 17.363281 40.554688 18.691406 40.554688 Z M 18.691406 40.554688 "/>
</g>
</svg>
