<svg xmlns="http://www.w3.org/2000/svg" xmlns:xlink="http://www.w3.org/1999/xlink" width="64px" height="64px" viewBox="0 0 64 64" version="1.1">
<defs>
<linearGradient id="linear0" gradientUnits="userSpaceOnUse" x1="0" y1="0" x2="0" y2="1" gradientTransform="matrix(49.819821,0,0,55.351351,7.09009,4.324324)">
<stop offset="0" style="stop-color:#ffae00;stop-opacity:1;"/>
<stop offset="0.5" style="stop-color:#dddddd;stop-opacity:1;"/>
<stop offset="1" style="stop-color:#6600ff;stop-opacity:1;"/>
</linearGradient>
</defs>
<g id="surface1">
<path style=" stroke:none;fill-rule:evenodd;fill:url(#linear0);" d="M 19.542969 7.417969 L 19.542969 15.40625 C 21.109375 15.417969 22.210938 15.449219 23.660156 15.785156 C 25.136719 16.125 26.460938 16.410156 26.460938 18.257812 L 24.53125 19.542969 C 24.53125 19.542969 23.515625 18.414062 22.589844 18.257812 C 22.21875 18.191406 21.808594 18.238281 20.929688 18.945312 L 20.929688 54.957031 L 16.78125 59.675781 L 12.625 54.957031 L 12.625 38.917969 L 8.476562 34.765625 L 12.625 30.617188 L 12.625 18.484375 C 12.070312 18.273438 11.503906 18.164062 10.96875 18.257812 C 10.039062 18.414062 9.027344 19.542969 9.027344 19.542969 L 7.089844 18.257812 C 7.089844 16.410156 8.417969 16.125 9.894531 15.785156 C 11.308594 15.460938 12.503906 15.429688 14.011719 15.410156 L 14.011719 7.417969 C 13.164062 6.660156 12.625 5.554688 12.625 4.324219 L 20.929688 4.324219 C 20.929688 5.554688 20.394531 6.660156 19.542969 7.417969 Z M 28.292969 15.394531 C 28.847656 16.234375 29.234375 17.261719 29.234375 18.257812 C 29.234375 19.003906 28.652344 19.726562 28.109375 20.246094 C 30.382812 21.835938 32 24.699219 32 27.523438 C 32 32.761719 29.082031 33.21875 23.699219 34.765625 C 26.929688 42.664062 33.363281 49.652344 39.734375 53.269531 C 45.164062 56.554688 50.148438 58.863281 56.910156 59.675781 C 49.441406 50.558594 37.8125 46.550781 32 37.539062 C 35.882812 35.496094 40.300781 33.738281 40.300781 27.003906 C 40.300781 21.539062 35.320312 15.394531 31.617188 15.394531 Z M 28.292969 15.394531 "/>
</g>
</svg>
