<svg xmlns="http://www.w3.org/2000/svg" xmlns:xlink="http://www.w3.org/1999/xlink" width="64px" height="64px" viewBox="0 0 64 64" version="1.1">
<defs>
<linearGradient id="linear0" gradientUnits="userSpaceOnUse" x1="0" y1="0" x2="0" y2="1" gradientTransform="matrix(55.351351,0,0,55.351351,4.324324,4.324324)">
<stop offset="0" style="stop-color:#00b7ff;stop-opacity:1;"/>
<stop offset="0.5" style="stop-color:#dddddd;stop-opacity:1;"/>
<stop offset="1" style="stop-color:#ee42d9;stop-opacity:1;"/>
</linearGradient>
</defs>
<g id="surface1">
<path style=" stroke:none;fill-rule:nonzero;fill:url(#linear0);" d="M 28.921875 47.375 C 28.921875 49.066406 30.308594 50.449219 32 50.449219 C 33.691406 50.449219 35.078125 49.066406 35.078125 47.375 C 35.078125 45.6875 33.691406 44.300781 32 44.300781 C 30.308594 44.300781 28.921875 45.6875 28.921875 47.375 Z M 28.921875 4.324219 L 28.921875 16.625 L 35.078125 16.625 L 35.078125 10.71875 C 45.5 12.226562 53.523438 21.144531 53.523438 32 C 53.523438 43.902344 43.902344 53.523438 32 53.523438 C 20.097656 53.523438 10.476562 43.902344 10.476562 32 C 10.476562 26.835938 12.289062 22.097656 15.335938 18.410156 L 32 35.078125 L 36.335938 30.738281 L 15.429688 9.828125 L 15.429688 9.890625 C 8.6875 14.933594 4.324219 22.929688 4.324219 32 C 4.324219 47.285156 16.6875 59.675781 32 59.675781 C 47.285156 59.675781 59.675781 47.285156 59.675781 32 C 59.675781 16.714844 47.285156 4.324219 32 4.324219 Z M 50.449219 32 C 50.449219 30.308594 49.066406 28.921875 47.375 28.921875 C 45.6875 28.921875 44.300781 30.308594 44.300781 32 C 44.300781 33.691406 45.6875 35.078125 47.375 35.078125 C 49.066406 35.078125 50.449219 33.691406 50.449219 32 Z M 13.550781 32 C 13.550781 33.691406 14.933594 35.078125 16.625 35.078125 C 18.3125 35.078125 19.699219 33.691406 19.699219 32 C 19.699219 30.308594 18.3125 28.921875 16.625 28.921875 C 14.933594 28.921875 13.550781 30.308594 13.550781 32 Z M 13.550781 32 "/>
</g>
</svg>
