<svg xmlns="http://www.w3.org/2000/svg" xmlns:xlink="http://www.w3.org/1999/xlink" width="64px" height="64px" viewBox="0 0 64 64" version="1.1">
<defs>
<linearGradient id="linear0" gradientUnits="userSpaceOnUse" x1="0" y1="0" x2="0" y2="1" gradientTransform="matrix(55.351351,0,0,55.351351,4.324324,4.324324)">
<stop offset="0" style="stop-color:#ffae00;stop-opacity:1;"/>
<stop offset="0.5" style="stop-color:#dddddd;stop-opacity:1;"/>
<stop offset="1" style="stop-color:#6600ff;stop-opacity:1;"/>
</linearGradient>
</defs>
<g id="surface1">
<path style=" stroke:none;fill-rule:evenodd;fill:url(#linear0);" d="M 15.199219 32 C 15.199219 22.726562 22.726562 15.199219 32 15.199219 C 41.273438 15.199219 48.800781 22.726562 48.800781 32 C 48.800781 41.273438 41.273438 48.800781 32 48.800781 C 22.726562 48.800781 15.199219 41.273438 15.199219 32 Z M 32 10.253906 L 32 4.324219 C 47.285156 4.324219 59.675781 16.714844 59.675781 32 L 53.746094 32 C 53.746094 44 44 53.746094 32 53.746094 L 32 59.675781 C 16.714844 59.675781 4.324219 47.285156 4.324219 32 L 10.253906 32 C 10.253906 20 20 10.253906 32 10.253906 Z M 26.3125 22.570312 L 37.292969 22.570312 C 38.351562 22.570312 39.261719 22.945312 40.011719 23.699219 C 40.773438 24.445312 41.152344 25.351562 41.152344 26.410156 L 41.152344 30.613281 C 41.152344 31.671875 40.773438 32.582031 40.011719 33.335938 C 39.261719 34.09375 38.351562 34.472656 37.292969 34.472656 L 26.503906 34.472656 L 26.503906 37.566406 L 41.152344 37.566406 L 41.152344 41.613281 L 22.457031 41.613281 L 22.457031 34.238281 C 22.457031 33.179688 22.835938 32.273438 23.59375 31.527344 C 24.351562 30.773438 25.261719 30.402344 26.3125 30.402344 L 37.109375 30.402344 L 37.109375 26.621094 L 26.503906 26.621094 L 26.503906 28.152344 L 22.457031 28.152344 L 22.457031 26.410156 C 22.457031 25.351562 22.835938 24.445312 23.59375 23.699219 C 24.351562 22.945312 25.261719 22.570312 26.3125 22.570312 Z M 26.3125 22.570312 "/>
</g>
</svg>
