<svg xmlns="http://www.w3.org/2000/svg" xmlns:xlink="http://www.w3.org/1999/xlink" width="64px" height="64px" viewBox="0 0 64 64" version="1.1">
<defs>
<linearGradient id="linear0" gradientUnits="userSpaceOnUse" x1="0" y1="0" x2="0" y2="1" gradientTransform="matrix(54.918919,0,0,55.351351,4.540541,4.324324)">
<stop offset="0" style="stop-color:#ffae00;stop-opacity:1;"/>
<stop offset="0.5" style="stop-color:#dddddd;stop-opacity:1;"/>
<stop offset="1" style="stop-color:#bf1d1d;stop-opacity:1;"/>
</linearGradient>
</defs>
<g id="surface1">
<path style=" stroke:none;fill-rule:nonzero;fill:url(#linear0);" d="M 59.417969 6.59375 L 59.417969 13.394531 C 59.417969 14.648438 58.40625 15.664062 57.152344 15.664062 L 17.242188 15.664062 C 16.488281 15.664062 15.878906 16.273438 15.878906 17.027344 L 15.878906 25.648438 C 15.878906 26.402344 16.488281 27.011719 17.242188 27.011719 L 57.144531 27.011719 C 58.394531 27.011719 59.414062 28.027344 59.414062 29.28125 L 59.460938 57.40625 C 59.460938 58.660156 58.449219 59.675781 57.199219 59.675781 L 6.808594 59.675781 C 5.554688 59.675781 4.539062 58.660156 4.539062 57.40625 L 4.539062 50.605469 C 4.539062 49.351562 5.554688 48.335938 6.808594 48.335938 L 46.742188 48.335938 C 47.496094 48.335938 48.105469 47.726562 48.105469 46.972656 L 48.089844 39.714844 C 48.089844 38.960938 47.476562 38.351562 46.726562 38.351562 L 6.808594 38.351562 C 5.554688 38.351562 4.539062 37.335938 4.539062 36.082031 L 4.539062 6.59375 C 4.539062 5.339844 5.554688 4.324219 6.808594 4.324219 L 57.152344 4.324219 C 58.40625 4.324219 59.417969 5.339844 59.417969 6.59375 Z M 59.417969 6.59375 "/>
</g>
</svg>
