<svg xmlns="http://www.w3.org/2000/svg" xmlns:xlink="http://www.w3.org/1999/xlink" width="64px" height="64px" viewBox="0 0 64 64" version="1.1">
<defs>
<linearGradient id="linear0" gradientUnits="userSpaceOnUse" x1="0" y1="0" x2="0" y2="1" gradientTransform="matrix(51.891892,0,0,43.243243,6.054054,10.549549)">
<stop offset="0" style="stop-color:#00b7ff;stop-opacity:1;"/>
<stop offset="0.5" style="stop-color:#dddddd;stop-opacity:1;"/>
<stop offset="1" style="stop-color:#ee42d9;stop-opacity:1;"/>
</linearGradient>
</defs>
<g id="surface1">
<path style=" stroke:none;fill-rule:nonzero;fill:url(#linear0);" d="M 6.054688 32.960938 C 6.054688 19.855469 12.835938 12.707031 16.800781 12.707031 C 20.765625 12.707031 21.1875 14.730469 21.1875 17.945312 C 21.1875 24.191406 13.621094 21.957031 13.621094 33.675781 C 13.621094 37.558594 15.765625 41.902344 20.191406 41.902344 C 23.742188 41.902344 25.050781 38.121094 26.851562 30.542969 C 29.839844 19.152344 32.863281 10.550781 43.070312 10.550781 C 52.988281 10.550781 57.945312 18.894531 57.945312 32.003906 C 57.945312 45.117188 50.265625 53.785156 46.300781 53.785156 C 42.335938 53.785156 40.652344 52.203125 40.652344 48.988281 C 40.652344 42.738281 49.652344 43.742188 49.652344 32.023438 C 49.652344 28.136719 47.949219 22.421875 43.523438 22.421875 C 39.96875 22.421875 38.714844 22.671875 36.539062 30.976562 C 35.351562 39.851562 32.53125 53.792969 21.742188 53.792969 C 11.828125 53.792969 6.054688 46.078125 6.054688 32.96875 Z M 6.054688 32.960938 "/>
</g>
</svg>
