<svg xmlns="http://www.w3.org/2000/svg" xmlns:xlink="http://www.w3.org/1999/xlink" width="64px" height="64px" viewBox="0 0 64 64" version="1.1">
<defs>
<linearGradient id="linear0" gradientUnits="userSpaceOnUse" x1="0" y1="0" x2="0" y2="1" gradientTransform="matrix(55.351351,0,0,54.202703,4.324324,4.896397)">
<stop offset="0" style="stop-color:#05f7ff;stop-opacity:1;"/>
<stop offset="0.5" style="stop-color:#dddddd;stop-opacity:1;"/>
<stop offset="1" style="stop-color:#e6ff05;stop-opacity:1;"/>
</linearGradient>
</defs>
<g id="surface1">
<path style=" stroke:none;fill-rule:evenodd;fill:url(#linear0);" d="M 13.011719 36.171875 C 7.796875 36.171875 7.796875 33.558594 7.796875 32.699219 C 7.796875 31.835938 7.796875 29.21875 13.011719 29.21875 C 18.230469 29.21875 18.230469 31.835938 18.230469 32.699219 C 18.230469 33.558594 18.230469 36.171875 13.011719 36.171875 Z M 38.691406 28.800781 C 37.851562 31.265625 36.664062 33.597656 35.164062 35.726562 C 34.6875 36.421875 34.242188 37.089844 33.824219 37.875 C 41.679688 36.929688 47.511719 36.171875 47.511719 36.171875 C 56.511719 34.484375 59.675781 25.746094 59.675781 25.746094 Z M 21.703125 32.699219 C 21.703125 28.347656 18.449219 25.746094 13.011719 25.746094 C 7.566406 25.746094 4.324219 28.347656 4.324219 32.699219 C 4.324219 38.324219 8.945312 40.542969 18.328125 39.648438 C 19.382812 39.550781 20.285156 39.363281 21.625 39.210938 C 22 37.585938 22.417969 35.824219 22.855469 34.011719 C 21.621094 34.144531 21.703125 33.28125 21.703125 32.699219 Z M 27.527344 34.476562 C 28.144531 34.476562 28.710938 34.808594 29.015625 35.339844 C 29.324219 35.875 29.324219 36.53125 29.011719 37.0625 C 28.707031 37.597656 28.136719 37.929688 27.523438 37.929688 C 26.566406 37.921875 25.800781 37.152344 25.800781 36.199219 C 25.800781 35.246094 26.578125 34.476562 27.527344 34.476562 Z M 32.675781 50.828125 C 32.0625 56.003906 29.46875 55.691406 28.613281 55.597656 C 27.757812 55.496094 25.164062 55.1875 25.773438 50.011719 C 26.386719 44.835938 28.988281 45.144531 29.839844 45.242188 C 30.691406 45.339844 33.289062 45.652344 32.675781 50.828125 Z M 30.246094 41.789062 C 29.636719 41.714844 28.636719 41.324219 29.117188 39.894531 C 30.976562 34.335938 33.671875 34.757812 36.066406 26.835938 L 41.625 4.894531 C 41.625 4.894531 32.585938 7.011719 29.839844 15.746094 C 29.839844 15.746094 24.808594 35.78125 22.957031 44.3125 C 20.957031 53.523438 22.613281 58.382812 28.203125 59.039062 C 32.523438 59.558594 35.488281 56.636719 36.132812 51.238281 C 36.765625 45.835938 34.570312 42.300781 30.246094 41.789062 Z M 30.246094 41.789062 "/>
</g>
</svg>
