<svg xmlns="http://www.w3.org/2000/svg" xmlns:xlink="http://www.w3.org/1999/xlink" width="64px" height="64px" viewBox="0 0 64 64" version="1.1">
<defs>
<linearGradient id="linear0" gradientUnits="userSpaceOnUse" x1="0" y1="0" x2="0" y2="1" gradientTransform="matrix(53.639639,0,0,55.351351,5.180181,4.324324)">
<stop offset="0" style="stop-color:#00fff2;stop-opacity:1;"/>
<stop offset="0.5" style="stop-color:#dddddd;stop-opacity:1;"/>
<stop offset="1" style="stop-color:#0062ff;stop-opacity:1;"/>
</linearGradient>
</defs>
<g id="surface1">
<path style=" stroke:none;fill-rule:evenodd;fill:url(#linear0);" d="M 48.769531 13.21875 L 44.707031 9.136719 L 46.710938 7.089844 C 48.996094 4.765625 51.039062 3.882812 52.675781 4.527344 C 54.164062 5.109375 57.539062 8.691406 57.636719 9.808594 C 57.863281 12.039062 57.496094 12.941406 55.523438 15.054688 C 54.363281 16.292969 53.285156 17.308594 53.125 17.308594 C 52.96875 17.308594 51.011719 15.46875 48.769531 13.21875 Z M 45.589844 16.402344 C 41.730469 12.523438 41.5625 12.273438 42.3125 11.527344 C 43.058594 10.773438 43.3125 10.949219 47.261719 14.902344 C 50.851562 18.488281 51.347656 19.164062 50.835938 19.773438 C 50.511719 20.164062 50.113281 20.488281 49.949219 20.488281 C 49.789062 20.488281 47.828125 18.648438 45.589844 16.402344 Z M 15.589844 46.539062 C 13.472656 44.378906 11.734375 42.488281 11.734375 42.335938 C 11.734375 42.1875 18.070312 35.730469 25.820312 27.984375 L 39.90625 13.90625 L 44.109375 18.105469 L 48.308594 22.300781 L 34.230469 36.390625 C 26.484375 44.136719 19.988281 50.476562 19.792969 50.476562 C 19.605469 50.476562 17.710938 48.707031 15.589844 46.539062 Z M 10.414062 43.863281 C 12.875 46.625 15.46875 49.261719 18.054688 51.90625 L 5.988281 56.109375 Z M 6.355469 57.320312 L 57.644531 57.320312 C 57.957031 57.320312 58.253906 57.445312 58.476562 57.664062 C 58.699219 57.886719 58.820312 58.1875 58.820312 58.496094 C 58.820312 58.8125 58.699219 59.113281 58.476562 59.335938 C 58.253906 59.554688 57.957031 59.675781 57.644531 59.675781 L 6.355469 59.675781 C 6.042969 59.675781 5.746094 59.554688 5.523438 59.335938 C 5.300781 59.113281 5.179688 58.8125 5.179688 58.496094 C 5.179688 58.1875 5.300781 57.886719 5.523438 57.664062 C 5.746094 57.445312 6.042969 57.320312 6.355469 57.320312 Z M 6.355469 57.320312 "/>
</g>
</svg>
