<svg xmlns="http://www.w3.org/2000/svg" xmlns:xlink="http://www.w3.org/1999/xlink" width="64px" height="64px" viewBox="0 0 64 64" version="1.1">
<defs>
<linearGradient id="linear0" gradientUnits="userSpaceOnUse" x1="0" y1="0" x2="0" y2="1" gradientTransform="matrix(55.351351,0,0,44.27928,4.324324,9.86036)">
<stop offset="0" style="stop-color:#00a2ff;stop-opacity:1;"/>
<stop offset="0.5" style="stop-color:#dddddd;stop-opacity:1;"/>
<stop offset="1" style="stop-color:#00ffae;stop-opacity:1;"/>
</linearGradient>
</defs>
<g id="surface1">
<path style=" stroke:none;fill-rule:evenodd;fill:url(#linear0);" d="M 32 26.460938 C 30.039062 26.460938 28.164062 27.242188 26.78125 28.625 C 25.394531 30.011719 24.621094 31.886719 24.621094 33.839844 C 24.621094 35.800781 25.394531 37.679688 26.78125 39.0625 C 28.164062 40.445312 30.039062 41.226562 32 41.226562 C 33.960938 41.226562 35.835938 40.445312 37.21875 39.0625 C 38.605469 37.679688 39.378906 35.800781 39.378906 33.839844 C 39.378906 31.886719 38.605469 30.011719 37.21875 28.625 C 35.835938 27.242188 33.960938 26.460938 32 26.460938 Z M 32 22.773438 C 38.113281 22.773438 43.070312 27.730469 43.070312 33.839844 C 43.070312 39.960938 38.113281 44.914062 32 44.914062 C 25.886719 44.914062 20.929688 39.960938 20.929688 33.839844 C 20.929688 27.730469 25.886719 22.773438 32 22.773438 Z M 32 19.085938 C 23.851562 19.085938 17.238281 25.691406 17.238281 33.839844 C 17.238281 42 23.851562 48.605469 32 48.605469 C 40.148438 48.605469 46.761719 42 46.761719 33.839844 C 46.761719 25.691406 40.148438 19.085938 32 19.085938 Z M 28.226562 9.863281 C 23.226562 9.863281 18.421875 11.800781 14.882812 15.261719 C 11.339844 18.71875 9.355469 23.417969 9.355469 28.3125 C 9.355469 29.890625 9.570312 31.46875 9.988281 33.003906 C 6.632812 34.617188 4.324219 38.011719 4.324219 41.96875 L 4.324219 44.175781 C 4.324219 49.691406 8.808594 54.136719 14.378906 54.136719 L 49.621094 54.136719 C 55.1875 54.136719 59.675781 49.691406 59.675781 44.175781 L 59.675781 41.96875 C 59.675781 37.78125 57.097656 34.21875 53.429688 32.738281 C 55.027344 30.785156 55.894531 28.355469 55.902344 25.847656 C 55.902344 22.914062 54.707031 20.097656 52.585938 18.023438 C 50.460938 15.945312 47.582031 14.78125 44.578125 14.78125 C 43.539062 14.785156 42.488281 14.921875 41.488281 15.203125 C 37.957031 11.789062 33.191406 9.863281 28.226562 9.863281 Z M 17.238281 18.164062 C 17.238281 16.636719 18.484375 15.394531 20.003906 15.394531 C 21.539062 15.394531 22.773438 16.636719 22.773438 18.164062 C 22.773438 19.6875 21.539062 20.929688 20.003906 20.929688 C 18.484375 20.929688 17.238281 19.6875 17.238281 18.164062 Z M 17.238281 18.164062 "/>
</g>
</svg>
