<svg xmlns="http://www.w3.org/2000/svg" xmlns:xlink="http://www.w3.org/1999/xlink" width="64px" height="64px" viewBox="0 0 64 64" version="1.1">
<defs>
<linearGradient id="linear0" gradientUnits="userSpaceOnUse" x1="0" y1="0" x2="0" y2="1" gradientTransform="matrix(51.891892,0,0,51.891892,6.054054,6.054054)">
<stop offset="0" style="stop-color:#ffae00;stop-opacity:1;"/>
<stop offset="0.5" style="stop-color:#dddddd;stop-opacity:1;"/>
<stop offset="1" style="stop-color:#bf1d1d;stop-opacity:1;"/>
</linearGradient>
</defs>
<g id="surface1">
<path style=" stroke:none;fill-rule:nonzero;fill:url(#linear0);" d="M 37.011719 6.054688 L 6.070312 36.847656 L 6.070312 49.269531 C 10.71875 49.351562 18.363281 49.269531 18.363281 49.269531 L 49.308594 18.339844 Z M 33.90625 15.375 L 39.988281 21.449219 L 27.679688 33.875 L 21.460938 27.652344 Z M 18.363281 30.765625 L 24.582031 36.847656 L 21.472656 39.949219 L 15.390625 33.875 Z M 49.835938 36.308594 C 48.988281 36.3125 46.679688 36.5 43.085938 38.734375 C 41.960938 39.4375 41.125 40.234375 39.839844 41.175781 C 39.160156 41.675781 36.703125 43.3125 35.789062 43.875 C 33.113281 45.53125 32.152344 45.949219 29.839844 47.117188 C 27.609375 48.242188 25.265625 49.269531 23.625 50.085938 C 16.742188 53.523438 6.054688 53.597656 6.054688 53.597656 L 6.054688 57.917969 C 6.054688 57.917969 16.851562 58.058594 24.707031 54.136719 C 25.753906 53.621094 27.597656 52.765625 29.300781 51.976562 C 29.300781 51.976562 34.136719 49.417969 34.164062 49.414062 C 35.011719 48.941406 35.730469 48.582031 37.003906 47.792969 C 37.988281 47.1875 40.355469 45.671875 41.328125 44.957031 C 42.753906 43.90625 43.675781 43.132812 44.433594 42.664062 C 46.097656 41.355469 47.984375 40.578125 49.835938 40.636719 C 49.691406 40.636719 50.402344 40.675781 51.054688 41.039062 C 51.707031 41.402344 52.394531 42.050781 52.945312 42.664062 C 54.003906 44.09375 54.488281 45.1875 54.703125 47.117188 C 54.550781 52.765625 49.171875 53.621094 44.972656 53.597656 L 44.972656 57.917969 C 53.53125 58.308594 57.945312 54.3125 57.945312 46.984375 C 57.929688 45.738281 57.730469 44.714844 57.269531 43.335938 C 56.8125 41.957031 56.121094 40.414062 55.109375 39.285156 C 53.550781 37.457031 52.761719 36.652344 49.835938 36.3125 Z M 49.835938 36.308594 "/>
</g>
</svg>
