<svg xmlns="http://www.w3.org/2000/svg" xmlns:xlink="http://www.w3.org/1999/xlink" width="64px" height="64px" viewBox="0 0 64 64" version="1.1">
<defs>
<linearGradient id="linear0" gradientUnits="userSpaceOnUse" x1="0" y1="0" x2="0" y2="1" gradientTransform="matrix(41.513514,0,0,51.891892,11.243243,5.481981)">
<stop offset="0" style="stop-color:#00fff2;stop-opacity:1;"/>
<stop offset="0.5" style="stop-color:#dddddd;stop-opacity:1;"/>
<stop offset="1" style="stop-color:#0062ff;stop-opacity:1;"/>
</linearGradient>
<linearGradient id="linear1" gradientUnits="userSpaceOnUse" x1="0" y1="0" x2="0" y2="1" gradientTransform="matrix(6.418918,0,0,29.621622,28.788287,16.972973)">
<stop offset="0" style="stop-color:#00fff2;stop-opacity:1;"/>
<stop offset="0.5" style="stop-color:#dddddd;stop-opacity:1;"/>
<stop offset="1" style="stop-color:#0062ff;stop-opacity:1;"/>
</linearGradient>
</defs>
<g id="surface1">
<path style=" stroke:none;fill-rule:nonzero;fill:url(#linear0);" d="M 32 5.484375 C 32 5.484375 26.339844 14.746094 11.242188 14.746094 C 11.242188 46.257812 32 57.375 32 57.375 C 32 57.375 52.757812 46.257812 52.757812 14.746094 C 37.660156 14.746094 32 5.484375 32 5.484375 Z M 32 10.175781 C 32.941406 11.230469 32.886719 11.59375 34.703125 12.863281 C 37.855469 15.078125 42.875 16.890625 49.066406 17.570312 C 48.46875 30.917969 44.089844 40.050781 39.621094 45.835938 C 36.226562 50.230469 33.605469 52.191406 32 53.257812 C 30.394531 52.191406 27.773438 50.230469 24.378906 45.835938 C 19.910156 40.050781 15.53125 30.917969 14.933594 17.570312 C 21.125 16.890625 26.144531 15.078125 29.296875 12.863281 C 31.113281 11.589844 31.058594 11.230469 32 10.175781 Z M 32 10.175781 "/>
<path style=" stroke:none;fill-rule:nonzero;fill:url(#linear1);" d="M 31.996094 16.972656 C 30.226562 16.972656 28.789062 18.445312 28.789062 20.265625 C 28.789062 23.554688 29.863281 27.945312 30.929688 36.71875 L 33.066406 36.71875 C 34.136719 27.945312 35.207031 23.554688 35.207031 20.265625 C 35.207031 18.445312 33.769531 16.972656 31.996094 16.972656 Z M 31.996094 40.011719 C 30.226562 40.011719 28.789062 41.488281 28.789062 43.300781 C 28.789062 45.121094 30.226562 46.59375 31.996094 46.59375 C 33.769531 46.59375 35.207031 45.121094 35.207031 43.300781 C 35.207031 41.488281 33.769531 40.011719 31.996094 40.011719 Z M 31.996094 40.011719 "/>
</g>
</svg>
