<svg xmlns="http://www.w3.org/2000/svg" xmlns:xlink="http://www.w3.org/1999/xlink" width="64px" height="64px" viewBox="0 0 64 64" version="1.1">
<defs>
<linearGradient id="linear0" gradientUnits="userSpaceOnUse" x1="0" y1="0" x2="0" y2="1" gradientTransform="matrix(55.351351,0,0,40.594595,4.324324,11.702704)">
<stop offset="0" style="stop-color:#ff8963;stop-opacity:1;"/>
<stop offset="0.5" style="stop-color:#dddddd;stop-opacity:1;"/>
<stop offset="1" style="stop-color:#0F6FFF;stop-opacity:1;"/>
</linearGradient>
</defs>
<g id="surface1">
<path style=" stroke:none;fill-rule:nonzero;fill:url(#linear0);" d="M 15.394531 11.703125 L 15.394531 15.394531 L 26.460938 15.394531 L 26.460938 19.085938 L 11.703125 19.085938 L 11.703125 30.160156 L 8.011719 30.160156 L 8.011719 19.085938 L 4.324219 19.085938 L 4.324219 44.914062 L 8.011719 44.914062 L 8.011719 33.839844 L 11.703125 33.839844 L 11.703125 44.914062 L 19.085938 52.296875 L 43.070312 52.296875 L 46.761719 48.605469 L 52.296875 48.605469 L 52.296875 52.296875 L 55.988281 52.296875 L 59.675781 48.605469 L 59.675781 26.460938 L 55.988281 22.773438 L 52.296875 22.773438 L 52.296875 26.460938 L 49.066406 26.460938 L 41.6875 19.085938 L 30.160156 19.085938 L 30.160156 15.394531 L 41.226562 15.394531 L 41.226562 11.703125 Z M 15.394531 22.773438 L 39.378906 22.773438 L 46.761719 30.160156 L 55.988281 30.160156 L 55.988281 44.914062 L 44.914062 44.914062 L 41.226562 48.605469 L 21.390625 48.605469 L 15.394531 42.335938 Z M 15.394531 22.773438 "/>
</g>
</svg>
