<svg xmlns="http://www.w3.org/2000/svg" xmlns:xlink="http://www.w3.org/1999/xlink" width="64px" height="64px" viewBox="0 0 64 64" version="1.1">
<defs>
<linearGradient id="linear0" gradientUnits="userSpaceOnUse" x1="0" y1="0" x2="0" y2="1" gradientTransform="matrix(55.351351,0,0,55.351351,4.324324,4.324324)">
<stop offset="0" style="stop-color:#00b7ff;stop-opacity:1;"/>
<stop offset="0.5" style="stop-color:#dddddd;stop-opacity:1;"/>
<stop offset="1" style="stop-color:#ee42d9;stop-opacity:1;"/>
</linearGradient>
</defs>
<g id="surface1">
<path style=" stroke:none;fill-rule:nonzero;fill:url(#linear0);" d="M 31.988281 4.324219 L 32.003906 4.339844 C 35.335938 11.855469 37.910156 19.511719 39.375 24.207031 C 44.1875 24.210938 52.117188 24.402344 59.675781 25.433594 L 59.664062 25.441406 L 59.664062 25.460938 C 53.890625 31.117188 47.757812 36.054688 43.960938 38.960938 C 45.445312 43.78125 47.730469 51.769531 49.132812 59.644531 L 49.105469 59.644531 C 42.207031 55.621094 35.839844 51.011719 32.03125 48.121094 C 28.136719 51.09375 21.605469 55.839844 14.914062 59.675781 L 14.914062 59.648438 L 14.910156 59.644531 C 16.414062 51.503906 18.621094 43.714844 20.0625 39.011719 C 16.164062 36.039062 9.863281 30.984375 4.324219 25.484375 L 4.347656 25.460938 L 4.347656 25.457031 C 12.175781 24.445312 19.894531 24.242188 24.59375 24.230469 C 26.085938 19.417969 28.71875 11.558594 31.988281 4.324219 Z M 31.984375 15.707031 C 31.984375 15.714844 31.984375 15.726562 31.976562 15.734375 L 31.976562 43.027344 L 32.023438 42.996094 L 34.335938 44.753906 C 36.21875 46.1875 39.855469 48.4375 42.753906 50.433594 C 41.835938 46.882812 40.941406 42.632812 40.207031 40.246094 L 39.328125 37.390625 L 41.636719 35.617188 C 43.511719 34.175781 46.671875 31.242188 49.375 28.960938 C 45.878906 28.78125 41.753906 28.363281 39.367188 28.363281 L 36.511719 28.351562 L 35.617188 25.496094 C 34.894531 23.179688 33.214844 19.113281 31.988281 15.707031 Z M 31.984375 15.707031 "/>
</g>
</svg>
