<svg xmlns="http://www.w3.org/2000/svg" xmlns:xlink="http://www.w3.org/1999/xlink" width="64px" height="64px" viewBox="0 0 64 64" version="1.1">
<defs>
<linearGradient id="linear0" gradientUnits="userSpaceOnUse" x1="0" y1="0" x2="0" y2="1" gradientTransform="matrix(55.351351,0,0,55.351351,4.324324,4.324324)">
<stop offset="0" style="stop-color:#05f7ff;stop-opacity:1;"/>
<stop offset="0.5" style="stop-color:#dddddd;stop-opacity:1;"/>
<stop offset="1" style="stop-color:#e6ff05;stop-opacity:1;"/>
</linearGradient>
</defs>
<g id="surface1">
<path style=" stroke:none;fill-rule:evenodd;fill:url(#linear0);" d="M 21.125 47.320312 C 21.125 45.957031 22.234375 44.847656 23.597656 44.847656 C 24.960938 44.847656 26.070312 45.957031 26.070312 47.320312 C 26.070312 48.6875 24.960938 49.792969 23.597656 49.792969 C 22.234375 49.792969 21.125 48.6875 21.125 47.320312 Z M 14.207031 47.320312 C 14.207031 45.957031 15.3125 44.847656 16.679688 44.847656 C 18.042969 44.847656 19.152344 45.957031 19.152344 47.320312 C 19.152344 48.6875 18.042969 49.792969 16.679688 49.792969 C 15.3125 49.792969 14.207031 48.6875 14.207031 47.320312 Z M 7.289062 47.320312 C 7.289062 45.957031 8.394531 44.847656 9.761719 44.847656 C 11.125 44.847656 12.234375 45.957031 12.234375 47.320312 C 12.234375 48.6875 11.125 49.792969 9.761719 49.792969 C 8.394531 49.792969 7.289062 48.6875 7.289062 47.320312 Z M 14.207031 28.539062 C 14.207031 27.175781 15.3125 26.070312 16.679688 26.070312 C 18.042969 26.070312 19.152344 27.175781 19.152344 28.539062 C 19.152344 29.90625 18.042969 31.011719 16.679688 31.011719 C 15.3125 31.011719 14.207031 29.90625 14.207031 28.539062 Z M 7.289062 28.539062 C 7.289062 27.175781 8.394531 26.070312 9.761719 26.070312 C 11.125 26.070312 12.234375 27.175781 12.234375 28.539062 C 12.234375 29.90625 11.125 31.011719 9.761719 31.011719 C 8.394531 31.011719 7.289062 29.90625 7.289062 28.539062 Z M 4.324219 36.1875 L 4.324219 27.8125 C 4.324219 25.214844 6.4375 23.105469 9.039062 23.105469 L 54.960938 23.105469 C 57.5625 23.105469 59.675781 25.214844 59.675781 27.8125 L 59.675781 36.1875 C 59.675781 38.785156 57.5625 40.894531 54.960938 40.894531 L 9.039062 40.894531 C 6.4375 40.894531 4.324219 38.785156 4.324219 36.1875 Z M 4.324219 54.960938 L 4.324219 46.597656 C 4.324219 43.996094 6.4375 41.882812 9.039062 41.882812 L 54.960938 41.882812 C 57.5625 41.882812 59.675781 43.996094 59.675781 46.597656 L 59.675781 54.960938 C 59.675781 57.5625 57.5625 59.675781 54.960938 59.675781 L 9.039062 59.675781 C 6.4375 59.675781 4.324219 57.5625 4.324219 54.960938 Z M 7.289062 9.761719 C 7.289062 8.394531 8.394531 7.289062 9.761719 7.289062 C 11.125 7.289062 12.234375 8.394531 12.234375 9.761719 C 12.234375 11.125 11.125 12.234375 9.761719 12.234375 C 8.394531 12.234375 7.289062 11.125 7.289062 9.761719 Z M 4.324219 17.402344 L 4.324219 9.039062 C 4.324219 6.4375 6.4375 4.324219 9.039062 4.324219 L 54.960938 4.324219 C 57.5625 4.324219 59.675781 6.4375 59.675781 9.039062 L 59.675781 17.402344 C 59.675781 20.003906 57.5625 22.117188 54.960938 22.117188 L 9.039062 22.117188 C 6.4375 22.117188 4.324219 20.003906 4.324219 17.402344 Z M 4.324219 17.402344 "/>
</g>
</svg>
