<svg xmlns="http://www.w3.org/2000/svg" xmlns:xlink="http://www.w3.org/1999/xlink" width="64px" height="64px" viewBox="0 0 64 64" version="1.1">
<defs>
<linearGradient id="linear0" gradientUnits="userSpaceOnUse" x1="0" y1="0" x2="0" y2="1" gradientTransform="matrix(41.513514,0,0,55.351351,11.243243,4.324324)">
<stop offset="0" style="stop-color:#ffae00;stop-opacity:1;"/>
<stop offset="0.5" style="stop-color:#dddddd;stop-opacity:1;"/>
<stop offset="1" style="stop-color:#bf1d1d;stop-opacity:1;"/>
</linearGradient>
</defs>
<g id="surface1">
<path style=" stroke:none;fill-rule:nonzero;fill:url(#linear0);" d="M 32 4.324219 C 26.28125 4.324219 21.621094 8.984375 21.621094 14.703125 L 21.621094 18.164062 L 15.027344 18.164062 C 12.933594 18.164062 11.242188 19.851562 11.242188 21.945312 L 11.242188 55.890625 C 11.242188 57.988281 12.933594 59.675781 15.027344 59.675781 L 48.972656 59.675781 C 51.066406 59.675781 52.757812 57.988281 52.757812 55.890625 L 52.757812 21.945312 C 52.757812 19.851562 51.066406 18.164062 48.972656 18.164062 L 42.378906 18.164062 L 42.378906 14.703125 C 42.378906 8.984375 37.71875 4.324219 32 4.324219 Z M 32 7.785156 C 35.863281 7.785156 38.917969 10.835938 38.917969 14.703125 L 38.917969 18.164062 L 25.082031 18.164062 L 25.082031 14.703125 C 25.082031 10.835938 28.136719 7.785156 32 7.785156 Z M 23.242188 21.621094 C 24.234375 21.621094 25.082031 22.394531 25.082031 23.351562 C 25.082031 24.308594 24.234375 25.082031 23.242188 25.082031 C 22.253906 25.082031 21.511719 24.308594 21.511719 23.351562 C 21.511719 22.394531 22.253906 21.621094 23.242188 21.621094 Z M 40.539062 21.621094 C 41.53125 21.621094 42.378906 22.394531 42.378906 23.351562 C 42.378906 24.308594 41.53125 25.082031 40.539062 25.082031 C 39.550781 25.082031 38.8125 24.308594 38.8125 23.351562 C 38.8125 22.394531 39.550781 21.621094 40.539062 21.621094 Z M 40.539062 21.621094 "/>
</g>
</svg>
