<svg xmlns="http://www.w3.org/2000/svg" xmlns:xlink="http://www.w3.org/1999/xlink" width="64px" height="64px" viewBox="0 0 64 64" version="1.1">
<g id="surface1">
<path style=" stroke:none;fill-rule:nonzero;fill:rgb(14.117648%,69.803923%,61.56863%);fill-opacity:1;" d="M 16.429688 9.511719 L 47.566406 9.511719 C 51.386719 9.511719 54.488281 12.613281 54.488281 16.433594 L 54.488281 47.570312 C 54.488281 51.390625 51.386719 54.488281 47.566406 54.488281 L 16.429688 54.488281 C 12.609375 54.488281 9.511719 51.390625 9.511719 47.570312 L 9.511719 16.433594 C 9.511719 12.613281 12.609375 9.511719 16.429688 9.511719 Z M 16.429688 9.511719 "/>
<path style=" stroke:none;fill-rule:nonzero;fill:rgb(100%,100%,100%);fill-opacity:1;" d="M 19.027344 19.027344 L 27.667969 19.035156 L 27.664062 27.675781 L 19.019531 27.667969 Z M 19.027344 19.027344 "/>
<path style=" stroke:none;fill-rule:nonzero;fill:rgb(100%,100%,100%);fill-opacity:1;" d="M 28.539062 19.027344 L 37.183594 19.035156 L 37.175781 27.675781 L 28.535156 27.667969 Z M 28.539062 19.027344 "/>
<path style=" stroke:none;fill-rule:nonzero;fill:rgb(100%,100%,100%);fill-opacity:1;" d="M 19.035156 28.535156 L 27.675781 28.539062 L 27.667969 37.183594 L 19.027344 37.175781 Z M 19.035156 28.535156 "/>
<path style=" stroke:none;fill-rule:nonzero;fill:rgb(100%,100%,100%);fill-opacity:1;" d="M 28.539062 28.539062 L 45.824219 28.554688 L 45.8125 45.835938 L 28.527344 45.824219 Z M 28.539062 28.539062 "/>
</g>
</svg>
