<svg xmlns="http://www.w3.org/2000/svg" xmlns:xlink="http://www.w3.org/1999/xlink" width="64px" height="64px" viewBox="0 0 64 64" version="1.1">
<defs>
<linearGradient id="linear0" gradientUnits="userSpaceOnUse" x1="0" y1="0" x2="0" y2="1" gradientTransform="matrix(50.369368,0,0,55.355858,6.815315,4.31982)">
<stop offset="0" style="stop-color:#00fff2;stop-opacity:1;"/>
<stop offset="0.5" style="stop-color:#dddddd;stop-opacity:1;"/>
<stop offset="1" style="stop-color:#0062ff;stop-opacity:1;"/>
</linearGradient>
</defs>
<g id="surface1">
<path style=" stroke:none;fill-rule:nonzero;fill:url(#linear0);" d="M 52.589844 4.367188 C 45.058594 3.960938 30.511719 6.085938 26.292969 11.078125 C 23.257812 15.441406 22.878906 32.527344 23.664062 31.472656 C 30.117188 22.800781 45.589844 12.089844 54.8125 7.78125 C 59.09375 5.78125 57.105469 4.617188 52.589844 4.367188 Z M 20.6875 13.941406 C 18.699219 14.273438 10.714844 19.738281 12.554688 29.542969 C 14.308594 34.554688 25.488281 41.210938 25.109375 39.960938 C 21.929688 29.613281 20.773438 22.9375 21.136719 14.113281 C 21.136719 13.949219 20.972656 13.890625 20.6875 13.941406 Z M 42.527344 18.460938 C 37.1875 18.847656 27.800781 27.835938 29.121094 27.789062 C 40.03125 27.414062 46.851562 28.039062 55.363281 30.652344 C 56.625 31.042969 54.011719 19.339844 42.527344 18.460938 Z M 36.761719 27.769531 C 36.484375 27.785156 36.363281 27.851562 36.460938 27.988281 C 42.699219 36.863281 45.867188 42.875 48.269531 51.378906 C 48.625 52.636719 57.125 44.109375 51.636719 34.082031 L 51.636719 34.078125 C 48.824219 30.367188 38.734375 27.671875 36.761719 27.769531 Z M 7.753906 29.40625 C 6.679688 29.960938 4.730469 40.53125 14.011719 45.996094 C 18.96875 47.988281 31.402344 44.050781 30.191406 43.511719 C 20.242188 39.0625 14.414062 35.511719 7.949219 29.433594 C 7.890625 29.378906 7.820312 29.367188 7.753906 29.40625 Z M 39.996094 34.886719 C 39.933594 34.867188 39.890625 34.902344 39.875 34.976562 C 37.117188 45.441406 34.5625 51.730469 29.59375 59.0625 C 28.863281 60.144531 40.929688 61.011719 45.0625 50.363281 C 46.144531 45.511719 40.921875 35.121094 39.996094 34.886719 Z M 36.867188 41.539062 C 27.023438 46.207031 20.523438 48.335938 11.664062 49.3125 C 10.351562 49.457031 17.472656 59.136719 28.351562 55.402344 C 33.089844 52.9375 38.0625 40.976562 36.867188 41.539062 Z M 36.867188 41.539062 "/>
</g>
</svg>
