<svg xmlns="http://www.w3.org/2000/svg" xmlns:xlink="http://www.w3.org/1999/xlink" width="64px" height="64px" viewBox="0 0 64 64" version="1.1">
<defs>
<linearGradient id="linear0" gradientUnits="userSpaceOnUse" x1="0" y1="0" x2="0" y2="1" gradientTransform="matrix(42.148649,0,0,55.351351,10.923423,4.324324)">
<stop offset="0" style="stop-color:#ffae00;stop-opacity:1;"/>
<stop offset="0.5" style="stop-color:#dddddd;stop-opacity:1;"/>
<stop offset="1" style="stop-color:#6600ff;stop-opacity:1;"/>
</linearGradient>
</defs>
<g id="surface1">
<path style=" stroke:none;fill-rule:nonzero;fill:url(#linear0);" d="M 18.449219 4.335938 C 18.289062 4.230469 16.941406 5.125 15.863281 6.042969 C 14.363281 7.328125 12.8125 9.5 12.015625 11.4375 C 10.789062 14.417969 10.582031 18.09375 11.472656 21.207031 C 12.027344 23.136719 13.789062 26.328125 14.292969 26.3125 C 14.410156 26.308594 14.789062 25.957031 15.136719 25.53125 C 15.488281 25.105469 15.785156 24.703125 15.785156 24.636719 C 15.785156 24.570312 15.539062 24.117188 15.234375 23.625 C 14.539062 22.5 14.023438 21.257812 13.6875 19.902344 C 13.324219 18.417969 13.3125 15.988281 13.679688 14.503906 C 14.40625 11.558594 16.066406 9.097656 18.542969 7.296875 C 19.105469 6.894531 19.558594 6.550781 19.558594 6.53125 C 19.558594 6.402344 18.542969 4.390625 18.449219 4.335938 Z M 36.40625 4.582031 C 33.152344 4.511719 29.769531 5.703125 27.320312 7.292969 C 26.121094 8.085938 26.246094 8.320312 27.503906 7.644531 C 29.59375 6.515625 31.636719 6.070312 34.714844 6.066406 C 38.660156 6.0625 40.851562 6.675781 43.121094 8.417969 L 44.085938 9.152344 L 45.308594 9.164062 C 45.984375 9.171875 46.808594 9.21875 47.144531 9.273438 C 48.027344 9.414062 48.160156 9.414062 48.230469 9.292969 C 48.394531 9 45.597656 6.949219 43.976562 6.164062 C 41.503906 4.914062 38.882812 4.636719 36.40625 4.582031 Z M 21.0625 8.375 C 20.773438 8.375 19.503906 8.894531 18.597656 9.851562 C 17.136719 11.394531 16.210938 13.230469 15.808594 15.367188 C 15.394531 17.53125 15.753906 20.3125 16.679688 22.164062 C 17.152344 23.113281 17.625 23.835938 17.769531 23.835938 C 17.839844 23.835938 18.136719 23.542969 18.4375 23.191406 C 19.414062 22.042969 19.375 22.234375 18.882812 21.179688 C 18.230469 19.792969 18.015625 18.855469 18.015625 17.378906 C 18.015625 14.660156 19.320312 12.011719 21.40625 10.496094 C 21.773438 10.230469 22.078125 9.914062 22.078125 9.792969 C 22.089844 9.460938 21.246094 8.375 21.0625 8.375 Z M 26.8125 12.027344 C 23.382812 12.027344 20.605469 14.800781 20.605469 18.230469 C 20.605469 21.660156 23.382812 24.433594 26.8125 24.433594 C 30.238281 24.433594 33.015625 21.660156 33.015625 18.230469 C 33.015625 14.800781 30.238281 12.027344 26.8125 12.027344 Z M 44.1875 12.027344 C 40.757812 12.027344 37.976562 14.800781 37.976562 18.230469 C 37.976562 21.660156 40.757812 24.433594 44.1875 24.433594 C 47.613281 24.433594 50.386719 21.660156 50.386719 18.230469 C 50.386719 14.800781 47.613281 12.027344 44.1875 12.027344 Z M 26.808594 14.503906 C 28.863281 14.503906 30.53125 16.171875 30.53125 18.230469 C 30.53125 20.285156 28.863281 21.957031 26.808594 21.957031 C 24.753906 21.957031 23.089844 20.285156 23.089844 18.230469 C 23.089844 16.171875 24.753906 14.503906 26.808594 14.503906 Z M 44.179688 14.503906 C 46.234375 14.503906 47.90625 16.171875 47.90625 18.230469 C 47.90625 20.285156 46.234375 21.957031 44.179688 21.957031 C 42.125 21.957031 40.460938 20.285156 40.460938 18.230469 C 40.460938 16.171875 42.125 14.503906 44.179688 14.503906 Z M 26.515625 15.917969 C 26.210938 15.933594 25.9375 15.976562 25.890625 16.023438 C 25.855469 16.058594 25.878906 16.273438 25.941406 16.511719 C 26.164062 17.300781 25.710938 17.796875 24.96875 17.570312 C 24.769531 17.511719 24.59375 17.5 24.539062 17.550781 C 24.488281 17.597656 24.46875 17.960938 24.488281 18.363281 C 24.515625 18.960938 24.582031 19.164062 24.800781 19.5 C 25.097656 19.949219 25.6875 20.378906 26.171875 20.503906 C 26.648438 20.625 27.445312 20.539062 27.878906 20.3125 C 29.042969 19.714844 29.484375 18.257812 28.847656 17.089844 C 28.539062 16.523438 27.910156 16.039062 27.355469 15.933594 C 27.164062 15.894531 26.828125 15.902344 26.515625 15.917969 Z M 43.890625 15.917969 C 43.585938 15.933594 43.3125 15.976562 43.265625 16.023438 C 43.230469 16.058594 43.253906 16.273438 43.3125 16.511719 C 43.539062 17.300781 43.085938 17.796875 42.339844 17.570312 C 42.144531 17.511719 41.96875 17.5 41.914062 17.550781 C 41.863281 17.597656 41.839844 17.960938 41.863281 18.363281 C 41.890625 18.960938 41.957031 19.164062 42.171875 19.5 C 42.472656 19.949219 43.058594 20.378906 43.542969 20.503906 C 44.023438 20.625 44.820312 20.539062 45.246094 20.3125 C 46.417969 19.714844 46.855469 18.257812 46.214844 17.089844 C 45.910156 16.523438 45.285156 16.039062 44.726562 15.933594 C 44.539062 15.894531 44.203125 15.902344 43.890625 15.917969 Z M 35.496094 19.46875 C 34.664062 19.46875 34.179688 19.835938 33.796875 20.753906 C 33.46875 21.539062 33.664062 23.40625 34.214844 24.726562 C 34.527344 25.476562 35.390625 26.914062 35.527344 26.914062 C 35.570312 26.914062 35.773438 26.6875 35.972656 26.40625 C 36.769531 25.285156 37.335938 23.367188 37.355469 21.734375 C 37.363281 20.882812 37.347656 20.785156 37.0625 20.351562 C 36.644531 19.71875 36.199219 19.46875 35.496094 19.46875 Z M 52.957031 21.347656 C 52.863281 21.367188 51.988281 22.152344 51.023438 23.089844 L 49.261719 24.796875 L 49.1875 26.636719 C 48.824219 35 45.988281 41.789062 40.644531 47.082031 C 36.609375 51.082031 30.515625 54.378906 24.285156 55.894531 C 22.375 56.363281 17.597656 57.050781 17.4375 56.886719 C 17.363281 56.8125 17.472656 56.539062 17.757812 56.113281 C 18.8125 54.527344 19.632812 52.457031 20.023438 50.410156 C 20.410156 48.390625 20.449219 47.011719 20.214844 44.097656 C 19.960938 40.894531 20.027344 38.730469 20.382812 37.066406 C 20.890625 34.691406 21.914062 32.820312 23.242188 31.820312 C 24.863281 30.605469 26.375 30.0625 28.164062 30.0625 C 32.238281 30.0625 36.351562 32.914062 37.179688 36.765625 C 37.429688 37.945312 37.328125 40.558594 36.984375 42.292969 C 36.171875 46.320312 33.582031 49.214844 30.542969 51.789062 C 29.96875 52.28125 29.296875 52.863281 29.058594 53.082031 L 28.625 53.484375 L 28.996094 53.347656 C 29.191406 53.269531 29.90625 52.882812 30.578125 52.488281 C 35.621094 49.476562 38.945312 46.421875 40.023438 41.324219 C 40.351562 39.761719 40.488281 36.921875 40.28125 35.71875 C 39.941406 33.765625 38.761719 31.707031 37.0625 30.113281 C 33.558594 26.8125 28.160156 26.042969 23.742188 28.109375 C 21.476562 29.171875 19.511719 30.949219 18.550781 32.8125 C 16.96875 35.886719 16.699219 38.839844 17.710938 44.097656 C 18.054688 45.875 18.210938 47.257812 18.210938 48.484375 C 18.210938 52.390625 16.839844 56.089844 14.386719 58.792969 C 14.011719 59.207031 13.703125 59.570312 13.703125 59.609375 C 13.703125 59.734375 14 59.691406 15.457031 59.378906 C 16.230469 59.210938 18.03125 58.910156 19.457031 58.707031 C 24.921875 57.921875 28.828125 56.746094 33.378906 54.503906 C 39 51.726562 43.402344 48.011719 46.757812 43.292969 C 50.1875 38.460938 52.339844 32.292969 52.863281 25.773438 C 53.113281 22.679688 53.136719 21.300781 52.957031 21.347656 Z M 52.957031 21.347656 "/>
</g>
</svg>
