<svg xmlns="http://www.w3.org/2000/svg" xmlns:xlink="http://www.w3.org/1999/xlink" width="64px" height="64px" viewBox="0 0 64 64" version="1.1">
<defs>
<linearGradient id="linear0" gradientUnits="userSpaceOnUse" x1="0" y1="0" x2="0" y2="1" gradientTransform="matrix(32.864865,0,0,47.73874,15.567568,8.477477)">
<stop offset="0" style="stop-color:#00a2ff;stop-opacity:1;"/>
<stop offset="0.5" style="stop-color:#dddddd;stop-opacity:1;"/>
<stop offset="1" style="stop-color:#00ffae;stop-opacity:1;"/>
</linearGradient>
</defs>
<g id="surface1">
<path style=" stroke:none;fill-rule:nonzero;fill:url(#linear0);" d="M 27.203125 42 C 28.265625 41.621094 30.457031 42.121094 30.863281 44.234375 C 32.21875 42.503906 32.828125 40.335938 30.203125 38.3125 C 29.53125 37.792969 28.558594 37.253906 27.355469 37 C 25.355469 36.582031 24.164062 36.605469 22.527344 37.488281 C 20.894531 38.375 19.648438 40.261719 19.460938 41.605469 C 19.148438 43.78125 20.039062 48.1875 23.1875 50.8125 C 26.402344 54.070312 31.511719 54.300781 33.273438 54.105469 C 41.761719 53.136719 47.761719 45.632812 41.609375 38.3125 C 39.449219 35.902344 36.015625 34.554688 33.273438 33.269531 C 28.3125 30.949219 23.679688 29.472656 20.996094 27.132812 C 18.402344 24.863281 17.566406 21.863281 17.921875 18.578125 C 18.253906 15.578125 20.058594 13.015625 22.089844 11.339844 C 26.699219 7.542969 33.511719 7.644531 40.511719 10.90625 L 44.460938 10.027344 C 44.949219 10.175781 45.320312 10.621094 45.554688 11.339844 C 45.652344 11.847656 45.039062 12.328125 45.113281 12.800781 C 46.90625 18.730469 45.410156 22.910156 41.609375 24.058594 L 40.511719 23.621094 C 41.820312 20.882812 41.820312 18.253906 40.511719 15.726562 C 37.632812 12.246094 34.414062 10.566406 30.863281 10.6875 C 19.773438 11.054688 20.367188 22.394531 29.324219 24.941406 C 30.691406 25.632812 37.429688 27.984375 39.632812 29.0625 C 42.648438 30.539062 44.769531 32.089844 45.988281 33.707031 C 49.589844 39.761719 49.3125 47.382812 44.460938 52.125 C 39.660156 56.820312 29.785156 57.261719 22.089844 54.539062 L 18.363281 55.199219 C 17.675781 55.160156 17.242188 54.941406 17.050781 54.539062 L 16.828125 50.8125 C 13.1875 42.847656 17.957031 35.1875 24.503906 34.808594 C 27.921875 34.609375 32.097656 36.609375 33.273438 39.625 C 34.460938 42.671875 32.160156 46.671875 30.203125 47.523438 C 28.246094 48.375 24.835938 46.796875 25.378906 44.234375 C 25.59375 43.207031 26.339844 42.300781 27.203125 42 Z M 27.203125 42 "/>
</g>
</svg>
