<svg xmlns="http://www.w3.org/2000/svg" xmlns:xlink="http://www.w3.org/1999/xlink" width="64px" height="64px" viewBox="0 0 64 64" version="1.1">
<defs>
<linearGradient id="linear0" gradientUnits="userSpaceOnUse" x1="0" y1="0" x2="0" y2="1" gradientTransform="matrix(55.351351,0,0,55.351351,4.324324,4.324324)">
<stop offset="0" style="stop-color:#ffae00;stop-opacity:1;"/>
<stop offset="0.5" style="stop-color:#dddddd;stop-opacity:1;"/>
<stop offset="1" style="stop-color:#bf1d1d;stop-opacity:1;"/>
</linearGradient>
</defs>
<g id="surface1">
<path style=" stroke:none;fill-rule:evenodd;fill:url(#linear0);" d="M 18.164062 32 C 10.515625 32 4.324219 25.808594 4.324219 18.164062 C 4.324219 10.515625 10.515625 4.324219 18.164062 4.324219 C 25.808594 4.324219 32 10.515625 32 18.164062 C 32 10.515625 38.191406 4.324219 45.835938 4.324219 C 53.484375 4.324219 59.675781 10.515625 59.675781 18.164062 C 59.675781 25.808594 53.484375 32 45.835938 32 C 53.484375 32 59.675781 38.191406 59.675781 45.835938 C 59.675781 53.484375 53.484375 59.675781 45.835938 59.675781 C 38.191406 59.675781 32 53.484375 32 45.835938 C 32 53.484375 25.808594 59.675781 18.164062 59.675781 C 10.515625 59.675781 4.324219 53.484375 4.324219 45.835938 C 4.324219 38.191406 10.515625 32 18.164062 32 Z M 42.875 32 C 42.875 38.003906 38.003906 42.875 32 42.875 C 25.996094 42.875 21.125 38.003906 21.125 32 C 21.125 25.996094 25.996094 21.125 32 21.125 C 38.003906 21.125 42.875 25.996094 42.875 32 Z M 42.875 32 "/>
</g>
</svg>
