<svg xmlns="http://www.w3.org/2000/svg" xmlns:xlink="http://www.w3.org/1999/xlink" width="64px" height="64px" viewBox="0 0 64 64" version="1.1">
<defs>
<linearGradient id="linear0" gradientUnits="userSpaceOnUse" x1="0" y1="0" x2="0" y2="1" gradientTransform="matrix(55.351351,0,0,34.594595,4.324324,14.702703)">
<stop offset="0" style="stop-color:#00b7ff;stop-opacity:1;"/>
<stop offset="0.5" style="stop-color:#dddddd;stop-opacity:1;"/>
<stop offset="1" style="stop-color:#ee42d9;stop-opacity:1;"/>
</linearGradient>
</defs>
<g id="surface1">
<path style=" stroke:none;fill-rule:nonzero;fill:url(#linear0);" d="M 14.703125 14.703125 C 12.429688 14.703125 10.625 14.910156 9.109375 15.484375 C 7.589844 16.050781 6.375 17.078125 5.652344 18.378906 C 4.21875 20.984375 4.375 24.164062 4.324219 28.515625 L 4.324219 35.484375 C 4.375 39.835938 4.214844 43.015625 5.652344 45.621094 C 6.375 46.921875 7.589844 47.949219 9.109375 48.523438 C 10.625 49.089844 12.429688 49.296875 14.703125 49.296875 L 35.460938 49.296875 C 37.734375 49.296875 39.539062 49.089844 41.054688 48.523438 C 42.570312 47.949219 43.789062 46.921875 44.503906 45.621094 C 45.886719 43.117188 45.789062 40.023438 45.824219 35.921875 C 51.203125 38.988281 56.082031 41.648438 59.675781 43.351562 L 59.675781 20.648438 C 56.152344 22.320312 51.261719 24.988281 45.824219 28.082031 C 45.789062 23.984375 45.886719 20.882812 44.503906 18.378906 C 43.789062 17.078125 42.570312 16.050781 41.054688 15.484375 C 39.539062 14.910156 37.734375 14.703125 35.460938 14.703125 Z M 14.703125 18.164062 L 35.460938 18.164062 C 37.511719 18.164062 38.9375 18.378906 39.835938 18.714844 C 40.738281 19.054688 41.121094 19.414062 41.472656 20.050781 C 42.171875 21.3125 42.328125 24.1875 42.378906 28.539062 L 42.378906 35.4375 C 42.328125 39.8125 42.171875 42.675781 41.472656 43.945312 C 41.121094 44.582031 40.738281 44.945312 39.835938 45.285156 C 38.9375 45.621094 37.511719 45.835938 35.460938 45.835938 L 14.703125 45.835938 C 12.652344 45.835938 11.226562 45.621094 10.324219 45.285156 C 9.421875 44.945312 9.039062 44.582031 8.6875 43.945312 C 7.988281 42.679688 7.835938 39.8125 7.785156 35.460938 L 7.785156 28.539062 C 7.835938 24.1875 7.988281 21.3125 8.6875 20.050781 C 9.039062 19.414062 9.421875 19.054688 10.324219 18.714844 C 11.226562 18.378906 12.652344 18.164062 14.703125 18.164062 Z M 14.703125 18.164062 "/>
</g>
</svg>
