<svg xmlns="http://www.w3.org/2000/svg" xmlns:xlink="http://www.w3.org/1999/xlink" width="64px" height="64px" viewBox="0 0 64 64" version="1.1">
<defs>
<linearGradient id="linear0" gradientUnits="userSpaceOnUse" x1="0" y1="0" x2="0" y2="1" gradientTransform="matrix(44.972973,0,0,55.351351,9.513514,4.324324)">
<stop offset="0" style="stop-color:#ffae00;stop-opacity:1;"/>
<stop offset="0.5" style="stop-color:#dddddd;stop-opacity:1;"/>
<stop offset="1" style="stop-color:#bf1d1d;stop-opacity:1;"/>
</linearGradient>
</defs>
<g id="surface1">
<path style=" stroke:none;fill-rule:evenodd;fill:url(#linear0);" d="M 26.539062 31.976562 C 26.027344 31.386719 25.496094 30.824219 24.957031 30.261719 C 24.339844 29.648438 23.699219 29.058594 23.03125 28.515625 C 22.449219 28.03125 21.839844 27.609375 21.207031 27.226562 C 20.6875 26.914062 20.136719 26.664062 19.558594 26.460938 C 19.109375 26.3125 18.648438 26.246094 18.175781 26.234375 L 18.164062 26.234375 C 18.152344 26.234375 18.152344 26.234375 18.136719 26.234375 C 17.320312 26.21875 16.5 26.40625 15.765625 26.765625 C 15.164062 27.078125 14.636719 27.527344 14.234375 28.082031 C 13.800781 28.644531 13.484375 29.292969 13.285156 29.96875 C 13.078125 30.625 12.972656 31.308594 12.972656 32 C 12.972656 32.691406 13.078125 33.375 13.285156 34.03125 C 13.484375 34.707031 13.800781 35.355469 14.234375 35.917969 C 14.636719 36.472656 15.164062 36.921875 15.765625 37.234375 C 16.5 37.59375 17.320312 37.78125 18.136719 37.765625 C 18.613281 37.765625 19.078125 37.6875 19.527344 37.539062 C 20.097656 37.335938 20.652344 37.085938 21.171875 36.773438 C 21.808594 36.390625 22.417969 35.96875 22.996094 35.496094 C 23.664062 34.941406 24.296875 34.351562 24.910156 33.738281 C 25.476562 33.164062 26.011719 32.578125 26.539062 31.976562 Z M 47.566406 10.632812 C 47.578125 10.179688 47.765625 9.742188 48.097656 9.417969 C 48.421875 9.097656 48.875 8.921875 49.335938 8.941406 C 49.785156 8.949219 50.21875 9.136719 50.539062 9.46875 C 50.863281 9.789062 51.039062 10.238281 51.027344 10.699219 C 51.015625 11.164062 50.960938 11.621094 50.855469 12.070312 C 50.738281 12.558594 50.605469 13.039062 50.429688 13.515625 C 50.039062 14.609375 49.5625 15.691406 49.042969 16.742188 C 47.8125 19.226562 46.460938 21.632812 45.011719 23.988281 C 43.363281 26.707031 41.636719 29.382812 39.851562 32.011719 C 41.636719 34.6875 43.363281 37.394531 45.011719 40.152344 C 46.460938 42.503906 47.796875 44.929688 49.042969 47.394531 C 49.5625 48.421875 50.023438 49.484375 50.429688 50.5625 C 50.585938 51.015625 50.726562 51.476562 50.839844 51.945312 C 50.960938 52.378906 51.015625 52.824219 51.027344 53.273438 C 51.027344 53.289062 51.027344 53.300781 51.027344 53.320312 L 51.027344 53.347656 C 51.027344 53.808594 50.839844 54.242188 50.515625 54.566406 C 50.1875 54.886719 49.746094 55.058594 49.289062 55.058594 C 48.835938 55.058594 48.386719 54.878906 48.066406 54.554688 C 47.738281 54.21875 47.566406 53.78125 47.566406 53.320312 C 47.566406 53.136719 47.53125 52.960938 47.488281 52.78125 C 47.40625 52.445312 47.300781 52.097656 47.175781 51.765625 C 46.8125 50.8125 46.414062 49.863281 45.957031 48.949219 C 44.757812 46.5625 43.449219 44.21875 42.058594 41.957031 C 40.027344 38.5625 37.894531 35.242188 35.664062 31.988281 C 37.90625 28.792969 40.039062 25.523438 42.058594 22.1875 C 43.460938 19.914062 44.757812 17.585938 45.957031 15.199219 C 46.414062 14.28125 46.8125 13.320312 47.175781 12.335938 C 47.300781 11.996094 47.40625 11.636719 47.488281 11.28125 C 47.53125 11.070312 47.566406 10.851562 47.566406 10.632812 Z M 47.566406 53.320312 L 47.566406 53.300781 L 47.566406 53.347656 C 47.566406 53.328125 47.566406 53.328125 47.566406 53.320312 Z M 28.738281 29.242188 C 28.761719 29.21875 28.785156 29.1875 28.808594 29.164062 C 30.132812 27.386719 31.363281 25.566406 32.53125 23.671875 C 34.746094 20.136719 36.703125 16.433594 38.414062 12.617188 C 39.042969 11.207031 39.613281 9.78125 40.105469 8.328125 C 40.285156 7.835938 40.417969 7.324219 40.539062 6.8125 C 40.605469 6.554688 40.636719 6.285156 40.648438 6.011719 C 40.660156 5.542969 40.855469 5.109375 41.191406 4.796875 C 41.527344 4.488281 41.960938 4.3125 42.421875 4.324219 C 42.886719 4.335938 43.324219 4.53125 43.636719 4.867188 C 43.949219 5.203125 44.121094 5.636719 44.109375 6.097656 C 44.097656 6.621094 44.027344 7.136719 43.902344 7.636719 C 43.753906 8.246094 43.589844 8.847656 43.382812 9.433594 C 42.863281 11 42.253906 12.53125 41.570312 14.039062 C 39.808594 17.988281 37.765625 21.820312 35.472656 25.503906 C 34.261719 27.46875 32.96875 29.367188 31.585938 31.230469 C 31.402344 31.46875 31.203125 31.726562 31.023438 31.976562 C 31.230469 32.242188 31.429688 32.511719 31.621094 32.785156 C 33.003906 34.632812 34.296875 36.53125 35.511719 38.503906 C 37.792969 42.179688 39.820312 46.011719 41.582031 49.960938 C 42.265625 51.476562 42.863281 53.011719 43.394531 54.566406 C 43.589844 55.152344 43.761719 55.757812 43.902344 56.363281 C 44.027344 56.875 44.097656 57.378906 44.109375 57.902344 C 44.121094 58.363281 43.949219 58.796875 43.636719 59.132812 C 43.324219 59.46875 42.886719 59.664062 42.421875 59.675781 C 41.960938 59.6875 41.527344 59.511719 41.191406 59.203125 C 40.855469 58.890625 40.660156 58.457031 40.648438 57.988281 C 40.636719 57.714844 40.605469 57.445312 40.539062 57.1875 C 40.417969 56.664062 40.285156 56.164062 40.105469 55.671875 C 39.625 54.210938 39.058594 52.78125 38.421875 51.382812 C 36.730469 47.566406 34.765625 43.863281 32.566406 40.3125 C 31.402344 38.433594 30.164062 36.613281 28.839844 34.835938 C 28.8125 34.792969 28.785156 34.742188 28.746094 34.699219 C 28.296875 35.191406 27.835938 35.6875 27.378906 36.164062 C 26.6875 36.867188 25.960938 37.539062 25.1875 38.160156 C 24.484375 38.746094 23.730469 39.265625 22.949219 39.738281 C 22.210938 40.1875 21.4375 40.542969 20.617188 40.8125 C 19.835938 41.070312 19.015625 41.210938 18.1875 41.226562 C 16.800781 41.246094 15.441406 40.9375 14.207031 40.328125 C 13.125 39.761719 12.175781 38.960938 11.449219 37.996094 C 10.785156 37.09375 10.289062 36.09375 9.960938 35.039062 C 9.664062 34.050781 9.511719 33.027344 9.511719 32 C 9.511719 30.972656 9.664062 29.949219 9.960938 28.960938 C 10.289062 27.90625 10.785156 26.90625 11.449219 26.003906 C 12.175781 25.039062 13.125 24.238281 14.207031 23.671875 C 15.441406 23.0625 16.800781 22.753906 18.175781 22.773438 C 18.1875 22.773438 18.199219 22.773438 18.199219 22.773438 C 19.027344 22.789062 19.855469 22.929688 20.652344 23.1875 C 21.460938 23.457031 22.242188 23.8125 22.988281 24.261719 C 23.765625 24.726562 24.515625 25.253906 25.234375 25.839844 C 25.996094 26.460938 26.71875 27.132812 27.421875 27.835938 C 27.875 28.296875 28.3125 28.769531 28.738281 29.242188 Z M 54.441406 43.730469 C 54.542969 44.164062 54.460938 44.636719 54.21875 45.03125 C 53.976562 45.414062 53.585938 45.6875 53.136719 45.792969 C 52.699219 45.894531 52.226562 45.8125 51.835938 45.570312 C 51.449219 45.328125 51.175781 44.9375 51.070312 44.488281 C 50.988281 44.144531 50.878906 43.796875 50.714844 43.472656 C 50.472656 42.910156 50.199219 42.367188 49.910156 41.824219 C 49.191406 40.488281 48.421875 39.171875 47.617188 37.890625 C 46.382812 35.882812 45.078125 33.929688 43.742188 32 C 45.078125 30.070312 46.382812 28.117188 47.617188 26.109375 C 48.421875 24.828125 49.191406 23.511719 49.910156 22.175781 C 50.199219 21.632812 50.472656 21.089844 50.714844 20.527344 C 50.878906 20.203125 50.988281 19.855469 51.070312 19.511719 C 51.175781 19.0625 51.449219 18.671875 51.835938 18.429688 C 52.226562 18.1875 52.699219 18.105469 53.136719 18.207031 C 53.585938 18.3125 53.976562 18.585938 54.21875 18.96875 C 54.460938 19.363281 54.542969 19.835938 54.441406 20.269531 C 54.3125 20.863281 54.117188 21.414062 53.875 21.957031 C 53.585938 22.589844 53.289062 23.210938 52.957031 23.824219 C 52.203125 25.21875 51.394531 26.59375 50.539062 27.941406 C 49.703125 29.3125 48.824219 30.664062 47.921875 32 C 48.824219 33.335938 49.703125 34.6875 50.539062 36.058594 C 51.394531 37.40625 52.203125 38.78125 52.957031 40.175781 C 53.289062 40.789062 53.585938 41.410156 53.875 42.042969 C 54.117188 42.585938 54.3125 43.136719 54.441406 43.730469 Z M 54.441406 43.730469 "/>
</g>
</svg>
