<svg xmlns="http://www.w3.org/2000/svg" xmlns:xlink="http://www.w3.org/1999/xlink" width="64px" height="64px" viewBox="0 0 64 64" version="1.1">
<defs>
<linearGradient id="linear0" gradientUnits="userSpaceOnUse" x1="428.570007" y1="543.799988" x2="388.570007" y2="503.799988" gradientTransform="matrix(1.167568,0,0,1.167568,-445.03352,-579.571896)">
<stop offset="0" style="stop-color:rgb(16.470589%,17.254902%,18.431373%);stop-opacity:1;"/>
<stop offset="0.5" style="stop-color:#dddddd;stop-opacity:1;"/>
<stop offset="1" style="stop-color:rgb(25.882354%,27.450982%,28.627452%);stop-opacity:1;"/>
</linearGradient>
</defs>
<g id="surface1">
<path style=" stroke:none;fill-rule:nonzero;fill:rgb(19.215687%,20%,21.176471%);fill-opacity:1;" d="M 55.351562 32 C 55.351562 44.894531 44.894531 55.351562 32 55.351562 C 19.101562 55.351562 8.648438 44.894531 8.648438 32 C 8.648438 19.105469 19.101562 8.648438 32 8.648438 C 44.894531 8.648438 55.351562 19.105469 55.351562 32 Z M 55.351562 32 "/>
<path style=" stroke:none;fill-rule:evenodd;fill:url(#linear0);" d="M 30.867188 44.1875 L 21.960938 31.277344 L 21.488281 25.144531 L 27.730469 24.414062 L 32.109375 18.542969 L 36.996094 25.148438 L 42.652344 25.914062 L 39.988281 35.144531 L 32.875 44.15625 Z M 30.867188 44.1875 "/>
<path style=" stroke:none;fill-rule:nonzero;fill:rgb(83.137256%,83.529413%,83.92157%);fill-opacity:1;" d="M 32 10.984375 C 20.390625 10.984375 10.984375 20.390625 10.984375 32 C 10.984375 43.609375 20.390625 53.015625 32 53.015625 C 43.609375 53.015625 53.015625 43.609375 53.015625 32 C 53.015625 20.390625 43.609375 10.984375 32 10.984375 M 32 13.316406 C 40.960938 13.324219 48.65625 19.695312 50.335938 28.496094 L 46.011719 28.496094 C 45.363281 28.496094 44.839844 29.015625 44.839844 29.664062 C 44.839844 30.3125 45.363281 30.832031 46.011719 30.832031 L 50.636719 30.832031 C 50.664062 31.21875 50.679688 31.613281 50.679688 32 C 50.671875 32.386719 50.652344 32.78125 50.621094 33.167969 L 46.011719 33.167969 C 45.363281 33.167969 44.839844 33.6875 44.839844 34.335938 C 44.839844 34.984375 45.363281 35.503906 46.011719 35.503906 L 50.339844 35.503906 C 48.660156 44.308594 40.960938 50.675781 32 50.683594 C 23.039062 50.675781 15.34375 44.304688 13.664062 35.503906 L 17.988281 35.503906 C 18.636719 35.503906 19.15625 34.984375 19.15625 34.335938 C 19.15625 33.6875 18.636719 33.167969 17.988281 33.167969 L 13.363281 33.167969 C 13.335938 32.78125 13.320312 32.386719 13.316406 32 C 13.328125 31.613281 13.34375 31.21875 13.378906 30.832031 L 17.988281 30.832031 C 18.636719 30.832031 19.15625 30.3125 19.15625 29.664062 C 19.15625 29.015625 18.636719 28.496094 17.988281 28.496094 L 13.660156 28.496094 C 15.335938 19.691406 23.039062 13.324219 32 13.316406 M 32 17.988281 C 31.21875 17.988281 30.492188 18.210938 29.933594 18.613281 C 29.386719 19.023438 29.03125 19.5625 28.765625 20.09375 C 28.238281 21.15625 27.964844 22.277344 27.457031 23.304688 C 27.261719 23.679688 27.203125 23.675781 27.078125 23.710938 C 26.953125 23.75 26.644531 23.761719 26.1875 23.691406 C 25.25 23.5625 23.722656 23.160156 22.136719 23.957031 C 21.238281 24.398438 20.648438 25.246094 20.40625 26.140625 C 20.152344 27.035156 20.175781 27.988281 20.335938 28.980469 C 20.667969 30.960938 21.609375 33.109375 22.859375 34.984375 C 23.980469 36.660156 25.441406 39.296875 26.941406 41.550781 C 27.691406 42.671875 28.445312 43.699219 29.230469 44.507812 C 30.011719 45.3125 30.832031 46.011719 32 46.011719 C 33.164062 46.011719 33.984375 45.3125 34.765625 44.507812 C 35.546875 43.699219 36.308594 42.671875 37.058594 41.550781 C 38.558594 39.296875 40.027344 36.660156 41.144531 34.984375 C 42.394531 33.109375 43.332031 30.960938 43.660156 28.980469 C 43.828125 27.988281 43.835938 27.035156 43.59375 26.140625 C 43.347656 25.246094 42.761719 24.398438 41.863281 23.957031 C 40.277344 23.160156 38.746094 23.5625 37.816406 23.691406 C 37.351562 23.761719 37.042969 23.75 36.914062 23.710938 C 36.796875 23.675781 36.738281 23.679688 36.546875 23.304688 C 36.035156 22.277344 35.761719 21.15625 35.234375 20.09375 C 34.964844 19.5625 34.613281 19.023438 34.0625 18.613281 C 33.507812 18.210938 32.777344 17.988281 32 17.988281 M 32 29.664062 C 32.644531 29.664062 33.164062 30.1875 33.164062 30.832031 L 33.164062 37.835938 C 33.164062 38.484375 32.644531 39.007812 32 39.007812 C 31.351562 39.007812 30.832031 38.484375 30.832031 37.835938 L 30.832031 30.832031 C 30.832031 30.1875 31.351562 29.664062 32 29.664062 "/>
</g>
</svg>
