<svg xmlns="http://www.w3.org/2000/svg" xmlns:xlink="http://www.w3.org/1999/xlink" width="64px" height="64px" viewBox="0 0 64 64" version="1.1">
<defs>
<linearGradient id="linear0" gradientUnits="userSpaceOnUse" x1="0" y1="0" x2="0" y2="1" gradientTransform="matrix(55.351351,0,0,32.747747,4.324324,15.626126)">
<stop offset="0" style="stop-color:#00fff2;stop-opacity:1;"/>
<stop offset="0.5" style="stop-color:#dddddd;stop-opacity:1;"/>
<stop offset="1" style="stop-color:#0062ff;stop-opacity:1;"/>
</linearGradient>
</defs>
<g id="surface1">
<path style=" stroke:none;fill-rule:evenodd;fill:url(#linear0);" d="M 22.269531 48.171875 C 18.917969 47.335938 17.054688 44.671875 17.050781 40.71875 C 17.042969 39.460938 17.136719 38.851562 17.457031 38.039062 C 18.226562 36.050781 20.269531 34.550781 22.960938 33.996094 C 24.300781 33.71875 24.714844 33.421875 24.714844 32.738281 C 24.714844 32.527344 24.878906 31.886719 25.070312 31.320312 C 25.957031 28.746094 27.59375 26.605469 29.347656 25.726562 C 31.179688 24.808594 32.105469 24.597656 34.320312 24.613281 C 37.472656 24.625 39.042969 25.3125 41.238281 27.621094 L 42.449219 28.886719 L 43.539062 28.511719 C 48.769531 26.699219 54 29.785156 54.417969 34.945312 L 54.539062 36.363281 L 55.566406 36.730469 C 58.511719 37.785156 59.894531 40 59.648438 43.261719 C 59.484375 45.390625 58.488281 47.09375 56.910156 47.9375 L 56.164062 48.335938 L 39.671875 48.363281 C 26.996094 48.390625 22.960938 48.347656 22.269531 48.171875 Z M 9.90625 45.890625 C 7.949219 45.429688 5.878906 43.703125 4.90625 41.730469 C 4.351562 40.609375 4.324219 40.441406 4.324219 38.460938 C 4.324219 36.570312 4.375 36.269531 4.8125 35.335938 C 5.734375 33.363281 7.511719 31.9375 9.730469 31.378906 C 10.199219 31.261719 10.636719 31.066406 10.710938 30.960938 C 10.78125 30.839844 10.863281 30.234375 10.882812 29.59375 C 11.039062 25.648438 13.625 22.171875 17.242188 21.054688 C 19.199219 20.449219 21.660156 20.597656 23.78125 21.449219 C 24.457031 21.71875 24.378906 21.78125 25.808594 19.90625 C 26.648438 18.800781 28.351562 17.421875 29.742188 16.726562 C 31.246094 15.96875 32.8125 15.621094 34.6875 15.625 C 39.914062 15.636719 44.421875 18.914062 46.089844 23.90625 C 46.621094 25.5 46.59375 25.945312 45.96875 25.960938 C 45.699219 25.96875 44.910156 26.117188 44.21875 26.296875 L 42.976562 26.621094 L 41.835938 25.484375 C 38.625 22.273438 33.394531 21.582031 28.941406 23.773438 C 27.164062 24.652344 25.734375 25.910156 24.660156 27.550781 C 23.882812 28.714844 22.90625 30.902344 22.90625 31.441406 C 22.90625 31.828125 22.59375 32.015625 21.265625 32.457031 C 17.152344 33.800781 14.753906 36.914062 14.753906 40.90625 C 14.753906 42.355469 15.125 44.132812 15.644531 45.144531 C 15.839844 45.53125 15.945312 45.890625 15.886719 45.957031 C 15.726562 46.113281 10.609375 46.0625 9.90625 45.890625 Z M 9.90625 45.890625 "/>
</g>
</svg>
