<svg xmlns="http://www.w3.org/2000/svg" xmlns:xlink="http://www.w3.org/1999/xlink" width="64px" height="64px" viewBox="0 0 64 64" version="1.1">
<defs>
<linearGradient id="linear0" gradientUnits="userSpaceOnUse" x1="0" y1="0" x2="0" y2="1" gradientTransform="matrix(51.891892,0,0,51.891892,6.054054,6.054054)">
<stop offset="0" style="stop-color:#00fff2;stop-opacity:1;"/>
<stop offset="0.5" style="stop-color:#dddddd;stop-opacity:1;"/>
<stop offset="1" style="stop-color:#0062ff;stop-opacity:1;"/>
</linearGradient>
</defs>
<g id="surface1">
<path style=" stroke:none;fill-rule:nonzero;fill:url(#linear0);" d="M 19.890625 6.054688 C 12.246094 6.054688 6.054688 12.246094 6.054688 19.890625 C 6.058594 23.351562 7.363281 26.6875 9.703125 29.238281 C 9.582031 30.152344 9.515625 31.078125 9.511719 32 C 9.511719 44.417969 19.582031 54.488281 32 54.488281 C 32.921875 54.476562 33.847656 54.414062 34.761719 54.289062 C 37.3125 56.636719 40.644531 57.941406 44.109375 57.945312 C 51.753906 57.945312 57.945312 51.753906 57.945312 44.109375 C 57.941406 40.648438 56.636719 37.3125 54.296875 34.761719 C 54.417969 33.847656 54.484375 32.921875 54.488281 32 C 54.488281 19.582031 44.417969 9.511719 32 9.511719 C 31.078125 9.523438 30.152344 9.585938 29.238281 9.707031 C 26.6875 7.363281 23.355469 6.058594 19.890625 6.054688 Z M 31.5625 18.164062 C 33.09375 18.164062 33.367188 18.179688 34.3125 18.402344 C 38.375 19.328125 41.214844 21.585938 41.335938 24 C 41.347656 24.363281 41.300781 24.796875 41.242188 24.988281 C 41.105469 25.441406 40.636719 25.988281 40.125 26.273438 C 39.757812 26.488281 39.597656 26.511719 38.90625 26.511719 C 38.285156 26.511719 38.054688 26.46875 37.789062 26.328125 C 37.609375 26.234375 36.9375 25.597656 36.320312 24.921875 C 35.0625 23.5625 34.570312 23.230469 33.285156 22.863281 C 32.394531 22.613281 30.53125 22.609375 29.699219 22.835938 C 28.042969 23.269531 27.132812 24.335938 27.136719 25.824219 C 27.136719 26.78125 27.636719 27.503906 28.714844 28.039062 C 29.523438 28.4375 30 28.570312 33.648438 29.445312 C 35.3125 29.847656 37.011719 30.285156 37.40625 30.433594 C 40.417969 31.566406 42.011719 33.609375 42.328125 36.664062 C 42.582031 39.070312 41.855469 41.335938 40.351562 42.945312 C 39.050781 44.335938 37.238281 45.210938 34.8125 45.636719 C 33.875 45.8125 31.226562 45.902344 30.21875 45.789062 C 26.542969 45.382812 23.765625 43.933594 22.375 41.6875 C 21.882812 40.902344 21.621094 40.039062 21.621094 39.261719 C 21.621094 38.242188 21.988281 37.554688 22.734375 37.109375 C 23.136719 36.867188 23.238281 36.835938 23.960938 36.835938 C 25.085938 36.835938 25.40625 37.070312 26.625 38.699219 C 27.894531 40.382812 28.835938 41.058594 30.328125 41.390625 C 33.023438 41.988281 35.621094 41.070312 36.460938 39.238281 C 36.660156 38.808594 36.710938 38.632812 36.707031 37.976562 C 36.707031 37.324219 36.652344 37.148438 36.460938 36.753906 C 36.207031 36.230469 35.703125 35.730469 35.148438 35.460938 C 34.945312 35.367188 33.039062 34.8125 30.917969 34.238281 C 28.796875 33.664062 26.742188 33.089844 26.378906 32.945312 C 23.78125 31.914062 22.386719 30.390625 21.867188 28.105469 C 21.625 27.011719 21.621094 25.289062 21.867188 24.269531 C 22.648438 21.09375 25.042969 19.121094 29.027344 18.347656 C 29.660156 18.21875 30.265625 18.164062 31.5625 18.164062 Z M 31.5625 18.164062 "/>
</g>
</svg>
