<svg xmlns="http://www.w3.org/2000/svg" xmlns:xlink="http://www.w3.org/1999/xlink" width="64px" height="64px" viewBox="0 0 64 64" version="1.1">
<defs>
<linearGradient id="linear0" gradientUnits="userSpaceOnUse" x1="0" y1="0" x2="0" y2="1" gradientTransform="matrix(51.891892,0,0,51.891892,6.054054,6.054054)">
<stop offset="0" style="stop-color:#00a2ff;stop-opacity:1;"/>
<stop offset="0.5" style="stop-color:#dddddd;stop-opacity:1;"/>
<stop offset="1" style="stop-color:#00ffae;stop-opacity:1;"/>
</linearGradient>
</defs>
<g id="surface1">
<path style=" stroke:none;fill-rule:nonzero;fill:url(#linear0);" d="M 37.082031 6.085938 C 36.636719 6.023438 36.175781 6.054688 35.714844 6.175781 C 33.882812 6.664062 32.808594 8.539062 33.296875 10.375 L 35.070312 16.988281 L 21.828125 20.539062 L 20.054688 13.917969 C 19.5625 12.085938 17.699219 11 15.863281 11.488281 C 14.027344 11.984375 12.949219 13.863281 13.441406 15.691406 L 15.214844 22.308594 L 8.59375 24.082031 C 6.761719 24.570312 5.679688 26.449219 6.171875 28.285156 C 6.664062 30.117188 8.539062 31.191406 10.367188 30.703125 L 16.988281 28.929688 L 20.539062 42.171875 L 13.914062 43.945312 C 12.082031 44.4375 10.996094 46.308594 11.488281 48.136719 C 11.984375 49.972656 13.855469 51.050781 15.6875 50.558594 L 22.308594 48.785156 L 24.082031 55.40625 C 24.570312 57.238281 26.445312 58.320312 28.28125 57.828125 C 30.117188 57.335938 31.191406 55.460938 30.703125 53.632812 L 28.929688 47.011719 L 42.171875 43.460938 L 43.945312 50.085938 C 44.4375 51.917969 46.300781 53.003906 48.136719 52.511719 C 49.972656 52.015625 51.050781 50.144531 50.558594 48.3125 L 48.785156 41.691406 L 55.40625 39.921875 C 57.238281 39.433594 58.320312 37.554688 57.828125 35.71875 C 57.335938 33.886719 55.460938 32.8125 53.632812 33.300781 L 47.011719 35.082031 L 43.46875 21.835938 L 50.089844 20.0625 C 51.921875 19.570312 53.011719 17.703125 52.511719 15.867188 C 52.023438 14.039062 50.148438 12.957031 48.3125 13.445312 L 41.699219 15.21875 L 39.921875 8.605469 C 39.558594 7.226562 38.410156 6.269531 37.085938 6.085938 Z M 36.847656 23.609375 L 40.394531 36.851562 L 27.152344 40.394531 L 23.605469 27.152344 Z M 36.847656 23.609375 "/>
</g>
</svg>
