<svg xmlns="http://www.w3.org/2000/svg" xmlns:xlink="http://www.w3.org/1999/xlink" width="64px" height="64px" viewBox="0 0 64 64" version="1.1">
<defs>
<linearGradient id="linear0" gradientUnits="userSpaceOnUse" x1="0" y1="0" x2="0" y2="1" gradientTransform="matrix(42.283784,0,0,42.288287,4.364865,17.387388)">
<stop offset="0" style="stop-color:#00fff2;stop-opacity:1;"/>
<stop offset="0.5" style="stop-color:#dddddd;stop-opacity:1;"/>
<stop offset="1" style="stop-color:#0062ff;stop-opacity:1;"/>
</linearGradient>
<linearGradient id="linear1" gradientUnits="userSpaceOnUse" x1="0" y1="0" x2="0" y2="1" gradientTransform="matrix(38.630632,0,0,46.00901,21.004503,4.324324)">
<stop offset="0" style="stop-color:#00fff2;stop-opacity:1;"/>
<stop offset="0.5" style="stop-color:#dddddd;stop-opacity:1;"/>
<stop offset="1" style="stop-color:#0062ff;stop-opacity:1;"/>
</linearGradient>
</defs>
<g id="surface1">
<path style=" stroke:none;fill-rule:nonzero;fill:url(#linear0);" d="M 41.050781 34.324219 L 40.957031 34.1875 L 41.039062 33.917969 L 41.261719 33.960938 L 41.46875 34.082031 L 41.496094 34.058594 L 41.429688 34.242188 L 41.242188 34.335938 Z M 42.21875 35.570312 L 42.136719 35.273438 L 40.339844 34.113281 L 39.910156 34.085938 L 39.511719 34.511719 L 39.320312 35.039062 L 39.476562 35.335938 Z M 14.625 34.164062 L 14.417969 34.910156 L 15.09375 34.148438 L 15.148438 33.914062 L 14.863281 33.796875 Z M 15.03125 32.960938 L 15.03125 33.003906 L 13.882812 33.550781 L 15.335938 33.261719 Z M 15.90625 34.410156 L 16.054688 34.300781 L 16.175781 34.011719 L 16.160156 34.042969 L 16.246094 33.707031 L 15.984375 33.664062 L 15.769531 33.71875 L 15.636719 33.863281 L 15.558594 34.113281 L 15.746094 34.347656 Z M 38.921875 29.21875 L 38.714844 29.109375 L 37.792969 29.042969 L 37.40625 28.726562 L 37.878906 26.996094 L 35.585938 30.707031 L 34.976562 31.152344 L 36.105469 31.582031 Z M 41.085938 39.511719 L 43.367188 43.132812 L 41.523438 39.703125 Z M 46.648438 38.53125 C 46.648438 50.210938 37.1875 59.675781 25.511719 59.675781 C 13.835938 59.675781 4.363281 50.210938 4.363281 38.53125 C 4.363281 26.851562 13.835938 17.386719 25.511719 17.386719 C 37.1875 17.386719 46.648438 26.851562 46.648438 38.53125 Z M 31.269531 29.988281 L 31.273438 31.792969 L 31.636719 32.707031 L 32.511719 32.511719 L 32.558594 31.917969 Z M 32.558594 26.769531 L 32.246094 26.644531 L 31.59375 26.789062 L 30.960938 26.652344 L 30.9375 27.429688 L 31.011719 27.605469 L 31.855469 27.6875 L 32.390625 27.257812 Z M 20.023438 21.164062 L 21.078125 21.121094 L 23.136719 19.78125 C 22.472656 19.863281 21.835938 19.972656 21.199219 20.125 L 20.828125 20.621094 Z M 18.707031 21.78125 L 19.40625 22.335938 L 20.289062 22.449219 L 20.847656 21.929688 L 20.511719 21.875 L 19.136719 21.089844 L 18.742188 21.015625 Z M 16.886719 21.691406 L 16.960938 21.796875 L 17.363281 21.769531 L 17.78125 21.59375 L 18.003906 21.3125 L 17.921875 21.191406 C 17.570312 21.347656 17.234375 21.523438 16.886719 21.691406 Z M 15.878906 23.835938 L 16.402344 23.910156 L 16.773438 23.476562 L 16.878906 22.972656 L 16.59375 22.824219 L 15.886719 23.613281 Z M 12.09375 25.289062 L 13.023438 25.820312 L 14.390625 25.1875 L 15.460938 24.042969 L 15.488281 23.011719 L 14.5625 23.1875 L 14.46875 23.152344 C 13.820312 23.617188 13.207031 24.125 12.621094 24.671875 L 12.71875 24.773438 L 12.164062 25.164062 Z M 6.890625 40.230469 L 6.476562 39.527344 C 6.476562 39.59375 6.484375 39.652344 6.488281 39.714844 L 6.878906 40.578125 Z M 25.664062 48.441406 L 24.710938 47.734375 L 21.976562 46.917969 L 20.378906 44.828125 L 18.40625 44.078125 L 13.769531 43.917969 L 12.367188 41.554688 L 11.996094 41.503906 L 10.847656 42.0625 L 10.429688 41.613281 L 10.351562 40.96875 L 10.488281 40.433594 L 11.21875 39.449219 L 12.082031 38.960938 L 14.234375 39.363281 L 14.554688 40.269531 L 15.210938 40.421875 L 15.203125 39.042969 L 17.011719 36.421875 L 20.988281 34.203125 L 20.40625 34.132812 L 19.382812 33.367188 L 22 32.625 L 22.09375 32.855469 L 22.054688 33.082031 L 21.894531 33.292969 L 21.605469 33.496094 L 21.8125 33.773438 L 22.449219 33.800781 L 22.972656 33.609375 L 21.257812 29.46875 L 21.011719 29.496094 L 18.921875 28.488281 L 18.457031 28.945312 L 17.234375 32.0625 L 16.648438 31.53125 L 15.253906 30.890625 L 14.390625 29.914062 L 15.40625 28.382812 L 18.5 25.988281 L 18.960938 24.699219 L 20.386719 25.597656 L 20.617188 26.09375 L 19.113281 27.320312 L 20.609375 28.257812 L 20.929688 28.085938 L 21.089844 28.089844 L 21.726562 27.09375 L 21.582031 26.929688 L 22.449219 25.96875 L 21.785156 24.8125 L 20.050781 23.339844 L 20.960938 23.175781 L 20.917969 22.933594 L 20.414062 22.824219 L 18.96875 23.636719 L 19.4375 22.875 L 18.46875 23.179688 L 18.292969 25.558594 L 17.527344 26.082031 L 16.976562 25.566406 L 18.394531 22.921875 L 18.289062 22.8125 L 18.160156 22.757812 L 18.003906 22.757812 L 17.839844 22.820312 L 15.585938 25.960938 L 15.636719 25.769531 L 15.863281 25.335938 L 15.78125 25.160156 L 15.386719 25.386719 L 12.144531 26.054688 L 11.550781 25.730469 C 8.230469 29.28125 6.402344 33.972656 6.4375 38.835938 C 6.4375 38.894531 6.449219 38.957031 6.449219 39.015625 L 6.460938 38.988281 L 6.929688 39.164062 L 8.644531 42.085938 L 13.8125 44.363281 L 14.523438 45.144531 L 14.539062 46.1875 L 13.890625 47.726562 L 13.855469 48.566406 L 16.097656 52.902344 L 16.171875 55.3125 C 17.386719 56 18.675781 56.558594 20.015625 56.96875 L 22.363281 53.960938 L 24.445312 52.429688 Z M 17.855469 27.253906 L 17.675781 26.996094 L 17.503906 26.957031 L 16.855469 27.773438 L 16.960938 27.894531 L 17.765625 27.894531 L 18.011719 27.738281 Z M 25.789062 28.957031 L 31.164062 24.3125 L 32.421875 20.933594 C 30.179688 20.050781 27.785156 19.609375 25.375 19.625 C 25.039062 19.625 24.726562 19.664062 24.390625 19.675781 L 24.148438 19.820312 L 23.644531 20.539062 L 23.539062 21.027344 L 23.738281 21.386719 L 25.117188 21.566406 L 25.523438 24.238281 L 24.835938 25.847656 L 24.671875 27.027344 L 25.105469 28.273438 Z M 43.796875 43.632812 L 43.941406 43.542969 C 44.363281 41.957031 44.59375 40.28125 44.578125 38.558594 C 44.570312 37.328125 44.4375 36.136719 44.207031 34.972656 L 44.105469 34.765625 L 44.144531 34.632812 C 43.5625 31.949219 42.402344 29.433594 40.742188 27.253906 L 40.625 27.296875 L 39.929688 26.589844 L 40.179688 26.511719 C 39.582031 25.796875 38.933594 25.136719 38.234375 24.515625 L 37.648438 24.476562 L 36.589844 24.933594 L 33.800781 28.714844 L 33.933594 29.203125 L 35.242188 30.210938 L 35.242188 30.726562 L 31.566406 33.4375 L 31.589844 33.789062 L 31.886719 34.292969 L 31.988281 34.738281 L 30.394531 35.375 L 30.269531 36.191406 L 30.394531 37.199219 L 27.960938 41.988281 L 27.847656 44.109375 L 29.664062 45.179688 L 32.664062 45.175781 L 34.023438 45.558594 L 36.597656 54.191406 C 40.152344 51.652344 42.730469 47.960938 43.886719 43.742188 Z M 41.230469 37.078125 L 38.375 36.308594 L 38.085938 35.960938 L 38.144531 36.792969 L 38.070312 36.855469 L 35.835938 34.515625 L 35.835938 34.53125 L 35.46875 34.621094 L 35.414062 34.53125 L 35.527344 34.988281 L 36.40625 35.632812 L 36.460938 36.105469 L 36.292969 36.390625 L 36.164062 36.484375 L 36.011719 36.539062 L 35.164062 35.21875 L 33.90625 35.230469 L 31.269531 37.179688 L 34.71875 37.050781 L 36.289062 38.46875 L 37.039062 38.734375 L 41.179688 37.894531 Z M 41.230469 37.078125 "/>
<path style=" stroke:none;fill-rule:evenodd;fill:url(#linear1);" d="M 39.699219 31.382812 C 42.027344 29.390625 44.3125 27.152344 46.285156 24.972656 C 50.691406 20.085938 53.417969 15.226562 54.269531 12.136719 C 54.9375 9.652344 53.0625 8.472656 50.21875 8.648438 C 47.988281 8.785156 44.960938 9.960938 43.488281 10.605469 C 40.210938 12.027344 36.226562 15.390625 32.636719 18.433594 C 32.171875 18.269531 31.710938 18.113281 31.246094 17.988281 C 38.5 10.902344 47.027344 4.742188 52.96875 4.347656 C 53.3125 4.328125 53.644531 4.320312 53.960938 4.328125 C 54.917969 4.347656 55.773438 4.503906 56.511719 4.796875 C 62.515625 7.175781 59.605469 17.710938 50.011719 28.335938 C 47.644531 30.960938 45.089844 33.496094 42.488281 35.71875 C 42.878906 36.835938 43.085938 38.039062 43.085938 39.289062 C 43.085938 45.382812 38.136719 50.335938 32.039062 50.335938 C 25.949219 50.335938 21.003906 45.382812 21.003906 39.289062 C 21.003906 33.199219 25.949219 28.246094 32.039062 28.246094 C 35.023438 28.246094 37.734375 29.433594 39.699219 31.382812 Z M 36.824219 33.785156 C 35.742188 34.605469 34.675781 35.375 33.660156 36.027344 C 33.1875 35.746094 32.632812 35.609375 32.039062 35.609375 C 30.011719 35.609375 28.363281 37.257812 28.363281 39.289062 C 28.363281 41.320312 30.011719 42.96875 32.039062 42.96875 C 33.023438 42.96875 33.910156 42.585938 34.539062 41.933594 C 36.109375 40.917969 37.71875 39.742188 39.339844 38.429688 C 39.386719 38.710938 39.40625 39 39.40625 39.289062 C 39.40625 43.355469 36.109375 46.648438 32.039062 46.648438 C 27.984375 46.648438 24.6875 43.355469 24.6875 39.289062 C 24.6875 35.230469 27.984375 31.929688 32.039062 31.929688 C 33.886719 31.929688 35.582031 32.609375 36.824219 33.785156 Z M 36.824219 33.785156 "/>
</g>
</svg>
