<svg xmlns="http://www.w3.org/2000/svg" xmlns:xlink="http://www.w3.org/1999/xlink" width="64px" height="64px" viewBox="0 0 64 64" version="1.1">
<defs>
<linearGradient id="linear0" gradientUnits="userSpaceOnUse" x1="0" y1="0" x2="0" y2="1" gradientTransform="matrix(34.603605,0,0,55.351351,14.698198,4.324324)">
<stop offset="0" style="stop-color:#ffae00;stop-opacity:1;"/>
<stop offset="0.5" style="stop-color:#dddddd;stop-opacity:1;"/>
<stop offset="1" style="stop-color:#6600ff;stop-opacity:1;"/>
</linearGradient>
</defs>
<g id="surface1">
<path style=" stroke:none;fill-rule:nonzero;fill:url(#linear0);" d="M 23.351562 4.324219 C 21.476562 4.324219 19.945312 4.542969 18.648438 5.121094 C 17.351562 5.699219 16.335938 6.703125 15.746094 7.878906 C 14.578125 10.226562 14.703125 12.972656 14.703125 16.433594 L 14.703125 47.566406 C 14.703125 51.027344 14.578125 53.78125 15.746094 56.132812 C 16.335938 57.300781 17.351562 58.300781 18.648438 58.878906 C 19.945312 59.457031 21.476562 59.675781 23.351562 59.675781 L 40.648438 59.675781 C 42.523438 59.675781 44.054688 59.457031 45.351562 58.878906 C 46.648438 58.300781 47.664062 57.300781 48.253906 56.132812 C 49.421875 53.78125 49.296875 51.027344 49.296875 47.566406 L 49.296875 16.433594 C 49.296875 12.972656 49.421875 10.226562 48.253906 7.878906 C 47.664062 6.703125 46.648438 5.699219 45.351562 5.121094 C 44.054688 4.542969 42.523438 4.324219 40.648438 4.324219 Z M 18.40625 11.242188 L 45.59375 11.242188 C 45.769531 12.539062 45.835938 14.253906 45.835938 16.433594 L 45.835938 47.566406 C 45.835938 49.746094 45.769531 51.460938 45.59375 52.757812 L 18.40625 52.757812 C 18.230469 51.460938 18.164062 49.746094 18.164062 47.566406 L 18.164062 16.433594 C 18.164062 14.253906 18.230469 12.539062 18.40625 11.242188 Z M 18.40625 11.242188 "/>
</g>
</svg>
