<svg xmlns="http://www.w3.org/2000/svg" xmlns:xlink="http://www.w3.org/1999/xlink" width="48px" height="48px" viewBox="0 0 48 48" version="1.1">
<defs>
<linearGradient id="linear0" gradientUnits="userSpaceOnUse" x1="20.601" y1="4.721" x2="27.399" y2="43.278999" >
<stop offset="0" style="stop-color:rgb(99.607843%,87.058824%,0%);stop-opacity:1;"/>
<stop offset="1" style="stop-color:rgb(100%,81.568629%,0%);stop-opacity:1;"/>
</linearGradient>
<filter id="alpha" filterUnits="objectBoundingBox" x="0%" y="0%" width="100%" height="100%">
  <feColorMatrix type="matrix" in="SourceGraphic" values="0 0 0 0 1 0 0 0 0 1 0 0 0 0 1 0 0 0 1 0"/>
</filter>
<mask id="mask0">
  <g filter="url(#alpha)">
<rect x="0" y="0" width="48" height="48" style="fill:rgb(0%,0%,0%);fill-opacity:0.07;stroke:none;"/>
  </g>
</mask>
<clipPath id="clip1">
  <rect x="0" y="0" width="48" height="48"/>
</clipPath>
<g id="surface5" clip-path="url(#clip1)">
<path style=" stroke:none;fill-rule:nonzero;fill:rgb(0%,0%,0%);fill-opacity:1;" d="M 14.613281 20.503906 C 14.445312 20.503906 14.269531 20.542969 14.109375 20.625 C 13.84375 20.757812 13.648438 20.984375 13.554688 21.265625 C 13.402344 21.71875 13.558594 22.214844 13.9375 22.503906 L 17.613281 24.796875 L 17.472656 25.179688 C 17.40625 25.359375 15.800781 29.582031 12.769531 31.238281 C 12.609375 31.324219 12.503906 31.441406 12.496094 31.554688 C 12.484375 31.664062 12.574219 31.765625 12.648438 31.832031 C 13.304688 32.378906 13.984375 32.769531 15.335938 33.019531 L 15.742188 33.09375 L 15.746094 33.507812 C 15.746094 34.117188 15.941406 34.761719 16.121094 34.761719 C 17.011719 34.761719 18.871094 34.761719 20.726562 35.6875 C 21.757812 36.203125 23.199219 36.511719 24 36.511719 C 24.796875 36.511719 26.238281 36.203125 27.269531 35.6875 C 29.125 34.761719 30.984375 34.761719 31.878906 34.761719 C 32.058594 34.761719 32.253906 34.117188 32.253906 33.507812 L 32.253906 33.09375 L 32.664062 33.019531 C 34.015625 32.769531 34.691406 32.382812 35.347656 31.832031 C 35.425781 31.765625 35.515625 31.664062 35.503906 31.554688 C 35.492188 31.441406 35.390625 31.324219 35.230469 31.238281 C 32.199219 29.582031 30.59375 25.359375 30.527344 25.179688 L 30.382812 24.796875 L 34.09375 22.476562 C 34.441406 22.214844 34.597656 21.71875 34.445312 21.265625 C 34.351562 20.984375 34.152344 20.757812 33.890625 20.625 C 33.625 20.492188 33.324219 20.472656 33.042969 20.566406 L 30.496094 21.605469 L 30.496094 18.101562 C 30.496094 14.464844 27.582031 11.507812 24 11.507812 C 20.414062 11.507812 17.5 14.464844 17.5 18.101562 L 17.5 21.609375 L 14.925781 20.554688 C 14.828125 20.523438 14.722656 20.503906 14.613281 20.503906 Z M 14.613281 20.503906 "/>
</g>
<mask id="mask1">
  <g filter="url(#alpha)">
<rect x="0" y="0" width="48" height="48" style="fill:rgb(0%,0%,0%);fill-opacity:0.05;stroke:none;"/>
  </g>
</mask>
<clipPath id="clip2">
  <rect x="0" y="0" width="48" height="48"/>
</clipPath>
<g id="surface8" clip-path="url(#clip2)">
<path style="fill:none;stroke-width:2;stroke-linecap:butt;stroke-linejoin:miter;stroke:rgb(11.372549%,11.372549%,10.588235%);stroke-opacity:1;stroke-miterlimit:4;" d="M 24 37.011719 C 24.867188 37.011719 26.386719 36.6875 27.492188 36.136719 C 29.246094 35.261719 31.003906 35.261719 31.878906 35.261719 C 32.753906 35.261719 32.753906 33.511719 32.753906 33.511719 C 34.144531 33.257812 34.910156 32.851562 35.671875 32.214844 C 36.199219 31.769531 36.078125 31.128906 35.46875 30.800781 C 32.566406 29.214844 30.996094 25.007812 30.996094 25.007812 L 34.359375 22.902344 C 34.914062 22.488281 35.136719 21.765625 34.921875 21.105469 C 34.640625 20.265625 33.726562 19.808594 32.886719 20.089844 L 30.996094 20.863281 L 30.996094 18.101562 C 30.996094 14.234375 27.867188 11.007812 24.003906 11.007812 L 23.996094 11.007812 C 20.132812 11.007812 17.003906 14.234375 17.003906 18.101562 L 17.003906 20.863281 L 15.113281 20.09375 C 14.273438 19.808594 13.359375 20.265625 13.078125 21.109375 C 12.859375 21.765625 13.085938 22.488281 13.640625 22.902344 L 17.003906 25.007812 C 17.003906 25.007812 15.433594 29.214844 12.53125 30.800781 C 11.921875 31.132812 11.800781 31.773438 12.328125 32.214844 C 13.089844 32.851562 13.855469 33.257812 15.246094 33.511719 C 15.246094 33.511719 15.246094 35.261719 16.121094 35.261719 C 16.996094 35.261719 18.753906 35.261719 20.507812 36.136719 C 21.613281 36.6875 23.132812 37.011719 24 37.011719 "/>
</g>
<mask id="mask2">
  <g filter="url(#alpha)">
<rect x="0" y="0" width="48" height="48" style="fill:rgb(0%,0%,0%);fill-opacity:0.07;stroke:none;"/>
  </g>
</mask>
<clipPath id="clip3">
  <rect x="0" y="0" width="48" height="48"/>
</clipPath>
<g id="surface11" clip-path="url(#clip3)">
<path style="fill:none;stroke-width:1;stroke-linecap:butt;stroke-linejoin:miter;stroke:rgb(0%,0%,0%);stroke-opacity:1;stroke-miterlimit:4;" d="M 24 37.011719 C 24.867188 37.011719 26.386719 36.6875 27.492188 36.136719 C 29.246094 35.261719 31.003906 35.261719 31.878906 35.261719 C 32.753906 35.261719 32.753906 33.511719 32.753906 33.511719 C 34.144531 33.257812 34.910156 32.851562 35.671875 32.214844 C 36.199219 31.769531 36.078125 31.128906 35.46875 30.800781 C 32.566406 29.214844 30.996094 25.007812 30.996094 25.007812 L 34.359375 22.902344 C 34.914062 22.488281 35.136719 21.765625 34.921875 21.105469 C 34.640625 20.265625 33.726562 19.808594 32.886719 20.089844 L 30.996094 20.863281 L 30.996094 18.101562 C 30.996094 14.234375 27.867188 11.007812 24.003906 11.007812 L 23.996094 11.007812 C 20.132812 11.007812 17.003906 14.234375 17.003906 18.101562 L 17.003906 20.863281 L 15.113281 20.09375 C 14.273438 19.808594 13.359375 20.265625 13.078125 21.109375 C 12.859375 21.765625 13.085938 22.488281 13.640625 22.902344 L 17.003906 25.007812 C 17.003906 25.007812 15.433594 29.214844 12.53125 30.800781 C 11.921875 31.132812 11.800781 31.773438 12.328125 32.214844 C 13.089844 32.851562 13.855469 33.257812 15.246094 33.511719 C 15.246094 33.511719 15.246094 35.261719 16.121094 35.261719 C 16.996094 35.261719 18.753906 35.261719 20.507812 36.136719 C 21.613281 36.6875 23.132812 37.011719 24 37.011719 "/>
</g>
</defs>
<g id="surface1">
<path style=" stroke:none;fill-rule:nonzero;fill:url(#linear0);" d="M 34.015625 41.988281 L 14.015625 42.007812 C 9.617188 42.011719 6.015625 38.417969 6.007812 34.015625 L 5.988281 14.015625 C 5.984375 9.617188 9.582031 6.015625 13.980469 6.007812 L 33.980469 5.988281 C 38.382812 5.984375 41.984375 9.582031 41.988281 13.980469 L 42.007812 33.980469 C 42.015625 38.382812 38.417969 41.984375 34.015625 41.988281 Z M 34.015625 41.988281 "/>
<use xlink:href="#surface5" mask="url(#mask0)"/>
<use xlink:href="#surface8" mask="url(#mask1)"/>
<use xlink:href="#surface11" mask="url(#mask2)"/>
<path style=" stroke:none;fill-rule:nonzero;fill:rgb(100%,100%,100%);fill-opacity:1;" d="M 24 37.011719 C 24.867188 37.011719 26.386719 36.6875 27.492188 36.136719 C 29.246094 35.261719 31.003906 35.261719 31.878906 35.261719 C 32.753906 35.261719 32.753906 33.511719 32.753906 33.511719 C 34.144531 33.257812 34.910156 32.851562 35.671875 32.214844 C 36.199219 31.769531 36.078125 31.128906 35.46875 30.800781 C 32.566406 29.214844 30.996094 25.007812 30.996094 25.007812 L 34.359375 22.902344 C 34.914062 22.488281 35.136719 21.765625 34.921875 21.105469 C 34.640625 20.265625 33.726562 19.808594 32.886719 20.089844 L 30.996094 20.863281 L 30.996094 18.101562 C 30.996094 14.234375 27.867188 11.007812 24.003906 11.007812 L 23.996094 11.007812 C 20.132812 11.007812 17.003906 14.234375 17.003906 18.101562 L 17.003906 20.863281 L 15.113281 20.09375 C 14.273438 19.808594 13.359375 20.265625 13.078125 21.109375 C 12.859375 21.765625 13.085938 22.488281 13.640625 22.902344 L 17.003906 25.007812 C 17.003906 25.007812 15.433594 29.214844 12.53125 30.800781 C 11.921875 31.132812 11.800781 31.773438 12.328125 32.214844 C 13.089844 32.851562 13.855469 33.257812 15.246094 33.511719 C 15.246094 33.511719 15.246094 35.261719 16.121094 35.261719 C 16.996094 35.261719 18.753906 35.261719 20.507812 36.136719 C 21.613281 36.6875 23.132812 37.011719 24 37.011719 "/>
</g>
</svg>
