<svg xmlns="http://www.w3.org/2000/svg" xmlns:xlink="http://www.w3.org/1999/xlink" width="64px" height="64px" viewBox="0 0 64 64" version="1.1">
<defs>
<linearGradient id="linear0" gradientUnits="userSpaceOnUse" x1="0" y1="0" x2="0" y2="1" gradientTransform="matrix(55.351351,0,0,55.351351,4.324324,4.324324)">
<stop offset="0" style="stop-color:#00b7ff;stop-opacity:1;"/>
<stop offset="0.5" style="stop-color:#dddddd;stop-opacity:1;"/>
<stop offset="1" style="stop-color:#ee42d9;stop-opacity:1;"/>
</linearGradient>
</defs>
<g id="surface1">
<path style=" stroke:none;fill-rule:nonzero;fill:url(#linear0);" d="M 32 4.324219 C 16.738281 4.324219 4.324219 16.738281 4.324219 32 C 4.324219 47.261719 16.738281 59.675781 32 59.675781 C 47.261719 59.675781 59.675781 47.261719 59.675781 32 C 59.675781 16.738281 47.261719 4.324219 32 4.324219 Z M 29.550781 9.0625 C 28.730469 22.160156 21.890625 34 10.984375 41.285156 C 9.703125 38.394531 8.605469 35.367188 8.605469 32 C 8.605469 19.917969 17.8125 10.328125 29.550781 9.0625 Z M 34.449219 9.0625 C 46.1875 10.328125 55.394531 19.917969 55.394531 32 C 55.394531 35.367188 54.296875 38.394531 53.015625 41.285156 C 42.109375 34 35.269531 22.160156 34.449219 9.0625 Z M 32 19.835938 C 34.066406 26.664062 37.660156 32.878906 42.539062 38.082031 C 35.589844 36.457031 28.410156 36.457031 21.460938 38.082031 C 26.339844 32.878906 29.933594 26.664062 32 19.835938 Z M 32 40.976562 C 38.367188 40.976562 44.664062 42.652344 50.523438 45.542969 C 46.269531 51.335938 39.753906 55.394531 32 55.394531 C 24.246094 55.394531 17.730469 51.335938 13.476562 45.542969 C 19.335938 42.652344 25.632812 40.976562 32 40.976562 Z M 32 40.976562 "/>
</g>
</svg>
