<svg xmlns="http://www.w3.org/2000/svg" xmlns:xlink="http://www.w3.org/1999/xlink" width="64px" height="64px" viewBox="0 0 64 64" version="1.1">
<defs>
<linearGradient id="linear0" gradientUnits="userSpaceOnUse" x1="0" y1="0" x2="0" y2="1" gradientTransform="matrix(55.351351,0,0,55.351351,4.324324,4.324324)">
<stop offset="0" style="stop-color:#ffae00;stop-opacity:1;"/>
<stop offset="0.5" style="stop-color:#dddddd;stop-opacity:1;"/>
<stop offset="1" style="stop-color:#bf1d1d;stop-opacity:1;"/>
</linearGradient>
</defs>
<g id="surface1">
<path style=" stroke:none;fill-rule:evenodd;fill:url(#linear0);" d="M 41.882812 14.207031 C 41.882812 19.664062 37.460938 24.089844 32 24.089844 C 26.539062 24.089844 22.117188 19.664062 22.117188 14.207031 C 22.117188 8.746094 26.539062 4.324219 32 4.324219 C 37.460938 4.324219 41.882812 8.746094 41.882812 14.207031 Z M 41.882812 49.792969 C 41.882812 55.253906 37.460938 59.675781 32 59.675781 C 26.539062 59.675781 22.117188 55.253906 22.117188 49.792969 C 22.117188 44.335938 26.539062 39.910156 32 39.910156 C 37.460938 39.910156 41.882812 44.335938 41.882812 49.792969 Z M 49.792969 41.882812 C 44.335938 41.882812 39.910156 37.460938 39.910156 32 C 39.910156 26.539062 44.335938 22.117188 49.792969 22.117188 C 55.253906 22.117188 59.675781 26.539062 59.675781 32 C 59.675781 37.460938 55.253906 41.882812 49.792969 41.882812 Z M 14.207031 41.882812 C 8.746094 41.882812 4.324219 37.460938 4.324219 32 C 4.324219 26.539062 8.746094 22.117188 14.207031 22.117188 C 19.664062 22.117188 24.089844 26.539062 24.089844 32 C 24.089844 37.460938 19.664062 41.882812 14.207031 41.882812 Z M 14.207031 41.882812 "/>
</g>
</svg>
