<svg xmlns="http://www.w3.org/2000/svg" xmlns:xlink="http://www.w3.org/1999/xlink" width="64px" height="64px" viewBox="0 0 64 64" version="1.1">
<defs>
<linearGradient id="linear0" gradientUnits="userSpaceOnUse" x1="0" y1="0" x2="0" y2="1" gradientTransform="matrix(55.198199,0,0,55.351351,4.400901,4.324324)">
<stop offset="0" style="stop-color:#05f7ff;stop-opacity:1;"/>
<stop offset="0.5" style="stop-color:#dddddd;stop-opacity:1;"/>
<stop offset="1" style="stop-color:#e6ff05;stop-opacity:1;"/>
</linearGradient>
</defs>
<g id="surface1">
<path style=" stroke:none;fill-rule:evenodd;fill:url(#linear0);" d="M 49.632812 20.28125 L 58.386719 29.058594 C 60.003906 30.679688 60.003906 33.320312 58.386719 34.941406 L 34.933594 58.460938 C 33.3125 60.082031 30.6875 60.082031 29.066406 58.460938 L 5.613281 34.941406 C 3.996094 33.320312 3.996094 30.679688 5.613281 29.058594 L 18.0625 16.578125 C 18.066406 16.566406 18.082031 16.558594 18.085938 16.542969 L 19.78125 14.847656 C 19.792969 14.835938 19.8125 14.824219 19.824219 14.8125 L 29.066406 5.539062 C 30.6875 3.917969 33.3125 3.917969 34.933594 5.539062 L 42.734375 13.367188 L 42.738281 13.367188 C 42.742188 13.367188 42.742188 13.367188 42.746094 13.367188 L 49.632812 20.273438 C 49.632812 20.273438 49.632812 20.28125 49.632812 20.28125 Z M 49.632812 20.28125 L 42.738281 13.367188 C 39.875 12.285156 36.070312 11.234375 42.734375 13.367188 L 32 11.234375 C 26.941406 11.234375 22.882812 12.410156 19.960938 14.691406 C 19.910156 14.730469 19.867188 14.769531 19.824219 14.8125 L 18.0625 16.578125 C 16.378906 18.699219 15.527344 21.335938 15.71875 23.890625 C 16.234375 30.664062 22.957031 35.945312 32 35.945312 C 38.136719 35.945312 40.355469 39.097656 40.488281 40.71875 C 40.558594 41.539062 40.402344 42.179688 39.289062 43.042969 C 38.179688 43.914062 35.867188 44.847656 32 44.847656 C 26.605469 44.847656 20.152344 41.414062 20.152344 41.414062 C 19.109375 40.792969 17.835938 40.691406 16.703125 41.144531 C 15.570312 41.59375 14.710938 42.539062 14.367188 43.710938 L 21.253906 50.617188 C 24.117188 51.699219 27.921875 52.753906 32 52.753906 C 36.988281 52.753906 41 51.625 43.921875 49.4375 L 46.238281 47.113281 C 47.78125 45.039062 48.554688 42.515625 48.351562 40.078125 C 47.796875 33.292969 41.042969 28.039062 32 28.039062 C 25.863281 28.039062 23.707031 24.921875 23.582031 23.289062 C 23.523438 22.472656 23.691406 21.800781 24.808594 20.9375 C 25.914062 20.066406 28.1875 19.136719 32 19.136719 C 37.402344 19.136719 43.847656 22.578125 43.847656 22.578125 C 44.890625 23.191406 46.171875 23.292969 47.300781 22.839844 C 48.429688 22.390625 49.289062 21.449219 49.632812 20.28125 Z M 49.632812 20.28125 "/>
</g>
</svg>
