<svg xmlns="http://www.w3.org/2000/svg" xmlns:xlink="http://www.w3.org/1999/xlink" width="64px" height="64px" viewBox="0 0 64 64" version="1.1">
<defs>
<linearGradient id="linear0" gradientUnits="userSpaceOnUse" x1="0" y1="0" x2="0" y2="1" gradientTransform="matrix(55.351351,0,0,55.351351,4.324324,4.324324)">
<stop offset="0" style="stop-color:#00fff2;stop-opacity:1;"/>
<stop offset="0.5" style="stop-color:#dddddd;stop-opacity:1;"/>
<stop offset="1" style="stop-color:#0062ff;stop-opacity:1;"/>
</linearGradient>
</defs>
<g id="surface1">
<path style=" stroke:none;fill-rule:nonzero;fill:url(#linear0);" d="M 32 4.324219 C 16.730469 4.324219 4.324219 16.734375 4.324219 32 C 4.324219 47.269531 16.730469 59.675781 32 59.675781 C 47.265625 59.675781 59.675781 47.269531 59.675781 32 C 59.675781 16.734375 47.265625 4.324219 32 4.324219 Z M 32 7.089844 C 40.609375 7.089844 48.1875 11.441406 52.660156 18.066406 C 52.503906 17.839844 52.328125 17.636719 52.171875 17.414062 L 50.015625 17.414062 L 47.789062 19.636719 L 46.300781 18.160156 L 41.847656 18.160156 L 39.621094 20.382812 L 39.621094 22.238281 L 41.847656 22.238281 L 41.847656 21.125 L 43.335938 21.125 L 43.335938 22.613281 L 42.589844 23.351562 L 39.621094 23.410156 L 38.503906 24.472656 L 37.023438 24.472656 L 37.023438 25.957031 L 35.90625 27.070312 L 35.90625 29.296875 L 38.136719 29.296875 L 39.621094 27.8125 L 41.105469 27.8125 L 41.105469 28.554688 L 42.589844 30.039062 L 43.335938 30.039062 L 43.335938 29.296875 L 41.847656 27.8125 L 43.335938 27.8125 L 44.820312 29.296875 L 46.675781 29.296875 L 45.5625 28.1875 L 46.675781 27.070312 L 47.789062 27.070312 L 48.902344 28.1875 L 47.789062 28.1875 L 46.675781 29.296875 L 47.769531 30.390625 L 47.789062 31.527344 L 46.308594 31.527344 L 50.761719 35.984375 L 51.5 35.984375 L 53.730469 33.753906 L 52.242188 32.265625 L 56.894531 32.265625 C 56.894531 32.1875 56.910156 32.09375 56.910156 32.003906 C 56.910156 45.773438 45.769531 56.910156 32 56.910156 C 28.070312 56.910156 24.363281 56.003906 21.0625 54.390625 L 21.058594 53.058594 L 25.882812 48.605469 L 25.882812 47.117188 L 28.113281 44.890625 L 28.113281 43.78125 L 29.226562 42.664062 L 29.226562 39.691406 L 27.738281 38.207031 L 24.769531 38.207031 L 23.285156 36.726562 L 19.570312 36.726562 L 18.085938 38.207031 L 18.085938 41.921875 L 21.066406 44.53125 L 21.058594 47.863281 L 19.941406 48.976562 L 19.941406 53.800781 L 19.949219 53.8125 C 12.28125 49.570312 7.09375 41.40625 7.09375 32.003906 C 7.09375 30.285156 7.265625 28.605469 7.597656 26.984375 C 7.472656 27.582031 7.394531 28.199219 7.320312 28.8125 L 7.320312 29.671875 L 11.40625 33.757812 L 13.632812 33.757812 L 17.339844 37.46875 L 17.339844 33.011719 L 19.570312 30.785156 L 21.058594 30.785156 L 23.285156 28.558594 L 25.511719 28.558594 L 24.394531 27.445312 L 26.625 24.847656 L 24.394531 22.617188 L 21.058594 22.617188 L 21.058594 25.585938 L 19.570312 25.585938 L 18.085938 24.105469 L 18.085938 22.617188 L 20.3125 20.390625 L 22.171875 20.390625 L 22.171875 18.90625 L 19.941406 16.675781 L 16.230469 16.675781 L 16.230469 18.90625 L 14.375 18.90625 L 12.285156 16.8125 C 11.960938 17.230469 11.636719 17.636719 11.339844 18.070312 C 12.523438 16.324219 13.921875 14.738281 15.496094 13.339844 L 17.339844 15.1875 L 21.058594 15.1875 L 21.058594 11.476562 L 17.882812 11.476562 C 21.890625 8.714844 26.753906 7.097656 32 7.097656 Z M 46.300781 31.523438 L 41.847656 31.523438 L 41.105469 30.78125 L 36.648438 30.78125 L 34.050781 33.378906 L 34.050781 37.09375 L 35.910156 38.949219 L 38.503906 38.949219 L 39.621094 40.0625 L 39.621094 41.175781 L 40.363281 41.917969 L 40.363281 46.375 L 43.1875 49.351562 L 47.835938 44.699219 L 47.789062 40.433594 L 51.5 36.71875 L 50.015625 36.71875 L 46.300781 33.011719 Z M 26.253906 11.472656 L 23.652344 14.441406 L 25.882812 16.671875 L 25.882812 19 L 28.484375 21.867188 L 29.96875 21.867188 L 29.96875 20.382812 L 32.191406 18.160156 L 32.191406 16.671875 L 33.679688 15.1875 L 33.679688 12.960938 L 32.191406 11.472656 Z M 31.824219 21.125 L 31.824219 22.238281 L 34.050781 22.238281 L 32.9375 21.125 Z M 38.503906 21.496094 L 37.390625 22.613281 L 37.390625 23.726562 L 38.503906 23.726562 Z M 26.996094 25.582031 L 25.882812 26.691406 L 26.996094 26.691406 L 27.367188 27.066406 L 27.738281 27.066406 L 28.113281 26.691406 Z M 20.6875 33.378906 L 19.570312 34.488281 L 21.796875 34.488281 L 21.796875 33.378906 Z M 50.386719 41.917969 L 48.902344 43.300781 L 48.902344 45.632812 L 50.386719 45.632812 Z M 50.386719 41.917969 "/>
</g>
</svg>
