<svg xmlns="http://www.w3.org/2000/svg" xmlns:xlink="http://www.w3.org/1999/xlink" width="64px" height="64px" viewBox="0 0 64 64" version="1.1">
<defs>
<linearGradient id="linear0" gradientUnits="userSpaceOnUse" x1="0" y1="0" x2="0" y2="1" gradientTransform="matrix(55.351351,0,0,52.090091,4.324324,5.954954)">
<stop offset="0" style="stop-color:#ffae00;stop-opacity:1;"/>
<stop offset="0.5" style="stop-color:#dddddd;stop-opacity:1;"/>
<stop offset="1" style="stop-color:#6600ff;stop-opacity:1;"/>
</linearGradient>
</defs>
<g id="surface1">
<path style=" stroke:none;fill-rule:nonzero;fill:url(#linear0);" d="M 21.757812 5.957031 L 14.566406 10.109375 L 21.089844 21.40625 C 19.335938 23.210938 18.058594 25.429688 17.367188 27.847656 L 4.324219 27.847656 L 4.324219 36.152344 L 17.363281 36.152344 C 18.050781 38.582031 19.328125 40.796875 21.085938 42.609375 L 14.566406 53.890625 L 21.757812 58.042969 L 28.285156 46.738281 C 29.5 47.054688 30.746094 47.214844 32 47.21875 C 33.257812 47.214844 34.503906 47.058594 35.71875 46.746094 L 42.242188 58.042969 L 49.433594 53.890625 L 42.910156 42.59375 C 44.664062 40.789062 45.941406 38.570312 46.632812 36.152344 L 59.675781 36.152344 L 59.675781 27.847656 L 46.636719 27.847656 C 45.949219 25.417969 44.671875 23.203125 42.914062 21.390625 L 49.433594 10.109375 L 42.242188 5.957031 L 35.714844 17.261719 C 34.5 16.945312 33.253906 16.785156 32 16.78125 C 30.742188 16.785156 29.496094 16.941406 28.28125 17.253906 Z M 32 22.3125 C 37.347656 22.3125 41.6875 26.652344 41.6875 32 C 41.6875 37.347656 37.347656 41.6875 32 41.6875 C 26.652344 41.6875 22.3125 37.347656 22.3125 32 C 22.3125 26.652344 26.652344 22.3125 32 22.3125 Z M 32 22.3125 "/>
</g>
</svg>
