<svg xmlns="http://www.w3.org/2000/svg" xmlns:xlink="http://www.w3.org/1999/xlink" width="64px" height="64px" viewBox="0 0 64 64" version="1.1">
<defs>
<linearGradient id="linear0" gradientUnits="userSpaceOnUse" x1="0" y1="0" x2="0" y2="1" gradientTransform="matrix(43.045044,0,0,55.351351,10.477478,4.324324)">
<stop offset="0" style="stop-color:#ff8963;stop-opacity:1;"/>
<stop offset="0.5" style="stop-color:#dddddd;stop-opacity:1;"/>
<stop offset="1" style="stop-color:#0F6FFF;stop-opacity:1;"/>
</linearGradient>
</defs>
<g id="surface1">
<path style=" stroke:none;fill-rule:nonzero;fill:url(#linear0);" d="M 53.523438 15.085938 C 53.523438 16.320312 53.03125 17.484375 52.171875 18.347656 C 51.3125 19.207031 50.136719 19.699219 48.914062 19.699219 C 47.679688 19.699219 46.515625 19.207031 45.652344 18.347656 C 44.792969 17.484375 44.300781 16.320312 44.300781 15.085938 L 44.300781 13.550781 L 19.699219 13.550781 L 19.699219 17.347656 L 53.523438 41.949219 L 53.523438 59.675781 L 10.476562 59.675781 L 10.476562 48.914062 C 10.476562 47.679688 10.96875 46.515625 11.828125 45.652344 C 12.6875 44.792969 13.863281 44.300781 15.085938 44.300781 C 16.320312 44.300781 17.484375 44.792969 18.347656 45.652344 C 19.207031 46.515625 19.699219 47.679688 19.699219 48.914062 L 19.699219 50.449219 L 44.300781 50.449219 L 44.300781 46.652344 L 10.476562 22.050781 L 10.476562 4.324219 L 53.523438 4.324219 Z M 53.523438 15.085938 "/>
</g>
</svg>
