<svg xmlns="http://www.w3.org/2000/svg" xmlns:xlink="http://www.w3.org/1999/xlink" width="64px" height="64px" viewBox="0 0 64 64" version="1.1">
<defs>
<linearGradient id="linear0" gradientUnits="userSpaceOnUse" x1="0" y1="0" x2="0" y2="1" gradientTransform="matrix(55.351351,0,0,53.806307,4.324324,4.324324)">
<stop offset="0" style="stop-color:#ffae00;stop-opacity:1;"/>
<stop offset="0.5" style="stop-color:#dddddd;stop-opacity:1;"/>
<stop offset="1" style="stop-color:#bf1d1d;stop-opacity:1;"/>
</linearGradient>
</defs>
<g id="surface1">
<path style=" stroke:none;fill-rule:nonzero;fill:url(#linear0);" d="M 34.054688 4.324219 L 34.078125 29.914062 L 34.109375 58.058594 L 41.671875 58.058594 L 41.691406 50.664062 C 41.707031 44.800781 41.726562 43.265625 41.792969 43.289062 C 41.835938 43.308594 43.300781 45.550781 44.800781 48.273438 C 46.300781 50.996094 47.726562 53.527344 47.957031 53.910156 C 48.433594 54.6875 49.363281 55.769531 49.976562 56.234375 C 51.253906 57.207031 52.578125 57.707031 54.625 57.988281 C 55.730469 58.136719 59.441406 58.1875 59.554688 58.058594 C 59.605469 58 59.621094 56.660156 59.609375 53.8125 L 59.589844 49.1875 L 58.21875 49.136719 C 55.824219 49.164062 54.703125 48.539062 53.363281 46.785156 C 53.152344 46.445312 52.09375 44.53125 51.003906 42.539062 C 49.09375 39.015625 49.039062 38.902344 49.136719 38.714844 C 49.199219 38.617188 51.585938 34.78125 54.441406 30.1875 C 57.296875 25.59375 59.652344 22.375 59.675781 22.3125 C 59.703125 22.226562 58.972656 22.261719 55.078125 22.261719 L 50.433594 22.261719 L 46.253906 28.335938 C 43.949219 32.039062 41.835938 35.066406 41.789062 35.085938 C 41.714844 35.113281 41.714844 13.703125 41.753906 4.363281 C 41.503906 4.363281 41.460938 4.328125 41.21875 4.328125 L 34.054688 4.328125 Z M 16.773438 22.261719 C 15.820312 22.269531 14.882812 22.3125 14.433594 22.402344 C 10.742188 23.105469 8.253906 25.089844 6.835938 28.265625 C 6.390625 29.273438 6.117188 30.246094 5.941406 31.433594 C 5.828125 32.226562 5.820312 32.5625 5.851562 33.847656 C 5.875 34.890625 5.917969 35.558594 6.011719 36.066406 C 6.625 39.566406 8.273438 41.785156 11.363281 42.9375 C 12.355469 43.3125 12.984375 43.457031 15.644531 43.902344 C 17.125 44.144531 18.257812 44.367188 18.488281 44.460938 C 19.511719 44.882812 19.988281 45.636719 20.078125 46.960938 C 20.1875 48.585938 19.390625 49.699219 17.792969 50.164062 C 17.152344 50.347656 15.976562 50.449219 15.160156 50.394531 C 12.441406 50.214844 10.675781 49.550781 9.144531 48.125 L 8.960938 47.949219 L 6.644531 50.664062 C 5.367188 52.152344 4.324219 53.441406 4.324219 53.511719 C 4.324219 53.691406 5.394531 54.769531 6.214844 55.414062 C 8.289062 57.039062 10.488281 57.808594 13.972656 58.113281 C 14.707031 58.175781 17.40625 58.082031 18.03125 57.96875 C 22.71875 57.148438 26.214844 54.347656 27.28125 50.171875 C 27.769531 48.230469 27.757812 45.296875 27.253906 43.121094 C 26.878906 41.527344 26.394531 40.527344 25.457031 39.417969 C 24.472656 38.261719 23.367188 37.664062 21.882812 37.082031 C 20.882812 36.6875 19.40625 36.5 16.730469 36.066406 C 13.882812 35.597656 13.542969 35.484375 12.890625 34.769531 C 12.160156 33.960938 12.027344 32.894531 12.523438 31.71875 C 12.875 30.890625 13.582031 30.421875 14.609375 30.09375 C 15.144531 29.921875 17.929688 29.90625 18.78125 30.0625 C 19.929688 30.28125 21.011719 30.671875 21.773438 31.394531 C 22 31.609375 22.21875 31.785156 22.265625 31.785156 C 22.390625 31.785156 26.835938 26.5625 26.835938 26.414062 C 26.835938 26.238281 25.976562 25.386719 25.144531 24.734375 C 23.539062 23.476562 21.625 22.703125 19.242188 22.363281 C 18.710938 22.285156 17.734375 22.253906 16.78125 22.257812 Z M 16.773438 22.261719 "/>
</g>
</svg>
