<svg xmlns="http://www.w3.org/2000/svg" xmlns:xlink="http://www.w3.org/1999/xlink" width="64px" height="64px" viewBox="0 0 64 64" version="1.1">
<defs>
<linearGradient id="linear0" gradientUnits="userSpaceOnUse" x1="0" y1="0" x2="0" y2="1" gradientTransform="matrix(55.351351,0,0,42.486486,4.324324,10.756757)">
<stop offset="0" style="stop-color:#00b7ff;stop-opacity:1;"/>
<stop offset="0.5" style="stop-color:#dddddd;stop-opacity:1;"/>
<stop offset="1" style="stop-color:#ee42d9;stop-opacity:1;"/>
</linearGradient>
</defs>
<g id="surface1">
<path style=" stroke:none;fill-rule:nonzero;fill:url(#linear0);" d="M 26.433594 10.757812 C 25.363281 10.789062 24.460938 11.445312 24.253906 12.339844 L 20.253906 29.394531 L 19.125 20.421875 C 19.003906 19.496094 18.148438 18.765625 17.066406 18.675781 C 15.988281 18.578125 14.972656 19.144531 14.636719 20.03125 L 11.058594 29.53125 L 4.324219 29.53125 L 4.324219 33.484375 L 12.738281 33.484375 C 13.738281 33.484375 14.621094 32.933594 14.933594 32.113281 L 15.699219 30.082031 L 17.269531 42.589844 C 17.390625 43.558594 18.320312 44.308594 19.457031 44.351562 C 20.59375 44.394531 21.597656 43.726562 21.824219 42.765625 L 25.792969 25.824219 L 28.933594 51.476562 C 29.054688 52.460938 30.011719 53.21875 31.171875 53.242188 C 32.324219 53.269531 33.324219 52.554688 33.503906 51.570312 L 37.585938 29.066406 L 40.355469 45.621094 C 40.515625 46.585938 41.472656 47.308594 42.609375 47.320312 C 43.742188 47.335938 44.71875 46.636719 44.914062 45.679688 L 47.800781 31.511719 L 48.460938 33.933594 C 48.707031 34.824219 49.636719 35.460938 50.707031 35.460938 L 59.675781 35.460938 L 59.675781 31.511719 L 52.539062 31.511719 L 49.726562 21.175781 C 49.476562 20.261719 48.511719 19.621094 47.414062 19.648438 C 46.320312 19.675781 45.394531 20.363281 45.207031 21.289062 L 42.863281 32.765625 L 39.960938 15.414062 C 39.800781 14.445312 38.835938 13.726562 37.6875 13.714844 C 36.550781 13.710938 35.570312 14.429688 35.394531 15.394531 L 31.671875 35.945312 L 28.800781 12.527344 C 28.675781 11.488281 27.636719 10.71875 26.433594 10.757812 Z M 26.433594 10.757812 "/>
</g>
</svg>
