<svg xmlns="http://www.w3.org/2000/svg" xmlns:xlink="http://www.w3.org/1999/xlink" width="64px" height="64px" viewBox="0 0 64 64" version="1.1">
<defs>
<linearGradient id="linear0" gradientUnits="userSpaceOnUse" x1="0" y1="0" x2="0" y2="1" gradientTransform="matrix(55.351351,0,0,47.045044,4.324324,8.477477)">
<stop offset="0" style="stop-color:#05f7ff;stop-opacity:1;"/>
<stop offset="0.5" style="stop-color:#dddddd;stop-opacity:1;"/>
<stop offset="1" style="stop-color:#e6ff05;stop-opacity:1;"/>
</linearGradient>
</defs>
<g id="surface1">
<path style=" stroke:none;fill-rule:nonzero;fill:url(#linear0);" d="M 25.734375 55.523438 C 24.613281 55.210938 23.097656 54.648438 22.121094 52.585938 C 20.789062 49.746094 20.792969 49.808594 21.960938 48.070312 C 23.582031 45.671875 26.511719 41.402344 26.511719 40.234375 C 26.511719 39.5 25.789062 38.917969 23.984375 38.21875 C 20.09375 36.710938 14.820312 34.160156 12.097656 32.160156 C 8.773438 29.699219 5.664062 25.09375 4.699219 21.886719 C 4.015625 19.632812 4.242188 19.144531 5.585938 19.972656 C 12.636719 24.023438 14.839844 24.660156 21.828125 25.289062 C 26.171875 25.097656 29.5625 22.539062 29.390625 19.476562 C 29.246094 17.171875 27.730469 15.210938 26.800781 12.261719 C 26.28125 10.59375 26.570312 10.011719 26.664062 9.375 C 26.730469 8.9375 26.902344 8.53125 27.039062 8.476562 C 27.808594 8.910156 28.320312 9.671875 29.058594 9.960938 C 30.808594 10.652344 32.652344 10.660156 34.511719 11.472656 C 36.410156 12.445312 37.257812 13.417969 37.675781 15.160156 C 37.984375 16.410156 38.8125 17.253906 39.671875 18.089844 C 40.078125 18.488281 40.410156 18.914062 40.410156 19.039062 C 40.410156 19.6875 38.3125 19.566406 36.585938 19.078125 C 35.0625 18.648438 34.632812 20.570312 34.789062 21.960938 C 35.015625 25.652344 39.828125 24.96875 43.945312 25.289062 C 47.378906 25.554688 53.234375 25.105469 57.6875 23.191406 C 58.617188 22.792969 59.511719 22.496094 59.675781 22.527344 C 58.160156 29.03125 51.632812 34.566406 45.988281 36.9375 C 43.207031 38.0625 39.1875 39.339844 37.984375 39.488281 C 34.984375 39.863281 33.957031 40.257812 33.46875 41.21875 C 32.917969 42.3125 32.105469 47.347656 31.800781 51.175781 C 31.082031 54.378906 27.8125 55.5 25.734375 55.523438 Z M 25.734375 55.523438 "/>
</g>
</svg>
