<svg xmlns="http://www.w3.org/2000/svg" xmlns:xlink="http://www.w3.org/1999/xlink" width="64px" height="64px" viewBox="0 0 64 64" version="1.1">
<defs>
<linearGradient id="linear0" gradientUnits="userSpaceOnUse" x1="0" y1="0" x2="0" y2="1" gradientTransform="matrix(55.351351,0,0,50.797297,4.324324,4.036036)">
<stop offset="0" style="stop-color:#ffae00;stop-opacity:1;"/>
<stop offset="0.5" style="stop-color:#dddddd;stop-opacity:1;"/>
<stop offset="1" style="stop-color:#bf1d1d;stop-opacity:1;"/>
</linearGradient>
</defs>
<g id="surface1">
<path style=" stroke:none;fill-rule:nonzero;fill:url(#linear0);" d="M 12.910156 4.039062 C 12.351562 4.148438 11.796875 4.269531 11.296875 4.417969 C 10.664062 4.609375 10.070312 4.824219 9.527344 5.070312 C 8.984375 5.320312 8.484375 5.59375 8.015625 5.90625 C 7.558594 6.21875 7.136719 6.5625 6.753906 6.945312 C 6.367188 7.328125 6.027344 7.753906 5.710938 8.210938 C 5.402344 8.671875 5.121094 9.171875 4.875 9.714844 C 4.664062 10.175781 4.488281 10.6875 4.324219 11.207031 C 4.429688 11.113281 4.511719 11.015625 4.617188 10.917969 C 7.09375 8.773438 11.011719 8.597656 15.914062 10.414062 C 24.625 13.636719 34.355469 18.914062 44.261719 31.488281 C 45.191406 32.675781 45.851562 34.210938 46.648438 35.207031 C 44.113281 35.253906 40.261719 35.003906 36.941406 34.410156 C 24.460938 32.164062 12.710938 27.066406 7.199219 21.320312 C 6.707031 20.800781 6.300781 20.417969 6.300781 20.460938 C 6.296875 20.511719 7.414062 22.765625 8.769531 25.476562 L 10.8125 30.214844 L 13.855469 31.6875 C 17.164062 33.3125 21.375 35.207031 30.523438 39.199219 C 40.539062 43.5625 45.027344 45.664062 49.578125 48.117188 C 53.226562 50.085938 56.933594 52.488281 58.800781 54.085938 C 59.4375 54.636719 59.585938 54.773438 59.644531 54.835938 C 59.644531 54.792969 59.6875 54.589844 59.671875 54.429688 C 59.550781 53.539062 58.851562 50.023438 58.203125 46.765625 C 58.0625 46.027344 57.910156 45.292969 57.765625 44.558594 C 57.699219 44.21875 57.609375 43.765625 57.550781 43.46875 C 57.457031 42.996094 57.347656 42.542969 57.246094 42.078125 C 55.875 35.476562 54.273438 28.929688 52.238281 22.484375 C 51.300781 19.542969 50.710938 18.121094 49.746094 16.378906 C 49.386719 15.734375 45.441406 13.085938 44.761719 12.730469 C 44.753906 12.726562 44.707031 12.675781 44.699219 12.675781 L 44.691406 12.6875 C 44.671875 12.671875 44.496094 12.554688 44.484375 12.550781 L 44.476562 12.554688 C 44.46875 12.550781 44.46875 12.550781 44.460938 12.550781 C 44.421875 12.585938 44.734375 13.261719 45.066406 13.847656 C 48.484375 19.851562 50.71875 29.597656 49.582031 34.644531 C 49.5625 34.71875 49.550781 34.800781 49.523438 34.882812 C 49.515625 34.882812 49.515625 34.890625 49.511719 34.894531 L 49.511719 34.902344 C 49.511719 34.894531 49.503906 34.894531 49.5 34.894531 C 49.472656 34.90625 49.402344 34.917969 49.367188 34.929688 C 48.4375 33.734375 47.617188 31.972656 46.484375 30.488281 C 39.488281 21.511719 26.726562 8.335938 13.542969 4.1875 C 13.320312 4.117188 13.125 4.089844 12.910156 4.039062 Z M 12.910156 4.039062 "/>
</g>
</svg>
