<svg xmlns="http://www.w3.org/2000/svg" xmlns:xlink="http://www.w3.org/1999/xlink" width="64px" height="64px" viewBox="0 0 64 64" version="1.1">
<defs>
<linearGradient id="linear0" gradientUnits="userSpaceOnUse" x1="0" y1="0" x2="0" y2="1" gradientTransform="matrix(55.351351,0,0,23.549551,4.324324,20.225223)">
<stop offset="0" style="stop-color:#00a2ff;stop-opacity:1;"/>
<stop offset="0.5" style="stop-color:#dddddd;stop-opacity:1;"/>
<stop offset="1" style="stop-color:#00ffae;stop-opacity:1;"/>
</linearGradient>
</defs>
<g id="surface1">
<path style=" stroke:none;fill-rule:nonzero;fill:url(#linear0);" d="M 31.988281 39.730469 L 31.988281 40.996094 C 31.234375 40.996094 30.613281 41.617188 30.613281 42.378906 C 30.613281 43.136719 31.234375 43.761719 31.988281 43.761719 L 33.378906 43.761719 C 34.136719 43.761719 34.761719 43.136719 34.761719 42.378906 L 34.761719 39.730469 Z M 18.164062 41.003906 C 17.40625 41.003906 16.785156 41.625 16.785156 42.386719 C 16.785156 43.148438 17.40625 43.773438 18.164062 43.773438 L 19.550781 43.773438 C 20.308594 43.773438 20.929688 43.148438 20.929688 42.386719 L 20.929688 39.738281 C 19.972656 39.730469 19.039062 39.589844 18.164062 39.324219 Z M 23.351562 38.230469 L 26.808594 38.230469 L 26.808594 20.253906 C 25.644531 20.289062 24.488281 20.378906 23.351562 20.550781 Z M 13.265625 26.542969 C 13.148438 26.839844 13.042969 27.144531 12.957031 27.457031 C 12.746094 28.179688 12.644531 28.941406 12.644531 29.726562 L 12.644531 29.863281 C 12.644531 31.300781 13.011719 32.664062 13.660156 33.851562 C 13.785156 34.09375 13.921875 34.320312 14.070312 34.539062 C 14.449219 35.09375 14.890625 35.609375 15.386719 36.0625 C 15.585938 36.246094 15.792969 36.40625 16.011719 36.570312 C 16.550781 36.972656 17.125 37.308594 17.761719 37.570312 C 18.382812 37.835938 19.050781 38.023438 19.742188 38.136719 C 20.160156 38.207031 20.585938 38.230469 21.023438 38.230469 L 21.3125 38.230469 L 21.3125 20.957031 C 20.308594 21.1875 19.320312 21.472656 18.324219 21.808594 C 15.960938 22.613281 14.164062 24.363281 13.265625 26.542969 Z M 28.882812 38.230469 L 32.335938 38.230469 L 32.335938 20.664062 C 31.199219 20.472656 30.039062 20.347656 28.882812 20.289062 Z M 42.023438 25.820312 C 41.960938 25.726562 41.917969 25.632812 41.863281 25.539062 C 41.699219 25.265625 41.511719 25 41.3125 24.746094 C 41.191406 24.570312 41.054688 24.410156 40.902344 24.253906 C 39.945312 23.191406 38.734375 22.40625 37.386719 21.941406 C 36.394531 21.613281 35.40625 21.324219 34.414062 21.082031 L 34.414062 38.230469 L 34.703125 38.230469 C 39.324219 38.230469 43.070312 34.484375 43.070312 29.863281 C 43.070312 29.191406 42.988281 28.539062 42.835938 27.90625 C 42.652344 27.164062 42.378906 26.460938 42.023438 25.820312 Z M 11.136719 29.726562 C 11.136719 28.355469 11.421875 27.027344 11.941406 25.820312 C 6.328125 26.414062 4.324219 34.390625 4.324219 38.230469 L 7.089844 38.230469 L 12.984375 35.613281 C 11.773438 33.9375 11.121094 31.929688 11.121094 29.863281 L 11.121094 29.726562 Z M 12.621094 23.636719 C 12.609375 23.5 12.578125 23.339844 12.539062 23.1875 C 12.472656 22.863281 12.347656 22.542969 12.1875 22.21875 C 12.011719 21.902344 11.792969 21.609375 11.539062 21.347656 C 11.273438 21.089844 10.984375 20.863281 10.664062 20.6875 C 10.351562 20.511719 10.015625 20.402344 9.691406 20.335938 C 9.539062 20.296875 9.382812 20.269531 9.242188 20.253906 C 9.105469 20.238281 8.96875 20.226562 8.863281 20.226562 C 8.746094 20.226562 8.660156 20.238281 8.589844 20.238281 C 8.554688 20.238281 8.53125 20.238281 8.511719 20.253906 L 8.488281 20.253906 L 8.488281 20.269531 C 8.488281 20.289062 8.472656 20.320312 8.472656 20.355469 C 8.472656 20.410156 8.460938 20.511719 8.460938 20.632812 C 8.460938 20.746094 8.472656 20.875 8.488281 21.023438 C 8.496094 21.164062 8.53125 21.324219 8.566406 21.472656 C 8.636719 21.792969 8.761719 22.132812 8.921875 22.441406 C 9.09375 22.753906 9.3125 23.050781 9.582031 23.3125 C 9.847656 23.566406 10.132812 23.800781 10.457031 23.960938 C 10.765625 24.136719 11.105469 24.253906 11.421875 24.320312 C 11.585938 24.355469 11.734375 24.375 11.875 24.402344 C 12.011719 24.410156 12.148438 24.421875 12.253906 24.421875 C 12.367188 24.421875 12.460938 24.410156 12.53125 24.410156 C 12.5625 24.410156 12.589844 24.410156 12.609375 24.402344 L 12.636719 24.402344 L 12.636719 24.375 C 12.636719 24.363281 12.644531 24.328125 12.644531 24.296875 C 12.644531 24.238281 12.652344 24.136719 12.652344 24.015625 C 12.644531 23.914062 12.636719 23.773438 12.621094 23.636719 Z M 43.738281 33.917969 L 43.710938 33.886719 C 42.917969 35.664062 41.617188 37.164062 39.96875 38.207031 C 42.664062 39.808594 45.742188 40.691406 48.886719 40.761719 L 59.675781 40.996094 L 49.839844 37.960938 C 47.457031 37.242188 45.335938 35.835938 43.738281 33.917969 Z M 43.738281 33.917969 "/>
</g>
</svg>
