<svg xmlns="http://www.w3.org/2000/svg" xmlns:xlink="http://www.w3.org/1999/xlink" width="64px" height="64px" viewBox="0 0 64 64" version="1.1">
<defs>
<linearGradient id="linear0" gradientUnits="userSpaceOnUse" x1="0" y1="0" x2="0" y2="1" gradientTransform="matrix(55.351351,0,0,51.081081,4.324324,6.459459)">
<stop offset="0" style="stop-color:#ffae00;stop-opacity:1;"/>
<stop offset="0.5" style="stop-color:#dddddd;stop-opacity:1;"/>
<stop offset="1" style="stop-color:#bf1d1d;stop-opacity:1;"/>
</linearGradient>
</defs>
<g id="surface1">
<path style=" stroke:none;fill-rule:nonzero;fill:url(#linear0);" d="M 32.203125 6.460938 C 29.757812 6.378906 27.542969 7.835938 26.742188 10.054688 L 22.554688 21.644531 L 9.789062 21.882812 C 7.414062 21.929688 5.328125 23.410156 4.597656 25.578125 C 3.863281 27.742188 4.644531 30.121094 6.539062 31.496094 L 16.707031 38.902344 L 13.011719 50.644531 C 12.324219 52.824219 13.144531 55.179688 15.066406 56.523438 C 16.988281 57.863281 19.582031 57.882812 21.523438 56.582031 L 32 49.570312 L 42.476562 56.582031 C 44.417969 57.882812 47.011719 57.863281 48.933594 56.523438 C 50.855469 55.179688 51.675781 52.824219 50.988281 50.644531 L 47.292969 38.902344 L 57.460938 31.496094 C 59.355469 30.121094 60.136719 27.742188 59.402344 25.578125 C 58.671875 23.410156 56.585938 21.929688 54.210938 21.882812 L 41.445312 21.644531 L 37.257812 10.054688 C 36.5 7.96875 34.496094 6.539062 32.203125 6.460938 Z M 32 14.300781 L 35.441406 23.8125 C 36.339844 26.300781 38.6875 27.976562 41.328125 28.027344 L 51.121094 28.210938 L 43.53125 33.738281 C 41.3125 35.351562 40.375 38.207031 41.191406 40.820312 L 44.085938 49.976562 L 35.550781 44.265625 C 33.402344 42.828125 30.597656 42.828125 28.449219 44.265625 L 19.914062 49.976562 L 22.808594 40.820312 C 23.625 38.207031 22.6875 35.351562 20.46875 33.738281 L 12.878906 28.210938 L 22.671875 28.027344 C 25.3125 27.976562 27.660156 26.300781 28.558594 23.8125 Z M 32 14.300781 "/>
</g>
</svg>
