<svg xmlns="http://www.w3.org/2000/svg" xmlns:xlink="http://www.w3.org/1999/xlink" width="64px" height="64px" viewBox="0 0 64 64" version="1.1">
<defs>
<linearGradient id="linear0" gradientUnits="userSpaceOnUse" x1="0" y1="0" x2="0" y2="1" gradientTransform="matrix(55.351351,0,0,35.815314,4.324324,14.09009)">
<stop offset="0" style="stop-color:#05f7ff;stop-opacity:1;"/>
<stop offset="0.5" style="stop-color:#dddddd;stop-opacity:1;"/>
<stop offset="1" style="stop-color:#e6ff05;stop-opacity:1;"/>
</linearGradient>
</defs>
<g id="surface1">
<path style=" stroke:none;fill-rule:evenodd;fill:url(#linear0);" d="M 6.757812 14.335938 C 6.890625 14.171875 7.0625 14.089844 7.289062 14.089844 L 12.558594 14.089844 C 12.785156 14.089844 12.960938 14.164062 13.085938 14.320312 C 13.210938 14.472656 13.28125 14.6875 13.28125 14.957031 L 13.28125 16.308594 L 11.136719 16.308594 L 11.136719 15.78125 L 8.703125 15.78125 L 8.703125 16.050781 L 12.863281 17.496094 C 13.023438 17.542969 13.132812 17.632812 13.1875 17.746094 C 13.246094 17.863281 13.28125 18.003906 13.28125 18.179688 L 13.28125 19.917969 C 13.28125 20.1875 13.210938 20.40625 13.082031 20.570312 C 12.949219 20.730469 12.769531 20.808594 12.550781 20.808594 L 7.289062 20.808594 C 7.0625 20.808594 6.890625 20.730469 6.757812 20.570312 C 6.625 20.40625 6.5625 20.1875 6.5625 19.917969 L 6.5625 18.433594 L 8.703125 18.433594 L 8.703125 19.121094 L 11.136719 19.121094 L 11.136719 18.839844 L 6.960938 17.378906 C 6.808594 17.328125 6.703125 17.246094 6.644531 17.144531 C 6.589844 17.03125 6.5625 16.886719 6.5625 16.710938 L 6.5625 14.984375 C 6.5625 14.710938 6.625 14.496094 6.757812 14.335938 Z M 15.515625 20.808594 L 15.515625 14.089844 L 21.527344 14.089844 C 21.753906 14.089844 21.917969 14.171875 22.039062 14.335938 C 22.164062 14.496094 22.230469 14.710938 22.230469 14.984375 L 22.230469 18.21875 C 22.230469 18.488281 22.164062 18.707031 22.039062 18.867188 C 21.910156 19.027344 21.734375 19.113281 21.511719 19.113281 L 17.660156 19.113281 L 17.660156 20.808594 Z M 24.46875 20.808594 L 24.46875 14.089844 L 31.125 14.089844 L 31.125 16 L 26.660156 16 L 26.660156 16.539062 L 30.0625 16.539062 L 30.0625 18.300781 L 26.660156 18.300781 L 26.660156 18.902344 L 31.1875 18.902344 L 31.1875 20.808594 Z M 33.597656 14.335938 C 33.71875 14.171875 33.886719 14.089844 34.105469 14.089844 L 39.449219 14.089844 C 39.664062 14.089844 39.828125 14.171875 39.949219 14.335938 C 40.078125 14.496094 40.136719 14.710938 40.136719 14.984375 L 40.136719 16.921875 L 38.089844 16.921875 L 38.089844 15.910156 L 35.472656 15.910156 L 35.472656 18.988281 L 38.089844 18.988281 L 38.089844 17.972656 L 40.136719 17.972656 L 40.136719 19.917969 C 40.136719 20.1875 40.070312 20.40625 39.945312 20.570312 C 39.824219 20.730469 39.664062 20.808594 39.449219 20.808594 L 34.105469 20.808594 C 33.886719 20.808594 33.71875 20.730469 33.597656 20.570312 C 33.484375 20.40625 33.421875 20.1875 33.421875 19.917969 L 33.421875 14.984375 C 33.421875 14.710938 33.484375 14.496094 33.597656 14.335938 Z M 20.089844 15.910156 L 17.660156 15.910156 L 17.660156 17.355469 L 20.089844 17.355469 Z M 33.597656 23.292969 C 33.71875 23.125 33.886719 23.042969 34.105469 23.042969 L 39.460938 23.042969 C 39.675781 23.042969 39.839844 23.125 39.960938 23.292969 C 40.082031 23.449219 40.136719 23.664062 40.136719 23.933594 L 40.136719 28.875 C 40.136719 29.144531 40.078125 29.363281 39.957031 29.527344 C 39.835938 29.6875 39.675781 29.761719 39.460938 29.761719 L 34.105469 29.761719 C 33.886719 29.761719 33.71875 29.6875 33.597656 29.527344 C 33.484375 29.363281 33.421875 29.144531 33.421875 28.875 L 33.421875 23.933594 C 33.421875 23.664062 33.484375 23.449219 33.597656 23.292969 Z M 42.378906 29.761719 L 42.378906 23.042969 L 48.382812 23.042969 C 48.609375 23.042969 48.78125 23.125 48.902344 23.292969 C 49.027344 23.449219 49.09375 23.664062 49.09375 23.933594 L 49.09375 27.175781 C 49.09375 27.445312 49.027344 27.664062 48.894531 27.824219 C 48.769531 27.984375 48.59375 28.0625 48.375 28.0625 L 44.515625 28.0625 L 44.515625 29.761719 Z M 51.527344 23.292969 C 51.664062 23.125 51.835938 23.042969 52.058594 23.042969 L 57.328125 23.042969 C 57.554688 23.042969 57.730469 23.125 57.855469 23.28125 C 57.984375 23.429688 58.042969 23.644531 58.042969 23.910156 L 58.042969 25.261719 L 55.90625 25.261719 L 55.90625 24.734375 L 53.472656 24.734375 L 53.472656 25.011719 L 57.636719 26.445312 C 57.792969 26.5 57.902344 26.585938 57.957031 26.703125 C 58.015625 26.8125 58.042969 26.960938 58.042969 27.136719 L 58.042969 28.875 C 58.042969 29.144531 57.984375 29.363281 57.851562 29.527344 C 57.71875 29.6875 57.539062 29.761719 57.3125 29.761719 L 52.058594 29.761719 C 51.835938 29.761719 51.664062 29.6875 51.527344 29.527344 C 51.394531 29.363281 51.335938 29.144531 51.335938 28.875 L 51.335938 27.386719 L 53.472656 27.386719 L 53.472656 28.070312 L 55.910156 28.070312 L 55.910156 27.792969 L 51.738281 26.335938 C 51.582031 26.28125 51.46875 26.203125 51.414062 26.097656 C 51.363281 25.988281 51.335938 25.847656 51.335938 25.671875 L 51.335938 23.933594 C 51.335938 23.664062 51.394531 23.449219 51.527344 23.292969 Z M 38.089844 24.863281 L 35.472656 24.863281 L 35.472656 27.941406 L 38.089844 27.941406 Z M 46.949219 24.863281 L 44.515625 24.863281 L 44.515625 26.308594 L 46.949219 26.308594 Z M 4.335938 37.511719 L 4.367188 36.476562 L 11.1875 36.476562 L 11.21875 37.378906 C 11.242188 37.921875 11.203125 38.347656 11.121094 38.445312 C 11.03125 38.554688 10.648438 38.625 10.089844 38.648438 L 9.203125 38.6875 L 9.238281 42.132812 C 9.261719 43.414062 9.300781 45.617188 9.328125 47.03125 C 9.363281 48.757812 9.335938 49.652344 9.242188 49.761719 C 9.148438 49.867188 8.761719 49.914062 7.917969 49.90625 C 7.261719 49.894531 6.625 49.863281 6.511719 49.835938 C 6.394531 49.808594 6.269531 49.679688 6.234375 49.558594 C 6.191406 49.441406 6.1875 47.210938 6.214844 44.605469 L 6.269531 38.746094 L 5.441406 38.742188 C 4.988281 38.742188 4.542969 38.699219 4.457031 38.644531 C 4.339844 38.566406 4.308594 38.253906 4.335938 37.511719 Z M 12.324219 37.085938 L 12.410156 36.476562 L 15.011719 36.476562 L 15.070312 38.566406 L 15.136719 41.769531 L 16.203125 41.808594 L 17.273438 41.839844 L 17.363281 41.082031 C 17.414062 40.664062 17.433594 38.589844 17.410156 37.839844 L 17.363281 36.476562 L 18.726562 36.488281 L 20.089844 36.503906 L 20.089844 42.355469 C 20.089844 44.960938 20.050781 47.136719 19.996094 47.1875 C 19.941406 47.238281 19.835938 47.210938 19.757812 47.136719 C 19.53125 46.914062 19.1875 46.960938 19.039062 47.234375 C 18.839844 47.59375 18.664062 47.539062 18.664062 47.113281 C 18.664062 46.820312 18.609375 46.742188 18.410156 46.742188 C 18.199219 46.742188 18.160156 46.8125 18.191406 47.125 C 18.230469 47.484375 18.289062 47.527344 19.09375 47.773438 L 19.957031 48.039062 L 19.960938 48.960938 L 19.96875 49.875 L 16.988281 49.875 L 16.96875 48.585938 C 16.957031 47.878906 16.988281 46.910156 17.054688 46.441406 C 17.160156 45.664062 17.132812 45.355469 16.863281 44.085938 C 16.8125 43.851562 16.746094 43.828125 16.28125 43.886719 C 15.875 43.9375 15.636719 43.960938 15.496094 44.09375 C 15.292969 44.289062 15.308594 44.714844 15.335938 45.796875 L 15.375 47.410156 L 15.066406 47.476562 L 14.761719 47.554688 L 15.039062 47.789062 C 15.273438 47.988281 15.3125 48.148438 15.3125 48.78125 C 15.3125 49.238281 15.257812 49.585938 15.164062 49.664062 C 14.976562 49.8125 14.28125 49.96875 14.1875 49.882812 C 14.152344 49.847656 13.6875 49.808594 13.144531 49.785156 L 12.160156 49.753906 L 12.191406 44.28125 C 12.214844 41.273438 12.273438 37.417969 12.324219 37.085938 Z M 39.757812 37.296875 C 39.757812 37.027344 41.269531 36.496094 41.941406 36.476562 C 42.039062 36.476562 42.117188 36.488281 42.171875 36.503906 C 42.335938 36.570312 42.363281 36.9375 42.328125 39.328125 L 42.328125 39.363281 C 42.300781 41.726562 42.285156 43.132812 42.113281 43.148438 L 40.089844 43.191406 C 40.039062 43.1875 40.015625 43.175781 39.988281 43.164062 C 39.960938 43.160156 39.933594 43.144531 39.847656 43.132812 L 39.132812 42.988281 L 39.164062 40.734375 L 39.199219 37.363281 L 39.476562 37.386719 C 39.632812 37.40625 39.757812 37.363281 39.757812 37.296875 Z M 45.582031 36.488281 C 45.710938 36.484375 45.8125 36.476562 45.878906 36.476562 C 46.164062 36.472656 46.265625 36.59375 46.691406 37.460938 C 46.960938 38.003906 47.292969 38.851562 47.421875 39.335938 C 47.523438 39.703125 47.621094 40.148438 47.714844 40.566406 C 47.890625 41.363281 48.054688 42.078125 48.160156 42.011719 C 48.226562 41.960938 48.28125 39.929688 48.28125 38.746094 C 48.28125 37.417969 48.242188 36.886719 48.488281 36.671875 C 48.679688 36.503906 49.054688 36.539062 49.773438 36.539062 L 50.714844 36.53125 L 50.796875 39.082031 C 50.855469 40.878906 50.835938 42.796875 50.738281 42.917969 C 50.734375 42.921875 50.726562 42.921875 50.714844 42.929688 C 50.707031 42.933594 50.703125 42.9375 50.699219 42.9375 L 43.921875 43.089844 C 43.894531 43.082031 43.867188 43.078125 43.847656 43.070312 C 43.8125 43.0625 43.78125 43.058594 43.757812 43.039062 C 43.558594 42.890625 43.539062 42.773438 43.625 42.1875 C 43.761719 41.253906 43.757812 39.835938 43.585938 38.289062 C 43.503906 37.550781 43.472656 36.855469 43.515625 36.738281 C 43.578125 36.578125 43.796875 36.53125 44.570312 36.511719 C 44.933594 36.5 45.3125 36.488281 45.582031 36.488281 Z M 21.171875 36.585938 C 21.253906 36.503906 22.863281 36.472656 24.488281 36.484375 L 24.488281 36.476562 C 26.113281 36.488281 27.753906 36.539062 27.910156 36.621094 C 28.097656 36.71875 28.136719 36.890625 28.136719 37.597656 C 28.136719 38.070312 28.121094 38.46875 28.105469 38.476562 C 28.089844 38.488281 27.1875 38.527344 26.089844 38.566406 L 24.109375 38.636719 L 24.070312 40.699219 C 24.042969 41.367188 24.085938 41.671875 24.203125 41.769531 C 24.296875 41.847656 24.949219 41.929688 25.664062 41.945312 L 26.960938 41.984375 L 26.996094 43.058594 C 27.03125 44.121094 27.027344 44.132812 26.710938 44.210938 C 26.539062 44.257812 26.171875 44.257812 25.902344 44.210938 C 25.636719 44.171875 25.109375 44.171875 24.730469 44.214844 L 24.050781 44.292969 L 24.050781 45.875 C 24.050781 46.890625 24 47.484375 23.910156 47.539062 C 23.570312 47.742188 24.234375 47.835938 26.121094 47.835938 L 28.136719 47.835938 L 28.136719 48.808594 C 28.136719 49.582031 28.097656 49.796875 27.941406 49.855469 C 27.746094 49.933594 24.039062 49.917969 22.339844 49.839844 C 21.847656 49.8125 21.441406 49.742188 21.441406 49.675781 C 21.441406 49.609375 21.527344 49.386719 21.632812 49.1875 C 21.773438 48.910156 21.789062 48.769531 21.675781 48.527344 C 21.421875 47.972656 21.589844 47.835938 22.550781 47.835938 C 23.445312 47.835938 23.8125 47.660156 23.214844 47.511719 C 22.636719 47.378906 22.539062 47.234375 22.625 46.660156 C 22.691406 46.207031 22.671875 46.113281 22.417969 45.941406 C 22.261719 45.828125 22.015625 45.738281 21.875 45.738281 C 21.414062 45.738281 21.320312 45.5 21.320312 44.347656 C 21.320312 43.738281 21.261719 40.910156 21.1875 39.417969 C 21.09375 37.617188 21.089844 36.664062 21.171875 36.585938 Z M 52.757812 36.550781 C 52.8125 36.503906 53.238281 36.488281 53.839844 36.484375 C 55.660156 36.460938 59.105469 36.585938 59.261719 36.714844 C 59.375 36.8125 59.429688 37.152344 59.429688 37.71875 L 59.429688 38.582031 L 57.257812 38.582031 C 55.285156 38.378906 54.824219 38.648438 55.214844 38.890625 C 55.285156 38.933594 55.335938 40.433594 55.339844 40.863281 C 55.339844 41.289062 55.382812 41.703125 55.433594 41.78125 C 55.488281 41.863281 56.050781 41.957031 56.8125 41.988281 C 57.515625 42.03125 58.152344 42.113281 58.214844 42.179688 C 58.285156 42.242188 58.3125 42.421875 58.292969 42.582031 C 58.285156 42.660156 58.265625 42.710938 58.226562 42.753906 L 52.449219 42.886719 L 52.523438 39.230469 C 52.578125 37.3125 52.636719 36.636719 52.757812 36.550781 Z M 32.308594 38.5625 C 32.296875 36.855469 32.292969 36.527344 32.9375 36.488281 L 32.9375 36.484375 C 33.085938 36.472656 33.273438 36.476562 33.503906 36.488281 C 33.648438 36.488281 33.808594 36.496094 33.984375 36.496094 L 35.226562 36.503906 L 35.246094 40.550781 C 35.261719 41.960938 35.308594 43.027344 35.355469 43.328125 L 34.421875 43.351562 C 34.328125 43.328125 34.1875 43.324219 33.933594 43.363281 C 33.59375 43.40625 33.09375 43.40625 32.820312 43.363281 L 32.3125 43.28125 L 32.3125 39.375 C 32.3125 39.070312 32.308594 38.808594 32.308594 38.5625 Z M 52.863281 43.390625 L 58.5625 43.375 L 58.5625 43.632812 C 58.5625 44.027344 58.53125 44.058594 58.097656 44.125 C 57.839844 44.164062 57.113281 44.214844 56.484375 44.234375 L 55.339844 44.265625 L 55.339844 45.660156 C 55.339844 46.632812 55.335938 47.121094 55.582031 47.375 C 55.828125 47.625 56.335938 47.636719 57.351562 47.652344 C 58.496094 47.671875 59 47.734375 59.289062 47.882812 C 59.664062 48.082031 59.675781 48.117188 59.675781 48.890625 C 59.675781 49.335938 59.636719 49.71875 59.585938 49.753906 C 59.40625 49.863281 52.917969 49.96875 52.765625 49.863281 C 52.644531 49.78125 52.636719 49.539062 52.757812 48.71875 C 52.882812 47.8125 52.875 47.613281 52.6875 47.089844 C 52.511719 46.582031 52.496094 46.296875 52.597656 45.039062 C 52.664062 44.234375 52.773438 43.5 52.863281 43.390625 Z M 44.460938 43.421875 L 50.726562 43.402344 C 50.941406 43.429688 51.078125 43.460938 51.121094 43.515625 C 51.226562 43.644531 51.253906 44.527344 51.226562 46.621094 C 51.199219 48.820312 51.207031 49.550781 50.867188 49.789062 C 50.6875 49.921875 50.390625 49.90625 49.933594 49.90625 C 49.289062 49.90625 49.109375 49.855469 48.886719 49.621094 C 48.457031 49.164062 48.160156 48.605469 48.160156 48.265625 C 48.152344 47.875 46.789062 43.839844 46.660156 43.839844 C 46.496094 43.839844 46.378906 46.214844 46.449219 48.039062 C 46.511719 49.488281 46.488281 49.773438 46.335938 49.835938 C 46.097656 49.929688 44.558594 49.910156 44.3125 49.8125 C 43.972656 49.679688 43.933594 49.472656 43.921875 47.441406 C 43.917969 46.328125 43.90625 44.996094 43.894531 44.472656 C 43.878906 43.527344 43.878906 43.527344 44.214844 43.488281 C 44.320312 43.476562 44.40625 43.449219 44.460938 43.421875 Z M 41.335938 43.4375 C 41.484375 43.457031 41.660156 43.460938 41.875 43.433594 L 42.429688 43.433594 C 42.503906 43.46875 42.550781 43.539062 42.597656 43.664062 C 42.765625 44.105469 42.800781 49.203125 42.644531 49.589844 C 42.515625 49.894531 42.503906 49.902344 40.949219 49.90625 C 40.085938 49.910156 39.351562 49.886719 39.3125 49.855469 C 39.171875 49.707031 39.273438 47.5625 39.445312 47.148438 C 39.550781 46.902344 39.632812 46.515625 39.632812 46.289062 C 39.632812 45.945312 39.671875 45.882812 39.851562 45.949219 C 39.96875 45.988281 40.164062 46.136719 40.292969 46.265625 C 40.761719 46.753906 41.0625 46.011719 40.6875 45.289062 C 40.539062 45.003906 40.40625 44.917969 39.976562 44.867188 L 39.445312 44.8125 L 39.445312 43.566406 L 40.1875 43.5 C 40.390625 43.484375 40.539062 43.460938 40.632812 43.441406 Z M 34.445312 43.460938 L 35.363281 43.460938 C 35.363281 43.460938 35.367188 43.484375 35.367188 43.5 C 35.367188 43.523438 35.367188 43.542969 35.375 43.542969 C 35.429688 43.585938 35.488281 44.269531 35.503906 45.058594 C 35.523438 45.851562 35.542969 46.636719 35.5625 46.808594 C 35.589844 47.058594 35.515625 47.136719 35.164062 47.261719 C 34.746094 47.402344 34.742188 47.410156 35.039062 47.472656 C 35.53125 47.582031 36.902344 47.71875 37.582031 47.734375 L 38.199219 47.746094 L 38.273438 48.679688 C 38.3125 49.191406 38.320312 49.6875 38.289062 49.773438 C 38.257812 49.863281 38.0625 49.917969 37.839844 49.90625 C 37.632812 49.886719 36.367188 49.847656 35.039062 49.8125 L 32.621094 49.742188 L 32.589844 46.824219 C 32.566406 44.773438 32.59375 43.851562 32.699219 43.730469 C 32.792969 43.617188 33.117188 43.558594 33.6875 43.558594 C 34.117188 43.558594 34.347656 43.523438 34.445312 43.460938 Z M 34.445312 43.460938 "/>
</g>
</svg>
