<svg xmlns="http://www.w3.org/2000/svg" xmlns:xlink="http://www.w3.org/1999/xlink" width="64px" height="64px" viewBox="0 0 64 64" version="1.1">
<defs>
<linearGradient id="linear0" gradientUnits="userSpaceOnUse" x1="0" y1="0" x2="0" y2="1" gradientTransform="matrix(38.198199,0,0,55.351351,12.900901,4.324324)">
<stop offset="0" style="stop-color:#ffae00;stop-opacity:1;"/>
<stop offset="0.5" style="stop-color:#dddddd;stop-opacity:1;"/>
<stop offset="1" style="stop-color:#bf1d1d;stop-opacity:1;"/>
</linearGradient>
</defs>
<g id="surface1">
<path style=" stroke:none;fill-rule:evenodd;fill:url(#linear0);" d="M 23.921875 38.636719 C 17.664062 35.636719 12.902344 29.761719 12.902344 22.613281 C 12.902344 12.515625 21.460938 4.324219 32 4.324219 C 42.539062 4.324219 51.097656 12.515625 51.097656 22.613281 C 51.097656 29.820312 46.785156 36.164062 40.441406 39.144531 C 39.808594 39.820312 39.179688 46.648438 43.308594 59.675781 L 19.851562 59.652344 C 20.902344 47.972656 22.261719 40.96875 23.921875 38.636719 Z M 23.136719 57.960938 C 23.894531 48.226562 25.539062 40.515625 28.027344 34.796875 C 24.765625 32.214844 22.742188 29.53125 21.914062 26.691406 L 23.136719 26.265625 C 25.40625 29.617188 27.175781 31.664062 29.785156 32.363281 C 30.421875 25.6875 30.410156 19.472656 29.707031 13.699219 C 31.847656 15.800781 33.386719 18.734375 33.066406 20.933594 L 37.421875 17.273438 L 38.039062 18.570312 L 34.136719 23.828125 C 35.660156 26.300781 36.191406 30.039062 35.742188 35.027344 C 37.296875 34.1875 38.8125 32.90625 40.253906 31.144531 L 40.476562 32.511719 C 40.082031 34.136719 38.644531 36.03125 36.585938 38.460938 C 36.828125 46.605469 38.0625 53.121094 40.253906 57.960938 Z M 23.136719 57.960938 "/>
</g>
</svg>
