<svg xmlns="http://www.w3.org/2000/svg" xmlns:xlink="http://www.w3.org/1999/xlink" width="64px" height="64px" viewBox="0 0 64 64" version="1.1">
<defs>
<linearGradient id="linear0" gradientUnits="userSpaceOnUse" x1="0" y1="0" x2="0" y2="1" gradientTransform="matrix(55.351351,0,0,36.671172,4.324324,13.662162)">
<stop offset="0" style="stop-color:#05f7ff;stop-opacity:1;"/>
<stop offset="0.5" style="stop-color:#dddddd;stop-opacity:1;"/>
<stop offset="1" style="stop-color:#e6ff05;stop-opacity:1;"/>
</linearGradient>
</defs>
<g id="surface1">
<path style=" stroke:none;fill-rule:nonzero;fill:url(#linear0);" d="M 25.269531 13.664062 C 23.011719 13.664062 20.785156 13.769531 18.636719 13.960938 C 16.488281 14.148438 14.414062 14.421875 12.445312 14.785156 C 10.476562 15.144531 8.621094 15.585938 6.90625 16.109375 C 6.421875 16.253906 6 16.496094 5.636719 16.796875 C 5.269531 17.097656 4.976562 17.46875 4.757812 17.878906 C 4.539062 18.289062 4.394531 18.738281 4.339844 19.210938 C 4.292969 19.679688 4.335938 20.164062 4.476562 20.648438 C 4.625 21.132812 4.863281 21.554688 5.164062 21.917969 C 5.460938 22.285156 5.835938 22.578125 6.246094 22.796875 C 6.664062 23.015625 7.113281 23.152344 7.582031 23.203125 C 8.050781 23.253906 8.53125 23.210938 9.011719 23.066406 C 10.511719 22.613281 12.144531 22.226562 13.878906 21.914062 C 15.613281 21.597656 17.449219 21.363281 19.355469 21.191406 C 21.265625 21.03125 23.242188 20.9375 25.257812 20.933594 C 27.269531 20.921875 29.328125 21 31.382812 21.164062 C 33.441406 21.324219 35.511719 21.570312 37.539062 21.914062 C 39.570312 22.253906 41.578125 22.6875 43.515625 23.210938 C 45.460938 23.734375 47.347656 24.363281 49.136719 25.085938 C 50.921875 25.8125 52.617188 26.636719 54.179688 27.566406 C 54.613281 27.824219 55.082031 27.976562 55.550781 28.039062 C 56.011719 28.105469 56.488281 28.078125 56.9375 27.960938 C 57.390625 27.839844 57.8125 27.644531 58.199219 27.363281 C 58.578125 27.085938 58.90625 26.71875 59.164062 26.292969 C 59.417969 25.863281 59.578125 25.402344 59.636719 24.933594 C 59.707031 24.460938 59.675781 23.988281 59.5625 23.539062 C 59.445312 23.089844 59.246094 22.660156 58.96875 22.273438 C 58.6875 21.894531 58.324219 21.566406 57.890625 21.3125 C 56.988281 20.773438 56.058594 20.273438 55.09375 19.796875 C 54.132812 19.320312 53.136719 18.878906 52.121094 18.460938 C 50.089844 17.625 47.960938 16.90625 45.769531 16.296875 C 43.578125 15.6875 41.324219 15.199219 39.039062 14.808594 C 36.757812 14.410156 34.449219 14.121094 32.136719 13.933594 C 29.835938 13.742188 27.53125 13.660156 25.269531 13.664062 Z M 25.960938 27.058594 C 24.03125 27.015625 22.105469 27.066406 20.191406 27.214844 C 18.289062 27.363281 16.394531 27.609375 14.539062 27.945312 C 12.6875 28.285156 10.863281 28.71875 9.105469 29.257812 C 8.703125 29.378906 8.339844 29.570312 8.039062 29.824219 C 7.738281 30.078125 7.496094 30.386719 7.3125 30.730469 C 7.125 31.070312 7.011719 31.445312 6.96875 31.835938 C 6.921875 32.230469 6.960938 32.636719 7.082031 33.03125 C 7.203125 33.433594 7.40625 33.792969 7.652344 34.09375 C 7.90625 34.394531 8.210938 34.636719 8.554688 34.824219 C 8.894531 35.011719 9.269531 35.125 9.664062 35.164062 C 10.054688 35.210938 10.460938 35.175781 10.863281 35.054688 C 12.410156 34.585938 14.011719 34.203125 15.648438 33.90625 C 17.289062 33.609375 18.960938 33.40625 20.664062 33.273438 C 22.363281 33.148438 24.078125 33.109375 25.796875 33.148438 C 27.515625 33.1875 29.242188 33.308594 30.949219 33.511719 C 32.664062 33.707031 34.351562 33.988281 36.011719 34.347656 C 37.675781 34.703125 39.300781 35.132812 40.878906 35.644531 C 42.457031 36.152344 43.988281 36.734375 45.445312 37.390625 C 46.90625 38.050781 48.296875 38.785156 49.605469 39.585938 C 49.960938 39.808594 50.339844 39.941406 50.730469 40 C 51.117188 40.058594 51.511719 40.042969 51.890625 39.949219 C 52.269531 39.863281 52.632812 39.703125 52.957031 39.472656 C 53.273438 39.242188 53.550781 38.945312 53.769531 38.589844 C 53.988281 38.234375 54.132812 37.847656 54.1875 37.460938 C 54.246094 37.070312 54.226562 36.675781 54.136719 36.296875 C 54.042969 35.917969 53.882812 35.5625 53.660156 35.242188 C 53.429688 34.921875 53.136719 34.636719 52.773438 34.417969 C 51.273438 33.496094 49.6875 32.660156 48.039062 31.90625 C 46.378906 31.152344 44.648438 30.484375 42.867188 29.894531 C 41.09375 29.3125 39.265625 28.824219 37.40625 28.417969 C 35.542969 28.011719 33.644531 27.691406 31.730469 27.460938 C 29.8125 27.238281 27.886719 27.105469 25.960938 27.058594 Z M 26.203125 39.734375 C 24.554688 39.707031 22.875 39.753906 21.160156 39.875 C 19.4375 39.988281 17.6875 40.1875 15.90625 40.460938 C 14.121094 40.730469 12.300781 41.085938 10.457031 41.511719 C 10.125 41.582031 9.828125 41.714844 9.570312 41.894531 C 9.320312 42.082031 9.105469 42.320312 8.941406 42.582031 C 8.773438 42.839844 8.660156 43.136719 8.597656 43.445312 C 8.542969 43.757812 8.554688 44.082031 8.625 44.40625 C 8.703125 44.730469 8.839844 45.027344 9.027344 45.285156 C 9.210938 45.539062 9.441406 45.753906 9.703125 45.917969 C 9.960938 46.085938 10.257812 46.203125 10.566406 46.257812 C 10.878906 46.3125 11.203125 46.300781 11.527344 46.230469 C 13.21875 45.839844 14.878906 45.527344 16.511719 45.28125 C 18.136719 45.027344 19.730469 44.839844 21.292969 44.730469 C 22.851562 44.617188 24.382812 44.566406 25.878906 44.589844 C 27.375 44.609375 28.828125 44.691406 30.257812 44.851562 C 31.6875 45.011719 33.078125 45.234375 34.433594 45.527344 C 35.789062 45.820312 37.113281 46.179688 38.402344 46.609375 C 39.6875 47.039062 40.933594 47.527344 42.148438 48.089844 C 43.363281 48.648438 44.539062 49.285156 45.679688 49.984375 C 45.96875 50.152344 46.273438 50.265625 46.589844 50.3125 C 46.902344 50.355469 47.210938 50.335938 47.511719 50.265625 C 47.8125 50.1875 48.105469 50.0625 48.363281 49.878906 C 48.613281 49.691406 48.835938 49.460938 49.011719 49.175781 C 49.1875 48.890625 49.296875 48.582031 49.347656 48.269531 C 49.390625 47.960938 49.378906 47.644531 49.300781 47.347656 C 49.230469 47.042969 49.105469 46.746094 48.917969 46.488281 C 48.734375 46.238281 48.496094 46.011719 48.210938 45.835938 C 46.929688 45.054688 45.613281 44.347656 44.257812 43.714844 C 42.902344 43.085938 41.5 42.53125 40.066406 42.050781 C 38.636719 41.5625 37.164062 41.160156 35.664062 40.824219 C 34.160156 40.488281 32.617188 40.234375 31.039062 40.054688 C 29.460938 39.875 27.851562 39.765625 26.203125 39.734375 Z M 26.203125 39.734375 "/>
</g>
</svg>
