<svg xmlns="http://www.w3.org/2000/svg" xmlns:xlink="http://www.w3.org/1999/xlink" width="64px" height="64px" viewBox="0 0 64 64" version="1.1">
<defs>
<linearGradient id="linear0" gradientUnits="userSpaceOnUse" x1="0" y1="0" x2="0" y2="1" gradientTransform="matrix(55.351351,0,0,36.900902,4.324324,13.54955)">
<stop offset="0" style="stop-color:#05f7ff;stop-opacity:1;"/>
<stop offset="0.5" style="stop-color:#dddddd;stop-opacity:1;"/>
<stop offset="1" style="stop-color:#e6ff05;stop-opacity:1;"/>
</linearGradient>
</defs>
<g id="surface1">
<path style=" stroke:none;fill-rule:evenodd;fill:url(#linear0);" d="M 31.8125 42.878906 L 27.191406 38.269531 L 22.585938 33.652344 C 22.585938 33.652344 41.027344 33.652344 41.03125 33.652344 L 36.421875 38.269531 Z M 32 13.550781 C 24.835938 13.550781 18.734375 17.800781 16.109375 23.820312 C 9.4375 24.785156 4.324219 30.296875 4.324219 37.03125 C 4.324219 44.441406 10.515625 50.449219 18.164062 50.449219 L 47.566406 50.449219 C 54.257812 50.449219 59.675781 45.191406 59.675781 38.707031 C 59.675781 32.679688 55 27.742188 48.972656 27.070312 C 47.402344 19.378906 40.394531 13.550781 32 13.550781 Z M 26.273438 24.433594 L 37.347656 24.433594 L 37.347656 33.652344 L 26.273438 33.652344 Z M 26.273438 24.433594 "/>
</g>
</svg>
