<svg xmlns="http://www.w3.org/2000/svg" xmlns:xlink="http://www.w3.org/1999/xlink" width="64px" height="64px" viewBox="0 0 64 64" version="1.1">
<defs>
<linearGradient id="linear0" gradientUnits="userSpaceOnUse" x1="0" y1="0" x2="0" y2="1" gradientTransform="matrix(55.351351,0,0,44.972973,4.324324,11.243243)">
<stop offset="0" style="stop-color:#00fff2;stop-opacity:1;"/>
<stop offset="0.5" style="stop-color:#dddddd;stop-opacity:1;"/>
<stop offset="1" style="stop-color:#0062ff;stop-opacity:1;"/>
</linearGradient>
</defs>
<g id="surface1">
<path style=" stroke:none;fill-rule:nonzero;fill:url(#linear0);" d="M 47.566406 11.242188 C 41.632812 11.246094 36.566406 15.558594 35.621094 21.417969 L 27.042969 35.660156 C 26.402344 35.527344 25.742188 35.460938 25.082031 35.460938 C 23.511719 35.460938 21.96875 35.820312 20.558594 36.503906 L 5.246094 27.671875 C 4.648438 30.21875 4.335938 32.835938 4.324219 35.460938 C 4.335938 36.730469 4.417969 38 4.570312 39.261719 L 14.730469 45.121094 C 14.710938 45.363281 14.703125 45.597656 14.703125 45.835938 C 14.703125 51.566406 19.351562 56.214844 25.082031 56.214844 C 30.8125 56.214844 35.460938 51.566406 35.460938 45.835938 C 35.457031 45.511719 35.4375 45.1875 35.40625 44.863281 L 50.550781 35.066406 C 55.910156 33.707031 59.664062 28.882812 59.675781 23.351562 C 59.675781 16.664062 54.257812 11.242188 47.566406 11.242188 Z M 47.566406 14.703125 C 52.339844 14.703125 56.214844 18.578125 56.214844 23.351562 C 56.214844 28.125 52.339844 32 47.566406 32 C 42.792969 32 38.917969 28.125 38.917969 23.351562 C 38.917969 18.578125 42.792969 14.703125 47.566406 14.703125 Z M 47.566406 18.164062 C 44.703125 18.164062 42.378906 20.488281 42.378906 23.351562 C 42.378906 26.214844 44.703125 28.539062 47.566406 28.539062 C 50.433594 28.539062 52.757812 26.214844 52.757812 23.351562 C 52.757812 20.488281 50.433594 18.164062 47.566406 18.164062 Z M 25.082031 38.917969 C 28.902344 38.917969 32 42.015625 32 45.835938 C 32 49.660156 28.902344 52.757812 25.082031 52.757812 C 21.785156 52.753906 18.945312 50.417969 18.300781 47.1875 L 20.742188 48.59375 C 23.234375 50.03125 26.390625 49.1875 27.828125 46.699219 C 29.269531 44.207031 28.421875 41.042969 25.933594 39.609375 L 24.761719 38.933594 C 24.867188 38.921875 24.972656 38.917969 25.082031 38.917969 Z M 25.082031 38.917969 "/>
</g>
</svg>
