<svg xmlns="http://www.w3.org/2000/svg" xmlns:xlink="http://www.w3.org/1999/xlink" width="64px" height="64px" viewBox="0 0 64 64" version="1.1">
<defs>
<linearGradient id="linear0" gradientUnits="userSpaceOnUse" x1="0" y1="0" x2="0" y2="1" gradientTransform="matrix(55.351351,0,0,51.666666,4.324324,6.166666)">
<stop offset="0" style="stop-color:#00a2ff;stop-opacity:1;"/>
<stop offset="0.5" style="stop-color:#dddddd;stop-opacity:1;"/>
<stop offset="1" style="stop-color:#00ffae;stop-opacity:1;"/>
</linearGradient>
</defs>
<g id="surface1">
<path style=" stroke:none;fill-rule:evenodd;fill:url(#linear0);" d="M 43.847656 10.734375 L 43.847656 32.363281 C 46.011719 32.976562 47.597656 34.96875 47.597656 37.328125 C 47.597656 40.179688 45.289062 42.488281 42.4375 42.488281 C 39.585938 42.488281 37.273438 40.179688 37.273438 37.328125 C 37.273438 34.96875 38.863281 32.976562 41.027344 32.363281 L 41.027344 10.691406 C 40.863281 10.691406 40.699219 10.691406 40.53125 10.691406 C 40.527344 10.691406 40.527344 10.691406 40.527344 10.691406 L 33.515625 10.691406 L 33.515625 32.363281 C 35.6875 32.976562 37.273438 34.96875 37.273438 37.328125 C 37.273438 40.179688 34.960938 42.488281 32.113281 42.488281 C 29.265625 42.488281 26.949219 40.179688 26.949219 37.328125 C 26.949219 34.96875 28.539062 32.976562 30.703125 32.363281 L 30.703125 10.691406 L 23.472656 10.691406 C 23.472656 10.691406 23.46875 10.691406 23.46875 10.691406 C 23.378906 10.691406 23.285156 10.691406 23.191406 10.691406 L 23.191406 32.363281 C 25.363281 32.976562 26.949219 34.96875 26.949219 37.328125 C 26.949219 40.179688 24.636719 42.488281 21.789062 42.488281 C 18.9375 42.488281 16.621094 40.179688 16.621094 37.328125 C 16.621094 34.96875 18.214844 32.976562 20.378906 32.363281 L 20.378906 10.730469 C 19.617188 10.746094 18.855469 10.78125 18.097656 10.820312 C 17.386719 10.863281 16.679688 10.921875 15.976562 10.996094 C 15.390625 11.0625 14.8125 11.144531 14.234375 11.253906 C 13.78125 11.339844 13.324219 11.445312 12.878906 11.578125 C 12.550781 11.671875 12.21875 11.792969 11.90625 11.9375 C 11.679688 12.039062 11.460938 12.164062 11.253906 12.296875 C 11.09375 12.40625 10.949219 12.523438 10.8125 12.660156 C 10.679688 12.789062 10.558594 12.9375 10.457031 13.09375 C 10.3125 13.300781 10.191406 13.515625 10.089844 13.742188 C 9.957031 14.058594 9.828125 14.386719 9.730469 14.71875 C 9.597656 15.164062 9.488281 15.617188 9.410156 16.070312 C 9.300781 16.648438 9.21875 17.226562 9.152344 17.808594 C 9.070312 18.511719 9.011719 19.214844 8.976562 19.929688 C 8.933594 20.757812 8.894531 21.589844 8.878906 22.421875 C 8.863281 23.378906 8.851562 24.335938 8.851562 25.292969 C 8.851562 25.292969 8.851562 25.296875 8.851562 25.296875 L 8.851562 38.703125 C 8.851562 38.703125 8.851562 38.703125 8.851562 38.707031 C 8.851562 39.664062 8.863281 40.621094 8.878906 41.578125 C 8.894531 42.410156 8.933594 43.242188 8.976562 44.070312 C 9.011719 44.78125 9.070312 45.488281 9.152344 46.1875 C 9.21875 46.773438 9.300781 47.351562 9.410156 47.933594 C 9.488281 48.382812 9.597656 48.835938 9.730469 49.28125 C 9.828125 49.613281 9.957031 49.941406 10.089844 50.257812 C 10.191406 50.484375 10.3125 50.699219 10.457031 50.90625 C 10.558594 51.0625 10.679688 51.207031 10.8125 51.339844 C 10.949219 51.476562 11.09375 51.59375 11.253906 51.703125 C 11.460938 51.835938 11.679688 51.960938 11.90625 52.0625 C 12.21875 52.207031 12.550781 52.324219 12.878906 52.421875 C 13.324219 52.554688 13.78125 52.664062 14.234375 52.746094 C 14.8125 52.855469 15.390625 52.941406 15.976562 53.003906 C 16.679688 53.078125 17.386719 53.136719 18.097656 53.175781 C 18.929688 53.226562 19.765625 53.257812 20.597656 53.273438 C 21.554688 53.296875 22.511719 53.308594 23.46875 53.308594 C 23.46875 53.308594 23.472656 53.308594 23.472656 53.308594 L 40.527344 53.308594 C 40.527344 53.308594 40.527344 53.308594 40.53125 53.308594 C 41.488281 53.308594 42.445312 53.296875 43.40625 53.273438 C 44.234375 53.257812 45.070312 53.226562 45.90625 53.175781 C 46.609375 53.136719 47.320312 53.078125 48.023438 53.003906 C 48.609375 52.941406 49.1875 52.855469 49.765625 52.746094 C 50.21875 52.664062 50.675781 52.554688 51.121094 52.421875 C 51.449219 52.324219 51.78125 52.207031 52.09375 52.0625 C 52.324219 51.960938 52.539062 51.835938 52.746094 51.703125 C 52.90625 51.59375 53.050781 51.476562 53.1875 51.339844 C 53.320312 51.207031 53.441406 51.0625 53.542969 50.90625 C 53.6875 50.699219 53.808594 50.484375 53.90625 50.257812 C 54.050781 49.941406 54.164062 49.613281 54.269531 49.28125 C 54.394531 48.835938 54.511719 48.382812 54.589844 47.933594 C 54.699219 47.351562 54.785156 46.773438 54.847656 46.1875 C 54.921875 45.488281 54.984375 44.78125 55.023438 44.070312 C 55.070312 43.242188 55.105469 42.410156 55.121094 41.578125 C 55.144531 40.621094 55.148438 39.664062 55.148438 38.707031 C 55.148438 38.703125 55.148438 38.703125 55.148438 38.703125 L 55.148438 25.296875 C 55.148438 25.296875 55.148438 25.292969 55.148438 25.292969 C 55.148438 24.335938 55.144531 23.378906 55.121094 22.421875 C 55.105469 21.589844 55.070312 20.757812 55.023438 19.929688 C 54.984375 19.214844 54.921875 18.511719 54.847656 17.808594 C 54.785156 17.226562 54.699219 16.648438 54.589844 16.070312 C 54.511719 15.617188 54.394531 15.164062 54.269531 14.71875 C 54.164062 14.386719 54.050781 14.058594 53.90625 13.742188 C 53.808594 13.515625 53.6875 13.300781 53.542969 13.09375 C 53.441406 12.9375 53.320312 12.789062 53.1875 12.660156 C 53.050781 12.523438 52.90625 12.40625 52.746094 12.296875 C 52.539062 12.164062 52.324219 12.039062 52.09375 11.9375 C 51.78125 11.792969 51.449219 11.671875 51.121094 11.578125 C 50.675781 11.445312 50.21875 11.339844 49.765625 11.253906 C 49.1875 11.144531 48.609375 11.0625 48.023438 10.996094 C 47.320312 10.921875 46.609375 10.863281 45.90625 10.820312 C 45.214844 10.785156 44.53125 10.757812 43.847656 10.734375 Z M 40.527344 6.164062 C 57.285156 6.164062 59.675781 8.558594 59.675781 25.296875 L 59.675781 38.703125 C 59.675781 55.441406 57.285156 57.835938 40.527344 57.835938 L 23.472656 57.835938 C 6.714844 57.835938 4.324219 55.441406 4.324219 38.703125 L 4.324219 25.296875 C 4.324219 8.558594 6.714844 6.164062 23.472656 6.164062 Z M 40.527344 6.164062 "/>
</g>
</svg>
