<svg xmlns="http://www.w3.org/2000/svg" xmlns:xlink="http://www.w3.org/1999/xlink" width="64px" height="64px" viewBox="0 0 64 64" version="1.1">
<defs>
<linearGradient id="linear0" gradientUnits="userSpaceOnUse" x1="0" y1="128" x2="128" y2="0" gradientTransform="matrix(0.432432,0,0,0.432432,4.324324,4.324324)">
<stop offset="0" style="stop-color:rgb(85.882354%,85.882354%,85.882354%);stop-opacity:1;"/>
<stop offset="0.5" style="stop-color:#dddddd;stop-opacity:1;"/>
<stop offset="1" style="stop-color:rgb(45.882353%,45.882353%,45.882353%);stop-opacity:1;"/>
</linearGradient>
</defs>
<g id="surface1">
<path style=" stroke:none;fill-rule:nonzero;fill:url(#linear0);" d="M 49.320312 28.210938 L 41.980469 37.042969 L 42.539062 48.515625 L 31.867188 44.261719 L 21.128906 48.34375 L 21.875 36.878906 L 14.679688 27.925781 L 25.8125 25.09375 L 32.101562 15.484375 L 38.238281 25.195312 Z M 49.320312 28.210938 "/>
<path style=" stroke:none;fill-rule:nonzero;fill:rgb(74.901962%,0%,0%);fill-opacity:1;" d="M 16.136719 36.042969 C 13.113281 36.042969 10.089844 37.199219 7.785156 39.507812 C 3.171875 44.121094 3.171875 51.601562 7.785156 56.214844 C 12.398438 60.828125 19.886719 60.828125 24.5 56.214844 C 29.113281 51.601562 29.113281 44.121094 24.5 39.507812 C 22.191406 37.199219 19.164062 36.042969 16.136719 36.042969 Z M 23.265625 45.695312 L 23.265625 50.027344 L 9.011719 50.027344 L 9.011719 45.695312 Z M 23.265625 45.695312 "/>
</g>
</svg>
