<svg xmlns="http://www.w3.org/2000/svg" xmlns:xlink="http://www.w3.org/1999/xlink" width="64px" height="64px" viewBox="0 0 64 64" version="1.1">
<defs>
<linearGradient id="linear0" gradientUnits="userSpaceOnUse" x1="0" y1="0" x2="0" y2="1" gradientTransform="matrix(55.351351,0,0,55.351351,4.324324,4.324324)">
<stop offset="0" style="stop-color:#ffae00;stop-opacity:1;"/>
<stop offset="0.5" style="stop-color:#dddddd;stop-opacity:1;"/>
<stop offset="1" style="stop-color:#bf1d1d;stop-opacity:1;"/>
</linearGradient>
<linearGradient id="linear1" gradientUnits="userSpaceOnUse" x1="0" y1="0" x2="0" y2="1" gradientTransform="matrix(17.297297,0,0,17.297297,40.648649,42.378378)">
<stop offset="0" style="stop-color:#ffae00;stop-opacity:1;"/>
<stop offset="0.5" style="stop-color:#dddddd;stop-opacity:1;"/>
<stop offset="1" style="stop-color:#bf1d1d;stop-opacity:1;"/>
</linearGradient>
</defs>
<g id="surface1">
<path style=" stroke:none;fill-rule:nonzero;fill:url(#linear0);" d="M 32 4.324219 C 16.714844 4.324219 4.324219 16.714844 4.324219 32 C 4.324219 47.285156 16.714844 59.675781 32 59.675781 C 33.734375 59.671875 35.460938 59.503906 37.164062 59.175781 L 37.164062 55.625 C 35.46875 56.011719 33.738281 56.207031 32 56.214844 C 18.625 56.214844 7.785156 45.375 7.785156 32 C 7.785156 18.625 18.625 7.785156 32 7.785156 C 45.375 7.785156 56.214844 18.625 56.214844 32 C 56.207031 35.484375 55.445312 38.921875 53.988281 42.089844 L 57.769531 42.089844 C 59.027344 38.875 59.675781 35.449219 59.675781 32 C 59.675781 16.714844 47.285156 4.324219 32 4.324219 Z M 32 21.621094 C 26.269531 21.621094 21.621094 26.269531 21.621094 32 C 21.621094 37.730469 26.269531 42.378906 32 42.378906 C 37.730469 42.378906 42.378906 37.730469 42.378906 32 C 42.378906 26.269531 37.730469 21.621094 32 21.621094 Z M 32 26.8125 C 34.863281 26.8125 37.1875 29.136719 37.1875 32 C 37.1875 34.863281 34.863281 37.1875 32 37.1875 C 29.136719 37.1875 26.8125 34.863281 26.8125 32 C 26.8125 29.136719 29.136719 26.8125 32 26.8125 Z M 32 26.8125 "/>
<path style=" stroke:none;fill-rule:nonzero;fill:url(#linear1);" d="M 47.566406 42.378906 L 47.566406 49.296875 L 40.648438 49.296875 L 40.648438 52.757812 L 47.566406 52.757812 L 47.566406 59.675781 L 51.027344 59.675781 L 51.027344 52.757812 L 57.945312 52.757812 L 57.945312 49.296875 L 51.027344 49.296875 L 51.027344 42.378906 Z M 47.566406 42.378906 "/>
</g>
</svg>
