<svg xmlns="http://www.w3.org/2000/svg" xmlns:xlink="http://www.w3.org/1999/xlink" width="64px" height="64px" viewBox="0 0 64 64" version="1.1">
<defs>
<linearGradient id="linear0" gradientUnits="userSpaceOnUse" x1="0" y1="0" x2="0" y2="1" gradientTransform="matrix(39.396395,0,0,55.351351,12.301802,4.324324)">
<stop offset="0" style="stop-color:#ffae00;stop-opacity:1;"/>
<stop offset="0.5" style="stop-color:#dddddd;stop-opacity:1;"/>
<stop offset="1" style="stop-color:#bf1d1d;stop-opacity:1;"/>
</linearGradient>
</defs>
<g id="surface1">
<path style=" stroke:none;fill-rule:nonzero;fill:url(#linear0);" d="M 24.808594 4.324219 L 23.945312 4.347656 C 23.945312 4.347656 25.6875 6.621094 26.910156 7.585938 L 26.730469 8.347656 C 26.636719 9.191406 26.515625 10.105469 26.488281 10.363281 L 26.429688 10.839844 L 25.957031 10.511719 L 25.105469 10.175781 L 25.4375 10.730469 L 25.773438 11.285156 L 24.058594 11.285156 L 24.058594 10.199219 L 23.238281 10.515625 L 22.410156 10.839844 L 22.691406 11.308594 L 22.972656 11.765625 L 21.867188 12.835938 L 20.765625 13.621094 L 21.171875 14.082031 L 21.582031 14.539062 L 20.855469 14.113281 L 20.132812 13.691406 L 21.078125 12.625 L 22.027344 11.5625 L 21.523438 11.515625 C 21.253906 11.488281 20.523438 11.410156 19.902344 11.335938 L 18.765625 11.207031 L 18.621094 13.234375 L 17.28125 14.5 L 15.945312 15.757812 L 14.699219 20.792969 C 14.015625 23.5625 13.210938 26.621094 13.070312 27.253906 L 12.820312 28.402344 C 14.066406 28.921875 15.171875 29.171875 16.355469 29.238281 C 16.664062 29.039062 17.09375 28.191406 17.308594 27.351562 C 17.511719 26.503906 17.96875 25.550781 18.164062 25.550781 L 18.523438 25.550781 L 18.570312 27.367188 C 18.597656 28.367188 19.03125 30.644531 19.539062 32.429688 C 20.039062 34.214844 20.296875 36.289062 20.445312 37.011719 L 20.71875 38.351562 L 20.164062 38.703125 L 19.597656 39.054688 L 20.496094 39.566406 L 20.8125 40.085938 L 20.015625 39.773438 L 19.234375 39.460938 L 17.988281 42.082031 L 16.738281 44.691406 L 14.039062 46.449219 L 12.300781 48.214844 L 12.738281 50.164062 L 13.164062 52.121094 L 13.078125 55.238281 L 12.988281 58.363281 L 13.386719 59.015625 L 13.789062 59.675781 L 16.761719 59.675781 L 17.996094 59.027344 L 18.765625 58.011719 L 17.734375 57.027344 C 17.511719 56.488281 17.214844 54.460938 17.066406 52.539062 L 16.796875 49.039062 L 18.308594 46.421875 L 19.8125 43.808594 L 22.121094 41.539062 L 24.421875 39.253906 L 24.769531 36.300781 L 25.113281 33.347656 L 24.445312 33.726562 L 23.785156 34.105469 L 24.414062 33.410156 L 25.042969 32.71875 L 26.339844 33.402344 C 27.058594 33.773438 28.445312 34.691406 29.429688 35.4375 L 31.21875 36.792969 L 31.21875 39.609375 L 32.585938 42.636719 C 33.335938 44.296875 34.109375 44.976562 34.3125 45.828125 C 34.511719 46.6875 34.90625 47.679688 35.1875 48.039062 L 35.6875 48.6875 L 37.234375 48.234375 C 38.085938 47.988281 39.328125 47.488281 39.988281 47.132812 C 40.660156 46.769531 43.460938 47.179688 46.214844 46.351562 L 51.242188 44.851562 L 51.46875 44.148438 L 51.699219 43.175781 L 49.792969 43.175781 C 48.742188 43.175781 47.113281 43.335938 46.171875 43.523438 L 44.460938 43.875 L 44.757812 44.355469 L 45.054688 44.839844 L 44.191406 44.503906 L 43.339844 44.175781 L 41.125 45.070312 C 39.910156 45.566406 38.429688 45.824219 37.882812 45.972656 L 36.851562 45.972656 L 35.96875 44.011719 L 35.085938 41.773438 L 34.734375 38.726562 L 34.378906 35.671875 L 32.203125 32.707031 C 31.011719 31.082031 29.242188 29.039062 28.285156 28.179688 L 26.511719 26.460938 C 27.164062 26.472656 27.226562 26.539062 27.875 26.445312 L 27.472656 26.253906 L 27.335938 25.550781 L 28.027344 25.6875 L 28.710938 25.828125 L 28.566406 24.914062 L 28.417969 24.828125 L 29.257812 24.503906 C 29.554688 24.386719 29.800781 23.933594 29.949219 23.699219 L 28.4375 23.699219 L 28.4375 22.292969 C 28.4375 21.835938 28.59375 21.449219 28.789062 21.449219 C 29.621094 22.015625 30.351562 22.136719 31.160156 22.472656 C 31.933594 21.886719 33.664062 21.585938 34.5625 21.234375 L 34.929688 18.664062 C 35.125 17.246094 34.855469 15.851562 35.039062 15.554688 L 35.367188 15.011719 L 34.542969 14.175781 C 34.09375 13.714844 32.582031 13.234375 32.199219 13.097656 L 31.5 12.863281 L 32.207031 11.996094 L 32.355469 11.230469 L 32.421875 9.503906 C 32.273438 8.675781 32.066406 8.226562 31.6875 7.761719 C 30.691406 7.179688 30.351562 7.058594 29.265625 7.164062 L 27.5625 7.136719 Z M 29.558594 14.363281 L 30.078125 14.363281 C 30.363281 14.363281 31.429688 14.625 31.429688 14.949219 L 31.429688 15.542969 L 31.933594 15.226562 L 32.449219 14.90625 L 33.246094 16.210938 L 32.613281 15.8125 L 32.421875 15.828125 L 32.351562 16.996094 L 32.351562 18.199219 L 31.429688 18.230469 L 31.429688 18.234375 L 29.53125 18.1875 C 29.496094 17.960938 29.648438 16.820312 29.550781 15.972656 Z M 29.558594 14.363281 "/>
</g>
</svg>
