<svg xmlns="http://www.w3.org/2000/svg" xmlns:xlink="http://www.w3.org/1999/xlink" width="64px" height="64px" viewBox="0 0 64 64" version="1.1">
<defs>
<linearGradient id="linear0" gradientUnits="userSpaceOnUse" x1="0" y1="0" x2="0" y2="1" gradientTransform="matrix(55.351351,0,0,48.432432,4.324324,7.783784)">
<stop offset="0" style="stop-color:#05f7ff;stop-opacity:1;"/>
<stop offset="0.5" style="stop-color:#dddddd;stop-opacity:1;"/>
<stop offset="1" style="stop-color:#e6ff05;stop-opacity:1;"/>
</linearGradient>
<linearGradient id="linear1" gradientUnits="userSpaceOnUse" x1="0" y1="0" x2="0" y2="1" gradientTransform="matrix(34.594595,0,0,20.756757,14.445946,18.072072)">
<stop offset="0" style="stop-color:#05f7ff;stop-opacity:1;"/>
<stop offset="0.5" style="stop-color:#dddddd;stop-opacity:1;"/>
<stop offset="1" style="stop-color:#e6ff05;stop-opacity:1;"/>
</linearGradient>
</defs>
<g id="surface1">
<path style=" stroke:none;fill-rule:nonzero;fill:url(#linear0);" d="M 18.148438 7.785156 C 13.792969 7.835938 10.613281 7.679688 8.003906 9.113281 C 6.660156 9.882812 5.625 11.109375 5.105469 12.566406 C 4.53125 14.082031 4.324219 15.886719 4.324219 18.164062 L 4.324219 38.917969 C 4.324219 41.191406 4.53125 43 5.105469 44.511719 C 5.671875 46.03125 6.703125 47.246094 8.003906 47.960938 C 10.613281 49.40625 13.792969 49.242188 18.148438 49.296875 L 18.863281 49.296875 L 28.554688 56.214844 L 38.242188 49.296875 L 45.851562 49.296875 C 50.207031 49.242188 53.394531 49.402344 56 47.960938 C 57.347656 47.199219 58.375 45.972656 58.902344 44.511719 C 59.46875 43 59.675781 41.191406 59.675781 38.917969 L 59.675781 18.164062 C 59.675781 15.886719 59.46875 14.082031 58.902344 12.566406 C 58.375 11.109375 57.347656 9.882812 56 9.113281 C 53.390625 7.675781 50.207031 7.835938 45.851562 7.785156 Z M 18.164062 11.242188 L 45.875 11.242188 C 50.230469 11.296875 53.097656 11.449219 54.363281 12.148438 C 55 12.496094 55.363281 12.882812 55.703125 13.785156 C 56.039062 14.6875 56.257812 16.113281 56.257812 18.164062 L 56.257812 38.917969 C 56.257812 40.96875 56.039062 42.394531 55.703125 43.296875 C 55.363281 44.199219 55 44.582031 54.363281 44.933594 C 53.097656 45.632812 50.230469 45.785156 45.875 45.835938 L 18.164062 45.835938 C 13.8125 45.785156 10.9375 45.632812 9.671875 44.933594 C 9.039062 44.585938 8.675781 44.199219 8.335938 43.296875 C 8 42.394531 7.785156 40.96875 7.785156 38.917969 L 7.785156 18.164062 C 7.785156 16.113281 8 14.6875 8.335938 13.785156 C 8.675781 12.882812 9.039062 12.5 9.671875 12.148438 C 10.9375 11.449219 13.8125 11.296875 18.164062 11.242188 Z M 18.164062 11.242188 "/>
<path style=" stroke:none;fill-rule:nonzero;fill:url(#linear1);" d="M 19.578125 18.070312 L 14.445312 30.214844 L 17.621094 32.484375 L 20.050781 26.730469 L 27.050781 38.828125 L 31.5 29.441406 L 33.902344 33.613281 L 35.378906 31.714844 C 35.378906 31.714844 35.914062 31.027344 36.488281 30.351562 C 36.765625 30.03125 37.050781 29.726562 37.246094 29.523438 C 38.4375 29.527344 49.03125 29.550781 49.03125 29.550781 L 49.039062 24.835938 C 49.039062 24.835938 37.230469 24.808594 36.765625 24.808594 C 35.910156 24.808594 35.8125 25.109375 35.609375 25.265625 C 35.402344 25.421875 35.234375 25.578125 35.066406 25.746094 C 34.828125 25.988281 34.59375 26.261719 34.363281 26.527344 L 31.214844 21.066406 L 26.753906 30.472656 Z M 19.578125 18.070312 "/>
</g>
</svg>
