<svg xmlns="http://www.w3.org/2000/svg" xmlns:xlink="http://www.w3.org/1999/xlink" width="64px" height="64px" viewBox="0 0 64 64" version="1.1">
<defs>
<linearGradient id="linear0" gradientUnits="userSpaceOnUse" x1="0" y1="0" x2="0" y2="1" gradientTransform="matrix(55.351351,0,0,55.351351,4.324324,4.324324)">
<stop offset="0" style="stop-color:#00fff2;stop-opacity:1;"/>
<stop offset="0.5" style="stop-color:#dddddd;stop-opacity:1;"/>
<stop offset="1" style="stop-color:#0062ff;stop-opacity:1;"/>
</linearGradient>
</defs>
<g id="surface1">
<path style=" stroke:none;fill-rule:nonzero;fill:url(#linear0);" d="M 32 4.324219 C 32 4.324219 28.605469 14.335938 25.433594 15.699219 C 22.234375 17.058594 12.414062 12.414062 12.414062 12.414062 C 12.414062 12.414062 16.769531 22.175781 15.699219 25.433594 C 14.921875 27.746094 4.324219 32 4.324219 32 C 4.324219 32 14.714844 35.664062 15.441406 38.445312 C 16.503906 42.570312 12.414062 51.585938 12.414062 51.585938 C 12.414062 51.585938 21.746094 46.550781 24.796875 48.175781 C 27.835938 49.800781 32 59.675781 32 59.675781 C 32 59.675781 35.394531 49.664062 38.566406 48.300781 C 41.765625 46.941406 51.585938 51.585938 51.585938 51.585938 C 51.585938 51.585938 47.179688 41.8125 48.300781 38.566406 C 49.171875 36.0625 59.675781 32 59.675781 32 C 59.675781 32 49.378906 27.9375 48.558594 25.433594 C 47.210938 21.386719 51.585938 12.414062 51.585938 12.414062 C 51.585938 12.414062 42.253906 17.449219 39.199219 15.824219 C 36.164062 14.214844 32 4.324219 32 4.324219 Z M 32 19.363281 C 35.355469 19.351562 38.578125 20.675781 40.949219 23.050781 C 43.324219 25.421875 44.648438 28.644531 44.636719 32 C 44.648438 35.355469 43.324219 38.578125 40.949219 40.949219 C 38.578125 43.324219 35.355469 44.648438 32 44.636719 C 28.644531 44.648438 25.421875 43.324219 23.050781 40.949219 C 20.675781 38.578125 19.351562 35.355469 19.363281 32 C 19.351562 28.644531 20.675781 25.421875 23.050781 23.050781 C 25.421875 20.675781 28.644531 19.351562 32 19.363281 Z M 32 19.363281 "/>
</g>
</svg>
