<svg xmlns="http://www.w3.org/2000/svg" xmlns:xlink="http://www.w3.org/1999/xlink" width="64px" height="64px" viewBox="0 0 64 64" version="1.1">
<defs>
<linearGradient id="linear0" gradientUnits="userSpaceOnUse" x1="0" y1="0" x2="0" y2="1" gradientTransform="matrix(55.351351,0,0,47.855855,4.324324,8.072072)">
<stop offset="0" style="stop-color:#ffae00;stop-opacity:1;"/>
<stop offset="0.5" style="stop-color:#dddddd;stop-opacity:1;"/>
<stop offset="1" style="stop-color:#bf1d1d;stop-opacity:1;"/>
</linearGradient>
</defs>
<g id="surface1">
<path style=" stroke:none;fill-rule:nonzero;fill:url(#linear0);" d="M 32 8.070312 C 29.226562 8.070312 26.460938 9.070312 24.445312 10.589844 L 21.929688 10.589844 C 15.125 10.589844 9.328125 16.132812 9.328125 23.1875 C 12.863281 22.699219 16.335938 24.375 18.144531 27.4375 C 18.144531 27.6875 19.671875 30.003906 20.429688 31.765625 C 22.691406 31.511719 26.460938 30.738281 32 30.738281 C 37.539062 30.738281 41.320312 31.496094 43.335938 32 C 44.335938 30.234375 45.617188 27.746094 45.617188 27.746094 C 47.636719 24.472656 51.148438 22.929688 54.671875 23.1875 C 54.671875 16.132812 49.125 10.589844 42.070312 10.589844 L 39.554688 10.589844 C 37.539062 9.070312 34.773438 8.070312 32 8.070312 Z M 9.960938 25.78125 C 9.589844 25.800781 9.21875 25.851562 8.855469 25.9375 C 6.839844 26.441406 5.03125 28.253906 4.527344 30.269531 C 3.527344 34.300781 6.335938 38.039062 10.117188 38.296875 L 14.367188 50.890625 L 49.632812 50.890625 L 53.882812 38.296875 C 57.664062 38.039062 60.472656 34.300781 59.472656 30.265625 C 58.96875 28.253906 57.160156 26.441406 55.144531 25.9375 C 52.121094 25.179688 49.394531 26.488281 48.136719 29.011719 C 47.882812 29.265625 44.835938 34.988281 44.835938 34.988281 C 44.835938 34.988281 41.070312 33.261719 32 33.261719 C 22.929688 33.261719 19.40625 34.988281 19.40625 34.988281 C 19.40625 34.988281 16.097656 29.265625 16.097656 29.011719 C 14.785156 26.808594 12.539062 25.558594 9.960938 25.785156 Z M 13.582031 53.410156 L 12.324219 55.929688 L 15.625 55.929688 L 18.144531 53.410156 Z M 45.855469 53.410156 L 48.375 55.929688 L 51.679688 55.929688 L 50.421875 53.410156 Z M 45.855469 53.410156 "/>
</g>
</svg>
