<svg xmlns="http://www.w3.org/2000/svg" xmlns:xlink="http://www.w3.org/1999/xlink" width="64px" height="64px" viewBox="0 0 64 64" version="1.1">
<defs>
<linearGradient id="linear0" gradientUnits="userSpaceOnUse" x1="0" y1="0" x2="0" y2="1" gradientTransform="matrix(55.351351,0,0,55.351351,4.324324,4.324324)">
<stop offset="0" style="stop-color:#05f7ff;stop-opacity:1;"/>
<stop offset="0.5" style="stop-color:#dddddd;stop-opacity:1;"/>
<stop offset="1" style="stop-color:#e6ff05;stop-opacity:1;"/>
</linearGradient>
</defs>
<g id="surface1">
<path style=" stroke:none;fill-rule:nonzero;fill:url(#linear0);" d="M 55.09375 4.570312 L 4.570312 55.09375 C 4.847656 56.136719 5.402344 57.089844 6.136719 57.863281 C 6.910156 58.597656 7.863281 59.152344 8.90625 59.429688 L 59.460938 8.90625 C 58.878906 6.785156 57.214844 5.121094 55.09375 4.570312 Z M 31.632812 4.324219 L 4.324219 31.632812 L 4.324219 40.335938 L 40.335938 4.324219 Z M 10.476562 4.324219 C 7.089844 4.324219 4.324219 7.089844 4.324219 10.476562 L 4.324219 16.625 L 16.625 4.324219 Z M 53.523438 59.675781 C 55.214844 59.675781 56.757812 58.996094 57.863281 57.863281 C 58.996094 56.757812 59.675781 55.214844 59.675781 53.523438 L 59.675781 47.375 L 47.375 59.675781 Z M 23.664062 59.675781 L 32.367188 59.675781 L 59.675781 32.367188 L 59.675781 23.664062 Z M 23.664062 59.675781 "/>
</g>
</svg>
