<svg xmlns="http://www.w3.org/2000/svg" xmlns:xlink="http://www.w3.org/1999/xlink" width="64px" height="64px" viewBox="0 0 64 64" version="1.1">
<defs>
<linearGradient id="linear0" gradientUnits="userSpaceOnUse" x1="0" y1="0" x2="0" y2="1" gradientTransform="matrix(55.351351,0,0,55.351351,4.324324,4.324324)">
<stop offset="0" style="stop-color:#ffae00;stop-opacity:1;"/>
<stop offset="0.5" style="stop-color:#dddddd;stop-opacity:1;"/>
<stop offset="1" style="stop-color:#6600ff;stop-opacity:1;"/>
</linearGradient>
</defs>
<g id="surface1">
<path style=" stroke:none;fill-rule:evenodd;fill:url(#linear0);" d="M 4.324219 26.914062 L 4.324219 4.324219 L 26.914062 4.324219 L 26.914062 26.914062 Z M 22.394531 8.839844 L 8.839844 8.839844 L 8.839844 22.394531 L 22.394531 22.394531 Z M 59.421875 15.875 C 59.421875 22.113281 54.363281 27.171875 48.125 27.171875 C 41.886719 27.171875 36.828125 22.113281 36.828125 15.875 C 36.828125 9.636719 41.886719 4.578125 48.125 4.578125 C 54.363281 4.578125 59.421875 9.636719 59.421875 15.875 Z M 11.105469 37.085938 L 20.136719 37.085938 L 20.136719 43.863281 L 26.914062 43.863281 L 26.914062 52.894531 L 20.136719 52.894531 L 20.136719 59.675781 L 11.105469 59.675781 L 11.105469 52.894531 L 4.324219 52.894531 L 4.324219 43.863281 L 11.105469 43.863281 Z M 48.378906 37.085938 L 37.085938 59.675781 L 59.675781 59.675781 Z M 40.996094 57.257812 L 48.378906 42.496094 L 48.378906 57.257812 Z M 40.996094 57.257812 "/>
</g>
</svg>
