<svg xmlns="http://www.w3.org/2000/svg" xmlns:xlink="http://www.w3.org/1999/xlink" width="64px" height="64px" viewBox="0 0 64 64" version="1.1">
<defs>
<linearGradient id="linear0" gradientUnits="userSpaceOnUse" x1="0" y1="0" x2="0" y2="1" gradientTransform="matrix(55.351351,0,0,41.513514,4.324324,11.243243)">
<stop offset="0" style="stop-color:#00b7ff;stop-opacity:1;"/>
<stop offset="0.5" style="stop-color:#dddddd;stop-opacity:1;"/>
<stop offset="1" style="stop-color:#ee42d9;stop-opacity:1;"/>
</linearGradient>
</defs>
<g id="surface1">
<path style=" stroke:none;fill-rule:evenodd;fill:url(#linear0);" d="M 22.738281 35.957031 L 29.039062 35.957031 L 26.78125 38.207031 C 27.960938 39.851562 29.878906 40.894531 32 40.894531 C 34.972656 40.890625 37.554688 38.847656 38.242188 35.957031 L 41.265625 35.957031 C 40.539062 40.511719 36.613281 43.863281 32 43.863281 C 29.058594 43.863281 26.394531 42.488281 24.664062 40.324219 L 22.117188 42.875 L 22.117188 35.957031 Z M 15.691406 52.71875 C 9.335938 52.210938 4.324219 46.886719 4.324219 40.402344 C 4.324219 36.335938 6.289062 32.734375 9.3125 30.476562 C 8.652344 29.148438 8.28125 27.652344 8.28125 26.070312 C 8.28125 20.617188 12.707031 16.1875 18.164062 16.1875 C 21 16.1875 23.558594 17.382812 25.363281 19.300781 C 27.550781 14.542969 32.355469 11.242188 37.929688 11.242188 C 45.207031 11.242188 51.1875 16.875 51.730469 24.011719 C 56.460938 26.617188 59.675781 31.652344 59.675781 37.4375 C 59.675781 45.726562 53.078125 52.488281 44.847656 52.746094 L 44.847656 52.757812 L 15.691406 52.757812 Z M 37.21875 30.734375 C 36.039062 29.089844 34.121094 28.050781 32 28.042969 C 29.027344 28.050781 26.445312 30.09375 25.757812 32.988281 L 22.734375 32.988281 C 23.460938 28.433594 27.386719 25.085938 32 25.082031 C 34.941406 25.085938 37.605469 26.449219 39.335938 28.621094 L 41.882812 26.070312 L 41.882812 32.988281 L 34.960938 32.988281 Z M 37.21875 30.734375 "/>
</g>
</svg>
