<svg xmlns="http://www.w3.org/2000/svg" xmlns:xlink="http://www.w3.org/1999/xlink" width="64px" height="64px" viewBox="0 0 64 64" version="1.1">
<defs>
<linearGradient id="linear0" gradientUnits="userSpaceOnUse" x1="0" y1="0" x2="0" y2="1" gradientTransform="matrix(55.189189,0,0,55.351351,4.405405,4.324324)">
<stop offset="0" style="stop-color:#ffae00;stop-opacity:1;"/>
<stop offset="0.5" style="stop-color:#dddddd;stop-opacity:1;"/>
<stop offset="1" style="stop-color:#6600ff;stop-opacity:1;"/>
</linearGradient>
</defs>
<g id="surface1">
<path style=" stroke:none;fill-rule:evenodd;fill:url(#linear0);" d="M 11.390625 6.988281 L 11.390625 34.285156 L 4.40625 34.285156 C 4.40625 34.285156 10.132812 48.261719 18.382812 59.675781 C 18.382812 59.675781 18.386719 59.675781 18.390625 59.671875 C 18.390625 59.671875 18.394531 59.664062 18.402344 59.664062 C 18.402344 59.664062 18.40625 59.664062 18.410156 59.664062 C 18.410156 59.664062 18.414062 59.660156 18.417969 59.660156 C 26.929688 47.617188 32.335938 34.285156 32.335938 34.285156 L 25.355469 34.285156 L 25.355469 6.988281 Z M 38.644531 57.011719 L 38.644531 29.714844 L 31.664062 29.714844 C 31.664062 29.714844 37.386719 15.738281 45.636719 4.324219 C 45.636719 4.324219 45.636719 4.324219 45.636719 4.328125 C 45.644531 4.328125 45.648438 4.335938 45.652344 4.335938 C 45.652344 4.335938 45.660156 4.335938 45.664062 4.335938 C 45.664062 4.335938 45.664062 4.339844 45.664062 4.339844 C 54.179688 16.382812 59.59375 29.714844 59.59375 29.714844 L 52.609375 29.714844 L 52.609375 57.011719 Z M 38.644531 57.011719 "/>
</g>
</svg>
