<svg xmlns="http://www.w3.org/2000/svg" xmlns:xlink="http://www.w3.org/1999/xlink" width="64px" height="64px" viewBox="0 0 64 64" version="1.1">
<defs>
<linearGradient id="linear0" gradientUnits="userSpaceOnUse" x1="0" y1="0" x2="0" y2="1" gradientTransform="matrix(7.603604,0,0,30.391892,28.193693,16.545045)">
<stop offset="0" style="stop-color:#ffae00;stop-opacity:1;"/>
<stop offset="0.5" style="stop-color:#dddddd;stop-opacity:1;"/>
<stop offset="1" style="stop-color:#6600ff;stop-opacity:1;"/>
</linearGradient>
<linearGradient id="linear1" gradientUnits="userSpaceOnUse" x1="0" y1="0" x2="0" y2="1" gradientTransform="matrix(55.351351,0,0,55.351351,4.324324,4.324324)">
<stop offset="0" style="stop-color:#ffae00;stop-opacity:1;"/>
<stop offset="0.5" style="stop-color:#dddddd;stop-opacity:1;"/>
<stop offset="1" style="stop-color:#6600ff;stop-opacity:1;"/>
</linearGradient>
</defs>
<g id="surface1">
<path style=" stroke:none;fill-rule:nonzero;fill:url(#linear0);" d="M 28.191406 16.542969 L 28.191406 35.554688 L 35.796875 35.554688 L 35.796875 16.542969 Z M 28.191406 39.335938 L 28.191406 46.9375 L 35.796875 46.9375 L 35.796875 39.335938 Z M 28.191406 39.335938 "/>
<path style=" stroke:none;fill-rule:nonzero;fill:url(#linear1);" d="M 32 4.324219 L 30.703125 5.597656 C 28.257812 8.015625 25.984375 10.632812 23.671875 12.933594 L 12.933594 12.933594 L 12.933594 23.671875 C 10.632812 25.984375 8.015625 28.257812 5.597656 30.703125 L 4.324219 32 L 5.597656 33.296875 C 8.003906 35.730469 10.613281 38.089844 12.933594 40.4375 L 12.933594 51.066406 L 23.664062 51.066406 C 25.984375 53.375 28.253906 55.984375 30.703125 58.394531 L 32 59.675781 L 33.296875 58.394531 C 35.734375 55.996094 38.09375 53.386719 40.445312 51.066406 L 51.066406 51.066406 L 51.066406 40.433594 C 53.382812 38.085938 56 35.730469 58.394531 33.296875 L 59.675781 32 L 58.394531 30.703125 C 55.984375 28.257812 53.367188 25.984375 51.066406 23.671875 L 51.066406 12.933594 L 40.4375 12.933594 C 38.089844 10.613281 35.730469 8.003906 33.296875 5.597656 Z M 32.003906 9.566406 C 34.085938 11.699219 36.171875 13.972656 38.375 16.105469 L 38.914062 16.621094 L 47.378906 16.621094 L 47.378906 25.191406 L 47.894531 25.734375 C 50.039062 27.941406 52.3125 29.960938 54.433594 32.003906 C 52.300781 34.085938 50.027344 36.171875 47.894531 38.375 L 47.378906 38.914062 L 47.378906 47.378906 L 38.917969 47.378906 L 38.378906 47.894531 C 36.175781 50.027344 34.085938 52.300781 32.003906 54.433594 C 29.960938 52.3125 27.9375 50.039062 25.730469 47.894531 L 25.1875 47.378906 L 16.621094 47.378906 L 16.621094 38.914062 L 16.105469 38.375 C 13.972656 36.171875 11.699219 34.085938 9.566406 32.003906 C 11.6875 29.960938 13.960938 27.941406 16.105469 25.734375 L 16.621094 25.191406 L 16.621094 16.621094 L 25.191406 16.621094 L 25.734375 16.105469 C 27.941406 13.960938 29.960938 11.6875 32.003906 9.566406 Z M 32.003906 9.566406 "/>
</g>
</svg>
