<svg xmlns="http://www.w3.org/2000/svg" xmlns:xlink="http://www.w3.org/1999/xlink" width="64px" height="64px" viewBox="0 0 64 64" version="1.1">
<defs>
<linearGradient id="linear0" gradientUnits="userSpaceOnUse" x1="0" y1="0" x2="0" y2="1" gradientTransform="matrix(55.351351,0,0,55.351351,4.324324,4.324324)">
<stop offset="0" style="stop-color:#ff8963;stop-opacity:1;"/>
<stop offset="0.5" style="stop-color:#dddddd;stop-opacity:1;"/>
<stop offset="1" style="stop-color:#0F6FFF;stop-opacity:1;"/>
</linearGradient>
</defs>
<g id="surface1">
<path style=" stroke:none;fill-rule:evenodd;fill:url(#linear0);" d="M 32 10.472656 C 20.113281 10.472656 10.472656 20.113281 10.472656 32 C 10.472656 43.886719 20.113281 53.527344 32 53.527344 C 43.886719 53.527344 53.527344 43.886719 53.527344 32 C 53.527344 20.113281 43.886719 10.472656 32 10.472656 Z M 32 4.324219 C 47.285156 4.324219 59.675781 16.714844 59.675781 32 C 59.675781 47.285156 47.285156 59.675781 32 59.675781 C 16.714844 59.675781 4.324219 47.285156 4.324219 32 C 4.324219 16.714844 16.714844 4.324219 32 4.324219 Z M 19.839844 32 C 19.839844 25.289062 25.289062 19.839844 32 19.839844 C 38.710938 19.839844 44.160156 25.289062 44.160156 32 C 44.160156 38.710938 38.710938 44.160156 32 44.160156 C 25.289062 44.160156 19.839844 38.710938 19.839844 32 Z M 19.839844 32 "/>
</g>
</svg>
