<svg xmlns="http://www.w3.org/2000/svg" xmlns:xlink="http://www.w3.org/1999/xlink" width="64px" height="64px" viewBox="0 0 64 64" version="1.1">
<defs>
<linearGradient id="linear0" gradientUnits="userSpaceOnUse" x1="0" y1="0" x2="0" y2="1" gradientTransform="matrix(55.351351,0,0,55.351351,4.324324,4.324324)">
<stop offset="0" style="stop-color:#05f7ff;stop-opacity:1;"/>
<stop offset="0.5" style="stop-color:#dddddd;stop-opacity:1;"/>
<stop offset="1" style="stop-color:#e6ff05;stop-opacity:1;"/>
</linearGradient>
</defs>
<g id="surface1">
<path style=" stroke:none;fill-rule:nonzero;fill:url(#linear0);" d="M 32 4.324219 C 47.285156 4.324219 59.675781 16.714844 59.675781 32 C 59.675781 47.285156 47.285156 59.675781 32 59.675781 C 16.714844 59.675781 4.324219 47.285156 4.324219 32 C 4.324219 16.714844 16.714844 4.324219 32 4.324219 Z M 32 10.472656 C 20.113281 10.472656 10.472656 20.113281 10.472656 32 C 10.472656 43.886719 20.113281 53.527344 32 53.527344 C 43.886719 53.527344 53.527344 43.886719 53.527344 32 C 53.527344 20.113281 43.886719 10.472656 32 10.472656 Z M 33.902344 22.773438 L 39.996094 27.511719 L 46.203125 32 L 40 36.488281 L 33.902344 41.226562 L 33.976562 35.078125 L 16.699219 35.078125 L 20.117188 28.921875 L 33.972656 28.921875 Z M 33.902344 22.773438 "/>
</g>
</svg>
