<svg xmlns="http://www.w3.org/2000/svg" xmlns:xlink="http://www.w3.org/1999/xlink" width="64px" height="64px" viewBox="0 0 64 64" version="1.1">
<defs>
<linearGradient id="linear0" gradientUnits="userSpaceOnUse" x1="0" y1="0" x2="0" y2="1" gradientTransform="matrix(55.351351,0,0,45.288287,4.324324,9.355856)">
<stop offset="0" style="stop-color:#00fff2;stop-opacity:1;"/>
<stop offset="0.5" style="stop-color:#dddddd;stop-opacity:1;"/>
<stop offset="1" style="stop-color:#0062ff;stop-opacity:1;"/>
</linearGradient>
</defs>
<g id="surface1">
<path style=" stroke:none;fill-rule:evenodd;fill:url(#linear0);" d="M 20.738281 31.839844 L 20.738281 54.644531 L 12.292969 52.066406 L 12.417969 31.960938 L 4.324219 32.070312 C 4.324219 32.070312 8.882812 20.367188 16.171875 9.746094 C 16.171875 9.746094 16.171875 9.746094 16.171875 9.742188 C 16.175781 9.742188 16.1875 9.742188 16.1875 9.742188 C 16.1875 9.742188 16.1875 9.734375 16.1875 9.734375 C 16.191406 9.734375 16.191406 9.734375 16.203125 9.734375 C 23.539062 19.597656 28.710938 31.730469 28.710938 31.730469 Z M 51.707031 32.160156 L 51.707031 9.355469 L 43.261719 11.933594 L 43.382812 32.039062 L 35.289062 31.929688 C 35.289062 31.929688 39.851562 43.632812 47.132812 54.253906 C 47.136719 54.253906 47.144531 54.253906 47.144531 54.257812 C 47.144531 54.257812 47.148438 54.257812 47.148438 54.257812 C 47.152344 54.257812 47.152344 54.265625 47.160156 54.265625 C 47.164062 54.265625 47.164062 54.265625 47.164062 54.265625 C 54.511719 44.402344 59.675781 32.269531 59.675781 32.269531 Z M 51.707031 32.160156 "/>
</g>
</svg>
