<svg xmlns="http://www.w3.org/2000/svg" xmlns:xlink="http://www.w3.org/1999/xlink" width="64px" height="64px" viewBox="0 0 64 64" version="1.1">
<defs>
<linearGradient id="linear0" gradientUnits="userSpaceOnUse" x1="0" y1="0" x2="0" y2="1" gradientTransform="matrix(55.351351,0,0,55.351351,4.324324,4.324324)">
<stop offset="0" style="stop-color:#ffae00;stop-opacity:1;"/>
<stop offset="0.5" style="stop-color:#dddddd;stop-opacity:1;"/>
<stop offset="1" style="stop-color:#bf1d1d;stop-opacity:1;"/>
</linearGradient>
</defs>
<g id="surface1">
<path style=" stroke:none;fill-rule:nonzero;fill:url(#linear0);" d="M 13.429688 4.324219 C 13.429688 4.324219 11.226562 4.296875 8.972656 5.429688 C 6.71875 6.554688 4.324219 9.179688 4.324219 13.429688 L 4.324219 32.378906 L 31.621094 59.675781 L 59.675781 31.621094 L 32.378906 4.324219 Z M 13.429688 7.96875 L 30.867188 7.96875 L 54.527344 31.621094 L 31.621094 54.527344 L 7.96875 30.867188 L 7.96875 13.429688 C 7.96875 10.390625 9.207031 9.375 10.59375 8.679688 C 11.984375 7.988281 13.429688 7.96875 13.429688 7.96875 Z M 17.058594 11.597656 C 14.066406 11.597656 11.597656 14.066406 11.597656 17.058594 C 11.597656 20.054688 14.066406 22.515625 17.058594 22.515625 C 20.054688 22.515625 22.515625 20.054688 22.515625 17.058594 C 22.515625 14.066406 20.054688 11.597656 17.058594 11.597656 Z M 17.058594 15.242188 C 18.085938 15.242188 18.886719 16.039062 18.886719 17.058594 C 18.886719 18.085938 18.085938 18.886719 17.058594 18.886719 C 16.039062 18.886719 15.242188 18.085938 15.242188 17.058594 C 15.242188 16.039062 16.039062 15.242188 17.058594 15.242188 Z M 17.058594 15.242188 "/>
</g>
</svg>
