<svg xmlns="http://www.w3.org/2000/svg" xmlns:xlink="http://www.w3.org/1999/xlink" width="64px" height="64px" viewBox="0 0 64 64" version="1.1">
<defs>
<linearGradient id="linear0" gradientUnits="userSpaceOnUse" x1="0" y1="0" x2="0" y2="1" gradientTransform="matrix(51.891892,0,0,47.445946,6.054054,8.77027)">
<stop offset="0" style="stop-color:#ffae00;stop-opacity:1;"/>
<stop offset="0.5" style="stop-color:#dddddd;stop-opacity:1;"/>
<stop offset="1" style="stop-color:#6600ff;stop-opacity:1;"/>
</linearGradient>
</defs>
<g id="surface1">
<path style=" stroke:none;fill-rule:nonzero;fill:url(#linear0);" d="M 13.46875 8.769531 C 9.375 8.769531 6.054688 12.089844 6.054688 16.179688 C 6.050781 20.28125 9.367188 23.597656 13.46875 23.597656 C 17.5625 23.597656 20.882812 20.28125 20.878906 16.179688 C 20.878906 12.089844 17.558594 8.769531 13.46875 8.769531 Z M 50.539062 8.769531 C 46.441406 8.769531 43.121094 12.089844 43.121094 16.179688 C 43.117188 20.28125 46.4375 23.597656 50.539062 23.597656 C 54.632812 23.597656 57.949219 20.28125 57.945312 16.179688 C 57.945312 12.089844 54.625 8.769531 50.539062 8.769531 Z M 32.148438 25.113281 C 28.054688 25.117188 24.738281 28.433594 24.738281 32.527344 C 24.738281 36.621094 28.054688 39.9375 32.148438 39.941406 C 36.242188 39.9375 39.558594 36.621094 39.5625 32.527344 C 39.558594 28.433594 36.242188 25.117188 32.148438 25.113281 Z M 13.46875 41.390625 C 9.375 41.390625 6.054688 44.710938 6.054688 48.808594 C 6.054688 52.894531 9.375 56.214844 13.46875 56.214844 C 17.558594 56.214844 20.878906 52.894531 20.878906 48.808594 C 20.878906 44.710938 17.558594 41.390625 13.46875 41.390625 Z M 50.539062 41.390625 C 46.441406 41.390625 43.121094 44.710938 43.121094 48.808594 C 43.121094 52.894531 46.441406 56.214844 50.539062 56.214844 C 54.625 56.214844 57.945312 52.894531 57.945312 48.808594 C 57.945312 44.710938 54.625 41.390625 50.539062 41.390625 Z M 50.539062 41.390625 "/>
</g>
</svg>
