<svg xmlns="http://www.w3.org/2000/svg" xmlns:xlink="http://www.w3.org/1999/xlink" width="64px" height="64px" viewBox="0 0 64 64" version="1.1">
<g id="surface1">
<path style=" stroke:none;fill-rule:nonzero;fill:rgb(20%,81.960785%,47.843137%);fill-opacity:1;" d="M 12.96875 9.511719 C 12.054688 9.511719 11.171875 9.875 10.523438 10.527344 L 37.617188 52.613281 L 53.46875 10.527344 C 52.820312 9.875 51.941406 9.511719 51.023438 9.511719 Z M 12.96875 9.511719 "/>
<path style=" stroke:none;fill-rule:nonzero;fill:rgb(34.117648%,60.000002%,91.37255%);fill-opacity:1;" d="M 10.523438 10.527344 C 9.875 11.175781 9.511719 12.058594 9.511719 12.976562 L 9.511719 51.03125 C 9.511719 51.945312 9.875 52.828125 10.523438 53.476562 L 52.613281 50.738281 L 32 32.003906 Z M 10.523438 10.527344 "/>
<path style=" stroke:none;fill-rule:nonzero;fill:rgb(51.372552%,49.803922%,54.11765%);fill-opacity:1;" d="M 53.472656 10.527344 L 43.238281 20.761719 L 46.988281 28.257812 L 54.484375 32.003906 L 54.484375 12.972656 C 54.488281 12.058594 54.121094 11.175781 53.472656 10.527344 Z M 53.472656 10.527344 "/>
<path style=" stroke:none;fill-rule:nonzero;fill:rgb(97.254902%,85.882354%,31.764707%);fill-opacity:1;" d="M 32 32 L 43.242188 20.757812 L 54.484375 32.003906 L 45.113281 48.867188 Z M 32 32 "/>
<path style=" stroke:none;fill-rule:nonzero;fill:rgb(71.764708%,53.333336%,37.64706%);fill-opacity:1;" d="M 54.484375 32 L 31.996094 54.488281 L 51.023438 54.488281 C 51.941406 54.488281 52.824219 54.125 53.472656 53.476562 C 54.121094 52.828125 54.488281 51.945312 54.488281 51.027344 Z M 54.484375 32 "/>
<path style=" stroke:none;fill-rule:nonzero;fill:rgb(100%,58.431375%,21.176471%);fill-opacity:1;" d="M 43.242188 43.242188 L 20.757812 43.242188 L 31.996094 32 Z M 43.242188 43.242188 "/>
<path style=" stroke:none;fill-rule:nonzero;fill:rgb(96.470588%,34.901962%,37.64706%);fill-opacity:1;" d="M 20.757812 43.242188 L 10.523438 53.476562 C 11.171875 54.125 12.054688 54.488281 12.96875 54.488281 L 32 54.488281 L 43.242188 43.242188 Z M 20.757812 43.242188 "/>
</g>
</svg>
