<svg xmlns="http://www.w3.org/2000/svg" xmlns:xlink="http://www.w3.org/1999/xlink" width="64px" height="64px" viewBox="0 0 64 64" version="1.1">
<defs>
<linearGradient id="linear0" gradientUnits="userSpaceOnUse" x1="0" y1="0" x2="0" y2="1" gradientTransform="matrix(51.891892,0,0,55.351351,6.054054,4.324324)">
<stop offset="0" style="stop-color:#05f7ff;stop-opacity:1;"/>
<stop offset="0.5" style="stop-color:#dddddd;stop-opacity:1;"/>
<stop offset="1" style="stop-color:#e6ff05;stop-opacity:1;"/>
</linearGradient>
</defs>
<g id="surface1">
<path style=" stroke:none;fill-rule:nonzero;fill:url(#linear0);" d="M 25.621094 4.351562 C 23.417969 4.4375 21.1875 4.730469 18.941406 5.242188 C 16.230469 5.863281 15.1875 6.363281 14.308594 7.429688 C 13.363281 8.578125 13.085938 9.515625 11.957031 15.414062 C 10.894531 20.921875 10.9375 20.835938 8.886719 22.320312 C 7.835938 23.082031 6.6875 24.796875 6.308594 26.203125 C 5.914062 27.636719 5.988281 30.113281 6.460938 31.621094 C 6.769531 32.617188 7.214844 33.308594 8.257812 34.417969 C 9.460938 35.707031 9.863281 35.976562 11.285156 36.4375 C 14.136719 37.363281 16.867188 36.648438 18.957031 34.4375 C 20.460938 32.828125 21.078125 31.1875 21.078125 28.71875 C 21.078125 26.792969 20.746094 25.46875 19.875 24.125 C 23.257812 28.324219 24.664062 33.171875 24.117188 38.867188 C 23.613281 44.105469 22.339844 47.261719 19.417969 50.550781 L 18.265625 51.855469 L 19.089844 52.011719 C 19.542969 52.089844 20.011719 52.1875 20.132812 52.230469 C 20.644531 52.414062 24.71875 52.324219 25.445312 52.109375 C 25.886719 51.976562 26.457031 51.59375 26.710938 51.253906 C 27.144531 50.671875 27.164062 50.457031 27.039062 48.253906 C 26.910156 46.105469 26.9375 45.824219 27.335938 45.230469 C 27.714844 44.660156 27.730469 44.542969 27.445312 44.292969 C 26.988281 43.886719 27.058594 43.082031 27.582031 42.730469 C 27.949219 42.488281 28.003906 42.273438 27.902344 41.636719 C 27.828125 41.203125 27.714844 40.484375 27.644531 40.039062 C 27.460938 38.941406 27.894531 38.460938 29.644531 37.839844 C 30.410156 37.570312 31.085938 37.210938 31.148438 37.039062 C 31.28125 36.675781 31.105469 36.351562 28.824219 32.746094 C 27.023438 29.894531 26.265625 28.441406 26.269531 27.8125 C 26.273438 27.585938 26.5625 26.941406 26.914062 26.382812 C 27.730469 25.097656 27.734375 24.339844 26.917969 21.746094 C 25.214844 16.320312 22.039062 11.664062 18.785156 9.839844 L 17.699219 9.230469 C 17.71875 8.730469 17.714844 7.160156 17.742188 7.125 C 18.125 6.734375 20.730469 6.363281 24.109375 6.238281 C 30.886719 5.984375 36.8125 7.5625 42.484375 11.125 C 48.457031 14.878906 52.289062 20.109375 53.941406 26.789062 C 54.738281 30 54.78125 34.648438 54.039062 37.585938 C 53.121094 41.253906 51.429688 44.527344 48.957031 47.414062 C 46.1875 50.648438 40.289062 54.644531 35.960938 56.214844 C 30.621094 58.160156 23.949219 58.527344 18.265625 57.199219 C 17.460938 57.011719 16.246094 56.730469 15.5625 56.566406 C 14.355469 56.289062 13.09375 56.40625 13.09375 56.800781 C 13.09375 57.050781 17.175781 58.40625 19.386719 58.894531 C 20.3125 59.105469 21.882812 59.355469 22.875 59.460938 C 33.207031 60.542969 42.808594 57.5 49.738281 50.933594 C 57.941406 43.164062 60.210938 31.878906 55.566406 22.015625 C 53.4375 17.488281 48.742188 12.320312 43.929688 9.207031 C 38.566406 5.742188 32.238281 4.09375 25.621094 4.351562 Z M 25.621094 4.351562 "/>
</g>
</svg>
