<svg xmlns="http://www.w3.org/2000/svg" xmlns:xlink="http://www.w3.org/1999/xlink" width="64px" height="64px" viewBox="0 0 64 64" version="1.1">
<defs>
<linearGradient id="linear0" gradientUnits="userSpaceOnUse" x1="0" y1="0" x2="0" y2="1" gradientTransform="matrix(55.351351,0,0,55.351351,4.324324,4.324324)">
<stop offset="0" style="stop-color:#ffae00;stop-opacity:1;"/>
<stop offset="0.5" style="stop-color:#dddddd;stop-opacity:1;"/>
<stop offset="1" style="stop-color:#bf1d1d;stop-opacity:1;"/>
</linearGradient>
</defs>
<g id="surface1">
<path style=" stroke:none;fill-rule:nonzero;fill:url(#linear0);" d="M 34.179688 4.410156 C 22.753906 3.511719 11.957031 9.746094 7.015625 20.09375 L 22.164062 24.152344 C 24.144531 21.679688 26.984375 20.042969 30.117188 19.570312 Z M 43.90625 7.015625 L 39.847656 22.164062 C 42.320312 24.148438 43.960938 26.984375 44.429688 30.117188 L 59.589844 34.179688 C 60.488281 22.753906 54.253906 11.949219 43.90625 7.015625 Z M 4.410156 29.820312 C 3.511719 41.246094 9.746094 52.042969 20.09375 56.984375 L 24.152344 41.835938 C 21.675781 39.855469 20.039062 37.011719 19.566406 33.878906 L 4.40625 29.820312 Z M 41.835938 39.847656 C 39.851562 42.324219 37.011719 43.960938 33.882812 44.429688 L 29.820312 59.589844 C 41.246094 60.488281 52.042969 54.253906 56.984375 43.90625 Z M 41.835938 39.847656 "/>
</g>
</svg>
