<svg xmlns="http://www.w3.org/2000/svg" xmlns:xlink="http://www.w3.org/1999/xlink" width="64px" height="64px" viewBox="0 0 64 64" version="1.1">
<defs>
<linearGradient id="linear0" gradientUnits="userSpaceOnUse" x1="0" y1="0" x2="0" y2="1" gradientTransform="matrix(53.445946,0,0,55.351351,5.274775,4.324324)">
<stop offset="0" style="stop-color:#00a2ff;stop-opacity:1;"/>
<stop offset="0.5" style="stop-color:#dddddd;stop-opacity:1;"/>
<stop offset="1" style="stop-color:#00ffae;stop-opacity:1;"/>
</linearGradient>
</defs>
<g id="surface1">
<path style=" stroke:none;fill-rule:evenodd;fill:url(#linear0);" d="M 34.460938 28.664062 C 34.527344 29.160156 34.585938 29.660156 34.636719 30.160156 C 34.789062 31.582031 34.652344 33.011719 34.554688 34.433594 C 34.503906 35.6875 34.550781 36.941406 34.5625 38.199219 C 34.589844 39.179688 34.496094 40.148438 34.417969 41.125 C 34.363281 41.789062 34.445312 42.449219 34.4375 43.117188 C 34.414062 43.746094 34.324219 44.367188 34.214844 44.996094 C 35.394531 44.886719 36.578125 44.769531 37.757812 44.675781 C 38.597656 44.542969 39.449219 44.414062 40.296875 44.300781 C 40.539062 44.308594 40.765625 44.28125 41 44.246094 C 41.21875 44.144531 42.617188 47.285156 42.402344 47.382812 C 42.085938 47.472656 41.78125 47.578125 41.460938 47.644531 C 40.6875 47.691406 39.933594 47.929688 39.164062 48.027344 C 37.90625 48.363281 36.617188 48.558594 35.324219 48.691406 C 34.8125 48.714844 34.3125 48.765625 33.8125 48.828125 C 33.820312 49.132812 33.828125 49.4375 33.839844 49.738281 C 33.914062 50.914062 33.90625 52.09375 33.902344 53.269531 C 33.902344 54.253906 33.878906 55.238281 33.800781 56.226562 C 33.738281 56.660156 33.753906 57.089844 33.753906 57.527344 C 33.753906 57.769531 30.335938 57.792969 30.335938 57.550781 C 30.335938 57.097656 30.335938 56.648438 30.273438 56.203125 C 30.214844 55.226562 30.21875 54.242188 30.238281 53.265625 C 30.234375 52.121094 30.171875 50.984375 30.136719 49.839844 C 30.132812 49.664062 30.125 49.488281 30.121094 49.308594 C 29.589844 49.476562 29.082031 49.734375 28.515625 49.800781 C 27.136719 50.078125 25.742188 50.375 24.335938 50.335938 C 24.113281 50.445312 22.585938 47.308594 22.808594 47.199219 C 24.164062 46.578125 25.660156 46.421875 27.117188 46.261719 C 28.078125 46.289062 28.960938 45.972656 29.878906 45.734375 C 30.042969 45.699219 30.210938 45.660156 30.378906 45.621094 C 30.429688 45.214844 30.472656 44.8125 30.542969 44.414062 C 30.761719 43.191406 30.558594 44.421875 30.78125 43.335938 C 30.8125 43.175781 30.828125 43.015625 30.863281 42.863281 C 30.976562 42.300781 31.023438 41.710938 30.972656 41.136719 C 30.882812 40.164062 30.753906 39.191406 30.761719 38.214844 C 30.757812 36.894531 30.800781 35.582031 30.917969 34.265625 C 30.960938 33 30.8125 31.746094 30.664062 30.488281 C 30.597656 29.800781 30.542969 29.105469 30.511719 28.410156 C 30.449219 28.621094 30.421875 28.835938 30.402344 29.078125 C 30.292969 29.800781 30.011719 30.472656 29.679688 31.121094 C 29.460938 31.457031 29.394531 31.839844 29.234375 32.21875 C 29.011719 32.710938 28.714844 33.171875 28.488281 33.664062 C 28.265625 34.199219 28.042969 34.738281 27.835938 35.285156 C 27.570312 36.160156 27.097656 36.921875 26.554688 37.648438 C 26.3125 37.890625 26.152344 38.164062 26.027344 38.476562 C 25.714844 39.121094 25.375 39.746094 25.011719 40.367188 C 24.714844 40.863281 24.386719 41.324219 24.113281 41.828125 C 23.800781 42.378906 23.539062 42.945312 23.226562 43.496094 C 22.910156 44.066406 22.566406 44.617188 22.253906 45.1875 C 21.835938 45.882812 21.324219 46.511719 20.808594 47.125 C 20.511719 47.5 20.199219 47.886719 20.011719 48.335938 C 19.707031 49.082031 19.234375 49.726562 18.726562 50.339844 C 18.300781 50.914062 17.808594 51.421875 17.347656 51.960938 C 17.039062 52.394531 16.617188 52.761719 16.351562 53.226562 C 16.050781 53.839844 15.59375 54.351562 15.160156 54.867188 C 14.769531 55.375 14.335938 55.828125 13.882812 56.273438 C 13.441406 56.699219 13.011719 57.117188 12.578125 57.550781 C 12.148438 57.984375 11.730469 58.414062 11.308594 58.847656 C 11.03125 59.125 10.765625 59.410156 10.460938 59.664062 C 10.3125 59.855469 7.621094 57.730469 7.769531 57.539062 C 8.015625 57.242188 8.296875 56.984375 8.566406 56.707031 C 8.996094 56.28125 9.414062 55.847656 9.835938 55.410156 C 10.28125 54.957031 10.730469 54.496094 11.199219 54.066406 C 11.5625 53.734375 11.949219 53.40625 12.253906 53.003906 C 12.585938 52.5625 12.960938 52.160156 13.257812 51.6875 C 13.617188 51.097656 13.988281 50.539062 14.441406 50.023438 C 14.902344 49.457031 15.378906 48.902344 15.828125 48.328125 C 16.171875 47.960938 16.542969 47.59375 16.785156 47.144531 C 17.09375 46.457031 17.402344 45.742188 17.882812 45.152344 C 18.3125 44.632812 18.753906 44.113281 19.152344 43.570312 C 19.292969 43.382812 19.472656 43.179688 19.582031 42.96875 C 19.648438 42.835938 19.785156 42.476562 19.835938 42.367188 C 19.882812 42.265625 19.945312 42.164062 20 42.058594 C 20.308594 41.460938 20.730469 40.945312 21.011719 40.335938 C 21.3125 39.851562 21.585938 39.339844 21.828125 38.828125 C 22.136719 38.292969 22.40625 37.703125 22.867188 37.28125 C 23.109375 36.847656 23.246094 36.355469 23.515625 35.933594 C 23.882812 35.328125 24.238281 34.714844 24.566406 34.089844 C 24.820312 33.582031 25.054688 33.078125 25.210938 32.53125 C 25.429688 31.988281 25.714844 31.488281 26.050781 31.015625 C 26.082031 30.960938 26.105469 30.890625 26.136719 30.835938 C 26.148438 30.820312 26.175781 30.824219 26.179688 30.808594 C 26.339844 30.457031 26.328125 30.023438 26.566406 29.703125 C 26.78125 29.402344 26.820312 29.027344 26.984375 28.703125 C 27.105469 28.058594 27.117188 27.382812 27.503906 26.820312 C 27.6875 26.433594 27.90625 26.066406 28.039062 25.660156 C 28.144531 25.367188 28.238281 25.070312 28.335938 24.785156 C 27.894531 24.90625 27.449219 25.003906 26.988281 24.96875 C 26.3125 25.058594 25.652344 25.238281 24.96875 25.238281 C 24.511719 25.296875 24.0625 25.402344 23.609375 25.46875 C 23.136719 25.539062 22.664062 25.542969 22.207031 25.6875 C 21.191406 25.820312 20.1875 25.972656 19.171875 26.121094 C 18.363281 26.175781 17.550781 26.324219 16.753906 26.496094 C 16.175781 26.578125 15.597656 26.757812 15.011719 26.796875 C 14.503906 26.835938 13.996094 26.835938 13.488281 26.847656 C 13.324219 26.851562 13.164062 26.847656 13.003906 26.839844 C 12.207031 26.824219 11.414062 26.78125 10.625 26.792969 C 9.839844 26.789062 9.066406 26.824219 8.289062 26.855469 C 7.296875 26.878906 6.296875 26.929688 5.3125 26.742188 C 5.085938 26.679688 5.929688 23.363281 6.164062 23.417969 C 7.164062 23.238281 8.179688 23.285156 9.191406 23.308594 C 9.960938 23.335938 10.726562 23.375 11.488281 23.367188 C 12.292969 23.382812 13.097656 23.335938 13.902344 23.3125 C 15.152344 23.308594 13.941406 23.328125 13.902344 23.292969 C 13.785156 23.199219 14.1875 23.273438 14.328125 23.265625 C 14.742188 23.234375 15.160156 23.199219 15.566406 23.164062 C 16.339844 23.070312 17.105469 22.882812 17.867188 22.730469 C 18.886719 22.539062 19.914062 22.382812 20.945312 22.257812 C 21.863281 22.136719 22.773438 21.996094 23.6875 21.863281 C 24.402344 21.785156 25.109375 21.773438 25.820312 21.699219 C 26.433594 21.660156 26.820312 21.644531 27.402344 21.457031 C 28.203125 21.199219 29.027344 21.042969 29.863281 20.949219 C 29.863281 20.675781 29.863281 20.40625 29.886719 20.132812 C 29.867188 19.179688 29.71875 18.253906 29.617188 17.308594 C 29.539062 15.8125 29.558594 14.308594 29.363281 12.820312 C 29.210938 11.402344 29.0625 9.988281 28.996094 8.5625 C 28.933594 7.308594 28.691406 6.066406 28.664062 4.8125 C 28.636719 4.566406 32.042969 4.152344 32.070312 4.394531 C 32.648438 5.648438 32.726562 7.066406 32.769531 8.429688 C 32.8125 9.761719 32.960938 11.089844 33.160156 12.414062 C 33.457031 14 33.421875 15.605469 33.421875 17.214844 C 33.394531 18.175781 33.421875 19.136719 33.421875 20.109375 C 33.421875 20.230469 33.421875 20.363281 33.429688 20.488281 C 34.296875 20.296875 35.179688 20.191406 36.050781 20.050781 C 36.691406 19.988281 37.335938 19.863281 37.976562 19.820312 C 38.078125 19.8125 38.171875 19.820312 38.265625 19.820312 C 38.367188 19.8125 38.472656 19.800781 38.578125 19.792969 C 39.207031 19.648438 39.839844 19.714844 40.472656 19.625 C 41.058594 19.503906 41.648438 19.382812 42.242188 19.289062 C 42.835938 19.152344 43.4375 19.070312 44.027344 18.957031 C 44.820312 18.835938 45.617188 18.726562 46.394531 18.527344 C 47.070312 18.3125 47.765625 18.144531 48.445312 17.941406 C 49.109375 17.730469 49.746094 17.476562 50.390625 17.230469 C 51.011719 16.96875 51.675781 16.917969 52.324219 16.789062 C 52.800781 16.726562 52.855469 16.746094 53.300781 16.5625 C 53.792969 16.382812 54.300781 16.257812 54.769531 16.023438 C 55.355469 15.691406 55.933594 15.585938 56.582031 15.53125 C 56.609375 15.527344 56.636719 15.523438 56.664062 15.515625 C 56.878906 15.410156 58.421875 18.484375 58.207031 18.59375 C 58.070312 18.636719 57.941406 18.675781 57.808594 18.714844 C 57.632812 18.753906 57.460938 18.8125 57.28125 18.8125 C 57.253906 18.820312 57.238281 18.785156 57.214844 18.773438 C 57.070312 18.71875 56.910156 18.800781 56.773438 18.847656 C 56.203125 19.109375 55.660156 19.449219 55.03125 19.578125 C 54.625 19.6875 54.226562 19.824219 53.820312 19.917969 C 53.789062 19.929688 53.792969 19.757812 53.726562 19.902344 C 53.476562 19.960938 53.242188 20.0625 52.996094 20.132812 C 52.703125 20.207031 52.390625 20.21875 52.109375 20.335938 C 51.746094 20.410156 51.429688 20.570312 51.082031 20.703125 C 50.1875 21.042969 51.113281 20.703125 50.433594 20.882812 C 50.320312 20.914062 50.210938 20.960938 50.097656 21.003906 C 49.457031 21.207031 48.8125 21.449219 48.179688 21.675781 C 47.476562 21.945312 46.761719 22.1875 46.003906 22.234375 C 45.878906 22.238281 45.757812 22.226562 45.625 22.226562 C 45.511719 22.234375 45.394531 22.253906 45.28125 22.261719 C 45.027344 22.285156 44.78125 22.328125 44.53125 22.339844 C 44.476562 22.347656 44.429688 22.3125 44.378906 22.3125 C 44.144531 22.3125 43.914062 22.417969 43.6875 22.457031 C 43.082031 22.613281 42.460938 22.734375 41.835938 22.820312 C 41.152344 22.984375 40.484375 23.148438 39.773438 23.097656 C 39.523438 23.136719 39.285156 23.191406 39.03125 23.226562 C 38.9375 23.234375 38.835938 23.214844 38.742188 23.226562 C 38.300781 23.246094 37.90625 23.421875 37.472656 23.5 C 36.8125 23.617188 36.144531 23.707031 35.484375 23.785156 C 36.015625 24.3125 36.4375 24.941406 36.78125 25.625 C 36.824219 25.726562 36.878906 25.824219 36.917969 25.929688 C 37.058594 26.292969 37.058594 26.328125 37.109375 26.714844 C 37.117188 26.757812 37.132812 26.878906 37.121094 26.839844 C 36.996094 26.445312 37.03125 26.527344 37.121094 26.652344 C 37.472656 26.757812 37.734375 27.5 37.941406 27.824219 C 38.089844 28.070312 38.347656 28.21875 38.539062 28.417969 C 38.621094 28.503906 38.894531 28.847656 38.976562 28.949219 C 39.417969 29.460938 39.867188 29.957031 40.226562 30.539062 C 40.5 31.03125 40.785156 31.511719 41.054688 32.011719 C 41.335938 32.363281 41.613281 32.71875 41.902344 33.066406 C 42.324219 33.605469 42.757812 34.136719 43.132812 34.710938 C 43.449219 35.136719 43.773438 35.570312 44.039062 36.039062 C 44.355469 36.539062 44.757812 36.988281 45.117188 37.457031 C 45.621094 38.082031 46.03125 38.78125 46.542969 39.390625 C 46.933594 39.882812 47.363281 40.328125 47.820312 40.753906 C 48.261719 41.148438 48.679688 41.566406 49.097656 41.996094 C 49.527344 42.4375 49.960938 42.878906 50.394531 43.324219 C 50.46875 43.390625 50.53125 43.472656 50.609375 43.539062 C 50.734375 43.644531 50.890625 43.71875 51.027344 43.820312 C 51.320312 44.03125 51.585938 44.265625 51.851562 44.503906 C 51.90625 44.542969 51.960938 44.59375 52.015625 44.625 C 52.066406 44.660156 52.121094 44.664062 52.179688 44.691406 C 52.257812 44.734375 52.335938 44.769531 52.414062 44.820312 C 52.726562 45.003906 53.03125 45.1875 53.328125 45.390625 C 54 45.769531 54.566406 46.296875 55.191406 46.738281 C 55.5625 46.960938 55.851562 47.289062 56.171875 47.558594 C 56.3125 47.679688 56.472656 47.785156 56.621094 47.902344 C 57.011719 48.230469 57.433594 48.511719 57.863281 48.78125 C 58.152344 48.867188 58.417969 49.011719 58.707031 49.113281 C 58.910156 49.238281 57.070312 52.121094 56.867188 51.988281 C 56.460938 51.8125 56.042969 51.644531 55.664062 51.417969 C 55.089844 51.082031 54.539062 50.703125 54.042969 50.253906 C 53.660156 49.894531 53.289062 49.542969 52.800781 49.3125 C 52.1875 48.886719 51.597656 48.421875 50.972656 48.011719 C 50.402344 47.632812 49.808594 47.289062 49.261719 46.863281 C 48.707031 46.417969 48.132812 45.996094 47.648438 45.460938 C 47.210938 45.015625 46.78125 44.5625 46.351562 44.109375 C 45.988281 43.730469 45.617188 43.355469 45.207031 43.027344 C 44.585938 42.496094 43.984375 41.933594 43.5 41.257812 C 43.039062 40.585938 42.542969 39.941406 42.082031 39.269531 C 41.707031 38.726562 41.335938 38.175781 41.011719 37.597656 C 40.730469 37.214844 40.449219 36.835938 40.148438 36.46875 C 39.746094 35.96875 39.328125 35.484375 39 34.929688 C 38.652344 34.46875 38.285156 34.023438 37.996094 33.523438 C 37.691406 33.082031 37.4375 32.609375 37.136719 32.171875 C 36.828125 31.738281 36.515625 31.3125 36.152344 30.933594 C 35.664062 30.429688 35.148438 29.957031 34.824219 29.320312 C 34.707031 29.097656 34.585938 28.878906 34.460938 28.664062 Z M 34.460938 28.664062 "/>
</g>
</svg>
