<svg xmlns="http://www.w3.org/2000/svg" xmlns:xlink="http://www.w3.org/1999/xlink" width="64px" height="64px" viewBox="0 0 64 64" version="1.1">
<defs>
<linearGradient id="linear0" gradientUnits="userSpaceOnUse" x1="0" y1="0" x2="0" y2="1" gradientTransform="matrix(55.351351,0,0,49.711713,4.324324,7.144144)">
<stop offset="0" style="stop-color:#ffae00;stop-opacity:1;"/>
<stop offset="0.5" style="stop-color:#dddddd;stop-opacity:1;"/>
<stop offset="1" style="stop-color:#bf1d1d;stop-opacity:1;"/>
</linearGradient>
</defs>
<g id="surface1">
<path style=" stroke:none;fill-rule:nonzero;fill:url(#linear0);" d="M 55.578125 7.148438 C 54.894531 7.191406 54.226562 7.355469 53.589844 7.621094 L 53.585938 7.621094 C 52.972656 7.863281 50.089844 9.070312 45.703125 10.914062 L 29.984375 17.539062 C 18.707031 22.285156 7.617188 26.960938 7.617188 26.960938 L 7.746094 26.910156 C 7.746094 26.910156 6.988281 27.164062 6.1875 27.707031 C 5.691406 28.023438 5.269531 28.433594 4.941406 28.914062 C 4.542969 29.488281 4.230469 30.367188 4.347656 31.273438 C 4.539062 32.8125 5.539062 33.738281 6.253906 34.242188 C 6.976562 34.761719 7.664062 35.003906 7.664062 35.003906 L 7.6875 35.003906 L 18.082031 38.503906 C 18.542969 40 21.253906 48.886719 21.894531 50.933594 C 22.285156 52.152344 22.660156 52.917969 23.121094 53.503906 C 23.347656 53.800781 23.613281 54.050781 23.929688 54.253906 C 24.09375 54.347656 24.269531 54.417969 24.449219 54.476562 L 24.347656 54.449219 C 24.378906 54.460938 24.402344 54.484375 24.429688 54.496094 C 24.511719 54.515625 24.566406 54.523438 24.679688 54.539062 C 26.324219 55.039062 27.648438 54.015625 27.648438 54.015625 L 27.71875 53.957031 L 33.863281 48.367188 L 44.148438 56.261719 L 44.382812 56.363281 C 46.527344 57.300781 48.699219 56.78125 49.847656 55.855469 C 51.003906 54.929688 51.449219 53.734375 51.449219 53.734375 L 51.527344 53.539062 L 59.476562 12.8125 C 59.703125 11.800781 59.761719 10.863281 59.511719 9.949219 C 59.257812 9.027344 58.664062 8.230469 57.847656 7.71875 C 57.164062 7.308594 56.375 7.105469 55.578125 7.148438 Z M 55.363281 11.511719 C 55.355469 11.644531 55.378906 11.632812 55.320312 11.886719 L 55.320312 11.910156 L 47.441406 52.21875 C 47.410156 52.28125 47.351562 52.40625 47.191406 52.527344 C 47.027344 52.660156 46.894531 52.742188 46.203125 52.46875 L 33.617188 42.820312 L 26.015625 49.753906 L 27.613281 39.554688 L 48.175781 20.386719 C 49.023438 19.597656 48.738281 19.433594 48.738281 19.433594 C 48.796875 18.46875 47.460938 19.148438 47.460938 19.148438 L 21.53125 35.210938 L 21.523438 35.164062 L 9.097656 30.984375 L 9.097656 30.976562 L 9.066406 30.96875 C 9.089844 30.960938 9.109375 30.957031 9.132812 30.945312 L 9.199219 30.910156 L 9.265625 30.886719 C 9.265625 30.886719 20.363281 26.207031 31.636719 21.460938 C 37.289062 19.082031 42.976562 16.6875 47.351562 14.835938 C 49.945312 13.746094 52.542969 12.664062 55.148438 11.582031 C 55.320312 11.511719 55.238281 11.511719 55.363281 11.511719 Z M 55.363281 11.511719 "/>
</g>
</svg>
