<svg xmlns="http://www.w3.org/2000/svg" xmlns:xlink="http://www.w3.org/1999/xlink" width="64px" height="64px" viewBox="0 0 64 64" version="1.1">
<g id="surface1">
<path style=" stroke:none;fill-rule:nonzero;fill:rgb(19.215687%,20.392157%,36.862746%);fill-opacity:1;" d="M 18.164062 9.511719 L 45.835938 9.511719 C 50.613281 9.511719 54.488281 13.386719 54.488281 18.164062 L 54.488281 45.835938 C 54.488281 50.613281 50.613281 54.488281 45.835938 54.488281 L 18.164062 54.488281 C 13.386719 54.488281 9.511719 50.613281 9.511719 45.835938 L 9.511719 18.164062 C 9.511719 13.386719 13.386719 9.511719 18.164062 9.511719 Z M 18.164062 9.511719 "/>
<path style=" stroke:none;fill-rule:nonzero;fill:rgb(100%,100%,100%);fill-opacity:1;" d="M 28.414062 17.613281 C 23.417969 17.613281 19.40625 21.484375 18.855469 26.339844 C 16.816406 28.175781 15.574219 30.753906 15.566406 33.53125 C 15.566406 33.535156 15.566406 33.535156 15.566406 33.539062 C 15.566406 38.902344 19.972656 43.308594 25.335938 43.308594 C 25.34375 43.308594 25.355469 43.308594 25.363281 43.308594 C 25.402344 43.308594 25.441406 43.296875 25.484375 43.296875 C 27.308594 45.214844 29.8125 46.382812 32.511719 46.386719 C 32.511719 46.386719 32.515625 46.386719 32.519531 46.386719 C 35.296875 46.378906 37.878906 45.136719 39.710938 43.09375 C 44.566406 42.539062 48.433594 38.53125 48.433594 33.539062 C 48.433594 31.335938 47.5625 29.285156 46.210938 27.566406 C 45.757812 22.613281 41.683594 18.644531 36.613281 18.644531 C 36.613281 18.644531 36.605469 18.644531 36.601562 18.644531 C 35.53125 18.648438 34.492188 18.890625 33.488281 19.238281 C 31.992188 18.308594 30.335938 17.671875 28.558594 17.644531 C 28.542969 17.636719 28.53125 17.628906 28.519531 17.621094 L 28.519531 17.636719 C 28.484375 17.636719 28.449219 17.617188 28.414062 17.617188 Z M 28.414062 20.210938 C 30.207031 20.210938 31.933594 20.886719 33.253906 22.09375 C 34.289062 21.539062 35.4375 21.242188 36.613281 21.238281 C 40.574219 21.238281 43.789062 24.449219 43.789062 28.414062 C 43.789062 28.445312 43.785156 28.476562 43.785156 28.511719 C 45.101562 29.851562 45.835938 31.65625 45.835938 33.539062 C 45.835938 37.5 42.628906 40.710938 38.664062 40.710938 C 38.574219 40.710938 38.488281 40.703125 38.398438 40.691406 C 37.0625 42.628906 34.863281 43.785156 32.511719 43.789062 C 30.117188 43.789062 27.886719 42.585938 26.554688 40.597656 C 26.152344 40.667969 25.746094 40.710938 25.335938 40.710938 C 21.375 40.710938 18.164062 37.5 18.164062 33.539062 C 18.167969 31.1875 19.324219 28.988281 21.257812 27.652344 C 21.246094 27.5625 21.242188 27.476562 21.238281 27.386719 C 21.238281 23.425781 24.449219 20.210938 28.414062 20.210938 Z M 27.433594 28.039062 C 27.355469 28.042969 27.28125 28.058594 27.210938 28.082031 C 26.992188 28.160156 26.8125 28.3125 26.714844 28.519531 C 26.613281 28.730469 26.601562 28.964844 26.675781 29.183594 C 26.75 29.402344 26.910156 29.578125 27.113281 29.679688 L 29.09375 30.636719 L 27.113281 31.601562 C 26.6875 31.8125 26.507812 32.328125 26.714844 32.757812 C 26.921875 33.1875 27.4375 33.363281 27.871094 33.15625 L 31.453125 31.414062 C 31.75 31.273438 31.9375 30.96875 31.9375 30.636719 C 31.9375 30.308594 31.75 30.007812 31.453125 29.863281 L 27.871094 28.121094 C 27.734375 28.054688 27.582031 28.027344 27.433594 28.039062 Z M 32.132812 33.984375 C 31.867188 33.96875 31.613281 34.074219 31.4375 34.269531 C 31.117188 34.628906 31.152344 35.175781 31.507812 35.492188 C 31.507812 35.492188 31.824219 35.761719 32.300781 35.96875 C 32.78125 36.179688 33.472656 36.375 34.371094 36.375 C 35.265625 36.375 35.960938 36.179688 36.4375 35.96875 C 36.917969 35.761719 37.234375 35.492188 37.234375 35.492188 C 37.589844 35.175781 37.621094 34.628906 37.304688 34.269531 C 36.988281 33.914062 36.4375 33.882812 36.085938 34.199219 C 36.085938 34.199219 36.027344 34.261719 35.746094 34.386719 C 35.464844 34.507812 35.019531 34.644531 34.371094 34.644531 C 33.722656 34.644531 33.277344 34.507812 32.996094 34.386719 C 32.714844 34.261719 32.660156 34.199219 32.660156 34.199219 C 32.511719 34.070312 32.328125 33.992188 32.132812 33.984375 Z M 32.132812 33.984375 "/>
</g>
</svg>
