<svg xmlns="http://www.w3.org/2000/svg" xmlns:xlink="http://www.w3.org/1999/xlink" width="64px" height="64px" viewBox="0 0 64 64" version="1.1">
<defs>
<linearGradient id="linear0" gradientUnits="userSpaceOnUse" x1="0" y1="0" x2="0" y2="1" gradientTransform="matrix(51.396395,0,0,55.351351,6.301802,4.324324)">
<stop offset="0" style="stop-color:#ff8963;stop-opacity:1;"/>
<stop offset="0.5" style="stop-color:#dddddd;stop-opacity:1;"/>
<stop offset="1" style="stop-color:#0F6FFF;stop-opacity:1;"/>
</linearGradient>
</defs>
<g id="surface1">
<path style=" stroke:none;fill-rule:evenodd;fill:url(#linear0);" d="M 46.011719 36.703125 C 46.011719 41.796875 41.441406 46.386719 39.011719 50.847656 C 36.097656 56.191406 36.746094 57.324219 30.855469 57.324219 C 20.050781 57.324219 16.476562 47.328125 16.476562 36.125 C 16.476562 30.289062 16.761719 23.089844 20.570312 19.390625 C 24.070312 15.988281 29.972656 15.132812 35.148438 15.132812 C 40.882812 15.132812 43.703125 19.378906 45.382812 22.03125 C 46.867188 24.375 46.011719 31.445312 46.011719 36.703125 Z M 57.699219 26.253906 C 57.699219 39.210938 42.730469 59.675781 29.679688 59.675781 C 16.632812 59.675781 5.449219 39.226562 6.351562 25.335938 C 6.960938 15.902344 18.40625 4.105469 25.078125 4.328125 C 27.3125 4.550781 23.285156 6.851562 25.972656 6.105469 C 28.011719 5.539062 30.160156 5.230469 32.378906 5.230469 C 45.429688 5.230469 57.699219 13.292969 57.699219 26.253906 Z M 24.636719 30.089844 L 25.160156 30.289062 C 25.609375 30.457031 26.085938 30.292969 26.21875 29.929688 C 26.355469 29.558594 26.097656 29.121094 25.648438 28.949219 L 20.664062 27.070312 C 20.210938 26.902344 19.734375 27.058594 19.597656 27.429688 C 19.460938 27.796875 19.71875 28.234375 20.171875 28.40625 L 22.511719 29.289062 C 21.917969 30.085938 21.511719 31.6875 21.511719 33.539062 C 21.511719 36.179688 22.335938 38.3125 23.363281 38.3125 C 24.375 38.3125 25.203125 36.179688 25.203125 33.539062 C 25.203125 32.1875 24.984375 30.960938 24.636719 30.089844 Z M 36.015625 26.144531 L 41.410156 23.539062 C 41.894531 23.296875 42.433594 23.410156 42.597656 23.78125 C 42.773438 24.152344 42.511719 24.644531 42.027344 24.878906 L 36.632812 27.488281 C 36.148438 27.726562 35.613281 27.613281 35.441406 27.242188 C 35.273438 26.867188 35.527344 26.378906 36.015625 26.144531 Z M 36.511719 32.433594 C 36.324219 29.664062 37.058594 27.40625 38.136719 27.394531 C 39.21875 27.382812 40.246094 29.621094 40.433594 32.394531 C 40.613281 35.164062 39.882812 37.417969 38.800781 37.433594 C 37.71875 37.441406 36.6875 35.203125 36.511719 32.433594 Z M 34.503906 38.0625 C 35.292969 39.015625 37.390625 39.515625 37.855469 40.910156 C 38.269531 42.148438 37.769531 43.675781 37.003906 44.726562 C 36.554688 45.335938 35.800781 45.820312 35.054688 45.863281 C 33.914062 45.921875 32.261719 45.570312 31.921875 44.476562 C 31.835938 44.1875 32.113281 43.789062 32.402344 43.703125 C 33.117188 43.488281 33.714844 44.847656 34.4375 44.648438 C 35.710938 44.292969 36.886719 42.660156 36.675781 41.339844 C 36.476562 40.117188 34.285156 40.191406 33.726562 39.089844 C 33.300781 38.246094 32.757812 36.4375 33.675781 36.261719 C 33.914062 36.785156 34.152344 37.625 34.503906 38.0625 Z M 27.070312 50.933594 L 34.882812 51.78125 C 35.570312 51.851562 36.050781 52.164062 35.933594 52.484375 C 35.824219 52.796875 35.164062 52.988281 34.476562 52.917969 L 26.664062 52.078125 C 25.972656 52.003906 25.5 51.6875 25.613281 51.367188 C 25.726562 51.054688 26.378906 50.863281 27.070312 50.933594 Z M 27.070312 50.933594 "/>
</g>
</svg>
