<svg xmlns="http://www.w3.org/2000/svg" xmlns:xlink="http://www.w3.org/1999/xlink" width="64px" height="64px" viewBox="0 0 64 64" version="1.1">
<g id="surface1">
<path style=" stroke:none;fill-rule:nonzero;fill:rgb(90.196079%,90.196079%,90.196079%);fill-opacity:1;" d="M 12.109375 26.8125 L 12.109375 28.539062 C 12.109375 32.375 15.191406 35.460938 19.027344 35.460938 L 20.757812 35.460938 L 20.757812 30.269531 L 25.945312 30.269531 C 26.90625 30.269531 27.675781 31.039062 27.675781 32 C 27.675781 32.960938 26.90625 33.730469 25.945312 33.730469 L 24.214844 33.730469 L 24.214844 35.460938 L 43.242188 35.460938 C 45.636719 35.460938 47.566406 33.53125 47.566406 31.136719 C 47.570312 29.328125 46.449219 27.710938 44.757812 27.082031 L 44.972656 26.8125 Z M 12.109375 26.8125 "/>
<path style=" stroke:none;fill-rule:nonzero;fill:rgb(97.647059%,97.647059%,97.647059%);fill-opacity:1;" d="M 17.667969 6.917969 C 17.667969 15.875 21.25 21.25 28.417969 26.625 L 28.753906 26.847656 C 28.886719 26.960938 29.03125 27.070312 29.183594 27.175781 L 40.09375 34.625 C 41.207031 35.386719 42.574219 35.679688 43.902344 35.429688 C 45.226562 35.179688 46.398438 34.410156 47.15625 33.292969 C 48.605469 31.183594 48.25 28.324219 46.332031 26.628906 L 46.335938 26.625 L 46.300781 26.605469 C 46.148438 26.46875 45.988281 26.347656 45.824219 26.234375 L 36.132812 19.613281 Z M 17.667969 6.917969 "/>
<path style=" stroke:none;fill-rule:nonzero;fill:rgb(90.588236%,29.411766%,32.156864%);fill-opacity:1;" d="M 45.4375 23.042969 C 43.777344 23.042969 42.128906 23.65625 40.957031 24.835938 L 19.460938 46.332031 C 18.285156 47.503906 17.667969 49.148438 17.667969 50.8125 C 17.664062 52.472656 18.328125 54.070312 19.503906 55.246094 C 20.679688 56.421875 22.273438 57.082031 23.9375 57.082031 C 25.597656 57.078125 27.246094 56.464844 28.417969 55.289062 L 49.914062 33.789062 C 51.089844 32.621094 51.707031 30.972656 51.707031 29.3125 C 51.710938 27.648438 51.046875 26.054688 49.871094 24.878906 C 48.695312 23.703125 47.101562 23.039062 45.4375 23.042969 Z M 45.4375 23.042969 "/>
<path style=" stroke:none;fill-rule:nonzero;fill:rgb(97.647059%,97.647059%,97.647059%);fill-opacity:1;" d="M 24.835938 44.539062 L 23.9375 45.4375 L 25.28125 46.78125 L 24.386719 47.675781 L 23.042969 46.332031 L 22.144531 47.226562 L 23.488281 48.570312 L 22.144531 49.914062 L 23.042969 50.8125 L 24.386719 49.464844 L 25.28125 50.363281 L 23.9375 51.707031 L 24.835938 52.601562 L 26.179688 51.261719 L 27.519531 52.601562 L 28.414062 51.707031 L 27.074219 50.363281 L 27.96875 49.464844 L 29.3125 50.8125 L 30.210938 49.914062 L 28.863281 48.570312 L 30.210938 47.226562 L 29.3125 46.332031 L 27.96875 47.675781 L 27.074219 46.78125 L 28.414062 45.4375 L 27.519531 44.539062 L 26.175781 45.886719 Z M 26.179688 47.675781 L 27.074219 48.570312 L 26.179688 49.464844 L 25.28125 48.570312 Z M 26.179688 47.675781 "/>
<path style=" stroke:none;fill-rule:nonzero;fill:rgb(52.941179%,52.941179%,52.941179%);fill-opacity:1;" d="M 23.042969 12.40625 L 23.042969 14.195312 L 33.789062 21.585938 L 33.789062 19.792969 Z M 23.042969 12.40625 "/>
</g>
</svg>
