<svg xmlns="http://www.w3.org/2000/svg" xmlns:xlink="http://www.w3.org/1999/xlink" width="64px" height="64px" viewBox="0 0 64 64" version="1.1">
<defs>
<linearGradient id="linear0" gradientUnits="userSpaceOnUse" x1="0" y1="0" x2="0" y2="1" gradientTransform="matrix(55.351351,0,0,27.675676,4.324324,18.162162)">
<stop offset="0" style="stop-color:#ffae00;stop-opacity:1;"/>
<stop offset="0.5" style="stop-color:#dddddd;stop-opacity:1;"/>
<stop offset="1" style="stop-color:#bf1d1d;stop-opacity:1;"/>
</linearGradient>
</defs>
<g id="surface1">
<path style=" stroke:none;fill-rule:nonzero;fill:url(#linear0);" d="M 37.691406 45.8125 C 37.675781 45.796875 37.664062 45.648438 37.664062 45.472656 C 37.664062 44.984375 37.585938 44.699219 37.253906 43.910156 C 37.136719 43.652344 36.960938 43.199219 36.847656 42.90625 C 36.566406 42.164062 36.015625 40.921875 35.882812 40.730469 C 35.824219 40.636719 35.734375 40.460938 35.679688 40.335938 C 35.632812 40.210938 35.554688 40.042969 35.511719 39.96875 C 35.257812 39.46875 34.53125 37.605469 34.175781 36.539062 C 34.066406 36.226562 33.878906 35.71875 33.753906 35.417969 C 33.621094 35.117188 33.421875 34.589844 33.3125 34.246094 C 33.199219 33.90625 32.972656 33.292969 32.800781 32.886719 C 32.433594 31.976562 31.890625 30.347656 31.796875 29.847656 C 31.765625 29.644531 31.714844 29.394531 31.691406 29.308594 C 31.671875 29.210938 31.652344 28.996094 31.652344 28.835938 C 31.652344 28.539062 31.742188 27.863281 31.796875 27.773438 C 31.851562 27.6875 31.933594 27.742188 32.09375 27.96875 C 32.53125 28.59375 32.835938 28.710938 34.347656 28.800781 C 35.1875 28.851562 35.644531 28.921875 35.894531 29.039062 C 36.3125 29.246094 36.644531 29.738281 37.0625 30.78125 C 37.761719 32.503906 37.988281 33.105469 38.375 34.242188 C 38.539062 34.71875 38.652344 34.988281 38.6875 34.988281 C 38.847656 35.023438 39.671875 33.738281 40.058594 32.863281 C 40.539062 31.769531 41.375 29.570312 41.550781 28.921875 C 41.6875 28.417969 42.152344 27.71875 42.921875 26.863281 C 43.148438 26.609375 43.414062 26.339844 43.511719 26.265625 C 43.894531 25.96875 44.878906 25.835938 45.542969 25.988281 C 45.691406 26.023438 46.136719 26.0625 46.53125 26.078125 C 47.050781 26.09375 47.265625 26.117188 47.296875 26.160156 C 47.351562 26.21875 47.261719 26.566406 47.070312 26.972656 C 47 27.132812 46.902344 27.402344 46.847656 27.566406 C 46.800781 27.738281 46.742188 27.890625 46.726562 27.917969 C 46.710938 27.9375 46.636719 28.132812 46.5625 28.347656 C 46.488281 28.5625 46.417969 28.757812 46.402344 28.78125 C 46.292969 28.917969 45.542969 31.171875 45.300781 32.097656 C 45.214844 32.441406 45.09375 32.90625 45.039062 33.132812 C 44.976562 33.363281 44.855469 33.800781 44.765625 34.117188 C 44.679688 34.4375 44.59375 34.757812 44.578125 34.835938 C 44.558594 34.917969 44.496094 35.078125 44.4375 35.1875 C 44.117188 35.785156 43.523438 37.144531 42.851562 38.820312 C 42.132812 40.621094 41.996094 40.933594 41.6875 41.488281 C 41.386719 42.011719 40.4375 43.488281 40.3125 43.617188 C 40.273438 43.652344 40.191406 43.769531 40.125 43.867188 C 39.914062 44.199219 39.433594 44.789062 39.144531 45.0625 C 38.8125 45.382812 38.609375 45.523438 38.179688 45.703125 C 37.867188 45.835938 37.746094 45.863281 37.691406 45.8125 Z M 31.714844 43.976562 C 31.6875 43.949219 31.621094 43.835938 31.570312 43.707031 C 31.523438 43.582031 31.410156 43.363281 31.324219 43.21875 C 31.238281 43.085938 31.164062 42.949219 31.164062 42.9375 C 31.164062 42.914062 31.109375 42.8125 31.039062 42.699219 C 30.96875 42.585938 30.828125 42.300781 30.730469 42.0625 C 30.246094 40.910156 29.890625 40.117188 29.699219 39.726562 L 29.484375 39.292969 L 28.460938 39.28125 C 27.90625 39.269531 27.335938 39.28125 27.191406 39.292969 C 26.8125 39.328125 26.769531 39.386719 26.578125 40.089844 C 26.484375 40.417969 26.386719 40.78125 26.351562 40.894531 C 26.234375 41.3125 25.839844 42.367188 25.734375 42.554688 C 25.597656 42.789062 25.253906 43.136719 25.011719 43.28125 C 24.757812 43.429688 24.335938 43.539062 24.03125 43.539062 C 23.894531 43.539062 23.511719 43.488281 23.171875 43.417969 C 22.800781 43.339844 22.433594 43.296875 22.238281 43.296875 C 21.914062 43.296875 21.914062 43.296875 21.664062 43.109375 C 21.40625 42.910156 21.375 42.847656 21.484375 42.757812 C 21.632812 42.636719 21.851562 41.941406 21.988281 41.207031 C 22.03125 40.96875 22.105469 40.59375 22.148438 40.382812 C 22.242188 39.933594 22.253906 39.710938 22.175781 39.644531 C 22.144531 39.621094 21.988281 39.582031 21.824219 39.5625 C 21.664062 39.539062 21.511719 39.511719 21.488281 39.484375 C 21.460938 39.457031 21.488281 39.382812 21.585938 39.265625 C 21.6875 39.136719 21.71875 39.050781 21.71875 38.929688 C 21.71875 38.789062 21.699219 38.746094 21.527344 38.597656 L 21.335938 38.433594 L 21.5 38.164062 C 21.589844 38.015625 21.699219 37.839844 21.734375 37.78125 C 21.988281 37.363281 22.363281 36.855469 22.476562 36.773438 C 22.597656 36.6875 22.644531 36.679688 22.820312 36.707031 C 22.933594 36.726562 23.078125 36.738281 23.136719 36.742188 C 23.269531 36.746094 23.230469 36.839844 23.632812 35.660156 C 23.730469 35.351562 23.886719 34.902344 23.972656 34.652344 C 24.058594 34.40625 24.199219 33.988281 24.28125 33.726562 C 24.363281 33.46875 24.539062 32.914062 24.671875 32.496094 C 24.800781 32.082031 24.945312 31.597656 24.988281 31.429688 C 25.039062 31.261719 25.152344 30.933594 25.253906 30.710938 C 25.347656 30.488281 25.542969 30.023438 25.6875 29.679688 C 25.957031 29.050781 26.625 27.675781 26.902344 27.199219 C 27.070312 26.910156 27.445312 26.460938 27.523438 26.460938 C 27.550781 26.460938 27.59375 26.5 27.625 26.550781 C 27.699219 26.664062 27.839844 26.636719 28.363281 26.402344 C 28.851562 26.175781 29.417969 26.027344 29.417969 26.121094 C 29.417969 26.144531 29.328125 26.261719 29.21875 26.386719 C 28.929688 26.714844 28.660156 27.136719 28.585938 27.378906 C 28.550781 27.496094 28.511719 27.773438 28.5 28 L 28.476562 28.410156 L 28.6875 29.027344 C 28.917969 29.703125 29.199219 30.320312 29.792969 31.46875 C 30.257812 32.367188 31.070312 34.023438 31.210938 34.347656 C 31.394531 34.773438 31.890625 35.765625 32.089844 36.09375 C 32.199219 36.269531 32.328125 36.511719 32.386719 36.617188 C 32.503906 36.851562 32.921875 37.261719 33.171875 37.386719 C 33.472656 37.542969 33.5625 37.636719 33.625 37.851562 C 33.730469 38.207031 33.710938 38.292969 33.460938 38.582031 C 33.335938 38.71875 33.238281 38.878906 33.238281 38.921875 C 33.238281 38.96875 33.363281 39.242188 33.511719 39.539062 C 34.230469 40.976562 34.863281 42.265625 34.863281 42.28125 C 34.863281 42.292969 34.6875 42.3125 34.46875 42.324219 C 33.835938 42.363281 33.617188 42.5 32.636719 43.472656 C 32.1875 43.914062 32.117188 43.96875 31.957031 43.996094 C 31.839844 44.011719 31.753906 44.003906 31.714844 43.976562 Z M 28.429688 36.765625 C 28.460938 36.710938 28.296875 36.300781 28.070312 35.863281 C 27.875 35.488281 27.847656 35.449219 27.753906 35.449219 C 27.652344 35.449219 27.652344 35.460938 27.488281 36.03125 C 27.355469 36.527344 27.324219 36.726562 27.378906 36.78125 C 27.421875 36.828125 28.402344 36.8125 28.429688 36.765625 Z M 47.902344 43.679688 C 47.726562 43.636719 47.160156 43.355469 46.960938 43.203125 C 46.6875 42.984375 46.539062 42.917969 46.28125 42.890625 C 45.960938 42.863281 45.875 42.894531 45.652344 43.089844 C 45.441406 43.269531 45.4375 43.269531 45.292969 43.214844 C 45.148438 43.164062 45.132812 43.066406 45.1875 42.59375 C 45.273438 41.746094 45.515625 41.039062 45.882812 40.570312 C 45.988281 40.441406 46.105469 40.238281 46.148438 40.121094 C 46.375 39.53125 46.691406 37.886719 46.890625 36.355469 C 46.960938 35.824219 47.058594 35.125 47.113281 34.796875 C 47.367188 33.261719 47.449219 31.902344 47.3125 31.441406 C 47.253906 31.234375 47.070312 31.011719 46.78125 30.785156 C 46.566406 30.621094 46.570312 30.550781 46.796875 30.308594 C 47.078125 29.996094 47.328125 29.515625 47.839844 28.328125 C 47.867188 28.261719 47.949219 28.023438 48.023438 27.792969 C 48.210938 27.199219 48.40625 26.710938 48.460938 26.6875 C 48.488281 26.679688 48.675781 26.753906 48.878906 26.851562 C 49.527344 27.171875 49.707031 27.199219 51.082031 27.199219 C 52.292969 27.199219 53.566406 27.109375 54.089844 26.984375 C 54.433594 26.902344 55.921875 26.917969 56.355469 27.011719 C 56.789062 27.105469 57.8125 27.421875 58.09375 27.558594 C 58.335938 27.671875 58.984375 28.265625 59.257812 28.636719 C 59.484375 28.929688 59.699219 29.292969 59.671875 29.320312 C 59.664062 29.335938 59.527344 29.265625 59.375 29.171875 C 59.117188 29.011719 59.082031 29 58.878906 29.023438 C 58.609375 29.042969 58.5625 29.085938 58.160156 29.679688 C 57.730469 30.300781 57.1875 31.039062 57.015625 31.210938 C 56.894531 31.347656 56.867188 31.355469 56.710938 31.328125 C 56.613281 31.3125 56.339844 31.246094 56.109375 31.171875 C 55.539062 31.003906 55.210938 30.988281 54.511719 31.097656 C 53.554688 31.246094 53.023438 31.308594 52.554688 31.308594 C 51.945312 31.308594 51.96875 31.273438 51.789062 32.273438 C 51.707031 32.699219 51.625 33.226562 51.597656 33.4375 C 51.558594 33.773438 51.558594 33.824219 51.617188 33.882812 C 51.6875 33.957031 51.753906 33.960938 53.714844 34.054688 C 54.402344 34.085938 54.617188 34.113281 54.957031 34.203125 C 55.175781 34.261719 55.378906 34.328125 55.40625 34.347656 C 55.445312 34.378906 55.503906 34.675781 55.5625 35.125 C 55.613281 35.554688 56.066406 36.1875 56.375 36.265625 C 56.554688 36.3125 56.539062 36.433594 56.335938 36.503906 C 55.582031 36.785156 55.613281 36.78125 54.6875 36.8125 C 53.941406 36.835938 52.78125 36.945312 51.707031 37.09375 C 51.542969 37.117188 51.386719 37.136719 51.347656 37.136719 C 51.3125 37.136719 51.21875 37.1875 51.152344 37.246094 C 51.054688 37.339844 51.011719 37.4375 50.929688 37.746094 C 50.796875 38.265625 50.734375 38.90625 50.808594 38.976562 C 50.839844 39.015625 51.105469 39.042969 51.730469 39.066406 C 53.515625 39.144531 54.53125 39.191406 55.417969 39.253906 C 55.921875 39.285156 56.746094 39.3125 57.253906 39.3125 C 58.125 39.3125 58.175781 39.3125 58.246094 39.394531 C 58.320312 39.484375 58.320312 39.484375 58.179688 39.589844 C 57.902344 39.808594 57.460938 40.289062 57.351562 40.5 C 57.21875 40.761719 57.117188 41.109375 57.027344 41.570312 C 56.878906 42.324219 56.730469 42.714844 56.511719 42.910156 C 56.1875 43.1875 55.460938 43.417969 54.933594 43.417969 C 54.742188 43.417969 54.351562 43.4375 54.0625 43.460938 C 52.988281 43.539062 51.945312 43.585938 50.285156 43.625 C 49.339844 43.648438 48.445312 43.675781 48.292969 43.6875 C 48.136719 43.691406 47.960938 43.691406 47.90625 43.679688 Z M 11.566406 43.414062 C 10.660156 43.28125 10.4375 43.230469 9.691406 42.984375 C 8.839844 42.699219 8.011719 42.320312 7.9375 42.175781 C 7.902344 42.117188 7.851562 42.0625 7.820312 42.0625 C 7.796875 42.0625 7.734375 42.011719 7.6875 41.949219 C 7.636719 41.886719 7.496094 41.765625 7.367188 41.6875 C 7.242188 41.59375 6.910156 41.296875 6.636719 41.023438 C 5.824219 40.210938 5.523438 39.792969 5.179688 38.988281 C 4.910156 38.355469 4.835938 38.0625 4.746094 37.320312 C 4.707031 37.003906 4.648438 36.550781 4.617188 36.3125 C 4.527344 35.679688 4.488281 35.230469 4.417969 33.949219 C 4.308594 32.003906 4.296875 31.179688 4.375 30.6875 C 4.410156 30.445312 4.488281 29.933594 4.539062 29.539062 C 4.597656 29.144531 4.671875 28.636719 4.703125 28.429688 C 4.738281 28.210938 4.808594 27.796875 4.847656 27.503906 C 4.988281 26.5625 5.148438 25.882812 5.347656 25.429688 C 5.445312 25.191406 5.597656 24.8125 5.699219 24.589844 C 5.910156 24.082031 6.460938 22.734375 7.03125 21.914062 C 7.375 21.417969 7.796875 20.984375 8.253906 20.589844 C 8.878906 20.050781 9.8125 19.4375 10.296875 19.199219 C 10.769531 18.960938 11.664062 18.605469 12.378906 18.429688 C 13.144531 18.246094 14.082031 18.144531 14.714844 18.164062 C 16.054688 18.199219 16.199219 18.191406 16.917969 18.347656 C 17.421875 18.449219 17.933594 18.589844 18.378906 18.839844 C 19.109375 19.242188 19.769531 19.792969 20.320312 20.421875 C 20.699219 20.855469 21.554688 22.132812 21.792969 22.625 C 21.894531 22.824219 22.015625 23.117188 22.066406 23.273438 C 22.117188 23.433594 22.203125 23.664062 22.257812 23.796875 C 22.308594 23.921875 22.40625 24.3125 22.476562 24.660156 C 22.59375 25.238281 22.605469 25.328125 22.582031 25.839844 C 22.554688 26.511719 22.476562 26.90625 22.300781 27.335938 C 22.1875 27.621094 22.121094 27.710938 21.808594 28.027344 C 21.429688 28.40625 21.027344 28.699219 20.460938 29.011719 C 19.988281 29.28125 18.539062 29.988281 18.484375 29.988281 C 18.445312 29.988281 18.40625 30.011719 18.390625 30.027344 C 18.363281 30.082031 17.921875 30.214844 17.675781 30.253906 C 17.503906 30.28125 17.476562 30.265625 17.355469 30.160156 C 17.242188 30.050781 17.230469 30.011719 17.257812 29.894531 C 17.292969 29.707031 17.324219 29.6875 17.570312 29.699219 C 17.785156 29.707031 17.792969 29.699219 17.933594 29.53125 C 18.214844 29.175781 18.226562 29.148438 18.214844 28.742188 C 18.199219 28.179688 18.09375 27.386719 18.003906 27.160156 C 17.886719 26.863281 17.539062 26.160156 17.347656 25.839844 C 17.125 25.484375 16.976562 25.328125 16.402344 24.863281 C 16.132812 24.648438 15.894531 24.449219 15.875 24.421875 C 15.851562 24.402344 15.691406 24.296875 15.527344 24.207031 C 14.996094 23.910156 14.472656 23.886719 13.988281 24.136719 C 13.542969 24.363281 12.566406 25.449219 12.105469 26.230469 C 11.476562 27.292969 11.105469 28.433594 10.984375 29.699219 C 10.957031 29.929688 10.9375 30.699219 10.9375 31.40625 C 10.9375 33.058594 10.984375 33.296875 11.40625 34.054688 C 11.503906 34.234375 11.585938 34.390625 11.585938 34.414062 C 11.585938 34.4375 11.621094 34.496094 11.664062 34.550781 C 11.710938 34.605469 11.867188 34.828125 12.011719 35.054688 C 12.171875 35.296875 12.410156 35.585938 12.609375 35.785156 C 12.789062 35.960938 12.945312 36.109375 12.957031 36.109375 C 12.960938 36.109375 13.097656 36.214844 13.253906 36.347656 C 13.570312 36.632812 13.949219 36.824219 14.53125 37.003906 C 15.214844 37.226562 15.542969 37.261719 16.785156 37.269531 C 17.753906 37.273438 17.945312 37.265625 18.230469 37.199219 C 18.40625 37.160156 18.652344 37.109375 18.773438 37.085938 C 19.015625 37.050781 19.1875 37.015625 19.347656 36.988281 C 19.402344 36.972656 19.496094 36.960938 19.550781 36.960938 C 19.605469 36.960938 19.679688 36.941406 19.714844 36.929688 C 19.753906 36.90625 19.917969 36.878906 20.082031 36.867188 C 20.246094 36.855469 20.484375 36.835938 20.609375 36.824219 C 20.824219 36.792969 21.011719 36.839844 21.011719 36.921875 C 21.011719 36.941406 20.945312 37.0625 20.863281 37.199219 C 20.5625 37.703125 19.945312 38.90625 19.839844 39.1875 C 19.742188 39.460938 19.753906 39.957031 19.867188 40.148438 C 19.988281 40.351562 19.976562 40.417969 19.8125 40.613281 C 19.734375 40.703125 19.671875 40.800781 19.671875 40.820312 C 19.671875 40.847656 19.644531 40.878906 19.617188 40.894531 C 19.585938 40.914062 19.539062 40.976562 19.511719 41.027344 C 19.363281 41.320312 18.21875 42.613281 17.988281 42.757812 C 17.621094 42.984375 16.363281 43.265625 14.9375 43.4375 C 14.589844 43.476562 13.976562 43.511719 13.351562 43.515625 C 12.417969 43.527344 12.28125 43.515625 11.5625 43.414062 Z M 39.289062 27.058594 C 39.269531 27.039062 37.882812 26.886719 36.875 26.789062 C 35.824219 26.6875 35.164062 26.53125 35.027344 26.355469 C 34.945312 26.261719 35.039062 25.847656 35.46875 24.199219 C 35.539062 23.941406 35.632812 23.46875 35.675781 23.152344 C 35.71875 22.835938 35.796875 22.414062 35.847656 22.210938 C 35.90625 21.949219 35.921875 21.761719 35.910156 21.542969 C 35.894531 21.296875 35.902344 21.242188 35.949219 21.242188 C 35.988281 21.242188 36.226562 21.28125 36.484375 21.324219 C 36.742188 21.367188 37.246094 21.4375 37.605469 21.46875 C 37.960938 21.511719 38.375 21.554688 38.515625 21.570312 C 38.664062 21.59375 39.203125 21.632812 39.714844 21.660156 C 40.226562 21.679688 40.660156 21.707031 40.679688 21.71875 C 40.703125 21.734375 40.8125 21.945312 40.941406 22.199219 C 41.144531 22.613281 41.160156 22.660156 41.105469 22.714844 C 40.933594 22.886719 39.414062 22.835938 38.210938 22.621094 C 37.460938 22.488281 37.503906 22.476562 37.429688 22.863281 C 37.324219 23.414062 37.367188 23.476562 37.914062 23.542969 C 38.539062 23.613281 38.882812 23.679688 38.886719 23.726562 C 38.890625 23.746094 38.886719 23.875 38.882812 24 C 38.882812 24.207031 38.894531 24.246094 39.003906 24.378906 C 39.078125 24.460938 39.121094 24.550781 39.105469 24.570312 C 39.085938 24.605469 38.863281 24.609375 38.320312 24.585938 C 37.421875 24.542969 37.261719 24.550781 37.1875 24.625 C 37.113281 24.703125 37.050781 25.3125 37.109375 25.378906 C 37.210938 25.484375 38.292969 25.675781 39.011719 25.71875 C 39.402344 25.742188 39.921875 25.792969 40.1875 25.824219 C 40.441406 25.863281 40.730469 25.882812 40.820312 25.882812 C 41.027344 25.882812 41.070312 25.941406 40.960938 26.0625 C 40.914062 26.117188 40.875 26.175781 40.875 26.199219 C 40.875 26.21875 40.828125 26.3125 40.773438 26.390625 C 40.625 26.617188 40.613281 26.71875 40.707031 26.882812 C 40.757812 26.960938 40.78125 27.03125 40.765625 27.050781 C 40.738281 27.078125 39.3125 27.085938 39.285156 27.058594 Z M 33.378906 25.984375 C 33.136719 25.8125 33 25.808594 32.609375 25.929688 C 32.203125 26.054688 32.203125 26.042969 32.203125 25.238281 C 32.207031 24.851562 32.238281 24.378906 32.28125 24.066406 L 32.355469 23.542969 L 32.21875 23.386719 C 32.03125 23.164062 31.796875 23.015625 31.488281 22.929688 C 31.171875 22.828125 31.113281 22.824219 31.054688 22.894531 C 31.027344 22.929688 30.976562 23.179688 30.945312 23.460938 C 30.808594 24.585938 30.785156 24.625 30.203125 24.820312 C 29.984375 24.890625 29.753906 24.972656 29.679688 25.003906 C 29.1875 25.21875 28.890625 25.3125 28.890625 25.242188 C 28.890625 25.230469 28.984375 25.050781 29.09375 24.839844 C 29.328125 24.394531 29.351562 24.300781 29.441406 23.410156 C 29.511719 22.6875 29.488281 22.472656 29.351562 22.339844 C 29.214844 22.21875 28.863281 22.0625 28.710938 22.0625 C 28.617188 22.0625 28.566406 22.042969 28.566406 22.011719 C 28.566406 21.949219 29.1875 21.527344 29.53125 21.351562 C 29.773438 21.226562 29.742188 21.3125 29.960938 20.113281 C 30.144531 19.164062 30.136719 19.1875 30.1875 19.1875 C 30.203125 19.1875 30.367188 19.328125 30.542969 19.496094 C 30.726562 19.664062 31 19.875 31.160156 19.96875 C 31.320312 20.0625 31.46875 20.164062 31.488281 20.191406 C 31.515625 20.230469 31.511719 20.347656 31.46875 20.589844 C 31.4375 20.78125 31.394531 21.023438 31.382812 21.132812 L 31.363281 21.324219 L 31.671875 21.515625 C 31.839844 21.632812 32.109375 21.792969 32.253906 21.890625 C 32.394531 21.988281 32.542969 22.0625 32.570312 22.0625 C 32.691406 22.0625 32.828125 21.59375 32.828125 21.175781 C 32.835938 20.8125 32.855469 20.800781 33.382812 21.015625 C 33.742188 21.164062 33.875 21.203125 34.082031 21.203125 C 34.214844 21.203125 34.335938 21.214844 34.347656 21.234375 C 34.363281 21.253906 34.335938 21.550781 34.292969 21.902344 C 34.253906 22.253906 34.199219 22.894531 34.175781 23.335938 C 34.117188 24.355469 34.105469 24.476562 33.984375 24.835938 C 33.828125 25.292969 33.761719 25.558594 33.742188 25.8125 C 33.714844 26.1875 33.6875 26.199219 33.378906 25.984375 Z M 25.824219 25.566406 C 25.78125 25.554688 25.707031 25.515625 25.664062 25.488281 C 25.621094 25.457031 25.496094 25.433594 25.386719 25.433594 C 25.207031 25.433594 25.191406 25.421875 25.214844 25.335938 C 25.292969 25.003906 25.4375 24.175781 25.460938 23.957031 C 25.472656 23.808594 25.511719 23.226562 25.539062 22.660156 C 25.570312 22.09375 25.613281 21.449219 25.625 21.21875 C 25.660156 20.746094 25.609375 20.488281 25.46875 20.410156 C 25.402344 20.375 25.105469 20.363281 24.226562 20.375 C 23.003906 20.386719 22.957031 20.378906 23.050781 20.199219 C 23.078125 20.152344 23.085938 20.003906 23.078125 19.855469 C 23.058594 19.636719 23.027344 19.554688 22.902344 19.367188 C 22.820312 19.246094 22.679688 19.082031 22.59375 19.003906 C 22.511719 18.921875 22.433594 18.839844 22.433594 18.8125 C 22.433594 18.738281 23.789062 18.765625 24.445312 18.863281 C 25.058594 18.945312 25.214844 18.945312 26.113281 18.867188 C 26.503906 18.835938 26.917969 18.726562 26.96875 18.648438 C 26.984375 18.632812 27.023438 18.613281 27.0625 18.613281 C 27.121094 18.613281 27.144531 18.660156 27.164062 18.835938 C 27.179688 18.957031 27.210938 19.085938 27.238281 19.121094 C 27.3125 19.214844 27.773438 19.265625 28.636719 19.269531 C 29.460938 19.269531 29.476562 19.273438 29.378906 19.527344 C 29.351562 19.597656 29.230469 19.78125 29.113281 19.929688 C 28.800781 20.320312 28.652344 20.382812 27.921875 20.433594 C 27.59375 20.449219 27.3125 20.484375 27.300781 20.496094 C 27.269531 20.523438 27.164062 21.8125 27.117188 22.660156 C 27.105469 22.941406 27.121094 23.402344 27.164062 23.910156 C 27.21875 24.53125 27.226562 24.765625 27.1875 24.949219 C 27.136719 25.230469 27.023438 25.414062 26.847656 25.488281 C 26.710938 25.550781 25.960938 25.605469 25.824219 25.566406 Z M 25.824219 25.566406 "/>
</g>
</svg>
