<svg xmlns="http://www.w3.org/2000/svg" xmlns:xlink="http://www.w3.org/1999/xlink" width="64px" height="64px" viewBox="0 0 64 64" version="1.1">
<defs>
<linearGradient id="linear0" gradientUnits="userSpaceOnUse" x1="0" y1="0" x2="0" y2="1" gradientTransform="matrix(55.351351,0,0,52.828828,4.324324,5.585585)">
<stop offset="0" style="stop-color:#05f7ff;stop-opacity:1;"/>
<stop offset="0.5" style="stop-color:#dddddd;stop-opacity:1;"/>
<stop offset="1" style="stop-color:#e6ff05;stop-opacity:1;"/>
</linearGradient>
</defs>
<g id="surface1">
<path style=" stroke:none;fill-rule:evenodd;fill:url(#linear0);" d="M 32 5.585938 C 24.660156 5.585938 17.617188 8.363281 12.429688 13.320312 C 7.238281 18.273438 4.324219 24.996094 4.324219 32 C 4.324219 39.003906 7.238281 45.726562 12.429688 50.679688 C 17.617188 55.636719 24.660156 58.414062 32 58.414062 C 39.339844 58.414062 46.382812 55.636719 51.570312 50.679688 C 56.761719 45.726562 59.675781 39.003906 59.675781 32 C 59.675781 24.996094 56.761719 18.273438 51.570312 13.320312 C 46.382812 8.363281 39.339844 5.585938 32 5.585938 Z M 32 10.613281 C 37.003906 10.613281 41.808594 12.863281 45.339844 16.878906 C 48.882812 20.886719 50.867188 26.324219 50.867188 32 C 50.867188 37.671875 48.882812 43.113281 45.339844 47.121094 C 41.808594 51.136719 37.003906 53.386719 32 53.386719 C 26.996094 53.386719 22.191406 51.136719 18.660156 47.121094 C 15.117188 43.113281 13.132812 37.671875 13.132812 32 C 13.132812 26.324219 15.117188 20.886719 18.660156 16.878906 C 22.191406 12.863281 26.996094 10.613281 32 10.613281 Z M 21.9375 24.449219 L 21.9375 39.550781 L 23.820312 39.550781 C 23.820312 35.773438 23.765625 35.773438 32.914062 35.773438 C 40.234375 35.773438 40.179688 35.773438 40.179688 39.550781 L 42.0625 39.550781 L 42.0625 24.449219 L 40.179688 24.449219 C 40.179688 28.226562 40.234375 28.226562 32.914062 28.226562 C 23.765625 28.226562 23.820312 28.226562 23.820312 24.449219 Z M 21.9375 24.449219 "/>
</g>
</svg>
