<svg xmlns="http://www.w3.org/2000/svg" xmlns:xlink="http://www.w3.org/1999/xlink" width="64px" height="64px" viewBox="0 0 64 64" version="1.1">
<defs>
<linearGradient id="linear0" gradientUnits="userSpaceOnUse" x1="0" y1="0" x2="0" y2="1" gradientTransform="matrix(45.819821,0,0,55.351351,9.09009,4.324324)">
<stop offset="0" style="stop-color:#00a2ff;stop-opacity:1;"/>
<stop offset="0.5" style="stop-color:#dddddd;stop-opacity:1;"/>
<stop offset="1" style="stop-color:#00ffae;stop-opacity:1;"/>
</linearGradient>
</defs>
<g id="surface1">
<path style=" stroke:none;fill-rule:nonzero;fill:url(#linear0);" d="M 37.085938 4.324219 L 37.0625 4.878906 C 37.039062 5.511719 36.578125 16.835938 36.203125 25.800781 C 36.066406 29.070312 35.972656 31.765625 35.988281 31.785156 C 36.003906 31.796875 36.027344 31.800781 36.039062 31.792969 C 36.054688 31.78125 37.585938 27.355469 39.449219 21.960938 C 44.292969 7.945312 45.3125 4.988281 45.445312 4.636719 L 45.5625 4.324219 Z M 27.960938 15.882812 C 27.960938 15.882812 22.050781 20.8125 22 20.941406 C 21.984375 20.988281 22.96875 22 24.890625 23.902344 C 26.496094 25.488281 29.285156 28.242188 31.082031 30.023438 C 32.886719 31.800781 34.378906 33.261719 34.40625 33.261719 C 34.429688 33.261719 34.449219 33.238281 34.449219 33.214844 L 34.445312 33.214844 C 34.445312 33.1875 33.230469 29.90625 31.742188 25.910156 C 30.257812 21.921875 28.8125 18.039062 28.53125 17.285156 C 28.257812 16.527344 27.960938 15.882812 27.960938 15.882812 Z M 50.882812 19.511719 C 50.820312 19.488281 37.515625 33.605469 37.488281 33.71875 C 37.476562 33.785156 37.511719 33.785156 37.632812 33.742188 C 37.710938 33.710938 41.632812 32.1875 46.335938 30.347656 C 51.039062 28.503906 54.902344 26.976562 54.910156 26.945312 C 54.933594 26.878906 50.960938 19.539062 50.882812 19.511719 Z M 24.078125 28.621094 C 24.015625 28.597656 23.988281 28.632812 23.960938 28.714844 C 23.917969 28.914062 23.011719 36.144531 23.011719 36.3125 C 23.011719 36.417969 23.042969 36.457031 23.121094 36.457031 C 23.179688 36.457031 25.234375 36.039062 27.6875 35.53125 C 30.136719 35.027344 32.164062 34.585938 32.191406 34.558594 C 32.21875 34.527344 32.230469 34.496094 32.21875 34.488281 C 32.078125 34.363281 24.136719 28.644531 24.078125 28.621094 Z M 52.292969 34.617188 C 52.234375 34.5625 38.855469 35.765625 38.796875 35.828125 C 38.78125 35.855469 38.78125 35.882812 38.8125 35.902344 C 38.839844 35.914062 41.539062 37.390625 44.800781 39.191406 C 48.0625 40.988281 50.78125 42.460938 50.839844 42.457031 C 50.9375 42.445312 51.003906 42.117188 51.644531 38.550781 L 51.636719 38.550781 C 52.023438 36.40625 52.3125 34.636719 52.292969 34.617188 Z M 33.242188 36.558594 C 33.175781 36.585938 28.8125 38.664062 23.554688 41.171875 C 18.296875 43.6875 12.890625 46.261719 11.539062 46.902344 C 10.191406 47.542969 9.089844 48.097656 9.089844 48.136719 C 9.089844 48.175781 10.042969 49.582031 11.207031 51.257812 C 13.96875 55.234375 13.914062 55.148438 13.960938 55.148438 C 13.984375 55.148438 18.347656 50.984375 23.664062 45.886719 L 23.664062 45.882812 C 28.984375 40.789062 33.339844 36.59375 33.351562 36.5625 C 33.363281 36.527344 33.328125 36.527344 33.242188 36.558594 Z M 36.878906 37.550781 C 36.855469 37.539062 36.828125 37.554688 36.828125 37.585938 C 36.828125 37.613281 37.339844 38.792969 37.960938 40.203125 C 38.585938 41.613281 40.746094 46.511719 42.765625 51.085938 C 44.785156 55.664062 46.46875 59.597656 46.5 59.675781 C 46.710938 59.664062 46.820312 59.664062 46.820312 59.664062 C 46.835938 59.636719 48.328125 58.648438 50.09375 57.539062 C 51.863281 56.421875 53.300781 55.496094 53.300781 55.476562 C 53.300781 55.429688 36.945312 37.570312 36.878906 37.550781 Z M 34.949219 37.929688 C 34.933594 37.914062 34.914062 37.917969 34.890625 37.945312 C 34.78125 38.066406 28.378906 49.511719 28.378906 49.585938 C 28.378906 49.644531 28.5625 49.6875 29.125 49.761719 C 29.53125 49.8125 31.292969 50.042969 33.039062 50.273438 C 34.78125 50.5 36.242188 50.675781 36.28125 50.664062 C 36.328125 50.648438 36.335938 50.570312 36.3125 50.414062 C 36.289062 50.210938 35.335938 41.125 35.117188 38.960938 C 35.042969 38.257812 35.003906 37.984375 34.949219 37.929688 Z M 34.949219 37.929688 "/>
</g>
</svg>
