<svg xmlns="http://www.w3.org/2000/svg" xmlns:xlink="http://www.w3.org/1999/xlink" width="64px" height="64px" viewBox="0 0 64 64" version="1.1">
<g id="surface1">
<path style=" stroke:none;fill-rule:nonzero;fill:rgb(36.470589%,63.921571%,93.333334%);fill-opacity:1;" d="M 55.351562 31.980469 C 55.351562 44.875 44.894531 55.332031 32 55.332031 C 19.105469 55.332031 8.648438 44.875 8.648438 31.980469 C 8.648438 19.082031 19.105469 8.628906 32 8.628906 C 44.894531 8.628906 55.351562 19.082031 55.351562 31.980469 Z M 55.351562 31.980469 "/>
<path style=" stroke:none;fill-rule:nonzero;fill:rgb(24.313726%,45.490196%,71.764708%);fill-opacity:1;" d="M 12.972656 31.988281 C 12.980469 36.410156 14.523438 40.6875 17.34375 44.097656 L 19.652344 44.097656 C 22.90625 47.414062 27.355469 49.289062 32 49.289062 C 36.640625 49.28125 41.085938 47.410156 44.332031 44.097656 L 46.664062 44.097656 C 49.484375 40.6875 51.027344 36.410156 51.03125 31.988281 C 51.03125 21.480469 42.511719 12.960938 32 12.960938 C 21.492188 12.960938 12.972656 21.480469 12.972656 31.988281 Z M 12.972656 31.988281 "/>
<path style=" stroke:none;fill-rule:nonzero;fill:rgb(100%,100%,100%);fill-opacity:1;" d="M 31.785156 29.023438 L 37.257812 29.023438 L 30.824219 38.273438 L 33.304688 38.539062 L 27.101562 43.835938 L 30.011719 42.300781 C 30.488281 42.363281 31.511719 42.398438 31.996094 42.398438 C 37.734375 42.398438 42.382812 37.746094 42.382812 32.011719 C 42.355469 28.351562 40.484375 24.585938 36.441406 22.625 L 36.683594 20.140625 Z M 21.621094 32.011719 C 21.613281 35.773438 23.648438 39.242188 26.933594 41.074219 L 27.40625 35.5625 L 28.902344 37.347656 L 31.578125 31.988281 L 26.066406 31.988281 L 30.757812 21.710938 C 25.542969 22.335938 21.621094 26.761719 21.621094 32.011719 "/>
</g>
</svg>
