<svg xmlns="http://www.w3.org/2000/svg" xmlns:xlink="http://www.w3.org/1999/xlink" width="64px" height="64px" viewBox="0 0 64 64" version="1.1">
<defs>
<linearGradient id="linear0" gradientUnits="userSpaceOnUse" x1="0" y1="0" x2="0" y2="1" gradientTransform="matrix(55.351351,0,0,50.918919,4.324324,6.540541)">
<stop offset="0" style="stop-color:#ffae00;stop-opacity:1;"/>
<stop offset="0.5" style="stop-color:#dddddd;stop-opacity:1;"/>
<stop offset="1" style="stop-color:#bf1d1d;stop-opacity:1;"/>
</linearGradient>
</defs>
<g id="surface1">
<path style=" stroke:none;fill-rule:nonzero;fill:url(#linear0);" d="M 13.835938 6.539062 C 10.414062 6.539062 6.433594 8.902344 6.433594 15.605469 C 6.433594 17.625 7.515625 20.648438 9.339844 22.691406 C 9.445312 22.539062 9.566406 22.402344 9.652344 22.28125 C 10.988281 16.585938 13.585938 12.269531 17.125 9.617188 C 16.875 9.296875 16.621094 9.003906 16.46875 8.789062 C 15.511719 7.488281 14.828125 6.539062 13.835938 6.539062 Z M 50.265625 6.539062 C 49.289062 6.539062 48.617188 7.449219 47.671875 8.714844 C 47.496094 8.957031 47.226562 9.296875 46.945312 9.652344 C 50.457031 12.3125 53.015625 16.617188 54.347656 22.28125 C 54.449219 22.417969 54.566406 22.582031 54.691406 22.761719 C 56.558594 20.714844 57.671875 17.648438 57.671875 15.605469 C 57.671875 8.902344 53.6875 6.539062 50.265625 6.539062 Z M 26.671875 8.753906 C 19.164062 8.753906 13.710938 14.011719 11.699219 23.210938 C 11.445312 23.539062 10.96875 24.234375 10.339844 25.21875 C 10.652344 25.6875 11.0625 26.242188 11.488281 26.742188 C 11.488281 26.742188 13.429688 28.828125 16.8125 29.820312 C 17.402344 29.996094 17.746094 30.617188 17.570312 31.203125 C 17.433594 31.679688 16.996094 32 16.5 32 C 16.394531 32.003906 16.292969 31.988281 16.1875 31.960938 C 12.171875 30.785156 9.921875 28.296875 9.824219 28.191406 C 9.613281 27.949219 9.339844 27.652344 9.097656 27.328125 C 8.671875 28.136719 8.265625 28.957031 7.886719 29.785156 C 8.382812 30.511719 8.921875 31.160156 9.203125 31.445312 C 9.230469 31.46875 9.253906 31.488281 9.269531 31.511719 C 9.296875 31.542969 11.847656 34.609375 17.917969 36.460938 C 18.503906 36.636719 18.863281 37.261719 18.679688 37.847656 C 18.539062 38.328125 18.085938 38.644531 17.609375 38.644531 C 17.5 38.644531 17.40625 38.644531 17.296875 38.609375 C 10.867188 36.648438 7.988281 33.421875 7.613281 32.96875 C 7.5 32.851562 7.210938 32.539062 6.882812 32.136719 C 6.4375 33.285156 6.042969 34.449219 5.707031 35.632812 C 6.089844 36.269531 6.527344 36.875 7.023438 37.433594 C 7.066406 37.476562 9.503906 40.066406 14.664062 42.03125 C 15.242188 42.242188 15.539062 42.878906 15.324219 43.449219 C 15.164062 43.882812 14.753906 44.171875 14.289062 44.175781 C 14.160156 44.175781 14.027344 44.152344 13.90625 44.109375 C 8.269531 41.960938 5.578125 39.144531 5.394531 38.957031 C 5.375 38.933594 5.234375 38.761719 5.015625 38.503906 C 4.5625 40.734375 4.335938 43.011719 4.324219 45.285156 C 4.324219 45.621094 4.476562 45.941406 4.738281 46.148438 C 7.136719 48.039062 14.132812 49.875 19.890625 50.679688 C 19.835938 50.160156 19.824219 49.828125 19.824219 49.785156 L 19.824219 49.710938 C 19.824219 40.390625 23.789062 32.902344 25.738281 29.785156 C 25.027344 29.96875 24.285156 29.933594 23.59375 29.679688 C 18.945312 28.136719 19.824219 23.144531 19.824219 23.144531 L 28.230469 28.125 C 28.273438 28.160156 28.328125 28.1875 28.367188 28.230469 C 28.785156 28.644531 28.789062 29.3125 28.402344 29.753906 C 28.1875 30.039062 22.042969 38.625 22.039062 49.675781 C 22.050781 49.882812 22.113281 50.960938 22.3125 52.203125 C 22.984375 52.410156 23.703125 52.585938 24.355469 52.71875 C 24.375 52.726562 24.40625 52.753906 24.421875 52.757812 C 24.441406 52.761719 24.441406 52.753906 24.460938 52.757812 C 25.210938 52.972656 27.367188 52.863281 28.988281 51.648438 C 30.242188 50.707031 30.890625 49.320312 30.890625 47.5 C 30.890625 46.886719 31.386719 46.390625 32 46.390625 C 32.613281 46.390625 33.109375 46.886719 33.109375 47.5 C 33.109375 49.320312 33.757812 50.710938 35.011719 51.648438 C 36.566406 52.820312 38.613281 52.9375 39.4375 52.757812 C 39.472656 52.742188 39.503906 52.734375 39.539062 52.71875 C 40.230469 52.578125 40.988281 52.390625 41.6875 52.164062 C 41.878906 50.957031 41.949219 49.902344 41.960938 49.675781 C 41.957031 38.488281 35.664062 29.828125 35.597656 29.753906 C 35.164062 29.320312 35.199219 28.625 35.632812 28.191406 C 35.761719 28.078125 35.914062 27.996094 36.082031 27.949219 L 44.175781 23.144531 C 44.175781 23.144531 45.054688 28.136719 40.40625 29.679688 C 39.714844 29.933594 38.972656 29.96875 38.261719 29.785156 C 40.210938 32.902344 44.175781 40.390625 44.175781 49.710938 L 44.175781 49.785156 C 44.175781 49.828125 44.164062 50.160156 44.109375 50.679688 C 49.867188 49.875 56.863281 48.039062 59.261719 46.148438 C 59.523438 45.9375 59.675781 45.621094 59.675781 45.285156 C 59.675781 42.984375 59.445312 40.6875 58.984375 38.433594 C 58.753906 38.726562 58.566406 38.914062 58.539062 38.957031 C 58.417969 39.078125 55.734375 41.9375 50.023438 44.109375 C 49.902344 44.160156 49.773438 44.179688 49.644531 44.175781 C 49.199219 44.175781 48.773438 43.890625 48.605469 43.449219 C 48.5 43.179688 48.5 42.878906 48.617188 42.609375 C 48.738281 42.339844 48.957031 42.136719 49.230469 42.03125 C 54.414062 40.058594 56.882812 37.460938 56.910156 37.433594 C 56.921875 37.417969 57.597656 36.6875 58.257812 35.5625 C 57.910156 34.335938 57.539062 33.148438 57.117188 32.066406 C 56.761719 32.5 56.441406 32.839844 56.320312 32.96875 C 55.941406 33.417969 53.0625 36.644531 46.636719 38.609375 C 46.527344 38.644531 46.429688 38.644531 46.324219 38.644531 C 45.847656 38.644531 45.394531 38.320312 45.246094 37.847656 C 45.070312 37.265625 45.394531 36.644531 45.976562 36.460938 C 52.109375 34.589844 54.597656 31.542969 54.625 31.511719 C 54.644531 31.488281 54.703125 31.46875 54.730469 31.445312 C 55.125 31.039062 55.632812 30.390625 56.078125 29.714844 C 55.703125 28.882812 55.296875 28.066406 54.863281 27.261719 C 54.613281 27.59375 54.363281 27.9375 54.136719 28.191406 C 54.023438 28.324219 51.757812 30.785156 47.738281 31.960938 C 47.636719 31.988281 47.53125 32.003906 47.429688 32 C 46.949219 32 46.5 31.6875 46.355469 31.203125 C 46.1875 30.613281 46.527344 29.996094 47.117188 29.820312 C 50.511719 28.820312 52.460938 26.730469 52.484375 26.707031 C 52.90625 26.207031 53.3125 25.660156 53.621094 25.1875 C 53.015625 24.230469 52.550781 23.539062 52.308594 23.210938 C 50.289062 14.015625 44.835938 8.753906 37.328125 8.753906 C 34.730469 8.753906 33.289062 9.160156 32 9.582031 C 30.710938 9.160156 29.269531 8.753906 26.671875 8.753906 Z M 25.355469 13.179688 C 27.1875 13.179688 29.554688 13.441406 32 15.21875 C 34.445312 13.441406 36.8125 13.179688 38.644531 13.179688 C 39.253906 13.179688 39.746094 13.675781 39.746094 14.289062 C 39.746094 14.902344 39.253906 15.394531 38.644531 15.394531 C 36.1875 15.394531 34.421875 16.023438 32.726562 17.46875 C 32.671875 17.515625 32.617188 17.539062 32.554688 17.570312 C 32.511719 17.59375 32.457031 17.625 32.414062 17.644531 C 32.285156 17.691406 32.136719 17.71875 32 17.710938 C 31.863281 17.71875 31.714844 17.691406 31.585938 17.644531 C 31.539062 17.621094 31.488281 17.597656 31.445312 17.570312 C 31.382812 17.539062 31.328125 17.515625 31.273438 17.46875 C 29.578125 16.023438 27.808594 15.394531 25.355469 15.394531 C 24.746094 15.394531 24.253906 14.894531 24.253906 14.289062 C 24.253906 13.679688 24.746094 13.179688 25.355469 13.179688 Z M 20.929688 16.5 C 22.835938 16.5 28.800781 16.796875 32 20.308594 C 35.199219 16.796875 41.164062 16.5 43.070312 16.5 C 43.6875 16.5 44.175781 16.996094 44.175781 17.609375 C 44.175781 18.21875 43.6875 18.714844 43.070312 18.714844 C 41.253906 18.714844 35.160156 18.988281 32.96875 22.691406 C 32.957031 22.714844 32.914062 22.742188 32.902344 22.761719 C 32.882812 22.792969 32.851562 22.808594 32.828125 22.835938 C 32.753906 22.929688 32.6875 23.015625 32.589844 23.078125 C 32.578125 23.078125 32.5625 23.105469 32.554688 23.109375 C 32.488281 23.144531 32.445312 23.160156 32.378906 23.179688 L 32.273438 23.210938 C 32.207031 23.230469 32.136719 23.242188 32.066406 23.246094 L 32 23.246094 C 31.976562 23.246094 31.957031 23.253906 31.933594 23.246094 C 31.863281 23.238281 31.792969 23.230469 31.726562 23.210938 C 31.691406 23.207031 31.648438 23.1875 31.621094 23.179688 C 31.554688 23.160156 31.5 23.144531 31.445312 23.109375 C 31.4375 23.105469 31.421875 23.078125 31.410156 23.078125 C 31.308594 23.011719 31.214844 22.929688 31.136719 22.835938 C 31.113281 22.808594 31.117188 22.789062 31.097656 22.761719 C 31.085938 22.742188 31.042969 22.714844 31.03125 22.691406 C 28.847656 18.988281 22.746094 18.714844 20.929688 18.714844 C 20.320312 18.714844 19.824219 18.214844 19.824219 17.609375 C 19.824219 17 20.320312 16.5 20.929688 16.5 Z M 32 36.429688 C 35.320312 36.449219 38.644531 37.078125 38.644531 38.296875 L 38.644531 39.40625 C 38.644531 39.957031 37.882812 40.730469 36.773438 41.617188 C 36.773438 41.503906 36.746094 41.515625 36.636719 41.410156 C 36.082031 40.855469 35.207031 40.761719 34.765625 41.203125 C 34.328125 41.644531 34.429688 42.414062 34.867188 42.96875 C 33.738281 43.625 32.21875 44.191406 32 44.351562 C 31.785156 44.1875 30.269531 43.621094 29.234375 42.863281 C 29.5625 42.3125 29.671875 41.644531 29.234375 41.203125 C 28.792969 40.761719 27.917969 40.855469 27.363281 41.410156 L 27.363281 41.511719 C 26.257812 40.625 25.355469 39.957031 25.355469 39.957031 L 25.355469 38.191406 C 25.355469 36.976562 28.679688 36.40625 32 36.429688 Z M 32 51.617188 C 31.5625 52.324219 31 52.941406 30.335938 53.449219 C 28.753906 54.636719 26.800781 55.039062 25.324219 55.039062 C 24.800781 55.039062 24.347656 54.996094 23.972656 54.902344 C 23.957031 54.894531 23.921875 54.90625 23.90625 54.902344 C 23.800781 54.882812 23.664062 54.847656 23.457031 54.796875 C 25.265625 56.355469 27.835938 57.460938 32 57.460938 C 36.199219 57.460938 38.761719 56.335938 40.582031 54.761719 C 40.445312 54.792969 40.335938 54.8125 40.234375 54.835938 C 40.210938 54.839844 40.1875 54.863281 40.164062 54.863281 C 39.78125 54.984375 39.261719 55.039062 38.675781 55.039062 C 37.199219 55.039062 35.246094 54.636719 33.664062 53.449219 C 33 52.941406 32.441406 52.320312 32 51.617188 Z M 32 51.617188 "/>
</g>
</svg>
