<svg xmlns="http://www.w3.org/2000/svg" xmlns:xlink="http://www.w3.org/1999/xlink" width="48px" height="48px" viewBox="0 0 48 48" version="1.1">
<g id="surface1">
<path style=" stroke:none;fill-rule:nonzero;fill:rgb(23.921569%,85.09804%,92.156863%);fill-opacity:1;" d="M 20 37 C 22.761719 37 25 34.761719 25 32 L 25 6.070312 L 30.207031 6.070312 C 30.175781 5.929688 30.136719 5.792969 30.109375 5.652344 C 30.066406 5.402344 30.035156 5.15625 30.011719 4.90625 L 30.011719 4.070312 L 23 4.070312 L 23 30 C 23 32.761719 20.761719 35 18 35 C 17.136719 35 16.335938 34.761719 15.625 34.375 C 16.472656 35.929688 18.101562 37 20 37 Z M 20 37 "/>
<path style=" stroke:none;fill-rule:nonzero;fill:rgb(96.078432%,32.549021%,46.27451%);fill-opacity:1;" d="M 33.71875 11.40625 C 32.921875 10.3125 32.355469 9.039062 32.109375 7.652344 C 32.066406 7.402344 32.035156 7.15625 32.011719 6.90625 L 32.011719 6.070312 L 30.207031 6.070312 C 30.699219 8.253906 31.96875 10.132812 33.71875 11.40625 Z M 33.71875 11.40625 "/>
<path style=" stroke:none;fill-rule:nonzero;fill:rgb(96.078432%,32.549021%,46.27451%);fill-opacity:1;" d="M 18 25 C 15.238281 25 13 27.238281 13 30 C 13 31.898438 14.070312 33.527344 15.625 34.375 C 15.238281 33.664062 15 32.863281 15 32 C 15 29.238281 17.238281 27 20 27 C 20.34375 27 20.675781 27.035156 21 27.101562 L 21 20.050781 C 20.667969 20.023438 20.339844 20 20 20 C 19.660156 20 19.332031 20.023438 19 20.050781 L 19 25.101562 C 18.675781 25.035156 18.34375 25 18 25 Z M 18 25 "/>
<path style=" stroke:none;fill-rule:nonzero;fill:rgb(23.921569%,85.09804%,92.156863%);fill-opacity:1;" d="M 36.257812 13.78125 C 37.125 14.324219 38.074219 14.691406 39.0625 14.914062 L 39.0625 13.15625 C 37.363281 13.15625 35.699219 12.683594 34.257812 11.78125 C 34.070312 11.664062 33.894531 11.535156 33.71875 11.40625 C 34.40625 12.351562 35.261719 13.164062 36.257812 13.78125 Z M 36.257812 13.78125 "/>
<path style=" stroke:none;fill-rule:nonzero;fill:rgb(23.921569%,85.09804%,92.156863%);fill-opacity:1;" d="M 19 20.050781 L 19 18.050781 C 18.667969 18.023438 18.339844 18 18 18 C 11.371094 18 6 23.371094 6 30 C 6 33.824219 7.796875 37.222656 10.582031 39.417969 C 8.96875 37.378906 8 34.804688 8 32 C 8 25.710938 12.84375 20.558594 19 20.050781 Z M 19 20.050781 "/>
<path style=" stroke:none;fill-rule:nonzero;fill:rgb(96.078432%,32.549021%,46.27451%);fill-opacity:1;" d="M 39.0625 14.914062 L 39.0625 19.648438 C 35.6875 19.648438 32.5625 18.574219 30.011719 16.753906 L 30.011719 30 L 30 29.980469 C 30 29.988281 30 29.992188 30 30 C 30 36.628906 24.628906 42 18 42 C 15.195312 42 12.621094 41.03125 10.582031 39.417969 C 12.777344 42.203125 16.175781 44 20 44 C 26.628906 44 32 38.628906 32 32 C 32 31.992188 32 31.988281 32 31.980469 L 32.011719 32 L 32.011719 18.753906 C 34.5625 20.574219 37.6875 21.644531 41.0625 21.644531 L 41.0625 15.15625 C 40.386719 15.15625 39.71875 15.0625 39.0625 14.914062 Z M 39.0625 14.914062 "/>
<path style=" stroke:none;fill-rule:nonzero;fill:rgb(12.941177%,0%,76.862746%);fill-opacity:1;" d="M 30 30 C 30 29.992188 30 29.988281 30 29.980469 L 30.011719 30 L 30.011719 16.753906 C 32.5625 18.574219 35.6875 19.644531 39.0625 19.644531 L 39.0625 14.914062 C 38.074219 14.691406 37.125 14.324219 36.257812 13.78125 C 35.261719 13.160156 34.40625 12.351562 33.71875 11.40625 C 31.96875 10.132812 30.699219 8.25 30.210938 6.070312 L 25 6.070312 L 25 32 C 25 34.761719 22.761719 37 20 37 C 18.101562 37 16.472656 35.929688 15.625 34.375 C 14.070312 33.527344 13 31.898438 13 30 C 13 27.238281 15.238281 25 18 25 C 18.34375 25 18.675781 25.035156 19 25.101562 L 19 20.050781 C 12.84375 20.558594 8 25.710938 8 32 C 8 34.804688 8.96875 37.378906 10.582031 39.417969 C 12.621094 41.03125 15.195312 42 18 42 C 24.628906 42 30 36.628906 30 30 Z M 30 30 "/>
</g>
</svg>
