<svg xmlns="http://www.w3.org/2000/svg" xmlns:xlink="http://www.w3.org/1999/xlink" width="64px" height="64px" viewBox="0 0 64 64" version="1.1">
<defs>
<linearGradient id="linear0" gradientUnits="userSpaceOnUse" x1="0" y1="0" x2="0" y2="1" gradientTransform="matrix(53.666666,0,0,53.77027,5.166667,4.324324)">
<stop offset="0" style="stop-color:#00b7ff;stop-opacity:1;"/>
<stop offset="0.5" style="stop-color:#dddddd;stop-opacity:1;"/>
<stop offset="1" style="stop-color:#ee42d9;stop-opacity:1;"/>
</linearGradient>
</defs>
<g id="surface1">
<path style=" stroke:none;fill-rule:evenodd;fill:url(#linear0);" d="M 7.378906 4.324219 L 18.765625 4.324219 C 19.988281 4.324219 20.976562 5.3125 20.976562 6.539062 L 20.976562 17.921875 C 20.976562 19.148438 19.988281 20.136719 18.765625 20.136719 L 7.378906 20.136719 C 6.160156 20.136719 5.164062 19.148438 5.164062 17.921875 L 5.164062 6.539062 C 5.164062 5.3125 6.160156 4.324219 7.378906 4.324219 Z M 26.355469 4.324219 L 37.742188 4.324219 C 38.960938 4.324219 39.957031 5.3125 39.957031 6.539062 L 39.957031 17.921875 C 39.957031 19.148438 38.960938 20.136719 37.742188 20.136719 L 26.355469 20.136719 C 25.136719 20.136719 24.144531 19.148438 24.144531 17.921875 L 24.144531 6.539062 C 24.144531 5.3125 25.136719 4.324219 26.355469 4.324219 Z M 45.234375 4.324219 L 56.621094 4.324219 C 57.839844 4.324219 58.835938 5.3125 58.835938 6.539062 L 58.835938 17.921875 C 58.835938 19.148438 57.839844 20.136719 56.621094 20.136719 L 45.234375 20.136719 C 44.011719 20.136719 43.023438 19.148438 43.023438 17.921875 L 43.023438 6.539062 C 43.023438 5.3125 44.011719 4.324219 45.234375 4.324219 Z M 26.257812 23.300781 L 37.644531 23.300781 C 38.863281 23.300781 39.855469 24.292969 39.855469 25.515625 L 39.855469 36.902344 C 39.855469 38.121094 38.863281 39.117188 37.644531 39.117188 L 26.257812 39.117188 C 25.039062 39.117188 24.042969 38.121094 24.042969 36.902344 L 24.042969 25.515625 C 24.042969 24.292969 25.039062 23.300781 26.257812 23.300781 Z M 26.257812 42.28125 L 37.644531 42.28125 C 38.863281 42.28125 39.855469 43.269531 39.855469 44.488281 L 39.855469 55.882812 C 39.855469 57.105469 38.863281 58.09375 37.644531 58.09375 L 26.257812 58.09375 C 25.039062 58.09375 24.042969 57.105469 24.042969 55.882812 L 24.042969 44.488281 C 24.042969 43.269531 25.039062 42.28125 26.257812 42.28125 Z M 26.257812 42.28125 "/>
</g>
</svg>
