<svg xmlns="http://www.w3.org/2000/svg" xmlns:xlink="http://www.w3.org/1999/xlink" width="64px" height="64px" viewBox="0 0 64 64" version="1.1">
<defs>
<linearGradient id="linear0" gradientUnits="userSpaceOnUse" x1="0" y1="0" x2="0" y2="1" gradientTransform="matrix(55.351351,0,0,48.702703,4.324324,7.648648)">
<stop offset="0" style="stop-color:#ffae00;stop-opacity:1;"/>
<stop offset="0.5" style="stop-color:#dddddd;stop-opacity:1;"/>
<stop offset="1" style="stop-color:#bf1d1d;stop-opacity:1;"/>
</linearGradient>
</defs>
<g id="surface1">
<path style=" stroke:none;fill-rule:evenodd;fill:url(#linear0);" d="M 37.472656 13.015625 L 57.664062 13.015625 C 58.773438 13.015625 59.675781 13.917969 59.675781 15.03125 L 59.675781 30.171875 C 59.675781 31.285156 58.773438 32.1875 57.664062 32.1875 L 37.472656 32.1875 C 36.363281 32.1875 35.460938 31.285156 35.460938 30.171875 L 35.460938 15.03125 C 35.460938 13.917969 36.363281 13.015625 37.472656 13.015625 Z M 21.90625 37.179688 L 42.09375 37.179688 C 43.207031 37.179688 44.109375 38.082031 44.109375 39.191406 L 44.109375 54.335938 C 44.109375 55.449219 43.207031 56.351562 42.09375 56.351562 L 21.90625 56.351562 C 20.792969 56.351562 19.890625 55.449219 19.890625 54.335938 L 19.890625 39.191406 C 19.890625 38.082031 20.792969 37.179688 21.90625 37.179688 Z M 6.335938 7.648438 L 26.527344 7.648438 C 27.636719 7.648438 28.539062 8.550781 28.539062 9.664062 L 28.539062 24.808594 C 28.539062 25.917969 27.636719 26.820312 26.527344 26.820312 L 6.335938 26.820312 C 5.226562 26.820312 4.324219 25.917969 4.324219 24.808594 L 4.324219 9.664062 C 4.324219 8.550781 5.226562 7.648438 6.335938 7.648438 Z M 6.335938 7.648438 "/>
</g>
</svg>
