<svg xmlns="http://www.w3.org/2000/svg" xmlns:xlink="http://www.w3.org/1999/xlink" width="64px" height="64px" viewBox="0 0 64 64" version="1.1">
<defs>
<linearGradient id="linear0" gradientUnits="userSpaceOnUse" x1="0" y1="0" x2="0" y2="1" gradientTransform="matrix(55.351351,0,0,48.432432,4.324324,7.783784)">
<stop offset="0" style="stop-color:#05f7ff;stop-opacity:1;"/>
<stop offset="0.5" style="stop-color:#dddddd;stop-opacity:1;"/>
<stop offset="1" style="stop-color:#e6ff05;stop-opacity:1;"/>
</linearGradient>
</defs>
<g id="surface1">
<path style=" stroke:none;fill-rule:evenodd;fill:url(#linear0);" d="M 12.441406 28.71875 L 14.292969 28.71875 L 14.292969 27.335938 C 15.902344 27.066406 17.125 25.917969 17.125 24.085938 C 17.125 21.742188 15.328125 20.976562 13.847656 20.40625 C 12.78125 20.003906 11.855469 19.625 11.855469 18.78125 C 11.855469 18.082031 12.382812 17.664062 13.242188 17.664062 C 14.148438 17.664062 14.726562 18.191406 14.976562 18.8125 L 16.679688 18.238281 C 16.363281 17.160156 15.566406 16.28125 14.292969 15.988281 L 14.292969 14.703125 L 12.441406 14.703125 L 12.441406 15.976562 C 10.820312 16.261719 9.929688 17.441406 9.929688 18.78125 C 9.929688 20.882812 11.585938 21.566406 13.039062 22.125 C 14.164062 22.570312 15.1875 23.03125 15.1875 24.105469 C 15.1875 25.089844 14.515625 25.632812 13.496094 25.632812 C 12.488281 25.632812 11.679688 24.929688 11.253906 23.941406 L 9.511719 24.582031 C 9.976562 25.96875 10.996094 26.96875 12.441406 27.308594 Z M 18.863281 30.042969 L 27.402344 30.042969 L 27.402344 28.550781 L 18.863281 28.550781 Z M 39.210938 22.714844 L 39.578125 20.328125 L 41.582031 20.328125 L 41.234375 22.714844 Z M 45.949219 30.042969 L 54.488281 30.042969 L 54.488281 28.550781 L 45.949219 28.550781 Z M 36.894531 27.226562 L 38.523438 27.226562 L 38.972656 24.3125 L 40.996094 24.3125 L 40.550781 27.226562 L 42.171875 27.226562 L 42.617188 24.3125 L 44.355469 24.3125 L 44.59375 22.714844 L 42.855469 22.714844 L 43.21875 20.328125 L 44.988281 20.328125 L 45.214844 18.753906 L 43.460938 18.753906 L 43.863281 16.070312 L 42.253906 16.070312 L 41.820312 18.753906 L 39.8125 18.753906 L 40.210938 16.070312 L 38.585938 16.070312 L 38.1875 18.753906 L 36.449219 18.753906 L 36.210938 20.328125 L 37.933594 20.328125 L 37.585938 22.714844 L 35.835938 22.714844 L 35.589844 24.3125 L 37.347656 24.3125 Z M 18.164062 11.242188 L 45.835938 11.242188 C 50.191406 11.296875 53.058594 11.449219 54.324219 12.148438 C 54.960938 12.5 55.324219 12.886719 55.664062 13.785156 C 56 14.679688 56.214844 16.113281 56.214844 18.164062 L 56.214844 45.835938 C 56.214844 47.886719 56 49.320312 55.664062 50.214844 C 55.324219 51.117188 54.960938 51.5 54.324219 51.851562 C 53.058594 52.550781 50.191406 52.703125 45.835938 52.757812 L 18.164062 52.757812 C 13.808594 52.703125 10.9375 52.550781 9.671875 51.851562 C 9.039062 51.5 8.675781 51.117188 8.335938 50.214844 C 8 49.320312 7.785156 47.886719 7.785156 45.835938 L 7.785156 18.164062 C 7.785156 16.113281 8 14.679688 8.335938 13.785156 C 8.675781 12.886719 9.039062 12.5 9.671875 12.148438 C 10.9375 11.449219 13.808594 11.296875 18.164062 11.242188 Z M 18.136719 7.785156 C 13.789062 7.835938 10.605469 7.675781 8 9.117188 C 6.699219 9.835938 5.671875 11.050781 5.105469 12.566406 C 4.53125 14.085938 4.324219 15.886719 4.324219 18.164062 L 4.324219 45.835938 C 4.324219 48.113281 4.53125 49.914062 5.105469 51.433594 C 5.671875 52.949219 6.699219 54.164062 8 54.882812 C 10.605469 56.324219 13.789062 56.164062 18.136719 56.214844 L 45.863281 56.214844 C 50.210938 56.164062 53.394531 56.324219 56 54.882812 C 57.300781 54.164062 58.328125 52.949219 58.902344 51.433594 C 59.46875 49.914062 59.675781 48.113281 59.675781 45.835938 L 59.675781 18.164062 C 59.675781 15.886719 59.46875 14.085938 58.894531 12.566406 C 58.328125 11.050781 57.300781 9.835938 56 9.117188 C 53.394531 7.675781 50.210938 7.835938 45.863281 7.785156 Z M 18.136719 7.785156 "/>
</g>
</svg>
