<svg xmlns="http://www.w3.org/2000/svg" xmlns:xlink="http://www.w3.org/1999/xlink" width="64px" height="64px" viewBox="0 0 64 64" version="1.1">
<defs>
<linearGradient id="linear0" gradientUnits="userSpaceOnUse" x1="0" y1="0" x2="0" y2="1" gradientTransform="matrix(55.351351,0,0,50.513514,4.324324,6.743243)">
<stop offset="0" style="stop-color:#ffae00;stop-opacity:1;"/>
<stop offset="0.5" style="stop-color:#dddddd;stop-opacity:1;"/>
<stop offset="1" style="stop-color:#6600ff;stop-opacity:1;"/>
</linearGradient>
</defs>
<g id="surface1">
<path style=" stroke:none;fill-rule:nonzero;fill:url(#linear0);" d="M 27.441406 26.105469 C 22.746094 26.484375 19.296875 26.226562 16.867188 25.78125 C 9.261719 23.765625 6.414062 20.085938 8.328125 14.746094 C 9.914062 12.863281 11.414062 11.710938 13.996094 12.179688 C 24.410156 14.066406 34.011719 17.632812 42.328125 17.691406 C 49.003906 17.746094 54.910156 14.886719 59.335938 12.105469 C 60.1875 10.363281 59.433594 9.285156 57.214844 9.003906 C 53.890625 11.027344 50.820312 12.136719 48.148438 12.484375 C 36.664062 13.617188 22.003906 5.300781 13.390625 6.960938 C 7.648438 8.070312 4.625 11.949219 4.324219 18.605469 C 5.136719 26.226562 14.1875 29.644531 25.449219 29.320312 C 25.4375 29.347656 25.417969 29.378906 25.40625 29.40625 C 22.539062 32.960938 21.476562 37.71875 21.253906 42.855469 C 21.058594 47.234375 23.328125 51.039062 26.460938 54.265625 C 30.542969 57.238281 34.726562 57.996094 39.003906 56.539062 C 46.160156 54.214844 50.515625 49.203125 52.078125 41.496094 C 51.878906 36.863281 49.6875 34.21875 45.503906 33.5625 C 39.863281 33.710938 35.328125 37.515625 31.902344 44.972656 C 32.230469 47.113281 33.0625 47.617188 34.851562 46.785156 C 37.3125 40.675781 42.484375 35.527344 45.882812 36.960938 C 49.285156 38.402344 47.621094 48.597656 38.175781 53.585938 C 34.199219 54.796875 31.226562 54.089844 29.261719 51.46875 C 25.613281 46.097656 26.644531 38.503906 32.351562 28.6875 C 35.792969 28.171875 39.320312 27.351562 42.785156 26.234375 C 44.082031 25.238281 45.054688 25.554688 44.386719 23.988281 C 43.730469 22.417969 43.203125 23.246094 41.5 23.285156 C 38.960938 24.121094 36.648438 24.738281 34.554688 25.148438 C 35.882812 23.125 37.390625 21.023438 39.082031 18.828125 C 37.902344 18.339844 36.972656 18.089844 36.289062 18.070312 C 35.28125 18.625 33.792969 19.230469 31.828125 19.882812 C 30 22.386719 28.539062 24.460938 27.441406 26.105469 Z M 27.441406 26.105469 "/>
</g>
</svg>
