<svg xmlns="http://www.w3.org/2000/svg" xmlns:xlink="http://www.w3.org/1999/xlink" width="64px" height="64px" viewBox="0 0 64 64" version="1.1">
<defs>
<linearGradient id="linear0" gradientUnits="userSpaceOnUse" x1="0" y1="0" x2="0" y2="1" gradientTransform="matrix(41.513514,0,0,55.351351,11.243243,4.324324)">
<stop offset="0" style="stop-color:#00a2ff;stop-opacity:1;"/>
<stop offset="0.5" style="stop-color:#dddddd;stop-opacity:1;"/>
<stop offset="1" style="stop-color:#00ffae;stop-opacity:1;"/>
</linearGradient>
</defs>
<g id="surface1">
<path style=" stroke:none;fill-rule:nonzero;fill:url(#linear0);" d="M 33.449219 4.324219 C 33.9375 4.699219 34.355469 5.160156 34.8125 5.558594 C 38.988281 9.53125 42.8125 13.921875 45.890625 18.824219 C 48.867188 23.5625 51.160156 28.8125 52.175781 34.347656 C 52.738281 37.382812 52.921875 40.496094 52.59375 43.566406 C 52.445312 44.851562 52.226562 46.136719 51.820312 47.363281 C 51.253906 49.136719 50.503906 50.867188 49.484375 52.433594 C 48.597656 53.785156 47.5 54.988281 46.226562 55.960938 C 44.824219 57.03125 43.226562 57.8125 41.5625 58.351562 C 39.496094 59.015625 37.324219 59.351562 35.164062 59.527344 C 32.585938 59.71875 29.988281 59.757812 27.417969 59.429688 C 24.503906 59.0625 21.609375 58.28125 19.011719 56.863281 C 16.613281 55.5625 14.5 53.644531 13.144531 51.234375 C 11.570312 48.484375 11.054688 45.214844 11.300781 42.066406 C 11.558594 38.730469 12.613281 35.496094 14.003906 32.472656 C 15.210938 29.878906 16.6875 27.417969 18.335938 25.078125 C 19.734375 23.097656 21.238281 21.199219 22.886719 19.417969 C 22.917969 19.394531 22.972656 19.347656 23.011719 19.324219 C 22.984375 20.824219 23.125 22.335938 23.550781 23.773438 C 23.984375 25.242188 24.714844 26.632812 25.6875 27.8125 C 25.746094 27.882812 25.789062 27.988281 25.894531 28 C 28.011719 26.402344 30.003906 24.605469 31.5625 22.445312 C 33.175781 20.214844 34.257812 17.605469 34.664062 14.867188 C 35.214844 11.335938 34.746094 7.652344 33.449219 4.324219 Z M 33.449219 4.324219 "/>
</g>
</svg>
