<svg xmlns="http://www.w3.org/2000/svg" xmlns:xlink="http://www.w3.org/1999/xlink" width="64px" height="64px" viewBox="0 0 64 64" version="1.1">
<defs>
<linearGradient id="linear0" gradientUnits="userSpaceOnUse" x1="0" y1="0" x2="0" y2="1" gradientTransform="matrix(43.486486,0,0,55.351351,10.256756,4.324324)">
<stop offset="0" style="stop-color:#ffae00;stop-opacity:1;"/>
<stop offset="0.5" style="stop-color:#dddddd;stop-opacity:1;"/>
<stop offset="1" style="stop-color:#bf1d1d;stop-opacity:1;"/>
</linearGradient>
</defs>
<g id="surface1">
<path style=" stroke:none;fill-rule:evenodd;fill:url(#linear0);" d="M 24.089844 44.847656 C 24.089844 43.210938 25.421875 41.882812 27.058594 41.882812 C 28.699219 41.882812 30.023438 43.210938 30.023438 44.847656 C 30.023438 46.488281 28.699219 47.8125 27.058594 47.8125 C 25.421875 47.8125 24.089844 46.488281 24.089844 44.847656 Z M 10.261719 35.449219 C 10.179688 29.726562 11.164062 24.285156 13.164062 19.285156 C 15.675781 12.945312 19.335938 6.484375 25.820312 4.734375 C 27.3125 4.355469 31.8125 4.1875 32.089844 4.460938 C 32.164062 4.539062 31.621094 5.257812 30.882812 6.0625 C 29.292969 7.808594 27.03125 10.136719 26.46875 12.355469 C 25.949219 14.382812 25.957031 14.957031 26.527344 15.328125 C 27.769531 16.136719 38.054688 16.726562 39.339844 16.015625 C 39.605469 15.875 40.457031 15.394531 41.242188 14.605469 C 43.042969 12.800781 46.285156 10.820312 48.671875 10.449219 C 50.386719 10.1875 53.609375 10.40625 53.742188 10.8125 C 53.785156 10.941406 53.21875 11.476562 52.484375 12 C 51.003906 13.054688 49.296875 14.488281 48.8125 15.511719 C 48.511719 16.136719 48.53125 16.324219 49.003906 18.160156 C 49.761719 21.050781 50.050781 25.058594 49.753906 28.59375 C 49.417969 32.441406 48.347656 39.617188 47.503906 43.578125 C 45.390625 53.566406 41.523438 58.363281 35.910156 59.539062 C 34.550781 59.828125 30.808594 59.566406 30.808594 59.566406 C 17.363281 58.824219 10.511719 47.320312 10.261719 35.449219 Z M 39.910156 46.828125 C 39.910156 45.1875 41.238281 43.863281 42.875 43.863281 C 44.511719 43.863281 45.835938 45.1875 45.835938 46.828125 C 45.835938 48.460938 44.511719 49.792969 42.875 49.792969 C 41.238281 49.792969 39.910156 48.460938 39.910156 46.828125 Z M 39.910156 46.828125 "/>
</g>
</svg>
