<svg xmlns="http://www.w3.org/2000/svg" xmlns:xlink="http://www.w3.org/1999/xlink" width="64px" height="64px" viewBox="0 0 64 64" version="1.1">
<defs>
<linearGradient id="linear0" gradientUnits="userSpaceOnUse" x1="0" y1="0" x2="0" y2="1" gradientTransform="matrix(51.891892,0,0,51.891892,6.202703,5.905405)">
<stop offset="0" style="stop-color:#05f7ff;stop-opacity:1;"/>
<stop offset="0.5" style="stop-color:#dddddd;stop-opacity:1;"/>
<stop offset="1" style="stop-color:#e6ff05;stop-opacity:1;"/>
</linearGradient>
</defs>
<g id="surface1">
<path style=" stroke:none;fill-rule:nonzero;fill:url(#linear0);" d="M 32.148438 5.90625 C 17.8125 5.90625 6.203125 17.523438 6.203125 31.851562 C 6.203125 46.1875 17.8125 57.796875 32.148438 57.796875 C 46.476562 57.796875 58.09375 46.1875 58.09375 31.851562 C 58.09375 17.523438 46.476562 5.90625 32.148438 5.90625 Z M 32.148438 12.390625 C 42.890625 12.390625 51.609375 21.109375 51.609375 31.851562 C 51.597656 37.378906 49.238281 42.644531 45.121094 46.328125 L 45.121094 25.363281 L 38.636719 25.363281 L 38.636719 50.179688 C 36.550781 50.921875 34.363281 51.308594 32.148438 51.3125 C 21.402344 51.3125 12.6875 42.605469 12.6875 31.855469 C 12.6875 21.109375 21.402344 12.394531 32.148438 12.394531 Z M 38.636719 33.472656 L 22.417969 22.121094 L 22.417969 44.824219 Z M 38.636719 33.472656 "/>
</g>
</svg>
