<svg xmlns="http://www.w3.org/2000/svg" xmlns:xlink="http://www.w3.org/1999/xlink" width="64px" height="64px" viewBox="0 0 64 64" version="1.1">
<defs>
<linearGradient id="linear0" gradientUnits="userSpaceOnUse" x1="0" y1="0" x2="0" y2="1" gradientTransform="matrix(55.351351,0,0,55.153152,4.324324,4.423423)">
<stop offset="0" style="stop-color:#00fff2;stop-opacity:1;"/>
<stop offset="0.5" style="stop-color:#dddddd;stop-opacity:1;"/>
<stop offset="1" style="stop-color:#0062ff;stop-opacity:1;"/>
</linearGradient>
</defs>
<g id="surface1">
<path style=" stroke:none;fill-rule:nonzero;fill:url(#linear0);" d="M 36.855469 4.421875 C 36.421875 4.4375 36.121094 4.554688 36.121094 4.554688 C 36.121094 4.554688 32.414062 8.296875 31.066406 12.875 C 26.691406 6.3125 21.460938 11.988281 19.363281 6.554688 C 19.363281 15.082031 27.863281 13.054688 29.875 14.472656 C 22.039062 13.820312 23.3125 20.121094 17.632812 21.257812 C 24.875 24.238281 29.308594 21.003906 31.265625 15.734375 C 30.960938 17.796875 28.589844 25 35.324219 29.039062 C 36.945312 23.824219 36.117188 20.042969 33.863281 15.605469 C 33.90625 15.589844 33.960938 15.621094 33.996094 15.605469 C 37.308594 19.742188 42.339844 24.324219 48.03125 20.71875 C 43.324219 19.496094 44.097656 16.152344 38.257812 15.136719 C 42.636719 15.320312 44.5625 16.433594 47.566406 10.542969 C 42.847656 12.988281 40.164062 8.160156 34.328125 13.335938 C 34.539062 11.375 35.382812 7.6875 38.449219 4.960938 C 38 4.59375 37.4375 4.40625 36.855469 4.421875 Z M 18.496094 12.078125 C 7.660156 14.550781 4.324219 22.914062 4.324219 33.363281 C 4.324219 47.066406 16.707031 59.578125 32 59.578125 C 45.539062 59.578125 59.675781 50.46875 59.675781 30.636719 C 59.675781 22.386719 56.863281 16.03125 49.03125 13.335938 C 49.164062 14.867188 46.335938 16.597656 44.835938 16.664062 C 46.460938 17.070312 48.875 19.527344 50.960938 18.796875 C 50.835938 20.308594 49.679688 22.96875 48.296875 23.917969 C 45.957031 25.539062 41.335938 25.472656 39.1875 23.320312 C 39.027344 24.625 39.375 30.867188 35.988281 32.902344 C 30.039062 31.402344 29.328125 26.769531 28.40625 24.3125 C 27.015625 24.839844 25.207031 25.582031 23.617188 25.714844 C 17.1875 26.253906 13.457031 22.394531 13.636719 20.527344 C 16.054688 19.8125 20.1875 17.730469 21.226562 15.269531 C 20.160156 14.90625 18.496094 14.097656 18.496094 12.078125 Z M 18.496094 12.078125 "/>
</g>
</svg>
