<svg xmlns="http://www.w3.org/2000/svg" xmlns:xlink="http://www.w3.org/1999/xlink" width="64px" height="64px" viewBox="0 0 64 64" version="1.1">
<defs>
<linearGradient id="linear0" gradientUnits="userSpaceOnUse" x1="0" y1="0" x2="0" y2="1" gradientTransform="matrix(55.351351,0,0,37.73874,4.324324,13.130631)">
<stop offset="0" style="stop-color:#00a2ff;stop-opacity:1;"/>
<stop offset="0.5" style="stop-color:#dddddd;stop-opacity:1;"/>
<stop offset="1" style="stop-color:#00ffae;stop-opacity:1;"/>
</linearGradient>
</defs>
<g id="surface1">
<path style=" stroke:none;fill-rule:nonzero;fill:url(#linear0);" d="M 59.617188 27.3125 L 52.28125 13.511719 C 52.265625 13.488281 52.257812 13.476562 52.242188 13.460938 C 52.191406 13.394531 52.136719 13.339844 52.070312 13.292969 C 51.8125 13.113281 51.449219 13.070312 51.144531 13.230469 C 50.960938 13.324219 50.835938 13.46875 50.757812 13.636719 C 50.742188 13.652344 50.738281 13.664062 50.734375 13.6875 L 46.765625 23.03125 L 38.890625 27.0625 C 38.835938 27.085938 38.789062 27.117188 38.738281 27.144531 L 36.0625 28.515625 L 33.726562 29.710938 L 33.117188 28.5625 C 32.769531 27.914062 31.960938 27.664062 31.292969 28.003906 C 30.636719 28.335938 30.378906 29.144531 30.726562 29.792969 L 31.335938 30.9375 L 29.082031 32.09375 L 27.132812 28.433594 L 30.625 26.644531 C 31.523438 26.179688 31.875 25.09375 31.402344 24.214844 C 31.328125 24.078125 31.234375 23.941406 31.125 23.835938 L 30.96875 23.679688 C 30.414062 23.21875 29.609375 23.105469 28.929688 23.457031 L 18.617188 28.738281 C 17.714844 29.203125 17.363281 30.289062 17.835938 31.171875 C 17.910156 31.308594 18 31.433594 18.105469 31.542969 C 18.152344 31.605469 18.214844 31.660156 18.273438 31.707031 C 18.828125 32.164062 19.632812 32.28125 20.3125 31.933594 L 23.808594 30.144531 L 25.746094 33.800781 L 23.261719 35.078125 L 22.652344 33.933594 C 22.308594 33.28125 21.488281 33.03125 20.828125 33.363281 C 20.660156 33.457031 20.511719 33.578125 20.390625 33.71875 C 20.078125 34.117188 20.003906 34.675781 20.257812 35.152344 L 20.867188 36.300781 L 17.082031 38.242188 C 17.027344 38.269531 16.976562 38.296875 16.921875 38.320312 L 7.902344 42.941406 L 4.824219 42.285156 C 4.8125 42.28125 4.8125 42.28125 4.800781 42.28125 C 4.714844 42.265625 4.625 42.28125 4.539062 42.320312 C 4.363281 42.414062 4.28125 42.625 4.351562 42.8125 L 7.726562 49.160156 C 7.734375 49.164062 7.742188 49.179688 7.753906 49.1875 L 7.761719 49.191406 L 7.808594 49.242188 C 7.921875 49.335938 8.097656 49.363281 8.246094 49.285156 C 8.328125 49.242188 8.390625 49.175781 8.429688 49.09375 C 8.433594 49.089844 8.433594 49.082031 8.4375 49.078125 L 9.671875 46.164062 L 13.285156 44.3125 C 13.296875 45.324219 13.542969 46.339844 14.054688 47.292969 C 15.785156 50.554688 19.882812 51.8125 23.199219 50.113281 C 23.253906 50.085938 23.300781 50.058594 23.351562 50.03125 L 27.136719 48.089844 L 27.847656 49.421875 C 28.1875 50.070312 29.011719 50.320312 29.671875 49.988281 C 30.328125 49.648438 30.589844 48.839844 30.242188 48.199219 L 29.53125 46.863281 L 32.023438 45.589844 L 34.085938 49.472656 C 34.566406 50.378906 35.703125 50.730469 36.621094 50.257812 C 36.882812 50.125 37.09375 49.941406 37.257812 49.730469 C 37.675781 49.179688 37.761719 48.417969 37.417969 47.769531 L 35.351562 43.882812 L 37.609375 42.730469 L 38.3125 44.058594 C 38.660156 44.707031 39.476562 44.960938 40.136719 44.621094 C 40.800781 44.28125 41.054688 43.476562 40.710938 42.835938 L 40 41.503906 L 45.226562 38.820312 C 45.589844 38.636719 45.921875 38.417969 46.234375 38.175781 C 48.738281 36.234375 49.566406 32.757812 48.039062 29.878906 C 47.53125 28.929688 46.824219 28.144531 45.988281 27.558594 L 48.457031 26.296875 L 58.589844 28.449219 C 58.609375 28.457031 58.625 28.460938 58.644531 28.460938 C 58.835938 28.496094 59.027344 28.472656 59.207031 28.382812 C 59.605469 28.175781 59.773438 27.714844 59.617188 27.3125 Z M 21.539062 46.828125 C 21.511719 46.839844 21.496094 46.851562 21.46875 46.863281 C 19.972656 47.632812 18.136719 47.0625 17.363281 45.597656 C 16.582031 44.136719 17.160156 42.328125 18.648438 41.566406 L 22.59375 39.542969 L 25.410156 44.847656 Z M 27.800781 43.617188 L 24.988281 38.320312 L 25.148438 38.238281 L 27.472656 37.050781 L 30.292969 42.339844 L 29.761719 42.617188 Z M 33.625 40.636719 L 30.808594 35.335938 L 33.0625 34.1875 L 35.878906 39.476562 Z M 42.972656 35.835938 C 42.9375 35.863281 42.910156 35.882812 42.867188 35.894531 L 38.269531 38.257812 L 35.449219 32.960938 L 38.882812 31.199219 L 39.984375 30.636719 C 40.039062 30.605469 40.097656 30.578125 40.160156 30.550781 C 41.613281 29.914062 43.339844 30.496094 44.089844 31.902344 C 44.753906 33.136719 44.4375 34.621094 43.421875 35.511719 C 43.289062 35.632812 43.136719 35.742188 42.972656 35.835938 Z M 42.972656 35.835938 "/>
</g>
</svg>
