<svg xmlns="http://www.w3.org/2000/svg" xmlns:xlink="http://www.w3.org/1999/xlink" width="64px" height="64px" viewBox="0 0 64 64" version="1.1">
<defs>
<linearGradient id="linear0" gradientUnits="userSpaceOnUse" x1="0" y1="0" x2="0" y2="1" gradientTransform="matrix(55.351351,0,0,51.891892,4.324324,6.054054)">
<stop offset="0" style="stop-color:#ffae00;stop-opacity:1;"/>
<stop offset="0.5" style="stop-color:#dddddd;stop-opacity:1;"/>
<stop offset="1" style="stop-color:#bf1d1d;stop-opacity:1;"/>
</linearGradient>
</defs>
<g id="surface1">
<path style=" stroke:none;fill-rule:nonzero;fill:url(#linear0);" d="M 32.738281 6.054688 L 30.511719 6.078125 C 29.269531 6.078125 27.421875 6.285156 26.363281 6.488281 C 20.21875 7.808594 15.375 10.847656 10.851562 16.3125 C 7.765625 20.027344 5.351562 25.675781 4.609375 30.960938 C 3.59375 38.292969 5.289062 45.242188 9.769531 52.113281 C 11.03125 54.054688 11.300781 54.324219 12.632812 55.011719 C 15.199219 56.402344 17.625 57.1875 21.363281 57.808594 C 21.746094 57.875 22.085938 57.90625 22.085938 57.855469 C 22.085938 57.8125 21.523438 57.324219 20.800781 56.792969 C 18.773438 55.226562 15.511719 51.691406 14.050781 49.476562 C 10.421875 44.058594 9.296875 40.050781 9.542969 33.5 C 9.636719 30.847656 9.792969 29.765625 10.242188 28.265625 C 13.238281 18.234375 21.367188 11.355469 30.328125 11.265625 L 32.175781 11.242188 L 32.3125 9.742188 C 32.402344 8.914062 32.511719 7.761719 32.597656 7.136719 Z M 33.460938 12.851562 C 31.726562 12.808594 29.808594 12.855469 29.175781 12.949219 C 22.105469 14.125 16.054688 18.8125 12.96875 25.472656 C 10.152344 31.515625 10.421875 39.3125 13.664062 45.839844 C 16.011719 50.542969 20.011719 54.597656 24.765625 57.042969 L 26.542969 57.945312 L 34.421875 57.945312 C 42.914062 57.945312 44.378906 57.808594 47.757812 56.652344 C 49.378906 56.121094 50.820312 55.410156 49.582031 55.753906 C 48.5 56.078125 39.605469 55.914062 37.082031 55.542969 C 24.023438 53.585938 16.164062 45.652344 16.164062 34.417969 C 16.164062 31.8125 16.230469 31.324219 16.835938 29.527344 C 18.097656 25.765625 20.394531 22.679688 23.386719 20.71875 C 26.335938 18.785156 29.175781 17.949219 32.78125 17.996094 C 35.414062 17.996094 37.53125 18.4375 39.851562 19.40625 C 40.773438 19.796875 41.5625 20.070312 41.585938 20.050781 C 41.632812 20.027344 42.125 19.011719 42.6875 17.835938 C 43.882812 15.367188 43.886719 15.367188 41.90625 14.585938 C 38.976562 13.410156 36.726562 12.945312 33.460938 12.851562 Z M 32.703125 19.46875 C 31.8125 19.503906 30.910156 19.613281 29.96875 19.796875 C 27.988281 20.1875 24.671875 21.78125 23.207031 23.023438 C 19.675781 26.023438 17.941406 30.039062 17.941406 35.117188 C 17.941406 38.273438 18.308594 39.957031 19.636719 42.652344 C 22.226562 47.933594 27.671875 51.53125 35.9375 53.355469 C 37.917969 53.8125 39.066406 53.886719 45.664062 53.984375 L 53.164062 54.070312 L 54.21875 53.429688 C 55.234375 52.828125 59.875 48.351562 59.671875 48.164062 C 59.625 48.144531 58.769531 48.164062 57.78125 48.285156 C 56.789062 48.378906 53.675781 48.582031 50.882812 48.71875 C 40.210938 49.226562 33.839844 48.164062 28.6875 44.984375 C 27.179688 44.039062 24.8125 41.550781 24.164062 40.164062 C 21.839844 35.230469 23.164062 29.417969 27.265625 26.605469 C 32.109375 23.308594 38.730469 24.570312 41.863281 29.414062 L 42.421875 30.273438 L 44.585938 29.089844 C 45.78125 28.421875 46.789062 27.867188 46.835938 27.824219 C 47.105469 27.589844 45.863281 25.820312 44.269531 24.164062 C 42.78125 22.59375 42.105469 22.085938 40.324219 21.1875 C 37.8125 19.921875 35.355469 19.355469 32.703125 19.46875 Z M 32.703125 19.46875 "/>
</g>
</svg>
