<svg xmlns="http://www.w3.org/2000/svg" xmlns:xlink="http://www.w3.org/1999/xlink" width="64px" height="64px" viewBox="0 0 64 64" version="1.1">
<defs>
<linearGradient id="linear0" gradientUnits="userSpaceOnUse" x1="0" y1="0" x2="0" y2="1" gradientTransform="matrix(55.351351,0,0,46.837838,4.324324,8.581081)">
<stop offset="0" style="stop-color:#ffae00;stop-opacity:1;"/>
<stop offset="0.5" style="stop-color:#dddddd;stop-opacity:1;"/>
<stop offset="1" style="stop-color:#bf1d1d;stop-opacity:1;"/>
</linearGradient>
</defs>
<g id="surface1">
<path style=" stroke:none;fill-rule:nonzero;fill:url(#linear0);" d="M 32 8.582031 C 30.03125 8.582031 28.320312 9.933594 27.863281 11.847656 C 27.402344 13.761719 28.3125 15.738281 30.066406 16.636719 L 21.355469 34.125 L 11.839844 26.210938 C 12.488281 25.445312 12.835938 24.484375 12.839844 23.484375 C 12.839844 21.136719 10.9375 19.230469 8.582031 19.230469 C 6.230469 19.230469 4.324219 21.136719 4.324219 23.484375 C 4.324219 25.835938 6.230469 27.742188 8.582031 27.742188 C 8.875 27.742188 9.171875 27.734375 9.445312 27.675781 L 13.039062 44.769531 L 50.960938 44.769531 L 54.554688 27.675781 C 54.828125 27.734375 55.132812 27.742188 55.417969 27.742188 C 57.769531 27.742188 59.675781 25.835938 59.675781 23.484375 C 59.675781 21.136719 57.769531 19.230469 55.417969 19.230469 C 53.0625 19.230469 51.160156 21.136719 51.160156 23.484375 C 51.164062 24.484375 51.511719 25.445312 52.160156 26.210938 L 42.644531 34.125 L 33.933594 16.636719 C 35.6875 15.738281 36.597656 13.761719 36.136719 11.847656 C 35.679688 9.933594 33.96875 8.582031 32 8.582031 Z M 12.839844 49.03125 L 12.839844 52.226562 C 12.839844 53.988281 14.269531 55.417969 16.039062 55.417969 L 47.960938 55.417969 C 49.730469 55.417969 51.160156 53.988281 51.160156 52.226562 L 51.160156 49.03125 Z M 12.839844 49.03125 "/>
</g>
</svg>
