<svg xmlns="http://www.w3.org/2000/svg" xmlns:xlink="http://www.w3.org/1999/xlink" width="64px" height="64px" viewBox="0 0 64 64" version="1.1">
<defs>
<linearGradient id="linear0" gradientUnits="userSpaceOnUse" x1="0" y1="0" x2="0" y2="1" gradientTransform="matrix(55.351351,0,0,55.351351,4.324324,4.324324)">
<stop offset="0" style="stop-color:#ffae00;stop-opacity:1;"/>
<stop offset="0.5" style="stop-color:#dddddd;stop-opacity:1;"/>
<stop offset="1" style="stop-color:#6600ff;stop-opacity:1;"/>
</linearGradient>
</defs>
<g id="surface1">
<path style=" stroke:none;fill-rule:nonzero;fill:url(#linear0);" d="M 7.917969 4.324219 C 5.933594 4.328125 4.328125 5.933594 4.324219 7.917969 L 4.324219 34.792969 C 4.324219 36.773438 5.9375 38.386719 7.917969 38.386719 L 12.839844 38.386719 L 12.839844 44.769531 L 19.230469 51.160156 L 25.613281 51.160156 L 25.613281 56.085938 C 25.613281 58.0625 27.226562 59.675781 29.207031 59.675781 L 56.082031 59.675781 C 58.066406 59.671875 59.671875 58.066406 59.675781 56.082031 L 59.675781 29.207031 C 59.671875 27.21875 58.066406 25.617188 56.082031 25.613281 L 38.386719 25.613281 L 38.386719 7.914062 C 38.382812 5.933594 36.78125 4.328125 34.792969 4.324219 Z M 8.582031 8.582031 L 34.125 8.582031 L 34.125 25.613281 L 29.203125 25.613281 C 28.382812 25.613281 27.617188 25.878906 27.011719 26.347656 C 26.136719 25.835938 25.335938 25.375 24.613281 24.878906 C 26.539062 22.894531 28.160156 20.632812 29.40625 18.164062 C 29.589844 17.835938 29.679688 17.46875 29.671875 17.09375 L 32 17.09375 L 32 12.839844 L 23.484375 12.839844 L 23.484375 10.710938 L 19.230469 10.710938 L 19.230469 12.839844 L 10.710938 12.839844 L 10.710938 17.09375 L 15.234375 17.09375 C 14.664062 17.308594 14.214844 17.738281 13.988281 18.296875 C 13.757812 18.855469 13.773438 19.484375 14.039062 20.023438 C 14.039062 20.023438 14.742188 21.523438 16.433594 23.417969 C 16.875 23.910156 17.378906 24.460938 17.960938 25.011719 C 14.945312 27.21875 12.375 28.207031 12.375 28.207031 C 11.566406 28.382812 10.941406 29.011719 10.757812 29.8125 C 10.582031 30.613281 10.867188 31.445312 11.511719 31.957031 C 12.160156 32.460938 13.039062 32.558594 13.769531 32.203125 C 13.769531 32.203125 17.347656 30.867188 21.355469 27.742188 C 22.460938 28.550781 23.648438 29.386719 25.082031 30.203125 C 25.246094 30.292969 25.429688 30.363281 25.613281 30.402344 L 25.613281 34.125 L 17.09375 34.125 L 16.039062 33.066406 L 14.96875 34.125 L 8.582031 34.125 Z M 16.699219 17.09375 L 25.082031 17.09375 C 24.039062 18.972656 22.738281 20.699219 21.21875 22.21875 C 20.664062 21.714844 20.132812 21.179688 19.625 20.621094 C 18.238281 19.066406 17.894531 18.296875 17.894531 18.296875 C 17.679688 17.746094 17.242188 17.3125 16.699219 17.09375 Z M 40.445312 32.664062 L 44.90625 32.664062 L 52.226562 52.488281 L 47.636719 52.488281 L 46.171875 48.230469 L 39.121094 48.230469 L 37.652344 52.488281 L 33.066406 52.488281 Z M 42.582031 38.121094 L 40.1875 45.105469 L 45.105469 45.105469 L 42.710938 38.121094 Z M 19.230469 38.386719 L 25.613281 38.386719 L 25.613281 44.769531 L 19.230469 44.769531 Z M 19.230469 38.386719 "/>
</g>
</svg>
