<svg xmlns="http://www.w3.org/2000/svg" xmlns:xlink="http://www.w3.org/1999/xlink" width="64px" height="64px" viewBox="0 0 64 64" version="1.1">
<defs>
<linearGradient id="linear0" gradientUnits="userSpaceOnUse" x1="0" y1="0" x2="0" y2="1" gradientTransform="matrix(51.891892,0,0,48.630632,6.054054,6.891891)">
<stop offset="0" style="stop-color:#00fff2;stop-opacity:1;"/>
<stop offset="0.5" style="stop-color:#dddddd;stop-opacity:1;"/>
<stop offset="1" style="stop-color:#0062ff;stop-opacity:1;"/>
</linearGradient>
</defs>
<g id="surface1">
<path style=" stroke:none;fill-rule:nonzero;fill:url(#linear0);" d="M 40.484375 55 C 31.363281 52.5 24.410156 43.039062 26.363281 35.8125 C 26.746094 34.410156 26.921875 34.21875 27.875 34.21875 C 28.46875 34.21875 29.199219 34.125 29.5 34.011719 C 29.945312 33.839844 30.078125 34.410156 30.210938 37.105469 C 30.335938 39.566406 30.59375 40.820312 31.234375 42.058594 C 32.988281 45.449219 37.414062 48.730469 42.097656 50.105469 C 49.144531 52.175781 55.390625 48.539062 55.335938 42.410156 C 55.3125 39.835938 54.175781 37.175781 52.039062 34.675781 C 50.199219 32.53125 49.769531 32.6875 50.988281 35.0625 C 53.542969 40.03125 51.160156 44.800781 46.097656 44.824219 C 40.59375 44.847656 35.636719 40.996094 35.105469 36.289062 C 34.9375 34.835938 35.085938 34.292969 36.066406 32.710938 C 36.703125 31.6875 37.082031 30.851562 36.90625 30.851562 C 36.726562 30.851562 34.609375 31.1875 32.199219 31.597656 C 24.894531 32.847656 21.175781 32.511719 16.09375 30.136719 C 7.902344 26.3125 4.058594 18.875 7.082031 12.691406 C 8.96875 8.835938 12.699219 6.917969 18.355469 6.890625 C 25.613281 6.863281 30.664062 9.40625 32.820312 14.179688 C 33.515625 15.730469 33.660156 16.664062 33.625 19.613281 C 33.605469 21.566406 33.351562 23.929688 33.066406 24.855469 C 32.609375 26.347656 32.40625 26.554688 31.351562 26.660156 L 30.160156 26.773438 L 30.714844 25.445312 C 31.015625 24.710938 31.511719 23.082031 31.808594 21.8125 L 32.339844 19.511719 L 31.132812 20.835938 C 28.960938 23.207031 25.1875 23.539062 21.539062 21.671875 C 14.703125 18.175781 14.550781 10.179688 21.273438 8.1875 L 22.835938 7.730469 L 21.582031 7.449219 C 20.097656 7.125 17.355469 7.484375 15.539062 8.242188 C 11.292969 10.011719 9.847656 14.863281 12.171875 19.511719 C 13.613281 22.40625 16.011719 24.613281 19.40625 26.171875 C 23.1875 27.90625 25.246094 28.230469 34.710938 28.59375 C 43.46875 28.929688 44.082031 29.027344 47.382812 30.605469 C 55.792969 34.621094 60.109375 43.394531 56.863281 49.878906 C 55.609375 52.394531 53.460938 54.164062 50.660156 55 C 48.308594 55.699219 43.015625 55.699219 40.484375 55 Z M 47.851562 38.746094 C 49.335938 38.179688 49.988281 37.265625 49.988281 35.746094 C 49.988281 31.960938 44.8125 28.882812 41.40625 30.648438 C 37.621094 32.605469 41.148438 38.882812 46.125 39.0625 C 46.578125 39.078125 47.351562 38.9375 47.851562 38.746094 Z M 30.542969 16.644531 C 31.765625 15.417969 31.933594 14.160156 31.089844 12.523438 C 29.09375 8.664062 23.175781 7.582031 21.644531 10.789062 C 20.890625 12.367188 21.179688 13.578125 22.738281 15.351562 C 24.203125 17.015625 25.675781 17.707031 27.828125 17.726562 C 29.132812 17.734375 29.664062 17.523438 30.542969 16.644531 Z M 30.542969 16.644531 "/>
</g>
</svg>
