<svg xmlns="http://www.w3.org/2000/svg" xmlns:xlink="http://www.w3.org/1999/xlink" width="64px" height="64px" viewBox="0 0 64 64" version="1.1">
<defs>
<linearGradient id="linear0" gradientUnits="userSpaceOnUse" x1="0" y1="0" x2="0" y2="1" gradientTransform="matrix(55.351351,0,0,55.274774,4.324324,4.36036)">
<stop offset="0" style="stop-color:#ffae00;stop-opacity:1;"/>
<stop offset="0.5" style="stop-color:#dddddd;stop-opacity:1;"/>
<stop offset="1" style="stop-color:#6600ff;stop-opacity:1;"/>
</linearGradient>
</defs>
<g id="surface1">
<path style=" stroke:none;fill-rule:nonzero;fill:url(#linear0);" d="M 55.058594 29.511719 C 55.066406 29.472656 55.082031 29.441406 55.089844 29.40625 C 53.496094 23.597656 51.664062 17.945312 49.855469 13.460938 C 49.839844 13.472656 49.824219 13.484375 49.8125 13.488281 C 47.746094 8.390625 45.730469 4.828125 44.1875 4.417969 C 44 4.367188 43.785156 4.347656 43.539062 4.375 L 43.539062 4.367188 C 36.023438 5.003906 2.824219 38.472656 4.378906 44.269531 C 4.769531 45.738281 8 47.621094 12.671875 49.566406 L 12.769531 49.46875 C 17.199219 51.300781 22.917969 53.175781 28.835938 54.8125 C 28.886719 54.785156 28.9375 54.757812 28.996094 54.730469 L 28.835938 54.882812 C 42.210938 58.589844 56.511719 61.039062 58.792969 58.746094 C 61.039062 56.5 58.699219 42.644531 55.085938 29.472656 L 55.089844 29.472656 Z M 55.058594 29.511719 "/>
</g>
</svg>
