<svg xmlns="http://www.w3.org/2000/svg" xmlns:xlink="http://www.w3.org/1999/xlink" width="64px" height="64px" viewBox="0 0 64 64" version="1.1">
<defs>
<linearGradient id="linear0" gradientUnits="userSpaceOnUse" x1="0" y1="0" x2="0" y2="1" gradientTransform="matrix(55.351351,0,0,52.972973,4.324324,5.513514)">
<stop offset="0" style="stop-color:#ff8963;stop-opacity:1;"/>
<stop offset="0.5" style="stop-color:#dddddd;stop-opacity:1;"/>
<stop offset="1" style="stop-color:#0F6FFF;stop-opacity:1;"/>
</linearGradient>
</defs>
<g id="surface1">
<path style=" stroke:none;fill-rule:nonzero;fill:url(#linear0);" d="M 44.367188 5.515625 C 43.257812 5.566406 42.246094 6.179688 41.691406 7.148438 C 41.261719 7.894531 41.136719 8.789062 41.363281 9.625 C 41.589844 10.460938 42.136719 11.175781 42.886719 11.609375 C 43.636719 12.039062 44.53125 12.164062 45.367188 11.9375 C 46.203125 11.710938 46.917969 11.164062 47.351562 10.414062 C 47.785156 9.664062 47.902344 8.773438 47.675781 7.9375 C 47.457031 7.097656 46.90625 6.386719 46.152344 5.957031 C 45.613281 5.636719 44.988281 5.488281 44.367188 5.515625 Z M 23.355469 10.621094 C 22.808594 10.621094 22.285156 10.835938 21.894531 11.226562 C 21.511719 11.613281 21.292969 12.136719 21.292969 12.679688 C 21.292969 13.820312 22.214844 14.738281 23.355469 14.738281 C 24.488281 14.738281 25.410156 13.8125 25.410156 12.679688 C 25.410156 11.550781 24.488281 10.625 23.355469 10.621094 Z M 28.539062 11.144531 C 28.0625 11.144531 27.605469 11.335938 27.265625 11.671875 C 26.929688 12.011719 26.738281 12.46875 26.742188 12.945312 C 26.742188 13.9375 27.550781 14.738281 28.539062 14.738281 C 29.53125 14.738281 30.335938 13.9375 30.335938 12.945312 C 30.335938 11.949219 29.53125 11.144531 28.539062 11.144531 Z M 17.328125 11.355469 C 16.6875 11.355469 16.066406 11.609375 15.613281 12.0625 C 15.160156 12.515625 14.902344 13.136719 14.902344 13.785156 C 14.902344 14.429688 15.160156 15.039062 15.613281 15.5 C 16.066406 15.949219 16.6875 16.207031 17.328125 16.207031 C 17.972656 16.207031 18.585938 15.949219 19.042969 15.5 C 19.5 15.039062 19.753906 14.429688 19.753906 13.785156 C 19.753906 13.136719 19.5 12.515625 19.042969 12.0625 C 18.585938 11.609375 17.972656 11.355469 17.328125 11.355469 Z M 32.8125 12.613281 C 31.945312 12.613281 31.246094 13.3125 31.246094 14.171875 C 31.242188 14.589844 31.410156 14.988281 31.703125 15.28125 C 31.996094 15.578125 32.394531 15.738281 32.8125 15.738281 C 33.671875 15.738281 34.367188 15.039062 34.367188 14.171875 C 34.363281 13.3125 33.671875 12.617188 32.8125 12.613281 Z M 45.265625 14.308594 C 44.320312 14.351562 43.457031 14.878906 42.984375 15.703125 C 42.207031 17.039062 42.671875 18.746094 44.003906 19.515625 C 45.335938 20.289062 47.042969 19.835938 47.820312 18.496094 C 48.1875 17.855469 48.292969 17.09375 48.097656 16.378906 C 47.90625 15.664062 47.441406 15.050781 46.800781 14.679688 C 46.335938 14.410156 45.800781 14.285156 45.265625 14.308594 Z M 36.058594 14.605469 C 35.699219 14.605469 35.351562 14.742188 35.09375 14.996094 C 34.839844 15.246094 34.699219 15.59375 34.699219 15.957031 C 34.699219 16.3125 34.839844 16.664062 35.09375 16.914062 C 35.351562 17.171875 35.691406 17.3125 36.058594 17.3125 C 36.414062 17.3125 36.761719 17.164062 37.011719 16.914062 C 37.269531 16.660156 37.410156 16.3125 37.40625 15.957031 C 37.40625 15.207031 36.800781 14.605469 36.058594 14.605469 Z M 52.367188 15.3125 C 51.421875 15.355469 50.558594 15.882812 50.082031 16.707031 C 49.3125 18.039062 49.769531 19.746094 51.109375 20.523438 C 51.746094 20.890625 52.511719 20.988281 53.226562 20.800781 C 53.941406 20.609375 54.554688 20.136719 54.921875 19.496094 C 55.691406 18.164062 55.234375 16.457031 53.894531 15.6875 C 53.4375 15.414062 52.90625 15.289062 52.367188 15.3125 Z M 24.292969 16.59375 C 23.160156 16.59375 22.234375 17.515625 22.238281 18.660156 C 22.238281 19.792969 23.160156 20.710938 24.292969 20.710938 C 25.433594 20.710938 26.355469 19.792969 26.355469 18.660156 C 26.355469 18.109375 26.136719 17.585938 25.753906 17.199219 C 25.363281 16.8125 24.835938 16.59375 24.292969 16.59375 Z M 38.460938 16.960938 C 38.164062 16.960938 37.867188 17.082031 37.660156 17.292969 C 37.441406 17.511719 37.320312 17.796875 37.320312 18.105469 C 37.320312 18.410156 37.441406 18.699219 37.660156 18.914062 C 37.867188 19.125 38.164062 19.246094 38.460938 19.246094 C 38.765625 19.246094 39.058594 19.125 39.273438 18.914062 C 39.488281 18.699219 39.609375 18.410156 39.609375 18.105469 C 39.609375 17.796875 39.488281 17.511719 39.273438 17.292969 C 39.058594 17.082031 38.765625 16.960938 38.460938 16.960938 Z M 29.476562 17.117188 C 28.488281 17.121094 27.6875 17.921875 27.6875 18.914062 C 27.6875 19.910156 28.488281 20.710938 29.476562 20.710938 C 30.472656 20.710938 31.273438 19.910156 31.273438 18.914062 C 31.28125 18.4375 31.089844 17.984375 30.753906 17.644531 C 30.414062 17.308594 29.957031 17.117188 29.476562 17.117188 Z M 18.273438 17.324219 C 17.632812 17.324219 17.011719 17.582031 16.554688 18.039062 C 16.097656 18.488281 15.839844 19.109375 15.839844 19.753906 C 15.839844 20.394531 16.097656 21.011719 16.554688 21.46875 C 17.011719 21.929688 17.632812 22.179688 18.273438 22.179688 C 18.914062 22.179688 19.53125 21.929688 19.988281 21.46875 C 20.441406 21.011719 20.699219 20.394531 20.699219 19.753906 C 20.699219 19.109375 20.441406 18.488281 19.988281 18.039062 C 19.53125 17.582031 18.914062 17.324219 18.273438 17.324219 Z M 33.746094 18.585938 C 32.886719 18.585938 32.1875 19.289062 32.1875 20.148438 C 32.1875 21.011719 32.886719 21.707031 33.746094 21.710938 C 34.164062 21.710938 34.558594 21.542969 34.855469 21.253906 C 35.148438 20.960938 35.3125 20.558594 35.3125 20.148438 C 35.3125 19.285156 34.613281 18.585938 33.746094 18.585938 Z M 11.671875 19.734375 C 10.132812 19.734375 8.878906 20.988281 8.878906 22.53125 C 8.878906 24.078125 10.132812 25.324219 11.671875 25.324219 C 13.214844 25.324219 14.460938 24.078125 14.460938 22.53125 C 14.460938 20.988281 13.214844 19.734375 11.671875 19.734375 Z M 36.996094 20.570312 C 36.246094 20.570312 35.644531 21.179688 35.644531 21.929688 C 35.644531 22.671875 36.246094 23.28125 36.996094 23.28125 C 37.742188 23.28125 38.347656 22.671875 38.347656 21.929688 C 38.347656 21.179688 37.742188 20.570312 36.996094 20.570312 Z M 44.386719 21.78125 C 43.5625 21.820312 42.8125 22.273438 42.402344 22.988281 C 42.082031 23.550781 41.988281 24.207031 42.164062 24.835938 C 42.324219 25.457031 42.734375 25.984375 43.292969 26.308594 C 44.457031 26.976562 45.9375 26.578125 46.605469 25.414062 C 47.273438 24.257812 46.878906 22.773438 45.71875 22.105469 C 45.3125 21.867188 44.855469 21.757812 44.386719 21.78125 Z M 51.488281 22.78125 C 50.664062 22.820312 49.917969 23.273438 49.503906 23.988281 C 49.1875 24.550781 49.09375 25.210938 49.261719 25.835938 C 49.429688 26.457031 49.835938 26.988281 50.390625 27.3125 C 50.949219 27.632812 51.617188 27.714844 52.234375 27.550781 C 52.855469 27.382812 53.390625 26.976562 53.710938 26.417969 C 54.378906 25.257812 53.984375 23.773438 52.820312 23.105469 C 52.417969 22.867188 51.957031 22.761719 51.488281 22.78125 Z M 26.984375 23.246094 C 25.839844 23.246094 24.917969 24.164062 24.917969 25.308594 C 24.917969 25.851562 25.136719 26.375 25.523438 26.761719 C 25.910156 27.148438 26.433594 27.367188 26.984375 27.367188 C 27.527344 27.367188 28.050781 27.148438 28.4375 26.761719 C 28.824219 26.375 29.039062 25.851562 29.039062 25.308594 C 29.039062 24.164062 28.117188 23.246094 26.984375 23.246094 Z M 32.164062 23.765625 C 31.6875 23.765625 31.230469 23.957031 30.890625 24.296875 C 30.554688 24.632812 30.367188 25.089844 30.367188 25.566406 C 30.367188 26.042969 30.554688 26.503906 30.890625 26.835938 C 31.230469 27.175781 31.6875 27.367188 32.164062 27.367188 C 33.160156 27.363281 33.960938 26.558594 33.960938 25.566406 C 33.960938 24.578125 33.160156 23.769531 32.164062 23.765625 Z M 20.957031 23.984375 C 20.3125 23.984375 19.6875 24.238281 19.238281 24.6875 C 18.78125 25.148438 18.527344 25.761719 18.527344 26.40625 C 18.527344 27.050781 18.78125 27.664062 19.238281 28.121094 C 19.6875 28.578125 20.3125 28.835938 20.957031 28.835938 C 21.597656 28.835938 22.210938 28.578125 22.671875 28.121094 C 23.121094 27.664062 23.378906 27.050781 23.378906 26.40625 C 23.378906 25.761719 23.121094 25.148438 22.671875 24.6875 C 22.210938 24.238281 21.597656 23.984375 20.957031 23.984375 Z M 57.136719 24.949219 C 56.3125 24.988281 55.558594 25.445312 55.148438 26.164062 C 54.824219 26.714844 54.734375 27.382812 54.90625 28.003906 C 55.070312 28.625 55.476562 29.160156 56.039062 29.476562 C 57.199219 30.144531 58.679688 29.746094 59.351562 28.589844 C 60.015625 27.429688 59.621094 25.945312 58.460938 25.273438 C 58.058594 25.042969 57.597656 24.929688 57.136719 24.949219 Z M 36.4375 25.238281 C 36.015625 25.238281 35.621094 25.402344 35.328125 25.691406 C 35.039062 25.988281 34.867188 26.386719 34.867188 26.800781 C 34.867188 27.664062 35.570312 28.363281 36.4375 28.363281 C 37.296875 28.363281 37.988281 27.664062 37.996094 26.800781 C 37.996094 25.9375 37.296875 25.238281 36.4375 25.238281 Z M 14.351562 26.386719 C 12.8125 26.386719 11.5625 27.636719 11.5625 29.179688 C 11.5625 30.726562 12.8125 31.976562 14.351562 31.976562 C 15.894531 31.976562 17.144531 30.726562 17.144531 29.179688 C 17.144531 27.636719 15.894531 26.386719 14.351562 26.386719 Z M 42.347656 27.914062 C 41.648438 27.945312 41.011719 28.335938 40.660156 28.941406 C 40.089844 29.929688 40.433594 31.1875 41.414062 31.753906 C 42.402344 32.320312 43.660156 31.984375 44.230469 31 C 44.796875 30.011719 44.460938 28.757812 43.476562 28.1875 C 43.136719 27.988281 42.742188 27.890625 42.347656 27.914062 Z M 49.449219 28.914062 C 48.746094 28.949219 48.113281 29.335938 47.765625 29.945312 C 47.199219 30.929688 47.53125 32.1875 48.511719 32.757812 C 48.988281 33.03125 49.554688 33.105469 50.082031 32.960938 C 50.609375 32.820312 51.058594 32.472656 51.335938 32 C 51.902344 31.015625 51.5625 29.757812 50.578125 29.1875 C 50.234375 28.988281 49.839844 28.894531 49.449219 28.914062 Z M 27.238281 30.550781 C 26.976562 30.554688 26.71875 30.632812 26.488281 30.761719 C 25.742188 31.191406 25.488281 32.148438 25.921875 32.894531 C 26.355469 33.644531 27.3125 33.894531 28.054688 33.46875 C 28.800781 33.039062 29.058594 32.078125 28.625 31.335938 C 28.339844 30.835938 27.8125 30.539062 27.238281 30.550781 Z M 7.585938 30.835938 C 6.71875 30.835938 5.890625 31.1875 5.28125 31.796875 C 4.664062 32.410156 4.324219 33.238281 4.324219 34.105469 C 4.324219 35.90625 5.785156 37.367188 7.585938 37.367188 C 8.457031 37.367188 9.285156 37.027344 9.894531 36.414062 C 10.511719 35.800781 10.855469 34.972656 10.855469 34.105469 C 10.855469 33.238281 10.511719 32.410156 9.894531 31.792969 C 9.285156 31.179688 8.457031 30.835938 7.585938 30.835938 Z M 55.089844 31.082031 C 54.390625 31.117188 53.757812 31.503906 53.40625 32.113281 C 52.835938 33.09375 53.175781 34.355469 54.164062 34.929688 C 55.148438 35.496094 56.402344 35.152344 56.972656 34.171875 C 57.539062 33.1875 57.207031 31.929688 56.226562 31.355469 C 55.882812 31.160156 55.488281 31.066406 55.089844 31.082031 Z M 39.539062 32.53125 C 38.929688 32.5625 38.375 32.902344 38.066406 33.433594 C 37.828125 33.839844 37.761719 34.335938 37.886719 34.796875 C 38.011719 35.257812 38.3125 35.648438 38.726562 35.886719 C 39.136719 36.125 39.632812 36.191406 40.089844 36.066406 C 40.550781 35.945312 40.945312 35.644531 41.1875 35.230469 C 41.421875 34.8125 41.488281 34.324219 41.363281 33.863281 C 41.238281 33.40625 40.941406 33.011719 40.523438 32.769531 C 40.226562 32.597656 39.882812 32.511719 39.539062 32.53125 Z M 22.746094 32.707031 C 22.515625 32.710938 22.292969 32.773438 22.097656 32.886719 C 21.789062 33.066406 21.558594 33.363281 21.460938 33.707031 C 21.375 34.058594 21.421875 34.421875 21.605469 34.734375 C 21.785156 35.050781 22.078125 35.273438 22.429688 35.363281 C 22.773438 35.460938 23.144531 35.410156 23.457031 35.230469 C 24.097656 34.855469 24.320312 34.03125 23.945312 33.382812 C 23.703125 32.957031 23.238281 32.691406 22.746094 32.707031 Z M 46.644531 33.539062 C 46.03125 33.566406 45.476562 33.902344 45.175781 34.433594 C 44.933594 34.839844 44.867188 35.335938 44.988281 35.796875 C 45.113281 36.257812 45.414062 36.652344 45.828125 36.890625 C 46.238281 37.132812 46.730469 37.191406 47.191406 37.070312 C 47.652344 36.945312 48.042969 36.644531 48.285156 36.230469 C 48.78125 35.375 48.488281 34.273438 47.625 33.78125 C 47.328125 33.605469 46.988281 33.523438 46.644531 33.539062 Z M 18.703125 33.558594 C 18.511719 33.5625 18.324219 33.617188 18.160156 33.710938 C 17.613281 34.027344 17.421875 34.726562 17.738281 35.273438 C 17.890625 35.539062 18.136719 35.730469 18.4375 35.808594 C 18.730469 35.882812 19.039062 35.839844 19.300781 35.6875 C 19.566406 35.539062 19.757812 35.289062 19.835938 34.996094 C 19.914062 34.703125 19.867188 34.390625 19.71875 34.125 C 19.511719 33.765625 19.121094 33.542969 18.703125 33.558594 Z M 28.308594 34.632812 C 28 34.636719 27.707031 34.714844 27.445312 34.867188 C 27.03125 35.109375 26.730469 35.5 26.609375 35.960938 C 26.484375 36.421875 26.550781 36.914062 26.789062 37.328125 C 27.027344 37.738281 27.417969 38.039062 27.878906 38.164062 C 28.335938 38.285156 28.835938 38.21875 29.242188 37.984375 C 30.105469 37.484375 30.394531 36.386719 29.90625 35.527344 C 29.578125 34.960938 28.960938 34.613281 28.308594 34.632812 Z M 52.285156 35.707031 C 51.675781 35.734375 51.121094 36.070312 50.8125 36.597656 C 50.570312 37.015625 50.511719 37.511719 50.632812 37.96875 C 50.757812 38.429688 51.058594 38.820312 51.46875 39.058594 C 51.882812 39.296875 52.378906 39.363281 52.835938 39.238281 C 53.296875 39.117188 53.6875 38.8125 53.929688 38.402344 C 54.421875 37.539062 54.132812 36.441406 53.269531 35.945312 C 52.972656 35.773438 52.632812 35.6875 52.285156 35.707031 Z M 36.347656 35.851562 C 35.8125 35.875 35.335938 36.171875 35.066406 36.632812 C 34.863281 36.988281 34.808594 37.417969 34.914062 37.820312 C 35.023438 38.21875 35.289062 38.558594 35.644531 38.765625 C 36.003906 38.972656 36.429688 39.03125 36.828125 38.921875 C 37.230469 38.8125 37.566406 38.554688 37.78125 38.191406 C 37.988281 37.835938 38.039062 37.40625 37.933594 37.003906 C 37.824219 36.609375 37.5625 36.265625 37.203125 36.058594 C 36.941406 35.910156 36.648438 35.835938 36.347656 35.851562 Z M 22.820312 36.199219 C 22.558594 36.207031 22.300781 36.28125 22.078125 36.40625 C 21.328125 36.835938 21.070312 37.796875 21.503906 38.539062 C 21.9375 39.289062 22.890625 39.542969 23.636719 39.113281 C 24.386719 38.679688 24.636719 37.726562 24.207031 36.976562 C 23.921875 36.488281 23.390625 36.1875 22.820312 36.199219 Z M 18.042969 36.511719 C 17.8125 36.511719 17.597656 36.578125 17.402344 36.6875 C 17.089844 36.867188 16.863281 37.164062 16.765625 37.511719 C 16.675781 37.863281 16.726562 38.226562 16.902344 38.539062 C 17.082031 38.851562 17.378906 39.078125 17.726562 39.164062 C 18.070312 39.261719 18.441406 39.210938 18.753906 39.03125 C 19.0625 38.851562 19.289062 38.554688 19.382812 38.210938 C 19.476562 37.863281 19.421875 37.496094 19.242188 37.179688 C 19 36.757812 18.539062 36.496094 18.042969 36.511719 Z M 43.457031 36.851562 C 42.921875 36.878906 42.441406 37.171875 42.175781 37.636719 C 41.742188 38.382812 42 39.335938 42.742188 39.769531 C 43.105469 39.972656 43.53125 40.03125 43.933594 39.921875 C 44.328125 39.8125 44.671875 39.554688 44.878906 39.191406 C 45.3125 38.449219 45.054688 37.496094 44.3125 37.0625 C 44.050781 36.910156 43.753906 36.835938 43.457031 36.851562 Z M 30.664062 38.988281 C 30.3125 38.996094 29.976562 39.089844 29.679688 39.265625 C 28.699219 39.835938 28.363281 41.089844 28.929688 42.078125 C 29.496094 43.058594 30.757812 43.402344 31.738281 42.835938 C 32.214844 42.558594 32.558594 42.109375 32.703125 41.582031 C 32.839844 41.050781 32.769531 40.488281 32.496094 40.011719 C 32.117188 39.363281 31.414062 38.96875 30.664062 38.988281 Z M 40.296875 38.988281 C 39.835938 39.011719 39.417969 39.261719 39.1875 39.660156 C 39.011719 39.96875 38.960938 40.339844 39.054688 40.6875 C 39.148438 41.039062 39.375 41.328125 39.6875 41.511719 C 40.335938 41.878906 41.160156 41.660156 41.53125 41.011719 C 41.710938 40.703125 41.761719 40.335938 41.671875 39.988281 C 41.578125 39.636719 41.347656 39.339844 41.039062 39.164062 C 40.8125 39.039062 40.554688 38.972656 40.296875 38.988281 Z M 49.09375 39.023438 C 48.5625 39.042969 48.082031 39.339844 47.8125 39.808594 C 47.609375 40.164062 47.554688 40.589844 47.664062 40.988281 C 47.769531 41.386719 48.03125 41.730469 48.386719 41.9375 C 48.746094 42.144531 49.175781 42.203125 49.570312 42.09375 C 49.976562 41.984375 50.320312 41.71875 50.523438 41.363281 C 50.730469 41.003906 50.785156 40.582031 50.675781 40.179688 C 50.570312 39.773438 50.308594 39.433594 49.949219 39.230469 C 49.691406 39.082031 49.394531 39.011719 49.09375 39.023438 Z M 18.121094 40 C 17.863281 40.011719 17.605469 40.082031 17.378906 40.210938 C 17.015625 40.417969 16.757812 40.761719 16.648438 41.164062 C 16.539062 41.558594 16.59375 41.988281 16.800781 42.347656 C 17.234375 43.089844 18.1875 43.347656 18.9375 42.917969 C 19.296875 42.710938 19.558594 42.367188 19.664062 41.96875 C 19.773438 41.566406 19.71875 41.136719 19.511719 40.78125 C 19.226562 40.289062 18.691406 39.988281 18.121094 40 Z M 23.882812 40.28125 C 23.582031 40.285156 23.285156 40.363281 23.027344 40.515625 C 22.613281 40.757812 22.3125 41.148438 22.1875 41.609375 C 22.0625 42.070312 22.125 42.5625 22.363281 42.972656 C 22.605469 43.386719 23 43.6875 23.460938 43.8125 C 23.921875 43.9375 24.414062 43.875 24.824219 43.636719 C 25.238281 43.394531 25.539062 43 25.664062 42.539062 C 25.789062 42.082031 25.71875 41.589844 25.488281 41.175781 C 25.152344 40.605469 24.539062 40.261719 23.882812 40.28125 Z M 45.9375 41.152344 C 45.476562 41.179688 45.0625 41.433594 44.835938 41.828125 C 44.652344 42.136719 44.605469 42.511719 44.699219 42.855469 C 44.789062 43.203125 45.011719 43.5 45.324219 43.679688 C 45.636719 43.863281 46.011719 43.90625 46.351562 43.8125 C 46.699219 43.71875 46.996094 43.488281 47.175781 43.179688 C 47.355469 42.867188 47.40625 42.503906 47.3125 42.152344 C 47.214844 41.808594 46.996094 41.511719 46.679688 41.335938 C 46.457031 41.203125 46.199219 41.144531 45.9375 41.152344 Z M 42.882812 42.378906 C 42.496094 42.394531 42.144531 42.609375 41.945312 42.945312 C 41.632812 43.488281 41.820312 44.1875 42.367188 44.503906 C 42.632812 44.664062 42.941406 44.703125 43.234375 44.621094 C 43.53125 44.542969 43.78125 44.355469 43.933594 44.089844 C 44.085938 43.828125 44.125 43.515625 44.042969 43.21875 C 43.96875 42.929688 43.773438 42.679688 43.511719 42.527344 C 43.320312 42.414062 43.105469 42.363281 42.882812 42.378906 Z M 34.617188 43.285156 C 34.214844 43.296875 33.8125 43.410156 33.460938 43.613281 C 32.308594 44.285156 31.902344 45.765625 32.570312 46.929688 C 32.894531 47.488281 33.421875 47.890625 34.050781 48.058594 C 34.671875 48.230469 35.335938 48.136719 35.890625 47.8125 C 36.449219 47.496094 36.855469 46.960938 37.015625 46.339844 C 37.1875 45.71875 37.097656 45.054688 36.78125 44.5 C 36.335938 43.730469 35.511719 43.265625 34.617188 43.285156 Z M 19.1875 44.082031 C 18.882812 44.085938 18.585938 44.164062 18.324219 44.320312 C 17.914062 44.558594 17.609375 44.949219 17.488281 45.414062 C 17.363281 45.875 17.429688 46.363281 17.664062 46.773438 C 17.90625 47.1875 18.296875 47.488281 18.761719 47.617188 C 19.21875 47.738281 19.710938 47.675781 20.121094 47.4375 C 20.539062 47.199219 20.835938 46.800781 20.960938 46.339844 C 21.089844 45.882812 21.023438 45.390625 20.785156 44.976562 C 20.457031 44.410156 19.839844 44.0625 19.1875 44.082031 Z M 26.242188 44.636719 C 25.894531 44.644531 25.558594 44.742188 25.261719 44.910156 C 24.789062 45.1875 24.441406 45.636719 24.300781 46.164062 C 24.164062 46.691406 24.234375 47.257812 24.511719 47.730469 C 25.078125 48.710938 26.335938 49.050781 27.324219 48.484375 C 28.308594 47.910156 28.644531 46.648438 28.078125 45.664062 C 27.699219 45.011719 26.996094 44.621094 26.242188 44.636719 Z M 40.3125 47.246094 C 39.847656 47.261719 39.386719 47.386719 38.988281 47.621094 C 38.339844 47.988281 37.875 48.605469 37.679688 49.320312 C 37.488281 50.039062 37.585938 50.796875 37.960938 51.4375 C 38.328125 52.082031 38.941406 52.550781 39.660156 52.738281 C 40.375 52.933594 41.136719 52.835938 41.773438 52.460938 C 43.113281 51.6875 43.566406 49.984375 42.796875 48.648438 C 42.289062 47.761719 41.335938 47.226562 40.3125 47.246094 Z M 21.539062 48.4375 C 21.199219 48.445312 20.863281 48.539062 20.558594 48.714844 C 19.578125 49.285156 19.242188 50.539062 19.8125 51.527344 C 20.378906 52.511719 21.636719 52.851562 22.621094 52.285156 C 23.609375 51.714844 23.941406 50.457031 23.375 49.46875 C 23 48.8125 22.296875 48.417969 21.539062 48.4375 Z M 30.203125 48.9375 C 29.792969 48.945312 29.394531 49.058594 29.039062 49.261719 C 27.882812 49.933594 27.488281 51.414062 28.152344 52.578125 C 28.472656 53.136719 29.011719 53.539062 29.625 53.707031 C 30.246094 53.875 30.914062 53.789062 31.46875 53.460938 C 32.027344 53.144531 32.4375 52.613281 32.605469 51.988281 C 32.765625 51.367188 32.679688 50.707031 32.355469 50.148438 C 31.914062 49.378906 31.085938 48.917969 30.203125 48.9375 Z M 47.945312 50.175781 C 47.402344 50.1875 46.863281 50.339844 46.394531 50.617188 C 44.835938 51.511719 44.296875 53.511719 45.199219 55.070312 C 46.097656 56.632812 48.097656 57.164062 49.660156 56.265625 C 51.214844 55.363281 51.753906 53.367188 50.851562 51.8125 C 50.257812 50.773438 49.136719 50.148438 47.945312 50.175781 Z M 25.5 52.738281 C 25.09375 52.746094 24.699219 52.863281 24.339844 53.0625 C 23.179688 53.734375 22.785156 55.214844 23.457031 56.378906 C 23.773438 56.9375 24.308594 57.339844 24.929688 57.511719 C 25.550781 57.675781 26.210938 57.589844 26.773438 57.265625 C 27.328125 56.945312 27.734375 56.417969 27.902344 55.792969 C 28.066406 55.171875 27.984375 54.511719 27.660156 53.949219 C 27.210938 53.179688 26.386719 52.71875 25.5 52.738281 Z M 35.894531 52.894531 C 35.429688 52.910156 34.96875 53.039062 34.566406 53.269531 C 33.230469 54.042969 32.769531 55.746094 33.539062 57.089844 C 33.910156 57.730469 34.523438 58.199219 35.238281 58.390625 C 35.957031 58.582031 36.714844 58.484375 37.363281 58.113281 C 38 57.742188 38.46875 57.132812 38.660156 56.414062 C 38.851562 55.699219 38.746094 54.9375 38.378906 54.292969 C 37.867188 53.410156 36.914062 52.875 35.894531 52.894531 Z M 35.894531 52.894531 "/>
</g>
</svg>
