<svg xmlns="http://www.w3.org/2000/svg" xmlns:xlink="http://www.w3.org/1999/xlink" width="64px" height="64px" viewBox="0 0 64 64" version="1.1">
<defs>
<linearGradient id="linear0" gradientUnits="userSpaceOnUse" x1="0" y1="0" x2="0" y2="1" gradientTransform="matrix(43.53153,0,0,55.351351,10.234234,4.324324)">
<stop offset="0" style="stop-color:#00a2ff;stop-opacity:1;"/>
<stop offset="0.5" style="stop-color:#dddddd;stop-opacity:1;"/>
<stop offset="1" style="stop-color:#00ffae;stop-opacity:1;"/>
</linearGradient>
</defs>
<g id="surface1">
<path style=" stroke:none;fill-rule:nonzero;fill:url(#linear0);" d="M 10.28125 4.324219 C 12.257812 7.058594 13.265625 9.96875 10.28125 14.207031 C 9.960938 17.917969 11.261719 20.078125 15.703125 19.996094 C 16.753906 19.929688 18.417969 19.71875 19.296875 18.890625 C 20.6875 17.1875 20.148438 16.300781 19.570312 16.179688 C 18.976562 16.011719 17.539062 16.894531 18.921875 17.558594 C 19.210938 18.746094 15.890625 18.621094 15.28125 17.621094 C 12.976562 13.496094 19.109375 10.527344 26.089844 13.21875 C 27.523438 24.488281 29.144531 38.835938 27.390625 52.246094 C 26.246094 54.910156 25.011719 56.511719 22.136719 57.699219 L 22.136719 59.675781 C 26.089844 57.699219 35.972656 57.699219 41.910156 57.699219 L 41.910156 55.71875 C 39.347656 55.261719 37.320312 52.886719 37.015625 50.496094 C 36.023438 37.207031 35.300781 27.472656 37.957031 14.207031 L 47.773438 14.207031 C 49 14.234375 49.5 15.253906 49.8125 18.164062 L 53.765625 18.164062 C 52.386719 14.867188 51.792969 12.234375 51.792969 8.28125 C 37.023438 10.5625 26.246094 8.53125 10.28125 4.324219 Z M 10.28125 4.324219 "/>
</g>
</svg>
