<svg xmlns="http://www.w3.org/2000/svg" xmlns:xlink="http://www.w3.org/1999/xlink" width="64px" height="64px" viewBox="0 0 64 64" version="1.1">
<defs>
<linearGradient id="linear0" gradientUnits="userSpaceOnUse" x1="0" y1="0" x2="0" y2="1" gradientTransform="matrix(54.819821,0,0,55.351351,4.59009,4.324324)">
<stop offset="0" style="stop-color:#ffae00;stop-opacity:1;"/>
<stop offset="0.5" style="stop-color:#dddddd;stop-opacity:1;"/>
<stop offset="1" style="stop-color:#bf1d1d;stop-opacity:1;"/>
</linearGradient>
</defs>
<g id="surface1">
<path style=" stroke:none;fill-rule:evenodd;fill:url(#linear0);" d="M 32.570312 59.675781 C 24.113281 59.675781 17.335938 57.320312 12.234375 52.605469 C 7.136719 47.890625 4.589844 41.328125 4.589844 32.917969 C 4.589844 24.664062 7.339844 17.835938 12.847656 12.429688 C 18.351562 7.027344 25.160156 4.324219 33.261719 4.324219 C 41.058594 4.324219 47.363281 6.527344 52.1875 10.9375 C 57 15.347656 59.410156 20.789062 59.410156 27.261719 C 59.410156 32.867188 57.855469 37.503906 54.746094 41.175781 C 51.636719 44.839844 47.761719 46.679688 43.121094 46.679688 C 41.847656 46.679688 40.605469 46.347656 39.378906 45.6875 C 38.152344 45.023438 37.335938 44.03125 36.929688 42.703125 C 35.351562 45.351562 32.828125 46.679688 29.363281 46.679688 C 26.097656 46.679688 23.449219 45.484375 21.410156 43.085938 C 19.375 40.6875 18.351562 37.53125 18.351562 33.605469 C 18.351562 29.527344 19.6875 25.867188 22.363281 22.636719 C 25.042969 19.402344 28.445312 17.785156 32.570312 17.785156 C 35.582031 17.785156 37.671875 18.824219 38.839844 20.914062 L 39.226562 18.773438 L 46.792969 18.773438 L 44.269531 32.378906 C 43.609375 35.691406 43.28125 37.734375 43.28125 38.496094 C 43.28125 39.363281 43.710938 39.796875 44.578125 39.796875 C 46.511719 39.796875 48.21875 38.664062 49.699219 36.394531 C 51.175781 34.125 51.914062 31.132812 51.914062 27.414062 C 51.914062 22.878906 50.363281 19.144531 47.253906 16.210938 C 44.144531 13.285156 39.609375 11.8125 33.644531 11.8125 C 27.421875 11.8125 22.355469 13.808594 18.429688 17.785156 C 14.503906 21.757812 12.542969 26.824219 12.542969 32.988281 C 12.542969 39.109375 14.363281 43.835938 18.011719 47.175781 C 21.652344 50.511719 26.609375 52.1875 32.878906 52.1875 C 35.886719 52.1875 39.378906 51.699219 43.355469 50.730469 L 41.136719 59.0625 C 37.976562 59.472656 35.121094 59.675781 32.570312 59.675781 Z M 30.28125 39.1875 C 32.214844 39.1875 33.796875 38.292969 35.015625 36.511719 C 36.242188 34.726562 36.855469 32.761719 36.855469 30.621094 C 36.855469 28.941406 36.496094 27.632812 35.785156 26.6875 C 35.070312 25.742188 34.054688 25.269531 32.726562 25.269531 C 30.789062 25.269531 29.207031 26.097656 27.988281 27.757812 C 26.761719 29.414062 26.148438 31.414062 26.148438 33.757812 C 26.148438 35.386719 26.515625 36.699219 27.261719 37.691406 C 28 38.6875 29.003906 39.1875 30.28125 39.1875 Z M 30.28125 39.1875 "/>
</g>
</svg>
