<svg xmlns="http://www.w3.org/2000/svg" xmlns:xlink="http://www.w3.org/1999/xlink" width="64px" height="64px" viewBox="0 0 64 64" version="1.1">
<defs>
<linearGradient id="linear0" gradientUnits="userSpaceOnUse" x1="0" y1="0" x2="0" y2="1" gradientTransform="matrix(46.797297,0,0,55.351351,8.603604,4.324324)">
<stop offset="0" style="stop-color:#00b7ff;stop-opacity:1;"/>
<stop offset="0.5" style="stop-color:#dddddd;stop-opacity:1;"/>
<stop offset="1" style="stop-color:#ee42d9;stop-opacity:1;"/>
</linearGradient>
</defs>
<g id="surface1">
<path style=" stroke:none;fill-rule:nonzero;fill:url(#linear0);" d="M 31.394531 4.324219 C 25.824219 4.324219 23 8.363281 23 16.324219 L 23 22.324219 C 23 22.769531 22.878906 23.296875 22.664062 23.726562 C 22.597656 23.875 22.257812 24.351562 21.960938 24.765625 C 20.289062 27.105469 16.605469 33.554688 15.917969 40.566406 C 16.1875 40.511719 16.457031 40.476562 16.761719 40.476562 C 17.496094 40.476562 19.4375 40.476562 22.53125 45.578125 C 23.121094 46.429688 23.433594 46.949219 23.855469 47.664062 C 24.144531 48.148438 24.488281 48.742188 25.058594 49.636719 L 25.085938 49.679688 L 25.117188 49.734375 C 25.445312 50.308594 25.78125 50.765625 26.109375 51.203125 C 26.296875 51.457031 26.488281 51.71875 26.675781 51.988281 C 27.410156 51.699219 28.164062 51.257812 28.609375 50.617188 C 29.1875 49.644531 29.125 48.488281 28.433594 47.445312 C 28.144531 47.011719 27.617188 46.699219 26.351562 45.972656 C 25.59375 45.539062 24.648438 45 24.21875 44.636719 C 23.210938 43.773438 21.796875 41.890625 21.796875 40.402344 C 21.796875 37.210938 23.933594 32.351562 25.636719 29.46875 C 26.625 27.824219 27.367188 26.550781 27.664062 25.472656 C 27.835938 25.585938 28.023438 25.699219 28.28125 25.789062 L 28.324219 25.808594 L 28.367188 25.820312 C 29.203125 26.039062 30.042969 26 30.589844 26 C 31.71875 26 32.53125 25.457031 33.292969 25 C 34.039062 24.550781 34.773438 24.125 34.882812 24.089844 C 35.421875 25.117188 36.132812 26.066406 36.863281 27.058594 C 38.863281 29.757812 41.28125 34.296875 41.988281 41.042969 C 42.921875 40.550781 43.457031 40.402344 44.597656 40.402344 C 44.621094 40.402344 44.652344 40.40625 44.675781 40.40625 C 44.773438 40.402344 44.875 40.386719 44.984375 40.386719 C 45.28125 40.386719 45.582031 40.410156 45.882812 40.4375 C 46.589844 40.476562 47.539062 40.726562 48.097656 40.914062 C 49.039062 41.191406 49.808594 41.6875 50.351562 42.3125 C 50.835938 42.3125 51.308594 42.433594 51.738281 42.636719 C 51.738281 41.863281 51.796875 40.707031 51.796875 40.402344 C 51.796875 36.4375 49.203125 30.972656 47.246094 28.171875 C 46.839844 27.589844 46.457031 27.042969 46.082031 26.523438 C 44.351562 24.132812 42.984375 22.234375 42.199219 18.972656 C 41.6875 16.855469 41.613281 16.199219 41.542969 15.566406 C 41.476562 14.929688 41.402344 14.261719 40.972656 12.472656 C 40.199219 8.839844 39.238281 4.324219 31.394531 4.324219 Z M 27.800781 11.527344 C 29.125 11.527344 30.203125 13.9375 30.203125 15.933594 C 30.203125 16.054688 30.1875 16.246094 30.175781 16.417969 C 30.085938 16.414062 29.996094 16.402344 29.90625 16.402344 C 29.5625 16.402344 29.242188 16.457031 28.9375 16.53125 C 28.792969 15.769531 28.355469 15.203125 27.800781 15.203125 C 27.136719 15.203125 26.597656 16.011719 26.597656 17 C 26.597656 17.242188 26.632812 17.472656 26.691406 17.6875 C 26.367188 17.929688 26.121094 18.136719 25.976562 18.28125 L 25.863281 18.378906 C 25.773438 18.1875 25.699219 17.988281 25.636719 17.789062 C 25.496094 16.945312 25.402344 15.933594 25.402344 15.933594 C 25.402344 13.941406 26.472656 11.527344 27.800781 11.527344 Z M 33.796875 11.527344 C 35.125 11.527344 36.199219 13.9375 36.199219 15.933594 C 36.199219 16.671875 36.039062 17.542969 35.78125 18.230469 C 35.46875 18.09375 35.144531 17.988281 34.8125 17.90625 C 34.917969 17.636719 35 17.335938 35 17 C 35 16.011719 34.460938 15.203125 33.796875 15.203125 C 33.136719 15.203125 32.597656 16.011719 32.597656 17 L 32.597656 17.011719 C 32.21875 16.855469 31.835938 16.726562 31.4375 16.617188 C 31.414062 16.390625 31.40625 16.164062 31.394531 15.933594 C 31.394531 13.9375 32.472656 11.527344 33.796875 11.527344 Z M 29.90625 18.796875 C 30.390625 18.796875 31.097656 18.988281 31.746094 19.257812 C 32.394531 19.515625 32.941406 19.808594 33.402344 20 L 33.496094 20.039062 L 33.589844 20.0625 C 34.203125 20.207031 34.753906 20.363281 34.972656 20.476562 C 34.914062 20.988281 34.855469 21.273438 34.824219 21.3125 C 34.792969 21.367188 34.621094 21.527344 34.011719 21.855469 C 33.253906 22.125 32.675781 22.566406 32.054688 22.941406 C 31.375 23.351562 30.6875 23.597656 30.589844 23.597656 C 30.0625 23.597656 29.335938 23.5625 29.042969 23.5 C 29.160156 23.539062 28.960938 23.433594 28.710938 23.207031 C 28.445312 22.957031 28.117188 22.609375 27.773438 22.246094 L 27.6875 22.160156 L 27.59375 22.089844 C 27.207031 21.820312 26.910156 21.570312 26.761719 21.402344 C 26.613281 21.226562 26.597656 21.171875 26.597656 21.054688 C 26.597656 20.875 26.566406 20.988281 26.675781 20.863281 C 26.785156 20.734375 27.113281 20.476562 27.554688 20.085938 L 27.59375 20.050781 L 27.636719 20.011719 C 27.570312 20.078125 28.003906 19.652344 28.476562 19.339844 C 28.949219 19.039062 29.539062 18.796875 29.90625 18.796875 Z M 44.984375 42.792969 C 43.863281 42.792969 43.082031 43.132812 42.867188 43.394531 C 43.355469 43.960938 43.660156 44.503906 43.96875 45.488281 C 44.296875 46.214844 45.132812 46.402344 45.800781 46.402344 C 47.835938 46.402344 48.230469 45.175781 48.875 44.488281 C 48.875 44.488281 48.703125 44.296875 48.703125 44.117188 C 48.53125 43.753906 48.039062 43.382812 47.367188 43.203125 C 46.867188 43.023438 46.039062 42.835938 45.699219 42.835938 C 45.460938 42.808594 45.21875 42.792969 44.984375 42.792969 Z M 16.761719 42.875 C 15.921875 42.875 15.511719 43.289062 14.957031 43.847656 C 14.394531 44.402344 13.808594 45.261719 12.835938 45.957031 C 11.976562 47.066406 9.410156 45.996094 8.675781 47.675781 C 8.269531 48.59375 9.671875 49.800781 9.671875 51.878906 C 9.671875 52.714844 8.96875 53.269531 8.835938 53.824219 C 8.691406 54.511719 8.550781 54.929688 8.835938 55.484375 C 9.386719 56.3125 10.085938 56.59375 14.8125 57.558594 C 17.320312 58.117188 19.6875 59.503906 21.210938 59.636719 C 22.742188 59.773438 25.386719 59.636719 25.386719 55.902344 C 25.523438 53.6875 24.273438 53.132812 23.023438 50.914062 C 21.632812 48.691406 21.496094 48.28125 20.523438 46.890625 C 19.6875 45.503906 17.875 42.878906 16.761719 42.878906 Z M 41.285156 45.269531 C 41 45.828125 41 46.261719 41 47.675781 C 41 48.8125 41 50.082031 40.863281 51.082031 C 40.570312 53.488281 39.800781 54.566406 39.800781 55.988281 C 39.800781 57.550781 40.226562 58.539062 40.792969 58.96875 C 41.214844 59.390625 41.929688 59.675781 43.488281 59.675781 C 45.042969 59.675781 46.039062 59.109375 47.03125 58.117188 C 47.738281 57.40625 48.308594 57.125 50.296875 55.703125 C 51.851562 54.710938 54.265625 53.4375 54.6875 53.011719 C 54.972656 52.730469 55.402344 52.585938 55.402344 51.730469 C 55.402344 51.023438 54.835938 50.738281 54.40625 50.605469 C 53.835938 50.3125 52.851562 49.886719 51.996094 48.613281 C 51.625 48 51.679688 46.417969 51.238281 45.460938 L 50.621094 46.117188 C 50.554688 46.191406 50.488281 46.292969 50.421875 46.382812 C 49.839844 47.171875 48.632812 48.796875 45.800781 48.796875 C 43.941406 48.796875 42.445312 47.933594 41.785156 46.472656 L 41.71875 46.339844 L 41.671875 46.199219 C 41.523438 45.71875 41.402344 45.460938 41.285156 45.269531 Z M 38.003906 52.941406 C 36.863281 53.921875 35.113281 54.875 32.597656 54.875 C 30.042969 54.875 28.320312 53.933594 27.21875 52.96875 C 27.605469 53.761719 27.855469 54.710938 27.789062 55.976562 C 27.789062 56.433594 27.742188 56.863281 27.675781 57.273438 L 37.496094 57.273438 C 37.4375 56.851562 37.40625 56.417969 37.402344 55.988281 C 37.402344 54.929688 37.664062 54.0625 37.917969 53.226562 C 37.945312 53.136719 37.972656 53.03125 38.003906 52.9375 Z M 38.003906 52.941406 "/>
</g>
</svg>
