<svg xmlns="http://www.w3.org/2000/svg" xmlns:xlink="http://www.w3.org/1999/xlink" width="64px" height="64px" viewBox="0 0 64 64" version="1.1">
<defs>
<linearGradient id="linear0" gradientUnits="userSpaceOnUse" x1="0" y1="0" x2="0" y2="1" gradientTransform="matrix(55.351351,0,0,55.351351,4.324324,4.324324)">
<stop offset="0" style="stop-color:#00fff2;stop-opacity:1;"/>
<stop offset="0.5" style="stop-color:#dddddd;stop-opacity:1;"/>
<stop offset="1" style="stop-color:#0062ff;stop-opacity:1;"/>
</linearGradient>
</defs>
<g id="surface1">
<path style=" stroke:none;fill-rule:nonzero;fill:url(#linear0);" d="M 9.863281 4.324219 C 6.800781 4.324219 4.324219 6.800781 4.324219 9.863281 L 4.324219 23.699219 C 4.324219 26.757812 6.800781 29.234375 9.863281 29.234375 L 23.699219 29.234375 C 26.757812 29.234375 29.234375 26.757812 29.234375 23.699219 L 29.234375 9.863281 C 29.234375 6.800781 26.757812 4.324219 23.699219 4.324219 Z M 40.300781 4.324219 C 37.242188 4.324219 34.765625 6.800781 34.765625 9.863281 L 34.765625 23.699219 C 34.765625 26.757812 37.242188 29.234375 40.300781 29.234375 L 54.136719 29.234375 C 57.199219 29.234375 59.675781 26.757812 59.675781 23.699219 L 59.675781 9.863281 C 59.675781 6.800781 57.199219 4.324219 54.136719 4.324219 Z M 15.394531 9.863281 L 18.164062 9.863281 L 18.164062 15.394531 L 23.699219 15.394531 L 23.699219 18.164062 L 18.164062 18.164062 L 18.164062 23.699219 L 15.394531 23.699219 L 15.394531 18.164062 L 9.863281 18.164062 L 9.863281 15.394531 L 15.394531 15.394531 Z M 40.300781 15.394531 L 54.136719 15.394531 L 54.136719 18.164062 L 40.300781 18.164062 Z M 9.863281 34.765625 C 6.800781 34.765625 4.324219 37.242188 4.324219 40.300781 L 4.324219 54.136719 C 4.324219 57.199219 6.800781 59.675781 9.863281 59.675781 L 23.699219 59.675781 C 26.757812 59.675781 29.234375 57.199219 29.234375 54.136719 L 29.234375 40.300781 C 29.234375 37.242188 26.757812 34.765625 23.699219 34.765625 Z M 40.300781 34.765625 C 37.242188 34.765625 34.765625 37.242188 34.765625 40.300781 L 34.765625 54.136719 C 34.765625 57.199219 37.242188 59.675781 40.300781 59.675781 L 54.136719 59.675781 C 57.199219 59.675781 59.675781 57.199219 59.675781 54.136719 L 59.675781 40.300781 C 59.675781 37.242188 57.199219 34.765625 54.136719 34.765625 Z M 11.847656 40.386719 L 16.78125 45.234375 L 21.707031 40.386719 L 23.613281 42.292969 L 18.765625 47.21875 L 23.613281 52.152344 L 21.707031 54.054688 L 16.78125 49.210938 L 11.847656 54.054688 L 9.945312 52.152344 L 14.789062 47.21875 L 9.945312 42.292969 Z M 40.300781 43.070312 L 54.136719 43.070312 L 54.136719 45.835938 L 40.300781 45.835938 Z M 40.300781 48.605469 L 54.136719 48.605469 L 54.136719 51.375 L 40.300781 51.375 Z M 40.300781 48.605469 "/>
</g>
</svg>
