<svg xmlns="http://www.w3.org/2000/svg" xmlns:xlink="http://www.w3.org/1999/xlink" width="64px" height="64px" viewBox="0 0 64 64" version="1.1">
<defs>
<linearGradient id="linear0" gradientUnits="userSpaceOnUse" x1="0" y1="0" x2="0" y2="1" gradientTransform="matrix(48.27928,0,0,55.351351,7.86036,4.324324)">
<stop offset="0" style="stop-color:#ffae00;stop-opacity:1;"/>
<stop offset="0.5" style="stop-color:#dddddd;stop-opacity:1;"/>
<stop offset="1" style="stop-color:#6600ff;stop-opacity:1;"/>
</linearGradient>
</defs>
<g id="surface1">
<path style=" stroke:none;fill-rule:evenodd;fill:url(#linear0);" d="M 34.71875 4.324219 C 41.894531 4.324219 47.261719 5.957031 50.8125 9.21875 C 54.363281 12.484375 56.136719 17.410156 56.136719 24.011719 C 56.136719 25.386719 56.105469 26.4375 56.03125 27.164062 L 53.96875 53.152344 C 53.824219 55.179688 53.152344 56.738281 51.957031 57.828125 C 50.761719 58.914062 49.144531 59.460938 47.113281 59.460938 C 45.230469 59.460938 43.726562 58.863281 42.605469 57.664062 C 41.484375 56.46875 40.988281 54.929688 41.136719 53.042969 L 41.242188 50.972656 C 39.792969 53.730469 37.761719 55.867188 35.152344 57.390625 C 32.542969 58.914062 29.570312 59.675781 26.238281 59.675781 C 22.757812 59.675781 19.621094 59.003906 16.828125 57.664062 C 14.039062 56.324219 11.847656 54.472656 10.253906 52.117188 C 8.660156 49.761719 7.863281 47.097656 7.863281 44.125 C 7.863281 40.066406 8.890625 36.824219 10.957031 34.390625 C 13.023438 31.960938 16.339844 30.1875 20.910156 29.0625 C 25.476562 27.941406 31.5625 27.378906 39.179688 27.378906 L 43.089844 27.378906 L 43.203125 25.3125 C 43.488281 21.6875 42.800781 19.003906 41.136719 17.265625 C 39.460938 15.527344 36.820312 14.652344 33.199219 14.652344 C 28.917969 14.652344 24.027344 16.066406 18.511719 18.894531 C 17.570312 19.335938 16.664062 19.550781 15.796875 19.550781 C 14.488281 19.550781 13.402344 19.09375 12.53125 18.1875 C 11.664062 17.285156 11.230469 16.175781 11.230469 14.875 C 11.230469 13.929688 11.515625 12.96875 12.097656 11.988281 C 12.679688 11.011719 13.511719 10.199219 14.605469 9.542969 C 17.210938 7.949219 20.292969 6.679688 23.839844 5.738281 C 27.394531 4.796875 31.023438 4.324219 34.71875 4.324219 Z M 29.714844 49.886719 C 33.121094 49.886719 36.003906 48.675781 38.363281 46.246094 C 40.71875 43.8125 42.039062 40.714844 42.328125 36.945312 L 42.550781 34.558594 L 39.503906 34.558594 C 34.863281 34.558594 31.21875 34.8125 28.578125 35.320312 C 25.929688 35.824219 24.027344 36.675781 22.863281 37.867188 C 21.707031 39.066406 21.125 40.679688 21.125 42.710938 C 21.125 44.886719 21.90625 46.625 23.460938 47.933594 C 25.023438 49.234375 27.109375 49.886719 29.714844 49.886719 Z M 29.714844 49.886719 "/>
</g>
</svg>
