<svg xmlns="http://www.w3.org/2000/svg" xmlns:xlink="http://www.w3.org/1999/xlink" width="64px" height="64px" viewBox="0 0 64 64" version="1.1">
<defs>
<linearGradient id="linear0" gradientUnits="userSpaceOnUse" x1="0" y1="0" x2="0" y2="1" gradientTransform="matrix(55.351351,0,0,51.099098,4.324324,6.45045)">
<stop offset="0" style="stop-color:#05f7ff;stop-opacity:1;"/>
<stop offset="0.5" style="stop-color:#dddddd;stop-opacity:1;"/>
<stop offset="1" style="stop-color:#e6ff05;stop-opacity:1;"/>
</linearGradient>
</defs>
<g id="surface1">
<path style=" stroke:none;fill-rule:nonzero;fill:url(#linear0);" d="M 44.769531 6.449219 C 36.539062 6.449219 29.875 13.125 29.875 21.355469 C 29.875 29.585938 36.539062 36.257812 44.769531 36.257812 C 53.003906 36.257812 59.675781 29.585938 59.675781 21.355469 C 59.675781 13.125 53.003906 6.449219 44.769531 6.449219 Z M 19.230469 27.742188 C 10.996094 27.742188 4.324219 34.414062 4.324219 42.644531 C 4.324219 50.875 10.996094 57.550781 19.230469 57.550781 C 27.460938 57.550781 34.125 50.875 34.125 42.644531 C 34.125 34.414062 27.460938 27.742188 19.230469 27.742188 Z M 19.230469 27.742188 "/>
</g>
</svg>
