<svg xmlns="http://www.w3.org/2000/svg" xmlns:xlink="http://www.w3.org/1999/xlink" width="64px" height="64px" viewBox="0 0 64 64" version="1.1">
<defs>
<linearGradient id="linear0" gradientUnits="userSpaceOnUse" x1="0" y1="0" x2="0" y2="1" gradientTransform="matrix(55.351351,0,0,36.900902,4.324324,13.54955)">
<stop offset="0" style="stop-color:#ffae00;stop-opacity:1;"/>
<stop offset="0.5" style="stop-color:#dddddd;stop-opacity:1;"/>
<stop offset="1" style="stop-color:#bf1d1d;stop-opacity:1;"/>
</linearGradient>
</defs>
<g id="surface1">
<path style=" stroke:none;fill-rule:evenodd;fill:url(#linear0);" d="M 32 13.550781 C 24.835938 13.550781 18.734375 17.800781 16.109375 23.820312 C 9.4375 24.785156 4.324219 30.296875 4.324219 37.03125 C 4.324219 44.441406 10.515625 50.449219 18.164062 50.449219 L 47.566406 50.449219 C 54.257812 50.449219 59.675781 45.191406 59.675781 38.707031 C 59.675781 32.679688 55 27.742188 48.972656 27.070312 C 47.402344 19.378906 40.394531 13.550781 32 13.550781 Z M 28.3125 28.3125 L 28.3125 33.839844 L 35.6875 33.839844 L 35.6875 28.3125 Z M 28.3125 24.621094 L 35.6875 24.621094 C 39.378906 24.621094 39.378906 28.3125 39.378906 28.3125 L 39.378906 43.070312 L 35.6875 43.070312 L 35.6875 37.539062 L 28.3125 37.539062 L 28.3125 43.070312 L 24.621094 43.070312 L 24.621094 28.3125 C 24.621094 24.621094 28.3125 24.621094 28.3125 24.621094 Z M 28.3125 24.621094 "/>
</g>
</svg>
