<svg xmlns="http://www.w3.org/2000/svg" xmlns:xlink="http://www.w3.org/1999/xlink" width="64px" height="64px" viewBox="0 0 64 64" version="1.1">
<g id="surface1">
<path style=" stroke:none;fill-rule:nonzero;fill:rgb(94.901961%,94.901961%,94.901961%);fill-opacity:1;" d="M 32 8.648438 C 44.894531 8.648438 55.351562 19.105469 55.351562 32 C 55.351562 44.894531 44.894531 55.351562 32 55.351562 C 19.105469 55.351562 8.648438 44.894531 8.648438 32 C 8.648438 19.105469 19.105469 8.648438 32 8.648438 Z M 32 8.648438 "/>
<path style=" stroke:none;fill-rule:nonzero;fill:rgb(100%,46.666667%,0%);fill-opacity:1;" d="M 18.589844 22.917969 L 18.589844 35.046875 C 18.589844 36.515625 18.746094 37.855469 19.042969 39.078125 C 19.34375 40.265625 19.800781 41.328125 20.511719 42.1875 C 22.296875 44.347656 24.921875 44.96875 27.332031 44.972656 C 30.269531 44.976562 32.863281 44.65625 35.460938 43.675781 L 35.460938 22.925781 L 31.566406 22.925781 L 31.566406 41.082031 C 30.269531 41.414062 28.972656 41.554688 27.738281 41.566406 C 25.8125 41.585938 24.4375 41 23.613281 39.863281 C 22.800781 38.734375 22.488281 36.847656 22.488281 34.21875 L 22.488281 22.917969 "/>
<path style=" stroke:none;fill-rule:nonzero;fill:rgb(20%,20%,20%);fill-opacity:1;" d="M 40.648438 16.433594 L 43.242188 16.433594 L 43.242188 47.566406 L 40.648438 47.566406 "/>
</g>
</svg>
