<svg xmlns="http://www.w3.org/2000/svg" xmlns:xlink="http://www.w3.org/1999/xlink" width="64px" height="64px" viewBox="0 0 64 64" version="1.1">
<defs>
<linearGradient id="linear0" gradientUnits="userSpaceOnUse" x1="0" y1="0" x2="0" y2="1" gradientTransform="matrix(55.351351,0,0,55.351351,4.324324,4.324324)">
<stop offset="0" style="stop-color:#05f7ff;stop-opacity:1;"/>
<stop offset="0.5" style="stop-color:#dddddd;stop-opacity:1;"/>
<stop offset="1" style="stop-color:#e6ff05;stop-opacity:1;"/>
</linearGradient>
</defs>
<g id="surface1">
<path style=" stroke:none;fill-rule:nonzero;fill:url(#linear0);" d="M 32 4.324219 C 16.714844 4.324219 4.324219 16.714844 4.324219 32 C 4.324219 47.285156 16.714844 59.675781 32 59.675781 C 47.285156 59.675781 59.675781 47.285156 59.675781 32 C 59.675781 16.714844 47.285156 4.324219 32 4.324219 Z M 36.625 11.808594 L 47.375 18.164062 L 36.613281 24.515625 Z M 32 15.078125 C 32.789062 15.078125 33.558594 15.136719 34.320312 15.242188 L 34.320312 17.597656 C 33.5625 17.472656 32.792969 17.40625 32 17.40625 C 25.851562 17.40625 20.59375 21.171875 18.4375 26.539062 L 16.445312 25.355469 C 19.03125 19.320312 25.03125 15.078125 32 15.078125 Z M 32 20.828125 C 32.789062 20.828125 33.5625 20.921875 34.308594 21.082031 L 34.308594 23.472656 C 33.570312 23.273438 32.796875 23.171875 32 23.171875 C 27.960938 23.171875 24.589844 25.855469 23.53125 29.539062 L 21.460938 28.3125 C 22.996094 23.960938 27.144531 20.828125 32 20.828125 Z M 45.570312 21.894531 C 47.679688 24.71875 48.921875 28.21875 48.921875 32 C 48.921875 35.835938 47.632812 39.390625 45.460938 42.234375 L 43.460938 41.042969 C 45.421875 38.558594 46.59375 35.421875 46.59375 32 C 46.59375 28.636719 45.460938 25.550781 43.566406 23.085938 Z M 40.5625 24.863281 C 42.1875 26.808594 43.171875 29.289062 43.171875 32 C 43.171875 34.769531 42.144531 37.320312 40.457031 39.28125 L 38.402344 38.066406 C 39.90625 36.488281 40.828125 34.363281 40.828125 32 C 40.828125 29.703125 39.960938 27.621094 38.539062 26.054688 Z M 12.410156 25.644531 L 23.160156 32 L 12.394531 38.355469 Z M 23.53125 34.460938 C 24.589844 38.144531 27.960938 40.8125 32 40.8125 C 32.796875 40.8125 33.570312 40.710938 34.308594 40.515625 L 34.308594 42.917969 C 33.5625 43.078125 32.789062 43.171875 32 43.171875 C 27.136719 43.171875 22.988281 40.027344 21.460938 35.675781 Z M 18.4375 37.460938 C 20.59375 42.828125 25.851562 46.59375 32 46.59375 C 32.785156 46.59375 33.542969 46.53125 34.292969 46.410156 L 34.292969 48.753906 C 33.542969 48.855469 32.78125 48.921875 32 48.921875 C 25.03125 48.921875 19.03125 44.675781 16.445312 38.636719 Z M 36.613281 39.6875 L 47.363281 46.03125 L 36.597656 52.382812 Z M 36.613281 39.6875 "/>
</g>
</svg>
