<svg xmlns="http://www.w3.org/2000/svg" xmlns:xlink="http://www.w3.org/1999/xlink" width="64px" height="64px" viewBox="0 0 64 64" version="1.1">
<defs>
<linearGradient id="linear0" gradientUnits="userSpaceOnUse" x1="0" y1="0" x2="0" y2="1" gradientTransform="matrix(50.144145,0,0,55.351351,6.927927,4.324324)">
<stop offset="0" style="stop-color:#ffae00;stop-opacity:1;"/>
<stop offset="0.5" style="stop-color:#dddddd;stop-opacity:1;"/>
<stop offset="1" style="stop-color:#bf1d1d;stop-opacity:1;"/>
</linearGradient>
</defs>
<g id="surface1">
<path style=" stroke:none;fill-rule:nonzero;fill:url(#linear0);" d="M 57.070312 29.488281 C 56.417969 24.347656 53.808594 19.664062 49.789062 16.402344 C 48.96875 16.707031 48.105469 16.902344 47.1875 16.902344 C 44.015625 16.902344 41.296875 14.90625 40.179688 12.117188 C 39.164062 11.960938 38.144531 11.878906 37.121094 11.875 C 34.4375 11.875 31.785156 12.410156 29.3125 13.449219 L 33.136719 20.082031 C 34.421875 19.648438 35.765625 19.421875 37.121094 19.417969 C 43.089844 19.421875 48.238281 23.632812 49.433594 29.488281 Z M 57.066406 34.511719 L 49.445312 34.511719 C 48.246094 40.375 43.097656 44.578125 37.121094 44.578125 C 35.765625 44.578125 34.421875 44.355469 33.136719 43.921875 L 29.324219 50.539062 C 31.789062 51.582031 34.4375 52.121094 37.121094 52.125 C 38.148438 52.121094 39.175781 52.03125 40.191406 51.863281 C 41.3125 49.085938 44.027344 47.097656 47.1875 47.097656 C 48.105469 47.097656 48.976562 47.292969 49.796875 47.597656 C 53.8125 44.335938 56.414062 39.648438 57.066406 34.515625 Z M 52.214844 9.355469 C 52.214844 6.578125 49.960938 4.324219 47.1875 4.324219 C 44.40625 4.324219 42.152344 6.578125 42.152344 9.355469 C 42.152344 12.136719 44.40625 14.386719 47.1875 14.386719 C 49.960938 14.386719 52.214844 12.136719 52.214844 9.355469 Z M 52.214844 54.644531 C 52.214844 51.863281 49.960938 49.613281 47.1875 49.613281 C 44.40625 49.613281 42.152344 51.863281 42.152344 54.644531 C 42.152344 57.421875 44.40625 59.675781 47.1875 59.675781 C 49.960938 59.675781 52.214844 57.421875 52.214844 54.644531 Z M 28.789062 22.597656 L 24.96875 15.988281 C 21.328125 18.746094 18.742188 22.660156 17.625 27.085938 C 18.78125 28.414062 19.511719 30.121094 19.511719 32 C 19.511719 33.878906 18.785156 35.585938 17.632812 36.910156 C 18.742188 41.339844 21.328125 45.261719 24.960938 48.023438 L 28.789062 41.40625 C 26.089844 39.023438 24.542969 35.597656 24.539062 32 C 24.550781 28.40625 26.09375 24.984375 28.789062 22.597656 Z M 16.988281 32 C 16.988281 29.21875 14.738281 26.96875 11.960938 26.96875 C 9.179688 26.96875 6.929688 29.21875 6.929688 32 C 6.929688 34.78125 9.179688 37.03125 11.960938 37.03125 C 14.738281 37.03125 16.988281 34.78125 16.988281 32 Z M 16.988281 32 "/>
</g>
</svg>
