<svg xmlns="http://www.w3.org/2000/svg" xmlns:xlink="http://www.w3.org/1999/xlink" width="64px" height="64px" viewBox="0 0 64 64" version="1.1">
<defs>
<linearGradient id="linear0" gradientUnits="userSpaceOnUse" x1="0" y1="0" x2="0" y2="1" gradientTransform="matrix(55.351351,0,0,47.972973,4.324324,8.013514)">
<stop offset="0" style="stop-color:#00a2ff;stop-opacity:1;"/>
<stop offset="0.5" style="stop-color:#dddddd;stop-opacity:1;"/>
<stop offset="1" style="stop-color:#00ffae;stop-opacity:1;"/>
</linearGradient>
</defs>
<g id="surface1">
<path style=" stroke:none;fill-rule:evenodd;fill:url(#linear0);" d="M 55.339844 26.460938 C 52.835938 15.890625 43.335938 8.011719 32 8.011719 C 20.664062 8.011719 11.164062 15.890625 8.660156 26.460938 L 4.324219 26.460938 L 4.324219 37.539062 L 8.660156 37.539062 C 11.164062 48.109375 20.664062 55.988281 32 55.988281 C 43.335938 55.988281 52.835938 48.109375 55.339844 37.539062 L 59.675781 37.539062 L 59.675781 26.460938 Z M 18.3125 26.460938 C 20.503906 21.058594 25.8125 17.238281 32 17.238281 C 38.1875 17.238281 43.496094 21.058594 45.6875 26.460938 Z M 45.6875 37.539062 C 43.496094 42.941406 38.1875 46.761719 32 46.761719 C 25.8125 46.761719 20.503906 42.941406 18.3125 37.539062 Z M 45.6875 37.539062 "/>
</g>
</svg>
