<svg xmlns="http://www.w3.org/2000/svg" xmlns:xlink="http://www.w3.org/1999/xlink" width="64px" height="64px" viewBox="0 0 64 64" version="1.1">
<defs>
<linearGradient id="linear0" gradientUnits="userSpaceOnUse" x1="0" y1="0" x2="0" y2="1" gradientTransform="matrix(47.441443,0,0,55.351351,8.279279,4.324324)">
<stop offset="0" style="stop-color:#ffae00;stop-opacity:1;"/>
<stop offset="0.5" style="stop-color:#dddddd;stop-opacity:1;"/>
<stop offset="1" style="stop-color:#bf1d1d;stop-opacity:1;"/>
</linearGradient>
</defs>
<g id="surface1">
<path style=" stroke:none;fill-rule:evenodd;fill:url(#linear0);" d="M 18.234375 4.324219 C 18.1875 4.324219 18.136719 4.324219 18.085938 4.328125 C 17.835938 4.335938 17.597656 4.386719 17.390625 4.472656 C 17.179688 4.558594 17.003906 4.679688 16.882812 4.824219 L 8.476562 14.6875 C 8.347656 14.835938 8.28125 15.011719 8.28125 15.1875 C 8.28125 15.363281 8.347656 15.53125 8.476562 15.6875 C 8.605469 15.835938 8.792969 15.960938 9.015625 16.050781 C 9.242188 16.136719 9.496094 16.1875 9.757812 16.1875 L 12.230469 16.1875 L 12.230469 42.730469 C 12.230469 52.117188 19.789062 59.675781 29.175781 59.675781 L 34.824219 59.675781 C 44.210938 59.675781 51.769531 52.117188 51.769531 42.730469 L 51.769531 16.1875 L 54.242188 16.1875 C 54.503906 16.1875 54.757812 16.136719 54.984375 16.050781 C 55.207031 15.960938 55.394531 15.835938 55.523438 15.6875 C 55.652344 15.53125 55.71875 15.363281 55.71875 15.1875 C 55.71875 15.011719 55.652344 14.835938 55.523438 14.6875 L 47.117188 4.824219 C 46.996094 4.679688 46.820312 4.558594 46.609375 4.46875 C 46.394531 4.382812 46.160156 4.335938 45.910156 4.324219 C 45.863281 4.324219 45.8125 4.324219 45.761719 4.328125 C 45.511719 4.335938 45.273438 4.386719 45.066406 4.472656 C 44.855469 4.558594 44.679688 4.679688 44.558594 4.824219 L 36.152344 14.6875 C 36.023438 14.835938 35.957031 15.011719 35.957031 15.1875 C 35.957031 15.363281 36.023438 15.53125 36.152344 15.6875 C 36.285156 15.835938 36.46875 15.960938 36.691406 16.050781 C 36.917969 16.136719 37.171875 16.1875 37.433594 16.1875 L 39.90625 16.1875 L 39.90625 45.554688 C 39.90625 50.234375 36.679688 53.742188 32 53.742188 C 27.320312 53.742188 24.324219 50.230469 24.09375 45.554688 L 24.09375 16.1875 L 26.566406 16.1875 C 26.828125 16.1875 27.082031 16.136719 27.308594 16.050781 C 27.53125 15.960938 27.714844 15.835938 27.847656 15.6875 C 27.976562 15.53125 28.042969 15.363281 28.042969 15.1875 C 28.042969 15.011719 27.976562 14.835938 27.847656 14.6875 L 19.441406 4.824219 C 19.320312 4.679688 19.144531 4.558594 18.933594 4.46875 C 18.71875 4.382812 18.484375 4.335938 18.234375 4.324219 Z M 18.234375 4.324219 "/>
</g>
</svg>
