<svg xmlns="http://www.w3.org/2000/svg" xmlns:xlink="http://www.w3.org/1999/xlink" width="64px" height="64px" viewBox="0 0 64 64" version="1.1">
<defs>
<linearGradient id="linear0" gradientUnits="userSpaceOnUse" x1="0" y1="0" x2="0" y2="1" gradientTransform="matrix(55.351351,0,0,32.495497,4.324324,15.752253)">
<stop offset="0" style="stop-color:#00a2ff;stop-opacity:1;"/>
<stop offset="0.5" style="stop-color:#dddddd;stop-opacity:1;"/>
<stop offset="1" style="stop-color:#00ffae;stop-opacity:1;"/>
</linearGradient>
</defs>
<g id="surface1">
<path style=" stroke:none;fill-rule:evenodd;fill:url(#linear0);" d="M 4.324219 15.753906 L 4.324219 22.972656 L 11.542969 22.972656 L 11.542969 15.753906 Z M 52.457031 15.753906 L 52.457031 22.972656 L 59.675781 22.972656 L 59.675781 15.753906 Z M 22.375 27.789062 L 22.375 31.394531 L 40.421875 31.394531 L 40.421875 27.789062 Z M 40.421875 31.394531 L 40.421875 35.011719 L 45.234375 35.011719 L 45.234375 38.617188 L 17.679688 38.617188 L 17.679688 35.011719 L 22.375 35.011719 L 22.375 31.394531 L 13.949219 31.394531 L 13.949219 38.617188 L 10.339844 38.617188 L 10.339844 47.039062 L 13.949219 47.039062 L 13.949219 42.230469 L 45.234375 42.230469 L 45.234375 48.246094 L 49.085938 48.246094 L 49.085938 31.394531 Z M 40.421875 31.394531 "/>
</g>
</svg>
