<svg xmlns="http://www.w3.org/2000/svg" xmlns:xlink="http://www.w3.org/1999/xlink" width="64px" height="64px" viewBox="0 0 64 64" version="1.1">
<g id="surface1">
<path style=" stroke:none;fill-rule:nonzero;fill:rgb(94.901961%,94.901961%,94.901961%);fill-opacity:1;" d="M 16.433594 9.511719 L 47.566406 9.511719 C 51.386719 9.511719 54.488281 12.613281 54.488281 16.433594 L 54.488281 47.566406 C 54.488281 51.386719 51.386719 54.488281 47.566406 54.488281 L 16.433594 54.488281 C 12.613281 54.488281 9.511719 51.386719 9.511719 47.566406 L 9.511719 16.433594 C 9.511719 12.613281 12.613281 9.511719 16.433594 9.511719 Z M 16.433594 9.511719 "/>
<path style=" stroke:none;fill-rule:nonzero;fill:rgb(100%,54.11765%,17.254902%);fill-opacity:1;" d="M 39.335938 24.636719 C 43.386719 28.6875 43.386719 35.261719 39.335938 39.3125 C 35.285156 43.363281 28.710938 43.363281 24.660156 39.3125 C 20.609375 35.261719 20.609375 28.6875 24.660156 24.636719 C 28.710938 20.585938 35.285156 20.585938 39.335938 24.636719 Z M 39.335938 24.636719 "/>
<path style=" stroke:none;fill-rule:nonzero;fill:rgb(100%,54.11765%,17.254902%);fill-opacity:1;" d="M 12.738281 36.5625 L 24.355469 24.941406 C 25.199219 24.097656 26.566406 24.097656 27.414062 24.941406 C 28.257812 25.789062 28.257812 27.15625 27.414062 28 L 15.792969 39.617188 C 14.949219 40.460938 13.582031 40.460938 12.738281 39.617188 C 11.890625 38.777344 11.890625 37.40625 12.738281 36.5625 Z M 12.738281 36.5625 "/>
<path style=" stroke:none;fill-rule:nonzero;fill:rgb(100%,54.11765%,17.254902%);fill-opacity:1;" d="M 37.992188 14.597656 L 42.246094 30.46875 C 42.558594 31.621094 41.871094 32.808594 40.71875 33.117188 C 39.5625 33.425781 38.378906 32.742188 38.070312 31.585938 L 33.816406 15.714844 C 33.507812 14.5625 34.191406 13.378906 35.34375 13.066406 C 36.5 12.761719 37.6875 13.441406 37.992188 14.597656 Z M 37.992188 14.597656 "/>
<path style=" stroke:none;fill-rule:nonzero;fill:rgb(100%,54.11765%,17.254902%);fill-opacity:1;" d="M 45.710938 46.339844 L 29.839844 42.085938 C 28.6875 41.78125 28.003906 40.59375 28.3125 39.441406 C 28.621094 38.289062 29.808594 37.605469 30.960938 37.914062 L 46.835938 42.164062 C 47.988281 42.472656 48.671875 43.660156 48.363281 44.8125 C 48.054688 45.964844 46.867188 46.652344 45.710938 46.339844 Z M 45.710938 46.339844 "/>
<path style=" stroke:none;fill-rule:nonzero;fill:rgb(100%,100%,100%);fill-opacity:0.099;" d="M 32 23.351562 C 27.222656 23.351562 23.351562 27.222656 23.351562 32 C 23.351562 36.777344 27.222656 40.648438 32 40.648438 C 36.777344 40.648438 40.648438 36.777344 40.648438 32 C 40.648438 27.222656 36.777344 23.351562 32 23.351562 Z M 32 28.617188 C 33.867188 28.617188 35.382812 30.132812 35.382812 32 C 35.382812 33.867188 33.867188 35.382812 32 35.382812 C 30.132812 35.386719 28.613281 33.867188 28.613281 32 C 28.613281 30.132812 30.132812 28.613281 32 28.617188 Z M 32 28.617188 "/>
<path style=" stroke:none;fill-rule:nonzero;fill:rgb(100%,100%,100%);fill-opacity:1;" d="M 32 25.082031 C 28.179688 25.082031 25.082031 28.179688 25.082031 32 C 25.082031 35.820312 28.179688 38.917969 32 38.917969 C 35.820312 38.917969 38.917969 35.820312 38.917969 32 C 38.917969 28.179688 35.820312 25.082031 32 25.082031 Z M 32 29.292969 C 33.496094 29.292969 34.707031 30.503906 34.707031 32 C 34.707031 33.492188 33.496094 34.703125 32 34.703125 C 30.507812 34.707031 29.292969 33.492188 29.292969 32 C 29.292969 30.503906 30.507812 29.289062 32 29.292969 Z M 32 29.292969 "/>
<path style=" stroke:none;fill-rule:nonzero;fill:rgb(18.039216%,34.117648%,69.411767%);fill-opacity:1;" d="M 35.460938 32 C 35.460938 33.914062 33.914062 35.460938 32 35.460938 C 30.085938 35.460938 28.539062 33.914062 28.539062 32 C 28.539062 30.085938 30.085938 28.539062 32 28.539062 C 33.914062 28.539062 35.460938 30.085938 35.460938 32 Z M 35.460938 32 "/>
</g>
</svg>
