<svg xmlns="http://www.w3.org/2000/svg" xmlns:xlink="http://www.w3.org/1999/xlink" width="64px" height="64px" viewBox="0 0 64 64" version="1.1">
<defs>
<linearGradient id="linear0" gradientUnits="userSpaceOnUse" x1="0" y1="0" x2="0" y2="1" gradientTransform="matrix(41.513514,0,0,41.513514,11.243243,11.243243)">
<stop offset="0" style="stop-color:#ff8963;stop-opacity:1;"/>
<stop offset="0.5" style="stop-color:#dddddd;stop-opacity:1;"/>
<stop offset="1" style="stop-color:#0F6FFF;stop-opacity:1;"/>
</linearGradient>
</defs>
<g id="surface1">
<path style=" stroke:none;fill-rule:nonzero;fill:url(#linear0);" d="M 32 11.242188 C 21.875 11.246094 13.230469 18.554688 11.539062 28.539062 L 15.054688 28.539062 C 16.699219 20.488281 23.785156 14.703125 32 14.703125 C 38.863281 14.714844 45.070312 18.789062 47.820312 25.082031 L 35.460938 25.082031 L 35.460938 28.539062 L 52.757812 28.539062 L 52.757812 11.242188 L 49.296875 11.242188 L 49.296875 20.582031 C 45.460938 14.761719 38.96875 11.257812 32 11.242188 M 11.242188 35.460938 L 11.242188 52.757812 L 14.703125 52.757812 L 14.703125 43.417969 C 18.539062 49.238281 25.03125 52.742188 32 52.757812 C 42.125 52.753906 50.769531 45.445312 52.460938 35.460938 L 48.945312 35.460938 C 47.300781 43.511719 40.214844 49.296875 32 49.296875 C 25.136719 49.285156 18.929688 45.210938 16.179688 38.917969 L 28.539062 38.917969 L 28.539062 35.460938 Z M 11.242188 35.460938 "/>
</g>
</svg>
