<svg xmlns="http://www.w3.org/2000/svg" xmlns:xlink="http://www.w3.org/1999/xlink" width="64px" height="64px" viewBox="0 0 64 64" version="1.1">
<defs>
<linearGradient id="linear0" gradientUnits="userSpaceOnUse" x1="0" y1="0" x2="0" y2="1" gradientTransform="matrix(55.351351,0,0,6.918919,4.216216,47.567568)">
<stop offset="0" style="stop-color:#ffae00;stop-opacity:1;"/>
<stop offset="0.5" style="stop-color:#dddddd;stop-opacity:1;"/>
<stop offset="1" style="stop-color:#bf1d1d;stop-opacity:1;"/>
</linearGradient>
<linearGradient id="linear1" gradientUnits="userSpaceOnUse" x1="0" y1="0" x2="0" y2="1" gradientTransform="matrix(53.666666,0,0,30.891892,5.166667,9.166667)">
<stop offset="0" style="stop-color:#ffae00;stop-opacity:1;"/>
<stop offset="0.5" style="stop-color:#dddddd;stop-opacity:1;"/>
<stop offset="1" style="stop-color:#bf1d1d;stop-opacity:1;"/>
</linearGradient>
</defs>
<g id="surface1">
<path style=" stroke:none;fill-rule:evenodd;fill:url(#linear0);" d="M 4.214844 47.566406 L 59.566406 47.566406 L 59.566406 54.488281 L 4.214844 54.488281 Z M 4.214844 47.566406 "/>
<path style=" stroke:none;fill-rule:evenodd;fill:url(#linear1);" d="M 17.011719 40.058594 C 15.363281 40.058594 13.855469 39.851562 12.496094 39.433594 C 11.136719 39.011719 9.890625 38.347656 8.765625 37.4375 C 7.636719 36.523438 6.757812 35.265625 6.121094 33.664062 C 5.484375 32.054688 5.164062 30.152344 5.164062 27.957031 L 5.164062 9.164062 L 10.367188 9.164062 L 10.367188 27.957031 C 10.367188 30.585938 10.941406 32.433594 12.085938 33.488281 C 13.230469 34.542969 14.867188 35.070312 17.011719 35.070312 C 19.148438 35.070312 20.792969 34.539062 21.933594 33.46875 C 23.078125 32.394531 23.648438 30.558594 23.648438 27.957031 L 23.648438 9.164062 L 28.855469 9.164062 L 28.855469 27.957031 C 28.855469 30.121094 28.542969 32.011719 27.921875 33.617188 C 27.296875 35.226562 26.433594 36.484375 25.320312 37.390625 C 24.207031 38.308594 22.960938 38.976562 21.585938 39.410156 C 20.210938 39.839844 18.6875 40.058594 17.011719 40.058594 Z M 41.21875 39.539062 L 36.011719 39.539062 L 36.011719 9.164062 L 48.636719 9.164062 C 52.136719 9.164062 54.714844 10.078125 56.363281 11.902344 C 58.011719 13.71875 58.835938 15.949219 58.835938 18.585938 C 58.835938 21.070312 57.972656 23.269531 56.253906 25.179688 C 54.53125 27.085938 51.996094 28.039062 48.636719 28.039062 L 41.21875 28.039062 Z M 41.21875 23.09375 L 48.902344 23.09375 C 50.433594 23.09375 51.578125 22.648438 52.328125 21.746094 C 53.082031 20.851562 53.457031 19.796875 53.457031 18.585938 C 53.457031 17.429688 53.105469 16.390625 52.390625 15.484375 C 51.6875 14.570312 50.523438 14.113281 48.902344 14.113281 L 41.21875 14.113281 Z M 41.21875 23.09375 "/>
</g>
</svg>
