<svg xmlns="http://www.w3.org/2000/svg" xmlns:xlink="http://www.w3.org/1999/xlink" width="64px" height="64px" viewBox="0 0 64 64" version="1.1">
<defs>
<linearGradient id="linear0" gradientUnits="userSpaceOnUse" x1="0" y1="0" x2="0" y2="1" gradientTransform="matrix(55.351351,0,0,37.73874,4.324324,13.130631)">
<stop offset="0" style="stop-color:#05f7ff;stop-opacity:1;"/>
<stop offset="0.5" style="stop-color:#dddddd;stop-opacity:1;"/>
<stop offset="1" style="stop-color:#e6ff05;stop-opacity:1;"/>
</linearGradient>
</defs>
<g id="surface1">
<path style=" stroke:none;fill-rule:evenodd;fill:url(#linear0);" d="M 4.324219 13.132812 L 4.324219 31.753906 C 4.324219 32.070312 4.363281 32.390625 4.449219 32.703125 C 4.449219 32.703125 5.011719 34.851562 6.675781 36.824219 C 8.347656 38.800781 11.488281 40.808594 15.648438 40.808594 C 19.808594 40.808594 22.945312 38.800781 24.613281 36.824219 C 26.28125 34.851562 26.847656 32.703125 26.847656 32.703125 C 26.929688 32.390625 26.96875 32.070312 26.96875 31.753906 L 26.96875 24.835938 C 27.949219 25.949219 27.878906 26 28.996094 27.1875 C 29.710938 27.957031 30.527344 28.59375 31.273438 29.351562 C 31.261719 29.429688 31.238281 29.488281 31.226562 29.5625 C 29.523438 38.09375 29.488281 49.023438 29.488281 50.867188 L 37.03125 50.867188 C 37.03125 49.625 37.566406 43.363281 38.214844 37.808594 C 40.300781 39.367188 42.378906 40.6875 45.1875 40.800781 C 49.511719 40.96875 53.339844 39.328125 55.863281 36.6875 C 58.390625 34.039062 59.675781 30.527344 59.675781 26.96875 C 59.675781 19.40625 53.394531 13.132812 45.835938 13.132812 C 36.855469 13.238281 36.136719 19.378906 33.78125 21.1875 C 30.617188 17.71875 28.054688 14.460938 26.96875 13.132812 L 19.421875 13.132812 C 19.421875 13.132812 19.417969 14.886719 19.421875 16.902344 L 19.421875 30.996094 C 19.375 31.136719 19.3125 31.410156 18.851562 31.957031 C 18.289062 32.621094 17.648438 33.261719 15.648438 33.261719 C 13.644531 33.261719 13.011719 32.621094 12.441406 31.957031 C 11.984375 31.410156 11.917969 31.136719 11.875 30.996094 L 11.875 13.132812 Z M 45.835938 20.675781 C 48.839844 20.675781 52.125 23.960938 52.125 26.96875 C 52.125 28.691406 51.488281 30.339844 50.410156 31.472656 C 49.328125 32.605469 47.875 33.355469 45.488281 33.261719 C 45.605469 33.265625 43.539062 32.53125 41.386719 30.820312 C 40.933594 30.460938 40.414062 29.863281 39.9375 29.441406 C 40.5625 27.378906 41.082031 25.027344 41.902344 23.664062 C 43.273438 21.394531 44.3125 20.675781 45.835938 20.675781 Z M 45.835938 20.675781 "/>
</g>
</svg>
