<svg xmlns="http://www.w3.org/2000/svg" xmlns:xlink="http://www.w3.org/1999/xlink" width="64px" height="64px" viewBox="0 0 64 64" version="1.1">
<defs>
<linearGradient id="linear0" gradientUnits="userSpaceOnUse" x1="0" y1="0" x2="0" y2="1" gradientTransform="matrix(54.126125,0,0,55.351351,4.936937,4.324324)">
<stop offset="0" style="stop-color:#00fff2;stop-opacity:1;"/>
<stop offset="0.5" style="stop-color:#dddddd;stop-opacity:1;"/>
<stop offset="1" style="stop-color:#0062ff;stop-opacity:1;"/>
</linearGradient>
</defs>
<g id="surface1">
<path style=" stroke:none;fill-rule:evenodd;fill:url(#linear0);" d="M 16.679688 47.285156 L 12.394531 48.117188 L 7.476562 31.472656 L 4.9375 18.390625 L 12.460938 16.933594 L 15.003906 30.011719 Z M 20.179688 57.414062 C 19.382812 58.566406 18.269531 59.285156 16.839844 59.5625 C 15.414062 59.839844 14.136719 59.597656 13.011719 58.835938 C 11.882812 58.078125 11.179688 57.003906 10.910156 55.613281 C 10.636719 54.226562 10.882812 52.957031 11.636719 51.808594 C 12.402344 50.660156 13.488281 49.945312 14.917969 49.664062 C 16.347656 49.390625 17.648438 49.636719 18.820312 50.410156 C 19.988281 51.1875 20.710938 52.265625 20.984375 53.660156 C 21.242188 55.003906 20.976562 56.257812 20.179688 57.414062 Z M 30.308594 35.449219 L 26.085938 34.347656 L 28.847656 17.214844 L 32.214844 4.324219 L 39.625 6.257812 L 36.265625 19.152344 Z M 29.085938 46.097656 C 27.863281 46.796875 26.554688 46.960938 25.148438 46.59375 C 23.738281 46.230469 22.691406 45.460938 22 44.28125 C 21.3125 43.109375 21.148438 41.835938 21.511719 40.460938 C 21.863281 39.09375 22.636719 38.058594 23.8125 37.351562 C 24.988281 36.644531 26.289062 36.472656 27.691406 36.835938 C 29.097656 37.207031 30.164062 37.988281 30.886719 39.191406 C 31.609375 40.402344 31.789062 41.6875 31.433594 43.058594 C 31.085938 44.386719 30.300781 45.402344 29.085938 46.097656 Z M 45.960938 46.402344 L 41.917969 44.753906 L 46.929688 28.136719 L 51.96875 15.800781 L 59.0625 18.703125 L 54.023438 31.039062 Z M 43.335938 56.792969 C 42.039062 57.324219 40.710938 57.3125 39.363281 56.761719 C 38.015625 56.210938 37.082031 55.3125 36.554688 54.054688 C 36.027344 52.796875 36.03125 51.515625 36.566406 50.207031 C 37.105469 48.894531 38.003906 47.96875 39.265625 47.429688 C 40.527344 46.878906 41.835938 46.882812 43.179688 47.433594 C 44.527344 47.984375 45.476562 48.902344 46.03125 50.1875 C 46.589844 51.476562 46.597656 52.78125 46.0625 54.089844 C 45.542969 55.363281 44.636719 56.261719 43.335938 56.792969 Z M 43.335938 56.792969 "/>
</g>
</svg>
