<svg xmlns="http://www.w3.org/2000/svg" xmlns:xlink="http://www.w3.org/1999/xlink" width="64px" height="64px" viewBox="0 0 64 64" version="1.1">
<defs>
<linearGradient id="linear0" gradientUnits="userSpaceOnUse" x1="0" y1="0" x2="0" y2="1" gradientTransform="matrix(55.351351,0,0,18.450449,4.324324,22.774774)">
<stop offset="0" style="stop-color:#ffae00;stop-opacity:1;"/>
<stop offset="0.5" style="stop-color:#dddddd;stop-opacity:1;"/>
<stop offset="1" style="stop-color:#6600ff;stop-opacity:1;"/>
</linearGradient>
</defs>
<g id="surface1">
<path style=" stroke:none;fill-rule:evenodd;fill:url(#linear0);" d="M 19.835938 23.679688 L 19.835938 36.105469 C 19.835938 36.875 19.726562 37.570312 19.496094 38.199219 C 19.269531 38.828125 18.867188 39.363281 18.292969 39.808594 C 17.714844 40.253906 16.929688 40.597656 15.917969 40.851562 C 14.917969 41.097656 13.636719 41.226562 12.082031 41.226562 C 10.523438 41.226562 9.242188 41.097656 8.238281 40.851562 C 7.238281 40.597656 6.445312 40.253906 5.867188 39.808594 C 5.292969 39.363281 4.886719 38.828125 4.664062 38.199219 C 4.4375 37.570312 4.324219 36.875 4.324219 36.105469 L 4.324219 23.679688 C 4.324219 23.363281 4.394531 23.132812 4.539062 22.988281 C 4.679688 22.847656 4.910156 22.773438 5.226562 22.773438 L 9.164062 22.773438 C 9.488281 22.773438 9.714844 22.847656 9.863281 22.988281 C 10.003906 23.132812 10.070312 23.363281 10.070312 23.679688 L 10.070312 35.125 C 10.070312 35.460938 10.199219 35.738281 10.449219 35.960938 C 10.699219 36.1875 11.261719 36.300781 12.132812 36.300781 C 13.015625 36.300781 13.585938 36.1875 13.835938 35.960938 C 14.089844 35.738281 14.214844 35.460938 14.214844 35.125 L 14.214844 23.679688 C 14.214844 23.363281 14.289062 23.132812 14.429688 22.988281 C 14.570312 22.847656 14.800781 22.773438 15.117188 22.773438 L 18.933594 22.773438 C 19.253906 22.773438 19.484375 22.847656 19.625 22.988281 C 19.765625 23.132812 19.835938 23.363281 19.835938 23.679688 Z M 30.734375 27.292969 L 28.847656 27.292969 L 28.847656 30.503906 L 30.734375 30.503906 C 31.164062 30.503906 31.460938 30.390625 31.613281 30.164062 C 31.761719 29.941406 31.835938 29.664062 31.835938 29.324219 L 31.835938 28.472656 C 31.835938 28.136719 31.761719 27.855469 31.613281 27.632812 C 31.460938 27.40625 31.164062 27.292969 30.734375 27.292969 Z M 27.945312 40.851562 L 24.082031 40.851562 C 23.761719 40.851562 23.53125 40.78125 23.386719 40.636719 C 23.246094 40.488281 23.175781 40.261719 23.175781 39.945312 L 23.175781 23.679688 C 23.175781 23.363281 23.246094 23.132812 23.386719 22.988281 C 23.53125 22.847656 23.761719 22.773438 24.082031 22.773438 L 32.441406 22.773438 C 34.3125 22.773438 35.609375 23.164062 36.3125 23.941406 C 37.027344 24.71875 37.382812 25.730469 37.382812 26.96875 L 37.382812 28.121094 C 37.382812 28.824219 37.28125 29.421875 37.070312 29.917969 C 36.863281 30.410156 36.496094 30.765625 35.976562 30.984375 C 36.882812 31.085938 37.613281 31.449219 38.175781 32.085938 C 38.734375 32.726562 39.015625 33.566406 39.015625 34.621094 L 39.015625 39.945312 C 39.015625 40.261719 38.945312 40.488281 38.800781 40.636719 C 38.664062 40.78125 38.433594 40.851562 38.113281 40.851562 L 34.21875 40.851562 C 33.902344 40.851562 33.671875 40.78125 33.53125 40.636719 C 33.386719 40.488281 33.320312 40.261719 33.320312 39.945312 L 33.320312 36.105469 C 33.320312 35.734375 33.246094 35.460938 33.105469 35.289062 C 32.960938 35.113281 32.714844 35.023438 32.363281 35.023438 L 28.847656 35.023438 L 28.847656 39.945312 C 28.847656 40.261719 28.78125 40.488281 28.636719 40.636719 C 28.496094 40.78125 28.265625 40.851562 27.945312 40.851562 Z M 46.472656 40.851562 L 42.730469 40.851562 C 42.414062 40.851562 42.179688 40.78125 42.039062 40.636719 C 41.902344 40.488281 41.828125 40.261719 41.828125 39.945312 L 41.828125 23.679688 C 41.828125 23.363281 41.902344 23.132812 42.039062 22.988281 C 42.179688 22.847656 42.414062 22.773438 42.730469 22.773438 L 46.769531 22.773438 C 47.039062 22.773438 47.261719 22.835938 47.441406 22.949219 C 47.613281 23.066406 47.78125 23.261719 47.929688 23.527344 L 50.1875 27.621094 C 50.269531 27.769531 50.339844 27.878906 50.402344 27.945312 C 50.460938 28.011719 50.539062 28.042969 50.636719 28.042969 L 50.863281 28.042969 C 50.960938 28.042969 51.042969 28.011719 51.105469 27.945312 C 51.164062 27.878906 51.234375 27.769531 51.320312 27.621094 L 53.550781 23.527344 C 53.703125 23.261719 53.863281 23.066406 54.039062 22.949219 C 54.214844 22.835938 54.4375 22.773438 54.703125 22.773438 L 58.773438 22.773438 C 59.089844 22.773438 59.320312 22.847656 59.460938 22.988281 C 59.605469 23.132812 59.675781 23.363281 59.675781 23.679688 L 59.675781 39.945312 C 59.675781 40.261719 59.605469 40.488281 59.460938 40.636719 C 59.320312 40.78125 59.089844 40.851562 58.773438 40.851562 L 54.90625 40.851562 C 54.585938 40.851562 54.355469 40.78125 54.214844 40.636719 C 54.070312 40.488281 54 40.261719 54 39.945312 L 54 31.109375 L 52.523438 33.839844 C 52.367188 34.132812 52.191406 34.335938 51.984375 34.460938 C 51.769531 34.585938 51.511719 34.648438 51.1875 34.648438 L 50.1875 34.648438 C 49.867188 34.648438 49.605469 34.585938 49.394531 34.460938 C 49.1875 34.335938 49.011719 34.132812 48.855469 33.839844 L 47.375 31.109375 L 47.375 39.945312 C 47.375 40.261719 47.300781 40.488281 47.164062 40.636719 C 47.015625 40.78125 46.789062 40.851562 46.472656 40.851562 Z M 46.472656 40.851562 "/>
</g>
</svg>
