<svg xmlns="http://www.w3.org/2000/svg" xmlns:xlink="http://www.w3.org/1999/xlink" width="64px" height="64px" viewBox="0 0 64 64" version="1.1">
<defs>
<linearGradient id="linear0" gradientUnits="userSpaceOnUse" x1="0" y1="0" x2="0" y2="1" gradientTransform="matrix(39.540541,0,0,43.130632,12.229731,16.545045)">
<stop offset="0" style="stop-color:#00a2ff;stop-opacity:1;"/>
<stop offset="0.5" style="stop-color:#dddddd;stop-opacity:1;"/>
<stop offset="1" style="stop-color:#00ffae;stop-opacity:1;"/>
</linearGradient>
<linearGradient id="linear1" gradientUnits="userSpaceOnUse" x1="0" y1="0" x2="0" y2="1" gradientTransform="matrix(25.162162,0,0,10.783783,19.418919,4.324324)">
<stop offset="0" style="stop-color:#00a2ff;stop-opacity:1;"/>
<stop offset="0.5" style="stop-color:#dddddd;stop-opacity:1;"/>
<stop offset="1" style="stop-color:#00ffae;stop-opacity:1;"/>
</linearGradient>
</defs>
<g id="surface1">
<path style=" stroke:none;fill-rule:nonzero;fill:url(#linear0);" d="M 23.011719 16.542969 C 20.648438 16.542969 18.78125 16.761719 17.203125 17.351562 C 15.625 17.945312 14.363281 19.011719 13.613281 20.363281 C 12.121094 23.066406 12.285156 26.378906 12.230469 30.902344 L 12.230469 45.320312 C 12.285156 49.839844 12.121094 53.152344 13.613281 55.855469 C 14.363281 57.210938 15.625 58.28125 17.203125 58.867188 C 18.78125 59.460938 20.648438 59.675781 23.011719 59.675781 L 40.988281 59.675781 C 43.351562 59.675781 45.21875 59.460938 46.796875 58.867188 C 48.375 58.273438 49.632812 57.210938 50.378906 55.855469 C 51.867188 53.152344 51.714844 49.839844 51.769531 45.320312 L 51.769531 30.902344 C 51.714844 26.378906 51.878906 23.066406 50.386719 20.363281 C 49.636719 19.011719 48.375 17.941406 46.796875 17.351562 C 45.21875 16.761719 43.351562 16.542969 40.988281 16.542969 Z M 23.011719 20.136719 L 40.988281 20.136719 C 43.113281 20.136719 44.597656 20.363281 45.539062 20.714844 C 46.46875 21.066406 46.867188 21.445312 47.234375 22.105469 C 47.960938 23.417969 48.121094 26.394531 48.175781 30.921875 L 48.175781 45.28125 C 48.121094 49.820312 47.960938 52.796875 47.234375 54.117188 C 46.867188 54.773438 46.46875 55.152344 45.539062 55.503906 C 44.597656 55.855469 43.113281 56.082031 40.988281 56.082031 L 23.011719 56.082031 C 20.886719 56.082031 19.402344 55.855469 18.460938 55.503906 C 17.53125 55.152344 17.132812 54.773438 16.765625 54.117188 C 16.039062 52.800781 15.878906 49.824219 15.824219 45.296875 L 15.824219 30.921875 C 15.878906 26.394531 16.039062 23.417969 16.765625 22.105469 C 17.132812 21.445312 17.53125 21.066406 18.460938 20.714844 C 19.402344 20.363281 20.886719 20.136719 23.011719 20.136719 Z M 23.011719 20.136719 "/>
<path style=" stroke:none;fill-rule:evenodd;fill:url(#linear1);" d="M 19.417969 4.324219 L 19.417969 15.109375 L 23.011719 15.109375 L 23.011719 7.917969 L 40.988281 7.917969 L 40.988281 15.109375 L 44.582031 15.109375 L 44.582031 4.324219 Z M 26.609375 11.511719 L 26.609375 15.109375 L 30.203125 15.109375 L 30.203125 11.511719 Z M 33.796875 11.511719 L 33.796875 15.109375 L 37.390625 15.109375 L 37.390625 11.511719 Z M 33.796875 11.511719 "/>
</g>
</svg>
