<svg xmlns="http://www.w3.org/2000/svg" xmlns:xlink="http://www.w3.org/1999/xlink" width="64px" height="64px" viewBox="0 0 64 64" version="1.1">
<defs>
<linearGradient id="linear0" gradientUnits="userSpaceOnUse" x1="0" y1="0" x2="0" y2="1" gradientTransform="matrix(49.72973,0,0,55.351351,7.135135,4.324324)">
<stop offset="0" style="stop-color:#ffae00;stop-opacity:1;"/>
<stop offset="0.5" style="stop-color:#dddddd;stop-opacity:1;"/>
<stop offset="1" style="stop-color:#bf1d1d;stop-opacity:1;"/>
</linearGradient>
</defs>
<g id="surface1">
<path style=" stroke:none;fill-rule:nonzero;fill:url(#linear0);" d="M 10.148438 52.082031 C 11.609375 49.082031 13.542969 44.320312 14.710938 41.164062 C 15.203125 39.8125 16.648438 38.511719 17.917969 38.257812 L 23.269531 35.988281 C 22.375 35.015625 23.078125 33.539062 25.375 31.539062 L 24.472656 29.714844 C 23.160156 29.488281 22.363281 29.011719 22.078125 28.28125 C 21.792969 27.542969 22.015625 26.554688 22.761719 25.3125 C 22.449219 24.960938 22.363281 24.550781 22.488281 24.089844 L 20.828125 17.105469 L 20.800781 16.097656 L 20.882812 14.710938 L 20.691406 13.949219 L 21.238281 13.488281 L 21.539062 13.027344 L 21.863281 12.671875 L 21.484375 11.742188 L 21.292969 11.121094 L 21.320312 10.144531 L 21.808594 8.917969 C 22.6875 7.730469 23.460938 6.914062 24.117188 6.472656 C 25.113281 5.8125 25.109375 5.929688 25.671875 5.6875 C 26.230469 5.441406 28.003906 4.914062 29.3125 4.648438 C 30.1875 4.476562 30.734375 4.386719 30.96875 4.378906 L 31.730469 4.324219 L 32.273438 4.460938 L 34.039062 4.921875 L 35.730469 5.738281 L 36.921875 7.015625 L 37.605469 8.402344 L 37.902344 10.03125 L 38.121094 10.847656 L 38.6875 11.121094 L 39.210938 12.097656 L 39.589844 12.234375 L 39.539062 13.324219 L 40.023438 14.792969 L 40.375 15.582031 L 41.058594 16.855469 L 41.058594 17.375 L 41.488281 18.273438 L 41.4375 19.136719 L 41.113281 20.335938 L 42.0625 20.746094 L 41.847656 21.125 C 42.824219 22.109375 43.210938 23.003906 43.011719 23.820312 C 42.613281 25.460938 40.949219 26.726562 40.757812 27.351562 C 40.472656 28.28125 39.894531 28.46875 39.015625 27.921875 L 39.589844 30.53125 L 40.730469 31.511719 L 44.863281 32.625 L 47.089844 32.875 L 48.367188 33.113281 L 50.734375 33.363281 C 51.011719 33.199219 51.226562 33.144531 51.386719 33.199219 C 51.550781 33.242188 51.761719 33.3125 52.011719 33.386719 L 53.753906 34.390625 C 54.996094 35.699219 55.8125 36.792969 56.199219 37.679688 C 56.785156 39.011719 56.6875 41.339844 56.742188 43.335938 C 56.808594 45.335938 57.136719 48.1875 56.335938 50.675781 C 55.800781 52.335938 55.4375 53.179688 55.246094 53.207031 L 52.960938 59.097656 C 51.472656 59.160156 49.855469 59.324219 48.386719 59.375 C 36.617188 59.753906 25.238281 59.824219 14.839844 59.300781 C 12.113281 59.164062 9.914062 59.003906 7.136719 58.554688 L 7.699219 57.257812 L 9.21875 54.511719 L 10.148438 52.078125 "/>
</g>
</svg>
