<svg xmlns="http://www.w3.org/2000/svg" xmlns:xlink="http://www.w3.org/1999/xlink" width="64px" height="64px" viewBox="0 0 64 64" version="1.1">
<defs>
<linearGradient id="linear0" gradientUnits="userSpaceOnUse" x1="0" y1="0" x2="0" y2="1" gradientTransform="matrix(42.576578,0,0,55.351351,10.711711,4.324324)">
<stop offset="0" style="stop-color:#00b7ff;stop-opacity:1;"/>
<stop offset="0.5" style="stop-color:#dddddd;stop-opacity:1;"/>
<stop offset="1" style="stop-color:#ee42d9;stop-opacity:1;"/>
</linearGradient>
</defs>
<g id="surface1">
<path style=" stroke:none;fill-rule:evenodd;fill:url(#linear0);" d="M 32 36.257812 C 34.644531 36.257812 36.789062 38.40625 36.789062 41.050781 C 36.789062 43.289062 35.242188 45.160156 33.164062 45.679688 L 33.59375 45.679688 C 35.191406 45.679688 36.164062 47.136719 37.125 48.421875 C 38.015625 49.632812 38.386719 51.300781 38.386719 51.914062 L 38.386719 53.011719 C 38.382812 53.050781 38.386719 53.082031 38.386719 53.117188 C 38.386719 54.386719 37.351562 55.417969 36.070312 55.417969 L 27.929688 55.417969 C 26.652344 55.417969 25.613281 54.386719 25.613281 53.113281 C 25.613281 53.078125 25.617188 53.050781 25.621094 53.011719 C 25.617188 53.011719 25.613281 52.460938 25.613281 51.914062 C 25.613281 51.300781 25.890625 49.605469 26.746094 48.367188 C 27.652344 47.066406 28.808594 45.679688 30.40625 45.679688 L 30.835938 45.679688 C 28.757812 45.160156 27.207031 43.289062 27.207031 41.042969 C 27.207031 38.40625 29.351562 36.257812 32 36.257812 Z M 32 4.324219 C 24.011719 4.324219 18.691406 9.863281 18.691406 17.960938 L 18.691406 26.460938 L 13.097656 26.460938 C 13.097656 26.460938 10.710938 26.460938 10.710938 29.234375 L 10.710938 56.910156 C 10.710938 59.675781 13.097656 59.675781 13.097656 59.675781 L 50.902344 59.675781 C 50.902344 59.675781 53.289062 59.675781 53.289062 56.910156 L 53.289062 29.234375 C 53.289062 26.460938 50.902344 26.460938 50.902344 26.460938 L 45.3125 26.472656 L 45.296875 17.867188 C 45.308594 9.863281 39.988281 4.324219 32 4.324219 Z M 32 10.710938 C 36.703125 10.710938 40.515625 14.449219 40.515625 19.152344 C 40.515625 24.828125 34.484375 31.921875 33.066406 32 C 33.066406 32 33.664062 27.664062 32 27.664062 C 27.296875 27.664062 23.484375 23.851562 23.484375 19.152344 C 23.484375 14.445312 27.296875 10.710938 32 10.710938 Z M 32 10.710938 "/>
</g>
</svg>
