<svg xmlns="http://www.w3.org/2000/svg" xmlns:xlink="http://www.w3.org/1999/xlink" width="64px" height="64px" viewBox="0 0 64 64" version="1.1">
<defs>
<linearGradient id="linear0" gradientUnits="userSpaceOnUse" x1="0" y1="0" x2="0" y2="1" gradientTransform="matrix(44.585584,0,0,55.351351,9.707208,4.324324)">
<stop offset="0" style="stop-color:#00fff2;stop-opacity:1;"/>
<stop offset="0.5" style="stop-color:#dddddd;stop-opacity:1;"/>
<stop offset="1" style="stop-color:#0062ff;stop-opacity:1;"/>
</linearGradient>
</defs>
<g id="surface1">
<path style=" stroke:none;fill-rule:evenodd;fill:url(#linear0);" d="M 45.066406 45.324219 C 46.484375 44.511719 48.160156 44.292969 49.738281 44.707031 C 51.300781 45.121094 52.660156 46.152344 53.472656 47.566406 C 54.285156 48.976562 54.5 50.660156 54.085938 52.238281 C 53.660156 53.808594 52.625 55.160156 51.210938 55.96875 C 47.015625 58.402344 42.238281 59.675781 37.402344 59.675781 C 29.21875 59.675781 21.449219 56.0625 16.191406 49.8125 C 11.996094 44.8125 9.707031 38.511719 9.707031 32 C 9.707031 25.5 11.984375 19.210938 16.164062 14.234375 C 21.417969 7.949219 29.1875 4.324219 37.402344 4.324219 C 42.21875 4.324219 46.988281 5.597656 51.1875 8.011719 C 52.597656 8.828125 53.625 10.164062 54.039062 11.730469 C 54.46875 13.3125 54.257812 14.988281 53.441406 16.402344 C 52.625 17.8125 51.289062 18.847656 49.707031 19.273438 C 48.136719 19.6875 46.460938 19.476562 45.054688 18.664062 C 42.710938 17.324219 40.070312 16.617188 37.382812 16.617188 C 32.835938 16.617188 28.503906 18.632812 25.582031 22.136719 C 23.261719 24.902344 22 28.386719 22 32 C 22 35.625 23.273438 39.132812 25.59375 41.894531 C 28.515625 45.367188 32.851562 47.382812 37.382812 47.382812 C 40.089844 47.382812 42.730469 46.675781 45.066406 45.324219 Z M 28.164062 32 C 28.164062 26.910156 32.292969 22.78125 37.382812 22.78125 C 42.472656 22.78125 46.605469 26.910156 46.605469 32 C 46.605469 37.089844 42.472656 41.21875 37.382812 41.21875 C 32.292969 41.21875 28.164062 37.089844 28.164062 32 Z M 28.164062 32 "/>
</g>
</svg>
