<svg xmlns="http://www.w3.org/2000/svg" xmlns:xlink="http://www.w3.org/1999/xlink" width="64px" height="64px" viewBox="0 0 64 64" version="1.1">
<defs>
<linearGradient id="linear0" gradientUnits="userSpaceOnUse" x1="0" y1="0" x2="0" y2="1" gradientTransform="matrix(55.351351,0,0,55.351351,4.324324,4.324324)">
<stop offset="0" style="stop-color:#00b7ff;stop-opacity:1;"/>
<stop offset="0.5" style="stop-color:#dddddd;stop-opacity:1;"/>
<stop offset="1" style="stop-color:#ee42d9;stop-opacity:1;"/>
</linearGradient>
</defs>
<g id="surface1">
<path style=" stroke:none;fill-rule:nonzero;fill:url(#linear0);" d="M 32 4.328125 C 16.714844 4.328125 4.324219 16.726562 4.324219 32.011719 C 4.335938 43.539062 11.488281 53.835938 22.269531 57.890625 C 22.257812 57.496094 22.257812 56.988281 22.230469 56.699219 C 22.148438 55.78125 22.367188 51.679688 22.566406 50.4375 C 22.636719 50.003906 22.886719 49.160156 23.125 48.550781 C 23.597656 47.351562 24.132812 45.554688 24.320312 44.496094 C 24.386719 44.125 24.554688 43.417969 24.699219 42.921875 C 24.914062 42.164062 24.941406 41.835938 24.867188 40.835938 C 24.800781 39.910156 24.828125 39.503906 24.976562 39.042969 C 25.230469 38.257812 25.21875 37.988281 24.921875 37.285156 C 24.769531 36.917969 24.675781 36.390625 24.671875 35.890625 L 24.664062 35.082031 L 24.429688 35.390625 C 24.296875 35.558594 24.105469 36.050781 23.996094 36.46875 C 23.523438 38.324219 22.792969 39.40625 20.6875 41.394531 C 19.921875 42.117188 19.253906 42.835938 19.191406 42.996094 C 18.375 45.1875 18.292969 45.496094 18.363281 46.335938 C 18.390625 46.800781 18.460938 47.308594 18.511719 47.460938 C 18.621094 47.847656 18.242188 48.011719 17.933594 47.707031 C 17.808594 47.585938 17.617188 47.53125 17.5 47.578125 C 17.335938 47.644531 17.308594 47.792969 17.355469 48.328125 C 17.429688 49.136719 17.46875 49.1875 17.988281 49.171875 C 18.335938 49.171875 18.421875 49.21875 18.539062 49.550781 C 18.613281 49.765625 18.625 49.941406 18.558594 49.941406 C 18.496094 49.941406 18.445312 50.113281 18.445312 50.339844 C 18.445312 50.730469 18.421875 50.746094 17.894531 50.746094 C 17.417969 50.746094 17.335938 50.785156 17.300781 51.042969 C 17.273438 51.234375 17.164062 51.363281 16.988281 51.390625 C 16.617188 51.449219 15.609375 50.363281 15.214844 49.488281 C 14.828125 48.613281 14.902344 47.257812 15.429688 45.566406 C 15.636719 44.90625 15.875 43.996094 15.957031 43.550781 C 16.152344 42.503906 16.386719 42.027344 16.757812 41.929688 C 16.988281 41.867188 17.199219 41.53125 17.671875 40.484375 C 18.011719 39.730469 18.421875 38.71875 18.578125 38.238281 C 18.917969 37.199219 19.292969 36.582031 20.289062 35.390625 C 20.703125 34.902344 21.105469 34.273438 21.1875 33.988281 C 21.273438 33.699219 21.605469 32.863281 21.914062 32.125 L 22.488281 30.785156 L 22.566406 28.363281 C 22.613281 27.03125 22.707031 25.726562 22.789062 25.460938 C 22.863281 25.203125 23.238281 24.585938 23.613281 24.089844 C 24.015625 23.558594 24.296875 23.058594 24.296875 22.875 C 24.296875 22.496094 24.878906 21.585938 25.328125 21.269531 C 25.5 21.148438 25.808594 21.011719 26 20.960938 C 26.699219 20.792969 26.792969 20.738281 26.921875 20.484375 C 27.027344 20.269531 26.972656 20.050781 26.664062 19.386719 C 26.445312 18.929688 26.191406 18.4375 26.105469 18.289062 C 25.949219 18.058594 25.957031 18.003906 26.175781 17.839844 C 26.3125 17.738281 26.769531 17.570312 27.199219 17.484375 C 27.921875 17.320312 27.976562 17.289062 28.011719 16.917969 C 28.042969 16.5625 27.972656 16.476562 27.265625 16.03125 C 25.632812 15 25.042969 14.324219 25.054688 13.511719 C 25.058594 12.59375 25.550781 12.070312 26.957031 11.484375 C 27.671875 11.1875 27.863281 11.042969 27.890625 10.792969 C 27.914062 10.625 27.984375 10.421875 28.042969 10.355469 C 28.109375 10.28125 28.164062 9.972656 28.164062 9.671875 C 28.164062 8.746094 28.429688 7.539062 28.707031 7.207031 C 29.226562 6.585938 29.636719 6.449219 30.960938 6.460938 C 32.011719 6.460938 32.296875 6.511719 32.746094 6.761719 C 33.355469 7.105469 33.476562 7.339844 33.890625 9.0625 C 34.042969 9.691406 34.269531 10.308594 34.390625 10.429688 C 34.523438 10.542969 34.660156 10.789062 34.699219 10.96875 C 34.753906 11.214844 34.960938 11.375 35.523438 11.613281 C 36.972656 12.234375 37.753906 13.335938 37.484375 14.382812 C 37.253906 15.292969 36.0625 16.328125 35.246094 16.328125 C 35.117188 16.328125 35.011719 16.421875 35.011719 16.53125 C 35.011719 16.636719 35.089844 16.730469 35.179688 16.730469 C 35.300781 16.730469 35.367188 17.011719 35.421875 17.71875 C 35.46875 18.269531 35.570312 18.878906 35.648438 19.066406 C 35.792969 19.40625 35.835938 19.414062 36.867188 19.414062 C 37.78125 19.414062 38.082031 19.472656 38.933594 19.839844 C 39.476562 20.082031 39.972656 20.351562 40.03125 20.449219 C 40.085938 20.554688 40.390625 20.773438 40.714844 20.957031 C 41.53125 21.40625 42.699219 22.746094 43.589844 24.253906 C 44.003906 24.957031 44.460938 25.675781 44.597656 25.847656 C 44.738281 26.015625 44.847656 26.253906 44.847656 26.363281 C 44.847656 26.476562 44.976562 26.757812 45.132812 26.988281 C 45.285156 27.230469 45.417969 27.636719 45.429688 27.921875 C 45.460938 28.578125 45.945312 29.679688 47.1875 31.878906 C 47.957031 33.242188 48.207031 33.8125 48.273438 34.347656 C 48.320312 34.726562 48.394531 36.632812 48.441406 38.578125 C 48.515625 41.984375 48.53125 42.125 48.796875 42.433594 C 49.070312 42.742188 49.070312 42.742188 48.960938 46.039062 C 48.902344 47.851562 48.792969 49.496094 48.726562 49.691406 C 48.652344 49.886719 48.429688 50.136719 48.226562 50.261719 C 48.023438 50.367188 47.824219 50.570312 47.785156 50.710938 C 47.742188 50.847656 47.367188 51.132812 46.957031 51.347656 C 46.539062 51.5625 46.171875 51.785156 46.144531 51.835938 C 46.113281 51.890625 46.324219 52.4375 46.605469 53.050781 C 46.90625 53.6875 47.257812 54.207031 47.707031 54.761719 C 55.191406 49.605469 59.664062 41.09375 59.675781 32.011719 C 59.675781 16.71875 47.285156 4.324219 32 4.324219 Z M 39.460938 30.585938 C 39.414062 30.585938 39.386719 30.902344 39.402344 31.289062 C 39.421875 31.863281 39.367188 32.082031 39.121094 32.457031 C 38.945312 32.707031 38.550781 33.460938 38.234375 34.136719 L 37.660156 35.355469 L 40.03125 40.394531 C 42.644531 45.949219 42.902344 46.441406 43.164062 46.441406 C 43.265625 46.441406 43.5625 46.097656 43.828125 45.671875 L 43.835938 45.671875 C 44.097656 45.246094 44.515625 44.636719 44.761719 44.324219 C 45.0625 43.9375 45.253906 43.511719 45.363281 42.984375 C 45.441406 42.558594 45.550781 42.148438 45.597656 42.070312 C 45.910156 41.613281 45.847656 41.058594 45.328125 39.636719 C 44.738281 38 44.488281 36.753906 44.484375 35.335938 L 44.472656 34.367188 L 43.59375 33.988281 C 42.890625 33.6875 42.488281 33.382812 41.613281 32.5 C 41.011719 31.890625 40.429688 31.390625 40.320312 31.390625 C 40.210938 31.390625 40.058594 31.257812 39.976562 31.09375 C 39.828125 30.785156 39.632812 30.589844 39.460938 30.589844 Z M 39.121094 43.324219 C 38.945312 43.1875 38.972656 43.710938 38.996094 44.757812 C 39.015625 45.9375 39.410156 47.820312 39.648438 47.90625 C 39.734375 47.9375 39.941406 48.117188 40.117188 48.3125 L 40.441406 48.652344 L 40.605469 53.886719 C 40.671875 56.125 40.746094 57.351562 40.8125 58.214844 C 42.773438 57.558594 44.652344 56.6875 46.417969 55.609375 C 44.902344 54.734375 43.523438 52.988281 42.503906 50.527344 C 42.175781 49.71875 41.246094 47.664062 40.449219 45.96875 C 39.671875 44.296875 39.296875 43.472656 39.121094 43.324219 Z M 44.96875 46.949219 C 44.886719 46.914062 44.8125 46.917969 44.707031 46.988281 C 44.144531 47.3125 44.164062 47.664062 44.792969 49.121094 C 45.1875 50.03125 45.429688 50.421875 45.488281 50.3125 C 45.542969 50.210938 45.589844 49.585938 45.589844 48.90625 C 45.589844 47.773438 45.570312 47.636719 45.28125 47.261719 C 45.144531 47.089844 45.054688 46.988281 44.96875 46.949219 Z M 30.582031 53.703125 C 30.457031 53.703125 30.40625 53.855469 30.402344 54.207031 C 30.402344 54.703125 30.011719 57.054688 29.769531 58.039062 C 29.734375 58.1875 29.609375 58.988281 29.511719 59.566406 C 30.214844 59.632812 30.933594 59.664062 31.644531 59.675781 C 31.636719 58.769531 31.363281 57.148438 31.089844 56.445312 C 30.949219 56.085938 30.894531 55.625 30.917969 54.984375 C 30.957031 53.988281 30.878906 53.703125 30.582031 53.703125 Z M 30.582031 53.703125 "/>
</g>
</svg>
