<svg xmlns="http://www.w3.org/2000/svg" xmlns:xlink="http://www.w3.org/1999/xlink" width="64px" height="64px" viewBox="0 0 64 64" version="1.1">
<g id="surface1">
<path style=" stroke:none;fill-rule:nonzero;fill:rgb(30.980393%,30.980393%,30.980393%);fill-opacity:1;" d="M 55.351562 32 C 55.351562 44.894531 44.894531 55.351562 32 55.351562 C 19.105469 55.351562 8.648438 44.894531 8.648438 32 C 8.648438 19.105469 19.105469 8.648438 32 8.648438 C 44.894531 8.648438 55.351562 19.105469 55.351562 32 Z M 55.351562 32 "/>
<path style=" stroke:none;fill-rule:nonzero;fill:rgb(32.549021%,59.215689%,91.37255%);fill-opacity:1;" d="M 18.800781 22.863281 L 18.800781 41.136719 L 45.199219 41.136719 L 45.199219 22.863281 Z M 24.890625 23.878906 L 26.921875 23.878906 L 26.921875 25.910156 L 24.890625 25.910156 Z M 28.953125 23.878906 L 30.984375 23.878906 L 30.984375 25.910156 L 28.953125 25.910156 Z M 33.011719 23.878906 L 35.042969 23.878906 L 35.042969 25.910156 L 33.011719 25.910156 Z M 37.078125 23.878906 L 39.109375 23.878906 L 39.109375 25.910156 L 37.078125 25.910156 Z M 24.890625 38.089844 L 26.921875 38.089844 L 26.921875 40.121094 L 24.890625 40.121094 Z M 28.953125 38.089844 L 30.984375 38.089844 L 30.984375 40.121094 L 28.953125 40.121094 Z M 33.011719 38.089844 L 35.042969 38.089844 L 35.042969 40.121094 L 33.011719 40.121094 Z M 37.078125 38.089844 L 39.109375 38.089844 L 39.109375 40.121094 L 37.078125 40.121094 Z M 37.078125 38.089844 "/>
<path style=" stroke:none;fill-rule:nonzero;fill:rgb(100%,100%,100%);fill-opacity:1;" d="M 18.800781 26.921875 L 18.800781 37.078125 L 25.910156 37.078125 L 25.910156 26.921875 Z M 27.9375 26.921875 L 27.9375 37.078125 L 36.0625 37.078125 L 36.0625 26.921875 Z M 38.089844 26.921875 L 38.089844 37.078125 L 45.199219 37.078125 L 45.199219 26.921875 Z M 38.089844 26.921875 "/>
<path style=" stroke:none;fill-rule:nonzero;fill:rgb(97.647059%,89.019608%,49.019608%);fill-opacity:1;" d="M 22.863281 19.816406 L 22.863281 44.183594 L 26.921875 44.183594 L 26.921875 42.152344 L 24.890625 42.152344 L 24.890625 21.847656 L 26.921875 21.847656 L 26.921875 19.816406 Z M 37.078125 19.816406 L 37.078125 21.847656 L 39.109375 21.847656 L 39.109375 42.152344 L 37.078125 42.152344 L 37.078125 44.183594 L 41.136719 44.183594 L 41.136719 19.816406 Z M 37.078125 19.816406 "/>
</g>
</svg>
