<svg xmlns="http://www.w3.org/2000/svg" xmlns:xlink="http://www.w3.org/1999/xlink" width="64px" height="64px" viewBox="0 0 64 64" version="1.1">
<g id="surface1">
<path style=" stroke:none;fill-rule:evenodd;fill:rgb(20.784314%,62.7451%,95.294118%);fill-opacity:1;" d="M 42.109375 9.527344 C 41.628906 9.582031 41.160156 9.746094 40.6875 10.058594 C 41.421875 10.96875 39.941406 19.5625 41.796875 20.730469 L 43.242188 21.636719 L 43.242188 42.363281 L 40.96875 44.066406 C 39.21875 45.382812 41.128906 52.941406 40.667969 53.914062 C 41.175781 54.222656 41.9375 54.554688 42.597656 54.472656 C 42.8125 54.445312 43.027344 54.386719 43.238281 54.285156 L 52.488281 49.75 C 53.496094 49.253906 54.511719 48.84375 54.511719 47.722656 L 54.511719 16.28125 C 54.511719 15.15625 53.496094 14.746094 52.488281 14.253906 L 43.238281 9.71875 C 43.027344 9.613281 42.8125 9.554688 42.597656 9.527344 C 42.433594 9.507812 42.269531 9.511719 42.109375 9.527344 Z M 42.109375 9.527344 "/>
<path style=" stroke:none;fill-rule:evenodd;fill:rgb(6.666667%,37.254903%,71.764708%);fill-opacity:1;" d="M 10.011719 38.289062 L 40.109375 10.476562 C 41.472656 9.210938 43.242188 9.664062 43.242188 12.273438 L 43.242188 21.636719 L 15.417969 42.914062 C 14.933594 43.296875 13.664062 44.210938 12.5625 43.160156 L 9.742188 40.484375 C 9.007812 39.78125 9.425781 38.835938 10.011719 38.289062 Z M 10.011719 38.289062 "/>
<path style=" stroke:none;fill-rule:evenodd;fill:rgb(10.196079%,50.588238%,85.490197%);fill-opacity:1;" d="M 10.011719 25.695312 L 40.109375 53.511719 C 41.472656 54.769531 43.242188 54.324219 43.242188 51.710938 L 43.242188 42.351562 L 15.417969 21.070312 C 14.933594 20.6875 13.664062 19.777344 12.5625 20.828125 L 9.742188 23.503906 C 9.007812 24.207031 9.425781 25.152344 10.011719 25.691406 Z M 10.011719 25.695312 "/>
</g>
</svg>
