<svg xmlns="http://www.w3.org/2000/svg" xmlns:xlink="http://www.w3.org/1999/xlink" width="64px" height="64px" viewBox="0 0 64 64" version="1.1">
<defs>
<linearGradient id="linear0" gradientUnits="userSpaceOnUse" x1="0" y1="0" x2="0" y2="1" gradientTransform="matrix(51.891892,0,0,48.837838,6.054054,7.378379)">
<stop offset="0" style="stop-color:#ffae00;stop-opacity:1;"/>
<stop offset="0.5" style="stop-color:#dddddd;stop-opacity:1;"/>
<stop offset="1" style="stop-color:#bf1d1d;stop-opacity:1;"/>
</linearGradient>
</defs>
<g id="surface1">
<path style=" stroke:none;fill-rule:nonzero;fill:url(#linear0);" d="M 51.839844 7.378906 C 48.46875 7.378906 45.734375 10.113281 45.734375 13.484375 C 45.738281 14.296875 45.90625 15.109375 46.226562 15.855469 C 46.273438 16.03125 46.3125 16.238281 46.367188 16.386719 C 47.644531 21.3125 46.339844 25.160156 43.4375 28.664062 C 39.367188 32.761719 33.523438 32.835938 29.476562 28.828125 L 17.136719 9.3125 C 15.886719 7.96875 14.148438 7.484375 12.554688 7.472656 C 9.132812 7.417969 6.757812 10.152344 6.191406 13.085938 C 5.773438 15.433594 5.585938 15.023438 16.648438 35.125 C 23.632812 47.8125 26.949219 53.664062 27.496094 54.238281 C 29.421875 56.273438 32.171875 56.773438 34.742188 55.566406 C 35.417969 55.246094 36.179688 54.675781 36.664062 54.125 C 37.625 53.042969 57.113281 17.21875 57.433594 15.988281 C 57.8125 15.164062 57.894531 14.300781 57.945312 13.484375 C 57.945312 10.113281 55.210938 7.378906 51.839844 7.378906 Z M 51.839844 7.378906 "/>
</g>
</svg>
