<svg xmlns="http://www.w3.org/2000/svg" xmlns:xlink="http://www.w3.org/1999/xlink" width="64px" height="64px" viewBox="0 0 64 64" version="1.1">
<defs>
<linearGradient id="linear0" gradientUnits="userSpaceOnUse" x1="0" y1="0" x2="0" y2="1" gradientTransform="matrix(55.351351,0,0,32.450449,4.324324,15.774776)">
<stop offset="0" style="stop-color:#05f7ff;stop-opacity:1;"/>
<stop offset="0.5" style="stop-color:#dddddd;stop-opacity:1;"/>
<stop offset="1" style="stop-color:#e6ff05;stop-opacity:1;"/>
</linearGradient>
</defs>
<g id="surface1">
<path style=" stroke:none;fill-rule:evenodd;fill:url(#linear0);" d="M 31.40625 48.085938 L 34.714844 48.085938 C 34.714844 48.085938 35.714844 47.976562 36.226562 47.410156 C 36.691406 46.886719 36.679688 45.917969 36.679688 45.917969 C 36.679688 45.917969 36.617188 41.355469 38.671875 40.6875 C 40.707031 40.015625 43.3125 45.089844 46.082031 47.039062 C 48.171875 48.511719 49.757812 48.191406 49.757812 48.191406 L 57.148438 48.085938 C 57.148438 48.085938 61.011719 47.839844 59.179688 44.714844 C 59.03125 44.460938 58.117188 42.40625 53.6875 38.179688 C 49.050781 33.765625 49.671875 34.484375 55.253906 26.835938 C 58.652344 22.175781 60.011719 19.335938 59.589844 18.117188 C 59.1875 16.957031 56.6875 17.261719 56.6875 17.261719 L 48.363281 17.3125 C 48.363281 17.3125 47.742188 17.230469 47.285156 17.511719 C 46.835938 17.785156 46.550781 18.429688 46.550781 18.429688 C 46.550781 18.429688 45.234375 22.03125 43.472656 25.09375 C 39.769531 31.558594 38.289062 31.902344 37.6875 31.5 C 36.269531 30.566406 36.625 27.742188 36.625 25.738281 C 36.625 19.46875 37.550781 16.855469 34.824219 16.179688 C 33.917969 15.957031 33.253906 15.808594 30.9375 15.785156 C 27.96875 15.753906 25.460938 15.792969 24.03125 16.511719 C 23.085938 16.988281 22.355469 18.050781 22.800781 18.109375 C 23.351562 18.1875 24.59375 18.457031 25.257812 19.378906 C 26.113281 20.570312 26.082031 23.246094 26.082031 23.246094 C 26.082031 23.246094 26.570312 30.621094 24.9375 31.539062 C 23.8125 32.171875 22.273438 30.886719 18.972656 25.015625 C 17.28125 22.015625 16 18.691406 16 18.691406 C 16 18.691406 15.753906 18.070312 15.3125 17.738281 C 14.785156 17.335938 14.039062 17.207031 14.039062 17.207031 L 6.132812 17.261719 C 6.132812 17.261719 4.941406 17.296875 4.503906 17.828125 C 4.117188 18.296875 4.472656 19.273438 4.472656 19.273438 C 4.472656 19.273438 10.664062 34.160156 17.675781 41.664062 C 24.105469 48.539062 31.40625 48.089844 31.40625 48.089844 "/>
</g>
</svg>
