<svg xmlns="http://www.w3.org/2000/svg" xmlns:xlink="http://www.w3.org/1999/xlink" width="64px" height="64px" viewBox="0 0 64 64" version="1.1">
<defs>
<linearGradient id="linear0" gradientUnits="userSpaceOnUse" x1="0" y1="128" x2="128" y2="0" gradientTransform="matrix(0.432432,0,0,0.432432,4.324324,4.324324)">
<stop offset="0" style="stop-color:rgb(85.882354%,85.882354%,85.882354%);stop-opacity:1;"/>
<stop offset="0.5" style="stop-color:#dddddd;stop-opacity:1;"/>
<stop offset="1" style="stop-color:rgb(45.882353%,45.882353%,45.882353%);stop-opacity:1;"/>
</linearGradient>
</defs>
<g id="surface1">
<path style=" stroke:none;fill-rule:nonzero;fill:url(#linear0);" d="M 35.261719 15.695312 C 34.871094 14.316406 34.113281 13.101562 32.683594 13.101562 L 31.332031 13.101562 C 29.898438 13.101562 29.132812 14.320312 28.738281 15.695312 L 20.410156 44.613281 L 14.480469 44.613281 C 12.738281 44.613281 11.332031 46.011719 11.332031 47.75 C 11.332031 49.488281 12.738281 50.898438 14.480469 50.898438 L 49.535156 50.898438 C 51.273438 50.898438 52.667969 49.488281 52.667969 47.75 C 52.667969 46.011719 51.273438 44.613281 49.535156 44.613281 L 43.492188 44.613281 Z M 35.261719 15.695312 "/>
<path style=" stroke:none;fill-rule:nonzero;fill:rgb(100%,100%,100%);fill-opacity:1;" d="M 51.65625 31.300781 C 51.730469 31.398438 52.195312 32.132812 52.195312 32.132812 L 51.3125 33.210938 L 51.113281 34.164062 L 52.070312 34.386719 L 52.363281 35.292969 L 53.589844 35.242188 L 54.253906 35.90625 L 54.765625 36.101562 L 55.796875 35.636719 L 57.117188 35.832031 L 57.585938 35.339844 L 57.804688 33.75 L 59.300781 33.136719 L 59.03125 32.0625 L 59.421875 31.078125 L 58.835938 30.125 L 58.195312 29.902344 L 57.757812 29.144531 L 56.800781 28.875 L 56.652344 27.941406 L 55.941406 27.671875 L 55.011719 28.335938 L 54.546875 26.839844 L 53.664062 27.28125 L 52.929688 29.046875 L 52.21875 29.191406 L 52.390625 30.488281 Z M 51.65625 31.300781 "/>
<path style=" stroke:none;fill-rule:nonzero;fill:rgb(100%,100%,100%);fill-opacity:1;" d="M 38.9375 25.003906 L 39.945312 24.488281 L 40.507812 24.90625 L 41.539062 25.027344 L 41.90625 24.316406 L 42.515625 22.921875 L 42.863281 21.621094 L 43.082031 20.25 L 43.253906 18.832031 L 42.394531 18.242188 L 42.417969 17.136719 L 41.78125 16.527344 L 40.703125 16.136719 L 39.210938 15.546875 L 37.664062 14.886719 L 36.441406 14.222656 L 36.269531 13.023438 L 34.628906 13.5625 L 34.164062 13.488281 L 33.867188 12.753906 L 32.988281 13.121094 L 32.375 12.414062 L 32.007812 11.96875 L 31.148438 12.949219 L 30.09375 13.414062 L 28.210938 14.050781 L 27.375 13.511719 L 26.714844 14.246094 L 22.941406 14.9375 L 22.011719 16.867188 L 19.878906 18.511719 L 21.054688 19.222656 L 20.835938 20.46875 L 21.988281 20.273438 L 21.9375 21.964844 L 23.433594 22.503906 L 27.523438 20.007812 C 27.523438 20.007812 29.261719 19.390625 29.335938 19.269531 C 29.410156 19.148438 29.851562 18.339844 29.851562 18.339844 L 30.386719 19.050781 L 32.691406 18.976562 L 34.410156 20.007812 L 34.578125 20.835938 L 37.519531 22.085938 L 38.449219 24.585938 Z M 38.9375 25.003906 "/>
<path style="fill-rule:evenodd;fill:rgb(100%,0%,0%);fill-opacity:1;stroke-width:0.237696;stroke-linecap:butt;stroke-linejoin:miter;stroke:rgb(0%,0%,0%);stroke-opacity:1;stroke-miterlimit:4;" d="M 46.954346 21.995605 C 47.7854 20.044434 60.27832 5.699707 70.043213 4.344727 C 79.826172 2.980713 86.682373 10.622803 88.037354 11.815186 C 89.401367 12.998535 94.667725 26.756104 94.667725 26.756104 L 99.238525 42.202881 L 102.300781 49.16748 L 105.191406 53.747314 L 107.558105 56.466309 L 111.469482 58.164551 C 111.469482 58.164551 111.026855 57.333496 110.430664 58.363281 C 109.834473 59.375 113.249023 61.588135 107.9104 62.473389 C 102.526611 63.367676 97.630615 61.389404 91.262207 57.830322 C 84.902832 54.262207 84.722168 50.486328 83.62915 47.975098 C 82.5271 45.4729 86.854004 47.8125 86.854004 47.8125 L 87.188232 45.265137 L 88.714844 41.868652 L 90.413086 34.560791 L 88.714844 32.690918 L 87.703125 31.85083 L 88.543213 29.303467 L 76.49292 24.20874 L 73.782959 20.478027 L 69.871582 21.995605 L 68.516602 19.285645 L 65.625977 20.478027 L 64.433594 17.759033 L 63.250244 17.587402 L 62.238525 20.640625 L 54.930664 22.519531 L 53.56665 20.812256 L 52.049072 22.85376 C 53.14209 21.607178 46.114258 23.964844 46.954346 21.995605 Z M 46.954346 21.995605 " transform="matrix(0.432432,0,0,0.432432,4.324324,4.324324)"/>
<path style=" stroke:none;fill-rule:nonzero;fill:rgb(0%,0%,0%);fill-opacity:1;" d="M 54.0625 36.183594 C 53.9375 36.09375 53.835938 35.9375 53.835938 35.835938 C 53.835938 35.488281 53.617188 35.425781 52.980469 35.585938 C 52.265625 35.769531 52.136719 35.699219 52.011719 35.074219 C 51.929688 34.660156 51.914062 34.644531 51.488281 34.613281 C 51.128906 34.585938 51.03125 34.539062 50.953125 34.324219 C 50.824219 33.988281 50.828125 33.492188 50.957031 33.414062 C 51.011719 33.378906 51.0625 33.238281 51.0625 33.097656 C 51.0625 32.917969 51.175781 32.777344 51.46875 32.589844 C 51.941406 32.292969 51.976562 32.148438 51.652344 31.847656 C 51.480469 31.691406 51.21875 31.621094 50.648438 31.570312 C 49.191406 31.445312 48.4375 31.339844 48.148438 31.21875 C 47.988281 31.15625 47.648438 31.101562 47.386719 31.101562 C 46.957031 31.101562 46.242188 30.941406 45.457031 30.667969 C 45.289062 30.613281 44.960938 30.53125 44.734375 30.492188 C 44.3125 30.417969 43.710938 30.046875 43.613281 29.800781 C 43.585938 29.722656 43.5 29.664062 43.421875 29.664062 C 43.34375 29.664062 43.109375 29.476562 42.898438 29.25 C 42.691406 29.023438 42.449219 28.835938 42.363281 28.835938 C 42.179688 28.835938 41.398438 28.0625 41.398438 27.875 C 41.398438 27.800781 41.304688 27.65625 41.191406 27.554688 C 41.078125 27.453125 40.988281 27.320312 40.988281 27.265625 C 40.988281 27.210938 40.914062 27.113281 40.828125 27.046875 C 40.738281 26.984375 40.628906 26.679688 40.585938 26.367188 C 40.539062 26.0625 40.425781 25.667969 40.335938 25.496094 C 40.238281 25.328125 40.164062 25.136719 40.164062 25.066406 C 40.164062 24.835938 39.960938 24.816406 39.675781 25.011719 C 39.3125 25.269531 38.65625 25.484375 38.460938 25.410156 C 38.382812 25.375 38.3125 25.21875 38.3125 25.054688 C 38.3125 24.890625 38.222656 24.675781 38.113281 24.578125 C 37.972656 24.453125 37.902344 24.234375 37.882812 23.867188 C 37.855469 23.390625 37.824219 23.335938 37.59375 23.304688 C 37.265625 23.261719 36.976562 23.003906 36.976562 22.757812 C 36.976562 22.652344 36.882812 22.488281 36.761719 22.386719 C 36.644531 22.289062 36.503906 22.101562 36.453125 21.964844 C 36.378906 21.777344 36.304688 21.738281 36.113281 21.789062 C 35.648438 21.902344 35.21875 21.742188 35.074219 21.398438 C 34.957031 21.113281 34.898438 21.085938 34.566406 21.113281 C 34.15625 21.148438 33.894531 20.996094 33.894531 20.71875 C 33.894531 20.621094 33.808594 20.429688 33.699219 20.289062 C 33.589844 20.15625 33.488281 19.933594 33.464844 19.792969 C 33.425781 19.511719 33.023438 19.371094 32.289062 19.378906 C 32.03125 19.382812 31.8125 19.320312 31.738281 19.230469 C 31.570312 19.03125 31.378906 19.035156 31.070312 19.238281 C 30.722656 19.460938 30.167969 19.390625 30.039062 19.097656 C 29.929688 18.839844 29.785156 18.789062 29.785156 19.011719 C 29.785156 19.1875 29.011719 19.894531 28.820312 19.894531 C 28.742188 19.894531 28.507812 20.035156 28.289062 20.203125 C 28.011719 20.425781 27.792969 20.511719 27.511719 20.511719 C 27.214844 20.511719 27.109375 20.5625 27.0625 20.710938 C 27.023438 20.828125 26.726562 21.042969 26.359375 21.214844 C 26.011719 21.382812 25.613281 21.644531 25.484375 21.796875 C 25.28125 22.03125 25.1875 22.0625 24.898438 22.011719 C 24.613281 21.957031 24.53125 21.984375 24.4375 22.160156 C 24.152344 22.6875 23.164062 22.957031 22.78125 22.609375 C 22.679688 22.515625 22.445312 22.414062 22.261719 22.371094 C 21.761719 22.269531 21.539062 21.832031 21.6875 21.261719 C 21.835938 20.714844 21.726562 20.558594 21.304688 20.714844 C 20.6875 20.953125 20.359375 20.488281 20.671875 19.832031 C 20.957031 19.238281 20.910156 19.136719 20.378906 19.210938 C 19.988281 19.261719 19.886719 19.238281 19.710938 19.050781 C 19.449219 18.769531 19.449219 18.742188 19.753906 18.261719 C 20.023438 17.835938 20.425781 17.476562 20.75 17.371094 C 21.050781 17.277344 20.9375 16.988281 20.574219 16.910156 C 20.398438 16.875 20.203125 16.8125 20.136719 16.769531 C 19.96875 16.667969 19.988281 16.347656 20.167969 16.199219 C 20.386719 16.015625 21.085938 15.949219 21.445312 16.074219 C 21.738281 16.175781 21.777344 16.160156 21.988281 15.855469 C 22.113281 15.675781 22.28125 15.480469 22.355469 15.425781 C 22.425781 15.367188 22.566406 15.160156 22.664062 14.960938 C 22.8125 14.667969 22.914062 14.59375 23.234375 14.550781 C 23.5 14.515625 23.675781 14.414062 23.796875 14.234375 C 23.894531 14.085938 24.066406 13.832031 24.179688 13.664062 C 24.292969 13.5 24.71875 13.0625 25.125 12.699219 C 25.53125 12.332031 25.890625 11.9375 25.925781 11.820312 C 25.988281 11.625 26.910156 10.710938 28.457031 9.3125 C 28.773438 9.03125 29.105469 8.792969 29.199219 8.792969 C 29.289062 8.792969 29.414062 8.707031 29.46875 8.597656 C 29.527344 8.488281 29.746094 8.296875 29.960938 8.167969 C 30.171875 8.039062 30.515625 7.804688 30.726562 7.640625 C 30.933594 7.484375 31.257812 7.300781 31.445312 7.238281 C 31.632812 7.171875 31.902344 7.023438 32.042969 6.902344 C 32.1875 6.78125 32.648438 6.527344 33.070312 6.335938 C 33.496094 6.148438 33.992188 5.925781 34.179688 5.835938 C 34.460938 5.703125 34.613281 5.695312 35.164062 5.796875 C 35.527344 5.863281 35.964844 5.914062 36.148438 5.914062 C 36.472656 5.914062 37.578125 6.292969 38.125 6.589844 C 38.273438 6.671875 38.460938 6.738281 38.539062 6.738281 C 38.617188 6.738281 39.257812 7.039062 39.960938 7.402344 C 41.113281 7.996094 41.316406 8.144531 41.972656 8.863281 C 42.816406 9.800781 43.585938 10.894531 43.863281 11.570312 C 43.921875 11.710938 44.042969 11.960938 44.136719 12.117188 C 44.222656 12.28125 44.359375 12.648438 44.429688 12.941406 C 44.574219 13.511719 44.761719 14.085938 44.90625 14.367188 C 44.957031 14.46875 44.996094 14.636719 44.996094 14.75 C 44.996094 14.859375 45.039062 14.976562 45.085938 15.007812 C 45.140625 15.039062 45.214844 15.261719 45.257812 15.503906 C 45.292969 15.742188 45.390625 16.0625 45.46875 16.210938 C 45.675781 16.621094 46.121094 18.023438 46.191406 18.5 C 46.253906 18.914062 46.722656 20.207031 47 20.722656 C 47.078125 20.867188 47.195312 21.308594 47.261719 21.699219 C 47.335938 22.121094 47.570312 22.796875 47.835938 23.351562 C 48.082031 23.863281 48.285156 24.347656 48.285156 24.421875 C 48.285156 24.496094 48.34375 24.628906 48.421875 24.71875 C 48.496094 24.808594 48.621094 25.042969 48.695312 25.238281 C 48.773438 25.4375 48.941406 25.734375 49.074219 25.890625 C 49.207031 26.050781 49.3125 26.230469 49.3125 26.289062 C 49.3125 26.34375 49.429688 26.53125 49.566406 26.699219 C 49.710938 26.867188 49.824219 27.0625 49.824219 27.128906 C 49.824219 27.195312 50.0625 27.484375 50.347656 27.761719 C 50.636719 28.042969 50.933594 28.394531 51.011719 28.539062 C 51.109375 28.722656 51.296875 28.851562 51.613281 28.9375 C 52.039062 29.058594 52.097656 29.050781 52.351562 28.851562 C 52.503906 28.730469 52.691406 28.632812 52.765625 28.632812 C 52.84375 28.632812 52.933594 28.507812 52.960938 28.351562 C 53.125 27.5625 53.253906 27.289062 53.664062 26.84375 C 54.113281 26.363281 54.117188 26.363281 54.460938 26.503906 C 54.734375 26.613281 54.855469 26.757812 55.011719 27.148438 C 55.125 27.429688 55.230469 27.675781 55.246094 27.699219 C 55.261719 27.726562 55.4375 27.664062 55.636719 27.570312 C 55.835938 27.476562 56.085938 27.398438 56.195312 27.398438 C 56.511719 27.398438 56.992188 27.882812 57.089844 28.300781 C 57.167969 28.621094 57.261719 28.71875 57.664062 28.914062 C 57.949219 29.046875 58.207031 29.261719 58.296875 29.4375 C 58.382812 29.601562 58.585938 29.789062 58.753906 29.863281 C 59.261719 30.070312 59.511719 30.421875 59.566406 30.996094 C 59.609375 31.40625 59.578125 31.5625 59.429688 31.722656 C 59.253906 31.917969 59.253906 31.945312 59.414062 32.226562 C 59.613281 32.554688 59.640625 32.972656 59.492188 33.253906 C 59.4375 33.355469 59.125 33.542969 58.796875 33.671875 C 57.980469 33.996094 57.945312 34.035156 57.945312 34.613281 C 57.945312 35.257812 57.628906 35.902344 57.265625 35.992188 C 57.121094 36.03125 56.707031 36.039062 56.339844 36.007812 C 55.824219 35.964844 55.601562 35.996094 55.300781 36.148438 C 54.839844 36.386719 54.367188 36.394531 54.0625 36.183594 Z M 55.320312 35.5625 C 55.570312 35.238281 55.585938 35.167969 55.480469 34.902344 C 55.335938 34.5625 55.410156 34.386719 55.6875 34.386719 C 55.925781 34.386719 56.09375 34.683594 56.09375 35.097656 C 56.09375 35.582031 56.734375 35.804688 57.183594 35.476562 C 57.351562 35.351562 57.382812 35.203125 57.382812 34.445312 C 57.382812 33.453125 57.441406 33.359375 58.054688 33.378906 C 59.058594 33.414062 59.480469 32.535156 58.550781 32.34375 C 58.1875 32.269531 57.988281 31.921875 58.304688 31.921875 C 58.394531 31.921875 58.609375 31.851562 58.773438 31.765625 C 59.019531 31.636719 59.078125 31.542969 59.078125 31.246094 C 59.078125 30.828125 58.816406 30.378906 58.578125 30.382812 C 58.484375 30.382812 58.269531 30.472656 58.101562 30.585938 C 57.441406 31.019531 57.085938 30.6875 57.625 30.136719 C 57.910156 29.84375 57.929688 29.78125 57.808594 29.613281 C 57.6875 29.445312 57.578125 29.433594 56.84375 29.496094 C 55.832031 29.585938 55.707031 29.457031 56.238281 28.863281 C 56.515625 28.550781 56.566406 28.433594 56.496094 28.246094 C 56.289062 27.695312 55.664062 27.90625 55.355469 28.632812 C 54.984375 29.496094 54.65625 29.375 54.65625 28.371094 C 54.65625 27.109375 54.292969 26.835938 53.730469 27.671875 C 53.386719 28.183594 53.375 28.375 53.585938 29.746094 C 53.699219 30.511719 53.371094 30.5625 52.886719 29.863281 C 52.730469 29.636719 52.558594 29.457031 52.5 29.457031 C 52.3125 29.457031 52.386719 29.738281 52.660156 30.0625 C 52.96875 30.429688 52.953125 30.726562 52.621094 30.773438 C 52.355469 30.8125 52.011719 31.269531 52.148438 31.40625 C 52.199219 31.457031 52.402344 31.511719 52.601562 31.53125 C 53.167969 31.582031 53.125 31.855469 52.480469 32.265625 C 51.589844 32.835938 51.0625 33.875 51.625 33.957031 C 51.757812 33.976562 51.980469 33.835938 52.238281 33.570312 C 52.832031 32.960938 53.277344 33.0625 52.855469 33.710938 C 52.617188 34.074219 52.539062 34.929688 52.730469 35.085938 C 52.988281 35.300781 53.199219 35.117188 53.417969 34.507812 C 53.703125 33.730469 53.769531 33.625 54.011719 33.585938 C 54.210938 33.558594 54.214844 33.597656 54.164062 34.519531 C 54.117188 35.476562 54.117188 35.488281 54.402344 35.707031 C 54.796875 36.019531 55 35.988281 55.320312 35.5625 Z M 51.835938 30.875 C 52.148438 30.601562 52.199219 30.5 52.148438 30.25 C 52.066406 29.84375 51.703125 29.351562 51.484375 29.351562 C 51.28125 29.351562 49.6875 27.84375 49.308594 27.296875 C 49.171875 27.097656 48.984375 26.855469 48.890625 26.753906 C 48.796875 26.648438 48.640625 26.371094 48.542969 26.136719 C 48.449219 25.898438 48.085938 25.101562 47.746094 24.367188 C 47 22.761719 46.960938 22.675781 46.488281 21.4375 C 46.28125 20.902344 46.042969 20.3125 45.960938 20.125 C 45.882812 19.9375 45.816406 19.6875 45.816406 19.5625 C 45.816406 19.34375 45.695312 18.914062 45.449219 18.25 C 45.378906 18.054688 45.269531 17.660156 45.210938 17.378906 C 44.921875 15.945312 44.613281 14.742188 44.363281 14.101562 C 44.261719 13.824219 44.171875 13.511719 44.171875 13.40625 C 44.171875 13.296875 44.011719 12.886719 43.8125 12.496094 C 43.613281 12.101562 43.453125 11.714844 43.453125 11.636719 C 43.453125 11.558594 43.386719 11.4375 43.3125 11.375 C 43.234375 11.308594 43.03125 10.96875 42.859375 10.613281 C 42.628906 10.140625 42.289062 9.71875 41.527344 8.976562 C 40.960938 8.421875 40.445312 7.972656 40.382812 7.972656 C 40.222656 7.972656 38.71875 7.261719 38.519531 7.097656 C 38.339844 6.949219 37.261719 6.617188 36.207031 6.386719 C 35.199219 6.167969 33.820312 6.382812 33.089844 6.871094 C 32.882812 7.011719 32.414062 7.292969 32.042969 7.5 C 30.664062 8.285156 29.035156 9.414062 28.488281 9.960938 C 28.257812 10.195312 27.410156 11.011719 26.597656 11.777344 C 25.789062 12.539062 25.058594 13.273438 24.964844 13.410156 C 24.8125 13.644531 24.816406 13.664062 25.050781 13.820312 C 25.34375 14.015625 26.492188 14.074219 26.492188 13.894531 C 26.492188 13.753906 27.179688 13.113281 27.328125 13.113281 C 27.386719 13.113281 27.566406 13.25 27.726562 13.417969 C 28.089844 13.8125 28.539062 13.828125 29.289062 13.480469 C 29.589844 13.339844 30.097656 13.152344 30.425781 13.058594 C 30.75 12.960938 31.015625 12.835938 31.015625 12.773438 C 31.015625 12.539062 31.554688 11.890625 31.847656 11.769531 C 32.113281 11.664062 32.179688 11.671875 32.363281 11.835938 C 32.484375 11.945312 32.648438 12.210938 32.738281 12.421875 C 32.820312 12.636719 32.917969 12.796875 32.957031 12.78125 C 32.988281 12.761719 33.191406 12.660156 33.40625 12.550781 C 33.738281 12.382812 33.820312 12.375 34.050781 12.496094 C 34.191406 12.574219 34.335938 12.738281 34.367188 12.863281 C 34.398438 12.992188 34.503906 13.167969 34.601562 13.253906 C 34.757812 13.394531 34.824219 13.386719 35.285156 13.167969 C 36.332031 12.664062 36.496094 12.714844 36.722656 13.605469 C 36.835938 14.054688 36.875 14.09375 37.230469 14.152344 C 37.601562 14.210938 37.792969 14.371094 37.796875 14.617188 C 37.800781 14.769531 38.042969 14.859375 38.460938 14.859375 C 38.6875 14.859375 38.96875 14.988281 39.347656 15.265625 C 40.242188 15.925781 40.3125 15.949219 40.632812 15.695312 C 40.789062 15.574219 41.011719 15.476562 41.136719 15.476562 C 41.417969 15.476562 41.765625 15.84375 41.726562 16.09375 C 41.707031 16.226562 41.796875 16.3125 42.046875 16.394531 C 42.730469 16.621094 42.820312 16.878906 42.574219 17.863281 C 42.519531 18.085938 42.539062 18.148438 42.664062 18.148438 C 43.253906 18.148438 43.636719 18.703125 43.5 19.355469 C 43.402344 19.820312 43.425781 20 43.613281 20.210938 C 43.769531 20.386719 43.8125 20.90625 43.683594 21.082031 C 43.640625 21.136719 43.480469 21.265625 43.324219 21.363281 C 43.089844 21.511719 43.039062 21.617188 43.039062 21.980469 C 43.039062 22.21875 42.964844 22.503906 42.886719 22.613281 C 42.800781 22.722656 42.734375 22.9375 42.734375 23.089844 C 42.734375 23.261719 42.589844 23.539062 42.375 23.800781 C 42.175781 24.039062 42.011719 24.34375 42.011719 24.488281 C 42.011719 25.132812 41.460938 25.597656 40.996094 25.347656 C 40.710938 25.195312 40.710938 25.363281 40.992188 26.085938 C 41.214844 26.648438 41.910156 27.539062 42.722656 28.308594 C 43.484375 29.023438 43.59375 29.085938 45.011719 29.554688 C 45.328125 29.664062 45.675781 29.796875 45.78125 29.855469 C 46.421875 30.210938 47.609375 30.625 48.179688 30.691406 C 48.546875 30.734375 48.980469 30.820312 49.136719 30.882812 C 49.296875 30.945312 49.785156 30.996094 50.214844 31 C 50.652344 31 51.078125 31.042969 51.164062 31.101562 C 51.386719 31.246094 51.429688 31.234375 51.835938 30.875 Z M 39.703125 24.203125 C 39.742188 24.082031 39.863281 24.007812 40.015625 24.007812 C 40.210938 24.007812 40.265625 24.0625 40.265625 24.246094 C 40.265625 24.621094 40.386719 24.65625 40.636719 24.34375 L 40.863281 24.0625 L 41.054688 24.390625 C 41.382812 24.96875 41.757812 24.734375 41.644531 24.019531 C 41.582031 23.636719 41.597656 23.589844 41.847656 23.496094 C 42.289062 23.332031 42.296875 23.101562 41.875 22.703125 C 41.667969 22.511719 41.5 22.3125 41.5 22.273438 C 41.5 22.082031 41.757812 21.980469 42.113281 22.027344 C 42.613281 22.089844 42.738281 21.839844 42.421875 21.414062 C 42.15625 21.054688 42.191406 20.710938 42.511719 20.554688 C 42.660156 20.480469 42.710938 20.40625 42.636719 20.363281 C 42.457031 20.25 42.511719 19.960938 42.785156 19.585938 C 43.289062 18.910156 43.050781 18.632812 42.203125 18.90625 C 41.449219 19.148438 41.332031 19.128906 41.253906 18.742188 C 41.195312 18.449219 41.242188 18.363281 41.726562 17.871094 C 42.230469 17.363281 42.253906 17.3125 42.089844 17.15625 C 41.945312 17.011719 41.859375 17 41.546875 17.09375 C 41.226562 17.191406 41.152344 17.183594 40.980469 17.011719 C 40.867188 16.902344 40.78125 16.738281 40.78125 16.644531 C 40.78125 16.484375 40.664062 16.484375 40.25 16.65625 C 40.136719 16.699219 40.011719 16.648438 39.886719 16.507812 C 39.3125 15.835938 38.886719 15.527344 38.386719 15.398438 C 37.980469 15.292969 37.792969 15.289062 37.570312 15.382812 C 37.183594 15.542969 36.9375 15.347656 37.015625 14.941406 C 37.085938 14.605469 36.910156 14.5625 36.527344 14.8125 C 36.214844 15.011719 35.914062 14.90625 35.988281 14.613281 C 36.136719 13.972656 36.171875 13.417969 36.058594 13.417969 C 35.84375 13.417969 35.390625 13.703125 35.082031 14.027344 C 34.738281 14.386719 34.5625 14.425781 34.417969 14.164062 C 34.363281 14.0625 34.195312 13.988281 34.03125 13.988281 C 33.753906 13.988281 33.738281 13.960938 33.761719 13.546875 C 33.785156 12.980469 33.585938 12.96875 33.0625 13.523438 C 32.53125 14.078125 32.304688 14.074219 32.390625 13.515625 C 32.46875 13.039062 32.140625 12.136719 31.914062 12.210938 C 31.714844 12.277344 31.535156 12.710938 31.53125 13.117188 C 31.53125 13.636719 31.386719 13.730469 30.566406 13.730469 C 29.941406 13.730469 29.765625 13.773438 29.195312 14.085938 C 28.308594 14.578125 27.902344 14.566406 27.632812 14.058594 C 27.433594 13.679688 27.265625 13.835938 27.300781 14.375 C 27.34375 15.082031 27.257812 15.269531 26.886719 15.269531 C 26.675781 15.269531 26.488281 15.171875 26.289062 14.964844 C 25.960938 14.613281 25.875 14.652344 25.875 15.136719 C 25.875 15.625 25.632812 15.683594 25.222656 15.285156 C 25.039062 15.109375 24.835938 14.960938 24.765625 14.960938 C 24.699219 14.960938 24.613281 15.144531 24.582031 15.371094 C 24.46875 16.0625 24.289062 16.097656 23.78125 15.542969 C 23.289062 15.011719 23.164062 14.964844 23 15.269531 C 22.914062 15.421875 22.929688 15.550781 23.046875 15.777344 C 23.257812 16.1875 23.242188 16.296875 22.988281 16.296875 C 22.804688 16.296875 22.789062 16.339844 22.84375 16.613281 C 22.90625 16.878906 22.882812 16.9375 22.699219 16.988281 C 22.582031 17.015625 22.484375 17.101562 22.484375 17.175781 C 22.484375 17.25 22.1875 17.410156 21.828125 17.527344 C 21.082031 17.777344 20.195312 18.320312 20.253906 18.496094 C 20.3125 18.683594 20.824219 18.691406 21.261719 18.515625 C 22.097656 18.183594 22.167969 18.363281 21.5625 19.304688 C 20.9375 20.261719 21.003906 20.398438 21.863281 19.921875 C 22.265625 19.695312 22.394531 19.664062 22.496094 19.765625 C 22.601562 19.867188 22.570312 20.054688 22.347656 20.683594 C 22.011719 21.644531 22.101562 21.859375 22.632812 21.339844 C 23.121094 20.863281 23.308594 20.960938 23.308594 21.691406 C 23.308594 22.003906 23.347656 22.261719 23.402344 22.261719 C 23.863281 22.261719 24.167969 21.71875 24.070312 21.070312 C 24.007812 20.652344 24.019531 20.613281 24.222656 20.613281 C 24.371094 20.613281 24.496094 20.730469 24.613281 20.976562 C 24.925781 21.636719 25.4375 21.351562 25.316406 20.578125 C 25.261719 20.210938 25.285156 20.113281 25.417969 20.0625 C 25.613281 19.988281 25.769531 20.0625 25.960938 20.328125 C 26.246094 20.726562 26.800781 20.402344 26.800781 19.835938 C 26.800781 19.652344 26.882812 19.421875 26.976562 19.324219 C 27.140625 19.160156 27.167969 19.167969 27.421875 19.46875 C 27.566406 19.648438 27.738281 19.792969 27.800781 19.792969 C 27.960938 19.792969 28.03125 19.542969 27.925781 19.371094 C 27.789062 19.164062 27.808594 19.007812 27.988281 18.824219 C 28.222656 18.59375 28.394531 18.625 28.53125 18.917969 C 28.855469 19.636719 29.664062 18.6875 29.804688 17.429688 C 29.824219 17.257812 29.894531 17.171875 30.027344 17.171875 C 30.210938 17.171875 30.363281 17.515625 30.546875 18.355469 C 30.65625 18.847656 30.769531 18.9375 31.023438 18.710938 C 31.148438 18.597656 31.339844 18.308594 31.449219 18.0625 C 31.722656 17.457031 31.980469 17.507812 32.023438 18.175781 C 32.039062 18.441406 32.101562 18.664062 32.15625 18.664062 C 32.210938 18.664062 32.351562 18.5 32.46875 18.296875 C 32.761719 17.800781 33.011719 17.859375 33.050781 18.4375 C 33.089844 18.964844 33.292969 19.085938 33.621094 18.777344 C 33.96875 18.453125 34.097656 18.503906 34.097656 18.960938 C 34.097656 19.65625 34.167969 19.730469 34.582031 19.488281 C 34.773438 19.371094 34.976562 19.28125 35.03125 19.28125 C 35.210938 19.28125 35.128906 19.648438 34.867188 20 C 34.722656 20.195312 34.652344 20.386719 34.703125 20.4375 C 34.808594 20.542969 35.335938 20.3125 35.835938 19.945312 C 36.484375 19.472656 36.746094 19.714844 36.320312 20.394531 L 36.058594 20.808594 L 36.714844 20.761719 C 37.3125 20.714844 37.378906 20.730469 37.4375 20.925781 C 37.480469 21.054688 37.4375 21.242188 37.335938 21.402344 C 37.125 21.722656 37.207031 21.824219 37.535156 21.648438 C 37.972656 21.414062 38.121094 21.761719 37.855469 22.386719 C 37.792969 22.535156 37.828125 22.566406 38.039062 22.566406 C 38.375 22.566406 38.570312 23.105469 38.472656 23.757812 C 38.394531 24.277344 38.523438 24.359375 38.789062 23.957031 C 38.984375 23.65625 39.191406 23.625 39.328125 23.882812 C 39.394531 24.003906 39.382812 24.144531 39.285156 24.316406 C 39.207031 24.460938 39.140625 24.609375 39.136719 24.652344 C 39.132812 24.804688 39.640625 24.398438 39.703125 24.203125 Z M 39.703125 24.203125 "/>
</g>
</svg>
