<svg xmlns="http://www.w3.org/2000/svg" xmlns:xlink="http://www.w3.org/1999/xlink" width="64px" height="64px" viewBox="0 0 64 64" version="1.1">
<defs>
<linearGradient id="linear0" gradientUnits="userSpaceOnUse" x1="0" y1="0" x2="0" y2="1" gradientTransform="matrix(55.351351,0,0,55.351351,4.324324,4.324324)">
<stop offset="0" style="stop-color:#ffae00;stop-opacity:1;"/>
<stop offset="0.5" style="stop-color:#dddddd;stop-opacity:1;"/>
<stop offset="1" style="stop-color:#bf1d1d;stop-opacity:1;"/>
</linearGradient>
</defs>
<g id="surface1">
<path style=" stroke:none;fill-rule:nonzero;fill:url(#linear0);" d="M 32.113281 4.324219 C 31.296875 4.339844 30.496094 4.523438 29.644531 4.863281 C 29.207031 5.03125 28.863281 5.429688 28.738281 5.824219 C 25.28125 15.785156 20.550781 29.878906 16.855469 37.6875 L 11.785156 37.6875 C 10.914062 37.6875 10.210938 38.441406 10.210938 39.378906 L 4.324219 57.984375 C 4.324219 58.917969 5.023438 59.675781 5.890625 59.675781 L 58.109375 59.675781 C 58.976562 59.675781 59.675781 58.917969 59.675781 57.984375 L 54.179688 39.378906 C 54.179688 38.441406 53.484375 37.6875 52.613281 37.6875 L 47.054688 37.6875 C 45.5 33.515625 38.949219 15.910156 35.703125 5.621094 C 35.578125 5.234375 35.109375 4.941406 34.671875 4.785156 C 33.757812 4.457031 32.929688 4.3125 32.113281 4.324219 Z M 28.730469 11.082031 C 30.09375 11.3125 30.472656 11.445312 32 11.445312 C 33.578125 11.445312 34.363281 11.324219 35.765625 11.082031 C 36.703125 14.484375 38.351562 18.164062 39.433594 21.886719 C 37.269531 22.613281 34.820312 23.039062 32 23.039062 C 29.210938 23.039062 27.136719 22.625 24.996094 21.917969 C 26.113281 18.214844 27.765625 14.523438 28.730469 11.082031 Z M 21.511719 30.835938 C 24.257812 32.132812 27.664062 32.941406 32.011719 32.941406 C 36.265625 32.941406 39.929688 32.152344 42.664062 30.902344 C 44.136719 35.6875 46.011719 40.179688 46.179688 40.726562 C 43.894531 43.117188 38.242188 44.792969 32.011719 44.792969 C 25.511719 44.792969 19.96875 42.984375 17.863281 40.429688 C 18.230469 39.3125 19.902344 35.828125 21.511719 30.835938 Z M 15.660156 43.929688 C 17.484375 46.671875 24.078125 48.703125 32 48.703125 C 39.917969 48.703125 46.515625 46.675781 48.339844 43.933594 C 48.664062 44.476562 48.890625 45.039062 48.890625 45.621094 C 48.890625 49.582031 41.335938 52.765625 32 52.765625 C 22.664062 52.765625 15.109375 49.582031 15.109375 45.621094 C 15.109375 45.03125 15.335938 44.472656 15.660156 43.929688 Z M 15.660156 43.929688 "/>
</g>
</svg>
