<svg xmlns="http://www.w3.org/2000/svg" xmlns:xlink="http://www.w3.org/1999/xlink" width="64px" height="64px" viewBox="0 0 64 64" version="1.1">
<defs>
<linearGradient id="linear0" gradientUnits="userSpaceOnUse" x1="0" y1="0" x2="0" y2="1" gradientTransform="matrix(55.351351,0,0,24.810811,4.324324,19.594596)">
<stop offset="0" style="stop-color:#ffae00;stop-opacity:1;"/>
<stop offset="0.5" style="stop-color:#dddddd;stop-opacity:1;"/>
<stop offset="1" style="stop-color:#6600ff;stop-opacity:1;"/>
</linearGradient>
</defs>
<g id="surface1">
<path style=" stroke:none;fill-rule:evenodd;fill:url(#linear0);" d="M 4.324219 19.59375 L 7.835938 34.617188 L 10.117188 44.40625 L 15.207031 44.40625 L 17.488281 34.617188 L 17.699219 33.738281 L 21.003906 19.59375 L 15.902344 19.59375 L 12.664062 33.484375 L 9.429688 19.59375 Z M 22.5 19.59375 L 17.636719 43.917969 L 17.542969 44.40625 L 22.597656 44.40625 L 25.210938 31.3125 L 28.265625 44.40625 L 33.355469 44.40625 L 36.40625 31.3125 L 39.023438 44.40625 L 44.078125 44.40625 L 43.984375 43.917969 L 39.121094 19.59375 L 34.042969 19.59375 L 30.8125 33.484375 L 27.570312 19.59375 Z M 49.761719 25.1875 C 50.363281 25.328125 50.460938 25.199219 51.136719 25.539062 C 53.015625 26.476562 54.714844 27.863281 54.714844 32 C 54.714844 36.136719 53.015625 37.523438 51.136719 38.460938 C 50.460938 38.800781 50.363281 38.671875 49.761719 38.8125 Z M 44.808594 19.59375 L 44.808594 44.40625 L 47.285156 44.40625 C 47.285156 44.40625 50.273438 44.441406 53.347656 42.90625 C 56.417969 41.367188 59.675781 37.792969 59.675781 32 C 59.675781 26.207031 56.417969 22.632812 53.347656 21.09375 C 50.273438 19.558594 47.285156 19.59375 47.285156 19.59375 Z M 44.808594 19.59375 "/>
</g>
</svg>
