<svg xmlns="http://www.w3.org/2000/svg" xmlns:xlink="http://www.w3.org/1999/xlink" width="64px" height="64px" viewBox="0 0 64 64" version="1.1">
<defs>
<linearGradient id="linear0" gradientUnits="userSpaceOnUse" x1="0" y1="0" x2="0" y2="1" gradientTransform="matrix(46.126125,0,0,14.99099,8.936937,41.225226)">
<stop offset="0" style="stop-color:#ffae00;stop-opacity:1;"/>
<stop offset="0.5" style="stop-color:#dddddd;stop-opacity:1;"/>
<stop offset="1" style="stop-color:#bf1d1d;stop-opacity:1;"/>
</linearGradient>
<linearGradient id="linear1" gradientUnits="userSpaceOnUse" x1="0" y1="0" x2="0" y2="1" gradientTransform="matrix(55.351351,0,0,55.351351,4.324324,4.324324)">
<stop offset="0" style="stop-color:#ffae00;stop-opacity:1;"/>
<stop offset="0.5" style="stop-color:#dddddd;stop-opacity:1;"/>
<stop offset="1" style="stop-color:#bf1d1d;stop-opacity:1;"/>
</linearGradient>
</defs>
<g id="surface1">
<path style=" stroke:none;fill-rule:nonzero;fill:url(#linear0);" d="M 28.539062 41.226562 L 28.539062 49.296875 L 8.9375 49.296875 L 8.9375 56.214844 L 55.0625 56.214844 L 55.0625 49.296875 L 35.460938 49.296875 L 35.460938 41.226562 Z M 28.539062 41.226562 "/>
<path style=" stroke:none;fill-rule:evenodd;fill:url(#linear1);" d="M 22.773438 13.550781 L 41.226562 13.550781 L 41.226562 32 L 22.773438 32 Z M 17.402344 4.324219 C 15.265625 4.324219 13.550781 6.042969 13.550781 8.175781 L 13.550781 37.375 C 13.550781 39.511719 15.265625 41.226562 17.402344 41.226562 L 46.597656 41.226562 C 48.734375 41.226562 50.457031 39.511719 50.457031 37.375 L 50.457031 8.175781 C 50.457031 6.042969 48.734375 4.324219 46.597656 4.324219 Z M 4.324219 52.757812 C 4.324219 48.9375 7.421875 45.835938 11.242188 45.835938 C 15.0625 45.835938 18.164062 48.9375 18.164062 52.757812 C 18.164062 56.578125 15.0625 59.675781 11.242188 59.675781 C 7.421875 59.675781 4.324219 56.578125 4.324219 52.757812 Z M 25.082031 52.757812 C 25.082031 48.9375 28.179688 45.835938 32 45.835938 C 35.820312 45.835938 38.917969 48.9375 38.917969 52.757812 C 38.917969 56.578125 35.820312 59.675781 32 59.675781 C 28.179688 59.675781 25.082031 56.578125 25.082031 52.757812 Z M 45.835938 52.757812 C 45.835938 48.9375 48.9375 45.835938 52.757812 45.835938 C 56.578125 45.835938 59.675781 48.9375 59.675781 52.757812 C 59.675781 56.578125 56.578125 59.675781 52.757812 59.675781 C 48.9375 59.675781 45.835938 56.578125 45.835938 52.757812 Z M 45.835938 52.757812 "/>
</g>
</svg>
