<svg xmlns="http://www.w3.org/2000/svg" xmlns:xlink="http://www.w3.org/1999/xlink" width="64px" height="64px" viewBox="0 0 64 64" version="1.1">
<defs>
<linearGradient id="linear0" gradientUnits="userSpaceOnUse" x1="0" y1="0" x2="0" y2="1" gradientTransform="matrix(55.351351,0,0,44.576578,4.324324,9.711712)">
<stop offset="0" style="stop-color:#05f7ff;stop-opacity:1;"/>
<stop offset="0.5" style="stop-color:#dddddd;stop-opacity:1;"/>
<stop offset="1" style="stop-color:#e6ff05;stop-opacity:1;"/>
</linearGradient>
</defs>
<g id="surface1">
<path style=" stroke:none;fill-rule:nonzero;fill:url(#linear0);" d="M 4.324219 9.710938 L 16.875 51.335938 C 16.886719 51.363281 16.902344 51.363281 16.914062 51.390625 C 17.355469 53.054688 18.867188 54.289062 20.675781 54.289062 C 22.386719 54.289062 23.820312 53.179688 24.339844 51.644531 C 24.355469 51.621094 24.386719 51.589844 24.394531 51.570312 L 37.015625 9.710938 L 32.808594 9.710938 L 20.675781 50.273438 L 8.539062 9.710938 Z M 49.921875 9.710938 C 44.539062 9.710938 40.171875 14.078125 40.171875 19.460938 L 40.171875 29.214844 L 44.351562 29.214844 L 44.351562 19.460938 C 44.351562 16.335938 46.796875 13.890625 49.921875 13.890625 C 53.050781 13.890625 55.496094 16.335938 55.496094 19.460938 L 55.496094 29.214844 L 59.675781 29.214844 L 59.675781 19.460938 C 59.675781 14.078125 55.3125 9.710938 49.921875 9.710938 Z M 49.921875 34.785156 C 44.539062 34.785156 40.171875 39.152344 40.171875 44.539062 C 40.171875 49.921875 44.539062 54.289062 49.921875 54.289062 L 59.675781 54.289062 L 59.675781 50.109375 L 49.921875 50.109375 C 46.796875 50.109375 44.351562 47.664062 44.351562 44.539062 C 44.351562 41.410156 46.796875 38.96875 49.921875 38.96875 L 59.675781 38.96875 L 59.675781 34.785156 Z M 49.921875 34.785156 "/>
</g>
</svg>
