<svg xmlns="http://www.w3.org/2000/svg" xmlns:xlink="http://www.w3.org/1999/xlink" width="64px" height="64px" viewBox="0 0 64 64" version="1.1">
<defs>
<linearGradient id="linear0" gradientUnits="userSpaceOnUse" x1="0" y1="0" x2="0" y2="1" gradientTransform="matrix(31.657659,0,0,55.351351,16.171172,4.324324)">
<stop offset="0" style="stop-color:#ffae00;stop-opacity:1;"/>
<stop offset="0.5" style="stop-color:#dddddd;stop-opacity:1;"/>
<stop offset="1" style="stop-color:#6600ff;stop-opacity:1;"/>
</linearGradient>
</defs>
<g id="surface1">
<path style=" stroke:none;fill-rule:nonzero;fill:url(#linear0);" d="M 46.511719 24.089844 C 45.785156 24.089844 45.1875 24.6875 45.1875 25.410156 L 45.1875 35.957031 C 45.1875 43.21875 39.269531 49.144531 32 49.144531 C 24.730469 49.144531 18.8125 43.21875 18.8125 35.957031 L 18.8125 25.410156 C 18.8125 24.6875 18.214844 24.089844 17.488281 24.089844 C 16.765625 24.089844 16.171875 24.6875 16.171875 25.410156 L 16.171875 35.957031 C 16.171875 44.234375 22.566406 51.042969 30.679688 51.710938 L 30.679688 57.039062 L 25.96875 57.039062 C 25.246094 57.039062 24.652344 57.636719 24.652344 58.355469 C 24.652344 59.085938 25.246094 59.675781 25.96875 59.675781 L 38.03125 59.675781 C 38.753906 59.675781 39.347656 59.085938 39.347656 58.355469 C 39.347656 57.636719 38.753906 57.039062 38.03125 57.039062 L 33.320312 57.039062 L 33.320312 51.710938 C 41.421875 51.042969 47.828125 44.21875 47.828125 35.957031 L 47.828125 25.410156 C 47.828125 24.6875 47.234375 24.089844 46.511719 24.089844 Z M 26.730469 18.820312 C 27.460938 18.820312 28.042969 19.410156 28.042969 20.136719 C 28.042969 20.867188 27.460938 21.457031 26.730469 21.457031 C 26 21.457031 25.410156 20.867188 25.410156 20.136719 C 25.410156 19.410156 26 18.820312 26.730469 18.820312 Z M 37.285156 18.820312 C 38.011719 18.820312 38.597656 19.410156 38.597656 20.136719 C 38.597656 20.867188 38.011719 21.457031 37.285156 21.457031 C 36.554688 21.457031 35.960938 20.867188 35.960938 20.136719 C 35.960938 19.410156 36.554688 18.820312 37.285156 18.820312 Z M 34.636719 16.1875 C 35.363281 16.1875 35.957031 16.773438 35.957031 17.503906 C 35.957031 18.230469 35.363281 18.820312 34.636719 18.820312 C 33.910156 18.820312 33.320312 18.230469 33.320312 17.503906 C 33.320312 16.773438 33.910156 16.1875 34.636719 16.1875 Z M 29.363281 16.1875 C 30.089844 16.1875 30.679688 16.773438 30.679688 17.503906 C 30.679688 18.230469 30.089844 18.820312 29.363281 18.820312 C 28.636719 18.820312 28.042969 18.230469 28.042969 17.503906 C 28.042969 16.773438 28.636719 16.1875 29.363281 16.1875 Z M 34.636719 10.914062 C 35.363281 10.914062 35.957031 11.503906 35.957031 12.234375 C 35.957031 12.960938 35.363281 13.550781 34.636719 13.550781 C 33.910156 13.550781 33.320312 12.960938 33.320312 12.234375 C 33.320312 11.503906 33.910156 10.914062 34.636719 10.914062 Z M 29.363281 10.914062 C 30.089844 10.914062 30.679688 11.503906 30.679688 12.234375 C 30.679688 12.960938 30.089844 13.550781 29.363281 13.550781 C 28.636719 13.550781 28.042969 12.960938 28.042969 12.234375 C 28.042969 11.503906 28.636719 10.914062 29.363281 10.914062 Z M 32 18.820312 C 32.726562 18.820312 33.320312 19.410156 33.320312 20.136719 C 33.320312 20.867188 32.726562 21.457031 32 21.457031 C 31.273438 21.457031 30.679688 20.867188 30.679688 20.136719 C 30.679688 19.410156 31.273438 18.820312 32 18.820312 Z M 26.730469 13.550781 C 27.460938 13.550781 28.042969 14.136719 28.042969 14.867188 C 28.042969 15.59375 27.460938 16.1875 26.730469 16.1875 C 26 16.1875 25.410156 15.59375 25.410156 14.867188 C 25.410156 14.136719 26 13.550781 26.730469 13.550781 Z M 37.285156 13.550781 C 38.011719 13.550781 38.597656 14.136719 38.597656 14.867188 C 38.597656 15.59375 38.011719 16.1875 37.285156 16.1875 C 36.554688 16.1875 35.960938 15.59375 35.960938 14.867188 C 35.960938 14.136719 36.554688 13.550781 37.285156 13.550781 Z M 32 13.550781 C 32.726562 13.550781 33.320312 14.136719 33.320312 14.867188 C 33.320312 15.59375 32.726562 16.1875 32 16.1875 C 31.273438 16.1875 30.679688 15.59375 30.679688 14.867188 C 30.679688 14.136719 31.273438 13.550781 32 13.550781 Z M 42.554688 14.867188 C 42.554688 9.042969 37.824219 4.324219 32.011719 4.324219 C 26.203125 4.324219 21.46875 9.058594 21.46875 14.867188 L 21.46875 35.957031 C 21.46875 41.773438 26.191406 46.496094 32.011719 46.496094 C 37.835938 46.496094 42.554688 41.773438 42.554688 35.957031 Z M 39.917969 24.089844 L 24.089844 24.089844 L 24.089844 14.867188 C 24.089844 10.503906 27.636719 6.960938 32 6.960938 C 36.363281 6.960938 39.910156 10.503906 39.910156 14.867188 L 39.910156 24.089844 Z M 39.917969 24.089844 "/>
</g>
</svg>
