<svg xmlns="http://www.w3.org/2000/svg" xmlns:xlink="http://www.w3.org/1999/xlink" width="64px" height="64px" viewBox="0 0 64 64" version="1.1">
<defs>
<linearGradient id="linear0" gradientUnits="userSpaceOnUse" x1="0" y1="0" x2="0" y2="1" gradientTransform="matrix(52.256757,0,0,55.351351,5.86937,4.324324)">
<stop offset="0" style="stop-color:#ffae00;stop-opacity:1;"/>
<stop offset="0.5" style="stop-color:#dddddd;stop-opacity:1;"/>
<stop offset="1" style="stop-color:#bf1d1d;stop-opacity:1;"/>
</linearGradient>
</defs>
<g id="surface1">
<path style=" stroke:none;fill-rule:nonzero;fill:url(#linear0);" d="M 32.457031 59.582031 C 31.039062 59.121094 30.515625 58.109375 29.691406 54.21875 C 29.230469 52.027344 28.28125 50.796875 26.5 50.09375 C 25.457031 49.679688 24.941406 49.609375 21.113281 49.335938 C 17.664062 49.09375 16.054688 48.234375 14.933594 46.027344 C 14.488281 45.164062 14.148438 44.039062 13.664062 41.835938 C 13.054688 39.042969 12.488281 37.613281 11.285156 35.792969 C 10.539062 34.671875 8.851562 32.96875 7.660156 32.136719 C 6.515625 31.335938 6.242188 31.089844 6.027344 30.671875 C 5.746094 30.132812 5.835938 29.621094 6.285156 29.203125 C 7.179688 28.367188 8.457031 28.632812 9.394531 29.847656 C 9.558594 30.050781 9.949219 30.6875 10.269531 31.261719 C 10.855469 32.3125 11.488281 33.226562 11.625 33.226562 C 11.671875 33.226562 11.703125 31.738281 11.703125 29.867188 C 11.703125 26.265625 11.726562 26.085938 12.148438 25.789062 C 12.488281 25.554688 12.960938 25.609375 13.308594 25.914062 C 13.90625 26.4375 13.96875 26.820312 14.664062 33.960938 C 14.820312 35.488281 14.785156 35.4375 15.242188 34.9375 C 15.679688 34.457031 16.164062 33.5 16.328125 32.789062 C 16.488281 32.113281 16.457031 31.039062 16.242188 30.175781 C 16.027344 29.292969 16.015625 28.945312 16.191406 28.578125 C 16.558594 27.808594 17.566406 27.828125 18.109375 28.617188 C 18.484375 29.148438 18.613281 29.636719 18.660156 30.597656 C 18.710938 31.890625 18.515625 32.800781 17.585938 35.671875 C 16.570312 38.765625 16.460938 39.265625 16.457031 40.550781 C 16.457031 41.355469 16.5 41.679688 16.664062 42.207031 C 17.488281 44.863281 19.996094 46.488281 23.988281 46.957031 C 25.121094 47.09375 25.644531 47.113281 25.644531 47.039062 C 25.644531 47.011719 25.445312 46.644531 25.207031 46.210938 C 23.726562 43.585938 23.109375 41.621094 23.230469 39.902344 C 23.300781 38.902344 23.488281 38.207031 24.1875 36.410156 C 25.253906 33.664062 25.410156 32.988281 25.414062 31.230469 C 25.421875 27.460938 23.484375 23.894531 20.390625 22 C 20.050781 21.789062 19.015625 21.273438 18.109375 20.863281 C 16.21875 20.011719 15.355469 19.484375 14.664062 18.773438 C 13.851562 17.933594 13.363281 16.878906 13.363281 15.96875 C 13.363281 15.558594 13.539062 15.449219 14.320312 15.394531 C 15.738281 15.292969 16.972656 15.933594 19.097656 17.886719 C 20.441406 19.113281 21.0625 19.585938 21.839844 19.957031 C 22.585938 20.308594 23.671875 20.515625 23.839844 20.347656 C 23.90625 20.289062 23.945312 19.972656 23.945312 19.570312 C 23.945312 18.648438 23.613281 17.960938 22.789062 17.1875 C 22.230469 16.671875 21.828125 16.410156 20.121094 15.457031 C 18.382812 14.476562 17.503906 13.109375 17.726562 11.710938 C 17.855469 10.886719 18.429688 10.3125 19.257812 10.1875 C 21.566406 9.8125 25.0625 13.757812 26.636719 18.511719 C 27.46875 21.015625 27.761719 22.988281 27.765625 26.042969 C 27.769531 28.867188 27.539062 30.988281 26.808594 34.664062 C 26.515625 36.144531 26.421875 36.800781 26.457031 37.164062 C 26.570312 38.523438 27.355469 38.878906 28.5 38.089844 C 29.855469 37.160156 31.1875 35.449219 31.738281 33.945312 C 32.175781 32.746094 32.28125 32.050781 32.347656 29.789062 C 32.394531 27.90625 32.421875 27.664062 32.589844 27.351562 C 32.824219 26.90625 33.125 26.625 33.523438 26.488281 C 33.960938 26.335938 34.328125 26.417969 34.648438 26.738281 C 35.367188 27.460938 35.3125 28.757812 34.394531 32.328125 C 33.855469 34.445312 33.039062 36.296875 32.09375 37.578125 C 31.820312 37.941406 31 38.808594 30.269531 39.503906 C 28.699219 40.988281 28.203125 41.59375 27.757812 42.515625 C 27.441406 43.1875 27.429688 43.234375 27.429688 44.164062 C 27.429688 45.050781 27.445312 45.152344 27.664062 45.523438 C 28.644531 47.1875 31.148438 47.636719 32.96875 46.46875 C 35.011719 45.160156 36.746094 40.378906 37.496094 33.972656 C 38.03125 29.429688 37.675781 26.28125 36.3125 23.433594 C 35.386719 21.496094 34.171875 20.144531 31.886719 18.515625 C 31.132812 17.976562 30.261719 17.320312 29.960938 17.066406 C 29.242188 16.457031 28.441406 15.390625 28.125 14.625 C 27.910156 14.105469 27.878906 13.90625 27.867188 13.152344 L 27.863281 12.28125 L 28.253906 12.085938 C 29.265625 11.578125 30.773438 12.097656 32.003906 13.375 C 32.265625 13.648438 32.8125 14.414062 33.214844 15.082031 C 34.421875 17.0625 35.132812 17.921875 35.863281 18.300781 L 36.105469 18.429688 L 35.714844 17.664062 C 35.503906 17.242188 34.632812 15.542969 33.773438 13.890625 C 31.648438 9.796875 31.566406 9.59375 31.566406 8.585938 C 31.566406 7.589844 32.179688 6.921875 33.09375 6.921875 C 33.929688 6.921875 34.671875 7.503906 35.144531 8.523438 C 35.285156 8.820312 35.867188 10.703125 36.449219 12.714844 C 37.03125 14.726562 37.769531 17.292969 38.09375 18.417969 L 38.6875 20.460938 L 38.949219 19.945312 C 39.558594 18.734375 40.027344 16.996094 40.191406 15.289062 C 40.363281 13.621094 40.191406 12.082031 39.542969 9.40625 C 39.058594 7.402344 39.023438 7.164062 39.148438 6.488281 C 39.40625 5.042969 40.285156 4.242188 41.503906 4.335938 C 43.015625 4.441406 44.148438 5.664062 44.367188 7.4375 C 44.578125 9.136719 44.171875 10.933594 42.5625 15.375 C 41.132812 19.347656 40.699219 20.714844 40.378906 22.300781 C 39.835938 24.960938 39.921875 27.503906 40.605469 29.472656 L 40.765625 29.945312 L 41.753906 27.164062 C 42.292969 25.636719 42.835938 24.179688 42.960938 23.921875 C 43.429688 22.96875 44.21875 22.792969 44.875 23.496094 C 45.191406 23.835938 45.261719 24.210938 45.109375 24.820312 C 44.636719 26.6875 42.175781 33.71875 38.242188 44.503906 C 36.390625 49.570312 36.375 49.632812 36.6875 49.328125 C 36.867188 49.160156 39.441406 46.8125 42.414062 44.105469 C 45.382812 41.402344 48.039062 38.941406 48.308594 38.644531 C 49.113281 37.753906 49.597656 36.664062 49.597656 35.757812 C 49.59375 34.71875 49.132812 33.5 47.960938 31.476562 C 46.53125 28.988281 46.148438 27.691406 46.5 26.496094 C 46.738281 25.664062 47.496094 25.039062 48.246094 25.042969 C 48.5625 25.042969 49.117188 25.355469 49.421875 25.703125 C 49.796875 26.136719 50.53125 27.679688 50.945312 28.917969 C 51.269531 29.902344 51.6875 31.78125 51.6875 32.257812 C 51.6875 32.402344 51.71875 32.542969 51.757812 32.5625 C 51.792969 32.589844 52.4375 31.382812 53.191406 29.890625 C 54.636719 27.015625 54.984375 26.5 55.636719 26.179688 C 56.625 25.703125 57.675781 26.253906 58.050781 27.429688 C 58.300781 28.226562 57.945312 29.59375 57.011719 31.441406 C 55.910156 33.597656 53.78125 36.921875 51.796875 39.570312 C 51.234375 40.324219 50.765625 40.96875 50.746094 41 C 50.734375 41.027344 51.039062 40.875 51.429688 40.636719 C 53.164062 39.59375 54.585938 39.53125 55.632812 40.449219 C 56.242188 40.988281 56.476562 41.878906 56.164062 42.488281 C 55.703125 43.414062 54.886719 43.71875 52.527344 43.863281 C 50.796875 43.960938 49.582031 44.1875 48.363281 44.609375 C 46.367188 45.300781 44.8125 46.289062 43.28125 47.8125 C 42.03125 49.0625 41.375 50.011719 39.972656 52.617188 C 38.40625 55.515625 37.785156 56.445312 36.542969 57.730469 C 35.6875 58.621094 34.902344 59.21875 34.261719 59.460938 C 33.664062 59.6875 32.917969 59.742188 32.457031 59.589844 Z M 32.457031 59.582031 "/>
</g>
</svg>
