<svg xmlns="http://www.w3.org/2000/svg" xmlns:xlink="http://www.w3.org/1999/xlink" width="64px" height="64px" viewBox="0 0 64 64" version="1.1">
<defs>
<linearGradient id="linear0" gradientUnits="userSpaceOnUse" x1="0" y1="0" x2="0" y2="1" gradientTransform="matrix(51.923422,0,0,44.621622,6.054054,10.558558)">
<stop offset="0" style="stop-color:#00a2ff;stop-opacity:1;"/>
<stop offset="0.5" style="stop-color:#dddddd;stop-opacity:1;"/>
<stop offset="1" style="stop-color:#00ffae;stop-opacity:1;"/>
</linearGradient>
</defs>
<g id="surface1">
<path style=" stroke:none;fill-rule:nonzero;fill:url(#linear0);" d="M 11.523438 10.664062 C 9.761719 10.6875 8.113281 11.550781 7.089844 12.988281 C 6.0625 14.417969 5.78125 16.257812 6.324219 17.933594 L 16.644531 51.261719 C 17.367188 53.589844 19.527344 55.175781 21.96875 55.164062 C 24.410156 55.160156 26.558594 53.558594 27.265625 51.21875 L 32 35.527344 L 36.730469 51.21875 C 37.433594 53.5625 39.585938 55.171875 42.03125 55.179688 C 44.472656 55.1875 46.636719 53.597656 47.363281 51.261719 L 57.671875 17.933594 C 58.335938 16.011719 57.894531 13.886719 56.539062 12.386719 C 55.175781 10.882812 53.105469 10.242188 51.132812 10.710938 C 49.160156 11.1875 47.597656 12.691406 47.0625 14.648438 L 42.121094 30.613281 L 37.320312 14.6875 C 36.609375 12.339844 34.449219 10.738281 32 10.738281 C 29.554688 10.738281 27.390625 12.339844 26.6875 14.6875 L 21.878906 30.613281 L 16.941406 14.648438 C 16.234375 12.253906 14.015625 10.621094 11.523438 10.664062 Z M 11.523438 10.664062 "/>
</g>
</svg>
