<svg xmlns="http://www.w3.org/2000/svg" xmlns:xlink="http://www.w3.org/1999/xlink" width="64px" height="64px" viewBox="0 0 64 64" version="1.1">
<g id="surface1">
<path style=" stroke:none;fill-rule:nonzero;fill:rgb(70.980394%,17.254902%,75.686276%);fill-opacity:1;" d="M 12.105469 9.511719 L 51.890625 9.511719 C 53.324219 9.511719 54.488281 10.675781 54.488281 12.109375 L 54.488281 51.890625 C 54.488281 53.328125 53.324219 54.488281 51.890625 54.488281 L 12.105469 54.488281 C 10.671875 54.488281 9.511719 53.328125 9.511719 51.890625 L 9.511719 12.109375 C 9.511719 10.675781 10.671875 9.511719 12.105469 9.511719 Z M 12.105469 9.511719 "/>
<path style=" stroke:none;fill-rule:nonzero;fill:rgb(100%,100%,100%);fill-opacity:1;" d="M 40.566406 16.433594 L 29.324219 19.808594 L 31.058594 25.578125 C 33.980469 25.152344 36.820312 26.75 37.972656 29.464844 L 43.941406 27.675781 Z M 27.515625 20.351562 L 16.273438 23.726562 L 19.648438 34.96875 L 25.613281 33.179688 C 25.375 31.886719 25.539062 30.546875 26.074219 29.347656 L 28.453125 30.761719 C 28.269531 31.28125 28.207031 31.835938 28.261719 32.382812 L 30.890625 31.59375 L 30.050781 28.789062 C 29.820312 28.925781 29.613281 29.085938 29.414062 29.269531 L 27.019531 27.84375 C 27.628906 27.113281 28.386719 26.523438 29.25 26.117188 Z M 31.863281 28.238281 C 31.863281 28.238281 31.859375 28.238281 31.859375 28.238281 L 32.699219 31.050781 L 35.335938 30.261719 C 34.664062 28.972656 33.3125 28.1875 31.863281 28.238281 Z M 44.351562 29.03125 L 38.386719 30.820312 C 38.921875 33.730469 37.429688 36.628906 34.753906 37.882812 L 36.484375 43.648438 L 47.726562 40.273438 Z M 35.738281 31.617188 L 33.109375 32.40625 L 33.953125 35.210938 C 35.1875 34.460938 35.886719 33.0625 35.738281 31.617188 Z M 31.300781 32.949219 L 28.667969 33.738281 C 29.339844 35.027344 30.691406 35.8125 32.140625 35.761719 Z M 26.027344 34.535156 L 20.058594 36.324219 L 23.433594 47.566406 L 34.675781 44.191406 L 32.941406 38.421875 C 30.019531 38.847656 27.179688 37.25 26.027344 34.535156 Z M 26.027344 34.535156 "/>
</g>
</svg>
