<svg xmlns="http://www.w3.org/2000/svg" xmlns:xlink="http://www.w3.org/1999/xlink" width="64px" height="64px" viewBox="0 0 64 64" version="1.1">
<defs>
<linearGradient id="linear0" gradientUnits="userSpaceOnUse" x1="0" y1="0" x2="0" y2="1" gradientTransform="matrix(55.351351,0,0,55.351351,4.324324,4.324324)">
<stop offset="0" style="stop-color:#00fff2;stop-opacity:1;"/>
<stop offset="0.5" style="stop-color:#dddddd;stop-opacity:1;"/>
<stop offset="1" style="stop-color:#0062ff;stop-opacity:1;"/>
</linearGradient>
</defs>
<g id="surface1">
<path style=" stroke:none;fill-rule:nonzero;fill:url(#linear0);" d="M 24.265625 58.878906 C 19.394531 57.671875 15.230469 55.1875 10.96875 50.9375 C 7.605469 47.589844 7.085938 46.839844 5.769531 43.488281 C 4.46875 40.171875 4.3125 39.320312 4.324219 35.609375 C 4.347656 29.691406 5.496094 26.125 8.8125 21.71875 C 11.9375 17.578125 13.339844 16.433594 18.300781 13.996094 C 21.785156 12.292969 24.03125 11.632812 28.9375 10.863281 C 30.9375 10.550781 31.003906 9.855469 29.152344 8.566406 C 26.785156 6.910156 24.253906 4.609375 24.511719 4.339844 C 24.789062 4.054688 34.117188 7.285156 38.390625 9.148438 C 43.824219 11.511719 50.503906 16.136719 53.5625 19.644531 C 54.761719 21.015625 55.328125 22.46875 54.660156 22.46875 C 54.355469 22.46875 50.421875 20.6875 46.449219 18.753906 C 44.789062 17.9375 43.234375 17.394531 43 17.539062 C 42.765625 17.6875 43.050781 18.011719 43.636719 18.265625 C 44.214844 18.511719 44.789062 18.855469 44.910156 19.011719 C 45.027344 19.175781 45.960938 19.558594 46.976562 19.863281 C 47.988281 20.164062 48.824219 20.585938 48.824219 20.789062 C 48.824219 20.988281 49.066406 21.164062 49.363281 21.179688 C 49.664062 21.199219 50.875 21.664062 52.058594 22.230469 L 54.210938 23.257812 L 52.496094 23.734375 C 49.839844 24.476562 48.6875 24.339844 43.773438 22.6875 C 38.03125 20.746094 32.1875 20.273438 26.933594 21.328125 C 21.746094 22.363281 21.269531 23.164062 23.839844 26.550781 C 25.820312 29.164062 27.824219 29.8125 30.800781 28.792969 C 32.023438 28.375 33.308594 28.214844 33.988281 28.402344 C 35.039062 28.675781 35.058594 28.730469 34.269531 29.023438 C 33.476562 29.3125 33.511719 29.394531 34.707031 30.050781 C 35.585938 30.53125 35.757812 30.761719 35.242188 30.773438 C 34.410156 30.792969 34.214844 31.457031 34.914062 31.886719 C 35.734375 32.394531 35.363281 33.042969 34.414062 32.738281 C 33.664062 32.5 33.53125 32.585938 33.761719 33.179688 C 33.984375 33.761719 33.855469 33.855469 33.171875 33.636719 C 32.527344 33.433594 32.308594 33.5625 32.292969 34.152344 C 32.289062 34.765625 32.011719 34.617188 31.070312 33.484375 C 29.914062 32.078125 29.679688 31.988281 25.761719 31.609375 C 20.914062 31.136719 19.621094 30.679688 18.171875 28.941406 L 17.085938 27.644531 L 15.929688 30.191406 C 14.417969 33.511719 14.058594 38.460938 15.097656 41.625 C 17.460938 48.773438 22.417969 51.8125 27.484375 49.210938 C 30.917969 47.441406 31.890625 44.175781 29.863281 41.230469 C 28.6875 39.523438 28.679688 37.644531 29.851562 38.621094 C 30.558594 39.210938 30.996094 38.835938 31.03125 37.617188 C 31.054688 36.796875 31.105469 36.820312 31.503906 37.796875 L 31.949219 38.894531 L 32.617188 37.910156 C 33.441406 36.6875 34.039062 36.632812 33.738281 37.796875 C 33.484375 38.789062 34.023438 38.945312 34.875 38.125 C 35.339844 37.679688 35.390625 37.769531 35.136719 38.609375 C 34.863281 39.527344 34.9375 39.609375 35.851562 39.347656 C 36.726562 39.105469 36.664062 39.238281 35.40625 40.324219 L 33.941406 41.585938 L 34.253906 46.40625 L 34.5625 51.230469 L 33.234375 52.351562 C 31.917969 53.46875 31.917969 53.484375 32.902344 53.734375 C 34.320312 54.089844 40.386719 53.324219 42.957031 52.460938 C 47.265625 51.015625 52.378906 47.121094 54.496094 43.675781 C 57.148438 39.339844 58.625 30.933594 57.355469 27.394531 C 56.8125 25.890625 56.792969 25.539062 57.261719 25.539062 C 58.433594 25.539062 59.660156 30.324219 59.675781 34.96875 C 59.699219 40.710938 57.613281 46.058594 53.582031 50.617188 C 47.253906 57.773438 34.40625 61.390625 24.265625 58.878906 Z M 24.265625 58.878906 "/>
</g>
</svg>
