<svg xmlns="http://www.w3.org/2000/svg" xmlns:xlink="http://www.w3.org/1999/xlink" width="64px" height="64px" viewBox="0 0 64 64" version="1.1">
<defs>
<linearGradient id="linear0" gradientUnits="userSpaceOnUse" x1="0" y1="0" x2="0" y2="1" gradientTransform="matrix(55.306307,0,0,55.351351,4.346847,4.324324)">
<stop offset="0" style="stop-color:#ffae00;stop-opacity:1;"/>
<stop offset="0.5" style="stop-color:#dddddd;stop-opacity:1;"/>
<stop offset="1" style="stop-color:#6600ff;stop-opacity:1;"/>
</linearGradient>
</defs>
<g id="surface1">
<path style=" stroke:none;fill-rule:nonzero;fill:url(#linear0);" d="M 28.855469 4.324219 C 19.863281 4.324219 18.234375 8.945312 16.800781 13.253906 C 15.542969 17.023438 5.511719 43.421875 5.410156 43.6875 L 5.347656 43.824219 C 4.707031 45.160156 4.367188 46.609375 4.347656 48.085938 C 4.347656 50.96875 5.28125 53.808594 7.273438 56.011719 C 9.273438 58.21875 12.355469 59.675781 16.066406 59.675781 C 19.738281 59.675781 22.605469 58.941406 24.660156 57.410156 C 26.632812 55.933594 27.789062 53.613281 27.789062 51.148438 C 27.789062 48.570312 26.339844 46.402344 24.527344 44.957031 C 22.710938 43.503906 20.449219 42.625 18.136719 42.625 C 16.253906 42.625 14.59375 42.984375 13.203125 43.824219 C 11.8125 44.664062 10.738281 46.21875 10.738281 47.949219 C 10.738281 49.644531 11.652344 51.136719 12.875 52.015625 C 14.085938 52.886719 15.589844 53.285156 17.136719 53.285156 C 17.902344 53.289062 18.617188 52.886719 19.003906 52.226562 C 19.390625 51.558594 19.390625 50.738281 19.003906 50.078125 C 18.617188 49.410156 17.902344 49.011719 17.136719 49.015625 C 16.382812 49.015625 15.742188 48.796875 15.402344 48.550781 C 15.058594 48.3125 15.003906 48.191406 15.003906 47.949219 C 15.003906 47.753906 14.945312 47.761719 15.40625 47.488281 C 15.863281 47.210938 16.820312 46.886719 18.132812 46.886719 C 19.289062 46.886719 20.792969 47.429688 21.863281 48.285156 C 22.929688 49.144531 23.527344 50.1875 23.527344 51.148438 C 23.527344 52.355469 23.179688 53.164062 22.132812 53.945312 C 21.082031 54.734375 19.136719 55.414062 16.066406 55.414062 C 13.386719 55.414062 11.671875 54.539062 10.472656 53.214844 C 9.273438 51.890625 8.609375 50.015625 8.609375 48.085938 C 8.609375 45.671875 10.855469 40.488281 18.734375 40.488281 C 22.4375 40.488281 24.542969 41.441406 26.324219 42.957031 C 28.109375 44.472656 29.53125 46.710938 31.1875 49.152344 C 32.839844 51.589844 34.761719 54.300781 37.785156 56.347656 C 40.808594 58.390625 44.835938 59.675781 50.375 59.675781 C 51.449219 59.6875 52.367188 58.882812 52.503906 57.8125 L 52.503906 57.742188 C 52.527344 57.617188 59.113281 22.523438 59.496094 20.839844 C 60.496094 16.484375 56.433594 17.113281 56.433594 17.113281 C 36.617188 17.113281 43.070312 4.324219 28.855469 4.324219 Z M 28.855469 4.324219 "/>
</g>
</svg>
