<svg xmlns="http://www.w3.org/2000/svg" xmlns:xlink="http://www.w3.org/1999/xlink" width="64px" height="64px" viewBox="0 0 64 64" version="1.1">
<defs>
<linearGradient id="linear0" gradientUnits="userSpaceOnUse" x1="0" y1="0" x2="0" y2="1" gradientTransform="matrix(50.828828,0,0,55.351351,6.585585,4.324324)">
<stop offset="0" style="stop-color:#ff8963;stop-opacity:1;"/>
<stop offset="0.5" style="stop-color:#dddddd;stop-opacity:1;"/>
<stop offset="1" style="stop-color:#0F6FFF;stop-opacity:1;"/>
</linearGradient>
</defs>
<g id="surface1">
<path style=" stroke:none;fill-rule:evenodd;fill:url(#linear0);" d="M 29.578125 31.511719 L 29.578125 59.636719 L 34.421875 59.675781 L 34.421875 31.511719 C 36.554688 30.582031 38.050781 28.449219 38.050781 25.96875 C 38.050781 22.625 35.339844 19.914062 32 19.914062 C 28.660156 19.914062 25.949219 22.625 25.949219 25.96875 C 25.949219 28.449219 27.445312 30.582031 29.578125 31.511719 Z M 44.03125 4.324219 L 41.863281 8.664062 C 48.421875 11.9375 52.570312 18.636719 52.578125 25.96875 C 52.570312 33.308594 48.429688 40.003906 41.863281 43.285156 L 44.027344 47.59375 C 52.21875 43.503906 57.40625 35.132812 57.414062 25.96875 C 57.414062 16.800781 52.234375 8.421875 44.03125 4.324219 Z M 19.972656 4.339844 C 11.78125 8.4375 6.59375 16.808594 6.585938 25.96875 C 6.585938 35.136719 11.765625 43.515625 19.96875 47.617188 L 22.136719 43.273438 C 15.578125 40 11.429688 33.300781 11.421875 25.96875 C 11.429688 18.636719 15.570312 11.9375 22.136719 8.660156 Z M 39.703125 12.984375 L 37.539062 17.320312 C 40.8125 18.957031 42.890625 22.300781 42.890625 25.96875 C 42.890625 29.636719 40.820312 32.988281 37.539062 34.625 L 39.699219 38.941406 C 44.617188 36.488281 47.726562 31.46875 47.734375 25.96875 C 47.734375 20.46875 44.621094 15.441406 39.703125 12.984375 Z M 24.300781 12.996094 C 19.382812 15.449219 16.273438 20.472656 16.265625 25.96875 C 16.265625 31.46875 19.378906 36.496094 24.296875 38.957031 L 26.460938 34.621094 C 23.1875 32.984375 21.109375 29.636719 21.109375 25.96875 C 21.109375 22.300781 23.179688 18.949219 26.460938 17.3125 Z M 24.300781 12.996094 "/>
</g>
</svg>
