<svg xmlns="http://www.w3.org/2000/svg" xmlns:xlink="http://www.w3.org/1999/xlink" width="64px" height="64px" viewBox="0 0 64 64" version="1.1">
<defs>
<linearGradient id="linear0" gradientUnits="userSpaceOnUse" x1="0" y1="0" x2="0" y2="1" gradientTransform="matrix(55.351351,0,0,51.396395,4.324324,6.301802)">
<stop offset="0" style="stop-color:#ffae00;stop-opacity:1;"/>
<stop offset="0.5" style="stop-color:#dddddd;stop-opacity:1;"/>
<stop offset="1" style="stop-color:#bf1d1d;stop-opacity:1;"/>
</linearGradient>
</defs>
<g id="surface1">
<path style=" stroke:none;fill-rule:nonzero;fill:url(#linear0);" d="M 13.652344 57.027344 C 13.421875 56.664062 14.148438 55.597656 15.039062 54.671875 C 15.921875 53.746094 17.523438 52.503906 17.523438 51.914062 C 17.523438 51.328125 14.339844 43.960938 11.910156 35.539062 C 8.296875 23.039062 7.53125 20.015625 6.089844 18.484375 C 5.121094 17.4375 4.324219 16.335938 4.324219 16.09375 C 4.324219 15.855469 7.460938 15.503906 11.289062 15.515625 L 15.664062 15.53125 C 18.105469 15.4375 17.679688 15.78125 15.988281 17.160156 C 15.058594 17.929688 14.847656 18.945312 14.847656 19.421875 C 14.847656 20.378906 17.335938 29.589844 19.257812 36.230469 C 20.011719 38.785156 20.710938 41 21.941406 43.246094 C 22.375 43.351562 22.949219 41.554688 25.679688 31.382812 C 30.039062 15.160156 30.109375 15.527344 32.160156 15.527344 L 33.894531 15.527344 L 37.511719 29.527344 C 39.613281 37.660156 41.40625 43.390625 41.761719 43.28125 C 42.457031 43.058594 46.863281 25.636719 47.886719 19.4375 C 48.421875 16.160156 47.988281 15.1875 47.125 13.363281 C 46.523438 12.089844 46.324219 10.960938 46.644531 10.648438 C 47.511719 9.808594 57.449219 6.300781 58.789062 6.300781 C 60.300781 6.300781 59.90625 7.566406 57.386719 10.800781 C 54.625 14.351562 54.851562 18.171875 52.070312 27.664062 C 50.675781 32.433594 48.558594 38.824219 47.527344 41.867188 C 46.570312 44.6875 46.675781 46.835938 46.632812 48.550781 C 46.558594 51.246094 47.0625 52.855469 48.5625 54.292969 C 49.835938 55.511719 50.511719 56.300781 50.382812 56.8125 C 50.199219 57.5625 45.503906 57.699219 41.1875 57.699219 C 36.21875 57.699219 33.429688 57.421875 33.367188 56.503906 C 33.347656 56.089844 34.320312 55.550781 35.136719 54.835938 C 37.136719 53.363281 37.6875 52.648438 37.210938 50.769531 C 35.746094 45.347656 32.671875 31.066406 32.171875 30.164062 C 31.929688 29.714844 31.136719 29.976562 30.726562 32.347656 C 29.5 38.71875 27.023438 45.742188 26.460938 51.5 C 26.621094 52.671875 27.191406 53.402344 28.417969 54.335938 C 29.792969 55.382812 30.5625 56.113281 30.617188 56.617188 C 30.707031 57.488281 25.910156 57.699219 21.070312 57.699219 C 16.886719 57.699219 13.90625 57.445312 13.652344 57.027344 Z M 13.652344 57.027344 "/>
</g>
</svg>
