<svg xmlns="http://www.w3.org/2000/svg" xmlns:xlink="http://www.w3.org/1999/xlink" width="64px" height="64px" viewBox="0 0 64 64" version="1.1">
<defs>
<linearGradient id="linear0" gradientUnits="userSpaceOnUse" x1="0" y1="0" x2="0" y2="1" gradientTransform="matrix(52.274774,0,0,55.351351,6.054054,4.324324)">
<stop offset="0" style="stop-color:#00b7ff;stop-opacity:1;"/>
<stop offset="0.5" style="stop-color:#dddddd;stop-opacity:1;"/>
<stop offset="1" style="stop-color:#ee42d9;stop-opacity:1;"/>
</linearGradient>
</defs>
<g id="surface1">
<path style=" stroke:none;fill-rule:nonzero;fill:url(#linear0);" d="M 29.070312 4.328125 C 28.53125 4.320312 28.039062 4.335938 27.605469 4.378906 C 23.527344 4.738281 18.214844 8.367188 13.710938 13.875 C 9.355469 19.191406 8.105469 23.445312 9.960938 26.578125 C 12.050781 30.097656 14.472656 32.109375 17.851562 33.117188 C 20.738281 33.976562 21.597656 34.503906 24.078125 36.894531 C 28.070312 40.765625 29.445312 41.203125 37.847656 41.21875 C 41.394531 41.238281 45.664062 41.089844 47.339844 40.90625 C 49.820312 40.632812 50.863281 40.3125 52.910156 39.199219 C 58.335938 36.234375 59.207031 34.214844 57.613281 28.40625 C 57.113281 26.59375 56.296875 22.765625 55.808594 19.894531 C 55.3125 17.027344 54.6875 14.234375 54.417969 13.691406 C 53.214844 11.28125 49.351562 8.957031 42.691406 6.636719 C 39.042969 5.363281 32.878906 4.351562 29.070312 4.324219 Z M 26.710938 16.625 C 29.941406 16.761719 30.671875 19.589844 30.652344 22.011719 C 30.652344 25.433594 30.160156 26.753906 28.394531 28.058594 C 27.078125 29.039062 23.851562 29.234375 22.886719 28.402344 C 21.882812 27.53125 21.429688 25.894531 21.429688 23.121094 C 21.429688 18.945312 23.3125 16.625 26.710938 16.625 Z M 43.089844 16.625 L 43.097656 16.625 C 43.890625 16.617188 44.742188 16.863281 45.765625 17.378906 C 46.8125 17.90625 48 18.761719 48.394531 19.273438 C 49.335938 20.496094 49.335938 23.253906 48.410156 26.320312 C 47.011719 30.949219 44.230469 32.8125 40.402344 31.675781 C 38.929688 31.238281 37.1875 29.164062 36.875 27.460938 C 36.367188 24.710938 38.621094 18.886719 40.742188 17.460938 C 41.550781 16.917969 42.296875 16.636719 43.089844 16.625 Z M 16.125 35.078125 C 14.835938 35.066406 13.460938 35.496094 12.136719 36.375 C 10.515625 37.445312 7.363281 41.175781 6.523438 43.011719 C 4.9375 46.484375 7.566406 51.847656 11.527344 53.1875 C 12.917969 53.660156 12.9375 53.660156 14.199219 53.050781 C 15.691406 52.328125 16.429688 51.363281 19.027344 46.664062 C 20.78125 43.488281 21.246094 42.296875 21.375 40.6875 C 21.515625 38.855469 21.421875 38.539062 20.40625 37.226562 C 19.3125 35.8125 17.789062 35.082031 16.125 35.078125 Z M 28.917969 44.300781 C 25.933594 44.300781 23.8125 46.175781 22.433594 50.023438 C 21.234375 53.363281 21.097656 56.191406 22.089844 57.179688 C 23.8125 58.910156 30.203125 60.308594 32.160156 59.382812 C 32.96875 58.996094 33.21875 58.417969 33.609375 56.078125 C 33.976562 53.835938 33.460938 48.828125 32.664062 46.894531 C 31.957031 45.171875 30.691406 44.300781 28.917969 44.300781 Z M 42.921875 44.300781 C 42.652344 44.296875 42.339844 44.3125 41.972656 44.335938 C 39.761719 44.511719 38.566406 45.261719 37.5 47.160156 C 36.789062 48.421875 36.71875 48.882812 36.867188 51.445312 C 37.050781 54.636719 37.542969 56.273438 38.40625 56.511719 C 39.335938 56.769531 43.496094 56.394531 45.324219 55.886719 C 47.570312 55.269531 49.105469 54.042969 49.105469 52.878906 C 49.105469 51.636719 45.863281 45.726562 44.726562 44.886719 C 44.152344 44.460938 43.726562 44.308594 42.921875 44.296875 Z M 42.921875 44.300781 "/>
</g>
</svg>
