<svg xmlns="http://www.w3.org/2000/svg" xmlns:xlink="http://www.w3.org/1999/xlink" width="64px" height="64px" viewBox="0 0 64 64" version="1.1">
<defs>
<linearGradient id="linear0" gradientUnits="userSpaceOnUse" x1="0" y1="0" x2="0" y2="1" gradientTransform="matrix(46.495497,0,0,55.351351,8.752253,4.324324)">
<stop offset="0" style="stop-color:#00a2ff;stop-opacity:1;"/>
<stop offset="0.5" style="stop-color:#dddddd;stop-opacity:1;"/>
<stop offset="1" style="stop-color:#00ffae;stop-opacity:1;"/>
</linearGradient>
</defs>
<g id="surface1">
<path style=" stroke:none;fill-rule:nonzero;fill:url(#linear0);" d="M 53.417969 4.324219 C 54.511719 4.324219 55.121094 5.179688 55.246094 6.902344 L 53.867188 15 L 54.207031 15 L 54.929688 14.394531 L 55.121094 14.394531 L 55.121094 14.578125 C 54.125 15.335938 53.164062 17.417969 52.230469 20.8125 C 51.878906 23.734375 51.289062 26.433594 50.449219 28.910156 C 49.710938 31.46875 49.339844 33.828125 49.339844 35.988281 L 47.945312 40.246094 C 47.945312 40.609375 48.476562 40.96875 49.539062 41.328125 C 49.339844 42.164062 49.054688 42.585938 48.664062 42.585938 L 48.664062 42.824219 L 49.003906 42.824219 L 49.003906 43.003906 C 49.003906 43.445312 48.460938 43.664062 47.367188 43.664062 L 47.558594 43.90625 L 47.558594 44.742188 L 47.226562 44.742188 C 47.449219 45.582031 47.933594 46.003906 48.664062 46.003906 L 48.664062 46.421875 L 47.226562 46.421875 L 47.226562 46.664062 C 47.707031 46.664062 47.945312 47.023438 47.945312 47.738281 L 45.921875 48.582031 L 46.117188 48.820312 L 46.117188 49 C 46.117188 49.28125 45.875 49.421875 45.394531 49.421875 L 45.394531 49.664062 C 46.003906 49.664062 46.308594 49.796875 46.308594 50.082031 C 45.441406 50.4375 44.300781 52.21875 42.890625 55.417969 C 41.445312 58.257812 40.191406 59.675781 39.136719 59.675781 L 38.746094 59.675781 C 37.945312 59.039062 37.289062 56.917969 36.78125 53.320312 C 34.71875 47.839844 33.691406 44.621094 33.691406 43.664062 C 33.691406 41.1875 33.039062 38.988281 31.71875 36.1875 C 31.363281 34.949219 31.125 32.785156 30.996094 30.90625 L 30.132812 30.90625 C 27.949219 35.023438 26.808594 38.164062 26.710938 40.488281 C 26.105469 41.847656 25.621094 43.488281 25.265625 45.402344 C 26.582031 45.839844 27.242188 46.261719 27.242188 46.664062 L 27.242188 46.90625 C 26.214844 46.742188 25.488281 46.441406 25.070312 46.003906 C 24.625 47.082031 24.03125 49.414062 23.292969 54.335938 C 22.714844 56.613281 21.996094 57.460938 21.125 57.460938 C 18.6875 56.460938 16.648438 55.113281 15.011719 52.835938 C 14.757812 52.835938 14.335938 51.691406 13.761719 49.414062 C 13.40625 49.414062 13.164062 48.273438 13.039062 45.996094 C 11.8125 42.757812 10.984375 39.726562 10.539062 35.566406 L 10.539062 29.335938 L 10.339844 29.335938 L 9.476562 29.570312 L 9.476562 29.335938 C 9.476562 29.054688 9.761719 28.910156 10.339844 28.910156 L 10.148438 25.3125 L 10.148438 22.496094 L 8.753906 13.5 L 8.753906 10.105469 C 9.363281 7.703125 10.421875 6.511719 11.933594 6.511719 L 12.511719 7.105469 L 11.933594 6.929688 C 14.273438 10.125 15.652344 12.382812 16.070312 14.578125 L 17.707031 14.578125 L 17.707031 15 L 16.457031 15 L 16.457031 15.476562 C 16.9375 17.320312 17.289062 18.238281 17.511719 18.238281 L 17.902344 18.238281 L 18.765625 17.996094 L 18.960938 18.238281 L 19.152344 17.996094 L 19.347656 18.238281 L 19.347656 18.417969 C 18.703125 18.894531 18.269531 19.558594 18.042969 20.394531 L 17.902344 20.394531 L 17.902344 20.8125 L 18.238281 20.8125 C 18.6875 27.488281 19.523438 33.4375 20.742188 36.875 L 21.460938 37.539062 L 21.851562 37.539062 C 22.328125 37.539062 23.339844 34.914062 24.882812 30.234375 C 25.878906 28.117188 26.597656 26.5625 27.050781 24.96875 L 26.855469 24.308594 C 27.851562 22.746094 28.878906 22.039062 29.9375 22.039062 L 30.28125 22.039062 C 30.949219 22.039062 31.433594 22.40625 31.71875 23.285156 C 32.617188 24.609375 33.339844 26.28125 33.886719 28.917969 L 36.585938 34.488281 C 36.9375 34.929688 37.113281 35.429688 37.113281 35.988281 C 38.109375 38.347656 39.003906 41.203125 39.808594 41.960938 L 40.386719 41.960938 C 41.058594 41.960938 41.960938 37.746094 43.085938 31.910156 C 43.273438 31.910156 43.808594 30.351562 44.671875 27.234375 L 44.671875 26.988281 L 43.757812 26.570312 L 43.039062 26.8125 L 42.117188 26.8125 L 42.117188 26.335938 L 43.949219 26.152344 L 45.394531 26.152344 C 46.773438 20.996094 48.039062 16.996094 49.199219 14.160156 C 49.585938 8.324219 50.113281 5.40625 50.789062 5.40625 Z M 53.417969 4.324219 "/>
</g>
</svg>
