<svg xmlns="http://www.w3.org/2000/svg" xmlns:xlink="http://www.w3.org/1999/xlink" width="64px" height="64px" viewBox="0 0 64 64" version="1.1">
<defs>
<linearGradient id="linear0" gradientUnits="userSpaceOnUse" x1="0" y1="0" x2="0" y2="1" gradientTransform="matrix(34.594595,0,0,25.099098,25.081081,24.198199)">
<stop offset="0" style="stop-color:#ff8963;stop-opacity:1;"/>
<stop offset="0.5" style="stop-color:#dddddd;stop-opacity:1;"/>
<stop offset="1" style="stop-color:#0F6FFF;stop-opacity:1;"/>
</linearGradient>
<linearGradient id="linear1" gradientUnits="userSpaceOnUse" x1="0" y1="0" x2="0" y2="1" gradientTransform="matrix(47.252253,0,0,47.252253,8.373874,8.373874)">
<stop offset="0" style="stop-color:#ff8963;stop-opacity:1;"/>
<stop offset="0.5" style="stop-color:#dddddd;stop-opacity:1;"/>
<stop offset="1" style="stop-color:#0F6FFF;stop-opacity:1;"/>
</linearGradient>
</defs>
<g id="surface1">
<path style=" stroke:none;fill-rule:nonzero;fill:url(#linear0);" d="M 43.6875 24.199219 C 39.011719 24.203125 35.09375 27.070312 33.09375 31.082031 L 33.296875 31.0625 C 33.207031 31.066406 33.136719 31.121094 33.050781 31.125 C 33.003906 31.21875 32.902344 31.265625 32.855469 31.363281 L 32.949219 31.160156 C 28.527344 31.671875 25.082031 35.503906 25.082031 40.152344 C 25.082031 45.148438 29.011719 49.296875 33.910156 49.296875 L 52.808594 49.296875 C 56.617188 49.296875 59.675781 46.0625 59.675781 42.199219 C 59.675781 39.40625 58.011719 37.089844 55.6875 35.945312 L 55.707031 36.136719 L 55.707031 36.164062 C 55.703125 36.078125 55.652344 36.003906 55.644531 35.914062 C 55.542969 35.863281 55.488281 35.742188 55.386719 35.699219 L 55.617188 35.796875 C 55.136719 29.382812 50.058594 24.207031 43.691406 24.207031 L 43.761719 24.207031 L 43.71875 24.203125 Z M 45.1875 26.550781 C 49.828125 27.3125 53.445312 31.230469 53.675781 36.257812 L 53.675781 36.269531 L 53.738281 37.207031 L 54.585938 37.570312 C 56.378906 38.328125 57.636719 40.082031 57.636719 42.203125 C 57.636719 43.511719 57.09375 44.660156 56.3125 45.558594 C 57.09375 44.652344 57.636719 43.503906 57.625 42.191406 C 57.625 40.089844 56.355469 38.328125 54.582031 37.570312 L 53.726562 37.210938 L 53.664062 36.292969 L 53.664062 36.261719 C 53.4375 31.238281 49.824219 27.320312 45.191406 26.550781 Z M 43.6875 28.273438 L 43.703125 28.273438 C 47.949219 28.289062 51.421875 31.78125 51.632812 36.347656 L 51.632812 36.355469 L 51.78125 38.59375 L 53.789062 39.441406 C 54.863281 39.894531 55.597656 40.882812 55.597656 42.199219 L 55.597656 42.207031 C 55.613281 43.949219 54.3125 45.226562 52.8125 45.226562 L 33.914062 45.226562 C 31.320312 45.226562 29.160156 43.039062 29.160156 40.152344 C 29.160156 37.40625 31.164062 35.296875 33.589844 35.121094 L 35.660156 34.972656 L 36.554688 33.054688 C 37.894531 30.171875 40.542969 28.273438 43.6875 28.269531 Z M 34.605469 32.429688 L 34.320312 33.03125 Z M 28.960938 35.3125 C 27.820312 36.578125 27.117188 38.285156 27.117188 40.160156 C 27.117188 41.136719 27.3125 42.070312 27.652344 42.917969 C 27.3125 42.070312 27.117188 41.136719 27.117188 40.160156 C 27.117188 38.273438 27.820312 36.578125 28.960938 35.3125 Z M 29.113281 45.179688 C 29.726562 45.824219 30.457031 46.339844 31.269531 46.703125 C 30.457031 46.339844 29.726562 45.824219 29.113281 45.179688 Z M 56.226562 45.769531 C 55.539062 46.496094 54.539062 46.757812 53.542969 46.941406 C 54.539062 46.757812 55.539062 46.496094 56.226562 45.769531 Z M 56.226562 45.769531 "/>
<path style=" stroke:none;fill-rule:nonzero;fill:url(#linear1);" d="M 25.671875 8.375 L 22.011719 14.703125 L 14.703125 14.703125 L 14.703125 22.011719 L 8.375 25.671875 L 12.027344 32 L 8.375 38.328125 L 14.703125 41.988281 L 14.703125 49.296875 L 22.011719 49.296875 L 25.671875 55.625 L 32 51.972656 L 38.328125 55.625 L 41.988281 49.296875 L 49.296875 49.296875 L 49.296875 45.472656 C 45.527344 45.660156 41.671875 45.503906 37.867188 45.515625 C 35.5625 45.28125 32.867188 46.054688 30.921875 44.414062 C 27.6875 42.105469 28.488281 36.152344 32.46875 35.152344 C 33.476562 34.675781 34.988281 35.109375 35.660156 34.261719 C 36.914062 31.203125 39.523438 28.082031 43.117188 28.121094 C 43.957031 28.121094 44.8125 28.085938 45.636719 28.28125 C 49.757812 29.292969 52.136719 33.636719 51.988281 37.6875 C 51.570312 38.945312 53.5 38.457031 53.613281 39.445312 C 53.585938 39.488281 53.539062 39.515625 53.5 39.5625 L 55.625 38.328125 L 51.972656 32 L 55.625 25.671875 L 49.296875 22.011719 L 49.296875 14.703125 L 41.988281 14.703125 L 38.328125 8.375 L 32 12.027344 Z M 25.671875 8.375 "/>
</g>
</svg>
