<svg xmlns="http://www.w3.org/2000/svg" xmlns:xlink="http://www.w3.org/1999/xlink" width="64px" height="64px" viewBox="0 0 64 64" version="1.1">
<g id="surface1">
<path style=" stroke:none;fill-rule:nonzero;fill:rgb(21.568628%,32.156864%,58.431375%);fill-opacity:1;" d="M 56.214844 31.980469 C 56.214844 44.875 45.761719 55.332031 32.867188 55.332031 C 19.96875 55.332031 9.515625 44.875 9.515625 31.980469 C 9.515625 19.082031 19.96875 8.628906 32.867188 8.628906 C 45.761719 8.628906 56.214844 19.082031 56.214844 31.980469 Z M 56.214844 31.980469 "/>
<path style=" stroke:none;fill-rule:nonzero;fill:rgb(97.647059%,97.647059%,97.647059%);fill-opacity:1;" d="M 24.214844 26.425781 L 27.554688 26.425781 L 27.554688 24.203125 C 27.554688 22.46875 27.800781 21.273438 28.207031 20.417969 C 28.625 19.570312 29.382812 18.878906 30.484375 18.34375 C 31.59375 17.804688 33 17.53125 34.6875 17.53125 C 36.421875 17.53125 38.242188 17.980469 39.785156 18.640625 L 38.671875 21.980469 C 37.851562 21.792969 37.007812 21.707031 36.164062 21.714844 C 35.28125 21.714844 34.644531 21.910156 34.253906 22.285156 C 33.878906 22.640625 33.109375 23.15625 33.109375 24.210938 L 33.109375 26.433594 L 38.671875 26.433594 L 38.671875 29.765625 L 33.113281 29.765625 L 33.113281 46.445312 L 27.59375 46.445312 L 27.554688 29.769531 L 24.21875 29.769531 "/>
</g>
</svg>
