<svg xmlns="http://www.w3.org/2000/svg" xmlns:xlink="http://www.w3.org/1999/xlink" width="64px" height="64px" viewBox="0 0 64 64" version="1.1">
<defs>
<linearGradient id="linear0" gradientUnits="userSpaceOnUse" x1="0" y1="0" x2="0" y2="1" gradientTransform="matrix(47.423422,0,0,55.351351,8.288288,4.324324)">
<stop offset="0" style="stop-color:#00b7ff;stop-opacity:1;"/>
<stop offset="0.5" style="stop-color:#dddddd;stop-opacity:1;"/>
<stop offset="1" style="stop-color:#ee42d9;stop-opacity:1;"/>
</linearGradient>
</defs>
<g id="surface1">
<path style=" stroke:none;fill-rule:nonzero;fill:url(#linear0);" d="M 31.988281 4.324219 C 20.890625 4.335938 11.28125 12.039062 8.863281 22.875 C 6.4375 33.710938 11.855469 44.773438 21.902344 49.503906 C 19.773438 50.265625 17.945312 51.1875 16.570312 52.148438 C 13.800781 54.363281 12.617188 56.820312 12.617188 56.820312 C 12.324219 57.402344 12.335938 58.09375 12.652344 58.664062 C 12.96875 59.238281 13.550781 59.617188 14.199219 59.675781 L 49.785156 59.675781 C 50.433594 59.617188 51.011719 59.238281 51.328125 58.664062 C 51.648438 58.09375 51.664062 57.402344 51.363281 56.820312 C 51.363281 56.820312 50.179688 54.355469 47.414062 52.148438 C 46.039062 51.1875 44.210938 50.273438 42.085938 49.511719 C 52.136719 44.789062 57.5625 33.714844 55.136719 22.875 C 52.71875 12.039062 43.097656 4.324219 31.988281 4.324219 Z M 31.796875 20.136719 C 31.863281 20.136719 31.929688 20.136719 31.988281 20.136719 C 36.363281 20.136719 39.902344 23.679688 39.902344 28.042969 C 39.902344 32.414062 36.363281 35.957031 31.988281 35.957031 C 27.625 35.957031 24.085938 32.414062 24.085938 28.042969 C 24.082031 23.753906 27.511719 20.242188 31.796875 20.136719 Z M 31.988281 24.09375 C 29.808594 24.09375 28.039062 25.863281 28.039062 28.042969 C 28.039062 30.230469 29.808594 32 31.988281 32 C 34.175781 32 35.945312 30.230469 35.945312 28.042969 C 35.945312 25.863281 34.175781 24.09375 31.988281 24.09375 Z M 41.828125 35.957031 C 41.847656 35.957031 41.863281 35.957031 41.875 35.957031 C 42.96875 35.957031 43.851562 36.835938 43.851562 37.933594 C 43.851562 39.023438 42.96875 39.90625 41.875 39.90625 C 40.785156 39.90625 39.902344 39.023438 39.902344 37.933594 C 39.902344 36.855469 40.757812 35.976562 41.828125 35.957031 Z M 41.828125 35.957031 "/>
</g>
</svg>
