<svg xmlns="http://www.w3.org/2000/svg" xmlns:xlink="http://www.w3.org/1999/xlink" width="64px" height="64px" viewBox="0 0 64 64" version="1.1">
<defs>
<linearGradient id="linear0" gradientUnits="userSpaceOnUse" x1="0" y1="0" x2="0" y2="1" gradientTransform="matrix(55.351351,0,0,6.918919,4.216216,47.567568)">
<stop offset="0" style="stop-color:#ffae00;stop-opacity:1;"/>
<stop offset="0.5" style="stop-color:#dddddd;stop-opacity:1;"/>
<stop offset="1" style="stop-color:#6600ff;stop-opacity:1;"/>
</linearGradient>
<linearGradient id="linear1" gradientUnits="userSpaceOnUse" x1="0" y1="0" x2="0" y2="1" gradientTransform="matrix(55.351351,0,0,29.315314,4.324324,9.166667)">
<stop offset="0" style="stop-color:#ffae00;stop-opacity:1;"/>
<stop offset="0.5" style="stop-color:#dddddd;stop-opacity:1;"/>
<stop offset="1" style="stop-color:#6600ff;stop-opacity:1;"/>
</linearGradient>
</defs>
<g id="surface1">
<path style=" stroke:none;fill-rule:evenodd;fill:url(#linear0);" d="M 4.214844 47.566406 L 59.566406 47.566406 L 59.566406 54.488281 L 4.214844 54.488281 Z M 4.214844 47.566406 "/>
<path style=" stroke:none;fill-rule:evenodd;fill:url(#linear1);" d="M 14.851562 38 L 10.402344 38 L 4.324219 9.652344 L 9.308594 9.652344 L 12.664062 26.335938 C 12.960938 27.902344 13.125 28.808594 13.152344 29.050781 C 13.234375 28.457031 13.421875 27.550781 13.714844 26.335938 L 17.886719 9.652344 L 22.015625 9.652344 L 26.269531 26.296875 C 26.539062 27.265625 26.730469 28.171875 26.835938 29.011719 C 26.945312 28.226562 27.109375 27.335938 27.324219 26.335938 L 30.6875 9.652344 L 35.585938 9.652344 L 29.46875 38 L 25.011719 38 L 20.4375 20.460938 C 20.144531 19.414062 19.957031 18.539062 19.875 17.835938 C 19.792969 18.484375 19.617188 19.347656 19.347656 20.421875 Z M 49.714844 38.484375 C 47.121094 38.484375 44.890625 37.828125 43.011719 36.515625 C 41.136719 35.210938 39.808594 33.421875 39.027344 31.160156 L 43.515625 29.496094 C 44.113281 30.8125 44.960938 31.875 46.066406 32.671875 C 47.175781 33.46875 48.445312 33.867188 49.878906 33.867188 C 51.363281 33.867188 52.539062 33.53125 53.417969 32.855469 C 54.296875 32.179688 54.734375 31.207031 54.734375 29.9375 C 54.734375 29.429688 54.613281 28.945312 54.375 28.503906 C 54.125 28.058594 53.851562 27.6875 53.539062 27.386719 C 53.230469 27.089844 52.765625 26.792969 52.144531 26.5 C 51.523438 26.203125 50.996094 25.960938 50.5625 25.789062 C 50.132812 25.617188 49.5 25.390625 48.664062 25.121094 C 47.582031 24.742188 46.753906 24.445312 46.171875 24.230469 C 45.589844 24.011719 44.851562 23.660156 43.945312 23.160156 C 43.039062 22.660156 42.351562 22.152344 41.878906 21.636719 C 41.40625 21.125 40.988281 20.445312 40.625 19.59375 C 40.261719 18.742188 40.078125 17.808594 40.078125 16.78125 C 40.078125 14.621094 40.914062 12.8125 42.589844 11.355469 C 44.261719 9.894531 46.527344 9.164062 49.390625 9.164062 C 51.765625 9.164062 53.738281 9.730469 55.300781 10.847656 C 56.867188 11.96875 57.921875 13.433594 58.460938 15.242188 L 54.089844 16.699219 C 53.226562 14.757812 51.550781 13.785156 49.066406 13.785156 C 47.796875 13.785156 46.808594 14.042969 46.089844 14.578125 C 45.375 15.097656 45.015625 15.847656 45.015625 16.820312 C 45.015625 17.46875 45.292969 18.050781 45.847656 18.558594 C 46.402344 19.070312 46.996094 19.460938 47.632812 19.714844 C 48.265625 19.972656 49.203125 20.300781 50.441406 20.707031 C 51.253906 21.003906 51.867188 21.230469 52.289062 21.375 C 52.703125 21.523438 53.292969 21.773438 54.042969 22.121094 C 54.800781 22.476562 55.394531 22.792969 55.828125 23.078125 C 56.261719 23.363281 56.753906 23.742188 57.308594 24.230469 C 57.863281 24.714844 58.285156 25.21875 58.582031 25.746094 C 58.878906 26.273438 59.136719 26.894531 59.351562 27.609375 C 59.566406 28.328125 59.675781 29.105469 59.675781 29.9375 C 59.675781 32.585938 58.738281 34.671875 56.863281 36.199219 C 54.988281 37.71875 52.605469 38.484375 49.714844 38.484375 Z M 49.714844 38.484375 "/>
</g>
</svg>
