<svg xmlns="http://www.w3.org/2000/svg" xmlns:xlink="http://www.w3.org/1999/xlink" width="64px" height="64px" viewBox="0 0 64 64" version="1.1">
<defs>
<linearGradient id="linear0" gradientUnits="userSpaceOnUse" x1="0" y1="0" x2="0" y2="1" gradientTransform="matrix(55.351351,0,0,47.72072,4.324324,8.13964)">
<stop offset="0" style="stop-color:#ffae00;stop-opacity:1;"/>
<stop offset="0.5" style="stop-color:#dddddd;stop-opacity:1;"/>
<stop offset="1" style="stop-color:#bf1d1d;stop-opacity:1;"/>
</linearGradient>
</defs>
<g id="surface1">
<path style=" stroke:none;fill-rule:evenodd;fill:url(#linear0);" d="M 19.136719 21.742188 C 19.179688 20.511719 18.117188 19.410156 16.855469 19.375 C 15.558594 19.335938 14.5 20.324219 14.460938 21.597656 C 14.421875 22.886719 15.410156 23.921875 16.710938 23.957031 C 18.003906 23.988281 19.085938 23 19.136719 21.742188 Z M 31.46875 19.375 C 30.203125 19.394531 29.132812 20.476562 29.160156 21.707031 C 29.175781 22.988281 30.230469 23.988281 31.53125 23.96875 C 32.839844 23.949219 33.828125 22.941406 33.8125 21.636719 C 33.808594 20.363281 32.761719 19.347656 31.46875 19.375 Z M 42.78125 23.835938 C 37.644531 24.105469 33.175781 25.660156 29.542969 29.175781 C 25.882812 32.730469 24.207031 37.085938 24.664062 42.488281 C 22.660156 42.238281 20.828125 41.960938 18.988281 41.808594 C 18.351562 41.757812 17.597656 41.835938 17.0625 42.136719 C 15.273438 43.144531 13.5625 44.28125 11.539062 45.550781 C 11.90625 43.863281 12.144531 42.386719 12.570312 40.96875 C 12.886719 39.929688 12.742188 39.347656 11.785156 38.671875 C 5.613281 34.320312 3.011719 27.800781 4.960938 21.089844 C 6.761719 14.886719 11.179688 11.121094 17.1875 9.164062 C 25.386719 6.484375 34.597656 9.214844 39.582031 15.726562 C 41.386719 18.078125 42.488281 20.710938 42.78125 23.835938 Z M 35.808594 37.929688 C 36.835938 37.933594 37.691406 37.121094 37.734375 36.097656 C 37.773438 35.015625 36.902344 34.109375 35.820312 34.105469 C 34.742188 34.097656 33.839844 35.015625 33.882812 36.085938 C 33.914062 37.109375 34.773438 37.929688 35.808594 37.929688 Z M 47.742188 34.109375 C 46.738281 34.097656 45.882812 34.921875 45.847656 35.9375 C 45.800781 37.023438 46.644531 37.914062 47.71875 37.917969 C 48.757812 37.921875 49.578125 37.136719 49.617188 36.105469 C 49.660156 35.011719 48.8125 34.113281 47.742188 34.109375 Z M 54.324219 55.863281 C 52.699219 55.136719 51.203125 54.042969 49.617188 53.882812 C 48.03125 53.714844 46.367188 54.625 44.710938 54.796875 C 39.671875 55.3125 35.148438 53.910156 31.421875 50.460938 C 24.335938 43.910156 25.347656 33.863281 33.550781 28.488281 C 40.835938 23.714844 51.523438 25.3125 56.660156 31.933594 C 61.144531 37.710938 60.617188 45.382812 55.144531 50.238281 C 53.558594 51.644531 52.988281 52.796875 54.003906 54.652344 C 54.191406 54.988281 54.214844 55.429688 54.324219 55.863281 Z M 54.324219 55.863281 "/>
</g>
</svg>
