<svg xmlns="http://www.w3.org/2000/svg" xmlns:xlink="http://www.w3.org/1999/xlink" width="48px" height="48px" viewBox="0 0 48 48" version="1.1">
<defs>
<linearGradient id="linear0" gradientUnits="userSpaceOnUse" x1="4.436" y1="13.228" x2="44.861" y2="52.035999" >
<stop offset="0" style="stop-color:rgb(96.078432%,14.509805%,21.568628%);stop-opacity:1;"/>
<stop offset="0.293" style="stop-color:rgb(95.294118%,14.509805%,21.176471%);stop-opacity:1;"/>
<stop offset="0.465" style="stop-color:rgb(91.764706%,14.117648%,20.392157%);stop-opacity:1;"/>
<stop offset="0.605" style="stop-color:rgb(86.274511%,13.333334%,19.215687%);stop-opacity:1;"/>
<stop offset="0.729" style="stop-color:rgb(78.431374%,12.54902%,17.254902%);stop-opacity:1;"/>
<stop offset="0.841" style="stop-color:rgb(68.235296%,11.764706%,14.509805%);stop-opacity:1;"/>
<stop offset="0.944" style="stop-color:rgb(56.078434%,10.196079%,11.372549%);stop-opacity:1;"/>
<stop offset="1" style="stop-color:rgb(47.843137%,9.411765%,9.411765%);stop-opacity:1;"/>
</linearGradient>
<filter id="alpha" filterUnits="objectBoundingBox" x="0%" y="0%" width="100%" height="100%">
  <feColorMatrix type="matrix" in="SourceGraphic" values="0 0 0 0 1 0 0 0 0 1 0 0 0 0 1 0 0 0 1 0"/>
</filter>
<mask id="mask0">
  <g filter="url(#alpha)">
<rect x="0" y="0" width="48" height="48" style="fill:rgb(0%,0%,0%);fill-opacity:0.05;stroke:none;"/>
  </g>
</mask>
<clipPath id="clip1">
  <rect x="0" y="0" width="48" height="48"/>
</clipPath>
<g id="surface5" clip-path="url(#clip1)">
<path style=" stroke:none;fill-rule:nonzero;fill:rgb(0%,0%,0%);fill-opacity:1;" d="M 17.855469 39.996094 C 11.03125 39.996094 5.507812 36.519531 5.003906 31.90625 C 4.800781 30.035156 5.425781 28.144531 6.8125 26.441406 C 9.152344 23.558594 13.335938 21.5625 18 21.105469 C 18.691406 21.039062 19.386719 21.003906 20.066406 21.003906 C 26.988281 21.003906 32.382812 24.40625 32.894531 29.09375 C 33.097656 31.015625 32.46875 32.9375 31.074219 34.648438 C 28.769531 37.476562 24.589844 39.4375 19.894531 39.894531 C 19.21875 39.960938 18.53125 39.996094 17.855469 39.996094 Z M 17.855469 39.996094 "/>
</g>
<mask id="mask1">
  <g filter="url(#alpha)">
<rect x="0" y="0" width="48" height="48" style="fill:rgb(0%,0%,0%);fill-opacity:0.07;stroke:none;"/>
  </g>
</mask>
<clipPath id="clip2">
  <rect x="0" y="0" width="48" height="48"/>
</clipPath>
<g id="surface8" clip-path="url(#clip2)">
<path style=" stroke:none;fill-rule:nonzero;fill:rgb(0%,0%,0%);fill-opacity:1;" d="M 17.855469 39.496094 C 11.285156 39.496094 5.976562 36.210938 5.503906 31.855469 C 5.3125 30.117188 5.898438 28.355469 7.199219 26.757812 C 9.457031 23.976562 13.511719 22.050781 18.050781 21.601562 C 18.722656 21.539062 19.402344 21.503906 20.066406 21.503906 C 26.730469 21.503906 31.914062 24.71875 32.398438 29.144531 C 32.585938 30.933594 31.996094 32.726562 30.6875 34.332031 C 28.464844 37.058594 24.410156 38.953125 19.847656 39.398438 C 19.1875 39.464844 18.515625 39.496094 17.855469 39.496094 Z M 17.855469 39.496094 "/>
</g>
<linearGradient id="linear1" gradientUnits="userSpaceOnUse" x1="8.013" y1="23.431999" x2="25.715" y2="36.793999" >
<stop offset="0" style="stop-color:rgb(43.137255%,43.137255%,43.137255%);stop-opacity:1;"/>
<stop offset="0.999" style="stop-color:rgb(30.19608%,30.19608%,30.19608%);stop-opacity:1;"/>
</linearGradient>
<linearGradient id="linear2" gradientUnits="userSpaceOnUse" x1="32.889999" y1="1.14" x2="54.166" y2="40.289001" >
<stop offset="0" style="stop-color:rgb(99.607843%,81.960785%,0%);stop-opacity:1;"/>
<stop offset="0.03" style="stop-color:rgb(99.215686%,80.784315%,0%);stop-opacity:1;"/>
<stop offset="1" style="stop-color:rgb(89.019608%,37.64706%,0.392157%);stop-opacity:1;"/>
</linearGradient>
<linearGradient id="linear3" gradientUnits="userSpaceOnUse" x1="29.365999" y1="3.056" x2="50.641998" y2="42.205002" >
<stop offset="0" style="stop-color:rgb(99.607843%,81.960785%,0%);stop-opacity:1;"/>
<stop offset="0.03" style="stop-color:rgb(99.215686%,80.784315%,0%);stop-opacity:1;"/>
<stop offset="1" style="stop-color:rgb(89.019608%,37.64706%,0.392157%);stop-opacity:1;"/>
</linearGradient>
</defs>
<g id="surface1">
<path style=" stroke:none;fill-rule:nonzero;fill:url(#linear0);" d="M 34.699219 23.898438 C 34.101562 23.699219 33.699219 23.601562 34 22.800781 C 34.699219 21.101562 34.800781 19.601562 34 18.5 C 32.601562 16.5 28.699219 16.601562 24.300781 18.398438 C 24.300781 18.398438 22.898438 19 23.300781 17.898438 C 24 15.699219 23.898438 13.898438 22.800781 12.898438 C 20.398438 10.5 14 13 8.5 18.398438 C 4.398438 22.5 2 26.800781 2 30.5 C 2 37.699219 11.199219 42 20.300781 42 C 32.101562 42 40 35.199219 40 29.800781 C 40 26.5 37.199219 24.699219 34.699219 23.898438 "/>
<use xlink:href="#surface5" mask="url(#mask0)"/>
<use xlink:href="#surface8" mask="url(#mask1)"/>
<path style=" stroke:none;fill-rule:nonzero;fill:rgb(100%,100%,100%);fill-opacity:1;" d="M 31.898438 29.199219 C 31.398438 24.601562 25.300781 21.398438 18.101562 22.101562 C 11 22.800781 5.5 27.199219 6 31.800781 C 6.5 36.398438 12.699219 39.601562 19.800781 38.898438 C 27 38.199219 32.398438 33.898438 31.898438 29.199219 Z M 31.898438 29.199219 "/>
<path style=" stroke:none;fill-rule:nonzero;fill:url(#linear1);" d="M 20.898438 30.398438 C 20.601562 30.898438 20 31.199219 19.5 31 C 19 30.800781 18.898438 30.199219 19.101562 29.699219 C 19.398438 29.199219 20 28.898438 20.398438 29.199219 C 21 29.300781 21.101562 29.800781 20.898438 30.398438 M 17.601562 32.800781 C 16.898438 33.800781 15.300781 34.300781 14.101562 33.800781 C 12.898438 33.300781 12.601562 32.101562 13.300781 31.199219 C 14 30.199219 15.5 29.800781 16.699219 30.199219 C 18 30.601562 18.398438 31.800781 17.601562 32.800781 M 20.5 25.199219 C 17 24.300781 13.101562 26 11.601562 29 C 10.101562 32.101562 11.5 35.5 15.101562 36.601562 C 18.699219 37.800781 23 36 24.5 32.699219 C 26 29.5 24.101562 26.101562 20.5 25.199219 "/>
<path style=" stroke:none;fill-rule:nonzero;fill:url(#linear2);" d="M 45.371094 21.78125 C 45.8125 20.554688 46 19.320312 46 18 C 46 11.398438 40.601562 6 34 6 C 33.5 6 33 6 32.5 6.101562 C 31.699219 6.101562 31 6.800781 31 7.601562 C 31 8.398438 31.699219 9.101562 32.5 9.101562 L 32.601562 9.101562 C 32.699219 9.101562 32.699219 9.101562 32.699219 9.101562 C 33.101562 9 33.601562 9 34 9 C 39 9 43 13 43 18 C 43 19 42.800781 20 42.5 20.898438 C 42.398438 21.101562 42.398438 21.300781 42.398438 21.5 C 42.398438 22.328125 43.070312 23 43.898438 23 C 44.050781 23 44.191406 22.972656 44.328125 22.929688 C 44.335938 22.929688 44.347656 22.925781 44.355469 22.921875 C 44.871094 22.753906 45.269531 22.324219 45.371094 21.78125 Z M 45.371094 21.78125 "/>
<path style=" stroke:none;fill-rule:nonzero;fill:url(#linear3);" d="M 34 12 L 33.300781 12 C 33.300781 12 33.300781 12 33.199219 12 C 32.5 12.101562 31.898438 12.699219 31.898438 13.5 C 31.898438 14.300781 32.601562 15 33.398438 15 L 33.898438 15 C 35.601562 15 36.898438 16.300781 36.898438 18 C 36.898438 18.300781 36.800781 18.699219 36.699219 19 C 36.601562 19.199219 36.601562 19.300781 36.601562 19.5 C 36.601562 20.300781 37.300781 21 38.101562 21 C 38.699219 21 39.199219 20.601562 39.5 20.101562 L 39.5 20 C 39.5 19.898438 39.5 19.898438 39.601562 19.800781 C 39.898438 19.199219 40 18.601562 40 18 C 40 14.699219 37.300781 12 34 12 Z M 34 12 "/>
</g>
</svg>
