<svg xmlns="http://www.w3.org/2000/svg" xmlns:xlink="http://www.w3.org/1999/xlink" width="64px" height="64px" viewBox="0 0 64 64" version="1.1">
<defs>
<linearGradient id="linear0" gradientUnits="userSpaceOnUse" x1="0" y1="0" x2="0" y2="1" gradientTransform="matrix(48.630632,0,0,55.351351,7.684684,4.324324)">
<stop offset="0" style="stop-color:#00b7ff;stop-opacity:1;"/>
<stop offset="0.5" style="stop-color:#dddddd;stop-opacity:1;"/>
<stop offset="1" style="stop-color:#ee42d9;stop-opacity:1;"/>
</linearGradient>
</defs>
<g id="surface1">
<path style=" stroke:none;fill-rule:evenodd;fill:url(#linear0);" d="M 45.1875 23.058594 C 45.917969 23.058594 46.511719 23.652344 46.511719 24.382812 C 46.511719 25.109375 45.917969 25.699219 45.1875 25.699219 C 44.460938 25.699219 43.875 25.109375 43.875 24.382812 C 43.875 23.652344 44.460938 23.058594 45.1875 23.058594 Z M 39.914062 23.058594 C 40.636719 23.058594 41.234375 23.652344 41.234375 24.382812 C 41.234375 25.109375 40.636719 25.699219 39.914062 25.699219 C 39.1875 25.699219 38.59375 25.109375 38.59375 24.382812 C 38.59375 23.652344 39.1875 23.058594 39.914062 23.058594 Z M 34.636719 23.058594 C 35.363281 23.058594 35.960938 23.652344 35.960938 24.382812 C 35.960938 25.109375 35.363281 25.699219 34.636719 25.699219 C 33.910156 25.699219 33.320312 25.109375 33.320312 24.382812 C 33.320312 23.652344 33.910156 23.058594 34.636719 23.058594 Z M 29.363281 23.058594 C 30.089844 23.058594 30.679688 23.652344 30.679688 24.382812 C 30.679688 25.109375 30.089844 25.699219 29.363281 25.699219 C 28.636719 25.699219 28.039062 25.109375 28.039062 24.382812 C 28.039062 23.652344 28.636719 23.058594 29.363281 23.058594 Z M 24.085938 23.058594 C 24.8125 23.058594 25.402344 23.652344 25.402344 24.382812 C 25.402344 25.109375 24.8125 25.699219 24.085938 25.699219 C 23.355469 25.699219 22.765625 25.109375 22.765625 24.382812 C 22.765625 23.652344 23.355469 23.058594 24.085938 23.058594 Z M 18.8125 23.058594 C 19.539062 23.058594 20.125 23.652344 20.125 24.382812 C 20.125 25.109375 19.539062 25.699219 18.8125 25.699219 C 18.082031 25.699219 17.488281 25.109375 17.488281 24.382812 C 17.488281 23.652344 18.082031 23.058594 18.8125 23.058594 Z M 26.726562 59.675781 L 26.726562 43.613281 L 20.675781 40.164062 C 18.707031 39.03125 17.488281 36.9375 17.488281 34.664062 C 17.488281 31.171875 20.320312 28.339844 23.8125 28.335938 C 26.082031 28.335938 28.1875 29.5625 29.308594 31.527344 L 32 36.234375 L 34.6875 31.527344 C 35.8125 29.558594 37.914062 28.335938 40.179688 28.335938 C 43.675781 28.339844 46.503906 31.171875 46.511719 34.664062 C 46.511719 36.9375 45.292969 39.03125 43.324219 40.164062 L 37.273438 43.613281 L 37.273438 59.675781 L 56.3125 54.234375 L 51.914062 45.4375 C 52.902344 42.9375 56.3125 33.085938 52.972656 24.039062 C 49.613281 14.941406 40.136719 9.28125 35.042969 6.238281 C 34.125 5.6875 33.335938 5.210938 32.730469 4.8125 L 31.996094 4.324219 L 31.261719 4.820312 C 30.644531 5.234375 29.824219 5.726562 28.867188 6.300781 C 23.800781 9.335938 14.367188 14.988281 11.027344 24.039062 C 7.6875 33.085938 11.097656 42.9375 12.085938 45.4375 L 7.6875 54.234375 Z M 34.636719 42.085938 L 42.011719 37.867188 C 43.164062 37.210938 43.867188 35.988281 43.875 34.664062 C 43.867188 32.632812 42.21875 30.976562 40.179688 30.976562 C 38.863281 30.976562 37.632812 31.6875 36.976562 32.835938 L 32 41.550781 L 27.015625 32.835938 C 26.363281 31.6875 25.136719 30.976562 23.8125 30.976562 C 21.78125 30.976562 20.132812 32.632812 20.125 34.664062 C 20.125 35.988281 20.835938 37.214844 21.988281 37.867188 L 29.363281 42.085938 L 29.363281 52.164062 C 31.117188 52.066406 32.878906 52.066406 34.636719 52.164062 Z M 34.636719 42.085938 "/>
</g>
</svg>
