<svg xmlns="http://www.w3.org/2000/svg" xmlns:xlink="http://www.w3.org/1999/xlink" width="64px" height="64px" viewBox="0 0 64 64" version="1.1">
<defs>
<linearGradient id="linear0" gradientUnits="userSpaceOnUse" x1="0" y1="0" x2="0" y2="1" gradientTransform="matrix(55.351351,0,0,55.351351,4.324324,4.324324)">
<stop offset="0" style="stop-color:#05f7ff;stop-opacity:1;"/>
<stop offset="0.5" style="stop-color:#dddddd;stop-opacity:1;"/>
<stop offset="1" style="stop-color:#e6ff05;stop-opacity:1;"/>
</linearGradient>
</defs>
<g id="surface1">
<path style=" stroke:none;fill-rule:nonzero;fill:url(#linear0);" d="M 32 4.324219 C 31.335938 4.324219 30.675781 4.363281 30.015625 4.40625 C 29.9375 4.410156 29.863281 4.410156 29.78125 4.417969 C 19.890625 5.199219 11.511719 11.136719 7.285156 19.554688 C 7.011719 20.097656 6.730469 20.644531 6.496094 21.207031 C 5.199219 24.136719 4.488281 27.234375 4.363281 30.488281 C 4.363281 30.589844 4.355469 30.699219 4.351562 30.800781 C 4.339844 31.113281 4.328125 31.421875 4.328125 31.734375 C 4.328125 31.824219 4.324219 31.910156 4.324219 32 C 4.324219 35.214844 4.894531 38.292969 5.894531 41.164062 C 6.300781 42.445312 6.765625 43.742188 7.324219 45.058594 C 8.71875 48.335938 8.894531 49.230469 8.675781 51.960938 C 8.523438 53.875 8.003906 55.824219 7.355469 56.917969 C 6.769531 57.914062 6.300781 58.941406 6.300781 59.203125 C 6.300781 60.011719 10.960938 59.726562 15.09375 58.664062 C 19.933594 57.433594 20.355469 57.433594 24.324219 58.675781 C 26.136719 59.242188 28.203125 59.550781 30.539062 59.636719 C 30.636719 59.636719 30.738281 59.644531 30.835938 59.648438 C 31.160156 59.660156 31.46875 59.675781 31.796875 59.675781 C 31.824219 59.675781 31.847656 59.675781 31.867188 59.675781 C 31.914062 59.675781 31.960938 59.675781 32 59.675781 C 32.773438 59.675781 33.539062 59.636719 34.289062 59.570312 C 41.132812 59.085938 46.625 56.558594 51.570312 51.621094 C 55.648438 47.554688 58.175781 42.53125 59.175781 37.273438 C 59.265625 36.796875 59.335938 36.308594 59.40625 35.8125 C 59.445312 35.515625 59.488281 35.21875 59.515625 34.917969 C 59.585938 34.273438 59.625 33.617188 59.648438 32.960938 C 59.652344 32.792969 59.664062 32.632812 59.664062 32.460938 C 59.664062 32.3125 59.675781 32.152344 59.675781 32 C 59.675781 16.921875 47.738281 4.746094 32.761719 4.339844 C 32.648438 4.335938 32.527344 4.335938 32.410156 4.335938 C 32.273438 4.335938 32.136719 4.324219 32 4.324219 Z M 23.351562 18.164062 C 26.214844 18.164062 28.539062 20.488281 28.539062 23.351562 C 28.539062 25.082031 28.539062 28.539062 25.082031 28.539062 C 25.082031 32 32.109375 38.730469 35.460938 38.917969 C 35.460938 35.460938 38.917969 35.460938 40.648438 35.460938 C 43.511719 35.460938 45.835938 37.785156 45.835938 40.648438 C 45.835938 43.511719 43.511719 45.835938 40.648438 45.835938 L 38.707031 45.835938 C 37.6875 45.8125 36.488281 45.4375 34.8125 44.824219 C 29.199219 42.773438 25.296875 39.488281 21.300781 33.433594 C 18.976562 29.90625 18.175781 27.785156 18.164062 25.136719 L 18.164062 23.351562 C 18.164062 20.488281 20.488281 18.164062 23.351562 18.164062 Z M 23.351562 18.164062 "/>
</g>
</svg>
