<svg xmlns="http://www.w3.org/2000/svg" xmlns:xlink="http://www.w3.org/1999/xlink" width="64px" height="64px" viewBox="0 0 64 64" version="1.1">
<defs>
<linearGradient id="linear0" gradientUnits="userSpaceOnUse" x1="0" y1="0" x2="0" y2="1" gradientTransform="matrix(55.351351,0,0,51.666666,4.324324,6.166666)">
<stop offset="0" style="stop-color:#05f7ff;stop-opacity:1;"/>
<stop offset="0.5" style="stop-color:#dddddd;stop-opacity:1;"/>
<stop offset="1" style="stop-color:#e6ff05;stop-opacity:1;"/>
</linearGradient>
</defs>
<g id="surface1">
<path style=" stroke:none;fill-rule:evenodd;fill:url(#linear0);" d="M 33.945312 32.664062 C 34.386719 32.226562 34.988281 31.972656 35.613281 31.972656 C 36.242188 31.972656 36.835938 32.226562 37.28125 32.664062 C 37.71875 33.105469 37.972656 33.703125 37.972656 34.328125 C 37.972656 34.960938 37.71875 35.558594 37.28125 35.996094 L 24.707031 48.5625 C 24.269531 49.003906 23.671875 49.257812 23.042969 49.257812 C 22.414062 49.257812 21.820312 49.003906 21.378906 48.5625 C 20.9375 48.125 20.6875 47.527344 20.6875 46.902344 C 20.6875 46.269531 20.9375 45.675781 21.378906 45.234375 Z M 40.527344 6.164062 C 57.285156 6.164062 59.675781 8.558594 59.675781 25.296875 L 59.675781 38.703125 C 59.675781 55.441406 57.285156 57.835938 40.527344 57.835938 L 23.472656 57.835938 C 6.714844 57.835938 4.324219 55.441406 4.324219 38.703125 L 4.324219 25.296875 C 4.324219 8.558594 6.714844 6.164062 23.472656 6.164062 Z M 35.707031 48.5625 C 35.265625 49.003906 34.671875 49.257812 34.039062 49.257812 C 33.410156 49.257812 32.8125 49.003906 32.378906 48.5625 C 31.9375 48.125 31.6875 47.527344 31.6875 46.902344 C 31.6875 46.269531 31.9375 45.675781 32.378906 45.234375 L 44.945312 32.664062 C 45.382812 32.226562 45.984375 31.972656 46.609375 31.972656 C 47.238281 31.972656 47.835938 32.226562 48.273438 32.664062 C 48.714844 33.105469 48.96875 33.703125 48.96875 34.328125 C 48.96875 34.960938 48.714844 35.558594 48.273438 35.996094 Z M 35.707031 48.5625 "/>
</g>
</svg>
