<svg xmlns="http://www.w3.org/2000/svg" xmlns:xlink="http://www.w3.org/1999/xlink" width="64px" height="64px" viewBox="0 0 64 64" version="1.1">
<defs>
<linearGradient id="linear0" gradientUnits="userSpaceOnUse" x1="0" y1="0" x2="0" y2="1" gradientTransform="matrix(55.351351,0,0,54.207206,4.324324,4.896397)">
<stop offset="0" style="stop-color:#00fff2;stop-opacity:1;"/>
<stop offset="0.5" style="stop-color:#dddddd;stop-opacity:1;"/>
<stop offset="1" style="stop-color:#0062ff;stop-opacity:1;"/>
</linearGradient>
</defs>
<g id="surface1">
<path style=" stroke:none;fill-rule:nonzero;fill:url(#linear0);" d="M 39.675781 32.1875 C 42.578125 34.585938 45.152344 37.539062 46.839844 40.703125 C 56.363281 28.484375 56.988281 18.417969 48.707031 10.488281 L 44.484375 10.988281 L 52.066406 5.765625 C 65.390625 17.199219 60.148438 32.621094 44.609375 46.296875 C 42.675781 42.828125 40.734375 40.105469 38.789062 38.136719 C 38.855469 42.566406 38.617188 46.636719 39.882812 53.511719 C 42.285156 52.527344 45.851562 52.289062 50.570312 52.765625 C 53.894531 47.863281 56.550781 44.886719 58.539062 43.8125 C 55.921875 49.484375 55.554688 53.550781 56.417969 55.746094 C 55.582031 57.328125 54.136719 58.367188 53.0625 59.105469 L 51.070312 56.117188 C 41.875 56.066406 34.539062 56.113281 29.066406 56.242188 L 29.1875 55 L 33.792969 54.003906 C 32.363281 47.039062 32.945312 43.238281 33.664062 42.566406 C 33.457031 41.4375 33.265625 40.363281 33.113281 39.347656 L 28.320312 45.550781 C 17.335938 39.226562 11.996094 30.199219 12.28125 18.449219 C 8.28125 18.566406 5.632812 17.578125 4.324219 15.460938 C 7.085938 16.785156 9.863281 16.496094 12.652344 14.589844 L 17.378906 4.894531 C 22.339844 6.652344 25.949219 9.558594 28.191406 13.597656 C 26.207031 17.539062 22.566406 19.40625 17.257812 19.191406 C 17.886719 28.28125 21.121094 36.03125 26.949219 42.445312 L 32.6875 33.753906 C 32.773438 32.144531 33.121094 30.773438 33.847656 29.648438 C 33.03125 23.210938 31.273438 19.851562 28.566406 19.566406 L 27.945312 17.828125 L 44.855469 17.949219 L 44.730469 19.441406 C 40.648438 18.707031 39.070312 22.957031 38.761719 30.03125 C 39.230469 30.726562 39.539062 31.445312 39.675781 32.1875 Z M 39.675781 32.1875 "/>
</g>
</svg>
