<svg xmlns="http://www.w3.org/2000/svg" xmlns:xlink="http://www.w3.org/1999/xlink" width="64px" height="64px" viewBox="0 0 64 64" version="1.1">
<defs>
<linearGradient id="linear0" gradientUnits="userSpaceOnUse" x1="0" y1="0" x2="0" y2="1" gradientTransform="matrix(55.351351,0,0,48.846848,4.324324,7.576577)">
<stop offset="0" style="stop-color:#ffae00;stop-opacity:1;"/>
<stop offset="0.5" style="stop-color:#dddddd;stop-opacity:1;"/>
<stop offset="1" style="stop-color:#6600ff;stop-opacity:1;"/>
</linearGradient>
</defs>
<g id="surface1">
<path style=" stroke:none;fill-rule:nonzero;fill:url(#linear0);" d="M 32 7.578125 C 21.976562 7.578125 11.960938 11.390625 4.324219 19.023438 L 7.089844 21.796875 C 20.863281 8.027344 43.136719 8.027344 56.910156 21.796875 L 59.675781 19.023438 C 52.039062 11.390625 42.023438 7.578125 32 7.578125 Z M 32 18.785156 C 24.785156 18.785156 17.566406 21.53125 12.078125 27.023438 L 14.839844 29.792969 C 24.335938 20.296875 39.664062 20.296875 49.160156 29.792969 L 51.921875 27.023438 C 46.433594 21.53125 39.214844 18.785156 32 18.785156 Z M 32 30.050781 C 27.589844 30.050781 23.179688 31.71875 19.824219 35.078125 L 22.589844 37.851562 C 27.808594 32.636719 36.191406 32.636719 41.410156 37.851562 L 44.175781 35.078125 C 40.820312 31.71875 36.410156 30.050781 32 30.050781 Z M 32 41.390625 C 27.851562 41.390625 24.488281 44.757812 24.488281 48.910156 C 24.488281 53.058594 27.851562 56.421875 32 56.421875 C 36.148438 56.421875 39.511719 53.058594 39.511719 48.910156 C 39.511719 44.757812 36.148438 41.390625 32 41.390625 Z M 32 41.390625 "/>
</g>
</svg>
