<svg xmlns="http://www.w3.org/2000/svg" xmlns:xlink="http://www.w3.org/1999/xlink" width="64px" height="64px" viewBox="0 0 64 64" version="1.1">
<defs>
<linearGradient id="linear0" gradientUnits="userSpaceOnUse" x1="0" y1="0" x2="0" y2="1" gradientTransform="matrix(28.621622,0,0,51.216216,31.054054,6.391892)">
<stop offset="0" style="stop-color:#ffae00;stop-opacity:1;"/>
<stop offset="0.5" style="stop-color:#dddddd;stop-opacity:1;"/>
<stop offset="1" style="stop-color:#bf1d1d;stop-opacity:1;"/>
</linearGradient>
<linearGradient id="linear1" gradientUnits="userSpaceOnUse" x1="0" y1="0" x2="0" y2="1" gradientTransform="matrix(40.072071,0,0,51.216216,4.324324,6.391892)">
<stop offset="0" style="stop-color:#ffae00;stop-opacity:1;"/>
<stop offset="0.5" style="stop-color:#dddddd;stop-opacity:1;"/>
<stop offset="1" style="stop-color:#bf1d1d;stop-opacity:1;"/>
</linearGradient>
</defs>
<g id="surface1">
<path style=" stroke:none;fill-rule:nonzero;fill:url(#linear0);" d="M 31.054688 6.390625 L 31.054688 22.617188 L 41.617188 32 L 31.054688 41.386719 L 31.054688 57.609375 L 59.675781 32 Z M 34.597656 14.324219 L 54.351562 32 L 34.597656 49.675781 L 34.597656 42.976562 L 46.960938 32 L 34.597656 21.023438 Z M 34.597656 14.324219 "/>
<path style=" stroke:none;fill-rule:nonzero;fill:url(#linear1);" d="M 15.78125 6.390625 L 15.78125 22.589844 L 4.324219 22.589844 L 4.324219 41.410156 L 15.78125 41.410156 L 15.78125 57.609375 L 44.394531 32 Z M 19.328125 14.328125 L 39.078125 32 L 19.328125 49.671875 L 19.328125 37.863281 L 7.878906 37.863281 L 7.878906 26.136719 L 19.328125 26.136719 Z M 19.328125 14.328125 "/>
</g>
</svg>
