<svg xmlns="http://www.w3.org/2000/svg" xmlns:xlink="http://www.w3.org/1999/xlink" width="64px" height="64px" viewBox="0 0 64 64" version="1.1">
<defs>
<linearGradient id="linear0" gradientUnits="userSpaceOnUse" x1="0" y1="0" x2="0" y2="1" gradientTransform="matrix(51.891892,0,0,42.153152,6.054054,10.603603)">
<stop offset="0" style="stop-color:#05f7ff;stop-opacity:1;"/>
<stop offset="0.5" style="stop-color:#dddddd;stop-opacity:1;"/>
<stop offset="1" style="stop-color:#e6ff05;stop-opacity:1;"/>
</linearGradient>
</defs>
<g id="surface1">
<path style=" stroke:none;fill-rule:nonzero;fill:url(#linear0);" d="M 6.054688 10.605469 L 6.054688 39.214844 C 6.054688 39.214844 6.039062 42.632812 8.117188 46.023438 C 10.1875 49.410156 14.53125 52.757812 22.269531 52.757812 C 26.558594 52.757812 29.609375 51.652344 32 50.164062 C 34.390625 51.652344 37.445312 52.757812 41.730469 52.757812 C 49.46875 52.757812 53.8125 49.410156 55.886719 46.023438 C 57.960938 42.632812 57.945312 39.214844 57.945312 39.214844 L 57.945312 10.605469 L 54.703125 10.605469 L 54.703125 39.214844 C 54.703125 39.214844 54.6875 41.761719 53.117188 44.335938 C 51.539062 46.902344 48.585938 49.511719 41.730469 49.511719 C 38.441406 49.511719 36.136719 48.863281 34.363281 47.957031 C 35.003906 47.28125 35.996094 46.726562 36.429688 46.023438 C 38.5 42.632812 38.488281 39.214844 38.488281 39.214844 L 38.488281 17.753906 C 38.488281 17.753906 38.511719 16.078125 37.742188 14.335938 C 36.972656 12.585938 35.042969 10.605469 32 10.605469 C 28.957031 10.605469 27.027344 12.585938 26.257812 14.335938 C 25.488281 16.078125 25.511719 17.753906 25.511719 17.753906 L 25.511719 39.214844 C 25.511719 39.214844 25.5 42.632812 27.578125 46.023438 C 28.003906 46.726562 28.996094 47.28125 29.636719 47.957031 C 27.863281 48.863281 25.558594 49.511719 22.269531 49.511719 C 15.414062 49.511719 12.460938 46.902344 10.886719 44.335938 C 9.3125 41.761719 9.296875 39.214844 9.296875 39.214844 L 9.296875 10.605469 Z M 32 13.847656 C 33.820312 13.847656 34.324219 14.621094 34.769531 15.644531 C 35.214844 16.664062 35.242188 17.753906 35.242188 17.753906 L 35.242188 39.214844 C 35.242188 39.214844 35.230469 41.761719 33.660156 44.335938 C 33.308594 44.90625 32.515625 45.367188 32 45.917969 C 31.484375 45.367188 30.691406 44.90625 30.347656 44.335938 C 28.769531 41.761719 28.757812 39.214844 28.757812 39.214844 L 28.757812 17.753906 C 28.757812 17.753906 28.785156 16.664062 29.230469 15.644531 C 29.675781 14.621094 30.179688 13.847656 32 13.847656 Z M 32 13.847656 "/>
</g>
</svg>
