<svg xmlns="http://www.w3.org/2000/svg" xmlns:xlink="http://www.w3.org/1999/xlink" width="64px" height="64px" viewBox="0 0 64 64" version="1.1">
<defs>
<linearGradient id="linear0" gradientUnits="userSpaceOnUse" x1="0" y1="0" x2="0" y2="1" gradientTransform="matrix(55.351351,0,0,32.797297,4.324324,15.599099)">
<stop offset="0" style="stop-color:#00fff2;stop-opacity:1;"/>
<stop offset="0.5" style="stop-color:#dddddd;stop-opacity:1;"/>
<stop offset="1" style="stop-color:#0062ff;stop-opacity:1;"/>
</linearGradient>
</defs>
<g id="surface1">
<path style=" stroke:none;fill-rule:nonzero;fill:url(#linear0);" d="M 45.917969 15.597656 C 45.910156 15.605469 45.90625 15.605469 45.894531 15.609375 C 32.609375 15.820312 25.054688 23.730469 21.148438 31.363281 C 17.902344 37.710938 17.160156 43.003906 16.933594 44.9375 L 4.324219 44.9375 L 4.324219 48.394531 L 18.390625 48.394531 C 19.296875 48.402344 20.050781 47.707031 20.121094 46.800781 C 20.121094 46.800781 20.6875 39.875 24.230469 32.9375 C 27.488281 26.570312 33.210938 20.589844 43.363281 19.472656 C 37.363281 32.589844 43.839844 47.390625 43.839844 47.390625 C 44.125 48.003906 44.738281 48.394531 45.410156 48.394531 L 59.675781 48.394531 L 59.675781 44.9375 L 46.707031 44.9375 C 46.054688 43.394531 40.261719 29.40625 47.378906 18.261719 C 47.71875 17.730469 47.742188 17.054688 47.4375 16.5 C 47.136719 15.945312 46.550781 15.597656 45.917969 15.597656 Z M 45.917969 15.597656 "/>
</g>
</svg>
