<svg xmlns="http://www.w3.org/2000/svg" xmlns:xlink="http://www.w3.org/1999/xlink" width="64px" height="64px" viewBox="0 0 64 64" version="1.1">
<defs>
<linearGradient id="linear0" gradientUnits="userSpaceOnUse" x1="0" y1="0" x2="0" y2="1" gradientTransform="matrix(55.351351,0,0,43.045044,4.324324,10.477478)">
<stop offset="0" style="stop-color:#00a2ff;stop-opacity:1;"/>
<stop offset="0.5" style="stop-color:#dddddd;stop-opacity:1;"/>
<stop offset="1" style="stop-color:#00ffae;stop-opacity:1;"/>
</linearGradient>
</defs>
<g id="surface1">
<path style=" stroke:none;fill-rule:nonzero;fill:url(#linear0);" d="M 10.476562 10.476562 C 7.066406 10.476562 4.324219 13.21875 4.324219 16.625 L 32 32 L 59.675781 16.625 C 59.675781 13.21875 56.933594 10.476562 53.523438 10.476562 Z M 10.476562 13.550781 L 53.523438 13.550781 C 54.6875 13.550781 55.484375 14.238281 56.003906 15.144531 L 32 28.476562 L 7.996094 15.144531 C 8.515625 14.238281 9.3125 13.542969 10.472656 13.542969 Z M 4.324219 19.699219 L 4.324219 47.375 C 4.324219 50.78125 7.066406 53.523438 10.476562 53.523438 L 53.523438 53.523438 C 56.933594 53.523438 59.675781 50.78125 59.675781 47.375 L 59.675781 19.699219 L 32 35.078125 Z M 7.402344 24.933594 L 30.503906 37.765625 C 31.433594 38.285156 32.566406 38.285156 33.496094 37.765625 L 56.597656 24.933594 L 56.597656 47.375 C 56.597656 49.132812 55.28125 50.449219 53.523438 50.449219 L 10.472656 50.449219 C 8.714844 50.449219 7.394531 49.132812 7.394531 47.375 L 7.394531 24.933594 Z M 7.402344 24.933594 "/>
</g>
</svg>
