<svg xmlns="http://www.w3.org/2000/svg" xmlns:xlink="http://www.w3.org/1999/xlink" width="64px" height="64px" viewBox="0 0 64 64" version="1.1">
<defs>
<linearGradient id="linear0" gradientUnits="userSpaceOnUse" x1="0" y1="0" x2="0" y2="1" gradientTransform="matrix(55.351351,0,0,40.369368,4.324324,11.815316)">
<stop offset="0" style="stop-color:#ff8963;stop-opacity:1;"/>
<stop offset="0.5" style="stop-color:#dddddd;stop-opacity:1;"/>
<stop offset="1" style="stop-color:#0F6FFF;stop-opacity:1;"/>
</linearGradient>
</defs>
<g id="surface1">
<path style=" stroke:none;fill-rule:nonzero;fill:url(#linear0);" d="M 30.191406 11.8125 L 30.191406 23.40625 L 33.808594 23.40625 L 33.808594 15.984375 L 35.164062 15.082031 Z M 23.949219 16.914062 L 23.730469 20.699219 L 18.972656 20.691406 L 21.636719 19.792969 L 4.324219 19.792969 L 13.988281 20.699219 L 10.625 23.40625 L 27.484375 23.40625 L 27.484375 18.460938 Z M 40.050781 16.914062 L 36.515625 18.460938 L 36.515625 23.40625 L 53.375 23.40625 L 50.011719 20.699219 L 59.675781 19.792969 L 42.363281 19.792969 L 45.027344 20.691406 L 40.269531 20.699219 Z M 20.039062 25.210938 L 23.867188 28.257812 L 23.867188 52.152344 L 30.191406 48.296875 L 30.191406 52.1875 L 40.132812 44.839844 L 40.132812 28.335938 L 44.011719 25.210938 L 36.515625 25.210938 L 36.515625 43.1875 L 33.839844 45.054688 L 33.769531 25.210938 L 30.191406 25.210938 L 30.191406 43.21875 L 27.527344 45.054688 L 27.441406 25.210938 Z M 20.039062 25.210938 "/>
</g>
</svg>
