<svg xmlns="http://www.w3.org/2000/svg" xmlns:xlink="http://www.w3.org/1999/xlink" width="64px" height="64px" viewBox="0 0 64 64" version="1.1">
<defs>
<linearGradient id="linear0" gradientUnits="userSpaceOnUse" x1="0" y1="0" x2="0" y2="1" gradientTransform="matrix(55.351351,0,0,50.324324,4.324324,6.837839)">
<stop offset="0" style="stop-color:#ffae00;stop-opacity:1;"/>
<stop offset="0.5" style="stop-color:#dddddd;stop-opacity:1;"/>
<stop offset="1" style="stop-color:#bf1d1d;stop-opacity:1;"/>
</linearGradient>
</defs>
<g id="surface1">
<path style=" stroke:none;fill-rule:nonzero;fill:url(#linear0);" d="M 31.800781 6.835938 C 23.589844 6.835938 18.6875 11.96875 18.6875 11.96875 L 26.226562 26.289062 C 27.917969 25.097656 29.933594 24.457031 32 24.449219 C 33.957031 24.457031 35.863281 25.027344 37.496094 26.097656 L 44.941406 11.96875 C 44.941406 11.96875 40.011719 6.835938 31.800781 6.835938 Z M 32 29.488281 C 29.21875 29.488281 26.96875 31.738281 26.96875 34.511719 C 26.96875 37.296875 29.21875 39.550781 32 39.550781 C 34.78125 39.550781 37.03125 37.296875 37.03125 34.511719 C 37.03125 31.738281 34.78125 29.488281 32 29.488281 Z M 42.203125 34.214844 C 42.175781 34.957031 42.058594 35.691406 41.878906 36.429688 C 41.855469 36.539062 41.835938 36.644531 41.808594 36.753906 C 41.789062 36.800781 41.78125 36.855469 41.765625 36.910156 C 41.085938 39.6875 39.257812 42.039062 36.738281 43.382812 L 45.976562 56.957031 C 45.976562 56.957031 53.0625 55.417969 57.164062 48.589844 C 61.273438 41.761719 59.105469 35.121094 59.105469 35.121094 L 59.105469 35.113281 Z M 21.792969 34.421875 L 4.890625 35.324219 C 4.890625 35.324219 2.734375 41.988281 6.835938 48.8125 C 10.945312 55.648438 18.015625 57.164062 18.015625 57.164062 L 27.28125 43.554688 C 26.386719 43.015625 25.566406 42.347656 24.835938 41.582031 C 24.703125 41.441406 24.582031 41.300781 24.460938 41.164062 C 24.347656 41.03125 24.230469 40.914062 24.125 40.78125 C 24.121094 40.773438 24.117188 40.773438 24.117188 40.769531 C 23.863281 40.445312 23.632812 40.105469 23.417969 39.753906 C 23.394531 39.714844 23.367188 39.6875 23.347656 39.652344 C 23.300781 39.582031 23.273438 39.503906 23.234375 39.433594 C 23.117188 39.226562 23.003906 39.011719 22.90625 38.792969 C 22.214844 37.386719 21.839844 35.902344 21.792969 34.421875 Z M 21.792969 34.421875 "/>
</g>
</svg>
