<svg xmlns="http://www.w3.org/2000/svg" xmlns:xlink="http://www.w3.org/1999/xlink" width="64px" height="64px" viewBox="0 0 64 64" version="1.1">
<g id="surface1">
<path style=" stroke:none;fill-rule:evenodd;fill:rgb(86.274511%,29.803923%,22.745098%);fill-opacity:1;" d="M 15.566406 7.785156 C 13.171875 7.785156 11.242188 9.710938 11.242188 12.109375 L 11.242188 51.890625 C 11.242188 54.289062 13.171875 56.214844 15.566406 56.214844 L 48.433594 56.214844 C 50.828125 56.214844 52.757812 54.289062 52.757812 51.890625 L 52.757812 18.164062 L 42.378906 7.785156 Z M 15.566406 7.785156 "/>
<path style=" stroke:none;fill-rule:evenodd;fill:rgb(90.588236%,50.980395%,45.882353%);fill-opacity:1;" d="M 52.757812 18.164062 L 42.378906 7.785156 L 42.378906 13.835938 C 42.378906 16.234375 44.308594 18.164062 46.703125 18.164062 Z M 52.757812 18.164062 "/>
<path style=" stroke:none;fill-rule:evenodd;fill:rgb(100%,100%,100%);fill-opacity:1;" d="M 29.835938 22.488281 C 29.117188 22.488281 28.539062 23.0625 28.539062 23.785156 L 28.539062 34.164062 C 28.539062 34.882812 29.117188 35.460938 29.835938 35.460938 C 30.558594 35.460938 31.136719 34.882812 31.136719 34.164062 L 31.136719 25.082031 L 35.460938 25.082031 C 38.804688 25.082031 41.511719 27.789062 41.511719 31.136719 C 41.511719 34.480469 38.804688 37.1875 35.460938 37.1875 L 25.945312 37.1875 L 25.945312 37.210938 C 23.019531 37.4375 20.761719 39.875 20.757812 42.8125 C 20.757812 45.914062 23.273438 48.433594 26.378906 48.433594 L 29.835938 48.433594 C 30.558594 48.433594 31.136719 47.855469 31.136719 47.136719 L 31.136719 42.8125 C 31.136719 42.089844 30.558594 41.511719 29.835938 41.511719 C 29.117188 41.511719 28.539062 42.089844 28.539062 42.8125 L 28.539062 45.835938 L 26.378906 45.835938 C 24.707031 45.835938 23.351562 44.484375 23.351562 42.8125 C 23.351562 41.136719 24.707031 39.785156 26.378906 39.785156 L 35.460938 39.785156 C 40.238281 39.785156 44.109375 35.914062 44.109375 31.136719 C 44.109375 26.359375 40.238281 22.488281 35.460938 22.488281 Z M 29.835938 22.488281 "/>
</g>
</svg>
