<svg xmlns="http://www.w3.org/2000/svg" xmlns:xlink="http://www.w3.org/1999/xlink" width="64px" height="64px" viewBox="0 0 64 64" version="1.1">
<g id="surface1">
<path style=" stroke:none;fill-rule:nonzero;fill:rgb(16.078432%,45.882353%,90.196079%);fill-opacity:1;" d="M 30.457031 6.460938 L 10.414062 17.914062 C 9.539062 18.414062 8.648438 18.703125 8.648438 19.679688 L 8.648438 44.351562 C 8.648438 45.328125 9.5625 45.628906 10.414062 46.113281 L 30.457031 57.570312 C 31.5625 58.207031 32.585938 58.121094 33.539062 57.570312 L 53.585938 46.113281 C 54.46875 45.613281 55.351562 45.328125 55.351562 44.351562 L 55.351562 19.679688 C 55.351562 18.703125 54.4375 18.402344 53.585938 17.914062 L 33.539062 6.460938 C 32.4375 5.824219 31.5625 5.824219 30.457031 6.460938 Z M 30.457031 6.460938 "/>
<path style=" stroke:none;fill-rule:nonzero;fill:rgb(100%,100%,100%);fill-opacity:1;" d="M 18.417969 23.6875 C 16.78125 23.6875 15.714844 25.414062 16.449219 26.878906 L 25.496094 44.917969 C 25.824219 45.625 27.605469 45.65625 27.960938 44.917969 L 37.507812 25.886719 L 45.582031 25.886719 L 37.269531 42.460938 L 33.863281 35.675781 L 32.632812 38.132812 L 36.039062 44.917969 C 36.371094 45.601562 38.15625 45.714844 38.503906 44.917969 L 47.550781 26.878906 C 48.285156 25.414062 47.21875 23.6875 45.582031 23.6875 L 37.507812 23.6875 C 36.675781 23.6875 35.914062 24.15625 35.539062 24.898438 L 26.730469 42.460938 L 18.417969 25.886719 L 26.492188 25.886719 L 30.136719 33.148438 L 31.367188 30.691406 L 28.460938 24.898438 C 28.085938 24.15625 27.324219 23.6875 26.492188 23.6875 Z M 18.417969 23.6875 "/>
</g>
</svg>
