<svg xmlns="http://www.w3.org/2000/svg" xmlns:xlink="http://www.w3.org/1999/xlink" width="64px" height="64px" viewBox="0 0 64 64" version="1.1">
<defs>
<linearGradient id="linear0" gradientUnits="userSpaceOnUse" x1="0" y1="0" x2="0" y2="1" gradientTransform="matrix(55.351351,0,0,46.630632,4.324324,8.684685)">
<stop offset="0" style="stop-color:#00fff2;stop-opacity:1;"/>
<stop offset="0.5" style="stop-color:#dddddd;stop-opacity:1;"/>
<stop offset="1" style="stop-color:#0062ff;stop-opacity:1;"/>
</linearGradient>
</defs>
<g id="surface1">
<path style=" stroke:none;fill-rule:evenodd;fill:url(#linear0);" d="M 41.347656 35.960938 C 39.179688 36.511719 36.757812 36.605469 34.050781 36.605469 C 29.449219 36.605469 25.886719 36.6875 24.652344 37.171875 C 24.039062 37.414062 23.960938 37.460938 23.714844 37.914062 C 23.46875 38.363281 23.125 39.449219 23.125 41.5 C 23.148438 43.058594 22.328125 44.511719 20.976562 45.292969 C 19.632812 46.082031 17.960938 46.082031 16.617188 45.292969 C 15.269531 44.511719 14.449219 43.058594 14.472656 41.5 C 14.472656 38.542969 14.914062 35.988281 16.125 33.765625 C 17.347656 31.550781 19.414062 29.917969 21.488281 29.105469 C 25.644531 27.472656 29.699219 27.949219 34.050781 27.949219 C 38.238281 27.949219 40.136719 27.28125 40.488281 26.988281 C 40.851562 26.699219 41.335938 25.988281 41.335938 22.613281 C 41.300781 20.230469 43.207031 18.265625 45.589844 18.230469 C 46.761719 18.207031 47.886719 18.664062 48.71875 19.488281 C 49.542969 20.3125 50.003906 21.445312 49.988281 22.613281 C 49.988281 26.070312 49.46875 29.390625 47.636719 31.914062 C 48.039062 32.113281 48.410156 32.378906 48.730469 32.703125 C 49.558594 33.527344 50.015625 34.660156 50 35.824219 L 50 40.910156 C 50.023438 42.472656 49.199219 43.921875 47.855469 44.707031 C 46.503906 45.488281 44.839844 45.488281 43.488281 44.707031 C 42.148438 43.921875 41.328125 42.472656 41.347656 40.910156 Z M 31.878906 45.289062 C 29.800781 50.8125 24.636719 54.730469 18.59375 54.730469 C 10.710938 54.730469 4.324219 48.078125 4.324219 39.863281 C 4.324219 36.339844 5.503906 33.105469 7.476562 30.5625 C 5.660156 28.324219 4.582031 25.523438 4.582031 22.476562 C 4.582031 15.132812 10.890625 9.175781 18.671875 9.175781 C 24.855469 9.175781 30.109375 12.9375 32 18.171875 C 34.023438 12.632812 39.257812 8.6875 45.390625 8.6875 C 53.28125 8.6875 59.675781 15.210938 59.675781 23.257812 C 59.675781 26.671875 58.527344 29.808594 56.59375 32.289062 C 58.042969 34.625 58.886719 37.433594 58.886719 40.449219 C 58.886719 48.660156 52.671875 55.3125 45.003906 55.3125 C 38.917969 55.3125 33.753906 51.125 31.878906 45.289062 Z M 24.785156 22.824219 C 24.785156 24.136719 24.773438 27.796875 24.773438 27.796875 C 24.773438 27.796875 21.121094 27.808594 19.625 27.808594 C 16.78125 27.808594 14.46875 25.578125 14.46875 22.828125 C 14.46875 20.078125 16.78125 17.847656 19.625 17.847656 C 22.476562 17.847656 24.785156 20.078125 24.785156 22.828125 Z M 24.785156 22.824219 "/>
</g>
</svg>
