<svg xmlns="http://www.w3.org/2000/svg" xmlns:xlink="http://www.w3.org/1999/xlink" width="64px" height="64px" viewBox="0 0 64 64" version="1.1">
<defs>
<linearGradient id="linear0" gradientUnits="userSpaceOnUse" x1="0" y1="0" x2="0" y2="1" gradientTransform="matrix(55.351351,0,0,51.666666,4.324324,6.166666)">
<stop offset="0" style="stop-color:#00fff2;stop-opacity:1;"/>
<stop offset="0.5" style="stop-color:#dddddd;stop-opacity:1;"/>
<stop offset="1" style="stop-color:#0062ff;stop-opacity:1;"/>
</linearGradient>
</defs>
<g id="surface1">
<path style=" stroke:none;fill-rule:evenodd;fill:url(#linear0);" d="M 56.996094 48.488281 C 57 48.460938 57.003906 48.429688 57.011719 48.394531 C 57.253906 47.011719 57.390625 45.632812 57.460938 44.210938 C 57.566406 42.378906 57.597656 40.542969 57.597656 38.710938 L 57.597656 25.289062 C 57.597656 23.457031 57.566406 21.621094 57.460938 19.789062 C 57.390625 18.367188 57.253906 16.988281 57.011719 15.605469 C 56.835938 14.597656 56.527344 13.632812 56.148438 12.730469 C 55.835938 12.070312 55.417969 11.449219 54.902344 10.933594 C 54.382812 10.414062 53.792969 10 53.105469 9.71875 C 52.203125 9.308594 51.234375 9.027344 50.230469 8.855469 C 48.847656 8.613281 47.460938 8.441406 46.042969 8.375 C 44.210938 8.269531 42.378906 8.234375 40.542969 8.234375 C 40.542969 8.234375 40.542969 8.234375 40.511719 8.234375 L 23.488281 8.234375 C 23.457031 8.234375 23.457031 8.234375 23.457031 8.234375 C 21.621094 8.234375 19.789062 8.269531 17.957031 8.375 C 16.539062 8.441406 15.152344 8.613281 13.769531 8.855469 C 12.765625 9.027344 11.796875 9.308594 10.894531 9.71875 C 10.207031 10 9.617188 10.414062 9.097656 10.933594 C 8.582031 11.449219 8.164062 12.070312 7.851562 12.730469 C 7.472656 13.632812 7.164062 14.597656 6.988281 15.605469 C 6.746094 16.988281 6.609375 18.367188 6.539062 19.789062 C 6.433594 21.621094 6.402344 23.457031 6.402344 25.289062 L 6.402344 38.710938 C 6.402344 40.542969 6.433594 42.378906 6.539062 44.210938 C 6.609375 45.632812 6.746094 47.011719 6.988281 48.394531 C 6.996094 48.429688 7 48.460938 7.003906 48.488281 Z M 20.152344 49.484375 L 43.847656 49.484375 C 44.757812 49.484375 45.488281 50.214844 45.488281 51.125 L 45.488281 55.324219 C 45.488281 56.234375 44.757812 56.972656 43.847656 56.972656 L 20.152344 56.972656 C 19.242188 56.972656 18.511719 56.234375 18.511719 55.324219 L 18.511719 51.125 C 18.511719 50.214844 19.242188 49.484375 20.152344 49.484375 Z M 40.527344 6.164062 C 57.285156 6.164062 59.675781 8.558594 59.675781 25.296875 L 59.675781 38.703125 C 59.675781 55.441406 57.285156 57.835938 40.527344 57.835938 L 23.472656 57.835938 C 6.714844 57.835938 4.324219 55.441406 4.324219 38.703125 L 4.324219 25.296875 C 4.324219 8.558594 6.714844 6.164062 23.472656 6.164062 Z M 23.585938 50.257812 C 25.511719 50.257812 25.789062 50.527344 25.789062 52.457031 L 25.789062 53.996094 C 25.789062 55.921875 25.511719 56.191406 23.585938 56.191406 L 21.625 56.191406 C 19.699219 56.191406 19.421875 55.921875 19.421875 53.996094 L 19.421875 52.457031 C 19.421875 50.527344 19.699219 50.257812 21.625 50.257812 Z M 23.585938 50.257812 "/>
</g>
</svg>
