<svg xmlns="http://www.w3.org/2000/svg" xmlns:xlink="http://www.w3.org/1999/xlink" width="64px" height="64px" viewBox="0 0 64 64" version="1.1">
<defs>
<linearGradient id="linear0" gradientUnits="userSpaceOnUse" x1="0" y1="0" x2="0" y2="1" gradientTransform="matrix(19.747747,0,0,51.891892,21.621622,6.054054)">
<stop offset="0" style="stop-color:#ffae00;stop-opacity:1;"/>
<stop offset="0.5" style="stop-color:#dddddd;stop-opacity:1;"/>
<stop offset="1" style="stop-color:#6600ff;stop-opacity:1;"/>
</linearGradient>
</defs>
<g id="surface1">
<path style=" stroke:none;fill-rule:nonzero;fill:url(#linear0);" d="M 29.984375 57.863281 C 27.582031 57.488281 25.515625 56.335938 23.960938 54.511719 C 21.136719 51.175781 20.835938 46.46875 23.234375 43.175781 L 23.921875 42.230469 L 23.921875 27.320312 C 23.921875 12.828125 23.933594 12.386719 24.203125 11.527344 C 24.949219 9.136719 26.757812 7.269531 29.125 6.429688 C 30.488281 5.941406 32.605469 5.929688 33.941406 6.390625 C 35.820312 7.042969 37.363281 8.394531 38.269531 10.191406 C 39.121094 11.875 39.089844 11.191406 39.089844 27.386719 L 39.089844 42.199219 L 39.636719 42.910156 C 40.785156 44.394531 41.363281 46.214844 41.367188 48.339844 C 41.382812 52.671875 38.230469 56.691406 34.066406 57.660156 C 32.875 57.933594 31.015625 58.027344 29.984375 57.863281 Z M 34.148438 53.367188 C 36.835938 52.039062 38.0625 48.796875 36.882812 46.132812 C 36.726562 45.773438 36.253906 45.121094 35.828125 44.679688 L 35.0625 43.875 L 35.023438 28.300781 L 34.988281 12.730469 L 34.660156 12.003906 C 33.941406 10.421875 32.445312 9.636719 30.820312 10.003906 C 29.8125 10.230469 29.027344 10.824219 28.554688 11.71875 L 28.164062 12.457031 L 28.132812 28.113281 L 28.09375 43.773438 L 27.421875 44.472656 C 26.175781 45.765625 25.554688 47.636719 25.863281 49.136719 C 26.234375 50.914062 27.351562 52.503906 28.765625 53.257812 C 29.886719 53.855469 30.460938 53.976562 31.894531 53.917969 C 32.972656 53.878906 33.246094 53.8125 34.148438 53.367188 Z M 30.324219 52.320312 C 28.488281 51.757812 27.339844 50.238281 27.335938 48.339844 C 27.335938 47.144531 27.71875 46.402344 28.863281 45.394531 L 29.625 44.726562 L 29.625 29.945312 L 29.632812 15.164062 L 33.523438 15.164062 L 33.527344 30.015625 L 33.53125 44.863281 L 34.09375 45.265625 C 34.402344 45.484375 34.882812 46.003906 35.164062 46.429688 C 35.792969 47.378906 35.921875 48.511719 35.539062 49.6875 C 35.191406 50.714844 34.011719 51.882812 32.988281 52.210938 C 32.21875 52.457031 30.941406 52.503906 30.324219 52.320312 Z M 30.324219 52.320312 "/>
</g>
</svg>
