<svg xmlns="http://www.w3.org/2000/svg" xmlns:xlink="http://www.w3.org/1999/xlink" width="64px" height="64px" viewBox="0 0 64 64" version="1.1">
<defs>
<linearGradient id="linear0" gradientUnits="userSpaceOnUse" x1="0" y1="0" x2="0" y2="1" gradientTransform="matrix(55.351351,0,0,46.702703,4.324324,8.648649)">
<stop offset="0" style="stop-color:#00a2ff;stop-opacity:1;"/>
<stop offset="0.5" style="stop-color:#dddddd;stop-opacity:1;"/>
<stop offset="1" style="stop-color:#00ffae;stop-opacity:1;"/>
</linearGradient>
</defs>
<g id="surface1">
<path style=" stroke:none;fill-rule:nonzero;fill:url(#linear0);" d="M 50.417969 8.648438 L 29.417969 36.105469 L 39.445312 50.054688 C 37.703125 50.335938 35.910156 50.527344 34.039062 50.527344 C 28.753906 50.527344 23.929688 49.269531 20.003906 47.226562 L 34.679688 27.890625 L 20.753906 8.675781 L 9.511719 8.671875 L 26.996094 33.109375 L 17.375 45.703125 C 13.214844 42.789062 10.644531 38.792969 10.644531 34.382812 C 10.644531 29.53125 13.753906 25.175781 18.671875 22.214844 L 17.164062 19.941406 C 9.445312 23.171875 4.324219 28.835938 4.324219 35.296875 C 4.324219 40.988281 8.3125 46.078125 14.539062 49.410156 L 10.023438 55.335938 L 13.851562 55.335938 L 17.351562 50.71875 C 21.605469 52.472656 26.617188 53.5 32 53.5 C 35.21875 53.5 38.292969 53.117188 41.171875 52.449219 L 43.246094 55.351562 L 54.488281 55.351562 L 50.015625 49.09375 C 55.921875 45.757812 59.675781 40.8125 59.675781 35.296875 C 59.675781 28.597656 54.164062 22.742188 45.960938 19.582031 L 45.460938 20.292969 C 52.609375 23.054688 57.441406 28.335938 57.441406 34.382812 C 57.441406 39.503906 53.910156 44.011719 48.511719 46.972656 L 37.109375 30.976562 L 54.164062 8.648438 Z M 32 17.175781 C 30.648438 17.175781 29.203125 17.273438 27.90625 17.402344 C 30.21875 20.382812 32.136719 22.910156 34.351562 25.78125 C 33.113281 23.136719 30.558594 20.613281 31.4375 19.3125 C 32.3125 18.023438 33.917969 18.238281 34.039062 18.238281 C 36.617188 18.238281 39.109375 18.527344 41.421875 19.058594 L 41.960938 18.320312 C 38.875 17.53125 35.511719 17.175781 32 17.175781 Z M 32 17.175781 "/>
</g>
</svg>
