<svg xmlns="http://www.w3.org/2000/svg" xmlns:xlink="http://www.w3.org/1999/xlink" width="64px" height="64px" viewBox="0 0 64 64" version="1.1">
<defs>
<linearGradient id="linear0" gradientUnits="userSpaceOnUse" x1="0" y1="0" x2="0" y2="1" gradientTransform="matrix(48.126125,0,0,55.351351,7.936937,4.324324)">
<stop offset="0" style="stop-color:#ff8963;stop-opacity:1;"/>
<stop offset="0.5" style="stop-color:#dddddd;stop-opacity:1;"/>
<stop offset="1" style="stop-color:#0F6FFF;stop-opacity:1;"/>
</linearGradient>
</defs>
<g id="surface1">
<path style=" stroke:none;fill-rule:nonzero;fill:url(#linear0);" d="M 24.136719 4.347656 C 23.261719 4.417969 22.933594 4.554688 22.597656 4.972656 C 22.246094 5.421875 21.941406 5.527344 20.648438 5.648438 C 19.664062 5.742188 18.972656 5.921875 18.707031 6.152344 C 18.203125 6.609375 17.71875 7.707031 17.71875 8.421875 C 17.71875 8.929688 17.773438 8.957031 18.550781 8.828125 C 19.003906 8.757812 19.714844 8.808594 20.144531 8.949219 C 20.773438 9.160156 20.867188 9.261719 20.664062 9.503906 C 20.527344 9.675781 20.03125 9.625 19.496094 9.625 C 18.417969 9.625 18.308594 9.933594 19.054688 10.800781 L 19.539062 11.367188 L 20.375 10.921875 C 21.320312 10.414062 21.988281 10.539062 22.660156 10.910156 C 22.910156 11.054688 24.054688 11.21875 25.203125 11.289062 C 27.148438 11.394531 26.632812 11.441406 27.105469 11.988281 C 27.410156 12.347656 27.835938 12.847656 27.828125 13.253906 C 27.824219 14.636719 26.863281 17.082031 23.996094 20.488281 C 22.542969 22.214844 22.257812 25.375 22.257812 26.207031 C 22.257812 26.460938 22.164062 26.726562 22.054688 26.792969 C 21.847656 26.921875 21.714844 26.132812 21.515625 23.523438 C 21.320312 20.941406 20.835938 19.5 19.730469 18.355469 C 19.078125 17.679688 18.46875 17.28125 17.863281 17.117188 C 16.800781 16.835938 16.738281 16.617188 17.605469 16.261719 C 17.949219 16.113281 18.238281 15.914062 18.238281 15.8125 C 18.238281 15.558594 17.269531 15.347656 16.648438 15.46875 C 16.003906 15.589844 15.988281 15.472656 16.5625 14.863281 C 17.699219 13.652344 15.769531 13.9375 13.769531 15.265625 C 11.972656 16.460938 10.878906 17.691406 10.710938 18.585938 C 10.605469 19.144531 10.265625 19.636719 9.511719 20.335938 C 8.117188 21.617188 7.800781 22.269531 7.984375 23.472656 C 8.242188 25.21875 8.445312 25.363281 9.261719 24.394531 C 9.769531 23.789062 10.960938 23.152344 11.175781 23.375 C 11.386719 23.582031 10.835938 24.339844 10.199219 24.71875 C 9.386719 25.203125 9.402344 25.539062 10.226562 25.828125 C 11.011719 26.105469 11.164062 26.027344 11.605469 25.148438 C 12.117188 24.136719 12.714844 23.558594 13.5625 23.285156 C 13.984375 23.148438 14.769531 22.625 15.320312 22.117188 C 15.867188 21.613281 16.417969 21.199219 16.542969 21.199219 C 16.976562 21.199219 17.785156 22.207031 18 23.023438 C 18.117188 23.472656 18.320312 25.261719 18.449219 26.996094 C 18.839844 32.355469 19.378906 33.113281 21.328125 37.363281 C 21.957031 38.71875 22.460938 39.96875 22.460938 40.136719 C 22.460938 40.363281 20.828125 40.476562 19.589844 40.582031 C 16.652344 40.835938 15.421875 41.835938 15.207031 44.132812 C 15.132812 44.960938 15.203125 45.441406 15.488281 45.984375 C 16.070312 47.09375 16.421875 47.070312 16.265625 45.9375 C 16.132812 44.960938 16.488281 44.335938 16.753906 45.085938 C 16.945312 45.636719 17.691406 46.414062 18.023438 46.414062 C 18.355469 46.414062 18.363281 46.386719 18.09375 45.691406 C 17.863281 45.082031 18.003906 45.023438 18.59375 45.46875 C 19.164062 45.894531 19.351562 45.6875 19.207031 44.796875 C 18.976562 43.382812 21.230469 42.160156 23.910156 42.949219 C 25.207031 43.335938 25.566406 43.367188 26.144531 43.164062 C 27.238281 42.765625 28.796875 42.863281 29.511719 43.460938 C 30.234375 44.070312 29.648438 45.652344 29.144531 46.375 C 28.636719 47.105469 27.835938 47.410156 25.835938 47.660156 C 24.820312 47.785156 23.761719 48.027344 23.488281 48.210938 C 22.941406 48.570312 22.496094 49.378906 22.496094 50.023438 C 22.496094 50.582031 22.746094 50.542969 23.300781 49.910156 C 23.554688 49.617188 23.957031 49.382812 24.1875 49.382812 C 24.714844 49.382812 24.714844 49.5 24.1875 50.171875 C 23.808594 50.652344 23.589844 51.917969 23.886719 51.917969 C 23.957031 51.917969 24.320312 51.585938 24.703125 51.179688 C 25.089844 50.769531 25.605469 50.4375 25.851562 50.4375 C 26.378906 50.4375 26.40625 50.605469 25.984375 51.164062 C 25.664062 51.585938 25.542969 52.988281 25.828125 52.972656 C 25.914062 52.96875 26.175781 52.660156 26.414062 52.285156 C 26.8125 51.648438 27.3125 51.328125 28.984375 50.617188 C 29.351562 50.460938 30.765625 49.160156 32.121094 47.726562 C 34.539062 45.164062 34.511719 45.109375 34.441406 44.234375 L 34.367188 43.351562 L 36.824219 43.089844 C 38.996094 42.3125 40.148438 42.253906 41.414062 42.910156 C 43.089844 43.78125 44.675781 45.289062 44.445312 46.703125 C 44.28125 47.746094 43.703125 49.71875 42.257812 49.863281 C 38.8125 49.796875 34.011719 52.011719 34.550781 55.21875 C 35 57.378906 37.792969 58.808594 40.59375 59.445312 C 41.476562 59.648438 42.660156 59.714844 44.136719 59.652344 C 47.851562 59.496094 50.230469 59.308594 52.210938 57.261719 C 52.941406 56.511719 53.882812 54.730469 54.226562 53.855469 L 56.0625 54.863281 L 56.0625 50.023438 L 51.253906 52.136719 L 53.78125 53.585938 C 53.484375 53.835938 53.089844 54.433594 52.648438 54.890625 C 50.691406 56.910156 49.355469 56.90625 46.914062 57.234375 C 44.90625 57.503906 42.710938 57.21875 41.339844 56.613281 C 40.226562 56.117188 39.363281 55.042969 39.363281 54.253906 C 39.363281 53.5 40.253906 52.8125 41.328125 52.78125 C 44.246094 52.679688 44.796875 52.414062 44.796875 52.414062 C 46.902344 51.773438 48.890625 48.117188 48.890625 45.8125 C 48.890625 45.234375 48.984375 44.511719 49.09375 44.210938 C 49.261719 43.773438 49.164062 43.394531 48.570312 42.152344 C 48.078125 41.117188 47.886719 40.945312 47.976562 40.597656 C 48.082031 40.179688 47.882812 39.863281 46.863281 38.835938 C 45.757812 37.714844 45.652344 37.1875 45.882812 36.8125 C 46.023438 36.585938 46.144531 36.347656 46.144531 36.292969 C 46.144531 36.234375 45.59375 35.910156 44.921875 35.570312 C 44.257812 35.234375 43.472656 34.765625 43.1875 34.539062 C 42.738281 34.171875 42.707031 34.0625 42.957031 33.765625 C 43.113281 33.570312 43.1875 33.363281 43.117188 33.292969 C 43.050781 33.230469 42.257812 33.039062 41.355469 32.863281 C 39.3125 32.476562 39 32.3125 38.914062 31.578125 C 38.878906 31.261719 38.773438 31.003906 38.6875 31.011719 C 38.59375 31.023438 37.582031 31.207031 36.4375 31.417969 C 34.179688 31.828125 33.664062 31.773438 33.664062 31.113281 C 33.664062 30.5625 33.671875 30.558594 32.261719 31.3125 C 29.957031 32.542969 28.085938 31.789062 28.664062 29.851562 C 28.8125 29.363281 29.203125 28.5625 29.539062 28.070312 C 30.886719 26.117188 33.457031 25.488281 38.164062 25.273438 C 40.796875 25.152344 41.984375 25.039062 42.753906 24.6875 C 43.96875 24.136719 46.765625 22.203125 47.285156 21.234375 C 47.511719 20.820312 47.761719 20.484375 47.851562 20.484375 C 48.292969 20.484375 48.863281 19.578125 48.863281 18.875 C 48.863281 17.921875 49.296875 17.988281 49.558594 18.988281 C 49.8125 19.972656 50.242188 19.488281 50.214844 18.242188 C 50.191406 17.199219 50.351562 17.078125 50.824219 17.785156 C 51.335938 18.539062 51.5 18.039062 51.210938 16.613281 C 50.929688 15.242188 49.09375 11.890625 48.335938 10.929688 C 48.097656 10.625 46.1875 10.320312 45.863281 10.253906 C 45.417969 10.164062 44.835938 9.789062 44.1875 8.726562 C 43.710938 7.921875 43.085938 7.179688 42.742188 7 C 42.191406 6.714844 42.039062 6.714844 41.207031 7.039062 C 40.191406 7.421875 40.105469 7.582031 40.625 8.011719 C 41.050781 8.363281 41.761719 9.976562 41.761719 10.582031 C 41.761719 11.011719 41.753906 11.011719 41.320312 10.621094 C 41.078125 10.402344 40.402344 9.886719 40.226562 9.476562 C 39.921875 8.761719 39.894531 8.746094 39.609375 9.144531 C 39.078125 9.863281 39.226562 10.867188 39.941406 11.382812 C 40.648438 11.882812 41.285156 12.988281 41.523438 14.132812 C 41.609375 14.539062 41.855469 15.164062 42.078125 15.53125 C 42.902344 16.890625 42.742188 20.070312 41.472656 20.675781 C 41.027344 20.882812 39.605469 21.078125 37.414062 21.210938 C 32.375 21.53125 30.085938 22.179688 27.664062 24.558594 C 26.511719 25.691406 26.4375 25.734375 26.570312 25.164062 C 26.792969 24.234375 26.886719 23 28.976562 20.265625 C 31.660156 16.757812 32.003906 15.914062 32 13.394531 C 31.988281 11.253906 31.011719 8.800781 28.734375 6.957031 C 28.265625 6.625 27.933594 6.28125 27.996094 6.175781 C 28.054688 6.078125 28.488281 5.988281 28.960938 5.988281 C 29.949219 5.988281 29.972656 5.664062 29.011719 5.109375 C 28.21875 4.636719 25.570312 4.226562 24.136719 4.347656 Z M 24.136719 4.347656 "/>
</g>
</svg>
