<svg xmlns="http://www.w3.org/2000/svg" xmlns:xlink="http://www.w3.org/1999/xlink" width="64px" height="64px" viewBox="0 0 64 64" version="1.1">
<defs>
<linearGradient id="linear0" gradientUnits="userSpaceOnUse" x1="0" y1="0" x2="0" y2="1" gradientTransform="matrix(51.891892,0,0,33.450449,6.054054,15.846848)">
<stop offset="0" style="stop-color:#00b7ff;stop-opacity:1;"/>
<stop offset="0.5" style="stop-color:#dddddd;stop-opacity:1;"/>
<stop offset="1" style="stop-color:#ee42d9;stop-opacity:1;"/>
</linearGradient>
</defs>
<g id="surface1">
<path style=" stroke:none;fill-rule:nonzero;fill:url(#linear0);" d="M 20.753906 15.847656 C 20.625 15.847656 20.488281 15.863281 20.335938 15.875 C 19.730469 15.910156 8.402344 18.03125 7.679688 18.242188 C 6.917969 18.460938 6.265625 18.933594 6.109375 19.375 C 5.835938 20.125 6.621094 22.570312 7.660156 24.214844 C 11.792969 29.125 16.382812 30.375 20.878906 33.015625 C 21.394531 33.625 21.597656 33.914062 17.636719 35.671875 C 11.449219 38.410156 9.445312 40.738281 8.261719 44.1875 C 7.914062 45.207031 7.746094 47.902344 7.996094 48.582031 C 8.3125 49.460938 8.511719 49.636719 14.488281 48.503906 C 20.496094 47.363281 20 47.296875 20.5 46.820312 C 20.910156 46.433594 20.933594 46.339844 21.113281 44.511719 C 21.214844 43.460938 21.429688 41.417969 21.582031 40.875 C 21.941406 39.617188 22.851562 38.300781 23.835938 37.609375 C 27.585938 34.96875 34.636719 36.285156 38.457031 40.328125 C 39.890625 41.855469 40.792969 44.03125 41.511719 46.394531 C 41.933594 47.761719 42.351562 48.351562 43.011719 48.484375 C 43.613281 48.605469 43.625 48.417969 51.269531 46.960938 C 55.523438 46.160156 57.292969 45.765625 57.539062 45.566406 C 58.082031 45.148438 58.082031 44.125 57.542969 42.433594 C 56.625 39.527344 55.03125 37.589844 52.082031 35.355469 C 50.617188 34.246094 48.773438 33.203125 45.652344 31.707031 C 42.679688 30.285156 41.265625 29.902344 41.265625 29.460938 C 41.265625 29.089844 42.433594 28.929688 44.789062 28.226562 C 49.949219 26.679688 52.441406 24.511719 52.441406 20.5 C 52.441406 18.738281 52.109375 17.3125 51.589844 16.855469 C 50.90625 16.242188 49.699219 16.226562 46.8125 16.753906 C 37.558594 18.421875 38.191406 18.363281 37.765625 19.054688 C 37.539062 19.421875 37.542969 19.511719 37.960938 21.1875 C 38.207031 22.144531 38.394531 23.347656 38.394531 23.621094 C 38.390625 24.214844 37.621094 25.207031 37.246094 25.558594 C 36.324219 26.421875 34.238281 27.011719 32.097656 27.011719 C 29.511719 27.011719 27.5625 26.117188 25.625 24.058594 C 24.230469 22.566406 23.511719 21.125 22.5625 18.472656 C 21.726562 16.144531 21.609375 15.839844 20.746094 15.855469 Z M 20.753906 15.847656 "/>
</g>
</svg>
