<svg xmlns="http://www.w3.org/2000/svg" xmlns:xlink="http://www.w3.org/1999/xlink" width="64px" height="64px" viewBox="0 0 64 64" version="1.1">
<defs>
<linearGradient id="linear0" gradientUnits="userSpaceOnUse" x1="0" y1="0" x2="0" y2="1" gradientTransform="matrix(55.351351,0,0,41.513514,4.324324,11.243243)">
<stop offset="0" style="stop-color:#05f7ff;stop-opacity:1;"/>
<stop offset="0.5" style="stop-color:#dddddd;stop-opacity:1;"/>
<stop offset="1" style="stop-color:#e6ff05;stop-opacity:1;"/>
</linearGradient>
</defs>
<g id="surface1">
<path style=" stroke:none;fill-rule:evenodd;fill:url(#linear0);" d="M 41.347656 11.242188 L 33.214844 21.078125 C 28.738281 26.476562 25.070312 31.011719 25.070312 31.144531 C 25.070312 31.273438 28.90625 36.191406 33.582031 42.070312 L 42.085938 52.757812 L 50.988281 52.757812 C 58.085938 52.757812 59.855469 52.691406 59.664062 52.4375 C 59.179688 51.800781 43.445312 31.988281 43.089844 31.570312 C 42.757812 31.1875 43.472656 30.234375 50.589844 21.636719 C 54.917969 16.410156 58.617188 11.933594 58.808594 11.6875 C 59.132812 11.265625 58.6875 11.242188 50.253906 11.242188 Z M 6.625 11.242188 C 6.625 11.242188 21.675781 31.125 21.375 31.058594 C 21.40625 31.160156 17.921875 35.644531 13.632812 41.039062 C 9.335938 46.433594 5.484375 51.273438 5.070312 51.796875 L 4.324219 52.757812 L 22.164062 52.757812 L 26.339844 47.523438 C 29.238281 43.890625 30.445312 42.199219 30.285156 41.984375 C 30.160156 41.820312 28.171875 39.300781 25.863281 36.402344 L 21.675781 31.132812 L 26.058594 25.839844 C 28.472656 22.933594 30.429688 20.539062 30.394531 20.511719 Z M 6.625 11.242188 "/>
</g>
</svg>
