<svg xmlns="http://www.w3.org/2000/svg" xmlns:xlink="http://www.w3.org/1999/xlink" width="64px" height="64px" viewBox="0 0 64 64" version="1.1">
<defs>
<linearGradient id="linear0" gradientUnits="userSpaceOnUse" x1="0" y1="0" x2="0" y2="1" gradientTransform="matrix(55.351351,0,0,51.090091,4.324324,6.454954)">
<stop offset="0" style="stop-color:#00a2ff;stop-opacity:1;"/>
<stop offset="0.5" style="stop-color:#dddddd;stop-opacity:1;"/>
<stop offset="1" style="stop-color:#00ffae;stop-opacity:1;"/>
</linearGradient>
</defs>
<g id="surface1">
<path style=" stroke:none;fill-rule:evenodd;fill:url(#linear0);" d="M 23.550781 31.839844 L 19.273438 34.1875 L 24.773438 27.957031 C 23.109375 28.089844 20.394531 28.679688 17.148438 29.929688 L 38.441406 17.148438 L 39.554688 17.828125 C 40.839844 17.457031 41.988281 17.214844 43.023438 17.164062 L 43.015625 17.164062 C 44.742188 17.070312 45.761719 18.125 46.960938 19.28125 C 39.3125 19.703125 39.105469 23.03125 39.207031 23.910156 C 41.570312 23.914062 44.894531 23.960938 45.890625 24.605469 C 35.988281 27.558594 36.136719 33.542969 36.3125 34.472656 C 36.960938 41.820312 42.363281 42.910156 49.089844 42.851562 C 49.273438 42.847656 49.429688 42.863281 49.570312 42.890625 C 53.242188 38.597656 55.417969 33.011719 55.417969 27.171875 C 55.417969 18.460938 51.027344 10.886719 43.703125 6.90625 L 43.988281 6.625 C 53.269531 10.9375 59.675781 20.113281 59.675781 30.753906 C 59.675781 45.542969 47.285156 57.542969 32.003906 57.542969 C 16.714844 57.542969 4.324219 45.542969 4.324219 30.753906 C 4.324219 19.976562 10.890625 10.710938 20.355469 6.460938 L 20.355469 6.457031 C 20.40625 6.566406 20.484375 6.6875 20.527344 6.792969 C 13.085938 10.730469 8.582031 18.363281 8.582031 27.171875 C 8.582031 33.308594 10.984375 39.160156 14.976562 43.539062 C 15.054688 43.6875 22.269531 38.488281 23.550781 31.839844 Z M 36.636719 19.753906 C 37.125 19.945312 37.1875 20.242188 37.273438 20.570312 C 36.421875 20.734375 35.21875 21.121094 34.886719 20.679688 C 34.734375 20.527344 35.78125 19.972656 36.644531 19.761719 Z M 36.636719 19.753906 "/>
</g>
</svg>
