<svg xmlns="http://www.w3.org/2000/svg" xmlns:xlink="http://www.w3.org/1999/xlink" width="64px" height="64px" viewBox="0 0 64 64" version="1.1">
<defs>
<linearGradient id="linear0" gradientUnits="userSpaceOnUse" x1="0" y1="0" x2="0" y2="1" gradientTransform="matrix(55.351351,0,0,39.594595,4.324324,12.202702)">
<stop offset="0" style="stop-color:#ff8963;stop-opacity:1;"/>
<stop offset="0.5" style="stop-color:#dddddd;stop-opacity:1;"/>
<stop offset="1" style="stop-color:#0F6FFF;stop-opacity:1;"/>
</linearGradient>
</defs>
<g id="surface1">
<path style=" stroke:none;fill-rule:nonzero;fill:url(#linear0);" d="M 35.828125 12.203125 C 35.390625 12.246094 35.050781 12.605469 35.027344 13.050781 L 35.027344 13.144531 L 33.214844 42.078125 L 30.929688 25.8125 C 30.894531 25.351562 30.523438 24.996094 30.0625 24.984375 C 29.605469 24.972656 29.210938 25.3125 29.160156 25.765625 L 27.449219 35.054688 L 26.378906 31.800781 C 26.253906 31.40625 25.867188 31.148438 25.457031 31.179688 C 25.039062 31.214844 24.707031 31.53125 24.648438 31.945312 L 23 43.085938 L 19.664062 20.597656 C 19.589844 20.175781 19.226562 19.863281 18.796875 19.863281 C 18.363281 19.855469 17.996094 20.164062 17.914062 20.585938 L 15.6875 33.515625 L 4.324219 33.515625 L 4.324219 35.308594 L 16.433594 35.308594 C 16.867188 35.3125 17.242188 34.996094 17.320312 34.566406 L 18.714844 26.351562 L 22.117188 49.269531 C 22.191406 49.6875 22.5625 50 22.988281 50 C 23.417969 50 23.789062 49.6875 23.863281 49.269531 L 25.863281 35.921875 L 26.851562 38.933594 C 26.984375 39.308594 27.347656 39.550781 27.742188 39.527344 C 28.136719 39.503906 28.472656 39.21875 28.5625 38.835938 L 29.917969 31.460938 L 32.679688 51.023438 C 32.738281 51.484375 33.136719 51.8125 33.605469 51.796875 C 34.0625 51.773438 34.433594 51.402344 34.449219 50.941406 L 34.449219 50.773438 L 35.914062 27.300781 L 36.261719 32.738281 C 36.296875 33.171875 36.644531 33.515625 37.078125 33.554688 C 37.511719 33.589844 37.910156 33.300781 38.011719 32.878906 L 39.617188 25.835938 L 41.410156 38.625 C 41.472656 39.050781 41.835938 39.367188 42.261719 39.386719 C 42.691406 39.402344 43.070312 39.105469 43.164062 38.679688 L 44.3125 33.511719 L 44.4375 34.523438 C 44.488281 34.96875 44.875 35.308594 45.324219 35.300781 L 59.675781 35.300781 L 59.675781 33.511719 L 46.105469 33.511719 L 45.429688 28.238281 C 45.363281 27.8125 45.003906 27.496094 44.570312 27.484375 C 44.144531 27.46875 43.765625 27.765625 43.675781 28.1875 L 42.484375 33.515625 L 40.710938 20.8125 C 40.660156 20.382812 40.300781 20.058594 39.867188 20.039062 C 39.4375 20.015625 39.054688 20.308594 38.960938 20.730469 L 37.644531 26.496094 L 36.796875 13.152344 L 36.796875 13.054688 C 36.789062 12.8125 36.675781 12.585938 36.496094 12.421875 C 36.3125 12.265625 36.070312 12.1875 35.828125 12.210938 Z M 35.828125 12.203125 "/>
</g>
</svg>
