<svg xmlns="http://www.w3.org/2000/svg" xmlns:xlink="http://www.w3.org/1999/xlink" width="64px" height="64px" viewBox="0 0 64 64" version="1.1">
<defs>
<linearGradient id="linear0" gradientUnits="userSpaceOnUse" x1="0" y1="0" x2="0" y2="1" gradientTransform="matrix(55.351351,0,0,55.324324,4.324324,4.337838)">
<stop offset="0" style="stop-color:#ffae00;stop-opacity:1;"/>
<stop offset="0.5" style="stop-color:#dddddd;stop-opacity:1;"/>
<stop offset="1" style="stop-color:#bf1d1d;stop-opacity:1;"/>
</linearGradient>
</defs>
<g id="surface1">
<path style=" stroke:none;fill-rule:nonzero;fill:url(#linear0);" d="M 54.792969 4.347656 C 54.554688 4.402344 54.328125 4.527344 54.160156 4.707031 L 30.710938 28.09375 C 30.234375 28.570312 30.234375 29.339844 30.710938 29.820312 L 34.289062 33.386719 C 34.511719 33.617188 34.824219 33.742188 35.152344 33.742188 C 35.476562 33.742188 35.789062 33.613281 36.015625 33.382812 L 59.324219 9.890625 C 59.796875 9.414062 59.792969 8.644531 59.3125 8.171875 L 55.882812 4.707031 C 55.652344 4.484375 55.339844 4.347656 55.015625 4.347656 C 54.945312 4.335938 54.867188 4.335938 54.792969 4.347656 Z M 27.578125 29.933594 C 27.269531 29.917969 26.972656 30.027344 26.738281 30.230469 L 13.3125 41.652344 C 13.054688 41.878906 12.902344 42.191406 12.882812 42.539062 C 12.867188 42.878906 12.996094 43.207031 13.238281 43.445312 L 13.617188 43.824219 C 11.351562 46.136719 4.421875 53.566406 4.347656 58.421875 L 4.324219 59.664062 L 5.5625 59.664062 C 10.570312 59.664062 17.894531 52.703125 20.191406 50.40625 L 20.554688 50.765625 C 20.785156 50.996094 21.09375 51.125 21.417969 51.125 L 21.476562 51.125 C 21.820312 51.109375 22.136719 50.945312 22.363281 50.6875 L 33.644531 37.109375 C 34.050781 36.617188 34.011719 35.910156 33.566406 35.46875 L 28.390625 30.292969 C 28.175781 30.070312 27.886719 29.945312 27.578125 29.933594 Z M 15.328125 45.539062 L 18.484375 48.6875 C 15.839844 51.289062 10.6875 55.8125 7.078125 56.957031 C 8.265625 53.40625 12.753906 48.214844 15.328125 45.539062 Z M 15.328125 45.539062 "/>
</g>
</svg>
