<svg xmlns="http://www.w3.org/2000/svg" xmlns:xlink="http://www.w3.org/1999/xlink" width="64px" height="64px" viewBox="0 0 64 64" version="1.1">
<defs>
<linearGradient id="linear0" gradientUnits="userSpaceOnUse" x1="0" y1="0" x2="0" y2="1" gradientTransform="matrix(55.351351,0,0,49.049551,4.324324,6.815315)">
<stop offset="0" style="stop-color:#ffae00;stop-opacity:1;"/>
<stop offset="0.5" style="stop-color:#dddddd;stop-opacity:1;"/>
<stop offset="1" style="stop-color:#bf1d1d;stop-opacity:1;"/>
</linearGradient>
</defs>
<g id="surface1">
<path style=" stroke:none;fill-rule:evenodd;fill:url(#linear0);" d="M 13.550781 10.769531 L 50.449219 10.769531 L 50.449219 16.203125 L 32 25.265625 L 13.550781 16.203125 Z M 11.460938 6.8125 L 52.539062 6.8125 C 53.566406 6.8125 54.40625 7.652344 54.40625 8.6875 L 54.40625 35.257812 C 54.40625 36.289062 53.566406 37.125 52.539062 37.125 L 11.460938 37.125 C 10.433594 37.125 9.59375 36.289062 9.59375 35.257812 L 9.59375 8.6875 C 9.59375 7.652344 10.433594 6.8125 11.460938 6.8125 Z M 12.769531 43.023438 C 12.292969 43.921875 10.523438 46.8125 9.394531 48.664062 C 8.253906 46.769531 6.894531 44.585938 6.015625 43.023438 L 6.011719 43.027344 L 6.015625 43.023438 C 5.3125 43.171875 5.023438 43.179688 4.328125 43.023438 L 4.335938 43.027344 C 4.328125 43.027344 4.328125 43.023438 4.324219 43.023438 C 5.707031 45.109375 7.929688 49.082031 8.6875 50.386719 L 8.582031 55.828125 L 8.585938 55.824219 L 8.582031 55.828125 C 8.582031 55.828125 9.070312 55.746094 9.394531 55.746094 C 9.757812 55.746094 10.207031 55.828125 10.207031 55.828125 L 10.207031 55.824219 L 10.207031 55.828125 L 10.105469 50.386719 C 11.511719 47.917969 13.828125 43.890625 14.472656 43.027344 L 14.472656 43.023438 C 13.867188 43.164062 13.320312 43.164062 12.773438 43.023438 Z M 58.789062 43.152344 C 58.386719 43.152344 57.984375 43.390625 57.984375 44 C 57.742188 47.054688 57.488281 50.109375 57.082031 53.023438 L 57.078125 53.023438 C 57.082031 53.023438 57.082031 53.023438 57.082031 53.023438 L 57.089844 53.023438 C 57.335938 52.984375 57.523438 53.050781 57.710938 53.121094 C 58.175781 50.164062 59.289062 45.734375 59.578125 44.484375 C 59.613281 44.308594 59.675781 44.09375 59.675781 43.945312 C 59.675781 43.5 59.390625 43.238281 58.96875 43.171875 C 58.96875 43.171875 58.863281 43.152344 58.789062 43.152344 Z M 49.617188 44.257812 C 52.296875 44.257812 54.269531 45.882812 54.269531 49.476562 C 54.269531 53.378906 51.882812 54.644531 49.617188 54.644531 C 47.203125 54.644531 45 53.226562 45 49.394531 C 45 45.429688 47.441406 44.257812 49.617188 44.257812 Z M 22.503906 44.375 C 22.652344 47.757812 22.636719 51.136719 22.503906 54.511719 C 23.054688 54.378906 23.613281 54.375 24.191406 54.511719 L 24.1875 54.511719 L 24.191406 54.511719 C 24.109375 52.9375 24.066406 51.363281 24.0625 49.796875 C 25.949219 49.765625 27.835938 49.765625 29.726562 49.796875 C 29.71875 51.363281 29.679688 52.9375 29.59375 54.511719 L 29.605469 54.511719 L 29.597656 54.511719 C 30.171875 54.375 30.738281 54.378906 31.285156 54.511719 C 31.285156 54.511719 31.289062 54.511719 31.289062 54.511719 C 31.152344 51.136719 31.136719 47.757812 31.289062 44.375 L 31.285156 44.375 C 30.710938 44.511719 30.148438 44.503906 29.59375 44.375 C 29.679688 45.949219 29.71875 47.527344 29.726562 49.105469 C 27.835938 49.148438 25.949219 49.152344 24.0625 49.105469 C 24.066406 47.527344 24.113281 45.949219 24.191406 44.375 C 23.636719 44.503906 23.078125 44.511719 22.503906 44.375 Z M 37.152344 44.851562 C 37.179688 44.847656 37.210938 44.851562 37.242188 44.851562 C 39.4375 44.851562 41.042969 46.339844 41.042969 49.460938 C 41.042969 52.578125 39.4375 54.070312 37.246094 54.070312 C 34.863281 54.070312 33.457031 52.363281 33.457031 49.46875 C 33.457031 46.203125 35.1875 44.890625 37.152344 44.851562 Z M 16.957031 46.121094 C 17.511719 47.679688 18.132812 49.253906 18.753906 50.828125 C 17.558594 50.867188 16.363281 50.867188 15.160156 50.828125 C 15.886719 48.972656 16.589844 47.179688 16.957031 46.121094 Z M 57.027344 54.246094 C 56.496094 54.246094 56.230469 54.652344 56.230469 55.089844 C 56.230469 55.605469 56.636719 55.863281 57.148438 55.863281 C 57.515625 55.863281 57.917969 55.644531 57.917969 55.039062 C 57.917969 54.554688 57.539062 54.246094 57.027344 54.246094 Z M 49.613281 43.625 C 46.039062 43.625 43.3125 45.652344 43.3125 49.421875 C 43.3125 52.527344 45.132812 55.257812 49.636719 55.257812 C 53.460938 55.257812 55.957031 53.160156 55.957031 49.472656 C 55.957031 46.003906 53.632812 43.625 49.613281 43.625 Z M 37.238281 44.234375 C 33.652344 44.234375 31.773438 46.511719 31.773438 49.457031 C 31.773438 52.675781 33.828125 54.644531 37.234375 54.644531 C 40.914062 54.644531 42.710938 52.429688 42.710938 49.488281 C 42.710938 46.207031 40.566406 44.234375 37.238281 44.234375 Z M 16.363281 44.367188 C 15.011719 47.785156 13.441406 51.636719 12.027344 54.511719 L 12.039062 54.511719 C 12.03125 54.511719 12.03125 54.511719 12.03125 54.511719 L 12.039062 54.511719 C 12.679688 54.347656 13.292969 54.394531 13.703125 54.511719 C 13.699219 54.511719 13.699219 54.511719 13.699219 54.503906 L 13.703125 54.511719 C 14.0625 53.597656 14.472656 52.570312 14.878906 51.539062 L 14.882812 51.539062 C 16.265625 51.496094 17.648438 51.488281 19.039062 51.539062 C 19.429688 52.527344 19.824219 53.515625 20.207031 54.511719 C 20.210938 54.511719 20.210938 54.511719 20.210938 54.511719 C 20.824219 54.347656 21.441406 54.390625 21.894531 54.511719 C 20.882812 52.613281 18.839844 47.648438 17.542969 44.367188 L 17.539062 44.375 L 17.542969 44.367188 C 17.121094 44.515625 16.78125 44.511719 16.363281 44.367188 Z M 16.363281 44.367188 "/>
</g>
</svg>
