<svg xmlns="http://www.w3.org/2000/svg" xmlns:xlink="http://www.w3.org/1999/xlink" width="64px" height="64px" viewBox="0 0 64 64" version="1.1">
<defs>
<linearGradient id="linear0" gradientUnits="userSpaceOnUse" x1="0" y1="0" x2="0" y2="1" gradientTransform="matrix(55.355858,0,0,35.418919,4.324324,14.247747)">
<stop offset="0" style="stop-color:#ffae00;stop-opacity:1;"/>
<stop offset="0.5" style="stop-color:#dddddd;stop-opacity:1;"/>
<stop offset="1" style="stop-color:#6600ff;stop-opacity:1;"/>
</linearGradient>
</defs>
<g id="surface1">
<path style=" stroke:none;fill-rule:evenodd;fill:url(#linear0);" d="M 20.539062 47.808594 C 12.054688 47.753906 5.726562 45.488281 4.527344 41.441406 C 2.691406 35.261719 13.515625 27.269531 28.679688 23.597656 C 43.847656 19.929688 57.636719 21.960938 59.472656 28.136719 C 60.746094 32.4375 56.070312 37.523438 47.890625 41.511719 C 48.5 33.367188 36.613281 35.367188 32 36.488281 C 26.765625 37.753906 16.917969 40.972656 20.539062 47.808594 Z M 20.988281 46.253906 C 20.300781 43.09375 25.5 39.136719 32.59375 37.433594 C 39.6875 35.726562 46.011719 36.902344 46.699219 40.0625 C 47.386719 43.21875 42.1875 47.175781 35.09375 48.882812 C 28 50.589844 21.679688 49.414062 20.988281 46.253906 Z M 16.164062 26.863281 C 18.039062 19.910156 21.484375 15.875 26.378906 14.648438 C 32.589844 13.300781 37.578125 15.375 41.242188 20.757812 C 32.6875 19.96875 24.363281 22.039062 16.164062 26.863281 Z M 16.164062 26.863281 "/>
</g>
</svg>
