<svg xmlns="http://www.w3.org/2000/svg" xmlns:xlink="http://www.w3.org/1999/xlink" width="64px" height="64px" viewBox="0 0 64 64" version="1.1">
<defs>
<linearGradient id="linear0" gradientUnits="userSpaceOnUse" x1="0" y1="0" x2="0" y2="1" gradientTransform="matrix(55.121622,0,0,43.635135,4.441441,10.184684)">
<stop offset="0" style="stop-color:#00b7ff;stop-opacity:1;"/>
<stop offset="0.5" style="stop-color:#dddddd;stop-opacity:1;"/>
<stop offset="1" style="stop-color:#ee42d9;stop-opacity:1;"/>
</linearGradient>
</defs>
<g id="surface1">
<path style=" stroke:none;fill-rule:nonzero;fill:url(#linear0);" d="M 31.996094 10.1875 C 31.996094 10.1875 21.148438 10.179688 13.789062 10.730469 L 13.753906 10.730469 L 13.707031 10.734375 C 12.988281 10.824219 9.882812 10.960938 7.488281 13.542969 C 6.335938 14.761719 5.835938 16.273438 5.484375 17.515625 C 5.125 18.769531 4.976562 19.808594 4.976562 19.808594 L 4.976562 19.835938 C 4.976562 19.835938 4.460938 24.242188 4.449219 28.707031 L 4.441406 35.269531 C 4.433594 39.746094 4.960938 44.160156 4.96875 44.160156 L 4.96875 44.164062 L 4.972656 44.179688 C 4.972656 44.179688 5.113281 45.214844 5.460938 46.46875 C 5.820312 47.710938 6.328125 49.226562 7.484375 50.4375 C 9.96875 53.132812 13.488281 53.132812 14.105469 53.246094 L 14.1875 53.261719 L 14.265625 53.269531 C 18.730469 53.714844 31.976562 53.820312 31.976562 53.820312 L 32 53.820312 C 32 53.820312 42.847656 53.792969 50.199219 53.257812 L 50.242188 53.246094 L 50.285156 53.246094 C 51.003906 53.164062 54.117188 53.03125 56.511719 50.4375 C 57.664062 49.226562 58.164062 47.710938 58.523438 46.46875 C 58.875 45.214844 59.023438 44.179688 59.023438 44.179688 L 59.023438 44.148438 C 59.023438 44.148438 59.539062 39.746094 59.550781 35.273438 L 59.5625 28.707031 C 59.566406 24.234375 59.03125 19.835938 59.03125 19.835938 L 59.03125 19.8125 L 59.027344 19.808594 C 59.027344 19.808594 58.886719 18.769531 58.539062 17.515625 C 58.179688 16.273438 57.671875 14.761719 56.523438 13.542969 C 54.121094 10.957031 51.011719 10.824219 50.296875 10.734375 L 50.257812 10.730469 L 50.214844 10.730469 C 42.863281 10.179688 32.023438 10.1875 32.023438 10.1875 Z M 31.996094 13.644531 L 32.011719 13.644531 C 32.011719 13.644531 42.785156 13.648438 49.886719 14.175781 C 51.1875 14.335938 52.46875 14.242188 53.996094 15.894531 L 54 15.90625 L 54.011719 15.917969 C 54.402344 16.324219 54.917969 17.460938 55.203125 18.460938 C 55.484375 19.445312 55.589844 20.21875 55.59375 20.242188 C 55.59375 20.242188 56.109375 24.511719 56.105469 28.707031 L 56.089844 35.269531 C 56.082031 39.457031 55.589844 43.675781 55.585938 43.710938 C 55.585938 43.710938 55.484375 44.515625 55.191406 45.515625 C 54.910156 46.523438 54.386719 47.664062 54 48.066406 L 53.988281 48.070312 L 53.984375 48.089844 C 52.457031 49.742188 51.164062 49.644531 49.875 49.800781 C 42.773438 50.3125 32.042969 50.355469 32.011719 50.363281 C 32.011719 50.363281 18.617188 50.210938 14.714844 49.835938 C 13.042969 49.523438 11.433594 49.636719 10.003906 48.089844 L 10 48.070312 L 9.988281 48.066406 C 9.597656 47.664062 9.082031 46.523438 8.796875 45.515625 C 8.515625 44.539062 8.410156 43.761719 8.40625 43.734375 C 8.40625 43.734375 7.890625 39.472656 7.894531 35.273438 L 7.914062 28.707031 C 7.917969 24.523438 8.410156 20.300781 8.410156 20.269531 C 8.410156 20.269531 8.515625 19.460938 8.808594 18.460938 C 9.089844 17.460938 9.613281 16.324219 10 15.917969 L 10.023438 15.894531 C 11.542969 14.242188 12.828125 14.335938 14.121094 14.175781 C 21.21875 13.648438 31.996094 13.644531 31.996094 13.644531 Z M 21.664062 17.285156 L 21.664062 46.707031 L 43.730469 32.050781 Z M 25.121094 23.761719 L 37.488281 32.039062 L 25.121094 40.257812 Z M 25.121094 23.761719 "/>
</g>
</svg>
