<svg xmlns="http://www.w3.org/2000/svg" xmlns:xlink="http://www.w3.org/1999/xlink" width="64px" height="64px" viewBox="0 0 64 64" version="1.1">
<defs>
<linearGradient id="linear0" gradientUnits="userSpaceOnUse" x1="0" y1="0" x2="0" y2="1" gradientTransform="matrix(49.423422,0,0,55.351351,7.288288,4.324324)">
<stop offset="0" style="stop-color:#00fff2;stop-opacity:1;"/>
<stop offset="0.5" style="stop-color:#dddddd;stop-opacity:1;"/>
<stop offset="1" style="stop-color:#0062ff;stop-opacity:1;"/>
</linearGradient>
</defs>
<g id="surface1">
<path style=" stroke:none;fill-rule:evenodd;fill:url(#linear0);" d="M 7.296875 21.460938 L 7.296875 32 C 7.296875 34.335938 7.109375 38.363281 8.652344 40.238281 C 11.210938 44.53125 16.699219 53.8125 18.808594 58.066406 C 19.496094 59.339844 21.015625 59.675781 22.945312 59.675781 L 41.054688 59.675781 C 42.984375 59.675781 44.503906 59.339844 45.191406 58.066406 C 47.300781 53.8125 52.789062 44.53125 55.347656 40.238281 C 56.890625 38.363281 56.703125 34.335938 56.703125 32 L 56.703125 21.460938 C 56.703125 12.625 45.726562 4.324219 32 4.324219 C 18.273438 4.324219 7.296875 12.625 7.296875 21.460938 Z M 13.21875 28.042969 L 13.21875 31.011719 C 17.3125 30.367188 19.199219 35.644531 20.882812 38.585938 C 22.460938 41.335938 24.457031 48.800781 24.457031 48.800781 C 25.96875 43.582031 25.136719 33.976562 32 33.976562 C 38.863281 33.976562 38.03125 43.582031 39.542969 48.800781 C 39.542969 48.800781 41.539062 41.335938 43.117188 38.585938 C 44.800781 35.644531 46.6875 30.367188 50.78125 31.011719 L 50.78125 28.042969 Z M 13.21875 28.042969 "/>
</g>
</svg>
