<svg xmlns="http://www.w3.org/2000/svg" xmlns:xlink="http://www.w3.org/1999/xlink" width="64px" height="64px" viewBox="0 0 64 64" version="1.1">
<defs>
<linearGradient id="linear0" gradientUnits="userSpaceOnUse" x1="0" y1="0" x2="0" y2="1" gradientTransform="matrix(52.387388,0,0,52.436936,5.806306,7.238739)">
<stop offset="0" style="stop-color:#00b7ff;stop-opacity:1;"/>
<stop offset="0.5" style="stop-color:#dddddd;stop-opacity:1;"/>
<stop offset="1" style="stop-color:#ee42d9;stop-opacity:1;"/>
</linearGradient>
<linearGradient id="linear1" gradientUnits="userSpaceOnUse" x1="0" y1="0" x2="0" y2="1" gradientTransform="matrix(30.639639,0,0,5.927928,16.68018,4.324324)">
<stop offset="0" style="stop-color:#00b7ff;stop-opacity:1;"/>
<stop offset="0.5" style="stop-color:#dddddd;stop-opacity:1;"/>
<stop offset="1" style="stop-color:#ee42d9;stop-opacity:1;"/>
</linearGradient>
<linearGradient id="linear2" gradientUnits="userSpaceOnUse" x1="0" y1="0" x2="0" y2="1" gradientTransform="matrix(30.441443,0,0,28.657659,18.657655,26.072071)">
<stop offset="0" style="stop-color:#00b7ff;stop-opacity:1;"/>
<stop offset="0.5" style="stop-color:#dddddd;stop-opacity:1;"/>
<stop offset="1" style="stop-color:#ee42d9;stop-opacity:1;"/>
</linearGradient>
</defs>
<g id="surface1">
<path style=" stroke:none;fill-rule:evenodd;fill:url(#linear0);" d="M 58.003906 55.308594 C 58.730469 57.339844 57.28125 59.675781 54.945312 59.675781 L 9.105469 59.675781 C 6.78125 59.675781 5.175781 57.488281 6.042969 55.308594 L 20.632812 18.890625 L 20.632812 7.238281 L 43.367188 7.238281 L 43.367188 18.890625 Z M 55.730469 56.148438 C 55.765625 56.214844 55.765625 56.320312 55.765625 56.386719 C 55.765625 56.632812 55.699219 56.835938 55.523438 57.011719 C 55.386719 57.148438 55.179688 57.253906 54.9375 57.253906 L 9.097656 57.253906 C 9.097656 57.253906 9.0625 57.253906 9.0625 57.253906 C 8.855469 57.253906 8.648438 57.1875 8.476562 57.042969 C 8.335938 56.910156 8.234375 56.703125 8.234375 56.488281 C 8.234375 56.421875 8.269531 56.320312 8.300781 56.214844 L 23.039062 19.375 L 23.039062 9.652344 L 40.960938 9.652344 L 40.960938 19.375 Z M 55.730469 56.148438 "/>
<path style=" stroke:none;fill-rule:nonzero;fill:url(#linear1);" d="M 44.257812 10.253906 L 19.742188 10.253906 C 18.058594 10.253906 16.679688 8.921875 16.679688 7.289062 C 16.679688 5.660156 18.058594 4.324219 19.742188 4.324219 L 44.257812 4.324219 C 45.941406 4.324219 47.320312 5.660156 47.320312 7.289062 C 47.320312 8.921875 45.941406 10.253906 44.257812 10.253906 Z M 44.257812 10.253906 "/>
<path style=" stroke:none;fill-rule:nonzero;fill:url(#linear2);" d="M 26.789062 36.625 C 22.433594 34.226562 19.644531 30.234375 19.644531 30.234375 C 19.644531 30.234375 25.972656 25.097656 32.824219 26.234375 C 39.585938 27.355469 44.238281 33.902344 44.324219 34.023438 C 44.355469 34.027344 44.355469 34.027344 44.355469 34.027344 C 44.355469 34.027344 44.355469 34.027344 44.355469 34.0625 C 44.355469 34.027344 44.355469 34.027344 44.355469 34.0625 C 44.355469 34.171875 44.265625 39.886719 38.765625 43.738281 C 44.570312 45.753906 49.097656 49.335938 49.097656 49.335938 C 49.097656 49.335938 43.757812 55.1875 35.21875 54.703125 C 26.921875 54.238281 19.09375 48.039062 18.765625 47.78125 C 18.664062 47.769531 18.660156 47.769531 18.660156 47.769531 C 18.660156 47.769531 18.46875 41.054688 25.652344 37.191406 C 26.023438 36.988281 26.402344 36.808594 26.789062 36.625 Z M 26.789062 36.625 "/>
</g>
</svg>
