<svg xmlns="http://www.w3.org/2000/svg" xmlns:xlink="http://www.w3.org/1999/xlink" width="64px" height="64px" viewBox="0 0 64 64" version="1.1">
<defs>
<linearGradient id="linear0" gradientUnits="userSpaceOnUse" x1="0" y1="0" x2="0" y2="1" gradientTransform="matrix(48.072071,0,0,55.112612,7.963964,4.671171)">
<stop offset="0" style="stop-color:#ff8963;stop-opacity:1;"/>
<stop offset="0.5" style="stop-color:#dddddd;stop-opacity:1;"/>
<stop offset="1" style="stop-color:#0F6FFF;stop-opacity:1;"/>
</linearGradient>
</defs>
<g id="surface1">
<path style=" stroke:none;fill-rule:evenodd;fill:url(#linear0);" d="M 14.910156 18.511719 L 32 8.648438 L 49.089844 18.40625 L 32 28.335938 Z M 25.671875 51.585938 L 13.027344 43.792969 L 13.027344 41.402344 L 21.523438 35.757812 L 13.539062 30.835938 L 13.539062 27.863281 L 25.671875 35.347656 L 25.671875 37.734375 L 17.113281 43.339844 L 25.671875 48.617188 Z M 32 4.671875 L 56.039062 18.152344 L 56.039062 45.90625 L 32 59.785156 L 7.960938 45.90625 L 7.960938 18.488281 Z M 50.648438 29.835938 L 50.648438 43.417969 L 48.03125 45.039062 L 48.03125 38.050781 C 48.03125 37.753906 48.042969 37.386719 48.066406 36.960938 C 47.914062 37.503906 47.78125 37.945312 47.664062 38.28125 L 44.363281 47.53125 L 41.042969 42.355469 C 40.929688 42.171875 40.792969 41.902344 40.636719 41.539062 C 40.664062 41.9375 40.675781 42.285156 40.675781 42.582031 L 40.675781 49.570312 L 38.058594 51.1875 L 38.058594 37.597656 L 40.714844 35.960938 L 44.054688 41.394531 C 44.160156 41.578125 44.273438 41.8125 44.402344 42.113281 C 44.53125 41.660156 44.648438 41.273438 44.753906 40.960938 L 48.144531 31.382812 Z M 50.648438 29.835938 "/>
</g>
</svg>
