<svg xmlns="http://www.w3.org/2000/svg" xmlns:xlink="http://www.w3.org/1999/xlink" width="64px" height="64px" viewBox="0 0 64 64" version="1.1">
<defs>
<linearGradient id="linear0" gradientUnits="userSpaceOnUse" x1="0" y1="0" x2="0" y2="1" gradientTransform="matrix(48.072071,0,0,55.112612,7.963964,4.671171)">
<stop offset="0" style="stop-color:#00a2ff;stop-opacity:1;"/>
<stop offset="0.5" style="stop-color:#dddddd;stop-opacity:1;"/>
<stop offset="1" style="stop-color:#00ffae;stop-opacity:1;"/>
</linearGradient>
</defs>
<g id="surface1">
<path style=" stroke:none;fill-rule:evenodd;fill:url(#linear0);" d="M 14.910156 18.511719 L 32 8.648438 L 49.089844 18.40625 L 32 28.335938 Z M 25.671875 51.585938 L 13.027344 43.792969 L 13.027344 41.402344 L 21.523438 35.757812 L 13.539062 30.835938 L 13.539062 27.863281 L 25.671875 35.347656 L 25.671875 37.734375 L 17.113281 43.339844 L 25.671875 48.617188 Z M 32 4.671875 L 56.039062 18.152344 L 56.039062 45.90625 L 32 59.785156 L 7.960938 45.90625 L 7.960938 18.488281 Z M 44.679688 48.308594 C 43.460938 49.058594 42.390625 49.472656 41.476562 49.550781 C 40.566406 49.625 39.855469 49.40625 39.339844 48.890625 C 38.835938 48.378906 38.460938 47.726562 38.21875 46.933594 C 37.984375 46.136719 37.863281 45.203125 37.863281 44.136719 C 37.863281 43.144531 37.984375 42.109375 38.230469 41.015625 C 38.476562 39.933594 38.863281 38.808594 39.367188 37.652344 C 39.878906 36.496094 40.589844 35.375 41.503906 34.292969 C 42.414062 33.214844 43.476562 32.300781 44.679688 31.558594 C 46.136719 30.664062 47.363281 30.261719 48.363281 30.355469 C 49.355469 30.457031 50.0625 30.882812 50.484375 31.648438 L 47.675781 34.652344 C 47.242188 34.257812 46.800781 34.039062 46.351562 34.003906 C 45.90625 33.972656 45.347656 34.164062 44.679688 34.570312 C 43.835938 35.097656 43.121094 35.824219 42.558594 36.753906 C 41.988281 37.679688 41.613281 38.589844 41.410156 39.476562 C 41.207031 40.367188 41.109375 41.253906 41.109375 42.136719 C 41.109375 43.542969 41.414062 44.597656 42.027344 45.308594 C 42.636719 46.011719 43.523438 46.003906 44.679688 45.292969 C 45.8125 44.59375 46.792969 43.292969 47.625 41.386719 L 50.503906 40.703125 C 49.296875 44.125 47.355469 46.660156 44.679688 48.308594 Z M 44.679688 48.308594 "/>
</g>
</svg>
