<?xml version="1.0" encoding="UTF-8" standalone="no"?>
<!-- Generator: Gravit.io -->

<svg
   style="isolation:isolate"
   viewBox="0 0 48 48"
   width="48pt"
   height="48pt"
   version="1.1"
   id="svg3"
   sodipodi:docname="folder-download.svg"
   inkscape:version="1.3.2 (091e20ef0f, 2023-11-25)"
   xmlns:inkscape="http://www.inkscape.org/namespaces/inkscape"
   xmlns:sodipodi="http://sodipodi.sourceforge.net/DTD/sodipodi-0.dtd"
   xmlns:xlink="http://www.w3.org/1999/xlink"
   xmlns="http://www.w3.org/2000/svg"
   xmlns:svg="http://www.w3.org/2000/svg">
  <defs
     id="defs3">
    <linearGradient
       id="linearGradient4"
       inkscape:collect="always">
      <stop
         style="stop-color:#f5c2e7;stop-opacity:1;"
         offset="0"
         id="stop4" />
      <stop
         style="stop-color:#cba6f7;stop-opacity:1;"
         offset="1"
         id="stop5" />
    </linearGradient>
    <linearGradient
       inkscape:collect="always"
       xlink:href="#linearGradient4"
       id="linearGradient5"
       x1="1.704"
       y1="13.875518"
       x2="46.229"
       y2="45.990967"
       gradientUnits="userSpaceOnUse" />
  </defs>
  <sodipodi:namedview
     id="namedview3"
     pagecolor="#ffffff"
     bordercolor="#666666"
     borderopacity="1.0"
     inkscape:showpageshadow="2"
     inkscape:pageopacity="0.0"
     inkscape:pagecheckerboard="0"
     inkscape:deskcolor="#d1d1d1"
     inkscape:document-units="pt"
     showguides="true"
     inkscape:current-layer="svg3">
    <sodipodi:guide
       position="1.229,19.5"
       orientation="1,0"
       id="guide3"
       inkscape:locked="false" />
    <sodipodi:guide
       position="18.359447,1.792"
       orientation="0,-1"
       id="guide4"
       inkscape:locked="false" />
    <inkscape:page
       x="0"
       y="0"
       width="48"
       height="48"
       id="page2"
       margin="0"
       bleed="0" />
  </sodipodi:namedview>
  <path
     id="path4"
     d="m 13.618648,11.000245 -7.3901363,0.01025 c -1.3399986,0 -2.5599618,0.528884 -3.4599609,1.379883 C 2.0425515,13.031381 1.229,14.349953 1.229,15.949951 v 25.100098 c 0,2.729998 2.2395145,4.940917 4.9995117,4.940917 H 41.229488 c 2.759998,0 4.999512,-2.21092 4.999512,-4.940917 V 20.849853 c 0,-2.729997 -2.239514,-4.939452 -4.999512,-4.939452 l -15.228515,0.0088 C 22.578568,15.791188 19.95015,14.054885 17.248531,12.150147 16.349532,11.518148 14.728647,11.000245 13.618648,11.000245 Z"
     style="isolation:isolate;fill:url(#linearGradient5);fill-opacity:1" />
  <path
     d="m 6.229,11.010518 c -1.34,0 -2.56,0.529 -3.46,1.38 -0.6998917,2.12691 0.202267,3.266681 2.23,3.539999 h 21.3 c -3.57,-0.0342 -6.27,-1.819999 -9.05,-3.78 -0.899,-0.631999 -2.52,-1.149999 -3.63,-1.149999 z m -4.13,2.17 c -0.00833,0.0121 -0.0167,0.024 -0.0249,0.0362 0.00815,-0.0122 0.0167,-0.0241 0.0249,-0.0362 z m -0.202,0.324 c -0.0434,0.0748 -0.085,0.15 -0.124,0.227 0.0396,-0.0785 0.0822,-0.153 0.124,-0.227 z m -0.193,0.371 c -0.0543,0.115 -0.104,0.232 -0.149,0.351999 0.0458,-0.120999 0.0965,-0.237999 0.149,-0.351999 z m -0.192,0.469 c -0.0446,0.127 -0.0831,0.257999 -0.117,0.389 0.0348,-0.133 0.0731,-0.263 0.117,-0.389 z m -0.148,0.504 c -0.03,0.128999 -0.0522,0.260999 -0.0718,0.394 0.02,-0.133 0.0418,-0.266 0.0718,-0.394 z m -0.0981,0.563 c -0.02,0.178999 -0.0322,0.361 -0.0322,0.546 -3.73e-4,-0.186 0.012,-0.368 0.0322,-0.546 z"
     fill="#37a29c"
     id="path2-7"
     sodipodi:nodetypes="ccccccccccccccccccccccccc"
     style="isolation:isolate;fill:#000000;fill-opacity:0.2" />
  <path
     d="m 34.155,31.088 v 0 c 0,-0.48 0.39,-0.87 0.869,-0.87 v 0 c 0.48,0 0.87,0.39 0.87,0.87 v 0 3.591 l 2.817,-1.877 c 0.999,-0.666 2.234,-0.329 2.756,0.751 l 0.298,0.617 c 0.523,1.08 0.143,2.507 -0.847,3.185 l -6.197,4.239 c -0.793,0.541 -2.079,0.541 -2.871,0 L 25.653,37.355 C 24.662,36.677 24.282,35.25 24.805,34.17 l 0.298,-0.617 c 0.523,-1.08 1.757,-1.417 2.756,-0.751 l 2.817,1.877 v -8.809 0 c 0,-0.48 0.39,-0.87 0.87,-0.87 v 0 c 0.48,0 0.87,0.39 0.87,0.87 v 0 11.192 c 0,0.48 -0.325,0.653 -0.724,0.387 L 27.33,34.54 c -0.399,-0.266 -0.817,-0.134 -0.932,0.296 v 0 c -0.116,0.429 0.112,0.998 0.509,1.269 l 5.661,3.875 c 0.396,0.271 1.039,0.271 1.435,0 l 5.661,-3.875 c 0.396,-0.271 0.624,-0.84 0.509,-1.269 v 0 C 40.058,34.406 39.64,34.274 39.241,34.54 l -4.363,2.909 c -0.399,0.266 -0.723,0.093 -0.723,-0.387 z m 0,-3.914 c 0,-0.48 0.39,-0.87 0.869,-0.87 0.48,0 0.87,0.39 0.87,0.87 0,0.48 -0.39,0.87 -0.87,0.87 -0.479,0 -0.869,-0.39 -0.869,-0.87 z"
     fill-rule="evenodd"
     fill="#ffffff"
     id="path3" />
</svg>
