<?xml version="1.0" encoding="UTF-8" standalone="no"?>
<svg
   width="22"
   height="22"
   version="1.1"
   id="svg12"
   sodipodi:docname="konversation-symbolic.svg"
   inkscape:version="1.3.2 (091e20ef0f, 2023-11-25)"
   xmlns:inkscape="http://www.inkscape.org/namespaces/inkscape"
   xmlns:sodipodi="http://sodipodi.sourceforge.net/DTD/sodipodi-0.dtd"
   xmlns="http://www.w3.org/2000/svg"
   xmlns:svg="http://www.w3.org/2000/svg"
   xmlns:rdf="http://www.w3.org/1999/02/22-rdf-syntax-ns#"
   xmlns:cc="http://creativecommons.org/ns#"
   xmlns:dc="http://purl.org/dc/elements/1.1/">
  <style
     id="current-color-scheme"
     type="text/css">.ColorScheme-Text { color:#d6dbf1; }
</style>
  <metadata
     id="metadata18">
    <rdf:RDF>
      <cc:Work
         rdf:about="">
        <dc:format>image/svg+xml</dc:format>
        <dc:type
           rdf:resource="http://purl.org/dc/dcmitype/StillImage" />
      </cc:Work>
    </rdf:RDF>
  </metadata>
  <defs
     id="defs16" />
  <sodipodi:namedview
     pagecolor="#201933"
     bordercolor="#000000"
     borderopacity="1"
     objecttolerance="10"
     gridtolerance="10"
     guidetolerance="10"
     inkscape:pageopacity="0"
     inkscape:pageshadow="2"
     inkscape:window-width="1920"
     inkscape:window-height="994"
     id="namedview14"
     showgrid="true"
     inkscape:zoom="19.625001"
     inkscape:cx="5.3503183"
     inkscape:cy="11.515923"
     inkscape:window-x="0"
     inkscape:window-y="0"
     inkscape:window-maximized="1"
     inkscape:current-layer="svg12"
     inkscape:document-rotation="0"
     inkscape:pagecheckerboard="true"
     inkscape:showpageshadow="true"
     inkscape:lockguides="true"
     inkscape:deskcolor="#201933">
    <inkscape:grid
       type="xygrid"
       id="grid10976"
       originx="-32"
       originy="-10"
       spacingy="1"
       spacingx="1"
       units="px"
       visible="true" />
  </sodipodi:namedview>
  <g
     id="22-22-konversation"
     style="fill:#d3dae3;fill-opacity:1"
     transform="translate(-32,-10)">
    <rect
       style="opacity:0.00100002;fill:#d3dae3;fill-opacity:1"
       width="22"
       height="22"
       x="32"
       y="10"
       id="rect2-3" />
    <path
       d="m 43.000001,28.999999 c -0.309459,3.92e-4 -0.608075,-0.114176 -0.838115,-0.321554 L 40.364,26.979 C 40.077339,26.686676 39.586706,26.003245 39.17768,26 H 35.515335 C 34.126153,25.999995 33.000001,25.38905 33,23.997295 l 0.0065,-8.477292 c 0,-1.391577 1.125874,-2.519745 2.514878,-2.520003 h 14.963287 c 1.389183,4e-6 2.515337,1.128246 2.515337,2.520003 v 8.478299 C 53.000001,25.390057 51.873847,26 50.484665,26 h -3.671411 c -0.40135,-0.0018 -0.886255,0.676881 -1.168254,0.963 l -1.806883,1.71343 c -0.229741,0.20811 -0.528389,0.323408 -0.838116,0.323569 z M 35.521378,14 C 34.68787,14.000005 34,14.683945 34,15.518997 v 8.478298 C 34.000001,24.83235 34.681376,25 35.514887,25 h 3.661346 c 0.667184,-0.0018 1.30735,0.773227 1.777846,1.247148 l 1.87544,1.680338 c 0.09508,0.08629 0.239968,0.08629 0.335044,0 l 1.885503,-1.695458 C 45.520286,25.769552 46.152873,25.000101 46.811812,25 h 3.671394 C 51.316717,25 51.999999,24.833357 52,23.998302 V 15.518997 C 52,14.683955 51.316741,14.00002 50.483243,14 Z"
       id="path1899-7-1"
       style="fill:#d3dae3;fill-opacity:1;stroke-width:1.00714"
       sodipodi:nodetypes="cccccccccssscccccccsccccccscscc" />
    <path
       d="M 36.529333,18 H 46.804001 C 47.059342,18 47.533,17.551996 47.533,16.999998 47.533,16.447996 47.059342,16 46.804001,16 H 36.529333 C 36.273992,16 35.8,16.447996 35.8,16.999998 35.8,17.551996 36.273992,18 36.529333,18 Z"
       id="path2653-0-9"
       style="fill:#d3dae3;fill-opacity:1;stroke-width:0.340076"
       sodipodi:nodetypes="sssssss" />
    <path
       d="m 36.559138,23 h 7.548389 C 44.416175,23 44.867,22.552002 44.867,22.000003 44.867,21.448008 44.416173,21 44.107527,21 H 36.559138 C 36.250491,21 35.8,21.448008 35.8,22.000003 35.8,22.552002 36.250491,23 36.559138,23 Z"
       id="path2655-9-4"
       style="fill:#d3dae3;fill-opacity:1;stroke-width:0.373871"
       sodipodi:nodetypes="sssssss" />
  </g>
</svg>
