<?xml version="1.0" encoding="UTF-8" standalone="no"?>
<svg
   width="22"
   height="22"
   version="1.1"
   id="svg1404"
   sodipodi:docname="ring-symbolic.svg"
   inkscape:version="1.3.2 (091e20ef0f, 2023-11-25)"
   xmlns:inkscape="http://www.inkscape.org/namespaces/inkscape"
   xmlns:sodipodi="http://sodipodi.sourceforge.net/DTD/sodipodi-0.dtd"
   xmlns="http://www.w3.org/2000/svg"
   xmlns:svg="http://www.w3.org/2000/svg">
  <sodipodi:namedview
     id="namedview1406"
     pagecolor="#02334b"
     bordercolor="#000000"
     borderopacity="1"
     inkscape:showpageshadow="2"
     inkscape:pageopacity="0.0"
     inkscape:pagecheckerboard="true"
     inkscape:deskcolor="#02334b"
     showgrid="true"
     inkscape:zoom="10.429825"
     inkscape:cx="-9.0126153"
     inkscape:cy="14.381833"
     inkscape:window-width="1920"
     inkscape:window-height="994"
     inkscape:window-x="0"
     inkscape:window-y="0"
     inkscape:window-maximized="1"
     inkscape:current-layer="svg1404">
    <inkscape:grid
       type="xygrid"
       id="grid1730"
       originx="-32"
       originy="-10"
       spacingy="1"
       spacingx="1"
       units="px"
       visible="true" />
  </sodipodi:namedview>
  <defs
     id="l4k1">
    <style
       type="text/css"
       id="current-color-scheme" />
  </defs>
  <g
     id="22-22-ring-kde"
     transform="translate(-32,-10)">
    <rect
       style="opacity:0.00100002;fill:#d3dae3;fill-opacity:1"
       width="22"
       height="22"
       x="32"
       y="10"
       id="rect1399" />
    <path
       inkscape:connector-curvature="0"
       style="color:#000000;fill:#d3dae3;fill-opacity:0.67000002;stroke-width:0.393919"
       id="path6313-3"
       d="m 36.896115,15.960769 -1.163785,2.078462 c -0.775856,1.38564 12.662364,9.38564 13.438221,8 l 1.163784,-2.078462 c 0.775856,-1.38564 -12.662365,-9.38564 -13.43822,-8 z" />
    <path
       inkscape:connector-curvature="0"
       style="color:#000000;fill:#d3dae3;fill-opacity:0.66324198;stroke-width:0.393919"
       id="path6309-6"
       d="m 49.170551,15.960769 1.163784,2.078462 c 0.775856,1.38564 -12.662365,9.38564 -13.438221,8 L 35.73233,23.960769 c -0.775856,-1.38564 12.662364,-9.38564 13.438221,-8 z" />
    <path
       inkscape:connector-curvature="0"
       style="color:#000000;fill:#d3dae3;fill-opacity:1;stroke-width:0.393919"
       id="rect5354-5"
       d="m 41.869549,13 h 2.327566 c 1.551711,0 1.551711,16 0,16 h -2.327566 c -1.551711,0 -1.551711,-16 0,-16 z" />
    <path
       inkscape:connector-curvature="0"
       style="color:#000000;fill:#d3dae3;fill-opacity:0.63698632;stroke-width:0.393919"
       id="path6369-3"
       d="m 41.869549,13 h 2.327566 c 1.551711,0 1.551711,16 0,16 h -2.327566 c -1.551711,0 -1.551711,-16 0,-16 z" />
    <path
       d="m 43,19 c -1.102924,0 -1.999839,0.897166 -1.999839,2 0,1.10251 0.896915,2 1.999839,2 1.102923,0 2.000161,-0.89749 2.000161,-2 0,-1.102834 -0.897238,-2 -2.000161,-2 z m 0,1.052632 z"
       id="path4-3"
       style="fill:#16adfb;fill-opacity:1;stroke-width:0.323899"
       sodipodi:nodetypes="sssssccccc" />
  </g>
</svg>
