<?xml version="1.0" encoding="UTF-8" standalone="no"?>
<svg
   width="32"
   height="32"
   version="1.1"
   id="svg1"
   sodipodi:docname="touchpad_enabled.svg"
   inkscape:version="1.3.2 (091e20ef0f, 2023-11-25)"
   xmlns:inkscape="http://www.inkscape.org/namespaces/inkscape"
   xmlns:sodipodi="http://sodipodi.sourceforge.net/DTD/sodipodi-0.dtd"
   xmlns="http://www.w3.org/2000/svg"
   xmlns:svg="http://www.w3.org/2000/svg">
  <defs
     id="defs1" />
  <sodipodi:namedview
     id="namedview1"
     pagecolor="#ffffff"
     bordercolor="#999999"
     borderopacity="1"
     inkscape:showpageshadow="2"
     inkscape:pageopacity="0"
     inkscape:pagecheckerboard="0"
     inkscape:deskcolor="#d1d1d1"
     inkscape:zoom="8.4189901"
     inkscape:cx="15.560061"
     inkscape:cy="16.153956"
     inkscape:window-width="1920"
     inkscape:window-height="994"
     inkscape:window-x="0"
     inkscape:window-y="0"
     inkscape:window-maximized="1"
     inkscape:current-layer="svg1" />
  <style
     type="text/css"
     id="current-color-scheme">.ColorScheme-Text{color:#31363b;}.ColorScheme-Background{color:#eff0f1;}.ColorScheme-Highlight{color:#3daee9;}.ColorScheme-ViewText{color:#31363b;}.ColorScheme-ViewBackground{color:#fcfcfc;}.ColorScheme-ViewHover{color:#93cee9;}.ColorScheme-ViewFocus{color:#3daee9;}.ColorScheme-ButtonText{color:#31363b;}.ColorScheme-ButtonBackground{color:#eff0f1;}.ColorScheme-ButtonHover{color:#93cee9;}.ColorScheme-ButtonFocus{color:#3daee9;}.ColorScheme-NegativeText { color: #da4453; } </style>
  <g
     id="touchpad_enabled"
     transform="translate(0,-22.000015)"
     style="fill:#d3dae3;fill-opacity:1">
    <rect
       style="opacity:0.00100002;fill:#d3dae3;fill-opacity:1"
       width="32"
       height="32"
       x="0"
       y="22.000015"
       id="rect12" />
    <path
       style="fill:#d3dae3;fill-opacity:1;stroke-width:1.71429"
       class="ColorScheme-Text"
       d="m 4,43.000015 v 2 h 24 v -2 z"
       fill-rule="evenodd"
       id="path60-6-5"
       sodipodi:nodetypes="ccccc" />
    <path
       style="fill:#d3dae3;fill-opacity:1;stroke-width:1.71429"
       class="ColorScheme-Text"
       d="m 15,45.000015 v 4 h 2 v -4 z"
       fill-rule="evenodd"
       id="path62-7-6"
       sodipodi:nodetypes="ccccc" />
    <path
       d="M 26,26.000015 H 6 c -1.346939,0 -2.0005299,0.9 -2.0005025,1.999999 L 3.999996,48.000012 C 4.0000234,49.100015 4.653061,50.000015 6,50.000015 h 20 c 1.34694,0 1.999996,-0.9 1.999996,-2.000003 V 28.000014 c 0,-1.099999 -0.653056,-1.999999 -1.999996,-1.999999 z m 1,21.999997 c 0,1.000003 -0.7366,0.999995 -1.448977,0.999995 H 6.449001 C 5.775503,49.000007 5,49.000015 5,48.000012 V 28.000014 C 5,27.000015 5.5757515,27.000015 6.2492495,27.000015 H 25.750752 c 0.673443,0 1.249248,0 1.249248,0.999999 z"
       id="path2-53-2"
       style="fill:#d3dae3;fill-opacity:1;stroke-width:0.553282"
       sodipodi:nodetypes="ssssssssssssssssss" />
    <path
       style="fill:#d3dae3;fill-opacity:1;fill-rule:nonzero;stroke:none;stroke-width:21.9153;stroke-miterlimit:4;stroke-dasharray:none;stroke-opacity:1"
       d="m 16.011345,28.000128 c -1.38589,-0.0063 -2.57415,0.250886 -3.654713,0.791923 -0.359744,0.180103 -0.415734,0.243279 -0.392446,0.437723 0.04763,0.396847 0.252471,0.43537 0.859334,0.163009 1.128225,-0.50631 1.677185,-0.614283 3.100275,-0.615828 1.63328,-0.0013 2.23475,0.138572 3.57422,0.832177 0.23015,0.119011 0.95872,0.681415 1.23067,0.379358 0.26932,-0.269303 0.127,-0.492207 -0.56652,-0.886513 -1.36777,-0.777621 -2.56283,-1.094328 -4.15082,-1.101849 z m -0.0423,1.603974 c -1.82857,-0.0014 -3.656008,0.721061 -4.996054,2.168479 C 10.454575,32.332516 9.85,33.250269 9.85,33.47718 c 0,0.264574 0.109036,0.410561 0.306911,0.410561 0.155075,0 0.31283,-0.167287 0.688279,-0.731549 0.839681,-1.261981 1.928268,-2.099167 3.330715,-2.561942 1.08764,-0.354985 2.3613,-0.313897 3.58528,0 1.58038,0.519476 2.93617,1.676708 3.67889,3.140531 0.16165,0.318513 0.25827,0.415582 0.41657,0.415582 0.27263,0 0.43271,-0.202875 0.35824,-0.454828 -0.1201,-0.406374 -0.76073,-1.391011 -1.24575,-1.914909 -1.34194,-1.449448 -3.17154,-2.175144 -5.0001,-2.176524 z m 0.0865,1.592896 c -0.38974,-0.0076 -0.78519,0.03006 -1.18035,0.112618 -1.877704,0.392491 -3.447164,1.913202 -3.949554,3.826785 -0.266607,1.015487 -0.144016,2.674175 0.295843,4.000874 0.131429,0.39648 0.194943,0.47917 0.383376,0.501125 0.433283,0.05035 0.475608,-0.155815 0.216347,-1.052551 -0.741872,-2.565782 -0.10325,-4.748679 1.736818,-5.938924 1.81913,-1.176763 4.32103,-0.828502 5.74471,0.798971 0.89214,1.019859 1.38147,2.744921 0.99216,3.497748 -0.25718,0.497336 -0.88333,0.796233 -1.39768,0.667148 -0.37589,-0.09427 -0.82144,-0.556256 -0.87848,-0.910664 -0.20126,-1.250649 -0.48536,-1.740085 -1.20448,-2.0749 -0.61343,-0.285623 -1.12473,-0.277738 -1.72673,0.02724 -0.56091,0.284107 -0.99067,0.857552 -1.07771,1.437934 -0.0315,0.209152 -0.0175,0.661751 0.0313,1.005252 0.30345,2.139693 1.83432,3.83236 3.93646,4.353066 0.26437,0.06538 0.69662,0.111764 0.96098,0.102577 l 0.48099,-0.0158 c 0.2717,-0.137886 0.28658,-0.45533 0,-0.611806 l -0.68021,-0.10371 c -0.85617,-0.130518 -1.2107,-0.243262 -1.7992,-0.574566 -1.27976,-0.720443 -2.19664,-2.282207 -2.19664,-3.741256 0,-0.642983 0.24342,-1.018571 0.81103,-1.253796 0.41013,-0.169983 0.416,-0.169983 0.82613,0 0.51905,0.215109 0.76888,0.575102 0.83318,1.19845 0.11808,1.144 0.91195,1.896794 2.00043,1.896794 0.87357,0 1.60888,-0.566883 1.86964,-1.440961 0.25521,-0.855423 -0.0875,-2.292197 -0.80701,-3.385048 -0.95372,-1.448319 -2.53238,-2.293093 -4.22127,-2.322432 z m -0.0564,1.657307 c -0.54393,0.0077 -1.10329,0.107263 -1.56172,0.285787 -0.70683,0.346171 -1.380354,1.037504 -1.728738,1.773012 -0.265107,0.559657 -0.280912,0.646814 -0.280753,1.596931 1.96e-4,1.168948 0.141577,1.78992 0.645013,2.839665 0.433748,0.904527 1.034648,1.693428 1.702598,2.233885 0.57895,0.468467 0.64046,0.491203 0.88147,0.314964 0.24675,-0.180419 0.10907,-0.490228 -0.38942,-0.872433 -0.54054,-0.414406 -1.12437,-1.164014 -1.51844,-1.950121 -0.647273,-1.291202 -0.810348,-2.887038 -0.388413,-3.800636 0.306223,-0.663047 0.773153,-1.157646 1.368503,-1.450005 0.71529,-0.351274 1.76011,-0.351274 2.47541,0 0.85374,0.41924 1.39962,1.182653 1.59289,2.229851 0.11534,0.625104 0.29001,0.832884 0.55647,0.661112 0.1234,-0.0795 0.15033,-0.212204 0.13896,-0.688275 -0.0279,-1.157265 -0.83874,-2.319192 -2.0236,-2.901045 -0.39773,-0.193531 -0.92619,-0.279561 -1.47013,-0.272692 z"
       id="path20-9" />
    <path
       style="fill:#d3dae3;fill-opacity:1;fill-rule:nonzero;stroke:none;stroke-width:21.9153;stroke-miterlimit:4;stroke-dasharray:none;stroke-opacity:1"
       d="m 18.414365,39.886068 c -1.49338,-0.325757 -2.64443,-1.641506 -2.77366,-3.17051 -0.0408,-0.483243 -0.0266,-0.547108 0.14069,-0.636685 0.31875,-0.170583 0.50297,0.0096 0.56672,0.550928 0.1603,1.36396 1.16266,2.39265 2.51109,2.577052 0.65971,0.09016 0.87189,0.343513 0.55402,0.661392 -0.15918,0.15918 -0.33641,0.162289 -0.99878,0.01781 z"
       id="path22-1" />
  </g>
</svg>
